<?xml version="1.0" encoding="utf-8" standalone="no"?>
<!DOCTYPE svg PUBLIC "-//W3C//DTD SVG 1.1//EN"
  "http://www.w3.org/Graphics/SVG/1.1/DTD/svg11.dtd">
<svg xmlns:xlink="http://www.w3.org/1999/xlink" width="720pt" height="216pt" viewBox="0 0 720 216" xmlns="http://www.w3.org/2000/svg" version="1.1">
 <metadata>
  <rdf:RDF xmlns:dc="http://purl.org/dc/elements/1.1/" xmlns:cc="http://creativecommons.org/ns#" xmlns:rdf="http://www.w3.org/1999/02/22-rdf-syntax-ns#">
   <cc:Work>
    <dc:type rdf:resource="http://purl.org/dc/dcmitype/StillImage"/>
    <dc:date>2025-12-17T10:22:52.844059</dc:date>
    <dc:format>image/svg+xml</dc:format>
    <dc:creator>
     <cc:Agent>
      <dc:title>Matplotlib v3.8.2, https://matplotlib.org/</dc:title>
     </cc:Agent>
    </dc:creator>
   </cc:Work>
  </rdf:RDF>
 </metadata>
 <defs>
  <style type="text/css">*{stroke-linejoin: round; stroke-linecap: butt}</style>
 </defs>
 <g id="figure_1">
  <g id="patch_1">
   <path d="M 0 216 
L 720 216 
L 720 0 
L 0 0 
z
" style="fill: #ffffff"/>
  </g>
  <g id="axes_1">
   <g id="patch_2">
    <path d="M 90 192.24 
L 648 192.24 
L 648 25.92 
L 90 25.92 
z
" style="fill: #ffffff"/>
   </g>
   <g id="line2d_1">
    <path d="M 90 192.24 
L 648 192.24 
" clip-path="url(#p81c22e4702)" style="fill: none; stroke: #000000; stroke-width: 0.5; stroke-linecap: square"/>
   </g>
   <g id="patch_3">
    <path d="M 104.150317 191.679618 
L 96.294135 191.679618 
L 95.053685 192.24 
L 90 192.24 
L 97.217163 189.163832 
L 103.210583 189.163832 
L 110.427746 192.24 
L 105.378237 192.24 
L 104.150317 191.679618 
z
M 97.547114 191.108687 
L 102.884808 191.108687 
L 100.220138 189.885077 
L 97.547114 191.108687 
z
" clip-path="url(#p81c22e4702)" style="fill: #008000"/>
   </g>
   <g id="patch_4">
    <path d="M 110.427746 188.864099 
Q 108.367574 189.013966 106.151745 189.089241 
Q 103.935916 189.163832 101.573586 189.163832 
Q 96.235453 189.163832 93.117726 188.717655 
Q 90 188.271478 90 187.50846 
Q 90 186.736547 93.172664 186.293791 
Q 96.349907 185.851036 101.875745 185.851036 
Q 104.004589 185.851036 105.954884 185.911256 
Q 107.909758 185.970792 109.640302 186.088495 
L 109.640302 186.748864 
Q 107.85482 186.597629 106.087651 186.523038 
Q 104.320481 186.447763 102.544156 186.447763 
Q 99.257038 186.447763 97.476134 186.72286 
Q 95.69523 186.997273 95.69523 187.50846 
Q 95.69523 188.014858 97.412039 188.291323 
Q 99.128849 188.567104 102.287779 188.567104 
Q 103.148473 188.567104 103.885556 188.551365 
Q 104.62264 188.534941 105.208644 188.500725 
L 105.208644 187.880731 
L 101.843697 187.880731 
L 101.843697 187.328484 
L 110.427746 187.328484 
L 110.427746 188.864099 
z
" clip-path="url(#p81c22e4702)" style="fill: #ffa600"/>
   </g>
   <g id="patch_5">
    <path d="M 110.427746 185.121696 
Q 108.719 185.483213 106.87129 185.666073 
Q 105.02358 185.851036 103.011172 185.851036 
Q 97.009975 185.851036 93.504987 184.480635 
Q 90 183.110234 90 180.76668 
Q 90 178.414718 93.504987 177.046419 
Q 97.009975 175.676018 103.011172 175.676018 
Q 105.02358 175.676018 106.87129 175.86098 
Q 108.719 176.043841 110.427746 176.405357 
L 110.427746 178.433635 
Q 108.70356 177.954415 107.030842 177.73162 
Q 105.358124 177.508824 103.510414 177.508824 
Q 100.195859 177.508824 98.296681 178.376885 
Q 96.402649 179.242844 96.402649 180.76668 
Q 96.402649 182.28421 98.296681 183.15227 
Q 100.195859 184.018229 103.510414 184.018229 
Q 105.358124 184.018229 107.030842 183.795434 
Q 108.70356 183.570537 110.427746 183.091317 
L 110.427746 185.121696 
z
" clip-path="url(#p81c22e4702)" style="fill: #0000ff"/>
   </g>
   <g id="patch_6">
    <path d="M 90 156.035868 
L 110.427746 156.035868 
L 110.427746 159.866245 
L 103.078508 159.866245 
L 103.078508 175.676018 
L 97.36349 175.676018 
L 97.36349 159.866245 
L 90 159.866245 
L 90 156.035868 
z
" clip-path="url(#p81c22e4702)" style="fill: #ff0000"/>
   </g>
   <g id="patch_7">
    <path d="M 125.653208 191.824925 
L 117.797025 191.824925 
L 116.556575 192.24 
L 111.50289 192.24 
L 118.720053 189.961482 
L 124.713473 189.961482 
L 131.930636 192.24 
L 126.881128 192.24 
L 125.653208 191.824925 
z
M 119.050005 191.402037 
L 124.387698 191.402037 
L 121.723028 190.495708 
L 119.050005 191.402037 
z
" clip-path="url(#p81c22e4702)" style="fill: #008000"/>
   </g>
   <g id="patch_8">
    <path d="M 131.930636 189.731075 
Q 129.870464 189.846279 127.654635 189.904143 
Q 125.438806 189.961482 123.076476 189.961482 
Q 117.738343 189.961482 114.620616 189.618501 
Q 111.50289 189.275521 111.50289 188.688982 
Q 111.50289 188.095604 114.675554 187.755254 
Q 117.852797 187.414903 123.378635 187.414903 
Q 125.507479 187.414903 127.457774 187.461195 
Q 129.412648 187.506961 131.143192 187.597441 
L 131.143192 188.105073 
Q 129.35771 187.988817 127.590541 187.931479 
Q 125.823372 187.873614 124.047046 187.873614 
Q 120.759928 187.873614 118.979024 188.085083 
Q 117.19812 188.296027 117.19812 188.688982 
Q 117.19812 189.078254 118.91493 189.290776 
Q 120.631739 189.502772 123.790669 189.502772 
Q 124.651363 189.502772 125.388447 189.490673 
Q 126.12553 189.478048 126.711535 189.451746 
L 126.711535 188.97515 
L 123.346588 188.97515 
L 123.346588 188.550632 
L 131.930636 188.550632 
L 131.930636 189.731075 
z
" clip-path="url(#p81c22e4702)" style="fill: #ffa600"/>
   </g>
   <g id="patch_9">
    <path d="M 131.930636 186.915328 
Q 130.22189 187.162956 128.37418 187.28821 
Q 126.52647 187.414903 124.514062 187.414903 
Q 118.512865 187.414903 115.007878 186.476219 
Q 111.50289 185.537536 111.50289 183.932271 
Q 111.50289 182.321247 115.007878 181.384003 
Q 118.512865 180.445319 124.514062 180.445319 
Q 126.52647 180.445319 128.37418 180.572013 
Q 130.22189 180.697267 131.930636 180.944895 
L 131.930636 182.334205 
Q 130.20645 182.005953 128.533732 181.853345 
Q 126.861014 181.700737 125.013304 181.700737 
Q 121.698749 181.700737 119.799571 182.295333 
Q 117.90554 182.888489 117.90554 183.932271 
Q 117.90554 184.971734 119.799571 185.56633 
Q 121.698749 186.159486 125.013304 186.159486 
Q 126.861014 186.159486 128.533732 186.006877 
Q 130.20645 185.85283 131.930636 185.524578 
L 131.930636 186.915328 
z
" clip-path="url(#p81c22e4702)" style="fill: #0000ff"/>
   </g>
   <g id="patch_10">
    <path d="M 111.50289 171.733339 
L 131.930636 171.733339 
L 131.930636 173.432418 
L 124.581398 173.432418 
L 124.581398 180.445319 
L 118.86638 180.445319 
L 118.86638 173.432418 
L 111.50289 173.432418 
L 111.50289 171.733339 
z
" clip-path="url(#p81c22e4702)" style="fill: #ff0000"/>
   </g>
   <g id="patch_11">
    <path d="M 133.00578 190.819122 
L 153.433526 190.819122 
L 153.433526 191.096233 
L 146.084288 191.096233 
L 146.084288 192.24 
L 140.36927 192.24 
L 140.36927 191.096233 
L 133.00578 191.096233 
L 133.00578 190.819122 
z
" clip-path="url(#p81c22e4702)" style="fill: #ff0000"/>
   </g>
   <g id="patch_12">
    <path d="M 153.433526 190.659076 
Q 151.72478 190.738407 149.87707 190.778534 
Q 148.02936 190.819122 146.016952 190.819122 
Q 140.015755 190.819122 136.510768 190.518401 
Q 133.00578 190.21768 133.00578 189.70341 
Q 133.00578 189.187295 136.510768 188.887035 
Q 140.015755 188.586313 146.016952 188.586313 
Q 148.02936 188.586313 149.87707 188.626902 
Q 151.72478 188.667029 153.433526 188.74636 
L 153.433526 189.191446 
Q 151.70934 189.086285 150.036622 189.037395 
Q 148.363904 188.988505 146.516194 188.988505 
Q 143.201639 188.988505 141.302461 189.178992 
Q 139.40843 189.369019 139.40843 189.70341 
Q 139.40843 190.036417 141.302461 190.226904 
Q 143.201639 190.41693 146.516194 190.41693 
Q 148.363904 190.41693 150.036622 190.36804 
Q 151.70934 190.318689 153.433526 190.213529 
L 153.433526 190.659076 
z
" clip-path="url(#p81c22e4702)" style="fill: #0000ff"/>
   </g>
   <g id="patch_13">
    <path d="M 147.156098 188.142588 
L 139.299915 188.142588 
L 138.059465 188.586313 
L 133.00578 188.586313 
L 140.222943 186.150522 
L 146.216363 186.150522 
L 153.433526 188.586313 
L 148.384018 188.586313 
L 147.156098 188.142588 
z
M 140.552895 187.69051 
L 145.890588 187.69051 
L 143.225918 186.721623 
L 140.552895 187.69051 
z
" clip-path="url(#p81c22e4702)" style="fill: #008000"/>
   </g>
   <g id="patch_14">
    <path d="M 153.433526 185.764851 
Q 151.373354 185.957687 149.157525 186.054545 
Q 146.941696 186.150522 144.579366 186.150522 
Q 139.241233 186.150522 136.123507 185.576418 
Q 133.00578 185.002314 133.00578 184.020526 
Q 133.00578 183.027291 136.178445 182.45759 
Q 139.355687 181.887888 144.881525 181.887888 
Q 147.010369 181.887888 148.960665 181.965375 
Q 150.915539 182.041981 152.646083 182.193431 
L 152.646083 183.04314 
Q 150.860601 182.848544 149.093431 182.752566 
Q 147.326262 182.655708 145.549936 182.655708 
Q 142.262818 182.655708 140.481914 183.00968 
Q 138.70101 183.362772 138.70101 184.020526 
Q 138.70101 184.672117 140.41782 185.02785 
Q 142.134629 185.382702 145.293559 185.382702 
Q 146.154253 185.382702 146.891337 185.36245 
Q 147.62842 185.341318 148.214425 185.297291 
L 148.214425 184.499533 
L 144.849478 184.499533 
L 144.849478 183.788947 
L 153.433526 183.788947 
L 153.433526 185.764851 
z
" clip-path="url(#p81c22e4702)" style="fill: #ffa600"/>
   </g>
   <g id="patch_15">
    <path d="M 168.658988 191.748813 
L 160.802805 191.748813 
L 159.562355 192.24 
L 154.508671 192.24 
L 161.725834 189.54367 
L 167.719253 189.54367 
L 174.936416 192.24 
L 169.886908 192.24 
L 168.658988 191.748813 
z
M 162.055785 191.248379 
L 167.393478 191.248379 
L 164.728808 190.175857 
L 162.055785 191.248379 
z
" clip-path="url(#p81c22e4702)" style="fill: #008000"/>
   </g>
   <g id="patch_16">
    <path d="M 174.936416 189.350398 
Q 173.227671 189.446199 171.379961 189.494656 
Q 169.532251 189.54367 167.519842 189.54367 
Q 161.518645 189.54367 158.013658 189.18052 
Q 154.508671 188.81737 154.508671 188.19634 
Q 154.508671 187.573082 158.013658 187.210489 
Q 161.518645 186.847339 167.519842 186.847339 
Q 169.532251 186.847339 171.379961 186.896353 
Q 173.227671 186.944811 174.936416 187.040611 
L 174.936416 187.578095 
Q 173.21223 187.451104 171.539512 187.392064 
Q 169.866794 187.333024 168.019084 187.333024 
Q 164.704529 187.333024 162.805351 187.563056 
Q 160.91132 187.792531 160.91132 188.19634 
Q 160.91132 188.598478 162.805351 188.82851 
Q 164.704529 189.057985 168.019084 189.057985 
Q 169.866794 189.057985 171.539512 188.998945 
Q 173.21223 188.939349 174.936416 188.812358 
L 174.936416 189.350398 
z
" clip-path="url(#p81c22e4702)" style="fill: #0000ff"/>
   </g>
   <g id="patch_17">
    <path d="M 154.508671 175.676828 
L 174.936416 175.676828 
L 174.936416 177.855389 
L 167.587178 177.855389 
L 167.587178 186.847339 
L 161.87216 186.847339 
L 161.87216 177.855389 
L 154.508671 177.855389 
L 154.508671 175.676828 
z
" clip-path="url(#p81c22e4702)" style="fill: #ff0000"/>
   </g>
   <g id="patch_18">
    <path d="M 174.936416 174.509323 
Q 172.876245 175.093076 170.660416 175.386285 
Q 168.444587 175.676828 166.082257 175.676828 
Q 160.744123 175.676828 157.626397 173.938898 
Q 154.508671 172.200968 154.508671 169.228893 
Q 154.508671 166.222167 157.681335 164.497565 
Q 160.858577 162.772962 166.384415 162.772962 
Q 168.513259 162.772962 170.463555 163.007529 
Q 172.418429 163.239431 174.148973 163.697903 
L 174.148973 166.270147 
Q 172.363491 165.681063 170.596321 165.39052 
Q 168.829152 165.09731 167.052826 165.09731 
Q 163.765708 165.09731 161.984804 166.168856 
Q 160.2039 167.237737 160.2039 169.228893 
Q 160.2039 171.201391 161.92071 172.278268 
Q 163.63752 173.35248 166.796449 173.35248 
Q 167.657143 173.35248 168.394227 173.291172 
Q 169.131311 173.227199 169.717315 173.093923 
L 169.717315 170.678946 
L 166.352368 170.678946 
L 166.352368 168.527857 
L 174.936416 168.527857 
L 174.936416 174.509323 
z
" clip-path="url(#p81c22e4702)" style="fill: #ffa600"/>
   </g>
   <g id="patch_19">
    <path d="M 196.439306 192.134784 
Q 194.730561 192.186937 192.882851 192.213317 
Q 191.035141 192.24 189.022733 192.24 
Q 183.021535 192.24 179.516548 192.042303 
Q 176.011561 191.844607 176.011561 191.506521 
Q 176.011561 191.167222 179.516548 190.969829 
Q 183.021535 190.772132 189.022733 190.772132 
Q 191.035141 190.772132 192.882851 190.798815 
Q 194.730561 190.825195 196.439306 190.877348 
L 196.439306 191.169951 
Q 194.71512 191.100818 193.042402 191.068677 
Q 191.369684 191.036536 189.521974 191.036536 
Q 186.20742 191.036536 184.308241 191.161765 
Q 182.41421 191.286689 182.41421 191.506521 
Q 182.41421 191.725443 184.308241 191.850671 
Q 186.20742 191.975596 189.521974 191.975596 
Q 191.369684 191.975596 193.042402 191.943455 
Q 194.71512 191.911011 196.439306 191.841878 
L 196.439306 192.134784 
z
" clip-path="url(#p81c22e4702)" style="fill: #0000ff"/>
   </g>
   <g id="patch_20">
    <path d="M 196.439306 190.462246 
Q 194.379135 190.617189 192.163306 190.695014 
Q 189.947477 190.772132 187.585147 190.772132 
Q 182.247013 190.772132 179.129287 190.31084 
Q 176.011561 189.849548 176.011561 189.060681 
Q 176.011561 188.262617 179.184225 187.804862 
Q 182.361467 187.347107 187.887305 187.347107 
Q 190.016149 187.347107 191.966445 187.409368 
Q 193.921319 187.470921 195.651863 187.592611 
L 195.651863 188.275352 
Q 193.866381 188.118994 192.099212 188.041876 
Q 190.332042 187.964051 188.555716 187.964051 
Q 185.268598 187.964051 183.487694 188.248467 
Q 181.706791 188.532176 181.706791 189.060681 
Q 181.706791 189.584234 183.4236 189.870065 
Q 185.14041 190.155189 188.29934 190.155189 
Q 189.160033 190.155189 189.897117 190.138917 
Q 190.634201 190.121936 191.220205 190.086561 
L 191.220205 189.445563 
L 187.855258 189.445563 
L 187.855258 188.874608 
L 196.439306 188.874608 
L 196.439306 190.462246 
z
" clip-path="url(#p81c22e4702)" style="fill: #ffa600"/>
   </g>
   <g id="patch_21">
    <path d="M 190.161878 183.87091 
L 182.305695 183.87091 
L 181.065245 187.347107 
L 176.011561 187.347107 
L 183.228724 168.264826 
L 189.222143 168.264826 
L 196.439306 187.347107 
L 191.389798 187.347107 
L 190.161878 183.87091 
z
M 183.558675 180.329278 
L 188.896369 180.329278 
L 186.231698 172.738898 
L 183.558675 180.329278 
z
" clip-path="url(#p81c22e4702)" style="fill: #008000"/>
   </g>
   <g id="patch_22">
    <path d="M 176.011561 117.378744 
L 196.439306 117.378744 
L 196.439306 127.302948 
L 189.090069 127.302948 
L 189.090069 168.264826 
L 183.37505 168.264826 
L 183.37505 127.302948 
L 176.011561 127.302948 
L 176.011561 117.378744 
z
" clip-path="url(#p81c22e4702)" style="fill: #ff0000"/>
   </g>
   <g id="patch_23">
    <path d="M 217.942197 192.141067 
Q 216.233451 192.190106 214.385741 192.21491 
Q 212.538031 192.24 210.525623 192.24 
Q 204.524426 192.24 201.019438 192.054109 
Q 197.514451 191.868219 197.514451 191.550323 
Q 197.514451 191.231287 201.019438 191.045682 
Q 204.524426 190.859791 210.525623 190.859791 
Q 212.538031 190.859791 214.385741 190.884881 
Q 216.233451 190.909685 217.942197 190.958724 
L 217.942197 191.233853 
Q 216.21801 191.168848 214.545292 191.138627 
Q 212.872575 191.108405 211.024865 191.108405 
Q 207.71031 191.108405 205.811132 191.226155 
Q 203.9171 191.34362 203.9171 191.550323 
Q 203.9171 191.756171 205.811132 191.873921 
Q 207.71031 191.991386 211.024865 191.991386 
Q 212.872575 191.991386 214.545292 191.961164 
Q 216.21801 191.930658 217.942197 191.865653 
L 217.942197 192.141067 
z
" clip-path="url(#p81c22e4702)" style="fill: #0000ff"/>
   </g>
   <g id="patch_24">
    <path d="M 217.942197 190.593386 
Q 215.882025 190.726589 213.666196 190.793494 
Q 211.450367 190.859791 209.088037 190.859791 
Q 203.749903 190.859791 200.632177 190.463225 
Q 197.514451 190.066658 197.514451 189.388481 
Q 197.514451 188.702396 200.687115 188.308871 
Q 203.864357 187.915345 209.390195 187.915345 
Q 211.519039 187.915345 213.469335 187.96887 
Q 215.424209 188.021786 217.154753 188.126401 
L 217.154753 188.713344 
Q 215.369271 188.578925 213.602102 188.512628 
Q 211.834932 188.445723 210.058607 188.445723 
Q 206.771488 188.445723 204.990585 188.690232 
Q 203.209681 188.934132 203.209681 189.388481 
Q 203.209681 189.838571 204.92649 190.084297 
Q 206.6433 190.329414 209.80223 190.329414 
Q 210.662924 190.329414 211.400007 190.315424 
Q 212.137091 190.300827 212.723095 190.270415 
L 212.723095 189.719358 
L 209.358148 189.719358 
L 209.358148 189.228516 
L 217.942197 189.228516 
L 217.942197 190.593386 
z
" clip-path="url(#p81c22e4702)" style="fill: #ffa600"/>
   </g>
   <g id="patch_25">
    <path d="M 197.514451 183.774719 
L 217.942197 183.774719 
L 217.942197 184.582256 
L 210.592959 184.582256 
L 210.592959 187.915345 
L 204.877941 187.915345 
L 204.877941 184.582256 
L 197.514451 184.582256 
L 197.514451 183.774719 
z
" clip-path="url(#p81c22e4702)" style="fill: #ff0000"/>
   </g>
   <g id="patch_26">
    <path d="M 211.664768 182.752232 
L 203.808586 182.752232 
L 202.568136 183.774719 
L 197.514451 183.774719 
L 204.731614 178.161869 
L 210.725033 178.161869 
L 217.942197 183.774719 
L 212.892688 183.774719 
L 211.664768 182.752232 
z
M 205.061565 181.710499 
L 210.399259 181.710499 
L 207.734589 179.477869 
L 205.061565 181.710499 
z
" clip-path="url(#p81c22e4702)" style="fill: #008000"/>
   </g>
   <g id="patch_27">
    <path d="M 233.167658 192.072691 
L 225.311476 192.072691 
L 224.071026 192.24 
L 219.017341 192.24 
L 226.234504 191.321574 
L 232.227924 191.321574 
L 239.445087 192.24 
L 234.395579 192.24 
L 233.167658 192.072691 
z
M 226.564455 191.902233 
L 231.902149 191.902233 
L 229.237479 191.53691 
L 226.564455 191.902233 
z
" clip-path="url(#p81c22e4702)" style="fill: #008000"/>
   </g>
   <g id="patch_28">
    <path d="M 219.017341 189.923969 
L 239.445087 189.923969 
L 239.445087 190.196541 
L 232.095849 190.196541 
L 232.095849 191.321574 
L 226.380831 191.321574 
L 226.380831 190.196541 
L 219.017341 190.196541 
L 219.017341 189.923969 
z
" clip-path="url(#p81c22e4702)" style="fill: #ff0000"/>
   </g>
   <g id="patch_29">
    <path d="M 239.445087 189.779453 
Q 237.384915 189.851711 235.169086 189.888005 
Q 232.953257 189.923969 230.590927 189.923969 
Q 225.252794 189.923969 222.135067 189.708845 
Q 219.017341 189.493721 219.017341 189.125833 
Q 219.017341 188.753655 222.190005 188.540181 
Q 225.367248 188.326706 230.893086 188.326706 
Q 233.02193 188.326706 234.972225 188.355742 
Q 236.927099 188.384447 238.657643 188.441197 
L 238.657643 188.759594 
Q 236.872161 188.686676 235.104992 188.650712 
Q 233.337823 188.614418 231.561497 188.614418 
Q 228.274379 188.614418 226.493475 188.747056 
Q 224.712571 188.879364 224.712571 189.125833 
Q 224.712571 189.369992 226.429381 189.503289 
Q 228.14619 189.636257 231.30512 189.636257 
Q 232.165814 189.636257 232.902897 189.628668 
Q 233.639981 189.62075 234.225985 189.604253 
L 234.225985 189.305323 
L 230.861038 189.305323 
L 230.861038 189.039057 
L 239.445087 189.039057 
L 239.445087 189.779453 
z
" clip-path="url(#p81c22e4702)" style="fill: #ffa600"/>
   </g>
   <g id="patch_30">
    <path d="M 239.445087 188.169281 
Q 237.736341 188.247313 235.888631 188.286783 
Q 234.040921 188.326706 232.028513 188.326706 
Q 226.027316 188.326706 222.522328 188.030911 
Q 219.017341 187.735115 219.017341 187.229269 
Q 219.017341 186.721607 222.522328 186.426266 
Q 226.027316 186.13047 232.028513 186.13047 
Q 234.040921 186.13047 235.888631 186.170393 
Q 237.736341 186.209863 239.445087 186.287895 
L 239.445087 186.725691 
Q 237.720901 186.622253 236.048183 186.574163 
Q 234.375465 186.526074 232.527755 186.526074 
Q 229.2132 186.526074 227.314022 186.713441 
Q 225.41999 186.900355 225.41999 187.229269 
Q 225.41999 187.556821 227.314022 187.744189 
Q 229.2132 187.931103 232.527755 187.931103 
Q 234.375465 187.931103 236.048183 187.883013 
Q 237.720901 187.83447 239.445087 187.731032 
L 239.445087 188.169281 
z
" clip-path="url(#p81c22e4702)" style="fill: #0000ff"/>
   </g>
   <g id="patch_31">
    <path d="M 260.947977 192.081593 
Q 259.239231 192.160112 257.391521 192.199828 
Q 255.543811 192.24 253.531403 192.24 
Q 247.530206 192.24 244.025219 191.942359 
Q 240.520231 191.644718 240.520231 191.135716 
Q 240.520231 190.624888 244.025219 190.327704 
Q 247.530206 190.030063 253.531403 190.030063 
Q 255.543811 190.030063 257.391521 190.070235 
Q 259.239231 190.109951 260.947977 190.18847 
L 260.947977 190.628996 
Q 259.223791 190.524913 257.551073 190.476524 
Q 255.878355 190.428134 254.030645 190.428134 
Q 250.71609 190.428134 248.816912 190.616671 
Q 246.922881 190.80475 246.922881 191.135716 
Q 246.922881 191.465312 248.816912 191.653848 
Q 250.71609 191.841928 254.030645 191.841928 
Q 255.878355 191.841928 257.551073 191.793539 
Q 259.223791 191.744693 260.947977 191.64061 
L 260.947977 192.081593 
z
" clip-path="url(#p81c22e4702)" style="fill: #0000ff"/>
   </g>
   <g id="patch_32">
    <path d="M 240.520231 186.837931 
L 260.947977 186.837931 
L 260.947977 187.460486 
L 253.598739 187.460486 
L 253.598739 190.030063 
L 247.883721 190.030063 
L 247.883721 187.460486 
L 240.520231 187.460486 
L 240.520231 186.837931 
z
" clip-path="url(#p81c22e4702)" style="fill: #ff0000"/>
   </g>
   <g id="patch_33">
    <path d="M 260.947977 186.438033 
Q 258.887805 186.637982 256.671976 186.738413 
Q 254.456147 186.837931 252.093817 186.837931 
Q 246.755684 186.837931 243.637958 186.242649 
Q 240.520231 185.647368 240.520231 184.629363 
Q 240.520231 183.59949 243.692895 183.008773 
Q 246.870138 182.418056 252.395976 182.418056 
Q 254.52482 182.418056 256.475115 182.498401 
Q 258.429989 182.577833 260.160534 182.73487 
L 260.160534 183.615924 
Q 258.375051 183.414149 256.607882 183.314631 
Q 254.840713 183.2142 253.064387 183.2142 
Q 249.777269 183.2142 247.996365 183.581229 
Q 246.215461 183.947346 246.215461 184.629363 
Q 246.215461 185.30499 247.932271 185.673845 
Q 249.64908 186.041788 252.80801 186.041788 
Q 253.668704 186.041788 254.405788 186.020788 
Q 255.142871 185.998876 255.728876 185.953226 
L 255.728876 185.12604 
L 252.363929 185.12604 
L 252.363929 184.389242 
L 260.947977 184.389242 
L 260.947977 186.438033 
z
" clip-path="url(#p81c22e4702)" style="fill: #ffa600"/>
   </g>
   <g id="patch_34">
    <path d="M 254.670549 180.785364 
L 246.814366 180.785364 
L 245.573916 182.418056 
L 240.520231 182.418056 
L 247.737394 173.455533 
L 253.730814 173.455533 
L 260.947977 182.418056 
L 255.898469 182.418056 
L 254.670549 180.785364 
z
M 248.067346 179.121938 
L 253.405039 179.121938 
L 250.740369 175.556905 
L 248.067346 179.121938 
z
" clip-path="url(#p81c22e4702)" style="fill: #008000"/>
   </g>
   <g id="patch_35">
    <path d="M 276.173439 192.033153 
L 268.317256 192.033153 
L 267.076806 192.24 
L 262.023121 192.24 
L 269.240284 191.104529 
L 275.233704 191.104529 
L 282.450867 192.24 
L 277.401359 192.24 
L 276.173439 192.033153 
z
M 269.570236 191.822412 
L 274.907929 191.822412 
L 272.243259 191.370754 
L 269.570236 191.822412 
z
" clip-path="url(#p81c22e4702)" style="fill: #008000"/>
   </g>
   <g id="patch_36">
    <path d="M 282.450867 190.72471 
Q 280.742121 190.912978 278.894411 191.008206 
Q 277.046702 191.104529 275.034293 191.104529 
Q 269.033096 191.104529 265.528109 190.390863 
Q 262.023121 189.677197 262.023121 188.45674 
Q 262.023121 187.231905 265.528109 186.519333 
Q 269.033096 185.805667 275.034293 185.805667 
Q 277.046702 185.805667 278.894411 185.90199 
Q 280.742121 185.997218 282.450867 186.185486 
L 282.450867 187.241756 
Q 280.726681 186.992191 279.053963 186.876166 
Q 277.381245 186.76014 275.533535 186.76014 
Q 272.21898 186.76014 270.319802 187.212202 
Q 268.425771 187.663169 268.425771 188.45674 
Q 268.425771 189.247027 270.319802 189.699088 
Q 272.21898 190.150055 275.533535 190.150055 
Q 277.381245 190.150055 279.053963 190.03403 
Q 280.726681 189.91691 282.450867 189.667346 
L 282.450867 190.72471 
z
" clip-path="url(#p81c22e4702)" style="fill: #0000ff"/>
   </g>
   <g id="patch_37">
    <path d="M 282.450867 184.333143 
Q 280.390695 185.069405 278.174867 185.439217 
Q 275.959038 185.805667 273.596707 185.805667 
Q 268.258574 185.805667 265.140848 183.613691 
Q 262.023121 181.421716 262.023121 177.67317 
Q 262.023121 173.880919 265.195786 171.705753 
Q 268.373028 169.530588 273.898866 169.530588 
Q 276.02771 169.530588 277.978006 169.826437 
Q 279.93288 170.118925 281.663424 170.697176 
L 281.663424 173.941433 
Q 279.877942 173.198448 278.110772 172.831998 
Q 276.343603 172.462186 274.567277 172.462186 
Q 271.280159 172.462186 269.499255 173.81368 
Q 267.718351 175.161812 267.718351 177.67317 
Q 267.718351 180.160995 269.435161 181.519212 
Q 271.151971 182.874068 274.3109 182.874068 
Q 275.171594 182.874068 275.908678 182.796744 
Q 276.645761 182.716057 277.231766 182.547961 
L 277.231766 179.502057 
L 273.866819 179.502057 
L 273.866819 176.788984 
L 282.450867 176.788984 
L 282.450867 184.333143 
z
" clip-path="url(#p81c22e4702)" style="fill: #ffa600"/>
   </g>
   <g id="patch_38">
    <path d="M 262.023121 134.330999 
L 282.450867 134.330999 
L 282.450867 141.195899 
L 275.101629 141.195899 
L 275.101629 169.530588 
L 269.386611 169.530588 
L 269.386611 141.195899 
L 262.023121 141.195899 
L 262.023121 134.330999 
z
" clip-path="url(#p81c22e4702)" style="fill: #ff0000"/>
   </g>
   <g id="patch_39">
    <path d="M 303.953757 191.982909 
Q 301.893586 192.111455 299.677757 192.176021 
Q 297.461928 192.24 295.099598 192.24 
Q 289.761464 192.24 286.643738 191.857298 
Q 283.526012 191.474597 283.526012 190.82013 
Q 283.526012 190.158033 286.698676 189.778266 
Q 289.875918 189.3985 295.401756 189.3985 
Q 297.5306 189.3985 299.480896 189.450153 
Q 301.43577 189.501219 303.166314 189.602177 
L 303.166314 190.168599 
Q 301.380832 190.038879 299.613662 189.9749 
Q 297.846493 189.910334 296.070167 189.910334 
Q 292.783049 189.910334 291.002145 190.146294 
Q 289.221241 190.381667 289.221241 190.82013 
Q 289.221241 191.254485 290.938051 191.491619 
Q 292.654861 191.728166 295.81379 191.728166 
Q 296.674484 191.728166 297.411568 191.714666 
Q 298.148652 191.700579 298.734656 191.67123 
L 298.734656 191.13944 
L 295.369709 191.13944 
L 295.369709 190.665758 
L 303.953757 190.665758 
L 303.953757 191.982909 
z
" clip-path="url(#p81c22e4702)" style="fill: #ffa600"/>
   </g>
   <g id="patch_40">
    <path d="M 303.953757 188.991146 
Q 302.245012 189.193062 300.397302 189.295194 
Q 298.549592 189.3985 296.537183 189.3985 
Q 290.535986 189.3985 287.030999 188.633097 
Q 283.526012 187.867694 283.526012 186.55876 
Q 283.526012 185.245131 287.030999 184.480902 
Q 290.535986 183.715499 296.537183 183.715499 
Q 298.549592 183.715499 300.397302 183.818805 
Q 302.245012 183.920937 303.953757 184.122853 
L 303.953757 185.255697 
Q 302.229571 184.98804 300.556853 184.863604 
Q 298.884135 184.739167 297.036425 184.739167 
Q 293.721871 184.739167 291.822692 185.224001 
Q 289.928661 185.70766 289.928661 186.55876 
Q 289.928661 187.406339 291.822692 187.891172 
Q 293.721871 188.374832 297.036425 188.374832 
Q 298.884135 188.374832 300.556853 188.250395 
Q 302.229571 188.124784 303.953757 187.857128 
L 303.953757 188.991146 
z
" clip-path="url(#p81c22e4702)" style="fill: #0000ff"/>
   </g>
   <g id="patch_41">
    <path d="M 297.676329 182.292009 
L 289.820146 182.292009 
L 288.579696 183.715499 
L 283.526012 183.715499 
L 290.743175 175.901373 
L 296.736594 175.901373 
L 303.953757 183.715499 
L 298.904249 183.715499 
L 297.676329 182.292009 
z
M 291.073126 180.841723 
L 296.410819 180.841723 
L 293.746149 177.733489 
L 291.073126 180.841723 
z
" clip-path="url(#p81c22e4702)" style="fill: #008000"/>
   </g>
   <g id="patch_42">
    <path d="M 283.526012 83.552614 
L 303.953757 83.552614 
L 303.953757 101.563195 
L 296.604519 101.563195 
L 296.604519 175.901373 
L 290.889501 175.901373 
L 290.889501 101.563195 
L 283.526012 101.563195 
L 283.526012 83.552614 
z
" clip-path="url(#p81c22e4702)" style="fill: #ff0000"/>
   </g>
   <g id="patch_43">
    <path d="M 325.456647 192.148103 
Q 323.396476 192.194052 321.180647 192.217131 
Q 318.964818 192.24 316.602488 192.24 
Q 311.264354 192.24 308.146628 192.103204 
Q 305.028902 191.966408 305.028902 191.73247 
Q 305.028902 191.495805 308.201566 191.360058 
Q 311.378808 191.224311 316.904646 191.224311 
Q 319.03349 191.224311 320.983786 191.242774 
Q 322.93866 191.261028 324.669204 191.297115 
L 324.669204 191.499582 
Q 322.883722 191.453214 321.116553 191.430344 
Q 319.349383 191.407265 317.573058 191.407265 
Q 314.285939 191.407265 312.505035 191.491609 
Q 310.724132 191.575742 310.724132 191.73247 
Q 310.724132 191.88773 312.440941 191.972493 
Q 314.157751 192.057046 317.316681 192.057046 
Q 318.177375 192.057046 318.914458 192.05222 
Q 319.651542 192.047185 320.237546 192.036694 
L 320.237546 191.846607 
L 316.872599 191.846607 
L 316.872599 191.67729 
L 325.456647 191.67729 
L 325.456647 192.148103 
z
" clip-path="url(#p81c22e4702)" style="fill: #ffa600"/>
   </g>
   <g id="patch_44">
    <path d="M 319.179219 190.854257 
L 311.323036 190.854257 
L 310.082587 191.224311 
L 305.028902 191.224311 
L 312.246065 189.192934 
L 318.239484 189.192934 
L 325.456647 191.224311 
L 320.407139 191.224311 
L 319.179219 190.854257 
z
M 312.576016 190.477238 
L 317.91371 190.477238 
L 315.249039 189.669215 
L 312.576016 190.477238 
z
" clip-path="url(#p81c22e4702)" style="fill: #008000"/>
   </g>
   <g id="patch_45">
    <path d="M 325.456647 188.901718 
Q 323.747902 189.046067 321.900192 189.119081 
Q 320.052482 189.192934 318.040074 189.192934 
Q 312.038876 189.192934 308.533889 188.64575 
Q 305.028902 188.098566 305.028902 187.162815 
Q 305.028902 186.223707 308.533889 185.677362 
Q 312.038876 185.130179 318.040074 185.130179 
Q 320.052482 185.130179 321.900192 185.204032 
Q 323.747902 185.277045 325.456647 185.421395 
L 325.456647 186.23126 
Q 323.732461 186.039914 322.059743 185.950954 
Q 320.387025 185.861995 318.539316 185.861995 
Q 315.224761 185.861995 313.325583 186.208601 
Q 311.431551 186.554367 311.431551 187.162815 
Q 311.431551 187.768745 313.325583 188.115351 
Q 315.224761 188.461117 318.539316 188.461117 
Q 320.387025 188.461117 322.059743 188.372158 
Q 323.732461 188.28236 325.456647 188.091013 
L 325.456647 188.901718 
z
" clip-path="url(#p81c22e4702)" style="fill: #0000ff"/>
   </g>
   <g id="patch_46">
    <path d="M 305.028902 36.83962 
L 325.456647 36.83962 
L 325.456647 65.76041 
L 318.10741 65.76041 
L 318.10741 185.130179 
L 312.392391 185.130179 
L 312.392391 65.76041 
L 305.028902 65.76041 
L 305.028902 36.83962 
z
" clip-path="url(#p81c22e4702)" style="fill: #ff0000"/>
   </g>
   <g id="patch_47">
    <path d="M 340.682109 192.041972 
L 332.825927 192.041972 
L 331.585477 192.24 
L 326.531792 192.24 
L 333.748955 191.152941 
L 339.742375 191.152941 
L 346.959538 192.24 
L 341.910029 192.24 
L 340.682109 192.041972 
z
M 334.078906 191.840216 
L 339.4166 191.840216 
L 336.75193 191.407815 
L 334.078906 191.840216 
z
" clip-path="url(#p81c22e4702)" style="fill: #008000"/>
   </g>
   <g id="patch_48">
    <path d="M 346.959538 191.054587 
Q 344.899366 191.103764 342.683537 191.128465 
Q 340.467708 191.152941 338.105378 191.152941 
Q 332.767245 191.152941 329.649518 191.006533 
Q 326.531792 190.860125 326.531792 190.609749 
Q 326.531792 190.356453 329.704456 190.211168 
Q 332.881699 190.065882 338.407536 190.065882 
Q 340.53638 190.065882 342.486676 190.085643 
Q 344.44155 190.105179 346.172094 190.143802 
L 346.172094 190.360495 
Q 344.386612 190.310869 342.619443 190.286393 
Q 340.852273 190.261692 339.075948 190.261692 
Q 335.788829 190.261692 334.007926 190.351962 
Q 332.227022 190.442008 332.227022 190.609749 
Q 332.227022 190.775917 333.943831 190.866637 
Q 335.660641 190.957131 338.819571 190.957131 
Q 339.680265 190.957131 340.417348 190.951967 
Q 341.154432 190.946577 341.740436 190.93535 
L 341.740436 190.731905 
L 338.375489 190.731905 
L 338.375489 190.550691 
L 346.959538 190.550691 
L 346.959538 191.054587 
z
" clip-path="url(#p81c22e4702)" style="fill: #ffa600"/>
   </g>
   <g id="patch_49">
    <path d="M 346.959538 189.910043 
Q 345.250792 189.987289 343.403082 190.026361 
Q 341.555372 190.065882 339.542964 190.065882 
Q 333.541767 190.065882 330.036779 189.773066 
Q 326.531792 189.480249 326.531792 188.979497 
Q 326.531792 188.476949 330.036779 188.184581 
Q 333.541767 187.891765 339.542964 187.891765 
Q 341.555372 187.891765 343.403082 187.931286 
Q 345.250792 187.970358 346.959538 188.047604 
L 346.959538 188.480991 
Q 345.235351 188.378595 343.562634 188.330989 
Q 341.889916 188.283384 340.042206 188.283384 
Q 336.727651 188.283384 334.828473 188.468865 
Q 332.934441 188.653896 332.934441 188.979497 
Q 332.934441 189.303751 334.828473 189.489231 
Q 336.727651 189.674263 340.042206 189.674263 
Q 341.889916 189.674263 343.562634 189.626658 
Q 345.235351 189.578603 346.959538 189.476207 
L 346.959538 189.910043 
z
" clip-path="url(#p81c22e4702)" style="fill: #0000ff"/>
   </g>
   <g id="patch_50">
    <path d="M 326.531792 25.92 
L 346.959538 25.92 
L 346.959538 57.509007 
L 339.6103 57.509007 
L 339.6103 187.891765 
L 333.895282 187.891765 
L 333.895282 57.509007 
L 326.531792 57.509007 
L 326.531792 25.92 
z
" clip-path="url(#p81c22e4702)" style="fill: #ff0000"/>
   </g>
   <g id="patch_51">
    <path d="M 348.034682 190.754873 
L 368.462428 190.754873 
L 368.462428 191.044514 
L 361.11319 191.044514 
L 361.11319 192.24 
L 355.398172 192.24 
L 355.398172 191.044514 
L 348.034682 191.044514 
L 348.034682 190.754873 
z
" clip-path="url(#p81c22e4702)" style="fill: #ff0000"/>
   </g>
   <g id="patch_52">
    <path d="M 362.184999 190.403166 
L 354.328817 190.403166 
L 353.088367 190.754873 
L 348.034682 190.754873 
L 355.251845 188.824208 
L 361.245265 188.824208 
L 368.462428 190.754873 
L 363.41292 190.754873 
L 362.184999 190.403166 
z
M 355.581796 190.044839 
L 360.91949 190.044839 
L 358.25482 189.276876 
L 355.581796 190.044839 
z
" clip-path="url(#p81c22e4702)" style="fill: #008000"/>
   </g>
   <g id="patch_53">
    <path d="M 368.462428 188.547431 
Q 366.753682 188.684623 364.905972 188.754017 
Q 363.058262 188.824208 361.045854 188.824208 
Q 355.044657 188.824208 351.539669 188.304153 
Q 348.034682 187.784098 348.034682 186.89474 
Q 348.034682 186.002192 351.539669 185.482934 
Q 355.044657 184.962879 361.045854 184.962879 
Q 363.058262 184.962879 364.905972 185.03307 
Q 366.753682 185.102464 368.462428 185.239657 
L 368.462428 186.00937 
Q 366.738242 185.82751 365.065524 185.742962 
Q 363.392806 185.658413 361.545096 185.658413 
Q 358.230541 185.658413 356.331363 185.987834 
Q 354.437332 186.316458 354.437332 186.89474 
Q 354.437332 187.470629 356.331363 187.800051 
Q 358.230541 188.128675 361.545096 188.128675 
Q 363.392806 188.128675 365.065524 188.044126 
Q 366.738242 187.958779 368.462428 187.77692 
L 368.462428 188.547431 
z
" clip-path="url(#p81c22e4702)" style="fill: #0000ff"/>
   </g>
   <g id="patch_54">
    <path d="M 368.462428 184.593361 
Q 366.402256 184.77812 364.186427 184.870921 
Q 361.970598 184.962879 359.608268 184.962879 
Q 354.270135 184.962879 351.152408 184.412821 
Q 348.034682 183.862762 348.034682 182.922095 
Q 348.034682 181.970461 351.207346 181.42462 
Q 354.384589 180.87878 359.910427 180.87878 
Q 362.039271 180.87878 363.989566 180.953021 
Q 365.94444 181.026419 367.674984 181.171526 
L 367.674984 181.985646 
Q 365.889502 181.7992 364.122333 181.707242 
Q 362.355164 181.614441 360.578838 181.614441 
Q 357.29172 181.614441 355.510816 181.953588 
Q 353.729912 182.29189 353.729912 182.922095 
Q 353.729912 183.546394 355.446722 183.887228 
Q 357.163531 184.227218 360.322461 184.227218 
Q 361.183155 184.227218 361.920238 184.207814 
Q 362.657322 184.187567 363.243326 184.145384 
L 363.243326 183.381039 
L 359.87838 183.381039 
L 359.87838 182.700216 
L 368.462428 182.700216 
L 368.462428 184.593361 
z
" clip-path="url(#p81c22e4702)" style="fill: #ffa600"/>
   </g>
   <g id="patch_55">
    <path d="M 389.965318 192.180104 
Q 387.905146 192.210052 385.689317 192.225094 
Q 383.473488 192.24 381.111158 192.24 
Q 375.773025 192.24 372.655299 192.15084 
Q 369.537572 192.061681 369.537572 191.909207 
Q 369.537572 191.754956 372.710236 191.66648 
Q 375.887479 191.578004 381.413317 191.578004 
Q 383.542161 191.578004 385.492457 191.590038 
Q 387.44733 191.601935 389.177875 191.625456 
L 389.177875 191.757417 
Q 387.392393 191.727196 385.625223 191.71229 
Q 383.858054 191.697248 382.081728 191.697248 
Q 378.79461 191.697248 377.013706 191.752221 
Q 375.232802 191.807057 375.232802 191.909207 
Q 375.232802 192.010401 376.949612 192.065647 
Q 378.666421 192.120756 381.825351 192.120756 
Q 382.686045 192.120756 383.423129 192.117611 
Q 384.160212 192.114329 384.746217 192.107491 
L 384.746217 191.983598 
L 381.38127 191.983598 
L 381.38127 191.873243 
L 389.965318 191.873243 
L 389.965318 192.180104 
z
" clip-path="url(#p81c22e4702)" style="fill: #ffa600"/>
   </g>
   <g id="patch_56">
    <path d="M 369.537572 190.793417 
L 389.965318 190.793417 
L 389.965318 190.946433 
L 382.61608 190.946433 
L 382.61608 191.578004 
L 376.901062 191.578004 
L 376.901062 190.946433 
L 369.537572 190.946433 
L 369.537572 190.793417 
z
" clip-path="url(#p81c22e4702)" style="fill: #ff0000"/>
   </g>
   <g id="patch_57">
    <path d="M 383.68789 190.587958 
L 375.831707 190.587958 
L 374.591257 190.793417 
L 369.537572 190.793417 
L 376.754735 189.665572 
L 382.748155 189.665572 
L 389.965318 190.793417 
L 384.91581 190.793417 
L 383.68789 190.587958 
z
M 377.084687 190.378633 
L 382.42238 190.378633 
L 379.75771 189.930009 
L 377.084687 190.378633 
z
" clip-path="url(#p81c22e4702)" style="fill: #008000"/>
   </g>
   <g id="patch_58">
    <path d="M 389.965318 189.581214 
Q 388.256572 189.623028 386.408862 189.644178 
Q 384.561152 189.665572 382.548744 189.665572 
Q 376.547547 189.665572 373.04256 189.507066 
Q 369.537572 189.34856 369.537572 189.077496 
Q 369.537572 188.805459 373.04256 188.647196 
Q 376.547547 188.48869 382.548744 188.48869 
Q 384.561152 188.48869 386.408862 188.510084 
Q 388.256572 188.531234 389.965318 188.573049 
L 389.965318 188.807647 
Q 388.241132 188.752218 386.568414 188.726449 
Q 384.895696 188.70068 383.047986 188.70068 
Q 379.733431 188.70068 377.834253 188.801083 
Q 375.940222 188.901243 375.940222 189.077496 
Q 375.940222 189.253019 377.834253 189.353422 
Q 379.733431 189.453582 383.047986 189.453582 
Q 384.895696 189.453582 386.568414 189.427813 
Q 388.241132 189.401801 389.965318 189.346372 
L 389.965318 189.581214 
z
" clip-path="url(#p81c22e4702)" style="fill: #0000ff"/>
   </g>
   <g id="patch_59">
    <path d="M 411.468208 192.046864 
Q 409.759462 192.142597 407.911752 192.19102 
Q 406.064043 192.24 404.051634 192.24 
Q 398.050437 192.24 394.54545 191.877105 
Q 391.040462 191.514211 391.040462 190.893617 
Q 391.040462 190.270796 394.54545 189.908458 
Q 398.050437 189.545564 404.051634 189.545564 
Q 406.064043 189.545564 407.911752 189.594544 
Q 409.759462 189.642967 411.468208 189.7387 
L 411.468208 190.275806 
Q 409.744022 190.148904 408.071304 190.089906 
Q 406.398586 190.030908 404.550876 190.030908 
Q 401.236321 190.030908 399.337143 190.260778 
Q 397.443112 190.490092 397.443112 190.893617 
Q 397.443112 191.295472 399.337143 191.525343 
Q 401.236321 191.754656 404.550876 191.754656 
Q 406.398586 191.754656 408.071304 191.695658 
Q 409.744022 191.636103 411.468208 191.509202 
L 411.468208 192.046864 
z
" clip-path="url(#p81c22e4702)" style="fill: #0000ff"/>
   </g>
   <g id="patch_60">
    <path d="M 411.468208 189.139256 
Q 409.408037 189.34241 407.192208 189.444451 
Q 404.976379 189.545564 402.614048 189.545564 
Q 397.275915 189.545564 394.158189 188.94074 
Q 391.040462 188.335916 391.040462 187.301592 
Q 391.040462 186.255209 394.213127 185.655023 
Q 397.390369 185.054837 402.916207 185.054837 
Q 405.045051 185.054837 406.995347 185.13647 
Q 408.950221 185.217175 410.680765 185.37673 
L 410.680765 186.271907 
Q 408.895283 186.066897 407.128113 185.965784 
Q 405.360944 185.863743 403.584618 185.863743 
Q 400.2975 185.863743 398.516596 186.236656 
Q 396.735692 186.608642 396.735692 187.301592 
Q 396.735692 187.988049 398.452502 188.362817 
Q 400.169312 188.736658 403.328241 188.736658 
Q 404.188935 188.736658 404.926019 188.715322 
Q 405.663102 188.693059 406.249107 188.646676 
L 406.249107 187.806231 
L 402.88416 187.806231 
L 402.88416 187.057622 
L 411.468208 187.057622 
L 411.468208 189.139256 
z
" clip-path="url(#p81c22e4702)" style="fill: #ffa600"/>
   </g>
   <g id="patch_61">
    <path d="M 405.19078 182.600625 
L 397.334597 182.600625 
L 396.094147 185.054837 
L 391.040462 185.054837 
L 398.257625 171.582657 
L 404.251045 171.582657 
L 411.468208 185.054837 
L 406.4187 185.054837 
L 405.19078 182.600625 
z
M 398.587577 180.100216 
L 403.92527 180.100216 
L 401.2606 174.741372 
L 398.587577 180.100216 
z
" clip-path="url(#p81c22e4702)" style="fill: #008000"/>
   </g>
   <g id="patch_62">
    <path d="M 391.040462 123.531881 
L 411.468208 123.531881 
L 411.468208 132.903121 
L 404.11897 132.903121 
L 404.11897 171.582657 
L 398.403952 171.582657 
L 398.403952 132.903121 
L 391.040462 132.903121 
L 391.040462 123.531881 
z
" clip-path="url(#p81c22e4702)" style="fill: #ff0000"/>
   </g>
   <g id="patch_63">
    <path d="M 432.971098 192.006659 
Q 431.262353 192.122321 429.414643 192.180824 
Q 427.566933 192.24 425.554524 192.24 
Q 419.553327 192.24 416.04834 191.80156 
Q 412.543353 191.36312 412.543353 190.613334 
Q 412.543353 189.860859 416.04834 189.423091 
Q 419.553327 188.984651 425.554524 188.984651 
Q 427.566933 188.984651 429.414643 189.043827 
Q 431.262353 189.102331 432.971098 189.217993 
L 432.971098 189.866911 
Q 431.246912 189.713591 429.574194 189.642311 
Q 427.901476 189.571031 426.053766 189.571031 
Q 422.739212 189.571031 420.840033 189.848754 
Q 418.946002 190.125805 418.946002 190.613334 
Q 418.946002 191.098846 420.840033 191.376569 
Q 422.739212 191.65362 426.053766 191.65362 
Q 427.901476 191.65362 429.574194 191.58234 
Q 431.246912 191.510388 432.971098 191.357068 
L 432.971098 192.006659 
z
" clip-path="url(#p81c22e4702)" style="fill: #0000ff"/>
   </g>
   <g id="patch_64">
    <path d="M 426.69367 187.897442 
L 418.837487 187.897442 
L 417.597037 188.984651 
L 412.543353 188.984651 
L 419.760516 183.016512 
L 425.753935 183.016512 
L 432.971098 188.984651 
L 427.92159 188.984651 
L 426.69367 187.897442 
z
M 420.090467 186.789768 
L 425.42816 186.789768 
L 422.76349 184.415814 
L 420.090467 186.789768 
z
" clip-path="url(#p81c22e4702)" style="fill: #008000"/>
   </g>
   <g id="patch_65">
    <path d="M 432.971098 182.132908 
Q 430.910927 182.57471 428.695098 182.79662 
Q 426.479269 183.016512 424.116939 183.016512 
Q 418.778805 183.016512 415.661079 181.701192 
Q 412.543353 180.385873 412.543353 178.136515 
Q 412.543353 175.860931 415.716017 174.555698 
Q 418.893259 173.250466 424.419097 173.250466 
Q 426.547941 173.250466 428.498237 173.427993 
Q 430.453111 173.603504 432.183655 173.95049 
L 432.183655 175.897244 
Q 430.398173 175.451407 428.631003 175.231514 
Q 426.863834 175.009605 425.087508 175.009605 
Q 421.80039 175.009605 420.019486 175.820584 
Q 418.238582 176.629546 418.238582 178.136515 
Q 418.238582 179.629362 419.955392 180.444376 
Q 421.672202 181.257373 424.831131 181.257373 
Q 425.691825 181.257373 426.428909 181.210973 
Q 427.165993 181.162557 427.751997 181.061689 
L 427.751997 179.233959 
L 424.38705 179.233959 
L 424.38705 177.605949 
L 432.971098 177.605949 
L 432.971098 182.132908 
z
" clip-path="url(#p81c22e4702)" style="fill: #ffa600"/>
   </g>
   <g id="patch_66">
    <path d="M 412.543353 109.228607 
L 432.971098 109.228607 
L 432.971098 121.714653 
L 425.62186 121.714653 
L 425.62186 173.250466 
L 419.906842 173.250466 
L 419.906842 121.714653 
L 412.543353 121.714653 
L 412.543353 109.228607 
z
" clip-path="url(#p81c22e4702)" style="fill: #ff0000"/>
   </g>
   <g id="patch_67">
    <path d="M 448.19656 191.941607 
L 440.340377 191.941607 
L 439.099928 192.24 
L 434.046243 192.24 
L 441.263406 190.601998 
L 447.256825 190.601998 
L 454.473988 192.24 
L 449.42448 192.24 
L 448.19656 191.941607 
z
M 441.593357 191.637597 
L 446.931051 191.637597 
L 444.266381 190.986047 
L 441.593357 191.637597 
z
" clip-path="url(#p81c22e4702)" style="fill: #008000"/>
   </g>
   <g id="patch_68">
    <path d="M 454.473988 189.984491 
Q 452.413817 190.293244 450.197988 190.448326 
Q 447.982159 190.601998 445.619829 190.601998 
Q 440.281695 190.601998 437.163969 189.682786 
Q 434.046243 188.763574 434.046243 187.191609 
Q 434.046243 185.601316 437.218907 184.689153 
Q 440.396149 183.776991 445.921987 183.776991 
Q 448.050831 183.776991 450.001127 183.901056 
Q 451.956001 184.023712 453.686545 184.266203 
L 453.686545 185.626693 
Q 451.901063 185.31512 450.133894 185.161448 
Q 448.366724 185.006366 446.590399 185.006366 
Q 443.30328 185.006366 441.522376 185.573119 
Q 439.741473 186.138463 439.741473 187.191609 
Q 439.741473 188.234887 441.458282 188.80446 
Q 443.175092 189.372623 446.334022 189.372623 
Q 447.194716 189.372623 447.931799 189.340197 
Q 448.668883 189.306361 449.254887 189.235869 
L 449.254887 187.958559 
L 445.88994 187.958559 
L 445.88994 186.820823 
L 454.473988 186.820823 
L 454.473988 189.984491 
z
" clip-path="url(#p81c22e4702)" style="fill: #ffa600"/>
   </g>
   <g id="patch_69">
    <path d="M 434.046243 174.49498 
L 454.473988 174.49498 
L 454.473988 176.305231 
L 447.124751 176.305231 
L 447.124751 183.776991 
L 441.409732 183.776991 
L 441.409732 176.305231 
L 434.046243 176.305231 
L 434.046243 174.49498 
z
" clip-path="url(#p81c22e4702)" style="fill: #ff0000"/>
   </g>
   <g id="patch_70">
    <path d="M 454.473988 172.772952 
Q 452.765243 173.626523 450.917533 174.05827 
Q 449.069823 174.49498 447.057415 174.49498 
Q 441.056217 174.49498 437.55123 171.259354 
Q 434.046243 168.023728 434.046243 162.490411 
Q 434.046243 156.937243 437.55123 153.70658 
Q 441.056217 150.470954 447.057415 150.470954 
Q 449.069823 150.470954 450.917533 150.907664 
Q 452.765243 151.339412 454.473988 152.192982 
L 454.473988 156.981907 
Q 452.749802 155.85043 451.077084 155.324393 
Q 449.404366 154.798355 447.556657 154.798355 
Q 444.242102 154.798355 442.342924 156.847916 
Q 440.448892 158.892514 440.448892 162.490411 
Q 440.448892 166.07342 442.342924 168.122981 
Q 444.242102 170.167579 447.556657 170.167579 
Q 449.404366 170.167579 451.077084 169.641541 
Q 452.749802 169.110541 454.473988 167.979065 
L 454.473988 172.772952 
z
" clip-path="url(#p81c22e4702)" style="fill: #0000ff"/>
   </g>
   <g id="patch_71">
    <path d="M 475.976879 192.107671 
Q 474.268133 192.173264 472.420423 192.206441 
Q 470.572713 192.24 468.560305 192.24 
Q 462.559108 192.24 459.05412 191.99136 
Q 455.549133 191.742719 455.549133 191.317513 
Q 455.549133 190.890782 459.05412 190.642523 
Q 462.559108 190.393883 468.560305 190.393883 
Q 470.572713 190.393883 472.420423 190.427441 
Q 474.268133 190.460619 475.976879 190.526211 
L 475.976879 190.894214 
Q 474.252692 190.807266 472.579975 190.766843 
Q 470.907257 190.72642 469.059547 190.72642 
Q 465.744992 190.72642 463.845814 190.883918 
Q 461.951782 191.041034 461.951782 191.317513 
Q 461.951782 191.592848 463.845814 191.750346 
Q 465.744992 191.907462 469.059547 191.907462 
Q 470.907257 191.907462 472.579975 191.867039 
Q 474.252692 191.826235 475.976879 191.739287 
L 475.976879 192.107671 
z
" clip-path="url(#p81c22e4702)" style="fill: #0000ff"/>
   </g>
   <g id="patch_72">
    <path d="M 455.549133 187.932393 
L 475.976879 187.932393 
L 475.976879 188.412452 
L 468.627641 188.412452 
L 468.627641 190.393883 
L 462.912623 190.393883 
L 462.912623 188.412452 
L 455.549133 188.412452 
L 455.549133 187.932393 
z
" clip-path="url(#p81c22e4702)" style="fill: #ff0000"/>
   </g>
   <g id="patch_73">
    <path d="M 475.976879 187.496255 
Q 473.916707 187.714324 471.700878 187.823856 
Q 469.485049 187.932393 467.122719 187.932393 
Q 461.784586 187.932393 458.666859 187.283165 
Q 455.549133 186.633937 455.549133 185.523677 
Q 455.549133 184.400473 458.721797 183.756224 
Q 461.89904 183.111975 467.424878 183.111975 
Q 469.553721 183.111975 471.504017 183.199601 
Q 473.458891 183.286231 475.189435 183.4575 
L 475.189435 184.418397 
Q 473.403953 184.198336 471.636784 184.0898 
Q 469.869614 183.980267 468.093289 183.980267 
Q 464.806171 183.980267 463.025267 184.380558 
Q 461.244363 184.779853 461.244363 185.523677 
Q 461.244363 186.260531 462.961172 186.662814 
Q 464.677982 187.0641 467.836912 187.0641 
Q 468.697606 187.0641 469.434689 187.041198 
Q 470.171773 187.0173 470.757777 186.967513 
L 470.757777 186.065364 
L 467.39283 186.065364 
L 467.39283 185.261796 
L 475.976879 185.261796 
L 475.976879 187.496255 
z
" clip-path="url(#p81c22e4702)" style="fill: #ffa600"/>
   </g>
   <g id="patch_74">
    <path d="M 469.69945 181.916223 
L 461.843268 181.916223 
L 460.602818 183.111975 
L 455.549133 183.111975 
L 462.766296 176.548002 
L 468.759716 176.548002 
L 475.976879 183.111975 
L 470.92737 183.111975 
L 469.69945 181.916223 
z
M 463.096247 180.697963 
L 468.433941 180.697963 
L 465.769271 178.087004 
L 463.096247 180.697963 
z
" clip-path="url(#p81c22e4702)" style="fill: #008000"/>
   </g>
   <g id="patch_75">
    <path d="M 497.479769 192.167227 
Q 495.771023 192.203299 493.923313 192.221545 
Q 492.075603 192.24 490.063195 192.24 
Q 484.061998 192.24 480.55701 192.103263 
Q 477.052023 191.966525 477.052023 191.732687 
Q 477.052023 191.49801 480.55701 191.361483 
Q 484.061998 191.224745 490.063195 191.224745 
Q 492.075603 191.224745 493.923313 191.243201 
Q 495.771023 191.261446 497.479769 191.297518 
L 497.479769 191.499898 
Q 495.755583 191.452082 494.082865 191.429851 
Q 492.410147 191.407621 490.562437 191.407621 
Q 487.247882 191.407621 485.348704 191.494236 
Q 483.454673 191.58064 483.454673 191.732687 
Q 483.454673 191.884105 485.348704 191.970719 
Q 487.247882 192.057124 490.562437 192.057124 
Q 492.410147 192.057124 494.082865 192.034894 
Q 495.755583 192.012454 497.479769 191.964638 
L 497.479769 192.167227 
z
" clip-path="url(#p81c22e4702)" style="fill: #0000ff"/>
   </g>
   <g id="patch_76">
    <path d="M 491.202341 190.115058 
L 483.346158 190.115058 
L 482.105708 191.224745 
L 477.052023 191.224745 
L 484.269186 185.133217 
L 490.262606 185.133217 
L 497.479769 191.224745 
L 492.430261 191.224745 
L 491.202341 190.115058 
z
M 484.599137 188.984483 
L 489.936831 188.984483 
L 487.272161 186.561449 
L 484.599137 188.984483 
z
" clip-path="url(#p81c22e4702)" style="fill: #008000"/>
   </g>
   <g id="patch_77">
    <path d="M 477.052023 175.18372 
L 497.479769 175.18372 
L 497.479769 177.124149 
L 490.130531 177.124149 
L 490.130531 185.133217 
L 484.415513 185.133217 
L 484.415513 177.124149 
L 477.052023 177.124149 
L 477.052023 175.18372 
z
" clip-path="url(#p81c22e4702)" style="fill: #ff0000"/>
   </g>
   <g id="patch_78">
    <path d="M 497.479769 173.916088 
Q 495.419597 174.549904 493.203768 174.868259 
Q 490.987939 175.18372 488.625609 175.18372 
Q 483.287476 175.18372 480.169749 173.296743 
Q 477.052023 171.409766 477.052023 168.182804 
Q 477.052023 164.918217 480.224687 163.045711 
Q 483.40193 161.173204 488.927768 161.173204 
Q 491.056612 161.173204 493.006907 161.427889 
Q 494.961781 161.679678 496.692325 162.17747 
L 496.692325 164.970312 
Q 494.906843 164.330708 493.139674 164.015247 
Q 491.372505 163.696892 489.596179 163.696892 
Q 486.309061 163.696892 484.528157 164.860335 
Q 482.747253 166.020883 482.747253 168.182804 
Q 482.747253 170.324465 484.464063 171.493696 
Q 486.180872 172.660033 489.339802 172.660033 
Q 490.200496 172.660033 490.93758 172.593468 
Q 491.674663 172.524009 492.260667 172.379302 
L 492.260667 169.757214 
L 488.895721 169.757214 
L 488.895721 167.421646 
L 497.479769 167.421646 
L 497.479769 173.916088 
z
" clip-path="url(#p81c22e4702)" style="fill: #ffa600"/>
   </g>
   <g id="patch_79">
    <path d="M 518.982659 191.912779 
Q 517.273913 192.074975 515.426203 192.157016 
Q 513.578493 192.24 511.566085 192.24 
Q 505.564888 192.24 502.059901 191.625164 
Q 498.554913 191.010328 498.554913 189.958883 
Q 498.554913 188.903666 502.059901 188.289773 
Q 505.564888 187.674937 511.566085 187.674937 
Q 513.578493 187.674937 515.426203 187.757921 
Q 517.273913 187.839962 518.982659 188.002158 
L 518.982659 188.912153 
Q 517.258473 188.697149 515.585755 188.597191 
Q 513.913037 188.497233 512.065327 188.497233 
Q 508.750772 188.497233 506.851594 188.886692 
Q 504.957563 189.275208 504.957563 189.958883 
Q 504.957563 190.639729 506.851594 191.029188 
Q 508.750772 191.417704 512.065327 191.417704 
Q 513.913037 191.417704 515.585755 191.317746 
Q 517.258473 191.216845 518.982659 191.001841 
L 518.982659 191.912779 
z
" clip-path="url(#p81c22e4702)" style="fill: #0000ff"/>
   </g>
   <g id="patch_80">
    <path d="M 518.982659 187.224355 
Q 516.922487 187.449646 514.706658 187.562806 
Q 512.490829 187.674937 510.128499 187.674937 
Q 504.790366 187.674937 501.67264 187.004207 
Q 498.554913 186.333477 498.554913 185.186446 
Q 498.554913 184.026042 501.727578 183.360455 
Q 504.90482 182.694869 510.430658 182.694869 
Q 512.559502 182.694869 514.509798 182.785397 
Q 516.464671 182.874896 518.195216 183.051837 
L 518.195216 184.044559 
Q 516.409734 183.81721 514.642564 183.705079 
Q 512.875395 183.591919 511.099069 183.591919 
Q 507.811951 183.591919 506.031047 184.005467 
Q 504.250143 184.417987 504.250143 185.186446 
Q 504.250143 185.947704 505.966953 186.36331 
Q 507.683762 186.777887 510.842692 186.777887 
Q 511.703386 186.777887 512.44047 186.754226 
Q 513.177553 186.729537 513.763558 186.678101 
L 513.763558 185.746074 
L 510.398611 185.746074 
L 510.398611 184.915891 
L 518.982659 184.915891 
L 518.982659 187.224355 
z
" clip-path="url(#p81c22e4702)" style="fill: #ffa600"/>
   </g>
   <g id="patch_81">
    <path d="M 512.705231 181.031644 
L 504.849048 181.031644 
L 503.608598 182.694869 
L 498.554913 182.694869 
L 505.772076 173.564743 
L 511.765496 173.564743 
L 518.982659 182.694869 
L 513.933151 182.694869 
L 512.705231 181.031644 
z
M 506.102028 179.337112 
L 511.439721 179.337112 
L 508.775051 175.705411 
L 506.102028 179.337112 
z
" clip-path="url(#p81c22e4702)" style="fill: #008000"/>
   </g>
   <g id="patch_82">
    <path d="M 498.554913 128.744127 
L 518.982659 128.744127 
L 518.982659 137.485396 
L 511.633421 137.485396 
L 511.633421 173.564743 
L 505.918403 173.564743 
L 505.918403 137.485396 
L 498.554913 137.485396 
L 498.554913 128.744127 
z
" clip-path="url(#p81c22e4702)" style="fill: #ff0000"/>
   </g>
   <g id="patch_83">
    <path d="M 540.485549 191.959894 
Q 538.776803 192.098736 536.929094 192.168965 
Q 535.081384 192.24 533.068975 192.24 
Q 527.067778 192.24 523.562791 191.713692 
Q 520.057803 191.187383 520.057803 190.287331 
Q 520.057803 189.38405 523.562791 188.858549 
Q 527.067778 188.332241 533.068975 188.332241 
Q 535.081384 188.332241 536.929094 188.403276 
Q 538.776803 188.473505 540.485549 188.612347 
L 540.485549 189.391315 
Q 538.761363 189.207269 537.088645 189.121703 
Q 535.415927 189.036138 533.568217 189.036138 
Q 530.253662 189.036138 528.354484 189.36952 
Q 526.460453 189.702096 526.460453 190.287331 
Q 526.460453 190.870145 528.354484 191.203528 
Q 530.253662 191.536103 533.568217 191.536103 
Q 535.415927 191.536103 537.088645 191.450537 
Q 538.761363 191.364165 540.485549 191.180118 
L 540.485549 191.959894 
z
" clip-path="url(#p81c22e4702)" style="fill: #0000ff"/>
   </g>
   <g id="patch_84">
    <path d="M 534.208121 187.193246 
L 526.351938 187.193246 
L 525.111488 188.332241 
L 520.057803 188.332241 
L 527.274967 182.079826 
L 533.268386 182.079826 
L 540.485549 188.332241 
L 535.436041 188.332241 
L 534.208121 187.193246 
z
M 527.604918 186.03281 
L 532.942611 186.03281 
L 530.277941 183.54578 
L 527.604918 186.03281 
z
" clip-path="url(#p81c22e4702)" style="fill: #008000"/>
   </g>
   <g id="patch_85">
    <path d="M 540.485549 181.337344 
Q 538.425378 181.708585 536.209549 181.895053 
Q 533.99372 182.079826 531.63139 182.079826 
Q 526.293256 182.079826 523.17553 180.974579 
Q 520.057803 179.869331 520.057803 177.979222 
Q 520.057803 176.067076 523.230468 174.970304 
Q 526.40771 173.873532 531.933548 173.873532 
Q 534.062392 173.873532 536.012688 174.022707 
Q 537.967562 174.170186 539.698106 174.461754 
L 539.698106 176.097589 
Q 537.912624 175.722957 536.145454 175.538184 
Q 534.378285 175.351716 532.601959 175.351716 
Q 529.314841 175.351716 527.533937 176.033172 
Q 525.753033 176.712934 525.753033 177.979222 
Q 525.753033 179.233644 527.469843 179.918491 
Q 529.186653 180.601642 532.345582 180.601642 
Q 533.206276 180.601642 533.94336 180.562654 
Q 534.680443 180.52197 535.266448 180.437211 
L 535.266448 178.901392 
L 531.901501 178.901392 
L 531.901501 177.533394 
L 540.485549 177.533394 
L 540.485549 181.337344 
z
" clip-path="url(#p81c22e4702)" style="fill: #ffa600"/>
   </g>
   <g id="patch_86">
    <path d="M 520.057803 132.451286 
L 540.485549 132.451286 
L 540.485549 140.529778 
L 533.136311 140.529778 
L 533.136311 173.873532 
L 527.421293 173.873532 
L 527.421293 140.529778 
L 520.057803 140.529778 
L 520.057803 132.451286 
z
" clip-path="url(#p81c22e4702)" style="fill: #ff0000"/>
   </g>
   <g id="patch_87">
    <path d="M 561.988439 191.862837 
Q 559.928268 192.051419 557.712439 192.14614 
Q 555.49661 192.24 553.13428 192.24 
Q 547.796146 192.24 544.67842 191.678561 
Q 541.560694 191.117123 541.560694 190.156994 
Q 541.560694 189.18567 544.733358 188.628537 
Q 547.9106 188.071404 553.436438 188.071404 
Q 555.565282 188.071404 557.515578 188.147181 
Q 559.470452 188.222097 561.200996 188.370206 
L 561.200996 189.20117 
Q 559.415514 189.010866 557.648345 188.917006 
Q 555.881175 188.822285 554.104849 188.822285 
Q 550.817731 188.822285 549.036827 189.168448 
Q 547.255923 189.51375 547.255923 190.156994 
Q 547.255923 190.794209 548.972733 191.142095 
Q 550.689543 191.489119 553.848473 191.489119 
Q 554.709166 191.489119 555.44625 191.469313 
Q 556.183334 191.448647 556.769338 191.405592 
L 556.769338 190.625433 
L 553.404391 190.625433 
L 553.404391 189.930524 
L 561.988439 189.930524 
L 561.988439 191.862837 
z
" clip-path="url(#p81c22e4702)" style="fill: #ffa600"/>
   </g>
   <g id="patch_88">
    <path d="M 561.988439 187.66055 
Q 560.279694 187.864201 558.431984 187.96721 
Q 556.584274 188.071404 554.571865 188.071404 
Q 548.570668 188.071404 545.065681 187.299426 
Q 541.560694 186.527447 541.560694 185.20727 
Q 541.560694 183.882357 545.065681 183.111562 
Q 548.570668 182.339584 554.571865 182.339584 
Q 556.584274 182.339584 558.431984 182.443778 
Q 560.279694 182.546787 561.988439 182.750438 
L 561.988439 183.893013 
Q 560.264253 183.623057 558.591535 183.497551 
Q 556.918817 183.372046 555.071107 183.372046 
Q 551.756553 183.372046 549.857374 183.861044 
Q 547.963343 184.348859 547.963343 185.20727 
Q 547.963343 186.062129 549.857374 186.551128 
Q 551.756553 187.038942 555.071107 187.038942 
Q 556.918817 187.038942 558.591535 186.913437 
Q 560.264253 186.786747 561.988439 186.516791 
L 561.988439 187.66055 
z
" clip-path="url(#p81c22e4702)" style="fill: #0000ff"/>
   </g>
   <g id="patch_89">
    <path d="M 555.711011 180.725884 
L 547.854828 180.725884 
L 546.614378 182.339584 
L 541.560694 182.339584 
L 548.777857 173.481317 
L 554.771276 173.481317 
L 561.988439 182.339584 
L 556.938931 182.339584 
L 555.711011 180.725884 
z
M 549.107808 179.081807 
L 554.445502 179.081807 
L 551.780831 175.558245 
L 549.107808 179.081807 
z
" clip-path="url(#p81c22e4702)" style="fill: #008000"/>
   </g>
   <g id="patch_90">
    <path d="M 541.560694 112.515599 
L 561.988439 112.515599 
L 561.988439 124.405612 
L 554.639202 124.405612 
L 554.639202 173.481317 
L 548.924183 173.481317 
L 548.924183 124.405612 
L 541.560694 124.405612 
L 541.560694 112.515599 
z
" clip-path="url(#p81c22e4702)" style="fill: #ff0000"/>
   </g>
   <g id="patch_91">
    <path d="M 563.063584 190.849777 
L 583.491329 190.849777 
L 583.491329 191.12091 
L 576.142092 191.12091 
L 576.142092 192.24 
L 570.427074 192.24 
L 570.427074 191.12091 
L 563.063584 191.12091 
L 563.063584 190.849777 
z
" clip-path="url(#p81c22e4702)" style="fill: #ff0000"/>
   </g>
   <g id="patch_92">
    <path d="M 583.491329 190.724131 
Q 581.782584 190.786411 579.934874 190.817913 
Q 578.087164 190.849777 576.074756 190.849777 
Q 570.073559 190.849777 566.568571 190.613693 
Q 563.063584 190.377609 563.063584 189.973876 
Q 563.063584 189.568695 566.568571 189.332972 
Q 570.073559 189.096888 576.074756 189.096888 
Q 578.087164 189.096888 579.934874 189.128752 
Q 581.782584 189.160254 583.491329 189.222534 
L 583.491329 189.571953 
Q 581.767143 189.489396 580.094425 189.451015 
Q 578.421708 189.412633 576.573998 189.412633 
Q 573.259443 189.412633 571.360265 189.562177 
Q 569.466233 189.711359 569.466233 189.973876 
Q 569.466233 190.235307 571.360265 190.384851 
Q 573.259443 190.534033 576.573998 190.534033 
Q 578.421708 190.534033 580.094425 190.495651 
Q 581.767143 190.456907 583.491329 190.37435 
L 583.491329 190.724131 
z
" clip-path="url(#p81c22e4702)" style="fill: #0000ff"/>
   </g>
   <g id="patch_93">
    <path d="M 583.491329 188.878134 
Q 581.431158 188.987511 579.215329 189.042449 
Q 576.9995 189.096888 574.63717 189.096888 
Q 569.299036 189.096888 566.18131 188.771255 
Q 563.063584 188.445621 563.063584 187.888748 
Q 563.063584 187.325382 566.236248 187.002246 
Q 569.41349 186.67911 574.939328 186.67911 
Q 577.068172 186.67911 579.018468 186.72306 
Q 580.973342 186.766511 582.703886 186.852415 
L 582.703886 187.334372 
Q 580.918404 187.223996 579.151235 187.169558 
Q 577.384065 187.11462 575.60774 187.11462 
Q 572.320621 187.11462 570.539718 187.315394 
Q 568.758814 187.515668 568.758814 187.888748 
Q 568.758814 188.258332 570.475623 188.460105 
Q 572.192433 188.661378 575.351363 188.661378 
Q 576.212057 188.661378 576.94914 188.649891 
Q 577.686224 188.637905 578.272228 188.612933 
L 578.272228 188.160442 
L 574.907281 188.160442 
L 574.907281 187.757396 
L 583.491329 187.757396 
L 583.491329 188.878134 
z
" clip-path="url(#p81c22e4702)" style="fill: #ffa600"/>
   </g>
   <g id="patch_94">
    <path d="M 577.213901 186.007433 
L 569.357718 186.007433 
L 568.117269 186.67911 
L 563.063584 186.67911 
L 570.280747 182.991998 
L 576.274166 182.991998 
L 583.491329 186.67911 
L 578.441821 186.67911 
L 577.213901 186.007433 
z
M 570.610698 185.323112 
L 575.948392 185.323112 
L 573.283722 183.856486 
L 570.610698 185.323112 
z
" clip-path="url(#p81c22e4702)" style="fill: #008000"/>
   </g>
   <g id="patch_95">
    <path d="M 604.99422 192.164601 
Q 603.285474 192.201975 601.437764 192.220879 
Q 599.590054 192.24 597.577646 192.24 
Q 591.576449 192.24 588.071461 192.098328 
Q 584.566474 191.956657 584.566474 191.714381 
Q 584.566474 191.471236 588.071461 191.329782 
Q 591.576449 191.18811 597.577646 191.18811 
Q 599.590054 191.18811 601.437764 191.207231 
Q 603.285474 191.226135 604.99422 191.263509 
L 604.99422 191.473192 
Q 603.270034 191.42365 601.597316 191.400617 
Q 599.924598 191.377585 598.076888 191.377585 
Q 594.762333 191.377585 592.863155 191.467325 
Q 590.969123 191.556847 590.969123 191.714381 
Q 590.969123 191.871263 592.863155 191.961003 
Q 594.762333 192.050525 598.076888 192.050525 
Q 599.924598 192.050525 601.597316 192.027493 
Q 603.270034 192.004243 604.99422 191.954701 
L 604.99422 192.164601 
z
" clip-path="url(#p81c22e4702)" style="fill: #0000ff"/>
   </g>
   <g id="patch_96">
    <path d="M 598.716791 190.862353 
L 590.860609 190.862353 
L 589.620159 191.18811 
L 584.566474 191.18811 
L 591.783637 189.399897 
L 597.777057 189.399897 
L 604.99422 191.18811 
L 599.944711 191.18811 
L 598.716791 190.862353 
z
M 592.113588 190.530465 
L 597.451282 190.530465 
L 594.786612 189.819165 
L 592.113588 190.530465 
z
" clip-path="url(#p81c22e4702)" style="fill: #008000"/>
   </g>
   <g id="patch_97">
    <path d="M 604.99422 189.190518 
Q 602.934048 189.295208 600.718219 189.347791 
Q 598.50239 189.399897 596.14006 189.399897 
Q 590.801927 189.399897 587.6842 189.088219 
Q 584.566474 188.776542 584.566474 188.243535 
Q 584.566474 187.704314 587.739138 187.395026 
Q 590.916381 187.085739 596.442219 187.085739 
Q 598.571063 187.085739 600.521358 187.127806 
Q 602.476232 187.169395 604.206776 187.251616 
L 604.206776 187.712918 
Q 602.421294 187.607273 600.654125 187.555167 
Q 598.886955 187.502584 597.11063 187.502584 
Q 593.823512 187.502584 592.042608 187.694753 
Q 590.261704 187.886444 590.261704 188.243535 
Q 590.261704 188.597279 591.978513 188.790405 
Q 593.695323 188.983052 596.854253 188.983052 
Q 597.714947 188.983052 598.45203 188.972057 
Q 599.189114 188.960585 599.775118 188.936683 
L 599.775118 188.503585 
L 596.410171 188.503585 
L 596.410171 188.117812 
L 604.99422 188.117812 
L 604.99422 189.190518 
z
" clip-path="url(#p81c22e4702)" style="fill: #ffa600"/>
   </g>
   <g id="patch_98">
    <path d="M 584.566474 184.193041 
L 604.99422 184.193041 
L 604.99422 184.757198 
L 597.644982 184.757198 
L 597.644982 187.085739 
L 591.929964 187.085739 
L 591.929964 184.757198 
L 584.566474 184.757198 
L 584.566474 184.193041 
z
" clip-path="url(#p81c22e4702)" style="fill: #ff0000"/>
   </g>
   <g id="patch_99">
    <path d="M 606.069364 190.354431 
L 626.49711 190.354431 
L 626.49711 190.722169 
L 619.147872 190.722169 
L 619.147872 192.24 
L 613.432854 192.24 
L 613.432854 190.722169 
L 606.069364 190.722169 
L 606.069364 190.354431 
z
" clip-path="url(#p81c22e4702)" style="fill: #ff0000"/>
   </g>
   <g id="patch_100">
    <path d="M 626.49711 190.212838 
Q 624.788364 190.283022 622.940654 190.318522 
Q 621.092944 190.354431 619.080536 190.354431 
Q 613.079339 190.354431 609.574352 190.088383 
Q 606.069364 189.822336 606.069364 189.367363 
Q 606.069364 188.910758 609.574352 188.645119 
Q 613.079339 188.379072 619.080536 188.379072 
Q 621.092944 188.379072 622.940654 188.41498 
Q 624.788364 188.45048 626.49711 188.520665 
L 626.49711 188.91443 
Q 624.772924 188.821396 623.100206 188.778143 
Q 621.427488 188.73489 619.579778 188.73489 
Q 616.265223 188.73489 614.366045 188.903413 
Q 612.472014 189.071529 612.472014 189.367363 
Q 612.472014 189.661974 614.366045 189.830497 
Q 616.265223 189.998613 619.579778 189.998613 
Q 621.427488 189.998613 623.100206 189.95536 
Q 624.772924 189.911699 626.49711 189.818664 
L 626.49711 190.212838 
z
" clip-path="url(#p81c22e4702)" style="fill: #0000ff"/>
   </g>
   <g id="patch_101">
    <path d="M 626.49711 187.972879 
Q 624.436938 188.175976 622.221109 188.277987 
Q 620.00528 188.379072 617.64295 188.379072 
Q 612.304817 188.379072 609.18709 187.77442 
Q 606.069364 187.169767 606.069364 186.135738 
Q 606.069364 185.089652 609.242028 184.489636 
Q 612.419271 183.889621 617.945109 183.889621 
Q 620.073953 183.889621 622.024248 183.97123 
Q 623.979122 184.051913 625.709666 184.211422 
L 625.709666 185.106345 
Q 623.924184 184.901393 622.157015 184.800309 
Q 620.389846 184.698297 618.61352 184.698297 
Q 615.326402 184.698297 613.545498 185.071104 
Q 611.764594 185.442984 611.764594 186.135738 
Q 611.764594 186.821999 613.481404 187.196661 
Q 615.198213 187.570396 618.357143 187.570396 
Q 619.217837 187.570396 619.954921 187.549066 
Q 620.692004 187.526809 621.278009 187.48044 
L 621.278009 186.640233 
L 617.913062 186.640233 
L 617.913062 185.891836 
L 626.49711 185.891836 
L 626.49711 187.972879 
z
" clip-path="url(#p81c22e4702)" style="fill: #ffa600"/>
   </g>
   <g id="patch_102">
    <path d="M 620.219682 182.908215 
L 612.363499 182.908215 
L 611.123049 183.889621 
L 606.069364 183.889621 
L 613.286527 178.502279 
L 619.279947 178.502279 
L 626.49711 183.889621 
L 621.447602 183.889621 
L 620.219682 182.908215 
z
M 613.616479 181.908335 
L 618.954172 181.908335 
L 616.289502 179.765407 
L 613.616479 181.908335 
z
" clip-path="url(#p81c22e4702)" style="fill: #008000"/>
   </g>
   <g id="patch_103">
    <path d="M 648 192.147922 
Q 646.291254 192.193563 644.443544 192.216649 
Q 642.595834 192.24 640.583426 192.24 
Q 634.582229 192.24 631.077242 192.066988 
Q 627.572254 191.893977 627.572254 191.598105 
Q 627.572254 191.301173 631.077242 191.128426 
Q 634.582229 190.955415 640.583426 190.955415 
Q 642.595834 190.955415 644.443544 190.978766 
Q 646.291254 191.001852 648 191.047493 
L 648 191.303561 
Q 646.275814 191.24306 644.603096 191.214932 
Q 642.930378 191.186805 641.082668 191.186805 
Q 637.768113 191.186805 635.868935 191.296396 
Q 633.974904 191.405723 633.974904 191.598105 
Q 633.974904 191.789692 635.868935 191.899284 
Q 637.768113 192.00861 641.082668 192.00861 
Q 642.930378 192.00861 644.603096 191.980482 
Q 646.275814 191.952089 648 191.891588 
L 648 192.147922 
z
" clip-path="url(#p81c22e4702)" style="fill: #0000ff"/>
   </g>
   <g id="patch_104">
    <path d="M 627.572254 185.354622 
L 648 185.354622 
L 648 186.446933 
L 640.650762 186.446933 
L 640.650762 190.955415 
L 634.935744 190.955415 
L 634.935744 186.446933 
L 627.572254 186.446933 
L 627.572254 185.354622 
z
" clip-path="url(#p81c22e4702)" style="fill: #ff0000"/>
   </g>
   <g id="patch_105">
    <path d="M 648 184.494553 
Q 645.939828 184.924588 643.723999 185.140587 
Q 641.50817 185.354622 639.14584 185.354622 
Q 633.807707 185.354622 630.689981 184.074336 
Q 627.572254 182.794049 627.572254 180.604602 
Q 627.572254 178.389628 630.744919 177.119159 
Q 633.922161 175.848691 639.447999 175.848691 
Q 641.576843 175.848691 643.527139 176.02149 
Q 645.482013 176.192326 647.212557 176.53007 
L 647.212557 178.424973 
Q 645.427075 177.991011 643.659905 177.776975 
Q 641.892736 177.560976 640.11641 177.560976 
Q 636.829292 177.560976 635.048388 178.350355 
Q 633.267484 179.137771 633.267484 180.604602 
Q 633.267484 182.057688 634.984294 182.850994 
Q 636.701103 183.642337 639.860033 183.642337 
Q 640.720727 183.642337 641.457811 183.597174 
Q 642.194894 183.550047 642.780899 183.451865 
L 642.780899 181.672817 
L 639.415952 181.672817 
L 639.415952 180.088167 
L 648 180.088167 
L 648 184.494553 
z
" clip-path="url(#p81c22e4702)" style="fill: #ffa600"/>
   </g>
   <g id="patch_106">
    <path d="M 641.722572 173.106076 
L 633.866389 173.106076 
L 632.625939 175.848691 
L 627.572254 175.848691 
L 634.789417 160.79335 
L 640.782837 160.79335 
L 648 175.848691 
L 642.950492 175.848691 
L 641.722572 173.106076 
z
M 635.119369 170.311836 
L 640.457062 170.311836 
L 637.792392 164.323256 
L 635.119369 170.311836 
z
" clip-path="url(#p81c22e4702)" style="fill: #008000"/>
   </g>
   <g id="matplotlib.axis_1">
    <g id="xtick_1">
     <g id="line2d_2">
      <defs>
       <path id="m54c44a248b" d="M 0 0 
L 0 3.5 
" style="stroke: #000000; stroke-width: 0.8"/>
      </defs>
      <g>
       <use xlink:href="#m54c44a248b" x="100.213873" y="192.24" style="stroke: #000000; stroke-width: 0.8"/>
      </g>
     </g>
     <g id="text_1">
      <!-- 0 -->
      <g transform="translate(97.032623 206.838437) scale(0.1 -0.1)">
       <defs>
        <path id="DejaVuSans-30" d="M 2034 4250 
Q 1547 4250 1301 3770 
Q 1056 3291 1056 2328 
Q 1056 1369 1301 889 
Q 1547 409 2034 409 
Q 2525 409 2770 889 
Q 3016 1369 3016 2328 
Q 3016 3291 2770 3770 
Q 2525 4250 2034 4250 
z
M 2034 4750 
Q 2819 4750 3233 4129 
Q 3647 3509 3647 2328 
Q 3647 1150 3233 529 
Q 2819 -91 2034 -91 
Q 1250 -91 836 529 
Q 422 1150 422 2328 
Q 422 3509 836 4129 
Q 1250 4750 2034 4750 
z
" transform="scale(0.015625)"/>
       </defs>
       <use xlink:href="#DejaVuSans-30"/>
      </g>
     </g>
    </g>
    <g id="xtick_2">
     <g id="line2d_3">
      <g>
       <use xlink:href="#m54c44a248b" x="207.728324" y="192.24" style="stroke: #000000; stroke-width: 0.8"/>
      </g>
     </g>
     <g id="text_2">
      <!-- 5 -->
      <g transform="translate(204.547074 206.838437) scale(0.1 -0.1)">
       <defs>
        <path id="DejaVuSans-35" d="M 691 4666 
L 3169 4666 
L 3169 4134 
L 1269 4134 
L 1269 2991 
Q 1406 3038 1543 3061 
Q 1681 3084 1819 3084 
Q 2600 3084 3056 2656 
Q 3513 2228 3513 1497 
Q 3513 744 3044 326 
Q 2575 -91 1722 -91 
Q 1428 -91 1123 -41 
Q 819 9 494 109 
L 494 744 
Q 775 591 1075 516 
Q 1375 441 1709 441 
Q 2250 441 2565 725 
Q 2881 1009 2881 1497 
Q 2881 1984 2565 2268 
Q 2250 2553 1709 2553 
Q 1456 2553 1204 2497 
Q 953 2441 691 2322 
L 691 4666 
z
" transform="scale(0.015625)"/>
       </defs>
       <use xlink:href="#DejaVuSans-35"/>
      </g>
     </g>
    </g>
    <g id="xtick_3">
     <g id="line2d_4">
      <g>
       <use xlink:href="#m54c44a248b" x="315.242775" y="192.24" style="stroke: #000000; stroke-width: 0.8"/>
      </g>
     </g>
     <g id="text_3">
      <!-- 10 -->
      <g transform="translate(308.880275 206.838437) scale(0.1 -0.1)">
       <defs>
        <path id="DejaVuSans-31" d="M 794 531 
L 1825 531 
L 1825 4091 
L 703 3866 
L 703 4441 
L 1819 4666 
L 2450 4666 
L 2450 531 
L 3481 531 
L 3481 0 
L 794 0 
L 794 531 
z
" transform="scale(0.015625)"/>
       </defs>
       <use xlink:href="#DejaVuSans-31"/>
       <use xlink:href="#DejaVuSans-30" x="63.623047"/>
      </g>
     </g>
    </g>
    <g id="xtick_4">
     <g id="line2d_5">
      <g>
       <use xlink:href="#m54c44a248b" x="422.757225" y="192.24" style="stroke: #000000; stroke-width: 0.8"/>
      </g>
     </g>
     <g id="text_4">
      <!-- 15 -->
      <g transform="translate(416.394725 206.838437) scale(0.1 -0.1)">
       <use xlink:href="#DejaVuSans-31"/>
       <use xlink:href="#DejaVuSans-35" x="63.623047"/>
      </g>
     </g>
    </g>
    <g id="xtick_5">
     <g id="line2d_6">
      <g>
       <use xlink:href="#m54c44a248b" x="530.271676" y="192.24" style="stroke: #000000; stroke-width: 0.8"/>
      </g>
     </g>
     <g id="text_5">
      <!-- 20 -->
      <g transform="translate(523.909176 206.838437) scale(0.1 -0.1)">
       <defs>
        <path id="DejaVuSans-32" d="M 1228 531 
L 3431 531 
L 3431 0 
L 469 0 
L 469 531 
Q 828 903 1448 1529 
Q 2069 2156 2228 2338 
Q 2531 2678 2651 2914 
Q 2772 3150 2772 3378 
Q 2772 3750 2511 3984 
Q 2250 4219 1831 4219 
Q 1534 4219 1204 4116 
Q 875 4013 500 3803 
L 500 4441 
Q 881 4594 1212 4672 
Q 1544 4750 1819 4750 
Q 2544 4750 2975 4387 
Q 3406 4025 3406 3419 
Q 3406 3131 3298 2873 
Q 3191 2616 2906 2266 
Q 2828 2175 2409 1742 
Q 1991 1309 1228 531 
z
" transform="scale(0.015625)"/>
       </defs>
       <use xlink:href="#DejaVuSans-32"/>
       <use xlink:href="#DejaVuSans-30" x="63.623047"/>
      </g>
     </g>
    </g>
    <g id="xtick_6">
     <g id="line2d_7">
      <g>
       <use xlink:href="#m54c44a248b" x="637.786127" y="192.24" style="stroke: #000000; stroke-width: 0.8"/>
      </g>
     </g>
     <g id="text_6">
      <!-- 25 -->
      <g transform="translate(631.423627 206.838437) scale(0.1 -0.1)">
       <use xlink:href="#DejaVuSans-32"/>
       <use xlink:href="#DejaVuSans-35" x="63.623047"/>
      </g>
     </g>
    </g>
   </g>
   <g id="matplotlib.axis_2">
    <g id="ytick_1">
     <g id="line2d_8">
      <defs>
       <path id="md391be9061" d="M 0 0 
L -3.5 0 
" style="stroke: #000000; stroke-width: 0.8"/>
      </defs>
      <g>
       <use xlink:href="#md391be9061" x="90" y="192.24" style="stroke: #000000; stroke-width: 0.8"/>
      </g>
     </g>
     <g id="text_7">
      <!-- 0.00 -->
      <g transform="translate(60.734375 196.039219) scale(0.1 -0.1)">
       <defs>
        <path id="DejaVuSans-2e" d="M 684 794 
L 1344 794 
L 1344 0 
L 684 0 
L 684 794 
z
" transform="scale(0.015625)"/>
       </defs>
       <use xlink:href="#DejaVuSans-30"/>
       <use xlink:href="#DejaVuSans-2e" x="63.623047"/>
       <use xlink:href="#DejaVuSans-30" x="95.410156"/>
       <use xlink:href="#DejaVuSans-30" x="159.033203"/>
      </g>
     </g>
    </g>
    <g id="ytick_2">
     <g id="line2d_9">
      <g>
       <use xlink:href="#md391be9061" x="90" y="168.960439" style="stroke: #000000; stroke-width: 0.8"/>
      </g>
     </g>
     <g id="text_8">
      <!-- 0.25 -->
      <g transform="translate(60.734375 172.759658) scale(0.1 -0.1)">
       <use xlink:href="#DejaVuSans-30"/>
       <use xlink:href="#DejaVuSans-2e" x="63.623047"/>
       <use xlink:href="#DejaVuSans-32" x="95.410156"/>
       <use xlink:href="#DejaVuSans-35" x="159.033203"/>
      </g>
     </g>
    </g>
    <g id="ytick_3">
     <g id="line2d_10">
      <g>
       <use xlink:href="#md391be9061" x="90" y="145.680878" style="stroke: #000000; stroke-width: 0.8"/>
      </g>
     </g>
     <g id="text_9">
      <!-- 0.50 -->
      <g transform="translate(60.734375 149.480096) scale(0.1 -0.1)">
       <use xlink:href="#DejaVuSans-30"/>
       <use xlink:href="#DejaVuSans-2e" x="63.623047"/>
       <use xlink:href="#DejaVuSans-35" x="95.410156"/>
       <use xlink:href="#DejaVuSans-30" x="159.033203"/>
      </g>
     </g>
    </g>
    <g id="ytick_4">
     <g id="line2d_11">
      <g>
       <use xlink:href="#md391be9061" x="90" y="122.401316" style="stroke: #000000; stroke-width: 0.8"/>
      </g>
     </g>
     <g id="text_10">
      <!-- 0.75 -->
      <g transform="translate(60.734375 126.200535) scale(0.1 -0.1)">
       <defs>
        <path id="DejaVuSans-37" d="M 525 4666 
L 3525 4666 
L 3525 4397 
L 1831 0 
L 1172 0 
L 2766 4134 
L 525 4134 
L 525 4666 
z
" transform="scale(0.015625)"/>
       </defs>
       <use xlink:href="#DejaVuSans-30"/>
       <use xlink:href="#DejaVuSans-2e" x="63.623047"/>
       <use xlink:href="#DejaVuSans-37" x="95.410156"/>
       <use xlink:href="#DejaVuSans-35" x="159.033203"/>
      </g>
     </g>
    </g>
    <g id="ytick_5">
     <g id="line2d_12">
      <g>
       <use xlink:href="#md391be9061" x="90" y="99.121755" style="stroke: #000000; stroke-width: 0.8"/>
      </g>
     </g>
     <g id="text_11">
      <!-- 1.00 -->
      <g transform="translate(60.734375 102.920974) scale(0.1 -0.1)">
       <use xlink:href="#DejaVuSans-31"/>
       <use xlink:href="#DejaVuSans-2e" x="63.623047"/>
       <use xlink:href="#DejaVuSans-30" x="95.410156"/>
       <use xlink:href="#DejaVuSans-30" x="159.033203"/>
      </g>
     </g>
    </g>
    <g id="ytick_6">
     <g id="line2d_13">
      <g>
       <use xlink:href="#md391be9061" x="90" y="75.842194" style="stroke: #000000; stroke-width: 0.8"/>
      </g>
     </g>
     <g id="text_12">
      <!-- 1.25 -->
      <g transform="translate(60.734375 79.641413) scale(0.1 -0.1)">
       <use xlink:href="#DejaVuSans-31"/>
       <use xlink:href="#DejaVuSans-2e" x="63.623047"/>
       <use xlink:href="#DejaVuSans-32" x="95.410156"/>
       <use xlink:href="#DejaVuSans-35" x="159.033203"/>
      </g>
     </g>
    </g>
    <g id="ytick_7">
     <g id="line2d_14">
      <g>
       <use xlink:href="#md391be9061" x="90" y="52.562633" style="stroke: #000000; stroke-width: 0.8"/>
      </g>
     </g>
     <g id="text_13">
      <!-- 1.50 -->
      <g transform="translate(60.734375 56.361852) scale(0.1 -0.1)">
       <use xlink:href="#DejaVuSans-31"/>
       <use xlink:href="#DejaVuSans-2e" x="63.623047"/>
       <use xlink:href="#DejaVuSans-35" x="95.410156"/>
       <use xlink:href="#DejaVuSans-30" x="159.033203"/>
      </g>
     </g>
    </g>
    <g id="ytick_8">
     <g id="line2d_15">
      <g>
       <use xlink:href="#md391be9061" x="90" y="29.283072" style="stroke: #000000; stroke-width: 0.8"/>
      </g>
     </g>
     <g id="text_14">
      <!-- 1.75 -->
      <g transform="translate(60.734375 33.08229) scale(0.1 -0.1)">
       <use xlink:href="#DejaVuSans-31"/>
       <use xlink:href="#DejaVuSans-2e" x="63.623047"/>
       <use xlink:href="#DejaVuSans-37" x="95.410156"/>
       <use xlink:href="#DejaVuSans-35" x="159.033203"/>
      </g>
     </g>
    </g>
   </g>
  </g>
 </g>
 <defs>
  <clipPath id="p81c22e4702">
   <rect x="90" y="25.92" width="558" height="166.32"/>
  </clipPath>
 </defs>
</svg>
