<?xml version="1.0" encoding="utf-8" standalone="no"?>
<!DOCTYPE svg PUBLIC "-//W3C//DTD SVG 1.1//EN"
  "http://www.w3.org/Graphics/SVG/1.1/DTD/svg11.dtd">
<svg xmlns:xlink="http://www.w3.org/1999/xlink" width="720pt" height="216pt" viewBox="0 0 720 216" xmlns="http://www.w3.org/2000/svg" version="1.1">
 <metadata>
  <rdf:RDF xmlns:dc="http://purl.org/dc/elements/1.1/" xmlns:cc="http://creativecommons.org/ns#" xmlns:rdf="http://www.w3.org/1999/02/22-rdf-syntax-ns#">
   <cc:Work>
    <dc:type rdf:resource="http://purl.org/dc/dcmitype/StillImage"/>
    <dc:date>2025-12-17T10:22:16.896848</dc:date>
    <dc:format>image/svg+xml</dc:format>
    <dc:creator>
     <cc:Agent>
      <dc:title>Matplotlib v3.8.2, https://matplotlib.org/</dc:title>
     </cc:Agent>
    </dc:creator>
   </cc:Work>
  </rdf:RDF>
 </metadata>
 <defs>
  <style type="text/css">*{stroke-linejoin: round; stroke-linecap: butt}</style>
 </defs>
 <g id="figure_1">
  <g id="patch_1">
   <path d="M 0 216 
L 720 216 
L 720 0 
L 0 0 
z
" style="fill: #ffffff"/>
  </g>
  <g id="axes_1">
   <g id="patch_2">
    <path d="M 90 192.24 
L 648 192.24 
L 648 25.92 
L 90 25.92 
z
" style="fill: #ffffff"/>
   </g>
   <g id="line2d_1">
    <path d="M 90 192.24 
L 648 192.24 
" clip-path="url(#p74330e897c)" style="fill: none; stroke: #000000; stroke-width: 0.5; stroke-linecap: square"/>
   </g>
   <g id="patch_3">
    <path d="M 125.458194 192.144446 
Q 122.492177 192.19181 119.284948 192.215767 
Q 116.077719 192.24 112.584609 192.24 
Q 102.167816 192.24 96.083908 192.060457 
Q 90 191.880913 90 191.573872 
Q 90 191.26573 96.083908 191.086462 
Q 102.167816 190.906919 112.584609 190.906919 
Q 116.077719 190.906919 119.284948 190.931152 
Q 122.492177 190.955109 125.458194 191.002473 
L 125.458194 191.268208 
Q 122.465376 191.205423 119.561896 191.176234 
Q 116.658415 191.147044 113.451186 191.147044 
Q 107.697829 191.147044 104.401262 191.260773 
Q 101.113629 191.374227 101.113629 191.573872 
Q 101.113629 191.772692 104.401262 191.886421 
Q 107.697829 191.999875 113.451186 191.999875 
Q 116.658415 191.999875 119.561896 191.970685 
Q 122.465376 191.94122 125.458194 191.878435 
L 125.458194 192.144446 
z
" clip-path="url(#p74330e897c)" style="fill: #0000ff"/>
   </g>
   <g id="patch_4">
    <path d="M 114.561922 190.590127 
L 100.925271 190.590127 
L 98.772115 190.906919 
L 90 190.906919 
L 102.52745 189.167916 
L 112.930744 189.167916 
L 125.458194 190.906919 
L 116.693329 190.906919 
L 114.561922 190.590127 
z
M 103.100175 190.267371 
L 112.365269 190.267371 
L 107.739972 189.575647 
L 103.100175 190.267371 
z
" clip-path="url(#p74330e897c)" style="fill: #008000"/>
   </g>
   <g id="patch_5">
    <path d="M 90 187.15215 
L 125.458194 187.15215 
L 125.458194 187.545281 
L 112.70149 187.545281 
L 112.70149 189.167916 
L 102.781442 189.167916 
L 102.781442 187.545281 
L 90 187.545281 
L 90 187.15215 
z
" clip-path="url(#p74330e897c)" style="fill: #ff0000"/>
   </g>
   <g id="patch_6">
    <path d="M 125.458194 186.867936 
Q 121.882177 187.010043 118.035972 187.081421 
Q 114.189767 187.15215 110.089268 187.15215 
Q 100.823411 187.15215 95.411706 186.729074 
Q 90 186.305998 90 185.582486 
Q 90 184.850539 95.507066 184.430707 
Q 101.022079 184.010875 110.613751 184.010875 
Q 114.308968 184.010875 117.694264 184.067978 
Q 121.087507 184.124431 124.091361 184.23604 
L 124.091361 184.862219 
Q 120.992146 184.718814 117.924718 184.648085 
Q 114.857291 184.576707 111.773969 184.576707 
Q 106.068236 184.576707 102.976968 184.837561 
Q 99.8857 185.097765 99.8857 185.582486 
Q 99.8857 186.062664 102.865714 186.324816 
Q 105.845728 186.586318 111.328954 186.586318 
Q 112.822934 186.586318 114.102354 186.571394 
Q 115.381773 186.55582 116.398951 186.523376 
L 116.398951 185.935482 
L 110.558124 185.935482 
L 110.558124 185.411828 
L 125.458194 185.411828 
L 125.458194 186.867936 
z
" clip-path="url(#p74330e897c)" style="fill: #ffa600"/>
   </g>
   <g id="patch_7">
    <path d="M 162.782609 192.174366 
Q 159.816592 192.206899 156.609363 192.223355 
Q 153.402134 192.24 149.909024 192.24 
Q 139.49223 192.24 133.408323 192.116676 
Q 127.324415 191.993351 127.324415 191.782452 
Q 127.324415 191.570795 133.408323 191.44766 
Q 139.49223 191.324336 149.909024 191.324336 
Q 153.402134 191.324336 156.609363 191.340981 
Q 159.816592 191.357437 162.782609 191.38997 
L 162.782609 191.572498 
Q 159.789791 191.529372 156.88631 191.509322 
Q 153.98283 191.489273 150.775601 191.489273 
Q 145.022243 191.489273 141.725677 191.567391 
Q 138.438044 191.645319 138.438044 191.782452 
Q 138.438044 191.919016 141.725677 191.997134 
Q 145.022243 192.075063 150.775601 192.075063 
Q 153.98283 192.075063 156.88631 192.055013 
Q 159.789791 192.034775 162.782609 191.991649 
L 162.782609 192.174366 
z
" clip-path="url(#p74330e897c)" style="fill: #0000ff"/>
   </g>
   <g id="patch_8">
    <path d="M 162.782609 191.194148 
Q 159.206592 191.259242 155.360387 191.291937 
Q 151.514182 191.324336 147.413683 191.324336 
Q 138.147826 191.324336 132.73612 191.13054 
Q 127.324415 190.936745 127.324415 190.605331 
Q 127.324415 190.270053 132.831481 190.077744 
Q 138.346493 189.885435 147.938165 189.885435 
Q 151.633383 189.885435 155.018679 189.911591 
Q 158.411921 189.93745 161.415776 189.988574 
L 161.415776 190.275403 
Q 158.316561 190.209715 155.249133 190.177317 
Q 152.181705 190.144621 149.098384 190.144621 
Q 143.392651 190.144621 140.301383 190.264108 
Q 137.210115 190.383298 137.210115 190.605331 
Q 137.210115 190.825283 140.190129 190.945365 
Q 143.170143 191.065149 148.653369 191.065149 
Q 150.147349 191.065149 151.426768 191.058313 
Q 152.706188 191.051179 153.723366 191.036318 
L 153.723366 190.767025 
L 147.882538 190.767025 
L 147.882538 190.527159 
L 162.782609 190.527159 
L 162.782609 191.194148 
z
" clip-path="url(#p74330e897c)" style="fill: #ffa600"/>
   </g>
   <g id="patch_9">
    <path d="M 127.324415 188.285537 
L 162.782609 188.285537 
L 162.782609 188.597562 
L 150.025905 188.597562 
L 150.025905 189.885435 
L 140.105857 189.885435 
L 140.105857 188.597562 
L 127.324415 188.597562 
L 127.324415 188.285537 
z
" clip-path="url(#p74330e897c)" style="fill: #ff0000"/>
   </g>
   <g id="patch_10">
    <path d="M 151.886337 187.915877 
L 138.249685 187.915877 
L 136.09653 188.285537 
L 127.324415 188.285537 
L 139.851865 186.256318 
L 150.255158 186.256318 
L 162.782609 188.285537 
L 154.017743 188.285537 
L 151.886337 187.915877 
z
M 140.42459 187.539258 
L 149.689683 187.539258 
L 145.064386 186.732093 
L 140.42459 187.539258 
z
" clip-path="url(#p74330e897c)" style="fill: #008000"/>
   </g>
   <g id="patch_11">
    <path d="M 189.210752 191.985439 
L 175.5741 191.985439 
L 173.420944 192.24 
L 164.648829 192.24 
L 177.17628 190.84261 
L 187.579573 190.84261 
L 200.107023 192.24 
L 191.342158 192.24 
L 189.210752 191.985439 
z
M 177.749005 191.726086 
L 187.014098 191.726086 
L 182.388801 191.170245 
L 177.749005 191.726086 
z
" clip-path="url(#p74330e897c)" style="fill: #008000"/>
   </g>
   <g id="patch_12">
    <path d="M 164.648829 189.330758 
L 200.107023 189.330758 
L 200.107023 189.625611 
L 187.35032 189.625611 
L 187.35032 190.84261 
L 177.430271 190.84261 
L 177.430271 189.625611 
L 164.648829 189.625611 
L 164.648829 189.330758 
z
" clip-path="url(#p74330e897c)" style="fill: #ff0000"/>
   </g>
   <g id="patch_13">
    <path d="M 200.107023 189.09386 
Q 196.531007 189.212309 192.684802 189.271804 
Q 188.838597 189.330758 184.738098 189.330758 
Q 175.472241 189.330758 170.060535 188.978115 
Q 164.648829 188.625472 164.648829 188.02241 
Q 164.648829 187.412317 170.155895 187.062378 
Q 175.670908 186.71244 185.26258 186.71244 
Q 188.957797 186.71244 192.343093 186.760036 
Q 195.736336 186.807091 198.74019 186.900119 
L 198.74019 187.422052 
Q 195.640976 187.302521 192.573548 187.243567 
Q 189.50612 187.184072 186.422799 187.184072 
Q 180.717065 187.184072 177.625797 187.401499 
Q 174.534529 187.618385 174.534529 188.02241 
Q 174.534529 188.422649 177.514543 188.641157 
Q 180.494558 188.859125 185.977783 188.859125 
Q 187.471764 188.859125 188.751183 188.846685 
Q 190.030603 188.833705 191.047781 188.806661 
L 191.047781 188.31664 
L 185.206953 188.31664 
L 185.206953 187.880163 
L 200.107023 187.880163 
L 200.107023 189.09386 
z
" clip-path="url(#p74330e897c)" style="fill: #ffa600"/>
   </g>
   <g id="patch_14">
    <path d="M 200.107023 186.498779 
Q 197.141007 186.604686 193.933778 186.658255 
Q 190.726549 186.71244 187.233439 186.71244 
Q 176.816645 186.71244 170.732737 186.31098 
Q 164.648829 185.909519 164.648829 185.222973 
Q 164.648829 184.533964 170.732737 184.133119 
Q 176.816645 183.731659 187.233439 183.731659 
Q 190.726549 183.731659 193.933778 183.785844 
Q 197.141007 183.839413 200.107023 183.945319 
L 200.107023 184.539505 
Q 197.114205 184.399117 194.210725 184.333849 
Q 191.307245 184.268581 188.100016 184.268581 
Q 182.346658 184.268581 179.050091 184.52288 
Q 175.762458 184.776564 175.762458 185.222973 
Q 175.762458 185.667535 179.050091 185.921834 
Q 182.346658 186.175517 188.100016 186.175517 
Q 191.307245 186.175517 194.210725 186.110249 
Q 197.114205 186.044366 200.107023 185.903978 
L 200.107023 186.498779 
z
" clip-path="url(#p74330e897c)" style="fill: #0000ff"/>
   </g>
   <g id="patch_15">
    <path d="M 237.431438 192.181684 
Q 233.855421 192.210842 230.009216 192.225488 
Q 226.163012 192.24 222.062512 192.24 
Q 212.796655 192.24 207.38495 192.153192 
Q 201.973244 192.066384 201.973244 191.917932 
Q 201.973244 191.767749 207.48031 191.681606 
Q 212.995323 191.595464 222.586995 191.595464 
Q 226.282212 191.595464 229.667508 191.607181 
Q 233.060751 191.618764 236.064605 191.641664 
L 236.064605 191.770145 
Q 232.96539 191.740721 229.897963 191.726209 
Q 226.830535 191.711563 223.747214 191.711563 
Q 218.04148 191.711563 214.950212 191.765086 
Q 211.858944 191.818475 211.858944 191.917932 
Q 211.858944 192.016456 214.838958 192.070245 
Q 217.818972 192.123901 223.302198 192.123901 
Q 224.796179 192.123901 226.075598 192.120839 
Q 227.355017 192.117643 228.372195 192.110986 
L 228.372195 191.99036 
L 222.531368 191.99036 
L 222.531368 191.882916 
L 237.431438 191.882916 
L 237.431438 192.181684 
z
" clip-path="url(#p74330e897c)" style="fill: #ffa600"/>
   </g>
   <g id="patch_16">
    <path d="M 237.431438 191.548769 
Q 234.465421 191.571915 231.258192 191.583622 
Q 228.050964 191.595464 224.557853 191.595464 
Q 214.14106 191.595464 208.057152 191.507725 
Q 201.973244 191.419986 201.973244 191.269942 
Q 201.973244 191.119359 208.057152 191.031755 
Q 214.14106 190.944016 224.557853 190.944016 
Q 228.050964 190.944016 231.258192 190.955858 
Q 234.465421 190.967566 237.431438 190.990712 
L 237.431438 191.120571 
Q 234.43862 191.089889 231.53514 191.075625 
Q 228.63166 191.06136 225.424431 191.06136 
Q 219.671073 191.06136 216.374506 191.116937 
Q 213.086873 191.17238 213.086873 191.269942 
Q 213.086873 191.367101 216.374506 191.422678 
Q 219.671073 191.47812 225.424431 191.47812 
Q 228.63166 191.47812 231.53514 191.463856 
Q 234.43862 191.449457 237.431438 191.418775 
L 237.431438 191.548769 
z
" clip-path="url(#p74330e897c)" style="fill: #0000ff"/>
   </g>
   <g id="patch_17">
    <path d="M 201.973244 190.181978 
L 237.431438 190.181978 
L 237.431438 190.330597 
L 224.674734 190.330597 
L 224.674734 190.944016 
L 214.754686 190.944016 
L 214.754686 190.330597 
L 201.973244 190.330597 
L 201.973244 190.181978 
z
" clip-path="url(#p74330e897c)" style="fill: #ff0000"/>
   </g>
   <g id="patch_18">
    <path d="M 226.535166 189.995311 
L 212.898515 189.995311 
L 210.745359 190.181978 
L 201.973244 190.181978 
L 214.500694 189.157287 
L 224.903988 189.157287 
L 237.431438 190.181978 
L 228.666573 190.181978 
L 226.535166 189.995311 
z
M 215.073419 189.80513 
L 224.338513 189.80513 
L 219.713216 189.397538 
L 215.073419 189.80513 
z
" clip-path="url(#p74330e897c)" style="fill: #008000"/>
   </g>
   <g id="patch_19">
    <path d="M 274.755853 191.83056 
Q 271.789836 192.03351 268.582607 192.136165 
Q 265.375378 192.24 261.882268 192.24 
Q 251.465474 192.24 245.381567 191.470677 
Q 239.297659 190.701354 239.297659 189.385717 
Q 239.297659 188.06536 245.381567 187.297217 
Q 251.465474 186.527894 261.882268 186.527894 
Q 265.375378 186.527894 268.582607 186.631729 
Q 271.789836 186.734384 274.755853 186.937335 
L 274.755853 188.07598 
Q 271.763035 187.806953 268.859555 187.681879 
Q 265.956074 187.556805 262.748845 187.556805 
Q 256.995488 187.556805 253.698921 188.044121 
Q 250.411288 188.530258 250.411288 189.385717 
Q 250.411288 190.237636 253.698921 190.724953 
Q 256.995488 191.211089 262.748845 191.211089 
Q 265.956074 191.211089 268.859555 191.086015 
Q 271.763035 190.959761 274.755853 190.690734 
L 274.755853 191.83056 
z
" clip-path="url(#p74330e897c)" style="fill: #0000ff"/>
   </g>
   <g id="patch_20">
    <path d="M 263.859581 185.279213 
L 250.222929 185.279213 
L 248.069774 186.527894 
L 239.297659 186.527894 
L 251.825109 179.673367 
L 262.228403 179.673367 
L 274.755853 186.527894 
L 265.990987 186.527894 
L 263.859581 185.279213 
z
M 252.397834 184.007027 
L 261.662927 184.007027 
L 257.03763 181.280494 
L 252.397834 184.007027 
z
" clip-path="url(#p74330e897c)" style="fill: #008000"/>
   </g>
   <g id="patch_21">
    <path d="M 274.755853 178.995765 
Q 271.179836 179.334566 267.333631 179.50474 
Q 263.487426 179.673367 259.386927 179.673367 
Q 250.12107 179.673367 244.709364 178.664699 
Q 239.297659 177.656031 239.297659 175.931085 
Q 239.297659 174.186028 244.804725 173.185095 
Q 250.319738 172.184162 259.911409 172.184162 
Q 263.606627 172.184162 266.991923 172.320301 
Q 270.385166 172.454894 273.38902 172.720984 
L 273.38902 174.213874 
Q 270.289805 173.871979 267.222377 173.703352 
Q 264.154949 173.533178 261.071628 173.533178 
Q 255.365895 173.533178 252.274627 174.155087 
Q 249.183359 174.775449 249.183359 175.931085 
Q 249.183359 177.075893 252.163373 177.700895 
Q 255.143387 178.324351 260.626613 178.324351 
Q 262.120593 178.324351 263.400013 178.288769 
Q 264.679432 178.251641 265.69661 178.174289 
L 265.69661 176.772673 
L 259.855783 176.772673 
L 259.855783 175.524215 
L 274.755853 175.524215 
L 274.755853 178.995765 
z
" clip-path="url(#p74330e897c)" style="fill: #ffa600"/>
   </g>
   <g id="patch_22">
    <path d="M 239.297659 135.626685 
L 274.755853 135.626685 
L 274.755853 142.756412 
L 261.999149 142.756412 
L 261.999149 172.184162 
L 252.079101 172.184162 
L 252.079101 142.756412 
L 239.297659 142.756412 
L 239.297659 135.626685 
z
" clip-path="url(#p74330e897c)" style="fill: #ff0000"/>
   </g>
   <g id="patch_23">
    <path d="M 312.080268 191.871195 
Q 309.114251 192.054003 305.907022 192.14647 
Q 302.699793 192.24 299.206683 192.24 
Q 288.789889 192.24 282.705981 191.547028 
Q 276.622074 190.854057 276.622074 189.66899 
Q 276.622074 188.479672 282.705981 187.787763 
Q 288.789889 187.094792 299.206683 187.094792 
Q 302.699793 187.094792 305.907022 187.188322 
Q 309.114251 187.280789 312.080268 187.463597 
L 312.080268 188.489238 
Q 309.087449 188.24691 306.183969 188.134249 
Q 303.280489 188.021588 300.07326 188.021588 
Q 294.319902 188.021588 291.023336 188.460541 
Q 287.735703 188.898431 287.735703 189.66899 
Q 287.735703 190.436361 291.023336 190.875314 
Q 294.319902 191.313204 300.07326 191.313204 
Q 303.280489 191.313204 306.183969 191.200543 
Q 309.087449 191.086819 312.080268 190.844491 
L 312.080268 191.871195 
z
" clip-path="url(#p74330e897c)" style="fill: #0000ff"/>
   </g>
   <g id="patch_24">
    <path d="M 301.183996 186.077155 
L 287.547344 186.077155 
L 285.394189 187.094792 
L 276.622074 187.094792 
L 289.149524 181.508566 
L 299.552817 181.508566 
L 312.080268 187.094792 
L 303.315402 187.094792 
L 301.183996 186.077155 
z
M 289.722249 185.040363 
L 298.987342 185.040363 
L 294.362045 182.818324 
L 289.722249 185.040363 
z
" clip-path="url(#p74330e897c)" style="fill: #008000"/>
   </g>
   <g id="patch_25">
    <path d="M 276.622074 170.336114 
L 312.080268 170.336114 
L 312.080268 172.515053 
L 299.323564 172.515053 
L 299.323564 181.508566 
L 289.403516 181.508566 
L 289.403516 172.515053 
L 276.622074 172.515053 
L 276.622074 170.336114 
z
" clip-path="url(#p74330e897c)" style="fill: #ff0000"/>
   </g>
   <g id="patch_26">
    <path d="M 312.080268 166.385811 
Q 308.504251 168.360962 304.658046 169.353048 
Q 300.811841 170.336114 296.711342 170.336114 
Q 287.445485 170.336114 282.033779 164.455754 
Q 276.622074 158.575395 276.622074 148.519259 
Q 276.622074 138.345877 282.12914 132.510612 
Q 287.644152 126.675347 297.235824 126.675347 
Q 300.931042 126.675347 304.316338 127.469016 
Q 307.70958 128.253665 310.713434 129.804925 
L 310.713434 138.508218 
Q 307.61422 136.515029 304.546792 135.531962 
Q 301.479364 134.539877 298.396043 134.539877 
Q 292.690309 134.539877 289.599041 138.165498 
Q 286.507774 141.782099 286.507774 148.519259 
Q 286.507774 155.193287 289.487788 158.836945 
Q 292.467802 162.471584 297.951028 162.471584 
Q 299.445008 162.471584 300.724427 162.264148 
Q 302.003847 162.047693 303.021025 161.596745 
L 303.021025 153.425571 
L 297.180197 153.425571 
L 297.180197 146.147274 
L 312.080268 146.147274 
L 312.080268 166.385811 
z
" clip-path="url(#p74330e897c)" style="fill: #ffa600"/>
   </g>
   <g id="patch_27">
    <path d="M 349.404682 192.203386 
Q 346.438666 192.221535 343.231437 192.230715 
Q 340.024208 192.24 336.531098 192.24 
Q 326.114304 192.24 320.030396 192.171204 
Q 313.946488 192.102409 313.946488 191.984759 
Q 313.946488 191.866688 320.030396 191.797998 
Q 326.114304 191.729202 336.531098 191.729202 
Q 340.024208 191.729202 343.231437 191.738488 
Q 346.438666 191.747667 349.404682 191.765816 
L 349.404682 191.867638 
Q 346.411864 191.843581 343.508384 191.832396 
Q 340.604904 191.821211 337.397675 191.821211 
Q 331.644317 191.821211 328.34775 191.864789 
Q 325.060117 191.908261 325.060117 191.984759 
Q 325.060117 192.060941 328.34775 192.104519 
Q 331.644317 192.147991 337.397675 192.147991 
Q 340.604904 192.147991 343.508384 192.136806 
Q 346.411864 192.125516 349.404682 192.101459 
L 349.404682 192.203386 
z
" clip-path="url(#p74330e897c)" style="fill: #0000ff"/>
   </g>
   <g id="patch_28">
    <path d="M 338.50841 191.623605 
L 324.871759 191.623605 
L 322.718603 191.729202 
L 313.946488 191.729202 
L 326.473939 191.149533 
L 336.877232 191.149533 
L 349.404682 191.729202 
L 340.639817 191.729202 
L 338.50841 191.623605 
z
M 327.046663 191.516019 
L 336.311757 191.516019 
L 331.68646 191.285444 
L 327.046663 191.516019 
z
" clip-path="url(#p74330e897c)" style="fill: #008000"/>
   </g>
   <g id="patch_29">
    <path d="M 313.946488 190.500992 
L 349.404682 190.500992 
L 349.404682 190.627476 
L 336.647979 190.627476 
L 336.647979 191.149533 
L 326.72793 191.149533 
L 326.72793 190.627476 
L 313.946488 190.627476 
L 313.946488 190.500992 
z
" clip-path="url(#p74330e897c)" style="fill: #ff0000"/>
   </g>
   <g id="patch_30">
    <path d="M 349.404682 190.426736 
Q 345.828665 190.463864 341.982461 190.482513 
Q 338.136256 190.500992 334.035756 190.500992 
Q 324.769899 190.500992 319.358194 190.390455 
Q 313.946488 190.279918 313.946488 190.090887 
Q 313.946488 189.899651 319.453554 189.789962 
Q 324.968567 189.680272 334.560239 189.680272 
Q 338.255456 189.680272 341.640752 189.695192 
Q 345.033995 189.709941 348.037849 189.739101 
L 348.037849 189.902703 
Q 344.938635 189.865235 341.871207 189.846756 
Q 338.803779 189.828107 335.720458 189.828107 
Q 330.014724 189.828107 326.923456 189.89626 
Q 323.832188 189.964244 323.832188 190.090887 
Q 323.832188 190.216343 326.812202 190.284835 
Q 329.792216 190.353158 335.275442 190.353158 
Q 336.769423 190.353158 338.048842 190.349258 
Q 339.328261 190.345189 340.34544 190.336713 
L 340.34544 190.183114 
L 334.504612 190.183114 
L 334.504612 190.046299 
L 349.404682 190.046299 
L 349.404682 190.426736 
z
" clip-path="url(#p74330e897c)" style="fill: #ffa600"/>
   </g>
   <g id="patch_31">
    <path d="M 386.729097 192.074176 
Q 383.76308 192.156371 380.555851 192.197947 
Q 377.348622 192.24 373.855512 192.24 
Q 363.438719 192.24 357.354811 191.928423 
Q 351.270903 191.616846 351.270903 191.08401 
Q 351.270903 190.549264 357.354811 190.238164 
Q 363.438719 189.926587 373.855512 189.926587 
Q 377.348622 189.926587 380.555851 189.96864 
Q 383.76308 190.010216 386.729097 190.092411 
L 386.729097 190.553564 
Q 383.736279 190.444608 380.832799 190.393953 
Q 377.929318 190.343298 374.72209 190.343298 
Q 368.968732 190.343298 365.672165 190.540662 
Q 362.384532 190.737548 362.384532 191.08401 
Q 362.384532 191.429039 365.672165 191.626403 
Q 368.968732 191.823289 374.72209 191.823289 
Q 377.929318 191.823289 380.832799 191.772634 
Q 383.736279 191.721501 386.729097 191.612545 
L 386.729097 192.074176 
z
" clip-path="url(#p74330e897c)" style="fill: #0000ff"/>
   </g>
   <g id="patch_32">
    <path d="M 386.729097 189.70681 
Q 383.15308 189.816699 379.306875 189.871894 
Q 375.46067 189.926587 371.360171 189.926587 
Q 362.094314 189.926587 356.682609 189.599431 
Q 351.270903 189.272275 351.270903 188.712798 
Q 351.270903 188.146798 356.777969 187.822151 
Q 362.292982 187.497503 371.884654 187.497503 
Q 375.579871 187.497503 378.965167 187.541659 
Q 382.35841 187.585314 385.362264 187.671619 
L 385.362264 188.15583 
Q 382.263049 188.044938 379.195621 187.990245 
Q 376.128194 187.93505 373.044872 187.93505 
Q 367.339139 187.93505 364.247871 188.136762 
Q 361.156603 188.337973 361.156603 188.712798 
Q 361.156603 189.08411 364.136617 189.286826 
Q 367.116631 189.489041 372.599857 189.489041 
Q 374.093837 189.489041 375.373257 189.4775 
Q 376.652676 189.465458 377.669854 189.440369 
L 377.669854 188.985762 
L 371.829027 188.985762 
L 371.829027 188.580832 
L 386.729097 188.580832 
L 386.729097 189.70681 
z
" clip-path="url(#p74330e897c)" style="fill: #ffa600"/>
   </g>
   <g id="patch_33">
    <path d="M 375.832825 187.028661 
L 362.196174 187.028661 
L 360.043018 187.497503 
L 351.270903 187.497503 
L 363.798353 184.923832 
L 374.201647 184.923832 
L 386.729097 187.497503 
L 377.964232 187.497503 
L 375.832825 187.028661 
z
M 364.371078 186.550992 
L 373.636172 186.550992 
L 369.010875 185.52726 
L 364.371078 186.550992 
z
" clip-path="url(#p74330e897c)" style="fill: #008000"/>
   </g>
   <g id="patch_34">
    <path d="M 351.270903 179.342723 
L 386.729097 179.342723 
L 386.729097 180.431194 
L 373.972393 180.431194 
L 373.972393 184.923832 
L 364.052345 184.923832 
L 364.052345 180.431194 
L 351.270903 180.431194 
L 351.270903 179.342723 
z
" clip-path="url(#p74330e897c)" style="fill: #ff0000"/>
   </g>
   <g id="patch_35">
    <path d="M 424.053512 192.071299 
Q 420.477495 192.155649 416.63129 192.198017 
Q 412.785085 192.24 408.684586 192.24 
Q 399.418729 192.24 394.007023 191.988874 
Q 388.595318 191.737747 388.595318 191.308291 
Q 388.595318 190.873827 394.102384 190.624626 
Q 399.617396 190.375426 409.209068 190.375426 
Q 412.904286 190.375426 416.289582 190.40932 
Q 419.682824 190.44283 422.686679 190.509078 
L 422.686679 190.88076 
Q 419.587464 190.795639 416.520036 190.753656 
Q 413.452608 190.711288 410.369287 190.711288 
Q 404.663554 190.711288 401.572286 190.866124 
Q 398.481018 191.020574 398.481018 191.308291 
Q 398.481018 191.593311 401.461032 191.748917 
Q 404.441046 191.904138 409.924272 191.904138 
Q 411.418252 191.904138 412.697671 191.895279 
Q 413.977091 191.886035 414.994269 191.866777 
L 414.994269 191.517819 
L 409.153441 191.517819 
L 409.153441 191.206993 
L 424.053512 191.206993 
L 424.053512 192.071299 
z
" clip-path="url(#p74330e897c)" style="fill: #ffa600"/>
   </g>
   <g id="patch_36">
    <path d="M 413.15724 189.492291 
L 399.520588 189.492291 
L 397.367433 190.375426 
L 388.595318 190.375426 
L 401.122768 185.527534 
L 411.526061 185.527534 
L 424.053512 190.375426 
L 415.288646 190.375426 
L 413.15724 189.492291 
z
M 401.695493 188.592532 
L 410.960586 188.592532 
L 406.335289 186.66418 
L 401.695493 188.592532 
z
" clip-path="url(#p74330e897c)" style="fill: #008000"/>
   </g>
   <g id="patch_37">
    <path d="M 424.053512 185.046388 
Q 421.087495 185.284881 417.880266 185.405514 
Q 414.673037 185.527534 411.179927 185.527534 
Q 400.763133 185.527534 394.679226 184.623479 
Q 388.595318 183.719425 388.595318 182.17338 
Q 388.595318 180.62179 394.679226 179.719122 
Q 400.763133 178.815067 411.179927 178.815067 
Q 414.673037 178.815067 417.880266 178.937087 
Q 421.087495 179.05772 424.053512 179.296213 
L 424.053512 180.634269 
Q 421.060694 180.318127 418.157213 180.171149 
Q 415.253733 180.024171 412.046504 180.024171 
Q 406.293146 180.024171 402.99658 180.596831 
Q 399.708947 181.168105 399.708947 182.17338 
Q 399.708947 183.174496 402.99658 183.747156 
Q 406.293146 184.31843 412.046504 184.31843 
Q 415.253733 184.31843 418.157213 184.171452 
Q 421.060694 184.023087 424.053512 183.706945 
L 424.053512 185.046388 
z
" clip-path="url(#p74330e897c)" style="fill: #0000ff"/>
   </g>
   <g id="patch_38">
    <path d="M 388.595318 25.92 
L 424.053512 25.92 
L 424.053512 55.738798 
L 411.296808 55.738798 
L 411.296808 178.815067 
L 401.37676 178.815067 
L 401.37676 55.738798 
L 388.595318 55.738798 
L 388.595318 25.92 
z
" clip-path="url(#p74330e897c)" style="fill: #ff0000"/>
   </g>
   <g id="patch_39">
    <path d="M 450.481655 192.002475 
L 436.845003 192.002475 
L 434.691847 192.24 
L 425.919732 192.24 
L 438.447183 190.936126 
L 448.850476 190.936126 
L 461.377926 192.24 
L 452.613061 192.24 
L 450.481655 192.002475 
z
M 439.019908 191.760478 
L 448.285001 191.760478 
L 443.659704 191.241835 
L 439.019908 191.760478 
z
" clip-path="url(#p74330e897c)" style="fill: #008000"/>
   </g>
   <g id="patch_40">
    <path d="M 461.377926 190.722501 
Q 458.41191 190.82839 455.204681 190.88195 
Q 451.997452 190.936126 448.504342 190.936126 
Q 438.087548 190.936126 432.00364 190.534733 
Q 425.919732 190.133339 425.919732 189.446908 
Q 425.919732 188.758013 432.00364 188.357236 
Q 438.087548 187.955842 448.504342 187.955842 
Q 451.997452 187.955842 455.204681 188.010018 
Q 458.41191 188.063578 461.377926 188.169467 
L 461.377926 188.763554 
Q 458.385108 188.62319 455.481628 188.557932 
Q 452.578148 188.492675 449.370919 188.492675 
Q 443.617561 188.492675 440.320994 188.746932 
Q 437.033361 189.000573 437.033361 189.446908 
Q 437.033361 189.891395 440.320994 190.145652 
Q 443.617561 190.399293 449.370919 190.399293 
Q 452.578148 190.399293 455.481628 190.334036 
Q 458.385108 190.268163 461.377926 190.127799 
L 461.377926 190.722501 
z
" clip-path="url(#p74330e897c)" style="fill: #0000ff"/>
   </g>
   <g id="patch_41">
    <path d="M 461.377926 185.090836 
Q 457.80191 186.523339 453.955705 187.242861 
Q 450.1095 187.955842 446.009001 187.955842 
Q 436.743144 187.955842 431.331438 183.691039 
Q 425.919732 179.426235 425.919732 172.132898 
Q 425.919732 164.754526 431.426798 160.522428 
Q 436.941811 156.29033 446.533483 156.29033 
Q 450.2287 156.29033 453.613996 156.865948 
Q 457.007239 157.435024 460.011093 158.560095 
L 460.011093 164.872266 
Q 456.911879 163.426681 453.844451 162.7137 
Q 450.777023 161.994178 447.693702 161.994178 
Q 441.987968 161.994178 438.8967 164.623704 
Q 435.805432 167.246689 435.805432 172.132898 
Q 435.805432 176.973319 438.785446 179.615928 
Q 441.765461 182.251995 447.248686 182.251995 
Q 448.742667 182.251995 450.022086 182.101549 
Q 451.301506 181.944563 452.318684 181.617507 
L 452.318684 175.691262 
L 446.477856 175.691262 
L 446.477856 170.412586 
L 461.377926 170.412586 
L 461.377926 185.090836 
z
" clip-path="url(#p74330e897c)" style="fill: #ffa600"/>
   </g>
   <g id="patch_42">
    <path d="M 425.919732 109.164597 
L 461.377926 109.164597 
L 461.377926 118.355428 
L 448.621223 118.355428 
L 448.621223 156.29033 
L 438.701174 156.29033 
L 438.701174 118.355428 
L 425.919732 118.355428 
L 425.919732 109.164597 
z
" clip-path="url(#p74330e897c)" style="fill: #ff0000"/>
   </g>
   <g id="patch_43">
    <path d="M 487.806069 191.444252 
L 474.169418 191.444252 
L 472.016262 192.24 
L 463.244147 192.24 
L 475.771597 187.871809 
L 486.174891 187.871809 
L 498.702341 192.24 
L 489.937476 192.24 
L 487.806069 191.444252 
z
M 476.344322 190.633524 
L 485.609416 190.633524 
L 480.984119 188.895984 
L 476.344322 190.633524 
z
" clip-path="url(#p74330e897c)" style="fill: #008000"/>
   </g>
   <g id="patch_44">
    <path d="M 498.702341 187.363006 
Q 495.736324 187.615208 492.529095 187.742775 
Q 489.321867 187.871809 485.828756 187.871809 
Q 475.411963 187.871809 469.328055 186.915788 
Q 463.244147 185.959767 463.244147 184.324853 
Q 463.244147 182.684075 469.328055 181.72952 
Q 475.411963 180.773499 485.828756 180.773499 
Q 489.321867 180.773499 492.529095 180.902532 
Q 495.736324 181.030099 498.702341 181.282301 
L 498.702341 182.697271 
Q 495.709523 182.362957 492.806043 182.20753 
Q 489.902563 182.052104 486.695334 182.052104 
Q 480.941976 182.052104 477.645409 182.657681 
Q 474.357776 183.261793 474.357776 184.324853 
Q 474.357776 185.383515 477.645409 185.989092 
Q 480.941976 186.593204 486.695334 186.593204 
Q 489.902563 186.593204 492.806043 186.437777 
Q 495.709523 186.280884 498.702341 185.94657 
L 498.702341 187.363006 
z
" clip-path="url(#p74330e897c)" style="fill: #0000ff"/>
   </g>
   <g id="patch_45">
    <path d="M 463.244147 171.081575 
L 498.702341 171.081575 
L 498.702341 172.97177 
L 485.945637 172.97177 
L 485.945637 180.773499 
L 476.025589 180.773499 
L 476.025589 172.97177 
L 463.244147 172.97177 
L 463.244147 171.081575 
z
" clip-path="url(#p74330e897c)" style="fill: #ff0000"/>
   </g>
   <g id="patch_46">
    <path d="M 498.702341 167.487529 
Q 495.126324 169.284552 491.280119 170.187166 
Q 487.433915 171.081575 483.333415 171.081575 
Q 474.067558 171.081575 468.655853 165.731533 
Q 463.244147 160.381492 463.244147 151.232265 
Q 463.244147 141.976365 468.751213 136.667351 
Q 474.266226 131.358338 483.857898 131.358338 
Q 487.553115 131.358338 490.938411 132.080429 
Q 494.331654 132.794315 497.335508 134.205676 
L 497.335508 142.124065 
Q 494.236293 140.310631 491.168866 139.416222 
Q 488.101438 138.513608 485.018117 138.513608 
Q 479.312383 138.513608 476.221115 141.812253 
Q 473.129847 145.102693 473.129847 151.232265 
Q 473.129847 157.304398 476.109861 160.619454 
Q 479.089875 163.926305 484.573101 163.926305 
Q 486.067082 163.926305 487.346501 163.737576 
Q 488.62592 163.540642 489.643098 163.130363 
L 489.643098 155.696103 
L 483.802271 155.696103 
L 483.802271 149.074196 
L 498.702341 149.074196 
L 498.702341 167.487529 
z
" clip-path="url(#p74330e897c)" style="fill: #ffa600"/>
   </g>
   <g id="patch_47">
    <path d="M 500.568562 188.050404 
L 536.026756 188.050404 
L 536.026756 188.867492 
L 523.270052 188.867492 
L 523.270052 192.24 
L 513.350004 192.24 
L 513.350004 188.867492 
L 500.568562 188.867492 
L 500.568562 188.050404 
z
" clip-path="url(#p74330e897c)" style="fill: #ff0000"/>
   </g>
   <g id="patch_48">
    <path d="M 536.026756 187.733412 
Q 533.060739 187.890538 529.85351 187.970014 
Q 526.646281 188.050404 523.153171 188.050404 
Q 512.736377 188.050404 506.65247 187.454789 
Q 500.568562 186.859173 500.568562 185.840598 
Q 500.568562 184.818369 506.65247 184.223667 
Q 512.736377 183.628052 523.153171 183.628052 
Q 526.646281 183.628052 529.85351 183.708442 
Q 533.060739 183.787918 536.026756 183.945044 
L 536.026756 184.826591 
Q 533.033938 184.618308 530.130458 184.521475 
Q 527.226977 184.424642 524.019748 184.424642 
Q 518.266391 184.424642 514.969824 184.801926 
Q 511.682191 185.178296 511.682191 185.840598 
Q 511.682191 186.50016 514.969824 186.877444 
Q 518.266391 187.253814 524.019748 187.253814 
Q 527.226977 187.253814 530.130458 187.156981 
Q 533.033938 187.059234 536.026756 186.850952 
L 536.026756 187.733412 
z
" clip-path="url(#p74330e897c)" style="fill: #0000ff"/>
   </g>
   <g id="patch_49">
    <path d="M 525.130484 182.341895 
L 511.493832 182.341895 
L 509.340677 183.628052 
L 500.568562 183.628052 
L 513.096012 176.567807 
L 523.499306 176.567807 
L 536.026756 183.628052 
L 527.26189 183.628052 
L 525.130484 182.341895 
z
M 513.668737 181.031528 
L 522.93383 181.031528 
L 518.308533 178.223166 
L 513.668737 181.031528 
z
" clip-path="url(#p74330e897c)" style="fill: #008000"/>
   </g>
   <g id="patch_50">
    <path d="M 536.026756 174.855004 
Q 532.450739 175.711405 528.604534 176.141561 
Q 524.758329 176.567807 520.65783 176.567807 
Q 511.391973 176.567807 505.980267 174.018155 
Q 500.568562 171.468504 500.568562 167.108288 
Q 500.568562 162.697235 506.075628 160.167137 
Q 511.590641 157.637038 521.182312 157.637038 
Q 524.87753 157.637038 528.262826 157.981163 
Q 531.656069 158.321377 534.659923 158.993984 
L 534.659923 162.767624 
Q 531.560708 161.903402 528.49328 161.477157 
Q 525.425852 161.047001 522.342531 161.047001 
Q 516.636798 161.047001 513.54553 162.619025 
Q 510.454262 164.187139 510.454262 167.108288 
Q 510.454262 170.002064 513.434276 171.581909 
Q 516.41429 173.157844 521.897516 173.157844 
Q 523.391496 173.157844 524.670916 173.067902 
Q 525.950335 172.97405 526.967513 172.778524 
L 526.967513 169.235604 
L 521.126686 169.235604 
L 521.126686 166.079825 
L 536.026756 166.079825 
L 536.026756 174.855004 
z
" clip-path="url(#p74330e897c)" style="fill: #ffa600"/>
   </g>
   <g id="patch_51">
    <path d="M 573.351171 191.744179 
Q 569.775154 191.99209 565.928949 192.116611 
Q 562.082744 192.24 557.982245 192.24 
Q 548.716388 192.24 543.304682 191.501929 
Q 537.892977 190.763857 537.892977 189.501665 
Q 537.892977 188.224756 543.400043 187.492345 
Q 548.915055 186.759934 558.506727 186.759934 
Q 562.201945 186.759934 565.587241 186.859551 
Q 568.980483 186.958036 571.984337 187.152742 
L 571.984337 188.245133 
Q 568.885123 187.994958 565.817695 187.871569 
Q 562.750267 187.747048 559.666946 187.747048 
Q 553.961212 187.747048 550.869944 188.202116 
Q 547.778677 188.656053 547.778677 189.501665 
Q 547.778677 190.339353 550.758691 190.796686 
Q 553.738705 191.252886 559.221931 191.252886 
Q 560.715911 191.252886 561.99533 191.22685 
Q 563.27475 191.199682 564.291928 191.143081 
L 564.291928 190.117479 
L 558.4511 190.117479 
L 558.4511 189.203946 
L 573.351171 189.203946 
L 573.351171 191.744179 
z
" clip-path="url(#p74330e897c)" style="fill: #ffa600"/>
   </g>
   <g id="patch_52">
    <path d="M 573.351171 186.29914 
Q 570.385154 186.527545 567.177925 186.643076 
Q 563.970696 186.759934 560.477586 186.759934 
Q 550.060792 186.759934 543.976884 185.89412 
Q 537.892977 185.028305 537.892977 183.547657 
Q 537.892977 182.061696 543.976884 181.19721 
Q 550.060792 180.331395 560.477586 180.331395 
Q 563.970696 180.331395 567.177925 180.448254 
Q 570.385154 180.563784 573.351171 180.792189 
L 573.351171 182.073647 
Q 570.358352 181.770878 567.454872 181.630117 
Q 564.551392 181.489356 561.344163 181.489356 
Q 555.590805 181.489356 552.294239 182.037793 
Q 549.006606 182.584903 549.006606 183.547657 
Q 549.006606 184.506426 552.294239 185.054864 
Q 555.590805 185.601974 561.344163 185.601974 
Q 564.551392 185.601974 567.454872 185.461213 
Q 570.358352 185.319123 573.351171 185.016354 
L 573.351171 186.29914 
z
" clip-path="url(#p74330e897c)" style="fill: #0000ff"/>
   </g>
   <g id="patch_53">
    <path d="M 537.892977 173.902856 
L 573.351171 173.902856 
L 573.351171 175.156601 
L 560.594467 175.156601 
L 560.594467 180.331395 
L 550.674419 180.331395 
L 550.674419 175.156601 
L 537.892977 175.156601 
L 537.892977 173.902856 
z
" clip-path="url(#p74330e897c)" style="fill: #ff0000"/>
   </g>
   <g id="patch_54">
    <path d="M 562.454899 168.680993 
L 548.818247 168.680993 
L 546.665092 173.902856 
L 537.892977 173.902856 
L 550.420427 145.237896 
L 560.82372 145.237896 
L 573.351171 173.902856 
L 564.586305 173.902856 
L 562.454899 168.680993 
z
M 550.993152 163.360835 
L 560.258245 163.360835 
L 555.632948 151.958742 
L 550.993152 163.360835 
z
" clip-path="url(#p74330e897c)" style="fill: #008000"/>
   </g>
   <g id="patch_55">
    <path d="M 610.675585 192.211839 
Q 607.099568 192.225919 603.253364 192.232992 
Q 599.407159 192.24 595.306659 192.24 
Q 586.040802 192.24 580.629097 192.19808 
Q 575.217391 192.156159 575.217391 192.08447 
Q 575.217391 192.011945 580.724457 191.970346 
Q 586.23947 191.928747 595.831142 191.928747 
Q 599.526359 191.928747 602.911655 191.934405 
Q 606.304898 191.939998 609.308752 191.951057 
L 609.308752 192.013102 
Q 606.209538 191.998893 603.14211 191.991885 
Q 600.074682 191.984812 596.991361 191.984812 
Q 591.285627 191.984812 588.194359 192.010659 
Q 585.103091 192.036441 585.103091 192.08447 
Q 585.103091 192.132048 588.083105 192.158024 
Q 591.063119 192.183935 596.546345 192.183935 
Q 598.040326 192.183935 599.319745 192.182456 
Q 600.599164 192.180913 601.616343 192.177698 
L 601.616343 192.119446 
L 595.775515 192.119446 
L 595.775515 192.06756 
L 610.675585 192.06756 
L 610.675585 192.211839 
z
" clip-path="url(#p74330e897c)" style="fill: #ffa600"/>
   </g>
   <g id="patch_56">
    <path d="M 599.779313 191.871473 
L 586.142662 191.871473 
L 583.989506 191.928747 
L 575.217391 191.928747 
L 587.744842 191.61435 
L 598.148135 191.61435 
L 610.675585 191.928747 
L 601.91072 191.928747 
L 599.779313 191.871473 
z
M 588.317566 191.813122 
L 597.58266 191.813122 
L 592.957363 191.688064 
L 588.317566 191.813122 
z
" clip-path="url(#p74330e897c)" style="fill: #008000"/>
   </g>
   <g id="patch_57">
    <path d="M 610.675585 191.589335 
Q 607.709569 191.601734 604.50234 191.608006 
Q 601.295111 191.61435 597.802001 191.61435 
Q 587.385207 191.61435 581.301299 191.567348 
Q 575.217391 191.520346 575.217391 191.439967 
Q 575.217391 191.3593 581.301299 191.31237 
Q 587.385207 191.265369 597.802001 191.265369 
Q 601.295111 191.265369 604.50234 191.271712 
Q 607.709569 191.277984 610.675585 191.290383 
L 610.675585 191.359949 
Q 607.682767 191.343513 604.779287 191.335871 
Q 601.875807 191.32823 598.668578 191.32823 
Q 592.91522 191.32823 589.618653 191.358002 
Q 586.33102 191.387703 586.33102 191.439967 
Q 586.33102 191.492015 589.618653 191.521788 
Q 592.91522 191.551488 598.668578 191.551488 
Q 601.875807 191.551488 604.779287 191.543847 
Q 607.682767 191.536133 610.675585 191.519697 
L 610.675585 191.589335 
z
" clip-path="url(#p74330e897c)" style="fill: #0000ff"/>
   </g>
   <g id="patch_58">
    <path d="M 575.217391 190.837788 
L 610.675585 190.837788 
L 610.675585 190.921178 
L 597.918882 190.921178 
L 597.918882 191.265369 
L 587.998833 191.265369 
L 587.998833 190.921178 
L 575.217391 190.921178 
L 575.217391 190.837788 
z
" clip-path="url(#p74330e897c)" style="fill: #ff0000"/>
   </g>
   <g id="patch_59">
    <path d="M 648 192.139582 
Q 645.033983 192.189357 641.826754 192.214534 
Q 638.619525 192.24 635.126415 192.24 
Q 624.709622 192.24 618.625714 192.051318 
Q 612.541806 191.862636 612.541806 191.539967 
Q 612.541806 191.21614 618.625714 191.027748 
Q 624.709622 190.839066 635.126415 190.839066 
Q 638.619525 190.839066 641.826754 190.864532 
Q 645.033983 190.889709 648 190.939484 
L 648 191.218745 
Q 645.007182 191.152764 642.103702 191.122089 
Q 639.200221 191.091413 635.992993 191.091413 
Q 630.239635 191.091413 626.943068 191.210931 
Q 623.655435 191.33016 623.655435 191.539967 
Q 623.655435 191.748906 626.943068 191.868424 
Q 630.239635 191.987652 635.992993 191.987652 
Q 639.200221 191.987652 642.103702 191.956977 
Q 645.007182 191.926012 648 191.860032 
L 648 192.139582 
z
" clip-path="url(#p74330e897c)" style="fill: #0000ff"/>
   </g>
   <g id="patch_60">
    <path d="M 648 190.695184 
Q 644.423983 190.767125 640.577778 190.80326 
Q 636.731573 190.839066 632.631074 190.839066 
Q 623.365217 190.839066 617.953512 190.624886 
Q 612.541806 190.410707 612.541806 190.044434 
Q 612.541806 189.67389 618.048872 189.461353 
Q 623.563885 189.248816 633.155557 189.248816 
Q 636.850774 189.248816 640.23607 189.277724 
Q 643.629313 189.306303 646.633167 189.362804 
L 646.633167 189.679803 
Q 643.533952 189.607205 640.466524 189.571399 
Q 637.399097 189.535265 634.315775 189.535265 
Q 628.610042 189.535265 625.518774 189.66732 
Q 622.427506 189.799047 622.427506 190.044434 
Q 622.427506 190.287521 625.40752 190.420233 
Q 628.387534 190.552617 633.87076 190.552617 
Q 635.36474 190.552617 636.64416 190.545062 
Q 637.923579 190.537178 638.940757 190.520753 
L 638.940757 190.223135 
L 633.09993 190.223135 
L 633.09993 189.958039 
L 648 189.958039 
L 648 190.695184 
z
" clip-path="url(#p74330e897c)" style="fill: #ffa600"/>
   </g>
   <g id="patch_61">
    <path d="M 637.103728 188.831519 
L 623.467077 188.831519 
L 621.313921 189.248816 
L 612.541806 189.248816 
L 625.069256 186.958099 
L 635.47255 186.958099 
L 648 189.248816 
L 639.235135 189.248816 
L 637.103728 188.831519 
z
M 625.641981 188.406366 
L 634.907075 188.406366 
L 630.281778 187.495185 
L 625.641981 188.406366 
z
" clip-path="url(#p74330e897c)" style="fill: #008000"/>
   </g>
   <g id="patch_62">
    <path d="M 612.541806 183.796531 
L 648 183.796531 
L 648 184.413125 
L 635.243296 184.413125 
L 635.243296 186.958099 
L 625.323248 186.958099 
L 625.323248 184.413125 
L 612.541806 184.413125 
L 612.541806 183.796531 
z
" clip-path="url(#p74330e897c)" style="fill: #ff0000"/>
   </g>
   <g id="matplotlib.axis_1">
    <g id="xtick_1">
     <g id="line2d_2">
      <defs>
       <path id="m9b3718c069" d="M 0 0 
L 0 3.5 
" style="stroke: #000000; stroke-width: 0.8"/>
      </defs>
      <g>
       <use xlink:href="#m9b3718c069" x="107.729097" y="192.24" style="stroke: #000000; stroke-width: 0.8"/>
      </g>
     </g>
     <g id="text_1">
      <!-- 0 -->
      <g transform="translate(104.547847 206.838437) scale(0.1 -0.1)">
       <defs>
        <path id="DejaVuSans-30" d="M 2034 4250 
Q 1547 4250 1301 3770 
Q 1056 3291 1056 2328 
Q 1056 1369 1301 889 
Q 1547 409 2034 409 
Q 2525 409 2770 889 
Q 3016 1369 3016 2328 
Q 3016 3291 2770 3770 
Q 2525 4250 2034 4250 
z
M 2034 4750 
Q 2819 4750 3233 4129 
Q 3647 3509 3647 2328 
Q 3647 1150 3233 529 
Q 2819 -91 2034 -91 
Q 1250 -91 836 529 
Q 422 1150 422 2328 
Q 422 3509 836 4129 
Q 1250 4750 2034 4750 
z
" transform="scale(0.015625)"/>
       </defs>
       <use xlink:href="#DejaVuSans-30"/>
      </g>
     </g>
    </g>
    <g id="xtick_2">
     <g id="line2d_3">
      <g>
       <use xlink:href="#m9b3718c069" x="182.377926" y="192.24" style="stroke: #000000; stroke-width: 0.8"/>
      </g>
     </g>
     <g id="text_2">
      <!-- 2 -->
      <g transform="translate(179.196676 206.838437) scale(0.1 -0.1)">
       <defs>
        <path id="DejaVuSans-32" d="M 1228 531 
L 3431 531 
L 3431 0 
L 469 0 
L 469 531 
Q 828 903 1448 1529 
Q 2069 2156 2228 2338 
Q 2531 2678 2651 2914 
Q 2772 3150 2772 3378 
Q 2772 3750 2511 3984 
Q 2250 4219 1831 4219 
Q 1534 4219 1204 4116 
Q 875 4013 500 3803 
L 500 4441 
Q 881 4594 1212 4672 
Q 1544 4750 1819 4750 
Q 2544 4750 2975 4387 
Q 3406 4025 3406 3419 
Q 3406 3131 3298 2873 
Q 3191 2616 2906 2266 
Q 2828 2175 2409 1742 
Q 1991 1309 1228 531 
z
" transform="scale(0.015625)"/>
       </defs>
       <use xlink:href="#DejaVuSans-32"/>
      </g>
     </g>
    </g>
    <g id="xtick_3">
     <g id="line2d_4">
      <g>
       <use xlink:href="#m9b3718c069" x="257.026756" y="192.24" style="stroke: #000000; stroke-width: 0.8"/>
      </g>
     </g>
     <g id="text_3">
      <!-- 4 -->
      <g transform="translate(253.845506 206.838437) scale(0.1 -0.1)">
       <defs>
        <path id="DejaVuSans-34" d="M 2419 4116 
L 825 1625 
L 2419 1625 
L 2419 4116 
z
M 2253 4666 
L 3047 4666 
L 3047 1625 
L 3713 1625 
L 3713 1100 
L 3047 1100 
L 3047 0 
L 2419 0 
L 2419 1100 
L 313 1100 
L 313 1709 
L 2253 4666 
z
" transform="scale(0.015625)"/>
       </defs>
       <use xlink:href="#DejaVuSans-34"/>
      </g>
     </g>
    </g>
    <g id="xtick_4">
     <g id="line2d_5">
      <g>
       <use xlink:href="#m9b3718c069" x="331.675585" y="192.24" style="stroke: #000000; stroke-width: 0.8"/>
      </g>
     </g>
     <g id="text_4">
      <!-- 6 -->
      <g transform="translate(328.494335 206.838437) scale(0.1 -0.1)">
       <defs>
        <path id="DejaVuSans-36" d="M 2113 2584 
Q 1688 2584 1439 2293 
Q 1191 2003 1191 1497 
Q 1191 994 1439 701 
Q 1688 409 2113 409 
Q 2538 409 2786 701 
Q 3034 994 3034 1497 
Q 3034 2003 2786 2293 
Q 2538 2584 2113 2584 
z
M 3366 4563 
L 3366 3988 
Q 3128 4100 2886 4159 
Q 2644 4219 2406 4219 
Q 1781 4219 1451 3797 
Q 1122 3375 1075 2522 
Q 1259 2794 1537 2939 
Q 1816 3084 2150 3084 
Q 2853 3084 3261 2657 
Q 3669 2231 3669 1497 
Q 3669 778 3244 343 
Q 2819 -91 2113 -91 
Q 1303 -91 875 529 
Q 447 1150 447 2328 
Q 447 3434 972 4092 
Q 1497 4750 2381 4750 
Q 2619 4750 2861 4703 
Q 3103 4656 3366 4563 
z
" transform="scale(0.015625)"/>
       </defs>
       <use xlink:href="#DejaVuSans-36"/>
      </g>
     </g>
    </g>
    <g id="xtick_5">
     <g id="line2d_6">
      <g>
       <use xlink:href="#m9b3718c069" x="406.324415" y="192.24" style="stroke: #000000; stroke-width: 0.8"/>
      </g>
     </g>
     <g id="text_5">
      <!-- 8 -->
      <g transform="translate(403.143165 206.838437) scale(0.1 -0.1)">
       <defs>
        <path id="DejaVuSans-38" d="M 2034 2216 
Q 1584 2216 1326 1975 
Q 1069 1734 1069 1313 
Q 1069 891 1326 650 
Q 1584 409 2034 409 
Q 2484 409 2743 651 
Q 3003 894 3003 1313 
Q 3003 1734 2745 1975 
Q 2488 2216 2034 2216 
z
M 1403 2484 
Q 997 2584 770 2862 
Q 544 3141 544 3541 
Q 544 4100 942 4425 
Q 1341 4750 2034 4750 
Q 2731 4750 3128 4425 
Q 3525 4100 3525 3541 
Q 3525 3141 3298 2862 
Q 3072 2584 2669 2484 
Q 3125 2378 3379 2068 
Q 3634 1759 3634 1313 
Q 3634 634 3220 271 
Q 2806 -91 2034 -91 
Q 1263 -91 848 271 
Q 434 634 434 1313 
Q 434 1759 690 2068 
Q 947 2378 1403 2484 
z
M 1172 3481 
Q 1172 3119 1398 2916 
Q 1625 2713 2034 2713 
Q 2441 2713 2670 2916 
Q 2900 3119 2900 3481 
Q 2900 3844 2670 4047 
Q 2441 4250 2034 4250 
Q 1625 4250 1398 4047 
Q 1172 3844 1172 3481 
z
" transform="scale(0.015625)"/>
       </defs>
       <use xlink:href="#DejaVuSans-38"/>
      </g>
     </g>
    </g>
    <g id="xtick_6">
     <g id="line2d_7">
      <g>
       <use xlink:href="#m9b3718c069" x="480.973244" y="192.24" style="stroke: #000000; stroke-width: 0.8"/>
      </g>
     </g>
     <g id="text_6">
      <!-- 10 -->
      <g transform="translate(474.610744 206.838437) scale(0.1 -0.1)">
       <defs>
        <path id="DejaVuSans-31" d="M 794 531 
L 1825 531 
L 1825 4091 
L 703 3866 
L 703 4441 
L 1819 4666 
L 2450 4666 
L 2450 531 
L 3481 531 
L 3481 0 
L 794 0 
L 794 531 
z
" transform="scale(0.015625)"/>
       </defs>
       <use xlink:href="#DejaVuSans-31"/>
       <use xlink:href="#DejaVuSans-30" x="63.623047"/>
      </g>
     </g>
    </g>
    <g id="xtick_7">
     <g id="line2d_8">
      <g>
       <use xlink:href="#m9b3718c069" x="555.622074" y="192.24" style="stroke: #000000; stroke-width: 0.8"/>
      </g>
     </g>
     <g id="text_7">
      <!-- 12 -->
      <g transform="translate(549.259574 206.838437) scale(0.1 -0.1)">
       <use xlink:href="#DejaVuSans-31"/>
       <use xlink:href="#DejaVuSans-32" x="63.623047"/>
      </g>
     </g>
    </g>
    <g id="xtick_8">
     <g id="line2d_9">
      <g>
       <use xlink:href="#m9b3718c069" x="630.270903" y="192.24" style="stroke: #000000; stroke-width: 0.8"/>
      </g>
     </g>
     <g id="text_8">
      <!-- 14 -->
      <g transform="translate(623.908403 206.838437) scale(0.1 -0.1)">
       <use xlink:href="#DejaVuSans-31"/>
       <use xlink:href="#DejaVuSans-34" x="63.623047"/>
      </g>
     </g>
    </g>
   </g>
   <g id="matplotlib.axis_2">
    <g id="ytick_1">
     <g id="line2d_10">
      <defs>
       <path id="m5790f66f1b" d="M 0 0 
L -3.5 0 
" style="stroke: #000000; stroke-width: 0.8"/>
      </defs>
      <g>
       <use xlink:href="#m5790f66f1b" x="90" y="192.24" style="stroke: #000000; stroke-width: 0.8"/>
      </g>
     </g>
     <g id="text_9">
      <!-- 0.0 -->
      <g transform="translate(67.096875 196.039219) scale(0.1 -0.1)">
       <defs>
        <path id="DejaVuSans-2e" d="M 684 794 
L 1344 794 
L 1344 0 
L 684 0 
L 684 794 
z
" transform="scale(0.015625)"/>
       </defs>
       <use xlink:href="#DejaVuSans-30"/>
       <use xlink:href="#DejaVuSans-2e" x="63.623047"/>
       <use xlink:href="#DejaVuSans-30" x="95.410156"/>
      </g>
     </g>
    </g>
    <g id="ytick_2">
     <g id="line2d_11">
      <g>
       <use xlink:href="#m5790f66f1b" x="90" y="169.767031" style="stroke: #000000; stroke-width: 0.8"/>
      </g>
     </g>
     <g id="text_10">
      <!-- 0.2 -->
      <g transform="translate(67.096875 173.566249) scale(0.1 -0.1)">
       <use xlink:href="#DejaVuSans-30"/>
       <use xlink:href="#DejaVuSans-2e" x="63.623047"/>
       <use xlink:href="#DejaVuSans-32" x="95.410156"/>
      </g>
     </g>
    </g>
    <g id="ytick_3">
     <g id="line2d_12">
      <g>
       <use xlink:href="#m5790f66f1b" x="90" y="147.294061" style="stroke: #000000; stroke-width: 0.8"/>
      </g>
     </g>
     <g id="text_11">
      <!-- 0.4 -->
      <g transform="translate(67.096875 151.09328) scale(0.1 -0.1)">
       <use xlink:href="#DejaVuSans-30"/>
       <use xlink:href="#DejaVuSans-2e" x="63.623047"/>
       <use xlink:href="#DejaVuSans-34" x="95.410156"/>
      </g>
     </g>
    </g>
    <g id="ytick_4">
     <g id="line2d_13">
      <g>
       <use xlink:href="#m5790f66f1b" x="90" y="124.821092" style="stroke: #000000; stroke-width: 0.8"/>
      </g>
     </g>
     <g id="text_12">
      <!-- 0.6 -->
      <g transform="translate(67.096875 128.620311) scale(0.1 -0.1)">
       <use xlink:href="#DejaVuSans-30"/>
       <use xlink:href="#DejaVuSans-2e" x="63.623047"/>
       <use xlink:href="#DejaVuSans-36" x="95.410156"/>
      </g>
     </g>
    </g>
    <g id="ytick_5">
     <g id="line2d_14">
      <g>
       <use xlink:href="#m5790f66f1b" x="90" y="102.348123" style="stroke: #000000; stroke-width: 0.8"/>
      </g>
     </g>
     <g id="text_13">
      <!-- 0.8 -->
      <g transform="translate(67.096875 106.147342) scale(0.1 -0.1)">
       <use xlink:href="#DejaVuSans-30"/>
       <use xlink:href="#DejaVuSans-2e" x="63.623047"/>
       <use xlink:href="#DejaVuSans-38" x="95.410156"/>
      </g>
     </g>
    </g>
    <g id="ytick_6">
     <g id="line2d_15">
      <g>
       <use xlink:href="#m5790f66f1b" x="90" y="79.875154" style="stroke: #000000; stroke-width: 0.8"/>
      </g>
     </g>
     <g id="text_14">
      <!-- 1.0 -->
      <g transform="translate(67.096875 83.674372) scale(0.1 -0.1)">
       <use xlink:href="#DejaVuSans-31"/>
       <use xlink:href="#DejaVuSans-2e" x="63.623047"/>
       <use xlink:href="#DejaVuSans-30" x="95.410156"/>
      </g>
     </g>
    </g>
    <g id="ytick_7">
     <g id="line2d_16">
      <g>
       <use xlink:href="#m5790f66f1b" x="90" y="57.402184" style="stroke: #000000; stroke-width: 0.8"/>
      </g>
     </g>
     <g id="text_15">
      <!-- 1.2 -->
      <g transform="translate(67.096875 61.201403) scale(0.1 -0.1)">
       <use xlink:href="#DejaVuSans-31"/>
       <use xlink:href="#DejaVuSans-2e" x="63.623047"/>
       <use xlink:href="#DejaVuSans-32" x="95.410156"/>
      </g>
     </g>
    </g>
    <g id="ytick_8">
     <g id="line2d_17">
      <g>
       <use xlink:href="#m5790f66f1b" x="90" y="34.929215" style="stroke: #000000; stroke-width: 0.8"/>
      </g>
     </g>
     <g id="text_16">
      <!-- 1.4 -->
      <g transform="translate(67.096875 38.728434) scale(0.1 -0.1)">
       <use xlink:href="#DejaVuSans-31"/>
       <use xlink:href="#DejaVuSans-2e" x="63.623047"/>
       <use xlink:href="#DejaVuSans-34" x="95.410156"/>
      </g>
     </g>
    </g>
   </g>
  </g>
 </g>
 <defs>
  <clipPath id="p74330e897c">
   <rect x="90" y="25.92" width="558" height="166.32"/>
  </clipPath>
 </defs>
</svg>
