<?xml version="1.0" encoding="utf-8" standalone="no"?>
<!DOCTYPE svg PUBLIC "-//W3C//DTD SVG 1.1//EN"
  "http://www.w3.org/Graphics/SVG/1.1/DTD/svg11.dtd">
<svg xmlns:xlink="http://www.w3.org/1999/xlink" width="720pt" height="216pt" viewBox="0 0 720 216" xmlns="http://www.w3.org/2000/svg" version="1.1">
 <metadata>
  <rdf:RDF xmlns:dc="http://purl.org/dc/elements/1.1/" xmlns:cc="http://creativecommons.org/ns#" xmlns:rdf="http://www.w3.org/1999/02/22-rdf-syntax-ns#">
   <cc:Work>
    <dc:type rdf:resource="http://purl.org/dc/dcmitype/StillImage"/>
    <dc:date>2025-12-17T10:22:48.436138</dc:date>
    <dc:format>image/svg+xml</dc:format>
    <dc:creator>
     <cc:Agent>
      <dc:title>Matplotlib v3.8.2, https://matplotlib.org/</dc:title>
     </cc:Agent>
    </dc:creator>
   </cc:Work>
  </rdf:RDF>
 </metadata>
 <defs>
  <style type="text/css">*{stroke-linejoin: round; stroke-linecap: butt}</style>
 </defs>
 <g id="figure_1">
  <g id="patch_1">
   <path d="M 0 216 
L 720 216 
L 720 0 
L 0 0 
z
" style="fill: #ffffff"/>
  </g>
  <g id="axes_1">
   <g id="patch_2">
    <path d="M 90 192.24 
L 648 192.24 
L 648 25.92 
L 90 25.92 
z
" style="fill: #ffffff"/>
   </g>
   <g id="line2d_1">
    <path d="M 90 192.24 
L 648 192.24 
" clip-path="url(#pfbae4a9184)" style="fill: none; stroke: #000000; stroke-width: 0.5; stroke-linecap: square"/>
   </g>
   <g id="patch_3">
    <path d="M 102.260459 191.864328 
L 95.453516 191.864328 
L 94.378735 192.24 
L 90 192.24 
L 96.253268 190.177782 
L 101.446231 190.177782 
L 107.699499 192.24 
L 103.324383 192.24 
L 102.260459 191.864328 
z
M 96.539153 191.481585 
L 101.163965 191.481585 
L 98.855178 190.661294 
L 96.539153 191.481585 
z
" clip-path="url(#pfbae4a9184)" style="fill: #008000"/>
   </g>
   <g id="patch_4">
    <path d="M 107.699499 189.863536 
Q 105.914476 190.020659 103.994584 190.099579 
Q 102.074692 190.177782 100.027865 190.177782 
Q 95.402671 190.177782 92.701335 189.71 
Q 90 189.242218 90 188.442253 
Q 90 187.632962 92.748936 187.168767 
Q 95.501839 186.704573 100.289668 186.704573 
Q 102.134193 186.704573 103.824015 186.767709 
Q 105.517804 186.830128 107.017224 186.95353 
L 107.017224 187.645876 
Q 105.470203 187.487318 103.93905 187.409115 
Q 102.407896 187.330195 100.868809 187.330195 
Q 98.020705 187.330195 96.477652 187.618613 
Q 94.934598 187.906313 94.934598 188.442253 
Q 94.934598 188.973172 96.422118 189.263024 
Q 97.909637 189.552159 100.646673 189.552159 
Q 101.392416 189.552159 102.031058 189.535658 
Q 102.6697 189.518439 103.17744 189.482566 
L 103.17744 188.83255 
L 100.261901 188.83255 
L 100.261901 188.253562 
L 107.699499 188.253562 
L 107.699499 189.863536 
z
" clip-path="url(#pfbae4a9184)" style="fill: #ffa600"/>
   </g>
   <g id="patch_5">
    <path d="M 107.699499 186.331136 
Q 106.218967 186.51624 104.618029 186.609868 
Q 103.017092 186.704573 101.273453 186.704573 
Q 96.073751 186.704573 93.036876 186.0029 
Q 90 185.301227 90 184.10128 
Q 90 182.897028 93.036876 182.196432 
Q 96.073751 181.494759 101.273453 181.494759 
Q 103.017092 181.494759 104.618029 181.589463 
Q 106.218967 181.683091 107.699499 181.868195 
L 107.699499 182.906714 
Q 106.205588 182.661344 104.756272 182.547268 
Q 103.306955 182.433192 101.706018 182.433192 
Q 98.834142 182.433192 97.18861 182.877657 
Q 95.547538 183.321045 95.547538 184.10128 
Q 95.547538 184.878286 97.18861 185.32275 
Q 98.834142 185.766139 101.706018 185.766139 
Q 103.306955 185.766139 104.756272 185.652063 
Q 106.205588 185.536911 107.699499 185.291541 
L 107.699499 186.331136 
z
" clip-path="url(#pfbae4a9184)" style="fill: #0000ff"/>
   </g>
   <g id="patch_6">
    <path d="M 90 173.5715 
L 107.699499 173.5715 
L 107.699499 175.116756 
L 101.331796 175.116756 
L 101.331796 181.494759 
L 96.380052 181.494759 
L 96.380052 175.116756 
L 90 175.116756 
L 90 173.5715 
z
" clip-path="url(#pfbae4a9184)" style="fill: #ff0000"/>
   </g>
   <g id="patch_7">
    <path d="M 120.89151 192.194092 
L 114.084567 192.194092 
L 113.009787 192.24 
L 108.631052 192.24 
L 114.88432 191.98799 
L 120.077283 191.98799 
L 126.330551 192.24 
L 121.955434 192.24 
L 120.89151 192.194092 
z
M 115.170204 192.147319 
L 119.795017 192.147319 
L 117.48623 192.047077 
L 115.170204 192.147319 
z
" clip-path="url(#pfbae4a9184)" style="fill: #008000"/>
   </g>
   <g id="patch_8">
    <path d="M 126.330551 191.962724 
Q 124.545527 191.975357 122.625636 191.981702 
Q 120.705744 191.98799 118.658917 191.98799 
Q 114.033723 191.98799 111.332387 191.950379 
Q 108.631052 191.912769 108.631052 191.848449 
Q 108.631052 191.783381 111.379988 191.746058 
Q 114.132891 191.708736 118.92072 191.708736 
Q 120.765244 191.708736 122.455067 191.713812 
Q 124.148856 191.718831 125.648275 191.728753 
L 125.648275 191.784419 
Q 124.101255 191.77167 122.570102 191.765383 
Q 121.038948 191.759037 119.499861 191.759037 
Q 116.651757 191.759037 115.108704 191.782227 
Q 113.56565 191.805359 113.56565 191.848449 
Q 113.56565 191.891137 115.053169 191.914441 
Q 116.540689 191.937689 119.277725 191.937689 
Q 120.023468 191.937689 120.66211 191.936362 
Q 121.300752 191.934977 121.808492 191.932093 
L 121.808492 191.87983 
L 118.892953 191.87983 
L 118.892953 191.833278 
L 126.330551 191.833278 
L 126.330551 191.962724 
z
" clip-path="url(#pfbae4a9184)" style="fill: #ffa600"/>
   </g>
   <g id="patch_9">
    <path d="M 108.631052 191.415859 
L 126.330551 191.415859 
L 126.330551 191.472978 
L 119.962847 191.472978 
L 119.962847 191.708736 
L 115.011104 191.708736 
L 115.011104 191.472978 
L 108.631052 191.472978 
L 108.631052 191.415859 
z
" clip-path="url(#pfbae4a9184)" style="fill: #ff0000"/>
   </g>
   <g id="patch_10">
    <path d="M 126.330551 191.39096 
Q 124.850018 191.403302 123.249081 191.409545 
Q 121.648144 191.415859 119.904504 191.415859 
Q 114.704803 191.415859 111.667927 191.369075 
Q 108.631052 191.322291 108.631052 191.242285 
Q 108.631052 191.161991 111.667927 191.115278 
Q 114.704803 191.068494 119.904504 191.068494 
Q 121.648144 191.068494 123.249081 191.074809 
Q 124.850018 191.081051 126.330551 191.093393 
L 126.330551 191.162637 
Q 124.83664 191.146277 123.387324 191.138671 
Q 121.938007 191.131065 120.33707 191.131065 
Q 117.465193 191.131065 115.819662 191.160699 
Q 114.178589 191.190262 114.178589 191.242285 
Q 114.178589 191.294091 115.819662 191.323726 
Q 117.465193 191.353289 120.33707 191.353289 
Q 121.938007 191.353289 123.387324 191.345683 
Q 124.83664 191.338005 126.330551 191.321645 
L 126.330551 191.39096 
z
" clip-path="url(#pfbae4a9184)" style="fill: #0000ff"/>
   </g>
   <g id="patch_11">
    <path d="M 144.961603 192.110969 
Q 143.48107 192.174927 141.880133 192.207278 
Q 140.279195 192.24 138.535556 192.24 
Q 133.335855 192.24 130.298979 191.997556 
Q 127.262104 191.755112 127.262104 191.340504 
Q 127.262104 190.924408 130.298979 190.682336 
Q 133.335855 190.439892 138.535556 190.439892 
Q 140.279195 190.439892 141.880133 190.472614 
Q 143.48107 190.504965 144.961603 190.568923 
L 144.961603 190.927754 
Q 143.467692 190.842973 142.018375 190.803558 
Q 140.569059 190.764142 138.968121 190.764142 
Q 136.096245 190.764142 134.450713 190.917714 
Q 132.809641 191.070915 132.809641 191.340504 
Q 132.809641 191.608977 134.450713 191.762549 
Q 136.096245 191.91575 138.968121 191.91575 
Q 140.569059 191.91575 142.018375 191.876334 
Q 143.467692 191.836547 144.961603 191.751766 
L 144.961603 192.110969 
z
" clip-path="url(#pfbae4a9184)" style="fill: #0000ff"/>
   </g>
   <g id="patch_12">
    <path d="M 139.522562 189.247442 
L 132.715619 189.247442 
L 131.640839 190.439892 
L 127.262104 190.439892 
L 133.515372 183.894045 
L 138.708335 183.894045 
L 144.961603 190.439892 
L 140.586486 190.439892 
L 139.522562 189.247442 
z
M 133.801256 188.032546 
L 138.426069 188.032546 
L 136.117281 185.428798 
L 133.801256 188.032546 
z
" clip-path="url(#pfbae4a9184)" style="fill: #008000"/>
   </g>
   <g id="patch_13">
    <path d="M 127.262104 176.857259 
L 144.961603 176.857259 
L 144.961603 178.229628 
L 138.593899 178.229628 
L 138.593899 183.894045 
L 133.642156 183.894045 
L 133.642156 178.229628 
L 127.262104 178.229628 
L 127.262104 176.857259 
z
" clip-path="url(#pfbae4a9184)" style="fill: #ff0000"/>
   </g>
   <g id="patch_14">
    <path d="M 144.961603 175.702372 
Q 143.176579 176.279815 141.256687 176.569855 
Q 139.336795 176.857259 137.289969 176.857259 
Q 132.664774 176.857259 129.963439 175.138112 
Q 127.262104 173.418965 127.262104 170.479013 
Q 127.262104 167.504783 130.01104 165.79882 
Q 132.763942 164.092856 137.551772 164.092856 
Q 139.396296 164.092856 141.086118 164.324889 
Q 142.779907 164.554284 144.279327 165.007801 
L 144.279327 167.552244 
Q 142.732307 166.969527 141.201153 166.682124 
Q 139.67 166.392084 138.130913 166.392084 
Q 135.282809 166.392084 133.739755 167.452048 
Q 132.196702 168.509377 132.196702 170.479013 
Q 132.196702 172.430192 133.684221 173.49543 
Q 135.171741 174.558032 137.908777 174.558032 
Q 138.65452 174.558032 139.293162 174.497387 
Q 139.931803 174.434105 140.439543 174.302269 
L 140.439543 171.913393 
L 137.524005 171.913393 
L 137.524005 169.785553 
L 144.961603 169.785553 
L 144.961603 175.702372 
z
" clip-path="url(#pfbae4a9184)" style="fill: #ffa600"/>
   </g>
   <g id="patch_15">
    <path d="M 163.592654 192.08332 
Q 162.112122 192.160983 160.511185 192.200266 
Q 158.910247 192.24 157.166608 192.24 
Q 151.966906 192.24 148.930031 191.945605 
Q 145.893155 191.651209 145.893155 191.147757 
Q 145.893155 190.642498 148.930031 190.348555 
Q 151.966906 190.054159 157.166608 190.054159 
Q 158.910247 190.054159 160.511185 190.093894 
Q 162.112122 190.133176 163.592654 190.210839 
L 163.592654 190.646562 
Q 162.098744 190.543614 160.649427 190.495752 
Q 159.200111 190.44789 157.599173 190.44789 
Q 154.727297 190.44789 153.081765 190.634371 
Q 151.440693 190.8204 151.440693 191.147757 
Q 151.440693 191.473759 153.081765 191.66024 
Q 154.727297 191.846269 157.599173 191.846269 
Q 159.200111 191.846269 160.649427 191.798407 
Q 162.098744 191.750094 163.592654 191.647145 
L 163.592654 192.08332 
z
" clip-path="url(#pfbae4a9184)" style="fill: #0000ff"/>
   </g>
   <g id="patch_16">
    <path d="M 145.893155 185.682478 
L 163.592654 185.682478 
L 163.592654 186.535077 
L 157.224951 186.535077 
L 157.224951 190.054159 
L 152.273207 190.054159 
L 152.273207 186.535077 
L 145.893155 186.535077 
L 145.893155 185.682478 
z
" clip-path="url(#pfbae4a9184)" style="fill: #ff0000"/>
   </g>
   <g id="patch_17">
    <path d="M 163.592654 183.507022 
Q 161.807631 184.59475 159.887739 185.141097 
Q 157.967847 185.682478 155.92102 185.682478 
Q 151.295826 185.682478 148.594491 182.444128 
Q 145.893155 179.205778 145.893155 173.667803 
Q 145.893155 168.06526 148.642091 164.851744 
Q 151.394994 161.638229 156.182824 161.638229 
Q 158.027348 161.638229 159.71717 162.075307 
Q 161.410959 162.507418 162.910379 163.361706 
L 162.910379 168.154662 
Q 161.363358 167.057001 159.832205 166.51562 
Q 158.301052 165.969273 156.761965 165.969273 
Q 153.913861 165.969273 152.370807 167.965924 
Q 150.827753 169.957608 150.827753 173.667803 
Q 150.827753 177.343231 152.315273 179.349815 
Q 153.802792 181.351433 156.539828 181.351433 
Q 157.285572 181.351433 157.924213 181.237197 
Q 158.562855 181.117994 159.070595 180.869654 
L 159.070595 176.369739 
L 156.155057 176.369739 
L 156.155057 172.361537 
L 163.592654 172.361537 
L 163.592654 183.507022 
z
" clip-path="url(#pfbae4a9184)" style="fill: #ffa600"/>
   </g>
   <g id="patch_18">
    <path d="M 158.153614 153.515108 
L 151.346671 153.515108 
L 150.27189 161.638229 
L 145.893155 161.638229 
L 152.146423 117.047076 
L 157.339386 117.047076 
L 163.592654 161.638229 
L 159.217538 161.638229 
L 158.153614 153.515108 
z
M 152.432308 145.239082 
L 157.057121 145.239082 
L 154.748333 127.50201 
L 152.432308 145.239082 
z
" clip-path="url(#pfbae4a9184)" style="fill: #008000"/>
   </g>
   <g id="patch_19">
    <path d="M 182.223706 192.058388 
Q 180.743174 192.148409 179.142236 192.193943 
Q 177.541299 192.24 175.79766 192.24 
Q 170.597958 192.24 167.561083 191.898758 
Q 164.524207 191.557515 164.524207 190.973949 
Q 164.524207 190.388289 167.561083 190.04757 
Q 170.597958 189.706327 175.79766 189.706327 
Q 177.541299 189.706327 179.142236 189.752384 
Q 180.743174 189.797918 182.223706 189.887939 
L 182.223706 190.392999 
Q 180.729795 190.273669 179.280479 190.218191 
Q 177.831162 190.162713 176.230225 190.162713 
Q 173.358349 190.162713 171.712817 190.378868 
Q 170.071745 190.5945 170.071745 190.973949 
Q 170.071745 191.351828 171.712817 191.567983 
Q 173.358349 191.783614 176.230225 191.783614 
Q 177.831162 191.783614 179.280479 191.728136 
Q 180.729795 191.672135 182.223706 191.552805 
L 182.223706 192.058388 
z
" clip-path="url(#pfbae4a9184)" style="fill: #0000ff"/>
   </g>
   <g id="patch_20">
    <path d="M 176.784666 188.667825 
L 169.977723 188.667825 
L 168.902942 189.706327 
L 164.524207 189.706327 
L 170.777475 184.005563 
L 175.970438 184.005563 
L 182.223706 189.706327 
L 177.84859 189.706327 
L 176.784666 188.667825 
z
M 171.06336 187.609775 
L 175.688172 187.609775 
L 173.379385 185.342176 
L 171.06336 187.609775 
z
" clip-path="url(#pfbae4a9184)" style="fill: #008000"/>
   </g>
   <g id="patch_21">
    <path d="M 164.524207 178.304799 
L 182.223706 178.304799 
L 182.223706 179.416607 
L 175.856003 179.416607 
L 175.856003 184.005563 
L 170.904259 184.005563 
L 170.904259 179.416607 
L 164.524207 179.416607 
L 164.524207 178.304799 
z
" clip-path="url(#pfbae4a9184)" style="fill: #ff0000"/>
   </g>
   <g id="patch_22">
    <path d="M 182.223706 177.101291 
Q 180.438683 177.703045 178.518791 178.005296 
Q 176.598899 178.304799 174.552072 178.304799 
Q 169.926878 178.304799 167.225542 176.513276 
Q 164.524207 174.721753 164.524207 171.658029 
Q 164.524207 168.558584 167.273143 166.7808 
Q 170.026046 165.003016 174.813876 165.003016 
Q 176.6584 165.003016 178.348222 165.244816 
Q 180.042011 165.483869 181.541431 165.95648 
L 181.541431 168.608043 
Q 179.99441 168.000794 178.463257 167.701291 
Q 176.932103 167.39904 175.393016 167.39904 
Q 172.544912 167.39904 171.001859 168.503629 
Q 169.458805 169.605471 169.458805 171.658029 
Q 169.458805 173.691352 170.946325 174.801437 
Q 172.433844 175.908774 175.17088 175.908774 
Q 175.916623 175.908774 176.555265 175.845576 
Q 177.193907 175.779631 177.701647 175.642244 
L 177.701647 173.152796 
L 174.786108 173.152796 
L 174.786108 170.935375 
L 182.223706 170.935375 
L 182.223706 177.101291 
z
" clip-path="url(#pfbae4a9184)" style="fill: #ffa600"/>
   </g>
   <g id="patch_23">
    <path d="M 200.854758 192.108095 
Q 199.374225 192.173477 197.773288 192.206549 
Q 196.172351 192.24 194.428711 192.24 
Q 189.22901 192.24 186.192134 191.992156 
Q 183.155259 191.744312 183.155259 191.320468 
Q 183.155259 190.895104 186.192134 190.64764 
Q 189.22901 190.399795 194.428711 190.399795 
Q 196.172351 190.399795 197.773288 190.433247 
Q 199.374225 190.466318 200.854758 190.5317 
L 200.854758 190.898525 
Q 199.360847 190.811855 197.911531 190.771562 
Q 196.462214 190.731268 194.861277 190.731268 
Q 191.9894 190.731268 190.343869 190.888261 
Q 188.702796 191.044874 188.702796 191.320468 
Q 188.702796 191.594921 190.343869 191.751914 
Q 191.9894 191.908527 194.861277 191.908527 
Q 196.462214 191.908527 197.911531 191.868234 
Q 199.360847 191.82756 200.854758 191.740891 
L 200.854758 192.108095 
z
" clip-path="url(#pfbae4a9184)" style="fill: #0000ff"/>
   </g>
   <g id="patch_24">
    <path d="M 200.854758 190.066802 
Q 199.069734 190.233299 197.149843 190.316927 
Q 195.229951 190.399795 193.183124 190.399795 
Q 188.55793 190.399795 185.856594 189.904107 
Q 183.155259 189.408419 183.155259 188.560731 
Q 183.155259 187.70316 185.904195 187.211273 
Q 188.657098 186.719386 193.444927 186.719386 
Q 195.289451 186.719386 196.979274 186.786289 
Q 198.673063 186.852431 200.172482 186.983196 
L 200.172482 187.716845 
Q 198.625462 187.548828 197.094309 187.46596 
Q 195.563155 187.382331 194.024068 187.382331 
Q 191.175964 187.382331 189.632911 187.687955 
Q 188.089857 187.992818 188.089857 188.560731 
Q 188.089857 189.123322 189.577376 189.430466 
Q 191.064896 189.73685 193.801932 189.73685 
Q 194.547675 189.73685 195.186317 189.719364 
Q 195.824959 189.701118 196.332699 189.663105 
L 196.332699 188.974312 
L 193.41716 188.974312 
L 193.41716 188.360783 
L 200.854758 188.360783 
L 200.854758 190.066802 
z
" clip-path="url(#pfbae4a9184)" style="fill: #ffa600"/>
   </g>
   <g id="patch_25">
    <path d="M 183.155259 173.837954 
L 200.854758 173.837954 
L 200.854758 176.350192 
L 194.487054 176.350192 
L 194.487054 186.719386 
L 189.535311 186.719386 
L 189.535311 176.350192 
L 183.155259 176.350192 
L 183.155259 173.837954 
z
" clip-path="url(#pfbae4a9184)" style="fill: #ff0000"/>
   </g>
   <g id="patch_26">
    <path d="M 195.415717 148.360625 
L 188.608774 148.360625 
L 187.533994 173.837954 
L 183.155259 173.837954 
L 189.408527 33.982405 
L 194.60149 33.982405 
L 200.854758 173.837954 
L 196.479641 173.837954 
L 195.415717 148.360625 
z
M 189.694411 122.403723 
L 194.319224 122.403723 
L 192.010437 66.773226 
L 189.694411 122.403723 
z
" clip-path="url(#pfbae4a9184)" style="fill: #008000"/>
   </g>
   <g id="patch_27">
    <path d="M 219.48581 192.017644 
Q 217.700786 192.128822 215.780894 192.184665 
Q 213.861002 192.24 211.814176 192.24 
Q 207.188981 192.24 204.487646 191.909005 
Q 201.786311 191.578009 201.786311 191.011966 
Q 201.786311 190.439324 204.535247 190.110867 
Q 207.288149 189.78241 212.075979 189.78241 
Q 213.920503 189.78241 215.610325 189.827084 
Q 217.304114 189.87125 218.803534 189.958568 
L 218.803534 190.448462 
Q 217.256514 190.336269 215.72536 190.280933 
Q 214.194207 190.225091 212.65512 190.225091 
Q 209.807016 190.225091 208.263962 190.429171 
Q 206.720909 190.632743 206.720909 191.011966 
Q 206.720909 191.387636 208.208428 191.592731 
Q 209.695948 191.797319 212.432984 191.797319 
Q 213.178727 191.797319 213.817369 191.785643 
Q 214.45601 191.773459 214.96375 191.748076 
L 214.96375 191.288134 
L 212.048212 191.288134 
L 212.048212 190.878451 
L 219.48581 190.878451 
L 219.48581 192.017644 
z
" clip-path="url(#pfbae4a9184)" style="fill: #ffa600"/>
   </g>
   <g id="patch_28">
    <path d="M 201.786311 184.321098 
L 219.48581 184.321098 
L 219.48581 185.386206 
L 213.118106 185.386206 
L 213.118106 189.78241 
L 208.166363 189.78241 
L 208.166363 185.386206 
L 201.786311 185.386206 
L 201.786311 184.321098 
z
" clip-path="url(#pfbae4a9184)" style="fill: #ff0000"/>
   </g>
   <g id="patch_29">
    <path d="M 214.046769 181.634919 
L 207.239826 181.634919 
L 206.165046 184.321098 
L 201.786311 184.321098 
L 208.039579 169.575556 
L 213.232542 169.575556 
L 219.48581 184.321098 
L 215.110693 184.321098 
L 214.046769 181.634919 
z
M 208.325463 178.898177 
L 212.950276 178.898177 
L 210.641488 173.032826 
L 208.325463 178.898177 
z
" clip-path="url(#pfbae4a9184)" style="fill: #008000"/>
   </g>
   <g id="patch_30">
    <path d="M 219.48581 167.833543 
Q 218.005277 168.697019 216.40434 169.133777 
Q 214.803402 169.575556 213.059763 169.575556 
Q 207.860062 169.575556 204.823186 166.302379 
Q 201.786311 163.029202 201.786311 157.431667 
Q 201.786311 151.814052 204.823186 148.545895 
Q 207.860062 145.272718 213.059763 145.272718 
Q 214.803402 145.272718 216.40434 145.714496 
Q 218.005277 146.151255 219.48581 147.014731 
L 219.48581 151.859234 
Q 217.991899 150.714626 216.542582 150.182484 
Q 215.093266 149.650341 213.492328 149.650341 
Q 210.620452 149.650341 208.97492 151.723688 
Q 207.333848 153.792015 207.333848 157.431667 
Q 207.333848 161.056259 208.97492 163.129606 
Q 210.620452 165.197932 213.492328 165.197932 
Q 215.093266 165.197932 216.542582 164.66579 
Q 217.991899 164.128628 219.48581 162.98402 
L 219.48581 167.833543 
z
" clip-path="url(#pfbae4a9184)" style="fill: #0000ff"/>
   </g>
   <g id="patch_31">
    <path d="M 238.116861 192.199927 
Q 236.636329 192.21979 235.035392 192.229837 
Q 233.434454 192.24 231.690815 192.24 
Q 226.491113 192.24 223.454238 192.164704 
Q 220.417362 192.089407 220.417362 191.960641 
Q 220.417362 191.831413 223.454238 191.756232 
Q 226.491113 191.680936 231.690815 191.680936 
Q 233.434454 191.680936 235.035392 191.691099 
Q 236.636329 191.701146 238.116861 191.721009 
L 238.116861 191.832453 
Q 236.622951 191.806122 235.173634 191.793881 
Q 233.724318 191.781639 232.12338 191.781639 
Q 229.251504 191.781639 227.605972 191.829335 
Q 225.9649 191.876914 225.9649 191.960641 
Q 225.9649 192.044022 227.605972 192.091717 
Q 229.251504 192.139297 232.12338 192.139297 
Q 233.724318 192.139297 235.173634 192.127055 
Q 236.622951 192.114699 238.116861 192.088368 
L 238.116861 192.199927 
z
" clip-path="url(#pfbae4a9184)" style="fill: #0000ff"/>
   </g>
   <g id="patch_32">
    <path d="M 220.417362 189.44468 
L 238.116861 189.44468 
L 238.116861 189.880813 
L 231.749158 189.880813 
L 231.749158 191.680936 
L 226.797414 191.680936 
L 226.797414 189.880813 
L 220.417362 189.880813 
L 220.417362 189.44468 
z
" clip-path="url(#pfbae4a9184)" style="fill: #ff0000"/>
   </g>
   <g id="patch_33">
    <path d="M 238.116861 185.246331 
Q 236.331838 187.345506 234.411946 188.399886 
Q 232.492054 189.44468 230.445227 189.44468 
Q 225.820033 189.44468 223.118698 183.195083 
Q 220.417362 176.945485 220.417362 166.257906 
Q 220.417362 155.445719 223.166298 149.244048 
Q 225.919201 143.042376 230.707031 143.042376 
Q 232.551555 143.042376 234.241377 143.88588 
Q 235.935166 144.719799 237.434586 146.368466 
L 237.434586 155.618254 
Q 235.887565 153.499909 234.356412 152.455114 
Q 232.825259 151.400734 231.286172 151.400734 
Q 228.438068 151.400734 226.895014 155.254013 
Q 225.35196 159.097708 225.35196 166.257906 
Q 225.35196 173.351008 226.83948 177.223458 
Q 228.327 181.086323 231.064035 181.086323 
Q 231.809779 181.086323 232.44842 180.865862 
Q 233.087062 180.635815 233.594802 180.156551 
L 233.594802 171.472295 
L 230.679264 171.472295 
L 230.679264 163.73698 
L 238.116861 163.73698 
L 238.116861 185.246331 
z
" clip-path="url(#pfbae4a9184)" style="fill: #ffa600"/>
   </g>
   <g id="patch_34">
    <path d="M 232.677821 134.487476 
L 225.870878 134.487476 
L 224.796097 143.042376 
L 220.417362 143.042376 
L 226.67063 96.081008 
L 231.863593 96.081008 
L 238.116861 143.042376 
L 233.741745 143.042376 
L 232.677821 134.487476 
z
M 226.956515 125.771543 
L 231.581328 125.771543 
L 229.27254 107.091668 
L 226.956515 125.771543 
z
" clip-path="url(#pfbae4a9184)" style="fill: #008000"/>
   </g>
   <g id="patch_35">
    <path d="M 256.747913 192.017409 
Q 255.267381 192.127742 253.666443 192.18355 
Q 252.065506 192.24 250.321867 192.24 
Q 245.122165 192.24 242.08529 191.821759 
Q 239.048414 191.403518 239.048414 190.688275 
Q 239.048414 189.970466 242.08529 189.552866 
Q 245.122165 189.134625 250.321867 189.134625 
Q 252.065506 189.134625 253.666443 189.191075 
Q 255.267381 189.246883 256.747913 189.357217 
L 256.747913 189.976239 
Q 255.254002 189.829983 253.804686 189.761987 
Q 252.355369 189.693991 250.754432 189.693991 
Q 247.882556 189.693991 246.237024 189.958919 
Q 244.595952 190.223206 244.595952 190.688275 
Q 244.595952 191.151419 246.237024 191.416348 
Q 247.882556 191.680635 250.754432 191.680635 
Q 252.355369 191.680635 253.804686 191.612639 
Q 255.254002 191.544001 256.747913 191.397745 
L 256.747913 192.017409 
z
" clip-path="url(#pfbae4a9184)" style="fill: #0000ff"/>
   </g>
   <g id="patch_36">
    <path d="M 256.747913 188.666349 
Q 254.96289 188.900487 253.042998 189.018091 
Q 251.123106 189.134625 249.076279 189.134625 
Q 244.451085 189.134625 241.74975 188.437557 
Q 239.048414 187.740489 239.048414 186.548417 
Q 239.048414 185.342446 241.79735 184.650724 
Q 244.550253 183.959001 249.338083 183.959001 
Q 251.182607 183.959001 252.872429 184.053084 
Q 254.566218 184.146098 256.065638 184.329987 
L 256.065638 185.36169 
Q 254.518617 185.125414 252.987464 185.00888 
Q 251.45631 184.891276 249.917223 184.891276 
Q 247.069119 184.891276 245.526066 185.321064 
Q 243.983012 185.749782 243.983012 186.548417 
Q 243.983012 187.339568 245.470532 187.771494 
Q 246.958051 188.20235 249.695087 188.20235 
Q 250.44083 188.20235 251.079472 188.17776 
Q 251.718114 188.152101 252.225854 188.098645 
L 252.225854 187.13002 
L 249.310315 187.13002 
L 249.310315 186.267238 
L 256.747913 186.267238 
L 256.747913 188.666349 
z
" clip-path="url(#pfbae4a9184)" style="fill: #ffa600"/>
   </g>
   <g id="patch_37">
    <path d="M 239.048414 175.263952 
L 256.747913 175.263952 
L 256.747913 176.959729 
L 250.38021 176.959729 
L 250.38021 183.959001 
L 245.428466 183.959001 
L 245.428466 176.959729 
L 239.048414 176.959729 
L 239.048414 175.263952 
z
" clip-path="url(#pfbae4a9184)" style="fill: #ff0000"/>
   </g>
   <g id="patch_38">
    <path d="M 251.308873 171.869736 
L 244.50193 171.869736 
L 243.427149 175.263952 
L 239.048414 175.263952 
L 245.301682 156.631704 
L 250.494645 156.631704 
L 256.747913 175.263952 
L 252.372797 175.263952 
L 251.308873 171.869736 
z
M 245.587567 168.411629 
L 250.212379 168.411629 
L 247.903592 161.00026 
L 245.587567 168.411629 
z
" clip-path="url(#pfbae4a9184)" style="fill: #008000"/>
   </g>
   <g id="patch_39">
    <path d="M 275.378965 192.13155 
Q 273.898432 192.185306 272.297495 192.212497 
Q 270.696558 192.24 268.952919 192.24 
Q 263.753217 192.24 260.716341 192.036227 
Q 257.679466 191.832454 257.679466 191.483976 
Q 257.679466 191.134249 260.716341 190.930788 
Q 263.753217 190.727015 268.952919 190.727015 
Q 270.696558 190.727015 272.297495 190.754518 
Q 273.898432 190.781709 275.378965 190.835465 
L 275.378965 191.137062 
Q 273.885054 191.065804 272.435738 191.032675 
Q 270.986421 190.999546 269.385484 190.999546 
Q 266.513607 190.999546 264.868076 191.128623 
Q 263.227003 191.257388 263.227003 191.483976 
Q 263.227003 191.709627 264.868076 191.838704 
Q 266.513607 191.967469 269.385484 191.967469 
Q 270.986421 191.967469 272.435738 191.93434 
Q 273.885054 191.900899 275.378965 191.829641 
L 275.378965 192.13155 
z
" clip-path="url(#pfbae4a9184)" style="fill: #0000ff"/>
   </g>
   <g id="patch_40">
    <path d="M 269.939924 189.762349 
L 263.132981 189.762349 
L 262.058201 190.727015 
L 257.679466 190.727015 
L 263.932734 185.431567 
L 269.125697 185.431567 
L 275.378965 190.727015 
L 271.003849 190.727015 
L 269.939924 189.762349 
z
M 264.218618 188.779525 
L 268.843431 188.779525 
L 266.534644 186.673149 
L 264.218618 188.779525 
z
" clip-path="url(#pfbae4a9184)" style="fill: #008000"/>
   </g>
   <g id="patch_41">
    <path d="M 275.378965 183.857325 
Q 273.593941 184.644446 271.67405 185.039804 
Q 269.754158 185.431567 267.707331 185.431567 
Q 263.082137 185.431567 260.380801 183.088175 
Q 257.679466 180.744783 257.679466 176.737294 
Q 257.679466 172.683082 260.428402 170.35766 
Q 263.181305 168.032239 267.969134 168.032239 
Q 269.813659 168.032239 271.503481 168.348525 
Q 273.19727 168.661217 274.696689 169.279412 
L 274.696689 172.747777 
Q 273.149669 171.953467 271.618516 171.561704 
Q 270.087362 171.166346 268.548275 171.166346 
Q 265.700171 171.166346 264.157118 172.611199 
Q 262.614064 174.052457 262.614064 176.737294 
Q 262.614064 179.396973 264.101583 180.849013 
Q 265.589103 182.29746 268.326139 182.29746 
Q 269.071882 182.29746 269.710524 182.214794 
Q 270.349166 182.128534 270.856906 181.948826 
L 270.856906 178.692517 
L 267.941367 178.692517 
L 267.941367 175.79203 
L 275.378965 175.79203 
L 275.378965 183.857325 
z
" clip-path="url(#pfbae4a9184)" style="fill: #ffa600"/>
   </g>
   <g id="patch_42">
    <path d="M 257.679466 62.123283 
L 275.378965 62.123283 
L 275.378965 82.77848 
L 269.011261 82.77848 
L 269.011261 168.032239 
L 264.059518 168.032239 
L 264.059518 82.77848 
L 257.679466 82.77848 
L 257.679466 62.123283 
z
" clip-path="url(#pfbae4a9184)" style="fill: #ff0000"/>
   </g>
   <g id="patch_43">
    <path d="M 294.010017 191.754814 
Q 292.529484 191.99531 290.928547 192.116956 
Q 289.32761 192.24 287.58397 192.24 
Q 282.384269 192.24 279.347393 191.328353 
Q 276.310518 190.416707 276.310518 188.857679 
Q 276.310518 187.293058 279.347393 186.38281 
Q 282.384269 185.471163 287.58397 185.471163 
Q 289.32761 185.471163 290.928547 185.594207 
Q 292.529484 185.715853 294.010017 185.956349 
L 294.010017 187.305642 
Q 292.516106 186.986845 291.066789 186.838633 
Q 289.617473 186.69042 288.016535 186.69042 
Q 285.144659 186.69042 283.499127 187.26789 
Q 281.858055 187.843961 281.858055 188.857679 
Q 281.858055 189.867202 283.499127 190.444671 
Q 285.144659 191.020742 288.016535 191.020742 
Q 289.617473 191.020742 291.066789 190.87253 
Q 292.516106 190.722919 294.010017 190.404122 
L 294.010017 191.754814 
z
" clip-path="url(#pfbae4a9184)" style="fill: #0000ff"/>
   </g>
   <g id="patch_44">
    <path d="M 288.570976 183.533479 
L 281.764033 183.533479 
L 280.689253 185.471163 
L 276.310518 185.471163 
L 282.563786 174.834419 
L 287.756749 174.834419 
L 294.010017 185.471163 
L 289.6349 185.471163 
L 288.570976 183.533479 
z
M 282.84967 181.559321 
L 287.474483 181.559321 
L 285.165695 177.328332 
L 282.84967 181.559321 
z
" clip-path="url(#pfbae4a9184)" style="fill: #008000"/>
   </g>
   <g id="patch_45">
    <path d="M 276.310518 25.92 
L 294.010017 25.92 
L 294.010017 54.962461 
L 287.642313 54.962461 
L 287.642313 174.834419 
L 282.69057 174.834419 
L 282.69057 54.962461 
L 276.310518 54.962461 
L 276.310518 25.92 
z
" clip-path="url(#pfbae4a9184)" style="fill: #ff0000"/>
   </g>
   <g id="patch_46">
    <path d="M 307.202028 192.098579 
L 300.395085 192.098579 
L 299.320305 192.24 
L 294.941569 192.24 
L 301.194837 191.463684 
L 306.3878 191.463684 
L 312.641068 192.24 
L 308.265952 192.24 
L 307.202028 192.098579 
z
M 301.480722 191.954497 
L 306.105535 191.954497 
L 303.796747 191.645701 
L 301.480722 191.954497 
z
" clip-path="url(#pfbae4a9184)" style="fill: #008000"/>
   </g>
   <g id="patch_47">
    <path d="M 312.641068 190.901774 
Q 310.856045 191.182729 308.936153 191.323848 
Q 307.016261 191.463684 304.969434 191.463684 
Q 300.34424 191.463684 297.642905 190.627233 
Q 294.941569 189.790781 294.941569 188.360346 
Q 294.941569 186.913234 297.690505 186.083197 
Q 300.443408 185.25316 305.231238 185.25316 
Q 307.075762 185.25316 308.765584 185.366055 
Q 310.459373 185.477667 311.958793 185.698326 
L 311.958793 186.936326 
Q 310.411772 186.652805 308.880619 186.512969 
Q 307.349466 186.371849 305.810379 186.371849 
Q 302.962275 186.371849 301.419221 186.887576 
Q 299.876167 187.402019 299.876167 188.360346 
Q 299.876167 189.309693 301.363687 189.827985 
Q 302.851207 190.344995 305.588242 190.344995 
Q 306.333986 190.344995 306.972627 190.315488 
Q 307.611269 190.284698 308.119009 190.220553 
L 308.119009 189.058245 
L 305.203471 189.058245 
L 305.203471 188.022943 
L 312.641068 188.022943 
L 312.641068 190.901774 
z
" clip-path="url(#pfbae4a9184)" style="fill: #ffa600"/>
   </g>
   <g id="patch_48">
    <path d="M 312.641068 184.028951 
Q 311.160536 184.635763 309.559599 184.942697 
Q 307.958661 185.25316 306.215022 185.25316 
Q 301.01532 185.25316 297.978445 182.952918 
Q 294.941569 180.652676 294.941569 176.71898 
Q 294.941569 172.771172 297.978445 170.474458 
Q 301.01532 168.174216 306.215022 168.174216 
Q 307.958661 168.174216 309.559599 168.484678 
Q 311.160536 168.791612 312.641068 169.398425 
L 312.641068 172.802924 
Q 311.147158 171.998545 309.697841 171.624579 
Q 308.248525 171.250613 306.647587 171.250613 
Q 303.775711 171.250613 302.130179 172.707668 
Q 300.489107 174.161195 300.489107 176.71898 
Q 300.489107 179.26618 302.130179 180.723235 
Q 303.775711 182.176762 306.647587 182.176762 
Q 308.248525 182.176762 309.697841 181.802797 
Q 311.147158 181.425303 312.641068 180.620924 
L 312.641068 184.028951 
z
" clip-path="url(#pfbae4a9184)" style="fill: #0000ff"/>
   </g>
   <g id="patch_49">
    <path d="M 294.941569 58.713715 
L 312.641068 58.713715 
L 312.641068 80.061563 
L 306.273365 80.061563 
L 306.273365 168.174216 
L 301.321621 168.174216 
L 301.321621 80.061563 
L 294.941569 80.061563 
L 294.941569 58.713715 
z
" clip-path="url(#pfbae4a9184)" style="fill: #ff0000"/>
   </g>
   <g id="patch_50">
    <path d="M 313.572621 191.525537 
L 331.27212 191.525537 
L 331.27212 191.664877 
L 324.904417 191.664877 
L 324.904417 192.24 
L 319.952673 192.24 
L 319.952673 191.664877 
L 313.572621 191.664877 
L 313.572621 191.525537 
z
" clip-path="url(#pfbae4a9184)" style="fill: #ff0000"/>
   </g>
   <g id="patch_51">
    <path d="M 331.27212 190.87911 
Q 329.487097 191.202323 327.567205 191.364668 
Q 325.647313 191.525537 323.600486 191.525537 
Q 318.975292 191.525537 316.273957 190.563276 
Q 313.572621 189.601016 313.572621 187.955433 
Q 313.572621 186.290664 316.321557 185.335783 
Q 319.07446 184.380902 323.86229 184.380902 
Q 325.706814 184.380902 327.396636 184.510777 
Q 329.090425 184.639177 330.589845 184.893025 
L 330.589845 186.317229 
Q 329.042824 185.991064 327.511671 185.830196 
Q 325.980517 185.667851 324.44143 185.667851 
Q 321.593326 185.667851 320.050273 186.261146 
Q 318.507219 186.852966 318.507219 187.955433 
Q 318.507219 189.047569 319.994739 189.643816 
Q 321.482258 190.238587 324.219294 190.238587 
Q 324.965037 190.238587 325.603679 190.204642 
Q 326.242321 190.169222 326.750061 190.095429 
L 326.750061 188.7583 
L 323.834523 188.7583 
L 323.834523 187.567282 
L 331.27212 187.567282 
L 331.27212 190.87911 
z
" clip-path="url(#pfbae4a9184)" style="fill: #ffa600"/>
   </g>
   <g id="patch_52">
    <path d="M 331.27212 183.100594 
Q 329.791588 183.735213 328.19065 184.056213 
Q 326.589713 184.380902 324.846074 184.380902 
Q 319.646372 184.380902 316.609497 181.975251 
Q 313.572621 179.569601 313.572621 175.455643 
Q 313.572621 171.326926 316.609497 168.924965 
Q 319.646372 166.519315 324.846074 166.519315 
Q 326.589713 166.519315 328.19065 166.844004 
Q 329.791588 167.165003 331.27212 167.799623 
L 331.27212 171.360133 
Q 329.778209 170.518893 328.328893 170.127791 
Q 326.879576 169.736688 325.278639 169.736688 
Q 322.406763 169.736688 320.761231 171.260513 
Q 319.120159 172.780648 319.120159 175.455643 
Q 319.120159 178.119569 320.761231 179.643393 
Q 322.406763 181.163529 325.278639 181.163529 
Q 326.879576 181.163529 328.328893 180.772426 
Q 329.778209 180.377633 331.27212 179.536394 
L 331.27212 183.100594 
z
" clip-path="url(#pfbae4a9184)" style="fill: #0000ff"/>
   </g>
   <g id="patch_53">
    <path d="M 325.83308 148.818505 
L 319.026137 148.818505 
L 317.951356 166.519315 
L 313.572621 166.519315 
L 319.825889 69.352282 
L 325.018852 69.352282 
L 331.27212 166.519315 
L 326.897004 166.519315 
L 325.83308 148.818505 
z
M 320.111774 130.784504 
L 324.736586 130.784504 
L 322.427799 92.134265 
L 320.111774 130.784504 
z
" clip-path="url(#pfbae4a9184)" style="fill: #008000"/>
   </g>
   <g id="patch_54">
    <path d="M 349.903172 192.027102 
Q 348.422639 192.132631 346.821702 192.186008 
Q 345.220765 192.24 343.477126 192.24 
Q 338.277424 192.24 335.240548 191.839972 
Q 332.203673 191.439944 332.203673 190.755847 
Q 332.203673 190.069296 335.240548 189.669882 
Q 338.277424 189.269854 343.477126 189.269854 
Q 345.220765 189.269854 346.821702 189.323845 
Q 348.422639 189.377223 349.903172 189.482752 
L 349.903172 190.074818 
Q 348.409261 189.934931 346.959945 189.869896 
Q 345.510628 189.80486 343.909691 189.80486 
Q 341.037814 189.80486 339.392283 190.058252 
Q 337.75121 190.311031 337.75121 190.755847 
Q 337.75121 191.198823 339.392283 191.452215 
Q 341.037814 191.704993 343.909691 191.704993 
Q 345.510628 191.704993 346.959945 191.639958 
Q 348.409261 191.574309 349.903172 191.434422 
L 349.903172 192.027102 
z
" clip-path="url(#pfbae4a9184)" style="fill: #0000ff"/>
   </g>
   <g id="patch_55">
    <path d="M 349.903172 188.920504 
Q 348.118149 189.095179 346.198257 189.182915 
Q 344.278365 189.269854 342.231538 189.269854 
Q 337.606344 189.269854 334.905008 188.749817 
Q 332.203673 188.229781 332.203673 187.340455 
Q 332.203673 186.44076 334.952609 185.924712 
Q 337.705512 185.408663 342.493341 185.408663 
Q 344.337866 185.408663 346.027688 185.478852 
Q 347.721477 185.548244 349.220896 185.685431 
L 349.220896 186.455117 
Q 347.673876 186.278847 346.142723 186.191908 
Q 344.611569 186.104172 343.072482 186.104172 
Q 340.224378 186.104172 338.681325 186.424808 
Q 337.138271 186.744646 337.138271 187.340455 
Q 337.138271 187.93068 338.62579 188.252911 
Q 340.11331 188.574345 342.850346 188.574345 
Q 343.596089 188.574345 344.234731 188.556 
Q 344.873373 188.536858 345.381113 188.496978 
L 345.381113 187.77435 
L 342.465574 187.77435 
L 342.465574 187.130686 
L 349.903172 187.130686 
L 349.903172 188.920504 
z
" clip-path="url(#pfbae4a9184)" style="fill: #ffa600"/>
   </g>
   <g id="patch_56">
    <path d="M 332.203673 164.02361 
L 349.903172 164.02361 
L 349.903172 168.194291 
L 343.535468 168.194291 
L 343.535468 185.408663 
L 338.583725 185.408663 
L 338.583725 168.194291 
L 332.203673 168.194291 
L 332.203673 164.02361 
z
" clip-path="url(#pfbae4a9184)" style="fill: #ff0000"/>
   </g>
   <g id="patch_57">
    <path d="M 344.464131 159.857384 
L 337.657188 159.857384 
L 336.582408 164.02361 
L 332.203673 164.02361 
L 338.456941 141.153483 
L 343.649904 141.153483 
L 349.903172 164.02361 
L 345.528056 164.02361 
L 344.464131 159.857384 
z
M 338.742825 155.612736 
L 343.367638 155.612736 
L 341.058851 146.51566 
L 338.742825 155.612736 
z
" clip-path="url(#pfbae4a9184)" style="fill: #008000"/>
   </g>
   <g id="patch_58">
    <path d="M 368.534224 192.07344 
Q 366.7492 192.15672 364.829308 192.19855 
Q 362.909416 192.24 360.86259 192.24 
Q 356.237396 192.24 353.53606 191.992062 
Q 350.834725 191.744123 350.834725 191.320119 
Q 350.834725 190.89117 353.583661 190.645133 
Q 356.336563 190.399096 361.124393 190.399096 
Q 362.968917 190.399096 364.658739 190.432561 
Q 366.352528 190.465644 367.851948 190.531051 
L 367.851948 190.898015 
Q 366.304928 190.813975 364.773774 190.772525 
Q 363.242621 190.730695 361.703534 190.730695 
Q 358.85543 190.730695 357.312376 190.883565 
Q 355.769323 191.036054 355.769323 191.320119 
Q 355.769323 191.601521 357.256842 191.755151 
Q 358.744362 191.908402 361.481398 191.908402 
Q 362.227141 191.908402 362.865783 191.899655 
Q 363.504424 191.890529 364.012164 191.871515 
L 364.012164 191.526987 
L 361.096626 191.526987 
L 361.096626 191.220107 
L 368.534224 191.220107 
L 368.534224 192.07344 
z
" clip-path="url(#pfbae4a9184)" style="fill: #ffa600"/>
   </g>
   <g id="patch_59">
    <path d="M 368.534224 190.194566 
Q 367.053691 190.295947 365.452754 190.347227 
Q 363.851817 190.399096 362.108177 190.399096 
Q 356.908476 190.399096 353.8716 190.014792 
Q 350.834725 189.630488 350.834725 188.97328 
Q 350.834725 188.313715 353.8716 187.93 
Q 356.908476 187.545696 362.108177 187.545696 
Q 363.851817 187.545696 365.452754 187.597565 
Q 367.053691 187.648845 368.534224 187.750226 
L 368.534224 188.31902 
Q 367.040313 188.184631 365.590996 188.122152 
Q 364.14168 188.059674 362.540743 188.059674 
Q 359.668866 188.059674 358.023334 188.303106 
Q 356.382262 188.545948 356.382262 188.97328 
Q 356.382262 189.398844 358.023334 189.642276 
Q 359.668866 189.885119 362.540743 189.885119 
Q 364.14168 189.885119 365.590996 189.82264 
Q 367.040313 189.759572 368.534224 189.625183 
L 368.534224 190.194566 
z
" clip-path="url(#pfbae4a9184)" style="fill: #0000ff"/>
   </g>
   <g id="patch_60">
    <path d="M 350.834725 182.299121 
L 368.534224 182.299121 
L 368.534224 183.322349 
L 362.16652 183.322349 
L 362.16652 187.545696 
L 357.214777 187.545696 
L 357.214777 183.322349 
L 350.834725 183.322349 
L 350.834725 182.299121 
z
" clip-path="url(#pfbae4a9184)" style="fill: #ff0000"/>
   </g>
   <g id="patch_61">
    <path d="M 363.095183 181.225984 
L 356.28824 181.225984 
L 355.21346 182.299121 
L 350.834725 182.299121 
L 357.087993 176.40823 
L 362.280956 176.40823 
L 368.534224 182.299121 
L 364.159107 182.299121 
L 363.095183 181.225984 
z
M 357.373877 180.132647 
L 361.99869 180.132647 
L 359.689902 177.78942 
L 357.373877 180.132647 
z
" clip-path="url(#pfbae4a9184)" style="fill: #008000"/>
   </g>
   <g id="patch_62">
    <path d="M 381.726235 191.60172 
L 374.919292 191.60172 
L 373.844512 192.24 
L 369.465776 192.24 
L 375.719044 188.736217 
L 380.912007 188.736217 
L 387.165275 192.24 
L 382.790159 192.24 
L 381.726235 191.60172 
z
M 376.004929 190.951425 
L 380.629742 190.951425 
L 378.320954 189.557721 
L 376.004929 190.951425 
z
" clip-path="url(#pfbae4a9184)" style="fill: #008000"/>
   </g>
   <g id="patch_63">
    <path d="M 387.165275 188.181445 
Q 385.380252 188.458831 383.46036 188.598157 
Q 381.540468 188.736217 379.493641 188.736217 
Q 374.868447 188.736217 372.167112 187.910392 
Q 369.465776 187.084568 369.465776 185.672307 
Q 369.465776 184.24358 372.214712 183.424088 
Q 374.967615 182.604597 379.755445 182.604597 
Q 381.599969 182.604597 383.289791 182.716058 
Q 384.98358 182.826252 386.483 183.044107 
L 386.483 184.266378 
Q 384.93598 183.986459 383.404826 183.8484 
Q 381.873673 183.709074 380.334586 183.709074 
Q 377.486482 183.709074 375.943428 184.218248 
Q 374.400374 184.726155 374.400374 185.672307 
Q 374.400374 186.609592 375.887894 187.121299 
Q 377.375414 187.63174 380.112449 187.63174 
Q 380.858193 187.63174 381.496834 187.602608 
Q 382.135476 187.57221 382.643216 187.50888 
L 382.643216 186.361338 
L 379.727678 186.361338 
L 379.727678 185.33919 
L 387.165275 185.33919 
L 387.165275 188.181445 
z
" clip-path="url(#pfbae4a9184)" style="fill: #ffa600"/>
   </g>
   <g id="patch_64">
    <path d="M 387.165275 181.976724 
Q 385.684743 182.287946 384.083806 182.445367 
Q 382.482868 182.604597 380.739229 182.604597 
Q 375.539527 182.604597 372.502652 181.424847 
Q 369.465776 180.245098 369.465776 178.227582 
Q 369.465776 176.202828 372.502652 175.024888 
Q 375.539527 173.845139 380.739229 173.845139 
Q 382.482868 173.845139 384.083806 174.004369 
Q 385.684743 174.161789 387.165275 174.473012 
L 387.165275 176.219113 
Q 385.671365 175.806563 384.222048 175.614763 
Q 382.772732 175.422963 381.171794 175.422963 
Q 378.299918 175.422963 376.654386 176.170258 
Q 375.013314 176.915744 375.013314 178.227582 
Q 375.013314 179.533991 376.654386 180.281287 
Q 378.299918 181.026772 381.171794 181.026772 
Q 382.772732 181.026772 384.222048 180.834973 
Q 385.671365 180.641363 387.165275 180.228813 
L 387.165275 181.976724 
z
" clip-path="url(#pfbae4a9184)" style="fill: #0000ff"/>
   </g>
   <g id="patch_65">
    <path d="M 369.465776 41.577329 
L 387.165275 41.577329 
L 387.165275 67.373237 
L 380.797572 67.373237 
L 380.797572 173.845139 
L 375.845828 173.845139 
L 375.845828 67.373237 
L 369.465776 67.373237 
L 369.465776 41.577329 
z
" clip-path="url(#pfbae4a9184)" style="fill: #ff0000"/>
   </g>
   <g id="patch_66">
    <path d="M 400.357287 191.593231 
L 393.550344 191.593231 
L 392.475563 192.24 
L 388.096828 192.24 
L 394.350096 188.689616 
L 399.543059 188.689616 
L 405.796327 192.24 
L 401.421211 192.24 
L 400.357287 191.593231 
z
M 394.635981 190.934287 
L 399.260793 190.934287 
L 396.952006 189.522046 
L 394.635981 190.934287 
z
" clip-path="url(#pfbae4a9184)" style="fill: #008000"/>
   </g>
   <g id="patch_67">
    <path d="M 405.796327 188.297003 
Q 404.011304 188.49331 402.091412 188.591911 
Q 400.17152 188.689616 398.124693 188.689616 
Q 393.499499 188.689616 390.798164 188.105179 
Q 388.096828 187.520741 388.096828 186.521281 
Q 388.096828 185.510169 390.845764 184.930213 
Q 393.598667 184.350258 398.386497 184.350258 
Q 400.231021 184.350258 401.920843 184.429139 
Q 403.614632 184.507124 405.114052 184.6613 
L 405.114052 185.526304 
Q 403.567031 185.328204 402.035878 185.230499 
Q 400.504724 185.131898 398.965637 185.131898 
Q 396.117533 185.131898 394.57448 185.492241 
Q 393.031426 185.851688 393.031426 186.521281 
Q 393.031426 187.1846 394.518946 187.546736 
Q 396.006465 187.907976 398.743501 187.907976 
Q 399.489244 187.907976 400.127886 187.887359 
Q 400.766528 187.865846 401.274268 187.821027 
L 401.274268 187.00891 
L 398.35873 187.00891 
L 398.35873 186.285534 
L 405.796327 186.285534 
L 405.796327 188.297003 
z
" clip-path="url(#pfbae4a9184)" style="fill: #ffa600"/>
   </g>
   <g id="patch_68">
    <path d="M 405.796327 183.021258 
Q 404.315795 183.680013 402.714857 184.01322 
Q 401.11392 184.350258 399.370281 184.350258 
Q 394.170579 184.350258 391.133704 181.853116 
Q 388.096828 179.355974 388.096828 175.085556 
Q 388.096828 170.799817 391.133704 168.306505 
Q 394.170579 165.809364 399.370281 165.809364 
Q 401.11392 165.809364 402.714857 166.146401 
Q 404.315795 166.479609 405.796327 167.138364 
L 405.796327 170.834287 
Q 404.302416 169.961053 402.8531 169.555076 
Q 401.403783 169.149099 399.802846 169.149099 
Q 396.93097 169.149099 395.285438 170.730878 
Q 393.644366 172.308826 393.644366 175.085556 
Q 393.644366 177.850795 395.285438 179.432574 
Q 396.93097 181.010522 399.802846 181.010522 
Q 401.403783 181.010522 402.8531 180.604545 
Q 404.302416 180.194738 405.796327 179.321505 
L 405.796327 183.021258 
z
" clip-path="url(#pfbae4a9184)" style="fill: #0000ff"/>
   </g>
   <g id="patch_69">
    <path d="M 388.096828 124.388217 
L 405.796327 124.388217 
L 405.796327 132.466495 
L 399.428624 132.466495 
L 399.428624 165.809364 
L 394.47688 165.809364 
L 394.47688 132.466495 
L 388.096828 132.466495 
L 388.096828 124.388217 
z
" clip-path="url(#pfbae4a9184)" style="fill: #ff0000"/>
   </g>
   <g id="patch_70">
    <path d="M 424.427379 191.785913 
Q 422.642356 192.012957 420.722464 192.126997 
Q 418.802572 192.24 416.755745 192.24 
Q 412.130551 192.24 409.429215 191.564054 
Q 406.72788 190.888108 406.72788 189.732157 
Q 406.72788 188.562728 409.476816 187.891966 
Q 412.229719 187.221203 417.017548 187.221203 
Q 418.862073 187.221203 420.551895 187.312435 
Q 422.245684 187.40263 423.745103 187.580948 
L 423.745103 188.581389 
Q 422.198083 188.352273 420.66693 188.239269 
Q 419.135776 188.125229 417.596689 188.125229 
Q 414.748585 188.125229 413.205532 188.541994 
Q 411.662478 188.957721 411.662478 189.732157 
Q 411.662478 190.499335 413.149997 190.918173 
Q 414.637517 191.335974 417.374553 191.335974 
Q 418.120296 191.335974 418.758938 191.312129 
Q 419.39758 191.287248 419.90532 191.235411 
L 419.90532 190.296136 
L 416.989781 190.296136 
L 416.989781 189.459497 
L 424.427379 189.459497 
L 424.427379 191.785913 
z
" clip-path="url(#pfbae4a9184)" style="fill: #ffa600"/>
   </g>
   <g id="patch_71">
    <path d="M 424.427379 186.591651 
Q 422.946846 186.903705 421.345909 187.061547 
Q 419.744972 187.221203 418.001333 187.221203 
Q 412.801631 187.221203 409.764755 186.038297 
Q 406.72788 184.855391 406.72788 182.832477 
Q 406.72788 180.802306 409.764755 179.621215 
Q 412.801631 178.438309 418.001333 178.438309 
Q 419.744972 178.438309 421.345909 178.597965 
Q 422.946846 178.755806 424.427379 179.067861 
L 424.427379 180.818635 
Q 422.933468 180.40498 421.484152 180.212667 
Q 420.034835 180.020355 418.433898 180.020355 
Q 415.562021 180.020355 413.91649 180.769649 
Q 412.275417 181.51713 412.275417 182.832477 
Q 412.275417 184.142382 413.91649 184.891677 
Q 415.562021 185.639157 418.433898 185.639157 
Q 420.034835 185.639157 421.484152 185.446844 
Q 422.933468 185.252717 424.427379 184.839063 
L 424.427379 186.591651 
z
" clip-path="url(#pfbae4a9184)" style="fill: #0000ff"/>
   </g>
   <g id="patch_72">
    <path d="M 418.988338 176.724055 
L 412.181395 176.724055 
L 411.106615 178.438309 
L 406.72788 178.438309 
L 412.981148 169.028065 
L 418.174111 169.028065 
L 424.427379 178.438309 
L 420.052263 178.438309 
L 418.988338 176.724055 
z
M 413.267032 174.977533 
L 417.891845 174.977533 
L 415.583058 171.23441 
L 413.267032 174.977533 
z
" clip-path="url(#pfbae4a9184)" style="fill: #008000"/>
   </g>
   <g id="patch_73">
    <path d="M 406.72788 84.335868 
L 424.427379 84.335868 
L 424.427379 100.853206 
L 418.059675 100.853206 
L 418.059675 169.028065 
L 413.107932 169.028065 
L 413.107932 100.853206 
L 406.72788 100.853206 
L 406.72788 84.335868 
z
" clip-path="url(#pfbae4a9184)" style="fill: #ff0000"/>
   </g>
   <g id="patch_74">
    <path d="M 443.058431 192.076788 
Q 441.273407 192.158394 439.353515 192.199383 
Q 437.433623 192.24 435.386797 192.24 
Q 430.761603 192.24 428.060267 191.997045 
Q 425.358932 191.754091 425.358932 191.338608 
Q 425.358932 190.918281 428.107868 190.67719 
Q 430.86077 190.436098 435.6486 190.436098 
Q 437.493124 190.436098 439.182946 190.46889 
Q 440.876735 190.501309 442.376155 190.565401 
L 442.376155 190.924989 
Q 440.829135 190.842638 439.297981 190.802021 
Q 437.766828 190.761032 436.227741 190.761032 
Q 433.379637 190.761032 431.836583 190.910829 
Q 430.29353 191.060254 430.29353 191.338608 
Q 430.29353 191.614354 431.781049 191.764897 
Q 433.268569 191.915067 436.005605 191.915067 
Q 436.751348 191.915067 437.38999 191.906496 
Q 438.028631 191.897553 438.536371 191.878922 
L 438.536371 191.541319 
L 435.620833 191.541319 
L 435.620833 191.240606 
L 443.058431 191.240606 
L 443.058431 192.076788 
z
" clip-path="url(#pfbae4a9184)" style="fill: #ffa600"/>
   </g>
   <g id="patch_75">
    <path d="M 437.61939 188.902563 
L 430.812447 188.902563 
L 429.737667 190.436098 
L 425.358932 190.436098 
L 431.6122 182.01789 
L 436.805163 182.01789 
L 443.058431 190.436098 
L 438.683314 190.436098 
L 437.61939 188.902563 
z
M 431.898084 187.340161 
L 436.522897 187.340161 
L 434.214109 183.991641 
L 431.898084 187.340161 
z
" clip-path="url(#pfbae4a9184)" style="fill: #008000"/>
   </g>
   <g id="patch_76">
    <path d="M 443.058431 180.897268 
Q 441.577898 181.452735 439.976961 181.733698 
Q 438.376024 182.01789 436.632384 182.01789 
Q 431.432683 182.01789 428.395807 179.912283 
Q 425.358932 177.806675 425.358932 174.205827 
Q 425.358932 170.592062 428.395807 168.489684 
Q 431.432683 166.384076 436.632384 166.384076 
Q 438.376024 166.384076 439.976961 166.668268 
Q 441.577898 166.949231 443.058431 167.504698 
L 443.058431 170.621127 
Q 441.56452 169.88481 440.115203 169.542488 
Q 438.665887 169.200165 437.06495 169.200165 
Q 434.193073 169.200165 432.547541 170.533932 
Q 430.906469 171.864469 430.906469 174.205827 
Q 430.906469 176.537497 432.547541 177.871264 
Q 434.193073 179.201802 437.06495 179.201802 
Q 438.665887 179.201802 440.115203 178.859479 
Q 441.56452 178.513927 443.058431 177.77761 
L 443.058431 180.897268 
z
" clip-path="url(#pfbae4a9184)" style="fill: #0000ff"/>
   </g>
   <g id="patch_77">
    <path d="M 425.358932 88.816304 
L 443.058431 88.816304 
L 443.058431 103.94418 
L 436.690727 103.94418 
L 436.690727 166.384076 
L 431.738984 166.384076 
L 431.738984 103.94418 
L 425.358932 103.94418 
L 425.358932 88.816304 
z
" clip-path="url(#pfbae4a9184)" style="fill: #ff0000"/>
   </g>
   <g id="patch_78">
    <path d="M 461.689482 192.093223 
Q 459.904459 192.166612 457.984567 192.203473 
Q 456.064675 192.24 454.017848 192.24 
Q 449.392654 192.24 446.691319 192.02151 
Q 443.989983 191.803021 443.989983 191.429377 
Q 443.989983 191.051376 446.738919 190.834562 
Q 449.491822 190.617748 454.279652 190.617748 
Q 456.124176 190.617748 457.813998 190.647238 
Q 459.507787 190.676392 461.007207 190.73403 
L 461.007207 191.057408 
Q 459.460187 190.98335 457.929033 190.946823 
Q 456.39788 190.909961 454.858793 190.909961 
Q 452.010689 190.909961 450.467635 191.044674 
Q 448.924581 191.179052 448.924581 191.429377 
Q 448.924581 191.677356 450.412101 191.812739 
Q 451.899621 191.947787 454.636656 191.947787 
Q 455.3824 191.947787 456.021041 191.940079 
Q 456.659683 191.932037 457.167423 191.915282 
L 457.167423 191.611675 
L 454.251885 191.611675 
L 454.251885 191.341244 
L 461.689482 191.341244 
L 461.689482 192.093223 
z
" clip-path="url(#pfbae4a9184)" style="fill: #ffa600"/>
   </g>
   <g id="patch_79">
    <path d="M 461.689482 190.191381 
Q 460.20895 190.402721 458.608013 190.50962 
Q 457.007075 190.617748 455.263436 190.617748 
Q 450.063734 190.617748 447.026859 189.81662 
Q 443.989983 189.015491 443.989983 187.645463 
Q 443.989983 186.27052 447.026859 185.47062 
Q 450.063734 184.669492 455.263436 184.669492 
Q 457.007075 184.669492 458.608013 184.777619 
Q 460.20895 184.884518 461.689482 185.095859 
L 461.689482 186.281578 
Q 460.195572 186.001429 458.746255 185.871184 
Q 457.296939 185.74094 455.696001 185.74094 
Q 452.824125 185.74094 451.178593 186.248403 
Q 449.537521 186.754637 449.537521 187.645463 
Q 449.537521 188.532602 451.178593 189.040066 
Q 452.824125 189.5463 455.696001 189.5463 
Q 457.296939 189.5463 458.746255 189.416055 
Q 460.195572 189.284582 461.689482 189.004433 
L 461.689482 190.191381 
z
" clip-path="url(#pfbae4a9184)" style="fill: #0000ff"/>
   </g>
   <g id="patch_80">
    <path d="M 456.250442 182.732169 
L 449.443499 182.732169 
L 448.368719 184.669492 
L 443.989983 184.669492 
L 450.243251 174.03473 
L 455.436214 174.03473 
L 461.689482 184.669492 
L 457.314366 184.669492 
L 456.250442 182.732169 
z
M 450.529136 180.758379 
L 455.153949 180.758379 
L 452.845161 176.528178 
L 450.529136 180.758379 
z
" clip-path="url(#pfbae4a9184)" style="fill: #008000"/>
   </g>
   <g id="patch_81">
    <path d="M 443.989983 161.236965 
L 461.689482 161.236965 
L 461.689482 163.732886 
L 455.321779 163.732886 
L 455.321779 174.03473 
L 450.370035 174.03473 
L 450.370035 163.732886 
L 443.989983 163.732886 
L 443.989983 161.236965 
z
" clip-path="url(#pfbae4a9184)" style="fill: #ff0000"/>
   </g>
   <g id="patch_82">
    <path d="M 480.320534 192.034691 
Q 478.840002 192.136458 477.239064 192.187933 
Q 475.638127 192.24 473.894488 192.24 
Q 468.694786 192.24 465.657911 191.854232 
Q 462.621035 191.468463 462.621035 190.808752 
Q 462.621035 190.146674 465.657911 189.761497 
Q 468.694786 189.375729 473.894488 189.375729 
Q 475.638127 189.375729 477.239064 189.427796 
Q 478.840002 189.479271 480.320534 189.581038 
L 480.320534 190.151999 
Q 478.826623 190.017098 477.377307 189.954381 
Q 475.92799 189.891665 474.327053 189.891665 
Q 471.455177 189.891665 469.809645 190.136024 
Q 468.168573 190.379792 468.168573 190.808752 
Q 468.168573 191.235937 469.809645 191.480297 
Q 471.455177 191.724064 474.327053 191.724064 
Q 475.92799 191.724064 477.377307 191.661347 
Q 478.826623 191.598039 480.320534 191.463138 
L 480.320534 192.034691 
z
" clip-path="url(#pfbae4a9184)" style="fill: #0000ff"/>
   </g>
   <g id="patch_83">
    <path d="M 480.320534 188.442785 
Q 478.535511 188.909257 476.615619 189.143558 
Q 474.695727 189.375729 472.6489 189.375729 
Q 468.023706 189.375729 465.322371 187.986963 
Q 462.621035 186.598196 462.621035 184.223236 
Q 462.621035 181.820585 465.369971 180.442469 
Q 468.122874 179.064353 472.910704 179.064353 
Q 474.755228 179.064353 476.44505 179.251794 
Q 478.138839 179.437105 479.638259 179.803466 
L 479.638259 181.858925 
Q 478.091238 181.388193 476.560085 181.156022 
Q 475.028931 180.921721 473.489844 180.921721 
Q 470.64174 180.921721 469.098687 181.777985 
Q 467.555633 182.632119 467.555633 184.223236 
Q 467.555633 185.799443 469.043153 186.659967 
Q 470.530672 187.518361 473.267708 187.518361 
Q 474.013451 187.518361 474.652093 187.46937 
Q 475.290735 187.41825 475.798475 187.31175 
L 475.798475 185.381961 
L 472.882937 185.381961 
L 472.882937 183.663043 
L 480.320534 183.663043 
L 480.320534 188.442785 
z
" clip-path="url(#pfbae4a9184)" style="fill: #ffa600"/>
   </g>
   <g id="patch_84">
    <path d="M 462.621035 167.607268 
L 480.320534 167.607268 
L 480.320534 169.841719 
L 473.952831 169.841719 
L 473.952831 179.064353 
L 469.001087 179.064353 
L 469.001087 169.841719 
L 462.621035 169.841719 
L 462.621035 167.607268 
z
" clip-path="url(#pfbae4a9184)" style="fill: #ff0000"/>
   </g>
   <g id="patch_85">
    <path d="M 474.881494 154.145317 
L 468.074551 154.145317 
L 466.99977 167.607268 
L 462.621035 167.607268 
L 468.874303 93.709073 
L 474.067266 93.709073 
L 480.320534 167.607268 
L 475.945418 167.607268 
L 474.881494 154.145317 
z
M 469.160188 140.429964 
L 473.785 140.429964 
L 471.476213 111.035397 
L 469.160188 140.429964 
z
" clip-path="url(#pfbae4a9184)" style="fill: #008000"/>
   </g>
   <g id="patch_86">
    <path d="M 498.951586 191.852524 
Q 497.471053 192.044587 495.870116 192.141735 
Q 494.269179 192.24 492.52554 192.24 
Q 487.325838 192.24 484.288962 191.511948 
Q 481.252087 190.783896 481.252087 189.538838 
Q 481.252087 188.289313 484.288962 187.562377 
Q 487.325838 186.834325 492.52554 186.834325 
Q 494.269179 186.834325 495.870116 186.93259 
Q 497.471053 187.029738 498.951586 187.221801 
L 498.951586 188.299363 
Q 497.457675 188.044768 496.008359 187.926403 
Q 494.559042 187.808039 492.958105 187.808039 
Q 490.086228 187.808039 488.440697 188.269213 
Q 486.799624 188.729271 486.799624 189.538838 
Q 486.799624 190.345055 488.440697 190.806229 
Q 490.086228 191.266286 492.958105 191.266286 
Q 494.559042 191.266286 496.008359 191.147922 
Q 497.457675 191.028441 498.951586 190.773846 
L 498.951586 191.852524 
z
" clip-path="url(#pfbae4a9184)" style="fill: #0000ff"/>
   </g>
   <g id="patch_87">
    <path d="M 498.951586 186.275365 
Q 497.166563 186.554845 495.246671 186.695223 
Q 493.326779 186.834325 491.279952 186.834325 
Q 486.654758 186.834325 483.953422 186.002266 
Q 481.252087 185.170207 481.252087 183.747283 
Q 481.252087 182.307769 484.001023 181.48209 
Q 486.753926 180.656412 491.541755 180.656412 
Q 493.38628 180.656412 495.076102 180.768714 
Q 496.769891 180.879741 498.26931 181.099241 
L 498.26931 182.33074 
Q 496.72229 182.048707 495.191137 181.909605 
Q 493.659983 181.769227 492.120896 181.769227 
Q 489.272792 181.769227 487.729739 182.282246 
Q 486.186685 182.793988 486.186685 183.747283 
Q 486.186685 184.691645 487.674205 185.207215 
Q 489.161724 185.72151 491.89876 185.72151 
Q 492.644503 185.72151 493.283145 185.692158 
Q 493.921787 185.66153 494.429527 185.597722 
L 494.429527 184.441516 
L 491.513988 184.441516 
L 491.513988 183.411651 
L 498.951586 183.411651 
L 498.951586 186.275365 
z
" clip-path="url(#pfbae4a9184)" style="fill: #ffa600"/>
   </g>
   <g id="patch_88">
    <path d="M 481.252087 171.389541 
L 498.951586 171.389541 
L 498.951586 173.196839 
L 492.583882 173.196839 
L 492.583882 180.656412 
L 487.632139 180.656412 
L 487.632139 173.196839 
L 481.252087 173.196839 
L 481.252087 171.389541 
z
" clip-path="url(#pfbae4a9184)" style="fill: #ff0000"/>
   </g>
   <g id="patch_89">
    <path d="M 493.512545 150.991238 
L 486.705603 150.991238 
L 485.630822 171.389541 
L 481.252087 171.389541 
L 487.505355 59.414854 
L 492.698318 59.414854 
L 498.951586 171.389541 
L 494.57647 171.389541 
L 493.512545 150.991238 
z
M 487.791239 130.208966 
L 492.416052 130.208966 
L 490.107265 85.66867 
L 487.791239 130.208966 
z
" clip-path="url(#pfbae4a9184)" style="fill: #008000"/>
   </g>
   <g id="patch_90">
    <path d="M 517.582638 192.094032 
Q 516.102105 192.166385 514.501168 192.202982 
Q 512.900231 192.24 511.156591 192.24 
Q 505.95689 192.24 502.920014 191.965732 
Q 499.883139 191.691463 499.883139 191.222431 
Q 499.883139 190.751716 502.920014 190.477868 
Q 505.95689 190.2036 511.156591 190.2036 
Q 512.900231 190.2036 514.501168 190.240618 
Q 516.102105 190.277215 517.582638 190.349568 
L 517.582638 190.755502 
Q 516.088727 190.659592 514.63941 190.615003 
Q 513.190094 190.570413 511.589157 190.570413 
Q 508.71728 190.570413 507.071748 190.744144 
Q 505.430676 190.917455 505.430676 191.222431 
Q 505.430676 191.526145 507.071748 191.699877 
Q 508.71728 191.873187 511.589157 191.873187 
Q 513.190094 191.873187 514.63941 191.828598 
Q 516.088727 191.783587 517.582638 191.687678 
L 517.582638 192.094032 
z
" clip-path="url(#pfbae4a9184)" style="fill: #0000ff"/>
   </g>
   <g id="patch_91">
    <path d="M 512.143597 188.8846 
L 505.336654 188.8846 
L 504.261874 190.2036 
L 499.883139 190.2036 
L 506.136407 182.963067 
L 511.32937 182.963067 
L 517.582638 190.2036 
L 513.207521 190.2036 
L 512.143597 188.8846 
z
M 506.422291 187.540772 
L 511.047104 187.540772 
L 508.738316 184.660697 
L 506.422291 187.540772 
z
" clip-path="url(#pfbae4a9184)" style="fill: #008000"/>
   </g>
   <g id="patch_92">
    <path d="M 517.582638 182.082773 
Q 515.797614 182.52292 513.877722 182.743998 
Q 511.957831 182.963067 509.911004 182.963067 
Q 505.28581 182.963067 502.584474 181.652674 
Q 499.883139 180.342281 499.883139 178.101349 
Q 499.883139 175.834289 502.632075 174.533945 
Q 505.384978 173.233601 510.172807 173.233601 
Q 512.017331 173.233601 513.707153 173.410464 
Q 515.400942 173.585317 516.900362 173.931003 
L 516.900362 175.870465 
Q 515.353342 175.426298 513.822188 175.207229 
Q 512.291035 174.986151 510.751948 174.986151 
Q 507.903844 174.986151 506.36079 175.794093 
Q 504.817737 176.600024 504.817737 178.101349 
Q 504.817737 179.588604 506.305256 180.400566 
Q 507.792776 181.210517 510.529812 181.210517 
Q 511.275555 181.210517 511.914197 181.164292 
Q 512.552838 181.116056 513.060578 181.015566 
L 513.060578 179.194683 
L 510.14504 179.194683 
L 510.14504 177.57277 
L 517.582638 177.57277 
L 517.582638 182.082773 
z
" clip-path="url(#pfbae4a9184)" style="fill: #ffa600"/>
   </g>
   <g id="patch_93">
    <path d="M 499.883139 153.322135 
L 517.582638 153.322135 
L 517.582638 157.205426 
L 511.214934 157.205426 
L 511.214934 173.233601 
L 506.263191 173.233601 
L 506.263191 157.205426 
L 499.883139 157.205426 
L 499.883139 153.322135 
z
" clip-path="url(#pfbae4a9184)" style="fill: #ff0000"/>
   </g>
   <g id="patch_94">
    <path d="M 536.213689 192.056697 
Q 534.733157 192.147556 533.13222 192.193514 
Q 531.531282 192.24 529.787643 192.24 
Q 524.587941 192.24 521.551066 191.89558 
Q 518.51419 191.55116 518.51419 190.96216 
Q 518.51419 190.371047 521.551066 190.027156 
Q 524.587941 189.682736 529.787643 189.682736 
Q 531.531282 189.682736 533.13222 189.729222 
Q 534.733157 189.77518 536.213689 189.866039 
L 536.213689 190.375801 
Q 534.719779 190.25536 533.270462 190.199365 
Q 531.821146 190.143371 530.220208 190.143371 
Q 527.348332 190.143371 525.7028 190.361539 
Q 524.061728 190.579178 524.061728 190.96216 
Q 524.061728 191.343558 525.7028 191.561725 
Q 527.348332 191.779365 530.220208 191.779365 
Q 531.821146 191.779365 533.270462 191.72337 
Q 534.719779 191.666847 536.213689 191.546406 
L 536.213689 192.056697 
z
" clip-path="url(#pfbae4a9184)" style="fill: #0000ff"/>
   </g>
   <g id="patch_95">
    <path d="M 530.774649 188.378345 
L 523.967706 188.378345 
L 522.892926 189.682736 
L 518.51419 189.682736 
L 524.767458 182.522396 
L 529.960421 182.522396 
L 536.213689 189.682736 
L 531.838573 189.682736 
L 530.774649 188.378345 
z
M 525.053343 187.0494 
L 529.678156 187.0494 
L 527.369368 184.201224 
L 525.053343 187.0494 
z
" clip-path="url(#pfbae4a9184)" style="fill: #008000"/>
   </g>
   <g id="patch_96">
    <path d="M 536.213689 181.041602 
Q 534.428666 181.781999 532.508774 182.153888 
Q 530.588882 182.522396 528.542055 182.522396 
Q 523.916861 182.522396 521.215526 180.318109 
Q 518.51419 178.113822 518.51419 174.344221 
Q 518.51419 170.53067 521.263126 168.343287 
Q 524.016029 166.155904 528.803859 166.155904 
Q 530.648383 166.155904 532.338205 166.453415 
Q 534.031994 166.747546 535.531414 167.329045 
L 535.531414 170.591524 
Q 533.984394 169.844366 532.45324 169.475858 
Q 530.922087 169.103969 529.383 169.103969 
Q 526.534896 169.103969 524.991842 170.463054 
Q 523.448788 171.818758 523.448788 174.344221 
Q 523.448788 176.846019 524.936308 178.211866 
Q 526.423828 179.574331 529.160864 179.574331 
Q 529.906607 179.574331 530.545248 179.496573 
Q 531.18389 179.415433 531.69163 179.246393 
L 531.69163 176.183381 
L 528.776092 176.183381 
L 528.776092 173.455069 
L 536.213689 173.455069 
L 536.213689 181.041602 
z
" clip-path="url(#pfbae4a9184)" style="fill: #ffa600"/>
   </g>
   <g id="patch_97">
    <path d="M 518.51419 104.270109 
L 536.213689 104.270109 
L 536.213689 116.339563 
L 529.845986 116.339563 
L 529.845986 166.155904 
L 524.894242 166.155904 
L 524.894242 116.339563 
L 518.51419 116.339563 
L 518.51419 104.270109 
z
" clip-path="url(#pfbae4a9184)" style="fill: #ff0000"/>
   </g>
   <g id="patch_98">
    <path d="M 554.844741 192.140842 
Q 553.059718 192.190421 551.139826 192.215324 
Q 549.219934 192.24 547.173107 192.24 
Q 542.547913 192.24 539.846578 192.092395 
Q 537.145242 191.944789 537.145242 191.692366 
Q 537.145242 191.436999 539.894178 191.290526 
Q 542.647081 191.144052 547.434911 191.144052 
Q 549.279435 191.144052 550.969257 191.163974 
Q 552.663046 191.18367 554.162466 191.222609 
L 554.162466 191.441074 
Q 552.615445 191.391042 551.084292 191.366366 
Q 549.553138 191.341463 548.014052 191.341463 
Q 545.165947 191.341463 543.622894 191.432471 
Q 542.07984 191.523253 542.07984 191.692366 
Q 542.07984 191.859893 543.56736 191.951354 
Q 545.054879 192.042589 547.791915 192.042589 
Q 548.537658 192.042589 549.1763 192.037382 
Q 549.814942 192.031949 550.322682 192.020629 
L 550.322682 191.815521 
L 547.407144 191.815521 
L 547.407144 191.632825 
L 554.844741 191.632825 
L 554.844741 192.140842 
z
" clip-path="url(#pfbae4a9184)" style="fill: #ffa600"/>
   </g>
   <g id="patch_99">
    <path d="M 554.844741 190.62034 
Q 553.364209 190.879932 551.763271 191.011237 
Q 550.162334 191.144052 548.418695 191.144052 
Q 543.218993 191.144052 540.182118 190.160016 
Q 537.145242 189.17598 537.145242 187.493157 
Q 537.145242 185.804297 540.182118 184.82177 
Q 543.218993 183.837734 548.418695 183.837734 
Q 550.162334 183.837734 551.763271 183.970548 
Q 553.364209 184.101854 554.844741 184.361446 
L 554.844741 185.81788 
Q 553.35083 185.473769 551.901514 185.313788 
Q 550.452197 185.153807 548.85126 185.153807 
Q 545.979384 185.153807 544.333852 185.77713 
Q 542.69278 186.398945 542.69278 187.493157 
Q 542.69278 188.582841 544.333852 189.206165 
Q 545.979384 189.827979 548.85126 189.827979 
Q 550.452197 189.827979 551.901514 189.667998 
Q 553.35083 189.506507 554.844741 189.162396 
L 554.844741 190.62034 
z
" clip-path="url(#pfbae4a9184)" style="fill: #0000ff"/>
   </g>
   <g id="patch_100">
    <path d="M 549.405701 180.177528 
L 542.598758 180.177528 
L 541.523977 183.837734 
L 537.145242 183.837734 
L 543.39851 163.745357 
L 548.591473 163.745357 
L 554.844741 183.837734 
L 550.469625 183.837734 
L 549.405701 180.177528 
z
M 543.684395 176.448424 
L 548.309208 176.448424 
L 546.00042 168.456257 
L 543.684395 176.448424 
z
" clip-path="url(#pfbae4a9184)" style="fill: #008000"/>
   </g>
   <g id="patch_101">
    <path d="M 537.145242 129.405659 
L 554.844741 129.405659 
L 554.844741 136.102857 
L 548.477038 136.102857 
L 548.477038 163.745357 
L 543.525294 163.745357 
L 543.525294 136.102857 
L 537.145242 136.102857 
L 537.145242 129.405659 
z
" clip-path="url(#pfbae4a9184)" style="fill: #ff0000"/>
   </g>
   <g id="patch_102">
    <path d="M 555.776294 186.111888 
L 573.475793 186.111888 
L 573.475793 187.30704 
L 567.108089 187.30704 
L 567.108089 192.24 
L 562.156346 192.24 
L 562.156346 187.30704 
L 555.776294 187.30704 
L 555.776294 186.111888 
z
" clip-path="url(#pfbae4a9184)" style="fill: #ff0000"/>
   </g>
   <g id="patch_103">
    <path d="M 573.475793 185.501988 
Q 571.69077 185.806938 569.770878 185.960109 
Q 567.850986 186.111888 565.804159 186.111888 
Q 561.178965 186.111888 558.477629 185.204001 
Q 555.776294 184.296113 555.776294 182.743515 
Q 555.776294 181.172814 558.52523 180.271889 
Q 561.278133 179.370964 566.065962 179.370964 
Q 567.910487 179.370964 569.600309 179.493501 
Q 571.294098 179.614646 572.793517 179.85415 
L 572.793517 181.197878 
Q 571.246497 180.890144 569.715344 180.738365 
Q 568.18419 180.585194 566.645103 180.585194 
Q 563.796999 180.585194 562.253946 181.144965 
Q 560.710892 181.703343 560.710892 182.743515 
Q 560.710892 183.773939 562.198412 184.336495 
Q 563.685931 184.897658 566.422967 184.897658 
Q 567.16871 184.897658 567.807352 184.865631 
Q 568.445994 184.832212 568.953734 184.762589 
L 568.953734 183.501016 
L 566.038195 183.501016 
L 566.038195 182.377296 
L 573.475793 182.377296 
L 573.475793 185.501988 
z
" clip-path="url(#pfbae4a9184)" style="fill: #ffa600"/>
   </g>
   <g id="patch_104">
    <path d="M 573.475793 178.624223 
Q 571.99526 178.994366 570.394323 179.181589 
Q 568.793386 179.370964 567.049747 179.370964 
Q 561.850045 179.370964 558.813169 177.967866 
Q 555.776294 176.564767 555.776294 174.165297 
Q 555.776294 171.757218 558.813169 170.356272 
Q 561.850045 168.953173 567.049747 168.953173 
Q 568.793386 168.953173 570.394323 169.142549 
Q 571.99526 169.329772 573.475793 169.699914 
L 573.475793 171.776586 
Q 571.981882 171.285932 570.532566 171.057821 
Q 569.083249 170.82971 567.482312 170.82971 
Q 564.610435 170.82971 562.964904 171.718483 
Q 561.323831 172.605103 561.323831 174.165297 
Q 561.323831 175.719035 562.964904 176.607807 
Q 564.610435 177.494428 567.482312 177.494428 
Q 569.083249 177.494428 570.532566 177.266317 
Q 571.981882 177.036053 573.475793 176.545399 
L 573.475793 178.624223 
z
" clip-path="url(#pfbae4a9184)" style="fill: #0000ff"/>
   </g>
   <g id="patch_105">
    <path d="M 568.036752 153.994065 
L 561.22981 153.994065 
L 560.155029 168.953173 
L 555.776294 168.953173 
L 562.029562 86.836469 
L 567.222525 86.836469 
L 573.475793 168.953173 
L 569.100677 168.953173 
L 568.036752 153.994065 
z
M 562.315446 138.753374 
L 566.940259 138.753374 
L 564.631472 106.089721 
L 562.315446 138.753374 
z
" clip-path="url(#pfbae4a9184)" style="fill: #008000"/>
   </g>
   <g id="patch_106">
    <path d="M 592.106845 192.115199 
Q 590.626312 192.17706 589.025375 192.20835 
Q 587.424438 192.24 585.680798 192.24 
Q 580.481097 192.24 577.444221 192.005503 
Q 574.407346 191.771006 574.407346 191.369988 
Q 574.407346 190.967531 577.444221 190.733394 
Q 580.481097 190.498897 585.680798 190.498897 
Q 587.424438 190.498897 589.025375 190.530547 
Q 590.626312 190.561837 592.106845 190.623698 
L 592.106845 190.970768 
Q 590.612934 190.888766 589.163617 190.850642 
Q 587.714301 190.812518 586.113364 190.812518 
Q 583.241487 190.812518 581.595955 190.961057 
Q 579.954883 191.109236 579.954883 191.369988 
Q 579.954883 191.629661 581.595955 191.778199 
Q 583.241487 191.926378 586.113364 191.926378 
Q 587.714301 191.926378 589.163617 191.888255 
Q 590.612934 191.849771 592.106845 191.767769 
L 592.106845 192.115199 
z
" clip-path="url(#pfbae4a9184)" style="fill: #0000ff"/>
   </g>
   <g id="patch_107">
    <path d="M 592.106845 190.1543 
Q 590.321821 190.326598 588.401929 190.413141 
Q 586.482038 190.498897 584.435211 190.498897 
Q 579.810017 190.498897 577.108681 189.985935 
Q 574.407346 189.472973 574.407346 188.595745 
Q 574.407346 187.70829 577.156282 187.199262 
Q 579.909185 186.690234 584.697014 186.690234 
Q 586.541538 186.690234 588.23136 186.759468 
Q 589.925149 186.827915 591.424569 186.963237 
L 591.424569 187.722452 
Q 589.877549 187.548579 588.346395 187.462824 
Q 586.815242 187.376281 585.276155 187.376281 
Q 582.428051 187.376281 580.884997 187.692555 
Q 579.341944 188.008042 579.341944 188.595745 
Q 579.341944 189.177941 580.829463 189.495789 
Q 582.316983 189.81285 585.054019 189.81285 
Q 585.799762 189.81285 586.438404 189.794754 
Q 587.077045 189.775872 587.584785 189.736535 
L 587.584785 189.023738 
L 584.669247 189.023738 
L 584.669247 188.38883 
L 592.106845 188.38883 
L 592.106845 190.1543 
z
" clip-path="url(#pfbae4a9184)" style="fill: #ffa600"/>
   </g>
   <g id="patch_108">
    <path d="M 574.407346 180.814011 
L 592.106845 180.814011 
L 592.106845 181.960038 
L 585.739141 181.960038 
L 585.739141 186.690234 
L 580.787398 186.690234 
L 580.787398 181.960038 
L 574.407346 181.960038 
L 574.407346 180.814011 
z
" clip-path="url(#pfbae4a9184)" style="fill: #ff0000"/>
   </g>
   <g id="patch_109">
    <path d="M 586.667804 179.485841 
L 579.860861 179.485841 
L 578.786081 180.814011 
L 574.407346 180.814011 
L 580.660614 173.523141 
L 585.853577 173.523141 
L 592.106845 180.814011 
L 587.731728 180.814011 
L 586.667804 179.485841 
z
M 580.946498 178.132671 
L 585.571311 178.132671 
L 583.262523 175.232574 
L 580.946498 178.132671 
z
" clip-path="url(#pfbae4a9184)" style="fill: #008000"/>
   </g>
   <g id="patch_110">
    <path d="M 610.737896 191.946885 
Q 609.257364 192.092175 607.656427 192.165665 
Q 606.055489 192.24 604.31185 192.24 
Q 599.112148 192.24 596.075273 191.689248 
Q 593.038397 191.138496 593.038397 190.196643 
Q 593.038397 189.25141 596.075273 188.701503 
Q 599.112148 188.150751 604.31185 188.150751 
Q 606.055489 188.150751 607.656427 188.225086 
Q 609.257364 188.298575 610.737896 188.443866 
L 610.737896 189.259013 
Q 609.243986 189.066418 607.794669 188.976879 
Q 606.345353 188.887339 604.744415 188.887339 
Q 601.872539 188.887339 600.227007 189.236205 
Q 598.585935 189.584227 598.585935 190.196643 
Q 598.585935 190.806524 600.227007 191.15539 
Q 601.872539 191.503411 604.744415 191.503411 
Q 606.345353 191.503411 607.794669 191.413872 
Q 609.243986 191.323488 610.737896 191.130894 
L 610.737896 191.946885 
z
" clip-path="url(#pfbae4a9184)" style="fill: #0000ff"/>
   </g>
   <g id="patch_111">
    <path d="M 610.737896 187.318288 
Q 608.952873 187.734519 607.032981 187.943585 
Q 605.113089 188.150751 603.066262 188.150751 
Q 598.441068 188.150751 595.739733 186.911559 
Q 593.038397 185.672367 593.038397 183.553197 
Q 593.038397 181.409318 595.787333 180.179629 
Q 598.540236 178.94994 603.328066 178.94994 
Q 605.17259 178.94994 606.862412 179.117193 
Q 608.556201 179.282546 610.055621 179.609449 
L 610.055621 181.443529 
Q 608.508601 181.023496 606.977447 180.816331 
Q 605.446294 180.607265 603.907207 180.607265 
Q 601.059103 180.607265 599.516049 181.371306 
Q 597.972995 182.133447 597.972995 183.553197 
Q 597.972995 184.959641 599.460515 185.727484 
Q 600.948035 186.493427 603.685071 186.493427 
Q 604.430814 186.493427 605.069455 186.449713 
Q 605.708097 186.404098 606.215837 186.309068 
L 606.215837 184.587124 
L 603.300299 184.587124 
L 603.300299 183.053338 
L 610.737896 183.053338 
L 610.737896 187.318288 
z
" clip-path="url(#pfbae4a9184)" style="fill: #ffa600"/>
   </g>
   <g id="patch_112">
    <path d="M 605.298856 176.994489 
L 598.491913 176.994489 
L 597.417133 178.94994 
L 593.038397 178.94994 
L 599.291665 168.215661 
L 604.484628 168.215661 
L 610.737896 178.94994 
L 606.36278 178.94994 
L 605.298856 176.994489 
z
M 599.57755 175.002229 
L 604.202363 175.002229 
L 601.893575 170.732443 
L 599.57755 175.002229 
z
" clip-path="url(#pfbae4a9184)" style="fill: #008000"/>
   </g>
   <g id="patch_113">
    <path d="M 593.038397 104.321144 
L 610.737896 104.321144 
L 610.737896 116.782355 
L 604.370193 116.782355 
L 604.370193 168.215661 
L 599.418449 168.215661 
L 599.418449 116.782355 
L 593.038397 116.782355 
L 593.038397 104.321144 
z
" clip-path="url(#pfbae4a9184)" style="fill: #ff0000"/>
   </g>
   <g id="patch_114">
    <path d="M 629.368948 191.942543 
Q 627.888416 192.089986 626.287478 192.164564 
Q 624.686541 192.24 622.942902 192.24 
Q 617.7432 192.24 614.706325 191.68109 
Q 611.669449 191.122181 611.669449 190.166377 
Q 611.669449 189.207144 614.706325 188.649091 
Q 617.7432 188.090181 622.942902 188.090181 
Q 624.686541 188.090181 626.287478 188.165617 
Q 627.888416 188.240196 629.368948 188.387638 
L 629.368948 189.214859 
Q 627.875037 189.019412 626.425721 188.928546 
Q 624.976404 188.83768 623.375467 188.83768 
Q 620.503591 188.83768 618.858059 189.191714 
Q 617.216987 189.54489 617.216987 190.166377 
Q 617.216987 190.785292 618.858059 191.139325 
Q 620.503591 191.492501 623.375467 191.492501 
Q 624.976404 191.492501 626.425721 191.401636 
Q 627.875037 191.309913 629.368948 191.114466 
L 629.368948 191.942543 
z
" clip-path="url(#pfbae4a9184)" style="fill: #0000ff"/>
   </g>
   <g id="patch_115">
    <path d="M 629.368948 187.628072 
Q 627.583925 187.859127 625.664033 187.975182 
Q 623.744141 188.090181 621.697314 188.090181 
Q 617.07212 188.090181 614.370785 187.402293 
Q 611.669449 186.714404 611.669449 185.53803 
Q 611.669449 184.34794 614.418385 183.665326 
Q 617.171288 182.982713 621.959118 182.982713 
Q 623.803642 182.982713 625.493464 183.075556 
Q 627.187253 183.167345 628.686673 183.348813 
L 628.686673 184.366931 
Q 627.139652 184.133766 625.608499 184.018766 
Q 624.077345 183.902711 622.538259 183.902711 
Q 619.690154 183.902711 618.147101 184.326839 
Q 616.604047 184.749912 616.604047 185.53803 
Q 616.604047 186.318762 618.091567 186.745 
Q 619.579086 187.170183 622.316122 187.170183 
Q 623.061865 187.170183 623.700507 187.145917 
Q 624.339149 187.120596 624.846889 187.067844 
L 624.846889 186.111974 
L 621.931351 186.111974 
L 621.931351 185.260553 
L 629.368948 185.260553 
L 629.368948 187.628072 
z
" clip-path="url(#pfbae4a9184)" style="fill: #ffa600"/>
   </g>
   <g id="patch_116">
    <path d="M 611.669449 170.21404 
L 629.368948 170.21404 
L 629.368948 172.704287 
L 623.001245 172.704287 
L 623.001245 182.982713 
L 618.049501 182.982713 
L 618.049501 172.704287 
L 611.669449 172.704287 
L 611.669449 170.21404 
z
" clip-path="url(#pfbae4a9184)" style="fill: #ff0000"/>
   </g>
   <g id="patch_117">
    <path d="M 623.929908 164.224449 
L 617.122965 164.224449 
L 616.048184 170.21404 
L 611.669449 170.21404 
L 617.922717 137.334709 
L 623.11568 137.334709 
L 629.368948 170.21404 
L 624.993832 170.21404 
L 623.929908 164.224449 
z
M 618.208602 158.122113 
L 622.833415 158.122113 
L 620.524627 145.043665 
L 618.208602 158.122113 
z
" clip-path="url(#pfbae4a9184)" style="fill: #008000"/>
   </g>
   <g id="patch_118">
    <path d="M 648 192.087213 
Q 646.214977 192.163606 644.295085 192.201978 
Q 642.375193 192.24 640.328366 192.24 
Q 635.703172 192.24 633.001836 192.012564 
Q 630.300501 191.785127 630.300501 191.396183 
Q 630.300501 191.002704 633.049437 190.777011 
Q 635.80234 190.551319 640.590169 190.551319 
Q 642.434694 190.551319 644.124516 190.582016 
Q 645.818305 190.612364 647.317724 190.672363 
L 647.317724 191.008983 
Q 645.770704 190.931891 644.239551 190.893869 
Q 642.708397 190.855498 641.16931 190.855498 
Q 638.321206 190.855498 636.778153 190.995727 
Q 635.235099 191.135608 635.235099 191.396183 
Q 635.235099 191.654316 636.722619 191.795243 
Q 638.210138 191.935821 640.947174 191.935821 
Q 641.692917 191.935821 642.331559 191.927798 
Q 642.970201 191.919426 643.477941 191.901985 
L 643.477941 191.585946 
L 640.562402 191.585946 
L 640.562402 191.304441 
L 648 191.304441 
L 648 192.087213 
z
" clip-path="url(#pfbae4a9184)" style="fill: #ffa600"/>
   </g>
   <g id="patch_119">
    <path d="M 648 189.825057 
Q 646.519467 190.185049 644.91853 190.367137 
Q 643.317593 190.551319 641.573954 190.551319 
Q 636.374252 190.551319 633.337376 189.1867 
Q 630.300501 187.822082 630.300501 185.488416 
Q 630.300501 183.146378 633.337376 181.783853 
Q 636.374252 180.419234 641.573954 180.419234 
Q 643.317593 180.419234 644.91853 180.603416 
Q 646.519467 180.785504 648 181.145496 
L 648 183.165215 
Q 646.506089 182.688017 645.056773 182.466162 
Q 643.607456 182.244307 642.006519 182.244307 
Q 639.134642 182.244307 637.489111 183.108705 
Q 635.848038 183.97101 635.848038 185.488416 
Q 635.848038 186.999543 637.489111 187.863941 
Q 639.134642 188.726246 642.006519 188.726246 
Q 643.607456 188.726246 645.056773 188.504391 
Q 646.506089 188.280443 648 187.803245 
L 648 189.825057 
z
" clip-path="url(#pfbae4a9184)" style="fill: #0000ff"/>
   </g>
   <g id="patch_120">
    <path d="M 642.560959 177.855691 
L 635.754017 177.855691 
L 634.679236 180.419234 
L 630.300501 180.419234 
L 636.553769 166.346893 
L 641.746732 166.346893 
L 648 180.419234 
L 643.624884 180.419234 
L 642.560959 177.855691 
z
M 636.839653 175.243894 
L 641.464466 175.243894 
L 639.155679 169.646323 
L 636.839653 175.243894 
z
" clip-path="url(#pfbae4a9184)" style="fill: #008000"/>
   </g>
   <g id="patch_121">
    <path d="M 630.300501 95.422296 
L 648 95.422296 
L 648 109.254569 
L 641.632296 109.254569 
L 641.632296 166.346893 
L 636.680553 166.346893 
L 636.680553 109.254569 
L 630.300501 109.254569 
L 630.300501 95.422296 
z
" clip-path="url(#pfbae4a9184)" style="fill: #ff0000"/>
   </g>
   <g id="matplotlib.axis_1">
    <g id="xtick_1">
     <g id="line2d_2">
      <defs>
       <path id="m156ce0eddd" d="M 0 0 
L 0 3.5 
" style="stroke: #000000; stroke-width: 0.8"/>
      </defs>
      <g>
       <use xlink:href="#m156ce0eddd" x="98.84975" y="192.24" style="stroke: #000000; stroke-width: 0.8"/>
      </g>
     </g>
     <g id="text_1">
      <!-- 0 -->
      <g transform="translate(95.6685 206.838437) scale(0.1 -0.1)">
       <defs>
        <path id="DejaVuSans-30" d="M 2034 4250 
Q 1547 4250 1301 3770 
Q 1056 3291 1056 2328 
Q 1056 1369 1301 889 
Q 1547 409 2034 409 
Q 2525 409 2770 889 
Q 3016 1369 3016 2328 
Q 3016 3291 2770 3770 
Q 2525 4250 2034 4250 
z
M 2034 4750 
Q 2819 4750 3233 4129 
Q 3647 3509 3647 2328 
Q 3647 1150 3233 529 
Q 2819 -91 2034 -91 
Q 1250 -91 836 529 
Q 422 1150 422 2328 
Q 422 3509 836 4129 
Q 1250 4750 2034 4750 
z
" transform="scale(0.015625)"/>
       </defs>
       <use xlink:href="#DejaVuSans-30"/>
      </g>
     </g>
    </g>
    <g id="xtick_2">
     <g id="line2d_3">
      <g>
       <use xlink:href="#m156ce0eddd" x="192.005008" y="192.24" style="stroke: #000000; stroke-width: 0.8"/>
      </g>
     </g>
     <g id="text_2">
      <!-- 5 -->
      <g transform="translate(188.823758 206.838437) scale(0.1 -0.1)">
       <defs>
        <path id="DejaVuSans-35" d="M 691 4666 
L 3169 4666 
L 3169 4134 
L 1269 4134 
L 1269 2991 
Q 1406 3038 1543 3061 
Q 1681 3084 1819 3084 
Q 2600 3084 3056 2656 
Q 3513 2228 3513 1497 
Q 3513 744 3044 326 
Q 2575 -91 1722 -91 
Q 1428 -91 1123 -41 
Q 819 9 494 109 
L 494 744 
Q 775 591 1075 516 
Q 1375 441 1709 441 
Q 2250 441 2565 725 
Q 2881 1009 2881 1497 
Q 2881 1984 2565 2268 
Q 2250 2553 1709 2553 
Q 1456 2553 1204 2497 
Q 953 2441 691 2322 
L 691 4666 
z
" transform="scale(0.015625)"/>
       </defs>
       <use xlink:href="#DejaVuSans-35"/>
      </g>
     </g>
    </g>
    <g id="xtick_3">
     <g id="line2d_4">
      <g>
       <use xlink:href="#m156ce0eddd" x="285.160267" y="192.24" style="stroke: #000000; stroke-width: 0.8"/>
      </g>
     </g>
     <g id="text_3">
      <!-- 10 -->
      <g transform="translate(278.797767 206.838437) scale(0.1 -0.1)">
       <defs>
        <path id="DejaVuSans-31" d="M 794 531 
L 1825 531 
L 1825 4091 
L 703 3866 
L 703 4441 
L 1819 4666 
L 2450 4666 
L 2450 531 
L 3481 531 
L 3481 0 
L 794 0 
L 794 531 
z
" transform="scale(0.015625)"/>
       </defs>
       <use xlink:href="#DejaVuSans-31"/>
       <use xlink:href="#DejaVuSans-30" x="63.623047"/>
      </g>
     </g>
    </g>
    <g id="xtick_4">
     <g id="line2d_5">
      <g>
       <use xlink:href="#m156ce0eddd" x="378.315526" y="192.24" style="stroke: #000000; stroke-width: 0.8"/>
      </g>
     </g>
     <g id="text_4">
      <!-- 15 -->
      <g transform="translate(371.953026 206.838437) scale(0.1 -0.1)">
       <use xlink:href="#DejaVuSans-31"/>
       <use xlink:href="#DejaVuSans-35" x="63.623047"/>
      </g>
     </g>
    </g>
    <g id="xtick_5">
     <g id="line2d_6">
      <g>
       <use xlink:href="#m156ce0eddd" x="471.470785" y="192.24" style="stroke: #000000; stroke-width: 0.8"/>
      </g>
     </g>
     <g id="text_5">
      <!-- 20 -->
      <g transform="translate(465.108285 206.838437) scale(0.1 -0.1)">
       <defs>
        <path id="DejaVuSans-32" d="M 1228 531 
L 3431 531 
L 3431 0 
L 469 0 
L 469 531 
Q 828 903 1448 1529 
Q 2069 2156 2228 2338 
Q 2531 2678 2651 2914 
Q 2772 3150 2772 3378 
Q 2772 3750 2511 3984 
Q 2250 4219 1831 4219 
Q 1534 4219 1204 4116 
Q 875 4013 500 3803 
L 500 4441 
Q 881 4594 1212 4672 
Q 1544 4750 1819 4750 
Q 2544 4750 2975 4387 
Q 3406 4025 3406 3419 
Q 3406 3131 3298 2873 
Q 3191 2616 2906 2266 
Q 2828 2175 2409 1742 
Q 1991 1309 1228 531 
z
" transform="scale(0.015625)"/>
       </defs>
       <use xlink:href="#DejaVuSans-32"/>
       <use xlink:href="#DejaVuSans-30" x="63.623047"/>
      </g>
     </g>
    </g>
    <g id="xtick_6">
     <g id="line2d_7">
      <g>
       <use xlink:href="#m156ce0eddd" x="564.626043" y="192.24" style="stroke: #000000; stroke-width: 0.8"/>
      </g>
     </g>
     <g id="text_6">
      <!-- 25 -->
      <g transform="translate(558.263543 206.838437) scale(0.1 -0.1)">
       <use xlink:href="#DejaVuSans-32"/>
       <use xlink:href="#DejaVuSans-35" x="63.623047"/>
      </g>
     </g>
    </g>
   </g>
   <g id="matplotlib.axis_2">
    <g id="ytick_1">
     <g id="line2d_8">
      <defs>
       <path id="m6cc10627d4" d="M 0 0 
L -3.5 0 
" style="stroke: #000000; stroke-width: 0.8"/>
      </defs>
      <g>
       <use xlink:href="#m6cc10627d4" x="90" y="192.24" style="stroke: #000000; stroke-width: 0.8"/>
      </g>
     </g>
     <g id="text_7">
      <!-- 0.0 -->
      <g transform="translate(67.096875 196.039219) scale(0.1 -0.1)">
       <defs>
        <path id="DejaVuSans-2e" d="M 684 794 
L 1344 794 
L 1344 0 
L 684 0 
L 684 794 
z
" transform="scale(0.015625)"/>
       </defs>
       <use xlink:href="#DejaVuSans-30"/>
       <use xlink:href="#DejaVuSans-2e" x="63.623047"/>
       <use xlink:href="#DejaVuSans-30" x="95.410156"/>
      </g>
     </g>
    </g>
    <g id="ytick_2">
     <g id="line2d_9">
      <g>
       <use xlink:href="#m6cc10627d4" x="90" y="168.740835" style="stroke: #000000; stroke-width: 0.8"/>
      </g>
     </g>
     <g id="text_8">
      <!-- 0.2 -->
      <g transform="translate(67.096875 172.540054) scale(0.1 -0.1)">
       <use xlink:href="#DejaVuSans-30"/>
       <use xlink:href="#DejaVuSans-2e" x="63.623047"/>
       <use xlink:href="#DejaVuSans-32" x="95.410156"/>
      </g>
     </g>
    </g>
    <g id="ytick_3">
     <g id="line2d_10">
      <g>
       <use xlink:href="#m6cc10627d4" x="90" y="145.24167" style="stroke: #000000; stroke-width: 0.8"/>
      </g>
     </g>
     <g id="text_9">
      <!-- 0.4 -->
      <g transform="translate(67.096875 149.040889) scale(0.1 -0.1)">
       <defs>
        <path id="DejaVuSans-34" d="M 2419 4116 
L 825 1625 
L 2419 1625 
L 2419 4116 
z
M 2253 4666 
L 3047 4666 
L 3047 1625 
L 3713 1625 
L 3713 1100 
L 3047 1100 
L 3047 0 
L 2419 0 
L 2419 1100 
L 313 1100 
L 313 1709 
L 2253 4666 
z
" transform="scale(0.015625)"/>
       </defs>
       <use xlink:href="#DejaVuSans-30"/>
       <use xlink:href="#DejaVuSans-2e" x="63.623047"/>
       <use xlink:href="#DejaVuSans-34" x="95.410156"/>
      </g>
     </g>
    </g>
    <g id="ytick_4">
     <g id="line2d_11">
      <g>
       <use xlink:href="#m6cc10627d4" x="90" y="121.742505" style="stroke: #000000; stroke-width: 0.8"/>
      </g>
     </g>
     <g id="text_10">
      <!-- 0.6 -->
      <g transform="translate(67.096875 125.541724) scale(0.1 -0.1)">
       <defs>
        <path id="DejaVuSans-36" d="M 2113 2584 
Q 1688 2584 1439 2293 
Q 1191 2003 1191 1497 
Q 1191 994 1439 701 
Q 1688 409 2113 409 
Q 2538 409 2786 701 
Q 3034 994 3034 1497 
Q 3034 2003 2786 2293 
Q 2538 2584 2113 2584 
z
M 3366 4563 
L 3366 3988 
Q 3128 4100 2886 4159 
Q 2644 4219 2406 4219 
Q 1781 4219 1451 3797 
Q 1122 3375 1075 2522 
Q 1259 2794 1537 2939 
Q 1816 3084 2150 3084 
Q 2853 3084 3261 2657 
Q 3669 2231 3669 1497 
Q 3669 778 3244 343 
Q 2819 -91 2113 -91 
Q 1303 -91 875 529 
Q 447 1150 447 2328 
Q 447 3434 972 4092 
Q 1497 4750 2381 4750 
Q 2619 4750 2861 4703 
Q 3103 4656 3366 4563 
z
" transform="scale(0.015625)"/>
       </defs>
       <use xlink:href="#DejaVuSans-30"/>
       <use xlink:href="#DejaVuSans-2e" x="63.623047"/>
       <use xlink:href="#DejaVuSans-36" x="95.410156"/>
      </g>
     </g>
    </g>
    <g id="ytick_5">
     <g id="line2d_12">
      <g>
       <use xlink:href="#m6cc10627d4" x="90" y="98.24334" style="stroke: #000000; stroke-width: 0.8"/>
      </g>
     </g>
     <g id="text_11">
      <!-- 0.8 -->
      <g transform="translate(67.096875 102.042559) scale(0.1 -0.1)">
       <defs>
        <path id="DejaVuSans-38" d="M 2034 2216 
Q 1584 2216 1326 1975 
Q 1069 1734 1069 1313 
Q 1069 891 1326 650 
Q 1584 409 2034 409 
Q 2484 409 2743 651 
Q 3003 894 3003 1313 
Q 3003 1734 2745 1975 
Q 2488 2216 2034 2216 
z
M 1403 2484 
Q 997 2584 770 2862 
Q 544 3141 544 3541 
Q 544 4100 942 4425 
Q 1341 4750 2034 4750 
Q 2731 4750 3128 4425 
Q 3525 4100 3525 3541 
Q 3525 3141 3298 2862 
Q 3072 2584 2669 2484 
Q 3125 2378 3379 2068 
Q 3634 1759 3634 1313 
Q 3634 634 3220 271 
Q 2806 -91 2034 -91 
Q 1263 -91 848 271 
Q 434 634 434 1313 
Q 434 1759 690 2068 
Q 947 2378 1403 2484 
z
M 1172 3481 
Q 1172 3119 1398 2916 
Q 1625 2713 2034 2713 
Q 2441 2713 2670 2916 
Q 2900 3119 2900 3481 
Q 2900 3844 2670 4047 
Q 2441 4250 2034 4250 
Q 1625 4250 1398 4047 
Q 1172 3844 1172 3481 
z
" transform="scale(0.015625)"/>
       </defs>
       <use xlink:href="#DejaVuSans-30"/>
       <use xlink:href="#DejaVuSans-2e" x="63.623047"/>
       <use xlink:href="#DejaVuSans-38" x="95.410156"/>
      </g>
     </g>
    </g>
    <g id="ytick_6">
     <g id="line2d_13">
      <g>
       <use xlink:href="#m6cc10627d4" x="90" y="74.744175" style="stroke: #000000; stroke-width: 0.8"/>
      </g>
     </g>
     <g id="text_12">
      <!-- 1.0 -->
      <g transform="translate(67.096875 78.543394) scale(0.1 -0.1)">
       <use xlink:href="#DejaVuSans-31"/>
       <use xlink:href="#DejaVuSans-2e" x="63.623047"/>
       <use xlink:href="#DejaVuSans-30" x="95.410156"/>
      </g>
     </g>
    </g>
    <g id="ytick_7">
     <g id="line2d_14">
      <g>
       <use xlink:href="#m6cc10627d4" x="90" y="51.24501" style="stroke: #000000; stroke-width: 0.8"/>
      </g>
     </g>
     <g id="text_13">
      <!-- 1.2 -->
      <g transform="translate(67.096875 55.044229) scale(0.1 -0.1)">
       <use xlink:href="#DejaVuSans-31"/>
       <use xlink:href="#DejaVuSans-2e" x="63.623047"/>
       <use xlink:href="#DejaVuSans-32" x="95.410156"/>
      </g>
     </g>
    </g>
    <g id="ytick_8">
     <g id="line2d_15">
      <g>
       <use xlink:href="#m6cc10627d4" x="90" y="27.745845" style="stroke: #000000; stroke-width: 0.8"/>
      </g>
     </g>
     <g id="text_14">
      <!-- 1.4 -->
      <g transform="translate(67.096875 31.545064) scale(0.1 -0.1)">
       <use xlink:href="#DejaVuSans-31"/>
       <use xlink:href="#DejaVuSans-2e" x="63.623047"/>
       <use xlink:href="#DejaVuSans-34" x="95.410156"/>
      </g>
     </g>
    </g>
   </g>
  </g>
 </g>
 <defs>
  <clipPath id="pfbae4a9184">
   <rect x="90" y="25.92" width="558" height="166.32"/>
  </clipPath>
 </defs>
</svg>
