<?xml version="1.0" encoding="utf-8" standalone="no"?>
<!DOCTYPE svg PUBLIC "-//W3C//DTD SVG 1.1//EN"
  "http://www.w3.org/Graphics/SVG/1.1/DTD/svg11.dtd">
<svg xmlns:xlink="http://www.w3.org/1999/xlink" width="720pt" height="216pt" viewBox="0 0 720 216" xmlns="http://www.w3.org/2000/svg" version="1.1">
 <metadata>
  <rdf:RDF xmlns:dc="http://purl.org/dc/elements/1.1/" xmlns:cc="http://creativecommons.org/ns#" xmlns:rdf="http://www.w3.org/1999/02/22-rdf-syntax-ns#">
   <cc:Work>
    <dc:type rdf:resource="http://purl.org/dc/dcmitype/StillImage"/>
    <dc:date>2025-12-17T10:23:01.301508</dc:date>
    <dc:format>image/svg+xml</dc:format>
    <dc:creator>
     <cc:Agent>
      <dc:title>Matplotlib v3.8.2, https://matplotlib.org/</dc:title>
     </cc:Agent>
    </dc:creator>
   </cc:Work>
  </rdf:RDF>
 </metadata>
 <defs>
  <style type="text/css">*{stroke-linejoin: round; stroke-linecap: butt}</style>
 </defs>
 <g id="figure_1">
  <g id="patch_1">
   <path d="M 0 216 
L 720 216 
L 720 0 
L 0 0 
z
" style="fill: #ffffff"/>
  </g>
  <g id="axes_1">
   <g id="patch_2">
    <path d="M 90 192.24 
L 648 192.24 
L 648 25.92 
L 90 25.92 
z
" style="fill: #ffffff"/>
   </g>
   <g id="line2d_1">
    <path d="M 90 192.24 
L 648 192.24 
" clip-path="url(#p2edacc9d28)" style="fill: none; stroke: #000000; stroke-width: 0.5; stroke-linecap: square"/>
   </g>
   <g id="patch_3">
    <path d="M 102.260459 191.989258 
L 95.453516 191.989258 
L 94.378735 192.24 
L 90 192.24 
L 96.253268 190.863576 
L 101.446231 190.863576 
L 107.699499 192.24 
L 103.324383 192.24 
L 102.260459 191.989258 
z
M 96.539153 191.733797 
L 101.163965 191.733797 
L 98.855178 191.186295 
L 96.539153 191.733797 
z
" clip-path="url(#p2edacc9d28)" style="fill: #008000"/>
   </g>
   <g id="patch_4">
    <path d="M 107.699499 190.723474 
Q 105.914476 190.793525 103.994584 190.82871 
Q 102.074692 190.863576 100.027865 190.863576 
Q 95.402671 190.863576 92.701335 190.655022 
Q 90 190.446469 90 190.089817 
Q 90 189.729007 92.748936 189.522053 
Q 95.501839 189.315099 100.289668 189.315099 
Q 102.134193 189.315099 103.824015 189.343247 
Q 105.517804 189.371076 107.017224 189.426093 
L 107.017224 189.734765 
Q 105.470203 189.664074 103.93905 189.629208 
Q 102.407896 189.594023 100.868809 189.594023 
Q 98.020705 189.594023 96.477652 189.72261 
Q 94.934598 189.850876 94.934598 190.089817 
Q 94.934598 190.326519 96.422118 190.455745 
Q 97.909637 190.584652 100.646673 190.584652 
Q 101.392416 190.584652 102.031058 190.577295 
Q 102.6697 190.569618 103.17744 190.553625 
L 103.17744 190.263825 
L 100.261901 190.263825 
L 100.261901 190.005692 
L 107.699499 190.005692 
L 107.699499 190.723474 
z
" clip-path="url(#p2edacc9d28)" style="fill: #ffa600"/>
   </g>
   <g id="patch_5">
    <path d="M 107.699499 189.160941 
Q 106.218967 189.237353 104.618029 189.276004 
Q 103.017092 189.315099 101.273453 189.315099 
Q 96.073751 189.315099 93.036876 189.025441 
Q 90 188.735784 90 188.240434 
Q 90 187.743307 93.036876 187.454094 
Q 96.073751 187.164436 101.273453 187.164436 
Q 103.017092 187.164436 104.618029 187.203531 
Q 106.218967 187.242182 107.699499 187.318594 
L 107.699499 187.747305 
Q 106.205588 187.646014 104.756272 187.598922 
Q 103.306955 187.551831 101.706018 187.551831 
Q 98.834142 187.551831 97.18861 187.73531 
Q 95.547538 187.918345 95.547538 188.240434 
Q 95.547538 188.56119 97.18861 188.744669 
Q 98.834142 188.927704 101.706018 188.927704 
Q 103.306955 188.927704 104.756272 188.880612 
Q 106.205588 188.833077 107.699499 188.731785 
L 107.699499 189.160941 
z
" clip-path="url(#p2edacc9d28)" style="fill: #0000ff"/>
   </g>
   <g id="patch_6">
    <path d="M 90 183.723376 
L 107.699499 183.723376 
L 107.699499 184.394478 
L 101.331796 184.394478 
L 101.331796 187.164436 
L 96.380052 187.164436 
L 96.380052 184.394478 
L 90 184.394478 
L 90 183.723376 
z
" clip-path="url(#p2edacc9d28)" style="fill: #ff0000"/>
   </g>
   <g id="patch_7">
    <path d="M 126.330551 192.167709 
Q 124.545527 192.203855 122.625636 192.22201 
Q 120.705744 192.24 118.658917 192.24 
Q 114.033723 192.24 111.332387 192.132389 
Q 108.631052 192.024778 108.631052 191.840751 
Q 108.631052 191.654577 111.379988 191.547792 
Q 114.132891 191.441006 118.92072 191.441006 
Q 120.765244 191.441006 122.455067 191.45553 
Q 124.148856 191.46989 125.648275 191.498278 
L 125.648275 191.657548 
Q 124.101255 191.621073 122.570102 191.603083 
Q 121.038948 191.584927 119.499861 191.584927 
Q 116.651757 191.584927 115.108704 191.651276 
Q 113.56565 191.71746 113.56565 191.840751 
Q 113.56565 191.962886 115.053169 192.029565 
Q 116.540689 192.096079 119.277725 192.096079 
Q 120.023468 192.096079 120.66211 192.092283 
Q 121.300752 192.088322 121.808492 192.080069 
L 121.808492 191.930536 
L 118.892953 191.930536 
L 118.892953 191.797343 
L 126.330551 191.797343 
L 126.330551 192.167709 
z
" clip-path="url(#p2edacc9d28)" style="fill: #ffa600"/>
   </g>
   <g id="patch_8">
    <path d="M 120.89151 190.422144 
L 114.084567 190.422144 
L 113.009787 191.441006 
L 108.631052 191.441006 
L 114.88432 185.84805 
L 120.077283 185.84805 
L 126.330551 191.441006 
L 121.955434 191.441006 
L 120.89151 190.422144 
z
M 115.170204 189.384103 
L 119.795017 189.384103 
L 117.48623 187.159386 
L 115.170204 189.384103 
z
" clip-path="url(#p2edacc9d28)" style="fill: #008000"/>
   </g>
   <g id="patch_9">
    <path d="M 126.330551 184.874436 
Q 124.850018 185.357035 123.249081 185.601139 
Q 121.648144 185.84805 119.904504 185.84805 
Q 114.704803 185.84805 111.667927 184.018666 
Q 108.631052 182.189283 108.631052 179.060812 
Q 108.631052 175.921118 111.667927 174.09454 
Q 114.704803 172.265157 119.904504 172.265157 
Q 121.648144 172.265157 123.249081 172.512067 
Q 124.850018 172.756172 126.330551 173.23877 
L 126.330551 175.946371 
Q 124.83664 175.306647 123.387324 175.009232 
Q 121.938007 174.711817 120.33707 174.711817 
Q 117.465193 174.711817 115.819662 175.870614 
Q 114.178589 177.026605 114.178589 179.060812 
Q 114.178589 181.086602 115.819662 182.245399 
Q 117.465193 183.40139 120.33707 183.40139 
Q 121.938007 183.40139 123.387324 183.103975 
Q 124.83664 182.803754 126.330551 182.16403 
L 126.330551 184.874436 
z
" clip-path="url(#p2edacc9d28)" style="fill: #0000ff"/>
   </g>
   <g id="patch_10">
    <path d="M 108.631052 113.13962 
L 126.330551 113.13962 
L 126.330551 124.670747 
L 119.962847 124.670747 
L 119.962847 172.265157 
L 115.011104 172.265157 
L 115.011104 124.670747 
L 108.631052 124.670747 
L 108.631052 113.13962 
z
" clip-path="url(#p2edacc9d28)" style="fill: #ff0000"/>
   </g>
   <g id="patch_11">
    <path d="M 144.961603 191.249963 
Q 143.176579 191.744982 141.256687 191.993621 
Q 139.336795 192.24 137.289969 192.24 
Q 132.664774 192.24 129.963439 190.766247 
Q 127.262104 189.292494 127.262104 186.772195 
Q 127.262104 184.222512 130.01104 182.760061 
Q 132.763942 181.29761 137.551772 181.29761 
Q 139.396296 181.29761 141.086118 181.496521 
Q 142.779907 181.693172 144.279327 182.081954 
L 144.279327 184.263199 
Q 142.732307 183.76366 141.201153 183.517281 
Q 139.67 183.268641 138.130913 183.268641 
Q 135.282809 183.268641 133.739755 184.177305 
Q 132.196702 185.083708 132.196702 186.772195 
Q 132.196702 188.44486 133.684221 189.358044 
Q 135.171741 190.268968 137.908777 190.268968 
Q 138.65452 190.268968 139.293162 190.21698 
Q 139.931803 190.162732 140.439543 190.049714 
L 140.439543 188.00183 
L 137.524005 188.00183 
L 137.524005 186.177721 
L 144.961603 186.177721 
L 144.961603 191.249963 
z
" clip-path="url(#p2edacc9d28)" style="fill: #ffa600"/>
   </g>
   <g id="patch_12">
    <path d="M 139.522562 179.23551 
L 132.715619 179.23551 
L 131.640839 181.29761 
L 127.262104 181.29761 
L 133.515372 169.977895 
L 138.708335 169.977895 
L 144.961603 181.29761 
L 140.586486 181.29761 
L 139.522562 179.23551 
z
M 133.801256 177.134594 
L 138.426069 177.134594 
L 136.117281 172.631939 
L 133.801256 177.134594 
z
" clip-path="url(#p2edacc9d28)" style="fill: #008000"/>
   </g>
   <g id="patch_13">
    <path d="M 127.262104 154.884943 
L 144.961603 154.884943 
L 144.961603 157.828489 
L 138.593899 157.828489 
L 138.593899 169.977895 
L 133.642156 169.977895 
L 133.642156 157.828489 
L 127.262104 157.828489 
L 127.262104 154.884943 
z
" clip-path="url(#p2edacc9d28)" style="fill: #ff0000"/>
   </g>
   <g id="patch_14">
    <path d="M 158.153614 191.908436 
L 151.346671 191.908436 
L 150.27189 192.24 
L 145.893155 192.24 
L 152.146423 190.419911 
L 157.339386 190.419911 
L 163.592654 192.24 
L 159.217538 192.24 
L 158.153614 191.908436 
z
M 152.432308 191.570632 
L 157.057121 191.570632 
L 154.748333 190.846653 
L 152.432308 191.570632 
z
" clip-path="url(#p2edacc9d28)" style="fill: #008000"/>
   </g>
   <g id="patch_15">
    <path d="M 163.592654 190.289448 
Q 162.112122 190.354115 160.511185 190.386825 
Q 158.910247 190.419911 157.166608 190.419911 
Q 151.966906 190.419911 148.930031 190.174776 
Q 145.893155 189.929641 145.893155 189.51043 
Q 145.893155 189.089715 148.930031 188.844956 
Q 151.966906 188.599821 157.166608 188.599821 
Q 158.910247 188.599821 160.511185 188.632907 
Q 162.112122 188.665617 163.592654 188.730284 
L 163.592654 189.093099 
Q 162.098744 189.007377 160.649427 188.967524 
Q 159.200111 188.927671 157.599173 188.927671 
Q 154.727297 188.927671 153.081765 189.082948 
Q 151.440693 189.237849 151.440693 189.51043 
Q 151.440693 189.781883 153.081765 189.93716 
Q 154.727297 190.092062 157.599173 190.092062 
Q 159.200111 190.092062 160.649427 190.052208 
Q 162.098744 190.011979 163.592654 189.926257 
L 163.592654 190.289448 
z
" clip-path="url(#p2edacc9d28)" style="fill: #0000ff"/>
   </g>
   <g id="patch_16">
    <path d="M 163.592654 188.386711 
Q 161.807631 188.493266 159.887739 188.546787 
Q 157.967847 188.599821 155.92102 188.599821 
Q 151.295826 188.599821 148.594491 188.282588 
Q 145.893155 187.965355 145.893155 187.422846 
Q 145.893155 186.874013 148.642091 186.559212 
Q 151.394994 186.244412 156.182824 186.244412 
Q 158.027348 186.244412 159.71717 186.287229 
Q 161.410959 186.329559 162.910379 186.413246 
L 162.910379 186.882771 
Q 161.363358 186.775243 159.832205 186.722208 
Q 158.301052 186.668687 156.761965 186.668687 
Q 153.913861 186.668687 152.370807 186.864282 
Q 150.827753 187.05939 150.827753 187.422846 
Q 150.827753 187.782897 152.315273 187.979465 
Q 153.802792 188.175546 156.539828 188.175546 
Q 157.285572 188.175546 157.924213 188.164355 
Q 158.562855 188.152678 159.070595 188.12835 
L 159.070595 187.687532 
L 156.155057 187.687532 
L 156.155057 187.294883 
L 163.592654 187.294883 
L 163.592654 188.386711 
z
" clip-path="url(#p2edacc9d28)" style="fill: #ffa600"/>
   </g>
   <g id="patch_17">
    <path d="M 145.893155 181.640657 
L 163.592654 181.640657 
L 163.592654 182.538517 
L 157.224951 182.538517 
L 157.224951 186.244412 
L 152.273207 186.244412 
L 152.273207 182.538517 
L 145.893155 182.538517 
L 145.893155 181.640657 
z
" clip-path="url(#p2edacc9d28)" style="fill: #ff0000"/>
   </g>
   <g id="patch_18">
    <path d="M 182.223706 191.971507 
Q 180.438683 192.105753 178.518791 192.173183 
Q 176.598899 192.24 174.552072 192.24 
Q 169.926878 192.24 167.225542 191.840325 
Q 164.524207 191.44065 164.524207 190.757157 
Q 164.524207 190.065695 167.273143 189.669085 
Q 170.026046 189.272475 174.813876 189.272475 
Q 176.6584 189.272475 178.348222 189.326419 
Q 180.042011 189.37975 181.541431 189.485185 
L 181.541431 190.076729 
Q 179.99441 189.941256 178.463257 189.874439 
Q 176.932103 189.80701 175.393016 189.80701 
Q 172.544912 189.80701 171.001859 190.053435 
Q 169.458805 190.299247 169.458805 190.757157 
Q 169.458805 191.210776 170.946325 191.458427 
Q 172.433844 191.705465 175.17088 191.705465 
Q 175.916623 191.705465 176.555265 191.691366 
Q 177.193907 191.676655 177.701647 191.646005 
L 177.701647 191.090628 
L 174.786108 191.090628 
L 174.786108 190.595938 
L 182.223706 190.595938 
L 182.223706 191.971507 
z
" clip-path="url(#p2edacc9d28)" style="fill: #ffa600"/>
   </g>
   <g id="patch_19">
    <path d="M 176.784666 188.191294 
L 169.977723 188.191294 
L 168.902942 189.272475 
L 164.524207 189.272475 
L 170.777475 183.337425 
L 175.970438 183.337425 
L 182.223706 189.272475 
L 177.84859 189.272475 
L 176.784666 188.191294 
z
M 171.06336 187.089761 
L 175.688172 187.089761 
L 173.379385 184.728969 
L 171.06336 187.089761 
z
" clip-path="url(#p2edacc9d28)" style="fill: #008000"/>
   </g>
   <g id="patch_20">
    <path d="M 182.223706 182.699294 
Q 180.743174 183.015601 179.142236 183.175594 
Q 177.541299 183.337425 175.79766 183.337425 
Q 170.597958 183.337425 167.561083 182.1384 
Q 164.524207 180.939376 164.524207 178.888896 
Q 164.524207 176.831061 167.561083 175.633875 
Q 170.597958 174.43485 175.79766 174.43485 
Q 177.541299 174.43485 179.142236 174.596682 
Q 180.743174 174.756674 182.223706 175.072981 
L 182.223706 176.847612 
Q 180.729795 176.428321 179.280479 176.233387 
Q 177.831162 176.038454 176.230225 176.038454 
Q 173.358349 176.038454 171.712817 176.797959 
Q 170.071745 177.555625 170.071745 178.888896 
Q 170.071745 180.216651 171.712817 180.976155 
Q 173.358349 181.733821 176.230225 181.733821 
Q 177.831162 181.733821 179.280479 181.538888 
Q 180.729795 181.342116 182.223706 180.922825 
L 182.223706 182.699294 
z
" clip-path="url(#p2edacc9d28)" style="fill: #0000ff"/>
   </g>
   <g id="patch_21">
    <path d="M 164.524207 118.793757 
L 182.223706 118.793757 
L 182.223706 129.64532 
L 175.856003 129.64532 
L 175.856003 174.43485 
L 170.904259 174.43485 
L 170.904259 129.64532 
L 164.524207 129.64532 
L 164.524207 118.793757 
z
" clip-path="url(#p2edacc9d28)" style="fill: #ff0000"/>
   </g>
   <g id="patch_22">
    <path d="M 200.854758 192.149755 
Q 199.069734 192.194878 197.149843 192.217542 
Q 195.229951 192.24 193.183124 192.24 
Q 188.55793 192.24 185.856594 192.105663 
Q 183.155259 191.971327 183.155259 191.741594 
Q 183.155259 191.509184 185.904195 191.375877 
Q 188.657098 191.24257 193.444927 191.24257 
Q 195.289451 191.24257 196.979274 191.260702 
Q 198.673063 191.278627 200.172482 191.314066 
L 200.172482 191.512892 
Q 198.625462 191.467358 197.094309 191.4449 
Q 195.563155 191.422236 194.024068 191.422236 
Q 191.175964 191.422236 189.632911 191.505063 
Q 188.089857 191.587684 188.089857 191.741594 
Q 188.089857 191.894062 189.577376 191.977302 
Q 191.064896 192.060335 193.801932 192.060335 
Q 194.547675 192.060335 195.186317 192.055596 
Q 195.824959 192.050651 196.332699 192.040349 
L 196.332699 191.853679 
L 193.41716 191.853679 
L 193.41716 191.687406 
L 200.854758 191.687406 
L 200.854758 192.149755 
z
" clip-path="url(#p2edacc9d28)" style="fill: #ffa600"/>
   </g>
   <g id="patch_23">
    <path d="M 183.155259 186.255423 
L 200.854758 186.255423 
L 200.854758 187.228056 
L 194.487054 187.228056 
L 194.487054 191.24257 
L 189.535311 191.24257 
L 189.535311 187.228056 
L 183.155259 187.228056 
L 183.155259 186.255423 
z
" clip-path="url(#p2edacc9d28)" style="fill: #ff0000"/>
   </g>
   <g id="patch_24">
    <path d="M 195.415717 183.832748 
L 188.608774 183.832748 
L 187.533994 186.255423 
L 183.155259 186.255423 
L 189.408527 172.956363 
L 194.60149 172.956363 
L 200.854758 186.255423 
L 196.479641 186.255423 
L 195.415717 183.832748 
z
M 189.694411 181.36447 
L 194.319224 181.36447 
L 192.010437 176.074488 
L 189.694411 181.36447 
z
" clip-path="url(#p2edacc9d28)" style="fill: #008000"/>
   </g>
   <g id="patch_25">
    <path d="M 200.854758 171.979262 
Q 199.374225 172.463589 197.773288 172.708568 
Q 196.172351 172.956363 194.428711 172.956363 
Q 189.22901 172.956363 186.192134 171.120428 
Q 183.155259 169.284493 183.155259 166.144818 
Q 183.155259 162.99388 186.192134 161.160761 
Q 189.22901 159.324826 194.428711 159.324826 
Q 196.172351 159.324826 197.773288 159.572621 
Q 199.374225 159.8176 200.854758 160.301927 
L 200.854758 163.019223 
Q 199.360847 162.377209 197.911531 162.078729 
Q 196.462214 161.780249 194.861277 161.780249 
Q 191.9894 161.780249 190.343869 162.943195 
Q 188.702796 164.103326 188.702796 166.144818 
Q 188.702796 168.177863 190.343869 169.34081 
Q 191.9894 170.50094 194.861277 170.50094 
Q 196.462214 170.50094 197.911531 170.20246 
Q 199.360847 169.901164 200.854758 169.25915 
L 200.854758 171.979262 
z
" clip-path="url(#p2edacc9d28)" style="fill: #0000ff"/>
   </g>
   <g id="patch_26">
    <path d="M 219.48581 192.101213 
Q 217.700786 192.170607 215.780894 192.205462 
Q 213.861002 192.24 211.814176 192.24 
Q 207.188981 192.24 204.487646 192.033404 
Q 201.786311 191.826808 201.786311 191.473504 
Q 201.786311 191.11608 204.535247 190.911069 
Q 207.288149 190.706057 212.075979 190.706057 
Q 213.920503 190.706057 215.610325 190.733941 
Q 217.304114 190.761508 218.803534 190.816009 
L 218.803534 191.121784 
Q 217.256514 191.051757 215.72536 191.017218 
Q 214.194207 190.982363 212.65512 190.982363 
Q 209.807016 190.982363 208.263962 191.109743 
Q 206.720909 191.236806 206.720909 191.473504 
Q 206.720909 191.707984 208.208428 191.835997 
Q 209.695948 191.963694 212.432984 191.963694 
Q 213.178727 191.963694 213.817369 191.956406 
Q 214.45601 191.948801 214.96375 191.932958 
L 214.96375 191.645878 
L 212.048212 191.645878 
L 212.048212 191.390168 
L 219.48581 191.390168 
L 219.48581 192.101213 
z
" clip-path="url(#p2edacc9d28)" style="fill: #ffa600"/>
   </g>
   <g id="patch_27">
    <path d="M 219.48581 190.398191 
Q 218.005277 190.550793 216.40434 190.627982 
Q 214.803402 190.706057 213.059763 190.706057 
Q 207.860062 190.706057 204.823186 190.127589 
Q 201.786311 189.54912 201.786311 188.559868 
Q 201.786311 187.567067 204.823186 186.989486 
Q 207.860062 186.411017 213.059763 186.411017 
Q 214.803402 186.411017 216.40434 186.489093 
Q 218.005277 186.566281 219.48581 186.718883 
L 219.48581 187.575052 
Q 217.991899 187.372765 216.542582 187.27872 
Q 215.093266 187.184674 213.492328 187.184674 
Q 210.620452 187.184674 208.97492 187.551097 
Q 207.333848 187.916632 207.333848 188.559868 
Q 207.333848 189.200442 208.97492 189.566865 
Q 210.620452 189.9324 213.492328 189.9324 
Q 215.093266 189.9324 216.542582 189.838354 
Q 217.991899 189.743422 219.48581 189.541135 
L 219.48581 190.398191 
z
" clip-path="url(#p2edacc9d28)" style="fill: #0000ff"/>
   </g>
   <g id="patch_28">
    <path d="M 201.786311 176.593783 
L 219.48581 176.593783 
L 219.48581 178.508417 
L 213.118106 178.508417 
L 213.118106 186.411017 
L 208.166363 186.411017 
L 208.166363 178.508417 
L 201.786311 178.508417 
L 201.786311 176.593783 
z
" clip-path="url(#p2edacc9d28)" style="fill: #ff0000"/>
   </g>
   <g id="patch_29">
    <path d="M 214.046769 173.911191 
L 207.239826 173.911191 
L 206.165046 176.593783 
L 201.786311 176.593783 
L 208.039579 161.867931 
L 213.232542 161.867931 
L 219.48581 176.593783 
L 215.110693 176.593783 
L 214.046769 173.911191 
z
M 208.325463 171.178103 
L 212.950276 171.178103 
L 210.641488 165.320585 
L 208.325463 171.178103 
z
" clip-path="url(#p2edacc9d28)" style="fill: #008000"/>
   </g>
   <g id="patch_30">
    <path d="M 220.417362 189.908258 
L 238.116861 189.908258 
L 238.116861 190.363012 
L 231.749158 190.363012 
L 231.749158 192.24 
L 226.797414 192.24 
L 226.797414 190.363012 
L 220.417362 190.363012 
L 220.417362 189.908258 
z
" clip-path="url(#p2edacc9d28)" style="fill: #ff0000"/>
   </g>
   <g id="patch_31">
    <path d="M 238.116861 189.644546 
Q 236.331838 189.776402 234.411946 189.842631 
Q 232.492054 189.908258 230.445227 189.908258 
Q 225.820033 189.908258 223.118698 189.5157 
Q 220.417362 189.123143 220.417362 188.451822 
Q 220.417362 187.772673 223.166298 187.383127 
Q 225.919201 186.99358 230.707031 186.99358 
Q 232.551555 186.99358 234.241377 187.046563 
Q 235.935166 187.098944 237.434586 187.202502 
L 237.434586 187.783511 
Q 235.887565 187.650451 234.356412 187.584824 
Q 232.825259 187.518595 231.286172 187.518595 
Q 228.438068 187.518595 226.895014 187.760632 
Q 225.35196 188.002067 225.35196 188.451822 
Q 225.35196 188.897362 226.83948 189.140603 
Q 228.327 189.383242 231.064035 189.383242 
Q 231.809779 189.383242 232.44842 189.369394 
Q 233.087062 189.354944 233.594802 189.32484 
L 233.594802 188.779354 
L 230.679264 188.779354 
L 230.679264 188.293474 
L 238.116861 188.293474 
L 238.116861 189.644546 
z
" clip-path="url(#p2edacc9d28)" style="fill: #ffa600"/>
   </g>
   <g id="patch_32">
    <path d="M 238.116861 186.283243 
Q 236.636329 186.635341 235.035392 186.813437 
Q 233.434454 186.99358 231.690815 186.99358 
Q 226.491113 186.99358 223.454238 185.658885 
Q 220.417362 184.32419 220.417362 182.041698 
Q 220.417362 179.751017 223.454238 178.418369 
Q 226.491113 177.083674 231.690815 177.083674 
Q 233.434454 177.083674 235.035392 177.263817 
Q 236.636329 177.441913 238.116861 177.794011 
L 238.116861 179.769441 
Q 236.622951 179.302707 235.173634 179.085717 
Q 233.724318 178.868727 232.12338 178.868727 
Q 229.251504 178.868727 227.605972 179.71417 
Q 225.9649 180.557566 225.9649 182.041698 
Q 225.9649 183.519688 227.605972 184.365131 
Q 229.251504 185.208527 232.12338 185.208527 
Q 233.724318 185.208527 235.173634 184.991537 
Q 236.622951 184.7725 238.116861 184.305766 
L 238.116861 186.283243 
z
" clip-path="url(#p2edacc9d28)" style="fill: #0000ff"/>
   </g>
   <g id="patch_33">
    <path d="M 232.677821 174.588145 
L 225.870878 174.588145 
L 224.796097 177.083674 
L 220.417362 177.083674 
L 226.67063 163.384688 
L 231.863593 163.384688 
L 238.116861 177.083674 
L 233.741745 177.083674 
L 232.677821 174.588145 
z
M 226.956515 172.045642 
L 231.581328 172.045642 
L 229.27254 166.596581 
L 226.956515 172.045642 
z
" clip-path="url(#p2edacc9d28)" style="fill: #008000"/>
   </g>
   <g id="patch_34">
    <path d="M 251.308873 191.904001 
L 244.50193 191.904001 
L 243.427149 192.24 
L 239.048414 192.24 
L 245.301682 190.395563 
L 250.494645 190.395563 
L 256.747913 192.24 
L 252.372797 192.24 
L 251.308873 191.904001 
z
M 245.587567 191.561677 
L 250.212379 191.561677 
L 247.903592 190.828013 
L 245.587567 191.561677 
z
" clip-path="url(#p2edacc9d28)" style="fill: #008000"/>
   </g>
   <g id="patch_35">
    <path d="M 256.747913 190.061804 
Q 254.96289 190.228683 253.042998 190.312504 
Q 251.123106 190.395563 249.076279 190.395563 
Q 244.451085 190.395563 241.74975 189.898734 
Q 239.048414 189.401906 239.048414 188.552268 
Q 239.048414 187.692725 241.79735 187.199706 
Q 244.550253 186.706688 249.338083 186.706688 
Q 251.182607 186.706688 252.872429 186.773744 
Q 254.566218 186.840039 256.065638 186.971104 
L 256.065638 187.706441 
Q 254.518617 187.538037 252.987464 187.454978 
Q 251.45631 187.371158 249.917223 187.371158 
Q 247.069119 187.371158 245.526066 187.677484 
Q 243.983012 187.983049 243.983012 188.552268 
Q 243.983012 189.116153 245.470532 189.424004 
Q 246.958051 189.731093 249.695087 189.731093 
Q 250.44083 189.731093 251.079472 189.713567 
Q 251.718114 189.695278 252.225854 189.657178 
L 252.225854 188.9668 
L 249.310315 188.9668 
L 249.310315 188.35186 
L 256.747913 188.35186 
L 256.747913 190.061804 
z
" clip-path="url(#p2edacc9d28)" style="fill: #ffa600"/>
   </g>
   <g id="patch_36">
    <path d="M 256.747913 185.604953 
Q 255.267381 186.151058 253.666443 186.427285 
Q 252.065506 186.706688 250.321867 186.706688 
Q 245.122165 186.706688 242.08529 184.636569 
Q 239.048414 182.566451 239.048414 179.026295 
Q 239.048414 175.473438 242.08529 173.406495 
Q 245.122165 171.336376 250.321867 171.336376 
Q 252.065506 171.336376 253.666443 171.615779 
Q 255.267381 171.892006 256.747913 172.438111 
L 256.747913 175.502013 
Q 255.254002 174.778107 253.804686 174.441554 
Q 252.355369 174.105001 250.754432 174.105001 
Q 247.882556 174.105001 246.237024 175.416287 
Q 244.595952 176.724399 244.595952 179.026295 
Q 244.595952 181.318665 246.237024 182.629952 
Q 247.882556 183.938063 250.754432 183.938063 
Q 252.355369 183.938063 253.804686 183.60151 
Q 255.254002 183.261782 256.747913 182.537876 
L 256.747913 185.604953 
z
" clip-path="url(#p2edacc9d28)" style="fill: #0000ff"/>
   </g>
   <g id="patch_37">
    <path d="M 239.048414 131.373566 
L 256.747913 131.373566 
L 256.747913 139.167427 
L 250.38021 139.167427 
L 250.38021 171.336376 
L 245.428466 171.336376 
L 245.428466 139.167427 
L 239.048414 139.167427 
L 239.048414 131.373566 
z
" clip-path="url(#p2edacc9d28)" style="fill: #ff0000"/>
   </g>
   <g id="patch_38">
    <path d="M 269.939924 191.778424 
L 263.132981 191.778424 
L 262.058201 192.24 
L 257.679466 192.24 
L 263.932734 189.706221 
L 269.125697 189.706221 
L 275.378965 192.24 
L 271.003849 192.24 
L 269.939924 191.778424 
z
M 264.218618 191.30816 
L 268.843431 191.30816 
L 266.534644 190.300296 
L 264.218618 191.30816 
z
" clip-path="url(#p2edacc9d28)" style="fill: #008000"/>
   </g>
   <g id="patch_39">
    <path d="M 275.378965 189.403521 
Q 273.898432 189.553562 272.297495 189.629455 
Q 270.696558 189.706221 268.952919 189.706221 
Q 263.753217 189.706221 260.716341 189.137459 
Q 257.679466 188.568698 257.679466 187.596047 
Q 257.679466 186.619906 260.716341 186.052017 
Q 263.753217 185.483255 268.952919 185.483255 
Q 270.696558 185.483255 272.297495 185.560021 
Q 273.898432 185.635914 275.378965 185.785955 
L 275.378965 186.627757 
Q 273.885054 186.428865 272.435738 186.336397 
Q 270.986421 186.24393 269.385484 186.24393 
Q 266.513607 186.24393 264.868076 186.604204 
Q 263.227003 186.963605 263.227003 187.596047 
Q 263.227003 188.225871 264.868076 188.586145 
Q 266.513607 188.945546 269.385484 188.945546 
Q 270.986421 188.945546 272.435738 188.853079 
Q 273.885054 188.759739 275.378965 188.560847 
L 275.378965 189.403521 
z
" clip-path="url(#p2edacc9d28)" style="fill: #0000ff"/>
   </g>
   <g id="patch_40">
    <path d="M 275.378965 184.948341 
Q 273.593941 185.215798 271.67405 185.350137 
Q 269.754158 185.483255 267.707331 185.483255 
Q 263.082137 185.483255 260.380801 184.68699 
Q 257.679466 183.890724 257.679466 182.529011 
Q 257.679466 181.151423 260.428402 180.361263 
Q 263.181305 179.571104 267.969134 179.571104 
Q 269.813659 179.571104 271.503481 179.678575 
Q 273.19727 179.784825 274.696689 179.994883 
L 274.696689 181.173406 
Q 273.149669 180.903506 271.618516 180.770388 
Q 270.087362 180.636048 268.548275 180.636048 
Q 265.700171 180.636048 264.157118 181.126997 
Q 262.614064 181.616725 262.614064 182.529011 
Q 262.614064 183.432749 264.101583 183.92614 
Q 265.589103 184.418311 268.326139 184.418311 
Q 269.071882 184.418311 269.710524 184.390222 
Q 270.349166 184.360911 270.856906 184.299848 
L 270.856906 183.19338 
L 267.941367 183.19338 
L 267.941367 182.207818 
L 275.378965 182.207818 
L 275.378965 184.948341 
z
" clip-path="url(#p2edacc9d28)" style="fill: #ffa600"/>
   </g>
   <g id="patch_41">
    <path d="M 257.679466 164.368428 
L 275.378965 164.368428 
L 275.378965 167.333373 
L 269.011261 167.333373 
L 269.011261 179.571104 
L 264.059518 179.571104 
L 264.059518 167.333373 
L 257.679466 167.333373 
L 257.679466 164.368428 
z
" clip-path="url(#p2edacc9d28)" style="fill: #ff0000"/>
   </g>
   <g id="patch_42">
    <path d="M 294.010017 192.119579 
Q 292.529484 192.179269 290.928547 192.209461 
Q 289.32761 192.24 287.58397 192.24 
Q 282.384269 192.24 279.347393 192.013733 
Q 276.310518 191.787465 276.310518 191.400521 
Q 276.310518 191.012188 279.347393 190.786267 
Q 282.384269 190.56 287.58397 190.56 
Q 289.32761 190.56 290.928547 190.590539 
Q 292.529484 190.620731 294.010017 190.680421 
L 294.010017 191.015311 
Q 292.516106 190.936187 291.066789 190.899401 
Q 289.617473 190.862615 288.016535 190.862615 
Q 285.144659 190.862615 283.499127 191.005941 
Q 281.858055 191.14892 281.858055 191.400521 
Q 281.858055 191.65108 283.499127 191.794406 
Q 285.144659 191.937385 288.016535 191.937385 
Q 289.617473 191.937385 291.066789 191.900599 
Q 292.516106 191.863466 294.010017 191.784342 
L 294.010017 192.119579 
z
" clip-path="url(#p2edacc9d28)" style="fill: #0000ff"/>
   </g>
   <g id="patch_43">
    <path d="M 276.310518 25.92 
L 294.010017 25.92 
L 294.010017 58.029387 
L 287.642313 58.029387 
L 287.642313 190.56 
L 282.69057 190.56 
L 282.69057 58.029387 
L 276.310518 58.029387 
L 276.310518 25.92 
z
" clip-path="url(#p2edacc9d28)" style="fill: #ff0000"/>
   </g>
   <g id="patch_44">
    <path d="M 307.202028 192.110104 
L 300.395085 192.110104 
L 299.320305 192.24 
L 294.941569 192.24 
L 301.194837 191.526948 
L 306.3878 191.526948 
L 312.641068 192.24 
L 308.265952 192.24 
L 307.202028 192.110104 
z
M 301.480722 191.977763 
L 306.105535 191.977763 
L 303.796747 191.694132 
L 301.480722 191.977763 
z
" clip-path="url(#p2edacc9d28)" style="fill: #008000"/>
   </g>
   <g id="patch_45">
    <path d="M 312.641068 191.204373 
Q 310.856045 191.365661 308.936153 191.446673 
Q 307.016261 191.526948 304.969434 191.526948 
Q 300.34424 191.526948 297.642905 191.046768 
Q 294.941569 190.566589 294.941569 189.745423 
Q 294.941569 188.914682 297.690505 188.438185 
Q 300.443408 187.961688 305.231238 187.961688 
Q 307.075762 187.961688 308.765584 188.026497 
Q 310.459373 188.09057 311.958793 188.217244 
L 311.958793 188.927939 
Q 310.411772 188.765179 308.880619 188.684903 
Q 307.349466 188.603891 305.810379 188.603891 
Q 302.962275 188.603891 301.419221 188.899953 
Q 299.876167 189.195278 299.876167 189.745423 
Q 299.876167 190.290412 301.363687 190.587946 
Q 302.851207 190.884745 305.588242 190.884745 
Q 306.333986 190.884745 306.972627 190.867806 
Q 307.611269 190.85013 308.119009 190.813307 
L 308.119009 190.146063 
L 305.203471 190.146063 
L 305.203471 189.551731 
L 312.641068 189.551731 
L 312.641068 191.204373 
z
" clip-path="url(#p2edacc9d28)" style="fill: #ffa600"/>
   </g>
   <g id="patch_46">
    <path d="M 312.641068 186.581687 
Q 311.160536 187.265722 309.559599 187.611716 
Q 307.958661 187.961688 306.215022 187.961688 
Q 301.01532 187.961688 297.978445 185.368718 
Q 294.941569 182.775748 294.941569 178.341451 
Q 294.941569 173.891246 297.978445 171.302253 
Q 301.01532 168.709283 306.215022 168.709283 
Q 307.958661 168.709283 309.559599 169.059255 
Q 311.160536 169.405249 312.641068 170.089284 
L 312.641068 173.927039 
Q 311.147158 173.020295 309.697841 172.598738 
Q 308.248525 172.177182 306.647587 172.177182 
Q 303.775711 172.177182 302.130179 173.819661 
Q 300.489107 175.458164 300.489107 178.341451 
Q 300.489107 181.212807 302.130179 182.855287 
Q 303.775711 184.493789 306.647587 184.493789 
Q 308.248525 184.493789 309.697841 184.072233 
Q 311.147158 183.646699 312.641068 182.739955 
L 312.641068 186.581687 
z
" clip-path="url(#p2edacc9d28)" style="fill: #0000ff"/>
   </g>
   <g id="patch_47">
    <path d="M 294.941569 121.64785 
L 312.641068 121.64785 
L 312.641068 130.826141 
L 306.273365 130.826141 
L 306.273365 168.709283 
L 301.321621 168.709283 
L 301.321621 130.826141 
L 294.941569 130.826141 
L 294.941569 121.64785 
z
" clip-path="url(#p2edacc9d28)" style="fill: #ff0000"/>
   </g>
   <g id="patch_48">
    <path d="M 313.572621 191.231213 
L 331.27212 191.231213 
L 331.27212 191.427955 
L 324.904417 191.427955 
L 324.904417 192.24 
L 319.952673 192.24 
L 319.952673 191.427955 
L 313.572621 191.427955 
L 313.572621 191.231213 
z
" clip-path="url(#p2edacc9d28)" style="fill: #ff0000"/>
   </g>
   <g id="patch_49">
    <path d="M 331.27212 190.774852 
Q 329.487097 191.003033 327.567205 191.117644 
Q 325.647313 191.231213 323.600486 191.231213 
Q 318.975292 191.231213 316.273957 190.551881 
Q 313.572621 189.872549 313.572621 188.710809 
Q 313.572621 187.535523 316.321557 186.861401 
Q 319.07446 186.187279 323.86229 186.187279 
Q 325.706814 186.187279 327.396636 186.278968 
Q 329.090425 186.369615 330.589845 186.548825 
L 330.589845 187.554278 
Q 329.042824 187.324013 327.511671 187.210444 
Q 325.980517 187.095833 324.44143 187.095833 
Q 321.593326 187.095833 320.050273 187.514685 
Q 318.507219 187.932495 318.507219 188.710809 
Q 318.507219 189.481829 319.994739 189.902765 
Q 321.482258 190.322659 324.219294 190.322659 
Q 324.965037 190.322659 325.603679 190.298695 
Q 326.242321 190.273689 326.750061 190.221593 
L 326.750061 189.277613 
L 323.834523 189.277613 
L 323.834523 188.436784 
L 331.27212 188.436784 
L 331.27212 190.774852 
z
" clip-path="url(#p2edacc9d28)" style="fill: #ffa600"/>
   </g>
   <g id="patch_50">
    <path d="M 331.27212 185.295465 
Q 329.791588 185.737516 328.19065 185.961112 
Q 326.589713 186.187279 324.846074 186.187279 
Q 319.646372 186.187279 316.609497 184.511593 
Q 313.572621 182.835908 313.572621 179.970281 
Q 313.572621 177.094374 316.609497 175.421259 
Q 319.646372 173.745573 324.846074 173.745573 
Q 326.589713 173.745573 328.19065 173.97174 
Q 329.791588 174.195336 331.27212 174.637387 
L 331.27212 177.117504 
Q 329.778209 176.531528 328.328893 176.259101 
Q 326.879576 175.986674 325.278639 175.986674 
Q 322.406763 175.986674 320.761231 177.048112 
Q 319.120159 178.106981 319.120159 179.970281 
Q 319.120159 181.825871 320.761231 182.88731 
Q 322.406763 183.946178 325.278639 183.946178 
Q 326.879576 183.946178 328.328893 183.673751 
Q 329.778209 183.398753 331.27212 182.812778 
L 331.27212 185.295465 
z
" clip-path="url(#p2edacc9d28)" style="fill: #0000ff"/>
   </g>
   <g id="patch_51">
    <path d="M 325.83308 171.050286 
L 319.026137 171.050286 
L 317.951356 173.745573 
L 313.572621 173.745573 
L 319.825889 158.950032 
L 325.018852 158.950032 
L 331.27212 173.745573 
L 326.897004 173.745573 
L 325.83308 171.050286 
z
M 320.111774 168.304264 
L 324.736586 168.304264 
L 322.427799 162.419025 
L 320.111774 168.304264 
z
" clip-path="url(#p2edacc9d28)" style="fill: #008000"/>
   </g>
   <g id="patch_52">
    <path d="M 332.203673 190.026821 
L 349.903172 190.026821 
L 349.903172 190.458453 
L 343.535468 190.458453 
L 343.535468 192.24 
L 338.583725 192.24 
L 338.583725 190.458453 
L 332.203673 190.458453 
L 332.203673 190.026821 
z
" clip-path="url(#p2edacc9d28)" style="fill: #ff0000"/>
   </g>
   <g id="patch_53">
    <path d="M 349.903172 189.726458 
Q 348.118149 189.87664 346.198257 189.952073 
Q 344.278365 190.026821 342.231538 190.026821 
Q 337.606344 190.026821 334.905008 189.579705 
Q 332.203673 189.132589 332.203673 188.367966 
Q 332.203673 187.594427 334.952609 187.15074 
Q 337.705512 186.707053 342.493341 186.707053 
Q 344.337866 186.707053 346.027688 186.7674 
Q 347.721477 186.827061 349.220896 186.945012 
L 349.220896 187.606771 
Q 347.673876 187.455218 346.142723 187.38047 
Q 344.611569 187.305036 343.072482 187.305036 
Q 340.224378 187.305036 338.681325 187.580712 
Q 337.138271 187.855702 337.138271 188.367966 
Q 337.138271 188.875429 338.62579 189.152476 
Q 340.11331 189.428838 342.850346 189.428838 
Q 343.596089 189.428838 344.234731 189.413065 
Q 344.873373 189.396607 345.381113 189.362319 
L 345.381113 188.74102 
L 342.465574 188.74102 
L 342.465574 188.187611 
L 349.903172 188.187611 
L 349.903172 189.726458 
z
" clip-path="url(#p2edacc9d28)" style="fill: #ffa600"/>
   </g>
   <g id="patch_54">
    <path d="M 349.903172 186.072495 
Q 348.422639 186.387031 346.821702 186.546128 
Q 345.220765 186.707053 343.477126 186.707053 
Q 338.277424 186.707053 335.240548 185.514743 
Q 332.203673 184.322434 332.203673 182.283438 
Q 332.203673 180.237128 335.240548 179.046647 
Q 338.277424 177.854337 343.477126 177.854337 
Q 345.220765 177.854337 346.821702 178.015263 
Q 348.422639 178.174359 349.903172 178.488895 
L 349.903172 180.253586 
Q 348.409261 179.836643 346.959945 179.642802 
Q 345.510628 179.44896 343.909691 179.44896 
Q 341.037814 179.44896 339.392283 180.204211 
Q 337.75121 180.957634 337.75121 182.283438 
Q 337.75121 183.603756 339.392283 184.359008 
Q 341.037814 185.11243 343.909691 185.11243 
Q 345.510628 185.11243 346.959945 184.918589 
Q 348.409261 184.722918 349.903172 184.305976 
L 349.903172 186.072495 
z
" clip-path="url(#p2edacc9d28)" style="fill: #0000ff"/>
   </g>
   <g id="patch_55">
    <path d="M 344.464131 160.517928 
L 337.657188 160.517928 
L 336.582408 177.854337 
L 332.203673 177.854337 
L 338.456941 82.687647 
L 343.649904 82.687647 
L 349.903172 177.854337 
L 345.528056 177.854337 
L 344.464131 160.517928 
z
M 338.742825 142.855186 
L 343.367638 142.855186 
L 341.058851 105.000626 
L 338.742825 142.855186 
z
" clip-path="url(#p2edacc9d28)" style="fill: #008000"/>
   </g>
   <g id="patch_56">
    <path d="M 350.834725 191.587238 
L 368.534224 191.587238 
L 368.534224 191.714544 
L 362.16652 191.714544 
L 362.16652 192.24 
L 357.214777 192.24 
L 357.214777 191.714544 
L 350.834725 191.714544 
L 350.834725 191.587238 
z
" clip-path="url(#p2edacc9d28)" style="fill: #ff0000"/>
   </g>
   <g id="patch_57">
    <path d="M 368.534224 191.350997 
Q 366.7492 191.469117 364.829308 191.528447 
Q 362.909416 191.587238 360.86259 191.587238 
Q 356.237396 191.587238 353.53606 191.235574 
Q 350.834725 190.88391 350.834725 190.282522 
Q 350.834725 189.674122 353.583661 189.325155 
Q 356.336563 188.976188 361.124393 188.976188 
Q 362.968917 188.976188 364.658739 189.023652 
Q 366.352528 189.070576 367.851948 189.163346 
L 367.851948 189.68383 
Q 366.304928 189.564631 364.773774 189.505841 
Q 363.242621 189.446511 361.703534 189.446511 
Q 358.85543 189.446511 357.312376 189.663335 
Q 355.769323 189.879619 355.769323 190.282522 
Q 355.769323 190.681649 357.256842 190.899552 
Q 358.744362 191.116914 361.481398 191.116914 
Q 362.227141 191.116914 362.865783 191.104509 
Q 363.504424 191.091564 364.012164 191.064596 
L 364.012164 190.575935 
L 361.096626 190.575935 
L 361.096626 190.14067 
L 368.534224 190.14067 
L 368.534224 191.350997 
z
" clip-path="url(#p2edacc9d28)" style="fill: #ffa600"/>
   </g>
   <g id="patch_58">
    <path d="M 363.095183 184.338581 
L 356.28824 184.338581 
L 355.21346 188.976188 
L 350.834725 188.976188 
L 357.087993 163.518454 
L 362.280956 163.518454 
L 368.534224 188.976188 
L 364.159107 188.976188 
L 363.095183 184.338581 
z
M 357.373877 179.613678 
L 361.99869 179.613678 
L 359.689902 169.487327 
L 357.373877 179.613678 
z
" clip-path="url(#p2edacc9d28)" style="fill: #008000"/>
   </g>
   <g id="patch_59">
    <path d="M 368.534224 160.945025 
Q 367.053691 162.220615 365.452754 162.865826 
Q 363.851817 163.518454 362.108177 163.518454 
Q 356.908476 163.518454 353.8716 158.683077 
Q 350.834725 153.8477 350.834725 145.578612 
Q 350.834725 137.279859 353.8716 132.451898 
Q 356.908476 127.616521 362.108177 127.616521 
Q 363.851817 127.616521 365.452754 128.269149 
Q 367.053691 128.91436 368.534224 130.18995 
L 368.534224 137.346605 
Q 367.040313 135.655706 365.590996 134.869587 
Q 364.14168 134.083467 362.540743 134.083467 
Q 359.668866 134.083467 358.023334 137.146367 
Q 356.382262 140.201851 356.382262 145.578612 
Q 356.382262 150.933125 358.023334 153.996024 
Q 359.668866 157.051508 362.540743 157.051508 
Q 364.14168 157.051508 365.590996 156.265388 
Q 367.040313 155.471853 368.534224 153.780954 
L 368.534224 160.945025 
z
" clip-path="url(#p2edacc9d28)" style="fill: #0000ff"/>
   </g>
   <g id="patch_60">
    <path d="M 387.165275 191.969073 
Q 385.684743 192.103365 384.083806 192.171292 
Q 382.482868 192.24 380.739229 192.24 
Q 375.539527 192.24 372.502652 191.730938 
Q 369.465776 191.221877 369.465776 190.351318 
Q 369.465776 189.477637 372.502652 188.969356 
Q 375.539527 188.460295 380.739229 188.460295 
Q 382.482868 188.460295 384.083806 188.529002 
Q 385.684743 188.596929 387.165275 188.731222 
L 387.165275 189.484664 
Q 385.671365 189.306649 384.222048 189.223887 
Q 382.772732 189.141126 381.171794 189.141126 
Q 378.299918 189.141126 376.654386 189.463583 
Q 375.013314 189.785261 375.013314 190.351318 
Q 375.013314 190.915034 376.654386 191.237492 
Q 378.299918 191.559169 381.171794 191.559169 
Q 382.772732 191.559169 384.222048 191.476407 
Q 385.671365 191.392865 387.165275 191.21485 
L 387.165275 191.969073 
z
" clip-path="url(#p2edacc9d28)" style="fill: #0000ff"/>
   </g>
   <g id="patch_61">
    <path d="M 381.726235 186.85369 
L 374.919292 186.85369 
L 373.844512 188.460295 
L 369.465776 188.460295 
L 375.719044 179.640982 
L 380.912007 179.640982 
L 387.165275 188.460295 
L 382.790159 188.460295 
L 381.726235 186.85369 
z
M 376.004929 185.216844 
L 380.629742 185.216844 
L 378.320954 181.708776 
L 376.004929 185.216844 
z
" clip-path="url(#p2edacc9d28)" style="fill: #008000"/>
   </g>
   <g id="patch_62">
    <path d="M 369.465776 67.509722 
L 387.165275 67.509722 
L 387.165275 89.378442 
L 380.797572 89.378442 
L 380.797572 179.640982 
L 375.845828 179.640982 
L 375.845828 89.378442 
L 369.465776 89.378442 
L 369.465776 67.509722 
z
" clip-path="url(#p2edacc9d28)" style="fill: #ff0000"/>
   </g>
   <g id="patch_63">
    <path d="M 405.796327 192.152704 
Q 404.315795 192.195974 402.714857 192.217861 
Q 401.11392 192.24 399.370281 192.24 
Q 394.170579 192.24 391.133704 192.075973 
Q 388.096828 191.911947 388.096828 191.631441 
Q 388.096828 191.34993 391.133704 191.186155 
Q 394.170579 191.022128 399.370281 191.022128 
Q 401.11392 191.022128 402.714857 191.044267 
Q 404.315795 191.066154 405.796327 191.109425 
L 405.796327 191.352194 
Q 404.302416 191.294835 402.8531 191.268168 
Q 401.403783 191.241501 399.802846 191.241501 
Q 396.93097 191.241501 395.285438 191.345401 
Q 393.644366 191.44905 393.644366 191.631441 
Q 393.644366 191.813078 395.285438 191.916978 
Q 396.93097 192.020627 399.802846 192.020627 
Q 401.403783 192.020627 402.8531 191.99396 
Q 404.302416 191.967042 405.796327 191.909683 
L 405.796327 192.152704 
z
" clip-path="url(#p2edacc9d28)" style="fill: #0000ff"/>
   </g>
   <g id="patch_64">
    <path d="M 388.096828 187.977449 
L 405.796327 187.977449 
L 405.796327 188.571246 
L 399.428624 188.571246 
L 399.428624 191.022128 
L 394.47688 191.022128 
L 394.47688 188.571246 
L 388.096828 188.571246 
L 388.096828 187.977449 
z
" clip-path="url(#p2edacc9d28)" style="fill: #ff0000"/>
   </g>
   <g id="patch_65">
    <path d="M 405.796327 186.159321 
Q 404.011304 187.068385 402.091412 187.524992 
Q 400.17152 187.977449 398.124693 187.977449 
Q 393.499499 187.977449 390.798164 185.271011 
Q 388.096828 182.564574 388.096828 177.936234 
Q 388.096828 173.253931 390.845764 170.568248 
Q 393.598667 167.882565 398.386497 167.882565 
Q 400.231021 167.882565 401.920843 168.247851 
Q 403.614632 168.608986 405.114052 169.322955 
L 405.114052 173.328648 
Q 403.567031 172.411282 402.035878 171.958826 
Q 400.504724 171.502218 398.965637 171.502218 
Q 396.117533 171.502218 394.57448 173.170911 
Q 393.031426 174.835453 393.031426 177.936234 
Q 393.031426 181.007957 394.518946 182.684952 
Q 396.006465 184.357796 398.743501 184.357796 
Q 399.489244 184.357796 400.127886 184.262324 
Q 400.766528 184.1627 401.274268 183.955151 
L 401.274268 180.194366 
L 398.35873 180.194366 
L 398.35873 176.844526 
L 405.796327 176.844526 
L 405.796327 186.159321 
z
" clip-path="url(#p2edacc9d28)" style="fill: #ffa600"/>
   </g>
   <g id="patch_66">
    <path d="M 400.357287 161.337745 
L 393.550344 161.337745 
L 392.475563 167.882565 
L 388.096828 167.882565 
L 394.350096 131.955349 
L 399.543059 131.955349 
L 405.796327 167.882565 
L 401.421211 167.882565 
L 400.357287 161.337745 
z
M 394.635981 154.669727 
L 399.260793 154.669727 
L 396.952006 140.378918 
L 394.635981 154.669727 
z
" clip-path="url(#p2edacc9d28)" style="fill: #008000"/>
   </g>
   <g id="patch_67">
    <path d="M 424.427379 192.101688 
Q 422.946846 192.170246 421.345909 192.204924 
Q 419.744972 192.24 418.001333 192.24 
Q 412.801631 192.24 409.764755 191.980117 
Q 406.72788 191.720235 406.72788 191.275803 
Q 406.72788 190.829777 409.764755 190.570293 
Q 412.801631 190.310411 418.001333 190.310411 
Q 419.744972 190.310411 421.345909 190.345487 
Q 422.946846 190.380164 424.427379 190.448722 
L 424.427379 190.833365 
Q 422.933468 190.742486 421.484152 190.700235 
Q 420.034835 190.657984 418.433898 190.657984 
Q 415.562021 190.657984 413.91649 190.822603 
Q 412.275417 190.986823 412.275417 191.275803 
Q 412.275417 191.563587 413.91649 191.728206 
Q 415.562021 191.892427 418.433898 191.892427 
Q 420.034835 191.892427 421.484152 191.850176 
Q 422.933468 191.807526 424.427379 191.716647 
L 424.427379 192.101688 
z
" clip-path="url(#p2edacc9d28)" style="fill: #0000ff"/>
   </g>
   <g id="patch_68">
    <path d="M 424.427379 189.728465 
Q 422.642356 190.019438 420.722464 190.165588 
Q 418.802572 190.310411 416.755745 190.310411 
Q 412.130551 190.310411 409.429215 189.444135 
Q 406.72788 188.577859 406.72788 187.096421 
Q 406.72788 185.597711 409.476816 184.738078 
Q 412.229719 183.878446 417.017548 183.878446 
Q 418.862073 183.878446 420.551895 183.995366 
Q 422.245684 184.110958 423.745103 184.339485 
L 423.745103 185.621626 
Q 422.198083 185.327996 420.66693 185.183174 
Q 419.135776 185.037023 417.596689 185.037023 
Q 414.748585 185.037023 413.205532 185.571138 
Q 411.662478 186.103924 411.662478 187.096421 
Q 411.662478 188.079617 413.149997 188.61639 
Q 414.637517 189.151833 417.374553 189.151833 
Q 418.120296 189.151833 418.758938 189.121274 
Q 419.39758 189.089387 419.90532 189.022955 
L 419.90532 187.819203 
L 416.989781 187.819203 
L 416.989781 186.746988 
L 424.427379 186.746988 
L 424.427379 189.728465 
z
" clip-path="url(#p2edacc9d28)" style="fill: #ffa600"/>
   </g>
   <g id="patch_69">
    <path d="M 418.988338 182.003719 
L 412.181395 182.003719 
L 411.106615 183.878446 
L 406.72788 183.878446 
L 412.981148 173.587302 
L 418.174111 173.587302 
L 424.427379 183.878446 
L 420.052263 183.878446 
L 418.988338 182.003719 
z
M 413.267032 180.093704 
L 417.891845 180.093704 
L 415.583058 176.000185 
L 413.267032 180.093704 
z
" clip-path="url(#p2edacc9d28)" style="fill: #008000"/>
   </g>
   <g id="patch_70">
    <path d="M 406.72788 128.563547 
L 424.427379 128.563547 
L 424.427379 137.344434 
L 418.059675 137.344434 
L 418.059675 173.587302 
L 413.107932 173.587302 
L 413.107932 137.344434 
L 406.72788 137.344434 
L 406.72788 128.563547 
z
" clip-path="url(#p2edacc9d28)" style="fill: #ff0000"/>
   </g>
   <g id="patch_71">
    <path d="M 443.058431 192.164687 
Q 441.577898 192.202018 439.976961 192.220901 
Q 438.376024 192.24 436.632384 192.24 
Q 431.432683 192.24 428.395807 192.09849 
Q 425.358932 191.956981 425.358932 191.714982 
Q 425.358932 191.472114 428.395807 191.330822 
Q 431.432683 191.189312 436.632384 191.189312 
Q 438.376024 191.189312 439.976961 191.208411 
Q 441.577898 191.227294 443.058431 191.264625 
L 443.058431 191.474068 
Q 441.56452 191.424583 440.115203 191.401577 
Q 438.665887 191.37857 437.06495 191.37857 
Q 434.193073 191.37857 432.547541 191.468208 
Q 430.906469 191.557628 430.906469 191.714982 
Q 430.906469 191.871684 432.547541 191.961321 
Q 434.193073 192.050742 437.06495 192.050742 
Q 438.665887 192.050742 440.115203 192.027735 
Q 441.56452 192.004512 443.058431 191.955027 
L 443.058431 192.164687 
z
" clip-path="url(#p2edacc9d28)" style="fill: #0000ff"/>
   </g>
   <g id="patch_72">
    <path d="M 437.61939 190.232299 
L 430.812447 190.232299 
L 429.737667 191.189312 
L 425.358932 191.189312 
L 431.6122 185.935872 
L 436.805163 185.935872 
L 443.058431 191.189312 
L 438.683314 191.189312 
L 437.61939 190.232299 
z
M 431.898084 189.257271 
L 436.522897 189.257271 
L 434.214109 187.167604 
L 431.898084 189.257271 
z
" clip-path="url(#p2edacc9d28)" style="fill: #008000"/>
   </g>
   <g id="patch_73">
    <path d="M 443.058431 185.080302 
Q 441.273407 185.508087 439.353515 185.722956 
Q 437.433623 185.935872 435.386797 185.935872 
Q 430.761603 185.935872 428.060267 184.662284 
Q 425.358932 183.388697 425.358932 181.210706 
Q 425.358932 179.007321 428.107868 177.7435 
Q 430.86077 176.47968 435.6486 176.47968 
Q 437.493124 176.47968 439.182946 176.651575 
Q 440.876735 176.821517 442.376155 177.157494 
L 442.376155 179.042481 
Q 440.829135 178.61079 439.297981 178.397874 
Q 437.766828 178.183005 436.227741 178.183005 
Q 433.379637 178.183005 431.836583 178.968254 
Q 430.29353 179.751549 430.29353 181.210706 
Q 430.29353 182.656189 431.781049 183.445344 
Q 433.268569 184.232546 436.005605 184.232546 
Q 436.751348 184.232546 437.38999 184.187619 
Q 438.028631 184.140738 438.536371 184.043071 
L 438.536371 182.273331 
L 435.620833 182.273331 
L 435.620833 180.696973 
L 443.058431 180.696973 
L 443.058431 185.080302 
z
" clip-path="url(#p2edacc9d28)" style="fill: #ffa600"/>
   </g>
   <g id="patch_74">
    <path d="M 425.358932 88.221885 
L 443.058431 88.221885 
L 443.058431 105.434614 
L 436.690727 105.434614 
L 436.690727 176.47968 
L 431.738984 176.47968 
L 431.738984 105.434614 
L 425.358932 105.434614 
L 425.358932 88.221885 
z
" clip-path="url(#p2edacc9d28)" style="fill: #ff0000"/>
   </g>
   <g id="patch_75">
    <path d="M 461.689482 192.078376 
Q 460.20895 192.158489 458.608013 192.199012 
Q 457.007075 192.24 455.263436 192.24 
Q 450.063734 192.24 447.026859 191.936315 
Q 443.989983 191.632629 443.989983 191.11329 
Q 443.989983 190.592088 447.026859 190.288868 
Q 450.063734 189.985183 455.263436 189.985183 
Q 457.007075 189.985183 458.608013 190.026171 
Q 460.20895 190.066693 461.689482 190.146807 
L 461.689482 190.59628 
Q 460.195572 190.490083 458.746255 190.440711 
Q 457.296939 190.391339 455.696001 190.391339 
Q 452.824125 190.391339 451.178593 190.583704 
Q 449.537521 190.775603 449.537521 191.11329 
Q 449.537521 191.44958 451.178593 191.641945 
Q 452.824125 191.833844 455.696001 191.833844 
Q 457.296939 191.833844 458.746255 191.784472 
Q 460.195572 191.734634 461.689482 191.628437 
L 461.689482 192.078376 
z
" clip-path="url(#p2edacc9d28)" style="fill: #0000ff"/>
   </g>
   <g id="patch_76">
    <path d="M 456.250442 189.300587 
L 449.443499 189.300587 
L 448.368719 189.985183 
L 443.989983 189.985183 
L 450.243251 186.227154 
L 455.436214 186.227154 
L 461.689482 189.985183 
L 457.314366 189.985183 
L 456.250442 189.300587 
z
M 450.529136 188.603105 
L 455.153949 188.603105 
L 452.845161 187.108269 
L 450.529136 188.603105 
z
" clip-path="url(#p2edacc9d28)" style="fill: #008000"/>
   </g>
   <g id="patch_77">
    <path d="M 461.689482 185.003097 
Q 459.904459 185.615126 457.984567 185.922537 
Q 456.064675 186.227154 454.017848 186.227154 
Q 449.392654 186.227154 446.691319 184.405042 
Q 443.989983 182.58293 443.989983 179.466895 
Q 443.989983 176.314529 446.738919 174.50639 
Q 449.491822 172.698251 454.279652 172.698251 
Q 456.124176 172.698251 457.813998 172.94418 
Q 459.507787 173.187315 461.007207 173.667995 
L 461.007207 176.364832 
Q 459.460187 175.747215 457.929033 175.442598 
Q 456.39788 175.135186 454.858793 175.135186 
Q 452.010689 175.135186 450.467635 176.258636 
Q 448.924581 177.379291 448.924581 179.466895 
Q 448.924581 181.534936 450.412101 182.663975 
Q 451.899621 183.790219 454.636656 183.790219 
Q 455.3824 183.790219 456.021041 183.725942 
Q 456.659683 183.65887 457.167423 183.519138 
L 457.167423 180.987184 
L 454.251885 180.987184 
L 454.251885 178.731901 
L 461.689482 178.731901 
L 461.689482 185.003097 
z
" clip-path="url(#p2edacc9d28)" style="fill: #ffa600"/>
   </g>
   <g id="patch_78">
    <path d="M 443.989983 117.831032 
L 461.689482 117.831032 
L 461.689482 128.531669 
L 455.321779 128.531669 
L 455.321779 172.698251 
L 450.370035 172.698251 
L 450.370035 128.531669 
L 443.989983 128.531669 
L 443.989983 117.831032 
z
" clip-path="url(#p2edacc9d28)" style="fill: #ff0000"/>
   </g>
   <g id="patch_79">
    <path d="M 480.320534 192.172608 
Q 478.840002 192.206013 477.239064 192.222909 
Q 475.638127 192.24 473.894488 192.24 
Q 468.694786 192.24 465.657911 192.113372 
Q 462.621035 191.986745 462.621035 191.770196 
Q 462.621035 191.552871 465.657911 191.426437 
Q 468.694786 191.29981 473.894488 191.29981 
Q 475.638127 191.29981 477.239064 191.316901 
Q 478.840002 191.333797 480.320534 191.367202 
L 480.320534 191.554619 
Q 478.826623 191.510338 477.377307 191.489751 
Q 475.92799 191.469164 474.327053 191.469164 
Q 471.455177 191.469164 469.809645 191.549375 
Q 468.168573 191.629391 468.168573 191.770196 
Q 468.168573 191.910419 469.809645 191.990629 
Q 471.455177 192.070645 474.327053 192.070645 
Q 475.92799 192.070645 477.377307 192.050059 
Q 478.826623 192.029278 480.320534 191.984997 
L 480.320534 192.172608 
z
" clip-path="url(#p2edacc9d28)" style="fill: #0000ff"/>
   </g>
   <g id="patch_80">
    <path d="M 462.621035 185.345272 
L 480.320534 185.345272 
L 480.320534 186.506573 
L 473.952831 186.506573 
L 473.952831 191.29981 
L 469.001087 191.29981 
L 469.001087 186.506573 
L 462.621035 186.506573 
L 462.621035 185.345272 
z
" clip-path="url(#p2edacc9d28)" style="fill: #ff0000"/>
   </g>
   <g id="patch_81">
    <path d="M 474.881494 183.632538 
L 468.074551 183.632538 
L 466.99977 185.345272 
L 462.621035 185.345272 
L 468.874303 175.943371 
L 474.067266 175.943371 
L 480.320534 185.345272 
L 475.945418 185.345272 
L 474.881494 183.632538 
z
M 469.160188 181.887565 
L 473.785 181.887565 
L 471.476213 178.14776 
L 469.160188 181.887565 
z
" clip-path="url(#p2edacc9d28)" style="fill: #008000"/>
   </g>
   <g id="patch_82">
    <path d="M 480.320534 174.610674 
Q 478.535511 175.277023 476.615619 175.611718 
Q 474.695727 175.943371 472.6489 175.943371 
Q 468.023706 175.943371 465.322371 173.959539 
Q 462.621035 171.975708 462.621035 168.583112 
Q 462.621035 165.150962 465.369971 163.182344 
Q 468.122874 161.213725 472.910704 161.213725 
Q 474.755228 161.213725 476.44505 161.481482 
Q 478.138839 161.746196 479.638259 162.269538 
L 479.638259 165.20573 
Q 478.091238 164.533296 476.560085 164.201644 
Q 475.028931 163.866948 473.489844 163.866948 
Q 470.64174 163.866948 469.098687 165.090108 
Q 467.555633 166.310225 467.555633 168.583112 
Q 467.555633 170.8347 469.043153 172.063946 
Q 470.530672 173.290148 473.267708 173.290148 
Q 474.013451 173.290148 474.652093 173.220166 
Q 475.290735 173.147142 475.798475 172.995008 
L 475.798475 170.238334 
L 472.882937 170.238334 
L 472.882937 167.782886 
L 480.320534 167.782886 
L 480.320534 174.610674 
z
" clip-path="url(#p2edacc9d28)" style="fill: #ffa600"/>
   </g>
   <g id="patch_83">
    <path d="M 481.252087 191.290682 
L 498.951586 191.290682 
L 498.951586 191.475826 
L 492.583882 191.475826 
L 492.583882 192.24 
L 487.632139 192.24 
L 487.632139 191.475826 
L 481.252087 191.475826 
L 481.252087 191.290682 
z
" clip-path="url(#p2edacc9d28)" style="fill: #ff0000"/>
   </g>
   <g id="patch_84">
    <path d="M 498.951586 191.067364 
Q 497.166563 191.179023 495.246671 191.235107 
Q 493.326779 191.290682 491.279952 191.290682 
Q 486.654758 191.290682 483.953422 190.958254 
Q 481.252087 190.625826 481.252087 190.057334 
Q 481.252087 189.482213 484.001023 189.152334 
Q 486.753926 188.822456 491.541755 188.822456 
Q 493.38628 188.822456 495.076102 188.867323 
Q 496.769891 188.911681 498.26931 188.999377 
L 498.26931 189.49139 
Q 496.72229 189.378712 495.191137 189.323137 
Q 493.659983 189.267052 492.120896 189.267052 
Q 489.272792 189.267052 487.729739 189.472016 
Q 486.186685 189.676469 486.186685 190.057334 
Q 486.186685 190.434629 487.674205 190.640612 
Q 489.161724 190.846085 491.89876 190.846085 
Q 492.644503 190.846085 493.283145 190.834358 
Q 493.921787 190.822122 494.429527 190.796629 
L 494.429527 190.334697 
L 491.513988 190.334697 
L 491.513988 189.923241 
L 498.951586 189.923241 
L 498.951586 191.067364 
z
" clip-path="url(#p2edacc9d28)" style="fill: #ffa600"/>
   </g>
   <g id="patch_85">
    <path d="M 498.951586 187.339041 
Q 497.471053 188.074336 495.870116 188.446258 
Q 494.269179 188.822456 492.52554 188.822456 
Q 487.325838 188.822456 484.288962 186.035175 
Q 481.252087 183.247895 481.252087 178.481303 
Q 481.252087 173.697611 484.288962 170.914606 
Q 487.325838 168.127325 492.52554 168.127325 
Q 494.269179 168.127325 495.870116 168.503523 
Q 497.471053 168.875445 498.951586 169.61074 
L 498.951586 173.736086 
Q 497.457675 172.761393 496.008359 172.308246 
Q 494.559042 171.855099 492.958105 171.855099 
Q 490.086228 171.855099 488.440697 173.620662 
Q 486.799624 175.38195 486.799624 178.481303 
Q 486.799624 181.567831 488.440697 183.333394 
Q 490.086228 185.094682 492.958105 185.094682 
Q 494.559042 185.094682 496.008359 184.641535 
Q 497.457675 184.184113 498.951586 183.20942 
L 498.951586 187.339041 
z
" clip-path="url(#p2edacc9d28)" style="fill: #0000ff"/>
   </g>
   <g id="patch_86">
    <path d="M 493.512545 158.823359 
L 486.705603 158.823359 
L 485.630822 168.127325 
L 481.252087 168.127325 
L 487.505355 117.054022 
L 492.698318 117.054022 
L 498.951586 168.127325 
L 494.57647 168.127325 
L 493.512545 158.823359 
z
M 487.791239 149.344259 
L 492.416052 149.344259 
L 490.107265 129.028775 
L 487.791239 149.344259 
z
" clip-path="url(#p2edacc9d28)" style="fill: #008000"/>
   </g>
   <g id="patch_87">
    <path d="M 517.582638 192.157731 
Q 515.797614 192.198865 513.877722 192.219527 
Q 511.957831 192.24 509.911004 192.24 
Q 505.28581 192.24 502.584474 192.117535 
Q 499.883139 191.99507 499.883139 191.78564 
Q 499.883139 191.573768 502.632075 191.452242 
Q 505.384978 191.330716 510.172807 191.330716 
Q 512.017331 191.330716 513.707153 191.347245 
Q 515.400942 191.363587 516.900362 191.395893 
L 516.900362 191.577149 
Q 515.353342 191.535639 513.822188 191.515165 
Q 512.291035 191.494504 510.751948 191.494504 
Q 507.903844 191.494504 506.36079 191.570011 
Q 504.817737 191.645331 504.817737 191.78564 
Q 504.817737 191.924634 506.305256 192.000517 
Q 507.792776 192.076212 510.529812 192.076212 
Q 511.275555 192.076212 511.914197 192.071892 
Q 512.552838 192.067384 513.060578 192.057993 
L 513.060578 191.887819 
L 510.14504 191.887819 
L 510.14504 191.736241 
L 517.582638 191.736241 
L 517.582638 192.157731 
z
" clip-path="url(#p2edacc9d28)" style="fill: #ffa600"/>
   </g>
   <g id="patch_88">
    <path d="M 512.143597 189.839928 
L 505.336654 189.839928 
L 504.261874 191.330716 
L 499.883139 191.330716 
L 506.136407 183.147163 
L 511.32937 183.147163 
L 517.582638 191.330716 
L 513.207521 191.330716 
L 512.143597 189.839928 
z
M 506.422291 188.321077 
L 511.047104 188.321077 
L 508.738316 185.065896 
L 506.422291 188.321077 
z
" clip-path="url(#p2edacc9d28)" style="fill: #008000"/>
   </g>
   <g id="patch_89">
    <path d="M 517.582638 182.531603 
Q 516.102105 182.836722 514.501168 182.991056 
Q 512.900231 183.147163 511.156591 183.147163 
Q 505.95689 183.147163 502.920014 181.990549 
Q 499.883139 180.833936 499.883139 178.855984 
Q 499.883139 176.870937 502.920014 175.716098 
Q 505.95689 174.559484 511.156591 174.559484 
Q 512.900231 174.559484 514.501168 174.715591 
Q 516.102105 174.869925 517.582638 175.175044 
L 517.582638 176.886903 
Q 516.088727 176.482443 514.63941 176.294404 
Q 513.190094 176.106366 511.589157 176.106366 
Q 508.71728 176.106366 507.071748 176.839006 
Q 505.430676 177.569873 505.430676 178.855984 
Q 505.430676 180.136774 507.071748 180.869415 
Q 508.71728 181.600281 511.589157 181.600281 
Q 513.190094 181.600281 514.63941 181.412243 
Q 516.088727 181.22243 517.582638 180.81797 
L 517.582638 182.531603 
z
" clip-path="url(#p2edacc9d28)" style="fill: #0000ff"/>
   </g>
   <g id="patch_90">
    <path d="M 499.883139 152.231518 
L 517.582638 152.231518 
L 517.582638 156.586093 
L 511.214934 156.586093 
L 511.214934 174.559484 
L 506.263191 174.559484 
L 506.263191 156.586093 
L 499.883139 156.586093 
L 499.883139 152.231518 
z
" clip-path="url(#p2edacc9d28)" style="fill: #ff0000"/>
   </g>
   <g id="patch_91">
    <path d="M 536.213689 192.090274 
Q 534.428666 192.165137 532.508774 192.202739 
Q 530.588882 192.24 528.542055 192.24 
Q 523.916861 192.24 521.215526 192.01712 
Q 518.51419 191.79424 518.51419 191.413088 
Q 518.51419 191.027491 521.263126 190.806321 
Q 524.016029 190.58515 528.803859 190.58515 
Q 530.648383 190.58515 532.338205 190.615232 
Q 534.031994 190.644972 535.531414 190.703768 
L 535.531414 191.033645 
Q 533.984394 190.958098 532.45324 190.920837 
Q 530.922087 190.883235 529.383 190.883235 
Q 526.534896 190.883235 524.991842 191.020655 
Q 523.448788 191.157733 523.448788 191.413088 
Q 523.448788 191.66605 524.936308 191.804153 
Q 526.423828 191.941915 529.160864 191.941915 
Q 529.906607 191.941915 530.545248 191.934053 
Q 531.18389 191.925849 531.69163 191.908756 
L 531.69163 191.599049 
L 528.776092 191.599049 
L 528.776092 191.323184 
L 536.213689 191.323184 
L 536.213689 192.090274 
z
" clip-path="url(#p2edacc9d28)" style="fill: #ffa600"/>
   </g>
   <g id="patch_92">
    <path d="M 536.213689 190.150215 
Q 534.733157 190.365802 533.13222 190.474849 
Q 531.531282 190.58515 529.787643 190.58515 
Q 524.587941 190.58515 521.551066 189.767923 
Q 518.51419 188.950696 518.51419 187.553138 
Q 518.51419 186.150566 521.551066 185.334592 
Q 524.587941 184.517365 529.787643 184.517365 
Q 531.531282 184.517365 533.13222 184.627666 
Q 534.733157 184.736713 536.213689 184.952301 
L 536.213689 186.161847 
Q 534.719779 185.876068 533.270462 185.743206 
Q 531.821146 185.610344 530.220208 185.610344 
Q 527.348332 185.610344 525.7028 186.128004 
Q 524.061728 186.644411 524.061728 187.553138 
Q 524.061728 188.458104 525.7028 188.975764 
Q 527.348332 189.492171 530.220208 189.492171 
Q 531.821146 189.492171 533.270462 189.359309 
Q 534.719779 189.225194 536.213689 188.939415 
L 536.213689 190.150215 
z
" clip-path="url(#p2edacc9d28)" style="fill: #0000ff"/>
   </g>
   <g id="patch_93">
    <path d="M 530.774649 182.474121 
L 523.967706 182.474121 
L 522.892926 184.517365 
L 518.51419 184.517365 
L 524.767458 173.301158 
L 529.960421 173.301158 
L 536.213689 184.517365 
L 531.838573 184.517365 
L 530.774649 182.474121 
z
M 525.053343 180.392416 
L 529.678156 180.392416 
L 527.369368 175.930933 
L 525.053343 180.392416 
z
" clip-path="url(#p2edacc9d28)" style="fill: #008000"/>
   </g>
   <g id="patch_94">
    <path d="M 518.51419 119.426588 
L 536.213689 119.426588 
L 536.213689 129.933631 
L 529.845986 129.933631 
L 529.845986 173.301158 
L 524.894242 173.301158 
L 524.894242 129.933631 
L 518.51419 129.933631 
L 518.51419 119.426588 
z
" clip-path="url(#p2edacc9d28)" style="fill: #ff0000"/>
   </g>
   <g id="patch_95">
    <path d="M 554.844741 192.134075 
Q 553.059718 192.187037 551.139826 192.21364 
Q 549.219934 192.24 547.173107 192.24 
Q 542.547913 192.24 539.846578 192.082321 
Q 537.145242 191.924643 537.145242 191.654993 
Q 537.145242 191.382199 539.894178 191.22573 
Q 542.647081 191.06926 547.434911 191.06926 
Q 549.279435 191.06926 550.969257 191.090542 
Q 552.663046 191.111582 554.162466 191.153178 
L 554.162466 191.386552 
Q 552.615445 191.333106 551.084292 191.306746 
Q 549.553138 191.280144 548.014052 191.280144 
Q 545.165947 191.280144 543.622894 191.377363 
Q 542.07984 191.47434 542.07984 191.654993 
Q 542.07984 191.833953 543.56736 191.931656 
Q 545.054879 192.029117 547.791915 192.029117 
Q 548.537658 192.029117 549.1763 192.023555 
Q 549.814942 192.017751 550.322682 192.005659 
L 550.322682 191.786553 
L 547.407144 191.786553 
L 547.407144 191.59139 
L 554.844741 191.59139 
L 554.844741 192.134075 
z
" clip-path="url(#p2edacc9d28)" style="fill: #ffa600"/>
   </g>
   <g id="patch_96">
    <path d="M 537.145242 185.215563 
L 554.844741 185.215563 
L 554.844741 186.357197 
L 548.477038 186.357197 
L 548.477038 191.06926 
L 543.525294 191.06926 
L 543.525294 186.357197 
L 537.145242 186.357197 
L 537.145242 185.215563 
z
" clip-path="url(#p2edacc9d28)" style="fill: #ff0000"/>
   </g>
   <g id="patch_97">
    <path d="M 549.405701 183.427357 
L 542.598758 183.427357 
L 541.523977 185.215563 
L 537.145242 185.215563 
L 543.39851 175.399362 
L 548.591473 175.399362 
L 554.844741 185.215563 
L 550.469625 185.215563 
L 549.405701 183.427357 
z
M 543.684395 181.60549 
L 548.309208 181.60549 
L 546.00042 177.700889 
L 543.684395 181.60549 
z
" clip-path="url(#p2edacc9d28)" style="fill: #008000"/>
   </g>
   <g id="patch_98">
    <path d="M 554.844741 174.05022 
Q 553.364209 174.718959 551.763271 175.057217 
Q 550.162334 175.399362 548.418695 175.399362 
Q 543.218993 175.399362 540.182118 172.864375 
Q 537.145242 170.329388 537.145242 165.99425 
Q 537.145242 161.643559 540.182118 159.11246 
Q 543.218993 156.577473 548.418695 156.577473 
Q 550.162334 156.577473 551.763271 156.919619 
Q 553.364209 157.257876 554.844741 157.926615 
L 554.844741 161.678551 
Q 553.35083 160.792083 551.901514 160.379953 
Q 550.452197 159.967824 548.85126 159.967824 
Q 545.979384 159.967824 544.333852 161.573575 
Q 542.69278 163.175438 542.69278 165.99425 
Q 542.69278 168.801398 544.333852 170.407149 
Q 545.979384 172.009012 548.85126 172.009012 
Q 550.452197 172.009012 551.901514 171.596882 
Q 553.35083 171.180864 554.844741 170.294396 
L 554.844741 174.05022 
z
" clip-path="url(#p2edacc9d28)" style="fill: #0000ff"/>
   </g>
   <g id="patch_99">
    <path d="M 555.776294 191.233088 
L 573.475793 191.233088 
L 573.475793 191.429464 
L 567.108089 191.429464 
L 567.108089 192.24 
L 562.156346 192.24 
L 562.156346 191.429464 
L 555.776294 191.429464 
L 555.776294 191.233088 
z
" clip-path="url(#p2edacc9d28)" style="fill: #ff0000"/>
   </g>
   <g id="patch_100">
    <path d="M 573.475793 190.872214 
Q 571.99526 191.051091 570.394323 191.141569 
Q 568.793386 191.233088 567.049747 191.233088 
Q 561.850045 191.233088 558.813169 190.555019 
Q 555.776294 189.876949 555.776294 188.717368 
Q 555.776294 187.553626 558.813169 186.876597 
Q 561.850045 186.198527 567.049747 186.198527 
Q 568.793386 186.198527 570.394323 186.290046 
Q 571.99526 186.380524 573.475793 186.559402 
L 573.475793 187.562986 
Q 571.981882 187.325869 570.532566 187.215631 
Q 569.083249 187.105393 567.482312 187.105393 
Q 564.610435 187.105393 562.964904 187.534906 
Q 561.323831 187.963379 561.323831 188.717368 
Q 561.323831 189.468236 562.964904 189.897749 
Q 564.610435 190.326222 567.482312 190.326222 
Q 569.083249 190.326222 570.532566 190.215984 
Q 571.981882 190.104706 573.475793 189.867589 
L 573.475793 190.872214 
z
" clip-path="url(#p2edacc9d28)" style="fill: #0000ff"/>
   </g>
   <g id="patch_101">
    <path d="M 568.036752 183.569392 
L 561.22981 183.569392 
L 560.155029 186.198527 
L 555.776294 186.198527 
L 562.029562 171.76612 
L 567.222525 171.76612 
L 573.475793 186.198527 
L 569.100677 186.198527 
L 568.036752 183.569392 
z
M 562.315446 180.890767 
L 566.940259 180.890767 
L 564.631472 175.149972 
L 562.315446 180.890767 
z
" clip-path="url(#p2edacc9d28)" style="fill: #008000"/>
   </g>
   <g id="patch_102">
    <path d="M 573.475793 169.610026 
Q 571.69077 170.688073 569.770878 171.229558 
Q 567.850986 171.76612 565.804159 171.76612 
Q 561.178965 171.76612 558.477629 168.556592 
Q 555.776294 165.347064 555.776294 159.858377 
Q 555.776294 154.305697 558.52523 151.120782 
Q 561.278133 147.935867 566.065962 147.935867 
Q 567.910487 147.935867 569.600309 148.369054 
Q 571.294098 148.79732 572.793517 149.644005 
L 572.793517 154.394303 
Q 571.246497 153.306411 569.715344 152.769849 
Q 568.18419 152.228364 566.645103 152.228364 
Q 563.796999 152.228364 562.253946 154.207245 
Q 560.710892 156.181203 560.710892 159.858377 
Q 560.710892 163.501093 562.198412 165.489819 
Q 563.685931 167.473623 566.422967 167.473623 
Q 567.16871 167.473623 567.807352 167.360403 
Q 568.445994 167.242261 568.953734 166.996131 
L 568.953734 162.536266 
L 566.038195 162.536266 
L 566.038195 158.563736 
L 573.475793 158.563736 
L 573.475793 169.610026 
z
" clip-path="url(#p2edacc9d28)" style="fill: #ffa600"/>
   </g>
   <g id="patch_103">
    <path d="M 592.106845 192.063292 
Q 590.321821 192.151646 588.401929 192.196025 
Q 586.482038 192.24 584.435211 192.24 
Q 579.810017 192.24 577.108681 191.976955 
Q 574.407346 191.71391 574.407346 191.264072 
Q 574.407346 190.808988 577.156282 190.54796 
Q 579.909185 190.286933 584.697014 190.286933 
Q 586.541538 190.286933 588.23136 190.322436 
Q 589.925149 190.357535 591.424569 190.426927 
L 591.424569 190.81625 
Q 589.877549 190.727089 588.346395 190.683114 
Q 586.815242 190.638735 585.276155 190.638735 
Q 582.428051 190.638735 580.884997 190.800919 
Q 579.341944 190.9627 579.341944 191.264072 
Q 579.341944 191.562619 580.829463 191.72561 
Q 582.316983 191.888198 585.054019 191.888198 
Q 585.799762 191.888198 586.438404 191.878919 
Q 587.077045 191.869236 587.584785 191.849064 
L 587.584785 191.483544 
L 584.669247 191.483544 
L 584.669247 191.157966 
L 592.106845 191.157966 
L 592.106845 192.063292 
z
" clip-path="url(#p2edacc9d28)" style="fill: #ffa600"/>
   </g>
   <g id="patch_104">
    <path d="M 592.106845 190.01361 
Q 590.626312 190.14909 589.025375 190.217617 
Q 587.424438 190.286933 585.680798 190.286933 
Q 580.481097 190.286933 577.444221 189.773369 
Q 574.407346 189.259805 574.407346 188.381548 
Q 574.407346 187.500141 577.444221 186.987365 
Q 580.481097 186.473801 585.680798 186.473801 
Q 587.424438 186.473801 589.025375 186.543117 
Q 590.626312 186.611644 592.106845 186.747124 
L 592.106845 187.50723 
Q 590.612934 187.32764 589.163617 187.244147 
Q 587.714301 187.160653 586.113364 187.160653 
Q 583.241487 187.160653 581.595955 187.485963 
Q 579.954883 187.810485 579.954883 188.381548 
Q 579.954883 188.950249 581.595955 189.275559 
Q 583.241487 189.600081 586.113364 189.600081 
Q 587.714301 189.600081 589.163617 189.516587 
Q 590.612934 189.432306 592.106845 189.252716 
L 592.106845 190.01361 
z
" clip-path="url(#p2edacc9d28)" style="fill: #0000ff"/>
   </g>
   <g id="patch_105">
    <path d="M 574.407346 174.848401 
L 592.106845 174.848401 
L 592.106845 177.115678 
L 585.739141 177.115678 
L 585.739141 186.473801 
L 580.787398 186.473801 
L 580.787398 177.115678 
L 574.407346 177.115678 
L 574.407346 174.848401 
z
" clip-path="url(#p2edacc9d28)" style="fill: #ff0000"/>
   </g>
   <g id="patch_106">
    <path d="M 586.667804 171.307462 
L 579.860861 171.307462 
L 578.786081 174.848401 
L 574.407346 174.848401 
L 580.660614 155.410731 
L 585.853577 155.410731 
L 592.106845 174.848401 
L 587.731728 174.848401 
L 586.667804 171.307462 
z
M 580.946498 167.69987 
L 585.571311 167.69987 
L 583.262523 159.968127 
L 580.946498 167.69987 
z
" clip-path="url(#p2edacc9d28)" style="fill: #008000"/>
   </g>
   <g id="patch_107">
    <path d="M 610.737896 191.964353 
Q 608.952873 192.102177 607.032981 192.171403 
Q 605.113089 192.24 603.066262 192.24 
Q 598.441068 192.24 595.739733 191.829676 
Q 593.038397 191.419352 593.038397 190.717648 
Q 593.038397 190.007763 595.787333 189.600586 
Q 598.540236 189.193409 603.328066 189.193409 
Q 605.17259 189.193409 606.862412 189.24879 
Q 608.556201 189.303542 610.055621 189.411786 
L 610.055621 190.019091 
Q 608.508601 189.880009 606.977447 189.811412 
Q 605.446294 189.742185 603.907207 189.742185 
Q 601.059103 189.742185 599.516049 189.995176 
Q 597.972995 190.247538 597.972995 190.717648 
Q 597.972995 191.183353 599.460515 191.437603 
Q 600.948035 191.691223 603.685071 191.691223 
Q 604.430814 191.691223 605.069455 191.676749 
Q 605.708097 191.661645 606.215837 191.630178 
L 606.215837 191.060004 
L 603.300299 191.060004 
L 603.300299 190.552134 
L 610.737896 190.552134 
L 610.737896 191.964353 
z
" clip-path="url(#p2edacc9d28)" style="fill: #ffa600"/>
   </g>
   <g id="patch_108">
    <path d="M 610.737896 188.907838 
Q 609.257364 189.049389 607.656427 189.120987 
Q 606.055489 189.193409 604.31185 189.193409 
Q 599.112148 189.193409 596.075273 188.656831 
Q 593.038397 188.120254 593.038397 187.202641 
Q 593.038397 186.281736 596.075273 185.745982 
Q 599.112148 185.209405 604.31185 185.209405 
Q 606.055489 185.209405 607.656427 185.281826 
Q 609.257364 185.353425 610.737896 185.494976 
L 610.737896 186.289143 
Q 609.243986 186.101505 607.794669 186.01427 
Q 606.345353 185.927036 604.744415 185.927036 
Q 601.872539 185.927036 600.227007 186.266923 
Q 598.585935 186.605987 598.585935 187.202641 
Q 598.585935 187.796826 600.227007 188.136713 
Q 601.872539 188.475778 604.744415 188.475778 
Q 606.345353 188.475778 607.794669 188.388543 
Q 609.243986 188.300485 610.737896 188.112847 
L 610.737896 188.907838 
z
" clip-path="url(#p2edacc9d28)" style="fill: #0000ff"/>
   </g>
   <g id="patch_109">
    <path d="M 593.038397 175.600924 
L 610.737896 175.600924 
L 610.737896 177.474845 
L 604.370193 177.474845 
L 604.370193 185.209405 
L 599.418449 185.209405 
L 599.418449 177.474845 
L 593.038397 177.474845 
L 593.038397 175.600924 
z
" clip-path="url(#p2edacc9d28)" style="fill: #ff0000"/>
   </g>
   <g id="patch_110">
    <path d="M 605.298856 161.726071 
L 598.491913 161.726071 
L 597.417133 175.600924 
L 593.038397 175.600924 
L 599.291665 99.43614 
L 604.484628 99.43614 
L 610.737896 175.600924 
L 606.36278 175.600924 
L 605.298856 161.726071 
z
M 599.57755 147.590043 
L 604.202363 147.590043 
L 601.893575 117.293893 
L 599.57755 147.590043 
z
" clip-path="url(#p2edacc9d28)" style="fill: #008000"/>
   </g>
   <g id="patch_111">
    <path d="M 623.929908 192.055227 
L 617.122965 192.055227 
L 616.048184 192.24 
L 611.669449 192.24 
L 617.922717 191.225704 
L 623.11568 191.225704 
L 629.368948 192.24 
L 624.993832 192.24 
L 623.929908 192.055227 
z
M 618.208602 191.866976 
L 622.833415 191.866976 
L 620.524627 191.463518 
L 618.208602 191.866976 
z
" clip-path="url(#p2edacc9d28)" style="fill: #008000"/>
   </g>
   <g id="patch_112">
    <path d="M 611.669449 185.199594 
L 629.368948 185.199594 
L 629.368948 186.374853 
L 623.001245 186.374853 
L 623.001245 191.225704 
L 618.049501 191.225704 
L 618.049501 186.374853 
L 611.669449 186.374853 
L 611.669449 185.199594 
z
" clip-path="url(#p2edacc9d28)" style="fill: #ff0000"/>
   </g>
   <g id="patch_113">
    <path d="M 629.368948 184.632775 
Q 627.583925 184.916185 625.664033 185.058536 
Q 623.744141 185.199594 621.697314 185.199594 
Q 617.07212 185.199594 614.370785 184.355837 
Q 611.669449 183.51208 611.669449 182.069151 
Q 611.669449 180.609399 614.418385 179.772113 
Q 617.171288 178.934826 621.959118 178.934826 
Q 623.803642 178.934826 625.493464 179.048707 
Q 627.187253 179.161294 628.686673 179.383881 
L 628.686673 180.632693 
Q 627.139652 180.346696 625.608499 180.205638 
Q 624.077345 180.063287 622.538259 180.063287 
Q 619.690154 180.063287 618.147101 180.583517 
Q 616.604047 181.102454 616.604047 182.069151 
Q 616.604047 183.02679 618.091567 183.549609 
Q 619.579086 184.071133 622.316122 184.071133 
Q 623.061865 184.071133 623.700507 184.041369 
Q 624.339149 184.01031 624.846889 183.945605 
L 624.846889 182.773145 
L 621.931351 182.773145 
L 621.931351 181.728801 
L 629.368948 181.728801 
L 629.368948 184.632775 
z
" clip-path="url(#p2edacc9d28)" style="fill: #ffa600"/>
   </g>
   <g id="patch_114">
    <path d="M 629.368948 178.194955 
Q 627.888416 178.561692 626.287478 178.747193 
Q 624.686541 178.934826 622.942902 178.934826 
Q 617.7432 178.934826 614.706325 177.544635 
Q 611.669449 176.154445 611.669449 173.777049 
Q 611.669449 171.391123 614.706325 170.003065 
Q 617.7432 168.612875 622.942902 168.612875 
Q 624.686541 168.612875 626.287478 168.800508 
Q 627.888416 168.986009 629.368948 169.352746 
L 629.368948 171.410313 
Q 627.875037 170.924173 626.425721 170.69816 
Q 624.976404 170.472148 623.375467 170.472148 
Q 620.503591 170.472148 618.858059 171.352744 
Q 617.216987 172.231208 617.216987 173.777049 
Q 617.216987 175.316493 618.858059 176.197089 
Q 620.503591 177.075553 623.375467 177.075553 
Q 624.976404 177.075553 626.425721 176.84954 
Q 627.875037 176.621395 629.368948 176.135255 
L 629.368948 178.194955 
z
" clip-path="url(#p2edacc9d28)" style="fill: #0000ff"/>
   </g>
   <g id="patch_115">
    <path d="M 648 191.918239 
Q 646.214977 192.079119 644.295085 192.159927 
Q 642.375193 192.24 640.328366 192.24 
Q 635.703172 192.24 633.001836 191.761031 
Q 630.300501 191.282062 630.300501 190.462967 
Q 630.300501 189.634321 633.049437 189.159025 
Q 635.80234 188.68373 640.590169 188.68373 
Q 642.434694 188.68373 644.124516 188.748376 
Q 645.818305 188.812287 647.317724 188.938641 
L 647.317724 189.647544 
Q 645.770704 189.485194 644.239551 189.405121 
Q 642.708397 189.324314 641.16931 189.324314 
Q 638.321206 189.324314 636.778153 189.619629 
Q 635.235099 189.914209 635.235099 190.462967 
Q 635.235099 191.006582 636.722619 191.303366 
Q 638.210138 191.599416 640.947174 191.599416 
Q 641.692917 191.599416 642.331559 191.58252 
Q 642.970201 191.564889 643.477941 191.528158 
L 643.477941 190.862597 
L 640.562402 190.862597 
L 640.562402 190.269763 
L 648 190.269763 
L 648 191.918239 
z
" clip-path="url(#p2edacc9d28)" style="fill: #ffa600"/>
   </g>
   <g id="patch_116">
    <path d="M 630.300501 184.29069 
L 648 184.29069 
L 648 185.147455 
L 641.632296 185.147455 
L 641.632296 188.68373 
L 636.680553 188.68373 
L 636.680553 185.147455 
L 630.300501 185.147455 
L 630.300501 184.29069 
z
" clip-path="url(#p2edacc9d28)" style="fill: #ff0000"/>
   </g>
   <g id="patch_117">
    <path d="M 648 183.615924 
Q 646.519467 183.95039 644.91853 184.119568 
Q 643.317593 184.29069 641.573954 184.29069 
Q 636.374252 184.29069 633.337376 183.022831 
Q 630.300501 181.754972 630.300501 179.586778 
Q 630.300501 177.410806 633.337376 176.144892 
Q 636.374252 174.877033 641.573954 174.877033 
Q 643.317593 174.877033 644.91853 175.048155 
Q 646.519467 175.217332 648 175.551798 
L 648 177.428307 
Q 646.506089 176.984945 645.056773 176.778821 
Q 643.607456 176.572697 642.006519 176.572697 
Q 639.134642 176.572697 637.489111 177.375804 
Q 635.848038 178.176966 635.848038 179.586778 
Q 635.848038 180.990757 637.489111 181.793864 
Q 639.134642 182.595026 642.006519 182.595026 
Q 643.607456 182.595026 645.056773 182.388902 
Q 646.506089 182.180833 648 181.737471 
L 648 183.615924 
z
" clip-path="url(#p2edacc9d28)" style="fill: #0000ff"/>
   </g>
   <g id="patch_118">
    <path d="M 642.560959 162.949122 
L 635.754017 162.949122 
L 634.679236 174.877033 
L 630.300501 174.877033 
L 636.553769 109.399819 
L 641.746732 109.399819 
L 648 174.877033 
L 643.624884 174.877033 
L 642.560959 162.949122 
z
M 636.839653 150.796686 
L 641.464466 150.796686 
L 639.155679 124.751742 
L 636.839653 150.796686 
z
" clip-path="url(#p2edacc9d28)" style="fill: #008000"/>
   </g>
   <g id="matplotlib.axis_1">
    <g id="xtick_1">
     <g id="line2d_2">
      <defs>
       <path id="m3c54bfb559" d="M 0 0 
L 0 3.5 
" style="stroke: #000000; stroke-width: 0.8"/>
      </defs>
      <g>
       <use xlink:href="#m3c54bfb559" x="98.84975" y="192.24" style="stroke: #000000; stroke-width: 0.8"/>
      </g>
     </g>
     <g id="text_1">
      <!-- 0 -->
      <g transform="translate(95.6685 206.838437) scale(0.1 -0.1)">
       <defs>
        <path id="DejaVuSans-30" d="M 2034 4250 
Q 1547 4250 1301 3770 
Q 1056 3291 1056 2328 
Q 1056 1369 1301 889 
Q 1547 409 2034 409 
Q 2525 409 2770 889 
Q 3016 1369 3016 2328 
Q 3016 3291 2770 3770 
Q 2525 4250 2034 4250 
z
M 2034 4750 
Q 2819 4750 3233 4129 
Q 3647 3509 3647 2328 
Q 3647 1150 3233 529 
Q 2819 -91 2034 -91 
Q 1250 -91 836 529 
Q 422 1150 422 2328 
Q 422 3509 836 4129 
Q 1250 4750 2034 4750 
z
" transform="scale(0.015625)"/>
       </defs>
       <use xlink:href="#DejaVuSans-30"/>
      </g>
     </g>
    </g>
    <g id="xtick_2">
     <g id="line2d_3">
      <g>
       <use xlink:href="#m3c54bfb559" x="192.005008" y="192.24" style="stroke: #000000; stroke-width: 0.8"/>
      </g>
     </g>
     <g id="text_2">
      <!-- 5 -->
      <g transform="translate(188.823758 206.838437) scale(0.1 -0.1)">
       <defs>
        <path id="DejaVuSans-35" d="M 691 4666 
L 3169 4666 
L 3169 4134 
L 1269 4134 
L 1269 2991 
Q 1406 3038 1543 3061 
Q 1681 3084 1819 3084 
Q 2600 3084 3056 2656 
Q 3513 2228 3513 1497 
Q 3513 744 3044 326 
Q 2575 -91 1722 -91 
Q 1428 -91 1123 -41 
Q 819 9 494 109 
L 494 744 
Q 775 591 1075 516 
Q 1375 441 1709 441 
Q 2250 441 2565 725 
Q 2881 1009 2881 1497 
Q 2881 1984 2565 2268 
Q 2250 2553 1709 2553 
Q 1456 2553 1204 2497 
Q 953 2441 691 2322 
L 691 4666 
z
" transform="scale(0.015625)"/>
       </defs>
       <use xlink:href="#DejaVuSans-35"/>
      </g>
     </g>
    </g>
    <g id="xtick_3">
     <g id="line2d_4">
      <g>
       <use xlink:href="#m3c54bfb559" x="285.160267" y="192.24" style="stroke: #000000; stroke-width: 0.8"/>
      </g>
     </g>
     <g id="text_3">
      <!-- 10 -->
      <g transform="translate(278.797767 206.838437) scale(0.1 -0.1)">
       <defs>
        <path id="DejaVuSans-31" d="M 794 531 
L 1825 531 
L 1825 4091 
L 703 3866 
L 703 4441 
L 1819 4666 
L 2450 4666 
L 2450 531 
L 3481 531 
L 3481 0 
L 794 0 
L 794 531 
z
" transform="scale(0.015625)"/>
       </defs>
       <use xlink:href="#DejaVuSans-31"/>
       <use xlink:href="#DejaVuSans-30" x="63.623047"/>
      </g>
     </g>
    </g>
    <g id="xtick_4">
     <g id="line2d_5">
      <g>
       <use xlink:href="#m3c54bfb559" x="378.315526" y="192.24" style="stroke: #000000; stroke-width: 0.8"/>
      </g>
     </g>
     <g id="text_4">
      <!-- 15 -->
      <g transform="translate(371.953026 206.838437) scale(0.1 -0.1)">
       <use xlink:href="#DejaVuSans-31"/>
       <use xlink:href="#DejaVuSans-35" x="63.623047"/>
      </g>
     </g>
    </g>
    <g id="xtick_5">
     <g id="line2d_6">
      <g>
       <use xlink:href="#m3c54bfb559" x="471.470785" y="192.24" style="stroke: #000000; stroke-width: 0.8"/>
      </g>
     </g>
     <g id="text_5">
      <!-- 20 -->
      <g transform="translate(465.108285 206.838437) scale(0.1 -0.1)">
       <defs>
        <path id="DejaVuSans-32" d="M 1228 531 
L 3431 531 
L 3431 0 
L 469 0 
L 469 531 
Q 828 903 1448 1529 
Q 2069 2156 2228 2338 
Q 2531 2678 2651 2914 
Q 2772 3150 2772 3378 
Q 2772 3750 2511 3984 
Q 2250 4219 1831 4219 
Q 1534 4219 1204 4116 
Q 875 4013 500 3803 
L 500 4441 
Q 881 4594 1212 4672 
Q 1544 4750 1819 4750 
Q 2544 4750 2975 4387 
Q 3406 4025 3406 3419 
Q 3406 3131 3298 2873 
Q 3191 2616 2906 2266 
Q 2828 2175 2409 1742 
Q 1991 1309 1228 531 
z
" transform="scale(0.015625)"/>
       </defs>
       <use xlink:href="#DejaVuSans-32"/>
       <use xlink:href="#DejaVuSans-30" x="63.623047"/>
      </g>
     </g>
    </g>
    <g id="xtick_6">
     <g id="line2d_7">
      <g>
       <use xlink:href="#m3c54bfb559" x="564.626043" y="192.24" style="stroke: #000000; stroke-width: 0.8"/>
      </g>
     </g>
     <g id="text_6">
      <!-- 25 -->
      <g transform="translate(558.263543 206.838437) scale(0.1 -0.1)">
       <use xlink:href="#DejaVuSans-32"/>
       <use xlink:href="#DejaVuSans-35" x="63.623047"/>
      </g>
     </g>
    </g>
   </g>
   <g id="matplotlib.axis_2">
    <g id="ytick_1">
     <g id="line2d_8">
      <defs>
       <path id="m45aa47b0ca" d="M 0 0 
L -3.5 0 
" style="stroke: #000000; stroke-width: 0.8"/>
      </defs>
      <g>
       <use xlink:href="#m45aa47b0ca" x="90" y="192.24" style="stroke: #000000; stroke-width: 0.8"/>
      </g>
     </g>
     <g id="text_7">
      <!-- 0.00 -->
      <g transform="translate(60.734375 196.039219) scale(0.1 -0.1)">
       <defs>
        <path id="DejaVuSans-2e" d="M 684 794 
L 1344 794 
L 1344 0 
L 684 0 
L 684 794 
z
" transform="scale(0.015625)"/>
       </defs>
       <use xlink:href="#DejaVuSans-30"/>
       <use xlink:href="#DejaVuSans-2e" x="63.623047"/>
       <use xlink:href="#DejaVuSans-30" x="95.410156"/>
       <use xlink:href="#DejaVuSans-30" x="159.033203"/>
      </g>
     </g>
    </g>
    <g id="ytick_2">
     <g id="line2d_9">
      <g>
       <use xlink:href="#m45aa47b0ca" x="90" y="170.567247" style="stroke: #000000; stroke-width: 0.8"/>
      </g>
     </g>
     <g id="text_8">
      <!-- 0.25 -->
      <g transform="translate(60.734375 174.366466) scale(0.1 -0.1)">
       <use xlink:href="#DejaVuSans-30"/>
       <use xlink:href="#DejaVuSans-2e" x="63.623047"/>
       <use xlink:href="#DejaVuSans-32" x="95.410156"/>
       <use xlink:href="#DejaVuSans-35" x="159.033203"/>
      </g>
     </g>
    </g>
    <g id="ytick_3">
     <g id="line2d_10">
      <g>
       <use xlink:href="#m45aa47b0ca" x="90" y="148.894494" style="stroke: #000000; stroke-width: 0.8"/>
      </g>
     </g>
     <g id="text_9">
      <!-- 0.50 -->
      <g transform="translate(60.734375 152.693712) scale(0.1 -0.1)">
       <use xlink:href="#DejaVuSans-30"/>
       <use xlink:href="#DejaVuSans-2e" x="63.623047"/>
       <use xlink:href="#DejaVuSans-35" x="95.410156"/>
       <use xlink:href="#DejaVuSans-30" x="159.033203"/>
      </g>
     </g>
    </g>
    <g id="ytick_4">
     <g id="line2d_11">
      <g>
       <use xlink:href="#m45aa47b0ca" x="90" y="127.22174" style="stroke: #000000; stroke-width: 0.8"/>
      </g>
     </g>
     <g id="text_10">
      <!-- 0.75 -->
      <g transform="translate(60.734375 131.020959) scale(0.1 -0.1)">
       <defs>
        <path id="DejaVuSans-37" d="M 525 4666 
L 3525 4666 
L 3525 4397 
L 1831 0 
L 1172 0 
L 2766 4134 
L 525 4134 
L 525 4666 
z
" transform="scale(0.015625)"/>
       </defs>
       <use xlink:href="#DejaVuSans-30"/>
       <use xlink:href="#DejaVuSans-2e" x="63.623047"/>
       <use xlink:href="#DejaVuSans-37" x="95.410156"/>
       <use xlink:href="#DejaVuSans-35" x="159.033203"/>
      </g>
     </g>
    </g>
    <g id="ytick_5">
     <g id="line2d_12">
      <g>
       <use xlink:href="#m45aa47b0ca" x="90" y="105.548987" style="stroke: #000000; stroke-width: 0.8"/>
      </g>
     </g>
     <g id="text_11">
      <!-- 1.00 -->
      <g transform="translate(60.734375 109.348206) scale(0.1 -0.1)">
       <use xlink:href="#DejaVuSans-31"/>
       <use xlink:href="#DejaVuSans-2e" x="63.623047"/>
       <use xlink:href="#DejaVuSans-30" x="95.410156"/>
       <use xlink:href="#DejaVuSans-30" x="159.033203"/>
      </g>
     </g>
    </g>
    <g id="ytick_6">
     <g id="line2d_13">
      <g>
       <use xlink:href="#m45aa47b0ca" x="90" y="83.876234" style="stroke: #000000; stroke-width: 0.8"/>
      </g>
     </g>
     <g id="text_12">
      <!-- 1.25 -->
      <g transform="translate(60.734375 87.675453) scale(0.1 -0.1)">
       <use xlink:href="#DejaVuSans-31"/>
       <use xlink:href="#DejaVuSans-2e" x="63.623047"/>
       <use xlink:href="#DejaVuSans-32" x="95.410156"/>
       <use xlink:href="#DejaVuSans-35" x="159.033203"/>
      </g>
     </g>
    </g>
    <g id="ytick_7">
     <g id="line2d_14">
      <g>
       <use xlink:href="#m45aa47b0ca" x="90" y="62.203481" style="stroke: #000000; stroke-width: 0.8"/>
      </g>
     </g>
     <g id="text_13">
      <!-- 1.50 -->
      <g transform="translate(60.734375 66.0027) scale(0.1 -0.1)">
       <use xlink:href="#DejaVuSans-31"/>
       <use xlink:href="#DejaVuSans-2e" x="63.623047"/>
       <use xlink:href="#DejaVuSans-35" x="95.410156"/>
       <use xlink:href="#DejaVuSans-30" x="159.033203"/>
      </g>
     </g>
    </g>
    <g id="ytick_8">
     <g id="line2d_15">
      <g>
       <use xlink:href="#m45aa47b0ca" x="90" y="40.530728" style="stroke: #000000; stroke-width: 0.8"/>
      </g>
     </g>
     <g id="text_14">
      <!-- 1.75 -->
      <g transform="translate(60.734375 44.329946) scale(0.1 -0.1)">
       <use xlink:href="#DejaVuSans-31"/>
       <use xlink:href="#DejaVuSans-2e" x="63.623047"/>
       <use xlink:href="#DejaVuSans-37" x="95.410156"/>
       <use xlink:href="#DejaVuSans-35" x="159.033203"/>
      </g>
     </g>
    </g>
   </g>
  </g>
 </g>
 <defs>
  <clipPath id="p2edacc9d28">
   <rect x="90" y="25.92" width="558" height="166.32"/>
  </clipPath>
 </defs>
</svg>
