<?xml version="1.0" encoding="utf-8" standalone="no"?>
<!DOCTYPE svg PUBLIC "-//W3C//DTD SVG 1.1//EN"
  "http://www.w3.org/Graphics/SVG/1.1/DTD/svg11.dtd">
<svg xmlns:xlink="http://www.w3.org/1999/xlink" width="720pt" height="216pt" viewBox="0 0 720 216" xmlns="http://www.w3.org/2000/svg" version="1.1">
 <metadata>
  <rdf:RDF xmlns:dc="http://purl.org/dc/elements/1.1/" xmlns:cc="http://creativecommons.org/ns#" xmlns:rdf="http://www.w3.org/1999/02/22-rdf-syntax-ns#">
   <cc:Work>
    <dc:type rdf:resource="http://purl.org/dc/dcmitype/StillImage"/>
    <dc:date>2025-12-17T10:22:30.091218</dc:date>
    <dc:format>image/svg+xml</dc:format>
    <dc:creator>
     <cc:Agent>
      <dc:title>Matplotlib v3.8.2, https://matplotlib.org/</dc:title>
     </cc:Agent>
    </dc:creator>
   </cc:Work>
  </rdf:RDF>
 </metadata>
 <defs>
  <style type="text/css">*{stroke-linejoin: round; stroke-linecap: butt}</style>
 </defs>
 <g id="figure_1">
  <g id="patch_1">
   <path d="M 0 216 
L 720 216 
L 720 0 
L 0 0 
z
" style="fill: #ffffff"/>
  </g>
  <g id="axes_1">
   <g id="patch_2">
    <path d="M 90 192.24 
L 648 192.24 
L 648 25.92 
L 90 25.92 
z
" style="fill: #ffffff"/>
   </g>
   <g id="line2d_1">
    <path d="M 90 192.24 
L 648 192.24 
" clip-path="url(#pb83e0e76ff)" style="fill: none; stroke: #000000; stroke-width: 0.5; stroke-linecap: square"/>
   </g>
   <g id="patch_3">
    <path d="M 102.260459 191.385921 
L 95.453516 191.385921 
L 94.378735 192.24 
L 90 192.24 
L 96.253268 187.551608 
L 101.446231 187.551608 
L 107.699499 192.24 
L 103.324383 192.24 
L 102.260459 191.385921 
z
M 96.539153 190.515765 
L 101.163965 190.515765 
L 98.855178 188.650858 
L 96.539153 190.515765 
z
" clip-path="url(#pb83e0e76ff)" style="fill: #008000"/>
   </g>
   <g id="patch_4">
    <path d="M 90 180.4434 
L 107.699499 180.4434 
L 107.699499 181.829698 
L 101.331796 181.829698 
L 101.331796 187.551608 
L 96.380052 187.551608 
L 96.380052 181.829698 
L 90 181.829698 
L 90 180.4434 
z
" clip-path="url(#pb83e0e76ff)" style="fill: #ff0000"/>
   </g>
   <g id="patch_5">
    <path d="M 107.699499 179.6908 
Q 105.914476 180.0671 103.994584 180.256109 
Q 102.074692 180.4434 100.027865 180.4434 
Q 95.402671 180.4434 92.701335 179.323091 
Q 90 178.202783 90 176.286919 
Q 90 174.348717 92.748936 173.237001 
Q 95.501839 172.125284 100.289668 172.125284 
Q 102.134193 172.125284 103.824015 172.276491 
Q 105.517804 172.42598 107.017224 172.721521 
L 107.017224 174.379646 
Q 105.470203 173.99991 103.93905 173.812619 
Q 102.407896 173.62361 100.868809 173.62361 
Q 98.020705 173.62361 96.477652 174.314352 
Q 94.934598 175.003376 94.934598 176.286919 
Q 94.934598 177.558434 96.422118 178.252613 
Q 97.909637 178.945073 100.646673 178.945073 
Q 101.392416 178.945073 102.031058 178.905553 
Q 102.6697 178.864315 103.17744 178.778402 
L 103.17744 177.221655 
L 100.261901 177.221655 
L 100.261901 175.835016 
L 107.699499 175.835016 
L 107.699499 179.6908 
z
" clip-path="url(#pb83e0e76ff)" style="fill: #ffa600"/>
   </g>
   <g id="patch_6">
    <path d="M 107.699499 170.32573 
Q 106.218967 171.217728 104.618029 171.668913 
Q 103.017092 172.125284 101.273453 172.125284 
Q 96.073751 172.125284 93.036876 168.74399 
Q 90 165.362697 90 159.58027 
Q 90 153.777099 93.036876 150.400992 
Q 96.073751 147.019698 101.273453 147.019698 
Q 103.017092 147.019698 104.618029 147.476069 
Q 106.218967 147.927254 107.699499 148.819252 
L 107.699499 153.823773 
Q 106.205588 152.641358 104.756272 152.091638 
Q 103.306955 151.541919 101.706018 151.541919 
Q 98.834142 151.541919 97.18861 153.683751 
Q 95.547538 155.820396 95.547538 159.58027 
Q 95.547538 163.324586 97.18861 165.466417 
Q 98.834142 167.603063 101.706018 167.603063 
Q 103.306955 167.603063 104.756272 167.053344 
Q 106.205588 166.498438 107.699499 165.316022 
L 107.699499 170.32573 
z
" clip-path="url(#pb83e0e76ff)" style="fill: #0000ff"/>
   </g>
   <g id="patch_7">
    <path d="M 126.330551 191.807783 
Q 124.545527 192.023891 122.625636 192.132439 
Q 120.705744 192.24 118.658917 192.24 
Q 114.033723 192.24 111.332387 191.596608 
Q 108.631052 190.953216 108.631052 189.852937 
Q 108.631052 188.73983 111.379988 188.101372 
Q 114.132891 187.462915 118.92072 187.462915 
Q 120.765244 187.462915 122.455067 187.549753 
Q 124.148856 187.635604 125.648275 187.805333 
L 125.648275 188.757593 
Q 124.101255 188.53951 122.570102 188.431949 
Q 121.038948 188.323402 119.499861 188.323402 
Q 116.651757 188.323402 115.108704 188.720094 
Q 113.56565 189.1158 113.56565 189.852937 
Q 113.56565 190.583167 115.053169 190.981834 
Q 116.540689 191.379513 119.277725 191.379513 
Q 120.023468 191.379513 120.66211 191.356816 
Q 121.300752 191.333133 121.808492 191.283793 
L 121.808492 190.389755 
L 118.892953 190.389755 
L 118.892953 189.59341 
L 126.330551 189.59341 
L 126.330551 191.807783 
z
" clip-path="url(#pb83e0e76ff)" style="fill: #ffa600"/>
   </g>
   <g id="patch_8">
    <path d="M 120.89151 186.2634 
L 114.084567 186.2634 
L 113.009787 187.462915 
L 108.631052 187.462915 
L 114.88432 180.878283 
L 120.077283 180.878283 
L 126.330551 187.462915 
L 121.955434 187.462915 
L 120.89151 186.2634 
z
M 115.170204 185.041306 
L 119.795017 185.041306 
L 117.48623 182.422129 
L 115.170204 185.041306 
z
" clip-path="url(#pb83e0e76ff)" style="fill: #008000"/>
   </g>
   <g id="patch_9">
    <path d="M 126.330551 180.406301 
Q 124.850018 180.640252 123.249081 180.758587 
Q 121.648144 180.878283 119.904504 180.878283 
Q 114.704803 180.878283 111.667927 179.991446 
Q 108.631052 179.104608 108.631052 177.588008 
Q 108.631052 176.065966 111.667927 175.180489 
Q 114.704803 174.293652 119.904504 174.293652 
Q 121.648144 174.293652 123.249081 174.413348 
Q 124.850018 174.531683 126.330551 174.765634 
L 126.330551 176.078208 
Q 124.83664 175.768087 123.387324 175.623908 
Q 121.938007 175.479729 120.33707 175.479729 
Q 117.465193 175.479729 115.819662 176.041483 
Q 114.178589 176.601877 114.178589 177.588008 
Q 114.178589 178.570058 115.819662 179.131812 
Q 117.465193 179.692206 120.33707 179.692206 
Q 121.938007 179.692206 123.387324 179.548027 
Q 124.83664 179.402488 126.330551 179.092367 
L 126.330551 180.406301 
z
" clip-path="url(#pb83e0e76ff)" style="fill: #0000ff"/>
   </g>
   <g id="patch_10">
    <path d="M 108.631052 153.635985 
L 126.330551 153.635985 
L 126.330551 157.664806 
L 119.962847 157.664806 
L 119.962847 174.293652 
L 115.011104 174.293652 
L 115.011104 157.664806 
L 108.631052 157.664806 
L 108.631052 153.635985 
z
" clip-path="url(#pb83e0e76ff)" style="fill: #ff0000"/>
   </g>
   <g id="patch_11">
    <path d="M 144.961603 191.607497 
Q 143.176579 191.923749 141.256687 192.082596 
Q 139.336795 192.24 137.289969 192.24 
Q 132.664774 192.24 129.963439 191.298466 
Q 127.262104 190.356932 127.262104 188.746793 
Q 127.262104 187.117882 130.01104 186.183568 
Q 132.763942 185.249255 137.551772 185.249255 
Q 139.396296 185.249255 141.086118 185.376333 
Q 142.779907 185.501967 144.279327 185.750347 
L 144.279327 187.143875 
Q 142.732307 186.824736 141.201153 186.667332 
Q 139.67 186.508484 138.130913 186.508484 
Q 135.282809 186.508484 133.739755 187.089 
Q 132.196702 187.668073 132.196702 188.746793 
Q 132.196702 189.815406 133.684221 190.39881 
Q 135.171741 190.980771 137.908777 190.980771 
Q 138.65452 190.980771 139.293162 190.947557 
Q 139.931803 190.912899 140.439543 190.840696 
L 140.439543 189.532368 
L 137.524005 189.532368 
L 137.524005 188.367003 
L 144.961603 188.367003 
L 144.961603 191.607497 
z
" clip-path="url(#pb83e0e76ff)" style="fill: #ffa600"/>
   </g>
   <g id="patch_12">
    <path d="M 144.961603 184.607856 
Q 143.48107 184.925783 141.880133 185.086594 
Q 140.279195 185.249255 138.535556 185.249255 
Q 133.335855 185.249255 130.298979 184.044091 
Q 127.262104 182.838928 127.262104 180.77795 
Q 127.262104 178.709579 130.298979 177.506264 
Q 133.335855 176.3011 138.535556 176.3011 
Q 140.279195 176.3011 141.880133 176.463761 
Q 143.48107 176.624572 144.961603 176.942499 
L 144.961603 178.726215 
Q 143.467692 178.304777 142.018375 178.108846 
Q 140.569059 177.912914 138.968121 177.912914 
Q 136.096245 177.912914 134.450713 178.676308 
Q 132.809641 179.437853 132.809641 180.77795 
Q 132.809641 182.112502 134.450713 182.875896 
Q 136.096245 183.637441 138.968121 183.637441 
Q 140.569059 183.637441 142.018375 183.441509 
Q 143.467692 183.243729 144.961603 182.822292 
L 144.961603 184.607856 
z
" clip-path="url(#pb83e0e76ff)" style="fill: #0000ff"/>
   </g>
   <g id="patch_13">
    <path d="M 139.522562 174.314446 
L 132.715619 174.314446 
L 131.640839 176.3011 
L 127.262104 176.3011 
L 133.515372 165.395538 
L 138.708335 165.395538 
L 144.961603 176.3011 
L 140.586486 176.3011 
L 139.522562 174.314446 
z
M 133.801256 172.290396 
L 138.426069 172.290396 
L 136.117281 167.952478 
L 133.801256 172.290396 
z
" clip-path="url(#pb83e0e76ff)" style="fill: #008000"/>
   </g>
   <g id="patch_14">
    <path d="M 127.262104 108.630685 
L 144.961603 108.630685 
L 144.961603 119.701413 
L 138.593899 119.701413 
L 138.593899 165.395538 
L 133.642156 165.395538 
L 133.642156 119.701413 
L 127.262104 119.701413 
L 127.262104 108.630685 
z
" clip-path="url(#pb83e0e76ff)" style="fill: #ff0000"/>
   </g>
   <g id="patch_15">
    <path d="M 158.153614 191.851813 
L 151.346671 191.851813 
L 150.27189 192.24 
L 145.893155 192.24 
L 152.146423 190.109084 
L 157.339386 190.109084 
L 163.592654 192.24 
L 159.217538 192.24 
L 158.153614 191.851813 
z
M 152.432308 191.45632 
L 157.057121 191.45632 
L 154.748333 190.608703 
L 152.432308 191.45632 
z
" clip-path="url(#pb83e0e76ff)" style="fill: #008000"/>
   </g>
   <g id="patch_16">
    <path d="M 145.893155 185.279007 
L 163.592654 185.279007 
L 163.592654 186.221007 
L 157.224951 186.221007 
L 157.224951 190.109084 
L 152.273207 190.109084 
L 152.273207 186.221007 
L 145.893155 186.221007 
L 145.893155 185.279007 
z
" clip-path="url(#pb83e0e76ff)" style="fill: #ff0000"/>
   </g>
   <g id="patch_17">
    <path d="M 163.592654 184.886967 
Q 162.112122 185.081292 160.511185 185.179585 
Q 158.910247 185.279007 157.166608 185.279007 
Q 151.966906 185.279007 148.930031 184.542379 
Q 145.893155 183.805751 145.893155 182.546026 
Q 145.893155 181.281782 148.930031 180.546284 
Q 151.966906 179.809655 157.166608 179.809655 
Q 158.910247 179.809655 160.511185 179.909078 
Q 162.112122 180.00737 163.592654 180.201695 
L 163.592654 181.29195 
Q 162.098744 181.034356 160.649427 180.914598 
Q 159.200111 180.794839 157.599173 180.794839 
Q 154.727297 180.794839 153.081765 181.261446 
Q 151.440693 181.726922 151.440693 182.546026 
Q 151.440693 183.36174 153.081765 183.828347 
Q 154.727297 184.293823 157.599173 184.293823 
Q 159.200111 184.293823 160.649427 184.174065 
Q 162.098744 184.053176 163.592654 183.795582 
L 163.592654 184.886967 
z
" clip-path="url(#pb83e0e76ff)" style="fill: #0000ff"/>
   </g>
   <g id="patch_18">
    <path d="M 163.592654 179.012752 
Q 161.807631 179.411204 159.887739 179.611339 
Q 157.967847 179.809655 155.92102 179.809655 
Q 151.295826 179.809655 148.594491 178.623397 
Q 145.893155 177.437139 145.893155 175.408491 
Q 145.893155 173.356191 148.642091 172.17903 
Q 151.394994 171.001868 156.182824 171.001868 
Q 158.027348 171.001868 159.71717 171.161977 
Q 161.410959 171.320266 162.910379 171.633205 
L 162.910379 173.388941 
Q 161.363358 172.98685 159.832205 172.788534 
Q 158.301052 172.588398 156.761965 172.588398 
Q 153.913861 172.588398 152.370807 173.319803 
Q 150.827753 174.049388 150.827753 175.408491 
Q 150.827753 176.754858 152.315273 177.489902 
Q 153.802792 178.223126 156.539828 178.223126 
Q 157.285572 178.223126 157.924213 178.181279 
Q 158.562855 178.137613 159.070595 178.046642 
L 159.070595 176.398253 
L 156.155057 176.398253 
L 156.155057 174.929985 
L 163.592654 174.929985 
L 163.592654 179.012752 
z
" clip-path="url(#pb83e0e76ff)" style="fill: #ffa600"/>
   </g>
   <g id="patch_19">
    <path d="M 182.223706 192.026765 
Q 180.743174 192.132461 179.142236 192.185923 
Q 177.541299 192.24 175.79766 192.24 
Q 170.597958 192.24 167.561083 191.839339 
Q 164.524207 191.438679 164.524207 190.7535 
Q 164.524207 190.065863 167.561083 189.665817 
Q 170.597958 189.265157 175.79766 189.265157 
Q 177.541299 189.265157 179.142236 189.319233 
Q 180.743174 189.372696 182.223706 189.478392 
L 182.223706 190.071394 
Q 180.729795 189.931285 179.280479 189.866147 
Q 177.831162 189.801009 176.230225 189.801009 
Q 173.358349 189.801009 171.712817 190.054802 
Q 170.071745 190.30798 170.071745 190.7535 
Q 170.071745 191.197176 171.712817 191.450969 
Q 173.358349 191.704147 176.230225 191.704147 
Q 177.831162 191.704147 179.280479 191.639009 
Q 180.729795 191.573257 182.223706 191.433148 
L 182.223706 192.026765 
z
" clip-path="url(#pb83e0e76ff)" style="fill: #0000ff"/>
   </g>
   <g id="patch_20">
    <path d="M 164.524207 184.658947 
L 182.223706 184.658947 
L 182.223706 185.557286 
L 175.856003 185.557286 
L 175.856003 189.265157 
L 170.904259 189.265157 
L 170.904259 185.557286 
L 164.524207 185.557286 
L 164.524207 184.658947 
z
" clip-path="url(#pb83e0e76ff)" style="fill: #ff0000"/>
   </g>
   <g id="patch_21">
    <path d="M 182.223706 183.92094 
Q 180.438683 184.289944 178.518791 184.475288 
Q 176.598899 184.658947 174.552072 184.658947 
Q 169.926878 184.658947 167.225542 183.560362 
Q 164.524207 182.461776 164.524207 180.58306 
Q 164.524207 178.68244 167.273143 177.592279 
Q 170.026046 176.502118 174.813876 176.502118 
Q 176.6584 176.502118 178.348222 176.650394 
Q 180.042011 176.796984 181.541431 177.086795 
L 181.541431 178.712769 
Q 179.99441 178.340396 178.463257 178.156736 
Q 176.932103 177.971392 175.393016 177.971392 
Q 172.544912 177.971392 171.001859 178.648741 
Q 169.458805 179.324405 169.458805 180.58306 
Q 169.458805 181.829921 170.946325 182.51064 
Q 172.433844 183.189673 175.17088 183.189673 
Q 175.916623 183.189673 176.555265 183.15092 
Q 177.193907 183.110481 177.701647 183.026234 
L 177.701647 181.499671 
L 174.786108 181.499671 
L 174.786108 180.139919 
L 182.223706 180.139919 
L 182.223706 183.92094 
z
" clip-path="url(#pb83e0e76ff)" style="fill: #ffa600"/>
   </g>
   <g id="patch_22">
    <path d="M 176.784666 174.142127 
L 169.977723 174.142127 
L 168.902942 176.502118 
L 164.524207 176.502118 
L 170.777475 163.547155 
L 175.970438 163.547155 
L 182.223706 176.502118 
L 177.84859 176.502118 
L 176.784666 174.142127 
z
M 171.06336 171.737713 
L 175.688172 171.737713 
L 173.379385 166.584602 
L 171.06336 171.737713 
z
" clip-path="url(#pb83e0e76ff)" style="fill: #008000"/>
   </g>
   <g id="patch_23">
    <path d="M 200.854758 191.924672 
Q 199.374225 192.080973 197.773288 192.160032 
Q 196.172351 192.24 194.428711 192.24 
Q 189.22901 192.24 186.192134 191.647511 
Q 183.155259 191.055021 183.155259 190.041791 
Q 183.155259 189.024927 186.192134 188.433346 
Q 189.22901 187.840856 194.428711 187.840856 
Q 196.172351 187.840856 197.773288 187.920824 
Q 199.374225 187.999884 200.854758 188.156184 
L 200.854758 189.033105 
Q 199.360847 188.825916 197.911531 188.729591 
Q 196.462214 188.633266 194.861277 188.633266 
Q 191.9894 188.633266 190.343869 189.00857 
Q 188.702796 189.382965 188.702796 190.041791 
Q 188.702796 190.697892 190.343869 191.073196 
Q 191.9894 191.447591 194.861277 191.447591 
Q 196.462214 191.447591 197.911531 191.351266 
Q 199.360847 191.254032 200.854758 191.046842 
L 200.854758 191.924672 
z
" clip-path="url(#pb83e0e76ff)" style="fill: #0000ff"/>
   </g>
   <g id="patch_24">
    <path d="M 183.155259 181.842024 
L 200.854758 181.842024 
L 200.854758 183.011964 
L 194.487054 183.011964 
L 194.487054 187.840856 
L 189.535311 187.840856 
L 189.535311 183.011964 
L 183.155259 183.011964 
L 183.155259 181.842024 
z
" clip-path="url(#pb83e0e76ff)" style="fill: #ff0000"/>
   </g>
   <g id="patch_25">
    <path d="M 195.415717 180.336388 
L 188.608774 180.336388 
L 187.533994 181.842024 
L 183.155259 181.842024 
L 189.408527 173.576967 
L 194.60149 173.576967 
L 200.854758 181.842024 
L 196.479641 181.842024 
L 195.415717 180.336388 
z
M 189.694411 178.80241 
L 194.319224 178.80241 
L 192.010437 175.514809 
L 189.694411 178.80241 
z
" clip-path="url(#pb83e0e76ff)" style="fill: #008000"/>
   </g>
   <g id="patch_26">
    <path d="M 200.854758 171.659224 
Q 199.069734 172.618095 197.149843 173.09972 
Q 195.229951 173.576967 193.183124 173.576967 
Q 188.55793 173.576967 185.856594 170.722245 
Q 183.155259 167.867523 183.155259 162.985597 
Q 183.155259 158.046753 185.904195 155.213923 
Q 188.657098 152.381093 193.444927 152.381093 
Q 195.289451 152.381093 196.979274 152.766393 
Q 198.673063 153.147314 200.172482 153.900401 
L 200.172482 158.125564 
Q 198.625462 157.157936 197.094309 156.68069 
Q 195.563155 156.199065 194.024068 156.199065 
Q 191.175964 156.199065 189.632911 157.959185 
Q 188.089857 159.714927 188.089857 162.985597 
Q 188.089857 166.225619 189.577376 167.994496 
Q 191.064896 169.758995 193.801932 169.758995 
Q 194.547675 169.758995 195.186317 169.658291 
Q 195.824959 169.55321 196.332699 169.334289 
L 196.332699 165.367451 
L 193.41716 165.367451 
L 193.41716 161.834076 
L 200.854758 161.834076 
L 200.854758 171.659224 
z
" clip-path="url(#pb83e0e76ff)" style="fill: #ffa600"/>
   </g>
   <g id="patch_27">
    <path d="M 219.48581 191.625618 
Q 217.700786 191.932809 215.780894 192.087106 
Q 213.861002 192.24 211.814176 192.24 
Q 207.188981 192.24 204.487646 191.32544 
Q 201.786311 190.41088 201.786311 188.846871 
Q 201.786311 187.264626 204.535247 186.35708 
Q 207.288149 185.449534 212.075979 185.449534 
Q 213.920503 185.449534 215.610325 185.572971 
Q 217.304114 185.695006 218.803534 185.93627 
L 218.803534 187.289875 
Q 217.256514 186.979878 215.72536 186.826984 
Q 214.194207 186.672687 212.65512 186.672687 
Q 209.807016 186.672687 208.263962 187.236572 
Q 206.720909 187.799055 206.720909 188.846871 
Q 206.720909 189.884868 208.208428 190.451559 
Q 209.695948 191.016846 212.432984 191.016846 
Q 213.178727 191.016846 213.817369 190.984584 
Q 214.45601 190.95092 214.96375 190.880785 
L 214.96375 189.609939 
L 212.048212 189.609939 
L 212.048212 188.477961 
L 219.48581 188.477961 
L 219.48581 191.625618 
z
" clip-path="url(#pb83e0e76ff)" style="fill: #ffa600"/>
   </g>
   <g id="patch_28">
    <path d="M 219.48581 184.901955 
Q 218.005277 185.173377 216.40434 185.310666 
Q 214.803402 185.449534 213.059763 185.449534 
Q 207.860062 185.449534 204.823186 184.420654 
Q 201.786311 183.391774 201.786311 181.632263 
Q 201.786311 179.86644 204.823186 178.839139 
Q 207.860062 177.810259 213.059763 177.810259 
Q 214.803402 177.810259 216.40434 177.949126 
Q 218.005277 178.086415 219.48581 178.357837 
L 219.48581 179.880643 
Q 217.991899 179.52085 216.542582 179.353578 
Q 215.093266 179.186307 213.492328 179.186307 
Q 210.620452 179.186307 208.97492 179.838036 
Q 207.333848 180.488187 207.333848 181.632263 
Q 207.333848 182.771606 208.97492 183.423335 
Q 210.620452 184.073486 213.492328 184.073486 
Q 215.093266 184.073486 216.542582 183.906214 
Q 217.991899 183.737364 219.48581 183.377572 
L 219.48581 184.901955 
z
" clip-path="url(#pb83e0e76ff)" style="fill: #0000ff"/>
   </g>
   <g id="patch_29">
    <path d="M 201.786311 168.261165 
L 219.48581 168.261165 
L 219.48581 170.123505 
L 213.118106 170.123505 
L 213.118106 177.810259 
L 208.166363 177.810259 
L 208.166363 170.123505 
L 201.786311 170.123505 
L 201.786311 168.261165 
z
" clip-path="url(#pb83e0e76ff)" style="fill: #ff0000"/>
   </g>
   <g id="patch_30">
    <path d="M 214.046769 161.071035 
L 207.239826 161.071035 
L 206.165046 168.261165 
L 201.786311 168.261165 
L 208.039579 128.791579 
L 213.232542 128.791579 
L 219.48581 168.261165 
L 215.110693 168.261165 
L 214.046769 161.071035 
z
M 208.325463 153.745561 
L 212.950276 153.745561 
L 210.641488 138.0457 
L 208.325463 153.745561 
z
" clip-path="url(#pb83e0e76ff)" style="fill: #008000"/>
   </g>
   <g id="patch_31">
    <path d="M 232.677821 191.734713 
L 225.870878 191.734713 
L 224.796097 192.24 
L 220.417362 192.24 
L 226.67063 189.466273 
L 231.863593 189.466273 
L 238.116861 192.24 
L 233.741745 192.24 
L 232.677821 191.734713 
z
M 226.956515 191.219915 
L 231.581328 191.219915 
L 229.27254 190.116607 
L 226.956515 191.219915 
z
" clip-path="url(#pb83e0e76ff)" style="fill: #008000"/>
   </g>
   <g id="patch_32">
    <path d="M 238.116861 189.029119 
Q 236.331838 189.247696 234.411946 189.357484 
Q 232.492054 189.466273 230.445227 189.466273 
Q 225.820033 189.466273 223.118698 188.815532 
Q 220.417362 188.164791 220.417362 187.051944 
Q 220.417362 185.926122 223.166298 185.280371 
Q 225.919201 184.634621 230.707031 184.634621 
Q 232.551555 184.634621 234.241377 184.722451 
Q 235.935166 184.809283 237.434586 184.980951 
L 237.434586 185.944087 
Q 235.887565 185.723514 234.356412 185.614725 
Q 232.825259 185.504937 231.286172 185.504937 
Q 228.438068 185.504937 226.895014 185.906161 
Q 225.35196 186.306386 225.35196 187.051944 
Q 225.35196 187.790515 226.83948 188.193735 
Q 228.327 188.595957 231.064035 188.595957 
Q 231.809779 188.595957 232.44842 188.573002 
Q 233.087062 188.549048 233.594802 188.499144 
L 233.594802 187.594894 
L 230.679264 187.594894 
L 230.679264 186.789452 
L 238.116861 186.789452 
L 238.116861 189.029119 
z
" clip-path="url(#pb83e0e76ff)" style="fill: #ffa600"/>
   </g>
   <g id="patch_33">
    <path d="M 220.417362 177.566092 
L 238.116861 177.566092 
L 238.116861 178.944652 
L 231.749158 178.944652 
L 231.749158 184.634621 
L 226.797414 184.634621 
L 226.797414 178.944652 
L 220.417362 178.944652 
L 220.417362 177.566092 
z
" clip-path="url(#pb83e0e76ff)" style="fill: #ff0000"/>
   </g>
   <g id="patch_34">
    <path d="M 238.116861 176.700267 
Q 236.636329 177.129436 235.035392 177.346516 
Q 233.434454 177.566092 231.690815 177.566092 
Q 226.491113 177.566092 223.454238 175.939239 
Q 220.417362 174.312386 220.417362 171.530268 
Q 220.417362 168.73817 223.454238 167.113812 
Q 226.491113 165.48696 231.690815 165.48696 
Q 233.434454 165.48696 235.035392 165.706535 
Q 236.636329 165.923615 238.116861 166.352785 
L 238.116861 168.760626 
Q 236.622951 168.191727 235.173634 167.927239 
Q 233.724318 167.66275 232.12338 167.66275 
Q 229.251504 167.66275 227.605972 168.693257 
Q 225.9649 169.721268 225.9649 171.530268 
Q 225.9649 173.331783 227.605972 174.36229 
Q 229.251504 175.390301 232.12338 175.390301 
Q 233.724318 175.390301 235.173634 175.125812 
Q 236.622951 174.858829 238.116861 174.28993 
L 238.116861 176.700267 
z
" clip-path="url(#pb83e0e76ff)" style="fill: #0000ff"/>
   </g>
   <g id="patch_35">
    <path d="M 256.747913 191.755904 
Q 255.267381 191.995859 253.666443 192.117232 
Q 252.065506 192.24 250.321867 192.24 
Q 245.122165 192.24 242.08529 191.330401 
Q 239.048414 190.420802 239.048414 188.865275 
Q 239.048414 187.304169 242.08529 186.395965 
Q 245.122165 185.486366 250.321867 185.486366 
Q 252.065506 185.486366 253.666443 185.609134 
Q 255.267381 185.730506 256.747913 185.970462 
L 256.747913 187.316725 
Q 255.254002 186.998644 253.804686 186.850764 
Q 252.355369 186.702885 250.754432 186.702885 
Q 247.882556 186.702885 246.237024 187.279057 
Q 244.595952 187.853835 244.595952 188.865275 
Q 244.595952 189.872531 246.237024 190.448703 
Q 247.882556 191.023481 250.754432 191.023481 
Q 252.355369 191.023481 253.804686 190.875601 
Q 255.254002 190.726327 256.747913 190.408246 
L 256.747913 191.755904 
z
" clip-path="url(#pb83e0e76ff)" style="fill: #0000ff"/>
   </g>
   <g id="patch_36">
    <path d="M 239.048414 176.383641 
L 256.747913 176.383641 
L 256.747913 178.158926 
L 250.38021 178.158926 
L 250.38021 185.486366 
L 245.428466 185.486366 
L 245.428466 178.158926 
L 239.048414 178.158926 
L 239.048414 176.383641 
z
" clip-path="url(#pb83e0e76ff)" style="fill: #ff0000"/>
   </g>
   <g id="patch_37">
    <path d="M 251.308873 174.297477 
L 244.50193 174.297477 
L 243.427149 176.383641 
L 239.048414 176.383641 
L 245.301682 164.931826 
L 250.494645 164.931826 
L 256.747913 176.383641 
L 252.372797 176.383641 
L 251.308873 174.297477 
z
M 245.587567 172.172043 
L 250.212379 172.172043 
L 247.903592 167.616842 
L 245.587567 172.172043 
z
" clip-path="url(#pb83e0e76ff)" style="fill: #008000"/>
   </g>
   <g id="patch_38">
    <path d="M 256.747913 159.458946 
Q 254.96289 162.195386 253.042998 163.569854 
Q 251.123106 164.931826 249.076279 164.931826 
Q 244.451085 164.931826 241.74975 156.784981 
Q 239.048414 148.638136 239.048414 134.706032 
Q 239.048414 120.611491 241.79735 112.527122 
Q 244.550253 104.442753 249.338083 104.442753 
Q 251.182607 104.442753 252.872429 105.542327 
Q 254.566218 106.629406 256.065638 108.778573 
L 256.065638 120.836404 
Q 254.518617 118.074973 252.987464 116.713001 
Q 251.45631 115.338533 249.917223 115.338533 
Q 247.069119 115.338533 245.526066 120.361588 
Q 243.983012 125.372147 243.983012 134.706032 
Q 243.983012 143.952451 245.470532 149.000496 
Q 246.958051 154.036046 249.695087 154.036046 
Q 250.44083 154.036046 251.079472 153.748657 
Q 251.718114 153.448773 252.225854 152.824015 
L 252.225854 141.5034 
L 249.310315 141.5034 
L 249.310315 131.419805 
L 256.747913 131.419805 
L 256.747913 159.458946 
z
" clip-path="url(#pb83e0e76ff)" style="fill: #ffa600"/>
   </g>
   <g id="patch_39">
    <path d="M 275.378965 191.711415 
Q 273.898432 191.973423 272.297495 192.10595 
Q 270.696558 192.24 268.952919 192.24 
Q 263.753217 192.24 260.716341 191.246809 
Q 257.679466 190.253619 257.679466 188.555141 
Q 257.679466 186.850569 260.716341 185.858902 
Q 263.753217 184.865711 268.952919 184.865711 
Q 270.696558 184.865711 272.297495 184.999762 
Q 273.898432 185.132289 275.378965 185.394296 
L 275.378965 186.864279 
Q 273.885054 186.516967 272.435738 186.355497 
Q 270.986421 186.194028 269.385484 186.194028 
Q 266.513607 186.194028 264.868076 186.82315 
Q 263.227003 187.450749 263.227003 188.555141 
Q 263.227003 189.654962 264.868076 190.284085 
Q 266.513607 190.911684 269.385484 190.911684 
Q 270.986421 190.911684 272.435738 190.750214 
Q 273.885054 190.587221 275.378965 190.239909 
L 275.378965 191.711415 
z
" clip-path="url(#pb83e0e76ff)" style="fill: #0000ff"/>
   </g>
   <g id="patch_40">
    <path d="M 269.939924 183.426391 
L 263.132981 183.426391 
L 262.058201 184.865711 
L 257.679466 184.865711 
L 263.932734 176.964688 
L 269.125697 176.964688 
L 275.378965 184.865711 
L 271.003849 184.865711 
L 269.939924 183.426391 
z
M 264.218618 181.959977 
L 268.843431 181.959977 
L 266.534644 178.817178 
L 264.218618 181.959977 
z
" clip-path="url(#pb83e0e76ff)" style="fill: #008000"/>
   </g>
   <g id="patch_41">
    <path d="M 257.679466 165.903255 
L 275.378965 165.903255 
L 275.378965 168.060542 
L 269.011261 168.060542 
L 269.011261 176.964688 
L 264.059518 176.964688 
L 264.059518 168.060542 
L 257.679466 168.060542 
L 257.679466 165.903255 
z
" clip-path="url(#pb83e0e76ff)" style="fill: #ff0000"/>
   </g>
   <g id="patch_42">
    <path d="M 275.378965 161.161335 
Q 273.593941 163.532295 271.67405 164.723188 
Q 269.754158 165.903255 267.707331 165.903255 
Q 263.082137 165.903255 260.380801 158.844507 
Q 257.679466 151.785758 257.679466 139.714433 
Q 257.679466 127.502365 260.428402 120.497749 
Q 263.181305 113.493132 267.969134 113.493132 
Q 269.813659 113.493132 271.503481 114.445846 
Q 273.19727 115.387735 274.696689 117.249858 
L 274.696689 127.697239 
Q 273.149669 125.304626 271.618516 124.124559 
Q 270.087362 122.933666 268.548275 122.933666 
Q 265.700171 122.933666 264.157118 127.285839 
Q 262.614064 131.627186 262.614064 139.714433 
Q 262.614064 147.725895 264.101583 152.099721 
Q 265.589103 156.46272 268.326139 156.46272 
Q 269.071882 156.46272 269.710524 156.213715 
Q 270.349166 155.953884 270.856906 155.412569 
L 270.856906 145.603941 
L 267.941367 145.603941 
L 267.941367 136.867116 
L 275.378965 136.867116 
L 275.378965 161.161335 
z
" clip-path="url(#pb83e0e76ff)" style="fill: #ffa600"/>
   </g>
   <g id="patch_43">
    <path d="M 276.310518 189.745133 
L 294.010017 189.745133 
L 294.010017 190.231702 
L 287.642313 190.231702 
L 287.642313 192.24 
L 282.69057 192.24 
L 282.69057 190.231702 
L 276.310518 190.231702 
L 276.310518 189.745133 
z
" clip-path="url(#pb83e0e76ff)" style="fill: #ff0000"/>
   </g>
   <g id="patch_44">
    <path d="M 288.570976 189.03569 
L 281.764033 189.03569 
L 280.689253 189.745133 
L 276.310518 189.745133 
L 282.563786 185.850707 
L 287.756749 185.850707 
L 294.010017 189.745133 
L 289.6349 189.745133 
L 288.570976 189.03569 
z
M 282.84967 188.312893 
L 287.474483 188.312893 
L 285.165695 186.763802 
L 282.84967 188.312893 
z
" clip-path="url(#pb83e0e76ff)" style="fill: #008000"/>
   </g>
   <g id="patch_45">
    <path d="M 294.010017 185.567195 
Q 292.529484 185.707726 290.928547 185.778808 
Q 289.32761 185.850707 287.58397 185.850707 
Q 282.384269 185.850707 279.347393 185.317999 
Q 276.310518 184.785291 276.310518 183.874295 
Q 276.310518 182.96003 279.347393 182.428139 
Q 282.384269 181.895431 287.58397 181.895431 
Q 289.32761 181.895431 290.928547 181.96733 
Q 292.529484 182.038412 294.010017 182.178943 
L 294.010017 182.967383 
Q 292.516106 182.781099 291.066789 182.694493 
Q 289.617473 182.607887 288.016535 182.607887 
Q 285.144659 182.607887 283.499127 182.945323 
Q 281.858055 183.281943 281.858055 183.874295 
Q 281.858055 184.464195 283.499127 184.801632 
Q 285.144659 185.138251 288.016535 185.138251 
Q 289.617473 185.138251 291.066789 185.051645 
Q 292.516106 184.964222 294.010017 184.777938 
L 294.010017 185.567195 
z
" clip-path="url(#pb83e0e76ff)" style="fill: #0000ff"/>
   </g>
   <g id="patch_46">
    <path d="M 294.010017 181.185212 
Q 292.224993 181.540321 290.305101 181.718687 
Q 288.385209 181.895431 286.338383 181.895431 
Q 281.713188 181.895431 279.011853 180.83821 
Q 276.310518 179.780989 276.310518 177.973012 
Q 276.310518 176.143955 279.059454 175.094842 
Q 281.812356 174.045728 286.600186 174.045728 
Q 288.44471 174.045728 290.134532 174.188421 
Q 291.828321 174.329491 293.327741 174.60839 
L 293.327741 176.173142 
Q 291.780721 175.814789 290.249567 175.638045 
Q 288.718414 175.45968 287.179327 175.45968 
Q 284.331223 175.45968 282.788169 176.111525 
Q 281.245116 176.761748 281.245116 177.973012 
Q 281.245116 179.172925 282.732635 179.828013 
Q 284.220155 180.481479 286.957191 180.481479 
Q 287.702934 180.481479 288.341576 180.444184 
Q 288.980217 180.405268 289.487957 180.324193 
L 289.487957 178.85511 
L 286.572419 178.85511 
L 286.572419 177.546556 
L 294.010017 177.546556 
L 294.010017 181.185212 
z
" clip-path="url(#pb83e0e76ff)" style="fill: #ffa600"/>
   </g>
   <g id="patch_47">
    <path d="M 312.641068 192.115456 
Q 310.856045 192.177728 308.936153 192.209006 
Q 307.016261 192.24 304.969434 192.24 
Q 300.34424 192.24 297.642905 192.054606 
Q 294.941569 191.869212 294.941569 191.552165 
Q 294.941569 191.231422 297.690505 191.047449 
Q 300.443408 190.863477 305.231238 190.863477 
Q 307.075762 190.863477 308.765584 190.888499 
Q 310.459373 190.913238 311.958793 190.962145 
L 311.958793 191.23654 
Q 310.411772 191.173699 308.880619 191.142705 
Q 307.349466 191.111427 305.810379 191.111427 
Q 302.962275 191.111427 301.419221 191.225735 
Q 299.876167 191.339758 299.876167 191.552165 
Q 299.876167 191.762582 301.363687 191.877458 
Q 302.851207 191.99205 305.588242 191.99205 
Q 306.333986 191.99205 306.972627 191.98551 
Q 307.611269 191.978685 308.119009 191.964468 
L 308.119009 191.70685 
L 305.203471 191.70685 
L 305.203471 191.477382 
L 312.641068 191.477382 
L 312.641068 192.115456 
z
" clip-path="url(#pb83e0e76ff)" style="fill: #ffa600"/>
   </g>
   <g id="patch_48">
    <path d="M 312.641068 190.7532 
Q 311.160536 190.807862 309.559599 190.835511 
Q 307.958661 190.863477 306.215022 190.863477 
Q 301.01532 190.863477 297.978445 190.656272 
Q 294.941569 190.449066 294.941569 190.09472 
Q 294.941569 189.739103 297.978445 189.532215 
Q 301.01532 189.32501 306.215022 189.32501 
Q 307.958661 189.32501 309.559599 189.352976 
Q 311.160536 189.380625 312.641068 189.435286 
L 312.641068 189.741963 
Q 311.147158 189.669504 309.697841 189.635818 
Q 308.248525 189.602131 306.647587 189.602131 
Q 303.775711 189.602131 302.130179 189.733382 
Q 300.489107 189.864316 300.489107 190.09472 
Q 300.489107 190.324171 302.130179 190.455422 
Q 303.775711 190.586356 306.647587 190.586356 
Q 308.248525 190.586356 309.697841 190.552669 
Q 311.147158 190.518665 312.641068 190.446206 
L 312.641068 190.7532 
z
" clip-path="url(#pb83e0e76ff)" style="fill: #0000ff"/>
   </g>
   <g id="patch_49">
    <path d="M 294.941569 186.787889 
L 312.641068 186.787889 
L 312.641068 187.282698 
L 306.273365 187.282698 
L 306.273365 189.32501 
L 301.321621 189.32501 
L 301.321621 187.282698 
L 294.941569 187.282698 
L 294.941569 186.787889 
z
" clip-path="url(#pb83e0e76ff)" style="fill: #ff0000"/>
   </g>
   <g id="patch_50">
    <path d="M 307.202028 186.310954 
L 300.395085 186.310954 
L 299.320305 186.787889 
L 294.941569 186.787889 
L 301.194837 184.169796 
L 306.3878 184.169796 
L 312.641068 186.787889 
L 308.265952 186.787889 
L 307.202028 186.310954 
z
M 301.480722 185.825041 
L 306.105535 185.825041 
L 303.796747 184.783639 
L 301.480722 185.825041 
z
" clip-path="url(#pb83e0e76ff)" style="fill: #008000"/>
   </g>
   <g id="patch_51">
    <path d="M 331.27212 191.815662 
Q 329.791588 192.025996 328.19065 192.132387 
Q 326.589713 192.24 324.846074 192.24 
Q 319.646372 192.24 316.609497 191.442684 
Q 313.572621 190.645368 313.572621 189.28186 
Q 313.572621 187.91346 316.609497 187.117366 
Q 319.646372 186.32005 324.846074 186.32005 
Q 326.589713 186.32005 328.19065 186.427664 
Q 329.791588 186.534054 331.27212 186.744389 
L 331.27212 187.924466 
Q 329.778209 187.64565 328.328893 187.516025 
Q 326.879576 187.386399 325.278639 187.386399 
Q 322.406763 187.386399 320.761231 187.891448 
Q 319.120159 188.395273 319.120159 189.28186 
Q 319.120159 190.164777 320.761231 190.669825 
Q 322.406763 191.173651 325.278639 191.173651 
Q 326.879576 191.173651 328.328893 191.044026 
Q 329.778209 190.913178 331.27212 190.634362 
L 331.27212 191.815662 
z
" clip-path="url(#pb83e0e76ff)" style="fill: #0000ff"/>
   </g>
   <g id="patch_52">
    <path d="M 313.572621 177.193461 
L 331.27212 177.193461 
L 331.27212 178.973401 
L 324.904417 178.973401 
L 324.904417 186.32005 
L 319.952673 186.32005 
L 319.952673 178.973401 
L 313.572621 178.973401 
L 313.572621 177.193461 
z
" clip-path="url(#pb83e0e76ff)" style="fill: #ff0000"/>
   </g>
   <g id="patch_53">
    <path d="M 325.83308 175.216339 
L 319.026137 175.216339 
L 317.951356 177.193461 
L 313.572621 177.193461 
L 319.825889 166.34022 
L 325.018852 166.34022 
L 331.27212 177.193461 
L 326.897004 177.193461 
L 325.83308 175.216339 
z
M 320.111774 173.201999 
L 324.736586 173.201999 
L 322.427799 168.884894 
L 320.111774 173.201999 
z
" clip-path="url(#pb83e0e76ff)" style="fill: #008000"/>
   </g>
   <g id="patch_54">
    <path d="M 331.27212 162.010623 
Q 329.487097 164.175422 327.567205 165.262763 
Q 325.647313 166.34022 323.600486 166.34022 
Q 318.975292 166.34022 316.273957 159.895249 
Q 313.572621 153.450277 313.572621 142.428585 
Q 313.572621 131.278388 316.321557 124.882841 
Q 319.07446 118.487294 323.86229 118.487294 
Q 325.706814 118.487294 327.396636 119.357168 
Q 329.090425 120.217156 330.589845 121.917364 
L 330.589845 131.456317 
Q 329.042824 129.271748 327.511671 128.194292 
Q 325.980517 127.10695 324.44143 127.10695 
Q 321.593326 127.10695 320.050273 131.08069 
Q 318.507219 135.044545 318.507219 142.428585 
Q 318.507219 149.74343 319.994739 153.73694 
Q 321.482258 157.720565 324.219294 157.720565 
Q 324.965037 157.720565 325.603679 157.493212 
Q 326.242321 157.255974 326.750061 156.761727 
L 326.750061 147.805984 
L 323.834523 147.805984 
L 323.834523 139.828849 
L 331.27212 139.828849 
L 331.27212 162.010623 
z
" clip-path="url(#pb83e0e76ff)" style="fill: #ffa600"/>
   </g>
   <g id="patch_55">
    <path d="M 349.903172 191.856179 
Q 348.422639 192.046431 346.821702 192.142662 
Q 345.220765 192.24 343.477126 192.24 
Q 338.277424 192.24 335.240548 191.518815 
Q 332.203673 190.797631 332.203673 189.564317 
Q 332.203673 188.326578 335.240548 187.6065 
Q 338.277424 186.885315 343.477126 186.885315 
Q 345.220765 186.885315 346.821702 186.982653 
Q 348.422639 187.078885 349.903172 187.269136 
L 349.903172 188.336533 
Q 348.409261 188.08434 346.959945 187.967092 
Q 345.510628 187.849844 343.909691 187.849844 
Q 341.037814 187.849844 339.392283 188.306668 
Q 337.75121 188.762386 337.75121 189.564317 
Q 337.75121 190.362929 339.392283 190.819753 
Q 341.037814 191.275471 343.909691 191.275471 
Q 345.510628 191.275471 346.959945 191.158223 
Q 348.409261 191.039869 349.903172 190.787676 
L 349.903172 191.856179 
z
" clip-path="url(#pb83e0e76ff)" style="fill: #0000ff"/>
   </g>
   <g id="patch_56">
    <path d="M 332.203673 176.558424 
L 349.903172 176.558424 
L 349.903172 178.572455 
L 343.535468 178.572455 
L 343.535468 186.885315 
L 338.583725 186.885315 
L 338.583725 178.572455 
L 332.203673 178.572455 
L 332.203673 176.558424 
z
" clip-path="url(#pb83e0e76ff)" style="fill: #ff0000"/>
   </g>
   <g id="patch_57">
    <path d="M 349.903172 175.381837 
Q 348.118149 175.97013 346.198257 176.26562 
Q 344.278365 176.558424 342.231538 176.558424 
Q 337.606344 176.558424 334.905008 174.806975 
Q 332.203673 173.055527 332.203673 170.060336 
Q 332.203673 167.030223 334.952609 165.292206 
Q 337.705512 163.55419 342.493341 163.55419 
Q 344.337866 163.55419 346.027688 163.790581 
Q 347.721477 164.024287 349.220896 164.486325 
L 349.220896 167.078576 
Q 347.673876 166.48491 346.142723 166.192107 
Q 344.611569 165.896617 343.072482 165.896617 
Q 340.224378 165.896617 338.681325 166.976498 
Q 337.138271 168.053692 337.138271 170.060336 
Q 337.138271 172.048176 338.62579 173.133429 
Q 340.11331 174.215996 342.850346 174.215996 
Q 343.596089 174.215996 344.234731 174.154212 
Q 344.873373 174.089741 345.381113 173.955428 
L 345.381113 171.521667 
L 342.465574 171.521667 
L 342.465574 169.353847 
L 349.903172 169.353847 
L 349.903172 175.381837 
z
" clip-path="url(#pb83e0e76ff)" style="fill: #ffa600"/>
   </g>
   <g id="patch_58">
    <path d="M 344.464131 147.946879 
L 337.657188 147.946879 
L 336.582408 163.55419 
L 332.203673 163.55419 
L 338.456941 77.879236 
L 343.649904 77.879236 
L 349.903172 163.55419 
L 345.528056 163.55419 
L 344.464131 147.946879 
z
M 338.742825 132.045784 
L 343.367638 132.045784 
L 341.058851 97.966762 
L 338.742825 132.045784 
z
" clip-path="url(#pb83e0e76ff)" style="fill: #008000"/>
   </g>
   <g id="patch_59">
    <path d="M 368.534224 191.721664 
Q 367.053691 191.978592 365.452754 192.108549 
Q 363.851817 192.24 362.108177 192.24 
Q 356.908476 192.24 353.8716 191.266067 
Q 350.834725 190.292134 350.834725 188.626588 
Q 350.834725 186.955068 353.8716 185.982629 
Q 356.908476 185.008696 362.108177 185.008696 
Q 363.851817 185.008696 365.452754 185.140147 
Q 367.053691 185.270104 368.534224 185.527031 
L 368.534224 186.968512 
Q 367.040313 186.627934 365.590996 186.469595 
Q 364.14168 186.311257 362.540743 186.311257 
Q 359.668866 186.311257 358.023334 186.92818 
Q 356.382262 187.543611 356.382262 188.626588 
Q 356.382262 189.705085 358.023334 190.322009 
Q 359.668866 190.937439 362.540743 190.937439 
Q 364.14168 190.937439 365.590996 190.7791 
Q 367.040313 190.619268 368.534224 190.27869 
L 368.534224 191.721664 
z
" clip-path="url(#pb83e0e76ff)" style="fill: #0000ff"/>
   </g>
   <g id="patch_60">
    <path d="M 350.834725 177.777391 
L 368.534224 177.777391 
L 368.534224 179.187697 
L 362.16652 179.187697 
L 362.16652 185.008696 
L 357.214777 185.008696 
L 357.214777 179.187697 
L 350.834725 179.187697 
L 350.834725 177.777391 
z
" clip-path="url(#pb83e0e76ff)" style="fill: #ff0000"/>
   </g>
   <g id="patch_61">
    <path d="M 363.095183 176.054744 
L 356.28824 176.054744 
L 355.21346 177.777391 
L 350.834725 177.777391 
L 357.087993 168.32107 
L 362.280956 168.32107 
L 368.534224 177.777391 
L 364.159107 177.777391 
L 363.095183 176.054744 
z
M 357.373877 174.29967 
L 361.99869 174.29967 
L 359.689902 170.538219 
L 357.373877 174.29967 
z
" clip-path="url(#pb83e0e76ff)" style="fill: #008000"/>
   </g>
   <g id="patch_62">
    <path d="M 368.534224 155.437024 
Q 366.7492 161.879047 364.829308 165.114766 
Q 362.909416 168.32107 360.86259 168.32107 
Q 356.237396 168.32107 353.53606 149.142079 
Q 350.834725 129.963087 350.834725 97.164659 
Q 350.834725 63.983827 353.583661 44.951913 
Q 356.336563 25.92 361.124393 25.92 
Q 362.968917 25.92 364.658739 28.508576 
Q 366.352528 31.067735 367.851948 36.127224 
L 367.851948 64.513308 
Q 366.304928 58.012454 364.773774 54.80615 
Q 363.242621 51.57043 361.703534 51.57043 
Q 358.85543 51.57043 357.312376 63.395514 
Q 355.769323 75.191182 355.769323 97.164659 
Q 355.769323 118.932226 357.256842 130.816141 
Q 358.744362 142.67064 361.481398 142.67064 
Q 362.227141 142.67064 362.865783 141.99408 
Q 363.504424 141.288105 364.012164 139.817324 
L 364.012164 113.166762 
L 361.096626 113.166762 
L 361.096626 89.428348 
L 368.534224 89.428348 
L 368.534224 155.437024 
z
" clip-path="url(#pb83e0e76ff)" style="fill: #ffa600"/>
   </g>
   <g id="patch_63">
    <path d="M 381.726235 191.144077 
L 374.919292 191.144077 
L 373.844512 192.24 
L 369.465776 192.24 
L 375.719044 186.224028 
L 380.912007 186.224028 
L 387.165275 192.24 
L 382.790159 192.24 
L 381.726235 191.144077 
z
M 376.004929 190.027525 
L 380.629742 190.027525 
L 378.320954 187.634545 
L 376.004929 190.027525 
z
" clip-path="url(#pb83e0e76ff)" style="fill: #008000"/>
   </g>
   <g id="patch_64">
    <path d="M 369.465776 179.767863 
L 387.165275 179.767863 
L 387.165275 181.026995 
L 380.797572 181.026995 
L 380.797572 186.224028 
L 375.845828 186.224028 
L 375.845828 181.026995 
L 369.465776 181.026995 
L 369.465776 179.767863 
z
" clip-path="url(#pb83e0e76ff)" style="fill: #ff0000"/>
   </g>
   <g id="patch_65">
    <path d="M 387.165275 179.1439 
Q 385.380252 179.455881 383.46036 179.612584 
Q 381.540468 179.767863 379.493641 179.767863 
Q 374.868447 179.767863 372.167112 178.839041 
Q 369.465776 177.910219 369.465776 176.32182 
Q 369.465776 174.714902 372.214712 173.793203 
Q 374.967615 172.871504 379.755445 172.871504 
Q 381.599969 172.871504 383.289791 172.996867 
Q 384.98358 173.120804 386.483 173.365831 
L 386.483 174.740544 
Q 384.93598 174.425713 383.404826 174.270435 
Q 381.873673 174.113732 380.334586 174.113732 
Q 377.486482 174.113732 375.943428 174.68641 
Q 374.400374 175.257664 374.400374 176.32182 
Q 374.400374 177.376004 375.887894 177.951532 
Q 377.375414 178.525635 380.112449 178.525635 
Q 380.858193 178.525635 381.496834 178.49287 
Q 382.135476 178.45868 382.643216 178.387451 
L 382.643216 177.096788 
L 379.727678 177.096788 
L 379.727678 175.947157 
L 387.165275 175.947157 
L 387.165275 179.1439 
z
" clip-path="url(#pb83e0e76ff)" style="fill: #ffa600"/>
   </g>
   <g id="patch_66">
    <path d="M 387.165275 171.115066 
Q 385.684743 171.985693 384.083806 172.426067 
Q 382.482868 172.871504 380.739229 172.871504 
Q 375.539527 172.871504 372.502652 169.571223 
Q 369.465776 166.270942 369.465776 160.627056 
Q 369.465776 154.962923 372.502652 151.667704 
Q 375.539527 148.367422 380.739229 148.367422 
Q 382.482868 148.367422 384.083806 148.812859 
Q 385.684743 149.253234 387.165275 150.12386 
L 387.165275 155.008479 
Q 385.671365 153.854393 384.222048 153.317844 
Q 382.772732 152.781295 381.171794 152.781295 
Q 378.299918 152.781295 376.654386 154.871811 
Q 375.013314 156.957265 375.013314 160.627056 
Q 375.013314 164.281662 376.654386 166.372177 
Q 378.299918 168.457631 381.171794 168.457631 
Q 382.772732 168.457631 384.222048 167.921082 
Q 385.671365 167.379472 387.165275 166.225386 
L 387.165275 171.115066 
z
" clip-path="url(#pb83e0e76ff)" style="fill: #0000ff"/>
   </g>
   <g id="patch_67">
    <path d="M 405.796327 191.738851 
Q 404.011304 191.989425 402.091412 192.115285 
Q 400.17152 192.24 398.124693 192.24 
Q 393.499499 192.24 390.798164 191.493997 
Q 388.096828 190.747995 388.096828 189.472239 
Q 388.096828 188.181608 390.845764 187.441327 
Q 393.598667 186.701045 398.386497 186.701045 
Q 400.231021 186.701045 401.920843 186.801732 
Q 403.614632 186.901276 405.114052 187.098074 
L 405.114052 188.202204 
Q 403.567031 187.949341 402.035878 187.824626 
Q 400.504724 187.698766 398.965637 187.698766 
Q 396.117533 187.698766 394.57448 188.158725 
Q 393.031426 188.617539 393.031426 189.472239 
Q 393.031426 190.318929 394.518946 190.781176 
Q 396.006465 191.242279 398.743501 191.242279 
Q 399.489244 191.242279 400.127886 191.215963 
Q 400.766528 191.188502 401.274268 191.131294 
L 401.274268 190.09467 
L 398.35873 190.09467 
L 398.35873 189.17132 
L 405.796327 189.17132 
L 405.796327 191.738851 
z
" clip-path="url(#pb83e0e76ff)" style="fill: #ffa600"/>
   </g>
   <g id="patch_68">
    <path d="M 400.357287 185.4758 
L 393.550344 185.4758 
L 392.475563 186.701045 
L 388.096828 186.701045 
L 394.350096 179.975171 
L 399.543059 179.975171 
L 405.796327 186.701045 
L 401.421211 186.701045 
L 400.357287 185.4758 
z
M 394.635981 184.227492 
L 399.260793 184.227492 
L 396.952006 181.552133 
L 394.635981 184.227492 
z
" clip-path="url(#pb83e0e76ff)" style="fill: #008000"/>
   </g>
   <g id="patch_69">
    <path d="M 405.796327 178.727365 
Q 404.315795 179.345874 402.714857 179.658725 
Q 401.11392 179.975171 399.370281 179.975171 
Q 394.170579 179.975171 391.133704 177.630591 
Q 388.096828 175.286011 388.096828 171.276493 
Q 388.096828 167.25259 391.133704 164.911606 
Q 394.170579 162.567026 399.370281 162.567026 
Q 401.11392 162.567026 402.714857 162.883473 
Q 404.315795 163.196323 405.796327 163.814832 
L 405.796327 167.284954 
Q 404.302416 166.46507 402.8531 166.083896 
Q 401.403783 165.702722 399.802846 165.702722 
Q 396.93097 165.702722 395.285438 167.187862 
Q 393.644366 168.669406 393.644366 171.276493 
Q 393.644366 173.872791 395.285438 175.357931 
Q 396.93097 176.839475 399.802846 176.839475 
Q 401.403783 176.839475 402.8531 176.458301 
Q 404.302416 176.073531 405.796327 175.253648 
L 405.796327 178.727365 
z
" clip-path="url(#pb83e0e76ff)" style="fill: #0000ff"/>
   </g>
   <g id="patch_70">
    <path d="M 388.096828 73.943745 
L 405.796327 73.943745 
L 405.796327 91.227754 
L 399.428624 91.227754 
L 399.428624 162.567026 
L 394.47688 162.567026 
L 394.47688 91.227754 
L 388.096828 91.227754 
L 388.096828 73.943745 
z
" clip-path="url(#pb83e0e76ff)" style="fill: #ff0000"/>
   </g>
   <g id="patch_71">
    <path d="M 406.72788 186.78714 
L 424.427379 186.78714 
L 424.427379 187.8506 
L 418.059675 187.8506 
L 418.059675 192.24 
L 413.107932 192.24 
L 413.107932 187.8506 
L 406.72788 187.8506 
L 406.72788 186.78714 
z
" clip-path="url(#pb83e0e76ff)" style="fill: #ff0000"/>
   </g>
   <g id="patch_72">
    <path d="M 424.427379 186.233425 
Q 422.946846 186.507889 421.345909 186.646717 
Q 419.744972 186.78714 418.001333 186.78714 
Q 412.801631 186.78714 409.764755 185.74673 
Q 406.72788 184.70632 406.72788 182.927091 
Q 406.72788 181.141479 409.764755 180.102665 
Q 412.801631 179.062255 418.001333 179.062255 
Q 419.744972 179.062255 421.345909 179.202678 
Q 422.946846 179.341506 424.427379 179.61597 
L 424.427379 181.155841 
Q 422.933468 180.792016 421.484152 180.62287 
Q 420.034835 180.453724 418.433898 180.453724 
Q 415.562021 180.453724 413.91649 181.112756 
Q 412.275417 181.770193 412.275417 182.927091 
Q 412.275417 184.079202 413.91649 184.738234 
Q 415.562021 185.395671 418.433898 185.395671 
Q 420.034835 185.395671 421.484152 185.226525 
Q 422.933468 185.055783 424.427379 184.691958 
L 424.427379 186.233425 
z
" clip-path="url(#pb83e0e76ff)" style="fill: #0000ff"/>
   </g>
   <g id="patch_73">
    <path d="M 418.988338 176.827237 
L 412.181395 176.827237 
L 411.106615 179.062255 
L 406.72788 179.062255 
L 412.981148 166.79332 
L 418.174111 166.79332 
L 424.427379 179.062255 
L 420.052263 179.062255 
L 418.988338 176.827237 
z
M 413.267032 174.550148 
L 417.891845 174.550148 
L 415.583058 169.66992 
L 413.267032 174.550148 
z
" clip-path="url(#pb83e0e76ff)" style="fill: #008000"/>
   </g>
   <g id="patch_74">
    <path d="M 424.427379 162.949228 
Q 422.642356 164.871274 420.722464 165.836685 
Q 418.802572 166.79332 416.755745 166.79332 
Q 412.130551 166.79332 409.429215 161.071064 
Q 406.72788 155.348809 406.72788 145.56305 
Q 406.72788 135.663198 409.476816 129.984825 
Q 412.229719 124.306452 417.017548 124.306452 
Q 418.862073 124.306452 420.551895 125.078781 
Q 422.245684 125.842333 423.745103 127.351885 
L 423.745103 135.821174 
Q 422.198083 133.881575 420.66693 132.924941 
Q 419.135776 131.959529 417.596689 131.959529 
Q 414.748585 131.959529 413.205532 135.487668 
Q 411.662478 139.007031 411.662478 145.56305 
Q 411.662478 152.057635 413.149997 155.603327 
Q 414.637517 159.140242 417.374553 159.140242 
Q 418.120296 159.140242 418.758938 158.938383 
Q 419.39758 158.727748 419.90532 158.288925 
L 419.90532 150.337448 
L 416.989781 150.337448 
L 416.989781 143.25484 
L 424.427379 143.25484 
L 424.427379 162.949228 
z
" clip-path="url(#pb83e0e76ff)" style="fill: #ffa600"/>
   </g>
   <g id="patch_75">
    <path d="M 425.358932 186.61906 
L 443.058431 186.61906 
L 443.058431 187.7153 
L 436.690727 187.7153 
L 436.690727 192.24 
L 431.738984 192.24 
L 431.738984 187.7153 
L 425.358932 187.7153 
L 425.358932 186.61906 
z
" clip-path="url(#pb83e0e76ff)" style="fill: #ff0000"/>
   </g>
   <g id="patch_76">
    <path d="M 443.058431 186.179526 
Q 441.577898 186.397393 439.976961 186.507593 
Q 438.376024 186.61906 436.632384 186.61906 
Q 431.432683 186.61906 428.395807 185.793193 
Q 425.358932 184.967326 425.358932 183.554992 
Q 425.358932 182.137592 428.395807 181.312992 
Q 431.432683 180.487125 436.632384 180.487125 
Q 438.376024 180.487125 439.976961 180.598592 
Q 441.577898 180.708792 443.058431 180.926659 
L 443.058431 182.148992 
Q 441.56452 181.860192 440.115203 181.725925 
Q 438.665887 181.591659 437.06495 181.591659 
Q 434.193073 181.591659 432.547541 182.114792 
Q 430.906469 182.636659 430.906469 183.554992 
Q 430.906469 184.469526 432.547541 184.992659 
Q 434.193073 185.514526 437.06495 185.514526 
Q 438.665887 185.514526 440.115203 185.38026 
Q 441.56452 185.244726 443.058431 184.955926 
L 443.058431 186.179526 
z
" clip-path="url(#pb83e0e76ff)" style="fill: #0000ff"/>
   </g>
   <g id="patch_77">
    <path d="M 443.058431 179.030775 
Q 441.273407 179.75895 439.353515 180.1247 
Q 437.433623 180.487125 435.386797 180.487125 
Q 430.761603 180.487125 428.060267 178.319225 
Q 425.358932 176.151324 425.358932 172.443948 
Q 425.358932 168.693347 428.107868 166.542072 
Q 430.86077 164.390796 435.6486 164.390796 
Q 437.493124 164.390796 439.182946 164.683397 
Q 440.876735 164.972672 442.376155 165.544572 
L 442.376155 168.753197 
Q 440.829135 168.018372 439.297981 167.655947 
Q 437.766828 167.290197 436.227741 167.290197 
Q 433.379637 167.290197 431.836583 168.626847 
Q 430.29353 169.960173 430.29353 172.443948 
Q 430.29353 174.904449 431.781049 176.247749 
Q 433.268569 177.587724 436.005605 177.587724 
Q 436.751348 177.587724 437.38999 177.511249 
Q 438.028631 177.431449 438.536371 177.265199 
L 438.536371 174.252749 
L 435.620833 174.252749 
L 435.620833 171.569473 
L 443.058431 171.569473 
L 443.058431 179.030775 
z
" clip-path="url(#pb83e0e76ff)" style="fill: #ffa600"/>
   </g>
   <g id="patch_78">
    <path d="M 437.61939 155.547502 
L 430.812447 155.547502 
L 429.737667 164.390796 
L 425.358932 164.390796 
L 431.6122 115.846313 
L 436.805163 115.846313 
L 443.058431 164.390796 
L 438.683314 164.390796 
L 437.61939 155.547502 
z
M 431.898084 146.537746 
L 436.522897 146.537746 
L 434.214109 127.228153 
L 431.898084 146.537746 
z
" clip-path="url(#pb83e0e76ff)" style="fill: #008000"/>
   </g>
   <g id="patch_79">
    <path d="M 461.689482 191.944588 
Q 459.904459 192.092294 457.984567 192.166484 
Q 456.064675 192.24 454.017848 192.24 
Q 449.392654 192.24 446.691319 191.800255 
Q 443.989983 191.36051 443.989983 190.608491 
Q 443.989983 189.847705 446.738919 189.411332 
Q 449.491822 188.974959 454.279652 188.974959 
Q 456.124176 188.974959 457.813998 189.034311 
Q 459.507787 189.092989 461.007207 189.208995 
L 461.007207 189.859845 
Q 459.460187 189.71079 457.929033 189.637275 
Q 456.39788 189.563085 454.858793 189.563085 
Q 452.010689 189.563085 450.467635 189.834216 
Q 448.924581 190.104673 448.924581 190.608491 
Q 448.924581 191.107589 450.412101 191.380069 
Q 451.899621 191.651874 454.636656 191.651874 
Q 455.3824 191.651874 456.021041 191.636362 
Q 456.659683 191.620175 457.167423 191.586452 
L 457.167423 190.975395 
L 454.251885 190.975395 
L 454.251885 190.431109 
L 461.689482 190.431109 
L 461.689482 191.944588 
z
" clip-path="url(#pb83e0e76ff)" style="fill: #ffa600"/>
   </g>
   <g id="patch_80">
    <path d="M 456.250442 188.239299 
L 449.443499 188.239299 
L 448.368719 188.974959 
L 443.989983 188.974959 
L 450.243251 184.936619 
L 455.436214 184.936619 
L 461.689482 188.974959 
L 457.314366 188.974959 
L 456.250442 188.239299 
z
M 450.529136 187.489792 
L 455.153949 187.489792 
L 452.845161 185.883457 
L 450.529136 187.489792 
z
" clip-path="url(#pb83e0e76ff)" style="fill: #008000"/>
   </g>
   <g id="patch_81">
    <path d="M 443.989983 178.320615 
L 461.689482 178.320615 
L 461.689482 179.61092 
L 455.321779 179.61092 
L 455.321779 184.936619 
L 450.370035 184.936619 
L 450.370035 179.61092 
L 443.989983 179.61092 
L 443.989983 178.320615 
z
" clip-path="url(#pb83e0e76ff)" style="fill: #ff0000"/>
   </g>
   <g id="patch_82">
    <path d="M 461.689482 177.476853 
Q 460.20895 177.895087 458.608013 178.106635 
Q 457.007075 178.320615 455.263436 178.320615 
Q 450.063734 178.320615 447.026859 176.735218 
Q 443.989983 175.149821 443.989983 172.438597 
Q 443.989983 169.717647 447.026859 168.134681 
Q 450.063734 166.549284 455.263436 166.549284 
Q 457.007075 166.549284 458.608013 166.763264 
Q 460.20895 166.974812 461.689482 167.393046 
L 461.689482 169.739531 
Q 460.195572 169.185128 458.746255 168.927379 
Q 457.296939 168.669631 455.696001 168.669631 
Q 452.824125 168.669631 451.178593 169.673878 
Q 449.537521 170.675693 449.537521 172.438597 
Q 449.537521 174.194205 451.178593 175.198452 
Q 452.824125 176.200268 455.696001 176.200268 
Q 457.296939 176.200268 458.746255 175.942519 
Q 460.195572 175.682339 461.689482 175.127936 
L 461.689482 177.476853 
z
" clip-path="url(#pb83e0e76ff)" style="fill: #0000ff"/>
   </g>
   <g id="patch_83">
    <path d="M 462.621035 184.297156 
L 480.320534 184.297156 
L 480.320534 185.846232 
L 473.952831 185.846232 
L 473.952831 192.24 
L 469.001087 192.24 
L 469.001087 185.846232 
L 462.621035 185.846232 
L 462.621035 184.297156 
z
" clip-path="url(#pb83e0e76ff)" style="fill: #ff0000"/>
   </g>
   <g id="patch_84">
    <path d="M 474.881494 182.805 
L 468.074551 182.805 
L 466.99977 184.297156 
L 462.621035 184.297156 
L 468.874303 176.106098 
L 474.067266 176.106098 
L 480.320534 184.297156 
L 475.945418 184.297156 
L 474.881494 182.805 
z
M 469.160188 181.284756 
L 473.785 181.284756 
L 471.476213 178.02659 
L 469.160188 181.284756 
z
" clip-path="url(#pb83e0e76ff)" style="fill: #008000"/>
   </g>
   <g id="patch_85">
    <path d="M 480.320534 175.430008 
Q 478.840002 175.76513 477.239064 175.93464 
Q 475.638127 176.106098 473.894488 176.106098 
Q 468.694786 176.106098 465.657911 174.835751 
Q 462.621035 173.565405 462.621035 171.392956 
Q 462.621035 169.212715 465.657911 167.944317 
Q 468.694786 166.67397 473.894488 166.67397 
Q 475.638127 166.67397 477.239064 166.845428 
Q 478.840002 167.014937 480.320534 167.350059 
L 480.320534 169.23025 
Q 478.826623 168.786018 477.377307 168.57949 
Q 475.92799 168.372961 474.327053 168.372961 
Q 471.455177 168.372961 469.809645 169.177644 
Q 468.168573 169.980378 468.168573 171.392956 
Q 468.168573 172.79969 469.809645 173.604372 
Q 471.455177 174.407107 474.327053 174.407107 
Q 475.92799 174.407107 477.377307 174.200578 
Q 478.826623 173.992101 480.320534 173.547869 
L 480.320534 175.430008 
z
" clip-path="url(#pb83e0e76ff)" style="fill: #0000ff"/>
   </g>
   <g id="patch_86">
    <path d="M 480.320534 162.272263 
Q 478.535511 164.473116 476.615619 165.578568 
Q 474.695727 166.67397 472.6489 166.67397 
Q 468.023706 166.67397 465.322371 160.121657 
Q 462.621035 153.569344 462.621035 142.364084 
Q 462.621035 131.02818 465.369971 124.526114 
Q 468.122874 118.024049 472.910704 118.024049 
Q 474.755228 118.024049 476.44505 118.90841 
Q 478.138839 119.782722 479.638259 121.511246 
L 479.638259 131.209072 
Q 478.091238 128.988119 476.560085 127.892717 
Q 475.028931 126.787266 473.489844 126.787266 
Q 470.64174 126.787266 469.098687 130.827189 
Q 467.555633 134.857062 467.555633 142.364084 
Q 467.555633 149.800758 469.043153 153.860781 
Q 470.530672 157.910754 473.267708 157.910754 
Q 474.013451 157.910754 474.652093 157.679614 
Q 475.290735 157.438424 475.798475 156.935946 
L 475.798475 147.831045 
L 472.882937 147.831045 
L 472.882937 139.72105 
L 480.320534 139.72105 
L 480.320534 162.272263 
z
" clip-path="url(#pb83e0e76ff)" style="fill: #ffa600"/>
   </g>
   <g id="patch_87">
    <path d="M 498.951586 191.781693 
Q 497.166563 192.010847 495.246671 192.125946 
Q 493.326779 192.24 491.279952 192.24 
Q 486.654758 192.24 483.953422 191.557771 
Q 481.252087 190.875543 481.252087 189.708849 
Q 481.252087 188.528551 484.001023 187.851555 
Q 486.753926 187.174558 491.541755 187.174558 
Q 493.38628 187.174558 495.076102 187.266638 
Q 496.769891 187.357671 498.26931 187.537646 
L 498.26931 188.547386 
Q 496.72229 188.31614 495.191137 188.202086 
Q 493.659983 188.086986 492.120896 188.086986 
Q 489.272792 188.086986 487.729739 188.507624 
Q 486.186685 188.927216 486.186685 189.708849 
Q 486.186685 190.483157 487.674205 190.905887 
Q 489.161724 191.327572 491.89876 191.327572 
Q 492.644503 191.327572 493.283145 191.303505 
Q 493.921787 191.278393 494.429527 191.226074 
L 494.429527 190.27807 
L 491.513988 190.27807 
L 491.513988 189.433655 
L 498.951586 189.433655 
L 498.951586 191.781693 
z
" clip-path="url(#pb83e0e76ff)" style="fill: #ffa600"/>
   </g>
   <g id="patch_88">
    <path d="M 498.951586 186.763695 
Q 497.471053 186.967351 495.870116 187.070362 
Q 494.269179 187.174558 492.52554 187.174558 
Q 487.325838 187.174558 484.288962 186.402563 
Q 481.252087 185.630567 481.252087 184.31036 
Q 481.252087 182.985417 484.288962 182.214606 
Q 487.325838 181.44261 492.52554 181.44261 
Q 494.269179 181.44261 495.870116 181.546806 
Q 497.471053 181.649818 498.951586 181.853473 
L 498.951586 182.996074 
Q 497.457675 182.726112 496.008359 182.600603 
Q 494.559042 182.475095 492.958105 182.475095 
Q 490.086228 182.475095 488.440697 182.964104 
Q 486.799624 183.45193 486.799624 184.31036 
Q 486.799624 185.165239 488.440697 185.654248 
Q 490.086228 186.142073 492.958105 186.142073 
Q 494.559042 186.142073 496.008359 186.016565 
Q 497.457675 185.889872 498.951586 185.619911 
L 498.951586 186.763695 
z
" clip-path="url(#pb83e0e76ff)" style="fill: #0000ff"/>
   </g>
   <g id="patch_89">
    <path d="M 481.252087 173.844447 
L 498.951586 173.844447 
L 498.951586 175.326301 
L 492.583882 175.326301 
L 492.583882 181.44261 
L 487.632139 181.44261 
L 487.632139 175.326301 
L 481.252087 175.326301 
L 481.252087 173.844447 
z
" clip-path="url(#pb83e0e76ff)" style="fill: #ff0000"/>
   </g>
   <g id="patch_90">
    <path d="M 493.512545 169.934834 
L 486.705603 169.934834 
L 485.630822 173.844447 
L 481.252087 173.844447 
L 487.505355 152.382969 
L 492.698318 152.382969 
L 498.951586 173.844447 
L 494.57647 173.844447 
L 493.512545 169.934834 
z
M 487.791239 165.951628 
L 492.416052 165.951628 
L 490.107265 157.414871 
L 487.791239 165.951628 
z
" clip-path="url(#pb83e0e76ff)" style="fill: #008000"/>
   </g>
   <g id="patch_91">
    <path d="M 499.883139 188.276452 
L 517.582638 188.276452 
L 517.582638 189.049454 
L 511.214934 189.049454 
L 511.214934 192.24 
L 506.263191 192.24 
L 506.263191 189.049454 
L 499.883139 189.049454 
L 499.883139 188.276452 
z
" clip-path="url(#pb83e0e76ff)" style="fill: #ff0000"/>
   </g>
   <g id="patch_92">
    <path d="M 517.582638 187.697315 
Q 516.102105 187.98438 514.501168 188.129582 
Q 512.900231 188.276452 511.156591 188.276452 
Q 505.95689 188.276452 502.920014 187.188276 
Q 499.883139 186.1001 499.883139 184.239185 
Q 499.883139 182.371595 502.920014 181.285088 
Q 505.95689 180.196912 511.156591 180.196912 
Q 512.900231 180.196912 514.501168 180.343782 
Q 516.102105 180.488983 517.582638 180.776048 
L 517.582638 182.386616 
Q 516.088727 182.006088 514.63941 181.829176 
Q 513.190094 181.652264 511.589157 181.652264 
Q 508.71728 181.652264 507.071748 182.341553 
Q 505.430676 183.029174 505.430676 184.239185 
Q 505.430676 185.44419 507.071748 186.133479 
Q 508.71728 186.8211 511.589157 186.8211 
Q 513.190094 186.8211 514.63941 186.644188 
Q 516.088727 186.465607 517.582638 186.085079 
L 517.582638 187.697315 
z
" clip-path="url(#pb83e0e76ff)" style="fill: #0000ff"/>
   </g>
   <g id="patch_93">
    <path d="M 512.143597 178.641759 
L 505.336654 178.641759 
L 504.261874 180.196912 
L 499.883139 180.196912 
L 506.136407 171.660039 
L 511.32937 171.660039 
L 517.582638 180.196912 
L 513.207521 180.196912 
L 512.143597 178.641759 
z
M 506.422291 177.057333 
L 511.047104 177.057333 
L 508.738316 173.661612 
L 506.422291 177.057333 
z
" clip-path="url(#pb83e0e76ff)" style="fill: #008000"/>
   </g>
   <g id="patch_94">
    <path d="M 517.582638 169.398033 
Q 515.797614 170.529036 513.877722 171.09712 
Q 511.957831 171.660039 509.911004 171.660039 
Q 505.28581 171.660039 502.584474 168.292853 
Q 499.883139 164.925666 499.883139 159.167365 
Q 499.883139 153.341926 502.632075 150.000561 
Q 505.384978 146.659197 510.172807 146.659197 
Q 512.017331 146.659197 513.707153 147.113664 
Q 515.400942 147.562966 516.900362 148.451243 
L 516.900362 153.434885 
Q 515.353342 152.293553 513.822188 151.730634 
Q 512.291035 151.162551 510.751948 151.162551 
Q 507.903844 151.162551 506.36079 153.238638 
Q 504.817737 155.309561 504.817737 159.167365 
Q 504.817737 162.989018 506.305256 165.075434 
Q 507.792776 167.156685 510.529812 167.156685 
Q 511.275555 167.156685 511.914197 167.037904 
Q 512.552838 166.913959 513.060578 166.655739 
L 513.060578 161.976796 
L 510.14504 161.976796 
L 510.14504 157.809128 
L 517.582638 157.809128 
L 517.582638 169.398033 
z
" clip-path="url(#pb83e0e76ff)" style="fill: #ffa600"/>
   </g>
   <g id="patch_95">
    <path d="M 536.213689 191.97983 
Q 534.428666 192.109915 532.508774 192.175254 
Q 530.588882 192.24 528.542055 192.24 
Q 523.916861 192.24 521.215526 191.852714 
Q 518.51419 191.465429 518.51419 190.803123 
Q 518.51419 190.133096 521.263126 189.74878 
Q 524.016029 189.364464 528.803859 189.364464 
Q 530.648383 189.364464 532.338205 189.416736 
Q 534.031994 189.468414 535.531414 189.570581 
L 535.531414 190.143787 
Q 533.984394 190.012514 532.45324 189.947769 
Q 530.922087 189.882429 529.383 189.882429 
Q 526.534896 189.882429 524.991842 190.121216 
Q 523.448788 190.359408 523.448788 190.803123 
Q 523.448788 191.24268 524.936308 191.482655 
Q 526.423828 191.722035 529.160864 191.722035 
Q 529.906607 191.722035 530.545248 191.708373 
Q 531.18389 191.694117 531.69163 191.664418 
L 531.69163 191.126257 
L 528.776092 191.126257 
L 528.776092 190.646902 
L 536.213689 190.646902 
L 536.213689 191.97983 
z
" clip-path="url(#pb83e0e76ff)" style="fill: #ffa600"/>
   </g>
   <g id="patch_96">
    <path d="M 518.51419 185.097541 
L 536.213689 185.097541 
L 536.213689 185.92971 
L 529.845986 185.92971 
L 529.845986 189.364464 
L 524.894242 189.364464 
L 524.894242 185.92971 
L 518.51419 185.92971 
L 518.51419 185.097541 
z
" clip-path="url(#pb83e0e76ff)" style="fill: #ff0000"/>
   </g>
   <g id="patch_97">
    <path d="M 530.774649 183.509144 
L 523.967706 183.509144 
L 522.892926 185.097541 
L 518.51419 185.097541 
L 524.767458 176.378175 
L 529.960421 176.378175 
L 536.213689 185.097541 
L 531.838573 185.097541 
L 530.774649 183.509144 
z
M 525.053343 181.890847 
L 529.678156 181.890847 
L 527.369368 178.422535 
L 525.053343 181.890847 
z
" clip-path="url(#pb83e0e76ff)" style="fill: #008000"/>
   </g>
   <g id="patch_98">
    <path d="M 536.213689 175.527112 
Q 534.733157 175.948965 533.13222 176.162343 
Q 531.531282 176.378175 529.787643 176.378175 
Q 524.587941 176.378175 521.551066 174.77906 
Q 518.51419 173.179946 518.51419 170.445264 
Q 518.51419 167.700772 521.551066 166.10411 
Q 524.587941 164.504996 529.787643 164.504996 
Q 531.531282 164.504996 533.13222 164.720827 
Q 534.733157 164.934206 536.213689 165.356058 
L 536.213689 167.722845 
Q 534.719779 167.163646 533.270462 166.903667 
Q 531.821146 166.643689 530.220208 166.643689 
Q 527.348332 166.643689 525.7028 167.656624 
Q 524.061728 168.667108 524.061728 170.445264 
Q 524.061728 172.216063 525.7028 173.228999 
Q 527.348332 174.239482 530.220208 174.239482 
Q 531.821146 174.239482 533.270462 173.979503 
Q 534.719779 173.717072 536.213689 173.157872 
L 536.213689 175.527112 
z
" clip-path="url(#pb83e0e76ff)" style="fill: #0000ff"/>
   </g>
   <g id="patch_99">
    <path d="M 549.405701 190.90273 
L 542.598758 190.90273 
L 541.523977 192.24 
L 537.145242 192.24 
L 543.39851 184.899177 
L 548.591473 184.899177 
L 554.844741 192.24 
L 550.469625 192.24 
L 549.405701 190.90273 
z
M 543.684395 189.540289 
L 548.309208 189.540289 
L 546.00042 186.620321 
L 543.684395 189.540289 
z
" clip-path="url(#pb83e0e76ff)" style="fill: #008000"/>
   </g>
   <g id="patch_100">
    <path d="M 554.844741 184.357046 
Q 553.364209 184.625768 551.763271 184.761691 
Q 550.162334 184.899177 548.418695 184.899177 
Q 543.218993 184.899177 540.182118 183.880533 
Q 537.145242 182.861889 537.145242 181.119884 
Q 537.145242 179.371629 540.182118 178.354548 
Q 543.218993 177.335904 548.418695 177.335904 
Q 550.162334 177.335904 551.763271 177.47339 
Q 553.364209 177.609313 554.844741 177.878035 
L 554.844741 179.38569 
Q 553.35083 179.029477 551.901514 178.863869 
Q 550.452197 178.698262 548.85126 178.698262 
Q 545.979384 178.698262 544.333852 179.343507 
Q 542.69278 179.98719 542.69278 181.119884 
Q 542.69278 182.247891 544.333852 182.893136 
Q 545.979384 183.536819 548.85126 183.536819 
Q 550.452197 183.536819 551.901514 183.371211 
Q 553.35083 183.204041 554.844741 182.847828 
L 554.844741 184.357046 
z
" clip-path="url(#pb83e0e76ff)" style="fill: #0000ff"/>
   </g>
   <g id="patch_101">
    <path d="M 554.844741 176.470461 
Q 553.059718 176.903183 551.139826 177.120531 
Q 549.219934 177.335904 547.173107 177.335904 
Q 542.547913 177.335904 539.846578 176.047619 
Q 537.145242 174.759335 537.145242 172.55621 
Q 537.145242 170.327399 539.894178 169.048994 
Q 542.647081 167.770588 547.434911 167.770588 
Q 549.279435 167.770588 550.969257 167.944467 
Q 552.663046 168.11637 554.162466 168.456225 
L 554.162466 170.362965 
Q 552.615445 169.926292 551.084292 169.710919 
Q 549.553138 169.49357 548.014052 169.49357 
Q 545.165947 169.49357 543.622894 170.287881 
Q 542.07984 171.080215 542.07984 172.55621 
Q 542.07984 174.018374 543.56736 174.816636 
Q 545.054879 175.612922 547.791915 175.612922 
Q 548.537658 175.612922 549.1763 175.567476 
Q 549.814942 175.520055 550.322682 175.42126 
L 550.322682 173.631098 
L 547.407144 173.631098 
L 547.407144 172.036549 
L 554.844741 172.036549 
L 554.844741 176.470461 
z
" clip-path="url(#pb83e0e76ff)" style="fill: #ffa600"/>
   </g>
   <g id="patch_102">
    <path d="M 537.145242 125.727691 
L 554.844741 125.727691 
L 554.844741 133.927227 
L 548.477038 133.927227 
L 548.477038 167.770588 
L 543.525294 167.770588 
L 543.525294 133.927227 
L 537.145242 133.927227 
L 537.145242 125.727691 
z
" clip-path="url(#pb83e0e76ff)" style="fill: #ff0000"/>
   </g>
   <g id="patch_103">
    <path d="M 573.475793 191.846237 
Q 571.99526 192.041416 570.394323 192.140141 
Q 568.793386 192.24 567.049747 192.24 
Q 561.850045 192.24 558.813169 191.500134 
Q 555.776294 190.760269 555.776294 189.495008 
Q 555.776294 188.225208 558.813169 187.486478 
Q 561.850045 186.746612 567.049747 186.746612 
Q 568.793386 186.746612 570.394323 186.846471 
Q 571.99526 186.945196 573.475793 187.140375 
L 573.475793 188.235421 
Q 571.981882 187.976695 570.532566 187.85641 
Q 569.083249 187.736125 567.482312 187.736125 
Q 564.610435 187.736125 562.964904 188.204783 
Q 561.323831 188.672305 561.323831 189.495008 
Q 561.323831 190.314307 562.964904 190.782964 
Q 564.610435 191.250487 567.482312 191.250487 
Q 569.083249 191.250487 570.532566 191.130202 
Q 571.981882 191.008782 573.475793 190.750056 
L 573.475793 191.846237 
z
" clip-path="url(#pb83e0e76ff)" style="fill: #0000ff"/>
   </g>
   <g id="patch_104">
    <path d="M 568.036752 185.495707 
L 561.22981 185.495707 
L 560.155029 186.746612 
L 555.776294 186.746612 
L 562.029562 179.879877 
L 567.222525 179.879877 
L 573.475793 186.746612 
L 569.100677 186.746612 
L 568.036752 185.495707 
z
M 562.315446 184.221255 
L 566.940259 184.221255 
L 564.631472 181.489866 
L 562.315446 184.221255 
z
" clip-path="url(#pb83e0e76ff)" style="fill: #008000"/>
   </g>
   <g id="patch_105">
    <path d="M 555.776294 170.609785 
L 573.475793 170.609785 
L 573.475793 172.417711 
L 567.108089 172.417711 
L 567.108089 179.879877 
L 562.156346 179.879877 
L 562.156346 172.417711 
L 555.776294 172.417711 
L 555.776294 170.609785 
z
" clip-path="url(#pb83e0e76ff)" style="fill: #ff0000"/>
   </g>
   <g id="patch_106">
    <path d="M 573.475793 167.922737 
Q 571.69077 169.266261 569.770878 169.94109 
Q 567.850986 170.609785 565.804159 170.609785 
Q 561.178965 170.609785 558.477629 166.609887 
Q 555.776294 162.609989 555.776294 155.769673 
Q 555.776294 148.849604 558.52523 144.88038 
Q 561.278133 140.911156 566.065962 140.911156 
Q 567.910487 140.911156 569.600309 141.45102 
Q 571.294098 141.984749 572.793517 143.039936 
L 572.793517 148.960031 
Q 571.246497 147.604237 569.715344 146.935543 
Q 568.18419 146.260713 566.645103 146.260713 
Q 563.796999 146.260713 562.253946 148.726908 
Q 560.710892 151.186968 560.710892 155.769673 
Q 560.710892 160.309434 562.198412 162.787899 
Q 563.685931 165.260228 566.422967 165.260228 
Q 567.16871 165.260228 567.807352 165.119128 
Q 568.445994 164.971892 568.953734 164.665151 
L 568.953734 159.107011 
L 566.038195 159.107011 
L 566.038195 154.156217 
L 573.475793 154.156217 
L 573.475793 167.922737 
z
" clip-path="url(#pb83e0e76ff)" style="fill: #ffa600"/>
   </g>
   <g id="patch_107">
    <path d="M 586.667804 191.778097 
L 579.860861 191.778097 
L 578.786081 192.24 
L 574.407346 192.24 
L 580.660614 189.704424 
L 585.853577 189.704424 
L 592.106845 192.24 
L 587.731728 192.24 
L 586.667804 191.778097 
z
M 580.946498 191.307499 
L 585.571311 191.307499 
L 583.262523 190.29892 
L 580.946498 191.307499 
z
" clip-path="url(#pb83e0e76ff)" style="fill: #008000"/>
   </g>
   <g id="patch_108">
    <path d="M 574.407346 185.229877 
L 592.106845 185.229877 
L 592.106845 186.102539 
L 585.739141 186.102539 
L 585.739141 189.704424 
L 580.787398 189.704424 
L 580.787398 186.102539 
L 574.407346 186.102539 
L 574.407346 185.229877 
z
" clip-path="url(#pb83e0e76ff)" style="fill: #ff0000"/>
   </g>
   <g id="patch_109">
    <path d="M 592.106845 184.73057 
Q 590.321821 184.980223 588.401929 185.10562 
Q 586.482038 185.229877 584.435211 185.229877 
Q 579.810017 185.229877 577.108681 184.486615 
Q 574.407346 183.743353 574.407346 182.472284 
Q 574.407346 181.186395 577.156282 180.448833 
Q 579.909185 179.71127 584.697014 179.71127 
Q 586.541538 179.71127 588.23136 179.811588 
Q 589.925149 179.910766 591.424569 180.106841 
L 591.424569 181.206914 
Q 589.877549 180.95498 588.346395 180.830723 
Q 586.815242 180.705326 585.276155 180.705326 
Q 582.428051 180.705326 580.884997 181.163595 
Q 579.341944 181.620724 579.341944 182.472284 
Q 579.341944 183.315864 580.829463 183.776412 
Q 582.316983 184.235821 585.054019 184.235821 
Q 585.799762 184.235821 586.438404 184.209602 
Q 587.077045 184.182243 587.584785 184.125244 
L 587.584785 183.092429 
L 584.669247 183.092429 
L 584.669247 182.172471 
L 592.106845 182.172471 
L 592.106845 184.73057 
z
" clip-path="url(#pb83e0e76ff)" style="fill: #ffa600"/>
   </g>
   <g id="patch_110">
    <path d="M 592.106845 179.011004 
Q 590.626312 179.35811 589.025375 179.533681 
Q 587.424438 179.71127 585.680798 179.71127 
Q 580.481097 179.71127 577.444221 178.395496 
Q 574.407346 177.079721 574.407346 174.829584 
Q 574.407346 172.571376 577.444221 171.257619 
Q 580.481097 169.941844 585.680798 169.941844 
Q 587.424438 169.941844 589.025375 170.119434 
Q 590.626312 170.295005 592.106845 170.642111 
L 592.106845 172.589538 
Q 590.612934 172.129421 589.163617 171.915507 
Q 587.714301 171.701592 586.113364 171.701592 
Q 583.241487 171.701592 581.595955 172.535051 
Q 579.954883 173.366491 579.954883 174.829584 
Q 579.954883 176.286623 581.595955 177.120082 
Q 583.241487 177.951523 586.113364 177.951523 
Q 587.714301 177.951523 589.163617 177.737608 
Q 590.612934 177.521676 592.106845 177.061558 
L 592.106845 179.011004 
z
" clip-path="url(#pb83e0e76ff)" style="fill: #0000ff"/>
   </g>
   <g id="patch_111">
    <path d="M 610.737896 191.866122 
Q 609.257364 192.051445 607.656427 192.145184 
Q 606.055489 192.24 604.31185 192.24 
Q 599.112148 192.24 596.075273 191.537498 
Q 593.038397 190.834996 593.038397 189.633631 
Q 593.038397 188.427956 596.075273 187.726531 
Q 599.112148 187.024029 604.31185 187.024029 
Q 606.055489 187.024029 607.656427 187.118846 
Q 609.257364 187.212584 610.737896 187.397907 
L 610.737896 188.437653 
Q 609.243986 188.191993 607.794669 188.077783 
Q 606.345353 187.963572 604.744415 187.963572 
Q 601.872539 187.963572 600.227007 188.408562 
Q 598.585935 188.852474 598.585935 189.633631 
Q 598.585935 190.411555 600.227007 190.856545 
Q 601.872539 191.300457 604.744415 191.300457 
Q 606.345353 191.300457 607.794669 191.186247 
Q 609.243986 191.070959 610.737896 190.825299 
L 610.737896 191.866122 
z
" clip-path="url(#pb83e0e76ff)" style="fill: #0000ff"/>
   </g>
   <g id="patch_112">
    <path d="M 605.298856 185.894077 
L 598.491913 185.894077 
L 597.417133 187.024029 
L 593.038397 187.024029 
L 599.291665 180.821253 
L 604.484628 180.821253 
L 610.737896 187.024029 
L 606.36278 187.024029 
L 605.298856 185.894077 
z
M 599.57755 184.742854 
L 604.202363 184.742854 
L 601.893575 182.275569 
L 599.57755 184.742854 
z
" clip-path="url(#pb83e0e76ff)" style="fill: #008000"/>
   </g>
   <g id="patch_113">
    <path d="M 610.737896 180.132496 
Q 608.952873 180.476875 607.032981 180.64985 
Q 605.113089 180.821253 603.066262 180.821253 
Q 598.441068 180.821253 595.739733 179.79598 
Q 593.038397 178.770707 593.038397 177.017363 
Q 593.038397 175.243577 595.787333 174.226167 
Q 598.540236 173.208756 603.328066 173.208756 
Q 605.17259 173.208756 606.862412 173.347136 
Q 608.556201 173.483944 610.055621 173.754415 
L 610.055621 175.271883 
Q 608.508601 174.924359 606.977447 174.752956 
Q 605.446294 174.57998 603.907207 174.57998 
Q 601.059103 174.57998 599.516049 175.212127 
Q 597.972995 175.842702 597.972995 177.017363 
Q 597.972995 178.181017 599.460515 178.816309 
Q 600.948035 179.450029 603.685071 179.450029 
Q 604.430814 179.450029 605.069455 179.413861 
Q 605.708097 179.376121 606.215837 179.297496 
L 606.215837 177.872806 
L 603.300299 177.872806 
L 603.300299 176.603794 
L 610.737896 176.603794 
L 610.737896 180.132496 
z
" clip-path="url(#pb83e0e76ff)" style="fill: #ffa600"/>
   </g>
   <g id="patch_114">
    <path d="M 593.038397 150.089318 
L 610.737896 150.089318 
L 610.737896 154.598253 
L 604.370193 154.598253 
L 604.370193 173.208756 
L 599.418449 173.208756 
L 599.418449 154.598253 
L 593.038397 154.598253 
L 593.038397 150.089318 
z
" clip-path="url(#pb83e0e76ff)" style="fill: #ff0000"/>
   </g>
   <g id="patch_115">
    <path d="M 623.929908 191.172052 
L 617.122965 191.172052 
L 616.048184 192.24 
L 611.669449 192.24 
L 617.922717 186.377596 
L 623.11568 186.377596 
L 629.368948 192.24 
L 624.993832 192.24 
L 623.929908 191.172052 
z
M 618.208602 190.084002 
L 622.833415 190.084002 
L 620.524627 187.752107 
L 618.208602 190.084002 
z
" clip-path="url(#pb83e0e76ff)" style="fill: #008000"/>
   </g>
   <g id="patch_116">
    <path d="M 629.368948 185.670377 
Q 627.583925 186.023987 625.664033 186.201599 
Q 623.744141 186.377596 621.697314 186.377596 
Q 617.07212 186.377596 614.370785 185.324842 
Q 611.669449 184.272087 611.669449 182.471748 
Q 611.669449 180.650419 614.418385 179.605738 
Q 617.171288 178.561057 621.959118 178.561057 
Q 623.803642 178.561057 625.493464 178.703146 
Q 627.187253 178.843621 628.686673 179.121342 
L 628.686673 180.679483 
Q 627.139652 180.322644 625.608499 180.146647 
Q 624.077345 179.969035 622.538259 179.969035 
Q 619.690154 179.969035 618.147101 180.618126 
Q 616.604047 181.265602 616.604047 182.471748 
Q 616.604047 183.666592 618.091567 184.318912 
Q 619.579086 184.969618 622.316122 184.969618 
Q 623.061865 184.969618 623.700507 184.932481 
Q 624.339149 184.893729 624.846889 184.812996 
L 624.846889 183.35012 
L 621.931351 183.35012 
L 621.931351 182.047094 
L 629.368948 182.047094 
L 629.368948 185.670377 
z
" clip-path="url(#pb83e0e76ff)" style="fill: #ffa600"/>
   </g>
   <g id="patch_117">
    <path d="M 629.368948 177.975305 
Q 627.888416 178.265649 626.287478 178.412509 
Q 624.686541 178.561057 622.942902 178.561057 
Q 617.7432 178.561057 614.706325 177.46045 
Q 611.669449 176.359844 611.669449 174.477671 
Q 611.669449 172.588746 614.706325 171.489828 
Q 617.7432 170.389221 622.942902 170.389221 
Q 624.686541 170.389221 626.287478 170.537769 
Q 627.888416 170.684629 629.368948 170.974973 
L 629.368948 172.603939 
Q 627.875037 172.219064 626.425721 172.040131 
Q 624.976404 171.861198 623.375467 171.861198 
Q 620.503591 171.861198 618.858059 172.558361 
Q 617.216987 173.253837 617.216987 174.477671 
Q 617.216987 175.696441 618.858059 176.393604 
Q 620.503591 177.08908 623.375467 177.08908 
Q 624.976404 177.08908 626.425721 176.910147 
Q 627.875037 176.729526 629.368948 176.344651 
L 629.368948 177.975305 
z
" clip-path="url(#pb83e0e76ff)" style="fill: #0000ff"/>
   </g>
   <g id="patch_118">
    <path d="M 611.669449 139.123065 
L 629.368948 139.123065 
L 629.368948 145.220837 
L 623.001245 145.220837 
L 623.001245 170.389221 
L 618.049501 170.389221 
L 618.049501 145.220837 
L 611.669449 145.220837 
L 611.669449 139.123065 
z
" clip-path="url(#pb83e0e76ff)" style="fill: #ff0000"/>
   </g>
   <g id="patch_119">
    <path d="M 630.300501 187.873769 
L 648 187.873769 
L 648 188.725306 
L 641.632296 188.725306 
L 641.632296 192.24 
L 636.680553 192.24 
L 636.680553 188.725306 
L 630.300501 188.725306 
L 630.300501 187.873769 
z
" clip-path="url(#pb83e0e76ff)" style="fill: #ff0000"/>
   </g>
   <g id="patch_120">
    <path d="M 642.560959 186.84558 
L 635.754017 186.84558 
L 634.679236 187.873769 
L 630.300501 187.873769 
L 636.553769 182.229617 
L 641.746732 182.229617 
L 648 187.873769 
L 643.624884 187.873769 
L 642.560959 186.84558 
z
M 636.839653 185.798037 
L 641.464466 185.798037 
L 639.155679 183.552957 
L 636.839653 185.798037 
z
" clip-path="url(#pb83e0e76ff)" style="fill: #008000"/>
   </g>
   <g id="patch_121">
    <path d="M 648 181.825048 
Q 646.519467 182.025584 644.91853 182.127018 
Q 643.317593 182.229617 641.573954 182.229617 
Q 636.374252 182.229617 633.337376 181.469446 
Q 630.300501 180.709276 630.300501 179.40929 
Q 630.300501 178.104641 633.337376 177.345636 
Q 636.374252 176.585465 641.573954 176.585465 
Q 643.317593 176.585465 644.91853 176.688065 
Q 646.519467 176.789499 648 176.990035 
L 648 178.115134 
Q 646.506089 177.849308 645.056773 177.725722 
Q 643.607456 177.602136 642.006519 177.602136 
Q 639.134642 177.602136 637.489111 178.083655 
Q 635.848038 178.564008 635.848038 179.40929 
Q 635.848038 180.251074 637.489111 180.732594 
Q 639.134642 181.212947 642.006519 181.212947 
Q 643.607456 181.212947 645.056773 181.089361 
Q 646.506089 180.964609 648 180.698782 
L 648 181.825048 
z
" clip-path="url(#pb83e0e76ff)" style="fill: #0000ff"/>
   </g>
   <g id="patch_122">
    <path d="M 648 175.120911 
Q 646.214977 175.853188 644.295085 176.220999 
Q 642.375193 176.585465 640.328366 176.585465 
Q 635.703172 176.585465 633.001836 174.405353 
Q 630.300501 172.22524 630.300501 168.49698 
Q 630.300501 164.725252 633.049437 162.561858 
Q 635.80234 160.398464 640.590169 160.398464 
Q 642.434694 160.398464 644.124516 160.692712 
Q 645.818305 160.983617 647.317724 161.558738 
L 647.317724 164.785439 
Q 645.770704 164.046474 644.239551 163.682007 
Q 642.708397 163.314197 641.16931 163.314197 
Q 638.321206 163.314197 636.778153 164.658377 
Q 635.235099 165.999213 635.235099 168.49698 
Q 635.235099 170.971341 636.722619 172.322208 
Q 638.210138 173.669732 640.947174 173.669732 
Q 641.692917 173.669732 642.331559 173.592826 
Q 642.970201 173.512577 643.477941 173.34539 
L 643.477941 170.31597 
L 640.562402 170.31597 
L 640.562402 167.617579 
L 648 167.617579 
L 648 175.120911 
z
" clip-path="url(#pb83e0e76ff)" style="fill: #ffa600"/>
   </g>
   <g id="matplotlib.axis_1">
    <g id="xtick_1">
     <g id="line2d_2">
      <defs>
       <path id="m9fb58e8af1" d="M 0 0 
L 0 3.5 
" style="stroke: #000000; stroke-width: 0.8"/>
      </defs>
      <g>
       <use xlink:href="#m9fb58e8af1" x="98.84975" y="192.24" style="stroke: #000000; stroke-width: 0.8"/>
      </g>
     </g>
     <g id="text_1">
      <!-- 0 -->
      <g transform="translate(95.6685 206.838437) scale(0.1 -0.1)">
       <defs>
        <path id="DejaVuSans-30" d="M 2034 4250 
Q 1547 4250 1301 3770 
Q 1056 3291 1056 2328 
Q 1056 1369 1301 889 
Q 1547 409 2034 409 
Q 2525 409 2770 889 
Q 3016 1369 3016 2328 
Q 3016 3291 2770 3770 
Q 2525 4250 2034 4250 
z
M 2034 4750 
Q 2819 4750 3233 4129 
Q 3647 3509 3647 2328 
Q 3647 1150 3233 529 
Q 2819 -91 2034 -91 
Q 1250 -91 836 529 
Q 422 1150 422 2328 
Q 422 3509 836 4129 
Q 1250 4750 2034 4750 
z
" transform="scale(0.015625)"/>
       </defs>
       <use xlink:href="#DejaVuSans-30"/>
      </g>
     </g>
    </g>
    <g id="xtick_2">
     <g id="line2d_3">
      <g>
       <use xlink:href="#m9fb58e8af1" x="192.005008" y="192.24" style="stroke: #000000; stroke-width: 0.8"/>
      </g>
     </g>
     <g id="text_2">
      <!-- 5 -->
      <g transform="translate(188.823758 206.838437) scale(0.1 -0.1)">
       <defs>
        <path id="DejaVuSans-35" d="M 691 4666 
L 3169 4666 
L 3169 4134 
L 1269 4134 
L 1269 2991 
Q 1406 3038 1543 3061 
Q 1681 3084 1819 3084 
Q 2600 3084 3056 2656 
Q 3513 2228 3513 1497 
Q 3513 744 3044 326 
Q 2575 -91 1722 -91 
Q 1428 -91 1123 -41 
Q 819 9 494 109 
L 494 744 
Q 775 591 1075 516 
Q 1375 441 1709 441 
Q 2250 441 2565 725 
Q 2881 1009 2881 1497 
Q 2881 1984 2565 2268 
Q 2250 2553 1709 2553 
Q 1456 2553 1204 2497 
Q 953 2441 691 2322 
L 691 4666 
z
" transform="scale(0.015625)"/>
       </defs>
       <use xlink:href="#DejaVuSans-35"/>
      </g>
     </g>
    </g>
    <g id="xtick_3">
     <g id="line2d_4">
      <g>
       <use xlink:href="#m9fb58e8af1" x="285.160267" y="192.24" style="stroke: #000000; stroke-width: 0.8"/>
      </g>
     </g>
     <g id="text_3">
      <!-- 10 -->
      <g transform="translate(278.797767 206.838437) scale(0.1 -0.1)">
       <defs>
        <path id="DejaVuSans-31" d="M 794 531 
L 1825 531 
L 1825 4091 
L 703 3866 
L 703 4441 
L 1819 4666 
L 2450 4666 
L 2450 531 
L 3481 531 
L 3481 0 
L 794 0 
L 794 531 
z
" transform="scale(0.015625)"/>
       </defs>
       <use xlink:href="#DejaVuSans-31"/>
       <use xlink:href="#DejaVuSans-30" x="63.623047"/>
      </g>
     </g>
    </g>
    <g id="xtick_4">
     <g id="line2d_5">
      <g>
       <use xlink:href="#m9fb58e8af1" x="378.315526" y="192.24" style="stroke: #000000; stroke-width: 0.8"/>
      </g>
     </g>
     <g id="text_4">
      <!-- 15 -->
      <g transform="translate(371.953026 206.838437) scale(0.1 -0.1)">
       <use xlink:href="#DejaVuSans-31"/>
       <use xlink:href="#DejaVuSans-35" x="63.623047"/>
      </g>
     </g>
    </g>
    <g id="xtick_5">
     <g id="line2d_6">
      <g>
       <use xlink:href="#m9fb58e8af1" x="471.470785" y="192.24" style="stroke: #000000; stroke-width: 0.8"/>
      </g>
     </g>
     <g id="text_5">
      <!-- 20 -->
      <g transform="translate(465.108285 206.838437) scale(0.1 -0.1)">
       <defs>
        <path id="DejaVuSans-32" d="M 1228 531 
L 3431 531 
L 3431 0 
L 469 0 
L 469 531 
Q 828 903 1448 1529 
Q 2069 2156 2228 2338 
Q 2531 2678 2651 2914 
Q 2772 3150 2772 3378 
Q 2772 3750 2511 3984 
Q 2250 4219 1831 4219 
Q 1534 4219 1204 4116 
Q 875 4013 500 3803 
L 500 4441 
Q 881 4594 1212 4672 
Q 1544 4750 1819 4750 
Q 2544 4750 2975 4387 
Q 3406 4025 3406 3419 
Q 3406 3131 3298 2873 
Q 3191 2616 2906 2266 
Q 2828 2175 2409 1742 
Q 1991 1309 1228 531 
z
" transform="scale(0.015625)"/>
       </defs>
       <use xlink:href="#DejaVuSans-32"/>
       <use xlink:href="#DejaVuSans-30" x="63.623047"/>
      </g>
     </g>
    </g>
    <g id="xtick_6">
     <g id="line2d_7">
      <g>
       <use xlink:href="#m9fb58e8af1" x="564.626043" y="192.24" style="stroke: #000000; stroke-width: 0.8"/>
      </g>
     </g>
     <g id="text_6">
      <!-- 25 -->
      <g transform="translate(558.263543 206.838437) scale(0.1 -0.1)">
       <use xlink:href="#DejaVuSans-32"/>
       <use xlink:href="#DejaVuSans-35" x="63.623047"/>
      </g>
     </g>
    </g>
   </g>
   <g id="matplotlib.axis_2">
    <g id="ytick_1">
     <g id="line2d_8">
      <defs>
       <path id="m8a6679f2b7" d="M 0 0 
L -3.5 0 
" style="stroke: #000000; stroke-width: 0.8"/>
      </defs>
      <g>
       <use xlink:href="#m8a6679f2b7" x="90" y="192.24" style="stroke: #000000; stroke-width: 0.8"/>
      </g>
     </g>
     <g id="text_7">
      <!-- 0.0 -->
      <g transform="translate(67.096875 196.039219) scale(0.1 -0.1)">
       <defs>
        <path id="DejaVuSans-2e" d="M 684 794 
L 1344 794 
L 1344 0 
L 684 0 
L 684 794 
z
" transform="scale(0.015625)"/>
       </defs>
       <use xlink:href="#DejaVuSans-30"/>
       <use xlink:href="#DejaVuSans-2e" x="63.623047"/>
       <use xlink:href="#DejaVuSans-30" x="95.410156"/>
      </g>
     </g>
    </g>
    <g id="ytick_2">
     <g id="line2d_9">
      <g>
       <use xlink:href="#m8a6679f2b7" x="90" y="164.042321" style="stroke: #000000; stroke-width: 0.8"/>
      </g>
     </g>
     <g id="text_8">
      <!-- 0.2 -->
      <g transform="translate(67.096875 167.84154) scale(0.1 -0.1)">
       <use xlink:href="#DejaVuSans-30"/>
       <use xlink:href="#DejaVuSans-2e" x="63.623047"/>
       <use xlink:href="#DejaVuSans-32" x="95.410156"/>
      </g>
     </g>
    </g>
    <g id="ytick_3">
     <g id="line2d_10">
      <g>
       <use xlink:href="#m8a6679f2b7" x="90" y="135.844643" style="stroke: #000000; stroke-width: 0.8"/>
      </g>
     </g>
     <g id="text_9">
      <!-- 0.4 -->
      <g transform="translate(67.096875 139.643861) scale(0.1 -0.1)">
       <defs>
        <path id="DejaVuSans-34" d="M 2419 4116 
L 825 1625 
L 2419 1625 
L 2419 4116 
z
M 2253 4666 
L 3047 4666 
L 3047 1625 
L 3713 1625 
L 3713 1100 
L 3047 1100 
L 3047 0 
L 2419 0 
L 2419 1100 
L 313 1100 
L 313 1709 
L 2253 4666 
z
" transform="scale(0.015625)"/>
       </defs>
       <use xlink:href="#DejaVuSans-30"/>
       <use xlink:href="#DejaVuSans-2e" x="63.623047"/>
       <use xlink:href="#DejaVuSans-34" x="95.410156"/>
      </g>
     </g>
    </g>
    <g id="ytick_4">
     <g id="line2d_11">
      <g>
       <use xlink:href="#m8a6679f2b7" x="90" y="107.646964" style="stroke: #000000; stroke-width: 0.8"/>
      </g>
     </g>
     <g id="text_10">
      <!-- 0.6 -->
      <g transform="translate(67.096875 111.446183) scale(0.1 -0.1)">
       <defs>
        <path id="DejaVuSans-36" d="M 2113 2584 
Q 1688 2584 1439 2293 
Q 1191 2003 1191 1497 
Q 1191 994 1439 701 
Q 1688 409 2113 409 
Q 2538 409 2786 701 
Q 3034 994 3034 1497 
Q 3034 2003 2786 2293 
Q 2538 2584 2113 2584 
z
M 3366 4563 
L 3366 3988 
Q 3128 4100 2886 4159 
Q 2644 4219 2406 4219 
Q 1781 4219 1451 3797 
Q 1122 3375 1075 2522 
Q 1259 2794 1537 2939 
Q 1816 3084 2150 3084 
Q 2853 3084 3261 2657 
Q 3669 2231 3669 1497 
Q 3669 778 3244 343 
Q 2819 -91 2113 -91 
Q 1303 -91 875 529 
Q 447 1150 447 2328 
Q 447 3434 972 4092 
Q 1497 4750 2381 4750 
Q 2619 4750 2861 4703 
Q 3103 4656 3366 4563 
z
" transform="scale(0.015625)"/>
       </defs>
       <use xlink:href="#DejaVuSans-30"/>
       <use xlink:href="#DejaVuSans-2e" x="63.623047"/>
       <use xlink:href="#DejaVuSans-36" x="95.410156"/>
      </g>
     </g>
    </g>
    <g id="ytick_5">
     <g id="line2d_12">
      <g>
       <use xlink:href="#m8a6679f2b7" x="90" y="79.449285" style="stroke: #000000; stroke-width: 0.8"/>
      </g>
     </g>
     <g id="text_11">
      <!-- 0.8 -->
      <g transform="translate(67.096875 83.248504) scale(0.1 -0.1)">
       <defs>
        <path id="DejaVuSans-38" d="M 2034 2216 
Q 1584 2216 1326 1975 
Q 1069 1734 1069 1313 
Q 1069 891 1326 650 
Q 1584 409 2034 409 
Q 2484 409 2743 651 
Q 3003 894 3003 1313 
Q 3003 1734 2745 1975 
Q 2488 2216 2034 2216 
z
M 1403 2484 
Q 997 2584 770 2862 
Q 544 3141 544 3541 
Q 544 4100 942 4425 
Q 1341 4750 2034 4750 
Q 2731 4750 3128 4425 
Q 3525 4100 3525 3541 
Q 3525 3141 3298 2862 
Q 3072 2584 2669 2484 
Q 3125 2378 3379 2068 
Q 3634 1759 3634 1313 
Q 3634 634 3220 271 
Q 2806 -91 2034 -91 
Q 1263 -91 848 271 
Q 434 634 434 1313 
Q 434 1759 690 2068 
Q 947 2378 1403 2484 
z
M 1172 3481 
Q 1172 3119 1398 2916 
Q 1625 2713 2034 2713 
Q 2441 2713 2670 2916 
Q 2900 3119 2900 3481 
Q 2900 3844 2670 4047 
Q 2441 4250 2034 4250 
Q 1625 4250 1398 4047 
Q 1172 3844 1172 3481 
z
" transform="scale(0.015625)"/>
       </defs>
       <use xlink:href="#DejaVuSans-30"/>
       <use xlink:href="#DejaVuSans-2e" x="63.623047"/>
       <use xlink:href="#DejaVuSans-38" x="95.410156"/>
      </g>
     </g>
    </g>
    <g id="ytick_6">
     <g id="line2d_13">
      <g>
       <use xlink:href="#m8a6679f2b7" x="90" y="51.251606" style="stroke: #000000; stroke-width: 0.8"/>
      </g>
     </g>
     <g id="text_12">
      <!-- 1.0 -->
      <g transform="translate(67.096875 55.050825) scale(0.1 -0.1)">
       <use xlink:href="#DejaVuSans-31"/>
       <use xlink:href="#DejaVuSans-2e" x="63.623047"/>
       <use xlink:href="#DejaVuSans-30" x="95.410156"/>
      </g>
     </g>
    </g>
   </g>
  </g>
 </g>
 <defs>
  <clipPath id="pb83e0e76ff">
   <rect x="90" y="25.92" width="558" height="166.32"/>
  </clipPath>
 </defs>
</svg>
