<?xml version="1.0" encoding="utf-8" standalone="no"?>
<!DOCTYPE svg PUBLIC "-//W3C//DTD SVG 1.1//EN"
  "http://www.w3.org/Graphics/SVG/1.1/DTD/svg11.dtd">
<svg xmlns:xlink="http://www.w3.org/1999/xlink" width="720pt" height="216pt" viewBox="0 0 720 216" xmlns="http://www.w3.org/2000/svg" version="1.1">
 <metadata>
  <rdf:RDF xmlns:dc="http://purl.org/dc/elements/1.1/" xmlns:cc="http://creativecommons.org/ns#" xmlns:rdf="http://www.w3.org/1999/02/22-rdf-syntax-ns#">
   <cc:Work>
    <dc:type rdf:resource="http://purl.org/dc/dcmitype/StillImage"/>
    <dc:date>2025-12-17T10:21:56.740570</dc:date>
    <dc:format>image/svg+xml</dc:format>
    <dc:creator>
     <cc:Agent>
      <dc:title>Matplotlib v3.8.2, https://matplotlib.org/</dc:title>
     </cc:Agent>
    </dc:creator>
   </cc:Work>
  </rdf:RDF>
 </metadata>
 <defs>
  <style type="text/css">*{stroke-linejoin: round; stroke-linecap: butt}</style>
 </defs>
 <g id="figure_1">
  <g id="patch_1">
   <path d="M 0 216 
L 720 216 
L 720 0 
L 0 0 
z
" style="fill: #ffffff"/>
  </g>
  <g id="axes_1">
   <g id="patch_2">
    <path d="M 90 192.24 
L 648 192.24 
L 648 25.92 
L 90 25.92 
z
" style="fill: #ffffff"/>
   </g>
   <g id="line2d_1">
    <path d="M 90 192.24 
L 648 192.24 
" clip-path="url(#pe82a826cda)" style="fill: none; stroke: #000000; stroke-width: 0.5; stroke-linecap: square"/>
   </g>
   <g id="patch_3">
    <path d="M 121.274336 192.06947 
Q 118.658292 192.153998 115.829497 192.196753 
Q 113.000702 192.24 109.919759 192.24 
Q 100.732085 192.24 95.366043 191.91958 
Q 90 191.599159 90 191.051201 
Q 90 190.501278 95.366043 190.181349 
Q 100.732085 189.860929 109.919759 189.860929 
Q 113.000702 189.860929 115.829497 189.904175 
Q 118.658292 189.946931 121.274336 190.031459 
L 121.274336 190.505701 
Q 118.634653 190.393652 116.073766 190.341559 
Q 113.51288 190.289466 110.684085 190.289466 
Q 105.609589 190.289466 102.701998 190.492432 
Q 99.802286 190.694906 99.802286 191.051201 
Q 99.802286 191.406023 102.701998 191.608988 
Q 105.609589 191.811462 110.684085 191.811462 
Q 113.51288 191.811462 116.073766 191.75937 
Q 118.634653 191.706785 121.274336 191.594736 
L 121.274336 192.06947 
z
" clip-path="url(#pe82a826cda)" style="fill: #0000ff"/>
   </g>
   <g id="patch_4">
    <path d="M 90 184.65671 
L 121.274336 184.65671 
L 121.274336 185.671677 
L 110.022848 185.671677 
L 110.022848 189.860929 
L 101.273307 189.860929 
L 101.273307 185.671677 
L 90 185.671677 
L 90 184.65671 
z
" clip-path="url(#pe82a826cda)" style="fill: #ff0000"/>
   </g>
   <g id="patch_5">
    <path d="M 121.274336 184.102023 
Q 118.120268 184.379366 114.727893 184.518671 
Q 111.335518 184.65671 107.718853 184.65671 
Q 99.546312 184.65671 94.773156 183.831011 
Q 90 183.005313 90 181.593267 
Q 90 180.164758 94.857265 179.345392 
Q 99.721538 178.526026 108.18145 178.526026 
Q 111.440653 178.526026 114.426504 178.63747 
Q 117.419364 178.747647 120.068781 178.96547 
L 120.068781 180.187554 
Q 117.335256 179.907678 114.629766 179.769639 
Q 111.924277 179.630334 109.204769 179.630334 
Q 104.172279 179.630334 101.445762 180.13943 
Q 98.719246 180.64726 98.719246 181.593267 
Q 98.719246 182.53041 101.347636 183.042039 
Q 103.976026 183.552402 108.812263 183.552402 
Q 110.129963 183.552402 111.258418 183.523274 
Q 112.386874 183.49288 113.284031 183.42956 
L 113.284031 182.282194 
L 108.132386 182.282194 
L 108.132386 181.260202 
L 121.274336 181.260202 
L 121.274336 184.102023 
z
" clip-path="url(#pe82a826cda)" style="fill: #ffa600"/>
   </g>
   <g id="patch_6">
    <path d="M 111.66376 176.463243 
L 99.636153 176.463243 
L 97.737057 178.526026 
L 90 178.526026 
L 101.049285 167.202561 
L 110.225051 167.202561 
L 121.274336 178.526026 
L 113.543673 178.526026 
L 111.66376 176.463243 
z
M 101.554432 174.361631 
L 109.726299 174.361631 
L 105.64676 169.857484 
L 101.554432 174.361631 
z
" clip-path="url(#pe82a826cda)" style="fill: #008000"/>
   </g>
   <g id="patch_7">
    <path d="M 154.19469 192.15188 
Q 151.040622 192.19594 147.648247 192.218071 
Q 144.255872 192.24 140.639207 192.24 
Q 132.466666 192.24 127.69351 192.108827 
Q 122.920354 191.977653 122.920354 191.75333 
Q 122.920354 191.526392 127.777619 191.396225 
Q 132.641892 191.266057 141.101804 191.266057 
Q 144.361007 191.266057 147.346858 191.283762 
Q 150.339718 191.301265 152.989135 191.335869 
L 152.989135 191.530014 
Q 150.25561 191.485552 147.55012 191.463622 
Q 144.844631 191.441492 142.125123 191.441492 
Q 137.092633 191.441492 134.366116 191.522369 
Q 131.6396 191.603044 131.6396 191.75333 
Q 131.6396 191.902208 134.26799 191.983488 
Q 136.89638 192.064566 141.732617 192.064566 
Q 143.050317 192.064566 144.178772 192.059938 
Q 145.307228 192.05511 146.204385 192.045051 
L 146.204385 191.862776 
L 141.05274 191.862776 
L 141.05274 191.700418 
L 154.19469 191.700418 
L 154.19469 192.15188 
z
" clip-path="url(#pe82a826cda)" style="fill: #ffa600"/>
   </g>
   <g id="patch_8">
    <path d="M 144.584114 191.053151 
L 132.556507 191.053151 
L 130.657411 191.266057 
L 122.920354 191.266057 
L 133.969639 190.097326 
L 143.145405 190.097326 
L 154.19469 191.266057 
L 146.464027 191.266057 
L 144.584114 191.053151 
z
M 134.474786 190.836237 
L 142.646653 190.836237 
L 138.567114 190.371349 
L 134.474786 190.836237 
z
" clip-path="url(#pe82a826cda)" style="fill: #008000"/>
   </g>
   <g id="patch_9">
    <path d="M 154.19469 189.973503 
Q 151.578646 190.034879 148.749851 190.065924 
Q 145.921056 190.097326 142.840113 190.097326 
Q 133.652439 190.097326 128.286397 189.864666 
Q 122.920354 189.632006 122.920354 189.234128 
Q 122.920354 188.834823 128.286397 188.60252 
Q 133.652439 188.36986 142.840113 188.36986 
Q 145.921056 188.36986 148.749851 188.401262 
Q 151.578646 188.432307 154.19469 188.493683 
L 154.19469 188.838035 
Q 151.555007 188.756675 148.99412 188.71885 
Q 146.433234 188.681025 143.604439 188.681025 
Q 138.529943 188.681025 135.622352 188.8284 
Q 132.72264 188.975419 132.72264 189.234128 
Q 132.72264 189.491767 135.622352 189.639143 
Q 138.529943 189.786161 143.604439 189.786161 
Q 146.433234 189.786161 148.99412 189.748336 
Q 151.555007 189.710154 154.19469 189.628794 
L 154.19469 189.973503 
z
" clip-path="url(#pe82a826cda)" style="fill: #0000ff"/>
   </g>
   <g id="patch_10">
    <path d="M 122.920354 186.629578 
L 154.19469 186.629578 
L 154.19469 186.968981 
L 142.943202 186.968981 
L 142.943202 188.36986 
L 134.193661 188.36986 
L 134.193661 186.968981 
L 122.920354 186.968981 
L 122.920354 186.629578 
z
" clip-path="url(#pe82a826cda)" style="fill: #ff0000"/>
   </g>
   <g id="patch_11">
    <path d="M 187.115044 192.163398 
Q 183.960976 192.201699 180.568601 192.220937 
Q 177.176226 192.24 173.559561 192.24 
Q 165.38702 192.24 160.613864 192.125972 
Q 155.840708 192.011944 155.840708 191.816942 
Q 155.840708 191.619666 160.697973 191.506513 
Q 165.562246 191.393359 174.022158 191.393359 
Q 177.281361 191.393359 180.267212 191.408749 
Q 183.260072 191.423965 185.909489 191.454046 
L 185.909489 191.622814 
Q 183.175964 191.584164 180.470474 191.565101 
Q 177.764985 191.545863 175.045477 191.545863 
Q 170.012987 191.545863 167.28647 191.616168 
Q 164.559954 191.686299 164.559954 191.816942 
Q 164.559954 191.94636 167.188344 192.017016 
Q 169.816734 192.087496 174.652971 192.087496 
Q 175.970671 192.087496 177.099126 192.083474 
Q 178.227582 192.079276 179.124739 192.070532 
L 179.124739 191.912082 
L 173.973094 191.912082 
L 173.973094 191.770946 
L 187.115044 191.770946 
L 187.115044 192.163398 
z
" clip-path="url(#pe82a826cda)" style="fill: #ffa600"/>
   </g>
   <g id="patch_12">
    <path d="M 187.115044 191.282315 
Q 184.499 191.337357 181.670205 191.365198 
Q 178.84141 191.393359 175.760467 191.393359 
Q 166.572793 191.393359 161.206751 191.184712 
Q 155.840708 190.976065 155.840708 190.619252 
Q 155.840708 190.26116 161.206751 190.052833 
Q 166.572793 189.844186 175.760467 189.844186 
Q 178.84141 189.844186 181.670205 189.872347 
Q 184.499 189.900188 187.115044 189.95523 
L 187.115044 190.26404 
Q 184.475361 190.191078 181.914474 190.157157 
Q 179.353588 190.123235 176.524793 190.123235 
Q 171.450297 190.123235 168.542706 190.2554 
Q 165.642994 190.387244 165.642994 190.619252 
Q 165.642994 190.8503 168.542706 190.982465 
Q 171.450297 191.114309 176.524793 191.114309 
Q 179.353588 191.114309 181.914474 191.080388 
Q 184.475361 191.046147 187.115044 190.973184 
L 187.115044 191.282315 
z
" clip-path="url(#pe82a826cda)" style="fill: #0000ff"/>
   </g>
   <g id="patch_13">
    <path d="M 177.504468 189.554943 
L 165.476861 189.554943 
L 163.577765 189.844186 
L 155.840708 189.844186 
L 166.889993 188.256412 
L 176.065759 188.256412 
L 187.115044 189.844186 
L 179.384381 189.844186 
L 177.504468 189.554943 
z
M 167.39514 189.260255 
L 175.567007 189.260255 
L 171.487467 188.628685 
L 167.39514 189.260255 
z
" clip-path="url(#pe82a826cda)" style="fill: #008000"/>
   </g>
   <g id="patch_14">
    <path d="M 155.840708 186.606877 
L 187.115044 186.606877 
L 187.115044 186.928583 
L 175.863556 186.928583 
L 175.863556 188.256412 
L 167.114015 188.256412 
L 167.114015 186.928583 
L 155.840708 186.928583 
L 155.840708 186.606877 
z
" clip-path="url(#pe82a826cda)" style="fill: #ff0000"/>
   </g>
   <g id="patch_15">
    <path d="M 210.424822 191.350349 
L 198.397215 191.350349 
L 196.498119 192.24 
L 188.761062 192.24 
L 199.810347 187.356341 
L 208.986113 187.356341 
L 220.035398 192.24 
L 212.304735 192.24 
L 210.424822 191.350349 
z
M 200.315494 190.443952 
L 208.487361 190.443952 
L 204.407821 188.501374 
L 200.315494 190.443952 
z
" clip-path="url(#pe82a826cda)" style="fill: #008000"/>
   </g>
   <g id="patch_16">
    <path d="M 220.035398 186.851572 
Q 216.88133 187.103956 213.488955 187.230725 
Q 210.09658 187.356341 206.479915 187.356341 
Q 198.307374 187.356341 193.534218 186.60495 
Q 188.761062 185.853559 188.761062 184.568589 
Q 188.761062 183.268638 193.618327 182.523009 
Q 198.4826 181.777381 206.942512 181.777381 
Q 210.201715 181.777381 213.187566 181.878795 
Q 216.180426 181.979058 218.829843 182.177277 
L 218.829843 183.289381 
Q 216.096318 183.034692 213.390828 182.909076 
Q 210.685339 182.782308 207.965831 182.782308 
Q 202.933341 182.782308 200.206824 183.245589 
Q 197.480308 183.707717 197.480308 184.568589 
Q 197.480308 185.421395 200.108698 185.88698 
Q 202.737088 186.351413 207.573325 186.351413 
Q 208.891025 186.351413 210.01948 186.324907 
Q 211.147936 186.297249 212.045093 186.239627 
L 212.045093 185.195516 
L 206.893448 185.195516 
L 206.893448 184.265498 
L 220.035398 184.265498 
L 220.035398 186.851572 
z
" clip-path="url(#pe82a826cda)" style="fill: #ffa600"/>
   </g>
   <g id="patch_17">
    <path d="M 220.035398 181.330019 
Q 217.419354 181.551766 214.590559 181.663929 
Q 211.761764 181.777381 208.680821 181.777381 
Q 199.493147 181.777381 194.127105 180.936804 
Q 188.761062 180.096228 188.761062 178.658739 
Q 188.761062 177.216093 194.127105 176.376806 
Q 199.493147 175.53623 208.680821 175.53623 
Q 211.761764 175.53623 214.590559 175.649682 
Q 217.419354 175.761845 220.035398 175.983592 
L 220.035398 177.227696 
Q 217.395715 176.933752 214.834828 176.797094 
Q 212.273942 176.660436 209.445147 176.660436 
Q 204.370651 176.660436 201.46306 177.192887 
Q 198.563348 177.724049 198.563348 178.658739 
Q 198.563348 179.589561 201.46306 180.122012 
Q 204.370651 180.653174 209.445147 180.653174 
Q 212.273942 180.653174 214.834828 180.516516 
Q 217.395715 180.378569 220.035398 180.084625 
L 220.035398 181.330019 
z
" clip-path="url(#pe82a826cda)" style="fill: #0000ff"/>
   </g>
   <g id="patch_18">
    <path d="M 188.761062 156.001592 
L 220.035398 156.001592 
L 220.035398 159.811391 
L 208.78391 159.811391 
L 208.78391 175.53623 
L 200.034369 175.53623 
L 200.034369 159.811391 
L 188.761062 159.811391 
L 188.761062 156.001592 
z
" clip-path="url(#pe82a826cda)" style="fill: #ff0000"/>
   </g>
   <g id="patch_19">
    <path d="M 243.345176 191.354345 
L 231.317569 191.354345 
L 229.418473 192.24 
L 221.681416 192.24 
L 232.730701 187.378276 
L 241.906467 187.378276 
L 252.955752 192.24 
L 245.225089 192.24 
L 243.345176 191.354345 
z
M 233.235848 190.452019 
L 241.407715 190.452019 
L 237.328175 188.518166 
L 233.235848 190.452019 
z
" clip-path="url(#pe82a826cda)" style="fill: #008000"/>
   </g>
   <g id="patch_20">
    <path d="M 252.955752 186.709895 
Q 249.801684 187.044086 246.409309 187.211944 
Q 243.016934 187.378276 239.400269 187.378276 
Q 231.227728 187.378276 226.454572 186.383334 
Q 221.681416 185.388392 221.681416 183.686918 
Q 221.681416 181.965607 226.538681 180.978295 
Q 231.402954 179.990982 239.862866 179.990982 
Q 243.122069 179.990982 246.10792 180.125269 
Q 249.10078 180.25803 251.750197 180.520499 
L 251.750197 181.993075 
Q 249.016672 181.655832 246.311182 181.4895 
Q 243.605693 181.321641 240.886185 181.321641 
Q 235.853695 181.321641 233.127178 181.935087 
Q 230.400662 182.547007 230.400662 183.686918 
Q 230.400662 184.816147 233.029052 185.432645 
Q 235.657442 186.047617 240.493679 186.047617 
Q 241.811379 186.047617 242.939834 186.01252 
Q 244.06829 185.975896 244.965447 185.899597 
L 244.965447 184.517054 
L 239.813802 184.517054 
L 239.813802 183.285584 
L 252.955752 183.285584 
L 252.955752 186.709895 
z
" clip-path="url(#pe82a826cda)" style="fill: #ffa600"/>
   </g>
   <g id="patch_21">
    <path d="M 221.681416 167.489407 
L 252.955752 167.489407 
L 252.955752 169.927563 
L 241.704264 169.927563 
L 241.704264 179.990982 
L 232.954723 179.990982 
L 232.954723 169.927563 
L 221.681416 169.927563 
L 221.681416 167.489407 
z
" clip-path="url(#pe82a826cda)" style="fill: #ff0000"/>
   </g>
   <g id="patch_22">
    <path d="M 252.955752 159.356572 
Q 250.339708 163.387833 247.510913 165.426902 
Q 244.682118 167.489407 241.601175 167.489407 
Q 232.413501 167.489407 227.047459 152.208114 
Q 221.681416 136.92682 221.681416 110.793933 
Q 221.681416 84.567295 227.047459 69.309439 
Q 232.413501 54.028145 241.601175 54.028145 
Q 244.682118 54.028145 247.510913 56.090651 
Q 250.339708 58.12972 252.955752 62.160981 
L 252.955752 84.778233 
Q 250.316069 79.434468 247.755182 76.950086 
Q 245.194296 74.465704 242.365501 74.465704 
Q 237.291005 74.465704 234.383414 84.145419 
Q 231.483702 93.801697 231.483702 110.793933 
Q 231.483702 127.715856 234.383414 137.395571 
Q 237.291005 147.051849 242.365501 147.051849 
Q 245.194296 147.051849 247.755182 144.567467 
Q 250.316069 142.059647 252.955752 136.715882 
L 252.955752 159.356572 
z
" clip-path="url(#pe82a826cda)" style="fill: #0000ff"/>
   </g>
   <g id="patch_23">
    <path d="M 285.876106 191.960041 
Q 282.722038 192.10002 279.329663 192.17033 
Q 275.937288 192.24 272.320623 192.24 
Q 264.148082 192.24 259.374926 191.823257 
Q 254.60177 191.406514 254.60177 190.693832 
Q 254.60177 189.972841 259.459035 189.559293 
Q 264.323308 189.145746 272.78322 189.145746 
Q 276.042423 189.145746 279.028274 189.201994 
Q 282.021134 189.257602 284.670551 189.36754 
L 284.670551 189.984346 
Q 281.937026 189.843088 279.231536 189.773418 
Q 276.526047 189.703108 273.806539 189.703108 
Q 268.774049 189.703108 266.047532 189.960057 
Q 263.321016 190.216367 263.321016 190.693832 
Q 263.321016 191.166822 265.949406 191.42505 
Q 268.577796 191.682638 273.414033 191.682638 
Q 274.731733 191.682638 275.860188 191.667937 
Q 276.988644 191.652597 277.885801 191.620638 
L 277.885801 191.041544 
L 272.734156 191.041544 
L 272.734156 190.525728 
L 285.876106 190.525728 
L 285.876106 191.960041 
z
" clip-path="url(#pe82a826cda)" style="fill: #ffa600"/>
   </g>
   <g id="patch_24">
    <path d="M 285.876106 188.854745 
Q 283.260062 188.998988 280.431267 189.071948 
Q 277.602472 189.145746 274.521529 189.145746 
Q 265.333855 189.145746 259.967812 188.598967 
Q 254.60177 188.052187 254.60177 187.117127 
Q 254.60177 186.178712 259.967812 185.632771 
Q 265.333855 185.085992 274.521529 185.085992 
Q 277.602472 185.085992 280.431267 185.15979 
Q 283.260062 185.23275 285.876106 185.376993 
L 285.876106 186.18626 
Q 283.236423 185.995055 280.675536 185.906161 
Q 278.11465 185.817268 275.285855 185.817268 
Q 270.211359 185.817268 267.303768 186.163617 
Q 264.404056 186.509128 264.404056 187.117127 
Q 264.404056 187.72261 267.303768 188.068959 
Q 270.211359 188.41447 275.285855 188.41447 
Q 278.11465 188.41447 280.675536 188.325577 
Q 283.236423 188.235845 285.876106 188.044639 
L 285.876106 188.854745 
z
" clip-path="url(#pe82a826cda)" style="fill: #0000ff"/>
   </g>
   <g id="patch_25">
    <path d="M 254.60177 178.688098 
L 285.876106 178.688098 
L 285.876106 179.935866 
L 274.624618 179.935866 
L 274.624618 185.085992 
L 265.875077 185.085992 
L 265.875077 179.935866 
L 254.60177 179.935866 
L 254.60177 178.688098 
z
" clip-path="url(#pe82a826cda)" style="fill: #ff0000"/>
   </g>
   <g id="patch_26">
    <path d="M 276.26553 176.518155 
L 264.237923 176.518155 
L 262.338827 178.688098 
L 254.60177 178.688098 
L 265.651055 166.776384 
L 274.826821 166.776384 
L 285.876106 178.688098 
L 278.145443 178.688098 
L 276.26553 176.518155 
z
M 266.156202 174.307365 
L 274.328069 174.307365 
L 270.248529 169.569229 
L 266.156202 174.307365 
z
" clip-path="url(#pe82a826cda)" style="fill: #008000"/>
   </g>
   <g id="patch_27">
    <path d="M 318.79646 192.072507 
Q 316.180416 192.155529 313.351621 192.197523 
Q 310.522826 192.24 307.441883 192.24 
Q 298.254209 192.24 292.888166 191.925287 
Q 287.522124 191.610573 287.522124 191.072375 
Q 287.522124 190.532246 292.888166 190.218015 
Q 298.254209 189.903302 307.441883 189.903302 
Q 310.522826 189.903302 313.351621 189.945778 
Q 316.180416 189.987772 318.79646 190.070795 
L 318.79646 190.53659 
Q 316.156777 190.426537 313.59589 190.375372 
Q 311.035004 190.324207 308.206209 190.324207 
Q 303.131713 190.324207 300.224122 190.523557 
Q 297.32441 190.722425 297.32441 191.072375 
Q 297.32441 191.420876 300.224122 191.620227 
Q 303.131713 191.819095 308.206209 191.819095 
Q 311.035004 191.819095 313.59589 191.76793 
Q 316.156777 191.716282 318.79646 191.606229 
L 318.79646 192.072507 
z
" clip-path="url(#pe82a826cda)" style="fill: #0000ff"/>
   </g>
   <g id="patch_28">
    <path d="M 318.79646 189.631651 
Q 315.642392 189.767476 312.250017 189.835699 
Q 308.857642 189.903302 305.240977 189.903302 
Q 297.068436 189.903302 292.29528 189.498926 
Q 287.522124 189.094551 287.522124 188.40302 
Q 287.522124 187.703426 292.379389 187.302151 
Q 297.243662 186.900877 305.703574 186.900877 
Q 308.962777 186.900877 311.948628 186.955455 
Q 314.941488 187.009414 317.590905 187.116089 
L 317.590905 187.714589 
Q 314.85738 187.577524 312.15189 187.509921 
Q 309.446401 187.441698 306.726893 187.441698 
Q 301.694403 187.441698 298.967886 187.691022 
Q 296.24137 187.939725 296.24137 188.40302 
Q 296.24137 188.861973 298.86976 189.112537 
Q 301.49815 189.362481 306.334387 189.362481 
Q 307.652087 189.362481 308.780542 189.348216 
Q 309.908998 189.333331 310.806155 189.302321 
L 310.806155 188.740413 
L 305.65451 188.740413 
L 305.65451 188.239905 
L 318.79646 188.239905 
L 318.79646 189.631651 
z
" clip-path="url(#pe82a826cda)" style="fill: #ffa600"/>
   </g>
   <g id="patch_29">
    <path d="M 287.522124 183.871824 
L 318.79646 183.871824 
L 318.79646 184.462574 
L 307.544972 184.462574 
L 307.544972 186.900877 
L 298.795431 186.900877 
L 298.795431 184.462574 
L 287.522124 184.462574 
L 287.522124 183.871824 
z
" clip-path="url(#pe82a826cda)" style="fill: #ff0000"/>
   </g>
   <g id="patch_30">
    <path d="M 309.185884 182.741545 
L 297.158277 182.741545 
L 295.259181 183.871824 
L 287.522124 183.871824 
L 298.571409 177.667257 
L 307.747175 177.667257 
L 318.79646 183.871824 
L 311.065797 183.871824 
L 309.185884 182.741545 
z
M 299.076556 181.58999 
L 307.248423 181.58999 
L 303.168883 179.121993 
L 299.076556 181.58999 
z
" clip-path="url(#pe82a826cda)" style="fill: #008000"/>
   </g>
   <g id="patch_31">
    <path d="M 351.716814 192.199417 
Q 348.562746 192.219709 345.170371 192.229901 
Q 341.777996 192.24 338.161331 192.24 
Q 329.98879 192.24 325.215634 192.179589 
Q 320.442478 192.119178 320.442478 192.015867 
Q 320.442478 191.911352 325.299743 191.851404 
Q 330.164016 191.791456 338.623928 191.791456 
Q 341.883131 191.791456 344.868982 191.79961 
Q 347.861842 191.807671 350.511259 191.823607 
L 350.511259 191.91302 
Q 347.777734 191.892543 345.072244 191.882444 
Q 342.366755 191.872251 339.647247 191.872251 
Q 334.614757 191.872251 331.88824 191.909499 
Q 329.161724 191.946654 329.161724 192.015867 
Q 329.161724 192.084432 331.790114 192.121865 
Q 334.418504 192.159205 339.254741 192.159205 
Q 340.572441 192.159205 341.700896 192.157074 
Q 342.829351 192.15485 343.726509 192.150217 
L 343.726509 192.066271 
L 338.574864 192.066271 
L 338.574864 191.991499 
L 351.716814 191.991499 
L 351.716814 192.199417 
z
" clip-path="url(#pe82a826cda)" style="fill: #ffa600"/>
   </g>
   <g id="patch_32">
    <path d="M 320.442478 191.323288 
L 351.716814 191.323288 
L 351.716814 191.414594 
L 340.465326 191.414594 
L 340.465326 191.791456 
L 331.715785 191.791456 
L 331.715785 191.414594 
L 320.442478 191.414594 
L 320.442478 191.323288 
z
" clip-path="url(#pe82a826cda)" style="fill: #ff0000"/>
   </g>
   <g id="patch_33">
    <path d="M 342.106238 191.234769 
L 330.078631 191.234769 
L 328.179535 191.323288 
L 320.442478 191.323288 
L 331.491763 190.837366 
L 340.667529 190.837366 
L 351.716814 191.323288 
L 343.986151 191.323288 
L 342.106238 191.234769 
z
M 331.99691 191.144582 
L 340.168777 191.144582 
L 336.089237 190.951296 
L 331.99691 191.144582 
z
" clip-path="url(#pe82a826cda)" style="fill: #008000"/>
   </g>
   <g id="patch_34">
    <path d="M 351.716814 190.791282 
Q 349.10077 190.814125 346.271975 190.825679 
Q 343.44318 190.837366 340.362237 190.837366 
Q 331.174563 190.837366 325.80852 190.750777 
Q 320.442478 190.664187 320.442478 190.516109 
Q 320.442478 190.367499 325.80852 190.281042 
Q 331.174563 190.194453 340.362237 190.194453 
Q 343.44318 190.194453 346.271975 190.20614 
Q 349.10077 190.217694 351.716814 190.240537 
L 351.716814 190.368694 
Q 349.077131 190.338415 346.516244 190.324337 
Q 343.955358 190.31026 341.126563 190.31026 
Q 336.052067 190.31026 333.144476 190.365109 
Q 330.244764 190.419825 330.244764 190.516109 
Q 330.244764 190.611995 333.144476 190.666843 
Q 336.052067 190.721559 341.126563 190.721559 
Q 343.955358 190.721559 346.516244 190.707482 
Q 349.077131 190.693272 351.716814 190.662992 
L 351.716814 190.791282 
z
" clip-path="url(#pe82a826cda)" style="fill: #0000ff"/>
   </g>
   <g id="patch_35">
    <path d="M 384.637168 191.840139 
Q 382.021124 192.038341 379.192329 192.138594 
Q 376.363534 192.24 373.282591 192.24 
Q 364.094917 192.24 358.728874 191.488676 
Q 353.362832 190.737352 353.362832 189.452496 
Q 353.362832 188.163031 358.728874 187.412859 
Q 364.094917 186.661535 373.282591 186.661535 
Q 376.363534 186.661535 379.192329 186.762941 
Q 382.021124 186.863194 384.637168 187.061396 
L 384.637168 188.173402 
Q 381.997485 187.910669 379.436598 187.788521 
Q 376.875712 187.666373 374.046917 187.666373 
Q 368.972421 187.666373 366.06483 188.142289 
Q 363.165118 188.617052 363.165118 189.452496 
Q 363.165118 190.284484 366.06483 190.760399 
Q 368.972421 191.235162 374.046917 191.235162 
Q 376.875712 191.235162 379.436598 191.113014 
Q 381.997485 190.989714 384.637168 190.726981 
L 384.637168 191.840139 
z
" clip-path="url(#pe82a826cda)" style="fill: #0000ff"/>
   </g>
   <g id="patch_36">
    <path d="M 384.637168 185.898903 
Q 381.4831 186.280219 378.090725 186.471748 
Q 374.698349 186.661535 371.081685 186.661535 
Q 362.909144 186.661535 358.135988 185.526293 
Q 353.362832 184.391051 353.362832 182.449647 
Q 353.362832 180.485609 358.220097 179.359072 
Q 363.08437 178.232536 371.544282 178.232536 
Q 374.803485 178.232536 377.789336 178.385759 
Q 380.782196 178.537241 383.431613 178.836722 
L 383.431613 180.51695 
Q 380.698088 180.132151 377.992598 179.942364 
Q 375.287109 179.750835 372.567601 179.750835 
Q 367.535111 179.750835 364.808594 180.450785 
Q 362.082078 181.148994 362.082078 182.449647 
Q 362.082078 183.738112 364.710468 184.441545 
Q 367.338858 185.143236 372.175095 185.143236 
Q 373.492795 185.143236 374.62125 185.103189 
Q 375.749705 185.061401 376.646863 184.974342 
L 376.646863 183.396843 
L 371.495218 183.396843 
L 371.495218 181.99172 
L 384.637168 181.99172 
L 384.637168 185.898903 
z
" clip-path="url(#pe82a826cda)" style="fill: #ffa600"/>
   </g>
   <g id="patch_37">
    <path d="M 353.362832 168.454897 
L 384.637168 168.454897 
L 384.637168 170.361809 
L 373.38568 170.361809 
L 373.38568 178.232536 
L 364.636139 178.232536 
L 364.636139 170.361809 
L 353.362832 170.361809 
L 353.362832 168.454897 
z
" clip-path="url(#pe82a826cda)" style="fill: #ff0000"/>
   </g>
   <g id="patch_38">
    <path d="M 375.026592 160.565212 
L 362.998985 160.565212 
L 361.099889 168.454897 
L 353.362832 168.454897 
L 364.412117 125.145167 
L 373.587883 125.145167 
L 384.637168 168.454897 
L 376.906505 168.454897 
L 375.026592 160.565212 
z
M 364.917264 152.527015 
L 373.089131 152.527015 
L 369.009591 135.299656 
L 364.917264 152.527015 
z
" clip-path="url(#pe82a826cda)" style="fill: #008000"/>
   </g>
   <g id="patch_39">
    <path d="M 417.557522 191.972459 
Q 414.941478 192.105073 412.112683 192.172151 
Q 409.283888 192.24 406.202945 192.24 
Q 397.015271 192.24 391.649228 191.737301 
Q 386.283186 191.234603 386.283186 190.374926 
Q 386.283186 189.512166 391.649228 189.010238 
Q 397.015271 188.50754 406.202945 188.50754 
Q 409.283888 188.50754 412.112683 188.575389 
Q 414.941478 188.642467 417.557522 188.77508 
L 417.557522 189.519105 
Q 414.917839 189.343315 412.356952 189.261588 
Q 409.796066 189.179861 406.967271 189.179861 
Q 401.892775 189.179861 398.985184 189.498288 
Q 396.085472 189.815944 396.085472 190.374926 
Q 396.085472 190.931596 398.985184 191.250023 
Q 401.892775 191.567679 406.967271 191.567679 
Q 409.796066 191.567679 412.356952 191.485952 
Q 414.917839 191.403454 417.557522 191.227664 
L 417.557522 191.972459 
z
" clip-path="url(#pe82a826cda)" style="fill: #0000ff"/>
   </g>
   <g id="patch_40">
    <path d="M 407.946946 187.806768 
L 395.919339 187.806768 
L 394.020243 188.50754 
L 386.283186 188.50754 
L 397.332471 184.660714 
L 406.508237 184.660714 
L 417.557522 188.50754 
L 409.826859 188.50754 
L 407.946946 187.806768 
z
M 397.837618 187.092805 
L 406.009485 187.092805 
L 401.929945 185.562649 
L 397.837618 187.092805 
z
" clip-path="url(#pe82a826cda)" style="fill: #008000"/>
   </g>
   <g id="patch_41">
    <path d="M 386.283186 180.335635 
L 417.557522 180.335635 
L 417.557522 181.179146 
L 406.306034 181.179146 
L 406.306034 184.660714 
L 397.556493 184.660714 
L 397.556493 181.179146 
L 386.283186 181.179146 
L 386.283186 180.335635 
z
" clip-path="url(#pe82a826cda)" style="fill: #ff0000"/>
   </g>
   <g id="patch_42">
    <path d="M 417.557522 179.35357 
Q 414.403454 179.844603 411.011079 180.09124 
Q 407.618703 180.335635 404.002039 180.335635 
Q 395.829498 180.335635 391.056342 178.873748 
Q 386.283186 177.411861 386.283186 174.911856 
Q 386.283186 172.382702 391.140451 170.932026 
Q 396.004724 169.48135 404.464635 169.48135 
Q 407.723839 169.48135 410.70969 169.678659 
Q 413.70255 169.873727 416.351967 170.259378 
L 416.351967 172.42306 
Q 413.618442 171.927544 410.912952 171.683148 
Q 408.207463 171.436511 405.487955 171.436511 
Q 400.455465 171.436511 397.728948 172.337859 
Q 395.002432 173.236964 395.002432 174.911856 
Q 395.002432 176.571052 397.630822 177.476884 
Q 400.259212 178.380474 405.095449 178.380474 
Q 406.413149 178.380474 407.541604 178.328904 
Q 408.670059 178.275092 409.567217 178.162984 
L 409.567217 176.131589 
L 404.415572 176.131589 
L 404.415572 174.322168 
L 417.557522 174.322168 
L 417.557522 179.35357 
z
" clip-path="url(#pe82a826cda)" style="fill: #ffa600"/>
   </g>
   <g id="patch_43">
    <path d="M 440.8673 191.077341 
L 428.839693 191.077341 
L 426.940597 192.24 
L 419.20354 192.24 
L 430.252825 185.857688 
L 439.428591 185.857688 
L 450.477876 192.24 
L 442.747213 192.24 
L 440.8673 191.077341 
z
M 430.757972 189.892798 
L 438.929839 189.892798 
L 434.850299 187.354098 
L 430.757972 189.892798 
z
" clip-path="url(#pe82a826cda)" style="fill: #008000"/>
   </g>
   <g id="patch_44">
    <path d="M 450.477876 185.259612 
Q 447.323808 185.55865 443.931433 185.708852 
Q 440.539057 185.857688 436.922393 185.857688 
Q 428.749852 185.857688 423.976696 184.967401 
Q 419.20354 184.077113 419.20354 182.554611 
Q 419.20354 181.014358 424.060805 180.130898 
Q 428.925078 179.247437 437.384989 179.247437 
Q 440.644193 179.247437 443.630044 179.367599 
Q 446.622904 179.486395 449.272321 179.721256 
L 449.272321 181.038937 
Q 446.538796 180.737167 443.833306 180.588331 
Q 441.127817 180.438129 438.408309 180.438129 
Q 433.375819 180.438129 430.649302 180.987049 
Q 427.922786 181.534603 427.922786 182.554611 
Q 427.922786 183.565061 430.551176 184.116711 
Q 433.179565 184.666997 438.015803 184.666997 
Q 439.333503 184.666997 440.461958 184.635591 
Q 441.590413 184.602819 442.487571 184.534546 
L 442.487571 183.297428 
L 437.335926 183.297428 
L 437.335926 182.195492 
L 450.477876 182.195492 
L 450.477876 185.259612 
z
" clip-path="url(#pe82a826cda)" style="fill: #ffa600"/>
   </g>
   <g id="patch_45">
    <path d="M 419.20354 171.953367 
L 450.477876 171.953367 
L 450.477876 173.375914 
L 439.226388 173.375914 
L 439.226388 179.247437 
L 430.476847 179.247437 
L 430.476847 173.375914 
L 419.20354 173.375914 
L 419.20354 171.953367 
z
" clip-path="url(#pe82a826cda)" style="fill: #ff0000"/>
   </g>
   <g id="patch_46">
    <path d="M 450.477876 161.485782 
Q 447.861832 166.674325 445.033037 169.298763 
Q 442.204242 171.953367 439.123298 171.953367 
Q 429.935625 171.953367 424.569582 152.285167 
Q 419.20354 132.616967 419.20354 98.981932 
Q 419.20354 65.226234 424.569582 45.5882 
Q 429.935625 25.92 439.123298 25.92 
Q 442.204242 25.92 445.033037 28.574604 
Q 447.861832 31.199041 450.477876 36.387585 
L 450.477876 65.497727 
Q 447.838193 58.61989 445.277306 55.4223 
Q 442.71642 52.224709 439.887625 52.224709 
Q 434.813129 52.224709 431.905538 64.683247 
Q 429.005826 77.111618 429.005826 98.981932 
Q 429.005826 120.761749 431.905538 133.220286 
Q 434.813129 145.648658 439.887625 145.648658 
Q 442.71642 145.648658 445.277306 142.451067 
Q 447.838193 139.22331 450.477876 132.345474 
L 450.477876 161.485782 
z
" clip-path="url(#pe82a826cda)" style="fill: #0000ff"/>
   </g>
   <g id="patch_47">
    <path d="M 483.39823 191.771806 
Q 480.244162 192.005903 476.851787 192.123486 
Q 473.459411 192.24 469.842747 192.24 
Q 461.670206 192.24 456.89705 191.543054 
Q 452.123894 190.846109 452.123894 189.654246 
Q 452.123894 188.448487 456.981158 187.756886 
Q 461.845432 187.065285 470.305343 187.065285 
Q 473.564547 187.065285 476.550398 187.159351 
Q 479.543258 187.252349 482.192675 187.436205 
L 482.192675 188.467728 
Q 479.45915 188.231493 476.75366 188.114979 
Q 474.048171 187.997396 471.328663 187.997396 
Q 466.296173 187.997396 463.569656 188.427108 
Q 460.84314 188.855751 460.84314 189.654246 
Q 460.84314 190.445258 463.471529 190.877108 
Q 466.099919 191.307889 470.936157 191.307889 
Q 472.253857 191.307889 473.382312 191.283303 
Q 474.510767 191.257649 475.407925 191.204202 
L 475.407925 190.235747 
L 470.25628 190.235747 
L 470.25628 189.373116 
L 483.39823 189.373116 
L 483.39823 191.771806 
z
" clip-path="url(#pe82a826cda)" style="fill: #ffa600"/>
   </g>
   <g id="patch_48">
    <path d="M 473.787654 185.18793 
L 461.760047 185.18793 
L 459.860951 187.065285 
L 452.123894 187.065285 
L 463.173179 176.759708 
L 472.348945 176.759708 
L 483.39823 187.065285 
L 475.667567 187.065285 
L 473.787654 185.18793 
z
M 463.678326 183.275236 
L 471.850193 183.275236 
L 467.770653 179.175975 
L 463.678326 183.275236 
z
" clip-path="url(#pe82a826cda)" style="fill: #008000"/>
   </g>
   <g id="patch_49">
    <path d="M 483.39823 175.977003 
Q 480.782186 176.364972 477.953391 176.561212 
Q 475.124596 176.759708 472.043652 176.759708 
Q 462.855979 176.759708 457.489936 175.289035 
Q 452.123894 173.818361 452.123894 171.303329 
Q 452.123894 168.779274 457.489936 167.310856 
Q 462.855979 165.840182 472.043652 165.840182 
Q 475.124596 165.840182 477.953391 166.038678 
Q 480.782186 166.234918 483.39823 166.622888 
L 483.39823 168.799575 
Q 480.758547 168.28529 478.19766 168.046193 
Q 475.636773 167.807096 472.807979 167.807096 
Q 467.733483 167.807096 464.825892 168.738673 
Q 461.92618 169.667994 461.92618 171.303329 
Q 461.92618 172.931897 464.825892 173.863474 
Q 467.733483 174.792795 472.807979 174.792795 
Q 475.636773 174.792795 478.19766 174.553698 
Q 480.758547 174.312345 483.39823 173.79806 
L 483.39823 175.977003 
z
" clip-path="url(#pe82a826cda)" style="fill: #0000ff"/>
   </g>
   <g id="patch_50">
    <path d="M 452.123894 96.24465 
L 483.39823 96.24465 
L 483.39823 109.817718 
L 472.146742 109.817718 
L 472.146742 165.840182 
L 463.397201 165.840182 
L 463.397201 109.817718 
L 452.123894 109.817718 
L 452.123894 96.24465 
z
" clip-path="url(#pe82a826cda)" style="fill: #ff0000"/>
   </g>
   <g id="patch_51">
    <path d="M 506.708008 191.544485 
L 494.680401 191.544485 
L 492.781305 192.24 
L 485.044248 192.24 
L 496.093533 188.42203 
L 505.269299 188.42203 
L 516.318584 192.24 
L 508.587921 192.24 
L 506.708008 191.544485 
z
M 496.59868 190.835877 
L 504.770547 190.835877 
L 500.691007 189.317199 
L 496.59868 190.835877 
z
" clip-path="url(#pe82a826cda)" style="fill: #008000"/>
   </g>
   <g id="patch_52">
    <path d="M 516.318584 187.731152 
Q 513.164516 188.076591 509.772141 188.250099 
Q 506.379765 188.42203 502.763101 188.42203 
Q 494.59056 188.42203 489.817404 187.393599 
Q 485.044248 186.365169 485.044248 184.606426 
Q 485.044248 182.827178 489.901512 181.806634 
Q 494.765786 180.78609 503.225697 180.78609 
Q 506.484901 180.78609 509.470752 180.924897 
Q 512.463612 181.062126 515.113029 181.33343 
L 515.113029 182.85557 
Q 512.379504 182.506977 509.674014 182.335046 
Q 506.968525 182.161537 504.249017 182.161537 
Q 499.216527 182.161537 496.49001 182.795631 
Q 493.763493 183.428148 493.763493 184.606426 
Q 493.763493 185.773663 496.391883 186.410912 
Q 499.020273 187.046583 503.856511 187.046583 
Q 505.174211 187.046583 506.302666 187.010304 
Q 507.431121 186.972448 508.328279 186.89358 
L 508.328279 185.464503 
L 503.176634 185.464503 
L 503.176634 184.191584 
L 516.318584 184.191584 
L 516.318584 187.731152 
z
" clip-path="url(#pe82a826cda)" style="fill: #ffa600"/>
   </g>
   <g id="patch_53">
    <path d="M 516.318584 179.645348 
Q 513.70254 180.210788 510.873745 180.496795 
Q 508.04495 180.78609 504.964006 180.78609 
Q 495.776333 180.78609 490.41029 178.642678 
Q 485.044248 176.499266 485.044248 172.833767 
Q 485.044248 169.155119 490.41029 167.014994 
Q 495.776333 164.871582 504.964006 164.871582 
Q 508.04495 164.871582 510.873745 165.160877 
Q 513.70254 165.446884 516.318584 166.012325 
L 516.318584 169.184706 
Q 513.678901 168.43517 511.118014 168.086701 
Q 508.557127 167.738232 505.728333 167.738232 
Q 500.653837 167.738232 497.746246 169.095945 
Q 494.846534 170.450372 494.846534 172.833767 
Q 494.846534 175.207301 497.746246 176.565014 
Q 500.653837 177.919441 505.728333 177.919441 
Q 508.557127 177.919441 511.118014 177.570972 
Q 513.678901 177.219215 516.318584 176.469679 
L 516.318584 179.645348 
z
" clip-path="url(#pe82a826cda)" style="fill: #0000ff"/>
   </g>
   <g id="patch_54">
    <path d="M 485.044248 109.492118 
L 516.318584 109.492118 
L 516.318584 120.292656 
L 505.067096 120.292656 
L 505.067096 164.871582 
L 496.317555 164.871582 
L 496.317555 120.292656 
L 485.044248 120.292656 
L 485.044248 109.492118 
z
" clip-path="url(#pe82a826cda)" style="fill: #ff0000"/>
   </g>
   <g id="patch_55">
    <path d="M 539.628362 191.736387 
L 527.600755 191.736387 
L 525.701659 192.24 
L 517.964602 192.24 
L 529.013887 189.475463 
L 538.189653 189.475463 
L 549.238938 192.24 
L 541.508275 192.24 
L 539.628362 191.736387 
z
M 529.519034 191.223295 
L 537.690901 191.223295 
L 533.611361 190.123642 
L 529.519034 191.223295 
z
" clip-path="url(#pe82a826cda)" style="fill: #008000"/>
   </g>
   <g id="patch_56">
    <path d="M 549.238938 188.99776 
Q 546.08487 189.236611 542.692495 189.356582 
Q 539.300119 189.475463 535.683455 189.475463 
Q 527.510914 189.475463 522.737758 188.764362 
Q 517.964602 188.053261 517.964602 186.837192 
Q 517.964602 185.606944 522.821866 184.901297 
Q 527.68614 184.19565 536.146051 184.19565 
Q 539.405255 184.19565 542.391106 184.291626 
Q 545.383966 184.386512 548.033383 184.574103 
L 548.033383 185.626576 
Q 545.299858 185.385543 542.594368 185.266663 
Q 539.888879 185.146692 537.169371 185.146692 
Q 532.136881 185.146692 529.410364 185.585131 
Q 526.683847 186.02248 526.683847 186.837192 
Q 526.683847 187.644269 529.312237 188.08489 
Q 531.940627 188.52442 536.776865 188.52442 
Q 538.094565 188.52442 539.22302 188.499335 
Q 540.351475 188.47316 541.248633 188.418628 
L 541.248633 187.430503 
L 536.096988 187.430503 
L 536.096988 186.550352 
L 549.238938 186.550352 
L 549.238938 188.99776 
z
" clip-path="url(#pe82a826cda)" style="fill: #ffa600"/>
   </g>
   <g id="patch_57">
    <path d="M 549.238938 182.868625 
Q 546.622894 183.526401 543.794099 183.859113 
Q 540.965304 184.19565 537.88436 184.19565 
Q 528.696687 184.19565 523.330644 181.702219 
Q 517.964602 179.208789 517.964602 174.944718 
Q 517.964602 170.665349 523.330644 168.175743 
Q 528.696687 165.682313 537.88436 165.682313 
Q 540.965304 165.682313 543.794099 166.01885 
Q 546.622894 166.351562 549.238938 167.009338 
L 549.238938 170.699768 
Q 546.599255 169.827832 544.038368 169.422459 
Q 541.477481 169.017085 538.648687 169.017085 
Q 533.574191 169.017085 530.6666 170.596512 
Q 527.766888 172.172115 527.766888 174.944718 
Q 527.766888 177.705848 530.6666 179.285275 
Q 533.574191 180.860878 538.648687 180.860878 
Q 541.477481 180.860878 544.038368 180.455504 
Q 546.599255 180.046306 549.238938 179.174371 
L 549.238938 182.868625 
z
" clip-path="url(#pe82a826cda)" style="fill: #0000ff"/>
   </g>
   <g id="patch_58">
    <path d="M 517.964602 142.636949 
L 549.238938 142.636949 
L 549.238938 147.131437 
L 537.98745 147.131437 
L 537.98745 165.682313 
L 529.237909 165.682313 
L 529.237909 147.131437 
L 517.964602 147.131437 
L 517.964602 142.636949 
z
" clip-path="url(#pe82a826cda)" style="fill: #ff0000"/>
   </g>
   <g id="patch_59">
    <path d="M 572.548716 191.990782 
L 560.521109 191.990782 
L 558.622013 192.24 
L 550.884956 192.24 
L 561.934241 190.871941 
L 571.110007 190.871941 
L 582.159292 192.24 
L 574.428629 192.24 
L 572.548716 191.990782 
z
M 562.439387 191.736873 
L 570.611255 191.736873 
L 566.531715 191.192699 
L 562.439387 191.736873 
z
" clip-path="url(#pe82a826cda)" style="fill: #008000"/>
   </g>
   <g id="patch_60">
    <path d="M 582.159292 190.744681 
Q 579.005224 190.808311 575.612849 190.840272 
Q 572.220473 190.871941 568.603809 190.871941 
Q 560.431268 190.871941 555.658112 190.682504 
Q 550.884956 190.493066 550.884956 190.169104 
Q 550.884956 189.841365 555.74222 189.65338 
Q 560.606494 189.465395 569.066405 189.465395 
Q 572.325609 189.465395 575.31146 189.490963 
Q 578.30432 189.516241 580.953737 189.566216 
L 580.953737 189.846595 
Q 578.220212 189.782384 575.514722 189.750714 
Q 572.809233 189.718754 570.089725 189.718754 
Q 565.057235 189.718754 562.330718 189.835554 
Q 559.604201 189.952064 559.604201 190.169104 
Q 559.604201 190.38411 562.232591 190.501492 
Q 564.860981 190.618583 569.697219 190.618583 
Q 571.014919 190.618583 572.143374 190.6119 
Q 573.271829 190.604927 574.168986 190.5904 
L 574.168986 190.327163 
L 569.017342 190.327163 
L 569.017342 190.09269 
L 582.159292 190.09269 
L 582.159292 190.744681 
z
" clip-path="url(#pe82a826cda)" style="fill: #ffa600"/>
   </g>
   <g id="patch_61">
    <path d="M 550.884956 187.222619 
L 582.159292 187.222619 
L 582.159292 187.660023 
L 570.907804 187.660023 
L 570.907804 189.465395 
L 562.158263 189.465395 
L 562.158263 187.660023 
L 550.884956 187.660023 
L 550.884956 187.222619 
z
" clip-path="url(#pe82a826cda)" style="fill: #ff0000"/>
   </g>
   <g id="patch_62">
    <path d="M 582.159292 187.033267 
Q 579.543248 187.127124 576.714453 187.174599 
Q 573.885658 187.222619 570.804714 187.222619 
Q 561.617041 187.222619 556.250998 186.866834 
Q 550.884956 186.511049 550.884956 185.902613 
Q 550.884956 185.291995 556.250998 184.936756 
Q 561.617041 184.580971 570.804714 184.580971 
Q 573.885658 184.580971 576.714453 184.628991 
Q 579.543248 184.676465 582.159292 184.770323 
L 582.159292 185.296906 
Q 579.519609 185.172491 576.958722 185.114648 
Q 574.397835 185.056806 571.569041 185.056806 
Q 566.494545 185.056806 563.586954 185.282173 
Q 560.687242 185.506994 560.687242 185.902613 
Q 560.687242 186.296596 563.586954 186.521963 
Q 566.494545 186.746784 571.569041 186.746784 
Q 574.397835 186.746784 576.958722 186.688942 
Q 579.519609 186.630554 582.159292 186.506138 
L 582.159292 187.033267 
z
" clip-path="url(#pe82a826cda)" style="fill: #0000ff"/>
   </g>
   <g id="patch_63">
    <path d="M 615.079646 192.113061 
Q 611.925578 192.176531 608.533203 192.20841 
Q 605.140827 192.24 601.524163 192.24 
Q 593.351622 192.24 588.578466 192.051041 
Q 583.80531 191.862082 583.80531 191.538939 
Q 583.80531 191.212029 588.662574 191.024519 
Q 593.526848 190.837009 601.986759 190.837009 
Q 605.245963 190.837009 608.231814 190.862513 
Q 611.224674 190.887727 613.874091 190.937575 
L 613.874091 191.217246 
Q 611.140566 191.153197 608.435076 191.121607 
Q 605.729587 191.089727 603.010079 191.089727 
Q 597.977589 191.089727 595.251072 191.206233 
Q 592.524555 191.322448 592.524555 191.538939 
Q 592.524555 191.753402 595.152945 191.870487 
Q 597.781335 191.987282 602.617573 191.987282 
Q 603.935272 191.987282 605.063728 191.980616 
Q 606.192183 191.973661 607.08934 191.95917 
L 607.08934 191.696598 
L 601.937696 191.696598 
L 601.937696 191.462718 
L 615.079646 191.462718 
L 615.079646 192.113061 
z
" clip-path="url(#pe82a826cda)" style="fill: #ffa600"/>
   </g>
   <g id="patch_64">
    <path d="M 615.079646 190.715504 
Q 612.463602 190.775732 609.634807 190.806195 
Q 606.806012 190.837009 603.725068 190.837009 
Q 594.537395 190.837009 589.171352 190.608706 
Q 583.80531 190.380402 583.80531 189.989975 
Q 583.80531 189.598147 589.171352 189.370193 
Q 594.537395 189.141889 603.725068 189.141889 
Q 606.806012 189.141889 609.634807 189.172703 
Q 612.463602 189.203167 615.079646 189.263394 
L 615.079646 189.601298 
Q 612.439963 189.521462 609.879076 189.484345 
Q 607.318189 189.447228 604.489395 189.447228 
Q 599.414899 189.447228 596.507308 189.591844 
Q 593.607596 189.736109 593.607596 189.989975 
Q 593.607596 190.242789 596.507308 190.387405 
Q 599.414899 190.531671 604.489395 190.531671 
Q 607.318189 190.531671 609.879076 190.494554 
Q 612.439963 190.457087 615.079646 190.377251 
L 615.079646 190.715504 
z
" clip-path="url(#pe82a826cda)" style="fill: #0000ff"/>
   </g>
   <g id="patch_65">
    <path d="M 605.46907 188.73366 
L 593.441463 188.73366 
L 591.542367 189.141889 
L 583.80531 189.141889 
L 594.854595 186.900948 
L 604.030361 186.900948 
L 615.079646 189.141889 
L 607.348983 189.141889 
L 605.46907 188.73366 
z
M 595.359741 188.317745 
L 603.531609 188.317745 
L 599.452069 187.426364 
L 595.359741 188.317745 
z
" clip-path="url(#pe82a826cda)" style="fill: #008000"/>
   </g>
   <g id="patch_66">
    <path d="M 583.80531 183.8259 
L 615.079646 183.8259 
L 615.079646 184.42562 
L 603.828158 184.42562 
L 603.828158 186.900948 
L 595.078617 186.900948 
L 595.078617 184.42562 
L 583.80531 184.42562 
L 583.80531 183.8259 
z
" clip-path="url(#pe82a826cda)" style="fill: #ff0000"/>
   </g>
   <g id="patch_67">
    <path d="M 638.389424 191.750147 
L 626.361817 191.750147 
L 624.462721 192.24 
L 616.725664 192.24 
L 627.774949 189.550994 
L 636.950715 189.550994 
L 648 192.24 
L 640.269337 192.24 
L 638.389424 191.750147 
z
M 628.280095 191.251073 
L 636.451963 191.251073 
L 632.372423 190.181464 
L 628.280095 191.251073 
z
" clip-path="url(#pe82a826cda)" style="fill: #008000"/>
   </g>
   <g id="patch_68">
    <path d="M 648 189.301212 
Q 644.845932 189.426103 641.453557 189.488834 
Q 638.061181 189.550994 634.444517 189.550994 
Q 626.271976 189.550994 621.49882 189.179173 
Q 616.725664 188.807352 616.725664 188.171493 
Q 616.725664 187.52822 621.582928 187.15925 
Q 626.447202 186.790281 634.907113 186.790281 
Q 638.166317 186.790281 641.152168 186.840465 
Q 644.145028 186.89008 646.794445 186.988167 
L 646.794445 187.538485 
Q 644.06092 187.412454 641.35543 187.350293 
Q 638.649941 187.287563 635.930433 187.287563 
Q 630.897943 187.287563 628.171426 187.516814 
Q 625.444909 187.745496 625.444909 188.171493 
Q 625.444909 188.593498 628.073299 188.82389 
Q 630.701689 189.053712 635.537927 189.053712 
Q 636.855626 189.053712 637.984082 189.040596 
Q 639.112537 189.026909 640.009694 188.998395 
L 640.009694 188.481724 
L 634.85805 188.481724 
L 634.85805 188.02151 
L 648 188.02151 
L 648 189.301212 
z
" clip-path="url(#pe82a826cda)" style="fill: #ffa600"/>
   </g>
   <g id="patch_69">
    <path d="M 648 186.316767 
Q 645.383956 186.551477 642.555161 186.670197 
Q 639.726366 186.790281 636.645422 186.790281 
Q 627.457749 186.790281 622.091706 185.900567 
Q 616.725664 185.010853 616.725664 183.489332 
Q 616.725664 181.962353 622.091706 181.074004 
Q 627.457749 180.184289 636.645422 180.184289 
Q 639.726366 180.184289 642.555161 180.304374 
Q 645.383956 180.423093 648 180.657803 
L 648 181.974635 
Q 645.360317 181.663508 642.79943 181.518861 
Q 640.238543 181.374214 637.409749 181.374214 
Q 632.335253 181.374214 629.427662 181.937791 
Q 626.52795 182.500003 626.52795 183.489332 
Q 626.52795 184.474568 629.427662 185.038144 
Q 632.335253 185.600356 637.409749 185.600356 
Q 640.238543 185.600356 642.79943 185.45571 
Q 645.360317 185.309698 648 184.998571 
L 648 186.316767 
z
" clip-path="url(#pe82a826cda)" style="fill: #0000ff"/>
   </g>
   <g id="patch_70">
    <path d="M 616.725664 172.619219 
L 648 172.619219 
L 648 174.094619 
L 636.748512 174.094619 
L 636.748512 180.184289 
L 627.998971 180.184289 
L 627.998971 174.094619 
L 616.725664 174.094619 
L 616.725664 172.619219 
z
" clip-path="url(#pe82a826cda)" style="fill: #ff0000"/>
   </g>
   <g id="matplotlib.axis_1">
    <g id="xtick_1">
     <g id="line2d_2">
      <defs>
       <path id="m36dc703538" d="M 0 0 
L 0 3.5 
" style="stroke: #000000; stroke-width: 0.8"/>
      </defs>
      <g>
       <use xlink:href="#m36dc703538" x="105.637168" y="192.24" style="stroke: #000000; stroke-width: 0.8"/>
      </g>
     </g>
     <g id="text_1">
      <!-- 0 -->
      <g transform="translate(102.455918 206.838437) scale(0.1 -0.1)">
       <defs>
        <path id="DejaVuSans-30" d="M 2034 4250 
Q 1547 4250 1301 3770 
Q 1056 3291 1056 2328 
Q 1056 1369 1301 889 
Q 1547 409 2034 409 
Q 2525 409 2770 889 
Q 3016 1369 3016 2328 
Q 3016 3291 2770 3770 
Q 2525 4250 2034 4250 
z
M 2034 4750 
Q 2819 4750 3233 4129 
Q 3647 3509 3647 2328 
Q 3647 1150 3233 529 
Q 2819 -91 2034 -91 
Q 1250 -91 836 529 
Q 422 1150 422 2328 
Q 422 3509 836 4129 
Q 1250 4750 2034 4750 
z
" transform="scale(0.015625)"/>
       </defs>
       <use xlink:href="#DejaVuSans-30"/>
      </g>
     </g>
    </g>
    <g id="xtick_2">
     <g id="line2d_3">
      <g>
       <use xlink:href="#m36dc703538" x="171.477876" y="192.24" style="stroke: #000000; stroke-width: 0.8"/>
      </g>
     </g>
     <g id="text_2">
      <!-- 2 -->
      <g transform="translate(168.296626 206.838437) scale(0.1 -0.1)">
       <defs>
        <path id="DejaVuSans-32" d="M 1228 531 
L 3431 531 
L 3431 0 
L 469 0 
L 469 531 
Q 828 903 1448 1529 
Q 2069 2156 2228 2338 
Q 2531 2678 2651 2914 
Q 2772 3150 2772 3378 
Q 2772 3750 2511 3984 
Q 2250 4219 1831 4219 
Q 1534 4219 1204 4116 
Q 875 4013 500 3803 
L 500 4441 
Q 881 4594 1212 4672 
Q 1544 4750 1819 4750 
Q 2544 4750 2975 4387 
Q 3406 4025 3406 3419 
Q 3406 3131 3298 2873 
Q 3191 2616 2906 2266 
Q 2828 2175 2409 1742 
Q 1991 1309 1228 531 
z
" transform="scale(0.015625)"/>
       </defs>
       <use xlink:href="#DejaVuSans-32"/>
      </g>
     </g>
    </g>
    <g id="xtick_3">
     <g id="line2d_4">
      <g>
       <use xlink:href="#m36dc703538" x="237.318584" y="192.24" style="stroke: #000000; stroke-width: 0.8"/>
      </g>
     </g>
     <g id="text_3">
      <!-- 4 -->
      <g transform="translate(234.137334 206.838437) scale(0.1 -0.1)">
       <defs>
        <path id="DejaVuSans-34" d="M 2419 4116 
L 825 1625 
L 2419 1625 
L 2419 4116 
z
M 2253 4666 
L 3047 4666 
L 3047 1625 
L 3713 1625 
L 3713 1100 
L 3047 1100 
L 3047 0 
L 2419 0 
L 2419 1100 
L 313 1100 
L 313 1709 
L 2253 4666 
z
" transform="scale(0.015625)"/>
       </defs>
       <use xlink:href="#DejaVuSans-34"/>
      </g>
     </g>
    </g>
    <g id="xtick_4">
     <g id="line2d_5">
      <g>
       <use xlink:href="#m36dc703538" x="303.159292" y="192.24" style="stroke: #000000; stroke-width: 0.8"/>
      </g>
     </g>
     <g id="text_4">
      <!-- 6 -->
      <g transform="translate(299.978042 206.838437) scale(0.1 -0.1)">
       <defs>
        <path id="DejaVuSans-36" d="M 2113 2584 
Q 1688 2584 1439 2293 
Q 1191 2003 1191 1497 
Q 1191 994 1439 701 
Q 1688 409 2113 409 
Q 2538 409 2786 701 
Q 3034 994 3034 1497 
Q 3034 2003 2786 2293 
Q 2538 2584 2113 2584 
z
M 3366 4563 
L 3366 3988 
Q 3128 4100 2886 4159 
Q 2644 4219 2406 4219 
Q 1781 4219 1451 3797 
Q 1122 3375 1075 2522 
Q 1259 2794 1537 2939 
Q 1816 3084 2150 3084 
Q 2853 3084 3261 2657 
Q 3669 2231 3669 1497 
Q 3669 778 3244 343 
Q 2819 -91 2113 -91 
Q 1303 -91 875 529 
Q 447 1150 447 2328 
Q 447 3434 972 4092 
Q 1497 4750 2381 4750 
Q 2619 4750 2861 4703 
Q 3103 4656 3366 4563 
z
" transform="scale(0.015625)"/>
       </defs>
       <use xlink:href="#DejaVuSans-36"/>
      </g>
     </g>
    </g>
    <g id="xtick_5">
     <g id="line2d_6">
      <g>
       <use xlink:href="#m36dc703538" x="369" y="192.24" style="stroke: #000000; stroke-width: 0.8"/>
      </g>
     </g>
     <g id="text_5">
      <!-- 8 -->
      <g transform="translate(365.81875 206.838437) scale(0.1 -0.1)">
       <defs>
        <path id="DejaVuSans-38" d="M 2034 2216 
Q 1584 2216 1326 1975 
Q 1069 1734 1069 1313 
Q 1069 891 1326 650 
Q 1584 409 2034 409 
Q 2484 409 2743 651 
Q 3003 894 3003 1313 
Q 3003 1734 2745 1975 
Q 2488 2216 2034 2216 
z
M 1403 2484 
Q 997 2584 770 2862 
Q 544 3141 544 3541 
Q 544 4100 942 4425 
Q 1341 4750 2034 4750 
Q 2731 4750 3128 4425 
Q 3525 4100 3525 3541 
Q 3525 3141 3298 2862 
Q 3072 2584 2669 2484 
Q 3125 2378 3379 2068 
Q 3634 1759 3634 1313 
Q 3634 634 3220 271 
Q 2806 -91 2034 -91 
Q 1263 -91 848 271 
Q 434 634 434 1313 
Q 434 1759 690 2068 
Q 947 2378 1403 2484 
z
M 1172 3481 
Q 1172 3119 1398 2916 
Q 1625 2713 2034 2713 
Q 2441 2713 2670 2916 
Q 2900 3119 2900 3481 
Q 2900 3844 2670 4047 
Q 2441 4250 2034 4250 
Q 1625 4250 1398 4047 
Q 1172 3844 1172 3481 
z
" transform="scale(0.015625)"/>
       </defs>
       <use xlink:href="#DejaVuSans-38"/>
      </g>
     </g>
    </g>
    <g id="xtick_6">
     <g id="line2d_7">
      <g>
       <use xlink:href="#m36dc703538" x="434.840708" y="192.24" style="stroke: #000000; stroke-width: 0.8"/>
      </g>
     </g>
     <g id="text_6">
      <!-- 10 -->
      <g transform="translate(428.478208 206.838437) scale(0.1 -0.1)">
       <defs>
        <path id="DejaVuSans-31" d="M 794 531 
L 1825 531 
L 1825 4091 
L 703 3866 
L 703 4441 
L 1819 4666 
L 2450 4666 
L 2450 531 
L 3481 531 
L 3481 0 
L 794 0 
L 794 531 
z
" transform="scale(0.015625)"/>
       </defs>
       <use xlink:href="#DejaVuSans-31"/>
       <use xlink:href="#DejaVuSans-30" x="63.623047"/>
      </g>
     </g>
    </g>
    <g id="xtick_7">
     <g id="line2d_8">
      <g>
       <use xlink:href="#m36dc703538" x="500.681416" y="192.24" style="stroke: #000000; stroke-width: 0.8"/>
      </g>
     </g>
     <g id="text_7">
      <!-- 12 -->
      <g transform="translate(494.318916 206.838437) scale(0.1 -0.1)">
       <use xlink:href="#DejaVuSans-31"/>
       <use xlink:href="#DejaVuSans-32" x="63.623047"/>
      </g>
     </g>
    </g>
    <g id="xtick_8">
     <g id="line2d_9">
      <g>
       <use xlink:href="#m36dc703538" x="566.522124" y="192.24" style="stroke: #000000; stroke-width: 0.8"/>
      </g>
     </g>
     <g id="text_8">
      <!-- 14 -->
      <g transform="translate(560.159624 206.838437) scale(0.1 -0.1)">
       <use xlink:href="#DejaVuSans-31"/>
       <use xlink:href="#DejaVuSans-34" x="63.623047"/>
      </g>
     </g>
    </g>
    <g id="xtick_9">
     <g id="line2d_10">
      <g>
       <use xlink:href="#m36dc703538" x="632.362832" y="192.24" style="stroke: #000000; stroke-width: 0.8"/>
      </g>
     </g>
     <g id="text_9">
      <!-- 16 -->
      <g transform="translate(626.000332 206.838437) scale(0.1 -0.1)">
       <use xlink:href="#DejaVuSans-31"/>
       <use xlink:href="#DejaVuSans-36" x="63.623047"/>
      </g>
     </g>
    </g>
   </g>
   <g id="matplotlib.axis_2">
    <g id="ytick_1">
     <g id="line2d_11">
      <defs>
       <path id="ma8bd47835d" d="M 0 0 
L -3.5 0 
" style="stroke: #000000; stroke-width: 0.8"/>
      </defs>
      <g>
       <use xlink:href="#ma8bd47835d" x="90" y="192.24" style="stroke: #000000; stroke-width: 0.8"/>
      </g>
     </g>
     <g id="text_10">
      <!-- 0.0 -->
      <g transform="translate(67.096875 196.039219) scale(0.1 -0.1)">
       <defs>
        <path id="DejaVuSans-2e" d="M 684 794 
L 1344 794 
L 1344 0 
L 684 0 
L 684 794 
z
" transform="scale(0.015625)"/>
       </defs>
       <use xlink:href="#DejaVuSans-30"/>
       <use xlink:href="#DejaVuSans-2e" x="63.623047"/>
       <use xlink:href="#DejaVuSans-30" x="95.410156"/>
      </g>
     </g>
    </g>
    <g id="ytick_2">
     <g id="line2d_12">
      <g>
       <use xlink:href="#ma8bd47835d" x="90" y="166.088142" style="stroke: #000000; stroke-width: 0.8"/>
      </g>
     </g>
     <g id="text_11">
      <!-- 0.2 -->
      <g transform="translate(67.096875 169.887361) scale(0.1 -0.1)">
       <use xlink:href="#DejaVuSans-30"/>
       <use xlink:href="#DejaVuSans-2e" x="63.623047"/>
       <use xlink:href="#DejaVuSans-32" x="95.410156"/>
      </g>
     </g>
    </g>
    <g id="ytick_3">
     <g id="line2d_13">
      <g>
       <use xlink:href="#ma8bd47835d" x="90" y="139.936285" style="stroke: #000000; stroke-width: 0.8"/>
      </g>
     </g>
     <g id="text_12">
      <!-- 0.4 -->
      <g transform="translate(67.096875 143.735503) scale(0.1 -0.1)">
       <use xlink:href="#DejaVuSans-30"/>
       <use xlink:href="#DejaVuSans-2e" x="63.623047"/>
       <use xlink:href="#DejaVuSans-34" x="95.410156"/>
      </g>
     </g>
    </g>
    <g id="ytick_4">
     <g id="line2d_14">
      <g>
       <use xlink:href="#ma8bd47835d" x="90" y="113.784427" style="stroke: #000000; stroke-width: 0.8"/>
      </g>
     </g>
     <g id="text_13">
      <!-- 0.6 -->
      <g transform="translate(67.096875 117.583646) scale(0.1 -0.1)">
       <use xlink:href="#DejaVuSans-30"/>
       <use xlink:href="#DejaVuSans-2e" x="63.623047"/>
       <use xlink:href="#DejaVuSans-36" x="95.410156"/>
      </g>
     </g>
    </g>
    <g id="ytick_5">
     <g id="line2d_15">
      <g>
       <use xlink:href="#ma8bd47835d" x="90" y="87.632569" style="stroke: #000000; stroke-width: 0.8"/>
      </g>
     </g>
     <g id="text_14">
      <!-- 0.8 -->
      <g transform="translate(67.096875 91.431788) scale(0.1 -0.1)">
       <use xlink:href="#DejaVuSans-30"/>
       <use xlink:href="#DejaVuSans-2e" x="63.623047"/>
       <use xlink:href="#DejaVuSans-38" x="95.410156"/>
      </g>
     </g>
    </g>
    <g id="ytick_6">
     <g id="line2d_16">
      <g>
       <use xlink:href="#ma8bd47835d" x="90" y="61.480712" style="stroke: #000000; stroke-width: 0.8"/>
      </g>
     </g>
     <g id="text_15">
      <!-- 1.0 -->
      <g transform="translate(67.096875 65.27993) scale(0.1 -0.1)">
       <use xlink:href="#DejaVuSans-31"/>
       <use xlink:href="#DejaVuSans-2e" x="63.623047"/>
       <use xlink:href="#DejaVuSans-30" x="95.410156"/>
      </g>
     </g>
    </g>
    <g id="ytick_7">
     <g id="line2d_17">
      <g>
       <use xlink:href="#ma8bd47835d" x="90" y="35.328854" style="stroke: #000000; stroke-width: 0.8"/>
      </g>
     </g>
     <g id="text_16">
      <!-- 1.2 -->
      <g transform="translate(67.096875 39.128073) scale(0.1 -0.1)">
       <use xlink:href="#DejaVuSans-31"/>
       <use xlink:href="#DejaVuSans-2e" x="63.623047"/>
       <use xlink:href="#DejaVuSans-32" x="95.410156"/>
      </g>
     </g>
    </g>
   </g>
  </g>
 </g>
 <defs>
  <clipPath id="pe82a826cda">
   <rect x="90" y="25.92" width="558" height="166.32"/>
  </clipPath>
 </defs>
</svg>
