<?xml version="1.0" encoding="utf-8" standalone="no"?>
<!DOCTYPE svg PUBLIC "-//W3C//DTD SVG 1.1//EN"
  "http://www.w3.org/Graphics/SVG/1.1/DTD/svg11.dtd">
<svg xmlns:xlink="http://www.w3.org/1999/xlink" width="720pt" height="216pt" viewBox="0 0 720 216" xmlns="http://www.w3.org/2000/svg" version="1.1">
 <metadata>
  <rdf:RDF xmlns:dc="http://purl.org/dc/elements/1.1/" xmlns:cc="http://creativecommons.org/ns#" xmlns:rdf="http://www.w3.org/1999/02/22-rdf-syntax-ns#">
   <cc:Work>
    <dc:type rdf:resource="http://purl.org/dc/dcmitype/StillImage"/>
    <dc:date>2025-12-17T10:22:16.363469</dc:date>
    <dc:format>image/svg+xml</dc:format>
    <dc:creator>
     <cc:Agent>
      <dc:title>Matplotlib v3.8.2, https://matplotlib.org/</dc:title>
     </cc:Agent>
    </dc:creator>
   </cc:Work>
  </rdf:RDF>
 </metadata>
 <defs>
  <style type="text/css">*{stroke-linejoin: round; stroke-linecap: butt}</style>
 </defs>
 <g id="figure_1">
  <g id="patch_1">
   <path d="M 0 216 
L 720 216 
L 720 0 
L 0 0 
z
" style="fill: #ffffff"/>
  </g>
  <g id="axes_1">
   <g id="patch_2">
    <path d="M 90 192.24 
L 648 192.24 
L 648 25.92 
L 90 25.92 
z
" style="fill: #ffffff"/>
   </g>
   <g id="line2d_1">
    <path d="M 90 192.24 
L 648 192.24 
" clip-path="url(#p75b05eaca2)" style="fill: none; stroke: #000000; stroke-width: 0.5; stroke-linecap: square"/>
   </g>
   <g id="patch_3">
    <path d="M 113.02199 192.017008 
L 100.240301 192.017008 
L 98.222139 192.24 
L 90 192.24 
L 101.74203 191.015905 
L 111.49308 191.015905 
L 123.23511 192.24 
L 115.019766 192.24 
L 113.02199 192.017008 
z
M 102.278848 191.789818 
L 110.963057 191.789818 
L 106.627748 191.302909 
L 102.278848 191.789818 
z
" clip-path="url(#p75b05eaca2)" style="fill: #008000"/>
   </g>
   <g id="patch_4">
    <path d="M 123.23511 190.841385 
Q 119.883295 190.928645 116.278231 190.972474 
Q 112.673168 191.015905 108.829753 191.015905 
Q 100.144827 191.015905 95.072414 190.756118 
Q 90 190.496331 90 190.052064 
Q 90 189.602617 95.161795 189.344822 
Q 100.331039 189.087028 109.321352 189.087028 
Q 112.784895 189.087028 115.957947 189.122091 
Q 119.138447 189.156756 121.953971 189.225288 
L 121.953971 189.609789 
Q 119.049065 189.521732 116.173952 189.478302 
Q 113.29884 189.434473 110.40883 189.434473 
Q 105.060823 189.434473 102.163365 189.594648 
Q 99.265907 189.754425 99.265907 190.052064 
Q 99.265907 190.346914 102.059086 190.507886 
Q 104.852266 190.66846 109.991715 190.66846 
Q 111.392029 190.66846 112.591234 190.659296 
Q 113.790439 190.649733 114.743845 190.629811 
L 114.743845 190.268819 
L 109.269213 190.268819 
L 109.269213 189.947273 
L 123.23511 189.947273 
L 123.23511 190.841385 
z
" clip-path="url(#p75b05eaca2)" style="fill: #ffa600"/>
   </g>
   <g id="patch_5">
    <path d="M 123.23511 188.927496 
Q 120.45505 189.006572 117.448901 189.04657 
Q 114.442753 189.087028 111.168646 189.087028 
Q 101.404943 189.087028 95.702472 188.787274 
Q 90 188.48752 90 187.974903 
Q 90 187.460448 95.702472 187.161154 
Q 101.404943 186.8614 111.168646 186.8614 
Q 114.442753 186.8614 117.448901 186.901858 
Q 120.45505 186.941855 123.23511 187.020932 
L 123.23511 187.464586 
Q 120.429929 187.359764 117.708485 187.311031 
Q 114.987041 187.262298 111.980893 187.262298 
Q 106.588247 187.262298 103.498362 187.452173 
Q 100.41685 187.641588 100.41685 187.974903 
Q 100.41685 188.30684 103.498362 188.496714 
Q 106.588247 188.68613 111.980893 188.68613 
Q 114.987041 188.68613 117.708485 188.637397 
Q 120.429929 188.588204 123.23511 188.483382 
L 123.23511 188.927496 
z
" clip-path="url(#p75b05eaca2)" style="fill: #0000ff"/>
   </g>
   <g id="patch_6">
    <path d="M 90 183.801162 
L 123.23511 183.801162 
L 123.23511 184.397994 
L 111.278199 184.397994 
L 111.278199 186.8614 
L 101.980098 186.8614 
L 101.980098 184.397994 
L 90 184.397994 
L 90 183.801162 
z
" clip-path="url(#p75b05eaca2)" style="fill: #ff0000"/>
   </g>
   <g id="patch_7">
    <path d="M 148.006316 192.214789 
L 135.224627 192.214789 
L 133.206465 192.24 
L 124.984326 192.24 
L 136.726356 192.101606 
L 146.477406 192.101606 
L 158.219436 192.24 
L 150.004092 192.24 
L 148.006316 192.214789 
z
M 137.263174 192.189103 
L 145.947383 192.189103 
L 141.612074 192.134054 
L 137.263174 192.189103 
z
" clip-path="url(#p75b05eaca2)" style="fill: #008000"/>
   </g>
   <g id="patch_8">
    <path d="M 158.219436 192.088965 
Q 154.867621 192.095286 151.262557 192.09846 
Q 147.657494 192.101606 143.814079 192.101606 
Q 135.129153 192.101606 130.05674 192.082789 
Q 124.984326 192.063972 124.984326 192.031793 
Q 124.984326 191.999239 130.146121 191.980567 
Q 135.315365 191.961894 144.305678 191.961894 
Q 147.769221 191.961894 150.942273 191.964434 
Q 154.122773 191.966945 156.938297 191.971909 
L 156.938297 191.999759 
Q 154.033391 191.993381 151.158278 191.990235 
Q 148.283166 191.98706 145.393156 191.98706 
Q 140.045149 191.98706 137.147691 191.998662 
Q 134.250233 192.010235 134.250233 192.031793 
Q 134.250233 192.05315 137.043412 192.064809 
Q 139.836592 192.07644 144.976042 192.07644 
Q 146.376355 192.07644 147.57556 192.075776 
Q 148.774765 192.075084 149.728171 192.073641 
L 149.728171 192.047493 
L 144.253539 192.047493 
L 144.253539 192.024203 
L 158.219436 192.024203 
L 158.219436 192.088965 
z
" clip-path="url(#p75b05eaca2)" style="fill: #ffa600"/>
   </g>
   <g id="patch_9">
    <path d="M 124.984326 191.81032 
L 158.219436 191.81032 
L 158.219436 191.839881 
L 146.262525 191.839881 
L 146.262525 191.961894 
L 136.964424 191.961894 
L 136.964424 191.839881 
L 124.984326 191.839881 
L 124.984326 191.81032 
z
" clip-path="url(#p75b05eaca2)" style="fill: #ff0000"/>
   </g>
   <g id="patch_10">
    <path d="M 158.219436 191.798132 
Q 155.439376 191.804173 152.433227 191.807229 
Q 149.427079 191.81032 146.152972 191.81032 
Q 136.389269 191.81032 130.686798 191.78742 
Q 124.984326 191.76452 124.984326 191.725359 
Q 124.984326 191.686057 130.686798 191.663193 
Q 136.389269 191.640293 146.152972 191.640293 
Q 149.427079 191.640293 152.433227 191.643384 
Q 155.439376 191.646439 158.219436 191.65248 
L 158.219436 191.686373 
Q 155.414255 191.678366 152.692811 191.674643 
Q 149.971367 191.67092 146.965219 191.67092 
Q 141.572573 191.67092 138.482688 191.685425 
Q 135.401176 191.699896 135.401176 191.725359 
Q 135.401176 191.750717 138.482688 191.765223 
Q 141.572573 191.779693 146.965219 191.779693 
Q 149.971367 191.779693 152.692811 191.77597 
Q 155.414255 191.772212 158.219436 191.764204 
L 158.219436 191.798132 
z
" clip-path="url(#p75b05eaca2)" style="fill: #0000ff"/>
   </g>
   <g id="patch_11">
    <path d="M 193.203762 192.201077 
Q 189.851947 192.220539 186.246883 192.230314 
Q 182.64182 192.24 178.798405 192.24 
Q 170.113479 192.24 165.041066 192.18206 
Q 159.968652 192.12412 159.968652 192.025036 
Q 159.968652 191.924796 165.130447 191.8673 
Q 170.299691 191.809804 179.290004 191.809804 
Q 182.753547 191.809804 185.926599 191.817625 
Q 189.107099 191.825356 191.922624 191.840641 
L 191.922624 191.926395 
Q 189.017717 191.906756 186.142604 191.89707 
Q 183.267492 191.887295 180.377482 191.887295 
Q 175.029475 191.887295 172.132017 191.923018 
Q 169.234559 191.958653 169.234559 192.025036 
Q 169.234559 192.090796 172.027738 192.126697 
Q 174.820918 192.16251 179.960368 192.16251 
Q 181.360681 192.16251 182.559886 192.160466 
Q 183.759091 192.158333 184.712497 192.15389 
L 184.712497 192.073378 
L 179.237865 192.073378 
L 179.237865 192.001664 
L 193.203762 192.001664 
L 193.203762 192.201077 
z
" clip-path="url(#p75b05eaca2)" style="fill: #ffa600"/>
   </g>
   <g id="patch_12">
    <path d="M 182.990642 191.705621 
L 170.208953 191.705621 
L 168.190791 191.809804 
L 159.968652 191.809804 
L 171.710682 191.237897 
L 181.461732 191.237897 
L 193.203762 191.809804 
L 184.988418 191.809804 
L 182.990642 191.705621 
z
M 172.2475 191.599476 
L 180.931709 191.599476 
L 176.5964 191.371988 
L 172.2475 191.599476 
z
" clip-path="url(#p75b05eaca2)" style="fill: #008000"/>
   </g>
   <g id="patch_13">
    <path d="M 193.203762 191.193638 
Q 190.423702 191.215577 187.417553 191.226673 
Q 184.411405 191.237897 181.137298 191.237897 
Q 171.373595 191.237897 165.671124 191.154736 
Q 159.968652 191.071575 159.968652 190.92936 
Q 159.968652 190.786634 165.671124 190.703601 
Q 171.373595 190.62044 181.137298 190.62044 
Q 184.411405 190.62044 187.417553 190.631664 
Q 190.423702 190.642761 193.203762 190.664699 
L 193.203762 190.787782 
Q 190.398581 190.758702 187.677137 190.745182 
Q 184.955693 190.731662 181.949545 190.731662 
Q 176.556899 190.731662 173.467014 190.784339 
Q 170.385502 190.836888 170.385502 190.92936 
Q 170.385502 191.021449 173.467014 191.074126 
Q 176.556899 191.126676 181.949545 191.126676 
Q 184.955693 191.126676 187.677137 191.113156 
Q 190.398581 191.099508 193.203762 191.070428 
L 193.203762 191.193638 
z
" clip-path="url(#p75b05eaca2)" style="fill: #0000ff"/>
   </g>
   <g id="patch_14">
    <path d="M 159.968652 189.937188 
L 193.203762 189.937188 
L 193.203762 190.070441 
L 181.246851 190.070441 
L 181.246851 190.62044 
L 171.94875 190.62044 
L 171.94875 190.070441 
L 159.968652 190.070441 
L 159.968652 189.937188 
z
" clip-path="url(#p75b05eaca2)" style="fill: #ff0000"/>
   </g>
   <g id="patch_15">
    <path d="M 228.188088 192.104722 
Q 224.836273 192.172361 221.231209 192.206335 
Q 217.626146 192.24 213.782731 192.24 
Q 205.097805 192.24 200.025392 192.038627 
Q 194.952978 191.837253 194.952978 191.49288 
Q 194.952978 191.144491 200.114773 190.944662 
Q 205.284017 190.744833 214.274331 190.744833 
Q 217.737873 190.744833 220.910925 190.772012 
Q 224.091425 190.798883 226.90695 190.852006 
L 226.90695 191.150051 
Q 224.002043 191.081794 221.12693 191.048129 
Q 218.251818 191.014154 215.361808 191.014154 
Q 210.013801 191.014154 207.116343 191.138314 
Q 204.218885 191.262165 204.218885 191.49288 
Q 204.218885 191.721432 207.012064 191.84621 
Q 209.805244 191.970678 214.944694 191.970678 
Q 216.345007 191.970678 217.544212 191.963575 
Q 218.743417 191.956162 219.696823 191.940719 
L 219.696823 191.660897 
L 214.222191 191.660897 
L 214.222191 191.411651 
L 228.188088 191.411651 
L 228.188088 192.104722 
z
" clip-path="url(#p75b05eaca2)" style="fill: #ffa600"/>
   </g>
   <g id="patch_16">
    <path d="M 228.188088 190.485625 
Q 225.408028 190.614108 222.401879 190.679097 
Q 219.395731 190.744833 216.121624 190.744833 
Q 206.357921 190.744833 200.65545 190.25779 
Q 194.952978 189.770747 194.952978 188.937844 
Q 194.952978 188.101953 200.65545 187.615658 
Q 206.357921 187.128615 216.121624 187.128615 
Q 219.395731 187.128615 222.401879 187.194351 
Q 225.408028 187.25934 228.188088 187.387823 
L 228.188088 188.108676 
Q 225.382907 187.938361 222.661463 187.859179 
Q 219.940019 187.779997 216.933871 187.779997 
Q 211.541225 187.779997 208.45134 188.088507 
Q 205.369828 188.396271 205.369828 188.937844 
Q 205.369828 189.477177 208.45134 189.785687 
Q 211.541225 190.093451 216.933871 190.093451 
Q 219.940019 190.093451 222.661463 190.014269 
Q 225.382907 189.93434 228.188088 189.764024 
L 228.188088 190.485625 
z
" clip-path="url(#p75b05eaca2)" style="fill: #0000ff"/>
   </g>
   <g id="patch_17">
    <path d="M 217.974968 186.178477 
L 205.193279 186.178477 
L 203.175117 187.128615 
L 194.952978 187.128615 
L 206.695008 181.912916 
L 216.446058 181.912916 
L 228.188088 187.128615 
L 219.972744 187.128615 
L 217.974968 186.178477 
z
M 207.231826 185.210454 
L 215.916035 185.210454 
L 211.580726 183.135799 
L 207.231826 185.210454 
z
" clip-path="url(#p75b05eaca2)" style="fill: #008000"/>
   </g>
   <g id="patch_18">
    <path d="M 194.952978 176.419046 
L 228.188088 176.419046 
L 228.188088 177.490504 
L 216.231177 177.490504 
L 216.231177 181.912916 
L 206.933076 181.912916 
L 206.933076 177.490504 
L 194.952978 177.490504 
L 194.952978 176.419046 
z
" clip-path="url(#p75b05eaca2)" style="fill: #ff0000"/>
   </g>
   <g id="patch_19">
    <path d="M 263.172414 191.812317 
Q 259.820599 192.026159 256.215535 192.133568 
Q 252.610472 192.24 248.767057 192.24 
Q 240.082131 192.24 235.009718 191.603358 
Q 229.937304 190.966716 229.937304 189.87798 
Q 229.937304 188.77655 235.099099 188.144791 
Q 240.268343 187.513031 249.258657 187.513031 
Q 252.722199 187.513031 255.895251 187.598958 
Q 259.075751 187.683909 261.891276 187.851857 
L 261.891276 188.794126 
Q 258.986369 188.578332 256.111256 188.4719 
Q 253.236144 188.364491 250.346134 188.364491 
Q 244.998127 188.364491 242.100669 188.757021 
Q 239.203211 189.148576 239.203211 189.87798 
Q 239.203211 190.600549 241.99639 190.995033 
Q 244.78957 191.38854 249.92902 191.38854 
Q 251.329333 191.38854 252.528538 191.366082 
Q 253.727743 191.342647 254.681149 191.293825 
L 254.681149 190.409166 
L 249.206517 190.409166 
L 249.206517 189.621175 
L 263.172414 189.621175 
L 263.172414 191.812317 
z
" clip-path="url(#p75b05eaca2)" style="fill: #ffa600"/>
   </g>
   <g id="patch_20">
    <path d="M 252.959294 186.24828 
L 240.177605 186.24828 
L 238.159443 187.513031 
L 229.937304 187.513031 
L 241.679334 180.570295 
L 251.430384 180.570295 
L 263.172414 187.513031 
L 254.95707 187.513031 
L 252.959294 186.24828 
z
M 242.216152 184.959723 
L 250.900361 184.959723 
L 246.565052 182.198103 
L 242.216152 184.959723 
z
" clip-path="url(#p75b05eaca2)" style="fill: #008000"/>
   </g>
   <g id="patch_21">
    <path d="M 229.937304 169.491461 
L 263.172414 169.491461 
L 263.172414 171.652142 
L 251.215503 171.652142 
L 251.215503 180.570295 
L 241.917402 180.570295 
L 241.917402 171.652142 
L 229.937304 171.652142 
L 229.937304 169.491461 
z
" clip-path="url(#p75b05eaca2)" style="fill: #ff0000"/>
   </g>
   <g id="patch_22">
    <path d="M 263.172414 166.304376 
Q 260.392354 167.884141 257.386205 168.683209 
Q 254.380057 169.491461 251.10595 169.491461 
Q 241.342247 169.491461 235.639776 163.503047 
Q 229.937304 157.514633 229.937304 147.273711 
Q 229.937304 136.99605 235.639776 131.016821 
Q 241.342247 125.028407 251.10595 125.028407 
Q 254.380057 125.028407 257.386205 125.836659 
Q 260.392354 126.635727 263.172414 128.215492 
L 263.172414 137.078712 
Q 260.367233 134.984604 257.645789 134.011028 
Q 254.924345 133.037451 251.918197 133.037451 
Q 246.525551 133.037451 243.435666 136.830725 
Q 240.354154 140.614815 240.354154 147.273711 
Q 240.354154 153.905053 243.435666 157.698327 
Q 246.525551 161.482417 251.918197 161.482417 
Q 254.924345 161.482417 257.645789 160.50884 
Q 260.367233 159.526079 263.172414 157.431971 
L 263.172414 166.304376 
z
" clip-path="url(#p75b05eaca2)" style="fill: #0000ff"/>
   </g>
   <g id="patch_23">
    <path d="M 298.15674 192.0636 
Q 294.804925 192.1518 291.199861 192.196101 
Q 287.594798 192.24 283.751383 192.24 
Q 275.066457 192.24 269.994044 191.977414 
Q 264.92163 191.714828 264.92163 191.265774 
Q 264.92163 190.811484 270.083425 190.550912 
Q 275.252669 190.29034 284.242983 190.29034 
Q 287.706525 190.29034 290.879577 190.325781 
Q 294.060077 190.360819 296.875602 190.43009 
L 296.875602 190.818733 
Q 293.970695 190.729728 291.095582 190.68583 
Q 288.22047 190.641528 285.33046 190.641528 
Q 279.982453 190.641528 277.084995 190.803429 
Q 274.187537 190.964928 274.187537 191.265774 
Q 274.187537 191.563801 276.980716 191.726508 
Q 279.773896 191.888811 284.913346 191.888811 
Q 286.313659 191.888811 287.512864 191.879548 
Q 288.712069 191.869883 289.665475 191.849746 
L 289.665475 191.484864 
L 284.190843 191.484864 
L 284.190843 191.159854 
L 298.15674 191.159854 
L 298.15674 192.0636 
z
" clip-path="url(#p75b05eaca2)" style="fill: #ffa600"/>
   </g>
   <g id="patch_24">
    <path d="M 264.92163 185.694712 
L 298.15674 185.694712 
L 298.15674 186.590987 
L 286.199829 186.590987 
L 286.199829 190.29034 
L 276.901728 190.29034 
L 276.901728 186.590987 
L 264.92163 186.590987 
L 264.92163 185.694712 
z
" clip-path="url(#p75b05eaca2)" style="fill: #ff0000"/>
   </g>
   <g id="patch_25">
    <path d="M 287.94362 184.713773 
L 275.161931 184.713773 
L 273.143769 185.694712 
L 264.92163 185.694712 
L 276.66366 180.309936 
L 286.41471 180.309936 
L 298.15674 185.694712 
L 289.941396 185.694712 
L 287.94362 184.713773 
z
M 277.200478 183.71437 
L 285.884687 183.71437 
L 281.549378 181.572461 
L 277.200478 183.71437 
z
" clip-path="url(#p75b05eaca2)" style="fill: #008000"/>
   </g>
   <g id="patch_26">
    <path d="M 298.15674 179.651112 
Q 295.37668 179.977676 292.370531 180.142856 
Q 289.364383 180.309936 286.090276 180.309936 
Q 276.326573 180.309936 270.624102 179.07203 
Q 264.92163 177.834125 264.92163 175.717155 
Q 264.92163 173.592591 270.624102 172.356585 
Q 276.326573 171.11868 286.090276 171.11868 
Q 289.364383 171.11868 292.370531 171.285759 
Q 295.37668 171.450939 298.15674 171.777503 
L 298.15674 173.609679 
Q 295.351559 173.176792 292.630115 172.975537 
Q 289.908672 172.774283 286.902523 172.774283 
Q 281.509877 172.774283 278.419992 173.558416 
Q 275.33848 174.340651 275.33848 175.717155 
Q 275.33848 177.087965 278.419992 177.872098 
Q 281.509877 178.654332 286.902523 178.654332 
Q 289.908672 178.654332 292.630115 178.453078 
Q 295.351559 178.249925 298.15674 177.817038 
L 298.15674 179.651112 
z
" clip-path="url(#p75b05eaca2)" style="fill: #0000ff"/>
   </g>
   <g id="patch_27">
    <path d="M 333.141066 192.118484 
Q 329.789251 192.179242 326.184187 192.20976 
Q 322.579124 192.24 318.735709 192.24 
Q 310.050783 192.24 304.97837 192.059113 
Q 299.905956 191.878226 299.905956 191.568887 
Q 299.905956 191.255941 305.067752 191.076441 
Q 310.236995 190.896941 319.227309 190.896941 
Q 322.690851 190.896941 325.863903 190.921355 
Q 329.044403 190.945492 331.859928 190.993211 
L 331.859928 191.260935 
Q 328.955021 191.199622 326.079908 191.169381 
Q 323.204796 191.138864 320.314786 191.138864 
Q 314.966779 191.138864 312.069321 191.250392 
Q 309.171863 191.361643 309.171863 191.568887 
Q 309.171863 191.774188 311.965042 191.886271 
Q 314.758222 191.998077 319.897672 191.998077 
Q 321.297985 191.998077 322.49719 191.991696 
Q 323.696395 191.985038 324.649801 191.971166 
L 324.649801 191.719811 
L 319.175169 191.719811 
L 319.175169 191.495921 
L 333.141066 191.495921 
L 333.141066 192.118484 
z
" clip-path="url(#p75b05eaca2)" style="fill: #ffa600"/>
   </g>
   <g id="patch_28">
    <path d="M 333.141066 190.40184 
Q 330.361006 190.64725 327.354858 190.771382 
Q 324.348709 190.896941 321.074602 190.896941 
Q 311.310899 190.896941 305.608428 189.966664 
Q 299.905956 189.036388 299.905956 187.445501 
Q 299.905956 185.848906 305.608428 184.920057 
Q 311.310899 183.98978 321.074602 183.98978 
Q 324.348709 183.98978 327.354858 184.115339 
Q 330.361006 184.239471 333.141066 184.484881 
L 333.141066 185.861748 
Q 330.335885 185.536436 327.614441 185.385195 
Q 324.892998 185.233954 321.886849 185.233954 
Q 316.494203 185.233954 313.404318 185.823224 
Q 310.322806 186.411067 310.322806 187.445501 
Q 310.322806 188.475654 313.404318 189.064924 
Q 316.494203 189.652767 321.886849 189.652767 
Q 324.892998 189.652767 327.614441 189.501526 
Q 330.335885 189.348858 333.141066 189.023547 
L 333.141066 190.40184 
z
" clip-path="url(#p75b05eaca2)" style="fill: #0000ff"/>
   </g>
   <g id="patch_29">
    <path d="M 322.927946 180.91401 
L 310.146257 180.91401 
L 308.128095 183.98978 
L 299.905956 183.98978 
L 311.647986 167.105609 
L 321.399036 167.105609 
L 333.141066 183.98978 
L 324.925722 183.98978 
L 322.927946 180.91401 
z
M 312.184804 177.780342 
L 320.869013 177.780342 
L 316.533704 171.064307 
L 312.184804 177.780342 
z
" clip-path="url(#p75b05eaca2)" style="fill: #008000"/>
   </g>
   <g id="patch_30">
    <path d="M 299.905956 148.590581 
L 333.141066 148.590581 
L 333.141066 152.201527 
L 321.184155 152.201527 
L 321.184155 167.105609 
L 311.886054 167.105609 
L 311.886054 152.201527 
L 299.905956 152.201527 
L 299.905956 148.590581 
z
" clip-path="url(#p75b05eaca2)" style="fill: #ff0000"/>
   </g>
   <g id="patch_31">
    <path d="M 357.912272 191.947156 
L 345.130583 191.947156 
L 343.112421 192.24 
L 334.890282 192.24 
L 346.632312 190.632461 
L 356.383362 190.632461 
L 368.125392 192.24 
L 359.910048 192.24 
L 357.912272 191.947156 
z
M 347.16913 191.6488 
L 355.853339 191.6488 
L 351.51803 191.009368 
L 347.16913 191.6488 
z
" clip-path="url(#p75b05eaca2)" style="fill: #008000"/>
   </g>
   <g id="patch_32">
    <path d="M 334.890282 188.707942 
L 368.125392 188.707942 
L 368.125392 189.083277 
L 356.168481 189.083277 
L 356.168481 190.632461 
L 346.87038 190.632461 
L 346.87038 189.083277 
L 334.890282 189.083277 
L 334.890282 188.707942 
z
" clip-path="url(#p75b05eaca2)" style="fill: #ff0000"/>
   </g>
   <g id="patch_33">
    <path d="M 368.125392 188.505076 
Q 365.345332 188.605632 362.339184 188.656495 
Q 359.333035 188.707942 356.058928 188.707942 
Q 346.295225 188.707942 340.592754 188.326766 
Q 334.890282 187.945589 334.890282 187.293731 
Q 334.890282 186.639535 340.592754 186.258943 
Q 346.295225 185.877767 356.058928 185.877767 
Q 359.333035 185.877767 362.339184 185.929214 
Q 365.345332 185.980076 368.125392 186.080632 
L 368.125392 186.644796 
Q 365.320211 186.511502 362.598767 186.449531 
Q 359.877324 186.387561 356.871175 186.387561 
Q 351.478529 186.387561 348.388644 186.629011 
Q 345.307132 186.869877 345.307132 187.293731 
Q 345.307132 187.715831 348.388644 187.957282 
Q 351.478529 188.198148 356.871175 188.198148 
Q 359.877324 188.198148 362.598767 188.136177 
Q 365.320211 188.073622 368.125392 187.940328 
L 368.125392 188.505076 
z
" clip-path="url(#p75b05eaca2)" style="fill: #0000ff"/>
   </g>
   <g id="patch_34">
    <path d="M 368.125392 185.521323 
Q 364.773577 185.699545 361.168513 185.789063 
Q 357.56345 185.877767 353.720035 185.877767 
Q 345.035109 185.877767 339.962696 185.34717 
Q 334.890282 184.816572 334.890282 183.909186 
Q 334.890282 182.99122 340.052078 182.464692 
Q 345.221321 181.938163 354.211635 181.938163 
Q 357.675177 181.938163 360.848229 182.009778 
Q 364.028729 182.080578 366.844254 182.220552 
L 366.844254 183.005868 
Q 363.939347 182.826019 361.064235 182.737315 
Q 358.189122 182.647797 355.299112 182.647797 
Q 349.951105 182.647797 347.053647 182.974944 
Q 344.156189 183.301278 344.156189 183.909186 
Q 344.156189 184.511397 346.949368 184.840172 
Q 349.742548 185.168134 354.881998 185.168134 
Q 356.282312 185.168134 357.481517 185.149416 
Q 358.680721 185.129885 359.634127 185.089195 
L 359.634127 184.351893 
L 354.159495 184.351893 
L 354.159495 183.695157 
L 368.125392 183.695157 
L 368.125392 185.521323 
z
" clip-path="url(#p75b05eaca2)" style="fill: #ffa600"/>
   </g>
   <g id="patch_35">
    <path d="M 392.896598 191.620024 
L 380.114909 191.620024 
L 378.096747 192.24 
L 369.874608 192.24 
L 381.616638 188.836697 
L 391.367688 188.836697 
L 403.109718 192.24 
L 394.894374 192.24 
L 392.896598 191.620024 
z
M 382.153456 190.988378 
L 390.837665 190.988378 
L 386.502356 189.634643 
L 382.153456 190.988378 
z
" clip-path="url(#p75b05eaca2)" style="fill: #008000"/>
   </g>
   <g id="patch_36">
    <path d="M 403.109718 188.419721 
Q 399.757903 188.628209 396.152839 188.732929 
Q 392.547776 188.836697 388.704361 188.836697 
Q 380.019435 188.836697 374.947022 188.215992 
Q 369.874608 187.595288 369.874608 186.533806 
Q 369.874608 185.459948 375.036404 184.844003 
Q 380.205647 184.228059 389.195961 184.228059 
Q 392.659503 184.228059 395.832555 184.311835 
Q 399.013055 184.394659 401.82858 184.558403 
L 401.82858 185.477084 
Q 398.923673 185.266692 396.048561 185.162924 
Q 393.173448 185.058204 390.283438 185.058204 
Q 384.935431 185.058204 382.037973 185.440908 
Q 379.140515 185.822661 379.140515 186.533806 
Q 379.140515 187.238287 381.933694 187.622896 
Q 384.726874 188.006552 389.866324 188.006552 
Q 391.266638 188.006552 392.465843 187.984656 
Q 393.665048 187.961808 394.618453 187.914208 
L 394.618453 187.051695 
L 389.143821 187.051695 
L 389.143821 186.28343 
L 403.109718 186.28343 
L 403.109718 188.419721 
z
" clip-path="url(#p75b05eaca2)" style="fill: #ffa600"/>
   </g>
   <g id="patch_37">
    <path d="M 369.874608 176.64153 
L 403.109718 176.64153 
L 403.109718 178.121114 
L 391.152807 178.121114 
L 391.152807 184.228059 
L 381.854706 184.228059 
L 381.854706 178.121114 
L 369.874608 178.121114 
L 369.874608 176.64153 
z
" clip-path="url(#p75b05eaca2)" style="fill: #ff0000"/>
   </g>
   <g id="patch_38">
    <path d="M 403.109718 175.447207 
Q 400.329658 176.039206 397.32351 176.338647 
Q 394.317361 176.64153 391.043255 176.64153 
Q 381.279551 176.64153 375.57708 174.397443 
Q 369.874608 172.153356 369.874608 168.315691 
Q 369.874608 164.46426 375.57708 162.223615 
Q 381.279551 159.979528 391.043255 159.979528 
Q 394.317361 159.979528 397.32351 160.282411 
Q 400.329658 160.581852 403.109718 161.17385 
L 403.109718 164.495237 
Q 400.304537 163.710494 397.583093 163.345658 
Q 394.86165 162.980822 391.855501 162.980822 
Q 386.462855 162.980822 383.37297 164.402307 
Q 380.291458 165.820349 380.291458 168.315691 
Q 380.291458 170.800708 383.37297 172.222193 
Q 386.462855 173.640235 391.855501 173.640235 
Q 394.86165 173.640235 397.583093 173.275399 
Q 400.304537 172.907121 403.109718 172.122379 
L 403.109718 175.447207 
z
" clip-path="url(#p75b05eaca2)" style="fill: #0000ff"/>
   </g>
   <g id="patch_39">
    <path d="M 438.094044 192.117829 
Q 434.742229 192.178914 431.137165 192.209597 
Q 427.532102 192.24 423.688687 192.24 
Q 415.003761 192.24 409.931348 192.058138 
Q 404.858934 191.876275 404.858934 191.565268 
Q 404.858934 191.250635 410.02073 191.070168 
Q 415.189973 190.8897 424.180287 190.8897 
Q 427.643829 190.8897 430.816881 190.914246 
Q 433.997381 190.938513 436.812906 190.986489 
L 436.812906 191.255656 
Q 433.907999 191.194013 431.032887 191.163609 
Q 428.157774 191.132927 425.267764 191.132927 
Q 419.919757 191.132927 417.022299 191.245057 
Q 414.124841 191.356908 414.124841 191.565268 
Q 414.124841 191.771677 416.91802 191.884364 
Q 419.7112 191.996773 424.85065 191.996773 
Q 426.250964 191.996773 427.450169 191.990358 
Q 428.649374 191.983663 429.602779 191.969717 
L 429.602779 191.717006 
L 424.128147 191.717006 
L 424.128147 191.49191 
L 438.094044 191.49191 
L 438.094044 192.117829 
z
" clip-path="url(#p75b05eaca2)" style="fill: #ffa600"/>
   </g>
   <g id="patch_40">
    <path d="M 404.858934 185.99004 
L 438.094044 185.99004 
L 438.094044 186.94561 
L 426.137133 186.94561 
L 426.137133 190.8897 
L 416.839032 190.8897 
L 416.839032 186.94561 
L 404.858934 186.94561 
L 404.858934 185.99004 
z
" clip-path="url(#p75b05eaca2)" style="fill: #ff0000"/>
   </g>
   <g id="patch_41">
    <path d="M 427.880924 184.970969 
L 415.099235 184.970969 
L 413.081073 185.99004 
L 404.858934 185.99004 
L 416.600964 180.39594 
L 426.352014 180.39594 
L 438.094044 185.99004 
L 429.8787 185.99004 
L 427.880924 184.970969 
z
M 417.137782 183.932715 
L 425.821992 183.932715 
L 421.486682 181.707544 
L 417.137782 183.932715 
z
" clip-path="url(#p75b05eaca2)" style="fill: #008000"/>
   </g>
   <g id="patch_42">
    <path d="M 438.094044 179.986662 
Q 435.313984 180.189531 432.307836 180.292146 
Q 429.301687 180.39594 426.027581 180.39594 
Q 416.263877 180.39594 410.561406 179.626922 
Q 404.858934 178.857904 404.858934 177.542789 
Q 404.858934 176.222956 410.561406 175.455117 
Q 416.263877 174.686099 426.027581 174.686099 
Q 429.301687 174.686099 432.307836 174.789893 
Q 435.313984 174.892507 438.094044 175.095377 
L 438.094044 176.233571 
Q 435.288863 175.964651 432.567419 175.839626 
Q 429.845976 175.714602 426.839827 175.714602 
Q 421.447181 175.714602 418.357296 176.201725 
Q 415.275784 176.687669 415.275784 177.542789 
Q 415.275784 178.39437 418.357296 178.881493 
Q 421.447181 179.367437 426.839827 179.367437 
Q 429.845976 179.367437 432.567419 179.242413 
Q 435.288863 179.116209 438.094044 178.847288 
L 438.094044 179.986662 
z
" clip-path="url(#p75b05eaca2)" style="fill: #0000ff"/>
   </g>
   <g id="patch_43">
    <path d="M 473.07837 191.932181 
Q 469.726555 192.086091 466.121491 192.163397 
Q 462.516428 192.24 458.673013 192.24 
Q 449.988087 192.24 444.915674 191.781786 
Q 439.84326 191.323572 439.84326 190.539969 
Q 439.84326 189.747231 445.005056 189.29253 
Q 450.174299 188.83783 459.164613 188.83783 
Q 462.628155 188.83783 465.801207 188.899675 
Q 468.981707 188.960817 471.797232 189.081695 
L 471.797232 189.759881 
Q 468.892325 189.604566 466.017213 189.527962 
Q 463.1421 189.450656 460.25209 189.450656 
Q 454.904083 189.450656 452.006625 189.733175 
Q 449.109167 190.014991 449.109167 190.539969 
Q 449.109167 191.060028 451.902346 191.343952 
Q 454.695526 191.627174 459.834976 191.627174 
Q 461.23529 191.627174 462.434495 191.61101 
Q 463.6337 191.594143 464.587105 191.559004 
L 464.587105 190.922283 
L 459.112473 190.922283 
L 459.112473 190.355137 
L 473.07837 190.355137 
L 473.07837 191.932181 
z
" clip-path="url(#p75b05eaca2)" style="fill: #ffa600"/>
   </g>
   <g id="patch_44">
    <path d="M 462.86525 187.99269 
L 450.083561 187.99269 
L 448.065399 188.83783 
L 439.84326 188.83783 
L 451.58529 184.198507 
L 461.33634 184.198507 
L 473.07837 188.83783 
L 464.863026 188.83783 
L 462.86525 187.99269 
z
M 452.122108 187.131641 
L 460.806318 187.131641 
L 456.471008 185.286252 
L 452.122108 187.131641 
z
" clip-path="url(#p75b05eaca2)" style="fill: #008000"/>
   </g>
   <g id="patch_45">
    <path d="M 473.07837 183.267384 
Q 470.29831 183.728921 467.292162 183.962372 
Q 464.286013 184.198507 461.011907 184.198507 
Q 451.248203 184.198507 445.545732 182.448962 
Q 439.84326 180.699417 439.84326 177.70748 
Q 439.84326 174.70481 445.545732 172.957948 
Q 451.248203 171.208403 461.011907 171.208403 
Q 464.286013 171.208403 467.292162 171.444538 
Q 470.29831 171.67799 473.07837 172.139526 
L 473.07837 174.72896 
Q 470.273189 174.117156 467.551745 173.832721 
Q 464.830302 173.548286 461.824153 173.548286 
Q 456.431507 173.548286 453.341622 174.65651 
Q 450.26011 175.762051 450.26011 177.70748 
Q 450.26011 179.64486 453.341622 180.753084 
Q 456.431507 181.858625 461.824153 181.858625 
Q 464.830302 181.858625 467.551745 181.57419 
Q 470.273189 181.287071 473.07837 180.675267 
L 473.07837 183.267384 
z
" clip-path="url(#p75b05eaca2)" style="fill: #0000ff"/>
   </g>
   <g id="patch_46">
    <path d="M 439.84326 51.513876 
L 473.07837 51.513876 
L 473.07837 74.857643 
L 461.12146 74.857643 
L 461.12146 171.208403 
L 451.823358 171.208403 
L 451.823358 74.857643 
L 439.84326 74.857643 
L 439.84326 51.513876 
z
" clip-path="url(#p75b05eaca2)" style="fill: #ff0000"/>
   </g>
   <g id="patch_47">
    <path d="M 508.062696 191.942344 
Q 504.710881 192.091172 501.105817 192.165926 
Q 497.500754 192.24 493.657339 192.24 
Q 484.972414 192.24 479.9 191.796914 
Q 474.827586 191.353828 474.827586 190.596096 
Q 474.827586 189.82953 479.989382 189.389842 
Q 485.158625 188.950154 494.148939 188.950154 
Q 497.612481 188.950154 500.785533 189.009957 
Q 503.966033 189.06908 506.781558 189.185968 
L 506.781558 189.841763 
Q 503.876651 189.691575 501.001539 189.617501 
Q 498.126426 189.542747 495.236416 189.542747 
Q 489.888409 189.542747 486.990951 189.815939 
Q 484.093493 190.08845 484.093493 190.596096 
Q 484.093493 191.098985 486.886672 191.373536 
Q 489.679852 191.647406 494.819302 191.647406 
Q 496.219616 191.647406 497.418821 191.631776 
Q 498.618026 191.615466 499.571431 191.581487 
L 499.571431 190.965788 
L 494.096799 190.965788 
L 494.096799 190.417367 
L 508.062696 190.417367 
L 508.062696 191.942344 
z
" clip-path="url(#p75b05eaca2)" style="fill: #ffa600"/>
   </g>
   <g id="patch_48">
    <path d="M 497.849576 188.151077 
L 485.067887 188.151077 
L 483.049725 188.950154 
L 474.827586 188.950154 
L 486.569616 184.563692 
L 496.320666 184.563692 
L 508.062696 188.950154 
L 499.847352 188.950154 
L 497.849576 188.151077 
z
M 487.106434 187.336959 
L 495.790644 187.336959 
L 491.455334 185.592151 
L 487.106434 187.336959 
z
" clip-path="url(#p75b05eaca2)" style="fill: #008000"/>
   </g>
   <g id="patch_49">
    <path d="M 508.062696 183.987258 
Q 505.282636 184.272983 502.276488 184.417507 
Q 499.270339 184.563692 495.996233 184.563692 
Q 486.232529 184.563692 480.530058 183.480593 
Q 474.827586 182.397494 474.827586 180.545261 
Q 474.827586 178.686384 480.530058 177.604945 
Q 486.232529 176.521846 495.996233 176.521846 
Q 499.270339 176.521846 502.276488 176.668031 
Q 505.282636 176.812555 508.062696 177.098281 
L 508.062696 178.701334 
Q 505.257515 178.322582 502.536071 178.146495 
Q 499.814628 177.970408 496.808479 177.970408 
Q 491.415833 177.970408 488.325948 178.656482 
Q 485.244436 179.340894 485.244436 180.545261 
Q 485.244436 181.744644 488.325948 182.430718 
Q 491.415833 183.11513 496.808479 183.11513 
Q 499.814628 183.11513 502.536071 182.939043 
Q 505.257515 182.761295 508.062696 182.382543 
L 508.062696 183.987258 
z
" clip-path="url(#p75b05eaca2)" style="fill: #0000ff"/>
   </g>
   <g id="patch_50">
    <path d="M 474.827586 25.92 
L 508.062696 25.92 
L 508.062696 55.291556 
L 496.105786 55.291556 
L 496.105786 176.521846 
L 486.807684 176.521846 
L 486.807684 55.291556 
L 474.827586 55.291556 
L 474.827586 25.92 
z
" clip-path="url(#p75b05eaca2)" style="fill: #ff0000"/>
   </g>
   <g id="patch_51">
    <path d="M 532.833902 191.933842 
L 520.052213 191.933842 
L 518.034051 192.24 
L 509.811912 192.24 
L 521.553942 190.559374 
L 531.304992 190.559374 
L 543.047022 192.24 
L 534.831678 192.24 
L 532.833902 191.933842 
z
M 522.09076 191.621921 
L 530.77497 191.621921 
L 526.43966 190.953417 
L 522.09076 191.621921 
z
" clip-path="url(#p75b05eaca2)" style="fill: #008000"/>
   </g>
   <g id="patch_52">
    <path d="M 509.811912 184.935741 
L 543.047022 184.935741 
L 543.047022 186.032506 
L 531.090112 186.032506 
L 531.090112 190.559374 
L 521.79201 190.559374 
L 521.79201 186.032506 
L 509.811912 186.032506 
L 509.811912 184.935741 
z
" clip-path="url(#p75b05eaca2)" style="fill: #ff0000"/>
   </g>
   <g id="patch_53">
    <path d="M 543.047022 184.199043 
Q 540.266962 184.564207 537.260814 184.748912 
Q 534.254665 184.935741 530.980559 184.935741 
Q 521.216855 184.935741 515.514384 183.551513 
Q 509.811912 182.167286 509.811912 179.800088 
Q 509.811912 177.424397 515.514384 176.042293 
Q 521.216855 174.658066 530.980559 174.658066 
Q 534.254665 174.658066 537.260814 174.844894 
Q 540.266962 175.029599 543.047022 175.394763 
L 543.047022 177.443505 
Q 540.241841 176.95945 537.520398 176.734407 
Q 534.798954 176.509363 531.792805 176.509363 
Q 526.400159 176.509363 523.310274 177.386182 
Q 520.228762 178.260878 520.228762 179.800088 
Q 520.228762 181.332928 523.310274 182.209747 
Q 526.400159 183.084443 531.792805 183.084443 
Q 534.798954 183.084443 537.520398 182.8594 
Q 540.241841 182.632234 543.047022 182.148179 
L 543.047022 184.199043 
z
" clip-path="url(#p75b05eaca2)" style="fill: #0000ff"/>
   </g>
   <g id="patch_54">
    <path d="M 543.047022 173.587809 
Q 539.695207 174.122938 536.090143 174.391723 
Q 532.48508 174.658066 528.641665 174.658066 
Q 519.95674 174.658066 514.884326 173.064899 
Q 509.811912 171.471731 509.811912 168.74722 
Q 509.811912 165.990943 514.973708 164.409993 
Q 520.142951 162.829044 529.133265 162.829044 
Q 532.596807 162.829044 535.769859 163.044072 
Q 538.950359 163.256658 541.765884 163.676941 
L 541.765884 166.034926 
Q 538.860977 165.494911 535.985865 165.228569 
Q 533.110752 164.959783 530.220742 164.959783 
Q 524.872735 164.959783 521.975277 165.942073 
Q 519.077819 166.92192 519.077819 168.74722 
Q 519.077819 170.555416 521.870998 171.542593 
Q 524.664178 172.527327 529.803628 172.527327 
Q 531.203942 172.527327 532.403147 172.471126 
Q 533.602352 172.412482 534.555757 172.290307 
L 534.555757 170.076488 
L 529.081125 170.076488 
L 529.081125 168.104577 
L 543.047022 168.104577 
L 543.047022 173.587809 
z
" clip-path="url(#p75b05eaca2)" style="fill: #ffa600"/>
   </g>
   <g id="patch_55">
    <path d="M 544.796238 191.457829 
L 578.031348 191.457829 
L 578.031348 191.610374 
L 566.074438 191.610374 
L 566.074438 192.24 
L 556.776336 192.24 
L 556.776336 191.610374 
L 544.796238 191.610374 
L 544.796238 191.457829 
z
" clip-path="url(#p75b05eaca2)" style="fill: #ff0000"/>
   </g>
   <g id="patch_56">
    <path d="M 578.031348 191.349711 
Q 574.679533 191.40377 571.074469 191.430923 
Q 567.469406 191.457829 563.625991 191.457829 
Q 554.941066 191.457829 549.868652 191.296886 
Q 544.796238 191.135942 544.796238 190.860708 
Q 544.796238 190.582266 549.958034 190.422556 
Q 555.127278 190.262847 564.117591 190.262847 
Q 567.581133 190.262847 570.754185 190.284569 
Q 573.934685 190.306045 576.75021 190.348502 
L 576.75021 190.586709 
Q 573.845303 190.532156 570.970191 190.50525 
Q 568.095078 190.478097 565.205069 190.478097 
Q 559.857061 190.478097 556.959603 190.577329 
Q 554.062145 190.676314 554.062145 190.860708 
Q 554.062145 191.043375 556.855324 191.1431 
Q 559.648504 191.242579 564.787954 191.242579 
Q 566.188268 191.242579 567.387473 191.236902 
Q 568.586678 191.230978 569.540083 191.218635 
L 569.540083 190.994993 
L 564.065451 190.994993 
L 564.065451 190.795788 
L 578.031348 190.795788 
L 578.031348 191.349711 
z
" clip-path="url(#p75b05eaca2)" style="fill: #ffa600"/>
   </g>
   <g id="patch_57">
    <path d="M 567.818228 189.997662 
L 555.036539 189.997662 
L 553.018377 190.262847 
L 544.796238 190.262847 
L 556.538268 188.80714 
L 566.289318 188.80714 
L 578.031348 190.262847 
L 569.816004 190.262847 
L 567.818228 189.997662 
z
M 557.075086 189.727486 
L 565.759296 189.727486 
L 561.423986 189.148448 
L 557.075086 189.727486 
z
" clip-path="url(#p75b05eaca2)" style="fill: #008000"/>
   </g>
   <g id="patch_58">
    <path d="M 578.031348 188.698903 
Q 575.251288 188.752553 572.24514 188.779691 
Q 569.238991 188.80714 565.964885 188.80714 
Q 556.201181 188.80714 550.49871 188.603766 
Q 544.796238 188.400391 544.796238 188.052596 
Q 544.796238 187.703553 550.49871 187.500491 
Q 556.201181 187.297116 565.964885 187.297116 
Q 569.238991 187.297116 572.24514 187.324566 
Q 575.251288 187.351703 578.031348 187.405354 
L 578.031348 187.706361 
Q 575.226167 187.635242 572.504724 187.602178 
Q 569.78328 187.569114 566.777131 187.569114 
Q 561.384485 187.569114 558.2946 187.697939 
Q 555.213088 187.826451 555.213088 188.052596 
Q 555.213088 188.277805 558.2946 188.40663 
Q 561.384485 188.535143 566.777131 188.535143 
Q 569.78328 188.535143 572.504724 188.502079 
Q 575.226167 188.468703 578.031348 188.397584 
L 578.031348 188.698903 
z
" clip-path="url(#p75b05eaca2)" style="fill: #0000ff"/>
   </g>
   <g id="patch_59">
    <path d="M 613.015674 191.903938 
Q 609.663859 192.071969 606.058795 192.156368 
Q 602.453732 192.24 598.610317 192.24 
Q 589.925392 192.24 584.852978 191.739744 
Q 579.780564 191.239487 579.780564 190.383988 
Q 579.780564 189.518513 584.94236 189.022093 
Q 590.111604 188.525673 599.101917 188.525673 
Q 602.565459 188.525673 605.738511 188.593193 
Q 608.919011 188.659945 611.734536 188.791914 
L 611.734536 189.532324 
Q 608.829629 189.362759 605.954517 189.279127 
Q 603.079404 189.194728 600.189395 189.194728 
Q 594.841387 189.194728 591.943929 189.503168 
Q 589.046471 189.810841 589.046471 190.383988 
Q 589.046471 190.951763 591.83965 191.261738 
Q 594.63283 191.570945 599.77228 191.570945 
Q 601.172594 191.570945 602.371799 191.553298 
Q 603.571004 191.534884 604.524409 191.496521 
L 604.524409 190.801379 
L 599.049777 190.801379 
L 599.049777 190.182197 
L 613.015674 190.182197 
L 613.015674 191.903938 
z
" clip-path="url(#p75b05eaca2)" style="fill: #ffa600"/>
   </g>
   <g id="patch_60">
    <path d="M 613.015674 188.11215 
Q 610.235614 188.317124 607.229466 188.420803 
Q 604.223317 188.525673 600.949211 188.525673 
Q 591.185507 188.525673 585.483036 187.748679 
Q 579.780564 186.971685 579.780564 185.64293 
Q 579.780564 184.309409 585.483036 183.533607 
Q 591.185507 182.756613 600.949211 182.756613 
Q 604.223317 182.756613 607.229466 182.861483 
Q 610.235614 182.965162 613.015674 183.170135 
L 613.015674 184.320134 
Q 610.210493 184.048425 607.48905 183.922103 
Q 604.767606 183.795782 601.761457 183.795782 
Q 596.368811 183.795782 593.278926 184.287958 
Q 590.197414 184.778942 590.197414 185.64293 
Q 590.197414 186.503344 593.278926 186.99552 
Q 596.368811 187.486503 601.761457 187.486503 
Q 604.767606 187.486503 607.48905 187.360182 
Q 610.210493 187.23267 613.015674 186.96096 
L 613.015674 188.11215 
z
" clip-path="url(#p75b05eaca2)" style="fill: #0000ff"/>
   </g>
   <g id="patch_61">
    <path d="M 579.780564 175.881157 
L 613.015674 175.881157 
L 613.015674 177.222062 
L 601.058764 177.222062 
L 601.058764 182.756613 
L 591.760662 182.756613 
L 591.760662 177.222062 
L 579.780564 177.222062 
L 579.780564 175.881157 
z
" clip-path="url(#p75b05eaca2)" style="fill: #ff0000"/>
   </g>
   <g id="patch_62">
    <path d="M 602.802554 172.310829 
L 590.020865 172.310829 
L 588.002703 175.881157 
L 579.780564 175.881157 
L 591.522594 156.282156 
L 601.273644 156.282156 
L 613.015674 175.881157 
L 604.80033 175.881157 
L 602.802554 172.310829 
z
M 592.059412 168.673294 
L 600.743622 168.673294 
L 596.408312 160.877378 
L 592.059412 168.673294 
z
" clip-path="url(#p75b05eaca2)" style="fill: #008000"/>
   </g>
   <g id="patch_63">
    <path d="M 648 192.071254 
Q 644.648185 192.155627 641.043121 192.198006 
Q 637.438058 192.24 633.594643 192.24 
Q 624.909718 192.24 619.837304 191.988807 
Q 614.76489 191.737615 614.76489 191.308044 
Q 614.76489 190.873465 619.926686 190.624199 
Q 625.09593 190.374933 634.086243 190.374933 
Q 637.549785 190.374933 640.722837 190.408836 
Q 643.903337 190.442354 646.718862 190.508619 
L 646.718862 190.8804 
Q 643.813955 190.795257 640.938843 190.753263 
Q 638.06373 190.710884 635.173721 190.710884 
Q 629.825713 190.710884 626.928255 190.86576 
Q 624.030797 191.020251 624.030797 191.308044 
Q 624.030797 191.59314 626.823976 191.748787 
Q 629.617156 191.904049 634.756606 191.904049 
Q 636.15692 191.904049 637.356125 191.895188 
Q 638.55533 191.885942 639.508735 191.866678 
L 639.508735 191.517628 
L 634.034103 191.517628 
L 634.034103 191.20672 
L 648 191.20672 
L 648 192.071254 
z
" clip-path="url(#p75b05eaca2)" style="fill: #ffa600"/>
   </g>
   <g id="patch_64">
    <path d="M 637.78688 189.940489 
L 625.005191 189.940489 
L 622.987029 190.374933 
L 614.76489 190.374933 
L 626.50692 187.990092 
L 636.25797 187.990092 
L 648 190.374933 
L 639.784656 190.374933 
L 637.78688 189.940489 
z
M 627.043738 189.497867 
L 635.727948 189.497867 
L 631.392638 188.549247 
L 627.043738 189.497867 
z
" clip-path="url(#p75b05eaca2)" style="fill: #008000"/>
   </g>
   <g id="patch_65">
    <path d="M 648 187.667929 
Q 645.21994 187.827618 642.213792 187.908391 
Q 639.207643 187.990092 635.933537 187.990092 
Q 626.169833 187.990092 620.467362 187.384759 
Q 614.76489 186.779426 614.76489 185.744231 
Q 614.76489 184.705324 620.467362 184.100919 
Q 626.169833 183.495585 635.933537 183.495585 
Q 639.207643 183.495585 642.213792 183.577287 
Q 645.21994 183.65806 648 183.817749 
L 648 184.713679 
Q 645.194819 184.501998 642.473376 184.403585 
Q 639.751932 184.305172 636.745783 184.305172 
Q 631.353137 184.305172 628.263252 184.688612 
Q 625.18174 185.071123 625.18174 185.744231 
Q 625.18174 186.414555 628.263252 186.797994 
Q 631.353137 187.180505 636.745783 187.180505 
Q 639.751932 187.180505 642.473376 187.082092 
Q 645.194819 186.982751 648 186.77107 
L 648 187.667929 
z
" clip-path="url(#p75b05eaca2)" style="fill: #0000ff"/>
   </g>
   <g id="patch_66">
    <path d="M 614.76489 178.328431 
L 648 178.328431 
L 648 179.33617 
L 636.04309 179.33617 
L 636.04309 183.495585 
L 626.744988 183.495585 
L 626.744988 179.33617 
L 614.76489 179.33617 
L 614.76489 178.328431 
z
" clip-path="url(#p75b05eaca2)" style="fill: #ff0000"/>
   </g>
   <g id="matplotlib.axis_1">
    <g id="xtick_1">
     <g id="line2d_2">
      <defs>
       <path id="mdb4827ce62" d="M 0 0 
L 0 3.5 
" style="stroke: #000000; stroke-width: 0.8"/>
      </defs>
      <g>
       <use xlink:href="#mdb4827ce62" x="106.617555" y="192.24" style="stroke: #000000; stroke-width: 0.8"/>
      </g>
     </g>
     <g id="text_1">
      <!-- 0 -->
      <g transform="translate(103.436305 206.838437) scale(0.1 -0.1)">
       <defs>
        <path id="DejaVuSans-30" d="M 2034 4250 
Q 1547 4250 1301 3770 
Q 1056 3291 1056 2328 
Q 1056 1369 1301 889 
Q 1547 409 2034 409 
Q 2525 409 2770 889 
Q 3016 1369 3016 2328 
Q 3016 3291 2770 3770 
Q 2525 4250 2034 4250 
z
M 2034 4750 
Q 2819 4750 3233 4129 
Q 3647 3509 3647 2328 
Q 3647 1150 3233 529 
Q 2819 -91 2034 -91 
Q 1250 -91 836 529 
Q 422 1150 422 2328 
Q 422 3509 836 4129 
Q 1250 4750 2034 4750 
z
" transform="scale(0.015625)"/>
       </defs>
       <use xlink:href="#DejaVuSans-30"/>
      </g>
     </g>
    </g>
    <g id="xtick_2">
     <g id="line2d_3">
      <g>
       <use xlink:href="#mdb4827ce62" x="176.586207" y="192.24" style="stroke: #000000; stroke-width: 0.8"/>
      </g>
     </g>
     <g id="text_2">
      <!-- 2 -->
      <g transform="translate(173.404957 206.838437) scale(0.1 -0.1)">
       <defs>
        <path id="DejaVuSans-32" d="M 1228 531 
L 3431 531 
L 3431 0 
L 469 0 
L 469 531 
Q 828 903 1448 1529 
Q 2069 2156 2228 2338 
Q 2531 2678 2651 2914 
Q 2772 3150 2772 3378 
Q 2772 3750 2511 3984 
Q 2250 4219 1831 4219 
Q 1534 4219 1204 4116 
Q 875 4013 500 3803 
L 500 4441 
Q 881 4594 1212 4672 
Q 1544 4750 1819 4750 
Q 2544 4750 2975 4387 
Q 3406 4025 3406 3419 
Q 3406 3131 3298 2873 
Q 3191 2616 2906 2266 
Q 2828 2175 2409 1742 
Q 1991 1309 1228 531 
z
" transform="scale(0.015625)"/>
       </defs>
       <use xlink:href="#DejaVuSans-32"/>
      </g>
     </g>
    </g>
    <g id="xtick_3">
     <g id="line2d_4">
      <g>
       <use xlink:href="#mdb4827ce62" x="246.554859" y="192.24" style="stroke: #000000; stroke-width: 0.8"/>
      </g>
     </g>
     <g id="text_3">
      <!-- 4 -->
      <g transform="translate(243.373609 206.838437) scale(0.1 -0.1)">
       <defs>
        <path id="DejaVuSans-34" d="M 2419 4116 
L 825 1625 
L 2419 1625 
L 2419 4116 
z
M 2253 4666 
L 3047 4666 
L 3047 1625 
L 3713 1625 
L 3713 1100 
L 3047 1100 
L 3047 0 
L 2419 0 
L 2419 1100 
L 313 1100 
L 313 1709 
L 2253 4666 
z
" transform="scale(0.015625)"/>
       </defs>
       <use xlink:href="#DejaVuSans-34"/>
      </g>
     </g>
    </g>
    <g id="xtick_4">
     <g id="line2d_5">
      <g>
       <use xlink:href="#mdb4827ce62" x="316.523511" y="192.24" style="stroke: #000000; stroke-width: 0.8"/>
      </g>
     </g>
     <g id="text_4">
      <!-- 6 -->
      <g transform="translate(313.342261 206.838437) scale(0.1 -0.1)">
       <defs>
        <path id="DejaVuSans-36" d="M 2113 2584 
Q 1688 2584 1439 2293 
Q 1191 2003 1191 1497 
Q 1191 994 1439 701 
Q 1688 409 2113 409 
Q 2538 409 2786 701 
Q 3034 994 3034 1497 
Q 3034 2003 2786 2293 
Q 2538 2584 2113 2584 
z
M 3366 4563 
L 3366 3988 
Q 3128 4100 2886 4159 
Q 2644 4219 2406 4219 
Q 1781 4219 1451 3797 
Q 1122 3375 1075 2522 
Q 1259 2794 1537 2939 
Q 1816 3084 2150 3084 
Q 2853 3084 3261 2657 
Q 3669 2231 3669 1497 
Q 3669 778 3244 343 
Q 2819 -91 2113 -91 
Q 1303 -91 875 529 
Q 447 1150 447 2328 
Q 447 3434 972 4092 
Q 1497 4750 2381 4750 
Q 2619 4750 2861 4703 
Q 3103 4656 3366 4563 
z
" transform="scale(0.015625)"/>
       </defs>
       <use xlink:href="#DejaVuSans-36"/>
      </g>
     </g>
    </g>
    <g id="xtick_5">
     <g id="line2d_6">
      <g>
       <use xlink:href="#mdb4827ce62" x="386.492163" y="192.24" style="stroke: #000000; stroke-width: 0.8"/>
      </g>
     </g>
     <g id="text_5">
      <!-- 8 -->
      <g transform="translate(383.310913 206.838437) scale(0.1 -0.1)">
       <defs>
        <path id="DejaVuSans-38" d="M 2034 2216 
Q 1584 2216 1326 1975 
Q 1069 1734 1069 1313 
Q 1069 891 1326 650 
Q 1584 409 2034 409 
Q 2484 409 2743 651 
Q 3003 894 3003 1313 
Q 3003 1734 2745 1975 
Q 2488 2216 2034 2216 
z
M 1403 2484 
Q 997 2584 770 2862 
Q 544 3141 544 3541 
Q 544 4100 942 4425 
Q 1341 4750 2034 4750 
Q 2731 4750 3128 4425 
Q 3525 4100 3525 3541 
Q 3525 3141 3298 2862 
Q 3072 2584 2669 2484 
Q 3125 2378 3379 2068 
Q 3634 1759 3634 1313 
Q 3634 634 3220 271 
Q 2806 -91 2034 -91 
Q 1263 -91 848 271 
Q 434 634 434 1313 
Q 434 1759 690 2068 
Q 947 2378 1403 2484 
z
M 1172 3481 
Q 1172 3119 1398 2916 
Q 1625 2713 2034 2713 
Q 2441 2713 2670 2916 
Q 2900 3119 2900 3481 
Q 2900 3844 2670 4047 
Q 2441 4250 2034 4250 
Q 1625 4250 1398 4047 
Q 1172 3844 1172 3481 
z
" transform="scale(0.015625)"/>
       </defs>
       <use xlink:href="#DejaVuSans-38"/>
      </g>
     </g>
    </g>
    <g id="xtick_6">
     <g id="line2d_7">
      <g>
       <use xlink:href="#mdb4827ce62" x="456.460815" y="192.24" style="stroke: #000000; stroke-width: 0.8"/>
      </g>
     </g>
     <g id="text_6">
      <!-- 10 -->
      <g transform="translate(450.098315 206.838437) scale(0.1 -0.1)">
       <defs>
        <path id="DejaVuSans-31" d="M 794 531 
L 1825 531 
L 1825 4091 
L 703 3866 
L 703 4441 
L 1819 4666 
L 2450 4666 
L 2450 531 
L 3481 531 
L 3481 0 
L 794 0 
L 794 531 
z
" transform="scale(0.015625)"/>
       </defs>
       <use xlink:href="#DejaVuSans-31"/>
       <use xlink:href="#DejaVuSans-30" x="63.623047"/>
      </g>
     </g>
    </g>
    <g id="xtick_7">
     <g id="line2d_8">
      <g>
       <use xlink:href="#mdb4827ce62" x="526.429467" y="192.24" style="stroke: #000000; stroke-width: 0.8"/>
      </g>
     </g>
     <g id="text_7">
      <!-- 12 -->
      <g transform="translate(520.066967 206.838437) scale(0.1 -0.1)">
       <use xlink:href="#DejaVuSans-31"/>
       <use xlink:href="#DejaVuSans-32" x="63.623047"/>
      </g>
     </g>
    </g>
    <g id="xtick_8">
     <g id="line2d_9">
      <g>
       <use xlink:href="#mdb4827ce62" x="596.398119" y="192.24" style="stroke: #000000; stroke-width: 0.8"/>
      </g>
     </g>
     <g id="text_8">
      <!-- 14 -->
      <g transform="translate(590.035619 206.838437) scale(0.1 -0.1)">
       <use xlink:href="#DejaVuSans-31"/>
       <use xlink:href="#DejaVuSans-34" x="63.623047"/>
      </g>
     </g>
    </g>
   </g>
   <g id="matplotlib.axis_2">
    <g id="ytick_1">
     <g id="line2d_10">
      <defs>
       <path id="me49f90a34b" d="M 0 0 
L -3.5 0 
" style="stroke: #000000; stroke-width: 0.8"/>
      </defs>
      <g>
       <use xlink:href="#me49f90a34b" x="90" y="192.24" style="stroke: #000000; stroke-width: 0.8"/>
      </g>
     </g>
     <g id="text_9">
      <!-- 0.0 -->
      <g transform="translate(67.096875 196.039219) scale(0.1 -0.1)">
       <defs>
        <path id="DejaVuSans-2e" d="M 684 794 
L 1344 794 
L 1344 0 
L 684 0 
L 684 794 
z
" transform="scale(0.015625)"/>
       </defs>
       <use xlink:href="#DejaVuSans-30"/>
       <use xlink:href="#DejaVuSans-2e" x="63.623047"/>
       <use xlink:href="#DejaVuSans-30" x="95.410156"/>
      </g>
     </g>
    </g>
    <g id="ytick_2">
     <g id="line2d_11">
      <g>
       <use xlink:href="#me49f90a34b" x="90" y="168.627191" style="stroke: #000000; stroke-width: 0.8"/>
      </g>
     </g>
     <g id="text_10">
      <!-- 0.2 -->
      <g transform="translate(67.096875 172.426409) scale(0.1 -0.1)">
       <use xlink:href="#DejaVuSans-30"/>
       <use xlink:href="#DejaVuSans-2e" x="63.623047"/>
       <use xlink:href="#DejaVuSans-32" x="95.410156"/>
      </g>
     </g>
    </g>
    <g id="ytick_3">
     <g id="line2d_12">
      <g>
       <use xlink:href="#me49f90a34b" x="90" y="145.014381" style="stroke: #000000; stroke-width: 0.8"/>
      </g>
     </g>
     <g id="text_11">
      <!-- 0.4 -->
      <g transform="translate(67.096875 148.8136) scale(0.1 -0.1)">
       <use xlink:href="#DejaVuSans-30"/>
       <use xlink:href="#DejaVuSans-2e" x="63.623047"/>
       <use xlink:href="#DejaVuSans-34" x="95.410156"/>
      </g>
     </g>
    </g>
    <g id="ytick_4">
     <g id="line2d_13">
      <g>
       <use xlink:href="#me49f90a34b" x="90" y="121.401572" style="stroke: #000000; stroke-width: 0.8"/>
      </g>
     </g>
     <g id="text_12">
      <!-- 0.6 -->
      <g transform="translate(67.096875 125.200791) scale(0.1 -0.1)">
       <use xlink:href="#DejaVuSans-30"/>
       <use xlink:href="#DejaVuSans-2e" x="63.623047"/>
       <use xlink:href="#DejaVuSans-36" x="95.410156"/>
      </g>
     </g>
    </g>
    <g id="ytick_5">
     <g id="line2d_14">
      <g>
       <use xlink:href="#me49f90a34b" x="90" y="97.788762" style="stroke: #000000; stroke-width: 0.8"/>
      </g>
     </g>
     <g id="text_13">
      <!-- 0.8 -->
      <g transform="translate(67.096875 101.587981) scale(0.1 -0.1)">
       <use xlink:href="#DejaVuSans-30"/>
       <use xlink:href="#DejaVuSans-2e" x="63.623047"/>
       <use xlink:href="#DejaVuSans-38" x="95.410156"/>
      </g>
     </g>
    </g>
    <g id="ytick_6">
     <g id="line2d_15">
      <g>
       <use xlink:href="#me49f90a34b" x="90" y="74.175953" style="stroke: #000000; stroke-width: 0.8"/>
      </g>
     </g>
     <g id="text_14">
      <!-- 1.0 -->
      <g transform="translate(67.096875 77.975172) scale(0.1 -0.1)">
       <use xlink:href="#DejaVuSans-31"/>
       <use xlink:href="#DejaVuSans-2e" x="63.623047"/>
       <use xlink:href="#DejaVuSans-30" x="95.410156"/>
      </g>
     </g>
    </g>
    <g id="ytick_7">
     <g id="line2d_16">
      <g>
       <use xlink:href="#me49f90a34b" x="90" y="50.563144" style="stroke: #000000; stroke-width: 0.8"/>
      </g>
     </g>
     <g id="text_15">
      <!-- 1.2 -->
      <g transform="translate(67.096875 54.362362) scale(0.1 -0.1)">
       <use xlink:href="#DejaVuSans-31"/>
       <use xlink:href="#DejaVuSans-2e" x="63.623047"/>
       <use xlink:href="#DejaVuSans-32" x="95.410156"/>
      </g>
     </g>
    </g>
    <g id="ytick_8">
     <g id="line2d_17">
      <g>
       <use xlink:href="#me49f90a34b" x="90" y="26.950334" style="stroke: #000000; stroke-width: 0.8"/>
      </g>
     </g>
     <g id="text_16">
      <!-- 1.4 -->
      <g transform="translate(67.096875 30.749553) scale(0.1 -0.1)">
       <use xlink:href="#DejaVuSans-31"/>
       <use xlink:href="#DejaVuSans-2e" x="63.623047"/>
       <use xlink:href="#DejaVuSans-34" x="95.410156"/>
      </g>
     </g>
    </g>
   </g>
  </g>
 </g>
 <defs>
  <clipPath id="p75b05eaca2">
   <rect x="90" y="25.92" width="558" height="166.32"/>
  </clipPath>
 </defs>
</svg>
