<?xml version="1.0" encoding="utf-8" standalone="no"?>
<!DOCTYPE svg PUBLIC "-//W3C//DTD SVG 1.1//EN"
  "http://www.w3.org/Graphics/SVG/1.1/DTD/svg11.dtd">
<svg xmlns:xlink="http://www.w3.org/1999/xlink" width="720pt" height="216pt" viewBox="0 0 720 216" xmlns="http://www.w3.org/2000/svg" version="1.1">
 <metadata>
  <rdf:RDF xmlns:dc="http://purl.org/dc/elements/1.1/" xmlns:cc="http://creativecommons.org/ns#" xmlns:rdf="http://www.w3.org/1999/02/22-rdf-syntax-ns#">
   <cc:Work>
    <dc:type rdf:resource="http://purl.org/dc/dcmitype/StillImage"/>
    <dc:date>2025-12-17T10:23:08.189951</dc:date>
    <dc:format>image/svg+xml</dc:format>
    <dc:creator>
     <cc:Agent>
      <dc:title>Matplotlib v3.8.2, https://matplotlib.org/</dc:title>
     </cc:Agent>
    </dc:creator>
   </cc:Work>
  </rdf:RDF>
 </metadata>
 <defs>
  <style type="text/css">*{stroke-linejoin: round; stroke-linecap: butt}</style>
 </defs>
 <g id="figure_1">
  <g id="patch_1">
   <path d="M 0 216 
L 720 216 
L 720 0 
L 0 0 
z
" style="fill: #ffffff"/>
  </g>
  <g id="axes_1">
   <g id="patch_2">
    <path d="M 90 192.24 
L 648 192.24 
L 648 25.92 
L 90 25.92 
z
" style="fill: #ffffff"/>
   </g>
   <g id="line2d_1">
    <path d="M 90 192.24 
L 648 192.24 
" clip-path="url(#p6e7d21c8e9)" style="fill: none; stroke: #000000; stroke-width: 0.5; stroke-linecap: square"/>
   </g>
   <g id="patch_3">
    <path d="M 102.260459 191.927147 
L 95.453516 191.927147 
L 94.378735 192.24 
L 90 192.24 
L 96.253268 190.52262 
L 101.446231 190.52262 
L 107.699499 192.24 
L 103.324383 192.24 
L 102.260459 191.927147 
z
M 96.539153 191.608405 
L 101.163965 191.608405 
L 98.855178 190.925281 
L 96.539153 191.608405 
z
" clip-path="url(#p6e7d21c8e9)" style="fill: #008000"/>
   </g>
   <g id="patch_4">
    <path d="M 107.699499 189.823394 
Q 105.914476 190.173007 103.994584 190.348612 
Q 102.074692 190.52262 100.027865 190.52262 
Q 95.402671 190.52262 92.701335 189.481762 
Q 90 188.440904 90 186.66091 
Q 90 184.860162 92.748936 183.827286 
Q 95.501839 182.794411 100.289668 182.794411 
Q 102.134193 182.794411 103.824015 182.934894 
Q 105.517804 183.073782 107.017224 183.348364 
L 107.017224 184.888897 
Q 105.470203 184.536091 103.93905 184.362083 
Q 102.407896 184.186478 100.868809 184.186478 
Q 98.020705 184.186478 96.477652 184.828234 
Q 94.934598 185.468393 94.934598 186.66091 
Q 94.934598 187.842252 96.422118 188.4872 
Q 97.909637 189.130553 100.646673 189.130553 
Q 101.392416 189.130553 102.031058 189.093835 
Q 102.6697 189.055521 103.17744 188.975701 
L 103.17744 187.529356 
L 100.261901 187.529356 
L 100.261901 186.241055 
L 107.699499 186.241055 
L 107.699499 189.823394 
z
" clip-path="url(#p6e7d21c8e9)" style="fill: #ffa600"/>
   </g>
   <g id="patch_5">
    <path d="M 90 161.327162 
L 107.699499 161.327162 
L 107.699499 165.513873 
L 101.331796 165.513873 
L 101.331796 182.794411 
L 96.380052 182.794411 
L 96.380052 165.513873 
L 90 165.513873 
L 90 161.327162 
z
" clip-path="url(#p6e7d21c8e9)" style="fill: #ff0000"/>
   </g>
   <g id="patch_6">
    <path d="M 107.699499 159.295999 
Q 106.218967 160.3028 104.618029 160.812054 
Q 103.017092 161.327162 101.273453 161.327162 
Q 96.073751 161.327162 93.036876 157.510683 
Q 90 153.694205 90 147.167558 
Q 90 140.617497 93.036876 136.806872 
Q 96.073751 132.990393 101.273453 132.990393 
Q 103.017092 132.990393 104.618029 133.505501 
Q 106.218967 134.014755 107.699499 135.021556 
L 107.699499 140.670179 
Q 106.205588 139.335582 104.756272 138.715111 
Q 103.306955 138.094641 101.706018 138.094641 
Q 98.834142 138.094641 97.18861 140.512134 
Q 95.547538 142.923774 95.547538 147.167558 
Q 95.547538 151.393781 97.18861 153.811274 
Q 98.834142 156.222914 101.706018 156.222914 
Q 103.306955 156.222914 104.756272 155.602444 
Q 106.205588 154.97612 107.699499 153.641523 
L 107.699499 159.295999 
z
" clip-path="url(#p6e7d21c8e9)" style="fill: #0000ff"/>
   </g>
   <g id="patch_7">
    <path d="M 126.330551 191.947629 
Q 124.850018 192.09255 123.249081 192.165854 
Q 121.648144 192.24 119.904504 192.24 
Q 114.704803 192.24 111.667927 191.690645 
Q 108.631052 191.14129 108.631052 190.201826 
Q 108.631052 189.258992 111.667927 188.71048 
Q 114.704803 188.161125 119.904504 188.161125 
Q 121.648144 188.161125 123.249081 188.235271 
Q 124.850018 188.308575 126.330551 188.453496 
L 126.330551 189.266575 
Q 124.83664 189.07447 123.387324 188.985157 
Q 121.938007 188.895845 120.33707 188.895845 
Q 117.465193 188.895845 115.819662 189.243826 
Q 114.178589 189.590964 114.178589 190.201826 
Q 114.178589 190.810161 115.819662 191.158142 
Q 117.465193 191.50528 120.33707 191.50528 
Q 121.938007 191.50528 123.387324 191.415968 
Q 124.83664 191.325813 126.330551 191.133707 
L 126.330551 191.947629 
z
" clip-path="url(#p6e7d21c8e9)" style="fill: #0000ff"/>
   </g>
   <g id="patch_8">
    <path d="M 120.89151 187.343777 
L 114.084567 187.343777 
L 113.009787 188.161125 
L 108.631052 188.161125 
L 114.88432 183.674363 
L 120.077283 183.674363 
L 126.330551 188.161125 
L 121.955434 188.161125 
L 120.89151 187.343777 
z
M 115.170204 186.511043 
L 119.795017 186.511043 
L 117.48623 184.726338 
L 115.170204 186.511043 
z
" clip-path="url(#p6e7d21c8e9)" style="fill: #008000"/>
   </g>
   <g id="patch_9">
    <path d="M 108.631052 177.963938 
L 126.330551 177.963938 
L 126.330551 179.07763 
L 119.962847 179.07763 
L 119.962847 183.674363 
L 115.011104 183.674363 
L 115.011104 179.07763 
L 108.631052 179.07763 
L 108.631052 177.963938 
z
" clip-path="url(#p6e7d21c8e9)" style="fill: #ff0000"/>
   </g>
   <g id="patch_10">
    <path d="M 126.330551 176.709185 
Q 124.545527 177.336561 122.625636 177.651682 
Q 120.705744 177.963938 118.658917 177.963938 
Q 114.033723 177.963938 111.332387 176.096132 
Q 108.631052 174.228326 108.631052 171.034148 
Q 108.631052 167.802729 111.379988 165.949246 
Q 114.132891 164.095764 118.92072 164.095764 
Q 120.765244 164.095764 122.455067 164.34786 
Q 124.148856 164.597092 125.648275 165.089826 
L 125.648275 167.854294 
Q 124.101255 167.221188 122.570102 166.908932 
Q 121.038948 166.593811 119.499861 166.593811 
Q 116.651757 166.593811 115.108704 167.745434 
Q 113.56565 168.894192 113.56565 171.034148 
Q 113.56565 173.154051 115.053169 174.311403 
Q 116.540689 175.465891 119.277725 175.465891 
Q 120.023468 175.465891 120.66211 175.400002 
Q 121.300752 175.331248 121.808492 175.188011 
L 121.808492 172.592563 
L 118.892953 172.592563 
L 118.892953 170.280723 
L 126.330551 170.280723 
L 126.330551 176.709185 
z
" clip-path="url(#p6e7d21c8e9)" style="fill: #ffa600"/>
   </g>
   <g id="patch_11">
    <path d="M 144.961603 192.031393 
Q 143.176579 192.135697 141.256687 192.188086 
Q 139.336795 192.24 137.289969 192.24 
Q 132.664774 192.24 129.963439 191.929471 
Q 127.262104 191.618942 127.262104 191.087899 
Q 127.262104 190.550665 130.01104 190.242517 
Q 132.763942 189.934369 137.551772 189.934369 
Q 139.396296 189.934369 141.086118 189.976281 
Q 142.779907 190.017717 144.279327 190.099635 
L 144.279327 190.559237 
Q 142.732307 190.453981 141.201153 190.402068 
Q 139.67 190.349678 138.130913 190.349678 
Q 135.282809 190.349678 133.739755 190.541139 
Q 132.196702 190.732124 132.196702 191.087899 
Q 132.196702 191.44034 133.684221 191.632754 
Q 135.171741 191.824691 137.908777 191.824691 
Q 138.65452 191.824691 139.293162 191.813737 
Q 139.931803 191.802306 140.439543 191.778493 
L 140.439543 191.346991 
L 137.524005 191.346991 
L 137.524005 190.962639 
L 144.961603 190.962639 
L 144.961603 192.031393 
z
" clip-path="url(#p6e7d21c8e9)" style="fill: #ffa600"/>
   </g>
   <g id="patch_12">
    <path d="M 144.961603 189.576292 
Q 143.48107 189.753783 141.880133 189.84356 
Q 140.279195 189.934369 138.535556 189.934369 
Q 133.335855 189.934369 130.298979 189.261556 
Q 127.262104 188.588743 127.262104 187.43815 
Q 127.262104 186.28343 130.298979 185.611648 
Q 133.335855 184.938835 138.535556 184.938835 
Q 140.279195 184.938835 141.880133 185.029644 
Q 143.48107 185.119422 144.961603 185.296912 
L 144.961603 186.292717 
Q 143.467692 186.057439 142.018375 185.948055 
Q 140.569059 185.838671 138.968121 185.838671 
Q 136.096245 185.838671 134.450713 186.264855 
Q 132.809641 186.690007 132.809641 187.43815 
Q 132.809641 188.183198 134.450713 188.609381 
Q 136.096245 189.034533 138.968121 189.034533 
Q 140.569059 189.034533 142.018375 188.925149 
Q 143.467692 188.814734 144.961603 188.579456 
L 144.961603 189.576292 
z
" clip-path="url(#p6e7d21c8e9)" style="fill: #0000ff"/>
   </g>
   <g id="patch_13">
    <path d="M 139.522562 183.468786 
L 132.715619 183.468786 
L 131.640839 184.938835 
L 127.262104 184.938835 
L 133.515372 176.869127 
L 138.708335 176.869127 
L 144.961603 184.938835 
L 140.586486 184.938835 
L 139.522562 183.468786 
z
M 133.801256 181.971064 
L 138.426069 181.971064 
L 136.117281 178.761167 
L 133.801256 181.971064 
z
" clip-path="url(#p6e7d21c8e9)" style="fill: #008000"/>
   </g>
   <g id="patch_14">
    <path d="M 127.262104 165.725244 
L 144.961603 165.725244 
L 144.961603 167.898612 
L 138.593899 167.898612 
L 138.593899 176.869127 
L 133.642156 176.869127 
L 133.642156 167.898612 
L 127.262104 167.898612 
L 127.262104 165.725244 
z
" clip-path="url(#p6e7d21c8e9)" style="fill: #ff0000"/>
   </g>
   <g id="patch_15">
    <path d="M 145.893155 187.671942 
L 163.592654 187.671942 
L 163.592654 188.562841 
L 157.224951 188.562841 
L 157.224951 192.24 
L 152.273207 192.24 
L 152.273207 188.562841 
L 145.893155 188.562841 
L 145.893155 187.671942 
z
" clip-path="url(#p6e7d21c8e9)" style="fill: #ff0000"/>
   </g>
   <g id="patch_16">
    <path d="M 163.592654 187.235361 
Q 162.112122 187.451765 160.511185 187.561224 
Q 158.910247 187.671942 157.166608 187.671942 
Q 151.966906 187.671942 148.930031 186.851623 
Q 145.893155 186.031304 145.893155 184.628458 
Q 145.893155 183.220579 148.930031 182.401518 
Q 151.966906 181.581199 157.166608 181.581199 
Q 158.910247 181.581199 160.511185 181.691917 
Q 162.112122 181.801376 163.592654 182.01778 
L 163.592654 183.231902 
Q 162.098744 182.945042 160.649427 182.811677 
Q 159.200111 182.678313 157.599173 182.678313 
Q 154.727297 182.678313 153.081765 183.197932 
Q 151.440693 183.716293 151.440693 184.628458 
Q 151.440693 185.536848 153.081765 186.056467 
Q 154.727297 186.574828 157.599173 186.574828 
Q 159.200111 186.574828 160.649427 186.441464 
Q 162.098744 186.306841 163.592654 186.019981 
L 163.592654 187.235361 
z
" clip-path="url(#p6e7d21c8e9)" style="fill: #0000ff"/>
   </g>
   <g id="patch_17">
    <path d="M 158.153614 177.975181 
L 151.346671 177.975181 
L 150.27189 181.581199 
L 145.893155 181.581199 
L 152.146423 161.786282 
L 157.339386 161.786282 
L 163.592654 181.581199 
L 159.217538 181.581199 
L 158.153614 177.975181 
z
M 152.432308 174.301285 
L 157.057121 174.301285 
L 154.748333 166.427439 
L 152.432308 174.301285 
z
" clip-path="url(#p6e7d21c8e9)" style="fill: #008000"/>
   </g>
   <g id="patch_18">
    <path d="M 163.592654 155.035635 
Q 161.807631 158.410959 159.887739 160.106327 
Q 157.967847 161.786282 155.92102 161.786282 
Q 151.295826 161.786282 148.594491 151.737373 
Q 145.893155 141.688464 145.893155 124.503597 
Q 145.893155 107.118368 148.642091 97.146521 
Q 151.394994 87.174674 156.182824 87.174674 
Q 158.027348 87.174674 159.71717 88.530968 
Q 161.410959 89.871851 162.910379 92.52279 
L 162.910379 107.395792 
Q 161.363358 103.989643 159.832205 102.309687 
Q 158.301052 100.614319 156.761965 100.614319 
Q 153.913861 100.614319 152.370807 106.810119 
Q 150.827753 112.990506 150.827753 124.503597 
Q 150.827753 135.9088 152.315273 142.135425 
Q 153.802792 148.346637 156.539828 148.346637 
Q 157.285572 148.346637 157.924213 147.992151 
Q 158.562855 147.622253 159.070595 146.851631 
L 159.070595 132.887963 
L 156.155057 132.887963 
L 156.155057 120.450126 
L 163.592654 120.450126 
L 163.592654 155.035635 
z
" clip-path="url(#p6e7d21c8e9)" style="fill: #ffa600"/>
   </g>
   <g id="patch_19">
    <path d="M 164.524207 188.029591 
L 182.223706 188.029591 
L 182.223706 188.850738 
L 175.856003 188.850738 
L 175.856003 192.24 
L 170.904259 192.24 
L 170.904259 188.850738 
L 164.524207 188.850738 
L 164.524207 188.029591 
z
" clip-path="url(#p6e7d21c8e9)" style="fill: #ff0000"/>
   </g>
   <g id="patch_20">
    <path d="M 176.784666 186.933869 
L 169.977723 186.933869 
L 168.902942 188.029591 
L 164.524207 188.029591 
L 170.777475 182.014722 
L 175.970438 182.014722 
L 182.223706 188.029591 
L 177.84859 188.029591 
L 176.784666 186.933869 
z
M 171.06336 185.817522 
L 175.688172 185.817522 
L 173.379385 183.42498 
L 171.06336 185.817522 
z
" clip-path="url(#p6e7d21c8e9)" style="fill: #008000"/>
   </g>
   <g id="patch_21">
    <path d="M 182.223706 181.198409 
Q 180.438683 181.606565 178.518791 181.811575 
Q 176.598899 182.014722 174.552072 182.014722 
Q 169.926878 182.014722 167.225542 180.799571 
Q 164.524207 179.584421 164.524207 177.506365 
Q 164.524207 175.40408 167.273143 174.198249 
Q 170.026046 172.992417 174.813876 172.992417 
Q 176.6584 172.992417 178.348222 173.156425 
Q 180.042011 173.318569 181.541431 173.63913 
L 181.541431 175.437627 
Q 179.99441 175.025744 178.463257 174.822597 
Q 176.932103 174.617587 175.393016 174.617587 
Q 172.544912 174.617587 171.001859 175.366806 
Q 169.458805 176.11416 169.458805 177.506365 
Q 169.458805 178.885523 170.946325 179.638469 
Q 172.433844 180.389551 175.17088 180.389551 
Q 175.916623 180.389551 176.555265 180.346685 
Q 177.193907 180.301956 177.701647 180.20877 
L 177.701647 178.520233 
L 174.786108 178.520233 
L 174.786108 177.016205 
L 182.223706 177.016205 
L 182.223706 181.198409 
z
" clip-path="url(#p6e7d21c8e9)" style="fill: #ffa600"/>
   </g>
   <g id="patch_22">
    <path d="M 182.223706 171.397191 
Q 180.743174 172.187908 179.142236 172.587864 
Q 177.541299 172.992417 175.79766 172.992417 
Q 170.597958 172.992417 167.561083 169.995046 
Q 164.524207 166.997676 164.524207 161.871804 
Q 164.524207 156.727543 167.561083 153.73477 
Q 170.597958 150.737399 175.79766 150.737399 
Q 177.541299 150.737399 179.142236 151.141952 
Q 180.743174 151.541908 182.223706 152.332626 
L 182.223706 156.768918 
Q 180.729795 155.720758 179.280479 155.233455 
Q 177.831162 154.746153 176.230225 154.746153 
Q 173.358349 154.746153 171.712817 156.644794 
Q 170.071745 158.538838 170.071745 161.871804 
Q 170.071745 165.190978 171.712817 167.089619 
Q 173.358349 168.983664 176.230225 168.983664 
Q 177.831162 168.983664 179.280479 168.496361 
Q 180.729795 168.004461 182.223706 166.956301 
L 182.223706 171.397191 
z
" clip-path="url(#p6e7d21c8e9)" style="fill: #0000ff"/>
   </g>
   <g id="patch_23">
    <path d="M 200.854758 191.981402 
Q 199.374225 192.109583 197.773288 192.174419 
Q 196.172351 192.24 194.428711 192.24 
Q 189.22901 192.24 186.192134 191.754103 
Q 183.155259 191.268207 183.155259 190.437264 
Q 183.155259 189.60334 186.192134 189.118189 
Q 189.22901 188.632292 194.428711 188.632292 
Q 196.172351 188.632292 197.773288 188.697873 
Q 199.374225 188.762709 200.854758 188.89089 
L 200.854758 189.610047 
Q 199.360847 189.440132 197.911531 189.361137 
Q 196.462214 189.282141 194.861277 189.282141 
Q 191.9894 189.282141 190.343869 189.589926 
Q 188.702796 189.896965 188.702796 190.437264 
Q 188.702796 190.975327 190.343869 191.283112 
Q 191.9894 191.59015 194.861277 191.59015 
Q 196.462214 191.59015 197.911531 191.511155 
Q 199.360847 191.431414 200.854758 191.2615 
L 200.854758 191.981402 
z
" clip-path="url(#p6e7d21c8e9)" style="fill: #0000ff"/>
   </g>
   <g id="patch_24">
    <path d="M 183.155259 185.024584 
L 200.854758 185.024584 
L 200.854758 185.728187 
L 194.487054 185.728187 
L 194.487054 188.632292 
L 189.535311 188.632292 
L 189.535311 185.728187 
L 183.155259 185.728187 
L 183.155259 185.024584 
z
" clip-path="url(#p6e7d21c8e9)" style="fill: #ff0000"/>
   </g>
   <g id="patch_25">
    <path d="M 200.854758 184.469678 
Q 199.069734 184.747131 197.149843 184.886491 
Q 195.229951 185.024584 193.183124 185.024584 
Q 188.55793 185.024584 185.856594 184.198559 
Q 183.155259 183.372535 183.155259 181.959932 
Q 183.155259 180.53086 185.904195 179.71117 
Q 188.657098 178.89148 193.444927 178.89148 
Q 195.289451 178.89148 196.979274 179.002968 
Q 198.673063 179.113189 200.172482 179.331097 
L 200.172482 180.553664 
Q 198.625462 180.273677 197.094309 180.135584 
Q 195.563155 179.996224 194.024068 179.996224 
Q 191.175964 179.996224 189.632911 180.505521 
Q 188.089857 181.013552 188.089857 181.959932 
Q 188.089857 182.897444 189.577376 183.409276 
Q 191.064896 183.91984 193.801932 183.91984 
Q 194.547675 183.91984 195.186317 183.890701 
Q 195.824959 183.860295 196.332699 183.796949 
L 196.332699 182.64913 
L 193.41716 182.64913 
L 193.41716 181.626735 
L 200.854758 181.626735 
L 200.854758 184.469678 
z
" clip-path="url(#p6e7d21c8e9)" style="fill: #ffa600"/>
   </g>
   <g id="patch_26">
    <path d="M 195.415717 176.788401 
L 188.608774 176.788401 
L 187.533994 178.89148 
L 183.155259 178.89148 
L 189.408527 167.346814 
L 194.60149 167.346814 
L 200.854758 178.89148 
L 196.479641 178.89148 
L 195.415717 176.788401 
z
M 189.694411 174.645735 
L 194.319224 174.645735 
L 192.010437 170.0536 
L 189.694411 174.645735 
z
" clip-path="url(#p6e7d21c8e9)" style="fill: #008000"/>
   </g>
   <g id="patch_27">
    <path d="M 219.48581 192.082578 
Q 218.005277 192.160609 216.40434 192.200077 
Q 214.803402 192.24 213.059763 192.24 
Q 207.860062 192.24 204.823186 191.944211 
Q 201.786311 191.648421 201.786311 191.142585 
Q 201.786311 190.634934 204.823186 190.339598 
Q 207.860062 190.043809 213.059763 190.043809 
Q 214.803402 190.043809 216.40434 190.083731 
Q 218.005277 190.1232 219.48581 190.20123 
L 219.48581 190.639017 
Q 217.991899 190.535581 216.542582 190.487493 
Q 215.093266 190.439404 213.492328 190.439404 
Q 210.620452 190.439404 208.97492 190.626768 
Q 207.333848 190.813678 207.333848 191.142585 
Q 207.333848 191.470131 208.97492 191.657494 
Q 210.620452 191.844404 213.492328 191.844404 
Q 215.093266 191.844404 216.542582 191.796316 
Q 217.991899 191.747774 219.48581 191.644338 
L 219.48581 192.082578 
z
" clip-path="url(#p6e7d21c8e9)" style="fill: #0000ff"/>
   </g>
   <g id="patch_28">
    <path d="M 201.786311 187.408379 
L 219.48581 187.408379 
L 219.48581 187.922361 
L 213.118106 187.922361 
L 213.118106 190.043809 
L 208.166363 190.043809 
L 208.166363 187.922361 
L 201.786311 187.922361 
L 201.786311 187.408379 
z
" clip-path="url(#p6e7d21c8e9)" style="fill: #ff0000"/>
   </g>
   <g id="patch_29">
    <path d="M 214.046769 186.608224 
L 207.239826 186.608224 
L 206.165046 187.408379 
L 201.786311 187.408379 
L 208.039579 183.015997 
L 213.232542 183.015997 
L 219.48581 187.408379 
L 215.110693 187.408379 
L 214.046769 186.608224 
z
M 208.325463 185.793007 
L 212.950276 185.793007 
L 210.641488 184.045844 
L 208.325463 185.793007 
z
" clip-path="url(#p6e7d21c8e9)" style="fill: #008000"/>
   </g>
   <g id="patch_30">
    <path d="M 219.48581 182.479493 
Q 217.700786 182.747745 215.780894 182.882483 
Q 213.861002 183.015997 211.814176 183.015997 
Q 207.188981 183.015997 204.487646 182.217365 
Q 201.786311 181.418734 201.786311 180.052976 
Q 201.786311 178.671294 204.535247 177.878787 
Q 207.288149 177.08628 212.075979 177.08628 
Q 213.920503 177.08628 215.610325 177.194071 
Q 217.304114 177.300637 218.803534 177.511319 
L 218.803534 178.693342 
Q 217.256514 178.422641 215.72536 178.289127 
Q 214.194207 178.154389 212.65512 178.154389 
Q 209.807016 178.154389 208.263962 178.646796 
Q 206.720909 179.137979 206.720909 180.052976 
Q 206.720909 180.959398 208.208428 181.454256 
Q 209.695948 181.947888 212.432984 181.947888 
Q 213.178727 181.947888 213.817369 181.919716 
Q 214.45601 181.890318 214.96375 181.829073 
L 214.96375 180.719319 
L 212.048212 180.719319 
L 212.048212 179.730828 
L 219.48581 179.730828 
L 219.48581 182.479493 
z
" clip-path="url(#p6e7d21c8e9)" style="fill: #ffa600"/>
   </g>
   <g id="patch_31">
    <path d="M 232.677821 191.807549 
L 225.870878 191.807549 
L 224.796097 192.24 
L 220.417362 192.24 
L 226.67063 189.866096 
L 231.863593 189.866096 
L 238.116861 192.24 
L 233.741745 192.24 
L 232.677821 191.807549 
z
M 226.956515 191.366957 
L 231.581328 191.366957 
L 229.27254 190.422687 
L 226.956515 191.366957 
z
" clip-path="url(#p6e7d21c8e9)" style="fill: #008000"/>
   </g>
   <g id="patch_32">
    <path d="M 238.116861 189.695936 
Q 236.636329 189.780281 235.035392 189.822943 
Q 233.434454 189.866096 231.690815 189.866096 
Q 226.491113 189.866096 223.454238 189.546372 
Q 220.417362 189.226648 220.417362 188.67988 
Q 220.417362 188.13115 223.454238 187.811917 
Q 226.491113 187.492192 231.690815 187.492192 
Q 233.434454 187.492192 235.035392 187.535345 
Q 236.636329 187.578008 238.116861 187.662352 
L 238.116861 188.135564 
Q 236.622951 188.023758 235.173634 187.971779 
Q 233.724318 187.919799 232.12338 187.919799 
Q 229.251504 187.919799 227.605972 188.122324 
Q 225.9649 188.324358 225.9649 188.67988 
Q 225.9649 189.03393 227.605972 189.236455 
Q 229.251504 189.438489 232.12338 189.438489 
Q 233.724318 189.438489 235.173634 189.38651 
Q 236.622951 189.33404 238.116861 189.222234 
L 238.116861 189.695936 
z
" clip-path="url(#p6e7d21c8e9)" style="fill: #0000ff"/>
   </g>
   <g id="patch_33">
    <path d="M 238.116861 187.101676 
Q 236.331838 187.296934 234.411946 187.395009 
Q 232.492054 187.492192 230.445227 187.492192 
Q 225.820033 187.492192 223.118698 186.910875 
Q 220.417362 186.329558 220.417362 185.335435 
Q 220.417362 184.329721 223.166298 183.752862 
Q 225.919201 183.176003 230.707031 183.176003 
Q 232.551555 183.176003 234.241377 183.254463 
Q 235.935166 183.332032 237.434586 183.485385 
L 237.434586 184.34577 
Q 235.887565 184.148728 234.356412 184.051545 
Q 232.825259 183.95347 231.286172 183.95347 
Q 228.438068 183.95347 226.895014 184.311889 
Q 225.35196 184.669417 225.35196 185.335435 
Q 225.35196 185.995212 226.83948 186.355415 
Q 228.327 186.714725 231.064035 186.714725 
Q 231.809779 186.714725 232.44842 186.694219 
Q 233.087062 186.672821 233.594802 186.628241 
L 233.594802 185.82046 
L 230.679264 185.82046 
L 230.679264 185.100947 
L 238.116861 185.100947 
L 238.116861 187.101676 
z
" clip-path="url(#p6e7d21c8e9)" style="fill: #ffa600"/>
   </g>
   <g id="patch_34">
    <path d="M 220.417362 177.349148 
L 238.116861 177.349148 
L 238.116861 178.485547 
L 231.749158 178.485547 
L 231.749158 183.176003 
L 226.797414 183.176003 
L 226.797414 178.485547 
L 220.417362 178.485547 
L 220.417362 177.349148 
z
" clip-path="url(#p6e7d21c8e9)" style="fill: #ff0000"/>
   </g>
   <g id="patch_35">
    <path d="M 256.747913 192.069589 
Q 255.267381 192.154058 253.666443 192.196783 
Q 252.065506 192.24 250.321867 192.24 
Q 245.122165 192.24 242.08529 191.919803 
Q 239.048414 191.599606 239.048414 191.052031 
Q 239.048414 190.50249 242.08529 190.182785 
Q 245.122165 189.862588 250.321867 189.862588 
Q 252.065506 189.862588 253.666443 189.905805 
Q 255.267381 189.94853 256.747913 190.032999 
L 256.747913 190.50691 
Q 255.254002 190.39494 253.804686 190.342883 
Q 252.355369 190.290827 250.754432 190.290827 
Q 247.882556 190.290827 246.237024 190.493651 
Q 244.595952 190.695984 244.595952 191.052031 
Q 244.595952 191.406604 246.237024 191.609428 
Q 247.882556 191.811761 250.754432 191.811761 
Q 252.355369 191.811761 253.804686 191.759705 
Q 255.254002 191.707157 256.747913 191.595187 
L 256.747913 192.069589 
z
" clip-path="url(#p6e7d21c8e9)" style="fill: #0000ff"/>
   </g>
   <g id="patch_36">
    <path d="M 239.048414 181.541646 
L 256.747913 181.541646 
L 256.747913 183.164461 
L 250.38021 183.164461 
L 250.38021 189.862588 
L 245.428466 189.862588 
L 245.428466 183.164461 
L 239.048414 183.164461 
L 239.048414 181.541646 
z
" clip-path="url(#p6e7d21c8e9)" style="fill: #ff0000"/>
   </g>
   <g id="patch_37">
    <path d="M 256.747913 179.713283 
Q 254.96289 180.627464 253.042998 181.086642 
Q 251.123106 181.541646 249.076279 181.541646 
Q 244.451085 181.541646 241.74975 178.819973 
Q 239.048414 176.0983 239.048414 171.443906 
Q 239.048414 166.735245 241.79735 164.034444 
Q 244.550253 161.333643 249.338083 161.333643 
Q 251.182607 161.333643 252.872429 161.700986 
Q 254.566218 162.064154 256.065638 162.782141 
L 256.065638 166.810383 
Q 254.518617 165.887853 252.987464 165.43285 
Q 251.45631 164.973672 249.917223 164.973672 
Q 247.069119 164.973672 245.526066 166.651758 
Q 243.983012 168.325671 243.983012 171.443906 
Q 243.983012 174.532921 245.470532 176.219356 
Q 246.958051 177.901617 249.695087 177.901617 
Q 250.44083 177.901617 251.079472 177.805607 
Q 251.718114 177.705423 252.225854 177.496706 
L 252.225854 173.714749 
L 249.310315 173.714749 
L 249.310315 170.346053 
L 256.747913 170.346053 
L 256.747913 179.713283 
z
" clip-path="url(#p6e7d21c8e9)" style="fill: #ffa600"/>
   </g>
   <g id="patch_38">
    <path d="M 251.308873 152.022198 
L 244.50193 152.022198 
L 243.427149 161.333643 
L 239.048414 161.333643 
L 245.301682 110.219284 
L 250.494645 110.219284 
L 256.747913 161.333643 
L 252.372797 161.333643 
L 251.308873 152.022198 
z
M 245.587567 142.535478 
L 250.212379 142.535478 
L 247.903592 122.203662 
L 245.587567 142.535478 
z
" clip-path="url(#p6e7d21c8e9)" style="fill: #008000"/>
   </g>
   <g id="patch_39">
    <path d="M 275.378965 192.057706 
Q 273.898432 192.148065 272.297495 192.19377 
Q 270.696558 192.24 268.952919 192.24 
Q 263.753217 192.24 260.716341 191.897476 
Q 257.679466 191.554951 257.679466 190.969193 
Q 257.679466 190.381332 260.716341 190.039333 
Q 263.753217 189.696809 268.952919 189.696809 
Q 270.696558 189.696809 272.297495 189.743039 
Q 273.898432 189.788744 275.378965 189.879103 
L 275.378965 190.386061 
Q 273.885054 190.266282 272.435738 190.210596 
Q 270.986421 190.154909 269.385484 190.154909 
Q 266.513607 190.154909 264.868076 190.371876 
Q 263.227003 190.588318 263.227003 190.969193 
Q 263.227003 191.348491 264.868076 191.565458 
Q 266.513607 191.7819 269.385484 191.7819 
Q 270.986421 191.7819 272.435738 191.726213 
Q 273.885054 191.670002 275.378965 191.550223 
L 275.378965 192.057706 
z
" clip-path="url(#p6e7d21c8e9)" style="fill: #0000ff"/>
   </g>
   <g id="patch_40">
    <path d="M 269.939924 188.968781 
L 263.132981 188.968781 
L 262.058201 189.696809 
L 257.679466 189.696809 
L 263.932734 185.700366 
L 269.125697 185.700366 
L 275.378965 189.696809 
L 271.003849 189.696809 
L 269.939924 188.968781 
z
M 264.218618 188.22705 
L 268.843431 188.22705 
L 266.534644 186.63738 
L 264.218618 188.22705 
z
" clip-path="url(#p6e7d21c8e9)" style="fill: #008000"/>
   </g>
   <g id="patch_41">
    <path d="M 275.378965 184.878578 
Q 273.593941 185.289472 271.67405 185.495857 
Q 269.754158 185.700366 267.707331 185.700366 
Q 263.082137 185.700366 260.380801 184.477065 
Q 257.679466 183.253763 257.679466 181.161768 
Q 257.679466 179.045382 260.428402 177.831461 
Q 263.181305 176.617541 267.969134 176.617541 
Q 269.813659 176.617541 271.503481 176.782649 
Q 273.19727 176.945881 274.696689 177.268593 
L 274.696689 179.079154 
Q 273.149669 178.664507 271.618516 178.459998 
Q 270.087362 178.253613 268.548275 178.253613 
Q 265.700171 178.253613 264.157118 179.007857 
Q 262.614064 179.760225 262.614064 181.161768 
Q 262.614064 182.550177 264.101583 183.308174 
Q 265.589103 184.064294 268.326139 184.064294 
Q 269.071882 184.064294 269.710524 184.021141 
Q 270.349166 183.976112 270.856906 183.8823 
L 270.856906 182.182437 
L 267.941367 182.182437 
L 267.941367 180.66832 
L 275.378965 180.66832 
L 275.378965 184.878578 
z
" clip-path="url(#p6e7d21c8e9)" style="fill: #ffa600"/>
   </g>
   <g id="patch_42">
    <path d="M 257.679466 167.171403 
L 275.378965 167.171403 
L 275.378965 169.013663 
L 269.011261 169.013663 
L 269.011261 176.617541 
L 264.059518 176.617541 
L 264.059518 169.013663 
L 257.679466 169.013663 
L 257.679466 167.171403 
z
" clip-path="url(#p6e7d21c8e9)" style="fill: #ff0000"/>
   </g>
   <g id="patch_43">
    <path d="M 288.570976 191.871965 
L 281.764033 191.871965 
L 280.689253 192.24 
L 276.310518 192.24 
L 282.563786 190.219704 
L 287.756749 190.219704 
L 294.010017 192.24 
L 289.6349 192.24 
L 288.570976 191.871965 
z
M 282.84967 191.497002 
L 287.474483 191.497002 
L 285.165695 190.693387 
L 282.84967 191.497002 
z
" clip-path="url(#p6e7d21c8e9)" style="fill: #008000"/>
   </g>
   <g id="patch_44">
    <path d="M 294.010017 189.350822 
Q 292.529484 189.781507 290.928547 189.999353 
Q 289.32761 190.219704 287.58397 190.219704 
Q 282.384269 190.219704 279.347393 188.587108 
Q 276.310518 186.954511 276.310518 184.162571 
Q 276.310518 181.360615 279.347393 179.730523 
Q 282.384269 178.097927 287.58397 178.097927 
Q 289.32761 178.097927 290.928547 178.318277 
Q 292.529484 178.536124 294.010017 178.966809 
L 294.010017 181.383151 
Q 292.516106 180.812243 291.066789 180.546821 
Q 289.617473 180.281399 288.016535 180.281399 
Q 285.144659 180.281399 283.499127 181.315544 
Q 281.858055 182.347184 281.858055 184.162571 
Q 281.858055 185.970446 283.499127 187.004591 
Q 285.144659 188.036232 288.016535 188.036232 
Q 289.617473 188.036232 291.066789 187.770809 
Q 292.516106 187.502883 294.010017 186.931975 
L 294.010017 189.350822 
z
" clip-path="url(#p6e7d21c8e9)" style="fill: #0000ff"/>
   </g>
   <g id="patch_45">
    <path d="M 294.010017 176.818392 
Q 292.224993 177.45816 290.305101 177.779504 
Q 288.385209 178.097927 286.338383 178.097927 
Q 281.713188 178.097927 279.011853 176.193231 
Q 276.310518 174.288536 276.310518 171.031272 
Q 276.310518 167.736032 279.059454 165.845943 
Q 281.812356 163.955854 286.600186 163.955854 
Q 288.44471 163.955854 290.134532 164.212929 
Q 291.828321 164.467083 293.327741 164.969549 
L 293.327741 167.788616 
Q 291.780721 167.143006 290.249567 166.824583 
Q 288.718414 166.503238 287.179327 166.503238 
Q 284.331223 166.503238 282.788169 167.677606 
Q 281.245116 168.849052 281.245116 171.031272 
Q 281.245116 173.193043 282.732635 174.373254 
Q 284.220155 175.550543 286.957191 175.550543 
Q 287.702934 175.550543 288.341576 175.483352 
Q 288.980217 175.413241 289.487957 175.267175 
L 289.487957 172.620466 
L 286.572419 172.620466 
L 286.572419 170.262967 
L 294.010017 170.262967 
L 294.010017 176.818392 
z
" clip-path="url(#p6e7d21c8e9)" style="fill: #ffa600"/>
   </g>
   <g id="patch_46">
    <path d="M 276.310518 52.839565 
L 294.010017 52.839565 
L 294.010017 74.510337 
L 287.642313 74.510337 
L 287.642313 163.955854 
L 282.69057 163.955854 
L 282.69057 74.510337 
L 276.310518 74.510337 
L 276.310518 52.839565 
z
" clip-path="url(#p6e7d21c8e9)" style="fill: #ff0000"/>
   </g>
   <g id="patch_47">
    <path d="M 294.941569 189.255801 
L 312.641068 189.255801 
L 312.641068 189.837803 
L 306.273365 189.837803 
L 306.273365 192.24 
L 301.321621 192.24 
L 301.321621 189.837803 
L 294.941569 189.837803 
L 294.941569 189.255801 
z
" clip-path="url(#p6e7d21c8e9)" style="fill: #ff0000"/>
   </g>
   <g id="patch_48">
    <path d="M 307.202028 188.479189 
L 300.395085 188.479189 
L 299.320305 189.255801 
L 294.941569 189.255801 
L 301.194837 184.992658 
L 306.3878 184.992658 
L 312.641068 189.255801 
L 308.265952 189.255801 
L 307.202028 188.479189 
z
M 301.480722 187.687958 
L 306.105535 187.687958 
L 303.796747 185.992203 
L 301.480722 187.687958 
z
" clip-path="url(#p6e7d21c8e9)" style="fill: #008000"/>
   </g>
   <g id="patch_49">
    <path d="M 312.641068 184.320383 
Q 311.160536 184.653615 309.559599 184.822168 
Q 307.958661 184.992658 306.215022 184.992658 
Q 301.01532 184.992658 297.978445 183.729479 
Q 294.941569 182.4663 294.941569 180.306108 
Q 294.941569 178.138167 297.978445 176.876925 
Q 301.01532 175.613746 306.215022 175.613746 
Q 307.958661 175.613746 309.559599 175.784236 
Q 311.160536 175.952789 312.641068 176.286021 
L 312.641068 178.155603 
Q 311.147158 177.713878 309.697841 177.508515 
Q 308.248525 177.303151 306.647587 177.303151 
Q 303.775711 177.303151 302.130179 178.103294 
Q 300.489107 178.901499 300.489107 180.306108 
Q 300.489107 181.704905 302.130179 182.505048 
Q 303.775711 183.303253 306.647587 183.303253 
Q 308.248525 183.303253 309.697841 183.097889 
Q 311.147158 182.890588 312.641068 182.448863 
L 312.641068 184.320383 
z
" clip-path="url(#p6e7d21c8e9)" style="fill: #0000ff"/>
   </g>
   <g id="patch_50">
    <path d="M 312.641068 174.456594 
Q 310.856045 175.03517 308.936153 175.325779 
Q 307.016261 175.613746 304.969434 175.613746 
Q 300.34424 175.613746 297.642905 173.891228 
Q 294.941569 172.168711 294.941569 169.222995 
Q 294.941569 166.242935 297.690505 164.533627 
Q 300.443408 162.824319 305.231238 162.824319 
Q 307.075762 162.824319 308.765584 163.056806 
Q 310.459373 163.286651 311.958793 163.741058 
L 311.958793 166.290489 
Q 310.411772 165.70663 308.880619 165.418663 
Q 307.349466 165.128054 305.810379 165.128054 
Q 302.962275 165.128054 301.419221 166.190097 
Q 299.876167 167.249498 299.876167 169.222995 
Q 299.876167 171.178 301.363687 172.245326 
Q 302.851207 173.310011 305.588242 173.310011 
Q 306.333986 173.310011 306.972627 173.249247 
Q 307.611269 173.185842 308.119009 173.053747 
L 308.119009 170.660188 
L 305.203471 170.660188 
L 305.203471 168.528176 
L 312.641068 168.528176 
L 312.641068 174.456594 
z
" clip-path="url(#p6e7d21c8e9)" style="fill: #ffa600"/>
   </g>
   <g id="patch_51">
    <path d="M 325.83308 190.990773 
L 319.026137 190.990773 
L 317.951356 192.24 
L 313.572621 192.24 
L 319.825889 185.382481 
L 325.018852 185.382481 
L 331.27212 192.24 
L 326.897004 192.24 
L 325.83308 190.990773 
z
M 320.111774 189.718032 
L 324.736586 189.718032 
L 322.427799 186.990309 
L 320.111774 189.718032 
z
" clip-path="url(#p6e7d21c8e9)" style="fill: #008000"/>
   </g>
   <g id="patch_52">
    <path d="M 331.27212 184.637942 
Q 329.487097 185.010212 327.567205 185.197196 
Q 325.647313 185.382481 323.600486 185.382481 
Q 318.975292 185.382481 316.273957 184.274172 
Q 313.572621 183.165863 313.572621 181.270519 
Q 313.572621 179.353077 316.321557 178.253268 
Q 319.07446 177.153458 323.86229 177.153458 
Q 325.706814 177.153458 327.396636 177.303046 
Q 329.090425 177.450934 330.589845 177.74331 
L 330.589845 179.383675 
Q 329.042824 179.008006 327.511671 178.822721 
Q 325.980517 178.635736 324.44143 178.635736 
Q 321.593326 178.635736 320.050273 179.31908 
Q 318.507219 180.000724 318.507219 181.270519 
Q 318.507219 182.528416 319.994739 183.215159 
Q 321.482258 183.900203 324.219294 183.900203 
Q 324.965037 183.900203 325.603679 183.861106 
Q 326.242321 183.82031 326.750061 183.735317 
L 326.750061 182.195243 
L 323.834523 182.195243 
L 323.834523 180.823456 
L 331.27212 180.823456 
L 331.27212 184.637942 
z
" clip-path="url(#p6e7d21c8e9)" style="fill: #ffa600"/>
   </g>
   <g id="patch_53">
    <path d="M 313.572621 164.809924 
L 331.27212 164.809924 
L 331.27212 167.217257 
L 324.904417 167.217257 
L 324.904417 177.153458 
L 319.952673 177.153458 
L 319.952673 167.217257 
L 313.572621 167.217257 
L 313.572621 164.809924 
z
" clip-path="url(#p6e7d21c8e9)" style="fill: #ff0000"/>
   </g>
   <g id="patch_54">
    <path d="M 331.27212 159.992804 
Q 329.791588 162.38054 328.19065 163.588291 
Q 326.589713 164.809924 324.846074 164.809924 
Q 319.646372 164.809924 316.609497 155.758735 
Q 313.572621 146.707547 313.572621 131.228904 
Q 313.572621 115.694732 316.609497 106.657426 
Q 319.646372 97.606237 324.846074 97.606237 
Q 326.589713 97.606237 328.19065 98.82787 
Q 329.791588 100.035621 331.27212 102.423358 
L 331.27212 115.819672 
Q 329.778209 112.654532 328.328893 111.18302 
Q 326.879576 109.711508 325.278639 109.711508 
Q 322.406763 109.711508 320.761231 115.444853 
Q 319.120159 121.164315 319.120159 131.228904 
Q 319.120159 141.251846 320.761231 146.985191 
Q 322.406763 152.704653 325.278639 152.704653 
Q 326.879576 152.704653 328.328893 151.233141 
Q 329.778209 149.747747 331.27212 146.582607 
L 331.27212 159.992804 
z
" clip-path="url(#p6e7d21c8e9)" style="fill: #0000ff"/>
   </g>
   <g id="patch_55">
    <path d="M 332.203673 189.14504 
L 349.903172 189.14504 
L 349.903172 189.748643 
L 343.535468 189.748643 
L 343.535468 192.24 
L 338.583725 192.24 
L 338.583725 189.748643 
L 332.203673 189.748643 
L 332.203673 189.14504 
z
" clip-path="url(#p6e7d21c8e9)" style="fill: #ff0000"/>
   </g>
   <g id="patch_56">
    <path d="M 349.903172 188.590428 
Q 348.422639 188.865337 346.821702 189.004389 
Q 345.220765 189.14504 343.477126 189.14504 
Q 338.277424 189.14504 335.240548 188.102945 
Q 332.203673 187.060849 332.203673 185.278738 
Q 332.203673 183.490233 335.240548 182.449736 
Q 338.277424 181.40764 343.477126 181.40764 
Q 345.220765 181.40764 346.821702 181.548291 
Q 348.422639 181.687344 349.903172 181.962253 
L 349.903172 183.504618 
Q 348.409261 183.140204 346.959945 182.970784 
Q 345.510628 182.801363 343.909691 182.801363 
Q 341.037814 182.801363 339.392283 183.461464 
Q 337.75121 184.119966 337.75121 185.278738 
Q 337.75121 186.432715 339.392283 187.092815 
Q 341.037814 187.751317 343.909691 187.751317 
Q 345.510628 187.751317 346.959945 187.581897 
Q 348.409261 187.410878 349.903172 187.046464 
L 349.903172 188.590428 
z
" clip-path="url(#p6e7d21c8e9)" style="fill: #0000ff"/>
   </g>
   <g id="patch_57">
    <path d="M 349.903172 179.587489 
Q 348.118149 180.497565 346.198257 180.95468 
Q 344.278365 181.40764 342.231538 181.40764 
Q 337.606344 181.40764 334.905008 178.698192 
Q 332.203673 175.988743 332.203673 171.355254 
Q 332.203673 166.667742 334.952609 163.979071 
Q 337.705512 161.290401 342.493341 161.290401 
Q 344.337866 161.290401 346.027688 161.656093 
Q 347.721477 162.01763 349.220896 162.732393 
L 349.220896 166.742543 
Q 347.673876 165.824156 346.142723 165.371196 
Q 344.611569 164.91408 343.072482 164.91408 
Q 340.224378 164.91408 338.681325 166.58463 
Q 337.138271 168.251024 337.138271 171.355254 
Q 337.138271 174.430395 338.62579 176.109256 
Q 340.11331 177.783961 342.850346 177.783961 
Q 343.596089 177.783961 344.234731 177.688382 
Q 344.873373 177.588648 345.381113 177.380868 
L 345.381113 173.615898 
L 342.465574 173.615898 
L 342.465574 170.262332 
L 349.903172 170.262332 
L 349.903172 179.587489 
z
" clip-path="url(#p6e7d21c8e9)" style="fill: #ffa600"/>
   </g>
   <g id="patch_58">
    <path d="M 344.464131 147.477169 
L 337.657188 147.477169 
L 336.582408 161.290401 
L 332.203673 161.290401 
L 338.456941 85.463883 
L 343.649904 85.463883 
L 349.903172 161.290401 
L 345.528056 161.290401 
L 344.464131 147.477169 
z
M 338.742825 133.403923 
L 343.367638 133.403923 
L 341.058851 103.242325 
L 338.742825 133.403923 
z
" clip-path="url(#p6e7d21c8e9)" style="fill: #008000"/>
   </g>
   <g id="patch_59">
    <path d="M 368.534224 191.894443 
Q 367.053691 192.065728 365.452754 192.152366 
Q 363.851817 192.24 362.108177 192.24 
Q 356.908476 192.24 353.8716 191.590711 
Q 350.834725 190.941422 350.834725 189.831059 
Q 350.834725 188.716712 353.8716 188.068419 
Q 356.908476 187.41913 362.108177 187.41913 
Q 363.851817 187.41913 365.452754 187.506765 
Q 367.053691 187.593403 368.534224 187.764687 
L 368.534224 188.725675 
Q 367.040313 188.498623 365.590996 188.393064 
Q 364.14168 188.287504 362.540743 188.287504 
Q 359.668866 188.287504 358.023334 188.698787 
Q 356.382262 189.109074 356.382262 189.831059 
Q 356.382262 190.550057 358.023334 190.961339 
Q 359.668866 191.371626 362.540743 191.371626 
Q 364.14168 191.371626 365.590996 191.266067 
Q 367.040313 191.159512 368.534224 190.93246 
L 368.534224 191.894443 
z
" clip-path="url(#p6e7d21c8e9)" style="fill: #0000ff"/>
   </g>
   <g id="patch_60">
    <path d="M 350.834725 182.598261 
L 368.534224 182.598261 
L 368.534224 183.538465 
L 362.16652 183.538465 
L 362.16652 187.41913 
L 357.214777 187.41913 
L 357.214777 183.538465 
L 350.834725 183.538465 
L 350.834725 182.598261 
z
" clip-path="url(#p6e7d21c8e9)" style="fill: #ff0000"/>
   </g>
   <g id="patch_61">
    <path d="M 368.534224 181.289725 
Q 366.7492 181.943993 364.829308 182.272621 
Q 362.909416 182.598261 360.86259 182.598261 
Q 356.237396 182.598261 353.53606 180.650395 
Q 350.834725 178.702528 350.834725 175.371438 
Q 350.834725 172.00151 353.583661 170.068581 
Q 356.336563 168.135652 361.124393 168.135652 
Q 362.968917 168.135652 364.658739 168.398554 
Q 366.352528 168.658469 367.851948 169.172323 
L 367.851948 172.055285 
Q 366.304928 171.395042 364.773774 171.069402 
Q 363.242621 170.740774 361.703534 170.740774 
Q 358.85543 170.740774 357.312376 171.941759 
Q 355.769323 173.139757 355.769323 175.371438 
Q 355.769323 177.582206 357.256842 178.789166 
Q 358.744362 179.993139 361.481398 179.993139 
Q 362.227141 179.993139 362.865783 179.924426 
Q 363.504424 179.852725 364.012164 179.703349 
L 364.012164 176.996651 
L 361.096626 176.996651 
L 361.096626 174.585719 
L 368.534224 174.585719 
L 368.534224 181.289725 
z
" clip-path="url(#p6e7d21c8e9)" style="fill: #ffa600"/>
   </g>
   <g id="patch_62">
    <path d="M 363.095183 142.228386 
L 356.28824 142.228386 
L 355.21346 168.135652 
L 350.834725 168.135652 
L 357.087993 25.92 
L 362.280956 25.92 
L 368.534224 168.135652 
L 364.159107 168.135652 
L 363.095183 142.228386 
z
M 357.373877 115.833453 
L 361.99869 115.833453 
L 359.689902 59.264176 
L 357.373877 115.833453 
z
" clip-path="url(#p6e7d21c8e9)" style="fill: #008000"/>
   </g>
   <g id="patch_63">
    <path d="M 369.465776 186.890946 
L 387.165275 186.890946 
L 387.165275 187.934161 
L 380.797572 187.934161 
L 380.797572 192.24 
L 375.845828 192.24 
L 375.845828 187.934161 
L 369.465776 187.934161 
L 369.465776 186.890946 
z
" clip-path="url(#p6e7d21c8e9)" style="fill: #ff0000"/>
   </g>
   <g id="patch_64">
    <path d="M 387.165275 186.337841 
Q 385.380252 186.614393 383.46036 186.753301 
Q 381.540468 186.890946 379.493641 186.890946 
Q 374.868447 186.890946 372.167112 186.067602 
Q 369.465776 185.244258 369.465776 183.836238 
Q 369.465776 182.411802 372.214712 181.594772 
Q 374.967615 180.777741 379.755445 180.777741 
Q 381.599969 180.777741 383.289791 180.888868 
Q 384.98358 180.998731 386.483 181.215932 
L 386.483 182.434532 
Q 384.93598 182.155454 383.404826 182.017809 
Q 381.873673 181.878901 380.334586 181.878901 
Q 377.486482 181.878901 375.943428 182.386546 
Q 374.400374 182.892928 374.400374 183.836238 
Q 374.400374 184.770708 375.887894 185.280879 
Q 377.375414 185.789786 380.112449 185.789786 
Q 380.858193 185.789786 381.496834 185.760742 
Q 382.135476 185.730435 382.643216 185.667295 
L 382.643216 184.5232 
L 379.727678 184.5232 
L 379.727678 183.504122 
L 387.165275 183.504122 
L 387.165275 186.337841 
z
" clip-path="url(#p6e7d21c8e9)" style="fill: #ffa600"/>
   </g>
   <g id="patch_65">
    <path d="M 381.726235 178.828879 
L 374.919292 178.828879 
L 373.844512 180.777741 
L 369.465776 180.777741 
L 375.719044 170.079634 
L 380.912007 170.079634 
L 387.165275 180.777741 
L 382.790159 180.777741 
L 381.726235 178.828879 
z
M 376.004929 176.843332 
L 380.629742 176.843332 
L 378.320954 172.587934 
L 376.004929 176.843332 
z
" clip-path="url(#p6e7d21c8e9)" style="fill: #008000"/>
   </g>
   <g id="patch_66">
    <path d="M 387.165275 167.888679 
Q 385.684743 168.974685 384.083806 169.524002 
Q 382.482868 170.079634 380.739229 170.079634 
Q 375.539527 170.079634 372.502652 165.962912 
Q 369.465776 161.846191 369.465776 154.806093 
Q 369.465776 147.740739 372.502652 143.630332 
Q 375.539527 139.513611 380.739229 139.513611 
Q 382.482868 139.513611 384.083806 140.069242 
Q 385.684743 140.618559 387.165275 141.704565 
L 387.165275 147.797565 
Q 385.671365 146.357975 384.222048 145.688693 
Q 382.772732 145.01941 381.171794 145.01941 
Q 378.299918 145.01941 376.654386 147.627087 
Q 375.013314 150.228451 375.013314 154.806093 
Q 375.013314 159.364794 376.654386 161.972471 
Q 378.299918 164.573835 381.171794 164.573835 
Q 382.772732 164.573835 384.222048 163.904552 
Q 385.671365 163.228955 387.165275 161.789365 
L 387.165275 167.888679 
z
" clip-path="url(#p6e7d21c8e9)" style="fill: #0000ff"/>
   </g>
   <g id="patch_67">
    <path d="M 405.796327 192.039721 
Q 404.315795 192.138995 402.714857 192.189209 
Q 401.11392 192.24 399.370281 192.24 
Q 394.170579 192.24 391.133704 191.863682 
Q 388.096828 191.487365 388.096828 190.843816 
Q 388.096828 190.197958 391.133704 189.822218 
Q 394.170579 189.4459 399.370281 189.4459 
Q 401.11392 189.4459 402.714857 189.496691 
Q 404.315795 189.546906 405.796327 189.64618 
L 405.796327 190.203153 
Q 404.302416 190.071557 402.8531 190.010376 
Q 401.403783 189.949196 399.802846 189.949196 
Q 396.93097 189.949196 395.285438 190.187569 
Q 393.644366 190.425365 393.644366 190.843816 
Q 393.644366 191.260536 395.285438 191.498908 
Q 396.93097 191.736704 399.802846 191.736704 
Q 401.403783 191.736704 402.8531 191.675524 
Q 404.302416 191.613766 405.796327 191.48217 
L 405.796327 192.039721 
z
" clip-path="url(#p6e7d21c8e9)" style="fill: #0000ff"/>
   </g>
   <g id="patch_68">
    <path d="M 388.096828 181.994967 
L 405.796327 181.994967 
L 405.796327 183.448107 
L 399.428624 183.448107 
L 399.428624 189.4459 
L 394.47688 189.4459 
L 394.47688 183.448107 
L 388.096828 183.448107 
L 388.096828 181.994967 
z
" clip-path="url(#p6e7d21c8e9)" style="fill: #ff0000"/>
   </g>
   <g id="patch_69">
    <path d="M 400.357287 178.771313 
L 393.550344 178.771313 
L 392.475563 181.994967 
L 388.096828 181.994967 
L 394.350096 164.299002 
L 399.543059 164.299002 
L 405.796327 181.994967 
L 401.421211 181.994967 
L 400.357287 178.771313 
z
M 394.635981 175.486978 
L 399.260793 175.486978 
L 396.952006 168.448034 
L 394.635981 175.486978 
z
" clip-path="url(#p6e7d21c8e9)" style="fill: #008000"/>
   </g>
   <g id="patch_70">
    <path d="M 405.796327 161.012572 
Q 404.011304 162.655787 402.091412 163.481146 
Q 400.17152 164.299002 398.124693 164.299002 
Q 393.499499 164.299002 390.798164 159.406874 
Q 388.096828 154.514746 388.096828 146.148608 
Q 388.096828 137.684927 390.845764 132.830315 
Q 393.598667 127.975704 398.386497 127.975704 
Q 400.231021 127.975704 401.920843 128.635991 
Q 403.614632 129.288775 405.114052 130.579336 
L 405.114052 137.819985 
Q 403.567031 136.161764 402.035878 135.343909 
Q 400.504724 134.51855 398.965637 134.51855 
Q 396.117533 134.51855 394.57448 137.534861 
Q 393.031426 140.54367 393.031426 146.148608 
Q 393.031426 151.701023 394.518946 154.732341 
Q 396.006465 157.756156 398.743501 157.756156 
Q 399.489244 157.756156 400.127886 157.583581 
Q 400.766528 157.403503 401.274268 157.02834 
L 401.274268 150.230383 
L 398.35873 150.230383 
L 398.35873 144.175249 
L 405.796327 144.175249 
L 405.796327 161.012572 
z
" clip-path="url(#p6e7d21c8e9)" style="fill: #ffa600"/>
   </g>
   <g id="patch_71">
    <path d="M 406.72788 185.500353 
L 424.427379 185.500353 
L 424.427379 186.814772 
L 418.059675 186.814772 
L 418.059675 192.24 
L 413.107932 192.24 
L 413.107932 186.814772 
L 406.72788 186.814772 
L 406.72788 185.500353 
z
" clip-path="url(#p6e7d21c8e9)" style="fill: #ff0000"/>
   </g>
   <g id="patch_72">
    <path d="M 424.427379 184.890569 
Q 422.642356 185.195461 420.722464 185.348603 
Q 418.802572 185.500353 416.755745 185.500353 
Q 412.130551 185.500353 409.429215 184.592638 
Q 406.72788 183.684923 406.72788 182.132618 
Q 406.72788 180.562215 409.476816 179.661461 
Q 412.229719 178.760707 417.017548 178.760707 
Q 418.862073 178.760707 420.551895 178.88322 
Q 422.245684 179.004342 423.745103 179.2438 
L 423.745103 180.587275 
Q 422.198083 180.279598 420.66693 180.127848 
Q 419.135776 179.974706 417.596689 179.974706 
Q 414.748585 179.974706 413.205532 180.534371 
Q 411.662478 181.092644 411.662478 182.132618 
Q 411.662478 183.162847 413.149997 183.725297 
Q 414.637517 184.286354 417.374553 184.286354 
Q 418.120296 184.286354 418.758938 184.254333 
Q 419.39758 184.22092 419.90532 184.15131 
L 419.90532 182.889976 
L 416.989781 182.889976 
L 416.989781 181.766469 
L 424.427379 181.766469 
L 424.427379 184.890569 
z
" clip-path="url(#p6e7d21c8e9)" style="fill: #ffa600"/>
   </g>
   <g id="patch_73">
    <path d="M 418.988338 177.072545 
L 412.181395 177.072545 
L 411.106615 178.760707 
L 406.72788 178.760707 
L 412.981148 169.493692 
L 418.174111 169.493692 
L 424.427379 178.760707 
L 420.052263 178.760707 
L 418.988338 177.072545 
z
M 413.267032 175.352606 
L 417.891845 175.352606 
L 415.583058 171.666456 
L 413.267032 175.352606 
z
" clip-path="url(#p6e7d21c8e9)" style="fill: #008000"/>
   </g>
   <g id="patch_74">
    <path d="M 424.427379 166.95745 
Q 422.946846 168.214607 421.345909 168.850495 
Q 419.744972 169.493692 418.001333 169.493692 
Q 412.801631 169.493692 409.764755 164.728187 
Q 406.72788 159.962682 406.72788 151.813083 
Q 406.72788 143.634248 409.764755 138.876052 
Q 412.801631 134.110547 418.001333 134.110547 
Q 419.744972 134.110547 421.345909 134.753744 
Q 422.946846 135.389632 424.427379 136.64679 
L 424.427379 143.70003 
Q 422.933468 142.033565 421.484152 141.258805 
Q 420.034835 140.484045 418.433898 140.484045 
Q 415.562021 140.484045 413.91649 143.502685 
Q 412.275417 146.514017 412.275417 151.813083 
Q 412.275417 157.090223 413.91649 160.108863 
Q 415.562021 163.120195 418.433898 163.120195 
Q 420.034835 163.120195 421.484152 162.345435 
Q 422.933468 161.563365 424.427379 159.8969 
L 424.427379 166.95745 
z
" clip-path="url(#p6e7d21c8e9)" style="fill: #0000ff"/>
   </g>
   <g id="patch_75">
    <path d="M 443.058431 191.937409 
Q 441.577898 192.087397 439.976961 192.163262 
Q 438.376024 192.24 436.632384 192.24 
Q 431.432683 192.24 428.395807 191.671444 
Q 425.358932 191.102887 425.358932 190.130586 
Q 425.358932 189.154797 428.395807 188.587112 
Q 431.432683 188.018556 436.632384 188.018556 
Q 438.376024 188.018556 439.976961 188.095294 
Q 441.577898 188.171159 443.058431 188.321146 
L 443.058431 189.162645 
Q 441.56452 188.963825 440.115203 188.871391 
Q 438.665887 188.778956 437.06495 188.778956 
Q 434.193073 188.778956 432.547541 189.1391 
Q 430.906469 189.498372 430.906469 190.130586 
Q 430.906469 190.760184 432.547541 191.120328 
Q 434.193073 191.479599 437.06495 191.479599 
Q 438.665887 191.479599 440.115203 191.387165 
Q 441.56452 191.293859 443.058431 191.095039 
L 443.058431 191.937409 
z
" clip-path="url(#p6e7d21c8e9)" style="fill: #0000ff"/>
   </g>
   <g id="patch_76">
    <path d="M 443.058431 187.254667 
Q 441.273407 187.636612 439.353515 187.828456 
Q 437.433623 188.018556 435.386797 188.018556 
Q 430.761603 188.018556 428.060267 186.881443 
Q 425.358932 185.74433 425.358932 183.799728 
Q 425.358932 181.832453 428.107868 180.70406 
Q 430.86077 179.575668 435.6486 179.575668 
Q 437.493124 179.575668 439.182946 179.729143 
Q 440.876735 179.880874 442.376155 180.180849 
L 442.376155 181.863846 
Q 440.829135 181.478413 439.297981 181.288313 
Q 437.766828 181.096469 436.227741 181.096469 
Q 433.379637 181.096469 431.836583 181.797572 
Q 430.29353 182.496931 430.29353 183.799728 
Q 430.29353 185.090316 431.781049 185.794907 
Q 433.268569 186.497755 436.005605 186.497755 
Q 436.751348 186.497755 437.38999 186.457642 
Q 438.028631 186.415785 438.536371 186.328583 
L 438.536371 184.748485 
L 435.620833 184.748485 
L 435.620833 183.341046 
L 443.058431 183.341046 
L 443.058431 187.254667 
z
" clip-path="url(#p6e7d21c8e9)" style="fill: #ffa600"/>
   </g>
   <g id="patch_77">
    <path d="M 425.358932 168.599913 
L 443.058431 168.599913 
L 443.058431 170.740491 
L 436.690727 170.740491 
L 436.690727 179.575668 
L 431.738984 179.575668 
L 431.738984 170.740491 
L 425.358932 170.740491 
L 425.358932 168.599913 
z
" clip-path="url(#p6e7d21c8e9)" style="fill: #ff0000"/>
   </g>
   <g id="patch_78">
    <path d="M 437.61939 162.293984 
L 430.812447 162.293984 
L 429.737667 168.599913 
L 425.358932 168.599913 
L 431.6122 133.984071 
L 436.805163 133.984071 
L 443.058431 168.599913 
L 438.683314 168.599913 
L 437.61939 162.293984 
z
M 431.898084 155.869355 
L 436.522897 155.869355 
L 434.214109 142.100173 
L 431.898084 155.869355 
z
" clip-path="url(#p6e7d21c8e9)" style="fill: #008000"/>
   </g>
   <g id="patch_79">
    <path d="M 456.250442 191.49879 
L 449.443499 191.49879 
L 448.368719 192.24 
L 443.989983 192.24 
L 450.243251 188.171194 
L 455.436214 188.171194 
L 461.689482 192.24 
L 457.314366 192.24 
L 456.250442 191.49879 
z
M 450.529136 190.743628 
L 455.153949 190.743628 
L 452.845161 189.125174 
L 450.529136 190.743628 
z
" clip-path="url(#p6e7d21c8e9)" style="fill: #008000"/>
   </g>
   <g id="patch_80">
    <path d="M 461.689482 187.540107 
Q 459.904459 187.85565 457.984567 188.014142 
Q 456.064675 188.171194 454.017848 188.171194 
Q 449.392654 188.171194 446.691319 187.231767 
Q 443.989983 186.292341 443.989983 184.685807 
Q 443.989983 183.060541 446.738919 182.128319 
Q 449.491822 181.196097 454.279652 181.196097 
Q 456.124176 181.196097 457.813998 181.322891 
Q 459.507787 181.448244 461.007207 181.696068 
L 461.007207 183.086477 
Q 459.460187 182.768051 457.929033 182.611 
Q 456.39788 182.452508 454.858793 182.452508 
Q 452.010689 182.452508 450.467635 183.031725 
Q 448.924581 183.609501 448.924581 184.685807 
Q 448.924581 185.752027 450.412101 186.334125 
Q 451.899621 186.914783 454.636656 186.914783 
Q 455.3824 186.914783 456.021041 186.881644 
Q 456.659683 186.847064 457.167423 186.775022 
L 457.167423 185.469623 
L 454.251885 185.469623 
L 454.251885 184.306866 
L 461.689482 184.306866 
L 461.689482 187.540107 
z
" clip-path="url(#p6e7d21c8e9)" style="fill: #ffa600"/>
   </g>
   <g id="patch_81">
    <path d="M 461.689482 180.654462 
Q 460.20895 180.922938 458.608013 181.058737 
Q 457.007075 181.196097 455.263436 181.196097 
Q 450.063734 181.196097 447.026859 180.178385 
Q 443.989983 179.160673 443.989983 177.420261 
Q 443.989983 175.673605 447.026859 174.657454 
Q 450.063734 173.639743 455.263436 173.639743 
Q 457.007075 173.639743 458.608013 173.777102 
Q 460.20895 173.912901 461.689482 174.181378 
L 461.689482 175.687654 
Q 460.195572 175.331767 458.746255 175.16631 
Q 457.296939 175.000854 455.696001 175.000854 
Q 452.824125 175.000854 451.178593 175.645509 
Q 449.537521 176.288603 449.537521 177.420261 
Q 449.537521 178.547237 451.178593 179.191892 
Q 452.824125 179.834986 455.696001 179.834986 
Q 457.296939 179.834986 458.746255 179.669529 
Q 460.195572 179.502512 461.689482 179.146625 
L 461.689482 180.654462 
z
" clip-path="url(#p6e7d21c8e9)" style="fill: #0000ff"/>
   </g>
   <g id="patch_82">
    <path d="M 443.989983 152.133195 
L 461.689482 152.133195 
L 461.689482 156.327571 
L 455.321779 156.327571 
L 455.321779 173.639743 
L 450.370035 173.639743 
L 450.370035 156.327571 
L 443.989983 156.327571 
L 443.989983 152.133195 
z
" clip-path="url(#p6e7d21c8e9)" style="fill: #ff0000"/>
   </g>
   <g id="patch_83">
    <path d="M 474.881494 191.347787 
L 468.074551 191.347787 
L 466.99977 192.24 
L 462.621035 192.24 
L 468.874303 187.342274 
L 474.067266 187.342274 
L 480.320534 192.24 
L 475.945418 192.24 
L 474.881494 191.347787 
z
M 469.160188 190.438779 
L 473.785 190.438779 
L 471.476213 188.490605 
L 469.160188 190.438779 
z
" clip-path="url(#p6e7d21c8e9)" style="fill: #008000"/>
   </g>
   <g id="patch_84">
    <path d="M 480.320534 186.815675 
Q 478.840002 187.076698 477.239064 187.208727 
Q 475.638127 187.342274 473.894488 187.342274 
Q 468.694786 187.342274 465.657911 186.352814 
Q 462.621035 185.363354 462.621035 183.671256 
Q 462.621035 181.973087 465.657911 180.985145 
Q 468.694786 179.995685 473.894488 179.995685 
Q 475.638127 179.995685 477.239064 180.129231 
Q 478.840002 180.261261 480.320534 180.522284 
L 480.320534 181.986745 
Q 478.826623 181.640738 477.377307 181.479875 
Q 475.92799 181.319012 474.327053 181.319012 
Q 471.455177 181.319012 469.809645 181.945771 
Q 468.168573 182.571012 468.168573 183.671256 
Q 468.168573 184.766946 469.809645 185.393705 
Q 471.455177 186.018947 474.327053 186.018947 
Q 475.92799 186.018947 477.377307 185.858084 
Q 478.826623 185.695703 480.320534 185.349696 
L 480.320534 186.815675 
z
" clip-path="url(#p6e7d21c8e9)" style="fill: #0000ff"/>
   </g>
   <g id="patch_85">
    <path d="M 462.621035 164.078075 
L 480.320534 164.078075 
L 480.320534 167.182452 
L 473.952831 167.182452 
L 473.952831 179.995685 
L 469.001087 179.995685 
L 469.001087 167.182452 
L 462.621035 167.182452 
L 462.621035 164.078075 
z
" clip-path="url(#p6e7d21c8e9)" style="fill: #ff0000"/>
   </g>
   <g id="patch_86">
    <path d="M 480.320534 158.982052 
Q 478.535511 161.530063 476.615619 162.809886 
Q 474.695727 164.078075 472.6489 164.078075 
Q 468.023706 164.078075 465.322371 156.492214 
Q 462.621035 148.906354 462.621035 135.933601 
Q 462.621035 122.809597 465.369971 115.281911 
Q 468.122874 107.754224 472.910704 107.754224 
Q 474.755228 107.754224 476.44505 108.778082 
Q 478.138839 109.790306 479.638259 111.791484 
L 479.638259 123.019023 
Q 478.091238 120.447742 476.560085 119.179554 
Q 475.028931 117.899731 473.489844 117.899731 
Q 470.64174 117.899731 469.098687 122.576902 
Q 467.555633 127.242439 467.555633 135.933601 
Q 467.555633 144.54332 469.043153 149.243762 
Q 470.530672 153.932568 473.267708 153.932568 
Q 474.013451 153.932568 474.652093 153.664969 
Q 475.290735 153.385734 475.798475 152.803997 
L 475.798475 142.262908 
L 472.882937 142.262908 
L 472.882937 132.873661 
L 480.320534 132.873661 
L 480.320534 158.982052 
z
" clip-path="url(#p6e7d21c8e9)" style="fill: #ffa600"/>
   </g>
   <g id="patch_87">
    <path d="M 493.512545 191.462213 
L 486.705603 191.462213 
L 485.630822 192.24 
L 481.252087 192.24 
L 487.505355 187.970407 
L 492.698318 187.970407 
L 498.951586 192.24 
L 494.57647 192.24 
L 493.512545 191.462213 
z
M 487.791239 190.669785 
L 492.416052 190.669785 
L 490.107265 188.971465 
L 487.791239 190.669785 
z
" clip-path="url(#p6e7d21c8e9)" style="fill: #008000"/>
   </g>
   <g id="patch_88">
    <path d="M 498.951586 187.664366 
Q 497.471053 187.816064 495.870116 187.892794 
Q 494.269179 187.970407 492.52554 187.970407 
Q 487.325838 187.970407 484.288962 187.395366 
Q 481.252087 186.820325 481.252087 185.836934 
Q 481.252087 184.850015 484.288962 184.275856 
Q 487.325838 183.700815 492.52554 183.700815 
Q 494.269179 183.700815 495.870116 183.778428 
Q 497.471053 183.855159 498.951586 184.006857 
L 498.951586 184.857953 
Q 497.457675 184.656865 496.008359 184.563377 
Q 494.559042 184.469888 492.958105 184.469888 
Q 490.086228 184.469888 488.440697 184.83414 
Q 486.799624 185.197509 486.799624 185.836934 
Q 486.799624 186.473713 488.440697 186.837964 
Q 490.086228 187.201334 492.958105 187.201334 
Q 494.559042 187.201334 496.008359 187.107846 
Q 497.457675 187.013475 498.951586 186.812387 
L 498.951586 187.664366 
z
" clip-path="url(#p6e7d21c8e9)" style="fill: #0000ff"/>
   </g>
   <g id="patch_89">
    <path d="M 481.252087 170.892037 
L 498.951586 170.892037 
L 498.951586 173.390106 
L 492.583882 173.390106 
L 492.583882 183.700815 
L 487.632139 183.700815 
L 487.632139 173.390106 
L 481.252087 173.390106 
L 481.252087 170.892037 
z
" clip-path="url(#p6e7d21c8e9)" style="fill: #ff0000"/>
   </g>
   <g id="patch_90">
    <path d="M 498.951586 169.015719 
Q 497.166563 169.953878 495.246671 170.4251 
Q 493.326779 170.892037 491.279952 170.892037 
Q 486.654758 170.892037 483.953422 168.09898 
Q 481.252087 165.305923 481.252087 160.529452 
Q 481.252087 155.697292 484.001023 152.925654 
Q 486.753926 150.154016 491.541755 150.154016 
Q 493.38628 150.154016 495.076102 150.530993 
Q 496.769891 150.903686 498.26931 151.640505 
L 498.26931 155.774401 
Q 496.72229 154.827674 495.191137 154.360737 
Q 493.659983 153.889516 492.120896 153.889516 
Q 489.272792 153.889516 487.729739 155.611615 
Q 486.186685 157.329431 486.186685 160.529452 
Q 486.186685 163.699486 487.674205 165.430154 
Q 489.161724 167.156537 491.89876 167.156537 
Q 492.644503 167.156537 493.283145 167.058009 
Q 493.921787 166.955197 494.429527 166.741006 
L 494.429527 162.859856 
L 491.513988 162.859856 
L 491.513988 159.402805 
L 498.951586 159.402805 
L 498.951586 169.015719 
z
" clip-path="url(#p6e7d21c8e9)" style="fill: #ffa600"/>
   </g>
   <g id="patch_91">
    <path d="M 517.582638 192.101271 
Q 516.102105 192.170036 514.501168 192.204818 
Q 512.900231 192.24 511.156591 192.24 
Q 505.95689 192.24 502.920014 191.979334 
Q 499.883139 191.718668 499.883139 191.272897 
Q 499.883139 190.825527 502.920014 190.565261 
Q 505.95689 190.304595 511.156591 190.304595 
Q 512.900231 190.304595 514.501168 190.339777 
Q 516.102105 190.374559 517.582638 190.443324 
L 517.582638 190.829125 
Q 516.088727 190.737972 514.63941 190.695594 
Q 513.190094 190.653216 511.589157 190.653216 
Q 508.71728 190.653216 507.071748 190.818331 
Q 505.430676 190.983046 505.430676 191.272897 
Q 505.430676 191.561549 507.071748 191.726664 
Q 508.71728 191.891379 511.589157 191.891379 
Q 513.190094 191.891379 514.63941 191.849001 
Q 516.088727 191.806223 517.582638 191.71507 
L 517.582638 192.101271 
z
" clip-path="url(#p6e7d21c8e9)" style="fill: #0000ff"/>
   </g>
   <g id="patch_92">
    <path d="M 512.143597 188.424219 
L 505.336654 188.424219 
L 504.261874 190.304595 
L 499.883139 190.304595 
L 506.136407 179.982435 
L 511.32937 179.982435 
L 517.582638 190.304595 
L 513.207521 190.304595 
L 512.143597 188.424219 
z
M 506.422291 186.508447 
L 511.047104 186.508447 
L 508.738316 182.40259 
L 506.422291 186.508447 
z
" clip-path="url(#p6e7d21c8e9)" style="fill: #008000"/>
   </g>
   <g id="patch_93">
    <path d="M 499.883139 169.660276 
L 517.582638 169.660276 
L 517.582638 171.673384 
L 511.214934 171.673384 
L 511.214934 179.982435 
L 506.263191 179.982435 
L 506.263191 171.673384 
L 499.883139 171.673384 
L 499.883139 169.660276 
z
" clip-path="url(#p6e7d21c8e9)" style="fill: #ff0000"/>
   </g>
   <g id="patch_94">
    <path d="M 517.582638 167.675696 
Q 515.797614 168.667986 513.877722 169.166396 
Q 511.957831 169.660276 509.911004 169.660276 
Q 505.28581 169.660276 502.584474 166.706061 
Q 499.883139 163.751847 499.883139 158.699777 
Q 499.883139 153.588805 502.632075 150.657246 
Q 505.384978 147.725686 510.172807 147.725686 
Q 512.017331 147.725686 513.707153 148.124415 
Q 515.400942 148.518612 516.900362 149.297944 
L 516.900362 153.670363 
Q 515.353342 152.669011 513.822188 152.175132 
Q 512.291035 151.676721 510.751948 151.676721 
Q 507.903844 151.676721 506.36079 153.498185 
Q 504.817737 155.315118 504.817737 158.699777 
Q 504.817737 162.05272 506.305256 163.883246 
Q 507.792776 165.70924 510.529812 165.70924 
Q 511.275555 165.70924 511.914197 165.605027 
Q 512.552838 165.496283 513.060578 165.269733 
L 513.060578 161.164643 
L 510.14504 161.164643 
L 510.14504 157.508123 
L 517.582638 157.508123 
L 517.582638 167.675696 
z
" clip-path="url(#p6e7d21c8e9)" style="fill: #ffa600"/>
   </g>
   <g id="patch_95">
    <path d="M 530.774649 191.865432 
L 523.967706 191.865432 
L 522.892926 192.24 
L 518.51419 192.24 
L 524.767458 190.183844 
L 529.960421 190.183844 
L 536.213689 192.24 
L 531.838573 192.24 
L 530.774649 191.865432 
z
M 525.053343 191.483814 
L 529.678156 191.483814 
L 527.369368 190.665935 
L 525.053343 191.483814 
z
" clip-path="url(#p6e7d21c8e9)" style="fill: #008000"/>
   </g>
   <g id="patch_96">
    <path d="M 536.213689 189.749762 
Q 534.428666 189.966803 532.508774 190.075819 
Q 530.588882 190.183844 528.542055 190.183844 
Q 523.916861 190.183844 521.215526 189.537676 
Q 518.51419 188.891508 518.51419 187.786482 
Q 518.51419 186.668572 521.263126 186.02736 
Q 524.016029 185.386147 528.803859 185.386147 
Q 530.648383 185.386147 532.338205 185.47336 
Q 534.031994 185.559582 535.531414 185.730043 
L 535.531414 186.686411 
Q 533.984394 186.467388 532.45324 186.359363 
Q 530.922087 186.250347 529.383 186.250347 
Q 526.534896 186.250347 524.991842 186.648751 
Q 523.448788 187.046164 523.448788 187.786482 
Q 523.448788 188.519863 524.936308 188.920249 
Q 526.423828 189.319644 529.160864 189.319644 
Q 529.906607 189.319644 530.545248 189.29685 
Q 531.18389 189.273065 531.69163 189.223512 
L 531.69163 188.325616 
L 528.776092 188.325616 
L 528.776092 187.525835 
L 536.213689 187.525835 
L 536.213689 189.749762 
z
" clip-path="url(#p6e7d21c8e9)" style="fill: #ffa600"/>
   </g>
   <g id="patch_97">
    <path d="M 518.51419 177.846909 
L 536.213689 177.846909 
L 536.213689 179.31727 
L 529.845986 179.31727 
L 529.845986 185.386147 
L 524.894242 185.386147 
L 524.894242 179.31727 
L 518.51419 179.31727 
L 518.51419 177.846909 
z
" clip-path="url(#p6e7d21c8e9)" style="fill: #ff0000"/>
   </g>
   <g id="patch_98">
    <path d="M 536.213689 177.183681 
Q 534.733157 177.512428 533.13222 177.678713 
Q 531.531282 177.846909 529.787643 177.846909 
Q 524.587941 177.846909 521.551066 176.600728 
Q 518.51419 175.354547 518.51419 173.223425 
Q 518.51419 171.084658 521.551066 169.840388 
Q 524.587941 168.594207 529.787643 168.594207 
Q 531.531282 168.594207 533.13222 168.762404 
Q 534.733157 168.928688 536.213689 169.257435 
L 536.213689 171.10186 
Q 534.719779 170.666079 533.270462 170.463479 
Q 531.821146 170.260879 530.220208 170.260879 
Q 527.348332 170.260879 525.7028 171.050254 
Q 524.061728 171.837718 524.061728 173.223425 
Q 524.061728 174.603398 525.7028 175.392774 
Q 527.348332 176.180238 530.220208 176.180238 
Q 531.821146 176.180238 533.270462 175.977638 
Q 534.719779 175.773126 536.213689 175.337345 
L 536.213689 177.183681 
z
" clip-path="url(#p6e7d21c8e9)" style="fill: #0000ff"/>
   </g>
   <g id="patch_99">
    <path d="M 549.405701 191.751516 
L 542.598758 191.751516 
L 541.523977 192.24 
L 537.145242 192.24 
L 543.39851 189.55851 
L 548.591473 189.55851 
L 554.844741 192.24 
L 550.469625 192.24 
L 549.405701 191.751516 
z
M 543.684395 191.253837 
L 548.309208 191.253837 
L 546.00042 190.187217 
L 543.684395 191.253837 
z
" clip-path="url(#p6e7d21c8e9)" style="fill: #008000"/>
   </g>
   <g id="patch_100">
    <path d="M 537.145242 185.344739 
L 554.844741 185.344739 
L 554.844741 186.166541 
L 548.477038 186.166541 
L 548.477038 189.55851 
L 543.525294 189.55851 
L 543.525294 186.166541 
L 537.145242 186.166541 
L 537.145242 185.344739 
z
" clip-path="url(#p6e7d21c8e9)" style="fill: #ff0000"/>
   </g>
   <g id="patch_101">
    <path d="M 554.844741 184.740658 
Q 553.364209 185.040087 551.763271 185.191542 
Q 550.162334 185.344739 548.418695 185.344739 
Q 543.218993 185.344739 540.182118 184.209693 
Q 537.145242 183.074647 537.145242 181.133579 
Q 537.145242 179.185548 540.182118 178.052243 
Q 543.218993 176.917197 548.418695 176.917197 
Q 550.162334 176.917197 551.763271 177.070394 
Q 553.364209 177.221849 554.844741 177.521278 
L 554.844741 179.201216 
Q 553.35083 178.804298 551.901514 178.619766 
Q 550.452197 178.435234 548.85126 178.435234 
Q 545.979384 178.435234 544.333852 179.154212 
Q 542.69278 179.87145 542.69278 181.133579 
Q 542.69278 182.390486 544.333852 183.109464 
Q 545.979384 183.826702 548.85126 183.826702 
Q 550.452197 183.826702 551.901514 183.64217 
Q 553.35083 183.455897 554.844741 183.058979 
L 554.844741 184.740658 
z
" clip-path="url(#p6e7d21c8e9)" style="fill: #0000ff"/>
   </g>
   <g id="patch_102">
    <path d="M 554.844741 175.912083 
Q 553.059718 176.41464 551.139826 176.667066 
Q 549.219934 176.917197 547.173107 176.917197 
Q 542.547913 176.917197 539.846578 175.421 
Q 537.145242 173.924803 537.145242 171.366123 
Q 537.145242 168.777611 539.894178 167.292888 
Q 542.647081 165.808165 547.434911 165.808165 
Q 549.279435 165.808165 550.969257 166.010106 
Q 552.663046 166.209752 554.162466 166.604454 
L 554.162466 168.818917 
Q 552.615445 168.311771 551.084292 168.061639 
Q 549.553138 167.809214 548.014052 167.809214 
Q 545.165947 167.809214 543.622894 168.731715 
Q 542.07984 169.651922 542.07984 171.366123 
Q 542.07984 173.064261 543.56736 173.991352 
Q 545.054879 174.916149 547.791915 174.916149 
Q 548.537658 174.916149 549.1763 174.863369 
Q 549.814942 174.808294 550.322682 174.693555 
L 550.322682 172.614484 
L 547.407144 172.614484 
L 547.407144 170.762596 
L 554.844741 170.762596 
L 554.844741 175.912083 
z
" clip-path="url(#p6e7d21c8e9)" style="fill: #ffa600"/>
   </g>
   <g id="patch_103">
    <path d="M 573.475793 191.704836 
Q 571.69077 191.972418 569.770878 192.10682 
Q 567.850986 192.24 565.804159 192.24 
Q 561.178965 192.24 558.477629 191.443363 
Q 555.776294 190.646725 555.776294 189.284378 
Q 555.776294 187.906146 558.52523 187.115618 
Q 561.278133 186.32509 566.065962 186.32509 
Q 567.910487 186.32509 569.600309 186.432611 
Q 571.294098 186.538911 572.793517 186.749067 
L 572.793517 187.928139 
Q 571.246497 187.658113 569.715344 187.524933 
Q 568.18419 187.390531 566.645103 187.390531 
Q 563.796999 187.390531 562.253946 187.881709 
Q 560.710892 188.371666 560.710892 189.284378 
Q 560.710892 190.188537 562.198412 190.682158 
Q 563.685931 191.174559 566.422967 191.174559 
Q 567.16871 191.174559 567.807352 191.146456 
Q 568.445994 191.117132 568.953734 191.05604 
L 568.953734 189.949057 
L 566.038195 189.949057 
L 566.038195 188.963035 
L 573.475793 188.963035 
L 573.475793 191.704836 
z
" clip-path="url(#p6e7d21c8e9)" style="fill: #ffa600"/>
   </g>
   <g id="patch_104">
    <path d="M 555.776294 177.452724 
L 573.475793 177.452724 
L 573.475793 179.183083 
L 567.108089 179.183083 
L 567.108089 186.32509 
L 562.156346 186.32509 
L 562.156346 179.183083 
L 555.776294 179.183083 
L 555.776294 177.452724 
z
" clip-path="url(#p6e7d21c8e9)" style="fill: #ff0000"/>
   </g>
   <g id="patch_105">
    <path d="M 573.475793 176.746095 
Q 571.99526 177.096355 570.394323 177.273521 
Q 568.793386 177.452724 567.049747 177.452724 
Q 561.850045 177.452724 558.813169 176.124995 
Q 555.776294 174.797266 555.776294 172.526687 
Q 555.776294 170.247962 558.813169 168.922269 
Q 561.850045 167.59454 567.049747 167.59454 
Q 568.793386 167.59454 570.394323 167.773743 
Q 571.99526 167.950909 573.475793 168.301169 
L 573.475793 170.266289 
Q 571.981882 169.801991 570.532566 169.586134 
Q 569.083249 169.370276 567.482312 169.370276 
Q 564.610435 169.370276 562.964904 170.211307 
Q 561.323831 171.050301 561.323831 172.526687 
Q 561.323831 173.996963 562.964904 174.837994 
Q 564.610435 175.676988 567.482312 175.676988 
Q 569.083249 175.676988 570.532566 175.461131 
Q 571.981882 175.243236 573.475793 174.778939 
L 573.475793 176.746095 
z
" clip-path="url(#p6e7d21c8e9)" style="fill: #0000ff"/>
   </g>
   <g id="patch_106">
    <path d="M 568.036752 159.692781 
L 561.22981 159.692781 
L 560.155029 167.59454 
L 555.776294 167.59454 
L 562.029562 124.218531 
L 567.222525 124.218531 
L 573.475793 167.59454 
L 569.100677 167.59454 
L 568.036752 159.692781 
z
M 562.315446 151.642283 
L 566.940259 151.642283 
L 564.631472 134.388559 
L 562.315446 151.642283 
z
" clip-path="url(#p6e7d21c8e9)" style="fill: #008000"/>
   </g>
   <g id="patch_107">
    <path d="M 592.106845 191.716406 
Q 590.321821 191.978203 588.401929 192.109699 
Q 586.482038 192.24 584.435211 192.24 
Q 579.810017 192.24 577.108681 191.460586 
Q 574.407346 190.681172 574.407346 189.348279 
Q 574.407346 187.999845 577.156282 187.226408 
Q 579.909185 186.452972 584.697014 186.452972 
Q 586.541538 186.452972 588.23136 186.558169 
Q 589.925149 186.66217 591.424569 186.867782 
L 591.424569 188.021363 
Q 589.877549 187.757175 588.346395 187.626874 
Q 586.815242 187.495378 585.276155 187.495378 
Q 582.428051 187.495378 580.884997 187.975937 
Q 579.341944 188.4553 579.341944 189.348279 
Q 579.341944 190.23289 580.829463 190.715839 
Q 582.316983 191.197594 585.054019 191.197594 
Q 585.799762 191.197594 586.438404 191.170099 
Q 587.077045 191.141409 587.584785 191.081638 
L 587.584785 189.998587 
L 584.669247 189.998587 
L 584.669247 189.033884 
L 592.106845 189.033884 
L 592.106845 191.716406 
z
" clip-path="url(#p6e7d21c8e9)" style="fill: #ffa600"/>
   </g>
   <g id="patch_108">
    <path d="M 586.667804 185.266978 
L 579.860861 185.266978 
L 578.786081 186.452972 
L 574.407346 186.452972 
L 580.660614 179.942565 
L 585.853577 179.942565 
L 592.106845 186.452972 
L 587.731728 186.452972 
L 586.667804 185.266978 
z
M 580.946498 184.05866 
L 585.571311 184.05866 
L 583.262523 181.469008 
L 580.946498 184.05866 
z
" clip-path="url(#p6e7d21c8e9)" style="fill: #008000"/>
   </g>
   <g id="patch_109">
    <path d="M 574.407346 171.262022 
L 592.106845 171.262022 
L 592.106845 172.95497 
L 585.739141 172.95497 
L 585.739141 179.942565 
L 580.787398 179.942565 
L 580.787398 172.95497 
L 574.407346 172.95497 
L 574.407346 171.262022 
z
" clip-path="url(#p6e7d21c8e9)" style="fill: #ff0000"/>
   </g>
   <g id="patch_110">
    <path d="M 592.106845 169.187969 
Q 590.626312 170.21603 589.025375 170.736038 
Q 587.424438 171.262022 585.680798 171.262022 
Q 580.481097 171.262022 577.444221 167.364953 
Q 574.407346 163.467884 574.407346 156.803417 
Q 574.407346 150.115042 577.444221 146.22395 
Q 580.481097 142.326881 585.680798 142.326881 
Q 587.424438 142.326881 589.025375 142.852866 
Q 590.626312 143.372873 592.106845 144.400935 
L 592.106845 150.168836 
Q 590.612934 148.806057 589.163617 148.172485 
Q 587.714301 147.538912 586.113364 147.538912 
Q 583.241487 147.538912 581.595955 150.007455 
Q 579.954883 152.47002 579.954883 156.803417 
Q 579.954883 161.118884 581.595955 163.587426 
Q 583.241487 166.049991 586.113364 166.049991 
Q 587.714301 166.049991 589.163617 165.416419 
Q 590.612934 164.776869 592.106845 163.41409 
L 592.106845 169.187969 
z
" clip-path="url(#p6e7d21c8e9)" style="fill: #0000ff"/>
   </g>
   <g id="patch_111">
    <path d="M 610.737896 191.900766 
Q 609.257364 192.068916 607.656427 192.153969 
Q 606.055489 192.24 604.31185 192.24 
Q 599.112148 192.24 596.075273 191.602591 
Q 593.038397 190.965183 593.038397 189.875136 
Q 593.038397 188.781178 596.075273 188.144747 
Q 599.112148 187.507338 604.31185 187.507338 
Q 606.055489 187.507338 607.656427 187.593369 
Q 609.257364 187.678422 610.737896 187.846573 
L 610.737896 188.789977 
Q 609.243986 188.567079 607.794669 188.463451 
Q 606.345353 188.359824 604.744415 188.359824 
Q 601.872539 188.359824 600.227007 188.763581 
Q 598.585935 189.166361 598.585935 189.875136 
Q 598.585935 190.580978 600.227007 190.984735 
Q 601.872539 191.387515 604.744415 191.387515 
Q 606.345353 191.387515 607.794669 191.283887 
Q 609.243986 191.179282 610.737896 190.956384 
L 610.737896 191.900766 
z
" clip-path="url(#p6e7d21c8e9)" style="fill: #0000ff"/>
   </g>
   <g id="patch_112">
    <path d="M 610.737896 187.025616 
Q 608.952873 187.266477 607.032981 187.387458 
Q 605.113089 187.507338 603.066262 187.507338 
Q 598.441068 187.507338 595.739733 186.790254 
Q 593.038397 186.073169 593.038397 184.846866 
Q 593.038397 183.606265 595.787333 182.89468 
Q 598.540236 182.183094 603.328066 182.183094 
Q 605.17259 182.183094 606.862412 182.279878 
Q 608.556201 182.375563 610.055621 182.564733 
L 610.055621 183.626062 
Q 608.508601 183.383001 606.977447 183.26312 
Q 605.446294 183.14214 603.907207 183.14214 
Q 601.059103 183.14214 599.516049 183.584269 
Q 597.972995 184.025298 597.972995 184.846866 
Q 597.972995 185.660735 599.460515 186.105064 
Q 600.948035 186.548292 603.685071 186.548292 
Q 604.430814 186.548292 605.069455 186.522997 
Q 605.708097 186.496601 606.215837 186.44161 
L 606.215837 185.44517 
L 603.300299 185.44517 
L 603.300299 184.557612 
L 610.737896 184.557612 
L 610.737896 187.025616 
z
" clip-path="url(#p6e7d21c8e9)" style="fill: #ffa600"/>
   </g>
   <g id="patch_113">
    <path d="M 605.298856 180.566575 
L 598.491913 180.566575 
L 597.417133 182.183094 
L 593.038397 182.183094 
L 599.291665 173.309353 
L 604.484628 173.309353 
L 610.737896 182.183094 
L 606.36278 182.183094 
L 605.298856 180.566575 
z
M 599.57755 178.919627 
L 604.202363 178.919627 
L 601.893575 175.389909 
L 599.57755 178.919627 
z
" clip-path="url(#p6e7d21c8e9)" style="fill: #008000"/>
   </g>
   <g id="patch_114">
    <path d="M 593.038397 151.420793 
L 610.737896 151.420793 
L 610.737896 155.689672 
L 604.370193 155.689672 
L 604.370193 173.309353 
L 599.418449 173.309353 
L 599.418449 155.689672 
L 593.038397 155.689672 
L 593.038397 151.420793 
z
" clip-path="url(#p6e7d21c8e9)" style="fill: #ff0000"/>
   </g>
   <g id="patch_115">
    <path d="M 623.929908 191.610364 
L 617.122965 191.610364 
L 616.048184 192.24 
L 611.669449 192.24 
L 617.922717 188.783668 
L 623.11568 188.783668 
L 629.368948 192.24 
L 624.993832 192.24 
L 623.929908 191.610364 
z
M 618.208602 190.968876 
L 622.833415 190.968876 
L 620.524627 189.594047 
L 618.208602 190.968876 
z
" clip-path="url(#p6e7d21c8e9)" style="fill: #008000"/>
   </g>
   <g id="patch_116">
    <path d="M 629.368948 188.275499 
Q 627.583925 188.529584 625.664033 188.657206 
Q 623.744141 188.783668 621.697314 188.783668 
Q 617.07212 188.783668 614.370785 188.027216 
Q 611.669449 187.270764 611.669449 185.977139 
Q 611.669449 184.66843 614.418385 183.917779 
Q 617.171288 183.167128 621.959118 183.167128 
Q 623.803642 183.167128 625.493464 183.269226 
Q 627.187253 183.370164 628.686673 183.569719 
L 628.686673 184.689314 
Q 627.139652 184.432909 625.608499 184.306447 
Q 624.077345 184.178825 622.538259 184.178825 
Q 619.690154 184.178825 618.147101 184.645226 
Q 616.604047 185.110467 616.604047 185.977139 
Q 616.604047 186.835688 618.091567 187.30441 
Q 619.579086 187.771972 622.316122 187.771972 
Q 623.061865 187.771972 623.700507 187.745287 
Q 624.339149 187.717442 624.846889 187.659432 
L 624.846889 186.608289 
L 621.931351 186.608289 
L 621.931351 185.672005 
L 629.368948 185.672005 
L 629.368948 188.275499 
z
" clip-path="url(#p6e7d21c8e9)" style="fill: #ffa600"/>
   </g>
   <g id="patch_117">
    <path d="M 611.669449 177.118547 
L 629.368948 177.118547 
L 629.368948 178.298189 
L 623.001245 178.298189 
L 623.001245 183.167128 
L 618.049501 183.167128 
L 618.049501 178.298189 
L 611.669449 178.298189 
L 611.669449 177.118547 
z
" clip-path="url(#p6e7d21c8e9)" style="fill: #ff0000"/>
   </g>
   <g id="patch_118">
    <path d="M 629.368948 176.065619 
Q 627.888416 176.587532 626.287478 176.851522 
Q 624.686541 177.118547 622.942902 177.118547 
Q 617.7432 177.118547 614.706325 175.140135 
Q 611.669449 173.161722 611.669449 169.778393 
Q 611.669449 166.382927 614.706325 164.407549 
Q 617.7432 162.429136 622.942902 162.429136 
Q 624.686541 162.429136 626.287478 162.696161 
Q 627.888416 162.960152 629.368948 163.482065 
L 629.368948 166.410237 
Q 627.875037 165.718399 626.425721 165.396756 
Q 624.976404 165.075112 623.375467 165.075112 
Q 620.503591 165.075112 618.858059 166.328309 
Q 617.216987 167.578471 617.216987 169.778393 
Q 617.216987 171.969212 618.858059 173.22241 
Q 620.503591 174.472572 623.375467 174.472572 
Q 624.976404 174.472572 626.425721 174.150928 
Q 627.875037 173.82625 629.368948 173.134413 
L 629.368948 176.065619 
z
" clip-path="url(#p6e7d21c8e9)" style="fill: #0000ff"/>
   </g>
   <g id="patch_119">
    <path d="M 648 192.107416 
Q 646.519467 192.173135 644.91853 192.206376 
Q 643.317593 192.24 641.573954 192.24 
Q 636.374252 192.24 633.337376 191.99088 
Q 630.300501 191.74176 630.300501 191.315734 
Q 630.300501 190.888179 633.337376 190.639441 
Q 636.374252 190.390321 641.573954 190.390321 
Q 643.317593 190.390321 644.91853 190.423945 
Q 646.519467 190.457186 648 190.522905 
L 648 190.891618 
Q 646.506089 190.804502 645.056773 190.764001 
Q 643.607456 190.7235 642.006519 190.7235 
Q 639.134642 190.7235 637.489111 190.881302 
Q 635.848038 191.038721 635.848038 191.315734 
Q 635.848038 191.5916 637.489111 191.749401 
Q 639.134642 191.906821 642.006519 191.906821 
Q 643.607456 191.906821 645.056773 191.86632 
Q 646.506089 191.825437 648 191.738321 
L 648 192.107416 
z
" clip-path="url(#p6e7d21c8e9)" style="fill: #0000ff"/>
   </g>
   <g id="patch_120">
    <path d="M 642.560959 189.828731 
L 635.754017 189.828731 
L 634.679236 190.390321 
L 630.300501 190.390321 
L 636.553769 187.307523 
L 641.746732 187.307523 
L 648 190.390321 
L 643.624884 190.390321 
L 642.560959 189.828731 
z
M 636.839653 189.25657 
L 641.464466 189.25657 
L 639.155679 188.030322 
L 636.839653 189.25657 
z
" clip-path="url(#p6e7d21c8e9)" style="fill: #008000"/>
   </g>
   <g id="patch_121">
    <path d="M 630.300501 183.608165 
L 648 183.608165 
L 648 184.329643 
L 641.632296 184.329643 
L 641.632296 187.307523 
L 636.680553 187.307523 
L 636.680553 184.329643 
L 630.300501 184.329643 
L 630.300501 183.608165 
z
" clip-path="url(#p6e7d21c8e9)" style="fill: #ff0000"/>
   </g>
   <g id="patch_122">
    <path d="M 648 183.106104 
Q 646.214977 183.357135 644.295085 183.483223 
Q 642.375193 183.608165 640.328366 183.608165 
Q 635.703172 183.608165 633.001836 182.860805 
Q 630.300501 182.113445 630.300501 180.835366 
Q 630.300501 179.542387 633.049437 178.800758 
Q 635.80234 178.059129 640.590169 178.059129 
Q 642.434694 178.059129 644.124516 178.16 
Q 645.818305 178.259724 647.317724 178.45688 
L 647.317724 179.56302 
Q 645.770704 179.309697 644.239551 179.184754 
Q 642.708397 179.058666 641.16931 179.058666 
Q 638.321206 179.058666 636.778153 179.519462 
Q 635.235099 179.979112 635.235099 180.835366 
Q 635.235099 181.683598 636.722619 182.146686 
Q 638.210138 182.608628 640.947174 182.608628 
Q 641.692917 182.608628 642.331559 182.582264 
Q 642.970201 182.554754 643.477941 182.497441 
L 643.477941 181.458931 
L 640.562402 181.458931 
L 640.562402 180.533901 
L 648 180.533901 
L 648 183.106104 
z
" clip-path="url(#p6e7d21c8e9)" style="fill: #ffa600"/>
   </g>
   <g id="matplotlib.axis_1">
    <g id="xtick_1">
     <g id="line2d_2">
      <defs>
       <path id="m2931ca121d" d="M 0 0 
L 0 3.5 
" style="stroke: #000000; stroke-width: 0.8"/>
      </defs>
      <g>
       <use xlink:href="#m2931ca121d" x="98.84975" y="192.24" style="stroke: #000000; stroke-width: 0.8"/>
      </g>
     </g>
     <g id="text_1">
      <!-- 0 -->
      <g transform="translate(95.6685 206.838437) scale(0.1 -0.1)">
       <defs>
        <path id="DejaVuSans-30" d="M 2034 4250 
Q 1547 4250 1301 3770 
Q 1056 3291 1056 2328 
Q 1056 1369 1301 889 
Q 1547 409 2034 409 
Q 2525 409 2770 889 
Q 3016 1369 3016 2328 
Q 3016 3291 2770 3770 
Q 2525 4250 2034 4250 
z
M 2034 4750 
Q 2819 4750 3233 4129 
Q 3647 3509 3647 2328 
Q 3647 1150 3233 529 
Q 2819 -91 2034 -91 
Q 1250 -91 836 529 
Q 422 1150 422 2328 
Q 422 3509 836 4129 
Q 1250 4750 2034 4750 
z
" transform="scale(0.015625)"/>
       </defs>
       <use xlink:href="#DejaVuSans-30"/>
      </g>
     </g>
    </g>
    <g id="xtick_2">
     <g id="line2d_3">
      <g>
       <use xlink:href="#m2931ca121d" x="192.005008" y="192.24" style="stroke: #000000; stroke-width: 0.8"/>
      </g>
     </g>
     <g id="text_2">
      <!-- 5 -->
      <g transform="translate(188.823758 206.838437) scale(0.1 -0.1)">
       <defs>
        <path id="DejaVuSans-35" d="M 691 4666 
L 3169 4666 
L 3169 4134 
L 1269 4134 
L 1269 2991 
Q 1406 3038 1543 3061 
Q 1681 3084 1819 3084 
Q 2600 3084 3056 2656 
Q 3513 2228 3513 1497 
Q 3513 744 3044 326 
Q 2575 -91 1722 -91 
Q 1428 -91 1123 -41 
Q 819 9 494 109 
L 494 744 
Q 775 591 1075 516 
Q 1375 441 1709 441 
Q 2250 441 2565 725 
Q 2881 1009 2881 1497 
Q 2881 1984 2565 2268 
Q 2250 2553 1709 2553 
Q 1456 2553 1204 2497 
Q 953 2441 691 2322 
L 691 4666 
z
" transform="scale(0.015625)"/>
       </defs>
       <use xlink:href="#DejaVuSans-35"/>
      </g>
     </g>
    </g>
    <g id="xtick_3">
     <g id="line2d_4">
      <g>
       <use xlink:href="#m2931ca121d" x="285.160267" y="192.24" style="stroke: #000000; stroke-width: 0.8"/>
      </g>
     </g>
     <g id="text_3">
      <!-- 10 -->
      <g transform="translate(278.797767 206.838437) scale(0.1 -0.1)">
       <defs>
        <path id="DejaVuSans-31" d="M 794 531 
L 1825 531 
L 1825 4091 
L 703 3866 
L 703 4441 
L 1819 4666 
L 2450 4666 
L 2450 531 
L 3481 531 
L 3481 0 
L 794 0 
L 794 531 
z
" transform="scale(0.015625)"/>
       </defs>
       <use xlink:href="#DejaVuSans-31"/>
       <use xlink:href="#DejaVuSans-30" x="63.623047"/>
      </g>
     </g>
    </g>
    <g id="xtick_4">
     <g id="line2d_5">
      <g>
       <use xlink:href="#m2931ca121d" x="378.315526" y="192.24" style="stroke: #000000; stroke-width: 0.8"/>
      </g>
     </g>
     <g id="text_4">
      <!-- 15 -->
      <g transform="translate(371.953026 206.838437) scale(0.1 -0.1)">
       <use xlink:href="#DejaVuSans-31"/>
       <use xlink:href="#DejaVuSans-35" x="63.623047"/>
      </g>
     </g>
    </g>
    <g id="xtick_5">
     <g id="line2d_6">
      <g>
       <use xlink:href="#m2931ca121d" x="471.470785" y="192.24" style="stroke: #000000; stroke-width: 0.8"/>
      </g>
     </g>
     <g id="text_5">
      <!-- 20 -->
      <g transform="translate(465.108285 206.838437) scale(0.1 -0.1)">
       <defs>
        <path id="DejaVuSans-32" d="M 1228 531 
L 3431 531 
L 3431 0 
L 469 0 
L 469 531 
Q 828 903 1448 1529 
Q 2069 2156 2228 2338 
Q 2531 2678 2651 2914 
Q 2772 3150 2772 3378 
Q 2772 3750 2511 3984 
Q 2250 4219 1831 4219 
Q 1534 4219 1204 4116 
Q 875 4013 500 3803 
L 500 4441 
Q 881 4594 1212 4672 
Q 1544 4750 1819 4750 
Q 2544 4750 2975 4387 
Q 3406 4025 3406 3419 
Q 3406 3131 3298 2873 
Q 3191 2616 2906 2266 
Q 2828 2175 2409 1742 
Q 1991 1309 1228 531 
z
" transform="scale(0.015625)"/>
       </defs>
       <use xlink:href="#DejaVuSans-32"/>
       <use xlink:href="#DejaVuSans-30" x="63.623047"/>
      </g>
     </g>
    </g>
    <g id="xtick_6">
     <g id="line2d_7">
      <g>
       <use xlink:href="#m2931ca121d" x="564.626043" y="192.24" style="stroke: #000000; stroke-width: 0.8"/>
      </g>
     </g>
     <g id="text_6">
      <!-- 25 -->
      <g transform="translate(558.263543 206.838437) scale(0.1 -0.1)">
       <use xlink:href="#DejaVuSans-32"/>
       <use xlink:href="#DejaVuSans-35" x="63.623047"/>
      </g>
     </g>
    </g>
   </g>
   <g id="matplotlib.axis_2">
    <g id="ytick_1">
     <g id="line2d_8">
      <defs>
       <path id="ma03932d0b3" d="M 0 0 
L -3.5 0 
" style="stroke: #000000; stroke-width: 0.8"/>
      </defs>
      <g>
       <use xlink:href="#ma03932d0b3" x="90" y="192.24" style="stroke: #000000; stroke-width: 0.8"/>
      </g>
     </g>
     <g id="text_7">
      <!-- 0.0 -->
      <g transform="translate(67.096875 196.039219) scale(0.1 -0.1)">
       <defs>
        <path id="DejaVuSans-2e" d="M 684 794 
L 1344 794 
L 1344 0 
L 684 0 
L 684 794 
z
" transform="scale(0.015625)"/>
       </defs>
       <use xlink:href="#DejaVuSans-30"/>
       <use xlink:href="#DejaVuSans-2e" x="63.623047"/>
       <use xlink:href="#DejaVuSans-30" x="95.410156"/>
      </g>
     </g>
    </g>
    <g id="ytick_2">
     <g id="line2d_9">
      <g>
       <use xlink:href="#ma03932d0b3" x="90" y="164.61925" style="stroke: #000000; stroke-width: 0.8"/>
      </g>
     </g>
     <g id="text_8">
      <!-- 0.2 -->
      <g transform="translate(67.096875 168.418469) scale(0.1 -0.1)">
       <use xlink:href="#DejaVuSans-30"/>
       <use xlink:href="#DejaVuSans-2e" x="63.623047"/>
       <use xlink:href="#DejaVuSans-32" x="95.410156"/>
      </g>
     </g>
    </g>
    <g id="ytick_3">
     <g id="line2d_10">
      <g>
       <use xlink:href="#ma03932d0b3" x="90" y="136.998501" style="stroke: #000000; stroke-width: 0.8"/>
      </g>
     </g>
     <g id="text_9">
      <!-- 0.4 -->
      <g transform="translate(67.096875 140.797719) scale(0.1 -0.1)">
       <defs>
        <path id="DejaVuSans-34" d="M 2419 4116 
L 825 1625 
L 2419 1625 
L 2419 4116 
z
M 2253 4666 
L 3047 4666 
L 3047 1625 
L 3713 1625 
L 3713 1100 
L 3047 1100 
L 3047 0 
L 2419 0 
L 2419 1100 
L 313 1100 
L 313 1709 
L 2253 4666 
z
" transform="scale(0.015625)"/>
       </defs>
       <use xlink:href="#DejaVuSans-30"/>
       <use xlink:href="#DejaVuSans-2e" x="63.623047"/>
       <use xlink:href="#DejaVuSans-34" x="95.410156"/>
      </g>
     </g>
    </g>
    <g id="ytick_4">
     <g id="line2d_11">
      <g>
       <use xlink:href="#ma03932d0b3" x="90" y="109.377751" style="stroke: #000000; stroke-width: 0.8"/>
      </g>
     </g>
     <g id="text_10">
      <!-- 0.6 -->
      <g transform="translate(67.096875 113.17697) scale(0.1 -0.1)">
       <defs>
        <path id="DejaVuSans-36" d="M 2113 2584 
Q 1688 2584 1439 2293 
Q 1191 2003 1191 1497 
Q 1191 994 1439 701 
Q 1688 409 2113 409 
Q 2538 409 2786 701 
Q 3034 994 3034 1497 
Q 3034 2003 2786 2293 
Q 2538 2584 2113 2584 
z
M 3366 4563 
L 3366 3988 
Q 3128 4100 2886 4159 
Q 2644 4219 2406 4219 
Q 1781 4219 1451 3797 
Q 1122 3375 1075 2522 
Q 1259 2794 1537 2939 
Q 1816 3084 2150 3084 
Q 2853 3084 3261 2657 
Q 3669 2231 3669 1497 
Q 3669 778 3244 343 
Q 2819 -91 2113 -91 
Q 1303 -91 875 529 
Q 447 1150 447 2328 
Q 447 3434 972 4092 
Q 1497 4750 2381 4750 
Q 2619 4750 2861 4703 
Q 3103 4656 3366 4563 
z
" transform="scale(0.015625)"/>
       </defs>
       <use xlink:href="#DejaVuSans-30"/>
       <use xlink:href="#DejaVuSans-2e" x="63.623047"/>
       <use xlink:href="#DejaVuSans-36" x="95.410156"/>
      </g>
     </g>
    </g>
    <g id="ytick_5">
     <g id="line2d_12">
      <g>
       <use xlink:href="#ma03932d0b3" x="90" y="81.757001" style="stroke: #000000; stroke-width: 0.8"/>
      </g>
     </g>
     <g id="text_11">
      <!-- 0.8 -->
      <g transform="translate(67.096875 85.55622) scale(0.1 -0.1)">
       <defs>
        <path id="DejaVuSans-38" d="M 2034 2216 
Q 1584 2216 1326 1975 
Q 1069 1734 1069 1313 
Q 1069 891 1326 650 
Q 1584 409 2034 409 
Q 2484 409 2743 651 
Q 3003 894 3003 1313 
Q 3003 1734 2745 1975 
Q 2488 2216 2034 2216 
z
M 1403 2484 
Q 997 2584 770 2862 
Q 544 3141 544 3541 
Q 544 4100 942 4425 
Q 1341 4750 2034 4750 
Q 2731 4750 3128 4425 
Q 3525 4100 3525 3541 
Q 3525 3141 3298 2862 
Q 3072 2584 2669 2484 
Q 3125 2378 3379 2068 
Q 3634 1759 3634 1313 
Q 3634 634 3220 271 
Q 2806 -91 2034 -91 
Q 1263 -91 848 271 
Q 434 634 434 1313 
Q 434 1759 690 2068 
Q 947 2378 1403 2484 
z
M 1172 3481 
Q 1172 3119 1398 2916 
Q 1625 2713 2034 2713 
Q 2441 2713 2670 2916 
Q 2900 3119 2900 3481 
Q 2900 3844 2670 4047 
Q 2441 4250 2034 4250 
Q 1625 4250 1398 4047 
Q 1172 3844 1172 3481 
z
" transform="scale(0.015625)"/>
       </defs>
       <use xlink:href="#DejaVuSans-30"/>
       <use xlink:href="#DejaVuSans-2e" x="63.623047"/>
       <use xlink:href="#DejaVuSans-38" x="95.410156"/>
      </g>
     </g>
    </g>
    <g id="ytick_6">
     <g id="line2d_13">
      <g>
       <use xlink:href="#ma03932d0b3" x="90" y="54.136252" style="stroke: #000000; stroke-width: 0.8"/>
      </g>
     </g>
     <g id="text_12">
      <!-- 1.0 -->
      <g transform="translate(67.096875 57.935471) scale(0.1 -0.1)">
       <use xlink:href="#DejaVuSans-31"/>
       <use xlink:href="#DejaVuSans-2e" x="63.623047"/>
       <use xlink:href="#DejaVuSans-30" x="95.410156"/>
      </g>
     </g>
    </g>
    <g id="ytick_7">
     <g id="line2d_14">
      <g>
       <use xlink:href="#ma03932d0b3" x="90" y="26.515502" style="stroke: #000000; stroke-width: 0.8"/>
      </g>
     </g>
     <g id="text_13">
      <!-- 1.2 -->
      <g transform="translate(67.096875 30.314721) scale(0.1 -0.1)">
       <use xlink:href="#DejaVuSans-31"/>
       <use xlink:href="#DejaVuSans-2e" x="63.623047"/>
       <use xlink:href="#DejaVuSans-32" x="95.410156"/>
      </g>
     </g>
    </g>
   </g>
  </g>
 </g>
 <defs>
  <clipPath id="p6e7d21c8e9">
   <rect x="90" y="25.92" width="558" height="166.32"/>
  </clipPath>
 </defs>
</svg>
