<?xml version="1.0" encoding="utf-8" standalone="no"?>
<!DOCTYPE svg PUBLIC "-//W3C//DTD SVG 1.1//EN"
  "http://www.w3.org/Graphics/SVG/1.1/DTD/svg11.dtd">
<svg xmlns:xlink="http://www.w3.org/1999/xlink" width="720pt" height="216pt" viewBox="0 0 720 216" xmlns="http://www.w3.org/2000/svg" version="1.1">
 <metadata>
  <rdf:RDF xmlns:dc="http://purl.org/dc/elements/1.1/" xmlns:cc="http://creativecommons.org/ns#" xmlns:rdf="http://www.w3.org/1999/02/22-rdf-syntax-ns#">
   <cc:Work>
    <dc:type rdf:resource="http://purl.org/dc/dcmitype/StillImage"/>
    <dc:date>2025-12-17T10:22:05.057291</dc:date>
    <dc:format>image/svg+xml</dc:format>
    <dc:creator>
     <cc:Agent>
      <dc:title>Matplotlib v3.8.2, https://matplotlib.org/</dc:title>
     </cc:Agent>
    </dc:creator>
   </cc:Work>
  </rdf:RDF>
 </metadata>
 <defs>
  <style type="text/css">*{stroke-linejoin: round; stroke-linecap: butt}</style>
 </defs>
 <g id="figure_1">
  <g id="patch_1">
   <path d="M 0 216 
L 720 216 
L 720 0 
L 0 0 
z
" style="fill: #ffffff"/>
  </g>
  <g id="axes_1">
   <g id="patch_2">
    <path d="M 90 192.24 
L 648 192.24 
L 648 25.92 
L 90 25.92 
z
" style="fill: #ffffff"/>
   </g>
   <g id="line2d_1">
    <path d="M 90 192.24 
L 648 192.24 
" clip-path="url(#p0b941845df)" style="fill: none; stroke: #000000; stroke-width: 0.5; stroke-linecap: square"/>
   </g>
   <g id="patch_3">
    <path d="M 108.310881 192.07919 
Q 106.464199 192.159595 104.477989 192.199981 
Q 102.49178 192.24 100.374251 192.24 
Q 95.589292 192.24 92.794646 192.00062 
Q 90 191.761241 90 191.351873 
Q 90 190.937731 92.843891 190.700188 
Q 95.691885 190.462644 100.645097 190.462644 
Q 102.553336 190.462644 104.301528 190.494953 
Q 106.053825 190.526894 107.605038 190.590044 
L 107.605038 190.94434 
Q 106.00458 190.863201 104.420537 190.823182 
Q 102.836494 190.782796 101.244243 190.782796 
Q 98.297759 190.782796 96.701405 190.930388 
Q 95.105051 191.077614 95.105051 191.351873 
Q 95.105051 191.623561 96.643953 191.771888 
Q 98.182854 191.919848 101.014434 191.919848 
Q 101.785937 191.919848 102.446639 191.911404 
Q 103.107341 191.902592 103.632619 191.884235 
L 103.632619 191.5516 
L 100.616371 191.5516 
L 100.616371 191.255313 
L 108.310881 191.255313 
L 108.310881 192.07919 
z
" clip-path="url(#p0b941845df)" style="fill: #ffa600"/>
   </g>
   <g id="patch_4">
    <path d="M 108.310881 190.265477 
Q 106.779207 190.363208 105.12297 190.412642 
Q 103.466732 190.462644 101.662864 190.462644 
Q 96.283552 190.462644 93.141776 190.092176 
Q 90 189.721707 90 189.088161 
Q 90 188.452342 93.141776 188.082442 
Q 96.283552 187.711974 101.662864 187.711974 
Q 103.466732 187.711974 105.12297 187.761976 
Q 106.779207 187.811409 108.310881 187.90914 
L 108.310881 188.457456 
Q 106.765367 188.327906 105.265988 188.267676 
Q 103.766608 188.207447 102.110371 188.207447 
Q 99.139293 188.207447 97.436921 188.442114 
Q 95.739162 188.676214 95.739162 189.088161 
Q 95.739162 189.498404 97.436921 189.733071 
Q 99.139293 189.967171 102.110371 189.967171 
Q 103.766608 189.967171 105.265988 189.906941 
Q 106.765367 189.846144 108.310881 189.716593 
L 108.310881 190.265477 
z
" clip-path="url(#p0b941845df)" style="fill: #0000ff"/>
   </g>
   <g id="patch_5">
    <path d="M 90 183.035834 
L 108.310881 183.035834 
L 108.310881 183.947812 
L 101.723222 183.947812 
L 101.723222 187.711974 
L 96.600434 187.711974 
L 96.600434 183.947812 
L 90 183.947812 
L 90 183.035834 
z
" clip-path="url(#p0b941845df)" style="fill: #ff0000"/>
   </g>
   <g id="patch_6">
    <path d="M 102.683963 181.952717 
L 95.641893 181.952717 
L 94.529987 183.035834 
L 90 183.035834 
L 96.469271 177.090155 
L 101.84161 177.090155 
L 108.310881 183.035834 
L 103.784638 183.035834 
L 102.683963 181.952717 
z
M 96.76503 180.849211 
L 101.549595 180.849211 
L 99.161056 178.484191 
L 96.76503 180.849211 
z
" clip-path="url(#p0b941845df)" style="fill: #008000"/>
   </g>
   <g id="patch_7">
    <path d="M 127.585492 192.195251 
Q 125.73881 192.217626 123.752601 192.228864 
Q 121.766391 192.24 119.648862 192.24 
Q 114.863903 192.24 112.069257 192.173388 
Q 109.274611 192.106775 109.274611 191.992859 
Q 109.274611 191.877616 112.118502 191.811514 
Q 114.966497 191.745412 119.919709 191.745412 
Q 121.827947 191.745412 123.57614 191.754403 
Q 125.328436 191.763292 126.879649 191.780864 
L 126.879649 191.879455 
Q 125.279191 191.856876 123.695148 191.84574 
Q 122.111105 191.834502 120.518855 191.834502 
Q 117.57237 191.834502 115.976016 191.875572 
Q 114.379662 191.916541 114.379662 191.992859 
Q 114.379662 192.068463 115.918564 192.109738 
Q 117.457466 192.150911 120.289045 192.150911 
Q 121.060548 192.150911 121.72125 192.148561 
Q 122.381952 192.146109 122.90723 192.141001 
L 122.90723 192.048438 
L 119.890983 192.048438 
L 119.890983 191.96599 
L 127.585492 191.96599 
L 127.585492 192.195251 
z
" clip-path="url(#p0b941845df)" style="fill: #ffa600"/>
   </g>
   <g id="patch_8">
    <path d="M 127.585492 191.694737 
Q 126.053819 191.719856 124.397581 191.732561 
Q 122.741344 191.745412 120.937475 191.745412 
Q 115.558164 191.745412 112.416388 191.650195 
Q 109.274611 191.554977 109.274611 191.392144 
Q 109.274611 191.228726 112.416388 191.133655 
Q 115.558164 191.038437 120.937475 191.038437 
Q 122.741344 191.038437 124.397581 191.051289 
Q 126.053819 191.063994 127.585492 191.089113 
L 127.585492 191.230041 
Q 126.039978 191.196744 124.540599 191.181264 
Q 123.04122 191.165783 121.384982 191.165783 
Q 118.413905 191.165783 116.711533 191.226097 
Q 115.013774 191.286266 115.013774 191.392144 
Q 115.013774 191.497584 116.711533 191.557898 
Q 118.413905 191.618066 121.384982 191.618066 
Q 123.04122 191.618066 124.540599 191.602586 
Q 126.039978 191.58696 127.585492 191.553663 
L 127.585492 191.694737 
z
" clip-path="url(#p0b941845df)" style="fill: #0000ff"/>
   </g>
   <g id="patch_9">
    <path d="M 121.958575 190.895319 
L 114.916504 190.895319 
L 113.804598 191.038437 
L 109.274611 191.038437 
L 115.743882 190.2528 
L 121.116222 190.2528 
L 127.585492 191.038437 
L 123.059249 191.038437 
L 121.958575 190.895319 
z
M 116.039641 190.749506 
L 120.824206 190.749506 
L 118.435667 190.437002 
L 116.039641 190.749506 
z
" clip-path="url(#p0b941845df)" style="fill: #008000"/>
   </g>
   <g id="patch_10">
    <path d="M 109.274611 189.423899 
L 127.585492 189.423899 
L 127.585492 189.585558 
L 120.997833 189.585558 
L 120.997833 190.2528 
L 115.875045 190.2528 
L 115.875045 189.585558 
L 109.274611 189.585558 
L 109.274611 189.423899 
z
" clip-path="url(#p0b941845df)" style="fill: #ff0000"/>
   </g>
   <g id="patch_11">
    <path d="M 146.860104 192.136086 
Q 145.013421 192.188043 143.027212 192.21414 
Q 141.041003 192.24 138.923474 192.24 
Q 134.138515 192.24 131.343869 192.085316 
Q 128.549223 191.930631 128.549223 191.666102 
Q 128.549223 191.398489 131.393114 191.244991 
Q 134.241108 191.091492 139.19432 191.091492 
Q 141.102559 191.091492 142.850751 191.11237 
Q 144.603047 191.13301 146.154261 191.173817 
L 146.154261 191.402759 
Q 144.553803 191.350328 142.96976 191.324468 
Q 141.385717 191.298371 139.793466 191.298371 
Q 136.846982 191.298371 135.250628 191.393744 
Q 133.654273 191.488879 133.654273 191.666102 
Q 133.654273 191.841664 135.193175 191.937511 
Q 136.732077 192.033122 139.563657 192.033122 
Q 140.33516 192.033122 140.995861 192.027665 
Q 141.656563 192.021971 142.181842 192.010109 
L 142.181842 191.795164 
L 139.165594 191.795164 
L 139.165594 191.603706 
L 146.860104 191.603706 
L 146.860104 192.136086 
z
" clip-path="url(#p0b941845df)" style="fill: #ffa600"/>
   </g>
   <g id="patch_12">
    <path d="M 141.233186 190.796911 
L 134.191116 190.796911 
L 133.07921 191.091492 
L 128.549223 191.091492 
L 135.018493 189.474414 
L 140.390833 189.474414 
L 146.860104 191.091492 
L 142.333861 191.091492 
L 141.233186 190.796911 
z
M 135.314253 190.496785 
L 140.098817 190.496785 
L 137.710279 189.853558 
L 135.314253 190.496785 
z
" clip-path="url(#p0b941845df)" style="fill: #008000"/>
   </g>
   <g id="patch_13">
    <path d="M 146.860104 189.34244 
Q 145.32843 189.407856 143.672193 189.440945 
Q 142.015955 189.474414 140.212087 189.474414 
Q 134.832775 189.474414 131.690999 189.226439 
Q 128.549223 188.978464 128.549223 188.554396 
Q 128.549223 188.128807 131.690999 187.881212 
Q 134.832775 187.633237 140.212087 187.633237 
Q 142.015955 187.633237 143.672193 187.666706 
Q 145.32843 187.699794 146.860104 187.765211 
L 146.860104 188.13223 
Q 145.31459 188.045514 143.81521 188.005199 
Q 142.315831 187.964884 140.659594 187.964884 
Q 137.688516 187.964884 135.986144 188.121961 
Q 134.288385 188.278657 134.288385 188.554396 
Q 134.288385 188.828994 135.986144 188.98607 
Q 137.688516 189.142766 140.659594 189.142766 
Q 142.315831 189.142766 143.81521 189.102451 
Q 145.31459 189.061756 146.860104 188.975041 
L 146.860104 189.34244 
z
" clip-path="url(#p0b941845df)" style="fill: #0000ff"/>
   </g>
   <g id="patch_14">
    <path d="M 128.549223 184.946595 
L 146.860104 184.946595 
L 146.860104 185.470565 
L 140.272445 185.470565 
L 140.272445 187.633237 
L 135.149657 187.633237 
L 135.149657 185.470565 
L 128.549223 185.470565 
L 128.549223 184.946595 
z
" clip-path="url(#p0b941845df)" style="fill: #ff0000"/>
   </g>
   <g id="patch_15">
    <path d="M 166.134715 191.902371 
Q 164.288033 192.071185 162.301823 192.155978 
Q 160.315614 192.24 158.198085 192.24 
Q 153.413126 192.24 150.61848 191.737411 
Q 147.823834 191.234821 147.823834 190.375332 
Q 147.823834 189.505821 150.667725 189.007086 
Q 153.515719 188.508351 158.468932 188.508351 
Q 160.37717 188.508351 162.125363 188.576185 
Q 163.877659 188.643249 165.428872 188.775834 
L 165.428872 189.519697 
Q 163.828414 189.34934 162.244371 189.265319 
Q 160.660328 189.180526 159.068077 189.180526 
Q 156.121593 189.180526 154.525239 189.490405 
Q 152.928885 189.799512 152.928885 190.375332 
Q 152.928885 190.945755 154.467787 191.257176 
Q 156.006689 191.567825 158.838268 191.567825 
Q 159.609771 191.567825 160.270473 191.550096 
Q 160.931175 191.531596 161.456453 191.493054 
L 161.456453 190.79467 
L 158.440205 190.79467 
L 158.440205 190.1726 
L 166.134715 190.1726 
L 166.134715 191.902371 
z
" clip-path="url(#p0b941845df)" style="fill: #ffa600"/>
   </g>
   <g id="patch_16">
    <path d="M 160.507797 187.456356 
L 153.465727 187.456356 
L 152.353821 188.508351 
L 147.823834 188.508351 
L 154.293105 182.733518 
L 159.665445 182.733518 
L 166.134715 188.508351 
L 161.608472 188.508351 
L 160.507797 187.456356 
z
M 154.588864 186.384559 
L 159.373429 186.384559 
L 156.98489 184.087497 
L 154.588864 186.384559 
z
" clip-path="url(#p0b941845df)" style="fill: #008000"/>
   </g>
   <g id="patch_17">
    <path d="M 166.134715 182.177196 
Q 164.603041 182.452952 162.946804 182.592433 
Q 161.290567 182.733518 159.486698 182.733518 
Q 154.107387 182.733518 150.96561 181.688209 
Q 147.823834 180.642899 147.823834 178.855292 
Q 147.823834 177.061272 150.96561 176.017566 
Q 154.107387 174.972256 159.486698 174.972256 
Q 161.290567 174.972256 162.946804 175.113341 
Q 164.603041 175.252822 166.134715 175.528579 
L 166.134715 177.075701 
Q 164.589201 176.710163 163.089822 176.54022 
Q 161.590443 176.370277 159.934205 176.370277 
Q 156.963127 176.370277 155.260755 177.032414 
Q 153.562997 177.692946 153.562997 178.855292 
Q 153.562997 180.012828 155.260755 180.674964 
Q 156.963127 181.335497 159.934205 181.335497 
Q 161.590443 181.335497 163.089822 181.165554 
Q 164.589201 180.994008 166.134715 180.62847 
L 166.134715 182.177196 
z
" clip-path="url(#p0b941845df)" style="fill: #0000ff"/>
   </g>
   <g id="patch_18">
    <path d="M 147.823834 151.603337 
L 166.134715 151.603337 
L 166.134715 156.160928 
L 159.547056 156.160928 
L 159.547056 174.972256 
L 154.424268 174.972256 
L 154.424268 156.160928 
L 147.823834 156.160928 
L 147.823834 151.603337 
z
" clip-path="url(#p0b941845df)" style="fill: #ff0000"/>
   </g>
   <g id="patch_19">
    <path d="M 185.409326 191.967387 
Q 183.562644 192.103693 181.576435 192.172158 
Q 179.590225 192.24 177.472696 192.24 
Q 172.687737 192.24 169.893091 191.834192 
Q 167.098446 191.428384 167.098446 190.734403 
Q 167.098446 190.032331 169.942336 189.629635 
Q 172.790331 189.226939 177.743543 189.226939 
Q 179.651781 189.226939 181.399974 189.281711 
Q 183.15227 189.33586 184.703483 189.442913 
L 184.703483 190.043534 
Q 183.103025 189.905982 181.518982 189.83814 
Q 179.934939 189.769676 178.342689 189.769676 
Q 175.396205 189.769676 173.79985 190.019883 
Q 172.203496 190.269467 172.203496 190.734403 
Q 172.203496 191.194983 173.742398 191.446434 
Q 175.2813 191.697263 178.11288 191.697263 
Q 178.884382 191.697263 179.545084 191.682948 
Q 180.205786 191.66801 180.731065 191.63689 
L 180.731065 191.072991 
L 177.714817 191.072991 
L 177.714817 190.570711 
L 185.409326 190.570711 
L 185.409326 191.967387 
z
" clip-path="url(#p0b941845df)" style="fill: #ffa600"/>
   </g>
   <g id="patch_20">
    <path d="M 179.782409 187.602091 
L 172.740338 187.602091 
L 171.628432 189.226939 
L 167.098446 189.226939 
L 173.567716 180.30748 
L 178.940056 180.30748 
L 185.409326 189.226939 
L 180.883083 189.226939 
L 179.782409 187.602091 
z
M 173.863476 185.946658 
L 178.64804 185.946658 
L 176.259502 182.398755 
L 173.863476 185.946658 
z
" clip-path="url(#p0b941845df)" style="fill: #008000"/>
   </g>
   <g id="patch_21">
    <path d="M 185.409326 179.656696 
Q 183.877653 179.979275 182.221415 180.14244 
Q 180.565178 180.30748 178.761309 180.30748 
Q 173.381998 180.30748 170.240222 179.084682 
Q 167.098446 177.861883 167.098446 175.770748 
Q 167.098446 173.672111 170.240222 172.451188 
Q 173.381998 171.228389 178.761309 171.228389 
Q 180.565178 171.228389 182.221415 171.393429 
Q 183.877653 171.556594 185.409326 171.879173 
L 185.409326 173.68899 
Q 183.863812 173.261385 182.364433 173.062587 
Q 180.865054 172.863788 179.208817 172.863788 
Q 176.237739 172.863788 174.535367 173.638352 
Q 172.837608 174.411041 172.837608 175.770748 
Q 172.837608 177.124828 174.535367 177.899392 
Q 176.237739 178.672081 179.208817 178.672081 
Q 180.865054 178.672081 182.364433 178.473283 
Q 183.863812 178.272609 185.409326 177.845004 
L 185.409326 179.656696 
z
" clip-path="url(#p0b941845df)" style="fill: #0000ff"/>
   </g>
   <g id="patch_22">
    <path d="M 167.098446 135.091611 
L 185.409326 135.091611 
L 185.409326 142.13929 
L 178.821668 142.13929 
L 178.821668 171.228389 
L 173.698879 171.228389 
L 173.698879 142.13929 
L 167.098446 142.13929 
L 167.098446 135.091611 
z
" clip-path="url(#p0b941845df)" style="fill: #ff0000"/>
   </g>
   <g id="patch_23">
    <path d="M 204.683938 192.046534 
Q 203.152264 192.142431 201.496027 192.190937 
Q 199.839789 192.24 198.035921 192.24 
Q 192.656609 192.24 189.514833 191.876485 
Q 186.373057 191.512969 186.373057 190.891314 
Q 186.373057 190.267428 189.514833 189.90447 
Q 192.656609 189.540955 198.035921 189.540955 
Q 199.839789 189.540955 201.496027 189.590018 
Q 203.152264 189.638524 204.683938 189.734421 
L 204.683938 190.272445 
Q 203.138424 190.145327 201.639045 190.086228 
Q 200.139665 190.027128 198.483428 190.027128 
Q 195.51235 190.027128 193.809978 190.257392 
Q 192.112219 190.487098 192.112219 190.891314 
Q 192.112219 191.293857 193.809978 191.52412 
Q 195.51235 191.753826 198.483428 191.753826 
Q 200.139665 191.753826 201.639045 191.694727 
Q 203.138424 191.63507 204.683938 191.507952 
L 204.683938 192.046534 
z
" clip-path="url(#p0b941845df)" style="fill: #0000ff"/>
   </g>
   <g id="patch_24">
    <path d="M 204.683938 189.281289 
Q 202.837256 189.411122 200.851046 189.476334 
Q 198.864837 189.540955 196.747308 189.540955 
Q 191.962349 189.540955 189.167703 189.15442 
Q 186.373057 188.767885 186.373057 188.106863 
Q 186.373057 187.438134 189.216948 187.054564 
Q 192.064942 186.670993 197.018154 186.670993 
Q 198.926393 186.670993 200.674585 186.723164 
Q 202.426882 186.774741 203.978095 186.87671 
L 203.978095 187.448806 
Q 202.377637 187.317787 200.793594 187.253167 
Q 199.209551 187.187954 197.6173 187.187954 
Q 194.670816 187.187954 193.074462 187.426277 
Q 191.478108 187.664008 191.478108 188.106863 
Q 191.478108 188.545568 193.017009 188.785078 
Q 194.555911 189.023994 197.387491 189.023994 
Q 198.158994 189.023994 198.819696 189.010359 
Q 199.480398 188.99613 200.005676 188.966488 
L 200.005676 188.429371 
L 196.989428 188.429371 
L 196.989428 187.950945 
L 204.683938 187.950945 
L 204.683938 189.281289 
z
" clip-path="url(#p0b941845df)" style="fill: #ffa600"/>
   </g>
   <g id="patch_25">
    <path d="M 199.05702 185.644818 
L 192.01495 185.644818 
L 190.903044 186.670993 
L 186.373057 186.670993 
L 192.842328 181.037893 
L 198.214667 181.037893 
L 204.683938 186.670993 
L 200.157695 186.670993 
L 199.05702 185.644818 
z
M 193.138087 184.599326 
L 197.922652 184.599326 
L 195.534113 182.358641 
L 193.138087 184.599326 
z
" clip-path="url(#p0b941845df)" style="fill: #008000"/>
   </g>
   <g id="patch_26">
    <path d="M 186.373057 171.844047 
L 204.683938 171.844047 
L 204.683938 173.637103 
L 198.096279 173.637103 
L 198.096279 181.037893 
L 192.973491 181.037893 
L 192.973491 173.637103 
L 186.373057 173.637103 
L 186.373057 171.844047 
z
" clip-path="url(#p0b941845df)" style="fill: #ff0000"/>
   </g>
   <g id="patch_27">
    <path d="M 223.958549 192.045261 
Q 222.111867 192.142631 220.125658 192.191538 
Q 218.139448 192.24 216.021919 192.24 
Q 211.23696 192.24 208.442314 191.950115 
Q 205.647668 191.660229 205.647668 191.16449 
Q 205.647668 190.662971 208.491559 190.375308 
Q 211.339554 190.087646 216.292766 190.087646 
Q 218.201004 190.087646 219.949197 190.126772 
Q 221.701493 190.165453 223.252706 190.241926 
L 223.252706 190.670974 
Q 221.652248 190.572715 220.068205 190.524253 
Q 218.484162 190.475346 216.891912 190.475346 
Q 213.945427 190.475346 212.349073 190.654079 
Q 210.752719 190.832367 210.752719 191.16449 
Q 210.752719 191.493501 212.291621 191.673123 
Q 213.830523 191.852301 216.662102 191.852301 
Q 217.433605 191.852301 218.094307 191.842075 
Q 218.755009 191.831404 219.280287 191.809174 
L 219.280287 191.406358 
L 216.26404 191.406358 
L 216.26404 191.047558 
L 223.958549 191.047558 
L 223.958549 192.045261 
z
" clip-path="url(#p0b941845df)" style="fill: #ffa600"/>
   </g>
   <g id="patch_28">
    <path d="M 223.958549 189.918827 
Q 222.426876 190.002507 220.770638 190.044833 
Q 219.114401 190.087646 217.310532 190.087646 
Q 211.931221 190.087646 208.789445 189.770442 
Q 205.647668 189.453238 205.647668 188.910779 
Q 205.647668 188.366375 208.789445 188.049657 
Q 211.931221 187.732453 217.310532 187.732453 
Q 219.114401 187.732453 220.770638 187.775266 
Q 222.426876 187.817592 223.958549 187.901272 
L 223.958549 188.370754 
Q 222.413035 188.259829 220.913656 188.208259 
Q 219.414277 188.156689 217.758039 188.156689 
Q 214.786962 188.156689 213.08459 188.357618 
Q 211.386831 188.55806 211.386831 188.910779 
Q 211.386831 189.262039 213.08459 189.462968 
Q 214.786962 189.66341 217.758039 189.66341 
Q 219.414277 189.66341 220.913656 189.61184 
Q 222.413035 189.559783 223.958549 189.448859 
L 223.958549 189.918827 
z
" clip-path="url(#p0b941845df)" style="fill: #0000ff"/>
   </g>
   <g id="patch_29">
    <path d="M 205.647668 182.08675 
L 223.958549 182.08675 
L 223.958549 183.187819 
L 217.37089 183.187819 
L 217.37089 187.732453 
L 212.248102 187.732453 
L 212.248102 183.187819 
L 205.647668 183.187819 
L 205.647668 182.08675 
z
" clip-path="url(#p0b941845df)" style="fill: #ff0000"/>
   </g>
   <g id="patch_30">
    <path d="M 218.331632 180.996694 
L 211.289561 180.996694 
L 210.177655 182.08675 
L 205.647668 182.08675 
L 212.116939 176.102981 
L 217.489279 176.102981 
L 223.958549 182.08675 
L 219.432306 182.08675 
L 218.331632 180.996694 
z
M 212.412698 179.886118 
L 217.197263 179.886118 
L 214.808724 177.505948 
L 212.412698 179.886118 
z
" clip-path="url(#p0b941845df)" style="fill: #008000"/>
   </g>
   <g id="patch_31">
    <path d="M 243.233161 192.035898 
Q 241.386478 192.137949 239.400269 192.189208 
Q 237.41406 192.24 235.296531 192.24 
Q 230.511572 192.24 227.716926 191.936177 
Q 224.92228 191.632355 224.92228 191.112781 
Q 224.92228 190.587149 227.766171 190.285657 
Q 230.614165 189.984164 235.567377 189.984164 
Q 237.475616 189.984164 239.223808 190.025171 
Q 240.976104 190.065712 242.527318 190.145861 
L 242.527318 190.595537 
Q 240.92686 190.492554 239.342817 190.441762 
Q 237.758774 190.390504 236.166523 190.390504 
Q 233.220039 190.390504 231.623685 190.57783 
Q 230.02733 190.76469 230.02733 191.112781 
Q 230.02733 191.45761 231.566232 191.645868 
Q 233.105134 191.833661 235.936714 191.833661 
Q 236.708217 191.833661 237.368918 191.822943 
Q 238.02962 191.811759 238.554899 191.78846 
L 238.554899 191.366277 
L 235.538651 191.366277 
L 235.538651 190.990227 
L 243.233161 190.990227 
L 243.233161 192.035898 
z
" clip-path="url(#p0b941845df)" style="fill: #ffa600"/>
   </g>
   <g id="patch_32">
    <path d="M 243.233161 189.548602 
Q 241.701487 189.7645 240.04525 189.873705 
Q 238.389012 189.984164 236.585144 189.984164 
Q 231.205832 189.984164 228.064056 189.165759 
Q 224.92228 188.347354 224.92228 186.947782 
Q 224.92228 185.543188 228.064056 184.726038 
Q 231.205832 183.907633 236.585144 183.907633 
Q 238.389012 183.907633 240.04525 184.018093 
Q 241.701487 184.127297 243.233161 184.343196 
L 243.233161 185.554485 
Q 241.687647 185.268294 240.188267 185.135241 
Q 238.688888 185.002187 237.032651 185.002187 
Q 234.061573 185.002187 232.359201 185.520594 
Q 230.661442 186.037746 230.661442 186.947782 
Q 230.661442 187.854052 232.359201 188.372459 
Q 234.061573 188.88961 237.032651 188.88961 
Q 238.688888 188.88961 240.188267 188.756557 
Q 241.687647 188.622248 243.233161 188.336057 
L 243.233161 189.548602 
z
" clip-path="url(#p0b941845df)" style="fill: #0000ff"/>
   </g>
   <g id="patch_33">
    <path d="M 224.92228 177.627874 
L 243.233161 177.627874 
L 243.233161 178.852602 
L 236.645502 178.852602 
L 236.645502 183.907633 
L 231.522714 183.907633 
L 231.522714 178.852602 
L 224.92228 178.852602 
L 224.92228 177.627874 
z
" clip-path="url(#p0b941845df)" style="fill: #ff0000"/>
   </g>
   <g id="patch_34">
    <path d="M 237.606243 174.988213 
L 230.564173 174.988213 
L 229.452267 177.627874 
L 224.92228 177.627874 
L 231.39155 163.137686 
L 236.76389 163.137686 
L 243.233161 177.627874 
L 238.706918 177.627874 
L 237.606243 174.988213 
z
M 231.68731 172.298864 
L 236.471874 172.298864 
L 234.083336 166.535085 
L 231.68731 172.298864 
z
" clip-path="url(#p0b941845df)" style="fill: #008000"/>
   </g>
   <g id="patch_35">
    <path d="M 262.507772 191.809857 
Q 260.66109 192.024929 258.67488 192.132955 
Q 256.688671 192.24 254.571142 192.24 
Q 249.786183 192.24 246.991537 191.599696 
Q 244.196891 190.959393 244.196891 189.864395 
Q 244.196891 188.756631 247.040782 188.121237 
Q 249.888776 187.485844 254.841989 187.485844 
Q 256.750227 187.485844 258.49842 187.572265 
Q 260.250716 187.657705 261.801929 187.826619 
L 261.801929 188.774308 
Q 260.201471 188.557272 258.617428 188.450228 
Q 257.033385 188.342201 255.441134 188.342201 
Q 252.49465 188.342201 250.898296 188.736989 
Q 249.301942 189.130796 249.301942 189.864395 
Q 249.301942 190.59112 250.840844 190.987873 
Q 252.379746 191.383643 255.211325 191.383643 
Q 255.982828 191.383643 256.64353 191.361056 
Q 257.304232 191.337486 257.82951 191.288383 
L 257.82951 190.398636 
L 254.813262 190.398636 
L 254.813262 189.606113 
L 262.507772 189.606113 
L 262.507772 191.809857 
z
" clip-path="url(#p0b941845df)" style="fill: #ffa600"/>
   </g>
   <g id="patch_36">
    <path d="M 262.507772 186.866689 
Q 260.976098 187.17359 259.319861 187.328825 
Q 257.663624 187.485844 255.859755 187.485844 
Q 250.480444 187.485844 247.338667 186.322475 
Q 244.196891 185.159107 244.196891 183.169604 
Q 244.196891 181.172964 247.338667 180.01138 
Q 250.480444 178.848011 255.859755 178.848011 
Q 257.663624 178.848011 259.319861 179.00503 
Q 260.976098 179.160265 262.507772 179.467166 
L 262.507772 181.189023 
Q 260.962258 180.7822 259.462879 180.593064 
Q 257.9635 180.403927 256.307262 180.403927 
Q 253.336184 180.403927 251.633812 181.140846 
Q 249.936054 181.875981 249.936054 183.169604 
Q 249.936054 184.457874 251.633812 185.194793 
Q 253.336184 185.929928 256.307262 185.929928 
Q 257.9635 185.929928 259.462879 185.740791 
Q 260.962258 185.54987 262.507772 185.143048 
L 262.507772 186.866689 
z
" clip-path="url(#p0b941845df)" style="fill: #0000ff"/>
   </g>
   <g id="patch_37">
    <path d="M 244.196891 170.210178 
L 262.507772 170.210178 
L 262.507772 171.894796 
L 255.920113 171.894796 
L 255.920113 178.848011 
L 250.797325 178.848011 
L 250.797325 171.894796 
L 244.196891 171.894796 
L 244.196891 170.210178 
z
" clip-path="url(#p0b941845df)" style="fill: #ff0000"/>
   </g>
   <g id="patch_38">
    <path d="M 256.880854 156.755764 
L 249.838784 156.755764 
L 248.726878 170.210178 
L 244.196891 170.210178 
L 250.666162 96.353359 
L 256.038502 96.353359 
L 262.507772 170.210178 
L 257.981529 170.210178 
L 256.880854 156.755764 
z
M 250.961921 143.048091 
L 255.746486 143.048091 
L 253.357947 113.669982 
L 250.961921 143.048091 
z
" clip-path="url(#p0b941845df)" style="fill: #008000"/>
   </g>
   <g id="patch_39">
    <path d="M 281.782383 191.802815 
Q 279.935701 192.021407 277.949492 192.131203 
Q 275.963282 192.24 273.845753 192.24 
Q 269.060794 192.24 266.266148 191.589213 
Q 263.471503 190.938426 263.471503 189.8255 
Q 263.471503 188.699598 266.315393 188.053802 
Q 269.163388 187.408005 274.1166 187.408005 
Q 276.024838 187.408005 277.773031 187.495842 
Q 279.525327 187.58268 281.07654 187.75436 
L 281.07654 188.717565 
Q 279.476082 188.496976 277.892039 188.388179 
Q 276.307996 188.278383 274.715746 188.278383 
Q 271.769262 188.278383 270.172907 188.679635 
Q 268.576553 189.079889 268.576553 189.8255 
Q 268.576553 190.564123 270.115455 190.967372 
Q 271.654357 191.369622 274.485937 191.369622 
Q 275.257439 191.369622 275.918141 191.346665 
Q 276.578843 191.32271 277.104122 191.272803 
L 277.104122 190.368488 
L 274.087874 190.368488 
L 274.087874 189.562989 
L 281.782383 189.562989 
L 281.782383 191.802815 
z
" clip-path="url(#p0b941845df)" style="fill: #ffa600"/>
   </g>
   <g id="patch_40">
    <path d="M 281.782383 186.943743 
Q 280.25071 187.173867 278.594472 187.290267 
Q 276.938235 187.408005 275.134366 187.408005 
Q 269.755055 187.408005 266.613279 186.535674 
Q 263.471503 185.663342 263.471503 184.171548 
Q 263.471503 182.674402 266.613279 181.803408 
Q 269.755055 180.931076 275.134366 180.931076 
Q 276.938235 180.931076 278.594472 181.048814 
Q 280.25071 181.165214 281.782383 181.395339 
L 281.782383 182.686443 
Q 280.236869 182.381395 278.73749 182.239574 
Q 277.238111 182.097753 275.581874 182.097753 
Q 272.610796 182.097753 270.908424 182.650319 
Q 269.210665 183.201547 269.210665 184.171548 
Q 269.210665 185.137535 270.908424 185.690101 
Q 272.610796 186.241329 275.581874 186.241329 
Q 277.238111 186.241329 278.73749 186.099508 
Q 280.236869 185.956349 281.782383 185.651301 
L 281.782383 186.943743 
z
" clip-path="url(#p0b941845df)" style="fill: #0000ff"/>
   </g>
   <g id="patch_41">
    <path d="M 263.471503 170.067656 
L 281.782383 170.067656 
L 281.782383 172.186325 
L 275.194725 172.186325 
L 275.194725 180.931076 
L 270.071936 180.931076 
L 270.071936 172.186325 
L 263.471503 172.186325 
L 263.471503 170.067656 
z
" clip-path="url(#p0b941845df)" style="fill: #ff0000"/>
   </g>
   <g id="patch_42">
    <path d="M 276.155466 156.227301 
L 269.113395 156.227301 
L 268.001489 170.067656 
L 263.471503 170.067656 
L 269.940773 94.09225 
L 275.313113 94.09225 
L 281.782383 170.067656 
L 277.25614 170.067656 
L 276.155466 156.227301 
z
M 270.236533 142.126422 
L 275.021097 142.126422 
L 272.632559 111.9056 
L 270.236533 142.126422 
z
" clip-path="url(#p0b941845df)" style="fill: #008000"/>
   </g>
   <g id="patch_43">
    <path d="M 301.056995 192.030971 
Q 299.210313 192.135486 297.224103 192.187981 
Q 295.237894 192.24 293.120365 192.24 
Q 288.335406 192.24 285.54076 191.928843 
Q 282.746114 191.617686 282.746114 191.085569 
Q 282.746114 190.547248 285.590005 190.238477 
Q 288.437999 189.929706 293.391211 189.929706 
Q 295.29945 189.929706 297.047642 189.971702 
Q 298.799939 190.013222 300.351152 190.095306 
L 300.351152 190.555838 
Q 298.750694 190.450369 297.166651 190.39835 
Q 295.582608 190.345855 293.990357 190.345855 
Q 291.043873 190.345855 289.447519 190.537703 
Q 287.851165 190.729074 287.851165 191.085569 
Q 287.851165 191.438723 289.390066 191.631525 
Q 290.928968 191.823851 293.760548 191.823851 
Q 294.532051 191.823851 295.192753 191.812875 
Q 295.853455 191.801421 296.378733 191.777559 
L 296.378733 191.345185 
L 293.362485 191.345185 
L 293.362485 190.960056 
L 301.056995 190.960056 
L 301.056995 192.030971 
z
" clip-path="url(#p0b941845df)" style="fill: #ffa600"/>
   </g>
   <g id="patch_44">
    <path d="M 282.746114 186.467328 
L 301.056995 186.467328 
L 301.056995 187.142588 
L 294.469336 187.142588 
L 294.469336 189.929706 
L 289.346548 189.929706 
L 289.346548 187.142588 
L 282.746114 187.142588 
L 282.746114 186.467328 
z
" clip-path="url(#p0b941845df)" style="fill: #ff0000"/>
   </g>
   <g id="patch_45">
    <path d="M 301.056995 186.196306 
Q 299.525321 186.330645 297.869084 186.398596 
Q 296.212846 186.467328 294.408978 186.467328 
Q 289.029666 186.467328 285.88789 185.958087 
Q 282.746114 185.448846 282.746114 184.577981 
Q 282.746114 183.703991 285.88789 183.195531 
Q 289.029666 182.68629 294.408978 182.68629 
Q 296.212846 182.68629 297.869084 182.755022 
Q 299.525321 182.822973 301.056995 182.957312 
L 301.056995 183.711021 
Q 299.511481 183.532942 298.012102 183.450152 
Q 296.512722 183.367361 294.856485 183.367361 
Q 291.885407 183.367361 290.183035 183.689932 
Q 288.485276 184.011723 288.485276 184.577981 
Q 288.485276 185.141895 290.183035 185.464467 
Q 291.885407 185.786257 294.856485 185.786257 
Q 296.512722 185.786257 298.012102 185.703466 
Q 299.511481 185.619895 301.056995 185.441816 
L 301.056995 186.196306 
z
" clip-path="url(#p0b941845df)" style="fill: #0000ff"/>
   </g>
   <g id="patch_46">
    <path d="M 295.430077 181.229454 
L 288.388007 181.229454 
L 287.276101 182.68629 
L 282.746114 182.68629 
L 289.215385 174.689117 
L 294.587724 174.689117 
L 301.056995 182.68629 
L 296.530752 182.68629 
L 295.430077 181.229454 
z
M 289.511144 179.745195 
L 294.295709 179.745195 
L 291.90717 176.564151 
L 289.511144 179.745195 
z
" clip-path="url(#p0b941845df)" style="fill: #008000"/>
   </g>
   <g id="patch_47">
    <path d="M 320.331606 192.158942 
Q 318.484924 192.199471 316.498715 192.219828 
Q 314.512505 192.24 312.394976 192.24 
Q 307.610017 192.24 304.815371 192.119338 
Q 302.020725 191.998675 302.020725 191.792328 
Q 302.020725 191.583575 304.864616 191.463838 
Q 307.712611 191.344101 312.665823 191.344101 
Q 314.574061 191.344101 316.322254 191.360386 
Q 318.07455 191.376487 319.625763 191.408318 
L 319.625763 191.586906 
Q 318.025305 191.546006 316.441262 191.525834 
Q 314.857219 191.505477 313.264969 191.505477 
Q 310.318484 191.505477 308.72213 191.579873 
Q 307.125776 191.654084 307.125776 191.792328 
Q 307.125776 191.929276 308.664678 192.004042 
Q 310.20358 192.078623 313.035159 192.078623 
Q 313.806662 192.078623 314.467364 192.074367 
Q 315.128066 192.069925 315.653344 192.060672 
L 315.653344 191.893003 
L 312.637097 191.893003 
L 312.637097 191.743656 
L 320.331606 191.743656 
L 320.331606 192.158942 
z
" clip-path="url(#p0b941845df)" style="fill: #ffa600"/>
   </g>
   <g id="patch_48">
    <path d="M 314.704689 191.094959 
L 307.662618 191.094959 
L 306.550712 191.344101 
L 302.020725 191.344101 
L 308.489996 189.976457 
L 313.862336 189.976457 
L 320.331606 191.344101 
L 315.805363 191.344101 
L 314.704689 191.094959 
z
M 308.785755 190.841127 
L 313.57032 190.841127 
L 311.181781 190.297118 
L 308.785755 190.841127 
z
" clip-path="url(#p0b941845df)" style="fill: #008000"/>
   </g>
   <g id="patch_49">
    <path d="M 302.020725 188.236385 
L 320.331606 188.236385 
L 320.331606 188.575747 
L 313.743947 188.575747 
L 313.743947 189.976457 
L 308.621159 189.976457 
L 308.621159 188.575747 
L 302.020725 188.575747 
L 302.020725 188.236385 
z
" clip-path="url(#p0b941845df)" style="fill: #ff0000"/>
   </g>
   <g id="patch_50">
    <path d="M 320.331606 188.098606 
Q 318.799933 188.1669 317.143695 188.201444 
Q 315.487458 188.236385 313.683589 188.236385 
Q 308.304278 188.236385 305.162502 187.977504 
Q 302.020725 187.718623 302.020725 187.275906 
Q 302.020725 186.8316 305.162502 186.573116 
Q 308.304278 186.314236 313.683589 186.314236 
Q 315.487458 186.314236 317.143695 186.349176 
Q 318.799933 186.38372 320.331606 186.452014 
L 320.331606 186.835173 
Q 318.786092 186.744644 317.286713 186.702557 
Q 315.787334 186.660469 314.131096 186.660469 
Q 311.160019 186.660469 309.457647 186.824453 
Q 307.759888 186.98804 307.759888 187.275906 
Q 307.759888 187.56258 309.457647 187.726564 
Q 311.160019 187.890152 314.131096 187.890152 
Q 315.787334 187.890152 317.286713 187.848064 
Q 318.786092 187.805579 320.331606 187.71505 
L 320.331606 188.098606 
z
" clip-path="url(#p0b941845df)" style="fill: #0000ff"/>
   </g>
   <g id="patch_51">
    <path d="M 339.606218 192.105969 
Q 337.759535 192.172985 335.773326 192.206645 
Q 333.787117 192.24 331.669588 192.24 
Q 326.884629 192.24 324.089983 192.040484 
Q 321.295337 191.840967 321.295337 191.49977 
Q 321.295337 191.154594 324.139228 190.956608 
Q 326.987222 190.758622 331.940434 190.758622 
Q 333.848673 190.758622 335.596865 190.78555 
Q 337.349161 190.812173 338.900375 190.864806 
L 338.900375 191.160103 
Q 337.299917 191.092475 335.715874 191.05912 
Q 334.131831 191.02546 332.53958 191.02546 
Q 329.593096 191.02546 327.996742 191.148474 
Q 326.400387 191.271183 326.400387 191.49977 
Q 326.400387 191.726215 327.939289 191.849842 
Q 329.478191 191.973162 332.309771 191.973162 
Q 333.081274 191.973162 333.741975 191.966124 
Q 334.402677 191.95878 334.927956 191.94348 
L 334.927956 191.666238 
L 331.911708 191.666238 
L 331.911708 191.41929 
L 339.606218 191.41929 
L 339.606218 192.105969 
z
" clip-path="url(#p0b941845df)" style="fill: #ffa600"/>
   </g>
   <g id="patch_52">
    <path d="M 333.9793 190.482937 
L 326.93723 190.482937 
L 325.825324 190.758622 
L 321.295337 190.758622 
L 327.764607 189.245272 
L 333.136947 189.245272 
L 339.606218 190.758622 
L 335.079975 190.758622 
L 333.9793 190.482937 
z
M 328.060367 190.202062 
L 332.844931 190.202062 
L 330.456393 189.600095 
L 328.060367 190.202062 
z
" clip-path="url(#p0b941845df)" style="fill: #008000"/>
   </g>
   <g id="patch_53">
    <path d="M 321.295337 187.582718 
L 339.606218 187.582718 
L 339.606218 187.906962 
L 333.018559 187.906962 
L 333.018559 189.245272 
L 327.895771 189.245272 
L 327.895771 187.906962 
L 321.295337 187.906962 
L 321.295337 187.582718 
z
" clip-path="url(#p0b941845df)" style="fill: #ff0000"/>
   </g>
   <g id="patch_54">
    <path d="M 339.606218 187.369585 
Q 338.074544 187.47523 336.418307 187.528667 
Q 334.762069 187.582718 332.958201 187.582718 
Q 327.578889 187.582718 324.437113 187.18225 
Q 321.295337 186.781782 321.295337 186.096932 
Q 321.295337 185.409626 324.437113 185.009772 
Q 327.578889 184.609304 332.958201 184.609304 
Q 334.762069 184.609304 336.418307 184.663355 
Q 338.074544 184.716792 339.606218 184.822436 
L 339.606218 185.415154 
Q 338.060704 185.275113 336.561324 185.210006 
Q 335.061945 185.144899 333.405708 185.144899 
Q 330.43463 185.144899 328.732258 185.39857 
Q 327.034499 185.651626 327.034499 186.096932 
Q 327.034499 186.540395 328.732258 186.794066 
Q 330.43463 187.047122 333.405708 187.047122 
Q 335.061945 187.047122 336.561324 186.982016 
Q 338.060704 186.916295 339.606218 186.776254 
L 339.606218 187.369585 
z
" clip-path="url(#p0b941845df)" style="fill: #0000ff"/>
   </g>
   <g id="patch_55">
    <path d="M 358.880829 191.848856 
Q 357.034147 192.044428 355.047937 192.14266 
Q 353.061728 192.24 350.944199 192.24 
Q 346.15924 192.24 343.364594 191.657749 
Q 340.569948 191.075498 340.569948 190.079777 
Q 340.569948 189.072447 343.413839 188.494661 
Q 346.261833 187.916875 351.215046 187.916875 
Q 353.123284 187.916875 354.871477 187.995461 
Q 356.623773 188.073154 358.174986 188.226754 
L 358.174986 189.088521 
Q 356.574528 188.891163 354.990485 188.793823 
Q 353.406442 188.695591 351.814191 188.695591 
Q 348.867707 188.695591 347.271353 189.054586 
Q 345.674999 189.412688 345.674999 190.079777 
Q 345.674999 190.740614 347.213901 191.101395 
Q 348.752803 191.461284 351.584382 191.461284 
Q 352.355885 191.461284 353.016587 191.440744 
Q 353.677289 191.419312 354.202567 191.37466 
L 354.202567 190.565581 
L 351.186319 190.565581 
L 351.186319 189.844912 
L 358.880829 189.844912 
L 358.880829 191.848856 
z
" clip-path="url(#p0b941845df)" style="fill: #ffa600"/>
   </g>
   <g id="patch_56">
    <path d="M 358.880829 187.569121 
Q 357.349155 187.741495 355.692918 187.828684 
Q 354.036681 187.916875 352.232812 187.916875 
Q 346.853501 187.916875 343.711724 187.263459 
Q 340.569948 186.610044 340.569948 185.492624 
Q 340.569948 184.371195 343.711724 183.718782 
Q 346.853501 183.065367 352.232812 183.065367 
Q 354.036681 183.065367 355.692918 183.153558 
Q 357.349155 183.240747 358.880829 183.41312 
L 358.880829 184.380215 
Q 357.335315 184.15172 355.835936 184.04549 
Q 354.336556 183.93926 352.680319 183.93926 
Q 349.709241 183.93926 348.006869 184.353156 
Q 346.309111 184.76605 346.309111 185.492624 
Q 346.309111 186.216191 348.006869 186.630088 
Q 349.709241 187.042982 352.680319 187.042982 
Q 354.336556 187.042982 355.835936 186.936752 
Q 357.335315 186.82952 358.880829 186.601025 
L 358.880829 187.569121 
z
" clip-path="url(#p0b941845df)" style="fill: #0000ff"/>
   </g>
   <g id="patch_57">
    <path d="M 353.253911 181.954062 
L 346.211841 181.954062 
L 345.099935 183.065367 
L 340.569948 183.065367 
L 347.039219 176.964957 
L 352.411559 176.964957 
L 358.880829 183.065367 
L 354.354586 183.065367 
L 353.253911 181.954062 
z
M 347.334978 180.821839 
L 352.119543 180.821839 
L 349.731004 178.395272 
L 347.334978 180.821839 
z
" clip-path="url(#p0b941845df)" style="fill: #008000"/>
   </g>
   <g id="patch_58">
    <path d="M 340.569948 157.847135 
L 358.880829 157.847135 
L 358.880829 161.575643 
L 352.29317 161.575643 
L 352.29317 176.964957 
L 347.170382 176.964957 
L 347.170382 161.575643 
L 340.569948 161.575643 
L 340.569948 157.847135 
z
" clip-path="url(#p0b941845df)" style="fill: #ff0000"/>
   </g>
   <g id="patch_59">
    <path d="M 378.15544 191.974169 
Q 376.308758 192.107084 374.322549 192.173846 
Q 372.336339 192.24 370.21881 192.24 
Q 365.433851 192.24 362.639205 191.844288 
Q 359.84456 191.448576 359.84456 190.77186 
Q 359.84456 190.087254 362.68845 189.694577 
Q 365.536445 189.301899 370.489657 189.301899 
Q 372.397895 189.301899 374.146088 189.355308 
Q 375.898384 189.40811 377.449597 189.512501 
L 377.449597 190.098179 
Q 375.849139 189.964049 374.265096 189.897895 
Q 372.681053 189.831134 371.088803 189.831134 
Q 368.142319 189.831134 366.545964 190.075116 
Q 364.94961 190.318491 364.94961 190.77186 
Q 364.94961 191.220981 366.488512 191.466177 
Q 368.027414 191.710766 370.858994 191.710766 
Q 371.630496 191.710766 372.291198 191.696806 
Q 372.9519 191.68224 373.477179 191.651894 
L 373.477179 191.102025 
L 370.460931 191.102025 
L 370.460931 190.61224 
L 378.15544 190.61224 
L 378.15544 191.974169 
z
" clip-path="url(#p0b941845df)" style="fill: #ffa600"/>
   </g>
   <g id="patch_60">
    <path d="M 378.15544 188.646027 
Q 376.623767 188.971128 374.967529 189.135568 
Q 373.311292 189.301899 371.507423 189.301899 
Q 366.128112 189.301899 362.986336 188.069539 
Q 359.84456 186.837179 359.84456 184.729692 
Q 359.84456 182.614644 362.986336 181.384174 
Q 366.128112 180.151814 371.507423 180.151814 
Q 373.311292 180.151814 374.967529 180.318145 
Q 376.623767 180.482586 378.15544 180.807687 
L 378.15544 182.631656 
Q 376.609926 182.200707 375.110547 182.000354 
Q 373.611168 181.800001 371.954931 181.800001 
Q 368.983853 181.800001 367.281481 182.580622 
Q 365.583722 183.359353 365.583722 184.729692 
Q 365.583722 186.094361 367.281481 186.874981 
Q 368.983853 187.653712 371.954931 187.653712 
Q 373.611168 187.653712 375.110547 187.453359 
Q 376.609926 187.251116 378.15544 186.820168 
L 378.15544 188.646027 
z
" clip-path="url(#p0b941845df)" style="fill: #0000ff"/>
   </g>
   <g id="patch_61">
    <path d="M 372.528523 178.439077 
L 365.486452 178.439077 
L 364.374546 180.151814 
L 359.84456 180.151814 
L 366.31383 170.749892 
L 371.68617 170.749892 
L 378.15544 180.151814 
L 373.629197 180.151814 
L 372.528523 178.439077 
z
M 366.60959 176.694099 
L 371.394154 176.694099 
L 369.005616 172.954286 
L 366.60959 176.694099 
z
" clip-path="url(#p0b941845df)" style="fill: #008000"/>
   </g>
   <g id="patch_62">
    <path d="M 359.84456 132.134854 
L 378.15544 132.134854 
L 378.15544 139.665862 
L 371.567782 139.665862 
L 371.567782 170.749892 
L 366.444993 170.749892 
L 366.444993 139.665862 
L 359.84456 139.665862 
L 359.84456 132.134854 
z
" clip-path="url(#p0b941845df)" style="fill: #ff0000"/>
   </g>
   <g id="patch_63">
    <path d="M 397.430052 191.826424 
Q 395.58337 192.033212 393.59716 192.137078 
Q 391.610951 192.24 389.493422 192.24 
Q 384.708463 192.24 381.913817 191.624358 
Q 379.119171 191.008715 379.119171 189.955892 
Q 379.119171 188.890793 381.963062 188.279872 
Q 384.811056 187.668951 389.764268 187.668951 
Q 391.672507 187.668951 393.420699 187.752043 
Q 395.172996 187.834192 396.724209 187.996601 
L 396.724209 188.907789 
Q 395.123751 188.699113 393.539708 188.596191 
Q 391.955665 188.492325 390.363414 188.492325 
Q 387.41693 188.492325 385.820576 188.871908 
Q 384.224222 189.250547 384.224222 189.955892 
Q 384.224222 190.654627 385.763123 191.036098 
Q 387.302025 191.416626 390.133605 191.416626 
Q 390.905108 191.416626 391.56581 191.394908 
Q 392.226511 191.372247 392.75179 191.325035 
L 392.75179 190.469556 
L 389.735542 190.469556 
L 389.735542 189.707557 
L 397.430052 189.707557 
L 397.430052 191.826424 
z
" clip-path="url(#p0b941845df)" style="fill: #ffa600"/>
   </g>
   <g id="patch_64">
    <path d="M 391.803134 186.752977 
L 384.761064 186.752977 
L 383.649158 187.668951 
L 379.119171 187.668951 
L 385.588441 182.640796 
L 390.960781 182.640796 
L 397.430052 187.668951 
L 392.903809 187.668951 
L 391.803134 186.752977 
z
M 385.884201 185.819762 
L 390.668766 185.819762 
L 388.280227 183.819708 
L 385.884201 185.819762 
z
" clip-path="url(#p0b941845df)" style="fill: #008000"/>
   </g>
   <g id="patch_65">
    <path d="M 397.430052 181.756141 
Q 395.898378 182.194644 394.242141 182.416446 
Q 392.585903 182.640796 390.782035 182.640796 
Q 385.402723 182.640796 382.260947 180.978562 
Q 379.119171 179.316328 379.119171 176.473704 
Q 379.119171 173.620882 382.260947 171.961197 
Q 385.402723 170.298963 390.782035 170.298963 
Q 392.585903 170.298963 394.242141 170.523313 
Q 395.898378 170.745115 397.430052 171.183618 
L 397.430052 173.643827 
Q 395.884538 173.062554 394.385159 172.792314 
Q 392.885779 172.522073 391.229542 172.522073 
Q 388.258464 172.522073 386.556092 173.574992 
Q 384.858333 174.62536 384.858333 176.473704 
Q 384.858333 178.314398 386.556092 179.367317 
Q 388.258464 180.417686 391.229542 180.417686 
Q 392.885779 180.417686 394.385159 180.147445 
Q 395.884538 179.874655 397.430052 179.293383 
L 397.430052 181.756141 
z
" clip-path="url(#p0b941845df)" style="fill: #0000ff"/>
   </g>
   <g id="patch_66">
    <path d="M 379.119171 83.144287 
L 397.430052 83.144287 
L 397.430052 100.141877 
L 390.842393 100.141877 
L 390.842393 170.298963 
L 385.719605 170.298963 
L 385.719605 100.141877 
L 379.119171 100.141877 
L 379.119171 83.144287 
z
" clip-path="url(#p0b941845df)" style="fill: #ff0000"/>
   </g>
   <g id="patch_67">
    <path d="M 411.077746 191.621317 
L 404.035675 191.621317 
L 402.923769 192.24 
L 398.393782 192.24 
L 404.863053 188.843795 
L 410.235393 188.843795 
L 416.704663 192.24 
L 412.17842 192.24 
L 411.077746 191.621317 
z
M 405.158812 190.990989 
L 409.943377 190.990989 
L 407.554838 189.640076 
L 405.158812 190.990989 
z
" clip-path="url(#p0b941845df)" style="fill: #008000"/>
   </g>
   <g id="patch_68">
    <path d="M 416.704663 188.447567 
Q 414.857981 188.645681 412.871772 188.74519 
Q 410.885562 188.843795 408.768033 188.843795 
Q 403.983074 188.843795 401.188428 188.253976 
Q 398.393782 187.664157 398.393782 186.655494 
Q 398.393782 185.63507 401.237673 185.049774 
Q 404.085668 184.464478 409.03888 184.464478 
Q 410.947118 184.464478 412.695311 184.544086 
Q 414.447607 184.622789 415.99882 184.778385 
L 415.99882 185.651354 
Q 414.398362 185.45143 412.814319 185.352826 
Q 411.230276 185.253316 409.638026 185.253316 
Q 406.691541 185.253316 405.095187 185.616978 
Q 403.498833 185.979735 403.498833 186.655494 
Q 403.498833 187.32492 405.037735 187.690391 
Q 406.576637 188.054957 409.408216 188.054957 
Q 410.179719 188.054957 410.840421 188.034151 
Q 411.501123 188.01244 412.026401 187.967208 
L 412.026401 187.147613 
L 409.010154 187.147613 
L 409.010154 186.417576 
L 416.704663 186.417576 
L 416.704663 188.447567 
z
" clip-path="url(#p0b941845df)" style="fill: #ffa600"/>
   </g>
   <g id="patch_69">
    <path d="M 416.704663 183.285726 
Q 415.17299 183.870007 413.516752 184.165544 
Q 411.860515 184.464478 410.056646 184.464478 
Q 404.677335 184.464478 401.535559 182.249647 
Q 398.393782 180.034816 398.393782 176.247183 
Q 398.393782 172.445962 401.535559 170.234528 
Q 404.677335 168.019697 410.056646 168.019697 
Q 411.860515 168.019697 413.516752 168.318631 
Q 415.17299 168.614168 416.704663 169.198449 
L 416.704663 172.476535 
Q 415.159149 171.702023 413.65977 171.341943 
Q 412.160391 170.981863 410.504153 170.981863 
Q 407.533076 170.981863 405.830703 172.384816 
Q 404.132945 173.784372 404.132945 176.247183 
Q 404.132945 178.699803 405.830703 180.102756 
Q 407.533076 181.502311 410.504153 181.502311 
Q 412.160391 181.502311 413.65977 181.142232 
Q 415.159149 180.778755 416.704663 180.004243 
L 416.704663 183.285726 
z
" clip-path="url(#p0b941845df)" style="fill: #0000ff"/>
   </g>
   <g id="patch_70">
    <path d="M 398.393782 128.24835 
L 416.704663 128.24835 
L 416.704663 136.00487 
L 410.117004 136.00487 
L 410.117004 168.019697 
L 404.994216 168.019697 
L 404.994216 136.00487 
L 398.393782 136.00487 
L 398.393782 128.24835 
z
" clip-path="url(#p0b941845df)" style="fill: #ff0000"/>
   </g>
   <g id="patch_71">
    <path d="M 417.668394 187.633798 
L 435.979275 187.633798 
L 435.979275 188.532135 
L 429.391616 188.532135 
L 429.391616 192.24 
L 424.268828 192.24 
L 424.268828 188.532135 
L 417.668394 188.532135 
L 417.668394 187.633798 
z
" clip-path="url(#p0b941845df)" style="fill: #ff0000"/>
   </g>
   <g id="patch_72">
    <path d="M 435.979275 187.217041 
Q 434.132592 187.42542 432.146383 187.530084 
Q 430.160174 187.633798 428.042645 187.633798 
Q 423.257686 187.633798 420.46304 187.013421 
Q 417.668394 186.393044 417.668394 185.332124 
Q 417.668394 184.258834 420.512285 183.643215 
Q 423.360279 183.027595 428.313491 183.027595 
Q 430.22173 183.027595 431.969922 183.111327 
Q 433.722218 183.194107 435.273432 183.357765 
L 435.273432 184.275961 
Q 433.672974 184.06568 432.088931 183.961966 
Q 430.504888 183.857302 428.912637 183.857302 
Q 425.966153 183.857302 424.369799 184.239804 
Q 422.773444 184.621355 422.773444 185.332124 
Q 422.773444 186.036232 424.312346 186.420638 
Q 425.851248 186.804091 428.682828 186.804091 
Q 429.454331 186.804091 430.115032 186.782207 
Q 430.775734 186.759371 431.301013 186.711796 
L 431.301013 185.849739 
L 428.284765 185.849739 
L 428.284765 185.08188 
L 435.979275 185.08188 
L 435.979275 187.217041 
z
" clip-path="url(#p0b941845df)" style="fill: #ffa600"/>
   </g>
   <g id="patch_73">
    <path d="M 435.979275 182.681703 
Q 434.447601 182.853154 432.791364 182.939876 
Q 431.135126 183.027595 429.331258 183.027595 
Q 423.951946 183.027595 420.81017 182.377677 
Q 417.668394 181.727758 417.668394 180.616318 
Q 417.668394 179.50089 420.81017 178.851969 
Q 423.951946 178.20205 429.331258 178.20205 
Q 431.135126 178.20205 432.791364 178.289769 
Q 434.447601 178.376491 435.979275 178.547942 
L 435.979275 179.509861 
Q 434.433761 179.282589 432.934381 179.176928 
Q 431.435002 179.071266 429.778765 179.071266 
Q 426.807687 179.071266 425.105315 179.482948 
Q 423.407556 179.893632 423.407556 180.616318 
Q 423.407556 181.336013 425.105315 181.747694 
Q 426.807687 182.158379 429.778765 182.158379 
Q 431.435002 182.158379 432.934381 182.052718 
Q 434.433761 181.946059 435.979275 181.718787 
L 435.979275 182.681703 
z
" clip-path="url(#p0b941845df)" style="fill: #0000ff"/>
   </g>
   <g id="patch_74">
    <path d="M 430.352357 152.149784 
L 423.310287 152.149784 
L 422.198381 178.20205 
L 417.668394 178.20205 
L 424.137664 35.190434 
L 429.510004 35.190434 
L 435.979275 178.20205 
L 431.453032 178.20205 
L 430.352357 152.149784 
z
M 424.433424 125.607122 
L 429.217988 125.607122 
L 426.82945 68.721233 
L 424.433424 125.607122 
z
" clip-path="url(#p0b941845df)" style="fill: #008000"/>
   </g>
   <g id="patch_75">
    <path d="M 436.943005 190.846257 
L 455.253886 190.846257 
L 455.253886 191.118076 
L 448.666227 191.118076 
L 448.666227 192.24 
L 443.543439 192.24 
L 443.543439 191.118076 
L 436.943005 191.118076 
L 436.943005 190.846257 
z
" clip-path="url(#p0b941845df)" style="fill: #ff0000"/>
   </g>
   <g id="patch_76">
    <path d="M 455.253886 190.629801 
Q 453.722212 190.737093 452.065975 190.791363 
Q 450.409738 190.846257 448.605869 190.846257 
Q 443.226558 190.846257 440.084781 190.439545 
Q 436.943005 190.032832 436.943005 189.337304 
Q 436.943005 188.639281 440.084781 188.233193 
Q 443.226558 187.82648 448.605869 187.82648 
Q 450.409738 187.82648 452.065975 187.881374 
Q 453.722212 187.935644 455.253886 188.042936 
L 455.253886 188.644895 
Q 453.708372 188.502671 452.208993 188.436549 
Q 450.709613 188.370427 449.053376 188.370427 
Q 446.082298 188.370427 444.379926 188.628053 
Q 442.682168 188.885055 442.682168 189.337304 
Q 442.682168 189.787682 444.379926 190.045308 
Q 446.082298 190.30231 449.053376 190.30231 
Q 450.709613 190.30231 452.208993 190.236189 
Q 453.708372 190.169443 455.253886 190.027218 
L 455.253886 190.629801 
z
" clip-path="url(#p0b941845df)" style="fill: #0000ff"/>
   </g>
   <g id="patch_77">
    <path d="M 455.253886 187.048852 
Q 453.407204 187.437666 451.420994 187.632961 
Q 449.434785 187.82648 447.317256 187.82648 
Q 442.532297 187.82648 439.737651 186.668915 
Q 436.943005 185.511349 436.943005 183.531769 
Q 436.943005 181.529109 439.786896 180.380421 
Q 442.63489 179.231732 447.588103 179.231732 
Q 449.496341 179.231732 451.244534 179.387968 
Q 452.99683 179.542428 454.548043 179.847798 
L 454.548043 181.561067 
Q 452.947585 181.168702 451.363542 180.975182 
Q 449.779499 180.779887 448.187248 180.779887 
Q 445.240764 180.779887 443.64441 181.493601 
Q 442.048056 182.20554 442.048056 183.531769 
Q 442.048056 184.845571 443.586958 185.562836 
Q 445.12586 186.278325 447.957439 186.278325 
Q 448.728942 186.278325 449.389644 186.237491 
Q 450.050346 186.194881 450.575624 186.10611 
L 450.575624 184.497591 
L 447.559376 184.497591 
L 447.559376 183.064837 
L 455.253886 183.064837 
L 455.253886 187.048852 
z
" clip-path="url(#p0b941845df)" style="fill: #ffa600"/>
   </g>
   <g id="patch_78">
    <path d="M 449.626968 151.303105 
L 442.584898 151.303105 
L 441.472992 179.231732 
L 436.943005 179.231732 
L 443.412276 25.92 
L 448.784615 25.92 
L 455.253886 179.231732 
L 450.727643 179.231732 
L 449.626968 151.303105 
z
M 443.708035 122.848763 
L 448.4926 122.848763 
L 446.104061 61.865785 
L 443.708035 122.848763 
z
" clip-path="url(#p0b941845df)" style="fill: #008000"/>
   </g>
   <g id="patch_79">
    <path d="M 456.217617 189.596969 
L 474.528497 189.596969 
L 474.528497 190.112434 
L 467.940839 190.112434 
L 467.940839 192.24 
L 462.81805 192.24 
L 462.81805 190.112434 
L 456.217617 190.112434 
L 456.217617 189.596969 
z
" clip-path="url(#p0b941845df)" style="fill: #ff0000"/>
   </g>
   <g id="patch_80">
    <path d="M 474.528497 189.238268 
Q 472.681815 189.417619 470.695606 189.507703 
Q 468.709396 189.596969 466.591867 189.596969 
Q 461.806908 189.596969 459.012262 189.063013 
Q 456.217617 188.529056 456.217617 187.615925 
Q 456.217617 186.692147 459.061507 186.162285 
Q 461.909502 185.632423 466.862714 185.632423 
Q 468.770952 185.632423 470.519145 185.704491 
Q 472.271441 185.77574 473.822654 185.916599 
L 473.822654 186.706888 
Q 472.222196 186.5259 470.638153 186.436634 
Q 469.05411 186.346549 467.46186 186.346549 
Q 464.515376 186.346549 462.919021 186.675768 
Q 461.322667 187.004167 461.322667 187.615925 
Q 461.322667 188.221949 462.861569 188.552806 
Q 464.400471 188.882843 467.23205 188.882843 
Q 468.003553 188.882843 468.664255 188.864007 
Q 469.324957 188.844352 469.850236 188.803405 
L 469.850236 188.061434 
L 466.833988 188.061434 
L 466.833988 187.40054 
L 474.528497 187.40054 
L 474.528497 189.238268 
z
" clip-path="url(#p0b941845df)" style="fill: #ffa600"/>
   </g>
   <g id="patch_81">
    <path d="M 474.528497 185.079858 
Q 472.996824 185.353752 471.340586 185.492291 
Q 469.684349 185.632423 467.88048 185.632423 
Q 462.501169 185.632423 459.359393 184.594174 
Q 456.217617 183.555925 456.217617 181.780392 
Q 456.217617 179.998489 459.359393 178.961832 
Q 462.501169 177.923583 467.88048 177.923583 
Q 469.684349 177.923583 471.340586 178.063715 
Q 472.996824 178.202254 474.528497 178.476148 
L 474.528497 180.012821 
Q 472.982983 179.649752 471.483604 179.480957 
Q 469.984225 179.312162 468.327987 179.312162 
Q 465.35691 179.312162 463.654538 179.969826 
Q 461.956779 180.625897 461.956779 181.780392 
Q 461.956779 182.930109 463.654538 183.587773 
Q 465.35691 184.243845 468.327987 184.243845 
Q 469.984225 184.243845 471.483604 184.075049 
Q 472.982983 183.904662 474.528497 183.541593 
L 474.528497 185.079858 
z
" clip-path="url(#p0b941845df)" style="fill: #0000ff"/>
   </g>
   <g id="patch_82">
    <path d="M 468.90158 151.803404 
L 461.859509 151.803404 
L 460.747603 177.923583 
L 456.217617 177.923583 
L 462.686887 34.539163 
L 468.059227 34.539163 
L 474.528497 177.923583 
L 470.002254 177.923583 
L 468.90158 151.803404 
z
M 462.982647 125.19155 
L 467.767211 125.19155 
L 465.378673 68.15737 
L 462.982647 125.19155 
z
" clip-path="url(#p0b941845df)" style="fill: #008000"/>
   </g>
   <g id="patch_83">
    <path d="M 475.492228 189.072424 
L 493.803109 189.072424 
L 493.803109 189.69019 
L 487.21545 189.69019 
L 487.21545 192.24 
L 482.092662 192.24 
L 482.092662 189.69019 
L 475.492228 189.69019 
L 475.492228 189.072424 
z
" clip-path="url(#p0b941845df)" style="fill: #ff0000"/>
   </g>
   <g id="patch_84">
    <path d="M 493.803109 188.535062 
Q 491.956427 188.803743 489.970217 188.938697 
Q 487.984008 189.072424 485.866479 189.072424 
Q 481.08152 189.072424 478.286874 188.272515 
Q 475.492228 187.472605 475.492228 186.104662 
Q 475.492228 184.720769 478.336119 183.926994 
Q 481.184113 183.133219 486.137325 183.133219 
Q 488.045564 183.133219 489.793756 183.241182 
Q 491.546053 183.347919 493.097266 183.558938 
L 493.097266 184.742853 
Q 491.496808 184.471718 489.912765 184.337991 
Q 488.328722 184.203037 486.736471 184.203037 
Q 483.789987 184.203037 482.193633 184.696232 
Q 480.597279 185.188201 480.597279 186.104662 
Q 480.597279 187.012535 482.13618 187.508184 
Q 483.675082 188.002606 486.506662 188.002606 
Q 487.278165 188.002606 487.938867 187.974389 
Q 488.599568 187.944944 489.124847 187.883602 
L 489.124847 186.772071 
L 486.108599 186.772071 
L 486.108599 185.781999 
L 493.803109 185.781999 
L 493.803109 188.535062 
z
" clip-path="url(#p0b941845df)" style="fill: #ffa600"/>
   </g>
   <g id="patch_85">
    <path d="M 493.803109 182.551404 
Q 492.271435 182.839796 490.615198 182.985669 
Q 488.95896 183.133219 487.155092 183.133219 
Q 481.77578 183.133219 478.634004 182.04001 
Q 475.492228 180.9468 475.492228 179.077277 
Q 475.492228 177.201048 478.634004 176.109515 
Q 481.77578 175.016306 487.155092 175.016306 
Q 488.95896 175.016306 490.615198 175.163855 
Q 492.271435 175.309728 493.803109 175.598121 
L 493.803109 177.216138 
Q 492.257595 176.83385 490.758216 176.65612 
Q 489.258836 176.47839 487.602599 176.47839 
Q 484.631521 176.47839 482.929149 177.170867 
Q 481.23139 177.861669 481.23139 179.077277 
Q 481.23139 180.287856 482.929149 180.980334 
Q 484.631521 181.671135 487.602599 181.671135 
Q 489.258836 181.671135 490.758216 181.493405 
Q 492.257595 181.313998 493.803109 180.93171 
L 493.803109 182.551404 
z
" clip-path="url(#p0b941845df)" style="fill: #0000ff"/>
   </g>
   <g id="patch_86">
    <path d="M 488.176191 152.331666 
L 481.134121 152.331666 
L 480.022215 175.016306 
L 475.492228 175.016306 
L 481.961498 50.490975 
L 487.333838 50.490975 
L 493.803109 175.016306 
L 489.276866 175.016306 
L 488.176191 152.331666 
z
M 482.257258 129.22002 
L 487.041823 129.22002 
L 484.653284 79.687441 
L 482.257258 129.22002 
z
" clip-path="url(#p0b941845df)" style="fill: #008000"/>
   </g>
   <g id="patch_87">
    <path d="M 513.07772 191.875409 
Q 511.231038 192.057705 509.244829 192.149268 
Q 507.258619 192.24 505.14109 192.24 
Q 500.356131 192.24 497.561485 191.697276 
Q 494.766839 191.154552 494.766839 190.226427 
Q 494.766839 189.28748 497.61073 188.748918 
Q 500.458725 188.210356 505.411937 188.210356 
Q 507.320175 188.210356 509.068368 188.283607 
Q 510.820664 188.356026 512.371877 188.499198 
L 512.371877 189.302464 
Q 510.771419 189.118503 509.187376 189.027772 
Q 507.603333 188.936208 506.011083 188.936208 
Q 503.064598 188.936208 501.468244 189.270832 
Q 499.87189 189.604624 499.87189 190.226427 
Q 499.87189 190.842402 501.410792 191.178691 
Q 502.949694 191.514148 505.781273 191.514148 
Q 506.552776 191.514148 507.213478 191.495003 
Q 507.87418 191.475025 508.399458 191.433405 
L 508.399458 190.679252 
L 505.383211 190.679252 
L 505.383211 190.007506 
L 513.07772 190.007506 
L 513.07772 191.875409 
z
" clip-path="url(#p0b941845df)" style="fill: #ffa600"/>
   </g>
   <g id="patch_88">
    <path d="M 507.450803 187.064753 
L 500.408732 187.064753 
L 499.296826 188.210356 
L 494.766839 188.210356 
L 501.23611 181.921669 
L 506.60845 181.921669 
L 513.07772 188.210356 
L 508.551477 188.210356 
L 507.450803 187.064753 
z
M 501.531869 185.897586 
L 506.316434 185.897586 
L 503.927895 183.396128 
L 501.531869 185.897586 
z
" clip-path="url(#p0b941845df)" style="fill: #008000"/>
   </g>
   <g id="patch_89">
    <path d="M 513.07772 181.383372 
Q 511.546047 181.650194 509.889809 181.785156 
Q 508.233572 181.921669 506.429703 181.921669 
Q 501.050392 181.921669 497.908616 180.910229 
Q 494.766839 179.898788 494.766839 178.169101 
Q 494.766839 176.433208 497.908616 175.423319 
Q 501.050392 174.411878 506.429703 174.411878 
Q 508.233572 174.411878 509.889809 174.548392 
Q 511.546047 174.683354 513.07772 174.950175 
L 513.07772 176.44717 
Q 511.532206 176.093476 510.032827 175.929039 
Q 508.533448 175.764602 506.87721 175.764602 
Q 503.906133 175.764602 502.20376 176.405285 
Q 500.506002 177.044416 500.506002 178.169101 
Q 500.506002 179.289131 502.20376 179.929814 
Q 503.906133 180.568945 506.87721 180.568945 
Q 508.533448 180.568945 510.032827 180.404508 
Q 511.532206 180.23852 513.07772 179.884826 
L 513.07772 181.383372 
z
" clip-path="url(#p0b941845df)" style="fill: #0000ff"/>
   </g>
   <g id="patch_90">
    <path d="M 494.766839 148.524468 
L 513.07772 148.524468 
L 513.07772 153.573234 
L 506.490061 153.573234 
L 506.490061 174.411878 
L 501.367273 174.411878 
L 501.367273 153.573234 
L 494.766839 153.573234 
L 494.766839 148.524468 
z
" clip-path="url(#p0b941845df)" style="fill: #ff0000"/>
   </g>
   <g id="patch_91">
    <path d="M 532.352332 191.937056 
Q 530.505649 192.088528 528.51944 192.16461 
Q 526.533231 192.24 524.415702 192.24 
Q 519.630743 192.24 516.836097 191.789042 
Q 514.041451 191.338085 514.041451 190.566892 
Q 514.041451 189.786708 516.885342 189.339209 
Q 519.733336 188.89171 524.686548 188.89171 
Q 526.594787 188.89171 528.342979 188.952575 
Q 530.095275 189.012749 531.646489 189.131713 
L 531.646489 189.799158 
Q 530.046031 189.646303 528.461988 189.570912 
Q 526.877945 189.494831 525.285694 189.494831 
Q 522.33921 189.494831 520.742856 189.772875 
Q 519.146501 190.050228 519.146501 190.566892 
Q 519.146501 191.078715 520.685403 191.358143 
Q 522.224305 191.636879 525.055885 191.636879 
Q 525.827388 191.636879 526.488089 191.620971 
Q 527.148791 191.604371 527.67407 191.569789 
L 527.67407 190.943151 
L 524.657822 190.943151 
L 524.657822 190.384988 
L 532.352332 190.384988 
L 532.352332 191.937056 
z
" clip-path="url(#p0b941845df)" style="fill: #ffa600"/>
   </g>
   <g id="patch_92">
    <path d="M 514.041451 185.121112 
L 532.352332 185.121112 
L 532.352332 185.856484 
L 525.764673 185.856484 
L 525.764673 188.89171 
L 520.641885 188.89171 
L 520.641885 185.856484 
L 514.041451 185.856484 
L 514.041451 185.121112 
z
" clip-path="url(#p0b941845df)" style="fill: #ff0000"/>
   </g>
   <g id="patch_93">
    <path d="M 526.725414 184.417741 
L 519.683344 184.417741 
L 518.571438 185.121112 
L 514.041451 185.121112 
L 520.510721 181.260021 
L 525.883061 181.260021 
L 532.352332 185.121112 
L 527.826089 185.121112 
L 526.725414 184.417741 
z
M 520.806481 183.701131 
L 525.591045 183.701131 
L 523.202507 182.1653 
L 520.806481 183.701131 
z
" clip-path="url(#p0b941845df)" style="fill: #008000"/>
   </g>
   <g id="patch_94">
    <path d="M 532.352332 180.498929 
Q 530.820658 180.876185 529.164421 181.067006 
Q 527.508183 181.260021 525.704315 181.260021 
Q 520.325003 181.260021 517.183227 179.829957 
Q 514.041451 178.399894 514.041451 175.95431 
Q 514.041451 173.499952 517.183227 172.072082 
Q 520.325003 170.642019 525.704315 170.642019 
Q 527.508183 170.642019 529.164421 170.835033 
Q 530.820658 171.025855 532.352332 171.403111 
L 532.352332 173.519692 
Q 530.806818 173.019609 529.307438 172.787114 
Q 527.808059 172.554619 526.151822 172.554619 
Q 523.180744 172.554619 521.478372 173.460472 
Q 519.780613 174.364132 519.780613 175.95431 
Q 519.780613 177.537907 521.478372 178.443761 
Q 523.180744 179.34742 526.151822 179.34742 
Q 527.808059 179.34742 529.307438 179.114925 
Q 530.806818 178.880237 532.352332 178.380153 
L 532.352332 180.498929 
z
" clip-path="url(#p0b941845df)" style="fill: #0000ff"/>
   </g>
   <g id="patch_95">
    <path d="M 546.000025 191.751902 
L 538.957955 191.751902 
L 537.846049 192.24 
L 533.316062 192.24 
L 539.785333 189.560626 
L 545.157672 189.560626 
L 551.626943 192.24 
L 547.1007 192.24 
L 546.000025 191.751902 
z
M 540.081092 191.254615 
L 544.865657 191.254615 
L 542.477118 190.188838 
L 540.081092 191.254615 
z
" clip-path="url(#p0b941845df)" style="fill: #008000"/>
   </g>
   <g id="patch_96">
    <path d="M 551.626943 189.289186 
Q 549.780261 189.424906 547.794051 189.493076 
Q 545.807842 189.560626 543.690313 189.560626 
Q 538.905354 189.560626 536.110708 189.156565 
Q 533.316062 188.752503 533.316062 188.061508 
Q 533.316062 187.362456 536.159953 186.961493 
Q 539.007947 186.56053 543.96116 186.56053 
Q 545.869398 186.56053 547.617591 186.615066 
Q 549.369887 186.668982 550.9211 186.775575 
L 550.9211 187.373611 
Q 549.320642 187.236651 547.736599 187.169101 
Q 546.152556 187.100931 544.560305 187.100931 
Q 541.613821 187.100931 540.017467 187.350061 
Q 538.421113 187.598572 538.421113 188.061508 
Q 538.421113 188.520105 539.960015 188.770475 
Q 541.498917 189.020225 544.330496 189.020225 
Q 545.101999 189.020225 545.762701 189.005971 
Q 546.423403 188.991098 546.948681 188.960111 
L 546.948681 188.398639 
L 543.932433 188.398639 
L 543.932433 187.89852 
L 551.626943 187.89852 
L 551.626943 189.289186 
z
" clip-path="url(#p0b941845df)" style="fill: #ffa600"/>
   </g>
   <g id="patch_97">
    <path d="M 551.626943 186.228623 
Q 550.095269 186.393141 548.439032 186.476357 
Q 546.782795 186.56053 544.978926 186.56053 
Q 539.599615 186.56053 536.457838 185.936889 
Q 533.316062 185.313248 533.316062 184.246745 
Q 533.316062 183.176416 536.457838 182.553732 
Q 539.599615 181.930091 544.978926 181.930091 
Q 546.782795 181.930091 548.439032 182.014263 
Q 550.095269 182.097479 551.626943 182.261998 
L 551.626943 183.185025 
Q 550.081429 182.966942 548.58205 182.865552 
Q 547.08267 182.764163 545.426433 182.764163 
Q 542.455355 182.764163 540.752983 183.159199 
Q 539.055225 183.553279 539.055225 184.246745 
Q 539.055225 184.937341 540.752983 185.332378 
Q 542.455355 185.726458 545.426433 185.726458 
Q 547.08267 185.726458 548.58205 185.625068 
Q 550.081429 185.522722 551.626943 185.304639 
L 551.626943 186.228623 
z
" clip-path="url(#p0b941845df)" style="fill: #0000ff"/>
   </g>
   <g id="patch_98">
    <path d="M 533.316062 173.103526 
L 551.626943 173.103526 
L 551.626943 174.824952 
L 545.039284 174.824952 
L 545.039284 181.930091 
L 539.916496 181.930091 
L 539.916496 174.824952 
L 533.316062 174.824952 
L 533.316062 173.103526 
z
" clip-path="url(#p0b941845df)" style="fill: #ff0000"/>
   </g>
   <g id="patch_99">
    <path d="M 570.901554 192.027704 
Q 569.054872 192.133852 567.068663 192.187168 
Q 565.082453 192.24 562.964924 192.24 
Q 558.179965 192.24 555.385319 191.92398 
Q 552.590674 191.60796 552.590674 191.067526 
Q 552.590674 190.520792 555.434564 190.207195 
Q 558.282559 189.893599 563.235771 189.893599 
Q 565.144009 189.893599 566.892202 189.936252 
Q 568.644498 189.97842 570.195711 190.061787 
L 570.195711 190.529517 
Q 568.595253 190.422399 567.01121 190.369568 
Q 565.427167 190.316252 563.834917 190.316252 
Q 560.888433 190.316252 559.292078 190.511098 
Q 557.695724 190.70546 557.695724 191.067526 
Q 557.695724 191.4262 559.234626 191.622016 
Q 560.773528 191.817347 563.605107 191.817347 
Q 564.37661 191.817347 565.037312 191.806199 
Q 565.698014 191.794567 566.223293 191.770332 
L 566.223293 191.3312 
L 563.207045 191.3312 
L 563.207045 190.940052 
L 570.901554 190.940052 
L 570.901554 192.027704 
z
" clip-path="url(#p0b941845df)" style="fill: #ffa600"/>
   </g>
   <g id="patch_100">
    <path d="M 565.274637 189.201988 
L 558.232566 189.201988 
L 557.12066 189.893599 
L 552.590674 189.893599 
L 559.059944 186.097061 
L 564.432284 186.097061 
L 570.901554 189.893599 
L 566.375311 189.893599 
L 565.274637 189.201988 
z
M 559.355704 188.497358 
L 564.140268 188.497358 
L 561.75173 186.987205 
L 559.355704 188.497358 
z
" clip-path="url(#p0b941845df)" style="fill: #008000"/>
   </g>
   <g id="patch_101">
    <path d="M 570.901554 185.287879 
Q 569.369881 185.688972 567.713643 185.891851 
Q 566.057406 186.097061 564.253537 186.097061 
Q 558.874226 186.097061 555.73245 184.576638 
Q 552.590674 183.056215 552.590674 180.456105 
Q 552.590674 177.846667 555.73245 176.328576 
Q 558.874226 174.808153 564.253537 174.808153 
Q 566.057406 174.808153 567.713643 175.013363 
Q 569.369881 175.216242 570.901554 175.617335 
L 570.901554 177.867654 
Q 569.35604 177.335973 567.856661 177.088787 
Q 566.357282 176.841602 564.701044 176.841602 
Q 561.729967 176.841602 560.027595 177.804692 
Q 558.329836 178.76545 558.329836 180.456105 
Q 558.329836 182.139764 560.027595 183.102854 
Q 561.729967 184.063612 564.701044 184.063612 
Q 566.357282 184.063612 567.856661 183.816427 
Q 569.35604 183.566909 570.901554 183.035228 
L 570.901554 185.287879 
z
" clip-path="url(#p0b941845df)" style="fill: #0000ff"/>
   </g>
   <g id="patch_102">
    <path d="M 552.590674 163.398399 
L 570.901554 163.398399 
L 570.901554 165.623619 
L 564.313896 165.623619 
L 564.313896 174.808153 
L 559.191107 174.808153 
L 559.191107 165.623619 
L 552.590674 165.623619 
L 552.590674 163.398399 
z
" clip-path="url(#p0b941845df)" style="fill: #ff0000"/>
   </g>
   <g id="patch_103">
    <path d="M 590.176166 191.724319 
Q 588.329484 191.982159 586.343274 192.111668 
Q 584.357065 192.24 582.239536 192.24 
Q 577.454577 192.24 574.659931 191.472365 
Q 571.865285 190.70473 571.865285 189.391979 
Q 571.865285 188.063923 574.709176 187.302175 
Q 577.55717 186.540427 582.510382 186.540427 
Q 584.418621 186.540427 586.166813 186.644034 
Q 587.91911 186.746464 589.470323 186.948969 
L 589.470323 188.085116 
Q 587.869865 187.82492 586.285822 187.696589 
Q 584.701779 187.56708 583.109528 187.56708 
Q 580.163044 187.56708 578.56669 188.040376 
Q 576.970336 188.512495 576.970336 189.391979 
Q 576.970336 190.263222 578.509237 190.738873 
Q 580.048139 191.213347 582.879719 191.213347 
Q 583.651222 191.213347 584.311924 191.186268 
Q 584.972625 191.158011 585.497904 191.099143 
L 585.497904 190.03246 
L 582.481656 190.03246 
L 582.481656 189.082335 
L 590.176166 189.082335 
L 590.176166 191.724319 
z
" clip-path="url(#p0b941845df)" style="fill: #ffa600"/>
   </g>
   <g id="patch_104">
    <path d="M 590.176166 186.124354 
Q 588.644492 186.330592 586.988255 186.43491 
Q 585.332017 186.540427 583.528149 186.540427 
Q 578.148837 186.540427 575.007061 185.758641 
Q 571.865285 184.976856 571.865285 183.639908 
Q 571.865285 182.298163 575.007061 181.517577 
Q 578.148837 180.735792 583.528149 180.735792 
Q 585.332017 180.735792 586.988255 180.841309 
Q 588.644492 180.945627 590.176166 181.151865 
L 590.176166 182.308955 
Q 588.630652 182.03557 587.131273 181.90847 
Q 585.631893 181.78137 583.975656 181.78137 
Q 581.004578 181.78137 579.302206 182.27658 
Q 577.604447 182.770592 577.604447 183.639908 
Q 577.604447 184.505627 579.302206 185.000837 
Q 581.004578 185.494849 583.975656 185.494849 
Q 585.631893 185.494849 587.131273 185.367749 
Q 588.630652 185.23945 590.176166 184.966065 
L 590.176166 186.124354 
z
" clip-path="url(#p0b941845df)" style="fill: #0000ff"/>
   </g>
   <g id="patch_105">
    <path d="M 584.549248 178.817118 
L 577.507178 178.817118 
L 576.395272 180.735792 
L 571.865285 180.735792 
L 578.334555 170.2034 
L 583.706895 170.2034 
L 590.176166 180.735792 
L 585.649923 180.735792 
L 584.549248 178.817118 
z
M 578.630315 176.862328 
L 583.41488 176.862328 
L 581.026341 172.672847 
L 578.630315 176.862328 
z
" clip-path="url(#p0b941845df)" style="fill: #008000"/>
   </g>
   <g id="patch_106">
    <path d="M 571.865285 117.016137 
L 590.176166 117.016137 
L 590.176166 127.389135 
L 583.588507 127.389135 
L 583.588507 170.2034 
L 578.465719 170.2034 
L 578.465719 127.389135 
L 571.865285 127.389135 
L 571.865285 117.016137 
z
" clip-path="url(#p0b941845df)" style="fill: #ff0000"/>
   </g>
   <g id="patch_107">
    <path d="M 609.450777 191.986214 
Q 607.604095 192.113107 605.617886 192.176843 
Q 603.631676 192.24 601.514147 192.24 
Q 596.729188 192.24 593.934542 191.862218 
Q 591.139896 191.484437 591.139896 190.838384 
Q 591.139896 190.184798 593.983787 189.809914 
Q 596.831782 189.435029 601.784994 189.435029 
Q 603.693232 189.435029 605.441425 189.486018 
Q 607.193721 189.536428 608.744934 189.636088 
L 608.744934 190.195228 
Q 607.144476 190.067176 605.560433 190.00402 
Q 603.97639 189.940283 602.38414 189.940283 
Q 599.437655 189.940283 597.841301 190.17321 
Q 596.244947 190.405557 596.244947 190.838384 
Q 596.244947 191.267154 597.783849 191.50124 
Q 599.322751 191.734746 602.15433 191.734746 
Q 602.925833 191.734746 603.586535 191.721419 
Q 604.247237 191.707513 604.772515 191.678542 
L 604.772515 191.153588 
L 601.756268 191.153588 
L 601.756268 190.685996 
L 609.450777 190.685996 
L 609.450777 191.986214 
z
" clip-path="url(#p0b941845df)" style="fill: #ffa600"/>
   </g>
   <g id="patch_108">
    <path d="M 609.450777 188.987567 
Q 607.919104 189.209364 606.262866 189.321552 
Q 604.606629 189.435029 602.80276 189.435029 
Q 597.423449 189.435029 594.281673 188.594264 
Q 591.139896 187.753499 591.139896 186.315688 
Q 591.139896 184.872719 594.281673 184.033243 
Q 597.423449 183.192478 602.80276 183.192478 
Q 604.606629 183.192478 606.262866 183.305955 
Q 607.919104 183.418143 609.450777 183.63994 
L 609.450777 184.884324 
Q 607.905263 184.590314 606.405884 184.453626 
Q 604.906505 184.316937 603.250267 184.316937 
Q 600.27919 184.316937 598.576817 184.849507 
Q 596.879059 185.380788 596.879059 186.315688 
Q 596.879059 187.246719 598.576817 187.77929 
Q 600.27919 188.310571 603.250267 188.310571 
Q 604.906505 188.310571 606.405884 188.173882 
Q 607.905263 188.035904 609.450777 187.741894 
L 609.450777 188.987567 
z
" clip-path="url(#p0b941845df)" style="fill: #0000ff"/>
   </g>
   <g id="patch_109">
    <path d="M 603.82386 181.950909 
L 596.781789 181.950909 
L 595.669883 183.192478 
L 591.139896 183.192478 
L 597.609167 176.376996 
L 602.981507 176.376996 
L 609.450777 183.192478 
L 604.924534 183.192478 
L 603.82386 181.950909 
z
M 597.904926 180.68597 
L 602.689491 180.68597 
L 600.300952 177.974968 
L 597.904926 180.68597 
z
" clip-path="url(#p0b941845df)" style="fill: #008000"/>
   </g>
   <g id="patch_110">
    <path d="M 591.139896 158.055167 
L 609.450777 158.055167 
L 609.450777 161.628435 
L 602.863118 161.628435 
L 602.863118 176.376996 
L 597.74033 176.376996 
L 597.74033 161.628435 
L 591.139896 161.628435 
L 591.139896 158.055167 
z
" clip-path="url(#p0b941845df)" style="fill: #ff0000"/>
   </g>
   <g id="patch_111">
    <path d="M 628.725389 192.182169 
Q 627.193715 192.210834 625.537478 192.225334 
Q 623.88124 192.24 622.077372 192.24 
Q 616.69806 192.24 613.556284 192.131337 
Q 610.414508 192.022674 610.414508 191.836847 
Q 610.414508 191.650354 613.556284 191.541857 
Q 616.69806 191.433195 622.077372 191.433195 
Q 623.88124 191.433195 625.537478 191.447861 
Q 627.193715 191.46236 628.725389 191.491026 
L 628.725389 191.651854 
Q 627.179875 191.613855 625.680495 191.596189 
Q 624.181116 191.578523 622.524879 191.578523 
Q 619.553801 191.578523 617.851429 191.647354 
Q 616.15367 191.716018 616.15367 191.836847 
Q 616.15367 191.957176 617.851429 192.026007 
Q 619.553801 192.094672 622.524879 192.094672 
Q 624.181116 192.094672 625.680495 192.077006 
Q 627.179875 192.059173 628.725389 192.021174 
L 628.725389 192.182169 
z
" clip-path="url(#p0b941845df)" style="fill: #0000ff"/>
   </g>
   <g id="patch_112">
    <path d="M 628.725389 191.31233 
Q 626.878706 191.372762 624.892497 191.403116 
Q 622.906288 191.433195 620.788758 191.433195 
Q 616.003799 191.433195 613.209154 191.253277 
Q 610.414508 191.07336 610.414508 190.765679 
Q 610.414508 190.454411 613.258398 190.275874 
Q 616.106393 190.097336 621.059605 190.097336 
Q 622.967844 190.097336 624.716036 190.12162 
Q 626.468332 190.145627 628.019546 190.19309 
L 628.019546 190.459378 
Q 626.419088 190.398394 624.835045 190.368316 
Q 623.251002 190.337962 621.658751 190.337962 
Q 618.712267 190.337962 617.115913 190.448892 
Q 615.519558 190.559547 615.519558 190.765679 
Q 615.519558 190.96988 617.05846 191.081362 
Q 618.597362 191.192569 621.428942 191.192569 
Q 622.200445 191.192569 622.861146 191.186222 
Q 623.521848 191.179599 624.047127 191.165802 
L 624.047127 190.915794 
L 621.030879 190.915794 
L 621.030879 190.693105 
L 628.725389 190.693105 
L 628.725389 191.31233 
z
" clip-path="url(#p0b941845df)" style="fill: #ffa600"/>
   </g>
   <g id="patch_113">
    <path d="M 610.414508 188.46672 
L 628.725389 188.46672 
L 628.725389 188.784736 
L 622.13773 188.784736 
L 622.13773 190.097336 
L 617.014942 190.097336 
L 617.014942 188.784736 
L 610.414508 188.784736 
L 610.414508 188.46672 
z
" clip-path="url(#p0b941845df)" style="fill: #ff0000"/>
   </g>
   <g id="patch_114">
    <path d="M 623.098471 188.168296 
L 616.056401 188.168296 
L 614.944495 188.46672 
L 610.414508 188.46672 
L 616.883778 186.828546 
L 622.256118 186.828546 
L 628.725389 188.46672 
L 624.199146 188.46672 
L 623.098471 188.168296 
z
M 617.179538 187.864254 
L 621.964102 187.864254 
L 619.575564 187.212636 
L 617.179538 187.864254 
z
" clip-path="url(#p0b941845df)" style="fill: #008000"/>
   </g>
   <g id="patch_115">
    <path d="M 648 191.994404 
Q 646.153318 192.117202 644.167108 192.178881 
Q 642.180899 192.24 640.06337 192.24 
Q 635.278411 192.24 632.483765 191.874409 
Q 629.689119 191.508818 629.689119 190.883613 
Q 629.689119 190.251118 632.53301 189.888331 
Q 635.381004 189.525544 640.334217 189.525544 
Q 642.242455 189.525544 643.990648 189.574887 
Q 645.742944 189.62367 647.294157 189.720114 
L 647.294157 190.261211 
Q 645.693699 190.137292 644.109656 190.076173 
Q 642.525613 190.014494 640.933362 190.014494 
Q 637.986878 190.014494 636.390524 190.239904 
Q 634.79417 190.464753 634.79417 190.883613 
Q 634.79417 191.298547 636.333072 191.525079 
Q 637.871974 191.75105 640.703553 191.75105 
Q 641.475056 191.75105 642.135758 191.738154 
Q 642.79646 191.724696 643.321738 191.69666 
L 643.321738 191.188646 
L 640.30549 191.188646 
L 640.30549 190.736143 
L 648 190.736143 
L 648 191.994404 
z
" clip-path="url(#p0b941845df)" style="fill: #ffa600"/>
   </g>
   <g id="patch_116">
    <path d="M 648 189.244932 
Q 646.468326 189.384025 644.812089 189.45438 
Q 643.155852 189.525544 641.351983 189.525544 
Q 635.972672 189.525544 632.830895 188.998285 
Q 629.689119 188.471025 629.689119 187.569347 
Q 629.689119 186.664435 632.830895 186.137984 
Q 635.972672 185.610725 641.351983 185.610725 
Q 643.155852 185.610725 644.812089 185.681889 
Q 646.468326 185.752244 648 185.891337 
L 648 186.671713 
Q 646.454486 186.487334 644.955107 186.401614 
Q 643.455727 186.315894 641.79949 186.315894 
Q 638.828412 186.315894 637.12604 186.649879 
Q 635.428282 186.983055 635.428282 187.569347 
Q 635.428282 188.153214 637.12604 188.487199 
Q 638.828412 188.820375 641.79949 188.820375 
Q 643.455727 188.820375 644.955107 188.734655 
Q 646.454486 188.648126 648 188.463747 
L 648 189.244932 
z
" clip-path="url(#p0b941845df)" style="fill: #0000ff"/>
   </g>
   <g id="patch_117">
    <path d="M 629.689119 171.165453 
L 648 171.165453 
L 648 173.982684 
L 641.412341 173.982684 
L 641.412341 185.610725 
L 636.289553 185.610725 
L 636.289553 173.982684 
L 629.689119 173.982684 
L 629.689119 171.165453 
z
" clip-path="url(#p0b941845df)" style="fill: #ff0000"/>
   </g>
   <g id="patch_118">
    <path d="M 642.373082 167.887907 
L 635.331012 167.887907 
L 634.219106 171.165453 
L 629.689119 171.165453 
L 636.15839 153.173655 
L 641.530729 153.173655 
L 648 171.165453 
L 643.473757 171.165453 
L 642.373082 167.887907 
z
M 636.454149 164.548667 
L 641.238714 164.548667 
L 638.850175 157.39205 
L 636.454149 164.548667 
z
" clip-path="url(#p0b941845df)" style="fill: #008000"/>
   </g>
   <g id="matplotlib.axis_1">
    <g id="xtick_1">
     <g id="line2d_2">
      <defs>
       <path id="m05cb3e00c0" d="M 0 0 
L 0 3.5 
" style="stroke: #000000; stroke-width: 0.8"/>
      </defs>
      <g>
       <use xlink:href="#m05cb3e00c0" x="99.15544" y="192.24" style="stroke: #000000; stroke-width: 0.8"/>
      </g>
     </g>
     <g id="text_1">
      <!-- 0 -->
      <g transform="translate(95.97419 206.838437) scale(0.1 -0.1)">
       <defs>
        <path id="DejaVuSans-30" d="M 2034 4250 
Q 1547 4250 1301 3770 
Q 1056 3291 1056 2328 
Q 1056 1369 1301 889 
Q 1547 409 2034 409 
Q 2525 409 2770 889 
Q 3016 1369 3016 2328 
Q 3016 3291 2770 3770 
Q 2525 4250 2034 4250 
z
M 2034 4750 
Q 2819 4750 3233 4129 
Q 3647 3509 3647 2328 
Q 3647 1150 3233 529 
Q 2819 -91 2034 -91 
Q 1250 -91 836 529 
Q 422 1150 422 2328 
Q 422 3509 836 4129 
Q 1250 4750 2034 4750 
z
" transform="scale(0.015625)"/>
       </defs>
       <use xlink:href="#DejaVuSans-30"/>
      </g>
     </g>
    </g>
    <g id="xtick_2">
     <g id="line2d_3">
      <g>
       <use xlink:href="#m05cb3e00c0" x="195.528497" y="192.24" style="stroke: #000000; stroke-width: 0.8"/>
      </g>
     </g>
     <g id="text_2">
      <!-- 5 -->
      <g transform="translate(192.347247 206.838437) scale(0.1 -0.1)">
       <defs>
        <path id="DejaVuSans-35" d="M 691 4666 
L 3169 4666 
L 3169 4134 
L 1269 4134 
L 1269 2991 
Q 1406 3038 1543 3061 
Q 1681 3084 1819 3084 
Q 2600 3084 3056 2656 
Q 3513 2228 3513 1497 
Q 3513 744 3044 326 
Q 2575 -91 1722 -91 
Q 1428 -91 1123 -41 
Q 819 9 494 109 
L 494 744 
Q 775 591 1075 516 
Q 1375 441 1709 441 
Q 2250 441 2565 725 
Q 2881 1009 2881 1497 
Q 2881 1984 2565 2268 
Q 2250 2553 1709 2553 
Q 1456 2553 1204 2497 
Q 953 2441 691 2322 
L 691 4666 
z
" transform="scale(0.015625)"/>
       </defs>
       <use xlink:href="#DejaVuSans-35"/>
      </g>
     </g>
    </g>
    <g id="xtick_3">
     <g id="line2d_4">
      <g>
       <use xlink:href="#m05cb3e00c0" x="291.901554" y="192.24" style="stroke: #000000; stroke-width: 0.8"/>
      </g>
     </g>
     <g id="text_3">
      <!-- 10 -->
      <g transform="translate(285.539054 206.838437) scale(0.1 -0.1)">
       <defs>
        <path id="DejaVuSans-31" d="M 794 531 
L 1825 531 
L 1825 4091 
L 703 3866 
L 703 4441 
L 1819 4666 
L 2450 4666 
L 2450 531 
L 3481 531 
L 3481 0 
L 794 0 
L 794 531 
z
" transform="scale(0.015625)"/>
       </defs>
       <use xlink:href="#DejaVuSans-31"/>
       <use xlink:href="#DejaVuSans-30" x="63.623047"/>
      </g>
     </g>
    </g>
    <g id="xtick_4">
     <g id="line2d_5">
      <g>
       <use xlink:href="#m05cb3e00c0" x="388.274611" y="192.24" style="stroke: #000000; stroke-width: 0.8"/>
      </g>
     </g>
     <g id="text_4">
      <!-- 15 -->
      <g transform="translate(381.912111 206.838437) scale(0.1 -0.1)">
       <use xlink:href="#DejaVuSans-31"/>
       <use xlink:href="#DejaVuSans-35" x="63.623047"/>
      </g>
     </g>
    </g>
    <g id="xtick_5">
     <g id="line2d_6">
      <g>
       <use xlink:href="#m05cb3e00c0" x="484.647668" y="192.24" style="stroke: #000000; stroke-width: 0.8"/>
      </g>
     </g>
     <g id="text_5">
      <!-- 20 -->
      <g transform="translate(478.285168 206.838437) scale(0.1 -0.1)">
       <defs>
        <path id="DejaVuSans-32" d="M 1228 531 
L 3431 531 
L 3431 0 
L 469 0 
L 469 531 
Q 828 903 1448 1529 
Q 2069 2156 2228 2338 
Q 2531 2678 2651 2914 
Q 2772 3150 2772 3378 
Q 2772 3750 2511 3984 
Q 2250 4219 1831 4219 
Q 1534 4219 1204 4116 
Q 875 4013 500 3803 
L 500 4441 
Q 881 4594 1212 4672 
Q 1544 4750 1819 4750 
Q 2544 4750 2975 4387 
Q 3406 4025 3406 3419 
Q 3406 3131 3298 2873 
Q 3191 2616 2906 2266 
Q 2828 2175 2409 1742 
Q 1991 1309 1228 531 
z
" transform="scale(0.015625)"/>
       </defs>
       <use xlink:href="#DejaVuSans-32"/>
       <use xlink:href="#DejaVuSans-30" x="63.623047"/>
      </g>
     </g>
    </g>
    <g id="xtick_6">
     <g id="line2d_7">
      <g>
       <use xlink:href="#m05cb3e00c0" x="581.020725" y="192.24" style="stroke: #000000; stroke-width: 0.8"/>
      </g>
     </g>
     <g id="text_6">
      <!-- 25 -->
      <g transform="translate(574.658225 206.838437) scale(0.1 -0.1)">
       <use xlink:href="#DejaVuSans-32"/>
       <use xlink:href="#DejaVuSans-35" x="63.623047"/>
      </g>
     </g>
    </g>
   </g>
   <g id="matplotlib.axis_2">
    <g id="ytick_1">
     <g id="line2d_8">
      <defs>
       <path id="me02c394811" d="M 0 0 
L -3.5 0 
" style="stroke: #000000; stroke-width: 0.8"/>
      </defs>
      <g>
       <use xlink:href="#me02c394811" x="90" y="192.24" style="stroke: #000000; stroke-width: 0.8"/>
      </g>
     </g>
     <g id="text_7">
      <!-- 0.0 -->
      <g transform="translate(67.096875 196.039219) scale(0.1 -0.1)">
       <defs>
        <path id="DejaVuSans-2e" d="M 684 794 
L 1344 794 
L 1344 0 
L 684 0 
L 684 794 
z
" transform="scale(0.015625)"/>
       </defs>
       <use xlink:href="#DejaVuSans-30"/>
       <use xlink:href="#DejaVuSans-2e" x="63.623047"/>
       <use xlink:href="#DejaVuSans-30" x="95.410156"/>
      </g>
     </g>
    </g>
    <g id="ytick_2">
     <g id="line2d_9">
      <g>
       <use xlink:href="#me02c394811" x="90" y="170.1816" style="stroke: #000000; stroke-width: 0.8"/>
      </g>
     </g>
     <g id="text_8">
      <!-- 0.2 -->
      <g transform="translate(67.096875 173.980819) scale(0.1 -0.1)">
       <use xlink:href="#DejaVuSans-30"/>
       <use xlink:href="#DejaVuSans-2e" x="63.623047"/>
       <use xlink:href="#DejaVuSans-32" x="95.410156"/>
      </g>
     </g>
    </g>
    <g id="ytick_3">
     <g id="line2d_10">
      <g>
       <use xlink:href="#me02c394811" x="90" y="148.1232" style="stroke: #000000; stroke-width: 0.8"/>
      </g>
     </g>
     <g id="text_9">
      <!-- 0.4 -->
      <g transform="translate(67.096875 151.922419) scale(0.1 -0.1)">
       <defs>
        <path id="DejaVuSans-34" d="M 2419 4116 
L 825 1625 
L 2419 1625 
L 2419 4116 
z
M 2253 4666 
L 3047 4666 
L 3047 1625 
L 3713 1625 
L 3713 1100 
L 3047 1100 
L 3047 0 
L 2419 0 
L 2419 1100 
L 313 1100 
L 313 1709 
L 2253 4666 
z
" transform="scale(0.015625)"/>
       </defs>
       <use xlink:href="#DejaVuSans-30"/>
       <use xlink:href="#DejaVuSans-2e" x="63.623047"/>
       <use xlink:href="#DejaVuSans-34" x="95.410156"/>
      </g>
     </g>
    </g>
    <g id="ytick_4">
     <g id="line2d_11">
      <g>
       <use xlink:href="#me02c394811" x="90" y="126.064801" style="stroke: #000000; stroke-width: 0.8"/>
      </g>
     </g>
     <g id="text_10">
      <!-- 0.6 -->
      <g transform="translate(67.096875 129.864019) scale(0.1 -0.1)">
       <defs>
        <path id="DejaVuSans-36" d="M 2113 2584 
Q 1688 2584 1439 2293 
Q 1191 2003 1191 1497 
Q 1191 994 1439 701 
Q 1688 409 2113 409 
Q 2538 409 2786 701 
Q 3034 994 3034 1497 
Q 3034 2003 2786 2293 
Q 2538 2584 2113 2584 
z
M 3366 4563 
L 3366 3988 
Q 3128 4100 2886 4159 
Q 2644 4219 2406 4219 
Q 1781 4219 1451 3797 
Q 1122 3375 1075 2522 
Q 1259 2794 1537 2939 
Q 1816 3084 2150 3084 
Q 2853 3084 3261 2657 
Q 3669 2231 3669 1497 
Q 3669 778 3244 343 
Q 2819 -91 2113 -91 
Q 1303 -91 875 529 
Q 447 1150 447 2328 
Q 447 3434 972 4092 
Q 1497 4750 2381 4750 
Q 2619 4750 2861 4703 
Q 3103 4656 3366 4563 
z
" transform="scale(0.015625)"/>
       </defs>
       <use xlink:href="#DejaVuSans-30"/>
       <use xlink:href="#DejaVuSans-2e" x="63.623047"/>
       <use xlink:href="#DejaVuSans-36" x="95.410156"/>
      </g>
     </g>
    </g>
    <g id="ytick_5">
     <g id="line2d_12">
      <g>
       <use xlink:href="#me02c394811" x="90" y="104.006401" style="stroke: #000000; stroke-width: 0.8"/>
      </g>
     </g>
     <g id="text_11">
      <!-- 0.8 -->
      <g transform="translate(67.096875 107.80562) scale(0.1 -0.1)">
       <defs>
        <path id="DejaVuSans-38" d="M 2034 2216 
Q 1584 2216 1326 1975 
Q 1069 1734 1069 1313 
Q 1069 891 1326 650 
Q 1584 409 2034 409 
Q 2484 409 2743 651 
Q 3003 894 3003 1313 
Q 3003 1734 2745 1975 
Q 2488 2216 2034 2216 
z
M 1403 2484 
Q 997 2584 770 2862 
Q 544 3141 544 3541 
Q 544 4100 942 4425 
Q 1341 4750 2034 4750 
Q 2731 4750 3128 4425 
Q 3525 4100 3525 3541 
Q 3525 3141 3298 2862 
Q 3072 2584 2669 2484 
Q 3125 2378 3379 2068 
Q 3634 1759 3634 1313 
Q 3634 634 3220 271 
Q 2806 -91 2034 -91 
Q 1263 -91 848 271 
Q 434 634 434 1313 
Q 434 1759 690 2068 
Q 947 2378 1403 2484 
z
M 1172 3481 
Q 1172 3119 1398 2916 
Q 1625 2713 2034 2713 
Q 2441 2713 2670 2916 
Q 2900 3119 2900 3481 
Q 2900 3844 2670 4047 
Q 2441 4250 2034 4250 
Q 1625 4250 1398 4047 
Q 1172 3844 1172 3481 
z
" transform="scale(0.015625)"/>
       </defs>
       <use xlink:href="#DejaVuSans-30"/>
       <use xlink:href="#DejaVuSans-2e" x="63.623047"/>
       <use xlink:href="#DejaVuSans-38" x="95.410156"/>
      </g>
     </g>
    </g>
    <g id="ytick_6">
     <g id="line2d_13">
      <g>
       <use xlink:href="#me02c394811" x="90" y="81.948001" style="stroke: #000000; stroke-width: 0.8"/>
      </g>
     </g>
     <g id="text_12">
      <!-- 1.0 -->
      <g transform="translate(67.096875 85.74722) scale(0.1 -0.1)">
       <use xlink:href="#DejaVuSans-31"/>
       <use xlink:href="#DejaVuSans-2e" x="63.623047"/>
       <use xlink:href="#DejaVuSans-30" x="95.410156"/>
      </g>
     </g>
    </g>
    <g id="ytick_7">
     <g id="line2d_14">
      <g>
       <use xlink:href="#me02c394811" x="90" y="59.889601" style="stroke: #000000; stroke-width: 0.8"/>
      </g>
     </g>
     <g id="text_13">
      <!-- 1.2 -->
      <g transform="translate(67.096875 63.68882) scale(0.1 -0.1)">
       <use xlink:href="#DejaVuSans-31"/>
       <use xlink:href="#DejaVuSans-2e" x="63.623047"/>
       <use xlink:href="#DejaVuSans-32" x="95.410156"/>
      </g>
     </g>
    </g>
    <g id="ytick_8">
     <g id="line2d_15">
      <g>
       <use xlink:href="#me02c394811" x="90" y="37.831202" style="stroke: #000000; stroke-width: 0.8"/>
      </g>
     </g>
     <g id="text_14">
      <!-- 1.4 -->
      <g transform="translate(67.096875 41.63042) scale(0.1 -0.1)">
       <use xlink:href="#DejaVuSans-31"/>
       <use xlink:href="#DejaVuSans-2e" x="63.623047"/>
       <use xlink:href="#DejaVuSans-34" x="95.410156"/>
      </g>
     </g>
    </g>
   </g>
  </g>
 </g>
 <defs>
  <clipPath id="p0b941845df">
   <rect x="90" y="25.92" width="558" height="166.32"/>
  </clipPath>
 </defs>
</svg>
