<?xml version="1.0" encoding="utf-8" standalone="no"?>
<!DOCTYPE svg PUBLIC "-//W3C//DTD SVG 1.1//EN"
  "http://www.w3.org/Graphics/SVG/1.1/DTD/svg11.dtd">
<svg xmlns:xlink="http://www.w3.org/1999/xlink" width="720pt" height="216pt" viewBox="0 0 720 216" xmlns="http://www.w3.org/2000/svg" version="1.1">
 <metadata>
  <rdf:RDF xmlns:dc="http://purl.org/dc/elements/1.1/" xmlns:cc="http://creativecommons.org/ns#" xmlns:rdf="http://www.w3.org/1999/02/22-rdf-syntax-ns#">
   <cc:Work>
    <dc:type rdf:resource="http://purl.org/dc/dcmitype/StillImage"/>
    <dc:date>2025-12-17T10:22:52.013538</dc:date>
    <dc:format>image/svg+xml</dc:format>
    <dc:creator>
     <cc:Agent>
      <dc:title>Matplotlib v3.8.2, https://matplotlib.org/</dc:title>
     </cc:Agent>
    </dc:creator>
   </cc:Work>
  </rdf:RDF>
 </metadata>
 <defs>
  <style type="text/css">*{stroke-linejoin: round; stroke-linecap: butt}</style>
 </defs>
 <g id="figure_1">
  <g id="patch_1">
   <path d="M 0 216 
L 720 216 
L 720 0 
L 0 0 
z
" style="fill: #ffffff"/>
  </g>
  <g id="axes_1">
   <g id="patch_2">
    <path d="M 90 192.24 
L 648 192.24 
L 648 25.92 
L 90 25.92 
z
" style="fill: #ffffff"/>
   </g>
   <g id="line2d_1">
    <path d="M 90 192.24 
L 648 192.24 
" clip-path="url(#pf4754b8f61)" style="fill: none; stroke: #000000; stroke-width: 0.5; stroke-linecap: square"/>
   </g>
   <g id="patch_3">
    <path d="M 115.303103 192.139812 
Q 112.751243 192.189906 110.006577 192.215067 
Q 107.26191 192.24 104.335778 192.24 
Q 97.723627 192.24 93.861814 192.090862 
Q 90 191.941724 90 191.68668 
Q 90 191.428662 93.929863 191.280667 
Q 97.865397 191.132673 104.710051 191.132673 
Q 107.346972 191.132673 109.762733 191.152802 
Q 112.184163 191.172703 114.327725 191.212046 
L 114.327725 191.432779 
Q 112.116114 191.382228 109.927186 191.357295 
Q 107.738258 191.332134 105.537988 191.332134 
Q 101.466354 191.332134 99.260414 191.424087 
Q 97.054473 191.515811 97.054473 191.68668 
Q 97.054473 191.855947 99.181023 191.948357 
Q 101.307572 192.040539 105.220423 192.040539 
Q 106.286533 192.040539 107.199532 192.035278 
Q 108.11253 192.029789 108.838392 192.018352 
L 108.838392 191.811114 
L 104.670356 191.811114 
L 104.670356 191.626521 
L 115.303103 191.626521 
L 115.303103 192.139812 
z
" clip-path="url(#pf4754b8f61)" style="fill: #ffa600"/>
   </g>
   <g id="patch_4">
    <path d="M 90 189.516231 
L 115.303103 189.516231 
L 115.303103 189.831482 
L 106.19987 189.831482 
L 106.19987 191.132673 
L 99.120886 191.132673 
L 99.120886 189.831482 
L 90 189.831482 
L 90 189.516231 
z
" clip-path="url(#pf4754b8f61)" style="fill: #ff0000"/>
   </g>
   <g id="patch_5">
    <path d="M 115.303103 189.352924 
Q 113.186542 189.433871 110.897851 189.474816 
Q 108.60916 189.516231 106.116463 189.516231 
Q 98.683 189.516231 94.3415 189.209383 
Q 90 188.902536 90 188.37779 
Q 90 187.851161 94.3415 187.544785 
Q 98.683 187.237937 106.116463 187.237937 
Q 108.60916 187.237937 110.897851 187.279352 
Q 113.186542 187.320297 115.303103 187.401244 
L 115.303103 187.855397 
Q 113.167416 187.748094 111.095482 187.698208 
Q 109.023547 187.648322 106.734856 187.648322 
Q 102.629238 187.648322 100.276796 187.84269 
Q 97.930728 188.036587 97.930728 188.37779 
Q 97.930728 188.717581 100.276796 188.911949 
Q 102.629238 189.105846 106.734856 189.105846 
Q 109.023547 189.105846 111.095482 189.05596 
Q 113.167416 189.005603 115.303103 188.898301 
L 115.303103 189.352924 
z
" clip-path="url(#pf4754b8f61)" style="fill: #0000ff"/>
   </g>
   <g id="patch_6">
    <path d="M 107.527481 186.711609 
L 97.796315 186.711609 
L 96.259815 187.237937 
L 90 187.237937 
L 98.939636 184.348705 
L 106.363466 184.348705 
L 115.303103 187.237937 
L 109.048461 187.237937 
L 107.527481 186.711609 
z
M 99.348335 186.175374 
L 105.959941 186.175374 
L 102.659311 185.026121 
L 99.348335 186.175374 
z
" clip-path="url(#pf4754b8f61)" style="fill: #008000"/>
   </g>
   <g id="patch_7">
    <path d="M 141.937947 192.159508 
Q 139.821387 192.199406 137.532696 192.219587 
Q 135.244005 192.24 132.751308 192.24 
Q 125.317845 192.24 120.976345 192.088759 
Q 116.634845 191.937518 116.634845 191.678876 
Q 116.634845 191.419307 120.976345 191.268298 
Q 125.317845 191.117057 132.751308 191.117057 
Q 135.244005 191.117057 137.532696 191.13747 
Q 139.821387 191.157651 141.937947 191.197549 
L 141.937947 191.421395 
Q 139.802261 191.368507 137.730326 191.343919 
Q 135.658392 191.31933 133.369701 191.31933 
Q 129.264083 191.31933 126.91164 191.415132 
Q 124.565573 191.510702 124.565573 191.678876 
Q 124.565573 191.846355 126.91164 191.942157 
Q 129.264083 192.037726 133.369701 192.037726 
Q 135.658392 192.037726 137.730326 192.013138 
Q 139.802261 191.988318 141.937947 191.93543 
L 141.937947 192.159508 
z
" clip-path="url(#pf4754b8f61)" style="fill: #0000ff"/>
   </g>
   <g id="patch_8">
    <path d="M 116.634845 188.840821 
L 141.937947 188.840821 
L 141.937947 189.28475 
L 132.834715 189.28475 
L 132.834715 191.117057 
L 125.755731 191.117057 
L 125.755731 189.28475 
L 116.634845 189.28475 
L 116.634845 188.840821 
z
" clip-path="url(#pf4754b8f61)" style="fill: #ff0000"/>
   </g>
   <g id="patch_9">
    <path d="M 141.937947 188.618398 
Q 139.386088 188.729609 136.641422 188.785469 
Q 133.896755 188.840821 130.970623 188.840821 
Q 124.358472 188.840821 120.496659 188.509725 
Q 116.634845 188.17863 116.634845 187.612415 
Q 116.634845 187.039599 120.564708 186.711043 
Q 124.500242 186.382486 131.344896 186.382486 
Q 133.981817 186.382486 136.397577 186.427174 
Q 138.819008 186.471354 140.96257 186.558698 
L 140.96257 187.04874 
Q 138.750959 186.936513 136.562031 186.881161 
Q 134.373102 186.825301 132.172833 186.825301 
Q 128.101199 186.825301 125.895259 187.029443 
Q 123.689318 187.233077 123.689318 187.612415 
Q 123.689318 187.988199 125.815868 188.193356 
Q 127.942417 188.398006 131.855268 188.398006 
Q 132.921378 188.398006 133.834377 188.386326 
Q 134.747375 188.374139 135.473237 188.348748 
L 135.473237 187.888667 
L 131.3052 187.888667 
L 131.3052 187.47886 
L 141.937947 187.47886 
L 141.937947 188.618398 
z
" clip-path="url(#pf4754b8f61)" style="fill: #ffa600"/>
   </g>
   <g id="patch_10">
    <path d="M 134.162326 185.735618 
L 124.43116 185.735618 
L 122.89466 186.382486 
L 116.634845 186.382486 
L 125.574481 182.831558 
L 132.998311 182.831558 
L 141.937947 186.382486 
L 135.683306 186.382486 
L 134.162326 185.735618 
z
M 125.98318 185.076573 
L 132.594786 185.076573 
L 129.294156 183.664116 
L 125.98318 185.076573 
z
" clip-path="url(#pf4754b8f61)" style="fill: #008000"/>
   </g>
   <g id="patch_11">
    <path d="M 168.572792 192.085198 
Q 166.456231 192.16193 164.167541 192.200742 
Q 161.87885 192.24 159.386153 192.24 
Q 151.952689 192.24 147.61119 191.949133 
Q 143.26969 191.658266 143.26969 191.160848 
Q 143.26969 190.661646 147.61119 190.371225 
Q 151.952689 190.080358 159.386153 190.080358 
Q 161.87885 190.080358 164.167541 190.119616 
Q 166.456231 190.158428 168.572792 190.23516 
L 168.572792 190.665661 
Q 166.437106 190.563947 164.365171 190.516659 
Q 162.293237 190.46937 160.004546 190.46937 
Q 155.898928 190.46937 153.546485 190.653616 
Q 151.200418 190.837415 151.200418 191.160848 
Q 151.200418 191.482943 153.546485 191.667189 
Q 155.898928 191.850988 160.004546 191.850988 
Q 162.293237 191.850988 164.365171 191.8037 
Q 166.437106 191.755965 168.572792 191.654251 
L 168.572792 192.085198 
z
" clip-path="url(#pf4754b8f61)" style="fill: #0000ff"/>
   </g>
   <g id="patch_12">
    <path d="M 143.26969 183.933686 
L 168.572792 183.933686 
L 168.572792 185.132458 
L 159.46956 185.132458 
L 159.46956 190.080358 
L 152.390576 190.080358 
L 152.390576 185.132458 
L 143.26969 185.132458 
L 143.26969 183.933686 
z
" clip-path="url(#pf4754b8f61)" style="fill: #ff0000"/>
   </g>
   <g id="patch_13">
    <path d="M 160.797171 182.027114 
L 151.066005 182.027114 
L 149.529505 183.933686 
L 143.26969 183.933686 
L 152.209326 173.467729 
L 159.633156 173.467729 
L 168.572792 183.933686 
L 162.318151 183.933686 
L 160.797171 182.027114 
z
M 152.618025 180.084654 
L 159.229631 180.084654 
L 155.929001 175.921599 
L 152.618025 180.084654 
z
" clip-path="url(#pf4754b8f61)" style="fill: #008000"/>
   </g>
   <g id="patch_14">
    <path d="M 168.572792 170.506694 
Q 166.020933 171.987212 163.276267 172.730851 
Q 160.5316 173.467729 157.605468 173.467729 
Q 150.993317 173.467729 147.131503 169.059978 
Q 143.26969 164.652226 143.26969 157.114431 
Q 143.26969 149.48875 147.199553 145.1148 
Q 151.135087 140.740851 157.979741 140.740851 
Q 160.616662 140.740851 163.032422 141.335762 
Q 165.453853 141.923913 167.597415 143.086694 
L 167.597415 149.610436 
Q 165.385804 148.116398 163.196875 147.379519 
Q 161.007947 146.63588 158.807677 146.63588 
Q 154.736044 146.63588 152.530104 149.353543 
Q 150.324163 152.064445 150.324163 157.114431 
Q 150.324163 162.117093 152.450712 164.848277 
Q 154.577262 167.5727 158.490113 167.5727 
Q 159.556223 167.5727 160.469221 167.417212 
Q 161.38222 167.254963 162.108082 166.916945 
L 162.108082 160.792064 
L 157.940045 160.792064 
L 157.940045 155.336457 
L 168.572792 155.336457 
L 168.572792 170.506694 
z
" clip-path="url(#pf4754b8f61)" style="fill: #ffa600"/>
   </g>
   <g id="patch_15">
    <path d="M 195.207637 192.123447 
Q 193.091076 192.18122 190.802386 192.210442 
Q 188.513695 192.24 186.020998 192.24 
Q 178.587534 192.24 174.246034 192.021002 
Q 169.904535 191.802004 169.904535 191.42749 
Q 169.904535 191.051633 174.246034 190.832971 
Q 178.587534 190.613973 186.020998 190.613973 
Q 188.513695 190.613973 190.802386 190.643531 
Q 193.091076 190.672753 195.207637 190.730526 
L 195.207637 191.054656 
Q 193.071951 190.978074 191.000016 190.94247 
Q 188.928082 190.906866 186.639391 190.906866 
Q 182.533773 190.906866 180.18133 191.045587 
Q 177.835263 191.183972 177.835263 191.42749 
Q 177.835263 191.67 180.18133 191.808722 
Q 182.533773 191.947107 186.639391 191.947107 
Q 188.928082 191.947107 191.000016 191.911503 
Q 193.071951 191.875563 195.207637 191.798981 
L 195.207637 192.123447 
z
" clip-path="url(#pf4754b8f61)" style="fill: #0000ff"/>
   </g>
   <g id="patch_16">
    <path d="M 169.904535 186.501081 
L 195.207637 186.501081 
L 195.207637 187.303209 
L 186.104405 187.303209 
L 186.104405 190.613973 
L 179.02542 190.613973 
L 179.02542 187.303209 
L 169.904535 187.303209 
L 169.904535 186.501081 
z
" clip-path="url(#pf4754b8f61)" style="fill: #ff0000"/>
   </g>
   <g id="patch_17">
    <path d="M 195.207637 185.505869 
Q 192.655778 186.003475 189.911111 186.253414 
Q 187.166445 186.501081 184.240313 186.501081 
Q 177.628162 186.501081 173.766348 185.019623 
Q 169.904535 183.538166 169.904535 181.004692 
Q 169.904535 178.441679 173.834398 176.971583 
Q 177.769932 175.501486 184.614586 175.501486 
Q 187.251507 175.501486 189.667267 175.701437 
Q 192.088698 175.899116 194.23226 176.28993 
L 194.23226 178.482578 
Q 192.020649 177.980428 189.83172 177.732761 
Q 187.642792 177.482822 185.442522 177.482822 
Q 181.370889 177.482822 179.164948 178.396236 
Q 176.959008 179.307378 176.959008 181.004692 
Q 176.959008 182.686101 179.085557 183.604059 
Q 181.212107 184.519745 185.124958 184.519745 
Q 186.191068 184.519745 187.104066 184.467485 
Q 188.017065 184.412953 188.742927 184.299344 
L 188.742927 182.240754 
L 184.57489 182.240754 
L 184.57489 180.40711 
L 195.207637 180.40711 
L 195.207637 185.505869 
z
" clip-path="url(#pf4754b8f61)" style="fill: #ffa600"/>
   </g>
   <g id="patch_18">
    <path d="M 187.432016 173.149218 
L 177.700849 173.149218 
L 176.164349 175.501486 
L 169.904535 175.501486 
L 178.844171 162.588918 
L 186.268001 162.588918 
L 195.207637 175.501486 
L 188.952996 175.501486 
L 187.432016 173.149218 
z
M 179.25287 170.752672 
L 185.864476 170.752672 
L 182.563846 165.616425 
L 179.25287 170.752672 
z
" clip-path="url(#pf4754b8f61)" style="fill: #008000"/>
   </g>
   <g id="patch_19">
    <path d="M 221.842482 192.060138 
Q 219.290623 192.150069 216.545956 192.19524 
Q 213.80129 192.24 210.875158 192.24 
Q 204.263007 192.24 200.401193 191.97226 
Q 196.539379 191.704519 196.539379 191.24665 
Q 196.539379 190.783443 200.469243 190.517756 
Q 204.404777 190.252068 211.249431 190.252068 
Q 213.886352 190.252068 216.302112 190.288205 
Q 218.723543 190.323931 220.867105 190.394562 
L 220.867105 190.790834 
Q 218.655493 190.700082 216.466565 190.655322 
Q 214.277637 190.610151 212.077367 190.610151 
Q 208.005734 190.610151 205.799793 190.77523 
Q 203.593853 190.939898 203.593853 191.24665 
Q 203.593853 191.550527 205.720402 191.716428 
Q 207.846952 191.881918 211.759802 191.881918 
Q 212.825913 191.881918 213.738911 191.872473 
Q 214.65191 191.862617 215.377772 191.842085 
L 215.377772 191.470041 
L 211.209735 191.470041 
L 211.209735 191.138651 
L 221.842482 191.138651 
L 221.842482 192.060138 
z
" clip-path="url(#pf4754b8f61)" style="fill: #ffa600"/>
   </g>
   <g id="patch_20">
    <path d="M 196.539379 187.530131 
L 221.842482 187.530131 
L 221.842482 188.060985 
L 212.73925 188.060985 
L 212.73925 190.252068 
L 205.660265 190.252068 
L 205.660265 188.060985 
L 196.539379 188.060985 
L 196.539379 187.530131 
z
" clip-path="url(#pf4754b8f61)" style="fill: #ff0000"/>
   </g>
   <g id="patch_21">
    <path d="M 221.842482 187.089497 
Q 219.725921 187.307909 217.43723 187.418385 
Q 215.14854 187.530131 212.655843 187.530131 
Q 205.222379 187.530131 200.880879 186.702195 
Q 196.539379 185.874259 196.539379 184.458388 
Q 196.539379 183.037436 200.880879 182.21077 
Q 205.222379 181.382835 212.655843 181.382835 
Q 215.14854 181.382835 217.43723 181.494581 
Q 219.725921 181.605057 221.842482 181.823469 
L 221.842482 183.048865 
Q 219.706796 182.759341 217.634861 182.624738 
Q 215.562927 182.490135 213.274236 182.490135 
Q 209.168618 182.490135 206.816175 183.014579 
Q 204.470108 183.537753 204.470108 184.458388 
Q 204.470108 185.375212 206.816175 185.899656 
Q 209.168618 186.42283 213.274236 186.42283 
Q 215.562927 186.42283 217.634861 186.288227 
Q 219.706796 186.152354 221.842482 185.862831 
L 221.842482 187.089497 
z
" clip-path="url(#pf4754b8f61)" style="fill: #0000ff"/>
   </g>
   <g id="patch_22">
    <path d="M 214.066861 179.906421 
L 204.335694 179.906421 
L 202.799194 181.382835 
L 196.539379 181.382835 
L 205.479016 173.27819 
L 212.902846 173.27819 
L 221.842482 181.382835 
L 215.587841 181.382835 
L 214.066861 179.906421 
z
M 205.887714 178.402215 
L 212.499321 178.402215 
L 209.198691 175.178422 
L 205.887714 178.402215 
z
" clip-path="url(#pf4754b8f61)" style="fill: #008000"/>
   </g>
   <g id="patch_23">
    <path d="M 223.174224 190.906106 
L 248.477327 190.906106 
L 248.477327 191.166252 
L 239.374094 191.166252 
L 239.374094 192.24 
L 232.29511 192.24 
L 232.29511 191.166252 
L 223.174224 191.166252 
L 223.174224 190.906106 
z
" clip-path="url(#pf4754b8f61)" style="fill: #ff0000"/>
   </g>
   <g id="patch_24">
    <path d="M 240.701706 190.13772 
L 230.970539 190.13772 
L 229.434039 190.906106 
L 223.174224 190.906106 
L 232.113861 186.688117 
L 239.537691 186.688117 
L 248.477327 190.906106 
L 242.222686 190.906106 
L 240.701706 190.13772 
z
M 232.522559 189.354869 
L 239.134165 189.354869 
L 235.833536 187.677075 
L 232.522559 189.354869 
z
" clip-path="url(#pf4754b8f61)" style="fill: #008000"/>
   </g>
   <g id="patch_25">
    <path d="M 248.477327 186.106688 
Q 246.360766 186.394889 244.072075 186.540665 
Q 241.783384 186.688117 239.290688 186.688117 
Q 231.857224 186.688117 227.515724 185.595634 
Q 223.174224 184.503151 223.174224 182.634871 
Q 223.174224 180.759889 227.515724 179.669082 
Q 231.857224 178.576599 239.290688 178.576599 
Q 241.783384 178.576599 244.072075 178.724051 
Q 246.360766 178.869827 248.477327 179.158028 
L 248.477327 180.774969 
Q 246.341641 180.392935 244.269706 180.215323 
Q 242.197771 180.037711 239.909081 180.037711 
Q 235.803463 180.037711 233.45102 180.729728 
Q 231.104952 181.42007 231.104952 182.634871 
Q 231.104952 183.844645 233.45102 184.536663 
Q 235.803463 185.227005 239.909081 185.227005 
Q 242.197771 185.227005 244.269706 185.049392 
Q 246.341641 184.870105 248.477327 184.488071 
L 248.477327 186.106688 
z
" clip-path="url(#pf4754b8f61)" style="fill: #0000ff"/>
   </g>
   <g id="patch_26">
    <path d="M 248.477327 177.790503 
Q 245.925468 178.183551 243.180801 178.380972 
Q 240.436135 178.576599 237.510003 178.576599 
Q 230.897852 178.576599 227.036038 177.406428 
Q 223.174224 176.236258 223.174224 174.235123 
Q 223.174224 172.210656 227.104088 171.049459 
Q 231.039622 169.888262 237.884275 169.888262 
Q 240.521197 169.888262 242.936957 170.046199 
Q 245.358388 170.202342 247.50195 170.511037 
L 247.50195 172.242961 
Q 245.290338 171.846323 243.10141 171.650697 
Q 240.912482 171.453275 238.712212 171.453275 
Q 234.640579 171.453275 232.434638 172.174761 
Q 230.228698 172.894452 230.228698 174.235123 
Q 230.228698 175.56323 232.355247 176.288305 
Q 234.481796 177.011586 238.394647 177.011586 
Q 239.460757 177.011586 240.373756 176.970306 
Q 241.286755 176.927233 242.012617 176.837496 
L 242.012617 175.211461 
L 237.84458 175.211461 
L 237.84458 173.763106 
L 248.477327 173.763106 
L 248.477327 177.790503 
z
" clip-path="url(#pf4754b8f61)" style="fill: #ffa600"/>
   </g>
   <g id="patch_27">
    <path d="M 275.112172 191.94476 
Q 272.995611 192.091104 270.70692 192.165126 
Q 268.418229 192.24 265.925533 192.24 
Q 258.492069 192.24 254.150569 191.685255 
Q 249.809069 191.13051 249.809069 190.181827 
Q 249.809069 189.229742 254.150569 188.675847 
Q 258.492069 188.121102 265.925533 188.121102 
Q 268.418229 188.121102 270.70692 188.195976 
Q 272.995611 188.269998 275.112172 188.416342 
L 275.112172 189.237399 
Q 272.976485 189.043409 270.904551 188.95322 
Q 268.832616 188.863031 266.543925 188.863031 
Q 262.438307 188.863031 260.085865 189.214427 
Q 257.739797 189.564971 257.739797 190.181827 
Q 257.739797 190.796131 260.085865 191.147526 
Q 262.438307 191.498071 266.543925 191.498071 
Q 268.832616 191.498071 270.904551 191.407882 
Q 272.976485 191.316843 275.112172 191.122852 
L 275.112172 191.94476 
z
" clip-path="url(#pf4754b8f61)" style="fill: #0000ff"/>
   </g>
   <g id="patch_28">
    <path d="M 249.809069 184.002204 
L 275.112172 184.002204 
L 275.112172 184.805504 
L 266.008939 184.805504 
L 266.008939 188.121102 
L 258.929955 188.121102 
L 258.929955 184.805504 
L 249.809069 184.805504 
L 249.809069 184.002204 
z
" clip-path="url(#pf4754b8f61)" style="fill: #ff0000"/>
   </g>
   <g id="patch_29">
    <path d="M 267.336551 182.210588 
L 257.605384 182.210588 
L 256.068884 184.002204 
L 249.809069 184.002204 
L 258.748706 174.167285 
L 266.172535 174.167285 
L 275.112172 184.002204 
L 268.85753 184.002204 
L 267.336551 182.210588 
z
M 259.157404 180.385247 
L 265.76901 180.385247 
L 262.468381 176.4732 
L 259.157404 180.385247 
z
" clip-path="url(#pf4754b8f61)" style="fill: #008000"/>
   </g>
   <g id="patch_30">
    <path d="M 275.112172 171.087084 
Q 272.560313 172.627184 269.815646 173.400751 
Q 267.07098 174.167285 264.144848 174.167285 
Q 257.532697 174.167285 253.670883 169.582146 
Q 249.809069 164.997007 249.809069 157.155857 
Q 249.809069 149.223286 253.738933 144.673309 
Q 257.674467 140.123333 264.51912 140.123333 
Q 267.156042 140.123333 269.571802 140.742186 
Q 271.993233 141.354006 274.136795 142.563583 
L 274.136795 149.34987 
Q 271.925183 147.795704 269.736255 147.02917 
Q 267.547327 146.255604 265.347057 146.255604 
Q 261.275424 146.255604 259.069483 149.082638 
Q 256.863542 151.902638 256.863542 157.155857 
Q 256.863542 162.359849 258.990092 165.200947 
Q 261.116641 168.035013 265.029492 168.035013 
Q 266.095602 168.035013 267.008601 167.873268 
Q 267.921599 167.704489 268.647462 167.352868 
L 268.647462 160.981495 
L 264.479425 160.981495 
L 264.479425 155.30633 
L 275.112172 155.30633 
L 275.112172 171.087084 
z
" clip-path="url(#pf4754b8f61)" style="fill: #ffa600"/>
   </g>
   <g id="patch_31">
    <path d="M 301.747017 192.149023 
Q 299.630456 192.194118 297.341765 192.216928 
Q 295.053074 192.24 292.560378 192.24 
Q 285.126914 192.24 280.785414 192.069058 
Q 276.443914 191.898116 276.443914 191.605784 
Q 276.443914 191.312403 280.785414 191.141723 
Q 285.126914 190.970781 292.560378 190.970781 
Q 295.053074 190.970781 297.341765 190.993853 
Q 299.630456 191.016662 301.747017 191.061758 
L 301.747017 191.314762 
Q 299.61133 191.254985 297.539396 191.227194 
Q 295.467461 191.199403 293.17877 191.199403 
Q 289.073152 191.199403 286.72071 191.307684 
Q 284.374642 191.415702 284.374642 191.605784 
Q 284.374642 191.795078 286.72071 191.903359 
Q 289.073152 192.011378 293.17877 192.011378 
Q 295.467461 192.011378 297.539396 191.983587 
Q 299.61133 191.955533 301.747017 191.895756 
L 301.747017 192.149023 
z
" clip-path="url(#pf4754b8f61)" style="fill: #0000ff"/>
   </g>
   <g id="patch_32">
    <path d="M 276.443914 186.117883 
L 301.747017 186.117883 
L 301.747017 187.064334 
L 292.643784 187.064334 
L 292.643784 190.970781 
L 285.5648 190.970781 
L 285.5648 187.064334 
L 276.443914 187.064334 
L 276.443914 186.117883 
z
" clip-path="url(#pf4754b8f61)" style="fill: #ff0000"/>
   </g>
   <g id="patch_33">
    <path d="M 293.971396 183.275333 
L 284.240229 183.275333 
L 282.703729 186.117883 
L 276.443914 186.117883 
L 285.38355 170.513952 
L 292.80738 170.513952 
L 301.747017 186.117883 
L 295.492375 186.117883 
L 293.971396 183.275333 
z
M 285.792249 180.379275 
L 292.403855 180.379275 
L 289.103225 174.172482 
L 285.792249 180.379275 
z
" clip-path="url(#pf4754b8f61)" style="fill: #008000"/>
   </g>
   <g id="patch_34">
    <path d="M 301.747017 168.29155 
Q 299.195157 169.402751 296.450491 169.960888 
Q 293.705825 170.513952 290.779693 170.513952 
Q 284.167542 170.513952 280.305728 167.205718 
Q 276.443914 163.897485 276.443914 158.24 
Q 276.443914 152.516553 280.373777 149.233689 
Q 284.309312 145.950825 291.153965 145.950825 
Q 293.790886 145.950825 296.206647 146.397336 
Q 298.628078 146.838772 300.771639 147.711496 
L 300.771639 152.607884 
Q 298.560028 151.486535 296.3711 150.933472 
Q 294.182172 150.375334 291.981902 150.375334 
Q 287.910269 150.375334 285.704328 152.415073 
Q 283.498387 154.449738 283.498387 158.24 
Q 283.498387 161.994743 285.624937 164.04463 
Q 287.751486 166.089443 291.664337 166.089443 
Q 292.730447 166.089443 293.643446 165.972742 
Q 294.556444 165.850966 295.282306 165.597267 
L 295.282306 161.000244 
L 291.11427 161.000244 
L 291.11427 156.905544 
L 301.747017 156.905544 
L 301.747017 168.29155 
z
" clip-path="url(#pf4754b8f61)" style="fill: #ffa600"/>
   </g>
   <g id="patch_35">
    <path d="M 328.381862 192.055035 
Q 326.265301 192.146718 323.97661 192.193093 
Q 321.687919 192.24 319.195222 192.24 
Q 311.761759 192.24 307.420259 191.892458 
Q 303.078759 191.544917 303.078759 190.950578 
Q 303.078759 190.354107 307.420259 190.007098 
Q 311.761759 189.659557 319.195222 189.659557 
Q 321.687919 189.659557 323.97661 189.706464 
Q 326.265301 189.752839 328.381862 189.844521 
L 328.381862 190.358904 
Q 326.246175 190.237371 324.174241 190.180869 
Q 322.102306 190.124367 319.813615 190.124367 
Q 315.707997 190.124367 313.355554 190.344512 
Q 311.009487 190.564124 311.009487 190.950578 
Q 311.009487 191.335432 313.355554 191.555578 
Q 315.707997 191.77519 319.813615 191.77519 
Q 322.102306 191.77519 324.174241 191.718688 
Q 326.246175 191.661652 328.381862 191.540119 
L 328.381862 192.055035 
z
" clip-path="url(#pf4754b8f61)" style="fill: #0000ff"/>
   </g>
   <g id="patch_36">
    <path d="M 320.60624 188.994966 
L 310.875074 188.994966 
L 309.338574 189.659557 
L 303.078759 189.659557 
L 312.018395 186.011344 
L 319.442225 186.011344 
L 328.381862 189.659557 
L 322.12722 189.659557 
L 320.60624 188.994966 
z
M 312.427094 188.317865 
L 319.0387 188.317865 
L 315.73807 186.866712 
L 312.427094 188.317865 
z
" clip-path="url(#pf4754b8f61)" style="fill: #008000"/>
   </g>
   <g id="patch_37">
    <path d="M 328.381862 184.682973 
Q 325.830002 185.347159 323.085336 185.680768 
Q 320.340669 186.011344 317.414537 186.011344 
Q 310.802386 186.011344 306.940573 184.033952 
Q 303.078759 182.05656 303.078759 178.674977 
Q 303.078759 175.253968 307.008622 173.29174 
Q 310.944156 171.329512 317.78881 171.329512 
Q 320.425731 171.329512 322.841492 171.596399 
Q 325.262922 171.860254 327.406484 172.381897 
L 327.406484 175.308559 
Q 325.194873 174.638308 323.005945 174.307731 
Q 320.817016 173.974122 318.616747 173.974122 
Q 314.545113 173.974122 312.339173 175.193312 
Q 310.133232 176.409468 310.133232 178.674977 
Q 310.133232 180.919257 312.259782 182.144512 
Q 314.386331 183.366734 318.299182 183.366734 
Q 319.365292 183.366734 320.278291 183.296979 
Q 321.191289 183.224192 321.917151 183.072551 
L 321.917151 180.324826 
L 317.749115 180.324826 
L 317.749115 177.877348 
L 328.381862 177.877348 
L 328.381862 184.682973 
z
" clip-path="url(#pf4754b8f61)" style="fill: #ffa600"/>
   </g>
   <g id="patch_38">
    <path d="M 303.078759 137.071904 
L 328.381862 137.071904 
L 328.381862 143.753092 
L 319.278629 143.753092 
L 319.278629 171.329512 
L 312.199645 171.329512 
L 312.199645 143.753092 
L 303.078759 143.753092 
L 303.078759 137.071904 
z
" clip-path="url(#pf4754b8f61)" style="fill: #ff0000"/>
   </g>
   <g id="patch_39">
    <path d="M 347.241085 192.044527 
L 337.509919 192.044527 
L 335.973419 192.24 
L 329.713604 192.24 
L 338.65324 191.166968 
L 346.07707 191.166968 
L 355.016706 192.24 
L 348.762065 192.24 
L 347.241085 192.044527 
z
M 339.061939 191.845374 
L 345.673545 191.845374 
L 342.372915 191.418553 
L 339.061939 191.845374 
z
" clip-path="url(#pf4754b8f61)" style="fill: #008000"/>
   </g>
   <g id="patch_40">
    <path d="M 355.016706 190.875713 
Q 352.464847 191.02134 349.720181 191.094487 
Q 346.975514 191.166968 344.049382 191.166968 
Q 337.437231 191.166968 333.575418 190.73341 
Q 329.713604 190.299853 329.713604 189.558417 
Q 329.713604 188.808336 333.643467 188.378103 
Q 337.579001 187.947871 344.423655 187.947871 
Q 347.060576 187.947871 349.476336 188.006388 
Q 351.897767 188.06424 354.041329 188.178614 
L 354.041329 188.820305 
Q 351.829718 188.673348 349.64079 188.600867 
Q 347.451861 188.527721 345.251592 188.527721 
Q 341.179958 188.527721 338.974018 188.795037 
Q 336.768077 189.061688 336.768077 189.558417 
Q 336.768077 190.050491 338.894626 190.319137 
Q 341.021176 190.587118 344.934027 190.587118 
Q 346.000137 190.587118 346.913135 190.571824 
Q 347.826134 190.555865 348.551996 190.522616 
L 348.551996 189.920158 
L 344.383959 189.920158 
L 344.383959 189.383531 
L 355.016706 189.383531 
L 355.016706 190.875713 
z
" clip-path="url(#pf4754b8f61)" style="fill: #ffa600"/>
   </g>
   <g id="patch_41">
    <path d="M 329.713604 25.92 
L 355.016706 25.92 
L 355.016706 57.519949 
L 345.913474 57.519949 
L 345.913474 187.947871 
L 338.83449 187.947871 
L 338.83449 57.519949 
L 329.713604 57.519949 
L 329.713604 25.92 
z
" clip-path="url(#pf4754b8f61)" style="fill: #ff0000"/>
   </g>
   <g id="patch_42">
    <path d="M 373.87593 192.07307 
L 364.144763 192.07307 
L 362.608263 192.24 
L 356.348449 192.24 
L 365.288085 191.32365 
L 372.711915 191.32365 
L 381.651551 192.24 
L 375.39691 192.24 
L 373.87593 192.07307 
z
M 365.696784 191.902997 
L 372.30839 191.902997 
L 369.00776 191.538499 
L 365.696784 191.902997 
z
" clip-path="url(#pf4754b8f61)" style="fill: #008000"/>
   </g>
   <g id="patch_43">
    <path d="M 381.651551 191.126599 
Q 379.53499 191.224273 377.2463 191.273677 
Q 374.957609 191.32365 372.464912 191.32365 
Q 365.031448 191.32365 360.689949 190.9534 
Q 356.348449 190.583149 356.348449 189.949976 
Q 356.348449 189.314532 360.689949 188.944849 
Q 365.031448 188.574599 372.464912 188.574599 
Q 374.957609 188.574599 377.2463 188.624572 
Q 379.53499 188.673976 381.651551 188.771649 
L 381.651551 189.319642 
Q 379.515865 189.190168 377.44393 189.129974 
Q 375.371996 189.06978 373.083305 189.06978 
Q 368.977687 189.06978 366.625244 189.30431 
Q 364.279177 189.538272 364.279177 189.949976 
Q 364.279177 190.359977 366.625244 190.594507 
Q 368.977687 190.828469 373.083305 190.828469 
Q 375.371996 190.828469 377.44393 190.768275 
Q 379.515865 190.707513 381.651551 190.578039 
L 381.651551 191.126599 
z
" clip-path="url(#pf4754b8f61)" style="fill: #0000ff"/>
   </g>
   <g id="patch_44">
    <path d="M 381.651551 187.994238 
Q 379.099692 188.284418 376.355026 188.430171 
Q 373.610359 188.574599 370.684227 188.574599 
Q 364.072076 188.574599 360.210262 187.710682 
Q 356.348449 186.846765 356.348449 185.369361 
Q 356.348449 183.874731 360.278312 183.017439 
Q 364.213846 182.160148 371.0585 182.160148 
Q 373.695421 182.160148 376.111181 182.27675 
Q 378.532612 182.392027 380.676174 182.619932 
L 380.676174 183.898582 
Q 378.464563 183.605751 376.275634 183.461323 
Q 374.086706 183.31557 371.886436 183.31557 
Q 367.814803 183.31557 365.608863 183.848231 
Q 363.402922 184.379566 363.402922 185.369361 
Q 363.402922 186.34988 365.529471 186.885191 
Q 367.656021 187.419176 371.568872 187.419176 
Q 372.634982 187.419176 373.54798 187.388701 
Q 374.460979 187.3569 375.186841 187.290649 
L 375.186841 186.090175 
L 371.018804 186.090175 
L 371.018804 185.020879 
L 381.651551 185.020879 
L 381.651551 187.994238 
z
" clip-path="url(#pf4754b8f61)" style="fill: #ffa600"/>
   </g>
   <g id="patch_45">
    <path d="M 356.348449 50.205715 
L 381.651551 50.205715 
L 381.651551 75.940506 
L 372.548319 75.940506 
L 372.548319 182.160148 
L 365.469335 182.160148 
L 365.469335 75.940506 
L 356.348449 75.940506 
L 356.348449 50.205715 
z
" clip-path="url(#pf4754b8f61)" style="fill: #ff0000"/>
   </g>
   <g id="patch_46">
    <path d="M 400.510775 191.685307 
L 390.779608 191.685307 
L 389.243108 192.24 
L 382.983294 192.24 
L 391.92293 189.195061 
L 399.34676 189.195061 
L 408.286396 192.24 
L 402.031755 192.24 
L 400.510775 191.685307 
z
M 392.331629 191.120173 
L 398.943235 191.120173 
L 395.642605 189.908984 
L 392.331629 191.120173 
z
" clip-path="url(#pf4754b8f61)" style="fill: #008000"/>
   </g>
   <g id="patch_47">
    <path d="M 408.286396 188.914442 
Q 406.169835 189.053539 403.881145 189.123896 
Q 401.592454 189.195061 399.099757 189.195061 
Q 391.666293 189.195061 387.324793 188.667788 
Q 382.983294 188.140515 382.983294 187.238814 
Q 382.983294 186.333877 387.324793 185.807413 
Q 391.666293 185.28014 399.099757 185.28014 
Q 401.592454 185.28014 403.881145 185.351306 
Q 406.169835 185.421663 408.286396 185.560759 
L 408.286396 186.341156 
Q 406.15071 186.156772 404.078775 186.071049 
Q 402.006841 185.985327 399.71815 185.985327 
Q 395.612532 185.985327 393.260089 186.319321 
Q 390.914022 186.652505 390.914022 187.238814 
Q 390.914022 187.822696 393.260089 188.156689 
Q 395.612532 188.489874 399.71815 188.489874 
Q 402.006841 188.489874 404.078775 188.404152 
Q 406.15071 188.317621 408.286396 188.133237 
L 408.286396 188.914442 
z
" clip-path="url(#pf4754b8f61)" style="fill: #0000ff"/>
   </g>
   <g id="patch_48">
    <path d="M 408.286396 184.06008 
Q 405.734537 184.67011 402.98987 184.976518 
Q 400.245204 185.28014 397.319072 185.28014 
Q 390.706921 185.28014 386.845107 183.463977 
Q 382.983294 181.647815 382.983294 178.541954 
Q 382.983294 175.399881 386.913157 173.597646 
Q 390.848691 171.795411 397.693345 171.795411 
Q 400.330266 171.795411 402.746026 172.040537 
Q 405.167457 172.282878 407.311019 172.761989 
L 407.311019 175.450021 
Q 405.099407 174.834419 402.910479 174.530797 
Q 400.721551 174.224389 398.521281 174.224389 
Q 394.449648 174.224389 392.243707 175.344171 
Q 390.037767 176.461166 390.037767 178.541954 
Q 390.037767 180.603243 392.164316 181.728595 
Q 394.290866 182.851162 398.203717 182.851162 
Q 399.269827 182.851162 400.182825 182.787095 
Q 401.095824 182.720242 401.821686 182.580966 
L 401.821686 180.05728 
L 397.653649 180.05728 
L 397.653649 177.809361 
L 408.286396 177.809361 
L 408.286396 184.06008 
z
" clip-path="url(#pf4754b8f61)" style="fill: #ffa600"/>
   </g>
   <g id="patch_49">
    <path d="M 382.983294 124.816356 
L 408.286396 124.816356 
L 408.286396 133.978581 
L 399.183164 133.978581 
L 399.183164 171.795411 
L 392.104179 171.795411 
L 392.104179 133.978581 
L 382.983294 133.978581 
L 382.983294 124.816356 
z
" clip-path="url(#pf4754b8f61)" style="fill: #ff0000"/>
   </g>
   <g id="patch_50">
    <path d="M 409.618138 188.747327 
L 434.921241 188.747327 
L 434.921241 189.428496 
L 425.818009 189.428496 
L 425.818009 192.24 
L 418.739024 192.24 
L 418.739024 189.428496 
L 409.618138 189.428496 
L 409.618138 188.747327 
z
" clip-path="url(#pf4754b8f61)" style="fill: #ff0000"/>
   </g>
   <g id="patch_51">
    <path d="M 434.921241 188.353916 
Q 432.80468 188.548921 430.515989 188.647557 
Q 428.227299 188.747327 425.734602 188.747327 
Q 418.301138 188.747327 413.959638 188.008122 
Q 409.618138 187.268917 409.618138 186.004785 
Q 409.618138 184.736118 413.959638 183.998047 
Q 418.301138 183.258842 425.734602 183.258842 
Q 428.227299 183.258842 430.515989 183.358612 
Q 432.80468 183.457248 434.921241 183.652253 
L 434.921241 184.746322 
Q 432.785555 184.487827 430.71362 184.367649 
Q 428.641685 184.247472 426.352995 184.247472 
Q 422.247377 184.247472 419.894934 184.715711 
Q 417.548866 185.182816 417.548866 186.004785 
Q 417.548866 186.823353 419.894934 187.291592 
Q 422.247377 187.758697 426.352995 187.758697 
Q 428.641685 187.758697 430.71362 187.638519 
Q 432.785555 187.517208 434.921241 187.258713 
L 434.921241 188.353916 
z
" clip-path="url(#pf4754b8f61)" style="fill: #0000ff"/>
   </g>
   <g id="patch_52">
    <path d="M 427.14562 181.440966 
L 417.414453 181.440966 
L 415.877953 183.258842 
L 409.618138 183.258842 
L 418.557775 173.279777 
L 425.981605 173.279777 
L 434.921241 183.258842 
L 428.6666 183.258842 
L 427.14562 181.440966 
z
M 418.966473 179.588872 
L 425.578079 179.588872 
L 422.27745 175.619489 
L 418.966473 179.588872 
z
" clip-path="url(#pf4754b8f61)" style="fill: #008000"/>
   </g>
   <g id="patch_53">
    <path d="M 434.921241 167.997943 
Q 432.369382 170.63886 429.624715 171.965348 
Q 426.880049 173.279777 423.953917 173.279777 
Q 417.341766 173.279777 413.479952 165.417321 
Q 409.618138 157.554864 409.618138 144.1091 
Q 409.618138 130.506569 413.548002 122.704408 
Q 417.483536 114.902246 424.32819 114.902246 
Q 426.965111 114.902246 429.380871 115.963437 
Q 431.802302 117.012568 433.945864 119.086713 
L 433.945864 130.72363 
Q 431.734252 128.058595 429.545324 126.744166 
Q 427.356396 125.417678 425.156126 125.417678 
Q 421.084493 125.417678 418.878552 130.265389 
Q 416.672612 135.101041 416.672612 144.1091 
Q 416.672612 153.032746 418.799161 157.904575 
Q 420.925711 162.764345 424.838561 162.764345 
Q 425.904672 162.764345 426.81767 162.486988 
Q 427.730669 162.197572 428.456531 161.594623 
L 428.456531 150.669186 
L 424.288494 150.669186 
L 424.288494 140.937588 
L 434.921241 140.937588 
L 434.921241 167.997943 
z
" clip-path="url(#pf4754b8f61)" style="fill: #ffa600"/>
   </g>
   <g id="patch_54">
    <path d="M 436.252983 190.426533 
L 461.556086 190.426533 
L 461.556086 190.78021 
L 452.452853 190.78021 
L 452.452853 192.24 
L 445.373869 192.24 
L 445.373869 190.78021 
L 436.252983 190.78021 
L 436.252983 190.426533 
z
" clip-path="url(#pf4754b8f61)" style="fill: #ff0000"/>
   </g>
   <g id="patch_55">
    <path d="M 461.556086 190.212981 
Q 459.439525 190.318834 457.150834 190.372376 
Q 454.862143 190.426533 452.369447 190.426533 
Q 444.935983 190.426533 440.594483 190.025277 
Q 436.252983 189.624021 436.252983 188.937823 
Q 436.252983 188.249164 440.594483 187.848523 
Q 444.935983 187.447267 452.369447 187.447267 
Q 454.862143 187.447267 457.150834 187.501424 
Q 459.439525 187.554966 461.556086 187.660819 
L 461.556086 188.254703 
Q 459.4204 188.114386 457.348465 188.049151 
Q 455.27653 187.983916 452.98784 187.983916 
Q 448.882221 187.983916 446.529779 188.238086 
Q 444.183711 188.491641 444.183711 188.937823 
Q 444.183711 189.382159 446.529779 189.636329 
Q 448.882221 189.889884 452.98784 189.889884 
Q 455.27653 189.889884 457.348465 189.824649 
Q 459.4204 189.758799 461.556086 189.618482 
L 461.556086 190.212981 
z
" clip-path="url(#pf4754b8f61)" style="fill: #0000ff"/>
   </g>
   <g id="patch_56">
    <path d="M 453.780465 186.102241 
L 444.049298 186.102241 
L 442.512798 187.447267 
L 436.252983 187.447267 
L 445.19262 180.063867 
L 452.61645 180.063867 
L 461.556086 187.447267 
L 455.301445 187.447267 
L 453.780465 186.102241 
z
M 445.601318 184.731897 
L 452.212924 184.731897 
L 448.912295 181.794994 
L 445.601318 184.731897 
z
" clip-path="url(#pf4754b8f61)" style="fill: #008000"/>
   </g>
   <g id="patch_57">
    <path d="M 461.556086 179.348958 
Q 459.004227 179.706413 456.25956 179.885956 
Q 453.514894 180.063867 450.588762 180.063867 
Q 443.976611 180.063867 440.114797 178.999665 
Q 436.252983 177.935464 436.252983 176.115548 
Q 436.252983 174.274414 440.182847 173.218374 
Q 444.118381 172.162333 450.963034 172.162333 
Q 453.599956 172.162333 456.015716 172.305968 
Q 458.437147 172.44797 460.580709 172.728711 
L 460.580709 174.303794 
Q 458.369097 173.943076 456.180169 173.765165 
Q 453.991241 173.585621 451.790971 173.585621 
Q 447.719338 173.585621 445.513397 174.24177 
Q 443.307457 174.896287 443.307457 176.115548 
Q 443.307457 177.323384 445.434006 177.982798 
Q 447.560555 178.640579 451.473406 178.640579 
Q 452.539516 178.640579 453.452515 178.603038 
Q 454.365514 178.563865 455.091376 178.482254 
L 455.091376 177.003471 
L 450.923339 177.003471 
L 450.923339 175.686277 
L 461.556086 175.686277 
L 461.556086 179.348958 
z
" clip-path="url(#pf4754b8f61)" style="fill: #ffa600"/>
   </g>
   <g id="patch_58">
    <path d="M 480.41531 192.087877 
L 470.684143 192.087877 
L 469.147643 192.24 
L 462.887828 192.24 
L 471.827465 191.404933 
L 479.251294 191.404933 
L 488.190931 192.24 
L 481.936289 192.24 
L 480.41531 192.087877 
z
M 472.236163 191.93289 
L 478.847769 191.93289 
L 475.54714 191.600725 
L 472.236163 191.93289 
z
" clip-path="url(#pf4754b8f61)" style="fill: #008000"/>
   </g>
   <g id="patch_59">
    <path d="M 488.190931 191.327341 
Q 486.07437 191.365802 483.785679 191.385256 
Q 481.496988 191.404933 479.004292 191.404933 
Q 471.570828 191.404933 467.229328 191.25914 
Q 462.887828 191.113347 462.887828 190.864022 
Q 462.887828 190.613803 467.229328 190.468233 
Q 471.570828 190.32244 479.004292 190.32244 
Q 481.496988 190.32244 483.785679 190.342117 
Q 486.07437 190.361571 488.190931 190.400032 
L 488.190931 190.615815 
Q 486.055244 190.564832 483.98331 190.54113 
Q 481.911375 190.517427 479.622684 190.517427 
Q 475.517066 190.517427 473.164624 190.609778 
Q 470.818556 190.701905 470.818556 190.864022 
Q 470.818556 191.025468 473.164624 191.117819 
Q 475.517066 191.209946 479.622684 191.209946 
Q 481.911375 191.209946 483.98331 191.186243 
Q 486.055244 191.162317 488.190931 191.111334 
L 488.190931 191.327341 
z
" clip-path="url(#pf4754b8f61)" style="fill: #0000ff"/>
   </g>
   <g id="patch_60">
    <path d="M 488.190931 190.218902 
Q 485.639071 190.270671 482.894405 190.296673 
Q 480.149739 190.32244 477.223607 190.32244 
Q 470.611456 190.32244 466.749642 190.168315 
Q 462.887828 190.014191 462.887828 189.750619 
Q 462.887828 189.483974 466.817691 189.331031 
Q 470.753226 189.178089 477.597879 189.178089 
Q 480.234801 189.178089 482.650561 189.198891 
Q 485.071992 189.219457 487.215553 189.260115 
L 487.215553 189.488229 
Q 485.003942 189.435987 482.815014 189.410221 
Q 480.626086 189.384219 478.425816 189.384219 
Q 474.354183 189.384219 472.148242 189.479246 
Q 469.942301 189.574038 469.942301 189.750619 
Q 469.942301 189.925545 472.068851 190.021046 
Q 474.1954 190.11631 478.108251 190.11631 
Q 479.174361 190.11631 480.08736 190.110873 
Q 481.000358 190.1052 481.726221 190.09338 
L 481.726221 189.879213 
L 477.558184 189.879213 
L 477.558184 189.688449 
L 488.190931 189.688449 
L 488.190931 190.218902 
z
" clip-path="url(#pf4754b8f61)" style="fill: #ffa600"/>
   </g>
   <g id="patch_61">
    <path d="M 462.887828 187.446099 
L 488.190931 187.446099 
L 488.190931 187.783885 
L 479.087698 187.783885 
L 479.087698 189.178089 
L 472.008714 189.178089 
L 472.008714 187.783885 
L 462.887828 187.783885 
L 462.887828 187.446099 
z
" clip-path="url(#pf4754b8f61)" style="fill: #ff0000"/>
   </g>
   <g id="patch_62">
    <path d="M 507.050154 191.86066 
L 497.318988 191.86066 
L 495.782488 192.24 
L 489.522673 192.24 
L 498.462309 190.157646 
L 505.886139 190.157646 
L 514.825776 192.24 
L 508.571134 192.24 
L 507.050154 191.86066 
z
M 498.871008 191.474179 
L 505.482614 191.474179 
L 502.181984 190.645879 
L 498.871008 191.474179 
z
" clip-path="url(#pf4754b8f61)" style="fill: #008000"/>
   </g>
   <g id="patch_63">
    <path d="M 489.522673 187.803681 
L 514.825776 187.803681 
L 514.825776 188.26277 
L 505.722543 188.26277 
L 505.722543 190.157646 
L 498.643559 190.157646 
L 498.643559 188.26277 
L 489.522673 188.26277 
L 489.522673 187.803681 
z
" clip-path="url(#pf4754b8f61)" style="fill: #ff0000"/>
   </g>
   <g id="patch_64">
    <path d="M 514.825776 187.570054 
Q 512.709215 187.685857 510.420524 187.744433 
Q 508.131833 187.803681 505.639136 187.803681 
Q 498.205673 187.803681 493.864173 187.364704 
Q 489.522673 186.925727 489.522673 186.175023 
Q 489.522673 185.421625 493.864173 184.983322 
Q 498.205673 184.544345 505.639136 184.544345 
Q 508.131833 184.544345 510.420524 184.603593 
Q 512.709215 184.662168 514.825776 184.777972 
L 514.825776 185.427685 
Q 512.690089 185.274177 510.618155 185.20281 
Q 508.54622 185.131443 506.257529 185.131443 
Q 502.151911 185.131443 499.799469 185.409506 
Q 497.453401 185.686897 497.453401 186.175023 
Q 497.453401 186.661129 499.799469 186.939193 
Q 502.151911 187.216583 506.257529 187.216583 
Q 508.54622 187.216583 510.618155 187.145216 
Q 512.690089 187.073175 514.825776 186.919668 
L 514.825776 187.570054 
z
" clip-path="url(#pf4754b8f61)" style="fill: #0000ff"/>
   </g>
   <g id="patch_65">
    <path d="M 514.825776 183.970937 
Q 512.273916 184.257641 509.52925 184.401647 
Q 506.784583 184.544345 503.858451 184.544345 
Q 497.246301 184.544345 493.384487 183.690778 
Q 489.522673 182.837212 489.522673 181.377509 
Q 489.522673 179.900787 493.452536 179.053767 
Q 497.38807 178.206746 504.232724 178.206746 
Q 506.869645 178.206746 509.285406 178.321951 
Q 511.706837 178.435847 513.850398 178.661021 
L 513.850398 179.924352 
Q 511.638787 179.63503 509.449859 179.492332 
Q 507.260931 179.348326 505.060661 179.348326 
Q 500.989027 179.348326 498.783087 179.874604 
Q 496.577146 180.399574 496.577146 181.377509 
Q 496.577146 182.346281 498.703696 182.875177 
Q 500.830245 183.402765 504.743096 183.402765 
Q 505.809206 183.402765 506.722205 183.372655 
Q 507.635203 183.341235 508.361065 183.275778 
L 508.361065 182.089687 
L 504.193029 182.089687 
L 504.193029 181.033202 
L 514.825776 181.033202 
L 514.825776 183.970937 
z
" clip-path="url(#pf4754b8f61)" style="fill: #ffa600"/>
   </g>
   <g id="patch_66">
    <path d="M 541.460621 191.983976 
Q 539.34406 192.110881 537.055369 192.175072 
Q 534.766678 192.24 532.273981 192.24 
Q 524.840518 192.24 520.499018 191.758941 
Q 516.157518 191.277883 516.157518 190.455213 
Q 516.157518 189.629593 520.499018 189.149272 
Q 524.840518 188.668213 532.273981 188.668213 
Q 534.766678 188.668213 537.055369 188.733141 
Q 539.34406 188.797332 541.460621 188.924237 
L 541.460621 189.636233 
Q 539.324934 189.46801 537.253 189.389801 
Q 535.181065 189.311592 532.892374 189.311592 
Q 528.786756 189.311592 526.434313 189.616312 
Q 524.088246 189.920294 524.088246 190.455213 
Q 524.088246 190.987919 526.434313 191.292639 
Q 528.786756 191.596621 532.892374 191.596621 
Q 535.181065 191.596621 537.253 191.518412 
Q 539.324934 191.439465 541.460621 191.271242 
L 541.460621 191.983976 
z
" clip-path="url(#pf4754b8f61)" style="fill: #0000ff"/>
   </g>
   <g id="patch_67">
    <path d="M 516.157518 185.096426 
L 541.460621 185.096426 
L 541.460621 185.793024 
L 532.357388 185.793024 
L 532.357388 188.668213 
L 525.278404 188.668213 
L 525.278404 185.793024 
L 516.157518 185.793024 
L 516.157518 185.096426 
z
" clip-path="url(#pf4754b8f61)" style="fill: #ff0000"/>
   </g>
   <g id="patch_68">
    <path d="M 533.684999 182.77261 
L 523.953833 182.77261 
L 522.417333 185.096426 
L 516.157518 185.096426 
L 525.097154 172.340045 
L 532.520984 172.340045 
L 541.460621 185.096426 
L 535.205979 185.096426 
L 533.684999 182.77261 
z
M 525.505853 180.405052 
L 532.117459 180.405052 
L 528.816829 175.330932 
L 525.505853 180.405052 
z
" clip-path="url(#pf4754b8f61)" style="fill: #008000"/>
   </g>
   <g id="patch_69">
    <path d="M 541.460621 166.984736 
Q 538.908761 169.66239 536.164095 171.007331 
Q 533.419428 172.340045 530.493296 172.340045 
Q 523.881145 172.340045 520.019332 164.368215 
Q 516.157518 156.396386 516.157518 142.763579 
Q 516.157518 128.971825 520.087381 121.06113 
Q 524.022915 113.150434 530.867569 113.150434 
Q 533.50449 113.150434 535.92025 114.226386 
Q 538.341681 115.290112 540.485243 117.39311 
L 540.485243 129.191906 
Q 538.273632 126.489799 536.084704 125.157085 
Q 533.895775 123.812144 531.695506 123.812144 
Q 527.623872 123.812144 525.417932 128.727291 
Q 523.211991 133.63021 523.211991 142.763579 
Q 523.211991 151.811361 525.338541 156.750961 
Q 527.46509 161.678334 531.377941 161.678334 
Q 532.444051 161.678334 533.35705 161.397119 
Q 534.270048 161.103678 534.99591 160.492341 
L 534.99591 149.414922 
L 530.827873 149.414922 
L 530.827873 139.547949 
L 541.460621 139.547949 
L 541.460621 166.984736 
z
" clip-path="url(#pf4754b8f61)" style="fill: #ffa600"/>
   </g>
   <g id="patch_70">
    <path d="M 568.095465 192.064362 
Q 565.978905 192.151422 563.690214 192.195458 
Q 561.401523 192.24 558.908826 192.24 
Q 551.475362 192.24 547.133863 191.909983 
Q 542.792363 191.579967 542.792363 191.015598 
Q 542.792363 190.449204 547.133863 190.119694 
Q 551.475362 189.789677 558.908826 189.789677 
Q 561.401523 189.789677 563.690214 189.834219 
Q 565.978905 189.878255 568.095465 189.965315 
L 568.095465 190.45376 
Q 565.959779 190.338355 563.887844 190.284702 
Q 561.81591 190.231049 559.527219 190.231049 
Q 555.421601 190.231049 553.069158 190.440093 
Q 550.723091 190.648631 550.723091 191.015598 
Q 550.723091 191.381046 553.069158 191.59009 
Q 555.421601 191.798628 559.527219 191.798628 
Q 561.81591 191.798628 563.887844 191.744975 
Q 565.959779 191.690816 568.095465 191.575411 
L 568.095465 192.064362 
z
" clip-path="url(#pf4754b8f61)" style="fill: #0000ff"/>
   </g>
   <g id="patch_71">
    <path d="M 542.792363 186.420483 
L 568.095465 186.420483 
L 568.095465 187.07757 
L 558.992233 187.07757 
L 558.992233 189.789677 
L 551.913249 189.789677 
L 551.913249 187.07757 
L 542.792363 187.07757 
L 542.792363 186.420483 
z
" clip-path="url(#pf4754b8f61)" style="fill: #ff0000"/>
   </g>
   <g id="patch_72">
    <path d="M 568.095465 185.062581 
Q 565.543606 185.741532 562.79894 186.082557 
Q 560.054273 186.420483 557.128141 186.420483 
Q 550.51599 186.420483 546.654177 184.399131 
Q 542.792363 182.377779 542.792363 178.921019 
Q 542.792363 175.423956 546.722226 173.418105 
Q 550.65776 171.412254 557.502414 171.412254 
Q 560.139335 171.412254 562.555095 171.685075 
Q 564.976526 171.954795 567.120088 172.488035 
L 567.120088 175.47976 
Q 564.908477 174.794609 562.719548 174.456683 
Q 560.53062 174.115658 558.33035 174.115658 
Q 554.258717 174.115658 552.052777 175.361951 
Q 549.846836 176.605145 549.846836 178.921019 
Q 549.846836 181.215191 551.973385 182.467686 
Q 554.099935 183.71708 558.012786 183.71708 
Q 559.078896 183.71708 559.991894 183.645774 
Q 560.904893 183.571369 561.630755 183.416357 
L 561.630755 180.607546 
L 557.462718 180.607546 
L 557.462718 178.105658 
L 568.095465 178.105658 
L 568.095465 185.062581 
z
" clip-path="url(#pf4754b8f61)" style="fill: #ffa600"/>
   </g>
   <g id="patch_73">
    <path d="M 560.319844 166.557952 
L 550.588678 166.557952 
L 549.052178 171.412254 
L 542.792363 171.412254 
L 551.731999 144.764992 
L 559.155829 144.764992 
L 568.095465 171.412254 
L 561.840824 171.412254 
L 560.319844 166.557952 
z
M 552.140698 161.612275 
L 558.752304 161.612275 
L 555.451674 151.012764 
L 552.140698 161.612275 
z
" clip-path="url(#pf4754b8f61)" style="fill: #008000"/>
   </g>
   <g id="patch_74">
    <path d="M 594.73031 192.132197 
Q 592.178451 192.186099 589.433785 192.213172 
Q 586.689118 192.24 583.762986 192.24 
Q 577.150835 192.24 573.289021 192.079526 
Q 569.427208 191.919053 569.427208 191.644624 
Q 569.427208 191.366995 573.357071 191.207752 
Q 577.292605 191.048509 584.137259 191.048509 
Q 586.77418 191.048509 589.18994 191.070168 
Q 591.611371 191.091581 593.754933 191.133914 
L 593.754933 191.371425 
Q 591.543322 191.317031 589.354393 191.290204 
Q 587.165465 191.26313 584.965195 191.26313 
Q 580.893562 191.26313 578.687621 191.362072 
Q 576.481681 191.460768 576.481681 191.644624 
Q 576.481681 191.826756 578.60823 191.926191 
Q 580.73478 192.025379 584.647631 192.025379 
Q 585.713741 192.025379 586.626739 192.019718 
Q 587.539738 192.013811 588.2656 192.001505 
L 588.2656 191.778516 
L 584.097563 191.778516 
L 584.097563 191.579893 
L 594.73031 191.579893 
L 594.73031 192.132197 
z
" clip-path="url(#pf4754b8f61)" style="fill: #ffa600"/>
   </g>
   <g id="patch_75">
    <path d="M 594.73031 190.725866 
Q 592.613749 190.885793 590.325059 190.966686 
Q 588.036368 191.048509 585.543671 191.048509 
Q 578.110207 191.048509 573.768707 190.442276 
Q 569.427208 189.836042 569.427208 188.799309 
Q 569.427208 187.758857 573.768707 187.153553 
Q 578.110207 186.54732 585.543671 186.54732 
Q 588.036368 186.54732 590.325059 186.629143 
Q 592.613749 186.710036 594.73031 186.869962 
L 594.73031 187.767225 
Q 592.594624 187.555229 590.522689 187.45667 
Q 588.450755 187.35811 586.162064 187.35811 
Q 582.056446 187.35811 579.704003 187.74212 
Q 577.357936 188.1252 577.357936 188.799309 
Q 577.357936 189.470629 579.704003 189.854638 
Q 582.056446 190.237718 586.162064 190.237718 
Q 588.450755 190.237718 590.522689 190.139159 
Q 592.594624 190.03967 594.73031 189.827674 
L 594.73031 190.725866 
z
" clip-path="url(#pf4754b8f61)" style="fill: #0000ff"/>
   </g>
   <g id="patch_76">
    <path d="M 569.427208 179.663149 
L 594.73031 179.663149 
L 594.73031 181.005754 
L 585.627078 181.005754 
L 585.627078 186.54732 
L 578.548093 186.54732 
L 578.548093 181.005754 
L 569.427208 181.005754 
L 569.427208 179.663149 
z
" clip-path="url(#pf4754b8f61)" style="fill: #ff0000"/>
   </g>
   <g id="patch_77">
    <path d="M 586.954689 178.216131 
L 577.223522 178.216131 
L 575.687022 179.663149 
L 569.427208 179.663149 
L 578.366844 171.719874 
L 585.790674 171.719874 
L 594.73031 179.663149 
L 588.475669 179.663149 
L 586.954689 178.216131 
z
M 578.775543 176.741876 
L 585.387149 176.741876 
L 582.086519 173.582271 
L 578.775543 176.741876 
z
" clip-path="url(#pf4754b8f61)" style="fill: #008000"/>
   </g>
   <g id="patch_78">
    <path d="M 621.365155 192.231211 
Q 618.813296 192.235605 616.068629 192.237813 
Q 613.323963 192.24 610.397831 192.24 
Q 603.78568 192.24 599.923866 192.226916 
Q 596.062053 192.213833 596.062053 192.191458 
Q 596.062053 192.168822 599.991916 192.155839 
Q 603.92745 192.142856 610.772104 192.142856 
Q 613.409025 192.142856 615.824785 192.144622 
Q 618.246216 192.146367 620.389778 192.149819 
L 620.389778 192.169184 
Q 618.178166 192.164749 615.989238 192.162561 
Q 613.80031 192.160354 611.60004 192.160354 
Q 607.528407 192.160354 605.322466 192.168421 
Q 603.116526 192.176468 603.116526 192.191458 
Q 603.116526 192.206307 605.243075 192.214415 
Q 607.369625 192.222502 611.282476 192.222502 
Q 612.348586 192.222502 613.261584 192.22204 
Q 614.174583 192.221558 614.900445 192.220555 
L 614.900445 192.202374 
L 610.732408 192.202374 
L 610.732408 192.18618 
L 621.365155 192.18618 
L 621.365155 192.231211 
z
" clip-path="url(#pf4754b8f61)" style="fill: #ffa600"/>
   </g>
   <g id="patch_79">
    <path d="M 596.062053 192.043013 
L 621.365155 192.043013 
L 621.365155 192.062485 
L 612.261923 192.062485 
L 612.261923 192.142856 
L 605.182938 192.142856 
L 605.182938 192.062485 
L 596.062053 192.062485 
L 596.062053 192.043013 
z
" clip-path="url(#pf4754b8f61)" style="fill: #ff0000"/>
   </g>
   <g id="patch_80">
    <path d="M 621.365155 192.035663 
Q 619.248594 192.039306 616.959903 192.041149 
Q 614.671213 192.043013 612.178516 192.043013 
Q 604.745052 192.043013 600.403552 192.029202 
Q 596.062053 192.015392 596.062053 191.991774 
Q 596.062053 191.968071 600.403552 191.954282 
Q 604.745052 191.940471 612.178516 191.940471 
Q 614.671213 191.940471 616.959903 191.942335 
Q 619.248594 191.944178 621.365155 191.947822 
L 621.365155 191.968262 
Q 619.229469 191.963433 617.157534 191.961187 
Q 615.0856 191.958942 612.796909 191.958942 
Q 608.691291 191.958942 606.338848 191.96769 
Q 603.992781 191.976417 603.992781 191.991774 
Q 603.992781 192.007067 606.338848 192.015815 
Q 608.691291 192.024542 612.796909 192.024542 
Q 615.0856 192.024542 617.157534 192.022297 
Q 619.229469 192.02003 621.365155 192.015201 
L 621.365155 192.035663 
z
" clip-path="url(#pf4754b8f61)" style="fill: #0000ff"/>
   </g>
   <g id="patch_81">
    <path d="M 613.589534 191.918842 
L 603.858367 191.918842 
L 602.321867 191.940471 
L 596.062053 191.940471 
L 605.001689 191.821739 
L 612.425519 191.821739 
L 621.365155 191.940471 
L 615.110514 191.940471 
L 613.589534 191.918842 
z
M 605.410387 191.896806 
L 612.021994 191.896806 
L 608.721364 191.849578 
L 605.410387 191.896806 
z
" clip-path="url(#pf4754b8f61)" style="fill: #008000"/>
   </g>
   <g id="patch_82">
    <path d="M 648 192.114032 
Q 645.883439 192.176471 643.594748 192.208054 
Q 641.306058 192.24 638.813361 192.24 
Q 631.379897 192.24 627.038397 192.00331 
Q 622.696897 191.76662 622.696897 191.361851 
Q 622.696897 190.95563 627.038397 190.719303 
Q 631.379897 190.482613 638.813361 190.482613 
Q 641.306058 190.482613 643.594748 190.514558 
Q 645.883439 190.546141 648 190.608581 
L 648 190.958897 
Q 645.864314 190.876128 643.792379 190.837648 
Q 641.720444 190.799167 639.431754 190.799167 
Q 635.326136 190.799167 632.973693 190.949095 
Q 630.627625 191.09866 630.627625 191.361851 
Q 630.627625 191.623952 632.973693 191.77388 
Q 635.326136 191.923445 639.431754 191.923445 
Q 641.720444 191.923445 643.792379 191.884965 
Q 645.864314 191.846122 648 191.763353 
L 648 192.114032 
z
" clip-path="url(#pf4754b8f61)" style="fill: #0000ff"/>
   </g>
   <g id="patch_83">
    <path d="M 622.696897 187.748899 
L 648 187.748899 
L 648 188.282049 
L 638.896767 188.282049 
L 638.896767 190.482613 
L 631.817783 190.482613 
L 631.817783 188.282049 
L 622.696897 188.282049 
L 622.696897 187.748899 
z
" clip-path="url(#pf4754b8f61)" style="fill: #ff0000"/>
   </g>
   <g id="patch_84">
    <path d="M 640.224379 187.019688 
L 630.493212 187.019688 
L 628.956712 187.748899 
L 622.696897 187.748899 
L 631.636534 183.74596 
L 639.060364 183.74596 
L 648 187.748899 
L 641.745359 187.748899 
L 640.224379 187.019688 
z
M 632.045232 186.276751 
L 638.656838 186.276751 
L 635.356209 184.684498 
L 632.045232 186.276751 
z
" clip-path="url(#pf4754b8f61)" style="fill: #008000"/>
   </g>
   <g id="patch_85">
    <path d="M 648 183.145281 
Q 645.448141 183.445621 642.703474 183.596476 
Q 639.958808 183.74596 637.032676 183.74596 
Q 630.420525 183.74596 626.558711 182.851798 
Q 622.696897 181.957635 622.696897 180.428508 
Q 622.696897 178.881552 626.626761 177.994246 
Q 630.562295 177.106941 637.406949 177.106941 
Q 640.04387 177.106941 642.45963 177.227626 
Q 644.881061 177.346939 647.024623 177.582822 
L 647.024623 178.906237 
Q 644.813011 178.603155 642.624083 178.45367 
Q 640.435155 178.302815 638.234885 178.302815 
Q 634.163252 178.302815 631.957311 178.854124 
Q 629.751371 179.404061 629.751371 180.428508 
Q 629.751371 181.443355 631.87792 181.997406 
Q 634.004469 182.550087 637.91732 182.550087 
Q 638.98343 182.550087 639.896429 182.518544 
Q 640.809428 182.48563 641.53529 182.417059 
L 641.53529 181.174558 
L 637.367253 181.174558 
L 637.367253 180.067826 
L 648 180.067826 
L 648 183.145281 
z
" clip-path="url(#pf4754b8f61)" style="fill: #ffa600"/>
   </g>
   <g id="matplotlib.axis_1">
    <g id="xtick_1">
     <g id="line2d_2">
      <defs>
       <path id="ma5b211c33d" d="M 0 0 
L 0 3.5 
" style="stroke: #000000; stroke-width: 0.8"/>
      </defs>
      <g>
       <use xlink:href="#ma5b211c33d" x="102.651551" y="192.24" style="stroke: #000000; stroke-width: 0.8"/>
      </g>
     </g>
     <g id="text_1">
      <!-- 0.0 -->
      <g transform="translate(94.699989 206.838437) scale(0.1 -0.1)">
       <defs>
        <path id="DejaVuSans-30" d="M 2034 4250 
Q 1547 4250 1301 3770 
Q 1056 3291 1056 2328 
Q 1056 1369 1301 889 
Q 1547 409 2034 409 
Q 2525 409 2770 889 
Q 3016 1369 3016 2328 
Q 3016 3291 2770 3770 
Q 2525 4250 2034 4250 
z
M 2034 4750 
Q 2819 4750 3233 4129 
Q 3647 3509 3647 2328 
Q 3647 1150 3233 529 
Q 2819 -91 2034 -91 
Q 1250 -91 836 529 
Q 422 1150 422 2328 
Q 422 3509 836 4129 
Q 1250 4750 2034 4750 
z
" transform="scale(0.015625)"/>
        <path id="DejaVuSans-2e" d="M 684 794 
L 1344 794 
L 1344 0 
L 684 0 
L 684 794 
z
" transform="scale(0.015625)"/>
       </defs>
       <use xlink:href="#DejaVuSans-30"/>
       <use xlink:href="#DejaVuSans-2e" x="63.623047"/>
       <use xlink:href="#DejaVuSans-30" x="95.410156"/>
      </g>
     </g>
    </g>
    <g id="xtick_2">
     <g id="line2d_3">
      <g>
       <use xlink:href="#ma5b211c33d" x="169.238663" y="192.24" style="stroke: #000000; stroke-width: 0.8"/>
      </g>
     </g>
     <g id="text_2">
      <!-- 2.5 -->
      <g transform="translate(161.287101 206.838437) scale(0.1 -0.1)">
       <defs>
        <path id="DejaVuSans-32" d="M 1228 531 
L 3431 531 
L 3431 0 
L 469 0 
L 469 531 
Q 828 903 1448 1529 
Q 2069 2156 2228 2338 
Q 2531 2678 2651 2914 
Q 2772 3150 2772 3378 
Q 2772 3750 2511 3984 
Q 2250 4219 1831 4219 
Q 1534 4219 1204 4116 
Q 875 4013 500 3803 
L 500 4441 
Q 881 4594 1212 4672 
Q 1544 4750 1819 4750 
Q 2544 4750 2975 4387 
Q 3406 4025 3406 3419 
Q 3406 3131 3298 2873 
Q 3191 2616 2906 2266 
Q 2828 2175 2409 1742 
Q 1991 1309 1228 531 
z
" transform="scale(0.015625)"/>
        <path id="DejaVuSans-35" d="M 691 4666 
L 3169 4666 
L 3169 4134 
L 1269 4134 
L 1269 2991 
Q 1406 3038 1543 3061 
Q 1681 3084 1819 3084 
Q 2600 3084 3056 2656 
Q 3513 2228 3513 1497 
Q 3513 744 3044 326 
Q 2575 -91 1722 -91 
Q 1428 -91 1123 -41 
Q 819 9 494 109 
L 494 744 
Q 775 591 1075 516 
Q 1375 441 1709 441 
Q 2250 441 2565 725 
Q 2881 1009 2881 1497 
Q 2881 1984 2565 2268 
Q 2250 2553 1709 2553 
Q 1456 2553 1204 2497 
Q 953 2441 691 2322 
L 691 4666 
z
" transform="scale(0.015625)"/>
       </defs>
       <use xlink:href="#DejaVuSans-32"/>
       <use xlink:href="#DejaVuSans-2e" x="63.623047"/>
       <use xlink:href="#DejaVuSans-35" x="95.410156"/>
      </g>
     </g>
    </g>
    <g id="xtick_3">
     <g id="line2d_4">
      <g>
       <use xlink:href="#ma5b211c33d" x="235.825776" y="192.24" style="stroke: #000000; stroke-width: 0.8"/>
      </g>
     </g>
     <g id="text_3">
      <!-- 5.0 -->
      <g transform="translate(227.874213 206.838437) scale(0.1 -0.1)">
       <use xlink:href="#DejaVuSans-35"/>
       <use xlink:href="#DejaVuSans-2e" x="63.623047"/>
       <use xlink:href="#DejaVuSans-30" x="95.410156"/>
      </g>
     </g>
    </g>
    <g id="xtick_4">
     <g id="line2d_5">
      <g>
       <use xlink:href="#ma5b211c33d" x="302.412888" y="192.24" style="stroke: #000000; stroke-width: 0.8"/>
      </g>
     </g>
     <g id="text_4">
      <!-- 7.5 -->
      <g transform="translate(294.461325 206.838437) scale(0.1 -0.1)">
       <defs>
        <path id="DejaVuSans-37" d="M 525 4666 
L 3525 4666 
L 3525 4397 
L 1831 0 
L 1172 0 
L 2766 4134 
L 525 4134 
L 525 4666 
z
" transform="scale(0.015625)"/>
       </defs>
       <use xlink:href="#DejaVuSans-37"/>
       <use xlink:href="#DejaVuSans-2e" x="63.623047"/>
       <use xlink:href="#DejaVuSans-35" x="95.410156"/>
      </g>
     </g>
    </g>
    <g id="xtick_5">
     <g id="line2d_6">
      <g>
       <use xlink:href="#ma5b211c33d" x="369" y="192.24" style="stroke: #000000; stroke-width: 0.8"/>
      </g>
     </g>
     <g id="text_5">
      <!-- 10.0 -->
      <g transform="translate(357.867188 206.838437) scale(0.1 -0.1)">
       <defs>
        <path id="DejaVuSans-31" d="M 794 531 
L 1825 531 
L 1825 4091 
L 703 3866 
L 703 4441 
L 1819 4666 
L 2450 4666 
L 2450 531 
L 3481 531 
L 3481 0 
L 794 0 
L 794 531 
z
" transform="scale(0.015625)"/>
       </defs>
       <use xlink:href="#DejaVuSans-31"/>
       <use xlink:href="#DejaVuSans-30" x="63.623047"/>
       <use xlink:href="#DejaVuSans-2e" x="127.246094"/>
       <use xlink:href="#DejaVuSans-30" x="159.033203"/>
      </g>
     </g>
    </g>
    <g id="xtick_6">
     <g id="line2d_7">
      <g>
       <use xlink:href="#ma5b211c33d" x="435.587112" y="192.24" style="stroke: #000000; stroke-width: 0.8"/>
      </g>
     </g>
     <g id="text_6">
      <!-- 12.5 -->
      <g transform="translate(424.4543 206.838437) scale(0.1 -0.1)">
       <use xlink:href="#DejaVuSans-31"/>
       <use xlink:href="#DejaVuSans-32" x="63.623047"/>
       <use xlink:href="#DejaVuSans-2e" x="127.246094"/>
       <use xlink:href="#DejaVuSans-35" x="159.033203"/>
      </g>
     </g>
    </g>
    <g id="xtick_7">
     <g id="line2d_8">
      <g>
       <use xlink:href="#ma5b211c33d" x="502.174224" y="192.24" style="stroke: #000000; stroke-width: 0.8"/>
      </g>
     </g>
     <g id="text_7">
      <!-- 15.0 -->
      <g transform="translate(491.041412 206.838437) scale(0.1 -0.1)">
       <use xlink:href="#DejaVuSans-31"/>
       <use xlink:href="#DejaVuSans-35" x="63.623047"/>
       <use xlink:href="#DejaVuSans-2e" x="127.246094"/>
       <use xlink:href="#DejaVuSans-30" x="159.033203"/>
      </g>
     </g>
    </g>
    <g id="xtick_8">
     <g id="line2d_9">
      <g>
       <use xlink:href="#ma5b211c33d" x="568.761337" y="192.24" style="stroke: #000000; stroke-width: 0.8"/>
      </g>
     </g>
     <g id="text_8">
      <!-- 17.5 -->
      <g transform="translate(557.628524 206.838437) scale(0.1 -0.1)">
       <use xlink:href="#DejaVuSans-31"/>
       <use xlink:href="#DejaVuSans-37" x="63.623047"/>
       <use xlink:href="#DejaVuSans-2e" x="127.246094"/>
       <use xlink:href="#DejaVuSans-35" x="159.033203"/>
      </g>
     </g>
    </g>
    <g id="xtick_9">
     <g id="line2d_10">
      <g>
       <use xlink:href="#ma5b211c33d" x="635.348449" y="192.24" style="stroke: #000000; stroke-width: 0.8"/>
      </g>
     </g>
     <g id="text_9">
      <!-- 20.0 -->
      <g transform="translate(624.215636 206.838437) scale(0.1 -0.1)">
       <use xlink:href="#DejaVuSans-32"/>
       <use xlink:href="#DejaVuSans-30" x="63.623047"/>
       <use xlink:href="#DejaVuSans-2e" x="127.246094"/>
       <use xlink:href="#DejaVuSans-30" x="159.033203"/>
      </g>
     </g>
    </g>
   </g>
   <g id="matplotlib.axis_2">
    <g id="ytick_1">
     <g id="line2d_11">
      <defs>
       <path id="m338749bd63" d="M 0 0 
L -3.5 0 
" style="stroke: #000000; stroke-width: 0.8"/>
      </defs>
      <g>
       <use xlink:href="#m338749bd63" x="90" y="192.24" style="stroke: #000000; stroke-width: 0.8"/>
      </g>
     </g>
     <g id="text_10">
      <!-- 0.00 -->
      <g transform="translate(60.734375 196.039219) scale(0.1 -0.1)">
       <use xlink:href="#DejaVuSans-30"/>
       <use xlink:href="#DejaVuSans-2e" x="63.623047"/>
       <use xlink:href="#DejaVuSans-30" x="95.410156"/>
       <use xlink:href="#DejaVuSans-30" x="159.033203"/>
      </g>
     </g>
    </g>
    <g id="ytick_2">
     <g id="line2d_12">
      <g>
       <use xlink:href="#m338749bd63" x="90" y="169.218777" style="stroke: #000000; stroke-width: 0.8"/>
      </g>
     </g>
     <g id="text_11">
      <!-- 0.25 -->
      <g transform="translate(60.734375 173.017996) scale(0.1 -0.1)">
       <use xlink:href="#DejaVuSans-30"/>
       <use xlink:href="#DejaVuSans-2e" x="63.623047"/>
       <use xlink:href="#DejaVuSans-32" x="95.410156"/>
       <use xlink:href="#DejaVuSans-35" x="159.033203"/>
      </g>
     </g>
    </g>
    <g id="ytick_3">
     <g id="line2d_13">
      <g>
       <use xlink:href="#m338749bd63" x="90" y="146.197554" style="stroke: #000000; stroke-width: 0.8"/>
      </g>
     </g>
     <g id="text_12">
      <!-- 0.50 -->
      <g transform="translate(60.734375 149.996773) scale(0.1 -0.1)">
       <use xlink:href="#DejaVuSans-30"/>
       <use xlink:href="#DejaVuSans-2e" x="63.623047"/>
       <use xlink:href="#DejaVuSans-35" x="95.410156"/>
       <use xlink:href="#DejaVuSans-30" x="159.033203"/>
      </g>
     </g>
    </g>
    <g id="ytick_4">
     <g id="line2d_14">
      <g>
       <use xlink:href="#m338749bd63" x="90" y="123.176331" style="stroke: #000000; stroke-width: 0.8"/>
      </g>
     </g>
     <g id="text_13">
      <!-- 0.75 -->
      <g transform="translate(60.734375 126.97555) scale(0.1 -0.1)">
       <use xlink:href="#DejaVuSans-30"/>
       <use xlink:href="#DejaVuSans-2e" x="63.623047"/>
       <use xlink:href="#DejaVuSans-37" x="95.410156"/>
       <use xlink:href="#DejaVuSans-35" x="159.033203"/>
      </g>
     </g>
    </g>
    <g id="ytick_5">
     <g id="line2d_15">
      <g>
       <use xlink:href="#m338749bd63" x="90" y="100.155109" style="stroke: #000000; stroke-width: 0.8"/>
      </g>
     </g>
     <g id="text_14">
      <!-- 1.00 -->
      <g transform="translate(60.734375 103.954327) scale(0.1 -0.1)">
       <use xlink:href="#DejaVuSans-31"/>
       <use xlink:href="#DejaVuSans-2e" x="63.623047"/>
       <use xlink:href="#DejaVuSans-30" x="95.410156"/>
       <use xlink:href="#DejaVuSans-30" x="159.033203"/>
      </g>
     </g>
    </g>
    <g id="ytick_6">
     <g id="line2d_16">
      <g>
       <use xlink:href="#m338749bd63" x="90" y="77.133886" style="stroke: #000000; stroke-width: 0.8"/>
      </g>
     </g>
     <g id="text_15">
      <!-- 1.25 -->
      <g transform="translate(60.734375 80.933105) scale(0.1 -0.1)">
       <use xlink:href="#DejaVuSans-31"/>
       <use xlink:href="#DejaVuSans-2e" x="63.623047"/>
       <use xlink:href="#DejaVuSans-32" x="95.410156"/>
       <use xlink:href="#DejaVuSans-35" x="159.033203"/>
      </g>
     </g>
    </g>
    <g id="ytick_7">
     <g id="line2d_17">
      <g>
       <use xlink:href="#m338749bd63" x="90" y="54.112663" style="stroke: #000000; stroke-width: 0.8"/>
      </g>
     </g>
     <g id="text_16">
      <!-- 1.50 -->
      <g transform="translate(60.734375 57.911882) scale(0.1 -0.1)">
       <use xlink:href="#DejaVuSans-31"/>
       <use xlink:href="#DejaVuSans-2e" x="63.623047"/>
       <use xlink:href="#DejaVuSans-35" x="95.410156"/>
       <use xlink:href="#DejaVuSans-30" x="159.033203"/>
      </g>
     </g>
    </g>
    <g id="ytick_8">
     <g id="line2d_18">
      <g>
       <use xlink:href="#m338749bd63" x="90" y="31.09144" style="stroke: #000000; stroke-width: 0.8"/>
      </g>
     </g>
     <g id="text_17">
      <!-- 1.75 -->
      <g transform="translate(60.734375 34.890659) scale(0.1 -0.1)">
       <use xlink:href="#DejaVuSans-31"/>
       <use xlink:href="#DejaVuSans-2e" x="63.623047"/>
       <use xlink:href="#DejaVuSans-37" x="95.410156"/>
       <use xlink:href="#DejaVuSans-35" x="159.033203"/>
      </g>
     </g>
    </g>
   </g>
  </g>
 </g>
 <defs>
  <clipPath id="pf4754b8f61">
   <rect x="90" y="25.92" width="558" height="166.32"/>
  </clipPath>
 </defs>
</svg>
