<?xml version="1.0" encoding="utf-8" standalone="no"?>
<!DOCTYPE svg PUBLIC "-//W3C//DTD SVG 1.1//EN"
  "http://www.w3.org/Graphics/SVG/1.1/DTD/svg11.dtd">
<svg xmlns:xlink="http://www.w3.org/1999/xlink" width="720pt" height="216pt" viewBox="0 0 720 216" xmlns="http://www.w3.org/2000/svg" version="1.1">
 <metadata>
  <rdf:RDF xmlns:dc="http://purl.org/dc/elements/1.1/" xmlns:cc="http://creativecommons.org/ns#" xmlns:rdf="http://www.w3.org/1999/02/22-rdf-syntax-ns#">
   <cc:Work>
    <dc:type rdf:resource="http://purl.org/dc/dcmitype/StillImage"/>
    <dc:date>2025-12-17T10:21:55.682136</dc:date>
    <dc:format>image/svg+xml</dc:format>
    <dc:creator>
     <cc:Agent>
      <dc:title>Matplotlib v3.8.2, https://matplotlib.org/</dc:title>
     </cc:Agent>
    </dc:creator>
   </cc:Work>
  </rdf:RDF>
 </metadata>
 <defs>
  <style type="text/css">*{stroke-linejoin: round; stroke-linecap: butt}</style>
 </defs>
 <g id="figure_1">
  <g id="patch_1">
   <path d="M 0 216 
L 720 216 
L 720 0 
L 0 0 
z
" style="fill: #ffffff"/>
  </g>
  <g id="axes_1">
   <g id="patch_2">
    <path d="M 90 192.24 
L 648 192.24 
L 648 25.92 
L 90 25.92 
z
" style="fill: #ffffff"/>
   </g>
   <g id="line2d_1">
    <path d="M 90 192.24 
L 648 192.24 
" clip-path="url(#p94c09930d5)" style="fill: none; stroke: #000000; stroke-width: 0.5; stroke-linecap: square"/>
   </g>
   <g id="patch_3">
    <path d="M 104.717464 192.015804 
L 96.546405 192.015804 
L 95.256237 192.24 
L 90 192.24 
L 97.506428 191.009298 
L 103.740065 191.009298 
L 111.246493 192.24 
L 105.9946 192.24 
L 104.717464 192.015804 
z
M 97.849604 191.787389 
L 103.401233 191.787389 
L 100.629762 191.297851 
L 97.849604 191.787389 
z
" clip-path="url(#p94c09930d5)" style="fill: #008000"/>
   </g>
   <g id="patch_4">
    <path d="M 111.246493 190.911933 
Q 109.469261 190.960195 107.547494 190.984606 
Q 105.625728 191.009298 103.532662 191.009298 
Q 97.290936 191.009298 93.645468 190.826353 
Q 90 190.643408 90 190.330549 
Q 90 190.016568 93.645468 189.833903 
Q 97.290936 189.650958 103.532662 189.650958 
Q 105.625728 189.650958 107.547494 189.67565 
Q 109.469261 189.700062 111.246493 189.748323 
L 111.246493 190.019093 
Q 109.453201 189.955119 107.71344 189.925376 
Q 105.97368 189.895633 104.051913 189.895633 
Q 100.604511 189.895633 98.629213 190.011517 
Q 96.659269 190.127121 96.659269 190.330549 
Q 96.659269 190.533135 98.629213 190.649019 
Q 100.604511 190.764623 104.051913 190.764623 
Q 105.97368 190.764623 107.71344 190.73488 
Q 109.453201 190.704857 111.246493 190.640882 
L 111.246493 190.911933 
z
" clip-path="url(#p94c09930d5)" style="fill: #0000ff"/>
   </g>
   <g id="patch_5">
    <path d="M 111.246493 189.509039 
Q 109.103749 189.579998 106.79911 189.61564 
Q 104.49447 189.650958 102.037457 189.650958 
Q 96.485371 189.650958 93.242685 189.439699 
Q 90 189.22844 90 188.867161 
Q 90 188.50167 93.299825 188.292031 
Q 96.604412 188.082392 102.351726 188.082392 
Q 104.565895 188.082392 106.594359 188.110905 
Q 108.627584 188.139095 110.427489 188.194826 
L 110.427489 188.507502 
Q 108.570444 188.435894 106.732447 188.400576 
Q 104.894449 188.364935 103.046928 188.364935 
Q 99.628061 188.364935 97.775778 188.495189 
Q 95.923496 188.62512 95.923496 188.867161 
Q 95.923496 189.106934 97.709115 189.237836 
Q 99.494735 189.368415 102.780275 189.368415 
Q 103.675466 189.368415 104.442092 189.360963 
Q 105.208718 189.353187 105.818209 189.336986 
L 105.818209 189.043426 
L 102.318395 189.043426 
L 102.318395 188.781944 
L 111.246493 188.781944 
L 111.246493 189.509039 
z
" clip-path="url(#p94c09930d5)" style="fill: #ffa600"/>
   </g>
   <g id="patch_6">
    <path d="M 90 185.830589 
L 111.246493 185.830589 
L 111.246493 186.269753 
L 103.602697 186.269753 
L 103.602697 188.082392 
L 97.65862 188.082392 
L 97.65862 186.269753 
L 90 186.269753 
L 90 185.830589 
z
" clip-path="url(#p94c09930d5)" style="fill: #ff0000"/>
   </g>
   <g id="patch_7">
    <path d="M 133.611222 192.117862 
Q 131.83399 192.178403 129.912224 192.209026 
Q 127.990457 192.24 125.897391 192.24 
Q 119.655665 192.24 116.010197 192.010508 
Q 112.364729 191.781016 112.364729 191.388557 
Q 112.364729 190.99469 116.010197 190.76555 
Q 119.655665 190.536058 125.897391 190.536058 
Q 127.990457 190.536058 129.912224 190.567033 
Q 131.83399 190.597655 133.611222 190.658196 
L 133.611222 190.997858 
Q 131.817931 190.917606 130.07817 190.880296 
Q 128.338409 190.842986 126.416643 190.842986 
Q 122.96924 190.842986 120.993943 190.988354 
Q 119.023998 191.133371 119.023998 191.388557 
Q 119.023998 191.642688 120.993943 191.788056 
Q 122.96924 191.933072 126.416643 191.933072 
Q 128.338409 191.933072 130.07817 191.895762 
Q 131.817931 191.8581 133.611222 191.777848 
L 133.611222 192.117862 
z
" clip-path="url(#p94c09930d5)" style="fill: #0000ff"/>
   </g>
   <g id="patch_8">
    <path d="M 112.364729 188.559973 
L 133.611222 188.559973 
L 133.611222 188.945365 
L 125.967426 188.945365 
L 125.967426 190.536058 
L 120.023349 190.536058 
L 120.023349 188.945365 
L 112.364729 188.945365 
L 112.364729 188.559973 
z
" clip-path="url(#p94c09930d5)" style="fill: #ff0000"/>
   </g>
   <g id="patch_9">
    <path d="M 127.082194 187.997248 
L 118.911134 187.997248 
L 117.620967 188.559973 
L 112.364729 188.559973 
L 119.871158 185.470944 
L 126.104794 185.470944 
L 133.611222 188.559973 
L 128.359329 188.559973 
L 127.082194 187.997248 
z
M 120.214333 187.423931 
L 125.765963 187.423931 
L 122.994492 186.195205 
L 120.214333 187.423931 
z
" clip-path="url(#p94c09930d5)" style="fill: #008000"/>
   </g>
   <g id="patch_10">
    <path d="M 133.611222 185.142212 
Q 131.468479 185.306578 129.163839 185.389137 
Q 126.859199 185.470944 124.402187 185.470944 
Q 118.8501 185.470944 115.607415 184.981599 
Q 112.364729 184.492253 112.364729 183.655413 
Q 112.364729 182.808815 115.664555 182.323222 
Q 118.969141 181.837629 124.716456 181.837629 
Q 126.930624 181.837629 128.959088 181.903676 
Q 130.992314 181.968972 132.792218 182.098063 
L 132.792218 182.822324 
Q 130.935174 182.656457 129.097176 182.574649 
Q 127.259178 182.492091 125.411657 182.492091 
Q 121.992791 182.492091 120.140508 182.793804 
Q 118.288225 183.094767 118.288225 183.655413 
Q 118.288225 184.210805 120.073845 184.514019 
Q 121.859464 184.816482 125.145004 184.816482 
Q 126.040195 184.816482 126.806821 184.79922 
Q 127.573447 184.781207 128.182939 184.743681 
L 128.182939 184.063701 
L 124.683124 184.063701 
L 124.683124 183.458023 
L 133.611222 183.458023 
L 133.611222 185.142212 
z
" clip-path="url(#p94c09930d5)" style="fill: #ffa600"/>
   </g>
   <g id="patch_11">
    <path d="M 155.975952 192.091372 
Q 153.833208 192.165686 151.528569 192.203013 
Q 149.223929 192.24 146.766916 192.24 
Q 141.214829 192.24 137.972144 192.018754 
Q 134.729459 191.797509 134.729459 191.419152 
Q 134.729459 191.036384 138.029284 190.816835 
Q 141.333871 190.597286 147.081185 190.597286 
Q 149.295354 190.597286 151.323818 190.627147 
Q 153.357043 190.656669 155.156948 190.715035 
L 155.156948 191.042492 
Q 153.299903 190.967499 151.461905 190.930512 
Q 149.623908 190.893185 147.776386 190.893185 
Q 144.35752 190.893185 142.505237 191.029597 
Q 140.652954 191.16567 140.652954 191.419152 
Q 140.652954 191.670259 142.438574 191.80735 
Q 144.224194 191.944101 147.509734 191.944101 
Q 148.404925 191.944101 149.171551 191.936296 
Q 149.938177 191.928152 150.547668 191.911186 
L 150.547668 191.603749 
L 147.047854 191.603749 
L 147.047854 191.329907 
L 155.975952 191.329907 
L 155.975952 192.091372 
z
" clip-path="url(#p94c09930d5)" style="fill: #ffa600"/>
   </g>
   <g id="patch_12">
    <path d="M 155.975952 190.458219 
Q 154.198719 190.527151 152.276953 190.562018 
Q 150.355187 190.597286 148.262121 190.597286 
Q 142.020395 190.597286 138.374927 190.335984 
Q 134.729459 190.074682 134.729459 189.627823 
Q 134.729459 189.179362 138.374927 188.91846 
Q 142.020395 188.657158 148.262121 188.657158 
Q 150.355187 188.657158 152.276953 188.692426 
Q 154.198719 188.727293 155.975952 188.796225 
L 155.975952 189.182968 
Q 154.18266 189.091593 152.442899 189.049111 
Q 150.703139 189.00663 148.781372 189.00663 
Q 145.33397 189.00663 143.358672 189.172148 
Q 141.388728 189.337265 141.388728 189.627823 
Q 141.388728 189.917179 143.358672 190.082697 
Q 145.33397 190.247814 148.781372 190.247814 
Q 150.703139 190.247814 152.442899 190.205333 
Q 154.18266 190.16245 155.975952 190.071075 
L 155.975952 190.458219 
z
" clip-path="url(#p94c09930d5)" style="fill: #0000ff"/>
   </g>
   <g id="patch_13">
    <path d="M 134.729459 185.448066 
L 155.975952 185.448066 
L 155.975952 186.073928 
L 148.332155 186.073928 
L 148.332155 188.657158 
L 142.388078 188.657158 
L 142.388078 186.073928 
L 134.729459 186.073928 
L 134.729459 185.448066 
z
" clip-path="url(#p94c09930d5)" style="fill: #ff0000"/>
   </g>
   <g id="patch_14">
    <path d="M 149.446923 184.835296 
L 141.275864 184.835296 
L 139.985696 185.448066 
L 134.729459 185.448066 
L 142.235887 182.084319 
L 148.469524 182.084319 
L 155.975952 185.448066 
L 150.724059 185.448066 
L 149.446923 184.835296 
z
M 142.579063 184.210991 
L 148.130692 184.210991 
L 145.359221 182.87299 
L 142.579063 184.210991 
z
" clip-path="url(#p94c09930d5)" style="fill: #008000"/>
   </g>
   <g id="patch_15">
    <path d="M 178.340681 192.037926 
Q 176.563449 192.13809 174.641682 192.188754 
Q 172.719916 192.24 170.62685 192.24 
Q 164.385124 192.24 160.739656 191.860311 
Q 157.094188 191.480623 157.094188 190.831308 
Q 157.094188 190.179665 160.739656 189.800559 
Q 164.385124 189.42087 170.62685 189.42087 
Q 172.719916 189.42087 174.641682 189.472116 
Q 176.563449 189.52278 178.340681 189.622943 
L 178.340681 190.184906 
Q 176.54739 190.052131 174.807629 189.990403 
Q 173.067868 189.928674 171.146102 189.928674 
Q 167.698699 189.928674 165.723401 190.169183 
Q 163.753457 190.409109 163.753457 190.831308 
Q 163.753457 191.251761 165.723401 191.49227 
Q 167.698699 191.732196 171.146102 191.732196 
Q 173.067868 191.732196 174.807629 191.670467 
Q 176.54739 191.608156 178.340681 191.475382 
L 178.340681 192.037926 
z
" clip-path="url(#p94c09930d5)" style="fill: #0000ff"/>
   </g>
   <g id="patch_16">
    <path d="M 171.811653 188.829136 
L 163.640593 188.829136 
L 162.350426 189.42087 
L 157.094188 189.42087 
L 164.600616 186.172598 
L 170.834253 186.172598 
L 178.340681 189.42087 
L 173.088788 189.42087 
L 171.811653 188.829136 
z
M 164.943792 188.226263 
L 170.495421 188.226263 
L 167.723951 186.934195 
L 164.943792 188.226263 
z
" clip-path="url(#p94c09930d5)" style="fill: #008000"/>
   </g>
   <g id="patch_17">
    <path d="M 178.340681 185.841071 
Q 176.197938 186.006835 173.893298 186.090095 
Q 171.588658 186.172598 169.131646 186.172598 
Q 163.579559 186.172598 160.336874 185.679092 
Q 157.094188 185.185586 157.094188 184.341629 
Q 157.094188 183.487833 160.394013 182.998111 
Q 163.6986 182.508389 169.445915 182.508389 
Q 171.660083 182.508389 173.688547 182.574997 
Q 175.721773 182.640849 177.521677 182.771038 
L 177.521677 183.501457 
Q 175.664633 183.33418 173.826635 183.251676 
Q 171.988637 183.168416 170.141116 183.168416 
Q 166.72225 183.168416 164.869967 183.472695 
Q 163.017684 183.776216 163.017684 184.341629 
Q 163.017684 184.901744 164.803304 185.207536 
Q 166.588923 185.512571 169.874463 185.512571 
Q 170.769654 185.512571 171.53628 185.495162 
Q 172.302906 185.476996 172.912398 185.439151 
L 172.912398 184.753389 
L 169.412583 184.753389 
L 169.412583 184.142561 
L 178.340681 184.142561 
L 178.340681 185.841071 
z
" clip-path="url(#p94c09930d5)" style="fill: #ffa600"/>
   </g>
   <g id="patch_18">
    <path d="M 157.094188 175.331822 
L 178.340681 175.331822 
L 178.340681 176.731452 
L 170.696885 176.731452 
L 170.696885 182.508389 
L 164.752808 182.508389 
L 164.752808 176.731452 
L 157.094188 176.731452 
L 157.094188 175.331822 
z
" clip-path="url(#p94c09930d5)" style="fill: #ff0000"/>
   </g>
   <g id="patch_19">
    <path d="M 179.458918 186.542447 
L 200.705411 186.542447 
L 200.705411 187.653629 
L 193.061614 187.653629 
L 193.061614 192.24 
L 187.117537 192.24 
L 187.117537 187.653629 
L 179.458918 187.653629 
L 179.458918 186.542447 
z
" clip-path="url(#p94c09930d5)" style="fill: #ff0000"/>
   </g>
   <g id="patch_20">
    <path d="M 200.705411 186.131154 
Q 198.928178 186.335023 197.006412 186.438142 
Q 195.084645 186.542447 192.99158 186.542447 
Q 186.749853 186.542447 183.104386 185.769642 
Q 179.458918 184.996837 179.458918 183.675245 
Q 179.458918 182.348912 183.104386 181.577292 
Q 186.749853 180.804486 192.99158 180.804486 
Q 195.084645 180.804486 197.006412 180.908791 
Q 198.928178 181.011911 200.705411 181.21578 
L 200.705411 182.359579 
Q 198.912119 182.089334 197.172358 181.963694 
Q 195.432598 181.838054 193.510831 181.838054 
Q 190.063428 181.838054 188.088131 182.327577 
Q 186.118186 182.815914 186.118186 183.675245 
Q 186.118186 184.53102 188.088131 185.020542 
Q 190.063428 185.508879 193.510831 185.508879 
Q 195.432598 185.508879 197.172358 185.383239 
Q 198.912119 185.256414 200.705411 184.986169 
L 200.705411 186.131154 
z
" clip-path="url(#p94c09930d5)" style="fill: #0000ff"/>
   </g>
   <g id="patch_21">
    <path d="M 194.176382 178.625597 
L 186.005322 178.625597 
L 184.715155 180.804486 
L 179.458918 180.804486 
L 186.965346 168.843667 
L 193.198983 168.843667 
L 200.705411 180.804486 
L 195.453518 180.804486 
L 194.176382 178.625597 
z
M 187.308522 176.405694 
L 192.860151 176.405694 
L 190.08868 171.648025 
L 187.308522 176.405694 
z
" clip-path="url(#p94c09930d5)" style="fill: #008000"/>
   </g>
   <g id="patch_22">
    <path d="M 200.705411 166.27897 
Q 198.562667 167.561318 196.258027 168.20542 
Q 193.953388 168.843667 191.496375 168.843667 
Q 185.944288 168.843667 182.701603 165.025899 
Q 179.458918 161.208132 179.458918 154.679282 
Q 179.458918 148.074311 182.758743 144.285821 
Q 186.06333 140.497332 191.810644 140.497332 
Q 194.024813 140.497332 196.053276 141.012613 
Q 198.086502 141.522039 199.886407 142.52918 
L 199.886407 148.17971 
Q 198.029362 146.88565 196.191364 146.247404 
Q 194.353367 145.603302 192.505845 145.603302 
Q 189.086979 145.603302 187.234696 147.957202 
Q 185.382413 150.305245 185.382413 154.679282 
Q 185.382413 159.012331 187.168033 161.377941 
Q 188.953653 163.737696 192.239193 163.737696 
Q 193.134384 163.737696 193.90101 163.60302 
Q 194.667636 163.462489 195.277127 163.169715 
L 195.277127 157.864658 
L 191.777313 157.864658 
L 191.777313 153.139293 
L 200.705411 153.139293 
L 200.705411 166.27897 
z
" clip-path="url(#p94c09930d5)" style="fill: #ffa600"/>
   </g>
   <g id="patch_23">
    <path d="M 223.07014 192.05132 
Q 221.292908 192.144844 219.371141 192.19215 
Q 217.449375 192.24 215.356309 192.24 
Q 209.114583 192.24 205.469115 191.885477 
Q 201.823647 191.530954 201.823647 190.924676 
Q 201.823647 190.316224 205.469115 189.962245 
Q 209.114583 189.607722 215.356309 189.607722 
Q 217.449375 189.607722 219.371141 189.655571 
Q 221.292908 189.702877 223.07014 189.796402 
L 223.07014 190.321118 
Q 221.276848 190.197143 219.537088 190.139506 
Q 217.797327 190.081869 215.875561 190.081869 
Q 212.428158 190.081869 210.45286 190.306436 
Q 208.482916 190.53046 208.482916 190.924676 
Q 208.482916 191.317262 210.45286 191.541829 
Q 212.428158 191.765853 215.875561 191.765853 
Q 217.797327 191.765853 219.537088 191.708216 
Q 221.276848 191.650035 223.07014 191.52606 
L 223.07014 192.05132 
z
" clip-path="url(#p94c09930d5)" style="fill: #0000ff"/>
   </g>
   <g id="patch_24">
    <path d="M 201.823647 186.136362 
L 223.07014 186.136362 
L 223.07014 186.813374 
L 215.426344 186.813374 
L 215.426344 189.607722 
L 209.482267 189.607722 
L 209.482267 186.813374 
L 201.823647 186.813374 
L 201.823647 186.136362 
z
" clip-path="url(#p94c09930d5)" style="fill: #ff0000"/>
   </g>
   <g id="patch_25">
    <path d="M 223.07014 185.781264 
Q 220.927397 185.958813 218.622757 186.047993 
Q 216.318117 186.136362 213.861105 186.136362 
Q 208.309018 186.136362 205.066333 185.607768 
Q 201.823647 185.079173 201.823647 184.175212 
Q 201.823647 183.260711 205.123472 182.73617 
Q 208.428059 182.211629 214.175374 182.211629 
Q 216.389542 182.211629 218.418006 182.282973 
Q 220.451231 182.353506 222.251136 182.492951 
L 222.251136 183.275304 
Q 220.394092 183.096133 218.556094 183.007763 
Q 216.718096 182.918583 214.870575 182.918583 
Q 211.451708 182.918583 209.599426 183.244496 
Q 207.747143 183.569598 207.747143 184.175212 
Q 207.747143 184.77515 209.532763 185.102684 
Q 211.318382 185.429408 214.603922 185.429408 
Q 215.499113 185.429408 216.265739 185.410761 
Q 217.032365 185.391303 217.641857 185.350767 
L 217.641857 184.616248 
L 214.142042 184.616248 
L 214.142042 183.96199 
L 223.07014 183.96199 
L 223.07014 185.781264 
z
" clip-path="url(#p94c09930d5)" style="fill: #ffa600"/>
   </g>
   <g id="patch_26">
    <path d="M 216.541112 180.881548 
L 208.370052 180.881548 
L 207.079885 182.211629 
L 201.823647 182.211629 
L 209.330075 174.910271 
L 215.563712 174.910271 
L 223.07014 182.211629 
L 217.818247 182.211629 
L 216.541112 180.881548 
z
M 209.673251 179.526431 
L 215.22488 179.526431 
L 212.45341 176.622162 
L 209.673251 179.526431 
z
" clip-path="url(#p94c09930d5)" style="fill: #008000"/>
   </g>
   <g id="patch_27">
    <path d="M 245.43487 192.183876 
Q 243.657637 192.211695 241.735871 192.225767 
Q 239.814104 192.24 237.721038 192.24 
Q 231.479312 192.24 227.833845 192.134545 
Q 224.188377 192.029089 224.188377 191.848747 
Q 224.188377 191.667758 227.833845 191.562465 
Q 231.479312 191.457009 237.721038 191.457009 
Q 239.814104 191.457009 241.735871 191.471243 
Q 243.657637 191.485314 245.43487 191.513134 
L 245.43487 191.669214 
Q 243.641578 191.632337 241.901817 191.615192 
Q 240.162057 191.598048 238.24029 191.598048 
Q 234.792887 191.598048 232.81759 191.664847 
Q 230.847645 191.731485 230.847645 191.848747 
Q 230.847645 191.965525 232.81759 192.032324 
Q 234.792887 192.098961 238.24029 192.098961 
Q 240.162057 192.098961 241.901817 192.081817 
Q 243.641578 192.06451 245.43487 192.027633 
L 245.43487 192.183876 
z
" clip-path="url(#p94c09930d5)" style="fill: #0000ff"/>
   </g>
   <g id="patch_28">
    <path d="M 224.188377 190.277111 
L 245.43487 190.277111 
L 245.43487 190.507224 
L 237.791073 190.507224 
L 237.791073 191.457009 
L 231.846996 191.457009 
L 231.846996 190.507224 
L 224.188377 190.507224 
L 224.188377 190.277111 
z
" clip-path="url(#p94c09930d5)" style="fill: #ff0000"/>
   </g>
   <g id="patch_29">
    <path d="M 238.905841 190.045737 
L 230.734781 190.045737 
L 229.444614 190.277111 
L 224.188377 190.277111 
L 231.694805 189.007006 
L 237.928442 189.007006 
L 245.43487 190.277111 
L 240.182976 190.277111 
L 238.905841 190.045737 
z
M 232.037981 189.810008 
L 237.58961 189.810008 
L 234.818139 189.304797 
L 232.037981 189.810008 
z
" clip-path="url(#p94c09930d5)" style="fill: #008000"/>
   </g>
   <g id="patch_30">
    <path d="M 245.43487 188.88148 
Q 243.292126 188.944243 240.987486 188.975768 
Q 238.682847 189.007006 236.225834 189.007006 
Q 230.673747 189.007006 227.431062 188.820151 
Q 224.188377 188.633295 224.188377 188.313749 
Q 224.188377 187.990478 227.488202 187.805056 
Q 230.792789 187.619633 236.540103 187.619633 
Q 238.754271 187.619633 240.782735 187.644853 
Q 242.815961 187.669786 244.615866 187.719079 
L 244.615866 187.995637 
Q 242.758821 187.932301 240.920823 187.901063 
Q 239.082825 187.869538 237.235304 187.869538 
Q 233.816438 187.869538 231.964155 187.984746 
Q 230.111872 188.099668 230.111872 188.313749 
Q 230.111872 188.525825 231.897492 188.641606 
Q 233.683112 188.757101 236.968652 188.757101 
Q 237.863842 188.757101 238.630468 188.75051 
Q 239.397095 188.743632 240.006586 188.729302 
L 240.006586 188.469653 
L 236.506771 188.469653 
L 236.506771 188.238377 
L 245.43487 188.238377 
L 245.43487 188.88148 
z
" clip-path="url(#p94c09930d5)" style="fill: #ffa600"/>
   </g>
   <g id="patch_31">
    <path d="M 267.799599 192.13748 
Q 266.022367 192.188297 264.1006 192.214001 
Q 262.178834 192.24 260.085768 192.24 
Q 253.844042 192.24 250.198574 192.047368 
Q 246.553106 191.854736 246.553106 191.525312 
Q 246.553106 191.194706 250.198574 191.002369 
Q 253.844042 190.809737 260.085768 190.809737 
Q 262.178834 190.809737 264.1006 190.835737 
Q 266.022367 190.861441 267.799599 190.912258 
L 267.799599 191.197365 
Q 266.006307 191.130003 264.266547 191.098685 
Q 262.526786 191.067368 260.60502 191.067368 
Q 257.157617 191.067368 255.182319 191.189388 
Q 253.212375 191.311112 253.212375 191.525312 
Q 253.212375 191.738625 255.182319 191.860645 
Q 257.157617 191.98237 260.60502 191.98237 
Q 262.526786 191.98237 264.266547 191.951052 
Q 266.006307 191.919439 267.799599 191.852077 
L 267.799599 192.13748 
z
" clip-path="url(#p94c09930d5)" style="fill: #0000ff"/>
   </g>
   <g id="patch_32">
    <path d="M 267.799599 190.642151 
Q 265.656856 190.725944 263.352216 190.768032 
Q 261.047576 190.809737 258.590563 190.809737 
Q 253.038477 190.809737 249.795791 190.56027 
Q 246.553106 190.310803 246.553106 189.884184 
Q 246.553106 189.452591 249.852931 189.205037 
Q 253.157518 188.957483 258.904833 188.957483 
Q 261.119001 188.957483 263.147465 188.991153 
Q 265.18069 189.024441 266.980595 189.090252 
L 266.980595 189.459478 
Q 265.123551 189.374919 263.285553 189.333214 
Q 261.447555 189.291126 259.600034 189.291126 
Q 256.181167 189.291126 254.328885 189.444939 
Q 252.476602 189.598368 252.476602 189.884184 
Q 252.476602 190.167322 254.262221 190.321899 
Q 256.047841 190.476094 259.333381 190.476094 
Q 260.228572 190.476094 260.995198 190.467294 
Q 261.761824 190.458111 262.371315 190.43898 
L 262.371315 190.092328 
L 258.871501 190.092328 
L 258.871501 189.783556 
L 267.799599 189.783556 
L 267.799599 190.642151 
z
" clip-path="url(#p94c09930d5)" style="fill: #ffa600"/>
   </g>
   <g id="patch_33">
    <path d="M 246.553106 186.979597 
L 267.799599 186.979597 
L 267.799599 187.36534 
L 260.155803 187.36534 
L 260.155803 188.957483 
L 254.211726 188.957483 
L 254.211726 187.36534 
L 246.553106 187.36534 
L 246.553106 186.979597 
z
" clip-path="url(#p94c09930d5)" style="fill: #ff0000"/>
   </g>
   <g id="patch_34">
    <path d="M 261.270571 186.435026 
L 253.099511 186.435026 
L 251.809343 186.979597 
L 246.553106 186.979597 
L 254.059534 183.99022 
L 260.293171 183.99022 
L 267.799599 186.979597 
L 262.547706 186.979597 
L 261.270571 186.435026 
z
M 254.40271 185.880204 
L 259.954339 185.880204 
L 257.182869 184.691116 
L 254.40271 185.880204 
z
" clip-path="url(#p94c09930d5)" style="fill: #008000"/>
   </g>
   <g id="patch_35">
    <path d="M 290.164329 191.90322 
Q 288.021585 192.07161 285.716945 192.156189 
Q 283.412306 192.24 280.955293 192.24 
Q 275.403206 192.24 272.160521 191.738674 
Q 268.917836 191.237349 268.917836 190.380021 
Q 268.917836 189.512697 272.217661 189.015216 
Q 275.522248 188.517735 281.269562 188.517735 
Q 283.48373 188.517735 285.512194 188.585398 
Q 287.54542 188.652293 289.345324 188.784544 
L 289.345324 189.526537 
Q 287.48828 189.356609 285.650282 189.272799 
Q 283.812284 189.188219 281.964763 189.188219 
Q 278.545897 189.188219 276.693614 189.497319 
Q 274.841331 189.805649 274.841331 190.380021 
Q 274.841331 190.94901 276.626951 191.259647 
Q 278.412571 191.569516 281.698111 191.569516 
Q 282.593301 191.569516 283.359927 191.551831 
Q 284.126553 191.533377 284.736045 191.494932 
L 284.736045 190.798305 
L 281.23623 190.798305 
L 281.23623 190.177799 
L 290.164329 190.177799 
L 290.164329 191.90322 
z
" clip-path="url(#p94c09930d5)" style="fill: #ffa600"/>
   </g>
   <g id="patch_36">
    <path d="M 283.6353 187.639843 
L 275.46424 187.639843 
L 274.174073 188.517735 
L 268.917836 188.517735 
L 276.424264 183.698626 
L 282.657901 183.698626 
L 290.164329 188.517735 
L 284.912435 188.517735 
L 283.6353 187.639843 
z
M 276.76744 186.745426 
L 282.319069 186.745426 
L 279.547598 184.828524 
L 276.76744 186.745426 
z
" clip-path="url(#p94c09930d5)" style="fill: #008000"/>
   </g>
   <g id="patch_37">
    <path d="M 290.164329 183.17588 
Q 288.387096 183.434993 286.46533 183.566056 
Q 284.543563 183.698626 282.450497 183.698626 
Q 276.208771 183.698626 272.563303 182.716405 
Q 268.917836 181.734184 268.917836 180.054466 
Q 268.917836 178.368722 272.563303 177.388007 
Q 276.208771 176.405786 282.450497 176.405786 
Q 284.543563 176.405786 286.46533 176.538356 
Q 288.387096 176.669419 290.164329 176.928533 
L 290.164329 178.38228 
Q 288.371037 178.038804 286.631276 177.879118 
Q 284.891515 177.719431 282.969749 177.719431 
Q 279.522346 177.719431 277.547049 178.341605 
Q 275.577104 178.962272 275.577104 180.054466 
Q 275.577104 181.14214 277.547049 181.764314 
Q 279.522346 182.384981 282.969749 182.384981 
Q 284.891515 182.384981 286.631276 182.225295 
Q 288.371037 182.064102 290.164329 181.720626 
L 290.164329 183.17588 
z
" clip-path="url(#p94c09930d5)" style="fill: #0000ff"/>
   </g>
   <g id="patch_38">
    <path d="M 268.917836 162.35686 
L 290.164329 162.35686 
L 290.164329 165.096792 
L 282.520532 165.096792 
L 282.520532 176.405786 
L 276.576455 176.405786 
L 276.576455 165.096792 
L 268.917836 165.096792 
L 268.917836 162.35686 
z
" clip-path="url(#p94c09930d5)" style="fill: #ff0000"/>
   </g>
   <g id="patch_39">
    <path d="M 312.529058 192.128289 
Q 310.751826 192.183662 308.830059 192.21167 
Q 306.908293 192.24 304.815227 192.24 
Q 298.573501 192.24 294.928033 192.0301 
Q 291.282565 191.820199 291.282565 191.461243 
Q 291.282565 191.101 294.928033 190.891422 
Q 298.573501 190.681521 304.815227 190.681521 
Q 306.908293 190.681521 308.830059 190.709851 
Q 310.751826 190.737859 312.529058 190.793232 
L 312.529058 191.103898 
Q 310.735766 191.030497 308.996006 190.996372 
Q 307.256245 190.962247 305.334478 190.962247 
Q 301.887076 190.962247 299.911778 191.095205 
Q 297.941834 191.227842 297.941834 191.461243 
Q 297.941834 191.693679 299.911778 191.826638 
Q 301.887076 191.959274 305.334478 191.959274 
Q 307.256245 191.959274 308.996006 191.925149 
Q 310.735766 191.890702 312.529058 191.817302 
L 312.529058 192.128289 
z
" clip-path="url(#p94c09930d5)" style="fill: #0000ff"/>
   </g>
   <g id="patch_40">
    <path d="M 312.529058 190.439439 
Q 310.386315 190.56048 308.081675 190.621277 
Q 305.777035 190.681521 303.320022 190.681521 
Q 297.767936 190.681521 294.52525 190.321161 
Q 291.282565 189.960801 291.282565 189.344541 
Q 291.282565 188.721096 294.58239 188.363499 
Q 297.886977 188.005902 303.634291 188.005902 
Q 305.84846 188.005902 307.876924 188.05454 
Q 309.910149 188.102625 311.710054 188.197689 
L 311.710054 188.731044 
Q 309.853009 188.608898 308.015012 188.548653 
Q 306.177014 188.487856 304.329493 188.487856 
Q 300.910626 188.487856 299.058343 188.710042 
Q 297.206061 188.931674 297.206061 189.344541 
Q 297.206061 189.753538 298.99168 189.976829 
Q 300.7773 190.199567 304.06284 190.199567 
Q 304.958031 190.199567 305.724657 190.186855 
Q 306.491283 190.17359 307.100774 190.145955 
L 307.100774 189.645209 
L 303.60096 189.645209 
L 303.60096 189.199181 
L 312.529058 189.199181 
L 312.529058 190.439439 
z
" clip-path="url(#p94c09930d5)" style="fill: #ffa600"/>
   </g>
   <g id="patch_41">
    <path d="M 291.282565 184.249922 
L 312.529058 184.249922 
L 312.529058 184.982443 
L 304.885262 184.982443 
L 304.885262 188.005902 
L 298.941185 188.005902 
L 298.941185 184.982443 
L 291.282565 184.982443 
L 291.282565 184.249922 
z
" clip-path="url(#p94c09930d5)" style="fill: #ff0000"/>
   </g>
   <g id="patch_42">
    <path d="M 306.00003 183.560675 
L 297.82897 183.560675 
L 296.538802 184.249922 
L 291.282565 184.249922 
L 298.788993 180.466358 
L 305.02263 180.466358 
L 312.529058 184.249922 
L 307.277165 184.249922 
L 306.00003 183.560675 
z
M 299.132169 182.858453 
L 304.683798 182.858453 
L 301.912328 181.353461 
L 299.132169 182.858453 
z
" clip-path="url(#p94c09930d5)" style="fill: #008000"/>
   </g>
   <g id="patch_43">
    <path d="M 334.893788 191.645606 
Q 333.116555 191.940234 331.194789 192.08926 
Q 329.273022 192.24 327.179956 192.24 
Q 320.93823 192.24 317.292762 191.123156 
Q 313.647295 190.006312 313.647295 188.096372 
Q 313.647295 186.17958 317.292762 185.064449 
Q 320.93823 183.947606 327.179956 183.947606 
Q 329.273022 183.947606 331.194789 184.098345 
Q 333.116555 184.247372 334.893788 184.541999 
L 334.893788 186.194997 
Q 333.100496 185.804444 331.360735 185.622871 
Q 329.620974 185.441299 327.699208 185.441299 
Q 324.251805 185.441299 322.276508 186.148747 
Q 320.306563 186.854483 320.306563 188.096372 
Q 320.306563 189.333123 322.276508 190.040571 
Q 324.251805 190.746307 327.699208 190.746307 
Q 329.620974 190.746307 331.360735 190.564734 
Q 333.100496 190.381448 334.893788 189.990896 
L 334.893788 191.645606 
z
" clip-path="url(#p94c09930d5)" style="fill: #0000ff"/>
   </g>
   <g id="patch_44">
    <path d="M 328.364759 181.905476 
L 320.193699 181.905476 
L 318.903532 183.947606 
L 313.647295 183.947606 
L 321.153723 172.737517 
L 327.387359 172.737517 
L 334.893788 183.947606 
L 329.641894 183.947606 
L 328.364759 181.905476 
z
M 321.496899 179.824907 
L 327.048528 179.824907 
L 324.277057 175.365857 
L 321.496899 179.824907 
z
" clip-path="url(#p94c09930d5)" style="fill: #008000"/>
   </g>
   <g id="patch_45">
    <path d="M 313.647295 161.47624 
L 334.893788 161.47624 
L 334.893788 163.672503 
L 327.249991 163.672503 
L 327.249991 172.737517 
L 321.305914 172.737517 
L 321.305914 163.672503 
L 313.647295 163.672503 
L 313.647295 161.47624 
z
" clip-path="url(#p94c09930d5)" style="fill: #ff0000"/>
   </g>
   <g id="patch_46">
    <path d="M 334.893788 152.39887 
Q 332.751044 156.937555 330.446404 159.21726 
Q 328.141764 161.47624 325.684752 161.47624 
Q 320.132665 161.47624 316.88998 147.963808 
Q 313.647295 134.451376 313.647295 111.343459 
Q 313.647295 87.966123 316.94712 74.557314 
Q 320.251706 61.148504 325.999021 61.148504 
Q 328.213189 61.148504 330.241653 62.972268 
Q 332.274879 64.775308 334.074783 68.339937 
L 334.074783 88.339165 
Q 332.217739 83.759031 330.379741 81.500051 
Q 328.541743 79.220346 326.694222 79.220346 
Q 323.275356 79.220346 321.423073 87.551631 
Q 319.57079 95.862191 319.57079 111.343459 
Q 319.57079 126.679655 321.35641 135.052389 
Q 323.142029 143.404399 326.42757 143.404399 
Q 327.32276 143.404399 328.089386 142.927733 
Q 328.856012 142.430343 329.465504 141.394113 
L 329.465504 122.617636 
L 325.965689 122.617636 
L 325.965689 105.892892 
L 334.893788 105.892892 
L 334.893788 152.39887 
z
" clip-path="url(#p94c09930d5)" style="fill: #ffa600"/>
   </g>
   <g id="patch_47">
    <path d="M 357.258517 192.11779 
Q 355.115773 192.178895 352.811134 192.209587 
Q 350.506494 192.24 348.049481 192.24 
Q 342.497395 192.24 339.254709 192.05808 
Q 336.012024 191.876159 336.012024 191.565054 
Q 336.012024 191.25032 339.311849 191.069795 
Q 342.616436 190.88927 348.36375 190.88927 
Q 350.577919 190.88927 352.606383 190.913824 
Q 354.639608 190.938098 356.439513 190.98609 
L 356.439513 191.255343 
Q 354.582468 191.19368 352.744471 191.163266 
Q 350.906473 191.132574 349.058952 191.132574 
Q 345.640085 191.132574 343.787802 191.24474 
Q 341.93552 191.356627 341.93552 191.565054 
Q 341.93552 191.771527 343.721139 191.884251 
Q 345.506759 191.996696 348.792299 191.996696 
Q 349.68749 191.996696 350.454116 191.990278 
Q 351.220742 191.983582 351.830233 191.969631 
L 351.830233 191.71684 
L 348.330419 191.71684 
L 348.330419 191.491672 
L 357.258517 191.491672 
L 357.258517 192.11779 
z
" clip-path="url(#p94c09930d5)" style="fill: #ffa600"/>
   </g>
   <g id="patch_48">
    <path d="M 357.258517 190.719304 
Q 355.481285 190.803552 353.559518 190.846166 
Q 351.637752 190.88927 349.544686 190.88927 
Q 343.30296 190.88927 339.657492 190.56991 
Q 336.012024 190.25055 336.012024 189.704405 
Q 336.012024 189.156301 339.657492 188.837431 
Q 343.30296 188.518071 349.544686 188.518071 
Q 351.637752 188.518071 353.559518 188.561175 
Q 355.481285 188.603789 357.258517 188.688037 
L 357.258517 189.16071 
Q 355.465225 189.049031 353.725465 188.997111 
Q 351.985704 188.945191 350.063937 188.945191 
Q 346.616535 188.945191 344.641237 189.147485 
Q 342.671293 189.349289 342.671293 189.704405 
Q 342.671293 190.058052 344.641237 190.260346 
Q 346.616535 190.462151 350.063937 190.462151 
Q 351.985704 190.462151 353.725465 190.41023 
Q 355.465225 190.35782 357.258517 190.246142 
L 357.258517 190.719304 
z
" clip-path="url(#p94c09930d5)" style="fill: #0000ff"/>
   </g>
   <g id="patch_49">
    <path d="M 350.729488 188.050961 
L 342.558429 188.050961 
L 341.268261 188.518071 
L 336.012024 188.518071 
L 343.518452 185.953911 
L 349.752089 185.953911 
L 357.258517 188.518071 
L 352.006624 188.518071 
L 350.729488 188.050961 
z
M 343.861628 187.575058 
L 349.413257 187.575058 
L 346.641787 186.555109 
L 343.861628 187.575058 
z
" clip-path="url(#p94c09930d5)" style="fill: #008000"/>
   </g>
   <g id="patch_50">
    <path d="M 336.012024 182.73665 
L 357.258517 182.73665 
L 357.258517 183.364105 
L 349.614721 183.364105 
L 349.614721 185.953911 
L 343.670644 185.953911 
L 343.670644 183.364105 
L 336.012024 183.364105 
L 336.012024 182.73665 
z
" clip-path="url(#p94c09930d5)" style="fill: #ff0000"/>
   </g>
   <g id="patch_51">
    <path d="M 373.094218 190.470847 
L 364.923158 190.470847 
L 363.632991 192.24 
L 358.376754 192.24 
L 365.883182 182.52839 
L 372.116818 182.52839 
L 379.623246 192.24 
L 374.371353 192.24 
L 373.094218 190.470847 
z
M 366.226357 188.668392 
L 371.777987 188.668392 
L 369.006516 184.805394 
L 366.226357 188.668392 
z
" clip-path="url(#p94c09930d5)" style="fill: #008000"/>
   </g>
   <g id="patch_52">
    <path d="M 379.623246 181.635307 
Q 377.480503 182.081849 375.175863 182.306139 
Q 372.871223 182.52839 370.414211 182.52839 
Q 364.862124 182.52839 361.619439 181.19896 
Q 358.376754 179.86953 358.376754 177.596041 
Q 358.376754 175.296045 361.676579 173.976809 
Q 364.981165 172.657574 370.72848 172.657574 
Q 372.942648 172.657574 374.971112 172.837006 
Q 377.004338 173.0144 378.804242 173.365108 
L 378.804242 175.332747 
Q 376.947198 174.882127 375.1092 174.659875 
Q 373.271202 174.435585 371.423681 174.435585 
Q 368.004815 174.435585 366.152532 175.255264 
Q 364.300249 176.072905 364.300249 177.596041 
Q 364.300249 179.104903 366.085869 179.928661 
Q 367.871488 180.750379 371.157029 180.750379 
Q 372.052219 180.750379 372.818845 180.703482 
Q 373.585471 180.654546 374.194963 180.552596 
L 374.194963 178.705259 
L 370.695148 178.705259 
L 370.695148 177.059783 
L 379.623246 177.059783 
L 379.623246 181.635307 
z
" clip-path="url(#p94c09930d5)" style="fill: #ffa600"/>
   </g>
   <g id="patch_53">
    <path d="M 379.623246 171.873961 
Q 377.846014 172.26238 375.924248 172.458848 
Q 374.002481 172.657574 371.909415 172.657574 
Q 365.667689 172.657574 362.022221 171.185194 
Q 358.376754 169.712814 358.376754 167.194864 
Q 358.376754 164.667881 362.022221 163.197759 
Q 365.667689 161.725379 371.909415 161.725379 
Q 374.002481 161.725379 375.924248 161.924105 
Q 377.846014 162.120573 379.623246 162.508993 
L 379.623246 164.688205 
Q 377.829955 164.173324 376.090194 163.933949 
Q 374.350433 163.694574 372.428667 163.694574 
Q 368.981264 163.694574 367.005967 164.627232 
Q 365.036022 165.557632 365.036022 167.194864 
Q 365.036022 168.825321 367.005967 169.757979 
Q 368.981264 170.688379 372.428667 170.688379 
Q 374.350433 170.688379 376.090194 170.449004 
Q 377.829955 170.207371 379.623246 169.69249 
L 379.623246 171.873961 
z
" clip-path="url(#p94c09930d5)" style="fill: #0000ff"/>
   </g>
   <g id="patch_54">
    <path d="M 358.376754 56.330533 
L 379.623246 56.330533 
L 379.623246 76.885465 
L 371.97945 76.885465 
L 371.97945 161.725379 
L 366.035373 161.725379 
L 366.035373 76.885465 
L 358.376754 76.885465 
L 358.376754 56.330533 
z
" clip-path="url(#p94c09930d5)" style="fill: #ff0000"/>
   </g>
   <g id="patch_55">
    <path d="M 380.741483 186.307926 
L 401.987976 186.307926 
L 401.987976 187.464846 
L 394.34418 187.464846 
L 394.34418 192.24 
L 388.400103 192.24 
L 388.400103 187.464846 
L 380.741483 187.464846 
L 380.741483 186.307926 
z
" clip-path="url(#p94c09930d5)" style="fill: #ff0000"/>
   </g>
   <g id="patch_56">
    <path d="M 395.458947 185.197186 
L 387.287888 185.197186 
L 385.99772 186.307926 
L 380.741483 186.307926 
L 388.247911 180.210614 
L 394.481548 180.210614 
L 401.987976 186.307926 
L 396.736083 186.307926 
L 395.458947 185.197186 
z
M 388.591087 184.065537 
L 394.142716 184.065537 
L 391.371245 181.640202 
L 388.591087 184.065537 
z
" clip-path="url(#p94c09930d5)" style="fill: #008000"/>
   </g>
   <g id="patch_57">
    <path d="M 401.987976 179.665779 
Q 400.210743 179.935841 398.288977 180.072442 
Q 396.367211 180.210614 394.274145 180.210614 
Q 388.032419 180.210614 384.386951 179.186891 
Q 380.741483 178.163168 380.741483 176.412476 
Q 380.741483 174.655503 384.386951 173.633351 
Q 388.032419 172.609628 394.274145 172.609628 
Q 396.367211 172.609628 398.288977 172.747799 
Q 400.210743 172.8844 401.987976 173.154462 
L 401.987976 174.669635 
Q 400.194684 174.311646 398.454923 174.145212 
Q 396.715163 173.978779 394.793396 173.978779 
Q 391.345994 173.978779 389.370696 174.627241 
Q 387.400752 175.274134 387.400752 176.412476 
Q 387.400752 177.546108 389.370696 178.19457 
Q 391.345994 178.841463 394.793396 178.841463 
Q 396.715163 178.841463 398.454923 178.675029 
Q 400.194684 178.507025 401.987976 178.149036 
L 401.987976 179.665779 
z
" clip-path="url(#p94c09930d5)" style="fill: #0000ff"/>
   </g>
   <g id="patch_58">
    <path d="M 401.987976 170.556946 
Q 399.845232 171.583287 397.540593 172.0988 
Q 395.235953 172.609628 392.77894 172.609628 
Q 387.226854 172.609628 383.984168 169.554037 
Q 380.741483 166.498447 380.741483 161.273012 
Q 380.741483 155.986653 384.041308 152.954495 
Q 387.345895 149.922337 393.093209 149.922337 
Q 395.307378 149.922337 397.335842 150.334748 
Q 399.369067 150.742472 401.168972 151.548548 
L 401.168972 156.07101 
Q 399.311927 155.035296 397.473929 154.524469 
Q 395.635932 154.008955 393.788411 154.008955 
Q 390.369544 154.008955 388.517261 155.892923 
Q 386.664979 157.772205 386.664979 161.273012 
Q 386.664979 164.741013 388.450598 166.634355 
Q 390.236218 168.52301 393.521758 168.52301 
Q 394.416949 168.52301 395.183575 168.41522 
Q 395.950201 168.302745 396.559692 168.06842 
L 396.559692 163.822462 
L 393.059878 163.822462 
L 393.059878 160.040466 
L 401.987976 160.040466 
L 401.987976 170.556946 
z
" clip-path="url(#p94c09930d5)" style="fill: #ffa600"/>
   </g>
   <g id="patch_59">
    <path d="M 424.352705 192.078776 
Q 422.209962 192.159388 419.905322 192.199878 
Q 417.600682 192.24 415.14367 192.24 
Q 409.591583 192.24 406.348898 192.000004 
Q 403.106212 191.760009 403.106212 191.349587 
Q 403.106212 190.934379 406.406038 190.696224 
Q 409.710624 190.458069 415.457939 190.458069 
Q 417.672107 190.458069 419.700571 190.490461 
Q 421.733797 190.522485 423.533701 190.585797 
L 423.533701 190.941005 
Q 421.676657 190.859657 419.838659 190.819535 
Q 418.000661 190.779045 416.15314 190.779045 
Q 412.734274 190.779045 410.881991 190.927017 
Q 409.029708 191.074622 409.029708 191.349587 
Q 409.029708 191.621974 410.815328 191.770683 
Q 412.600947 191.919024 415.886487 191.919024 
Q 416.781678 191.919024 417.548304 191.910558 
Q 418.31493 191.901724 418.924422 191.883319 
L 418.924422 191.549828 
L 415.424607 191.549828 
L 415.424607 191.252779 
L 424.352705 191.252779 
L 424.352705 192.078776 
z
" clip-path="url(#p94c09930d5)" style="fill: #ffa600"/>
   </g>
   <g id="patch_60">
    <path d="M 424.352705 190.252817 
Q 422.575473 190.354555 420.653707 190.406016 
Q 418.73194 190.458069 416.638874 190.458069 
Q 410.397148 190.458069 406.75168 190.072407 
Q 403.106212 189.686746 403.106212 189.027217 
Q 403.106212 188.365323 406.75168 187.980253 
Q 410.397148 187.594591 416.638874 187.594591 
Q 418.73194 187.594591 420.653707 187.646644 
Q 422.575473 187.698105 424.352705 187.799844 
L 424.352705 188.370646 
Q 422.559414 188.235783 420.819653 188.173084 
Q 419.079892 188.110384 417.158126 188.110384 
Q 413.710723 188.110384 411.735425 188.354676 
Q 409.765481 188.598376 409.765481 189.027217 
Q 409.765481 189.454284 411.735425 189.698576 
Q 413.710723 189.942276 417.158126 189.942276 
Q 419.079892 189.942276 420.819653 189.879577 
Q 422.559414 189.816286 424.352705 189.681422 
L 424.352705 190.252817 
z
" clip-path="url(#p94c09930d5)" style="fill: #0000ff"/>
   </g>
   <g id="patch_61">
    <path d="M 403.106212 184.654881 
L 424.352705 184.654881 
L 424.352705 185.228207 
L 416.708909 185.228207 
L 416.708909 187.594591 
L 410.764832 187.594591 
L 410.764832 185.228207 
L 403.106212 185.228207 
L 403.106212 184.654881 
z
" clip-path="url(#p94c09930d5)" style="fill: #ff0000"/>
   </g>
   <g id="patch_62">
    <path d="M 417.823677 183.81384 
L 409.652617 183.81384 
L 408.36245 184.654881 
L 403.106212 184.654881 
L 410.612641 180.03806 
L 416.846277 180.03806 
L 424.352705 184.654881 
L 419.100812 184.654881 
L 417.823677 183.81384 
z
M 410.955816 182.956968 
L 416.507445 182.956968 
L 413.735975 181.120529 
L 410.955816 182.956968 
z
" clip-path="url(#p94c09930d5)" style="fill: #008000"/>
   </g>
   <g id="patch_63">
    <path d="M 446.717435 191.986674 
Q 444.940202 192.112242 443.018436 192.175756 
Q 441.09667 192.24 439.003604 192.24 
Q 432.761877 192.24 429.11641 191.76401 
Q 425.470942 191.288021 425.470942 190.47402 
Q 425.470942 189.657099 429.11641 189.18184 
Q 432.761877 188.70585 439.003604 188.70585 
Q 441.09667 188.70585 443.018436 188.770094 
Q 444.940202 188.833608 446.717435 188.959176 
L 446.717435 189.66367 
Q 444.924143 189.497219 443.184382 189.419834 
Q 441.444622 189.34245 439.522855 189.34245 
Q 436.075452 189.34245 434.100155 189.643958 
Q 432.130211 189.944737 432.130211 190.47402 
Q 432.130211 191.001113 434.100155 191.302622 
Q 436.075452 191.6034 439.522855 191.6034 
Q 441.444622 191.6034 443.184382 191.526016 
Q 444.924143 191.447901 446.717435 191.28145 
L 446.717435 191.986674 
z
" clip-path="url(#p94c09930d5)" style="fill: #0000ff"/>
   </g>
   <g id="patch_64">
    <path d="M 446.717435 188.237194 
Q 444.574691 188.471522 442.270052 188.589221 
Q 439.965412 188.70585 437.508399 188.70585 
Q 431.956312 188.70585 428.713627 188.008216 
Q 425.470942 187.310583 425.470942 186.117543 
Q 425.470942 184.910594 428.770767 184.218311 
Q 432.075354 183.526027 437.822668 183.526027 
Q 440.036837 183.526027 442.0653 183.620186 
Q 444.098526 183.713275 445.898431 183.897314 
L 445.898431 184.929854 
Q 444.041386 184.693386 442.203388 184.576757 
Q 440.365391 184.459059 438.517869 184.459059 
Q 435.099003 184.459059 433.24672 184.889195 
Q 431.394437 185.318261 431.394437 186.117543 
Q 431.394437 186.909336 433.180057 187.341612 
Q 434.965677 187.772818 438.251217 187.772818 
Q 439.146408 187.772818 439.913034 187.748209 
Q 440.67966 187.722529 441.289151 187.669029 
L 441.289151 186.699618 
L 437.789337 186.699618 
L 437.789337 185.836136 
L 446.717435 185.836136 
L 446.717435 188.237194 
z
" clip-path="url(#p94c09930d5)" style="fill: #ffa600"/>
   </g>
   <g id="patch_65">
    <path d="M 440.188406 181.734656 
L 432.017346 181.734656 
L 430.727179 183.526027 
L 425.470942 183.526027 
L 432.97737 173.692457 
L 439.211007 173.692457 
L 446.717435 183.526027 
L 441.465542 183.526027 
L 440.188406 181.734656 
z
M 433.320546 179.909566 
L 438.872175 179.909566 
L 436.100704 175.998056 
L 433.320546 179.909566 
z
" clip-path="url(#p94c09930d5)" style="fill: #008000"/>
   </g>
   <g id="patch_66">
    <path d="M 425.470942 157.694358 
L 446.717435 157.694358 
L 446.717435 160.814433 
L 439.073638 160.814433 
L 439.073638 173.692457 
L 433.129561 173.692457 
L 433.129561 160.814433 
L 425.470942 160.814433 
L 425.470942 157.694358 
z
" clip-path="url(#p94c09930d5)" style="fill: #ff0000"/>
   </g>
   <g id="patch_67">
    <path d="M 447.835671 187.499133 
L 469.082164 187.499133 
L 469.082164 188.423734 
L 461.438368 188.423734 
L 461.438368 192.24 
L 455.494291 192.24 
L 455.494291 188.423734 
L 447.835671 188.423734 
L 447.835671 187.499133 
z
" clip-path="url(#p94c09930d5)" style="fill: #ff0000"/>
   </g>
   <g id="patch_68">
    <path d="M 469.082164 186.786902 
Q 467.304932 187.139939 465.383165 187.31851 
Q 463.461399 187.499133 461.368333 187.499133 
Q 455.126607 187.499133 451.481139 186.160878 
Q 447.835671 184.822623 447.835671 182.534043 
Q 447.835671 180.237253 451.481139 178.901051 
Q 455.126607 177.562796 461.368333 177.562796 
Q 463.461399 177.562796 465.383165 177.743419 
Q 467.304932 177.92199 469.082164 178.275027 
L 469.082164 180.255726 
Q 467.288873 179.787747 465.549112 179.570178 
Q 463.809351 179.352609 461.887585 179.352609 
Q 458.440182 179.352609 456.464884 180.200307 
Q 454.49494 181.045953 454.49494 182.534043 
Q 454.49494 184.015976 456.464884 184.863674 
Q 458.440182 185.70932 461.887585 185.70932 
Q 463.809351 185.70932 465.549112 185.491751 
Q 467.288873 185.272129 469.082164 184.804151 
L 469.082164 186.786902 
z
" clip-path="url(#p94c09930d5)" style="fill: #0000ff"/>
   </g>
   <g id="patch_69">
    <path d="M 462.553136 174.900897 
L 454.382076 174.900897 
L 453.091909 177.562796 
L 447.835671 177.562796 
L 455.342099 162.950535 
L 461.575736 162.950535 
L 469.082164 177.562796 
L 463.830271 177.562796 
L 462.553136 174.900897 
z
M 455.685275 172.188891 
L 461.236904 172.188891 
L 458.465434 166.376556 
L 455.685275 172.188891 
z
" clip-path="url(#p94c09930d5)" style="fill: #008000"/>
   </g>
   <g id="patch_70">
    <path d="M 469.082164 150.552399 
Q 466.939421 156.751467 464.634781 159.865154 
Q 462.330141 162.950535 459.873129 162.950535 
Q 454.321042 162.950535 451.078357 144.494863 
Q 447.835671 126.039191 447.835671 94.477727 
Q 447.835671 62.548282 451.135496 44.234141 
Q 454.440083 25.92 460.187398 25.92 
Q 462.401566 25.92 464.43003 28.41095 
Q 466.463256 30.873593 468.26316 35.742267 
L 468.26316 63.057794 
Q 466.406116 56.802114 464.568118 53.716733 
Q 462.73012 50.603046 460.882599 50.603046 
Q 457.463732 50.603046 455.61145 61.982157 
Q 453.759167 73.332961 453.759167 94.477727 
Q 453.759167 115.424349 455.544787 126.860072 
Q 457.330406 138.267489 460.615946 138.267489 
Q 461.511137 138.267489 462.277763 137.616445 
Q 463.044389 136.937095 463.653881 135.521783 
L 463.653881 109.876324 
L 460.154066 109.876324 
L 460.154066 87.033184 
L 469.082164 87.033184 
L 469.082164 150.552399 
z
" clip-path="url(#p94c09930d5)" style="fill: #ffa600"/>
   </g>
   <g id="patch_71">
    <path d="M 491.446894 191.635974 
Q 489.669661 191.935376 487.747895 192.086818 
Q 485.826128 192.24 483.733062 192.24 
Q 477.491336 192.24 473.845869 191.105058 
Q 470.200401 189.970115 470.200401 188.029224 
Q 470.200401 186.081371 473.845869 184.948169 
Q 477.491336 183.813226 483.733062 183.813226 
Q 485.826128 183.813226 487.747895 183.966409 
Q 489.669661 184.11785 491.446894 184.417252 
L 491.446894 186.097037 
Q 489.653602 185.700155 487.913841 185.51564 
Q 486.174081 185.331125 484.252314 185.331125 
Q 480.804911 185.331125 478.829614 186.050038 
Q 476.859669 186.76721 476.859669 188.029224 
Q 476.859669 189.286016 478.829614 190.004929 
Q 480.804911 190.722101 484.252314 190.722101 
Q 486.174081 190.722101 487.913841 190.537586 
Q 489.653602 190.35133 491.446894 189.954449 
L 491.446894 191.635974 
z
" clip-path="url(#p94c09930d5)" style="fill: #0000ff"/>
   </g>
   <g id="patch_72">
    <path d="M 470.200401 174.845284 
L 491.446894 174.845284 
L 491.446894 176.594282 
L 483.803097 176.594282 
L 483.803097 183.813226 
L 477.85902 183.813226 
L 477.85902 176.594282 
L 470.200401 176.594282 
L 470.200401 174.845284 
z
" clip-path="url(#p94c09930d5)" style="fill: #ff0000"/>
   </g>
   <g id="patch_73">
    <path d="M 491.446894 173.691145 
Q 489.30415 174.268215 486.99951 174.558067 
Q 484.694871 174.845284 482.237858 174.845284 
Q 476.685771 174.845284 473.443086 173.127251 
Q 470.200401 171.409219 470.200401 168.471174 
Q 470.200401 165.498872 473.500226 163.794015 
Q 476.804813 162.089158 482.552127 162.089158 
Q 484.766295 162.089158 486.794759 162.32104 
Q 488.827985 162.550287 490.62789 163.00351 
L 490.62789 165.546303 
Q 488.770845 164.963964 486.932847 164.676747 
Q 485.094849 164.386895 483.247328 164.386895 
Q 479.828462 164.386895 477.976179 165.446172 
Q 476.123896 166.502815 476.123896 168.471174 
Q 476.123896 170.421087 477.909516 171.485635 
Q 479.695136 172.547547 482.980676 172.547547 
Q 483.875866 172.547547 484.642493 172.486942 
Q 485.409119 172.423702 486.01861 172.291951 
L 486.01861 169.904624 
L 482.518796 169.904624 
L 482.518796 167.778164 
L 491.446894 167.778164 
L 491.446894 173.691145 
z
" clip-path="url(#p94c09930d5)" style="fill: #ffa600"/>
   </g>
   <g id="patch_74">
    <path d="M 484.917865 149.547847 
L 476.746805 149.547847 
L 475.456638 162.089158 
L 470.200401 162.089158 
L 477.706829 93.244737 
L 483.940466 93.244737 
L 491.446894 162.089158 
L 486.195001 162.089158 
L 484.917865 149.547847 
z
M 478.050005 136.770464 
L 483.601634 136.770464 
L 480.830163 109.386142 
L 478.050005 136.770464 
z
" clip-path="url(#p94c09930d5)" style="fill: #008000"/>
   </g>
   <g id="patch_75">
    <path d="M 513.811623 192.127055 
Q 512.034391 192.183039 510.112624 192.211357 
Q 508.190858 192.24 506.097792 192.24 
Q 499.856066 192.24 496.210598 192.027781 
Q 492.56513 191.815561 492.56513 191.45264 
Q 492.56513 191.088418 496.210598 190.876524 
Q 499.856066 190.664304 506.097792 190.664304 
Q 508.190858 190.664304 510.112624 190.692948 
Q 512.034391 190.721265 513.811623 190.777249 
L 513.811623 191.091347 
Q 512.018331 191.017135 510.278571 190.982633 
Q 508.53881 190.948131 506.617044 190.948131 
Q 503.169641 190.948131 501.194343 191.082559 
Q 499.224399 191.21666 499.224399 191.45264 
Q 499.224399 191.687644 501.194343 191.822071 
Q 503.169641 191.956173 506.617044 191.956173 
Q 508.53881 191.956173 510.278571 191.921671 
Q 512.018331 191.886844 513.811623 191.812632 
L 513.811623 192.127055 
z
" clip-path="url(#p94c09930d5)" style="fill: #0000ff"/>
   </g>
   <g id="patch_76">
    <path d="M 492.56513 188.114771 
L 513.811623 188.114771 
L 513.811623 188.612001 
L 506.167827 188.612001 
L 506.167827 190.664304 
L 500.22375 190.664304 
L 500.22375 188.612001 
L 492.56513 188.612001 
L 492.56513 188.114771 
z
" clip-path="url(#p94c09930d5)" style="fill: #ff0000"/>
   </g>
   <g id="patch_77">
    <path d="M 507.282595 187.62596 
L 499.111535 187.62596 
L 497.821368 188.114771 
L 492.56513 188.114771 
L 500.071558 185.431491 
L 506.305195 185.431491 
L 513.811623 188.114771 
L 508.55973 188.114771 
L 507.282595 187.62596 
z
M 500.414734 187.127949 
L 505.966363 187.127949 
L 503.194893 186.060618 
L 500.414734 187.127949 
z
" clip-path="url(#p94c09930d5)" style="fill: #008000"/>
   </g>
   <g id="patch_78">
    <path d="M 513.811623 185.07905 
Q 511.66888 185.25527 509.36424 185.343783 
Q 507.0596 185.431491 504.602588 185.431491 
Q 499.050501 185.431491 495.807816 184.906853 
Q 492.56513 184.382216 492.56513 183.485021 
Q 492.56513 182.577366 495.864955 182.056752 
Q 499.169542 181.536137 504.916857 181.536137 
Q 507.131025 181.536137 509.159489 181.606947 
Q 511.192714 181.676953 512.992619 181.815354 
L 512.992619 182.59185 
Q 511.135575 182.41402 509.297577 182.326312 
Q 507.459579 182.2378 505.612058 182.2378 
Q 502.193191 182.2378 500.340909 182.561273 
Q 498.488626 182.883941 498.488626 183.485021 
Q 498.488626 184.080468 500.274245 184.405551 
Q 502.059865 184.729828 505.345405 184.729828 
Q 506.240596 184.729828 507.007222 184.711321 
Q 507.773848 184.692009 508.38334 184.651776 
L 508.38334 183.922755 
L 504.883525 183.922755 
L 504.883525 183.273396 
L 513.811623 183.273396 
L 513.811623 185.07905 
z
" clip-path="url(#p94c09930d5)" style="fill: #ffa600"/>
   </g>
   <g id="patch_79">
    <path d="M 536.176353 191.954139 
Q 534.033609 192.09707 531.728969 192.168861 
Q 529.42433 192.24 526.967317 192.24 
Q 521.41523 192.24 518.172545 191.814472 
Q 514.92986 191.388944 514.92986 190.661239 
Q 514.92986 189.92505 518.229685 189.502785 
Q 521.534272 189.080521 527.281586 189.080521 
Q 529.495754 189.080521 531.524218 189.137954 
Q 533.557444 189.194734 535.357348 189.30699 
L 535.357348 189.936798 
Q 533.500304 189.792562 531.662306 189.721423 
Q 529.824308 189.649632 527.976787 189.649632 
Q 524.557921 189.649632 522.705638 189.911997 
Q 520.853355 190.17371 520.853355 190.661239 
Q 520.853355 191.1442 522.638975 191.407871 
Q 524.424595 191.670889 527.710135 191.670889 
Q 528.605325 191.670889 529.371951 191.655878 
Q 530.138577 191.640215 530.748069 191.607582 
L 530.748069 191.016281 
L 527.248254 191.016281 
L 527.248254 190.489592 
L 536.176353 190.489592 
L 536.176353 191.954139 
z
" clip-path="url(#p94c09930d5)" style="fill: #ffa600"/>
   </g>
   <g id="patch_80">
    <path d="M 536.176353 188.827671 
Q 534.39912 188.953003 532.477354 189.016398 
Q 530.555587 189.080521 528.462521 189.080521 
Q 522.220795 189.080521 518.575328 188.605426 
Q 514.92986 188.130332 514.92986 187.317862 
Q 514.92986 186.502478 518.575328 186.028112 
Q 522.220795 185.553018 528.462521 185.553018 
Q 530.555587 185.553018 532.477354 185.617141 
Q 534.39912 185.680536 536.176353 185.805867 
L 536.176353 186.509036 
Q 534.383061 186.342899 532.6433 186.26566 
Q 530.90354 186.18842 528.981773 186.18842 
Q 525.53437 186.18842 523.559073 186.489362 
Q 521.589128 186.789575 521.589128 187.317862 
Q 521.589128 187.843964 523.559073 188.144905 
Q 525.53437 188.445118 528.981773 188.445118 
Q 530.90354 188.445118 532.6433 188.367879 
Q 534.383061 188.289911 536.176353 188.123774 
L 536.176353 188.827671 
z
" clip-path="url(#p94c09930d5)" style="fill: #0000ff"/>
   </g>
   <g id="patch_81">
    <path d="M 514.92986 181.61333 
L 536.176353 181.61333 
L 536.176353 182.381679 
L 528.532556 182.381679 
L 528.532556 185.553018 
L 522.588479 185.553018 
L 522.588479 182.381679 
L 514.92986 182.381679 
L 514.92986 181.61333 
z
" clip-path="url(#p94c09930d5)" style="fill: #ff0000"/>
   </g>
   <g id="patch_82">
    <path d="M 529.647324 180.115268 
L 521.476264 180.115268 
L 520.186097 181.61333 
L 514.92986 181.61333 
L 522.436288 173.389851 
L 528.669925 173.389851 
L 536.176353 181.61333 
L 530.924459 181.61333 
L 529.647324 180.115268 
z
M 522.779464 178.589007 
L 528.331093 178.589007 
L 525.559622 175.317945 
L 522.779464 178.589007 
z
" clip-path="url(#p94c09930d5)" style="fill: #008000"/>
   </g>
   <g id="patch_83">
    <path d="M 558.541082 191.720836 
Q 556.398339 191.980418 554.093699 192.110802 
Q 551.789059 192.24 549.332046 192.24 
Q 543.77996 192.24 540.537274 191.46718 
Q 537.294589 190.69436 537.294589 189.372743 
Q 537.294589 188.035717 540.594414 187.268824 
Q 543.899001 186.50193 549.646315 186.50193 
Q 551.860484 186.50193 553.888948 186.606237 
Q 555.922173 186.709359 557.722078 186.913232 
L 557.722078 188.057053 
Q 555.865034 187.7951 554.027036 187.665901 
Q 552.189038 187.535518 550.341517 187.535518 
Q 546.92265 187.535518 545.070368 188.012011 
Q 543.218085 188.487319 543.218085 189.372743 
Q 543.218085 190.24987 545.003704 190.728734 
Q 546.789324 191.206413 550.074864 191.206413 
Q 550.970055 191.206413 551.736681 191.17915 
Q 552.503307 191.150703 553.112798 191.091438 
L 553.112798 190.01755 
L 549.612984 190.01755 
L 549.612984 189.061007 
L 558.541082 189.061007 
L 558.541082 191.720836 
z
" clip-path="url(#p94c09930d5)" style="fill: #ffa600"/>
   </g>
   <g id="patch_84">
    <path d="M 552.012054 184.987047 
L 543.840994 184.987047 
L 542.550826 186.50193 
L 537.294589 186.50193 
L 544.801017 178.186111 
L 551.034654 178.186111 
L 558.541082 186.50193 
L 553.289189 186.50193 
L 552.012054 184.987047 
z
M 545.144193 183.443648 
L 550.695822 183.443648 
L 547.924352 180.135855 
L 545.144193 183.443648 
z
" clip-path="url(#p94c09930d5)" style="fill: #008000"/>
   </g>
   <g id="patch_85">
    <path d="M 558.541082 177.561953 
Q 556.76385 177.871334 554.842083 178.027823 
Q 552.920317 178.186111 550.827251 178.186111 
Q 544.585525 178.186111 540.940057 177.013341 
Q 537.294589 175.840571 537.294589 173.834991 
Q 537.294589 171.822215 540.940057 170.651244 
Q 544.585525 169.478474 550.827251 169.478474 
Q 552.920317 169.478474 554.842083 169.636762 
Q 556.76385 169.793251 558.541082 170.102632 
L 558.541082 171.838404 
Q 556.74779 171.428294 555.00803 171.237629 
Q 553.268269 171.046964 551.346503 171.046964 
Q 547.8991 171.046964 545.923802 171.789838 
Q 543.953858 172.530914 543.953858 173.834991 
Q 543.953858 175.133671 545.923802 175.876546 
Q 547.8991 176.617621 551.346503 176.617621 
Q 553.268269 176.617621 555.00803 176.426956 
Q 556.74779 176.234492 558.541082 175.824383 
L 558.541082 177.561953 
z
" clip-path="url(#p94c09930d5)" style="fill: #0000ff"/>
   </g>
   <g id="patch_86">
    <path d="M 537.294589 139.427073 
L 558.541082 139.427073 
L 558.541082 145.287933 
L 550.897286 145.287933 
L 550.897286 169.478474 
L 544.953209 169.478474 
L 544.953209 145.287933 
L 537.294589 145.287933 
L 537.294589 139.427073 
z
" clip-path="url(#p94c09930d5)" style="fill: #ff0000"/>
   </g>
   <g id="patch_87">
    <path d="M 574.376783 191.996904 
L 566.205723 191.996904 
L 564.915556 192.24 
L 559.659319 192.24 
L 567.165747 190.905547 
L 573.399384 190.905547 
L 580.905812 192.24 
L 575.653918 192.24 
L 574.376783 191.996904 
z
M 567.508923 191.749233 
L 573.060552 191.749233 
L 570.289081 191.218426 
L 567.508923 191.749233 
z
" clip-path="url(#p94c09930d5)" style="fill: #008000"/>
   </g>
   <g id="patch_88">
    <path d="M 580.905812 190.787237 
Q 579.128579 190.845881 577.206813 190.875543 
Q 575.285046 190.905547 573.19198 190.905547 
Q 566.950254 190.905547 563.304786 190.683247 
Q 559.659319 190.460946 559.659319 190.080785 
Q 559.659319 189.69926 563.304786 189.477301 
Q 566.950254 189.255001 573.19198 189.255001 
Q 575.285046 189.255001 577.206813 189.285004 
Q 579.128579 189.314667 580.905812 189.373311 
L 580.905812 189.702329 
Q 579.11252 189.624592 577.372759 189.588451 
Q 575.632998 189.55231 573.711232 189.55231 
Q 570.263829 189.55231 568.288532 189.693123 
Q 566.318587 189.833595 566.318587 190.080785 
Q 566.318587 190.326952 568.288532 190.467765 
Q 570.263829 190.608237 573.711232 190.608237 
Q 575.632998 190.608237 577.372759 190.572097 
Q 579.11252 190.535615 580.905812 190.457878 
L 580.905812 190.787237 
z
" clip-path="url(#p94c09930d5)" style="fill: #0000ff"/>
   </g>
   <g id="patch_89">
    <path d="M 580.905812 189.078414 
Q 578.763068 189.166707 576.458428 189.211055 
Q 574.153789 189.255001 571.696776 189.255001 
Q 566.144689 189.255001 562.902004 188.992136 
Q 559.659319 188.729271 559.659319 188.27974 
Q 559.659319 187.824968 562.959144 187.564119 
Q 566.263731 187.30327 572.011045 187.30327 
Q 574.225213 187.30327 576.253677 187.338749 
Q 578.286903 187.373824 580.086807 187.443169 
L 580.086807 187.832225 
Q 578.229763 187.743125 576.391765 187.69918 
Q 574.553767 187.654832 572.706246 187.654832 
Q 569.28738 187.654832 567.435097 187.816905 
Q 565.582814 187.978575 565.582814 188.27974 
Q 565.582814 188.578084 567.368434 188.740963 
Q 569.154054 188.903439 572.439594 188.903439 
Q 573.334784 188.903439 574.10141 188.894166 
Q 574.868036 188.88449 575.477528 188.864332 
L 575.477528 188.499063 
L 571.977713 188.499063 
L 571.977713 188.173707 
L 580.905812 188.173707 
L 580.905812 189.078414 
z
" clip-path="url(#p94c09930d5)" style="fill: #ffa600"/>
   </g>
   <g id="patch_90">
    <path d="M 559.659319 184.603053 
L 580.905812 184.603053 
L 580.905812 185.129671 
L 573.262015 185.129671 
L 573.262015 187.30327 
L 567.317938 187.30327 
L 567.317938 185.129671 
L 559.659319 185.129671 
L 559.659319 184.603053 
z
" clip-path="url(#p94c09930d5)" style="fill: #ff0000"/>
   </g>
   <g id="patch_91">
    <path d="M 603.270541 192.117196 
Q 601.493309 192.178067 599.571542 192.208857 
Q 597.649776 192.24 595.55671 192.24 
Q 589.314984 192.24 585.669516 192.009256 
Q 582.024048 191.778511 582.024048 191.38391 
Q 582.024048 190.987894 585.669516 190.757504 
Q 589.314984 190.526759 595.55671 190.526759 
Q 597.649776 190.526759 599.571542 190.557903 
Q 601.493309 190.588692 603.270541 190.649563 
L 603.270541 190.991079 
Q 601.477249 190.910389 599.737489 190.872876 
Q 597.997728 190.835362 596.075961 190.835362 
Q 592.628559 190.835362 590.653261 190.981524 
Q 588.683317 191.127331 588.683317 191.38391 
Q 588.683317 191.639428 590.653261 191.78559 
Q 592.628559 191.931397 596.075961 191.931397 
Q 597.997728 191.931397 599.737489 191.893884 
Q 601.477249 191.856016 603.270541 191.775326 
L 603.270541 192.117196 
z
" clip-path="url(#p94c09930d5)" style="fill: #0000ff"/>
   </g>
   <g id="patch_92">
    <path d="M 582.024048 188.805984 
L 603.270541 188.805984 
L 603.270541 189.141583 
L 595.626745 189.141583 
L 595.626745 190.526759 
L 589.682668 190.526759 
L 589.682668 189.141583 
L 582.024048 189.141583 
L 582.024048 188.805984 
z
" clip-path="url(#p94c09930d5)" style="fill: #ff0000"/>
   </g>
   <g id="patch_93">
    <path d="M 603.270541 188.540534 
Q 601.127798 188.673259 598.823158 188.739924 
Q 596.518518 188.805984 594.061505 188.805984 
Q 588.509419 188.805984 585.266733 188.410839 
Q 582.024048 188.015694 582.024048 187.339948 
Q 582.024048 186.656323 585.323873 186.264209 
Q 588.62846 185.872094 594.375774 185.872094 
Q 596.589943 185.872094 598.618407 185.925427 
Q 600.651632 185.978153 602.451537 186.082394 
L 602.451537 186.667232 
Q 600.594492 186.533295 598.756495 186.467236 
Q 596.918497 186.40057 595.070976 186.40057 
Q 591.652109 186.40057 589.799826 186.644202 
Q 587.947544 186.887228 587.947544 187.339948 
Q 587.947544 187.788425 589.733163 188.03327 
Q 591.518783 188.277508 594.804323 188.277508 
Q 595.699514 188.277508 596.46614 188.263569 
Q 597.232766 188.249023 597.842257 188.218721 
L 597.842257 187.669639 
L 594.342443 187.669639 
L 594.342443 187.180557 
L 603.270541 187.180557 
L 603.270541 188.540534 
z
" clip-path="url(#p94c09930d5)" style="fill: #ffa600"/>
   </g>
   <g id="patch_94">
    <path d="M 596.741512 185.27449 
L 588.570453 185.27449 
L 587.280285 185.872094 
L 582.024048 185.872094 
L 589.530476 182.591601 
L 595.764113 182.591601 
L 603.270541 185.872094 
L 598.018648 185.872094 
L 596.741512 185.27449 
z
M 589.873652 184.665638 
L 595.425281 184.665638 
L 592.653811 183.360752 
L 589.873652 184.665638 
z
" clip-path="url(#p94c09930d5)" style="fill: #008000"/>
   </g>
   <g id="patch_95">
    <path d="M 625.635271 192.120779 
Q 623.858038 192.179874 621.936272 192.209765 
Q 620.014505 192.24 617.921439 192.24 
Q 611.679713 192.24 608.034245 192.015988 
Q 604.388778 191.791977 604.388778 191.408889 
Q 604.388778 191.024428 608.034245 190.80076 
Q 611.679713 190.576748 617.921439 190.576748 
Q 620.014505 190.576748 621.936272 190.606983 
Q 623.858038 190.636874 625.635271 190.695969 
L 625.635271 191.02752 
Q 623.841979 190.949184 622.102218 190.912765 
Q 620.362457 190.876346 618.440691 190.876346 
Q 614.993288 190.876346 613.017991 191.018243 
Q 611.048046 191.159797 611.048046 191.408889 
Q 611.048046 191.656951 613.017991 191.798848 
Q 614.993288 191.940402 618.440691 191.940402 
Q 620.362457 191.940402 622.102218 191.903983 
Q 623.841979 191.86722 625.635271 191.788885 
L 625.635271 192.120779 
z
" clip-path="url(#p94c09930d5)" style="fill: #0000ff"/>
   </g>
   <g id="patch_96">
    <path d="M 625.635271 190.392619 
Q 623.492527 190.484684 621.187887 190.530926 
Q 618.883247 190.576748 616.426235 190.576748 
Q 610.874148 190.576748 607.631463 190.302657 
Q 604.388778 190.028566 604.388778 189.559836 
Q 604.388778 189.085641 607.688603 188.813652 
Q 610.993189 188.541663 616.740504 188.541663 
Q 618.954672 188.541663 620.983136 188.578657 
Q 623.016362 188.61523 624.816266 188.687537 
L 624.816266 189.093208 
Q 622.959222 189.000303 621.121224 188.954481 
Q 619.283226 188.908239 617.435705 188.908239 
Q 614.016839 188.908239 612.164556 189.077234 
Q 610.312273 189.245808 610.312273 189.559836 
Q 610.312273 189.870921 612.097893 190.040757 
Q 613.883512 190.210172 617.169053 190.210172 
Q 618.064243 190.210172 618.830869 190.200503 
Q 619.597495 190.190414 620.206987 190.169395 
L 620.206987 189.788526 
L 616.707172 189.788526 
L 616.707172 189.449275 
L 625.635271 189.449275 
L 625.635271 190.392619 
z
" clip-path="url(#p94c09930d5)" style="fill: #ffa600"/>
   </g>
   <g id="patch_97">
    <path d="M 619.106242 188.019437 
L 610.935182 188.019437 
L 609.645015 188.541663 
L 604.388778 188.541663 
L 611.895206 185.674952 
L 618.128842 185.674952 
L 625.635271 188.541663 
L 620.383377 188.541663 
L 619.106242 188.019437 
z
M 612.238381 187.487382 
L 617.790011 187.487382 
L 615.01854 186.347087 
L 612.238381 187.487382 
z
" clip-path="url(#p94c09930d5)" style="fill: #008000"/>
   </g>
   <g id="patch_98">
    <path d="M 604.388778 182.000604 
L 625.635271 182.000604 
L 625.635271 182.717204 
L 617.991474 182.717204 
L 617.991474 185.674952 
L 612.047397 185.674952 
L 612.047397 182.717204 
L 604.388778 182.717204 
L 604.388778 182.000604 
z
" clip-path="url(#p94c09930d5)" style="fill: #ff0000"/>
   </g>
   <g id="patch_99">
    <path d="M 641.470971 191.920103 
L 633.299912 191.920103 
L 632.009744 192.24 
L 626.753507 192.24 
L 634.259935 190.483956 
L 640.493572 190.483956 
L 648 192.24 
L 642.748107 192.24 
L 641.470971 191.920103 
z
M 634.603111 191.594185 
L 640.15474 191.594185 
L 637.38327 190.895681 
L 634.603111 191.594185 
z
" clip-path="url(#p94c09930d5)" style="fill: #008000"/>
   </g>
   <g id="patch_100">
    <path d="M 648 190.355446 
Q 646.222768 190.419145 644.301001 190.451365 
Q 642.379235 190.483956 640.286169 190.483956 
Q 634.044443 190.483956 630.398975 190.242491 
Q 626.753507 190.001026 626.753507 189.588092 
Q 626.753507 189.173677 630.398975 188.932583 
Q 634.044443 188.691118 640.286169 188.691118 
Q 642.379235 188.691118 644.301001 188.723708 
Q 646.222768 188.755928 648 188.819627 
L 648 189.17701 
Q 646.206708 189.092571 644.466948 189.053315 
Q 642.727187 189.014058 640.80542 189.014058 
Q 637.358018 189.014058 635.38272 189.167011 
Q 633.412776 189.319593 633.412776 189.588092 
Q 633.412776 189.855481 635.38272 190.008433 
Q 637.358018 190.161015 640.80542 190.161015 
Q 642.727187 190.161015 644.466948 190.121759 
Q 646.206708 190.082132 648 189.997693 
L 648 190.355446 
z
" clip-path="url(#p94c09930d5)" style="fill: #0000ff"/>
   </g>
   <g id="patch_101">
    <path d="M 648 188.527999 
Q 645.857256 188.609559 643.552617 188.650524 
Q 641.247977 188.691118 638.790964 188.691118 
Q 633.238878 188.691118 629.996192 188.448302 
Q 626.753507 188.205486 626.753507 187.79024 
Q 626.753507 187.370154 630.053332 187.1292 
Q 633.357919 186.888246 639.105233 186.888246 
Q 641.319402 186.888246 643.347866 186.921018 
Q 645.381091 186.953419 647.180996 187.017474 
L 647.180996 187.376857 
Q 645.323951 187.294553 643.485954 187.253959 
Q 641.647956 187.212994 639.800435 187.212994 
Q 636.381568 187.212994 634.529285 187.362705 
Q 632.677003 187.512045 632.677003 187.79024 
Q 632.677003 188.065829 634.462622 188.216286 
Q 636.248242 188.36637 639.533782 188.36637 
Q 640.428973 188.36637 641.195599 188.357804 
Q 641.962225 188.348866 642.571716 188.330246 
L 642.571716 187.992835 
L 639.071902 187.992835 
L 639.071902 187.692295 
L 648 187.692295 
L 648 188.527999 
z
" clip-path="url(#p94c09930d5)" style="fill: #ffa600"/>
   </g>
   <g id="patch_102">
    <path d="M 626.753507 183.673848 
L 648 183.673848 
L 648 184.300745 
L 640.356204 184.300745 
L 640.356204 186.888246 
L 634.412127 186.888246 
L 634.412127 184.300745 
L 626.753507 184.300745 
L 626.753507 183.673848 
z
" clip-path="url(#p94c09930d5)" style="fill: #ff0000"/>
   </g>
   <g id="matplotlib.axis_1">
    <g id="xtick_1">
     <g id="line2d_2">
      <defs>
       <path id="m9a43345286" d="M 0 0 
L 0 3.5 
" style="stroke: #000000; stroke-width: 0.8"/>
      </defs>
      <g>
       <use xlink:href="#m9a43345286" x="100.623246" y="192.24" style="stroke: #000000; stroke-width: 0.8"/>
      </g>
     </g>
     <g id="text_1">
      <!-- 0 -->
      <g transform="translate(97.441996 206.838437) scale(0.1 -0.1)">
       <defs>
        <path id="DejaVuSans-30" d="M 2034 4250 
Q 1547 4250 1301 3770 
Q 1056 3291 1056 2328 
Q 1056 1369 1301 889 
Q 1547 409 2034 409 
Q 2525 409 2770 889 
Q 3016 1369 3016 2328 
Q 3016 3291 2770 3770 
Q 2525 4250 2034 4250 
z
M 2034 4750 
Q 2819 4750 3233 4129 
Q 3647 3509 3647 2328 
Q 3647 1150 3233 529 
Q 2819 -91 2034 -91 
Q 1250 -91 836 529 
Q 422 1150 422 2328 
Q 422 3509 836 4129 
Q 1250 4750 2034 4750 
z
" transform="scale(0.015625)"/>
       </defs>
       <use xlink:href="#DejaVuSans-30"/>
      </g>
     </g>
    </g>
    <g id="xtick_2">
     <g id="line2d_3">
      <g>
       <use xlink:href="#m9a43345286" x="212.446894" y="192.24" style="stroke: #000000; stroke-width: 0.8"/>
      </g>
     </g>
     <g id="text_2">
      <!-- 5 -->
      <g transform="translate(209.265644 206.838437) scale(0.1 -0.1)">
       <defs>
        <path id="DejaVuSans-35" d="M 691 4666 
L 3169 4666 
L 3169 4134 
L 1269 4134 
L 1269 2991 
Q 1406 3038 1543 3061 
Q 1681 3084 1819 3084 
Q 2600 3084 3056 2656 
Q 3513 2228 3513 1497 
Q 3513 744 3044 326 
Q 2575 -91 1722 -91 
Q 1428 -91 1123 -41 
Q 819 9 494 109 
L 494 744 
Q 775 591 1075 516 
Q 1375 441 1709 441 
Q 2250 441 2565 725 
Q 2881 1009 2881 1497 
Q 2881 1984 2565 2268 
Q 2250 2553 1709 2553 
Q 1456 2553 1204 2497 
Q 953 2441 691 2322 
L 691 4666 
z
" transform="scale(0.015625)"/>
       </defs>
       <use xlink:href="#DejaVuSans-35"/>
      </g>
     </g>
    </g>
    <g id="xtick_3">
     <g id="line2d_4">
      <g>
       <use xlink:href="#m9a43345286" x="324.270541" y="192.24" style="stroke: #000000; stroke-width: 0.8"/>
      </g>
     </g>
     <g id="text_3">
      <!-- 10 -->
      <g transform="translate(317.908041 206.838437) scale(0.1 -0.1)">
       <defs>
        <path id="DejaVuSans-31" d="M 794 531 
L 1825 531 
L 1825 4091 
L 703 3866 
L 703 4441 
L 1819 4666 
L 2450 4666 
L 2450 531 
L 3481 531 
L 3481 0 
L 794 0 
L 794 531 
z
" transform="scale(0.015625)"/>
       </defs>
       <use xlink:href="#DejaVuSans-31"/>
       <use xlink:href="#DejaVuSans-30" x="63.623047"/>
      </g>
     </g>
    </g>
    <g id="xtick_4">
     <g id="line2d_5">
      <g>
       <use xlink:href="#m9a43345286" x="436.094188" y="192.24" style="stroke: #000000; stroke-width: 0.8"/>
      </g>
     </g>
     <g id="text_4">
      <!-- 15 -->
      <g transform="translate(429.731688 206.838437) scale(0.1 -0.1)">
       <use xlink:href="#DejaVuSans-31"/>
       <use xlink:href="#DejaVuSans-35" x="63.623047"/>
      </g>
     </g>
    </g>
    <g id="xtick_5">
     <g id="line2d_6">
      <g>
       <use xlink:href="#m9a43345286" x="547.917836" y="192.24" style="stroke: #000000; stroke-width: 0.8"/>
      </g>
     </g>
     <g id="text_5">
      <!-- 20 -->
      <g transform="translate(541.555336 206.838437) scale(0.1 -0.1)">
       <defs>
        <path id="DejaVuSans-32" d="M 1228 531 
L 3431 531 
L 3431 0 
L 469 0 
L 469 531 
Q 828 903 1448 1529 
Q 2069 2156 2228 2338 
Q 2531 2678 2651 2914 
Q 2772 3150 2772 3378 
Q 2772 3750 2511 3984 
Q 2250 4219 1831 4219 
Q 1534 4219 1204 4116 
Q 875 4013 500 3803 
L 500 4441 
Q 881 4594 1212 4672 
Q 1544 4750 1819 4750 
Q 2544 4750 2975 4387 
Q 3406 4025 3406 3419 
Q 3406 3131 3298 2873 
Q 3191 2616 2906 2266 
Q 2828 2175 2409 1742 
Q 1991 1309 1228 531 
z
" transform="scale(0.015625)"/>
       </defs>
       <use xlink:href="#DejaVuSans-32"/>
       <use xlink:href="#DejaVuSans-30" x="63.623047"/>
      </g>
     </g>
    </g>
   </g>
   <g id="matplotlib.axis_2">
    <g id="ytick_1">
     <g id="line2d_7">
      <defs>
       <path id="m13f811c66d" d="M 0 0 
L -3.5 0 
" style="stroke: #000000; stroke-width: 0.8"/>
      </defs>
      <g>
       <use xlink:href="#m13f811c66d" x="90" y="192.24" style="stroke: #000000; stroke-width: 0.8"/>
      </g>
     </g>
     <g id="text_6">
      <!-- 0.0 -->
      <g transform="translate(67.096875 196.039219) scale(0.1 -0.1)">
       <defs>
        <path id="DejaVuSans-2e" d="M 684 794 
L 1344 794 
L 1344 0 
L 684 0 
L 684 794 
z
" transform="scale(0.015625)"/>
       </defs>
       <use xlink:href="#DejaVuSans-30"/>
       <use xlink:href="#DejaVuSans-2e" x="63.623047"/>
       <use xlink:href="#DejaVuSans-30" x="95.410156"/>
      </g>
     </g>
    </g>
    <g id="ytick_2">
     <g id="line2d_8">
      <g>
       <use xlink:href="#m13f811c66d" x="90" y="161.219562" style="stroke: #000000; stroke-width: 0.8"/>
      </g>
     </g>
     <g id="text_7">
      <!-- 0.2 -->
      <g transform="translate(67.096875 165.018781) scale(0.1 -0.1)">
       <use xlink:href="#DejaVuSans-30"/>
       <use xlink:href="#DejaVuSans-2e" x="63.623047"/>
       <use xlink:href="#DejaVuSans-32" x="95.410156"/>
      </g>
     </g>
    </g>
    <g id="ytick_3">
     <g id="line2d_9">
      <g>
       <use xlink:href="#m13f811c66d" x="90" y="130.199124" style="stroke: #000000; stroke-width: 0.8"/>
      </g>
     </g>
     <g id="text_8">
      <!-- 0.4 -->
      <g transform="translate(67.096875 133.998342) scale(0.1 -0.1)">
       <defs>
        <path id="DejaVuSans-34" d="M 2419 4116 
L 825 1625 
L 2419 1625 
L 2419 4116 
z
M 2253 4666 
L 3047 4666 
L 3047 1625 
L 3713 1625 
L 3713 1100 
L 3047 1100 
L 3047 0 
L 2419 0 
L 2419 1100 
L 313 1100 
L 313 1709 
L 2253 4666 
z
" transform="scale(0.015625)"/>
       </defs>
       <use xlink:href="#DejaVuSans-30"/>
       <use xlink:href="#DejaVuSans-2e" x="63.623047"/>
       <use xlink:href="#DejaVuSans-34" x="95.410156"/>
      </g>
     </g>
    </g>
    <g id="ytick_4">
     <g id="line2d_10">
      <g>
       <use xlink:href="#m13f811c66d" x="90" y="99.178686" style="stroke: #000000; stroke-width: 0.8"/>
      </g>
     </g>
     <g id="text_9">
      <!-- 0.6 -->
      <g transform="translate(67.096875 102.977904) scale(0.1 -0.1)">
       <defs>
        <path id="DejaVuSans-36" d="M 2113 2584 
Q 1688 2584 1439 2293 
Q 1191 2003 1191 1497 
Q 1191 994 1439 701 
Q 1688 409 2113 409 
Q 2538 409 2786 701 
Q 3034 994 3034 1497 
Q 3034 2003 2786 2293 
Q 2538 2584 2113 2584 
z
M 3366 4563 
L 3366 3988 
Q 3128 4100 2886 4159 
Q 2644 4219 2406 4219 
Q 1781 4219 1451 3797 
Q 1122 3375 1075 2522 
Q 1259 2794 1537 2939 
Q 1816 3084 2150 3084 
Q 2853 3084 3261 2657 
Q 3669 2231 3669 1497 
Q 3669 778 3244 343 
Q 2819 -91 2113 -91 
Q 1303 -91 875 529 
Q 447 1150 447 2328 
Q 447 3434 972 4092 
Q 1497 4750 2381 4750 
Q 2619 4750 2861 4703 
Q 3103 4656 3366 4563 
z
" transform="scale(0.015625)"/>
       </defs>
       <use xlink:href="#DejaVuSans-30"/>
       <use xlink:href="#DejaVuSans-2e" x="63.623047"/>
       <use xlink:href="#DejaVuSans-36" x="95.410156"/>
      </g>
     </g>
    </g>
    <g id="ytick_5">
     <g id="line2d_11">
      <g>
       <use xlink:href="#m13f811c66d" x="90" y="68.158247" style="stroke: #000000; stroke-width: 0.8"/>
      </g>
     </g>
     <g id="text_10">
      <!-- 0.8 -->
      <g transform="translate(67.096875 71.957466) scale(0.1 -0.1)">
       <defs>
        <path id="DejaVuSans-38" d="M 2034 2216 
Q 1584 2216 1326 1975 
Q 1069 1734 1069 1313 
Q 1069 891 1326 650 
Q 1584 409 2034 409 
Q 2484 409 2743 651 
Q 3003 894 3003 1313 
Q 3003 1734 2745 1975 
Q 2488 2216 2034 2216 
z
M 1403 2484 
Q 997 2584 770 2862 
Q 544 3141 544 3541 
Q 544 4100 942 4425 
Q 1341 4750 2034 4750 
Q 2731 4750 3128 4425 
Q 3525 4100 3525 3541 
Q 3525 3141 3298 2862 
Q 3072 2584 2669 2484 
Q 3125 2378 3379 2068 
Q 3634 1759 3634 1313 
Q 3634 634 3220 271 
Q 2806 -91 2034 -91 
Q 1263 -91 848 271 
Q 434 634 434 1313 
Q 434 1759 690 2068 
Q 947 2378 1403 2484 
z
M 1172 3481 
Q 1172 3119 1398 2916 
Q 1625 2713 2034 2713 
Q 2441 2713 2670 2916 
Q 2900 3119 2900 3481 
Q 2900 3844 2670 4047 
Q 2441 4250 2034 4250 
Q 1625 4250 1398 4047 
Q 1172 3844 1172 3481 
z
" transform="scale(0.015625)"/>
       </defs>
       <use xlink:href="#DejaVuSans-30"/>
       <use xlink:href="#DejaVuSans-2e" x="63.623047"/>
       <use xlink:href="#DejaVuSans-38" x="95.410156"/>
      </g>
     </g>
    </g>
    <g id="ytick_6">
     <g id="line2d_12">
      <g>
       <use xlink:href="#m13f811c66d" x="90" y="37.137809" style="stroke: #000000; stroke-width: 0.8"/>
      </g>
     </g>
     <g id="text_11">
      <!-- 1.0 -->
      <g transform="translate(67.096875 40.937028) scale(0.1 -0.1)">
       <use xlink:href="#DejaVuSans-31"/>
       <use xlink:href="#DejaVuSans-2e" x="63.623047"/>
       <use xlink:href="#DejaVuSans-30" x="95.410156"/>
      </g>
     </g>
    </g>
   </g>
  </g>
 </g>
 <defs>
  <clipPath id="p94c09930d5">
   <rect x="90" y="25.92" width="558" height="166.32"/>
  </clipPath>
 </defs>
</svg>
