<?xml version="1.0" encoding="utf-8" standalone="no"?>
<!DOCTYPE svg PUBLIC "-//W3C//DTD SVG 1.1//EN"
  "http://www.w3.org/Graphics/SVG/1.1/DTD/svg11.dtd">
<svg xmlns:xlink="http://www.w3.org/1999/xlink" width="720pt" height="216pt" viewBox="0 0 720 216" xmlns="http://www.w3.org/2000/svg" version="1.1">
 <metadata>
  <rdf:RDF xmlns:dc="http://purl.org/dc/elements/1.1/" xmlns:cc="http://creativecommons.org/ns#" xmlns:rdf="http://www.w3.org/1999/02/22-rdf-syntax-ns#">
   <cc:Work>
    <dc:type rdf:resource="http://purl.org/dc/dcmitype/StillImage"/>
    <dc:date>2025-12-17T10:21:55.291269</dc:date>
    <dc:format>image/svg+xml</dc:format>
    <dc:creator>
     <cc:Agent>
      <dc:title>Matplotlib v3.8.2, https://matplotlib.org/</dc:title>
     </cc:Agent>
    </dc:creator>
   </cc:Work>
  </rdf:RDF>
 </metadata>
 <defs>
  <style type="text/css">*{stroke-linejoin: round; stroke-linecap: butt}</style>
 </defs>
 <g id="figure_1">
  <g id="patch_1">
   <path d="M 0 216 
L 720 216 
L 720 0 
L 0 0 
z
" style="fill: #ffffff"/>
  </g>
  <g id="axes_1">
   <g id="patch_2">
    <path d="M 90 192.24 
L 648 192.24 
L 648 25.92 
L 90 25.92 
z
" style="fill: #ffffff"/>
   </g>
   <g id="line2d_1">
    <path d="M 90 192.24 
L 648 192.24 
" clip-path="url(#pe5f7ec97dc)" style="fill: none; stroke: #000000; stroke-width: 0.5; stroke-linecap: square"/>
   </g>
   <g id="patch_3">
    <path d="M 90 190.483956 
L 111.246493 190.483956 
L 111.246493 190.826433 
L 103.602697 190.826433 
L 103.602697 192.24 
L 97.65862 192.24 
L 97.65862 190.826433 
L 90 190.826433 
L 90 190.483956 
z
" clip-path="url(#pe5f7ec97dc)" style="fill: #ff0000"/>
   </g>
   <g id="patch_4">
    <path d="M 111.246493 190.321745 
Q 109.103749 190.40285 106.79911 190.443588 
Q 104.49447 190.483956 102.037457 190.483956 
Q 96.485371 190.483956 93.242685 190.242491 
Q 90 190.001026 90 189.588092 
Q 90 189.170344 93.299825 188.930731 
Q 96.604412 188.691118 102.351726 188.691118 
Q 104.565895 188.691118 106.594359 188.723708 
Q 108.627584 188.755928 110.427489 188.819627 
L 110.427489 189.17701 
Q 108.570444 189.095164 106.732447 189.054796 
Q 104.894449 189.014058 103.046928 189.014058 
Q 99.628061 189.014058 97.775778 189.162937 
Q 95.923496 189.311445 95.923496 189.588092 
Q 95.923496 189.862147 97.709115 190.011766 
Q 99.494735 190.161015 102.780275 190.161015 
Q 103.675466 190.161015 104.442092 190.152497 
Q 105.208718 190.143609 105.818209 190.125092 
L 105.818209 189.78956 
L 102.318395 189.78956 
L 102.318395 189.490692 
L 111.246493 189.490692 
L 111.246493 190.321745 
z
" clip-path="url(#pe5f7ec97dc)" style="fill: #ffa600"/>
   </g>
   <g id="patch_5">
    <path d="M 111.246493 188.561889 
Q 109.469261 188.625945 107.547494 188.658345 
Q 105.625728 188.691118 103.532662 188.691118 
Q 97.290936 188.691118 93.645468 188.448302 
Q 90 188.205486 90 187.79024 
Q 90 187.373505 93.645468 187.131062 
Q 97.290936 186.888246 103.532662 186.888246 
Q 105.625728 186.888246 107.547494 186.921018 
Q 109.469261 186.953419 111.246493 187.017474 
L 111.246493 187.376857 
Q 109.453201 187.291946 107.71344 187.25247 
Q 105.97368 187.212994 104.051913 187.212994 
Q 100.604511 187.212994 98.629213 187.366802 
Q 96.659269 187.520238 96.659269 187.79024 
Q 96.659269 188.059126 98.629213 188.212934 
Q 100.604511 188.36637 104.051913 188.36637 
Q 105.97368 188.36637 107.71344 188.326894 
Q 109.453201 188.287045 111.246493 188.202134 
L 111.246493 188.561889 
z
" clip-path="url(#pe5f7ec97dc)" style="fill: #0000ff"/>
   </g>
   <g id="patch_6">
    <path d="M 104.717464 186.302682 
L 96.546405 186.302682 
L 95.256237 186.888246 
L 90 186.888246 
L 97.506428 183.673848 
L 103.740065 183.673848 
L 111.246493 186.888246 
L 105.9946 186.888246 
L 104.717464 186.302682 
z
M 97.849604 185.706097 
L 103.401233 185.706097 
L 100.629762 184.427502 
L 97.849604 185.706097 
z
" clip-path="url(#pe5f7ec97dc)" style="fill: #008000"/>
   </g>
   <g id="patch_7">
    <path d="M 133.611222 192.089514 
Q 131.468479 192.164757 129.163839 192.20255 
Q 126.859199 192.24 124.402187 192.24 
Q 118.8501 192.24 115.607415 192.015988 
Q 112.364729 191.791977 112.364729 191.408889 
Q 112.364729 191.021335 115.664555 190.799042 
Q 118.969141 190.576748 124.716456 190.576748 
Q 126.930624 190.576748 128.959088 190.606983 
Q 130.992314 190.636874 132.792218 190.695969 
L 132.792218 191.02752 
Q 130.935174 190.951589 129.097176 190.91414 
Q 127.259178 190.876346 125.411657 190.876346 
Q 121.992791 190.876346 120.140508 191.014464 
Q 118.288225 191.152238 118.288225 191.408889 
Q 118.288225 191.663136 120.073845 191.80194 
Q 121.859464 191.940402 125.145004 191.940402 
Q 126.040195 191.940402 126.806821 191.932499 
Q 127.573447 191.924254 128.182939 191.907075 
L 128.182939 191.595795 
L 124.683124 191.595795 
L 124.683124 191.318529 
L 133.611222 191.318529 
L 133.611222 192.089514 
z
" clip-path="url(#pe5f7ec97dc)" style="fill: #ffa600"/>
   </g>
   <g id="patch_8">
    <path d="M 133.611222 190.430874 
Q 131.83399 190.50318 129.912224 190.539754 
Q 127.990457 190.576748 125.897391 190.576748 
Q 119.655665 190.576748 116.010197 190.302657 
Q 112.364729 190.028566 112.364729 189.559836 
Q 112.364729 189.089425 116.010197 188.815754 
Q 119.655665 188.541663 125.897391 188.541663 
Q 127.990457 188.541663 129.912224 188.578657 
Q 131.83399 188.61523 133.611222 188.687537 
L 133.611222 189.093208 
Q 131.817931 188.997361 130.07817 188.9528 
Q 128.338409 188.908239 126.416643 188.908239 
Q 122.96924 188.908239 120.993943 189.081858 
Q 119.023998 189.255057 119.023998 189.559836 
Q 119.023998 189.863354 120.993943 190.036973 
Q 122.96924 190.210172 126.416643 190.210172 
Q 128.338409 190.210172 130.07817 190.165611 
Q 131.817931 190.12063 133.611222 190.024782 
L 133.611222 190.430874 
z
" clip-path="url(#pe5f7ec97dc)" style="fill: #0000ff"/>
   </g>
   <g id="patch_9">
    <path d="M 112.364729 185.674952 
L 133.611222 185.674952 
L 133.611222 186.234041 
L 125.967426 186.234041 
L 125.967426 188.541663 
L 120.023349 188.541663 
L 120.023349 186.234041 
L 112.364729 186.234041 
L 112.364729 185.674952 
z
" clip-path="url(#pe5f7ec97dc)" style="fill: #ff0000"/>
   </g>
   <g id="patch_10">
    <path d="M 127.082194 185.0056 
L 118.911134 185.0056 
L 117.620967 185.674952 
L 112.364729 185.674952 
L 119.871158 182.000604 
L 126.104794 182.000604 
L 133.611222 185.674952 
L 128.359329 185.674952 
L 127.082194 185.0056 
z
M 120.214333 184.323649 
L 125.765963 184.323649 
L 122.994492 182.862099 
L 120.214333 184.323649 
z
" clip-path="url(#pe5f7ec97dc)" style="fill: #008000"/>
   </g>
   <g id="patch_11">
    <path d="M 155.975952 192.084991 
Q 153.833208 192.162495 151.528569 192.201425 
Q 149.223929 192.24 146.766916 192.24 
Q 141.214829 192.24 137.972144 192.009256 
Q 134.729459 191.778511 134.729459 191.38391 
Q 134.729459 190.984709 138.029284 190.755734 
Q 141.333871 190.526759 147.081185 190.526759 
Q 149.295354 190.526759 151.323818 190.557903 
Q 153.357043 190.588692 155.156948 190.649563 
L 155.156948 190.991079 
Q 153.299903 190.912867 151.461905 190.874291 
Q 149.623908 190.835362 147.776386 190.835362 
Q 144.35752 190.835362 142.505237 190.977631 
Q 140.652954 191.119546 140.652954 191.38391 
Q 140.652954 191.645798 142.438574 191.788775 
Q 144.224194 191.931397 147.509734 191.931397 
Q 148.404925 191.931397 149.171551 191.923257 
Q 149.938177 191.914764 150.547668 191.897069 
L 150.547668 191.576433 
L 147.047854 191.576433 
L 147.047854 191.290834 
L 155.975952 191.290834 
L 155.975952 192.084991 
z
" clip-path="url(#pe5f7ec97dc)" style="fill: #ffa600"/>
   </g>
   <g id="patch_12">
    <path d="M 149.446923 190.213288 
L 141.275864 190.213288 
L 139.985696 190.526759 
L 134.729459 190.526759 
L 142.235887 188.805984 
L 148.469524 188.805984 
L 155.975952 190.526759 
L 150.724059 190.526759 
L 149.446923 190.213288 
z
M 142.579063 189.893915 
L 148.130692 189.893915 
L 145.359221 189.20944 
L 142.579063 189.893915 
z
" clip-path="url(#pe5f7ec97dc)" style="fill: #008000"/>
   </g>
   <g id="patch_13">
    <path d="M 155.975952 188.595684 
Q 154.198719 188.699925 152.276953 188.752651 
Q 150.355187 188.805984 148.262121 188.805984 
Q 142.020395 188.805984 138.374927 188.410839 
Q 134.729459 188.015694 134.729459 187.339948 
Q 134.729459 186.661778 138.374927 186.267239 
Q 142.020395 185.872094 148.262121 185.872094 
Q 150.355187 185.872094 152.276953 185.925427 
Q 154.198719 185.978153 155.975952 186.082394 
L 155.975952 186.667232 
Q 154.18266 186.529053 152.442899 186.464811 
Q 150.703139 186.40057 148.781372 186.40057 
Q 145.33397 186.40057 143.358672 186.650869 
Q 141.388728 186.900562 141.388728 187.339948 
Q 141.388728 187.777516 143.358672 188.027815 
Q 145.33397 188.277508 148.781372 188.277508 
Q 150.703139 188.277508 152.442899 188.213266 
Q 154.18266 188.148419 155.975952 188.01024 
L 155.975952 188.595684 
z
" clip-path="url(#pe5f7ec97dc)" style="fill: #0000ff"/>
   </g>
   <g id="patch_14">
    <path d="M 134.729459 182.591601 
L 155.975952 182.591601 
L 155.975952 183.231388 
L 148.332155 183.231388 
L 148.332155 185.872094 
L 142.388078 185.872094 
L 142.388078 183.231388 
L 134.729459 183.231388 
L 134.729459 182.591601 
z
" clip-path="url(#pe5f7ec97dc)" style="fill: #ff0000"/>
   </g>
   <g id="patch_15">
    <path d="M 157.094188 190.905547 
L 178.340681 190.905547 
L 178.340681 191.165803 
L 170.696885 191.165803 
L 170.696885 192.24 
L 164.752808 192.24 
L 164.752808 191.165803 
L 157.094188 191.165803 
L 157.094188 190.905547 
z
" clip-path="url(#pe5f7ec97dc)" style="fill: #ff0000"/>
   </g>
   <g id="patch_16">
    <path d="M 178.340681 190.75621 
Q 176.197938 190.830879 173.893298 190.868383 
Q 171.588658 190.905547 169.131646 190.905547 
Q 163.579559 190.905547 160.336874 190.683247 
Q 157.094188 190.460946 157.094188 190.080785 
Q 157.094188 189.696192 160.394013 189.475596 
Q 163.6986 189.255001 169.445915 189.255001 
Q 171.660083 189.255001 173.688547 189.285004 
Q 175.721773 189.314667 177.521677 189.373311 
L 177.521677 189.702329 
Q 175.664633 189.626979 173.826635 189.589815 
Q 171.988637 189.55231 170.141116 189.55231 
Q 166.72225 189.55231 164.869967 189.689373 
Q 163.017684 189.826094 163.017684 190.080785 
Q 163.017684 190.333089 164.803304 190.470834 
Q 166.588923 190.608237 169.874463 190.608237 
Q 170.769654 190.608237 171.53628 190.600396 
Q 172.302906 190.592213 172.912398 190.575165 
L 172.912398 190.266263 
L 169.412583 190.266263 
L 169.412583 189.991115 
L 178.340681 189.991115 
L 178.340681 190.75621 
z
" clip-path="url(#pe5f7ec97dc)" style="fill: #ffa600"/>
   </g>
   <g id="patch_17">
    <path d="M 178.340681 189.115102 
Q 176.563449 189.184446 174.641682 189.219522 
Q 172.719916 189.255001 170.62685 189.255001 
Q 164.385124 189.255001 160.739656 188.992136 
Q 157.094188 188.729271 157.094188 188.27974 
Q 157.094188 187.828596 160.739656 187.566135 
Q 164.385124 187.30327 170.62685 187.30327 
Q 172.719916 187.30327 174.641682 187.338749 
Q 176.563449 187.373824 178.340681 187.443169 
L 178.340681 187.832225 
Q 176.54739 187.740303 174.807629 187.697567 
Q 173.067868 187.654832 171.146102 187.654832 
Q 167.698699 187.654832 165.723401 187.821339 
Q 163.753457 187.987444 163.753457 188.27974 
Q 163.753457 188.570827 165.723401 188.737334 
Q 167.698699 188.903439 171.146102 188.903439 
Q 173.067868 188.903439 174.807629 188.860703 
Q 176.54739 188.817565 178.340681 188.725643 
L 178.340681 189.115102 
z
" clip-path="url(#pe5f7ec97dc)" style="fill: #0000ff"/>
   </g>
   <g id="patch_18">
    <path d="M 171.811653 186.811375 
L 163.640593 186.811375 
L 162.350426 187.30327 
L 157.094188 187.30327 
L 164.600616 184.603053 
L 170.834253 184.603053 
L 178.340681 187.30327 
L 173.088788 187.30327 
L 171.811653 186.811375 
z
M 164.943792 186.31022 
L 170.495421 186.31022 
L 167.723951 185.236152 
L 164.943792 186.31022 
z
" clip-path="url(#pe5f7ec97dc)" style="fill: #008000"/>
   </g>
   <g id="patch_19">
    <path d="M 200.705411 191.828699 
Q 198.928178 192.032571 197.006412 192.135693 
Q 195.084645 192.24 192.99158 192.24 
Q 186.749853 192.24 183.104386 191.46718 
Q 179.458918 190.69436 179.458918 189.372743 
Q 179.458918 188.046385 183.104386 187.27475 
Q 186.749853 186.50193 192.99158 186.50193 
Q 195.084645 186.50193 197.006412 186.606237 
Q 198.928178 186.709359 200.705411 186.913232 
L 200.705411 188.057053 
Q 198.912119 187.786803 197.172358 187.66116 
Q 195.432598 187.535518 193.510831 187.535518 
Q 190.063428 187.535518 188.088131 188.025049 
Q 186.118186 188.513396 186.118186 189.372743 
Q 186.118186 190.228534 188.088131 190.718066 
Q 190.063428 191.206413 193.510831 191.206413 
Q 195.432598 191.206413 197.172358 191.08077 
Q 198.912119 190.953942 200.705411 190.683692 
L 200.705411 191.828699 
z
" clip-path="url(#pe5f7ec97dc)" style="fill: #0000ff"/>
   </g>
   <g id="patch_20">
    <path d="M 179.458918 178.186111 
L 200.705411 178.186111 
L 200.705411 179.807927 
L 193.061614 179.807927 
L 193.061614 186.50193 
L 187.117537 186.50193 
L 187.117537 179.807927 
L 179.458918 179.807927 
L 179.458918 178.186111 
z
" clip-path="url(#pe5f7ec97dc)" style="fill: #ff0000"/>
   </g>
   <g id="patch_21">
    <path d="M 200.705411 177.398269 
Q 198.562667 177.79219 196.258027 177.99005 
Q 193.953388 178.186111 191.496375 178.186111 
Q 185.944288 178.186111 182.701603 177.013341 
Q 179.458918 175.840571 179.458918 173.834991 
Q 179.458918 171.806027 182.758743 170.64225 
Q 186.06333 169.478474 191.810644 169.478474 
Q 194.024813 169.478474 196.053276 169.636762 
Q 198.086502 169.793251 199.886407 170.102632 
L 199.886407 171.838404 
Q 198.029362 171.440885 196.191364 171.244824 
Q 194.353367 171.046964 192.505845 171.046964 
Q 189.086979 171.046964 187.234696 171.770052 
Q 185.382413 172.491342 185.382413 173.834991 
Q 185.382413 175.166048 187.168033 175.892734 
Q 188.953653 176.617621 192.239193 176.617621 
Q 193.134384 176.617621 193.90101 176.57625 
Q 194.667636 176.533081 195.277127 176.443145 
L 195.277127 174.813498 
L 191.777313 174.813498 
L 191.777313 173.361925 
L 200.705411 173.361925 
L 200.705411 177.398269 
z
" clip-path="url(#pe5f7ec97dc)" style="fill: #ffa600"/>
   </g>
   <g id="patch_22">
    <path d="M 194.176382 164.004044 
L 186.005322 164.004044 
L 184.715155 169.478474 
L 179.458918 169.478474 
L 186.965346 139.427073 
L 193.198983 139.427073 
L 200.705411 169.478474 
L 195.453518 169.478474 
L 194.176382 164.004044 
z
M 187.308522 158.426566 
L 192.860151 158.426566 
L 190.08868 146.472987 
L 187.308522 158.426566 
z
" clip-path="url(#pe5f7ec97dc)" style="fill: #008000"/>
   </g>
   <g id="patch_23">
    <path d="M 223.07014 192.01353 
Q 221.292908 192.125786 219.371141 192.182567 
Q 217.449375 192.24 215.356309 192.24 
Q 209.114583 192.24 205.469115 191.814472 
Q 201.823647 191.388944 201.823647 190.661239 
Q 201.823647 189.930924 205.469115 189.506049 
Q 209.114583 189.080521 215.356309 189.080521 
Q 217.449375 189.080521 219.371141 189.137954 
Q 221.292908 189.194734 223.07014 189.30699 
L 223.07014 189.936798 
Q 221.276848 189.787993 219.537088 189.718813 
Q 217.797327 189.649632 215.875561 189.649632 
Q 212.428158 189.649632 210.45286 189.919176 
Q 208.482916 190.188068 208.482916 190.661239 
Q 208.482916 191.132453 210.45286 191.401997 
Q 212.428158 191.670889 215.875561 191.670889 
Q 217.797327 191.670889 219.537088 191.601708 
Q 221.276848 191.531875 223.07014 191.38307 
L 223.07014 192.01353 
z
" clip-path="url(#pe5f7ec97dc)" style="fill: #0000ff"/>
   </g>
   <g id="patch_24">
    <path d="M 223.07014 188.761362 
Q 220.927397 188.920941 218.622757 189.001095 
Q 216.318117 189.080521 213.861105 189.080521 
Q 208.309018 189.080521 205.066333 188.605426 
Q 201.823647 188.130332 201.823647 187.317862 
Q 201.823647 186.49592 205.123472 186.024469 
Q 208.428059 185.553018 214.175374 185.553018 
Q 216.389542 185.553018 218.418006 185.617141 
Q 220.451231 185.680536 222.251136 185.805867 
L 222.251136 186.509036 
Q 220.394092 186.348 218.556094 186.268574 
Q 216.718096 186.18842 214.870575 186.18842 
Q 211.451708 186.18842 209.599426 186.481347 
Q 207.747143 186.773544 207.747143 187.317862 
Q 207.747143 187.85708 209.532763 188.151463 
Q 211.318382 188.445118 214.603922 188.445118 
Q 215.499113 188.445118 216.265739 188.428359 
Q 217.032365 188.410871 217.641857 188.374437 
L 217.641857 187.71426 
L 214.142042 187.71426 
L 214.142042 187.126222 
L 223.07014 187.126222 
L 223.07014 188.761362 
z
" clip-path="url(#pe5f7ec97dc)" style="fill: #ffa600"/>
   </g>
   <g id="patch_25">
    <path d="M 216.541112 184.835329 
L 208.370052 184.835329 
L 207.079885 185.553018 
L 201.823647 185.553018 
L 209.330075 181.61333 
L 215.563712 181.61333 
L 223.07014 185.553018 
L 217.818247 185.553018 
L 216.541112 184.835329 
z
M 209.673251 184.104131 
L 215.22488 184.104131 
L 212.45341 182.537037 
L 209.673251 184.104131 
z
" clip-path="url(#pe5f7ec97dc)" style="fill: #008000"/>
   </g>
   <g id="patch_26">
    <path d="M 201.823647 173.389851 
L 223.07014 173.389851 
L 223.07014 174.993658 
L 215.426344 174.993658 
L 215.426344 181.61333 
L 209.482267 181.61333 
L 209.482267 174.993658 
L 201.823647 174.993658 
L 201.823647 173.389851 
z
" clip-path="url(#pe5f7ec97dc)" style="fill: #ff0000"/>
   </g>
   <g id="patch_27">
    <path d="M 245.43487 192.097436 
Q 243.292126 192.168718 240.987486 192.204522 
Q 238.682847 192.24 236.225834 192.24 
Q 230.673747 192.24 227.431062 192.027781 
Q 224.188377 191.815561 224.188377 191.45264 
Q 224.188377 191.085488 227.488202 190.874896 
Q 230.792789 190.664304 236.540103 190.664304 
Q 238.754271 190.664304 240.782735 190.692948 
Q 242.815961 190.721265 244.615866 190.777249 
L 244.615866 191.091347 
Q 242.758821 191.019414 240.920823 190.983935 
Q 239.082825 190.948131 237.235304 190.948131 
Q 233.816438 190.948131 231.964155 191.078978 
Q 230.111872 191.2095 230.111872 191.45264 
Q 230.111872 191.693503 231.897492 191.825001 
Q 233.683112 191.956173 236.968652 191.956173 
Q 237.863842 191.956173 238.630468 191.948687 
Q 239.397095 191.940875 240.006586 191.924601 
L 240.006586 191.629707 
L 236.506771 191.629707 
L 236.506771 191.367037 
L 245.43487 191.367037 
L 245.43487 192.097436 
z
" clip-path="url(#pe5f7ec97dc)" style="fill: #ffa600"/>
   </g>
   <g id="patch_28">
    <path d="M 238.905841 190.199859 
L 230.734781 190.199859 
L 229.444614 190.664304 
L 224.188377 190.664304 
L 231.694805 188.114771 
L 237.928442 188.114771 
L 245.43487 190.664304 
L 240.182976 190.664304 
L 238.905841 190.199859 
z
M 232.037981 189.72667 
L 237.58961 189.72667 
L 234.818139 188.71254 
L 232.037981 189.72667 
z
" clip-path="url(#pe5f7ec97dc)" style="fill: #008000"/>
   </g>
   <g id="patch_29">
    <path d="M 224.188377 185.431491 
L 245.43487 185.431491 
L 245.43487 185.954805 
L 237.791073 185.954805 
L 237.791073 188.114771 
L 231.846996 188.114771 
L 231.846996 185.954805 
L 224.188377 185.954805 
L 224.188377 185.431491 
z
" clip-path="url(#pe5f7ec97dc)" style="fill: #ff0000"/>
   </g>
   <g id="patch_30">
    <path d="M 245.43487 185.152274 
Q 243.657637 185.290675 241.735871 185.360681 
Q 239.814104 185.431491 237.721038 185.431491 
Q 231.479312 185.431491 227.833845 184.906853 
Q 224.188377 184.382216 224.188377 183.485021 
Q 224.188377 182.584608 227.833845 182.060775 
Q 231.479312 181.536137 237.721038 181.536137 
Q 239.814104 181.536137 241.735871 181.606947 
Q 243.657637 181.676953 245.43487 181.815354 
L 245.43487 182.59185 
Q 243.641578 182.408387 241.901817 182.323094 
Q 240.162057 182.2378 238.24029 182.2378 
Q 234.792887 182.2378 232.81759 182.570124 
Q 230.847645 182.901643 230.847645 183.485021 
Q 230.847645 184.065985 232.81759 184.398309 
Q 234.792887 184.729828 238.24029 184.729828 
Q 240.162057 184.729828 241.901817 184.644534 
Q 243.641578 184.558436 245.43487 184.374974 
L 245.43487 185.152274 
z
" clip-path="url(#pe5f7ec97dc)" style="fill: #0000ff"/>
   </g>
   <g id="patch_31">
    <path d="M 267.799599 191.477569 
Q 265.656856 191.858785 263.352216 192.050263 
Q 261.047576 192.24 258.590563 192.24 
Q 253.038477 192.24 249.795791 191.105058 
Q 246.553106 189.970115 246.553106 188.029224 
Q 246.553106 186.065704 249.852931 184.939465 
Q 253.157518 183.813226 258.904833 183.813226 
Q 261.119001 183.813226 263.147465 183.966409 
Q 265.18069 184.11785 266.980595 184.417252 
L 266.980595 186.097037 
Q 265.123551 185.71234 263.285553 185.522603 
Q 261.447555 185.331125 259.600034 185.331125 
Q 256.181167 185.331125 254.328885 186.03089 
Q 252.476602 186.728914 252.476602 188.029224 
Q 252.476602 189.317349 254.262221 190.020596 
Q 256.047841 190.722101 259.333381 190.722101 
Q 260.228572 190.722101 260.995198 190.682065 
Q 261.761824 190.640288 262.371315 190.553253 
L 262.371315 188.97617 
L 258.871501 188.97617 
L 258.871501 187.571418 
L 267.799599 187.571418 
L 267.799599 191.477569 
z
" clip-path="url(#pe5f7ec97dc)" style="fill: #ffa600"/>
   </g>
   <g id="patch_32">
    <path d="M 261.270571 182.179546 
L 253.099511 182.179546 
L 251.809343 183.813226 
L 246.553106 183.813226 
L 254.059534 174.845284 
L 260.293171 174.845284 
L 267.799599 183.813226 
L 262.547706 183.813226 
L 261.270571 182.179546 
z
M 254.40271 180.515115 
L 259.954339 180.515115 
L 257.182869 176.947926 
L 254.40271 180.515115 
z
" clip-path="url(#pe5f7ec97dc)" style="fill: #008000"/>
   </g>
   <g id="patch_33">
    <path d="M 267.799599 173.930932 
Q 266.022367 174.384155 264.1006 174.613402 
Q 262.178834 174.845284 260.085768 174.845284 
Q 253.844042 174.845284 250.198574 173.127251 
Q 246.553106 171.409219 246.553106 168.471174 
Q 246.553106 165.522588 250.198574 163.807191 
Q 253.844042 162.089158 260.085768 162.089158 
Q 262.178834 162.089158 264.1006 162.32104 
Q 266.022367 162.550287 267.799599 163.00351 
L 267.799599 165.546303 
Q 266.006307 164.945519 264.266547 164.666207 
Q 262.526786 164.386895 260.60502 164.386895 
Q 257.157617 164.386895 255.182319 165.475157 
Q 253.212375 166.560785 253.212375 168.471174 
Q 253.212375 170.373657 255.182319 171.46192 
Q 257.157617 172.547547 260.60502 172.547547 
Q 262.526786 172.547547 264.266547 172.268235 
Q 266.006307 171.986288 267.799599 171.385504 
L 267.799599 173.930932 
z
" clip-path="url(#pe5f7ec97dc)" style="fill: #0000ff"/>
   </g>
   <g id="patch_34">
    <path d="M 246.553106 93.244737 
L 267.799599 93.244737 
L 267.799599 106.671317 
L 260.155803 106.671317 
L 260.155803 162.089158 
L 254.211726 162.089158 
L 254.211726 106.671317 
L 246.553106 106.671317 
L 246.553106 93.244737 
z
" clip-path="url(#pe5f7ec97dc)" style="fill: #ff0000"/>
   </g>
   <g id="patch_35">
    <path d="M 283.6353 191.376362 
L 275.46424 191.376362 
L 274.174073 192.24 
L 268.917836 192.24 
L 276.424264 187.499133 
L 282.657901 187.499133 
L 290.164329 192.24 
L 284.912435 192.24 
L 283.6353 191.376362 
z
M 276.76744 190.496466 
L 282.319069 190.496466 
L 279.547598 188.610687 
L 276.76744 190.496466 
z
" clip-path="url(#pe5f7ec97dc)" style="fill: #008000"/>
   </g>
   <g id="patch_36">
    <path d="M 290.164329 186.600121 
Q 288.021585 187.049627 285.716945 187.275406 
Q 283.412306 187.499133 280.955293 187.499133 
Q 275.403206 187.499133 272.160521 186.160878 
Q 268.917836 184.822623 268.917836 182.534043 
Q 268.917836 180.21878 272.217661 178.890788 
Q 275.522248 177.562796 281.269562 177.562796 
Q 283.48373 177.562796 285.512194 177.743419 
Q 287.54542 177.92199 289.345324 178.275027 
L 289.345324 180.255726 
Q 287.48828 179.802115 285.650282 179.578388 
Q 283.812284 179.352609 281.964763 179.352609 
Q 278.545897 179.352609 276.693614 180.177729 
Q 274.841331 181.000797 274.841331 182.534043 
Q 274.841331 184.052922 276.626951 184.882147 
Q 278.412571 185.70932 281.698111 185.70932 
Q 282.593301 185.70932 283.359927 185.662111 
Q 284.126553 185.612851 284.736045 185.510224 
L 284.736045 183.650624 
L 281.23623 183.650624 
L 281.23623 181.994226 
L 290.164329 181.994226 
L 290.164329 186.600121 
z
" clip-path="url(#pe5f7ec97dc)" style="fill: #ffa600"/>
   </g>
   <g id="patch_37">
    <path d="M 268.917836 162.950535 
L 290.164329 162.950535 
L 290.164329 165.800333 
L 282.520532 165.800333 
L 282.520532 177.562796 
L 276.576455 177.562796 
L 276.576455 165.800333 
L 268.917836 165.800333 
L 268.917836 162.950535 
z
" clip-path="url(#pe5f7ec97dc)" style="fill: #ff0000"/>
   </g>
   <g id="patch_38">
    <path d="M 290.164329 153.128268 
Q 288.387096 157.996942 286.46533 160.459585 
Q 284.543563 162.950535 282.450497 162.950535 
Q 276.208771 162.950535 272.563303 144.494863 
Q 268.917836 126.039191 268.917836 94.477727 
Q 268.917836 62.803038 272.563303 44.375672 
Q 276.208771 25.92 282.450497 25.92 
Q 284.543563 25.92 286.46533 28.41095 
Q 288.387096 30.873593 290.164329 35.742267 
L 290.164329 63.057794 
Q 288.371037 56.60397 286.631276 53.603508 
Q 284.891515 50.603046 282.969749 50.603046 
Q 279.522346 50.603046 277.547049 62.293526 
Q 275.577104 73.955699 275.577104 94.477727 
Q 275.577104 114.914836 277.547049 126.605316 
Q 279.522346 138.267489 282.969749 138.267489 
Q 284.891515 138.267489 286.631276 135.267027 
Q 288.371037 132.238258 290.164329 125.784434 
L 290.164329 153.128268 
z
" clip-path="url(#pe5f7ec97dc)" style="fill: #0000ff"/>
   </g>
   <g id="patch_39">
    <path d="M 312.529058 191.92024 
Q 310.386315 192.08012 308.081675 192.160425 
Q 305.777035 192.24 303.320022 192.24 
Q 297.767936 192.24 294.52525 191.76401 
Q 291.282565 191.288021 291.282565 190.47402 
Q 291.282565 189.650529 294.58239 189.178189 
Q 297.886977 188.70585 303.634291 188.70585 
Q 305.84846 188.70585 307.876924 188.770094 
Q 309.910149 188.833608 311.710054 188.959176 
L 311.710054 189.66367 
Q 309.853009 189.50233 308.015012 189.422755 
Q 306.177014 189.34245 304.329493 189.34245 
Q 300.910626 189.34245 299.058343 189.635928 
Q 297.206061 189.928676 297.206061 190.47402 
Q 297.206061 191.014254 298.99168 191.309192 
Q 300.7773 191.6034 304.06284 191.6034 
Q 304.958031 191.6034 305.724657 191.586609 
Q 306.491283 191.569088 307.100774 191.532586 
L 307.100774 190.871165 
L 303.60096 190.871165 
L 303.60096 190.282018 
L 312.529058 190.282018 
L 312.529058 191.92024 
z
" clip-path="url(#pe5f7ec97dc)" style="fill: #ffa600"/>
   </g>
   <g id="patch_40">
    <path d="M 312.529058 188.334563 
Q 310.751826 188.518602 308.830059 188.611691 
Q 306.908293 188.70585 304.815227 188.70585 
Q 298.573501 188.70585 294.928033 188.008216 
Q 291.282565 187.310583 291.282565 186.117543 
Q 291.282565 184.920224 294.928033 184.223661 
Q 298.573501 183.526027 304.815227 183.526027 
Q 306.908293 183.526027 308.830059 183.620186 
Q 310.751826 183.713275 312.529058 183.897314 
L 312.529058 184.929854 
Q 310.735766 184.685896 308.996006 184.572477 
Q 307.256245 184.459059 305.334478 184.459059 
Q 301.887076 184.459059 299.911778 184.900964 
Q 297.941834 185.3418 297.941834 186.117543 
Q 297.941834 186.890076 299.911778 187.331982 
Q 301.887076 187.772818 305.334478 187.772818 
Q 307.256245 187.772818 308.996006 187.659399 
Q 310.735766 187.54491 312.529058 187.300953 
L 312.529058 188.334563 
z
" clip-path="url(#pe5f7ec97dc)" style="fill: #0000ff"/>
   </g>
   <g id="patch_41">
    <path d="M 291.282565 173.692457 
L 312.529058 173.692457 
L 312.529058 175.610277 
L 304.885262 175.610277 
L 304.885262 183.526027 
L 298.941185 183.526027 
L 298.941185 175.610277 
L 291.282565 175.610277 
L 291.282565 173.692457 
z
" clip-path="url(#pe5f7ec97dc)" style="fill: #ff0000"/>
   </g>
   <g id="patch_42">
    <path d="M 306.00003 170.778101 
L 297.82897 170.778101 
L 296.538802 173.692457 
L 291.282565 173.692457 
L 298.788993 157.694358 
L 305.02263 157.694358 
L 312.529058 173.692457 
L 307.277165 173.692457 
L 306.00003 170.778101 
z
M 299.132169 167.808887 
L 304.683798 167.808887 
L 301.912328 161.445305 
L 299.132169 167.808887 
z
" clip-path="url(#pe5f7ec97dc)" style="fill: #008000"/>
   </g>
   <g id="patch_43">
    <path d="M 334.893788 192.112272 
Q 333.116555 192.175584 331.194789 192.207608 
Q 329.273022 192.24 327.179956 192.24 
Q 320.93823 192.24 317.292762 192.000004 
Q 313.647295 191.760009 313.647295 191.349587 
Q 313.647295 190.937692 317.292762 190.698065 
Q 320.93823 190.458069 327.179956 190.458069 
Q 329.273022 190.458069 331.194789 190.490461 
Q 333.116555 190.522485 334.893788 190.585797 
L 334.893788 190.941005 
Q 333.100496 190.85708 331.360735 190.818062 
Q 329.620974 190.779045 327.699208 190.779045 
Q 324.251805 190.779045 322.276508 190.931067 
Q 320.306563 191.08272 320.306563 191.349587 
Q 320.306563 191.615349 322.276508 191.76737 
Q 324.251805 191.919024 327.699208 191.919024 
Q 329.620974 191.919024 331.360735 191.880006 
Q 333.100496 191.840621 334.893788 191.756696 
L 334.893788 192.112272 
z
" clip-path="url(#pe5f7ec97dc)" style="fill: #0000ff"/>
   </g>
   <g id="patch_44">
    <path d="M 334.893788 190.19899 
Q 332.751044 190.328529 330.446404 190.393595 
Q 328.141764 190.458069 325.684752 190.458069 
Q 320.132665 190.458069 316.88998 190.072407 
Q 313.647295 189.686746 313.647295 189.027217 
Q 313.647295 188.359999 316.94712 187.977295 
Q 320.251706 187.594591 325.999021 187.594591 
Q 328.213189 187.594591 330.241653 187.646644 
Q 332.274879 187.698105 334.074783 187.799844 
L 334.074783 188.370646 
Q 332.217739 188.239924 330.379741 188.17545 
Q 328.541743 188.110384 326.694222 188.110384 
Q 323.275356 188.110384 321.423073 188.348169 
Q 319.57079 188.585363 319.57079 189.027217 
Q 319.57079 189.464931 321.35641 189.7039 
Q 323.142029 189.942276 326.42757 189.942276 
Q 327.32276 189.942276 328.089386 189.928672 
Q 328.856012 189.914475 329.465504 189.8849 
L 329.465504 189.348996 
L 325.965689 189.348996 
L 325.965689 188.871651 
L 334.893788 188.871651 
L 334.893788 190.19899 
z
" clip-path="url(#pe5f7ec97dc)" style="fill: #ffa600"/>
   </g>
   <g id="patch_45">
    <path d="M 328.364759 187.059068 
L 320.193699 187.059068 
L 318.903532 187.594591 
L 313.647295 187.594591 
L 321.153723 184.654881 
L 327.387359 184.654881 
L 334.893788 187.594591 
L 329.641894 187.594591 
L 328.364759 187.059068 
z
M 321.496899 186.513464 
L 327.048528 186.513464 
L 324.277057 185.344132 
L 321.496899 186.513464 
z
" clip-path="url(#pe5f7ec97dc)" style="fill: #008000"/>
   </g>
   <g id="patch_46">
    <path d="M 313.647295 180.03806 
L 334.893788 180.03806 
L 334.893788 180.938469 
L 327.249991 180.938469 
L 327.249991 184.654881 
L 321.305914 184.654881 
L 321.305914 180.938469 
L 313.647295 180.938469 
L 313.647295 180.03806 
z
" clip-path="url(#pe5f7ec97dc)" style="fill: #ff0000"/>
   </g>
   <g id="patch_47">
    <path d="M 350.729488 191.159361 
L 342.558429 191.159361 
L 341.268261 192.24 
L 336.012024 192.24 
L 343.518452 186.307926 
L 349.752089 186.307926 
L 357.258517 192.24 
L 352.006624 192.24 
L 350.729488 191.159361 
z
M 343.861628 190.05838 
L 349.413257 190.05838 
L 346.641787 187.698772 
L 343.861628 190.05838 
z
" clip-path="url(#pe5f7ec97dc)" style="fill: #008000"/>
   </g>
   <g id="patch_48">
    <path d="M 336.012024 180.210614 
L 357.258517 180.210614 
L 357.258517 181.399759 
L 349.614721 181.399759 
L 349.614721 186.307926 
L 343.670644 186.307926 
L 343.670644 181.399759 
L 336.012024 181.399759 
L 336.012024 180.210614 
z
" clip-path="url(#pe5f7ec97dc)" style="fill: #ff0000"/>
   </g>
   <g id="patch_49">
    <path d="M 357.258517 179.522898 
Q 355.115773 179.866756 352.811134 180.03947 
Q 350.506494 180.210614 348.049481 180.210614 
Q 342.497395 180.210614 339.254709 179.186891 
Q 336.012024 178.163168 336.012024 176.412476 
Q 336.012024 174.641372 339.311849 173.6255 
Q 342.616436 172.609628 348.36375 172.609628 
Q 350.577919 172.609628 352.606383 172.747799 
Q 354.639608 172.8844 356.439513 173.154462 
L 356.439513 174.669635 
Q 354.582468 174.322636 352.744471 174.151493 
Q 350.906473 173.978779 349.058952 173.978779 
Q 345.640085 173.978779 343.787802 174.60997 
Q 341.93552 175.239591 341.93552 176.412476 
Q 341.93552 177.57437 343.721139 178.208701 
Q 345.506759 178.841463 348.792299 178.841463 
Q 349.68749 178.841463 350.454116 178.80535 
Q 351.220742 178.767667 351.830233 178.68916 
L 351.830233 177.266625 
L 348.330419 177.266625 
L 348.330419 175.999532 
L 357.258517 175.999532 
L 357.258517 179.522898 
z
" clip-path="url(#pe5f7ec97dc)" style="fill: #ffa600"/>
   </g>
   <g id="patch_50">
    <path d="M 357.258517 170.983416 
Q 355.481285 171.789492 353.559518 172.197217 
Q 351.637752 172.609628 349.544686 172.609628 
Q 343.30296 172.609628 339.657492 169.554037 
Q 336.012024 166.498447 336.012024 161.273012 
Q 336.012024 156.028831 339.657492 152.977927 
Q 343.30296 149.922337 349.544686 149.922337 
Q 351.637752 149.922337 353.559518 150.334748 
Q 355.481285 150.742472 357.258517 151.548548 
L 357.258517 156.07101 
Q 355.465225 155.00249 353.725465 154.505723 
Q 351.985704 154.008955 350.063937 154.008955 
Q 346.616535 154.008955 344.641237 155.944475 
Q 342.671293 157.875308 342.671293 161.273012 
Q 342.671293 164.656657 344.641237 166.592176 
Q 346.616535 168.52301 350.063937 168.52301 
Q 351.985704 168.52301 353.725465 168.026242 
Q 355.465225 167.524788 357.258517 166.456268 
L 357.258517 170.983416 
z
" clip-path="url(#pe5f7ec97dc)" style="fill: #0000ff"/>
   </g>
   <g id="patch_51">
    <path d="M 358.376754 182.52839 
L 379.623246 182.52839 
L 379.623246 184.422425 
L 371.97945 184.422425 
L 371.97945 192.24 
L 366.035373 192.24 
L 366.035373 184.422425 
L 358.376754 184.422425 
L 358.376754 182.52839 
z
" clip-path="url(#pe5f7ec97dc)" style="fill: #ff0000"/>
   </g>
   <g id="patch_52">
    <path d="M 379.623246 181.820856 
Q 377.846014 182.171565 375.924248 182.348958 
Q 374.002481 182.52839 371.909415 182.52839 
Q 365.667689 182.52839 362.022221 181.19896 
Q 358.376754 179.86953 358.376754 177.596041 
Q 358.376754 175.314396 362.022221 173.987004 
Q 365.667689 172.657574 371.909415 172.657574 
Q 374.002481 172.657574 375.924248 172.837006 
Q 377.846014 173.0144 379.623246 173.365108 
L 379.623246 175.332747 
Q 377.829955 174.867854 376.090194 174.651719 
Q 374.350433 174.435585 372.428667 174.435585 
Q 368.981264 174.435585 367.005967 175.277694 
Q 365.036022 176.117763 365.036022 177.596041 
Q 365.036022 179.068201 367.005967 179.91031 
Q 368.981264 180.750379 372.428667 180.750379 
Q 374.350433 180.750379 376.090194 180.534245 
Q 377.829955 180.316071 379.623246 179.851179 
L 379.623246 181.820856 
z
" clip-path="url(#pe5f7ec97dc)" style="fill: #0000ff"/>
   </g>
   <g id="patch_53">
    <path d="M 379.623246 171.66846 
Q 377.480503 172.163017 375.175863 172.411424 
Q 372.871223 172.657574 370.414211 172.657574 
Q 364.862124 172.657574 361.619439 171.185194 
Q 358.376754 169.712814 358.376754 167.194864 
Q 358.376754 164.647557 361.676579 163.186468 
Q 364.981165 161.725379 370.72848 161.725379 
Q 372.942648 161.725379 374.971112 161.924105 
Q 377.004338 162.120573 378.804242 162.508993 
L 378.804242 164.688205 
Q 376.947198 164.189132 375.1092 163.942982 
Q 373.271202 163.694574 371.423681 163.694574 
Q 368.004815 163.694574 366.152532 164.602392 
Q 364.300249 165.50795 364.300249 167.194864 
Q 364.300249 168.86597 366.085869 169.778303 
Q 367.871488 170.688379 371.157029 170.688379 
Q 372.052219 170.688379 372.818845 170.636439 
Q 373.585471 170.582241 374.194963 170.469328 
L 374.194963 168.423353 
L 370.695148 168.423353 
L 370.695148 166.600944 
L 379.623246 166.600944 
L 379.623246 171.66846 
z
" clip-path="url(#pe5f7ec97dc)" style="fill: #ffa600"/>
   </g>
   <g id="patch_54">
    <path d="M 373.094218 142.525718 
L 364.923158 142.525718 
L 363.632991 161.725379 
L 358.376754 161.725379 
L 365.883182 56.330533 
L 372.116818 56.330533 
L 379.623246 161.725379 
L 374.371353 161.725379 
L 373.094218 142.525718 
z
M 366.226357 122.964652 
L 371.777987 122.964652 
L 369.006516 81.041627 
L 366.226357 122.964652 
z
" clip-path="url(#pe5f7ec97dc)" style="fill: #008000"/>
   </g>
   <g id="patch_55">
    <path d="M 401.987976 192.14318 
Q 400.210743 192.191172 398.288977 192.215446 
Q 396.367211 192.24 394.274145 192.24 
Q 388.032419 192.24 384.386951 192.05808 
Q 380.741483 191.876159 380.741483 191.565054 
Q 380.741483 191.252832 384.386951 191.07119 
Q 388.032419 190.88927 394.274145 190.88927 
Q 396.367211 190.88927 398.288977 190.913824 
Q 400.210743 190.938098 401.987976 190.98609 
L 401.987976 191.255343 
Q 400.194684 191.191726 398.454923 191.16215 
Q 396.715163 191.132574 394.793396 191.132574 
Q 391.345994 191.132574 389.370696 191.247809 
Q 387.400752 191.362765 387.400752 191.565054 
Q 387.400752 191.766505 389.370696 191.88174 
Q 391.345994 191.996696 394.793396 191.996696 
Q 396.715163 191.996696 398.454923 191.96712 
Q 400.194684 191.937265 401.987976 191.873648 
L 401.987976 192.14318 
z
" clip-path="url(#pe5f7ec97dc)" style="fill: #0000ff"/>
   </g>
   <g id="patch_56">
    <path d="M 401.987976 190.674731 
Q 399.845232 190.782 397.540593 190.83588 
Q 395.235953 190.88927 392.77894 190.88927 
Q 387.226854 190.88927 383.984168 190.56991 
Q 380.741483 190.25055 380.741483 189.704405 
Q 380.741483 189.151893 384.041308 188.834982 
Q 387.345895 188.518071 393.093209 188.518071 
Q 395.307378 188.518071 397.335842 188.561175 
Q 399.369067 188.603789 401.168972 188.688037 
L 401.168972 189.16071 
Q 399.311927 189.05246 397.473929 188.99907 
Q 395.635932 188.945191 393.788411 188.945191 
Q 390.369544 188.945191 388.517261 189.142097 
Q 386.664979 189.338513 386.664979 189.704405 
Q 386.664979 190.066869 388.450598 190.264755 
Q 390.236218 190.462151 393.521758 190.462151 
Q 394.416949 190.462151 395.183575 190.450885 
Q 395.950201 190.439129 396.559692 190.414638 
L 396.559692 189.970865 
L 393.059878 189.970865 
L 393.059878 189.575584 
L 401.987976 189.575584 
L 401.987976 190.674731 
z
" clip-path="url(#pe5f7ec97dc)" style="fill: #ffa600"/>
   </g>
   <g id="patch_57">
    <path d="M 380.741483 185.953911 
L 401.987976 185.953911 
L 401.987976 186.453993 
L 394.34418 186.453993 
L 394.34418 188.518071 
L 388.400103 188.518071 
L 388.400103 186.453993 
L 380.741483 186.453993 
L 380.741483 185.953911 
z
" clip-path="url(#pe5f7ec97dc)" style="fill: #ff0000"/>
   </g>
   <g id="patch_58">
    <path d="M 395.458947 185.367826 
L 387.287888 185.367826 
L 385.99772 185.953911 
L 380.741483 185.953911 
L 388.247911 182.73665 
L 394.481548 182.73665 
L 401.987976 185.953911 
L 396.736083 185.953911 
L 395.458947 185.367826 
z
M 388.591087 184.770709 
L 394.142716 184.770709 
L 391.371245 183.490975 
L 388.591087 184.770709 
z
" clip-path="url(#pe5f7ec97dc)" style="fill: #008000"/>
   </g>
   <g id="patch_59">
    <path d="M 424.352705 191.489728 
Q 422.209962 191.864864 419.905322 192.053288 
Q 417.600682 192.24 415.14367 192.24 
Q 409.591583 192.24 406.348898 191.123156 
Q 403.106212 190.006312 403.106212 188.096372 
Q 403.106212 186.164164 406.406038 185.055885 
Q 409.710624 183.947606 415.457939 183.947606 
Q 417.672107 183.947606 419.700571 184.098345 
Q 421.733797 184.247372 423.533701 184.541999 
L 423.533701 186.194997 
Q 421.676657 185.816435 419.838659 185.629723 
Q 418.000661 185.441299 416.15314 185.441299 
Q 412.734274 185.441299 410.881991 186.129905 
Q 409.029708 186.816798 409.029708 188.096372 
Q 409.029708 189.363956 410.815328 190.055988 
Q 412.600947 190.746307 415.886487 190.746307 
Q 416.781678 190.746307 417.548304 190.706909 
Q 418.31493 190.665798 418.924422 190.580151 
L 418.924422 189.028217 
L 415.424607 189.028217 
L 415.424607 187.645866 
L 424.352705 187.645866 
L 424.352705 191.489728 
z
" clip-path="url(#pe5f7ec97dc)" style="fill: #ffa600"/>
   </g>
   <g id="patch_60">
    <path d="M 403.106212 172.737517 
L 424.352705 172.737517 
L 424.352705 174.923796 
L 416.708909 174.923796 
L 416.708909 183.947606 
L 410.764832 183.947606 
L 410.764832 174.923796 
L 403.106212 174.923796 
L 403.106212 172.737517 
z
" clip-path="url(#pe5f7ec97dc)" style="fill: #ff0000"/>
   </g>
   <g id="patch_61">
    <path d="M 417.823677 170.686063 
L 409.652617 170.686063 
L 408.36245 172.737517 
L 403.106212 172.737517 
L 410.612641 161.47624 
L 416.846277 161.47624 
L 424.352705 172.737517 
L 419.100812 172.737517 
L 417.823677 170.686063 
z
M 410.955816 168.595993 
L 416.507445 168.595993 
L 413.735975 164.116582 
L 410.955816 168.595993 
z
" clip-path="url(#pe5f7ec97dc)" style="fill: #008000"/>
   </g>
   <g id="patch_62">
    <path d="M 424.352705 154.284808 
Q 422.575473 157.849437 420.653707 159.652476 
Q 418.73194 161.47624 416.638874 161.47624 
Q 410.397148 161.47624 406.75168 147.963808 
Q 403.106212 134.451376 403.106212 111.343459 
Q 403.106212 88.152644 406.75168 74.660937 
Q 410.397148 61.148504 416.638874 61.148504 
Q 418.73194 61.148504 420.653707 62.972268 
Q 422.575473 64.775308 424.352705 68.339937 
L 424.352705 88.339165 
Q 422.559414 83.613959 420.819653 81.417153 
Q 419.079892 79.220346 417.158126 79.220346 
Q 413.710723 79.220346 411.735425 87.779601 
Q 409.765481 96.318132 409.765481 111.343459 
Q 409.765481 126.306613 411.735425 134.865868 
Q 413.710723 143.404399 417.158126 143.404399 
Q 419.079892 143.404399 420.819653 141.207592 
Q 422.559414 138.990061 424.352705 134.264855 
L 424.352705 154.284808 
z
" clip-path="url(#pe5f7ec97dc)" style="fill: #0000ff"/>
   </g>
   <g id="patch_63">
    <path d="M 446.717435 192.098993 
Q 444.574691 192.169497 442.270052 192.204909 
Q 439.965412 192.24 437.508399 192.24 
Q 431.956312 192.24 428.713627 192.0301 
Q 425.470942 191.820199 425.470942 191.461243 
Q 425.470942 191.098103 428.770767 190.889812 
Q 432.075354 190.681521 437.822668 190.681521 
Q 440.036837 190.681521 442.0653 190.709851 
Q 444.098526 190.737859 445.898431 190.793232 
L 445.898431 191.103898 
Q 444.041386 191.03275 442.203388 190.99766 
Q 440.365391 190.962247 438.517869 190.962247 
Q 435.099003 190.962247 433.24672 191.091664 
Q 431.394437 191.220759 431.394437 191.461243 
Q 431.394437 191.699474 433.180057 191.829535 
Q 434.965677 191.959274 438.251217 191.959274 
Q 439.146408 191.959274 439.913034 191.95187 
Q 440.67966 191.944143 441.289151 191.928047 
L 441.289151 191.636375 
L 437.789337 191.636375 
L 437.789337 191.376575 
L 446.717435 191.376575 
L 446.717435 192.098993 
z
" clip-path="url(#pe5f7ec97dc)" style="fill: #ffa600"/>
   </g>
   <g id="patch_64">
    <path d="M 446.717435 190.489734 
Q 444.940202 190.584799 443.018436 190.632884 
Q 441.09667 190.681521 439.003604 190.681521 
Q 432.761877 190.681521 429.11641 190.321161 
Q 425.470942 189.960801 425.470942 189.344541 
Q 425.470942 188.72607 429.11641 188.366263 
Q 432.761877 188.005902 439.003604 188.005902 
Q 441.09667 188.005902 443.018436 188.05454 
Q 444.940202 188.102625 446.717435 188.197689 
L 446.717435 188.731044 
Q 444.924143 188.605029 443.184382 188.546443 
Q 441.444622 188.487856 439.522855 188.487856 
Q 436.075452 188.487856 434.100155 188.716121 
Q 432.130211 188.943834 432.130211 189.344541 
Q 432.130211 189.74359 434.100155 189.971855 
Q 436.075452 190.199567 439.522855 190.199567 
Q 441.444622 190.199567 443.184382 190.140981 
Q 444.924143 190.081842 446.717435 189.955827 
L 446.717435 190.489734 
z
" clip-path="url(#pe5f7ec97dc)" style="fill: #0000ff"/>
   </g>
   <g id="patch_65">
    <path d="M 440.188406 187.32168 
L 432.017346 187.32168 
L 430.727179 188.005902 
L 425.470942 188.005902 
L 432.97737 184.249922 
L 439.211007 184.249922 
L 446.717435 188.005902 
L 441.465542 188.005902 
L 440.188406 187.32168 
z
M 433.320546 186.624577 
L 438.872175 186.624577 
L 436.100704 185.130557 
L 433.320546 186.624577 
z
" clip-path="url(#pe5f7ec97dc)" style="fill: #008000"/>
   </g>
   <g id="patch_66">
    <path d="M 425.470942 180.466358 
L 446.717435 180.466358 
L 446.717435 181.204259 
L 439.073638 181.204259 
L 439.073638 184.249922 
L 433.129561 184.249922 
L 433.129561 181.204259 
L 425.470942 181.204259 
L 425.470942 180.466358 
z
" clip-path="url(#pe5f7ec97dc)" style="fill: #ff0000"/>
   </g>
   <g id="patch_67">
    <path d="M 469.082164 191.97319 
Q 467.304932 192.105442 465.383165 192.172336 
Q 463.461399 192.24 461.368333 192.24 
Q 455.126607 192.24 451.481139 191.738674 
Q 447.835671 191.237349 447.835671 190.380021 
Q 447.835671 189.519617 451.481139 189.01906 
Q 455.126607 188.517735 461.368333 188.517735 
Q 463.461399 188.517735 465.383165 188.585398 
Q 467.304932 188.652293 469.082164 188.784544 
L 469.082164 189.526537 
Q 467.288873 189.351227 465.549112 189.269723 
Q 463.809351 189.188219 461.887585 189.188219 
Q 458.440182 189.188219 456.464884 189.505777 
Q 454.49494 189.822565 454.49494 190.380021 
Q 454.49494 190.93517 456.464884 191.252727 
Q 458.440182 191.569516 461.887585 191.569516 
Q 463.809351 191.569516 465.549112 191.488012 
Q 467.288873 191.405739 469.082164 191.230429 
L 469.082164 191.97319 
z
" clip-path="url(#pe5f7ec97dc)" style="fill: #0000ff"/>
   </g>
   <g id="patch_68">
    <path d="M 447.835671 183.698626 
L 469.082164 183.698626 
L 469.082164 184.638486 
L 461.438368 184.638486 
L 461.438368 188.517735 
L 455.494291 188.517735 
L 455.494291 184.638486 
L 447.835671 184.638486 
L 447.835671 183.698626 
z
" clip-path="url(#pe5f7ec97dc)" style="fill: #ff0000"/>
   </g>
   <g id="patch_69">
    <path d="M 469.082164 183.03879 
Q 466.939421 183.368708 464.634781 183.53442 
Q 462.330141 183.698626 459.873129 183.698626 
Q 454.321042 183.698626 451.078357 182.716405 
Q 447.835671 181.734184 447.835671 180.054466 
Q 447.835671 178.355163 451.135496 177.380475 
Q 454.440083 176.405786 460.187398 176.405786 
Q 462.401566 176.405786 464.43003 176.538356 
Q 466.463256 176.669419 468.26316 176.928533 
L 468.26316 178.38228 
Q 466.406116 178.049349 464.568118 177.885144 
Q 462.73012 177.719431 460.882599 177.719431 
Q 457.463732 177.719431 455.61145 178.325034 
Q 453.759167 178.92913 453.759167 180.054466 
Q 453.759167 181.169256 455.544787 181.777872 
Q 457.330406 182.384981 460.615946 182.384981 
Q 461.511137 182.384981 462.277763 182.350332 
Q 463.044389 182.314177 463.653881 182.238853 
L 463.653881 180.873988 
L 460.154066 180.873988 
L 460.154066 179.658263 
L 469.082164 179.658263 
L 469.082164 183.03879 
z
" clip-path="url(#pe5f7ec97dc)" style="fill: #ffa600"/>
   </g>
   <g id="patch_70">
    <path d="M 462.553136 173.846509 
L 454.382076 173.846509 
L 453.091909 176.405786 
L 447.835671 176.405786 
L 455.342099 162.35686 
L 461.575736 162.35686 
L 469.082164 176.405786 
L 463.830271 176.405786 
L 462.553136 173.846509 
z
M 455.685275 171.239057 
L 461.236904 171.239057 
L 458.465434 165.6508 
L 455.685275 171.239057 
z
" clip-path="url(#pe5f7ec97dc)" style="fill: #008000"/>
   </g>
   <g id="patch_71">
    <path d="M 491.446894 192.110594 
Q 489.30415 192.175297 486.99951 192.207796 
Q 484.694871 192.24 482.237858 192.24 
Q 476.685771 192.24 473.443086 192.047368 
Q 470.200401 191.854736 470.200401 191.525312 
Q 470.200401 191.192047 473.500226 191.000892 
Q 476.804813 190.809737 482.552127 190.809737 
Q 484.766295 190.809737 486.794759 190.835737 
Q 488.827985 190.861441 490.62789 190.912258 
L 490.62789 191.197365 
Q 488.770845 191.132071 486.932847 191.099867 
Q 485.094849 191.067368 483.247328 191.067368 
Q 479.828462 191.067368 477.976179 191.186138 
Q 476.123896 191.304612 476.123896 191.525312 
Q 476.123896 191.743943 477.909516 191.863304 
Q 479.695136 191.98237 482.980676 191.98237 
Q 483.875866 191.98237 484.642493 191.975574 
Q 485.409119 191.968484 486.01861 191.953711 
L 486.01861 191.686035 
L 482.518796 191.686035 
L 482.518796 191.447609 
L 491.446894 191.447609 
L 491.446894 192.110594 
z
" clip-path="url(#pe5f7ec97dc)" style="fill: #ffa600"/>
   </g>
   <g id="patch_72">
    <path d="M 491.446894 190.676969 
Q 489.669661 190.742779 487.747895 190.776067 
Q 485.826128 190.809737 483.733062 190.809737 
Q 477.491336 190.809737 473.845869 190.56027 
Q 470.200401 190.310803 470.200401 189.884184 
Q 470.200401 189.456034 473.845869 189.20695 
Q 477.491336 188.957483 483.733062 188.957483 
Q 485.826128 188.957483 487.747895 188.991153 
Q 489.669661 189.024441 491.446894 189.090252 
L 491.446894 189.459478 
Q 489.653602 189.372241 487.913841 189.331684 
Q 486.174081 189.291126 484.252314 189.291126 
Q 480.804911 189.291126 478.829614 189.449147 
Q 476.859669 189.606786 476.859669 189.884184 
Q 476.859669 190.160434 478.829614 190.318456 
Q 480.804911 190.476094 484.252314 190.476094 
Q 486.174081 190.476094 487.913841 190.435537 
Q 489.653602 190.394597 491.446894 190.30736 
L 491.446894 190.676969 
z
" clip-path="url(#pe5f7ec97dc)" style="fill: #0000ff"/>
   </g>
   <g id="patch_73">
    <path d="M 484.917865 188.597174 
L 476.746805 188.597174 
L 475.456638 188.957483 
L 470.200401 188.957483 
L 477.706829 186.979597 
L 483.940466 186.979597 
L 491.446894 188.957483 
L 486.195001 188.957483 
L 484.917865 188.597174 
z
M 478.050005 188.230082 
L 483.601634 188.230082 
L 480.830163 187.443337 
L 478.050005 188.230082 
z
" clip-path="url(#pe5f7ec97dc)" style="fill: #008000"/>
   </g>
   <g id="patch_74">
    <path d="M 470.200401 183.99022 
L 491.446894 183.99022 
L 491.446894 184.573232 
L 483.803097 184.573232 
L 483.803097 186.979597 
L 477.85902 186.979597 
L 477.85902 184.573232 
L 470.200401 184.573232 
L 470.200401 183.99022 
z
" clip-path="url(#pe5f7ec97dc)" style="fill: #ff0000"/>
   </g>
   <g id="patch_75">
    <path d="M 513.811623 192.169157 
Q 511.66888 192.204579 509.36424 192.22237 
Q 507.0596 192.24 504.602588 192.24 
Q 499.050501 192.24 495.807816 192.134545 
Q 492.56513 192.029089 492.56513 191.848747 
Q 492.56513 191.666303 495.864955 191.561656 
Q 499.169542 191.457009 504.916857 191.457009 
Q 507.131025 191.457009 509.159489 191.471243 
Q 511.192714 191.485314 512.992619 191.513134 
L 512.992619 191.669214 
Q 511.135575 191.633469 509.297577 191.615839 
Q 507.459579 191.598048 505.612058 191.598048 
Q 502.193191 191.598048 500.340909 191.663068 
Q 498.488626 191.727926 498.488626 191.848747 
Q 498.488626 191.968436 500.274245 192.03378 
Q 502.059865 192.098961 505.345405 192.098961 
Q 506.240596 192.098961 507.007222 192.095241 
Q 507.773848 192.09136 508.38334 192.083272 
L 508.38334 191.936735 
L 504.883525 191.936735 
L 504.883525 191.806209 
L 513.811623 191.806209 
L 513.811623 192.169157 
z
" clip-path="url(#pe5f7ec97dc)" style="fill: #ffa600"/>
   </g>
   <g id="patch_76">
    <path d="M 507.282595 191.242068 
L 499.111535 191.242068 
L 497.821368 191.457009 
L 492.56513 191.457009 
L 500.071558 190.277111 
L 506.305195 190.277111 
L 513.811623 191.457009 
L 508.55973 191.457009 
L 507.282595 191.242068 
z
M 500.414734 191.023082 
L 505.966363 191.023082 
L 503.194893 190.553752 
L 500.414734 191.023082 
z
" clip-path="url(#pe5f7ec97dc)" style="fill: #008000"/>
   </g>
   <g id="patch_77">
    <path d="M 492.56513 189.007006 
L 513.811623 189.007006 
L 513.811623 189.254712 
L 506.167827 189.254712 
L 506.167827 190.277111 
L 500.22375 190.277111 
L 500.22375 189.254712 
L 492.56513 189.254712 
L 492.56513 189.007006 
z
" clip-path="url(#pe5f7ec97dc)" style="fill: #ff0000"/>
   </g>
   <g id="patch_78">
    <path d="M 513.811623 188.90756 
Q 512.034391 188.956853 510.112624 188.981786 
Q 508.190858 189.007006 506.097792 189.007006 
Q 499.856066 189.007006 496.210598 188.820151 
Q 492.56513 188.633295 492.56513 188.313749 
Q 492.56513 187.993057 496.210598 187.806489 
Q 499.856066 187.619633 506.097792 187.619633 
Q 508.190858 187.619633 510.112624 187.644853 
Q 512.034391 187.669786 513.811623 187.719079 
L 513.811623 187.995637 
Q 512.018331 187.930295 510.278571 187.899916 
Q 508.53881 187.869538 506.617044 187.869538 
Q 503.169641 187.869538 501.194343 187.987899 
Q 499.224399 188.105973 499.224399 188.313749 
Q 499.224399 188.520666 501.194343 188.639027 
Q 503.169641 188.757101 506.617044 188.757101 
Q 508.53881 188.757101 510.278571 188.726723 
Q 512.018331 188.696058 513.811623 188.630716 
L 513.811623 188.90756 
z
" clip-path="url(#pe5f7ec97dc)" style="fill: #0000ff"/>
   </g>
   <g id="patch_79">
    <path d="M 536.176353 192.001839 
Q 534.033609 192.120919 531.728969 192.180732 
Q 529.42433 192.24 526.967317 192.24 
Q 521.41523 192.24 518.172545 191.885477 
Q 514.92986 191.530954 514.92986 190.924676 
Q 514.92986 190.31133 518.229685 189.959526 
Q 521.534272 189.607722 527.281586 189.607722 
Q 529.495754 189.607722 531.524218 189.655571 
Q 533.557444 189.702877 535.357348 189.796402 
L 535.357348 190.321118 
Q 533.500304 190.200949 531.662306 190.141681 
Q 529.824308 190.081869 527.976787 190.081869 
Q 524.557921 190.081869 522.705638 190.300455 
Q 520.853355 190.518498 520.853355 190.924676 
Q 520.853355 191.327049 522.638975 191.546723 
Q 524.424595 191.765853 527.710135 191.765853 
Q 528.605325 191.765853 529.371951 191.753347 
Q 530.138577 191.740297 530.748069 191.713109 
L 530.748069 191.220475 
L 527.248254 191.220475 
L 527.248254 190.781671 
L 536.176353 190.781671 
L 536.176353 192.001839 
z
" clip-path="url(#pe5f7ec97dc)" style="fill: #ffa600"/>
   </g>
   <g id="patch_80">
    <path d="M 529.647324 188.975348 
L 521.476264 188.975348 
L 520.186097 189.607722 
L 514.92986 189.607722 
L 522.436288 186.136362 
L 528.669925 186.136362 
L 536.176353 189.607722 
L 530.924459 189.607722 
L 529.647324 188.975348 
z
M 522.779464 188.331071 
L 528.331093 188.331071 
L 525.559622 186.950264 
L 522.779464 188.331071 
z
" clip-path="url(#pe5f7ec97dc)" style="fill: #008000"/>
   </g>
   <g id="patch_81">
    <path d="M 536.176353 185.85504 
Q 534.39912 185.994485 532.477354 186.065018 
Q 530.555587 186.136362 528.462521 186.136362 
Q 522.220795 186.136362 518.575328 185.607768 
Q 514.92986 185.079173 514.92986 184.175212 
Q 514.92986 183.268007 518.575328 182.740223 
Q 522.220795 182.211629 528.462521 182.211629 
Q 530.555587 182.211629 532.477354 182.282973 
Q 534.39912 182.353506 536.176353 182.492951 
L 536.176353 183.275304 
Q 534.383061 183.090458 532.6433 183.004521 
Q 530.90354 182.918583 528.981773 182.918583 
Q 525.53437 182.918583 523.559073 183.253414 
Q 521.589128 183.587434 521.589128 184.175212 
Q 521.589128 184.760557 523.559073 185.095388 
Q 525.53437 185.429408 528.981773 185.429408 
Q 530.90354 185.429408 532.6433 185.343471 
Q 534.383061 185.256723 536.176353 185.071877 
L 536.176353 185.85504 
z
" clip-path="url(#pe5f7ec97dc)" style="fill: #0000ff"/>
   </g>
   <g id="patch_82">
    <path d="M 514.92986 174.910271 
L 536.176353 174.910271 
L 536.176353 176.334239 
L 528.532556 176.334239 
L 528.532556 182.211629 
L 522.588479 182.211629 
L 522.588479 176.334239 
L 514.92986 176.334239 
L 514.92986 174.910271 
z
" clip-path="url(#pe5f7ec97dc)" style="fill: #ff0000"/>
   </g>
   <g id="patch_83">
    <path d="M 552.012054 191.202083 
L 543.840994 191.202083 
L 542.550826 192.24 
L 537.294589 192.24 
L 544.801017 186.542447 
L 551.034654 186.542447 
L 558.541082 192.24 
L 553.289189 192.24 
L 552.012054 191.202083 
z
M 545.144193 190.144629 
L 550.695822 190.144629 
L 547.924352 187.878307 
L 545.144193 190.144629 
z
" clip-path="url(#pe5f7ec97dc)" style="fill: #008000"/>
   </g>
   <g id="patch_84">
    <path d="M 558.541082 186.023293 
Q 556.398339 186.28287 554.093699 186.413251 
Q 551.789059 186.542447 549.332046 186.542447 
Q 543.77996 186.542447 540.537274 185.769642 
Q 537.294589 184.996837 537.294589 183.675245 
Q 537.294589 182.338244 540.594414 181.571365 
Q 543.899001 180.804486 549.646315 180.804486 
Q 551.860484 180.804486 553.888948 180.908791 
Q 555.922173 181.011911 557.722078 181.21578 
L 557.722078 182.359579 
Q 555.865034 182.097631 554.027036 181.968436 
Q 552.189038 181.838054 550.341517 181.838054 
Q 546.92265 181.838054 545.070368 182.314538 
Q 543.218085 182.789837 543.218085 183.675245 
Q 543.218085 184.552355 545.003704 185.03121 
Q 546.789324 185.508879 550.074864 185.508879 
Q 550.970055 185.508879 551.736681 185.481618 
Q 552.503307 185.453171 553.112798 185.393907 
L 553.112798 184.320039 
L 549.612984 184.320039 
L 549.612984 183.363515 
L 558.541082 183.363515 
L 558.541082 186.023293 
z
" clip-path="url(#pe5f7ec97dc)" style="fill: #ffa600"/>
   </g>
   <g id="patch_85">
    <path d="M 537.294589 168.843667 
L 558.541082 168.843667 
L 558.541082 171.17636 
L 550.897286 171.17636 
L 550.897286 180.804486 
L 544.953209 180.804486 
L 544.953209 171.17636 
L 537.294589 171.17636 
L 537.294589 168.843667 
z
" clip-path="url(#pe5f7ec97dc)" style="fill: #ff0000"/>
   </g>
   <g id="patch_86">
    <path d="M 558.541082 166.811818 
Q 556.76385 167.818959 554.842083 168.328385 
Q 552.920317 168.843667 550.827251 168.843667 
Q 544.585525 168.843667 540.940057 165.025899 
Q 537.294589 161.208132 537.294589 154.679282 
Q 537.294589 148.12701 540.940057 144.315099 
Q 544.585525 140.497332 550.827251 140.497332 
Q 552.920317 140.497332 554.842083 141.012613 
Q 556.76385 141.522039 558.541082 142.52918 
L 558.541082 148.17971 
Q 556.74779 146.844662 555.00803 146.223982 
Q 553.268269 145.603302 551.346503 145.603302 
Q 547.8991 145.603302 545.923802 148.021612 
Q 543.953858 150.434066 543.953858 154.679282 
Q 543.953858 158.906932 545.923802 161.325242 
Q 547.8991 163.737696 551.346503 163.737696 
Q 553.268269 163.737696 555.00803 163.117016 
Q 556.74779 162.490481 558.541082 161.155433 
L 558.541082 166.811818 
z
" clip-path="url(#pe5f7ec97dc)" style="fill: #0000ff"/>
   </g>
   <g id="patch_87">
    <path d="M 580.905812 191.984933 
Q 578.763068 192.112467 576.458428 192.176524 
Q 574.153789 192.24 571.696776 192.24 
Q 566.144689 192.24 562.902004 191.860311 
Q 559.659319 191.480623 559.659319 190.831308 
Q 559.659319 190.174424 562.959144 189.797647 
Q 566.263731 189.42087 572.011045 189.42087 
Q 574.225213 189.42087 576.253677 189.472116 
Q 578.286903 189.52278 580.086807 189.622943 
L 580.086807 190.184906 
Q 578.229763 190.056208 576.391765 189.992732 
Q 574.553767 189.928674 572.706246 189.928674 
Q 569.28738 189.928674 567.435097 190.162777 
Q 565.582814 190.396297 565.582814 190.831308 
Q 565.582814 191.262243 567.368434 191.497511 
Q 569.154054 191.732196 572.439594 191.732196 
Q 573.334784 191.732196 574.10141 191.718802 
Q 574.868036 191.704825 575.477528 191.675708 
L 575.477528 191.148104 
L 571.977713 191.148104 
L 571.977713 190.678152 
L 580.905812 190.678152 
L 580.905812 191.984933 
z
" clip-path="url(#pe5f7ec97dc)" style="fill: #ffa600"/>
   </g>
   <g id="patch_88">
    <path d="M 559.659319 186.172598 
L 580.905812 186.172598 
L 580.905812 186.806102 
L 573.262015 186.806102 
L 573.262015 189.42087 
L 567.317938 189.42087 
L 567.317938 186.806102 
L 559.659319 186.806102 
L 559.659319 186.172598 
z
" clip-path="url(#pe5f7ec97dc)" style="fill: #ff0000"/>
   </g>
   <g id="patch_89">
    <path d="M 580.905812 185.90995 
Q 579.128579 186.040139 577.206813 186.10599 
Q 575.285046 186.172598 573.19198 186.172598 
Q 566.950254 186.172598 563.304786 185.679092 
Q 559.659319 185.185586 559.659319 184.341629 
Q 559.659319 183.494645 563.304786 183.001896 
Q 566.950254 182.508389 573.19198 182.508389 
Q 575.285046 182.508389 577.206813 182.574997 
Q 579.128579 182.640849 580.905812 182.771038 
L 580.905812 183.501457 
Q 579.11252 183.328881 577.372759 183.248649 
Q 575.632998 183.168416 573.711232 183.168416 
Q 570.263829 183.168416 568.288532 183.481021 
Q 566.318587 183.792868 566.318587 184.341629 
Q 566.318587 184.888119 568.288532 185.200724 
Q 570.263829 185.512571 573.711232 185.512571 
Q 575.632998 185.512571 577.372759 185.432339 
Q 579.11252 185.351349 580.905812 185.178773 
L 580.905812 185.90995 
z
" clip-path="url(#pe5f7ec97dc)" style="fill: #0000ff"/>
   </g>
   <g id="patch_90">
    <path d="M 574.376783 181.201042 
L 566.205723 181.201042 
L 564.915556 182.508389 
L 559.659319 182.508389 
L 567.165747 175.331822 
L 573.399384 175.331822 
L 580.905812 182.508389 
L 575.653918 182.508389 
L 574.376783 181.201042 
z
M 567.508923 179.869086 
L 573.060552 179.869086 
L 570.289081 177.014454 
L 567.508923 179.869086 
z
" clip-path="url(#pe5f7ec97dc)" style="fill: #008000"/>
   </g>
   <g id="patch_91">
    <path d="M 603.270541 192.122251 
Q 601.493309 192.180617 599.571542 192.210139 
Q 597.649776 192.24 595.55671 192.24 
Q 589.314984 192.24 585.669516 192.018754 
Q 582.024048 191.797509 582.024048 191.419152 
Q 582.024048 191.039438 585.669516 190.818531 
Q 589.314984 190.597286 595.55671 190.597286 
Q 597.649776 190.597286 599.571542 190.627147 
Q 601.493309 190.656669 603.270541 190.715035 
L 603.270541 191.042492 
Q 601.477249 190.965124 599.737489 190.929154 
Q 597.997728 190.893185 596.075961 190.893185 
Q 592.628559 190.893185 590.653261 191.03333 
Q 588.683317 191.173135 588.683317 191.419152 
Q 588.683317 191.664151 590.653261 191.804296 
Q 592.628559 191.944101 596.075961 191.944101 
Q 597.997728 191.944101 599.737489 191.908132 
Q 601.477249 191.871823 603.270541 191.794455 
L 603.270541 192.122251 
z
" clip-path="url(#pe5f7ec97dc)" style="fill: #0000ff"/>
   </g>
   <g id="patch_92">
    <path d="M 603.270541 190.421749 
Q 601.127798 190.509517 598.823158 190.553602 
Q 596.518518 190.597286 594.061505 190.597286 
Q 588.509419 190.597286 585.266733 190.335984 
Q 582.024048 190.074682 582.024048 189.627823 
Q 582.024048 189.175755 585.323873 188.916456 
Q 588.62846 188.657158 594.375774 188.657158 
Q 596.589943 188.657158 598.618407 188.692426 
Q 600.651632 188.727293 602.451537 188.796225 
L 602.451537 189.182968 
Q 600.594492 189.094398 598.756495 189.050714 
Q 596.918497 189.00663 595.070976 189.00663 
Q 591.652109 189.00663 589.799826 189.167739 
Q 587.947544 189.328448 587.947544 189.627823 
Q 587.947544 189.924393 589.733163 190.086304 
Q 591.518783 190.247814 594.804323 190.247814 
Q 595.699514 190.247814 596.46614 190.238597 
Q 597.232766 190.228978 597.842257 190.20894 
L 597.842257 189.845842 
L 594.342443 189.845842 
L 594.342443 189.522421 
L 603.270541 189.522421 
L 603.270541 190.421749 
z
" clip-path="url(#pe5f7ec97dc)" style="fill: #ffa600"/>
   </g>
   <g id="patch_93">
    <path d="M 596.741512 188.072561 
L 588.570453 188.072561 
L 587.280285 188.657158 
L 582.024048 188.657158 
L 589.530476 185.448066 
L 595.764113 185.448066 
L 603.270541 188.657158 
L 598.018648 188.657158 
L 596.741512 188.072561 
z
M 589.873652 187.476961 
L 595.425281 187.476961 
L 592.653811 186.200476 
L 589.873652 187.476961 
z
" clip-path="url(#pe5f7ec97dc)" style="fill: #008000"/>
   </g>
   <g id="patch_94">
    <path d="M 582.024048 182.084319 
L 603.270541 182.084319 
L 603.270541 182.740343 
L 595.626745 182.740343 
L 595.626745 185.448066 
L 589.682668 185.448066 
L 589.682668 182.740343 
L 582.024048 182.740343 
L 582.024048 182.084319 
z
" clip-path="url(#pe5f7ec97dc)" style="fill: #ff0000"/>
   </g>
   <g id="patch_95">
    <path d="M 625.635271 192.085832 
Q 623.492527 192.162916 621.187887 192.201634 
Q 618.883247 192.24 616.426235 192.24 
Q 610.874148 192.24 607.631463 192.010508 
Q 604.388778 191.781016 604.388778 191.388557 
Q 604.388778 190.991522 607.688603 190.76379 
Q 610.993189 190.536058 616.740504 190.536058 
Q 618.954672 190.536058 620.983136 190.567033 
Q 623.016362 190.597655 624.816266 190.658196 
L 624.816266 190.997858 
Q 622.959222 190.92007 621.121224 190.881704 
Q 619.283226 190.842986 617.435705 190.842986 
Q 614.016839 190.842986 612.164556 190.984483 
Q 610.312273 191.125627 610.312273 191.388557 
Q 610.312273 191.649023 612.097893 191.791224 
Q 613.883512 191.933072 617.169053 191.933072 
Q 618.064243 191.933072 618.830869 191.924977 
Q 619.597495 191.916529 620.206987 191.89893 
L 620.206987 191.580035 
L 616.707172 191.580035 
L 616.707172 191.295986 
L 625.635271 191.295986 
L 625.635271 192.085832 
z
" clip-path="url(#pe5f7ec97dc)" style="fill: #ffa600"/>
   </g>
   <g id="patch_96">
    <path d="M 619.106242 190.176077 
L 610.935182 190.176077 
L 609.645015 190.536058 
L 604.388778 190.536058 
L 611.895206 188.559973 
L 618.128842 188.559973 
L 625.635271 190.536058 
L 620.383377 190.536058 
L 619.106242 190.176077 
z
M 612.238381 189.80932 
L 617.790011 189.80932 
L 615.01854 189.02329 
L 612.238381 189.80932 
z
" clip-path="url(#pe5f7ec97dc)" style="fill: #008000"/>
   </g>
   <g id="patch_97">
    <path d="M 604.388778 185.470944 
L 625.635271 185.470944 
L 625.635271 186.073391 
L 617.991474 186.073391 
L 617.991474 188.559973 
L 612.047397 188.559973 
L 612.047397 186.073391 
L 604.388778 186.073391 
L 604.388778 185.470944 
z
" clip-path="url(#pe5f7ec97dc)" style="fill: #ff0000"/>
   </g>
   <g id="patch_98">
    <path d="M 625.635271 185.210511 
Q 623.858038 185.339602 621.936272 185.404898 
Q 620.014505 185.470944 617.921439 185.470944 
Q 611.679713 185.470944 608.034245 184.981599 
Q 604.388778 184.492253 604.388778 183.655413 
Q 604.388778 182.81557 608.034245 182.326975 
Q 611.679713 181.837629 617.921439 181.837629 
Q 620.014505 181.837629 621.936272 181.903676 
Q 623.858038 181.968972 625.635271 182.098063 
L 625.635271 182.822324 
Q 623.841979 182.651203 622.102218 182.571647 
Q 620.362457 182.492091 618.440691 182.492091 
Q 614.993288 182.492091 613.017991 182.80206 
Q 611.048046 183.111278 611.048046 183.655413 
Q 611.048046 184.197295 613.017991 184.507264 
Q 614.993288 184.816482 618.440691 184.816482 
Q 620.362457 184.816482 622.102218 184.736926 
Q 623.841979 184.656619 625.635271 184.485499 
L 625.635271 185.210511 
z
" clip-path="url(#pe5f7ec97dc)" style="fill: #0000ff"/>
   </g>
   <g id="patch_99">
    <path d="M 626.753507 191.009298 
L 648 191.009298 
L 648 191.249319 
L 640.356204 191.249319 
L 640.356204 192.24 
L 634.412127 192.24 
L 634.412127 191.249319 
L 626.753507 191.249319 
L 626.753507 191.009298 
z
" clip-path="url(#pe5f7ec97dc)" style="fill: #ff0000"/>
   </g>
   <g id="patch_100">
    <path d="M 648 190.886399 
Q 645.857256 190.947849 643.552617 190.978714 
Q 641.247977 191.009298 638.790964 191.009298 
Q 633.238878 191.009298 629.996192 190.826353 
Q 626.753507 190.643408 626.753507 190.330549 
Q 626.753507 190.014043 630.053332 189.8325 
Q 633.357919 189.650958 639.105233 189.650958 
Q 641.319402 189.650958 643.347866 189.67565 
Q 645.381091 189.700062 647.180996 189.748323 
L 647.180996 190.019093 
Q 645.323951 189.957083 643.485954 189.926498 
Q 641.647956 189.895633 639.800435 189.895633 
Q 636.381568 189.895633 634.529285 190.008431 
Q 632.677003 190.120948 632.677003 190.330549 
Q 632.677003 190.538186 634.462622 190.651545 
Q 636.248242 190.764623 639.533782 190.764623 
Q 640.428973 190.764623 641.195599 190.758169 
Q 641.962225 190.751435 642.571716 190.737405 
L 642.571716 190.48319 
L 639.071902 190.48319 
L 639.071902 190.256754 
L 648 190.256754 
L 648 190.886399 
z
" clip-path="url(#pe5f7ec97dc)" style="fill: #ffa600"/>
   </g>
   <g id="patch_101">
    <path d="M 648 189.538524 
Q 646.222768 189.594255 644.301001 189.622445 
Q 642.379235 189.650958 640.286169 189.650958 
Q 634.044443 189.650958 630.398975 189.439699 
Q 626.753507 189.22844 626.753507 188.867161 
Q 626.753507 188.504586 630.398975 188.293651 
Q 634.044443 188.082392 640.286169 188.082392 
Q 642.379235 188.082392 644.301001 188.110905 
Q 646.222768 188.139095 648 188.194826 
L 648 188.507502 
Q 646.206708 188.433626 644.466948 188.39928 
Q 642.727187 188.364935 640.80542 188.364935 
Q 637.358018 188.364935 635.38272 188.498754 
Q 633.412776 188.632249 633.412776 188.867161 
Q 633.412776 189.101101 635.38272 189.23492 
Q 637.358018 189.368415 640.80542 189.368415 
Q 642.727187 189.368415 644.466948 189.33407 
Q 646.206708 189.2994 648 189.225524 
L 648 189.538524 
z
" clip-path="url(#pe5f7ec97dc)" style="fill: #0000ff"/>
   </g>
   <g id="patch_102">
    <path d="M 641.470971 187.672183 
L 633.299912 187.672183 
L 632.009744 188.082392 
L 626.753507 188.082392 
L 634.259935 185.830589 
L 640.493572 185.830589 
L 648 188.082392 
L 642.748107 188.082392 
L 641.470971 187.672183 
z
M 634.603111 187.254253 
L 640.15474 187.254253 
L 637.38327 186.358551 
L 634.603111 187.254253 
z
" clip-path="url(#pe5f7ec97dc)" style="fill: #008000"/>
   </g>
   <g id="matplotlib.axis_1">
    <g id="xtick_1">
     <g id="line2d_2">
      <defs>
       <path id="m130a4f00b0" d="M 0 0 
L 0 3.5 
" style="stroke: #000000; stroke-width: 0.8"/>
      </defs>
      <g>
       <use xlink:href="#m130a4f00b0" x="100.623246" y="192.24" style="stroke: #000000; stroke-width: 0.8"/>
      </g>
     </g>
     <g id="text_1">
      <!-- 0 -->
      <g transform="translate(97.441996 206.838437) scale(0.1 -0.1)">
       <defs>
        <path id="DejaVuSans-30" d="M 2034 4250 
Q 1547 4250 1301 3770 
Q 1056 3291 1056 2328 
Q 1056 1369 1301 889 
Q 1547 409 2034 409 
Q 2525 409 2770 889 
Q 3016 1369 3016 2328 
Q 3016 3291 2770 3770 
Q 2525 4250 2034 4250 
z
M 2034 4750 
Q 2819 4750 3233 4129 
Q 3647 3509 3647 2328 
Q 3647 1150 3233 529 
Q 2819 -91 2034 -91 
Q 1250 -91 836 529 
Q 422 1150 422 2328 
Q 422 3509 836 4129 
Q 1250 4750 2034 4750 
z
" transform="scale(0.015625)"/>
       </defs>
       <use xlink:href="#DejaVuSans-30"/>
      </g>
     </g>
    </g>
    <g id="xtick_2">
     <g id="line2d_3">
      <g>
       <use xlink:href="#m130a4f00b0" x="212.446894" y="192.24" style="stroke: #000000; stroke-width: 0.8"/>
      </g>
     </g>
     <g id="text_2">
      <!-- 5 -->
      <g transform="translate(209.265644 206.838437) scale(0.1 -0.1)">
       <defs>
        <path id="DejaVuSans-35" d="M 691 4666 
L 3169 4666 
L 3169 4134 
L 1269 4134 
L 1269 2991 
Q 1406 3038 1543 3061 
Q 1681 3084 1819 3084 
Q 2600 3084 3056 2656 
Q 3513 2228 3513 1497 
Q 3513 744 3044 326 
Q 2575 -91 1722 -91 
Q 1428 -91 1123 -41 
Q 819 9 494 109 
L 494 744 
Q 775 591 1075 516 
Q 1375 441 1709 441 
Q 2250 441 2565 725 
Q 2881 1009 2881 1497 
Q 2881 1984 2565 2268 
Q 2250 2553 1709 2553 
Q 1456 2553 1204 2497 
Q 953 2441 691 2322 
L 691 4666 
z
" transform="scale(0.015625)"/>
       </defs>
       <use xlink:href="#DejaVuSans-35"/>
      </g>
     </g>
    </g>
    <g id="xtick_3">
     <g id="line2d_4">
      <g>
       <use xlink:href="#m130a4f00b0" x="324.270541" y="192.24" style="stroke: #000000; stroke-width: 0.8"/>
      </g>
     </g>
     <g id="text_3">
      <!-- 10 -->
      <g transform="translate(317.908041 206.838437) scale(0.1 -0.1)">
       <defs>
        <path id="DejaVuSans-31" d="M 794 531 
L 1825 531 
L 1825 4091 
L 703 3866 
L 703 4441 
L 1819 4666 
L 2450 4666 
L 2450 531 
L 3481 531 
L 3481 0 
L 794 0 
L 794 531 
z
" transform="scale(0.015625)"/>
       </defs>
       <use xlink:href="#DejaVuSans-31"/>
       <use xlink:href="#DejaVuSans-30" x="63.623047"/>
      </g>
     </g>
    </g>
    <g id="xtick_4">
     <g id="line2d_5">
      <g>
       <use xlink:href="#m130a4f00b0" x="436.094188" y="192.24" style="stroke: #000000; stroke-width: 0.8"/>
      </g>
     </g>
     <g id="text_4">
      <!-- 15 -->
      <g transform="translate(429.731688 206.838437) scale(0.1 -0.1)">
       <use xlink:href="#DejaVuSans-31"/>
       <use xlink:href="#DejaVuSans-35" x="63.623047"/>
      </g>
     </g>
    </g>
    <g id="xtick_5">
     <g id="line2d_6">
      <g>
       <use xlink:href="#m130a4f00b0" x="547.917836" y="192.24" style="stroke: #000000; stroke-width: 0.8"/>
      </g>
     </g>
     <g id="text_5">
      <!-- 20 -->
      <g transform="translate(541.555336 206.838437) scale(0.1 -0.1)">
       <defs>
        <path id="DejaVuSans-32" d="M 1228 531 
L 3431 531 
L 3431 0 
L 469 0 
L 469 531 
Q 828 903 1448 1529 
Q 2069 2156 2228 2338 
Q 2531 2678 2651 2914 
Q 2772 3150 2772 3378 
Q 2772 3750 2511 3984 
Q 2250 4219 1831 4219 
Q 1534 4219 1204 4116 
Q 875 4013 500 3803 
L 500 4441 
Q 881 4594 1212 4672 
Q 1544 4750 1819 4750 
Q 2544 4750 2975 4387 
Q 3406 4025 3406 3419 
Q 3406 3131 3298 2873 
Q 3191 2616 2906 2266 
Q 2828 2175 2409 1742 
Q 1991 1309 1228 531 
z
" transform="scale(0.015625)"/>
       </defs>
       <use xlink:href="#DejaVuSans-32"/>
       <use xlink:href="#DejaVuSans-30" x="63.623047"/>
      </g>
     </g>
    </g>
   </g>
   <g id="matplotlib.axis_2">
    <g id="ytick_1">
     <g id="line2d_7">
      <defs>
       <path id="m80f44a4baa" d="M 0 0 
L -3.5 0 
" style="stroke: #000000; stroke-width: 0.8"/>
      </defs>
      <g>
       <use xlink:href="#m80f44a4baa" x="90" y="192.24" style="stroke: #000000; stroke-width: 0.8"/>
      </g>
     </g>
     <g id="text_6">
      <!-- 0.0 -->
      <g transform="translate(67.096875 196.039219) scale(0.1 -0.1)">
       <defs>
        <path id="DejaVuSans-2e" d="M 684 794 
L 1344 794 
L 1344 0 
L 684 0 
L 684 794 
z
" transform="scale(0.015625)"/>
       </defs>
       <use xlink:href="#DejaVuSans-30"/>
       <use xlink:href="#DejaVuSans-2e" x="63.623047"/>
       <use xlink:href="#DejaVuSans-30" x="95.410156"/>
      </g>
     </g>
    </g>
    <g id="ytick_2">
     <g id="line2d_8">
      <g>
       <use xlink:href="#m80f44a4baa" x="90" y="161.219562" style="stroke: #000000; stroke-width: 0.8"/>
      </g>
     </g>
     <g id="text_7">
      <!-- 0.2 -->
      <g transform="translate(67.096875 165.018781) scale(0.1 -0.1)">
       <use xlink:href="#DejaVuSans-30"/>
       <use xlink:href="#DejaVuSans-2e" x="63.623047"/>
       <use xlink:href="#DejaVuSans-32" x="95.410156"/>
      </g>
     </g>
    </g>
    <g id="ytick_3">
     <g id="line2d_9">
      <g>
       <use xlink:href="#m80f44a4baa" x="90" y="130.199124" style="stroke: #000000; stroke-width: 0.8"/>
      </g>
     </g>
     <g id="text_8">
      <!-- 0.4 -->
      <g transform="translate(67.096875 133.998342) scale(0.1 -0.1)">
       <defs>
        <path id="DejaVuSans-34" d="M 2419 4116 
L 825 1625 
L 2419 1625 
L 2419 4116 
z
M 2253 4666 
L 3047 4666 
L 3047 1625 
L 3713 1625 
L 3713 1100 
L 3047 1100 
L 3047 0 
L 2419 0 
L 2419 1100 
L 313 1100 
L 313 1709 
L 2253 4666 
z
" transform="scale(0.015625)"/>
       </defs>
       <use xlink:href="#DejaVuSans-30"/>
       <use xlink:href="#DejaVuSans-2e" x="63.623047"/>
       <use xlink:href="#DejaVuSans-34" x="95.410156"/>
      </g>
     </g>
    </g>
    <g id="ytick_4">
     <g id="line2d_10">
      <g>
       <use xlink:href="#m80f44a4baa" x="90" y="99.178686" style="stroke: #000000; stroke-width: 0.8"/>
      </g>
     </g>
     <g id="text_9">
      <!-- 0.6 -->
      <g transform="translate(67.096875 102.977904) scale(0.1 -0.1)">
       <defs>
        <path id="DejaVuSans-36" d="M 2113 2584 
Q 1688 2584 1439 2293 
Q 1191 2003 1191 1497 
Q 1191 994 1439 701 
Q 1688 409 2113 409 
Q 2538 409 2786 701 
Q 3034 994 3034 1497 
Q 3034 2003 2786 2293 
Q 2538 2584 2113 2584 
z
M 3366 4563 
L 3366 3988 
Q 3128 4100 2886 4159 
Q 2644 4219 2406 4219 
Q 1781 4219 1451 3797 
Q 1122 3375 1075 2522 
Q 1259 2794 1537 2939 
Q 1816 3084 2150 3084 
Q 2853 3084 3261 2657 
Q 3669 2231 3669 1497 
Q 3669 778 3244 343 
Q 2819 -91 2113 -91 
Q 1303 -91 875 529 
Q 447 1150 447 2328 
Q 447 3434 972 4092 
Q 1497 4750 2381 4750 
Q 2619 4750 2861 4703 
Q 3103 4656 3366 4563 
z
" transform="scale(0.015625)"/>
       </defs>
       <use xlink:href="#DejaVuSans-30"/>
       <use xlink:href="#DejaVuSans-2e" x="63.623047"/>
       <use xlink:href="#DejaVuSans-36" x="95.410156"/>
      </g>
     </g>
    </g>
    <g id="ytick_5">
     <g id="line2d_11">
      <g>
       <use xlink:href="#m80f44a4baa" x="90" y="68.158247" style="stroke: #000000; stroke-width: 0.8"/>
      </g>
     </g>
     <g id="text_10">
      <!-- 0.8 -->
      <g transform="translate(67.096875 71.957466) scale(0.1 -0.1)">
       <defs>
        <path id="DejaVuSans-38" d="M 2034 2216 
Q 1584 2216 1326 1975 
Q 1069 1734 1069 1313 
Q 1069 891 1326 650 
Q 1584 409 2034 409 
Q 2484 409 2743 651 
Q 3003 894 3003 1313 
Q 3003 1734 2745 1975 
Q 2488 2216 2034 2216 
z
M 1403 2484 
Q 997 2584 770 2862 
Q 544 3141 544 3541 
Q 544 4100 942 4425 
Q 1341 4750 2034 4750 
Q 2731 4750 3128 4425 
Q 3525 4100 3525 3541 
Q 3525 3141 3298 2862 
Q 3072 2584 2669 2484 
Q 3125 2378 3379 2068 
Q 3634 1759 3634 1313 
Q 3634 634 3220 271 
Q 2806 -91 2034 -91 
Q 1263 -91 848 271 
Q 434 634 434 1313 
Q 434 1759 690 2068 
Q 947 2378 1403 2484 
z
M 1172 3481 
Q 1172 3119 1398 2916 
Q 1625 2713 2034 2713 
Q 2441 2713 2670 2916 
Q 2900 3119 2900 3481 
Q 2900 3844 2670 4047 
Q 2441 4250 2034 4250 
Q 1625 4250 1398 4047 
Q 1172 3844 1172 3481 
z
" transform="scale(0.015625)"/>
       </defs>
       <use xlink:href="#DejaVuSans-30"/>
       <use xlink:href="#DejaVuSans-2e" x="63.623047"/>
       <use xlink:href="#DejaVuSans-38" x="95.410156"/>
      </g>
     </g>
    </g>
    <g id="ytick_6">
     <g id="line2d_12">
      <g>
       <use xlink:href="#m80f44a4baa" x="90" y="37.137809" style="stroke: #000000; stroke-width: 0.8"/>
      </g>
     </g>
     <g id="text_11">
      <!-- 1.0 -->
      <g transform="translate(67.096875 40.937028) scale(0.1 -0.1)">
       <use xlink:href="#DejaVuSans-31"/>
       <use xlink:href="#DejaVuSans-2e" x="63.623047"/>
       <use xlink:href="#DejaVuSans-30" x="95.410156"/>
      </g>
     </g>
    </g>
   </g>
  </g>
 </g>
 <defs>
  <clipPath id="pe5f7ec97dc">
   <rect x="90" y="25.92" width="558" height="166.32"/>
  </clipPath>
 </defs>
</svg>
