<?xml version="1.0" encoding="utf-8" standalone="no"?>
<!DOCTYPE svg PUBLIC "-//W3C//DTD SVG 1.1//EN"
  "http://www.w3.org/Graphics/SVG/1.1/DTD/svg11.dtd">
<svg xmlns:xlink="http://www.w3.org/1999/xlink" width="720pt" height="216pt" viewBox="0 0 720 216" xmlns="http://www.w3.org/2000/svg" version="1.1">
 <metadata>
  <rdf:RDF xmlns:dc="http://purl.org/dc/elements/1.1/" xmlns:cc="http://creativecommons.org/ns#" xmlns:rdf="http://www.w3.org/1999/02/22-rdf-syntax-ns#">
   <cc:Work>
    <dc:type rdf:resource="http://purl.org/dc/dcmitype/StillImage"/>
    <dc:date>2025-12-17T10:23:09.945485</dc:date>
    <dc:format>image/svg+xml</dc:format>
    <dc:creator>
     <cc:Agent>
      <dc:title>Matplotlib v3.8.2, https://matplotlib.org/</dc:title>
     </cc:Agent>
    </dc:creator>
   </cc:Work>
  </rdf:RDF>
 </metadata>
 <defs>
  <style type="text/css">*{stroke-linejoin: round; stroke-linecap: butt}</style>
 </defs>
 <g id="figure_1">
  <g id="patch_1">
   <path d="M 0 216 
L 720 216 
L 720 0 
L 0 0 
z
" style="fill: #ffffff"/>
  </g>
  <g id="axes_1">
   <g id="patch_2">
    <path d="M 90 192.24 
L 648 192.24 
L 648 25.92 
L 90 25.92 
z
" style="fill: #ffffff"/>
   </g>
   <g id="line2d_1">
    <path d="M 90 192.24 
L 648 192.24 
" clip-path="url(#ped1b7f270a)" style="fill: none; stroke: #000000; stroke-width: 0.5; stroke-linecap: square"/>
   </g>
   <g id="patch_3">
    <path d="M 108.406052 192.035267 
L 98.187108 192.035267 
L 96.57359 192.24 
L 90 192.24 
L 99.387738 191.116134 
L 107.18369 191.116134 
L 116.571429 192.24 
L 110.003271 192.24 
L 108.406052 192.035267 
z
M 99.816923 191.826679 
L 106.759938 191.826679 
L 103.293863 191.379638 
L 99.816923 191.826679 
z
" clip-path="url(#ped1b7f270a)" style="fill: #008000"/>
   </g>
   <g id="patch_4">
    <path d="M 116.571429 190.943509 
Q 114.348774 191.029075 111.945362 191.072356 
Q 109.54195 191.116134 106.924306 191.116134 
Q 99.118238 191.116134 94.559119 190.791779 
Q 90 190.467424 90 189.912738 
Q 90 189.356061 94.559119 189.032204 
Q 99.118238 188.707849 106.924306 188.707849 
Q 109.54195 188.707849 111.945362 188.751627 
Q 114.348774 188.794907 116.571429 188.880473 
L 116.571429 189.360538 
Q 114.32869 189.247114 112.152899 189.194381 
Q 109.977108 189.141649 107.573696 189.141649 
Q 103.262283 189.141649 100.791923 189.347107 
Q 98.328258 189.552067 98.328258 189.912738 
Q 98.328258 190.271916 100.791923 190.477374 
Q 103.262283 190.682334 107.573696 190.682334 
Q 109.977108 190.682334 112.152899 190.629602 
Q 114.32869 190.576372 116.571429 190.462947 
L 116.571429 190.943509 
z
" clip-path="url(#ped1b7f270a)" style="fill: #0000ff"/>
   </g>
   <g id="patch_5">
    <path d="M 116.571429 188.460902 
Q 113.891657 188.584375 111.009413 188.646394 
Q 108.127169 188.707849 105.054364 188.707849 
Q 98.110777 188.707849 94.055388 188.340247 
Q 90 187.972645 90 187.344 
Q 90 186.708026 94.126849 186.343243 
Q 98.259653 185.97846 105.447397 185.97846 
Q 108.216495 185.97846 110.753346 186.028075 
Q 113.296152 186.077126 115.54716 186.174101 
L 115.54716 186.718174 
Q 113.224691 186.593573 110.926042 186.532118 
Q 108.627393 186.470099 106.316834 186.470099 
Q 102.041109 186.470099 99.724595 186.69675 
Q 97.408081 186.922836 97.408081 187.344 
Q 97.408081 187.761217 99.641224 187.988995 
Q 101.874368 188.216209 105.983351 188.216209 
Q 107.102901 188.216209 108.061664 188.203242 
Q 109.020426 188.18971 109.782673 188.16152 
L 109.782673 187.650711 
L 105.405712 187.650711 
L 105.405712 187.195719 
L 116.571429 187.195719 
L 116.571429 188.460902 
z
" clip-path="url(#ped1b7f270a)" style="fill: #ffa600"/>
   </g>
   <g id="patch_6">
    <path d="M 90 182.125204 
L 116.571429 182.125204 
L 116.571429 182.876696 
L 107.011894 182.876696 
L 107.011894 185.97846 
L 99.578073 185.97846 
L 99.578073 182.876696 
L 90 182.876696 
L 90 182.125204 
z
" clip-path="url(#ped1b7f270a)" style="fill: #ff0000"/>
   </g>
   <g id="patch_7">
    <path d="M 144.541353 192.187002 
Q 142.318699 192.213272 139.915287 192.22656 
Q 137.511875 192.24 134.894231 192.24 
Q 127.088163 192.24 122.529044 192.140419 
Q 117.969925 192.040838 117.969925 191.870543 
Q 117.969925 191.699637 122.529044 191.600209 
Q 127.088163 191.500628 134.894231 191.500628 
Q 137.511875 191.500628 139.915287 191.514068 
Q 142.318699 191.527356 144.541353 191.553625 
L 144.541353 191.701011 
Q 142.298615 191.666188 140.122824 191.649999 
Q 137.947033 191.633809 135.543621 191.633809 
Q 131.232208 191.633809 128.761848 191.696887 
Q 126.298183 191.759813 126.298183 191.870543 
Q 126.298183 191.980815 128.761848 192.043893 
Q 131.232208 192.106818 135.543621 192.106818 
Q 137.947033 192.106818 140.122824 192.090629 
Q 142.298615 192.074287 144.541353 192.039464 
L 144.541353 192.187002 
z
" clip-path="url(#ped1b7f270a)" style="fill: #0000ff"/>
   </g>
   <g id="patch_8">
    <path d="M 144.541353 191.433731 
Q 141.861581 191.46718 138.979338 191.48398 
Q 136.097094 191.500628 133.024289 191.500628 
Q 126.080702 191.500628 122.025313 191.401047 
Q 117.969925 191.301466 117.969925 191.131171 
Q 117.969925 190.95889 122.096774 190.860073 
Q 126.229578 190.761255 133.417322 190.761255 
Q 136.18642 190.761255 138.723271 190.774696 
Q 141.266076 190.787983 143.517085 190.814253 
L 143.517085 190.961639 
Q 141.194616 190.927885 138.895967 190.911238 
Q 136.597318 190.894437 134.286759 190.894437 
Q 130.011034 190.894437 127.69452 190.955835 
Q 125.378006 191.01708 125.378006 191.131171 
Q 125.378006 191.244192 127.611149 191.305895 
Q 129.844292 191.367446 133.953276 191.367446 
Q 135.072825 191.367446 136.031588 191.363933 
Q 136.990351 191.360268 137.752598 191.352631 
L 137.752598 191.214257 
L 133.375637 191.214257 
L 133.375637 191.091002 
L 144.541353 191.091002 
L 144.541353 191.433731 
z
" clip-path="url(#ped1b7f270a)" style="fill: #ffa600"/>
   </g>
   <g id="patch_9">
    <path d="M 136.375977 190.55922 
L 126.157032 190.55922 
L 124.543515 190.761255 
L 117.969925 190.761255 
L 127.357663 189.652197 
L 135.153615 189.652197 
L 144.541353 190.761255 
L 137.973196 190.761255 
L 136.375977 190.55922 
z
M 127.786848 190.353381 
L 134.729863 190.353381 
L 131.263788 189.912229 
L 127.786848 190.353381 
z
" clip-path="url(#ped1b7f270a)" style="fill: #008000"/>
   </g>
   <g id="patch_10">
    <path d="M 117.969925 188.358296 
L 144.541353 188.358296 
L 144.541353 188.610642 
L 134.981818 188.610642 
L 134.981818 189.652197 
L 127.547998 189.652197 
L 127.547998 188.610642 
L 117.969925 188.610642 
L 117.969925 188.358296 
z
" clip-path="url(#ped1b7f270a)" style="fill: #ff0000"/>
   </g>
   <g id="patch_11">
    <path d="M 164.345902 191.973299 
L 154.126957 191.973299 
L 152.51344 192.24 
L 145.93985 192.24 
L 155.327588 190.775971 
L 163.12354 190.775971 
L 172.511278 192.24 
L 165.943121 192.24 
L 164.345902 191.973299 
z
M 155.756773 191.701579 
L 162.699788 191.701579 
L 159.233713 191.11923 
L 155.756773 191.701579 
z
" clip-path="url(#ped1b7f270a)" style="fill: #008000"/>
   </g>
   <g id="patch_12">
    <path d="M 145.93985 187.262301 
L 172.511278 187.262301 
L 172.511278 187.947565 
L 162.951743 187.947565 
L 162.951743 190.775971 
L 155.517923 190.775971 
L 155.517923 187.947565 
L 145.93985 187.947565 
L 145.93985 187.262301 
z
" clip-path="url(#ped1b7f270a)" style="fill: #ff0000"/>
   </g>
   <g id="patch_13">
    <path d="M 172.511278 186.758949 
Q 169.831506 187.010625 166.949262 187.137038 
Q 164.067019 187.262301 160.994213 187.262301 
Q 154.050626 187.262301 149.995238 186.513018 
Q 145.93985 185.763735 145.93985 184.48237 
Q 145.93985 183.186064 150.066699 182.442528 
Q 154.199503 181.698991 161.387247 181.698991 
Q 164.156344 181.698991 166.693195 181.800121 
Q 169.236001 181.900102 171.48701 182.097765 
L 171.48701 183.20675 
Q 169.164541 182.952775 166.865892 182.827512 
Q 164.567243 182.701099 162.256684 182.701099 
Q 157.980959 182.701099 155.664445 183.16308 
Q 153.347931 183.623912 153.347931 184.48237 
Q 153.347931 185.332783 155.581074 185.797062 
Q 157.814217 186.260193 161.923201 186.260193 
Q 163.04275 186.260193 164.001513 186.233761 
Q 164.960276 186.20618 165.722522 186.14872 
L 165.722522 185.107538 
L 161.345561 185.107538 
L 161.345561 184.180128 
L 172.511278 184.180128 
L 172.511278 186.758949 
z
" clip-path="url(#ped1b7f270a)" style="fill: #ffa600"/>
   </g>
   <g id="patch_14">
    <path d="M 172.511278 181.132311 
Q 170.288624 181.413201 167.885212 181.555279 
Q 165.4818 181.698991 162.864156 181.698991 
Q 155.058087 181.698991 150.498969 180.63422 
Q 145.93985 179.56945 145.93985 177.748562 
Q 145.93985 175.921141 150.498969 174.858004 
Q 155.058087 173.793234 162.864156 173.793234 
Q 165.4818 173.793234 167.885212 173.936945 
Q 170.288624 174.079023 172.511278 174.359914 
L 172.511278 175.935839 
Q 170.26854 175.563496 168.092749 175.390389 
Q 165.916958 175.217282 163.513546 175.217282 
Q 159.202132 175.217282 156.731773 175.891746 
Q 154.268108 176.564576 154.268108 177.748562 
Q 154.268108 178.927648 156.731773 179.602112 
Q 159.202132 180.274942 163.513546 180.274942 
Q 165.916958 180.274942 168.092749 180.101835 
Q 170.26854 179.927095 172.511278 179.554752 
L 172.511278 181.132311 
z
" clip-path="url(#ped1b7f270a)" style="fill: #0000ff"/>
   </g>
   <g id="patch_15">
    <path d="M 173.909774 186.965517 
L 200.481203 186.965517 
L 200.481203 187.994188 
L 190.921668 187.994188 
L 190.921668 192.24 
L 183.487848 192.24 
L 183.487848 187.994188 
L 173.909774 187.994188 
L 173.909774 186.965517 
z
" clip-path="url(#ped1b7f270a)" style="fill: #ff0000"/>
   </g>
   <g id="patch_16">
    <path d="M 200.481203 186.488296 
Q 197.801431 186.726906 194.919187 186.846756 
Q 192.036944 186.965517 188.964138 186.965517 
Q 182.020551 186.965517 177.965163 186.255134 
Q 173.909774 185.544751 173.909774 184.329909 
Q 173.909774 183.100903 178.036623 182.395968 
Q 182.169427 181.691033 189.357172 181.691033 
Q 192.126269 181.691033 194.66312 181.786913 
Q 197.205926 181.881704 199.456935 182.069105 
L 199.456935 183.120515 
Q 197.134465 182.879726 194.835817 182.760966 
Q 192.537168 182.641116 190.226609 182.641116 
Q 185.950883 182.641116 183.634369 183.079113 
Q 181.317855 183.51602 181.317855 184.329909 
Q 181.317855 185.136172 183.550999 185.576348 
Q 185.784142 186.015434 189.893126 186.015434 
Q 191.012675 186.015434 191.971438 185.990375 
Q 192.930201 185.964226 193.692447 185.909748 
L 193.692447 184.922621 
L 189.315486 184.922621 
L 189.315486 184.043359 
L 200.481203 184.043359 
L 200.481203 186.488296 
z
" clip-path="url(#ped1b7f270a)" style="fill: #ffa600"/>
   </g>
   <g id="patch_17">
    <path d="M 192.315826 180.489975 
L 182.096882 180.489975 
L 180.483364 181.691033 
L 173.909774 181.691033 
L 183.297513 175.097929 
L 191.093465 175.097929 
L 200.481203 181.691033 
L 193.913046 181.691033 
L 192.315826 180.489975 
z
M 183.726698 179.266308 
L 190.669713 179.266308 
L 187.203638 176.643762 
L 183.726698 179.266308 
z
" clip-path="url(#ped1b7f270a)" style="fill: #008000"/>
   </g>
   <g id="patch_18">
    <path d="M 200.481203 170.372031 
Q 198.258549 172.714551 195.855137 173.89943 
Q 193.451725 175.097929 190.834081 175.097929 
Q 183.028012 175.097929 178.468893 166.218144 
Q 173.909774 157.338359 173.909774 142.152837 
Q 173.909774 126.912838 178.468893 118.046672 
Q 183.028012 109.166887 190.834081 109.166887 
Q 193.451725 109.166887 195.855137 110.365386 
Q 198.258549 111.550265 200.481203 113.892785 
L 200.481203 127.035412 
Q 198.238465 123.930211 196.062674 122.486565 
Q 193.886883 121.042919 191.483471 121.042919 
Q 187.172057 121.042919 184.701698 126.66769 
Q 182.238033 132.278843 182.238033 142.152837 
Q 182.238033 151.985973 184.701698 157.610745 
Q 187.172057 163.221898 191.483471 163.221898 
Q 193.886883 163.221898 196.062674 161.778251 
Q 198.238465 160.320986 200.481203 157.215785 
L 200.481203 170.372031 
z
" clip-path="url(#ped1b7f270a)" style="fill: #0000ff"/>
   </g>
   <g id="patch_19">
    <path d="M 201.879699 190.636853 
L 228.451128 190.636853 
L 228.451128 190.949512 
L 218.891593 190.949512 
L 218.891593 192.24 
L 211.457772 192.24 
L 211.457772 190.949512 
L 201.879699 190.949512 
L 201.879699 190.636853 
z
" clip-path="url(#ped1b7f270a)" style="fill: #ff0000"/>
   </g>
   <g id="patch_20">
    <path d="M 228.451128 190.250058 
Q 225.771356 190.443456 222.889112 190.540596 
Q 220.006868 190.636853 216.934063 190.636853 
Q 209.990476 190.636853 205.935088 190.061076 
Q 201.879699 189.485299 201.879699 188.500649 
Q 201.879699 187.504519 206.006548 186.933157 
Q 210.139352 186.361795 217.327096 186.361795 
Q 220.096194 186.361795 222.633045 186.439508 
Q 225.175851 186.516337 227.426859 186.668229 
L 227.426859 187.520415 
Q 225.10439 187.325251 222.805741 187.228994 
Q 220.507092 187.131853 218.196533 187.131853 
Q 213.920808 187.131853 211.604294 187.486857 
Q 209.28778 187.840978 209.28778 188.500649 
Q 209.28778 189.154139 211.520924 189.510908 
Q 213.754067 189.866795 217.863051 189.866795 
Q 218.9826 189.866795 219.941363 189.846484 
Q 220.900126 189.82529 221.662372 189.781135 
L 221.662372 188.981052 
L 217.285411 188.981052 
L 217.285411 188.268395 
L 228.451128 188.268395 
L 228.451128 190.250058 
z
" clip-path="url(#ped1b7f270a)" style="fill: #ffa600"/>
   </g>
   <g id="patch_21">
    <path d="M 228.451128 185.557407 
Q 226.228474 185.956124 223.825062 186.157801 
Q 221.421649 186.361795 218.804005 186.361795 
Q 210.997937 186.361795 206.438818 184.85038 
Q 201.879699 183.338965 201.879699 180.754259 
Q 201.879699 178.160281 206.438818 176.651184 
Q 210.997937 175.139768 218.804005 175.139768 
Q 221.421649 175.139768 223.825062 175.343763 
Q 226.228474 175.54544 228.451128 175.944157 
L 228.451128 178.181144 
Q 226.208389 177.652612 224.032599 177.406891 
Q 221.856808 177.161171 219.453395 177.161171 
Q 215.141982 177.161171 212.671622 178.118555 
Q 210.207958 179.073621 210.207958 180.754259 
Q 210.207958 182.427943 212.671622 183.385327 
Q 215.141982 184.340393 219.453395 184.340393 
Q 221.856808 184.340393 224.032599 184.094672 
Q 226.208389 183.846633 228.451128 183.318102 
L 228.451128 185.557407 
z
" clip-path="url(#ped1b7f270a)" style="fill: #0000ff"/>
   </g>
   <g id="patch_22">
    <path d="M 220.285751 172.121986 
L 210.066807 172.121986 
L 208.453289 175.139768 
L 201.879699 175.139768 
L 211.267438 158.573919 
L 219.063389 158.573919 
L 228.451128 175.139768 
L 221.882971 175.139768 
L 220.285751 172.121986 
z
M 211.696622 169.047399 
L 218.639637 169.047399 
L 215.173563 162.457982 
L 211.696622 169.047399 
z
" clip-path="url(#ped1b7f270a)" style="fill: #008000"/>
   </g>
   <g id="patch_23">
    <path d="M 229.849624 189.366477 
L 256.421053 189.366477 
L 256.421053 189.926894 
L 246.861518 189.926894 
L 246.861518 192.24 
L 239.427697 192.24 
L 239.427697 189.926894 
L 229.849624 189.926894 
L 229.849624 189.366477 
z
" clip-path="url(#ped1b7f270a)" style="fill: #ff0000"/>
   </g>
   <g id="patch_24">
    <path d="M 256.421053 189.109012 
Q 254.198398 189.236632 251.794986 189.301184 
Q 249.391574 189.366477 246.77393 189.366477 
Q 238.967862 189.366477 234.408743 188.882709 
Q 229.849624 188.398941 229.849624 187.571639 
Q 229.849624 186.741368 234.408743 186.258342 
Q 238.967862 185.774574 246.77393 185.774574 
Q 249.391574 185.774574 251.794986 185.839868 
Q 254.198398 185.90442 256.421053 186.03204 
L 256.421053 186.748046 
Q 254.178314 186.578876 252.002523 186.500226 
Q 249.826732 186.421577 247.42332 186.421577 
Q 243.111907 186.421577 240.641547 186.728013 
Q 238.177882 187.033707 238.177882 187.571639 
Q 238.177882 188.107345 240.641547 188.413781 
Q 243.111907 188.719475 247.42332 188.719475 
Q 249.826732 188.719475 252.002523 188.640825 
Q 254.178314 188.561434 256.421053 188.392264 
L 256.421053 189.109012 
z
" clip-path="url(#ped1b7f270a)" style="fill: #0000ff"/>
   </g>
   <g id="patch_25">
    <path d="M 256.421053 185.384592 
Q 253.741281 185.579583 250.859037 185.677524 
Q 247.976793 185.774574 244.903988 185.774574 
Q 237.960401 185.774574 233.905012 185.194053 
Q 229.849624 184.613531 229.849624 183.620768 
Q 229.849624 182.61643 233.976473 182.04036 
Q 238.109277 181.46429 245.297021 181.46429 
Q 248.066119 181.46429 250.60297 181.542643 
Q 253.145776 181.620105 255.396784 181.773249 
L 255.396784 182.632456 
Q 253.074315 182.435685 250.775666 182.338634 
Q 248.477017 182.240693 246.166458 182.240693 
Q 241.890733 182.240693 239.574219 182.598622 
Q 237.257705 182.955661 237.257705 183.620768 
Q 237.257705 184.279642 239.490848 184.639352 
Q 241.723992 184.998171 245.832976 184.998171 
Q 246.952525 184.998171 247.911288 184.977692 
Q 248.870051 184.956324 249.632297 184.911805 
L 249.632297 184.105129 
L 245.255336 184.105129 
L 245.255336 183.3866 
L 256.421053 183.3866 
L 256.421053 185.384592 
z
" clip-path="url(#ped1b7f270a)" style="fill: #ffa600"/>
   </g>
   <g id="patch_26">
    <path d="M 248.255676 179.304991 
L 238.036732 179.304991 
L 236.423214 181.46429 
L 229.849624 181.46429 
L 239.237362 169.611009 
L 247.033314 169.611009 
L 256.421053 181.46429 
L 249.852895 181.46429 
L 248.255676 179.304991 
z
M 239.666547 177.105047 
L 246.609562 177.105047 
L 243.143487 172.390154 
L 239.666547 177.105047 
z
" clip-path="url(#ped1b7f270a)" style="fill: #008000"/>
   </g>
   <g id="patch_27">
    <path d="M 284.390977 192.131311 
Q 282.168323 192.185185 279.764911 192.212436 
Q 277.361499 192.24 274.743855 192.24 
Q 266.937787 192.24 262.378668 192.035777 
Q 257.819549 191.831553 257.819549 191.482306 
Q 257.819549 191.131806 262.378668 190.927896 
Q 266.937787 190.723672 274.743855 190.723672 
Q 277.361499 190.723672 279.764911 190.751236 
Q 282.168323 190.778487 284.390977 190.832362 
L 284.390977 191.134625 
Q 282.148239 191.063209 279.972448 191.030007 
Q 277.796657 190.996805 275.393245 190.996805 
Q 271.081832 190.996805 268.611472 191.126168 
Q 266.147807 191.255217 266.147807 191.482306 
Q 266.147807 191.708455 268.611472 191.837818 
Q 271.081832 191.966867 275.393245 191.966867 
Q 277.796657 191.966867 279.972448 191.933665 
Q 282.148239 191.90015 284.390977 191.828734 
L 284.390977 192.131311 
z
" clip-path="url(#ped1b7f270a)" style="fill: #0000ff"/>
   </g>
   <g id="patch_28">
    <path d="M 284.390977 190.220631 
Q 281.711205 190.472152 278.828962 190.598486 
Q 275.946718 190.723672 272.873913 190.723672 
Q 265.930326 190.723672 261.874937 189.974853 
Q 257.819549 189.226033 257.819549 187.945461 
Q 257.819549 186.649957 261.946398 185.90688 
Q 266.079202 185.163803 273.266946 185.163803 
Q 276.036044 185.163803 278.572895 185.264871 
Q 281.115701 185.36479 283.366709 185.562331 
L 283.366709 186.67063 
Q 281.04424 186.416812 278.745591 186.291626 
Q 276.446942 186.165292 274.136383 186.165292 
Q 269.860658 186.165292 267.544144 186.626987 
Q 265.22763 187.087534 265.22763 187.945461 
Q 265.22763 188.795348 267.460773 189.25934 
Q 269.693917 189.722184 273.8029 189.722184 
Q 274.92245 189.722184 275.881212 189.695768 
Q 276.839975 189.668204 277.602222 189.61078 
L 277.602222 188.570242 
L 273.225261 188.570242 
L 273.225261 187.643406 
L 284.390977 187.643406 
L 284.390977 190.220631 
z
" clip-path="url(#ped1b7f270a)" style="fill: #ffa600"/>
   </g>
   <g id="patch_29">
    <path d="M 257.819549 177.076722 
L 284.390977 177.076722 
L 284.390977 178.653928 
L 274.831443 178.653928 
L 274.831443 185.163803 
L 267.397622 185.163803 
L 267.397622 178.653928 
L 257.819549 178.653928 
L 257.819549 177.076722 
z
" clip-path="url(#ped1b7f270a)" style="fill: #ff0000"/>
   </g>
   <g id="patch_30">
    <path d="M 276.225601 174.038216 
L 266.006656 174.038216 
L 264.393139 177.076722 
L 257.819549 177.076722 
L 267.207287 160.397115 
L 275.003239 160.397115 
L 284.390977 177.076722 
L 277.82282 177.076722 
L 276.225601 174.038216 
z
M 267.636472 170.942516 
L 274.579487 170.942516 
L 271.113412 164.30785 
L 267.636472 170.942516 
z
" clip-path="url(#ped1b7f270a)" style="fill: #008000"/>
   </g>
   <g id="patch_31">
    <path d="M 304.195526 192.157129 
L 293.976581 192.157129 
L 292.363064 192.24 
L 285.789474 192.24 
L 295.177212 191.785086 
L 302.973164 191.785086 
L 312.360902 192.24 
L 305.792745 192.24 
L 304.195526 192.157129 
z
M 295.606397 192.072698 
L 302.549412 192.072698 
L 299.083337 191.891746 
L 295.606397 192.072698 
z
" clip-path="url(#ped1b7f270a)" style="fill: #008000"/>
   </g>
   <g id="patch_32">
    <path d="M 312.360902 191.740621 
Q 310.138248 191.762662 307.734836 191.77381 
Q 305.331424 191.785086 302.71378 191.785086 
Q 294.907711 191.785086 290.348593 191.701538 
Q 285.789474 191.617989 285.789474 191.47511 
Q 285.789474 191.331719 290.348593 191.248299 
Q 294.907711 191.16475 302.71378 191.16475 
Q 305.331424 191.16475 307.734836 191.176026 
Q 310.138248 191.187175 312.360902 191.209215 
L 312.360902 191.332872 
Q 310.118164 191.303656 307.942373 191.290073 
Q 305.766582 191.27649 303.36317 191.27649 
Q 299.051756 191.27649 296.581397 191.329413 
Q 294.117732 191.382207 294.117732 191.47511 
Q 294.117732 191.567629 296.581397 191.620552 
Q 299.051756 191.673346 303.36317 191.673346 
Q 305.766582 191.673346 307.942373 191.659763 
Q 310.118164 191.646052 312.360902 191.616836 
L 312.360902 191.740621 
z
" clip-path="url(#ped1b7f270a)" style="fill: #0000ff"/>
   </g>
   <g id="patch_33">
    <path d="M 285.789474 190.420346 
L 312.360902 190.420346 
L 312.360902 190.565525 
L 302.801367 190.565525 
L 302.801367 191.16475 
L 295.367547 191.16475 
L 295.367547 190.565525 
L 285.789474 190.565525 
L 285.789474 190.420346 
z
" clip-path="url(#ped1b7f270a)" style="fill: #ff0000"/>
   </g>
   <g id="patch_34">
    <path d="M 312.360902 190.349253 
Q 309.68113 190.384799 306.798887 190.402654 
Q 303.916643 190.420346 300.843838 190.420346 
Q 293.90025 190.420346 289.844862 190.314517 
Q 285.789474 190.208689 285.789474 190.027709 
Q 285.789474 189.84462 289.916323 189.739603 
Q 294.049127 189.634586 301.236871 189.634586 
Q 304.005969 189.634586 306.542819 189.64887 
Q 309.085625 189.662991 311.336634 189.690909 
L 311.336634 189.847541 
Q 309.014165 189.81167 306.715516 189.793978 
Q 304.416867 189.776123 302.106308 189.776123 
Q 297.830583 189.776123 295.514069 189.841374 
Q 293.197555 189.906461 293.197555 190.027709 
Q 293.197555 190.147821 295.430698 190.213396 
Q 297.663841 190.278808 301.772825 190.278808 
Q 302.892374 190.278808 303.851137 190.275075 
Q 304.8099 190.27118 305.572146 190.263064 
L 305.572146 190.116008 
L 301.195185 190.116008 
L 301.195185 189.985021 
L 312.360902 189.985021 
L 312.360902 190.349253 
z
" clip-path="url(#ped1b7f270a)" style="fill: #ffa600"/>
   </g>
   <g id="patch_35">
    <path d="M 332.16545 192.005559 
L 321.946506 192.005559 
L 320.332988 192.24 
L 313.759398 192.24 
L 323.147137 190.953058 
L 330.943089 190.953058 
L 340.330827 192.24 
L 333.76267 192.24 
L 332.16545 192.005559 
z
M 323.576322 191.766705 
L 330.519337 191.766705 
L 327.053262 191.254797 
L 323.576322 191.766705 
z
" clip-path="url(#ped1b7f270a)" style="fill: #008000"/>
   </g>
   <g id="patch_36">
    <path d="M 313.759398 183.874878 
L 340.330827 183.874878 
L 340.330827 185.25532 
L 330.771292 185.25532 
L 330.771292 190.953058 
L 323.337472 190.953058 
L 323.337472 185.25532 
L 313.759398 185.25532 
L 313.759398 183.874878 
z
" clip-path="url(#ped1b7f270a)" style="fill: #ff0000"/>
   </g>
   <g id="patch_37">
    <path d="M 340.330827 183.059806 
Q 337.651055 183.467342 334.768811 183.67204 
Q 331.886568 183.874878 328.813762 183.874878 
Q 321.870175 183.874878 317.814787 182.661574 
Q 313.759398 181.448271 313.759398 179.373373 
Q 313.759398 177.274283 317.886247 176.070284 
Q 322.019051 174.866285 329.206796 174.866285 
Q 331.975893 174.866285 334.512744 175.030043 
Q 337.05555 175.191941 339.306559 175.512015 
L 339.306559 177.307779 
Q 336.98409 176.896521 334.685441 176.693684 
Q 332.386792 176.488985 330.076233 176.488985 
Q 325.800508 176.488985 323.483993 177.237065 
Q 321.167479 177.983284 321.167479 179.373373 
Q 321.167479 180.750435 323.400623 181.502237 
Q 325.633766 182.252177 329.74275 182.252177 
Q 330.862299 182.252177 331.821062 182.209377 
Q 332.779825 182.164715 333.542071 182.07167 
L 333.542071 180.385699 
L 329.16511 180.385699 
L 329.16511 178.883957 
L 340.330827 178.883957 
L 340.330827 183.059806 
z
" clip-path="url(#ped1b7f270a)" style="fill: #ffa600"/>
   </g>
   <g id="patch_38">
    <path d="M 340.330827 173.205834 
Q 338.108173 174.028882 335.704761 174.445191 
Q 333.301349 174.866285 330.683705 174.866285 
Q 322.877636 174.866285 318.318517 171.746361 
Q 313.759398 168.626437 313.759398 163.290985 
Q 313.759398 157.936393 318.318517 154.821254 
Q 322.877636 151.701331 330.683705 151.701331 
Q 333.301349 151.701331 335.704761 152.122425 
Q 338.108173 152.538733 340.330827 153.361781 
L 340.330827 157.979459 
Q 338.088089 156.888443 335.912298 156.381216 
Q 333.736507 155.873989 331.333095 155.873989 
Q 327.021681 155.873989 324.551322 157.85026 
Q 322.087657 159.821745 322.087657 163.290985 
Q 322.087657 166.74587 324.551322 168.722141 
Q 327.021681 170.693626 331.333095 170.693626 
Q 333.736507 170.693626 335.912298 170.186399 
Q 338.088089 169.674387 340.330827 168.583371 
L 340.330827 173.205834 
z
" clip-path="url(#ped1b7f270a)" style="fill: #0000ff"/>
   </g>
   <g id="patch_39">
    <path d="M 341.729323 189.6 
L 368.300752 189.6 
L 368.300752 190.114874 
L 358.741217 190.114874 
L 358.741217 192.24 
L 351.307396 192.24 
L 351.307396 190.114874 
L 341.729323 190.114874 
L 341.729323 189.6 
z
" clip-path="url(#ped1b7f270a)" style="fill: #ff0000"/>
   </g>
   <g id="patch_40">
    <path d="M 368.300752 177.867515 
Q 366.078098 183.683041 363.674686 186.624615 
Q 361.271273 189.6 358.65363 189.6 
Q 350.847561 189.6 346.288442 167.5551 
Q 341.729323 145.5102 341.729323 107.810717 
Q 341.729323 69.975988 346.288442 47.9649 
Q 350.847561 25.92 358.65363 25.92 
Q 361.271273 25.92 363.674686 28.895385 
Q 366.078098 31.836959 368.300752 37.652485 
L 368.300752 70.280289 
Q 366.058014 62.571337 363.882223 58.98735 
Q 361.706432 55.403363 359.303019 55.403363 
Q 354.991606 55.403363 352.521246 69.367387 
Q 350.057582 83.2976 350.057582 107.810717 
Q 350.057582 132.2224 352.521246 146.186424 
Q 354.991606 160.116637 359.303019 160.116637 
Q 361.706432 160.116637 363.882223 156.53265 
Q 366.058014 152.914852 368.300752 145.2059 
L 368.300752 177.867515 
z
" clip-path="url(#ped1b7f270a)" style="fill: #0000ff"/>
   </g>
   <g id="patch_41">
    <path d="M 396.270677 192.147247 
Q 394.048023 192.193223 391.64461 192.216478 
Q 389.241198 192.24 386.623554 192.24 
Q 378.817486 192.24 374.258367 192.06572 
Q 369.699248 191.891441 369.699248 191.593402 
Q 369.699248 191.294293 374.258367 191.120281 
Q 378.817486 190.946001 386.623554 190.946001 
Q 389.241198 190.946001 391.64461 190.969524 
Q 394.048023 190.992779 396.270677 191.038754 
L 396.270677 191.296699 
Q 394.027938 191.235754 391.852147 191.207421 
Q 389.676356 191.179087 387.272944 191.179087 
Q 382.961531 191.179087 380.491171 191.289482 
Q 378.027506 191.399609 378.027506 191.593402 
Q 378.027506 191.786392 380.491171 191.896787 
Q 382.961531 192.006915 387.272944 192.006915 
Q 389.676356 192.006915 391.852147 191.978581 
Q 394.027938 191.94998 396.270677 191.889035 
L 396.270677 192.147247 
z
" clip-path="url(#ped1b7f270a)" style="fill: #0000ff"/>
   </g>
   <g id="patch_42">
    <path d="M 369.699248 187.064005 
L 396.270677 187.064005 
L 396.270677 187.821103 
L 386.711142 187.821103 
L 386.711142 190.946001 
L 379.277321 190.946001 
L 379.277321 187.821103 
L 369.699248 187.821103 
L 369.699248 187.064005 
z
" clip-path="url(#ped1b7f270a)" style="fill: #ff0000"/>
   </g>
   <g id="patch_43">
    <path d="M 388.1053 185.708579 
L 377.886356 185.708579 
L 376.272838 187.064005 
L 369.699248 187.064005 
L 379.086987 179.623513 
L 386.882938 179.623513 
L 396.270677 187.064005 
L 389.702519 187.064005 
L 388.1053 185.708579 
z
M 379.516171 184.327639 
L 386.459186 184.327639 
L 382.993111 181.368027 
L 379.516171 184.327639 
z
" clip-path="url(#ped1b7f270a)" style="fill: #008000"/>
   </g>
   <g id="patch_44">
    <path d="M 396.270677 178.921049 
Q 393.590905 179.272281 390.708661 179.448699 
Q 387.826417 179.623513 384.753612 179.623513 
Q 377.810025 179.623513 373.754636 178.577836 
Q 369.699248 177.532159 369.699248 175.743923 
Q 369.699248 173.934838 373.826097 172.89718 
Q 377.958901 171.859522 385.146645 171.859522 
Q 387.915743 171.859522 390.452594 172.000656 
Q 392.9954 172.140187 395.246408 172.41604 
L 395.246408 173.963706 
Q 392.923939 173.609267 390.62529 173.434452 
Q 388.326641 173.258035 386.016082 173.258035 
Q 381.740357 173.258035 379.423843 173.902762 
Q 377.107329 174.545885 377.107329 175.743923 
Q 377.107329 176.930735 379.340472 177.578669 
Q 381.573616 178.225001 385.6826 178.225001 
Q 386.802149 178.225001 387.760912 178.188113 
Q 388.719675 178.149622 389.481921 178.069432 
L 389.481921 176.61639 
L 385.10496 176.61639 
L 385.10496 175.322124 
L 396.270677 175.322124 
L 396.270677 178.921049 
z
" clip-path="url(#ped1b7f270a)" style="fill: #ffa600"/>
   </g>
   <g id="patch_45">
    <path d="M 424.240602 191.950706 
Q 421.560829 192.095353 418.678586 192.168007 
Q 415.796342 192.24 412.723537 192.24 
Q 405.77995 192.24 401.724561 191.809361 
Q 397.669173 191.378722 397.669173 190.642276 
Q 397.669173 189.897244 401.796022 189.469908 
Q 405.928826 189.042571 413.11657 189.042571 
Q 415.885668 189.042571 418.422519 189.100694 
Q 420.965325 189.158157 423.216333 189.271761 
L 423.216333 189.909133 
Q 420.893864 189.763165 418.595215 189.691172 
Q 416.296566 189.618518 413.986007 189.618518 
Q 409.710282 189.618518 407.393768 189.884035 
Q 405.077254 190.148891 405.077254 190.642276 
Q 405.077254 191.131038 407.310397 191.397876 
Q 409.543541 191.664053 413.652524 191.664053 
Q 414.772074 191.664053 415.730837 191.648862 
Q 416.689599 191.63301 417.451846 191.599986 
L 417.451846 191.001583 
L 413.074885 191.001583 
L 413.074885 190.468568 
L 424.240602 190.468568 
L 424.240602 191.950706 
z
" clip-path="url(#ped1b7f270a)" style="fill: #ffa600"/>
   </g>
   <g id="patch_46">
    <path d="M 397.669173 185.445464 
L 424.240602 185.445464 
L 424.240602 186.147 
L 414.681067 186.147 
L 414.681067 189.042571 
L 407.247246 189.042571 
L 407.247246 186.147 
L 397.669173 186.147 
L 397.669173 185.445464 
z
" clip-path="url(#ped1b7f270a)" style="fill: #ff0000"/>
   </g>
   <g id="patch_47">
    <path d="M 424.240602 185.101679 
Q 422.017947 185.272086 419.614535 185.358279 
Q 417.211123 185.445464 414.593479 185.445464 
Q 406.787411 185.445464 402.228292 184.799505 
Q 397.669173 184.153547 397.669173 183.048879 
Q 397.669173 181.940247 402.228292 181.295279 
Q 406.787411 180.649321 414.593479 180.649321 
Q 417.211123 180.649321 419.614535 180.736506 
Q 422.017947 180.822699 424.240602 180.993106 
L 424.240602 181.949164 
Q 421.997863 181.723277 419.822072 181.618259 
Q 417.646281 181.513241 415.242869 181.513241 
Q 410.931456 181.513241 408.461096 181.922414 
Q 405.997431 182.330596 405.997431 183.048879 
Q 405.997431 183.764188 408.461096 184.173362 
Q 410.931456 184.581544 415.242869 184.581544 
Q 417.646281 184.581544 419.822072 184.476526 
Q 421.997863 184.370518 424.240602 184.14463 
L 424.240602 185.101679 
z
" clip-path="url(#ped1b7f270a)" style="fill: #0000ff"/>
   </g>
   <g id="patch_48">
    <path d="M 416.075225 178.173815 
L 405.85628 178.173815 
L 404.242763 180.649321 
L 397.669173 180.649321 
L 407.056911 167.060249 
L 414.852863 167.060249 
L 424.240602 180.649321 
L 417.672444 180.649321 
L 416.075225 178.173815 
z
M 407.486096 175.651711 
L 414.429111 175.651711 
L 410.963036 170.246371 
L 407.486096 175.651711 
z
" clip-path="url(#ped1b7f270a)" style="fill: #008000"/>
   </g>
   <g id="patch_49">
    <path d="M 452.210526 192.004136 
Q 449.530754 192.122068 446.648511 192.181303 
Q 443.766267 192.24 440.693462 192.24 
Q 433.749874 192.24 429.694486 191.888896 
Q 425.639098 191.537792 425.639098 190.937362 
Q 425.639098 190.329931 429.765947 189.981519 
Q 433.898751 189.633108 441.086495 189.633108 
Q 443.855593 189.633108 446.392443 189.680496 
Q 448.935249 189.727346 451.186258 189.819968 
L 451.186258 190.339624 
Q 448.863789 190.220614 446.56514 190.161918 
Q 444.266491 190.102682 441.955932 190.102682 
Q 437.680207 190.102682 435.363693 190.31916 
Q 433.047179 190.5351 433.047179 190.937362 
Q 433.047179 191.335854 435.280322 191.553409 
Q 437.513465 191.770426 441.622449 191.770426 
Q 442.741998 191.770426 443.700761 191.75804 
Q 444.659524 191.745116 445.42177 191.718191 
L 445.42177 191.230307 
L 441.044809 191.230307 
L 441.044809 190.795735 
L 452.210526 190.795735 
L 452.210526 192.004136 
z
" clip-path="url(#ped1b7f270a)" style="fill: #ffa600"/>
   </g>
   <g id="patch_50">
    <path d="M 425.639098 184.419324 
L 452.210526 184.419324 
L 452.210526 185.436157 
L 442.650991 185.436157 
L 442.650991 189.633108 
L 435.217171 189.633108 
L 435.217171 185.436157 
L 425.639098 185.436157 
L 425.639098 184.419324 
z
" clip-path="url(#ped1b7f270a)" style="fill: #ff0000"/>
   </g>
   <g id="patch_51">
    <path d="M 452.210526 183.671882 
Q 449.987872 184.042372 447.58446 184.229771 
Q 445.181048 184.419324 442.563404 184.419324 
Q 434.757336 184.419324 430.198217 183.014908 
Q 425.639098 181.610493 425.639098 179.208771 
Q 425.639098 176.798432 430.198217 175.396171 
Q 434.757336 173.991755 442.563404 173.991755 
Q 445.181048 173.991755 447.58446 174.181308 
Q 449.987872 174.368707 452.210526 174.739197 
L 452.210526 176.817818 
Q 449.967788 176.326704 447.791997 176.098378 
Q 445.616206 175.870053 443.212794 175.870053 
Q 438.90138 175.870053 436.431021 176.75966 
Q 433.967356 177.647112 433.967356 179.208771 
Q 433.967356 180.763967 436.431021 181.653573 
Q 438.90138 182.541026 443.212794 182.541026 
Q 445.616206 182.541026 447.791997 182.312701 
Q 449.967788 182.082222 452.210526 181.591107 
L 452.210526 183.671882 
z
" clip-path="url(#ped1b7f270a)" style="fill: #0000ff"/>
   </g>
   <g id="patch_52">
    <path d="M 444.04515 162.356837 
L 433.826205 162.356837 
L 432.212688 173.991755 
L 425.639098 173.991755 
L 435.026836 110.122899 
L 442.822788 110.122899 
L 452.210526 173.991755 
L 445.642369 173.991755 
L 444.04515 162.356837 
z
M 435.456021 150.502909 
L 442.399036 150.502909 
L 438.932961 125.097723 
L 435.456021 150.502909 
z
" clip-path="url(#ped1b7f270a)" style="fill: #008000"/>
   </g>
   <g id="patch_53">
    <path d="M 480.180451 192.128817 
Q 477.957797 192.183928 475.554385 192.211804 
Q 473.150973 192.24 470.533329 192.24 
Q 462.72726 192.24 458.168141 192.031091 
Q 453.609023 191.822181 453.609023 191.464921 
Q 453.609023 191.106378 458.168141 190.897789 
Q 462.72726 190.68888 470.533329 190.68888 
Q 473.150973 190.68888 475.554385 190.717076 
Q 477.957797 190.744952 480.180451 190.800063 
L 480.180451 191.109262 
Q 477.937713 191.036208 475.761922 191.002244 
Q 473.586131 190.96828 471.182719 190.96828 
Q 466.871305 190.96828 464.400946 191.100611 
Q 461.937281 191.232621 461.937281 191.464921 
Q 461.937281 191.696259 464.400946 191.82859 
Q 466.871305 191.9606 471.182719 191.9606 
Q 473.586131 191.9606 475.761922 191.926636 
Q 477.937713 191.892352 480.180451 191.819298 
L 480.180451 192.128817 
z
" clip-path="url(#ped1b7f270a)" style="fill: #0000ff"/>
   </g>
   <g id="patch_54">
    <path d="M 453.609023 189.13776 
L 480.180451 189.13776 
L 480.180451 189.440271 
L 470.620916 189.440271 
L 470.620916 190.68888 
L 463.187096 190.68888 
L 463.187096 189.440271 
L 453.609023 189.440271 
L 453.609023 189.13776 
z
" clip-path="url(#ped1b7f270a)" style="fill: #ff0000"/>
   </g>
   <g id="patch_55">
    <path d="M 480.180451 187.594009 
Q 477.500679 188.365885 474.618435 188.753584 
Q 471.736192 189.13776 468.663386 189.13776 
Q 461.719799 189.13776 457.664411 186.839757 
Q 453.609023 184.541753 453.609023 180.611886 
Q 453.609023 176.6362 457.735872 174.355819 
Q 461.868675 172.075439 469.05642 172.075439 
Q 471.825517 172.075439 474.362368 172.385599 
Q 476.905174 172.692234 479.156183 173.298456 
L 479.156183 176.699641 
Q 476.833714 175.920717 474.535065 175.536542 
Q 472.236416 175.148842 469.925857 175.148842 
Q 465.650132 175.148842 463.333618 176.565709 
Q 461.017103 177.979051 461.017103 180.611886 
Q 461.017103 183.220049 463.250247 184.643965 
Q 465.48339 186.064357 469.592374 186.064357 
Q 470.711923 186.064357 471.670686 185.983292 
Q 472.629449 185.898703 473.391695 185.722476 
L 473.391695 182.529238 
L 469.014734 182.529238 
L 469.014734 179.684931 
L 480.180451 179.684931 
L 480.180451 187.594009 
z
" clip-path="url(#ped1b7f270a)" style="fill: #ffa600"/>
   </g>
   <g id="patch_56">
    <path d="M 472.015074 157.947148 
L 461.79613 157.947148 
L 460.182613 172.075439 
L 453.609023 172.075439 
L 462.996761 94.519434 
L 470.792713 94.519434 
L 480.180451 172.075439 
L 473.612294 172.075439 
L 472.015074 157.947148 
z
M 463.425946 143.552913 
L 470.368961 143.552913 
L 466.902886 112.703375 
L 463.425946 143.552913 
z
" clip-path="url(#ped1b7f270a)" style="fill: #008000"/>
   </g>
   <g id="patch_57">
    <path d="M 508.150376 192.112342 
Q 505.927722 192.175619 503.52431 192.207626 
Q 501.120897 192.24 498.503254 192.24 
Q 490.697185 192.24 486.138066 192.000136 
Q 481.578947 191.760272 481.578947 191.350075 
Q 481.578947 190.938406 486.138066 190.69891 
Q 490.697185 190.459046 498.503254 190.459046 
Q 501.120897 190.459046 503.52431 190.49142 
Q 505.927722 190.523426 508.150376 190.586703 
L 508.150376 190.941717 
Q 505.907638 190.857838 503.731847 190.818842 
Q 501.556056 190.779845 499.152644 190.779845 
Q 494.84123 190.779845 492.37087 190.931784 
Q 489.907206 191.083355 489.907206 191.350075 
Q 489.907206 191.615691 492.37087 191.76763 
Q 494.84123 191.9192 499.152644 191.9192 
Q 501.556056 191.9192 503.731847 191.880204 
Q 505.907638 191.84084 508.150376 191.756961 
L 508.150376 192.112342 
z
" clip-path="url(#ped1b7f270a)" style="fill: #0000ff"/>
   </g>
   <g id="patch_58">
    <path d="M 499.984999 190.026466 
L 489.766055 190.026466 
L 488.152537 190.459046 
L 481.578947 190.459046 
L 490.966686 188.08444 
L 498.762638 188.08444 
L 508.150376 190.459046 
L 501.582219 190.459046 
L 499.984999 190.026466 
z
M 491.395871 189.585744 
L 498.338885 189.585744 
L 494.872811 188.641195 
L 491.395871 189.585744 
z
" clip-path="url(#ped1b7f270a)" style="fill: #008000"/>
   </g>
   <g id="patch_59">
    <path d="M 508.150376 187.833784 
Q 505.470604 187.959112 502.58836 188.022062 
Q 499.706116 188.08444 496.633311 188.08444 
Q 489.689724 188.08444 485.634336 187.711318 
Q 481.578947 187.338196 481.578947 186.700111 
Q 481.578947 186.054587 485.705796 185.684327 
Q 489.8386 185.314066 497.026344 185.314066 
Q 499.795442 185.314066 502.332293 185.364426 
Q 504.875099 185.414214 507.126108 185.512645 
L 507.126108 186.064888 
Q 504.803638 185.938416 502.50499 185.876038 
Q 500.206341 185.813088 497.895782 185.813088 
Q 493.620056 185.813088 491.303542 186.043142 
Q 488.987028 186.272623 488.987028 186.700111 
Q 488.987028 187.123593 491.220172 187.354792 
Q 493.453315 187.585418 497.562299 187.585418 
Q 498.681848 187.585418 499.640611 187.572255 
Q 500.599374 187.558521 501.36162 187.529907 
L 501.36162 187.011428 
L 496.984659 187.011428 
L 496.984659 186.549603 
L 508.150376 186.549603 
L 508.150376 187.833784 
z
" clip-path="url(#ped1b7f270a)" style="fill: #ffa600"/>
   </g>
   <g id="patch_60">
    <path d="M 481.578947 179.773319 
L 508.150376 179.773319 
L 508.150376 180.853919 
L 498.590841 180.853919 
L 498.590841 185.314066 
L 491.15702 185.314066 
L 491.15702 180.853919 
L 481.578947 180.853919 
L 481.578947 179.773319 
z
" clip-path="url(#ped1b7f270a)" style="fill: #ff0000"/>
   </g>
   <g id="patch_61">
    <path d="M 527.954924 191.840522 
L 517.73598 191.840522 
L 516.122462 192.24 
L 509.548872 192.24 
L 518.936611 190.047101 
L 526.732562 190.047101 
L 536.120301 192.24 
L 529.552143 192.24 
L 527.954924 191.840522 
z
M 519.365795 191.433524 
L 526.30881 191.433524 
L 522.842736 190.561252 
L 519.365795 191.433524 
z
" clip-path="url(#ped1b7f270a)" style="fill: #008000"/>
   </g>
   <g id="patch_62">
    <path d="M 536.120301 189.848693 
Q 533.440529 189.947897 530.558285 189.997725 
Q 527.676041 190.047101 524.603236 190.047101 
Q 517.659649 190.047101 513.604261 189.751755 
Q 509.548872 189.456409 509.548872 188.951331 
Q 509.548872 188.440364 513.675721 188.147283 
Q 517.808525 187.854202 524.996269 187.854202 
Q 527.765367 187.854202 530.302218 187.894064 
Q 532.845024 187.933474 535.096032 188.011387 
L 535.096032 188.448518 
Q 532.773563 188.348408 530.474914 188.299033 
Q 528.176265 188.249204 525.865706 188.249204 
Q 521.589981 188.249204 519.273467 188.431304 
Q 516.956953 188.612951 516.956953 188.951331 
Q 516.956953 189.286539 519.190096 189.469545 
Q 521.42324 189.652098 525.532224 189.652098 
Q 526.651773 189.652098 527.610536 189.641679 
Q 528.569299 189.630808 529.331545 189.608159 
L 529.331545 189.197754 
L 524.954584 189.197754 
L 524.954584 188.832196 
L 536.120301 188.832196 
L 536.120301 189.848693 
z
" clip-path="url(#ped1b7f270a)" style="fill: #ffa600"/>
   </g>
   <g id="patch_63">
    <path d="M 509.548872 183.468403 
L 536.120301 183.468403 
L 536.120301 184.323756 
L 526.560766 184.323756 
L 526.560766 187.854202 
L 519.126945 187.854202 
L 519.126945 184.323756 
L 509.548872 184.323756 
L 509.548872 183.468403 
z
" clip-path="url(#ped1b7f270a)" style="fill: #ff0000"/>
   </g>
   <g id="patch_64">
    <path d="M 536.120301 174.194446 
Q 533.897647 178.791336 531.494234 181.116506 
Q 529.090822 183.468403 526.473178 183.468403 
Q 518.66711 183.468403 514.107991 166.042986 
Q 509.548872 148.617568 509.548872 118.817966 
Q 509.548872 88.911459 514.107991 71.512768 
Q 518.66711 54.08735 526.473178 54.08735 
Q 529.090822 54.08735 531.494234 56.439247 
Q 533.897647 58.764418 536.120301 63.361307 
L 536.120301 89.151994 
Q 533.877562 83.058443 531.701771 80.225477 
Q 529.52598 77.39251 527.122568 77.39251 
Q 522.811155 77.39251 520.340795 88.43039 
Q 517.87713 99.441543 517.87713 118.817966 
Q 517.87713 138.114211 520.340795 149.15209 
Q 522.811155 160.163244 527.122568 160.163244 
Q 529.52598 160.163244 531.701771 157.330277 
Q 533.877562 154.470584 536.120301 148.377033 
L 536.120301 174.194446 
z
" clip-path="url(#ped1b7f270a)" style="fill: #0000ff"/>
   </g>
   <g id="patch_65">
    <path d="M 564.090226 192.074311 
Q 561.867571 192.156439 559.464159 192.197981 
Q 557.060747 192.24 554.443103 192.24 
Q 546.637035 192.24 542.077916 191.928676 
Q 537.518797 191.617353 537.518797 191.084951 
Q 537.518797 190.550639 542.077916 190.239793 
Q 546.637035 189.928469 554.443103 189.928469 
Q 557.060747 189.928469 559.464159 189.970489 
Q 561.867571 190.01203 564.090226 190.094159 
L 564.090226 190.554937 
Q 561.847487 190.446069 559.671696 190.395455 
Q 557.495905 190.344841 555.092493 190.344841 
Q 550.78108 190.344841 548.31072 190.542045 
Q 545.847055 190.738771 545.847055 191.084951 
Q 545.847055 191.429699 548.31072 191.626902 
Q 550.78108 191.823628 555.092493 191.823628 
Q 557.495905 191.823628 559.671696 191.773014 
Q 561.847487 191.721923 564.090226 191.613055 
L 564.090226 192.074311 
z
" clip-path="url(#ped1b7f270a)" style="fill: #0000ff"/>
   </g>
   <g id="patch_66">
    <path d="M 564.090226 189.684472 
Q 561.410454 189.806471 558.52821 189.867749 
Q 555.645966 189.928469 552.573161 189.928469 
Q 545.629574 189.928469 541.574185 189.565259 
Q 537.518797 189.202048 537.518797 188.580912 
Q 537.518797 187.952535 541.645646 187.592109 
Q 545.77845 187.231684 552.966194 187.231684 
Q 555.735292 187.231684 558.272143 187.280706 
Q 560.814949 187.329171 563.065957 187.424988 
L 563.065957 187.962562 
Q 560.743488 187.839449 558.444839 187.778729 
Q 556.14619 187.717451 553.835631 187.717451 
Q 549.559906 187.717451 547.243392 187.941394 
Q 544.926878 188.16478 544.926878 188.580912 
Q 544.926878 188.993146 547.160021 189.218203 
Q 549.393165 189.442703 553.502148 189.442703 
Q 554.621698 189.442703 555.580461 189.42989 
Q 556.539223 189.41652 557.30147 189.388667 
L 557.30147 188.883959 
L 552.924509 188.883959 
L 552.924509 188.434402 
L 564.090226 188.434402 
L 564.090226 189.684472 
z
" clip-path="url(#ped1b7f270a)" style="fill: #ffa600"/>
   </g>
   <g id="patch_67">
    <path d="M 555.924849 185.687691 
L 545.705905 185.687691 
L 544.092387 187.231684 
L 537.518797 187.231684 
L 546.906535 178.756072 
L 554.702487 178.756072 
L 564.090226 187.231684 
L 557.522068 187.231684 
L 555.924849 185.687691 
z
M 547.33572 184.114635 
L 554.278735 184.114635 
L 550.81266 180.743281 
L 547.33572 184.114635 
z
" clip-path="url(#ped1b7f270a)" style="fill: #008000"/>
   </g>
   <g id="patch_68">
    <path d="M 537.518797 167.96893 
L 564.090226 167.96893 
L 564.090226 170.072723 
L 554.530691 170.072723 
L 554.530691 178.756072 
L 547.09687 178.756072 
L 547.09687 170.072723 
L 537.518797 170.072723 
L 537.518797 167.96893 
z
" clip-path="url(#ped1b7f270a)" style="fill: #ff0000"/>
   </g>
   <g id="patch_69">
    <path d="M 583.894774 192.02457 
L 573.675829 192.02457 
L 572.062312 192.24 
L 565.488722 192.24 
L 574.87646 191.057418 
L 582.672412 191.057418 
L 592.06015 192.24 
L 585.491993 192.24 
L 583.894774 192.02457 
z
M 575.305645 191.805085 
L 582.24866 191.805085 
L 578.782585 191.334688 
L 575.305645 191.805085 
z
" clip-path="url(#ped1b7f270a)" style="fill: #008000"/>
   </g>
   <g id="patch_70">
    <path d="M 592.06015 190.820071 
Q 589.837496 190.937718 587.434084 190.997226 
Q 585.030672 191.057418 582.413028 191.057418 
Q 574.60696 191.057418 570.047841 190.611451 
Q 565.488722 190.165485 565.488722 189.402828 
Q 565.488722 188.637435 570.047841 188.192153 
Q 574.60696 187.746187 582.413028 187.746187 
Q 585.030672 187.746187 587.434084 187.806379 
Q 589.837496 187.865887 592.06015 187.983534 
L 592.06015 188.643591 
Q 589.817412 188.48764 587.641621 188.415136 
Q 585.46583 188.342633 583.062418 188.342633 
Q 578.751004 188.342633 576.280645 188.625123 
Q 573.81698 188.90693 573.81698 189.402828 
Q 573.81698 189.896674 576.280645 190.179165 
Q 578.751004 190.460972 583.062418 190.460972 
Q 585.46583 190.460972 587.641621 190.388468 
Q 589.817412 190.315281 592.06015 190.159329 
L 592.06015 190.820071 
z
" clip-path="url(#ped1b7f270a)" style="fill: #0000ff"/>
   </g>
   <g id="patch_71">
    <path d="M 565.488722 182.779341 
L 592.06015 182.779341 
L 592.06015 183.748014 
L 582.500615 183.748014 
L 582.500615 187.746187 
L 575.066795 187.746187 
L 575.066795 183.748014 
L 565.488722 183.748014 
L 565.488722 182.779341 
z
" clip-path="url(#ped1b7f270a)" style="fill: #ff0000"/>
   </g>
   <g id="patch_72">
    <path d="M 592.06015 182.287156 
Q 589.380378 182.533249 586.498135 182.656857 
Q 583.615891 182.779341 580.543086 182.779341 
Q 573.599499 182.779341 569.54411 182.046682 
Q 565.488722 181.314024 565.488722 180.061087 
Q 565.488722 178.793543 569.615571 178.066502 
Q 573.748375 177.339462 580.936119 177.339462 
Q 583.705217 177.339462 586.242068 177.438349 
Q 588.784873 177.536111 591.035882 177.72939 
L 591.035882 178.813769 
Q 588.713413 178.56543 586.414764 178.442945 
Q 584.116115 178.319337 581.805556 178.319337 
Q 577.529831 178.319337 575.213317 178.771068 
Q 572.896803 179.221676 572.896803 180.061087 
Q 572.896803 180.892632 575.129946 181.346611 
Q 577.363089 181.799466 581.472073 181.799466 
Q 582.591622 181.799466 583.550385 181.773621 
Q 584.509148 181.746652 585.271395 181.690466 
L 585.271395 180.672385 
L 580.894434 180.672385 
L 580.894434 179.765552 
L 592.06015 179.765552 
L 592.06015 182.287156 
z
" clip-path="url(#ped1b7f270a)" style="fill: #ffa600"/>
   </g>
   <g id="patch_73">
    <path d="M 593.458647 190.682133 
L 620.030075 190.682133 
L 620.030075 190.985961 
L 610.47054 190.985961 
L 610.47054 192.24 
L 603.03672 192.24 
L 603.03672 190.985961 
L 593.458647 190.985961 
L 593.458647 190.682133 
z
" clip-path="url(#ped1b7f270a)" style="fill: #ff0000"/>
   </g>
   <g id="patch_74">
    <path d="M 620.030075 190.329755 
Q 617.350303 190.505944 614.468059 190.594441 
Q 611.585816 190.682133 608.51301 190.682133 
Q 601.569423 190.682133 597.514035 190.157588 
Q 593.458647 189.633043 593.458647 188.736006 
Q 593.458647 187.828511 597.585496 187.307988 
Q 601.7183 186.787466 608.906044 186.787466 
Q 611.675141 186.787466 614.211992 186.858263 
Q 616.754798 186.928256 619.005807 187.066633 
L 619.005807 187.842992 
Q 616.683338 187.665194 614.384689 187.577501 
Q 612.08604 187.489005 609.775481 187.489005 
Q 605.499756 187.489005 603.183242 187.81242 
Q 600.866728 188.135032 600.866728 188.736006 
Q 600.866728 189.331349 603.099871 189.656374 
Q 605.333014 189.980594 609.441998 189.980594 
Q 610.561547 189.980594 611.52031 189.96209 
Q 612.479073 189.942782 613.241319 189.902556 
L 613.241319 189.173663 
L 608.864358 189.173663 
L 608.864358 188.524418 
L 620.030075 188.524418 
L 620.030075 190.329755 
z
" clip-path="url(#ped1b7f270a)" style="fill: #ffa600"/>
   </g>
   <g id="patch_75">
    <path d="M 620.030075 186.201214 
Q 617.807421 186.491806 615.404009 186.638791 
Q 613.000597 186.787466 610.382953 186.787466 
Q 602.576884 186.787466 598.017766 185.685921 
Q 593.458647 184.584376 593.458647 182.700599 
Q 593.458647 180.810064 598.017766 179.710209 
Q 602.576884 178.608664 610.382953 178.608664 
Q 613.000597 178.608664 615.404009 178.757339 
Q 617.807421 178.904324 620.030075 179.194916 
L 620.030075 180.82527 
Q 617.787337 180.440067 615.611546 180.260981 
Q 613.435755 180.081896 611.032343 180.081896 
Q 606.720929 180.081896 604.25057 180.779654 
Q 601.786905 181.475722 601.786905 182.700599 
Q 601.786905 183.920408 604.25057 184.618166 
Q 606.720929 185.314234 611.032343 185.314234 
Q 613.435755 185.314234 615.611546 185.135148 
Q 617.787337 184.954373 620.030075 184.569171 
L 620.030075 186.201214 
z
" clip-path="url(#ped1b7f270a)" style="fill: #0000ff"/>
   </g>
   <g id="patch_76">
    <path d="M 611.864699 176.6221 
L 601.645754 176.6221 
L 600.032237 178.608664 
L 593.458647 178.608664 
L 602.846385 167.703596 
L 610.642337 167.703596 
L 620.030075 178.608664 
L 613.461918 178.608664 
L 611.864699 176.6221 
z
M 603.27557 174.598142 
L 610.218585 174.598142 
L 606.75251 170.26042 
L 603.27557 174.598142 
z
" clip-path="url(#ped1b7f270a)" style="fill: #008000"/>
   </g>
   <g id="patch_77">
    <path d="M 648 192.141225 
Q 645.777346 192.190186 643.373934 192.21495 
Q 640.970522 192.24 638.352878 192.24 
Q 630.546809 192.24 625.98769 192.054406 
Q 621.428571 191.868811 621.428571 191.551422 
Q 621.428571 191.232894 625.98769 191.047584 
Q 630.546809 190.86199 638.352878 190.86199 
Q 640.970522 190.86199 643.373934 190.88704 
Q 645.777346 190.911805 648 190.960765 
L 648 191.235456 
Q 645.757262 191.170555 643.581471 191.140382 
Q 641.40568 191.110208 639.002268 191.110208 
Q 634.690854 191.110208 632.220495 191.22777 
Q 629.75683 191.345048 629.75683 191.551422 
Q 629.75683 191.756942 632.220495 191.874504 
Q 634.690854 191.991782 639.002268 191.991782 
Q 641.40568 191.991782 643.581471 191.961608 
Q 645.757262 191.93115 648 191.866249 
L 648 192.141225 
z
" clip-path="url(#ped1b7f270a)" style="fill: #0000ff"/>
   </g>
   <g id="patch_78">
    <path d="M 621.428571 187.876302 
L 648 187.876302 
L 648 188.458594 
L 638.440465 188.458594 
L 638.440465 190.86199 
L 631.006645 190.86199 
L 631.006645 188.458594 
L 621.428571 188.458594 
L 621.428571 187.876302 
z
" clip-path="url(#ped1b7f270a)" style="fill: #ff0000"/>
   </g>
   <g id="patch_79">
    <path d="M 648 187.502267 
Q 645.320228 187.689284 642.437984 187.78322 
Q 639.555741 187.876302 636.482935 187.876302 
Q 629.539348 187.876302 625.48396 187.319519 
Q 621.428571 186.762736 621.428571 185.810568 
Q 621.428571 184.847299 625.55542 184.294786 
Q 629.688224 183.742272 636.875968 183.742272 
Q 639.645066 183.742272 642.181917 183.817421 
Q 644.724723 183.891716 646.975732 184.038597 
L 646.975732 184.86267 
Q 644.653262 184.673945 642.354614 184.580863 
Q 640.055965 184.486927 637.745406 184.486927 
Q 633.46968 184.486927 631.153166 184.83022 
Q 628.836652 185.172658 628.836652 185.810568 
Q 628.836652 186.4425 631.069796 186.7875 
Q 633.302939 187.131647 637.411923 187.131647 
Q 638.531472 187.131647 639.490235 187.112006 
Q 640.448998 187.091511 641.211244 187.048813 
L 641.211244 186.275123 
L 636.834283 186.275123 
L 636.834283 185.585976 
L 648 185.585976 
L 648 187.502267 
z
" clip-path="url(#ped1b7f270a)" style="fill: #ffa600"/>
   </g>
   <g id="patch_80">
    <path d="M 639.834623 182.654473 
L 629.615679 182.654473 
L 628.002161 183.742272 
L 621.428571 183.742272 
L 630.81631 177.770896 
L 638.612262 177.770896 
L 648 183.742272 
L 641.431843 183.742272 
L 639.834623 182.654473 
z
M 631.245495 181.546198 
L 638.18851 181.546198 
L 634.722435 179.170957 
L 631.245495 181.546198 
z
" clip-path="url(#ped1b7f270a)" style="fill: #008000"/>
   </g>
   <g id="matplotlib.axis_1">
    <g id="xtick_1">
     <g id="line2d_2">
      <defs>
       <path id="ma128a1afa3" d="M 0 0 
L 0 3.5 
" style="stroke: #000000; stroke-width: 0.8"/>
      </defs>
      <g>
       <use xlink:href="#ma128a1afa3" x="103.285714" y="192.24" style="stroke: #000000; stroke-width: 0.8"/>
      </g>
     </g>
     <g id="text_1">
      <!-- 0.0 -->
      <g transform="translate(95.334152 206.838437) scale(0.1 -0.1)">
       <defs>
        <path id="DejaVuSans-30" d="M 2034 4250 
Q 1547 4250 1301 3770 
Q 1056 3291 1056 2328 
Q 1056 1369 1301 889 
Q 1547 409 2034 409 
Q 2525 409 2770 889 
Q 3016 1369 3016 2328 
Q 3016 3291 2770 3770 
Q 2525 4250 2034 4250 
z
M 2034 4750 
Q 2819 4750 3233 4129 
Q 3647 3509 3647 2328 
Q 3647 1150 3233 529 
Q 2819 -91 2034 -91 
Q 1250 -91 836 529 
Q 422 1150 422 2328 
Q 422 3509 836 4129 
Q 1250 4750 2034 4750 
z
" transform="scale(0.015625)"/>
        <path id="DejaVuSans-2e" d="M 684 794 
L 1344 794 
L 1344 0 
L 684 0 
L 684 794 
z
" transform="scale(0.015625)"/>
       </defs>
       <use xlink:href="#DejaVuSans-30"/>
       <use xlink:href="#DejaVuSans-2e" x="63.623047"/>
       <use xlink:href="#DejaVuSans-30" x="95.410156"/>
      </g>
     </g>
    </g>
    <g id="xtick_2">
     <g id="line2d_3">
      <g>
       <use xlink:href="#ma128a1afa3" x="173.210526" y="192.24" style="stroke: #000000; stroke-width: 0.8"/>
      </g>
     </g>
     <g id="text_2">
      <!-- 2.5 -->
      <g transform="translate(165.258964 206.838437) scale(0.1 -0.1)">
       <defs>
        <path id="DejaVuSans-32" d="M 1228 531 
L 3431 531 
L 3431 0 
L 469 0 
L 469 531 
Q 828 903 1448 1529 
Q 2069 2156 2228 2338 
Q 2531 2678 2651 2914 
Q 2772 3150 2772 3378 
Q 2772 3750 2511 3984 
Q 2250 4219 1831 4219 
Q 1534 4219 1204 4116 
Q 875 4013 500 3803 
L 500 4441 
Q 881 4594 1212 4672 
Q 1544 4750 1819 4750 
Q 2544 4750 2975 4387 
Q 3406 4025 3406 3419 
Q 3406 3131 3298 2873 
Q 3191 2616 2906 2266 
Q 2828 2175 2409 1742 
Q 1991 1309 1228 531 
z
" transform="scale(0.015625)"/>
        <path id="DejaVuSans-35" d="M 691 4666 
L 3169 4666 
L 3169 4134 
L 1269 4134 
L 1269 2991 
Q 1406 3038 1543 3061 
Q 1681 3084 1819 3084 
Q 2600 3084 3056 2656 
Q 3513 2228 3513 1497 
Q 3513 744 3044 326 
Q 2575 -91 1722 -91 
Q 1428 -91 1123 -41 
Q 819 9 494 109 
L 494 744 
Q 775 591 1075 516 
Q 1375 441 1709 441 
Q 2250 441 2565 725 
Q 2881 1009 2881 1497 
Q 2881 1984 2565 2268 
Q 2250 2553 1709 2553 
Q 1456 2553 1204 2497 
Q 953 2441 691 2322 
L 691 4666 
z
" transform="scale(0.015625)"/>
       </defs>
       <use xlink:href="#DejaVuSans-32"/>
       <use xlink:href="#DejaVuSans-2e" x="63.623047"/>
       <use xlink:href="#DejaVuSans-35" x="95.410156"/>
      </g>
     </g>
    </g>
    <g id="xtick_3">
     <g id="line2d_4">
      <g>
       <use xlink:href="#ma128a1afa3" x="243.135338" y="192.24" style="stroke: #000000; stroke-width: 0.8"/>
      </g>
     </g>
     <g id="text_3">
      <!-- 5.0 -->
      <g transform="translate(235.183776 206.838437) scale(0.1 -0.1)">
       <use xlink:href="#DejaVuSans-35"/>
       <use xlink:href="#DejaVuSans-2e" x="63.623047"/>
       <use xlink:href="#DejaVuSans-30" x="95.410156"/>
      </g>
     </g>
    </g>
    <g id="xtick_4">
     <g id="line2d_5">
      <g>
       <use xlink:href="#ma128a1afa3" x="313.06015" y="192.24" style="stroke: #000000; stroke-width: 0.8"/>
      </g>
     </g>
     <g id="text_4">
      <!-- 7.5 -->
      <g transform="translate(305.108588 206.838437) scale(0.1 -0.1)">
       <defs>
        <path id="DejaVuSans-37" d="M 525 4666 
L 3525 4666 
L 3525 4397 
L 1831 0 
L 1172 0 
L 2766 4134 
L 525 4134 
L 525 4666 
z
" transform="scale(0.015625)"/>
       </defs>
       <use xlink:href="#DejaVuSans-37"/>
       <use xlink:href="#DejaVuSans-2e" x="63.623047"/>
       <use xlink:href="#DejaVuSans-35" x="95.410156"/>
      </g>
     </g>
    </g>
    <g id="xtick_5">
     <g id="line2d_6">
      <g>
       <use xlink:href="#ma128a1afa3" x="382.984962" y="192.24" style="stroke: #000000; stroke-width: 0.8"/>
      </g>
     </g>
     <g id="text_5">
      <!-- 10.0 -->
      <g transform="translate(371.85215 206.838437) scale(0.1 -0.1)">
       <defs>
        <path id="DejaVuSans-31" d="M 794 531 
L 1825 531 
L 1825 4091 
L 703 3866 
L 703 4441 
L 1819 4666 
L 2450 4666 
L 2450 531 
L 3481 531 
L 3481 0 
L 794 0 
L 794 531 
z
" transform="scale(0.015625)"/>
       </defs>
       <use xlink:href="#DejaVuSans-31"/>
       <use xlink:href="#DejaVuSans-30" x="63.623047"/>
       <use xlink:href="#DejaVuSans-2e" x="127.246094"/>
       <use xlink:href="#DejaVuSans-30" x="159.033203"/>
      </g>
     </g>
    </g>
    <g id="xtick_6">
     <g id="line2d_7">
      <g>
       <use xlink:href="#ma128a1afa3" x="452.909774" y="192.24" style="stroke: #000000; stroke-width: 0.8"/>
      </g>
     </g>
     <g id="text_6">
      <!-- 12.5 -->
      <g transform="translate(441.776962 206.838437) scale(0.1 -0.1)">
       <use xlink:href="#DejaVuSans-31"/>
       <use xlink:href="#DejaVuSans-32" x="63.623047"/>
       <use xlink:href="#DejaVuSans-2e" x="127.246094"/>
       <use xlink:href="#DejaVuSans-35" x="159.033203"/>
      </g>
     </g>
    </g>
    <g id="xtick_7">
     <g id="line2d_8">
      <g>
       <use xlink:href="#ma128a1afa3" x="522.834586" y="192.24" style="stroke: #000000; stroke-width: 0.8"/>
      </g>
     </g>
     <g id="text_7">
      <!-- 15.0 -->
      <g transform="translate(511.701774 206.838437) scale(0.1 -0.1)">
       <use xlink:href="#DejaVuSans-31"/>
       <use xlink:href="#DejaVuSans-35" x="63.623047"/>
       <use xlink:href="#DejaVuSans-2e" x="127.246094"/>
       <use xlink:href="#DejaVuSans-30" x="159.033203"/>
      </g>
     </g>
    </g>
    <g id="xtick_8">
     <g id="line2d_9">
      <g>
       <use xlink:href="#ma128a1afa3" x="592.759398" y="192.24" style="stroke: #000000; stroke-width: 0.8"/>
      </g>
     </g>
     <g id="text_8">
      <!-- 17.5 -->
      <g transform="translate(581.626586 206.838437) scale(0.1 -0.1)">
       <use xlink:href="#DejaVuSans-31"/>
       <use xlink:href="#DejaVuSans-37" x="63.623047"/>
       <use xlink:href="#DejaVuSans-2e" x="127.246094"/>
       <use xlink:href="#DejaVuSans-35" x="159.033203"/>
      </g>
     </g>
    </g>
   </g>
   <g id="matplotlib.axis_2">
    <g id="ytick_1">
     <g id="line2d_10">
      <defs>
       <path id="m91102b28fa" d="M 0 0 
L -3.5 0 
" style="stroke: #000000; stroke-width: 0.8"/>
      </defs>
      <g>
       <use xlink:href="#m91102b28fa" x="90" y="192.24" style="stroke: #000000; stroke-width: 0.8"/>
      </g>
     </g>
     <g id="text_9">
      <!-- 0.00 -->
      <g transform="translate(60.734375 196.039219) scale(0.1 -0.1)">
       <use xlink:href="#DejaVuSans-30"/>
       <use xlink:href="#DejaVuSans-2e" x="63.623047"/>
       <use xlink:href="#DejaVuSans-30" x="95.410156"/>
       <use xlink:href="#DejaVuSans-30" x="159.033203"/>
      </g>
     </g>
    </g>
    <g id="ytick_2">
     <g id="line2d_11">
      <g>
       <use xlink:href="#m91102b28fa" x="90" y="170.15124" style="stroke: #000000; stroke-width: 0.8"/>
      </g>
     </g>
     <g id="text_10">
      <!-- 0.25 -->
      <g transform="translate(60.734375 173.950459) scale(0.1 -0.1)">
       <use xlink:href="#DejaVuSans-30"/>
       <use xlink:href="#DejaVuSans-2e" x="63.623047"/>
       <use xlink:href="#DejaVuSans-32" x="95.410156"/>
       <use xlink:href="#DejaVuSans-35" x="159.033203"/>
      </g>
     </g>
    </g>
    <g id="ytick_3">
     <g id="line2d_12">
      <g>
       <use xlink:href="#m91102b28fa" x="90" y="148.06248" style="stroke: #000000; stroke-width: 0.8"/>
      </g>
     </g>
     <g id="text_11">
      <!-- 0.50 -->
      <g transform="translate(60.734375 151.861698) scale(0.1 -0.1)">
       <use xlink:href="#DejaVuSans-30"/>
       <use xlink:href="#DejaVuSans-2e" x="63.623047"/>
       <use xlink:href="#DejaVuSans-35" x="95.410156"/>
       <use xlink:href="#DejaVuSans-30" x="159.033203"/>
      </g>
     </g>
    </g>
    <g id="ytick_4">
     <g id="line2d_13">
      <g>
       <use xlink:href="#m91102b28fa" x="90" y="125.973719" style="stroke: #000000; stroke-width: 0.8"/>
      </g>
     </g>
     <g id="text_12">
      <!-- 0.75 -->
      <g transform="translate(60.734375 129.772938) scale(0.1 -0.1)">
       <use xlink:href="#DejaVuSans-30"/>
       <use xlink:href="#DejaVuSans-2e" x="63.623047"/>
       <use xlink:href="#DejaVuSans-37" x="95.410156"/>
       <use xlink:href="#DejaVuSans-35" x="159.033203"/>
      </g>
     </g>
    </g>
    <g id="ytick_5">
     <g id="line2d_14">
      <g>
       <use xlink:href="#m91102b28fa" x="90" y="103.884959" style="stroke: #000000; stroke-width: 0.8"/>
      </g>
     </g>
     <g id="text_13">
      <!-- 1.00 -->
      <g transform="translate(60.734375 107.684178) scale(0.1 -0.1)">
       <use xlink:href="#DejaVuSans-31"/>
       <use xlink:href="#DejaVuSans-2e" x="63.623047"/>
       <use xlink:href="#DejaVuSans-30" x="95.410156"/>
       <use xlink:href="#DejaVuSans-30" x="159.033203"/>
      </g>
     </g>
    </g>
    <g id="ytick_6">
     <g id="line2d_15">
      <g>
       <use xlink:href="#m91102b28fa" x="90" y="81.796199" style="stroke: #000000; stroke-width: 0.8"/>
      </g>
     </g>
     <g id="text_14">
      <!-- 1.25 -->
      <g transform="translate(60.734375 85.595418) scale(0.1 -0.1)">
       <use xlink:href="#DejaVuSans-31"/>
       <use xlink:href="#DejaVuSans-2e" x="63.623047"/>
       <use xlink:href="#DejaVuSans-32" x="95.410156"/>
       <use xlink:href="#DejaVuSans-35" x="159.033203"/>
      </g>
     </g>
    </g>
    <g id="ytick_7">
     <g id="line2d_16">
      <g>
       <use xlink:href="#m91102b28fa" x="90" y="59.707439" style="stroke: #000000; stroke-width: 0.8"/>
      </g>
     </g>
     <g id="text_15">
      <!-- 1.50 -->
      <g transform="translate(60.734375 63.506658) scale(0.1 -0.1)">
       <use xlink:href="#DejaVuSans-31"/>
       <use xlink:href="#DejaVuSans-2e" x="63.623047"/>
       <use xlink:href="#DejaVuSans-35" x="95.410156"/>
       <use xlink:href="#DejaVuSans-30" x="159.033203"/>
      </g>
     </g>
    </g>
    <g id="ytick_8">
     <g id="line2d_17">
      <g>
       <use xlink:href="#m91102b28fa" x="90" y="37.618679" style="stroke: #000000; stroke-width: 0.8"/>
      </g>
     </g>
     <g id="text_16">
      <!-- 1.75 -->
      <g transform="translate(60.734375 41.417897) scale(0.1 -0.1)">
       <use xlink:href="#DejaVuSans-31"/>
       <use xlink:href="#DejaVuSans-2e" x="63.623047"/>
       <use xlink:href="#DejaVuSans-37" x="95.410156"/>
       <use xlink:href="#DejaVuSans-35" x="159.033203"/>
      </g>
     </g>
    </g>
   </g>
  </g>
 </g>
 <defs>
  <clipPath id="ped1b7f270a">
   <rect x="90" y="25.92" width="558" height="166.32"/>
  </clipPath>
 </defs>
</svg>
