<?xml version="1.0" encoding="utf-8" standalone="no"?>
<!DOCTYPE svg PUBLIC "-//W3C//DTD SVG 1.1//EN"
  "http://www.w3.org/Graphics/SVG/1.1/DTD/svg11.dtd">
<svg xmlns:xlink="http://www.w3.org/1999/xlink" width="720pt" height="216pt" viewBox="0 0 720 216" xmlns="http://www.w3.org/2000/svg" version="1.1">
 <metadata>
  <rdf:RDF xmlns:dc="http://purl.org/dc/elements/1.1/" xmlns:cc="http://creativecommons.org/ns#" xmlns:rdf="http://www.w3.org/1999/02/22-rdf-syntax-ns#">
   <cc:Work>
    <dc:type rdf:resource="http://purl.org/dc/dcmitype/StillImage"/>
    <dc:date>2025-12-17T10:22:34.725943</dc:date>
    <dc:format>image/svg+xml</dc:format>
    <dc:creator>
     <cc:Agent>
      <dc:title>Matplotlib v3.8.2, https://matplotlib.org/</dc:title>
     </cc:Agent>
    </dc:creator>
   </cc:Work>
  </rdf:RDF>
 </metadata>
 <defs>
  <style type="text/css">*{stroke-linejoin: round; stroke-linecap: butt}</style>
 </defs>
 <g id="figure_1">
  <g id="patch_1">
   <path d="M 0 216 
L 720 216 
L 720 0 
L 0 0 
z
" style="fill: #ffffff"/>
  </g>
  <g id="axes_1">
   <g id="patch_2">
    <path d="M 90 192.24 
L 648 192.24 
L 648 25.92 
L 90 25.92 
z
" style="fill: #ffffff"/>
   </g>
   <g id="line2d_1">
    <path d="M 90 192.24 
L 648 192.24 
" clip-path="url(#pa7b18990b0)" style="fill: none; stroke: #000000; stroke-width: 0.5; stroke-linecap: square"/>
   </g>
   <g id="patch_3">
    <path d="M 107.699499 191.82977 
Q 105.914476 192.034885 103.994584 192.137911 
Q 102.074692 192.24 100.027865 192.24 
Q 95.402671 192.24 92.701335 191.629337 
Q 90 191.018675 90 189.974367 
Q 90 188.917884 92.748936 188.311904 
Q 95.501839 187.705924 100.289668 187.705924 
Q 102.134193 187.705924 103.824015 187.788345 
Q 105.517804 187.869829 107.017224 188.030924 
L 107.017224 188.934742 
Q 105.470203 188.727754 103.93905 188.625665 
Q 102.407896 188.522639 100.868809 188.522639 
Q 98.020705 188.522639 96.477652 188.899152 
Q 94.934598 189.274728 94.934598 189.974367 
Q 94.934598 190.66745 96.422118 191.045836 
Q 97.909637 191.423286 100.646673 191.423286 
Q 101.392416 191.423286 102.031058 191.401744 
Q 102.6697 191.379266 103.17744 191.332436 
L 103.17744 190.483877 
L 100.261901 190.483877 
L 100.261901 189.728042 
L 107.699499 189.728042 
L 107.699499 191.82977 
z
" clip-path="url(#pa7b18990b0)" style="fill: #ffa600"/>
   </g>
   <g id="patch_4">
    <path d="M 107.699499 187.266219 
Q 106.218967 187.484171 104.618029 187.594414 
Q 103.017092 187.705924 101.273453 187.705924 
Q 96.073751 187.705924 93.036876 186.879734 
Q 90 186.053544 90 184.640656 
Q 90 183.222701 93.036876 182.397777 
Q 96.073751 181.571587 101.273453 181.571587 
Q 103.017092 181.571587 104.618029 181.683097 
Q 106.218967 181.793341 107.699499 182.011293 
L 107.699499 183.234105 
Q 106.205588 182.945192 104.756272 182.810873 
Q 103.306955 182.676553 101.706018 182.676553 
Q 98.834142 182.676553 97.18861 183.199892 
Q 95.547538 183.721963 95.547538 184.640656 
Q 95.547538 185.555548 97.18861 186.078887 
Q 98.834142 186.600958 101.706018 186.600958 
Q 103.306955 186.600958 104.756272 186.466639 
Q 106.205588 186.331052 107.699499 186.042139 
L 107.699499 187.266219 
z
" clip-path="url(#pa7b18990b0)" style="fill: #0000ff"/>
   </g>
   <g id="patch_5">
    <path d="M 102.260459 180.113997 
L 95.453516 180.113997 
L 94.378735 181.571587 
L 90 181.571587 
L 96.253268 173.570277 
L 101.446231 173.570277 
L 107.699499 181.571587 
L 103.324383 181.571587 
L 102.260459 180.113997 
z
M 96.539153 178.628971 
L 101.163965 178.628971 
L 98.855178 175.446281 
L 96.539153 178.628971 
z
" clip-path="url(#pa7b18990b0)" style="fill: #008000"/>
   </g>
   <g id="patch_6">
    <path d="M 90 124.228867 
L 107.699499 124.228867 
L 107.699499 133.851817 
L 101.331796 133.851817 
L 101.331796 173.570277 
L 96.380052 173.570277 
L 96.380052 133.851817 
L 90 133.851817 
L 90 124.228867 
z
" clip-path="url(#pa7b18990b0)" style="fill: #ff0000"/>
   </g>
   <g id="patch_7">
    <path d="M 126.330551 192.05276 
Q 124.545527 192.14638 122.625636 192.193404 
Q 120.705744 192.24 118.658917 192.24 
Q 114.033723 192.24 111.332387 191.961278 
Q 108.631052 191.682556 108.631052 191.205907 
Q 108.631052 190.723701 111.379988 190.447117 
Q 114.132891 190.170532 118.92072 190.170532 
Q 120.765244 190.170532 122.455067 190.208151 
Q 124.148856 190.245342 125.648275 190.31887 
L 125.648275 190.731396 
Q 124.101255 190.636921 122.570102 190.590325 
Q 121.038948 190.543301 119.499861 190.543301 
Q 116.651757 190.543301 115.108704 190.715151 
Q 113.56565 190.886574 113.56565 191.205907 
Q 113.56565 191.522248 115.053169 191.694953 
Q 116.540689 191.867231 119.277725 191.867231 
Q 120.023468 191.867231 120.66211 191.857399 
Q 121.300752 191.847139 121.808492 191.825764 
L 121.808492 191.438461 
L 118.892953 191.438461 
L 118.892953 191.093478 
L 126.330551 191.093478 
L 126.330551 192.05276 
z
" clip-path="url(#pa7b18990b0)" style="fill: #ffa600"/>
   </g>
   <g id="patch_8">
    <path d="M 126.330551 189.846042 
Q 124.850018 190.006884 123.249081 190.088241 
Q 121.648144 190.170532 119.904504 190.170532 
Q 114.704803 190.170532 111.667927 189.560828 
Q 108.631052 188.951123 108.631052 187.908454 
Q 108.631052 186.862044 111.667927 186.253275 
Q 114.704803 185.643571 119.904504 185.643571 
Q 121.648144 185.643571 123.249081 185.725862 
Q 124.850018 185.807219 126.330551 185.968061 
L 126.330551 186.870461 
Q 124.83664 186.657251 123.387324 186.558127 
Q 121.938007 186.459004 120.33707 186.459004 
Q 117.465193 186.459004 115.819662 186.845212 
Q 114.178589 187.230485 114.178589 187.908454 
Q 114.178589 188.583618 115.819662 188.969826 
Q 117.465193 189.355099 120.33707 189.355099 
Q 121.938007 189.355099 123.387324 189.255976 
Q 124.83664 189.155917 126.330551 188.942707 
L 126.330551 189.846042 
z
" clip-path="url(#pa7b18990b0)" style="fill: #0000ff"/>
   </g>
   <g id="patch_9">
    <path d="M 120.89151 183.970666 
L 114.084567 183.970666 
L 113.009787 185.643571 
L 108.631052 185.643571 
L 114.88432 176.460307 
L 120.077283 176.460307 
L 126.330551 185.643571 
L 121.955434 185.643571 
L 120.89151 183.970666 
z
M 115.170204 182.266271 
L 119.795017 182.266271 
L 117.48623 178.613434 
L 115.170204 182.266271 
z
" clip-path="url(#pa7b18990b0)" style="fill: #008000"/>
   </g>
   <g id="patch_10">
    <path d="M 108.631052 159.257855 
L 126.330551 159.257855 
L 126.330551 162.612812 
L 119.962847 162.612812 
L 119.962847 176.460307 
L 115.011104 176.460307 
L 115.011104 162.612812 
L 108.631052 162.612812 
L 108.631052 159.257855 
z
" clip-path="url(#pa7b18990b0)" style="fill: #ff0000"/>
   </g>
   <g id="patch_11">
    <path d="M 144.961603 191.887947 
Q 143.48107 192.062452 141.880133 192.150719 
Q 140.279195 192.24 138.535556 192.24 
Q 133.335855 192.24 130.298979 191.578506 
Q 127.262104 190.917012 127.262104 189.785775 
Q 127.262104 188.650481 130.298979 187.990001 
Q 133.335855 187.328507 138.535556 187.328507 
Q 140.279195 187.328507 141.880133 187.417788 
Q 143.48107 187.506055 144.961603 187.68056 
L 144.961603 188.659612 
Q 143.467692 188.428292 142.018375 188.320748 
Q 140.569059 188.213205 138.968121 188.213205 
Q 136.096245 188.213205 134.450713 188.632219 
Q 132.809641 189.050218 132.809641 189.785775 
Q 132.809641 190.518289 134.450713 190.937303 
Q 136.096245 191.355302 138.968121 191.355302 
Q 140.569059 191.355302 142.018375 191.247759 
Q 143.467692 191.139201 144.961603 190.907881 
L 144.961603 191.887947 
z
" clip-path="url(#pa7b18990b0)" style="fill: #0000ff"/>
   </g>
   <g id="patch_12">
    <path d="M 144.961603 186.818295 
Q 143.176579 187.073401 141.256687 187.201537 
Q 139.336795 187.328507 137.289969 187.328507 
Q 132.664774 187.328507 129.963439 186.569014 
Q 127.262104 185.80952 127.262104 184.510694 
Q 127.262104 183.196723 130.01104 182.443054 
Q 132.763942 181.689385 137.551772 181.689385 
Q 139.396296 181.689385 141.086118 181.791894 
Q 142.779907 181.893237 144.279327 182.093594 
L 144.279327 183.217691 
Q 142.732307 182.960255 141.201153 182.833285 
Q 139.67 182.70515 138.130913 182.70515 
Q 135.282809 182.70515 133.739755 183.173426 
Q 132.196702 183.640538 132.196702 184.510694 
Q 132.196702 185.372695 133.684221 185.843301 
Q 135.171741 186.312743 137.908777 186.312743 
Q 138.65452 186.312743 139.293162 186.285951 
Q 139.931803 186.257994 140.439543 186.199751 
L 140.439543 185.144381 
L 137.524005 185.144381 
L 137.524005 184.204333 
L 144.961603 184.204333 
L 144.961603 186.818295 
z
" clip-path="url(#pa7b18990b0)" style="fill: #ffa600"/>
   </g>
   <g id="patch_13">
    <path d="M 127.262104 175.68645 
L 144.961603 175.68645 
L 144.961603 176.857189 
L 138.593899 176.857189 
L 138.593899 181.689385 
L 133.642156 181.689385 
L 133.642156 176.857189 
L 127.262104 176.857189 
L 127.262104 175.68645 
z
" clip-path="url(#pa7b18990b0)" style="fill: #ff0000"/>
   </g>
   <g id="patch_14">
    <path d="M 139.522562 170.251847 
L 132.715619 170.251847 
L 131.640839 175.68645 
L 127.262104 175.68645 
L 133.515372 145.853677 
L 138.708335 145.853677 
L 144.961603 175.68645 
L 140.586486 175.68645 
L 139.522562 170.251847 
z
M 133.801256 164.714946 
L 138.426069 164.714946 
L 136.117281 152.848331 
L 133.801256 164.714946 
z
" clip-path="url(#pa7b18990b0)" style="fill: #008000"/>
   </g>
   <g id="patch_15">
    <path d="M 163.592654 191.991098 
Q 161.807631 192.115549 159.887739 192.178059 
Q 157.967847 192.24 155.92102 192.24 
Q 151.295826 192.24 148.594491 191.869489 
Q 145.893155 191.498977 145.893155 190.865357 
Q 145.893155 190.22435 148.642091 189.85668 
Q 151.394994 189.48901 156.182824 189.48901 
Q 158.027348 189.48901 159.71717 189.539018 
Q 161.410959 189.588457 162.910379 189.686199 
L 162.910379 190.234579 
Q 161.363358 190.108992 159.832205 190.04705 
Q 158.301052 189.984541 156.761965 189.984541 
Q 153.913861 189.984541 152.370807 190.212985 
Q 150.827753 190.440861 150.827753 190.865357 
Q 150.827753 191.285876 152.315273 191.515457 
Q 153.802792 191.744469 156.539828 191.744469 
Q 157.285572 191.744469 157.924213 191.731399 
Q 158.562855 191.717761 159.070595 191.689347 
L 159.070595 191.174496 
L 156.155057 191.174496 
L 156.155057 190.715903 
L 163.592654 190.715903 
L 163.592654 191.991098 
z
" clip-path="url(#pa7b18990b0)" style="fill: #ffa600"/>
   </g>
   <g id="patch_16">
    <path d="M 163.592654 189.273041 
Q 162.112122 189.380092 160.511185 189.43424 
Q 158.910247 189.48901 157.166608 189.48901 
Q 151.966906 189.48901 148.930031 189.083212 
Q 145.893155 188.677414 145.893155 187.983449 
Q 145.893155 187.286995 148.930031 186.881819 
Q 151.966906 186.476021 157.166608 186.476021 
Q 158.910247 186.476021 160.511185 186.530791 
Q 162.112122 186.584939 163.592654 186.69199 
L 163.592654 187.292597 
Q 162.098744 187.150692 160.649427 187.084718 
Q 159.200111 187.018745 157.599173 187.018745 
Q 154.727297 187.018745 153.081765 187.275792 
Q 151.440693 187.532217 151.440693 187.983449 
Q 151.440693 188.432815 153.081765 188.689862 
Q 154.727297 188.946286 157.599173 188.946286 
Q 159.200111 188.946286 160.649427 188.880313 
Q 162.098744 188.813717 163.592654 188.671812 
L 163.592654 189.273041 
z
" clip-path="url(#pa7b18990b0)" style="fill: #0000ff"/>
   </g>
   <g id="patch_17">
    <path d="M 158.153614 184.423714 
L 151.346671 184.423714 
L 150.27189 186.476021 
L 145.893155 186.476021 
L 152.146423 175.210063 
L 157.339386 175.210063 
L 163.592654 186.476021 
L 159.217538 186.476021 
L 158.153614 184.423714 
z
M 152.432308 182.332775 
L 157.057121 182.332775 
L 154.748333 177.851503 
L 152.432308 182.332775 
z
" clip-path="url(#pa7b18990b0)" style="fill: #008000"/>
   </g>
   <g id="patch_18">
    <path d="M 145.893155 158.835123 
L 163.592654 158.835123 
L 163.592654 162.028692 
L 157.224951 162.028692 
L 157.224951 175.210063 
L 152.273207 175.210063 
L 152.273207 162.028692 
L 145.893155 162.028692 
L 145.893155 158.835123 
z
" clip-path="url(#pa7b18990b0)" style="fill: #ff0000"/>
   </g>
   <g id="patch_19">
    <path d="M 182.223706 192.169273 
Q 180.743174 192.204331 179.142236 192.222063 
Q 177.541299 192.24 175.79766 192.24 
Q 170.597958 192.24 167.561083 192.107106 
Q 164.524207 191.974212 164.524207 191.746948 
Q 164.524207 191.518868 167.561083 191.386178 
Q 170.597958 191.253284 175.79766 191.253284 
Q 177.541299 191.253284 179.142236 191.271221 
Q 180.743174 191.288954 182.223706 191.324011 
L 182.223706 191.520702 
Q 180.729795 191.47423 179.280479 191.452625 
Q 177.831162 191.431019 176.230225 191.431019 
Q 173.358349 191.431019 171.712817 191.515199 
Q 170.071745 191.599175 170.071745 191.746948 
Q 170.071745 191.894109 171.712817 191.978289 
Q 173.358349 192.062265 176.230225 192.062265 
Q 177.831162 192.062265 179.280479 192.040659 
Q 180.729795 192.01885 182.223706 191.972378 
L 182.223706 192.169273 
z
" clip-path="url(#pa7b18990b0)" style="fill: #0000ff"/>
   </g>
   <g id="patch_20">
    <path d="M 176.784666 190.856597 
L 169.977723 190.856597 
L 168.902942 191.253284 
L 164.524207 191.253284 
L 170.777475 189.075705 
L 175.970438 189.075705 
L 182.223706 191.253284 
L 177.84859 191.253284 
L 176.784666 190.856597 
z
M 171.06336 190.452443 
L 175.688172 190.452443 
L 173.379385 189.586264 
L 171.06336 190.452443 
z
" clip-path="url(#pa7b18990b0)" style="fill: #008000"/>
   </g>
   <g id="patch_21">
    <path d="M 182.223706 188.838663 
Q 180.438683 188.957184 178.518791 189.016715 
Q 176.598899 189.075705 174.552072 189.075705 
Q 169.926878 189.075705 167.225542 188.722849 
Q 164.524207 188.369993 164.524207 187.766566 
Q 164.524207 187.156104 167.273143 186.805954 
Q 170.026046 186.455804 174.813876 186.455804 
Q 176.6584 186.455804 178.348222 186.503429 
Q 180.042011 186.550512 181.541431 186.643597 
L 181.541431 187.165845 
Q 179.99441 187.046242 178.463257 186.987253 
Q 176.932103 186.927722 175.393016 186.927722 
Q 172.544912 186.927722 171.001859 187.14528 
Q 169.458805 187.362297 169.458805 187.766566 
Q 169.458805 188.167047 170.946325 188.385687 
Q 172.433844 188.603787 175.17088 188.603787 
Q 175.916623 188.603787 176.555265 188.59134 
Q 177.193907 188.578351 177.701647 188.551291 
L 177.701647 188.060973 
L 174.786108 188.060973 
L 174.786108 187.624233 
L 182.223706 187.624233 
L 182.223706 188.838663 
z
" clip-path="url(#pa7b18990b0)" style="fill: #ffa600"/>
   </g>
   <g id="patch_22">
    <path d="M 164.524207 183.563706 
L 182.223706 183.563706 
L 182.223706 184.127746 
L 175.856003 184.127746 
L 175.856003 186.455804 
L 170.904259 186.455804 
L 170.904259 184.127746 
L 164.524207 184.127746 
L 164.524207 183.563706 
z
" clip-path="url(#pa7b18990b0)" style="fill: #ff0000"/>
   </g>
   <g id="patch_23">
    <path d="M 183.155259 189.61505 
L 200.854758 189.61505 
L 200.854758 190.126989 
L 194.487054 190.126989 
L 194.487054 192.24 
L 189.535311 192.24 
L 189.535311 190.126989 
L 183.155259 190.126989 
L 183.155259 189.61505 
z
" clip-path="url(#pa7b18990b0)" style="fill: #ff0000"/>
   </g>
   <g id="patch_24">
    <path d="M 200.854758 189.319379 
Q 199.374225 189.465936 197.773288 189.540067 
Q 196.172351 189.61505 194.428711 189.61505 
Q 189.22901 189.61505 186.192134 189.059494 
Q 183.155259 188.503938 183.155259 187.553868 
Q 183.155259 186.60039 186.192134 186.045686 
Q 189.22901 185.49013 194.428711 185.49013 
Q 196.172351 185.49013 197.773288 185.565113 
Q 199.374225 185.639244 200.854758 185.785802 
L 200.854758 186.608059 
Q 199.360847 186.413785 197.911531 186.323464 
Q 196.462214 186.233144 194.861277 186.233144 
Q 191.9894 186.233144 190.343869 186.585053 
Q 188.702796 186.93611 188.702796 187.553868 
Q 188.702796 188.16907 190.343869 188.520979 
Q 191.9894 188.872036 194.861277 188.872036 
Q 196.462214 188.872036 197.911531 188.781716 
Q 199.360847 188.690543 200.854758 188.496269 
L 200.854758 189.319379 
z
" clip-path="url(#pa7b18990b0)" style="fill: #0000ff"/>
   </g>
   <g id="patch_25">
    <path d="M 200.854758 184.370496 
Q 199.069734 184.930313 197.149843 185.2115 
Q 195.229951 185.49013 193.183124 185.49013 
Q 188.55793 185.49013 185.856594 183.823461 
Q 183.155259 182.156792 183.155259 179.306583 
Q 183.155259 176.423143 185.904195 174.769256 
Q 188.657098 173.115368 193.444927 173.115368 
Q 195.289451 173.115368 196.979274 173.340317 
Q 198.673063 173.56271 200.172482 174.002383 
L 200.172482 176.469156 
Q 198.625462 175.904227 197.094309 175.625596 
Q 195.563155 175.34441 194.024068 175.34441 
Q 191.175964 175.34441 189.632911 176.372019 
Q 188.089857 177.397071 188.089857 179.306583 
Q 188.089857 181.198201 189.577376 182.230923 
Q 191.064896 183.261088 193.801932 183.261088 
Q 194.547675 183.261088 195.186317 183.202294 
Q 195.824959 183.140944 196.332699 183.013132 
L 196.332699 180.697178 
L 193.41716 180.697178 
L 193.41716 178.634292 
L 200.854758 178.634292 
L 200.854758 184.370496 
z
" clip-path="url(#pa7b18990b0)" style="fill: #ffa600"/>
   </g>
   <g id="patch_26">
    <path d="M 195.415717 159.179716 
L 188.608774 159.179716 
L 187.533994 173.115368 
L 183.155259 173.115368 
L 189.408527 96.616839 
L 194.60149 96.616839 
L 200.854758 173.115368 
L 196.479641 173.115368 
L 195.415717 159.179716 
z
M 189.694411 144.981747 
L 194.319224 144.981747 
L 192.010437 114.552842 
L 189.694411 144.981747 
z
" clip-path="url(#pa7b18990b0)" style="fill: #008000"/>
   </g>
   <g id="patch_27">
    <path d="M 214.046769 191.423042 
L 207.239826 191.423042 
L 206.165046 192.24 
L 201.786311 192.24 
L 208.039579 187.75538 
L 213.232542 187.75538 
L 219.48581 192.24 
L 215.110693 192.24 
L 214.046769 191.423042 
z
M 208.325463 190.590705 
L 212.950276 190.590705 
L 210.641488 188.806853 
L 208.325463 190.590705 
z
" clip-path="url(#pa7b18990b0)" style="fill: #008000"/>
   </g>
   <g id="patch_28">
    <path d="M 219.48581 187.410964 
Q 218.005277 187.581683 216.40434 187.668035 
Q 214.803402 187.75538 213.059763 187.75538 
Q 207.860062 187.75538 204.823186 187.108235 
Q 201.786311 186.46109 201.786311 185.354393 
Q 201.786311 184.243726 204.823186 183.597574 
Q 207.860062 182.950429 213.059763 182.950429 
Q 214.803402 182.950429 216.40434 183.037774 
Q 218.005277 183.124126 219.48581 183.294845 
L 219.48581 184.252659 
Q 217.991899 184.026357 216.542582 183.921146 
Q 215.093266 183.815936 213.492328 183.815936 
Q 210.620452 183.815936 208.97492 184.22586 
Q 207.333848 184.634792 207.333848 185.354393 
Q 207.333848 186.071017 208.97492 186.480941 
Q 210.620452 186.889873 213.492328 186.889873 
Q 215.093266 186.889873 216.542582 186.784663 
Q 217.991899 186.678459 219.48581 186.452157 
L 219.48581 187.410964 
z
" clip-path="url(#pa7b18990b0)" style="fill: #0000ff"/>
   </g>
   <g id="patch_29">
    <path d="M 219.48581 182.370778 
Q 217.700786 182.660604 215.780894 182.806178 
Q 213.861002 182.950429 211.814176 182.950429 
Q 207.188981 182.950429 204.487646 182.08757 
Q 201.786311 181.22471 201.786311 179.749114 
Q 201.786311 178.256314 204.535247 177.400072 
Q 207.288149 176.543829 212.075979 176.543829 
Q 213.920503 176.543829 215.610325 176.660289 
Q 217.304114 176.775425 218.803534 177.00305 
L 218.803534 178.280135 
Q 217.256514 177.987663 215.72536 177.843412 
Q 214.194207 177.697838 212.65512 177.697838 
Q 209.807016 177.697838 208.263962 178.229846 
Q 206.720909 178.760531 206.720909 179.749114 
Q 206.720909 180.728434 208.208428 181.263089 
Q 209.695948 181.796421 212.432984 181.796421 
Q 213.178727 181.796421 213.817369 181.765983 
Q 214.45601 181.734221 214.96375 181.668051 
L 214.96375 180.469046 
L 212.048212 180.469046 
L 212.048212 179.401059 
L 219.48581 179.401059 
L 219.48581 182.370778 
z
" clip-path="url(#pa7b18990b0)" style="fill: #ffa600"/>
   </g>
   <g id="patch_30">
    <path d="M 201.786311 151.397922 
L 219.48581 151.397922 
L 219.48581 156.302075 
L 213.118106 156.302075 
L 213.118106 176.543829 
L 208.166363 176.543829 
L 208.166363 156.302075 
L 201.786311 156.302075 
L 201.786311 151.397922 
z
" clip-path="url(#pa7b18990b0)" style="fill: #ff0000"/>
   </g>
   <g id="patch_31">
    <path d="M 238.116861 192.076543 
Q 236.331838 192.158272 234.411946 192.199322 
Q 232.492054 192.24 230.445227 192.24 
Q 225.820033 192.24 223.118698 191.996681 
Q 220.417362 191.753362 220.417362 191.337256 
Q 220.417362 190.916299 223.166298 190.674846 
Q 225.919201 190.433393 230.707031 190.433393 
Q 232.551555 190.433393 234.241377 190.466234 
Q 235.935166 190.498701 237.434586 190.562889 
L 237.434586 190.923017 
Q 235.887565 190.840542 234.356412 190.799864 
Q 232.825259 190.758814 231.286172 190.758814 
Q 228.438068 190.758814 226.895014 190.908835 
Q 225.35196 191.058484 225.35196 191.337256 
Q 225.35196 191.613416 226.83948 191.764184 
Q 228.327 191.914579 231.064035 191.914579 
Q 231.809779 191.914579 232.44842 191.905996 
Q 233.087062 191.897039 233.594802 191.87838 
L 233.594802 191.540271 
L 230.679264 191.540271 
L 230.679264 191.239108 
L 238.116861 191.239108 
L 238.116861 192.076543 
z
" clip-path="url(#pa7b18990b0)" style="fill: #ffa600"/>
   </g>
   <g id="patch_32">
    <path d="M 238.116861 190.044903 
Q 236.636329 190.237469 235.035392 190.334871 
Q 233.434454 190.433393 231.690815 190.433393 
Q 226.491113 190.433393 223.454238 189.703436 
Q 220.417362 188.973478 220.417362 187.725162 
Q 220.417362 186.472367 223.454238 185.743529 
Q 226.491113 185.013572 231.690815 185.013572 
Q 233.434454 185.013572 235.035392 185.112094 
Q 236.636329 185.209496 238.116861 185.402061 
L 238.116861 186.482443 
Q 236.622951 186.227182 235.173634 186.108508 
Q 233.724318 185.989834 232.12338 185.989834 
Q 229.251504 185.989834 227.605972 186.452215 
Q 225.9649 186.913476 225.9649 187.725162 
Q 225.9649 188.533489 227.605972 188.99587 
Q 229.251504 189.457131 232.12338 189.457131 
Q 233.724318 189.457131 235.173634 189.338457 
Q 236.622951 189.218663 238.116861 188.963402 
L 238.116861 190.044903 
z
" clip-path="url(#pa7b18990b0)" style="fill: #0000ff"/>
   </g>
   <g id="patch_33">
    <path d="M 220.417362 171.162918 
L 238.116861 171.162918 
L 238.116861 173.864181 
L 231.749158 173.864181 
L 231.749158 185.013572 
L 226.797414 185.013572 
L 226.797414 173.864181 
L 220.417362 173.864181 
L 220.417362 171.162918 
z
" clip-path="url(#pa7b18990b0)" style="fill: #ff0000"/>
   </g>
   <g id="patch_34">
    <path d="M 232.677821 161.015434 
L 225.870878 161.015434 
L 224.796097 171.162918 
L 220.417362 171.162918 
L 226.67063 115.4592 
L 231.863593 115.4592 
L 238.116861 171.162918 
L 233.741745 171.162918 
L 232.677821 161.015434 
z
M 226.956515 150.676938 
L 231.581328 150.676938 
L 229.27254 128.519609 
L 226.956515 150.676938 
z
" clip-path="url(#pa7b18990b0)" style="fill: #008000"/>
   </g>
   <g id="patch_35">
    <path d="M 251.308873 191.376682 
L 244.50193 191.376682 
L 243.427149 192.24 
L 239.048414 192.24 
L 245.301682 187.500892 
L 250.494645 187.500892 
L 256.747913 192.24 
L 252.372797 192.24 
L 251.308873 191.376682 
z
M 245.587567 190.497113 
L 250.212379 190.497113 
L 247.903592 188.612033 
L 245.587567 190.497113 
z
" clip-path="url(#pa7b18990b0)" style="fill: #008000"/>
   </g>
   <g id="patch_36">
    <path d="M 256.747913 187.161195 
Q 255.267381 187.329575 253.666443 187.414744 
Q 252.065506 187.500892 250.321867 187.500892 
Q 245.122165 187.500892 242.08529 186.862615 
Q 239.048414 186.224338 239.048414 185.132806 
Q 239.048414 184.037359 242.08529 183.400061 
Q 245.122165 182.761784 250.321867 182.761784 
Q 252.065506 182.761784 253.666443 182.847932 
Q 255.267381 182.9331 256.747913 183.10148 
L 256.747913 184.046169 
Q 255.254002 183.822968 253.804686 183.719199 
Q 252.355369 183.61543 250.754432 183.61543 
Q 247.882556 183.61543 246.237024 184.019738 
Q 244.595952 184.423066 244.595952 185.132806 
Q 244.595952 185.83961 246.237024 186.243917 
Q 247.882556 186.647246 250.754432 186.647246 
Q 252.355369 186.647246 253.804686 186.543477 
Q 255.254002 186.438729 256.747913 186.215528 
L 256.747913 187.161195 
z
" clip-path="url(#pa7b18990b0)" style="fill: #0000ff"/>
   </g>
   <g id="patch_37">
    <path d="M 256.747913 182.177082 
Q 254.96289 182.469433 253.042998 182.616276 
Q 251.123106 182.761784 249.076279 182.761784 
Q 244.451085 182.761784 241.74975 181.891406 
Q 239.048414 181.021029 239.048414 179.532576 
Q 239.048414 178.02677 241.79735 177.163067 
Q 244.550253 176.299364 249.338083 176.299364 
Q 251.182607 176.299364 252.872429 176.416838 
Q 254.566218 176.532977 256.065638 176.762586 
L 256.065638 178.050798 
Q 254.518617 177.755778 252.987464 177.61027 
Q 251.45631 177.463427 249.917223 177.463427 
Q 247.069119 177.463427 245.526066 178.000071 
Q 243.983012 178.53538 243.983012 179.532576 
Q 243.983012 180.520428 245.470532 181.059742 
Q 246.958051 181.597721 249.695087 181.597721 
Q 250.44083 181.597721 251.079472 181.567017 
Q 251.718114 181.534979 252.225854 181.468232 
L 252.225854 180.258781 
L 249.310315 180.258781 
L 249.310315 179.181488 
L 256.747913 179.181488 
L 256.747913 182.177082 
z
" clip-path="url(#pa7b18990b0)" style="fill: #ffa600"/>
   </g>
   <g id="patch_38">
    <path d="M 239.048414 82.378858 
L 256.747913 82.378858 
L 256.747913 100.695973 
L 250.38021 100.695973 
L 250.38021 176.299364 
L 245.428466 176.299364 
L 245.428466 100.695973 
L 239.048414 100.695973 
L 239.048414 82.378858 
z
" clip-path="url(#pa7b18990b0)" style="fill: #ff0000"/>
   </g>
   <g id="patch_39">
    <path d="M 275.378965 192.064805 
Q 273.898432 192.151645 272.297495 192.19557 
Q 270.696558 192.24 268.952919 192.24 
Q 263.753217 192.24 260.716341 191.910815 
Q 257.679466 191.58163 257.679466 191.018683 
Q 257.679466 190.453716 260.716341 190.125036 
Q 263.753217 189.795851 268.952919 189.795851 
Q 270.696558 189.795851 272.297495 189.840281 
Q 273.898432 189.884206 275.378965 189.971046 
L 275.378965 190.45826 
Q 273.885054 190.343147 272.435738 190.289629 
Q 270.986421 190.236111 269.385484 190.236111 
Q 266.513607 190.236111 264.868076 190.444628 
Q 263.227003 190.652641 263.227003 191.018683 
Q 263.227003 191.38321 264.868076 191.591727 
Q 266.513607 191.79974 269.385484 191.79974 
Q 270.986421 191.79974 272.435738 191.746222 
Q 273.885054 191.6922 275.378965 191.577086 
L 275.378965 192.064805 
z
" clip-path="url(#pa7b18990b0)" style="fill: #0000ff"/>
   </g>
   <g id="patch_40">
    <path d="M 269.939924 189.194766 
L 263.132981 189.194766 
L 262.058201 189.795851 
L 257.679466 189.795851 
L 263.932734 186.49625 
L 269.125697 186.49625 
L 275.378965 189.795851 
L 271.003849 189.795851 
L 269.939924 189.194766 
z
M 264.218618 188.582367 
L 268.843431 188.582367 
L 266.534644 187.269881 
L 264.218618 188.582367 
z
" clip-path="url(#pa7b18990b0)" style="fill: #008000"/>
   </g>
   <g id="patch_41">
    <path d="M 275.378965 185.556406 
Q 273.593941 186.026328 271.67405 186.262362 
Q 269.754158 186.49625 267.707331 186.49625 
Q 263.082137 186.49625 260.380801 185.097213 
Q 257.679466 183.698177 257.679466 181.305652 
Q 257.679466 178.885233 260.428402 177.496925 
Q 263.181305 176.108617 267.969134 176.108617 
Q 269.813659 176.108617 271.503481 176.297444 
Q 273.19727 176.484126 274.696689 176.853197 
L 274.696689 178.923857 
Q 273.149669 178.449643 271.618516 178.215755 
Q 270.087362 177.979722 268.548275 177.979722 
Q 265.700171 177.979722 264.157118 178.842318 
Q 262.614064 179.702768 262.614064 181.305652 
Q 262.614064 182.893516 264.101583 183.760404 
Q 265.589103 184.625146 268.326139 184.625146 
Q 269.071882 184.625146 269.710524 184.575793 
Q 270.349166 184.524295 270.856906 184.417007 
L 270.856906 182.472947 
L 267.941367 182.472947 
L 267.941367 180.741317 
L 275.378965 180.741317 
L 275.378965 185.556406 
z
" clip-path="url(#pa7b18990b0)" style="fill: #ffa600"/>
   </g>
   <g id="patch_42">
    <path d="M 257.679466 161.077102 
L 275.378965 161.077102 
L 275.378965 164.008666 
L 269.011261 164.008666 
L 269.011261 176.108617 
L 264.059518 176.108617 
L 264.059518 164.008666 
L 257.679466 164.008666 
L 257.679466 161.077102 
z
" clip-path="url(#pa7b18990b0)" style="fill: #ff0000"/>
   </g>
   <g id="patch_43">
    <path d="M 294.010017 192.088035 
Q 292.224993 192.164018 290.305101 192.202182 
Q 288.385209 192.24 286.338383 192.24 
Q 281.713188 192.24 279.011853 192.013788 
Q 276.310518 191.787575 276.310518 191.400724 
Q 276.310518 191.009363 279.059454 190.784886 
Q 281.812356 190.560408 286.600186 190.560408 
Q 288.44471 190.560408 290.134532 190.59094 
Q 291.828321 190.621124 293.327741 190.6808 
L 293.327741 191.015608 
Q 291.780721 190.938932 290.249567 190.901114 
Q 288.718414 190.86295 287.179327 190.86295 
Q 284.331223 190.86295 282.788169 191.002424 
Q 281.245116 191.141552 281.245116 191.400724 
Q 281.245116 191.657468 282.732635 191.797637 
Q 284.220155 191.937458 286.957191 191.937458 
Q 287.702934 191.937458 288.341576 191.929478 
Q 288.980217 191.921152 289.487957 191.903804 
L 289.487957 191.589466 
L 286.572419 191.589466 
L 286.572419 191.309476 
L 294.010017 191.309476 
L 294.010017 192.088035 
z
" clip-path="url(#pa7b18990b0)" style="fill: #ffa600"/>
   </g>
   <g id="patch_44">
    <path d="M 288.570976 189.33653 
L 281.764033 189.33653 
L 280.689253 190.560408 
L 276.310518 190.560408 
L 282.563786 183.842039 
L 287.756749 183.842039 
L 294.010017 190.560408 
L 289.6349 190.560408 
L 288.570976 189.33653 
z
M 282.84967 188.089615 
L 287.474483 188.089615 
L 285.165695 185.417242 
L 282.84967 188.089615 
z
" clip-path="url(#pa7b18990b0)" style="fill: #008000"/>
   </g>
   <g id="patch_45">
    <path d="M 294.010017 182.959164 
Q 292.529484 183.396785 290.928547 183.61814 
Q 289.32761 183.842039 287.58397 183.842039 
Q 282.384269 183.842039 279.347393 182.183149 
Q 276.310518 180.524258 276.310518 177.687352 
Q 276.310518 174.840268 279.347393 173.183921 
Q 282.384269 171.525031 287.58397 171.525031 
Q 289.32761 171.525031 290.928547 171.74893 
Q 292.529484 171.970285 294.010017 172.407907 
L 294.010017 174.863167 
Q 292.516106 174.283064 291.066789 174.013367 
Q 289.617473 173.74367 288.016535 173.74367 
Q 285.144659 173.74367 283.499127 174.79447 
Q 281.858055 175.842726 281.858055 177.687352 
Q 281.858055 179.524344 283.499127 180.575144 
Q 285.144659 181.6234 288.016535 181.6234 
Q 289.617473 181.6234 291.066789 181.353703 
Q 292.516106 181.081462 294.010017 180.501359 
L 294.010017 182.959164 
z
" clip-path="url(#pa7b18990b0)" style="fill: #0000ff"/>
   </g>
   <g id="patch_46">
    <path d="M 276.310518 120.857335 
L 294.010017 120.857335 
L 294.010017 130.738948 
L 287.642313 130.738948 
L 287.642313 171.525031 
L 282.69057 171.525031 
L 282.69057 130.738948 
L 276.310518 130.738948 
L 276.310518 120.857335 
z
" clip-path="url(#pa7b18990b0)" style="fill: #ff0000"/>
   </g>
   <g id="patch_47">
    <path d="M 307.202028 192.121183 
L 300.395085 192.121183 
L 299.320305 192.24 
L 294.941569 192.24 
L 301.194837 191.587765 
L 306.3878 191.587765 
L 312.641068 192.24 
L 308.265952 192.24 
L 307.202028 192.121183 
z
M 301.480722 192.000129 
L 306.105535 192.000129 
L 303.796747 191.740689 
L 301.480722 192.000129 
z
" clip-path="url(#pa7b18990b0)" style="fill: #008000"/>
   </g>
   <g id="patch_48">
    <path d="M 312.641068 191.447509 
Q 311.160536 191.517031 309.559599 191.552196 
Q 307.958661 191.587765 306.215022 191.587765 
Q 301.01532 191.587765 297.978445 191.32423 
Q 294.941569 191.060695 294.941569 190.610018 
Q 294.941569 190.157724 297.978445 189.894594 
Q 301.01532 189.631059 306.215022 189.631059 
Q 307.958661 189.631059 309.559599 189.666628 
Q 311.160536 189.701793 312.641068 189.771314 
L 312.641068 190.161362 
Q 311.147158 190.069206 309.697841 190.026361 
Q 308.248525 189.983516 306.647587 189.983516 
Q 303.775711 189.983516 302.130179 190.150449 
Q 300.489107 190.316977 300.489107 190.610018 
Q 300.489107 190.901847 302.130179 191.068779 
Q 303.775711 191.235307 306.647587 191.235307 
Q 308.248525 191.235307 309.697841 191.192462 
Q 311.147158 191.149214 312.641068 191.057057 
L 312.641068 191.447509 
z
" clip-path="url(#pa7b18990b0)" style="fill: #0000ff"/>
   </g>
   <g id="patch_49">
    <path d="M 312.641068 189.454022 
Q 310.856045 189.54254 308.936153 189.587002 
Q 307.016261 189.631059 304.969434 189.631059 
Q 300.34424 189.631059 297.642905 189.367524 
Q 294.941569 189.103989 294.941569 188.653312 
Q 294.941569 188.197381 297.690505 187.935867 
Q 300.443408 187.674353 305.231238 187.674353 
Q 307.075762 187.674353 308.765584 187.709922 
Q 310.459373 187.745087 311.958793 187.814608 
L 311.958793 188.204656 
Q 310.411772 188.115329 308.880619 188.071272 
Q 307.349466 188.026811 305.810379 188.026811 
Q 302.962275 188.026811 301.419221 188.189297 
Q 299.876167 188.351379 299.876167 188.653312 
Q 299.876167 188.952416 301.363687 189.115711 
Q 302.851207 189.278601 305.588242 189.278601 
Q 306.333986 189.278601 306.972627 189.269305 
Q 307.611269 189.259604 308.119009 189.239394 
L 308.119009 188.873194 
L 305.203471 188.873194 
L 305.203471 188.547009 
L 312.641068 188.547009 
L 312.641068 189.454022 
z
" clip-path="url(#pa7b18990b0)" style="fill: #ffa600"/>
   </g>
   <g id="patch_50">
    <path d="M 294.941569 25.92 
L 312.641068 25.92 
L 312.641068 57.466605 
L 306.273365 57.466605 
L 306.273365 187.674353 
L 301.321621 187.674353 
L 301.321621 57.466605 
L 294.941569 57.466605 
L 294.941569 25.92 
z
" clip-path="url(#pa7b18990b0)" style="fill: #ff0000"/>
   </g>
   <g id="patch_51">
    <path d="M 325.83308 192.050649 
L 319.026137 192.050649 
L 317.951356 192.24 
L 313.572621 192.24 
L 319.825889 191.200577 
L 325.018852 191.200577 
L 331.27212 192.24 
L 326.897004 192.24 
L 325.83308 192.050649 
z
M 320.111774 191.857735 
L 324.736586 191.857735 
L 322.427799 191.444282 
L 320.111774 191.857735 
z
" clip-path="url(#pa7b18990b0)" style="fill: #008000"/>
   </g>
   <g id="patch_52">
    <path d="M 331.27212 191.051213 
Q 329.487097 191.125895 327.567205 191.163406 
Q 325.647313 191.200577 323.600486 191.200577 
Q 318.975292 191.200577 316.273957 190.978236 
Q 313.572621 190.755895 313.572621 190.375664 
Q 313.572621 189.991001 316.321557 189.770365 
Q 319.07446 189.549729 323.86229 189.549729 
Q 325.706814 189.549729 327.396636 189.579738 
Q 329.090425 189.609406 330.589845 189.668061 
L 330.589845 189.997139 
Q 329.042824 189.921775 327.511671 189.884604 
Q 325.980517 189.847093 324.44143 189.847093 
Q 321.593326 189.847093 320.050273 189.98418 
Q 318.507219 190.120927 318.507219 190.375664 
Q 318.507219 190.628015 319.994739 190.765784 
Q 321.482258 190.903213 324.219294 190.903213 
Q 324.965037 190.903213 325.603679 190.89537 
Q 326.242321 190.887185 326.750061 190.870135 
L 326.750061 190.561176 
L 323.834523 190.561176 
L 323.834523 190.285978 
L 331.27212 190.285978 
L 331.27212 191.051213 
z
" clip-path="url(#pa7b18990b0)" style="fill: #ffa600"/>
   </g>
   <g id="patch_53">
    <path d="M 331.27212 189.367848 
Q 329.791588 189.458002 328.19065 189.503603 
Q 326.589713 189.549729 324.846074 189.549729 
Q 319.646372 189.549729 316.609497 189.207982 
Q 313.572621 188.866236 313.572621 188.281808 
Q 313.572621 187.695283 316.609497 187.35406 
Q 319.646372 187.012314 324.846074 187.012314 
Q 326.589713 187.012314 328.19065 187.058439 
Q 329.791588 187.10404 331.27212 187.194194 
L 331.27212 187.7 
Q 329.778209 187.580493 328.328893 187.524933 
Q 326.879576 187.469373 325.278639 187.469373 
Q 322.406763 187.469373 320.761231 187.685848 
Q 319.120159 187.901798 319.120159 188.281808 
Q 319.120159 188.660245 320.761231 188.876719 
Q 322.406763 189.092669 325.278639 189.092669 
Q 326.879576 189.092669 328.328893 189.037109 
Q 329.778209 188.981025 331.27212 188.861518 
L 331.27212 189.367848 
z
" clip-path="url(#pa7b18990b0)" style="fill: #0000ff"/>
   </g>
   <g id="patch_54">
    <path d="M 313.572621 184.444328 
L 331.27212 184.444328 
L 331.27212 184.945156 
L 324.904417 184.945156 
L 324.904417 187.012314 
L 319.952673 187.012314 
L 319.952673 184.945156 
L 313.572621 184.945156 
L 313.572621 184.444328 
z
" clip-path="url(#pa7b18990b0)" style="fill: #ff0000"/>
   </g>
   <g id="patch_55">
    <path d="M 349.903172 192.083676 
Q 348.422639 192.161162 346.821702 192.200356 
Q 345.220765 192.24 343.477126 192.24 
Q 338.277424 192.24 335.240548 191.946272 
Q 332.203673 191.652545 332.203673 191.150234 
Q 332.203673 190.646122 335.240548 190.352844 
Q 338.277424 190.059117 343.477126 190.059117 
Q 345.220765 190.059117 346.821702 190.098761 
Q 348.422639 190.137955 349.903172 190.215441 
L 349.903172 190.650176 
Q 348.409261 190.547461 346.959945 190.499708 
Q 345.510628 190.451955 343.909691 190.451955 
Q 341.037814 190.451955 339.392283 190.638012 
Q 337.75121 190.82362 337.75121 191.150234 
Q 337.75121 191.475497 339.392283 191.661555 
Q 341.037814 191.847162 343.909691 191.847162 
Q 345.510628 191.847162 346.959945 191.799408 
Q 348.409261 191.751205 349.903172 191.64849 
L 349.903172 192.083676 
z
" clip-path="url(#pa7b18990b0)" style="fill: #0000ff"/>
   </g>
   <g id="patch_56">
    <path d="M 349.903172 189.298024 
Q 348.118149 189.678571 346.198257 189.869712 
Q 344.278365 190.059117 342.231538 190.059117 
Q 337.606344 190.059117 334.905008 188.926167 
Q 332.203673 187.793217 332.203673 185.855734 
Q 332.203673 183.895661 334.952609 182.771399 
Q 337.705512 181.647138 342.493341 181.647138 
Q 344.337866 181.647138 346.027688 181.800051 
Q 347.721477 181.951227 349.220896 182.250103 
L 349.220896 183.926938 
Q 347.673876 183.542917 346.142723 183.353513 
Q 344.611569 183.162371 343.072482 183.162371 
Q 340.224378 183.162371 338.681325 183.860908 
Q 337.138271 184.557707 337.138271 185.855734 
Q 337.138271 187.141597 338.62579 187.843609 
Q 340.11331 188.543883 342.850346 188.543883 
Q 343.596089 188.543883 344.234731 188.503917 
Q 344.873373 188.462213 345.381113 188.375331 
L 345.381113 186.801017 
L 342.465574 186.801017 
L 342.465574 185.398731 
L 349.903172 185.398731 
L 349.903172 189.298024 
z
" clip-path="url(#pa7b18990b0)" style="fill: #ffa600"/>
   </g>
   <g id="patch_57">
    <path d="M 332.203673 172.612049 
L 349.903172 172.612049 
L 349.903172 174.374143 
L 343.535468 174.374143 
L 343.535468 181.647138 
L 338.583725 181.647138 
L 338.583725 174.374143 
L 332.203673 174.374143 
L 332.203673 172.612049 
z
" clip-path="url(#pa7b18990b0)" style="fill: #ff0000"/>
   </g>
   <g id="patch_58">
    <path d="M 344.464131 161.714977 
L 337.657188 161.714977 
L 336.582408 172.612049 
L 332.203673 172.612049 
L 338.456941 112.793531 
L 343.649904 112.793531 
L 349.903172 172.612049 
L 345.528056 172.612049 
L 344.464131 161.714977 
z
M 338.742825 150.612783 
L 343.367638 150.612783 
L 341.058851 126.818705 
L 338.742825 150.612783 
z
" clip-path="url(#pa7b18990b0)" style="fill: #008000"/>
   </g>
   <g id="patch_59">
    <path d="M 368.534224 191.797047 
Q 366.7492 192.018524 364.829308 192.129767 
Q 362.909416 192.24 360.86259 192.24 
Q 356.237396 192.24 353.53606 191.580627 
Q 350.834725 190.921254 350.834725 189.793646 
Q 350.834725 188.65289 353.583661 187.998574 
Q 356.336563 187.344258 361.124393 187.344258 
Q 362.968917 187.344258 364.658739 187.433253 
Q 366.352528 187.521237 367.851948 187.695182 
L 367.851948 188.671094 
Q 366.304928 188.447595 364.773774 188.337362 
Q 363.242621 188.226118 361.703534 188.226118 
Q 358.85543 188.226118 357.312376 188.632664 
Q 355.769323 189.038199 355.769323 189.793646 
Q 355.769323 190.542014 357.256842 190.950582 
Q 358.744362 191.358139 361.481398 191.358139 
Q 362.227141 191.358139 362.865783 191.334879 
Q 363.504424 191.310608 364.012164 191.260042 
L 364.012164 190.343797 
L 361.096626 190.343797 
L 361.096626 189.527672 
L 368.534224 189.527672 
L 368.534224 191.797047 
z
" clip-path="url(#pa7b18990b0)" style="fill: #ffa600"/>
   </g>
   <g id="patch_60">
    <path d="M 368.534224 186.905603 
Q 367.053691 187.123034 365.452754 187.233014 
Q 363.851817 187.344258 362.108177 187.344258 
Q 356.908476 187.344258 353.8716 186.520042 
Q 350.834725 185.695826 350.834725 184.286315 
Q 350.834725 182.871748 353.8716 182.048796 
Q 356.908476 181.22458 362.108177 181.22458 
Q 363.851817 181.22458 365.452754 181.335824 
Q 367.053691 181.445803 368.534224 181.663235 
L 368.534224 182.883125 
Q 367.040313 182.594902 365.590996 182.460904 
Q 364.14168 182.326906 362.540743 182.326906 
Q 359.668866 182.326906 358.023334 182.848993 
Q 356.382262 183.369817 356.382262 184.286315 
Q 356.382262 185.199021 358.023334 185.721108 
Q 359.668866 186.241932 362.540743 186.241932 
Q 364.14168 186.241932 365.590996 186.107934 
Q 367.040313 185.972671 368.534224 185.684448 
L 368.534224 186.905603 
z
" clip-path="url(#pa7b18990b0)" style="fill: #0000ff"/>
   </g>
   <g id="patch_61">
    <path d="M 363.095183 180.072604 
L 356.28824 180.072604 
L 355.21346 181.22458 
L 350.834725 181.22458 
L 357.087993 174.900913 
L 362.280956 174.900913 
L 368.534224 181.22458 
L 364.159107 181.22458 
L 363.095183 180.072604 
z
M 357.373877 178.898945 
L 361.99869 178.898945 
L 359.689902 176.383573 
L 357.373877 178.898945 
z
" clip-path="url(#pa7b18990b0)" style="fill: #008000"/>
   </g>
   <g id="patch_62">
    <path d="M 350.834725 140.222738 
L 368.534224 140.222738 
L 368.534224 146.985948 
L 362.16652 146.985948 
L 362.16652 174.900913 
L 357.214777 174.900913 
L 357.214777 146.985948 
L 350.834725 146.985948 
L 350.834725 140.222738 
z
" clip-path="url(#pa7b18990b0)" style="fill: #ff0000"/>
   </g>
   <g id="patch_63">
    <path d="M 387.165275 192.080527 
Q 385.684743 192.159574 384.083806 192.199557 
Q 382.482868 192.24 380.739229 192.24 
Q 375.539527 192.24 372.502652 191.940356 
Q 369.465776 191.640713 369.465776 191.128286 
Q 369.465776 190.61402 372.502652 190.314836 
Q 375.539527 190.015193 380.739229 190.015193 
Q 382.482868 190.015193 384.083806 190.055636 
Q 385.684743 190.095619 387.165275 190.174666 
L 387.165275 190.618157 
Q 385.671365 190.513373 384.222048 190.464658 
Q 382.772732 190.415943 381.171794 190.415943 
Q 378.299918 190.415943 376.654386 190.605748 
Q 375.013314 190.795093 375.013314 191.128286 
Q 375.013314 191.4601 376.654386 191.649905 
Q 378.299918 191.83925 381.171794 191.83925 
Q 382.772732 191.83925 384.222048 191.790535 
Q 385.671365 191.74136 387.165275 191.636577 
L 387.165275 192.080527 
z
" clip-path="url(#pa7b18990b0)" style="fill: #0000ff"/>
   </g>
   <g id="patch_64">
    <path d="M 381.726235 189.150573 
L 374.919292 189.150573 
L 373.844512 190.015193 
L 369.465776 190.015193 
L 375.719044 185.268938 
L 380.912007 185.268938 
L 387.165275 190.015193 
L 382.790159 190.015193 
L 381.726235 189.150573 
z
M 376.004929 188.269678 
L 380.629742 188.269678 
L 378.320954 186.381755 
L 376.004929 188.269678 
z
" clip-path="url(#pa7b18990b0)" style="fill: #008000"/>
   </g>
   <g id="patch_65">
    <path d="M 387.165275 184.369823 
Q 385.380252 184.819381 383.46036 185.045186 
Q 381.540468 185.268938 379.493641 185.268938 
Q 374.868447 185.268938 372.167112 183.93053 
Q 369.465776 182.592122 369.465776 180.303281 
Q 369.465776 177.987754 372.214712 176.65961 
Q 374.967615 175.331466 379.755445 175.331466 
Q 381.599969 175.331466 383.289791 175.51211 
Q 384.98358 175.690701 386.483 176.043778 
L 386.483 178.024704 
Q 384.93598 177.571041 383.404826 177.347289 
Q 381.873673 177.121484 380.334586 177.121484 
Q 377.486482 177.121484 375.943428 177.946698 
Q 374.400374 178.76986 374.400374 180.303281 
Q 374.400374 181.822333 375.887894 182.651653 
Q 377.375414 183.47892 380.112449 183.47892 
Q 380.858193 183.47892 381.496834 183.431706 
Q 382.135476 183.38244 382.643216 183.279801 
L 382.643216 181.419989 
L 379.727678 181.419989 
L 379.727678 179.763402 
L 387.165275 179.763402 
L 387.165275 184.369823 
z
" clip-path="url(#pa7b18990b0)" style="fill: #ffa600"/>
   </g>
   <g id="patch_66">
    <path d="M 369.465776 154.418279 
L 387.165275 154.418279 
L 387.165275 158.496933 
L 380.797572 158.496933 
L 380.797572 175.331466 
L 375.845828 175.331466 
L 375.845828 158.496933 
L 369.465776 158.496933 
L 369.465776 154.418279 
z
" clip-path="url(#pa7b18990b0)" style="fill: #ff0000"/>
   </g>
   <g id="patch_67">
    <path d="M 405.796327 192.154958 
Q 404.315795 192.197112 402.714857 192.218433 
Q 401.11392 192.24 399.370281 192.24 
Q 394.170579 192.24 391.133704 192.08021 
Q 388.096828 191.92042 388.096828 191.647159 
Q 388.096828 191.372918 391.133704 191.213373 
Q 394.170579 191.053583 399.370281 191.053583 
Q 401.11392 191.053583 402.714857 191.07515 
Q 404.315795 191.096471 405.796327 191.138625 
L 405.796327 191.375124 
Q 404.302416 191.319246 402.8531 191.293268 
Q 401.403783 191.26729 399.802846 191.26729 
Q 396.93097 191.26729 395.285438 191.368507 
Q 393.644366 191.469478 393.644366 191.647159 
Q 393.644366 191.824105 395.285438 191.925321 
Q 396.93097 192.026293 399.802846 192.026293 
Q 401.403783 192.026293 402.8531 192.000315 
Q 404.302416 191.974092 405.796327 191.918214 
L 405.796327 192.154958 
z
" clip-path="url(#pa7b18990b0)" style="fill: #0000ff"/>
   </g>
   <g id="patch_68">
    <path d="M 405.796327 190.822993 
Q 404.011304 190.938288 402.091412 190.996199 
Q 400.17152 191.053583 398.124693 191.053583 
Q 393.499499 191.053583 390.798164 190.71033 
Q 388.096828 190.367077 388.096828 189.780073 
Q 388.096828 189.186224 390.845764 188.845604 
Q 393.598667 188.504983 398.386497 188.504983 
Q 400.231021 188.504983 401.920843 188.551312 
Q 403.614632 188.597114 405.114052 188.687665 
L 405.114052 189.195701 
Q 403.567031 189.079353 402.035878 189.021968 
Q 400.504724 188.964058 398.965637 188.964058 
Q 396.117533 188.964058 394.57448 189.175695 
Q 393.031426 189.386806 393.031426 189.780073 
Q 393.031426 190.169654 394.518946 190.382345 
Q 396.006465 190.594509 398.743501 190.594509 
Q 399.489244 190.594509 400.127886 190.5824 
Q 400.766528 190.569765 401.274268 190.543442 
L 401.274268 190.066468 
L 398.35873 190.066468 
L 398.35873 189.641613 
L 405.796327 189.641613 
L 405.796327 190.822993 
z
" clip-path="url(#pa7b18990b0)" style="fill: #ffa600"/>
   </g>
   <g id="patch_69">
    <path d="M 400.357287 187.896622 
L 393.550344 187.896622 
L 392.475563 188.504983 
L 388.096828 188.504983 
L 394.350096 185.165439 
L 399.543059 185.165439 
L 405.796327 188.504983 
L 401.421211 188.504983 
L 400.357287 187.896622 
z
M 394.635981 187.27681 
L 399.260793 187.27681 
L 396.952006 185.948435 
L 394.635981 187.27681 
z
" clip-path="url(#pa7b18990b0)" style="fill: #008000"/>
   </g>
   <g id="patch_70">
    <path d="M 388.096828 181.03495 
L 405.796327 181.03495 
L 405.796327 181.84051 
L 399.428624 181.84051 
L 399.428624 185.165439 
L 394.47688 185.165439 
L 394.47688 181.84051 
L 388.096828 181.84051 
L 388.096828 181.03495 
z
" clip-path="url(#pa7b18990b0)" style="fill: #ff0000"/>
   </g>
   <g id="patch_71">
    <path d="M 424.427379 192.134193 
Q 422.946846 192.186639 421.345909 192.213167 
Q 419.744972 192.24 418.001333 192.24 
Q 412.801631 192.24 409.764755 192.041192 
Q 406.72788 191.842384 406.72788 191.502397 
Q 406.72788 191.161191 409.764755 190.962688 
Q 412.801631 190.76388 418.001333 190.76388 
Q 419.744972 190.76388 421.345909 190.790713 
Q 422.946846 190.817241 424.427379 190.869687 
L 424.427379 191.163935 
Q 422.933468 191.094414 421.484152 191.062092 
Q 420.034835 191.02977 418.433898 191.02977 
Q 415.562021 191.02977 413.91649 191.155703 
Q 412.275417 191.28133 412.275417 191.502397 
Q 412.275417 191.72255 413.91649 191.848482 
Q 415.562021 191.974109 418.433898 191.974109 
Q 420.034835 191.974109 421.484152 191.941788 
Q 422.933468 191.909161 424.427379 191.839639 
L 424.427379 192.134193 
z
" clip-path="url(#pa7b18990b0)" style="fill: #0000ff"/>
   </g>
   <g id="patch_72">
    <path d="M 424.427379 190.426477 
Q 422.642356 190.595178 420.722464 190.679914 
Q 418.802572 190.76388 416.755745 190.76388 
Q 412.130551 190.76388 409.429215 190.261627 
Q 406.72788 189.759375 406.72788 188.900462 
Q 406.72788 188.031535 409.476816 187.533134 
Q 412.229719 187.034734 417.017548 187.034734 
Q 418.862073 187.034734 420.551895 187.102522 
Q 422.245684 187.169541 423.745103 187.302037 
L 423.745103 188.045401 
Q 422.198083 187.875159 420.66693 187.791193 
Q 419.135776 187.706457 417.596689 187.706457 
Q 414.748585 187.706457 413.205532 188.016128 
Q 411.662478 188.325029 411.662478 188.900462 
Q 411.662478 189.470503 413.149997 189.781715 
Q 414.637517 190.092156 417.374553 190.092156 
Q 418.120296 190.092156 418.758938 190.074438 
Q 419.39758 190.05595 419.90532 190.017434 
L 419.90532 189.319519 
L 416.989781 189.319519 
L 416.989781 188.697866 
L 424.427379 188.697866 
L 424.427379 190.426477 
z
" clip-path="url(#pa7b18990b0)" style="fill: #ffa600"/>
   </g>
   <g id="patch_73">
    <path d="M 418.988338 185.845898 
L 412.181395 185.845898 
L 411.106615 187.034734 
L 406.72788 187.034734 
L 412.981148 180.508728 
L 418.174111 180.508728 
L 424.427379 187.034734 
L 420.052263 187.034734 
L 418.988338 185.845898 
z
M 413.267032 184.634685 
L 417.891845 184.634685 
L 415.583058 182.038829 
L 413.267032 184.634685 
z
" clip-path="url(#pa7b18990b0)" style="fill: #008000"/>
   </g>
   <g id="patch_74">
    <path d="M 406.72788 172.428911 
L 424.427379 172.428911 
L 424.427379 174.004701 
L 418.059675 174.004701 
L 418.059675 180.508728 
L 413.107932 180.508728 
L 413.107932 174.004701 
L 406.72788 174.004701 
L 406.72788 172.428911 
z
" clip-path="url(#pa7b18990b0)" style="fill: #ff0000"/>
   </g>
   <g id="patch_75">
    <path d="M 443.058431 191.902239 
Q 441.273407 192.07112 439.353515 192.155945 
Q 437.433623 192.24 435.386797 192.24 
Q 430.761603 192.24 428.060267 191.737215 
Q 425.358932 191.23443 425.358932 190.374606 
Q 425.358932 189.504757 428.107868 189.005828 
Q 430.86077 188.506898 435.6486 188.506898 
Q 437.493124 188.506898 439.182946 188.574759 
Q 440.876735 188.641848 442.376155 188.774485 
L 442.376155 189.518637 
Q 440.829135 189.348215 439.297981 189.26416 
Q 437.766828 189.179335 436.227741 189.179335 
Q 433.379637 189.179335 431.836583 189.489334 
Q 430.29353 189.798562 430.29353 190.374606 
Q 430.29353 190.945251 431.781049 191.256793 
Q 433.268569 191.567564 436.005605 191.567564 
Q 436.751348 191.567564 437.38999 191.549827 
Q 438.028631 191.53132 438.536371 191.492763 
L 438.536371 190.794107 
L 435.620833 190.794107 
L 435.620833 190.171795 
L 443.058431 190.171795 
L 443.058431 191.902239 
z
" clip-path="url(#pa7b18990b0)" style="fill: #ffa600"/>
   </g>
   <g id="patch_76">
    <path d="M 443.058431 188.16061 
Q 441.577898 188.332257 439.976961 188.419079 
Q 438.376024 188.506898 436.632384 188.506898 
Q 431.432683 188.506898 428.395807 187.856235 
Q 425.358932 187.205572 425.358932 186.092859 
Q 425.358932 184.976153 428.395807 184.326488 
Q 431.432683 183.675825 436.632384 183.675825 
Q 438.376024 183.675825 439.976961 183.763645 
Q 441.577898 183.850466 443.058431 184.022114 
L 443.058431 184.985135 
Q 441.56452 184.757602 440.115203 184.65182 
Q 438.665887 184.546037 437.06495 184.546037 
Q 434.193073 184.546037 432.547541 184.95819 
Q 430.906469 185.369345 430.906469 186.092859 
Q 430.906469 186.813378 432.547541 187.225531 
Q 434.193073 187.636686 437.06495 187.636686 
Q 438.665887 187.636686 440.115203 187.530904 
Q 441.56452 187.424123 443.058431 187.196591 
L 443.058431 188.16061 
z
" clip-path="url(#pa7b18990b0)" style="fill: #0000ff"/>
   </g>
   <g id="patch_77">
    <path d="M 437.61939 181.835677 
L 430.812447 181.835677 
L 429.737667 183.675825 
L 425.358932 183.675825 
L 431.6122 173.574491 
L 436.805163 173.574491 
L 443.058431 183.675825 
L 438.683314 183.675825 
L 437.61939 181.835677 
z
M 431.898084 179.96089 
L 436.522897 179.96089 
L 434.214109 175.942871 
L 431.898084 179.96089 
z
" clip-path="url(#pa7b18990b0)" style="fill: #008000"/>
   </g>
   <g id="patch_78">
    <path d="M 425.358932 136.243473 
L 443.058431 136.243473 
L 443.058431 143.524062 
L 436.690727 143.524062 
L 436.690727 173.574491 
L 431.738984 173.574491 
L 431.738984 143.524062 
L 425.358932 143.524062 
L 425.358932 136.243473 
z
" clip-path="url(#pa7b18990b0)" style="fill: #ff0000"/>
   </g>
   <g id="patch_79">
    <path d="M 461.689482 192.176944 
Q 460.20895 192.2082 458.608013 192.224009 
Q 457.007075 192.24 455.263436 192.24 
Q 450.063734 192.24 447.026859 192.121521 
Q 443.989983 192.003041 443.989983 191.800427 
Q 443.989983 191.597086 447.026859 191.478789 
Q 450.063734 191.36031 455.263436 191.36031 
Q 457.007075 191.36031 458.608013 191.376301 
Q 460.20895 191.39211 461.689482 191.423365 
L 461.689482 191.598722 
Q 460.195572 191.55729 458.746255 191.538028 
Q 457.296939 191.518767 455.696001 191.518767 
Q 452.824125 191.518767 451.178593 191.593815 
Q 449.537521 191.668683 449.537521 191.800427 
Q 449.537521 191.931627 451.178593 192.006676 
Q 452.824125 192.081543 455.696001 192.081543 
Q 457.296939 192.081543 458.746255 192.062281 
Q 460.195572 192.042837 461.689482 192.001406 
L 461.689482 192.176944 
z
" clip-path="url(#pa7b18990b0)" style="fill: #0000ff"/>
   </g>
   <g id="patch_80">
    <path d="M 461.689482 191.277331 
Q 459.904459 191.31882 457.984567 191.33966 
Q 456.064675 191.36031 454.017848 191.36031 
Q 449.392654 191.36031 446.691319 191.236789 
Q 443.989983 191.113268 443.989983 190.902032 
Q 443.989983 190.688333 446.738919 190.565759 
Q 449.491822 190.443186 454.279652 190.443186 
Q 456.124176 190.443186 457.813998 190.459857 
Q 459.507787 190.476339 461.007207 190.508924 
L 461.007207 190.691743 
Q 459.460187 190.649875 457.929033 190.629225 
Q 456.39788 190.608385 454.858793 190.608385 
Q 452.010689 190.608385 450.467635 190.684544 
Q 448.924581 190.760513 448.924581 190.902032 
Q 448.924581 191.042224 450.412101 191.118762 
Q 451.899621 191.19511 454.636656 191.19511 
Q 455.3824 191.19511 456.021041 191.190752 
Q 456.659683 191.186206 457.167423 191.176733 
L 457.167423 191.005092 
L 454.251885 191.005092 
L 454.251885 190.852207 
L 461.689482 190.852207 
L 461.689482 191.277331 
z
" clip-path="url(#pa7b18990b0)" style="fill: #ffa600"/>
   </g>
   <g id="patch_81">
    <path d="M 443.989983 189.133008 
L 461.689482 189.133008 
L 461.689482 189.388529 
L 455.321779 189.388529 
L 455.321779 190.443186 
L 450.370035 190.443186 
L 450.370035 189.388529 
L 443.989983 189.388529 
L 443.989983 189.133008 
z
" clip-path="url(#pa7b18990b0)" style="fill: #ff0000"/>
   </g>
   <g id="patch_82">
    <path d="M 456.250442 188.829552 
L 449.443499 188.829552 
L 448.368719 189.133008 
L 443.989983 189.133008 
L 450.243251 187.467211 
L 455.436214 187.467211 
L 461.689482 189.133008 
L 457.314366 189.133008 
L 456.250442 188.829552 
z
M 450.529136 188.520383 
L 455.153949 188.520383 
L 452.845161 187.857778 
L 450.529136 188.520383 
z
" clip-path="url(#pa7b18990b0)" style="fill: #008000"/>
   </g>
   <g id="patch_83">
    <path d="M 480.320534 191.88753 
Q 478.840002 192.062242 477.239064 192.150613 
Q 475.638127 192.24 473.894488 192.24 
Q 468.694786 192.24 465.657911 191.577723 
Q 462.621035 190.915446 462.621035 189.782871 
Q 462.621035 188.646233 465.657911 187.984971 
Q 468.694786 187.322694 473.894488 187.322694 
Q 475.638127 187.322694 477.239064 187.412081 
Q 478.840002 187.500452 480.320534 187.675164 
L 480.320534 188.655374 
Q 478.826623 188.423781 477.377307 188.31611 
Q 475.92799 188.208439 474.327053 188.208439 
Q 471.455177 188.208439 469.809645 188.627949 
Q 468.168573 189.046443 468.168573 189.782871 
Q 468.168573 190.516251 469.809645 190.935761 
Q 471.455177 191.354255 474.327053 191.354255 
Q 475.92799 191.354255 477.377307 191.246584 
Q 478.826623 191.137898 480.320534 190.906304 
L 480.320534 191.88753 
z
" clip-path="url(#pa7b18990b0)" style="fill: #0000ff"/>
   </g>
   <g id="patch_84">
    <path d="M 480.320534 186.8333 
Q 478.535511 187.077997 476.615619 187.200904 
Q 474.695727 187.322694 472.6489 187.322694 
Q 468.023706 187.322694 465.322371 186.594189 
Q 462.621035 185.865684 462.621035 184.619852 
Q 462.621035 183.359494 465.369971 182.636576 
Q 468.122874 181.913658 472.910704 181.913658 
Q 474.755228 181.913658 476.44505 182.011983 
Q 478.138839 182.109192 479.638259 182.301374 
L 479.638259 183.379606 
Q 478.091238 183.132674 476.560085 183.010884 
Q 475.028931 182.887977 473.489844 182.887977 
Q 470.64174 182.887977 469.098687 183.337147 
Q 467.555633 183.7852 467.555633 184.619852 
Q 467.555633 185.446682 469.043153 185.898087 
Q 470.530672 186.348375 473.267708 186.348375 
Q 474.013451 186.348375 474.652093 186.322676 
Q 475.290735 186.29586 475.798475 186.239993 
L 475.798475 185.227684 
L 472.882937 185.227684 
L 472.882937 184.325992 
L 480.320534 184.325992 
L 480.320534 186.8333 
z
" clip-path="url(#pa7b18990b0)" style="fill: #ffa600"/>
   </g>
   <g id="patch_85">
    <path d="M 462.621035 173.800103 
L 480.320534 173.800103 
L 480.320534 175.382472 
L 473.952831 175.382472 
L 473.952831 181.913658 
L 469.001087 181.913658 
L 469.001087 175.382472 
L 462.621035 175.382472 
L 462.621035 173.800103 
z
" clip-path="url(#pa7b18990b0)" style="fill: #ff0000"/>
   </g>
   <g id="patch_86">
    <path d="M 474.881494 165.738082 
L 468.074551 165.738082 
L 466.99977 173.800103 
L 462.621035 173.800103 
L 468.874303 129.544349 
L 474.067266 129.544349 
L 480.320534 173.800103 
L 475.945418 173.800103 
L 474.881494 165.738082 
z
M 469.160188 157.524305 
L 473.785 157.524305 
L 471.476213 139.920645 
L 469.160188 157.524305 
z
" clip-path="url(#pa7b18990b0)" style="fill: #008000"/>
   </g>
   <g id="patch_87">
    <path d="M 498.951586 192.002899 
Q 497.166563 192.121449 495.246671 192.180995 
Q 493.326779 192.24 491.279952 192.24 
Q 486.654758 192.24 483.953422 191.887055 
Q 481.252087 191.53411 481.252087 190.93053 
Q 481.252087 190.319913 484.001023 189.969675 
Q 486.753926 189.619436 491.541755 189.619436 
Q 493.38628 189.619436 495.076102 189.667073 
Q 496.769891 189.714169 498.26931 189.807277 
L 498.26931 190.329657 
Q 496.72229 190.210024 495.191137 190.151019 
Q 493.659983 190.091473 492.120896 190.091473 
Q 489.272792 190.091473 487.729739 190.309087 
Q 486.186685 190.526159 486.186685 190.93053 
Q 486.186685 191.331112 487.674205 191.549808 
Q 489.161724 191.767963 491.89876 191.767963 
Q 492.644503 191.767963 493.283145 191.755512 
Q 493.921787 191.742521 494.429527 191.715454 
L 494.429527 191.225012 
L 491.513988 191.225012 
L 491.513988 190.788161 
L 498.951586 190.788161 
L 498.951586 192.002899 
z
" clip-path="url(#pa7b18990b0)" style="fill: #ffa600"/>
   </g>
   <g id="patch_88">
    <path d="M 498.951586 189.387398 
Q 497.471053 189.502414 495.870116 189.560591 
Q 494.269179 189.619436 492.52554 189.619436 
Q 487.325838 189.619436 484.288962 189.183445 
Q 481.252087 188.747454 481.252087 188.001856 
Q 481.252087 187.253583 484.288962 186.818261 
Q 487.325838 186.38227 492.52554 186.38227 
Q 494.269179 186.38227 495.870116 186.441115 
Q 497.471053 186.499292 498.951586 186.614308 
L 498.951586 187.259601 
Q 497.457675 187.107138 496.008359 187.036256 
Q 494.559042 186.965374 492.958105 186.965374 
Q 490.086228 186.965374 488.440697 187.241546 
Q 486.799624 187.51705 486.799624 188.001856 
Q 486.799624 188.484656 488.440697 188.760828 
Q 490.086228 189.036332 492.958105 189.036332 
Q 494.559042 189.036332 496.008359 188.96545 
Q 497.457675 188.893899 498.951586 188.741436 
L 498.951586 189.387398 
z
" clip-path="url(#pa7b18990b0)" style="fill: #0000ff"/>
   </g>
   <g id="patch_89">
    <path d="M 481.252087 173.125301 
L 498.951586 173.125301 
L 498.951586 175.710779 
L 492.583882 175.710779 
L 492.583882 186.38227 
L 487.632139 186.38227 
L 487.632139 175.710779 
L 481.252087 175.710779 
L 481.252087 173.125301 
z
" clip-path="url(#pa7b18990b0)" style="fill: #ff0000"/>
   </g>
   <g id="patch_90">
    <path d="M 493.512545 169.446627 
L 486.705603 169.446627 
L 485.630822 173.125301 
L 481.252087 173.125301 
L 487.505355 152.931546 
L 492.698318 152.931546 
L 498.951586 173.125301 
L 494.57647 173.125301 
L 493.512545 169.446627 
z
M 487.791239 165.698708 
L 492.416052 165.698708 
L 490.107265 157.666215 
L 487.791239 165.698708 
z
" clip-path="url(#pa7b18990b0)" style="fill: #008000"/>
   </g>
   <g id="patch_91">
    <path d="M 517.582638 192.046457 
Q 515.797614 192.143228 513.877722 192.191835 
Q 511.957831 192.24 509.911004 192.24 
Q 505.28581 192.24 502.584474 191.951895 
Q 499.883139 191.663789 499.883139 191.171094 
Q 499.883139 190.672654 502.632075 190.386758 
Q 505.384978 190.100862 510.172807 190.100862 
Q 512.017331 190.100862 513.707153 190.139747 
Q 515.400942 190.17819 516.900362 190.254194 
L 516.900362 190.680607 
Q 515.353342 190.582952 513.822188 190.534787 
Q 512.291035 190.48618 510.751948 190.48618 
Q 507.903844 190.48618 506.36079 190.663816 
Q 504.817737 190.84101 504.817737 191.171094 
Q 504.817737 191.498084 506.305256 191.676604 
Q 507.792776 191.854681 510.529812 191.854681 
Q 511.275555 191.854681 511.914197 191.844518 
Q 512.552838 191.833913 513.060578 191.811819 
L 513.060578 191.411476 
L 510.14504 191.411476 
L 510.14504 191.054879 
L 517.582638 191.054879 
L 517.582638 192.046457 
z
" clip-path="url(#pa7b18990b0)" style="fill: #ffa600"/>
   </g>
   <g id="patch_92">
    <path d="M 517.582638 189.870863 
Q 516.102105 189.984868 514.501168 190.042533 
Q 512.900231 190.100862 511.156591 190.100862 
Q 505.95689 190.100862 502.920014 189.668703 
Q 499.883139 189.236545 499.883139 188.497502 
Q 499.883139 187.755807 502.920014 187.324312 
Q 505.95689 186.892154 511.156591 186.892154 
Q 512.900231 186.892154 514.501168 186.950482 
Q 516.102105 187.008147 517.582638 187.122152 
L 517.582638 187.761773 
Q 516.088727 187.61065 514.63941 187.540391 
Q 513.190094 187.470132 511.589157 187.470132 
Q 508.71728 187.470132 507.071748 187.743877 
Q 505.430676 188.016958 505.430676 188.497502 
Q 505.430676 188.976057 507.071748 189.249802 
Q 508.71728 189.522883 511.589157 189.522883 
Q 513.190094 189.522883 514.63941 189.452624 
Q 516.088727 189.381703 517.582638 189.23058 
L 517.582638 189.870863 
z
" clip-path="url(#pa7b18990b0)" style="fill: #0000ff"/>
   </g>
   <g id="patch_93">
    <path d="M 499.883139 175.982548 
L 517.582638 175.982548 
L 517.582638 178.110225 
L 511.214934 178.110225 
L 511.214934 186.892154 
L 506.263191 186.892154 
L 506.263191 178.110225 
L 499.883139 178.110225 
L 499.883139 175.982548 
z
" clip-path="url(#pa7b18990b0)" style="fill: #ff0000"/>
   </g>
   <g id="patch_94">
    <path d="M 512.143597 173.975673 
L 505.336654 173.975673 
L 504.261874 175.982548 
L 499.883139 175.982548 
L 506.136407 164.965985 
L 511.32937 164.965985 
L 517.582638 175.982548 
L 513.207521 175.982548 
L 512.143597 173.975673 
z
M 506.422291 171.931021 
L 511.047104 171.931021 
L 508.738316 167.548951 
L 506.422291 171.931021 
z
" clip-path="url(#pa7b18990b0)" style="fill: #008000"/>
   </g>
   <g id="patch_95">
    <path d="M 530.774649 191.799434 
L 523.967706 191.799434 
L 522.892926 192.24 
L 518.51419 192.24 
L 524.767458 189.82155 
L 529.960421 189.82155 
L 536.213689 192.24 
L 531.838573 192.24 
L 530.774649 191.799434 
z
M 525.053343 191.350574 
L 529.678156 191.350574 
L 527.369368 190.388585 
L 525.053343 191.350574 
z
" clip-path="url(#pa7b18990b0)" style="fill: #008000"/>
   </g>
   <g id="patch_96">
    <path d="M 536.213689 189.551119 
Q 534.733157 189.685165 533.13222 189.752968 
Q 531.531282 189.82155 529.787643 189.82155 
Q 524.587941 189.82155 521.551066 189.313421 
Q 518.51419 188.805291 518.51419 187.936328 
Q 518.51419 187.064247 521.551066 186.556897 
Q 524.587941 186.048768 529.787643 186.048768 
Q 531.531282 186.048768 533.13222 186.11735 
Q 534.733157 186.185152 536.213689 186.319198 
L 536.213689 187.071261 
Q 534.719779 186.893572 533.270462 186.810962 
Q 531.821146 186.728352 530.220208 186.728352 
Q 527.348332 186.728352 525.7028 187.050219 
Q 524.061728 187.371307 524.061728 187.936328 
Q 524.061728 188.499011 525.7028 188.820878 
Q 527.348332 189.141966 530.220208 189.141966 
Q 531.821146 189.141966 533.270462 189.059356 
Q 534.719779 188.975967 536.213689 188.798277 
L 536.213689 189.551119 
z
" clip-path="url(#pa7b18990b0)" style="fill: #0000ff"/>
   </g>
   <g id="patch_97">
    <path d="M 536.213689 185.506108 
Q 534.428666 185.777438 532.508774 185.913722 
Q 530.588882 186.048768 528.542055 186.048768 
Q 523.916861 186.048768 521.215526 185.240972 
Q 518.51419 184.433177 518.51419 183.051748 
Q 518.51419 181.654212 521.263126 180.852612 
Q 524.016029 180.051011 528.803859 180.051011 
Q 530.648383 180.051011 532.338205 180.160039 
Q 534.031994 180.267828 535.531414 180.480927 
L 535.531414 181.676514 
Q 533.984394 181.402706 532.45324 181.26766 
Q 530.922087 181.131376 529.383 181.131376 
Q 526.534896 181.131376 524.991842 181.629433 
Q 523.448788 182.126252 523.448788 183.051748 
Q 523.448788 183.968571 524.936308 184.469107 
Q 526.423828 184.968403 529.160864 184.968403 
Q 529.906607 184.968403 530.545248 184.939907 
Q 531.18389 184.910173 531.69163 184.848225 
L 531.69163 183.725737 
L 528.776092 183.725737 
L 528.776092 182.725904 
L 536.213689 182.725904 
L 536.213689 185.506108 
z
" clip-path="url(#pa7b18990b0)" style="fill: #ffa600"/>
   </g>
   <g id="patch_98">
    <path d="M 518.51419 167.571809 
L 536.213689 167.571809 
L 536.213689 170.005601 
L 529.845986 170.005601 
L 529.845986 180.051011 
L 524.894242 180.051011 
L 524.894242 170.005601 
L 518.51419 170.005601 
L 518.51419 167.571809 
z
" clip-path="url(#pa7b18990b0)" style="fill: #ff0000"/>
   </g>
   <g id="patch_99">
    <path d="M 554.844741 191.885078 
Q 553.364209 192.061005 551.763271 192.149991 
Q 550.162334 192.24 548.418695 192.24 
Q 543.218993 192.24 540.182118 191.573114 
Q 537.145242 190.906228 537.145242 189.765772 
Q 537.145242 188.621224 540.182118 187.955361 
Q 543.218993 187.288475 548.418695 187.288475 
Q 550.162334 187.288475 551.763271 187.378484 
Q 553.364209 187.46747 554.844741 187.643397 
L 554.844741 188.630429 
Q 553.35083 188.397224 551.901514 188.288804 
Q 550.452197 188.180384 548.85126 188.180384 
Q 545.979384 188.180384 544.333852 188.602813 
Q 542.69278 189.024219 542.69278 189.765772 
Q 542.69278 190.504256 544.333852 190.926685 
Q 545.979384 191.348091 548.85126 191.348091 
Q 550.452197 191.348091 551.901514 191.239671 
Q 553.35083 191.130228 554.844741 190.897023 
L 554.844741 191.885078 
z
" clip-path="url(#pa7b18990b0)" style="fill: #0000ff"/>
   </g>
   <g id="patch_100">
    <path d="M 554.844741 186.799748 
Q 553.059718 187.044111 551.139826 187.166851 
Q 549.219934 187.288475 547.173107 187.288475 
Q 542.547913 187.288475 539.846578 186.560963 
Q 537.145242 185.833451 537.145242 184.589317 
Q 537.145242 183.330677 539.894178 182.608744 
Q 542.647081 181.886811 547.434911 181.886811 
Q 549.279435 181.886811 550.969257 181.985003 
Q 552.663046 182.082079 554.162466 182.273999 
L 554.162466 183.350761 
Q 552.615445 183.104166 551.084292 182.982542 
Q 549.553138 182.859802 548.014052 182.859802 
Q 545.165947 182.859802 543.622894 183.30836 
Q 542.07984 183.755802 542.07984 184.589317 
Q 542.07984 185.41502 543.56736 185.86581 
Q 545.054879 186.315484 547.791915 186.315484 
Q 548.537658 186.315484 549.1763 186.28982 
Q 549.814942 186.26304 550.322682 186.207249 
L 550.322682 185.19632 
L 547.407144 185.19632 
L 547.407144 184.295857 
L 554.844741 184.295857 
L 554.844741 186.799748 
z
" clip-path="url(#pa7b18990b0)" style="fill: #ffa600"/>
   </g>
   <g id="patch_101">
    <path d="M 549.405701 180.49279 
L 542.598758 180.49279 
L 541.523977 181.886811 
L 537.145242 181.886811 
L 543.39851 174.234454 
L 548.591473 174.234454 
L 554.844741 181.886811 
L 550.469625 181.886811 
L 549.405701 180.49279 
z
M 543.684395 179.072528 
L 548.309208 179.072528 
L 546.00042 176.028641 
L 543.684395 179.072528 
z
" clip-path="url(#pa7b18990b0)" style="fill: #008000"/>
   </g>
   <g id="patch_102">
    <path d="M 537.145242 134.847322 
L 554.844741 134.847322 
L 554.844741 142.52891 
L 548.477038 142.52891 
L 548.477038 174.234454 
L 543.525294 174.234454 
L 543.525294 142.52891 
L 537.145242 142.52891 
L 537.145242 134.847322 
z
" clip-path="url(#pa7b18990b0)" style="fill: #ff0000"/>
   </g>
   <g id="patch_103">
    <path d="M 573.475793 192.137296 
Q 571.69077 192.188648 569.770878 192.214441 
Q 567.850986 192.24 565.804159 192.24 
Q 561.178965 192.24 558.477629 192.087117 
Q 555.776294 191.934233 555.776294 191.672784 
Q 555.776294 191.408287 558.52523 191.256576 
Q 561.278133 191.104865 566.065962 191.104865 
Q 567.910487 191.104865 569.600309 191.1255 
Q 571.294098 191.1459 572.793517 191.186231 
L 572.793517 191.412508 
Q 571.246497 191.360687 569.715344 191.335128 
Q 568.18419 191.309335 566.645103 191.309335 
Q 563.796999 191.309335 562.253946 191.403597 
Q 560.710892 191.497625 560.710892 191.672784 
Q 560.710892 191.846302 562.198412 191.941033 
Q 563.685931 192.03553 566.422967 192.03553 
Q 567.16871 192.03553 567.807352 192.030137 
Q 568.445994 192.02451 568.953734 192.012785 
L 568.953734 191.800343 
L 566.038195 191.800343 
L 566.038195 191.611115 
L 573.475793 191.611115 
L 573.475793 192.137296 
z
" clip-path="url(#pa7b18990b0)" style="fill: #ffa600"/>
   </g>
   <g id="patch_104">
    <path d="M 568.036752 190.600307 
L 561.22981 190.600307 
L 560.155029 191.104865 
L 555.776294 191.104865 
L 562.029562 188.335136 
L 567.222525 188.335136 
L 573.475793 191.104865 
L 569.100677 191.104865 
L 568.036752 190.600307 
z
M 562.315446 190.086251 
L 566.940259 190.086251 
L 564.631472 188.984533 
L 562.315446 190.086251 
z
" clip-path="url(#pa7b18990b0)" style="fill: #008000"/>
   </g>
   <g id="patch_105">
    <path d="M 573.475793 188.07802 
Q 571.99526 188.205467 570.394323 188.269931 
Q 568.793386 188.335136 567.049747 188.335136 
Q 561.850045 188.335136 558.813169 187.852025 
Q 555.776294 187.368914 555.776294 186.542735 
Q 555.776294 185.713592 558.813169 185.231221 
Q 561.850045 184.74811 567.049747 184.74811 
Q 568.793386 184.74811 570.394323 184.813315 
Q 571.99526 184.87778 573.475793 185.005226 
L 573.475793 185.72026 
Q 571.981882 185.55132 570.532566 185.472777 
Q 569.083249 185.394234 567.482312 185.394234 
Q 564.610435 185.394234 562.964904 185.700254 
Q 561.323831 186.005533 561.323831 186.542735 
Q 561.323831 187.077714 562.964904 187.383733 
Q 564.610435 187.689012 567.482312 187.689012 
Q 569.083249 187.689012 570.532566 187.61047 
Q 571.981882 187.531186 573.475793 187.362245 
L 573.475793 188.07802 
z
" clip-path="url(#pa7b18990b0)" style="fill: #0000ff"/>
   </g>
   <g id="patch_106">
    <path d="M 555.776294 180.661625 
L 573.475793 180.661625 
L 573.475793 181.458603 
L 567.108089 181.458603 
L 567.108089 184.74811 
L 562.156346 184.74811 
L 562.156346 181.458603 
L 555.776294 181.458603 
L 555.776294 180.661625 
z
" clip-path="url(#pa7b18990b0)" style="fill: #ff0000"/>
   </g>
   <g id="patch_107">
    <path d="M 592.106845 192.078104 
Q 590.321821 192.159052 588.401929 192.199711 
Q 586.482038 192.24 584.435211 192.24 
Q 579.810017 192.24 577.108681 191.999005 
Q 574.407346 191.75801 574.407346 191.345878 
Q 574.407346 190.928942 577.156282 190.689795 
Q 579.909185 190.450648 584.697014 190.450648 
Q 586.541538 190.450648 588.23136 190.483175 
Q 589.925149 190.515332 591.424569 190.578908 
L 591.424569 190.935595 
Q 589.877549 190.853908 588.346395 190.813619 
Q 586.815242 190.77296 585.276155 190.77296 
Q 582.428051 190.77296 580.884997 190.921549 
Q 579.341944 191.069769 579.341944 191.345878 
Q 579.341944 191.6194 580.829463 191.768729 
Q 582.316983 191.917687 585.054019 191.917687 
Q 585.799762 191.917687 586.438404 191.909186 
Q 587.077045 191.900315 587.584785 191.881834 
L 587.584785 191.546954 
L 584.669247 191.546954 
L 584.669247 191.248667 
L 592.106845 191.248667 
L 592.106845 192.078104 
z
" clip-path="url(#pa7b18990b0)" style="fill: #ffa600"/>
   </g>
   <g id="patch_108">
    <path d="M 592.106845 190.251133 
Q 590.626312 190.350028 589.025375 190.40005 
Q 587.424438 190.450648 585.680798 190.450648 
Q 580.481097 190.450648 577.444221 190.075766 
Q 574.407346 189.700885 574.407346 189.059792 
Q 574.407346 188.416399 577.444221 188.042093 
Q 580.481097 187.667211 585.680798 187.667211 
Q 587.424438 187.667211 589.025375 187.717809 
Q 590.626312 187.767831 592.106845 187.866726 
L 592.106845 188.421574 
Q 590.612934 188.29048 589.163617 188.229533 
Q 587.714301 188.168586 586.113364 188.168586 
Q 583.241487 188.168586 581.595955 188.406049 
Q 579.954883 188.642938 579.954883 189.059792 
Q 579.954883 189.474921 581.595955 189.712385 
Q 583.241487 189.949273 586.113364 189.949273 
Q 587.714301 189.949273 589.163617 189.888326 
Q 590.612934 189.826804 592.106845 189.69571 
L 592.106845 190.251133 
z
" clip-path="url(#pa7b18990b0)" style="fill: #0000ff"/>
   </g>
   <g id="patch_109">
    <path d="M 586.667804 186.725537 
L 579.860861 186.725537 
L 578.786081 187.667211 
L 574.407346 187.667211 
L 580.660614 182.497972 
L 585.853577 182.497972 
L 592.106845 187.667211 
L 587.731728 187.667211 
L 586.667804 186.725537 
z
M 580.946498 185.766136 
L 585.571311 185.766136 
L 583.262523 183.709962 
L 580.946498 185.766136 
z
" clip-path="url(#pa7b18990b0)" style="fill: #008000"/>
   </g>
   <g id="patch_110">
    <path d="M 574.407346 175.340563 
L 592.106845 175.340563 
L 592.106845 176.736457 
L 585.739141 176.736457 
L 585.739141 182.497972 
L 580.787398 182.497972 
L 580.787398 176.736457 
L 574.407346 176.736457 
L 574.407346 175.340563 
z
" clip-path="url(#pa7b18990b0)" style="fill: #ff0000"/>
   </g>
   <g id="patch_111">
    <path d="M 610.737896 192.185238 
Q 609.257364 192.212382 607.656427 192.226112 
Q 606.055489 192.24 604.31185 192.24 
Q 599.112148 192.24 596.075273 192.137105 
Q 593.038397 192.03421 593.038397 191.858247 
Q 593.038397 191.681652 596.075273 191.578915 
Q 599.112148 191.47602 604.31185 191.47602 
Q 606.055489 191.47602 607.656427 191.489908 
Q 609.257364 191.503637 610.737896 191.530781 
L 610.737896 191.683072 
Q 609.243986 191.647091 607.794669 191.630362 
Q 606.345353 191.613634 604.744415 191.613634 
Q 601.872539 191.613634 600.227007 191.678812 
Q 598.585935 191.743831 598.585935 191.858247 
Q 598.585935 191.972189 600.227007 192.037366 
Q 601.872539 192.102386 604.744415 192.102386 
Q 606.345353 192.102386 607.794669 192.085657 
Q 609.243986 192.068771 610.737896 192.03279 
L 610.737896 192.185238 
z
" clip-path="url(#pa7b18990b0)" style="fill: #0000ff"/>
   </g>
   <g id="patch_112">
    <path d="M 593.038397 190.339844 
L 610.737896 190.339844 
L 610.737896 190.56143 
L 604.370193 190.56143 
L 604.370193 191.47602 
L 599.418449 191.47602 
L 599.418449 190.56143 
L 593.038397 190.56143 
L 593.038397 190.339844 
z
" clip-path="url(#pa7b18990b0)" style="fill: #ff0000"/>
   </g>
   <g id="patch_113">
    <path d="M 605.298856 190.072203 
L 598.491913 190.072203 
L 597.417133 190.339844 
L 593.038397 190.339844 
L 599.291665 188.870652 
L 604.484628 188.870652 
L 610.737896 190.339844 
L 606.36278 190.339844 
L 605.298856 190.072203 
z
M 599.57755 189.799524 
L 604.202363 189.799524 
L 601.893575 189.215121 
L 599.57755 189.799524 
z
" clip-path="url(#pa7b18990b0)" style="fill: #008000"/>
   </g>
   <g id="patch_114">
    <path d="M 610.737896 188.723544 
Q 608.952873 188.797098 607.032981 188.834043 
Q 605.113089 188.870652 603.066262 188.870652 
Q 598.441068 188.870652 595.739733 188.65167 
Q 593.038397 188.432688 593.038397 188.058202 
Q 593.038397 187.67935 595.787333 187.462048 
Q 598.540236 187.244745 603.328066 187.244745 
Q 605.17259 187.244745 606.862412 187.274301 
Q 608.556201 187.303521 610.055621 187.361289 
L 610.055621 187.685396 
Q 608.508601 187.61117 606.977447 187.574561 
Q 605.446294 187.537616 603.907207 187.537616 
Q 601.059103 187.537616 599.516049 187.672633 
Q 597.972995 187.807313 597.972995 188.058202 
Q 597.972995 188.30674 599.460515 188.442428 
Q 600.948035 188.57778 603.685071 188.57778 
Q 604.430814 188.57778 605.069455 188.570055 
Q 605.708097 188.561995 606.215837 188.545202 
L 606.215837 188.240911 
L 603.300299 188.240911 
L 603.300299 187.96987 
L 610.737896 187.96987 
L 610.737896 188.723544 
z
" clip-path="url(#pa7b18990b0)" style="fill: #ffa600"/>
   </g>
   <g id="patch_115">
    <path d="M 629.368948 191.937384 
Q 627.888416 192.087384 626.287478 192.163256 
Q 624.686541 192.24 622.942902 192.24 
Q 617.7432 192.24 614.706325 191.671395 
Q 611.669449 191.10279 611.669449 190.130406 
Q 611.669449 189.154534 614.706325 188.586801 
Q 617.7432 188.018196 622.942902 188.018196 
Q 624.686541 188.018196 626.287478 188.09494 
Q 627.888416 188.170812 629.368948 188.320812 
L 629.368948 189.162383 
Q 627.875037 188.963545 626.425721 188.871103 
Q 624.976404 188.778662 623.375467 188.778662 
Q 620.503591 188.778662 618.858059 189.138836 
Q 617.216987 189.498139 617.216987 190.130406 
Q 617.216987 190.760058 618.858059 191.120232 
Q 620.503591 191.479535 623.375467 191.479535 
Q 624.976404 191.479535 626.425721 191.387093 
Q 627.875037 191.293779 629.368948 191.094941 
L 629.368948 191.937384 
z
" clip-path="url(#pa7b18990b0)" style="fill: #0000ff"/>
   </g>
   <g id="patch_116">
    <path d="M 629.368948 187.445231 
Q 627.583925 187.731713 625.664033 187.875609 
Q 623.744141 188.018196 621.697314 188.018196 
Q 617.07212 188.018196 614.370785 187.165289 
Q 611.669449 186.312382 611.669449 184.853805 
Q 611.669449 183.378223 614.418385 182.531857 
Q 617.171288 181.68549 621.959118 181.68549 
Q 623.803642 181.68549 625.493464 181.800607 
Q 627.187253 181.914415 628.686673 182.139415 
L 628.686673 183.40177 
Q 627.139652 183.112671 625.608499 182.970084 
Q 624.077345 182.826188 622.538259 182.826188 
Q 619.690154 182.826188 618.147101 183.352061 
Q 616.604047 183.876625 616.604047 184.853805 
Q 616.604047 185.821829 618.091567 186.350318 
Q 619.579086 186.877498 622.316122 186.877498 
Q 623.061865 186.877498 623.700507 186.847411 
Q 624.339149 186.816015 624.846889 186.750608 
L 624.846889 185.565434 
L 621.931351 185.565434 
L 621.931351 184.509765 
L 629.368948 184.509765 
L 629.368948 187.445231 
z
" clip-path="url(#pa7b18990b0)" style="fill: #ffa600"/>
   </g>
   <g id="patch_117">
    <path d="M 611.669449 173.945516 
L 629.368948 173.945516 
L 629.368948 175.455027 
L 623.001245 175.455027 
L 623.001245 181.68549 
L 618.049501 181.68549 
L 618.049501 175.455027 
L 611.669449 175.455027 
L 611.669449 173.945516 
z
" clip-path="url(#pa7b18990b0)" style="fill: #ff0000"/>
   </g>
   <g id="patch_118">
    <path d="M 623.929908 166.382884 
L 617.122965 166.382884 
L 616.048184 173.945516 
L 611.669449 173.945516 
L 617.922717 132.431111 
L 623.11568 132.431111 
L 629.368948 173.945516 
L 624.993832 173.945516 
L 623.929908 166.382884 
z
M 618.208602 158.677896 
L 622.833415 158.677896 
L 620.524627 142.164665 
L 618.208602 158.677896 
z
" clip-path="url(#pa7b18990b0)" style="fill: #008000"/>
   </g>
   <g id="patch_119">
    <path d="M 648 192.041658 
Q 646.519467 192.139972 644.91853 192.1897 
Q 643.317593 192.24 641.573954 192.24 
Q 636.374252 192.24 633.337376 191.867323 
Q 630.300501 191.494647 630.300501 190.857324 
Q 630.300501 190.217715 633.337376 189.84561 
Q 636.374252 189.472933 641.573954 189.472933 
Q 643.317593 189.472933 644.91853 189.523233 
Q 646.519467 189.572962 648 189.671275 
L 648 190.222859 
Q 646.506089 190.092537 645.056773 190.031948 
Q 643.607456 189.97136 642.006519 189.97136 
Q 639.134642 189.97136 637.489111 190.207426 
Q 635.848038 190.442921 635.848038 190.857324 
Q 635.848038 191.270012 637.489111 191.506079 
Q 639.134642 191.741574 642.006519 191.741574 
Q 643.607456 191.741574 645.056773 191.680985 
Q 646.506089 191.619825 648 191.489503 
L 648 192.041658 
z
" clip-path="url(#pa7b18990b0)" style="fill: #0000ff"/>
   </g>
   <g id="patch_120">
    <path d="M 648 189.037699 
Q 646.214977 189.255316 644.295085 189.364622 
Q 642.375193 189.472933 640.328366 189.472933 
Q 635.703172 189.472933 633.001836 188.82505 
Q 630.300501 188.177166 630.300501 187.069205 
Q 630.300501 185.948326 633.049437 185.30541 
Q 635.80234 184.662495 640.590169 184.662495 
Q 642.434694 184.662495 644.124516 184.749939 
Q 645.818305 184.83639 647.317724 185.007304 
L 647.317724 185.966212 
Q 645.770704 185.746607 644.239551 185.638295 
Q 642.708397 185.52899 641.16931 185.52899 
Q 638.321206 185.52899 636.778153 185.928452 
Q 635.235099 186.32692 635.235099 187.069205 
Q 635.235099 187.804533 636.722619 188.205983 
Q 638.210138 188.606438 640.947174 188.606438 
Q 641.692917 188.606438 642.331559 188.583584 
Q 642.970201 188.559735 643.477941 188.510051 
L 643.477941 187.60977 
L 640.562402 187.60977 
L 640.562402 186.807865 
L 648 186.807865 
L 648 189.037699 
z
" clip-path="url(#pa7b18990b0)" style="fill: #ffa600"/>
   </g>
   <g id="patch_121">
    <path d="M 630.300501 174.743626 
L 648 174.743626 
L 648 176.678081 
L 641.632296 176.678081 
L 641.632296 184.662495 
L 636.680553 184.662495 
L 636.680553 176.678081 
L 630.300501 176.678081 
L 630.300501 174.743626 
z
" clip-path="url(#pa7b18990b0)" style="fill: #ff0000"/>
   </g>
   <g id="patch_122">
    <path d="M 642.560959 170.020845 
L 635.754017 170.020845 
L 634.679236 174.743626 
L 630.300501 174.743626 
L 636.553769 148.818341 
L 641.746732 148.818341 
L 648 174.743626 
L 643.624884 174.743626 
L 642.560959 170.020845 
z
M 636.839653 165.209166 
L 641.464466 165.209166 
L 639.155679 154.896837 
L 636.839653 165.209166 
z
" clip-path="url(#pa7b18990b0)" style="fill: #008000"/>
   </g>
   <g id="matplotlib.axis_1">
    <g id="xtick_1">
     <g id="line2d_2">
      <defs>
       <path id="m9349db7cc3" d="M 0 0 
L 0 3.5 
" style="stroke: #000000; stroke-width: 0.8"/>
      </defs>
      <g>
       <use xlink:href="#m9349db7cc3" x="98.84975" y="192.24" style="stroke: #000000; stroke-width: 0.8"/>
      </g>
     </g>
     <g id="text_1">
      <!-- 0 -->
      <g transform="translate(95.6685 206.838437) scale(0.1 -0.1)">
       <defs>
        <path id="DejaVuSans-30" d="M 2034 4250 
Q 1547 4250 1301 3770 
Q 1056 3291 1056 2328 
Q 1056 1369 1301 889 
Q 1547 409 2034 409 
Q 2525 409 2770 889 
Q 3016 1369 3016 2328 
Q 3016 3291 2770 3770 
Q 2525 4250 2034 4250 
z
M 2034 4750 
Q 2819 4750 3233 4129 
Q 3647 3509 3647 2328 
Q 3647 1150 3233 529 
Q 2819 -91 2034 -91 
Q 1250 -91 836 529 
Q 422 1150 422 2328 
Q 422 3509 836 4129 
Q 1250 4750 2034 4750 
z
" transform="scale(0.015625)"/>
       </defs>
       <use xlink:href="#DejaVuSans-30"/>
      </g>
     </g>
    </g>
    <g id="xtick_2">
     <g id="line2d_3">
      <g>
       <use xlink:href="#m9349db7cc3" x="192.005008" y="192.24" style="stroke: #000000; stroke-width: 0.8"/>
      </g>
     </g>
     <g id="text_2">
      <!-- 5 -->
      <g transform="translate(188.823758 206.838437) scale(0.1 -0.1)">
       <defs>
        <path id="DejaVuSans-35" d="M 691 4666 
L 3169 4666 
L 3169 4134 
L 1269 4134 
L 1269 2991 
Q 1406 3038 1543 3061 
Q 1681 3084 1819 3084 
Q 2600 3084 3056 2656 
Q 3513 2228 3513 1497 
Q 3513 744 3044 326 
Q 2575 -91 1722 -91 
Q 1428 -91 1123 -41 
Q 819 9 494 109 
L 494 744 
Q 775 591 1075 516 
Q 1375 441 1709 441 
Q 2250 441 2565 725 
Q 2881 1009 2881 1497 
Q 2881 1984 2565 2268 
Q 2250 2553 1709 2553 
Q 1456 2553 1204 2497 
Q 953 2441 691 2322 
L 691 4666 
z
" transform="scale(0.015625)"/>
       </defs>
       <use xlink:href="#DejaVuSans-35"/>
      </g>
     </g>
    </g>
    <g id="xtick_3">
     <g id="line2d_4">
      <g>
       <use xlink:href="#m9349db7cc3" x="285.160267" y="192.24" style="stroke: #000000; stroke-width: 0.8"/>
      </g>
     </g>
     <g id="text_3">
      <!-- 10 -->
      <g transform="translate(278.797767 206.838437) scale(0.1 -0.1)">
       <defs>
        <path id="DejaVuSans-31" d="M 794 531 
L 1825 531 
L 1825 4091 
L 703 3866 
L 703 4441 
L 1819 4666 
L 2450 4666 
L 2450 531 
L 3481 531 
L 3481 0 
L 794 0 
L 794 531 
z
" transform="scale(0.015625)"/>
       </defs>
       <use xlink:href="#DejaVuSans-31"/>
       <use xlink:href="#DejaVuSans-30" x="63.623047"/>
      </g>
     </g>
    </g>
    <g id="xtick_4">
     <g id="line2d_5">
      <g>
       <use xlink:href="#m9349db7cc3" x="378.315526" y="192.24" style="stroke: #000000; stroke-width: 0.8"/>
      </g>
     </g>
     <g id="text_4">
      <!-- 15 -->
      <g transform="translate(371.953026 206.838437) scale(0.1 -0.1)">
       <use xlink:href="#DejaVuSans-31"/>
       <use xlink:href="#DejaVuSans-35" x="63.623047"/>
      </g>
     </g>
    </g>
    <g id="xtick_5">
     <g id="line2d_6">
      <g>
       <use xlink:href="#m9349db7cc3" x="471.470785" y="192.24" style="stroke: #000000; stroke-width: 0.8"/>
      </g>
     </g>
     <g id="text_5">
      <!-- 20 -->
      <g transform="translate(465.108285 206.838437) scale(0.1 -0.1)">
       <defs>
        <path id="DejaVuSans-32" d="M 1228 531 
L 3431 531 
L 3431 0 
L 469 0 
L 469 531 
Q 828 903 1448 1529 
Q 2069 2156 2228 2338 
Q 2531 2678 2651 2914 
Q 2772 3150 2772 3378 
Q 2772 3750 2511 3984 
Q 2250 4219 1831 4219 
Q 1534 4219 1204 4116 
Q 875 4013 500 3803 
L 500 4441 
Q 881 4594 1212 4672 
Q 1544 4750 1819 4750 
Q 2544 4750 2975 4387 
Q 3406 4025 3406 3419 
Q 3406 3131 3298 2873 
Q 3191 2616 2906 2266 
Q 2828 2175 2409 1742 
Q 1991 1309 1228 531 
z
" transform="scale(0.015625)"/>
       </defs>
       <use xlink:href="#DejaVuSans-32"/>
       <use xlink:href="#DejaVuSans-30" x="63.623047"/>
      </g>
     </g>
    </g>
    <g id="xtick_6">
     <g id="line2d_7">
      <g>
       <use xlink:href="#m9349db7cc3" x="564.626043" y="192.24" style="stroke: #000000; stroke-width: 0.8"/>
      </g>
     </g>
     <g id="text_6">
      <!-- 25 -->
      <g transform="translate(558.263543 206.838437) scale(0.1 -0.1)">
       <use xlink:href="#DejaVuSans-32"/>
       <use xlink:href="#DejaVuSans-35" x="63.623047"/>
      </g>
     </g>
    </g>
   </g>
   <g id="matplotlib.axis_2">
    <g id="ytick_1">
     <g id="line2d_8">
      <defs>
       <path id="mc7545b6368" d="M 0 0 
L -3.5 0 
" style="stroke: #000000; stroke-width: 0.8"/>
      </defs>
      <g>
       <use xlink:href="#mc7545b6368" x="90" y="192.24" style="stroke: #000000; stroke-width: 0.8"/>
      </g>
     </g>
     <g id="text_7">
      <!-- 0.00 -->
      <g transform="translate(60.734375 196.039219) scale(0.1 -0.1)">
       <defs>
        <path id="DejaVuSans-2e" d="M 684 794 
L 1344 794 
L 1344 0 
L 684 0 
L 684 794 
z
" transform="scale(0.015625)"/>
       </defs>
       <use xlink:href="#DejaVuSans-30"/>
       <use xlink:href="#DejaVuSans-2e" x="63.623047"/>
       <use xlink:href="#DejaVuSans-30" x="95.410156"/>
       <use xlink:href="#DejaVuSans-30" x="159.033203"/>
      </g>
     </g>
    </g>
    <g id="ytick_2">
     <g id="line2d_9">
      <g>
       <use xlink:href="#mc7545b6368" x="90" y="168.864502" style="stroke: #000000; stroke-width: 0.8"/>
      </g>
     </g>
     <g id="text_8">
      <!-- 0.25 -->
      <g transform="translate(60.734375 172.663721) scale(0.1 -0.1)">
       <use xlink:href="#DejaVuSans-30"/>
       <use xlink:href="#DejaVuSans-2e" x="63.623047"/>
       <use xlink:href="#DejaVuSans-32" x="95.410156"/>
       <use xlink:href="#DejaVuSans-35" x="159.033203"/>
      </g>
     </g>
    </g>
    <g id="ytick_3">
     <g id="line2d_10">
      <g>
       <use xlink:href="#mc7545b6368" x="90" y="145.489004" style="stroke: #000000; stroke-width: 0.8"/>
      </g>
     </g>
     <g id="text_9">
      <!-- 0.50 -->
      <g transform="translate(60.734375 149.288222) scale(0.1 -0.1)">
       <use xlink:href="#DejaVuSans-30"/>
       <use xlink:href="#DejaVuSans-2e" x="63.623047"/>
       <use xlink:href="#DejaVuSans-35" x="95.410156"/>
       <use xlink:href="#DejaVuSans-30" x="159.033203"/>
      </g>
     </g>
    </g>
    <g id="ytick_4">
     <g id="line2d_11">
      <g>
       <use xlink:href="#mc7545b6368" x="90" y="122.113506" style="stroke: #000000; stroke-width: 0.8"/>
      </g>
     </g>
     <g id="text_10">
      <!-- 0.75 -->
      <g transform="translate(60.734375 125.912724) scale(0.1 -0.1)">
       <defs>
        <path id="DejaVuSans-37" d="M 525 4666 
L 3525 4666 
L 3525 4397 
L 1831 0 
L 1172 0 
L 2766 4134 
L 525 4134 
L 525 4666 
z
" transform="scale(0.015625)"/>
       </defs>
       <use xlink:href="#DejaVuSans-30"/>
       <use xlink:href="#DejaVuSans-2e" x="63.623047"/>
       <use xlink:href="#DejaVuSans-37" x="95.410156"/>
       <use xlink:href="#DejaVuSans-35" x="159.033203"/>
      </g>
     </g>
    </g>
    <g id="ytick_5">
     <g id="line2d_12">
      <g>
       <use xlink:href="#mc7545b6368" x="90" y="98.738007" style="stroke: #000000; stroke-width: 0.8"/>
      </g>
     </g>
     <g id="text_11">
      <!-- 1.00 -->
      <g transform="translate(60.734375 102.537226) scale(0.1 -0.1)">
       <use xlink:href="#DejaVuSans-31"/>
       <use xlink:href="#DejaVuSans-2e" x="63.623047"/>
       <use xlink:href="#DejaVuSans-30" x="95.410156"/>
       <use xlink:href="#DejaVuSans-30" x="159.033203"/>
      </g>
     </g>
    </g>
    <g id="ytick_6">
     <g id="line2d_13">
      <g>
       <use xlink:href="#mc7545b6368" x="90" y="75.362509" style="stroke: #000000; stroke-width: 0.8"/>
      </g>
     </g>
     <g id="text_12">
      <!-- 1.25 -->
      <g transform="translate(60.734375 79.161728) scale(0.1 -0.1)">
       <use xlink:href="#DejaVuSans-31"/>
       <use xlink:href="#DejaVuSans-2e" x="63.623047"/>
       <use xlink:href="#DejaVuSans-32" x="95.410156"/>
       <use xlink:href="#DejaVuSans-35" x="159.033203"/>
      </g>
     </g>
    </g>
    <g id="ytick_7">
     <g id="line2d_14">
      <g>
       <use xlink:href="#mc7545b6368" x="90" y="51.987011" style="stroke: #000000; stroke-width: 0.8"/>
      </g>
     </g>
     <g id="text_13">
      <!-- 1.50 -->
      <g transform="translate(60.734375 55.78623) scale(0.1 -0.1)">
       <use xlink:href="#DejaVuSans-31"/>
       <use xlink:href="#DejaVuSans-2e" x="63.623047"/>
       <use xlink:href="#DejaVuSans-35" x="95.410156"/>
       <use xlink:href="#DejaVuSans-30" x="159.033203"/>
      </g>
     </g>
    </g>
    <g id="ytick_8">
     <g id="line2d_15">
      <g>
       <use xlink:href="#mc7545b6368" x="90" y="28.611513" style="stroke: #000000; stroke-width: 0.8"/>
      </g>
     </g>
     <g id="text_14">
      <!-- 1.75 -->
      <g transform="translate(60.734375 32.410732) scale(0.1 -0.1)">
       <use xlink:href="#DejaVuSans-31"/>
       <use xlink:href="#DejaVuSans-2e" x="63.623047"/>
       <use xlink:href="#DejaVuSans-37" x="95.410156"/>
       <use xlink:href="#DejaVuSans-35" x="159.033203"/>
      </g>
     </g>
    </g>
   </g>
  </g>
 </g>
 <defs>
  <clipPath id="pa7b18990b0">
   <rect x="90" y="25.92" width="558" height="166.32"/>
  </clipPath>
 </defs>
</svg>
