<?xml version="1.0" encoding="utf-8" standalone="no"?>
<!DOCTYPE svg PUBLIC "-//W3C//DTD SVG 1.1//EN"
  "http://www.w3.org/Graphics/SVG/1.1/DTD/svg11.dtd">
<svg xmlns:xlink="http://www.w3.org/1999/xlink" width="720pt" height="216pt" viewBox="0 0 720 216" xmlns="http://www.w3.org/2000/svg" version="1.1">
 <metadata>
  <rdf:RDF xmlns:dc="http://purl.org/dc/elements/1.1/" xmlns:cc="http://creativecommons.org/ns#" xmlns:rdf="http://www.w3.org/1999/02/22-rdf-syntax-ns#">
   <cc:Work>
    <dc:type rdf:resource="http://purl.org/dc/dcmitype/StillImage"/>
    <dc:date>2025-12-17T10:22:03.886864</dc:date>
    <dc:format>image/svg+xml</dc:format>
    <dc:creator>
     <cc:Agent>
      <dc:title>Matplotlib v3.8.2, https://matplotlib.org/</dc:title>
     </cc:Agent>
    </dc:creator>
   </cc:Work>
  </rdf:RDF>
 </metadata>
 <defs>
  <style type="text/css">*{stroke-linejoin: round; stroke-linecap: butt}</style>
 </defs>
 <g id="figure_1">
  <g id="patch_1">
   <path d="M 0 216 
L 720 216 
L 720 0 
L 0 0 
z
" style="fill: #ffffff"/>
  </g>
  <g id="axes_1">
   <g id="patch_2">
    <path d="M 90 192.24 
L 648 192.24 
L 648 25.92 
L 90 25.92 
z
" style="fill: #ffffff"/>
   </g>
   <g id="line2d_1">
    <path d="M 90 192.24 
L 648 192.24 
" clip-path="url(#p7b916bed42)" style="fill: none; stroke: #000000; stroke-width: 0.5; stroke-linecap: square"/>
   </g>
   <g id="patch_3">
    <path d="M 107.699499 192.02054 
Q 106.218967 192.129321 104.618029 192.184344 
Q 103.017092 192.24 101.273453 192.24 
Q 96.073751 192.24 93.036876 191.827643 
Q 90 191.415285 90 190.710103 
Q 90 190.002392 93.036876 189.590667 
Q 96.073751 189.178309 101.273453 189.178309 
Q 103.017092 189.178309 104.618029 189.233965 
Q 106.218967 189.288988 107.699499 189.397769 
L 107.699499 190.008084 
Q 106.205588 189.863885 104.756272 189.796845 
Q 103.306955 189.729806 101.706018 189.729806 
Q 98.834142 189.729806 97.18861 189.991007 
Q 95.547538 190.251577 95.547538 190.710103 
Q 95.547538 191.166732 97.18861 191.427934 
Q 98.834142 191.688504 101.706018 191.688504 
Q 103.306955 191.688504 104.756272 191.621464 
Q 106.205588 191.553792 107.699499 191.409593 
L 107.699499 192.02054 
z
" clip-path="url(#p7b916bed42)" style="fill: #0000ff"/>
   </g>
   <g id="patch_4">
    <path d="M 107.699499 188.88706 
Q 105.914476 189.032684 103.994584 189.105829 
Q 102.074692 189.178309 100.027865 189.178309 
Q 95.402671 189.178309 92.701335 188.74476 
Q 90 188.31121 90 187.569788 
Q 90 186.819721 92.748936 186.389497 
Q 95.501839 185.959272 100.289668 185.959272 
Q 102.134193 185.959272 103.824015 186.017788 
Q 105.517804 186.075639 107.017224 186.190011 
L 107.017224 186.83169 
Q 105.470203 186.684736 103.93905 186.612256 
Q 102.407896 186.539111 100.868809 186.539111 
Q 98.020705 186.539111 96.477652 186.806422 
Q 94.934598 187.073068 94.934598 187.569788 
Q 94.934598 188.061853 96.422118 188.330494 
Q 97.909637 188.59847 100.646673 188.59847 
Q 101.392416 188.59847 102.031058 188.583176 
Q 102.6697 188.567217 103.17744 188.53397 
L 103.17744 187.931522 
L 100.261901 187.931522 
L 100.261901 187.394905 
L 107.699499 187.394905 
L 107.699499 188.88706 
z
" clip-path="url(#p7b916bed42)" style="fill: #ffa600"/>
   </g>
   <g id="patch_5">
    <path d="M 102.260459 184.99546 
L 95.453516 184.99546 
L 94.378735 185.959272 
L 90 185.959272 
L 96.253268 180.668513 
L 101.446231 180.668513 
L 107.699499 185.959272 
L 103.324383 185.959272 
L 102.260459 184.99546 
z
M 96.539153 184.013506 
L 101.163965 184.013506 
L 98.855178 181.908995 
L 96.539153 184.013506 
z
" clip-path="url(#p7b916bed42)" style="fill: #008000"/>
   </g>
   <g id="patch_6">
    <path d="M 90 171.680122 
L 107.699499 171.680122 
L 107.699499 173.433109 
L 101.331796 173.433109 
L 101.331796 180.668513 
L 96.380052 180.668513 
L 96.380052 173.433109 
L 90 173.433109 
L 90 171.680122 
z
" clip-path="url(#p7b916bed42)" style="fill: #ff0000"/>
   </g>
   <g id="patch_7">
    <path d="M 126.330551 192.047253 
Q 124.850018 192.142793 123.249081 192.191119 
Q 121.648144 192.24 119.904504 192.24 
Q 114.704803 192.24 111.667927 191.877835 
Q 108.631052 191.51567 108.631052 190.896323 
Q 108.631052 190.274755 111.667927 189.913145 
Q 114.704803 189.55098 119.904504 189.55098 
Q 121.648144 189.55098 123.249081 189.599861 
Q 124.850018 189.648187 126.330551 189.743727 
L 126.330551 190.279754 
Q 124.83664 190.153107 123.387324 190.094228 
Q 121.938007 190.035348 120.33707 190.035348 
Q 117.465193 190.035348 115.819662 190.264756 
Q 114.178589 190.493609 114.178589 190.896323 
Q 114.178589 191.297371 115.819662 191.526779 
Q 117.465193 191.755632 120.33707 191.755632 
Q 121.938007 191.755632 123.387324 191.696752 
Q 124.83664 191.637317 126.330551 191.510671 
L 126.330551 192.047253 
z
" clip-path="url(#p7b916bed42)" style="fill: #0000ff"/>
   </g>
   <g id="patch_8">
    <path d="M 126.330551 189.186408 
Q 124.545527 189.368694 122.625636 189.460253 
Q 120.705744 189.55098 118.658917 189.55098 
Q 114.033723 189.55098 111.332387 189.008283 
Q 108.631052 188.465586 108.631052 187.537507 
Q 108.631052 186.598608 111.379988 186.060072 
Q 114.132891 185.521537 118.92072 185.521537 
Q 120.765244 185.521537 122.455067 185.594784 
Q 124.148856 185.6672 125.648275 185.810365 
L 125.648275 186.61359 
Q 124.101255 186.429639 122.570102 186.338912 
Q 121.038948 186.247353 119.499861 186.247353 
Q 116.651757 186.247353 115.108704 186.581961 
Q 113.56565 186.915736 113.56565 187.537507 
Q 113.56565 188.153452 115.053169 188.489724 
Q 116.540689 188.825164 119.277725 188.825164 
Q 120.023468 188.825164 120.66211 188.80602 
Q 121.300752 188.786044 121.808492 188.744426 
L 121.808492 187.99031 
L 118.892953 187.99031 
L 118.892953 187.318597 
L 126.330551 187.318597 
L 126.330551 189.186408 
z
" clip-path="url(#p7b916bed42)" style="fill: #ffa600"/>
   </g>
   <g id="patch_9">
    <path d="M 108.631052 176.947732 
L 126.330551 176.947732 
L 126.330551 178.619863 
L 119.962847 178.619863 
L 119.962847 185.521537 
L 115.011104 185.521537 
L 115.011104 178.619863 
L 108.631052 178.619863 
L 108.631052 176.947732 
z
" clip-path="url(#p7b916bed42)" style="fill: #ff0000"/>
   </g>
   <g id="patch_10">
    <path d="M 120.89151 175.064244 
L 114.084567 175.064244 
L 113.009787 176.947732 
L 108.631052 176.947732 
L 114.88432 166.608492 
L 120.077283 166.608492 
L 126.330551 176.947732 
L 121.955434 176.947732 
L 120.89151 175.064244 
z
M 115.170204 173.145302 
L 119.795017 173.145302 
L 117.48623 169.032651 
L 115.170204 173.145302 
z
" clip-path="url(#p7b916bed42)" style="fill: #008000"/>
   </g>
   <g id="patch_11">
    <path d="M 144.961603 191.749386 
Q 143.176579 191.994693 141.256687 192.117907 
Q 139.336795 192.24 137.289969 192.24 
Q 132.664774 192.24 129.963439 191.509679 
Q 127.262104 190.779359 127.262104 189.53042 
Q 127.262104 188.266921 130.01104 187.542201 
Q 132.763942 186.81748 137.551772 186.81748 
Q 139.396296 186.81748 141.086118 186.916051 
Q 142.779907 187.013502 144.279327 187.206163 
L 144.279327 188.287083 
Q 142.732307 188.039536 141.201153 187.917442 
Q 139.67 187.794228 138.130913 187.794228 
Q 135.282809 187.794228 133.739755 188.244518 
Q 132.196702 188.693688 132.196702 189.53042 
Q 132.196702 190.359312 133.684221 190.811842 
Q 135.171741 191.263252 137.908777 191.263252 
Q 138.65452 191.263252 139.293162 191.237489 
Q 139.931803 191.210606 140.439543 191.1546 
L 140.439543 190.139768 
L 137.524005 190.139768 
L 137.524005 189.235828 
L 144.961603 189.235828 
L 144.961603 191.749386 
z
" clip-path="url(#p7b916bed42)" style="fill: #ffa600"/>
   </g>
   <g id="patch_12">
    <path d="M 144.961603 186.414446 
Q 143.48107 186.614221 141.880133 186.71527 
Q 140.279195 186.81748 138.535556 186.81748 
Q 133.335855 186.81748 130.298979 186.060194 
Q 127.262104 185.302908 127.262104 184.007855 
Q 127.262104 182.708156 130.298979 181.952031 
Q 133.335855 181.194745 138.535556 181.194745 
Q 140.279195 181.194745 141.880133 181.296955 
Q 143.48107 181.398004 144.961603 181.597779 
L 144.961603 182.71861 
Q 143.467692 182.453792 142.018375 182.330674 
Q 140.569059 182.207557 138.968121 182.207557 
Q 136.096245 182.207557 134.450713 182.68725 
Q 132.809641 183.16578 132.809641 184.007855 
Q 132.809641 184.846445 134.450713 185.326137 
Q 136.096245 185.804668 138.968121 185.804668 
Q 140.569059 185.804668 142.018375 185.681551 
Q 143.467692 185.557272 144.961603 185.292454 
L 144.961603 186.414446 
z
" clip-path="url(#p7b916bed42)" style="fill: #0000ff"/>
   </g>
   <g id="patch_13">
    <path d="M 139.522562 179.100578 
L 132.715619 179.100578 
L 131.640839 181.194745 
L 127.262104 181.194745 
L 133.515372 169.699003 
L 138.708335 169.699003 
L 144.961603 181.194745 
L 140.586486 181.194745 
L 139.522562 179.100578 
z
M 133.801256 176.966993 
L 138.426069 176.966993 
L 136.117281 172.394319 
L 133.801256 176.966993 
z
" clip-path="url(#p7b916bed42)" style="fill: #008000"/>
   </g>
   <g id="patch_14">
    <path d="M 127.262104 139.916858 
L 144.961603 139.916858 
L 144.961603 145.725206 
L 138.593899 145.725206 
L 138.593899 169.699003 
L 133.642156 169.699003 
L 133.642156 145.725206 
L 127.262104 145.725206 
L 127.262104 139.916858 
z
" clip-path="url(#p7b916bed42)" style="fill: #ff0000"/>
   </g>
   <g id="patch_15">
    <path d="M 163.592654 191.837728 
Q 161.807631 192.038864 159.887739 192.139891 
Q 157.967847 192.24 155.92102 192.24 
Q 151.295826 192.24 148.594491 191.641184 
Q 145.893155 191.042369 145.893155 190.01832 
Q 145.893155 188.982333 148.642091 188.388109 
Q 151.394994 187.793886 156.182824 187.793886 
Q 158.027348 187.793886 159.71717 187.874707 
Q 161.410959 187.954611 162.910379 188.11258 
L 162.910379 188.998864 
Q 161.363358 188.795892 159.832205 188.695783 
Q 158.301052 188.594756 156.761965 188.594756 
Q 153.913861 188.594756 152.370807 188.963964 
Q 150.827753 189.332254 150.827753 190.01832 
Q 150.827753 190.697958 152.315273 191.069003 
Q 153.802792 191.43913 156.539828 191.43913 
Q 157.285572 191.43913 157.924213 191.418006 
Q 158.562855 191.395964 159.070595 191.350042 
L 159.070595 190.517946 
L 156.155057 190.517946 
L 156.155057 189.776774 
L 163.592654 189.776774 
L 163.592654 191.837728 
z
" clip-path="url(#p7b916bed42)" style="fill: #ffa600"/>
   </g>
   <g id="patch_16">
    <path d="M 163.592654 187.457362 
Q 162.112122 187.624169 160.511185 187.708542 
Q 158.910247 187.793886 157.166608 187.793886 
Q 151.966906 187.793886 148.930031 187.16157 
Q 145.893155 186.529254 145.893155 185.447916 
Q 145.893155 184.362699 148.930031 183.731353 
Q 151.966906 183.099038 157.166608 183.099038 
Q 158.910247 183.099038 160.511185 183.184381 
Q 162.112122 183.268754 163.592654 183.435562 
L 163.592654 184.371428 
Q 162.098744 184.150311 160.649427 184.047511 
Q 159.200111 183.944712 157.599173 183.944712 
Q 154.727297 183.944712 153.081765 184.345243 
Q 151.440693 184.744804 151.440693 185.447916 
Q 151.440693 186.148119 153.081765 186.54865 
Q 154.727297 186.948212 157.599173 186.948212 
Q 159.200111 186.948212 160.649427 186.845412 
Q 162.098744 186.741642 163.592654 186.520526 
L 163.592654 187.457362 
z
" clip-path="url(#p7b916bed42)" style="fill: #0000ff"/>
   </g>
   <g id="patch_17">
    <path d="M 158.153614 181.835979 
L 151.346671 181.835979 
L 150.27189 183.099038 
L 145.893155 183.099038 
L 152.146423 176.165587 
L 157.339386 176.165587 
L 163.592654 183.099038 
L 159.217538 183.099038 
L 158.153614 181.835979 
z
M 152.432308 180.549144 
L 157.057121 180.549144 
L 154.748333 177.791218 
L 152.432308 180.549144 
z
" clip-path="url(#p7b916bed42)" style="fill: #008000"/>
   </g>
   <g id="patch_18">
    <path d="M 145.893155 159.738801 
L 163.592654 159.738801 
L 163.592654 162.942482 
L 157.224951 162.942482 
L 157.224951 176.165587 
L 152.273207 176.165587 
L 152.273207 162.942482 
L 145.893155 162.942482 
L 145.893155 159.738801 
z
" clip-path="url(#p7b916bed42)" style="fill: #ff0000"/>
   </g>
   <g id="patch_19">
    <path d="M 176.784666 191.733815 
L 169.977723 191.733815 
L 168.902942 192.24 
L 164.524207 192.24 
L 170.777475 189.46134 
L 175.970438 189.46134 
L 182.223706 192.24 
L 177.84859 192.24 
L 176.784666 191.733815 
z
M 171.06336 191.218101 
L 175.688172 191.218101 
L 173.379385 190.112831 
L 171.06336 191.218101 
z
" clip-path="url(#p7b916bed42)" style="fill: #008000"/>
   </g>
   <g id="patch_20">
    <path d="M 182.223706 189.204595 
Q 180.438683 189.332968 178.518791 189.397447 
Q 176.598899 189.46134 174.552072 189.46134 
Q 169.926878 189.46134 167.225542 189.079154 
Q 164.524207 188.696967 164.524207 188.043382 
Q 164.524207 187.382176 167.273143 187.00292 
Q 170.026046 186.623665 174.813876 186.623665 
Q 176.6584 186.623665 178.348222 186.675248 
Q 180.042011 186.726245 181.541431 186.827068 
L 181.541431 187.392727 
Q 179.99441 187.263182 178.463257 187.199289 
Q 176.932103 187.13481 175.393016 187.13481 
Q 172.544912 187.13481 171.001859 187.370452 
Q 169.458805 187.605509 169.458805 188.043382 
Q 169.458805 188.477152 170.946325 188.713967 
Q 172.433844 188.950195 175.17088 188.950195 
Q 175.916623 188.950195 176.555265 188.936713 
Q 177.193907 188.922645 177.701647 188.893336 
L 177.701647 188.362261 
L 174.786108 188.362261 
L 174.786108 187.889218 
L 182.223706 187.889218 
L 182.223706 189.204595 
z
" clip-path="url(#p7b916bed42)" style="fill: #ffa600"/>
   </g>
   <g id="patch_21">
    <path d="M 182.223706 186.393471 
Q 180.743174 186.507573 179.142236 186.565287 
Q 177.541299 186.623665 175.79766 186.623665 
Q 170.597958 186.623665 167.561083 186.191138 
Q 164.524207 185.758612 164.524207 185.018939 
Q 164.524207 184.276612 167.561083 183.844749 
Q 170.597958 183.412223 175.79766 183.412223 
Q 177.541299 183.412223 179.142236 183.4706 
Q 180.743174 183.528315 182.223706 183.642417 
L 182.223706 184.282582 
Q 180.729795 184.131331 179.280479 184.061012 
Q 177.831162 183.990694 176.230225 183.990694 
Q 173.358349 183.990694 171.712817 184.264671 
Q 170.071745 184.537985 170.071745 185.018939 
Q 170.071745 185.497902 171.712817 185.77188 
Q 173.358349 186.045194 176.230225 186.045194 
Q 177.831162 186.045194 179.280479 185.974875 
Q 180.729795 185.903893 182.223706 185.752642 
L 182.223706 186.393471 
z
" clip-path="url(#p7b916bed42)" style="fill: #0000ff"/>
   </g>
   <g id="patch_22">
    <path d="M 164.524207 176.817209 
L 182.223706 176.817209 
L 182.223706 178.10342 
L 175.856003 178.10342 
L 175.856003 183.412223 
L 170.904259 183.412223 
L 170.904259 178.10342 
L 164.524207 178.10342 
L 164.524207 176.817209 
z
" clip-path="url(#p7b916bed42)" style="fill: #ff0000"/>
   </g>
   <g id="patch_23">
    <path d="M 200.854758 191.925899 
Q 199.374225 192.081592 197.773288 192.160343 
Q 196.172351 192.24 194.428711 192.24 
Q 189.22901 192.24 186.192134 191.649817 
Q 183.155259 191.059633 183.155259 190.050347 
Q 183.155259 189.03744 186.192134 188.448162 
Q 189.22901 187.857979 194.428711 187.857979 
Q 196.172351 187.857979 197.773288 187.937635 
Q 199.374225 188.016387 200.854758 188.172079 
L 200.854758 189.045587 
Q 199.360847 188.839204 197.911531 188.743254 
Q 196.462214 188.647304 194.861277 188.647304 
Q 191.9894 188.647304 190.343869 189.021147 
Q 188.702796 189.394085 188.702796 190.050347 
Q 188.702796 190.703894 190.343869 191.077737 
Q 191.9894 191.450675 194.861277 191.450675 
Q 196.462214 191.450675 197.911531 191.354725 
Q 199.360847 191.25787 200.854758 191.051486 
L 200.854758 191.925899 
z
" clip-path="url(#p7b916bed42)" style="fill: #0000ff"/>
   </g>
   <g id="patch_24">
    <path d="M 200.854758 187.041526 
Q 199.069734 187.449753 197.149843 187.654798 
Q 195.229951 187.857979 193.183124 187.857979 
Q 188.55793 187.857979 185.856594 186.642621 
Q 183.155259 185.427263 183.155259 183.348851 
Q 183.155259 181.246208 185.904195 180.04017 
Q 188.657098 178.834132 193.444927 178.834132 
Q 195.289451 178.834132 196.979274 178.998168 
Q 198.673063 179.16034 200.172482 179.480956 
L 200.172482 181.27976 
Q 198.625462 180.867806 197.094309 180.664625 
Q 195.563155 180.45958 194.024068 180.45958 
Q 191.175964 180.45958 189.632911 181.208927 
Q 188.089857 181.956409 188.089857 183.348851 
Q 188.089857 184.728245 189.577376 185.48132 
Q 191.064896 186.23253 193.801932 186.23253 
Q 194.547675 186.23253 195.186317 186.189657 
Q 195.824959 186.14492 196.332699 186.051718 
L 196.332699 184.362892 
L 193.41716 184.362892 
L 193.41716 182.858607 
L 200.854758 182.858607 
L 200.854758 187.041526 
z
" clip-path="url(#p7b916bed42)" style="fill: #ffa600"/>
   </g>
   <g id="patch_25">
    <path d="M 183.155259 169.533162 
L 200.854758 169.533162 
L 200.854758 171.34711 
L 194.487054 171.34711 
L 194.487054 178.834132 
L 189.535311 178.834132 
L 189.535311 171.34711 
L 183.155259 171.34711 
L 183.155259 169.533162 
z
" clip-path="url(#p7b916bed42)" style="fill: #ff0000"/>
   </g>
   <g id="patch_26">
    <path d="M 195.415717 163.774905 
L 188.608774 163.774905 
L 187.533994 169.533162 
L 183.155259 169.533162 
L 189.408527 137.923719 
L 194.60149 137.923719 
L 200.854758 169.533162 
L 196.479641 169.533162 
L 195.415717 163.774905 
z
M 189.694411 157.908257 
L 194.319224 157.908257 
L 192.010437 145.334934 
L 189.694411 157.908257 
z
" clip-path="url(#p7b916bed42)" style="fill: #008000"/>
   </g>
   <g id="patch_27">
    <path d="M 219.48581 192.090113 
Q 218.005277 192.164408 216.40434 192.201988 
Q 214.803402 192.24 213.059763 192.24 
Q 207.860062 192.24 204.823186 191.958367 
Q 201.786311 191.676734 201.786311 191.195108 
Q 201.786311 190.711753 204.823186 190.430552 
Q 207.860062 190.148919 213.059763 190.148919 
Q 214.803402 190.148919 216.40434 190.186931 
Q 218.005277 190.224511 219.48581 190.298807 
L 219.48581 190.715641 
Q 217.991899 190.617156 216.542582 190.571369 
Q 215.093266 190.525582 213.492328 190.525582 
Q 210.620452 190.525582 208.97492 190.703978 
Q 207.333848 190.881942 207.333848 191.195108 
Q 207.333848 191.506977 208.97492 191.685373 
Q 210.620452 191.863338 213.492328 191.863338 
Q 215.093266 191.863338 216.542582 191.817551 
Q 217.991899 191.771332 219.48581 191.672847 
L 219.48581 192.090113 
z
" clip-path="url(#p7b916bed42)" style="fill: #0000ff"/>
   </g>
   <g id="patch_28">
    <path d="M 219.48581 189.788626 
Q 217.700786 189.968773 215.780894 190.059257 
Q 213.861002 190.148919 211.814176 190.148919 
Q 207.188981 190.148919 204.487646 189.612593 
Q 201.786311 189.076266 201.786311 188.159081 
Q 201.786311 187.231203 204.535247 186.698989 
Q 207.288149 186.166775 212.075979 186.166775 
Q 213.920503 186.166775 215.610325 186.239162 
Q 217.304114 186.310727 218.803534 186.452212 
L 218.803534 187.246009 
Q 217.256514 187.064217 215.72536 186.974555 
Q 214.194207 186.884071 212.65512 186.884071 
Q 209.807016 186.884071 208.263962 187.214751 
Q 206.720909 187.544608 206.720909 188.159081 
Q 206.720909 188.767795 208.208428 189.100121 
Q 209.695948 189.431623 212.432984 189.431623 
Q 213.178727 189.431623 213.817369 189.412704 
Q 214.45601 189.392962 214.96375 189.351832 
L 214.96375 188.606568 
L 212.048212 188.606568 
L 212.048212 187.94274 
L 219.48581 187.94274 
L 219.48581 189.788626 
z
" clip-path="url(#p7b916bed42)" style="fill: #ffa600"/>
   </g>
   <g id="patch_29">
    <path d="M 201.786311 180.875432 
L 219.48581 180.875432 
L 219.48581 181.907391 
L 213.118106 181.907391 
L 213.118106 186.166775 
L 208.166363 186.166775 
L 208.166363 181.907391 
L 201.786311 181.907391 
L 201.786311 180.875432 
z
" clip-path="url(#p7b916bed42)" style="fill: #ff0000"/>
   </g>
   <g id="patch_30">
    <path d="M 214.046769 179.483106 
L 207.239826 179.483106 
L 206.165046 180.875432 
L 201.786311 180.875432 
L 208.039579 173.232381 
L 213.232542 173.232381 
L 219.48581 180.875432 
L 215.110693 180.875432 
L 214.046769 179.483106 
z
M 208.325463 178.064571 
L 212.950276 178.064571 
L 210.641488 175.024386 
L 208.325463 178.064571 
z
" clip-path="url(#p7b916bed42)" style="fill: #008000"/>
   </g>
   <g id="patch_31">
    <path d="M 238.116861 191.946638 
Q 236.636329 192.092051 235.035392 192.165603 
Q 233.434454 192.24 231.690815 192.24 
Q 226.491113 192.24 223.454238 191.688784 
Q 220.417362 191.137568 220.417362 190.194921 
Q 220.417362 189.248892 223.454238 188.698521 
Q 226.491113 188.147305 231.690815 188.147305 
Q 233.434454 188.147305 235.035392 188.221702 
Q 236.636329 188.295254 238.116861 188.440667 
L 238.116861 189.256501 
Q 236.622951 189.063744 235.173634 188.974129 
Q 233.724318 188.884514 232.12338 188.884514 
Q 229.251504 188.884514 227.605972 189.233674 
Q 225.9649 189.581989 225.9649 190.194921 
Q 225.9649 190.805316 227.605972 191.154476 
Q 229.251504 191.502791 232.12338 191.502791 
Q 233.724318 191.502791 235.173634 191.413176 
Q 236.622951 191.322716 238.116861 191.129959 
L 238.116861 191.946638 
z
" clip-path="url(#p7b916bed42)" style="fill: #0000ff"/>
   </g>
   <g id="patch_32">
    <path d="M 238.116861 187.625869 
Q 236.331838 187.886587 234.411946 188.017541 
Q 232.492054 188.147305 230.445227 188.147305 
Q 225.820033 188.147305 223.118698 187.371103 
Q 220.417362 186.594901 220.417362 185.2675 
Q 220.417362 183.924622 223.166298 183.154372 
Q 225.919201 182.384122 230.707031 182.384122 
Q 232.551555 182.384122 234.241377 182.488886 
Q 235.935166 182.592459 237.434586 182.797224 
L 237.434586 183.946051 
Q 235.887565 183.682952 234.356412 183.553188 
Q 232.825259 183.422233 231.286172 183.422233 
Q 228.438068 183.422233 226.895014 183.900812 
Q 225.35196 184.3782 225.35196 185.2675 
Q 225.35196 186.148465 226.83948 186.629425 
Q 228.327 187.109194 231.064035 187.109194 
Q 231.809779 187.109194 232.44842 187.081813 
Q 233.087062 187.053241 233.594802 186.993716 
L 233.594802 185.915128 
L 230.679264 185.915128 
L 230.679264 184.9544 
L 238.116861 184.9544 
L 238.116861 187.625869 
z
" clip-path="url(#p7b916bed42)" style="fill: #ffa600"/>
   </g>
   <g id="patch_33">
    <path d="M 220.417362 168.201682 
L 238.116861 168.201682 
L 238.116861 170.967653 
L 231.749158 170.967653 
L 231.749158 182.384122 
L 226.797414 182.384122 
L 226.797414 170.967653 
L 220.417362 170.967653 
L 220.417362 168.201682 
z
" clip-path="url(#p7b916bed42)" style="fill: #ff0000"/>
   </g>
   <g id="patch_34">
    <path d="M 232.677821 163.037526 
L 225.870878 163.037526 
L 224.796097 168.201682 
L 220.417362 168.201682 
L 226.67063 139.853505 
L 231.863593 139.853505 
L 238.116861 168.201682 
L 233.741745 168.201682 
L 232.677821 163.037526 
z
M 226.956515 157.776163 
L 231.581328 157.776163 
L 229.27254 146.500077 
L 226.956515 157.776163 
z
" clip-path="url(#p7b916bed42)" style="fill: #008000"/>
   </g>
   <g id="patch_35">
    <path d="M 251.308873 190.855232 
L 244.50193 190.855232 
L 243.427149 192.24 
L 239.048414 192.24 
L 245.301682 184.63844 
L 250.494645 184.63844 
L 256.747913 192.24 
L 252.372797 192.24 
L 251.308873 190.855232 
z
M 245.587567 189.444398 
L 250.212379 189.444398 
L 247.903592 186.420717 
L 245.587567 189.444398 
z
" clip-path="url(#p7b916bed42)" style="fill: #008000"/>
   </g>
   <g id="patch_36">
    <path d="M 256.747913 183.874254 
Q 254.96289 184.256347 253.042998 184.448266 
Q 251.123106 184.63844 249.076279 184.63844 
Q 244.451085 184.63844 241.74975 183.500884 
Q 239.048414 182.363328 239.048414 180.417968 
Q 239.048414 178.449926 241.79735 177.321094 
Q 244.550253 176.192262 249.338083 176.192262 
Q 251.182607 176.192262 252.872429 176.345797 
Q 254.566218 176.497587 256.065638 176.797679 
L 256.065638 178.481331 
Q 254.518617 178.095749 252.987464 177.905575 
Q 251.45631 177.713656 249.917223 177.713656 
Q 247.069119 177.713656 245.526066 178.415032 
Q 243.983012 179.114664 243.983012 180.417968 
Q 243.983012 181.709059 245.470532 182.413925 
Q 246.958051 183.117046 249.695087 183.117046 
Q 250.44083 183.117046 251.079472 183.076918 
Q 251.718114 183.035044 252.225854 182.947808 
L 252.225854 181.367094 
L 249.310315 181.367094 
L 249.310315 179.959107 
L 256.747913 179.959107 
L 256.747913 183.874254 
z
" clip-path="url(#p7b916bed42)" style="fill: #ffa600"/>
   </g>
   <g id="patch_37">
    <path d="M 256.747913 175.381003 
Q 255.267381 175.783126 253.666443 175.986525 
Q 252.065506 176.192262 250.321867 176.192262 
Q 245.122165 176.192262 242.08529 174.667937 
Q 239.048414 173.143612 239.048414 170.53683 
Q 239.048414 167.920695 242.08529 166.398708 
Q 245.122165 164.874383 250.321867 164.874383 
Q 252.065506 164.874383 253.666443 165.08012 
Q 255.267381 165.28352 256.747913 165.685642 
L 256.747913 167.941737 
Q 255.254002 167.40869 253.804686 167.160871 
Q 252.355369 166.913051 250.754432 166.913051 
Q 247.882556 166.913051 246.237024 167.878613 
Q 244.595952 168.841836 244.595952 170.53683 
Q 244.595952 172.224809 246.237024 173.190371 
Q 247.882556 174.153594 250.754432 174.153594 
Q 252.355369 174.153594 253.804686 173.905775 
Q 255.254002 173.655617 256.747913 173.122571 
L 256.747913 175.381003 
z
" clip-path="url(#p7b916bed42)" style="fill: #0000ff"/>
   </g>
   <g id="patch_38">
    <path d="M 239.048414 59.803929 
L 256.747913 59.803929 
L 256.747913 80.295595 
L 250.38021 80.295595 
L 250.38021 164.874383 
L 245.428466 164.874383 
L 245.428466 80.295595 
L 239.048414 80.295595 
L 239.048414 59.803929 
z
" clip-path="url(#p7b916bed42)" style="fill: #ff0000"/>
   </g>
   <g id="patch_39">
    <path d="M 275.378965 191.549604 
Q 273.593941 191.894802 271.67405 192.068189 
Q 269.754158 192.24 267.707331 192.24 
Q 263.082137 192.24 260.380801 191.212287 
Q 257.679466 190.184574 257.679466 188.427058 
Q 257.679466 186.649051 260.428402 185.629219 
Q 263.181305 184.609387 267.969134 184.609387 
Q 269.813659 184.609387 271.503481 184.748097 
Q 273.19727 184.885231 274.696689 185.156345 
L 274.696689 186.677424 
Q 273.149669 186.329073 271.618516 186.157262 
Q 270.087362 185.983875 268.548275 185.983875 
Q 265.700171 185.983875 264.157118 186.617526 
Q 262.614064 187.249601 262.614064 188.427058 
Q 262.614064 189.593481 264.101583 190.230285 
Q 265.589103 190.865512 268.326139 190.865512 
Q 269.071882 190.865512 269.710524 190.829259 
Q 270.349166 190.791429 270.856906 190.712616 
L 270.856906 189.284537 
L 267.941367 189.284537 
L 267.941367 188.012505 
L 275.378965 188.012505 
L 275.378965 191.549604 
z
" clip-path="url(#p7b916bed42)" style="fill: #ffa600"/>
   </g>
   <g id="patch_40">
    <path d="M 275.378965 184.048405 
Q 273.898432 184.326471 272.297495 184.467121 
Q 270.696558 184.609387 268.952919 184.609387 
Q 263.753217 184.609387 260.716341 183.555323 
Q 257.679466 182.501258 257.679466 180.698678 
Q 257.679466 178.889631 260.716341 177.837183 
Q 263.753217 176.783118 268.952919 176.783118 
Q 270.696558 176.783118 272.297495 176.925384 
Q 273.898432 177.066034 275.378965 177.3441 
L 275.378965 178.904181 
Q 273.885054 178.535582 272.435738 178.364215 
Q 270.986421 178.192849 269.385484 178.192849 
Q 266.513607 178.192849 264.868076 178.860531 
Q 263.227003 179.526596 263.227003 180.698678 
Q 263.227003 181.865909 264.868076 182.533591 
Q 266.513607 183.199657 269.385484 183.199657 
Q 270.986421 183.199657 272.435738 183.02829 
Q 273.885054 182.855307 275.378965 182.486708 
L 275.378965 184.048405 
z
" clip-path="url(#p7b916bed42)" style="fill: #0000ff"/>
   </g>
   <g id="patch_41">
    <path d="M 269.939924 174.965347 
L 263.132981 174.965347 
L 262.058201 176.783118 
L 257.679466 176.783118 
L 263.932734 166.804625 
L 269.125697 166.804625 
L 275.378965 176.783118 
L 271.003849 176.783118 
L 269.939924 174.965347 
z
M 264.218618 173.113359 
L 268.843431 173.113359 
L 266.534644 169.144203 
L 264.218618 173.113359 
z
" clip-path="url(#p7b916bed42)" style="fill: #008000"/>
   </g>
   <g id="patch_42">
    <path d="M 257.679466 38.84512 
L 275.378965 38.84512 
L 275.378965 63.800789 
L 269.011261 63.800789 
L 269.011261 166.804625 
L 264.059518 166.804625 
L 264.059518 63.800789 
L 257.679466 63.800789 
L 257.679466 38.84512 
z
" clip-path="url(#p7b916bed42)" style="fill: #ff0000"/>
   </g>
   <g id="patch_43">
    <path d="M 294.010017 191.760148 
Q 292.224993 192.000074 290.305101 192.120585 
Q 288.385209 192.24 286.338383 192.24 
Q 281.713188 192.24 279.011853 191.5257 
Q 276.310518 190.811399 276.310518 189.589858 
Q 276.310518 188.354074 279.059454 187.645251 
Q 281.812356 186.936429 286.600186 186.936429 
Q 288.44471 186.936429 290.134532 187.032837 
Q 291.828321 187.12815 293.327741 187.316585 
L 293.327741 188.373794 
Q 291.780721 188.131677 290.249567 188.012261 
Q 288.718414 187.891751 287.179327 187.891751 
Q 284.331223 187.891751 282.788169 188.332163 
Q 281.245116 188.77148 281.245116 189.589858 
Q 281.245116 190.400567 282.732635 190.84317 
Q 284.220155 191.284678 286.957191 191.284678 
Q 287.702934 191.284678 288.341576 191.25948 
Q 288.980217 191.233187 289.487957 191.178409 
L 289.487957 190.185838 
L 286.572419 190.185838 
L 286.572419 189.301727 
L 294.010017 189.301727 
L 294.010017 191.760148 
z
" clip-path="url(#p7b916bed42)" style="fill: #ffa600"/>
   </g>
   <g id="patch_44">
    <path d="M 288.570976 185.236012 
L 281.764033 185.236012 
L 280.689253 186.936429 
L 276.310518 186.936429 
L 282.563786 177.602143 
L 287.756749 177.602143 
L 294.010017 186.936429 
L 289.6349 186.936429 
L 288.570976 185.236012 
z
M 282.84967 183.503588 
L 287.474483 183.503588 
L 285.165695 179.790679 
L 282.84967 183.503588 
z
" clip-path="url(#p7b916bed42)" style="fill: #008000"/>
   </g>
   <g id="patch_45">
    <path d="M 294.010017 176.933067 
Q 292.529484 177.264713 290.928547 177.432464 
Q 289.32761 177.602143 287.58397 177.602143 
Q 282.384269 177.602143 279.347393 176.344974 
Q 276.310518 175.087805 276.310518 172.937892 
Q 276.310518 170.780267 279.347393 169.525026 
Q 282.384269 168.267857 287.58397 168.267857 
Q 289.32761 168.267857 290.928547 168.437536 
Q 292.529484 168.605287 294.010017 168.936933 
L 294.010017 170.79762 
Q 292.516106 170.357997 291.066789 170.15361 
Q 289.617473 169.949224 288.016535 169.949224 
Q 285.144659 169.949224 283.499127 170.74556 
Q 281.858055 171.539967 281.858055 172.937892 
Q 281.858055 174.330033 283.499127 175.126369 
Q 285.144659 175.920776 288.016535 175.920776 
Q 289.617473 175.920776 291.066789 175.71639 
Q 292.516106 175.510075 294.010017 175.070452 
L 294.010017 176.933067 
z
" clip-path="url(#p7b916bed42)" style="fill: #0000ff"/>
   </g>
   <g id="patch_46">
    <path d="M 276.310518 25.92 
L 294.010017 25.92 
L 294.010017 53.681798 
L 287.642313 53.681798 
L 287.642313 168.267857 
L 282.69057 168.267857 
L 282.69057 53.681798 
L 276.310518 53.681798 
L 276.310518 25.92 
z
" clip-path="url(#p7b916bed42)" style="fill: #ff0000"/>
   </g>
   <g id="patch_47">
    <path d="M 307.202028 191.096877 
L 300.395085 191.096877 
L 299.320305 192.24 
L 294.941569 192.24 
L 301.194837 185.964928 
L 306.3878 185.964928 
L 312.641068 192.24 
L 308.265952 192.24 
L 307.202028 191.096877 
z
M 301.480722 189.932237 
L 306.105535 189.932237 
L 303.796747 187.436194 
L 301.480722 189.932237 
z
" clip-path="url(#p7b916bed42)" style="fill: #008000"/>
   </g>
   <g id="patch_48">
    <path d="M 312.641068 185.35553 
Q 311.160536 185.657595 309.559599 185.810383 
Q 307.958661 185.964928 306.215022 185.964928 
Q 301.01532 185.964928 297.978445 184.819892 
Q 294.941569 183.674857 294.941569 181.716706 
Q 294.941569 179.751531 297.978445 178.608252 
Q 301.01532 177.463217 306.215022 177.463217 
Q 307.958661 177.463217 309.559599 177.617761 
Q 311.160536 177.77055 312.641068 178.072614 
L 312.641068 179.767337 
Q 311.147158 179.366926 309.697841 179.180769 
Q 308.248525 178.994613 306.647587 178.994613 
Q 303.775711 178.994613 302.130179 179.71992 
Q 300.489107 180.443469 300.489107 181.716706 
Q 300.489107 182.984675 302.130179 183.709981 
Q 303.775711 184.433531 306.647587 184.433531 
Q 308.248525 184.433531 309.697841 184.247375 
Q 311.147158 184.059463 312.641068 183.659051 
L 312.641068 185.35553 
z
" clip-path="url(#p7b916bed42)" style="fill: #0000ff"/>
   </g>
   <g id="patch_49">
    <path d="M 312.641068 176.54749 
Q 310.856045 177.005353 308.936153 177.23533 
Q 307.016261 177.463217 304.969434 177.463217 
Q 300.34424 177.463217 297.642905 176.100079 
Q 294.941569 174.736942 294.941569 172.40581 
Q 294.941569 170.0475 297.690505 168.694816 
Q 300.443408 167.342132 305.231238 167.342132 
Q 307.075762 167.342132 308.765584 167.526114 
Q 310.459373 167.708005 311.958793 168.067605 
L 311.958793 170.085132 
Q 310.411772 169.623087 308.880619 169.395201 
Q 307.349466 169.165224 305.810379 169.165224 
Q 302.962275 169.165224 301.419221 170.005685 
Q 299.876167 170.844057 299.876167 172.40581 
Q 299.876167 173.952929 301.363687 174.797573 
Q 302.851207 175.640125 305.588242 175.640125 
Q 306.333986 175.640125 306.972627 175.592039 
Q 307.611269 175.541862 308.119009 175.437327 
L 308.119009 173.543152 
L 305.203471 173.543152 
L 305.203471 171.855956 
L 312.641068 171.855956 
L 312.641068 176.54749 
z
" clip-path="url(#p7b916bed42)" style="fill: #ffa600"/>
   </g>
   <g id="patch_50">
    <path d="M 294.941569 33.541395 
L 312.641068 33.541395 
L 312.641068 59.636267 
L 306.273365 59.636267 
L 306.273365 167.342132 
L 301.321621 167.342132 
L 301.321621 59.636267 
L 294.941569 59.636267 
L 294.941569 33.541395 
z
" clip-path="url(#p7b916bed42)" style="fill: #ff0000"/>
   </g>
   <g id="patch_51">
    <path d="M 331.27212 191.852662 
Q 329.791588 192.044657 328.19065 192.14177 
Q 326.589713 192.24 324.846074 192.24 
Q 319.646372 192.24 316.609497 191.512207 
Q 313.572621 190.784414 313.572621 189.539798 
Q 313.572621 188.290717 316.609497 187.56404 
Q 319.646372 186.836247 324.846074 186.836247 
Q 326.589713 186.836247 328.19065 186.934477 
Q 329.791588 187.03159 331.27212 187.223585 
L 331.27212 188.300763 
Q 329.778209 188.046259 328.328893 187.927937 
Q 326.879576 187.809615 325.278639 187.809615 
Q 322.406763 187.809615 320.761231 188.270625 
Q 319.120159 188.730519 319.120159 189.539798 
Q 319.120159 190.345728 320.761231 190.806739 
Q 322.406763 191.266632 325.278639 191.266632 
Q 326.879576 191.266632 328.328893 191.14831 
Q 329.778209 191.028872 331.27212 190.774367 
L 331.27212 191.852662 
z
" clip-path="url(#p7b916bed42)" style="fill: #0000ff"/>
   </g>
   <g id="patch_52">
    <path d="M 313.572621 181.345337 
L 331.27212 181.345337 
L 331.27212 182.416217 
L 324.904417 182.416217 
L 324.904417 186.836247 
L 319.952673 186.836247 
L 319.952673 182.416217 
L 313.572621 182.416217 
L 313.572621 181.345337 
z
" clip-path="url(#p7b916bed42)" style="fill: #ff0000"/>
   </g>
   <g id="patch_53">
    <path d="M 331.27212 179.878588 
Q 329.487097 180.611963 327.567205 180.980324 
Q 325.647313 181.345337 323.600486 181.345337 
Q 318.975292 181.345337 316.273957 179.161957 
Q 313.572621 176.978578 313.572621 173.244731 
Q 313.572621 169.46735 316.321557 167.300714 
Q 319.07446 165.134078 323.86229 165.134078 
Q 325.706814 165.134078 327.396636 165.428768 
Q 329.090425 165.720108 330.589845 166.296092 
L 330.589845 169.527627 
Q 329.042824 168.787556 327.511671 168.422543 
Q 325.980517 168.054181 324.44143 168.054181 
Q 321.593326 168.054181 320.050273 169.400375 
Q 318.507219 170.743221 318.507219 173.244731 
Q 318.507219 175.7228 319.994739 177.075691 
Q 321.482258 178.425234 324.219294 178.425234 
Q 324.965037 178.425234 325.603679 178.348213 
Q 326.242321 178.267843 326.750061 178.100406 
L 326.750061 175.066446 
L 323.834523 175.066446 
L 323.834523 172.364012 
L 331.27212 172.364012 
L 331.27212 179.878588 
z
" clip-path="url(#p7b916bed42)" style="fill: #ffa600"/>
   </g>
   <g id="patch_54">
    <path d="M 325.83308 157.624092 
L 319.026137 157.624092 
L 317.951356 165.134078 
L 313.572621 165.134078 
L 319.825889 123.908673 
L 325.018852 123.908673 
L 331.27212 165.134078 
L 326.897004 165.134078 
L 325.83308 157.624092 
z
M 320.111774 149.972742 
L 324.736586 149.972742 
L 322.427799 133.574467 
L 320.111774 149.972742 
z
" clip-path="url(#p7b916bed42)" style="fill: #008000"/>
   </g>
   <g id="patch_55">
    <path d="M 349.903172 192.007207 
Q 348.422639 192.122597 346.821702 192.180963 
Q 345.220765 192.24 343.477126 192.24 
Q 338.277424 192.24 335.240548 191.802591 
Q 332.203673 191.365183 332.203673 190.617161 
Q 332.203673 189.866455 335.240548 189.429717 
Q 338.277424 188.992308 343.477126 188.992308 
Q 345.220765 188.992308 346.821702 189.051345 
Q 348.422639 189.109711 349.903172 189.225101 
L 349.903172 189.872493 
Q 348.409261 189.719534 346.959945 189.648421 
Q 345.510628 189.577309 343.909691 189.577309 
Q 341.037814 189.577309 339.392283 189.854379 
Q 337.75121 190.130778 337.75121 190.617161 
Q 337.75121 191.10153 339.392283 191.3786 
Q 341.037814 191.655 343.909691 191.655 
Q 345.510628 191.655 346.959945 191.583887 
Q 348.409261 191.512104 349.903172 191.359145 
L 349.903172 192.007207 
z
" clip-path="url(#p7b916bed42)" style="fill: #0000ff"/>
   </g>
   <g id="patch_56">
    <path d="M 332.203673 182.674072 
L 349.903172 182.674072 
L 349.903172 183.906304 
L 343.535468 183.906304 
L 343.535468 188.992308 
L 338.583725 188.992308 
L 338.583725 183.906304 
L 332.203673 183.906304 
L 332.203673 182.674072 
z
" clip-path="url(#p7b916bed42)" style="fill: #ff0000"/>
   </g>
   <g id="patch_57">
    <path d="M 349.903172 181.493362 
Q 348.118149 182.083717 346.198257 182.380243 
Q 344.278365 182.674072 342.231538 182.674072 
Q 337.606344 182.674072 334.905008 180.916485 
Q 332.203673 179.158898 332.203673 176.153208 
Q 332.203673 173.112475 334.952609 171.368366 
Q 337.705512 169.624257 342.493341 169.624257 
Q 344.337866 169.624257 346.027688 169.861478 
Q 347.721477 170.096002 349.220896 170.55966 
L 349.220896 173.160997 
Q 347.673876 172.565251 346.142723 172.271421 
Q 344.611569 171.974895 343.072482 171.974895 
Q 340.224378 171.974895 338.681325 173.058561 
Q 337.138271 174.139531 337.138271 176.153208 
Q 337.138271 178.148016 338.62579 179.237073 
Q 340.11331 180.323434 342.850346 180.323434 
Q 343.596089 180.323434 344.234731 180.261433 
Q 344.873373 180.196737 345.381113 180.061953 
L 345.381113 177.619661 
L 342.465574 177.619661 
L 342.465574 175.444243 
L 349.903172 175.444243 
L 349.903172 181.493362 
z
" clip-path="url(#p7b916bed42)" style="fill: #ffa600"/>
   </g>
   <g id="patch_58">
    <path d="M 344.464131 165.310749 
L 337.657188 165.310749 
L 336.582408 169.624257 
L 332.203673 169.624257 
L 338.456941 145.945634 
L 343.649904 145.945634 
L 349.903172 169.624257 
L 345.528056 169.624257 
L 344.464131 165.310749 
z
M 338.742825 160.916045 
L 343.367638 160.916045 
L 341.058851 151.497373 
L 338.742825 160.916045 
z
" clip-path="url(#p7b916bed42)" style="fill: #008000"/>
   </g>
   <g id="patch_59">
    <path d="M 368.534224 191.996692 
Q 366.7492 192.118346 364.829308 192.179451 
Q 362.909416 192.24 360.86259 192.24 
Q 356.237396 192.24 353.53606 191.877815 
Q 350.834725 191.515631 350.834725 190.89625 
Q 350.834725 190.269649 353.583661 189.910241 
Q 356.336563 189.550834 361.124393 189.550834 
Q 362.968917 189.550834 364.658739 189.599718 
Q 366.352528 189.648046 367.851948 189.743592 
L 367.851948 190.279647 
Q 366.304928 190.156882 364.773774 190.096333 
Q 363.242621 190.035228 361.703534 190.035228 
Q 358.85543 190.035228 357.312376 190.258539 
Q 355.769323 190.481293 355.769323 190.89625 
Q 355.769323 191.307319 357.256842 191.53174 
Q 358.744362 191.755606 361.481398 191.755606 
Q 362.227141 191.755606 362.865783 191.742829 
Q 363.504424 191.729497 364.012164 191.701722 
L 364.012164 191.198441 
L 361.096626 191.198441 
L 361.096626 190.750154 
L 368.534224 190.750154 
L 368.534224 191.996692 
z
" clip-path="url(#p7b916bed42)" style="fill: #ffa600"/>
   </g>
   <g id="patch_60">
    <path d="M 368.534224 189.177754 
Q 367.053691 189.362682 365.452754 189.45622 
Q 363.851817 189.550834 362.108177 189.550834 
Q 356.908476 189.550834 353.8716 188.849831 
Q 350.834725 188.148829 350.834725 186.950028 
Q 350.834725 185.746927 353.8716 185.047 
Q 356.908476 184.345997 362.108177 184.345997 
Q 363.851817 184.345997 365.452754 184.440611 
Q 367.053691 184.534149 368.534224 184.719076 
L 368.534224 185.756603 
Q 367.040313 185.511468 365.590996 185.397501 
Q 364.14168 185.283534 362.540743 185.283534 
Q 359.668866 185.283534 358.023334 185.727574 
Q 356.382262 186.170539 356.382262 186.950028 
Q 356.382262 187.726292 358.023334 188.170332 
Q 359.668866 188.613297 362.540743 188.613297 
Q 364.14168 188.613297 365.590996 188.49933 
Q 367.040313 188.384288 368.534224 188.139152 
L 368.534224 189.177754 
z
" clip-path="url(#p7b916bed42)" style="fill: #0000ff"/>
   </g>
   <g id="patch_61">
    <path d="M 363.095183 182.22054 
L 356.28824 182.22054 
L 355.21346 184.345997 
L 350.834725 184.345997 
L 357.087993 172.678487 
L 362.280956 172.678487 
L 368.534224 184.345997 
L 364.159107 184.345997 
L 363.095183 182.22054 
z
M 357.373877 180.055074 
L 361.99869 180.055074 
L 359.689902 175.414075 
L 357.373877 180.055074 
z
" clip-path="url(#p7b916bed42)" style="fill: #008000"/>
   </g>
   <g id="patch_62">
    <path d="M 350.834725 158.235063 
L 368.534224 158.235063 
L 368.534224 161.051933 
L 362.16652 161.051933 
L 362.16652 172.678487 
L 357.214777 172.678487 
L 357.214777 161.051933 
L 350.834725 161.051933 
L 350.834725 158.235063 
z
" clip-path="url(#p7b916bed42)" style="fill: #ff0000"/>
   </g>
   <g id="patch_63">
    <path d="M 387.165275 191.503849 
Q 385.380252 191.871925 383.46036 192.056803 
Q 381.540468 192.24 379.493641 192.24 
Q 374.868447 192.24 372.167112 191.144178 
Q 369.465776 190.048356 369.465776 188.174365 
Q 369.465776 186.278525 372.214712 185.191107 
Q 374.967615 184.103688 379.755445 184.103688 
Q 381.599969 184.103688 383.289791 184.25159 
Q 384.98358 184.397812 386.483 184.686894 
L 386.483 186.308778 
Q 384.93598 185.937341 383.404826 185.754144 
Q 381.873673 185.569266 380.334586 185.569266 
Q 377.486482 185.569266 375.943428 186.244911 
Q 374.400374 186.918875 374.400374 188.174365 
Q 374.400374 189.41809 375.887894 190.097096 
Q 377.375414 190.774422 380.112449 190.774422 
Q 380.858193 190.774422 381.496834 190.735765 
Q 382.135476 190.695428 382.643216 190.611393 
L 382.643216 189.088671 
L 379.727678 189.088671 
L 379.727678 187.732339 
L 387.165275 187.732339 
L 387.165275 191.503849 
z
" clip-path="url(#p7b916bed42)" style="fill: #ffa600"/>
   </g>
   <g id="patch_64">
    <path d="M 387.165275 183.429984 
Q 385.684743 183.763924 384.083806 183.932835 
Q 382.482868 184.103688 380.739229 184.103688 
Q 375.539527 184.103688 372.502652 182.837824 
Q 369.465776 181.571961 369.465776 179.407179 
Q 369.465776 177.23463 372.502652 175.970708 
Q 375.539527 174.704845 380.739229 174.704845 
Q 382.482868 174.704845 384.083806 174.875697 
Q 385.684743 175.044609 387.165275 175.378548 
L 387.165275 177.252104 
Q 385.671365 176.80944 384.222048 176.60364 
Q 382.772732 176.39784 381.171794 176.39784 
Q 378.299918 176.39784 376.654386 177.199683 
Q 375.013314 177.999585 375.013314 179.407179 
Q 375.013314 180.808948 376.654386 181.610791 
Q 378.299918 182.410692 381.171794 182.410692 
Q 382.772732 182.410692 384.222048 182.204892 
Q 385.671365 181.997151 387.165275 181.554487 
L 387.165275 183.429984 
z
" clip-path="url(#p7b916bed42)" style="fill: #0000ff"/>
   </g>
   <g id="patch_65">
    <path d="M 381.726235 172.813784 
L 374.919292 172.813784 
L 373.844512 174.704845 
L 369.465776 174.704845 
L 375.719044 164.324033 
L 380.912007 164.324033 
L 387.165275 174.704845 
L 382.790159 174.704845 
L 381.726235 172.813784 
z
M 376.004929 170.887126 
L 380.629742 170.887126 
L 378.320954 166.757939 
L 376.004929 170.887126 
z
" clip-path="url(#p7b916bed42)" style="fill: #008000"/>
   </g>
   <g id="patch_66">
    <path d="M 369.465776 82.259505 
L 387.165275 82.259505 
L 387.165275 98.264375 
L 380.797572 98.264375 
L 380.797572 164.324033 
L 375.845828 164.324033 
L 375.845828 98.264375 
L 369.465776 98.264375 
L 369.465776 82.259505 
z
" clip-path="url(#p7b916bed42)" style="fill: #ff0000"/>
   </g>
   <g id="patch_67">
    <path d="M 388.096828 189.549909 
L 405.796327 189.549909 
L 405.796327 190.074551 
L 399.428624 190.074551 
L 399.428624 192.24 
L 394.47688 192.24 
L 394.47688 190.074551 
L 388.096828 190.074551 
L 388.096828 189.549909 
z
" clip-path="url(#p7b916bed42)" style="fill: #ff0000"/>
   </g>
   <g id="patch_68">
    <path d="M 405.796327 189.230544 
Q 404.315795 189.388845 402.714857 189.468917 
Q 401.11392 189.549909 399.370281 189.549909 
Q 394.170579 189.549909 391.133704 188.949834 
Q 388.096828 188.349759 388.096828 187.323557 
Q 388.096828 186.293674 391.133704 185.694519 
Q 394.170579 185.094445 399.370281 185.094445 
Q 401.11392 185.094445 402.714857 185.175436 
Q 404.315795 185.255508 405.796327 185.41381 
L 405.796327 186.301957 
Q 404.302416 186.092115 402.8531 185.994557 
Q 401.403783 185.896999 399.802846 185.896999 
Q 396.93097 185.896999 395.285438 186.277107 
Q 393.644366 186.656296 393.644366 187.323557 
Q 393.644366 187.988057 395.285438 188.368166 
Q 396.93097 188.747354 399.802846 188.747354 
Q 401.403783 188.747354 402.8531 188.649796 
Q 404.302416 188.551318 405.796327 188.341476 
L 405.796327 189.230544 
z
" clip-path="url(#p7b916bed42)" style="fill: #0000ff"/>
   </g>
   <g id="patch_69">
    <path d="M 405.796327 184.64062 
Q 404.011304 184.867532 402.091412 184.981506 
Q 400.17152 185.094445 398.124693 185.094445 
Q 393.499499 185.094445 390.798164 184.418889 
Q 388.096828 183.743332 388.096828 182.588049 
Q 388.096828 181.419295 390.845764 180.74892 
Q 393.598667 180.078545 398.386497 180.078545 
Q 400.231021 180.078545 401.920843 180.169724 
Q 403.614632 180.259867 405.114052 180.438081 
L 405.114052 181.437946 
Q 403.567031 181.208961 402.035878 181.096023 
Q 400.504724 180.982049 398.965637 180.982049 
Q 396.117533 180.982049 394.57448 181.398573 
Q 393.031426 181.814061 393.031426 182.588049 
Q 393.031426 183.354784 394.518946 183.77338 
Q 396.006465 184.19094 398.743501 184.19094 
Q 399.489244 184.19094 400.127886 184.167109 
Q 400.766528 184.142242 401.274268 184.090436 
L 401.274268 183.151703 
L 398.35873 183.151703 
L 398.35873 182.315547 
L 405.796327 182.315547 
L 405.796327 184.64062 
z
" clip-path="url(#p7b916bed42)" style="fill: #ffa600"/>
   </g>
   <g id="patch_70">
    <path d="M 400.357287 178.291901 
L 393.550344 178.291901 
L 392.475563 180.078545 
L 388.096828 180.078545 
L 394.350096 170.27092 
L 399.543059 170.27092 
L 405.796327 180.078545 
L 401.421211 180.078545 
L 400.357287 178.291901 
z
M 394.635981 176.471626 
L 399.260793 176.471626 
L 396.952006 172.570436 
L 394.635981 176.471626 
z
" clip-path="url(#p7b916bed42)" style="fill: #008000"/>
   </g>
   <g id="patch_71">
    <path d="M 424.427379 191.932481 
Q 422.946846 192.084911 421.345909 192.162012 
Q 419.744972 192.24 418.001333 192.24 
Q 412.801631 192.24 409.764755 191.662183 
Q 406.72788 191.084367 406.72788 190.096229 
Q 406.72788 189.104547 409.764755 188.527616 
Q 412.801631 187.949799 418.001333 187.949799 
Q 419.744972 187.949799 421.345909 188.027787 
Q 422.946846 188.104888 424.427379 188.257318 
L 424.427379 189.112523 
Q 422.933468 188.910464 421.484152 188.816524 
Q 420.034835 188.722585 418.433898 188.722585 
Q 415.562021 188.722585 413.91649 189.088595 
Q 412.275417 189.453718 412.275417 190.096229 
Q 412.275417 190.736081 413.91649 191.102091 
Q 415.562021 191.467214 418.433898 191.467214 
Q 420.034835 191.467214 421.484152 191.373275 
Q 422.933468 191.278449 424.427379 191.076391 
L 424.427379 191.932481 
z
" clip-path="url(#p7b916bed42)" style="fill: #0000ff"/>
   </g>
   <g id="patch_72">
    <path d="M 424.427379 187.20823 
Q 422.642356 187.579015 420.722464 187.765253 
Q 418.802572 187.949799 416.755745 187.949799 
Q 412.130551 187.949799 409.429215 186.845911 
Q 406.72788 185.742022 406.72788 183.854237 
Q 406.72788 181.944442 409.476816 180.849018 
Q 412.229719 179.753595 417.017548 179.753595 
Q 418.862073 179.753595 420.551895 179.902586 
Q 422.245684 180.049884 423.745103 180.341094 
L 423.745103 181.974917 
Q 422.198083 181.600746 420.66693 181.4162 
Q 419.135776 181.229961 417.596689 181.229961 
Q 414.748585 181.229961 413.205532 181.91058 
Q 411.662478 182.589505 411.662478 183.854237 
Q 411.662478 185.107117 413.149997 185.791121 
Q 414.637517 186.473433 417.374553 186.473433 
Q 418.120296 186.473433 418.758938 186.434492 
Q 419.39758 186.393858 419.90532 186.309204 
L 419.90532 184.775273 
L 416.989781 184.775273 
L 416.989781 183.408956 
L 424.427379 183.408956 
L 424.427379 187.20823 
z
" clip-path="url(#p7b916bed42)" style="fill: #ffa600"/>
   </g>
   <g id="patch_73">
    <path d="M 406.72788 170.532865 
L 424.427379 170.532865 
L 424.427379 172.331164 
L 418.059675 172.331164 
L 418.059675 179.753595 
L 413.107932 179.753595 
L 413.107932 172.331164 
L 406.72788 172.331164 
L 406.72788 170.532865 
z
" clip-path="url(#p7b916bed42)" style="fill: #ff0000"/>
   </g>
   <g id="patch_74">
    <path d="M 418.988338 165.342033 
L 412.181395 165.342033 
L 411.106615 170.532865 
L 406.72788 170.532865 
L 412.981148 142.038248 
L 418.174111 142.038248 
L 424.427379 170.532865 
L 420.052263 170.532865 
L 418.988338 165.342033 
z
M 413.267032 160.05349 
L 417.891845 160.05349 
L 415.583058 148.719155 
L 413.267032 160.05349 
z
" clip-path="url(#p7b916bed42)" style="fill: #008000"/>
   </g>
   <g id="patch_75">
    <path d="M 443.058431 191.875432 
Q 441.577898 192.05614 439.976961 192.147545 
Q 438.376024 192.24 436.632384 192.24 
Q 431.432683 192.24 428.395807 191.55499 
Q 425.358932 190.86998 425.358932 189.698529 
Q 425.358932 188.522876 428.395807 187.838917 
Q 431.432683 187.153907 436.632384 187.153907 
Q 438.376024 187.153907 439.976961 187.246362 
Q 441.577898 187.337767 443.058431 187.518475 
L 443.058431 188.532332 
Q 441.56452 188.292788 440.115203 188.181422 
Q 438.665887 188.070055 437.06495 188.070055 
Q 434.193073 188.070055 432.547541 188.503965 
Q 430.906469 188.936824 430.906469 189.698529 
Q 430.906469 190.457083 432.547541 190.890993 
Q 434.193073 191.323852 437.06495 191.323852 
Q 438.665887 191.323852 440.115203 191.212485 
Q 441.56452 191.100068 443.058431 190.860525 
L 443.058431 191.875432 
z
" clip-path="url(#p7b916bed42)" style="fill: #0000ff"/>
   </g>
   <g id="patch_76">
    <path d="M 443.058431 186.642601 
Q 441.273407 186.898254 439.353515 187.026664 
Q 437.433623 187.153907 435.386797 187.153907 
Q 430.761603 187.153907 428.060267 186.392785 
Q 425.358932 185.631663 425.358932 184.330051 
Q 425.358932 183.013263 428.107868 182.257977 
Q 430.86077 181.502692 435.6486 181.502692 
Q 437.493124 181.502692 439.182946 181.60542 
Q 440.876735 181.706981 442.376155 181.907768 
L 442.376155 183.034275 
Q 440.829135 182.776288 439.297981 182.649045 
Q 437.766828 182.520635 436.227741 182.520635 
Q 433.379637 182.520635 431.836583 182.989915 
Q 430.29353 183.458029 430.29353 184.330051 
Q 430.29353 185.193901 431.781049 185.665516 
Q 433.268569 186.135964 436.005605 186.135964 
Q 436.751348 186.135964 437.38999 186.109115 
Q 438.028631 186.081098 438.536371 186.02273 
L 438.536371 184.965097 
L 435.620833 184.965097 
L 435.620833 184.023034 
L 443.058431 184.023034 
L 443.058431 186.642601 
z
" clip-path="url(#p7b916bed42)" style="fill: #ffa600"/>
   </g>
   <g id="patch_77">
    <path d="M 437.61939 179.12203 
L 430.812447 179.12203 
L 429.737667 181.502692 
L 425.358932 181.502692 
L 431.6122 168.434258 
L 436.805163 168.434258 
L 443.058431 181.502692 
L 438.683314 181.502692 
L 437.61939 179.12203 
z
M 431.898084 176.696556 
L 436.522897 176.696556 
L 434.214109 171.49831 
L 431.898084 176.696556 
z
" clip-path="url(#p7b916bed42)" style="fill: #008000"/>
   </g>
   <g id="patch_78">
    <path d="M 425.358932 136.858097 
L 443.058431 136.858097 
L 443.058431 143.016328 
L 436.690727 143.016328 
L 436.690727 168.434258 
L 431.738984 168.434258 
L 431.738984 143.016328 
L 425.358932 143.016328 
L 425.358932 136.858097 
z
" clip-path="url(#p7b916bed42)" style="fill: #ff0000"/>
   </g>
   <g id="patch_79">
    <path d="M 461.689482 191.611993 
Q 460.20895 191.923282 458.608013 192.080736 
Q 457.007075 192.24 455.263436 192.24 
Q 450.063734 192.24 447.026859 191.059998 
Q 443.989983 189.879996 443.989983 187.862048 
Q 443.989983 185.836861 447.026859 184.658669 
Q 450.063734 183.478667 455.263436 183.478667 
Q 457.007075 183.478667 458.608013 183.637931 
Q 460.20895 183.795385 461.689482 184.106674 
L 461.689482 185.853149 
Q 460.195572 185.440511 458.746255 185.24867 
Q 457.296939 185.056829 455.696001 185.056829 
Q 452.824125 185.056829 451.178593 185.804284 
Q 449.537521 186.54993 449.537521 187.862048 
Q 449.537521 189.168737 451.178593 189.916193 
Q 452.824125 190.661838 455.696001 190.661838 
Q 457.296939 190.661838 458.746255 190.469997 
Q 460.195572 190.276347 461.689482 189.863708 
L 461.689482 191.611993 
z
" clip-path="url(#p7b916bed42)" style="fill: #0000ff"/>
   </g>
   <g id="patch_80">
    <path d="M 461.689482 182.675803 
Q 459.904459 183.077235 457.984567 183.278868 
Q 456.064675 183.478667 454.017848 183.478667 
Q 449.392654 183.478667 446.691319 182.283537 
Q 443.989983 181.088407 443.989983 179.044588 
Q 443.989983 176.976939 446.738919 175.790974 
Q 449.491822 174.605009 454.279652 174.605009 
Q 456.124176 174.605009 457.813998 174.766315 
Q 459.507787 174.925788 461.007207 175.241068 
L 461.007207 177.009933 
Q 459.460187 176.604836 457.929033 176.405036 
Q 456.39788 176.203404 454.858793 176.203404 
Q 452.010689 176.203404 450.467635 176.940279 
Q 448.924581 177.67532 448.924581 179.044588 
Q 448.924581 180.401024 450.412101 181.141564 
Q 451.899621 181.880272 454.636656 181.880272 
Q 455.3824 181.880272 456.021041 181.838113 
Q 456.659683 181.79412 457.167423 181.702469 
L 457.167423 180.041751 
L 454.251885 180.041751 
L 454.251885 178.562503 
L 461.689482 178.562503 
L 461.689482 182.675803 
z
" clip-path="url(#p7b916bed42)" style="fill: #ffa600"/>
   </g>
   <g id="patch_81">
    <path d="M 456.250442 172.906656 
L 449.443499 172.906656 
L 448.368719 174.605009 
L 443.989983 174.605009 
L 450.243251 165.282052 
L 455.436214 165.282052 
L 461.689482 174.605009 
L 457.314366 174.605009 
L 456.250442 172.906656 
z
M 450.529136 171.176335 
L 455.153949 171.176335 
L 452.845161 167.467932 
L 450.529136 171.176335 
z
" clip-path="url(#p7b916bed42)" style="fill: #008000"/>
   </g>
   <g id="patch_82">
    <path d="M 443.989983 104.17737 
L 461.689482 104.17737 
L 461.689482 116.094486 
L 455.321779 116.094486 
L 455.321779 165.282052 
L 450.370035 165.282052 
L 450.370035 116.094486 
L 443.989983 116.094486 
L 443.989983 104.17737 
z
" clip-path="url(#p7b916bed42)" style="fill: #ff0000"/>
   </g>
   <g id="patch_83">
    <path d="M 480.320534 191.57585 
Q 478.535511 191.907925 476.615619 192.074721 
Q 474.695727 192.24 472.6489 192.24 
Q 468.023706 192.24 465.322371 191.251357 
Q 462.621035 190.262714 462.621035 188.572013 
Q 462.621035 186.8616 465.369971 185.880538 
Q 468.122874 184.899477 472.910704 184.899477 
Q 474.755228 184.899477 476.44505 185.032914 
Q 478.138839 185.164834 479.638259 185.425641 
L 479.638259 186.888894 
Q 478.091238 186.553786 476.560085 186.388507 
Q 475.028931 186.221711 473.489844 186.221711 
Q 470.64174 186.221711 469.098687 186.831273 
Q 467.555633 187.439319 467.555633 188.572013 
Q 467.555633 189.694093 469.043153 190.306687 
Q 470.530672 190.917766 473.267708 190.917766 
Q 474.013451 190.917766 474.652093 190.88289 
Q 475.290735 190.846499 475.798475 190.770682 
L 475.798475 189.396893 
L 472.882937 189.396893 
L 472.882937 188.17322 
L 480.320534 188.17322 
L 480.320534 191.57585 
z
" clip-path="url(#p7b916bed42)" style="fill: #ffa600"/>
   </g>
   <g id="patch_84">
    <path d="M 480.320534 184.333709 
Q 478.840002 184.614147 477.239064 184.755997 
Q 475.638127 184.899477 473.894488 184.899477 
Q 468.694786 184.899477 465.657911 183.83642 
Q 462.621035 182.773363 462.621035 180.955405 
Q 462.621035 179.130925 465.657911 178.069499 
Q 468.694786 177.006442 473.894488 177.006442 
Q 475.638127 177.006442 477.239064 177.149922 
Q 478.840002 177.291771 480.320534 177.57221 
L 480.320534 179.145599 
Q 478.826623 178.773855 477.377307 178.601027 
Q 475.92799 178.428199 474.327053 178.428199 
Q 471.455177 178.428199 469.809645 179.101577 
Q 468.168573 179.773325 468.168573 180.955405 
Q 468.168573 182.132594 469.809645 182.805972 
Q 471.455177 183.47772 474.327053 183.47772 
Q 475.92799 183.47772 477.377307 183.304892 
Q 478.826623 183.130433 480.320534 182.758689 
L 480.320534 184.333709 
z
" clip-path="url(#p7b916bed42)" style="fill: #0000ff"/>
   </g>
   <g id="patch_85">
    <path d="M 474.881494 175.496683 
L 468.074551 175.496683 
L 466.99977 177.006442 
L 462.621035 177.006442 
L 468.874303 168.718754 
L 474.067266 168.718754 
L 480.320534 177.006442 
L 475.945418 177.006442 
L 474.881494 175.496683 
z
M 469.160188 173.958505 
L 473.785 173.958505 
L 471.476213 170.661903 
L 469.160188 173.958505 
z
" clip-path="url(#p7b916bed42)" style="fill: #008000"/>
   </g>
   <g id="patch_86">
    <path d="M 462.621035 130.358602 
L 480.320534 130.358602 
L 480.320534 137.839901 
L 473.952831 137.839901 
L 473.952831 168.718754 
L 469.001087 168.718754 
L 469.001087 137.839901 
L 462.621035 137.839901 
L 462.621035 130.358602 
z
" clip-path="url(#p7b916bed42)" style="fill: #ff0000"/>
   </g>
   <g id="patch_87">
    <path d="M 498.951586 191.979122 
Q 497.471053 192.108433 495.870116 192.173841 
Q 494.269179 192.24 492.52554 192.24 
Q 487.325838 192.24 484.288962 191.749819 
Q 481.252087 191.259639 481.252087 190.421369 
Q 481.252087 189.580093 484.288962 189.090664 
Q 487.325838 188.600483 492.52554 188.600483 
Q 494.269179 188.600483 495.870116 188.666643 
Q 497.471053 188.73205 498.951586 188.861362 
L 498.951586 189.586859 
Q 497.457675 189.415446 496.008359 189.335754 
Q 494.559042 189.256062 492.958105 189.256062 
Q 490.086228 189.256062 488.440697 189.56656 
Q 486.799624 189.876306 486.799624 190.421369 
Q 486.799624 190.964177 488.440697 191.274675 
Q 490.086228 191.584421 492.958105 191.584421 
Q 494.559042 191.584421 496.008359 191.504729 
Q 497.457675 191.424285 498.951586 191.252872 
L 498.951586 191.979122 
z
" clip-path="url(#p7b916bed42)" style="fill: #0000ff"/>
   </g>
   <g id="patch_88">
    <path d="M 498.951586 188.155894 
Q 497.166563 188.378189 495.246671 188.489844 
Q 493.326779 188.600483 491.279952 188.600483 
Q 486.654758 188.600483 483.953422 187.938674 
Q 481.252087 187.276865 481.252087 186.145091 
Q 481.252087 185.000121 484.001023 184.343387 
Q 486.753926 183.686653 491.541755 183.686653 
Q 493.38628 183.686653 495.076102 183.775977 
Q 496.769891 183.864286 498.26931 184.038874 
L 498.26931 185.018392 
Q 496.72229 184.794067 495.191137 184.683427 
Q 493.659983 184.571772 492.120896 184.571772 
Q 489.272792 184.571772 487.729739 184.97982 
Q 486.186685 185.386853 486.186685 186.145091 
Q 486.186685 186.896224 487.674205 187.306302 
Q 489.161724 187.715365 491.89876 187.715365 
Q 492.644503 187.715365 493.283145 187.692019 
Q 493.921787 187.667658 494.429527 187.616905 
L 494.429527 186.697275 
L 491.513988 186.697275 
L 491.513988 185.878134 
L 498.951586 185.878134 
L 498.951586 188.155894 
z
" clip-path="url(#p7b916bed42)" style="fill: #ffa600"/>
   </g>
   <g id="patch_89">
    <path d="M 481.252087 176.764814 
L 498.951586 176.764814 
L 498.951586 178.114765 
L 492.583882 178.114765 
L 492.583882 183.686653 
L 487.632139 183.686653 
L 487.632139 178.114765 
L 481.252087 178.114765 
L 481.252087 176.764814 
z
" clip-path="url(#p7b916bed42)" style="fill: #ff0000"/>
   </g>
   <g id="patch_90">
    <path d="M 493.512545 174.068821 
L 486.705603 174.068821 
L 485.630822 176.764814 
L 481.252087 176.764814 
L 487.505355 161.9654 
L 492.698318 161.9654 
L 498.951586 176.764814 
L 494.57647 176.764814 
L 493.512545 174.068821 
z
M 487.791239 171.322081 
L 492.416052 171.322081 
L 490.107265 165.435301 
L 487.791239 171.322081 
z
" clip-path="url(#p7b916bed42)" style="fill: #008000"/>
   </g>
   <g id="patch_91">
    <path d="M 517.582638 191.948192 
Q 516.102105 192.092835 514.501168 192.165997 
Q 512.900231 192.24 511.156591 192.24 
Q 505.95689 192.24 502.920014 191.691704 
Q 499.883139 191.143409 499.883139 190.205756 
Q 499.883139 189.264739 502.920014 188.717284 
Q 505.95689 188.168989 511.156591 188.168989 
Q 512.900231 188.168989 514.501168 188.242992 
Q 516.102105 188.316154 517.582638 188.460796 
L 517.582638 189.272308 
Q 516.088727 189.080572 514.63941 188.991432 
Q 513.190094 188.902292 511.589157 188.902292 
Q 508.71728 188.902292 507.071748 189.249602 
Q 505.430676 189.596071 505.430676 190.205756 
Q 505.430676 190.812918 507.071748 191.160228 
Q 508.71728 191.506697 511.589157 191.506697 
Q 513.190094 191.506697 514.63941 191.417556 
Q 516.088727 191.327575 517.582638 191.13584 
L 517.582638 191.948192 
z
" clip-path="url(#p7b916bed42)" style="fill: #0000ff"/>
   </g>
   <g id="patch_92">
    <path d="M 499.883139 180.192754 
L 517.582638 180.192754 
L 517.582638 181.748342 
L 511.214934 181.748342 
L 511.214934 188.168989 
L 506.263191 188.168989 
L 506.263191 181.748342 
L 499.883139 181.748342 
L 499.883139 180.192754 
z
" clip-path="url(#p7b916bed42)" style="fill: #ff0000"/>
   </g>
   <g id="patch_93">
    <path d="M 517.582638 179.10442 
Q 515.797614 179.648587 513.877722 179.921913 
Q 511.957831 180.192754 509.911004 180.192754 
Q 505.28581 180.192754 502.584474 178.572676 
Q 499.883139 176.952599 499.883139 174.182068 
Q 499.883139 171.379235 502.632075 169.771582 
Q 505.384978 168.163928 510.172807 168.163928 
Q 512.017331 168.163928 513.707153 168.382589 
Q 515.400942 168.598765 516.900362 169.026147 
L 516.900362 171.423961 
Q 515.353342 170.874824 513.822188 170.603983 
Q 512.291035 170.330657 510.751948 170.330657 
Q 507.903844 170.330657 506.36079 171.329539 
Q 504.817737 172.325937 504.817737 174.182068 
Q 504.817737 176.020806 506.305256 177.024658 
Q 507.792776 178.026025 510.529812 178.026025 
Q 511.275555 178.026025 511.914197 177.968875 
Q 512.552838 177.90924 513.060578 177.785001 
L 513.060578 175.533789 
L 510.14504 175.533789 
L 510.14504 173.528571 
L 517.582638 173.528571 
L 517.582638 179.10442 
z
" clip-path="url(#p7b916bed42)" style="fill: #ffa600"/>
   </g>
   <g id="patch_94">
    <path d="M 512.143597 162.026337 
L 505.336654 162.026337 
L 504.261874 168.163928 
L 499.883139 168.163928 
L 506.136407 134.472165 
L 511.32937 134.472165 
L 517.582638 168.163928 
L 513.207521 168.163928 
L 512.143597 162.026337 
z
M 506.422291 155.773215 
L 511.047104 155.773215 
L 508.738316 142.371605 
L 506.422291 155.773215 
z
" clip-path="url(#p7b916bed42)" style="fill: #008000"/>
   </g>
   <g id="patch_95">
    <path d="M 536.213689 191.820978 
Q 534.428666 192.030489 532.508774 192.135723 
Q 530.588882 192.24 528.542055 192.24 
Q 523.916861 192.24 521.215526 191.61625 
Q 518.51419 190.992501 518.51419 189.925812 
Q 518.51419 188.846687 521.263126 188.227721 
Q 524.016029 187.608755 528.803859 187.608755 
Q 530.648383 187.608755 532.338205 187.692942 
Q 534.031994 187.776172 535.531414 187.94072 
L 535.531414 188.863907 
Q 533.984394 188.652483 532.45324 188.548206 
Q 530.922087 188.442972 529.383 188.442972 
Q 526.534896 188.442972 524.991842 188.827554 
Q 523.448788 189.211179 523.448788 189.925812 
Q 523.448788 190.633749 524.936308 191.020244 
Q 526.423828 191.405783 529.160864 191.405783 
Q 529.906607 191.405783 530.545248 191.383779 
Q 531.18389 191.360819 531.69163 191.312986 
L 531.69163 190.446242 
L 528.776092 190.446242 
L 528.776092 189.674208 
L 536.213689 189.674208 
L 536.213689 191.820978 
z
" clip-path="url(#p7b916bed42)" style="fill: #ffa600"/>
   </g>
   <g id="patch_96">
    <path d="M 530.774649 186.34442 
L 523.967706 186.34442 
L 522.892926 187.608755 
L 518.51419 187.608755 
L 524.767458 180.668302 
L 529.960421 180.668302 
L 536.213689 187.608755 
L 531.838573 187.608755 
L 530.774649 186.34442 
z
M 525.053343 185.056286 
L 529.678156 185.056286 
L 527.369368 182.295575 
L 525.053343 185.056286 
z
" clip-path="url(#p7b916bed42)" style="fill: #008000"/>
   </g>
   <g id="patch_97">
    <path d="M 536.213689 180.170814 
Q 534.733157 180.417407 533.13222 180.542138 
Q 531.531282 180.668302 529.787643 180.668302 
Q 524.587941 180.668302 521.551066 179.733541 
Q 518.51419 178.798781 518.51419 177.200226 
Q 518.51419 175.595936 521.551066 174.662609 
Q 524.587941 173.727849 529.787643 173.727849 
Q 531.531282 173.727849 533.13222 173.854013 
Q 534.733157 173.978743 536.213689 174.225336 
L 536.213689 175.608839 
Q 534.719779 175.28196 533.270462 175.129989 
Q 531.821146 174.978019 530.220208 174.978019 
Q 527.348332 174.978019 525.7028 175.57013 
Q 524.061728 176.160806 524.061728 177.200226 
Q 524.061728 178.235344 525.7028 178.827454 
Q 527.348332 179.418131 530.220208 179.418131 
Q 531.821146 179.418131 533.270462 179.266161 
Q 534.719779 179.112757 536.213689 178.785878 
L 536.213689 180.170814 
z
" clip-path="url(#p7b916bed42)" style="fill: #0000ff"/>
   </g>
   <g id="patch_98">
    <path d="M 518.51419 152.008464 
L 536.213689 152.008464 
L 536.213689 156.244349 
L 529.845986 156.244349 
L 529.845986 173.727849 
L 524.894242 173.727849 
L 524.894242 156.244349 
L 518.51419 156.244349 
L 518.51419 152.008464 
z
" clip-path="url(#p7b916bed42)" style="fill: #ff0000"/>
   </g>
   <g id="patch_99">
    <path d="M 554.844741 191.865831 
Q 553.059718 192.052915 551.139826 192.146885 
Q 549.219934 192.24 547.173107 192.24 
Q 542.547913 192.24 539.846578 191.683018 
Q 537.145242 191.126035 537.145242 190.173527 
Q 537.145242 189.209914 539.894178 188.657203 
Q 542.647081 188.104491 547.434911 188.104491 
Q 549.279435 188.104491 550.969257 188.179667 
Q 552.663046 188.253988 554.162466 188.400922 
L 554.162466 189.22529 
Q 552.615445 189.036497 551.084292 188.943382 
Q 549.553138 188.849413 548.014052 188.849413 
Q 545.165947 188.849413 543.622894 189.192828 
Q 542.07984 189.535389 542.07984 190.173527 
Q 542.07984 190.805685 543.56736 191.150809 
Q 545.054879 191.495079 547.791915 191.495079 
Q 548.537658 191.495079 549.1763 191.475431 
Q 549.814942 191.454928 550.322682 191.412215 
L 550.322682 190.638249 
L 547.407144 190.638249 
L 547.407144 189.948855 
L 554.844741 189.948855 
L 554.844741 191.865831 
z
" clip-path="url(#p7b916bed42)" style="fill: #ffa600"/>
   </g>
   <g id="patch_100">
    <path d="M 554.844741 187.704271 
Q 553.364209 187.902651 551.763271 188.002995 
Q 550.162334 188.104491 548.418695 188.104491 
Q 543.218993 188.104491 540.182118 187.352491 
Q 537.145242 186.600491 537.145242 185.314479 
Q 537.145242 184.023853 540.182118 183.273007 
Q 543.218993 182.521007 548.418695 182.521007 
Q 550.162334 182.521007 551.763271 182.622503 
Q 553.364209 182.722847 554.844741 182.921227 
L 554.844741 184.034234 
Q 553.35083 183.771264 551.901514 183.649007 
Q 550.452197 183.526749 548.85126 183.526749 
Q 545.979384 183.526749 544.333852 184.003092 
Q 542.69278 184.478283 542.69278 185.314479 
Q 542.69278 186.147215 544.333852 186.623559 
Q 545.979384 187.098749 548.85126 187.098749 
Q 550.452197 187.098749 551.901514 186.976491 
Q 553.35083 186.85308 554.844741 186.590111 
L 554.844741 187.704271 
z
" clip-path="url(#p7b916bed42)" style="fill: #0000ff"/>
   </g>
   <g id="patch_101">
    <path d="M 549.405701 181.240093 
L 542.598758 181.240093 
L 541.523977 182.521007 
L 537.145242 182.521007 
L 543.39851 175.489545 
L 548.591473 175.489545 
L 554.844741 182.521007 
L 550.469625 182.521007 
L 549.405701 181.240093 
z
M 543.684395 179.935068 
L 548.309208 179.935068 
L 546.00042 177.138156 
L 543.684395 179.935068 
z
" clip-path="url(#p7b916bed42)" style="fill: #008000"/>
   </g>
   <g id="patch_102">
    <path d="M 537.145242 157.83959 
L 554.844741 157.83959 
L 554.844741 161.281823 
L 548.477038 161.281823 
L 548.477038 175.489545 
L 543.525294 175.489545 
L 543.525294 161.281823 
L 537.145242 161.281823 
L 537.145242 157.83959 
z
" clip-path="url(#p7b916bed42)" style="fill: #ff0000"/>
   </g>
   <g id="patch_103">
    <path d="M 573.475793 192.006225 
Q 571.69077 192.123112 569.770878 192.181823 
Q 567.850986 192.24 565.804159 192.24 
Q 561.178965 192.24 558.477629 191.892006 
Q 555.776294 191.544011 555.776294 190.948898 
Q 555.776294 190.346847 558.52523 190.001521 
Q 561.278133 189.656195 566.065962 189.656195 
Q 567.910487 189.656195 569.600309 189.703164 
Q 571.294098 189.749599 572.793517 189.841401 
L 572.793517 190.356454 
Q 571.246497 190.238499 569.715344 190.180322 
Q 568.18419 190.121611 566.645103 190.121611 
Q 563.796999 190.121611 562.253946 190.336172 
Q 560.710892 190.550199 560.710892 190.948898 
Q 560.710892 191.343861 562.198412 191.55949 
Q 563.685931 191.774584 566.422967 191.774584 
Q 567.16871 191.774584 567.807352 191.762308 
Q 568.445994 191.749499 568.953734 191.722812 
L 568.953734 191.239249 
L 566.038195 191.239249 
L 566.038195 190.808526 
L 573.475793 190.808526 
L 573.475793 192.006225 
z
" clip-path="url(#p7b916bed42)" style="fill: #ffa600"/>
   </g>
   <g id="patch_104">
    <path d="M 573.475793 189.352538 
Q 571.99526 189.503054 570.394323 189.579187 
Q 568.793386 189.656195 567.049747 189.656195 
Q 561.850045 189.656195 558.813169 189.085635 
Q 555.776294 188.515075 555.776294 187.539348 
Q 555.776294 186.56012 558.813169 185.990435 
Q 561.850045 185.419876 567.049747 185.419876 
Q 568.793386 185.419876 570.394323 185.496884 
Q 571.99526 185.573017 573.475793 185.723532 
L 573.475793 186.567996 
Q 571.981882 186.368475 570.532566 186.275715 
Q 569.083249 186.182956 567.482312 186.182956 
Q 564.610435 186.182956 562.964904 186.544369 
Q 561.323831 186.904906 561.323831 187.539348 
Q 561.323831 188.171164 562.964904 188.532577 
Q 564.610435 188.893115 567.482312 188.893115 
Q 569.083249 188.893115 570.532566 188.800355 
Q 571.981882 188.706721 573.475793 188.5072 
L 573.475793 189.352538 
z
" clip-path="url(#p7b916bed42)" style="fill: #0000ff"/>
   </g>
   <g id="patch_105">
    <path d="M 568.036752 184.413443 
L 561.22981 184.413443 
L 560.155029 185.419876 
L 555.776294 185.419876 
L 562.029562 179.895155 
L 567.222525 179.895155 
L 573.475793 185.419876 
L 569.100677 185.419876 
L 568.036752 184.413443 
z
M 562.315446 183.388067 
L 566.940259 183.388067 
L 564.631472 181.190492 
L 562.315446 183.388067 
z
" clip-path="url(#p7b916bed42)" style="fill: #008000"/>
   </g>
   <g id="patch_106">
    <path d="M 555.776294 170.28116 
L 573.475793 170.28116 
L 573.475793 172.156157 
L 567.108089 172.156157 
L 567.108089 179.895155 
L 562.156346 179.895155 
L 562.156346 172.156157 
L 555.776294 172.156157 
L 555.776294 170.28116 
z
" clip-path="url(#p7b916bed42)" style="fill: #ff0000"/>
   </g>
   <g id="patch_107">
    <path d="M 592.106845 191.80301 
Q 590.321821 192.021505 588.401929 192.131251 
Q 586.482038 192.24 584.435211 192.24 
Q 579.810017 192.24 577.108681 191.589503 
Q 574.407346 190.939006 574.407346 189.826576 
Q 574.407346 188.701176 577.156282 188.055667 
Q 579.909185 187.410158 584.697014 187.410158 
Q 586.541538 187.410158 588.23136 187.497955 
Q 589.925149 187.584755 591.424569 187.756358 
L 591.424569 188.719134 
Q 589.877549 188.498643 588.346395 188.389895 
Q 586.815242 188.280148 585.276155 188.280148 
Q 582.428051 188.280148 580.884997 188.681222 
Q 579.341944 189.081297 579.341944 189.826576 
Q 579.341944 190.56487 580.829463 190.967939 
Q 582.316983 191.37001 585.054019 191.37001 
Q 585.799762 191.37001 586.438404 191.347063 
Q 587.077045 191.323118 587.584785 191.273233 
L 587.584785 190.369322 
L 584.669247 190.369322 
L 584.669247 189.564182 
L 592.106845 189.564182 
L 592.106845 191.80301 
z
" clip-path="url(#p7b916bed42)" style="fill: #ffa600"/>
   </g>
   <g id="patch_108">
    <path d="M 592.106845 187.041502 
Q 590.626312 187.224236 589.025375 187.316666 
Q 587.424438 187.410158 585.680798 187.410158 
Q 580.481097 187.410158 577.444221 186.717466 
Q 574.407346 186.024775 574.407346 184.840187 
Q 574.407346 183.65135 577.444221 182.959721 
Q 580.481097 182.267029 585.680798 182.267029 
Q 587.424438 182.267029 589.025375 182.360521 
Q 590.626312 182.452951 592.106845 182.635686 
L 592.106845 183.660912 
Q 590.612934 183.418682 589.163617 183.306067 
Q 587.714301 183.193451 586.113364 183.193451 
Q 583.241487 183.193451 581.595955 183.632227 
Q 579.954883 184.06994 579.954883 184.840187 
Q 579.954883 185.607248 581.595955 186.046023 
Q 583.241487 186.483736 586.113364 186.483736 
Q 587.714301 186.483736 589.163617 186.371121 
Q 590.612934 186.257443 592.106845 186.015213 
L 592.106845 187.041502 
z
" clip-path="url(#p7b916bed42)" style="fill: #0000ff"/>
   </g>
   <g id="patch_109">
    <path d="M 574.407346 173.051169 
L 592.106845 173.051169 
L 592.106845 174.848518 
L 585.739141 174.848518 
L 585.739141 182.267029 
L 580.787398 182.267029 
L 580.787398 174.848518 
L 574.407346 174.848518 
L 574.407346 173.051169 
z
" clip-path="url(#p7b916bed42)" style="fill: #ff0000"/>
   </g>
   <g id="patch_110">
    <path d="M 586.667804 169.08948 
L 579.860861 169.08948 
L 578.786081 173.051169 
L 574.407346 173.051169 
L 580.660614 151.303826 
L 585.853577 151.303826 
L 592.106845 173.051169 
L 587.731728 173.051169 
L 586.667804 169.08948 
z
M 580.946498 165.053218 
L 585.571311 165.053218 
L 583.262523 156.402753 
L 580.946498 165.053218 
z
" clip-path="url(#p7b916bed42)" style="fill: #008000"/>
   </g>
   <g id="patch_111">
    <path d="M 610.737896 192.008192 
Q 609.257364 192.123094 607.656427 192.181213 
Q 606.055489 192.24 604.31185 192.24 
Q 599.112148 192.24 596.075273 191.804441 
Q 593.038397 191.368883 593.038397 190.624024 
Q 593.038397 189.876494 596.075273 189.441603 
Q 599.112148 189.006044 604.31185 189.006044 
Q 606.055489 189.006044 607.656427 189.064832 
Q 609.257364 189.122951 610.737896 189.237852 
L 610.737896 189.882506 
Q 609.243986 189.730194 607.794669 189.659382 
Q 606.345353 189.588571 604.744415 189.588571 
Q 601.872539 189.588571 600.227007 189.864469 
Q 598.585935 190.139699 598.585935 190.624024 
Q 598.585935 191.106345 600.227007 191.382244 
Q 601.872539 191.657474 604.744415 191.657474 
Q 606.345353 191.657474 607.794669 191.586662 
Q 609.243986 191.515182 610.737896 191.362871 
L 610.737896 192.008192 
z
" clip-path="url(#p7b916bed42)" style="fill: #0000ff"/>
   </g>
   <g id="patch_112">
    <path d="M 610.737896 188.511474 
Q 608.952873 188.758759 607.032981 188.882966 
Q 605.113089 189.006044 603.066262 189.006044 
Q 598.441068 189.006044 595.739733 188.269835 
Q 593.038397 187.533625 593.038397 186.274616 
Q 593.038397 185.000929 595.787333 184.270365 
Q 598.540236 183.539801 603.328066 183.539801 
Q 605.17259 183.539801 606.862412 183.639167 
Q 608.556201 183.737403 610.055621 183.931618 
L 610.055621 185.021254 
Q 608.508601 184.77171 606.977447 184.648632 
Q 605.446294 184.524425 603.907207 184.524425 
Q 601.059103 184.524425 599.516049 184.978346 
Q 597.972995 185.431137 597.972995 186.274616 
Q 597.972995 187.110192 599.460515 187.566371 
Q 600.948035 188.021421 603.685071 188.021421 
Q 604.430814 188.021421 605.069455 187.99545 
Q 605.708097 187.96835 606.215837 187.911892 
L 606.215837 186.888877 
L 603.300299 186.888877 
L 603.300299 185.977649 
L 610.737896 185.977649 
L 610.737896 188.511474 
z
" clip-path="url(#p7b916bed42)" style="fill: #ffa600"/>
   </g>
   <g id="patch_113">
    <path d="M 593.038397 168.743739 
L 610.737896 168.743739 
L 610.737896 171.629383 
L 604.370193 171.629383 
L 604.370193 183.539801 
L 599.418449 183.539801 
L 599.418449 171.629383 
L 593.038397 171.629383 
L 593.038397 168.743739 
z
" clip-path="url(#p7b916bed42)" style="fill: #ff0000"/>
   </g>
   <g id="patch_114">
    <path d="M 605.298856 164.849251 
L 598.491913 164.849251 
L 597.417133 168.743739 
L 593.038397 168.743739 
L 599.291665 147.36529 
L 604.484628 147.36529 
L 610.737896 168.743739 
L 606.36278 168.743739 
L 605.298856 164.849251 
z
M 599.57755 160.881455 
L 604.202363 160.881455 
L 601.893575 152.377725 
L 599.57755 160.881455 
z
" clip-path="url(#p7b916bed42)" style="fill: #008000"/>
   </g>
   <g id="patch_115">
    <path d="M 629.368948 191.733518 
Q 627.583925 191.986759 625.664033 192.113958 
Q 623.744141 192.24 621.697314 192.24 
Q 617.07212 192.24 614.370785 191.486059 
Q 611.669449 190.732118 611.669449 189.442786 
Q 611.669449 188.138421 614.418385 187.390262 
Q 617.171288 186.642103 621.959118 186.642103 
Q 623.803642 186.642103 625.493464 186.743862 
Q 627.187253 186.844464 628.686673 187.043357 
L 628.686673 188.159236 
Q 627.139652 187.903682 625.608499 187.77764 
Q 624.077345 187.650441 622.538259 187.650441 
Q 619.690154 187.650441 618.147101 188.115294 
Q 616.604047 188.578991 616.604047 189.442786 
Q 616.604047 190.298486 618.091567 190.765652 
Q 619.579086 191.231662 622.316122 191.231662 
Q 623.061865 191.231662 623.700507 191.205065 
Q 624.339149 191.177313 624.846889 191.119495 
L 624.846889 190.071841 
L 621.931351 190.071841 
L 621.931351 189.138665 
L 629.368948 189.138665 
L 629.368948 191.733518 
z
" clip-path="url(#p7b916bed42)" style="fill: #ffa600"/>
   </g>
   <g id="patch_116">
    <path d="M 629.368948 186.177341 
Q 627.888416 186.407713 626.287478 186.524238 
Q 624.686541 186.642103 622.942902 186.642103 
Q 617.7432 186.642103 614.706325 185.768833 
Q 611.669449 184.895563 611.669449 183.402164 
Q 611.669449 181.903408 614.706325 181.031477 
Q 617.7432 180.158207 622.942902 180.158207 
Q 624.686541 180.158207 626.287478 180.276072 
Q 627.888416 180.392597 629.368948 180.622969 
L 629.368948 181.915462 
Q 627.875037 181.610086 626.425721 181.468112 
Q 624.976404 181.326139 623.375467 181.326139 
Q 620.503591 181.326139 618.858059 181.879299 
Q 617.216987 182.43112 617.216987 183.402164 
Q 617.216987 184.36919 618.858059 184.92235 
Q 620.503591 185.474171 623.375467 185.474171 
Q 624.976404 185.474171 626.425721 185.332198 
Q 627.875037 185.188885 629.368948 184.883508 
L 629.368948 186.177341 
z
" clip-path="url(#p7b916bed42)" style="fill: #0000ff"/>
   </g>
   <g id="patch_117">
    <path d="M 623.929908 177.832561 
L 617.122965 177.832561 
L 616.048184 180.158207 
L 611.669449 180.158207 
L 617.922717 167.39178 
L 623.11568 167.39178 
L 629.368948 180.158207 
L 624.993832 180.158207 
L 623.929908 177.832561 
z
M 618.208602 175.463139 
L 622.833415 175.463139 
L 620.524627 170.385023 
L 618.208602 175.463139 
z
" clip-path="url(#p7b916bed42)" style="fill: #008000"/>
   </g>
   <g id="patch_118">
    <path d="M 611.669449 129.092497 
L 629.368948 129.092497 
L 629.368948 136.561924 
L 623.001245 136.561924 
L 623.001245 167.39178 
L 618.049501 167.39178 
L 618.049501 136.561924 
L 611.669449 136.561924 
L 611.669449 129.092497 
z
" clip-path="url(#p7b916bed42)" style="fill: #ff0000"/>
   </g>
   <g id="patch_119">
    <path d="M 648 191.853246 
Q 646.519467 192.044951 644.91853 192.141918 
Q 643.317593 192.24 641.573954 192.24 
Q 636.374252 192.24 633.337376 191.513303 
Q 630.300501 190.786607 630.300501 189.543866 
Q 630.300501 188.296667 633.337376 187.571085 
Q 636.374252 186.844389 641.573954 186.844389 
Q 643.317593 186.844389 644.91853 186.94247 
Q 646.519467 187.039438 648 187.231143 
L 648 188.306698 
Q 646.506089 188.052578 645.056773 187.934434 
Q 643.607456 187.81629 642.006519 187.81629 
Q 639.134642 187.81629 637.489111 188.276605 
Q 635.848038 188.735806 635.848038 189.543866 
Q 635.848038 190.348582 637.489111 190.808898 
Q 639.134642 191.268099 642.006519 191.268099 
Q 643.607456 191.268099 645.056773 191.149955 
Q 646.506089 191.030696 648 190.776576 
L 648 191.853246 
z
" clip-path="url(#p7b916bed42)" style="fill: #0000ff"/>
   </g>
   <g id="patch_120">
    <path d="M 648 186.29631 
Q 646.214977 186.570349 644.295085 186.707994 
Q 642.375193 186.844389 640.328366 186.844389 
Q 635.703172 186.844389 633.001836 186.028527 
Q 630.300501 185.212665 630.300501 183.817441 
Q 630.300501 182.40595 633.049437 181.596344 
Q 635.80234 180.786739 640.590169 180.786739 
Q 642.434694 180.786739 644.124516 180.896855 
Q 645.818305 181.00572 647.317724 181.220948 
L 647.317724 182.428473 
Q 645.770704 182.151931 644.239551 182.015537 
Q 642.708397 181.877892 641.16931 181.877892 
Q 638.321206 181.877892 636.778153 182.380923 
Q 635.235099 182.882703 635.235099 183.817441 
Q 635.235099 184.743419 636.722619 185.248953 
Q 638.210138 185.753236 640.947174 185.753236 
Q 641.692917 185.753236 642.331559 185.724455 
Q 642.970201 185.694424 643.477941 185.631858 
L 643.477941 184.49816 
L 640.562402 184.49816 
L 640.562402 183.488343 
L 648 183.488343 
L 648 186.29631 
z
" clip-path="url(#p7b916bed42)" style="fill: #ffa600"/>
   </g>
   <g id="patch_121">
    <path d="M 642.560959 178.839004 
L 635.754017 178.839004 
L 634.679236 180.786739 
L 630.300501 180.786739 
L 636.553769 170.094822 
L 641.746732 170.094822 
L 648 180.786739 
L 643.624884 180.786739 
L 642.560959 178.839004 
z
M 636.839653 176.854607 
L 641.464466 176.854607 
L 639.155679 172.601671 
L 636.839653 176.854607 
z
" clip-path="url(#p7b916bed42)" style="fill: #008000"/>
   </g>
   <g id="patch_122">
    <path d="M 630.300501 140.336204 
L 648 140.336204 
L 648 146.139964 
L 641.632296 146.139964 
L 641.632296 170.094822 
L 636.680553 170.094822 
L 636.680553 146.139964 
L 630.300501 146.139964 
L 630.300501 140.336204 
z
" clip-path="url(#p7b916bed42)" style="fill: #ff0000"/>
   </g>
   <g id="matplotlib.axis_1">
    <g id="xtick_1">
     <g id="line2d_2">
      <defs>
       <path id="mcfe4e43d13" d="M 0 0 
L 0 3.5 
" style="stroke: #000000; stroke-width: 0.8"/>
      </defs>
      <g>
       <use xlink:href="#mcfe4e43d13" x="98.84975" y="192.24" style="stroke: #000000; stroke-width: 0.8"/>
      </g>
     </g>
     <g id="text_1">
      <!-- 0 -->
      <g transform="translate(95.6685 206.838437) scale(0.1 -0.1)">
       <defs>
        <path id="DejaVuSans-30" d="M 2034 4250 
Q 1547 4250 1301 3770 
Q 1056 3291 1056 2328 
Q 1056 1369 1301 889 
Q 1547 409 2034 409 
Q 2525 409 2770 889 
Q 3016 1369 3016 2328 
Q 3016 3291 2770 3770 
Q 2525 4250 2034 4250 
z
M 2034 4750 
Q 2819 4750 3233 4129 
Q 3647 3509 3647 2328 
Q 3647 1150 3233 529 
Q 2819 -91 2034 -91 
Q 1250 -91 836 529 
Q 422 1150 422 2328 
Q 422 3509 836 4129 
Q 1250 4750 2034 4750 
z
" transform="scale(0.015625)"/>
       </defs>
       <use xlink:href="#DejaVuSans-30"/>
      </g>
     </g>
    </g>
    <g id="xtick_2">
     <g id="line2d_3">
      <g>
       <use xlink:href="#mcfe4e43d13" x="192.005008" y="192.24" style="stroke: #000000; stroke-width: 0.8"/>
      </g>
     </g>
     <g id="text_2">
      <!-- 5 -->
      <g transform="translate(188.823758 206.838437) scale(0.1 -0.1)">
       <defs>
        <path id="DejaVuSans-35" d="M 691 4666 
L 3169 4666 
L 3169 4134 
L 1269 4134 
L 1269 2991 
Q 1406 3038 1543 3061 
Q 1681 3084 1819 3084 
Q 2600 3084 3056 2656 
Q 3513 2228 3513 1497 
Q 3513 744 3044 326 
Q 2575 -91 1722 -91 
Q 1428 -91 1123 -41 
Q 819 9 494 109 
L 494 744 
Q 775 591 1075 516 
Q 1375 441 1709 441 
Q 2250 441 2565 725 
Q 2881 1009 2881 1497 
Q 2881 1984 2565 2268 
Q 2250 2553 1709 2553 
Q 1456 2553 1204 2497 
Q 953 2441 691 2322 
L 691 4666 
z
" transform="scale(0.015625)"/>
       </defs>
       <use xlink:href="#DejaVuSans-35"/>
      </g>
     </g>
    </g>
    <g id="xtick_3">
     <g id="line2d_4">
      <g>
       <use xlink:href="#mcfe4e43d13" x="285.160267" y="192.24" style="stroke: #000000; stroke-width: 0.8"/>
      </g>
     </g>
     <g id="text_3">
      <!-- 10 -->
      <g transform="translate(278.797767 206.838437) scale(0.1 -0.1)">
       <defs>
        <path id="DejaVuSans-31" d="M 794 531 
L 1825 531 
L 1825 4091 
L 703 3866 
L 703 4441 
L 1819 4666 
L 2450 4666 
L 2450 531 
L 3481 531 
L 3481 0 
L 794 0 
L 794 531 
z
" transform="scale(0.015625)"/>
       </defs>
       <use xlink:href="#DejaVuSans-31"/>
       <use xlink:href="#DejaVuSans-30" x="63.623047"/>
      </g>
     </g>
    </g>
    <g id="xtick_4">
     <g id="line2d_5">
      <g>
       <use xlink:href="#mcfe4e43d13" x="378.315526" y="192.24" style="stroke: #000000; stroke-width: 0.8"/>
      </g>
     </g>
     <g id="text_4">
      <!-- 15 -->
      <g transform="translate(371.953026 206.838437) scale(0.1 -0.1)">
       <use xlink:href="#DejaVuSans-31"/>
       <use xlink:href="#DejaVuSans-35" x="63.623047"/>
      </g>
     </g>
    </g>
    <g id="xtick_5">
     <g id="line2d_6">
      <g>
       <use xlink:href="#mcfe4e43d13" x="471.470785" y="192.24" style="stroke: #000000; stroke-width: 0.8"/>
      </g>
     </g>
     <g id="text_5">
      <!-- 20 -->
      <g transform="translate(465.108285 206.838437) scale(0.1 -0.1)">
       <defs>
        <path id="DejaVuSans-32" d="M 1228 531 
L 3431 531 
L 3431 0 
L 469 0 
L 469 531 
Q 828 903 1448 1529 
Q 2069 2156 2228 2338 
Q 2531 2678 2651 2914 
Q 2772 3150 2772 3378 
Q 2772 3750 2511 3984 
Q 2250 4219 1831 4219 
Q 1534 4219 1204 4116 
Q 875 4013 500 3803 
L 500 4441 
Q 881 4594 1212 4672 
Q 1544 4750 1819 4750 
Q 2544 4750 2975 4387 
Q 3406 4025 3406 3419 
Q 3406 3131 3298 2873 
Q 3191 2616 2906 2266 
Q 2828 2175 2409 1742 
Q 1991 1309 1228 531 
z
" transform="scale(0.015625)"/>
       </defs>
       <use xlink:href="#DejaVuSans-32"/>
       <use xlink:href="#DejaVuSans-30" x="63.623047"/>
      </g>
     </g>
    </g>
    <g id="xtick_6">
     <g id="line2d_7">
      <g>
       <use xlink:href="#mcfe4e43d13" x="564.626043" y="192.24" style="stroke: #000000; stroke-width: 0.8"/>
      </g>
     </g>
     <g id="text_6">
      <!-- 25 -->
      <g transform="translate(558.263543 206.838437) scale(0.1 -0.1)">
       <use xlink:href="#DejaVuSans-32"/>
       <use xlink:href="#DejaVuSans-35" x="63.623047"/>
      </g>
     </g>
    </g>
   </g>
   <g id="matplotlib.axis_2">
    <g id="ytick_1">
     <g id="line2d_8">
      <defs>
       <path id="mb6796149bc" d="M 0 0 
L -3.5 0 
" style="stroke: #000000; stroke-width: 0.8"/>
      </defs>
      <g>
       <use xlink:href="#mb6796149bc" x="90" y="192.24" style="stroke: #000000; stroke-width: 0.8"/>
      </g>
     </g>
     <g id="text_7">
      <!-- 0.0 -->
      <g transform="translate(67.096875 196.039219) scale(0.1 -0.1)">
       <defs>
        <path id="DejaVuSans-2e" d="M 684 794 
L 1344 794 
L 1344 0 
L 684 0 
L 684 794 
z
" transform="scale(0.015625)"/>
       </defs>
       <use xlink:href="#DejaVuSans-30"/>
       <use xlink:href="#DejaVuSans-2e" x="63.623047"/>
       <use xlink:href="#DejaVuSans-30" x="95.410156"/>
      </g>
     </g>
    </g>
    <g id="ytick_2">
     <g id="line2d_9">
      <g>
       <use xlink:href="#mb6796149bc" x="90" y="164.11939" style="stroke: #000000; stroke-width: 0.8"/>
      </g>
     </g>
     <g id="text_8">
      <!-- 0.2 -->
      <g transform="translate(67.096875 167.918609) scale(0.1 -0.1)">
       <use xlink:href="#DejaVuSans-30"/>
       <use xlink:href="#DejaVuSans-2e" x="63.623047"/>
       <use xlink:href="#DejaVuSans-32" x="95.410156"/>
      </g>
     </g>
    </g>
    <g id="ytick_3">
     <g id="line2d_10">
      <g>
       <use xlink:href="#mb6796149bc" x="90" y="135.99878" style="stroke: #000000; stroke-width: 0.8"/>
      </g>
     </g>
     <g id="text_9">
      <!-- 0.4 -->
      <g transform="translate(67.096875 139.797999) scale(0.1 -0.1)">
       <defs>
        <path id="DejaVuSans-34" d="M 2419 4116 
L 825 1625 
L 2419 1625 
L 2419 4116 
z
M 2253 4666 
L 3047 4666 
L 3047 1625 
L 3713 1625 
L 3713 1100 
L 3047 1100 
L 3047 0 
L 2419 0 
L 2419 1100 
L 313 1100 
L 313 1709 
L 2253 4666 
z
" transform="scale(0.015625)"/>
       </defs>
       <use xlink:href="#DejaVuSans-30"/>
       <use xlink:href="#DejaVuSans-2e" x="63.623047"/>
       <use xlink:href="#DejaVuSans-34" x="95.410156"/>
      </g>
     </g>
    </g>
    <g id="ytick_4">
     <g id="line2d_11">
      <g>
       <use xlink:href="#mb6796149bc" x="90" y="107.87817" style="stroke: #000000; stroke-width: 0.8"/>
      </g>
     </g>
     <g id="text_10">
      <!-- 0.6 -->
      <g transform="translate(67.096875 111.677389) scale(0.1 -0.1)">
       <defs>
        <path id="DejaVuSans-36" d="M 2113 2584 
Q 1688 2584 1439 2293 
Q 1191 2003 1191 1497 
Q 1191 994 1439 701 
Q 1688 409 2113 409 
Q 2538 409 2786 701 
Q 3034 994 3034 1497 
Q 3034 2003 2786 2293 
Q 2538 2584 2113 2584 
z
M 3366 4563 
L 3366 3988 
Q 3128 4100 2886 4159 
Q 2644 4219 2406 4219 
Q 1781 4219 1451 3797 
Q 1122 3375 1075 2522 
Q 1259 2794 1537 2939 
Q 1816 3084 2150 3084 
Q 2853 3084 3261 2657 
Q 3669 2231 3669 1497 
Q 3669 778 3244 343 
Q 2819 -91 2113 -91 
Q 1303 -91 875 529 
Q 447 1150 447 2328 
Q 447 3434 972 4092 
Q 1497 4750 2381 4750 
Q 2619 4750 2861 4703 
Q 3103 4656 3366 4563 
z
" transform="scale(0.015625)"/>
       </defs>
       <use xlink:href="#DejaVuSans-30"/>
       <use xlink:href="#DejaVuSans-2e" x="63.623047"/>
       <use xlink:href="#DejaVuSans-36" x="95.410156"/>
      </g>
     </g>
    </g>
    <g id="ytick_5">
     <g id="line2d_12">
      <g>
       <use xlink:href="#mb6796149bc" x="90" y="79.75756" style="stroke: #000000; stroke-width: 0.8"/>
      </g>
     </g>
     <g id="text_11">
      <!-- 0.8 -->
      <g transform="translate(67.096875 83.556779) scale(0.1 -0.1)">
       <defs>
        <path id="DejaVuSans-38" d="M 2034 2216 
Q 1584 2216 1326 1975 
Q 1069 1734 1069 1313 
Q 1069 891 1326 650 
Q 1584 409 2034 409 
Q 2484 409 2743 651 
Q 3003 894 3003 1313 
Q 3003 1734 2745 1975 
Q 2488 2216 2034 2216 
z
M 1403 2484 
Q 997 2584 770 2862 
Q 544 3141 544 3541 
Q 544 4100 942 4425 
Q 1341 4750 2034 4750 
Q 2731 4750 3128 4425 
Q 3525 4100 3525 3541 
Q 3525 3141 3298 2862 
Q 3072 2584 2669 2484 
Q 3125 2378 3379 2068 
Q 3634 1759 3634 1313 
Q 3634 634 3220 271 
Q 2806 -91 2034 -91 
Q 1263 -91 848 271 
Q 434 634 434 1313 
Q 434 1759 690 2068 
Q 947 2378 1403 2484 
z
M 1172 3481 
Q 1172 3119 1398 2916 
Q 1625 2713 2034 2713 
Q 2441 2713 2670 2916 
Q 2900 3119 2900 3481 
Q 2900 3844 2670 4047 
Q 2441 4250 2034 4250 
Q 1625 4250 1398 4047 
Q 1172 3844 1172 3481 
z
" transform="scale(0.015625)"/>
       </defs>
       <use xlink:href="#DejaVuSans-30"/>
       <use xlink:href="#DejaVuSans-2e" x="63.623047"/>
       <use xlink:href="#DejaVuSans-38" x="95.410156"/>
      </g>
     </g>
    </g>
    <g id="ytick_6">
     <g id="line2d_13">
      <g>
       <use xlink:href="#mb6796149bc" x="90" y="51.63695" style="stroke: #000000; stroke-width: 0.8"/>
      </g>
     </g>
     <g id="text_12">
      <!-- 1.0 -->
      <g transform="translate(67.096875 55.436169) scale(0.1 -0.1)">
       <use xlink:href="#DejaVuSans-31"/>
       <use xlink:href="#DejaVuSans-2e" x="63.623047"/>
       <use xlink:href="#DejaVuSans-30" x="95.410156"/>
      </g>
     </g>
    </g>
   </g>
  </g>
 </g>
 <defs>
  <clipPath id="p7b916bed42">
   <rect x="90" y="25.92" width="558" height="166.32"/>
  </clipPath>
 </defs>
</svg>
