<?xml version="1.0" encoding="utf-8" standalone="no"?>
<!DOCTYPE svg PUBLIC "-//W3C//DTD SVG 1.1//EN"
  "http://www.w3.org/Graphics/SVG/1.1/DTD/svg11.dtd">
<svg xmlns:xlink="http://www.w3.org/1999/xlink" width="720pt" height="216pt" viewBox="0 0 720 216" xmlns="http://www.w3.org/2000/svg" version="1.1">
 <metadata>
  <rdf:RDF xmlns:dc="http://purl.org/dc/elements/1.1/" xmlns:cc="http://creativecommons.org/ns#" xmlns:rdf="http://www.w3.org/1999/02/22-rdf-syntax-ns#">
   <cc:Work>
    <dc:type rdf:resource="http://purl.org/dc/dcmitype/StillImage"/>
    <dc:date>2025-12-17T10:22:07.446368</dc:date>
    <dc:format>image/svg+xml</dc:format>
    <dc:creator>
     <cc:Agent>
      <dc:title>Matplotlib v3.8.2, https://matplotlib.org/</dc:title>
     </cc:Agent>
    </dc:creator>
   </cc:Work>
  </rdf:RDF>
 </metadata>
 <defs>
  <style type="text/css">*{stroke-linejoin: round; stroke-linecap: butt}</style>
 </defs>
 <g id="figure_1">
  <g id="patch_1">
   <path d="M 0 216 
L 720 216 
L 720 0 
L 0 0 
z
" style="fill: #ffffff"/>
  </g>
  <g id="axes_1">
   <g id="patch_2">
    <path d="M 90 192.24 
L 648 192.24 
L 648 25.92 
L 90 25.92 
z
" style="fill: #ffffff"/>
   </g>
   <g id="line2d_1">
    <path d="M 90 192.24 
L 648 192.24 
" clip-path="url(#pc01896d788)" style="fill: none; stroke: #000000; stroke-width: 0.5; stroke-linecap: square"/>
   </g>
   <g id="patch_3">
    <path d="M 108.310881 192.068523 
Q 106.464199 192.154262 104.477989 192.197327 
Q 102.49178 192.24 100.374251 192.24 
Q 95.589292 192.24 92.794646 191.984742 
Q 90 191.729484 90 191.292962 
Q 90 190.851351 92.843891 190.59805 
Q 95.691885 190.34475 100.645097 190.34475 
Q 102.553336 190.34475 104.301528 190.379202 
Q 106.053825 190.413263 107.605038 190.480601 
L 107.605038 190.858398 
Q 106.00458 190.771876 104.420537 190.729203 
Q 102.836494 190.686138 101.244243 190.686138 
Q 98.297759 190.686138 96.701405 190.843521 
Q 95.105051 191.000512 95.105051 191.292962 
Q 95.105051 191.582672 96.643953 191.740838 
Q 98.182854 191.898612 101.014434 191.898612 
Q 101.785937 191.898612 102.446639 191.889608 
Q 103.107341 191.880212 103.632619 191.860637 
L 103.632619 191.505938 
L 100.616371 191.505938 
L 100.616371 191.189998 
L 108.310881 191.189998 
L 108.310881 192.068523 
z
" clip-path="url(#pc01896d788)" style="fill: #ffa600"/>
   </g>
   <g id="patch_4">
    <path d="M 108.310881 190.167366 
Q 106.779207 190.255291 105.12297 190.299765 
Q 103.466732 190.34475 101.662864 190.34475 
Q 96.283552 190.34475 93.141776 190.011452 
Q 90 189.678153 90 189.108172 
Q 90 188.536147 93.141776 188.203359 
Q 96.283552 187.870061 101.662864 187.870061 
Q 103.466732 187.870061 105.12297 187.915046 
Q 106.779207 187.95952 108.310881 188.047445 
L 108.310881 188.540747 
Q 106.765367 188.424195 105.265988 188.370009 
Q 103.766608 188.315822 102.110371 188.315822 
Q 99.139293 188.315822 97.436921 188.526945 
Q 95.739162 188.737557 95.739162 189.108172 
Q 95.739162 189.477254 97.436921 189.688377 
Q 99.139293 189.898989 102.110371 189.898989 
Q 103.766608 189.898989 105.265988 189.844803 
Q 106.765367 189.790105 108.310881 189.673553 
L 108.310881 190.167366 
z
" clip-path="url(#pc01896d788)" style="fill: #0000ff"/>
   </g>
   <g id="patch_5">
    <path d="M 102.683963 186.983832 
L 95.641893 186.983832 
L 94.529987 187.870061 
L 90 187.870061 
L 96.469271 183.005184 
L 101.84161 183.005184 
L 108.310881 187.870061 
L 103.784638 187.870061 
L 102.683963 186.983832 
z
M 96.76503 186.080921 
L 101.549595 186.080921 
L 99.161056 184.145813 
L 96.76503 186.080921 
z
" clip-path="url(#pc01896d788)" style="fill: #008000"/>
   </g>
   <g id="patch_6">
    <path d="M 90 177.343578 
L 108.310881 177.343578 
L 108.310881 178.447749 
L 101.723222 178.447749 
L 101.723222 183.005184 
L 96.600434 183.005184 
L 96.600434 178.447749 
L 90 178.447749 
L 90 177.343578 
z
" clip-path="url(#pc01896d788)" style="fill: #ff0000"/>
   </g>
   <g id="patch_7">
    <path d="M 127.585492 191.944863 
Q 126.053819 192.091156 124.397581 192.165153 
Q 122.741344 192.24 120.937475 192.24 
Q 115.558164 192.24 112.416388 191.685448 
Q 109.274611 191.130897 109.274611 190.182545 
Q 109.274611 189.230792 112.416388 188.677091 
Q 115.558164 188.122539 120.937475 188.122539 
Q 122.741344 188.122539 124.397581 188.197386 
Q 126.053819 188.271383 127.585492 188.417676 
L 127.585492 189.238447 
Q 126.039978 189.044524 124.540599 188.954366 
Q 123.04122 188.864209 121.384982 188.864209 
Q 118.413905 188.864209 116.711533 189.215482 
Q 115.013774 189.565904 115.013774 190.182545 
Q 115.013774 190.796635 116.711533 191.147907 
Q 118.413905 191.49833 121.384982 191.49833 
Q 123.04122 191.49833 124.540599 191.408173 
Q 126.039978 191.317165 127.585492 191.123242 
L 127.585492 191.944863 
z
" clip-path="url(#pc01896d788)" style="fill: #0000ff"/>
   </g>
   <g id="patch_8">
    <path d="M 127.585492 187.717841 
Q 125.73881 187.92019 123.752601 188.021827 
Q 121.766391 188.122539 119.648862 188.122539 
Q 114.863903 188.122539 112.069257 187.520112 
Q 109.274611 186.917686 109.274611 185.887462 
Q 109.274611 184.845227 112.118502 184.24742 
Q 114.966497 183.649614 119.919709 183.649614 
Q 121.827947 183.649614 123.57614 183.730923 
Q 125.328436 183.811308 126.879649 183.97023 
L 126.879649 184.861859 
Q 125.279191 184.657662 123.695148 184.55695 
Q 122.111105 184.455313 120.518855 184.455313 
Q 117.57237 184.455313 115.976016 184.826748 
Q 114.379662 185.197259 114.379662 185.887462 
Q 114.379662 186.571198 115.918564 186.944481 
Q 117.457466 187.31684 120.289045 187.31684 
Q 121.060548 187.31684 121.72125 187.295588 
Q 122.381952 187.273413 122.90723 187.227215 
L 122.90723 186.3901 
L 119.890983 186.3901 
L 119.890983 185.644459 
L 127.585492 185.644459 
L 127.585492 187.717841 
z
" clip-path="url(#pc01896d788)" style="fill: #ffa600"/>
   </g>
   <g id="patch_9">
    <path d="M 109.274611 175.918266 
L 127.585492 175.918266 
L 127.585492 177.426094 
L 120.997833 177.426094 
L 120.997833 183.649614 
L 115.875045 183.649614 
L 115.875045 177.426094 
L 109.274611 177.426094 
L 109.274611 175.918266 
z
" clip-path="url(#pc01896d788)" style="fill: #ff0000"/>
   </g>
   <g id="patch_10">
    <path d="M 121.958575 172.232654 
L 114.916504 172.232654 
L 113.804598 175.918266 
L 109.274611 175.918266 
L 115.743882 155.686425 
L 121.116222 155.686425 
L 127.585492 175.918266 
L 123.059249 175.918266 
L 121.958575 172.232654 
z
M 116.039641 168.477666 
L 120.824206 168.477666 
L 118.435667 160.430024 
L 116.039641 168.477666 
z
" clip-path="url(#pc01896d788)" style="fill: #008000"/>
   </g>
   <g id="patch_11">
    <path d="M 146.860104 192.150421 
Q 145.013421 192.195211 143.027212 192.217708 
Q 141.041003 192.24 138.923474 192.24 
Q 134.138515 192.24 131.343869 192.106654 
Q 128.549223 191.973308 128.549223 191.745271 
Q 128.549223 191.514574 131.393114 191.382251 
Q 134.241108 191.249928 139.19432 191.249928 
Q 141.102559 191.249928 142.850751 191.267926 
Q 144.603047 191.285719 146.154261 191.320896 
L 146.154261 191.518256 
Q 144.553803 191.473057 142.96976 191.450765 
Q 141.385717 191.428268 139.793466 191.428268 
Q 136.846982 191.428268 135.250628 191.510484 
Q 133.654273 191.592496 133.654273 191.745271 
Q 133.654273 191.896614 135.193175 191.979239 
Q 136.732077 192.06166 139.563657 192.06166 
Q 140.33516 192.06166 140.995861 192.056956 
Q 141.656563 192.052048 142.181842 192.041822 
L 142.181842 191.856529 
L 139.165594 191.856529 
L 139.165594 191.691483 
L 146.860104 191.691483 
L 146.860104 192.150421 
z
" clip-path="url(#pc01896d788)" style="fill: #ffa600"/>
   </g>
   <g id="patch_12">
    <path d="M 141.233186 190.980571 
L 134.191116 190.980571 
L 133.07921 191.249928 
L 128.549223 191.249928 
L 135.018493 189.771317 
L 140.390833 189.771317 
L 146.860104 191.249928 
L 142.333861 191.249928 
L 141.233186 190.980571 
z
M 135.314253 190.706144 
L 140.098817 190.706144 
L 137.710279 190.117995 
L 135.314253 190.706144 
z
" clip-path="url(#pc01896d788)" style="fill: #008000"/>
   </g>
   <g id="patch_13">
    <path d="M 128.549223 188.064027 
L 146.860104 188.064027 
L 146.860104 188.396996 
L 140.272445 188.396996 
L 140.272445 189.771317 
L 135.149657 189.771317 
L 135.149657 188.396996 
L 128.549223 188.396996 
L 128.549223 188.064027 
z
" clip-path="url(#pc01896d788)" style="fill: #ff0000"/>
   </g>
   <g id="patch_14">
    <path d="M 146.860104 187.903651 
Q 145.32843 187.983146 143.672193 188.023356 
Q 142.015955 188.064027 140.212087 188.064027 
Q 134.832775 188.064027 131.690999 187.762687 
Q 128.549223 187.461347 128.549223 186.946017 
Q 128.549223 186.42884 131.690999 186.127961 
Q 134.832775 185.826621 140.212087 185.826621 
Q 142.015955 185.826621 143.672193 185.867293 
Q 145.32843 185.907502 146.860104 185.986997 
L 146.860104 186.432999 
Q 145.31459 186.327622 143.81521 186.278632 
Q 142.315831 186.229641 140.659594 186.229641 
Q 137.688516 186.229641 135.986144 186.42052 
Q 134.288385 186.610938 134.288385 186.946017 
Q 134.288385 187.27971 135.986144 187.47059 
Q 137.688516 187.661008 140.659594 187.661008 
Q 142.315831 187.661008 143.81521 187.612017 
Q 145.31459 187.562564 146.860104 187.457187 
L 146.860104 187.903651 
z
" clip-path="url(#pc01896d788)" style="fill: #0000ff"/>
   </g>
   <g id="patch_15">
    <path d="M 166.134715 192.031399 
Q 164.288033 192.1357 162.301823 192.188088 
Q 160.315614 192.24 158.198085 192.24 
Q 153.413126 192.24 150.61848 191.92948 
Q 147.823834 191.618961 147.823834 191.087934 
Q 147.823834 190.550716 150.667725 190.242578 
Q 153.515719 189.934439 158.468932 189.934439 
Q 160.37717 189.934439 162.125363 189.97635 
Q 163.877659 190.017784 165.428872 190.0997 
L 165.428872 190.559289 
Q 163.828414 190.454036 162.244371 190.402124 
Q 160.660328 190.349735 159.068077 190.349735 
Q 156.121593 190.349735 154.525239 190.541191 
Q 152.928885 190.73217 152.928885 191.087934 
Q 152.928885 191.440364 154.467787 191.632772 
Q 156.006689 191.824704 158.838268 191.824704 
Q 159.609771 191.824704 160.270473 191.81375 
Q 160.931175 191.80232 161.456453 191.778507 
L 161.456453 191.347018 
L 158.440205 191.347018 
L 158.440205 190.962678 
L 166.134715 190.962678 
L 166.134715 192.031399 
z
" clip-path="url(#pc01896d788)" style="fill: #ffa600"/>
   </g>
   <g id="patch_16">
    <path d="M 166.134715 189.652242 
Q 164.603041 189.792121 162.946804 189.862873 
Q 161.290567 189.934439 159.486698 189.934439 
Q 154.107387 189.934439 150.96561 189.404202 
Q 147.823834 188.873964 147.823834 187.967193 
Q 147.823834 187.057169 150.96561 186.527744 
Q 154.107387 185.997507 159.486698 185.997507 
Q 161.290567 185.997507 162.946804 186.069072 
Q 164.603041 186.139825 166.134715 186.279704 
L 166.134715 187.064488 
Q 164.589201 186.879067 163.089822 186.792863 
Q 161.590443 186.706659 159.934205 186.706659 
Q 156.963127 186.706659 155.260755 187.04253 
Q 153.562997 187.377588 153.562997 187.967193 
Q 153.562997 188.554358 155.260755 188.890229 
Q 156.963127 189.225287 159.934205 189.225287 
Q 161.590443 189.225287 163.089822 189.139083 
Q 164.589201 189.052065 166.134715 188.866645 
L 166.134715 189.652242 
z
" clip-path="url(#pc01896d788)" style="fill: #0000ff"/>
   </g>
   <g id="patch_17">
    <path d="M 147.823834 181.194948 
L 166.134715 181.194948 
L 166.134715 182.131581 
L 159.547056 182.131581 
L 159.547056 185.997507 
L 154.424268 185.997507 
L 154.424268 182.131581 
L 147.823834 182.131581 
L 147.823834 181.194948 
z
" clip-path="url(#pc01896d788)" style="fill: #ff0000"/>
   </g>
   <g id="patch_18">
    <path d="M 160.507797 179.464906 
L 153.465727 179.464906 
L 152.353821 181.194948 
L 147.823834 181.194948 
L 154.293105 171.698035 
L 159.665445 171.698035 
L 166.134715 181.194948 
L 161.608472 181.194948 
L 160.507797 179.464906 
z
M 154.588864 177.702299 
L 159.373429 177.702299 
L 156.98489 173.924701 
L 154.588864 177.702299 
z
" clip-path="url(#pc01896d788)" style="fill: #008000"/>
   </g>
   <g id="patch_19">
    <path d="M 185.409326 191.881076 
Q 183.877653 192.058987 182.221415 192.148976 
Q 180.565178 192.24 178.761309 192.24 
Q 173.381998 192.24 170.240222 191.565596 
Q 167.098446 190.891191 167.098446 189.737877 
Q 167.098446 188.580426 170.240222 187.907056 
Q 173.381998 187.232652 178.761309 187.232652 
Q 180.565178 187.232652 182.221415 187.323676 
Q 183.877653 187.413665 185.409326 187.591575 
L 185.409326 188.589735 
Q 183.863812 188.3539 182.364433 188.244258 
Q 180.865054 188.134616 179.208817 188.134616 
Q 176.237739 188.134616 174.535367 188.561807 
Q 172.837608 188.987965 172.837608 189.737877 
Q 172.837608 190.484687 174.535367 190.911879 
Q 176.237739 191.338036 179.208817 191.338036 
Q 180.865054 191.338036 182.364433 191.228394 
Q 183.863812 191.117717 185.409326 190.881882 
L 185.409326 191.881076 
z
" clip-path="url(#pc01896d788)" style="fill: #0000ff"/>
   </g>
   <g id="patch_20">
    <path d="M 185.409326 186.594353 
Q 183.562644 186.913503 181.576435 187.073806 
Q 179.590225 187.232652 177.472696 187.232652 
Q 172.687737 187.232652 169.893091 186.282491 
Q 167.098446 185.33233 167.098446 183.707439 
Q 167.098446 182.063603 169.942336 181.120728 
Q 172.790331 180.177854 177.743543 180.177854 
Q 179.651781 180.177854 181.399974 180.306097 
Q 183.15227 180.432882 184.703483 180.683538 
L 184.703483 182.089834 
Q 183.103025 181.76777 181.518982 181.608924 
Q 179.934939 181.448621 178.342689 181.448621 
Q 175.396205 181.448621 173.79985 182.034457 
Q 172.203496 182.618834 172.203496 183.707439 
Q 172.203496 184.785842 173.742398 185.374592 
Q 175.2813 185.961885 178.11288 185.961885 
Q 178.884382 185.961885 179.545084 185.928367 
Q 180.205786 185.893391 180.731065 185.820526 
L 180.731065 184.500211 
L 177.714817 184.500211 
L 177.714817 183.324169 
L 185.409326 183.324169 
L 185.409326 186.594353 
z
" clip-path="url(#pc01896d788)" style="fill: #ffa600"/>
   </g>
   <g id="patch_21">
    <path d="M 167.098446 172.4109 
L 185.409326 172.4109 
L 185.409326 173.925673 
L 178.821668 173.925673 
L 178.821668 180.177854 
L 173.698879 180.177854 
L 173.698879 173.925673 
L 167.098446 173.925673 
L 167.098446 172.4109 
z
" clip-path="url(#pc01896d788)" style="fill: #ff0000"/>
   </g>
   <g id="patch_22">
    <path d="M 179.782409 166.017511 
L 172.740338 166.017511 
L 171.628432 172.4109 
L 167.098446 172.4109 
L 173.567716 137.314952 
L 178.940056 137.314952 
L 185.409326 172.4109 
L 180.883083 172.4109 
L 179.782409 166.017511 
z
M 173.863476 159.503775 
L 178.64804 159.503775 
L 176.259502 145.543621 
L 173.863476 159.503775 
z
" clip-path="url(#pc01896d788)" style="fill: #008000"/>
   </g>
   <g id="patch_23">
    <path d="M 204.683938 191.841086 
Q 203.152264 192.038819 201.496027 192.138835 
Q 199.839789 192.24 198.035921 192.24 
Q 192.656609 192.24 189.514833 191.490456 
Q 186.373057 190.740911 186.373057 189.459099 
Q 186.373057 188.172688 189.514833 187.424293 
Q 192.656609 186.674749 198.035921 186.674749 
Q 199.839789 186.674749 201.496027 186.775914 
Q 203.152264 186.87593 204.683938 187.073663 
L 204.683938 188.183034 
Q 203.138424 187.920924 201.639045 187.799065 
Q 200.139665 187.677207 198.483428 187.677207 
Q 195.51235 187.677207 193.809978 188.151995 
Q 192.112219 188.625633 192.112219 189.459099 
Q 192.112219 190.289116 193.809978 190.763904 
Q 195.51235 191.237542 198.483428 191.237542 
Q 200.139665 191.237542 201.639045 191.115684 
Q 203.138424 190.992676 204.683938 190.730565 
L 204.683938 191.841086 
z
" clip-path="url(#pc01896d788)" style="fill: #0000ff"/>
   </g>
   <g id="patch_24">
    <path d="M 204.683938 186.146558 
Q 202.837256 186.410653 200.851046 186.543304 
Q 198.864837 186.674749 196.747308 186.674749 
Q 191.962349 186.674749 189.167703 185.888492 
Q 186.373057 185.102235 186.373057 183.75764 
Q 186.373057 182.397368 189.216948 181.617141 
Q 192.064942 180.836914 197.018154 180.836914 
Q 198.926393 180.836914 200.674585 180.943034 
Q 202.426882 181.047949 203.978095 181.255366 
L 203.978095 182.419074 
Q 202.377637 182.152567 200.793594 182.021122 
Q 199.209551 181.888472 197.6173 181.888472 
Q 194.670816 181.888472 193.074462 182.37325 
Q 191.478108 182.856821 191.478108 183.75764 
Q 191.478108 184.650017 193.017009 185.137207 
Q 194.555911 185.623191 197.387491 185.623191 
Q 198.158994 185.623191 198.819696 185.595455 
Q 199.480398 185.566513 200.005676 185.506217 
L 200.005676 184.413658 
L 196.989428 184.413658 
L 196.989428 183.440484 
L 204.683938 183.440484 
L 204.683938 186.146558 
z
" clip-path="url(#pc01896d788)" style="fill: #ffa600"/>
   </g>
   <g id="patch_25">
    <path d="M 186.373057 172.18238 
L 204.683938 172.18238 
L 204.683938 173.870255 
L 198.096279 173.870255 
L 198.096279 180.836914 
L 192.973491 180.836914 
L 192.973491 173.870255 
L 186.373057 173.870255 
L 186.373057 172.18238 
z
" clip-path="url(#pc01896d788)" style="fill: #ff0000"/>
   </g>
   <g id="patch_26">
    <path d="M 199.05702 165.623614 
L 192.01495 165.623614 
L 190.903044 172.18238 
L 186.373057 172.18238 
L 192.842328 136.178611 
L 198.214667 136.178611 
L 204.683938 172.18238 
L 200.157695 172.18238 
L 199.05702 165.623614 
z
M 193.138087 158.941388 
L 197.922652 158.941388 
L 195.534113 144.620129 
L 193.138087 158.941388 
z
" clip-path="url(#pc01896d788)" style="fill: #008000"/>
   </g>
   <g id="patch_27">
    <path d="M 223.958549 191.88561 
Q 222.426876 192.061273 220.770638 192.150126 
Q 219.114401 192.24 217.310532 192.24 
Q 211.931221 192.24 208.789445 191.574114 
Q 205.647668 190.908229 205.647668 189.769482 
Q 205.647668 188.626651 208.789445 187.961786 
Q 211.931221 187.295901 217.310532 187.295901 
Q 219.114401 187.295901 220.770638 187.385775 
Q 222.426876 187.474628 223.958549 187.650291 
L 223.958549 188.635842 
Q 222.413035 188.402987 220.913656 188.294729 
Q 219.414277 188.186472 217.758039 188.186472 
Q 214.786962 188.186472 213.08459 188.608267 
Q 211.386831 189.029042 211.386831 189.769482 
Q 211.386831 190.506859 213.08459 190.928655 
Q 214.786962 191.349429 217.758039 191.349429 
Q 219.414277 191.349429 220.913656 191.241171 
Q 222.413035 191.131893 223.958549 190.899037 
L 223.958549 191.88561 
z
" clip-path="url(#pc01896d788)" style="fill: #0000ff"/>
   </g>
   <g id="patch_28">
    <path d="M 205.647668 180.611478 
L 223.958549 180.611478 
L 223.958549 181.915127 
L 217.37089 181.915127 
L 217.37089 187.295901 
L 212.248102 187.295901 
L 212.248102 181.915127 
L 205.647668 181.915127 
L 205.647668 180.611478 
z
" clip-path="url(#pc01896d788)" style="fill: #ff0000"/>
   </g>
   <g id="patch_29">
    <path d="M 223.958549 179.634514 
Q 222.111867 180.122996 220.125658 180.368352 
Q 218.139448 180.611478 216.021919 180.611478 
Q 211.23696 180.611478 208.442314 179.157184 
Q 205.647668 177.70289 205.647668 175.215868 
Q 205.647668 172.699849 208.491559 171.256707 
Q 211.339554 169.813565 216.292766 169.813565 
Q 218.201004 169.813565 219.949197 170.00985 
Q 221.701493 170.203905 223.252706 170.587553 
L 223.252706 172.739998 
Q 221.652248 172.247055 220.068205 172.003929 
Q 218.484162 171.758573 216.891912 171.758573 
Q 213.945427 171.758573 212.349073 172.655239 
Q 210.752719 173.549674 210.752719 175.215868 
Q 210.752719 176.866447 212.291621 177.767574 
Q 213.830523 178.666471 216.662102 178.666471 
Q 217.433605 178.666471 218.094307 178.615169 
Q 218.755009 178.561637 219.280287 178.450111 
L 219.280287 176.429267 
L 216.26404 176.429267 
L 216.26404 174.629243 
L 223.958549 174.629243 
L 223.958549 179.634514 
z
" clip-path="url(#pc01896d788)" style="fill: #ffa600"/>
   </g>
   <g id="patch_30">
    <path d="M 218.331632 156.116312 
L 211.289561 156.116312 
L 210.177655 169.813565 
L 205.647668 169.813565 
L 212.116939 94.623702 
L 217.489279 94.623702 
L 223.958549 169.813565 
L 219.432306 169.813565 
L 218.331632 156.116312 
z
M 212.412698 142.161228 
L 217.197263 142.161228 
L 214.808724 112.252873 
L 212.412698 142.161228 
z
" clip-path="url(#pc01896d788)" style="fill: #008000"/>
   </g>
   <g id="patch_31">
    <path d="M 243.233161 191.966498 
Q 241.386478 192.103249 239.400269 192.171937 
Q 237.41406 192.24 235.296531 192.24 
Q 230.511572 192.24 227.716926 191.832869 
Q 224.92228 191.425737 224.92228 190.729493 
Q 224.92228 190.025131 227.766171 189.621121 
Q 230.614165 189.217112 235.567377 189.217112 
Q 237.475616 189.217112 239.223808 189.272062 
Q 240.976104 189.326388 242.527318 189.433791 
L 242.527318 190.03637 
Q 240.92686 189.89837 239.342817 189.830307 
Q 237.758774 189.761619 236.166523 189.761619 
Q 233.220039 189.761619 231.623685 190.012642 
Q 230.02733 190.26304 230.02733 190.729493 
Q 230.02733 191.191574 231.566232 191.443846 
Q 233.105134 191.695493 235.936714 191.695493 
Q 236.708217 191.695493 237.368918 191.681131 
Q 238.02962 191.666145 238.554899 191.634923 
L 238.554899 191.069185 
L 235.538651 191.069185 
L 235.538651 190.565266 
L 243.233161 190.565266 
L 243.233161 191.966498 
z
" clip-path="url(#pc01896d788)" style="fill: #ffa600"/>
   </g>
   <g id="patch_32">
    <path d="M 224.92228 184.84188 
L 243.233161 184.84188 
L 243.233161 185.695172 
L 236.645502 185.695172 
L 236.645502 189.217112 
L 231.522714 189.217112 
L 231.522714 185.695172 
L 224.92228 185.695172 
L 224.92228 184.84188 
z
" clip-path="url(#pc01896d788)" style="fill: #ff0000"/>
   </g>
   <g id="patch_33">
    <path d="M 243.233161 184.491202 
Q 241.701487 184.665025 240.04525 184.752947 
Q 238.389012 184.84188 236.585144 184.84188 
Q 231.205832 184.84188 228.064056 184.18297 
Q 224.92228 183.52406 224.92228 182.397243 
Q 224.92228 181.266384 228.064056 180.608484 
Q 231.205832 179.949574 236.585144 179.949574 
Q 238.389012 179.949574 240.04525 180.038507 
Q 241.701487 180.126429 243.233161 180.300252 
L 243.233161 181.275479 
Q 241.687647 181.045063 240.188267 180.937939 
Q 238.688888 180.830816 237.032651 180.830816 
Q 234.061573 180.830816 232.359201 181.248193 
Q 230.661442 181.664559 230.661442 182.397243 
Q 230.661442 183.126895 232.359201 183.544272 
Q 234.061573 183.960638 237.032651 183.960638 
Q 238.688888 183.960638 240.188267 183.853515 
Q 241.687647 183.745381 243.233161 183.514964 
L 243.233161 184.491202 
z
" clip-path="url(#pc01896d788)" style="fill: #0000ff"/>
   </g>
   <g id="patch_34">
    <path d="M 237.606243 177.717887 
L 230.564173 177.717887 
L 229.452267 179.949574 
L 224.92228 179.949574 
L 231.39155 167.698924 
L 236.76389 167.698924 
L 243.233161 179.949574 
L 238.706918 179.949574 
L 237.606243 177.717887 
z
M 231.68731 175.444192 
L 236.471874 175.444192 
L 234.083336 170.571237 
L 231.68731 175.444192 
z
" clip-path="url(#pc01896d788)" style="fill: #008000"/>
   </g>
   <g id="patch_35">
    <path d="M 262.507772 192.112918 
Q 260.66109 192.176459 258.67488 192.208375 
Q 256.688671 192.24 254.571142 192.24 
Q 249.786183 192.24 246.991537 192.050828 
Q 244.196891 191.861656 244.196891 191.538148 
Q 244.196891 191.210869 247.040782 191.023147 
Q 249.888776 190.835426 254.841989 190.835426 
Q 256.750227 190.835426 258.49842 190.860958 
Q 260.250716 190.886201 261.801929 190.936105 
L 261.801929 191.216091 
Q 260.201471 191.15197 258.617428 191.120345 
Q 257.033385 191.088429 255.441134 191.088429 
Q 252.49465 191.088429 250.898296 191.205066 
Q 249.301942 191.321413 249.301942 191.538148 
Q 249.301942 191.752853 250.840844 191.87007 
Q 252.379746 191.986997 255.211325 191.986997 
Q 255.982828 191.986997 256.64353 191.980324 
Q 257.304232 191.97336 257.82951 191.958853 
L 257.82951 191.695985 
L 254.813262 191.695985 
L 254.813262 191.461841 
L 262.507772 191.461841 
L 262.507772 192.112918 
z
" clip-path="url(#pc01896d788)" style="fill: #ffa600"/>
   </g>
   <g id="patch_36">
    <path d="M 262.507772 190.675598 
Q 260.976098 190.754821 259.319861 190.794893 
Q 257.663624 190.835426 255.859755 190.835426 
Q 250.480444 190.835426 247.338667 190.535115 
Q 244.196891 190.234804 244.196891 189.721236 
Q 244.196891 189.205825 247.338667 188.905975 
Q 250.480444 188.605665 255.859755 188.605665 
Q 257.663624 188.605665 259.319861 188.646197 
Q 260.976098 188.686269 262.507772 188.765493 
L 262.507772 189.209971 
Q 260.962258 189.104954 259.462879 189.056131 
Q 257.9635 189.007307 256.307262 189.007307 
Q 253.336184 189.007307 251.633812 189.197535 
Q 249.936054 189.387302 249.936054 189.721236 
Q 249.936054 190.053789 251.633812 190.244016 
Q 253.336184 190.433783 256.307262 190.433783 
Q 257.9635 190.433783 259.462879 190.38496 
Q 260.962258 190.335676 262.507772 190.230659 
L 262.507772 190.675598 
z
" clip-path="url(#pc01896d788)" style="fill: #0000ff"/>
   </g>
   <g id="patch_37">
    <path d="M 256.880854 188.017164 
L 249.838784 188.017164 
L 248.726878 188.605665 
L 244.196891 188.605665 
L 250.666162 185.375144 
L 256.038502 185.375144 
L 262.507772 188.605665 
L 257.981529 188.605665 
L 256.880854 188.017164 
z
M 250.961921 187.417586 
L 255.746486 187.417586 
L 253.357947 186.132579 
L 250.961921 187.417586 
z
" clip-path="url(#pc01896d788)" style="fill: #008000"/>
   </g>
   <g id="patch_38">
    <path d="M 244.196891 181.407222 
L 262.507772 181.407222 
L 262.507772 182.181078 
L 255.920113 182.181078 
L 255.920113 185.375144 
L 250.797325 185.375144 
L 250.797325 182.181078 
L 244.196891 182.181078 
L 244.196891 181.407222 
z
" clip-path="url(#pc01896d788)" style="fill: #ff0000"/>
   </g>
   <g id="patch_39">
    <path d="M 281.782383 192.107281 
Q 279.935701 192.173641 277.949492 192.206972 
Q 275.963282 192.24 273.845753 192.24 
Q 269.060794 192.24 266.266148 192.042437 
Q 263.471503 191.844874 263.471503 191.507016 
Q 263.471503 191.16522 266.315393 190.969171 
Q 269.163388 190.773123 274.1166 190.773123 
Q 276.024838 190.773123 277.773031 190.799788 
Q 279.525327 190.82615 281.07654 190.878268 
L 281.07654 191.170674 
Q 279.476082 191.103708 277.892039 191.07068 
Q 276.307996 191.037349 274.715746 191.037349 
Q 271.769262 191.037349 270.172907 191.159159 
Q 268.576553 191.280667 268.576553 191.507016 
Q 268.576553 191.731244 270.115455 191.853661 
Q 271.654357 191.975774 274.485937 191.975774 
Q 275.257439 191.975774 275.918141 191.968805 
Q 276.578843 191.961533 277.104122 191.946382 
L 277.104122 191.671854 
L 274.087874 191.671854 
L 274.087874 191.427324 
L 281.782383 191.427324 
L 281.782383 192.107281 
z
" clip-path="url(#pc01896d788)" style="fill: #ffa600"/>
   </g>
   <g id="patch_40">
    <path d="M 281.782383 190.505806 
Q 280.25071 190.638309 278.594472 190.705331 
Q 276.938235 190.773123 275.134366 190.773123 
Q 269.755055 190.773123 266.613279 190.270844 
Q 263.471503 189.768564 263.471503 188.909605 
Q 263.471503 188.047564 266.613279 187.546055 
Q 269.755055 187.043775 275.134366 187.043775 
Q 276.938235 187.043775 278.594472 187.111568 
Q 280.25071 187.17859 281.782383 187.311093 
L 281.782383 188.054497 
Q 280.236869 187.878853 278.73749 187.797194 
Q 277.238111 187.715536 275.581874 187.715536 
Q 272.610796 187.715536 270.908424 188.033697 
Q 269.210665 188.351089 269.210665 188.909605 
Q 269.210665 189.46581 270.908424 189.783972 
Q 272.610796 190.101363 275.581874 190.101363 
Q 277.238111 190.101363 278.73749 190.019704 
Q 280.236869 189.937275 281.782383 189.761631 
L 281.782383 190.505806 
z
" clip-path="url(#pc01896d788)" style="fill: #0000ff"/>
   </g>
   <g id="patch_41">
    <path d="M 263.471503 182.817181 
L 281.782383 182.817181 
L 281.782383 183.641485 
L 275.194725 183.641485 
L 275.194725 187.043775 
L 270.071936 187.043775 
L 270.071936 183.641485 
L 263.471503 183.641485 
L 263.471503 182.817181 
z
" clip-path="url(#pc01896d788)" style="fill: #ff0000"/>
   </g>
   <g id="patch_42">
    <path d="M 276.155466 181.739246 
L 269.113395 181.739246 
L 268.001489 182.817181 
L 263.471503 182.817181 
L 269.940773 176.899949 
L 275.313113 176.899949 
L 281.782383 182.817181 
L 277.25614 182.817181 
L 276.155466 181.739246 
z
M 270.236533 180.64102 
L 275.021097 180.64102 
L 272.632559 178.287316 
L 270.236533 180.64102 
z
" clip-path="url(#pc01896d788)" style="fill: #008000"/>
   </g>
   <g id="patch_43">
    <path d="M 301.056995 192.013775 
Q 299.525321 192.125909 297.869084 192.182629 
Q 296.212846 192.24 294.408978 192.24 
Q 289.029666 192.24 285.88789 191.814931 
Q 282.746114 191.389862 282.746114 190.662942 
Q 282.746114 189.933415 285.88789 189.508998 
Q 289.029666 189.083929 294.408978 189.083929 
Q 296.212846 189.083929 297.869084 189.1413 
Q 299.525321 189.198019 301.056995 189.310154 
L 301.056995 189.939282 
Q 299.511481 189.790638 298.012102 189.721532 
Q 296.512722 189.652426 294.856485 189.652426 
Q 291.885407 189.652426 290.183035 189.92168 
Q 288.485276 190.190281 288.485276 190.662942 
Q 288.485276 191.133647 290.183035 191.402901 
Q 291.885407 191.671503 294.856485 191.671503 
Q 296.512722 191.671503 298.012102 191.602397 
Q 299.511481 191.532638 301.056995 191.383995 
L 301.056995 192.013775 
z
" clip-path="url(#pc01896d788)" style="fill: #0000ff"/>
   </g>
   <g id="patch_44">
    <path d="M 282.746114 184.811094 
L 301.056995 184.811094 
L 301.056995 185.644416 
L 294.469336 185.644416 
L 294.469336 189.083929 
L 289.346548 189.083929 
L 289.346548 185.644416 
L 282.746114 185.644416 
L 282.746114 184.811094 
z
" clip-path="url(#pc01896d788)" style="fill: #ff0000"/>
   </g>
   <g id="patch_45">
    <path d="M 301.056995 184.160913 
Q 299.210313 184.486004 297.224103 184.649291 
Q 295.237894 184.811094 293.120365 184.811094 
Q 288.335406 184.811094 285.54076 183.843245 
Q 282.746114 182.875396 282.746114 181.220255 
Q 282.746114 179.545817 285.590005 178.58539 
Q 288.437999 177.624963 293.391211 177.624963 
Q 295.29945 177.624963 297.047642 177.755593 
Q 298.799939 177.884739 300.351152 178.140061 
L 300.351152 179.572537 
Q 298.750694 179.244477 297.166651 179.082675 
Q 295.582608 178.919387 293.990357 178.919387 
Q 291.043873 178.919387 289.447519 179.516128 
Q 287.851165 180.111385 287.851165 181.220255 
Q 287.851165 182.318734 289.390066 182.918445 
Q 290.928968 183.51667 293.760548 183.51667 
Q 294.532051 183.51667 295.192753 183.482528 
Q 295.853455 183.446902 296.378733 183.37268 
L 296.378733 182.027786 
L 293.362485 182.027786 
L 293.362485 180.82985 
L 301.056995 180.82985 
L 301.056995 184.160913 
z
" clip-path="url(#pc01896d788)" style="fill: #ffa600"/>
   </g>
   <g id="patch_46">
    <path d="M 295.430077 174.82988 
L 288.388007 174.82988 
L 287.276101 177.624963 
L 282.746114 177.624963 
L 289.215385 162.281602 
L 294.587724 162.281602 
L 301.056995 177.624963 
L 296.530752 177.624963 
L 295.430077 174.82988 
z
M 289.511144 171.982184 
L 294.295709 171.982184 
L 291.90717 165.879038 
L 289.511144 171.982184 
z
" clip-path="url(#pc01896d788)" style="fill: #008000"/>
   </g>
   <g id="patch_47">
    <path d="M 320.331606 192.001257 
Q 318.799933 192.119597 317.143695 192.179454 
Q 315.487458 192.24 313.683589 192.24 
Q 308.304278 192.24 305.162502 191.791412 
Q 302.020725 191.342823 302.020725 190.575682 
Q 302.020725 189.805789 305.162502 189.357889 
Q 308.304278 188.9093 313.683589 188.9093 
Q 315.487458 188.9093 317.143695 188.969846 
Q 318.799933 189.029704 320.331606 189.148043 
L 320.331606 189.811981 
Q 318.786092 189.655113 317.286713 189.582183 
Q 315.787334 189.509253 314.131096 189.509253 
Q 311.160019 189.509253 309.457647 189.793405 
Q 307.759888 190.076868 307.759888 190.575682 
Q 307.759888 191.072432 309.457647 191.356584 
Q 311.160019 191.640047 314.131096 191.640047 
Q 315.787334 191.640047 317.286713 191.567117 
Q 318.786092 191.493499 320.331606 191.336631 
L 320.331606 192.001257 
z
" clip-path="url(#pc01896d788)" style="fill: #0000ff"/>
   </g>
   <g id="patch_48">
    <path d="M 320.331606 188.564001 
Q 318.484924 188.736651 316.498715 188.82337 
Q 314.512505 188.9093 312.394976 188.9093 
Q 307.610017 188.9093 304.815371 188.395293 
Q 302.020725 187.881285 302.020725 187.002269 
Q 302.020725 186.113005 304.864616 185.602939 
Q 307.712611 185.092874 312.665823 185.092874 
Q 314.574061 185.092874 316.322254 185.162249 
Q 318.07455 185.230836 319.625763 185.366433 
L 319.625763 186.127195 
Q 318.025305 185.952969 316.441262 185.867038 
Q 314.857219 185.780319 313.264969 185.780319 
Q 310.318484 185.780319 308.72213 186.097238 
Q 307.125776 186.413368 307.125776 187.002269 
Q 307.125776 187.585652 308.664678 187.904148 
Q 310.20358 188.221855 313.035159 188.221855 
Q 313.806662 188.221855 314.467364 188.203723 
Q 315.128066 188.184802 315.653344 188.145384 
L 315.653344 187.431135 
L 312.637097 187.431135 
L 312.637097 186.794932 
L 320.331606 186.794932 
L 320.331606 188.564001 
z
" clip-path="url(#pc01896d788)" style="fill: #ffa600"/>
   </g>
   <g id="patch_49">
    <path d="M 302.020725 171.492516 
L 320.331606 171.492516 
L 320.331606 174.144965 
L 313.743947 174.144965 
L 313.743947 185.092874 
L 308.621159 185.092874 
L 308.621159 174.144965 
L 302.020725 174.144965 
L 302.020725 171.492516 
z
" clip-path="url(#pc01896d788)" style="fill: #ff0000"/>
   </g>
   <g id="patch_50">
    <path d="M 314.704689 167.472799 
L 307.662618 167.472799 
L 306.550712 171.492516 
L 302.020725 171.492516 
L 308.489996 149.426631 
L 313.862336 149.426631 
L 320.331606 171.492516 
L 315.805363 171.492516 
L 314.704689 167.472799 
z
M 308.785755 163.377416 
L 313.57032 163.377416 
L 311.181781 154.600244 
L 308.785755 163.377416 
z
" clip-path="url(#pc01896d788)" style="fill: #008000"/>
   </g>
   <g id="patch_51">
    <path d="M 339.606218 191.968883 
Q 337.759535 192.104442 335.773326 192.17253 
Q 333.787117 192.24 331.669588 192.24 
Q 326.884629 192.24 324.089983 191.83642 
Q 321.295337 191.43284 321.295337 190.742668 
Q 321.295337 190.04445 324.139228 189.643964 
Q 326.987222 189.243479 331.940434 189.243479 
Q 333.848673 189.243479 335.596865 189.29795 
Q 337.349161 189.351802 338.900375 189.458268 
L 338.900375 190.055591 
Q 337.299917 189.918795 335.715874 189.851325 
Q 334.131831 189.783237 332.53958 189.783237 
Q 329.593096 189.783237 327.996742 190.03207 
Q 326.400387 190.280284 326.400387 190.742668 
Q 326.400387 191.200719 327.939289 191.45079 
Q 329.478191 191.700242 332.309771 191.700242 
Q 333.081274 191.700242 333.741975 191.686006 
Q 334.402677 191.67115 334.927956 191.640201 
L 334.927956 191.079398 
L 331.911708 191.079398 
L 331.911708 190.579874 
L 339.606218 190.579874 
L 339.606218 191.968883 
z
" clip-path="url(#pc01896d788)" style="fill: #ffa600"/>
   </g>
   <g id="patch_52">
    <path d="M 339.606218 188.987561 
Q 338.074544 189.114414 336.418307 189.178578 
Q 334.762069 189.243479 332.958201 189.243479 
Q 327.578889 189.243479 324.437113 188.762618 
Q 321.295337 188.281756 321.295337 187.459424 
Q 321.295337 186.634142 324.437113 186.154018 
Q 327.578889 185.673157 332.958201 185.673157 
Q 334.762069 185.673157 336.418307 185.738058 
Q 338.074544 185.802222 339.606218 185.929075 
L 339.606218 186.64078 
Q 338.060704 186.472626 336.561324 186.394449 
Q 335.061945 186.316272 333.405708 186.316272 
Q 330.43463 186.316272 328.732258 186.620867 
Q 327.034499 186.924724 327.034499 187.459424 
Q 327.034499 187.991912 328.732258 188.296507 
Q 330.43463 188.600364 333.405708 188.600364 
Q 335.061945 188.600364 336.561324 188.522187 
Q 338.060704 188.443273 339.606218 188.275119 
L 339.606218 188.987561 
z
" clip-path="url(#pc01896d788)" style="fill: #0000ff"/>
   </g>
   <g id="patch_53">
    <path d="M 321.295337 170.371774 
L 339.606218 170.371774 
L 339.606218 173.35597 
L 333.018559 173.35597 
L 333.018559 185.673157 
L 327.895771 185.673157 
L 327.895771 173.35597 
L 321.295337 173.35597 
L 321.295337 170.371774 
z
" clip-path="url(#pc01896d788)" style="fill: #ff0000"/>
   </g>
   <g id="patch_54">
    <path d="M 333.9793 167.189452 
L 326.93723 167.189452 
L 325.825324 170.371774 
L 321.295337 170.371774 
L 327.764607 152.902696 
L 333.136947 152.902696 
L 339.606218 170.371774 
L 335.079975 170.371774 
L 333.9793 167.189452 
z
M 328.060367 163.947227 
L 332.844931 163.947227 
L 330.456393 156.998532 
L 328.060367 163.947227 
z
" clip-path="url(#pc01896d788)" style="fill: #008000"/>
   </g>
   <g id="patch_55">
    <path d="M 358.880829 192.208676 
Q 357.034147 192.224338 355.047937 192.232205 
Q 353.061728 192.24 350.944199 192.24 
Q 346.15924 192.24 343.364594 192.193372 
Q 340.569948 192.146744 340.569948 192.067005 
Q 340.569948 191.986336 343.413839 191.940066 
Q 346.261833 191.893796 351.215046 191.893796 
Q 353.123284 191.893796 354.871477 191.900089 
Q 356.623773 191.906311 358.174986 191.918611 
L 358.174986 191.987623 
Q 356.574528 191.971819 354.990485 191.964023 
Q 353.406442 191.956157 351.814191 191.956157 
Q 348.867707 191.956157 347.271353 191.984906 
Q 345.674999 192.013583 345.674999 192.067005 
Q 345.674999 192.119926 347.213901 192.148818 
Q 348.752803 192.177639 351.584382 192.177639 
Q 352.355885 192.177639 353.016587 192.175994 
Q 353.677289 192.174278 354.202567 192.170702 
L 354.202567 192.105909 
L 351.186319 192.105909 
L 351.186319 192.048197 
L 358.880829 192.048197 
L 358.880829 192.208676 
z
" clip-path="url(#pc01896d788)" style="fill: #ffa600"/>
   </g>
   <g id="patch_56">
    <path d="M 353.253911 191.827505 
L 346.211841 191.827505 
L 345.099935 191.893796 
L 340.569948 191.893796 
L 347.039219 191.529902 
L 352.411559 191.529902 
L 358.880829 191.893796 
L 354.354586 191.893796 
L 353.253911 191.827505 
z
M 347.334978 191.759968 
L 352.119543 191.759968 
L 349.731004 191.615221 
L 347.334978 191.759968 
z
" clip-path="url(#pc01896d788)" style="fill: #008000"/>
   </g>
   <g id="patch_57">
    <path d="M 358.880829 191.503818 
Q 357.349155 191.516747 355.692918 191.523287 
Q 354.036681 191.529902 352.232812 191.529902 
Q 346.853501 191.529902 343.711724 191.480892 
Q 340.569948 191.431881 340.569948 191.348068 
Q 340.569948 191.263954 343.711724 191.215018 
Q 346.853501 191.166008 352.232812 191.166008 
Q 354.036681 191.166008 355.692918 191.172623 
Q 357.349155 191.179163 358.880829 191.192092 
L 358.880829 191.26463 
Q 357.335315 191.247491 355.835936 191.239524 
Q 354.336556 191.231556 352.680319 191.231556 
Q 349.709241 191.231556 348.006869 191.2626 
Q 346.309111 191.29357 346.309111 191.348068 
Q 346.309111 191.40234 348.006869 191.433385 
Q 349.709241 191.464354 352.680319 191.464354 
Q 354.336556 191.464354 355.835936 191.456386 
Q 357.335315 191.448343 358.880829 191.431205 
L 358.880829 191.503818 
z
" clip-path="url(#pc01896d788)" style="fill: #0000ff"/>
   </g>
   <g id="patch_58">
    <path d="M 340.569948 190.680817 
L 358.880829 190.680817 
L 358.880829 190.775442 
L 352.29317 190.775442 
L 352.29317 191.166008 
L 347.170382 191.166008 
L 347.170382 190.775442 
L 340.569948 190.775442 
L 340.569948 190.680817 
z
" clip-path="url(#pc01896d788)" style="fill: #ff0000"/>
   </g>
   <g id="patch_59">
    <path d="M 378.15544 191.928484 
Q 376.308758 192.084242 374.322549 192.162477 
Q 372.336339 192.24 370.21881 192.24 
Q 365.433851 192.24 362.639205 191.776282 
Q 359.84456 191.312564 359.84456 190.51955 
Q 359.84456 189.71729 362.68845 189.257128 
Q 365.536445 188.796966 370.489657 188.796966 
Q 372.397895 188.796966 374.146088 188.859554 
Q 375.898384 188.92143 377.449597 189.043761 
L 377.449597 189.730092 
Q 375.849139 189.572911 374.265096 189.495388 
Q 372.681053 189.417153 371.088803 189.417153 
Q 368.142319 189.417153 366.545964 189.703065 
Q 364.94961 189.988266 364.94961 190.51955 
Q 364.94961 191.045855 366.488512 191.33319 
Q 368.027414 191.619813 370.858994 191.619813 
Q 371.630496 191.619813 372.291198 191.603455 
Q 372.9519 191.586385 373.477179 191.550824 
L 373.477179 190.906456 
L 370.460931 190.906456 
L 370.460931 190.332498 
L 378.15544 190.332498 
L 378.15544 191.928484 
z
" clip-path="url(#pc01896d788)" style="fill: #ffa600"/>
   </g>
   <g id="patch_60">
    <path d="M 378.15544 188.325813 
Q 376.623767 188.559353 374.967529 188.677481 
Q 373.311292 188.796966 371.507423 188.796966 
Q 366.128112 188.796966 362.986336 187.911687 
Q 359.84456 187.026407 359.84456 185.512471 
Q 359.84456 183.993103 362.986336 183.109181 
Q 366.128112 182.223902 371.507423 182.223902 
Q 373.311292 182.223902 374.967529 182.343387 
Q 376.623767 182.461515 378.15544 182.695055 
L 378.15544 184.005323 
Q 376.609926 183.695747 375.110547 183.551821 
Q 373.611168 183.407895 371.954931 183.407895 
Q 368.983853 183.407895 367.281481 183.968663 
Q 365.583722 184.528072 365.583722 185.512471 
Q 365.583722 186.492795 367.281481 187.053563 
Q 368.983853 187.612973 371.954931 187.612973 
Q 373.611168 187.612973 375.110547 187.469047 
Q 376.609926 187.323763 378.15544 187.014187 
L 378.15544 188.325813 
z
" clip-path="url(#pc01896d788)" style="fill: #0000ff"/>
   </g>
   <g id="patch_61">
    <path d="M 372.528523 180.980878 
L 365.486452 180.980878 
L 364.374546 182.223902 
L 359.84456 182.223902 
L 366.31383 175.400434 
L 371.68617 175.400434 
L 378.15544 182.223902 
L 373.629197 182.223902 
L 372.528523 180.980878 
z
M 366.60959 179.714457 
L 371.394154 179.714457 
L 369.005616 177.000279 
L 366.60959 179.714457 
z
" clip-path="url(#pc01896d788)" style="fill: #008000"/>
   </g>
   <g id="patch_62">
    <path d="M 359.84456 153.61542 
L 378.15544 153.61542 
L 378.15544 157.864105 
L 371.567782 157.864105 
L 371.567782 175.400434 
L 366.444993 175.400434 
L 366.444993 157.864105 
L 359.84456 157.864105 
L 359.84456 153.61542 
z
" clip-path="url(#pc01896d788)" style="fill: #ff0000"/>
   </g>
   <g id="patch_63">
    <path d="M 397.430052 191.895663 
Q 395.898378 192.066343 394.242141 192.152675 
Q 392.585903 192.24 390.782035 192.24 
Q 385.402723 192.24 382.260947 191.593003 
Q 379.119171 190.946006 379.119171 189.839562 
Q 379.119171 188.729149 382.260947 188.083145 
Q 385.402723 187.436148 390.782035 187.436148 
Q 392.585903 187.436148 394.242141 187.523473 
Q 395.898378 187.609805 397.430052 187.780485 
L 397.430052 188.73808 
Q 395.884538 188.51183 394.385159 188.406643 
Q 392.885779 188.301456 391.229542 188.301456 
Q 388.258464 188.301456 386.556092 188.711287 
Q 384.858333 189.120126 384.858333 189.839562 
Q 384.858333 190.556022 386.556092 190.965853 
Q 388.258464 191.374691 391.229542 191.374691 
Q 392.885779 191.374691 394.385159 191.269505 
Q 395.884538 191.163326 397.430052 190.937075 
L 397.430052 191.895663 
z
" clip-path="url(#pc01896d788)" style="fill: #0000ff"/>
   </g>
   <g id="patch_64">
    <path d="M 397.430052 186.95397 
Q 395.58337 187.195059 393.59716 187.316154 
Q 391.610951 187.436148 389.493422 187.436148 
Q 384.708463 187.436148 381.913817 186.718386 
Q 379.119171 186.000624 379.119171 184.773162 
Q 379.119171 183.53139 381.963062 182.819132 
Q 384.811056 182.106874 389.764268 182.106874 
Q 391.672507 182.106874 393.420699 182.20375 
Q 395.172996 182.299525 396.724209 182.488873 
L 396.724209 183.551205 
Q 395.123751 183.307915 393.539708 183.187921 
Q 391.955665 183.066826 390.363414 183.066826 
Q 387.41693 183.066826 385.820576 183.509373 
Q 384.224222 183.950818 384.224222 184.773162 
Q 384.224222 185.5878 385.763123 186.032549 
Q 387.302025 186.476196 390.133605 186.476196 
Q 390.905108 186.476196 391.56581 186.450876 
Q 392.226511 186.424456 392.75179 186.369412 
L 392.75179 185.372031 
L 389.735542 185.372031 
L 389.735542 184.483636 
L 397.430052 184.483636 
L 397.430052 186.95397 
z
" clip-path="url(#pc01896d788)" style="fill: #ffa600"/>
   </g>
   <g id="patch_65">
    <path d="M 391.803134 180.589101 
L 384.761064 180.589101 
L 383.649158 182.106874 
L 379.119171 182.106874 
L 385.588441 173.775193 
L 390.960781 173.775193 
L 397.430052 182.106874 
L 392.903809 182.106874 
L 391.803134 180.589101 
z
M 385.884201 179.042758 
L 390.668766 179.042758 
L 388.280227 175.728656 
L 385.884201 179.042758 
z
" clip-path="url(#pc01896d788)" style="fill: #008000"/>
   </g>
   <g id="patch_66">
    <path d="M 379.119171 145.927863 
L 397.430052 145.927863 
L 397.430052 151.358868 
L 390.842393 151.358868 
L 390.842393 173.775193 
L 385.719605 173.775193 
L 385.719605 151.358868 
L 379.119171 151.358868 
L 379.119171 145.927863 
z
" clip-path="url(#pc01896d788)" style="fill: #ff0000"/>
   </g>
   <g id="patch_67">
    <path d="M 416.704663 191.965649 
Q 414.857981 192.102825 412.871772 192.171726 
Q 410.885562 192.24 408.768033 192.24 
Q 403.983074 192.24 401.188428 191.831606 
Q 398.393782 191.423212 398.393782 190.724808 
Q 398.393782 190.018261 401.237673 189.612999 
Q 404.085668 189.207736 409.03888 189.207736 
Q 410.947118 189.207736 412.695311 189.262857 
Q 414.447607 189.317351 415.99882 189.425087 
L 415.99882 190.029536 
Q 414.398362 189.891107 412.814319 189.822833 
Q 411.230276 189.753932 409.638026 189.753932 
Q 406.691541 189.753932 405.095187 190.005733 
Q 403.498833 190.256908 403.498833 190.724808 
Q 403.498833 191.188323 405.037735 191.441377 
Q 406.576637 191.693804 409.408216 191.693804 
Q 410.179719 191.693804 410.840421 191.679398 
Q 411.501123 191.664365 412.026401 191.633046 
L 412.026401 191.065554 
L 409.010154 191.065554 
L 409.010154 190.560072 
L 416.704663 190.560072 
L 416.704663 191.965649 
z
" clip-path="url(#pc01896d788)" style="fill: #ffa600"/>
   </g>
   <g id="patch_68">
    <path d="M 411.077746 188.574336 
L 404.035675 188.574336 
L 402.923769 189.207736 
L 398.393782 189.207736 
L 404.863053 185.730741 
L 410.235393 185.730741 
L 416.704663 189.207736 
L 412.17842 189.207736 
L 411.077746 188.574336 
z
M 405.158812 187.929013 
L 409.943377 187.929013 
L 407.554838 186.545964 
L 405.158812 187.929013 
z
" clip-path="url(#pc01896d788)" style="fill: #008000"/>
   </g>
   <g id="patch_69">
    <path d="M 416.704663 185.272855 
Q 415.17299 185.499818 413.516752 185.61462 
Q 411.860515 185.730741 410.056646 185.730741 
Q 404.677335 185.730741 401.535559 184.87039 
Q 398.393782 184.01004 398.393782 182.538735 
Q 398.393782 181.062153 401.535559 180.203122 
Q 404.677335 179.342772 410.056646 179.342772 
Q 411.860515 179.342772 413.516752 179.458893 
Q 415.17299 179.573694 416.704663 179.800658 
L 416.704663 181.074029 
Q 415.159149 180.77317 413.65977 180.633297 
Q 412.160391 180.493424 410.504153 180.493424 
Q 407.533076 180.493424 405.830703 181.038401 
Q 404.132945 181.582058 404.132945 182.538735 
Q 404.132945 183.491455 405.830703 184.036431 
Q 407.533076 184.580088 410.504153 184.580088 
Q 412.160391 184.580088 413.65977 184.440215 
Q 415.159149 184.299023 416.704663 183.998164 
L 416.704663 185.272855 
z
" clip-path="url(#pc01896d788)" style="fill: #0000ff"/>
   </g>
   <g id="patch_70">
    <path d="M 398.393782 167.294577 
L 416.704663 167.294577 
L 416.704663 169.644311 
L 410.117004 169.644311 
L 410.117004 179.342772 
L 404.994216 179.342772 
L 404.994216 169.644311 
L 398.393782 169.644311 
L 398.393782 167.294577 
z
" clip-path="url(#pc01896d788)" style="fill: #ff0000"/>
   </g>
   <g id="patch_71">
    <path d="M 435.979275 192.022203 
Q 434.132592 192.131102 432.146383 192.185799 
Q 430.160174 192.24 428.042645 192.24 
Q 423.257686 192.24 420.46304 191.915791 
Q 417.668394 191.591583 417.668394 191.037146 
Q 417.668394 190.476245 420.512285 190.154523 
Q 423.360279 189.832801 428.313491 189.832801 
Q 430.22173 189.832801 431.969922 189.876559 
Q 433.722218 189.91982 435.273432 190.005347 
L 435.273432 190.485196 
Q 433.672974 190.375303 432.088931 190.321103 
Q 430.504888 190.266405 428.912637 190.266405 
Q 425.966153 190.266405 424.369799 190.4663 
Q 422.773444 190.665699 422.773444 191.037146 
Q 422.773444 191.405113 424.312346 191.606003 
Q 425.851248 191.806396 428.682828 191.806396 
Q 429.454331 191.806396 430.115032 191.794959 
Q 430.775734 191.783025 431.301013 191.758162 
L 431.301013 191.307652 
L 428.284765 191.307652 
L 428.284765 190.906369 
L 435.979275 190.906369 
L 435.979275 192.022203 
z
" clip-path="url(#pc01896d788)" style="fill: #ffa600"/>
   </g>
   <g id="patch_72">
    <path d="M 430.352357 189.265652 
L 423.310287 189.265652 
L 422.198381 189.832801 
L 417.668394 189.832801 
L 424.137664 186.71949 
L 429.510004 186.71949 
L 435.979275 189.832801 
L 431.453032 189.832801 
L 430.352357 189.265652 
z
M 424.433424 188.687828 
L 429.217988 188.687828 
L 426.82945 187.449443 
L 424.433424 188.687828 
z
" clip-path="url(#pc01896d788)" style="fill: #008000"/>
   </g>
   <g id="patch_73">
    <path d="M 435.979275 186.326083 
Q 434.447601 186.521086 432.791364 186.619721 
Q 431.135126 186.71949 429.331258 186.71949 
Q 423.951946 186.71949 420.81017 185.980294 
Q 417.668394 185.241098 417.668394 183.976983 
Q 417.668394 182.708333 420.81017 181.970271 
Q 423.951946 181.231075 429.331258 181.231075 
Q 431.135126 181.231075 432.791364 181.330844 
Q 434.447601 181.429479 435.979275 181.624482 
L 435.979275 182.718537 
Q 434.433761 182.460045 432.934381 182.339869 
Q 431.435002 182.219693 429.778765 182.219693 
Q 426.807687 182.219693 425.105315 182.687926 
Q 423.407556 183.155025 423.407556 183.976983 
Q 423.407556 184.79554 425.105315 185.263773 
Q 426.807687 185.730872 429.778765 185.730872 
Q 431.435002 185.730872 432.934381 185.610696 
Q 434.433761 185.489387 435.979275 185.230895 
L 435.979275 186.326083 
z
" clip-path="url(#pc01896d788)" style="fill: #0000ff"/>
   </g>
   <g id="patch_74">
    <path d="M 417.668394 172.436774 
L 435.979275 172.436774 
L 435.979275 174.151908 
L 429.391616 174.151908 
L 429.391616 181.231075 
L 424.268828 181.231075 
L 424.268828 174.151908 
L 417.668394 174.151908 
L 417.668394 172.436774 
z
" clip-path="url(#pc01896d788)" style="fill: #ff0000"/>
   </g>
   <g id="patch_75">
    <path d="M 436.943005 191.508814 
L 455.253886 191.508814 
L 455.253886 191.651416 
L 448.666227 191.651416 
L 448.666227 192.24 
L 443.543439 192.24 
L 443.543439 191.651416 
L 436.943005 191.651416 
L 436.943005 191.508814 
z
" clip-path="url(#pc01896d788)" style="fill: #ff0000"/>
   </g>
   <g id="patch_76">
    <path d="M 455.253886 190.913413 
Q 453.407204 191.211114 451.420994 191.360644 
Q 449.434785 191.508814 447.317256 191.508814 
Q 442.532297 191.508814 439.737651 190.62251 
Q 436.943005 189.736205 436.943005 188.220516 
Q 436.943005 186.687155 439.786896 185.807648 
Q 442.63489 184.92814 447.588103 184.92814 
Q 449.496341 184.92814 451.244534 185.047764 
Q 452.99683 185.166029 454.548043 185.399839 
L 454.548043 186.711624 
Q 452.947585 186.411205 451.363542 186.263034 
Q 449.779499 186.113504 448.187248 186.113504 
Q 445.240764 186.113504 443.64441 186.659968 
Q 442.048056 187.205072 442.048056 188.220516 
Q 442.048056 189.226444 443.586958 189.775627 
Q 445.12586 190.32345 447.957439 190.32345 
Q 448.728942 190.32345 449.389644 190.292185 
Q 450.050346 190.25956 450.575624 190.191592 
L 450.575624 188.960009 
L 447.559376 188.960009 
L 447.559376 187.863004 
L 455.253886 187.863004 
L 455.253886 190.913413 
z
" clip-path="url(#pc01896d788)" style="fill: #ffa600"/>
   </g>
   <g id="patch_77">
    <path d="M 455.253886 184.211857 
Q 453.722212 184.566902 452.065975 184.746489 
Q 450.409738 184.92814 448.605869 184.92814 
Q 443.226558 184.92814 440.084781 183.582271 
Q 436.943005 182.236401 436.943005 179.934799 
Q 436.943005 177.62494 440.084781 176.281135 
Q 443.226558 174.935265 448.605869 174.935265 
Q 450.409738 174.935265 452.065975 175.116916 
Q 453.722212 175.296503 455.253886 175.651549 
L 455.253886 177.643518 
Q 453.708372 177.172877 452.208993 176.95407 
Q 450.709613 176.735262 449.053376 176.735262 
Q 446.082298 176.735262 444.379926 177.587784 
Q 442.682168 178.438242 442.682168 179.934799 
Q 442.682168 181.425164 444.379926 182.277685 
Q 446.082298 183.128143 449.053376 183.128143 
Q 450.709613 183.128143 452.208993 182.909336 
Q 453.708372 182.688465 455.253886 182.217823 
L 455.253886 184.211857 
z
" clip-path="url(#pc01896d788)" style="fill: #0000ff"/>
   </g>
   <g id="patch_78">
    <path d="M 449.626968 150.692987 
L 442.584898 150.692987 
L 441.472992 174.935265 
L 436.943005 174.935265 
L 443.412276 41.859417 
L 448.784615 41.859417 
L 455.253886 174.935265 
L 450.727643 174.935265 
L 449.626968 150.692987 
z
M 443.708035 125.994383 
L 448.4926 125.994383 
L 446.104061 73.060655 
L 443.708035 125.994383 
z
" clip-path="url(#pc01896d788)" style="fill: #008000"/>
   </g>
   <g id="patch_79">
    <path d="M 474.528497 191.882874 
Q 472.996824 192.059893 471.340586 192.149432 
Q 469.684349 192.24 467.88048 192.24 
Q 462.501169 192.24 459.359393 191.568974 
Q 456.217617 190.897948 456.217617 189.750411 
Q 456.217617 188.598758 459.359393 187.928761 
Q 462.501169 187.257735 467.88048 187.257735 
Q 469.684349 187.257735 471.340586 187.348303 
Q 472.996824 187.437841 474.528497 187.614861 
L 474.528497 188.60802 
Q 472.982983 188.373367 471.483604 188.264274 
Q 469.984225 188.155181 468.327987 188.155181 
Q 465.35691 188.155181 463.654538 188.580232 
Q 461.956779 189.004255 461.956779 189.750411 
Q 461.956779 190.49348 463.654538 190.918532 
Q 465.35691 191.342554 468.327987 191.342554 
Q 469.984225 191.342554 471.483604 191.233461 
Q 472.982983 191.123339 474.528497 190.888685 
L 474.528497 191.882874 
z
" clip-path="url(#pc01896d788)" style="fill: #0000ff"/>
   </g>
   <g id="patch_80">
    <path d="M 456.217617 181.369603 
L 474.528497 181.369603 
L 474.528497 182.517953 
L 467.940839 182.517953 
L 467.940839 187.257735 
L 462.81805 187.257735 
L 462.81805 182.517953 
L 456.217617 182.517953 
L 456.217617 181.369603 
z
" clip-path="url(#pc01896d788)" style="fill: #ff0000"/>
   </g>
   <g id="patch_81">
    <path d="M 474.528497 180.754901 
Q 472.681815 181.062252 470.695606 181.216629 
Q 468.709396 181.369603 466.591867 181.369603 
Q 461.806908 181.369603 459.012262 180.454568 
Q 456.217617 179.539532 456.217617 177.974709 
Q 456.217617 176.391642 459.061507 175.483623 
Q 461.909502 174.575605 466.862714 174.575605 
Q 468.770952 174.575605 470.519145 174.699107 
Q 472.271441 174.821205 473.822654 175.062595 
L 473.822654 176.416903 
Q 472.222196 176.106746 470.638153 175.953772 
Q 469.05411 175.799395 467.46186 175.799395 
Q 464.515376 175.799395 462.919021 176.363573 
Q 461.322667 176.926348 461.322667 177.974709 
Q 461.322667 179.013246 462.861569 179.580232 
Q 464.400471 180.145813 467.23205 180.145813 
Q 468.003553 180.145813 468.664255 180.113534 
Q 469.324957 180.079852 469.850236 180.009681 
L 469.850236 178.738174 
L 466.833988 178.738174 
L 466.833988 177.605607 
L 474.528497 177.605607 
L 474.528497 180.754901 
z
" clip-path="url(#pc01896d788)" style="fill: #ffa600"/>
   </g>
   <g id="patch_82">
    <path d="M 468.90158 152.33907 
L 461.859509 152.33907 
L 460.747603 174.575605 
L 456.217617 174.575605 
L 462.686887 52.510106 
L 468.059227 52.510106 
L 474.528497 174.575605 
L 470.002254 174.575605 
L 468.90158 152.33907 
z
M 462.982647 129.683964 
L 467.767211 129.683964 
L 465.378673 81.129835 
L 462.982647 129.683964 
z
" clip-path="url(#pc01896d788)" style="fill: #008000"/>
   </g>
   <g id="patch_83">
    <path d="M 475.492228 191.431313 
L 493.803109 191.431313 
L 493.803109 191.589029 
L 487.21545 191.589029 
L 487.21545 192.24 
L 482.092662 192.24 
L 482.092662 191.589029 
L 475.492228 191.589029 
L 475.492228 191.431313 
z
" clip-path="url(#pc01896d788)" style="fill: #ff0000"/>
   </g>
   <g id="patch_84">
    <path d="M 493.803109 190.919139 
Q 491.956427 191.175226 489.970217 191.303854 
Q 487.984008 191.431313 485.866479 191.431313 
Q 481.08152 191.431313 478.286874 190.668898 
Q 475.492228 189.906484 475.492228 188.602662 
Q 475.492228 187.283638 478.336119 186.52707 
Q 481.184113 185.770502 486.137325 185.770502 
Q 488.045564 185.770502 489.793756 185.873405 
Q 491.546053 185.975138 493.097266 186.176266 
L 493.097266 187.304686 
Q 491.496808 187.04626 489.912765 186.918801 
Q 488.328722 186.790173 486.736471 186.790173 
Q 483.789987 186.790173 482.193633 187.260251 
Q 480.597279 187.729159 480.597279 188.602662 
Q 480.597279 189.467979 482.13618 189.940395 
Q 483.675082 190.411642 486.506662 190.411642 
Q 487.278165 190.411642 487.938867 190.384747 
Q 488.599568 190.356683 489.124847 190.298215 
L 489.124847 189.238787 
L 486.108599 189.238787 
L 486.108599 188.295123 
L 493.803109 188.295123 
L 493.803109 190.919139 
z
" clip-path="url(#pc01896d788)" style="fill: #ffa600"/>
   </g>
   <g id="patch_85">
    <path d="M 493.803109 185.268129 
Q 492.271435 185.517144 490.615198 185.643099 
Q 488.95896 185.770502 487.155092 185.770502 
Q 481.77578 185.770502 478.634004 184.826561 
Q 475.492228 183.882619 475.492228 182.268363 
Q 475.492228 180.648316 478.634004 179.705822 
Q 481.77578 178.76188 487.155092 178.76188 
Q 488.95896 178.76188 490.615198 178.889283 
Q 492.271435 179.015239 493.803109 179.264254 
L 493.803109 180.661346 
Q 492.257595 180.331256 490.758216 180.177793 
Q 489.258836 180.02433 487.602599 180.02433 
Q 484.631521 180.02433 482.929149 180.622256 
Q 481.23139 181.218734 481.23139 182.268363 
Q 481.23139 183.313648 482.929149 183.911574 
Q 484.631521 184.508053 487.602599 184.508053 
Q 489.258836 184.508053 490.758216 184.35459 
Q 492.257595 184.199679 493.803109 183.869589 
L 493.803109 185.268129 
z
" clip-path="url(#pc01896d788)" style="fill: #0000ff"/>
   </g>
   <g id="patch_86">
    <path d="M 488.176191 150.918846 
L 481.134121 150.918846 
L 480.022215 178.76188 
L 475.492228 178.76188 
L 481.961498 25.92 
L 487.333838 25.92 
L 493.803109 178.76188 
L 489.276866 178.76188 
L 488.176191 150.918846 
z
M 482.257258 122.551707 
L 487.041823 122.551707 
L 484.653284 61.755623 
L 482.257258 122.551707 
z
" clip-path="url(#pc01896d788)" style="fill: #008000"/>
   </g>
   <g id="patch_87">
    <path d="M 513.07772 191.748562 
Q 511.231038 191.994281 509.244829 192.117702 
Q 507.258619 192.24 505.14109 192.24 
Q 500.356131 192.24 497.561485 191.508453 
Q 494.766839 190.776906 494.766839 189.525871 
Q 494.766839 188.26025 497.61073 187.534313 
Q 500.458725 186.808376 505.411937 186.808376 
Q 507.320175 186.808376 509.068368 186.907113 
Q 510.820664 187.004727 512.371877 187.197712 
L 512.371877 188.280446 
Q 510.771419 188.032483 509.187376 187.910185 
Q 507.603333 187.786764 506.011083 187.786764 
Q 503.064598 187.786764 501.468244 188.23781 
Q 499.87189 188.687734 499.87189 189.525871 
Q 499.87189 190.356154 501.410792 190.809444 
Q 502.949694 191.261612 505.781273 191.261612 
Q 506.552776 191.261612 507.213478 191.235806 
Q 507.87418 191.208878 508.399458 191.152778 
L 508.399458 190.136242 
L 505.383211 190.136242 
L 505.383211 189.230784 
L 513.07772 189.230784 
L 513.07772 191.748562 
z
" clip-path="url(#pc01896d788)" style="fill: #ffa600"/>
   </g>
   <g id="patch_88">
    <path d="M 513.07772 186.402818 
Q 511.546047 186.603844 509.889809 186.705526 
Q 508.233572 186.808376 506.429703 186.808376 
Q 501.050392 186.808376 497.908616 186.046348 
Q 494.766839 185.28432 494.766839 183.981159 
Q 494.766839 182.673322 497.908616 181.912463 
Q 501.050392 181.150435 506.429703 181.150435 
Q 508.233572 181.150435 509.889809 181.253285 
Q 511.546047 181.354967 513.07772 181.555993 
L 513.07772 182.683841 
Q 511.532206 182.417365 510.032827 182.293477 
Q 508.533448 182.169589 506.87721 182.169589 
Q 503.906133 182.169589 502.20376 182.652285 
Q 500.506002 183.133812 500.506002 183.981159 
Q 500.506002 184.825 502.20376 185.307695 
Q 503.906133 185.789222 506.87721 185.789222 
Q 508.533448 185.789222 510.032827 185.665334 
Q 511.532206 185.540277 513.07772 185.273801 
L 513.07772 186.402818 
z
" clip-path="url(#pc01896d788)" style="fill: #0000ff"/>
   </g>
   <g id="patch_89">
    <path d="M 494.766839 174.587223 
L 513.07772 174.587223 
L 513.07772 175.867232 
L 506.490061 175.867232 
L 506.490061 181.150435 
L 501.367273 181.150435 
L 501.367273 175.867232 
L 494.766839 175.867232 
L 494.766839 174.587223 
z
" clip-path="url(#pc01896d788)" style="fill: #ff0000"/>
   </g>
   <g id="patch_90">
    <path d="M 507.450803 152.365313 
L 500.408732 152.365313 
L 499.296826 174.587223 
L 494.766839 174.587223 
L 501.23611 52.602007 
L 506.60845 52.602007 
L 513.07772 174.587223 
L 508.551477 174.587223 
L 507.450803 152.365313 
z
M 501.531869 129.725108 
L 506.316434 129.725108 
L 503.927895 81.202913 
L 501.531869 129.725108 
z
" clip-path="url(#pc01896d788)" style="fill: #008000"/>
   </g>
   <g id="patch_91">
    <path d="M 532.352332 191.807431 
Q 530.820658 192.021846 529.164421 192.1303 
Q 527.508183 192.24 525.704315 192.24 
Q 520.325003 192.24 517.183227 191.427219 
Q 514.041451 190.614438 514.041451 189.224483 
Q 514.041451 187.829542 517.183227 187.018008 
Q 520.325003 186.205227 525.704315 186.205227 
Q 527.508183 186.205227 529.164421 186.314928 
Q 530.820658 186.423381 532.352332 186.637796 
L 532.352332 187.840762 
Q 530.806818 187.556538 529.307438 187.424398 
Q 527.808059 187.292259 526.151822 187.292259 
Q 523.180744 187.292259 521.478372 187.807103 
Q 519.780613 188.320701 519.780613 189.224483 
Q 519.780613 190.124526 521.478372 190.63937 
Q 523.180744 191.152968 526.151822 191.152968 
Q 527.808059 191.152968 529.307438 191.020829 
Q 530.806818 190.887443 532.352332 190.603219 
L 532.352332 191.807431 
z
" clip-path="url(#pc01896d788)" style="fill: #0000ff"/>
   </g>
   <g id="patch_92">
    <path d="M 532.352332 185.625092 
Q 530.505649 185.91516 528.51944 186.060856 
Q 526.533231 186.205227 524.415702 186.205227 
Q 519.630743 186.205227 516.836097 185.341647 
Q 514.041451 184.478068 514.041451 183.001241 
Q 514.041451 181.507195 516.885342 180.650238 
Q 519.733336 179.793281 524.686548 179.793281 
Q 526.594787 179.793281 528.342979 179.909838 
Q 530.095275 180.02507 531.646489 180.252885 
L 531.646489 181.531036 
Q 530.046031 181.23832 528.461988 181.093948 
Q 526.877945 180.948252 525.285694 180.948252 
Q 522.33921 180.948252 520.742856 181.480705 
Q 519.146501 182.011833 519.146501 183.001241 
Q 519.146501 183.981377 520.685403 184.516479 
Q 522.224305 185.050256 525.055885 185.050256 
Q 525.827388 185.050256 526.488089 185.019792 
Q 527.148791 184.988004 527.67407 184.921778 
L 527.67407 183.721773 
L 524.657822 183.721773 
L 524.657822 182.652895 
L 532.352332 182.652895 
L 532.352332 185.625092 
z
" clip-path="url(#pc01896d788)" style="fill: #ffa600"/>
   </g>
   <g id="patch_93">
    <path d="M 526.725414 178.384742 
L 519.683344 178.384742 
L 518.571438 179.793281 
L 514.041451 179.793281 
L 520.510721 172.061228 
L 525.883061 172.061228 
L 532.352332 179.793281 
L 527.826089 179.793281 
L 526.725414 178.384742 
z
M 520.806481 176.949688 
L 525.591045 176.949688 
L 523.202507 173.874101 
L 520.806481 176.949688 
z
" clip-path="url(#pc01896d788)" style="fill: #008000"/>
   </g>
   <g id="patch_94">
    <path d="M 514.041451 134.061018 
L 532.352332 134.061018 
L 532.352332 141.472117 
L 525.764673 141.472117 
L 525.764673 172.061228 
L 520.641885 172.061228 
L 520.641885 141.472117 
L 514.041451 141.472117 
L 514.041451 134.061018 
z
" clip-path="url(#pc01896d788)" style="fill: #ff0000"/>
   </g>
   <g id="patch_95">
    <path d="M 533.316062 189.045161 
L 551.626943 189.045161 
L 551.626943 189.668243 
L 545.039284 189.668243 
L 545.039284 192.24 
L 539.916496 192.24 
L 539.916496 189.668243 
L 533.316062 189.668243 
L 533.316062 189.045161 
z
" clip-path="url(#pc01896d788)" style="fill: #ff0000"/>
   </g>
   <g id="patch_96">
    <path d="M 551.626943 188.654742 
Q 549.780261 188.849951 547.794051 188.948002 
Q 545.807842 189.045161 543.690313 189.045161 
Q 538.905354 189.045161 536.110708 188.463989 
Q 533.316062 187.882818 533.316062 186.888944 
Q 533.316062 185.883482 536.159953 185.306767 
Q 539.007947 184.730053 543.96116 184.730053 
Q 545.869398 184.730053 547.617591 184.808493 
Q 549.369887 184.886042 550.9211 185.039357 
L 550.9211 185.899526 
Q 549.320642 185.702534 547.736599 185.605375 
Q 546.152556 185.507325 544.560305 185.507325 
Q 541.613821 185.507325 540.017467 185.865654 
Q 538.421113 186.223092 538.421113 186.888944 
Q 538.421113 187.548555 539.960015 187.908668 
Q 541.498917 188.267888 544.330496 188.267888 
Q 545.101999 188.267888 545.762701 188.247387 
Q 546.423403 188.225994 546.948681 188.181426 
L 546.948681 187.373847 
L 543.932433 187.373847 
L 543.932433 186.654514 
L 551.626943 186.654514 
L 551.626943 188.654742 
z
" clip-path="url(#pc01896d788)" style="fill: #ffa600"/>
   </g>
   <g id="patch_97">
    <path d="M 551.626943 184.361267 
Q 550.095269 184.544065 548.439032 184.636528 
Q 546.782795 184.730053 544.978926 184.730053 
Q 539.599615 184.730053 536.457838 184.037118 
Q 533.316062 183.344183 533.316062 182.159179 
Q 533.316062 180.969924 536.457838 180.278051 
Q 539.599615 179.585116 544.978926 179.585116 
Q 546.782795 179.585116 548.439032 179.678641 
Q 550.095269 179.771104 551.626943 179.953902 
L 551.626943 180.979489 
Q 550.081429 180.737174 548.58205 180.624519 
Q 547.08267 180.511864 545.426433 180.511864 
Q 542.455355 180.511864 540.752983 180.950794 
Q 539.055225 181.38866 539.055225 182.159179 
Q 539.055225 182.926509 540.752983 183.365438 
Q 542.455355 183.803305 545.426433 183.803305 
Q 547.08267 183.803305 548.58205 183.69065 
Q 550.081429 183.576932 551.626943 183.334618 
L 551.626943 184.361267 
z
" clip-path="url(#pc01896d788)" style="fill: #0000ff"/>
   </g>
   <g id="patch_98">
    <path d="M 546.000025 177.226881 
L 538.957955 177.226881 
L 537.846049 179.585116 
L 533.316062 179.585116 
L 539.785333 166.639793 
L 545.157672 166.639793 
L 551.626943 179.585116 
L 547.1007 179.585116 
L 546.000025 177.226881 
z
M 540.081092 174.824256 
L 544.865657 174.824256 
L 542.477118 169.67498 
L 540.081092 174.824256 
z
" clip-path="url(#pc01896d788)" style="fill: #008000"/>
   </g>
   <g id="patch_99">
    <path d="M 570.901554 191.859046 
Q 569.054872 192.049523 567.068663 192.145196 
Q 565.082453 192.24 562.964924 192.24 
Q 558.179965 192.24 555.385319 191.672918 
Q 552.590674 191.105835 552.590674 190.136055 
Q 552.590674 189.154967 555.434564 188.592234 
Q 558.282559 188.0295 563.235771 188.0295 
Q 565.144009 188.0295 566.892202 188.106039 
Q 568.644498 188.181708 570.195711 188.331306 
L 570.195711 189.170623 
Q 568.595253 188.978407 567.01121 188.883603 
Q 565.427167 188.787929 563.834917 188.787929 
Q 560.888433 188.787929 559.292078 189.137572 
Q 557.695724 189.486345 557.695724 190.136055 
Q 557.695724 190.779676 559.234626 191.131058 
Q 560.773528 191.481571 563.605107 191.481571 
Q 564.37661 191.481571 565.037312 191.461566 
Q 565.698014 191.440692 566.223293 191.397204 
L 566.223293 190.609203 
L 563.207045 190.609203 
L 563.207045 189.907308 
L 570.901554 189.907308 
L 570.901554 191.859046 
z
" clip-path="url(#pc01896d788)" style="fill: #ffa600"/>
   </g>
   <g id="patch_100">
    <path d="M 570.901554 187.542915 
Q 569.369881 187.784104 567.713643 187.906101 
Q 566.057406 188.0295 564.253537 188.0295 
Q 558.874226 188.0295 555.73245 187.115225 
Q 552.590674 186.200949 552.590674 184.637425 
Q 552.590674 183.068293 555.73245 182.155419 
Q 558.874226 181.241144 564.253537 181.241144 
Q 566.057406 181.241144 567.713643 181.364543 
Q 569.369881 181.48654 570.901554 181.727729 
L 570.901554 183.080913 
Q 569.35604 182.761197 567.856661 182.612557 
Q 566.357282 182.463917 564.701044 182.463917 
Q 561.729967 182.463917 560.027595 183.043052 
Q 558.329836 183.620784 558.329836 184.637425 
Q 558.329836 185.649859 560.027595 186.228994 
Q 561.729967 186.806727 564.701044 186.806727 
Q 566.357282 186.806727 567.856661 186.658087 
Q 569.35604 186.508045 570.901554 186.188329 
L 570.901554 187.542915 
z
" clip-path="url(#pc01896d788)" style="fill: #0000ff"/>
   </g>
   <g id="patch_101">
    <path d="M 565.274637 179.628832 
L 558.232566 179.628832 
L 557.12066 181.241144 
L 552.590674 181.241144 
L 559.059944 172.390501 
L 564.432284 172.390501 
L 570.901554 181.241144 
L 566.375311 181.241144 
L 565.274637 179.628832 
z
M 559.355704 177.986171 
L 564.140268 177.986171 
L 561.75173 174.465641 
L 559.355704 177.986171 
z
" clip-path="url(#pc01896d788)" style="fill: #008000"/>
   </g>
   <g id="patch_102">
    <path d="M 552.590674 139.222075 
L 570.901554 139.222075 
L 570.901554 145.690842 
L 564.313896 145.690842 
L 564.313896 172.390501 
L 559.191107 172.390501 
L 559.191107 145.690842 
L 552.590674 145.690842 
L 552.590674 139.222075 
z
" clip-path="url(#pc01896d788)" style="fill: #ff0000"/>
   </g>
   <g id="patch_103">
    <path d="M 590.176166 191.969299 
Q 588.644492 192.103479 586.988255 192.17135 
Q 585.332017 192.24 583.528149 192.24 
Q 578.148837 192.24 575.007061 191.731363 
Q 571.865285 191.222726 571.865285 190.352894 
Q 571.865285 189.479942 575.007061 188.972085 
Q 578.148837 188.463448 583.528149 188.463448 
Q 585.332017 188.463448 586.988255 188.532099 
Q 588.644492 188.599969 590.176166 188.734149 
L 590.176166 189.486963 
Q 588.630652 189.309096 587.131273 189.226404 
Q 585.631893 189.143711 583.975656 189.143711 
Q 581.004578 189.143711 579.302206 189.4659 
Q 577.604447 189.787309 577.604447 190.352894 
Q 577.604447 190.91614 579.302206 191.238328 
Q 581.004578 191.559737 583.975656 191.559737 
Q 585.631893 191.559737 587.131273 191.477045 
Q 588.630652 191.393572 590.176166 191.215705 
L 590.176166 191.969299 
z
" clip-path="url(#pc01896d788)" style="fill: #0000ff"/>
   </g>
   <g id="patch_104">
    <path d="M 590.176166 188.089865 
Q 588.329484 188.276657 586.343274 188.370479 
Q 584.357065 188.463448 582.239536 188.463448 
Q 577.454577 188.463448 574.659931 187.907339 
Q 571.865285 187.351229 571.865285 186.400213 
Q 571.865285 185.438109 574.709176 184.886264 
Q 577.55717 184.334418 582.510382 184.334418 
Q 584.418621 184.334418 586.166813 184.409476 
Q 587.91911 184.483681 589.470323 184.630385 
L 589.470323 185.453461 
Q 587.869865 185.264964 586.285822 185.171995 
Q 584.701779 185.078173 583.109528 185.078173 
Q 580.163044 185.078173 578.56669 185.42105 
Q 576.970336 185.763075 576.970336 186.400213 
Q 576.970336 187.03138 578.509237 187.375964 
Q 580.048139 187.719694 582.879719 187.719694 
Q 583.651222 187.719694 584.311924 187.700077 
Q 584.972625 187.679606 585.497904 187.63696 
L 585.497904 186.864206 
L 582.481656 186.864206 
L 582.481656 186.175892 
L 590.176166 186.175892 
L 590.176166 188.089865 
z
" clip-path="url(#pc01896d788)" style="fill: #ffa600"/>
   </g>
   <g id="patch_105">
    <path d="M 584.549248 183.105245 
L 577.507178 183.105245 
L 576.395272 184.334418 
L 571.865285 184.334418 
L 578.334555 177.586979 
L 583.706895 177.586979 
L 590.176166 184.334418 
L 585.649923 184.334418 
L 584.549248 183.105245 
z
M 578.630315 181.852934 
L 583.41488 181.852934 
L 581.026341 179.168998 
L 578.630315 181.852934 
z
" clip-path="url(#pc01896d788)" style="fill: #008000"/>
   </g>
   <g id="patch_106">
    <path d="M 571.865285 161.171568 
L 590.176166 161.171568 
L 590.176166 164.373031 
L 583.588507 164.373031 
L 583.588507 177.586979 
L 578.465719 177.586979 
L 578.465719 164.373031 
L 571.865285 164.373031 
L 571.865285 161.171568 
z
" clip-path="url(#pc01896d788)" style="fill: #ff0000"/>
   </g>
   <g id="patch_107">
    <path d="M 609.450777 192.140653 
Q 607.919104 192.189897 606.262866 192.214805 
Q 604.606629 192.24 602.80276 192.24 
Q 597.423449 192.24 594.281673 192.053331 
Q 591.139896 191.866663 591.139896 191.547436 
Q 591.139896 191.227065 594.281673 191.040683 
Q 597.423449 190.854014 602.80276 190.854014 
Q 604.606629 190.854014 606.262866 190.879209 
Q 607.919104 190.904117 609.450777 190.953361 
L 609.450777 191.229642 
Q 607.905263 191.164365 606.405884 191.134017 
Q 604.906505 191.103669 603.250267 191.103669 
Q 600.27919 191.103669 598.576817 191.221912 
Q 596.879059 191.339868 596.879059 191.547436 
Q 596.879059 191.754146 598.576817 191.872389 
Q 600.27919 191.990345 603.250267 191.990345 
Q 604.906505 191.990345 606.405884 191.959997 
Q 607.905263 191.929363 609.450777 191.864086 
L 609.450777 192.140653 
z
" clip-path="url(#pc01896d788)" style="fill: #0000ff"/>
   </g>
   <g id="patch_108">
    <path d="M 609.450777 190.720323 
Q 607.604095 190.787169 605.617886 190.820744 
Q 603.631676 190.854014 601.514147 190.854014 
Q 596.729188 190.854014 593.934542 190.655004 
Q 591.139896 190.455993 591.139896 190.115661 
Q 591.139896 189.771361 593.983787 189.573877 
Q 596.831782 189.376393 601.784994 189.376393 
Q 603.693232 189.376393 605.441425 189.403253 
Q 607.193721 189.429808 608.744934 189.482308 
L 608.744934 189.776855 
Q 607.144476 189.709399 605.560433 189.676129 
Q 603.97639 189.642554 602.38414 189.642554 
Q 599.437655 189.642554 597.841301 189.765256 
Q 596.244947 189.887654 596.244947 190.115661 
Q 596.244947 190.341532 597.783849 190.464845 
Q 599.322751 190.587853 602.15433 190.587853 
Q 602.925833 190.587853 603.586535 190.580833 
Q 604.247237 190.573507 604.772515 190.558246 
L 604.772515 190.281707 
L 601.756268 190.281707 
L 601.756268 190.035385 
L 609.450777 190.035385 
L 609.450777 190.720323 
z
" clip-path="url(#pc01896d788)" style="fill: #ffa600"/>
   </g>
   <g id="patch_109">
    <path d="M 603.82386 189.105129 
L 596.781789 189.105129 
L 595.669883 189.376393 
L 591.139896 189.376393 
L 597.609167 187.887317 
L 602.981507 187.887317 
L 609.450777 189.376393 
L 604.924534 189.376393 
L 603.82386 189.105129 
z
M 597.904926 188.82876 
L 602.689491 188.82876 
L 600.300952 188.236449 
L 597.904926 188.82876 
z
" clip-path="url(#pc01896d788)" style="fill: #008000"/>
   </g>
   <g id="patch_110">
    <path d="M 591.139896 185.172617 
L 609.450777 185.172617 
L 609.450777 185.702059 
L 602.863118 185.702059 
L 602.863118 187.887317 
L 597.74033 187.887317 
L 597.74033 185.702059 
L 591.139896 185.702059 
L 591.139896 185.172617 
z
" clip-path="url(#pc01896d788)" style="fill: #ff0000"/>
   </g>
   <g id="patch_111">
    <path d="M 628.725389 192.082004 
Q 627.193715 192.160319 625.537478 192.199932 
Q 623.88124 192.24 622.077372 192.24 
Q 616.69806 192.24 613.556284 191.943132 
Q 610.414508 191.646264 610.414508 191.138583 
Q 610.414508 190.629081 613.556284 190.332669 
Q 616.69806 190.035801 622.077372 190.035801 
Q 623.88124 190.035801 625.537478 190.075869 
Q 627.193715 190.115482 628.725389 190.193796 
L 628.725389 190.633179 
Q 627.179875 190.529366 625.680495 190.481103 
Q 624.181116 190.432839 622.524879 190.432839 
Q 619.553801 190.432839 617.851429 190.620886 
Q 616.15367 190.808477 616.15367 191.138583 
Q 616.15367 191.467324 617.851429 191.65537 
Q 619.553801 191.842962 622.524879 191.842962 
Q 624.181116 191.842962 625.680495 191.794698 
Q 627.179875 191.745979 628.725389 191.642166 
L 628.725389 192.082004 
z
" clip-path="url(#pc01896d788)" style="fill: #0000ff"/>
   </g>
   <g id="patch_112">
    <path d="M 628.725389 189.829591 
Q 626.878706 189.932696 624.892497 189.984484 
Q 622.906288 190.035801 620.788758 190.035801 
Q 616.003799 190.035801 613.209154 189.728841 
Q 610.414508 189.421881 610.414508 188.896942 
Q 610.414508 188.365883 613.258398 188.061277 
Q 616.106393 187.756671 621.059605 187.756671 
Q 622.967844 187.756671 624.716036 187.798101 
Q 626.468332 187.839061 628.019546 187.920038 
L 628.019546 188.374357 
Q 626.419088 188.270311 624.835045 188.218994 
Q 623.251002 188.167206 621.658751 188.167206 
Q 618.712267 188.167206 617.115913 188.356467 
Q 615.519558 188.545257 615.519558 188.896942 
Q 615.519558 189.245332 617.05846 189.435534 
Q 618.597362 189.625265 621.428942 189.625265 
Q 622.200445 189.625265 622.861146 189.614437 
Q 623.521848 189.603138 624.047127 189.579598 
L 624.047127 189.153056 
L 621.030879 189.153056 
L 621.030879 188.773122 
L 628.725389 188.773122 
L 628.725389 189.829591 
z
" clip-path="url(#pc01896d788)" style="fill: #ffa600"/>
   </g>
   <g id="patch_113">
    <path d="M 623.098471 186.886486 
L 616.056401 186.886486 
L 614.944495 187.756671 
L 610.414508 187.756671 
L 616.883778 182.979865 
L 622.256118 182.979865 
L 628.725389 187.756671 
L 624.199146 187.756671 
L 623.098471 186.886486 
z
M 617.179538 185.99992 
L 621.964102 185.99992 
L 619.575564 184.099845 
L 617.179538 185.99992 
z
" clip-path="url(#pc01896d788)" style="fill: #008000"/>
   </g>
   <g id="patch_114">
    <path d="M 610.414508 176.829337 
L 628.725389 176.829337 
L 628.725389 178.028862 
L 622.13773 178.028862 
L 622.13773 182.979865 
L 617.014942 182.979865 
L 617.014942 178.028862 
L 610.414508 178.028862 
L 610.414508 176.829337 
z
" clip-path="url(#pc01896d788)" style="fill: #ff0000"/>
   </g>
   <g id="patch_115">
    <path d="M 648 191.960542 
Q 646.468326 192.099063 644.812089 192.169129 
Q 643.155852 192.24 641.351983 192.24 
Q 635.972672 192.24 632.830895 191.714909 
Q 629.689119 191.189817 629.689119 190.291847 
Q 629.689119 189.390655 632.830895 188.866369 
Q 635.972672 188.341277 641.351983 188.341277 
Q 643.155852 188.341277 644.812089 188.412148 
Q 646.468326 188.482214 648 188.620735 
L 648 189.397903 
Q 646.454486 189.214282 644.955107 189.128914 
Q 643.455727 189.043547 641.79949 189.043547 
Q 638.828412 189.043547 637.12604 189.376158 
Q 635.428282 189.707964 635.428282 190.291847 
Q 635.428282 190.873313 637.12604 191.205924 
Q 638.828412 191.537731 641.79949 191.537731 
Q 643.455727 191.537731 644.955107 191.452363 
Q 646.454486 191.36619 648 191.182569 
L 648 191.960542 
z
" clip-path="url(#pc01896d788)" style="fill: #0000ff"/>
   </g>
   <g id="patch_116">
    <path d="M 648 187.93924 
Q 646.153318 188.140259 644.167108 188.241227 
Q 642.180899 188.341277 640.06337 188.341277 
Q 635.278411 188.341277 632.483765 187.742811 
Q 629.689119 187.144344 629.689119 186.120893 
Q 629.689119 185.085509 632.53301 184.491632 
Q 635.381004 183.897755 640.334217 183.897755 
Q 642.242455 183.897755 643.990648 183.978529 
Q 645.742944 184.058386 647.294157 184.216264 
L 647.294157 185.102031 
Q 645.693699 184.899177 644.109656 184.799126 
Q 642.525613 184.698158 640.933362 184.698158 
Q 637.986878 184.698158 636.390524 185.067151 
Q 634.79417 185.435226 634.79417 186.120893 
Q 634.79417 186.800134 636.333072 187.170963 
Q 637.871974 187.540874 640.703553 187.540874 
Q 641.475056 187.540874 642.135758 187.519763 
Q 642.79646 187.497733 643.321738 187.451838 
L 643.321738 186.620227 
L 640.30549 186.620227 
L 640.30549 185.879487 
L 648 185.879487 
L 648 187.93924 
z
" clip-path="url(#pc01896d788)" style="fill: #ffa600"/>
   </g>
   <g id="patch_117">
    <path d="M 629.689119 173.801936 
L 648 173.801936 
L 648 175.770902 
L 641.412341 175.770902 
L 641.412341 183.897755 
L 636.289553 183.897755 
L 636.289553 175.770902 
L 629.689119 175.770902 
L 629.689119 173.801936 
z
" clip-path="url(#pc01896d788)" style="fill: #ff0000"/>
   </g>
   <g id="patch_118">
    <path d="M 642.373082 169.506464 
L 635.331012 169.506464 
L 634.219106 173.801936 
L 629.689119 173.801936 
L 636.15839 150.222324 
L 641.530729 150.222324 
L 648 173.801936 
L 643.473757 173.801936 
L 642.373082 169.506464 
z
M 636.454149 165.130137 
L 641.238714 165.130137 
L 638.850175 155.750849 
L 636.454149 165.130137 
z
" clip-path="url(#pc01896d788)" style="fill: #008000"/>
   </g>
   <g id="matplotlib.axis_1">
    <g id="xtick_1">
     <g id="line2d_2">
      <defs>
       <path id="m9f4480d991" d="M 0 0 
L 0 3.5 
" style="stroke: #000000; stroke-width: 0.8"/>
      </defs>
      <g>
       <use xlink:href="#m9f4480d991" x="99.15544" y="192.24" style="stroke: #000000; stroke-width: 0.8"/>
      </g>
     </g>
     <g id="text_1">
      <!-- 0 -->
      <g transform="translate(95.97419 206.838437) scale(0.1 -0.1)">
       <defs>
        <path id="DejaVuSans-30" d="M 2034 4250 
Q 1547 4250 1301 3770 
Q 1056 3291 1056 2328 
Q 1056 1369 1301 889 
Q 1547 409 2034 409 
Q 2525 409 2770 889 
Q 3016 1369 3016 2328 
Q 3016 3291 2770 3770 
Q 2525 4250 2034 4250 
z
M 2034 4750 
Q 2819 4750 3233 4129 
Q 3647 3509 3647 2328 
Q 3647 1150 3233 529 
Q 2819 -91 2034 -91 
Q 1250 -91 836 529 
Q 422 1150 422 2328 
Q 422 3509 836 4129 
Q 1250 4750 2034 4750 
z
" transform="scale(0.015625)"/>
       </defs>
       <use xlink:href="#DejaVuSans-30"/>
      </g>
     </g>
    </g>
    <g id="xtick_2">
     <g id="line2d_3">
      <g>
       <use xlink:href="#m9f4480d991" x="195.528497" y="192.24" style="stroke: #000000; stroke-width: 0.8"/>
      </g>
     </g>
     <g id="text_2">
      <!-- 5 -->
      <g transform="translate(192.347247 206.838437) scale(0.1 -0.1)">
       <defs>
        <path id="DejaVuSans-35" d="M 691 4666 
L 3169 4666 
L 3169 4134 
L 1269 4134 
L 1269 2991 
Q 1406 3038 1543 3061 
Q 1681 3084 1819 3084 
Q 2600 3084 3056 2656 
Q 3513 2228 3513 1497 
Q 3513 744 3044 326 
Q 2575 -91 1722 -91 
Q 1428 -91 1123 -41 
Q 819 9 494 109 
L 494 744 
Q 775 591 1075 516 
Q 1375 441 1709 441 
Q 2250 441 2565 725 
Q 2881 1009 2881 1497 
Q 2881 1984 2565 2268 
Q 2250 2553 1709 2553 
Q 1456 2553 1204 2497 
Q 953 2441 691 2322 
L 691 4666 
z
" transform="scale(0.015625)"/>
       </defs>
       <use xlink:href="#DejaVuSans-35"/>
      </g>
     </g>
    </g>
    <g id="xtick_3">
     <g id="line2d_4">
      <g>
       <use xlink:href="#m9f4480d991" x="291.901554" y="192.24" style="stroke: #000000; stroke-width: 0.8"/>
      </g>
     </g>
     <g id="text_3">
      <!-- 10 -->
      <g transform="translate(285.539054 206.838437) scale(0.1 -0.1)">
       <defs>
        <path id="DejaVuSans-31" d="M 794 531 
L 1825 531 
L 1825 4091 
L 703 3866 
L 703 4441 
L 1819 4666 
L 2450 4666 
L 2450 531 
L 3481 531 
L 3481 0 
L 794 0 
L 794 531 
z
" transform="scale(0.015625)"/>
       </defs>
       <use xlink:href="#DejaVuSans-31"/>
       <use xlink:href="#DejaVuSans-30" x="63.623047"/>
      </g>
     </g>
    </g>
    <g id="xtick_4">
     <g id="line2d_5">
      <g>
       <use xlink:href="#m9f4480d991" x="388.274611" y="192.24" style="stroke: #000000; stroke-width: 0.8"/>
      </g>
     </g>
     <g id="text_4">
      <!-- 15 -->
      <g transform="translate(381.912111 206.838437) scale(0.1 -0.1)">
       <use xlink:href="#DejaVuSans-31"/>
       <use xlink:href="#DejaVuSans-35" x="63.623047"/>
      </g>
     </g>
    </g>
    <g id="xtick_5">
     <g id="line2d_6">
      <g>
       <use xlink:href="#m9f4480d991" x="484.647668" y="192.24" style="stroke: #000000; stroke-width: 0.8"/>
      </g>
     </g>
     <g id="text_5">
      <!-- 20 -->
      <g transform="translate(478.285168 206.838437) scale(0.1 -0.1)">
       <defs>
        <path id="DejaVuSans-32" d="M 1228 531 
L 3431 531 
L 3431 0 
L 469 0 
L 469 531 
Q 828 903 1448 1529 
Q 2069 2156 2228 2338 
Q 2531 2678 2651 2914 
Q 2772 3150 2772 3378 
Q 2772 3750 2511 3984 
Q 2250 4219 1831 4219 
Q 1534 4219 1204 4116 
Q 875 4013 500 3803 
L 500 4441 
Q 881 4594 1212 4672 
Q 1544 4750 1819 4750 
Q 2544 4750 2975 4387 
Q 3406 4025 3406 3419 
Q 3406 3131 3298 2873 
Q 3191 2616 2906 2266 
Q 2828 2175 2409 1742 
Q 1991 1309 1228 531 
z
" transform="scale(0.015625)"/>
       </defs>
       <use xlink:href="#DejaVuSans-32"/>
       <use xlink:href="#DejaVuSans-30" x="63.623047"/>
      </g>
     </g>
    </g>
    <g id="xtick_6">
     <g id="line2d_7">
      <g>
       <use xlink:href="#m9f4480d991" x="581.020725" y="192.24" style="stroke: #000000; stroke-width: 0.8"/>
      </g>
     </g>
     <g id="text_6">
      <!-- 25 -->
      <g transform="translate(574.658225 206.838437) scale(0.1 -0.1)">
       <use xlink:href="#DejaVuSans-32"/>
       <use xlink:href="#DejaVuSans-35" x="63.623047"/>
      </g>
     </g>
    </g>
   </g>
   <g id="matplotlib.axis_2">
    <g id="ytick_1">
     <g id="line2d_8">
      <defs>
       <path id="m1d545d84a1" d="M 0 0 
L -3.5 0 
" style="stroke: #000000; stroke-width: 0.8"/>
      </defs>
      <g>
       <use xlink:href="#m1d545d84a1" x="90" y="192.24" style="stroke: #000000; stroke-width: 0.8"/>
      </g>
     </g>
     <g id="text_7">
      <!-- 0.0 -->
      <g transform="translate(67.096875 196.039219) scale(0.1 -0.1)">
       <defs>
        <path id="DejaVuSans-2e" d="M 684 794 
L 1344 794 
L 1344 0 
L 684 0 
L 684 794 
z
" transform="scale(0.015625)"/>
       </defs>
       <use xlink:href="#DejaVuSans-30"/>
       <use xlink:href="#DejaVuSans-2e" x="63.623047"/>
       <use xlink:href="#DejaVuSans-30" x="95.410156"/>
      </g>
     </g>
    </g>
    <g id="ytick_2">
     <g id="line2d_9">
      <g>
       <use xlink:href="#m1d545d84a1" x="90" y="169.946426" style="stroke: #000000; stroke-width: 0.8"/>
      </g>
     </g>
     <g id="text_8">
      <!-- 0.2 -->
      <g transform="translate(67.096875 173.745645) scale(0.1 -0.1)">
       <use xlink:href="#DejaVuSans-30"/>
       <use xlink:href="#DejaVuSans-2e" x="63.623047"/>
       <use xlink:href="#DejaVuSans-32" x="95.410156"/>
      </g>
     </g>
    </g>
    <g id="ytick_3">
     <g id="line2d_10">
      <g>
       <use xlink:href="#m1d545d84a1" x="90" y="147.652852" style="stroke: #000000; stroke-width: 0.8"/>
      </g>
     </g>
     <g id="text_9">
      <!-- 0.4 -->
      <g transform="translate(67.096875 151.452071) scale(0.1 -0.1)">
       <defs>
        <path id="DejaVuSans-34" d="M 2419 4116 
L 825 1625 
L 2419 1625 
L 2419 4116 
z
M 2253 4666 
L 3047 4666 
L 3047 1625 
L 3713 1625 
L 3713 1100 
L 3047 1100 
L 3047 0 
L 2419 0 
L 2419 1100 
L 313 1100 
L 313 1709 
L 2253 4666 
z
" transform="scale(0.015625)"/>
       </defs>
       <use xlink:href="#DejaVuSans-30"/>
       <use xlink:href="#DejaVuSans-2e" x="63.623047"/>
       <use xlink:href="#DejaVuSans-34" x="95.410156"/>
      </g>
     </g>
    </g>
    <g id="ytick_4">
     <g id="line2d_11">
      <g>
       <use xlink:href="#m1d545d84a1" x="90" y="125.359279" style="stroke: #000000; stroke-width: 0.8"/>
      </g>
     </g>
     <g id="text_10">
      <!-- 0.6 -->
      <g transform="translate(67.096875 129.158497) scale(0.1 -0.1)">
       <defs>
        <path id="DejaVuSans-36" d="M 2113 2584 
Q 1688 2584 1439 2293 
Q 1191 2003 1191 1497 
Q 1191 994 1439 701 
Q 1688 409 2113 409 
Q 2538 409 2786 701 
Q 3034 994 3034 1497 
Q 3034 2003 2786 2293 
Q 2538 2584 2113 2584 
z
M 3366 4563 
L 3366 3988 
Q 3128 4100 2886 4159 
Q 2644 4219 2406 4219 
Q 1781 4219 1451 3797 
Q 1122 3375 1075 2522 
Q 1259 2794 1537 2939 
Q 1816 3084 2150 3084 
Q 2853 3084 3261 2657 
Q 3669 2231 3669 1497 
Q 3669 778 3244 343 
Q 2819 -91 2113 -91 
Q 1303 -91 875 529 
Q 447 1150 447 2328 
Q 447 3434 972 4092 
Q 1497 4750 2381 4750 
Q 2619 4750 2861 4703 
Q 3103 4656 3366 4563 
z
" transform="scale(0.015625)"/>
       </defs>
       <use xlink:href="#DejaVuSans-30"/>
       <use xlink:href="#DejaVuSans-2e" x="63.623047"/>
       <use xlink:href="#DejaVuSans-36" x="95.410156"/>
      </g>
     </g>
    </g>
    <g id="ytick_5">
     <g id="line2d_12">
      <g>
       <use xlink:href="#m1d545d84a1" x="90" y="103.065705" style="stroke: #000000; stroke-width: 0.8"/>
      </g>
     </g>
     <g id="text_11">
      <!-- 0.8 -->
      <g transform="translate(67.096875 106.864924) scale(0.1 -0.1)">
       <defs>
        <path id="DejaVuSans-38" d="M 2034 2216 
Q 1584 2216 1326 1975 
Q 1069 1734 1069 1313 
Q 1069 891 1326 650 
Q 1584 409 2034 409 
Q 2484 409 2743 651 
Q 3003 894 3003 1313 
Q 3003 1734 2745 1975 
Q 2488 2216 2034 2216 
z
M 1403 2484 
Q 997 2584 770 2862 
Q 544 3141 544 3541 
Q 544 4100 942 4425 
Q 1341 4750 2034 4750 
Q 2731 4750 3128 4425 
Q 3525 4100 3525 3541 
Q 3525 3141 3298 2862 
Q 3072 2584 2669 2484 
Q 3125 2378 3379 2068 
Q 3634 1759 3634 1313 
Q 3634 634 3220 271 
Q 2806 -91 2034 -91 
Q 1263 -91 848 271 
Q 434 634 434 1313 
Q 434 1759 690 2068 
Q 947 2378 1403 2484 
z
M 1172 3481 
Q 1172 3119 1398 2916 
Q 1625 2713 2034 2713 
Q 2441 2713 2670 2916 
Q 2900 3119 2900 3481 
Q 2900 3844 2670 4047 
Q 2441 4250 2034 4250 
Q 1625 4250 1398 4047 
Q 1172 3844 1172 3481 
z
" transform="scale(0.015625)"/>
       </defs>
       <use xlink:href="#DejaVuSans-30"/>
       <use xlink:href="#DejaVuSans-2e" x="63.623047"/>
       <use xlink:href="#DejaVuSans-38" x="95.410156"/>
      </g>
     </g>
    </g>
    <g id="ytick_6">
     <g id="line2d_13">
      <g>
       <use xlink:href="#m1d545d84a1" x="90" y="80.772131" style="stroke: #000000; stroke-width: 0.8"/>
      </g>
     </g>
     <g id="text_12">
      <!-- 1.0 -->
      <g transform="translate(67.096875 84.57135) scale(0.1 -0.1)">
       <use xlink:href="#DejaVuSans-31"/>
       <use xlink:href="#DejaVuSans-2e" x="63.623047"/>
       <use xlink:href="#DejaVuSans-30" x="95.410156"/>
      </g>
     </g>
    </g>
    <g id="ytick_7">
     <g id="line2d_14">
      <g>
       <use xlink:href="#m1d545d84a1" x="90" y="58.478557" style="stroke: #000000; stroke-width: 0.8"/>
      </g>
     </g>
     <g id="text_13">
      <!-- 1.2 -->
      <g transform="translate(67.096875 62.277776) scale(0.1 -0.1)">
       <use xlink:href="#DejaVuSans-31"/>
       <use xlink:href="#DejaVuSans-2e" x="63.623047"/>
       <use xlink:href="#DejaVuSans-32" x="95.410156"/>
      </g>
     </g>
    </g>
    <g id="ytick_8">
     <g id="line2d_15">
      <g>
       <use xlink:href="#m1d545d84a1" x="90" y="36.184983" style="stroke: #000000; stroke-width: 0.8"/>
      </g>
     </g>
     <g id="text_14">
      <!-- 1.4 -->
      <g transform="translate(67.096875 39.984202) scale(0.1 -0.1)">
       <use xlink:href="#DejaVuSans-31"/>
       <use xlink:href="#DejaVuSans-2e" x="63.623047"/>
       <use xlink:href="#DejaVuSans-34" x="95.410156"/>
      </g>
     </g>
    </g>
   </g>
  </g>
 </g>
 <defs>
  <clipPath id="pc01896d788">
   <rect x="90" y="25.92" width="558" height="166.32"/>
  </clipPath>
 </defs>
</svg>
