<?xml version="1.0" encoding="utf-8" standalone="no"?>
<!DOCTYPE svg PUBLIC "-//W3C//DTD SVG 1.1//EN"
  "http://www.w3.org/Graphics/SVG/1.1/DTD/svg11.dtd">
<svg xmlns:xlink="http://www.w3.org/1999/xlink" width="720pt" height="216pt" viewBox="0 0 720 216" xmlns="http://www.w3.org/2000/svg" version="1.1">
 <metadata>
  <rdf:RDF xmlns:dc="http://purl.org/dc/elements/1.1/" xmlns:cc="http://creativecommons.org/ns#" xmlns:rdf="http://www.w3.org/1999/02/22-rdf-syntax-ns#">
   <cc:Work>
    <dc:type rdf:resource="http://purl.org/dc/dcmitype/StillImage"/>
    <dc:date>2025-12-17T10:22:12.317883</dc:date>
    <dc:format>image/svg+xml</dc:format>
    <dc:creator>
     <cc:Agent>
      <dc:title>Matplotlib v3.8.2, https://matplotlib.org/</dc:title>
     </cc:Agent>
    </dc:creator>
   </cc:Work>
  </rdf:RDF>
 </metadata>
 <defs>
  <style type="text/css">*{stroke-linejoin: round; stroke-linecap: butt}</style>
 </defs>
 <g id="figure_1">
  <g id="patch_1">
   <path d="M 0 216 
L 720 216 
L 720 0 
L 0 0 
z
" style="fill: #ffffff"/>
  </g>
  <g id="axes_1">
   <g id="patch_2">
    <path d="M 90 192.24 
L 648 192.24 
L 648 25.92 
L 90 25.92 
z
" style="fill: #ffffff"/>
   </g>
   <g id="line2d_1">
    <path d="M 90 192.24 
L 648 192.24 
" clip-path="url(#p83d5c2144c)" style="fill: none; stroke: #000000; stroke-width: 0.5; stroke-linecap: square"/>
   </g>
   <g id="patch_3">
    <path d="M 111.246493 191.921089 
Q 109.103749 192.080545 106.79911 192.160636 
Q 104.49447 192.24 102.037457 192.24 
Q 96.485371 192.24 93.242685 191.765275 
Q 90 191.290549 90 190.478711 
Q 90 189.657407 93.299825 189.186322 
Q 96.604412 188.715237 102.351726 188.715237 
Q 104.565895 188.715237 106.594359 188.77931 
Q 108.627584 188.842656 110.427489 188.96789 
L 110.427489 189.670512 
Q 108.570444 189.509601 106.732447 189.430237 
Q 104.894449 189.350146 103.046928 189.350146 
Q 99.628061 189.350146 97.775778 189.642844 
Q 95.923496 189.934815 95.923496 190.478711 
Q 95.923496 191.017509 97.709115 191.311664 
Q 99.494735 191.605091 102.780275 191.605091 
Q 103.675466 191.605091 104.442092 191.588345 
Q 105.208718 191.57087 105.818209 191.534465 
L 105.818209 190.8748 
L 102.318395 190.8748 
L 102.318395 190.287219 
L 111.246493 190.287219 
L 111.246493 191.921089 
z
" clip-path="url(#p83d5c2144c)" style="fill: #ffa600"/>
   </g>
   <g id="patch_4">
    <path d="M 104.717464 187.724482 
L 96.546405 187.724482 
L 95.256237 188.715237 
L 90 188.715237 
L 97.506428 183.276575 
L 103.740065 183.276575 
L 111.246493 188.715237 
L 105.9946 188.715237 
L 104.717464 187.724482 
z
M 97.849604 186.715078 
L 103.401233 186.715078 
L 100.629762 184.551735 
L 97.849604 186.715078 
z
" clip-path="url(#p83d5c2144c)" style="fill: #008000"/>
   </g>
   <g id="patch_5">
    <path d="M 111.246493 182.776986 
Q 109.469261 183.024621 107.547494 183.149878 
Q 105.625728 183.276575 103.532662 183.276575 
Q 97.290936 183.276575 93.645468 182.337865 
Q 90 181.399155 90 179.793845 
Q 90 178.182776 93.645468 177.245505 
Q 97.290936 176.306795 103.532662 176.306795 
Q 105.625728 176.306795 107.547494 176.433492 
Q 109.469261 176.558749 111.246493 176.806385 
L 111.246493 178.195733 
Q 109.453201 177.867473 107.71344 177.71486 
Q 105.97368 177.562248 104.051913 177.562248 
Q 100.604511 177.562248 98.629213 178.15686 
Q 96.659269 178.750033 96.659269 179.793845 
Q 96.659269 180.833337 98.629213 181.427949 
Q 100.604511 182.021122 104.051913 182.021122 
Q 105.97368 182.021122 107.71344 181.86851 
Q 109.453201 181.714458 111.246493 181.386197 
L 111.246493 182.776986 
z
" clip-path="url(#p83d5c2144c)" style="fill: #0000ff"/>
   </g>
   <g id="patch_6">
    <path d="M 90 157.598437 
L 111.246493 157.598437 
L 111.246493 161.247088 
L 103.602697 161.247088 
L 103.602697 176.306795 
L 97.65862 176.306795 
L 97.65862 161.247088 
L 90 161.247088 
L 90 157.598437 
z
" clip-path="url(#p83d5c2144c)" style="fill: #ff0000"/>
   </g>
   <g id="patch_7">
    <path d="M 133.611222 191.962694 
Q 131.83399 192.100149 129.912224 192.169675 
Q 127.990457 192.24 125.897391 192.24 
Q 119.655665 192.24 116.010197 191.718953 
Q 112.364729 191.197907 112.364729 190.306853 
Q 112.364729 189.412602 116.010197 188.892355 
Q 119.655665 188.371308 125.897391 188.371308 
Q 127.990457 188.371308 129.912224 188.441633 
Q 131.83399 188.51116 133.611222 188.648614 
L 133.611222 189.419795 
Q 131.817931 189.237588 130.07817 189.152878 
Q 128.338409 189.068168 126.416643 189.068168 
Q 122.96924 189.068168 120.993943 189.398218 
Q 119.023998 189.727468 119.023998 190.306853 
Q 119.023998 190.88384 120.993943 191.21389 
Q 122.96924 191.54314 126.416643 191.54314 
Q 128.338409 191.54314 130.07817 191.45843 
Q 131.817931 191.372921 133.611222 191.190714 
L 133.611222 191.962694 
z
" clip-path="url(#p83d5c2144c)" style="fill: #0000ff"/>
   </g>
   <g id="patch_8">
    <path d="M 133.611222 187.737597 
Q 131.468479 188.054452 129.163839 188.213604 
Q 126.859199 188.371308 124.402187 188.371308 
Q 118.8501 188.371308 115.607415 187.427975 
Q 112.364729 186.484642 112.364729 184.871427 
Q 112.364729 183.239403 115.664555 182.303304 
Q 118.969141 181.367206 124.716456 181.367206 
Q 126.930624 181.367206 128.959088 181.494527 
Q 130.992314 181.620401 132.792218 181.869255 
L 132.792218 183.265446 
Q 130.935174 182.945697 129.097176 182.787992 
Q 127.259178 182.628841 125.411657 182.628841 
Q 121.992791 182.628841 120.140508 183.210467 
Q 118.288225 183.790645 118.288225 184.871427 
Q 118.288225 185.942081 120.073845 186.5266 
Q 121.859464 187.109673 125.145004 187.109673 
Q 126.040195 187.109673 126.806821 187.076395 
Q 127.573447 187.041672 128.182939 186.96933 
L 128.182939 185.658502 
L 124.683124 185.658502 
L 124.683124 184.490911 
L 133.611222 184.490911 
L 133.611222 187.737597 
z
" clip-path="url(#p83d5c2144c)" style="fill: #ffa600"/>
   </g>
   <g id="patch_9">
    <path d="M 112.364729 171.328835 
L 133.611222 171.328835 
L 133.611222 173.286597 
L 125.967426 173.286597 
L 125.967426 181.367206 
L 120.023349 181.367206 
L 120.023349 173.286597 
L 112.364729 173.286597 
L 112.364729 171.328835 
z
" clip-path="url(#p83d5c2144c)" style="fill: #ff0000"/>
   </g>
   <g id="patch_10">
    <path d="M 127.082194 165.133437 
L 118.911134 165.133437 
L 117.620967 171.328835 
L 112.364729 171.328835 
L 119.871158 137.319745 
L 126.104794 137.319745 
L 133.611222 171.328835 
L 128.359329 171.328835 
L 127.082194 165.133437 
z
M 120.214333 158.82142 
L 125.765963 158.82142 
L 122.994492 145.293587 
L 120.214333 158.82142 
z
" clip-path="url(#p83d5c2144c)" style="fill: #008000"/>
   </g>
   <g id="patch_11">
    <path d="M 155.975952 191.933086 
Q 154.198719 192.085216 152.276953 192.162166 
Q 150.355187 192.24 148.262121 192.24 
Q 142.020395 192.24 138.374927 191.663319 
Q 134.729459 191.086639 134.729459 190.100445 
Q 134.729459 189.110712 138.374927 188.534916 
Q 142.020395 187.958236 148.262121 187.958236 
Q 150.355187 187.958236 152.276953 188.03607 
Q 154.198719 188.113019 155.975952 188.26515 
L 155.975952 189.118672 
Q 154.18266 188.917011 152.442899 188.823256 
Q 150.703139 188.729502 148.781372 188.729502 
Q 145.33397 188.729502 143.358672 189.094792 
Q 141.388728 189.459197 141.388728 190.100445 
Q 141.388728 190.739039 143.358672 191.104329 
Q 145.33397 191.468734 148.781372 191.468734 
Q 150.703139 191.468734 152.442899 191.374979 
Q 154.18266 191.28034 155.975952 191.078679 
L 155.975952 191.933086 
z
" clip-path="url(#p83d5c2144c)" style="fill: #0000ff"/>
   </g>
   <g id="patch_12">
    <path d="M 155.975952 187.500397 
Q 153.833208 187.729316 151.528569 187.844299 
Q 149.223929 187.958236 146.766916 187.958236 
Q 141.214829 187.958236 137.972144 187.276704 
Q 134.729459 186.595173 134.729459 185.42967 
Q 134.729459 184.250579 138.029284 183.574274 
Q 141.333871 182.897969 147.081185 182.897969 
Q 149.295354 182.897969 151.323818 182.989954 
Q 153.357043 183.080895 155.156948 183.260686 
L 155.156948 184.269394 
Q 153.299903 184.038384 151.461905 183.924447 
Q 149.623908 183.809465 147.776386 183.809465 
Q 144.35752 183.809465 142.505237 184.229673 
Q 140.652954 184.648836 140.652954 185.42967 
Q 140.652954 186.203187 142.438574 186.625486 
Q 144.224194 187.046739 147.509734 187.046739 
Q 148.404925 187.046739 149.171551 187.022698 
Q 149.938177 186.997611 150.547668 186.945346 
L 150.547668 185.99831 
L 147.047854 185.99831 
L 147.047854 185.154758 
L 155.975952 185.154758 
L 155.975952 187.500397 
z
" clip-path="url(#p83d5c2144c)" style="fill: #ffa600"/>
   </g>
   <g id="patch_13">
    <path d="M 134.729459 176.410447 
L 155.975952 176.410447 
L 155.975952 177.675694 
L 148.332155 177.675694 
L 148.332155 182.897969 
L 142.388078 182.897969 
L 142.388078 177.675694 
L 134.729459 177.675694 
L 134.729459 176.410447 
z
" clip-path="url(#p83d5c2144c)" style="fill: #ff0000"/>
   </g>
   <g id="patch_14">
    <path d="M 149.446923 172.876791 
L 141.275864 172.876791 
L 139.985696 176.410447 
L 134.729459 176.410447 
L 142.235887 157.012757 
L 148.469524 157.012757 
L 155.975952 176.410447 
L 150.724059 176.410447 
L 149.446923 172.876791 
z
M 142.579063 169.27662 
L 148.130692 169.27662 
L 145.359221 161.560779 
L 142.579063 169.27662 
z
" clip-path="url(#p83d5c2144c)" style="fill: #008000"/>
   </g>
   <g id="patch_15">
    <path d="M 178.340681 191.856291 
Q 176.197938 192.048145 173.893298 192.144511 
Q 171.588658 192.24 169.131646 192.24 
Q 163.579559 192.24 160.336874 191.668816 
Q 157.094188 191.097632 157.094188 190.120837 
Q 157.094188 189.132654 160.394013 188.56585 
Q 163.6986 187.999047 169.445915 187.999047 
Q 171.660083 187.999047 173.688547 188.076139 
Q 175.721773 188.152355 177.521677 188.303036 
L 177.521677 189.148423 
Q 175.664633 188.954816 173.826635 188.859327 
Q 171.988637 188.762962 170.141116 188.762962 
Q 166.72225 188.762962 164.869967 189.115133 
Q 163.017684 189.466429 163.017684 190.120837 
Q 163.017684 190.769114 164.803304 191.123038 
Q 166.588923 191.476085 169.874463 191.476085 
Q 170.769654 191.476085 171.53628 191.455936 
Q 172.302906 191.434911 172.912398 191.391109 
L 172.912398 190.597408 
L 169.412583 190.597408 
L 169.412583 189.890437 
L 178.340681 189.890437 
L 178.340681 191.856291 
z
" clip-path="url(#p83d5c2144c)" style="fill: #ffa600"/>
   </g>
   <g id="patch_16">
    <path d="M 178.340681 187.575634 
Q 176.563449 187.78551 174.641682 187.891668 
Q 172.719916 187.999047 170.62685 187.999047 
Q 164.385124 187.999047 160.739656 187.203469 
Q 157.094188 186.407891 157.094188 185.047356 
Q 157.094188 183.68194 160.739656 182.887582 
Q 164.385124 182.092005 170.62685 182.092005 
Q 172.719916 182.092005 174.641682 182.199383 
Q 176.563449 182.305542 178.340681 182.515418 
L 178.340681 183.692922 
Q 176.54739 183.414714 174.807629 183.285371 
Q 173.067868 183.156029 171.146102 183.156029 
Q 167.698699 183.156029 165.723401 183.659976 
Q 163.753457 184.162703 163.753457 185.047356 
Q 163.753457 185.928349 165.723401 186.432296 
Q 167.698699 186.935023 171.146102 186.935023 
Q 173.067868 186.935023 174.807629 186.80568 
Q 176.54739 186.675118 178.340681 186.39691 
L 178.340681 187.575634 
z
" clip-path="url(#p83d5c2144c)" style="fill: #0000ff"/>
   </g>
   <g id="patch_17">
    <path d="M 171.811653 179.498378 
L 163.640593 179.498378 
L 162.350426 182.092005 
L 157.094188 182.092005 
L 164.600616 167.854519 
L 170.834253 167.854519 
L 178.340681 182.092005 
L 173.088788 182.092005 
L 171.811653 179.498378 
z
M 164.943792 176.85593 
L 170.495421 176.85593 
L 167.723951 171.192669 
L 164.943792 176.85593 
z
" clip-path="url(#p83d5c2144c)" style="fill: #008000"/>
   </g>
   <g id="patch_18">
    <path d="M 157.094188 109.9958 
L 178.340681 109.9958 
L 178.340681 121.279862 
L 170.696885 121.279862 
L 170.696885 167.854519 
L 164.752808 167.854519 
L 164.752808 121.279862 
L 157.094188 121.279862 
L 157.094188 109.9958 
z
" clip-path="url(#p83d5c2144c)" style="fill: #ff0000"/>
   </g>
   <g id="patch_19">
    <path d="M 200.705411 192.119601 
Q 198.928178 192.17928 197.006412 192.209467 
Q 195.084645 192.24 192.99158 192.24 
Q 186.749853 192.24 183.104386 192.013775 
Q 179.458918 191.787549 179.458918 191.400676 
Q 179.458918 191.012415 183.104386 190.786537 
Q 186.749853 190.560312 192.99158 190.560312 
Q 195.084645 190.560312 197.006412 190.590845 
Q 198.928178 190.621032 200.705411 190.680711 
L 200.705411 191.015538 
Q 198.912119 190.936429 197.172358 190.89965 
Q 195.432598 190.862871 193.510831 190.862871 
Q 190.063428 190.862871 188.088131 191.00617 
Q 186.118186 191.149122 186.118186 191.400676 
Q 186.118186 191.65119 188.088131 191.794489 
Q 190.063428 191.937441 193.510831 191.937441 
Q 195.432598 191.937441 197.172358 191.900662 
Q 198.912119 191.863536 200.705411 191.784427 
L 200.705411 192.119601 
z
" clip-path="url(#p83d5c2144c)" style="fill: #0000ff"/>
   </g>
   <g id="patch_20">
    <path d="M 200.705411 190.280877 
Q 198.562667 190.420594 196.258027 190.490772 
Q 193.953388 190.560312 191.496375 190.560312 
Q 185.944288 190.560312 182.701603 190.144349 
Q 179.458918 189.728386 179.458918 189.017039 
Q 179.458918 188.297398 182.758743 187.884626 
Q 186.06333 187.471853 191.810644 187.471853 
Q 194.024813 187.471853 196.053276 187.527995 
Q 198.086502 187.583499 199.886407 187.693232 
L 199.886407 188.308882 
Q 198.029362 188.167888 196.191364 188.098349 
Q 194.353367 188.028171 192.505845 188.028171 
Q 189.086979 188.028171 187.234696 188.284639 
Q 185.382413 188.540468 185.382413 189.017039 
Q 185.382413 189.489144 187.168033 189.746888 
Q 188.953653 190.003994 192.239193 190.003994 
Q 193.134384 190.003994 193.90101 189.98932 
Q 194.667636 189.974009 195.277127 189.94211 
L 195.277127 189.3641 
L 191.777313 189.3641 
L 191.777313 188.849251 
L 200.705411 188.849251 
L 200.705411 190.280877 
z
" clip-path="url(#p83d5c2144c)" style="fill: #ffa600"/>
   </g>
   <g id="patch_21">
    <path d="M 179.458918 183.380999 
L 200.705411 183.380999 
L 200.705411 184.17883 
L 193.061614 184.17883 
L 193.061614 187.471853 
L 187.117537 187.471853 
L 187.117537 184.17883 
L 179.458918 184.17883 
L 179.458918 183.380999 
z
" clip-path="url(#p83d5c2144c)" style="fill: #ff0000"/>
   </g>
   <g id="patch_22">
    <path d="M 194.176382 182.31498 
L 186.005322 182.31498 
L 184.715155 183.380999 
L 179.458918 183.380999 
L 186.965346 177.529182 
L 193.198983 177.529182 
L 200.705411 183.380999 
L 195.453518 183.380999 
L 194.176382 182.31498 
z
M 187.308522 181.228895 
L 192.860151 181.228895 
L 190.08868 178.901211 
L 187.308522 181.228895 
z
" clip-path="url(#p83d5c2144c)" style="fill: #008000"/>
   </g>
   <g id="patch_23">
    <path d="M 223.07014 191.967607 
Q 221.292908 192.102626 219.371141 192.17092 
Q 217.449375 192.24 215.356309 192.24 
Q 209.114583 192.24 205.469115 191.728184 
Q 201.823647 191.216367 201.823647 190.341098 
Q 201.823647 189.46269 205.469115 188.951658 
Q 209.114583 188.439842 215.356309 188.439842 
Q 217.449375 188.439842 219.371141 188.508921 
Q 221.292908 188.577216 223.07014 188.712235 
L 223.07014 189.469754 
Q 221.276848 189.290776 219.537088 189.207566 
Q 217.797327 189.124357 215.875561 189.124357 
Q 212.428158 189.124357 210.45286 189.44856 
Q 208.482916 189.771977 208.482916 190.341098 
Q 208.482916 190.907864 210.45286 191.232067 
Q 212.428158 191.555485 215.875561 191.555485 
Q 217.797327 191.555485 219.537088 191.472275 
Q 221.276848 191.388281 223.07014 191.209302 
L 223.07014 191.967607 
z
" clip-path="url(#p83d5c2144c)" style="fill: #0000ff"/>
   </g>
   <g id="patch_24">
    <path d="M 201.823647 179.136006 
L 223.07014 179.136006 
L 223.07014 180.950513 
L 215.426344 180.950513 
L 215.426344 188.439842 
L 209.482267 188.439842 
L 209.482267 180.950513 
L 201.823647 180.950513 
L 201.823647 179.136006 
z
" clip-path="url(#p83d5c2144c)" style="fill: #ff0000"/>
   </g>
   <g id="patch_25">
    <path d="M 223.07014 178.246797 
Q 220.927397 178.691401 218.622757 178.914719 
Q 216.318117 179.136006 213.861105 179.136006 
Q 208.309018 179.136006 205.066333 177.812343 
Q 201.823647 176.48868 201.823647 174.225054 
Q 201.823647 171.935035 205.123472 170.621523 
Q 208.428059 169.308011 214.175374 169.308011 
Q 216.389542 169.308011 218.418006 169.486664 
Q 220.451231 169.663288 222.251136 170.012475 
L 222.251136 171.971578 
Q 220.394092 171.522913 218.556094 171.301626 
Q 216.718096 171.078308 214.870575 171.078308 
Q 211.451708 171.078308 209.599426 171.894432 
Q 207.747143 172.708525 207.747143 174.225054 
Q 207.747143 175.727371 209.532763 176.547554 
Q 211.318382 177.365708 214.603922 177.365708 
Q 215.499113 177.365708 216.265739 177.319014 
Q 217.032365 177.270291 217.641857 177.168783 
L 217.641857 175.32946 
L 214.142042 175.32946 
L 214.142042 173.691122 
L 223.07014 173.691122 
L 223.07014 178.246797 
z
" clip-path="url(#p83d5c2144c)" style="fill: #ffa600"/>
   </g>
   <g id="patch_26">
    <path d="M 216.541112 160.523336 
L 208.370052 160.523336 
L 207.079885 169.308011 
L 201.823647 169.308011 
L 209.330075 121.085313 
L 215.563712 121.085313 
L 223.07014 169.308011 
L 217.818247 169.308011 
L 216.541112 160.523336 
z
M 209.673251 151.573302 
L 215.22488 151.573302 
L 212.45341 132.391706 
L 209.673251 151.573302 
z
" clip-path="url(#p83d5c2144c)" style="fill: #008000"/>
   </g>
   <g id="patch_27">
    <path d="M 245.43487 191.953343 
Q 243.657637 192.095432 241.735871 192.167303 
Q 239.814104 192.24 237.721038 192.24 
Q 231.479312 192.24 227.833845 191.701382 
Q 224.188377 191.162764 224.188377 190.24166 
Q 224.188377 189.317253 227.833845 188.77946 
Q 231.479312 188.240842 237.721038 188.240842 
Q 239.814104 188.240842 241.735871 188.313539 
Q 243.657637 188.38541 245.43487 188.527499 
L 245.43487 189.324687 
Q 243.641578 189.136336 241.901817 189.04877 
Q 240.162057 188.961203 238.24029 188.961203 
Q 234.792887 188.961203 232.81759 189.302383 
Q 230.847645 189.642737 230.847645 190.24166 
Q 230.847645 190.838106 232.81759 191.179286 
Q 234.792887 191.519639 238.24029 191.519639 
Q 240.162057 191.519639 241.901817 191.432073 
Q 243.641578 191.34368 245.43487 191.155329 
L 245.43487 191.953343 
z
" clip-path="url(#p83d5c2144c)" style="fill: #0000ff"/>
   </g>
   <g id="patch_28">
    <path d="M 245.43487 187.507655 
Q 243.292126 187.874249 240.987486 188.058382 
Q 238.682847 188.240842 236.225834 188.240842 
Q 230.673747 188.240842 227.431062 187.149432 
Q 224.188377 186.058021 224.188377 184.191575 
Q 224.188377 182.303367 227.488202 181.220327 
Q 230.792789 180.137286 236.540103 180.137286 
Q 238.754271 180.137286 240.782735 180.284593 
Q 242.815961 180.430226 244.615866 180.718144 
L 244.615866 182.333498 
Q 242.758821 181.963557 240.920823 181.781097 
Q 239.082825 181.596964 237.235304 181.596964 
Q 233.816438 181.596964 231.964155 182.269889 
Q 230.111872 182.94114 230.111872 184.191575 
Q 230.111872 185.430292 231.897492 186.106565 
Q 233.683112 186.781164 236.968652 186.781164 
Q 237.863842 186.781164 238.630468 186.742663 
Q 239.397095 186.702489 240.006586 186.618792 
L 240.006586 185.1022 
L 236.506771 185.1022 
L 236.506771 183.751328 
L 245.43487 183.751328 
L 245.43487 187.507655 
z
" clip-path="url(#p83d5c2144c)" style="fill: #ffa600"/>
   </g>
   <g id="patch_29">
    <path d="M 238.905841 178.507697 
L 230.734781 178.507697 
L 229.444614 180.137286 
L 224.188377 180.137286 
L 231.694805 171.191801 
L 237.928442 171.191801 
L 245.43487 180.137286 
L 240.182976 180.137286 
L 238.905841 178.507697 
z
M 232.037981 176.847433 
L 237.58961 176.847433 
L 234.818139 173.289178 
L 232.037981 176.847433 
z
" clip-path="url(#p83d5c2144c)" style="fill: #008000"/>
   </g>
   <g id="patch_30">
    <path d="M 224.188377 135.09414 
L 245.43487 135.09414 
L 245.43487 142.134189 
L 237.791073 142.134189 
L 237.791073 171.191801 
L 231.846996 171.191801 
L 231.846996 142.134189 
L 224.188377 142.134189 
L 224.188377 135.09414 
z
" clip-path="url(#p83d5c2144c)" style="fill: #ff0000"/>
   </g>
   <g id="patch_31">
    <path d="M 246.553106 187.234953 
L 267.799599 187.234953 
L 267.799599 188.211077 
L 260.155803 188.211077 
L 260.155803 192.24 
L 254.211726 192.24 
L 254.211726 188.211077 
L 246.553106 188.211077 
L 246.553106 187.234953 
z
" clip-path="url(#p83d5c2144c)" style="fill: #ff0000"/>
   </g>
   <g id="patch_32">
    <path d="M 267.799599 186.779605 
Q 266.022367 187.005311 264.1006 187.119476 
Q 262.178834 187.234953 260.085768 187.234953 
Q 253.844042 187.234953 250.198574 186.379372 
Q 246.553106 185.523791 246.553106 184.060642 
Q 246.553106 182.592244 250.198574 181.737975 
Q 253.844042 180.882394 260.085768 180.882394 
Q 262.178834 180.882394 264.1006 180.997871 
Q 266.022367 181.112036 267.799599 181.337741 
L 267.799599 182.604054 
Q 266.006307 182.304863 264.266547 182.165766 
Q 262.526786 182.026668 260.60502 182.026668 
Q 257.157617 182.026668 255.182319 182.568624 
Q 253.212375 183.109267 253.212375 184.060642 
Q 253.212375 185.00808 255.182319 185.550035 
Q 257.157617 186.090679 260.60502 186.090679 
Q 262.526786 186.090679 264.266547 185.951581 
Q 266.006307 185.811171 267.799599 185.51198 
L 267.799599 186.779605 
z
" clip-path="url(#p83d5c2144c)" style="fill: #0000ff"/>
   </g>
   <g id="patch_33">
    <path d="M 267.799599 179.802538 
Q 265.656856 180.342466 263.352216 180.613663 
Q 261.047576 180.882394 258.590563 180.882394 
Q 253.038477 180.882394 249.795791 179.274938 
Q 246.553106 177.667482 246.553106 174.918536 
Q 246.553106 172.137539 249.852931 170.54241 
Q 253.157518 168.947282 258.904833 168.947282 
Q 261.119001 168.947282 263.147465 169.164239 
Q 265.18069 169.378731 266.980595 169.802784 
L 266.980595 172.181917 
Q 265.123551 171.637058 263.285553 171.368327 
Q 261.447555 171.097131 259.600034 171.097131 
Q 256.181167 171.097131 254.328885 172.088231 
Q 252.476602 173.076865 252.476602 174.918536 
Q 252.476602 176.742949 254.262221 177.73898 
Q 256.047841 178.732545 259.333381 178.732545 
Q 260.228572 178.732545 260.995198 178.67584 
Q 261.761824 178.61667 262.371315 178.493399 
L 262.371315 176.259726 
L 258.871501 176.259726 
L 258.871501 174.27013 
L 267.799599 174.27013 
L 267.799599 179.802538 
z
" clip-path="url(#p83d5c2144c)" style="fill: #ffa600"/>
   </g>
   <g id="patch_34">
    <path d="M 261.270571 154.148654 
L 253.099511 154.148654 
L 251.809343 168.947282 
L 246.553106 168.947282 
L 254.059534 87.711521 
L 260.293171 87.711521 
L 267.799599 168.947282 
L 262.547706 168.947282 
L 261.270571 154.148654 
z
M 254.40271 139.071464 
L 259.954339 139.071464 
L 257.182869 106.758226 
L 254.40271 139.071464 
z
" clip-path="url(#p83d5c2144c)" style="fill: #008000"/>
   </g>
   <g id="patch_35">
    <path d="M 283.6353 191.592395 
L 275.46424 191.592395 
L 274.174073 192.24 
L 268.917836 192.24 
L 276.424264 188.685031 
L 282.657901 188.685031 
L 290.164329 192.24 
L 284.912435 192.24 
L 283.6353 191.592395 
z
M 276.76744 190.9326 
L 282.319069 190.9326 
L 279.547598 189.518536 
L 276.76744 190.9326 
z
" clip-path="url(#p83d5c2144c)" style="fill: #008000"/>
   </g>
   <g id="patch_36">
    <path d="M 290.164329 188.193596 
Q 288.387096 188.437189 286.46533 188.560402 
Q 284.543563 188.685031 282.450497 188.685031 
Q 276.208771 188.685031 272.563303 187.761643 
Q 268.917836 186.838255 268.917836 185.259149 
Q 268.917836 183.674378 272.563303 182.752406 
Q 276.208771 181.829018 282.450497 181.829018 
Q 284.543563 181.829018 286.46533 181.953648 
Q 288.387096 182.07686 290.164329 182.320453 
L 290.164329 183.687124 
Q 288.371037 183.364221 286.631276 183.2141 
Q 284.891515 183.063979 282.969749 183.063979 
Q 279.522346 183.063979 277.547049 183.648885 
Q 275.577104 184.232376 275.577104 185.259149 
Q 275.577104 186.281673 277.547049 186.86658 
Q 279.522346 187.45007 282.969749 187.45007 
Q 284.891515 187.45007 286.631276 187.299949 
Q 288.371037 187.148412 290.164329 186.825509 
L 290.164329 188.193596 
z
" clip-path="url(#p83d5c2144c)" style="fill: #0000ff"/>
   </g>
   <g id="patch_37">
    <path d="M 290.164329 180.97896 
Q 288.021585 181.403989 285.716945 181.617474 
Q 283.412306 181.829018 280.955293 181.829018 
Q 275.403206 181.829018 272.160521 180.563635 
Q 268.917836 179.298252 268.917836 177.134292 
Q 268.917836 174.945101 272.217661 173.689422 
Q 275.522248 172.433743 281.269562 172.433743 
Q 283.48373 172.433743 285.512194 172.60453 
Q 287.54542 172.773378 289.345324 173.10719 
L 289.345324 174.980035 
Q 287.48828 174.551124 285.650282 174.33958 
Q 283.812284 174.126095 281.964763 174.126095 
Q 278.545897 174.126095 276.693614 174.906286 
Q 274.841331 175.684535 274.841331 177.134292 
Q 274.841331 178.570463 276.626951 179.354535 
Q 278.412571 180.136666 281.698111 180.136666 
Q 282.593301 180.136666 283.359927 180.092028 
Q 284.126553 180.045449 284.736045 179.948411 
L 284.736045 178.190071 
L 281.23623 178.190071 
L 281.23623 176.623869 
L 290.164329 176.623869 
L 290.164329 180.97896 
z
" clip-path="url(#p83d5c2144c)" style="fill: #ffa600"/>
   </g>
   <g id="patch_38">
    <path d="M 268.917836 54.357977 
L 290.164329 54.357977 
L 290.164329 77.386041 
L 282.520532 77.386041 
L 282.520532 172.433743 
L 276.576455 172.433743 
L 276.576455 77.386041 
L 268.917836 77.386041 
L 268.917836 54.357977 
z
" clip-path="url(#p83d5c2144c)" style="fill: #ff0000"/>
   </g>
   <g id="patch_39">
    <path d="M 312.529058 191.908664 
Q 310.751826 192.0729 308.830059 192.155972 
Q 306.908293 192.24 304.815227 192.24 
Q 298.573501 192.24 294.928033 191.617432 
Q 291.282565 190.994865 291.282565 189.930197 
Q 291.282565 188.861711 294.928033 188.240098 
Q 298.573501 187.61753 304.815227 187.61753 
Q 306.908293 187.61753 308.830059 187.701558 
Q 310.751826 187.784631 312.529058 187.948866 
L 312.529058 188.870305 
Q 310.735766 188.652597 308.996006 188.551382 
Q 307.256245 188.450167 305.334478 188.450167 
Q 301.887076 188.450167 299.911778 188.844523 
Q 297.941834 189.237925 297.941834 189.930197 
Q 297.941834 190.619605 299.911778 191.013962 
Q 301.887076 191.407363 305.334478 191.407363 
Q 307.256245 191.407363 308.996006 191.306148 
Q 310.735766 191.203979 312.529058 190.986271 
L 312.529058 191.908664 
z
" clip-path="url(#p83d5c2144c)" style="fill: #0000ff"/>
   </g>
   <g id="patch_40">
    <path d="M 312.529058 187.013423 
Q 310.386315 187.315477 308.081675 187.467193 
Q 305.777035 187.61753 303.320022 187.61753 
Q 297.767936 187.61753 294.52525 186.718266 
Q 291.282565 185.819001 291.282565 184.281149 
Q 291.282565 182.725366 294.58239 181.832998 
Q 297.886977 180.94063 303.634291 180.94063 
Q 305.84846 180.94063 307.876924 181.062003 
Q 309.910149 181.181997 311.710054 181.419226 
L 311.710054 182.750193 
Q 309.853009 182.445381 308.015012 182.295043 
Q 306.177014 182.143327 304.329493 182.143327 
Q 300.910626 182.143327 299.058343 182.697781 
Q 297.206061 183.250857 297.206061 184.281149 
Q 297.206061 185.301786 298.99168 185.858999 
Q 300.7773 186.414833 304.06284 186.414833 
Q 304.958031 186.414833 305.724657 186.383111 
Q 306.491283 186.350009 307.100774 186.281047 
L 307.100774 185.031455 
L 303.60096 185.031455 
L 303.60096 183.918409 
L 312.529058 183.918409 
L 312.529058 187.013423 
z
" clip-path="url(#p83d5c2144c)" style="fill: #ffa600"/>
   </g>
   <g id="patch_41">
    <path d="M 306.00003 179.490398 
L 297.82897 179.490398 
L 296.538802 180.94063 
L 291.282565 180.94063 
L 298.788993 172.97971 
L 305.02263 172.97971 
L 312.529058 180.94063 
L 307.277165 180.94063 
L 306.00003 179.490398 
z
M 299.132169 178.012868 
L 304.683798 178.012868 
L 301.912328 174.846244 
L 299.132169 178.012868 
z
" clip-path="url(#p83d5c2144c)" style="fill: #008000"/>
   </g>
   <g id="patch_42">
    <path d="M 291.282565 52.795499 
L 312.529058 52.795499 
L 312.529058 76.234769 
L 304.885262 76.234769 
L 304.885262 172.97971 
L 298.941185 172.97971 
L 298.941185 76.234769 
L 291.282565 76.234769 
L 291.282565 52.795499 
z
" clip-path="url(#p83d5c2144c)" style="fill: #ff0000"/>
   </g>
   <g id="patch_43">
    <path d="M 334.893788 191.954581 
Q 333.116555 192.096057 331.194789 192.167617 
Q 329.273022 192.24 327.179956 192.24 
Q 320.93823 192.24 317.292762 191.703709 
Q 313.647295 191.167418 313.647295 190.250295 
Q 313.647295 189.329881 317.292762 188.794413 
Q 320.93823 188.258122 327.179956 188.258122 
Q 329.273022 188.258122 331.194789 188.330504 
Q 333.116555 188.402065 334.893788 188.54354 
L 334.893788 189.337284 
Q 333.100496 189.149746 331.360735 189.062558 
Q 329.620974 188.97537 327.699208 188.97537 
Q 324.251805 188.97537 322.276508 189.315075 
Q 320.306563 189.653959 320.306563 190.250295 
Q 320.306563 190.844163 322.276508 191.183869 
Q 324.251805 191.522752 327.699208 191.522752 
Q 329.620974 191.522752 331.360735 191.435563 
Q 333.100496 191.347553 334.893788 191.160015 
L 334.893788 191.954581 
z
" clip-path="url(#p83d5c2144c)" style="fill: #0000ff"/>
   </g>
   <g id="patch_44">
    <path d="M 328.364759 187.365353 
L 320.193699 187.365353 
L 318.903532 188.258122 
L 313.647295 188.258122 
L 321.153723 183.357348 
L 327.387359 183.357348 
L 334.893788 188.258122 
L 329.641894 188.258122 
L 328.364759 187.365353 
z
M 321.496899 186.45578 
L 327.048528 186.45578 
L 324.277057 184.506394 
L 321.496899 186.45578 
z
" clip-path="url(#p83d5c2144c)" style="fill: #008000"/>
   </g>
   <g id="patch_45">
    <path d="M 334.893788 182.858514 
Q 332.751044 183.107931 330.446404 183.233209 
Q 328.141764 183.357348 325.684752 183.357348 
Q 320.132665 183.357348 316.88998 182.614791 
Q 313.647295 181.872235 313.647295 180.602371 
Q 313.647295 179.317703 316.94712 178.58084 
Q 320.251706 177.843978 325.999021 177.843978 
Q 328.213189 177.843978 330.241653 177.9442 
Q 332.274879 178.043284 334.074783 178.239173 
L 334.074783 179.338203 
Q 332.217739 179.086508 330.379741 178.962369 
Q 328.541743 178.837091 326.694222 178.837091 
Q 323.275356 178.837091 321.423073 179.294925 
Q 319.57079 179.75162 319.57079 180.602371 
Q 319.57079 181.44515 321.35641 181.905262 
Q 323.142029 182.364235 326.42757 182.364235 
Q 327.32276 182.364235 328.089386 182.338041 
Q 328.856012 182.310707 329.465504 182.253763 
L 329.465504 181.221928 
L 325.965689 181.221928 
L 325.965689 180.302843 
L 334.893788 180.302843 
L 334.893788 182.858514 
z
" clip-path="url(#p83d5c2144c)" style="fill: #ffa600"/>
   </g>
   <g id="patch_46">
    <path d="M 313.647295 25.92 
L 334.893788 25.92 
L 334.893788 55.549408 
L 327.249991 55.549408 
L 327.249991 177.843978 
L 321.305914 177.843978 
L 321.305914 55.549408 
L 313.647295 55.549408 
L 313.647295 25.92 
z
" clip-path="url(#p83d5c2144c)" style="fill: #ff0000"/>
   </g>
   <g id="patch_47">
    <path d="M 350.729488 191.534282 
L 342.558429 191.534282 
L 341.268261 192.24 
L 336.012024 192.24 
L 343.518452 188.366021 
L 349.752089 188.366021 
L 357.258517 192.24 
L 352.006624 192.24 
L 350.729488 191.534282 
z
M 343.861628 190.815279 
L 349.413257 190.815279 
L 346.641787 189.274322 
L 343.861628 190.815279 
z
" clip-path="url(#p83d5c2144c)" style="fill: #008000"/>
   </g>
   <g id="patch_48">
    <path d="M 357.258517 187.86114 
Q 355.481285 188.111398 353.559518 188.237982 
Q 351.637752 188.366021 349.544686 188.366021 
Q 343.30296 188.366021 339.657492 187.417368 
Q 336.012024 186.468716 336.012024 184.846404 
Q 336.012024 183.218272 339.657492 182.271074 
Q 343.30296 181.322422 349.544686 181.322422 
Q 351.637752 181.322422 353.559518 181.450461 
Q 355.481285 181.577045 357.258517 181.827303 
L 357.258517 183.231367 
Q 355.465225 182.899629 353.725465 182.7454 
Q 351.985704 182.591172 350.063937 182.591172 
Q 346.616535 182.591172 344.641237 183.192082 
Q 342.671293 183.791537 342.671293 184.846404 
Q 342.671293 185.896905 344.641237 186.497815 
Q 346.616535 187.097271 350.063937 187.097271 
Q 351.985704 187.097271 353.725465 186.943042 
Q 355.465225 186.787358 357.258517 186.455621 
L 357.258517 187.86114 
z
" clip-path="url(#p83d5c2144c)" style="fill: #0000ff"/>
   </g>
   <g id="patch_49">
    <path d="M 357.258517 180.127513 
Q 355.115773 180.724967 352.811134 181.025058 
Q 350.506494 181.322422 348.049481 181.322422 
Q 342.497395 181.322422 339.254709 179.543698 
Q 336.012024 177.764975 336.012024 174.72314 
Q 336.012024 171.645839 339.311849 169.880757 
Q 342.616436 168.115674 348.36375 168.115674 
Q 350.577919 168.115674 352.606383 168.355747 
Q 354.639608 168.593092 356.439513 169.062326 
L 356.439513 171.694945 
Q 354.582468 171.092034 352.744471 170.794671 
Q 350.906473 170.49458 349.058952 170.49458 
Q 345.640085 170.49458 343.787802 171.591277 
Q 341.93552 172.685247 341.93552 174.72314 
Q 341.93552 176.741936 343.721139 177.84409 
Q 345.506759 178.943516 348.792299 178.943516 
Q 349.68749 178.943516 350.454116 178.880769 
Q 351.220742 178.815295 351.830233 178.67889 
L 351.830233 176.207228 
L 348.330419 176.207228 
L 348.330419 174.005649 
L 357.258517 174.005649 
L 357.258517 180.127513 
z
" clip-path="url(#p83d5c2144c)" style="fill: #ffa600"/>
   </g>
   <g id="patch_50">
    <path d="M 336.012024 96.623145 
L 357.258517 96.623145 
L 357.258517 110.56618 
L 349.614721 110.56618 
L 349.614721 168.115674 
L 343.670644 168.115674 
L 343.670644 110.56618 
L 336.012024 110.56618 
L 336.012024 96.623145 
z
" clip-path="url(#p83d5c2144c)" style="fill: #ff0000"/>
   </g>
   <g id="patch_51">
    <path d="M 379.623246 192.00097 
Q 377.846014 192.119452 375.924248 192.179381 
Q 374.002481 192.24 371.909415 192.24 
Q 365.667689 192.24 362.022221 191.790872 
Q 358.376754 191.341743 358.376754 190.573679 
Q 358.376754 189.802859 362.022221 189.354419 
Q 365.667689 188.905291 371.909415 188.905291 
Q 374.002481 188.905291 375.924248 188.965909 
Q 377.846014 189.025839 379.623246 189.144321 
L 379.623246 189.809058 
Q 377.829955 189.652001 376.090194 189.578983 
Q 374.350433 189.505966 372.428667 189.505966 
Q 368.981264 189.505966 367.005967 189.790459 
Q 365.036022 190.074264 365.036022 190.573679 
Q 365.036022 191.071026 367.005967 191.35552 
Q 368.981264 191.639325 372.428667 191.639325 
Q 374.350433 191.639325 376.090194 191.566307 
Q 377.829955 191.492601 379.623246 191.335544 
L 379.623246 192.00097 
z
" clip-path="url(#p83d5c2144c)" style="fill: #0000ff"/>
   </g>
   <g id="patch_52">
    <path d="M 358.376754 182.853411 
L 379.623246 182.853411 
L 379.623246 184.033696 
L 371.97945 184.033696 
L 371.97945 188.905291 
L 366.035373 188.905291 
L 366.035373 184.033696 
L 358.376754 184.033696 
L 358.376754 182.853411 
z
" clip-path="url(#p83d5c2144c)" style="fill: #ff0000"/>
   </g>
   <g id="patch_53">
    <path d="M 379.623246 181.52363 
Q 377.480503 182.18852 375.175863 182.522484 
Q 372.871223 182.853411 370.414211 182.853411 
Q 364.862124 182.853411 361.619439 180.873919 
Q 358.376754 178.894428 358.376754 175.509254 
Q 358.376754 172.084612 361.676579 170.120301 
Q 364.981165 168.155989 370.72848 168.155989 
Q 372.942648 168.155989 374.971112 168.42316 
Q 377.004338 168.687294 378.804242 169.209491 
L 378.804242 172.139261 
Q 376.947198 171.468298 375.1092 171.137371 
Q 373.271202 170.803407 371.423681 170.803407 
Q 368.004815 170.803407 366.152532 172.023891 
Q 364.300249 173.24134 364.300249 175.509254 
Q 364.300249 177.755916 366.085869 178.982473 
Q 367.871488 180.205993 371.157029 180.205993 
Q 372.052219 180.205993 372.818845 180.136164 
Q 373.585471 180.063299 374.194963 179.911498 
L 374.194963 177.160854 
L 370.695148 177.160854 
L 370.695148 174.710778 
L 379.623246 174.710778 
L 379.623246 181.52363 
z
" clip-path="url(#p83d5c2144c)" style="fill: #ffa600"/>
   </g>
   <g id="patch_54">
    <path d="M 373.094218 160.326244 
L 364.923158 160.326244 
L 363.632991 168.155989 
L 358.376754 168.155989 
L 365.883182 125.175292 
L 372.116818 125.175292 
L 379.623246 168.155989 
L 374.371353 168.155989 
L 373.094218 160.326244 
z
M 366.226357 152.349115 
L 371.777987 152.349115 
L 369.006516 135.252635 
L 366.226357 152.349115 
z
" clip-path="url(#p83d5c2144c)" style="fill: #008000"/>
   </g>
   <g id="patch_55">
    <path d="M 401.987976 191.949093 
Q 400.210743 192.093289 398.288977 192.166225 
Q 396.367211 192.24 394.274145 192.24 
Q 388.032419 192.24 384.386951 191.693396 
Q 380.741483 191.146793 380.741483 190.212033 
Q 380.741483 189.27392 384.386951 188.728155 
Q 388.032419 188.181551 394.274145 188.181551 
Q 396.367211 188.181551 398.288977 188.255326 
Q 400.210743 188.328262 401.987976 188.472458 
L 401.987976 189.281466 
Q 400.194684 189.090322 398.454923 189.001457 
Q 396.715163 188.912592 394.793396 188.912592 
Q 391.345994 188.912592 389.370696 189.25883 
Q 387.400752 189.60423 387.400752 190.212033 
Q 387.400752 190.817321 389.370696 191.16356 
Q 391.345994 191.508959 394.793396 191.508959 
Q 396.715163 191.508959 398.454923 191.420094 
Q 400.194684 191.330391 401.987976 191.139247 
L 401.987976 191.949093 
z
" clip-path="url(#p83d5c2144c)" style="fill: #0000ff"/>
   </g>
   <g id="patch_56">
    <path d="M 380.741483 183.92018 
L 401.987976 183.92018 
L 401.987976 184.751266 
L 394.34418 184.751266 
L 394.34418 188.181551 
L 388.400103 188.181551 
L 388.400103 184.751266 
L 380.741483 184.751266 
L 380.741483 183.92018 
z
" clip-path="url(#p83d5c2144c)" style="fill: #ff0000"/>
   </g>
   <g id="patch_57">
    <path d="M 401.987976 183.142947 
Q 399.845232 183.531563 397.540593 183.726759 
Q 395.235953 183.92018 392.77894 183.92018 
Q 387.226854 183.92018 383.984168 182.763202 
Q 380.741483 181.606224 380.741483 179.62765 
Q 380.741483 177.626008 384.041308 176.477902 
Q 387.345895 175.329797 393.093209 175.329797 
Q 395.307378 175.329797 397.335842 175.485954 
Q 399.369067 175.640336 401.168972 175.945551 
L 401.168972 177.657949 
Q 399.311927 177.265783 397.473929 177.072362 
Q 395.635932 176.877166 393.788411 176.877166 
Q 390.369544 176.877166 388.517261 177.590518 
Q 386.664979 178.302094 386.664979 179.62765 
Q 386.664979 180.940785 388.450598 181.657685 
Q 390.236218 182.372811 393.521758 182.372811 
Q 394.416949 182.372811 395.183575 182.331997 
Q 395.950201 182.289409 396.559692 182.200684 
L 396.559692 180.592982 
L 393.059878 180.592982 
L 393.059878 179.160955 
L 401.987976 179.160955 
L 401.987976 183.142947 
z
" clip-path="url(#p83d5c2144c)" style="fill: #ffa600"/>
   </g>
   <g id="patch_58">
    <path d="M 395.458947 171.719436 
L 387.287888 171.719436 
L 385.99772 175.329797 
L 380.741483 175.329797 
L 388.247911 155.511039 
L 394.481548 155.511039 
L 401.987976 175.329797 
L 396.736083 175.329797 
L 395.458947 171.719436 
z
M 388.591087 168.041115 
L 394.142716 168.041115 
L 391.371245 160.157786 
L 388.591087 168.041115 
z
" clip-path="url(#p83d5c2144c)" style="fill: #008000"/>
   </g>
   <g id="patch_59">
    <path d="M 424.352705 191.98676 
Q 422.209962 192.11338 419.905322 192.176979 
Q 417.600682 192.24 415.14367 192.24 
Q 409.591583 192.24 406.348898 191.863031 
Q 403.106212 191.486062 403.106212 190.841398 
Q 403.106212 190.189219 406.406038 189.81514 
Q 409.710624 189.441062 415.457939 189.441062 
Q 417.672107 189.441062 419.700571 189.491941 
Q 421.733797 189.542242 423.533701 189.641688 
L 423.533701 190.199626 
Q 421.676657 190.071849 419.838659 190.008828 
Q 418.000661 189.945229 416.15314 189.945229 
Q 412.734274 189.945229 410.881991 190.177655 
Q 409.029708 190.409503 409.029708 190.841398 
Q 409.029708 191.269247 410.815328 191.502829 
Q 412.600947 191.735833 415.886487 191.735833 
Q 416.781678 191.735833 417.548304 191.722535 
Q 418.31493 191.708659 418.924422 191.67975 
L 418.924422 191.155925 
L 415.424607 191.155925 
L 415.424607 190.689339 
L 424.352705 190.689339 
L 424.352705 191.98676 
z
" clip-path="url(#p83d5c2144c)" style="fill: #ffa600"/>
   </g>
   <g id="patch_60">
    <path d="M 424.352705 189.234621 
Q 422.575473 189.336949 420.653707 189.388708 
Q 418.73194 189.441062 416.638874 189.441062 
Q 410.397148 189.441062 406.75168 189.053166 
Q 403.106212 188.66527 403.106212 188.001921 
Q 403.106212 187.336192 406.75168 186.948891 
Q 410.397148 186.560995 416.638874 186.560995 
Q 418.73194 186.560995 420.653707 186.613349 
Q 422.575473 186.665108 424.352705 186.767437 
L 424.352705 187.341546 
Q 422.559414 187.205902 420.819653 187.142839 
Q 419.079892 187.079776 417.158126 187.079776 
Q 413.710723 187.079776 411.735425 187.325483 
Q 409.765481 187.570595 409.765481 188.001921 
Q 409.765481 188.431462 411.735425 188.677169 
Q 413.710723 188.922281 417.158126 188.922281 
Q 419.079892 188.922281 420.819653 188.859218 
Q 422.559414 188.795561 424.352705 188.659916 
L 424.352705 189.234621 
z
" clip-path="url(#p83d5c2144c)" style="fill: #0000ff"/>
   </g>
   <g id="patch_61">
    <path d="M 417.823677 185.31216 
L 409.652617 185.31216 
L 408.36245 186.560995 
L 403.106212 186.560995 
L 410.612641 179.705625 
L 416.846277 179.705625 
L 424.352705 186.560995 
L 419.100812 186.560995 
L 417.823677 185.31216 
z
M 410.955816 184.039818 
L 416.507445 184.039818 
L 413.735975 181.31295 
L 410.955816 184.039818 
z
" clip-path="url(#p83d5c2144c)" style="fill: #008000"/>
   </g>
   <g id="patch_62">
    <path d="M 403.106212 170.213575 
L 424.352705 170.213575 
L 424.352705 172.064789 
L 416.708909 172.064789 
L 416.708909 179.705625 
L 410.764832 179.705625 
L 410.764832 172.064789 
L 403.106212 172.064789 
L 403.106212 170.213575 
z
" clip-path="url(#p83d5c2144c)" style="fill: #ff0000"/>
   </g>
   <g id="patch_63">
    <path d="M 446.717435 191.990058 
Q 444.940202 192.113948 443.018436 192.176614 
Q 441.09667 192.24 439.003604 192.24 
Q 432.761877 192.24 429.11641 191.770368 
Q 425.470942 191.300736 425.470942 190.497608 
Q 425.470942 189.691598 429.11641 189.222686 
Q 432.761877 188.753054 439.003604 188.753054 
Q 441.09667 188.753054 443.018436 188.81644 
Q 444.940202 188.879106 446.717435 189.002997 
L 446.717435 189.698081 
Q 444.924143 189.533854 443.184382 189.457502 
Q 441.444622 189.381151 439.522855 189.381151 
Q 436.075452 189.381151 434.100155 189.678633 
Q 432.130211 189.975394 432.130211 190.497608 
Q 432.130211 191.01766 434.100155 191.315142 
Q 436.075452 191.611903 439.522855 191.611903 
Q 441.444622 191.611903 443.184382 191.535552 
Q 444.924143 191.45848 446.717435 191.294253 
L 446.717435 191.990058 
z
" clip-path="url(#p83d5c2144c)" style="fill: #0000ff"/>
   </g>
   <g id="patch_64">
    <path d="M 446.717435 188.397118 
Q 444.574691 188.575086 442.270052 188.664477 
Q 439.965412 188.753054 437.508399 188.753054 
Q 431.956312 188.753054 428.713627 188.223213 
Q 425.470942 187.693372 425.470942 186.787278 
Q 425.470942 185.870621 428.770767 185.344843 
Q 432.075354 184.819065 437.822668 184.819065 
Q 440.036837 184.819065 442.0653 184.890577 
Q 444.098526 184.961276 445.898431 185.101051 
L 445.898431 185.885248 
Q 444.041386 185.705655 442.203388 185.617077 
Q 440.365391 185.527687 438.517869 185.527687 
Q 435.099003 185.527687 433.24672 185.854368 
Q 431.394437 186.180236 431.394437 186.787278 
Q 431.394437 187.388632 433.180057 187.716938 
Q 434.965677 188.044432 438.251217 188.044432 
Q 439.146408 188.044432 439.913034 188.025742 
Q 440.67966 188.006238 441.289151 187.965606 
L 441.289151 187.229355 
L 437.789337 187.229355 
L 437.789337 186.573554 
L 446.717435 186.573554 
L 446.717435 188.397118 
z
" clip-path="url(#p83d5c2144c)" style="fill: #ffa600"/>
   </g>
   <g id="patch_65">
    <path d="M 440.188406 181.985037 
L 432.017346 181.985037 
L 430.727179 184.819065 
L 425.470942 184.819065 
L 432.97737 169.261923 
L 439.211007 169.261923 
L 446.717435 184.819065 
L 441.465542 184.819065 
L 440.188406 181.985037 
z
M 433.320546 179.097664 
L 438.872175 179.097664 
L 436.100704 172.909482 
L 433.320546 179.097664 
z
" clip-path="url(#p83d5c2144c)" style="fill: #008000"/>
   </g>
   <g id="patch_66">
    <path d="M 425.470942 143.690988 
L 446.717435 143.690988 
L 446.717435 148.678033 
L 439.073638 148.678033 
L 439.073638 169.261923 
L 433.129561 169.261923 
L 433.129561 148.678033 
L 425.470942 148.678033 
L 425.470942 143.690988 
z
" clip-path="url(#p83d5c2144c)" style="fill: #ff0000"/>
   </g>
   <g id="patch_67">
    <path d="M 469.082164 191.812176 
Q 466.939421 192.026088 464.634781 192.133532 
Q 462.330141 192.24 459.873129 192.24 
Q 454.321042 192.24 451.078357 191.603147 
Q 447.835671 190.966295 447.835671 189.877198 
Q 447.835671 188.775404 451.135496 188.143435 
Q 454.440083 187.511466 460.187398 187.511466 
Q 462.401566 187.511466 464.43003 187.597422 
Q 466.463256 187.682401 468.26316 187.850405 
L 468.26316 188.792986 
Q 466.406116 188.57712 464.568118 188.470653 
Q 462.73012 188.363208 460.882599 188.363208 
Q 457.463732 188.363208 455.61145 188.755869 
Q 453.759167 189.147553 453.759167 189.877198 
Q 453.759167 190.600007 455.544787 190.994621 
Q 457.330406 191.388258 460.615946 191.388258 
Q 461.511137 191.388258 462.277763 191.365793 
Q 463.044389 191.34235 463.653881 191.293512 
L 463.653881 190.40856 
L 460.154066 190.40856 
L 460.154066 189.620308 
L 469.082164 189.620308 
L 469.082164 191.812176 
z
" clip-path="url(#p83d5c2144c)" style="fill: #ffa600"/>
   </g>
   <g id="patch_68">
    <path d="M 469.082164 186.913864 
Q 467.304932 187.210082 465.383165 187.359913 
Q 463.461399 187.511466 461.368333 187.511466 
Q 455.126607 187.511466 451.481139 186.388595 
Q 447.835671 185.265723 447.835671 183.345474 
Q 447.835671 181.418337 451.481139 180.297187 
Q 455.126607 179.174315 461.368333 179.174315 
Q 463.461399 179.174315 465.383165 179.325869 
Q 467.304932 179.4757 469.082164 179.771917 
L 469.082164 181.433837 
Q 467.288873 181.041176 465.549112 180.858623 
Q 463.809351 180.67607 461.887585 180.67607 
Q 458.440182 180.67607 456.464884 181.387337 
Q 454.49494 182.096882 454.49494 183.345474 
Q 454.49494 184.5889 456.464884 185.300167 
Q 458.440182 186.009712 461.887585 186.009712 
Q 463.809351 186.009712 465.549112 185.827159 
Q 467.288873 185.642884 469.082164 185.250223 
L 469.082164 186.913864 
z
" clip-path="url(#p83d5c2144c)" style="fill: #0000ff"/>
   </g>
   <g id="patch_69">
    <path d="M 462.553136 177.519537 
L 454.382076 177.519537 
L 453.091909 179.174315 
L 447.835671 179.174315 
L 455.342099 170.090554 
L 461.575736 170.090554 
L 469.082164 179.174315 
L 463.830271 179.174315 
L 462.553136 177.519537 
z
M 455.685275 175.833609 
L 461.236904 175.833609 
L 458.465434 172.220351 
L 455.685275 175.833609 
z
" clip-path="url(#p83d5c2144c)" style="fill: #008000"/>
   </g>
   <g id="patch_70">
    <path d="M 447.835671 124.671745 
L 469.082164 124.671745 
L 469.082164 133.529678 
L 461.438368 133.529678 
L 461.438368 170.090554 
L 455.494291 170.090554 
L 455.494291 133.529678 
L 447.835671 133.529678 
L 447.835671 124.671745 
z
" clip-path="url(#p83d5c2144c)" style="fill: #ff0000"/>
   </g>
   <g id="patch_71">
    <path d="M 491.446894 192.063173 
Q 489.669661 192.150822 487.747895 192.195156 
Q 485.826128 192.24 483.733062 192.24 
Q 477.491336 192.24 473.845869 191.907749 
Q 470.200401 191.575498 470.200401 191.007308 
Q 470.200401 190.43708 473.845869 190.105338 
Q 477.491336 189.773087 483.733062 189.773087 
Q 485.826128 189.773087 487.747895 189.817931 
Q 489.669661 189.862265 491.446894 189.949914 
L 491.446894 190.441666 
Q 489.653602 190.32548 487.913841 190.271464 
Q 486.174081 190.217447 484.252314 190.217447 
Q 480.804911 190.217447 478.829614 190.427907 
Q 476.859669 190.637857 476.859669 191.007308 
Q 476.859669 191.37523 478.829614 191.58569 
Q 480.804911 191.79564 484.252314 191.79564 
Q 486.174081 191.79564 487.913841 191.741623 
Q 489.653602 191.687098 491.446894 191.570912 
L 491.446894 192.063173 
z
" clip-path="url(#p83d5c2144c)" style="fill: #0000ff"/>
   </g>
   <g id="patch_72">
    <path d="M 484.917865 188.6496 
L 476.746805 188.6496 
L 475.456638 189.773087 
L 470.200401 189.773087 
L 477.706829 183.605805 
L 483.940466 183.605805 
L 491.446894 189.773087 
L 486.195001 189.773087 
L 484.917865 188.6496 
z
M 478.050005 187.504965 
L 483.601634 187.504965 
L 480.830163 185.051798 
L 478.050005 187.504965 
z
" clip-path="url(#p83d5c2144c)" style="fill: #008000"/>
   </g>
   <g id="patch_73">
    <path d="M 491.446894 182.842228 
Q 489.30415 183.224016 486.99951 183.415782 
Q 484.694871 183.605805 482.237858 183.605805 
Q 476.685771 183.605805 473.443086 182.469156 
Q 470.200401 181.332508 470.200401 179.3887 
Q 470.200401 177.422229 473.500226 176.294297 
Q 476.804813 175.166366 482.552127 175.166366 
Q 484.766295 175.166366 486.794759 175.319778 
Q 488.827985 175.471448 490.62789 175.7713 
L 490.62789 177.453609 
Q 488.770845 177.068334 486.932847 176.878311 
Q 485.094849 176.686546 483.247328 176.686546 
Q 479.828462 176.686546 477.976179 177.387362 
Q 476.123896 178.086436 476.123896 179.3887 
Q 476.123896 180.678761 477.909516 181.383065 
Q 479.695136 182.085625 482.980676 182.085625 
Q 483.875866 182.085625 484.642493 182.045528 
Q 485.409119 182.003689 486.01861 181.916522 
L 486.01861 180.337069 
L 482.518796 180.337069 
L 482.518796 178.930206 
L 491.446894 178.930206 
L 491.446894 182.842228 
z
" clip-path="url(#p83d5c2144c)" style="fill: #ffa600"/>
   </g>
   <g id="patch_74">
    <path d="M 470.200401 156.989112 
L 491.446894 156.989112 
L 491.446894 160.534183 
L 483.803097 160.534183 
L 483.803097 175.166366 
L 477.85902 175.166366 
L 477.85902 160.534183 
L 470.200401 160.534183 
L 470.200401 156.989112 
z
" clip-path="url(#p83d5c2144c)" style="fill: #ff0000"/>
   </g>
   <g id="patch_75">
    <path d="M 513.811623 191.979678 
Q 512.034391 192.108714 510.112624 192.173982 
Q 508.190858 192.24 506.097792 192.24 
Q 499.856066 192.24 496.210598 191.750865 
Q 492.56513 191.26173 492.56513 190.425249 
Q 492.56513 189.585767 496.210598 189.097382 
Q 499.856066 188.608246 506.097792 188.608246 
Q 508.190858 188.608246 510.112624 188.674265 
Q 512.034391 188.739533 513.811623 188.868568 
L 513.811623 189.592518 
Q 512.018331 189.421471 510.278571 189.341949 
Q 508.53881 189.262427 506.617044 189.262427 
Q 503.169641 189.262427 501.194343 189.572263 
Q 499.224399 189.881348 499.224399 190.425249 
Q 499.224399 190.966898 501.194343 191.276734 
Q 503.169641 191.585819 506.617044 191.585819 
Q 508.53881 191.585819 510.278571 191.506297 
Q 512.018331 191.426025 513.811623 191.254978 
L 513.811623 191.979678 
z
" clip-path="url(#p83d5c2144c)" style="fill: #0000ff"/>
   </g>
   <g id="patch_76">
    <path d="M 513.811623 188.035319 
Q 511.66888 188.321783 509.36424 188.465669 
Q 507.0596 188.608246 504.602588 188.608246 
Q 499.050501 188.608246 495.807816 187.755395 
Q 492.56513 186.902544 492.56513 185.444064 
Q 492.56513 183.96858 495.864955 183.122269 
Q 499.169542 182.275958 504.916857 182.275958 
Q 507.131025 182.275958 509.159489 182.391067 
Q 511.192714 182.504868 512.992619 182.729853 
L 512.992619 183.992125 
Q 511.135575 183.703045 509.297577 183.560467 
Q 507.459579 183.416581 505.612058 183.416581 
Q 502.193191 183.416581 500.340909 183.942419 
Q 498.488626 184.466948 498.488626 185.444064 
Q 498.488626 186.412024 500.274245 186.940478 
Q 502.059865 187.467624 505.345405 187.467624 
Q 506.240596 187.467624 507.007222 187.437538 
Q 507.773848 187.406145 508.38334 187.340742 
L 508.38334 186.155646 
L 504.883525 186.155646 
L 504.883525 185.100046 
L 513.811623 185.100046 
L 513.811623 188.035319 
z
" clip-path="url(#p83d5c2144c)" style="fill: #ffa600"/>
   </g>
   <g id="patch_77">
    <path d="M 507.282595 180.376 
L 499.111535 180.376 
L 497.821368 182.275958 
L 492.56513 182.275958 
L 500.071558 171.846307 
L 506.305195 171.846307 
L 513.811623 182.275958 
L 508.55973 182.275958 
L 507.282595 180.376 
z
M 500.414734 178.440278 
L 505.966363 178.440278 
L 503.194893 174.291664 
L 500.414734 178.440278 
z
" clip-path="url(#p83d5c2144c)" style="fill: #008000"/>
   </g>
   <g id="patch_78">
    <path d="M 492.56513 141.674816 
L 513.811623 141.674816 
L 513.811623 147.559097 
L 506.167827 147.559097 
L 506.167827 171.846307 
L 500.22375 171.846307 
L 500.22375 147.559097 
L 492.56513 147.559097 
L 492.56513 141.674816 
z
" clip-path="url(#p83d5c2144c)" style="fill: #ff0000"/>
   </g>
   <g id="patch_79">
    <path d="M 536.176353 191.928505 
Q 534.033609 192.084252 531.728969 192.162482 
Q 529.42433 192.24 526.967317 192.24 
Q 521.41523 192.24 518.172545 191.776313 
Q 514.92986 191.312626 514.92986 190.519664 
Q 514.92986 189.717457 518.229685 189.257326 
Q 521.534272 188.797195 527.281586 188.797195 
Q 529.495754 188.797195 531.524218 188.859778 
Q 533.557444 188.921651 535.357348 189.043973 
L 535.357348 189.730258 
Q 533.500304 189.573088 531.662306 189.49557 
Q 529.824308 189.417341 527.976787 189.417341 
Q 524.557921 189.417341 522.705638 189.703234 
Q 520.853355 189.988415 520.853355 190.519664 
Q 520.853355 191.045935 522.638975 191.33325 
Q 524.424595 191.619854 527.710135 191.619854 
Q 528.605325 191.619854 529.371951 191.603497 
Q 530.138577 191.586429 530.748069 191.55087 
L 530.748069 190.906544 
L 527.248254 190.906544 
L 527.248254 190.332625 
L 536.176353 190.332625 
L 536.176353 191.928505 
z
" clip-path="url(#p83d5c2144c)" style="fill: #ffa600"/>
   </g>
   <g id="patch_80">
    <path d="M 529.647324 188.036226 
L 521.476264 188.036226 
L 520.186097 188.797195 
L 514.92986 188.797195 
L 522.436288 184.619925 
L 528.669925 184.619925 
L 536.176353 188.797195 
L 530.924459 188.797195 
L 529.647324 188.036226 
z
M 522.779464 187.260933 
L 528.331093 187.260933 
L 525.559622 185.599336 
L 522.779464 187.260933 
z
" clip-path="url(#p83d5c2144c)" style="fill: #008000"/>
   </g>
   <g id="patch_81">
    <path d="M 536.176353 184.274435 
Q 534.39912 184.445686 532.477354 184.532308 
Q 530.555587 184.619925 528.462521 184.619925 
Q 522.220795 184.619925 518.575328 183.970763 
Q 514.92986 183.321601 514.92986 182.211454 
Q 514.92986 181.097325 518.575328 180.449159 
Q 522.220795 179.799997 528.462521 179.799997 
Q 530.555587 179.799997 532.477354 179.887614 
Q 534.39912 179.974236 536.176353 180.145487 
L 536.176353 181.106286 
Q 534.383061 180.879279 532.6433 180.77374 
Q 530.90354 180.668202 528.981773 180.668202 
Q 525.53437 180.668202 523.559073 181.079404 
Q 521.589128 181.48961 521.589128 182.211454 
Q 521.589128 182.930312 523.559073 183.341514 
Q 525.53437 183.75172 528.981773 183.75172 
Q 530.90354 183.75172 532.6433 183.646182 
Q 534.383061 183.539648 536.176353 183.31264 
L 536.176353 184.274435 
z
" clip-path="url(#p83d5c2144c)" style="fill: #0000ff"/>
   </g>
   <g id="patch_82">
    <path d="M 514.92986 167.314091 
L 536.176353 167.314091 
L 536.176353 169.74919 
L 528.532556 169.74919 
L 528.532556 179.799997 
L 522.588479 179.799997 
L 522.588479 169.74919 
L 514.92986 169.74919 
L 514.92986 167.314091 
z
" clip-path="url(#p83d5c2144c)" style="fill: #ff0000"/>
   </g>
   <g id="patch_83">
    <path d="M 558.541082 192.016709 
Q 556.76385 192.127389 554.842083 192.183373 
Q 552.920317 192.24 550.827251 192.24 
Q 544.585525 192.24 540.940057 191.820444 
Q 537.294589 191.400889 537.294589 190.683398 
Q 537.294589 189.963332 540.940057 189.54442 
Q 544.585525 189.124865 550.827251 189.124865 
Q 552.920317 189.124865 554.842083 189.181492 
Q 556.76385 189.237475 558.541082 189.348156 
L 558.541082 189.969124 
Q 556.74779 189.822408 555.00803 189.754198 
Q 553.268269 189.685988 551.346503 189.685988 
Q 547.8991 189.685988 545.923802 189.951749 
Q 543.953858 190.216867 543.953858 190.683398 
Q 543.953858 191.147997 545.923802 191.413759 
Q 547.8991 191.678877 551.346503 191.678877 
Q 553.268269 191.678877 555.00803 191.610667 
Q 556.74779 191.541813 558.541082 191.395098 
L 558.541082 192.016709 
z
" clip-path="url(#p83d5c2144c)" style="fill: #0000ff"/>
   </g>
   <g id="patch_84">
    <path d="M 558.541082 188.542984 
Q 556.398339 188.833924 554.093699 188.980059 
Q 551.789059 189.124865 549.332046 189.124865 
Q 543.77996 189.124865 540.537274 188.258685 
Q 537.294589 187.392506 537.294589 185.911234 
Q 537.294589 184.412691 540.594414 183.553154 
Q 543.899001 182.693617 549.646315 182.693617 
Q 551.860484 182.693617 553.888948 182.810525 
Q 555.922173 182.926104 557.722078 183.154605 
L 557.722078 184.436604 
Q 555.865034 184.143006 554.027036 183.9982 
Q 552.189038 183.852066 550.341517 183.852066 
Q 546.92265 183.852066 545.070368 184.386121 
Q 543.218085 184.918848 543.218085 185.911234 
Q 543.218085 186.894321 545.003704 187.431033 
Q 546.789324 187.966416 550.074864 187.966416 
Q 550.970055 187.966416 551.736681 187.935861 
Q 552.503307 187.903977 553.112798 187.837552 
L 553.112798 186.633935 
L 549.612984 186.633935 
L 549.612984 185.561839 
L 558.541082 185.561839 
L 558.541082 188.542984 
z
" clip-path="url(#p83d5c2144c)" style="fill: #ffa600"/>
   </g>
   <g id="patch_85">
    <path d="M 537.294589 170.333564 
L 558.541082 170.333564 
L 558.541082 172.744119 
L 550.897286 172.744119 
L 550.897286 182.693617 
L 544.953209 182.693617 
L 544.953209 172.744119 
L 537.294589 172.744119 
L 537.294589 170.333564 
z
" clip-path="url(#p83d5c2144c)" style="fill: #ff0000"/>
   </g>
   <g id="patch_86">
    <path d="M 552.012054 164.384169 
L 543.840994 164.384169 
L 542.550826 170.333564 
L 537.294589 170.333564 
L 544.801017 137.674887 
L 551.034654 137.674887 
L 558.541082 170.333564 
L 553.289189 170.333564 
L 552.012054 164.384169 
z
M 545.144193 158.322786 
L 550.695822 158.322786 
L 547.924352 145.332108 
L 545.144193 158.322786 
z
" clip-path="url(#p83d5c2144c)" style="fill: #008000"/>
   </g>
   <g id="patch_87">
    <path d="M 580.905812 191.972646 
Q 578.763068 192.106323 576.458428 192.173467 
Q 574.153789 192.24 571.696776 192.24 
Q 566.144689 192.24 562.902004 191.842021 
Q 559.659319 191.444042 559.659319 190.763449 
Q 559.659319 190.074921 562.959144 189.679994 
Q 566.263731 189.285067 572.011045 189.285067 
Q 574.225213 189.285067 576.253677 189.338782 
Q 578.286903 189.391887 580.086807 189.496875 
L 580.086807 190.085908 
Q 578.229763 189.951011 576.391765 189.884477 
Q 574.553767 189.817334 572.706246 189.817334 
Q 569.28738 189.817334 567.435097 190.062713 
Q 565.582814 190.307483 565.582814 190.763449 
Q 565.582814 191.215143 567.368434 191.461744 
Q 569.154054 191.707734 572.439594 191.707734 
Q 573.334784 191.707734 574.10141 191.693695 
Q 574.868036 191.679045 575.477528 191.648525 
L 575.477528 191.095505 
L 571.977713 191.095505 
L 571.977713 190.602915 
L 580.905812 190.602915 
L 580.905812 191.972646 
z
" clip-path="url(#p83d5c2144c)" style="fill: #ffa600"/>
   </g>
   <g id="patch_88">
    <path d="M 580.905812 188.944566 
Q 579.128579 189.113345 577.206813 189.198715 
Q 575.285046 189.285067 573.19198 189.285067 
Q 566.950254 189.285067 563.304786 188.645278 
Q 559.659319 188.005489 559.659319 186.911372 
Q 559.659319 185.813329 563.304786 185.174521 
Q 566.950254 184.534733 573.19198 184.534733 
Q 575.285046 184.534733 577.206813 184.621084 
Q 579.128579 184.706455 580.905812 184.875234 
L 580.905812 185.822161 
Q 579.11252 185.598431 577.372759 185.494416 
Q 575.632998 185.390401 573.711232 185.390401 
Q 570.263829 185.390401 568.288532 185.795666 
Q 566.318587 186.19995 566.318587 186.911372 
Q 566.318587 187.61985 568.288532 188.025115 
Q 570.263829 188.429399 573.711232 188.429399 
Q 575.632998 188.429399 577.372759 188.325384 
Q 579.11252 188.220388 580.905812 187.996658 
L 580.905812 188.944566 
z
" clip-path="url(#p83d5c2144c)" style="fill: #0000ff"/>
   </g>
   <g id="patch_89">
    <path d="M 574.376783 182.361104 
L 566.205723 182.361104 
L 564.915556 184.534733 
L 559.659319 184.534733 
L 567.165747 172.602789 
L 573.399384 172.602789 
L 580.905812 184.534733 
L 575.653918 184.534733 
L 574.376783 182.361104 
z
M 567.508923 180.14656 
L 573.060552 180.14656 
L 570.289081 175.400377 
L 567.508923 180.14656 
z
" clip-path="url(#p83d5c2144c)" style="fill: #008000"/>
   </g>
   <g id="patch_90">
    <path d="M 559.659319 151.619027 
L 580.905812 151.619027 
L 580.905812 155.711445 
L 573.262015 155.711445 
L 573.262015 172.602789 
L 567.317938 172.602789 
L 567.317938 155.711445 
L 559.659319 155.711445 
L 559.659319 151.619027 
z
" clip-path="url(#p83d5c2144c)" style="fill: #ff0000"/>
   </g>
   <g id="patch_91">
    <path d="M 603.270541 191.933208 
Q 601.493309 192.085278 599.571542 192.162197 
Q 597.649776 192.24 595.55671 192.24 
Q 589.314984 192.24 585.669516 191.66355 
Q 582.024048 191.0871 582.024048 190.1013 
Q 582.024048 189.111964 585.669516 188.536398 
Q 589.314984 187.959948 595.55671 187.959948 
Q 597.649776 187.959948 599.571542 188.037751 
Q 601.493309 188.11467 603.270541 188.26674 
L 603.270541 189.119921 
Q 601.477249 188.91834 599.737489 188.824623 
Q 597.997728 188.730905 596.075961 188.730905 
Q 592.628559 188.730905 590.653261 189.096049 
Q 588.683317 189.460309 588.683317 190.1013 
Q 588.683317 190.739639 590.653261 191.104783 
Q 592.628559 191.469042 596.075961 191.469042 
Q 597.997728 191.469042 599.737489 191.375325 
Q 601.477249 191.280724 603.270541 191.079143 
L 603.270541 191.933208 
z
" clip-path="url(#p83d5c2144c)" style="fill: #0000ff"/>
   </g>
   <g id="patch_92">
    <path d="M 582.024048 183.089544 
L 603.270541 183.089544 
L 603.270541 184.039408 
L 595.626745 184.039408 
L 595.626745 187.959948 
L 589.682668 187.959948 
L 589.682668 184.039408 
L 582.024048 184.039408 
L 582.024048 183.089544 
z
" clip-path="url(#p83d5c2144c)" style="fill: #ff0000"/>
   </g>
   <g id="patch_93">
    <path d="M 603.270541 182.579446 
Q 601.127798 182.834495 598.823158 182.962602 
Q 596.518518 183.089544 594.061505 183.089544 
Q 588.509419 183.089544 585.266733 182.33022 
Q 582.024048 181.570897 582.024048 180.27236 
Q 582.024048 178.958683 585.323873 178.205183 
Q 588.62846 177.451682 594.375774 177.451682 
Q 596.589943 177.451682 598.618407 177.554168 
Q 600.651632 177.655488 602.451537 177.855801 
L 602.451537 178.979646 
Q 600.594492 178.722268 598.756495 178.595326 
Q 596.918497 178.467219 595.070976 178.467219 
Q 591.652109 178.467219 589.799826 178.935391 
Q 587.947544 179.402399 587.947544 180.27236 
Q 587.947544 181.134169 589.733163 181.60467 
Q 591.518783 182.074007 594.804323 182.074007 
Q 595.699514 182.074007 596.46614 182.047221 
Q 597.232766 182.01927 597.842257 181.96104 
L 597.842257 180.905906 
L 594.342443 180.905906 
L 594.342443 179.966068 
L 603.270541 179.966068 
L 603.270541 182.579446 
z
" clip-path="url(#p83d5c2144c)" style="fill: #ffa600"/>
   </g>
   <g id="patch_94">
    <path d="M 596.741512 174.306027 
L 588.570453 174.306027 
L 587.280285 177.451682 
L 582.024048 177.451682 
L 589.530476 160.183886 
L 595.764113 160.183886 
L 603.270541 177.451682 
L 598.018648 177.451682 
L 596.741512 174.306027 
z
M 589.873652 171.10116 
L 595.425281 171.10116 
L 592.653811 164.232529 
L 589.873652 171.10116 
z
" clip-path="url(#p83d5c2144c)" style="fill: #008000"/>
   </g>
   <g id="patch_95">
    <path d="M 625.635271 192.064051 
Q 623.492527 192.152026 621.187887 192.196214 
Q 618.883247 192.24 616.426235 192.24 
Q 610.874148 192.24 607.631463 191.978086 
Q 604.388778 191.716171 604.388778 191.268265 
Q 604.388778 190.815137 607.688603 190.555231 
Q 610.993189 190.295325 616.740504 190.295325 
Q 618.954672 190.295325 620.983136 190.330675 
Q 623.016362 190.365624 624.816266 190.434718 
L 624.816266 190.822368 
Q 622.959222 190.73359 621.121224 190.689804 
Q 619.283226 190.645616 617.435705 190.645616 
Q 614.016839 190.645616 612.164556 190.807103 
Q 610.312273 190.968188 610.312273 191.268265 
Q 610.312273 191.56553 612.097893 191.727821 
Q 613.883512 191.889709 617.169053 191.889709 
Q 618.064243 191.889709 618.830869 191.88047 
Q 619.597495 191.870829 620.206987 191.850744 
L 620.206987 191.486795 
L 616.707172 191.486795 
L 616.707172 191.162616 
L 625.635271 191.162616 
L 625.635271 192.064051 
z
" clip-path="url(#p83d5c2144c)" style="fill: #ffa600"/>
   </g>
   <g id="patch_96">
    <path d="M 604.388778 187.58755 
L 625.635271 187.58755 
L 625.635271 188.115641 
L 617.991474 188.115641 
L 617.991474 190.295325 
L 612.047397 190.295325 
L 612.047397 188.115641 
L 604.388778 188.115641 
L 604.388778 187.58755 
z
" clip-path="url(#p83d5c2144c)" style="fill: #ff0000"/>
   </g>
   <g id="patch_97">
    <path d="M 625.635271 187.366991 
Q 623.858038 187.476317 621.936272 187.531616 
Q 620.014505 187.58755 617.921439 187.58755 
Q 611.679713 187.58755 608.034245 187.173128 
Q 604.388778 186.758707 604.388778 186.049995 
Q 604.388778 185.33874 608.034245 184.924954 
Q 611.679713 184.510533 617.921439 184.510533 
Q 620.014505 184.510533 621.936272 184.566467 
Q 623.858038 184.621765 625.635271 184.731091 
L 625.635271 185.344461 
Q 623.841979 185.19954 622.102218 185.132165 
Q 620.362457 185.06479 618.440691 185.06479 
Q 614.993288 185.06479 613.017991 185.327299 
Q 611.048046 185.589173 611.048046 186.049995 
Q 611.048046 186.508909 613.017991 186.771419 
Q 614.993288 187.033293 618.440691 187.033293 
Q 620.362457 187.033293 622.102218 186.965917 
Q 623.841979 186.897906 625.635271 186.752986 
L 625.635271 187.366991 
z
" clip-path="url(#p83d5c2144c)" style="fill: #0000ff"/>
   </g>
   <g id="patch_98">
    <path d="M 619.106242 183.483629 
L 610.935182 183.483629 
L 609.645015 184.510533 
L 604.388778 184.510533 
L 611.895206 178.873437 
L 618.128842 178.873437 
L 625.635271 184.510533 
L 620.383377 184.510533 
L 619.106242 183.483629 
z
M 612.238381 182.437396 
L 617.790011 182.437396 
L 615.01854 180.195122 
L 612.238381 182.437396 
z
" clip-path="url(#p83d5c2144c)" style="fill: #008000"/>
   </g>
   <g id="patch_99">
    <path d="M 648 192.030955 
Q 646.222768 192.134574 644.301001 192.186986 
Q 642.379235 192.24 640.286169 192.24 
Q 634.044443 192.24 630.398975 191.847213 
Q 626.753507 191.454425 626.753507 190.782711 
Q 626.753507 190.108586 630.398975 189.716402 
Q 634.044443 189.323614 640.286169 189.323614 
Q 642.379235 189.323614 644.301001 189.376628 
Q 646.222768 189.42904 648 189.532659 
L 648 190.114008 
Q 646.206708 189.976653 644.466948 189.912795 
Q 642.727187 189.848937 640.80542 189.848937 
Q 637.358018 189.848937 635.38272 190.097743 
Q 633.412776 190.345946 633.412776 190.782711 
Q 633.412776 191.217669 635.38272 191.466474 
Q 637.358018 191.714677 640.80542 191.714677 
Q 642.727187 191.714677 644.466948 191.650819 
Q 646.206708 191.586358 648 191.449003 
L 648 192.030955 
z
" clip-path="url(#p83d5c2144c)" style="fill: #0000ff"/>
   </g>
   <g id="patch_100">
    <path d="M 648 188.863733 
Q 645.857256 189.093674 643.552617 189.209169 
Q 641.247977 189.323614 638.790964 189.323614 
Q 633.238878 189.323614 629.996192 188.639042 
Q 626.753507 187.95447 626.753507 186.783767 
Q 626.753507 185.599415 630.053332 184.920093 
Q 633.357919 184.24077 639.105233 184.24077 
Q 641.319402 184.24077 643.347866 184.333167 
Q 645.381091 184.424513 647.180996 184.605106 
L 647.180996 185.618315 
Q 645.323951 185.386274 643.485954 185.271829 
Q 641.647956 185.156333 639.800435 185.156333 
Q 636.381568 185.156333 634.529285 185.578416 
Q 632.677003 185.999449 632.677003 186.783767 
Q 632.677003 187.560736 634.462622 187.984919 
Q 636.248242 188.408051 639.533782 188.408051 
Q 640.428973 188.408051 641.195599 188.383902 
Q 641.962225 188.358703 642.571716 188.306205 
L 642.571716 187.354944 
L 639.071902 187.354944 
L 639.071902 186.507628 
L 648 186.507628 
L 648 188.863733 
z
" clip-path="url(#p83d5c2144c)" style="fill: #ffa600"/>
   </g>
   <g id="patch_101">
    <path d="M 626.753507 171.242022 
L 648 171.242022 
L 648 173.77714 
L 640.356204 173.77714 
L 640.356204 184.24077 
L 634.412127 184.24077 
L 634.412127 173.77714 
L 626.753507 173.77714 
L 626.753507 171.242022 
z
" clip-path="url(#p83d5c2144c)" style="fill: #ff0000"/>
   </g>
   <g id="patch_102">
    <path d="M 641.470971 166.824852 
L 633.299912 166.824852 
L 632.009744 171.242022 
L 626.753507 171.242022 
L 634.259935 146.994358 
L 640.493572 146.994358 
L 648 171.242022 
L 642.748107 171.242022 
L 641.470971 166.824852 
z
M 634.603111 162.324536 
L 640.15474 162.324536 
L 637.38327 152.679515 
L 634.603111 162.324536 
z
" clip-path="url(#p83d5c2144c)" style="fill: #008000"/>
   </g>
   <g id="matplotlib.axis_1">
    <g id="xtick_1">
     <g id="line2d_2">
      <defs>
       <path id="m12e819a507" d="M 0 0 
L 0 3.5 
" style="stroke: #000000; stroke-width: 0.8"/>
      </defs>
      <g>
       <use xlink:href="#m12e819a507" x="100.623246" y="192.24" style="stroke: #000000; stroke-width: 0.8"/>
      </g>
     </g>
     <g id="text_1">
      <!-- 0 -->
      <g transform="translate(97.441996 206.838437) scale(0.1 -0.1)">
       <defs>
        <path id="DejaVuSans-30" d="M 2034 4250 
Q 1547 4250 1301 3770 
Q 1056 3291 1056 2328 
Q 1056 1369 1301 889 
Q 1547 409 2034 409 
Q 2525 409 2770 889 
Q 3016 1369 3016 2328 
Q 3016 3291 2770 3770 
Q 2525 4250 2034 4250 
z
M 2034 4750 
Q 2819 4750 3233 4129 
Q 3647 3509 3647 2328 
Q 3647 1150 3233 529 
Q 2819 -91 2034 -91 
Q 1250 -91 836 529 
Q 422 1150 422 2328 
Q 422 3509 836 4129 
Q 1250 4750 2034 4750 
z
" transform="scale(0.015625)"/>
       </defs>
       <use xlink:href="#DejaVuSans-30"/>
      </g>
     </g>
    </g>
    <g id="xtick_2">
     <g id="line2d_3">
      <g>
       <use xlink:href="#m12e819a507" x="212.446894" y="192.24" style="stroke: #000000; stroke-width: 0.8"/>
      </g>
     </g>
     <g id="text_2">
      <!-- 5 -->
      <g transform="translate(209.265644 206.838437) scale(0.1 -0.1)">
       <defs>
        <path id="DejaVuSans-35" d="M 691 4666 
L 3169 4666 
L 3169 4134 
L 1269 4134 
L 1269 2991 
Q 1406 3038 1543 3061 
Q 1681 3084 1819 3084 
Q 2600 3084 3056 2656 
Q 3513 2228 3513 1497 
Q 3513 744 3044 326 
Q 2575 -91 1722 -91 
Q 1428 -91 1123 -41 
Q 819 9 494 109 
L 494 744 
Q 775 591 1075 516 
Q 1375 441 1709 441 
Q 2250 441 2565 725 
Q 2881 1009 2881 1497 
Q 2881 1984 2565 2268 
Q 2250 2553 1709 2553 
Q 1456 2553 1204 2497 
Q 953 2441 691 2322 
L 691 4666 
z
" transform="scale(0.015625)"/>
       </defs>
       <use xlink:href="#DejaVuSans-35"/>
      </g>
     </g>
    </g>
    <g id="xtick_3">
     <g id="line2d_4">
      <g>
       <use xlink:href="#m12e819a507" x="324.270541" y="192.24" style="stroke: #000000; stroke-width: 0.8"/>
      </g>
     </g>
     <g id="text_3">
      <!-- 10 -->
      <g transform="translate(317.908041 206.838437) scale(0.1 -0.1)">
       <defs>
        <path id="DejaVuSans-31" d="M 794 531 
L 1825 531 
L 1825 4091 
L 703 3866 
L 703 4441 
L 1819 4666 
L 2450 4666 
L 2450 531 
L 3481 531 
L 3481 0 
L 794 0 
L 794 531 
z
" transform="scale(0.015625)"/>
       </defs>
       <use xlink:href="#DejaVuSans-31"/>
       <use xlink:href="#DejaVuSans-30" x="63.623047"/>
      </g>
     </g>
    </g>
    <g id="xtick_4">
     <g id="line2d_5">
      <g>
       <use xlink:href="#m12e819a507" x="436.094188" y="192.24" style="stroke: #000000; stroke-width: 0.8"/>
      </g>
     </g>
     <g id="text_4">
      <!-- 15 -->
      <g transform="translate(429.731688 206.838437) scale(0.1 -0.1)">
       <use xlink:href="#DejaVuSans-31"/>
       <use xlink:href="#DejaVuSans-35" x="63.623047"/>
      </g>
     </g>
    </g>
    <g id="xtick_5">
     <g id="line2d_6">
      <g>
       <use xlink:href="#m12e819a507" x="547.917836" y="192.24" style="stroke: #000000; stroke-width: 0.8"/>
      </g>
     </g>
     <g id="text_5">
      <!-- 20 -->
      <g transform="translate(541.555336 206.838437) scale(0.1 -0.1)">
       <defs>
        <path id="DejaVuSans-32" d="M 1228 531 
L 3431 531 
L 3431 0 
L 469 0 
L 469 531 
Q 828 903 1448 1529 
Q 2069 2156 2228 2338 
Q 2531 2678 2651 2914 
Q 2772 3150 2772 3378 
Q 2772 3750 2511 3984 
Q 2250 4219 1831 4219 
Q 1534 4219 1204 4116 
Q 875 4013 500 3803 
L 500 4441 
Q 881 4594 1212 4672 
Q 1544 4750 1819 4750 
Q 2544 4750 2975 4387 
Q 3406 4025 3406 3419 
Q 3406 3131 3298 2873 
Q 3191 2616 2906 2266 
Q 2828 2175 2409 1742 
Q 1991 1309 1228 531 
z
" transform="scale(0.015625)"/>
       </defs>
       <use xlink:href="#DejaVuSans-32"/>
       <use xlink:href="#DejaVuSans-30" x="63.623047"/>
      </g>
     </g>
    </g>
   </g>
   <g id="matplotlib.axis_2">
    <g id="ytick_1">
     <g id="line2d_7">
      <defs>
       <path id="m3049cb44e2" d="M 0 0 
L -3.5 0 
" style="stroke: #000000; stroke-width: 0.8"/>
      </defs>
      <g>
       <use xlink:href="#m3049cb44e2" x="90" y="192.24" style="stroke: #000000; stroke-width: 0.8"/>
      </g>
     </g>
     <g id="text_6">
      <!-- 0.0 -->
      <g transform="translate(67.096875 196.039219) scale(0.1 -0.1)">
       <defs>
        <path id="DejaVuSans-2e" d="M 684 794 
L 1344 794 
L 1344 0 
L 684 0 
L 684 794 
z
" transform="scale(0.015625)"/>
       </defs>
       <use xlink:href="#DejaVuSans-30"/>
       <use xlink:href="#DejaVuSans-2e" x="63.623047"/>
       <use xlink:href="#DejaVuSans-30" x="95.410156"/>
      </g>
     </g>
    </g>
    <g id="ytick_2">
     <g id="line2d_8">
      <g>
       <use xlink:href="#m3049cb44e2" x="90" y="169.124473" style="stroke: #000000; stroke-width: 0.8"/>
      </g>
     </g>
     <g id="text_7">
      <!-- 0.2 -->
      <g transform="translate(67.096875 172.923692) scale(0.1 -0.1)">
       <use xlink:href="#DejaVuSans-30"/>
       <use xlink:href="#DejaVuSans-2e" x="63.623047"/>
       <use xlink:href="#DejaVuSans-32" x="95.410156"/>
      </g>
     </g>
    </g>
    <g id="ytick_3">
     <g id="line2d_9">
      <g>
       <use xlink:href="#m3049cb44e2" x="90" y="146.008946" style="stroke: #000000; stroke-width: 0.8"/>
      </g>
     </g>
     <g id="text_8">
      <!-- 0.4 -->
      <g transform="translate(67.096875 149.808165) scale(0.1 -0.1)">
       <defs>
        <path id="DejaVuSans-34" d="M 2419 4116 
L 825 1625 
L 2419 1625 
L 2419 4116 
z
M 2253 4666 
L 3047 4666 
L 3047 1625 
L 3713 1625 
L 3713 1100 
L 3047 1100 
L 3047 0 
L 2419 0 
L 2419 1100 
L 313 1100 
L 313 1709 
L 2253 4666 
z
" transform="scale(0.015625)"/>
       </defs>
       <use xlink:href="#DejaVuSans-30"/>
       <use xlink:href="#DejaVuSans-2e" x="63.623047"/>
       <use xlink:href="#DejaVuSans-34" x="95.410156"/>
      </g>
     </g>
    </g>
    <g id="ytick_4">
     <g id="line2d_10">
      <g>
       <use xlink:href="#m3049cb44e2" x="90" y="122.89342" style="stroke: #000000; stroke-width: 0.8"/>
      </g>
     </g>
     <g id="text_9">
      <!-- 0.6 -->
      <g transform="translate(67.096875 126.692638) scale(0.1 -0.1)">
       <defs>
        <path id="DejaVuSans-36" d="M 2113 2584 
Q 1688 2584 1439 2293 
Q 1191 2003 1191 1497 
Q 1191 994 1439 701 
Q 1688 409 2113 409 
Q 2538 409 2786 701 
Q 3034 994 3034 1497 
Q 3034 2003 2786 2293 
Q 2538 2584 2113 2584 
z
M 3366 4563 
L 3366 3988 
Q 3128 4100 2886 4159 
Q 2644 4219 2406 4219 
Q 1781 4219 1451 3797 
Q 1122 3375 1075 2522 
Q 1259 2794 1537 2939 
Q 1816 3084 2150 3084 
Q 2853 3084 3261 2657 
Q 3669 2231 3669 1497 
Q 3669 778 3244 343 
Q 2819 -91 2113 -91 
Q 1303 -91 875 529 
Q 447 1150 447 2328 
Q 447 3434 972 4092 
Q 1497 4750 2381 4750 
Q 2619 4750 2861 4703 
Q 3103 4656 3366 4563 
z
" transform="scale(0.015625)"/>
       </defs>
       <use xlink:href="#DejaVuSans-30"/>
       <use xlink:href="#DejaVuSans-2e" x="63.623047"/>
       <use xlink:href="#DejaVuSans-36" x="95.410156"/>
      </g>
     </g>
    </g>
    <g id="ytick_5">
     <g id="line2d_11">
      <g>
       <use xlink:href="#m3049cb44e2" x="90" y="99.777893" style="stroke: #000000; stroke-width: 0.8"/>
      </g>
     </g>
     <g id="text_10">
      <!-- 0.8 -->
      <g transform="translate(67.096875 103.577112) scale(0.1 -0.1)">
       <defs>
        <path id="DejaVuSans-38" d="M 2034 2216 
Q 1584 2216 1326 1975 
Q 1069 1734 1069 1313 
Q 1069 891 1326 650 
Q 1584 409 2034 409 
Q 2484 409 2743 651 
Q 3003 894 3003 1313 
Q 3003 1734 2745 1975 
Q 2488 2216 2034 2216 
z
M 1403 2484 
Q 997 2584 770 2862 
Q 544 3141 544 3541 
Q 544 4100 942 4425 
Q 1341 4750 2034 4750 
Q 2731 4750 3128 4425 
Q 3525 4100 3525 3541 
Q 3525 3141 3298 2862 
Q 3072 2584 2669 2484 
Q 3125 2378 3379 2068 
Q 3634 1759 3634 1313 
Q 3634 634 3220 271 
Q 2806 -91 2034 -91 
Q 1263 -91 848 271 
Q 434 634 434 1313 
Q 434 1759 690 2068 
Q 947 2378 1403 2484 
z
M 1172 3481 
Q 1172 3119 1398 2916 
Q 1625 2713 2034 2713 
Q 2441 2713 2670 2916 
Q 2900 3119 2900 3481 
Q 2900 3844 2670 4047 
Q 2441 4250 2034 4250 
Q 1625 4250 1398 4047 
Q 1172 3844 1172 3481 
z
" transform="scale(0.015625)"/>
       </defs>
       <use xlink:href="#DejaVuSans-30"/>
       <use xlink:href="#DejaVuSans-2e" x="63.623047"/>
       <use xlink:href="#DejaVuSans-38" x="95.410156"/>
      </g>
     </g>
    </g>
    <g id="ytick_6">
     <g id="line2d_12">
      <g>
       <use xlink:href="#m3049cb44e2" x="90" y="76.662366" style="stroke: #000000; stroke-width: 0.8"/>
      </g>
     </g>
     <g id="text_11">
      <!-- 1.0 -->
      <g transform="translate(67.096875 80.461585) scale(0.1 -0.1)">
       <use xlink:href="#DejaVuSans-31"/>
       <use xlink:href="#DejaVuSans-2e" x="63.623047"/>
       <use xlink:href="#DejaVuSans-30" x="95.410156"/>
      </g>
     </g>
    </g>
    <g id="ytick_7">
     <g id="line2d_13">
      <g>
       <use xlink:href="#m3049cb44e2" x="90" y="53.546839" style="stroke: #000000; stroke-width: 0.8"/>
      </g>
     </g>
     <g id="text_12">
      <!-- 1.2 -->
      <g transform="translate(67.096875 57.346058) scale(0.1 -0.1)">
       <use xlink:href="#DejaVuSans-31"/>
       <use xlink:href="#DejaVuSans-2e" x="63.623047"/>
       <use xlink:href="#DejaVuSans-32" x="95.410156"/>
      </g>
     </g>
    </g>
    <g id="ytick_8">
     <g id="line2d_14">
      <g>
       <use xlink:href="#m3049cb44e2" x="90" y="30.431313" style="stroke: #000000; stroke-width: 0.8"/>
      </g>
     </g>
     <g id="text_13">
      <!-- 1.4 -->
      <g transform="translate(67.096875 34.230531) scale(0.1 -0.1)">
       <use xlink:href="#DejaVuSans-31"/>
       <use xlink:href="#DejaVuSans-2e" x="63.623047"/>
       <use xlink:href="#DejaVuSans-34" x="95.410156"/>
      </g>
     </g>
    </g>
   </g>
  </g>
 </g>
 <defs>
  <clipPath id="p83d5c2144c">
   <rect x="90" y="25.92" width="558" height="166.32"/>
  </clipPath>
 </defs>
</svg>
