<?xml version="1.0" encoding="utf-8" standalone="no"?>
<!DOCTYPE svg PUBLIC "-//W3C//DTD SVG 1.1//EN"
  "http://www.w3.org/Graphics/SVG/1.1/DTD/svg11.dtd">
<svg xmlns:xlink="http://www.w3.org/1999/xlink" width="720pt" height="216pt" viewBox="0 0 720 216" xmlns="http://www.w3.org/2000/svg" version="1.1">
 <metadata>
  <rdf:RDF xmlns:dc="http://purl.org/dc/elements/1.1/" xmlns:cc="http://creativecommons.org/ns#" xmlns:rdf="http://www.w3.org/1999/02/22-rdf-syntax-ns#">
   <cc:Work>
    <dc:type rdf:resource="http://purl.org/dc/dcmitype/StillImage"/>
    <dc:date>2025-12-17T10:23:00.398318</dc:date>
    <dc:format>image/svg+xml</dc:format>
    <dc:creator>
     <cc:Agent>
      <dc:title>Matplotlib v3.8.2, https://matplotlib.org/</dc:title>
     </cc:Agent>
    </dc:creator>
   </cc:Work>
  </rdf:RDF>
 </metadata>
 <defs>
  <style type="text/css">*{stroke-linejoin: round; stroke-linecap: butt}</style>
 </defs>
 <g id="figure_1">
  <g id="patch_1">
   <path d="M 0 216 
L 720 216 
L 720 0 
L 0 0 
z
" style="fill: #ffffff"/>
  </g>
  <g id="axes_1">
   <g id="patch_2">
    <path d="M 90 192.24 
L 648 192.24 
L 648 25.92 
L 90 25.92 
z
" style="fill: #ffffff"/>
   </g>
   <g id="line2d_1">
    <path d="M 90 192.24 
L 648 192.24 
" clip-path="url(#p18e7622df8)" style="fill: none; stroke: #000000; stroke-width: 0.5; stroke-linecap: square"/>
   </g>
   <g id="patch_3">
    <path d="M 107.699499 192.090017 
Q 106.218967 192.16436 104.618029 192.201964 
Q 103.017092 192.24 101.273453 192.24 
Q 96.073751 192.24 93.036876 191.958187 
Q 90 191.676374 90 191.19444 
Q 90 190.710776 93.036876 190.429395 
Q 96.073751 190.147583 101.273453 190.147583 
Q 103.017092 190.147583 104.618029 190.185619 
Q 106.218967 190.223223 107.699499 190.297566 
L 107.699499 190.714666 
Q 106.205588 190.616118 104.756272 190.570302 
Q 103.306955 190.524486 101.706018 190.524486 
Q 98.834142 190.524486 97.18861 190.702996 
Q 95.547538 190.881074 95.547538 191.19444 
Q 95.547538 191.506508 97.18861 191.685019 
Q 98.834142 191.863097 101.706018 191.863097 
Q 103.306955 191.863097 104.756272 191.817281 
Q 106.205588 191.771032 107.699499 191.672484 
L 107.699499 192.090017 
z
" clip-path="url(#p18e7622df8)" style="fill: #0000ff"/>
   </g>
   <g id="patch_4">
    <path d="M 107.699499 189.579635 
Q 105.914476 189.863609 103.994584 190.006244 
Q 102.074692 190.147583 100.027865 190.147583 
Q 95.402671 190.147583 92.701335 189.302144 
Q 90 188.456705 90 187.010901 
Q 90 185.548241 92.748936 184.709286 
Q 95.501839 183.87033 100.289668 183.87033 
Q 102.134193 183.87033 103.824015 183.984439 
Q 105.517804 184.09725 107.017224 184.32028 
L 107.017224 185.571581 
Q 105.470203 185.285014 103.93905 185.143675 
Q 102.407896 185.00104 100.868809 185.00104 
Q 98.020705 185.00104 96.477652 185.522307 
Q 94.934598 186.042278 94.934598 187.010901 
Q 94.934598 187.970448 96.422118 188.494309 
Q 97.909637 189.016873 100.646673 189.016873 
Q 101.392416 189.016873 102.031058 188.987049 
Q 102.6697 188.955929 103.17744 188.891095 
L 103.17744 187.716298 
L 100.261901 187.716298 
L 100.261901 186.669873 
L 107.699499 186.669873 
L 107.699499 189.579635 
z
" clip-path="url(#p18e7622df8)" style="fill: #ffa600"/>
   </g>
   <g id="patch_5">
    <path d="M 90 175.082177 
L 107.699499 175.082177 
L 107.699499 176.796112 
L 101.331796 176.796112 
L 101.331796 183.87033 
L 96.380052 183.87033 
L 96.380052 176.796112 
L 90 176.796112 
L 90 175.082177 
z
" clip-path="url(#p18e7622df8)" style="fill: #ff0000"/>
   </g>
   <g id="patch_6">
    <path d="M 102.260459 170.279393 
L 95.453516 170.279393 
L 94.378735 175.082177 
L 90 175.082177 
L 96.253268 148.717717 
L 101.446231 148.717717 
L 107.699499 175.082177 
L 103.324383 175.082177 
L 102.260459 170.279393 
z
M 96.539153 165.386204 
L 101.163965 165.386204 
L 98.855178 154.899183 
L 96.539153 165.386204 
z
" clip-path="url(#p18e7622df8)" style="fill: #008000"/>
   </g>
   <g id="patch_7">
    <path d="M 120.89151 191.916383 
L 114.084567 191.916383 
L 113.009787 192.24 
L 108.631052 192.24 
L 114.88432 190.463535 
L 120.077283 190.463535 
L 126.330551 192.24 
L 121.955434 192.24 
L 120.89151 191.916383 
z
M 115.170204 191.586675 
L 119.795017 191.586675 
L 117.48623 190.880049 
L 115.170204 191.586675 
z
" clip-path="url(#p18e7622df8)" style="fill: #008000"/>
   </g>
   <g id="patch_8">
    <path d="M 126.330551 190.222441 
Q 124.545527 190.342988 122.625636 190.403537 
Q 120.705744 190.463535 118.658917 190.463535 
Q 114.033723 190.463535 111.332387 190.104646 
Q 108.631052 189.745757 108.631052 189.132013 
Q 108.631052 188.511112 111.379988 188.154975 
Q 114.132891 187.798838 118.92072 187.798838 
Q 120.765244 187.798838 122.455067 187.847277 
Q 124.148856 187.895166 125.648275 187.989842 
L 125.648275 188.52102 
Q 124.101255 188.399372 122.570102 188.339374 
Q 121.038948 188.278825 119.499861 188.278825 
Q 116.651757 188.278825 115.108704 188.500103 
Q 113.56565 188.720831 113.56565 189.132013 
Q 113.56565 189.539341 115.053169 189.76172 
Q 116.540689 189.983549 119.277725 189.983549 
Q 120.023468 189.983549 120.66211 189.970888 
Q 121.300752 189.957678 121.808492 189.930156 
L 121.808492 189.431454 
L 118.892953 189.431454 
L 118.892953 188.987246 
L 126.330551 188.987246 
L 126.330551 190.222441 
z
" clip-path="url(#p18e7622df8)" style="fill: #ffa600"/>
   </g>
   <g id="patch_9">
    <path d="M 126.330551 186.652815 
Q 124.850018 187.220873 123.249081 187.508204 
Q 121.648144 187.798838 119.904504 187.798838 
Q 114.704803 187.798838 111.667927 185.645504 
Q 108.631052 183.492169 108.631052 179.809702 
Q 108.631052 176.114024 111.667927 173.963992 
Q 114.704803 171.810657 119.904504 171.810657 
Q 121.648144 171.810657 123.249081 172.101291 
Q 124.850018 172.388623 126.330551 172.95668 
L 126.330551 176.143748 
Q 124.83664 175.390741 123.387324 175.040659 
Q 121.938007 174.690577 120.33707 174.690577 
Q 117.465193 174.690577 115.819662 176.054576 
Q 114.178589 177.415273 114.178589 179.809702 
Q 114.178589 182.194223 115.819662 183.558222 
Q 117.465193 184.918918 120.33707 184.918918 
Q 121.938007 184.918918 123.387324 184.568836 
Q 124.83664 184.215451 126.330551 183.462445 
L 126.330551 186.652815 
z
" clip-path="url(#p18e7622df8)" style="fill: #0000ff"/>
   </g>
   <g id="patch_10">
    <path d="M 108.631052 99.86384 
L 126.330551 99.86384 
L 126.330551 113.895474 
L 119.962847 113.895474 
L 119.962847 171.810657 
L 115.011104 171.810657 
L 115.011104 113.895474 
L 108.631052 113.895474 
L 108.631052 99.86384 
z
" clip-path="url(#p18e7622df8)" style="fill: #ff0000"/>
   </g>
   <g id="patch_11">
    <path d="M 144.961603 192.16579 
Q 143.48107 192.202574 141.880133 192.22118 
Q 140.279195 192.24 138.535556 192.24 
Q 133.335855 192.24 130.298979 192.100562 
Q 127.262104 191.961124 127.262104 191.722668 
Q 127.262104 191.483356 130.298979 191.344132 
Q 133.335855 191.204694 138.535556 191.204694 
Q 140.279195 191.204694 141.880133 191.223513 
Q 143.48107 191.242119 144.961603 191.278904 
L 144.961603 191.485281 
Q 143.467692 191.43652 142.018375 191.413851 
Q 140.569059 191.391181 138.968121 191.391181 
Q 136.096245 191.391181 134.450713 191.479506 
Q 132.809641 191.567618 132.809641 191.722668 
Q 132.809641 191.877076 134.450713 191.965401 
Q 136.096245 192.053512 138.968121 192.053512 
Q 140.569059 192.053512 142.018375 192.030843 
Q 143.467692 192.00796 144.961603 191.959199 
L 144.961603 192.16579 
z
" clip-path="url(#p18e7622df8)" style="fill: #0000ff"/>
   </g>
   <g id="patch_12">
    <path d="M 139.522562 190.355991 
L 132.715619 190.355991 
L 131.640839 191.204694 
L 127.262104 191.204694 
L 133.515372 186.545815 
L 138.708335 186.545815 
L 144.961603 191.204694 
L 140.586486 191.204694 
L 139.522562 190.355991 
z
M 133.801256 189.491313 
L 138.426069 189.491313 
L 136.117281 187.638145 
L 133.801256 189.491313 
z
" clip-path="url(#p18e7622df8)" style="fill: #008000"/>
   </g>
   <g id="patch_13">
    <path d="M 144.961603 185.999397 
Q 143.176579 186.272606 141.256687 186.409834 
Q 139.336795 186.545815 137.289969 186.545815 
Q 132.664774 186.545815 129.963439 185.732426 
Q 127.262104 184.919037 127.262104 183.528043 
Q 127.262104 182.12083 130.01104 181.313679 
Q 132.763942 180.506528 137.551772 180.506528 
Q 139.396296 180.506528 141.086118 180.61631 
Q 142.779907 180.724845 144.279327 180.93942 
L 144.279327 182.143286 
Q 142.732307 181.867582 141.201153 181.731601 
Q 139.67 181.594373 138.130913 181.594373 
Q 135.282809 181.594373 133.739755 182.09588 
Q 132.196702 182.596139 132.196702 183.528043 
Q 132.196702 184.451214 133.684221 184.955216 
Q 135.171741 185.45797 137.908777 185.45797 
Q 138.65452 185.45797 139.293162 185.429277 
Q 139.931803 185.399336 140.439543 185.33696 
L 140.439543 184.206698 
L 137.524005 184.206698 
L 137.524005 183.199943 
L 144.961603 183.199943 
L 144.961603 185.999397 
z
" clip-path="url(#p18e7622df8)" style="fill: #ffa600"/>
   </g>
   <g id="patch_14">
    <path d="M 127.262104 174.29469 
L 144.961603 174.29469 
L 144.961603 175.506171 
L 138.593899 175.506171 
L 138.593899 180.506528 
L 133.642156 180.506528 
L 133.642156 175.506171 
L 127.262104 175.506171 
L 127.262104 174.29469 
z
" clip-path="url(#p18e7622df8)" style="fill: #ff0000"/>
   </g>
   <g id="patch_15">
    <path d="M 163.592654 192.137059 
Q 162.112122 192.188085 160.511185 192.213894 
Q 158.910247 192.24 157.166608 192.24 
Q 151.966906 192.24 148.930031 192.046578 
Q 145.893155 191.853156 145.893155 191.52238 
Q 145.893155 191.190418 148.930031 190.997293 
Q 151.966906 190.80387 157.166608 190.80387 
Q 158.910247 190.80387 160.511185 190.829976 
Q 162.112122 190.855786 163.592654 190.906811 
L 163.592654 191.193088 
Q 162.098744 191.125449 160.649427 191.094004 
Q 159.200111 191.062558 157.599173 191.062558 
Q 154.727297 191.062558 153.081765 191.185078 
Q 151.440693 191.307302 151.440693 191.52238 
Q 151.440693 191.736568 153.081765 191.859089 
Q 154.727297 191.981313 157.599173 191.981313 
Q 159.200111 191.981313 160.649427 191.949867 
Q 162.098744 191.918124 163.592654 191.850486 
L 163.592654 192.137059 
z
" clip-path="url(#p18e7622df8)" style="fill: #0000ff"/>
   </g>
   <g id="patch_16">
    <path d="M 163.592654 190.656609 
Q 161.807631 190.730239 159.887739 190.767223 
Q 157.967847 190.80387 155.92102 190.80387 
Q 151.295826 190.80387 148.594491 190.584659 
Q 145.893155 190.365447 145.893155 189.990568 
Q 145.893155 189.611318 148.642091 189.393787 
Q 151.394994 189.176257 156.182824 189.176257 
Q 158.027348 189.176257 159.71717 189.205844 
Q 161.410959 189.235094 162.910379 189.292923 
L 162.910379 189.61737 
Q 161.363358 189.543067 159.832205 189.506419 
Q 158.301052 189.469436 156.761965 189.469436 
Q 153.913861 189.469436 152.370807 189.604594 
Q 150.827753 189.739416 150.827753 189.990568 
Q 150.827753 190.239367 152.315273 190.375197 
Q 153.802792 190.510691 156.539828 190.510691 
Q 157.285572 190.510691 157.924213 190.502959 
Q 158.562855 190.494889 159.070595 190.478079 
L 159.070595 190.173469 
L 156.155057 190.173469 
L 156.155057 189.902144 
L 163.592654 189.902144 
L 163.592654 190.656609 
z
" clip-path="url(#p18e7622df8)" style="fill: #ffa600"/>
   </g>
   <g id="patch_17">
    <path d="M 158.153614 188.548373 
L 151.346671 188.548373 
L 150.27189 189.176257 
L 145.893155 189.176257 
L 152.146423 185.729546 
L 157.339386 185.729546 
L 163.592654 189.176257 
L 159.217538 189.176257 
L 158.153614 188.548373 
z
M 152.432308 187.908671 
L 157.057121 187.908671 
L 154.748333 186.537669 
L 152.432308 187.908671 
z
" clip-path="url(#p18e7622df8)" style="fill: #008000"/>
   </g>
   <g id="patch_18">
    <path d="M 145.893155 182.282835 
L 163.592654 182.282835 
L 163.592654 182.955039 
L 157.224951 182.955039 
L 157.224951 185.729546 
L 152.273207 185.729546 
L 152.273207 182.955039 
L 145.893155 182.955039 
L 145.893155 182.282835 
z
" clip-path="url(#p18e7622df8)" style="fill: #ff0000"/>
   </g>
   <g id="patch_19">
    <path d="M 182.223706 192.080737 
Q 180.743174 192.15968 179.142236 192.19961 
Q 177.541299 192.24 175.79766 192.24 
Q 170.597958 192.24 167.561083 191.94075 
Q 164.524207 191.6415 164.524207 191.129746 
Q 164.524207 190.616156 167.561083 190.317365 
Q 170.597958 190.018116 175.79766 190.018116 
Q 177.541299 190.018116 179.142236 190.058505 
Q 180.743174 190.098436 182.223706 190.177379 
L 182.223706 190.620287 
Q 180.729795 190.515641 179.280479 190.46699 
Q 177.831162 190.418339 176.230225 190.418339 
Q 173.358349 190.418339 171.712817 190.607895 
Q 170.071745 190.796991 170.071745 191.129746 
Q 170.071745 191.461124 171.712817 191.65068 
Q 173.358349 191.839776 176.230225 191.839776 
Q 177.831162 191.839776 179.280479 191.791125 
Q 180.729795 191.742015 182.223706 191.63737 
L 182.223706 192.080737 
z
" clip-path="url(#p18e7622df8)" style="fill: #0000ff"/>
   </g>
   <g id="patch_20">
    <path d="M 176.784666 189.276059 
L 169.977723 189.276059 
L 168.902942 190.018116 
L 164.524207 190.018116 
L 170.777475 185.944661 
L 175.970438 185.944661 
L 182.223706 190.018116 
L 177.84859 190.018116 
L 176.784666 189.276059 
z
M 171.06336 188.520034 
L 175.688172 188.520034 
L 173.379385 186.899731 
L 171.06336 188.520034 
z
" clip-path="url(#p18e7622df8)" style="fill: #008000"/>
   </g>
   <g id="patch_21">
    <path d="M 182.223706 184.939512 
Q 180.438683 185.442086 178.518791 185.694521 
Q 176.598899 185.944661 174.552072 185.944661 
Q 169.926878 185.944661 167.225542 184.448411 
Q 164.524207 182.952162 164.524207 180.393392 
Q 164.524207 177.804789 167.273143 176.320014 
Q 170.026046 174.835239 174.813876 174.835239 
Q 176.6584 174.835239 178.348222 175.037187 
Q 180.042011 175.236839 181.541431 175.631556 
L 181.541431 177.846096 
Q 179.99441 177.338932 178.463257 177.088792 
Q 176.932103 176.836358 175.393016 176.836358 
Q 172.544912 176.836358 171.001859 177.758892 
Q 169.458805 178.679131 169.458805 180.393392 
Q 169.458805 182.091589 170.946325 183.018713 
Q 172.433844 183.943542 175.17088 183.943542 
Q 175.916623 183.943542 176.555265 183.89076 
Q 177.193907 183.835684 177.701647 183.720941 
L 177.701647 181.641796 
L 174.786108 181.641796 
L 174.786108 179.789844 
L 182.223706 179.789844 
L 182.223706 184.939512 
z
" clip-path="url(#p18e7622df8)" style="fill: #ffa600"/>
   </g>
   <g id="patch_22">
    <path d="M 164.524207 153.727337 
L 182.223706 153.727337 
L 182.223706 157.843966 
L 175.856003 157.843966 
L 175.856003 174.835239 
L 170.904259 174.835239 
L 170.904259 157.843966 
L 164.524207 157.843966 
L 164.524207 153.727337 
z
" clip-path="url(#p18e7622df8)" style="fill: #ff0000"/>
   </g>
   <g id="patch_23">
    <path d="M 200.854758 191.973621 
Q 199.069734 192.10681 197.149843 192.173709 
Q 195.229951 192.24 193.183124 192.24 
Q 188.55793 192.24 185.856594 191.843472 
Q 183.155259 191.446944 183.155259 190.768832 
Q 183.155259 190.082814 185.904195 189.689327 
Q 188.657098 189.29584 193.444927 189.29584 
Q 195.289451 189.29584 196.979274 189.349359 
Q 198.673063 189.40227 200.172482 189.506875 
L 200.172482 190.093761 
Q 198.625462 189.959355 197.094309 189.893065 
Q 195.563155 189.826166 194.024068 189.826166 
Q 191.175964 189.826166 189.632911 190.070651 
Q 188.089857 190.314528 188.089857 190.768832 
Q 188.089857 191.218879 189.577376 191.464581 
Q 191.064896 191.709674 193.801932 191.709674 
Q 194.547675 191.709674 195.186317 191.695686 
Q 195.824959 191.68109 196.332699 191.650681 
L 196.332699 191.099678 
L 193.41716 191.099678 
L 193.41716 190.608883 
L 200.854758 190.608883 
L 200.854758 191.973621 
z
" clip-path="url(#p18e7622df8)" style="fill: #ffa600"/>
   </g>
   <g id="patch_24">
    <path d="M 200.854758 189.014459 
Q 199.374225 189.153933 197.773288 189.224481 
Q 196.172351 189.29584 194.428711 189.29584 
Q 189.22901 189.29584 186.192134 188.767136 
Q 183.155259 188.238431 183.155259 187.334282 
Q 183.155259 186.42689 186.192134 185.898997 
Q 189.22901 185.370293 194.428711 185.370293 
Q 196.172351 185.370293 197.773288 185.441651 
Q 199.374225 185.512199 200.854758 185.651673 
L 200.854758 186.434188 
Q 199.360847 186.249304 197.911531 186.163349 
Q 196.462214 186.077394 194.861277 186.077394 
Q 191.9894 186.077394 190.343869 186.412294 
Q 188.702796 186.746383 188.702796 187.334282 
Q 188.702796 187.919749 190.343869 188.254649 
Q 191.9894 188.588738 194.861277 188.588738 
Q 196.462214 188.588738 197.911531 188.502783 
Q 199.360847 188.416018 200.854758 188.231133 
L 200.854758 189.014459 
z
" clip-path="url(#p18e7622df8)" style="fill: #0000ff"/>
   </g>
   <g id="patch_25">
    <path d="M 183.155259 175.556425 
L 200.854758 175.556425 
L 200.854758 177.470402 
L 194.487054 177.470402 
L 194.487054 185.370293 
L 189.535311 185.370293 
L 189.535311 177.470402 
L 183.155259 177.470402 
L 183.155259 175.556425 
z
" clip-path="url(#p18e7622df8)" style="fill: #ff0000"/>
   </g>
   <g id="patch_26">
    <path d="M 195.415717 160.002727 
L 188.608774 160.002727 
L 187.533994 175.556425 
L 183.155259 175.556425 
L 189.408527 90.175775 
L 194.60149 90.175775 
L 200.854758 175.556425 
L 196.479641 175.556425 
L 195.415717 160.002727 
z
M 189.694411 144.156255 
L 194.319224 144.156255 
L 192.010437 110.194299 
L 189.694411 144.156255 
z
" clip-path="url(#p18e7622df8)" style="fill: #008000"/>
   </g>
   <g id="patch_27">
    <path d="M 201.786311 182.904935 
L 219.48581 182.904935 
L 219.48581 184.725533 
L 213.118106 184.725533 
L 213.118106 192.24 
L 208.166363 192.24 
L 208.166363 184.725533 
L 201.786311 184.725533 
L 201.786311 182.904935 
z
" clip-path="url(#p18e7622df8)" style="fill: #ff0000"/>
   </g>
   <g id="patch_28">
    <path d="M 219.48581 181.698349 
Q 217.700786 182.301642 215.780894 182.604666 
Q 213.861002 182.904935 211.814176 182.904935 
Q 207.188981 182.904935 204.487646 181.10883 
Q 201.786311 179.312725 201.786311 176.241164 
Q 201.786311 173.133792 204.535247 171.35146 
Q 207.288149 169.569129 212.075979 169.569129 
Q 213.920503 169.569129 215.610325 169.811548 
Q 217.304114 170.051212 218.803534 170.525031 
L 218.803534 173.183377 
Q 217.256514 172.574575 215.72536 172.274306 
Q 214.194207 171.971282 212.65512 171.971282 
Q 209.807016 171.971282 208.263962 173.078696 
Q 206.720909 174.183356 206.720909 176.241164 
Q 206.720909 178.279689 208.208428 179.392613 
Q 209.695948 180.502782 212.432984 180.502782 
Q 213.178727 180.502782 213.817369 180.439423 
Q 214.45601 180.373308 214.96375 180.23557 
L 214.96375 177.739755 
L 212.048212 177.739755 
L 212.048212 175.516662 
L 219.48581 175.516662 
L 219.48581 181.698349 
z
" clip-path="url(#p18e7622df8)" style="fill: #ffa600"/>
   </g>
   <g id="patch_29">
    <path d="M 214.046769 161.066337 
L 207.239826 161.066337 
L 206.165046 169.569129 
L 201.786311 169.569129 
L 208.039579 122.893805 
L 213.232542 122.893805 
L 219.48581 169.569129 
L 215.110693 169.569129 
L 214.046769 161.066337 
z
M 208.325463 152.403493 
L 212.950276 152.403493 
L 210.641488 133.837398 
L 208.325463 152.403493 
z
" clip-path="url(#p18e7622df8)" style="fill: #008000"/>
   </g>
   <g id="patch_30">
    <path d="M 238.116861 192.078724 
Q 236.636329 192.158665 235.035392 192.1991 
Q 233.434454 192.24 231.690815 192.24 
Q 226.491113 192.24 223.454238 191.936969 
Q 220.417362 191.633938 220.417362 191.115718 
Q 220.417362 190.595639 223.454238 190.293073 
Q 226.491113 189.990042 231.690815 189.990042 
Q 233.434454 189.990042 235.035392 190.030942 
Q 236.636329 190.071377 238.116861 190.151317 
L 238.116861 190.599822 
Q 236.622951 190.493854 235.173634 190.444588 
Q 233.724318 190.395322 232.12338 190.395322 
Q 229.251504 190.395322 227.605972 190.587273 
Q 225.9649 190.778759 225.9649 191.115718 
Q 225.9649 191.451283 227.605972 191.643234 
Q 229.251504 191.834719 232.12338 191.834719 
Q 233.724318 191.834719 235.173634 191.785454 
Q 236.622951 191.735723 238.116861 191.629755 
L 238.116861 192.078724 
z
" clip-path="url(#p18e7622df8)" style="fill: #0000ff"/>
   </g>
   <g id="patch_31">
    <path d="M 232.677821 189.215838 
L 225.870878 189.215838 
L 224.796097 189.990042 
L 220.417362 189.990042 
L 226.67063 185.740121 
L 231.863593 185.740121 
L 238.116861 189.990042 
L 233.741745 189.990042 
L 232.677821 189.215838 
z
M 226.956515 188.427062 
L 231.581328 188.427062 
L 229.27254 186.736566 
L 226.956515 188.427062 
z
" clip-path="url(#p18e7622df8)" style="fill: #008000"/>
   </g>
   <g id="patch_32">
    <path d="M 238.116861 185.197268 
Q 236.331838 185.468694 234.411946 185.605027 
Q 232.492054 185.740121 230.445227 185.740121 
Q 225.820033 185.740121 223.118698 184.932038 
Q 220.417362 184.123956 220.417362 182.742035 
Q 220.417362 181.344003 223.166298 180.542118 
Q 225.919201 179.740232 230.707031 179.740232 
Q 232.551555 179.740232 234.241377 179.849298 
Q 235.935166 179.957125 237.434586 180.1703 
L 237.434586 181.366312 
Q 235.887565 181.092407 234.356412 180.957313 
Q 232.825259 180.82098 231.286172 180.82098 
Q 228.438068 180.82098 226.895014 181.319215 
Q 225.35196 181.816211 225.35196 182.742035 
Q 225.35196 183.659184 226.83948 184.159898 
Q 228.327 184.659372 231.064035 184.659372 
Q 231.809779 184.659372 232.44842 184.630866 
Q 233.087062 184.601121 233.594802 184.539151 
L 233.594802 183.416264 
L 230.679264 183.416264 
L 230.679264 182.416076 
L 238.116861 182.416076 
L 238.116861 185.197268 
z
" clip-path="url(#p18e7622df8)" style="fill: #ffa600"/>
   </g>
   <g id="patch_33">
    <path d="M 220.417362 166.240483 
L 238.116861 166.240483 
L 238.116861 168.87331 
L 231.749158 168.87331 
L 231.749158 179.740232 
L 226.797414 179.740232 
L 226.797414 168.87331 
L 220.417362 168.87331 
L 220.417362 166.240483 
z
" clip-path="url(#p18e7622df8)" style="fill: #ff0000"/>
   </g>
   <g id="patch_34">
    <path d="M 256.747913 191.612601 
Q 255.267381 191.923588 253.666443 192.08089 
Q 252.065506 192.24 250.321867 192.24 
Q 245.122165 192.24 242.08529 191.06114 
Q 239.048414 189.88228 239.048414 187.866285 
Q 239.048414 185.843058 242.08529 184.666006 
Q 245.122165 183.487147 250.321867 183.487147 
Q 252.065506 183.487147 253.666443 183.646257 
Q 255.267381 183.803558 256.747913 184.114546 
L 256.747913 185.859331 
Q 255.254002 185.447091 253.804686 185.255436 
Q 252.355369 185.063781 250.754432 185.063781 
Q 247.882556 185.063781 246.237024 185.810513 
Q 244.595952 186.555437 244.595952 187.866285 
Q 244.595952 189.17171 246.237024 189.918442 
Q 247.882556 190.663365 250.754432 190.663365 
Q 252.355369 190.663365 253.804686 190.47171 
Q 255.254002 190.278247 256.747913 189.866008 
L 256.747913 191.612601 
z
" clip-path="url(#p18e7622df8)" style="fill: #0000ff"/>
   </g>
   <g id="patch_35">
    <path d="M 239.048414 40.523874 
L 256.747913 40.523874 
L 256.747913 68.405696 
L 250.38021 68.405696 
L 250.38021 183.487147 
L 245.428466 183.487147 
L 245.428466 68.405696 
L 239.048414 68.405696 
L 239.048414 40.523874 
z
" clip-path="url(#p18e7622df8)" style="fill: #ff0000"/>
   </g>
   <g id="patch_36">
    <path d="M 269.939924 191.94867 
L 263.132981 191.94867 
L 262.058201 192.24 
L 257.679466 192.24 
L 263.932734 190.640769 
L 269.125697 190.640769 
L 275.378965 192.24 
L 271.003849 192.24 
L 269.939924 191.94867 
z
M 264.218618 191.651856 
L 268.843431 191.651856 
L 266.534644 191.015728 
L 264.218618 191.651856 
z
" clip-path="url(#p18e7622df8)" style="fill: #008000"/>
   </g>
   <g id="patch_37">
    <path d="M 275.378965 190.496075 
Q 273.593941 190.568422 271.67405 190.604761 
Q 269.754158 190.640769 267.707331 190.640769 
Q 263.082137 190.640769 260.380801 190.42538 
Q 257.679466 190.209991 257.679466 189.841649 
Q 257.679466 189.469013 260.428402 189.255276 
Q 263.181305 189.041538 267.969134 189.041538 
Q 269.813659 189.041538 271.503481 189.070609 
Q 273.19727 189.09935 274.696689 189.15617 
L 274.696689 189.474959 
Q 273.149669 189.401952 271.618516 189.365943 
Q 270.087362 189.329605 268.548275 189.329605 
Q 265.700171 189.329605 264.157118 189.462406 
Q 262.614064 189.594877 262.614064 189.841649 
Q 262.614064 190.086109 264.101583 190.219571 
Q 265.589103 190.352703 268.326139 190.352703 
Q 269.071882 190.352703 269.710524 190.345105 
Q 270.349166 190.337176 270.856906 190.320659 
L 270.856906 190.02136 
L 267.941367 190.02136 
L 267.941367 189.754767 
L 275.378965 189.754767 
L 275.378965 190.496075 
z
" clip-path="url(#p18e7622df8)" style="fill: #ffa600"/>
   </g>
   <g id="patch_38">
    <path d="M 257.679466 25.92 
L 275.378965 25.92 
L 275.378965 57.733245 
L 269.011261 57.733245 
L 269.011261 189.041538 
L 264.059518 189.041538 
L 264.059518 57.733245 
L 257.679466 57.733245 
L 257.679466 25.92 
z
" clip-path="url(#p18e7622df8)" style="fill: #ff0000"/>
   </g>
   <g id="patch_39">
    <path d="M 288.570976 191.855279 
L 281.764033 191.855279 
L 280.689253 192.24 
L 276.310518 192.24 
L 282.563786 190.128109 
L 287.756749 190.128109 
L 294.010017 192.24 
L 289.6349 192.24 
L 288.570976 191.855279 
z
M 282.84967 191.463317 
L 287.474483 191.463317 
L 285.165695 190.623268 
L 282.84967 191.463317 
z
" clip-path="url(#p18e7622df8)" style="fill: #008000"/>
   </g>
   <g id="patch_40">
    <path d="M 294.010017 189.97673 
Q 292.529484 190.051766 290.928547 190.089719 
Q 289.32761 190.128109 287.58397 190.128109 
Q 282.384269 190.128109 279.347393 189.843674 
Q 276.310518 189.559238 276.310518 189.072819 
Q 276.310518 188.584654 279.347393 188.300654 
Q 282.384269 188.016219 287.58397 188.016219 
Q 289.32761 188.016219 290.928547 188.054609 
Q 292.529484 188.092563 294.010017 188.167598 
L 294.010017 188.58858 
Q 292.516106 188.489115 291.066789 188.442872 
Q 289.617473 188.39663 288.016535 188.39663 
Q 285.144659 188.39663 283.499127 188.576801 
Q 281.858055 188.756537 281.858055 189.072819 
Q 281.858055 189.387792 283.499127 189.567963 
Q 285.144659 189.747699 288.016535 189.747699 
Q 289.617473 189.747699 291.066789 189.701456 
Q 292.516106 189.654777 294.010017 189.555312 
L 294.010017 189.97673 
z
" clip-path="url(#p18e7622df8)" style="fill: #0000ff"/>
   </g>
   <g id="patch_41">
    <path d="M 294.010017 186.869752 
Q 292.224993 187.442985 290.305101 187.730911 
Q 288.385209 188.016219 286.338383 188.016219 
Q 281.713188 188.016219 279.011853 186.309605 
Q 276.310518 184.602992 276.310518 181.684473 
Q 276.310518 178.731927 279.059454 177.038401 
Q 281.812356 175.344875 286.600186 175.344875 
Q 288.44471 175.344875 290.134532 175.575216 
Q 291.828321 175.802939 293.327741 176.25315 
L 293.327741 178.779042 
Q 291.780721 178.200574 290.249567 177.915266 
Q 288.718414 177.62734 287.179327 177.62734 
Q 284.331223 177.62734 282.788169 178.679577 
Q 281.245116 179.729197 281.245116 181.684473 
Q 281.245116 183.621427 282.732635 184.6789 
Q 284.220155 185.733754 286.957191 185.733754 
Q 287.702934 185.733754 288.341576 185.673552 
Q 288.980217 185.610731 289.487957 185.479856 
L 289.487957 183.108396 
L 286.572419 183.108396 
L 286.572419 180.99607 
L 294.010017 180.99607 
L 294.010017 186.869752 
z
" clip-path="url(#p18e7622df8)" style="fill: #ffa600"/>
   </g>
   <g id="patch_42">
    <path d="M 276.310518 82.421691 
L 294.010017 82.421691 
L 294.010017 100.544301 
L 287.642313 100.544301 
L 287.642313 175.344875 
L 282.69057 175.344875 
L 282.69057 100.544301 
L 276.310518 100.544301 
L 276.310518 82.421691 
z
" clip-path="url(#p18e7622df8)" style="fill: #ff0000"/>
   </g>
   <g id="patch_43">
    <path d="M 312.641068 192.18378 
Q 311.160536 192.211647 309.559599 192.225743 
Q 307.958661 192.24 306.215022 192.24 
Q 301.01532 192.24 297.978445 192.134366 
Q 294.941569 192.028731 294.941569 191.848084 
Q 294.941569 191.666788 297.978445 191.561315 
Q 301.01532 191.455681 306.215022 191.455681 
Q 307.958661 191.455681 309.559599 191.469938 
Q 311.160536 191.484034 312.641068 191.511901 
L 312.641068 191.668246 
Q 311.147158 191.631306 309.697841 191.614133 
Q 308.248525 191.596959 306.647587 191.596959 
Q 303.775711 191.596959 302.130179 191.663871 
Q 300.489107 191.730622 300.489107 191.848084 
Q 300.489107 191.965059 302.130179 192.031972 
Q 303.775711 192.098722 306.647587 192.098722 
Q 308.248525 192.098722 309.697841 192.081548 
Q 311.147158 192.064213 312.641068 192.027273 
L 312.641068 192.18378 
z
" clip-path="url(#p18e7622df8)" style="fill: #0000ff"/>
   </g>
   <g id="patch_44">
    <path d="M 307.202028 190.455532 
L 300.395085 190.455532 
L 299.320305 191.455681 
L 294.941569 191.455681 
L 301.194837 185.965449 
L 306.3878 185.965449 
L 312.641068 191.455681 
L 308.265952 191.455681 
L 307.202028 190.455532 
z
M 301.480722 189.436556 
L 306.105535 189.436556 
L 303.796747 187.2527 
L 301.480722 189.436556 
z
" clip-path="url(#p18e7622df8)" style="fill: #008000"/>
   </g>
   <g id="patch_45">
    <path d="M 294.941569 169.494751 
L 312.641068 169.494751 
L 312.641068 172.706996 
L 306.273365 172.706996 
L 306.273365 185.965449 
L 301.321621 185.965449 
L 301.321621 172.706996 
L 294.941569 172.706996 
L 294.941569 169.494751 
z
" clip-path="url(#p18e7622df8)" style="fill: #ff0000"/>
   </g>
   <g id="patch_46">
    <path d="M 312.641068 167.862603 
Q 310.856045 168.678677 308.936153 169.088577 
Q 307.016261 169.494751 304.969434 169.494751 
Q 300.34424 169.494751 297.642905 167.065161 
Q 294.941569 164.635571 294.941569 160.480673 
Q 294.941569 156.277333 297.690505 153.866374 
Q 300.443408 151.455416 305.231238 151.455416 
Q 307.075762 151.455416 308.765584 151.783336 
Q 310.459373 152.10753 311.958793 152.748465 
L 311.958793 156.344407 
Q 310.411772 155.520881 308.880619 155.114707 
Q 307.349466 154.704807 305.810379 154.704807 
Q 302.962275 154.704807 301.419221 156.202806 
Q 299.876167 157.697078 299.876167 160.480673 
Q 299.876167 163.238184 301.363687 164.743635 
Q 302.851207 166.245361 305.588242 166.245361 
Q 306.333986 166.245361 306.972627 166.159654 
Q 307.611269 166.070221 308.119009 165.883903 
L 308.119009 162.507816 
L 305.203471 162.507816 
L 305.203471 159.500639 
L 312.641068 159.500639 
L 312.641068 167.862603 
z
" clip-path="url(#p18e7622df8)" style="fill: #ffa600"/>
   </g>
   <g id="patch_47">
    <path d="M 331.27212 192.11088 
Q 329.791588 192.174882 328.19065 192.207255 
Q 326.589713 192.24 324.846074 192.24 
Q 319.646372 192.24 316.609497 191.997389 
Q 313.572621 191.754778 313.572621 191.339884 
Q 313.572621 190.923501 316.609497 190.681262 
Q 319.646372 190.438651 324.846074 190.438651 
Q 326.589713 190.438651 328.19065 190.471396 
Q 329.791588 190.503769 331.27212 190.567771 
L 331.27212 190.92685 
Q 329.778209 190.842011 328.328893 190.802568 
Q 326.879576 190.763125 325.278639 190.763125 
Q 322.406763 190.763125 320.761231 190.916803 
Q 319.120159 191.070109 319.120159 191.339884 
Q 319.120159 191.608542 320.761231 191.76222 
Q 322.406763 191.915527 325.278639 191.915527 
Q 326.879576 191.915527 328.328893 191.876084 
Q 329.778209 191.836269 331.27212 191.751429 
L 331.27212 192.11088 
z
" clip-path="url(#p18e7622df8)" style="fill: #0000ff"/>
   </g>
   <g id="patch_48">
    <path d="M 331.27212 190.031199 
Q 329.487097 190.234925 327.567205 190.337253 
Q 325.647313 190.438651 323.600486 190.438651 
Q 318.975292 190.438651 316.273957 189.832124 
Q 313.572621 189.225597 313.572621 188.188361 
Q 313.572621 187.139032 316.321557 186.537156 
Q 319.07446 185.93528 323.86229 185.93528 
Q 325.706814 185.93528 327.396636 186.017142 
Q 329.090425 186.098075 330.589845 186.258079 
L 330.589845 187.155776 
Q 329.042824 186.95019 327.511671 186.848792 
Q 325.980517 186.746463 324.44143 186.746463 
Q 321.593326 186.746463 320.050273 187.120426 
Q 318.507219 187.493459 318.507219 188.188361 
Q 318.507219 188.876751 319.994739 189.252574 
Q 321.482258 189.627468 324.219294 189.627468 
Q 324.965037 189.627468 325.603679 189.606072 
Q 326.242321 189.583746 326.750061 189.537233 
L 326.750061 188.69442 
L 323.834523 188.69442 
L 323.834523 187.943703 
L 331.27212 187.943703 
L 331.27212 190.031199 
z
" clip-path="url(#p18e7622df8)" style="fill: #ffa600"/>
   </g>
   <g id="patch_49">
    <path d="M 325.83308 183.474157 
L 319.026137 183.474157 
L 317.951356 185.93528 
L 313.572621 185.93528 
L 319.825889 172.425165 
L 325.018852 172.425165 
L 331.27212 185.93528 
L 326.897004 185.93528 
L 325.83308 183.474157 
z
M 320.111774 180.966708 
L 324.736586 180.966708 
L 322.427799 175.592774 
L 320.111774 180.966708 
z
" clip-path="url(#p18e7622df8)" style="fill: #008000"/>
   </g>
   <g id="patch_50">
    <path d="M 313.572621 145.404935 
L 331.27212 145.404935 
L 331.27212 150.674633 
L 324.904417 150.674633 
L 324.904417 172.425165 
L 319.952673 172.425165 
L 319.952673 150.674633 
L 313.572621 150.674633 
L 313.572621 145.404935 
z
" clip-path="url(#p18e7622df8)" style="fill: #ff0000"/>
   </g>
   <g id="patch_51">
    <path d="M 349.903172 192.06813 
Q 348.422639 192.153322 346.821702 192.196413 
Q 345.220765 192.24 343.477126 192.24 
Q 338.277424 192.24 335.240548 191.917063 
Q 332.203673 191.594126 332.203673 191.041865 
Q 332.203673 190.487622 335.240548 190.16518 
Q 338.277424 189.842243 343.477126 189.842243 
Q 345.220765 189.842243 346.821702 189.88583 
Q 348.422639 189.928921 349.903172 190.014113 
L 349.903172 190.492079 
Q 348.409261 190.379151 346.959945 190.326649 
Q 345.510628 190.274147 343.909691 190.274147 
Q 341.037814 190.274147 339.392283 190.478706 
Q 337.75121 190.682771 337.75121 191.041865 
Q 337.75121 191.399473 339.392283 191.604032 
Q 341.037814 191.808097 343.909691 191.808097 
Q 345.510628 191.808097 346.959945 191.755595 
Q 348.409261 191.702597 349.903172 191.589669 
L 349.903172 192.06813 
z
" clip-path="url(#p18e7622df8)" style="fill: #0000ff"/>
   </g>
   <g id="patch_52">
    <path d="M 349.903172 189.589144 
Q 348.118149 189.715694 346.198257 189.779257 
Q 344.278365 189.842243 342.231538 189.842243 
Q 337.606344 189.842243 334.905008 189.465484 
Q 332.203673 189.088724 332.203673 188.444419 
Q 332.203673 187.792601 334.952609 187.418731 
Q 337.705512 187.044861 342.493341 187.044861 
Q 344.337866 187.044861 346.027688 187.095712 
Q 347.721477 187.145985 349.220896 187.245375 
L 349.220896 187.803003 
Q 347.673876 187.675297 346.142723 187.612311 
Q 344.611569 187.548748 343.072482 187.548748 
Q 340.224378 187.548748 338.681325 187.781044 
Q 337.138271 188.012763 337.138271 188.444419 
Q 337.138271 188.872029 338.62579 189.105482 
Q 340.11331 189.338356 342.850346 189.338356 
Q 343.596089 189.338356 344.234731 189.325066 
Q 344.873373 189.311197 345.381113 189.282304 
L 345.381113 188.75877 
L 342.465574 188.75877 
L 342.465574 188.292444 
L 349.903172 188.292444 
L 349.903172 189.589144 
z
" clip-path="url(#p18e7622df8)" style="fill: #ffa600"/>
   </g>
   <g id="patch_53">
    <path d="M 344.464131 183.987284 
L 337.657188 183.987284 
L 336.582408 187.044861 
L 332.203673 187.044861 
L 338.456941 170.260564 
L 343.649904 170.260564 
L 349.903172 187.044861 
L 345.528056 187.044861 
L 344.464131 183.987284 
z
M 338.742825 180.872153 
L 343.367638 180.872153 
L 341.058851 174.195845 
L 338.742825 180.872153 
z
" clip-path="url(#p18e7622df8)" style="fill: #008000"/>
   </g>
   <g id="patch_54">
    <path d="M 332.203673 150.678884 
L 349.903172 150.678884 
L 349.903172 154.497857 
L 343.535468 154.497857 
L 343.535468 170.260564 
L 338.583725 170.260564 
L 338.583725 154.497857 
L 332.203673 154.497857 
L 332.203673 150.678884 
z
" clip-path="url(#p18e7622df8)" style="fill: #ff0000"/>
   </g>
   <g id="patch_55">
    <path d="M 368.534224 192.166251 
Q 367.053691 192.202807 365.452754 192.221297 
Q 363.851817 192.24 362.108177 192.24 
Q 356.908476 192.24 353.8716 192.101428 
Q 350.834725 191.962856 350.834725 191.72588 
Q 350.834725 191.488054 353.8716 191.349695 
Q 356.908476 191.211122 362.108177 191.211122 
Q 363.851817 191.211122 365.452754 191.229825 
Q 367.053691 191.248316 368.534224 191.284872 
L 368.534224 191.489967 
Q 367.040313 191.441509 365.590996 191.418981 
Q 364.14168 191.396452 362.540743 191.396452 
Q 359.668866 191.396452 358.023334 191.484229 
Q 356.382262 191.571793 356.382262 191.72588 
Q 356.382262 191.87933 358.023334 191.967106 
Q 359.668866 192.05467 362.540743 192.05467 
Q 364.14168 192.05467 365.590996 192.032142 
Q 367.040313 192.009401 368.534224 191.960943 
L 368.534224 192.166251 
z
" clip-path="url(#p18e7622df8)" style="fill: #0000ff"/>
   </g>
   <g id="patch_56">
    <path d="M 363.095183 190.227118 
L 356.28824 190.227118 
L 355.21346 191.211122 
L 350.834725 191.211122 
L 357.087993 185.809516 
L 362.280956 185.809516 
L 368.534224 191.211122 
L 364.159107 191.211122 
L 363.095183 190.227118 
z
M 357.373877 189.224591 
L 361.99869 189.224591 
L 359.689902 187.075988 
L 357.373877 189.224591 
z
" clip-path="url(#p18e7622df8)" style="fill: #008000"/>
   </g>
   <g id="patch_57">
    <path d="M 350.834725 176.549618 
L 368.534224 176.549618 
L 368.534224 178.355556 
L 362.16652 178.355556 
L 362.16652 185.809516 
L 357.214777 185.809516 
L 357.214777 178.355556 
L 350.834725 178.355556 
L 350.834725 176.549618 
z
" clip-path="url(#p18e7622df8)" style="fill: #ff0000"/>
   </g>
   <g id="patch_58">
    <path d="M 368.534224 175.548901 
Q 366.7492 176.04926 364.829308 176.300581 
Q 362.909416 176.549618 360.86259 176.549618 
Q 356.237396 176.549618 353.53606 175.059967 
Q 350.834725 173.570315 350.834725 171.022829 
Q 350.834725 168.44564 353.583661 166.967413 
Q 356.336563 165.489185 361.124393 165.489185 
Q 362.968917 165.489185 364.658739 165.690242 
Q 366.352528 165.889015 367.851948 166.28199 
L 367.851948 168.486766 
Q 366.304928 167.981838 364.773774 167.732801 
Q 363.242621 167.481479 361.703534 167.481479 
Q 358.85543 167.481479 357.312376 168.399945 
Q 355.769323 169.316127 355.769323 171.022829 
Q 355.769323 172.713537 357.256842 173.636573 
Q 358.744362 174.557324 361.481398 174.557324 
Q 362.227141 174.557324 362.865783 174.504774 
Q 363.504424 174.449941 364.012164 174.335704 
L 364.012164 172.265728 
L 361.096626 172.265728 
L 361.096626 170.421942 
L 368.534224 170.421942 
L 368.534224 175.548901 
z
" clip-path="url(#p18e7622df8)" style="fill: #ffa600"/>
   </g>
   <g id="patch_59">
    <path d="M 381.726235 191.901363 
L 374.919292 191.901363 
L 373.844512 192.24 
L 369.465776 192.24 
L 375.719044 190.381082 
L 380.912007 190.381082 
L 387.165275 192.24 
L 382.790159 192.24 
L 381.726235 191.901363 
z
M 376.004929 191.556352 
L 380.629742 191.556352 
L 378.320954 190.816928 
L 376.004929 191.556352 
z
" clip-path="url(#p18e7622df8)" style="fill: #008000"/>
   </g>
   <g id="patch_60">
    <path d="M 387.165275 190.061292 
Q 385.684743 190.219805 384.083806 190.299983 
Q 382.482868 190.381082 380.739229 190.381082 
Q 375.539527 190.381082 372.502652 189.780208 
Q 369.465776 189.179333 369.465776 188.151764 
Q 369.465776 187.120508 372.502652 186.520555 
Q 375.539527 185.91968 380.739229 185.91968 
Q 382.482868 185.91968 384.083806 186.00078 
Q 385.684743 186.080958 387.165275 186.239471 
L 387.165275 187.128802 
Q 385.671365 186.918681 384.222048 186.820992 
Q 382.772732 186.723304 381.171794 186.723304 
Q 378.299918 186.723304 376.654386 187.10392 
Q 375.013314 187.483613 375.013314 188.151764 
Q 375.013314 188.81715 376.654386 189.197765 
Q 378.299918 189.577459 381.171794 189.577459 
Q 382.772732 189.577459 384.222048 189.47977 
Q 385.671365 189.381161 387.165275 189.171039 
L 387.165275 190.061292 
z
" clip-path="url(#p18e7622df8)" style="fill: #0000ff"/>
   </g>
   <g id="patch_61">
    <path d="M 387.165275 184.876905 
Q 385.380252 185.398293 383.46036 185.660177 
Q 381.540468 185.91968 379.493641 185.91968 
Q 374.868447 185.91968 372.167112 184.367421 
Q 369.465776 182.815161 369.465776 180.160607 
Q 369.465776 177.475103 372.214712 175.934747 
Q 374.967615 174.394392 379.755445 174.394392 
Q 381.599969 174.394392 383.289791 174.603899 
Q 384.98358 174.811026 386.483 175.220517 
L 386.483 177.517957 
Q 384.93598 176.991807 383.404826 176.732304 
Q 381.873673 176.47042 380.334586 176.47042 
Q 377.486482 176.47042 375.943428 177.427488 
Q 374.400374 178.382175 374.400374 180.160607 
Q 374.400374 181.922374 375.887894 182.884204 
Q 377.375414 183.843652 380.112449 183.843652 
Q 380.858193 183.843652 381.496834 183.788895 
Q 382.135476 183.731756 382.643216 183.612718 
L 382.643216 181.455744 
L 379.727678 181.455744 
L 379.727678 179.534466 
L 387.165275 179.534466 
L 387.165275 184.876905 
z
" clip-path="url(#p18e7622df8)" style="fill: #ffa600"/>
   </g>
   <g id="patch_62">
    <path d="M 369.465776 153.574515 
L 387.165275 153.574515 
L 387.165275 157.634971 
L 380.797572 157.634971 
L 380.797572 174.394392 
L 375.845828 174.394392 
L 375.845828 157.634971 
L 369.465776 157.634971 
L 369.465776 153.574515 
z
" clip-path="url(#p18e7622df8)" style="fill: #ff0000"/>
   </g>
   <g id="patch_63">
    <path d="M 405.796327 192.042961 
Q 404.315795 192.140629 402.714857 192.19003 
Q 401.11392 192.24 399.370281 192.24 
Q 394.170579 192.24 391.133704 191.869771 
Q 388.096828 191.499542 388.096828 190.866405 
Q 388.096828 190.230996 391.133704 189.861335 
Q 394.170579 189.491106 399.370281 189.491106 
Q 401.11392 189.491106 402.714857 189.541075 
Q 404.315795 189.590477 405.796327 189.688145 
L 405.796327 190.236107 
Q 404.302416 190.10664 402.8531 190.04645 
Q 401.403783 189.986259 399.802846 189.986259 
Q 396.93097 189.986259 395.285438 190.220775 
Q 393.644366 190.454724 393.644366 190.866405 
Q 393.644366 191.276382 395.285438 191.510899 
Q 396.93097 191.744847 399.802846 191.744847 
Q 401.403783 191.744847 402.8531 191.684656 
Q 404.302416 191.623898 405.796327 191.494431 
L 405.796327 192.042961 
z
" clip-path="url(#p18e7622df8)" style="fill: #0000ff"/>
   </g>
   <g id="patch_64">
    <path d="M 388.096828 186.742212 
L 405.796327 186.742212 
L 405.796327 187.278323 
L 399.428624 187.278323 
L 399.428624 189.491106 
L 394.47688 189.491106 
L 394.47688 187.278323 
L 388.096828 187.278323 
L 388.096828 186.742212 
z
" clip-path="url(#p18e7622df8)" style="fill: #ff0000"/>
   </g>
   <g id="patch_65">
    <path d="M 400.357287 184.426183 
L 393.550344 184.426183 
L 392.475563 186.742212 
L 388.096828 186.742212 
L 394.350096 174.028577 
L 399.543059 174.028577 
L 405.796327 186.742212 
L 401.421211 186.742212 
L 400.357287 184.426183 
z
M 394.635981 182.066559 
L 399.260793 182.066559 
L 396.952006 177.009442 
L 394.635981 182.066559 
z
" clip-path="url(#p18e7622df8)" style="fill: #008000"/>
   </g>
   <g id="patch_66">
    <path d="M 405.796327 172.443037 
Q 404.011304 173.235807 402.091412 173.634002 
Q 400.17152 174.028577 398.124693 174.028577 
Q 393.499499 174.028577 390.798164 171.668366 
Q 388.096828 169.308156 388.096828 165.271907 
Q 388.096828 161.188598 390.845764 158.846487 
Q 393.598667 156.504377 398.386497 156.504377 
Q 400.231021 156.504377 401.920843 156.822933 
Q 403.614632 157.137869 405.114052 157.760501 
L 405.114052 161.253757 
Q 403.567031 160.453747 402.035878 160.059172 
Q 400.504724 159.660977 398.965637 159.660977 
Q 396.117533 159.660977 394.57448 161.116199 
Q 393.031426 162.567801 393.031426 165.271907 
Q 393.031426 167.950673 394.518946 169.413135 
Q 396.006465 170.871976 398.743501 170.871976 
Q 399.489244 170.871976 400.127886 170.788717 
Q 400.766528 170.701838 401.274268 170.520841 
L 401.274268 167.241162 
L 398.35873 167.241162 
L 398.35873 164.319859 
L 405.796327 164.319859 
L 405.796327 172.443037 
z
" clip-path="url(#p18e7622df8)" style="fill: #ffa600"/>
   </g>
   <g id="patch_67">
    <path d="M 424.427379 192.165538 
Q 422.946846 192.202447 421.345909 192.221116 
Q 419.744972 192.24 418.001333 192.24 
Q 412.801631 192.24 409.764755 192.100088 
Q 406.72788 191.960176 406.72788 191.72091 
Q 406.72788 191.480786 409.764755 191.341088 
Q 412.801631 191.201177 418.001333 191.201177 
Q 419.744972 191.201177 421.345909 191.22006 
Q 422.946846 191.23873 424.427379 191.275639 
L 424.427379 191.482717 
Q 422.933468 191.433791 421.484152 191.411044 
Q 420.034835 191.388298 418.433898 191.388298 
Q 415.562021 191.388298 413.91649 191.476923 
Q 412.275417 191.565333 412.275417 191.72091 
Q 412.275417 191.875843 413.91649 191.964468 
Q 415.562021 192.052879 418.433898 192.052879 
Q 420.034835 192.052879 421.484152 192.030132 
Q 422.933468 192.007171 424.427379 191.958245 
L 424.427379 192.165538 
z
" clip-path="url(#p18e7622df8)" style="fill: #0000ff"/>
   </g>
   <g id="patch_68">
    <path d="M 406.72788 188.084706 
L 424.427379 188.084706 
L 424.427379 188.692505 
L 418.059675 188.692505 
L 418.059675 191.201177 
L 413.107932 191.201177 
L 413.107932 188.692505 
L 406.72788 188.692505 
L 406.72788 188.084706 
z
" clip-path="url(#p18e7622df8)" style="fill: #ff0000"/>
   </g>
   <g id="patch_69">
    <path d="M 424.427379 186.862839 
Q 422.642356 187.473773 420.722464 187.780634 
Q 418.802572 188.084706 416.755745 188.084706 
Q 412.130551 188.084706 409.429215 186.265853 
Q 406.72788 184.447 406.72788 181.336538 
Q 406.72788 178.189811 409.476816 176.384906 
Q 412.229719 174.580002 417.017548 174.580002 
Q 418.862073 174.580002 420.551895 174.825491 
Q 422.245684 175.068191 423.745103 175.548011 
L 423.745103 178.240025 
Q 422.198083 177.623512 420.66693 177.31944 
Q 419.135776 177.012578 417.596689 177.012578 
Q 414.748585 177.012578 413.205532 178.134018 
Q 411.662478 179.252669 411.662478 181.336538 
Q 411.662478 183.400881 413.149997 184.5279 
Q 414.637517 185.65213 417.374553 185.65213 
Q 418.120296 185.65213 418.758938 185.587968 
Q 419.39758 185.521016 419.90532 185.381534 
L 419.90532 182.854109 
L 416.989781 182.854109 
L 416.989781 180.60286 
L 424.427379 180.60286 
L 424.427379 186.862839 
z
" clip-path="url(#p18e7622df8)" style="fill: #ffa600"/>
   </g>
   <g id="patch_70">
    <path d="M 418.988338 158.116008 
L 412.181395 158.116008 
L 411.106615 174.580002 
L 406.72788 174.580002 
L 412.981148 84.202363 
L 418.174111 84.202363 
L 424.427379 174.580002 
L 420.052263 174.580002 
L 418.988338 158.116008 
z
M 413.267032 141.342105 
L 417.891845 141.342105 
L 415.583058 105.392491 
L 413.267032 141.342105 
z
" clip-path="url(#p18e7622df8)" style="fill: #008000"/>
   </g>
   <g id="patch_71">
    <path d="M 443.058431 192.152205 
Q 441.273407 192.196102 439.353515 192.218151 
Q 437.433623 192.24 435.386797 192.24 
Q 430.761603 192.24 428.060267 192.109309 
Q 425.358932 191.978618 425.358932 191.755121 
Q 425.358932 191.529018 428.107868 191.399329 
Q 430.86077 191.269641 435.6486 191.269641 
Q 437.493124 191.269641 439.182946 191.28728 
Q 440.876735 191.304719 442.376155 191.339196 
L 442.376155 191.532626 
Q 440.829135 191.488327 439.297981 191.466479 
Q 437.766828 191.44443 436.227741 191.44443 
Q 433.379637 191.44443 431.836583 191.525009 
Q 430.29353 191.605388 430.29353 191.755121 
Q 430.29353 191.903451 431.781049 191.984431 
Q 433.268569 192.065211 436.005605 192.065211 
Q 436.751348 192.065211 437.38999 192.060601 
Q 438.028631 192.05579 438.536371 192.045768 
L 438.536371 191.864164 
L 435.620833 191.864164 
L 435.620833 191.702404 
L 443.058431 191.702404 
L 443.058431 192.152205 
z
" clip-path="url(#p18e7622df8)" style="fill: #ffa600"/>
   </g>
   <g id="patch_72">
    <path d="M 443.058431 190.713203 
Q 441.577898 190.989016 439.976961 191.128527 
Q 438.376024 191.269641 436.632384 191.269641 
Q 431.432683 191.269641 428.395807 190.224114 
Q 425.358932 189.178588 425.358932 187.390609 
Q 425.358932 185.596216 428.395807 184.552293 
Q 431.432683 183.506767 436.632384 183.506767 
Q 438.376024 183.506767 439.976961 183.647881 
Q 441.577898 183.787391 443.058431 184.063205 
L 443.058431 185.610648 
Q 441.56452 185.245035 440.115203 185.075057 
Q 438.665887 184.905078 437.06495 184.905078 
Q 434.193073 184.905078 432.547541 185.567352 
Q 430.906469 186.228022 430.906469 187.390609 
Q 430.906469 188.548385 432.547541 189.210659 
Q 434.193073 189.871329 437.06495 189.871329 
Q 438.665887 189.871329 440.115203 189.701351 
Q 441.56452 189.529769 443.058431 189.164156 
L 443.058431 190.713203 
z
" clip-path="url(#p18e7622df8)" style="fill: #0000ff"/>
   </g>
   <g id="patch_73">
    <path d="M 437.61939 181.915843 
L 430.812447 181.915843 
L 429.737667 183.506767 
L 425.358932 183.506767 
L 431.6122 174.773534 
L 436.805163 174.773534 
L 443.058431 183.506767 
L 438.683314 183.506767 
L 437.61939 181.915843 
z
M 431.898084 180.294973 
L 436.522897 180.294973 
L 434.214109 176.821145 
L 431.898084 180.294973 
z
" clip-path="url(#p18e7622df8)" style="fill: #008000"/>
   </g>
   <g id="patch_74">
    <path d="M 425.358932 91.322638 
L 443.058431 91.322638 
L 443.058431 107.597888 
L 436.690727 107.597888 
L 436.690727 174.773534 
L 431.738984 174.773534 
L 431.738984 107.597888 
L 425.358932 107.597888 
L 425.358932 91.322638 
z
" clip-path="url(#p18e7622df8)" style="fill: #ff0000"/>
   </g>
   <g id="patch_75">
    <path d="M 456.250442 191.792161 
L 449.443499 191.792161 
L 448.368719 192.24 
L 443.989983 192.24 
L 450.243251 189.781629 
L 455.436214 189.781629 
L 461.689482 192.24 
L 457.314366 192.24 
L 456.250442 191.792161 
z
M 450.529136 191.335893 
L 455.153949 191.335893 
L 452.845161 190.358024 
L 450.529136 191.335893 
z
" clip-path="url(#p18e7622df8)" style="fill: #008000"/>
   </g>
   <g id="patch_76">
    <path d="M 461.689482 189.4292 
Q 460.20895 189.603891 458.608013 189.692252 
Q 457.007075 189.781629 455.263436 189.781629 
Q 450.063734 189.781629 447.026859 189.119428 
Q 443.989983 188.457227 443.989983 187.324782 
Q 443.989983 186.188274 447.026859 185.527089 
Q 450.063734 184.864888 455.263436 184.864888 
Q 457.007075 184.864888 458.608013 184.954265 
Q 460.20895 185.042626 461.689482 185.217317 
L 461.689482 186.197415 
Q 460.195572 185.965848 458.746255 185.858189 
Q 457.296939 185.750531 455.696001 185.750531 
Q 452.824125 185.750531 451.178593 186.169993 
Q 449.537521 186.588439 449.537521 187.324782 
Q 449.537521 188.058078 451.178593 188.47754 
Q 452.824125 188.895986 455.696001 188.895986 
Q 457.296939 188.895986 458.746255 188.788328 
Q 460.195572 188.679654 461.689482 188.448086 
L 461.689482 189.4292 
z
" clip-path="url(#p18e7622df8)" style="fill: #0000ff"/>
   </g>
   <g id="patch_77">
    <path d="M 461.689482 183.826898 
Q 459.904459 184.345893 457.984567 184.606575 
Q 456.064675 184.864888 454.017848 184.864888 
Q 449.392654 184.864888 446.691319 183.319752 
Q 443.989983 181.774616 443.989983 179.132244 
Q 443.989983 176.459064 446.738919 174.925778 
Q 449.491822 173.392491 454.279652 173.392491 
Q 456.124176 173.392491 457.813998 173.601037 
Q 459.507787 173.807213 461.007207 174.214825 
L 461.007207 176.501721 
Q 459.460187 175.977987 457.929033 175.719674 
Q 456.39788 175.458992 454.858793 175.458992 
Q 452.010689 175.458992 450.467635 176.411667 
Q 448.924581 177.361973 448.924581 179.132244 
Q 448.924581 180.885926 450.412101 181.843341 
Q 451.899621 182.798387 454.636656 182.798387 
Q 455.3824 182.798387 456.021041 182.743881 
Q 456.659683 182.687005 457.167423 182.568513 
L 457.167423 180.421437 
L 454.251885 180.421437 
L 454.251885 178.508976 
L 461.689482 178.508976 
L 461.689482 183.826898 
z
" clip-path="url(#p18e7622df8)" style="fill: #ffa600"/>
   </g>
   <g id="patch_78">
    <path d="M 443.989983 107.016481 
L 461.689482 107.016481 
L 461.689482 119.961652 
L 455.321779 119.961652 
L 455.321779 173.392491 
L 450.370035 173.392491 
L 450.370035 119.961652 
L 443.989983 119.961652 
L 443.989983 107.016481 
z
" clip-path="url(#p18e7622df8)" style="fill: #ff0000"/>
   </g>
   <g id="patch_79">
    <path d="M 462.621035 189.041547 
L 480.320534 189.041547 
L 480.320534 189.665335 
L 473.952831 189.665335 
L 473.952831 192.24 
L 469.001087 192.24 
L 469.001087 189.665335 
L 462.621035 189.665335 
L 462.621035 189.041547 
z
" clip-path="url(#p18e7622df8)" style="fill: #ff0000"/>
   </g>
   <g id="patch_80">
    <path d="M 480.320534 188.655698 
Q 478.535511 188.848623 476.615619 188.945525 
Q 474.695727 189.041547 472.6489 189.041547 
Q 468.023706 189.041547 465.322371 188.467178 
Q 462.621035 187.892809 462.621035 186.910567 
Q 462.621035 185.916873 465.369971 185.346908 
Q 468.122874 184.776943 472.910704 184.776943 
Q 474.755228 184.776943 476.44505 184.854466 
Q 478.138839 184.931107 479.638259 185.082628 
L 479.638259 185.932729 
Q 478.091238 185.738043 476.560085 185.642021 
Q 475.028931 185.545118 473.489844 185.545118 
Q 470.64174 185.545118 469.098687 185.899254 
Q 467.555633 186.252509 467.555633 186.910567 
Q 467.555633 187.562458 469.043153 187.918356 
Q 470.530672 188.273372 473.267708 188.273372 
Q 474.013451 188.273372 474.652093 188.253111 
Q 475.290735 188.231968 475.798475 188.187922 
L 475.798475 187.389795 
L 472.882937 187.389795 
L 472.882937 186.678881 
L 480.320534 186.678881 
L 480.320534 188.655698 
z
" clip-path="url(#p18e7622df8)" style="fill: #ffa600"/>
   </g>
   <g id="patch_81">
    <path d="M 480.320534 184.241996 
Q 478.840002 184.507157 477.239064 184.64128 
Q 475.638127 184.776943 473.894488 184.776943 
Q 468.694786 184.776943 465.657911 183.771797 
Q 462.621035 182.766651 462.621035 181.047728 
Q 462.621035 179.322638 465.657911 178.319033 
Q 468.694786 177.313887 473.894488 177.313887 
Q 475.638127 177.313887 477.239064 177.449551 
Q 478.840002 177.583673 480.320534 177.848834 
L 480.320534 179.336512 
Q 478.826623 178.98502 477.377307 178.821606 
Q 475.92799 178.658193 474.327053 178.658193 
Q 471.455177 178.658193 469.809645 179.294888 
Q 468.168573 179.930042 468.168573 181.047728 
Q 468.168573 182.160788 469.809645 182.797484 
Q 471.455177 183.432637 474.327053 183.432637 
Q 475.92799 183.432637 477.377307 183.269224 
Q 478.826623 183.104269 480.320534 182.752776 
L 480.320534 184.241996 
z
" clip-path="url(#p18e7622df8)" style="fill: #0000ff"/>
   </g>
   <g id="patch_82">
    <path d="M 474.881494 159.83413 
L 468.074551 159.83413 
L 466.99977 177.313887 
L 462.621035 177.313887 
L 468.874303 81.360303 
L 474.067266 81.360303 
L 480.320534 177.313887 
L 475.945418 177.313887 
L 474.881494 159.83413 
z
M 469.160188 142.025342 
L 473.785 142.025342 
L 471.476213 103.857779 
L 469.160188 142.025342 
z
" clip-path="url(#p18e7622df8)" style="fill: #008000"/>
   </g>
   <g id="patch_83">
    <path d="M 498.951586 192.044695 
Q 497.166563 192.142348 495.246671 192.191397 
Q 493.326779 192.24 491.279952 192.24 
Q 486.654758 192.24 483.953422 191.949272 
Q 481.252087 191.658544 481.252087 191.161364 
Q 481.252087 190.658387 484.001023 190.369889 
Q 486.753926 190.081391 491.541755 190.081391 
Q 493.38628 190.081391 495.076102 190.12063 
Q 496.769891 190.159423 498.26931 190.236119 
L 498.26931 190.666413 
Q 496.72229 190.567869 495.191137 190.519266 
Q 493.659983 190.470217 492.120896 190.470217 
Q 489.272792 190.470217 487.729739 190.649469 
Q 486.186685 190.828276 486.186685 191.161364 
Q 486.186685 191.491331 487.674205 191.671476 
Q 489.161724 191.851174 491.89876 191.851174 
Q 492.644503 191.851174 493.283145 191.840918 
Q 493.921787 191.830216 494.429527 191.807921 
L 494.429527 191.403935 
L 491.513988 191.403935 
L 491.513988 191.044092 
L 498.951586 191.044092 
L 498.951586 192.044695 
z
" clip-path="url(#p18e7622df8)" style="fill: #ffa600"/>
   </g>
   <g id="patch_84">
    <path d="M 498.951586 189.887981 
Q 497.471053 189.98385 495.870116 190.032342 
Q 494.269179 190.081391 492.52554 190.081391 
Q 487.325838 190.081391 484.288962 189.717981 
Q 481.252087 189.354571 481.252087 188.733096 
Q 481.252087 188.109391 484.288962 187.746539 
Q 487.325838 187.383129 492.52554 187.383129 
Q 494.269179 187.383129 495.870116 187.432178 
Q 497.471053 187.48067 498.951586 187.576539 
L 498.951586 188.114408 
Q 497.457675 187.987326 496.008359 187.928244 
Q 494.559042 187.869162 492.958105 187.869162 
Q 490.086228 187.869162 488.440697 188.099358 
Q 486.799624 188.328998 486.799624 188.733096 
Q 486.799624 189.135522 488.440697 189.365719 
Q 490.086228 189.595358 492.958105 189.595358 
Q 494.559042 189.595358 496.008359 189.536276 
Q 497.457675 189.476637 498.951586 189.349555 
L 498.951586 189.887981 
z
" clip-path="url(#p18e7622df8)" style="fill: #0000ff"/>
   </g>
   <g id="patch_85">
    <path d="M 481.252087 168.495297 
L 498.951586 168.495297 
L 498.951586 172.178951 
L 492.583882 172.178951 
L 492.583882 187.383129 
L 487.632139 187.383129 
L 487.632139 172.178951 
L 481.252087 172.178951 
L 481.252087 168.495297 
z
" clip-path="url(#p18e7622df8)" style="fill: #ff0000"/>
   </g>
   <g id="patch_86">
    <path d="M 493.512545 162.596826 
L 486.705603 162.596826 
L 485.630822 168.495297 
L 481.252087 168.495297 
L 487.505355 136.116157 
L 492.698318 136.116157 
L 498.951586 168.495297 
L 494.57647 168.495297 
L 493.512545 162.596826 
z
M 487.791239 156.587324 
L 492.416052 156.587324 
L 490.107265 143.707838 
L 487.791239 156.587324 
z
" clip-path="url(#p18e7622df8)" style="fill: #008000"/>
   </g>
   <g id="patch_87">
    <path d="M 517.582638 192.066472 
Q 516.102105 192.152486 514.501168 192.195993 
Q 512.900231 192.24 511.156591 192.24 
Q 505.95689 192.24 502.920014 191.913948 
Q 499.883139 191.587896 499.883139 191.030307 
Q 499.883139 190.470718 502.920014 190.145167 
Q 505.95689 189.819115 511.156591 189.819115 
Q 512.900231 189.819115 514.501168 189.863122 
Q 516.102105 189.906629 517.582638 189.992642 
L 517.582638 190.475219 
Q 516.088727 190.361201 514.63941 190.308193 
Q 513.190094 190.255184 511.589157 190.255184 
Q 508.71728 190.255184 507.071748 190.461717 
Q 505.430676 190.66775 505.430676 191.030307 
Q 505.430676 191.391365 507.071748 191.597898 
Q 508.71728 191.803931 511.589157 191.803931 
Q 513.190094 191.803931 514.63941 191.750922 
Q 516.088727 191.697414 517.582638 191.583395 
L 517.582638 192.066472 
z
" clip-path="url(#p18e7622df8)" style="fill: #0000ff"/>
   </g>
   <g id="patch_88">
    <path d="M 499.883139 186.32228 
L 517.582638 186.32228 
L 517.582638 187.00426 
L 511.214934 187.00426 
L 511.214934 189.819115 
L 506.263191 189.819115 
L 506.263191 187.00426 
L 499.883139 187.00426 
L 499.883139 186.32228 
z
" clip-path="url(#p18e7622df8)" style="fill: #ff0000"/>
   </g>
   <g id="patch_89">
    <path d="M 517.582638 185.616501 
Q 515.797614 185.969391 513.877722 186.146641 
Q 511.957831 186.32228 509.911004 186.32228 
Q 505.28581 186.32228 502.584474 185.271669 
Q 499.883139 184.221057 499.883139 182.424382 
Q 499.883139 180.60676 502.632075 179.564205 
Q 505.384978 178.52165 510.172807 178.52165 
Q 512.017331 178.52165 513.707153 178.66345 
Q 515.400942 178.803639 516.900362 179.080794 
L 516.900362 180.635764 
Q 515.353342 180.279652 513.822188 180.104013 
Q 512.291035 179.926762 510.751948 179.926762 
Q 507.903844 179.926762 506.36079 180.574532 
Q 504.817737 181.220691 504.817737 182.424382 
Q 504.817737 183.616794 506.305256 184.267787 
Q 507.792776 184.917168 510.529812 184.917168 
Q 511.275555 184.917168 511.914197 184.880106 
Q 512.552838 184.841434 513.060578 184.760865 
L 513.060578 183.300966 
L 510.14504 183.300966 
L 510.14504 182.000592 
L 517.582638 182.000592 
L 517.582638 185.616501 
z
" clip-path="url(#p18e7622df8)" style="fill: #ffa600"/>
   </g>
   <g id="patch_90">
    <path d="M 512.143597 175.924591 
L 505.336654 175.924591 
L 504.261874 178.52165 
L 499.883139 178.52165 
L 506.136407 164.265325 
L 511.32937 164.265325 
L 517.582638 178.52165 
L 513.207521 178.52165 
L 512.143597 175.924591 
z
M 506.422291 173.278647 
L 511.047104 173.278647 
L 508.738316 167.607893 
L 506.422291 173.278647 
z
" clip-path="url(#p18e7622df8)" style="fill: #008000"/>
   </g>
   <g id="patch_91">
    <path d="M 536.213689 192.089572 
Q 534.733157 192.164136 533.13222 192.201851 
Q 531.531282 192.24 529.787643 192.24 
Q 524.587941 192.24 521.551066 191.957352 
Q 518.51419 191.674704 518.51419 191.191342 
Q 518.51419 190.706245 521.551066 190.424031 
Q 524.587941 190.141383 529.787643 190.141383 
Q 531.531282 190.141383 533.13222 190.179532 
Q 534.733157 190.217247 536.213689 190.291811 
L 536.213689 190.710147 
Q 534.719779 190.611307 533.270462 190.565355 
Q 531.821146 190.519403 530.220208 190.519403 
Q 527.348332 190.519403 525.7028 190.698442 
Q 524.061728 190.877048 524.061728 191.191342 
Q 524.061728 191.504335 525.7028 191.683375 
Q 527.348332 191.86198 530.220208 191.86198 
Q 531.821146 191.86198 533.270462 191.816028 
Q 534.719779 191.769643 536.213689 191.670803 
L 536.213689 192.089572 
z
" clip-path="url(#p18e7622df8)" style="fill: #0000ff"/>
   </g>
   <g id="patch_92">
    <path d="M 536.213689 189.856568 
Q 534.428666 189.998976 532.508774 190.070505 
Q 530.588882 190.141383 528.542055 190.141383 
Q 523.916861 190.141383 521.215526 189.717412 
Q 518.51419 189.29344 518.51419 188.568396 
Q 518.51419 187.834899 521.263126 187.414179 
Q 524.016029 186.993458 528.803859 186.993458 
Q 530.648383 186.993458 532.338205 187.050682 
Q 534.031994 187.107254 535.531414 187.2191 
L 535.531414 187.846604 
Q 533.984394 187.702896 532.45324 187.632017 
Q 530.922087 187.560488 529.383 187.560488 
Q 526.534896 187.560488 524.991842 187.821894 
Q 523.448788 188.08265 523.448788 188.568396 
Q 523.448788 189.049591 524.936308 189.312298 
Q 526.423828 189.574354 529.160864 189.574354 
Q 529.906607 189.574354 530.545248 189.559398 
Q 531.18389 189.543791 531.69163 189.511278 
L 531.69163 188.92214 
L 528.776092 188.92214 
L 528.776092 188.397377 
L 536.213689 188.397377 
L 536.213689 189.856568 
z
" clip-path="url(#p18e7622df8)" style="fill: #ffa600"/>
   </g>
   <g id="patch_93">
    <path d="M 530.774649 183.839462 
L 523.967706 183.839462 
L 522.892926 186.993458 
L 518.51419 186.993458 
L 524.767458 169.679871 
L 529.960421 169.679871 
L 536.213689 186.993458 
L 531.838573 186.993458 
L 530.774649 183.839462 
z
M 525.053343 180.626095 
L 529.678156 180.626095 
L 527.369368 173.739251 
L 525.053343 180.626095 
z
" clip-path="url(#p18e7622df8)" style="fill: #008000"/>
   </g>
   <g id="patch_94">
    <path d="M 518.51419 137.675967 
L 536.213689 137.675967 
L 536.213689 143.91762 
L 529.845986 143.91762 
L 529.845986 169.679871 
L 524.894242 169.679871 
L 524.894242 143.91762 
L 518.51419 143.91762 
L 518.51419 137.675967 
z
" clip-path="url(#p18e7622df8)" style="fill: #ff0000"/>
   </g>
   <g id="patch_95">
    <path d="M 549.405701 191.714417 
L 542.598758 191.714417 
L 541.523977 192.24 
L 537.145242 192.24 
L 543.39851 189.354858 
L 548.591473 189.354858 
L 554.844741 192.24 
L 550.469625 192.24 
L 549.405701 191.714417 
z
M 543.684395 191.178941 
L 548.309208 191.178941 
L 546.00042 190.031315 
L 543.684395 191.178941 
z
" clip-path="url(#p18e7622df8)" style="fill: #008000"/>
   </g>
   <g id="patch_96">
    <path d="M 554.844741 189.148053 
Q 553.364209 189.250562 551.763271 189.302412 
Q 550.162334 189.354858 548.418695 189.354858 
Q 543.218993 189.354858 540.182118 188.966279 
Q 537.145242 188.5777 537.145242 187.913182 
Q 537.145242 187.246279 540.182118 186.858296 
Q 543.218993 186.469717 548.418695 186.469717 
Q 550.162334 186.469717 551.763271 186.522163 
Q 553.364209 186.574013 554.844741 186.676522 
L 554.844741 187.251643 
Q 553.35083 187.11576 551.901514 187.052586 
Q 550.452197 186.989412 548.85126 186.989412 
Q 545.979384 186.989412 544.333852 187.235552 
Q 542.69278 187.481096 542.69278 187.913182 
Q 542.69278 188.34348 544.333852 188.589619 
Q 545.979384 188.835163 548.85126 188.835163 
Q 550.452197 188.835163 551.901514 188.77199 
Q 553.35083 188.70822 554.844741 188.572336 
L 554.844741 189.148053 
z
" clip-path="url(#p18e7622df8)" style="fill: #0000ff"/>
   </g>
   <g id="patch_97">
    <path d="M 554.844741 185.060104 
Q 553.059718 185.76491 551.139826 186.118923 
Q 549.219934 186.469717 547.173107 186.469717 
Q 542.547913 186.469717 539.846578 184.371389 
Q 537.145242 182.273061 537.145242 178.684662 
Q 537.145242 175.054426 539.894178 172.972189 
Q 542.647081 170.889952 547.434911 170.889952 
Q 549.279435 170.889952 550.969257 171.173162 
Q 552.663046 171.453154 554.162466 172.006701 
L 554.162466 175.112355 
Q 552.615445 174.401112 551.084292 174.050318 
Q 549.553138 173.696305 548.014052 173.696305 
Q 545.165947 173.696305 543.622894 174.99006 
Q 542.07984 176.280596 542.07984 178.684662 
Q 542.07984 181.0662 543.56736 182.366391 
Q 545.054879 183.663364 547.791915 183.663364 
Q 548.537658 183.663364 549.1763 183.589343 
Q 549.814942 183.512104 550.322682 183.351189 
L 550.322682 180.435414 
L 547.407144 180.435414 
L 547.407144 177.838251 
L 554.844741 177.838251 
L 554.844741 185.060104 
z
" clip-path="url(#p18e7622df8)" style="fill: #ffa600"/>
   </g>
   <g id="patch_98">
    <path d="M 537.145242 132.229055 
L 554.844741 132.229055 
L 554.844741 139.769007 
L 548.477038 139.769007 
L 548.477038 170.889952 
L 543.525294 170.889952 
L 543.525294 139.769007 
L 537.145242 139.769007 
L 537.145242 132.229055 
z
" clip-path="url(#p18e7622df8)" style="fill: #ff0000"/>
   </g>
   <g id="patch_99">
    <path d="M 573.475793 192.088148 
Q 571.69077 192.164074 569.770878 192.20221 
Q 567.850986 192.24 565.804159 192.24 
Q 561.178965 192.24 558.477629 192.013956 
Q 555.776294 191.787912 555.776294 191.401348 
Q 555.776294 191.010278 558.52523 190.785967 
Q 561.278133 190.561657 566.065962 190.561657 
Q 567.910487 190.561657 569.600309 190.592166 
Q 571.294098 190.622328 572.793517 190.681959 
L 572.793517 191.016519 
Q 571.246497 190.939899 569.715344 190.90211 
Q 568.18419 190.863974 566.645103 190.863974 
Q 563.796999 190.863974 562.253946 191.003344 
Q 560.710892 191.142368 560.710892 191.401348 
Q 560.710892 191.657902 562.198412 191.797966 
Q 563.685931 191.937683 566.422967 191.937683 
Q 567.16871 191.937683 567.807352 191.929709 
Q 568.445994 191.921389 568.953734 191.904054 
L 568.953734 191.58995 
L 566.038195 191.58995 
L 566.038195 191.310168 
L 573.475793 191.310168 
L 573.475793 192.088148 
z
" clip-path="url(#p18e7622df8)" style="fill: #ffa600"/>
   </g>
   <g id="patch_100">
    <path d="M 573.475793 190.24085 
Q 571.99526 190.399866 570.394323 190.480299 
Q 568.793386 190.561657 567.049747 190.561657 
Q 561.850045 190.561657 558.813169 189.958872 
Q 555.776294 189.356088 555.776294 188.325253 
Q 555.776294 187.290719 558.813169 186.688859 
Q 561.850045 186.086075 567.049747 186.086075 
Q 568.793386 186.086075 570.394323 186.167432 
Q 571.99526 186.247865 573.475793 186.406882 
L 573.475793 187.29904 
Q 571.981882 187.08825 570.532566 186.990252 
Q 569.083249 186.892253 567.482312 186.892253 
Q 564.610435 186.892253 562.964904 187.274078 
Q 561.323831 187.654979 561.323831 188.325253 
Q 561.323831 188.992753 562.964904 189.374578 
Q 564.610435 189.755479 567.482312 189.755479 
Q 569.083249 189.755479 570.532566 189.65748 
Q 571.981882 189.558557 573.475793 189.347767 
L 573.475793 190.24085 
z
" clip-path="url(#p18e7622df8)" style="fill: #0000ff"/>
   </g>
   <g id="patch_101">
    <path d="M 568.036752 184.506408 
L 561.22981 184.506408 
L 560.155029 186.086075 
L 555.776294 186.086075 
L 562.029562 177.414635 
L 567.222525 177.414635 
L 573.475793 186.086075 
L 569.100677 186.086075 
L 568.036752 184.506408 
z
M 562.315446 182.897007 
L 566.940259 182.897007 
L 564.631472 179.447759 
L 562.315446 182.897007 
z
" clip-path="url(#p18e7622df8)" style="fill: #008000"/>
   </g>
   <g id="patch_102">
    <path d="M 555.776294 163.148718 
L 573.475793 163.148718 
L 573.475793 165.930969 
L 567.108089 165.930969 
L 567.108089 177.414635 
L 562.156346 177.414635 
L 562.156346 165.930969 
L 555.776294 165.930969 
L 555.776294 163.148718 
z
" clip-path="url(#p18e7622df8)" style="fill: #ff0000"/>
   </g>
   <g id="patch_103">
    <path d="M 592.106845 192.129086 
Q 590.626312 192.184064 589.025375 192.211872 
Q 587.424438 192.24 585.680798 192.24 
Q 580.481097 192.24 577.444221 192.031597 
Q 574.407346 191.823194 574.407346 191.466799 
Q 574.407346 191.109126 577.444221 190.901042 
Q 580.481097 190.692639 585.680798 190.692639 
Q 587.424438 190.692639 589.025375 190.720767 
Q 590.626312 190.748576 592.106845 190.803553 
L 592.106845 191.112003 
Q 590.612934 191.039125 589.163617 191.005244 
Q 587.714301 190.971362 586.113364 190.971362 
Q 583.241487 190.971362 581.595955 191.103372 
Q 579.954883 191.235063 579.954883 191.466799 
Q 579.954883 191.697577 581.595955 191.829587 
Q 583.241487 191.961277 586.113364 191.961277 
Q 587.714301 191.961277 589.163617 191.927395 
Q 590.612934 191.893194 592.106845 191.820317 
L 592.106845 192.129086 
z
" clip-path="url(#p18e7622df8)" style="fill: #0000ff"/>
   </g>
   <g id="patch_104">
    <path d="M 586.667804 189.917467 
L 579.860861 189.917467 
L 578.786081 190.692639 
L 574.407346 190.692639 
L 580.660614 186.437397 
L 585.853577 186.437397 
L 592.106845 190.692639 
L 587.731728 190.692639 
L 586.667804 189.917467 
z
M 580.946498 189.127703 
L 585.571311 189.127703 
L 583.262523 187.43509 
L 580.946498 189.127703 
z
" clip-path="url(#p18e7622df8)" style="fill: #008000"/>
   </g>
   <g id="patch_105">
    <path d="M 592.106845 185.14239 
Q 590.321821 185.789894 588.401929 186.115124 
Q 586.482038 186.437397 584.435211 186.437397 
Q 579.810017 186.437397 577.108681 184.509669 
Q 574.407346 182.581941 574.407346 179.285289 
Q 574.407346 175.950201 577.156282 174.037256 
Q 579.909185 172.124311 584.697014 172.124311 
Q 586.541538 172.124311 588.23136 172.384495 
Q 589.925149 172.641723 591.424569 173.150265 
L 591.424569 176.003421 
Q 589.877549 175.350004 588.346395 175.02773 
Q 586.815242 174.7025 585.276155 174.7025 
Q 582.428051 174.7025 580.884997 175.891069 
Q 579.341944 177.07668 579.341944 179.285289 
Q 579.341944 181.473202 580.829463 182.667684 
Q 582.316983 183.859209 585.054019 183.859209 
Q 585.799762 183.859209 586.438404 183.791206 
Q 587.077045 183.720247 587.584785 183.572415 
L 587.584785 180.893701 
L 584.669247 180.893701 
L 584.669247 178.507693 
L 592.106845 178.507693 
L 592.106845 185.14239 
z
" clip-path="url(#p18e7622df8)" style="fill: #ffa600"/>
   </g>
   <g id="patch_106">
    <path d="M 574.407346 152.008623 
L 592.106845 152.008623 
L 592.106845 155.931742 
L 585.739141 155.931742 
L 585.739141 172.124311 
L 580.787398 172.124311 
L 580.787398 155.931742 
L 574.407346 155.931742 
L 574.407346 152.008623 
z
" clip-path="url(#p18e7622df8)" style="fill: #ff0000"/>
   </g>
   <g id="patch_107">
    <path d="M 610.737896 192.04204 
Q 609.257364 192.140164 607.656427 192.189797 
Q 606.055489 192.24 604.31185 192.24 
Q 599.112148 192.24 596.075273 191.86804 
Q 593.038397 191.496081 593.038397 190.859984 
Q 593.038397 190.221605 596.075273 189.850216 
Q 599.112148 189.478257 604.31185 189.478257 
Q 606.055489 189.478257 607.656427 189.52846 
Q 609.257364 189.578092 610.737896 189.676217 
L 610.737896 190.22674 
Q 609.243986 190.096668 607.794669 190.036196 
Q 606.345353 189.975724 604.744415 189.975724 
Q 601.872539 189.975724 600.227007 190.211337 
Q 598.585935 190.446379 598.585935 190.859984 
Q 598.585935 191.271878 600.227007 191.50749 
Q 601.872539 191.742532 604.744415 191.742532 
Q 606.345353 191.742532 607.794669 191.682061 
Q 609.243986 191.621018 610.737896 191.490946 
L 610.737896 192.04204 
z
" clip-path="url(#p18e7622df8)" style="fill: #0000ff"/>
   </g>
   <g id="patch_108">
    <path d="M 610.737896 189.089563 
Q 608.952873 189.28391 607.032981 189.381527 
Q 605.113089 189.478257 603.066262 189.478257 
Q 598.441068 189.478257 595.739733 188.899653 
Q 593.038397 188.321049 593.038397 187.331565 
Q 593.038397 186.330545 595.787333 185.756378 
Q 598.540236 185.182211 603.328066 185.182211 
Q 605.17259 185.182211 606.862412 185.260305 
Q 608.556201 185.337511 610.055621 185.490149 
L 610.055621 186.346519 
Q 608.508601 186.150397 606.977447 186.053667 
Q 605.446294 185.95605 603.907207 185.95605 
Q 601.059103 185.95605 599.516049 186.312796 
Q 597.972995 186.668655 597.972995 187.331565 
Q 597.972995 187.988263 599.460515 188.346784 
Q 600.948035 188.704418 603.685071 188.704418 
Q 604.430814 188.704418 605.069455 188.684007 
Q 605.708097 188.662709 606.215837 188.618338 
L 606.215837 187.814327 
L 603.300299 187.814327 
L 603.300299 187.098171 
L 610.737896 187.098171 
L 610.737896 189.089563 
z
" clip-path="url(#p18e7622df8)" style="fill: #ffa600"/>
   </g>
   <g id="patch_109">
    <path d="M 593.038397 178.124423 
L 610.737896 178.124423 
L 610.737896 179.500888 
L 604.370193 179.500888 
L 604.370193 185.182211 
L 599.418449 185.182211 
L 599.418449 179.500888 
L 593.038397 179.500888 
L 593.038397 178.124423 
z
" clip-path="url(#p18e7622df8)" style="fill: #ff0000"/>
   </g>
   <g id="patch_110">
    <path d="M 605.298856 174.882199 
L 598.491913 174.882199 
L 597.417133 178.124423 
L 593.038397 178.124423 
L 599.291665 160.326521 
L 604.484628 160.326521 
L 610.737896 178.124423 
L 606.36278 178.124423 
L 605.298856 174.882199 
z
M 599.57755 171.578945 
L 604.202363 171.578945 
L 601.893575 164.499454 
L 599.57755 171.578945 
z
" clip-path="url(#p18e7622df8)" style="fill: #008000"/>
   </g>
   <g id="patch_111">
    <path d="M 629.368948 192.081494 
Q 627.888416 192.160062 626.287478 192.199802 
Q 624.686541 192.24 622.942902 192.24 
Q 617.7432 192.24 614.706325 191.942173 
Q 611.669449 191.644345 611.669449 191.135024 
Q 611.669449 190.623875 614.706325 190.326505 
Q 617.7432 190.028677 622.942902 190.028677 
Q 624.686541 190.028677 626.287478 190.068875 
Q 627.888416 190.108616 629.368948 190.187184 
L 629.368948 190.627986 
Q 627.875037 190.523838 626.425721 190.475418 
Q 624.976404 190.426999 623.375467 190.426999 
Q 620.503591 190.426999 618.858059 190.615653 
Q 617.216987 190.803851 617.216987 191.135024 
Q 617.216987 191.464827 618.858059 191.653481 
Q 620.503591 191.841679 623.375467 191.841679 
Q 624.976404 191.841679 626.425721 191.793259 
Q 627.875037 191.744382 629.368948 191.640234 
L 629.368948 192.081494 
z
" clip-path="url(#p18e7622df8)" style="fill: #0000ff"/>
   </g>
   <g id="patch_112">
    <path d="M 629.368948 189.428455 
Q 627.583925 189.728566 625.664033 189.879307 
Q 623.744141 190.028677 621.697314 190.028677 
Q 617.07212 190.028677 614.370785 189.135195 
Q 611.669449 188.241713 611.669449 186.713749 
Q 611.669449 185.16797 614.418385 184.28134 
Q 617.171288 183.39471 621.959118 183.39471 
Q 623.803642 183.39471 625.493464 183.515302 
Q 627.187253 183.634525 628.686673 183.870229 
L 628.686673 185.192637 
Q 627.139652 184.889785 625.608499 184.740414 
Q 624.077345 184.589673 622.538259 184.589673 
Q 619.690154 184.589673 618.147101 185.140563 
Q 616.604047 185.690082 616.604047 186.713749 
Q 616.604047 187.727824 618.091567 188.281454 
Q 619.579086 188.833714 622.316122 188.833714 
Q 623.061865 188.833714 623.700507 188.802195 
Q 624.339149 188.769306 624.846889 188.700788 
L 624.846889 187.459231 
L 621.931351 187.459231 
L 621.931351 186.353341 
L 629.368948 186.353341 
L 629.368948 189.428455 
z
" clip-path="url(#p18e7622df8)" style="fill: #ffa600"/>
   </g>
   <g id="patch_113">
    <path d="M 623.929908 181.581956 
L 617.122965 181.581956 
L 616.048184 183.39471 
L 611.669449 183.39471 
L 617.922717 173.443758 
L 623.11568 173.443758 
L 629.368948 183.39471 
L 624.993832 183.39471 
L 623.929908 181.581956 
z
M 618.208602 179.73508 
L 622.833415 179.73508 
L 620.524627 175.776879 
L 618.208602 179.73508 
z
" clip-path="url(#p18e7622df8)" style="fill: #008000"/>
   </g>
   <g id="patch_114">
    <path d="M 611.669449 134.745613 
L 629.368948 134.745613 
L 629.368948 142.292829 
L 623.001245 142.292829 
L 623.001245 173.443758 
L 618.049501 173.443758 
L 618.049501 142.292829 
L 611.669449 142.292829 
L 611.669449 134.745613 
z
" clip-path="url(#p18e7622df8)" style="fill: #ff0000"/>
   </g>
   <g id="patch_115">
    <path d="M 642.560959 191.910736 
L 635.754017 191.910736 
L 634.679236 192.24 
L 630.300501 192.24 
L 636.553769 190.432536 
L 641.746732 190.432536 
L 648 192.24 
L 643.624884 192.24 
L 642.560959 191.910736 
z
M 636.839653 191.575275 
L 641.464466 191.575275 
L 639.155679 190.856318 
L 636.839653 191.575275 
z
" clip-path="url(#p18e7622df8)" style="fill: #008000"/>
   </g>
   <g id="patch_116">
    <path d="M 648 189.941934 
Q 646.214977 190.187235 644.295085 190.310446 
Q 642.375193 190.432536 640.328366 190.432536 
Q 635.703172 190.432536 633.001836 189.702233 
Q 630.300501 188.971929 630.300501 187.723021 
Q 630.300501 186.459551 633.049437 185.734848 
Q 635.80234 185.010145 640.590169 185.010145 
Q 642.434694 185.010145 644.124516 185.108713 
Q 645.818305 185.206162 647.317724 185.398819 
L 647.317724 186.479713 
Q 645.770704 186.232171 644.239551 186.110081 
Q 642.708397 185.98687 641.16931 185.98687 
Q 638.321206 185.98687 636.778153 186.437149 
Q 635.235099 186.886308 635.235099 187.723021 
Q 635.235099 188.551893 636.722619 189.004412 
Q 638.210138 189.455811 640.947174 189.455811 
Q 641.692917 189.455811 642.331559 189.430049 
Q 642.970201 189.403167 643.477941 189.347162 
L 643.477941 188.332354 
L 640.562402 188.332354 
L 640.562402 187.428435 
L 648 187.428435 
L 648 189.941934 
z
" clip-path="url(#p18e7622df8)" style="fill: #ffa600"/>
   </g>
   <g id="patch_117">
    <path d="M 648 184.336444 
Q 646.519467 184.670382 644.91853 184.839293 
Q 643.317593 185.010145 641.573954 185.010145 
Q 636.374252 185.010145 633.337376 183.744286 
Q 630.300501 182.478426 630.300501 180.313651 
Q 630.300501 178.14111 633.337376 176.877193 
Q 636.374252 175.611333 641.573954 175.611333 
Q 643.317593 175.611333 644.91853 175.782185 
Q 646.519467 175.951096 648 176.285034 
L 648 178.158584 
Q 646.506089 177.715922 645.056773 177.510122 
Q 643.607456 177.304323 642.006519 177.304323 
Q 639.134642 177.304323 637.489111 178.106163 
Q 635.848038 178.906062 635.848038 180.313651 
Q 635.848038 181.715416 637.489111 182.517256 
Q 639.134642 183.317155 642.006519 183.317155 
Q 643.607456 183.317155 645.056773 183.111356 
Q 646.506089 182.903615 648 182.460953 
L 648 184.336444 
z
" clip-path="url(#p18e7622df8)" style="fill: #0000ff"/>
   </g>
   <g id="patch_118">
    <path d="M 630.300501 154.644753 
L 648 154.644753 
L 648 158.733821 
L 641.632296 158.733821 
L 641.632296 175.611333 
L 636.680553 175.611333 
L 636.680553 158.733821 
L 630.300501 158.733821 
L 630.300501 154.644753 
z
" clip-path="url(#p18e7622df8)" style="fill: #ff0000"/>
   </g>
   <g id="matplotlib.axis_1">
    <g id="xtick_1">
     <g id="line2d_2">
      <defs>
       <path id="m82d7ae685c" d="M 0 0 
L 0 3.5 
" style="stroke: #000000; stroke-width: 0.8"/>
      </defs>
      <g>
       <use xlink:href="#m82d7ae685c" x="98.84975" y="192.24" style="stroke: #000000; stroke-width: 0.8"/>
      </g>
     </g>
     <g id="text_1">
      <!-- 0 -->
      <g transform="translate(95.6685 206.838437) scale(0.1 -0.1)">
       <defs>
        <path id="DejaVuSans-30" d="M 2034 4250 
Q 1547 4250 1301 3770 
Q 1056 3291 1056 2328 
Q 1056 1369 1301 889 
Q 1547 409 2034 409 
Q 2525 409 2770 889 
Q 3016 1369 3016 2328 
Q 3016 3291 2770 3770 
Q 2525 4250 2034 4250 
z
M 2034 4750 
Q 2819 4750 3233 4129 
Q 3647 3509 3647 2328 
Q 3647 1150 3233 529 
Q 2819 -91 2034 -91 
Q 1250 -91 836 529 
Q 422 1150 422 2328 
Q 422 3509 836 4129 
Q 1250 4750 2034 4750 
z
" transform="scale(0.015625)"/>
       </defs>
       <use xlink:href="#DejaVuSans-30"/>
      </g>
     </g>
    </g>
    <g id="xtick_2">
     <g id="line2d_3">
      <g>
       <use xlink:href="#m82d7ae685c" x="192.005008" y="192.24" style="stroke: #000000; stroke-width: 0.8"/>
      </g>
     </g>
     <g id="text_2">
      <!-- 5 -->
      <g transform="translate(188.823758 206.838437) scale(0.1 -0.1)">
       <defs>
        <path id="DejaVuSans-35" d="M 691 4666 
L 3169 4666 
L 3169 4134 
L 1269 4134 
L 1269 2991 
Q 1406 3038 1543 3061 
Q 1681 3084 1819 3084 
Q 2600 3084 3056 2656 
Q 3513 2228 3513 1497 
Q 3513 744 3044 326 
Q 2575 -91 1722 -91 
Q 1428 -91 1123 -41 
Q 819 9 494 109 
L 494 744 
Q 775 591 1075 516 
Q 1375 441 1709 441 
Q 2250 441 2565 725 
Q 2881 1009 2881 1497 
Q 2881 1984 2565 2268 
Q 2250 2553 1709 2553 
Q 1456 2553 1204 2497 
Q 953 2441 691 2322 
L 691 4666 
z
" transform="scale(0.015625)"/>
       </defs>
       <use xlink:href="#DejaVuSans-35"/>
      </g>
     </g>
    </g>
    <g id="xtick_3">
     <g id="line2d_4">
      <g>
       <use xlink:href="#m82d7ae685c" x="285.160267" y="192.24" style="stroke: #000000; stroke-width: 0.8"/>
      </g>
     </g>
     <g id="text_3">
      <!-- 10 -->
      <g transform="translate(278.797767 206.838437) scale(0.1 -0.1)">
       <defs>
        <path id="DejaVuSans-31" d="M 794 531 
L 1825 531 
L 1825 4091 
L 703 3866 
L 703 4441 
L 1819 4666 
L 2450 4666 
L 2450 531 
L 3481 531 
L 3481 0 
L 794 0 
L 794 531 
z
" transform="scale(0.015625)"/>
       </defs>
       <use xlink:href="#DejaVuSans-31"/>
       <use xlink:href="#DejaVuSans-30" x="63.623047"/>
      </g>
     </g>
    </g>
    <g id="xtick_4">
     <g id="line2d_5">
      <g>
       <use xlink:href="#m82d7ae685c" x="378.315526" y="192.24" style="stroke: #000000; stroke-width: 0.8"/>
      </g>
     </g>
     <g id="text_4">
      <!-- 15 -->
      <g transform="translate(371.953026 206.838437) scale(0.1 -0.1)">
       <use xlink:href="#DejaVuSans-31"/>
       <use xlink:href="#DejaVuSans-35" x="63.623047"/>
      </g>
     </g>
    </g>
    <g id="xtick_5">
     <g id="line2d_6">
      <g>
       <use xlink:href="#m82d7ae685c" x="471.470785" y="192.24" style="stroke: #000000; stroke-width: 0.8"/>
      </g>
     </g>
     <g id="text_5">
      <!-- 20 -->
      <g transform="translate(465.108285 206.838437) scale(0.1 -0.1)">
       <defs>
        <path id="DejaVuSans-32" d="M 1228 531 
L 3431 531 
L 3431 0 
L 469 0 
L 469 531 
Q 828 903 1448 1529 
Q 2069 2156 2228 2338 
Q 2531 2678 2651 2914 
Q 2772 3150 2772 3378 
Q 2772 3750 2511 3984 
Q 2250 4219 1831 4219 
Q 1534 4219 1204 4116 
Q 875 4013 500 3803 
L 500 4441 
Q 881 4594 1212 4672 
Q 1544 4750 1819 4750 
Q 2544 4750 2975 4387 
Q 3406 4025 3406 3419 
Q 3406 3131 3298 2873 
Q 3191 2616 2906 2266 
Q 2828 2175 2409 1742 
Q 1991 1309 1228 531 
z
" transform="scale(0.015625)"/>
       </defs>
       <use xlink:href="#DejaVuSans-32"/>
       <use xlink:href="#DejaVuSans-30" x="63.623047"/>
      </g>
     </g>
    </g>
    <g id="xtick_6">
     <g id="line2d_7">
      <g>
       <use xlink:href="#m82d7ae685c" x="564.626043" y="192.24" style="stroke: #000000; stroke-width: 0.8"/>
      </g>
     </g>
     <g id="text_6">
      <!-- 25 -->
      <g transform="translate(558.263543 206.838437) scale(0.1 -0.1)">
       <use xlink:href="#DejaVuSans-32"/>
       <use xlink:href="#DejaVuSans-35" x="63.623047"/>
      </g>
     </g>
    </g>
   </g>
   <g id="matplotlib.axis_2">
    <g id="ytick_1">
     <g id="line2d_8">
      <defs>
       <path id="m3ca4deedf9" d="M 0 0 
L -3.5 0 
" style="stroke: #000000; stroke-width: 0.8"/>
      </defs>
      <g>
       <use xlink:href="#m3ca4deedf9" x="90" y="192.24" style="stroke: #000000; stroke-width: 0.8"/>
      </g>
     </g>
     <g id="text_7">
      <!-- 0.00 -->
      <g transform="translate(60.734375 196.039219) scale(0.1 -0.1)">
       <defs>
        <path id="DejaVuSans-2e" d="M 684 794 
L 1344 794 
L 1344 0 
L 684 0 
L 684 794 
z
" transform="scale(0.015625)"/>
       </defs>
       <use xlink:href="#DejaVuSans-30"/>
       <use xlink:href="#DejaVuSans-2e" x="63.623047"/>
       <use xlink:href="#DejaVuSans-30" x="95.410156"/>
       <use xlink:href="#DejaVuSans-30" x="159.033203"/>
      </g>
     </g>
    </g>
    <g id="ytick_2">
     <g id="line2d_9">
      <g>
       <use xlink:href="#m3ca4deedf9" x="90" y="169.687154" style="stroke: #000000; stroke-width: 0.8"/>
      </g>
     </g>
     <g id="text_8">
      <!-- 0.25 -->
      <g transform="translate(60.734375 173.486373) scale(0.1 -0.1)">
       <use xlink:href="#DejaVuSans-30"/>
       <use xlink:href="#DejaVuSans-2e" x="63.623047"/>
       <use xlink:href="#DejaVuSans-32" x="95.410156"/>
       <use xlink:href="#DejaVuSans-35" x="159.033203"/>
      </g>
     </g>
    </g>
    <g id="ytick_3">
     <g id="line2d_10">
      <g>
       <use xlink:href="#m3ca4deedf9" x="90" y="147.134308" style="stroke: #000000; stroke-width: 0.8"/>
      </g>
     </g>
     <g id="text_9">
      <!-- 0.50 -->
      <g transform="translate(60.734375 150.933527) scale(0.1 -0.1)">
       <use xlink:href="#DejaVuSans-30"/>
       <use xlink:href="#DejaVuSans-2e" x="63.623047"/>
       <use xlink:href="#DejaVuSans-35" x="95.410156"/>
       <use xlink:href="#DejaVuSans-30" x="159.033203"/>
      </g>
     </g>
    </g>
    <g id="ytick_4">
     <g id="line2d_11">
      <g>
       <use xlink:href="#m3ca4deedf9" x="90" y="124.581462" style="stroke: #000000; stroke-width: 0.8"/>
      </g>
     </g>
     <g id="text_10">
      <!-- 0.75 -->
      <g transform="translate(60.734375 128.380681) scale(0.1 -0.1)">
       <defs>
        <path id="DejaVuSans-37" d="M 525 4666 
L 3525 4666 
L 3525 4397 
L 1831 0 
L 1172 0 
L 2766 4134 
L 525 4134 
L 525 4666 
z
" transform="scale(0.015625)"/>
       </defs>
       <use xlink:href="#DejaVuSans-30"/>
       <use xlink:href="#DejaVuSans-2e" x="63.623047"/>
       <use xlink:href="#DejaVuSans-37" x="95.410156"/>
       <use xlink:href="#DejaVuSans-35" x="159.033203"/>
      </g>
     </g>
    </g>
    <g id="ytick_5">
     <g id="line2d_12">
      <g>
       <use xlink:href="#m3ca4deedf9" x="90" y="102.028616" style="stroke: #000000; stroke-width: 0.8"/>
      </g>
     </g>
     <g id="text_11">
      <!-- 1.00 -->
      <g transform="translate(60.734375 105.827835) scale(0.1 -0.1)">
       <use xlink:href="#DejaVuSans-31"/>
       <use xlink:href="#DejaVuSans-2e" x="63.623047"/>
       <use xlink:href="#DejaVuSans-30" x="95.410156"/>
       <use xlink:href="#DejaVuSans-30" x="159.033203"/>
      </g>
     </g>
    </g>
    <g id="ytick_6">
     <g id="line2d_13">
      <g>
       <use xlink:href="#m3ca4deedf9" x="90" y="79.47577" style="stroke: #000000; stroke-width: 0.8"/>
      </g>
     </g>
     <g id="text_12">
      <!-- 1.25 -->
      <g transform="translate(60.734375 83.274989) scale(0.1 -0.1)">
       <use xlink:href="#DejaVuSans-31"/>
       <use xlink:href="#DejaVuSans-2e" x="63.623047"/>
       <use xlink:href="#DejaVuSans-32" x="95.410156"/>
       <use xlink:href="#DejaVuSans-35" x="159.033203"/>
      </g>
     </g>
    </g>
    <g id="ytick_7">
     <g id="line2d_14">
      <g>
       <use xlink:href="#m3ca4deedf9" x="90" y="56.922924" style="stroke: #000000; stroke-width: 0.8"/>
      </g>
     </g>
     <g id="text_13">
      <!-- 1.50 -->
      <g transform="translate(60.734375 60.722143) scale(0.1 -0.1)">
       <use xlink:href="#DejaVuSans-31"/>
       <use xlink:href="#DejaVuSans-2e" x="63.623047"/>
       <use xlink:href="#DejaVuSans-35" x="95.410156"/>
       <use xlink:href="#DejaVuSans-30" x="159.033203"/>
      </g>
     </g>
    </g>
    <g id="ytick_8">
     <g id="line2d_15">
      <g>
       <use xlink:href="#m3ca4deedf9" x="90" y="34.370078" style="stroke: #000000; stroke-width: 0.8"/>
      </g>
     </g>
     <g id="text_14">
      <!-- 1.75 -->
      <g transform="translate(60.734375 38.169297) scale(0.1 -0.1)">
       <use xlink:href="#DejaVuSans-31"/>
       <use xlink:href="#DejaVuSans-2e" x="63.623047"/>
       <use xlink:href="#DejaVuSans-37" x="95.410156"/>
       <use xlink:href="#DejaVuSans-35" x="159.033203"/>
      </g>
     </g>
    </g>
   </g>
  </g>
 </g>
 <defs>
  <clipPath id="p18e7622df8">
   <rect x="90" y="25.92" width="558" height="166.32"/>
  </clipPath>
 </defs>
</svg>
