<?xml version="1.0" encoding="utf-8" standalone="no"?>
<!DOCTYPE svg PUBLIC "-//W3C//DTD SVG 1.1//EN"
  "http://www.w3.org/Graphics/SVG/1.1/DTD/svg11.dtd">
<svg xmlns:xlink="http://www.w3.org/1999/xlink" width="720pt" height="216pt" viewBox="0 0 720 216" xmlns="http://www.w3.org/2000/svg" version="1.1">
 <metadata>
  <rdf:RDF xmlns:dc="http://purl.org/dc/elements/1.1/" xmlns:cc="http://creativecommons.org/ns#" xmlns:rdf="http://www.w3.org/1999/02/22-rdf-syntax-ns#">
   <cc:Work>
    <dc:type rdf:resource="http://purl.org/dc/dcmitype/StillImage"/>
    <dc:date>2025-12-17T10:22:28.418772</dc:date>
    <dc:format>image/svg+xml</dc:format>
    <dc:creator>
     <cc:Agent>
      <dc:title>Matplotlib v3.8.2, https://matplotlib.org/</dc:title>
     </cc:Agent>
    </dc:creator>
   </cc:Work>
  </rdf:RDF>
 </metadata>
 <defs>
  <style type="text/css">*{stroke-linejoin: round; stroke-linecap: butt}</style>
 </defs>
 <g id="figure_1">
  <g id="patch_1">
   <path d="M 0 216 
L 720 216 
L 720 0 
L 0 0 
z
" style="fill: #ffffff"/>
  </g>
  <g id="axes_1">
   <g id="patch_2">
    <path d="M 90 192.24 
L 648 192.24 
L 648 25.92 
L 90 25.92 
z
" style="fill: #ffffff"/>
   </g>
   <g id="line2d_1">
    <path d="M 90 192.24 
L 648 192.24 
" clip-path="url(#p0937ced4f9)" style="fill: none; stroke: #000000; stroke-width: 0.5; stroke-linecap: square"/>
   </g>
   <g id="patch_3">
    <path d="M 90 190.812744 
L 123.23511 190.812744 
L 123.23511 191.091099 
L 111.278199 191.091099 
L 111.278199 192.24 
L 101.980098 192.24 
L 101.980098 191.091099 
L 90 191.091099 
L 90 190.812744 
z
" clip-path="url(#p0937ced4f9)" style="fill: #ff0000"/>
   </g>
   <g id="patch_4">
    <path d="M 123.23511 190.659287 
Q 120.45505 190.735352 117.448901 190.773827 
Q 114.442753 190.812744 111.168646 190.812744 
Q 101.404943 190.812744 95.702472 190.524404 
Q 90 190.236064 90 189.742966 
Q 90 189.2481 95.702472 188.960201 
Q 101.404943 188.671861 111.168646 188.671861 
Q 114.442753 188.671861 117.448901 188.710778 
Q 120.45505 188.749253 123.23511 188.825318 
L 123.23511 189.25208 
Q 120.429929 189.151249 117.708485 189.104372 
Q 114.987041 189.057494 111.980893 189.057494 
Q 106.588247 189.057494 103.498362 189.240139 
Q 100.41685 189.422342 100.41685 189.742966 
Q 100.41685 190.062263 103.498362 190.244908 
Q 106.588247 190.427111 111.980893 190.427111 
Q 114.987041 190.427111 117.708485 190.380234 
Q 120.429929 190.332914 123.23511 190.232083 
L 123.23511 190.659287 
z
" clip-path="url(#p0937ced4f9)" style="fill: #0000ff"/>
   </g>
   <g id="patch_5">
    <path d="M 113.02199 188.059 
L 100.240301 188.059 
L 98.222139 188.671861 
L 90 188.671861 
L 101.74203 185.307616 
L 111.49308 185.307616 
L 123.23511 188.671861 
L 115.019766 188.671861 
L 113.02199 188.059 
z
M 102.278848 187.434603 
L 110.963057 187.434603 
L 106.627748 186.096404 
L 102.278848 187.434603 
z
" clip-path="url(#p0937ced4f9)" style="fill: #008000"/>
   </g>
   <g id="patch_6">
    <path d="M 123.23511 184.95096 
Q 119.883295 185.129288 116.278231 185.218859 
Q 112.673168 185.307616 108.829753 185.307616 
Q 100.144827 185.307616 95.072414 184.776703 
Q 90 184.245791 90 183.337865 
Q 90 182.419354 95.161795 181.892513 
Q 100.331039 181.365672 109.321352 181.365672 
Q 112.784895 181.365672 115.957947 181.437329 
Q 119.138447 181.508171 121.953971 181.648228 
L 121.953971 182.434011 
Q 119.049065 182.254054 116.173952 182.165298 
Q 113.29884 182.075726 110.40883 182.075726 
Q 105.060823 182.075726 102.163365 182.403068 
Q 99.265907 182.729596 99.265907 183.337865 
Q 99.265907 183.940435 102.059086 184.269405 
Q 104.852266 184.597561 109.991715 184.597561 
Q 111.392029 184.597561 112.591234 184.578832 
Q 113.790439 184.55929 114.743845 184.518575 
L 114.743845 183.780835 
L 109.269213 183.780835 
L 109.269213 183.123709 
L 123.23511 183.123709 
L 123.23511 184.95096 
z
" clip-path="url(#p0937ced4f9)" style="fill: #ffa600"/>
   </g>
   <g id="patch_7">
    <path d="M 158.219436 192.067718 
Q 155.439376 192.153114 152.433227 192.196309 
Q 149.427079 192.24 146.152972 192.24 
Q 136.389269 192.24 130.686798 191.916289 
Q 124.984326 191.592578 124.984326 191.038992 
Q 124.984326 190.483421 130.686798 190.160206 
Q 136.389269 189.836495 146.152972 189.836495 
Q 149.427079 189.836495 152.433227 189.880186 
Q 155.439376 189.923381 158.219436 190.008777 
L 158.219436 190.487889 
Q 155.414255 190.37469 152.692811 190.322062 
Q 149.971367 190.269434 146.965219 190.269434 
Q 141.572573 190.269434 138.482688 190.474484 
Q 135.401176 190.679038 135.401176 191.038992 
Q 135.401176 191.397458 138.482688 191.602508 
Q 141.572573 191.807061 146.965219 191.807061 
Q 149.971367 191.807061 152.692811 191.754433 
Q 155.414255 191.701309 158.219436 191.58811 
L 158.219436 192.067718 
z
" clip-path="url(#p0937ced4f9)" style="fill: #0000ff"/>
   </g>
   <g id="patch_8">
    <path d="M 124.984326 184.837205 
L 158.219436 184.837205 
L 158.219436 185.812206 
L 146.262525 185.812206 
L 146.262525 189.836495 
L 136.964424 189.836495 
L 136.964424 185.812206 
L 124.984326 185.812206 
L 124.984326 184.837205 
z
" clip-path="url(#p0937ced4f9)" style="fill: #ff0000"/>
   </g>
   <g id="patch_9">
    <path d="M 158.219436 184.115231 
Q 154.867621 184.476218 151.262557 184.657536 
Q 147.657494 184.837205 143.814079 184.837205 
Q 135.129153 184.837205 130.05674 183.762485 
Q 124.984326 182.687764 124.984326 180.84986 
Q 124.984326 178.990528 130.146121 177.924049 
Q 135.315365 176.85757 144.305678 176.85757 
Q 147.769221 176.85757 150.942273 177.002624 
Q 154.122773 177.14603 156.938297 177.429545 
L 156.938297 179.020198 
Q 154.033391 178.655914 151.158278 178.476244 
Q 148.283166 178.294926 145.393156 178.294926 
Q 140.045149 178.294926 137.147691 178.957561 
Q 134.250233 179.618547 134.250233 180.84986 
Q 134.250233 182.069635 137.043412 182.735566 
Q 139.836592 183.399849 144.976042 183.399849 
Q 146.376355 183.399849 147.57556 183.361937 
Q 148.774765 183.322377 149.728171 183.23996 
L 149.728171 181.74656 
L 144.253539 181.74656 
L 144.253539 180.416346 
L 158.219436 180.416346 
L 158.219436 184.115231 
z
" clip-path="url(#p0937ced4f9)" style="fill: #ffa600"/>
   </g>
   <g id="patch_10">
    <path d="M 148.006316 174.05537 
L 135.224627 174.05537 
L 133.206465 176.85757 
L 124.984326 176.85757 
L 136.726356 161.47514 
L 146.477406 161.47514 
L 158.219436 176.85757 
L 150.004092 176.85757 
L 148.006316 174.05537 
z
M 137.263174 171.200422 
L 145.947383 171.200422 
L 141.612074 165.081736 
L 137.263174 171.200422 
z
" clip-path="url(#p0937ced4f9)" style="fill: #008000"/>
   </g>
   <g id="patch_11">
    <path d="M 159.968652 189.458032 
L 193.203762 189.458032 
L 193.203762 190.000593 
L 181.246851 190.000593 
L 181.246851 192.24 
L 171.94875 192.24 
L 171.94875 190.000593 
L 159.968652 190.000593 
L 159.968652 189.458032 
z
" clip-path="url(#p0937ced4f9)" style="fill: #ff0000"/>
   </g>
   <g id="patch_12">
    <path d="M 182.990642 188.846391 
L 170.208953 188.846391 
L 168.190791 189.458032 
L 159.968652 189.458032 
L 171.710682 186.100484 
L 181.461732 186.100484 
L 193.203762 189.458032 
L 184.988418 189.458032 
L 182.990642 188.846391 
z
M 172.2475 188.223237 
L 180.931709 188.223237 
L 176.5964 186.887702 
L 172.2475 188.223237 
z
" clip-path="url(#p0937ced4f9)" style="fill: #008000"/>
   </g>
   <g id="patch_13">
    <path d="M 193.203762 185.050268 
Q 189.851947 185.575376 186.246883 185.839129 
Q 182.64182 186.100484 178.798405 186.100484 
Q 170.113479 186.100484 165.041066 184.537149 
Q 159.968652 182.973814 159.968652 180.300319 
Q 159.968652 177.595654 165.130447 176.044308 
Q 170.299691 174.492961 179.290004 174.492961 
Q 182.753547 174.492961 185.926599 174.703964 
Q 189.107099 174.912568 191.922624 175.324982 
L 191.922624 177.638813 
Q 189.017717 177.10891 186.142604 176.847555 
Q 183.267492 176.583802 180.377482 176.583802 
Q 175.029475 176.583802 172.132017 177.547699 
Q 169.234559 178.509198 169.234559 180.300319 
Q 169.234559 182.074657 172.027738 183.043349 
Q 174.820918 184.009643 179.960368 184.009643 
Q 181.360681 184.009643 182.559886 183.954495 
Q 183.759091 183.896949 184.712497 183.777061 
L 184.712497 181.604697 
L 179.237865 181.604697 
L 179.237865 179.66971 
L 193.203762 179.66971 
L 193.203762 185.050268 
z
" clip-path="url(#p0937ced4f9)" style="fill: #ffa600"/>
   </g>
   <g id="patch_14">
    <path d="M 193.203762 173.564674 
Q 190.423702 174.024805 187.417553 174.257546 
Q 184.411405 174.492961 181.137298 174.492961 
Q 171.373595 174.492961 165.671124 172.748745 
Q 159.968652 171.004528 159.968652 168.021703 
Q 159.968652 165.028178 165.671124 163.286636 
Q 171.373595 161.54242 181.137298 161.54242 
Q 184.411405 161.54242 187.417553 161.777835 
Q 190.423702 162.010576 193.203762 162.470707 
L 193.203762 165.052255 
Q 190.398581 164.442314 187.677137 164.158745 
Q 184.955693 163.875176 181.949545 163.875176 
Q 176.556899 163.875176 173.467014 164.980025 
Q 170.385502 166.082198 170.385502 168.021703 
Q 170.385502 169.953183 173.467014 171.058031 
Q 176.556899 172.160205 181.949545 172.160205 
Q 184.955693 172.160205 187.677137 171.876636 
Q 190.398581 171.590392 193.203762 170.980451 
L 193.203762 173.564674 
z
" clip-path="url(#p0937ced4f9)" style="fill: #0000ff"/>
   </g>
   <g id="patch_15">
    <path d="M 194.952978 191.181524 
L 228.188088 191.181524 
L 228.188088 191.387956 
L 216.231177 191.387956 
L 216.231177 192.24 
L 206.933076 192.24 
L 206.933076 191.387956 
L 194.952978 191.387956 
L 194.952978 191.181524 
z
" clip-path="url(#p0937ced4f9)" style="fill: #ff0000"/>
   </g>
   <g id="patch_16">
    <path d="M 228.188088 190.497468 
Q 224.836273 190.839496 221.231209 191.011291 
Q 217.626146 191.181524 213.782731 191.181524 
Q 205.097805 191.181524 200.025392 190.163248 
Q 194.952978 189.144973 194.952978 187.403596 
Q 194.952978 185.641917 200.114773 184.63145 
Q 205.284017 183.620983 214.274331 183.620983 
Q 217.737873 183.620983 220.910925 183.758419 
Q 224.091425 183.894293 226.90695 184.162918 
L 226.90695 185.670028 
Q 224.002043 185.324877 221.12693 185.154644 
Q 218.251818 184.982849 215.361808 184.982849 
Q 210.013801 184.982849 207.116343 185.610681 
Q 204.218885 186.236952 204.218885 187.403596 
Q 204.218885 188.559308 207.012064 189.190264 
Q 209.805244 189.819658 214.944694 189.819658 
Q 216.345007 189.819658 217.544212 189.783738 
Q 218.743417 189.746255 219.696823 189.668166 
L 219.696823 188.2532 
L 214.222191 188.2532 
L 214.222191 186.99285 
L 228.188088 186.99285 
L 228.188088 190.497468 
z
" clip-path="url(#p0937ced4f9)" style="fill: #ffa600"/>
   </g>
   <g id="patch_17">
    <path d="M 217.974968 180.893938 
L 205.193279 180.893938 
L 203.175117 183.620983 
L 194.952978 183.620983 
L 206.695008 168.651111 
L 216.446058 168.651111 
L 228.188088 183.620983 
L 219.972744 183.620983 
L 217.974968 180.893938 
z
M 207.231826 178.11556 
L 215.916035 178.11556 
L 211.580726 172.160978 
L 207.231826 178.11556 
z
" clip-path="url(#p0937ced4f9)" style="fill: #008000"/>
   </g>
   <g id="patch_18">
    <path d="M 228.188088 166.873564 
Q 225.408028 167.754653 222.401879 168.200321 
Q 219.395731 168.651111 216.121624 168.651111 
Q 206.357921 168.651111 200.65545 165.311166 
Q 194.952978 161.971222 194.952978 156.259507 
Q 194.952978 150.527301 200.65545 147.192479 
Q 206.357921 143.852535 216.121624 143.852535 
Q 219.395731 143.852535 222.401879 144.303325 
Q 225.408028 144.748992 228.188088 145.630082 
L 228.188088 150.573405 
Q 225.382907 149.405449 222.661463 148.862452 
Q 219.940019 148.319454 216.933871 148.319454 
Q 211.541225 148.319454 208.45134 150.435094 
Q 205.369828 152.545611 205.369828 156.259507 
Q 205.369828 159.958034 208.45134 162.073674 
Q 211.541225 164.184191 216.933871 164.184191 
Q 219.940019 164.184191 222.661463 163.641194 
Q 225.382907 163.093074 228.188088 161.925118 
L 228.188088 166.873564 
z
" clip-path="url(#p0937ced4f9)" style="fill: #0000ff"/>
   </g>
   <g id="patch_19">
    <path d="M 252.959294 191.967414 
L 240.177605 191.967414 
L 238.159443 192.24 
L 229.937304 192.24 
L 241.679334 190.743665 
L 251.430384 190.743665 
L 263.172414 192.24 
L 254.95707 192.24 
L 252.959294 191.967414 
z
M 242.216152 191.689698 
L 250.900361 191.689698 
L 246.565052 191.094499 
L 242.216152 191.689698 
z
" clip-path="url(#p0937ced4f9)" style="fill: #008000"/>
   </g>
   <g id="patch_20">
    <path d="M 263.172414 189.93136 
Q 259.820599 190.337513 256.215535 190.541516 
Q 252.610472 190.743665 248.767057 190.743665 
Q 240.082131 190.743665 235.009718 189.534481 
Q 229.937304 188.325296 229.937304 186.257443 
Q 229.937304 184.165479 235.099099 182.965568 
Q 240.268343 181.765656 249.258657 181.765656 
Q 252.722199 181.765656 255.895251 181.928859 
Q 259.075751 182.090207 261.891276 182.409195 
L 261.891276 184.198862 
Q 258.986369 183.789 256.111256 183.586851 
Q 253.236144 183.382848 250.346134 183.382848 
Q 244.998127 183.382848 242.100669 184.128388 
Q 239.203211 184.872073 239.203211 186.257443 
Q 239.203211 187.62983 241.99639 188.379079 
Q 244.78957 189.126474 249.92902 189.126474 
Q 251.329333 189.126474 252.528538 189.083818 
Q 253.727743 189.039309 254.681149 188.94658 
L 254.681149 187.266333 
L 249.206517 187.266333 
L 249.206517 185.769689 
L 263.172414 185.769689 
L 263.172414 189.93136 
z
" clip-path="url(#p0937ced4f9)" style="fill: #ffa600"/>
   </g>
   <g id="patch_21">
    <path d="M 263.172414 180.800349 
Q 260.392354 181.27883 257.386205 181.520852 
Q 254.380057 181.765656 251.10595 181.765656 
Q 241.342247 181.765656 235.639776 179.95188 
Q 229.937304 178.138103 229.937304 175.036322 
Q 229.937304 171.923414 235.639776 170.11242 
Q 241.342247 168.298643 251.10595 168.298643 
Q 254.380057 168.298643 257.386205 168.543447 
Q 260.392354 168.785469 263.172414 169.26395 
L 263.172414 171.948451 
Q 260.367233 171.314186 257.645789 171.019308 
Q 254.924345 170.72443 251.918197 170.72443 
Q 246.525551 170.72443 243.435666 171.873341 
Q 240.354154 173.019469 240.354154 175.036322 
Q 240.354154 177.04483 243.435666 178.19374 
Q 246.525551 179.339869 251.918197 179.339869 
Q 254.924345 179.339869 257.645789 179.044991 
Q 260.367233 178.747332 263.172414 178.113066 
L 263.172414 180.800349 
z
" clip-path="url(#p0937ced4f9)" style="fill: #0000ff"/>
   </g>
   <g id="patch_22">
    <path d="M 229.937304 96.474571 
L 263.172414 96.474571 
L 263.172414 110.482267 
L 251.215503 110.482267 
L 251.215503 168.298643 
L 241.917402 168.298643 
L 241.917402 110.482267 
L 229.937304 110.482267 
L 229.937304 96.474571 
z
" clip-path="url(#p0937ced4f9)" style="fill: #ff0000"/>
   </g>
   <g id="patch_23">
    <path d="M 287.94362 191.861271 
L 275.161931 191.861271 
L 273.143769 192.24 
L 264.92163 192.24 
L 276.66366 190.161 
L 286.41471 190.161 
L 298.15674 192.24 
L 289.941396 192.24 
L 287.94362 191.861271 
z
M 277.200478 191.475413 
L 285.884687 191.475413 
L 281.549378 190.648447 
L 277.200478 191.475413 
z
" clip-path="url(#p0937ced4f9)" style="fill: #008000"/>
   </g>
   <g id="patch_24">
    <path d="M 298.15674 189.900212 
Q 295.37668 190.029479 292.370531 190.094864 
Q 289.364383 190.161 286.090276 190.161 
Q 276.326573 190.161 270.624102 189.67099 
Q 264.92163 189.18098 264.92163 188.343002 
Q 264.92163 187.502019 270.624102 187.01276 
Q 276.326573 186.52275 286.090276 186.52275 
Q 289.364383 186.52275 292.370531 186.588886 
Q 295.37668 186.654271 298.15674 186.783538 
L 298.15674 187.508783 
Q 295.351559 187.337429 292.630115 187.257765 
Q 289.908672 187.178101 286.902523 187.178101 
Q 281.509877 187.178101 278.419992 187.488491 
Q 275.33848 187.798129 275.33848 188.343002 
Q 275.33848 188.885621 278.419992 189.196011 
Q 281.509877 189.505649 286.902523 189.505649 
Q 289.908672 189.505649 292.630115 189.425985 
Q 295.351559 189.345569 298.15674 189.174216 
L 298.15674 189.900212 
z
" clip-path="url(#p0937ced4f9)" style="fill: #0000ff"/>
   </g>
   <g id="patch_25">
    <path d="M 298.15674 185.958444 
Q 294.804925 186.240597 291.199861 186.382318 
Q 287.594798 186.52275 283.751383 186.52275 
Q 275.066457 186.52275 269.994044 185.682733 
Q 264.92163 184.842715 264.92163 183.406183 
Q 264.92163 181.952901 270.083425 181.119326 
Q 275.252669 180.28575 284.242983 180.28575 
Q 287.706525 180.28575 290.879577 180.399127 
Q 294.060077 180.511215 296.875602 180.732814 
L 296.875602 181.976092 
Q 293.970695 181.691362 291.095582 181.55093 
Q 288.22047 181.409209 285.33046 181.409209 
Q 279.982453 181.409209 277.084995 181.927134 
Q 274.187537 182.44377 274.187537 183.406183 
Q 274.187537 184.359576 276.980716 184.880078 
Q 279.773896 185.399291 284.913346 185.399291 
Q 286.313659 185.399291 287.512864 185.369659 
Q 288.712069 185.338738 289.665475 185.274319 
L 289.665475 184.107056 
L 284.190843 184.107056 
L 284.190843 183.067341 
L 298.15674 183.067341 
L 298.15674 185.958444 
z
" clip-path="url(#p0937ced4f9)" style="fill: #ffa600"/>
   </g>
   <g id="patch_26">
    <path d="M 264.92163 25.92 
L 298.15674 25.92 
L 298.15674 56.025622 
L 286.199829 56.025622 
L 286.199829 180.28575 
L 276.901728 180.28575 
L 276.901728 56.025622 
L 264.92163 56.025622 
L 264.92163 25.92 
z
" clip-path="url(#p0937ced4f9)" style="fill: #ff0000"/>
   </g>
   <g id="patch_27">
    <path d="M 322.927946 192.169446 
L 310.146257 192.169446 
L 308.128095 192.24 
L 299.905956 192.24 
L 311.647986 191.852699 
L 321.399036 191.852699 
L 333.141066 192.24 
L 324.925722 192.24 
L 322.927946 192.169446 
z
M 312.184804 192.097563 
L 320.869013 192.097563 
L 316.533704 191.943506 
L 312.184804 192.097563 
z
" clip-path="url(#p0937ced4f9)" style="fill: #008000"/>
   </g>
   <g id="patch_28">
    <path d="M 333.141066 190.818962 
Q 329.789251 191.33583 326.184187 191.595445 
Q 322.579124 191.852699 318.735709 191.852699 
Q 310.050783 191.852699 304.97837 190.313894 
Q 299.905956 188.77509 299.905956 186.143545 
Q 299.905956 183.481319 305.067752 181.954315 
Q 310.236995 180.427312 319.227309 180.427312 
Q 322.690851 180.427312 325.863903 180.635003 
Q 329.044403 180.840334 331.859928 181.246277 
L 331.859928 183.523802 
Q 328.955021 183.002213 326.079908 182.744959 
Q 323.204796 182.485345 320.314786 182.485345 
Q 314.966779 182.485345 312.069321 183.434117 
Q 309.171863 184.380529 309.171863 186.143545 
Q 309.171863 187.890041 311.965042 188.843534 
Q 314.758222 189.794666 319.897672 189.794666 
Q 321.297985 189.794666 322.49719 189.740383 
Q 323.696395 189.68374 324.649801 189.565733 
L 324.649801 187.427456 
L 319.175169 187.427456 
L 319.175169 185.522831 
L 333.141066 185.522831 
L 333.141066 190.818962 
z
" clip-path="url(#p0937ced4f9)" style="fill: #ffa600"/>
   </g>
   <g id="patch_29">
    <path d="M 333.141066 179.427897 
Q 330.361006 179.923284 327.354858 180.173858 
Q 324.348709 180.427312 321.074602 180.427312 
Q 311.310899 180.427312 305.608428 178.549449 
Q 299.905956 176.671586 299.905956 173.460209 
Q 299.905956 170.237312 305.608428 168.36233 
Q 311.310899 166.484466 321.074602 166.484466 
Q 324.348709 166.484466 327.354858 166.73792 
Q 330.361006 166.988494 333.141066 167.483881 
L 333.141066 170.263234 
Q 330.335885 169.606558 327.614441 169.301261 
Q 324.892998 168.995964 321.886849 168.995964 
Q 316.494203 168.995964 313.404318 170.18547 
Q 310.322806 171.372095 310.322806 173.460209 
Q 310.322806 175.539683 313.404318 176.729189 
Q 316.494203 177.915814 321.886849 177.915814 
Q 324.892998 177.915814 327.614441 177.610517 
Q 330.335885 177.30234 333.141066 176.645664 
L 333.141066 179.427897 
z
" clip-path="url(#p0937ced4f9)" style="fill: #0000ff"/>
   </g>
   <g id="patch_30">
    <path d="M 299.905956 130.271799 
L 333.141066 130.271799 
L 333.141066 137.334278 
L 321.184155 137.334278 
L 321.184155 166.484466 
L 311.886054 166.484466 
L 311.886054 137.334278 
L 299.905956 137.334278 
L 299.905956 130.271799 
z
" clip-path="url(#p0937ced4f9)" style="fill: #ff0000"/>
   </g>
   <g id="patch_31">
    <path d="M 357.912272 191.810764 
L 345.130583 191.810764 
L 343.112421 192.24 
L 334.890282 192.24 
L 346.632312 189.883745 
L 356.383362 189.883745 
L 368.125392 192.24 
L 359.910048 192.24 
L 357.912272 191.810764 
z
M 347.16913 191.373447 
L 355.853339 191.373447 
L 351.51803 190.436197 
L 347.16913 191.373447 
z
" clip-path="url(#p0937ced4f9)" style="fill: #008000"/>
   </g>
   <g id="patch_32">
    <path d="M 368.125392 189.19409 
Q 365.345332 189.535936 362.339184 189.708847 
Q 359.333035 189.883745 356.058928 189.883745 
Q 346.295225 189.883745 340.592754 188.58791 
Q 334.890282 187.292075 334.890282 185.076038 
Q 334.890282 182.852051 340.592754 181.558204 
Q 346.295225 180.262369 356.058928 180.262369 
Q 359.333035 180.262369 362.339184 180.437267 
Q 365.345332 180.610177 368.125392 180.952023 
L 368.125392 182.869939 
Q 365.320211 182.416794 362.598767 182.206121 
Q 359.877324 181.995449 356.871175 181.995449 
Q 351.478529 181.995449 348.388644 182.816277 
Q 345.307132 183.635117 345.307132 185.076038 
Q 345.307132 186.510996 348.388644 187.331824 
Q 351.478529 188.150665 356.871175 188.150665 
Q 359.877324 188.150665 362.598767 187.939992 
Q 365.320211 187.727332 368.125392 187.274188 
L 368.125392 189.19409 
z
" clip-path="url(#p0937ced4f9)" style="fill: #0000ff"/>
   </g>
   <g id="patch_33">
    <path d="M 368.125392 179.338557 
Q 364.773577 179.800463 361.168513 180.032471 
Q 357.56345 180.262369 353.720035 180.262369 
Q 345.035109 180.262369 339.962696 178.887197 
Q 334.890282 177.512025 334.890282 175.160313 
Q 334.890282 172.781181 340.052078 171.416555 
Q 345.221321 170.051929 354.211635 170.051929 
Q 357.675177 170.051929 360.848229 170.237535 
Q 364.028729 170.421032 366.844254 170.783808 
L 366.844254 172.819146 
Q 363.939347 172.353022 361.064235 172.123124 
Q 358.189122 171.891116 355.299112 171.891116 
Q 349.951105 171.891116 347.053647 172.738998 
Q 344.156189 173.584771 344.156189 175.160313 
Q 344.156189 176.721091 346.949368 177.573191 
Q 349.742548 178.423182 354.881998 178.423182 
Q 356.282312 178.423182 357.481517 178.374672 
Q 358.680721 178.324052 359.634127 178.218594 
L 359.634127 176.307696 
L 354.159495 176.307696 
L 354.159495 174.605604 
L 368.125392 174.605604 
L 368.125392 179.338557 
z
" clip-path="url(#p0937ced4f9)" style="fill: #ffa600"/>
   </g>
   <g id="patch_34">
    <path d="M 334.890282 129.406526 
L 368.125392 129.406526 
L 368.125392 137.333512 
L 356.168481 137.333512 
L 356.168481 170.051929 
L 346.87038 170.051929 
L 346.87038 137.333512 
L 334.890282 137.333512 
L 334.890282 129.406526 
z
" clip-path="url(#p0937ced4f9)" style="fill: #ff0000"/>
   </g>
   <g id="patch_35">
    <path d="M 369.874608 190.138281 
L 403.109718 190.138281 
L 403.109718 190.548175 
L 391.152807 190.548175 
L 391.152807 192.24 
L 381.854706 192.24 
L 381.854706 190.548175 
L 369.874608 190.548175 
L 369.874608 190.138281 
z
" clip-path="url(#p0937ced4f9)" style="fill: #ff0000"/>
   </g>
   <g id="patch_36">
    <path d="M 392.896598 189.117301 
L 380.114909 189.117301 
L 378.096747 190.138281 
L 369.874608 190.138281 
L 381.616638 184.533699 
L 391.367688 184.533699 
L 403.109718 190.138281 
L 394.894374 190.138281 
L 392.896598 189.117301 
z
M 382.153456 188.077102 
L 390.837665 188.077102 
L 386.502356 185.847761 
L 382.153456 188.077102 
z
" clip-path="url(#p0937ced4f9)" style="fill: #008000"/>
   </g>
   <g id="patch_37">
    <path d="M 403.109718 183.569539 
Q 400.329658 184.047451 397.32351 184.289185 
Q 394.317361 184.533699 391.043255 184.533699 
Q 381.279551 184.533699 375.57708 182.722079 
Q 369.874608 180.910459 369.874608 177.812367 
Q 369.874608 174.703161 375.57708 172.894319 
Q 381.279551 171.0827 391.043255 171.0827 
Q 394.317361 171.0827 397.32351 171.327213 
Q 400.329658 171.568947 403.109718 172.046859 
L 403.109718 174.728168 
Q 400.304537 174.094656 397.583093 173.800129 
Q 394.86165 173.505602 391.855501 173.505602 
Q 386.462855 173.505602 383.37297 174.653147 
Q 380.291458 175.797912 380.291458 177.812367 
Q 380.291458 179.818486 383.37297 180.96603 
Q 386.462855 182.110796 391.855501 182.110796 
Q 394.86165 182.110796 397.583093 181.816269 
Q 400.304537 181.518963 403.109718 180.885452 
L 403.109718 183.569539 
z
" clip-path="url(#p0937ced4f9)" style="fill: #0000ff"/>
   </g>
   <g id="patch_38">
    <path d="M 403.109718 168.940258 
Q 399.757903 170.011479 396.152839 170.549535 
Q 392.547776 171.0827 388.704361 171.0827 
Q 380.019435 171.0827 374.947022 167.893494 
Q 369.874608 164.704288 369.874608 159.250355 
Q 369.874608 153.732834 375.036404 150.568086 
Q 380.205647 147.403337 389.195961 147.403337 
Q 392.659503 147.403337 395.832555 147.833782 
Q 399.013055 148.259335 401.82858 149.10066 
L 401.82858 153.82088 
Q 398.923673 152.739876 396.048561 152.206711 
Q 393.173448 151.668655 390.283438 151.668655 
Q 384.935431 151.668655 382.037973 153.635006 
Q 379.140515 155.596465 379.140515 159.250355 
Q 379.140515 162.870006 381.933694 164.84614 
Q 384.726874 166.817382 389.866324 166.817382 
Q 391.266638 166.817382 392.465843 166.704879 
Q 393.665048 166.587485 394.618453 166.342914 
L 394.618453 161.911288 
L 389.143821 161.911288 
L 389.143821 157.963912 
L 403.109718 157.963912 
L 403.109718 168.940258 
z
" clip-path="url(#p0937ced4f9)" style="fill: #ffa600"/>
   </g>
   <g id="patch_39">
    <path d="M 404.858934 190.189843 
L 438.094044 190.189843 
L 438.094044 190.589681 
L 426.137133 190.589681 
L 426.137133 192.24 
L 416.839032 192.24 
L 416.839032 190.589681 
L 404.858934 190.589681 
L 404.858934 190.189843 
z
" clip-path="url(#p0937ced4f9)" style="fill: #ff0000"/>
   </g>
   <g id="patch_40">
    <path d="M 427.880924 188.695944 
L 415.099235 188.695944 
L 413.081073 190.189843 
L 404.858934 190.189843 
L 416.600964 181.989215 
L 426.352014 181.989215 
L 438.094044 190.189843 
L 429.8787 190.189843 
L 427.880924 188.695944 
z
M 417.137782 187.173924 
L 425.821992 187.173924 
L 421.486682 183.911952 
L 417.137782 187.173924 
z
" clip-path="url(#p0937ced4f9)" style="fill: #008000"/>
   </g>
   <g id="patch_41">
    <path d="M 438.094044 181.285935 
Q 435.313984 181.634535 432.307836 181.810862 
Q 429.301687 181.989215 426.027581 181.989215 
Q 416.263877 181.989215 410.561406 180.667779 
Q 404.858934 179.346342 404.858934 177.086523 
Q 404.858934 174.818597 410.561406 173.499187 
Q 416.263877 172.17775 426.027581 172.17775 
Q 429.301687 172.17775 432.307836 172.356104 
Q 435.313984 172.53243 438.094044 172.88103 
L 438.094044 174.836838 
Q 435.288863 174.37474 432.567419 174.159905 
Q 429.845976 173.945071 426.839827 173.945071 
Q 421.447181 173.945071 418.357296 174.782116 
Q 415.275784 175.617134 415.275784 177.086523 
Q 415.275784 178.549832 418.357296 179.386877 
Q 421.447181 180.221895 426.839827 180.221895 
Q 429.845976 180.221895 432.567419 180.00706 
Q 435.288863 179.790199 438.094044 179.328101 
L 438.094044 181.285935 
z
" clip-path="url(#p0937ced4f9)" style="fill: #0000ff"/>
   </g>
   <g id="patch_42">
    <path d="M 438.094044 169.7531 
Q 434.742229 170.965425 431.137165 171.574355 
Q 427.532102 172.17775 423.688687 172.17775 
Q 415.003761 172.17775 409.931348 168.568453 
Q 404.858934 164.959155 404.858934 158.786814 
Q 404.858934 152.542508 410.02073 148.960889 
Q 415.189973 145.379271 424.180287 145.379271 
Q 427.643829 145.379271 430.816881 145.866415 
Q 433.997381 146.348024 436.812906 147.30017 
L 436.812906 152.642151 
Q 433.907999 151.418755 431.032887 150.81536 
Q 428.157774 150.206429 425.267764 150.206429 
Q 419.919757 150.206429 417.022299 152.431794 
Q 414.124841 154.651622 414.124841 158.786814 
Q 414.124841 162.883256 416.91802 165.119692 
Q 419.7112 167.350592 424.85065 167.350592 
Q 426.250964 167.350592 427.450169 167.22327 
Q 428.649374 167.090412 429.602779 166.813626 
L 429.602779 161.798252 
L 424.128147 161.798252 
L 424.128147 157.330917 
L 438.094044 157.330917 
L 438.094044 169.7531 
z
" clip-path="url(#p0937ced4f9)" style="fill: #ffa600"/>
   </g>
   <g id="patch_43">
    <path d="M 473.07837 192.121709 
Q 469.726555 192.180854 466.121491 192.210562 
Q 462.516428 192.24 458.673013 192.24 
Q 449.988087 192.24 444.915674 192.063913 
Q 439.84326 191.887827 439.84326 191.586697 
Q 439.84326 191.282057 445.005056 191.10732 
Q 450.174299 190.932584 459.164613 190.932584 
Q 462.628155 190.932584 465.801207 190.956351 
Q 468.981707 190.979847 471.797232 191.026299 
L 471.797232 191.286918 
Q 468.892325 191.227232 466.017213 191.197794 
Q 463.1421 191.168087 460.25209 191.168087 
Q 454.904083 191.168087 452.006625 191.276655 
Q 449.109167 191.384954 449.109167 191.586697 
Q 449.109167 191.78655 451.902346 191.895659 
Q 454.695526 192.004498 459.834976 192.004498 
Q 461.23529 192.004498 462.434495 191.998286 
Q 463.6337 191.991804 464.587105 191.978301 
L 464.587105 191.733616 
L 459.112473 191.733616 
L 459.112473 191.515668 
L 473.07837 191.515668 
L 473.07837 192.121709 
z
" clip-path="url(#p0937ced4f9)" style="fill: #ffa600"/>
   </g>
   <g id="patch_44">
    <path d="M 462.86525 190.690083 
L 450.083561 190.690083 
L 448.065399 190.932584 
L 439.84326 190.932584 
L 451.58529 189.601397 
L 461.33634 189.601397 
L 473.07837 190.932584 
L 464.863026 190.932584 
L 462.86525 190.690083 
z
M 452.122108 190.443018 
L 460.806318 190.443018 
L 456.471008 189.91351 
L 452.122108 190.443018 
z
" clip-path="url(#p0937ced4f9)" style="fill: #008000"/>
   </g>
   <g id="patch_45">
    <path d="M 473.07837 189.431007 
Q 470.29831 189.515465 467.292162 189.558186 
Q 464.286013 189.601397 461.011907 189.601397 
Q 451.248203 189.601397 445.545732 189.28124 
Q 439.84326 188.961083 439.84326 188.413574 
Q 439.84326 187.864102 445.545732 187.544435 
Q 451.248203 187.224278 461.011907 187.224278 
Q 464.286013 187.224278 467.292162 187.267489 
Q 470.29831 187.31021 473.07837 187.394668 
L 473.07837 187.868521 
Q 470.273189 187.756564 467.551745 187.704514 
Q 464.830302 187.652464 461.824153 187.652464 
Q 456.431507 187.652464 453.341622 187.855263 
Q 450.26011 188.057571 450.26011 188.413574 
Q 450.26011 188.768104 453.341622 188.970903 
Q 456.431507 189.173211 461.824153 189.173211 
Q 464.830302 189.173211 467.551745 189.121161 
Q 470.273189 189.06862 473.07837 188.956663 
L 473.07837 189.431007 
z
" clip-path="url(#p0937ced4f9)" style="fill: #0000ff"/>
   </g>
   <g id="patch_46">
    <path d="M 439.84326 184.633217 
L 473.07837 184.633217 
L 473.07837 185.138546 
L 461.12146 185.138546 
L 461.12146 187.224278 
L 451.823358 187.224278 
L 451.823358 185.138546 
L 439.84326 185.138546 
L 439.84326 184.633217 
z
" clip-path="url(#p0937ced4f9)" style="fill: #ff0000"/>
   </g>
   <g id="patch_47">
    <path d="M 497.849576 191.933506 
L 485.067887 191.933506 
L 483.049725 192.24 
L 474.827586 192.24 
L 486.569616 190.557528 
L 496.320666 190.557528 
L 508.062696 192.24 
L 499.847352 192.24 
L 497.849576 191.933506 
z
M 487.106434 191.621243 
L 495.790644 191.621243 
L 491.455334 190.952004 
L 487.106434 191.621243 
z
" clip-path="url(#p0937ced4f9)" style="fill: #008000"/>
   </g>
   <g id="patch_48">
    <path d="M 508.062696 189.910571 
Q 504.710881 190.234049 501.105817 190.396527 
Q 497.500754 190.557528 493.657339 190.557528 
Q 484.972414 190.557528 479.9 189.594477 
Q 474.827586 188.631426 474.827586 186.984491 
Q 474.827586 185.318354 479.989382 184.362688 
Q 485.158625 183.407023 494.148939 183.407023 
Q 497.612481 183.407023 500.785533 183.537005 
Q 503.966033 183.66551 506.781558 183.919567 
L 506.781558 185.344941 
Q 503.876651 185.018508 501.001539 184.857507 
Q 498.126426 184.69503 495.236416 184.69503 
Q 489.888409 184.69503 486.990951 185.288812 
Q 484.093493 185.881118 484.093493 186.984491 
Q 484.093493 188.077524 486.886672 188.674261 
Q 489.679852 189.269521 494.819302 189.269521 
Q 496.219616 189.269521 497.418821 189.235549 
Q 498.618026 189.200099 499.571431 189.126245 
L 499.571431 187.788018 
L 494.096799 187.788018 
L 494.096799 186.596021 
L 508.062696 186.596021 
L 508.062696 189.910571 
z
" clip-path="url(#p0937ced4f9)" style="fill: #ffa600"/>
   </g>
   <g id="patch_49">
    <path d="M 508.062696 182.276411 
Q 505.282636 182.83683 502.276488 183.120297 
Q 499.270339 183.407023 495.996233 183.407023 
Q 486.232529 183.407023 480.530058 181.282646 
Q 474.827586 179.158269 474.827586 175.525323 
Q 474.827586 171.879345 480.530058 169.758226 
Q 486.232529 167.633849 495.996233 167.633849 
Q 499.270339 167.633849 502.276488 167.920575 
Q 505.282636 168.204043 508.062696 168.764461 
L 508.062696 171.908669 
Q 505.257515 171.165789 502.536071 170.820415 
Q 499.814628 170.475041 496.808479 170.475041 
Q 491.415833 170.475041 488.325948 171.820697 
Q 485.244436 173.163094 485.244436 175.525323 
Q 485.244436 177.877778 488.325948 179.223434 
Q 491.415833 180.565831 496.808479 180.565831 
Q 499.814628 180.565831 502.536071 180.220457 
Q 505.257515 179.871825 508.062696 179.128945 
L 508.062696 182.276411 
z
" clip-path="url(#p0937ced4f9)" style="fill: #0000ff"/>
   </g>
   <g id="patch_50">
    <path d="M 474.827586 124.941126 
L 508.062696 124.941126 
L 508.062696 133.267397 
L 496.105786 133.267397 
L 496.105786 167.633849 
L 486.807684 167.633849 
L 486.807684 133.267397 
L 474.827586 133.267397 
L 474.827586 124.941126 
z
" clip-path="url(#p0937ced4f9)" style="fill: #ff0000"/>
   </g>
   <g id="patch_51">
    <path d="M 543.047022 192.219509 
Q 540.266962 192.229666 537.260814 192.234803 
Q 534.254665 192.24 530.980559 192.24 
Q 521.216855 192.24 515.514384 192.201498 
Q 509.811912 192.162997 509.811912 192.097155 
Q 509.811912 192.031076 515.514384 191.992634 
Q 521.216855 191.954132 530.980559 191.954132 
Q 534.254665 191.954132 537.260814 191.959329 
Q 540.266962 191.964466 543.047022 191.974623 
L 543.047022 192.031607 
Q 540.241841 192.018144 537.520398 192.011884 
Q 534.798954 192.005625 531.792805 192.005625 
Q 526.400159 192.005625 523.310274 192.030013 
Q 520.228762 192.054342 520.228762 192.097155 
Q 520.228762 192.13979 523.310274 192.164178 
Q 526.400159 192.188507 531.792805 192.188507 
Q 534.798954 192.188507 537.520398 192.182248 
Q 540.241841 192.175929 543.047022 192.162465 
L 543.047022 192.219509 
z
" clip-path="url(#p0937ced4f9)" style="fill: #0000ff"/>
   </g>
   <g id="patch_52">
    <path d="M 509.811912 191.596797 
L 543.047022 191.596797 
L 543.047022 191.666487 
L 531.090112 191.666487 
L 531.090112 191.954132 
L 521.79201 191.954132 
L 521.79201 191.666487 
L 509.811912 191.666487 
L 509.811912 191.596797 
z
" clip-path="url(#p0937ced4f9)" style="fill: #ff0000"/>
   </g>
   <g id="patch_53">
    <path d="M 532.833902 191.530074 
L 520.052213 191.530074 
L 518.034051 191.596797 
L 509.811912 191.596797 
L 521.553942 191.230529 
L 531.304992 191.230529 
L 543.047022 191.596797 
L 534.831678 191.596797 
L 532.833902 191.530074 
z
M 522.09076 191.462096 
L 530.77497 191.462096 
L 526.43966 191.316405 
L 522.09076 191.462096 
z
" clip-path="url(#p0937ced4f9)" style="fill: #008000"/>
   </g>
   <g id="patch_54">
    <path d="M 543.047022 191.19254 
Q 539.695207 191.211534 536.090143 191.221075 
Q 532.48508 191.230529 528.641665 191.230529 
Q 519.95674 191.230529 514.884326 191.173979 
Q 509.811912 191.11743 509.811912 191.020724 
Q 509.811912 190.922891 514.973708 190.866775 
Q 520.142951 190.81066 529.133265 190.81066 
Q 532.596807 190.81066 535.769859 190.818292 
Q 538.950359 190.825838 541.765884 190.840756 
L 541.765884 190.924452 
Q 538.860977 190.905284 535.985865 190.895831 
Q 533.110752 190.88629 530.220742 190.88629 
Q 524.872735 190.88629 521.975277 190.921156 
Q 519.077819 190.955936 519.077819 191.020724 
Q 519.077819 191.084906 521.870998 191.119946 
Q 524.664178 191.154898 529.803628 191.154898 
Q 531.203942 191.154898 532.403147 191.152904 
Q 533.602352 191.150822 534.555757 191.146485 
L 534.555757 191.067906 
L 529.081125 191.067906 
L 529.081125 190.997914 
L 543.047022 190.997914 
L 543.047022 191.19254 
z
" clip-path="url(#p0937ced4f9)" style="fill: #ffa600"/>
   </g>
   <g id="patch_55">
    <path d="M 578.031348 192.116066 
Q 575.251288 192.177498 572.24514 192.20857 
Q 569.238991 192.24 565.964885 192.24 
Q 556.201181 192.24 550.49871 192.007134 
Q 544.796238 191.774267 544.796238 191.376037 
Q 544.796238 190.976378 550.49871 190.743869 
Q 556.201181 190.511002 565.964885 190.511002 
Q 569.238991 190.511002 572.24514 190.542432 
Q 575.251288 190.573505 578.031348 190.634936 
L 578.031348 190.979593 
Q 575.226167 190.898161 572.504724 190.860302 
Q 569.78328 190.822443 566.777131 190.822443 
Q 561.384485 190.822443 558.2946 190.969949 
Q 555.213088 191.117098 555.213088 191.376037 
Q 555.213088 191.633904 558.2946 191.78141 
Q 561.384485 191.928559 566.777131 191.928559 
Q 569.78328 191.928559 572.504724 191.8907 
Q 575.226167 191.852485 578.031348 191.771053 
L 578.031348 192.116066 
z
" clip-path="url(#p0937ced4f9)" style="fill: #0000ff"/>
   </g>
   <g id="patch_56">
    <path d="M 578.031348 190.208225 
Q 574.679533 190.359614 571.074469 190.435654 
Q 567.469406 190.511002 563.625991 190.511002 
Q 554.941066 190.511002 549.868652 190.060293 
Q 544.796238 189.609584 544.796238 188.838816 
Q 544.796238 188.059061 549.958034 187.611808 
Q 555.127278 187.164556 564.117591 187.164556 
Q 567.581133 187.164556 570.754185 187.225388 
Q 573.934685 187.285528 576.75021 187.404427 
L 576.75021 188.071504 
Q 573.845303 187.918733 570.970191 187.843385 
Q 568.095078 187.767345 565.205069 187.767345 
Q 559.857061 187.767345 556.959603 188.045236 
Q 554.062145 188.322436 554.062145 188.838816 
Q 554.062145 189.350357 556.855324 189.629631 
Q 559.648504 189.908213 564.787954 189.908213 
Q 566.188268 189.908213 567.387473 189.892314 
Q 568.586678 189.875724 569.540083 189.84116 
L 569.540083 189.214868 
L 564.065451 189.214868 
L 564.065451 188.657011 
L 578.031348 188.657011 
L 578.031348 190.208225 
z
" clip-path="url(#p0937ced4f9)" style="fill: #ffa600"/>
   </g>
   <g id="patch_57">
    <path d="M 567.818228 186.097723 
L 555.036539 186.097723 
L 553.018377 187.164556 
L 544.796238 187.164556 
L 556.538268 181.308274 
L 566.289318 181.308274 
L 578.031348 187.164556 
L 569.816004 187.164556 
L 567.818228 186.097723 
z
M 557.075086 185.010809 
L 565.759296 185.010809 
L 561.423986 182.68135 
L 557.075086 185.010809 
z
" clip-path="url(#p0937ced4f9)" style="fill: #008000"/>
   </g>
   <g id="patch_58">
    <path d="M 544.796238 174.392284 
L 578.031348 174.392284 
L 578.031348 175.741094 
L 566.074438 175.741094 
L 566.074438 181.308274 
L 556.776336 181.308274 
L 556.776336 175.741094 
L 544.796238 175.741094 
L 544.796238 174.392284 
z
" clip-path="url(#p0937ced4f9)" style="fill: #ff0000"/>
   </g>
   <g id="patch_59">
    <path d="M 602.802554 191.844654 
L 590.020865 191.844654 
L 588.002703 192.24 
L 579.780564 192.24 
L 591.522594 190.069782 
L 601.273644 190.069782 
L 613.015674 192.24 
L 604.80033 192.24 
L 602.802554 191.844654 
z
M 592.059412 191.441866 
L 600.743622 191.441866 
L 596.408312 190.578616 
L 592.059412 191.441866 
z
" clip-path="url(#p0937ced4f9)" style="fill: #008000"/>
   </g>
   <g id="patch_60">
    <path d="M 613.015674 189.898018 
Q 610.235614 189.983157 607.229466 190.026222 
Q 604.223317 190.069782 600.949211 190.069782 
Q 591.185507 190.069782 585.483036 189.747044 
Q 579.780564 189.424305 579.780564 188.872383 
Q 579.780564 188.318481 585.483036 187.996238 
Q 591.185507 187.6735 600.949211 187.6735 
Q 604.223317 187.6735 607.229466 187.717059 
Q 610.235614 187.760124 613.015674 187.845264 
L 613.015674 188.322936 
Q 610.210493 188.210077 607.48905 188.157607 
Q 604.767606 188.105137 601.761457 188.105137 
Q 596.368811 188.105137 593.278926 188.309571 
Q 590.197414 188.51351 590.197414 188.872383 
Q 590.197414 189.229771 593.278926 189.434205 
Q 596.368811 189.638144 601.761457 189.638144 
Q 604.767606 189.638144 607.48905 189.585675 
Q 610.210493 189.53271 613.015674 189.41985 
L 613.015674 189.898018 
z
" clip-path="url(#p0937ced4f9)" style="fill: #0000ff"/>
   </g>
   <g id="patch_61">
    <path d="M 579.780564 183.966044 
L 613.015674 183.966044 
L 613.015674 184.689101 
L 601.058764 184.689101 
L 601.058764 187.6735 
L 591.760662 187.6735 
L 591.760662 184.689101 
L 579.780564 184.689101 
L 579.780564 183.966044 
z
" clip-path="url(#p0937ced4f9)" style="fill: #ff0000"/>
   </g>
   <g id="patch_62">
    <path d="M 613.015674 183.405614 
Q 609.663859 183.685829 606.058795 183.826576 
Q 602.453732 183.966044 598.610317 183.966044 
Q 589.925392 183.966044 584.852978 183.131796 
Q 579.780564 182.297548 579.780564 180.870881 
Q 579.780564 179.427581 584.94236 178.599731 
Q 590.111604 177.77188 599.101917 177.77188 
Q 602.565459 177.77188 605.738511 177.884478 
Q 608.919011 177.995796 611.734536 178.215874 
L 611.734536 179.450612 
Q 608.829629 179.167838 605.954517 179.02837 
Q 603.079404 178.887623 600.189395 178.887623 
Q 594.841387 178.887623 591.943929 179.401991 
Q 589.046471 179.915079 589.046471 180.870881 
Q 589.046471 181.817727 591.83965 182.334654 
Q 594.63283 182.850301 599.77228 182.850301 
Q 601.172594 182.850301 602.371799 182.820872 
Q 603.571004 182.790164 604.524409 182.726188 
L 604.524409 181.566941 
L 599.049777 181.566941 
L 599.049777 180.534367 
L 613.015674 180.534367 
L 613.015674 183.405614 
z
" clip-path="url(#p0937ced4f9)" style="fill: #ffa600"/>
   </g>
   <g id="patch_63">
    <path d="M 648 192.103787 
Q 645.21994 192.171304 642.213792 192.205456 
Q 639.207643 192.24 635.933537 192.24 
Q 626.169833 192.24 620.467362 191.98406 
Q 614.76489 191.72812 614.76489 191.290432 
Q 614.76489 190.851173 620.467362 190.595626 
Q 626.169833 190.339686 635.933537 190.339686 
Q 639.207643 190.339686 642.213792 190.37423 
Q 645.21994 190.408381 648 190.475899 
L 648 190.854706 
Q 645.194819 190.765206 642.473376 190.723596 
Q 639.751932 190.681986 636.745783 190.681986 
Q 631.353137 190.681986 628.263252 190.844107 
Q 625.18174 191.005836 625.18174 191.290432 
Q 625.18174 191.57385 628.263252 191.735971 
Q 631.353137 191.8977 636.745783 191.8977 
Q 639.751932 191.8977 642.473376 191.85609 
Q 645.194819 191.814088 648 191.724587 
L 648 192.103787 
z
" clip-path="url(#p0937ced4f9)" style="fill: #0000ff"/>
   </g>
   <g id="patch_64">
    <path d="M 614.76489 188.325353 
L 648 188.325353 
L 648 188.718204 
L 636.04309 188.718204 
L 636.04309 190.339686 
L 626.744988 190.339686 
L 626.744988 188.718204 
L 614.76489 188.718204 
L 614.76489 188.325353 
z
" clip-path="url(#p0937ced4f9)" style="fill: #ff0000"/>
   </g>
   <g id="patch_65">
    <path d="M 648 188.022747 
Q 644.648185 188.17405 641.043121 188.250047 
Q 637.438058 188.325353 633.594643 188.325353 
Q 624.909718 188.325353 619.837304 187.874899 
Q 614.76489 187.424445 614.76489 186.654113 
Q 614.76489 185.8748 619.926686 185.4278 
Q 625.09593 184.9808 634.086243 184.9808 
Q 637.549785 184.9808 640.722837 185.041598 
Q 643.903337 185.101704 646.718862 185.220536 
L 646.718862 185.887235 
Q 643.813955 185.734551 640.938843 185.659245 
Q 638.06373 185.583248 635.173721 185.583248 
Q 629.825713 185.583248 626.928255 185.860982 
Q 624.030797 186.138025 624.030797 186.654113 
Q 624.030797 187.165365 626.823976 187.44448 
Q 629.617156 187.722905 634.756606 187.722905 
Q 636.15692 187.722905 637.356125 187.707015 
Q 638.55533 187.690434 639.508735 187.65589 
L 639.508735 187.029952 
L 634.034103 187.029952 
L 634.034103 186.472411 
L 648 186.472411 
L 648 188.022747 
z
" clip-path="url(#p0937ced4f9)" style="fill: #ffa600"/>
   </g>
   <g id="patch_66">
    <path d="M 637.78688 184.087661 
L 625.005191 184.087661 
L 622.987029 184.9808 
L 614.76489 184.9808 
L 626.50692 180.07799 
L 636.25797 180.07799 
L 648 184.9808 
L 639.784656 184.9808 
L 637.78688 184.087661 
z
M 627.043738 183.177709 
L 635.727948 183.177709 
L 631.392638 181.227513 
L 627.043738 183.177709 
z
" clip-path="url(#p0937ced4f9)" style="fill: #008000"/>
   </g>
   <g id="matplotlib.axis_1">
    <g id="xtick_1">
     <g id="line2d_2">
      <defs>
       <path id="mbdcf41975c" d="M 0 0 
L 0 3.5 
" style="stroke: #000000; stroke-width: 0.8"/>
      </defs>
      <g>
       <use xlink:href="#mbdcf41975c" x="106.617555" y="192.24" style="stroke: #000000; stroke-width: 0.8"/>
      </g>
     </g>
     <g id="text_1">
      <!-- 0 -->
      <g transform="translate(103.436305 206.838437) scale(0.1 -0.1)">
       <defs>
        <path id="DejaVuSans-30" d="M 2034 4250 
Q 1547 4250 1301 3770 
Q 1056 3291 1056 2328 
Q 1056 1369 1301 889 
Q 1547 409 2034 409 
Q 2525 409 2770 889 
Q 3016 1369 3016 2328 
Q 3016 3291 2770 3770 
Q 2525 4250 2034 4250 
z
M 2034 4750 
Q 2819 4750 3233 4129 
Q 3647 3509 3647 2328 
Q 3647 1150 3233 529 
Q 2819 -91 2034 -91 
Q 1250 -91 836 529 
Q 422 1150 422 2328 
Q 422 3509 836 4129 
Q 1250 4750 2034 4750 
z
" transform="scale(0.015625)"/>
       </defs>
       <use xlink:href="#DejaVuSans-30"/>
      </g>
     </g>
    </g>
    <g id="xtick_2">
     <g id="line2d_3">
      <g>
       <use xlink:href="#mbdcf41975c" x="176.586207" y="192.24" style="stroke: #000000; stroke-width: 0.8"/>
      </g>
     </g>
     <g id="text_2">
      <!-- 2 -->
      <g transform="translate(173.404957 206.838437) scale(0.1 -0.1)">
       <defs>
        <path id="DejaVuSans-32" d="M 1228 531 
L 3431 531 
L 3431 0 
L 469 0 
L 469 531 
Q 828 903 1448 1529 
Q 2069 2156 2228 2338 
Q 2531 2678 2651 2914 
Q 2772 3150 2772 3378 
Q 2772 3750 2511 3984 
Q 2250 4219 1831 4219 
Q 1534 4219 1204 4116 
Q 875 4013 500 3803 
L 500 4441 
Q 881 4594 1212 4672 
Q 1544 4750 1819 4750 
Q 2544 4750 2975 4387 
Q 3406 4025 3406 3419 
Q 3406 3131 3298 2873 
Q 3191 2616 2906 2266 
Q 2828 2175 2409 1742 
Q 1991 1309 1228 531 
z
" transform="scale(0.015625)"/>
       </defs>
       <use xlink:href="#DejaVuSans-32"/>
      </g>
     </g>
    </g>
    <g id="xtick_3">
     <g id="line2d_4">
      <g>
       <use xlink:href="#mbdcf41975c" x="246.554859" y="192.24" style="stroke: #000000; stroke-width: 0.8"/>
      </g>
     </g>
     <g id="text_3">
      <!-- 4 -->
      <g transform="translate(243.373609 206.838437) scale(0.1 -0.1)">
       <defs>
        <path id="DejaVuSans-34" d="M 2419 4116 
L 825 1625 
L 2419 1625 
L 2419 4116 
z
M 2253 4666 
L 3047 4666 
L 3047 1625 
L 3713 1625 
L 3713 1100 
L 3047 1100 
L 3047 0 
L 2419 0 
L 2419 1100 
L 313 1100 
L 313 1709 
L 2253 4666 
z
" transform="scale(0.015625)"/>
       </defs>
       <use xlink:href="#DejaVuSans-34"/>
      </g>
     </g>
    </g>
    <g id="xtick_4">
     <g id="line2d_5">
      <g>
       <use xlink:href="#mbdcf41975c" x="316.523511" y="192.24" style="stroke: #000000; stroke-width: 0.8"/>
      </g>
     </g>
     <g id="text_4">
      <!-- 6 -->
      <g transform="translate(313.342261 206.838437) scale(0.1 -0.1)">
       <defs>
        <path id="DejaVuSans-36" d="M 2113 2584 
Q 1688 2584 1439 2293 
Q 1191 2003 1191 1497 
Q 1191 994 1439 701 
Q 1688 409 2113 409 
Q 2538 409 2786 701 
Q 3034 994 3034 1497 
Q 3034 2003 2786 2293 
Q 2538 2584 2113 2584 
z
M 3366 4563 
L 3366 3988 
Q 3128 4100 2886 4159 
Q 2644 4219 2406 4219 
Q 1781 4219 1451 3797 
Q 1122 3375 1075 2522 
Q 1259 2794 1537 2939 
Q 1816 3084 2150 3084 
Q 2853 3084 3261 2657 
Q 3669 2231 3669 1497 
Q 3669 778 3244 343 
Q 2819 -91 2113 -91 
Q 1303 -91 875 529 
Q 447 1150 447 2328 
Q 447 3434 972 4092 
Q 1497 4750 2381 4750 
Q 2619 4750 2861 4703 
Q 3103 4656 3366 4563 
z
" transform="scale(0.015625)"/>
       </defs>
       <use xlink:href="#DejaVuSans-36"/>
      </g>
     </g>
    </g>
    <g id="xtick_5">
     <g id="line2d_6">
      <g>
       <use xlink:href="#mbdcf41975c" x="386.492163" y="192.24" style="stroke: #000000; stroke-width: 0.8"/>
      </g>
     </g>
     <g id="text_5">
      <!-- 8 -->
      <g transform="translate(383.310913 206.838437) scale(0.1 -0.1)">
       <defs>
        <path id="DejaVuSans-38" d="M 2034 2216 
Q 1584 2216 1326 1975 
Q 1069 1734 1069 1313 
Q 1069 891 1326 650 
Q 1584 409 2034 409 
Q 2484 409 2743 651 
Q 3003 894 3003 1313 
Q 3003 1734 2745 1975 
Q 2488 2216 2034 2216 
z
M 1403 2484 
Q 997 2584 770 2862 
Q 544 3141 544 3541 
Q 544 4100 942 4425 
Q 1341 4750 2034 4750 
Q 2731 4750 3128 4425 
Q 3525 4100 3525 3541 
Q 3525 3141 3298 2862 
Q 3072 2584 2669 2484 
Q 3125 2378 3379 2068 
Q 3634 1759 3634 1313 
Q 3634 634 3220 271 
Q 2806 -91 2034 -91 
Q 1263 -91 848 271 
Q 434 634 434 1313 
Q 434 1759 690 2068 
Q 947 2378 1403 2484 
z
M 1172 3481 
Q 1172 3119 1398 2916 
Q 1625 2713 2034 2713 
Q 2441 2713 2670 2916 
Q 2900 3119 2900 3481 
Q 2900 3844 2670 4047 
Q 2441 4250 2034 4250 
Q 1625 4250 1398 4047 
Q 1172 3844 1172 3481 
z
" transform="scale(0.015625)"/>
       </defs>
       <use xlink:href="#DejaVuSans-38"/>
      </g>
     </g>
    </g>
    <g id="xtick_6">
     <g id="line2d_7">
      <g>
       <use xlink:href="#mbdcf41975c" x="456.460815" y="192.24" style="stroke: #000000; stroke-width: 0.8"/>
      </g>
     </g>
     <g id="text_6">
      <!-- 10 -->
      <g transform="translate(450.098315 206.838437) scale(0.1 -0.1)">
       <defs>
        <path id="DejaVuSans-31" d="M 794 531 
L 1825 531 
L 1825 4091 
L 703 3866 
L 703 4441 
L 1819 4666 
L 2450 4666 
L 2450 531 
L 3481 531 
L 3481 0 
L 794 0 
L 794 531 
z
" transform="scale(0.015625)"/>
       </defs>
       <use xlink:href="#DejaVuSans-31"/>
       <use xlink:href="#DejaVuSans-30" x="63.623047"/>
      </g>
     </g>
    </g>
    <g id="xtick_7">
     <g id="line2d_8">
      <g>
       <use xlink:href="#mbdcf41975c" x="526.429467" y="192.24" style="stroke: #000000; stroke-width: 0.8"/>
      </g>
     </g>
     <g id="text_7">
      <!-- 12 -->
      <g transform="translate(520.066967 206.838437) scale(0.1 -0.1)">
       <use xlink:href="#DejaVuSans-31"/>
       <use xlink:href="#DejaVuSans-32" x="63.623047"/>
      </g>
     </g>
    </g>
    <g id="xtick_8">
     <g id="line2d_9">
      <g>
       <use xlink:href="#mbdcf41975c" x="596.398119" y="192.24" style="stroke: #000000; stroke-width: 0.8"/>
      </g>
     </g>
     <g id="text_8">
      <!-- 14 -->
      <g transform="translate(590.035619 206.838437) scale(0.1 -0.1)">
       <use xlink:href="#DejaVuSans-31"/>
       <use xlink:href="#DejaVuSans-34" x="63.623047"/>
      </g>
     </g>
    </g>
   </g>
   <g id="matplotlib.axis_2">
    <g id="ytick_1">
     <g id="line2d_10">
      <defs>
       <path id="m96a16a4da1" d="M 0 0 
L -3.5 0 
" style="stroke: #000000; stroke-width: 0.8"/>
      </defs>
      <g>
       <use xlink:href="#m96a16a4da1" x="90" y="192.24" style="stroke: #000000; stroke-width: 0.8"/>
      </g>
     </g>
     <g id="text_9">
      <!-- 0.0 -->
      <g transform="translate(67.096875 196.039219) scale(0.1 -0.1)">
       <defs>
        <path id="DejaVuSans-2e" d="M 684 794 
L 1344 794 
L 1344 0 
L 684 0 
L 684 794 
z
" transform="scale(0.015625)"/>
       </defs>
       <use xlink:href="#DejaVuSans-30"/>
       <use xlink:href="#DejaVuSans-2e" x="63.623047"/>
       <use xlink:href="#DejaVuSans-30" x="95.410156"/>
      </g>
     </g>
    </g>
    <g id="ytick_2">
     <g id="line2d_11">
      <g>
       <use xlink:href="#m96a16a4da1" x="90" y="170.396514" style="stroke: #000000; stroke-width: 0.8"/>
      </g>
     </g>
     <g id="text_10">
      <!-- 0.2 -->
      <g transform="translate(67.096875 174.195732) scale(0.1 -0.1)">
       <use xlink:href="#DejaVuSans-30"/>
       <use xlink:href="#DejaVuSans-2e" x="63.623047"/>
       <use xlink:href="#DejaVuSans-32" x="95.410156"/>
      </g>
     </g>
    </g>
    <g id="ytick_3">
     <g id="line2d_12">
      <g>
       <use xlink:href="#m96a16a4da1" x="90" y="148.553027" style="stroke: #000000; stroke-width: 0.8"/>
      </g>
     </g>
     <g id="text_11">
      <!-- 0.4 -->
      <g transform="translate(67.096875 152.352246) scale(0.1 -0.1)">
       <use xlink:href="#DejaVuSans-30"/>
       <use xlink:href="#DejaVuSans-2e" x="63.623047"/>
       <use xlink:href="#DejaVuSans-34" x="95.410156"/>
      </g>
     </g>
    </g>
    <g id="ytick_4">
     <g id="line2d_13">
      <g>
       <use xlink:href="#m96a16a4da1" x="90" y="126.709541" style="stroke: #000000; stroke-width: 0.8"/>
      </g>
     </g>
     <g id="text_12">
      <!-- 0.6 -->
      <g transform="translate(67.096875 130.508759) scale(0.1 -0.1)">
       <use xlink:href="#DejaVuSans-30"/>
       <use xlink:href="#DejaVuSans-2e" x="63.623047"/>
       <use xlink:href="#DejaVuSans-36" x="95.410156"/>
      </g>
     </g>
    </g>
    <g id="ytick_5">
     <g id="line2d_14">
      <g>
       <use xlink:href="#m96a16a4da1" x="90" y="104.866054" style="stroke: #000000; stroke-width: 0.8"/>
      </g>
     </g>
     <g id="text_13">
      <!-- 0.8 -->
      <g transform="translate(67.096875 108.665273) scale(0.1 -0.1)">
       <use xlink:href="#DejaVuSans-30"/>
       <use xlink:href="#DejaVuSans-2e" x="63.623047"/>
       <use xlink:href="#DejaVuSans-38" x="95.410156"/>
      </g>
     </g>
    </g>
    <g id="ytick_6">
     <g id="line2d_15">
      <g>
       <use xlink:href="#m96a16a4da1" x="90" y="83.022568" style="stroke: #000000; stroke-width: 0.8"/>
      </g>
     </g>
     <g id="text_14">
      <!-- 1.0 -->
      <g transform="translate(67.096875 86.821786) scale(0.1 -0.1)">
       <use xlink:href="#DejaVuSans-31"/>
       <use xlink:href="#DejaVuSans-2e" x="63.623047"/>
       <use xlink:href="#DejaVuSans-30" x="95.410156"/>
      </g>
     </g>
    </g>
    <g id="ytick_7">
     <g id="line2d_16">
      <g>
       <use xlink:href="#m96a16a4da1" x="90" y="61.179081" style="stroke: #000000; stroke-width: 0.8"/>
      </g>
     </g>
     <g id="text_15">
      <!-- 1.2 -->
      <g transform="translate(67.096875 64.9783) scale(0.1 -0.1)">
       <use xlink:href="#DejaVuSans-31"/>
       <use xlink:href="#DejaVuSans-2e" x="63.623047"/>
       <use xlink:href="#DejaVuSans-32" x="95.410156"/>
      </g>
     </g>
    </g>
    <g id="ytick_8">
     <g id="line2d_17">
      <g>
       <use xlink:href="#m96a16a4da1" x="90" y="39.335595" style="stroke: #000000; stroke-width: 0.8"/>
      </g>
     </g>
     <g id="text_16">
      <!-- 1.4 -->
      <g transform="translate(67.096875 43.134813) scale(0.1 -0.1)">
       <use xlink:href="#DejaVuSans-31"/>
       <use xlink:href="#DejaVuSans-2e" x="63.623047"/>
       <use xlink:href="#DejaVuSans-34" x="95.410156"/>
      </g>
     </g>
    </g>
   </g>
  </g>
 </g>
 <defs>
  <clipPath id="p0937ced4f9">
   <rect x="90" y="25.92" width="558" height="166.32"/>
  </clipPath>
 </defs>
</svg>
