<?xml version="1.0" encoding="utf-8" standalone="no"?>
<!DOCTYPE svg PUBLIC "-//W3C//DTD SVG 1.1//EN"
  "http://www.w3.org/Graphics/SVG/1.1/DTD/svg11.dtd">
<svg xmlns:xlink="http://www.w3.org/1999/xlink" width="720pt" height="216pt" viewBox="0 0 720 216" xmlns="http://www.w3.org/2000/svg" version="1.1">
 <metadata>
  <rdf:RDF xmlns:dc="http://purl.org/dc/elements/1.1/" xmlns:cc="http://creativecommons.org/ns#" xmlns:rdf="http://www.w3.org/1999/02/22-rdf-syntax-ns#">
   <cc:Work>
    <dc:type rdf:resource="http://purl.org/dc/dcmitype/StillImage"/>
    <dc:date>2025-12-17T10:22:18.862543</dc:date>
    <dc:format>image/svg+xml</dc:format>
    <dc:creator>
     <cc:Agent>
      <dc:title>Matplotlib v3.8.2, https://matplotlib.org/</dc:title>
     </cc:Agent>
    </dc:creator>
   </cc:Work>
  </rdf:RDF>
 </metadata>
 <defs>
  <style type="text/css">*{stroke-linejoin: round; stroke-linecap: butt}</style>
 </defs>
 <g id="figure_1">
  <g id="patch_1">
   <path d="M 0 216 
L 720 216 
L 720 0 
L 0 0 
z
" style="fill: #ffffff"/>
  </g>
  <g id="axes_1">
   <g id="patch_2">
    <path d="M 90 192.24 
L 648 192.24 
L 648 25.92 
L 90 25.92 
z
" style="fill: #ffffff"/>
   </g>
   <g id="line2d_1">
    <path d="M 90 192.24 
L 648 192.24 
" clip-path="url(#p9a40cb3831)" style="fill: none; stroke: #000000; stroke-width: 0.5; stroke-linecap: square"/>
   </g>
   <g id="patch_3">
    <path d="M 112.133612 191.766948 
Q 109.901401 192.003474 107.500534 192.122277 
Q 105.099667 192.24 102.540065 192.24 
Q 96.756158 192.24 93.378079 191.535823 
Q 90 190.831645 90 189.627415 
Q 90 188.409145 93.437605 187.710368 
Q 96.88017 187.01159 102.867456 187.01159 
Q 105.174074 187.01159 107.287234 187.106633 
Q 109.405354 187.200595 111.280411 187.38636 
L 111.280411 188.428586 
Q 109.345828 188.1899 107.431087 188.072177 
Q 105.516346 187.953374 103.591684 187.953374 
Q 100.030068 187.953374 98.100446 188.387545 
Q 96.170823 188.820635 96.170823 189.627415 
Q 96.170823 190.426635 98.030999 190.862966 
Q 99.891175 191.298217 103.313898 191.298217 
Q 104.246466 191.298217 105.045102 191.273376 
Q 105.843737 191.247455 106.478677 191.193454 
L 106.478677 190.21495 
L 102.832733 190.21495 
L 102.832733 189.343368 
L 112.133612 189.343368 
L 112.133612 191.766948 
z
" clip-path="url(#p9a40cb3831)" style="fill: #ffa600"/>
   </g>
   <g id="patch_4">
    <path d="M 112.133612 186.589975 
Q 110.282173 186.79896 108.280166 186.904668 
Q 106.278159 187.01159 104.0977 187.01159 
Q 97.595359 187.01159 93.797679 186.219391 
Q 90 185.427191 90 184.072433 
Q 90 182.712814 93.797679 181.921829 
Q 97.595359 181.12963 104.0977 181.12963 
Q 106.278159 181.12963 108.280166 181.236552 
Q 110.282173 181.34226 112.133612 181.551245 
L 112.133612 182.723749 
Q 110.265443 182.446722 108.453041 182.317929 
Q 106.640639 182.189136 104.638632 182.189136 
Q 101.047288 182.189136 98.989514 182.690943 
Q 96.937317 183.191536 96.937317 184.072433 
Q 96.937317 184.949684 98.989514 185.451492 
Q 101.047288 185.952084 104.638632 185.952084 
Q 106.640639 185.952084 108.453041 185.823291 
Q 110.265443 185.693283 112.133612 185.416256 
L 112.133612 186.589975 
z
" clip-path="url(#p9a40cb3831)" style="fill: #0000ff"/>
   </g>
   <g id="patch_5">
    <path d="M 105.331972 179.939063 
L 96.819741 179.939063 
L 95.475704 181.12963 
L 90 181.12963 
L 97.819849 174.594118 
L 104.313763 174.594118 
L 112.133612 181.12963 
L 106.662433 181.12963 
L 105.331972 179.939063 
z
M 98.177354 178.726085 
L 103.960783 178.726085 
L 101.073594 176.126447 
L 98.177354 178.726085 
z
" clip-path="url(#p9a40cb3831)" style="fill: #008000"/>
   </g>
   <g id="patch_6">
    <path d="M 90 152.653471 
L 112.133612 152.653471 
L 112.133612 156.932508 
L 104.170659 156.932508 
L 104.170659 174.594118 
L 97.978395 174.594118 
L 97.978395 156.932508 
L 90 156.932508 
L 90 152.653471 
z
" clip-path="url(#p9a40cb3831)" style="fill: #ff0000"/>
   </g>
   <g id="patch_7">
    <path d="M 135.43215 191.946646 
Q 133.580712 192.092055 131.578705 192.165605 
Q 129.576697 192.24 127.396238 192.24 
Q 120.893897 192.24 117.096218 191.688799 
Q 113.298539 191.137598 113.298539 190.194977 
Q 113.298539 189.248974 117.096218 188.698618 
Q 120.893897 188.147418 127.396238 188.147418 
Q 129.576697 188.147418 131.578705 188.221813 
Q 133.580712 188.295363 135.43215 188.440771 
L 135.43215 189.256583 
Q 133.563982 189.063831 131.75158 188.974219 
Q 129.939178 188.884607 127.937171 188.884607 
Q 124.345826 188.884607 122.288053 189.233757 
Q 120.235856 189.582062 120.235856 190.194977 
Q 120.235856 190.805356 122.288053 191.154506 
Q 124.345826 191.502811 127.937171 191.502811 
Q 129.939178 191.502811 131.75158 191.413199 
Q 133.563982 191.322741 135.43215 191.12999 
L 135.43215 191.946646 
z
" clip-path="url(#p9a40cb3831)" style="fill: #0000ff"/>
   </g>
   <g id="patch_8">
    <path d="M 135.43215 187.530275 
Q 133.199939 187.838846 130.799072 187.993837 
Q 128.398206 188.147418 125.838604 188.147418 
Q 120.054697 188.147418 116.676618 187.228749 
Q 113.298539 186.310081 113.298539 184.739046 
Q 113.298539 183.149693 116.736143 182.23807 
Q 120.178709 181.326447 126.165995 181.326447 
Q 128.472613 181.326447 130.585772 181.450439 
Q 132.703892 181.573022 134.57895 181.81537 
L 134.57895 183.175055 
Q 132.644367 182.863666 130.729626 182.710085 
Q 128.814885 182.555095 126.890223 182.555095 
Q 123.328606 182.555095 121.398984 183.121513 
Q 119.469362 183.686522 119.469362 184.739046 
Q 119.469362 185.781706 121.329538 186.350942 
Q 123.189713 186.918769 126.612437 186.918769 
Q 127.545005 186.918769 128.34364 186.886362 
Q 129.142276 186.852546 129.777216 186.782096 
L 129.777216 185.505542 
L 126.131271 185.505542 
L 126.131271 184.368479 
L 135.43215 184.368479 
L 135.43215 187.530275 
z
" clip-path="url(#p9a40cb3831)" style="fill: #ffa600"/>
   </g>
   <g id="patch_9">
    <path d="M 128.630511 179.94187 
L 120.11828 179.94187 
L 118.774243 181.326447 
L 113.298539 181.326447 
L 121.118388 173.725937 
L 127.612301 173.725937 
L 135.43215 181.326447 
L 129.960971 181.326447 
L 128.630511 179.94187 
z
M 121.475892 178.531231 
L 127.259322 178.531231 
L 124.372133 175.507968 
L 121.475892 178.531231 
z
" clip-path="url(#p9a40cb3831)" style="fill: #008000"/>
   </g>
   <g id="patch_10">
    <path d="M 113.298539 150.924406 
L 135.43215 150.924406 
L 135.43215 155.37134 
L 127.469197 155.37134 
L 127.469197 173.725937 
L 121.276934 173.725937 
L 121.276934 155.37134 
L 113.298539 155.37134 
L 113.298539 150.924406 
z
" clip-path="url(#p9a40cb3831)" style="fill: #ff0000"/>
   </g>
   <g id="patch_11">
    <path d="M 158.730689 192.103479 
Q 156.879251 192.17115 154.877243 192.205378 
Q 152.875236 192.24 150.694777 192.24 
Q 144.192436 192.24 140.394757 191.983483 
Q 136.597077 191.726966 136.597077 191.288291 
Q 136.597077 190.848042 140.394757 190.591918 
Q 144.192436 190.335401 150.694777 190.335401 
Q 152.875236 190.335401 154.877243 190.370023 
Q 156.879251 190.404252 158.730689 190.471922 
L 158.730689 190.851582 
Q 156.862521 190.76188 155.050119 190.720177 
Q 153.237717 190.678473 151.235709 190.678473 
Q 147.644365 190.678473 145.586591 190.84096 
Q 143.534395 191.003053 143.534395 191.288291 
Q 143.534395 191.572348 145.586591 191.734835 
Q 147.644365 191.896928 151.235709 191.896928 
Q 153.237717 191.896928 155.050119 191.855225 
Q 156.862521 191.813128 158.730689 191.723425 
L 158.730689 192.103479 
z
" clip-path="url(#p9a40cb3831)" style="fill: #0000ff"/>
   </g>
   <g id="patch_12">
    <path d="M 158.730689 189.773479 
Q 156.498478 190.05444 154.097611 190.195562 
Q 151.696744 190.335401 149.137142 190.335401 
Q 143.353236 190.335401 139.975156 189.498933 
Q 136.597077 188.662465 136.597077 187.232001 
Q 136.597077 185.78486 140.034682 184.954806 
Q 143.477247 184.124753 149.464533 184.124753 
Q 151.771151 184.124753 153.884311 184.23765 
Q 156.002431 184.349265 157.877488 184.569928 
L 157.877488 185.807953 
Q 155.942905 185.524426 154.028165 185.384587 
Q 152.113424 185.243465 150.188762 185.243465 
Q 146.627145 185.243465 144.697523 185.759201 
Q 142.7679 186.273655 142.7679 187.232001 
Q 142.7679 188.181367 144.628076 188.69967 
Q 146.488252 189.216689 149.910975 189.216689 
Q 150.843544 189.216689 151.642179 189.187182 
Q 152.440815 189.156391 153.075755 189.092245 
L 153.075755 187.929914 
L 149.42981 187.929914 
L 149.42981 186.894592 
L 158.730689 186.894592 
L 158.730689 189.773479 
z
" clip-path="url(#p9a40cb3831)" style="fill: #ffa600"/>
   </g>
   <g id="patch_13">
    <path d="M 151.92905 181.756383 
L 143.416818 181.756383 
L 142.072782 184.124753 
L 136.597077 184.124753 
L 144.416926 171.123796 
L 150.91084 171.123796 
L 158.730689 184.124753 
L 153.25951 184.124753 
L 151.92905 181.756383 
z
M 144.774431 179.343432 
L 150.557861 179.343432 
L 147.670671 174.172027 
L 144.774431 179.343432 
z
" clip-path="url(#p9a40cb3831)" style="fill: #008000"/>
   </g>
   <g id="patch_14">
    <path d="M 136.597077 157.129135 
L 158.730689 157.129135 
L 158.730689 159.858483 
L 150.767736 159.858483 
L 150.767736 171.123796 
L 144.575472 171.123796 
L 144.575472 159.858483 
L 136.597077 159.858483 
L 136.597077 157.129135 
z
" clip-path="url(#p9a40cb3831)" style="fill: #ff0000"/>
   </g>
   <g id="patch_15">
    <path d="M 182.029228 192.108002 
Q 180.177789 192.17343 178.175782 192.206525 
Q 176.173775 192.24 173.993316 192.24 
Q 167.490975 192.24 163.693295 191.991981 
Q 159.895616 191.743962 159.895616 191.319819 
Q 159.895616 190.894155 163.693295 190.646516 
Q 167.490975 190.398497 173.993316 190.398497 
Q 176.173775 190.398497 178.175782 190.431972 
Q 180.177789 190.465066 182.029228 190.530495 
L 182.029228 190.897578 
Q 180.161059 190.810848 178.348657 190.770525 
Q 176.536255 190.730203 174.534248 190.730203 
Q 170.942904 190.730203 168.88513 190.887307 
Q 166.832933 191.044031 166.832933 191.319819 
Q 166.832933 191.594466 168.88513 191.75157 
Q 170.942904 191.908294 174.534248 191.908294 
Q 176.536255 191.908294 178.348657 191.867971 
Q 180.161059 191.827269 182.029228 191.740538 
L 182.029228 192.108002 
z
" clip-path="url(#p9a40cb3831)" style="fill: #0000ff"/>
   </g>
   <g id="patch_16">
    <path d="M 175.227588 189.931243 
L 166.715357 189.931243 
L 165.37132 190.398497 
L 159.895616 190.398497 
L 167.715465 187.833546 
L 174.209379 187.833546 
L 182.029228 190.398497 
L 176.558049 190.398497 
L 175.227588 189.931243 
z
M 168.072969 189.455193 
L 173.856399 189.455193 
L 170.96921 188.43493 
L 168.072969 189.455193 
z
" clip-path="url(#p9a40cb3831)" style="fill: #008000"/>
   </g>
   <g id="patch_17">
    <path d="M 159.895616 183.295556 
L 182.029228 183.295556 
L 182.029228 184.180591 
L 174.066275 184.180591 
L 174.066275 187.833546 
L 167.874011 187.833546 
L 167.874011 184.180591 
L 159.895616 184.180591 
L 159.895616 183.295556 
z
" clip-path="url(#p9a40cb3831)" style="fill: #ff0000"/>
   </g>
   <g id="patch_18">
    <path d="M 182.029228 182.843318 
Q 179.797017 183.069437 177.39615 183.183013 
Q 174.995283 183.295556 172.435681 183.295556 
Q 166.651774 183.295556 163.273695 182.622362 
Q 159.895616 181.949167 159.895616 180.797922 
Q 159.895616 179.633255 163.333221 178.965223 
Q 166.775786 178.297191 172.763072 178.297191 
Q 175.06969 178.297191 177.18285 178.388051 
Q 179.30097 178.477879 181.176027 178.655471 
L 181.176027 179.65184 
Q 179.241444 179.423656 177.326703 179.311112 
Q 175.411962 179.197537 173.4873 179.197537 
Q 169.925684 179.197537 167.996061 179.612604 
Q 166.066439 180.02664 166.066439 180.797922 
Q 166.066439 181.561977 167.926615 181.97911 
Q 169.786791 182.39521 173.209514 182.39521 
Q 174.142082 182.39521 174.940718 182.371463 
Q 175.739353 182.346682 176.374293 182.295057 
L 176.374293 181.359606 
L 172.728349 181.359606 
L 172.728349 180.526373 
L 182.029228 180.526373 
L 182.029228 182.843318 
z
" clip-path="url(#p9a40cb3831)" style="fill: #ffa600"/>
   </g>
   <g id="patch_19">
    <path d="M 205.327766 191.85058 
Q 203.476328 192.043607 201.474321 192.141242 
Q 199.472313 192.24 197.291854 192.24 
Q 190.789513 192.24 186.991834 191.508295 
Q 183.194154 190.77659 183.194154 189.525284 
Q 183.194154 188.269489 186.991834 187.538906 
Q 190.789513 186.807201 197.291854 186.807201 
Q 199.472313 186.807201 201.474321 186.905959 
Q 203.476328 187.003594 205.327766 187.196621 
L 205.327766 188.279589 
Q 203.459598 188.023717 201.647196 187.904759 
Q 199.834794 187.785801 197.832787 187.785801 
Q 194.241442 187.785801 192.183669 188.249289 
Q 190.131472 188.711655 190.131472 189.525284 
Q 190.131472 190.335546 192.183669 190.799035 
Q 194.241442 191.2614 197.832787 191.2614 
Q 199.834794 191.2614 201.647196 191.142442 
Q 203.459598 191.022362 205.327766 190.766489 
L 205.327766 191.85058 
z
" clip-path="url(#p9a40cb3831)" style="fill: #0000ff"/>
   </g>
   <g id="patch_20">
    <path d="M 205.327766 186.081588 
Q 203.095555 186.444394 200.694688 186.626626 
Q 198.293821 186.807201 195.73422 186.807201 
Q 189.950313 186.807201 186.572234 185.727065 
Q 183.194154 184.646928 183.194154 182.799763 
Q 183.194154 180.931061 186.631759 179.859208 
Q 190.074325 178.787355 196.061611 178.787355 
Q 198.368228 178.787355 200.481388 178.93314 
Q 202.599508 179.077269 204.474566 179.362213 
L 204.474566 180.960881 
Q 202.539983 180.594761 200.625242 180.414186 
Q 198.710501 180.231954 196.785839 180.231954 
Q 193.224222 180.231954 191.2946 180.897928 
Q 189.364978 181.562245 189.364978 182.799763 
Q 189.364978 184.025684 191.225153 184.694971 
Q 193.085329 185.362602 196.508053 185.362602 
Q 197.440621 185.362602 198.239256 185.324499 
Q 199.037892 185.284739 199.672832 185.201906 
L 199.672832 183.700981 
L 196.026887 183.700981 
L 196.026887 182.364064 
L 205.327766 182.364064 
L 205.327766 186.081588 
z
" clip-path="url(#p9a40cb3831)" style="fill: #ffa600"/>
   </g>
   <g id="patch_21">
    <path d="M 198.526127 176.430957 
L 190.013895 176.430957 
L 188.669859 178.787355 
L 183.194154 178.787355 
L 191.014003 165.852119 
L 197.507917 165.852119 
L 205.327766 178.787355 
L 199.856587 178.787355 
L 198.526127 176.430957 
z
M 191.371508 174.030204 
L 197.154938 174.030204 
L 194.267748 168.884941 
L 191.371508 174.030204 
z
" clip-path="url(#p9a40cb3831)" style="fill: #008000"/>
   </g>
   <g id="patch_22">
    <path d="M 183.194154 82.5492 
L 205.327766 82.5492 
L 205.327766 98.79559 
L 197.364813 98.79559 
L 197.364813 165.852119 
L 191.172549 165.852119 
L 191.172549 98.79559 
L 183.194154 98.79559 
L 183.194154 82.5492 
z
" clip-path="url(#p9a40cb3831)" style="fill: #ff0000"/>
   </g>
   <g id="patch_23">
    <path d="M 221.824665 191.479612 
L 213.312434 191.479612 
L 211.968397 192.24 
L 206.492693 192.24 
L 214.312542 188.065918 
L 220.806456 188.065918 
L 228.626305 192.24 
L 223.155126 192.24 
L 221.824665 191.479612 
z
M 214.670047 190.704911 
L 220.453477 190.704911 
L 217.566287 189.044582 
L 214.670047 190.704911 
z
" clip-path="url(#p9a40cb3831)" style="fill: #008000"/>
   </g>
   <g id="patch_24">
    <path d="M 228.626305 187.46869 
Q 226.394094 187.767304 223.993227 187.917293 
Q 221.59236 188.065918 219.032758 188.065918 
Q 213.248852 188.065918 209.870772 187.176893 
Q 206.492693 186.287869 206.492693 184.767527 
Q 206.492693 183.229459 209.930298 182.347252 
Q 213.372863 181.465045 219.360149 181.465045 
Q 221.666767 181.465045 223.779927 181.585036 
Q 225.898047 181.703664 227.773104 181.938192 
L 227.773104 183.254003 
Q 225.838521 182.952662 223.92378 182.804036 
Q 222.009039 182.654048 220.084378 182.654048 
Q 216.522761 182.654048 214.593139 183.202189 
Q 212.663516 183.748966 212.663516 184.767527 
Q 212.663516 185.776543 214.523692 186.327411 
Q 216.383868 186.876916 219.806591 186.876916 
Q 220.739159 186.876916 221.537795 186.845554 
Q 222.33643 186.81283 222.97137 186.744653 
L 222.97137 185.50929 
L 219.325426 185.50929 
L 219.325426 184.408917 
L 228.626305 184.408917 
L 228.626305 187.46869 
z
" clip-path="url(#p9a40cb3831)" style="fill: #ffa600"/>
   </g>
   <g id="patch_25">
    <path d="M 228.626305 180.91536 
Q 226.774866 181.187826 224.772859 181.325644 
Q 222.770852 181.465045 220.590393 181.465045 
Q 214.088052 181.465045 210.290373 180.432207 
Q 206.492693 179.39937 206.492693 177.63309 
Q 206.492693 175.860475 210.290373 174.829221 
Q 214.088052 173.796383 220.590393 173.796383 
Q 222.770852 173.796383 224.772859 173.935785 
Q 226.774866 174.073602 228.626305 174.346068 
L 228.626305 175.874732 
Q 226.758137 175.513555 224.945734 175.34564 
Q 223.133332 175.177725 221.131325 175.177725 
Q 217.539981 175.177725 215.482207 175.831961 
Q 213.430011 176.484613 213.430011 177.63309 
Q 213.430011 178.776816 215.482207 179.431052 
Q 217.539981 180.083704 221.131325 180.083704 
Q 223.133332 180.083704 224.945734 179.915788 
Q 226.758137 179.746289 228.626305 179.385113 
L 228.626305 180.91536 
z
" clip-path="url(#p9a40cb3831)" style="fill: #0000ff"/>
   </g>
   <g id="patch_26">
    <path d="M 206.492693 151.081613 
L 228.626305 151.081613 
L 228.626305 155.511626 
L 220.663352 155.511626 
L 220.663352 173.796383 
L 214.471088 173.796383 
L 214.471088 155.511626 
L 206.492693 155.511626 
L 206.492693 151.081613 
z
" clip-path="url(#p9a40cb3831)" style="fill: #ff0000"/>
   </g>
   <g id="patch_27">
    <path d="M 251.924843 191.968392 
Q 250.073405 192.103022 248.071398 192.17112 
Q 246.069391 192.24 243.888931 192.24 
Q 237.386591 192.24 233.588911 191.729659 
Q 229.791232 191.219317 229.791232 190.346571 
Q 229.791232 189.470694 233.588911 188.961135 
Q 237.386591 188.450794 243.888931 188.450794 
Q 246.069391 188.450794 248.071398 188.519674 
Q 250.073405 188.587772 251.924843 188.722402 
L 251.924843 189.477738 
Q 250.056675 189.299275 248.244273 189.216306 
Q 246.431871 189.133336 244.429864 189.133336 
Q 240.838519 189.133336 238.780746 189.456605 
Q 236.728549 189.77909 236.728549 190.346571 
Q 236.728549 190.911704 238.780746 191.234972 
Q 240.838519 191.557458 244.429864 191.557458 
Q 246.431871 191.557458 248.244273 191.474488 
Q 250.056675 191.390736 251.924843 191.212273 
L 251.924843 191.968392 
z
" clip-path="url(#p9a40cb3831)" style="fill: #0000ff"/>
   </g>
   <g id="patch_28">
    <path d="M 229.791232 181.955012 
L 251.924843 181.955012 
L 251.924843 183.22187 
L 243.961891 183.22187 
L 243.961891 188.450794 
L 237.769627 188.450794 
L 237.769627 183.22187 
L 229.791232 183.22187 
L 229.791232 181.955012 
z
" clip-path="url(#p9a40cb3831)" style="fill: #ff0000"/>
   </g>
   <g id="patch_29">
    <path d="M 245.123204 178.832337 
L 236.610973 178.832337 
L 235.266936 181.955012 
L 229.791232 181.955012 
L 237.611081 164.813365 
L 244.104995 164.813365 
L 251.924843 181.955012 
L 246.453664 181.955012 
L 245.123204 178.832337 
z
M 237.968585 175.650883 
L 243.752015 175.650883 
L 240.864826 168.832431 
L 237.968585 175.650883 
z
" clip-path="url(#p9a40cb3831)" style="fill: #008000"/>
   </g>
   <g id="patch_30">
    <path d="M 251.924843 160.372814 
Q 249.692632 162.593089 247.291766 163.708296 
Q 244.890899 164.813365 242.331297 164.813365 
Q 236.54739 164.813365 233.169311 158.203229 
Q 229.791232 151.593094 229.791232 140.288951 
Q 229.791232 128.853011 233.228837 122.293567 
Q 236.671402 115.734123 242.658688 115.734123 
Q 244.965306 115.734123 247.078465 116.626288 
Q 249.196586 117.508316 251.071643 119.252094 
L 251.071643 129.0355 
Q 249.13706 126.794948 247.222319 125.689879 
Q 245.307578 124.574672 243.382916 124.574672 
Q 239.8213 124.574672 237.891677 128.650246 
Q 235.962055 132.715682 235.962055 140.288951 
Q 235.962055 147.791252 237.822231 151.887103 
Q 239.682406 155.972816 243.10513 155.972816 
Q 244.037698 155.972816 244.836334 155.739636 
Q 245.634969 155.496318 246.269909 154.989406 
L 246.269909 145.804156 
L 242.623964 145.804156 
L 242.623964 137.622593 
L 251.924843 137.622593 
L 251.924843 160.372814 
z
" clip-path="url(#p9a40cb3831)" style="fill: #ffa600"/>
   </g>
   <g id="patch_31">
    <path d="M 275.223382 191.711917 
Q 273.371944 191.973676 271.369936 192.106077 
Q 269.367929 192.24 267.18747 192.24 
Q 260.685129 192.24 256.88745 191.247752 
Q 253.08977 190.255503 253.08977 188.558637 
Q 253.08977 186.855683 256.88745 185.864956 
Q 260.685129 184.872708 267.18747 184.872708 
Q 269.367929 184.872708 271.369936 185.006631 
Q 273.371944 185.139032 275.223382 185.400791 
L 275.223382 186.869379 
Q 273.355214 186.522397 271.542812 186.36108 
Q 269.73041 186.199764 267.728402 186.199764 
Q 264.137058 186.199764 262.079285 186.828289 
Q 260.027088 187.455293 260.027088 188.558637 
Q 260.027088 189.657415 262.079285 190.28594 
Q 264.137058 190.912944 267.728402 190.912944 
Q 269.73041 190.912944 271.542812 190.751627 
Q 273.355214 190.588789 275.223382 190.241807 
L 275.223382 191.711917 
z
" clip-path="url(#p9a40cb3831)" style="fill: #0000ff"/>
   </g>
   <g id="patch_32">
    <path d="M 275.223382 184.053777 
Q 272.991171 184.463242 270.590304 184.66891 
Q 268.189437 184.872708 265.629835 184.872708 
Q 259.845929 184.872708 256.46785 183.65366 
Q 253.08977 182.434612 253.08977 180.34989 
Q 253.08977 178.240862 256.527375 177.031163 
Q 259.969941 175.821463 265.957226 175.821463 
Q 268.263844 175.821463 270.377004 175.985997 
Q 272.495124 176.148662 274.370181 176.470251 
L 274.370181 178.274517 
Q 272.435599 177.861312 270.520858 177.657514 
Q 268.606117 177.451846 266.681455 177.451846 
Q 263.119838 177.451846 261.190216 178.203468 
Q 259.260594 178.95322 259.260594 180.34989 
Q 259.260594 181.733472 261.120769 182.488833 
Q 262.980945 183.242325 266.403669 183.242325 
Q 267.336237 183.242325 268.134872 183.199321 
Q 268.933508 183.154448 269.568448 183.060963 
L 269.568448 181.36701 
L 265.922503 181.36701 
L 265.922503 179.858157 
L 275.223382 179.858157 
L 275.223382 184.053777 
z
" clip-path="url(#p9a40cb3831)" style="fill: #ffa600"/>
   </g>
   <g id="patch_33">
    <path d="M 253.08977 166.770218 
L 275.223382 166.770218 
L 275.223382 168.535463 
L 267.260429 168.535463 
L 267.260429 175.821463 
L 261.068165 175.821463 
L 261.068165 168.535463 
L 253.08977 168.535463 
L 253.08977 166.770218 
z
" clip-path="url(#p9a40cb3831)" style="fill: #ff0000"/>
   </g>
   <g id="patch_34">
    <path d="M 268.421743 155.151542 
L 259.909511 155.151542 
L 258.565475 166.770218 
L 253.08977 166.770218 
L 260.909619 102.990517 
L 267.403533 102.990517 
L 275.223382 166.770218 
L 269.752203 166.770218 
L 268.421743 155.151542 
z
M 261.267124 143.31416 
L 267.050554 143.31416 
L 264.163364 117.944438 
L 261.267124 143.31416 
z
" clip-path="url(#p9a40cb3831)" style="fill: #008000"/>
   </g>
   <g id="patch_35">
    <path d="M 291.720281 190.889668 
L 283.20805 190.889668 
L 281.864013 192.24 
L 276.388309 192.24 
L 284.208158 184.827473 
L 290.702072 184.827473 
L 298.521921 192.24 
L 293.050742 192.24 
L 291.720281 190.889668 
z
M 284.565663 189.513918 
L 290.349092 189.513918 
L 287.461903 186.565429 
L 284.565663 189.513918 
z
" clip-path="url(#p9a40cb3831)" style="fill: #008000"/>
   </g>
   <g id="patch_36">
    <path d="M 298.521921 184.296147 
Q 296.670482 184.559513 294.668475 184.692728 
Q 292.666468 184.827473 290.486009 184.827473 
Q 283.983668 184.827473 280.185988 183.829132 
Q 276.388309 182.830791 276.388309 181.123506 
Q 276.388309 179.410096 280.185988 178.413287 
Q 283.983668 177.414946 290.486009 177.414946 
Q 292.666468 177.414946 294.668475 177.549691 
Q 296.670482 177.682905 298.521921 177.946271 
L 298.521921 179.423877 
Q 296.653752 179.074764 294.84135 178.912457 
Q 293.028948 178.75015 291.026941 178.75015 
Q 287.435597 178.75015 285.377823 179.382535 
Q 283.325626 180.013388 283.325626 181.123506 
Q 283.325626 182.229031 285.377823 182.861415 
Q 287.435597 183.492269 291.026941 183.492269 
Q 293.028948 183.492269 294.84135 183.329962 
Q 296.653752 183.166124 298.521921 182.817011 
L 298.521921 184.296147 
z
" clip-path="url(#p9a40cb3831)" style="fill: #0000ff"/>
   </g>
   <g id="patch_37">
    <path d="M 298.521921 176.408949 
Q 296.28971 176.911947 293.888843 177.164595 
Q 291.487976 177.414946 288.928374 177.414946 
Q 283.144467 177.414946 279.766388 175.917435 
Q 276.388309 174.419924 276.388309 171.858996 
Q 276.388309 169.26821 279.825914 167.782182 
Q 283.268479 166.296155 289.255765 166.296155 
Q 291.562383 166.296155 293.675543 166.498273 
Q 295.793663 166.698095 297.66872 167.093144 
L 297.66872 169.309552 
Q 295.734137 168.80196 293.819396 168.551609 
Q 291.904655 168.298962 289.979993 168.298962 
Q 286.418377 168.298962 284.488754 169.222274 
Q 282.559132 170.143289 282.559132 171.858996 
Q 282.559132 173.558625 284.419308 174.486531 
Q 286.279484 175.41214 289.702207 175.41214 
Q 290.634775 175.41214 291.433411 175.359313 
Q 292.232046 175.30419 292.866986 175.18935 
L 292.866986 173.108453 
L 289.221042 173.108453 
L 289.221042 171.254938 
L 298.521921 171.254938 
L 298.521921 176.408949 
z
" clip-path="url(#p9a40cb3831)" style="fill: #ffa600"/>
   </g>
   <g id="patch_38">
    <path d="M 276.388309 94.024016 
L 298.521921 94.024016 
L 298.521921 108.119097 
L 290.558968 108.119097 
L 290.558968 166.296155 
L 284.366704 166.296155 
L 284.366704 108.119097 
L 276.388309 108.119097 
L 276.388309 94.024016 
z
" clip-path="url(#p9a40cb3831)" style="fill: #ff0000"/>
   </g>
   <g id="patch_39">
    <path d="M 321.820459 191.730974 
Q 319.588248 191.985487 317.187381 192.113325 
Q 314.786515 192.24 312.226913 192.24 
Q 306.443006 192.24 303.064927 191.482272 
Q 299.686848 190.724544 299.686848 189.428737 
Q 299.686848 188.117821 303.124452 187.365904 
Q 306.567018 186.613987 312.554304 186.613987 
Q 314.860922 186.613987 316.974081 186.716257 
Q 319.092201 186.817365 320.967259 187.017257 
L 320.967259 188.13874 
Q 319.032676 187.881903 317.117935 187.755228 
Q 315.203194 187.62739 313.278532 187.62739 
Q 309.716915 187.62739 307.787293 188.094578 
Q 305.857671 188.560604 305.857671 189.428737 
Q 305.857671 190.288735 307.717847 190.758247 
Q 309.578022 191.226597 313.000746 191.226597 
Q 313.933314 191.226597 314.731949 191.199868 
Q 315.530585 191.171976 316.165525 191.113868 
L 316.165525 190.060951 
L 312.51958 190.060951 
L 312.51958 189.123089 
L 321.820459 189.123089 
L 321.820459 191.730974 
z
" clip-path="url(#p9a40cb3831)" style="fill: #ffa600"/>
   </g>
   <g id="patch_40">
    <path d="M 315.01882 185.106804 
L 306.506589 185.106804 
L 305.162552 186.613987 
L 299.686848 186.613987 
L 307.506697 178.340439 
L 314.00061 178.340439 
L 321.820459 186.613987 
L 316.34928 186.613987 
L 315.01882 185.106804 
z
M 307.864201 183.571251 
L 313.647631 183.571251 
L 310.760442 180.280272 
L 307.864201 183.571251 
z
" clip-path="url(#p9a40cb3831)" style="fill: #008000"/>
   </g>
   <g id="patch_41">
    <path d="M 321.820459 177.628787 
Q 319.969021 177.981537 317.967014 178.159963 
Q 315.965006 178.340439 313.784547 178.340439 
Q 307.282206 178.340439 303.484527 177.003272 
Q 299.686848 175.666106 299.686848 173.379387 
Q 299.686848 171.084464 303.484527 169.749348 
Q 307.282206 168.412181 313.784547 168.412181 
Q 315.965006 168.412181 317.967014 168.592658 
Q 319.969021 168.771083 321.820459 169.123833 
L 321.820459 171.102922 
Q 319.952291 170.635324 318.139889 170.417931 
Q 316.327487 170.200539 314.32548 170.200539 
Q 310.734135 170.200539 308.676362 171.047548 
Q 306.624165 171.892506 306.624165 173.379387 
Q 306.624165 174.860114 308.676362 175.707123 
Q 310.734135 176.552081 314.32548 176.552081 
Q 316.327487 176.552081 318.139889 176.334689 
Q 319.952291 176.115246 321.820459 175.647648 
L 321.820459 177.628787 
z
" clip-path="url(#p9a40cb3831)" style="fill: #0000ff"/>
   </g>
   <g id="patch_42">
    <path d="M 299.686848 51.920623 
L 321.820459 51.920623 
L 321.820459 74.639723 
L 313.857506 74.639723 
L 313.857506 168.412181 
L 307.665243 168.412181 
L 307.665243 74.639723 
L 299.686848 74.639723 
L 299.686848 51.920623 
z
" clip-path="url(#p9a40cb3831)" style="fill: #ff0000"/>
   </g>
   <g id="patch_43">
    <path d="M 345.118998 191.818241 
Q 343.267559 192.027297 341.265552 192.133041 
Q 339.263545 192.24 337.083086 192.24 
Q 330.580745 192.24 326.783066 191.447531 
Q 322.985386 190.655062 322.985386 189.299842 
Q 322.985386 187.939761 326.783066 187.148507 
Q 330.580745 186.356038 337.083086 186.356038 
Q 339.263545 186.356038 341.265552 186.462997 
Q 343.267559 186.56874 345.118998 186.777797 
L 345.118998 187.9507 
Q 343.25083 187.673579 341.438428 187.544742 
Q 339.626025 187.415905 337.624018 187.415905 
Q 334.032674 187.415905 331.9749 187.917883 
Q 329.922704 188.418645 329.922704 189.299842 
Q 329.922704 190.177392 331.9749 190.67937 
Q 334.032674 191.180133 337.624018 191.180133 
Q 339.626025 191.180133 341.438428 191.051296 
Q 343.25083 190.921244 345.118998 190.644123 
L 345.118998 191.818241 
z
" clip-path="url(#p9a40cb3831)" style="fill: #0000ff"/>
   </g>
   <g id="patch_44">
    <path d="M 345.118998 185.752692 
Q 342.886787 186.054365 340.48592 186.20589 
Q 338.085053 186.356038 335.525451 186.356038 
Q 329.741545 186.356038 326.363465 185.457906 
Q 322.985386 184.559774 322.985386 183.023859 
Q 322.985386 181.470036 326.422991 180.578791 
Q 329.865556 179.687547 335.852842 179.687547 
Q 338.15946 179.687547 340.27262 179.808767 
Q 342.39074 179.92861 344.265797 180.165541 
L 344.265797 181.494831 
Q 342.331214 181.190403 340.416474 181.040255 
Q 338.501733 180.88873 336.577071 180.88873 
Q 333.015454 180.88873 331.085832 181.442486 
Q 329.156209 181.994864 329.156209 183.023859 
Q 329.156209 184.043211 331.016385 184.599722 
Q 332.876561 185.154855 336.299284 185.154855 
Q 337.231853 185.154855 338.030488 185.123173 
Q 338.829124 185.090113 339.464064 185.021238 
L 339.464064 183.77322 
L 335.818119 183.77322 
L 335.818119 182.661575 
L 345.118998 182.661575 
L 345.118998 185.752692 
z
" clip-path="url(#p9a40cb3831)" style="fill: #ffa600"/>
   </g>
   <g id="patch_45">
    <path d="M 338.317358 178.329839 
L 329.805127 178.329839 
L 328.461091 179.687547 
L 322.985386 179.687547 
L 330.805235 172.234528 
L 337.299149 172.234528 
L 345.118998 179.687547 
L 339.647819 179.687547 
L 338.317358 178.329839 
z
M 331.16274 176.946574 
L 336.94617 176.946574 
L 334.05898 173.981979 
L 331.16274 176.946574 
z
" clip-path="url(#p9a40cb3831)" style="fill: #008000"/>
   </g>
   <g id="patch_46">
    <path d="M 322.985386 25.92 
L 345.118998 25.92 
L 345.118998 54.45541 
L 337.156045 54.45541 
L 337.156045 172.234528 
L 330.963781 172.234528 
L 330.963781 54.45541 
L 322.985386 54.45541 
L 322.985386 25.92 
z
" clip-path="url(#p9a40cb3831)" style="fill: #ff0000"/>
   </g>
   <g id="patch_47">
    <path d="M 361.615897 191.999628 
L 353.103666 191.999628 
L 351.759629 192.24 
L 346.283925 192.24 
L 354.103774 190.920498 
L 360.597688 190.920498 
L 368.417537 192.24 
L 362.946358 192.24 
L 361.615897 191.999628 
z
M 354.461278 191.754731 
L 360.244708 191.754731 
L 357.357519 191.229871 
L 354.461278 191.754731 
z
" clip-path="url(#p9a40cb3831)" style="fill: #008000"/>
   </g>
   <g id="patch_48">
    <path d="M 368.417537 190.211139 
Q 366.566098 190.562752 364.564091 190.740603 
Q 362.562084 190.920498 360.381625 190.920498 
Q 353.879284 190.920498 350.081604 189.58764 
Q 346.283925 188.254782 346.283925 185.975431 
Q 346.283925 183.687903 350.081604 182.357089 
Q 353.879284 181.024231 360.381625 181.024231 
Q 362.562084 181.024231 364.564091 181.204126 
Q 366.566098 181.381977 368.417537 181.73359 
L 368.417537 183.706302 
Q 366.549368 183.24021 364.736966 183.023518 
Q 362.924564 182.806827 360.922557 182.806827 
Q 357.331213 182.806827 355.273439 183.651107 
Q 353.221242 184.493342 353.221242 185.975431 
Q 353.221242 187.451387 355.273439 188.295667 
Q 357.331213 189.137902 360.922557 189.137902 
Q 362.924564 189.137902 364.736966 188.921211 
Q 366.549368 188.702475 368.417537 188.236383 
L 368.417537 190.211139 
z
" clip-path="url(#p9a40cb3831)" style="fill: #0000ff"/>
   </g>
   <g id="patch_49">
    <path d="M 368.417537 179.293151 
Q 366.185326 180.158691 363.784459 180.593438 
Q 361.383592 181.024231 358.82399 181.024231 
Q 353.040083 181.024231 349.662004 178.447373 
Q 346.283925 175.870514 346.283925 171.463769 
Q 346.283925 167.005645 349.72153 164.448547 
Q 353.164095 161.89145 359.151381 161.89145 
Q 361.457999 161.89145 363.571159 162.239247 
Q 365.689279 162.583091 367.564336 163.262876 
L 367.564336 167.076785 
Q 365.629753 166.203341 363.715012 165.772547 
Q 361.800271 165.337801 359.875609 165.337801 
Q 356.313993 165.337801 354.38437 166.9266 
Q 352.454748 168.511448 352.454748 171.463769 
Q 352.454748 174.388425 354.314924 175.985129 
Q 356.1751 177.57788 359.597823 177.57788 
Q 360.530391 177.57788 361.329027 177.486979 
Q 362.127662 177.392125 362.762602 177.194513 
L 362.762602 173.613786 
L 359.116658 173.613786 
L 359.116658 170.424331 
L 368.417537 170.424331 
L 368.417537 179.293151 
z
" clip-path="url(#p9a40cb3831)" style="fill: #ffa600"/>
   </g>
   <g id="patch_50">
    <path d="M 346.283925 98.995179 
L 368.417537 98.995179 
L 368.417537 111.261704 
L 360.454584 111.261704 
L 360.454584 161.89145 
L 354.26232 161.89145 
L 354.26232 111.261704 
L 346.283925 111.261704 
L 346.283925 98.995179 
z
" clip-path="url(#p9a40cb3831)" style="fill: #ff0000"/>
   </g>
   <g id="patch_51">
    <path d="M 369.582463 187.999615 
L 391.716075 187.999615 
L 391.716075 188.826608 
L 383.753122 188.826608 
L 383.753122 192.24 
L 377.560858 192.24 
L 377.560858 188.826608 
L 369.582463 188.826608 
L 369.582463 187.999615 
z
" clip-path="url(#p9a40cb3831)" style="fill: #ff0000"/>
   </g>
   <g id="patch_52">
    <path d="M 391.716075 187.571836 
Q 389.864637 187.783876 387.86263 187.891129 
Q 385.860622 187.999615 383.680163 187.999615 
Q 377.177822 187.999615 373.380143 187.195834 
Q 369.582463 186.392053 369.582463 185.01749 
Q 369.582463 183.637995 373.380143 182.835447 
Q 377.177822 182.031666 383.680163 182.031666 
Q 385.860622 182.031666 387.86263 182.140151 
Q 389.864637 182.247404 391.716075 182.459445 
L 391.716075 183.64909 
Q 389.847907 183.368013 388.035505 183.237337 
Q 386.223103 183.106661 384.221096 183.106661 
Q 380.629751 183.106661 378.571978 183.615804 
Q 376.519781 184.123715 376.519781 185.01749 
Q 376.519781 185.907566 378.571978 186.416709 
Q 380.629751 186.92462 384.221096 186.92462 
Q 386.223103 186.92462 388.035505 186.793944 
Q 389.847907 186.662035 391.716075 186.380958 
L 391.716075 187.571836 
z
" clip-path="url(#p9a40cb3831)" style="fill: #0000ff"/>
   </g>
   <g id="patch_53">
    <path d="M 391.716075 180.62492 
Q 389.483864 181.328293 387.082997 181.681585 
Q 384.68213 182.031666 382.122529 182.031666 
Q 376.338622 182.031666 372.960543 179.937605 
Q 369.582463 177.843545 369.582463 174.262444 
Q 369.582463 170.639591 373.020068 168.561589 
Q 376.462634 166.483587 382.449919 166.483587 
Q 384.756537 166.483587 386.869697 166.766221 
Q 388.987817 167.045643 390.862875 167.598064 
L 390.862875 170.697402 
Q 388.928292 169.987606 387.013551 169.637525 
Q 385.09881 169.284233 383.174148 169.284233 
Q 379.612531 169.284233 377.682909 170.575356 
Q 375.753287 171.863267 375.753287 174.262444 
Q 375.753287 176.639139 377.613462 177.936685 
Q 379.473638 179.23102 382.896362 179.23102 
Q 383.82893 179.23102 384.627565 179.15715 
Q 385.426201 179.080068 386.061141 178.919481 
L 386.061141 176.009636 
L 382.415196 176.009636 
L 382.415196 173.417754 
L 391.716075 173.417754 
L 391.716075 180.62492 
z
" clip-path="url(#p9a40cb3831)" style="fill: #ffa600"/>
   </g>
   <g id="patch_54">
    <path d="M 384.914436 159.045024 
L 376.402204 159.045024 
L 375.058168 166.483587 
L 369.582463 166.483587 
L 377.402312 125.65025 
L 383.896226 125.65025 
L 391.716075 166.483587 
L 386.244896 166.483587 
L 384.914436 159.045024 
z
M 377.759817 151.466441 
L 383.543247 151.466441 
L 380.656057 135.224119 
L 377.759817 151.466441 
z
" clip-path="url(#p9a40cb3831)" style="fill: #008000"/>
   </g>
   <g id="patch_55">
    <path d="M 415.014614 192.032207 
Q 413.163175 192.135205 411.161168 192.187303 
Q 409.159161 192.24 406.978702 192.24 
Q 400.476361 192.24 396.678681 191.849565 
Q 392.881002 191.459129 392.881002 190.791437 
Q 392.881002 190.12135 396.678681 189.731513 
Q 400.476361 189.341078 406.978702 189.341078 
Q 409.159161 189.341078 411.161168 189.393775 
Q 413.163175 189.445873 415.014614 189.548871 
L 415.014614 190.126739 
Q 413.146445 189.990207 411.334043 189.926731 
Q 409.521641 189.863255 407.519634 189.863255 
Q 403.92829 189.863255 401.870516 190.110571 
Q 399.81832 190.357288 399.81832 190.791437 
Q 399.81832 191.22379 401.870516 191.471106 
Q 403.92829 191.717823 407.519634 191.717823 
Q 409.521641 191.717823 411.334043 191.654347 
Q 413.146445 191.590273 415.014614 191.45374 
L 415.014614 192.032207 
z
" clip-path="url(#p9a40cb3831)" style="fill: #0000ff"/>
   </g>
   <g id="patch_56">
    <path d="M 392.881002 180.412398 
L 415.014614 180.412398 
L 415.014614 182.153739 
L 407.051661 182.153739 
L 407.051661 189.341078 
L 400.859397 189.341078 
L 400.859397 182.153739 
L 392.881002 182.153739 
L 392.881002 180.412398 
z
" clip-path="url(#p9a40cb3831)" style="fill: #ff0000"/>
   </g>
   <g id="patch_57">
    <path d="M 415.014614 179.520625 
Q 412.782403 179.966511 410.381536 180.190473 
Q 407.980669 180.412398 405.421067 180.412398 
Q 399.637161 180.412398 396.259081 179.084918 
Q 392.881002 177.757438 392.881002 175.487284 
Q 392.881002 173.190663 396.318607 171.873363 
Q 399.761172 170.556063 405.748458 170.556063 
Q 408.055076 170.556063 410.168236 170.735232 
Q 412.286356 170.912365 414.161413 171.262559 
L 414.161413 173.227311 
Q 412.22683 172.777352 410.312089 172.555427 
Q 408.397348 172.331466 406.472687 172.331466 
Q 402.91107 172.331466 400.981448 173.149942 
Q 399.051825 173.966383 399.051825 175.487284 
Q 399.051825 176.993933 400.912001 177.816482 
Q 402.772177 178.636995 406.1949 178.636995 
Q 407.127468 178.636995 407.926104 178.590167 
Q 408.724739 178.541303 409.359679 178.439502 
L 409.359679 176.594875 
L 405.713735 176.594875 
L 405.713735 174.951813 
L 415.014614 174.951813 
L 415.014614 179.520625 
z
" clip-path="url(#p9a40cb3831)" style="fill: #ffa600"/>
   </g>
   <g id="patch_58">
    <path d="M 408.212974 165.549738 
L 399.700743 165.549738 
L 398.356706 170.556063 
L 392.881002 170.556063 
L 400.700851 143.074282 
L 407.194765 143.074282 
L 415.014614 170.556063 
L 409.543435 170.556063 
L 408.212974 165.549738 
z
M 401.058356 160.449176 
L 406.841786 160.449176 
L 403.954596 149.517717 
L 401.058356 160.449176 
z
" clip-path="url(#p9a40cb3831)" style="fill: #008000"/>
   </g>
   <g id="patch_59">
    <path d="M 438.313152 191.956685 
Q 436.461714 192.097118 434.459707 192.168151 
Q 432.4577 192.24 430.27724 192.24 
Q 423.7749 192.24 419.97722 191.707662 
Q 416.179541 191.175323 416.179541 190.264959 
Q 416.179541 189.351329 419.97722 188.819808 
Q 423.7749 188.287469 430.27724 188.287469 
Q 432.4577 188.287469 434.459707 188.359319 
Q 436.461714 188.430351 438.313152 188.570784 
L 438.313152 189.358678 
Q 436.444984 189.172523 434.632582 189.085977 
Q 432.82018 188.999431 430.818173 188.999431 
Q 427.226828 188.999431 425.169055 189.336633 
Q 423.116858 189.673019 423.116858 190.264959 
Q 423.116858 190.854451 425.169055 191.191653 
Q 427.226828 191.528038 430.818173 191.528038 
Q 432.82018 191.528038 434.632582 191.441492 
Q 436.444984 191.35413 438.313152 191.167975 
L 438.313152 191.956685 
z
" clip-path="url(#p9a40cb3831)" style="fill: #0000ff"/>
   </g>
   <g id="patch_60">
    <path d="M 438.313152 187.674417 
Q 436.080941 187.980943 433.680075 188.134906 
Q 431.279208 188.287469 428.719606 188.287469 
Q 422.935699 188.287469 419.55762 187.374889 
Q 416.179541 186.462309 416.179541 184.901685 
Q 416.179541 183.322866 419.617146 182.417284 
Q 423.059711 181.511702 429.046997 181.511702 
Q 431.353615 181.511702 433.466774 181.634872 
Q 435.584895 181.756643 437.459952 181.997385 
L 437.459952 183.348059 
Q 435.525369 183.038734 433.610628 182.886171 
Q 431.695887 182.732208 429.771225 182.732208 
Q 426.209609 182.732208 424.279986 183.294872 
Q 422.350364 183.856137 422.350364 184.901685 
Q 422.350364 185.937435 424.21054 186.502899 
Q 426.070715 187.066963 429.493439 187.066963 
Q 430.426007 187.066963 431.224643 187.034771 
Q 432.023278 187.001179 432.658218 186.931196 
L 432.658218 185.663102 
L 429.012273 185.663102 
L 429.012273 184.533574 
L 438.313152 184.533574 
L 438.313152 187.674417 
z
" clip-path="url(#p9a40cb3831)" style="fill: #ffa600"/>
   </g>
   <g id="patch_61">
    <path d="M 431.511513 179.094465 
L 422.999282 179.094465 
L 421.655245 181.511702 
L 416.179541 181.511702 
L 423.99939 168.242491 
L 430.493303 168.242491 
L 438.313152 181.511702 
L 432.841973 181.511702 
L 431.511513 179.094465 
z
M 424.356894 176.631727 
L 430.140324 176.631727 
L 427.253135 171.353618 
L 424.356894 176.631727 
z
" clip-path="url(#p9a40cb3831)" style="fill: #008000"/>
   </g>
   <g id="patch_62">
    <path d="M 416.179541 132.38739 
L 438.313152 132.38739 
L 438.313152 139.380134 
L 430.3502 139.380134 
L 430.3502 168.242491 
L 424.157936 168.242491 
L 424.157936 139.380134 
L 416.179541 139.380134 
L 416.179541 132.38739 
z
" clip-path="url(#p9a40cb3831)" style="fill: #ff0000"/>
   </g>
   <g id="patch_63">
    <path d="M 461.611691 191.726698 
Q 459.37948 191.983349 456.978613 192.11226 
Q 454.577746 192.24 452.018144 192.24 
Q 446.234238 192.24 442.856159 191.475906 
Q 439.478079 190.711812 439.478079 189.405118 
Q 439.478079 188.083188 442.915684 187.324954 
Q 446.35825 186.56672 452.345535 186.56672 
Q 454.652153 186.56672 456.765313 186.669849 
Q 458.883433 186.771806 460.75849 186.973377 
L 460.75849 188.104283 
Q 458.823908 187.845288 456.909167 187.717548 
Q 454.994426 187.588637 453.069764 187.588637 
Q 449.508147 187.588637 447.578525 188.05975 
Q 445.648902 188.529691 445.648902 189.405118 
Q 445.648902 190.272341 447.509078 190.745798 
Q 449.369254 191.218083 452.791978 191.218083 
Q 453.724546 191.218083 454.523181 191.191129 
Q 455.321817 191.163003 455.956757 191.104406 
L 455.956757 190.042644 
L 452.310812 190.042644 
L 452.310812 189.096902 
L 461.611691 189.096902 
L 461.611691 191.726698 
z
" clip-path="url(#p9a40cb3831)" style="fill: #ffa600"/>
   </g>
   <g id="patch_64">
    <path d="M 454.810052 185.107668 
L 446.29782 185.107668 
L 444.953784 186.56672 
L 439.478079 186.56672 
L 447.297928 178.557382 
L 453.791842 178.557382 
L 461.611691 186.56672 
L 456.140512 186.56672 
L 454.810052 185.107668 
z
M 447.655433 183.621151 
L 453.438863 183.621151 
L 450.551673 180.435268 
L 447.655433 183.621151 
z
" clip-path="url(#p9a40cb3831)" style="fill: #008000"/>
   </g>
   <g id="patch_65">
    <path d="M 461.611691 177.839752 
Q 459.760253 178.195465 457.758245 178.37539 
Q 455.756238 178.557382 453.575779 178.557382 
Q 447.073438 178.557382 443.275759 177.208981 
Q 439.478079 175.86058 439.478079 173.554649 
Q 439.478079 171.240445 443.275759 169.894112 
Q 447.073438 168.545711 453.575779 168.545711 
Q 455.756238 168.545711 457.758245 168.727704 
Q 459.760253 168.907629 461.611691 169.263342 
L 461.611691 171.259058 
Q 459.743523 170.787531 457.931121 170.568313 
Q 456.118719 170.349094 454.116711 170.349094 
Q 450.525367 170.349094 448.467594 171.203219 
Q 446.415397 172.055277 446.415397 173.554649 
Q 446.415397 175.047817 448.467594 175.901942 
Q 450.525367 176.753999 454.116711 176.753999 
Q 456.118719 176.753999 457.931121 176.534781 
Q 459.743523 176.313494 461.611691 175.841967 
L 461.611691 177.839752 
z
" clip-path="url(#p9a40cb3831)" style="fill: #0000ff"/>
   </g>
   <g id="patch_66">
    <path d="M 439.478079 50.741712 
L 461.611691 50.741712 
L 461.611691 73.716774 
L 453.648738 73.716774 
L 453.648738 168.545711 
L 447.456474 168.545711 
L 447.456474 73.716774 
L 439.478079 73.716774 
L 439.478079 50.741712 
z
" clip-path="url(#p9a40cb3831)" style="fill: #ff0000"/>
   </g>
   <g id="patch_67">
    <path d="M 462.776618 186.177153 
L 484.91023 186.177153 
L 484.91023 187.359577 
L 476.947277 187.359577 
L 476.947277 192.24 
L 470.755013 192.24 
L 470.755013 187.359577 
L 462.776618 187.359577 
L 462.776618 186.177153 
z
" clip-path="url(#p9a40cb3831)" style="fill: #ff0000"/>
   </g>
   <g id="patch_68">
    <path d="M 484.91023 185.64444 
Q 483.058791 185.908493 481.056784 186.042055 
Q 479.054777 186.177153 476.874318 186.177153 
Q 470.371977 186.177153 466.574297 185.176206 
Q 462.776618 184.175259 462.776618 182.463517 
Q 462.776618 180.745634 466.574297 179.746222 
Q 470.371977 178.745275 476.874318 178.745275 
Q 479.054777 178.745275 481.056784 178.880372 
Q 483.058791 179.013934 484.91023 179.277988 
L 484.91023 180.75945 
Q 483.042061 180.409426 481.229659 180.246695 
Q 479.417257 180.083965 477.41525 180.083965 
Q 473.823906 180.083965 471.766132 180.718 
Q 469.713935 181.3505 469.713935 182.463517 
Q 469.713935 183.571927 471.766132 184.205963 
Q 473.823906 184.838463 477.41525 184.838463 
Q 479.417257 184.838463 481.229659 184.675732 
Q 483.042061 184.511466 484.91023 184.161442 
L 484.91023 185.64444 
z
" clip-path="url(#p9a40cb3831)" style="fill: #0000ff"/>
   </g>
   <g id="patch_69">
    <path d="M 478.10859 176.536351 
L 469.596359 176.536351 
L 468.252322 178.745275 
L 462.776618 178.745275 
L 470.596467 166.61958 
L 477.090381 166.61958 
L 484.91023 178.745275 
L 479.439051 178.745275 
L 478.10859 176.536351 
z
M 470.953972 174.285847 
L 476.737401 174.285847 
L 473.850212 169.462596 
L 470.953972 174.285847 
z
" clip-path="url(#p9a40cb3831)" style="fill: #008000"/>
   </g>
   <g id="patch_70">
    <path d="M 484.91023 161.434904 
Q 482.678019 164.027242 480.277152 165.32933 
Q 477.876285 166.61958 475.316683 166.61958 
Q 469.532776 166.61958 466.154697 158.901752 
Q 462.776618 151.183925 462.776618 137.985492 
Q 462.776618 124.633177 466.214223 116.974535 
Q 469.656788 109.315893 475.644074 109.315893 
Q 477.950692 109.315893 480.063852 110.357563 
Q 482.181972 111.387396 484.057029 113.423387 
L 484.057029 124.846246 
Q 482.122446 122.230234 480.207705 120.939983 
Q 478.292964 119.637896 476.368302 119.637896 
Q 472.806686 119.637896 470.877063 124.396434 
Q 468.947441 129.143135 468.947441 137.985492 
Q 468.947441 146.74499 470.807617 151.527202 
Q 472.667793 156.297577 476.090516 156.297577 
Q 477.023084 156.297577 477.82172 156.025323 
Q 478.620355 155.741231 479.255295 155.149373 
L 479.255295 144.424907 
L 475.609351 144.424907 
L 475.609351 134.87232 
L 484.91023 134.87232 
L 484.91023 161.434904 
z
" clip-path="url(#p9a40cb3831)" style="fill: #ffa600"/>
   </g>
   <g id="patch_71">
    <path d="M 508.208768 192.148504 
Q 506.35733 192.193857 504.355323 192.216797 
Q 502.353315 192.24 500.172856 192.24 
Q 493.670515 192.24 489.872836 192.068083 
Q 486.075157 191.896167 486.075157 191.602168 
Q 486.075157 191.307115 489.872836 191.135462 
Q 493.670515 190.963545 500.172856 190.963545 
Q 502.353315 190.963545 504.355323 190.986748 
Q 506.35733 191.009688 508.208768 191.055041 
L 508.208768 191.309488 
Q 506.3406 191.24937 504.528198 191.22142 
Q 502.715796 191.19347 500.713789 191.19347 
Q 497.122444 191.19347 495.064671 191.302369 
Q 493.012474 191.411003 493.012474 191.602168 
Q 493.012474 191.792542 495.064671 191.90144 
Q 497.122444 192.010075 500.713789 192.010075 
Q 502.715796 192.010075 504.528198 191.982125 
Q 506.3406 191.953912 508.208768 191.893794 
L 508.208768 192.148504 
z
" clip-path="url(#p9a40cb3831)" style="fill: #0000ff"/>
   </g>
   <g id="patch_72">
    <path d="M 501.407129 189.404224 
L 492.894897 189.404224 
L 491.550861 190.963545 
L 486.075157 190.963545 
L 493.895005 182.403788 
L 500.388919 182.403788 
L 508.208768 190.963545 
L 502.737589 190.963545 
L 501.407129 189.404224 
z
M 494.25251 187.81555 
L 500.03594 187.81555 
L 497.14875 184.410726 
L 494.25251 187.81555 
z
" clip-path="url(#p9a40cb3831)" style="fill: #008000"/>
   </g>
   <g id="patch_73">
    <path d="M 486.075157 171.516378 
L 508.208768 171.516378 
L 508.208768 173.639726 
L 500.245815 173.639726 
L 500.245815 182.403788 
L 494.053551 182.403788 
L 494.053551 173.639726 
L 486.075157 173.639726 
L 486.075157 171.516378 
z
" clip-path="url(#p9a40cb3831)" style="fill: #ff0000"/>
   </g>
   <g id="patch_74">
    <path d="M 508.208768 170.510935 
Q 505.976557 171.013656 503.57569 171.266165 
Q 501.174824 171.516378 498.615222 171.516378 
Q 492.831315 171.516378 489.453236 170.019691 
Q 486.075157 168.523005 486.075157 165.963487 
Q 486.075157 163.374128 489.512761 161.888919 
Q 492.955327 160.40371 498.942613 160.40371 
Q 501.249231 160.40371 503.36239 160.605717 
Q 505.48051 160.805428 507.355568 161.20026 
L 507.355568 163.415447 
Q 505.420985 162.908135 503.506244 162.657922 
Q 501.591503 162.405414 499.666841 162.405414 
Q 496.105224 162.405414 494.175602 163.328217 
Q 492.24598 164.248725 492.24598 165.963487 
Q 492.24598 167.66218 494.106156 168.589575 
Q 495.966331 169.514674 499.389055 169.514674 
Q 500.321623 169.514674 501.120258 169.461877 
Q 501.918894 169.406784 502.553834 169.292008 
L 502.553834 167.212256 
L 498.907889 167.212256 
L 498.907889 165.359763 
L 508.208768 165.359763 
L 508.208768 170.510935 
z
" clip-path="url(#p9a40cb3831)" style="fill: #ffa600"/>
   </g>
   <g id="patch_75">
    <path d="M 531.507307 192.051525 
Q 529.655868 192.144948 527.653861 192.192202 
Q 525.651854 192.24 523.471395 192.24 
Q 516.969054 192.24 513.171375 191.885863 
Q 509.373695 191.531727 509.373695 190.926109 
Q 509.373695 190.318319 513.171375 189.964726 
Q 516.969054 189.610589 523.471395 189.610589 
Q 525.651854 189.610589 527.653861 189.658387 
Q 529.655868 189.705641 531.507307 189.799064 
L 531.507307 190.323208 
Q 529.639139 190.199368 527.826737 190.141794 
Q 526.014334 190.08422 524.012327 190.08422 
Q 520.420983 190.08422 518.363209 190.308543 
Q 516.311013 190.532322 516.311013 190.926109 
Q 516.311013 191.318267 518.363209 191.54259 
Q 520.420983 191.766369 524.012327 191.766369 
Q 526.014334 191.766369 527.826737 191.708795 
Q 529.639139 191.650677 531.507307 191.526838 
L 531.507307 192.051525 
z
" clip-path="url(#p9a40cb3831)" style="fill: #0000ff"/>
   </g>
   <g id="patch_76">
    <path d="M 531.507307 189.181044 
Q 529.275096 189.395817 526.874229 189.503693 
Q 524.473362 189.610589 521.91376 189.610589 
Q 516.129854 189.610589 512.751774 188.971175 
Q 509.373695 188.331762 509.373695 187.238286 
Q 509.373695 186.132061 512.8113 185.497551 
Q 516.253865 184.863041 522.241151 184.863041 
Q 524.547769 184.863041 526.660929 184.949342 
Q 528.779049 185.034663 530.654106 185.203343 
L 530.654106 186.149714 
Q 528.719523 185.93298 526.804782 185.826084 
Q 524.890042 185.718208 522.96538 185.718208 
Q 519.403763 185.718208 517.474141 186.112448 
Q 515.544518 186.505706 515.544518 187.238286 
Q 515.544518 187.964001 517.404694 188.360202 
Q 519.26487 188.755422 522.687593 188.755422 
Q 523.620162 188.755422 524.418797 188.732866 
Q 525.217432 188.70933 525.852372 188.660295 
L 525.852372 187.771785 
L 522.206428 187.771785 
L 522.206428 186.980363 
L 531.507307 186.980363 
L 531.507307 189.181044 
z
" clip-path="url(#p9a40cb3831)" style="fill: #ffa600"/>
   </g>
   <g id="patch_77">
    <path d="M 524.705667 183.080108 
L 516.193436 183.080108 
L 514.8494 184.863041 
L 509.373695 184.863041 
L 517.193544 175.075789 
L 523.687458 175.075789 
L 531.507307 184.863041 
L 526.036128 184.863041 
L 524.705667 183.080108 
z
M 517.551049 181.263615 
L 523.334479 181.263615 
L 520.447289 177.370528 
L 517.551049 181.263615 
z
" clip-path="url(#p9a40cb3831)" style="fill: #008000"/>
   </g>
   <g id="patch_78">
    <path d="M 509.373695 161.271381 
L 531.507307 161.271381 
L 531.507307 163.963625 
L 523.544354 163.963625 
L 523.544354 175.075789 
L 517.35209 175.075789 
L 517.35209 163.963625 
L 509.373695 163.963625 
L 509.373695 161.271381 
z
" clip-path="url(#p9a40cb3831)" style="fill: #ff0000"/>
   </g>
   <g id="patch_79">
    <path d="M 548.004206 191.229207 
L 539.491975 191.229207 
L 538.147938 192.24 
L 532.672234 192.24 
L 540.492083 186.691339 
L 546.985997 186.691339 
L 554.805846 192.24 
L 549.334667 192.24 
L 548.004206 191.229207 
z
M 540.849587 190.199386 
L 546.633017 190.199386 
L 543.745828 187.992289 
L 540.849587 190.199386 
z
" clip-path="url(#p9a40cb3831)" style="fill: #008000"/>
   </g>
   <g id="patch_80">
    <path d="M 554.805846 185.862994 
Q 552.573635 186.277166 550.172768 186.485198 
Q 547.771901 186.691339 545.212299 186.691339 
Q 539.428392 186.691339 536.050313 185.458277 
Q 532.672234 184.225216 532.672234 182.11653 
Q 532.672234 179.983258 536.109839 178.759653 
Q 539.552404 177.536048 545.53969 177.536048 
Q 547.846308 177.536048 549.959468 177.702473 
Q 552.077588 177.867008 553.952645 178.192294 
L 553.952645 180.0173 
Q 552.018062 179.599345 550.103321 179.393205 
Q 548.18858 179.185173 546.263918 179.185173 
Q 542.702302 179.185173 540.772679 179.945434 
Q 538.843057 180.703805 538.843057 182.11653 
Q 538.843057 183.516017 540.703233 184.280061 
Q 542.563409 185.042214 545.986132 185.042214 
Q 546.9187 185.042214 547.717336 184.998716 
Q 548.515971 184.953328 549.150911 184.858768 
L 549.150911 183.145342 
L 545.504967 183.145342 
L 545.504967 181.619145 
L 554.805846 181.619145 
L 554.805846 185.862994 
z
" clip-path="url(#p9a40cb3831)" style="fill: #ffa600"/>
   </g>
   <g id="patch_81">
    <path d="M 554.805846 176.740598 
Q 552.954407 177.134885 550.9524 177.33432 
Q 548.950393 177.536048 546.769934 177.536048 
Q 540.267593 177.536048 536.469913 176.041428 
Q 532.672234 174.546808 532.672234 171.990825 
Q 532.672234 169.425673 536.469913 167.933345 
Q 540.267593 166.438725 546.769934 166.438725 
Q 548.950393 166.438725 550.9524 166.640453 
Q 552.954407 166.839889 554.805846 167.234175 
L 554.805846 169.446304 
Q 552.937677 168.923645 551.125275 168.680655 
Q 549.312873 168.437665 547.310866 168.437665 
Q 543.719521 168.437665 541.661748 169.38441 
Q 539.609551 170.328863 539.609551 171.990825 
Q 539.609551 173.64591 541.661748 174.592656 
Q 543.719521 175.537108 547.310866 175.537108 
Q 549.312873 175.537108 551.125275 175.294118 
Q 552.937677 175.048835 554.805846 174.526177 
L 554.805846 176.740598 
z
" clip-path="url(#p9a40cb3831)" style="fill: #0000ff"/>
   </g>
   <g id="patch_82">
    <path d="M 532.672234 74.608382 
L 554.805846 74.608382 
L 554.805846 92.517858 
L 546.842893 92.517858 
L 546.842893 166.438725 
L 540.650629 166.438725 
L 540.650629 92.517858 
L 532.672234 92.517858 
L 532.672234 74.608382 
z
" clip-path="url(#p9a40cb3831)" style="fill: #ff0000"/>
   </g>
   <g id="patch_83">
    <path d="M 578.104384 191.880083 
Q 575.872173 192.060042 573.471306 192.150432 
Q 571.070439 192.24 568.510838 192.24 
Q 562.726931 192.24 559.348852 191.704234 
Q 555.970772 191.168468 555.970772 190.252242 
Q 555.970772 189.325333 559.408377 188.793676 
Q 562.850943 188.262018 568.838228 188.262018 
Q 571.144846 188.262018 573.258006 188.33433 
Q 575.376126 188.405821 577.251184 188.547158 
L 577.251184 189.340125 
Q 575.316601 189.158523 573.40186 189.068955 
Q 571.487119 188.978565 569.562457 188.978565 
Q 566.00084 188.978565 564.071218 189.308899 
Q 562.141596 189.638412 562.141596 190.252242 
Q 562.141596 190.86032 564.001771 191.192298 
Q 565.861947 191.523454 569.284671 191.523454 
Q 570.217239 191.523454 571.015874 191.504554 
Q 571.81451 191.484833 572.44945 191.443746 
L 572.44945 190.699261 
L 568.803505 190.699261 
L 568.803505 190.036128 
L 578.104384 190.036128 
L 578.104384 191.880083 
z
" clip-path="url(#p9a40cb3831)" style="fill: #ffa600"/>
   </g>
   <g id="patch_84">
    <path d="M 578.104384 187.969751 
Q 576.252946 188.114621 574.250939 188.187899 
Q 572.248931 188.262018 570.068472 188.262018 
Q 563.566131 188.262018 559.768452 187.712858 
Q 555.970772 187.163698 555.970772 186.224566 
Q 555.970772 185.282066 559.768452 184.733748 
Q 563.566131 184.184587 570.068472 184.184587 
Q 572.248931 184.184587 574.250939 184.258707 
Q 576.252946 184.331985 578.104384 184.476855 
L 578.104384 185.289646 
Q 576.236216 185.097608 574.423814 185.008328 
Q 572.611412 184.919047 570.609405 184.919047 
Q 567.01806 184.919047 564.960287 185.266905 
Q 562.90809 185.61392 562.90809 186.224566 
Q 562.90809 186.832685 564.960287 187.180543 
Q 567.01806 187.527559 570.609405 187.527559 
Q 572.611412 187.527559 574.423814 187.438278 
Q 576.236216 187.348155 578.104384 187.156117 
L 578.104384 187.969751 
z
" clip-path="url(#p9a40cb3831)" style="fill: #0000ff"/>
   </g>
   <g id="patch_85">
    <path d="M 555.970772 170.858349 
L 578.104384 170.858349 
L 578.104384 173.457337 
L 570.141431 173.457337 
L 570.141431 184.184587 
L 563.949167 184.184587 
L 563.949167 173.457337 
L 555.970772 173.457337 
L 555.970772 170.858349 
z
" clip-path="url(#p9a40cb3831)" style="fill: #ff0000"/>
   </g>
   <g id="patch_86">
    <path d="M 571.302745 167.071977 
L 562.790513 167.071977 
L 561.446477 170.858349 
L 555.970772 170.858349 
L 563.790621 150.073395 
L 570.284535 150.073395 
L 578.104384 170.858349 
L 572.633205 170.858349 
L 571.302745 167.071977 
z
M 564.148126 163.214332 
L 569.931556 163.214332 
L 567.044366 154.946678 
L 564.148126 163.214332 
z
" clip-path="url(#p9a40cb3831)" style="fill: #008000"/>
   </g>
   <g id="patch_87">
    <path d="M 601.402923 192.194922 
Q 599.551484 192.217266 597.549477 192.228568 
Q 595.54747 192.24 593.367011 192.24 
Q 586.86467 192.24 583.06699 192.1553 
Q 579.269311 192.0706 579.269311 191.925752 
Q 579.269311 191.780385 583.06699 191.695814 
Q 586.86467 191.611114 593.367011 191.611114 
Q 595.54747 191.611114 597.549477 191.622546 
Q 599.551484 191.633848 601.402923 191.656192 
L 601.402923 191.781554 
Q 599.534754 191.751935 597.722352 191.738164 
Q 595.90995 191.724394 593.907943 191.724394 
Q 590.316599 191.724394 588.258825 191.778046 
Q 586.206629 191.831568 586.206629 191.925752 
Q 586.206629 192.019546 588.258825 192.073198 
Q 590.316599 192.12672 593.907943 192.12672 
Q 595.90995 192.12672 597.722352 192.11295 
Q 599.534754 192.09905 601.402923 192.06943 
L 601.402923 192.194922 
z
" clip-path="url(#p9a40cb3831)" style="fill: #0000ff"/>
   </g>
   <g id="patch_88">
    <path d="M 594.601283 191.437678 
L 586.089052 191.437678 
L 584.745015 191.611114 
L 579.269311 191.611114 
L 587.08916 190.659051 
L 593.583074 190.659051 
L 601.402923 191.611114 
L 595.931744 191.611114 
L 594.601283 191.437678 
z
M 587.446665 191.260977 
L 593.230095 191.260977 
L 590.342905 190.882273 
L 587.446665 191.260977 
z
" clip-path="url(#p9a40cb3831)" style="fill: #008000"/>
   </g>
   <g id="patch_89">
    <path d="M 579.269311 189.610907 
L 601.402923 189.610907 
L 601.402923 189.815324 
L 593.43997 189.815324 
L 593.43997 190.659051 
L 587.247706 190.659051 
L 587.247706 189.815324 
L 579.269311 189.815324 
L 579.269311 189.610907 
z
" clip-path="url(#p9a40cb3831)" style="fill: #ff0000"/>
   </g>
   <g id="patch_90">
    <path d="M 601.402923 189.513703 
Q 599.170712 189.562305 596.769845 189.586717 
Q 594.368978 189.610907 591.809376 189.610907 
Q 586.02547 189.610907 582.64739 189.466211 
Q 579.269311 189.321515 579.269311 189.074067 
Q 579.269311 188.823734 582.706916 188.680147 
Q 586.149481 188.53656 592.136767 188.53656 
Q 594.443385 188.53656 596.556545 188.55609 
Q 598.674665 188.575398 600.549722 188.613569 
L 600.549722 188.827728 
Q 598.615139 188.778682 596.700398 188.754492 
Q 594.785657 188.730081 592.860996 188.730081 
Q 589.299379 188.730081 587.369757 188.819295 
Q 585.440134 188.908288 585.440134 189.074067 
Q 585.440134 189.238293 587.30031 189.327951 
Q 589.160486 189.417387 592.583209 189.417387 
Q 593.515777 189.417387 594.314413 189.412283 
Q 595.113048 189.406957 595.747988 189.39586 
L 595.747988 189.194795 
L 592.102044 189.194795 
L 592.102044 189.0157 
L 601.402923 189.0157 
L 601.402923 189.513703 
z
" clip-path="url(#p9a40cb3831)" style="fill: #ffa600"/>
   </g>
   <g id="patch_91">
    <path d="M 624.701461 191.905397 
Q 622.46925 192.072699 620.068384 192.156731 
Q 617.667517 192.24 615.107915 192.24 
Q 609.324008 192.24 605.945929 191.741916 
Q 602.56785 191.243831 602.56785 190.392046 
Q 602.56785 189.530329 606.005455 189.036065 
Q 609.44802 188.5418 615.435306 188.5418 
Q 617.741924 188.5418 619.855083 188.609026 
Q 621.973204 188.675488 623.848261 188.806885 
L 623.848261 189.54408 
Q 621.913678 189.375251 619.998937 189.291982 
Q 618.084196 189.20795 616.159534 189.20795 
Q 612.597918 189.20795 610.668295 189.515051 
Q 608.738673 189.821388 608.738673 190.392046 
Q 608.738673 190.957356 610.598849 191.265985 
Q 612.459024 191.57385 615.881748 191.57385 
Q 616.814316 191.57385 617.612951 191.55628 
Q 618.411587 191.537945 619.046527 191.499749 
L 619.046527 190.807625 
L 615.400582 190.807625 
L 615.400582 190.191131 
L 624.701461 190.191131 
L 624.701461 191.905397 
z
" clip-path="url(#p9a40cb3831)" style="fill: #ffa600"/>
   </g>
   <g id="patch_92">
    <path d="M 624.701461 188.265252 
Q 622.850023 188.40233 620.848016 188.471667 
Q 618.846009 188.5418 616.665549 188.5418 
Q 610.163208 188.5418 606.365529 188.022177 
Q 602.56785 187.502554 602.56785 186.613934 
Q 602.56785 185.722127 606.365529 185.203301 
Q 610.163208 184.683678 616.665549 184.683678 
Q 618.846009 184.683678 620.848016 184.753811 
Q 622.850023 184.823147 624.701461 184.960226 
L 624.701461 185.7293 
Q 622.833293 185.547591 621.020891 185.463112 
Q 619.208489 185.378634 617.206482 185.378634 
Q 613.615137 185.378634 611.557364 185.707782 
Q 609.505167 186.036132 609.505167 186.613934 
Q 609.505167 187.189345 611.557364 187.518493 
Q 613.615137 187.846844 617.206482 187.846844 
Q 619.208489 187.846844 621.020891 187.762365 
Q 622.833293 187.67709 624.701461 187.495381 
L 624.701461 188.265252 
z
" clip-path="url(#p9a40cb3831)" style="fill: #0000ff"/>
   </g>
   <g id="patch_93">
    <path d="M 617.899822 182.800968 
L 609.387591 182.800968 
L 608.043554 184.683678 
L 602.56785 184.683678 
L 610.387699 174.348708 
L 616.881612 174.348708 
L 624.701461 184.683678 
L 619.230282 184.683678 
L 617.899822 182.800968 
z
M 610.745203 180.882819 
L 616.528633 180.882819 
L 613.641444 176.771866 
L 610.745203 180.882819 
z
" clip-path="url(#p9a40cb3831)" style="fill: #008000"/>
   </g>
   <g id="patch_94">
    <path d="M 602.56785 158.336501 
L 624.701461 158.336501 
L 624.701461 161.459327 
L 616.738509 161.459327 
L 616.738509 174.348708 
L 610.546245 174.348708 
L 610.546245 161.459327 
L 602.56785 161.459327 
L 602.56785 158.336501 
z
" clip-path="url(#p9a40cb3831)" style="fill: #ff0000"/>
   </g>
   <g id="patch_95">
    <path d="M 648 192.042422 
Q 645.767789 192.141211 643.366922 192.190831 
Q 640.966055 192.24 638.406453 192.24 
Q 632.622547 192.24 629.244468 191.945889 
Q 625.866388 191.651778 625.866388 191.148812 
Q 625.866388 190.639982 629.303993 190.348127 
Q 632.746559 190.056271 638.733844 190.056271 
Q 641.040462 190.056271 643.153622 190.095967 
Q 645.271742 190.135212 647.146799 190.212799 
L 647.146799 190.648102 
Q 645.212217 190.548411 643.297476 190.499242 
Q 641.382735 190.449622 639.458073 190.449622 
Q 635.896456 190.449622 633.966834 190.63096 
Q 632.037211 190.811848 632.037211 191.148812 
Q 632.037211 191.482619 633.897387 191.66486 
Q 635.757563 191.846649 639.180287 191.846649 
Q 640.112855 191.846649 640.91149 191.836274 
Q 641.710126 191.825448 642.345066 191.802893 
L 642.345066 191.394205 
L 638.699121 191.394205 
L 638.699121 191.030175 
L 648 191.030175 
L 648 192.042422 
z
" clip-path="url(#p9a40cb3831)" style="fill: #ffa600"/>
   </g>
   <g id="patch_96">
    <path d="M 648 189.702276 
Q 646.148562 189.877743 644.146554 189.966497 
Q 642.144547 190.056271 639.964088 190.056271 
Q 633.461747 190.056271 629.664068 189.391128 
Q 625.866388 188.725984 625.866388 187.588508 
Q 625.866388 186.44695 629.664068 185.782827 
Q 633.461747 185.117684 639.964088 185.117684 
Q 642.144547 185.117684 644.146554 185.207458 
Q 646.148562 185.296212 648 185.471679 
L 648 186.456132 
Q 646.131832 186.223536 644.31943 186.115399 
Q 642.507028 186.007262 640.50502 186.007262 
Q 636.913676 186.007262 634.855903 186.428587 
Q 632.803706 186.848893 632.803706 187.588508 
Q 632.803706 188.325062 634.855903 188.746387 
Q 636.913676 189.166693 640.50502 189.166693 
Q 642.507028 189.166693 644.31943 189.058556 
Q 646.131832 188.949399 648 188.716803 
L 648 189.702276 
z
" clip-path="url(#p9a40cb3831)" style="fill: #0000ff"/>
   </g>
   <g id="patch_97">
    <path d="M 641.198361 183.31225 
L 632.686129 183.31225 
L 631.342093 185.117684 
L 625.866388 185.117684 
L 633.686237 175.206914 
L 640.180151 175.206914 
L 648 185.117684 
L 642.528821 185.117684 
L 641.198361 183.31225 
z
M 634.043742 181.472831 
L 639.827172 181.472831 
L 636.939982 177.530613 
L 634.043742 181.472831 
z
" clip-path="url(#p9a40cb3831)" style="fill: #008000"/>
   </g>
   <g id="patch_98">
    <path d="M 625.866388 163.750735 
L 648 163.750735 
L 648 165.985009 
L 640.037047 165.985009 
L 640.037047 175.206914 
L 633.844783 175.206914 
L 633.844783 165.985009 
L 625.866388 165.985009 
L 625.866388 163.750735 
z
" clip-path="url(#p9a40cb3831)" style="fill: #ff0000"/>
   </g>
   <g id="matplotlib.axis_1">
    <g id="xtick_1">
     <g id="line2d_2">
      <defs>
       <path id="mbbbfca8d35" d="M 0 0 
L 0 3.5 
" style="stroke: #000000; stroke-width: 0.8"/>
      </defs>
      <g>
       <use xlink:href="#mbbbfca8d35" x="101.066806" y="192.24" style="stroke: #000000; stroke-width: 0.8"/>
      </g>
     </g>
     <g id="text_1">
      <!-- 0 -->
      <g transform="translate(97.885556 206.838437) scale(0.1 -0.1)">
       <defs>
        <path id="DejaVuSans-30" d="M 2034 4250 
Q 1547 4250 1301 3770 
Q 1056 3291 1056 2328 
Q 1056 1369 1301 889 
Q 1547 409 2034 409 
Q 2525 409 2770 889 
Q 3016 1369 3016 2328 
Q 3016 3291 2770 3770 
Q 2525 4250 2034 4250 
z
M 2034 4750 
Q 2819 4750 3233 4129 
Q 3647 3509 3647 2328 
Q 3647 1150 3233 529 
Q 2819 -91 2034 -91 
Q 1250 -91 836 529 
Q 422 1150 422 2328 
Q 422 3509 836 4129 
Q 1250 4750 2034 4750 
z
" transform="scale(0.015625)"/>
       </defs>
       <use xlink:href="#DejaVuSans-30"/>
      </g>
     </g>
    </g>
    <g id="xtick_2">
     <g id="line2d_3">
      <g>
       <use xlink:href="#mbbbfca8d35" x="217.559499" y="192.24" style="stroke: #000000; stroke-width: 0.8"/>
      </g>
     </g>
     <g id="text_2">
      <!-- 5 -->
      <g transform="translate(214.378249 206.838437) scale(0.1 -0.1)">
       <defs>
        <path id="DejaVuSans-35" d="M 691 4666 
L 3169 4666 
L 3169 4134 
L 1269 4134 
L 1269 2991 
Q 1406 3038 1543 3061 
Q 1681 3084 1819 3084 
Q 2600 3084 3056 2656 
Q 3513 2228 3513 1497 
Q 3513 744 3044 326 
Q 2575 -91 1722 -91 
Q 1428 -91 1123 -41 
Q 819 9 494 109 
L 494 744 
Q 775 591 1075 516 
Q 1375 441 1709 441 
Q 2250 441 2565 725 
Q 2881 1009 2881 1497 
Q 2881 1984 2565 2268 
Q 2250 2553 1709 2553 
Q 1456 2553 1204 2497 
Q 953 2441 691 2322 
L 691 4666 
z
" transform="scale(0.015625)"/>
       </defs>
       <use xlink:href="#DejaVuSans-35"/>
      </g>
     </g>
    </g>
    <g id="xtick_3">
     <g id="line2d_4">
      <g>
       <use xlink:href="#mbbbfca8d35" x="334.052192" y="192.24" style="stroke: #000000; stroke-width: 0.8"/>
      </g>
     </g>
     <g id="text_3">
      <!-- 10 -->
      <g transform="translate(327.689692 206.838437) scale(0.1 -0.1)">
       <defs>
        <path id="DejaVuSans-31" d="M 794 531 
L 1825 531 
L 1825 4091 
L 703 3866 
L 703 4441 
L 1819 4666 
L 2450 4666 
L 2450 531 
L 3481 531 
L 3481 0 
L 794 0 
L 794 531 
z
" transform="scale(0.015625)"/>
       </defs>
       <use xlink:href="#DejaVuSans-31"/>
       <use xlink:href="#DejaVuSans-30" x="63.623047"/>
      </g>
     </g>
    </g>
    <g id="xtick_4">
     <g id="line2d_5">
      <g>
       <use xlink:href="#mbbbfca8d35" x="450.544885" y="192.24" style="stroke: #000000; stroke-width: 0.8"/>
      </g>
     </g>
     <g id="text_4">
      <!-- 15 -->
      <g transform="translate(444.182385 206.838437) scale(0.1 -0.1)">
       <use xlink:href="#DejaVuSans-31"/>
       <use xlink:href="#DejaVuSans-35" x="63.623047"/>
      </g>
     </g>
    </g>
    <g id="xtick_5">
     <g id="line2d_6">
      <g>
       <use xlink:href="#mbbbfca8d35" x="567.037578" y="192.24" style="stroke: #000000; stroke-width: 0.8"/>
      </g>
     </g>
     <g id="text_5">
      <!-- 20 -->
      <g transform="translate(560.675078 206.838437) scale(0.1 -0.1)">
       <defs>
        <path id="DejaVuSans-32" d="M 1228 531 
L 3431 531 
L 3431 0 
L 469 0 
L 469 531 
Q 828 903 1448 1529 
Q 2069 2156 2228 2338 
Q 2531 2678 2651 2914 
Q 2772 3150 2772 3378 
Q 2772 3750 2511 3984 
Q 2250 4219 1831 4219 
Q 1534 4219 1204 4116 
Q 875 4013 500 3803 
L 500 4441 
Q 881 4594 1212 4672 
Q 1544 4750 1819 4750 
Q 2544 4750 2975 4387 
Q 3406 4025 3406 3419 
Q 3406 3131 3298 2873 
Q 3191 2616 2906 2266 
Q 2828 2175 2409 1742 
Q 1991 1309 1228 531 
z
" transform="scale(0.015625)"/>
       </defs>
       <use xlink:href="#DejaVuSans-32"/>
       <use xlink:href="#DejaVuSans-30" x="63.623047"/>
      </g>
     </g>
    </g>
   </g>
   <g id="matplotlib.axis_2">
    <g id="ytick_1">
     <g id="line2d_7">
      <defs>
       <path id="mb84ebb8b2a" d="M 0 0 
L -3.5 0 
" style="stroke: #000000; stroke-width: 0.8"/>
      </defs>
      <g>
       <use xlink:href="#mb84ebb8b2a" x="90" y="192.24" style="stroke: #000000; stroke-width: 0.8"/>
      </g>
     </g>
     <g id="text_6">
      <!-- 0.0 -->
      <g transform="translate(67.096875 196.039219) scale(0.1 -0.1)">
       <defs>
        <path id="DejaVuSans-2e" d="M 684 794 
L 1344 794 
L 1344 0 
L 684 0 
L 684 794 
z
" transform="scale(0.015625)"/>
       </defs>
       <use xlink:href="#DejaVuSans-30"/>
       <use xlink:href="#DejaVuSans-2e" x="63.623047"/>
       <use xlink:href="#DejaVuSans-30" x="95.410156"/>
      </g>
     </g>
    </g>
    <g id="ytick_2">
     <g id="line2d_8">
      <g>
       <use xlink:href="#mb84ebb8b2a" x="90" y="166.252186" style="stroke: #000000; stroke-width: 0.8"/>
      </g>
     </g>
     <g id="text_7">
      <!-- 0.2 -->
      <g transform="translate(67.096875 170.051405) scale(0.1 -0.1)">
       <use xlink:href="#DejaVuSans-30"/>
       <use xlink:href="#DejaVuSans-2e" x="63.623047"/>
       <use xlink:href="#DejaVuSans-32" x="95.410156"/>
      </g>
     </g>
    </g>
    <g id="ytick_3">
     <g id="line2d_9">
      <g>
       <use xlink:href="#mb84ebb8b2a" x="90" y="140.264372" style="stroke: #000000; stroke-width: 0.8"/>
      </g>
     </g>
     <g id="text_8">
      <!-- 0.4 -->
      <g transform="translate(67.096875 144.063591) scale(0.1 -0.1)">
       <defs>
        <path id="DejaVuSans-34" d="M 2419 4116 
L 825 1625 
L 2419 1625 
L 2419 4116 
z
M 2253 4666 
L 3047 4666 
L 3047 1625 
L 3713 1625 
L 3713 1100 
L 3047 1100 
L 3047 0 
L 2419 0 
L 2419 1100 
L 313 1100 
L 313 1709 
L 2253 4666 
z
" transform="scale(0.015625)"/>
       </defs>
       <use xlink:href="#DejaVuSans-30"/>
       <use xlink:href="#DejaVuSans-2e" x="63.623047"/>
       <use xlink:href="#DejaVuSans-34" x="95.410156"/>
      </g>
     </g>
    </g>
    <g id="ytick_4">
     <g id="line2d_10">
      <g>
       <use xlink:href="#mb84ebb8b2a" x="90" y="114.276559" style="stroke: #000000; stroke-width: 0.8"/>
      </g>
     </g>
     <g id="text_9">
      <!-- 0.6 -->
      <g transform="translate(67.096875 118.075777) scale(0.1 -0.1)">
       <defs>
        <path id="DejaVuSans-36" d="M 2113 2584 
Q 1688 2584 1439 2293 
Q 1191 2003 1191 1497 
Q 1191 994 1439 701 
Q 1688 409 2113 409 
Q 2538 409 2786 701 
Q 3034 994 3034 1497 
Q 3034 2003 2786 2293 
Q 2538 2584 2113 2584 
z
M 3366 4563 
L 3366 3988 
Q 3128 4100 2886 4159 
Q 2644 4219 2406 4219 
Q 1781 4219 1451 3797 
Q 1122 3375 1075 2522 
Q 1259 2794 1537 2939 
Q 1816 3084 2150 3084 
Q 2853 3084 3261 2657 
Q 3669 2231 3669 1497 
Q 3669 778 3244 343 
Q 2819 -91 2113 -91 
Q 1303 -91 875 529 
Q 447 1150 447 2328 
Q 447 3434 972 4092 
Q 1497 4750 2381 4750 
Q 2619 4750 2861 4703 
Q 3103 4656 3366 4563 
z
" transform="scale(0.015625)"/>
       </defs>
       <use xlink:href="#DejaVuSans-30"/>
       <use xlink:href="#DejaVuSans-2e" x="63.623047"/>
       <use xlink:href="#DejaVuSans-36" x="95.410156"/>
      </g>
     </g>
    </g>
    <g id="ytick_5">
     <g id="line2d_11">
      <g>
       <use xlink:href="#mb84ebb8b2a" x="90" y="88.288745" style="stroke: #000000; stroke-width: 0.8"/>
      </g>
     </g>
     <g id="text_10">
      <!-- 0.8 -->
      <g transform="translate(67.096875 92.087963) scale(0.1 -0.1)">
       <defs>
        <path id="DejaVuSans-38" d="M 2034 2216 
Q 1584 2216 1326 1975 
Q 1069 1734 1069 1313 
Q 1069 891 1326 650 
Q 1584 409 2034 409 
Q 2484 409 2743 651 
Q 3003 894 3003 1313 
Q 3003 1734 2745 1975 
Q 2488 2216 2034 2216 
z
M 1403 2484 
Q 997 2584 770 2862 
Q 544 3141 544 3541 
Q 544 4100 942 4425 
Q 1341 4750 2034 4750 
Q 2731 4750 3128 4425 
Q 3525 4100 3525 3541 
Q 3525 3141 3298 2862 
Q 3072 2584 2669 2484 
Q 3125 2378 3379 2068 
Q 3634 1759 3634 1313 
Q 3634 634 3220 271 
Q 2806 -91 2034 -91 
Q 1263 -91 848 271 
Q 434 634 434 1313 
Q 434 1759 690 2068 
Q 947 2378 1403 2484 
z
M 1172 3481 
Q 1172 3119 1398 2916 
Q 1625 2713 2034 2713 
Q 2441 2713 2670 2916 
Q 2900 3119 2900 3481 
Q 2900 3844 2670 4047 
Q 2441 4250 2034 4250 
Q 1625 4250 1398 4047 
Q 1172 3844 1172 3481 
z
" transform="scale(0.015625)"/>
       </defs>
       <use xlink:href="#DejaVuSans-30"/>
       <use xlink:href="#DejaVuSans-2e" x="63.623047"/>
       <use xlink:href="#DejaVuSans-38" x="95.410156"/>
      </g>
     </g>
    </g>
    <g id="ytick_6">
     <g id="line2d_12">
      <g>
       <use xlink:href="#mb84ebb8b2a" x="90" y="62.300931" style="stroke: #000000; stroke-width: 0.8"/>
      </g>
     </g>
     <g id="text_11">
      <!-- 1.0 -->
      <g transform="translate(67.096875 66.10015) scale(0.1 -0.1)">
       <use xlink:href="#DejaVuSans-31"/>
       <use xlink:href="#DejaVuSans-2e" x="63.623047"/>
       <use xlink:href="#DejaVuSans-30" x="95.410156"/>
      </g>
     </g>
    </g>
    <g id="ytick_7">
     <g id="line2d_13">
      <g>
       <use xlink:href="#mb84ebb8b2a" x="90" y="36.313117" style="stroke: #000000; stroke-width: 0.8"/>
      </g>
     </g>
     <g id="text_12">
      <!-- 1.2 -->
      <g transform="translate(67.096875 40.112336) scale(0.1 -0.1)">
       <use xlink:href="#DejaVuSans-31"/>
       <use xlink:href="#DejaVuSans-2e" x="63.623047"/>
       <use xlink:href="#DejaVuSans-32" x="95.410156"/>
      </g>
     </g>
    </g>
   </g>
  </g>
 </g>
 <defs>
  <clipPath id="p9a40cb3831">
   <rect x="90" y="25.92" width="558" height="166.32"/>
  </clipPath>
 </defs>
</svg>
