<?xml version="1.0" encoding="utf-8" standalone="no"?>
<!DOCTYPE svg PUBLIC "-//W3C//DTD SVG 1.1//EN"
  "http://www.w3.org/Graphics/SVG/1.1/DTD/svg11.dtd">
<svg xmlns:xlink="http://www.w3.org/1999/xlink" width="720pt" height="216pt" viewBox="0 0 720 216" xmlns="http://www.w3.org/2000/svg" version="1.1">
 <metadata>
  <rdf:RDF xmlns:dc="http://purl.org/dc/elements/1.1/" xmlns:cc="http://creativecommons.org/ns#" xmlns:rdf="http://www.w3.org/1999/02/22-rdf-syntax-ns#">
   <cc:Work>
    <dc:type rdf:resource="http://purl.org/dc/dcmitype/StillImage"/>
    <dc:date>2025-12-17T10:22:50.389614</dc:date>
    <dc:format>image/svg+xml</dc:format>
    <dc:creator>
     <cc:Agent>
      <dc:title>Matplotlib v3.8.2, https://matplotlib.org/</dc:title>
     </cc:Agent>
    </dc:creator>
   </cc:Work>
  </rdf:RDF>
 </metadata>
 <defs>
  <style type="text/css">*{stroke-linejoin: round; stroke-linecap: butt}</style>
 </defs>
 <g id="figure_1">
  <g id="patch_1">
   <path d="M 0 216 
L 720 216 
L 720 0 
L 0 0 
z
" style="fill: #ffffff"/>
  </g>
  <g id="axes_1">
   <g id="patch_2">
    <path d="M 90 192.24 
L 648 192.24 
L 648 25.92 
L 90 25.92 
z
" style="fill: #ffffff"/>
   </g>
   <g id="line2d_1">
    <path d="M 90 192.24 
L 648 192.24 
" clip-path="url(#p486aa30f79)" style="fill: none; stroke: #000000; stroke-width: 0.5; stroke-linecap: square"/>
   </g>
   <g id="patch_3">
    <path d="M 107.699499 191.863564 
Q 106.218967 192.050155 104.618029 192.144535 
Q 103.017092 192.24 101.273453 192.24 
Q 96.073751 192.24 93.036876 191.532691 
Q 90 190.825383 90 189.615799 
Q 90 188.401875 93.036876 187.695651 
Q 96.073751 186.988343 101.273453 186.988343 
Q 103.017092 186.988343 104.618029 187.083808 
Q 106.218967 187.178188 107.699499 187.364778 
L 107.699499 188.411638 
Q 106.205588 188.164297 104.756272 188.049305 
Q 103.306955 187.934314 101.706018 187.934314 
Q 98.834142 187.934314 97.18861 188.382348 
Q 95.547538 188.829298 95.547538 189.615799 
Q 95.547538 190.399045 97.18861 190.84708 
Q 98.834142 191.294029 101.706018 191.294029 
Q 103.306955 191.294029 104.756272 191.179037 
Q 106.205588 191.062961 107.699499 190.815619 
L 107.699499 191.863564 
z
" clip-path="url(#p486aa30f79)" style="fill: #0000ff"/>
   </g>
   <g id="patch_4">
    <path d="M 107.699499 186.481511 
Q 105.914476 186.734927 103.994584 186.862213 
Q 102.074692 186.988343 100.027865 186.988343 
Q 95.402671 186.988343 92.701335 186.23388 
Q 90 185.479418 90 184.189195 
Q 90 182.883928 92.748936 182.135252 
Q 95.501839 181.386575 100.289668 181.386575 
Q 102.134193 181.386575 103.824015 181.488404 
Q 105.517804 181.589076 107.017224 181.788106 
L 107.017224 182.904757 
Q 105.470203 182.649027 103.93905 182.522897 
Q 102.407896 182.395611 100.868809 182.395611 
Q 98.020705 182.395611 96.477652 182.860785 
Q 94.934598 183.324803 94.934598 184.189195 
Q 94.934598 185.045486 96.422118 185.512975 
Q 97.909637 185.979307 100.646673 185.979307 
Q 101.392416 185.979307 102.031058 185.952693 
Q 102.6697 185.924921 103.17744 185.867063 
L 103.17744 184.818685 
L 100.261901 184.818685 
L 100.261901 183.884864 
L 107.699499 183.884864 
L 107.699499 186.481511 
z
" clip-path="url(#p486aa30f79)" style="fill: #ffa600"/>
   </g>
   <g id="patch_5">
    <path d="M 102.260459 179.664536 
L 95.453516 179.664536 
L 94.378735 181.386575 
L 90 181.386575 
L 96.253268 171.933592 
L 101.446231 171.933592 
L 107.699499 181.386575 
L 103.324383 181.386575 
L 102.260459 179.664536 
z
M 96.539153 177.910081 
L 101.163965 177.910081 
L 98.855178 174.149958 
L 96.539153 177.910081 
z
" clip-path="url(#p486aa30f79)" style="fill: #008000"/>
   </g>
   <g id="patch_6">
    <path d="M 90 136.222322 
L 107.699499 136.222322 
L 107.699499 143.187015 
L 101.331796 143.187015 
L 101.331796 171.933592 
L 96.380052 171.933592 
L 96.380052 143.187015 
L 90 143.187015 
L 90 136.222322 
z
" clip-path="url(#p486aa30f79)" style="fill: #ff0000"/>
   </g>
   <g id="patch_7">
    <path d="M 126.330551 192.172776 
Q 124.850018 192.206097 123.249081 192.222952 
Q 121.648144 192.24 119.904504 192.24 
Q 114.704803 192.24 111.667927 192.113689 
Q 108.631052 191.987377 108.631052 191.771369 
Q 108.631052 191.554587 111.667927 191.428469 
Q 114.704803 191.302158 119.904504 191.302158 
Q 121.648144 191.302158 123.249081 191.319206 
Q 124.850018 191.33606 126.330551 191.369382 
L 126.330551 191.55633 
Q 124.83664 191.51216 123.387324 191.491625 
Q 121.938007 191.471089 120.33707 191.471089 
Q 117.465193 191.471089 115.819662 191.551099 
Q 114.178589 191.630916 114.178589 191.771369 
Q 114.178589 191.911242 115.819662 191.991252 
Q 117.465193 192.071068 120.33707 192.071068 
Q 121.938007 192.071068 123.387324 192.050533 
Q 124.83664 192.029804 126.330551 191.985634 
L 126.330551 192.172776 
z
" clip-path="url(#p486aa30f79)" style="fill: #0000ff"/>
   </g>
   <g id="patch_8">
    <path d="M 126.330551 190.708184 
Q 124.545527 191.005171 122.625636 191.154342 
Q 120.705744 191.302158 118.658917 191.302158 
Q 114.033723 191.302158 111.332387 190.417978 
Q 108.631052 189.533799 108.631052 188.021743 
Q 108.631052 186.492059 111.379988 185.61466 
Q 114.132891 184.737261 118.92072 184.737261 
Q 120.765244 184.737261 122.455067 184.856598 
Q 124.148856 184.974579 125.648275 185.207829 
L 125.648275 186.516468 
Q 124.101255 186.21677 122.570102 186.068954 
Q 121.038948 185.919783 119.499861 185.919783 
Q 116.651757 185.919783 115.108704 186.464936 
Q 113.56565 187.008734 113.56565 188.021743 
Q 113.56565 189.02526 115.053169 189.573126 
Q 116.540689 190.119635 119.277725 190.119635 
Q 120.023468 190.119635 120.66211 190.088445 
Q 121.300752 190.055898 121.808492 189.988093 
L 121.808492 188.759464 
L 118.892953 188.759464 
L 118.892953 187.665088 
L 126.330551 187.665088 
L 126.330551 190.708184 
z
" clip-path="url(#p486aa30f79)" style="fill: #ffa600"/>
   </g>
   <g id="patch_9">
    <path d="M 120.89151 180.893232 
L 114.084567 180.893232 
L 113.009787 184.737261 
L 108.631052 184.737261 
L 114.88432 163.635806 
L 120.077283 163.635806 
L 126.330551 184.737261 
L 121.955434 184.737261 
L 120.89151 180.893232 
z
M 115.170204 176.976846 
L 119.795017 176.976846 
L 117.48623 168.583297 
L 115.170204 176.976846 
z
" clip-path="url(#p486aa30f79)" style="fill: #008000"/>
   </g>
   <g id="patch_10">
    <path d="M 108.631052 117.212606 
L 126.330551 117.212606 
L 126.330551 126.266423 
L 119.962847 126.266423 
L 119.962847 163.635806 
L 115.011104 163.635806 
L 115.011104 126.266423 
L 108.631052 126.266423 
L 108.631052 117.212606 
z
" clip-path="url(#p486aa30f79)" style="fill: #ff0000"/>
   </g>
   <g id="patch_11">
    <path d="M 144.961603 192.06753 
Q 143.48107 192.153019 141.880133 192.196261 
Q 140.279195 192.24 138.535556 192.24 
Q 133.335855 192.24 130.298979 191.915935 
Q 127.262104 191.591871 127.262104 191.03768 
Q 127.262104 190.481502 130.298979 190.157934 
Q 133.335855 189.83387 138.535556 189.83387 
Q 140.279195 189.83387 141.880133 189.877609 
Q 143.48107 189.92085 144.961603 190.00634 
L 144.961603 190.485975 
Q 143.467692 190.372652 142.018375 190.319967 
Q 140.569059 190.267281 138.968121 190.267281 
Q 136.096245 190.267281 134.450713 190.472555 
Q 132.809641 190.677333 132.809641 191.03768 
Q 132.809641 191.396537 134.450713 191.601811 
Q 136.096245 191.806588 138.968121 191.806588 
Q 140.569059 191.806588 142.018375 191.753903 
Q 143.467692 191.700721 144.961603 191.587397 
L 144.961603 192.06753 
z
" clip-path="url(#p486aa30f79)" style="fill: #0000ff"/>
   </g>
   <g id="patch_12">
    <path d="M 144.961603 189.456523 
Q 143.176579 189.645197 141.256687 189.739964 
Q 139.336795 189.83387 137.289969 189.83387 
Q 132.664774 189.83387 129.963439 189.272158 
Q 127.262104 188.710446 127.262104 187.749849 
Q 127.262104 186.778053 130.01104 186.220649 
Q 132.763942 185.663244 137.551772 185.663244 
Q 139.396296 185.663244 141.086118 185.739058 
Q 142.779907 185.81401 144.279327 185.962192 
L 144.279327 186.79356 
Q 142.732307 186.603164 141.201153 186.509258 
Q 139.67 186.414491 138.130913 186.414491 
Q 135.282809 186.414491 133.739755 186.760823 
Q 132.196702 187.106293 132.196702 187.749849 
Q 132.196702 188.387375 133.684221 188.73543 
Q 135.171741 189.082623 137.908777 189.082623 
Q 138.65452 189.082623 139.293162 189.062808 
Q 139.931803 189.042132 140.439543 188.999055 
L 140.439543 188.218517 
L 137.524005 188.218517 
L 137.524005 187.523269 
L 144.961603 187.523269 
L 144.961603 189.456523 
z
" clip-path="url(#p486aa30f79)" style="fill: #ffa600"/>
   </g>
   <g id="patch_13">
    <path d="M 139.522562 184.3775 
L 132.715619 184.3775 
L 131.640839 185.663244 
L 127.262104 185.663244 
L 133.515372 178.605262 
L 138.708335 178.605262 
L 144.961603 185.663244 
L 140.586486 185.663244 
L 139.522562 184.3775 
z
M 133.801256 183.067553 
L 138.426069 183.067553 
L 136.117281 180.260091 
L 133.801256 183.067553 
z
" clip-path="url(#p486aa30f79)" style="fill: #008000"/>
   </g>
   <g id="patch_14">
    <path d="M 127.262104 166.574611 
L 144.961603 166.574611 
L 144.961603 168.920924 
L 138.593899 168.920924 
L 138.593899 178.605262 
L 133.642156 178.605262 
L 133.642156 168.920924 
L 127.262104 168.920924 
L 127.262104 166.574611 
z
" clip-path="url(#p486aa30f79)" style="fill: #ff0000"/>
   </g>
   <g id="patch_15">
    <path d="M 163.592654 192.166718 
Q 162.112122 192.203042 160.511185 192.221416 
Q 158.910247 192.24 157.166608 192.24 
Q 151.966906 192.24 148.930031 192.102307 
Q 145.893155 191.964614 145.893155 191.729141 
Q 145.893155 191.492824 148.930031 191.355342 
Q 151.966906 191.217649 157.166608 191.217649 
Q 158.910247 191.217649 160.511185 191.236233 
Q 162.112122 191.254606 163.592654 191.29093 
L 163.592654 191.494725 
Q 162.098744 191.446574 160.649427 191.424189 
Q 159.200111 191.401803 157.599173 191.401803 
Q 154.727297 191.401803 153.081765 191.489023 
Q 151.440693 191.576031 151.440693 191.729141 
Q 151.440693 191.881617 153.081765 191.968837 
Q 154.727297 192.055846 157.599173 192.055846 
Q 159.200111 192.055846 160.649427 192.03346 
Q 162.098744 192.010863 163.592654 191.962713 
L 163.592654 192.166718 
z
" clip-path="url(#p486aa30f79)" style="fill: #0000ff"/>
   </g>
   <g id="patch_16">
    <path d="M 145.893155 189.405299 
L 163.592654 189.405299 
L 163.592654 189.758758 
L 157.224951 189.758758 
L 157.224951 191.217649 
L 152.273207 191.217649 
L 152.273207 189.758758 
L 145.893155 189.758758 
L 145.893155 189.405299 
z
" clip-path="url(#p486aa30f79)" style="fill: #ff0000"/>
   </g>
   <g id="patch_17">
    <path d="M 158.153614 189.024352 
L 151.346671 189.024352 
L 150.27189 189.405299 
L 145.893155 189.405299 
L 152.146423 187.314126 
L 157.339386 187.314126 
L 163.592654 189.405299 
L 159.217538 189.405299 
L 158.153614 189.024352 
z
M 152.432308 188.636235 
L 157.057121 188.636235 
L 154.748333 187.804427 
L 152.432308 188.636235 
z
" clip-path="url(#p486aa30f79)" style="fill: #008000"/>
   </g>
   <g id="patch_18">
    <path d="M 163.592654 187.087082 
Q 161.807631 187.200604 159.887739 187.257624 
Q 157.967847 187.314126 155.92102 187.314126 
Q 151.295826 187.314126 148.594491 186.976152 
Q 145.893155 186.638177 145.893155 186.0602 
Q 145.893155 185.475484 148.642091 185.140101 
Q 151.394994 184.804719 156.182824 184.804719 
Q 158.027348 184.804719 159.71717 184.850335 
Q 161.410959 184.895433 162.910379 184.984591 
L 162.910379 185.484814 
Q 161.363358 185.370255 159.832205 185.313754 
Q 158.301052 185.256733 156.761965 185.256733 
Q 153.913861 185.256733 152.370807 185.465116 
Q 150.827753 185.672981 150.827753 186.0602 
Q 150.827753 186.44379 152.315273 186.65321 
Q 153.802792 186.862111 156.539828 186.862111 
Q 157.285572 186.862111 157.924213 186.850189 
Q 158.562855 186.837748 159.070595 186.81183 
L 159.070595 186.342191 
L 156.155057 186.342191 
L 156.155057 185.92387 
L 163.592654 185.92387 
L 163.592654 187.087082 
z
" clip-path="url(#p486aa30f79)" style="fill: #ffa600"/>
   </g>
   <g id="patch_19">
    <path d="M 182.223706 192.10508 
Q 180.438683 192.17254 178.518791 192.206424 
Q 176.598899 192.24 174.552072 192.24 
Q 169.926878 192.24 167.225542 192.03916 
Q 164.524207 191.83832 164.524207 191.49486 
Q 164.524207 191.147395 167.273143 190.948095 
Q 170.026046 190.748795 174.813876 190.748795 
Q 176.6584 190.748795 178.348222 190.775903 
Q 180.042011 190.802702 181.541431 190.855684 
L 181.541431 191.152939 
Q 179.99441 191.084863 178.463257 191.051287 
Q 176.932103 191.017403 175.393016 191.017403 
Q 172.544912 191.017403 171.001859 191.141234 
Q 169.458805 191.264757 169.458805 191.49486 
Q 169.458805 191.722807 170.946325 191.847254 
Q 172.433844 191.971392 175.17088 191.971392 
Q 175.916623 191.971392 176.555265 191.964307 
Q 177.193907 191.956914 177.701647 191.941513 
L 177.701647 191.662432 
L 174.786108 191.662432 
L 174.786108 191.413846 
L 182.223706 191.413846 
L 182.223706 192.10508 
z
" clip-path="url(#p486aa30f79)" style="fill: #ffa600"/>
   </g>
   <g id="patch_20">
    <path d="M 176.784666 190.232658 
L 169.977723 190.232658 
L 168.902942 190.748795 
L 164.524207 190.748795 
L 170.777475 187.915507 
L 175.970438 187.915507 
L 182.223706 190.748795 
L 177.84859 190.748795 
L 176.784666 190.232658 
z
M 171.06336 189.706806 
L 175.688172 189.706806 
L 173.379385 188.579806 
L 171.06336 189.706806 
z
" clip-path="url(#p486aa30f79)" style="fill: #008000"/>
   </g>
   <g id="patch_21">
    <path d="M 164.524207 185.007658 
L 182.223706 185.007658 
L 182.223706 185.57477 
L 175.856003 185.57477 
L 175.856003 187.915507 
L 170.904259 187.915507 
L 170.904259 185.57477 
L 164.524207 185.57477 
L 164.524207 185.007658 
z
" clip-path="url(#p486aa30f79)" style="fill: #ff0000"/>
   </g>
   <g id="patch_22">
    <path d="M 182.223706 184.670959 
Q 180.743174 184.837853 179.142236 184.92227 
Q 177.541299 185.007658 175.79766 185.007658 
Q 170.597958 185.007658 167.561083 184.375013 
Q 164.524207 183.742367 164.524207 182.660466 
Q 164.524207 181.574684 167.561083 180.943009 
Q 170.597958 180.310364 175.79766 180.310364 
Q 177.541299 180.310364 179.142236 180.395751 
Q 180.743174 180.480169 182.223706 180.647063 
L 182.223706 181.583417 
Q 180.729795 181.362185 179.280479 181.259332 
Q 177.831162 181.156478 176.230225 181.156478 
Q 173.358349 181.156478 171.712817 181.557218 
Q 170.071745 181.956988 170.071745 182.660466 
Q 170.071745 183.361034 171.712817 183.761774 
Q 173.358349 184.161543 176.230225 184.161543 
Q 177.831162 184.161543 179.280479 184.05869 
Q 180.729795 183.954866 182.223706 183.733635 
L 182.223706 184.670959 
z
" clip-path="url(#p486aa30f79)" style="fill: #0000ff"/>
   </g>
   <g id="patch_23">
    <path d="M 200.854758 191.79902 
Q 199.374225 192.017604 197.773288 192.128166 
Q 196.172351 192.24 194.428711 192.24 
Q 189.22901 192.24 186.192134 191.411415 
Q 183.155259 190.58283 183.155259 189.165849 
Q 183.155259 187.743783 186.192134 186.916469 
Q 189.22901 186.087885 194.428711 186.087885 
Q 196.172351 186.087885 197.773288 186.199718 
Q 199.374225 186.310281 200.854758 186.528865 
L 200.854758 187.755221 
Q 199.360847 187.46547 197.911531 187.330762 
Q 196.462214 187.196053 194.861277 187.196053 
Q 191.9894 187.196053 190.343869 187.720908 
Q 188.702796 188.244493 188.702796 189.165849 
Q 188.702796 190.083392 190.343869 190.608247 
Q 191.9894 191.131831 194.861277 191.131831 
Q 196.462214 191.131831 197.911531 190.997123 
Q 199.360847 190.861143 200.854758 190.571393 
L 200.854758 191.79902 
z
" clip-path="url(#p486aa30f79)" style="fill: #0000ff"/>
   </g>
   <g id="patch_24">
    <path d="M 200.854758 185.475596 
Q 199.069734 185.78174 197.149843 185.935511 
Q 195.229951 186.087885 193.183124 186.087885 
Q 188.55793 186.087885 185.856594 185.176441 
Q 183.155259 184.264998 183.155259 182.706318 
Q 183.155259 181.129465 185.904195 180.225011 
Q 188.657098 179.320558 193.444927 179.320558 
Q 195.289451 179.320558 196.979274 179.443575 
Q 198.673063 179.565194 200.172482 179.805636 
L 200.172482 181.154628 
Q 198.625462 180.845688 197.094309 180.693314 
Q 195.563155 180.539543 194.024068 180.539543 
Q 191.175964 180.539543 189.632911 181.101507 
Q 188.089857 181.662072 188.089857 182.706318 
Q 188.089857 183.740778 189.577376 184.305538 
Q 191.064896 184.868899 193.801932 184.868899 
Q 194.547675 184.868899 195.186317 184.836747 
Q 195.824959 184.803197 196.332699 184.733301 
L 196.332699 183.466786 
L 193.41716 183.466786 
L 193.41716 182.338665 
L 200.854758 182.338665 
L 200.854758 185.475596 
z
" clip-path="url(#p486aa30f79)" style="fill: #ffa600"/>
   </g>
   <g id="patch_25">
    <path d="M 183.155259 170.092385 
L 200.854758 170.092385 
L 200.854758 171.892135 
L 194.487054 171.892135 
L 194.487054 179.320558 
L 189.535311 179.320558 
L 189.535311 171.892135 
L 183.155259 171.892135 
L 183.155259 170.092385 
z
" clip-path="url(#p486aa30f79)" style="fill: #ff0000"/>
   </g>
   <g id="patch_26">
    <path d="M 195.415717 156.195407 
L 188.608774 156.195407 
L 187.533994 170.092385 
L 183.155259 170.092385 
L 189.408527 93.806154 
L 194.60149 93.806154 
L 200.854758 170.092385 
L 196.479641 170.092385 
L 195.415717 156.195407 
z
M 189.694411 142.03684 
L 194.319224 142.03684 
L 192.010437 111.692381 
L 189.694411 142.03684 
z
" clip-path="url(#p486aa30f79)" style="fill: #008000"/>
   </g>
   <g id="patch_27">
    <path d="M 219.48581 191.990146 
Q 217.700786 192.115073 215.780894 192.177822 
Q 213.861002 192.24 211.814176 192.24 
Q 207.188981 192.24 204.487646 191.868071 
Q 201.786311 191.496143 201.786311 190.860099 
Q 201.786311 190.216639 204.535247 189.847563 
Q 207.288149 189.478486 212.075979 189.478486 
Q 213.920503 189.478486 215.610325 189.528685 
Q 217.304114 189.578314 218.803534 189.67643 
L 218.803534 190.226907 
Q 217.256514 190.100839 215.72536 190.038661 
Q 214.194207 189.975912 212.65512 189.975912 
Q 209.807016 189.975912 208.263962 190.20523 
Q 206.720909 190.433978 206.720909 190.860099 
Q 206.720909 191.282226 208.208428 191.512685 
Q 209.695948 191.742574 212.432984 191.742574 
Q 213.178727 191.742574 213.817369 191.729454 
Q 214.45601 191.715763 214.96375 191.687241 
L 214.96375 191.17042 
L 212.048212 191.17042 
L 212.048212 190.710072 
L 219.48581 190.710072 
L 219.48581 191.990146 
z
" clip-path="url(#p486aa30f79)" style="fill: #ffa600"/>
   </g>
   <g id="patch_28">
    <path d="M 219.48581 189.223987 
Q 218.005277 189.350137 216.40434 189.413945 
Q 214.803402 189.478486 213.059763 189.478486 
Q 207.860062 189.478486 204.823186 189.000292 
Q 201.786311 188.522098 201.786311 187.704328 
Q 201.786311 186.883623 204.823186 186.406163 
Q 207.860062 185.927969 213.059763 185.927969 
Q 214.803402 185.927969 216.40434 185.99251 
Q 218.005277 186.056318 219.48581 186.182468 
L 219.48581 186.890224 
Q 217.991899 186.723003 216.542582 186.64526 
Q 215.093266 186.567517 213.492328 186.567517 
Q 210.620452 186.567517 208.97492 186.870422 
Q 207.333848 187.172593 207.333848 187.704328 
Q 207.333848 188.233862 208.97492 188.536767 
Q 210.620452 188.838938 213.492328 188.838938 
Q 215.093266 188.838938 216.542582 188.761195 
Q 217.991899 188.682719 219.48581 188.515497 
L 219.48581 189.223987 
z
" clip-path="url(#p486aa30f79)" style="fill: #0000ff"/>
   </g>
   <g id="patch_29">
    <path d="M 201.786311 181.193945 
L 219.48581 181.193945 
L 219.48581 182.117212 
L 213.118106 182.117212 
L 213.118106 185.927969 
L 208.166363 185.927969 
L 208.166363 182.117212 
L 201.786311 182.117212 
L 201.786311 181.193945 
z
" clip-path="url(#p486aa30f79)" style="fill: #ff0000"/>
   </g>
   <g id="patch_30">
    <path d="M 214.046769 179.37334 
L 207.239826 179.37334 
L 206.165046 181.193945 
L 201.786311 181.193945 
L 208.039579 171.199895 
L 213.232542 171.199895 
L 219.48581 181.193945 
L 215.110693 181.193945 
L 214.046769 179.37334 
z
M 208.325463 177.518465 
L 212.950276 177.518465 
L 210.641488 173.543121 
L 208.325463 177.518465 
z
" clip-path="url(#p486aa30f79)" style="fill: #008000"/>
   </g>
   <g id="patch_31">
    <path d="M 220.417362 186.847341 
L 238.116861 186.847341 
L 238.116861 187.89906 
L 231.749158 187.89906 
L 231.749158 192.24 
L 226.797414 192.24 
L 226.797414 187.89906 
L 220.417362 187.89906 
L 220.417362 186.847341 
z
" clip-path="url(#p486aa30f79)" style="fill: #ff0000"/>
   </g>
   <g id="patch_32">
    <path d="M 238.116861 186.38349 
Q 236.636329 186.613411 235.035392 186.729707 
Q 233.434454 186.847341 231.690815 186.847341 
Q 226.491113 186.847341 223.454238 185.975782 
Q 220.417362 185.104224 220.417362 183.613751 
Q 220.417362 182.117931 223.454238 181.247709 
Q 226.491113 180.376151 231.690815 180.376151 
Q 233.434454 180.376151 235.035392 180.493784 
Q 236.636329 180.610081 238.116861 180.840002 
L 238.116861 182.129962 
Q 236.622951 181.825184 235.173634 181.683489 
Q 233.724318 181.541794 232.12338 181.541794 
Q 229.251504 181.541794 227.605972 182.09387 
Q 225.9649 182.64461 225.9649 183.613751 
Q 225.9649 184.578882 227.605972 185.130958 
Q 229.251504 185.681698 232.12338 185.681698 
Q 233.724318 185.681698 235.173634 185.540003 
Q 236.622951 185.396971 238.116861 185.092193 
L 238.116861 186.38349 
z
" clip-path="url(#p486aa30f79)" style="fill: #0000ff"/>
   </g>
   <g id="patch_33">
    <path d="M 238.116861 179.400326 
Q 236.331838 179.888238 234.411946 180.133308 
Q 232.492054 180.376151 230.445227 180.376151 
Q 225.820033 180.376151 223.118698 178.923553 
Q 220.417362 177.470954 220.417362 174.986834 
Q 220.417362 172.47375 223.166298 171.032291 
Q 225.919201 169.590833 230.707031 169.590833 
Q 232.551555 169.590833 234.241377 169.786889 
Q 235.935166 169.980717 237.434586 170.363918 
L 237.434586 172.513852 
Q 235.887565 172.021484 234.356412 171.778642 
Q 232.825259 171.533571 231.286172 171.533571 
Q 228.438068 171.533571 226.895014 172.429192 
Q 225.35196 173.322584 225.35196 174.986834 
Q 225.35196 176.635488 226.83948 177.535564 
Q 228.327 178.433412 231.064035 178.433412 
Q 231.809779 178.433412 232.44842 178.38217 
Q 233.087062 178.3287 233.594802 178.217305 
L 233.594802 176.198817 
L 230.679264 176.198817 
L 230.679264 174.400893 
L 238.116861 174.400893 
L 238.116861 179.400326 
z
" clip-path="url(#p486aa30f79)" style="fill: #ffa600"/>
   </g>
   <g id="patch_34">
    <path d="M 232.677821 157.998812 
L 225.870878 157.998812 
L 224.796097 169.590833 
L 220.417362 169.590833 
L 226.67063 105.957459 
L 231.863593 105.957459 
L 238.116861 169.590833 
L 233.741745 169.590833 
L 232.677821 157.998812 
z
M 226.956515 146.188589 
L 231.581328 146.188589 
L 229.27254 120.877071 
L 226.956515 146.188589 
z
" clip-path="url(#p486aa30f79)" style="fill: #008000"/>
   </g>
   <g id="patch_35">
    <path d="M 256.747913 191.934954 
Q 255.267381 192.086158 253.666443 192.16264 
Q 252.065506 192.24 250.321867 192.24 
Q 245.122165 192.24 242.08529 191.66683 
Q 239.048414 191.09366 239.048414 190.113468 
Q 239.048414 189.12976 242.08529 188.557469 
Q 245.122165 187.984299 250.321867 187.984299 
Q 252.065506 187.984299 253.666443 188.061659 
Q 255.267381 188.138141 256.747913 188.289345 
L 256.747913 189.137672 
Q 255.254002 188.937238 253.804686 188.844054 
Q 252.355369 188.75087 250.754432 188.75087 
Q 247.882556 188.75087 246.237024 189.113937 
Q 244.595952 189.476124 244.595952 190.113468 
Q 244.595952 190.748175 246.237024 191.111241 
Q 247.882556 191.473429 250.754432 191.473429 
Q 252.355369 191.473429 253.804686 191.380245 
Q 255.254002 191.286181 256.747913 191.085748 
L 256.747913 191.934954 
z
" clip-path="url(#p486aa30f79)" style="fill: #0000ff"/>
   </g>
   <g id="patch_36">
    <path d="M 251.308873 187.053991 
L 244.50193 187.053991 
L 243.427149 187.984299 
L 239.048414 187.984299 
L 245.301682 182.877458 
L 250.494645 182.877458 
L 256.747913 187.984299 
L 252.372797 187.984299 
L 251.308873 187.053991 
z
M 245.587567 186.106172 
L 250.212379 186.106172 
L 247.903592 184.074818 
L 245.587567 186.106172 
z
" clip-path="url(#p486aa30f79)" style="fill: #008000"/>
   </g>
   <g id="patch_37">
    <path d="M 256.747913 182.030361 
Q 254.96289 182.453909 253.042998 182.66665 
Q 251.123106 182.877458 249.076279 182.877458 
Q 244.451085 182.877458 241.74975 181.616483 
Q 239.048414 180.355509 239.048414 178.199087 
Q 239.048414 176.017524 241.79735 174.76622 
Q 244.550253 173.514915 249.338083 173.514915 
Q 251.182607 173.514915 252.872429 173.685108 
Q 254.566218 173.853367 256.065638 174.186017 
L 256.065638 176.052336 
Q 254.518617 175.62492 252.987464 175.414113 
Q 251.45631 175.201372 249.917223 175.201372 
Q 247.069119 175.201372 245.526066 175.978844 
Q 243.983012 176.754382 243.983012 178.199087 
Q 243.983012 179.630255 245.470532 180.411595 
Q 246.958051 181.191001 249.695087 181.191001 
Q 250.44083 181.191001 251.079472 181.146519 
Q 251.718114 181.100102 252.225854 181.003402 
L 252.225854 179.251189 
L 249.310315 179.251189 
L 249.310315 177.690443 
L 256.747913 177.690443 
L 256.747913 182.030361 
z
" clip-path="url(#p486aa30f79)" style="fill: #ffa600"/>
   </g>
   <g id="patch_38">
    <path d="M 239.048414 56.057564 
L 256.747913 56.057564 
L 256.747913 78.96502 
L 250.38021 78.96502 
L 250.38021 173.514915 
L 245.428466 173.514915 
L 245.428466 78.96502 
L 239.048414 78.96502 
L 239.048414 56.057564 
z
" clip-path="url(#p486aa30f79)" style="fill: #ff0000"/>
   </g>
   <g id="patch_39">
    <path d="M 269.939924 191.870049 
L 263.132981 191.870049 
L 262.058201 192.24 
L 257.679466 192.24 
L 263.932734 190.209187 
L 269.125697 190.209187 
L 275.378965 192.24 
L 271.003849 192.24 
L 269.939924 191.870049 
z
M 264.218618 191.493134 
L 268.843431 191.493134 
L 266.534644 190.685336 
L 264.218618 191.493134 
z
" clip-path="url(#p486aa30f79)" style="fill: #008000"/>
   </g>
   <g id="patch_40">
    <path d="M 275.378965 189.918052 
Q 273.898432 190.062361 272.297495 190.135355 
Q 270.696558 190.209187 268.952919 190.209187 
Q 263.753217 190.209187 260.716341 189.662155 
Q 257.679466 189.115124 257.679466 188.179633 
Q 257.679466 187.240785 260.716341 186.694593 
Q 263.753217 186.147561 268.952919 186.147561 
Q 270.696558 186.147561 272.297495 186.221394 
Q 273.898432 186.294387 275.378965 186.438696 
L 275.378965 187.248336 
Q 273.885054 187.057043 272.435738 186.968109 
Q 270.986421 186.879174 269.385484 186.879174 
Q 266.513607 186.879174 264.868076 187.225683 
Q 263.227003 187.571354 263.227003 188.179633 
Q 263.227003 188.785395 264.868076 189.131904 
Q 266.513607 189.477574 269.385484 189.477574 
Q 270.986421 189.477574 272.435738 189.38864 
Q 273.885054 189.298866 275.378965 189.107573 
L 275.378965 189.918052 
z
" clip-path="url(#p486aa30f79)" style="fill: #0000ff"/>
   </g>
   <g id="patch_41">
    <path d="M 275.378965 185.412592 
Q 273.593941 185.780077 271.67405 185.964658 
Q 269.754158 186.147561 267.707331 186.147561 
Q 263.082137 186.147561 260.380801 185.053498 
Q 257.679466 183.959435 257.679466 182.088452 
Q 257.679466 180.195656 260.428402 179.109983 
Q 263.181305 178.02431 267.969134 178.02431 
Q 269.813659 178.02431 271.503481 178.171974 
Q 273.19727 178.317961 274.696689 178.606579 
L 274.696689 180.22586 
Q 273.149669 179.85502 271.618516 179.672116 
Q 270.087362 179.487535 268.548275 179.487535 
Q 265.700171 179.487535 264.157118 180.162096 
Q 262.614064 180.834978 262.614064 182.088452 
Q 262.614064 183.330181 264.101583 184.008097 
Q 265.589103 184.684336 268.326139 184.684336 
Q 269.071882 184.684336 269.710524 184.645741 
Q 270.349166 184.605469 270.856906 184.521568 
L 270.856906 183.00129 
L 267.941367 183.00129 
L 267.941367 181.647135 
L 275.378965 181.647135 
L 275.378965 185.412592 
z
" clip-path="url(#p486aa30f79)" style="fill: #ffa600"/>
   </g>
   <g id="patch_42">
    <path d="M 257.679466 29.774966 
L 275.378965 29.774966 
L 275.378965 58.687718 
L 269.011261 58.687718 
L 269.011261 178.02431 
L 264.059518 178.02431 
L 264.059518 58.687718 
L 257.679466 58.687718 
L 257.679466 29.774966 
z
" clip-path="url(#p486aa30f79)" style="fill: #ff0000"/>
   </g>
   <g id="patch_43">
    <path d="M 294.010017 192.001726 
Q 292.529484 192.119833 290.928547 192.179573 
Q 289.32761 192.24 287.58397 192.24 
Q 282.384269 192.24 279.347393 191.792292 
Q 276.310518 191.344585 276.310518 190.57895 
Q 276.310518 189.810568 279.347393 189.363547 
Q 282.384269 188.91584 287.58397 188.91584 
Q 289.32761 188.91584 290.928547 188.976266 
Q 292.529484 189.036007 294.010017 189.154114 
L 294.010017 189.816748 
Q 292.516106 189.660188 291.066789 189.587401 
Q 289.617473 189.514614 288.016535 189.514614 
Q 285.144659 189.514614 283.499127 189.798208 
Q 281.858055 190.081115 281.858055 190.57895 
Q 281.858055 191.074724 283.499127 191.358318 
Q 285.144659 191.641225 288.016535 191.641225 
Q 289.617473 191.641225 291.066789 191.568439 
Q 292.516106 191.494965 294.010017 191.338405 
L 294.010017 192.001726 
z
" clip-path="url(#p486aa30f79)" style="fill: #0000ff"/>
   </g>
   <g id="patch_44">
    <path d="M 294.010017 188.615079 
Q 292.224993 188.765459 290.305101 188.840993 
Q 288.385209 188.91584 286.338383 188.91584 
Q 281.713188 188.91584 279.011853 188.468132 
Q 276.310518 188.020424 276.310518 187.25479 
Q 276.310518 186.480228 279.059454 186.035954 
Q 281.812356 185.591679 286.600186 185.591679 
Q 288.44471 185.591679 290.134532 185.652106 
Q 291.828321 185.711846 293.327741 185.829953 
L 293.327741 186.492588 
Q 291.780721 186.340834 290.249567 186.265987 
Q 288.718414 186.190454 287.179327 186.190454 
Q 284.331223 186.190454 282.788169 186.466495 
Q 281.245116 186.741848 281.245116 187.25479 
Q 281.245116 187.762924 282.732635 188.040338 
Q 284.220155 188.317065 286.957191 188.317065 
Q 287.702934 188.317065 288.341576 188.301272 
Q 288.980217 188.284792 289.487957 188.250458 
L 289.487957 187.628337 
L 286.572419 187.628337 
L 286.572419 187.074196 
L 294.010017 187.074196 
L 294.010017 188.615079 
z
" clip-path="url(#p486aa30f79)" style="fill: #ffa600"/>
   </g>
   <g id="patch_45">
    <path d="M 288.570976 181.785311 
L 281.764033 181.785311 
L 280.689253 185.591679 
L 276.310518 185.591679 
L 282.563786 164.696958 
L 287.756749 164.696958 
L 294.010017 185.591679 
L 289.6349 185.591679 
L 288.570976 181.785311 
z
M 282.84967 177.907294 
L 287.474483 177.907294 
L 285.165695 169.595977 
L 282.84967 177.907294 
z
" clip-path="url(#p486aa30f79)" style="fill: #008000"/>
   </g>
   <g id="patch_46">
    <path d="M 276.310518 116.259193 
L 294.010017 116.259193 
L 294.010017 125.705907 
L 287.642313 125.705907 
L 287.642313 164.696958 
L 282.69057 164.696958 
L 282.69057 125.705907 
L 276.310518 125.705907 
L 276.310518 116.259193 
z
" clip-path="url(#p486aa30f79)" style="fill: #ff0000"/>
   </g>
   <g id="patch_47">
    <path d="M 312.641068 191.675694 
Q 310.856045 191.957847 308.936153 192.099568 
Q 307.016261 192.24 304.969434 192.24 
Q 300.34424 192.24 297.642905 191.399983 
Q 294.941569 190.559965 294.941569 189.123433 
Q 294.941569 187.670151 297.690505 186.836576 
Q 300.443408 186.003 305.231238 186.003 
Q 307.075762 186.003 308.765584 186.116377 
Q 310.459373 186.228465 311.958793 186.450064 
L 311.958793 187.693342 
Q 310.411772 187.408612 308.880619 187.26818 
Q 307.349466 187.126459 305.810379 187.126459 
Q 302.962275 187.126459 301.419221 187.644384 
Q 299.876167 188.16102 299.876167 189.123433 
Q 299.876167 190.076826 301.363687 190.597328 
Q 302.851207 191.116541 305.588242 191.116541 
Q 306.333986 191.116541 306.972627 191.086909 
Q 307.611269 191.055988 308.119009 190.991569 
L 308.119009 189.824306 
L 305.203471 189.824306 
L 305.203471 188.784591 
L 312.641068 188.784591 
L 312.641068 191.675694 
z
" clip-path="url(#p486aa30f79)" style="fill: #ffa600"/>
   </g>
   <g id="patch_48">
    <path d="M 312.641068 185.406914 
Q 311.160536 185.70238 309.559599 185.851831 
Q 307.958661 186.003 306.215022 186.003 
Q 301.01532 186.003 297.978445 184.882977 
Q 294.941569 183.762954 294.941569 181.847577 
Q 294.941569 179.925328 297.978445 178.807023 
Q 301.01532 177.687 306.215022 177.687 
Q 307.958661 177.687 309.559599 177.838169 
Q 311.160536 177.98762 312.641068 178.283086 
L 312.641068 179.940789 
Q 311.147158 179.549124 309.697841 179.367035 
Q 308.248525 179.184945 306.647587 179.184945 
Q 303.775711 179.184945 302.130179 179.894408 
Q 300.489107 180.602152 300.489107 181.847577 
Q 300.489107 183.087848 302.130179 183.79731 
Q 303.775711 184.505055 306.647587 184.505055 
Q 308.248525 184.505055 309.697841 184.322965 
Q 311.147158 184.139158 312.641068 183.747493 
L 312.641068 185.406914 
z
" clip-path="url(#p486aa30f79)" style="fill: #0000ff"/>
   </g>
   <g id="patch_49">
    <path d="M 294.941569 25.92 
L 312.641068 25.92 
L 312.641068 55.518793 
L 306.273365 55.518793 
L 306.273365 177.687 
L 301.321621 177.687 
L 301.321621 55.518793 
L 294.941569 55.518793 
L 294.941569 25.92 
z
" clip-path="url(#p486aa30f79)" style="fill: #ff0000"/>
   </g>
   <g id="patch_50">
    <path d="M 331.27212 192.041375 
Q 329.791588 192.139829 328.19065 192.189628 
Q 326.589713 192.24 324.846074 192.24 
Q 319.646372 192.24 316.609497 191.866792 
Q 313.572621 191.493584 313.572621 190.855352 
Q 313.572621 190.214831 316.609497 189.842195 
Q 319.646372 189.468987 324.846074 189.468987 
Q 326.589713 189.468987 328.19065 189.519359 
Q 329.791588 189.569158 331.27212 189.667612 
L 331.27212 190.219983 
Q 329.778209 190.089474 328.328893 190.028799 
Q 326.879576 189.968124 325.278639 189.968124 
Q 322.406763 189.968124 320.761231 190.204528 
Q 319.120159 190.440359 319.120159 190.855352 
Q 319.120159 191.268629 320.761231 191.505032 
Q 322.406763 191.740863 325.278639 191.740863 
Q 326.879576 191.740863 328.328893 191.680188 
Q 329.778209 191.618941 331.27212 191.488432 
L 331.27212 192.041375 
z
" clip-path="url(#p486aa30f79)" style="fill: #0000ff"/>
   </g>
   <g id="patch_51">
    <path d="M 313.572621 186.697974 
L 331.27212 186.697974 
L 331.27212 187.238399 
L 324.904417 187.238399 
L 324.904417 189.468987 
L 319.952673 189.468987 
L 319.952673 187.238399 
L 313.572621 187.238399 
L 313.572621 186.697974 
z
" clip-path="url(#p486aa30f79)" style="fill: #ff0000"/>
   </g>
   <g id="patch_52">
    <path d="M 325.83308 185.196709 
L 319.026137 185.196709 
L 317.951356 186.697974 
L 313.572621 186.697974 
L 319.825889 178.45691 
L 325.018852 178.45691 
L 331.27212 186.697974 
L 326.897004 186.697974 
L 325.83308 185.196709 
z
M 320.111774 183.667185 
L 324.736586 183.667185 
L 322.427799 180.389127 
L 320.111774 183.667185 
z
" clip-path="url(#p486aa30f79)" style="fill: #008000"/>
   </g>
   <g id="patch_53">
    <path d="M 331.27212 177.620114 
Q 329.487097 178.038512 327.567205 178.248667 
Q 325.647313 178.45691 323.600486 178.45691 
Q 318.975292 178.45691 316.273957 177.211268 
Q 313.572621 175.965625 313.572621 173.835424 
Q 313.572621 171.680386 316.321557 170.444296 
Q 319.07446 169.208205 323.86229 169.208205 
Q 325.706814 169.208205 327.396636 169.376329 
Q 329.090425 169.542542 330.589845 169.871147 
L 330.589845 171.714775 
Q 329.042824 171.292555 327.511671 171.084311 
Q 325.980517 170.874157 324.44143 170.874157 
Q 321.593326 170.874157 320.050273 171.642176 
Q 318.507219 172.408284 318.507219 173.835424 
Q 318.507219 175.24919 319.994739 176.02103 
Q 321.482258 176.790959 324.219294 176.790959 
Q 324.965037 176.790959 325.603679 176.747018 
Q 326.242321 176.701166 326.750061 176.605641 
L 326.750061 174.874733 
L 323.834523 174.874733 
L 323.834523 173.332964 
L 331.27212 173.332964 
L 331.27212 177.620114 
z
" clip-path="url(#p486aa30f79)" style="fill: #ffa600"/>
   </g>
   <g id="patch_54">
    <path d="M 349.903172 191.907571 
Q 348.422639 192.072348 346.821702 192.155695 
Q 345.220765 192.24 343.477126 192.24 
Q 338.277424 192.24 335.240548 191.615378 
Q 332.203673 190.990755 332.203673 189.922574 
Q 332.203673 188.850561 335.240548 188.226897 
Q 338.277424 187.602274 343.477126 187.602274 
Q 345.220765 187.602274 346.821702 187.686579 
Q 348.422639 187.769926 349.903172 187.934704 
L 349.903172 188.859183 
Q 348.409261 188.640757 346.959945 188.539208 
Q 345.510628 188.437659 343.909691 188.437659 
Q 341.037814 188.437659 339.392283 188.833317 
Q 337.75121 189.228017 337.75121 189.922574 
Q 337.75121 190.614257 339.392283 191.009915 
Q 341.037814 191.404615 343.909691 191.404615 
Q 345.510628 191.404615 346.959945 191.303066 
Q 348.409261 191.200559 349.903172 190.982133 
L 349.903172 191.907571 
z
" clip-path="url(#p486aa30f79)" style="fill: #0000ff"/>
   </g>
   <g id="patch_55">
    <path d="M 332.203673 181.919427 
L 349.903172 181.919427 
L 349.903172 183.027741 
L 343.535468 183.027741 
L 343.535468 187.602274 
L 338.583725 187.602274 
L 338.583725 183.027741 
L 332.203673 183.027741 
L 332.203673 181.919427 
z
" clip-path="url(#p486aa30f79)" style="fill: #ff0000"/>
   </g>
   <g id="patch_56">
    <path d="M 349.903172 181.28706 
Q 348.118149 181.603243 346.198257 181.762057 
Q 344.278365 181.919427 342.231538 181.919427 
Q 337.606344 181.919427 334.905008 180.978095 
Q 332.203673 180.036762 332.203673 178.426968 
Q 332.203673 176.798406 334.952609 175.864292 
Q 337.705512 174.930178 342.493341 174.930178 
Q 344.337866 174.930178 346.027688 175.057229 
Q 347.721477 175.182837 349.220896 175.431164 
L 349.220896 176.824393 
Q 347.673876 176.505322 346.142723 176.347952 
Q 344.611569 176.189138 343.072482 176.189138 
Q 340.224378 176.189138 338.681325 176.76953 
Q 337.138271 177.348479 337.138271 178.426968 
Q 337.138271 179.495352 338.62579 180.078631 
Q 340.11331 180.660467 342.850346 180.660467 
Q 343.596089 180.660467 344.234731 180.627261 
Q 344.873373 180.59261 345.381113 180.520422 
L 345.381113 179.212375 
L 342.465574 179.212375 
L 342.465574 178.047259 
L 349.903172 178.047259 
L 349.903172 181.28706 
z
" clip-path="url(#p486aa30f79)" style="fill: #ffa600"/>
   </g>
   <g id="patch_57">
    <path d="M 344.464131 170.467946 
L 337.657188 170.467946 
L 336.582408 174.930178 
L 332.203673 174.930178 
L 338.456941 150.435148 
L 343.649904 150.435148 
L 349.903172 174.930178 
L 345.528056 174.930178 
L 344.464131 170.467946 
z
M 338.742825 165.921719 
L 343.367638 165.921719 
L 341.058851 156.178303 
L 338.742825 165.921719 
z
" clip-path="url(#p486aa30f79)" style="fill: #008000"/>
   </g>
   <g id="patch_58">
    <path d="M 368.534224 192.019692 
Q 367.053691 192.128894 365.452754 192.184129 
Q 363.851817 192.24 362.108177 192.24 
Q 356.908476 192.24 353.8716 191.82605 
Q 350.834725 191.4121 350.834725 190.704194 
Q 350.834725 189.993749 353.8716 189.580434 
Q 356.908476 189.166484 362.108177 189.166484 
Q 363.851817 189.166484 365.452754 189.222355 
Q 367.053691 189.27759 368.534224 189.386792 
L 368.534224 189.999464 
Q 367.040313 189.854708 365.590996 189.787409 
Q 364.14168 189.720111 362.540743 189.720111 
Q 359.668866 189.720111 358.023334 189.982321 
Q 356.382262 190.243897 356.382262 190.704194 
Q 356.382262 191.162587 358.023334 191.424798 
Q 359.668866 191.686374 362.540743 191.686374 
Q 364.14168 191.686374 365.590996 191.619075 
Q 367.040313 191.551141 368.534224 191.406386 
L 368.534224 192.019692 
z
" clip-path="url(#p486aa30f79)" style="fill: #0000ff"/>
   </g>
   <g id="patch_59">
    <path d="M 368.534224 188.710428 
Q 366.7492 188.938456 364.829308 189.052991 
Q 362.909416 189.166484 360.86259 189.166484 
Q 356.237396 189.166484 353.53606 188.487606 
Q 350.834725 187.808728 350.834725 186.647763 
Q 350.834725 185.473262 353.583661 184.79959 
Q 356.336563 184.125918 361.124393 184.125918 
Q 362.968917 184.125918 364.658739 184.217546 
Q 366.352528 184.308133 367.851948 184.487223 
L 367.851948 185.492004 
Q 366.304928 185.261894 364.773774 185.1484 
Q 363.242621 185.033866 361.703534 185.033866 
Q 358.85543 185.033866 357.312376 185.452438 
Q 355.769323 185.869969 355.769323 186.647763 
Q 355.769323 187.418269 357.256842 187.838924 
Q 358.744362 188.258537 361.481398 188.258537 
Q 362.227141 188.258537 362.865783 188.234589 
Q 363.504424 188.209599 364.012164 188.157538 
L 364.012164 187.214189 
L 361.096626 187.214189 
L 361.096626 186.373921 
L 368.534224 186.373921 
L 368.534224 188.710428 
z
" clip-path="url(#p486aa30f79)" style="fill: #ffa600"/>
   </g>
   <g id="patch_60">
    <path d="M 350.834725 174.167727 
L 368.534224 174.167727 
L 368.534224 176.109852 
L 362.16652 176.109852 
L 362.16652 184.125918 
L 357.214777 184.125918 
L 357.214777 176.109852 
L 350.834725 176.109852 
L 350.834725 174.167727 
z
" clip-path="url(#p486aa30f79)" style="fill: #ff0000"/>
   </g>
   <g id="patch_61">
    <path d="M 363.095183 170.293227 
L 356.28824 170.293227 
L 355.21346 174.167727 
L 350.834725 174.167727 
L 357.087993 152.898998 
L 362.280956 152.898998 
L 368.534224 174.167727 
L 364.159107 174.167727 
L 363.095183 170.293227 
z
M 357.373877 166.345794 
L 361.99869 166.345794 
L 359.689902 157.885709 
L 357.373877 166.345794 
z
" clip-path="url(#p486aa30f79)" style="fill: #008000"/>
   </g>
   <g id="patch_62">
    <path d="M 387.165275 191.999711 
Q 385.380252 192.119856 383.46036 192.180202 
Q 381.540468 192.24 379.493641 192.24 
Q 374.868447 192.24 372.167112 191.88231 
Q 369.465776 191.524619 369.465776 190.912925 
Q 369.465776 190.294098 372.214712 189.939151 
Q 374.967615 189.584203 379.755445 189.584203 
Q 381.599969 189.584203 383.289791 189.63248 
Q 384.98358 189.680209 386.483 189.774569 
L 386.483 190.303973 
Q 384.93598 190.182731 383.404826 190.122933 
Q 381.873673 190.062587 380.334586 190.062587 
Q 377.486482 190.062587 375.943428 190.283126 
Q 374.400374 190.503117 374.400374 190.912925 
Q 374.400374 191.318892 375.887894 191.540529 
Q 377.375414 191.761616 380.112449 191.761616 
Q 380.858193 191.761616 381.496834 191.748999 
Q 382.135476 191.735832 382.643216 191.708402 
L 382.643216 191.211366 
L 379.727678 191.211366 
L 379.727678 190.768641 
L 387.165275 190.768641 
L 387.165275 191.999711 
z
" clip-path="url(#p486aa30f79)" style="fill: #ffa600"/>
   </g>
   <g id="patch_63">
    <path d="M 381.726235 188.38032 
L 374.919292 188.38032 
L 373.844512 189.584203 
L 369.465776 189.584203 
L 375.719044 182.975593 
L 380.912007 182.975593 
L 387.165275 189.584203 
L 382.790159 189.584203 
L 381.726235 188.38032 
z
M 376.004929 187.153775 
L 380.629742 187.153775 
L 378.320954 184.525061 
L 376.004929 187.153775 
z
" clip-path="url(#p486aa30f79)" style="fill: #008000"/>
   </g>
   <g id="patch_64">
    <path d="M 387.165275 182.360224 
Q 385.684743 182.665248 384.083806 182.819534 
Q 382.482868 182.975593 380.739229 182.975593 
Q 375.539527 182.975593 372.502652 181.819337 
Q 369.465776 180.663082 369.465776 178.685744 
Q 369.465776 176.701312 372.502652 175.54683 
Q 375.539527 174.390575 380.739229 174.390575 
Q 382.482868 174.390575 384.083806 174.546634 
Q 385.684743 174.70092 387.165275 175.005944 
L 387.165275 176.717273 
Q 385.671365 176.312938 384.222048 176.124958 
Q 382.772732 175.936978 381.171794 175.936978 
Q 378.299918 175.936978 376.654386 176.669391 
Q 375.013314 177.400031 375.013314 178.685744 
Q 375.013314 179.966137 376.654386 180.69855 
Q 378.299918 181.42919 381.171794 181.42919 
Q 382.772732 181.42919 384.222048 181.24121 
Q 385.671365 181.051456 387.165275 180.647122 
L 387.165275 182.360224 
z
" clip-path="url(#p486aa30f79)" style="fill: #0000ff"/>
   </g>
   <g id="patch_65">
    <path d="M 369.465776 152.711862 
L 387.165275 152.711862 
L 387.165275 156.939815 
L 380.797572 156.939815 
L 380.797572 174.390575 
L 375.845828 174.390575 
L 375.845828 156.939815 
L 369.465776 156.939815 
L 369.465776 152.711862 
z
" clip-path="url(#p486aa30f79)" style="fill: #ff0000"/>
   </g>
   <g id="patch_66">
    <path d="M 405.796327 192.05483 
Q 404.315795 192.146614 402.714857 192.19304 
Q 401.11392 192.24 399.370281 192.24 
Q 394.170579 192.24 391.133704 191.892072 
Q 388.096828 191.544143 388.096828 190.949143 
Q 388.096828 190.352009 391.133704 190.004614 
Q 394.170579 189.656686 399.370281 189.656686 
Q 401.11392 189.656686 402.714857 189.703645 
Q 404.315795 189.750071 405.796327 189.841856 
L 405.796327 190.356811 
Q 404.302416 190.235143 402.8531 190.178578 
Q 401.403783 190.122013 399.802846 190.122013 
Q 396.93097 190.122013 395.285438 190.342403 
Q 393.644366 190.56226 393.644366 190.949143 
Q 393.644366 191.334426 395.285438 191.554816 
Q 396.93097 191.774673 399.802846 191.774673 
Q 401.403783 191.774673 402.8531 191.718108 
Q 404.302416 191.661009 405.796327 191.539341 
L 405.796327 192.05483 
z
" clip-path="url(#p486aa30f79)" style="fill: #0000ff"/>
   </g>
   <g id="patch_67">
    <path d="M 405.796327 189.371726 
Q 404.011304 189.514206 402.091412 189.585771 
Q 400.17152 189.656686 398.124693 189.656686 
Q 393.499499 189.656686 390.798164 189.232499 
Q 388.096828 188.808312 388.096828 188.082901 
Q 388.096828 187.349033 390.845764 186.928099 
Q 393.598667 186.507165 398.386497 186.507165 
Q 400.231021 186.507165 401.920843 186.564418 
Q 403.614632 186.621019 405.114052 186.732921 
L 405.114052 187.360743 
Q 403.567031 187.216962 402.035878 187.146048 
Q 400.504724 187.074482 398.965637 187.074482 
Q 396.117533 187.074482 394.57448 187.336021 
Q 393.031426 187.596908 393.031426 188.082901 
Q 393.031426 188.56434 394.518946 188.82718 
Q 396.006465 189.089369 398.743501 189.089369 
Q 399.489244 189.089369 400.127886 189.074405 
Q 400.766528 189.058791 401.274268 189.026261 
L 401.274268 188.436824 
L 398.35873 188.436824 
L 398.35873 187.911795 
L 405.796327 187.911795 
L 405.796327 189.371726 
z
" clip-path="url(#p486aa30f79)" style="fill: #ffa600"/>
   </g>
   <g id="patch_68">
    <path d="M 388.096828 179.535755 
L 405.796327 179.535755 
L 405.796327 180.895374 
L 399.428624 180.895374 
L 399.428624 186.507165 
L 394.47688 186.507165 
L 394.47688 180.895374 
L 388.096828 180.895374 
L 388.096828 179.535755 
z
" clip-path="url(#p486aa30f79)" style="fill: #ff0000"/>
   </g>
   <g id="patch_69">
    <path d="M 400.357287 177.72427 
L 393.550344 177.72427 
L 392.475563 179.535755 
L 388.096828 179.535755 
L 394.350096 169.591764 
L 399.543059 169.591764 
L 405.796327 179.535755 
L 401.421211 179.535755 
L 400.357287 177.72427 
z
M 394.635981 175.878685 
L 399.260793 175.878685 
L 396.952006 171.923253 
L 394.635981 175.878685 
z
" clip-path="url(#p486aa30f79)" style="fill: #008000"/>
   </g>
   <g id="patch_70">
    <path d="M 424.427379 192.097752 
Q 422.946846 192.168261 421.345909 192.203925 
Q 419.744972 192.24 418.001333 192.24 
Q 412.801631 192.24 409.764755 191.972721 
Q 406.72788 191.705441 406.72788 191.24836 
Q 406.72788 190.78964 409.764755 190.52277 
Q 412.801631 190.255491 418.001333 190.255491 
Q 419.744972 190.255491 421.345909 190.291565 
Q 422.946846 190.32723 424.427379 190.397739 
L 424.427379 190.793329 
Q 422.933468 190.699864 421.484152 190.65641 
Q 420.034835 190.612957 418.433898 190.612957 
Q 415.562021 190.612957 413.91649 190.782261 
Q 412.275417 190.951155 412.275417 191.24836 
Q 412.275417 191.544335 413.91649 191.71364 
Q 415.562021 191.882534 418.433898 191.882534 
Q 420.034835 191.882534 421.484152 191.839081 
Q 422.933468 191.795217 424.427379 191.701752 
L 424.427379 192.097752 
z
" clip-path="url(#p486aa30f79)" style="fill: #0000ff"/>
   </g>
   <g id="patch_71">
    <path d="M 406.72788 187.814773 
L 424.427379 187.814773 
L 424.427379 188.290781 
L 418.059675 188.290781 
L 418.059675 190.255491 
L 413.107932 190.255491 
L 413.107932 188.290781 
L 406.72788 188.290781 
L 406.72788 187.814773 
z
" clip-path="url(#p486aa30f79)" style="fill: #ff0000"/>
   </g>
   <g id="patch_72">
    <path d="M 424.427379 187.428838 
Q 422.642356 187.621805 420.722464 187.71873 
Q 418.802572 187.814773 416.755745 187.814773 
Q 412.130551 187.814773 409.429215 187.240276 
Q 406.72788 186.665778 406.72788 185.683318 
Q 406.72788 184.689402 409.476816 184.11931 
Q 412.229719 183.549219 417.017548 183.549219 
Q 418.862073 183.549219 420.551895 183.626758 
Q 422.245684 183.703417 423.745103 183.854971 
L 423.745103 184.705262 
Q 422.198083 184.510533 420.66693 184.414489 
Q 419.135776 184.317565 417.596689 184.317565 
Q 414.748585 184.317565 413.205532 184.671779 
Q 411.662478 185.025113 411.662478 185.683318 
Q 411.662478 186.335354 413.149997 186.691331 
Q 414.637517 187.046427 417.374553 187.046427 
Q 418.120296 187.046427 418.758938 187.026161 
Q 419.39758 187.005014 419.90532 186.960957 
L 419.90532 186.162653 
L 416.989781 186.162653 
L 416.989781 185.45158 
L 424.427379 185.45158 
L 424.427379 187.428838 
z
" clip-path="url(#p486aa30f79)" style="fill: #ffa600"/>
   </g>
   <g id="patch_73">
    <path d="M 418.988338 182.472982 
L 412.181395 182.472982 
L 411.106615 183.549219 
L 406.72788 183.549219 
L 412.981148 177.641312 
L 418.174111 177.641312 
L 424.427379 183.549219 
L 420.052263 183.549219 
L 418.988338 182.472982 
z
M 413.267032 181.376487 
L 417.891845 181.376487 
L 415.583058 179.026492 
L 413.267032 181.376487 
z
" clip-path="url(#p486aa30f79)" style="fill: #008000"/>
   </g>
   <g id="patch_74">
    <path d="M 443.058431 192.036194 
Q 441.577898 192.137216 439.976961 192.188314 
Q 438.376024 192.24 436.632384 192.24 
Q 431.432683 192.24 428.395807 191.857056 
Q 425.358932 191.474112 425.358932 190.819231 
Q 425.358932 190.162001 428.395807 189.779644 
Q 431.432683 189.3967 436.632384 189.3967 
Q 438.376024 189.3967 439.976961 189.448386 
Q 441.577898 189.499485 443.058431 189.600507 
L 443.058431 190.167287 
Q 441.56452 190.033374 440.115203 189.971116 
Q 438.665887 189.908859 437.06495 189.908859 
Q 434.193073 189.908859 432.547541 190.151429 
Q 430.906469 190.393412 430.906469 190.819231 
Q 430.906469 191.243289 432.547541 191.485859 
Q 434.193073 191.727842 437.06495 191.727842 
Q 438.665887 191.727842 440.115203 191.665584 
Q 441.56452 191.602739 443.058431 191.468826 
L 443.058431 192.036194 
z
" clip-path="url(#p486aa30f79)" style="fill: #0000ff"/>
   </g>
   <g id="patch_75">
    <path d="M 443.058431 189.059055 
Q 441.273407 189.227878 439.353515 189.312675 
Q 437.433623 189.3967 435.386797 189.3967 
Q 430.761603 189.3967 428.060267 188.894087 
Q 425.358932 188.391473 425.358932 187.531942 
Q 425.358932 186.662389 428.107868 186.163629 
Q 430.86077 185.66487 435.6486 185.66487 
Q 437.493124 185.66487 439.182946 185.732707 
Q 440.876735 185.799774 442.376155 185.932365 
L 442.376155 186.676265 
Q 440.829135 186.5059 439.297981 186.421874 
Q 437.766828 186.337077 436.227741 186.337077 
Q 433.379637 186.337077 431.836583 186.646971 
Q 430.29353 186.956094 430.29353 187.531942 
Q 430.29353 188.102393 431.781049 188.413828 
Q 433.268569 188.724493 436.005605 188.724493 
Q 436.751348 188.724493 437.38999 188.706763 
Q 438.028631 188.688262 438.536371 188.649718 
L 438.536371 187.9513 
L 435.620833 187.9513 
L 435.620833 187.3292 
L 443.058431 187.3292 
L 443.058431 189.059055 
z
" clip-path="url(#p486aa30f79)" style="fill: #ffa600"/>
   </g>
   <g id="patch_76">
    <path d="M 437.61939 184.14336 
L 430.812447 184.14336 
L 429.737667 185.66487 
L 425.358932 185.66487 
L 431.6122 177.312678 
L 436.805163 177.312678 
L 443.058431 185.66487 
L 438.683314 185.66487 
L 437.61939 184.14336 
z
M 431.898084 182.593211 
L 436.522897 182.593211 
L 434.214109 179.27095 
L 431.898084 182.593211 
z
" clip-path="url(#p486aa30f79)" style="fill: #008000"/>
   </g>
   <g id="patch_77">
    <path d="M 425.358932 163.807005 
L 443.058431 163.807005 
L 443.058431 166.440987 
L 436.690727 166.440987 
L 436.690727 177.312678 
L 431.738984 177.312678 
L 431.738984 166.440987 
L 425.358932 166.440987 
L 425.358932 163.807005 
z
" clip-path="url(#p486aa30f79)" style="fill: #ff0000"/>
   </g>
   <g id="patch_78">
    <path d="M 461.689482 192.096861 
Q 460.20895 192.167812 458.608013 192.2037 
Q 457.007075 192.24 455.263436 192.24 
Q 450.063734 192.24 447.026859 191.971047 
Q 443.989983 191.702094 443.989983 191.242151 
Q 443.989983 190.780558 447.026859 190.512017 
Q 450.063734 190.243064 455.263436 190.243064 
Q 457.007075 190.243064 458.608013 190.279364 
Q 460.20895 190.315252 461.689482 190.386203 
L 461.689482 190.78427 
Q 460.195572 190.690219 458.746255 190.646493 
Q 457.296939 190.602768 455.696001 190.602768 
Q 452.824125 190.602768 451.178593 190.773132 
Q 449.537521 190.943085 449.537521 191.242151 
Q 449.537521 191.539979 451.178593 191.710344 
Q 452.824125 191.880296 455.696001 191.880296 
Q 457.296939 191.880296 458.746255 191.83657 
Q 460.195572 191.792432 461.689482 191.698381 
L 461.689482 192.096861 
z
" clip-path="url(#p486aa30f79)" style="fill: #0000ff"/>
   </g>
   <g id="patch_79">
    <path d="M 461.689482 189.845574 
Q 459.904459 190.044319 457.984567 190.144145 
Q 456.064675 190.243064 454.017848 190.243064 
Q 449.392654 190.243064 446.691319 189.651367 
Q 443.989983 189.059669 443.989983 188.047795 
Q 443.989983 187.024123 446.738919 186.436963 
Q 449.491822 185.849804 454.279652 185.849804 
Q 456.124176 185.849804 457.813998 185.929665 
Q 459.507787 186.008618 461.007207 186.16471 
L 461.007207 187.040458 
Q 459.460187 186.839898 457.929033 186.740979 
Q 456.39788 186.641153 454.858793 186.641153 
Q 452.010689 186.641153 450.467635 187.005972 
Q 448.924581 187.369884 448.924581 188.047795 
Q 448.924581 188.719353 450.412101 189.085987 
Q 451.899621 189.451714 454.636656 189.451714 
Q 455.3824 189.451714 456.021041 189.430841 
Q 456.659683 189.409061 457.167423 189.363686 
L 457.167423 188.541481 
L 454.251885 188.541481 
L 454.251885 187.80912 
L 461.689482 187.80912 
L 461.689482 189.845574 
z
" clip-path="url(#p486aa30f79)" style="fill: #ffa600"/>
   </g>
   <g id="patch_80">
    <path d="M 443.989983 177.782181 
L 461.689482 177.782181 
L 461.689482 179.355592 
L 455.321779 179.355592 
L 455.321779 185.849804 
L 450.370035 185.849804 
L 450.370035 179.355592 
L 443.989983 179.355592 
L 443.989983 177.782181 
z
" clip-path="url(#p486aa30f79)" style="fill: #ff0000"/>
   </g>
   <g id="patch_81">
    <path d="M 456.250442 175.759566 
L 449.443499 175.759566 
L 448.368719 177.782181 
L 443.989983 177.782181 
L 450.243251 166.679215 
L 455.436214 166.679215 
L 461.689482 177.782181 
L 457.314366 177.782181 
L 456.250442 175.759566 
z
M 450.529136 173.698878 
L 455.153949 173.698878 
L 452.845161 169.282439 
L 450.529136 173.698878 
z
" clip-path="url(#p486aa30f79)" style="fill: #008000"/>
   </g>
   <g id="patch_82">
    <path d="M 480.320534 191.919238 
Q 478.535511 192.079619 476.615619 192.160176 
Q 474.695727 192.24 472.6489 192.24 
Q 468.023706 192.24 465.322371 191.762518 
Q 462.621035 191.285037 462.621035 190.468485 
Q 462.621035 189.642412 465.369971 189.168592 
Q 468.122874 188.694772 472.910704 188.694772 
Q 474.755228 188.694772 476.44505 188.759217 
Q 478.138839 188.82293 479.638259 188.948892 
L 479.638259 189.655594 
Q 478.091238 189.493748 476.560085 189.413924 
Q 475.028931 189.333367 473.489844 189.333367 
Q 470.64174 189.333367 469.098687 189.627765 
Q 467.555633 189.921431 467.555633 190.468485 
Q 467.555633 191.010412 469.043153 191.306274 
Q 470.530672 191.601405 473.267708 191.601405 
Q 474.013451 191.601405 474.652093 191.584561 
Q 475.290735 191.566985 475.798475 191.530369 
L 475.798475 190.866874 
L 472.882937 190.866874 
L 472.882937 190.275881 
L 480.320534 190.275881 
L 480.320534 191.919238 
z
" clip-path="url(#p486aa30f79)" style="fill: #ffa600"/>
   </g>
   <g id="patch_83">
    <path d="M 480.320534 188.35451 
Q 478.840002 188.52317 477.239064 188.608481 
Q 475.638127 188.694772 473.894488 188.694772 
Q 468.694786 188.694772 465.657911 188.055432 
Q 462.621035 187.416092 462.621035 186.322743 
Q 462.621035 185.225471 465.657911 184.587112 
Q 468.694786 183.947772 473.894488 183.947772 
Q 475.638127 183.947772 477.239064 184.034063 
Q 478.840002 184.119374 480.320534 184.288034 
L 480.320534 185.234296 
Q 478.826623 185.010723 477.377307 184.906782 
Q 475.92799 184.80284 474.327053 184.80284 
Q 471.455177 184.80284 469.809645 185.20782 
Q 468.168573 185.61182 468.168573 186.322743 
Q 468.168573 187.030723 469.809645 187.435704 
Q 471.455177 187.839704 474.327053 187.839704 
Q 475.92799 187.839704 477.377307 187.735762 
Q 478.826623 187.63084 480.320534 187.407267 
L 480.320534 188.35451 
z
" clip-path="url(#p486aa30f79)" style="fill: #0000ff"/>
   </g>
   <g id="patch_84">
    <path d="M 462.621035 174.874392 
L 480.320534 174.874392 
L 480.320534 176.643954 
L 473.952831 176.643954 
L 473.952831 183.947772 
L 469.001087 183.947772 
L 469.001087 176.643954 
L 462.621035 176.643954 
L 462.621035 174.874392 
z
" clip-path="url(#p486aa30f79)" style="fill: #ff0000"/>
   </g>
   <g id="patch_85">
    <path d="M 474.881494 171.032249 
L 468.074551 171.032249 
L 466.99977 174.874392 
L 462.621035 174.874392 
L 468.874303 153.78329 
L 474.067266 153.78329 
L 480.320534 174.874392 
L 475.945418 174.874392 
L 474.881494 171.032249 
z
M 469.160188 167.117784 
L 473.785 167.117784 
L 471.476213 158.728353 
L 469.160188 167.117784 
z
" clip-path="url(#p486aa30f79)" style="fill: #008000"/>
   </g>
   <g id="patch_86">
    <path d="M 498.951586 191.939347 
Q 497.471053 192.088374 495.870116 192.163754 
Q 494.269179 192.24 492.52554 192.24 
Q 487.325838 192.24 484.288962 191.675083 
Q 481.252087 191.110167 481.252087 190.14409 
Q 481.252087 189.174548 484.288962 188.610498 
Q 487.325838 188.045581 492.52554 188.045581 
Q 494.269179 188.045581 495.870116 188.121827 
Q 497.471053 188.197207 498.951586 188.346234 
L 498.951586 189.182346 
Q 497.457675 188.984798 496.008359 188.892956 
Q 494.559042 188.801114 492.958105 188.801114 
Q 490.086228 188.801114 488.440697 189.158952 
Q 486.799624 189.515924 486.799624 190.14409 
Q 486.799624 190.769657 488.440697 191.127496 
Q 490.086228 191.484467 492.958105 191.484467 
Q 494.559042 191.484467 496.008359 191.392625 
Q 497.457675 191.299916 498.951586 191.102369 
L 498.951586 191.939347 
z
" clip-path="url(#p486aa30f79)" style="fill: #0000ff"/>
   </g>
   <g id="patch_87">
    <path d="M 498.951586 187.606552 
Q 497.166563 187.826067 495.246671 187.936325 
Q 493.326779 188.045581 491.279952 188.045581 
Q 486.654758 188.045581 483.953422 187.39205 
Q 481.252087 186.738519 481.252087 185.620901 
Q 481.252087 184.490252 484.001023 183.841733 
Q 486.753926 183.193214 491.541755 183.193214 
Q 493.38628 183.193214 495.076102 183.28142 
Q 496.769891 183.368625 498.26931 183.541029 
L 498.26931 184.508295 
Q 496.72229 184.286776 495.191137 184.17752 
Q 493.659983 184.067261 492.120896 184.067261 
Q 489.272792 184.067261 487.729739 184.470205 
Q 486.186685 184.872147 486.186685 185.620901 
Q 486.186685 186.362638 487.674205 186.767587 
Q 489.161724 187.171533 491.89876 187.171533 
Q 492.644503 187.171533 493.283145 187.148479 
Q 493.921787 187.124423 494.429527 187.074306 
L 494.429527 186.166178 
L 491.513988 186.166178 
L 491.513988 185.357283 
L 498.951586 185.357283 
L 498.951586 187.606552 
z
" clip-path="url(#p486aa30f79)" style="fill: #ffa600"/>
   </g>
   <g id="patch_88">
    <path d="M 481.252087 171.432392 
L 498.951586 171.432392 
L 498.951586 173.72608 
L 492.583882 173.72608 
L 492.583882 183.193214 
L 487.632139 183.193214 
L 487.632139 173.72608 
L 481.252087 173.72608 
L 481.252087 171.432392 
z
" clip-path="url(#p486aa30f79)" style="fill: #ff0000"/>
   </g>
   <g id="patch_89">
    <path d="M 493.512545 165.634277 
L 486.705603 165.634277 
L 485.630822 171.432392 
L 481.252087 171.432392 
L 487.505355 139.604153 
L 492.698318 139.604153 
L 498.951586 171.432392 
L 494.57647 171.432392 
L 493.512545 165.634277 
z
M 487.791239 159.727021 
L 492.416052 159.727021 
L 490.107265 147.066668 
L 487.791239 159.727021 
z
" clip-path="url(#p486aa30f79)" style="fill: #008000"/>
   </g>
   <g id="patch_90">
    <path d="M 517.582638 192.145015 
Q 516.102105 192.192097 514.501168 192.215912 
Q 512.900231 192.24 511.156591 192.24 
Q 505.95689 192.24 502.920014 192.061526 
Q 499.883139 191.883053 499.883139 191.577841 
Q 499.883139 191.271534 502.920014 191.093335 
Q 505.95689 190.914861 511.156591 190.914861 
Q 512.900231 190.914861 514.501168 190.93895 
Q 516.102105 190.962764 517.582638 191.009846 
L 517.582638 191.273998 
Q 516.088727 191.211587 514.63941 191.182571 
Q 513.190094 191.153556 511.589157 191.153556 
Q 508.71728 191.153556 507.071748 191.266607 
Q 505.430676 191.379385 505.430676 191.577841 
Q 505.430676 191.775476 507.071748 191.888527 
Q 508.71728 192.001305 511.589157 192.001305 
Q 513.190094 192.001305 514.63941 191.97229 
Q 516.088727 191.943 517.582638 191.880589 
L 517.582638 192.145015 
z
" clip-path="url(#p486aa30f79)" style="fill: #0000ff"/>
   </g>
   <g id="patch_91">
    <path d="M 499.883139 187.947296 
L 517.582638 187.947296 
L 517.582638 188.526054 
L 511.214934 188.526054 
L 511.214934 190.914861 
L 506.263191 190.914861 
L 506.263191 188.526054 
L 499.883139 188.526054 
L 499.883139 187.947296 
z
" clip-path="url(#p486aa30f79)" style="fill: #ff0000"/>
   </g>
   <g id="patch_92">
    <path d="M 512.143597 187.352299 
L 505.336654 187.352299 
L 504.261874 187.947296 
L 499.883139 187.947296 
L 506.136407 184.681109 
L 511.32937 184.681109 
L 517.582638 187.947296 
L 513.207521 187.947296 
L 512.143597 187.352299 
z
M 506.422291 186.746101 
L 511.047104 186.746101 
L 508.738316 185.446906 
L 506.422291 186.746101 
z
" clip-path="url(#p486aa30f79)" style="fill: #008000"/>
   </g>
   <g id="patch_93">
    <path d="M 517.582638 184.284274 
Q 515.797614 184.482691 513.877722 184.582353 
Q 511.957831 184.681109 509.911004 184.681109 
Q 505.28581 184.681109 502.584474 184.090386 
Q 499.883139 183.499664 499.883139 182.489456 
Q 499.883139 181.46747 502.632075 180.881278 
Q 505.384978 180.295086 510.172807 180.295086 
Q 512.017331 180.295086 513.707153 180.374815 
Q 515.400942 180.453638 516.900362 180.609473 
L 516.900362 181.483779 
Q 515.353342 181.283549 513.822188 181.184793 
Q 512.291035 181.085131 510.751948 181.085131 
Q 507.903844 181.085131 506.36079 181.44935 
Q 504.817737 181.812662 504.817737 182.489456 
Q 504.817737 183.159908 506.305256 183.525938 
Q 507.792776 183.891063 510.529812 183.891063 
Q 511.275555 183.891063 511.914197 183.870225 
Q 512.552838 183.84848 513.060578 183.803179 
L 513.060578 182.982329 
L 510.14504 182.982329 
L 510.14504 182.251174 
L 517.582638 182.251174 
L 517.582638 184.284274 
z
" clip-path="url(#p486aa30f79)" style="fill: #ffa600"/>
   </g>
   <g id="patch_94">
    <path d="M 536.213689 191.853304 
Q 534.733157 192.04498 533.13222 192.141933 
Q 531.531282 192.24 529.787643 192.24 
Q 524.587941 192.24 521.551066 191.513412 
Q 518.51419 190.786824 518.51419 189.54427 
Q 518.51419 188.297258 521.551066 187.571784 
Q 524.587941 186.845196 529.787643 186.845196 
Q 531.531282 186.845196 533.13222 186.943263 
Q 534.733157 187.040216 536.213689 187.231892 
L 536.213689 188.307287 
Q 534.719779 188.053204 533.270462 187.935078 
Q 531.821146 187.816952 530.220208 187.816952 
Q 527.348332 187.816952 525.7028 188.277198 
Q 524.061728 188.736331 524.061728 189.54427 
Q 524.061728 190.348865 525.7028 190.809112 
Q 527.348332 191.268244 530.220208 191.268244 
Q 531.821146 191.268244 533.270462 191.150118 
Q 534.719779 191.030877 536.213689 190.776795 
L 536.213689 191.853304 
z
" clip-path="url(#p486aa30f79)" style="fill: #0000ff"/>
   </g>
   <g id="patch_95">
    <path d="M 536.213689 186.229062 
Q 534.428666 186.537129 532.508774 186.691866 
Q 530.588882 186.845196 528.542055 186.845196 
Q 523.916861 186.845196 521.215526 185.928028 
Q 518.51419 185.010859 518.51419 183.442389 
Q 518.51419 181.855631 521.263126 180.945497 
Q 524.016029 180.035362 528.803859 180.035362 
Q 530.648383 180.035362 532.338205 180.159151 
Q 534.031994 180.281534 535.531414 180.523487 
L 535.531414 181.880952 
Q 533.984394 181.570071 532.45324 181.416741 
Q 530.922087 181.262004 529.383 181.262004 
Q 526.534896 181.262004 524.991842 181.827497 
Q 523.448788 182.391584 523.448788 183.442389 
Q 523.448788 184.483347 524.936308 185.051654 
Q 526.423828 185.618554 529.160864 185.618554 
Q 529.906607 185.618554 530.545248 185.5862 
Q 531.18389 185.552439 531.69163 185.482104 
L 531.69163 184.207634 
L 528.776092 184.207634 
L 528.776092 183.072427 
L 536.213689 183.072427 
L 536.213689 186.229062 
z
" clip-path="url(#p486aa30f79)" style="fill: #ffa600"/>
   </g>
   <g id="patch_96">
    <path d="M 530.774649 178.601491 
L 523.967706 178.601491 
L 522.892926 180.035362 
L 518.51419 180.035362 
L 524.767458 172.164255 
L 529.960421 172.164255 
L 536.213689 180.035362 
L 531.838573 180.035362 
L 530.774649 178.601491 
z
M 525.053343 177.14063 
L 529.678156 177.14063 
L 527.369368 174.009731 
L 525.053343 177.14063 
z
" clip-path="url(#p486aa30f79)" style="fill: #008000"/>
   </g>
   <g id="patch_97">
    <path d="M 518.51419 135.638779 
L 536.213689 135.638779 
L 536.213689 142.762265 
L 529.845986 142.762265 
L 529.845986 172.164255 
L 524.894242 172.164255 
L 524.894242 142.762265 
L 518.51419 142.762265 
L 518.51419 135.638779 
z
" clip-path="url(#p486aa30f79)" style="fill: #ff0000"/>
   </g>
   <g id="patch_98">
    <path d="M 549.405701 191.979298 
L 542.598758 191.979298 
L 541.523977 192.24 
L 537.145242 192.24 
L 543.39851 190.808901 
L 548.591473 190.808901 
L 554.844741 192.24 
L 550.469625 192.24 
L 549.405701 191.979298 
z
M 543.684395 191.713689 
L 548.309208 191.713689 
L 546.00042 191.144439 
L 543.684395 191.713689 
z
" clip-path="url(#p486aa30f79)" style="fill: #008000"/>
   </g>
   <g id="patch_99">
    <path d="M 554.844741 190.702556 
Q 553.364209 190.755269 551.763271 190.781932 
Q 550.162334 190.808901 548.418695 190.808901 
Q 543.218993 190.808901 540.182118 190.609083 
Q 537.145242 190.409266 537.145242 190.067553 
Q 537.145242 189.724614 540.182118 189.525103 
Q 543.218993 189.325285 548.418695 189.325285 
Q 550.162334 189.325285 551.763271 189.352254 
Q 553.364209 189.378917 554.844741 189.43163 
L 554.844741 189.727372 
Q 553.35083 189.657497 551.901514 189.625011 
Q 550.452197 189.592526 548.85126 189.592526 
Q 545.979384 189.592526 544.333852 189.719097 
Q 542.69278 189.845363 542.69278 190.067553 
Q 542.69278 190.288823 544.333852 190.415395 
Q 545.979384 190.54166 548.85126 190.54166 
Q 550.452197 190.54166 551.901514 190.509174 
Q 553.35083 190.476382 554.844741 190.406507 
L 554.844741 190.702556 
z
" clip-path="url(#p486aa30f79)" style="fill: #0000ff"/>
   </g>
   <g id="patch_100">
    <path d="M 537.145242 186.896355 
L 554.844741 186.896355 
L 554.844741 187.370064 
L 548.477038 187.370064 
L 548.477038 189.325285 
L 543.525294 189.325285 
L 543.525294 187.370064 
L 537.145242 187.370064 
L 537.145242 186.896355 
z
" clip-path="url(#p486aa30f79)" style="fill: #ff0000"/>
   </g>
   <g id="patch_101">
    <path d="M 554.844741 186.619573 
Q 553.059718 186.757964 551.139826 186.827476 
Q 549.219934 186.896355 547.173107 186.896355 
Q 542.547913 186.896355 539.846578 186.484342 
Q 537.145242 186.072328 537.145242 185.367734 
Q 537.145242 184.654925 539.894178 184.246071 
Q 542.647081 183.837217 547.434911 183.837217 
Q 549.279435 183.837217 550.969257 183.892827 
Q 552.663046 183.947804 554.162466 184.056495 
L 554.162466 184.6663 
Q 552.615445 184.526645 551.084292 184.457765 
Q 549.553138 184.388254 548.014052 184.388254 
Q 545.165947 184.388254 543.622894 184.642287 
Q 542.07984 184.895688 542.07984 185.367734 
Q 542.07984 185.835357 543.56736 186.090654 
Q 545.054879 186.345319 547.791915 186.345319 
Q 548.537658 186.345319 549.1763 186.330785 
Q 549.814942 186.315618 550.322682 186.284022 
L 550.322682 185.7115 
L 547.407144 185.7115 
L 547.407144 185.201539 
L 554.844741 185.201539 
L 554.844741 186.619573 
z
" clip-path="url(#p486aa30f79)" style="fill: #ffa600"/>
   </g>
   <g id="patch_102">
    <path d="M 573.475793 192.017602 
Q 571.69077 192.128801 569.770878 192.184654 
Q 567.850986 192.24 565.804159 192.24 
Q 561.178965 192.24 558.477629 191.908941 
Q 555.776294 191.577883 555.776294 191.011732 
Q 555.776294 190.43898 558.52523 190.11046 
Q 561.278133 189.78194 566.065962 189.78194 
Q 567.910487 189.78194 569.600309 189.826623 
Q 571.294098 189.870798 572.793517 189.958132 
L 572.793517 190.44812 
Q 571.246497 190.335905 569.715344 190.280559 
Q 568.18419 190.224706 566.645103 190.224706 
Q 563.796999 190.224706 562.253946 190.428825 
Q 560.710892 190.632436 560.710892 191.011732 
Q 560.710892 191.387473 562.198412 191.592608 
Q 563.685931 191.797234 566.422967 191.797234 
Q 567.16871 191.797234 567.807352 191.785556 
Q 568.445994 191.77337 568.953734 191.747982 
L 568.953734 191.287952 
L 566.038195 191.287952 
L 566.038195 190.878191 
L 573.475793 190.878191 
L 573.475793 192.017602 
z
" clip-path="url(#p486aa30f79)" style="fill: #ffa600"/>
   </g>
   <g id="patch_103">
    <path d="M 573.475793 189.454726 
Q 571.99526 189.616919 570.394323 189.698958 
Q 568.793386 189.78194 567.049747 189.78194 
Q 561.850045 189.78194 558.813169 189.167117 
Q 555.776294 188.552294 555.776294 187.50087 
Q 555.776294 186.445675 558.813169 185.831795 
Q 561.850045 185.216972 567.049747 185.216972 
Q 568.793386 185.216972 570.394323 185.299954 
Q 571.99526 185.381993 573.475793 185.544186 
L 573.475793 186.454162 
Q 571.981882 186.239163 570.532566 186.139207 
Q 569.083249 186.039251 567.482312 186.039251 
Q 564.610435 186.039251 562.964904 186.428702 
Q 561.323831 186.81721 561.323831 187.50087 
Q 561.323831 188.181702 562.964904 188.571153 
Q 564.610435 188.959661 567.482312 188.959661 
Q 569.083249 188.959661 570.532566 188.859705 
Q 571.981882 188.758806 573.475793 188.543807 
L 573.475793 189.454726 
z
" clip-path="url(#p486aa30f79)" style="fill: #0000ff"/>
   </g>
   <g id="patch_104">
    <path d="M 555.776294 172.692572 
L 573.475793 172.692572 
L 573.475793 175.135179 
L 567.108089 175.135179 
L 567.108089 185.216972 
L 562.156346 185.216972 
L 562.156346 175.135179 
L 555.776294 175.135179 
L 555.776294 172.692572 
z
" clip-path="url(#p486aa30f79)" style="fill: #ff0000"/>
   </g>
   <g id="patch_105">
    <path d="M 568.036752 169.43016 
L 561.22981 169.43016 
L 560.155029 172.692572 
L 555.776294 172.692572 
L 562.029562 154.78385 
L 567.222525 154.78385 
L 573.475793 172.692572 
L 569.100677 172.692572 
L 568.036752 169.43016 
z
M 562.315446 166.106338 
L 566.940259 166.106338 
L 564.631472 158.982766 
L 562.315446 166.106338 
z
" clip-path="url(#p486aa30f79)" style="fill: #008000"/>
   </g>
   <g id="patch_106">
    <path d="M 592.106845 192.122478 
Q 590.321821 192.181239 588.401929 192.210754 
Q 586.482038 192.24 584.435211 192.24 
Q 579.810017 192.24 577.108681 192.065059 
Q 574.407346 191.890118 574.407346 191.590947 
Q 574.407346 191.288288 577.156282 191.114688 
Q 579.909185 190.941089 584.697014 190.941089 
Q 586.541538 190.941089 588.23136 190.9647 
Q 589.925149 190.988044 591.424569 191.034194 
L 591.424569 191.293118 
Q 589.877549 191.23382 588.346395 191.204574 
Q 586.815242 191.175059 585.276155 191.175059 
Q 582.428051 191.175059 580.884997 191.282922 
Q 579.341944 191.390516 579.341944 191.590947 
Q 579.341944 191.7895 580.829463 191.897899 
Q 582.316983 192.00603 585.054019 192.00603 
Q 585.799762 192.00603 586.438404 191.999858 
Q 587.077045 191.993419 587.584785 191.980003 
L 587.584785 191.73691 
L 584.669247 191.73691 
L 584.669247 191.52038 
L 592.106845 191.52038 
L 592.106845 192.122478 
z
" clip-path="url(#p486aa30f79)" style="fill: #ffa600"/>
   </g>
   <g id="patch_107">
    <path d="M 586.667804 190.407001 
L 579.860861 190.407001 
L 578.786081 190.941089 
L 574.407346 190.941089 
L 580.660614 188.00926 
L 585.853577 188.00926 
L 592.106845 190.941089 
L 587.731728 190.941089 
L 586.667804 190.407001 
z
M 580.946498 189.862859 
L 585.571311 189.862859 
L 583.262523 188.696663 
L 580.946498 189.862859 
z
" clip-path="url(#p486aa30f79)" style="fill: #008000"/>
   </g>
   <g id="patch_108">
    <path d="M 574.407346 184.632091 
L 592.106845 184.632091 
L 592.106845 185.290733 
L 585.739141 185.290733 
L 585.739141 188.00926 
L 580.787398 188.00926 
L 580.787398 185.290733 
L 574.407346 185.290733 
L 574.407346 184.632091 
z
" clip-path="url(#p486aa30f79)" style="fill: #ff0000"/>
   </g>
   <g id="patch_109">
    <path d="M 592.106845 184.326174 
Q 590.626312 184.47781 589.025375 184.55451 
Q 587.424438 184.632091 585.680798 184.632091 
Q 580.481097 184.632091 577.444221 184.057284 
Q 574.407346 183.482477 574.407346 182.499487 
Q 574.407346 181.512971 577.444221 180.939046 
Q 580.481097 180.364239 585.680798 180.364239 
Q 587.424438 180.364239 589.025375 180.441821 
Q 590.626312 180.51852 592.106845 180.670156 
L 592.106845 181.520906 
Q 590.612934 181.3199 589.163617 181.226449 
Q 587.714301 181.132999 586.113364 181.132999 
Q 583.241487 181.132999 581.595955 181.497102 
Q 579.954883 181.860324 579.954883 182.499487 
Q 579.954883 183.136007 581.595955 183.50011 
Q 583.241487 183.863331 586.113364 183.863331 
Q 587.714301 183.863331 589.163617 183.769881 
Q 590.612934 183.675549 592.106845 183.474543 
L 592.106845 184.326174 
z
" clip-path="url(#p486aa30f79)" style="fill: #0000ff"/>
   </g>
   <g id="patch_110">
    <path d="M 610.737896 191.701823 
Q 608.952873 191.970912 607.032981 192.10607 
Q 605.113089 192.24 603.066262 192.24 
Q 598.441068 192.24 595.739733 191.438878 
Q 593.038397 190.637757 593.038397 189.26774 
Q 593.038397 187.88175 595.787333 187.086772 
Q 598.540236 186.291794 603.328066 186.291794 
Q 605.17259 186.291794 606.862412 186.399921 
Q 608.556201 186.506819 610.055621 186.718158 
L 610.055621 187.903867 
Q 608.508601 187.632321 606.977447 187.498392 
Q 605.446294 187.363233 603.907207 187.363233 
Q 601.059103 187.363233 599.516049 187.857176 
Q 597.972995 188.349891 597.972995 189.26774 
Q 597.972995 190.176989 599.460515 190.673389 
Q 600.948035 191.168561 603.685071 191.168561 
Q 604.430814 191.168561 605.069455 191.140301 
Q 605.708097 191.110812 606.215837 191.049376 
L 606.215837 189.936161 
L 603.300299 189.936161 
L 603.300299 188.944588 
L 610.737896 188.944588 
L 610.737896 191.701823 
z
" clip-path="url(#p486aa30f79)" style="fill: #ffa600"/>
   </g>
   <g id="patch_111">
    <path d="M 610.737896 185.842384 
Q 609.257364 186.065146 607.656427 186.177823 
Q 606.055489 186.291794 604.31185 186.291794 
Q 599.112148 186.291794 596.075273 185.447369 
Q 593.038397 184.602943 593.038397 183.158872 
Q 593.038397 181.70962 596.075273 180.866489 
Q 599.112148 180.022064 604.31185 180.022064 
Q 606.055489 180.022064 607.656427 180.136035 
Q 609.257364 180.248712 610.737896 180.471474 
L 610.737896 181.721276 
Q 609.243986 181.425986 607.794669 181.288702 
Q 606.345353 181.151418 604.744415 181.151418 
Q 601.872539 181.151418 600.227007 181.686307 
Q 598.585935 182.219901 598.585935 183.158872 
Q 598.585935 184.093956 600.227007 184.628846 
Q 601.872539 185.16244 604.744415 185.16244 
Q 606.345353 185.16244 607.794669 185.025156 
Q 609.243986 184.886577 610.737896 184.591287 
L 610.737896 185.842384 
z
" clip-path="url(#p486aa30f79)" style="fill: #0000ff"/>
   </g>
   <g id="patch_112">
    <path d="M 605.298856 178.76277 
L 598.491913 178.76277 
L 597.417133 180.022064 
L 593.038397 180.022064 
L 599.291665 173.109284 
L 604.484628 173.109284 
L 610.737896 180.022064 
L 606.36278 180.022064 
L 605.298856 178.76277 
z
M 599.57755 177.479773 
L 604.202363 177.479773 
L 601.893575 174.730069 
L 599.57755 177.479773 
z
" clip-path="url(#p486aa30f79)" style="fill: #008000"/>
   </g>
   <g id="patch_113">
    <path d="M 593.038397 140.796058 
L 610.737896 140.796058 
L 610.737896 147.098037 
L 604.370193 147.098037 
L 604.370193 173.109284 
L 599.418449 173.109284 
L 599.418449 147.098037 
L 593.038397 147.098037 
L 593.038397 140.796058 
z
" clip-path="url(#p486aa30f79)" style="fill: #ff0000"/>
   </g>
   <g id="patch_114">
    <path d="M 629.368948 192.013918 
Q 627.583925 192.126959 625.664033 192.183737 
Q 623.744141 192.24 621.697314 192.24 
Q 617.07212 192.24 614.370785 191.903457 
Q 611.669449 191.566915 611.669449 190.991385 
Q 611.669449 190.409146 614.418385 190.075184 
Q 617.171288 189.741222 621.959118 189.741222 
Q 623.803642 189.741222 625.493464 189.786645 
Q 627.187253 189.831552 628.686673 189.920333 
L 628.686673 190.418437 
Q 627.139652 190.304363 625.608499 190.248101 
Q 624.077345 190.191322 622.538259 190.191322 
Q 619.690154 190.191322 618.147101 190.398822 
Q 616.604047 190.605806 616.604047 190.991385 
Q 616.604047 191.373351 618.091567 191.581883 
Q 619.579086 191.7899 622.316122 191.7899 
Q 623.061865 191.7899 623.700507 191.778028 
Q 624.339149 191.76564 624.846889 191.739831 
L 624.846889 191.272182 
L 621.931351 191.272182 
L 621.931351 190.855632 
L 629.368948 190.855632 
L 629.368948 192.013918 
z
" clip-path="url(#p486aa30f79)" style="fill: #ffa600"/>
   </g>
   <g id="patch_115">
    <path d="M 629.368948 189.523384 
Q 627.888416 189.631361 626.287478 189.685978 
Q 624.686541 189.741222 622.942902 189.741222 
Q 617.7432 189.741222 614.706325 189.331913 
Q 611.669449 188.922604 611.669449 188.222636 
Q 611.669449 187.520157 614.706325 187.111476 
Q 617.7432 186.702167 622.942902 186.702167 
Q 624.686541 186.702167 626.287478 186.757411 
Q 627.888416 186.812028 629.368948 186.920005 
L 629.368948 187.525807 
Q 627.875037 187.382674 626.425721 187.31613 
Q 624.976404 187.249586 623.375467 187.249586 
Q 620.503591 187.249586 618.858059 187.508857 
Q 617.216987 187.7675 617.216987 188.222636 
Q 617.216987 188.675889 618.858059 188.93516 
Q 620.503591 189.193803 623.375467 189.193803 
Q 624.976404 189.193803 626.425721 189.127259 
Q 627.875037 189.060087 629.368948 188.916954 
L 629.368948 189.523384 
z
" clip-path="url(#p486aa30f79)" style="fill: #0000ff"/>
   </g>
   <g id="patch_116">
    <path d="M 611.669449 179.881178 
L 629.368948 179.881178 
L 629.368948 181.211461 
L 623.001245 181.211461 
L 623.001245 186.702167 
L 618.049501 186.702167 
L 618.049501 181.211461 
L 611.669449 181.211461 
L 611.669449 179.881178 
z
" clip-path="url(#p486aa30f79)" style="fill: #ff0000"/>
   </g>
   <g id="patch_117">
    <path d="M 623.929908 178.195709 
L 617.122965 178.195709 
L 616.048184 179.881178 
L 611.669449 179.881178 
L 617.922717 170.628945 
L 623.11568 170.628945 
L 629.368948 179.881178 
L 624.993832 179.881178 
L 623.929908 178.195709 
z
M 618.208602 176.478514 
L 622.833415 176.478514 
L 620.524627 172.798243 
L 618.208602 176.478514 
z
" clip-path="url(#p486aa30f79)" style="fill: #008000"/>
   </g>
   <g id="patch_118">
    <path d="M 648 192.19476 
Q 646.214977 192.21738 644.295085 192.228742 
Q 642.375193 192.24 640.328366 192.24 
Q 635.703172 192.24 633.001836 192.172657 
Q 630.300501 192.105313 630.300501 191.990148 
Q 630.300501 191.87364 633.049437 191.806813 
Q 635.80234 191.739986 640.590169 191.739986 
Q 642.434694 191.739986 644.124516 191.749075 
Q 645.818305 191.758061 647.317724 191.775827 
L 647.317724 191.875499 
Q 645.770704 191.852673 644.239551 191.841414 
Q 642.708397 191.830053 641.16931 191.830053 
Q 638.321206 191.830053 636.778153 191.871574 
Q 635.235099 191.912992 635.235099 191.990148 
Q 635.235099 192.066581 636.722619 192.108309 
Q 638.210138 192.149933 640.947174 192.149933 
Q 641.692917 192.149933 642.331559 192.147558 
Q 642.970201 192.145079 643.477941 192.139915 
L 643.477941 192.046336 
L 640.562402 192.046336 
L 640.562402 191.962983 
L 648 191.962983 
L 648 192.19476 
z
" clip-path="url(#p486aa30f79)" style="fill: #ffa600"/>
   </g>
   <g id="patch_119">
    <path d="M 642.560959 191.624197 
L 635.754017 191.624197 
L 634.679236 191.739986 
L 630.300501 191.739986 
L 636.553769 191.104375 
L 641.746732 191.104375 
L 648 191.739986 
L 643.624884 191.739986 
L 642.560959 191.624197 
z
M 636.839653 191.506229 
L 641.464466 191.506229 
L 639.155679 191.253402 
L 636.839653 191.506229 
z
" clip-path="url(#p486aa30f79)" style="fill: #008000"/>
   </g>
   <g id="patch_120">
    <path d="M 648 191.05031 
Q 646.519467 191.077109 644.91853 191.090664 
Q 643.317593 191.104375 641.573954 191.104375 
Q 636.374252 191.104375 633.337376 191.002789 
Q 630.300501 190.901204 630.300501 190.72748 
Q 630.300501 190.553132 633.337376 190.451702 
Q 636.374252 190.350117 641.573954 190.350117 
Q 643.317593 190.350117 644.91853 190.363828 
Q 646.519467 190.377383 648 190.404182 
L 648 190.554535 
Q 646.506089 190.519011 645.056773 190.502495 
Q 643.607456 190.48598 642.006519 190.48598 
Q 639.134642 190.48598 637.489111 190.550328 
Q 635.848038 190.61452 635.848038 190.72748 
Q 635.848038 190.839972 637.489111 190.90432 
Q 639.134642 190.968512 642.006519 190.968512 
Q 643.607456 190.968512 645.056773 190.951996 
Q 646.506089 190.935325 648 190.899801 
L 648 191.05031 
z
" clip-path="url(#p486aa30f79)" style="fill: #0000ff"/>
   </g>
   <g id="patch_121">
    <path d="M 630.300501 189.52806 
L 648 189.52806 
L 648 189.688384 
L 641.632296 189.688384 
L 641.632296 190.350117 
L 636.680553 190.350117 
L 636.680553 189.688384 
L 630.300501 189.688384 
L 630.300501 189.52806 
z
" clip-path="url(#p486aa30f79)" style="fill: #ff0000"/>
   </g>
   <g id="matplotlib.axis_1">
    <g id="xtick_1">
     <g id="line2d_2">
      <defs>
       <path id="m6e9bfb443d" d="M 0 0 
L 0 3.5 
" style="stroke: #000000; stroke-width: 0.8"/>
      </defs>
      <g>
       <use xlink:href="#m6e9bfb443d" x="98.84975" y="192.24" style="stroke: #000000; stroke-width: 0.8"/>
      </g>
     </g>
     <g id="text_1">
      <!-- 0 -->
      <g transform="translate(95.6685 206.838437) scale(0.1 -0.1)">
       <defs>
        <path id="DejaVuSans-30" d="M 2034 4250 
Q 1547 4250 1301 3770 
Q 1056 3291 1056 2328 
Q 1056 1369 1301 889 
Q 1547 409 2034 409 
Q 2525 409 2770 889 
Q 3016 1369 3016 2328 
Q 3016 3291 2770 3770 
Q 2525 4250 2034 4250 
z
M 2034 4750 
Q 2819 4750 3233 4129 
Q 3647 3509 3647 2328 
Q 3647 1150 3233 529 
Q 2819 -91 2034 -91 
Q 1250 -91 836 529 
Q 422 1150 422 2328 
Q 422 3509 836 4129 
Q 1250 4750 2034 4750 
z
" transform="scale(0.015625)"/>
       </defs>
       <use xlink:href="#DejaVuSans-30"/>
      </g>
     </g>
    </g>
    <g id="xtick_2">
     <g id="line2d_3">
      <g>
       <use xlink:href="#m6e9bfb443d" x="192.005008" y="192.24" style="stroke: #000000; stroke-width: 0.8"/>
      </g>
     </g>
     <g id="text_2">
      <!-- 5 -->
      <g transform="translate(188.823758 206.838437) scale(0.1 -0.1)">
       <defs>
        <path id="DejaVuSans-35" d="M 691 4666 
L 3169 4666 
L 3169 4134 
L 1269 4134 
L 1269 2991 
Q 1406 3038 1543 3061 
Q 1681 3084 1819 3084 
Q 2600 3084 3056 2656 
Q 3513 2228 3513 1497 
Q 3513 744 3044 326 
Q 2575 -91 1722 -91 
Q 1428 -91 1123 -41 
Q 819 9 494 109 
L 494 744 
Q 775 591 1075 516 
Q 1375 441 1709 441 
Q 2250 441 2565 725 
Q 2881 1009 2881 1497 
Q 2881 1984 2565 2268 
Q 2250 2553 1709 2553 
Q 1456 2553 1204 2497 
Q 953 2441 691 2322 
L 691 4666 
z
" transform="scale(0.015625)"/>
       </defs>
       <use xlink:href="#DejaVuSans-35"/>
      </g>
     </g>
    </g>
    <g id="xtick_3">
     <g id="line2d_4">
      <g>
       <use xlink:href="#m6e9bfb443d" x="285.160267" y="192.24" style="stroke: #000000; stroke-width: 0.8"/>
      </g>
     </g>
     <g id="text_3">
      <!-- 10 -->
      <g transform="translate(278.797767 206.838437) scale(0.1 -0.1)">
       <defs>
        <path id="DejaVuSans-31" d="M 794 531 
L 1825 531 
L 1825 4091 
L 703 3866 
L 703 4441 
L 1819 4666 
L 2450 4666 
L 2450 531 
L 3481 531 
L 3481 0 
L 794 0 
L 794 531 
z
" transform="scale(0.015625)"/>
       </defs>
       <use xlink:href="#DejaVuSans-31"/>
       <use xlink:href="#DejaVuSans-30" x="63.623047"/>
      </g>
     </g>
    </g>
    <g id="xtick_4">
     <g id="line2d_5">
      <g>
       <use xlink:href="#m6e9bfb443d" x="378.315526" y="192.24" style="stroke: #000000; stroke-width: 0.8"/>
      </g>
     </g>
     <g id="text_4">
      <!-- 15 -->
      <g transform="translate(371.953026 206.838437) scale(0.1 -0.1)">
       <use xlink:href="#DejaVuSans-31"/>
       <use xlink:href="#DejaVuSans-35" x="63.623047"/>
      </g>
     </g>
    </g>
    <g id="xtick_5">
     <g id="line2d_6">
      <g>
       <use xlink:href="#m6e9bfb443d" x="471.470785" y="192.24" style="stroke: #000000; stroke-width: 0.8"/>
      </g>
     </g>
     <g id="text_5">
      <!-- 20 -->
      <g transform="translate(465.108285 206.838437) scale(0.1 -0.1)">
       <defs>
        <path id="DejaVuSans-32" d="M 1228 531 
L 3431 531 
L 3431 0 
L 469 0 
L 469 531 
Q 828 903 1448 1529 
Q 2069 2156 2228 2338 
Q 2531 2678 2651 2914 
Q 2772 3150 2772 3378 
Q 2772 3750 2511 3984 
Q 2250 4219 1831 4219 
Q 1534 4219 1204 4116 
Q 875 4013 500 3803 
L 500 4441 
Q 881 4594 1212 4672 
Q 1544 4750 1819 4750 
Q 2544 4750 2975 4387 
Q 3406 4025 3406 3419 
Q 3406 3131 3298 2873 
Q 3191 2616 2906 2266 
Q 2828 2175 2409 1742 
Q 1991 1309 1228 531 
z
" transform="scale(0.015625)"/>
       </defs>
       <use xlink:href="#DejaVuSans-32"/>
       <use xlink:href="#DejaVuSans-30" x="63.623047"/>
      </g>
     </g>
    </g>
    <g id="xtick_6">
     <g id="line2d_7">
      <g>
       <use xlink:href="#m6e9bfb443d" x="564.626043" y="192.24" style="stroke: #000000; stroke-width: 0.8"/>
      </g>
     </g>
     <g id="text_6">
      <!-- 25 -->
      <g transform="translate(558.263543 206.838437) scale(0.1 -0.1)">
       <use xlink:href="#DejaVuSans-32"/>
       <use xlink:href="#DejaVuSans-35" x="63.623047"/>
      </g>
     </g>
    </g>
   </g>
   <g id="matplotlib.axis_2">
    <g id="ytick_1">
     <g id="line2d_8">
      <defs>
       <path id="mc669509696" d="M 0 0 
L -3.5 0 
" style="stroke: #000000; stroke-width: 0.8"/>
      </defs>
      <g>
       <use xlink:href="#mc669509696" x="90" y="192.24" style="stroke: #000000; stroke-width: 0.8"/>
      </g>
     </g>
     <g id="text_7">
      <!-- 0.0 -->
      <g transform="translate(67.096875 196.039219) scale(0.1 -0.1)">
       <defs>
        <path id="DejaVuSans-2e" d="M 684 794 
L 1344 794 
L 1344 0 
L 684 0 
L 684 794 
z
" transform="scale(0.015625)"/>
       </defs>
       <use xlink:href="#DejaVuSans-30"/>
       <use xlink:href="#DejaVuSans-2e" x="63.623047"/>
       <use xlink:href="#DejaVuSans-30" x="95.410156"/>
      </g>
     </g>
    </g>
    <g id="ytick_2">
     <g id="line2d_9">
      <g>
       <use xlink:href="#mc669509696" x="90" y="169.850899" style="stroke: #000000; stroke-width: 0.8"/>
      </g>
     </g>
     <g id="text_8">
      <!-- 0.2 -->
      <g transform="translate(67.096875 173.650118) scale(0.1 -0.1)">
       <use xlink:href="#DejaVuSans-30"/>
       <use xlink:href="#DejaVuSans-2e" x="63.623047"/>
       <use xlink:href="#DejaVuSans-32" x="95.410156"/>
      </g>
     </g>
    </g>
    <g id="ytick_3">
     <g id="line2d_10">
      <g>
       <use xlink:href="#mc669509696" x="90" y="147.461798" style="stroke: #000000; stroke-width: 0.8"/>
      </g>
     </g>
     <g id="text_9">
      <!-- 0.4 -->
      <g transform="translate(67.096875 151.261017) scale(0.1 -0.1)">
       <defs>
        <path id="DejaVuSans-34" d="M 2419 4116 
L 825 1625 
L 2419 1625 
L 2419 4116 
z
M 2253 4666 
L 3047 4666 
L 3047 1625 
L 3713 1625 
L 3713 1100 
L 3047 1100 
L 3047 0 
L 2419 0 
L 2419 1100 
L 313 1100 
L 313 1709 
L 2253 4666 
z
" transform="scale(0.015625)"/>
       </defs>
       <use xlink:href="#DejaVuSans-30"/>
       <use xlink:href="#DejaVuSans-2e" x="63.623047"/>
       <use xlink:href="#DejaVuSans-34" x="95.410156"/>
      </g>
     </g>
    </g>
    <g id="ytick_4">
     <g id="line2d_11">
      <g>
       <use xlink:href="#mc669509696" x="90" y="125.072698" style="stroke: #000000; stroke-width: 0.8"/>
      </g>
     </g>
     <g id="text_10">
      <!-- 0.6 -->
      <g transform="translate(67.096875 128.871916) scale(0.1 -0.1)">
       <defs>
        <path id="DejaVuSans-36" d="M 2113 2584 
Q 1688 2584 1439 2293 
Q 1191 2003 1191 1497 
Q 1191 994 1439 701 
Q 1688 409 2113 409 
Q 2538 409 2786 701 
Q 3034 994 3034 1497 
Q 3034 2003 2786 2293 
Q 2538 2584 2113 2584 
z
M 3366 4563 
L 3366 3988 
Q 3128 4100 2886 4159 
Q 2644 4219 2406 4219 
Q 1781 4219 1451 3797 
Q 1122 3375 1075 2522 
Q 1259 2794 1537 2939 
Q 1816 3084 2150 3084 
Q 2853 3084 3261 2657 
Q 3669 2231 3669 1497 
Q 3669 778 3244 343 
Q 2819 -91 2113 -91 
Q 1303 -91 875 529 
Q 447 1150 447 2328 
Q 447 3434 972 4092 
Q 1497 4750 2381 4750 
Q 2619 4750 2861 4703 
Q 3103 4656 3366 4563 
z
" transform="scale(0.015625)"/>
       </defs>
       <use xlink:href="#DejaVuSans-30"/>
       <use xlink:href="#DejaVuSans-2e" x="63.623047"/>
       <use xlink:href="#DejaVuSans-36" x="95.410156"/>
      </g>
     </g>
    </g>
    <g id="ytick_5">
     <g id="line2d_12">
      <g>
       <use xlink:href="#mc669509696" x="90" y="102.683597" style="stroke: #000000; stroke-width: 0.8"/>
      </g>
     </g>
     <g id="text_11">
      <!-- 0.8 -->
      <g transform="translate(67.096875 106.482815) scale(0.1 -0.1)">
       <defs>
        <path id="DejaVuSans-38" d="M 2034 2216 
Q 1584 2216 1326 1975 
Q 1069 1734 1069 1313 
Q 1069 891 1326 650 
Q 1584 409 2034 409 
Q 2484 409 2743 651 
Q 3003 894 3003 1313 
Q 3003 1734 2745 1975 
Q 2488 2216 2034 2216 
z
M 1403 2484 
Q 997 2584 770 2862 
Q 544 3141 544 3541 
Q 544 4100 942 4425 
Q 1341 4750 2034 4750 
Q 2731 4750 3128 4425 
Q 3525 4100 3525 3541 
Q 3525 3141 3298 2862 
Q 3072 2584 2669 2484 
Q 3125 2378 3379 2068 
Q 3634 1759 3634 1313 
Q 3634 634 3220 271 
Q 2806 -91 2034 -91 
Q 1263 -91 848 271 
Q 434 634 434 1313 
Q 434 1759 690 2068 
Q 947 2378 1403 2484 
z
M 1172 3481 
Q 1172 3119 1398 2916 
Q 1625 2713 2034 2713 
Q 2441 2713 2670 2916 
Q 2900 3119 2900 3481 
Q 2900 3844 2670 4047 
Q 2441 4250 2034 4250 
Q 1625 4250 1398 4047 
Q 1172 3844 1172 3481 
z
" transform="scale(0.015625)"/>
       </defs>
       <use xlink:href="#DejaVuSans-30"/>
       <use xlink:href="#DejaVuSans-2e" x="63.623047"/>
       <use xlink:href="#DejaVuSans-38" x="95.410156"/>
      </g>
     </g>
    </g>
    <g id="ytick_6">
     <g id="line2d_13">
      <g>
       <use xlink:href="#mc669509696" x="90" y="80.294496" style="stroke: #000000; stroke-width: 0.8"/>
      </g>
     </g>
     <g id="text_12">
      <!-- 1.0 -->
      <g transform="translate(67.096875 84.093715) scale(0.1 -0.1)">
       <use xlink:href="#DejaVuSans-31"/>
       <use xlink:href="#DejaVuSans-2e" x="63.623047"/>
       <use xlink:href="#DejaVuSans-30" x="95.410156"/>
      </g>
     </g>
    </g>
    <g id="ytick_7">
     <g id="line2d_14">
      <g>
       <use xlink:href="#mc669509696" x="90" y="57.905395" style="stroke: #000000; stroke-width: 0.8"/>
      </g>
     </g>
     <g id="text_13">
      <!-- 1.2 -->
      <g transform="translate(67.096875 61.704614) scale(0.1 -0.1)">
       <use xlink:href="#DejaVuSans-31"/>
       <use xlink:href="#DejaVuSans-2e" x="63.623047"/>
       <use xlink:href="#DejaVuSans-32" x="95.410156"/>
      </g>
     </g>
    </g>
    <g id="ytick_8">
     <g id="line2d_15">
      <g>
       <use xlink:href="#mc669509696" x="90" y="35.516294" style="stroke: #000000; stroke-width: 0.8"/>
      </g>
     </g>
     <g id="text_14">
      <!-- 1.4 -->
      <g transform="translate(67.096875 39.315513) scale(0.1 -0.1)">
       <use xlink:href="#DejaVuSans-31"/>
       <use xlink:href="#DejaVuSans-2e" x="63.623047"/>
       <use xlink:href="#DejaVuSans-34" x="95.410156"/>
      </g>
     </g>
    </g>
   </g>
  </g>
 </g>
 <defs>
  <clipPath id="p486aa30f79">
   <rect x="90" y="25.92" width="558" height="166.32"/>
  </clipPath>
 </defs>
</svg>
