<?xml version="1.0" encoding="utf-8" standalone="no"?>
<!DOCTYPE svg PUBLIC "-//W3C//DTD SVG 1.1//EN"
  "http://www.w3.org/Graphics/SVG/1.1/DTD/svg11.dtd">
<svg xmlns:xlink="http://www.w3.org/1999/xlink" width="720pt" height="216pt" viewBox="0 0 720 216" xmlns="http://www.w3.org/2000/svg" version="1.1">
 <metadata>
  <rdf:RDF xmlns:dc="http://purl.org/dc/elements/1.1/" xmlns:cc="http://creativecommons.org/ns#" xmlns:rdf="http://www.w3.org/1999/02/22-rdf-syntax-ns#">
   <cc:Work>
    <dc:type rdf:resource="http://purl.org/dc/dcmitype/StillImage"/>
    <dc:date>2025-12-17T10:22:14.899765</dc:date>
    <dc:format>image/svg+xml</dc:format>
    <dc:creator>
     <cc:Agent>
      <dc:title>Matplotlib v3.8.2, https://matplotlib.org/</dc:title>
     </cc:Agent>
    </dc:creator>
   </cc:Work>
  </rdf:RDF>
 </metadata>
 <defs>
  <style type="text/css">*{stroke-linejoin: round; stroke-linecap: butt}</style>
 </defs>
 <g id="figure_1">
  <g id="patch_1">
   <path d="M 0 216 
L 720 216 
L 720 0 
L 0 0 
z
" style="fill: #ffffff"/>
  </g>
  <g id="axes_1">
   <g id="patch_2">
    <path d="M 90 192.24 
L 648 192.24 
L 648 25.92 
L 90 25.92 
z
" style="fill: #ffffff"/>
   </g>
   <g id="line2d_1">
    <path d="M 90 192.24 
L 648 192.24 
" clip-path="url(#p9d6643f9e4)" style="fill: none; stroke: #000000; stroke-width: 0.5; stroke-linecap: square"/>
   </g>
   <g id="patch_3">
    <path d="M 113.098039 192.149527 
Q 110.768564 192.194764 108.263084 192.217485 
Q 105.757605 192.24 103.086473 192.24 
Q 97.050544 192.24 93.525272 192.105324 
Q 90 191.970648 90 191.740336 
Q 90 191.507338 93.587392 191.373695 
Q 97.17996 191.240051 103.428129 191.240051 
Q 105.835254 191.240051 108.04049 191.258228 
Q 110.250903 191.276199 112.207662 191.311727 
L 112.207662 191.511056 
Q 110.188784 191.465406 108.190612 191.442892 
Q 106.19244 191.42017 104.183915 191.42017 
Q 100.467108 191.42017 98.453406 191.503207 
Q 96.439704 191.586036 96.439704 191.740336 
Q 96.439704 191.893189 98.380934 191.976638 
Q 100.322163 192.059881 103.894024 192.059881 
Q 104.867227 192.059881 105.700662 192.05513 
Q 106.534096 192.050173 107.196702 192.039845 
L 107.196702 191.852703 
L 103.391893 191.852703 
L 103.391893 191.686011 
L 113.098039 191.686011 
L 113.098039 192.149527 
z
" clip-path="url(#p9d6643f9e4)" style="fill: #ffa600"/>
   </g>
   <g id="patch_4">
    <path d="M 106.000032 190.951632 
L 97.116897 190.951632 
L 95.714297 191.240051 
L 90 191.240051 
L 98.160583 189.656799 
L 104.937456 189.656799 
L 113.098039 191.240051 
L 107.388465 191.240051 
L 106.000032 190.951632 
z
M 98.533665 190.657784 
L 104.569096 190.657784 
L 101.556103 190.028012 
L 98.533665 190.657784 
z
" clip-path="url(#p9d6643f9e4)" style="fill: #008000"/>
   </g>
   <g id="patch_5">
    <path d="M 113.098039 189.540326 
Q 111.165928 189.598059 109.076687 189.627262 
Q 106.987447 189.656799 104.711979 189.656799 
Q 97.926311 189.656799 93.963156 189.437951 
Q 90 189.219102 90 188.844845 
Q 90 188.469244 93.963156 188.250731 
Q 97.926311 188.031883 104.711979 188.031883 
Q 106.987447 188.031883 109.076687 188.061421 
Q 111.165928 188.090623 113.098039 188.148356 
L 113.098039 188.472265 
Q 111.148469 188.395735 109.257095 188.360156 
Q 107.365722 188.324576 105.276481 188.324576 
Q 101.528651 188.324576 99.381214 188.463202 
Q 97.239597 188.601493 97.239597 188.844845 
Q 97.239597 189.087189 99.381214 189.225816 
Q 101.528651 189.364106 105.276481 189.364106 
Q 107.365722 189.364106 109.257095 189.328527 
Q 111.148469 189.292611 113.098039 189.216081 
L 113.098039 189.540326 
z
" clip-path="url(#p9d6643f9e4)" style="fill: #0000ff"/>
   </g>
   <g id="patch_6">
    <path d="M 90 185.61534 
L 113.098039 185.61534 
L 113.098039 186.086633 
L 104.788117 186.086633 
L 104.788117 188.031883 
L 98.326037 188.031883 
L 98.326037 186.086633 
L 90 186.086633 
L 90 185.61534 
z
" clip-path="url(#p9d6643f9e4)" style="fill: #ff0000"/>
   </g>
   <g id="patch_7">
    <path d="M 137.411765 192.039393 
Q 135.08229 192.139696 132.57681 192.190077 
Q 130.07133 192.24 127.400199 192.24 
Q 121.36427 192.24 117.838998 191.94138 
Q 114.313725 191.642759 114.313725 191.132081 
Q 114.313725 190.61545 117.901117 190.319119 
Q 121.493685 190.022789 127.741855 190.022789 
Q 130.148979 190.022789 132.354216 190.063093 
Q 134.564629 190.10294 136.521388 190.181717 
L 136.521388 190.623694 
Q 134.502509 190.522474 132.504337 190.472551 
Q 130.506165 190.422171 128.49764 190.422171 
Q 124.780833 190.422171 122.767132 190.606289 
Q 120.75343 190.78995 120.75343 191.132081 
Q 120.75343 191.471006 122.694659 191.656041 
Q 124.635888 191.840618 128.20775 191.840618 
Q 129.180953 191.840618 130.014387 191.830084 
Q 130.847822 191.819092 131.510428 191.796191 
L 131.510428 191.381237 
L 127.705619 191.381237 
L 127.705619 191.011626 
L 137.411765 191.011626 
L 137.411765 192.039393 
z
" clip-path="url(#p9d6643f9e4)" style="fill: #ffa600"/>
   </g>
   <g id="patch_8">
    <path d="M 137.411765 189.711554 
Q 135.479654 189.865826 133.390413 189.943859 
Q 131.301172 190.022789 129.025704 190.022789 
Q 122.240037 190.022789 118.276881 189.43799 
Q 114.313725 188.853192 114.313725 187.853115 
Q 114.313725 186.84945 118.276881 186.265548 
Q 122.240037 185.68075 129.025704 185.68075 
Q 131.301172 185.68075 133.390413 185.75968 
Q 135.479654 185.837712 137.411765 185.991984 
L 137.411765 186.857522 
Q 135.462195 186.653022 133.570821 186.557947 
Q 131.679447 186.462873 129.590206 186.462873 
Q 125.842376 186.462873 123.69494 186.833305 
Q 121.553323 187.20284 121.553323 187.853115 
Q 121.553323 188.500698 123.69494 188.87113 
Q 125.842376 189.240666 129.590206 189.240666 
Q 131.679447 189.240666 133.570821 189.145591 
Q 135.462195 189.049619 137.411765 188.845119 
L 137.411765 189.711554 
z
" clip-path="url(#p9d6643f9e4)" style="fill: #0000ff"/>
   </g>
   <g id="patch_9">
    <path d="M 130.313758 183.122673 
L 121.430623 183.122673 
L 120.028023 185.68075 
L 114.313725 185.68075 
L 122.474309 171.638411 
L 129.251182 171.638411 
L 137.411765 185.68075 
L 131.70219 185.68075 
L 130.313758 183.122673 
z
M 122.847391 180.516443 
L 128.882822 180.516443 
L 125.869829 174.930807 
L 122.847391 180.516443 
z
" clip-path="url(#p9d6643f9e4)" style="fill: #008000"/>
   </g>
   <g id="patch_10">
    <path d="M 114.313725 148.172924 
L 137.411765 148.172924 
L 137.411765 152.749347 
L 129.101842 152.749347 
L 129.101842 171.638411 
L 122.639763 171.638411 
L 122.639763 152.749347 
L 114.313725 152.749347 
L 114.313725 148.172924 
z
" clip-path="url(#p9d6643f9e4)" style="fill: #ff0000"/>
   </g>
   <g id="patch_11">
    <path d="M 161.72549 192.068785 
Q 159.396015 192.154393 156.890535 192.197392 
Q 154.385056 192.24 151.713924 192.24 
Q 145.677995 192.24 142.152723 191.985132 
Q 138.627451 191.730264 138.627451 191.294409 
Q 138.627451 190.853472 142.214843 190.600559 
Q 145.807411 190.347645 152.05558 190.347645 
Q 154.462705 190.347645 156.667941 190.382045 
Q 158.878354 190.416053 160.835113 190.483288 
L 160.835113 190.860508 
Q 158.816235 190.774119 156.818063 190.731511 
Q 154.819891 190.688511 152.811366 190.688511 
Q 149.094559 190.688511 147.080857 190.845654 
Q 145.067155 191.002405 145.067155 191.294409 
Q 145.067155 191.583676 147.008385 191.7416 
Q 148.949614 191.899134 152.521475 191.899134 
Q 153.494678 191.899134 154.328113 191.890143 
Q 155.161547 191.880761 155.824153 191.861216 
L 155.824153 191.507059 
L 152.019344 191.507059 
L 152.019344 191.191602 
L 161.72549 191.191602 
L 161.72549 192.068785 
z
" clip-path="url(#p9d6643f9e4)" style="fill: #ffa600"/>
   </g>
   <g id="patch_12">
    <path d="M 154.627483 189.491385 
L 145.744348 189.491385 
L 144.341748 190.347645 
L 138.627451 190.347645 
L 146.788034 185.64728 
L 153.564907 185.64728 
L 161.72549 190.347645 
L 156.015916 190.347645 
L 154.627483 189.491385 
z
M 147.161116 188.619007 
L 153.196547 188.619007 
L 150.183554 186.749338 
L 147.161116 188.619007 
z
" clip-path="url(#p9d6643f9e4)" style="fill: #008000"/>
   </g>
   <g id="patch_13">
    <path d="M 138.627451 177.162206 
L 161.72549 177.162206 
L 161.72549 178.817032 
L 153.415568 178.817032 
L 153.415568 185.64728 
L 146.953488 185.64728 
L 146.953488 178.817032 
L 138.627451 178.817032 
L 138.627451 177.162206 
z
" clip-path="url(#p9d6643f9e4)" style="fill: #ff0000"/>
   </g>
   <g id="patch_14">
    <path d="M 161.72549 176.155823 
Q 159.793379 176.654664 157.704138 176.906985 
Q 155.614898 177.162206 153.33943 177.162206 
Q 146.553762 177.162206 142.590607 175.271251 
Q 138.627451 173.380296 138.627451 170.146531 
Q 138.627451 166.901164 142.590607 165.01311 
Q 146.553762 163.122155 153.33943 163.122155 
Q 155.614898 163.122155 157.704138 163.377376 
Q 159.793379 163.629696 161.72549 164.128537 
L 161.72549 166.927267 
Q 159.77592 166.266012 157.884546 165.958587 
Q 155.993173 165.651162 153.903932 165.651162 
Q 150.156102 165.651162 148.008665 166.84896 
Q 145.867048 168.043858 145.867048 170.146531 
Q 145.867048 172.240502 148.008665 173.4383 
Q 150.156102 174.633198 153.903932 174.633198 
Q 155.993173 174.633198 157.884546 174.325773 
Q 159.77592 174.015448 161.72549 173.354194 
L 161.72549 176.155823 
z
" clip-path="url(#p9d6643f9e4)" style="fill: #0000ff"/>
   </g>
   <g id="patch_15">
    <path d="M 186.039216 192.092785 
Q 184.107105 192.165756 182.017864 192.202666 
Q 179.928623 192.24 177.653155 192.24 
Q 170.867488 192.24 166.904332 191.963389 
Q 162.941176 191.686779 162.941176 191.213741 
Q 162.941176 190.739006 166.904332 190.462819 
Q 170.867488 190.186209 177.653155 190.186209 
Q 179.928623 190.186209 182.017864 190.223543 
Q 184.107105 190.260452 186.039216 190.333423 
L 186.039216 190.742824 
Q 184.089646 190.646095 182.198272 190.601125 
Q 180.306898 190.556154 178.217657 190.556154 
Q 174.469827 190.556154 172.322391 190.731369 
Q 170.180774 190.90616 170.180774 191.213741 
Q 170.180774 191.520049 172.322391 191.695264 
Q 174.469827 191.870055 178.217657 191.870055 
Q 180.306898 191.870055 182.198272 191.825084 
Q 184.089646 191.779689 186.039216 191.682961 
L 186.039216 192.092785 
z
" clip-path="url(#p9d6643f9e4)" style="fill: #0000ff"/>
   </g>
   <g id="patch_16">
    <path d="M 186.039216 189.955895 
Q 183.709741 190.071052 181.204261 190.128893 
Q 178.698781 190.186209 176.02765 190.186209 
Q 169.991721 190.186209 166.466449 189.843367 
Q 162.941176 189.500526 162.941176 188.914225 
Q 162.941176 188.321089 166.528568 187.980877 
Q 170.121136 187.640664 176.369306 187.640664 
Q 178.77643 187.640664 180.981667 187.686938 
Q 183.19208 187.732685 185.148839 187.823128 
L 185.148839 188.330554 
Q 183.12996 188.214345 181.131788 188.15703 
Q 179.133616 188.099188 177.125091 188.099188 
Q 173.408284 188.099188 171.394583 188.310572 
Q 169.380881 188.52143 169.380881 188.914225 
Q 169.380881 189.30334 171.32211 189.515775 
Q 173.263339 189.727685 176.835201 189.727685 
Q 177.808404 189.727685 178.641838 189.715591 
Q 179.475273 189.702971 180.137879 189.676679 
L 180.137879 189.200277 
L 176.33307 189.200277 
L 176.33307 188.775932 
L 186.039216 188.775932 
L 186.039216 189.955895 
z
" clip-path="url(#p9d6643f9e4)" style="fill: #ffa600"/>
   </g>
   <g id="patch_17">
    <path d="M 162.941176 184.574441 
L 186.039216 184.574441 
L 186.039216 185.17244 
L 177.729293 185.17244 
L 177.729293 187.640664 
L 171.267214 187.640664 
L 171.267214 185.17244 
L 162.941176 185.17244 
L 162.941176 184.574441 
z
" clip-path="url(#p9d6643f9e4)" style="fill: #ff0000"/>
   </g>
   <g id="patch_18">
    <path d="M 178.941209 183.4573 
L 170.058074 183.4573 
L 168.655474 184.574441 
L 162.941176 184.574441 
L 171.10176 178.441993 
L 177.878633 178.441993 
L 186.039216 184.574441 
L 180.329641 184.574441 
L 178.941209 183.4573 
z
M 171.474842 182.31913 
L 177.510273 182.31913 
L 174.49728 179.87982 
L 171.474842 182.31913 
z
" clip-path="url(#p9d6643f9e4)" style="fill: #008000"/>
   </g>
   <g id="patch_19">
    <path d="M 187.254902 189.079762 
L 210.352941 189.079762 
L 210.352941 189.696096 
L 202.043019 189.696096 
L 202.043019 192.24 
L 195.580939 192.24 
L 195.580939 189.696096 
L 187.254902 189.696096 
L 187.254902 189.079762 
z
" clip-path="url(#p9d6643f9e4)" style="fill: #ff0000"/>
   </g>
   <g id="patch_20">
    <path d="M 210.352941 188.702222 
Q 208.42083 188.88936 206.331589 188.984017 
Q 204.242349 189.079762 201.966881 189.079762 
Q 195.181213 189.079762 191.218058 188.370378 
Q 187.254902 187.660995 187.254902 186.447862 
Q 187.254902 185.230377 191.218058 184.522082 
Q 195.181213 183.812698 201.966881 183.812698 
Q 204.242349 183.812698 206.331589 183.908443 
Q 208.42083 184.0031 210.352941 184.190238 
L 210.352941 185.240169 
Q 208.403371 184.992103 206.511997 184.876774 
Q 204.620624 184.761444 202.531383 184.761444 
Q 198.783553 184.761444 196.636116 185.210793 
Q 194.494499 185.659054 194.494499 186.447862 
Q 194.494499 187.233406 196.636116 187.682755 
Q 198.783553 188.131016 202.531383 188.131016 
Q 204.620624 188.131016 206.511997 188.015687 
Q 208.403371 187.899269 210.352941 187.651203 
L 210.352941 188.702222 
z
" clip-path="url(#p9d6643f9e4)" style="fill: #0000ff"/>
   </g>
   <g id="patch_21">
    <path d="M 210.352941 183.14553 
Q 208.023466 183.479114 205.517986 183.646668 
Q 203.012506 183.812698 200.341375 183.812698 
Q 194.305446 183.812698 190.780174 182.819561 
Q 187.254902 181.826425 187.254902 180.128039 
Q 187.254902 178.409851 190.842294 177.42433 
Q 194.434862 176.438809 200.683031 176.438809 
Q 203.090156 176.438809 205.295392 176.572852 
Q 207.505805 176.705372 209.462564 176.967365 
L 209.462564 178.437269 
Q 207.443686 178.100638 205.445514 177.934608 
Q 203.447342 177.767054 201.438817 177.767054 
Q 197.72201 177.767054 195.708308 178.379387 
Q 193.694606 178.990196 193.694606 180.128039 
Q 193.694606 181.255219 195.635836 181.870598 
Q 197.577065 182.484454 201.148926 182.484454 
Q 202.122129 182.484454 202.955564 182.44942 
Q 203.788998 182.412863 204.451604 182.336702 
L 204.451604 180.956668 
L 200.646795 180.956668 
L 200.646795 179.727433 
L 210.352941 179.727433 
L 210.352941 183.14553 
z
" clip-path="url(#p9d6643f9e4)" style="fill: #ffa600"/>
   </g>
   <g id="patch_22">
    <path d="M 203.254934 156.433337 
L 194.371799 156.433337 
L 192.969199 176.438809 
L 187.254902 176.438809 
L 195.415485 66.620535 
L 202.192358 66.620535 
L 210.352941 176.438809 
L 204.643367 176.438809 
L 203.254934 156.433337 
z
M 195.788567 136.051291 
L 201.823998 136.051291 
L 198.811005 92.368754 
L 195.788567 136.051291 
z
" clip-path="url(#p9d6643f9e4)" style="fill: #008000"/>
   </g>
   <g id="patch_23">
    <path d="M 234.666667 191.813034 
Q 232.337192 192.026517 229.831712 192.133746 
Q 227.326232 192.24 224.655101 192.24 
Q 218.619172 192.24 215.0939 191.604424 
Q 211.568627 190.968849 211.568627 189.881936 
Q 211.568627 188.782351 215.156019 188.15165 
Q 218.748587 187.520948 224.996757 187.520948 
Q 227.403881 187.520948 229.609118 187.606731 
Q 231.819531 187.69154 233.77629 187.859207 
L 233.77629 188.799898 
Q 231.757411 188.584465 229.759239 188.478211 
Q 227.761067 188.370982 225.752542 188.370982 
Q 222.035735 188.370982 220.022034 188.762855 
Q 218.008332 189.153754 218.008332 189.881936 
Q 218.008332 190.603295 219.949561 190.997118 
Q 221.89079 191.389966 225.462652 191.389966 
Q 226.435855 191.389966 227.269289 191.367546 
Q 228.102724 191.34415 228.76533 191.29541 
L 228.76533 190.412233 
L 224.960521 190.412233 
L 224.960521 189.625561 
L 234.666667 189.625561 
L 234.666667 191.813034 
z
" clip-path="url(#p9d6643f9e4)" style="fill: #ffa600"/>
   </g>
   <g id="patch_24">
    <path d="M 227.56866 186.495964 
L 218.685525 186.495964 
L 217.282925 187.520948 
L 211.568627 187.520948 
L 219.729211 181.894386 
L 226.506084 181.894386 
L 234.666667 187.520948 
L 228.957092 187.520948 
L 227.56866 186.495964 
z
M 220.102293 185.451685 
L 226.137724 185.451685 
L 223.124731 183.213601 
L 220.102293 185.451685 
z
" clip-path="url(#p9d6643f9e4)" style="fill: #008000"/>
   </g>
   <g id="patch_25">
    <path d="M 234.666667 181.204858 
Q 232.734556 181.546642 230.645315 181.71952 
Q 228.556074 181.894386 226.280606 181.894386 
Q 219.494939 181.894386 215.531783 180.598789 
Q 211.568627 179.303193 211.568627 177.087564 
Q 211.568627 174.863986 215.531783 173.570377 
Q 219.494939 172.27478 226.280606 172.27478 
Q 228.556074 172.27478 230.645315 172.449646 
Q 232.734556 172.622525 234.666667 172.964308 
L 234.666667 174.88187 
Q 232.717097 174.428809 230.825723 174.218175 
Q 228.934349 174.007541 226.845108 174.007541 
Q 223.097278 174.007541 220.949842 174.828218 
Q 218.808225 175.646908 218.808225 177.087564 
Q 218.808225 178.522258 220.949842 179.342935 
Q 223.097278 180.161625 226.845108 180.161625 
Q 228.934349 180.161625 230.825723 179.950991 
Q 232.717097 179.73837 234.666667 179.285309 
L 234.666667 181.204858 
z
" clip-path="url(#p9d6643f9e4)" style="fill: #0000ff"/>
   </g>
   <g id="patch_26">
    <path d="M 211.568627 105.663546 
L 234.666667 105.663546 
L 234.666667 118.654593 
L 226.356744 118.654593 
L 226.356744 172.27478 
L 219.894665 172.27478 
L 219.894665 118.654593 
L 211.568627 118.654593 
L 211.568627 105.663546 
z
" clip-path="url(#p9d6643f9e4)" style="fill: #ff0000"/>
   </g>
   <g id="patch_27">
    <path d="M 235.882353 187.144565 
L 258.980392 187.144565 
L 258.980392 188.138317 
L 250.67047 188.138317 
L 250.67047 192.24 
L 244.20839 192.24 
L 244.20839 188.138317 
L 235.882353 188.138317 
L 235.882353 187.144565 
z
" clip-path="url(#p9d6643f9e4)" style="fill: #ff0000"/>
   </g>
   <g id="patch_28">
    <path d="M 258.980392 186.657582 
Q 257.048281 186.898968 254.95904 187.021065 
Q 252.8698 187.144565 250.594332 187.144565 
Q 243.808664 187.144565 239.845509 186.229541 
Q 235.882353 185.314517 235.882353 183.749714 
Q 235.882353 182.179297 239.845509 181.265677 
Q 243.808664 180.350653 250.594332 180.350653 
Q 252.8698 180.350653 254.95904 180.474153 
Q 257.048281 180.59625 258.980392 180.837636 
L 258.980392 182.191928 
Q 257.030822 181.87195 255.139448 181.723189 
Q 253.248075 181.574427 251.158834 181.574427 
Q 247.411004 181.574427 245.263567 182.154036 
Q 243.12195 182.732241 243.12195 183.749714 
Q 243.12195 184.762977 245.263567 185.342586 
Q 247.411004 185.920791 251.158834 185.920791 
Q 253.248075 185.920791 255.139448 185.772029 
Q 257.030822 185.621864 258.980392 185.301887 
L 258.980392 186.657582 
z
" clip-path="url(#p9d6643f9e4)" style="fill: #0000ff"/>
   </g>
   <g id="patch_29">
    <path d="M 258.980392 179.638166 
Q 256.650917 179.994409 254.145437 180.173344 
Q 251.639957 180.350653 248.968826 180.350653 
Q 242.932897 180.350653 239.407625 179.290057 
Q 235.882353 178.229461 235.882353 176.415711 
Q 235.882353 174.580815 239.469745 173.528353 
Q 243.062313 172.47589 249.310482 172.47589 
Q 251.717607 172.47589 253.922843 172.619038 
Q 256.133256 172.760559 258.090015 173.040348 
L 258.090015 174.610096 
Q 256.071137 174.250599 254.072965 174.073291 
Q 252.074793 173.894356 250.066268 173.894356 
Q 246.349461 173.894356 244.335759 174.548282 
Q 242.322057 175.200581 242.322057 176.415711 
Q 242.322057 177.619455 244.263286 178.276634 
Q 246.204516 178.932187 249.776377 178.932187 
Q 250.74958 178.932187 251.583015 178.894773 
Q 252.416449 178.855733 253.079055 178.774399 
L 253.079055 177.300626 
L 249.274246 177.300626 
L 249.274246 175.987894 
L 258.980392 175.987894 
L 258.980392 179.638166 
z
" clip-path="url(#p9d6643f9e4)" style="fill: #ffa600"/>
   </g>
   <g id="patch_30">
    <path d="M 251.882385 162.659159 
L 242.99925 162.659159 
L 241.59665 172.47589 
L 235.882353 172.47589 
L 244.042936 118.587809 
L 250.819809 118.587809 
L 258.980392 172.47589 
L 253.270818 172.47589 
L 251.882385 162.659159 
z
M 244.416018 152.657642 
L 250.451449 152.657642 
L 247.438456 131.22252 
L 244.416018 152.657642 
z
" clip-path="url(#p9d6643f9e4)" style="fill: #008000"/>
   </g>
   <g id="patch_31">
    <path d="M 260.196078 188.590244 
L 283.294118 188.590244 
L 283.294118 189.302048 
L 274.984195 189.302048 
L 274.984195 192.24 
L 268.522116 192.24 
L 268.522116 189.302048 
L 260.196078 189.302048 
L 260.196078 188.590244 
z
" clip-path="url(#p9d6643f9e4)" style="fill: #ff0000"/>
   </g>
   <g id="patch_32">
    <path d="M 283.294118 188.216512 
Q 281.362007 188.401763 279.272766 188.495465 
Q 277.183525 188.590244 274.908057 188.590244 
Q 268.12239 188.590244 264.159234 187.888016 
Q 260.196078 187.185788 260.196078 185.984891 
Q 260.196078 184.779687 264.159234 184.078535 
Q 268.12239 183.376307 274.908057 183.376307 
Q 277.183525 183.376307 279.272766 183.471086 
Q 281.362007 183.564789 283.294118 183.750039 
L 283.294118 184.78938 
Q 281.344548 184.543816 279.453174 184.42965 
Q 277.5618 184.315484 275.472559 184.315484 
Q 271.724729 184.315484 269.577293 184.7603 
Q 267.435676 185.204039 267.435676 185.984891 
Q 267.435676 186.762512 269.577293 187.207328 
Q 271.724729 187.651068 275.472559 187.651068 
Q 277.5618 187.651068 279.453174 187.536902 
Q 281.344548 187.421659 283.294118 187.176094 
L 283.294118 188.216512 
z
" clip-path="url(#p9d6643f9e4)" style="fill: #0000ff"/>
   </g>
   <g id="patch_33">
    <path d="M 283.294118 182.739455 
Q 280.964643 183.057881 278.459163 183.217821 
Q 275.953683 183.376307 273.282552 183.376307 
Q 267.246623 183.376307 263.721351 182.428299 
Q 260.196078 181.480291 260.196078 179.859081 
Q 260.196078 178.218969 263.78347 177.27823 
Q 267.376038 176.337492 273.624208 176.337492 
Q 276.031332 176.337492 278.236568 176.465444 
Q 280.446981 176.591942 282.403741 176.84203 
L 282.403741 178.245141 
Q 280.384862 177.923807 278.38669 177.765321 
Q 276.388518 177.605381 274.379993 177.605381 
Q 270.663186 177.605381 268.649485 178.189889 
Q 266.635783 178.772943 266.635783 179.859081 
Q 266.635783 180.935041 268.577012 181.522457 
Q 270.518241 182.108419 274.090103 182.108419 
Q 275.063306 182.108419 275.89674 182.074977 
Q 276.730175 182.040081 277.392781 181.967381 
L 277.392781 180.650057 
L 273.587972 180.650057 
L 273.587972 179.476679 
L 283.294118 179.476679 
L 283.294118 182.739455 
z
" clip-path="url(#p9d6643f9e4)" style="fill: #ffa600"/>
   </g>
   <g id="patch_34">
    <path d="M 276.196111 156.581298 
L 267.312976 156.581298 
L 265.910376 176.337492 
L 260.196078 176.337492 
L 268.356661 67.887604 
L 275.133535 67.887604 
L 283.294118 176.337492 
L 277.584543 176.337492 
L 276.196111 156.581298 
z
M 268.729744 136.453221 
L 274.765175 136.453221 
L 271.752182 93.314989 
L 268.729744 136.453221 
z
" clip-path="url(#p9d6643f9e4)" style="fill: #008000"/>
   </g>
   <g id="patch_35">
    <path d="M 307.607843 191.897528 
Q 305.278368 192.068764 302.772888 192.154773 
Q 300.267408 192.24 297.596277 192.24 
Q 291.560348 192.24 288.035076 191.730202 
Q 284.509804 191.220404 284.509804 190.348586 
Q 284.509804 189.466604 288.097195 188.960716 
Q 291.689764 188.454827 297.937933 188.454827 
Q 300.345058 188.454827 302.550294 188.523634 
Q 304.760707 188.591659 306.717466 188.726146 
L 306.717466 189.480678 
Q 304.698588 189.307879 302.700416 189.222652 
Q 300.702244 189.136643 298.693719 189.136643 
Q 294.976912 189.136643 292.96321 189.450966 
Q 290.949508 189.764508 290.949508 190.348586 
Q 290.949508 190.927192 292.890737 191.243079 
Q 294.831967 191.558184 298.403828 191.558184 
Q 299.377031 191.558184 300.210466 191.5402 
Q 301.0439 191.521435 301.706506 191.48234 
L 301.706506 190.773939 
L 297.901697 190.773939 
L 297.901697 190.142947 
L 307.607843 190.142947 
L 307.607843 191.897528 
z
" clip-path="url(#p9d6643f9e4)" style="fill: #ffa600"/>
   </g>
   <g id="patch_36">
    <path d="M 307.607843 188.168435 
Q 305.675732 188.310393 303.586491 188.382197 
Q 301.497251 188.454827 299.221783 188.454827 
Q 292.436115 188.454827 288.47296 187.916707 
Q 284.509804 187.378586 284.509804 186.458335 
Q 284.509804 185.534782 288.47296 184.997487 
Q 292.436115 184.459367 299.221783 184.459367 
Q 301.497251 184.459367 303.586491 184.531996 
Q 305.675732 184.603801 307.607843 184.745759 
L 307.607843 185.54221 
Q 305.658273 185.354033 303.766899 185.266547 
Q 301.875526 185.179061 299.786285 185.179061 
Q 296.038455 185.179061 293.891018 185.519926 
Q 291.749401 185.859965 291.749401 186.458335 
Q 291.749401 187.054229 293.891018 187.395093 
Q 296.038455 187.735132 299.786285 187.735132 
Q 301.875526 187.735132 303.766899 187.647647 
Q 305.658273 187.559335 307.607843 187.371158 
L 307.607843 188.168435 
z
" clip-path="url(#p9d6643f9e4)" style="fill: #0000ff"/>
   </g>
   <g id="patch_37">
    <path d="M 284.509804 172.788416 
L 307.607843 172.788416 
L 307.607843 175.064577 
L 299.297921 175.064577 
L 299.297921 184.459367 
L 292.835841 184.459367 
L 292.835841 175.064577 
L 284.509804 175.064577 
L 284.509804 172.788416 
z
" clip-path="url(#p9d6643f9e4)" style="fill: #ff0000"/>
   </g>
   <g id="patch_38">
    <path d="M 300.509836 167.195475 
L 291.626701 167.195475 
L 290.224101 172.788416 
L 284.509804 172.788416 
L 292.670387 142.086457 
L 299.44726 142.086457 
L 307.607843 172.788416 
L 301.898269 172.788416 
L 300.509836 167.195475 
z
M 293.043469 161.497254 
L 299.0789 161.497254 
L 296.065907 149.284902 
L 293.043469 161.497254 
z
" clip-path="url(#p9d6643f9e4)" style="fill: #008000"/>
   </g>
   <g id="patch_39">
    <path d="M 331.921569 191.851237 
Q 329.592094 192.045619 327.086614 192.143253 
Q 324.581134 192.24 321.910003 192.24 
Q 315.874074 192.24 312.348802 191.661294 
Q 308.823529 191.082587 308.823529 190.092928 
Q 308.823529 189.091731 312.410921 188.517462 
Q 316.003489 187.943194 322.251659 187.943194 
Q 324.658783 187.943194 326.864019 188.021301 
Q 329.074432 188.098521 331.031191 188.251186 
L 331.031191 189.107707 
Q 329.012313 188.911551 327.014141 188.814804 
Q 325.015969 188.717169 323.007444 188.717169 
Q 319.290637 188.717169 317.276936 189.073979 
Q 315.263234 189.429901 315.263234 190.092928 
Q 315.263234 190.749742 317.204463 191.108327 
Q 319.145692 191.466025 322.717554 191.466025 
Q 323.690757 191.466025 324.524191 191.44561 
Q 325.357626 191.424308 326.020232 191.379929 
L 326.020232 190.575775 
L 322.215423 190.575775 
L 322.215423 189.859493 
L 331.921569 189.859493 
L 331.921569 191.851237 
z
" clip-path="url(#p9d6643f9e4)" style="fill: #ffa600"/>
   </g>
   <g id="patch_40">
    <path d="M 331.921569 187.401552 
Q 329.989458 187.670031 327.900217 187.805832 
Q 325.810976 187.943194 323.535508 187.943194 
Q 316.749841 187.943194 312.786685 186.925469 
Q 308.823529 185.907744 308.823529 184.167309 
Q 308.823529 182.42063 312.786685 181.404466 
Q 316.749841 180.386741 323.535508 180.386741 
Q 325.810976 180.386741 327.900217 180.524103 
Q 329.989458 180.659904 331.921569 180.928383 
L 331.921569 182.434679 
Q 329.971999 182.078787 328.080625 181.913329 
Q 326.189251 181.74787 324.10001 181.74787 
Q 320.35218 181.74787 318.204744 182.392534 
Q 316.063126 183.035636 316.063126 184.167309 
Q 316.063126 185.294299 318.204744 185.938962 
Q 320.35218 186.582064 324.10001 186.582064 
Q 326.189251 186.582064 328.080625 186.416606 
Q 329.971999 186.249587 331.921569 185.893695 
L 331.921569 187.401552 
z
" clip-path="url(#p9d6643f9e4)" style="fill: #0000ff"/>
   </g>
   <g id="patch_41">
    <path d="M 324.823561 178.929217 
L 315.940427 178.929217 
L 314.537827 180.386741 
L 308.823529 180.386741 
L 316.984112 172.385792 
L 323.760986 172.385792 
L 331.921569 180.386741 
L 326.211994 180.386741 
L 324.823561 178.929217 
z
M 317.357195 177.444257 
L 323.392626 177.444257 
L 320.379633 174.261711 
L 317.357195 177.444257 
z
" clip-path="url(#p9d6643f9e4)" style="fill: #008000"/>
   </g>
   <g id="patch_42">
    <path d="M 308.823529 121.564945 
L 331.921569 121.564945 
L 331.921569 131.476426 
L 323.611646 131.476426 
L 323.611646 172.385792 
L 317.149567 172.385792 
L 317.149567 131.476426 
L 308.823529 131.476426 
L 308.823529 121.564945 
z
" clip-path="url(#p9d6643f9e4)" style="fill: #ff0000"/>
   </g>
   <g id="patch_43">
    <path d="M 356.235294 191.783272 
Q 353.905819 192.011636 351.400339 192.126339 
Q 348.894859 192.24 346.223728 192.24 
Q 340.187799 192.24 336.662527 191.560121 
Q 333.137255 190.880243 333.137255 189.717566 
Q 333.137255 188.541335 336.724646 187.86667 
Q 340.317215 187.192005 346.565384 187.192005 
Q 348.972509 187.192005 351.177745 187.283767 
Q 353.388158 187.374487 355.344917 187.553842 
L 355.344917 188.560104 
Q 353.326039 188.329655 351.327867 188.215994 
Q 349.329695 188.10129 347.32117 188.10129 
Q 343.604363 188.10129 341.590661 188.520479 
Q 339.576959 188.938626 339.576959 189.717566 
Q 339.576959 190.489208 341.518188 190.910483 
Q 343.459418 191.330714 347.031279 191.330714 
Q 348.004482 191.330714 348.837917 191.306731 
Q 349.671351 191.281705 350.333957 191.229567 
L 350.333957 190.284827 
L 346.529148 190.284827 
L 346.529148 189.443321 
L 356.235294 189.443321 
L 356.235294 191.783272 
z
" clip-path="url(#p9d6643f9e4)" style="fill: #ffa600"/>
   </g>
   <g id="patch_44">
    <path d="M 356.235294 186.715903 
Q 354.303183 186.951896 352.213942 187.071264 
Q 350.124702 187.192005 347.849234 187.192005 
Q 341.063566 187.192005 337.100411 186.297427 
Q 333.137255 185.40285 333.137255 183.873013 
Q 333.137255 182.337688 337.100411 181.444483 
Q 341.063566 180.549906 347.849234 180.549906 
Q 350.124702 180.549906 352.213942 180.670646 
Q 354.303183 180.790015 356.235294 181.026007 
L 356.235294 182.350037 
Q 354.285724 182.037209 352.39435 181.891772 
Q 350.502976 181.746334 348.413736 181.746334 
Q 344.665906 181.746334 342.518469 182.312991 
Q 340.376852 182.878276 340.376852 183.873013 
Q 340.376852 184.863634 342.518469 185.430291 
Q 344.665906 185.995576 348.413736 185.995576 
Q 350.502976 185.995576 352.39435 185.850139 
Q 354.285724 185.703329 356.235294 185.390502 
L 356.235294 186.715903 
z
" clip-path="url(#p9d6643f9e4)" style="fill: #0000ff"/>
   </g>
   <g id="patch_45">
    <path d="M 349.137287 179.170524 
L 340.254152 179.170524 
L 338.851552 180.549906 
L 333.137255 180.549906 
L 341.297838 172.977913 
L 348.074711 172.977913 
L 356.235294 180.549906 
L 350.52572 180.549906 
L 349.137287 179.170524 
z
M 341.67092 177.765178 
L 347.706351 177.765178 
L 344.693358 174.753258 
L 341.67092 177.765178 
z
" clip-path="url(#p9d6643f9e4)" style="fill: #008000"/>
   </g>
   <g id="patch_46">
    <path d="M 333.137255 128.874375 
L 356.235294 128.874375 
L 356.235294 137.475794 
L 347.925372 137.475794 
L 347.925372 172.977913 
L 341.463292 172.977913 
L 341.463292 137.475794 
L 333.137255 137.475794 
L 333.137255 128.874375 
z
" clip-path="url(#p9d6643f9e4)" style="fill: #ff0000"/>
   </g>
   <g id="patch_47">
    <path d="M 357.45098 191.542642 
L 380.54902 191.542642 
L 380.54902 191.678646 
L 372.239097 191.678646 
L 372.239097 192.24 
L 365.777018 192.24 
L 365.777018 191.678646 
L 357.45098 191.678646 
L 357.45098 191.542642 
z
" clip-path="url(#p9d6643f9e4)" style="fill: #ff0000"/>
   </g>
   <g id="patch_48">
    <path d="M 380.54902 191.467662 
Q 378.616908 191.504828 376.527668 191.523627 
Q 374.438427 191.542642 372.162959 191.542642 
Q 365.377292 191.542642 361.414136 191.401758 
Q 357.45098 191.260875 357.45098 191.019947 
Q 357.45098 190.778155 361.414136 190.637487 
Q 365.377292 190.496604 372.162959 190.496604 
Q 374.438427 190.496604 376.527668 190.515619 
Q 378.616908 190.534418 380.54902 190.571583 
L 380.54902 190.780099 
Q 378.59945 190.730833 376.708076 190.707929 
Q 374.816702 190.685025 372.727461 190.685025 
Q 368.979631 190.685025 366.832195 190.774265 
Q 364.690577 190.86329 364.690577 191.019947 
Q 364.690577 191.175956 366.832195 191.265196 
Q 368.979631 191.354221 372.727461 191.354221 
Q 374.816702 191.354221 376.708076 191.331316 
Q 378.59945 191.308196 380.54902 191.25893 
L 380.54902 191.467662 
z
" clip-path="url(#p9d6643f9e4)" style="fill: #0000ff"/>
   </g>
   <g id="patch_49">
    <path d="M 380.54902 189.928749 
Q 378.219545 190.212676 375.714065 190.355288 
Q 373.208585 190.496604 370.537454 190.496604 
Q 364.501525 190.496604 360.976253 189.651303 
Q 357.45098 188.806003 357.45098 187.360435 
Q 357.45098 185.898014 361.038372 185.059195 
Q 364.63094 184.220377 370.87911 184.220377 
Q 373.286234 184.220377 375.49147 184.334467 
Q 377.701883 184.44726 379.658642 184.670254 
L 379.658642 185.92135 
Q 377.639764 185.63483 375.641592 185.493514 
Q 373.64342 185.350902 371.634895 185.350902 
Q 367.918088 185.350902 365.904386 185.872084 
Q 363.890685 186.39197 363.890685 187.360435 
Q 363.890685 188.319825 365.831914 188.843601 
Q 367.773143 189.366079 371.345005 189.366079 
Q 372.318208 189.366079 373.151642 189.33626 
Q 373.985077 189.305145 374.647683 189.240321 
L 374.647683 188.065717 
L 370.842874 188.065717 
L 370.842874 187.019463 
L 380.54902 187.019463 
L 380.54902 189.928749 
z
" clip-path="url(#p9d6643f9e4)" style="fill: #ffa600"/>
   </g>
   <g id="patch_50">
    <path d="M 373.451012 155.382975 
L 364.567878 155.382975 
L 363.165278 184.220377 
L 357.45098 184.220377 
L 365.611563 25.92 
L 372.388437 25.92 
L 380.54902 184.220377 
L 374.839445 184.220377 
L 373.451012 155.382975 
z
M 365.984646 126.00275 
L 372.020077 126.00275 
L 369.007084 63.035434 
L 365.984646 126.00275 
z
" clip-path="url(#p9d6643f9e4)" style="fill: #008000"/>
   </g>
   <g id="patch_51">
    <path d="M 404.862745 191.902514 
Q 402.930634 192.069798 400.841393 192.154413 
Q 398.752153 192.24 396.476685 192.24 
Q 389.691017 192.24 385.727862 191.605877 
Q 381.764706 190.971755 381.764706 189.887327 
Q 381.764706 188.799009 385.727862 188.165859 
Q 389.691017 187.531737 396.476685 187.531737 
Q 398.752153 187.531737 400.841393 187.617324 
Q 402.930634 187.701938 404.862745 187.869222 
L 404.862745 188.807763 
Q 402.913175 188.586014 401.021801 188.482921 
Q 399.130427 188.379827 397.041187 188.379827 
Q 393.293357 188.379827 391.14592 188.781503 
Q 389.004303 189.182206 389.004303 189.887327 
Q 389.004303 190.589531 391.14592 190.991206 
Q 393.293357 191.39191 397.041187 191.39191 
Q 399.130427 191.39191 401.021801 191.288816 
Q 402.913175 191.18475 404.862745 190.963002 
L 404.862745 191.902514 
z
" clip-path="url(#p9d6643f9e4)" style="fill: #0000ff"/>
   </g>
   <g id="patch_52">
    <path d="M 404.862745 187.031661 
Q 402.53327 187.281699 400.02779 187.407289 
Q 397.52231 187.531737 394.851179 187.531737 
Q 388.81525 187.531737 385.289978 186.787332 
Q 381.764706 186.042927 381.764706 184.769903 
Q 381.764706 183.482037 385.352097 182.743341 
Q 388.944666 182.004645 395.192835 182.004645 
Q 397.59996 182.004645 399.805196 182.105117 
Q 402.015609 182.204447 403.972368 182.400824 
L 403.972368 183.502589 
Q 401.95349 183.250267 399.955318 183.125819 
Q 397.957146 183.000229 395.948621 183.000229 
Q 392.231814 183.000229 390.218112 183.459203 
Q 388.20441 183.917035 388.20441 184.769903 
Q 388.20441 185.61478 390.145639 186.076037 
Q 392.086869 186.536152 395.65873 186.536152 
Q 396.631933 186.536152 397.465368 186.509893 
Q 398.298802 186.482491 398.961408 186.425405 
L 398.961408 185.391002 
L 395.156599 185.391002 
L 395.156599 184.46963 
L 404.862745 184.46963 
L 404.862745 187.031661 
z
" clip-path="url(#p9d6643f9e4)" style="fill: #ffa600"/>
   </g>
   <g id="patch_53">
    <path d="M 381.764706 172.997533 
L 404.862745 172.997533 
L 404.862745 174.754171 
L 396.552823 174.754171 
L 396.552823 182.004645 
L 390.090743 182.004645 
L 390.090743 174.754171 
L 381.764706 174.754171 
L 381.764706 172.997533 
z
" clip-path="url(#p9d6643f9e4)" style="fill: #ff0000"/>
   </g>
   <g id="patch_54">
    <path d="M 397.764738 158.714979 
L 388.881603 158.714979 
L 387.479003 172.997533 
L 381.764706 172.997533 
L 389.925289 94.594714 
L 396.702162 94.594714 
L 404.862745 172.997533 
L 399.15317 172.997533 
L 397.764738 158.714979 
z
M 390.298371 144.163577 
L 396.333802 144.163577 
L 393.320809 112.977201 
L 390.298371 144.163577 
z
" clip-path="url(#p9d6643f9e4)" style="fill: #008000"/>
   </g>
   <g id="patch_55">
    <path d="M 429.176471 192.058682 
Q 426.846996 192.149341 424.341516 192.194877 
Q 421.836036 192.24 419.164905 192.24 
Q 413.128976 192.24 409.603704 191.970092 
Q 406.078431 191.700185 406.078431 191.23861 
Q 406.078431 190.771653 409.665823 190.503815 
Q 413.258391 190.235977 419.506561 190.235977 
Q 421.913685 190.235977 424.118921 190.272406 
Q 426.329334 190.308422 428.286093 190.379624 
L 428.286093 190.779104 
Q 426.267215 190.687617 424.269043 190.642494 
Q 422.270871 190.596958 420.262346 190.596958 
Q 416.545539 190.596958 414.531837 190.763373 
Q 412.518136 190.929375 412.518136 191.23861 
Q 412.518136 191.544946 414.459365 191.71219 
Q 416.400594 191.879019 419.972456 191.879019 
Q 420.945659 191.879019 421.779093 191.869498 
Q 422.612528 191.859563 423.275134 191.838864 
L 423.275134 191.463809 
L 419.470325 191.463809 
L 419.470325 191.129736 
L 429.176471 191.129736 
L 429.176471 192.058682 
z
" clip-path="url(#p9d6643f9e4)" style="fill: #ffa600"/>
   </g>
   <g id="patch_56">
    <path d="M 429.176471 189.972624 
Q 427.244359 190.103162 425.155119 190.16919 
Q 423.065878 190.235977 420.79041 190.235977 
Q 414.004743 190.235977 410.041587 189.741146 
Q 406.078431 189.246316 406.078431 188.400095 
Q 406.078431 187.550838 410.041587 187.056766 
Q 414.004743 186.561935 420.79041 186.561935 
Q 423.065878 186.561935 425.155119 186.628722 
Q 427.244359 186.69475 429.176471 186.825288 
L 429.176471 187.557668 
Q 427.226901 187.384629 425.335527 187.304181 
Q 423.444153 187.223733 421.354912 187.223733 
Q 417.607082 187.223733 415.459646 187.537177 
Q 413.318028 187.849861 413.318028 188.400095 
Q 413.318028 188.948051 415.459646 189.261495 
Q 417.607082 189.574179 421.354912 189.574179 
Q 423.444153 189.574179 425.335527 189.493731 
Q 427.226901 189.412524 429.176471 189.239485 
L 429.176471 189.972624 
z
" clip-path="url(#p9d6643f9e4)" style="fill: #0000ff"/>
   </g>
   <g id="patch_57">
    <path d="M 422.078463 182.972074 
L 413.195329 182.972074 
L 411.792729 186.561935 
L 406.078431 186.561935 
L 414.239014 166.85571 
L 421.015888 166.85571 
L 429.176471 186.561935 
L 423.466896 186.561935 
L 422.078463 182.972074 
z
M 414.612097 179.314639 
L 420.647528 179.314639 
L 417.634535 171.476072 
L 414.612097 179.314639 
z
" clip-path="url(#p9d6643f9e4)" style="fill: #008000"/>
   </g>
   <g id="patch_58">
    <path d="M 406.078431 139.133394 
L 429.176471 139.133394 
L 429.176471 144.540018 
L 420.866548 144.540018 
L 420.866548 166.85571 
L 414.404469 166.85571 
L 414.404469 144.540018 
L 406.078431 144.540018 
L 406.078431 139.133394 
z
" clip-path="url(#p9d6643f9e4)" style="fill: #ff0000"/>
   </g>
   <g id="patch_59">
    <path d="M 453.490196 191.919212 
Q 451.160721 192.079606 448.655241 192.160169 
Q 446.149761 192.24 443.47863 192.24 
Q 437.442701 192.24 433.917429 191.76248 
Q 430.392157 191.284959 430.392157 190.46834 
Q 430.392157 189.642201 433.979548 189.168342 
Q 437.572117 188.694484 443.820286 188.694484 
Q 446.227411 188.694484 448.432647 188.758934 
Q 450.64306 188.822652 452.599819 188.948624 
L 452.599819 189.655384 
Q 450.580941 189.493525 448.582769 189.413694 
Q 446.584597 189.333131 444.576072 189.333131 
Q 440.859265 189.333131 438.845563 189.627553 
Q 436.831861 189.921242 436.831861 190.46834 
Q 436.831861 191.010311 438.77309 191.306198 
Q 440.71432 191.601353 444.286181 191.601353 
Q 445.259384 191.601353 446.092819 191.584508 
Q 446.926253 191.56693 447.588859 191.530311 
L 447.588859 190.866762 
L 443.78405 190.866762 
L 443.78405 190.275721 
L 453.490196 190.275721 
L 453.490196 191.919212 
z
" clip-path="url(#p9d6643f9e4)" style="fill: #ffa600"/>
   </g>
   <g id="patch_60">
    <path d="M 453.490196 188.240661 
Q 451.558085 188.465611 449.468844 188.579393 
Q 447.379604 188.694484 445.104135 188.694484 
Q 438.318468 188.694484 434.355312 187.841768 
Q 430.392157 186.989053 430.392157 185.530806 
Q 430.392157 184.067327 434.355312 183.215919 
Q 438.318468 182.363204 445.104135 182.363204 
Q 447.379604 182.363204 449.468844 182.478295 
Q 451.558085 182.592077 453.490196 182.817026 
L 453.490196 184.079097 
Q 451.540626 183.780908 449.649252 183.642277 
Q 447.757878 183.503645 445.668638 183.503645 
Q 441.920808 183.503645 439.773371 184.043785 
Q 437.631754 184.582618 437.631754 185.530806 
Q 437.631754 186.47507 439.773371 187.01521 
Q 441.920808 187.554042 445.668638 187.554042 
Q 447.757878 187.554042 449.649252 187.415411 
Q 451.540626 187.275471 453.490196 186.977283 
L 453.490196 188.240661 
z
" clip-path="url(#p9d6643f9e4)" style="fill: #0000ff"/>
   </g>
   <g id="patch_61">
    <path d="M 430.392157 175.778674 
L 453.490196 175.778674 
L 453.490196 177.06284 
L 445.180274 177.06284 
L 445.180274 182.363204 
L 438.718194 182.363204 
L 438.718194 177.06284 
L 430.392157 177.06284 
L 430.392157 175.778674 
z
" clip-path="url(#p9d6643f9e4)" style="fill: #ff0000"/>
   </g>
   <g id="patch_62">
    <path d="M 446.392189 156.771266 
L 437.509054 156.771266 
L 436.106454 175.778674 
L 430.392157 175.778674 
L 438.55274 71.439189 
L 445.329613 71.439189 
L 453.490196 175.778674 
L 447.780621 175.778674 
L 446.392189 156.771266 
z
M 438.925822 137.406073 
L 444.961253 137.406073 
L 441.94826 95.90284 
L 438.925822 137.406073 
z
" clip-path="url(#p9d6643f9e4)" style="fill: #008000"/>
   </g>
   <g id="patch_63">
    <path d="M 477.803922 192.060195 
Q 475.474447 192.150098 472.968967 192.195254 
Q 470.463487 192.24 467.792355 192.24 
Q 461.756427 192.24 458.231155 191.972345 
Q 454.705882 191.704691 454.705882 191.246969 
Q 454.705882 190.78391 458.293274 190.518308 
Q 461.885842 190.252706 468.134012 190.252706 
Q 470.541136 190.252706 472.746372 190.288831 
Q 474.956785 190.324546 476.913544 190.395154 
L 476.913544 190.791299 
Q 474.894666 190.700576 472.896494 190.65583 
Q 470.898322 190.610674 468.889797 190.610674 
Q 465.17299 190.610674 463.159288 190.7757 
Q 461.145587 190.940316 461.145587 191.246969 
Q 461.145587 191.550749 463.086816 191.716596 
Q 465.028045 191.882033 468.599907 191.882033 
Q 469.57311 191.882033 470.406544 191.872591 
Q 471.239979 191.862739 471.902585 191.842213 
L 471.902585 191.470288 
L 468.097776 191.470288 
L 468.097776 191.139004 
L 477.803922 191.139004 
L 477.803922 192.060195 
z
" clip-path="url(#p9d6643f9e4)" style="fill: #ffa600"/>
   </g>
   <g id="patch_64">
    <path d="M 454.705882 184.354931 
L 477.803922 184.354931 
L 477.803922 185.505162 
L 469.493999 185.505162 
L 469.493999 190.252706 
L 463.03192 190.252706 
L 463.03192 185.505162 
L 454.705882 185.505162 
L 454.705882 184.354931 
z
" clip-path="url(#p9d6643f9e4)" style="fill: #ff0000"/>
   </g>
   <g id="patch_65">
    <path d="M 477.803922 183.858661 
Q 475.87181 184.104651 473.78257 184.229076 
Q 471.693329 184.354931 469.417861 184.354931 
Q 462.632194 184.354931 458.669038 183.422458 
Q 454.705882 182.489984 454.705882 180.895339 
Q 454.705882 179.294974 458.669038 178.36393 
Q 462.632194 177.431457 469.417861 177.431457 
Q 471.693329 177.431457 473.78257 177.557312 
Q 475.87181 177.681737 477.803922 177.927727 
L 477.803922 179.307846 
Q 475.854352 178.981766 473.962978 178.830167 
Q 472.071604 178.678569 469.982363 178.678569 
Q 466.234533 178.678569 464.087097 179.269231 
Q 461.945479 179.858463 461.945479 180.895339 
Q 461.945479 181.927925 464.087097 182.518587 
Q 466.234533 183.107819 469.982363 183.107819 
Q 472.071604 183.107819 473.962978 182.956221 
Q 475.854352 182.803192 477.803922 182.477112 
L 477.803922 183.858661 
z
" clip-path="url(#p9d6643f9e4)" style="fill: #0000ff"/>
   </g>
   <g id="patch_66">
    <path d="M 470.705914 174.558628 
L 461.82278 174.558628 
L 460.42018 177.431457 
L 454.705882 177.431457 
L 462.866465 161.661319 
L 469.643339 161.661319 
L 477.803922 177.431457 
L 472.094347 177.431457 
L 470.705914 174.558628 
z
M 463.239548 171.631723 
L 469.274979 171.631723 
L 466.261986 165.358818 
L 463.239548 171.631723 
z
" clip-path="url(#p9d6643f9e4)" style="fill: #008000"/>
   </g>
   <g id="patch_67">
    <path d="M 502.117647 192.067998 
Q 499.788172 192.153999 497.282692 192.197196 
Q 494.777212 192.24 492.106081 192.24 
Q 486.070152 192.24 482.54488 191.983961 
Q 479.019608 191.727922 479.019608 191.290063 
Q 479.019608 190.8471 482.606999 190.593024 
Q 486.199568 190.338949 492.447737 190.338949 
Q 494.854862 190.338949 497.060098 190.373506 
Q 499.270511 190.407671 501.22727 190.475215 
L 501.22727 190.854168 
Q 499.208392 190.767382 497.21022 190.724578 
Q 495.212048 190.681381 493.203523 190.681381 
Q 489.486716 190.681381 487.473014 190.839246 
Q 485.459312 190.996718 485.459312 191.290063 
Q 485.459312 191.58066 487.400541 191.73931 
Q 489.341771 191.897567 492.913632 191.897567 
Q 493.886835 191.897567 494.72027 191.888535 
Q 495.553704 191.87911 496.21631 191.859476 
L 496.21631 191.503691 
L 492.411501 191.503691 
L 492.411501 191.186784 
L 502.117647 191.186784 
L 502.117647 192.067998 
z
" clip-path="url(#p9d6643f9e4)" style="fill: #ffa600"/>
   </g>
   <g id="patch_68">
    <path d="M 502.117647 189.960431 
Q 500.185536 190.148054 498.096295 190.242956 
Q 496.007055 190.338949 493.731586 190.338949 
Q 486.945919 190.338949 482.982763 189.627729 
Q 479.019608 188.916509 479.019608 187.700236 
Q 479.019608 186.479599 482.982763 185.76947 
Q 486.945919 185.05825 493.731586 185.05825 
Q 496.007055 185.05825 498.096295 185.154243 
Q 500.185536 185.249145 502.117647 185.436767 
L 502.117647 186.489417 
Q 500.168077 186.240708 498.276703 186.12508 
Q 496.385329 186.009452 494.296089 186.009452 
Q 490.548259 186.009452 488.400822 186.459964 
Q 486.259205 186.909385 486.259205 187.700236 
Q 486.259205 188.487813 488.400822 188.938325 
Q 490.548259 189.387747 494.296089 189.387747 
Q 496.385329 189.387747 498.276703 189.272119 
Q 500.168077 189.1554 502.117647 188.906691 
L 502.117647 189.960431 
z
" clip-path="url(#p9d6643f9e4)" style="fill: #0000ff"/>
   </g>
   <g id="patch_69">
    <path d="M 495.01964 183.563483 
L 486.136505 183.563483 
L 484.733905 185.05825 
L 479.019608 185.05825 
L 487.180191 176.852857 
L 493.957064 176.852857 
L 502.117647 185.05825 
L 496.408072 185.05825 
L 495.01964 183.563483 
z
M 487.553273 182.040579 
L 493.588704 182.040579 
L 490.575711 178.776711 
L 487.553273 182.040579 
z
" clip-path="url(#p9d6643f9e4)" style="fill: #008000"/>
   </g>
   <g id="patch_70">
    <path d="M 479.019608 161.238238 
L 502.117647 161.238238 
L 502.117647 164.283524 
L 493.807725 164.283524 
L 493.807725 176.852857 
L 487.345645 176.852857 
L 487.345645 164.283524 
L 479.019608 164.283524 
L 479.019608 161.238238 
z
" clip-path="url(#p9d6643f9e4)" style="fill: #ff0000"/>
   </g>
   <g id="patch_71">
    <path d="M 526.431373 191.904933 
Q 524.101898 192.072467 521.596418 192.156616 
Q 519.090938 192.24 516.419806 192.24 
Q 510.383878 192.24 506.858606 191.741225 
Q 503.333333 191.24245 503.333333 190.389483 
Q 503.333333 189.526572 506.920725 189.031622 
Q 510.513293 188.536671 516.761463 188.536671 
Q 519.168587 188.536671 521.373823 188.603991 
Q 523.584236 188.670545 525.540995 188.802124 
L 525.540995 189.540342 
Q 523.522117 189.371278 521.523945 189.287894 
Q 519.525773 189.203745 517.517248 189.203745 
Q 513.800441 189.203745 511.786739 189.511272 
Q 509.773038 189.818034 509.773038 190.389483 
Q 509.773038 190.955578 511.714267 191.264635 
Q 513.655496 191.572927 517.227358 191.572927 
Q 518.200561 191.572927 519.033995 191.555332 
Q 519.86743 191.536972 520.530036 191.498722 
L 520.530036 190.805639 
L 516.725227 190.805639 
L 516.725227 190.18829 
L 526.431373 190.18829 
L 526.431373 191.904933 
z
" clip-path="url(#p9d6643f9e4)" style="fill: #ffa600"/>
   </g>
   <g id="patch_72">
    <path d="M 519.333365 187.557695 
L 510.450231 187.557695 
L 509.047631 188.536671 
L 503.333333 188.536671 
L 511.493916 183.162668 
L 518.270789 183.162668 
L 526.431373 188.536671 
L 520.721798 188.536671 
L 519.333365 187.557695 
z
M 511.866999 186.560291 
L 517.90243 186.560291 
L 514.889437 184.422668 
L 511.866999 186.560291 
z
" clip-path="url(#p9d6643f9e4)" style="fill: #008000"/>
   </g>
   <g id="patch_73">
    <path d="M 526.431373 182.450138 
Q 524.499261 182.803323 522.410021 182.981969 
Q 520.32078 183.162668 518.045312 183.162668 
Q 511.259645 183.162668 507.296489 181.823851 
Q 503.333333 180.485034 503.333333 178.195492 
Q 503.333333 175.897736 507.296489 174.560972 
Q 511.259645 173.222155 518.045312 173.222155 
Q 520.32078 173.222155 522.410021 173.402854 
Q 524.499261 173.5815 526.431373 173.934685 
L 526.431373 175.916217 
Q 524.481803 175.448041 522.590429 175.230381 
Q 520.699055 175.01272 518.609814 175.01272 
Q 514.861984 175.01272 512.714548 175.860775 
Q 510.57293 176.706776 510.57293 178.195492 
Q 510.57293 179.678047 512.714548 180.526102 
Q 514.861984 181.372103 518.609814 181.372103 
Q 520.699055 181.372103 522.590429 181.154442 
Q 524.481803 180.934728 526.431373 180.466553 
L 526.431373 182.450138 
z
" clip-path="url(#p9d6643f9e4)" style="fill: #0000ff"/>
   </g>
   <g id="patch_74">
    <path d="M 503.333333 139.112549 
L 526.431373 139.112549 
L 526.431373 145.764873 
L 518.12145 145.764873 
L 518.12145 173.222155 
L 511.659371 173.222155 
L 511.659371 145.764873 
L 503.333333 145.764873 
L 503.333333 139.112549 
z
" clip-path="url(#p9d6643f9e4)" style="fill: #ff0000"/>
   </g>
   <g id="patch_75">
    <path d="M 550.745098 192.066102 
Q 548.812987 192.152299 546.723746 192.195899 
Q 544.634506 192.24 542.359037 192.24 
Q 535.57337 192.24 531.610214 191.913251 
Q 527.647059 191.586503 527.647059 191.027723 
Q 527.647059 190.466938 531.610214 190.14069 
Q 535.57337 189.813942 542.359037 189.813942 
Q 544.634506 189.813942 546.723746 189.858043 
Q 548.812987 189.901643 550.745098 189.98784 
L 550.745098 190.471448 
Q 548.795528 190.357186 546.904154 190.304065 
Q 545.01278 190.250943 542.92354 190.250943 
Q 539.17571 190.250943 537.028273 190.457917 
Q 534.886656 190.66439 534.886656 191.027723 
Q 534.886656 191.389552 537.028273 191.596526 
Q 539.17571 191.802999 542.92354 191.802999 
Q 545.01278 191.802999 546.904154 191.749877 
Q 548.795528 191.696254 550.745098 191.581992 
L 550.745098 192.066102 
z
" clip-path="url(#p9d6643f9e4)" style="fill: #0000ff"/>
   </g>
   <g id="patch_76">
    <path d="M 550.745098 189.522927 
Q 548.415623 189.668434 545.910143 189.74152 
Q 543.404663 189.813942 540.733532 189.813942 
Q 534.697603 189.813942 531.172331 189.380741 
Q 527.647059 188.947541 527.647059 188.206714 
Q 527.647059 187.457251 531.23445 187.027372 
Q 534.827019 186.597494 541.075188 186.597494 
Q 543.482313 186.597494 545.687549 186.655962 
Q 547.897962 186.713767 549.854721 186.828047 
L 549.854721 187.46921 
Q 547.835843 187.322374 545.837671 187.249952 
Q 543.839499 187.176866 541.830974 187.176866 
Q 538.114167 187.176866 536.100465 187.443962 
Q 534.086763 187.710394 534.086763 188.206714 
Q 534.086763 188.698384 536.027992 188.966809 
Q 537.969222 189.234569 541.541083 189.234569 
Q 542.514286 189.234569 543.347721 189.219288 
Q 544.181155 189.203342 544.843761 189.170121 
L 544.843761 188.568158 
L 541.038952 188.568158 
L 541.038952 188.031972 
L 550.745098 188.031972 
L 550.745098 189.522927 
z
" clip-path="url(#p9d6643f9e4)" style="fill: #ffa600"/>
   </g>
   <g id="patch_77">
    <path d="M 527.647059 181.229428 
L 550.745098 181.229428 
L 550.745098 182.276351 
L 542.435176 182.276351 
L 542.435176 186.597494 
L 535.973096 186.597494 
L 535.973096 182.276351 
L 527.647059 182.276351 
L 527.647059 181.229428 
z
" clip-path="url(#p9d6643f9e4)" style="fill: #ff0000"/>
   </g>
   <g id="patch_78">
    <path d="M 543.647091 179.419624 
L 534.763956 179.419624 
L 533.361356 181.229428 
L 527.647059 181.229428 
L 535.807642 171.294665 
L 542.584515 171.294665 
L 550.745098 181.229428 
L 545.035523 181.229428 
L 543.647091 179.419624 
z
M 536.180724 177.575752 
L 542.216155 177.575752 
L 539.203162 173.62399 
L 536.180724 177.575752 
z
" clip-path="url(#p9d6643f9e4)" style="fill: #008000"/>
   </g>
   <g id="patch_79">
    <path d="M 575.058824 192.082325 
Q 572.729348 192.161163 570.223869 192.200761 
Q 567.718389 192.24 565.047257 192.24 
Q 559.011329 192.24 555.486057 192.005287 
Q 551.960784 191.770575 551.960784 191.369188 
Q 551.960784 190.963121 555.548176 190.730208 
Q 559.140744 190.497296 565.388914 190.497296 
Q 567.796038 190.497296 570.001274 190.528975 
Q 572.211687 190.560294 574.168446 190.622212 
L 574.168446 190.969601 
Q 572.149568 190.890043 570.151396 190.850804 
Q 568.153224 190.811206 566.144699 190.811206 
Q 562.427892 190.811206 560.41419 190.955921 
Q 558.400489 191.100276 558.400489 191.369188 
Q 558.400489 191.635579 560.341718 191.781015 
Q 562.282947 191.92609 565.854809 191.92609 
Q 566.828012 191.92609 567.661446 191.91781 
Q 568.494881 191.909171 569.157487 191.891171 
L 569.157487 191.565022 
L 565.352678 191.565022 
L 565.352678 191.274511 
L 575.058824 191.274511 
L 575.058824 192.082325 
z
" clip-path="url(#p9d6643f9e4)" style="fill: #ffa600"/>
   </g>
   <g id="patch_80">
    <path d="M 575.058824 190.017546 
Q 573.126712 190.255347 571.037472 190.37563 
Q 568.948231 190.497296 566.672763 190.497296 
Q 559.887096 190.497296 555.92394 189.595863 
Q 551.960784 188.694431 551.960784 187.152872 
Q 551.960784 185.605782 555.92394 184.705732 
Q 559.887096 183.8043 566.672763 183.8043 
Q 568.948231 183.8043 571.037472 183.925966 
Q 573.126712 184.046249 575.058824 184.28405 
L 575.058824 185.618225 
Q 573.109254 185.303 571.21788 185.156448 
Q 569.326506 185.009897 567.237265 185.009897 
Q 563.489435 185.009897 561.341999 185.580896 
Q 559.200381 186.150512 559.200381 187.152872 
Q 559.200381 188.151083 561.341999 188.722083 
Q 563.489435 189.291699 567.237265 189.291699 
Q 569.326506 189.291699 571.21788 189.145147 
Q 573.109254 188.997213 575.058824 188.681988 
L 575.058824 190.017546 
z
" clip-path="url(#p9d6643f9e4)" style="fill: #0000ff"/>
   </g>
   <g id="patch_81">
    <path d="M 567.960816 181.70166 
L 559.077682 181.70166 
L 557.675081 183.8043 
L 551.960784 183.8043 
L 560.121367 172.262041 
L 566.89824 172.262041 
L 575.058824 183.8043 
L 569.349249 183.8043 
L 567.960816 181.70166 
z
M 560.49445 179.55944 
L 566.529881 179.55944 
L 563.516888 174.968263 
L 560.49445 179.55944 
z
" clip-path="url(#p9d6643f9e4)" style="fill: #008000"/>
   </g>
   <g id="patch_82">
    <path d="M 551.960784 144.050434 
L 575.058824 144.050434 
L 575.058824 149.552483 
L 566.748901 149.552483 
L 566.748901 172.262041 
L 560.286822 172.262041 
L 560.286822 149.552483 
L 551.960784 149.552483 
L 551.960784 144.050434 
z
" clip-path="url(#p9d6643f9e4)" style="fill: #ff0000"/>
   </g>
   <g id="patch_83">
    <path d="M 599.372549 192.034655 
Q 597.043074 192.137327 594.537594 192.188898 
Q 592.032114 192.24 589.360983 192.24 
Q 583.325054 192.24 579.799782 191.934326 
Q 576.27451 191.628653 576.27451 191.105913 
Q 576.27451 190.577079 579.861901 190.27375 
Q 583.45447 189.97042 589.702639 189.97042 
Q 592.109763 189.97042 594.315 190.011677 
Q 596.525413 190.052464 598.482172 190.133102 
L 598.482172 190.585518 
Q 596.463294 190.481908 594.465122 190.430806 
Q 592.46695 190.379235 590.458425 190.379235 
Q 586.741618 190.379235 584.727916 190.567703 
Q 582.714214 190.755701 582.714214 191.105913 
Q 582.714214 191.452843 584.655443 191.642249 
Q 586.596673 191.831185 590.168534 191.831185 
Q 591.141737 191.831185 591.975172 191.820402 
Q 592.808606 191.80915 593.471212 191.785709 
L 593.471212 191.360954 
L 589.666403 191.360954 
L 589.666403 190.982612 
L 599.372549 190.982612 
L 599.372549 192.034655 
z
" clip-path="url(#p9d6643f9e4)" style="fill: #ffa600"/>
   </g>
   <g id="patch_84">
    <path d="M 592.274542 188.861903 
L 583.391407 188.861903 
L 581.988807 189.97042 
L 576.27451 189.97042 
L 584.435093 183.885314 
L 591.211966 183.885314 
L 599.372549 189.97042 
L 593.662974 189.97042 
L 592.274542 188.861903 
z
M 584.808175 187.73252 
L 590.843606 187.73252 
L 587.830613 185.312041 
L 584.808175 187.73252 
z
" clip-path="url(#p9d6643f9e4)" style="fill: #008000"/>
   </g>
   <g id="patch_85">
    <path d="M 599.372549 183.430276 
Q 597.440438 183.655828 595.351197 183.769915 
Q 593.261957 183.885314 590.986488 183.885314 
Q 584.200821 183.885314 580.237665 183.030314 
Q 576.27451 182.175314 576.27451 180.713158 
Q 576.27451 179.245758 580.237665 178.392069 
Q 584.200821 177.537069 590.986488 177.537069 
Q 593.261957 177.537069 595.351197 177.652467 
Q 597.440438 177.766555 599.372549 177.992107 
L 599.372549 179.25756 
Q 597.422979 178.958572 595.531605 178.819569 
Q 593.640231 178.680566 591.550991 178.680566 
Q 587.803161 178.680566 585.655724 179.222153 
Q 583.514107 179.76243 583.514107 180.713158 
Q 583.514107 181.659953 585.655724 182.201541 
Q 587.803161 182.741817 591.550991 182.741817 
Q 593.640231 182.741817 595.531605 182.602814 
Q 597.422979 182.462499 599.372549 182.163512 
L 599.372549 183.430276 
z
" clip-path="url(#p9d6643f9e4)" style="fill: #0000ff"/>
   </g>
   <g id="patch_86">
    <path d="M 576.27451 160.860589 
L 599.372549 160.860589 
L 599.372549 164.112968 
L 591.062627 164.112968 
L 591.062627 177.537069 
L 584.600547 177.537069 
L 584.600547 164.112968 
L 576.27451 164.112968 
L 576.27451 160.860589 
z
" clip-path="url(#p9d6643f9e4)" style="fill: #ff0000"/>
   </g>
   <g id="patch_87">
    <path d="M 623.686275 191.984013 
Q 621.754163 192.1109 619.664923 192.175081 
Q 617.575682 192.24 615.300214 192.24 
Q 608.514547 192.24 604.551391 191.759009 
Q 600.588235 191.278018 600.588235 190.455465 
Q 600.588235 189.629961 604.551391 189.149708 
Q 608.514547 188.668717 615.300214 188.668717 
Q 617.575682 188.668717 619.664923 188.733636 
Q 621.754163 188.797817 623.686275 188.924704 
L 623.686275 189.6366 
Q 621.736705 189.468401 619.845331 189.390203 
Q 617.953957 189.312005 615.864716 189.312005 
Q 612.116886 189.312005 609.96945 189.616682 
Q 607.827832 189.920621 607.827832 190.455465 
Q 607.827832 190.988096 609.96945 191.292773 
Q 612.116886 191.596712 615.864716 191.596712 
Q 617.953957 191.596712 619.845331 191.518514 
Q 621.736705 191.439578 623.686275 191.271379 
L 623.686275 191.984013 
z
" clip-path="url(#p9d6643f9e4)" style="fill: #0000ff"/>
   </g>
   <g id="patch_88">
    <path d="M 623.686275 188.316661 
Q 621.356799 188.492689 618.85132 188.581105 
Q 616.34584 188.668717 613.674708 188.668717 
Q 607.63878 188.668717 604.113508 188.144652 
Q 600.588235 187.620587 600.588235 186.724373 
Q 600.588235 185.817708 604.175627 185.297663 
Q 607.768195 184.777617 614.016365 184.777617 
Q 616.423489 184.777617 618.628725 184.84835 
Q 620.839138 184.918279 622.795897 185.056529 
L 622.795897 185.832177 
Q 620.777019 185.654541 618.778847 185.566929 
Q 616.780675 185.478513 614.77215 185.478513 
Q 611.055343 185.478513 609.041641 185.801633 
Q 607.02794 186.123949 607.02794 186.724373 
Q 607.02794 187.31917 608.969169 187.643897 
Q 610.910398 187.96782 614.48226 187.96782 
Q 615.455463 187.96782 616.288897 187.949333 
Q 617.122331 187.930043 617.784938 187.889854 
L 617.784938 187.161629 
L 613.980128 187.161629 
L 613.980128 186.512978 
L 623.686275 186.512978 
L 623.686275 188.316661 
z
" clip-path="url(#p9d6643f9e4)" style="fill: #ffa600"/>
   </g>
   <g id="patch_89">
    <path d="M 600.588235 172.251474 
L 623.686275 172.251474 
L 623.686275 174.694421 
L 615.376352 174.694421 
L 615.376352 184.777617 
L 608.914273 184.777617 
L 608.914273 174.694421 
L 600.588235 174.694421 
L 600.588235 172.251474 
z
" clip-path="url(#p9d6643f9e4)" style="fill: #ff0000"/>
   </g>
   <g id="patch_90">
    <path d="M 616.588267 166.629326 
L 607.705133 166.629326 
L 606.302532 172.251474 
L 600.588235 172.251474 
L 608.748818 141.38919 
L 615.525691 141.38919 
L 623.686275 172.251474 
L 617.9767 172.251474 
L 616.588267 166.629326 
z
M 609.121901 160.90135 
L 615.157332 160.90135 
L 612.144339 148.625225 
L 609.121901 160.90135 
z
" clip-path="url(#p9d6643f9e4)" style="fill: #008000"/>
   </g>
   <g id="patch_91">
    <path d="M 648 192.036233 
Q 646.067889 192.137235 643.978648 192.188324 
Q 641.889408 192.24 639.613939 192.24 
Q 632.828272 192.24 628.865116 191.857129 
Q 624.901961 191.474257 624.901961 190.8195 
Q 624.901961 190.162395 628.865116 189.78011 
Q 632.828272 189.397239 639.613939 189.397239 
Q 641.889408 189.397239 643.978648 189.448915 
Q 646.067889 189.500004 648 189.601006 
L 648 190.16768 
Q 646.05043 190.033792 644.159056 189.971546 
Q 642.267682 189.9093 640.178442 189.9093 
Q 636.430612 189.9093 634.283175 190.151824 
Q 632.141558 190.393762 632.141558 190.8195 
Q 632.141558 191.243478 634.283175 191.486002 
Q 636.430612 191.727939 640.178442 191.727939 
Q 642.267682 191.727939 644.159056 191.665693 
Q 646.05043 191.60286 648 191.468972 
L 648 192.036233 
z
" clip-path="url(#p9d6643f9e4)" style="fill: #0000ff"/>
   </g>
   <g id="patch_92">
    <path d="M 648 189.042567 
Q 645.670525 189.219903 643.165045 189.308976 
Q 640.659565 189.397239 637.988434 189.397239 
Q 631.952505 189.397239 628.427233 188.86928 
Q 624.901961 188.34132 624.901961 187.438445 
Q 624.901961 186.525043 628.489352 186.001132 
Q 632.081921 185.477221 638.33009 185.477221 
Q 640.737214 185.477221 642.942451 185.54848 
Q 645.152864 185.618928 647.109623 185.758206 
L 647.109623 186.539618 
Q 645.090745 186.360663 643.092573 186.2724 
Q 641.094401 186.183327 639.085875 186.183327 
Q 635.369069 186.183327 633.355367 186.508848 
Q 631.341665 186.833559 631.341665 187.438445 
Q 631.341665 188.037663 633.282894 188.364803 
Q 635.224124 188.691134 638.795985 188.691134 
Q 639.769188 188.691134 640.602623 188.67251 
Q 641.436057 188.653075 642.098663 188.612588 
L 642.098663 187.878951 
L 638.293854 187.878951 
L 638.293854 187.22548 
L 648 187.22548 
L 648 189.042567 
z
" clip-path="url(#p9d6643f9e4)" style="fill: #ffa600"/>
   </g>
   <g id="patch_93">
    <path d="M 624.901961 178.504976 
L 648 178.504976 
L 648 179.864758 
L 639.690078 179.864758 
L 639.690078 185.477221 
L 633.227998 185.477221 
L 633.227998 179.864758 
L 624.901961 179.864758 
L 624.901961 178.504976 
z
" clip-path="url(#p9d6643f9e4)" style="fill: #ff0000"/>
   </g>
   <g id="patch_94">
    <path d="M 640.901993 175.80664 
L 632.018858 175.80664 
L 630.616258 178.504976 
L 624.901961 178.504976 
L 633.062544 163.692696 
L 639.839417 163.692696 
L 648 178.504976 
L 642.290425 178.504976 
L 640.901993 175.80664 
z
M 633.435626 173.057511 
L 639.471057 173.057511 
L 636.458064 167.165614 
L 633.435626 173.057511 
z
" clip-path="url(#p9d6643f9e4)" style="fill: #008000"/>
   </g>
   <g id="matplotlib.axis_1">
    <g id="xtick_1">
     <g id="line2d_2">
      <defs>
       <path id="m392d2b76a0" d="M 0 0 
L 0 3.5 
" style="stroke: #000000; stroke-width: 0.8"/>
      </defs>
      <g>
       <use xlink:href="#m392d2b76a0" x="101.54902" y="192.24" style="stroke: #000000; stroke-width: 0.8"/>
      </g>
     </g>
     <g id="text_1">
      <!-- 0 -->
      <g transform="translate(98.36777 206.838437) scale(0.1 -0.1)">
       <defs>
        <path id="DejaVuSans-30" d="M 2034 4250 
Q 1547 4250 1301 3770 
Q 1056 3291 1056 2328 
Q 1056 1369 1301 889 
Q 1547 409 2034 409 
Q 2525 409 2770 889 
Q 3016 1369 3016 2328 
Q 3016 3291 2770 3770 
Q 2525 4250 2034 4250 
z
M 2034 4750 
Q 2819 4750 3233 4129 
Q 3647 3509 3647 2328 
Q 3647 1150 3233 529 
Q 2819 -91 2034 -91 
Q 1250 -91 836 529 
Q 422 1150 422 2328 
Q 422 3509 836 4129 
Q 1250 4750 2034 4750 
z
" transform="scale(0.015625)"/>
       </defs>
       <use xlink:href="#DejaVuSans-30"/>
      </g>
     </g>
    </g>
    <g id="xtick_2">
     <g id="line2d_3">
      <g>
       <use xlink:href="#m392d2b76a0" x="223.117647" y="192.24" style="stroke: #000000; stroke-width: 0.8"/>
      </g>
     </g>
     <g id="text_2">
      <!-- 5 -->
      <g transform="translate(219.936397 206.838437) scale(0.1 -0.1)">
       <defs>
        <path id="DejaVuSans-35" d="M 691 4666 
L 3169 4666 
L 3169 4134 
L 1269 4134 
L 1269 2991 
Q 1406 3038 1543 3061 
Q 1681 3084 1819 3084 
Q 2600 3084 3056 2656 
Q 3513 2228 3513 1497 
Q 3513 744 3044 326 
Q 2575 -91 1722 -91 
Q 1428 -91 1123 -41 
Q 819 9 494 109 
L 494 744 
Q 775 591 1075 516 
Q 1375 441 1709 441 
Q 2250 441 2565 725 
Q 2881 1009 2881 1497 
Q 2881 1984 2565 2268 
Q 2250 2553 1709 2553 
Q 1456 2553 1204 2497 
Q 953 2441 691 2322 
L 691 4666 
z
" transform="scale(0.015625)"/>
       </defs>
       <use xlink:href="#DejaVuSans-35"/>
      </g>
     </g>
    </g>
    <g id="xtick_3">
     <g id="line2d_4">
      <g>
       <use xlink:href="#m392d2b76a0" x="344.686275" y="192.24" style="stroke: #000000; stroke-width: 0.8"/>
      </g>
     </g>
     <g id="text_3">
      <!-- 10 -->
      <g transform="translate(338.323775 206.838437) scale(0.1 -0.1)">
       <defs>
        <path id="DejaVuSans-31" d="M 794 531 
L 1825 531 
L 1825 4091 
L 703 3866 
L 703 4441 
L 1819 4666 
L 2450 4666 
L 2450 531 
L 3481 531 
L 3481 0 
L 794 0 
L 794 531 
z
" transform="scale(0.015625)"/>
       </defs>
       <use xlink:href="#DejaVuSans-31"/>
       <use xlink:href="#DejaVuSans-30" x="63.623047"/>
      </g>
     </g>
    </g>
    <g id="xtick_4">
     <g id="line2d_5">
      <g>
       <use xlink:href="#m392d2b76a0" x="466.254902" y="192.24" style="stroke: #000000; stroke-width: 0.8"/>
      </g>
     </g>
     <g id="text_4">
      <!-- 15 -->
      <g transform="translate(459.892402 206.838437) scale(0.1 -0.1)">
       <use xlink:href="#DejaVuSans-31"/>
       <use xlink:href="#DejaVuSans-35" x="63.623047"/>
      </g>
     </g>
    </g>
    <g id="xtick_5">
     <g id="line2d_6">
      <g>
       <use xlink:href="#m392d2b76a0" x="587.823529" y="192.24" style="stroke: #000000; stroke-width: 0.8"/>
      </g>
     </g>
     <g id="text_5">
      <!-- 20 -->
      <g transform="translate(581.461029 206.838437) scale(0.1 -0.1)">
       <defs>
        <path id="DejaVuSans-32" d="M 1228 531 
L 3431 531 
L 3431 0 
L 469 0 
L 469 531 
Q 828 903 1448 1529 
Q 2069 2156 2228 2338 
Q 2531 2678 2651 2914 
Q 2772 3150 2772 3378 
Q 2772 3750 2511 3984 
Q 2250 4219 1831 4219 
Q 1534 4219 1204 4116 
Q 875 4013 500 3803 
L 500 4441 
Q 881 4594 1212 4672 
Q 1544 4750 1819 4750 
Q 2544 4750 2975 4387 
Q 3406 4025 3406 3419 
Q 3406 3131 3298 2873 
Q 3191 2616 2906 2266 
Q 2828 2175 2409 1742 
Q 1991 1309 1228 531 
z
" transform="scale(0.015625)"/>
       </defs>
       <use xlink:href="#DejaVuSans-32"/>
       <use xlink:href="#DejaVuSans-30" x="63.623047"/>
      </g>
     </g>
    </g>
   </g>
   <g id="matplotlib.axis_2">
    <g id="ytick_1">
     <g id="line2d_7">
      <defs>
       <path id="md52d493ec5" d="M 0 0 
L -3.5 0 
" style="stroke: #000000; stroke-width: 0.8"/>
      </defs>
      <g>
       <use xlink:href="#md52d493ec5" x="90" y="192.24" style="stroke: #000000; stroke-width: 0.8"/>
      </g>
     </g>
     <g id="text_6">
      <!-- 0.00 -->
      <g transform="translate(60.734375 196.039219) scale(0.1 -0.1)">
       <defs>
        <path id="DejaVuSans-2e" d="M 684 794 
L 1344 794 
L 1344 0 
L 684 0 
L 684 794 
z
" transform="scale(0.015625)"/>
       </defs>
       <use xlink:href="#DejaVuSans-30"/>
       <use xlink:href="#DejaVuSans-2e" x="63.623047"/>
       <use xlink:href="#DejaVuSans-30" x="95.410156"/>
       <use xlink:href="#DejaVuSans-30" x="159.033203"/>
      </g>
     </g>
    </g>
    <g id="ytick_2">
     <g id="line2d_8">
      <g>
       <use xlink:href="#md52d493ec5" x="90" y="167.410503" style="stroke: #000000; stroke-width: 0.8"/>
      </g>
     </g>
     <g id="text_7">
      <!-- 0.25 -->
      <g transform="translate(60.734375 171.209722) scale(0.1 -0.1)">
       <use xlink:href="#DejaVuSans-30"/>
       <use xlink:href="#DejaVuSans-2e" x="63.623047"/>
       <use xlink:href="#DejaVuSans-32" x="95.410156"/>
       <use xlink:href="#DejaVuSans-35" x="159.033203"/>
      </g>
     </g>
    </g>
    <g id="ytick_3">
     <g id="line2d_9">
      <g>
       <use xlink:href="#md52d493ec5" x="90" y="142.581006" style="stroke: #000000; stroke-width: 0.8"/>
      </g>
     </g>
     <g id="text_8">
      <!-- 0.50 -->
      <g transform="translate(60.734375 146.380224) scale(0.1 -0.1)">
       <use xlink:href="#DejaVuSans-30"/>
       <use xlink:href="#DejaVuSans-2e" x="63.623047"/>
       <use xlink:href="#DejaVuSans-35" x="95.410156"/>
       <use xlink:href="#DejaVuSans-30" x="159.033203"/>
      </g>
     </g>
    </g>
    <g id="ytick_4">
     <g id="line2d_10">
      <g>
       <use xlink:href="#md52d493ec5" x="90" y="117.751509" style="stroke: #000000; stroke-width: 0.8"/>
      </g>
     </g>
     <g id="text_9">
      <!-- 0.75 -->
      <g transform="translate(60.734375 121.550727) scale(0.1 -0.1)">
       <defs>
        <path id="DejaVuSans-37" d="M 525 4666 
L 3525 4666 
L 3525 4397 
L 1831 0 
L 1172 0 
L 2766 4134 
L 525 4134 
L 525 4666 
z
" transform="scale(0.015625)"/>
       </defs>
       <use xlink:href="#DejaVuSans-30"/>
       <use xlink:href="#DejaVuSans-2e" x="63.623047"/>
       <use xlink:href="#DejaVuSans-37" x="95.410156"/>
       <use xlink:href="#DejaVuSans-35" x="159.033203"/>
      </g>
     </g>
    </g>
    <g id="ytick_5">
     <g id="line2d_11">
      <g>
       <use xlink:href="#md52d493ec5" x="90" y="92.922011" style="stroke: #000000; stroke-width: 0.8"/>
      </g>
     </g>
     <g id="text_10">
      <!-- 1.00 -->
      <g transform="translate(60.734375 96.72123) scale(0.1 -0.1)">
       <use xlink:href="#DejaVuSans-31"/>
       <use xlink:href="#DejaVuSans-2e" x="63.623047"/>
       <use xlink:href="#DejaVuSans-30" x="95.410156"/>
       <use xlink:href="#DejaVuSans-30" x="159.033203"/>
      </g>
     </g>
    </g>
    <g id="ytick_6">
     <g id="line2d_12">
      <g>
       <use xlink:href="#md52d493ec5" x="90" y="68.092514" style="stroke: #000000; stroke-width: 0.8"/>
      </g>
     </g>
     <g id="text_11">
      <!-- 1.25 -->
      <g transform="translate(60.734375 71.891733) scale(0.1 -0.1)">
       <use xlink:href="#DejaVuSans-31"/>
       <use xlink:href="#DejaVuSans-2e" x="63.623047"/>
       <use xlink:href="#DejaVuSans-32" x="95.410156"/>
       <use xlink:href="#DejaVuSans-35" x="159.033203"/>
      </g>
     </g>
    </g>
    <g id="ytick_7">
     <g id="line2d_13">
      <g>
       <use xlink:href="#md52d493ec5" x="90" y="43.263017" style="stroke: #000000; stroke-width: 0.8"/>
      </g>
     </g>
     <g id="text_12">
      <!-- 1.50 -->
      <g transform="translate(60.734375 47.062236) scale(0.1 -0.1)">
       <use xlink:href="#DejaVuSans-31"/>
       <use xlink:href="#DejaVuSans-2e" x="63.623047"/>
       <use xlink:href="#DejaVuSans-35" x="95.410156"/>
       <use xlink:href="#DejaVuSans-30" x="159.033203"/>
      </g>
     </g>
    </g>
   </g>
  </g>
 </g>
 <defs>
  <clipPath id="p9d6643f9e4">
   <rect x="90" y="25.92" width="558" height="166.32"/>
  </clipPath>
 </defs>
</svg>
