<?xml version="1.0" encoding="utf-8" standalone="no"?>
<!DOCTYPE svg PUBLIC "-//W3C//DTD SVG 1.1//EN"
  "http://www.w3.org/Graphics/SVG/1.1/DTD/svg11.dtd">
<svg xmlns:xlink="http://www.w3.org/1999/xlink" width="720pt" height="216pt" viewBox="0 0 720 216" xmlns="http://www.w3.org/2000/svg" version="1.1">
 <metadata>
  <rdf:RDF xmlns:dc="http://purl.org/dc/elements/1.1/" xmlns:cc="http://creativecommons.org/ns#" xmlns:rdf="http://www.w3.org/1999/02/22-rdf-syntax-ns#">
   <cc:Work>
    <dc:type rdf:resource="http://purl.org/dc/dcmitype/StillImage"/>
    <dc:date>2025-12-17T10:23:14.665348</dc:date>
    <dc:format>image/svg+xml</dc:format>
    <dc:creator>
     <cc:Agent>
      <dc:title>Matplotlib v3.8.2, https://matplotlib.org/</dc:title>
     </cc:Agent>
    </dc:creator>
   </cc:Work>
  </rdf:RDF>
 </metadata>
 <defs>
  <style type="text/css">*{stroke-linejoin: round; stroke-linecap: butt}</style>
 </defs>
 <g id="figure_1">
  <g id="patch_1">
   <path d="M 0 216 
L 720 216 
L 720 0 
L 0 0 
z
" style="fill: #ffffff"/>
  </g>
  <g id="axes_1">
   <g id="patch_2">
    <path d="M 90 192.24 
L 648 192.24 
L 648 25.92 
L 90 25.92 
z
" style="fill: #ffffff"/>
   </g>
   <g id="line2d_1">
    <path d="M 90 192.24 
L 648 192.24 
" clip-path="url(#p3525f63281)" style="fill: none; stroke: #000000; stroke-width: 0.5; stroke-linecap: square"/>
   </g>
   <g id="patch_3">
    <path d="M 106.000032 191.728811 
L 97.116897 191.728811 
L 95.714297 192.24 
L 90 192.24 
L 98.160583 189.433873 
L 104.937456 189.433873 
L 113.098039 192.24 
L 107.388465 192.24 
L 106.000032 191.728811 
z
M 98.533665 191.208 
L 104.569096 191.208 
L 101.556103 190.091803 
L 98.533665 191.208 
z
" clip-path="url(#p3525f63281)" style="fill: #008000"/>
   </g>
   <g id="patch_4">
    <path d="M 113.098039 189.179983 
Q 110.768564 189.306928 108.263084 189.37069 
Q 105.757605 189.433873 103.086473 189.433873 
Q 97.050544 189.433873 93.525272 189.055936 
Q 90 188.677998 90 188.031679 
Q 90 187.377824 93.587392 187.002785 
Q 97.17996 186.627746 103.428129 186.627746 
Q 105.835254 186.627746 108.04049 186.678756 
Q 110.250903 186.729186 112.207662 186.828887 
L 112.207662 187.388258 
Q 110.188784 187.260153 108.190612 187.196971 
Q 106.19244 187.133208 104.183915 187.133208 
Q 100.467108 187.133208 98.453406 187.366231 
Q 96.439704 187.598674 96.439704 188.031679 
Q 96.439704 188.460626 98.380934 188.694808 
Q 100.322163 188.928411 103.894024 188.928411 
Q 104.867227 188.928411 105.700662 188.915079 
Q 106.534096 188.901167 107.196702 188.872184 
L 107.196702 188.347013 
L 103.391893 188.347013 
L 103.391893 187.879229 
L 113.098039 187.879229 
L 113.098039 189.179983 
z
" clip-path="url(#p3525f63281)" style="fill: #ffa600"/>
   </g>
   <g id="patch_5">
    <path d="M 90 181.817242 
L 113.098039 181.817242 
L 113.098039 182.755425 
L 104.788117 182.755425 
L 104.788117 186.627746 
L 98.326037 186.627746 
L 98.326037 182.755425 
L 90 182.755425 
L 90 181.817242 
z
" clip-path="url(#p3525f63281)" style="fill: #ff0000"/>
   </g>
   <g id="patch_6">
    <path d="M 113.098039 181.213818 
Q 111.165928 181.512922 109.076687 181.664213 
Q 106.987447 181.817242 104.711979 181.817242 
Q 97.926311 181.817242 93.963156 180.68343 
Q 90 179.549618 90 177.61066 
Q 90 175.664747 93.963156 174.532673 
Q 97.926311 173.398861 104.711979 173.398861 
Q 106.987447 173.398861 109.076687 173.551891 
Q 111.165928 173.703182 113.098039 174.002286 
L 113.098039 175.680397 
Q 111.148469 175.283911 109.257095 175.099579 
Q 107.365722 174.915248 105.276481 174.915248 
Q 101.528651 174.915248 99.381214 175.633445 
Q 97.239597 176.349903 97.239597 177.61066 
Q 97.239597 178.866201 99.381214 179.584398 
Q 101.528651 180.300856 105.276481 180.300856 
Q 107.365722 180.300856 109.257095 180.116524 
Q 111.148469 179.930454 113.098039 179.533967 
L 113.098039 181.213818 
z
" clip-path="url(#p3525f63281)" style="fill: #0000ff"/>
   </g>
   <g id="patch_7">
    <path d="M 137.411765 192.047959 
Q 135.08229 192.143979 132.57681 192.192209 
Q 130.07133 192.24 127.400199 192.24 
Q 121.36427 192.24 117.838998 191.95413 
Q 114.313725 191.66826 114.313725 191.179388 
Q 114.313725 190.684815 117.901117 190.401138 
Q 121.493685 190.11746 127.741855 190.11746 
Q 130.148979 190.11746 132.354216 190.156044 
Q 134.564629 190.194189 136.521388 190.269603 
L 136.521388 190.692708 
Q 134.502509 190.59581 132.504337 190.548019 
Q 130.506165 190.499789 128.49764 190.499789 
Q 124.780833 190.499789 122.767132 190.676046 
Q 120.75343 190.851865 120.75343 191.179388 
Q 120.75343 191.503841 122.694659 191.680975 
Q 124.635888 191.857671 128.20775 191.857671 
Q 129.180953 191.857671 130.014387 191.847587 
Q 130.847822 191.837064 131.510428 191.815141 
L 131.510428 191.417905 
L 127.705619 191.417905 
L 127.705619 191.064075 
L 137.411765 191.064075 
L 137.411765 192.047959 
z
" clip-path="url(#p3525f63281)" style="fill: #ffa600"/>
   </g>
   <g id="patch_8">
    <path d="M 114.313725 183.749841 
L 137.411765 183.749841 
L 137.411765 184.991704 
L 129.101842 184.991704 
L 129.101842 190.11746 
L 122.639763 190.11746 
L 122.639763 184.991704 
L 114.313725 184.991704 
L 114.313725 183.749841 
z
" clip-path="url(#p3525f63281)" style="fill: #ff0000"/>
   </g>
   <g id="patch_9">
    <path d="M 137.411765 182.684844 
Q 135.479654 183.212739 133.390413 183.479755 
Q 131.301172 183.749841 129.025704 183.749841 
Q 122.240037 183.749841 118.276881 181.748752 
Q 114.313725 179.747663 114.313725 176.325555 
Q 114.313725 172.891171 118.276881 170.893151 
Q 122.240037 168.892062 129.025704 168.892062 
Q 131.301172 168.892062 133.390413 169.162148 
Q 135.479654 169.429164 137.411765 169.957059 
L 137.411765 172.918793 
Q 135.462195 172.219026 133.570821 171.893696 
Q 131.679447 171.568365 129.590206 171.568365 
Q 125.842376 171.568365 123.69494 172.835926 
Q 121.553323 174.100418 121.553323 176.325555 
Q 121.553323 178.541485 123.69494 179.809046 
Q 125.842376 181.073538 129.590206 181.073538 
Q 131.679447 181.073538 133.570821 180.748207 
Q 135.462195 180.419808 137.411765 179.72004 
L 137.411765 182.684844 
z
" clip-path="url(#p3525f63281)" style="fill: #0000ff"/>
   </g>
   <g id="patch_10">
    <path d="M 130.313758 164.058803 
L 121.430623 164.058803 
L 120.028023 168.892062 
L 114.313725 168.892062 
L 122.474309 142.360314 
L 129.251182 142.360314 
L 137.411765 168.892062 
L 131.70219 168.892062 
L 130.313758 164.058803 
z
M 122.847391 159.134566 
L 128.882822 159.134566 
L 125.869829 148.581003 
L 122.847391 159.134566 
z
" clip-path="url(#p3525f63281)" style="fill: #008000"/>
   </g>
   <g id="patch_11">
    <path d="M 154.627483 191.598454 
L 145.744348 191.598454 
L 144.341748 192.24 
L 138.627451 192.24 
L 146.788034 188.718288 
L 153.564907 188.718288 
L 161.72549 192.24 
L 156.015916 192.24 
L 154.627483 191.598454 
z
M 147.161116 190.944831 
L 153.196547 190.944831 
L 150.183554 189.543996 
L 147.161116 190.944831 
z
" clip-path="url(#p3525f63281)" style="fill: #008000"/>
   </g>
   <g id="patch_12">
    <path d="M 161.72549 188.314393 
Q 159.793379 188.514594 157.704138 188.615859 
Q 155.614898 188.718288 153.33943 188.718288 
Q 146.553762 188.718288 142.590607 187.959385 
Q 138.627451 187.200481 138.627451 185.902664 
Q 138.627451 184.600191 142.590607 183.842451 
Q 146.553762 183.083548 153.33943 183.083548 
Q 155.614898 183.083548 157.704138 183.185977 
Q 159.793379 183.287241 161.72549 183.487443 
L 161.72549 184.610666 
Q 159.77592 184.345283 157.884546 184.221903 
Q 155.993173 184.098523 153.903932 184.098523 
Q 150.156102 184.098523 148.008665 184.579239 
Q 145.867048 185.058792 145.867048 185.902664 
Q 145.867048 186.743044 148.008665 187.223761 
Q 150.156102 187.703313 153.903932 187.703313 
Q 155.993173 187.703313 157.884546 187.579933 
Q 159.77592 187.455389 161.72549 187.190006 
L 161.72549 188.314393 
z
" clip-path="url(#p3525f63281)" style="fill: #0000ff"/>
   </g>
   <g id="patch_13">
    <path d="M 138.627451 176.744466 
L 161.72549 176.744466 
L 161.72549 177.980764 
L 153.415568 177.980764 
L 153.415568 183.083548 
L 146.953488 183.083548 
L 146.953488 177.980764 
L 138.627451 177.980764 
L 138.627451 176.744466 
z
" clip-path="url(#p3525f63281)" style="fill: #ff0000"/>
   </g>
   <g id="patch_14">
    <path d="M 161.72549 175.151293 
Q 159.396015 175.94788 156.890535 176.347992 
Q 154.385056 176.744466 151.713924 176.744466 
Q 145.677995 176.744466 142.152723 174.372894 
Q 138.627451 172.001321 138.627451 167.945642 
Q 138.627451 163.842676 142.214843 161.48929 
Q 145.807411 159.135905 152.05558 159.135905 
Q 154.462705 159.135905 156.667941 159.455994 
Q 158.878354 159.772447 160.835113 160.398076 
L 160.835113 163.908149 
Q 158.816235 163.104288 156.818063 162.707813 
Q 154.819891 162.307701 152.811366 162.307701 
Q 149.094559 162.307701 147.080857 163.769928 
Q 145.067155 165.228518 145.067155 167.945642 
Q 145.067155 170.637303 147.008385 172.106805 
Q 148.949614 173.57267 152.521475 173.57267 
Q 153.494678 173.57267 154.328113 173.48901 
Q 155.161547 173.401713 155.824153 173.219844 
L 155.824153 169.924377 
L 152.019344 169.924377 
L 152.019344 166.98901 
L 161.72549 166.98901 
L 161.72549 175.151293 
z
" clip-path="url(#p3525f63281)" style="fill: #ffa600"/>
   </g>
   <g id="patch_15">
    <path d="M 162.941176 190.605487 
L 186.039216 190.605487 
L 186.039216 190.924262 
L 177.729293 190.924262 
L 177.729293 192.24 
L 171.267214 192.24 
L 171.267214 190.924262 
L 162.941176 190.924262 
L 162.941176 190.605487 
z
" clip-path="url(#p3525f63281)" style="fill: #ff0000"/>
   </g>
   <g id="patch_16">
    <path d="M 178.941209 189.861093 
L 170.058074 189.861093 
L 168.655474 190.605487 
L 162.941176 190.605487 
L 171.10176 186.519204 
L 177.878633 186.519204 
L 186.039216 190.605487 
L 180.329641 190.605487 
L 178.941209 189.861093 
z
M 171.474842 189.102688 
L 177.510273 189.102688 
L 174.49728 187.477282 
L 171.474842 189.102688 
z
" clip-path="url(#p3525f63281)" style="fill: #008000"/>
   </g>
   <g id="patch_17">
    <path d="M 186.039216 186.05056 
Q 184.107105 186.282856 182.017864 186.400355 
Q 179.928623 186.519204 177.653155 186.519204 
Q 170.867488 186.519204 166.904332 185.63864 
Q 162.941176 184.758076 162.941176 183.252203 
Q 162.941176 181.740929 166.904332 180.861715 
Q 170.867488 179.981151 177.653155 179.981151 
Q 179.928623 179.981151 182.017864 180.1 
Q 184.107105 180.217499 186.039216 180.449795 
L 186.039216 181.753084 
Q 184.089646 181.445156 182.198272 181.301997 
Q 180.306898 181.158838 178.217657 181.158838 
Q 174.469827 181.158838 172.322391 181.716619 
Q 170.180774 182.273049 170.180774 183.252203 
Q 170.180774 184.227307 172.322391 184.785087 
Q 174.469827 185.341517 178.217657 185.341517 
Q 180.306898 185.341517 182.198272 185.198358 
Q 184.089646 185.053848 186.039216 184.745921 
L 186.039216 186.05056 
z
" clip-path="url(#p3525f63281)" style="fill: #0000ff"/>
   </g>
   <g id="patch_18">
    <path d="M 186.039216 179.352635 
Q 183.709741 179.666893 181.204261 179.82474 
Q 178.698781 179.981151 176.02765 179.981151 
Q 169.991721 179.981151 166.466449 179.045552 
Q 162.941176 178.109953 162.941176 176.509963 
Q 162.941176 174.891319 166.528568 173.962895 
Q 170.121136 173.03447 176.369306 173.03447 
Q 178.77643 173.03447 180.981667 173.160748 
Q 183.19208 173.28559 185.148839 173.532404 
L 185.148839 174.917149 
Q 183.12996 174.600021 181.131788 174.443609 
Q 179.133616 174.285763 177.125091 174.285763 
Q 173.408284 174.285763 171.394583 174.86262 
Q 169.380881 175.438042 169.380881 176.509963 
Q 169.380881 177.57184 171.32211 178.151567 
Q 173.263339 178.729859 176.835201 178.729859 
Q 177.808404 178.729859 178.641838 178.696855 
Q 179.475273 178.662416 180.137879 178.590667 
L 180.137879 177.290586 
L 176.33307 177.290586 
L 176.33307 176.132567 
L 186.039216 176.132567 
L 186.039216 179.352635 
z
" clip-path="url(#p3525f63281)" style="fill: #ffa600"/>
   </g>
   <g id="patch_19">
    <path d="M 210.352941 191.784411 
Q 208.42083 192.010236 206.331589 192.124462 
Q 204.242349 192.24 201.966881 192.24 
Q 195.181213 192.24 191.218058 191.383965 
Q 187.254902 190.527931 187.254902 189.064007 
Q 187.254902 187.594831 191.218058 186.740109 
Q 195.181213 185.884075 201.966881 185.884075 
Q 204.242349 185.884075 206.331589 185.999613 
Q 208.42083 186.113839 210.352941 186.339664 
L 210.352941 187.606647 
Q 208.403371 187.307298 206.511997 187.168127 
Q 204.620624 187.028955 202.531383 187.028955 
Q 198.783553 187.028955 196.636116 187.571198 
Q 194.494499 188.112128 194.494499 189.064007 
Q 194.494499 190.011947 196.636116 190.55419 
Q 198.783553 191.095119 202.531383 191.095119 
Q 204.620624 191.095119 206.511997 190.955948 
Q 208.403371 190.815464 210.352941 190.516115 
L 210.352941 191.784411 
z
" clip-path="url(#p3525f63281)" style="fill: #0000ff"/>
   </g>
   <g id="patch_20">
    <path d="M 210.352941 184.44641 
Q 208.023466 185.165242 205.517986 185.5263 
Q 203.012506 185.884075 200.341375 185.884075 
Q 194.305446 185.884075 190.780174 183.743989 
Q 187.254902 181.603902 187.254902 177.944092 
Q 187.254902 174.241611 190.842294 172.117937 
Q 194.434862 169.994262 200.683031 169.994262 
Q 203.090156 169.994262 205.295392 170.283108 
Q 207.505805 170.568672 209.462564 171.133235 
L 209.462564 174.300694 
Q 207.443686 173.575296 205.445514 173.217521 
Q 203.447342 172.856464 201.438817 172.856464 
Q 197.72201 172.856464 195.708308 174.175965 
Q 193.694606 175.492183 193.694606 177.944092 
Q 193.694606 180.373024 195.635836 181.69909 
Q 197.577065 183.021874 201.148926 183.021874 
Q 202.122129 183.021874 202.955564 182.94638 
Q 203.788998 182.867604 204.451604 182.703487 
L 204.451604 179.729686 
L 200.646795 179.729686 
L 200.646795 177.080836 
L 210.352941 177.080836 
L 210.352941 184.44641 
z
" clip-path="url(#p3525f63281)" style="fill: #ffa600"/>
   </g>
   <g id="patch_21">
    <path d="M 203.254934 146.837227 
L 194.371799 146.837227 
L 192.969199 169.994262 
L 187.254902 169.994262 
L 195.415485 42.875761 
L 202.192358 42.875761 
L 210.352941 169.994262 
L 204.643367 169.994262 
L 203.254934 146.837227 
z
M 195.788567 123.244295 
L 201.823998 123.244295 
L 198.811005 72.680227 
L 195.788567 123.244295 
z
" clip-path="url(#p3525f63281)" style="fill: #008000"/>
   </g>
   <g id="patch_22">
    <path d="M 234.666667 191.956802 
Q 232.734556 192.097177 230.645315 192.16818 
Q 228.556074 192.24 226.280606 192.24 
Q 219.494939 192.24 215.531783 191.707882 
Q 211.568627 191.175765 211.568627 190.265778 
Q 211.568627 189.352527 215.531783 188.821225 
Q 219.494939 188.289107 226.280606 188.289107 
Q 228.556074 188.289107 230.645315 188.360927 
Q 232.734556 188.43193 234.666667 188.572305 
L 234.666667 189.359872 
Q 232.717097 189.173794 230.825723 189.087284 
Q 228.934349 189.000774 226.845108 189.000774 
Q 223.097278 189.000774 220.949842 189.337836 
Q 218.808225 189.674083 218.808225 190.265778 
Q 218.808225 190.855025 220.949842 191.192087 
Q 223.097278 191.528333 226.845108 191.528333 
Q 228.934349 191.528333 230.825723 191.441823 
Q 232.717097 191.354497 234.666667 191.168419 
L 234.666667 191.956802 
z
" clip-path="url(#p3525f63281)" style="fill: #0000ff"/>
   </g>
   <g id="patch_23">
    <path d="M 211.568627 183.021251 
L 234.666667 183.021251 
L 234.666667 184.048629 
L 226.356744 184.048629 
L 226.356744 188.289107 
L 219.894665 188.289107 
L 219.894665 184.048629 
L 211.568627 184.048629 
L 211.568627 183.021251 
z
" clip-path="url(#p3525f63281)" style="fill: #ff0000"/>
   </g>
   <g id="patch_24">
    <path d="M 234.666667 181.710543 
Q 232.337192 182.365897 229.831712 182.69507 
Q 227.326232 183.021251 224.655101 183.021251 
Q 218.619172 183.021251 215.0939 181.070152 
Q 211.568627 179.119054 211.568627 175.782436 
Q 211.568627 172.406916 215.156019 170.47078 
Q 218.748587 168.534644 224.996757 168.534644 
Q 227.403881 168.534644 229.609118 168.797983 
Q 231.819531 169.058329 233.77629 169.573036 
L 233.77629 172.460781 
Q 231.757411 171.799442 229.759239 171.473262 
Q 227.761067 171.144089 225.752542 171.144089 
Q 222.035735 171.144089 220.022034 172.347067 
Q 218.008332 173.547052 218.008332 175.782436 
Q 218.008332 177.996873 219.949561 179.205836 
Q 221.89079 180.411806 225.462652 180.411806 
Q 226.435855 180.411806 227.269289 180.342979 
Q 228.102724 180.271159 228.76533 180.121535 
L 228.76533 177.410346 
L 224.960521 177.410346 
L 224.960521 174.995413 
L 234.666667 174.995413 
L 234.666667 181.710543 
z
" clip-path="url(#p3525f63281)" style="fill: #ffa600"/>
   </g>
   <g id="patch_25">
    <path d="M 227.56866 161.577257 
L 218.685525 161.577257 
L 217.282925 168.534644 
L 211.568627 168.534644 
L 219.729211 130.342682 
L 226.506084 130.342682 
L 234.666667 168.534644 
L 228.957092 168.534644 
L 227.56866 161.577257 
z
M 220.102293 154.488908 
L 226.137724 154.488908 
L 223.124731 139.297248 
L 220.102293 154.488908 
z
" clip-path="url(#p3525f63281)" style="fill: #008000"/>
   </g>
   <g id="patch_26">
    <path d="M 235.882353 190.903146 
L 258.980392 190.903146 
L 258.980392 191.16387 
L 250.67047 191.16387 
L 250.67047 192.24 
L 244.20839 192.24 
L 244.20839 191.16387 
L 235.882353 191.16387 
L 235.882353 190.903146 
z
" clip-path="url(#p3525f63281)" style="fill: #ff0000"/>
   </g>
   <g id="patch_27">
    <path d="M 251.882385 189.441947 
L 242.99925 189.441947 
L 241.59665 190.903146 
L 235.882353 190.903146 
L 244.042936 182.882022 
L 250.819809 182.882022 
L 258.980392 190.903146 
L 253.270818 190.903146 
L 251.882385 189.441947 
z
M 244.416018 187.953243 
L 250.451449 187.953243 
L 247.438456 184.762671 
L 244.416018 187.953243 
z
" clip-path="url(#p3525f63281)" style="fill: #008000"/>
   </g>
   <g id="patch_28">
    <path d="M 258.980392 182.25916 
Q 257.048281 182.567899 254.95904 182.724063 
Q 252.8698 182.882022 250.594332 182.882022 
Q 243.808664 182.882022 239.845509 181.711688 
Q 235.882353 180.541354 235.882353 178.539939 
Q 235.882353 176.531344 239.845509 175.362805 
Q 243.808664 174.192471 250.594332 174.192471 
Q 252.8698 174.192471 254.95904 174.35043 
Q 257.048281 174.506595 258.980392 174.815333 
L 258.980392 176.547499 
Q 257.030822 176.138241 255.139448 175.947972 
Q 253.248075 175.757703 251.158834 175.757703 
Q 247.411004 175.757703 245.263567 176.499034 
Q 243.12195 177.238571 243.12195 178.539939 
Q 243.12195 179.835922 245.263567 180.577254 
Q 247.411004 181.31679 251.158834 181.31679 
Q 253.248075 181.31679 255.139448 181.126521 
Q 257.030822 180.934457 258.980392 180.525199 
L 258.980392 182.25916 
z
" clip-path="url(#p3525f63281)" style="fill: #0000ff"/>
   </g>
   <g id="patch_29">
    <path d="M 258.980392 172.982923 
Q 256.650917 173.587697 254.145437 173.891465 
Q 251.639957 174.192471 248.968826 174.192471 
Q 242.932897 174.192471 239.407625 172.391957 
Q 235.882353 170.591443 235.882353 167.512343 
Q 235.882353 164.397344 239.469745 162.610638 
Q 243.062313 160.823931 249.310482 160.823931 
Q 251.717607 160.823931 253.922843 161.066945 
Q 256.133256 161.307198 258.090015 161.78218 
L 258.090015 164.447051 
Q 256.071137 163.836754 254.072965 163.535748 
Q 252.074793 163.231981 250.066268 163.231981 
Q 246.349461 163.231981 244.335759 164.342113 
Q 242.322057 165.449485 242.322057 167.512343 
Q 242.322057 169.555872 244.263286 170.671527 
Q 246.204516 171.784422 249.776377 171.784422 
Q 250.74958 171.784422 251.583015 171.720907 
Q 252.416449 171.65463 253.079055 171.516554 
L 253.079055 169.014613 
L 249.274246 169.014613 
L 249.274246 166.786062 
L 258.980392 166.786062 
L 258.980392 172.982923 
z
" clip-path="url(#p3525f63281)" style="fill: #ffa600"/>
   </g>
   <g id="patch_30">
    <path d="M 283.294118 192.042815 
Q 280.964643 192.141408 278.459163 192.190929 
Q 275.953683 192.24 273.282552 192.24 
Q 267.246623 192.24 263.721351 191.946474 
Q 260.196078 191.652948 260.196078 191.150982 
Q 260.196078 190.643163 263.78347 190.351888 
Q 267.376038 190.060613 273.624208 190.060613 
Q 276.031332 190.060613 278.236568 190.10023 
Q 280.446981 190.139396 282.403741 190.21683 
L 282.403741 190.651267 
Q 280.384862 190.551774 278.38669 190.502703 
Q 276.388518 190.453181 274.379993 190.453181 
Q 270.663186 190.453181 268.649485 190.634159 
Q 266.635783 190.814687 266.635783 191.150982 
Q 266.635783 191.484125 268.577012 191.666003 
Q 270.518241 191.847431 274.090103 191.847431 
Q 275.063306 191.847431 275.89674 191.837077 
Q 276.730175 191.826272 277.392781 191.803762 
L 277.392781 191.395887 
L 273.587972 191.395887 
L 273.587972 191.032581 
L 283.294118 191.032581 
L 283.294118 192.042815 
z
" clip-path="url(#p3525f63281)" style="fill: #ffa600"/>
   </g>
   <g id="patch_31">
    <path d="M 283.294118 189.357635 
Q 281.362007 189.706085 279.272766 189.882336 
Q 277.183525 190.060613 274.908057 190.060613 
Q 268.12239 190.060613 264.159234 188.739744 
Q 260.196078 187.418876 260.196078 185.16003 
Q 260.196078 182.89308 264.159234 181.574238 
Q 268.12239 180.253369 274.908057 180.253369 
Q 277.183525 180.253369 279.272766 180.431646 
Q 281.362007 180.607897 283.294118 180.956347 
L 283.294118 182.911313 
Q 281.344548 182.449414 279.453174 182.234672 
Q 277.5618 182.019929 275.472559 182.019929 
Q 271.724729 182.019929 269.577293 182.856614 
Q 267.435676 183.691273 267.435676 185.16003 
Q 267.435676 186.622709 269.577293 187.459394 
Q 271.724729 188.294053 275.472559 188.294053 
Q 277.5618 188.294053 279.453174 188.07931 
Q 281.344548 187.862542 283.294118 187.400644 
L 283.294118 189.357635 
z
" clip-path="url(#p3525f63281)" style="fill: #0000ff"/>
   </g>
   <g id="patch_32">
    <path d="M 260.196078 170.446126 
L 283.294118 170.446126 
L 283.294118 172.358812 
L 274.984195 172.358812 
L 274.984195 180.253369 
L 268.522116 180.253369 
L 268.522116 172.358812 
L 260.196078 172.358812 
L 260.196078 170.446126 
z
" clip-path="url(#p3525f63281)" style="fill: #ff0000"/>
   </g>
   <g id="patch_33">
    <path d="M 276.196111 165.086403 
L 267.312976 165.086403 
L 265.910376 170.446126 
L 260.196078 170.446126 
L 268.356661 141.024396 
L 275.133535 141.024396 
L 283.294118 170.446126 
L 277.584543 170.446126 
L 276.196111 165.086403 
z
M 268.729744 159.62579 
L 274.765175 159.62579 
L 271.752182 147.922676 
L 268.729744 159.62579 
z
" clip-path="url(#p3525f63281)" style="fill: #008000"/>
   </g>
   <g id="patch_34">
    <path d="M 284.509804 190.123252 
L 307.607843 190.123252 
L 307.607843 190.536077 
L 299.297921 190.536077 
L 299.297921 192.24 
L 292.835841 192.24 
L 292.835841 190.536077 
L 284.509804 190.536077 
L 284.509804 190.123252 
z
" clip-path="url(#p3525f63281)" style="fill: #ff0000"/>
   </g>
   <g id="patch_35">
    <path d="M 307.607843 189.364616 
Q 305.675732 189.740655 303.586491 189.93086 
Q 301.497251 190.123252 299.221783 190.123252 
Q 292.436115 190.123252 288.47296 188.697804 
Q 284.509804 187.272355 284.509804 184.834662 
Q 284.509804 182.388225 288.47296 180.964963 
Q 292.436115 179.539514 299.221783 179.539514 
Q 301.497251 179.539514 303.586491 179.731906 
Q 305.675732 179.922111 307.607843 180.29815 
L 307.607843 182.407902 
Q 305.658273 181.909432 303.766899 181.677687 
Q 301.875526 181.445942 299.786285 181.445942 
Q 296.038455 181.445942 293.891018 182.348872 
Q 291.749401 183.249616 291.749401 184.834662 
Q 291.749401 186.41315 293.891018 187.31608 
Q 296.038455 188.216824 299.786285 188.216824 
Q 301.875526 188.216824 303.766899 187.985079 
Q 305.658273 187.751148 307.607843 187.252678 
L 307.607843 189.364616 
z
" clip-path="url(#p3525f63281)" style="fill: #0000ff"/>
   </g>
   <g id="patch_36">
    <path d="M 307.607843 178.39041 
Q 305.278368 178.964962 302.772888 179.25355 
Q 300.267408 179.539514 297.596277 179.539514 
Q 291.560348 179.539514 288.035076 177.828975 
Q 284.509804 176.118437 284.509804 173.193206 
Q 284.509804 170.23387 288.097195 168.536449 
Q 291.689764 166.839028 297.937933 166.839028 
Q 300.345058 166.839028 302.550294 167.069898 
Q 304.760707 167.298145 306.717466 167.749391 
L 306.717466 170.281093 
Q 304.698588 169.701294 302.700416 169.41533 
Q 300.702244 169.126742 298.693719 169.126742 
Q 294.976912 169.126742 292.96321 170.181399 
Q 290.949508 171.233433 290.949508 173.193206 
Q 290.949508 175.134615 292.890737 176.194519 
Q 294.831967 177.2518 298.403828 177.2518 
Q 299.377031 177.2518 300.210466 177.191459 
Q 301.0439 177.128494 301.706506 176.997318 
L 301.706506 174.620404 
L 297.901697 174.620404 
L 297.901697 172.503219 
L 307.607843 172.503219 
L 307.607843 178.39041 
z
" clip-path="url(#p3525f63281)" style="fill: #ffa600"/>
   </g>
   <g id="patch_37">
    <path d="M 300.509836 153.342833 
L 291.626701 153.342833 
L 290.224101 166.839028 
L 284.509804 166.839028 
L 292.670387 92.752859 
L 299.44726 92.752859 
L 307.607843 166.839028 
L 301.898269 166.839028 
L 300.509836 153.342833 
z
M 293.043469 139.592593 
L 299.0789 139.592593 
L 296.065907 110.123255 
L 293.043469 139.592593 
z
" clip-path="url(#p3525f63281)" style="fill: #008000"/>
   </g>
   <g id="patch_38">
    <path d="M 331.921569 191.798914 
Q 329.989458 192.01755 327.900217 192.12814 
Q 325.810976 192.24 323.535508 192.24 
Q 316.749841 192.24 312.786685 191.411216 
Q 308.823529 190.582432 308.823529 189.165109 
Q 308.823529 187.742702 312.786685 186.915189 
Q 316.749841 186.086405 323.535508 186.086405 
Q 325.810976 186.086405 327.900217 186.198266 
Q 329.989458 186.308855 331.921569 186.527491 
L 331.921569 187.754142 
Q 329.971999 187.464322 328.080625 187.329581 
Q 326.189251 187.19484 324.10001 187.19484 
Q 320.35218 187.19484 318.204744 187.719822 
Q 316.063126 188.243532 316.063126 189.165109 
Q 316.063126 190.082873 318.204744 190.607855 
Q 320.35218 191.131565 324.10001 191.131565 
Q 326.189251 191.131565 328.080625 190.996824 
Q 329.971999 190.860812 331.921569 190.570992 
L 331.921569 191.798914 
z
" clip-path="url(#p3525f63281)" style="fill: #0000ff"/>
   </g>
   <g id="patch_39">
    <path d="M 308.823529 179.93281 
L 331.921569 179.93281 
L 331.921569 181.132933 
L 323.611646 181.132933 
L 323.611646 186.086405 
L 317.149567 186.086405 
L 317.149567 181.132933 
L 308.823529 181.132933 
L 308.823529 179.93281 
z
" clip-path="url(#p3525f63281)" style="fill: #ff0000"/>
   </g>
   <g id="patch_40">
    <path d="M 324.823561 178.363419 
L 315.940427 178.363419 
L 314.537827 179.93281 
L 308.823529 179.93281 
L 316.984112 171.317777 
L 323.760986 171.317777 
L 331.921569 179.93281 
L 326.211994 179.93281 
L 324.823561 178.363419 
z
M 317.357195 176.764487 
L 323.392626 176.764487 
L 320.379633 173.337676 
L 317.357195 176.764487 
z
" clip-path="url(#p3525f63281)" style="fill: #008000"/>
   </g>
   <g id="patch_41">
    <path d="M 331.921569 167.977218 
Q 329.592094 169.647498 327.086614 170.486451 
Q 324.581134 171.317777 321.910003 171.317777 
Q 315.874074 171.317777 312.348802 166.345073 
Q 308.823529 161.372368 308.823529 152.868433 
Q 308.823529 144.265349 312.410921 139.330778 
Q 316.003489 134.396208 322.251659 134.396208 
Q 324.658783 134.396208 326.864019 135.06737 
Q 329.074432 135.730906 331.031191 137.042724 
L 331.031191 144.402632 
Q 329.012313 142.717099 327.014141 141.885772 
Q 325.015969 141.046819 323.007444 141.046819 
Q 319.290637 141.046819 317.276936 144.112812 
Q 315.263234 147.171178 315.263234 152.868433 
Q 315.263234 158.5123 317.204463 161.593547 
Q 319.145692 164.667166 322.717554 164.667166 
Q 323.690757 164.667166 324.524191 164.491749 
Q 325.357626 164.308704 326.020232 163.927362 
L 326.020232 157.017438 
L 322.215423 157.017438 
L 322.215423 150.862572 
L 331.921569 150.862572 
L 331.921569 167.977218 
z
" clip-path="url(#p3525f63281)" style="fill: #ffa600"/>
   </g>
   <g id="patch_42">
    <path d="M 333.137255 189.514644 
L 356.235294 189.514644 
L 356.235294 190.046164 
L 347.925372 190.046164 
L 347.925372 192.24 
L 341.463292 192.24 
L 341.463292 190.046164 
L 333.137255 190.046164 
L 333.137255 189.514644 
z
" clip-path="url(#p3525f63281)" style="fill: #ff0000"/>
   </g>
   <g id="patch_43">
    <path d="M 356.235294 188.898187 
Q 353.905819 189.206415 351.400339 189.361233 
Q 348.894859 189.514644 346.223728 189.514644 
Q 340.187799 189.514644 336.662527 188.596996 
Q 333.137255 187.679349 333.137255 186.110059 
Q 333.137255 184.522473 336.724646 183.611863 
Q 340.317215 182.701253 346.565384 182.701253 
Q 348.972509 182.701253 351.177745 182.825107 
Q 353.388158 182.947554 355.344917 183.189633 
L 355.344917 184.547807 
Q 353.326039 184.236764 351.327867 184.083354 
Q 349.329695 183.928536 347.32117 183.928536 
Q 343.604363 183.928536 341.590661 184.494325 
Q 339.576959 185.058706 339.576959 186.110059 
Q 339.576959 187.151561 341.518188 187.720165 
Q 343.459418 188.287361 347.031279 188.287361 
Q 348.004482 188.287361 348.837917 188.25499 
Q 349.671351 188.221211 350.333957 188.15084 
L 350.333957 186.875704 
L 346.529148 186.875704 
L 346.529148 185.739904 
L 356.235294 185.739904 
L 356.235294 188.898187 
z
" clip-path="url(#p3525f63281)" style="fill: #ffa600"/>
   </g>
   <g id="patch_44">
    <path d="M 356.235294 181.626817 
Q 354.303183 182.159391 352.213942 182.428774 
Q 350.124702 182.701253 347.849234 182.701253 
Q 341.063566 182.701253 337.100411 180.682429 
Q 333.137255 178.663605 333.137255 175.211167 
Q 333.137255 171.746345 337.100411 169.730617 
Q 341.063566 167.711793 347.849234 167.711793 
Q 350.124702 167.711793 352.213942 167.984272 
Q 354.303183 168.253655 356.235294 168.786229 
L 356.235294 171.774212 
Q 354.285724 171.068243 352.39435 170.740029 
Q 350.502976 170.411816 348.413736 170.411816 
Q 344.665906 170.411816 342.518469 171.690611 
Q 340.376852 172.966309 340.376852 175.211167 
Q 340.376852 177.446737 342.518469 178.725532 
Q 344.665906 180.00123 348.413736 180.00123 
Q 350.502976 180.00123 352.39435 179.673017 
Q 354.285724 179.341706 356.235294 178.635737 
L 356.235294 181.626817 
z
" clip-path="url(#p3525f63281)" style="fill: #0000ff"/>
   </g>
   <g id="patch_45">
    <path d="M 349.137287 160.512904 
L 340.254152 160.512904 
L 338.851552 167.711793 
L 333.137255 167.711793 
L 341.297838 128.194126 
L 348.074711 128.194126 
L 356.235294 167.711793 
L 350.52572 167.711793 
L 349.137287 160.512904 
z
M 341.67092 153.178506 
L 347.706351 153.178506 
L 344.693358 137.45952 
L 341.67092 153.178506 
z
" clip-path="url(#p3525f63281)" style="fill: #008000"/>
   </g>
   <g id="patch_46">
    <path d="M 380.54902 192.155718 
Q 378.616908 192.197495 376.527668 192.218626 
Q 374.438427 192.24 372.162959 192.24 
Q 365.377292 192.24 361.414136 192.081638 
Q 357.45098 191.923276 357.45098 191.652458 
Q 357.45098 191.380668 361.414136 191.222549 
Q 365.377292 191.064187 372.162959 191.064187 
Q 374.438427 191.064187 376.527668 191.085561 
Q 378.616908 191.106692 380.54902 191.148469 
L 380.54902 191.382854 
Q 378.59945 191.327476 376.708076 191.30173 
Q 374.816702 191.275984 372.727461 191.275984 
Q 368.979631 191.275984 366.832195 191.376296 
Q 364.690577 191.476365 364.690577 191.652458 
Q 364.690577 191.827822 366.832195 191.928134 
Q 368.979631 192.028203 372.727461 192.028203 
Q 374.816702 192.028203 376.708076 192.002457 
Q 378.59945 191.976468 380.54902 191.92109 
L 380.54902 192.155718 
z
" clip-path="url(#p3525f63281)" style="fill: #0000ff"/>
   </g>
   <g id="patch_47">
    <path d="M 357.45098 182.833496 
L 380.54902 182.833496 
L 380.54902 184.43871 
L 372.239097 184.43871 
L 372.239097 191.064187 
L 365.777018 191.064187 
L 365.777018 184.43871 
L 357.45098 184.43871 
L 357.45098 182.833496 
z
" clip-path="url(#p3525f63281)" style="fill: #ff0000"/>
   </g>
   <g id="patch_48">
    <path d="M 380.54902 181.344117 
Q 378.219545 182.088807 375.714065 182.462852 
Q 373.208585 182.833496 370.537454 182.833496 
Q 364.501525 182.833496 360.976253 180.61643 
Q 357.45098 178.399363 357.45098 174.607906 
Q 357.45098 170.772245 361.038372 168.57218 
Q 364.63094 166.372115 370.87911 166.372115 
Q 373.286234 166.372115 375.49147 166.671351 
Q 377.701883 166.967187 379.658642 167.552057 
L 379.658642 170.833452 
Q 377.639764 170.081962 375.641592 169.711317 
Q 373.64342 169.337272 371.634895 169.337272 
Q 367.918088 169.337272 365.904386 170.704237 
Q 363.890685 172.067801 363.890685 174.607906 
Q 363.890685 177.124209 365.831914 178.497975 
Q 367.773143 179.86834 371.345005 179.86834 
Q 372.318208 179.86834 373.151642 179.79013 
Q 373.985077 179.70852 374.647683 179.5385 
L 374.647683 176.457729 
L 370.842874 176.457729 
L 370.842874 173.713599 
L 380.54902 173.713599 
L 380.54902 181.344117 
z
" clip-path="url(#p3525f63281)" style="fill: #ffa600"/>
   </g>
   <g id="patch_49">
    <path d="M 373.451012 161.017202 
L 364.567878 161.017202 
L 363.165278 166.372115 
L 357.45098 166.372115 
L 365.611563 136.976791 
L 372.388437 136.976791 
L 380.54902 166.372115 
L 374.839445 166.372115 
L 373.451012 161.017202 
z
M 365.984646 155.56149 
L 372.020077 155.56149 
L 369.007084 143.86888 
L 365.984646 155.56149 
z
" clip-path="url(#p3525f63281)" style="fill: #008000"/>
   </g>
   <g id="patch_50">
    <path d="M 381.764706 189.943793 
L 404.862745 189.943793 
L 404.862745 190.391617 
L 396.552823 190.391617 
L 396.552823 192.24 
L 390.090743 192.24 
L 390.090743 190.391617 
L 381.764706 190.391617 
L 381.764706 189.943793 
z
" clip-path="url(#p3525f63281)" style="fill: #ff0000"/>
   </g>
   <g id="patch_51">
    <path d="M 397.764738 188.6889 
L 388.881603 188.6889 
L 387.479003 189.943793 
L 381.764706 189.943793 
L 389.925289 183.055171 
L 396.702162 183.055171 
L 404.862745 189.943793 
L 399.15317 189.943793 
L 397.764738 188.6889 
z
M 390.298371 187.410386 
L 396.333802 187.410386 
L 393.320809 184.670292 
L 390.298371 187.410386 
z
" clip-path="url(#p3525f63281)" style="fill: #008000"/>
   </g>
   <g id="patch_52">
    <path d="M 404.862745 182.451672 
Q 402.930634 182.750813 400.841393 182.902122 
Q 398.752153 183.055171 396.476685 183.055171 
Q 389.691017 183.055171 385.727862 181.921218 
Q 381.764706 180.787265 381.764706 178.848067 
Q 381.764706 176.901912 385.727862 175.769698 
Q 389.691017 174.635745 396.476685 174.635745 
Q 398.752153 174.635745 400.841393 174.788794 
Q 402.930634 174.940103 404.862745 175.239244 
L 404.862745 176.917564 
Q 402.913175 176.521029 401.021801 176.336674 
Q 399.130427 176.15232 397.041187 176.15232 
Q 393.293357 176.15232 391.14592 176.870606 
Q 389.004303 177.587153 389.004303 178.848067 
Q 389.004303 180.103763 391.14592 180.822049 
Q 393.293357 181.538596 397.041187 181.538596 
Q 399.130427 181.538596 401.021801 181.354242 
Q 402.913175 181.168148 404.862745 180.771613 
L 404.862745 182.451672 
z
" clip-path="url(#p3525f63281)" style="fill: #0000ff"/>
   </g>
   <g id="patch_53">
    <path d="M 404.862745 172.97371 
Q 402.53327 173.804728 400.02779 174.222134 
Q 397.52231 174.635745 394.851179 174.635745 
Q 388.81525 174.635745 385.289978 172.161666 
Q 381.764706 169.687587 381.764706 165.456608 
Q 381.764706 161.1763 385.352097 158.721194 
Q 388.944666 156.266087 395.192835 156.266087 
Q 397.59996 156.266087 399.805196 156.600012 
Q 402.015609 156.930142 403.972368 157.582814 
L 403.972368 161.244602 
Q 401.95349 160.405996 399.955318 159.992384 
Q 397.957146 159.574978 395.948621 159.574978 
Q 392.231814 159.574978 390.218112 161.100408 
Q 388.20441 162.622042 388.20441 165.456608 
Q 388.20441 168.264612 390.145639 169.79763 
Q 392.086869 171.326854 395.65873 171.326854 
Q 396.631933 171.326854 397.465368 171.239578 
Q 398.298802 171.148508 398.961408 170.958778 
L 398.961408 167.52087 
L 395.156599 167.52087 
L 395.156599 164.458628 
L 404.862745 164.458628 
L 404.862745 172.97371 
z
" clip-path="url(#p3525f63281)" style="fill: #ffa600"/>
   </g>
   <g id="patch_54">
    <path d="M 406.078431 189.415204 
L 429.176471 189.415204 
L 429.176471 189.966118 
L 420.866548 189.966118 
L 420.866548 192.24 
L 414.404469 192.24 
L 414.404469 189.966118 
L 406.078431 189.966118 
L 406.078431 189.415204 
z
" clip-path="url(#p3525f63281)" style="fill: #ff0000"/>
   </g>
   <g id="patch_55">
    <path d="M 429.176471 188.818852 
Q 426.846996 189.117028 424.341516 189.266797 
Q 421.836036 189.415204 419.164905 189.415204 
Q 413.128976 189.415204 409.603704 188.527483 
Q 406.078431 187.639763 406.078431 186.121651 
Q 406.078431 184.58584 409.665823 183.704927 
Q 413.258391 182.824014 419.506561 182.824014 
Q 421.913685 182.824014 424.118921 182.943829 
Q 426.329334 183.062282 428.286093 183.296466 
L 428.286093 184.610347 
Q 426.267215 184.309448 424.269043 184.161041 
Q 422.270871 184.011272 420.262346 184.011272 
Q 416.545539 184.011272 414.531837 184.558609 
Q 412.518136 185.104585 412.518136 186.121651 
Q 412.518136 187.129187 414.459365 187.679247 
Q 416.400594 188.227946 419.972456 188.227946 
Q 420.945659 188.227946 421.779093 188.19663 
Q 422.612528 188.163954 423.275134 188.095877 
L 423.275134 186.862326 
L 419.470325 186.862326 
L 419.470325 185.763567 
L 429.176471 185.763567 
L 429.176471 188.818852 
z
" clip-path="url(#p3525f63281)" style="fill: #ffa600"/>
   </g>
   <g id="patch_56">
    <path d="M 429.176471 182.081588 
Q 427.244359 182.449592 425.155119 182.635733 
Q 423.065878 182.824014 420.79041 182.824014 
Q 414.004743 182.824014 410.041587 181.429024 
Q 406.078431 180.034034 406.078431 177.64843 
Q 406.078431 175.254269 410.041587 173.861418 
Q 414.004743 172.466429 420.79041 172.466429 
Q 423.065878 172.466429 425.155119 172.654709 
Q 427.244359 172.840851 429.176471 173.208854 
L 429.176471 175.273525 
Q 427.226901 174.785706 425.335527 174.558913 
Q 423.444153 174.33212 421.354912 174.33212 
Q 417.607082 174.33212 415.459646 175.215757 
Q 413.318028 176.097253 413.318028 177.64843 
Q 413.318028 179.193189 415.459646 180.076825 
Q 417.607082 180.958322 421.354912 180.958322 
Q 423.444153 180.958322 425.335527 180.731529 
Q 427.226901 180.502597 429.176471 180.014778 
L 429.176471 182.081588 
z
" clip-path="url(#p3525f63281)" style="fill: #0000ff"/>
   </g>
   <g id="patch_57">
    <path d="M 422.078463 168.006649 
L 413.195329 168.006649 
L 411.792729 172.466429 
L 406.078431 172.466429 
L 414.239014 147.984864 
L 421.015888 147.984864 
L 429.176471 172.466429 
L 423.466896 172.466429 
L 422.078463 168.006649 
z
M 414.612097 163.462921 
L 420.647528 163.462921 
L 417.634535 153.724862 
L 414.612097 163.462921 
z
" clip-path="url(#p3525f63281)" style="fill: #008000"/>
   </g>
   <g id="patch_58">
    <path d="M 453.490196 191.819736 
Q 451.160721 192.029868 448.655241 192.135414 
Q 446.149761 192.24 443.47863 192.24 
Q 437.442701 192.24 433.917429 191.614402 
Q 430.392157 190.988803 430.392157 189.918954 
Q 430.392157 188.83663 433.979548 188.215829 
Q 437.572117 187.595029 443.820286 187.595029 
Q 446.227411 187.595029 448.432647 187.679465 
Q 450.64306 187.762942 452.599819 187.927977 
L 452.599819 188.853901 
Q 450.580941 188.64185 448.582769 188.537264 
Q 446.584597 188.431718 444.576072 188.431718 
Q 440.859265 188.431718 438.845563 188.81744 
Q 436.831861 189.202202 436.831861 189.918954 
Q 436.831861 190.628988 438.77309 191.016629 
Q 440.71432 191.40331 444.286181 191.40331 
Q 445.259384 191.40331 446.092819 191.381242 
Q 446.926253 191.358213 447.588859 191.310238 
L 447.588859 190.440925 
L 443.78405 190.440925 
L 443.78405 189.666603 
L 453.490196 189.666603 
L 453.490196 191.819736 
z
" clip-path="url(#p3525f63281)" style="fill: #ffa600"/>
   </g>
   <g id="patch_59">
    <path d="M 430.392157 179.85341 
L 453.490196 179.85341 
L 453.490196 181.363241 
L 445.180274 181.363241 
L 445.180274 187.595029 
L 438.718194 187.595029 
L 438.718194 181.363241 
L 430.392157 181.363241 
L 430.392157 179.85341 
z
" clip-path="url(#p3525f63281)" style="fill: #ff0000"/>
   </g>
   <g id="patch_60">
    <path d="M 453.490196 179.076529 
Q 451.558085 179.461611 449.468844 179.656391 
Q 447.379604 179.85341 445.104135 179.85341 
Q 438.318468 179.85341 434.355312 178.39368 
Q 430.392157 176.933951 430.392157 174.437635 
Q 430.392157 171.932363 434.355312 170.474872 
Q 438.318468 169.015143 445.104135 169.015143 
Q 447.379604 169.015143 449.468844 169.212162 
Q 451.558085 169.406942 453.490196 169.792024 
L 453.490196 171.952513 
Q 451.540626 171.442055 449.649252 171.204737 
Q 447.757878 170.967419 445.668638 170.967419 
Q 441.920808 170.967419 439.773371 171.892064 
Q 437.631754 172.814469 437.631754 174.437635 
Q 437.631754 176.054083 439.773371 176.978728 
Q 441.920808 177.901134 445.668638 177.901134 
Q 447.757878 177.901134 449.649252 177.663816 
Q 451.540626 177.424259 453.490196 176.913801 
L 453.490196 179.076529 
z
" clip-path="url(#p3525f63281)" style="fill: #0000ff"/>
   </g>
   <g id="patch_61">
    <path d="M 446.392189 159.989338 
L 437.509054 159.989338 
L 436.106454 169.015143 
L 430.392157 169.015143 
L 438.55274 119.468782 
L 445.329613 119.468782 
L 453.490196 169.015143 
L 447.780621 169.015143 
L 446.392189 159.989338 
z
M 438.925822 150.793635 
L 444.961253 150.793635 
L 441.94826 131.085524 
L 438.925822 150.793635 
z
" clip-path="url(#p3525f63281)" style="fill: #008000"/>
   </g>
   <g id="patch_62">
    <path d="M 454.705882 185.162553 
L 477.803922 185.162553 
L 477.803922 186.542853 
L 469.493999 186.542853 
L 469.493999 192.24 
L 463.03192 192.24 
L 463.03192 186.542853 
L 454.705882 186.542853 
L 454.705882 185.162553 
z
" clip-path="url(#p3525f63281)" style="fill: #ff0000"/>
   </g>
   <g id="patch_63">
    <path d="M 470.705914 183.228617 
L 461.82278 183.228617 
L 460.42018 185.162553 
L 454.705882 185.162553 
L 462.866465 174.546383 
L 469.643339 174.546383 
L 477.803922 185.162553 
L 472.094347 185.162553 
L 470.705914 183.228617 
z
M 463.239548 181.258278 
L 469.274979 181.258278 
L 466.261986 177.035472 
L 463.239548 181.258278 
z
" clip-path="url(#p3525f63281)" style="fill: #008000"/>
   </g>
   <g id="patch_64">
    <path d="M 477.803922 161.099088 
Q 475.474447 167.822735 472.968967 171.19991 
Q 470.463487 174.546383 467.792355 174.546383 
Q 461.756427 174.546383 458.231155 154.528948 
Q 454.705882 134.511513 454.705882 100.279244 
Q 454.705882 65.647854 458.293274 45.783927 
Q 461.885842 25.92 468.134012 25.92 
Q 470.541136 25.92 472.746372 28.62174 
Q 474.956785 31.292778 476.913544 36.573451 
L 476.913544 66.200482 
Q 474.894666 59.415431 472.896494 56.068958 
Q 470.898322 52.691784 468.889797 52.691784 
Q 465.17299 52.691784 463.159288 65.033822 
Q 461.145587 77.345158 461.145587 100.279244 
Q 461.145587 122.998418 463.086816 135.401859 
Q 465.028045 147.774599 468.599907 147.774599 
Q 469.57311 147.774599 470.406544 147.068463 
Q 471.239979 146.331624 471.902585 144.796545 
L 471.902585 116.980907 
L 468.097776 116.980907 
L 468.097776 92.204726 
L 477.803922 92.204726 
L 477.803922 161.099088 
z
" clip-path="url(#p3525f63281)" style="fill: #ffa600"/>
   </g>
   <g id="patch_65">
    <path d="M 502.117647 190.139345 
Q 500.185536 191.180592 498.096295 191.707269 
Q 496.007055 192.24 493.731586 192.24 
Q 486.945919 192.24 482.982763 188.292949 
Q 479.019608 184.345898 479.019608 177.595956 
Q 479.019608 170.821799 482.982763 166.880802 
Q 486.945919 162.933751 493.731586 162.933751 
Q 496.007055 162.933751 498.096295 163.466482 
Q 500.185536 163.993159 502.117647 165.034405 
L 502.117647 170.876283 
Q 500.168077 169.496026 498.276703 168.854327 
Q 496.385329 168.212629 494.296089 168.212629 
Q 490.548259 168.212629 488.400822 170.712832 
Q 486.259205 173.20698 486.259205 177.595956 
Q 486.259205 181.96677 488.400822 184.466973 
Q 490.548259 186.961122 494.296089 186.961122 
Q 496.385329 186.961122 498.276703 186.319423 
Q 500.168077 185.671671 502.117647 184.291414 
L 502.117647 190.139345 
z
" clip-path="url(#p3525f63281)" style="fill: #0000ff"/>
   </g>
   <g id="patch_66">
    <path d="M 495.01964 140.392629 
L 486.136505 140.392629 
L 484.733905 162.933751 
L 479.019608 162.933751 
L 487.180191 39.196254 
L 493.957064 39.196254 
L 502.117647 162.933751 
L 496.408072 162.933751 
L 495.01964 140.392629 
z
M 487.553273 117.427204 
L 493.588704 117.427204 
L 490.575711 68.208003 
L 487.553273 117.427204 
z
" clip-path="url(#p3525f63281)" style="fill: #008000"/>
   </g>
   <g id="patch_67">
    <path d="M 526.431373 192.114256 
Q 524.499261 192.176584 522.410021 192.208111 
Q 520.32078 192.24 518.045312 192.24 
Q 511.259645 192.24 507.296489 192.003732 
Q 503.333333 191.767464 503.333333 191.363417 
Q 503.333333 190.95792 507.296489 190.722014 
Q 511.259645 190.485746 518.045312 190.485746 
Q 520.32078 190.485746 522.410021 190.517635 
Q 524.499261 190.549162 526.431373 190.61149 
L 526.431373 190.961181 
Q 524.481803 190.87856 522.590429 190.840148 
Q 520.699055 190.801736 518.609814 190.801736 
Q 514.861984 190.801736 512.714548 190.951397 
Q 510.57293 191.100695 510.57293 191.363417 
Q 510.57293 191.625051 512.714548 191.774711 
Q 514.861984 191.92401 518.609814 191.92401 
Q 520.699055 191.92401 522.590429 191.885598 
Q 524.481803 191.846824 526.431373 191.764203 
L 526.431373 192.114256 
z
" clip-path="url(#p3525f63281)" style="fill: #0000ff"/>
   </g>
   <g id="patch_68">
    <path d="M 503.333333 187.328089 
L 526.431373 187.328089 
L 526.431373 187.94392 
L 518.12145 187.94392 
L 518.12145 190.485746 
L 511.659371 190.485746 
L 511.659371 187.94392 
L 503.333333 187.94392 
L 503.333333 187.328089 
z
" clip-path="url(#p3525f63281)" style="fill: #ff0000"/>
   </g>
   <g id="patch_69">
    <path d="M 526.431373 186.820185 
Q 524.101898 187.074137 521.596418 187.201693 
Q 519.090938 187.328089 516.419806 187.328089 
Q 510.383878 187.328089 506.858606 186.572031 
Q 503.333333 185.815974 503.333333 184.523022 
Q 503.333333 183.214996 506.920725 182.464736 
Q 510.513293 181.714476 516.761463 181.714476 
Q 519.168587 181.714476 521.373823 181.816521 
Q 523.584236 181.917406 525.540995 182.116857 
L 525.540995 183.235869 
Q 523.522117 182.979597 521.523945 182.853201 
Q 519.525773 182.725646 517.517248 182.725646 
Q 513.800441 182.725646 511.786739 183.191804 
Q 509.773038 183.656803 509.773038 184.523022 
Q 509.773038 185.381124 511.714267 185.849602 
Q 513.655496 186.31692 517.227358 186.31692 
Q 518.200561 186.31692 519.033995 186.290249 
Q 519.86743 186.262419 520.530036 186.204439 
L 520.530036 185.153843 
L 516.725227 185.153843 
L 516.725227 184.218048 
L 526.431373 184.218048 
L 526.431373 186.820185 
z
" clip-path="url(#p3525f63281)" style="fill: #ffa600"/>
   </g>
   <g id="patch_70">
    <path d="M 519.333365 180.627937 
L 510.450231 180.627937 
L 509.047631 181.714476 
L 503.333333 181.714476 
L 511.493916 175.750013 
L 518.270789 175.750013 
L 526.431373 181.714476 
L 520.721798 181.714476 
L 519.333365 180.627937 
z
M 511.866999 179.520945 
L 517.90243 179.520945 
L 514.889437 177.148453 
L 511.866999 179.520945 
z
" clip-path="url(#p3525f63281)" style="fill: #008000"/>
   </g>
   <g id="patch_71">
    <path d="M 550.745098 192.006093 
Q 548.415623 192.123046 545.910143 192.18179 
Q 543.404663 192.24 540.733532 192.24 
Q 534.697603 192.24 531.172331 191.891809 
Q 527.647059 191.543618 527.647059 190.948169 
Q 527.647059 190.345777 531.23445 190.000256 
Q 534.827019 189.654736 541.075188 189.654736 
Q 543.482313 189.654736 545.687549 189.701731 
Q 547.897962 189.748192 549.854721 189.840046 
L 549.854721 190.35539 
Q 547.835843 190.237368 545.837671 190.179158 
Q 543.839499 190.120414 541.830974 190.120414 
Q 538.114167 190.120414 536.100465 190.335096 
Q 534.086763 190.549245 534.086763 190.948169 
Q 534.086763 191.343355 536.027992 191.559105 
Q 537.969222 191.774321 541.541083 191.774321 
Q 542.514286 191.774321 543.347721 191.762038 
Q 544.181155 191.749222 544.843761 191.72252 
L 544.843761 191.238684 
L 541.038952 191.238684 
L 541.038952 190.807718 
L 550.745098 190.807718 
L 550.745098 192.006093 
z
" clip-path="url(#p3525f63281)" style="fill: #ffa600"/>
   </g>
   <g id="patch_72">
    <path d="M 550.745098 189.19146 
Q 548.812987 189.421095 546.723746 189.537248 
Q 544.634506 189.654736 542.359037 189.654736 
Q 535.57337 189.654736 531.610214 188.784258 
Q 527.647059 187.913781 527.647059 186.425158 
Q 527.647059 184.931194 531.610214 184.062052 
Q 535.57337 183.191574 542.359037 183.191574 
Q 544.634506 183.191574 546.723746 183.309062 
Q 548.812987 183.425215 550.745098 183.65485 
L 550.745098 184.94321 
Q 548.795528 184.63881 546.904154 184.49729 
Q 545.01278 184.355771 542.92354 184.355771 
Q 539.17571 184.355771 537.028273 184.907162 
Q 534.886656 185.457219 534.886656 186.425158 
Q 534.886656 187.389091 537.028273 187.940483 
Q 539.17571 188.490539 542.92354 188.490539 
Q 545.01278 188.490539 546.904154 188.349019 
Q 548.795528 188.206165 550.745098 187.901765 
L 550.745098 189.19146 
z
" clip-path="url(#p3525f63281)" style="fill: #0000ff"/>
   </g>
   <g id="patch_73">
    <path d="M 527.647059 167.679988 
L 550.745098 167.679988 
L 550.745098 170.705179 
L 542.435176 170.705179 
L 542.435176 183.191574 
L 535.973096 183.191574 
L 535.973096 170.705179 
L 527.647059 170.705179 
L 527.647059 167.679988 
z
" clip-path="url(#p3525f63281)" style="fill: #ff0000"/>
   </g>
   <g id="patch_74">
    <path d="M 543.647091 161.086621 
L 534.763956 161.086621 
L 533.361356 167.679988 
L 527.647059 167.679988 
L 535.807642 131.486285 
L 542.584515 131.486285 
L 550.745098 167.679988 
L 545.035523 167.679988 
L 543.647091 161.086621 
z
M 536.180724 154.369145 
L 542.216155 154.369145 
L 539.203162 139.972335 
L 536.180724 154.369145 
z
" clip-path="url(#p3525f63281)" style="fill: #008000"/>
   </g>
   <g id="patch_75">
    <path d="M 551.960784 189.092687 
L 575.058824 189.092687 
L 575.058824 189.706501 
L 566.748901 189.706501 
L 566.748901 192.24 
L 560.286822 192.24 
L 560.286822 189.706501 
L 551.960784 189.706501 
L 551.960784 189.092687 
z
" clip-path="url(#p3525f63281)" style="fill: #ff0000"/>
   </g>
   <g id="patch_76">
    <path d="M 575.058824 188.618087 
Q 572.729348 188.855387 570.223869 188.974579 
Q 567.718389 189.092687 565.047257 189.092687 
Q 559.011329 189.092687 555.486057 188.386205 
Q 551.960784 187.679723 551.960784 186.471552 
Q 551.960784 185.249295 555.548176 184.54823 
Q 559.140744 183.847166 565.388914 183.847166 
Q 567.796038 183.847166 570.001274 183.942519 
Q 572.211687 184.036789 574.168446 184.223162 
L 574.168446 185.268799 
Q 572.149568 185.029332 570.151396 184.911223 
Q 568.153224 184.792032 566.144699 184.792032 
Q 562.427892 184.792032 560.41419 185.227623 
Q 558.400489 185.662132 558.400489 186.471552 
Q 558.400489 187.273387 560.341718 187.711146 
Q 562.282947 188.147822 565.854809 188.147822 
Q 566.828012 188.147822 567.661446 188.1229 
Q 568.494881 188.096894 569.157487 188.042716 
L 569.157487 187.061009 
L 565.352678 187.061009 
L 565.352678 186.186575 
L 575.058824 186.186575 
L 575.058824 188.618087 
z
" clip-path="url(#p3525f63281)" style="fill: #ffa600"/>
   </g>
   <g id="patch_77">
    <path d="M 575.058824 182.869577 
Q 573.126712 183.354146 571.037472 183.599247 
Q 568.948231 183.847166 566.672763 183.847166 
Q 559.887096 183.847166 555.92394 182.010313 
Q 551.960784 180.173459 551.960784 177.032214 
Q 551.960784 173.8797 555.92394 172.045664 
Q 559.887096 170.208811 566.672763 170.208811 
Q 568.948231 170.208811 571.037472 170.45673 
Q 573.126712 170.701831 575.058824 171.1864 
L 575.058824 173.905056 
Q 573.109254 173.262721 571.21788 172.964091 
Q 569.326506 172.665461 567.237265 172.665461 
Q 563.489435 172.665461 561.341999 173.82899 
Q 559.200381 174.989701 559.200381 177.032214 
Q 559.200381 179.066276 561.341999 180.229804 
Q 563.489435 181.390515 567.237265 181.390515 
Q 569.326506 181.390515 571.21788 181.091886 
Q 573.109254 180.790439 575.058824 180.148104 
L 575.058824 182.869577 
z
" clip-path="url(#p3525f63281)" style="fill: #0000ff"/>
   </g>
   <g id="patch_78">
    <path d="M 567.960816 165.239843 
L 559.077682 165.239843 
L 557.675081 170.208811 
L 551.960784 170.208811 
L 560.121367 142.9321 
L 566.89824 142.9321 
L 575.058824 170.208811 
L 569.349249 170.208811 
L 567.960816 165.239843 
z
M 560.49445 160.177342 
L 566.529881 160.177342 
L 563.516888 149.327454 
L 560.49445 160.177342 
z
" clip-path="url(#p3525f63281)" style="fill: #008000"/>
   </g>
   <g id="patch_79">
    <path d="M 592.274542 191.500342 
L 583.391407 191.500342 
L 581.988807 192.24 
L 576.27451 192.24 
L 584.435093 188.179711 
L 591.211966 188.179711 
L 599.372549 192.24 
L 593.662974 192.24 
L 592.274542 191.500342 
z
M 584.808175 190.74676 
L 590.843606 190.74676 
L 587.830613 189.131695 
L 584.808175 190.74676 
z
" clip-path="url(#p3525f63281)" style="fill: #008000"/>
   </g>
   <g id="patch_80">
    <path d="M 576.27451 183.10435 
L 599.372549 183.10435 
L 599.372549 184.094187 
L 591.062627 184.094187 
L 591.062627 188.179711 
L 584.600547 188.179711 
L 584.600547 184.094187 
L 576.27451 184.094187 
L 576.27451 183.10435 
z
" clip-path="url(#p3525f63281)" style="fill: #ff0000"/>
   </g>
   <g id="patch_81">
    <path d="M 599.372549 182.094101 
Q 597.043074 182.599225 594.537594 182.852941 
Q 592.032114 183.10435 589.360983 183.10435 
Q 583.325054 183.10435 579.799782 181.600508 
Q 576.27451 180.096667 576.27451 177.524913 
Q 576.27451 174.923174 579.861901 173.430865 
Q 583.45447 171.938556 589.702639 171.938556 
Q 592.109763 171.938556 594.315 172.141528 
Q 596.525413 172.342194 598.482172 172.738913 
L 598.482172 174.964691 
Q 596.463294 174.454954 594.465122 174.203544 
Q 592.46695 173.949829 590.458425 173.949829 
Q 586.741618 173.949829 584.727916 174.877044 
Q 582.714214 175.801953 582.714214 177.524913 
Q 582.714214 179.231727 584.655443 180.163555 
Q 586.596673 181.093077 590.168534 181.093077 
Q 591.141737 181.093077 591.975172 181.040027 
Q 592.808606 180.984671 593.471212 180.869346 
L 593.471212 178.779652 
L 589.666403 178.779652 
L 589.666403 176.918302 
L 599.372549 176.918302 
L 599.372549 182.094101 
z
" clip-path="url(#p3525f63281)" style="fill: #ffa600"/>
   </g>
   <g id="patch_82">
    <path d="M 599.372549 169.974042 
Q 597.440438 170.947807 595.351197 171.440351 
Q 593.261957 171.938556 590.986488 171.938556 
Q 584.200821 171.938556 580.237665 168.247308 
Q 576.27451 164.55606 576.27451 158.243573 
Q 576.27451 151.90844 580.237665 148.222854 
Q 584.200821 144.531606 590.986488 144.531606 
Q 593.261957 144.531606 595.351197 145.029811 
Q 597.440438 145.522355 599.372549 146.49612 
L 599.372549 151.959393 
Q 597.422979 150.668589 595.531605 150.068478 
Q 593.640231 149.468367 591.550991 149.468367 
Q 587.803161 149.468367 585.655724 151.806535 
Q 583.514107 154.139041 583.514107 158.243573 
Q 583.514107 162.331121 585.655724 164.669288 
Q 587.803161 167.001795 591.550991 167.001795 
Q 593.640231 167.001795 595.531605 166.401684 
Q 597.422979 165.795912 599.372549 164.505107 
L 599.372549 169.974042 
z
" clip-path="url(#p3525f63281)" style="fill: #0000ff"/>
   </g>
   <g id="patch_83">
    <path d="M 616.588267 191.921716 
L 607.705133 191.921716 
L 606.302532 192.24 
L 600.588235 192.24 
L 608.748818 190.492806 
L 615.525691 190.492806 
L 623.686275 192.24 
L 617.9767 192.24 
L 616.588267 191.921716 
z
M 609.121901 191.59744 
L 615.157332 191.59744 
L 612.144339 190.902457 
L 609.121901 191.59744 
z
" clip-path="url(#p3525f63281)" style="fill: #008000"/>
   </g>
   <g id="patch_84">
    <path d="M 623.686275 190.179711 
Q 621.754163 190.334905 619.664923 190.413404 
Q 617.575682 190.492806 615.300214 190.492806 
Q 608.514547 190.492806 604.551391 189.904513 
Q 600.588235 189.31622 600.588235 188.310167 
Q 600.588235 187.300504 604.551391 186.713113 
Q 608.514547 186.12482 615.300214 186.12482 
Q 617.575682 186.12482 619.664923 186.204222 
Q 621.754163 186.282721 623.686275 186.437915 
L 623.686275 187.308625 
Q 621.736705 187.102903 619.845331 187.00726 
Q 617.953957 186.911617 615.864716 186.911617 
Q 612.116886 186.911617 609.96945 187.284263 
Q 607.827832 187.656006 607.827832 188.310167 
Q 607.827832 188.96162 609.96945 189.334266 
Q 612.116886 189.706009 615.864716 189.706009 
Q 617.953957 189.706009 619.845331 189.610366 
Q 621.736705 189.513821 623.686275 189.308099 
L 623.686275 190.179711 
z
" clip-path="url(#p3525f63281)" style="fill: #0000ff"/>
   </g>
   <g id="patch_85">
    <path d="M 600.588235 180.009641 
L 623.686275 180.009641 
L 623.686275 181.202271 
L 615.376352 181.202271 
L 615.376352 186.12482 
L 608.914273 186.12482 
L 608.914273 181.202271 
L 600.588235 181.202271 
L 600.588235 180.009641 
z
" clip-path="url(#p3525f63281)" style="fill: #ff0000"/>
   </g>
   <g id="patch_86">
    <path d="M 623.686275 179.258755 
Q 621.356799 179.634198 618.85132 179.822777 
Q 616.34584 180.009641 613.674708 180.009641 
Q 607.63878 180.009641 604.113508 178.891884 
Q 600.588235 177.774127 600.588235 175.862626 
Q 600.588235 173.928838 604.175627 172.819653 
Q 607.768195 171.710468 614.016365 171.710468 
Q 616.423489 171.710468 618.628725 171.861331 
Q 620.839138 172.01048 622.795897 172.305348 
L 622.795897 173.959697 
Q 620.777019 173.580825 618.778847 173.393961 
Q 616.780675 173.205382 614.77215 173.205382 
Q 611.055343 173.205382 609.041641 173.894551 
Q 607.02794 174.582006 607.02794 175.862626 
Q 607.02794 177.131246 608.969169 177.823843 
Q 610.910398 178.514727 614.48226 178.514727 
Q 615.455463 178.514727 616.288897 178.475297 
Q 617.122331 178.434152 617.784938 178.348435 
L 617.784938 176.795233 
L 613.980128 176.795233 
L 613.980128 175.411752 
L 623.686275 175.411752 
L 623.686275 179.258755 
z
" clip-path="url(#p3525f63281)" style="fill: #ffa600"/>
   </g>
   <g id="patch_87">
    <path d="M 624.901961 191.051233 
L 648 191.051233 
L 648 191.283076 
L 639.690078 191.283076 
L 639.690078 192.24 
L 633.227998 192.24 
L 633.227998 191.283076 
L 624.901961 191.283076 
L 624.901961 191.051233 
z
" clip-path="url(#p3525f63281)" style="fill: #ff0000"/>
   </g>
   <g id="patch_88">
    <path d="M 640.901993 190.654214 
L 632.018858 190.654214 
L 630.616258 191.051233 
L 624.901961 191.051233 
L 633.062544 188.871828 
L 639.839417 188.871828 
L 648 191.051233 
L 642.290425 191.051233 
L 640.901993 190.654214 
z
M 633.435626 190.24972 
L 639.471057 190.24972 
L 636.458064 189.382816 
L 633.435626 190.24972 
z
" clip-path="url(#p3525f63281)" style="fill: #008000"/>
   </g>
   <g id="patch_89">
    <path d="M 648 188.658803 
Q 646.067889 188.764394 643.978648 188.817804 
Q 641.889408 188.871828 639.613939 188.871828 
Q 632.828272 188.871828 628.865116 188.471562 
Q 624.901961 188.071295 624.901961 187.386791 
Q 624.901961 186.69983 628.865116 186.300178 
Q 632.828272 185.899911 639.613939 185.899911 
Q 641.889408 185.899911 643.978648 185.953935 
Q 646.067889 186.007345 648 186.112937 
L 648 186.705355 
Q 646.05043 186.565385 644.159056 186.500311 
Q 642.267682 186.435237 640.178442 186.435237 
Q 636.430612 186.435237 634.283175 186.68878 
Q 632.141558 186.941709 632.141558 187.386791 
Q 632.141558 187.83003 634.283175 188.083573 
Q 636.430612 188.336502 640.178442 188.336502 
Q 642.267682 188.336502 644.159056 188.271428 
Q 646.05043 188.20574 648 188.06577 
L 648 188.658803 
z
" clip-path="url(#p3525f63281)" style="fill: #0000ff"/>
   </g>
   <g id="patch_90">
    <path d="M 648 185.631021 
Q 645.670525 185.765466 643.165045 185.832996 
Q 640.659565 185.899911 637.988434 185.899911 
Q 631.952505 185.899911 628.427233 185.499645 
Q 624.901961 185.099379 624.901961 184.414874 
Q 624.901961 183.722389 628.489352 183.325192 
Q 632.081921 182.927995 638.33009 182.927995 
Q 640.737214 182.927995 642.942451 182.982019 
Q 645.152864 183.035428 647.109623 183.14102 
L 647.109623 183.733439 
Q 645.090745 183.597766 643.092573 183.53085 
Q 641.094401 183.46332 639.085875 183.46332 
Q 635.369069 183.46332 633.355367 183.71011 
Q 631.341665 183.956287 631.341665 184.414874 
Q 631.341665 184.869164 633.282894 185.117182 
Q 635.224124 185.364586 638.795985 185.364586 
Q 639.769188 185.364586 640.602623 185.350466 
Q 641.436057 185.335732 642.098663 185.305037 
L 642.098663 184.748839 
L 638.293854 184.748839 
L 638.293854 184.253417 
L 648 184.253417 
L 648 185.631021 
z
" clip-path="url(#p3525f63281)" style="fill: #ffa600"/>
   </g>
   <g id="matplotlib.axis_1">
    <g id="xtick_1">
     <g id="line2d_2">
      <defs>
       <path id="m21361f16f8" d="M 0 0 
L 0 3.5 
" style="stroke: #000000; stroke-width: 0.8"/>
      </defs>
      <g>
       <use xlink:href="#m21361f16f8" x="101.54902" y="192.24" style="stroke: #000000; stroke-width: 0.8"/>
      </g>
     </g>
     <g id="text_1">
      <!-- 0 -->
      <g transform="translate(98.36777 206.838437) scale(0.1 -0.1)">
       <defs>
        <path id="DejaVuSans-30" d="M 2034 4250 
Q 1547 4250 1301 3770 
Q 1056 3291 1056 2328 
Q 1056 1369 1301 889 
Q 1547 409 2034 409 
Q 2525 409 2770 889 
Q 3016 1369 3016 2328 
Q 3016 3291 2770 3770 
Q 2525 4250 2034 4250 
z
M 2034 4750 
Q 2819 4750 3233 4129 
Q 3647 3509 3647 2328 
Q 3647 1150 3233 529 
Q 2819 -91 2034 -91 
Q 1250 -91 836 529 
Q 422 1150 422 2328 
Q 422 3509 836 4129 
Q 1250 4750 2034 4750 
z
" transform="scale(0.015625)"/>
       </defs>
       <use xlink:href="#DejaVuSans-30"/>
      </g>
     </g>
    </g>
    <g id="xtick_2">
     <g id="line2d_3">
      <g>
       <use xlink:href="#m21361f16f8" x="223.117647" y="192.24" style="stroke: #000000; stroke-width: 0.8"/>
      </g>
     </g>
     <g id="text_2">
      <!-- 5 -->
      <g transform="translate(219.936397 206.838437) scale(0.1 -0.1)">
       <defs>
        <path id="DejaVuSans-35" d="M 691 4666 
L 3169 4666 
L 3169 4134 
L 1269 4134 
L 1269 2991 
Q 1406 3038 1543 3061 
Q 1681 3084 1819 3084 
Q 2600 3084 3056 2656 
Q 3513 2228 3513 1497 
Q 3513 744 3044 326 
Q 2575 -91 1722 -91 
Q 1428 -91 1123 -41 
Q 819 9 494 109 
L 494 744 
Q 775 591 1075 516 
Q 1375 441 1709 441 
Q 2250 441 2565 725 
Q 2881 1009 2881 1497 
Q 2881 1984 2565 2268 
Q 2250 2553 1709 2553 
Q 1456 2553 1204 2497 
Q 953 2441 691 2322 
L 691 4666 
z
" transform="scale(0.015625)"/>
       </defs>
       <use xlink:href="#DejaVuSans-35"/>
      </g>
     </g>
    </g>
    <g id="xtick_3">
     <g id="line2d_4">
      <g>
       <use xlink:href="#m21361f16f8" x="344.686275" y="192.24" style="stroke: #000000; stroke-width: 0.8"/>
      </g>
     </g>
     <g id="text_3">
      <!-- 10 -->
      <g transform="translate(338.323775 206.838437) scale(0.1 -0.1)">
       <defs>
        <path id="DejaVuSans-31" d="M 794 531 
L 1825 531 
L 1825 4091 
L 703 3866 
L 703 4441 
L 1819 4666 
L 2450 4666 
L 2450 531 
L 3481 531 
L 3481 0 
L 794 0 
L 794 531 
z
" transform="scale(0.015625)"/>
       </defs>
       <use xlink:href="#DejaVuSans-31"/>
       <use xlink:href="#DejaVuSans-30" x="63.623047"/>
      </g>
     </g>
    </g>
    <g id="xtick_4">
     <g id="line2d_5">
      <g>
       <use xlink:href="#m21361f16f8" x="466.254902" y="192.24" style="stroke: #000000; stroke-width: 0.8"/>
      </g>
     </g>
     <g id="text_4">
      <!-- 15 -->
      <g transform="translate(459.892402 206.838437) scale(0.1 -0.1)">
       <use xlink:href="#DejaVuSans-31"/>
       <use xlink:href="#DejaVuSans-35" x="63.623047"/>
      </g>
     </g>
    </g>
    <g id="xtick_5">
     <g id="line2d_6">
      <g>
       <use xlink:href="#m21361f16f8" x="587.823529" y="192.24" style="stroke: #000000; stroke-width: 0.8"/>
      </g>
     </g>
     <g id="text_5">
      <!-- 20 -->
      <g transform="translate(581.461029 206.838437) scale(0.1 -0.1)">
       <defs>
        <path id="DejaVuSans-32" d="M 1228 531 
L 3431 531 
L 3431 0 
L 469 0 
L 469 531 
Q 828 903 1448 1529 
Q 2069 2156 2228 2338 
Q 2531 2678 2651 2914 
Q 2772 3150 2772 3378 
Q 2772 3750 2511 3984 
Q 2250 4219 1831 4219 
Q 1534 4219 1204 4116 
Q 875 4013 500 3803 
L 500 4441 
Q 881 4594 1212 4672 
Q 1544 4750 1819 4750 
Q 2544 4750 2975 4387 
Q 3406 4025 3406 3419 
Q 3406 3131 3298 2873 
Q 3191 2616 2906 2266 
Q 2828 2175 2409 1742 
Q 1991 1309 1228 531 
z
" transform="scale(0.015625)"/>
       </defs>
       <use xlink:href="#DejaVuSans-32"/>
       <use xlink:href="#DejaVuSans-30" x="63.623047"/>
      </g>
     </g>
    </g>
   </g>
   <g id="matplotlib.axis_2">
    <g id="ytick_1">
     <g id="line2d_7">
      <defs>
       <path id="m7d9683e313" d="M 0 0 
L -3.5 0 
" style="stroke: #000000; stroke-width: 0.8"/>
      </defs>
      <g>
       <use xlink:href="#m7d9683e313" x="90" y="192.24" style="stroke: #000000; stroke-width: 0.8"/>
      </g>
     </g>
     <g id="text_6">
      <!-- 0.0 -->
      <g transform="translate(67.096875 196.039219) scale(0.1 -0.1)">
       <defs>
        <path id="DejaVuSans-2e" d="M 684 794 
L 1344 794 
L 1344 0 
L 684 0 
L 684 794 
z
" transform="scale(0.015625)"/>
       </defs>
       <use xlink:href="#DejaVuSans-30"/>
       <use xlink:href="#DejaVuSans-2e" x="63.623047"/>
       <use xlink:href="#DejaVuSans-30" x="95.410156"/>
      </g>
     </g>
    </g>
    <g id="ytick_2">
     <g id="line2d_8">
      <g>
       <use xlink:href="#m7d9683e313" x="90" y="168.611623" style="stroke: #000000; stroke-width: 0.8"/>
      </g>
     </g>
     <g id="text_7">
      <!-- 0.2 -->
      <g transform="translate(67.096875 172.410842) scale(0.1 -0.1)">
       <use xlink:href="#DejaVuSans-30"/>
       <use xlink:href="#DejaVuSans-2e" x="63.623047"/>
       <use xlink:href="#DejaVuSans-32" x="95.410156"/>
      </g>
     </g>
    </g>
    <g id="ytick_3">
     <g id="line2d_9">
      <g>
       <use xlink:href="#m7d9683e313" x="90" y="144.983247" style="stroke: #000000; stroke-width: 0.8"/>
      </g>
     </g>
     <g id="text_8">
      <!-- 0.4 -->
      <g transform="translate(67.096875 148.782466) scale(0.1 -0.1)">
       <defs>
        <path id="DejaVuSans-34" d="M 2419 4116 
L 825 1625 
L 2419 1625 
L 2419 4116 
z
M 2253 4666 
L 3047 4666 
L 3047 1625 
L 3713 1625 
L 3713 1100 
L 3047 1100 
L 3047 0 
L 2419 0 
L 2419 1100 
L 313 1100 
L 313 1709 
L 2253 4666 
z
" transform="scale(0.015625)"/>
       </defs>
       <use xlink:href="#DejaVuSans-30"/>
       <use xlink:href="#DejaVuSans-2e" x="63.623047"/>
       <use xlink:href="#DejaVuSans-34" x="95.410156"/>
      </g>
     </g>
    </g>
    <g id="ytick_4">
     <g id="line2d_10">
      <g>
       <use xlink:href="#m7d9683e313" x="90" y="121.35487" style="stroke: #000000; stroke-width: 0.8"/>
      </g>
     </g>
     <g id="text_9">
      <!-- 0.6 -->
      <g transform="translate(67.096875 125.154089) scale(0.1 -0.1)">
       <defs>
        <path id="DejaVuSans-36" d="M 2113 2584 
Q 1688 2584 1439 2293 
Q 1191 2003 1191 1497 
Q 1191 994 1439 701 
Q 1688 409 2113 409 
Q 2538 409 2786 701 
Q 3034 994 3034 1497 
Q 3034 2003 2786 2293 
Q 2538 2584 2113 2584 
z
M 3366 4563 
L 3366 3988 
Q 3128 4100 2886 4159 
Q 2644 4219 2406 4219 
Q 1781 4219 1451 3797 
Q 1122 3375 1075 2522 
Q 1259 2794 1537 2939 
Q 1816 3084 2150 3084 
Q 2853 3084 3261 2657 
Q 3669 2231 3669 1497 
Q 3669 778 3244 343 
Q 2819 -91 2113 -91 
Q 1303 -91 875 529 
Q 447 1150 447 2328 
Q 447 3434 972 4092 
Q 1497 4750 2381 4750 
Q 2619 4750 2861 4703 
Q 3103 4656 3366 4563 
z
" transform="scale(0.015625)"/>
       </defs>
       <use xlink:href="#DejaVuSans-30"/>
       <use xlink:href="#DejaVuSans-2e" x="63.623047"/>
       <use xlink:href="#DejaVuSans-36" x="95.410156"/>
      </g>
     </g>
    </g>
    <g id="ytick_5">
     <g id="line2d_11">
      <g>
       <use xlink:href="#m7d9683e313" x="90" y="97.726494" style="stroke: #000000; stroke-width: 0.8"/>
      </g>
     </g>
     <g id="text_10">
      <!-- 0.8 -->
      <g transform="translate(67.096875 101.525712) scale(0.1 -0.1)">
       <defs>
        <path id="DejaVuSans-38" d="M 2034 2216 
Q 1584 2216 1326 1975 
Q 1069 1734 1069 1313 
Q 1069 891 1326 650 
Q 1584 409 2034 409 
Q 2484 409 2743 651 
Q 3003 894 3003 1313 
Q 3003 1734 2745 1975 
Q 2488 2216 2034 2216 
z
M 1403 2484 
Q 997 2584 770 2862 
Q 544 3141 544 3541 
Q 544 4100 942 4425 
Q 1341 4750 2034 4750 
Q 2731 4750 3128 4425 
Q 3525 4100 3525 3541 
Q 3525 3141 3298 2862 
Q 3072 2584 2669 2484 
Q 3125 2378 3379 2068 
Q 3634 1759 3634 1313 
Q 3634 634 3220 271 
Q 2806 -91 2034 -91 
Q 1263 -91 848 271 
Q 434 634 434 1313 
Q 434 1759 690 2068 
Q 947 2378 1403 2484 
z
M 1172 3481 
Q 1172 3119 1398 2916 
Q 1625 2713 2034 2713 
Q 2441 2713 2670 2916 
Q 2900 3119 2900 3481 
Q 2900 3844 2670 4047 
Q 2441 4250 2034 4250 
Q 1625 4250 1398 4047 
Q 1172 3844 1172 3481 
z
" transform="scale(0.015625)"/>
       </defs>
       <use xlink:href="#DejaVuSans-30"/>
       <use xlink:href="#DejaVuSans-2e" x="63.623047"/>
       <use xlink:href="#DejaVuSans-38" x="95.410156"/>
      </g>
     </g>
    </g>
    <g id="ytick_6">
     <g id="line2d_12">
      <g>
       <use xlink:href="#m7d9683e313" x="90" y="74.098117" style="stroke: #000000; stroke-width: 0.8"/>
      </g>
     </g>
     <g id="text_11">
      <!-- 1.0 -->
      <g transform="translate(67.096875 77.897336) scale(0.1 -0.1)">
       <use xlink:href="#DejaVuSans-31"/>
       <use xlink:href="#DejaVuSans-2e" x="63.623047"/>
       <use xlink:href="#DejaVuSans-30" x="95.410156"/>
      </g>
     </g>
    </g>
    <g id="ytick_7">
     <g id="line2d_13">
      <g>
       <use xlink:href="#m7d9683e313" x="90" y="50.469741" style="stroke: #000000; stroke-width: 0.8"/>
      </g>
     </g>
     <g id="text_12">
      <!-- 1.2 -->
      <g transform="translate(67.096875 54.268959) scale(0.1 -0.1)">
       <use xlink:href="#DejaVuSans-31"/>
       <use xlink:href="#DejaVuSans-2e" x="63.623047"/>
       <use xlink:href="#DejaVuSans-32" x="95.410156"/>
      </g>
     </g>
    </g>
    <g id="ytick_8">
     <g id="line2d_14">
      <g>
       <use xlink:href="#m7d9683e313" x="90" y="26.841364" style="stroke: #000000; stroke-width: 0.8"/>
      </g>
     </g>
     <g id="text_13">
      <!-- 1.4 -->
      <g transform="translate(67.096875 30.640583) scale(0.1 -0.1)">
       <use xlink:href="#DejaVuSans-31"/>
       <use xlink:href="#DejaVuSans-2e" x="63.623047"/>
       <use xlink:href="#DejaVuSans-34" x="95.410156"/>
      </g>
     </g>
    </g>
   </g>
  </g>
 </g>
 <defs>
  <clipPath id="p3525f63281">
   <rect x="90" y="25.92" width="558" height="166.32"/>
  </clipPath>
 </defs>
</svg>
