<?xml version="1.0" encoding="utf-8" standalone="no"?>
<!DOCTYPE svg PUBLIC "-//W3C//DTD SVG 1.1//EN"
  "http://www.w3.org/Graphics/SVG/1.1/DTD/svg11.dtd">
<svg xmlns:xlink="http://www.w3.org/1999/xlink" width="720pt" height="216pt" viewBox="0 0 720 216" xmlns="http://www.w3.org/2000/svg" version="1.1">
 <metadata>
  <rdf:RDF xmlns:dc="http://purl.org/dc/elements/1.1/" xmlns:cc="http://creativecommons.org/ns#" xmlns:rdf="http://www.w3.org/1999/02/22-rdf-syntax-ns#">
   <cc:Work>
    <dc:type rdf:resource="http://purl.org/dc/dcmitype/StillImage"/>
    <dc:date>2025-12-17T10:22:55.396859</dc:date>
    <dc:format>image/svg+xml</dc:format>
    <dc:creator>
     <cc:Agent>
      <dc:title>Matplotlib v3.8.2, https://matplotlib.org/</dc:title>
     </cc:Agent>
    </dc:creator>
   </cc:Work>
  </rdf:RDF>
 </metadata>
 <defs>
  <style type="text/css">*{stroke-linejoin: round; stroke-linecap: butt}</style>
 </defs>
 <g id="figure_1">
  <g id="patch_1">
   <path d="M 0 216 
L 720 216 
L 720 0 
L 0 0 
z
" style="fill: #ffffff"/>
  </g>
  <g id="axes_1">
   <g id="patch_2">
    <path d="M 90 192.24 
L 648 192.24 
L 648 25.92 
L 90 25.92 
z
" style="fill: #ffffff"/>
   </g>
   <g id="line2d_1">
    <path d="M 90 192.24 
L 648 192.24 
" clip-path="url(#p3f7c4ab419)" style="fill: none; stroke: #000000; stroke-width: 0.5; stroke-linecap: square"/>
   </g>
   <g id="patch_3">
    <path d="M 112.133612 192.022783 
Q 110.282173 192.130453 108.280166 192.184913 
Q 106.278159 192.24 104.0977 192.24 
Q 97.595359 192.24 93.797679 191.831858 
Q 90 191.423716 90 190.725743 
Q 90 190.025266 93.797679 189.61775 
Q 97.595359 189.209608 104.0977 189.209608 
Q 106.278159 189.209608 108.280166 189.264694 
Q 110.282173 189.319155 112.133612 189.426824 
L 112.133612 190.0309 
Q 110.265443 189.888175 108.453041 189.821821 
Q 106.640639 189.755466 104.638632 189.755466 
Q 101.047288 189.755466 98.989514 190.013998 
Q 96.937317 190.271904 96.937317 190.725743 
Q 96.937317 191.177704 98.989514 191.436236 
Q 101.047288 191.694141 104.638632 191.694141 
Q 106.640639 191.694141 108.453041 191.627787 
Q 110.265443 191.560807 112.133612 191.418082 
L 112.133612 192.022783 
z
" clip-path="url(#p3f7c4ab419)" style="fill: #0000ff"/>
   </g>
   <g id="patch_4">
    <path d="M 112.133612 188.630781 
Q 109.901401 188.920194 107.500534 189.065562 
Q 105.099667 189.209608 102.540065 189.209608 
Q 96.756158 189.209608 93.378079 188.347974 
Q 90 187.486341 90 186.012843 
Q 90 184.522164 93.437605 183.667139 
Q 96.88017 182.812113 102.867456 182.812113 
Q 105.174074 182.812113 107.287234 182.928407 
Q 109.405354 183.04338 111.280411 183.270682 
L 111.280411 184.545952 
Q 109.345828 184.253895 107.431087 184.109849 
Q 105.516346 183.964481 103.591684 183.964481 
Q 100.030068 183.964481 98.100446 184.495734 
Q 96.170823 185.025665 96.170823 186.012843 
Q 96.170823 186.99077 98.030999 187.524665 
Q 99.891175 188.057239 103.313898 188.057239 
Q 104.246466 188.057239 105.045102 188.026844 
Q 105.843737 187.995128 106.478677 187.929052 
L 106.478677 186.731751 
L 102.832733 186.731751 
L 102.832733 185.665282 
L 112.133612 185.665282 
L 112.133612 188.630781 
z
" clip-path="url(#p3f7c4ab419)" style="fill: #ffa600"/>
   </g>
   <g id="patch_5">
    <path d="M 90 174.394357 
L 112.133612 174.394357 
L 112.133612 176.036054 
L 104.170659 176.036054 
L 104.170659 182.812113 
L 97.978395 182.812113 
L 97.978395 176.036054 
L 90 176.036054 
L 90 174.394357 
z
" clip-path="url(#p3f7c4ab419)" style="fill: #ff0000"/>
   </g>
   <g id="patch_6">
    <path d="M 105.331972 169.36463 
L 96.819741 169.36463 
L 95.475704 174.394357 
L 90 174.394357 
L 97.819849 146.784116 
L 104.313763 146.784116 
L 112.133612 174.394357 
L 106.662433 174.394357 
L 105.331972 169.36463 
z
M 98.177354 164.240226 
L 103.960783 164.240226 
L 101.073594 153.25767 
L 98.177354 164.240226 
z
" clip-path="url(#p3f7c4ab419)" style="fill: #008000"/>
   </g>
   <g id="patch_7">
    <path d="M 113.298539 188.024146 
L 135.43215 188.024146 
L 135.43215 188.846355 
L 127.469197 188.846355 
L 127.469197 192.24 
L 121.276934 192.24 
L 121.276934 188.846355 
L 113.298539 188.846355 
L 113.298539 188.024146 
z
" clip-path="url(#p3f7c4ab419)" style="fill: #ff0000"/>
   </g>
   <g id="patch_8">
    <path d="M 135.43215 187.451988 
Q 133.199939 187.738067 130.799072 187.881759 
Q 128.398206 188.024146 125.838604 188.024146 
Q 120.054697 188.024146 116.676618 187.17244 
Q 113.298539 186.320735 113.298539 184.864215 
Q 113.298539 183.390712 116.736143 182.545538 
Q 120.178709 181.700364 126.165995 181.700364 
Q 128.472613 181.700364 130.585772 181.815318 
Q 132.703892 181.928966 134.57895 182.153649 
L 134.57895 183.414225 
Q 132.644367 183.125534 130.729626 182.983148 
Q 128.814885 182.839455 126.890223 182.839455 
Q 123.328606 182.839455 121.398984 183.364586 
Q 119.469362 183.888411 119.469362 184.864215 
Q 119.469362 185.830874 121.329538 186.358618 
Q 123.189713 186.885055 126.612437 186.885055 
Q 127.545005 186.885055 128.34364 186.85501 
Q 129.142276 186.823659 129.777216 186.758344 
L 129.777216 185.57484 
L 126.131271 185.57484 
L 126.131271 184.520659 
L 135.43215 184.520659 
L 135.43215 187.451988 
z
" clip-path="url(#p3f7c4ab419)" style="fill: #ffa600"/>
   </g>
   <g id="patch_9">
    <path d="M 135.43215 181.196715 
Q 133.580712 181.446362 131.578705 181.572638 
Q 129.576697 181.700364 127.396238 181.700364 
Q 120.893897 181.700364 117.096218 180.754025 
Q 113.298539 179.807686 113.298539 178.18933 
Q 113.298539 176.565168 117.096218 175.62028 
Q 120.893897 174.673941 127.396238 174.673941 
Q 129.576697 174.673941 131.578705 174.801667 
Q 133.580712 174.927943 135.43215 175.177591 
L 135.43215 176.578231 
Q 133.563982 176.247302 131.75158 176.09345 
Q 129.939178 175.939597 127.937171 175.939597 
Q 124.345826 175.939597 122.288053 176.539042 
Q 120.235856 177.137035 120.235856 178.18933 
Q 120.235856 179.23727 122.288053 179.836715 
Q 124.345826 180.434708 127.937171 180.434708 
Q 129.939178 180.434708 131.75158 180.280856 
Q 133.563982 180.125551 135.43215 179.794623 
L 135.43215 181.196715 
z
" clip-path="url(#p3f7c4ab419)" style="fill: #0000ff"/>
   </g>
   <g id="patch_10">
    <path d="M 128.630511 169.233959 
L 120.11828 169.233959 
L 118.774243 174.673941 
L 113.298539 174.673941 
L 121.118388 144.81164 
L 127.612301 144.81164 
L 135.43215 174.673941 
L 129.960971 174.673941 
L 128.630511 169.233959 
z
M 121.475892 163.691577 
L 127.259322 163.691577 
L 124.372133 151.813217 
L 121.475892 163.691577 
z
" clip-path="url(#p3f7c4ab419)" style="fill: #008000"/>
   </g>
   <g id="patch_11">
    <path d="M 158.730689 192.045227 
Q 156.879251 192.141772 154.877243 192.190605 
Q 152.875236 192.24 150.694777 192.24 
Q 144.192436 192.24 140.394757 191.874029 
Q 136.597077 191.508058 136.597077 190.882204 
Q 136.597077 190.254103 140.394757 189.888694 
Q 144.192436 189.522723 150.694777 189.522723 
Q 152.875236 189.522723 154.877243 189.572118 
Q 156.879251 189.620951 158.730689 189.717496 
L 158.730689 190.259155 
Q 156.862521 190.131178 155.050119 190.071679 
Q 153.237717 190.012181 151.235709 190.012181 
Q 147.644365 190.012181 145.586591 190.244 
Q 143.534395 190.475257 143.534395 190.882204 
Q 143.534395 191.287466 145.586591 191.519285 
Q 147.644365 191.750542 151.235709 191.750542 
Q 153.237717 191.750542 155.050119 191.691044 
Q 156.862521 191.630984 158.730689 191.503007 
L 158.730689 192.045227 
z
" clip-path="url(#p3f7c4ab419)" style="fill: #0000ff"/>
   </g>
   <g id="patch_12">
    <path d="M 136.597077 183.40885 
L 158.730689 183.40885 
L 158.730689 184.601226 
L 150.767736 184.601226 
L 150.767736 189.522723 
L 144.575472 189.522723 
L 144.575472 184.601226 
L 136.597077 184.601226 
L 136.597077 183.40885 
z
" clip-path="url(#p3f7c4ab419)" style="fill: #ff0000"/>
   </g>
   <g id="patch_13">
    <path d="M 158.730689 182.54837 
Q 156.498478 182.97861 154.097611 183.194712 
Q 151.696744 183.40885 149.137142 183.40885 
Q 143.353236 183.40885 139.975156 182.127952 
Q 136.597077 180.847055 136.597077 178.656562 
Q 136.597077 176.440531 140.034682 175.169456 
Q 143.477247 173.898381 149.464533 173.898381 
Q 151.771151 173.898381 153.884311 174.071263 
Q 156.002431 174.24218 157.877488 174.580086 
L 157.877488 176.475893 
Q 155.942905 176.041724 154.028165 175.827586 
Q 152.113424 175.611483 150.188762 175.611483 
Q 146.627145 175.611483 144.697523 176.401239 
Q 142.7679 177.189031 142.7679 178.656562 
Q 142.7679 180.110342 144.628076 180.904027 
Q 146.488252 181.695748 149.910975 181.695748 
Q 150.843544 181.695748 151.642179 181.650563 
Q 152.440815 181.603413 153.075755 181.505185 
L 153.075755 179.725287 
L 149.42981 179.725287 
L 149.42981 178.139881 
L 158.730689 178.139881 
L 158.730689 182.54837 
z
" clip-path="url(#p3f7c4ab419)" style="fill: #ffa600"/>
   </g>
   <g id="patch_14">
    <path d="M 151.92905 168.886473 
L 143.416818 168.886473 
L 142.072782 173.898381 
L 136.597077 173.898381 
L 144.416926 146.385952 
L 150.91084 146.385952 
L 158.730689 173.898381 
L 153.25951 173.898381 
L 151.92905 168.886473 
z
M 144.774431 163.780222 
L 150.557861 163.780222 
L 147.670671 152.836573 
L 144.774431 163.780222 
z
" clip-path="url(#p3f7c4ab419)" style="fill: #008000"/>
   </g>
   <g id="patch_15">
    <path d="M 182.029228 192.172222 
Q 179.797017 192.206111 177.39615 192.223133 
Q 174.995283 192.24 172.435681 192.24 
Q 166.651774 192.24 163.273695 192.139107 
Q 159.895616 192.038214 159.895616 191.865674 
Q 159.895616 191.691123 163.333221 191.591004 
Q 166.775786 191.490884 172.763072 191.490884 
Q 175.06969 191.490884 177.18285 191.504502 
Q 179.30097 191.517965 181.176027 191.544581 
L 181.176027 191.693908 
Q 179.241444 191.65971 177.326703 191.642843 
Q 175.411962 191.625821 173.4873 191.625821 
Q 169.925684 191.625821 167.996061 191.688028 
Q 166.066439 191.750081 166.066439 191.865674 
Q 166.066439 191.980185 167.926615 192.042701 
Q 169.786791 192.105063 173.209514 192.105063 
Q 174.142082 192.105063 174.940718 192.101504 
Q 175.739353 192.09779 176.374293 192.090053 
L 176.374293 191.949855 
L 172.728349 191.949855 
L 172.728349 191.824977 
L 182.029228 191.824977 
L 182.029228 192.172222 
z
" clip-path="url(#p3f7c4ab419)" style="fill: #ffa600"/>
   </g>
   <g id="patch_16">
    <path d="M 159.895616 190.68184 
L 182.029228 190.68184 
L 182.029228 190.839626 
L 174.066275 190.839626 
L 174.066275 191.490884 
L 167.874011 191.490884 
L 167.874011 190.839626 
L 159.895616 190.839626 
L 159.895616 190.68184 
z
" clip-path="url(#p3f7c4ab419)" style="fill: #ff0000"/>
   </g>
   <g id="patch_17">
    <path d="M 182.029228 190.598074 
Q 180.177789 190.639594 178.175782 190.660596 
Q 176.173775 190.68184 173.993316 190.68184 
Q 167.490975 190.68184 163.693295 190.524446 
Q 159.895616 190.367053 159.895616 190.097891 
Q 159.895616 189.827764 163.693295 189.670612 
Q 167.490975 189.513219 173.993316 189.513219 
Q 176.173775 189.513219 178.175782 189.534462 
Q 180.177789 189.555464 182.029228 189.596985 
L 182.029228 189.829937 
Q 180.161059 189.774897 178.348657 189.749309 
Q 176.536255 189.723721 174.534248 189.723721 
Q 170.942904 189.723721 168.88513 189.823419 
Q 166.832933 189.922876 166.832933 190.097891 
Q 166.832933 190.272183 168.88513 190.371881 
Q 170.942904 190.471338 174.534248 190.471338 
Q 176.536255 190.471338 178.348657 190.44575 
Q 180.161059 190.41992 182.029228 190.364881 
L 182.029228 190.598074 
z
" clip-path="url(#p3f7c4ab419)" style="fill: #0000ff"/>
   </g>
   <g id="patch_18">
    <path d="M 175.227588 189.27304 
L 166.715357 189.27304 
L 165.37132 189.513219 
L 159.895616 189.513219 
L 167.715465 188.194776 
L 174.209379 188.194776 
L 182.029228 189.513219 
L 176.558049 189.513219 
L 175.227588 189.27304 
z
M 168.072969 189.028339 
L 173.856399 189.028339 
L 170.96921 188.503901 
L 168.072969 189.028339 
z
" clip-path="url(#p3f7c4ab419)" style="fill: #008000"/>
   </g>
   <g id="patch_19">
    <path d="M 198.526127 191.518669 
L 190.013895 191.518669 
L 188.669859 192.24 
L 183.194154 192.24 
L 191.014003 188.280316 
L 197.507917 188.280316 
L 205.327766 192.24 
L 199.856587 192.24 
L 198.526127 191.518669 
z
M 191.371508 190.78376 
L 197.154938 190.78376 
L 194.267748 189.208712 
L 191.371508 190.78376 
z
" clip-path="url(#p3f7c4ab419)" style="fill: #008000"/>
   </g>
   <g id="patch_20">
    <path d="M 183.194154 181.240878 
L 205.327766 181.240878 
L 205.327766 182.613765 
L 197.364813 182.613765 
L 197.364813 188.280316 
L 191.172549 188.280316 
L 191.172549 182.613765 
L 183.194154 182.613765 
L 183.194154 181.240878 
z
" clip-path="url(#p3f7c4ab419)" style="fill: #ff0000"/>
   </g>
   <g id="patch_21">
    <path d="M 205.327766 180.484549 
Q 203.095555 180.862714 200.694688 181.052659 
Q 198.293821 181.240878 195.73422 181.240878 
Q 189.950313 181.240878 186.572234 180.115019 
Q 183.194154 178.98916 183.194154 177.063802 
Q 183.194154 175.115996 186.631759 173.998771 
Q 190.074325 172.881546 196.061611 172.881546 
Q 198.368228 172.881546 200.481388 173.033502 
Q 202.599508 173.183732 204.474566 173.480738 
L 204.474566 175.147078 
Q 202.539983 174.76546 200.625242 174.577242 
Q 198.710501 174.387296 196.785839 174.387296 
Q 193.224222 174.387296 191.2946 175.081461 
Q 189.364978 175.773899 189.364978 177.063802 
Q 189.364978 178.341618 191.225153 179.039236 
Q 193.085329 179.735128 196.508053 179.735128 
Q 197.440621 179.735128 198.239256 179.695412 
Q 199.037892 179.653969 199.672832 179.56763 
L 199.672832 178.003169 
L 196.026887 178.003169 
L 196.026887 176.609659 
L 205.327766 176.609659 
L 205.327766 180.484549 
z
" clip-path="url(#p3f7c4ab419)" style="fill: #ffa600"/>
   </g>
   <g id="patch_22">
    <path d="M 205.327766 170.011731 
Q 203.476328 171.434233 201.474321 172.153754 
Q 199.472313 172.881546 197.291854 172.881546 
Q 190.789513 172.881546 186.991834 167.489272 
Q 183.194154 162.096999 183.194154 152.875549 
Q 183.194154 143.621019 186.991834 138.237016 
Q 190.789513 132.844742 197.291854 132.844742 
Q 199.472313 132.844742 201.474321 133.572534 
Q 203.476328 134.292055 205.327766 135.714557 
L 205.327766 143.695452 
Q 203.459598 141.80981 201.647196 140.933152 
Q 199.834794 140.056495 197.832787 140.056495 
Q 194.241442 140.056495 192.183669 143.472152 
Q 190.131472 146.87954 190.131472 152.875549 
Q 190.131472 158.846748 192.183669 162.262406 
Q 194.241442 165.669793 197.832787 165.669793 
Q 199.834794 165.669793 201.647196 164.793135 
Q 203.459598 163.908207 205.327766 162.022566 
L 205.327766 170.011731 
z
" clip-path="url(#p3f7c4ab419)" style="fill: #0000ff"/>
   </g>
   <g id="patch_23">
    <path d="M 228.626305 191.967182 
Q 226.774866 192.102411 224.772859 192.170813 
Q 222.770852 192.24 220.590393 192.24 
Q 214.088052 192.24 210.290373 191.727384 
Q 206.492693 191.214769 206.492693 190.338134 
Q 206.492693 189.458353 210.290373 188.946524 
Q 214.088052 188.433909 220.590393 188.433909 
Q 222.770852 188.433909 224.772859 188.503096 
Q 226.774866 188.571497 228.626305 188.706727 
L 228.626305 189.465429 
Q 226.758137 189.286171 224.945734 189.202832 
Q 223.133332 189.119492 221.131325 189.119492 
Q 217.539981 189.119492 215.482207 189.444201 
Q 213.430011 189.768124 213.430011 190.338134 
Q 213.430011 190.905785 215.482207 191.230493 
Q 217.539981 191.554416 221.131325 191.554416 
Q 223.133332 191.554416 224.945734 191.471077 
Q 226.758137 191.386951 228.626305 191.207693 
L 228.626305 191.967182 
z
" clip-path="url(#p3f7c4ab419)" style="fill: #0000ff"/>
   </g>
   <g id="patch_24">
    <path d="M 206.492693 182.452908 
L 228.626305 182.452908 
L 228.626305 183.619369 
L 220.663352 183.619369 
L 220.663352 188.433909 
L 214.471088 188.433909 
L 214.471088 183.619369 
L 206.492693 183.619369 
L 206.492693 182.452908 
z
" clip-path="url(#p3f7c4ab419)" style="fill: #ff0000"/>
   </g>
   <g id="patch_25">
    <path d="M 228.626305 181.469009 
Q 226.394094 181.960959 223.993227 182.208056 
Q 221.59236 182.452908 219.032758 182.452908 
Q 213.248852 182.452908 209.870772 180.988292 
Q 206.492693 179.523676 206.492693 177.019004 
Q 206.492693 174.485129 209.930298 173.031745 
Q 213.372863 171.578361 219.360149 171.578361 
Q 221.666767 171.578361 223.779927 171.776039 
Q 225.898047 171.971471 227.773104 172.357842 
L 227.773104 174.525563 
Q 225.838521 174.029121 223.92378 173.78427 
Q 222.009039 173.537172 220.084378 173.537172 
Q 216.522761 173.537172 214.593139 174.440202 
Q 212.663516 175.340985 212.663516 177.019004 
Q 212.663516 178.681298 214.523692 179.58882 
Q 216.383868 180.494096 219.806591 180.494096 
Q 220.739159 180.494096 221.537795 180.442431 
Q 222.33643 180.388518 222.97137 180.276201 
L 222.97137 178.241014 
L 219.325426 178.241014 
L 219.325426 176.428215 
L 228.626305 176.428215 
L 228.626305 181.469009 
z
" clip-path="url(#p3f7c4ab419)" style="fill: #ffa600"/>
   </g>
   <g id="patch_26">
    <path d="M 221.824665 161.970491 
L 213.312434 161.970491 
L 211.968397 171.578361 
L 206.492693 171.578361 
L 214.312542 118.836807 
L 220.806456 118.836807 
L 228.626305 171.578361 
L 223.155126 171.578361 
L 221.824665 161.970491 
z
M 214.670047 152.181767 
L 220.453477 152.181767 
L 217.566287 131.202701 
L 214.670047 152.181767 
z
" clip-path="url(#p3f7c4ab419)" style="fill: #008000"/>
   </g>
   <g id="patch_27">
    <path d="M 251.924843 191.828228 
Q 249.692632 192.034114 247.291766 192.137527 
Q 244.890899 192.24 242.331297 192.24 
Q 236.54739 192.24 233.169311 191.627042 
Q 229.791232 191.014084 229.791232 189.965851 
Q 229.791232 188.905397 233.228837 188.297139 
Q 236.671402 187.688882 242.658688 187.688882 
Q 244.965306 187.688882 247.078465 187.771613 
Q 249.196586 187.853403 251.071643 188.015104 
L 251.071643 188.922319 
Q 249.13706 188.714552 247.222319 188.612079 
Q 245.307578 188.508666 243.382916 188.508666 
Q 239.8213 188.508666 237.891677 188.886594 
Q 235.962055 189.263582 235.962055 189.965851 
Q 235.962055 190.66154 237.822231 191.041348 
Q 239.682406 191.420216 243.10513 191.420216 
Q 244.037698 191.420216 244.836334 191.398593 
Q 245.634969 191.37603 246.269909 191.329024 
L 246.269909 190.477276 
L 242.623964 190.477276 
L 242.623964 189.7186 
L 251.924843 189.7186 
L 251.924843 191.828228 
z
" clip-path="url(#p3f7c4ab419)" style="fill: #ffa600"/>
   </g>
   <g id="patch_28">
    <path d="M 229.791232 182.487605 
L 251.924843 182.487605 
L 251.924843 183.501999 
L 243.961891 183.501999 
L 243.961891 187.688882 
L 237.769627 187.688882 
L 237.769627 183.501999 
L 229.791232 183.501999 
L 229.791232 182.487605 
z
" clip-path="url(#p3f7c4ab419)" style="fill: #ff0000"/>
   </g>
   <g id="patch_29">
    <path d="M 251.924843 181.974971 
Q 250.073405 182.229072 248.071398 182.357599 
Q 246.069391 182.487605 243.888931 182.487605 
Q 237.386591 182.487605 233.588911 181.524385 
Q 229.791232 180.561166 229.791232 178.913942 
Q 229.791232 177.260809 233.588911 176.299067 
Q 237.386591 175.335848 243.888931 175.335848 
Q 246.069391 175.335848 248.071398 175.465853 
Q 250.073405 175.594381 251.924843 175.848481 
L 251.924843 177.274105 
Q 250.056675 176.937274 248.244273 176.780677 
Q 246.431871 176.62408 244.429864 176.62408 
Q 240.838519 176.62408 238.780746 177.234217 
Q 236.728549 177.842878 236.728549 178.913942 
Q 236.728549 179.980575 238.780746 180.590712 
Q 240.838519 181.199372 244.429864 181.199372 
Q 246.431871 181.199372 248.244273 181.042775 
Q 250.056675 180.884701 251.924843 180.54787 
L 251.924843 181.974971 
z
" clip-path="url(#p3f7c4ab419)" style="fill: #0000ff"/>
   </g>
   <g id="patch_30">
    <path d="M 245.123204 170.420635 
L 236.610973 170.420635 
L 235.266936 175.335848 
L 229.791232 175.335848 
L 237.611081 148.35422 
L 244.104995 148.35422 
L 251.924843 175.335848 
L 246.453664 175.335848 
L 245.123204 170.420635 
z
M 237.968585 165.4129 
L 243.752015 165.4129 
L 240.864826 154.680388 
L 237.968585 165.4129 
z
" clip-path="url(#p3f7c4ab419)" style="fill: #008000"/>
   </g>
   <g id="patch_31">
    <path d="M 253.08977 188.232515 
L 275.223382 188.232515 
L 275.223382 189.014086 
L 267.260429 189.014086 
L 267.260429 192.24 
L 261.068165 192.24 
L 261.068165 189.014086 
L 253.08977 189.014086 
L 253.08977 188.232515 
z
" clip-path="url(#p3f7c4ab419)" style="fill: #ff0000"/>
   </g>
   <g id="patch_32">
    <path d="M 275.223382 187.652377 
Q 272.991171 187.942446 270.590304 188.088143 
Q 268.189437 188.232515 265.629835 188.232515 
Q 259.845929 188.232515 256.46785 187.368931 
Q 253.08977 186.505347 253.08977 185.028513 
Q 253.08977 183.534461 256.527375 182.6775 
Q 259.969941 181.820539 265.957226 181.820539 
Q 268.263844 181.820539 270.377004 181.937096 
Q 272.495124 182.052329 274.370181 182.280145 
L 274.370181 183.558302 
Q 272.435599 183.265584 270.520858 183.121212 
Q 268.606117 182.975515 266.681455 182.975515 
Q 263.119838 182.975515 261.190216 183.50797 
Q 259.260594 184.039101 259.260594 185.028513 
Q 259.260594 186.008654 261.120769 186.543758 
Q 262.980945 187.077538 266.403669 187.077538 
Q 267.336237 187.077538 268.134872 187.047074 
Q 268.933508 187.015286 269.568448 186.94906 
L 269.568448 185.74905 
L 265.922503 185.74905 
L 265.922503 184.680166 
L 275.223382 184.680166 
L 275.223382 187.652377 
z
" clip-path="url(#p3f7c4ab419)" style="fill: #ffa600"/>
   </g>
   <g id="patch_33">
    <path d="M 275.223382 181.24603 
Q 273.371944 181.530801 271.369936 181.674842 
Q 269.367929 181.820539 267.18747 181.820539 
Q 260.685129 181.820539 256.88745 180.741059 
Q 253.08977 179.661579 253.08977 177.815537 
Q 253.08977 175.962872 256.88745 174.885048 
Q 260.685129 173.805568 267.18747 173.805568 
Q 269.367929 173.805568 271.369936 173.951265 
Q 273.371944 174.095306 275.223382 174.380076 
L 275.223382 175.977772 
Q 273.355214 175.600286 271.542812 175.424788 
Q 269.73041 175.249289 267.728402 175.249289 
Q 264.137058 175.249289 262.079285 175.93307 
Q 260.027088 176.615195 260.027088 177.815537 
Q 260.027088 179.010911 262.079285 179.694692 
Q 264.137058 180.376817 267.728402 180.376817 
Q 269.73041 180.376817 271.542812 180.201319 
Q 273.355214 180.024165 275.223382 179.646679 
L 275.223382 181.24603 
z
" clip-path="url(#p3f7c4ab419)" style="fill: #0000ff"/>
   </g>
   <g id="patch_34">
    <path d="M 268.421743 157.452692 
L 259.909511 157.452692 
L 258.565475 173.805568 
L 253.08977 173.805568 
L 260.909619 84.0379 
L 267.403533 84.0379 
L 275.223382 173.805568 
L 269.752203 173.805568 
L 268.421743 157.452692 
z
M 261.267124 140.791998 
L 267.050554 140.791998 
L 264.163364 105.085013 
L 261.267124 140.791998 
z
" clip-path="url(#p3f7c4ab419)" style="fill: #008000"/>
   </g>
   <g id="patch_35">
    <path d="M 298.521921 192.063382 
Q 296.670482 192.150927 294.668475 192.195209 
Q 292.666468 192.24 290.486009 192.24 
Q 283.983668 192.24 280.185988 191.908141 
Q 276.388309 191.576283 276.388309 191.008763 
Q 276.388309 190.439208 280.185988 190.107859 
Q 283.983668 189.776 290.486009 189.776 
Q 292.666468 189.776 294.668475 189.820791 
Q 296.670482 189.865073 298.521921 189.952618 
L 298.521921 190.443789 
Q 296.653752 190.327741 294.84135 190.273788 
Q 293.028948 190.219836 291.026941 190.219836 
Q 287.435597 190.219836 285.377823 190.430047 
Q 283.325626 190.639749 283.325626 191.008763 
Q 283.325626 191.376251 285.377823 191.586462 
Q 287.435597 191.796164 291.026941 191.796164 
Q 293.028948 191.796164 294.84135 191.742212 
Q 296.653752 191.68775 298.521921 191.571702 
L 298.521921 192.063382 
z
" clip-path="url(#p3f7c4ab419)" style="fill: #0000ff"/>
   </g>
   <g id="patch_36">
    <path d="M 298.521921 189.218661 
Q 296.28971 189.49733 293.888843 189.637301 
Q 291.487976 189.776 288.928374 189.776 
Q 283.144467 189.776 279.766388 188.946353 
Q 276.388309 188.116706 276.388309 186.697909 
Q 276.388309 185.262569 279.825914 184.439284 
Q 283.268479 183.616 289.255765 183.616 
Q 291.562383 183.616 293.675543 183.727977 
Q 295.793663 183.838681 297.66872 184.057545 
L 297.66872 185.285473 
Q 295.734137 185.004259 293.819396 184.86556 
Q 291.904655 184.725589 289.979993 184.725589 
Q 286.418377 184.725589 284.488754 185.23712 
Q 282.559132 185.747378 282.559132 186.697909 
Q 282.559132 187.639532 284.419308 188.153608 
Q 286.279484 188.666411 289.702207 188.666411 
Q 290.634775 188.666411 291.433411 188.637144 
Q 292.232046 188.606605 292.866986 188.542982 
L 292.866986 187.390129 
L 289.221042 187.390129 
L 289.221042 186.363251 
L 298.521921 186.363251 
L 298.521921 189.218661 
z
" clip-path="url(#p3f7c4ab419)" style="fill: #ffa600"/>
   </g>
   <g id="patch_37">
    <path d="M 291.720281 154.888696 
L 283.20805 154.888696 
L 281.864013 183.616 
L 276.388309 183.616 
L 284.208158 25.92 
L 290.702072 25.92 
L 298.521921 183.616 
L 293.050742 183.616 
L 291.720281 154.888696 
z
M 284.565663 125.620643 
L 290.349092 125.620643 
L 287.461903 62.89373 
L 284.565663 125.620643 
z
" clip-path="url(#p3f7c4ab419)" style="fill: #008000"/>
   </g>
   <g id="patch_38">
    <path d="M 299.686848 189.672842 
L 321.820459 189.672842 
L 321.820459 190.17351 
L 313.857506 190.17351 
L 313.857506 192.24 
L 307.665243 192.24 
L 307.665243 190.17351 
L 299.686848 190.17351 
L 299.686848 189.672842 
z
" clip-path="url(#p3f7c4ab419)" style="fill: #ff0000"/>
   </g>
   <g id="patch_39">
    <path d="M 321.820459 189.266371 
Q 319.588248 189.469607 317.187381 189.571689 
Q 314.786515 189.672842 312.226913 189.672842 
Q 306.443006 189.672842 303.064927 189.067776 
Q 299.686848 188.462709 299.686848 187.427971 
Q 299.686848 186.381169 303.124452 185.780743 
Q 306.567018 185.180317 312.554304 185.180317 
Q 314.860922 185.180317 316.974081 185.261982 
Q 319.092201 185.342719 320.967259 185.502338 
L 320.967259 186.397874 
Q 319.032676 186.192782 317.117935 186.091628 
Q 315.203194 185.989547 313.278532 185.989547 
Q 309.716915 185.989547 307.787293 186.362609 
Q 305.857671 186.734743 305.857671 187.427971 
Q 305.857671 188.114703 307.717847 188.489622 
Q 309.578022 188.863612 313.000746 188.863612 
Q 313.933314 188.863612 314.731949 188.842268 
Q 315.530585 188.819996 316.165525 188.773595 
L 316.165525 187.932812 
L 312.51958 187.932812 
L 312.51958 187.183903 
L 321.820459 187.183903 
L 321.820459 189.266371 
z
" clip-path="url(#p3f7c4ab419)" style="fill: #ffa600"/>
   </g>
   <g id="patch_40">
    <path d="M 315.01882 183.933233 
L 306.506589 183.933233 
L 305.162552 185.180317 
L 299.686848 185.180317 
L 307.506697 178.334563 
L 314.00061 178.334563 
L 321.820459 185.180317 
L 316.34928 185.180317 
L 315.01882 183.933233 
z
M 307.864201 182.662675 
L 313.647631 182.662675 
L 310.760442 179.939632 
L 307.864201 182.662675 
z
" clip-path="url(#p3f7c4ab419)" style="fill: #008000"/>
   </g>
   <g id="patch_41">
    <path d="M 321.820459 177.261158 
Q 319.969021 177.79322 317.967014 178.062345 
Q 315.965006 178.334563 313.784547 178.334563 
Q 307.282206 178.334563 303.484527 176.317675 
Q 299.686848 174.300786 299.686848 170.85166 
Q 299.686848 167.39016 303.484527 165.376365 
Q 307.282206 163.359477 313.784547 163.359477 
Q 315.965006 163.359477 317.967014 163.631695 
Q 319.969021 163.900819 321.820459 164.432882 
L 321.820459 167.418 
Q 319.952291 166.712708 318.139889 166.384809 
Q 316.327487 166.05691 314.32548 166.05691 
Q 310.734135 166.05691 308.676362 167.334479 
Q 306.624165 168.608954 306.624165 170.85166 
Q 306.624165 173.085085 308.676362 174.362654 
Q 310.734135 175.637129 314.32548 175.637129 
Q 316.327487 175.637129 318.139889 175.30923 
Q 319.952291 174.978238 321.820459 174.272946 
L 321.820459 177.261158 
z
" clip-path="url(#p3f7c4ab419)" style="fill: #0000ff"/>
   </g>
   <g id="patch_42">
    <path d="M 322.985386 190.830667 
L 345.118998 190.830667 
L 345.118998 191.105526 
L 337.156045 191.105526 
L 337.156045 192.24 
L 330.963781 192.24 
L 330.963781 191.105526 
L 322.985386 191.105526 
L 322.985386 190.830667 
z
" clip-path="url(#p3f7c4ab419)" style="fill: #ff0000"/>
   </g>
   <g id="patch_43">
    <path d="M 345.118998 190.46026 
Q 343.267559 190.643862 341.265552 190.736731 
Q 339.263545 190.830667 337.083086 190.830667 
Q 330.580745 190.830667 326.783066 190.134686 
Q 322.985386 189.438704 322.985386 188.248491 
Q 322.985386 187.054007 326.783066 186.359093 
Q 330.580745 185.663112 337.083086 185.663112 
Q 339.263545 185.663112 341.265552 185.757048 
Q 343.267559 185.849917 345.118998 186.033519 
L 345.118998 187.063614 
Q 343.25083 186.820234 341.438428 186.707084 
Q 339.626025 186.593934 337.624018 186.593934 
Q 334.032674 186.593934 331.9749 187.034793 
Q 329.922704 187.474585 329.922704 188.248491 
Q 329.922704 189.019194 331.9749 189.460053 
Q 334.032674 189.899845 337.624018 189.899845 
Q 339.626025 189.899845 341.438428 189.786695 
Q 343.25083 189.672477 345.118998 189.429097 
L 345.118998 190.46026 
z
" clip-path="url(#p3f7c4ab419)" style="fill: #0000ff"/>
   </g>
   <g id="patch_44">
    <path d="M 345.118998 184.579256 
Q 342.886787 185.121184 340.48592 185.393385 
Q 338.085053 185.663112 335.525451 185.663112 
Q 329.741545 185.663112 326.363465 184.049701 
Q 322.985386 182.436289 322.985386 179.677158 
Q 322.985386 176.885858 326.422991 175.284819 
Q 329.865556 173.683781 335.852842 173.683781 
Q 338.15946 173.683781 340.27262 173.901542 
Q 342.39074 174.116828 344.265797 174.542452 
L 344.265797 176.9304 
Q 342.331214 176.383523 340.416474 176.113796 
Q 338.501733 175.841595 336.577071 175.841595 
Q 333.015454 175.841595 331.085832 176.836367 
Q 329.156209 177.828664 329.156209 179.677158 
Q 329.156209 181.508331 331.016385 182.508052 
Q 332.876561 183.505298 336.299284 183.505298 
Q 337.231853 183.505298 338.030488 183.448383 
Q 338.829124 183.388994 339.464064 183.265266 
L 339.464064 181.023317 
L 335.818119 181.023317 
L 335.818119 179.02635 
L 345.118998 179.02635 
L 345.118998 184.579256 
z
" clip-path="url(#p3f7c4ab419)" style="fill: #ffa600"/>
   </g>
   <g id="patch_45">
    <path d="M 338.317358 171.287572 
L 329.805127 171.287572 
L 328.461091 173.683781 
L 322.985386 173.683781 
L 330.805235 160.530005 
L 337.299149 160.530005 
L 345.118998 173.683781 
L 339.647819 173.683781 
L 338.317358 171.287572 
z
M 331.16274 168.846258 
L 336.94617 168.846258 
L 334.05898 163.614066 
L 331.16274 168.846258 
z
" clip-path="url(#p3f7c4ab419)" style="fill: #008000"/>
   </g>
   <g id="patch_46">
    <path d="M 346.283925 188.016099 
L 368.417537 188.016099 
L 368.417537 188.839877 
L 360.454584 188.839877 
L 360.454584 192.24 
L 354.26232 192.24 
L 354.26232 188.839877 
L 346.283925 188.839877 
L 346.283925 188.016099 
z
" clip-path="url(#p3f7c4ab419)" style="fill: #ff0000"/>
   </g>
   <g id="patch_47">
    <path d="M 368.417537 187.64605 
Q 366.566098 187.829475 364.564091 187.922253 
Q 362.562084 188.016099 360.381625 188.016099 
Q 353.879284 188.016099 350.081604 187.320792 
Q 346.283925 186.625485 346.283925 185.436425 
Q 346.283925 184.243099 350.081604 183.548859 
Q 353.879284 182.853552 360.381625 182.853552 
Q 362.562084 182.853552 364.564091 182.947397 
Q 366.566098 183.040176 368.417537 183.223601 
L 368.417537 184.252697 
Q 366.549368 184.009553 364.736966 183.896512 
Q 362.924564 183.783472 360.922557 183.783472 
Q 357.331213 183.783472 355.273439 184.223904 
Q 353.221242 184.663269 353.221242 185.436425 
Q 353.221242 186.206381 355.273439 186.646813 
Q 357.331213 187.086179 360.922557 187.086179 
Q 362.924564 187.086179 364.736966 186.973138 
Q 366.549368 186.859031 368.417537 186.615887 
L 368.417537 187.64605 
z
" clip-path="url(#p3f7c4ab419)" style="fill: #0000ff"/>
   </g>
   <g id="patch_48">
    <path d="M 368.417537 181.876904 
Q 366.185326 182.365228 363.784459 182.610505 
Q 361.383592 182.853552 358.82399 182.853552 
Q 353.040083 182.853552 349.662004 181.399729 
Q 346.283925 179.945906 346.283925 177.45969 
Q 346.283925 174.944486 349.72153 173.501812 
Q 353.164095 172.059137 359.151381 172.059137 
Q 361.457999 172.059137 363.571159 172.255359 
Q 365.689279 172.449351 367.564336 172.832875 
L 367.564336 174.984622 
Q 365.629753 174.491839 363.715012 174.248791 
Q 361.800271 174.003515 359.875609 174.003515 
Q 356.313993 174.003515 354.38437 174.89989 
Q 352.454748 175.794036 352.454748 177.45969 
Q 352.454748 179.109734 354.314924 180.01057 
Q 356.1751 180.909175 359.597823 180.909175 
Q 360.530391 180.909175 361.329027 180.85789 
Q 362.127662 180.804375 362.762602 180.692885 
L 362.762602 178.672695 
L 359.116658 178.672695 
L 359.116658 176.873255 
L 368.417537 176.873255 
L 368.417537 181.876904 
z
" clip-path="url(#p3f7c4ab419)" style="fill: #ffa600"/>
   </g>
   <g id="patch_49">
    <path d="M 361.615897 164.193511 
L 353.103666 164.193511 
L 351.759629 172.059137 
L 346.283925 172.059137 
L 354.103774 128.881478 
L 360.597688 128.881478 
L 368.417537 172.059137 
L 362.946358 172.059137 
L 361.615897 164.193511 
z
M 354.461278 156.179827 
L 360.244708 156.179827 
L 357.357519 139.005001 
L 354.461278 156.179827 
z
" clip-path="url(#p3f7c4ab419)" style="fill: #008000"/>
   </g>
   <g id="patch_50">
    <path d="M 391.716075 192.002703 
Q 389.483864 192.121352 387.082997 192.180947 
Q 384.68213 192.24 382.122529 192.24 
Q 376.338622 192.24 372.960543 191.886764 
Q 369.582463 191.533527 369.582463 190.92945 
Q 369.582463 190.318329 373.020068 189.967802 
Q 376.462634 189.617274 382.449919 189.617274 
Q 384.756537 189.617274 386.869697 189.66495 
Q 388.987817 189.712085 390.862875 189.80527 
L 390.862875 190.328081 
Q 388.928292 190.208349 387.013551 190.149296 
Q 385.09881 190.089701 383.174148 190.089701 
Q 379.612531 190.089701 377.682909 190.307494 
Q 375.753287 190.524745 375.753287 190.92945 
Q 375.753287 191.330362 377.613462 191.549239 
Q 379.473638 191.767573 382.896362 191.767573 
Q 383.82893 191.767573 384.627565 191.755113 
Q 385.426201 191.74211 386.061141 191.715021 
L 386.061141 191.224175 
L 382.415196 191.224175 
L 382.415196 190.786963 
L 391.716075 190.786963 
L 391.716075 192.002703 
z
" clip-path="url(#p3f7c4ab419)" style="fill: #ffa600"/>
   </g>
   <g id="patch_51">
    <path d="M 369.582463 185.246065 
L 391.716075 185.246065 
L 391.716075 186.098572 
L 383.753122 186.098572 
L 383.753122 189.617274 
L 377.560858 189.617274 
L 377.560858 186.098572 
L 369.582463 186.098572 
L 369.582463 185.246065 
z
" clip-path="url(#p3f7c4ab419)" style="fill: #ff0000"/>
   </g>
   <g id="patch_52">
    <path d="M 384.914436 183.228776 
L 376.402204 183.228776 
L 375.058168 185.246065 
L 369.582463 185.246065 
L 377.402312 174.172334 
L 383.896226 174.172334 
L 391.716075 185.246065 
L 386.244896 185.246065 
L 384.914436 183.228776 
z
M 377.759817 181.173514 
L 383.543247 181.173514 
L 380.656057 176.768704 
L 377.759817 181.173514 
z
" clip-path="url(#p3f7c4ab419)" style="fill: #008000"/>
   </g>
   <g id="patch_53">
    <path d="M 391.716075 172.647482 
Q 389.864637 173.403317 387.86263 173.785628 
Q 385.860622 174.172334 383.680163 174.172334 
Q 377.177822 174.172334 373.380143 171.307195 
Q 369.582463 168.442055 369.582463 163.542316 
Q 369.582463 158.624999 373.380143 155.764254 
Q 377.177822 152.899114 383.680163 152.899114 
Q 385.860622 152.899114 387.86263 153.28582 
Q 389.864637 153.668132 391.716075 154.423966 
L 391.716075 158.664548 
Q 389.847907 157.662628 388.035505 157.196823 
Q 386.223103 156.731018 384.221096 156.731018 
Q 380.629751 156.731018 378.571978 158.5459 
Q 376.519781 160.356386 376.519781 163.542316 
Q 376.519781 166.715062 378.571978 168.529943 
Q 380.629751 170.34043 384.221096 170.34043 
Q 386.223103 170.34043 388.035505 169.874625 
Q 389.847907 169.404426 391.716075 168.402506 
L 391.716075 172.647482 
z
" clip-path="url(#p3f7c4ab419)" style="fill: #0000ff"/>
   </g>
   <g id="patch_54">
    <path d="M 408.212974 191.482127 
L 399.700743 191.482127 
L 398.356706 192.24 
L 392.881002 192.24 
L 400.700851 188.079723 
L 407.194765 188.079723 
L 415.014614 192.24 
L 409.543435 192.24 
L 408.212974 191.482127 
z
M 401.058356 190.709988 
L 406.841786 190.709988 
L 403.954596 189.05515 
L 401.058356 190.709988 
z
" clip-path="url(#p3f7c4ab419)" style="fill: #008000"/>
   </g>
   <g id="patch_55">
    <path d="M 415.014614 187.781516 
Q 413.163175 187.92933 411.161168 188.004097 
Q 409.159161 188.079723 406.978702 188.079723 
Q 400.476361 188.079723 396.678681 187.519404 
Q 392.881002 186.959086 392.881002 186.000873 
Q 392.881002 185.039222 396.678681 184.479763 
Q 400.476361 183.919445 406.978702 183.919445 
Q 409.159161 183.919445 411.161168 183.995071 
Q 413.163175 184.069837 415.014614 184.217651 
L 415.014614 185.046957 
Q 413.146445 184.851017 411.334043 184.759923 
Q 409.521641 184.668828 407.519634 184.668828 
Q 403.92829 184.668828 401.870516 185.023753 
Q 399.81832 185.37782 399.81832 186.000873 
Q 399.81832 186.621348 401.870516 186.976274 
Q 403.92829 187.33034 407.519634 187.33034 
Q 409.521641 187.33034 411.334043 187.239245 
Q 413.146445 187.147291 415.014614 186.951351 
L 415.014614 187.781516 
z
" clip-path="url(#p3f7c4ab419)" style="fill: #0000ff"/>
   </g>
   <g id="patch_56">
    <path d="M 392.881002 177.80139 
L 415.014614 177.80139 
L 415.014614 178.994581 
L 407.051661 178.994581 
L 407.051661 183.919445 
L 400.859397 183.919445 
L 400.859397 178.994581 
L 392.881002 178.994581 
L 392.881002 177.80139 
z
" clip-path="url(#p3f7c4ab419)" style="fill: #ff0000"/>
   </g>
   <g id="patch_57">
    <path d="M 415.014614 176.118615 
Q 412.782403 176.960003 410.381536 177.382617 
Q 407.980669 177.80139 405.421067 177.80139 
Q 399.637161 177.80139 396.259081 175.296438 
Q 392.881002 172.791485 392.881002 168.507709 
Q 392.881002 164.173988 396.318607 161.688245 
Q 399.761172 159.202503 405.748458 159.202503 
Q 408.055076 159.202503 410.168236 159.540594 
Q 412.286356 159.874844 414.161413 160.53566 
L 414.161413 164.243143 
Q 412.22683 163.394072 410.312089 162.975299 
Q 408.397348 162.552684 406.472687 162.552684 
Q 402.91107 162.552684 400.981448 164.097149 
Q 399.051825 165.637771 399.051825 168.507709 
Q 399.051825 171.350753 400.912001 172.902902 
Q 402.772177 174.451208 406.1949 174.451208 
Q 407.127468 174.451208 407.926104 174.362843 
Q 408.724739 174.270637 409.359679 174.078539 
L 409.359679 170.597731 
L 405.713735 170.597731 
L 405.713735 167.497276 
L 415.014614 167.497276 
L 415.014614 176.118615 
z
" clip-path="url(#p3f7c4ab419)" style="fill: #ffa600"/>
   </g>
   <g id="patch_58">
    <path d="M 438.313152 191.935302 
Q 436.080941 192.087651 433.680075 192.164173 
Q 431.279208 192.24 428.719606 192.24 
Q 422.935699 192.24 419.55762 191.786431 
Q 416.179541 191.332862 416.179541 190.557204 
Q 416.179541 189.772502 419.617146 189.322411 
Q 423.059711 188.87232 429.046997 188.87232 
Q 431.353615 188.87232 433.466774 188.933538 
Q 435.584895 188.994061 437.459952 189.113714 
L 437.459952 189.785023 
Q 435.525369 189.631283 433.610628 189.555456 
Q 431.695887 189.478934 429.771225 189.478934 
Q 426.209609 189.478934 424.279986 189.758588 
Q 422.350364 190.037547 422.350364 190.557204 
Q 422.350364 191.07199 424.21054 191.353036 
Q 426.070715 191.633386 429.493439 191.633386 
Q 430.426007 191.633386 431.224643 191.617386 
Q 432.023278 191.60069 432.658218 191.565908 
L 432.658218 190.935642 
L 429.012273 190.935642 
L 429.012273 190.374246 
L 438.313152 190.374246 
L 438.313152 191.935302 
z
" clip-path="url(#p3f7c4ab419)" style="fill: #ffa600"/>
   </g>
   <g id="patch_59">
    <path d="M 431.511513 187.52265 
L 422.999282 187.52265 
L 421.655245 188.87232 
L 416.179541 188.87232 
L 423.99939 181.463425 
L 430.493303 181.463425 
L 438.313152 188.87232 
L 432.841973 188.87232 
L 431.511513 187.52265 
z
M 424.356894 186.147575 
L 430.140324 186.147575 
L 427.253135 183.20053 
L 424.356894 186.147575 
z
" clip-path="url(#p3f7c4ab419)" style="fill: #008000"/>
   </g>
   <g id="patch_60">
    <path d="M 438.313152 180.787524 
Q 436.461714 181.122553 434.459707 181.292015 
Q 432.4577 181.463425 430.27724 181.463425 
Q 423.7749 181.463425 419.97722 180.193432 
Q 416.179541 178.923439 416.179541 176.751596 
Q 416.179541 174.57196 419.97722 173.303915 
Q 423.7749 172.033922 430.27724 172.033922 
Q 432.4577 172.033922 434.459707 172.205332 
Q 436.461714 172.374795 438.313152 172.709823 
L 438.313152 174.589491 
Q 436.444984 174.145383 434.632582 173.938912 
Q 432.82018 173.73244 430.818173 173.73244 
Q 427.226828 173.73244 425.169055 174.536899 
Q 423.116858 175.33941 423.116858 176.751596 
Q 423.116858 178.157937 425.169055 178.962396 
Q 427.226828 179.764907 430.818173 179.764907 
Q 432.82018 179.764907 434.632582 179.558436 
Q 436.444984 179.350017 438.313152 178.905909 
L 438.313152 180.787524 
z
" clip-path="url(#p3f7c4ab419)" style="fill: #0000ff"/>
   </g>
   <g id="patch_61">
    <path d="M 416.179541 101.31265 
L 438.313152 101.31265 
L 438.313152 115.105269 
L 430.3502 115.105269 
L 430.3502 172.033922 
L 424.157936 172.033922 
L 424.157936 115.105269 
L 416.179541 115.105269 
L 416.179541 101.31265 
z
" clip-path="url(#p3f7c4ab419)" style="fill: #ff0000"/>
   </g>
   <g id="patch_62">
    <path d="M 454.810052 191.830683 
L 446.29782 191.830683 
L 444.953784 192.24 
L 439.478079 192.24 
L 447.297928 189.993088 
L 453.791842 189.993088 
L 461.611691 192.24 
L 456.140512 192.24 
L 454.810052 191.830683 
z
M 447.655433 191.41366 
L 453.438863 191.41366 
L 450.551673 190.519904 
L 447.655433 191.41366 
z
" clip-path="url(#p3f7c4ab419)" style="fill: #008000"/>
   </g>
   <g id="patch_63">
    <path d="M 461.611691 189.644584 
Q 459.37948 189.818836 456.978613 189.90636 
Q 454.577746 189.993088 452.018144 189.993088 
Q 446.234238 189.993088 442.856159 189.47431 
Q 439.478079 188.955532 439.478079 188.068358 
Q 439.478079 187.170839 442.915684 186.65604 
Q 446.35825 186.14124 452.345535 186.14124 
Q 454.652153 186.14124 456.765313 186.211259 
Q 458.883433 186.280482 460.75849 186.417338 
L 460.75849 187.185162 
Q 458.823908 187.009318 456.909167 186.92259 
Q 454.994426 186.835066 453.069764 186.835066 
Q 449.508147 186.835066 447.578525 187.154926 
Q 445.648902 187.473991 445.648902 188.068358 
Q 445.648902 188.657155 447.509078 188.978606 
Q 449.369254 189.299262 452.791978 189.299262 
Q 453.724546 189.299262 454.523181 189.280962 
Q 455.321817 189.261866 455.956757 189.222082 
L 455.956757 188.501203 
L 452.310812 188.501203 
L 452.310812 187.859096 
L 461.611691 187.859096 
L 461.611691 189.644584 
z
" clip-path="url(#p3f7c4ab419)" style="fill: #ffa600"/>
   </g>
   <g id="patch_64">
    <path d="M 439.478079 170.091871 
L 461.611691 170.091871 
L 461.611691 173.221945 
L 453.648738 173.221945 
L 453.648738 186.14124 
L 447.456474 186.14124 
L 447.456474 173.221945 
L 439.478079 173.221945 
L 439.478079 170.091871 
z
" clip-path="url(#p3f7c4ab419)" style="fill: #ff0000"/>
   </g>
   <g id="patch_65">
    <path d="M 461.611691 168.573331 
Q 459.760253 169.326037 457.758245 169.706766 
Q 455.756238 170.091871 453.575779 170.091871 
Q 447.073438 170.091871 443.275759 167.238591 
Q 439.478079 164.385311 439.478079 159.505852 
Q 439.478079 154.608888 443.275759 151.759984 
Q 447.073438 148.906704 453.575779 148.906704 
Q 455.756238 148.906704 457.758245 149.291809 
Q 459.760253 149.672538 461.611691 150.425244 
L 461.611691 154.648274 
Q 459.743523 153.650501 457.931121 153.186624 
Q 456.118719 152.722747 454.116711 152.722747 
Q 450.525367 152.722747 448.467594 154.530116 
Q 446.415397 156.333109 446.415397 159.505852 
Q 446.415397 162.665466 448.467594 164.472835 
Q 450.525367 166.275828 454.116711 166.275828 
Q 456.118719 166.275828 457.931121 165.811951 
Q 459.743523 165.343698 461.611691 164.345925 
L 461.611691 168.573331 
z
" clip-path="url(#p3f7c4ab419)" style="fill: #0000ff"/>
   </g>
   <g id="patch_66">
    <path d="M 462.776618 189.897132 
L 484.91023 189.897132 
L 484.91023 190.354056 
L 476.947277 190.354056 
L 476.947277 192.24 
L 470.755013 192.24 
L 470.755013 190.354056 
L 462.776618 190.354056 
L 462.776618 189.897132 
z
" clip-path="url(#p3f7c4ab419)" style="fill: #ff0000"/>
   </g>
   <g id="patch_67">
    <path d="M 478.10859 188.799652 
L 469.596359 188.799652 
L 468.252322 189.897132 
L 462.776618 189.897132 
L 470.596467 183.872614 
L 477.090381 183.872614 
L 484.91023 189.897132 
L 479.439051 189.897132 
L 478.10859 188.799652 
z
M 470.953972 187.681514 
L 476.737401 187.681514 
L 473.850212 185.285135 
L 470.953972 187.681514 
z
" clip-path="url(#p3f7c4ab419)" style="fill: #008000"/>
   </g>
   <g id="patch_68">
    <path d="M 484.91023 183.1289 
Q 483.058791 183.497542 481.056784 183.684006 
Q 479.054777 183.872614 476.874318 183.872614 
Q 470.371977 183.872614 466.574297 182.475203 
Q 462.776618 181.077792 462.776618 178.688049 
Q 462.776618 176.289732 466.574297 174.894465 
Q 470.371977 173.497054 476.874318 173.497054 
Q 479.054777 173.497054 481.056784 173.685662 
Q 483.058791 173.872126 484.91023 174.240768 
L 484.91023 176.309022 
Q 483.042061 175.820357 481.229659 175.59317 
Q 479.417257 175.365984 477.41525 175.365984 
Q 473.823906 175.365984 471.766132 176.251153 
Q 469.713935 177.13418 469.713935 178.688049 
Q 469.713935 180.235488 471.766132 181.120658 
Q 473.823906 182.003684 477.41525 182.003684 
Q 479.417257 182.003684 481.229659 181.776498 
Q 483.042061 181.547168 484.91023 181.058503 
L 484.91023 183.1289 
z
" clip-path="url(#p3f7c4ab419)" style="fill: #0000ff"/>
   </g>
   <g id="patch_69">
    <path d="M 484.91023 171.104753 
Q 482.678019 172.300904 480.277152 172.90171 
Q 477.876285 173.497054 475.316683 173.497054 
Q 469.532776 173.497054 466.154697 169.935911 
Q 462.776618 166.374768 462.776618 160.284777 
Q 462.776618 154.123781 466.214223 150.589947 
Q 469.656788 147.056113 475.644074 147.056113 
Q 477.950692 147.056113 480.063852 147.536758 
Q 482.181972 148.011942 484.057029 148.951384 
L 484.057029 154.222094 
Q 482.122446 153.01502 480.207705 152.419675 
Q 478.292964 151.818869 476.368302 151.818869 
Q 472.806686 151.818869 470.877063 154.014543 
Q 468.947441 156.204755 468.947441 160.284777 
Q 468.947441 164.326565 470.807617 166.533163 
Q 472.667793 168.734299 476.090516 168.734299 
Q 477.023084 168.734299 477.82172 168.608675 
Q 478.620355 168.47759 479.255295 168.204497 
L 479.255295 163.256037 
L 475.609351 163.256037 
L 475.609351 158.848303 
L 484.91023 158.848303 
L 484.91023 171.104753 
z
" clip-path="url(#p3f7c4ab419)" style="fill: #ffa600"/>
   </g>
   <g id="patch_70">
    <path d="M 508.208768 192.018282 
Q 505.976557 192.129141 503.57569 192.184824 
Q 501.174824 192.24 498.615222 192.24 
Q 492.831315 192.24 489.453236 191.909954 
Q 486.075157 191.579907 486.075157 191.015488 
Q 486.075157 190.444487 489.512761 190.116972 
Q 492.955327 189.789457 498.942613 189.789457 
Q 501.249231 189.789457 503.36239 189.834003 
Q 505.48051 189.878043 507.355568 189.96511 
L 507.355568 190.453599 
Q 505.420985 190.341727 503.506244 190.286551 
Q 501.591503 190.230868 499.666841 190.230868 
Q 496.105224 190.230868 494.175602 190.434363 
Q 492.24598 190.637352 492.24598 191.015488 
Q 492.24598 191.39008 494.106156 191.594587 
Q 495.966331 191.798588 499.389055 191.798588 
Q 500.321623 191.798588 501.120258 191.786946 
Q 501.918894 191.774797 502.553834 191.749486 
L 502.553834 191.290864 
L 498.907889 191.290864 
L 498.907889 190.882355 
L 508.208768 190.882355 
L 508.208768 192.018282 
z
" clip-path="url(#p3f7c4ab419)" style="fill: #ffa600"/>
   </g>
   <g id="patch_71">
    <path d="M 501.407129 188.785028 
L 492.894897 188.785028 
L 491.550861 189.789457 
L 486.075157 189.789457 
L 493.895005 184.275734 
L 500.388919 184.275734 
L 508.208768 189.789457 
L 502.737589 189.789457 
L 501.407129 188.785028 
z
M 494.25251 187.761692 
L 500.03594 187.761692 
L 497.14875 185.568493 
L 494.25251 187.761692 
z
" clip-path="url(#p3f7c4ab419)" style="fill: #008000"/>
   </g>
   <g id="patch_72">
    <path d="M 508.208768 183.265726 
Q 506.35733 183.766364 504.355323 184.019594 
Q 502.353315 184.275734 500.172856 184.275734 
Q 493.670515 184.275734 489.872836 182.377968 
Q 486.075157 180.480201 486.075157 177.234788 
Q 486.075157 173.977732 489.872836 172.082876 
Q 493.670515 170.185109 500.172856 170.185109 
Q 502.353315 170.185109 504.355323 170.44125 
Q 506.35733 170.694479 508.208768 171.195117 
L 508.208768 174.003928 
Q 506.3406 173.340292 504.528198 173.031759 
Q 502.715796 172.723226 500.713789 172.723226 
Q 497.122444 172.723226 495.064671 173.925339 
Q 493.012474 175.124541 493.012474 177.234788 
Q 493.012474 179.336302 495.064671 180.538415 
Q 497.122444 181.737617 500.713789 181.737617 
Q 502.715796 181.737617 504.528198 181.429084 
Q 506.3406 181.117641 508.208768 180.454005 
L 508.208768 183.265726 
z
" clip-path="url(#p3f7c4ab419)" style="fill: #0000ff"/>
   </g>
   <g id="patch_73">
    <path d="M 486.075157 109.53416 
L 508.208768 109.53416 
L 508.208768 121.362785 
L 500.245815 121.362785 
L 500.245815 170.185109 
L 494.053551 170.185109 
L 494.053551 121.362785 
L 486.075157 121.362785 
L 486.075157 109.53416 
z
" clip-path="url(#p3f7c4ab419)" style="fill: #ff0000"/>
   </g>
   <g id="patch_74">
    <path d="M 524.705667 191.56305 
L 516.193436 191.56305 
L 514.8494 192.24 
L 509.373695 192.24 
L 517.193544 188.523943 
L 523.687458 188.523943 
L 531.507307 192.24 
L 526.036128 192.24 
L 524.705667 191.56305 
z
M 517.551049 190.873358 
L 523.334479 190.873358 
L 520.447289 189.395218 
L 517.551049 190.873358 
z
" clip-path="url(#p3f7c4ab419)" style="fill: #008000"/>
   </g>
   <g id="patch_75">
    <path d="M 531.507307 188.139694 
Q 529.275096 188.331819 526.874229 188.42832 
Q 524.473362 188.523943 521.91376 188.523943 
Q 516.129854 188.523943 512.751774 187.951956 
Q 509.373695 187.379968 509.373695 186.401799 
Q 509.373695 185.412225 512.8113 184.844623 
Q 516.253865 184.277022 522.241151 184.277022 
Q 524.547769 184.277022 526.660929 184.354223 
Q 528.779049 184.430546 530.654106 184.581439 
L 530.654106 185.428016 
Q 528.719523 185.234136 526.804782 185.138513 
Q 524.890042 185.042012 522.96538 185.042012 
Q 519.403763 185.042012 517.474141 185.394679 
Q 515.544518 185.746469 515.544518 186.401799 
Q 515.544518 187.050987 517.404694 187.405409 
Q 519.26487 187.758954 522.687593 187.758954 
Q 523.620162 187.758954 524.418797 187.738776 
Q 525.217432 187.717721 525.852372 187.673857 
L 525.852372 186.87904 
L 522.206428 186.87904 
L 522.206428 186.171073 
L 531.507307 186.171073 
L 531.507307 188.139694 
z
" clip-path="url(#p3f7c4ab419)" style="fill: #ffa600"/>
   </g>
   <g id="patch_76">
    <path d="M 531.507307 183.287667 
Q 529.655868 183.778068 527.653861 184.026119 
Q 525.651854 184.277022 523.471395 184.277022 
Q 516.969054 184.277022 513.171375 182.418061 
Q 509.373695 180.559101 509.373695 177.380051 
Q 509.373695 174.189596 513.171375 172.333486 
Q 516.969054 170.474526 523.471395 170.474526 
Q 525.651854 170.474526 527.653861 170.725429 
Q 529.655868 170.97348 531.507307 171.463881 
L 531.507307 174.215256 
Q 529.639139 173.56519 527.826737 173.262967 
Q 526.014334 172.960743 524.012327 172.960743 
Q 520.420983 172.960743 518.363209 174.138275 
Q 516.311013 175.312955 516.311013 177.380051 
Q 516.311013 179.438593 518.363209 180.616124 
Q 520.420983 181.790805 524.012327 181.790805 
Q 526.014334 181.790805 527.826737 181.488581 
Q 529.639139 181.183506 531.507307 180.53344 
L 531.507307 183.287667 
z
" clip-path="url(#p3f7c4ab419)" style="fill: #0000ff"/>
   </g>
   <g id="patch_77">
    <path d="M 509.373695 120.573196 
L 531.507307 120.573196 
L 531.507307 130.305345 
L 523.544354 130.305345 
L 523.544354 170.474526 
L 517.35209 170.474526 
L 517.35209 130.305345 
L 509.373695 130.305345 
L 509.373695 120.573196 
z
" clip-path="url(#p3f7c4ab419)" style="fill: #ff0000"/>
   </g>
   <g id="patch_78">
    <path d="M 548.004206 191.714461 
L 539.491975 191.714461 
L 538.147938 192.24 
L 532.672234 192.24 
L 540.492083 189.355101 
L 546.985997 189.355101 
L 554.805846 192.24 
L 549.334667 192.24 
L 548.004206 191.714461 
z
M 540.849587 191.17903 
L 546.633017 191.17903 
L 543.745828 190.0315 
L 540.849587 191.17903 
z
" clip-path="url(#p3f7c4ab419)" style="fill: #008000"/>
   </g>
   <g id="patch_79">
    <path d="M 554.805846 188.941525 
Q 552.954407 189.146525 550.9524 189.250217 
Q 548.950393 189.355101 546.769934 189.355101 
Q 540.267593 189.355101 536.469913 188.578007 
Q 532.672234 187.800914 532.672234 186.471989 
Q 532.672234 185.138297 536.469913 184.362395 
Q 540.267593 183.585302 546.769934 183.585302 
Q 548.950393 183.585302 550.9524 183.690186 
Q 552.954407 183.793878 554.805846 183.998878 
L 554.805846 185.149023 
Q 552.937677 184.877279 551.125275 184.750942 
Q 549.312873 184.624605 547.310866 184.624605 
Q 543.719521 184.624605 541.661748 185.116843 
Q 539.609551 185.60789 539.609551 186.471989 
Q 539.609551 187.332513 541.661748 187.824751 
Q 543.719521 188.315798 547.310866 188.315798 
Q 549.312873 188.315798 551.125275 188.189461 
Q 552.937677 188.061932 554.805846 187.790187 
L 554.805846 188.941525 
z
" clip-path="url(#p3f7c4ab419)" style="fill: #0000ff"/>
   </g>
   <g id="patch_80">
    <path d="M 554.805846 182.976261 
Q 552.573635 183.280781 550.172768 183.433737 
Q 547.771901 183.585302 545.212299 183.585302 
Q 539.428392 183.585302 536.050313 182.678693 
Q 532.672234 181.772084 532.672234 180.221672 
Q 532.672234 178.653183 536.109839 177.753526 
Q 539.552404 176.85387 545.53969 176.85387 
Q 547.846308 176.85387 549.959468 176.976234 
Q 552.077588 177.097208 553.952645 177.336375 
L 553.952645 178.678212 
Q 552.018062 178.37091 550.103321 178.219345 
Q 548.18858 178.06639 546.263918 178.06639 
Q 542.702302 178.06639 540.772679 178.625373 
Q 538.843057 179.182965 538.843057 180.221672 
Q 538.843057 181.250645 540.703233 181.812409 
Q 542.563409 182.372782 545.986132 182.372782 
Q 546.9187 182.372782 547.717336 182.3408 
Q 548.515971 182.307428 549.150911 182.237903 
L 549.150911 180.978106 
L 545.504967 180.978106 
L 545.504967 179.855969 
L 554.805846 179.855969 
L 554.805846 182.976261 
z
" clip-path="url(#p3f7c4ab419)" style="fill: #ffa600"/>
   </g>
   <g id="patch_81">
    <path d="M 532.672234 62.419528 
L 554.805846 62.419528 
L 554.805846 84.737413 
L 546.842893 84.737413 
L 546.842893 176.85387 
L 540.650629 176.85387 
L 540.650629 84.737413 
L 532.672234 84.737413 
L 532.672234 62.419528 
z
" clip-path="url(#p3f7c4ab419)" style="fill: #ff0000"/>
   </g>
   <g id="patch_82">
    <path d="M 571.302745 191.968205 
L 562.790513 191.968205 
L 561.446477 192.24 
L 555.970772 192.24 
L 563.790621 190.748006 
L 570.284535 190.748006 
L 578.104384 192.24 
L 572.633205 192.24 
L 571.302745 191.968205 
z
M 564.148126 191.691294 
L 569.931556 191.691294 
L 567.044366 191.097822 
L 564.148126 191.691294 
z
" clip-path="url(#p3f7c4ab419)" style="fill: #008000"/>
   </g>
   <g id="patch_83">
    <path d="M 578.104384 190.60032 
Q 576.252946 190.673524 574.250939 190.710552 
Q 572.248931 190.748006 570.068472 190.748006 
Q 563.566131 190.748006 559.768452 190.470509 
Q 555.970772 190.193012 555.970772 189.718458 
Q 555.970772 189.242202 559.768452 188.96513 
Q 563.566131 188.687633 570.068472 188.687633 
Q 572.248931 188.687633 574.250939 188.725087 
Q 576.252946 188.762115 578.104384 188.835319 
L 578.104384 189.246032 
Q 576.236216 189.148993 574.423814 189.103879 
Q 572.611412 189.058764 570.609405 189.058764 
Q 567.01806 189.058764 564.960287 189.234541 
Q 562.90809 189.409891 562.90809 189.718458 
Q 562.90809 190.025748 564.960287 190.201524 
Q 567.01806 190.376875 570.609405 190.376875 
Q 572.611412 190.376875 574.423814 190.33176 
Q 576.236216 190.28622 578.104384 190.189181 
L 578.104384 190.60032 
z
" clip-path="url(#p3f7c4ab419)" style="fill: #0000ff"/>
   </g>
   <g id="patch_84">
    <path d="M 578.104384 188.494788 
Q 575.872173 188.591211 573.471306 188.639642 
Q 571.070439 188.687633 568.510838 188.687633 
Q 562.726931 188.687633 559.348852 188.400567 
Q 555.970772 188.113501 555.970772 187.622584 
Q 555.970772 187.125942 559.408377 186.841077 
Q 562.850943 186.556213 568.838228 186.556213 
Q 571.144846 186.556213 573.258006 186.594958 
Q 575.376126 186.633263 577.251184 186.708992 
L 577.251184 187.133867 
Q 575.316601 187.036564 573.40186 186.988573 
Q 571.487119 186.940142 569.562457 186.940142 
Q 566.00084 186.940142 564.071218 187.117136 
Q 562.141596 187.293691 562.141596 187.622584 
Q 562.141596 187.948394 564.001771 188.12627 
Q 565.861947 188.303705 569.284671 188.303705 
Q 570.217239 188.303705 571.015874 188.293578 
Q 571.81451 188.283011 572.44945 188.260997 
L 572.44945 187.862099 
L 568.803505 187.862099 
L 568.803505 187.506789 
L 578.104384 187.506789 
L 578.104384 188.494788 
z
" clip-path="url(#p3f7c4ab419)" style="fill: #ffa600"/>
   </g>
   <g id="patch_85">
    <path d="M 555.970772 182.648609 
L 578.104384 182.648609 
L 578.104384 183.410701 
L 570.141431 183.410701 
L 570.141431 186.556213 
L 563.949167 186.556213 
L 563.949167 183.410701 
L 555.970772 183.410701 
L 555.970772 182.648609 
z
" clip-path="url(#p3f7c4ab419)" style="fill: #ff0000"/>
   </g>
   <g id="patch_86">
    <path d="M 594.601283 192.068173 
L 586.089052 192.068173 
L 584.745015 192.24 
L 579.269311 192.24 
L 587.08916 191.296771 
L 593.583074 191.296771 
L 601.402923 192.24 
L 595.931744 192.24 
L 594.601283 192.068173 
z
M 587.446665 191.893112 
L 593.230095 191.893112 
L 590.342905 191.517923 
L 587.446665 191.893112 
z
" clip-path="url(#p3f7c4ab419)" style="fill: #008000"/>
   </g>
   <g id="patch_87">
    <path d="M 601.402923 191.185458 
Q 599.170712 191.241115 596.769845 191.26907 
Q 594.368978 191.296771 591.809376 191.296771 
Q 586.02547 191.296771 582.64739 191.131071 
Q 579.269311 190.965371 579.269311 190.682004 
Q 579.269311 190.395332 582.706916 190.230903 
Q 586.149481 190.066473 592.136767 190.066473 
Q 594.443385 190.066473 596.556545 190.088838 
Q 598.674665 190.110948 600.549722 190.15466 
L 600.549722 190.399907 
Q 598.615139 190.343742 596.700398 190.31604 
Q 594.785657 190.288085 592.860996 190.288085 
Q 589.299379 190.288085 587.369757 190.390249 
Q 585.440134 190.49216 585.440134 190.682004 
Q 585.440134 190.870068 587.30031 190.972741 
Q 589.160486 191.07516 592.583209 191.07516 
Q 593.515777 191.07516 594.314413 191.069315 
Q 595.113048 191.063216 595.747988 191.050509 
L 595.747988 190.820256 
L 592.102044 190.820256 
L 592.102044 190.615164 
L 601.402923 190.615164 
L 601.402923 191.185458 
z
" clip-path="url(#p3f7c4ab419)" style="fill: #ffa600"/>
   </g>
   <g id="patch_88">
    <path d="M 601.402923 189.969468 
Q 599.551484 190.017551 597.549477 190.041872 
Q 595.54747 190.066473 593.367011 190.066473 
Q 586.86467 190.066473 583.06699 189.884203 
Q 579.269311 189.701933 579.269311 189.390229 
Q 579.269311 189.077406 583.06699 188.895416 
Q 586.86467 188.713145 593.367011 188.713145 
Q 595.54747 188.713145 597.549477 188.737746 
Q 599.551484 188.762068 601.402923 188.810151 
L 601.402923 189.079922 
Q 599.534754 189.016184 597.722352 188.986551 
Q 595.90995 188.956918 593.907943 188.956918 
Q 590.316599 188.956918 588.258825 189.072374 
Q 586.206629 189.187551 586.206629 189.390229 
Q 586.206629 189.592068 588.258825 189.707524 
Q 590.316599 189.822701 593.907943 189.822701 
Q 595.90995 189.822701 597.722352 189.793068 
Q 599.534754 189.763156 601.402923 189.699417 
L 601.402923 189.969468 
z
" clip-path="url(#p3f7c4ab419)" style="fill: #0000ff"/>
   </g>
   <g id="patch_89">
    <path d="M 579.269311 186.703659 
L 601.402923 186.703659 
L 601.402923 187.095565 
L 593.43997 187.095565 
L 593.43997 188.713145 
L 587.247706 188.713145 
L 587.247706 187.095565 
L 579.269311 187.095565 
L 579.269311 186.703659 
z
" clip-path="url(#p3f7c4ab419)" style="fill: #ff0000"/>
   </g>
   <g id="patch_90">
    <path d="M 624.701461 192.076473 
Q 622.850023 192.157529 620.848016 192.198529 
Q 618.846009 192.24 616.665549 192.24 
Q 610.163208 192.24 606.365529 191.932738 
Q 602.56785 191.625477 602.56785 191.100022 
Q 602.56785 190.572682 606.365529 190.265892 
Q 610.163208 189.95863 616.665549 189.95863 
Q 618.846009 189.95863 620.848016 190.000101 
Q 622.850023 190.041101 624.701461 190.122157 
L 624.701461 190.576923 
Q 622.833293 190.469476 621.020891 190.419523 
Q 619.208489 190.369569 617.206482 190.369569 
Q 613.615137 190.369569 611.557364 190.564199 
Q 609.505167 190.758358 609.505167 191.100022 
Q 609.505167 191.440272 611.557364 191.634902 
Q 613.615137 191.829061 617.206482 191.829061 
Q 619.208489 191.829061 621.020891 191.779108 
Q 622.833293 191.728683 624.701461 191.621236 
L 624.701461 192.076473 
z
" clip-path="url(#p3f7c4ab419)" style="fill: #0000ff"/>
   </g>
   <g id="patch_91">
    <path d="M 624.701461 189.674327 
Q 622.46925 189.816479 620.068384 189.887879 
Q 617.667517 189.95863 615.107915 189.95863 
Q 609.324008 189.95863 605.945929 189.535421 
Q 602.56785 189.112212 602.56785 188.388472 
Q 602.56785 187.656294 606.005455 187.23633 
Q 609.44802 186.816366 615.435306 186.816366 
Q 617.741924 186.816366 619.855083 186.873487 
Q 621.973204 186.929958 623.848261 187.041602 
L 623.848261 187.667978 
Q 621.913678 187.524528 619.998937 187.453777 
Q 618.084196 187.382376 616.159534 187.382376 
Q 612.597918 187.382376 610.668295 187.643312 
Q 608.738673 187.903599 608.738673 188.388472 
Q 608.738673 188.868801 610.598849 189.131035 
Q 612.459024 189.39262 615.881748 189.39262 
Q 616.814316 189.39262 617.612951 189.377691 
Q 618.411587 189.362113 619.046527 189.329658 
L 619.046527 188.741579 
L 615.400582 188.741579 
L 615.400582 188.21776 
L 624.701461 188.21776 
L 624.701461 189.674327 
z
" clip-path="url(#p3f7c4ab419)" style="fill: #ffa600"/>
   </g>
   <g id="patch_92">
    <path d="M 617.899822 185.428437 
L 609.387591 185.428437 
L 608.043554 186.816366 
L 602.56785 186.816366 
L 610.387699 179.197452 
L 616.881612 179.197452 
L 624.701461 186.816366 
L 619.230282 186.816366 
L 617.899822 185.428437 
z
M 610.745203 184.014382 
L 616.528633 184.014382 
L 613.641444 180.983798 
L 610.745203 184.014382 
z
" clip-path="url(#p3f7c4ab419)" style="fill: #008000"/>
   </g>
   <g id="patch_93">
    <path d="M 602.56785 168.995855 
L 624.701461 168.995855 
L 624.701461 170.985451 
L 616.738509 170.985451 
L 616.738509 179.197452 
L 610.546245 179.197452 
L 610.546245 170.985451 
L 602.56785 170.985451 
L 602.56785 168.995855 
z
" clip-path="url(#p3f7c4ab419)" style="fill: #ff0000"/>
   </g>
   <g id="patch_94">
    <path d="M 648 192.12336 
Q 646.148562 192.181176 644.146554 192.21042 
Q 642.144547 192.24 639.964088 192.24 
Q 633.461747 192.24 629.664068 192.020837 
Q 625.866388 191.801674 625.866388 191.426878 
Q 625.866388 191.050738 629.664068 190.831911 
Q 633.461747 190.612748 639.964088 190.612748 
Q 642.144547 190.612748 644.146554 190.642328 
Q 646.148562 190.671573 648 190.729389 
L 648 191.053763 
Q 646.131832 190.977123 644.31943 190.941493 
Q 642.507028 190.905862 640.50502 190.905862 
Q 636.913676 190.905862 634.855903 191.044687 
Q 632.803706 191.183177 632.803706 191.426878 
Q 632.803706 191.669571 634.855903 191.808397 
Q 636.913676 191.946886 640.50502 191.946886 
Q 642.507028 191.946886 644.31943 191.911255 
Q 646.131832 191.875289 648 191.798649 
L 648 192.12336 
z
" clip-path="url(#p3f7c4ab419)" style="fill: #0000ff"/>
   </g>
   <g id="patch_95">
    <path d="M 648 190.45859 
Q 645.767789 190.535669 643.366922 190.574385 
Q 640.966055 190.612748 638.406453 190.612748 
Q 632.622547 190.612748 629.244468 190.383271 
Q 625.866388 190.153795 625.866388 189.761362 
Q 625.866388 189.364353 629.303993 189.136636 
Q 632.746559 188.90892 638.733844 188.90892 
Q 641.040462 188.90892 643.153622 188.939892 
Q 645.271742 188.970512 647.146799 189.031049 
L 647.146799 189.370688 
Q 645.212217 189.292906 643.297476 189.254542 
Q 641.382735 189.215827 639.458073 189.215827 
Q 635.896456 189.215827 633.966834 189.357314 
Q 632.037211 189.498449 632.037211 189.761362 
Q 632.037211 190.021811 633.897387 190.164002 
Q 635.757563 190.305841 639.180287 190.305841 
Q 640.112855 190.305841 640.91149 190.297746 
Q 641.710126 190.289299 642.345066 190.271701 
L 642.345066 189.952827 
L 638.699121 189.952827 
L 638.699121 189.668797 
L 648 189.668797 
L 648 190.45859 
z
" clip-path="url(#p3f7c4ab419)" style="fill: #ffa600"/>
   </g>
   <g id="patch_96">
    <path d="M 641.198361 188.361387 
L 632.686129 188.361387 
L 631.342093 188.90892 
L 625.866388 188.90892 
L 633.686237 185.90329 
L 640.180151 185.90329 
L 648 188.90892 
L 642.528821 188.90892 
L 641.198361 188.361387 
z
M 634.043742 187.803549 
L 639.827172 187.803549 
L 636.939982 186.607996 
L 634.043742 187.803549 
z
" clip-path="url(#p3f7c4ab419)" style="fill: #008000"/>
   </g>
   <g id="patch_97">
    <path d="M 625.866388 181.902164 
L 648 181.902164 
L 648 182.682495 
L 640.037047 182.682495 
L 640.037047 185.90329 
L 633.844783 185.90329 
L 633.844783 182.682495 
L 625.866388 182.682495 
L 625.866388 181.902164 
z
" clip-path="url(#p3f7c4ab419)" style="fill: #ff0000"/>
   </g>
   <g id="matplotlib.axis_1">
    <g id="xtick_1">
     <g id="line2d_2">
      <defs>
       <path id="m6ba352e1d7" d="M 0 0 
L 0 3.5 
" style="stroke: #000000; stroke-width: 0.8"/>
      </defs>
      <g>
       <use xlink:href="#m6ba352e1d7" x="101.066806" y="192.24" style="stroke: #000000; stroke-width: 0.8"/>
      </g>
     </g>
     <g id="text_1">
      <!-- 0 -->
      <g transform="translate(97.885556 206.838437) scale(0.1 -0.1)">
       <defs>
        <path id="DejaVuSans-30" d="M 2034 4250 
Q 1547 4250 1301 3770 
Q 1056 3291 1056 2328 
Q 1056 1369 1301 889 
Q 1547 409 2034 409 
Q 2525 409 2770 889 
Q 3016 1369 3016 2328 
Q 3016 3291 2770 3770 
Q 2525 4250 2034 4250 
z
M 2034 4750 
Q 2819 4750 3233 4129 
Q 3647 3509 3647 2328 
Q 3647 1150 3233 529 
Q 2819 -91 2034 -91 
Q 1250 -91 836 529 
Q 422 1150 422 2328 
Q 422 3509 836 4129 
Q 1250 4750 2034 4750 
z
" transform="scale(0.015625)"/>
       </defs>
       <use xlink:href="#DejaVuSans-30"/>
      </g>
     </g>
    </g>
    <g id="xtick_2">
     <g id="line2d_3">
      <g>
       <use xlink:href="#m6ba352e1d7" x="217.559499" y="192.24" style="stroke: #000000; stroke-width: 0.8"/>
      </g>
     </g>
     <g id="text_2">
      <!-- 5 -->
      <g transform="translate(214.378249 206.838437) scale(0.1 -0.1)">
       <defs>
        <path id="DejaVuSans-35" d="M 691 4666 
L 3169 4666 
L 3169 4134 
L 1269 4134 
L 1269 2991 
Q 1406 3038 1543 3061 
Q 1681 3084 1819 3084 
Q 2600 3084 3056 2656 
Q 3513 2228 3513 1497 
Q 3513 744 3044 326 
Q 2575 -91 1722 -91 
Q 1428 -91 1123 -41 
Q 819 9 494 109 
L 494 744 
Q 775 591 1075 516 
Q 1375 441 1709 441 
Q 2250 441 2565 725 
Q 2881 1009 2881 1497 
Q 2881 1984 2565 2268 
Q 2250 2553 1709 2553 
Q 1456 2553 1204 2497 
Q 953 2441 691 2322 
L 691 4666 
z
" transform="scale(0.015625)"/>
       </defs>
       <use xlink:href="#DejaVuSans-35"/>
      </g>
     </g>
    </g>
    <g id="xtick_3">
     <g id="line2d_4">
      <g>
       <use xlink:href="#m6ba352e1d7" x="334.052192" y="192.24" style="stroke: #000000; stroke-width: 0.8"/>
      </g>
     </g>
     <g id="text_3">
      <!-- 10 -->
      <g transform="translate(327.689692 206.838437) scale(0.1 -0.1)">
       <defs>
        <path id="DejaVuSans-31" d="M 794 531 
L 1825 531 
L 1825 4091 
L 703 3866 
L 703 4441 
L 1819 4666 
L 2450 4666 
L 2450 531 
L 3481 531 
L 3481 0 
L 794 0 
L 794 531 
z
" transform="scale(0.015625)"/>
       </defs>
       <use xlink:href="#DejaVuSans-31"/>
       <use xlink:href="#DejaVuSans-30" x="63.623047"/>
      </g>
     </g>
    </g>
    <g id="xtick_4">
     <g id="line2d_5">
      <g>
       <use xlink:href="#m6ba352e1d7" x="450.544885" y="192.24" style="stroke: #000000; stroke-width: 0.8"/>
      </g>
     </g>
     <g id="text_4">
      <!-- 15 -->
      <g transform="translate(444.182385 206.838437) scale(0.1 -0.1)">
       <use xlink:href="#DejaVuSans-31"/>
       <use xlink:href="#DejaVuSans-35" x="63.623047"/>
      </g>
     </g>
    </g>
    <g id="xtick_5">
     <g id="line2d_6">
      <g>
       <use xlink:href="#m6ba352e1d7" x="567.037578" y="192.24" style="stroke: #000000; stroke-width: 0.8"/>
      </g>
     </g>
     <g id="text_5">
      <!-- 20 -->
      <g transform="translate(560.675078 206.838437) scale(0.1 -0.1)">
       <defs>
        <path id="DejaVuSans-32" d="M 1228 531 
L 3431 531 
L 3431 0 
L 469 0 
L 469 531 
Q 828 903 1448 1529 
Q 2069 2156 2228 2338 
Q 2531 2678 2651 2914 
Q 2772 3150 2772 3378 
Q 2772 3750 2511 3984 
Q 2250 4219 1831 4219 
Q 1534 4219 1204 4116 
Q 875 4013 500 3803 
L 500 4441 
Q 881 4594 1212 4672 
Q 1544 4750 1819 4750 
Q 2544 4750 2975 4387 
Q 3406 4025 3406 3419 
Q 3406 3131 3298 2873 
Q 3191 2616 2906 2266 
Q 2828 2175 2409 1742 
Q 1991 1309 1228 531 
z
" transform="scale(0.015625)"/>
       </defs>
       <use xlink:href="#DejaVuSans-32"/>
       <use xlink:href="#DejaVuSans-30" x="63.623047"/>
      </g>
     </g>
    </g>
   </g>
   <g id="matplotlib.axis_2">
    <g id="ytick_1">
     <g id="line2d_7">
      <defs>
       <path id="mc04199ab9a" d="M 0 0 
L -3.5 0 
" style="stroke: #000000; stroke-width: 0.8"/>
      </defs>
      <g>
       <use xlink:href="#mc04199ab9a" x="90" y="192.24" style="stroke: #000000; stroke-width: 0.8"/>
      </g>
     </g>
     <g id="text_6">
      <!-- 0.00 -->
      <g transform="translate(60.734375 196.039219) scale(0.1 -0.1)">
       <defs>
        <path id="DejaVuSans-2e" d="M 684 794 
L 1344 794 
L 1344 0 
L 684 0 
L 684 794 
z
" transform="scale(0.015625)"/>
       </defs>
       <use xlink:href="#DejaVuSans-30"/>
       <use xlink:href="#DejaVuSans-2e" x="63.623047"/>
       <use xlink:href="#DejaVuSans-30" x="95.410156"/>
       <use xlink:href="#DejaVuSans-30" x="159.033203"/>
      </g>
     </g>
    </g>
    <g id="ytick_2">
     <g id="line2d_8">
      <g>
       <use xlink:href="#mc04199ab9a" x="90" y="167.207394" style="stroke: #000000; stroke-width: 0.8"/>
      </g>
     </g>
     <g id="text_7">
      <!-- 0.25 -->
      <g transform="translate(60.734375 171.006612) scale(0.1 -0.1)">
       <use xlink:href="#DejaVuSans-30"/>
       <use xlink:href="#DejaVuSans-2e" x="63.623047"/>
       <use xlink:href="#DejaVuSans-32" x="95.410156"/>
       <use xlink:href="#DejaVuSans-35" x="159.033203"/>
      </g>
     </g>
    </g>
    <g id="ytick_3">
     <g id="line2d_9">
      <g>
       <use xlink:href="#mc04199ab9a" x="90" y="142.174787" style="stroke: #000000; stroke-width: 0.8"/>
      </g>
     </g>
     <g id="text_8">
      <!-- 0.50 -->
      <g transform="translate(60.734375 145.974006) scale(0.1 -0.1)">
       <use xlink:href="#DejaVuSans-30"/>
       <use xlink:href="#DejaVuSans-2e" x="63.623047"/>
       <use xlink:href="#DejaVuSans-35" x="95.410156"/>
       <use xlink:href="#DejaVuSans-30" x="159.033203"/>
      </g>
     </g>
    </g>
    <g id="ytick_4">
     <g id="line2d_10">
      <g>
       <use xlink:href="#mc04199ab9a" x="90" y="117.142181" style="stroke: #000000; stroke-width: 0.8"/>
      </g>
     </g>
     <g id="text_9">
      <!-- 0.75 -->
      <g transform="translate(60.734375 120.9414) scale(0.1 -0.1)">
       <defs>
        <path id="DejaVuSans-37" d="M 525 4666 
L 3525 4666 
L 3525 4397 
L 1831 0 
L 1172 0 
L 2766 4134 
L 525 4134 
L 525 4666 
z
" transform="scale(0.015625)"/>
       </defs>
       <use xlink:href="#DejaVuSans-30"/>
       <use xlink:href="#DejaVuSans-2e" x="63.623047"/>
       <use xlink:href="#DejaVuSans-37" x="95.410156"/>
       <use xlink:href="#DejaVuSans-35" x="159.033203"/>
      </g>
     </g>
    </g>
    <g id="ytick_5">
     <g id="line2d_11">
      <g>
       <use xlink:href="#mc04199ab9a" x="90" y="92.109575" style="stroke: #000000; stroke-width: 0.8"/>
      </g>
     </g>
     <g id="text_10">
      <!-- 1.00 -->
      <g transform="translate(60.734375 95.908793) scale(0.1 -0.1)">
       <use xlink:href="#DejaVuSans-31"/>
       <use xlink:href="#DejaVuSans-2e" x="63.623047"/>
       <use xlink:href="#DejaVuSans-30" x="95.410156"/>
       <use xlink:href="#DejaVuSans-30" x="159.033203"/>
      </g>
     </g>
    </g>
    <g id="ytick_6">
     <g id="line2d_12">
      <g>
       <use xlink:href="#mc04199ab9a" x="90" y="67.076968" style="stroke: #000000; stroke-width: 0.8"/>
      </g>
     </g>
     <g id="text_11">
      <!-- 1.25 -->
      <g transform="translate(60.734375 70.876187) scale(0.1 -0.1)">
       <use xlink:href="#DejaVuSans-31"/>
       <use xlink:href="#DejaVuSans-2e" x="63.623047"/>
       <use xlink:href="#DejaVuSans-32" x="95.410156"/>
       <use xlink:href="#DejaVuSans-35" x="159.033203"/>
      </g>
     </g>
    </g>
    <g id="ytick_7">
     <g id="line2d_13">
      <g>
       <use xlink:href="#mc04199ab9a" x="90" y="42.044362" style="stroke: #000000; stroke-width: 0.8"/>
      </g>
     </g>
     <g id="text_12">
      <!-- 1.50 -->
      <g transform="translate(60.734375 45.843581) scale(0.1 -0.1)">
       <use xlink:href="#DejaVuSans-31"/>
       <use xlink:href="#DejaVuSans-2e" x="63.623047"/>
       <use xlink:href="#DejaVuSans-35" x="95.410156"/>
       <use xlink:href="#DejaVuSans-30" x="159.033203"/>
      </g>
     </g>
    </g>
   </g>
  </g>
 </g>
 <defs>
  <clipPath id="p3f7c4ab419">
   <rect x="90" y="25.92" width="558" height="166.32"/>
  </clipPath>
 </defs>
</svg>
