<?xml version="1.0" encoding="utf-8" standalone="no"?>
<!DOCTYPE svg PUBLIC "-//W3C//DTD SVG 1.1//EN"
  "http://www.w3.org/Graphics/SVG/1.1/DTD/svg11.dtd">
<svg xmlns:xlink="http://www.w3.org/1999/xlink" width="720pt" height="216pt" viewBox="0 0 720 216" xmlns="http://www.w3.org/2000/svg" version="1.1">
 <metadata>
  <rdf:RDF xmlns:dc="http://purl.org/dc/elements/1.1/" xmlns:cc="http://creativecommons.org/ns#" xmlns:rdf="http://www.w3.org/1999/02/22-rdf-syntax-ns#">
   <cc:Work>
    <dc:type rdf:resource="http://purl.org/dc/dcmitype/StillImage"/>
    <dc:date>2025-12-17T10:22:55.017476</dc:date>
    <dc:format>image/svg+xml</dc:format>
    <dc:creator>
     <cc:Agent>
      <dc:title>Matplotlib v3.8.2, https://matplotlib.org/</dc:title>
     </cc:Agent>
    </dc:creator>
   </cc:Work>
  </rdf:RDF>
 </metadata>
 <defs>
  <style type="text/css">*{stroke-linejoin: round; stroke-linecap: butt}</style>
 </defs>
 <g id="figure_1">
  <g id="patch_1">
   <path d="M 0 216 
L 720 216 
L 720 0 
L 0 0 
z
" style="fill: #ffffff"/>
  </g>
  <g id="axes_1">
   <g id="patch_2">
    <path d="M 90 192.24 
L 648 192.24 
L 648 25.92 
L 90 25.92 
z
" style="fill: #ffffff"/>
   </g>
   <g id="line2d_1">
    <path d="M 90 192.24 
L 648 192.24 
" clip-path="url(#p4acca6ae00)" style="fill: none; stroke: #000000; stroke-width: 0.5; stroke-linecap: square"/>
   </g>
   <g id="patch_3">
    <path d="M 112.133612 192.092771 
Q 109.901401 192.166385 107.500534 192.203361 
Q 105.099667 192.24 102.540065 192.24 
Q 96.756158 192.24 93.378079 192.020837 
Q 90 191.801674 90 191.426878 
Q 90 191.047713 93.437605 190.83023 
Q 96.88017 190.612748 102.867456 190.612748 
Q 105.174074 190.612748 107.287234 190.642328 
Q 109.405354 190.671573 111.280411 190.729389 
L 111.280411 191.053763 
Q 109.345828 190.979476 107.431087 190.942837 
Q 105.516346 190.905862 103.591684 190.905862 
Q 100.030068 190.905862 98.100446 191.04099 
Q 96.170823 191.175782 96.170823 191.426878 
Q 96.170823 191.675622 98.030999 191.811422 
Q 99.891175 191.946886 103.313898 191.946886 
Q 104.246466 191.946886 105.045102 191.939155 
Q 105.843737 191.931088 106.478677 191.914281 
L 106.478677 191.609738 
L 102.832733 191.609738 
L 102.832733 191.338474 
L 112.133612 191.338474 
L 112.133612 192.092771 
z
" clip-path="url(#p4acca6ae00)" style="fill: #ffa600"/>
   </g>
   <g id="patch_4">
    <path d="M 112.133612 190.490619 
Q 110.282173 190.551155 108.280166 190.581776 
Q 106.278159 190.612748 104.0977 190.612748 
Q 97.595359 190.612748 93.797679 190.383271 
Q 90 190.153795 90 189.761362 
Q 90 189.367521 93.797679 189.138396 
Q 97.595359 188.90892 104.0977 188.90892 
Q 106.278159 188.90892 108.280166 188.939892 
Q 110.282173 188.970512 112.133612 189.031049 
L 112.133612 189.370688 
Q 110.265443 189.290442 108.453041 189.253134 
Q 106.640639 189.215827 104.638632 189.215827 
Q 101.047288 189.215827 98.989514 189.361186 
Q 96.937317 189.506192 96.937317 189.761362 
Q 96.937317 190.015475 98.989514 190.160834 
Q 101.047288 190.305841 104.638632 190.305841 
Q 106.640639 190.305841 108.453041 190.268533 
Q 110.265443 190.230874 112.133612 190.150627 
L 112.133612 190.490619 
z
" clip-path="url(#p4acca6ae00)" style="fill: #0000ff"/>
   </g>
   <g id="patch_5">
    <path d="M 90 185.90329 
L 112.133612 185.90329 
L 112.133612 186.489471 
L 104.170659 186.489471 
L 104.170659 188.90892 
L 97.978395 188.90892 
L 97.978395 186.489471 
L 90 186.489471 
L 90 185.90329 
z
" clip-path="url(#p4acca6ae00)" style="fill: #ff0000"/>
   </g>
   <g id="patch_6">
    <path d="M 105.331972 185.174409 
L 96.819741 185.174409 
L 95.475704 185.90329 
L 90 185.90329 
L 97.819849 181.902164 
L 104.313763 181.902164 
L 112.133612 185.90329 
L 106.662433 185.90329 
L 105.331972 185.174409 
z
M 98.177354 184.431808 
L 103.960783 184.431808 
L 101.073594 182.840276 
L 98.177354 184.431808 
z
" clip-path="url(#p4acca6ae00)" style="fill: #008000"/>
   </g>
   <g id="patch_7">
    <path d="M 135.43215 192.033588 
Q 133.199939 192.136794 130.799072 192.188633 
Q 128.398206 192.24 125.838604 192.24 
Q 120.054697 192.24 116.676618 191.932738 
Q 113.298539 191.625477 113.298539 191.100022 
Q 113.298539 190.568441 116.736143 190.263535 
Q 120.178709 189.95863 126.165995 189.95863 
Q 128.472613 189.95863 130.585772 190.000101 
Q 132.703892 190.041101 134.57895 190.122157 
L 134.57895 190.576923 
Q 132.644367 190.472775 130.729626 190.421408 
Q 128.814885 190.369569 126.890223 190.369569 
Q 123.328606 190.369569 121.398984 190.559016 
Q 119.469362 190.747991 119.469362 191.100022 
Q 119.469362 191.448754 121.329538 191.639143 
Q 123.189713 191.829061 126.612437 191.829061 
Q 127.545005 191.829061 128.34364 191.818222 
Q 129.142276 191.806912 129.777216 191.783349 
L 129.777216 191.356387 
L 126.131271 191.356387 
L 126.131271 190.976081 
L 135.43215 190.976081 
L 135.43215 192.033588 
z
" clip-path="url(#p4acca6ae00)" style="fill: #ffa600"/>
   </g>
   <g id="patch_8">
    <path d="M 135.43215 189.733395 
Q 133.580712 189.845039 131.578705 189.90151 
Q 129.576697 189.95863 127.396238 189.95863 
Q 120.893897 189.95863 117.096218 189.535421 
Q 113.298539 189.112212 113.298539 188.388472 
Q 113.298539 187.662136 117.096218 187.239576 
Q 120.893897 186.816366 127.396238 186.816366 
Q 129.576697 186.816366 131.578705 186.873487 
Q 133.580712 186.929958 135.43215 187.041602 
L 135.43215 187.667978 
Q 133.563982 187.519984 131.75158 187.45118 
Q 129.939178 187.382376 127.937171 187.382376 
Q 124.345826 187.382376 122.288053 187.650452 
Q 120.235856 187.917879 120.235856 188.388472 
Q 120.235856 188.857118 122.288053 189.125194 
Q 124.345826 189.39262 127.937171 189.39262 
Q 129.939178 189.39262 131.75158 189.323816 
Q 133.563982 189.254363 135.43215 189.10637 
L 135.43215 189.733395 
z
" clip-path="url(#p4acca6ae00)" style="fill: #0000ff"/>
   </g>
   <g id="patch_9">
    <path d="M 113.298539 179.197452 
L 135.43215 179.197452 
L 135.43215 180.683353 
L 127.469197 180.683353 
L 127.469197 186.816366 
L 121.276934 186.816366 
L 121.276934 180.683353 
L 113.298539 180.683353 
L 113.298539 179.197452 
z
" clip-path="url(#p4acca6ae00)" style="fill: #ff0000"/>
   </g>
   <g id="patch_10">
    <path d="M 128.630511 177.339039 
L 120.11828 177.339039 
L 118.774243 179.197452 
L 113.298539 179.197452 
L 121.118388 168.995855 
L 127.612301 168.995855 
L 135.43215 179.197452 
L 129.960971 179.197452 
L 128.630511 177.339039 
z
M 121.475892 175.445643 
L 127.259322 175.445643 
L 124.372133 171.387743 
L 121.475892 175.445643 
z
" clip-path="url(#p4acca6ae00)" style="fill: #008000"/>
   </g>
   <g id="patch_11">
    <path d="M 136.597077 191.296771 
L 158.730689 191.296771 
L 158.730689 191.480727 
L 150.767736 191.480727 
L 150.767736 192.24 
L 144.575472 192.24 
L 144.575472 191.480727 
L 136.597077 191.480727 
L 136.597077 191.296771 
z
" clip-path="url(#p4acca6ae00)" style="fill: #ff0000"/>
   </g>
   <g id="patch_12">
    <path d="M 158.730689 191.208584 
Q 156.879251 191.252297 154.877243 191.274407 
Q 152.875236 191.296771 150.694777 191.296771 
Q 144.192436 191.296771 140.394757 191.131071 
Q 136.597077 190.965371 136.597077 190.682004 
Q 136.597077 190.397619 140.394757 190.232174 
Q 144.192436 190.066473 150.694777 190.066473 
Q 152.875236 190.066473 154.877243 190.088838 
Q 156.879251 190.110948 158.730689 190.15466 
L 158.730689 190.399907 
Q 156.862521 190.341963 155.050119 190.315024 
Q 153.237717 190.288085 151.235709 190.288085 
Q 147.644365 190.288085 145.586591 190.393045 
Q 143.534395 190.497751 143.534395 190.682004 
Q 143.534395 190.865494 145.586591 190.970454 
Q 147.644365 191.07516 151.235709 191.07516 
Q 153.237717 191.07516 155.050119 191.048221 
Q 156.862521 191.021028 158.730689 190.963084 
L 158.730689 191.208584 
z
" clip-path="url(#p4acca6ae00)" style="fill: #0000ff"/>
   </g>
   <g id="patch_13">
    <path d="M 158.730689 189.944028 
Q 156.498478 190.005251 154.097611 190.036002 
Q 151.696744 190.066473 149.137142 190.066473 
Q 143.353236 190.066473 139.975156 189.884203 
Q 136.597077 189.701933 136.597077 189.390229 
Q 136.597077 189.07489 140.034682 188.894018 
Q 143.477247 188.713145 149.464533 188.713145 
Q 151.771151 188.713145 153.884311 188.737746 
Q 156.002431 188.762068 157.877488 188.810151 
L 157.877488 189.079922 
Q 155.942905 189.01814 154.028165 188.987669 
Q 152.113424 188.956918 150.188762 188.956918 
Q 146.627145 188.956918 144.697523 189.069299 
Q 142.7679 189.181401 142.7679 189.390229 
Q 142.7679 189.5971 144.628076 189.71004 
Q 146.488252 189.822701 149.910975 189.822701 
Q 150.843544 189.822701 151.642179 189.816271 
Q 152.440815 189.809562 153.075755 189.795584 
L 153.075755 189.542307 
L 149.42981 189.542307 
L 149.42981 189.316706 
L 158.730689 189.316706 
L 158.730689 189.944028 
z
" clip-path="url(#p4acca6ae00)" style="fill: #ffa600"/>
   </g>
   <g id="patch_14">
    <path d="M 151.92905 188.347079 
L 143.416818 188.347079 
L 142.072782 188.713145 
L 136.597077 188.713145 
L 144.416926 186.703659 
L 150.91084 186.703659 
L 158.730689 188.713145 
L 153.25951 188.713145 
L 151.92905 188.347079 
z
M 144.774431 187.974123 
L 150.557861 187.974123 
L 147.670671 187.174807 
L 144.774431 187.974123 
z
" clip-path="url(#p4acca6ae00)" style="fill: #008000"/>
   </g>
   <g id="patch_15">
    <path d="M 159.895616 190.748006 
L 182.029228 190.748006 
L 182.029228 191.038986 
L 174.066275 191.038986 
L 174.066275 192.24 
L 167.874011 192.24 
L 167.874011 191.038986 
L 159.895616 191.038986 
L 159.895616 190.748006 
z
" clip-path="url(#p4acca6ae00)" style="fill: #ff0000"/>
   </g>
   <g id="patch_16">
    <path d="M 182.029228 190.561589 
Q 179.797017 190.654798 177.39615 190.701615 
Q 174.995283 190.748006 172.435681 190.748006 
Q 166.651774 190.748006 163.273695 190.470509 
Q 159.895616 190.193012 159.895616 189.718458 
Q 159.895616 189.238371 163.333221 188.963002 
Q 166.775786 188.687633 172.763072 188.687633 
Q 175.06969 188.687633 177.18285 188.725087 
Q 179.30097 188.762115 181.176027 188.835319 
L 181.176027 189.246032 
Q 179.241444 189.151972 177.326703 189.105581 
Q 175.411962 189.058764 173.4873 189.058764 
Q 169.925684 189.058764 167.996061 189.229859 
Q 166.066439 189.400528 166.066439 189.718458 
Q 166.066439 190.033409 167.926615 190.205355 
Q 169.786791 190.376875 173.209514 190.376875 
Q 174.142082 190.376875 174.940718 190.367086 
Q 175.739353 190.356871 176.374293 190.335591 
L 176.374293 189.949989 
L 172.728349 189.949989 
L 172.728349 189.606523 
L 182.029228 189.606523 
L 182.029228 190.561589 
z
" clip-path="url(#p4acca6ae00)" style="fill: #ffa600"/>
   </g>
   <g id="patch_17">
    <path d="M 182.029228 188.534854 
Q 180.177789 188.610583 178.175782 188.648888 
Q 176.173775 188.687633 173.993316 188.687633 
Q 167.490975 188.687633 163.693295 188.400567 
Q 159.895616 188.113501 159.895616 187.622584 
Q 159.895616 187.129904 163.693295 186.843279 
Q 167.490975 186.556213 173.993316 186.556213 
Q 176.173775 186.556213 178.175782 186.594958 
Q 180.177789 186.633263 182.029228 186.708992 
L 182.029228 187.133867 
Q 180.161059 187.033482 178.348657 186.986812 
Q 176.536255 186.940142 174.534248 186.940142 
Q 170.942904 186.940142 168.88513 187.121979 
Q 166.832933 187.303377 166.832933 187.622584 
Q 166.832933 187.940469 168.88513 188.122307 
Q 170.942904 188.303705 174.534248 188.303705 
Q 176.536255 188.303705 178.348657 188.257034 
Q 180.161059 188.209924 182.029228 188.109539 
L 182.029228 188.534854 
z
" clip-path="url(#p4acca6ae00)" style="fill: #0000ff"/>
   </g>
   <g id="patch_18">
    <path d="M 175.227588 185.844369 
L 166.715357 185.844369 
L 165.37132 186.556213 
L 159.895616 186.556213 
L 167.715465 182.648609 
L 174.209379 182.648609 
L 182.029228 186.556213 
L 176.558049 186.556213 
L 175.227588 185.844369 
z
M 168.072969 185.119126 
L 173.856399 185.119126 
L 170.96921 183.564794 
L 168.072969 185.119126 
z
" clip-path="url(#p4acca6ae00)" style="fill: #008000"/>
   </g>
   <g id="patch_19">
    <path d="M 183.194154 189.355101 
L 205.327766 189.355101 
L 205.327766 189.917736 
L 197.364813 189.917736 
L 197.364813 192.24 
L 191.172549 192.24 
L 191.172549 189.917736 
L 183.194154 189.917736 
L 183.194154 189.355101 
z
" clip-path="url(#p4acca6ae00)" style="fill: #ff0000"/>
   </g>
   <g id="patch_20">
    <path d="M 205.327766 188.833066 
Q 203.095555 189.094083 200.694688 189.225188 
Q 198.293821 189.355101 195.73422 189.355101 
Q 189.950313 189.355101 186.572234 188.578007 
Q 183.194154 187.800914 183.194154 186.471989 
Q 183.194154 185.12757 186.631759 184.356436 
Q 190.074325 183.585302 196.061611 183.585302 
Q 198.368228 183.585302 200.481388 183.690186 
Q 202.599508 183.793878 204.474566 183.998878 
L 204.474566 185.149023 
Q 202.539983 184.885622 200.625242 184.755709 
Q 198.710501 184.624605 196.785839 184.624605 
Q 193.224222 184.624605 191.2946 185.103733 
Q 189.364978 185.581669 189.364978 186.471989 
Q 189.364978 187.353966 191.225153 187.835478 
Q 193.085329 188.315798 196.508053 188.315798 
Q 197.440621 188.315798 198.239256 188.288385 
Q 199.037892 188.25978 199.672832 188.200187 
L 199.672832 187.120361 
L 196.026887 187.120361 
L 196.026887 186.15853 
L 205.327766 186.15853 
L 205.327766 188.833066 
z
" clip-path="url(#p4acca6ae00)" style="fill: #ffa600"/>
   </g>
   <g id="patch_21">
    <path d="M 205.327766 183.102797 
Q 203.476328 183.341964 201.474321 183.462937 
Q 199.472313 183.585302 197.291854 183.585302 
Q 190.789513 183.585302 186.991834 182.678693 
Q 183.194154 181.772084 183.194154 180.221672 
Q 183.194154 178.665697 186.991834 177.760479 
Q 190.789513 176.85387 197.291854 176.85387 
Q 199.472313 176.85387 201.474321 176.976234 
Q 203.476328 177.097208 205.327766 177.336375 
L 205.327766 178.678212 
Q 203.459598 178.361177 201.647196 178.213783 
Q 199.834794 178.06639 197.832787 178.06639 
Q 194.241442 178.06639 192.183669 178.640668 
Q 190.131472 179.213556 190.131472 180.221672 
Q 190.131472 181.225616 192.183669 181.799894 
Q 194.241442 182.372782 197.832787 182.372782 
Q 199.834794 182.372782 201.647196 182.225389 
Q 203.459598 182.076605 205.327766 181.75957 
L 205.327766 183.102797 
z
" clip-path="url(#p4acca6ae00)" style="fill: #0000ff"/>
   </g>
   <g id="patch_22">
    <path d="M 198.526127 156.007494 
L 190.013895 156.007494 
L 188.669859 176.85387 
L 183.194154 176.85387 
L 191.014003 62.419528 
L 197.507917 62.419528 
L 205.327766 176.85387 
L 199.856587 176.85387 
L 198.526127 156.007494 
z
M 191.371508 134.768715 
L 197.154938 134.768715 
L 194.267748 89.25004 
L 191.371508 134.768715 
z
" clip-path="url(#p4acca6ae00)" style="fill: #008000"/>
   </g>
   <g id="patch_23">
    <path d="M 206.492693 188.523943 
L 228.626305 188.523943 
L 228.626305 189.248678 
L 220.663352 189.248678 
L 220.663352 192.24 
L 214.471088 192.24 
L 214.471088 189.248678 
L 206.492693 189.248678 
L 206.492693 188.523943 
z
" clip-path="url(#p4acca6ae00)" style="fill: #ff0000"/>
   </g>
   <g id="patch_24">
    <path d="M 228.626305 188.219527 
Q 226.774866 188.370419 224.772859 188.446743 
Q 222.770852 188.523943 220.590393 188.523943 
Q 214.088052 188.523943 210.290373 187.951956 
Q 206.492693 187.379968 206.492693 186.401799 
Q 206.492693 185.42012 210.290373 184.84901 
Q 214.088052 184.277022 220.590393 184.277022 
Q 222.770852 184.277022 224.772859 184.354223 
Q 226.774866 184.430546 228.626305 184.581439 
L 228.626305 185.428016 
Q 226.758137 185.227995 224.945734 185.135003 
Q 223.133332 185.042012 221.131325 185.042012 
Q 217.539981 185.042012 215.482207 185.404329 
Q 213.430011 185.765769 213.430011 186.401799 
Q 213.430011 187.035196 215.482207 187.397513 
Q 217.539981 187.758954 221.131325 187.758954 
Q 223.133332 187.758954 224.945734 187.665962 
Q 226.758137 187.572093 228.626305 187.372072 
L 228.626305 188.219527 
z
" clip-path="url(#p4acca6ae00)" style="fill: #0000ff"/>
   </g>
   <g id="patch_25">
    <path d="M 228.626305 183.028211 
Q 226.394094 183.652616 223.993227 183.966245 
Q 221.59236 184.277022 219.032758 184.277022 
Q 213.248852 184.277022 209.870772 182.418061 
Q 206.492693 180.559101 206.492693 177.380051 
Q 206.492693 174.163935 209.930298 172.319231 
Q 213.372863 170.474526 219.360149 170.474526 
Q 221.666767 170.474526 223.779927 170.725429 
Q 225.898047 170.97348 227.773104 171.463881 
L 227.773104 174.215256 
Q 225.838521 173.585148 223.92378 173.274371 
Q 222.009039 172.960743 220.084378 172.960743 
Q 216.522761 172.960743 214.593139 174.106912 
Q 212.663516 175.250229 212.663516 177.380051 
Q 212.663516 179.489914 214.523692 180.641785 
Q 216.383868 181.790805 219.806591 181.790805 
Q 220.739159 181.790805 221.537795 181.725228 
Q 222.33643 181.6568 222.97137 181.514242 
L 222.97137 178.931085 
L 219.325426 178.931085 
L 219.325426 176.630194 
L 228.626305 176.630194 
L 228.626305 183.028211 
z
" clip-path="url(#p4acca6ae00)" style="fill: #ffa600"/>
   </g>
   <g id="patch_26">
    <path d="M 221.824665 161.384057 
L 213.312434 161.384057 
L 211.968397 170.474526 
L 206.492693 170.474526 
L 214.312542 120.573196 
L 220.806456 120.573196 
L 228.626305 170.474526 
L 223.155126 170.474526 
L 221.824665 161.384057 
z
M 214.670047 152.122472 
L 220.453477 152.122472 
L 217.566287 132.273165 
L 214.670047 152.122472 
z
" clip-path="url(#p4acca6ae00)" style="fill: #008000"/>
   </g>
   <g id="patch_27">
    <path d="M 251.924843 192.064347 
Q 250.073405 192.151414 248.071398 192.195454 
Q 246.069391 192.24 243.888931 192.24 
Q 237.386591 192.24 233.588911 191.909954 
Q 229.791232 191.579907 229.791232 191.015488 
Q 229.791232 190.449043 233.588911 190.119503 
Q 237.386591 189.789457 243.888931 189.789457 
Q 246.069391 189.789457 248.071398 189.834003 
Q 250.073405 189.878043 251.924843 189.96511 
L 251.924843 190.453599 
Q 250.056675 190.338184 248.244273 190.284526 
Q 246.431871 190.230868 244.429864 190.230868 
Q 240.838519 190.230868 238.780746 190.439931 
Q 236.728549 190.648488 236.728549 191.015488 
Q 236.728549 191.380968 238.780746 191.590031 
Q 240.838519 191.798588 244.429864 191.798588 
Q 246.431871 191.798588 248.244273 191.744931 
Q 250.056675 191.690766 251.924843 191.575351 
L 251.924843 192.064347 
z
" clip-path="url(#p4acca6ae00)" style="fill: #0000ff"/>
   </g>
   <g id="patch_28">
    <path d="M 229.791232 184.275734 
L 251.924843 184.275734 
L 251.924843 185.351063 
L 243.961891 185.351063 
L 243.961891 189.789457 
L 237.769627 189.789457 
L 237.769627 185.351063 
L 229.791232 185.351063 
L 229.791232 184.275734 
z
" clip-path="url(#p4acca6ae00)" style="fill: #ff0000"/>
   </g>
   <g id="patch_29">
    <path d="M 251.924843 183.000854 
Q 249.692632 183.638294 247.291766 183.958469 
Q 244.890899 184.275734 242.331297 184.275734 
Q 236.54739 184.275734 233.169311 182.377968 
Q 229.791232 180.480201 229.791232 177.234788 
Q 229.791232 173.951535 233.228837 172.068322 
Q 236.671402 170.185109 242.658688 170.185109 
Q 244.965306 170.185109 247.078465 170.44125 
Q 249.196586 170.694479 251.071643 171.195117 
L 251.071643 174.003928 
Q 249.13706 173.360666 247.222319 173.043402 
Q 245.307578 172.723226 243.382916 172.723226 
Q 239.8213 172.723226 237.891677 173.893322 
Q 235.962055 175.060506 235.962055 177.234788 
Q 235.962055 179.388694 237.822231 180.564611 
Q 239.682406 181.737617 243.10513 181.737617 
Q 244.037698 181.737617 244.836334 181.670671 
Q 245.634969 181.600815 246.269909 181.45528 
L 246.269909 178.8182 
L 242.623964 178.8182 
L 242.623964 176.469278 
L 251.924843 176.469278 
L 251.924843 183.000854 
z
" clip-path="url(#p4acca6ae00)" style="fill: #ffa600"/>
   </g>
   <g id="patch_30">
    <path d="M 245.123204 159.136394 
L 236.610973 159.136394 
L 235.266936 170.185109 
L 229.791232 170.185109 
L 237.611081 109.53416 
L 244.104995 109.53416 
L 251.924843 170.185109 
L 246.453664 170.185109 
L 245.123204 159.136394 
z
M 237.968585 147.879702 
L 243.752015 147.879702 
L 240.864826 123.754507 
L 237.968585 147.879702 
z
" clip-path="url(#p4acca6ae00)" style="fill: #008000"/>
   </g>
   <g id="patch_31">
    <path d="M 268.421743 191.813202 
L 259.909511 191.813202 
L 258.565475 192.24 
L 253.08977 192.24 
L 260.909619 189.897132 
L 267.403533 189.897132 
L 275.223382 192.24 
L 269.752203 192.24 
L 268.421743 191.813202 
z
M 261.267124 191.378371 
L 267.050554 191.378371 
L 264.163364 190.446446 
L 261.267124 191.378371 
z
" clip-path="url(#p4acca6ae00)" style="fill: #008000"/>
   </g>
   <g id="patch_32">
    <path d="M 253.08977 183.872614 
L 275.223382 183.872614 
L 275.223382 185.047562 
L 267.260429 185.047562 
L 267.260429 189.897132 
L 261.068165 189.897132 
L 261.068165 185.047562 
L 253.08977 185.047562 
L 253.08977 183.872614 
z
" clip-path="url(#p4acca6ae00)" style="fill: #ff0000"/>
   </g>
   <g id="patch_33">
    <path d="M 275.223382 182.933862 
Q 272.991171 183.403238 270.590304 183.638997 
Q 268.189437 183.872614 265.629835 183.872614 
Q 259.845929 183.872614 256.46785 182.475203 
Q 253.08977 181.077792 253.08977 178.688049 
Q 253.08977 176.270443 256.527375 174.883749 
Q 259.969941 173.497054 265.957226 173.497054 
Q 268.263844 173.497054 270.377004 173.685662 
Q 272.495124 173.872126 274.370181 174.240768 
L 274.370181 176.309022 
Q 272.435599 175.835359 270.520858 175.601743 
Q 268.606117 175.365984 266.681455 175.365984 
Q 263.119838 175.365984 261.190216 176.227577 
Q 259.260594 177.087028 259.260594 178.688049 
Q 259.260594 180.274067 261.120769 181.139947 
Q 262.980945 182.003684 266.403669 182.003684 
Q 267.336237 182.003684 268.134872 181.954389 
Q 268.933508 181.90295 269.568448 181.795787 
L 269.568448 179.853987 
L 265.922503 179.853987 
L 265.922503 178.124369 
L 275.223382 178.124369 
L 275.223382 182.933862 
z
" clip-path="url(#p4acca6ae00)" style="fill: #ffa600"/>
   </g>
   <g id="patch_34">
    <path d="M 275.223382 171.601783 
Q 273.371944 172.541226 271.369936 173.016409 
Q 269.367929 173.497054 267.18747 173.497054 
Q 260.685129 173.497054 256.88745 169.935911 
Q 253.08977 166.374768 253.08977 160.284777 
Q 253.08977 154.172938 256.88745 150.617256 
Q 260.685129 147.056113 267.18747 147.056113 
Q 269.367929 147.056113 271.369936 147.536758 
Q 273.371944 148.011942 275.223382 148.951384 
L 275.223382 154.222094 
Q 273.355214 152.976787 271.542812 152.397828 
Q 269.73041 151.818869 267.728402 151.818869 
Q 264.137058 151.818869 262.079285 154.074624 
Q 260.027088 156.324917 260.027088 160.284777 
Q 260.027088 164.228251 262.079285 166.484006 
Q 264.137058 168.734299 267.728402 168.734299 
Q 269.73041 168.734299 271.542812 168.15534 
Q 273.355214 167.570919 275.223382 166.325611 
L 275.223382 171.601783 
z
" clip-path="url(#p4acca6ae00)" style="fill: #0000ff"/>
   </g>
   <g id="patch_35">
    <path d="M 276.388309 189.993088 
L 298.521921 189.993088 
L 298.521921 190.431299 
L 290.558968 190.431299 
L 290.558968 192.24 
L 284.366704 192.24 
L 284.366704 190.431299 
L 276.388309 190.431299 
L 276.388309 189.993088 
z
" clip-path="url(#p4acca6ae00)" style="fill: #ff0000"/>
   </g>
   <g id="patch_36">
    <path d="M 298.521921 189.71699 
Q 296.670482 189.853846 294.668475 189.923069 
Q 292.666468 189.993088 290.486009 189.993088 
Q 283.983668 189.993088 280.185988 189.47431 
Q 276.388309 188.955532 276.388309 188.068358 
Q 276.388309 187.178001 280.185988 186.660018 
Q 283.983668 186.14124 290.486009 186.14124 
Q 292.666468 186.14124 294.668475 186.211259 
Q 296.670482 186.280482 298.521921 186.417338 
L 298.521921 187.185162 
Q 296.653752 187.003748 294.84135 186.919407 
Q 293.028948 186.835066 291.026941 186.835066 
Q 287.435597 186.835066 285.377823 187.163678 
Q 283.325626 187.491495 283.325626 188.068358 
Q 283.325626 188.642833 285.377823 188.971445 
Q 287.435597 189.299262 291.026941 189.299262 
Q 293.028948 189.299262 294.84135 189.214921 
Q 296.653752 189.129784 298.521921 188.948371 
L 298.521921 189.71699 
z
" clip-path="url(#p4acca6ae00)" style="fill: #0000ff"/>
   </g>
   <g id="patch_37">
    <path d="M 291.720281 183.217544 
L 283.20805 183.217544 
L 281.864013 186.14124 
L 276.388309 186.14124 
L 284.208158 170.091871 
L 290.702072 170.091871 
L 298.521921 186.14124 
L 293.050742 186.14124 
L 291.720281 183.217544 
z
M 284.565663 180.238814 
L 290.349092 180.238814 
L 287.461903 173.854839 
L 284.565663 180.238814 
z
" clip-path="url(#p4acca6ae00)" style="fill: #008000"/>
   </g>
   <g id="patch_38">
    <path d="M 298.521921 168.175097 
Q 296.28971 169.133484 293.888843 169.614866 
Q 291.487976 170.091871 288.928374 170.091871 
Q 283.144467 170.091871 279.766388 167.238591 
Q 276.388309 164.385311 276.388309 159.505852 
Q 276.388309 154.569502 279.825914 151.738103 
Q 283.268479 148.906704 289.255765 148.906704 
Q 291.562383 148.906704 293.675543 149.291809 
Q 295.793663 149.672538 297.66872 150.425244 
L 297.66872 154.648274 
Q 295.734137 153.681134 293.819396 153.204129 
Q 291.904655 152.722747 289.979993 152.722747 
Q 286.418377 152.722747 284.488754 154.481978 
Q 282.559132 156.236833 282.559132 159.505852 
Q 282.559132 162.744237 284.419308 164.51222 
Q 286.279484 166.275828 289.702207 166.275828 
Q 290.634775 166.275828 291.433411 166.175175 
Q 292.232046 166.070146 292.866986 165.851337 
L 292.866986 161.886503 
L 289.221042 161.886503 
L 289.221042 158.354912 
L 298.521921 158.354912 
L 298.521921 168.175097 
z
" clip-path="url(#p4acca6ae00)" style="fill: #ffa600"/>
   </g>
   <g id="patch_39">
    <path d="M 321.820459 191.998607 
Q 319.969021 192.11826 317.967014 192.178782 
Q 315.965006 192.24 313.784547 192.24 
Q 307.282206 192.24 303.484527 191.786431 
Q 299.686848 191.332862 299.686848 190.557204 
Q 299.686848 189.778763 303.484527 189.325889 
Q 307.282206 188.87232 313.784547 188.87232 
Q 315.965006 188.87232 317.967014 188.933538 
Q 319.969021 188.994061 321.820459 189.113714 
L 321.820459 189.785023 
Q 319.952291 189.626413 318.139889 189.552674 
Q 316.327487 189.478934 314.32548 189.478934 
Q 310.734135 189.478934 308.676362 189.766241 
Q 306.624165 190.052852 306.624165 190.557204 
Q 306.624165 191.059469 308.676362 191.346775 
Q 310.734135 191.633386 314.32548 191.633386 
Q 316.327487 191.633386 318.139889 191.559647 
Q 319.952291 191.485211 321.820459 191.326601 
L 321.820459 191.998607 
z
" clip-path="url(#p4acca6ae00)" style="fill: #0000ff"/>
   </g>
   <g id="patch_40">
    <path d="M 299.686848 181.463425 
L 321.820459 181.463425 
L 321.820459 182.908366 
L 313.857506 182.908366 
L 313.857506 188.87232 
L 307.665243 188.87232 
L 307.665243 182.908366 
L 299.686848 182.908366 
L 299.686848 181.463425 
z
" clip-path="url(#p4acca6ae00)" style="fill: #ff0000"/>
   </g>
   <g id="patch_41">
    <path d="M 321.820459 180.61027 
Q 319.588248 181.036848 317.187381 181.25111 
Q 314.786515 181.463425 312.226913 181.463425 
Q 306.443006 181.463425 303.064927 180.193432 
Q 299.686848 178.923439 299.686848 176.751596 
Q 299.686848 174.55443 303.124452 173.294176 
Q 306.567018 172.033922 312.554304 172.033922 
Q 314.860922 172.033922 316.974081 172.205332 
Q 319.092201 172.374795 320.967259 172.709823 
L 320.967259 174.589491 
Q 319.032676 174.159018 317.117935 173.946703 
Q 315.203194 173.73244 313.278532 173.73244 
Q 309.716915 173.73244 307.787293 174.515473 
Q 305.857671 175.296558 305.857671 176.751596 
Q 305.857671 178.192999 307.717847 178.979927 
Q 309.578022 179.764907 313.000746 179.764907 
Q 313.933314 179.764907 314.731949 179.720107 
Q 315.530585 179.673358 316.165525 179.575966 
L 316.165525 177.811222 
L 312.51958 177.811222 
L 312.51958 176.239313 
L 321.820459 176.239313 
L 321.820459 180.61027 
z
" clip-path="url(#p4acca6ae00)" style="fill: #ffa600"/>
   </g>
   <g id="patch_42">
    <path d="M 315.01882 159.150707 
L 306.506589 159.150707 
L 305.162552 172.033922 
L 299.686848 172.033922 
L 307.506697 101.31265 
L 314.00061 101.31265 
L 321.820459 172.033922 
L 316.34928 172.033922 
L 315.01882 159.150707 
z
M 307.864201 146.024985 
L 313.647631 146.024985 
L 310.760442 117.894106 
L 307.864201 146.024985 
z
" clip-path="url(#p4acca6ae00)" style="fill: #008000"/>
   </g>
   <g id="patch_43">
    <path d="M 322.985386 188.079723 
L 345.118998 188.079723 
L 345.118998 188.891093 
L 337.156045 188.891093 
L 337.156045 192.24 
L 330.963781 192.24 
L 330.963781 188.891093 
L 322.985386 188.891093 
L 322.985386 188.079723 
z
" clip-path="url(#p4acca6ae00)" style="fill: #ff0000"/>
   </g>
   <g id="patch_44">
    <path d="M 345.118998 187.703312 
Q 342.886787 187.891517 340.48592 187.98605 
Q 338.085053 188.079723 335.525451 188.079723 
Q 329.741545 188.079723 326.363465 187.519404 
Q 322.985386 186.959086 322.985386 186.000873 
Q 322.985386 185.031488 326.422991 184.475466 
Q 329.865556 183.919445 335.852842 183.919445 
Q 338.15946 183.919445 340.27262 183.995071 
Q 342.39074 184.069837 344.265797 184.217651 
L 344.265797 185.046957 
Q 342.331214 184.857033 340.416474 184.76336 
Q 338.501733 184.668828 336.577071 184.668828 
Q 333.015454 184.668828 331.085832 185.0143 
Q 329.156209 185.358913 329.156209 186.000873 
Q 329.156209 186.636817 331.016385 186.984008 
Q 332.876561 187.33034 336.299284 187.33034 
Q 337.231853 187.33034 338.030488 187.310574 
Q 338.829124 187.289949 339.464064 187.24698 
L 339.464064 186.468378 
L 335.818119 186.468378 
L 335.818119 185.774855 
L 345.118998 185.774855 
L 345.118998 187.703312 
z
" clip-path="url(#p4acca6ae00)" style="fill: #ffa600"/>
   </g>
   <g id="patch_45">
    <path d="M 338.317358 182.804926 
L 329.805127 182.804926 
L 328.461091 183.919445 
L 322.985386 183.919445 
L 330.805235 177.80139 
L 337.299149 177.80139 
L 345.118998 183.919445 
L 339.647819 183.919445 
L 338.317358 182.804926 
z
M 331.16274 181.669427 
L 336.94617 181.669427 
L 334.05898 179.235842 
L 331.16274 181.669427 
z
" clip-path="url(#p4acca6ae00)" style="fill: #008000"/>
   </g>
   <g id="patch_46">
    <path d="M 345.118998 176.468233 
Q 343.267559 177.129049 341.265552 177.463298 
Q 339.263545 177.80139 337.083086 177.80139 
Q 330.580745 177.80139 326.783066 175.296438 
Q 322.985386 172.791485 322.985386 168.507709 
Q 322.985386 164.208565 326.783066 161.707455 
Q 330.580745 159.202503 337.083086 159.202503 
Q 339.263545 159.202503 341.265552 159.540594 
Q 343.267559 159.874844 345.118998 160.53566 
L 345.118998 164.243143 
Q 343.25083 163.367178 341.438428 162.959931 
Q 339.626025 162.552684 337.624018 162.552684 
Q 334.032674 162.552684 331.9749 164.13941 
Q 329.922704 165.722294 329.922704 168.507709 
Q 329.922704 171.281598 331.9749 172.868324 
Q 334.032674 174.451208 337.624018 174.451208 
Q 339.626025 174.451208 341.438428 174.043961 
Q 343.25083 173.632873 345.118998 172.756908 
L 345.118998 176.468233 
z
" clip-path="url(#p4acca6ae00)" style="fill: #0000ff"/>
   </g>
   <g id="patch_47">
    <path d="M 368.417537 192.052005 
Q 366.566098 192.14519 364.564091 192.192324 
Q 362.562084 192.24 360.381625 192.24 
Q 353.879284 192.24 350.081604 191.886764 
Q 346.283925 191.533527 346.283925 190.92945 
Q 346.283925 190.323205 350.081604 189.970511 
Q 353.879284 189.617274 360.381625 189.617274 
Q 362.562084 189.617274 364.564091 189.66495 
Q 366.566098 189.712085 368.417537 189.80527 
L 368.417537 190.328081 
Q 366.549368 190.204557 364.736966 190.147129 
Q 362.924564 190.089701 360.922557 190.089701 
Q 357.331213 190.089701 355.273439 190.313453 
Q 353.221242 190.536664 353.221242 190.92945 
Q 353.221242 191.32061 355.273439 191.544363 
Q 357.331213 191.767573 360.922557 191.767573 
Q 362.924564 191.767573 364.736966 191.710145 
Q 366.549368 191.652176 368.417537 191.528651 
L 368.417537 192.052005 
z
" clip-path="url(#p4acca6ae00)" style="fill: #0000ff"/>
   </g>
   <g id="patch_48">
    <path d="M 361.615897 188.820976 
L 353.103666 188.820976 
L 351.759629 189.617274 
L 346.283925 189.617274 
L 354.103774 185.246065 
L 360.597688 185.246065 
L 368.417537 189.617274 
L 362.946358 189.617274 
L 361.615897 188.820976 
z
M 354.461278 188.009688 
L 360.244708 188.009688 
L 357.357519 186.270948 
L 354.461278 188.009688 
z
" clip-path="url(#p4acca6ae00)" style="fill: #008000"/>
   </g>
   <g id="patch_49">
    <path d="M 346.283925 174.172334 
L 368.417537 174.172334 
L 368.417537 176.33202 
L 360.454584 176.33202 
L 360.454584 185.246065 
L 354.26232 185.246065 
L 354.26232 176.33202 
L 346.283925 176.33202 
L 346.283925 174.172334 
z
" clip-path="url(#p4acca6ae00)" style="fill: #ff0000"/>
   </g>
   <g id="patch_50">
    <path d="M 368.417537 172.247593 
Q 366.185326 173.209964 363.784459 173.693346 
Q 361.383592 174.172334 358.82399 174.172334 
Q 353.040083 174.172334 349.662004 171.307195 
Q 346.283925 168.442055 346.283925 163.542316 
Q 346.283925 158.585449 349.72153 155.742282 
Q 353.164095 152.899114 359.151381 152.899114 
Q 361.457999 152.899114 363.571159 153.28582 
Q 365.689279 153.668132 367.564336 154.423966 
L 367.564336 158.664548 
Q 365.629753 157.693389 363.715012 157.214401 
Q 361.800271 156.731018 359.875609 156.731018 
Q 356.313993 156.731018 354.38437 158.497561 
Q 352.454748 160.25971 352.454748 163.542316 
Q 352.454748 166.794161 354.314924 168.569493 
Q 356.1751 170.34043 359.597823 170.34043 
Q 360.530391 170.34043 361.329027 170.239359 
Q 362.127662 170.133894 362.762602 169.914175 
L 362.762602 165.932861 
L 359.116658 165.932861 
L 359.116658 162.386592 
L 368.417537 162.386592 
L 368.417537 172.247593 
z
" clip-path="url(#p4acca6ae00)" style="fill: #ffa600"/>
   </g>
   <g id="patch_51">
    <path d="M 384.914436 191.470537 
L 376.402204 191.470537 
L 375.058168 192.24 
L 369.582463 192.24 
L 377.402312 188.016099 
L 383.896226 188.016099 
L 391.716075 192.24 
L 386.244896 192.24 
L 384.914436 191.470537 
z
M 377.759817 190.686589 
L 383.543247 190.686589 
L 380.656057 189.006443 
L 377.759817 190.686589 
z
" clip-path="url(#p4acca6ae00)" style="fill: #008000"/>
   </g>
   <g id="patch_52">
    <path d="M 391.716075 187.549006 
Q 389.483864 187.782552 387.082997 187.899859 
Q 384.68213 188.016099 382.122529 188.016099 
Q 376.338622 188.016099 372.960543 187.320792 
Q 369.582463 186.625485 369.582463 185.436425 
Q 369.582463 184.233502 373.020068 183.543527 
Q 376.462634 182.853552 382.449919 182.853552 
Q 384.756537 182.853552 386.869697 182.947397 
Q 388.987817 183.040176 390.862875 183.223601 
L 390.862875 184.252697 
Q 388.928292 184.017018 387.013551 183.900778 
Q 385.09881 183.783472 383.174148 183.783472 
Q 379.612531 183.783472 377.682909 184.212173 
Q 375.753287 184.639808 375.753287 185.436425 
Q 375.753287 186.225577 377.613462 186.656411 
Q 379.473638 187.086179 382.896362 187.086179 
Q 383.82893 187.086179 384.627565 187.061651 
Q 385.426201 187.036057 386.061141 186.982736 
L 386.061141 186.016558 
L 382.415196 186.016558 
L 382.415196 185.155956 
L 391.716075 185.155956 
L 391.716075 187.549006 
z
" clip-path="url(#p4acca6ae00)" style="fill: #ffa600"/>
   </g>
   <g id="patch_53">
    <path d="M 391.716075 182.079815 
Q 389.864637 182.463339 387.86263 182.657331 
Q 385.860622 182.853552 383.680163 182.853552 
Q 377.177822 182.853552 373.380143 181.399729 
Q 369.582463 179.945906 369.582463 177.45969 
Q 369.582463 174.964554 373.380143 173.512961 
Q 377.177822 172.059137 383.680163 172.059137 
Q 385.860622 172.059137 387.86263 172.255359 
Q 389.864637 172.449351 391.716075 172.832875 
L 391.716075 174.984622 
Q 389.847907 174.47623 388.035505 174.239872 
Q 386.223103 174.003515 384.221096 174.003515 
Q 380.629751 174.003515 378.571978 174.924418 
Q 376.519781 175.843092 376.519781 177.45969 
Q 376.519781 179.069598 378.571978 179.990502 
Q 380.629751 180.909175 384.221096 180.909175 
Q 386.223103 180.909175 388.035505 180.672817 
Q 389.847907 180.43423 391.716075 179.925838 
L 391.716075 182.079815 
z
" clip-path="url(#p4acca6ae00)" style="fill: #0000ff"/>
   </g>
   <g id="patch_54">
    <path d="M 369.582463 128.881478 
L 391.716075 128.881478 
L 391.716075 137.302324 
L 383.753122 137.302324 
L 383.753122 172.059137 
L 377.560858 172.059137 
L 377.560858 137.302324 
L 369.582463 137.302324 
L 369.582463 128.881478 
z
" clip-path="url(#p4acca6ae00)" style="fill: #ff0000"/>
   </g>
   <g id="patch_55">
    <path d="M 408.212974 191.983263 
L 399.700743 191.983263 
L 398.356706 192.24 
L 392.881002 192.24 
L 400.700851 190.830667 
L 407.194765 190.830667 
L 415.014614 192.24 
L 409.543435 192.24 
L 408.212974 191.983263 
z
M 401.058356 191.721694 
L 406.841786 191.721694 
L 403.954596 191.161102 
L 401.058356 191.721694 
z
" clip-path="url(#p4acca6ae00)" style="fill: #008000"/>
   </g>
   <g id="patch_56">
    <path d="M 415.014614 190.363121 
Q 412.782403 190.596894 410.381536 190.714314 
Q 407.980669 190.830667 405.421067 190.830667 
Q 399.637161 190.830667 396.259081 190.134686 
Q 392.881002 189.438704 392.881002 188.248491 
Q 392.881002 187.0444 396.318607 186.353756 
Q 399.761172 185.663112 405.748458 185.663112 
Q 408.055076 185.663112 410.168236 185.757048 
Q 412.286356 185.849917 414.161413 186.033519 
L 414.161413 187.063614 
Q 412.22683 186.827707 410.312089 186.711354 
Q 408.397348 186.593934 406.472687 186.593934 
Q 402.91107 186.593934 400.981448 187.023051 
Q 399.051825 187.451101 399.051825 188.248491 
Q 399.051825 189.038408 400.912001 189.46966 
Q 402.772177 189.899845 406.1949 189.899845 
Q 407.127468 189.899845 407.926104 189.875294 
Q 408.724739 189.849675 409.359679 189.796302 
L 409.359679 188.829187 
L 405.713735 188.829187 
L 405.713735 187.96775 
L 415.014614 187.96775 
L 415.014614 190.363121 
z
" clip-path="url(#p4acca6ae00)" style="fill: #ffa600"/>
   </g>
   <g id="patch_57">
    <path d="M 415.014614 184.804441 
Q 413.163175 185.230065 411.161168 185.445351 
Q 409.159161 185.663112 406.978702 185.663112 
Q 400.476361 185.663112 396.678681 184.049701 
Q 392.881002 182.436289 392.881002 179.677158 
Q 392.881002 176.908129 396.678681 175.297192 
Q 400.476361 173.683781 406.978702 173.683781 
Q 409.159161 173.683781 411.161168 173.901542 
Q 413.163175 174.116828 415.014614 174.542452 
L 415.014614 176.9304 
Q 413.146445 176.366201 411.334043 176.103898 
Q 409.521641 175.841595 407.519634 175.841595 
Q 403.92829 175.841595 401.870516 176.863587 
Q 399.81832 177.883104 399.81832 179.677158 
Q 399.81832 181.463789 401.870516 182.485781 
Q 403.92829 183.505298 407.519634 183.505298 
Q 409.521641 183.505298 411.334043 183.242995 
Q 413.146445 182.978218 415.014614 182.414018 
L 415.014614 184.804441 
z
" clip-path="url(#p4acca6ae00)" style="fill: #0000ff"/>
   </g>
   <g id="patch_58">
    <path d="M 392.881002 160.530005 
L 415.014614 160.530005 
L 415.014614 163.095358 
L 407.051661 163.095358 
L 407.051661 173.683781 
L 400.859397 173.683781 
L 400.859397 163.095358 
L 392.881002 163.095358 
L 392.881002 160.530005 
z
" clip-path="url(#p4acca6ae00)" style="fill: #ff0000"/>
   </g>
   <g id="patch_59">
    <path d="M 431.511513 191.772344 
L 422.999282 191.772344 
L 421.655245 192.24 
L 416.179541 192.24 
L 423.99939 189.672842 
L 430.493303 189.672842 
L 438.313152 192.24 
L 432.841973 192.24 
L 431.511513 191.772344 
z
M 424.356894 191.295885 
L 430.140324 191.295885 
L 427.253135 190.274743 
L 424.356894 191.295885 
z
" clip-path="url(#p4acca6ae00)" style="fill: #008000"/>
   </g>
   <g id="patch_60">
    <path d="M 438.313152 189.350821 
Q 436.461714 189.51044 434.459707 189.591177 
Q 432.4577 189.672842 430.27724 189.672842 
Q 423.7749 189.672842 419.97722 189.067776 
Q 416.179541 188.462709 416.179541 187.427971 
Q 416.179541 186.389521 419.97722 185.785383 
Q 423.7749 185.180317 430.27724 185.180317 
Q 432.4577 185.180317 434.459707 185.261982 
Q 436.461714 185.342719 438.313152 185.502338 
L 438.313152 186.397874 
Q 436.444984 186.186286 434.632582 186.087916 
Q 432.82018 185.989547 430.818173 185.989547 
Q 427.226828 185.989547 425.169055 186.372817 
Q 423.116858 186.75516 423.116858 187.427971 
Q 423.116858 188.097999 425.169055 188.48127 
Q 427.226828 188.863612 430.818173 188.863612 
Q 432.82018 188.863612 434.632582 188.765243 
Q 436.444984 188.665945 438.313152 188.454357 
L 438.313152 189.350821 
z
" clip-path="url(#p4acca6ae00)" style="fill: #0000ff"/>
   </g>
   <g id="patch_61">
    <path d="M 416.179541 178.334563 
L 438.313152 178.334563 
L 438.313152 179.669676 
L 430.3502 179.669676 
L 430.3502 185.180317 
L 424.157936 185.180317 
L 424.157936 179.669676 
L 416.179541 179.669676 
L 416.179541 178.334563 
z
" clip-path="url(#p4acca6ae00)" style="fill: #ff0000"/>
   </g>
   <g id="patch_62">
    <path d="M 438.313152 176.979659 
Q 436.080941 177.657111 433.680075 177.997384 
Q 431.279208 178.334563 428.719606 178.334563 
Q 422.935699 178.334563 419.55762 176.317675 
Q 416.179541 174.300786 416.179541 170.85166 
Q 416.179541 167.362319 419.617146 165.360898 
Q 423.059711 163.359477 429.046997 163.359477 
Q 431.353615 163.359477 433.466774 163.631695 
Q 435.584895 163.900819 437.459952 164.432882 
L 437.459952 167.418 
Q 435.525369 166.734362 433.610628 166.397183 
Q 431.695887 166.05691 429.771225 166.05691 
Q 426.209609 166.05691 424.279986 167.300452 
Q 422.350364 168.5409 422.350364 170.85166 
Q 422.350364 173.140766 424.21054 174.390495 
Q 426.070715 175.637129 429.493439 175.637129 
Q 430.426007 175.637129 431.224643 175.565982 
Q 432.023278 175.49174 432.658218 175.337071 
L 432.658218 172.534462 
L 429.012273 172.534462 
L 429.012273 170.038099 
L 438.313152 170.038099 
L 438.313152 176.979659 
z
" clip-path="url(#p4acca6ae00)" style="fill: #ffa600"/>
   </g>
   <g id="patch_63">
    <path d="M 461.611691 192.017064 
Q 459.37948 192.128532 456.978613 192.184521 
Q 454.577746 192.24 452.018144 192.24 
Q 446.234238 192.24 442.856159 191.908141 
Q 439.478079 191.576283 439.478079 191.008763 
Q 439.478079 190.434628 442.915684 190.105314 
Q 446.35825 189.776 452.345535 189.776 
Q 454.652153 189.776 456.765313 189.820791 
Q 458.883433 189.865073 460.75849 189.952618 
L 460.75849 190.443789 
Q 458.823908 190.331303 456.909167 190.275824 
Q 454.994426 190.219836 453.069764 190.219836 
Q 449.508147 190.219836 447.578525 190.424448 
Q 445.648902 190.628551 445.648902 191.008763 
Q 445.648902 191.385413 447.509078 191.591043 
Q 449.369254 191.796164 452.791978 191.796164 
Q 453.724546 191.796164 454.523181 191.784458 
Q 455.321817 191.772242 455.956757 191.746793 
L 455.956757 191.285652 
L 452.310812 191.285652 
L 452.310812 190.8749 
L 461.611691 190.8749 
L 461.611691 192.017064 
z
" clip-path="url(#p4acca6ae00)" style="fill: #ffa600"/>
   </g>
   <g id="patch_64">
    <path d="M 461.611691 189.334455 
Q 459.760253 189.553319 457.758245 189.664023 
Q 455.756238 189.776 453.575779 189.776 
Q 447.073438 189.776 443.275759 188.946353 
Q 439.478079 188.116706 439.478079 186.697909 
Q 439.478079 185.274021 443.275759 184.445647 
Q 447.073438 183.616 453.575779 183.616 
Q 455.756238 183.616 457.758245 183.727977 
Q 459.760253 183.838681 461.611691 184.057545 
L 461.611691 185.285473 
Q 459.743523 184.995351 457.931121 184.86047 
Q 456.118719 184.725589 454.116711 184.725589 
Q 450.525367 184.725589 448.467594 185.251117 
Q 446.415397 185.775372 446.415397 186.697909 
Q 446.415397 187.616628 448.467594 188.142156 
Q 450.525367 188.666411 454.116711 188.666411 
Q 456.118719 188.666411 457.931121 188.53153 
Q 459.743523 188.395376 461.611691 188.105254 
L 461.611691 189.334455 
z
" clip-path="url(#p4acca6ae00)" style="fill: #0000ff"/>
   </g>
   <g id="patch_65">
    <path d="M 439.478079 25.92 
L 461.611691 25.92 
L 461.611691 56.675114 
L 453.648738 56.675114 
L 453.648738 183.616 
L 447.456474 183.616 
L 447.456474 56.675114 
L 439.478079 56.675114 
L 439.478079 25.92 
z
" clip-path="url(#p4acca6ae00)" style="fill: #ff0000"/>
   </g>
   <g id="patch_66">
    <path d="M 478.10859 191.509961 
L 469.596359 191.509961 
L 468.252322 192.24 
L 462.776618 192.24 
L 470.596467 188.232515 
L 477.090381 188.232515 
L 484.91023 192.24 
L 479.439051 192.24 
L 478.10859 191.509961 
z
M 470.953972 190.76618 
L 476.737401 190.76618 
L 473.850212 189.172118 
L 470.953972 190.76618 
z
" clip-path="url(#p4acca6ae00)" style="fill: #008000"/>
   </g>
   <g id="patch_67">
    <path d="M 484.91023 187.772908 
Q 483.058791 188.000725 481.056784 188.115958 
Q 479.054777 188.232515 476.874318 188.232515 
Q 470.371977 188.232515 466.574297 187.368931 
Q 462.776618 186.505347 462.776618 185.028513 
Q 462.776618 183.546381 466.574297 182.684122 
Q 470.371977 181.820539 476.874318 181.820539 
Q 479.054777 181.820539 481.056784 181.937096 
Q 483.058791 182.052329 484.91023 182.280145 
L 484.91023 183.558302 
Q 483.042061 183.256313 481.229659 183.115914 
Q 479.417257 182.975515 477.41525 182.975515 
Q 473.823906 182.975515 471.766132 183.52254 
Q 469.713935 184.06824 469.713935 185.028513 
Q 469.713935 185.984813 471.766132 186.531838 
Q 473.823906 187.077538 477.41525 187.077538 
Q 479.417257 187.077538 481.229659 186.937139 
Q 483.042061 186.795416 484.91023 186.493427 
L 484.91023 187.772908 
z
" clip-path="url(#p4acca6ae00)" style="fill: #0000ff"/>
   </g>
   <g id="patch_68">
    <path d="M 484.91023 181.095367 
Q 482.678019 181.457953 480.277152 181.640073 
Q 477.876285 181.820539 475.316683 181.820539 
Q 469.532776 181.820539 466.154697 180.741059 
Q 462.776618 179.661579 462.776618 177.815537 
Q 462.776618 175.947971 466.214223 174.87677 
Q 469.656788 173.805568 475.644074 173.805568 
Q 477.950692 173.805568 480.063852 173.951265 
Q 482.181972 174.095306 484.057029 174.380076 
L 484.057029 175.977772 
Q 482.122446 175.611875 480.207705 175.43141 
Q 478.292964 175.249289 476.368302 175.249289 
Q 472.806686 175.249289 470.877063 175.914858 
Q 468.947441 176.578771 468.947441 177.815537 
Q 468.947441 179.040713 470.807617 179.709593 
Q 472.667793 180.376817 476.090516 180.376817 
Q 477.023084 180.376817 477.82172 180.338738 
Q 478.620355 180.299002 479.255295 180.21622 
L 479.255295 178.716207 
L 475.609351 178.716207 
L 475.609351 177.380103 
L 484.91023 177.380103 
L 484.91023 181.095367 
z
" clip-path="url(#p4acca6ae00)" style="fill: #ffa600"/>
   </g>
   <g id="patch_69">
    <path d="M 462.776618 84.0379 
L 484.91023 84.0379 
L 484.91023 101.545096 
L 476.947277 101.545096 
L 476.947277 173.805568 
L 470.755013 173.805568 
L 470.755013 101.545096 
L 462.776618 101.545096 
L 462.776618 84.0379 
z
" clip-path="url(#p4acca6ae00)" style="fill: #ff0000"/>
   </g>
   <g id="patch_70">
    <path d="M 508.208768 191.913779 
Q 506.35733 192.075479 504.355323 192.157269 
Q 502.353315 192.24 500.172856 192.24 
Q 493.670515 192.24 489.872836 191.627042 
Q 486.075157 191.014084 486.075157 189.965851 
Q 486.075157 188.913858 489.872836 188.30184 
Q 493.670515 187.688882 500.172856 187.688882 
Q 502.353315 187.688882 504.355323 187.771613 
Q 506.35733 187.853403 508.208768 188.015104 
L 508.208768 188.922319 
Q 506.3406 188.707972 504.528198 188.608319 
Q 502.715796 188.508666 500.713789 188.508666 
Q 497.122444 188.508666 495.064671 188.896936 
Q 493.012474 189.284265 493.012474 189.965851 
Q 493.012474 190.644617 495.064671 191.032887 
Q 497.122444 191.420216 500.713789 191.420216 
Q 502.715796 191.420216 504.528198 191.320563 
Q 506.3406 191.21997 508.208768 191.005623 
L 508.208768 191.913779 
z
" clip-path="url(#p4acca6ae00)" style="fill: #0000ff"/>
   </g>
   <g id="patch_71">
    <path d="M 501.407129 186.741371 
L 492.894897 186.741371 
L 491.550861 187.688882 
L 486.075157 187.688882 
L 493.895005 182.487605 
L 500.388919 182.487605 
L 508.208768 187.688882 
L 502.737589 187.688882 
L 501.407129 186.741371 
z
M 494.25251 185.776025 
L 500.03594 185.776025 
L 497.14875 183.707107 
L 494.25251 185.776025 
z
" clip-path="url(#p4acca6ae00)" style="fill: #008000"/>
   </g>
   <g id="patch_72">
    <path d="M 508.208768 181.840534 
Q 505.976557 182.164069 503.57569 182.326575 
Q 501.174824 182.487605 498.615222 182.487605 
Q 492.831315 182.487605 489.453236 181.524385 
Q 486.075157 180.561166 486.075157 178.913942 
Q 486.075157 177.247513 489.512761 176.291681 
Q 492.955327 175.335848 498.942613 175.335848 
Q 501.249231 175.335848 503.36239 175.465853 
Q 505.48051 175.594381 507.355568 175.848481 
L 507.355568 177.274105 
Q 505.420985 176.947615 503.506244 176.786586 
Q 501.591503 176.62408 499.666841 176.62408 
Q 496.105224 176.62408 494.175602 177.217967 
Q 492.24598 177.810376 492.24598 178.913942 
Q 492.24598 180.007167 494.106156 180.604008 
Q 495.966331 181.199372 499.389055 181.199372 
Q 500.321623 181.199372 501.120258 181.165394 
Q 501.918894 181.129938 502.553834 181.056071 
L 502.553834 179.71761 
L 498.907889 179.71761 
L 498.907889 178.525404 
L 508.208768 178.525404 
L 508.208768 181.840534 
z
" clip-path="url(#p4acca6ae00)" style="fill: #ffa600"/>
   </g>
   <g id="patch_73">
    <path d="M 486.075157 148.35422 
L 508.208768 148.35422 
L 508.208768 153.616389 
L 500.245815 153.616389 
L 500.245815 175.335848 
L 494.053551 175.335848 
L 494.053551 153.616389 
L 486.075157 153.616389 
L 486.075157 148.35422 
z
" clip-path="url(#p4acca6ae00)" style="fill: #ff0000"/>
   </g>
   <g id="patch_74">
    <path d="M 531.507307 191.895636 
Q 529.275096 192.067818 526.874229 192.154302 
Q 524.473362 192.24 521.91376 192.24 
Q 516.129854 192.24 512.751774 191.727384 
Q 509.373695 191.214769 509.373695 190.338134 
Q 509.373695 189.451277 512.8113 188.942593 
Q 516.253865 188.433909 522.241151 188.433909 
Q 524.547769 188.433909 526.660929 188.503096 
Q 528.779049 188.571497 530.654106 188.706727 
L 530.654106 189.465429 
Q 528.719523 189.291675 526.804782 189.205977 
Q 524.890042 189.119492 522.96538 189.119492 
Q 519.403763 189.119492 517.474141 189.435553 
Q 515.544518 189.750827 515.544518 190.338134 
Q 515.544518 190.919936 517.404694 191.237569 
Q 519.26487 191.554416 522.687593 191.554416 
Q 523.620162 191.554416 524.418797 191.536333 
Q 525.217432 191.517464 525.852372 191.478153 
L 525.852372 190.765837 
L 522.206428 190.765837 
L 522.206428 190.131358 
L 531.507307 190.131358 
L 531.507307 191.895636 
z
" clip-path="url(#p4acca6ae00)" style="fill: #ffa600"/>
   </g>
   <g id="patch_75">
    <path d="M 524.705667 187.344356 
L 516.193436 187.344356 
L 514.8494 188.433909 
L 509.373695 188.433909 
L 517.193544 182.452908 
L 523.687458 182.452908 
L 531.507307 188.433909 
L 526.036128 188.433909 
L 524.705667 187.344356 
z
M 517.551049 186.234295 
L 523.334479 186.234295 
L 520.447289 183.855225 
L 517.551049 186.234295 
z
" clip-path="url(#p4acca6ae00)" style="fill: #008000"/>
   </g>
   <g id="patch_76">
    <path d="M 531.507307 181.673427 
Q 529.655868 182.059798 527.653861 182.255229 
Q 525.651854 182.452908 523.471395 182.452908 
Q 516.969054 182.452908 513.171375 180.988292 
Q 509.373695 179.523676 509.373695 177.019004 
Q 509.373695 174.505346 513.171375 173.042976 
Q 516.969054 171.578361 523.471395 171.578361 
Q 525.651854 171.578361 527.653861 171.776039 
Q 529.655868 171.971471 531.507307 172.357842 
L 531.507307 174.525563 
Q 529.639139 174.013397 527.826737 173.775284 
Q 526.014334 173.537172 524.012327 173.537172 
Q 520.420983 173.537172 518.363209 174.464912 
Q 516.311013 175.390405 516.311013 177.019004 
Q 516.311013 178.640863 518.363209 179.568603 
Q 520.420983 180.494096 524.012327 180.494096 
Q 526.014334 180.494096 527.826737 180.255984 
Q 529.639139 180.015625 531.507307 179.503459 
L 531.507307 181.673427 
z
" clip-path="url(#p4acca6ae00)" style="fill: #0000ff"/>
   </g>
   <g id="patch_77">
    <path d="M 509.373695 118.836807 
L 531.507307 118.836807 
L 531.507307 129.12288 
L 523.544354 129.12288 
L 523.544354 171.578361 
L 517.35209 171.578361 
L 517.35209 129.12288 
L 509.373695 129.12288 
L 509.373695 118.836807 
z
" clip-path="url(#p4acca6ae00)" style="fill: #ff0000"/>
   </g>
   <g id="patch_78">
    <path d="M 532.672234 188.280316 
L 554.805846 188.280316 
L 554.805846 189.052565 
L 546.842893 189.052565 
L 546.842893 192.24 
L 540.650629 192.24 
L 540.650629 189.052565 
L 532.672234 189.052565 
L 532.672234 188.280316 
z
" clip-path="url(#p4acca6ae00)" style="fill: #ff0000"/>
   </g>
   <g id="patch_79">
    <path d="M 548.004206 186.99795 
L 539.491975 186.99795 
L 538.147938 188.280316 
L 532.672234 188.280316 
L 540.492083 181.240878 
L 546.985997 181.240878 
L 554.805846 188.280316 
L 549.334667 188.280316 
L 548.004206 186.99795 
z
M 540.849587 185.691444 
L 546.633017 185.691444 
L 543.745828 182.891359 
L 540.849587 185.691444 
z
" clip-path="url(#p4acca6ae00)" style="fill: #008000"/>
   </g>
   <g id="patch_80">
    <path d="M 554.805846 180.641686 
Q 552.954407 180.938692 550.9524 181.088922 
Q 548.950393 181.240878 546.769934 181.240878 
Q 540.267593 181.240878 536.469913 180.115019 
Q 532.672234 178.98916 532.672234 177.063802 
Q 532.672234 175.131537 536.469913 174.007405 
Q 540.267593 172.881546 546.769934 172.881546 
Q 548.950393 172.881546 550.9524 173.033502 
Q 552.954407 173.183732 554.805846 173.480738 
L 554.805846 175.147078 
Q 552.937677 174.753373 551.125275 174.570335 
Q 549.312873 174.387296 547.310866 174.387296 
Q 543.719521 174.387296 541.661748 175.100455 
Q 539.609551 175.811888 539.609551 177.063802 
Q 539.609551 178.310536 541.661748 179.023695 
Q 543.719521 179.735128 547.310866 179.735128 
Q 549.312873 179.735128 551.125275 179.552089 
Q 552.937677 179.367324 554.805846 178.973619 
L 554.805846 180.641686 
z
" clip-path="url(#p4acca6ae00)" style="fill: #0000ff"/>
   </g>
   <g id="patch_81">
    <path d="M 554.805846 169.259129 
Q 552.573635 171.070337 550.172768 171.980077 
Q 547.771901 172.881546 545.212299 172.881546 
Q 539.428392 172.881546 536.050313 167.489272 
Q 532.672234 162.096999 532.672234 152.875549 
Q 532.672234 143.546586 536.109839 138.195664 
Q 539.552404 132.844742 545.53969 132.844742 
Q 547.846308 132.844742 549.959468 133.572534 
Q 552.077588 134.292055 553.952645 135.714557 
L 553.952645 143.695452 
Q 552.018062 141.867703 550.103321 140.966234 
Q 548.18858 140.056495 546.263918 140.056495 
Q 542.702302 140.056495 540.772679 143.381178 
Q 538.843057 146.697592 538.843057 152.875549 
Q 538.843057 158.995614 540.703233 162.336839 
Q 542.563409 165.669793 545.986132 165.669793 
Q 546.9187 165.669793 547.717336 165.479575 
Q 548.515971 165.281087 549.150911 164.867569 
L 549.150911 157.374624 
L 545.504967 157.374624 
L 545.504967 150.700445 
L 554.805846 150.700445 
L 554.805846 169.259129 
z
" clip-path="url(#p4acca6ae00)" style="fill: #ffa600"/>
   </g>
   <g id="patch_82">
    <path d="M 578.104384 192.186304 
Q 576.252946 192.21292 574.250939 192.226383 
Q 572.248931 192.24 570.068472 192.24 
Q 563.566131 192.24 559.768452 192.139107 
Q 555.970772 192.038214 555.970772 191.865674 
Q 555.970772 191.692516 559.768452 191.591777 
Q 563.566131 191.490884 570.068472 191.490884 
Q 572.248931 191.490884 574.250939 191.504502 
Q 576.252946 191.517965 578.104384 191.544581 
L 578.104384 191.693908 
Q 576.236216 191.658627 574.423814 191.642224 
Q 572.611412 191.625821 570.609405 191.625821 
Q 567.01806 191.625821 564.960287 191.68973 
Q 562.90809 191.753485 562.90809 191.865674 
Q 562.90809 191.977399 564.960287 192.041309 
Q 567.01806 192.105063 570.609405 192.105063 
Q 572.611412 192.105063 574.423814 192.08866 
Q 576.236216 192.072103 578.104384 192.036821 
L 578.104384 192.186304 
z
" clip-path="url(#p4acca6ae00)" style="fill: #0000ff"/>
   </g>
   <g id="patch_83">
    <path d="M 571.302745 191.343502 
L 562.790513 191.343502 
L 561.446477 191.490884 
L 555.970772 191.490884 
L 563.790621 190.68184 
L 570.284535 190.68184 
L 578.104384 191.490884 
L 572.633205 191.490884 
L 571.302745 191.343502 
z
M 564.148126 191.193345 
L 569.931556 191.193345 
L 567.044366 190.87153 
L 564.148126 191.193345 
z
" clip-path="url(#p4acca6ae00)" style="fill: #008000"/>
   </g>
   <g id="patch_84">
    <path d="M 578.104384 190.576106 
Q 575.872173 190.628973 573.471306 190.655527 
Q 571.070439 190.68184 568.510838 190.68184 
Q 562.726931 190.68184 559.348852 190.524446 
Q 555.970772 190.367053 555.970772 190.097891 
Q 555.970772 189.825592 559.408377 189.669405 
Q 562.850943 189.513219 568.838228 189.513219 
Q 571.144846 189.513219 573.258006 189.534462 
Q 575.376126 189.555464 577.251184 189.596985 
L 577.251184 189.829937 
Q 575.316601 189.776587 573.40186 189.750275 
Q 571.487119 189.723721 569.562457 189.723721 
Q 566.00084 189.723721 564.071218 189.820764 
Q 562.141596 189.917565 562.141596 190.097891 
Q 562.141596 190.276528 564.001771 190.374054 
Q 565.861947 190.471338 569.284671 190.471338 
Q 570.217239 190.471338 571.015874 190.465786 
Q 571.81451 190.459992 572.44945 190.447922 
L 572.44945 190.229213 
L 568.803505 190.229213 
L 568.803505 190.034403 
L 578.104384 190.034403 
L 578.104384 190.576106 
z
" clip-path="url(#p4acca6ae00)" style="fill: #ffa600"/>
   </g>
   <g id="patch_85">
    <path d="M 555.970772 188.194776 
L 578.104384 188.194776 
L 578.104384 188.451909 
L 570.141431 188.451909 
L 570.141431 189.513219 
L 563.949167 189.513219 
L 563.949167 188.451909 
L 555.970772 188.451909 
L 555.970772 188.194776 
z
" clip-path="url(#p4acca6ae00)" style="fill: #ff0000"/>
   </g>
   <g id="patch_86">
    <path d="M 601.402923 191.994148 
Q 599.170712 192.117074 596.769845 192.178818 
Q 594.368978 192.24 591.809376 192.24 
Q 586.02547 192.24 582.64739 191.874029 
Q 579.269311 191.508058 579.269311 190.882204 
Q 579.269311 190.249052 582.706916 189.885887 
Q 586.149481 189.522723 592.136767 189.522723 
Q 594.443385 189.522723 596.556545 189.572118 
Q 598.674665 189.620951 600.549722 189.717496 
L 600.549722 190.259155 
Q 598.615139 190.135107 596.700398 190.073924 
Q 594.785657 190.012181 592.860996 190.012181 
Q 589.299379 190.012181 587.369757 190.237826 
Q 585.440134 190.462909 585.440134 190.882204 
Q 585.440134 191.297569 587.30031 191.524336 
Q 589.160486 191.750542 592.583209 191.750542 
Q 593.515777 191.750542 594.314413 191.737632 
Q 595.113048 191.724161 595.747988 191.696096 
L 595.747988 191.187553 
L 592.102044 191.187553 
L 592.102044 190.73458 
L 601.402923 190.73458 
L 601.402923 191.994148 
z
" clip-path="url(#p4acca6ae00)" style="fill: #ffa600"/>
   </g>
   <g id="patch_87">
    <path d="M 594.601283 188.408966 
L 586.089052 188.408966 
L 584.745015 189.522723 
L 579.269311 189.522723 
L 587.08916 183.40885 
L 593.583074 183.40885 
L 601.402923 189.522723 
L 595.931744 189.522723 
L 594.601283 188.408966 
z
M 587.446665 187.274243 
L 593.230095 187.274243 
L 590.342905 184.842321 
L 587.446665 187.274243 
z
" clip-path="url(#p4acca6ae00)" style="fill: #008000"/>
   </g>
   <g id="patch_88">
    <path d="M 601.402923 182.727145 
Q 599.551484 183.065051 597.549477 183.235968 
Q 595.54747 183.40885 593.367011 183.40885 
Q 586.86467 183.40885 583.06699 182.127952 
Q 579.269311 180.847055 579.269311 178.656562 
Q 579.269311 176.458212 583.06699 175.179279 
Q 586.86467 173.898381 593.367011 173.898381 
Q 595.54747 173.898381 597.549477 174.071263 
Q 599.551484 174.24218 601.402923 174.580086 
L 601.402923 176.475893 
Q 599.534754 176.027972 597.722352 175.819727 
Q 595.90995 175.611483 593.907943 175.611483 
Q 590.316599 175.611483 588.258825 176.42285 
Q 586.206629 177.232251 586.206629 178.656562 
Q 586.206629 180.07498 588.258825 180.886346 
Q 590.316599 181.695748 593.907943 181.695748 
Q 595.90995 181.695748 597.722352 181.487503 
Q 599.534754 181.277295 601.402923 180.829374 
L 601.402923 182.727145 
z
" clip-path="url(#p4acca6ae00)" style="fill: #0000ff"/>
   </g>
   <g id="patch_89">
    <path d="M 579.269311 146.385952 
L 601.402923 146.385952 
L 601.402923 151.751642 
L 593.43997 151.751642 
L 593.43997 173.898381 
L 587.247706 173.898381 
L 587.247706 151.751642 
L 579.269311 151.751642 
L 579.269311 146.385952 
z
" clip-path="url(#p4acca6ae00)" style="fill: #ff0000"/>
   </g>
   <g id="patch_90">
    <path d="M 617.899822 191.472003 
L 609.387591 191.472003 
L 608.043554 192.24 
L 602.56785 192.24 
L 610.387699 188.024146 
L 616.881612 188.024146 
L 624.701461 192.24 
L 619.230282 192.24 
L 617.899822 191.472003 
z
M 610.745203 190.689549 
L 616.528633 190.689549 
L 613.641444 189.012604 
L 610.745203 190.689549 
z
" clip-path="url(#p4acca6ae00)" style="fill: #008000"/>
   </g>
   <g id="patch_91">
    <path d="M 624.701461 187.570861 
Q 622.850023 187.795544 620.848016 187.909192 
Q 618.846009 188.024146 616.665549 188.024146 
Q 610.163208 188.024146 606.365529 187.17244 
Q 602.56785 186.320735 602.56785 184.864215 
Q 602.56785 183.402469 606.365529 182.55207 
Q 610.163208 181.700364 616.665549 181.700364 
Q 618.846009 181.700364 620.848016 181.815318 
Q 622.850023 181.928966 624.701461 182.153649 
L 624.701461 183.414225 
Q 622.833293 183.11639 621.020891 182.977922 
Q 619.208489 182.839455 617.206482 182.839455 
Q 613.615137 182.839455 611.557364 183.378955 
Q 609.505167 183.91715 609.505167 184.864215 
Q 609.505167 185.807361 611.557364 186.346861 
Q 613.615137 186.885055 617.206482 186.885055 
Q 619.208489 186.885055 621.020891 186.746588 
Q 622.833293 186.606814 624.701461 186.308978 
L 624.701461 187.570861 
z
" clip-path="url(#p4acca6ae00)" style="fill: #0000ff"/>
   </g>
   <g id="patch_92">
    <path d="M 624.701461 181.064633 
Q 622.46925 181.382499 620.068384 181.542157 
Q 617.667517 181.700364 615.107915 181.700364 
Q 609.324008 181.700364 605.945929 180.754025 
Q 602.56785 179.807686 602.56785 178.18933 
Q 602.56785 176.552105 606.005455 175.613023 
Q 609.44802 174.673941 615.435306 174.673941 
Q 617.741924 174.673941 619.855083 174.801667 
Q 621.973204 174.927943 623.848261 175.177591 
L 623.848261 176.578231 
Q 621.913678 176.257462 619.998937 176.099255 
Q 618.084196 175.939597 616.159534 175.939597 
Q 612.597918 175.939597 610.668295 176.523076 
Q 608.738673 177.105104 608.738673 178.18933 
Q 608.738673 179.263396 610.598849 179.849778 
Q 612.459024 180.434708 615.881748 180.434708 
Q 616.814316 180.434708 617.612951 180.401325 
Q 618.411587 180.366491 619.046527 180.293919 
L 619.046527 178.978913 
L 615.400582 178.978913 
L 615.400582 177.807601 
L 624.701461 177.807601 
L 624.701461 181.064633 
z
" clip-path="url(#p4acca6ae00)" style="fill: #ffa600"/>
   </g>
   <g id="patch_93">
    <path d="M 602.56785 144.81164 
L 624.701461 144.81164 
L 624.701461 150.63562 
L 616.738509 150.63562 
L 616.738509 174.673941 
L 610.546245 174.673941 
L 610.546245 150.63562 
L 602.56785 150.63562 
L 602.56785 144.81164 
z
" clip-path="url(#p4acca6ae00)" style="fill: #ff0000"/>
   </g>
   <g id="patch_94">
    <path d="M 648 191.965819 
Q 645.767789 192.102909 643.366922 192.171768 
Q 640.966055 192.24 638.406453 192.24 
Q 632.622547 192.24 629.244468 191.831858 
Q 625.866388 191.423716 625.866388 190.725743 
Q 625.866388 190.019632 629.303993 189.61462 
Q 632.746559 189.209608 638.733844 189.209608 
Q 641.040462 189.209608 643.153622 189.264694 
Q 645.271742 189.319155 647.146799 189.426824 
L 647.146799 190.0309 
Q 645.212217 189.892557 643.297476 189.824325 
Q 641.382735 189.755466 639.458073 189.755466 
Q 635.896456 189.755466 633.966834 190.007112 
Q 632.037211 190.258132 632.037211 190.725743 
Q 632.037211 191.188972 633.897387 191.441869 
Q 635.757563 191.694141 639.180287 191.694141 
Q 640.112855 191.694141 640.91149 191.679744 
Q 641.710126 191.66472 642.345066 191.633421 
L 642.345066 191.066279 
L 638.699121 191.066279 
L 638.699121 190.561109 
L 648 190.561109 
L 648 191.965819 
z
" clip-path="url(#p4acca6ae00)" style="fill: #ffa600"/>
   </g>
   <g id="patch_95">
    <path d="M 648 188.751039 
Q 646.148562 188.978341 644.146554 189.093314 
Q 642.144547 189.209608 639.964088 189.209608 
Q 633.461747 189.209608 629.664068 188.347974 
Q 625.866388 187.486341 625.866388 186.012843 
Q 625.866388 184.534058 629.664068 183.673746 
Q 633.461747 182.812113 639.964088 182.812113 
Q 642.144547 182.812113 644.146554 182.928407 
Q 646.148562 183.04338 648 183.270682 
L 648 184.545952 
Q 646.131832 184.244644 644.31943 184.104563 
Q 642.507028 183.964481 640.50502 183.964481 
Q 636.913676 183.964481 634.855903 184.510271 
Q 632.803706 185.054738 632.803706 186.012843 
Q 632.803706 186.966983 634.855903 187.512772 
Q 636.913676 188.057239 640.50502 188.057239 
Q 642.507028 188.057239 644.31943 187.917158 
Q 646.131832 187.775755 648 187.474448 
L 648 188.751039 
z
" clip-path="url(#p4acca6ae00)" style="fill: #0000ff"/>
   </g>
   <g id="patch_96">
    <path d="M 641.198361 181.27866 
L 632.686129 181.27866 
L 631.342093 182.812113 
L 625.866388 182.812113 
L 633.686237 174.394357 
L 640.180151 174.394357 
L 648 182.812113 
L 642.528821 182.812113 
L 641.198361 181.27866 
z
M 634.043742 179.716342 
L 639.827172 179.716342 
L 636.939982 176.368001 
L 634.043742 179.716342 
z
" clip-path="url(#p4acca6ae00)" style="fill: #008000"/>
   </g>
   <g id="patch_97">
    <path d="M 625.866388 146.784116 
L 648 146.784116 
L 648 152.168882 
L 640.037047 152.168882 
L 640.037047 174.394357 
L 633.844783 174.394357 
L 633.844783 152.168882 
L 625.866388 152.168882 
L 625.866388 146.784116 
z
" clip-path="url(#p4acca6ae00)" style="fill: #ff0000"/>
   </g>
   <g id="matplotlib.axis_1">
    <g id="xtick_1">
     <g id="line2d_2">
      <defs>
       <path id="m525261cd8d" d="M 0 0 
L 0 3.5 
" style="stroke: #000000; stroke-width: 0.8"/>
      </defs>
      <g>
       <use xlink:href="#m525261cd8d" x="101.066806" y="192.24" style="stroke: #000000; stroke-width: 0.8"/>
      </g>
     </g>
     <g id="text_1">
      <!-- 0 -->
      <g transform="translate(97.885556 206.838437) scale(0.1 -0.1)">
       <defs>
        <path id="DejaVuSans-30" d="M 2034 4250 
Q 1547 4250 1301 3770 
Q 1056 3291 1056 2328 
Q 1056 1369 1301 889 
Q 1547 409 2034 409 
Q 2525 409 2770 889 
Q 3016 1369 3016 2328 
Q 3016 3291 2770 3770 
Q 2525 4250 2034 4250 
z
M 2034 4750 
Q 2819 4750 3233 4129 
Q 3647 3509 3647 2328 
Q 3647 1150 3233 529 
Q 2819 -91 2034 -91 
Q 1250 -91 836 529 
Q 422 1150 422 2328 
Q 422 3509 836 4129 
Q 1250 4750 2034 4750 
z
" transform="scale(0.015625)"/>
       </defs>
       <use xlink:href="#DejaVuSans-30"/>
      </g>
     </g>
    </g>
    <g id="xtick_2">
     <g id="line2d_3">
      <g>
       <use xlink:href="#m525261cd8d" x="217.559499" y="192.24" style="stroke: #000000; stroke-width: 0.8"/>
      </g>
     </g>
     <g id="text_2">
      <!-- 5 -->
      <g transform="translate(214.378249 206.838437) scale(0.1 -0.1)">
       <defs>
        <path id="DejaVuSans-35" d="M 691 4666 
L 3169 4666 
L 3169 4134 
L 1269 4134 
L 1269 2991 
Q 1406 3038 1543 3061 
Q 1681 3084 1819 3084 
Q 2600 3084 3056 2656 
Q 3513 2228 3513 1497 
Q 3513 744 3044 326 
Q 2575 -91 1722 -91 
Q 1428 -91 1123 -41 
Q 819 9 494 109 
L 494 744 
Q 775 591 1075 516 
Q 1375 441 1709 441 
Q 2250 441 2565 725 
Q 2881 1009 2881 1497 
Q 2881 1984 2565 2268 
Q 2250 2553 1709 2553 
Q 1456 2553 1204 2497 
Q 953 2441 691 2322 
L 691 4666 
z
" transform="scale(0.015625)"/>
       </defs>
       <use xlink:href="#DejaVuSans-35"/>
      </g>
     </g>
    </g>
    <g id="xtick_3">
     <g id="line2d_4">
      <g>
       <use xlink:href="#m525261cd8d" x="334.052192" y="192.24" style="stroke: #000000; stroke-width: 0.8"/>
      </g>
     </g>
     <g id="text_3">
      <!-- 10 -->
      <g transform="translate(327.689692 206.838437) scale(0.1 -0.1)">
       <defs>
        <path id="DejaVuSans-31" d="M 794 531 
L 1825 531 
L 1825 4091 
L 703 3866 
L 703 4441 
L 1819 4666 
L 2450 4666 
L 2450 531 
L 3481 531 
L 3481 0 
L 794 0 
L 794 531 
z
" transform="scale(0.015625)"/>
       </defs>
       <use xlink:href="#DejaVuSans-31"/>
       <use xlink:href="#DejaVuSans-30" x="63.623047"/>
      </g>
     </g>
    </g>
    <g id="xtick_4">
     <g id="line2d_5">
      <g>
       <use xlink:href="#m525261cd8d" x="450.544885" y="192.24" style="stroke: #000000; stroke-width: 0.8"/>
      </g>
     </g>
     <g id="text_4">
      <!-- 15 -->
      <g transform="translate(444.182385 206.838437) scale(0.1 -0.1)">
       <use xlink:href="#DejaVuSans-31"/>
       <use xlink:href="#DejaVuSans-35" x="63.623047"/>
      </g>
     </g>
    </g>
    <g id="xtick_5">
     <g id="line2d_6">
      <g>
       <use xlink:href="#m525261cd8d" x="567.037578" y="192.24" style="stroke: #000000; stroke-width: 0.8"/>
      </g>
     </g>
     <g id="text_5">
      <!-- 20 -->
      <g transform="translate(560.675078 206.838437) scale(0.1 -0.1)">
       <defs>
        <path id="DejaVuSans-32" d="M 1228 531 
L 3431 531 
L 3431 0 
L 469 0 
L 469 531 
Q 828 903 1448 1529 
Q 2069 2156 2228 2338 
Q 2531 2678 2651 2914 
Q 2772 3150 2772 3378 
Q 2772 3750 2511 3984 
Q 2250 4219 1831 4219 
Q 1534 4219 1204 4116 
Q 875 4013 500 3803 
L 500 4441 
Q 881 4594 1212 4672 
Q 1544 4750 1819 4750 
Q 2544 4750 2975 4387 
Q 3406 4025 3406 3419 
Q 3406 3131 3298 2873 
Q 3191 2616 2906 2266 
Q 2828 2175 2409 1742 
Q 1991 1309 1228 531 
z
" transform="scale(0.015625)"/>
       </defs>
       <use xlink:href="#DejaVuSans-32"/>
       <use xlink:href="#DejaVuSans-30" x="63.623047"/>
      </g>
     </g>
    </g>
   </g>
   <g id="matplotlib.axis_2">
    <g id="ytick_1">
     <g id="line2d_7">
      <defs>
       <path id="mb901e084f6" d="M 0 0 
L -3.5 0 
" style="stroke: #000000; stroke-width: 0.8"/>
      </defs>
      <g>
       <use xlink:href="#mb901e084f6" x="90" y="192.24" style="stroke: #000000; stroke-width: 0.8"/>
      </g>
     </g>
     <g id="text_6">
      <!-- 0.00 -->
      <g transform="translate(60.734375 196.039219) scale(0.1 -0.1)">
       <defs>
        <path id="DejaVuSans-2e" d="M 684 794 
L 1344 794 
L 1344 0 
L 684 0 
L 684 794 
z
" transform="scale(0.015625)"/>
       </defs>
       <use xlink:href="#DejaVuSans-30"/>
       <use xlink:href="#DejaVuSans-2e" x="63.623047"/>
       <use xlink:href="#DejaVuSans-30" x="95.410156"/>
       <use xlink:href="#DejaVuSans-30" x="159.033203"/>
      </g>
     </g>
    </g>
    <g id="ytick_2">
     <g id="line2d_8">
      <g>
       <use xlink:href="#mb901e084f6" x="90" y="167.207394" style="stroke: #000000; stroke-width: 0.8"/>
      </g>
     </g>
     <g id="text_7">
      <!-- 0.25 -->
      <g transform="translate(60.734375 171.006612) scale(0.1 -0.1)">
       <use xlink:href="#DejaVuSans-30"/>
       <use xlink:href="#DejaVuSans-2e" x="63.623047"/>
       <use xlink:href="#DejaVuSans-32" x="95.410156"/>
       <use xlink:href="#DejaVuSans-35" x="159.033203"/>
      </g>
     </g>
    </g>
    <g id="ytick_3">
     <g id="line2d_9">
      <g>
       <use xlink:href="#mb901e084f6" x="90" y="142.174787" style="stroke: #000000; stroke-width: 0.8"/>
      </g>
     </g>
     <g id="text_8">
      <!-- 0.50 -->
      <g transform="translate(60.734375 145.974006) scale(0.1 -0.1)">
       <use xlink:href="#DejaVuSans-30"/>
       <use xlink:href="#DejaVuSans-2e" x="63.623047"/>
       <use xlink:href="#DejaVuSans-35" x="95.410156"/>
       <use xlink:href="#DejaVuSans-30" x="159.033203"/>
      </g>
     </g>
    </g>
    <g id="ytick_4">
     <g id="line2d_10">
      <g>
       <use xlink:href="#mb901e084f6" x="90" y="117.142181" style="stroke: #000000; stroke-width: 0.8"/>
      </g>
     </g>
     <g id="text_9">
      <!-- 0.75 -->
      <g transform="translate(60.734375 120.9414) scale(0.1 -0.1)">
       <defs>
        <path id="DejaVuSans-37" d="M 525 4666 
L 3525 4666 
L 3525 4397 
L 1831 0 
L 1172 0 
L 2766 4134 
L 525 4134 
L 525 4666 
z
" transform="scale(0.015625)"/>
       </defs>
       <use xlink:href="#DejaVuSans-30"/>
       <use xlink:href="#DejaVuSans-2e" x="63.623047"/>
       <use xlink:href="#DejaVuSans-37" x="95.410156"/>
       <use xlink:href="#DejaVuSans-35" x="159.033203"/>
      </g>
     </g>
    </g>
    <g id="ytick_5">
     <g id="line2d_11">
      <g>
       <use xlink:href="#mb901e084f6" x="90" y="92.109575" style="stroke: #000000; stroke-width: 0.8"/>
      </g>
     </g>
     <g id="text_10">
      <!-- 1.00 -->
      <g transform="translate(60.734375 95.908793) scale(0.1 -0.1)">
       <use xlink:href="#DejaVuSans-31"/>
       <use xlink:href="#DejaVuSans-2e" x="63.623047"/>
       <use xlink:href="#DejaVuSans-30" x="95.410156"/>
       <use xlink:href="#DejaVuSans-30" x="159.033203"/>
      </g>
     </g>
    </g>
    <g id="ytick_6">
     <g id="line2d_12">
      <g>
       <use xlink:href="#mb901e084f6" x="90" y="67.076968" style="stroke: #000000; stroke-width: 0.8"/>
      </g>
     </g>
     <g id="text_11">
      <!-- 1.25 -->
      <g transform="translate(60.734375 70.876187) scale(0.1 -0.1)">
       <use xlink:href="#DejaVuSans-31"/>
       <use xlink:href="#DejaVuSans-2e" x="63.623047"/>
       <use xlink:href="#DejaVuSans-32" x="95.410156"/>
       <use xlink:href="#DejaVuSans-35" x="159.033203"/>
      </g>
     </g>
    </g>
    <g id="ytick_7">
     <g id="line2d_13">
      <g>
       <use xlink:href="#mb901e084f6" x="90" y="42.044362" style="stroke: #000000; stroke-width: 0.8"/>
      </g>
     </g>
     <g id="text_12">
      <!-- 1.50 -->
      <g transform="translate(60.734375 45.843581) scale(0.1 -0.1)">
       <use xlink:href="#DejaVuSans-31"/>
       <use xlink:href="#DejaVuSans-2e" x="63.623047"/>
       <use xlink:href="#DejaVuSans-35" x="95.410156"/>
       <use xlink:href="#DejaVuSans-30" x="159.033203"/>
      </g>
     </g>
    </g>
   </g>
  </g>
 </g>
 <defs>
  <clipPath id="p4acca6ae00">
   <rect x="90" y="25.92" width="558" height="166.32"/>
  </clipPath>
 </defs>
</svg>
