<?xml version="1.0" encoding="utf-8" standalone="no"?>
<!DOCTYPE svg PUBLIC "-//W3C//DTD SVG 1.1//EN"
  "http://www.w3.org/Graphics/SVG/1.1/DTD/svg11.dtd">
<svg xmlns:xlink="http://www.w3.org/1999/xlink" width="720pt" height="216pt" viewBox="0 0 720 216" xmlns="http://www.w3.org/2000/svg" version="1.1">
 <metadata>
  <rdf:RDF xmlns:dc="http://purl.org/dc/elements/1.1/" xmlns:cc="http://creativecommons.org/ns#" xmlns:rdf="http://www.w3.org/1999/02/22-rdf-syntax-ns#">
   <cc:Work>
    <dc:type rdf:resource="http://purl.org/dc/dcmitype/StillImage"/>
    <dc:date>2025-12-17T10:22:15.267852</dc:date>
    <dc:format>image/svg+xml</dc:format>
    <dc:creator>
     <cc:Agent>
      <dc:title>Matplotlib v3.8.2, https://matplotlib.org/</dc:title>
     </cc:Agent>
    </dc:creator>
   </cc:Work>
  </rdf:RDF>
 </metadata>
 <defs>
  <style type="text/css">*{stroke-linejoin: round; stroke-linecap: butt}</style>
 </defs>
 <g id="figure_1">
  <g id="patch_1">
   <path d="M 0 216 
L 720 216 
L 720 0 
L 0 0 
z
" style="fill: #ffffff"/>
  </g>
  <g id="axes_1">
   <g id="patch_2">
    <path d="M 90 192.24 
L 648 192.24 
L 648 25.92 
L 90 25.92 
z
" style="fill: #ffffff"/>
   </g>
   <g id="line2d_1">
    <path d="M 90 192.24 
L 648 192.24 
" clip-path="url(#p2ec637067a)" style="fill: none; stroke: #000000; stroke-width: 0.5; stroke-linecap: square"/>
   </g>
   <g id="patch_3">
    <path d="M 113.098039 191.982795 
Q 110.768564 192.111398 108.263084 192.175992 
Q 105.757605 192.24 103.086473 192.24 
Q 97.050544 192.24 93.525272 191.857129 
Q 90 191.474257 90 190.8195 
Q 90 190.157109 93.587392 189.777174 
Q 97.17996 189.397239 103.428129 189.397239 
Q 105.835254 189.397239 108.04049 189.448915 
Q 110.250903 189.500004 112.207662 189.601006 
L 112.207662 190.16768 
Q 110.188784 190.037903 108.190612 189.973895 
Q 106.19244 189.9093 104.183915 189.9093 
Q 100.467108 189.9093 98.453406 190.145365 
Q 96.439704 190.380843 96.439704 190.8195 
Q 96.439704 191.254048 98.380934 191.491287 
Q 100.322163 191.727939 103.894024 191.727939 
Q 104.867227 191.727939 105.700662 191.714433 
Q 106.534096 191.700339 107.196702 191.670978 
L 107.196702 191.138951 
L 103.391893 191.138951 
L 103.391893 190.66506 
L 113.098039 190.66506 
L 113.098039 191.982795 
z
" clip-path="url(#p2ec637067a)" style="fill: #ffa600"/>
   </g>
   <g id="patch_4">
    <path d="M 113.098039 189.116255 
Q 111.165928 189.255532 109.076687 189.325981 
Q 106.987447 189.397239 104.711979 189.397239 
Q 97.926311 189.397239 93.963156 188.86928 
Q 90 188.34132 90 187.438445 
Q 90 186.53233 93.963156 186.005181 
Q 97.926311 185.477221 104.711979 185.477221 
Q 106.987447 185.477221 109.076687 185.54848 
Q 111.165928 185.618928 113.098039 185.758206 
L 113.098039 186.539618 
Q 111.148469 186.354994 109.257095 186.269161 
Q 107.365722 186.183327 105.276481 186.183327 
Q 101.528651 186.183327 99.381214 186.517755 
Q 97.239597 186.851373 97.239597 187.438445 
Q 97.239597 188.023087 99.381214 188.357515 
Q 101.528651 188.691134 105.276481 188.691134 
Q 107.365722 188.691134 109.257095 188.6053 
Q 111.148469 188.518656 113.098039 188.334032 
L 113.098039 189.116255 
z
" clip-path="url(#p2ec637067a)" style="fill: #0000ff"/>
   </g>
   <g id="patch_5">
    <path d="M 106.000032 184.207095 
L 97.116897 184.207095 
L 95.714297 185.477221 
L 90 185.477221 
L 98.160583 178.504976 
L 104.937456 178.504976 
L 113.098039 185.477221 
L 107.388465 185.477221 
L 106.000032 184.207095 
z
M 98.533665 182.913061 
L 104.569096 182.913061 
L 101.556103 180.139703 
L 98.533665 182.913061 
z
" clip-path="url(#p2ec637067a)" style="fill: #008000"/>
   </g>
   <g id="patch_6">
    <path d="M 90 163.692696 
L 113.098039 163.692696 
L 113.098039 166.581503 
L 104.788117 166.581503 
L 104.788117 178.504976 
L 98.326037 178.504976 
L 98.326037 166.581503 
L 90 166.581503 
L 90 163.692696 
z
" clip-path="url(#p2ec637067a)" style="fill: #ff0000"/>
   </g>
   <g id="patch_7">
    <path d="M 137.411765 191.91688 
Q 135.08229 192.07844 132.57681 192.159589 
Q 130.07133 192.24 127.400199 192.24 
Q 121.36427 192.24 117.838998 191.759009 
Q 114.313725 191.278018 114.313725 190.455465 
Q 114.313725 189.623321 117.901117 189.146019 
Q 121.493685 188.668717 127.741855 188.668717 
Q 130.148979 188.668717 132.354216 188.733636 
Q 134.564629 188.797817 136.521388 188.924704 
L 136.521388 189.6366 
Q 134.502509 189.473565 132.504337 189.393154 
Q 130.506165 189.312005 128.49764 189.312005 
Q 124.780833 189.312005 122.767132 189.608567 
Q 120.75343 189.904391 120.75343 190.455465 
Q 120.75343 191.001375 122.694659 191.299412 
Q 124.635888 191.596712 128.20775 191.596712 
Q 129.180953 191.596712 130.014387 191.579744 
Q 130.847822 191.562039 131.510428 191.525153 
L 131.510428 190.856782 
L 127.705619 190.856782 
L 127.705619 190.261446 
L 137.411765 190.261446 
L 137.411765 191.91688 
z
" clip-path="url(#p2ec637067a)" style="fill: #ffa600"/>
   </g>
   <g id="patch_8">
    <path d="M 137.411765 188.389805 
Q 135.479654 188.528055 133.390413 188.597984 
Q 131.301172 188.668717 129.025704 188.668717 
Q 122.240037 188.668717 118.276881 188.144652 
Q 114.313725 187.620587 114.313725 186.724373 
Q 114.313725 185.824943 118.276881 185.301682 
Q 122.240037 184.777617 129.025704 184.777617 
Q 131.301172 184.777617 133.390413 184.84835 
Q 135.479654 184.918279 137.411765 185.056529 
L 137.411765 185.832177 
Q 135.462195 185.648915 133.570821 185.563714 
Q 131.679447 185.478513 129.590206 185.478513 
Q 125.842376 185.478513 123.69494 185.810474 
Q 121.553323 186.141632 121.553323 186.724373 
Q 121.553323 187.304702 123.69494 187.636663 
Q 125.842376 187.96782 129.590206 187.96782 
Q 131.679447 187.96782 133.570821 187.88262 
Q 135.462195 187.796615 137.411765 187.613353 
L 137.411765 188.389805 
z
" clip-path="url(#p2ec637067a)" style="fill: #0000ff"/>
   </g>
   <g id="patch_9">
    <path d="M 130.313758 182.495744 
L 121.430623 182.495744 
L 120.028023 184.777617 
L 114.313725 184.777617 
L 122.474309 172.251474 
L 129.251182 172.251474 
L 137.411765 184.777617 
L 131.70219 184.777617 
L 130.313758 182.495744 
z
M 122.847391 180.170917 
L 128.882822 180.170917 
L 125.869829 175.188379 
L 122.847391 180.170917 
z
" clip-path="url(#p2ec637067a)" style="fill: #008000"/>
   </g>
   <g id="patch_10">
    <path d="M 114.313725 141.38919 
L 137.411765 141.38919 
L 137.411765 147.408195 
L 129.101842 147.408195 
L 129.101842 172.251474 
L 122.639763 172.251474 
L 122.639763 147.408195 
L 114.313725 147.408195 
L 114.313725 141.38919 
z
" clip-path="url(#p2ec637067a)" style="fill: #ff0000"/>
   </g>
   <g id="patch_11">
    <path d="M 161.72549 192.077318 
Q 159.793379 192.157956 157.704138 192.198743 
Q 155.614898 192.24 153.33943 192.24 
Q 146.553762 192.24 142.590607 191.934326 
Q 138.627451 191.628653 138.627451 191.105913 
Q 138.627451 190.581298 142.590607 190.276094 
Q 146.553762 189.97042 153.33943 189.97042 
Q 155.614898 189.97042 157.704138 190.011677 
Q 159.793379 190.052464 161.72549 190.133102 
L 161.72549 190.585518 
Q 159.77592 190.478626 157.884546 190.42893 
Q 155.993173 190.379235 153.903932 190.379235 
Q 150.156102 190.379235 148.008665 190.57286 
Q 145.867048 190.766015 145.867048 191.105913 
Q 145.867048 191.444405 148.008665 191.638029 
Q 150.156102 191.831185 153.903932 191.831185 
Q 155.993173 191.831185 157.884546 191.78149 
Q 159.77592 191.731325 161.72549 191.624433 
L 161.72549 192.077318 
z
" clip-path="url(#p2ec637067a)" style="fill: #0000ff"/>
   </g>
   <g id="patch_12">
    <path d="M 138.627451 183.885314 
L 161.72549 183.885314 
L 161.72549 185.072079 
L 153.415568 185.072079 
L 153.415568 189.97042 
L 146.953488 189.97042 
L 146.953488 185.072079 
L 138.627451 185.072079 
L 138.627451 183.885314 
z
" clip-path="url(#p2ec637067a)" style="fill: #ff0000"/>
   </g>
   <g id="patch_13">
    <path d="M 161.72549 183.310943 
Q 159.396015 183.598129 156.890535 183.742377 
Q 154.385056 183.885314 151.713924 183.885314 
Q 145.677995 183.885314 142.152723 183.030314 
Q 138.627451 182.175314 138.627451 180.713158 
Q 138.627451 179.233956 142.214843 178.385512 
Q 145.807411 177.537069 152.05558 177.537069 
Q 154.462705 177.537069 156.667941 177.652467 
Q 158.878354 177.766555 160.835113 177.992107 
L 160.835113 179.25756 
Q 158.816235 178.967752 156.818063 178.824814 
Q 154.819891 178.680566 152.811366 178.680566 
Q 149.094559 178.680566 147.080857 179.207729 
Q 145.067155 179.73358 145.067155 180.713158 
Q 145.067155 181.683557 147.008385 182.213343 
Q 148.949614 182.741817 152.521475 182.741817 
Q 153.494678 182.741817 154.328113 182.711656 
Q 155.161547 182.680183 155.824153 182.614616 
L 155.824153 181.426533 
L 152.019344 181.426533 
L 152.019344 180.368273 
L 161.72549 180.368273 
L 161.72549 183.310943 
z
" clip-path="url(#p2ec637067a)" style="fill: #ffa600"/>
   </g>
   <g id="patch_14">
    <path d="M 154.627483 174.499133 
L 145.744348 174.499133 
L 144.341748 177.537069 
L 138.627451 177.537069 
L 146.788034 160.860589 
L 153.564907 160.860589 
L 161.72549 177.537069 
L 156.015916 177.537069 
L 154.627483 174.499133 
z
M 147.161116 171.404013 
L 153.196547 171.404013 
L 150.183554 164.770591 
L 147.161116 171.404013 
z
" clip-path="url(#p2ec637067a)" style="fill: #008000"/>
   </g>
   <g id="patch_15">
    <path d="M 186.039216 192.115084 
Q 184.107105 192.177002 182.017864 192.208321 
Q 179.928623 192.24 177.653155 192.24 
Q 170.867488 192.24 166.904332 192.005287 
Q 162.941176 191.770575 162.941176 191.369188 
Q 162.941176 190.966361 166.904332 190.732008 
Q 170.867488 190.497296 177.653155 190.497296 
Q 179.928623 190.497296 182.017864 190.528975 
Q 184.107105 190.560294 186.039216 190.622212 
L 186.039216 190.969601 
Q 184.089646 190.887523 182.198272 190.849364 
Q 180.306898 190.811206 178.217657 190.811206 
Q 174.469827 190.811206 172.322391 190.959881 
Q 170.180774 191.108196 170.180774 191.369188 
Q 170.180774 191.629099 172.322391 191.777775 
Q 174.469827 191.92609 178.217657 191.92609 
Q 180.306898 191.92609 182.198272 191.887931 
Q 184.089646 191.849412 186.039216 191.767335 
L 186.039216 192.115084 
z
" clip-path="url(#p2ec637067a)" style="fill: #0000ff"/>
   </g>
   <g id="patch_16">
    <path d="M 186.039216 189.891732 
Q 183.709741 190.194514 181.204261 190.346596 
Q 178.698781 190.497296 176.02765 190.497296 
Q 169.991721 190.497296 166.466449 189.595863 
Q 162.941176 188.694431 162.941176 187.152872 
Q 162.941176 185.593339 166.528568 184.69882 
Q 170.121136 183.8043 176.369306 183.8043 
Q 178.77643 183.8043 180.981667 183.925966 
Q 183.19208 184.046249 185.148839 184.28405 
L 185.148839 185.618225 
Q 183.12996 185.312678 181.131788 185.161979 
Q 179.133616 185.009897 177.125091 185.009897 
Q 173.408284 185.009897 171.394583 185.565688 
Q 169.380881 186.120096 169.380881 187.152872 
Q 169.380881 188.17597 171.32211 188.734526 
Q 173.263339 189.291699 176.835201 189.291699 
Q 177.808404 189.291699 178.641838 189.2599 
Q 179.475273 189.226719 180.137879 189.15759 
L 180.137879 187.904987 
L 176.33307 187.904987 
L 176.33307 186.789257 
L 186.039216 186.789257 
L 186.039216 189.891732 
z
" clip-path="url(#p2ec637067a)" style="fill: #ffa600"/>
   </g>
   <g id="patch_17">
    <path d="M 162.941176 172.262041 
L 186.039216 172.262041 
L 186.039216 174.513103 
L 177.729293 174.513103 
L 177.729293 183.8043 
L 171.267214 183.8043 
L 171.267214 174.513103 
L 162.941176 174.513103 
L 162.941176 172.262041 
z
" clip-path="url(#p2ec637067a)" style="fill: #ff0000"/>
   </g>
   <g id="patch_18">
    <path d="M 178.941209 167.122764 
L 170.058074 167.122764 
L 168.655474 172.262041 
L 162.941176 172.262041 
L 171.10176 144.050434 
L 177.878633 144.050434 
L 186.039216 172.262041 
L 180.329641 172.262041 
L 178.941209 167.122764 
z
M 171.474842 161.886748 
L 177.510273 161.886748 
L 174.49728 150.664986 
L 171.474842 161.886748 
z
" clip-path="url(#p2ec637067a)" style="fill: #008000"/>
   </g>
   <g id="patch_19">
    <path d="M 210.352941 192.020497 
Q 208.023466 192.130249 205.517986 192.185375 
Q 203.012506 192.24 200.341375 192.24 
Q 194.305446 192.24 190.780174 191.913251 
Q 187.254902 191.586503 187.254902 191.027723 
Q 187.254902 190.462428 190.842294 190.138185 
Q 194.434862 189.813942 200.683031 189.813942 
Q 203.090156 189.813942 205.295392 189.858043 
Q 207.505805 189.901643 209.462564 189.98784 
L 209.462564 190.471448 
Q 207.443686 190.360694 205.445514 190.306069 
Q 203.447342 190.250943 201.438817 190.250943 
Q 197.72201 190.250943 195.708308 190.452405 
Q 193.694606 190.653365 193.694606 191.027723 
Q 193.694606 191.398572 195.635836 191.601036 
Q 197.577065 191.802999 201.148926 191.802999 
Q 202.122129 191.802999 202.955564 191.791472 
Q 203.788998 191.779445 204.451604 191.754387 
L 204.451604 191.300347 
L 200.646795 191.300347 
L 200.646795 190.895921 
L 210.352941 190.895921 
L 210.352941 192.020497 
z
" clip-path="url(#p2ec637067a)" style="fill: #ffa600"/>
   </g>
   <g id="patch_20">
    <path d="M 210.352941 189.583389 
Q 208.42083 189.697669 206.331589 189.755473 
Q 204.242349 189.813942 201.966881 189.813942 
Q 195.181213 189.813942 191.218058 189.380741 
Q 187.254902 188.947541 187.254902 188.206714 
Q 187.254902 187.46323 191.218058 187.030694 
Q 195.181213 186.597494 201.966881 186.597494 
Q 204.242349 186.597494 206.331589 186.655962 
Q 208.42083 186.713767 210.352941 186.828047 
L 210.352941 187.46921 
Q 208.403371 187.317723 206.511997 187.247295 
Q 204.620624 187.176866 202.531383 187.176866 
Q 198.783553 187.176866 196.636116 187.451271 
Q 194.494499 187.725011 194.494499 188.206714 
Q 194.494499 188.686424 196.636116 188.960829 
Q 198.783553 189.234569 202.531383 189.234569 
Q 204.620624 189.234569 206.511997 189.164141 
Q 208.403371 189.093048 210.352941 188.941561 
L 210.352941 189.583389 
z
" clip-path="url(#p2ec637067a)" style="fill: #0000ff"/>
   </g>
   <g id="patch_21">
    <path d="M 203.254934 185.619599 
L 194.371799 185.619599 
L 192.969199 186.597494 
L 187.254902 186.597494 
L 195.415485 181.229428 
L 202.192358 181.229428 
L 210.352941 186.597494 
L 204.643367 186.597494 
L 203.254934 185.619599 
z
M 195.788567 184.623297 
L 201.823998 184.623297 
L 198.811005 182.488036 
L 195.788567 184.623297 
z
" clip-path="url(#p2ec637067a)" style="fill: #008000"/>
   </g>
   <g id="patch_22">
    <path d="M 187.254902 171.294665 
L 210.352941 171.294665 
L 210.352941 173.232221 
L 202.043019 173.232221 
L 202.043019 181.229428 
L 195.580939 181.229428 
L 195.580939 173.232221 
L 187.254902 173.232221 
L 187.254902 171.294665 
z
" clip-path="url(#p2ec637067a)" style="fill: #ff0000"/>
   </g>
   <g id="patch_23">
    <path d="M 234.666667 191.974548 
Q 232.734556 192.106126 230.645315 192.172681 
Q 228.556074 192.24 226.280606 192.24 
Q 219.494939 192.24 215.531783 191.741225 
Q 211.568627 191.24245 211.568627 190.389483 
Q 211.568627 189.533457 215.531783 189.035447 
Q 219.494939 188.536671 226.280606 188.536671 
Q 228.556074 188.536671 230.645315 188.603991 
Q 232.734556 188.670545 234.666667 188.802124 
L 234.666667 189.540342 
Q 232.717097 189.365923 230.825723 189.284834 
Q 228.934349 189.203745 226.845108 189.203745 
Q 223.097278 189.203745 220.949842 189.519687 
Q 218.808225 189.834864 218.808225 190.389483 
Q 218.808225 190.941808 220.949842 191.25775 
Q 223.097278 191.572927 226.845108 191.572927 
Q 228.934349 191.572927 230.825723 191.491837 
Q 232.717097 191.409983 234.666667 191.235565 
L 234.666667 191.974548 
z
" clip-path="url(#p2ec637067a)" style="fill: #0000ff"/>
   </g>
   <g id="patch_24">
    <path d="M 211.568627 183.162668 
L 234.666667 183.162668 
L 234.666667 184.210749 
L 226.356744 184.210749 
L 226.356744 188.536671 
L 219.894665 188.536671 
L 219.894665 184.210749 
L 211.568627 184.210749 
L 211.568627 183.162668 
z
" clip-path="url(#p2ec637067a)" style="fill: #ff0000"/>
   </g>
   <g id="patch_25">
    <path d="M 234.666667 182.263279 
Q 232.337192 182.712974 229.831712 182.938848 
Q 227.326232 183.162668 224.655101 183.162668 
Q 218.619172 183.162668 215.0939 181.823851 
Q 211.568627 180.485034 211.568627 178.195492 
Q 211.568627 175.879255 215.156019 174.550705 
Q 218.748587 173.222155 224.996757 173.222155 
Q 227.403881 173.222155 229.609118 173.402854 
Q 231.819531 173.5815 233.77629 173.934685 
L 233.77629 175.916217 
Q 231.757411 175.462415 229.759239 175.238594 
Q 227.761067 175.01272 225.752542 175.01272 
Q 222.035735 175.01272 220.022034 175.838187 
Q 218.008332 176.661601 218.008332 178.195492 
Q 218.008332 179.715008 219.949561 180.544582 
Q 221.89079 181.372103 225.462652 181.372103 
Q 226.435855 181.372103 227.269289 181.324875 
Q 228.102724 181.275593 228.76533 181.172923 
L 228.76533 179.312542 
L 224.960521 179.312542 
L 224.960521 177.655447 
L 234.666667 177.655447 
L 234.666667 182.263279 
z
" clip-path="url(#p2ec637067a)" style="fill: #ffa600"/>
   </g>
   <g id="patch_26">
    <path d="M 227.56866 167.008446 
L 218.685525 167.008446 
L 217.282925 173.222155 
L 211.568627 173.222155 
L 219.729211 139.112549 
L 226.506084 139.112549 
L 234.666667 173.222155 
L 228.957092 173.222155 
L 227.56866 167.008446 
z
M 220.102293 160.677774 
L 226.137724 160.677774 
L 223.124731 147.109958 
L 220.102293 160.677774 
z
" clip-path="url(#p2ec637067a)" style="fill: #008000"/>
   </g>
   <g id="patch_27">
    <path d="M 258.980392 192.103734 
Q 257.048281 192.171278 254.95904 192.205443 
Q 252.8698 192.24 250.594332 192.24 
Q 243.808664 192.24 239.845509 191.983961 
Q 235.882353 191.727922 235.882353 191.290063 
Q 235.882353 190.850634 239.845509 190.594988 
Q 243.808664 190.338949 250.594332 190.338949 
Q 252.8698 190.338949 254.95904 190.373506 
Q 257.048281 190.407671 258.980392 190.475215 
L 258.980392 190.854168 
Q 257.030822 190.764633 255.139448 190.723007 
Q 253.248075 190.681381 251.158834 190.681381 
Q 247.411004 190.681381 245.263567 190.843566 
Q 243.12195 191.005357 243.12195 191.290063 
Q 243.12195 191.573591 245.263567 191.735776 
Q 247.411004 191.897567 251.158834 191.897567 
Q 253.248075 191.897567 255.139448 191.855941 
Q 257.030822 191.813923 258.980392 191.724387 
L 258.980392 192.103734 
z
" clip-path="url(#p2ec637067a)" style="fill: #0000ff"/>
   </g>
   <g id="patch_28">
    <path d="M 258.980392 189.861166 
Q 256.650917 190.100057 254.145437 190.220048 
Q 251.639957 190.338949 248.968826 190.338949 
Q 242.932897 190.338949 239.407625 189.627729 
Q 235.882353 188.916509 235.882353 187.700236 
Q 235.882353 186.469782 239.469745 185.764016 
Q 243.062313 185.05825 249.310482 185.05825 
Q 251.717607 185.05825 253.922843 185.154243 
Q 256.133256 185.249145 258.090015 185.436767 
L 258.090015 186.489417 
Q 256.071137 186.248344 254.072965 186.129443 
Q 252.074793 186.009452 250.066268 186.009452 
Q 246.349461 186.009452 244.335759 186.447965 
Q 242.322057 186.885387 242.322057 187.700236 
Q 242.322057 188.507448 244.263286 188.948143 
Q 246.204516 189.387747 249.776377 189.387747 
Q 250.74958 189.387747 251.583015 189.362657 
Q 252.416449 189.336478 253.079055 189.281936 
L 253.079055 188.293646 
L 249.274246 188.293646 
L 249.274246 187.413348 
L 258.980392 187.413348 
L 258.980392 189.861166 
z
" clip-path="url(#p2ec637067a)" style="fill: #ffa600"/>
   </g>
   <g id="patch_29">
    <path d="M 235.882353 176.852857 
L 258.980392 176.852857 
L 258.980392 178.453137 
L 250.67047 178.453137 
L 250.67047 185.05825 
L 244.20839 185.05825 
L 244.20839 178.453137 
L 235.882353 178.453137 
L 235.882353 176.852857 
z
" clip-path="url(#p2ec637067a)" style="fill: #ff0000"/>
   </g>
   <g id="patch_30">
    <path d="M 251.882385 174.00836 
L 242.99925 174.00836 
L 241.59665 176.852857 
L 235.882353 176.852857 
L 244.042936 161.238238 
L 250.819809 161.238238 
L 258.980392 176.852857 
L 253.270818 176.852857 
L 251.882385 174.00836 
z
M 244.416018 171.110318 
L 250.451449 171.110318 
L 247.438456 164.899274 
L 244.416018 171.110318 
z
" clip-path="url(#p2ec637067a)" style="fill: #008000"/>
   </g>
   <g id="patch_31">
    <path d="M 283.294118 192.097552 
Q 281.362007 192.16816 279.272766 192.203875 
Q 277.183525 192.24 274.908057 192.24 
Q 268.12239 192.24 264.159234 191.972345 
Q 260.196078 191.704691 260.196078 191.246969 
Q 260.196078 190.787605 264.159234 190.520361 
Q 268.12239 190.252706 274.908057 190.252706 
Q 277.183525 190.252706 279.272766 190.288831 
Q 281.362007 190.324546 283.294118 190.395154 
L 283.294118 190.791299 
Q 281.344548 190.697702 279.453174 190.654188 
Q 277.5618 190.610674 275.472559 190.610674 
Q 271.724729 190.610674 269.577293 190.780216 
Q 267.435676 190.949347 267.435676 191.246969 
Q 267.435676 191.543359 269.577293 191.712901 
Q 271.724729 191.882033 275.472559 191.882033 
Q 277.5618 191.882033 279.453174 191.838518 
Q 281.344548 191.794593 283.294118 191.700996 
L 283.294118 192.097552 
z
" clip-path="url(#p2ec637067a)" style="fill: #0000ff"/>
   </g>
   <g id="patch_32">
    <path d="M 276.196111 189.178315 
L 267.312976 189.178315 
L 265.910376 190.252706 
L 260.196078 190.252706 
L 268.356661 184.354931 
L 275.133535 184.354931 
L 283.294118 190.252706 
L 277.584543 190.252706 
L 276.196111 189.178315 
z
M 268.729744 188.0837 
L 274.765175 188.0837 
L 271.752182 185.737736 
L 268.729744 188.0837 
z
" clip-path="url(#p2ec637067a)" style="fill: #008000"/>
   </g>
   <g id="patch_33">
    <path d="M 283.294118 183.728515 
Q 280.964643 184.041723 278.459163 184.199042 
Q 275.953683 184.354931 273.282552 184.354931 
Q 267.246623 184.354931 263.721351 183.422458 
Q 260.196078 182.489984 260.196078 180.895339 
Q 260.196078 179.282102 263.78347 178.356779 
Q 267.376038 177.431457 273.624208 177.431457 
Q 276.031332 177.431457 278.236568 177.557312 
Q 280.446981 177.681737 282.403741 177.927727 
L 282.403741 179.307846 
Q 280.384862 178.991777 278.38669 178.835888 
Q 276.388518 178.678569 274.379993 178.678569 
Q 270.663186 178.678569 268.649485 179.253499 
Q 266.635783 179.826999 266.635783 180.895339 
Q 266.635783 181.953668 268.577012 182.531459 
Q 270.518241 183.107819 274.090103 183.107819 
Q 275.063306 183.107819 275.89674 183.074925 
Q 276.730175 183.040601 277.392781 182.969092 
L 277.392781 181.673354 
L 273.587972 181.673354 
L 273.587972 180.519203 
L 283.294118 180.519203 
L 283.294118 183.728515 
z
" clip-path="url(#p2ec637067a)" style="fill: #ffa600"/>
   </g>
   <g id="patch_34">
    <path d="M 260.196078 161.661319 
L 283.294118 161.661319 
L 283.294118 164.736936 
L 274.984195 164.736936 
L 274.984195 177.431457 
L 268.522116 177.431457 
L 268.522116 164.736936 
L 260.196078 164.736936 
L 260.196078 161.661319 
z
" clip-path="url(#p2ec637067a)" style="fill: #ff0000"/>
   </g>
   <g id="patch_35">
    <path d="M 307.607843 191.985859 
Q 305.675732 192.111831 303.586491 192.175549 
Q 301.497251 192.24 299.221783 192.24 
Q 292.436115 192.24 288.47296 191.76248 
Q 284.509804 191.284959 284.509804 190.46834 
Q 284.509804 189.648792 288.47296 189.172004 
Q 292.436115 188.694484 299.221783 188.694484 
Q 301.497251 188.694484 303.586491 188.758934 
Q 305.675732 188.822652 307.607843 188.948624 
L 307.607843 189.655384 
Q 305.658273 189.488398 303.766899 189.410764 
Q 301.875526 189.333131 299.786285 189.333131 
Q 296.038455 189.333131 293.891018 189.635609 
Q 291.749401 189.937355 291.749401 190.46834 
Q 291.749401 190.997128 293.891018 191.299607 
Q 296.038455 191.601353 299.786285 191.601353 
Q 301.875526 191.601353 303.766899 191.523719 
Q 305.658273 191.445353 307.607843 191.278367 
L 307.607843 191.985859 
z
" clip-path="url(#p2ec637067a)" style="fill: #0000ff"/>
   </g>
   <g id="patch_36">
    <path d="M 307.607843 188.121647 
Q 305.278368 188.408065 302.772888 188.551928 
Q 300.267408 188.694484 297.596277 188.694484 
Q 291.560348 188.694484 288.035076 187.841768 
Q 284.509804 186.989053 284.509804 185.530806 
Q 284.509804 184.055556 288.097195 183.20938 
Q 291.689764 182.363204 297.937933 182.363204 
Q 300.345058 182.363204 302.550294 182.478295 
Q 304.760707 182.592077 306.717466 182.817026 
L 306.717466 184.079097 
Q 304.698588 183.790063 302.700416 183.647508 
Q 300.702244 183.503645 298.693719 183.503645 
Q 294.976912 183.503645 292.96321 184.029399 
Q 290.949508 184.553845 290.949508 185.530806 
Q 290.949508 186.498611 292.890737 187.026981 
Q 294.831967 187.554042 298.403828 187.554042 
Q 299.377031 187.554042 300.210466 187.523962 
Q 301.0439 187.492574 301.706506 187.427181 
L 301.706506 186.242273 
L 297.901697 186.242273 
L 297.901697 185.186842 
L 307.607843 185.186842 
L 307.607843 188.121647 
z
" clip-path="url(#p2ec637067a)" style="fill: #ffa600"/>
   </g>
   <g id="patch_37">
    <path d="M 300.509836 181.163708 
L 291.626701 181.163708 
L 290.224101 182.363204 
L 284.509804 182.363204 
L 292.670387 175.778674 
L 299.44726 175.778674 
L 307.607843 182.363204 
L 301.898269 182.363204 
L 300.509836 181.163708 
z
M 293.043469 179.941632 
L 299.0789 179.941632 
L 296.065907 177.322496 
L 293.043469 179.941632 
z
" clip-path="url(#p2ec637067a)" style="fill: #008000"/>
   </g>
   <g id="patch_38">
    <path d="M 284.509804 71.439189 
L 307.607843 71.439189 
L 307.607843 91.788295 
L 299.297921 91.788295 
L 299.297921 175.778674 
L 292.835841 175.778674 
L 292.835841 91.788295 
L 284.509804 91.788295 
L 284.509804 71.439189 
z
" clip-path="url(#p2ec637067a)" style="fill: #ff0000"/>
   </g>
   <g id="patch_39">
    <path d="M 331.921569 192.096353 
Q 329.989458 192.167555 327.900217 192.203571 
Q 325.810976 192.24 323.535508 192.24 
Q 316.749841 192.24 312.786685 191.970092 
Q 308.823529 191.700185 308.823529 191.23861 
Q 308.823529 190.775378 312.786685 190.505885 
Q 316.749841 190.235977 323.535508 190.235977 
Q 325.810976 190.235977 327.900217 190.272406 
Q 329.989458 190.308422 331.921569 190.379624 
L 331.921569 190.779104 
Q 329.971999 190.684719 328.080625 190.640839 
Q 326.189251 190.596958 324.10001 190.596958 
Q 320.35218 190.596958 318.204744 190.767927 
Q 316.063126 190.938482 316.063126 191.23861 
Q 316.063126 191.537495 318.204744 191.708464 
Q 320.35218 191.879019 324.10001 191.879019 
Q 326.189251 191.879019 328.080625 191.835139 
Q 329.971999 191.790844 331.921569 191.696459 
L 331.921569 192.096353 
z
" clip-path="url(#p2ec637067a)" style="fill: #0000ff"/>
   </g>
   <g id="patch_40">
    <path d="M 331.921569 189.90356 
Q 329.592094 190.069769 327.086614 190.153252 
Q 324.581134 190.235977 321.910003 190.235977 
Q 315.874074 190.235977 312.348802 189.741146 
Q 308.823529 189.246316 308.823529 188.400095 
Q 308.823529 187.544007 312.410921 187.052971 
Q 316.003489 186.561935 322.251659 186.561935 
Q 324.658783 186.561935 326.864019 186.628722 
Q 329.074432 186.69475 331.031191 186.825288 
L 331.031191 187.557668 
Q 329.012313 187.389942 327.014141 187.307217 
Q 325.015969 187.223733 323.007444 187.223733 
Q 319.290637 187.223733 317.276936 187.528828 
Q 315.263234 187.833164 315.263234 188.400095 
Q 315.263234 188.961712 317.204463 189.268325 
Q 319.145692 189.574179 322.717554 189.574179 
Q 323.690757 189.574179 324.524191 189.556723 
Q 325.357626 189.538509 326.020232 189.500562 
L 326.020232 188.812959 
L 322.215423 188.812959 
L 322.215423 188.200493 
L 331.921569 188.200493 
L 331.921569 189.90356 
z
" clip-path="url(#p2ec637067a)" style="fill: #ffa600"/>
   </g>
   <g id="patch_41">
    <path d="M 308.823529 166.85571 
L 331.921569 166.85571 
L 331.921569 170.698973 
L 323.611646 170.698973 
L 323.611646 186.561935 
L 317.149567 186.561935 
L 317.149567 170.698973 
L 308.823529 170.698973 
L 308.823529 166.85571 
z
" clip-path="url(#p2ec637067a)" style="fill: #ff0000"/>
   </g>
   <g id="patch_42">
    <path d="M 324.823561 161.805567 
L 315.940427 161.805567 
L 314.537827 166.85571 
L 308.823529 166.85571 
L 316.984112 139.133394 
L 323.760986 139.133394 
L 331.921569 166.85571 
L 326.211994 166.85571 
L 324.823561 161.805567 
z
M 317.357195 156.660362 
L 323.392626 156.660362 
L 320.379633 145.633225 
L 317.357195 156.660362 
z
" clip-path="url(#p2ec637067a)" style="fill: #008000"/>
   </g>
   <g id="patch_43">
    <path d="M 356.235294 191.81401 
Q 353.905819 192.027005 351.400339 192.133989 
Q 348.894859 192.24 346.223728 192.24 
Q 340.187799 192.24 336.662527 191.605877 
Q 333.137255 190.971755 333.137255 189.887327 
Q 333.137255 188.790256 336.724646 188.160996 
Q 340.317215 187.531737 346.565384 187.531737 
Q 348.972509 187.531737 351.177745 187.617324 
Q 353.388158 187.701938 355.344917 187.869222 
L 355.344917 188.807763 
Q 353.326039 188.592822 351.327867 188.486811 
Q 349.329695 188.379827 347.32117 188.379827 
Q 343.604363 188.379827 341.590661 188.770805 
Q 339.576959 189.160809 339.576959 189.887327 
Q 339.576959 190.607037 341.518188 190.99996 
Q 343.459418 191.39191 347.031279 191.39191 
Q 348.004482 191.39191 348.837917 191.36954 
Q 349.671351 191.346198 350.333957 191.297569 
L 350.333957 190.416411 
L 346.529148 190.416411 
L 346.529148 189.631539 
L 356.235294 189.631539 
L 356.235294 191.81401 
z
" clip-path="url(#p2ec637067a)" style="fill: #ffa600"/>
   </g>
   <g id="patch_44">
    <path d="M 356.235294 187.135558 
Q 354.303183 187.331935 352.213942 187.431265 
Q 350.124702 187.531737 347.849234 187.531737 
Q 341.063566 187.531737 337.100411 186.787332 
Q 333.137255 186.042927 333.137255 184.769903 
Q 333.137255 183.492313 337.100411 182.74905 
Q 341.063566 182.004645 347.849234 182.004645 
Q 350.124702 182.004645 352.213942 182.105117 
Q 354.303183 182.204447 356.235294 182.400824 
L 356.235294 183.502589 
Q 354.285724 183.242275 352.39435 183.121252 
Q 350.502976 183.000229 348.413736 183.000229 
Q 344.665906 183.000229 342.518469 183.471762 
Q 340.376852 183.942153 340.376852 184.769903 
Q 340.376852 185.594229 342.518469 186.065762 
Q 344.665906 186.536152 348.413736 186.536152 
Q 350.502976 186.536152 352.39435 186.415129 
Q 354.285724 186.292965 356.235294 186.032652 
L 356.235294 187.135558 
z
" clip-path="url(#p2ec637067a)" style="fill: #0000ff"/>
   </g>
   <g id="patch_45">
    <path d="M 349.137287 180.363829 
L 340.254152 180.363829 
L 338.851552 182.004645 
L 333.137255 182.004645 
L 341.297838 172.997533 
L 348.074711 172.997533 
L 356.235294 182.004645 
L 350.52572 182.004645 
L 349.137287 180.363829 
z
M 341.67092 178.692128 
L 347.706351 178.692128 
L 344.693358 175.109359 
L 341.67092 178.692128 
z
" clip-path="url(#p2ec637067a)" style="fill: #008000"/>
   </g>
   <g id="patch_46">
    <path d="M 333.137255 94.594714 
L 356.235294 94.594714 
L 356.235294 109.885448 
L 347.925372 109.885448 
L 347.925372 172.997533 
L 341.463292 172.997533 
L 341.463292 109.885448 
L 333.137255 109.885448 
L 333.137255 94.594714 
z
" clip-path="url(#p2ec637067a)" style="fill: #ff0000"/>
   </g>
   <g id="patch_47">
    <path d="M 373.451012 192.112963 
L 364.567878 192.112963 
L 363.165278 192.24 
L 357.45098 192.24 
L 365.611563 191.542642 
L 372.388437 191.542642 
L 380.54902 192.24 
L 374.839445 192.24 
L 373.451012 192.112963 
z
M 365.984646 191.983535 
L 372.020077 191.983535 
L 369.007084 191.706146 
L 365.984646 191.983535 
z
" clip-path="url(#p2ec637067a)" style="fill: #008000"/>
   </g>
   <g id="patch_48">
    <path d="M 380.54902 191.447999 
Q 378.219545 191.49532 375.714065 191.519089 
Q 373.208585 191.542642 370.537454 191.542642 
Q 364.501525 191.542642 360.976253 191.401758 
Q 357.45098 191.260875 357.45098 191.019947 
Q 357.45098 190.77621 361.038372 190.636407 
Q 364.63094 190.496604 370.87911 190.496604 
Q 373.286234 190.496604 375.49147 190.515619 
Q 377.701883 190.534418 379.658642 190.571583 
L 379.658642 190.780099 
Q 377.639764 190.732346 375.641592 190.708793 
Q 373.64342 190.685025 371.634895 190.685025 
Q 367.918088 190.685025 365.904386 190.771888 
Q 363.890685 190.858536 363.890685 191.019947 
Q 363.890685 191.179845 365.831914 191.267141 
Q 367.773143 191.354221 371.345005 191.354221 
Q 372.318208 191.354221 373.151642 191.349251 
Q 373.985077 191.344065 374.647683 191.333261 
L 374.647683 191.137494 
L 370.842874 191.137494 
L 370.842874 190.963118 
L 380.54902 190.963118 
L 380.54902 191.447999 
z
" clip-path="url(#p2ec637067a)" style="fill: #ffa600"/>
   </g>
   <g id="patch_49">
    <path d="M 380.54902 190.046728 
Q 378.616908 190.269721 376.527668 190.382514 
Q 374.438427 190.496604 372.162959 190.496604 
Q 365.377292 190.496604 361.414136 189.651303 
Q 357.45098 188.806003 357.45098 187.360435 
Q 357.45098 185.909682 361.414136 185.065678 
Q 365.377292 184.220377 372.162959 184.220377 
Q 374.438427 184.220377 376.527668 184.334467 
Q 378.616908 184.44726 380.54902 184.670254 
L 380.54902 185.92135 
Q 378.59945 185.625754 376.708076 185.488328 
Q 374.816702 185.350902 372.727461 185.350902 
Q 368.979631 185.350902 366.832195 185.886345 
Q 364.690577 186.420492 364.690577 187.360435 
Q 364.690577 188.296489 366.832195 188.831932 
Q 368.979631 189.366079 372.727461 189.366079 
Q 374.816702 189.366079 376.708076 189.228653 
Q 378.59945 189.08993 380.54902 188.794335 
L 380.54902 190.046728 
z
" clip-path="url(#p2ec637067a)" style="fill: #0000ff"/>
   </g>
   <g id="patch_50">
    <path d="M 357.45098 25.92 
L 380.54902 25.92 
L 380.54902 56.792984 
L 372.239097 56.792984 
L 372.239097 184.220377 
L 365.777018 184.220377 
L 365.777018 56.792984 
L 357.45098 56.792984 
L 357.45098 25.92 
z
" clip-path="url(#p2ec637067a)" style="fill: #ff0000"/>
   </g>
   <g id="patch_51">
    <path d="M 404.862745 191.878163 
Q 402.930634 192.057517 400.841393 192.148237 
Q 398.752153 192.24 396.476685 192.24 
Q 389.691017 192.24 385.727862 191.560121 
Q 381.764706 190.880243 381.764706 189.717566 
Q 381.764706 188.550719 385.727862 187.871883 
Q 389.691017 187.192005 396.476685 187.192005 
Q 398.752153 187.192005 400.841393 187.283767 
Q 402.930634 187.374487 404.862745 187.553842 
L 404.862745 188.560104 
Q 402.913175 188.322355 401.021801 188.211823 
Q 399.130427 188.10129 397.041187 188.10129 
Q 393.293357 188.10129 391.14592 188.53195 
Q 389.004303 188.961566 389.004303 189.717566 
Q 389.004303 190.470438 391.14592 190.901098 
Q 393.293357 191.330714 397.041187 191.330714 
Q 399.130427 191.330714 401.021801 191.220182 
Q 402.913175 191.108607 404.862745 190.870858 
L 404.862745 191.878163 
z
" clip-path="url(#p2ec637067a)" style="fill: #0000ff"/>
   </g>
   <g id="patch_52">
    <path d="M 404.862745 186.591046 
Q 402.53327 186.891526 400.02779 187.042451 
Q 397.52231 187.192005 394.851179 187.192005 
Q 388.81525 187.192005 385.289978 186.297427 
Q 381.764706 185.40285 381.764706 183.873013 
Q 381.764706 182.32534 385.352097 181.437623 
Q 388.944666 180.549906 395.192835 180.549906 
Q 397.59996 180.549906 399.805196 180.670646 
Q 402.015609 180.790015 403.972368 181.026007 
L 403.972368 182.350037 
Q 401.95349 182.046813 399.955318 181.89726 
Q 397.957146 181.746334 395.948621 181.746334 
Q 392.231814 181.746334 390.218112 182.297899 
Q 388.20441 182.848091 388.20441 183.873013 
Q 388.20441 184.888331 390.145639 185.44264 
Q 392.086869 185.995576 395.65873 185.995576 
Q 396.631933 185.995576 397.465368 185.964019 
Q 398.298802 185.93109 398.961408 185.862487 
L 398.961408 184.619409 
L 395.156599 184.619409 
L 395.156599 183.512164 
L 404.862745 183.512164 
L 404.862745 186.591046 
z
" clip-path="url(#p2ec637067a)" style="fill: #ffa600"/>
   </g>
   <g id="patch_53">
    <path d="M 381.764706 172.977913 
L 404.862745 172.977913 
L 404.862745 174.454662 
L 396.552823 174.454662 
L 396.552823 180.549906 
L 390.090743 180.549906 
L 390.090743 174.454662 
L 381.764706 174.454662 
L 381.764706 172.977913 
z
" clip-path="url(#p2ec637067a)" style="fill: #ff0000"/>
   </g>
   <g id="patch_54">
    <path d="M 397.764738 164.943621 
L 388.881603 164.943621 
L 387.479003 172.977913 
L 381.764706 172.977913 
L 389.925289 128.874375 
L 396.702162 128.874375 
L 404.862745 172.977913 
L 399.15317 172.977913 
L 397.764738 164.943621 
z
M 390.298371 156.758095 
L 396.333802 156.758095 
L 393.320809 139.214981 
L 390.298371 156.758095 
z
" clip-path="url(#p2ec637067a)" style="fill: #008000"/>
   </g>
   <g id="patch_55">
    <path d="M 429.176471 191.932007 
Q 427.244359 192.084672 425.155119 192.161892 
Q 423.065878 192.24 420.79041 192.24 
Q 414.004743 192.24 410.041587 191.661294 
Q 406.078431 191.082587 406.078431 190.092928 
Q 406.078431 189.099719 410.041587 188.5219 
Q 414.004743 187.943194 420.79041 187.943194 
Q 423.065878 187.943194 425.155119 188.021301 
Q 427.244359 188.098521 429.176471 188.251186 
L 429.176471 189.107707 
Q 427.226901 188.905337 425.335527 188.811253 
Q 423.444153 188.717169 421.354912 188.717169 
Q 417.607082 188.717169 415.459646 189.083742 
Q 413.318028 189.449428 413.318028 190.092928 
Q 413.318028 190.733766 415.459646 191.100339 
Q 417.607082 191.466025 421.354912 191.466025 
Q 423.444153 191.466025 425.335527 191.37194 
Q 427.226901 191.276969 429.176471 191.074599 
L 429.176471 191.932007 
z
" clip-path="url(#p2ec637067a)" style="fill: #0000ff"/>
   </g>
   <g id="patch_56">
    <path d="M 429.176471 187.259507 
Q 426.846996 187.60135 424.341516 187.773053 
Q 421.836036 187.943194 419.164905 187.943194 
Q 413.128976 187.943194 409.603704 186.925469 
Q 406.078431 185.907744 406.078431 184.167309 
Q 406.078431 182.406582 409.665823 181.396662 
Q 413.258391 180.386741 419.506561 180.386741 
Q 421.913685 180.386741 424.118921 180.524103 
Q 426.329334 180.659904 428.286093 180.928383 
L 428.286093 182.434679 
Q 426.267215 182.089714 424.269043 181.919573 
Q 422.270871 181.74787 420.262346 181.74787 
Q 416.545539 181.74787 414.531837 182.375364 
Q 412.518136 183.001296 412.518136 184.167309 
Q 412.518136 185.322396 414.459365 185.953011 
Q 416.400594 186.582064 419.972456 186.582064 
Q 420.945659 186.582064 421.779093 186.546163 
Q 422.612528 186.508701 423.275134 186.430654 
L 423.275134 185.016454 
L 419.470325 185.016454 
L 419.470325 183.756785 
L 429.176471 183.756785 
L 429.176471 187.259507 
z
" clip-path="url(#p2ec637067a)" style="fill: #ffa600"/>
   </g>
   <g id="patch_57">
    <path d="M 406.078431 172.385792 
L 429.176471 172.385792 
L 429.176471 173.9462 
L 420.866548 173.9462 
L 420.866548 180.386741 
L 414.404469 180.386741 
L 414.404469 173.9462 
L 406.078431 173.9462 
L 406.078431 172.385792 
z
" clip-path="url(#p2ec637067a)" style="fill: #ff0000"/>
   </g>
   <g id="patch_58">
    <path d="M 422.078463 163.127815 
L 413.195329 163.127815 
L 411.792729 172.385792 
L 406.078431 172.385792 
L 414.239014 121.564945 
L 421.015888 121.564945 
L 429.176471 172.385792 
L 423.466896 172.385792 
L 422.078463 163.127815 
z
M 414.612097 153.69557 
L 420.647528 153.69557 
L 417.634535 133.480506 
L 414.612097 153.69557 
z
" clip-path="url(#p2ec637067a)" style="fill: #008000"/>
   </g>
   <g id="patch_59">
    <path d="M 453.490196 191.968681 
Q 451.558085 192.103168 449.468844 192.171193 
Q 447.379604 192.24 445.104135 192.24 
Q 438.318468 192.24 434.355312 191.730202 
Q 430.392157 191.220404 430.392157 190.348586 
Q 430.392157 189.473641 434.355312 188.964625 
Q 438.318468 188.454827 445.104135 188.454827 
Q 447.379604 188.454827 449.468844 188.523634 
Q 451.558085 188.591659 453.490196 188.726146 
L 453.490196 189.480678 
Q 451.540626 189.302405 449.649252 189.219524 
Q 447.757878 189.136643 445.668638 189.136643 
Q 441.920808 189.136643 439.773371 189.459567 
Q 437.631754 189.78171 437.631754 190.348586 
Q 437.631754 190.913117 439.773371 191.236042 
Q 441.920808 191.558184 445.668638 191.558184 
Q 447.757878 191.558184 449.649252 191.475303 
Q 451.540626 191.39164 453.490196 191.213367 
L 453.490196 191.968681 
z
" clip-path="url(#p2ec637067a)" style="fill: #0000ff"/>
   </g>
   <g id="patch_60">
    <path d="M 453.490196 188.093329 
Q 451.160721 188.274078 448.655241 188.364865 
Q 446.149761 188.454827 443.47863 188.454827 
Q 437.442701 188.454827 433.917429 187.916707 
Q 430.392157 187.378586 430.392157 186.458335 
Q 430.392157 185.527354 433.979548 184.99336 
Q 437.572117 184.459367 443.820286 184.459367 
Q 446.227411 184.459367 448.432647 184.531996 
Q 450.64306 184.603801 452.599819 184.745759 
L 452.599819 185.54221 
Q 450.580941 185.35981 448.582769 185.269848 
Q 446.584597 185.179061 444.576072 185.179061 
Q 440.859265 185.179061 438.845563 185.510847 
Q 436.831861 185.841807 436.831861 186.458335 
Q 436.831861 187.069085 438.77309 187.402521 
Q 440.71432 187.735132 444.286181 187.735132 
Q 445.259384 187.735132 446.092819 187.71615 
Q 446.926253 187.696341 447.588859 187.655075 
L 447.588859 186.907319 
L 443.78405 186.907319 
L 443.78405 186.241271 
L 453.490196 186.241271 
L 453.490196 188.093329 
z
" clip-path="url(#p2ec637067a)" style="fill: #ffa600"/>
   </g>
   <g id="patch_61">
    <path d="M 446.392189 182.333283 
L 437.509054 182.333283 
L 436.106454 184.459367 
L 430.392157 184.459367 
L 438.55274 172.788416 
L 445.329613 172.788416 
L 453.490196 184.459367 
L 447.780621 184.459367 
L 446.392189 182.333283 
z
M 438.925822 180.167178 
L 444.961253 180.167178 
L 441.94826 175.524811 
L 438.925822 180.167178 
z
" clip-path="url(#p2ec637067a)" style="fill: #008000"/>
   </g>
   <g id="patch_62">
    <path d="M 430.392157 142.086457 
L 453.490196 142.086457 
L 453.490196 148.074195 
L 445.180274 148.074195 
L 445.180274 172.788416 
L 438.718194 172.788416 
L 438.718194 148.074195 
L 430.392157 148.074195 
L 430.392157 142.086457 
z
" clip-path="url(#p2ec637067a)" style="fill: #ff0000"/>
   </g>
   <g id="patch_63">
    <path d="M 470.705914 191.575128 
L 461.82278 191.575128 
L 460.42018 192.24 
L 454.705882 192.24 
L 462.866465 188.590244 
L 469.643339 188.590244 
L 477.803922 192.24 
L 472.094347 192.24 
L 470.705914 191.575128 
z
M 463.239548 190.897741 
L 469.274979 190.897741 
L 466.261986 189.445973 
L 463.239548 190.897741 
z
" clip-path="url(#p2ec637067a)" style="fill: #008000"/>
   </g>
   <g id="patch_64">
    <path d="M 477.803922 188.118502 
Q 475.474447 188.354373 472.968967 188.472847 
Q 470.463487 188.590244 467.792355 188.590244 
Q 461.756427 188.590244 458.231155 187.888016 
Q 454.705882 187.185788 454.705882 185.984891 
Q 454.705882 184.769993 458.293274 184.07315 
Q 461.885842 183.376307 468.134012 183.376307 
Q 470.541136 183.376307 472.746372 183.471086 
Q 474.956785 183.564789 476.913544 183.750039 
L 476.913544 184.78938 
Q 474.894666 184.551355 472.896494 184.433958 
Q 470.898322 184.315484 468.889797 184.315484 
Q 465.17299 184.315484 463.159288 184.748453 
Q 461.145587 185.180344 461.145587 185.984891 
Q 461.145587 186.781899 463.086816 187.217022 
Q 465.028045 187.651068 468.599907 187.651068 
Q 469.57311 187.651068 470.406544 187.626296 
Q 471.239979 187.600447 471.902585 187.546595 
L 471.902585 186.570799 
L 468.097776 186.570799 
L 468.097776 185.70163 
L 477.803922 185.70163 
L 477.803922 188.118502 
z
" clip-path="url(#p2ec637067a)" style="fill: #ffa600"/>
   </g>
   <g id="patch_65">
    <path d="M 477.803922 182.871769 
Q 475.87181 183.121857 473.78257 183.248355 
Q 471.693329 183.376307 469.417861 183.376307 
Q 462.632194 183.376307 458.669038 182.428299 
Q 454.705882 181.480291 454.705882 179.859081 
Q 454.705882 178.232055 458.669038 177.2855 
Q 462.632194 176.337492 469.417861 176.337492 
Q 471.693329 176.337492 473.78257 176.465444 
Q 475.87181 176.591942 477.803922 176.84203 
L 477.803922 178.245141 
Q 475.854352 177.913629 473.962978 177.759505 
Q 472.071604 177.605381 469.982363 177.605381 
Q 466.234533 177.605381 464.087097 178.205883 
Q 461.945479 178.804931 461.945479 179.859081 
Q 461.945479 180.908869 464.087097 181.509371 
Q 466.234533 182.108419 469.982363 182.108419 
Q 472.071604 182.108419 473.962978 181.954295 
Q 475.854352 181.798717 477.803922 181.467205 
L 477.803922 182.871769 
z
" clip-path="url(#p2ec637067a)" style="fill: #0000ff"/>
   </g>
   <g id="patch_66">
    <path d="M 454.705882 67.887604 
L 477.803922 67.887604 
L 477.803922 89.038354 
L 469.493999 89.038354 
L 469.493999 176.337492 
L 463.03192 176.337492 
L 463.03192 89.038354 
L 454.705882 89.038354 
L 454.705882 67.887604 
z
" clip-path="url(#p2ec637067a)" style="fill: #ff0000"/>
   </g>
   <g id="patch_67">
    <path d="M 495.01964 191.31177 
L 486.136505 191.31177 
L 484.733905 192.24 
L 479.019608 192.24 
L 487.180191 187.144565 
L 493.957064 187.144565 
L 502.117647 192.24 
L 496.408072 192.24 
L 495.01964 191.31177 
z
M 487.553273 190.366068 
L 493.588704 190.366068 
L 490.575711 188.339252 
L 487.553273 190.366068 
z
" clip-path="url(#p2ec637067a)" style="fill: #008000"/>
   </g>
   <g id="patch_68">
    <path d="M 502.117647 186.529871 
Q 499.788172 186.837218 497.282692 186.991594 
Q 494.777212 187.144565 492.106081 187.144565 
Q 486.070152 187.144565 482.54488 186.229541 
Q 479.019608 185.314517 479.019608 183.749714 
Q 479.019608 182.166666 482.606999 181.25866 
Q 486.199568 180.350653 492.447737 180.350653 
Q 494.854862 180.350653 497.060098 180.474153 
Q 499.270511 180.59625 501.22727 180.837636 
L 501.22727 182.191928 
Q 499.208392 181.881774 497.21022 181.728802 
Q 495.212048 181.574427 493.203523 181.574427 
Q 489.486716 181.574427 487.473014 182.138598 
Q 485.459312 182.701366 485.459312 183.749714 
Q 485.459312 184.788238 487.400541 185.355216 
Q 489.341771 185.920791 492.913632 185.920791 
Q 493.886835 185.920791 494.72027 185.888513 
Q 495.553704 185.854831 496.21631 185.78466 
L 496.21631 184.51317 
L 492.411501 184.51317 
L 492.411501 183.380617 
L 502.117647 183.380617 
L 502.117647 186.529871 
z
" clip-path="url(#p2ec637067a)" style="fill: #ffa600"/>
   </g>
   <g id="patch_69">
    <path d="M 502.117647 179.786194 
Q 500.185536 180.065983 498.096295 180.207505 
Q 496.007055 180.350653 493.731586 180.350653 
Q 486.945919 180.350653 482.982763 179.290057 
Q 479.019608 178.229461 479.019608 176.415711 
Q 479.019608 174.595455 482.982763 173.536486 
Q 486.945919 172.47589 493.731586 172.47589 
Q 496.007055 172.47589 498.096295 172.619038 
Q 500.185536 172.760559 502.117647 173.040348 
L 502.117647 174.610096 
Q 500.168077 174.239212 498.276703 174.066784 
Q 496.385329 173.894356 494.296089 173.894356 
Q 490.548259 173.894356 488.400822 174.566175 
Q 486.259205 175.236368 486.259205 176.415711 
Q 486.259205 177.590175 488.400822 178.261994 
Q 490.548259 178.932187 494.296089 178.932187 
Q 496.385329 178.932187 498.276703 178.759759 
Q 500.168077 178.585704 502.117647 178.214821 
L 502.117647 179.786194 
z
" clip-path="url(#p2ec637067a)" style="fill: #0000ff"/>
   </g>
   <g id="patch_70">
    <path d="M 479.019608 118.587809 
L 502.117647 118.587809 
L 502.117647 129.097486 
L 493.807725 129.097486 
L 493.807725 172.47589 
L 487.345645 172.47589 
L 487.345645 129.097486 
L 479.019608 129.097486 
L 479.019608 118.587809 
z
" clip-path="url(#p2ec637067a)" style="fill: #ff0000"/>
   </g>
   <g id="patch_71">
    <path d="M 526.431373 191.901741 
Q 524.499261 192.069408 522.410021 192.154217 
Q 520.32078 192.24 518.045312 192.24 
Q 511.259645 192.24 507.296489 191.604424 
Q 503.333333 190.968849 503.333333 189.881936 
Q 503.333333 188.791125 507.296489 188.156524 
Q 511.259645 187.520948 518.045312 187.520948 
Q 520.32078 187.520948 522.410021 187.606731 
Q 524.499261 187.69154 526.431373 187.859207 
L 526.431373 188.799898 
Q 524.481803 188.577641 522.590429 188.474312 
Q 520.699055 188.370982 518.609814 188.370982 
Q 514.861984 188.370982 512.714548 188.773578 
Q 510.57293 189.175199 510.57293 189.881936 
Q 510.57293 190.585749 512.714548 190.988345 
Q 514.861984 191.389966 518.609814 191.389966 
Q 520.699055 191.389966 522.590429 191.286636 
Q 524.481803 191.182332 526.431373 190.960075 
L 526.431373 191.901741 
z
" clip-path="url(#p2ec637067a)" style="fill: #0000ff"/>
   </g>
   <g id="patch_72">
    <path d="M 503.333333 181.894386 
L 526.431373 181.894386 
L 526.431373 182.991722 
L 518.12145 182.991722 
L 518.12145 187.520948 
L 511.659371 187.520948 
L 511.659371 182.991722 
L 503.333333 182.991722 
L 503.333333 181.894386 
z
" clip-path="url(#p2ec637067a)" style="fill: #ff0000"/>
   </g>
   <g id="patch_73">
    <path d="M 526.431373 181.024031 
Q 524.101898 181.459209 521.596418 181.677791 
Q 519.090938 181.894386 516.419806 181.894386 
Q 510.383878 181.894386 506.858606 180.598789 
Q 503.333333 179.303193 503.333333 177.087564 
Q 503.333333 174.846102 506.920725 173.560441 
Q 510.513293 172.27478 516.761463 172.27478 
Q 519.168587 172.27478 521.373823 172.449646 
Q 523.584236 172.622525 525.540995 172.964308 
L 525.540995 174.88187 
Q 523.522117 174.442719 521.523945 174.226123 
Q 519.525773 174.007541 517.517248 174.007541 
Q 513.800441 174.007541 511.786739 174.80636 
Q 509.773038 175.603192 509.773038 177.087564 
Q 509.773038 178.558026 511.714267 179.360819 
Q 513.655496 180.161625 517.227358 180.161625 
Q 518.200561 180.161625 519.033995 180.115921 
Q 519.86743 180.068231 520.530036 179.968875 
L 520.530036 178.168552 
L 516.725227 178.168552 
L 516.725227 176.564953 
L 526.431373 176.564953 
L 526.431373 181.024031 
z
" clip-path="url(#p2ec637067a)" style="fill: #ffa600"/>
   </g>
   <g id="patch_74">
    <path d="M 519.333365 160.140286 
L 510.450231 160.140286 
L 509.047631 172.27478 
L 503.333333 172.27478 
L 511.493916 105.663546 
L 518.270789 105.663546 
L 526.431373 172.27478 
L 520.721798 172.27478 
L 519.333365 160.140286 
z
M 511.866999 147.777378 
L 517.90243 147.777378 
L 514.889437 121.281354 
L 511.866999 147.777378 
z
" clip-path="url(#p2ec637067a)" style="fill: #008000"/>
   </g>
   <g id="patch_75">
    <path d="M 543.647091 191.664303 
L 534.763956 191.664303 
L 533.361356 192.24 
L 527.647059 192.24 
L 535.807642 189.079762 
L 542.584515 189.079762 
L 550.745098 192.24 
L 545.035523 192.24 
L 543.647091 191.664303 
z
M 536.180724 191.077769 
L 542.216155 191.077769 
L 539.203162 189.820718 
L 536.180724 191.077769 
z
" clip-path="url(#p2ec637067a)" style="fill: #008000"/>
   </g>
   <g id="patch_76">
    <path d="M 550.745098 188.603213 
Q 548.415623 188.841487 545.910143 188.961169 
Q 543.404663 189.079762 540.733532 189.079762 
Q 534.697603 189.079762 531.172331 188.370378 
Q 527.647059 187.660995 527.647059 186.447862 
Q 527.647059 185.220585 531.23445 184.516642 
Q 534.827019 183.812698 541.075188 183.812698 
Q 543.482313 183.812698 545.687549 183.908443 
Q 547.897962 184.0031 549.854721 184.190238 
L 549.854721 185.240169 
Q 547.835843 184.999719 545.837671 184.881126 
Q 543.839499 184.761444 541.830974 184.761444 
Q 538.114167 184.761444 536.100465 185.198825 
Q 534.086763 185.635118 534.086763 186.447862 
Q 534.086763 187.252991 536.027992 187.692547 
Q 537.969222 188.131016 541.541083 188.131016 
Q 542.514286 188.131016 543.347721 188.105992 
Q 544.181155 188.079879 544.843761 188.025479 
L 544.843761 187.03974 
L 541.038952 187.03974 
L 541.038952 186.161715 
L 550.745098 186.161715 
L 550.745098 188.603213 
z
" clip-path="url(#p2ec637067a)" style="fill: #ffa600"/>
   </g>
   <g id="patch_77">
    <path d="M 550.745098 183.284142 
Q 548.812987 183.546136 546.723746 183.678655 
Q 544.634506 183.812698 542.359037 183.812698 
Q 535.57337 183.812698 531.610214 182.819561 
Q 527.647059 181.826425 527.647059 180.128039 
Q 527.647059 178.42356 531.610214 177.431946 
Q 535.57337 176.438809 542.359037 176.438809 
Q 544.634506 176.438809 546.723746 176.572852 
Q 548.812987 176.705372 550.745098 176.967365 
L 550.745098 178.437269 
Q 548.795528 178.089976 546.904154 177.928515 
Q 545.01278 177.767054 542.92354 177.767054 
Q 539.17571 177.767054 537.028273 178.396142 
Q 534.886656 179.023707 534.886656 180.128039 
Q 534.886656 181.227801 537.028273 181.856889 
Q 539.17571 182.484454 542.92354 182.484454 
Q 545.01278 182.484454 546.904154 182.322993 
Q 548.795528 182.160009 550.745098 181.812716 
L 550.745098 183.284142 
z
" clip-path="url(#p2ec637067a)" style="fill: #0000ff"/>
   </g>
   <g id="patch_78">
    <path d="M 527.647059 66.620535 
L 550.745098 66.620535 
L 550.745098 88.038158 
L 542.435176 88.038158 
L 542.435176 176.438809 
L 535.973096 176.438809 
L 535.973096 88.038158 
L 527.647059 88.038158 
L 527.647059 66.620535 
z
" clip-path="url(#p2ec637067a)" style="fill: #ff0000"/>
   </g>
   <g id="patch_79">
    <path d="M 575.058824 192.054179 
Q 572.729348 192.147089 570.223869 192.193757 
Q 567.718389 192.24 565.047257 192.24 
Q 559.011329 192.24 555.486057 191.963389 
Q 551.960784 191.686779 551.960784 191.213741 
Q 551.960784 190.735187 555.548176 190.460698 
Q 559.140744 190.186209 565.388914 190.186209 
Q 567.796038 190.186209 570.001274 190.223543 
Q 572.211687 190.260452 574.168446 190.333423 
L 574.168446 190.742824 
Q 572.149568 190.649065 570.151396 190.602822 
Q 568.153224 190.556154 566.144699 190.556154 
Q 562.427892 190.556154 560.41419 190.726702 
Q 558.400489 190.896826 558.400489 191.213741 
Q 558.400489 191.527685 560.341718 191.699082 
Q 562.282947 191.870055 565.854809 191.870055 
Q 566.828012 191.870055 567.661446 191.860297 
Q 568.494881 191.850115 569.157487 191.828902 
L 569.157487 191.444532 
L 565.352678 191.444532 
L 565.352678 191.102163 
L 575.058824 191.102163 
L 575.058824 192.054179 
z
" clip-path="url(#p2ec637067a)" style="fill: #ffa600"/>
   </g>
   <g id="patch_80">
    <path d="M 575.058824 190.003746 
Q 573.126712 190.094188 571.037472 190.139936 
Q 568.948231 190.186209 566.672763 190.186209 
Q 559.887096 190.186209 555.92394 189.843367 
Q 551.960784 189.500526 551.960784 188.914225 
Q 551.960784 188.325821 555.92394 187.983506 
Q 559.887096 187.640664 566.672763 187.640664 
Q 568.948231 187.640664 571.037472 187.686938 
Q 573.126712 187.732685 575.058824 187.823128 
L 575.058824 188.330554 
Q 573.109254 188.210664 571.21788 188.154926 
Q 569.326506 188.099188 567.237265 188.099188 
Q 563.489435 188.099188 561.341999 188.316356 
Q 559.200381 188.532998 559.200381 188.914225 
Q 559.200381 189.293875 561.341999 189.511043 
Q 563.489435 189.727685 567.237265 189.727685 
Q 569.326506 189.727685 571.21788 189.671947 
Q 573.109254 189.615683 575.058824 189.495794 
L 575.058824 190.003746 
z
" clip-path="url(#p2ec637067a)" style="fill: #0000ff"/>
   </g>
   <g id="patch_81">
    <path d="M 567.960816 187.082094 
L 559.077682 187.082094 
L 557.675081 187.640664 
L 551.960784 187.640664 
L 560.121367 184.574441 
L 566.89824 184.574441 
L 575.058824 187.640664 
L 569.349249 187.640664 
L 567.960816 187.082094 
z
M 560.49445 186.513009 
L 566.529881 186.513009 
L 563.516888 185.293354 
L 560.49445 186.513009 
z
" clip-path="url(#p2ec637067a)" style="fill: #008000"/>
   </g>
   <g id="patch_82">
    <path d="M 551.960784 178.441993 
L 575.058824 178.441993 
L 575.058824 179.637991 
L 566.748901 179.637991 
L 566.748901 184.574441 
L 560.286822 184.574441 
L 560.286822 179.637991 
L 551.960784 179.637991 
L 551.960784 178.441993 
z
" clip-path="url(#p2ec637067a)" style="fill: #ff0000"/>
   </g>
   <g id="patch_83">
    <path d="M 599.372549 192.104357 
Q 597.440438 192.171592 595.351197 192.205601 
Q 593.261957 192.24 590.986488 192.24 
Q 584.200821 192.24 580.237665 191.985132 
Q 576.27451 191.730264 576.27451 191.294409 
Q 576.27451 190.85699 580.237665 190.602513 
Q 584.200821 190.347645 590.986488 190.347645 
Q 593.261957 190.347645 595.351197 190.382045 
Q 597.440438 190.416053 599.372549 190.483288 
L 599.372549 190.860508 
Q 597.422979 190.771383 595.531605 190.729947 
Q 593.640231 190.688511 591.550991 190.688511 
Q 587.803161 190.688511 585.655724 190.849954 
Q 583.514107 191.011005 583.514107 191.294409 
Q 583.514107 191.57664 585.655724 191.738082 
Q 587.803161 191.899134 591.550991 191.899134 
Q 593.640231 191.899134 595.531605 191.857698 
Q 597.422979 191.815872 599.372549 191.726746 
L 599.372549 192.104357 
z
" clip-path="url(#p2ec637067a)" style="fill: #0000ff"/>
   </g>
   <g id="patch_84">
    <path d="M 576.27451 185.64728 
L 599.372549 185.64728 
L 599.372549 186.563982 
L 591.062627 186.563982 
L 591.062627 190.347645 
L 584.600547 190.347645 
L 584.600547 186.563982 
L 576.27451 186.563982 
L 576.27451 185.64728 
z
" clip-path="url(#p2ec637067a)" style="fill: #ff0000"/>
   </g>
   <g id="patch_85">
    <path d="M 592.274542 184.101564 
L 583.391407 184.101564 
L 581.988807 185.64728 
L 576.27451 185.64728 
L 584.435093 177.162206 
L 591.211966 177.162206 
L 599.372549 185.64728 
L 593.662974 185.64728 
L 592.274542 184.101564 
z
M 584.808175 182.526751 
L 590.843606 182.526751 
L 587.830613 179.151634 
L 584.808175 182.526751 
z
" clip-path="url(#p2ec637067a)" style="fill: #008000"/>
   </g>
   <g id="patch_86">
    <path d="M 599.372549 175.891902 
Q 597.043074 176.527054 594.537594 176.84608 
Q 592.032114 177.162206 589.360983 177.162206 
Q 583.325054 177.162206 579.799782 175.271251 
Q 576.27451 173.380296 576.27451 170.146531 
Q 576.27451 166.875062 579.861901 164.998608 
Q 583.45447 163.122155 589.702639 163.122155 
Q 592.109763 163.122155 594.315 163.377376 
Q 596.525413 163.629696 598.482172 164.128537 
L 598.482172 166.927267 
Q 596.463294 166.286314 594.465122 165.970188 
Q 592.46695 165.651162 590.458425 165.651162 
Q 586.741618 165.651162 584.727916 166.817058 
Q 582.714214 167.980053 582.714214 170.146531 
Q 582.714214 172.292707 584.655443 173.464403 
Q 586.596673 174.633198 590.168534 174.633198 
Q 591.141737 174.633198 591.975172 174.566493 
Q 592.808606 174.496887 593.471212 174.351875 
L 593.471212 171.72426 
L 589.666403 171.72426 
L 589.666403 169.383768 
L 599.372549 169.383768 
L 599.372549 175.891902 
z
" clip-path="url(#p2ec637067a)" style="fill: #ffa600"/>
   </g>
   <g id="patch_87">
    <path d="M 623.686275 192.081072 
Q 621.754163 192.159849 619.664923 192.199695 
Q 617.575682 192.24 615.300214 192.24 
Q 608.514547 192.24 604.551391 191.94138 
Q 600.588235 191.642759 600.588235 191.132081 
Q 600.588235 190.619572 604.551391 190.321409 
Q 608.514547 190.022789 615.300214 190.022789 
Q 617.575682 190.022789 619.664923 190.063093 
Q 621.754163 190.10294 623.686275 190.181717 
L 623.686275 190.623694 
Q 621.736705 190.519268 619.845331 190.470719 
Q 617.953957 190.422171 615.864716 190.422171 
Q 612.116886 190.422171 609.96945 190.611327 
Q 607.827832 190.800026 607.827832 191.132081 
Q 607.827832 191.462762 609.96945 191.651919 
Q 612.116886 191.840618 615.864716 191.840618 
Q 617.953957 191.840618 619.845331 191.792069 
Q 621.736705 191.743063 623.686275 191.638637 
L 623.686275 192.081072 
z
" clip-path="url(#p2ec637067a)" style="fill: #0000ff"/>
   </g>
   <g id="patch_88">
    <path d="M 623.686275 189.629933 
Q 621.356799 189.826361 618.85132 189.925023 
Q 616.34584 190.022789 613.674708 190.022789 
Q 607.63878 190.022789 604.113508 189.43799 
Q 600.588235 188.853192 600.588235 187.853115 
Q 600.588235 186.841377 604.175627 186.261063 
Q 607.768195 185.68075 614.016365 185.68075 
Q 616.423489 185.68075 618.628725 185.75968 
Q 620.839138 185.837712 622.795897 185.991984 
L 622.795897 186.857522 
Q 620.777019 186.6593 618.778847 186.561535 
Q 616.780675 186.462873 614.77215 186.462873 
Q 611.055343 186.462873 609.041641 186.823439 
Q 607.02794 187.183108 607.02794 187.853115 
Q 607.02794 188.516843 608.969169 188.879203 
Q 610.910398 189.240666 614.48226 189.240666 
Q 615.455463 189.240666 616.288897 189.220036 
Q 617.122331 189.19851 617.784938 189.153663 
L 617.784938 188.341045 
L 613.980128 188.341045 
L 613.980128 187.617222 
L 623.686275 187.617222 
L 623.686275 189.629933 
z
" clip-path="url(#p2ec637067a)" style="fill: #ffa600"/>
   </g>
   <g id="patch_89">
    <path d="M 600.588235 171.638411 
L 623.686275 171.638411 
L 623.686275 174.377058 
L 615.376352 174.377058 
L 615.376352 185.68075 
L 608.914273 185.68075 
L 608.914273 174.377058 
L 600.588235 174.377058 
L 600.588235 171.638411 
z
" clip-path="url(#p2ec637067a)" style="fill: #ff0000"/>
   </g>
   <g id="patch_90">
    <path d="M 616.588267 167.363729 
L 607.705133 167.363729 
L 606.302532 171.638411 
L 600.588235 171.638411 
L 608.748818 148.172924 
L 615.525691 148.172924 
L 623.686275 171.638411 
L 617.9767 171.638411 
L 616.588267 167.363729 
z
M 609.121901 163.008583 
L 615.157332 163.008583 
L 612.144339 153.67469 
L 609.121901 163.008583 
z
" clip-path="url(#p2ec637067a)" style="fill: #008000"/>
   </g>
   <g id="patch_91">
    <path d="M 648 192.168324 
Q 646.067889 192.203852 643.978648 192.221823 
Q 641.889408 192.24 639.613939 192.24 
Q 632.828272 192.24 628.865116 192.105324 
Q 624.901961 191.970648 624.901961 191.740336 
Q 624.901961 191.509197 628.865116 191.374727 
Q 632.828272 191.240051 639.613939 191.240051 
Q 641.889408 191.240051 643.978648 191.258228 
Q 646.067889 191.276199 648 191.311727 
L 648 191.511056 
Q 646.05043 191.463961 644.159056 191.442065 
Q 642.267682 191.42017 640.178442 191.42017 
Q 636.430612 191.42017 634.283175 191.505479 
Q 632.141558 191.590581 632.141558 191.740336 
Q 632.141558 191.889471 634.283175 191.974779 
Q 636.430612 192.059881 640.178442 192.059881 
Q 642.267682 192.059881 644.159056 192.037986 
Q 646.05043 192.015884 648 191.968789 
L 648 192.168324 
z
" clip-path="url(#p2ec637067a)" style="fill: #0000ff"/>
   </g>
   <g id="patch_92">
    <path d="M 624.901961 189.656799 
L 648 189.656799 
L 648 189.965578 
L 639.690078 189.965578 
L 639.690078 191.240051 
L 633.227998 191.240051 
L 633.227998 189.965578 
L 624.901961 189.965578 
L 624.901961 189.656799 
z
" clip-path="url(#p2ec637067a)" style="fill: #ff0000"/>
   </g>
   <g id="patch_93">
    <path d="M 648 189.509782 
Q 645.670525 189.58329 643.165045 189.620213 
Q 640.659565 189.656799 637.988434 189.656799 
Q 631.952505 189.656799 628.427233 189.437951 
Q 624.901961 189.219102 624.901961 188.844845 
Q 624.901961 188.466223 628.489352 188.249053 
Q 632.081921 188.031883 638.33009 188.031883 
Q 640.737214 188.031883 642.942451 188.061421 
Q 645.152864 188.090623 647.109623 188.148356 
L 647.109623 188.472265 
Q 645.090745 188.398085 643.092573 188.361498 
Q 641.094401 188.324576 639.085875 188.324576 
Q 635.369069 188.324576 633.355367 188.45951 
Q 631.341665 188.594109 631.341665 188.844845 
Q 631.341665 189.093231 633.282894 189.228836 
Q 635.224124 189.364106 638.795985 189.364106 
Q 639.769188 189.364106 640.602623 189.356386 
Q 641.436057 189.34833 642.098663 189.331548 
L 642.098663 189.027442 
L 638.293854 189.027442 
L 638.293854 188.756567 
L 648 188.756567 
L 648 189.509782 
z
" clip-path="url(#p2ec637067a)" style="fill: #ffa600"/>
   </g>
   <g id="patch_94">
    <path d="M 640.901993 187.591664 
L 632.018858 187.591664 
L 630.616258 188.031883 
L 624.901961 188.031883 
L 633.062544 185.61534 
L 639.839417 185.61534 
L 648 188.031883 
L 642.290425 188.031883 
L 640.901993 187.591664 
z
M 633.435626 187.143159 
L 639.471057 187.143159 
L 636.458064 186.181928 
L 633.435626 187.143159 
z
" clip-path="url(#p2ec637067a)" style="fill: #008000"/>
   </g>
   <g id="matplotlib.axis_1">
    <g id="xtick_1">
     <g id="line2d_2">
      <defs>
       <path id="m5b99536f96" d="M 0 0 
L 0 3.5 
" style="stroke: #000000; stroke-width: 0.8"/>
      </defs>
      <g>
       <use xlink:href="#m5b99536f96" x="101.54902" y="192.24" style="stroke: #000000; stroke-width: 0.8"/>
      </g>
     </g>
     <g id="text_1">
      <!-- 0 -->
      <g transform="translate(98.36777 206.838437) scale(0.1 -0.1)">
       <defs>
        <path id="DejaVuSans-30" d="M 2034 4250 
Q 1547 4250 1301 3770 
Q 1056 3291 1056 2328 
Q 1056 1369 1301 889 
Q 1547 409 2034 409 
Q 2525 409 2770 889 
Q 3016 1369 3016 2328 
Q 3016 3291 2770 3770 
Q 2525 4250 2034 4250 
z
M 2034 4750 
Q 2819 4750 3233 4129 
Q 3647 3509 3647 2328 
Q 3647 1150 3233 529 
Q 2819 -91 2034 -91 
Q 1250 -91 836 529 
Q 422 1150 422 2328 
Q 422 3509 836 4129 
Q 1250 4750 2034 4750 
z
" transform="scale(0.015625)"/>
       </defs>
       <use xlink:href="#DejaVuSans-30"/>
      </g>
     </g>
    </g>
    <g id="xtick_2">
     <g id="line2d_3">
      <g>
       <use xlink:href="#m5b99536f96" x="223.117647" y="192.24" style="stroke: #000000; stroke-width: 0.8"/>
      </g>
     </g>
     <g id="text_2">
      <!-- 5 -->
      <g transform="translate(219.936397 206.838437) scale(0.1 -0.1)">
       <defs>
        <path id="DejaVuSans-35" d="M 691 4666 
L 3169 4666 
L 3169 4134 
L 1269 4134 
L 1269 2991 
Q 1406 3038 1543 3061 
Q 1681 3084 1819 3084 
Q 2600 3084 3056 2656 
Q 3513 2228 3513 1497 
Q 3513 744 3044 326 
Q 2575 -91 1722 -91 
Q 1428 -91 1123 -41 
Q 819 9 494 109 
L 494 744 
Q 775 591 1075 516 
Q 1375 441 1709 441 
Q 2250 441 2565 725 
Q 2881 1009 2881 1497 
Q 2881 1984 2565 2268 
Q 2250 2553 1709 2553 
Q 1456 2553 1204 2497 
Q 953 2441 691 2322 
L 691 4666 
z
" transform="scale(0.015625)"/>
       </defs>
       <use xlink:href="#DejaVuSans-35"/>
      </g>
     </g>
    </g>
    <g id="xtick_3">
     <g id="line2d_4">
      <g>
       <use xlink:href="#m5b99536f96" x="344.686275" y="192.24" style="stroke: #000000; stroke-width: 0.8"/>
      </g>
     </g>
     <g id="text_3">
      <!-- 10 -->
      <g transform="translate(338.323775 206.838437) scale(0.1 -0.1)">
       <defs>
        <path id="DejaVuSans-31" d="M 794 531 
L 1825 531 
L 1825 4091 
L 703 3866 
L 703 4441 
L 1819 4666 
L 2450 4666 
L 2450 531 
L 3481 531 
L 3481 0 
L 794 0 
L 794 531 
z
" transform="scale(0.015625)"/>
       </defs>
       <use xlink:href="#DejaVuSans-31"/>
       <use xlink:href="#DejaVuSans-30" x="63.623047"/>
      </g>
     </g>
    </g>
    <g id="xtick_4">
     <g id="line2d_5">
      <g>
       <use xlink:href="#m5b99536f96" x="466.254902" y="192.24" style="stroke: #000000; stroke-width: 0.8"/>
      </g>
     </g>
     <g id="text_4">
      <!-- 15 -->
      <g transform="translate(459.892402 206.838437) scale(0.1 -0.1)">
       <use xlink:href="#DejaVuSans-31"/>
       <use xlink:href="#DejaVuSans-35" x="63.623047"/>
      </g>
     </g>
    </g>
    <g id="xtick_5">
     <g id="line2d_6">
      <g>
       <use xlink:href="#m5b99536f96" x="587.823529" y="192.24" style="stroke: #000000; stroke-width: 0.8"/>
      </g>
     </g>
     <g id="text_5">
      <!-- 20 -->
      <g transform="translate(581.461029 206.838437) scale(0.1 -0.1)">
       <defs>
        <path id="DejaVuSans-32" d="M 1228 531 
L 3431 531 
L 3431 0 
L 469 0 
L 469 531 
Q 828 903 1448 1529 
Q 2069 2156 2228 2338 
Q 2531 2678 2651 2914 
Q 2772 3150 2772 3378 
Q 2772 3750 2511 3984 
Q 2250 4219 1831 4219 
Q 1534 4219 1204 4116 
Q 875 4013 500 3803 
L 500 4441 
Q 881 4594 1212 4672 
Q 1544 4750 1819 4750 
Q 2544 4750 2975 4387 
Q 3406 4025 3406 3419 
Q 3406 3131 3298 2873 
Q 3191 2616 2906 2266 
Q 2828 2175 2409 1742 
Q 1991 1309 1228 531 
z
" transform="scale(0.015625)"/>
       </defs>
       <use xlink:href="#DejaVuSans-32"/>
       <use xlink:href="#DejaVuSans-30" x="63.623047"/>
      </g>
     </g>
    </g>
   </g>
   <g id="matplotlib.axis_2">
    <g id="ytick_1">
     <g id="line2d_7">
      <defs>
       <path id="m6782859361" d="M 0 0 
L -3.5 0 
" style="stroke: #000000; stroke-width: 0.8"/>
      </defs>
      <g>
       <use xlink:href="#m6782859361" x="90" y="192.24" style="stroke: #000000; stroke-width: 0.8"/>
      </g>
     </g>
     <g id="text_6">
      <!-- 0.00 -->
      <g transform="translate(60.734375 196.039219) scale(0.1 -0.1)">
       <defs>
        <path id="DejaVuSans-2e" d="M 684 794 
L 1344 794 
L 1344 0 
L 684 0 
L 684 794 
z
" transform="scale(0.015625)"/>
       </defs>
       <use xlink:href="#DejaVuSans-30"/>
       <use xlink:href="#DejaVuSans-2e" x="63.623047"/>
       <use xlink:href="#DejaVuSans-30" x="95.410156"/>
       <use xlink:href="#DejaVuSans-30" x="159.033203"/>
      </g>
     </g>
    </g>
    <g id="ytick_2">
     <g id="line2d_8">
      <g>
       <use xlink:href="#m6782859361" x="90" y="167.410503" style="stroke: #000000; stroke-width: 0.8"/>
      </g>
     </g>
     <g id="text_7">
      <!-- 0.25 -->
      <g transform="translate(60.734375 171.209722) scale(0.1 -0.1)">
       <use xlink:href="#DejaVuSans-30"/>
       <use xlink:href="#DejaVuSans-2e" x="63.623047"/>
       <use xlink:href="#DejaVuSans-32" x="95.410156"/>
       <use xlink:href="#DejaVuSans-35" x="159.033203"/>
      </g>
     </g>
    </g>
    <g id="ytick_3">
     <g id="line2d_9">
      <g>
       <use xlink:href="#m6782859361" x="90" y="142.581006" style="stroke: #000000; stroke-width: 0.8"/>
      </g>
     </g>
     <g id="text_8">
      <!-- 0.50 -->
      <g transform="translate(60.734375 146.380224) scale(0.1 -0.1)">
       <use xlink:href="#DejaVuSans-30"/>
       <use xlink:href="#DejaVuSans-2e" x="63.623047"/>
       <use xlink:href="#DejaVuSans-35" x="95.410156"/>
       <use xlink:href="#DejaVuSans-30" x="159.033203"/>
      </g>
     </g>
    </g>
    <g id="ytick_4">
     <g id="line2d_10">
      <g>
       <use xlink:href="#m6782859361" x="90" y="117.751509" style="stroke: #000000; stroke-width: 0.8"/>
      </g>
     </g>
     <g id="text_9">
      <!-- 0.75 -->
      <g transform="translate(60.734375 121.550727) scale(0.1 -0.1)">
       <defs>
        <path id="DejaVuSans-37" d="M 525 4666 
L 3525 4666 
L 3525 4397 
L 1831 0 
L 1172 0 
L 2766 4134 
L 525 4134 
L 525 4666 
z
" transform="scale(0.015625)"/>
       </defs>
       <use xlink:href="#DejaVuSans-30"/>
       <use xlink:href="#DejaVuSans-2e" x="63.623047"/>
       <use xlink:href="#DejaVuSans-37" x="95.410156"/>
       <use xlink:href="#DejaVuSans-35" x="159.033203"/>
      </g>
     </g>
    </g>
    <g id="ytick_5">
     <g id="line2d_11">
      <g>
       <use xlink:href="#m6782859361" x="90" y="92.922011" style="stroke: #000000; stroke-width: 0.8"/>
      </g>
     </g>
     <g id="text_10">
      <!-- 1.00 -->
      <g transform="translate(60.734375 96.72123) scale(0.1 -0.1)">
       <use xlink:href="#DejaVuSans-31"/>
       <use xlink:href="#DejaVuSans-2e" x="63.623047"/>
       <use xlink:href="#DejaVuSans-30" x="95.410156"/>
       <use xlink:href="#DejaVuSans-30" x="159.033203"/>
      </g>
     </g>
    </g>
    <g id="ytick_6">
     <g id="line2d_12">
      <g>
       <use xlink:href="#m6782859361" x="90" y="68.092514" style="stroke: #000000; stroke-width: 0.8"/>
      </g>
     </g>
     <g id="text_11">
      <!-- 1.25 -->
      <g transform="translate(60.734375 71.891733) scale(0.1 -0.1)">
       <use xlink:href="#DejaVuSans-31"/>
       <use xlink:href="#DejaVuSans-2e" x="63.623047"/>
       <use xlink:href="#DejaVuSans-32" x="95.410156"/>
       <use xlink:href="#DejaVuSans-35" x="159.033203"/>
      </g>
     </g>
    </g>
    <g id="ytick_7">
     <g id="line2d_13">
      <g>
       <use xlink:href="#m6782859361" x="90" y="43.263017" style="stroke: #000000; stroke-width: 0.8"/>
      </g>
     </g>
     <g id="text_12">
      <!-- 1.50 -->
      <g transform="translate(60.734375 47.062236) scale(0.1 -0.1)">
       <use xlink:href="#DejaVuSans-31"/>
       <use xlink:href="#DejaVuSans-2e" x="63.623047"/>
       <use xlink:href="#DejaVuSans-35" x="95.410156"/>
       <use xlink:href="#DejaVuSans-30" x="159.033203"/>
      </g>
     </g>
    </g>
   </g>
  </g>
 </g>
 <defs>
  <clipPath id="p2ec637067a">
   <rect x="90" y="25.92" width="558" height="166.32"/>
  </clipPath>
 </defs>
</svg>
