<?xml version="1.0" encoding="utf-8" standalone="no"?>
<!DOCTYPE svg PUBLIC "-//W3C//DTD SVG 1.1//EN"
  "http://www.w3.org/Graphics/SVG/1.1/DTD/svg11.dtd">
<svg xmlns:xlink="http://www.w3.org/1999/xlink" width="720pt" height="216pt" viewBox="0 0 720 216" xmlns="http://www.w3.org/2000/svg" version="1.1">
 <metadata>
  <rdf:RDF xmlns:dc="http://purl.org/dc/elements/1.1/" xmlns:cc="http://creativecommons.org/ns#" xmlns:rdf="http://www.w3.org/1999/02/22-rdf-syntax-ns#">
   <cc:Work>
    <dc:type rdf:resource="http://purl.org/dc/dcmitype/StillImage"/>
    <dc:date>2025-12-17T10:22:03.427114</dc:date>
    <dc:format>image/svg+xml</dc:format>
    <dc:creator>
     <cc:Agent>
      <dc:title>Matplotlib v3.8.2, https://matplotlib.org/</dc:title>
     </cc:Agent>
    </dc:creator>
   </cc:Work>
  </rdf:RDF>
 </metadata>
 <defs>
  <style type="text/css">*{stroke-linejoin: round; stroke-linecap: butt}</style>
 </defs>
 <g id="figure_1">
  <g id="patch_1">
   <path d="M 0 216 
L 720 216 
L 720 0 
L 0 0 
z
" style="fill: #ffffff"/>
  </g>
  <g id="axes_1">
   <g id="patch_2">
    <path d="M 90 192.24 
L 648 192.24 
L 648 25.92 
L 90 25.92 
z
" style="fill: #ffffff"/>
   </g>
   <g id="line2d_1">
    <path d="M 90 192.24 
L 648 192.24 
" clip-path="url(#p6c941edbcf)" style="fill: none; stroke: #000000; stroke-width: 0.5; stroke-linecap: square"/>
   </g>
   <g id="patch_3">
    <path d="M 107.699499 191.75182 
Q 105.914476 191.99591 103.994584 192.118512 
Q 102.074692 192.24 100.027865 192.24 
Q 95.402671 192.24 92.701335 191.513303 
Q 90 190.786607 90 189.543866 
Q 90 188.286636 92.748936 187.565512 
Q 95.501839 186.844389 100.289668 186.844389 
Q 102.134193 186.844389 103.824015 186.94247 
Q 105.517804 187.039438 107.017224 187.231143 
L 107.017224 188.306698 
Q 105.470203 188.06038 103.93905 187.938892 
Q 102.407896 187.81629 100.868809 187.81629 
Q 98.020705 187.81629 96.477652 188.264345 
Q 94.934598 188.711286 94.934598 189.543866 
Q 94.934598 190.368645 96.422118 190.818929 
Q 97.909637 191.268099 100.646673 191.268099 
Q 101.392416 191.268099 102.031058 191.242464 
Q 102.6697 191.215714 103.17744 191.159986 
L 103.17744 190.15019 
L 100.261901 190.15019 
L 100.261901 189.250735 
L 107.699499 189.250735 
L 107.699499 191.75182 
z
" clip-path="url(#p6c941edbcf)" style="fill: #ffa600"/>
   </g>
   <g id="patch_4">
    <path d="M 107.699499 186.41018 
Q 106.218967 186.625407 104.618029 186.734272 
Q 103.017092 186.844389 101.273453 186.844389 
Q 96.073751 186.844389 93.036876 186.028527 
Q 90 185.212665 90 183.817441 
Q 90 182.417211 93.036876 181.602601 
Q 96.073751 180.786739 101.273453 180.786739 
Q 103.017092 180.786739 104.618029 180.896855 
Q 106.218967 181.00572 107.699499 181.220948 
L 107.699499 182.428473 
Q 106.205588 182.143172 104.756272 182.010532 
Q 103.306955 181.877892 101.706018 181.877892 
Q 98.834142 181.877892 97.18861 182.394688 
Q 95.547538 182.910232 95.547538 183.817441 
Q 95.547538 184.720895 97.18861 185.237691 
Q 98.834142 185.753236 101.706018 185.753236 
Q 103.306955 185.753236 104.756272 185.620596 
Q 106.205588 185.486704 107.699499 185.201403 
L 107.699499 186.41018 
z
" clip-path="url(#p6c941edbcf)" style="fill: #0000ff"/>
   </g>
   <g id="patch_5">
    <path d="M 90 170.094822 
L 107.699499 170.094822 
L 107.699499 172.180044 
L 101.331796 172.180044 
L 101.331796 180.786739 
L 96.380052 180.786739 
L 96.380052 172.180044 
L 90 172.180044 
L 90 170.094822 
z
" clip-path="url(#p6c941edbcf)" style="fill: #ff0000"/>
   </g>
   <g id="patch_6">
    <path d="M 102.260459 164.673728 
L 95.453516 164.673728 
L 94.378735 170.094822 
L 90 170.094822 
L 96.253268 140.336204 
L 101.446231 140.336204 
L 107.699499 170.094822 
L 103.324383 170.094822 
L 102.260459 164.673728 
z
M 96.539153 159.15059 
L 101.163965 159.15059 
L 98.855178 147.313471 
L 96.539153 159.15059 
z
" clip-path="url(#p6c941edbcf)" style="fill: #008000"/>
   </g>
   <g id="patch_7">
    <path d="M 126.330551 191.838746 
Q 124.850018 192.037638 123.249081 192.138241 
Q 121.648144 192.24 119.904504 192.24 
Q 114.704803 192.24 111.667927 191.486059 
Q 108.631052 190.732118 108.631052 189.442786 
Q 108.631052 188.148829 111.667927 187.396044 
Q 114.704803 186.642103 119.904504 186.642103 
Q 121.648144 186.642103 123.249081 186.743862 
Q 124.850018 186.844464 126.330551 187.043357 
L 126.330551 188.159236 
Q 124.83664 187.895588 123.387324 187.773014 
Q 121.938007 187.650441 120.33707 187.650441 
Q 117.465193 187.650441 115.819662 188.128014 
Q 114.178589 188.604431 114.178589 189.442786 
Q 114.178589 190.277672 115.819662 190.755245 
Q 117.465193 191.231662 120.33707 191.231662 
Q 121.938007 191.231662 123.387324 191.109088 
Q 124.83664 190.985359 126.330551 190.721711 
L 126.330551 191.838746 
z
" clip-path="url(#p6c941edbcf)" style="fill: #0000ff"/>
   </g>
   <g id="patch_8">
    <path d="M 126.330551 186.055458 
Q 124.545527 186.34878 122.625636 186.496111 
Q 120.705744 186.642103 118.658917 186.642103 
Q 114.033723 186.642103 111.332387 185.768833 
Q 108.631052 184.895563 108.631052 183.402164 
Q 108.631052 181.891353 111.379988 181.02478 
Q 114.132891 180.158207 118.92072 180.158207 
Q 120.765244 180.158207 122.455067 180.276072 
Q 124.148856 180.392597 125.648275 180.622969 
L 125.648275 181.915462 
Q 124.101255 181.619461 122.570102 181.47347 
Q 121.038948 181.326139 119.499861 181.326139 
Q 116.651757 181.326139 115.108704 181.864566 
Q 113.56565 182.401654 113.56565 183.402164 
Q 113.56565 184.393299 115.053169 184.934405 
Q 116.540689 185.474171 119.277725 185.474171 
Q 120.023468 185.474171 120.66211 185.443366 
Q 121.300752 185.411221 121.808492 185.344252 
L 121.808492 184.130782 
L 118.892953 184.130782 
L 118.892953 183.049909 
L 126.330551 183.049909 
L 126.330551 186.055458 
z
" clip-path="url(#p6c941edbcf)" style="fill: #ffa600"/>
   </g>
   <g id="patch_9">
    <path d="M 108.631052 167.39178 
L 126.330551 167.39178 
L 126.330551 169.881589 
L 119.962847 169.881589 
L 119.962847 180.158207 
L 115.011104 180.158207 
L 115.011104 169.881589 
L 108.631052 169.881589 
L 108.631052 167.39178 
z
" clip-path="url(#p6c941edbcf)" style="fill: #ff0000"/>
   </g>
   <g id="patch_10">
    <path d="M 120.89151 160.414842 
L 114.084567 160.414842 
L 113.009787 167.39178 
L 108.631052 167.39178 
L 114.88432 129.092497 
L 120.077283 129.092497 
L 126.330551 167.39178 
L 121.955434 167.39178 
L 120.89151 160.414842 
z
M 115.170204 153.306574 
L 119.795017 153.306574 
L 117.48623 138.072226 
L 115.170204 153.306574 
z
" clip-path="url(#p6c941edbcf)" style="fill: #008000"/>
   </g>
   <g id="patch_11">
    <path d="M 144.961603 191.947401 
Q 143.176579 192.0937 141.256687 192.167184 
Q 139.336795 192.24 137.289969 192.24 
Q 132.664774 192.24 129.963439 191.804441 
Q 127.262104 191.368883 127.262104 190.624024 
Q 127.262104 189.870481 130.01104 189.438263 
Q 132.763942 189.006044 137.551772 189.006044 
Q 139.396296 189.006044 141.086118 189.064832 
Q 142.779907 189.122951 144.279327 189.237852 
L 144.279327 189.882506 
Q 142.732307 189.73487 141.201153 189.662054 
Q 139.67 189.588571 138.130913 189.588571 
Q 135.282809 189.588571 133.739755 189.857121 
Q 132.196702 190.125002 132.196702 190.624024 
Q 132.196702 191.11837 133.684221 191.388256 
Q 135.171741 191.657474 137.908777 191.657474 
Q 138.65452 191.657474 139.293162 191.642109 
Q 139.931803 191.626076 140.439543 191.592674 
L 140.439543 190.987435 
L 137.524005 190.987435 
L 137.524005 190.448331 
L 144.961603 190.448331 
L 144.961603 191.947401 
z
" clip-path="url(#p6c941edbcf)" style="fill: #ffa600"/>
   </g>
   <g id="patch_12">
    <path d="M 144.961603 188.614227 
Q 143.48107 188.808442 141.880133 188.906679 
Q 140.279195 189.006044 138.535556 189.006044 
Q 133.335855 189.006044 130.298979 188.269835 
Q 127.262104 187.533625 127.262104 186.274616 
Q 127.262104 185.011091 130.298979 184.276011 
Q 133.335855 183.539801 138.535556 183.539801 
Q 140.279195 183.539801 141.880133 183.639167 
Q 143.48107 183.737403 144.961603 183.931618 
L 144.961603 185.021254 
Q 143.467692 184.763806 142.018375 184.644115 
Q 140.569059 184.524425 138.968121 184.524425 
Q 136.096245 184.524425 134.450713 184.990766 
Q 132.809641 185.455979 132.809641 186.274616 
Q 132.809641 187.089867 134.450713 187.556208 
Q 136.096245 188.021421 138.968121 188.021421 
Q 140.569059 188.021421 142.018375 187.90173 
Q 143.467692 187.78091 144.961603 187.523463 
L 144.961603 188.614227 
z
" clip-path="url(#p6c941edbcf)" style="fill: #0000ff"/>
   </g>
   <g id="patch_13">
    <path d="M 139.522562 180.844419 
L 132.715619 180.844419 
L 131.640839 183.539801 
L 127.262104 183.539801 
L 133.515372 168.743739 
L 138.708335 168.743739 
L 144.961603 183.539801 
L 140.586486 183.539801 
L 139.522562 180.844419 
z
M 133.801256 178.0983 
L 138.426069 178.0983 
L 136.117281 172.212854 
L 133.801256 178.0983 
z
" clip-path="url(#p6c941edbcf)" style="fill: #008000"/>
   </g>
   <g id="patch_14">
    <path d="M 127.262104 147.36529 
L 144.961603 147.36529 
L 144.961603 151.534683 
L 138.593899 151.534683 
L 138.593899 168.743739 
L 133.642156 168.743739 
L 133.642156 151.534683 
L 127.262104 151.534683 
L 127.262104 147.36529 
z
" clip-path="url(#p6c941edbcf)" style="fill: #ff0000"/>
   </g>
   <g id="patch_15">
    <path d="M 163.592654 191.8938 
Q 162.112122 192.065403 160.511185 192.152203 
Q 158.910247 192.24 157.166608 192.24 
Q 151.966906 192.24 148.930031 191.589503 
Q 145.893155 190.939006 145.893155 189.826576 
Q 145.893155 188.710155 148.930031 188.060655 
Q 151.966906 187.410158 157.166608 187.410158 
Q 158.910247 187.410158 160.511185 187.497955 
Q 162.112122 187.584755 163.592654 187.756358 
L 163.592654 188.719134 
Q 162.098744 188.49166 160.649427 188.385904 
Q 159.200111 188.280148 157.599173 188.280148 
Q 154.727297 188.280148 153.081765 188.692196 
Q 151.440693 189.103247 151.440693 189.826576 
Q 151.440693 190.546911 153.081765 190.95896 
Q 154.727297 191.37001 157.599173 191.37001 
Q 159.200111 191.37001 160.649427 191.264254 
Q 162.098744 191.157501 163.592654 190.930026 
L 163.592654 191.8938 
z
" clip-path="url(#p6c941edbcf)" style="fill: #0000ff"/>
   </g>
   <g id="patch_16">
    <path d="M 163.592654 186.944822 
Q 161.807631 187.17749 159.887739 187.294355 
Q 157.967847 187.410158 155.92102 187.410158 
Q 151.295826 187.410158 148.594491 186.717466 
Q 145.893155 186.024775 145.893155 184.840187 
Q 145.893155 183.641788 148.642091 182.954409 
Q 151.394994 182.267029 156.182824 182.267029 
Q 158.027348 182.267029 159.71717 182.360521 
Q 161.410959 182.452951 162.910379 182.635686 
L 162.910379 183.660912 
Q 161.363358 183.426119 159.832205 183.310316 
Q 158.301052 183.193451 156.761965 183.193451 
Q 153.913861 183.193451 152.370807 183.62054 
Q 150.827753 184.046567 150.827753 184.840187 
Q 150.827753 185.626371 152.315273 186.055585 
Q 153.802792 186.483736 156.539828 186.483736 
Q 157.285572 186.483736 157.924213 186.459301 
Q 158.562855 186.433803 159.070595 186.380682 
L 159.070595 185.418138 
L 156.155057 185.418138 
L 156.155057 184.560773 
L 163.592654 184.560773 
L 163.592654 186.944822 
z
" clip-path="url(#p6c941edbcf)" style="fill: #ffa600"/>
   </g>
   <g id="patch_17">
    <path d="M 158.153614 180.588186 
L 151.346671 180.588186 
L 150.27189 182.267029 
L 145.893155 182.267029 
L 152.146423 173.051169 
L 157.339386 173.051169 
L 163.592654 182.267029 
L 159.217538 182.267029 
L 158.153614 180.588186 
z
M 152.432308 178.877741 
L 157.057121 178.877741 
L 154.748333 175.211938 
L 152.432308 178.877741 
z
" clip-path="url(#p6c941edbcf)" style="fill: #008000"/>
   </g>
   <g id="patch_18">
    <path d="M 145.893155 151.303826 
L 163.592654 151.303826 
L 163.592654 155.545164 
L 157.224951 155.545164 
L 157.224951 173.051169 
L 152.273207 173.051169 
L 152.273207 155.545164 
L 145.893155 155.545164 
L 145.893155 151.303826 
z
" clip-path="url(#p6c941edbcf)" style="fill: #ff0000"/>
   </g>
   <g id="patch_19">
    <path d="M 182.223706 192.054794 
Q 180.743174 192.146597 179.142236 192.193031 
Q 177.541299 192.24 175.79766 192.24 
Q 170.597958 192.24 167.561083 191.892006 
Q 164.524207 191.544011 164.524207 190.948898 
Q 164.524207 190.35165 167.561083 190.00419 
Q 170.597958 189.656195 175.79766 189.656195 
Q 177.541299 189.656195 179.142236 189.703164 
Q 180.743174 189.749599 182.223706 189.841401 
L 182.223706 190.356454 
Q 180.729795 190.234762 179.280479 190.178187 
Q 177.831162 190.121611 176.230225 190.121611 
Q 173.358349 190.121611 171.712817 190.342043 
Q 170.071745 190.561941 170.071745 190.948898 
Q 170.071745 191.334254 171.712817 191.554686 
Q 173.358349 191.774584 176.230225 191.774584 
Q 177.831162 191.774584 179.280479 191.718008 
Q 180.729795 191.660899 182.223706 191.539208 
L 182.223706 192.054794 
z
" clip-path="url(#p6c941edbcf)" style="fill: #0000ff"/>
   </g>
   <g id="patch_20">
    <path d="M 182.223706 189.272905 
Q 180.438683 189.46455 178.518791 189.56081 
Q 176.598899 189.656195 174.552072 189.656195 
Q 169.926878 189.656195 167.225542 189.085635 
Q 164.524207 188.515075 164.524207 187.539348 
Q 164.524207 186.552244 167.273143 185.98606 
Q 170.026046 185.419876 174.813876 185.419876 
Q 176.6584 185.419876 178.348222 185.496884 
Q 180.042011 185.573017 181.541431 185.723532 
L 181.541431 186.567996 
Q 179.99441 186.374601 178.463257 186.279216 
Q 176.932103 186.182956 175.393016 186.182956 
Q 172.544912 186.182956 171.001859 186.534743 
Q 169.458805 186.885654 169.458805 187.539348 
Q 169.458805 188.186916 170.946325 188.540453 
Q 172.433844 188.893115 175.17088 188.893115 
Q 175.916623 188.893115 176.555265 188.872988 
Q 177.193907 188.851986 177.701647 188.808231 
L 177.701647 188.015398 
L 174.786108 188.015398 
L 174.786108 187.309199 
L 182.223706 187.309199 
L 182.223706 189.272905 
z
" clip-path="url(#p6c941edbcf)" style="fill: #ffa600"/>
   </g>
   <g id="patch_21">
    <path d="M 164.524207 179.895155 
L 182.223706 179.895155 
L 182.223706 180.972629 
L 175.856003 180.972629 
L 175.856003 185.419876 
L 170.904259 185.419876 
L 170.904259 180.972629 
L 164.524207 180.972629 
L 164.524207 179.895155 
z
" clip-path="url(#p6c941edbcf)" style="fill: #ff0000"/>
   </g>
   <g id="patch_22">
    <path d="M 176.784666 178.143784 
L 169.977723 178.143784 
L 168.902942 179.895155 
L 164.524207 179.895155 
L 170.777475 170.28116 
L 175.970438 170.28116 
L 182.223706 179.895155 
L 177.84859 179.895155 
L 176.784666 178.143784 
z
M 171.06336 176.359446 
L 175.688172 176.359446 
L 173.379385 172.535277 
L 171.06336 176.359446 
z
" clip-path="url(#p6c941edbcf)" style="fill: #008000"/>
   </g>
   <g id="patch_23">
    <path d="M 200.854758 191.943569 
Q 199.374225 192.090503 197.773288 192.164824 
Q 196.172351 192.24 194.428711 192.24 
Q 189.22901 192.24 186.192134 191.683018 
Q 183.155259 191.126035 183.155259 190.173527 
Q 183.155259 189.217602 186.192134 188.661474 
Q 189.22901 188.104491 194.428711 188.104491 
Q 196.172351 188.104491 197.773288 188.179667 
Q 199.374225 188.253988 200.854758 188.400922 
L 200.854758 189.22529 
Q 199.360847 189.030517 197.911531 188.939965 
Q 196.462214 188.849413 194.861277 188.849413 
Q 191.9894 188.849413 190.343869 189.202225 
Q 188.702796 189.554183 188.702796 190.173527 
Q 188.702796 190.790308 190.343869 191.143121 
Q 191.9894 191.495079 194.861277 191.495079 
Q 196.462214 191.495079 197.911531 191.404526 
Q 199.360847 191.31312 200.854758 191.118347 
L 200.854758 191.943569 
z
" clip-path="url(#p6c941edbcf)" style="fill: #0000ff"/>
   </g>
   <g id="patch_24">
    <path d="M 200.854758 187.599314 
Q 199.069734 187.851903 197.149843 187.978774 
Q 195.229951 188.104491 193.183124 188.104491 
Q 188.55793 188.104491 185.856594 187.352491 
Q 183.155259 186.600491 183.155259 185.314479 
Q 183.155259 184.013473 185.904195 183.26724 
Q 188.657098 182.521007 193.444927 182.521007 
Q 195.289451 182.521007 196.979274 182.622503 
Q 198.673063 182.722847 200.172482 182.921227 
L 200.172482 184.034234 
Q 198.625462 183.779338 197.094309 183.65362 
Q 195.563155 183.526749 194.024068 183.526749 
Q 191.175964 183.526749 189.632911 183.990405 
Q 188.089857 184.452908 188.089857 185.314479 
Q 188.089857 186.167976 189.577376 186.633939 
Q 191.064896 187.098749 193.801932 187.098749 
Q 194.547675 187.098749 195.186317 187.072221 
Q 195.824959 187.044541 196.332699 186.986872 
L 196.332699 185.941915 
L 193.41716 185.941915 
L 193.41716 185.011142 
L 200.854758 185.011142 
L 200.854758 187.599314 
z
" clip-path="url(#p6c941edbcf)" style="fill: #ffa600"/>
   </g>
   <g id="patch_25">
    <path d="M 183.155259 175.489545 
L 200.854758 175.489545 
L 200.854758 176.860876 
L 194.487054 176.860876 
L 194.487054 182.521007 
L 189.535311 182.521007 
L 189.535311 176.860876 
L 183.155259 176.860876 
L 183.155259 175.489545 
z
" clip-path="url(#p6c941edbcf)" style="fill: #ff0000"/>
   </g>
   <g id="patch_26">
    <path d="M 195.415717 172.274272 
L 188.608774 172.274272 
L 187.533994 175.489545 
L 183.155259 175.489545 
L 189.408527 157.83959 
L 194.60149 157.83959 
L 200.854758 175.489545 
L 196.479641 175.489545 
L 195.415717 172.274272 
z
M 189.694411 168.998477 
L 194.319224 168.998477 
L 192.010437 161.977835 
L 189.694411 168.998477 
z
" clip-path="url(#p6c941edbcf)" style="fill: #008000"/>
   </g>
   <g id="patch_27">
    <path d="M 219.48581 191.908035 
Q 218.005277 192.072583 216.40434 192.155813 
Q 214.803402 192.24 213.059763 192.24 
Q 207.860062 192.24 204.823186 191.61625 
Q 201.786311 190.992501 201.786311 189.925812 
Q 201.786311 188.855297 204.823186 188.232505 
Q 207.860062 187.608755 213.059763 187.608755 
Q 214.803402 187.608755 216.40434 187.692942 
Q 218.005277 187.776172 219.48581 187.94072 
L 219.48581 188.863907 
Q 217.991899 188.645786 216.542582 188.544379 
Q 215.093266 188.442972 213.492328 188.442972 
Q 210.620452 188.442972 208.97492 188.838077 
Q 207.333848 189.232226 207.333848 189.925812 
Q 207.333848 190.616529 208.97492 191.011634 
Q 210.620452 191.405783 213.492328 191.405783 
Q 215.093266 191.405783 216.542582 191.304376 
Q 217.991899 191.202012 219.48581 190.983891 
L 219.48581 191.908035 
z
" clip-path="url(#p6c941edbcf)" style="fill: #0000ff"/>
   </g>
   <g id="patch_28">
    <path d="M 219.48581 186.980802 
Q 217.700786 187.294779 215.780894 187.452484 
Q 213.861002 187.608755 211.814176 187.608755 
Q 207.188981 187.608755 204.487646 186.673994 
Q 201.786311 185.739234 201.786311 184.140679 
Q 201.786311 182.523486 204.535247 181.595894 
Q 207.288149 180.668302 212.075979 180.668302 
Q 213.920503 180.668302 215.610325 180.794466 
Q 217.304114 180.919196 218.803534 181.165789 
L 218.803534 182.549292 
Q 217.256514 182.232448 215.72536 182.076177 
Q 214.194207 181.918472 212.65512 181.918472 
Q 209.807016 181.918472 208.263962 182.494812 
Q 206.720909 183.069719 206.720909 184.140679 
Q 206.720909 185.201603 208.208428 185.780811 
Q 209.695948 186.358584 212.432984 186.358584 
Q 213.178727 186.358584 213.817369 186.32561 
Q 214.45601 186.291201 214.96375 186.219517 
L 214.96375 184.920602 
L 212.048212 184.920602 
L 212.048212 183.763621 
L 219.48581 183.763621 
L 219.48581 186.980802 
z
" clip-path="url(#p6c941edbcf)" style="fill: #ffa600"/>
   </g>
   <g id="patch_29">
    <path d="M 201.786311 173.727849 
L 219.48581 173.727849 
L 219.48581 175.08143 
L 213.118106 175.08143 
L 213.118106 180.668302 
L 208.166363 180.668302 
L 208.166363 175.08143 
L 201.786311 175.08143 
L 201.786311 173.727849 
z
" clip-path="url(#p6c941edbcf)" style="fill: #ff0000"/>
   </g>
   <g id="patch_30">
    <path d="M 214.046769 169.771253 
L 207.239826 169.771253 
L 206.165046 173.727849 
L 201.786311 173.727849 
L 208.039579 152.008464 
L 213.232542 152.008464 
L 219.48581 173.727849 
L 215.110693 173.727849 
L 214.046769 169.771253 
z
M 208.325463 165.740179 
L 212.950276 165.740179 
L 210.641488 157.100836 
L 208.325463 165.740179 
z
" clip-path="url(#p6c941edbcf)" style="fill: #008000"/>
   </g>
   <g id="patch_31">
    <path d="M 238.116861 191.871666 
Q 236.331838 192.055833 234.411946 192.148337 
Q 232.492054 192.24 230.445227 192.24 
Q 225.820033 192.24 223.118698 191.691704 
Q 220.417362 191.143409 220.417362 190.205756 
Q 220.417362 189.257171 223.166298 188.71308 
Q 225.919201 188.168989 230.707031 188.168989 
Q 232.551555 188.168989 234.241377 188.242992 
Q 235.935166 188.316154 237.434586 188.460796 
L 237.434586 189.272308 
Q 235.887565 189.086459 234.356412 188.994796 
Q 232.825259 188.902292 231.286172 188.902292 
Q 228.438068 188.902292 226.895014 189.240352 
Q 225.35196 189.57757 225.35196 190.205756 
Q 225.35196 190.828055 226.83948 191.167796 
Q 228.327 191.506697 231.064035 191.506697 
Q 231.809779 191.506697 232.44842 191.487355 
Q 233.087062 191.467172 233.594802 191.425125 
L 233.594802 190.663229 
L 230.679264 190.663229 
L 230.679264 189.984587 
L 238.116861 189.984587 
L 238.116861 191.871666 
z
" clip-path="url(#p6c941edbcf)" style="fill: #ffa600"/>
   </g>
   <g id="patch_32">
    <path d="M 232.677821 186.715967 
L 225.870878 186.715967 
L 224.796097 188.168989 
L 220.417362 188.168989 
L 226.67063 180.192754 
L 231.863593 180.192754 
L 238.116861 188.168989 
L 233.741745 188.168989 
L 232.677821 186.715967 
z
M 226.956515 185.235594 
L 231.581328 185.235594 
L 229.27254 182.062878 
L 226.956515 185.235594 
z
" clip-path="url(#p6c941edbcf)" style="fill: #008000"/>
   </g>
   <g id="patch_33">
    <path d="M 238.116861 179.330535 
Q 236.636329 179.757917 235.035392 179.974093 
Q 233.434454 180.192754 231.690815 180.192754 
Q 226.491113 180.192754 223.454238 178.572676 
Q 220.417362 176.952599 220.417362 174.182068 
Q 220.417362 171.401598 223.454238 169.784006 
Q 226.491113 168.163928 231.690815 168.163928 
Q 233.434454 168.163928 235.035392 168.382589 
Q 236.636329 168.598765 238.116861 169.026147 
L 238.116861 171.423961 
Q 236.622951 170.857431 235.173634 170.594044 
Q 233.724318 170.330657 232.12338 170.330657 
Q 229.251504 170.330657 227.605972 171.356872 
Q 225.9649 172.380602 225.9649 174.182068 
Q 225.9649 175.97608 227.605972 177.002295 
Q 229.251504 178.026025 232.12338 178.026025 
Q 233.724318 178.026025 235.173634 177.762638 
Q 236.622951 177.496766 238.116861 176.930236 
L 238.116861 179.330535 
z
" clip-path="url(#p6c941edbcf)" style="fill: #0000ff"/>
   </g>
   <g id="patch_34">
    <path d="M 220.417362 134.472165 
L 238.116861 134.472165 
L 238.116861 141.042997 
L 231.749158 141.042997 
L 231.749158 168.163928 
L 226.797414 168.163928 
L 226.797414 141.042997 
L 220.417362 141.042997 
L 220.417362 134.472165 
z
" clip-path="url(#p6c941edbcf)" style="fill: #ff0000"/>
   </g>
   <g id="patch_35">
    <path d="M 256.747913 191.910707 
Q 254.96289 192.075353 253.042998 192.158053 
Q 251.123106 192.24 249.076279 192.24 
Q 244.451085 192.24 241.74975 191.749819 
Q 239.048414 191.259639 239.048414 190.421369 
Q 239.048414 189.573327 241.79735 189.086905 
Q 244.550253 188.600483 249.338083 188.600483 
Q 251.182607 188.600483 252.872429 188.666643 
Q 254.566218 188.73205 256.065638 188.861362 
L 256.065638 189.586859 
Q 254.518617 189.420709 252.987464 189.338762 
Q 251.45631 189.256062 249.917223 189.256062 
Q 247.069119 189.256062 245.526066 189.55829 
Q 243.983012 189.859767 243.983012 190.421369 
Q 243.983012 190.977709 245.470532 191.281441 
Q 246.958051 191.584421 249.695087 191.584421 
Q 250.44083 191.584421 251.079472 191.567129 
Q 251.718114 191.549086 252.225854 191.511495 
L 252.225854 190.830355 
L 249.310315 190.830355 
L 249.310315 190.223643 
L 256.747913 190.223643 
L 256.747913 191.910707 
z
" clip-path="url(#p6c941edbcf)" style="fill: #ffa600"/>
   </g>
   <g id="patch_36">
    <path d="M 256.747913 188.248263 
Q 255.267381 188.422851 253.666443 188.511159 
Q 252.065506 188.600483 250.321867 188.600483 
Q 245.122165 188.600483 242.08529 187.938674 
Q 239.048414 187.276865 239.048414 186.145091 
Q 239.048414 185.009256 242.08529 184.348462 
Q 245.122165 183.686653 250.321867 183.686653 
Q 252.065506 183.686653 253.666443 183.775977 
Q 255.267381 183.864286 256.747913 184.038874 
L 256.747913 185.018392 
Q 255.254002 184.786961 253.804686 184.679367 
Q 252.355369 184.571772 250.754432 184.571772 
Q 247.882556 184.571772 246.237024 184.990985 
Q 244.595952 185.409184 244.595952 186.145091 
Q 244.595952 186.877953 246.237024 187.297166 
Q 247.882556 187.715365 250.754432 187.715365 
Q 252.355369 187.715365 253.804686 187.60777 
Q 255.254002 187.49916 256.747913 187.26773 
L 256.747913 188.248263 
z
" clip-path="url(#p6c941edbcf)" style="fill: #0000ff"/>
   </g>
   <g id="patch_37">
    <path d="M 251.308873 182.42571 
L 244.50193 182.42571 
L 243.427149 183.686653 
L 239.048414 183.686653 
L 245.301682 176.764814 
L 250.494645 176.764814 
L 256.747913 183.686653 
L 252.372797 183.686653 
L 251.308873 182.42571 
z
M 245.587567 181.14103 
L 250.212379 181.14103 
L 247.903592 178.387723 
L 245.587567 181.14103 
z
" clip-path="url(#p6c941edbcf)" style="fill: #008000"/>
   </g>
   <g id="patch_38">
    <path d="M 239.048414 161.9654 
L 256.747913 161.9654 
L 256.747913 164.851698 
L 250.38021 164.851698 
L 250.38021 176.764814 
L 245.428466 176.764814 
L 245.428466 164.851698 
L 239.048414 164.851698 
L 239.048414 161.9654 
z
" clip-path="url(#p6c941edbcf)" style="fill: #ff0000"/>
   </g>
   <g id="patch_39">
    <path d="M 275.378965 191.713836 
Q 273.898432 191.974643 272.297495 192.106564 
Q 270.696558 192.24 268.952919 192.24 
Q 263.753217 192.24 260.716341 191.251357 
Q 257.679466 190.262714 257.679466 188.572013 
Q 257.679466 186.875247 260.716341 185.88812 
Q 263.753217 184.899477 268.952919 184.899477 
Q 270.696558 184.899477 272.297495 185.032914 
Q 273.898432 185.164834 275.378965 185.425641 
L 275.378965 186.888894 
Q 273.885054 186.543172 272.435738 186.382442 
Q 270.986421 186.221711 269.385484 186.221711 
Q 266.513607 186.221711 264.868076 186.847953 
Q 263.227003 187.472678 263.227003 188.572013 
Q 263.227003 189.666799 264.868076 190.29304 
Q 266.513607 190.917766 269.385484 190.917766 
Q 270.986421 190.917766 272.435738 190.757035 
Q 273.885054 190.594789 275.378965 190.249067 
L 275.378965 191.713836 
z
" clip-path="url(#p6c941edbcf)" style="fill: #0000ff"/>
   </g>
   <g id="patch_40">
    <path d="M 275.378965 184.185338 
Q 273.593941 184.542407 271.67405 184.721757 
Q 269.754158 184.899477 267.707331 184.899477 
Q 263.082137 184.899477 260.380801 183.83642 
Q 257.679466 182.773363 257.679466 180.955405 
Q 257.679466 179.116251 260.428402 178.061346 
Q 263.181305 177.006442 267.969134 177.006442 
Q 269.813659 177.006442 271.503481 177.149922 
Q 273.19727 177.291771 274.696689 177.57221 
L 274.696689 179.145599 
Q 273.149669 178.785269 271.618516 178.607549 
Q 270.087362 178.428199 268.548275 178.428199 
Q 265.700171 178.428199 264.157118 179.083642 
Q 262.614064 179.737455 262.614064 180.955405 
Q 262.614064 182.161942 264.101583 182.820646 
Q 265.589103 183.47772 268.326139 183.47772 
Q 269.071882 183.47772 269.710524 183.440219 
Q 270.349166 183.401088 270.856906 183.319566 
L 270.856906 181.842373 
L 267.941367 181.842373 
L 267.941367 180.526595 
L 275.378965 180.526595 
L 275.378965 184.185338 
z
" clip-path="url(#p6c941edbcf)" style="fill: #ffa600"/>
   </g>
   <g id="patch_41">
    <path d="M 257.679466 168.718754 
L 275.378965 168.718754 
L 275.378965 170.335084 
L 269.011261 170.335084 
L 269.011261 177.006442 
L 264.059518 177.006442 
L 264.059518 170.335084 
L 257.679466 170.335084 
L 257.679466 168.718754 
z
" clip-path="url(#p6c941edbcf)" style="fill: #ff0000"/>
   </g>
   <g id="patch_42">
    <path d="M 269.939924 161.730728 
L 263.132981 161.730728 
L 262.058201 168.718754 
L 257.679466 168.718754 
L 263.932734 130.358602 
L 269.125697 130.358602 
L 275.378965 168.718754 
L 271.003849 168.718754 
L 269.939924 161.730728 
z
M 264.218618 154.611163 
L 268.843431 154.611163 
L 266.534644 139.352603 
L 264.218618 154.611163 
z
" clip-path="url(#p6c941edbcf)" style="fill: #008000"/>
   </g>
   <g id="patch_43">
    <path d="M 294.010017 191.447299 
Q 292.224993 191.84365 290.305101 192.04273 
Q 288.385209 192.24 286.338383 192.24 
Q 281.713188 192.24 279.011853 191.059998 
Q 276.310518 189.879996 276.310518 187.862048 
Q 276.310518 185.820573 279.059454 184.64962 
Q 281.812356 183.478667 286.600186 183.478667 
Q 288.44471 183.478667 290.134532 183.637931 
Q 291.828321 183.795385 293.327741 184.106674 
L 293.327741 185.853149 
Q 291.780721 185.453179 290.249567 185.255909 
Q 288.718414 185.056829 287.179327 185.056829 
Q 284.331223 185.056829 282.788169 185.784376 
Q 281.245116 186.510114 281.245116 187.862048 
Q 281.245116 189.201314 282.732635 189.932481 
Q 284.220155 190.661838 286.957191 190.661838 
Q 287.702934 190.661838 288.341576 190.620212 
Q 288.980217 190.576776 289.487957 190.486286 
L 289.487957 188.84659 
L 286.572419 188.84659 
L 286.572419 187.386066 
L 294.010017 187.386066 
L 294.010017 191.447299 
z
" clip-path="url(#p6c941edbcf)" style="fill: #ffa600"/>
   </g>
   <g id="patch_44">
    <path d="M 294.010017 182.842608 
Q 292.529484 183.157888 290.928547 183.317361 
Q 289.32761 183.478667 287.58397 183.478667 
Q 282.384269 183.478667 279.347393 182.283537 
Q 276.310518 181.088407 276.310518 179.044588 
Q 276.310518 176.993436 279.347393 175.800139 
Q 282.384269 174.605009 287.58397 174.605009 
Q 289.32761 174.605009 290.928547 174.766315 
Q 292.529484 174.925788 294.010017 175.241068 
L 294.010017 177.009933 
Q 292.516106 176.592005 291.066789 176.397704 
Q 289.617473 176.203404 288.016535 176.203404 
Q 285.144659 176.203404 283.499127 176.960442 
Q 281.858055 177.715647 281.858055 179.044588 
Q 281.858055 180.368029 283.499127 181.125067 
Q 285.144659 181.880272 288.016535 181.880272 
Q 289.617473 181.880272 291.066789 181.685972 
Q 292.516106 181.489838 294.010017 181.071909 
L 294.010017 182.842608 
z
" clip-path="url(#p6c941edbcf)" style="fill: #0000ff"/>
   </g>
   <g id="patch_45">
    <path d="M 276.310518 165.282052 
L 294.010017 165.282052 
L 294.010017 167.100288 
L 287.642313 167.100288 
L 287.642313 174.605009 
L 282.69057 174.605009 
L 282.69057 167.100288 
L 276.310518 167.100288 
L 276.310518 165.282052 
z
" clip-path="url(#p6c941edbcf)" style="fill: #ff0000"/>
   </g>
   <g id="patch_46">
    <path d="M 288.570976 154.150681 
L 281.764033 154.150681 
L 280.689253 165.282052 
L 276.310518 165.282052 
L 282.563786 104.17737 
L 287.756749 104.17737 
L 294.010017 165.282052 
L 289.6349 165.282052 
L 288.570976 154.150681 
z
M 282.84967 142.809777 
L 287.474483 142.809777 
L 285.165695 118.5041 
L 282.84967 142.809777 
z
" clip-path="url(#p6c941edbcf)" style="fill: #008000"/>
   </g>
   <g id="patch_47">
    <path d="M 312.641068 191.779825 
Q 310.856045 192.009912 308.936153 192.125481 
Q 307.016261 192.24 304.969434 192.24 
Q 300.34424 192.24 297.642905 191.55499 
Q 294.941569 190.86998 294.941569 189.698529 
Q 294.941569 188.51342 297.690505 187.833664 
Q 300.443408 187.153907 305.231238 187.153907 
Q 307.075762 187.153907 308.765584 187.246362 
Q 310.459373 187.337767 311.958793 187.518475 
L 311.958793 188.532332 
Q 310.411772 188.300143 308.880619 188.185624 
Q 307.349466 188.070055 305.810379 188.070055 
Q 302.962275 188.070055 301.419221 188.492408 
Q 299.876167 188.91371 299.876167 189.698529 
Q 299.876167 190.475995 301.363687 190.900449 
Q 302.851207 191.323852 305.588242 191.323852 
Q 306.333986 191.323852 306.972627 191.299687 
Q 307.611269 191.274472 308.119009 191.221941 
L 308.119009 190.270071 
L 305.203471 190.270071 
L 305.203471 189.422214 
L 312.641068 189.422214 
L 312.641068 191.779825 
z
" clip-path="url(#p6c941edbcf)" style="fill: #ffa600"/>
   </g>
   <g id="patch_48">
    <path d="M 312.641068 186.748831 
Q 311.160536 186.949618 309.559599 187.051179 
Q 307.958661 187.153907 306.215022 187.153907 
Q 301.01532 187.153907 297.978445 186.392785 
Q 294.941569 185.631663 294.941569 184.330051 
Q 294.941569 183.023769 297.978445 182.263814 
Q 301.01532 181.502692 306.215022 181.502692 
Q 307.958661 181.502692 309.559599 181.60542 
Q 311.160536 181.706981 312.641068 181.907768 
L 312.641068 183.034275 
Q 311.147158 182.768116 309.697841 182.644375 
Q 308.248525 182.520635 306.647587 182.520635 
Q 303.775711 182.520635 302.130179 183.002756 
Q 300.489107 183.483711 300.489107 184.330051 
Q 300.489107 185.172888 302.130179 185.65501 
Q 303.775711 186.135964 306.647587 186.135964 
Q 308.248525 186.135964 309.697841 186.012224 
Q 311.147158 185.887316 312.641068 185.621156 
L 312.641068 186.748831 
z
" clip-path="url(#p6c941edbcf)" style="fill: #0000ff"/>
   </g>
   <g id="patch_49">
    <path d="M 294.941569 168.434258 
L 312.641068 168.434258 
L 312.641068 170.982967 
L 306.273365 170.982967 
L 306.273365 181.502692 
L 301.321621 181.502692 
L 301.321621 170.982967 
L 294.941569 170.982967 
L 294.941569 168.434258 
z
" clip-path="url(#p6c941edbcf)" style="fill: #ff0000"/>
   </g>
   <g id="patch_50">
    <path d="M 307.202028 162.682064 
L 300.395085 162.682064 
L 299.320305 168.434258 
L 294.941569 168.434258 
L 301.194837 136.858097 
L 306.3878 136.858097 
L 312.641068 168.434258 
L 308.265952 168.434258 
L 307.202028 162.682064 
z
M 301.480722 156.821594 
L 306.105535 156.821594 
L 303.796747 144.261509 
L 301.480722 156.821594 
z
" clip-path="url(#p6c941edbcf)" style="fill: #008000"/>
   </g>
   <g id="patch_51">
    <path d="M 331.27212 191.851835 
Q 329.487097 192.045917 327.567205 192.143402 
Q 325.647313 192.24 323.600486 192.24 
Q 318.975292 192.24 316.273957 191.662183 
Q 313.572621 191.084367 313.572621 190.096229 
Q 313.572621 189.096571 316.321557 188.523185 
Q 319.07446 187.949799 323.86229 187.949799 
Q 325.706814 187.949799 327.396636 188.027787 
Q 329.090425 188.104888 330.589845 188.257318 
L 330.589845 189.112523 
Q 329.042824 188.916667 327.511671 188.820069 
Q 325.980517 188.722585 324.44143 188.722585 
Q 321.593326 188.722585 320.050273 189.078846 
Q 318.507219 189.434221 318.507219 190.096229 
Q 318.507219 190.752033 319.994739 191.110067 
Q 321.482258 191.467214 324.219294 191.467214 
Q 324.965037 191.467214 325.603679 191.446831 
Q 326.242321 191.425562 326.750061 191.381251 
L 326.750061 190.578334 
L 323.834523 190.578334 
L 323.834523 189.863153 
L 331.27212 189.863153 
L 331.27212 191.851835 
z
" clip-path="url(#p6c941edbcf)" style="fill: #ffa600"/>
   </g>
   <g id="patch_52">
    <path d="M 331.27212 187.3623 
Q 329.791588 187.65351 328.19065 187.800808 
Q 326.589713 187.949799 324.846074 187.949799 
Q 319.646372 187.949799 316.609497 186.845911 
Q 313.572621 185.742022 313.572621 183.854237 
Q 313.572621 181.959679 316.609497 180.857484 
Q 319.646372 179.753595 324.846074 179.753595 
Q 326.589713 179.753595 328.19065 179.902586 
Q 329.791588 180.049884 331.27212 180.341094 
L 331.27212 181.974917 
Q 329.778209 181.588895 328.328893 181.409428 
Q 326.879576 181.229961 325.278639 181.229961 
Q 322.406763 181.229961 320.761231 181.929204 
Q 319.120159 182.626753 319.120159 183.854237 
Q 319.120159 185.076641 320.761231 185.775883 
Q 322.406763 186.473433 325.278639 186.473433 
Q 326.879576 186.473433 328.328893 186.293966 
Q 329.778209 186.112807 331.27212 185.726784 
L 331.27212 187.3623 
z
" clip-path="url(#p6c941edbcf)" style="fill: #0000ff"/>
   </g>
   <g id="patch_53">
    <path d="M 325.83308 178.073865 
L 319.026137 178.073865 
L 317.951356 179.753595 
L 313.572621 179.753595 
L 319.825889 170.532865 
L 325.018852 170.532865 
L 331.27212 179.753595 
L 326.897004 179.753595 
L 325.83308 178.073865 
z
M 320.111774 176.362516 
L 324.736586 176.362516 
L 322.427799 172.694776 
L 320.111774 176.362516 
z
" clip-path="url(#p6c941edbcf)" style="fill: #008000"/>
   </g>
   <g id="patch_54">
    <path d="M 313.572621 142.038248 
L 331.27212 142.038248 
L 331.27212 147.595493 
L 324.904417 147.595493 
L 324.904417 170.532865 
L 319.952673 170.532865 
L 319.952673 147.595493 
L 313.572621 147.595493 
L 313.572621 142.038248 
z
" clip-path="url(#p6c941edbcf)" style="fill: #ff0000"/>
   </g>
   <g id="patch_55">
    <path d="M 344.464131 191.749949 
L 337.657188 191.749949 
L 336.582408 192.24 
L 332.203673 192.24 
L 338.456941 189.549909 
L 343.649904 189.549909 
L 349.903172 192.24 
L 345.528056 192.24 
L 344.464131 191.749949 
z
M 338.742825 191.250674 
L 343.367638 191.250674 
L 341.058851 190.180633 
L 338.742825 191.250674 
z
" clip-path="url(#p6c941edbcf)" style="fill: #008000"/>
   </g>
   <g id="patch_56">
    <path d="M 349.903172 189.146791 
Q 348.118149 189.34835 346.198257 189.449589 
Q 344.278365 189.549909 342.231538 189.549909 
Q 337.606344 189.549909 334.905008 188.949834 
Q 332.203673 188.349759 332.203673 187.323557 
Q 332.203673 186.285391 334.952609 185.689918 
Q 337.705512 185.094445 342.493341 185.094445 
Q 344.337866 185.094445 346.027688 185.175436 
Q 347.721477 185.255508 349.220896 185.41381 
L 349.220896 186.301957 
Q 347.673876 186.098558 346.142723 185.998238 
Q 344.611569 185.896999 343.072482 185.896999 
Q 340.224378 185.896999 338.681325 186.266983 
Q 337.138271 186.636048 337.138271 187.323557 
Q 337.138271 188.004624 338.62579 188.376449 
Q 340.11331 188.747354 342.850346 188.747354 
Q 343.596089 188.747354 344.234731 188.726186 
Q 344.873373 188.704097 345.381113 188.658079 
L 345.381113 187.824233 
L 342.465574 187.824233 
L 342.465574 187.081502 
L 349.903172 187.081502 
L 349.903172 189.146791 
z
" clip-path="url(#p6c941edbcf)" style="fill: #ffa600"/>
   </g>
   <g id="patch_57">
    <path d="M 349.903172 184.734908 
Q 348.422639 184.913122 346.821702 185.003265 
Q 345.220765 185.094445 343.477126 185.094445 
Q 338.277424 185.094445 335.240548 184.418889 
Q 332.203673 183.743332 332.203673 182.588049 
Q 332.203673 181.428621 335.240548 180.754101 
Q 338.277424 180.078545 343.477126 180.078545 
Q 345.220765 180.078545 346.821702 180.169724 
Q 348.422639 180.259867 349.903172 180.438081 
L 349.903172 181.437946 
Q 348.409261 181.201708 346.959945 181.091879 
Q 345.510628 180.982049 343.909691 180.982049 
Q 341.037814 180.982049 339.392283 181.40997 
Q 337.75121 181.836855 337.75121 182.588049 
Q 337.75121 183.336134 339.392283 183.764055 
Q 341.037814 184.19094 343.909691 184.19094 
Q 345.510628 184.19094 346.959945 184.08111 
Q 348.409261 183.970245 349.903172 183.734007 
L 349.903172 184.734908 
z
" clip-path="url(#p6c941edbcf)" style="fill: #0000ff"/>
   </g>
   <g id="patch_58">
    <path d="M 332.203673 170.27092 
L 349.903172 170.27092 
L 349.903172 172.18368 
L 343.535468 172.18368 
L 343.535468 180.078545 
L 338.583725 180.078545 
L 338.583725 172.18368 
L 332.203673 172.18368 
L 332.203673 170.27092 
z
" clip-path="url(#p6c941edbcf)" style="fill: #ff0000"/>
   </g>
   <g id="patch_59">
    <path d="M 368.534224 191.656794 
Q 367.053691 191.945876 365.452754 192.092098 
Q 363.851817 192.24 362.108177 192.24 
Q 356.908476 192.24 353.8716 191.144178 
Q 350.834725 190.048356 350.834725 188.174365 
Q 350.834725 186.293652 353.8716 185.19951 
Q 356.908476 184.103688 362.108177 184.103688 
Q 363.851817 184.103688 365.452754 184.25159 
Q 367.053691 184.397812 368.534224 184.686894 
L 368.534224 186.308778 
Q 367.040313 185.925576 365.590996 185.747421 
Q 364.14168 185.569266 362.540743 185.569266 
Q 359.668866 185.569266 358.023334 186.263399 
Q 356.382262 186.955851 356.382262 188.174365 
Q 356.382262 189.387837 358.023334 190.08197 
Q 359.668866 190.774422 362.540743 190.774422 
Q 364.14168 190.774422 365.590996 190.596267 
Q 367.040313 190.416431 368.534224 190.033229 
L 368.534224 191.656794 
z
" clip-path="url(#p6c941edbcf)" style="fill: #0000ff"/>
   </g>
   <g id="patch_60">
    <path d="M 368.534224 183.253307 
Q 366.7492 183.678497 364.829308 183.892063 
Q 362.909416 184.103688 360.86259 184.103688 
Q 356.237396 184.103688 353.53606 182.837824 
Q 350.834725 181.571961 350.834725 179.407179 
Q 350.834725 177.217157 353.583661 175.961001 
Q 356.336563 174.704845 361.124393 174.704845 
Q 362.968917 174.704845 364.658739 174.875697 
Q 366.352528 175.044609 367.851948 175.378548 
L 367.851948 177.252104 
Q 366.304928 176.823031 364.773774 176.611406 
Q 363.242621 176.39784 361.703534 176.39784 
Q 358.85543 176.39784 357.312376 177.178327 
Q 355.769323 177.956872 355.769323 179.407179 
Q 355.769323 180.843895 357.256842 181.628264 
Q 358.744362 182.410692 361.481398 182.410692 
Q 362.227141 182.410692 362.865783 182.366038 
Q 363.504424 182.319441 364.012164 182.222366 
L 364.012164 180.463359 
L 361.096626 180.463359 
L 361.096626 178.896562 
L 368.534224 178.896562 
L 368.534224 183.253307 
z
" clip-path="url(#p6c941edbcf)" style="fill: #ffa600"/>
   </g>
   <g id="patch_61">
    <path d="M 350.834725 164.324033 
L 368.534224 164.324033 
L 368.534224 166.34858 
L 362.16652 166.34858 
L 362.16652 174.704845 
L 357.214777 174.704845 
L 357.214777 166.34858 
L 350.834725 166.34858 
L 350.834725 164.324033 
z
" clip-path="url(#p6c941edbcf)" style="fill: #ff0000"/>
   </g>
   <g id="patch_62">
    <path d="M 363.095183 149.374429 
L 356.28824 149.374429 
L 355.21346 164.324033 
L 350.834725 164.324033 
L 357.087993 82.259505 
L 362.280956 82.259505 
L 368.534224 164.324033 
L 364.159107 164.324033 
L 363.095183 149.374429 
z
M 357.373877 134.143422 
L 361.99869 134.143422 
L 359.689902 101.500524 
L 357.373877 134.143422 
z
" clip-path="url(#p6c941edbcf)" style="fill: #008000"/>
   </g>
   <g id="patch_63">
    <path d="M 387.165275 192.047242 
Q 385.684743 192.142788 384.083806 192.191116 
Q 382.482868 192.24 380.739229 192.24 
Q 375.539527 192.24 372.502652 191.877815 
Q 369.465776 191.515631 369.465776 190.89625 
Q 369.465776 190.274648 372.502652 189.913019 
Q 375.539527 189.550834 380.739229 189.550834 
Q 382.482868 189.550834 384.083806 189.599718 
Q 385.684743 189.648046 387.165275 189.743592 
L 387.165275 190.279647 
Q 385.671365 190.152994 384.222048 190.094111 
Q 382.772732 190.035228 381.171794 190.035228 
Q 378.299918 190.035228 376.654386 190.264649 
Q 375.013314 190.493514 375.013314 190.89625 
Q 375.013314 191.29732 376.654386 191.526741 
Q 378.299918 191.755606 381.171794 191.755606 
Q 382.772732 191.755606 384.222048 191.696723 
Q 385.671365 191.637285 387.165275 191.510631 
L 387.165275 192.047242 
z
" clip-path="url(#p6c941edbcf)" style="fill: #0000ff"/>
   </g>
   <g id="patch_64">
    <path d="M 387.165275 189.079915 
Q 385.380252 189.315375 383.46036 189.433642 
Q 381.540468 189.550834 379.493641 189.550834 
Q 374.868447 189.550834 372.167112 188.849831 
Q 369.465776 188.148829 369.465776 186.950028 
Q 369.465776 185.737251 372.214712 185.041624 
Q 374.967615 184.345997 379.755445 184.345997 
Q 381.599969 184.345997 383.289791 184.440611 
Q 384.98358 184.534149 386.483 184.719076 
L 386.483 185.756603 
Q 384.93598 185.518994 383.404826 185.401801 
Q 381.873673 185.283534 380.334586 185.283534 
Q 377.486482 185.283534 375.943428 185.715747 
Q 374.400374 186.146886 374.400374 186.950028 
Q 374.400374 187.745645 375.887894 188.180008 
Q 377.375414 188.613297 380.112449 188.613297 
Q 380.858193 188.613297 381.496834 188.588568 
Q 382.135476 188.562764 382.643216 188.509007 
L 382.643216 187.534914 
L 379.727678 187.534914 
L 379.727678 186.667262 
L 387.165275 186.667262 
L 387.165275 189.079915 
z
" clip-path="url(#p6c941edbcf)" style="fill: #ffa600"/>
   </g>
   <g id="patch_65">
    <path d="M 369.465776 172.678487 
L 387.165275 172.678487 
L 387.165275 174.953976 
L 380.797572 174.953976 
L 380.797572 184.345997 
L 375.845828 184.345997 
L 375.845828 174.953976 
L 369.465776 174.953976 
L 369.465776 172.678487 
z
" clip-path="url(#p6c941edbcf)" style="fill: #ff0000"/>
   </g>
   <g id="patch_66">
    <path d="M 381.726235 170.047344 
L 374.919292 170.047344 
L 373.844512 172.678487 
L 369.465776 172.678487 
L 375.719044 158.235063 
L 380.912007 158.235063 
L 387.165275 172.678487 
L 382.790159 172.678487 
L 381.726235 170.047344 
z
M 376.004929 167.366675 
L 380.629742 167.366675 
L 378.320954 161.621498 
L 376.004929 167.366675 
z
" clip-path="url(#p6c941edbcf)" style="fill: #008000"/>
   </g>
   <g id="patch_67">
    <path d="M 405.796327 191.946158 
Q 404.011304 192.093079 402.091412 192.166875 
Q 400.17152 192.24 398.124693 192.24 
Q 393.499499 192.24 390.798164 191.802591 
Q 388.096828 191.365183 388.096828 190.617161 
Q 388.096828 189.860417 390.845764 189.426363 
Q 393.598667 188.992308 398.386497 188.992308 
Q 400.231021 188.992308 401.920843 189.051345 
Q 403.614632 189.109711 405.114052 189.225101 
L 405.114052 189.872493 
Q 403.567031 189.72423 402.035878 189.651105 
Q 400.504724 189.577309 398.965637 189.577309 
Q 396.117533 189.577309 394.57448 189.846999 
Q 393.031426 190.116019 393.031426 190.617161 
Q 393.031426 191.113606 394.518946 191.384638 
Q 396.006465 191.655 398.743501 191.655 
Q 399.489244 191.655 400.127886 191.63957 
Q 400.766528 191.623469 401.274268 191.589925 
L 401.274268 190.982115 
L 398.35873 190.982115 
L 398.35873 190.440721 
L 405.796327 190.440721 
L 405.796327 191.946158 
z
" clip-path="url(#p6c941edbcf)" style="fill: #ffa600"/>
   </g>
   <g id="patch_68">
    <path d="M 400.357287 187.841322 
L 393.550344 187.841322 
L 392.475563 188.992308 
L 388.096828 188.992308 
L 394.350096 182.674072 
L 399.543059 182.674072 
L 405.796327 188.992308 
L 401.421211 188.992308 
L 400.357287 187.841322 
z
M 394.635981 186.668671 
L 399.260793 186.668671 
L 396.952006 184.155459 
L 394.635981 186.668671 
z
" clip-path="url(#p6c941edbcf)" style="fill: #008000"/>
   </g>
   <g id="patch_69">
    <path d="M 405.796327 181.738669 
Q 404.315795 182.202327 402.714857 182.436852 
Q 401.11392 182.674072 399.370281 182.674072 
Q 394.170579 182.674072 391.133704 180.916485 
Q 388.096828 179.158898 388.096828 176.153208 
Q 388.096828 173.136736 391.133704 171.381844 
Q 394.170579 169.624257 399.370281 169.624257 
Q 401.11392 169.624257 402.714857 169.861478 
Q 404.315795 170.096002 405.796327 170.55966 
L 405.796327 173.160997 
Q 404.302416 172.546381 402.8531 172.260638 
Q 401.403783 171.974895 399.802846 171.974895 
Q 396.93097 171.974895 395.285438 173.088214 
Q 393.644366 174.198836 393.644366 176.153208 
Q 393.644366 178.099493 395.285438 179.212812 
Q 396.93097 180.323434 399.802846 180.323434 
Q 401.403783 180.323434 402.8531 180.037692 
Q 404.302416 179.749253 405.796327 179.134637 
L 405.796327 181.738669 
z
" clip-path="url(#p6c941edbcf)" style="fill: #0000ff"/>
   </g>
   <g id="patch_70">
    <path d="M 388.096828 145.945634 
L 405.796327 145.945634 
L 405.796327 150.563625 
L 399.428624 150.563625 
L 399.428624 169.624257 
L 394.47688 169.624257 
L 394.47688 150.563625 
L 388.096828 150.563625 
L 388.096828 145.945634 
z
" clip-path="url(#p6c941edbcf)" style="fill: #ff0000"/>
   </g>
   <g id="patch_71">
    <path d="M 424.427379 191.751084 
Q 422.642356 191.995542 420.722464 192.118329 
Q 418.802572 192.24 416.755745 192.24 
Q 412.130551 192.24 409.429215 191.512207 
Q 406.72788 190.784414 406.72788 189.539798 
Q 406.72788 188.280671 409.476816 187.558459 
Q 412.229719 186.836247 417.017548 186.836247 
Q 418.862073 186.836247 420.551895 186.934477 
Q 422.245684 187.03159 423.745103 187.223585 
L 423.745103 188.300763 
Q 422.198083 188.054073 420.66693 187.932402 
Q 419.135776 187.809615 417.596689 187.809615 
Q 414.748585 187.809615 413.205532 188.258346 
Q 411.662478 188.705961 411.662478 189.539798 
Q 411.662478 190.365821 413.149997 190.816785 
Q 414.637517 191.266632 417.374553 191.266632 
Q 418.120296 191.266632 418.758938 191.240959 
Q 419.39758 191.214169 419.90532 191.158356 
L 419.90532 190.147036 
L 416.989781 190.147036 
L 416.989781 189.246225 
L 424.427379 189.246225 
L 424.427379 191.751084 
z
" clip-path="url(#p6c941edbcf)" style="fill: #ffa600"/>
   </g>
   <g id="patch_72">
    <path d="M 418.988338 185.835974 
L 412.181395 185.835974 
L 411.106615 186.836247 
L 406.72788 186.836247 
L 412.981148 181.345337 
L 418.174111 181.345337 
L 424.427379 186.836247 
L 420.052263 186.836247 
L 418.988338 185.835974 
z
M 413.267032 184.816873 
L 417.891845 184.816873 
L 415.583058 182.632747 
L 413.267032 184.816873 
z
" clip-path="url(#p6c941edbcf)" style="fill: #008000"/>
   </g>
   <g id="patch_73">
    <path d="M 424.427379 180.183324 
Q 422.946846 180.759307 421.345909 181.050648 
Q 419.744972 181.345337 418.001333 181.345337 
Q 412.801631 181.345337 409.764755 179.161957 
Q 406.72788 176.978578 406.72788 173.244731 
Q 406.72788 169.497489 409.764755 167.317458 
Q 412.801631 165.134078 418.001333 165.134078 
Q 419.744972 165.134078 421.345909 165.428768 
Q 422.946846 165.720108 424.427379 166.296092 
L 424.427379 169.527627 
Q 422.933468 168.764114 421.484152 168.409148 
Q 420.034835 168.054181 418.433898 168.054181 
Q 415.562021 168.054181 413.91649 169.437211 
Q 412.275417 170.816893 412.275417 173.244731 
Q 412.275417 175.662522 413.91649 177.045553 
Q 415.562021 178.425234 418.433898 178.425234 
Q 420.034835 178.425234 421.484152 178.070268 
Q 422.933468 177.711952 424.427379 176.948439 
L 424.427379 180.183324 
z
" clip-path="url(#p6c941edbcf)" style="fill: #0000ff"/>
   </g>
   <g id="patch_74">
    <path d="M 406.72788 123.908673 
L 424.427379 123.908673 
L 424.427379 131.948776 
L 418.059675 131.948776 
L 418.059675 165.134078 
L 413.107932 165.134078 
L 413.107932 131.948776 
L 406.72788 131.948776 
L 406.72788 123.908673 
z
" clip-path="url(#p6c941edbcf)" style="fill: #ff0000"/>
   </g>
   <g id="patch_75">
    <path d="M 425.358932 185.964928 
L 443.058431 185.964928 
L 443.058431 187.188742 
L 436.690727 187.188742 
L 436.690727 192.24 
L 431.738984 192.24 
L 431.738984 187.188742 
L 425.358932 187.188742 
L 425.358932 185.964928 
z
" clip-path="url(#p6c941edbcf)" style="fill: #ff0000"/>
   </g>
   <g id="patch_76">
    <path d="M 443.058431 185.195717 
Q 441.273407 185.580322 439.353515 185.773503 
Q 437.433623 185.964928 435.386797 185.964928 
Q 430.761603 185.964928 428.060267 184.819892 
Q 425.358932 183.674857 425.358932 181.716706 
Q 425.358932 179.735725 428.107868 178.599471 
Q 430.86077 177.463217 435.6486 177.463217 
Q 437.493124 177.463217 439.182946 177.617761 
Q 440.876735 177.77055 442.376155 178.072614 
L 442.376155 179.767337 
Q 440.829135 179.379219 439.297981 179.187794 
Q 437.766828 178.994613 436.227741 178.994613 
Q 433.379637 178.994613 431.836583 179.700601 
Q 430.29353 180.404833 430.29353 181.716706 
Q 430.29353 183.016286 431.781049 183.725787 
Q 433.268569 184.433531 436.005605 184.433531 
Q 436.751348 184.433531 437.38999 184.393138 
Q 438.028631 184.35099 438.536371 184.26318 
L 438.536371 182.672073 
L 435.620833 182.672073 
L 435.620833 181.254829 
L 443.058431 181.254829 
L 443.058431 185.195717 
z
" clip-path="url(#p6c941edbcf)" style="fill: #ffa600"/>
   </g>
   <g id="patch_77">
    <path d="M 443.058431 176.737743 
Q 441.577898 177.097344 439.976961 177.279235 
Q 438.376024 177.463217 436.632384 177.463217 
Q 431.432683 177.463217 428.395807 176.100079 
Q 425.358932 174.736942 425.358932 172.40581 
Q 425.358932 170.066316 428.395807 168.705269 
Q 431.432683 167.342132 436.632384 167.342132 
Q 438.376024 167.342132 439.976961 167.526114 
Q 441.577898 167.708005 443.058431 168.067605 
L 443.058431 170.085132 
Q 441.56452 169.608452 440.115203 169.386838 
Q 438.665887 169.165224 437.06495 169.165224 
Q 434.193073 169.165224 432.547541 170.028683 
Q 430.906469 170.890052 430.906469 172.40581 
Q 430.906469 173.915297 432.547541 174.778756 
Q 434.193073 175.640125 437.06495 175.640125 
Q 438.665887 175.640125 440.115203 175.418511 
Q 441.56452 175.194806 443.058431 174.718126 
L 443.058431 176.737743 
z
" clip-path="url(#p6c941edbcf)" style="fill: #0000ff"/>
   </g>
   <g id="patch_78">
    <path d="M 437.61939 142.967802 
L 430.812447 142.967802 
L 429.737667 167.342132 
L 425.358932 167.342132 
L 431.6122 33.541395 
L 436.805163 33.541395 
L 443.058431 167.342132 
L 438.683314 167.342132 
L 437.61939 142.967802 
z
M 431.898084 118.13466 
L 436.522897 118.13466 
L 434.214109 64.912592 
L 431.898084 118.13466 
z
" clip-path="url(#p6c941edbcf)" style="fill: #008000"/>
   </g>
   <g id="patch_79">
    <path d="M 461.689482 191.859843 
Q 460.20895 192.048278 458.608013 192.143591 
Q 457.007075 192.24 455.263436 192.24 
Q 450.063734 192.24 447.026859 191.5257 
Q 443.989983 190.811399 443.989983 189.589858 
Q 443.989983 188.363934 447.026859 187.650729 
Q 450.063734 186.936429 455.263436 186.936429 
Q 457.007075 186.936429 458.608013 187.032837 
Q 460.20895 187.12815 461.689482 187.316585 
L 461.689482 188.373794 
Q 460.195572 188.124008 458.746255 188.007879 
Q 457.296939 187.891751 455.696001 187.891751 
Q 452.824125 187.891751 451.178593 188.344214 
Q 449.537521 188.795582 449.537521 189.589858 
Q 449.537521 190.380847 451.178593 190.83331 
Q 452.824125 191.284678 455.696001 191.284678 
Q 457.296939 191.284678 458.746255 191.168549 
Q 460.195572 191.051325 461.689482 190.801539 
L 461.689482 191.859843 
z
" clip-path="url(#p6c941edbcf)" style="fill: #0000ff"/>
   </g>
   <g id="patch_80">
    <path d="M 461.689482 186.091889 
Q 459.904459 186.514159 457.984567 186.726258 
Q 456.064675 186.936429 454.017848 186.936429 
Q 449.392654 186.936429 446.691319 185.67926 
Q 443.989983 184.422091 443.989983 182.272178 
Q 443.989983 180.097199 446.738919 178.849671 
Q 449.491822 177.602143 454.279652 177.602143 
Q 456.124176 177.602143 457.813998 177.771822 
Q 459.507787 177.939573 461.007207 178.271219 
L 461.007207 180.131906 
Q 459.460187 179.70578 457.929033 179.495609 
Q 456.39788 179.28351 454.858793 179.28351 
Q 452.010689 179.28351 450.467635 180.058635 
Q 448.924581 180.831833 448.924581 182.272178 
Q 448.924581 183.699026 450.412101 184.478008 
Q 451.899621 185.255062 454.636656 185.255062 
Q 455.3824 185.255062 456.021041 185.210714 
Q 456.659683 185.164438 457.167423 185.068029 
L 457.167423 183.321104 
L 454.251885 183.321104 
L 454.251885 181.765068 
L 461.689482 181.765068 
L 461.689482 186.091889 
z
" clip-path="url(#p6c941edbcf)" style="fill: #ffa600"/>
   </g>
   <g id="patch_81">
    <path d="M 443.989983 168.267857 
L 461.689482 168.267857 
L 461.689482 170.088303 
L 455.321779 170.088303 
L 455.321779 177.602143 
L 450.370035 177.602143 
L 450.370035 170.088303 
L 443.989983 170.088303 
L 443.989983 168.267857 
z
" clip-path="url(#p6c941edbcf)" style="fill: #ff0000"/>
   </g>
   <g id="patch_82">
    <path d="M 456.250442 142.336507 
L 449.443499 142.336507 
L 448.368719 168.267857 
L 443.989983 168.267857 
L 450.243251 25.92 
L 455.436214 25.92 
L 461.689482 168.267857 
L 457.314366 168.267857 
L 456.250442 142.336507 
z
M 450.529136 115.917038 
L 455.153949 115.917038 
L 452.845161 59.295173 
L 450.529136 115.917038 
z
" clip-path="url(#p6c941edbcf)" style="fill: #008000"/>
   </g>
   <g id="patch_83">
    <path d="M 480.320534 191.693042 
Q 478.840002 191.964157 477.239064 192.10129 
Q 475.638127 192.24 473.894488 192.24 
Q 468.694786 192.24 465.657911 191.212287 
Q 462.621035 190.184574 462.621035 188.427058 
Q 462.621035 186.663237 465.657911 185.637101 
Q 468.694786 184.609387 473.894488 184.609387 
Q 475.638127 184.609387 477.239064 184.748097 
Q 478.840002 184.885231 480.320534 185.156345 
L 480.320534 186.677424 
Q 478.826623 186.318039 477.377307 186.150957 
Q 475.92799 185.983875 474.327053 185.983875 
Q 471.455177 185.983875 469.809645 186.634865 
Q 468.168573 187.284279 468.168573 188.427058 
Q 468.168573 189.565109 469.809645 190.216099 
Q 471.455177 190.865512 474.327053 190.865512 
Q 475.92799 190.865512 477.377307 190.69843 
Q 478.826623 190.529772 480.320534 190.170387 
L 480.320534 191.693042 
z
" clip-path="url(#p6c941edbcf)" style="fill: #0000ff"/>
   </g>
   <g id="patch_84">
    <path d="M 480.320534 183.901289 
Q 478.535511 184.255338 476.615619 184.433171 
Q 474.695727 184.609387 472.6489 184.609387 
Q 468.023706 184.609387 465.322371 183.555323 
Q 462.621035 182.501258 462.621035 180.698678 
Q 462.621035 178.875081 465.369971 177.829099 
Q 468.122874 176.783118 472.910704 176.783118 
Q 474.755228 176.783118 476.44505 176.925384 
Q 478.138839 177.066034 479.638259 177.3441 
L 479.638259 178.904181 
Q 478.091238 178.546898 476.560085 178.370682 
Q 475.028931 178.192849 473.489844 178.192849 
Q 470.64174 178.192849 469.098687 178.842748 
Q 467.555633 179.49103 467.555633 180.698678 
Q 467.555633 181.895009 469.043153 182.548141 
Q 470.530672 183.199657 473.267708 183.199657 
Q 474.013451 183.199657 474.652093 183.162473 
Q 475.290735 183.123673 475.798475 183.04284 
L 475.798475 181.578143 
L 472.882937 181.578143 
L 472.882937 180.273495 
L 480.320534 180.273495 
L 480.320534 183.901289 
z
" clip-path="url(#p6c941edbcf)" style="fill: #ffa600"/>
   </g>
   <g id="patch_85">
    <path d="M 462.621035 166.804625 
L 480.320534 166.804625 
L 480.320534 168.750709 
L 473.952831 168.750709 
L 473.952831 176.783118 
L 469.001087 176.783118 
L 469.001087 168.750709 
L 462.621035 168.750709 
L 462.621035 166.804625 
z
" clip-path="url(#p6c941edbcf)" style="fill: #ff0000"/>
   </g>
   <g id="patch_86">
    <path d="M 474.881494 143.494385 
L 468.074551 143.494385 
L 466.99977 166.804625 
L 462.621035 166.804625 
L 468.874303 38.84512 
L 474.067266 38.84512 
L 480.320534 166.804625 
L 475.945418 166.804625 
L 474.881494 143.494385 
z
M 469.160188 119.745364 
L 473.785 119.745364 
L 471.476213 68.84677 
L 469.160188 119.745364 
z
" clip-path="url(#p6c941edbcf)" style="fill: #008000"/>
   </g>
   <g id="patch_87">
    <path d="M 481.252087 184.63844 
L 498.951586 184.63844 
L 498.951586 186.120956 
L 492.583882 186.120956 
L 492.583882 192.24 
L 487.632139 192.24 
L 487.632139 186.120956 
L 481.252087 186.120956 
L 481.252087 184.63844 
z
" clip-path="url(#p6c941edbcf)" style="fill: #ff0000"/>
   </g>
   <g id="patch_88">
    <path d="M 498.951586 184.033023 
Q 497.471053 184.333114 495.870116 184.484905 
Q 494.269179 184.63844 492.52554 184.63844 
Q 487.325838 184.63844 484.288962 183.500884 
Q 481.252087 182.363328 481.252087 180.417968 
Q 481.252087 178.465629 484.288962 177.329818 
Q 487.325838 176.192262 492.52554 176.192262 
Q 494.269179 176.192262 495.870116 176.345797 
Q 497.471053 176.497587 498.951586 176.797679 
L 498.951586 178.481331 
Q 497.457675 178.083536 496.008359 177.898596 
Q 494.559042 177.713656 492.958105 177.713656 
Q 490.086228 177.713656 488.440697 178.434224 
Q 486.799624 179.153048 486.799624 180.417968 
Q 486.799624 181.677654 488.440697 182.398222 
Q 490.086228 183.117046 492.958105 183.117046 
Q 494.559042 183.117046 496.008359 182.932106 
Q 497.457675 182.745421 498.951586 182.347626 
L 498.951586 184.033023 
z
" clip-path="url(#p6c941edbcf)" style="fill: #0000ff"/>
   </g>
   <g id="patch_89">
    <path d="M 498.951586 175.168252 
Q 497.166563 175.680257 495.246671 175.937428 
Q 493.326779 176.192262 491.279952 176.192262 
Q 486.654758 176.192262 483.953422 174.667937 
Q 481.252087 173.143612 481.252087 170.53683 
Q 481.252087 167.899654 484.001023 166.387019 
Q 486.753926 164.874383 491.541755 164.874383 
Q 493.38628 164.874383 495.076102 165.08012 
Q 496.769891 165.28352 498.26931 165.685642 
L 498.26931 167.941737 
Q 496.72229 167.425056 495.191137 167.170222 
Q 493.659983 166.913051 492.120896 166.913051 
Q 489.272792 166.913051 487.729739 167.852896 
Q 486.186685 168.790402 486.186685 170.53683 
Q 486.186685 172.266891 487.674205 173.211412 
Q 489.161724 174.153594 491.89876 174.153594 
Q 492.644503 174.153594 493.283145 174.099822 
Q 493.921787 174.043712 494.429527 173.926816 
L 494.429527 171.808659 
L 491.513988 171.808659 
L 491.513988 169.921956 
L 498.951586 169.921956 
L 498.951586 175.168252 
z
" clip-path="url(#p6c941edbcf)" style="fill: #ffa600"/>
   </g>
   <g id="patch_90">
    <path d="M 493.512545 145.733816 
L 486.705603 145.733816 
L 485.630822 164.874383 
L 481.252087 164.874383 
L 487.505355 59.803929 
L 492.698318 59.803929 
L 498.951586 164.874383 
L 494.57647 164.874383 
L 493.512545 145.733816 
z
M 487.791239 126.232956 
L 492.416052 126.232956 
L 490.107265 84.438965 
L 487.791239 126.232956 
z
" clip-path="url(#p6c941edbcf)" style="fill: #008000"/>
   </g>
   <g id="patch_91">
    <path d="M 517.582638 191.869705 
Q 515.797614 192.054852 513.877722 192.147849 
Q 511.957831 192.24 509.911004 192.24 
Q 505.28581 192.24 502.584474 191.688784 
Q 499.883139 191.137568 499.883139 190.194921 
Q 499.883139 189.241283 502.632075 188.694294 
Q 505.384978 188.147305 510.172807 188.147305 
Q 512.017331 188.147305 513.707153 188.221702 
Q 515.400942 188.295254 516.900362 188.440667 
L 516.900362 189.256501 
Q 515.353342 189.069662 513.822188 188.977511 
Q 512.291035 188.884514 510.751948 188.884514 
Q 507.903844 188.884514 506.36079 189.224375 
Q 504.817737 189.563389 504.817737 190.194921 
Q 504.817737 190.820534 506.305256 191.162085 
Q 507.792776 191.502791 510.529812 191.502791 
Q 511.275555 191.502791 511.914197 191.483346 
Q 512.552838 191.463056 513.060578 191.420785 
L 513.060578 190.654831 
L 510.14504 190.654831 
L 510.14504 189.972574 
L 517.582638 189.972574 
L 517.582638 191.869705 
z
" clip-path="url(#p6c941edbcf)" style="fill: #ffa600"/>
   </g>
   <g id="patch_92">
    <path d="M 517.582638 187.734204 
Q 516.102105 187.938969 514.501168 188.042542 
Q 512.900231 188.147305 511.156591 188.147305 
Q 505.95689 188.147305 502.920014 187.371103 
Q 499.883139 186.594901 499.883139 185.2675 
Q 499.883139 183.935336 502.920014 183.160325 
Q 505.95689 182.384122 511.156591 182.384122 
Q 512.900231 182.384122 514.501168 182.488886 
Q 516.102105 182.592459 517.582638 182.797224 
L 517.582638 183.946051 
Q 516.088727 183.674618 514.63941 183.548426 
Q 513.190094 183.422233 511.589157 183.422233 
Q 508.71728 183.422233 507.071748 183.913908 
Q 505.430676 184.404391 505.430676 185.2675 
Q 505.430676 186.127036 507.071748 186.61871 
Q 508.71728 187.109194 511.589157 187.109194 
Q 513.190094 187.109194 514.63941 186.983002 
Q 516.088727 186.855619 517.582638 186.584186 
L 517.582638 187.734204 
z
" clip-path="url(#p6c941edbcf)" style="fill: #0000ff"/>
   </g>
   <g id="patch_93">
    <path d="M 512.143597 179.800523 
L 505.336654 179.800523 
L 504.261874 182.384122 
L 499.883139 182.384122 
L 506.136407 168.201682 
L 511.32937 168.201682 
L 517.582638 182.384122 
L 513.207521 182.384122 
L 512.143597 179.800523 
z
M 506.422291 177.168291 
L 511.047104 177.168291 
L 508.738316 171.526926 
L 506.422291 177.168291 
z
" clip-path="url(#p6c941edbcf)" style="fill: #008000"/>
   </g>
   <g id="patch_94">
    <path d="M 499.883139 139.853505 
L 517.582638 139.853505 
L 517.582638 145.382189 
L 511.214934 145.382189 
L 511.214934 168.201682 
L 506.263191 168.201682 
L 506.263191 145.382189 
L 499.883139 145.382189 
L 499.883139 139.853505 
z
" clip-path="url(#p6c941edbcf)" style="fill: #ff0000"/>
   </g>
   <g id="patch_95">
    <path d="M 536.213689 192.050805 
Q 534.428666 192.145402 532.508774 192.192917 
Q 530.588882 192.24 528.542055 192.24 
Q 523.916861 192.24 521.215526 191.958367 
Q 518.51419 191.676734 518.51419 191.195108 
Q 518.51419 190.707866 521.263126 190.428392 
Q 524.016029 190.148919 528.803859 190.148919 
Q 530.648383 190.148919 532.338205 190.186931 
Q 534.031994 190.224511 535.531414 190.298807 
L 535.531414 190.715641 
Q 533.984394 190.620179 532.45324 190.573096 
Q 530.922087 190.525582 529.383 190.525582 
Q 526.534896 190.525582 524.991842 190.699227 
Q 523.448788 190.872439 523.448788 191.195108 
Q 523.448788 191.514752 524.936308 191.689261 
Q 526.423828 191.863338 529.160864 191.863338 
Q 529.906607 191.863338 530.545248 191.853403 
Q 531.18389 191.843036 531.69163 191.821438 
L 531.69163 191.43009 
L 528.776092 191.43009 
L 528.776092 191.081504 
L 536.213689 191.081504 
L 536.213689 192.050805 
z
" clip-path="url(#p6c941edbcf)" style="fill: #ffa600"/>
   </g>
   <g id="patch_96">
    <path d="M 536.213689 189.863482 
Q 534.733157 190.004967 533.13222 190.076532 
Q 531.531282 190.148919 529.787643 190.148919 
Q 524.587941 190.148919 521.551066 189.612593 
Q 518.51419 189.076266 518.51419 188.159081 
Q 518.51419 187.238606 521.551066 186.703102 
Q 524.587941 186.166775 529.787643 186.166775 
Q 531.531282 186.166775 533.13222 186.239162 
Q 534.733157 186.310727 536.213689 186.452212 
L 536.213689 187.246009 
Q 534.719779 187.058459 533.270462 186.971265 
Q 531.821146 186.884071 530.220208 186.884071 
Q 527.348332 186.884071 525.7028 187.223799 
Q 524.061728 187.562705 524.061728 188.159081 
Q 524.061728 188.752989 525.7028 189.092717 
Q 527.348332 189.431623 530.220208 189.431623 
Q 531.821146 189.431623 533.270462 189.344429 
Q 534.719779 189.256412 536.213689 189.068862 
L 536.213689 189.863482 
z
" clip-path="url(#p6c941edbcf)" style="fill: #0000ff"/>
   </g>
   <g id="patch_97">
    <path d="M 530.774649 185.202857 
L 523.967706 185.202857 
L 522.892926 186.166775 
L 518.51419 186.166775 
L 524.767458 180.875432 
L 529.960421 180.875432 
L 536.213689 186.166775 
L 531.838573 186.166775 
L 530.774649 185.202857 
z
M 525.053343 184.220794 
L 529.678156 184.220794 
L 527.369368 182.116051 
L 525.053343 184.220794 
z
" clip-path="url(#p6c941edbcf)" style="fill: #008000"/>
   </g>
   <g id="patch_98">
    <path d="M 518.51419 173.232381 
L 536.213689 173.232381 
L 536.213689 174.722988 
L 529.845986 174.722988 
L 529.845986 180.875432 
L 524.894242 180.875432 
L 524.894242 174.722988 
L 518.51419 174.722988 
L 518.51419 173.232381 
z
" clip-path="url(#p6c941edbcf)" style="fill: #ff0000"/>
   </g>
   <g id="patch_99">
    <path d="M 554.844741 191.843527 
Q 553.059718 192.041764 551.139826 192.141334 
Q 549.219934 192.24 547.173107 192.24 
Q 542.547913 192.24 539.846578 191.649817 
Q 537.145242 191.059633 537.145242 190.050347 
Q 537.145242 189.029294 539.894178 188.443636 
Q 542.647081 187.857979 547.434911 187.857979 
Q 549.279435 187.857979 550.969257 187.937635 
Q 552.663046 188.016387 554.162466 188.172079 
L 554.162466 189.045587 
Q 552.615445 188.84554 551.084292 188.746874 
Q 549.553138 188.647304 548.014052 188.647304 
Q 545.165947 188.647304 543.622894 189.01119 
Q 542.07984 189.374171 542.07984 190.050347 
Q 542.07984 190.720187 543.56736 191.085884 
Q 545.054879 191.450675 547.791915 191.450675 
Q 548.537658 191.450675 549.1763 191.429856 
Q 549.814942 191.408131 550.322682 191.362872 
L 550.322682 190.54277 
L 547.407144 190.54277 
L 547.407144 189.812282 
L 554.844741 189.812282 
L 554.844741 191.843527 
z
" clip-path="url(#p6c941edbcf)" style="fill: #ffa600"/>
   </g>
   <g id="patch_100">
    <path d="M 554.844741 187.211155 
Q 553.364209 187.531771 551.763271 187.693943 
Q 550.162334 187.857979 548.418695 187.857979 
Q 543.218993 187.857979 540.182118 186.642621 
Q 537.145242 185.427263 537.145242 183.348851 
Q 537.145242 181.262984 540.182118 180.04949 
Q 543.218993 178.834132 548.418695 178.834132 
Q 550.162334 178.834132 551.763271 178.998168 
Q 553.364209 179.16034 554.844741 179.480956 
L 554.844741 181.27976 
Q 553.35083 180.854758 551.901514 180.657169 
Q 550.452197 180.45958 548.85126 180.45958 
Q 545.979384 180.45958 544.333852 181.229431 
Q 542.69278 181.997418 542.69278 183.348851 
Q 542.69278 184.694693 544.333852 185.464544 
Q 545.979384 186.23253 548.85126 186.23253 
Q 550.452197 186.23253 551.901514 186.034942 
Q 553.35083 185.835489 554.844741 185.410486 
L 554.844741 187.211155 
z
" clip-path="url(#p6c941edbcf)" style="fill: #0000ff"/>
   </g>
   <g id="patch_101">
    <path d="M 549.405701 177.139785 
L 542.598758 177.139785 
L 541.523977 178.834132 
L 537.145242 178.834132 
L 543.39851 169.533162 
L 548.591473 169.533162 
L 554.844741 178.834132 
L 550.469625 178.834132 
L 549.405701 177.139785 
z
M 543.684395 175.413544 
L 548.309208 175.413544 
L 546.00042 171.713886 
L 543.684395 175.413544 
z
" clip-path="url(#p6c941edbcf)" style="fill: #008000"/>
   </g>
   <g id="patch_102">
    <path d="M 537.145242 137.923719 
L 554.844741 137.923719 
L 554.844741 144.088441 
L 548.477038 144.088441 
L 548.477038 169.533162 
L 543.525294 169.533162 
L 543.525294 144.088441 
L 537.145242 144.088441 
L 537.145242 137.923719 
z
" clip-path="url(#p6c941edbcf)" style="fill: #ff0000"/>
   </g>
   <g id="patch_103">
    <path d="M 555.776294 189.46134 
L 573.475793 189.46134 
L 573.475793 190.003256 
L 567.108089 190.003256 
L 567.108089 192.24 
L 562.156346 192.24 
L 562.156346 190.003256 
L 555.776294 190.003256 
L 555.776294 189.46134 
z
" clip-path="url(#p6c941edbcf)" style="fill: #ff0000"/>
   </g>
   <g id="patch_104">
    <path d="M 573.475793 189.257937 
Q 571.99526 189.35876 570.394323 189.409757 
Q 568.793386 189.46134 567.049747 189.46134 
Q 561.850045 189.46134 558.813169 189.079154 
Q 555.776294 188.696967 555.776294 188.043382 
Q 555.776294 187.387451 558.813169 187.005851 
Q 561.850045 186.623665 567.049747 186.623665 
Q 568.793386 186.623665 570.394323 186.675248 
Q 571.99526 186.726245 573.475793 186.827068 
L 573.475793 187.392727 
Q 571.981882 187.259079 570.532566 187.196944 
Q 569.083249 187.13481 567.482312 187.13481 
Q 564.610435 187.13481 562.964904 187.3769 
Q 561.323831 187.618405 561.323831 188.043382 
Q 561.323831 188.4666 562.964904 188.708691 
Q 564.610435 188.950195 567.482312 188.950195 
Q 569.083249 188.950195 570.532566 188.888061 
Q 571.981882 188.82534 573.475793 188.691692 
L 573.475793 189.257937 
z
" clip-path="url(#p6c941edbcf)" style="fill: #0000ff"/>
   </g>
   <g id="patch_105">
    <path d="M 573.475793 186.333103 
Q 571.69077 186.478384 569.770878 186.551356 
Q 567.850986 186.623665 565.804159 186.623665 
Q 561.178965 186.623665 558.477629 186.191138 
Q 555.776294 185.758612 555.776294 185.018939 
Q 555.776294 184.270642 558.52523 183.841432 
Q 561.278133 183.412223 566.065962 183.412223 
Q 567.910487 183.412223 569.600309 183.4706 
Q 571.294098 183.528315 572.793517 183.642417 
L 572.793517 184.282582 
Q 571.246497 184.135975 569.715344 184.063666 
Q 568.18419 183.990694 566.645103 183.990694 
Q 563.796999 183.990694 562.253946 184.257374 
Q 560.710892 184.523391 560.710892 185.018939 
Q 560.710892 185.509843 562.198412 185.77785 
Q 563.685931 186.045194 566.422967 186.045194 
Q 567.16871 186.045194 567.807352 186.029936 
Q 568.445994 186.014015 568.953734 185.980846 
L 568.953734 185.37982 
L 566.038195 185.37982 
L 566.038195 184.844469 
L 573.475793 184.844469 
L 573.475793 186.333103 
z
" clip-path="url(#p6c941edbcf)" style="fill: #ffa600"/>
   </g>
   <g id="patch_106">
    <path d="M 568.036752 182.210816 
L 561.22981 182.210816 
L 560.155029 183.412223 
L 555.776294 183.412223 
L 562.029562 176.817209 
L 567.222525 176.817209 
L 573.475793 183.412223 
L 569.100677 183.412223 
L 568.036752 182.210816 
z
M 562.315446 180.986795 
L 566.940259 180.986795 
L 564.631472 178.36349 
L 562.315446 180.986795 
z
" clip-path="url(#p6c941edbcf)" style="fill: #008000"/>
   </g>
   <g id="patch_107">
    <path d="M 592.106845 191.921305 
Q 590.626312 192.079275 589.025375 192.159178 
Q 587.424438 192.24 585.680798 192.24 
Q 580.481097 192.24 577.444221 191.641184 
Q 574.407346 191.042369 574.407346 190.01832 
Q 574.407346 188.990599 577.444221 188.392701 
Q 580.481097 187.793886 585.680798 187.793886 
Q 587.424438 187.793886 589.025375 187.874707 
Q 590.626312 187.954611 592.106845 188.11258 
L 592.106845 188.998864 
Q 590.612934 188.789463 589.163617 188.692109 
Q 587.714301 188.594756 586.113364 188.594756 
Q 583.241487 188.594756 581.595955 188.974067 
Q 579.954883 189.35246 579.954883 190.01832 
Q 579.954883 190.681426 581.595955 191.060737 
Q 583.241487 191.43913 586.113364 191.43913 
Q 587.714301 191.43913 589.163617 191.341777 
Q 590.612934 191.243505 592.106845 191.034103 
L 592.106845 191.921305 
z
" clip-path="url(#p6c941edbcf)" style="fill: #0000ff"/>
   </g>
   <g id="patch_108">
    <path d="M 592.106845 187.369109 
Q 590.321821 187.581497 588.401929 187.688176 
Q 586.482038 187.793886 584.435211 187.793886 
Q 579.810017 187.793886 577.108681 187.16157 
Q 574.407346 186.529254 574.407346 185.447916 
Q 574.407346 184.353971 577.156282 183.726504 
Q 579.909185 183.099038 584.697014 183.099038 
Q 586.541538 183.099038 588.23136 183.184381 
Q 589.925149 183.268754 591.424569 183.435562 
L 591.424569 184.371428 
Q 589.877549 184.1571 588.346395 184.051391 
Q 586.815242 183.944712 585.276155 183.944712 
Q 582.428051 183.944712 580.884997 184.334575 
Q 579.341944 184.723469 579.341944 185.447916 
Q 579.341944 186.165575 580.829463 186.557378 
Q 582.316983 186.948212 585.054019 186.948212 
Q 585.799762 186.948212 586.438404 186.925906 
Q 587.077045 186.902631 587.584785 186.85414 
L 587.584785 185.975493 
L 584.669247 185.975493 
L 584.669247 185.192856 
L 592.106845 185.192856 
L 592.106845 187.369109 
z
" clip-path="url(#p6c941edbcf)" style="fill: #ffa600"/>
   </g>
   <g id="patch_109">
    <path d="M 574.407346 176.165587 
L 592.106845 176.165587 
L 592.106845 177.517803 
L 585.739141 177.517803 
L 585.739141 183.099038 
L 580.787398 183.099038 
L 580.787398 177.517803 
L 574.407346 177.517803 
L 574.407346 176.165587 
z
" clip-path="url(#p6c941edbcf)" style="fill: #ff0000"/>
   </g>
   <g id="patch_110">
    <path d="M 586.667804 173.173137 
L 579.860861 173.173137 
L 578.786081 176.165587 
L 574.407346 176.165587 
L 580.660614 159.738801 
L 585.853577 159.738801 
L 592.106845 176.165587 
L 587.731728 176.165587 
L 586.667804 173.173137 
z
M 580.946498 170.12436 
L 585.571311 170.12436 
L 583.262523 163.590259 
L 580.946498 170.12436 
z
" clip-path="url(#p6c941edbcf)" style="fill: #008000"/>
   </g>
   <g id="patch_111">
    <path d="M 610.737896 191.851317 
Q 609.257364 192.043978 607.656427 192.141429 
Q 606.055489 192.24 604.31185 192.24 
Q 599.112148 192.24 596.075273 191.509679 
Q 593.038397 190.779359 593.038397 189.53042 
Q 593.038397 188.277002 596.075273 187.547801 
Q 599.112148 186.81748 604.31185 186.81748 
Q 606.055489 186.81748 607.656427 186.916051 
Q 609.257364 187.013502 610.737896 187.206163 
L 610.737896 188.287083 
Q 609.243986 188.031695 607.794669 187.912962 
Q 606.345353 187.794228 604.744415 187.794228 
Q 601.872539 187.794228 600.227007 188.25684 
Q 598.585935 188.718331 598.585935 189.53042 
Q 598.585935 190.33915 600.227007 190.801761 
Q 601.872539 191.263252 604.744415 191.263252 
Q 606.345353 191.263252 607.794669 191.144519 
Q 609.243986 191.024666 610.737896 190.769277 
L 610.737896 191.851317 
z
" clip-path="url(#p6c941edbcf)" style="fill: #0000ff"/>
   </g>
   <g id="patch_112">
    <path d="M 610.737896 186.308751 
Q 608.952873 186.563116 607.032981 186.690879 
Q 605.113089 186.81748 603.066262 186.81748 
Q 598.441068 186.81748 595.739733 186.060194 
Q 593.038397 185.302908 593.038397 184.007855 
Q 593.038397 182.697703 595.787333 181.946224 
Q 598.540236 181.194745 603.328066 181.194745 
Q 605.17259 181.194745 606.862412 181.296955 
Q 608.556201 181.398004 610.055621 181.597779 
L 610.055621 182.71861 
Q 608.508601 182.461922 606.977447 182.33532 
Q 605.446294 182.207557 603.907207 182.207557 
Q 601.059103 182.207557 599.516049 182.674473 
Q 597.972995 183.140228 597.972995 184.007855 
Q 597.972995 184.867352 599.460515 185.336591 
Q 600.948035 185.804668 603.685071 185.804668 
Q 604.430814 185.804668 605.069455 185.777954 
Q 605.708097 185.750078 606.215837 185.692004 
L 606.215837 184.639701 
L 603.300299 184.639701 
L 603.300299 183.702385 
L 610.737896 183.702385 
L 610.737896 186.308751 
z
" clip-path="url(#p6c941edbcf)" style="fill: #ffa600"/>
   </g>
   <g id="patch_113">
    <path d="M 593.038397 169.699003 
L 610.737896 169.699003 
L 610.737896 171.940993 
L 604.370193 171.940993 
L 604.370193 181.194745 
L 599.418449 181.194745 
L 599.418449 171.940993 
L 593.038397 171.940993 
L 593.038397 169.699003 
z
" clip-path="url(#p6c941edbcf)" style="fill: #ff0000"/>
   </g>
   <g id="patch_114">
    <path d="M 605.298856 164.273623 
L 598.491913 164.273623 
L 597.417133 169.699003 
L 593.038397 169.699003 
L 599.291665 139.916858 
L 604.484628 139.916858 
L 610.737896 169.699003 
L 606.36278 169.699003 
L 605.298856 164.273623 
z
M 599.57755 158.746118 
L 604.202363 158.746118 
L 601.893575 146.899641 
L 599.57755 158.746118 
z
" clip-path="url(#p6c941edbcf)" style="fill: #008000"/>
   </g>
   <g id="patch_115">
    <path d="M 629.368948 191.996705 
Q 627.583925 192.118353 625.664033 192.179454 
Q 623.744141 192.24 621.697314 192.24 
Q 617.07212 192.24 614.370785 191.877835 
Q 611.669449 191.51567 611.669449 190.896323 
Q 611.669449 190.269756 614.418385 189.910368 
Q 617.171288 189.55098 621.959118 189.55098 
Q 623.803642 189.55098 625.493464 189.599861 
Q 627.187253 189.648187 628.686673 189.743727 
L 628.686673 190.279754 
Q 627.139652 190.156996 625.608499 190.09645 
Q 624.077345 190.035348 622.538259 190.035348 
Q 619.690154 190.035348 618.147101 190.258646 
Q 616.604047 190.481389 616.604047 190.896323 
Q 616.604047 191.307369 618.091567 191.531778 
Q 619.579086 191.755632 622.316122 191.755632 
Q 623.061865 191.755632 623.700507 191.742856 
Q 624.339149 191.729525 624.846889 191.701752 
L 624.846889 191.198498 
L 621.931351 191.198498 
L 621.931351 190.750235 
L 629.368948 190.750235 
L 629.368948 191.996705 
z
" clip-path="url(#p6c941edbcf)" style="fill: #ffa600"/>
   </g>
   <g id="patch_116">
    <path d="M 629.368948 189.262152 
Q 627.888416 189.405318 626.287478 189.477733 
Q 624.686541 189.55098 622.942902 189.55098 
Q 617.7432 189.55098 614.706325 189.008283 
Q 611.669449 188.465586 611.669449 187.537507 
Q 611.669449 186.606099 614.706325 186.064234 
Q 617.7432 185.521537 622.942902 185.521537 
Q 624.686541 185.521537 626.287478 185.594784 
Q 627.888416 185.6672 629.368948 185.810365 
L 629.368948 186.61359 
Q 627.875037 186.423813 626.425721 186.335583 
Q 624.976404 186.247353 623.375467 186.247353 
Q 620.503591 186.247353 618.858059 186.591117 
Q 617.216987 186.934048 617.216987 187.537507 
Q 617.216987 188.138469 618.858059 188.482233 
Q 620.503591 188.825164 623.375467 188.825164 
Q 624.976404 188.825164 626.425721 188.736934 
Q 627.875037 188.647872 629.368948 188.458095 
L 629.368948 189.262152 
z
" clip-path="url(#p6c941edbcf)" style="fill: #0000ff"/>
   </g>
   <g id="patch_117">
    <path d="M 623.929908 183.959657 
L 617.122965 183.959657 
L 616.048184 185.521537 
L 611.669449 185.521537 
L 617.922717 176.947732 
L 623.11568 176.947732 
L 629.368948 185.521537 
L 624.993832 185.521537 
L 623.929908 183.959657 
z
M 618.208602 182.368376 
L 622.833415 182.368376 
L 620.524627 178.957964 
L 618.208602 182.368376 
z
" clip-path="url(#p6c941edbcf)" style="fill: #008000"/>
   </g>
   <g id="patch_118">
    <path d="M 611.669449 166.608492 
L 629.368948 166.608492 
L 629.368948 168.624931 
L 623.001245 168.624931 
L 623.001245 176.947732 
L 618.049501 176.947732 
L 618.049501 168.624931 
L 611.669449 168.624931 
L 611.669449 166.608492 
z
" clip-path="url(#p6c941edbcf)" style="fill: #ff0000"/>
   </g>
   <g id="patch_119">
    <path d="M 648 191.962987 
Q 646.214977 192.101493 644.295085 192.171063 
Q 642.375193 192.24 640.328366 192.24 
Q 635.703172 192.24 633.001836 191.827643 
Q 630.300501 191.415285 630.300501 190.710103 
Q 630.300501 189.996699 633.049437 189.587504 
Q 635.80234 189.178309 640.590169 189.178309 
Q 642.434694 189.178309 644.124516 189.233965 
Q 645.818305 189.288988 647.317724 189.397769 
L 647.317724 190.008084 
Q 645.770704 189.868312 644.239551 189.799375 
Q 642.708397 189.729806 641.16931 189.729806 
Q 638.321206 189.729806 636.778153 189.98405 
Q 635.235099 190.237663 635.235099 190.710103 
Q 635.235099 191.178116 636.722619 191.433626 
Q 638.210138 191.688504 640.947174 191.688504 
Q 641.692917 191.688504 642.331559 191.673957 
Q 642.970201 191.658778 643.477941 191.627156 
L 643.477941 191.054156 
L 640.562402 191.054156 
L 640.562402 190.543769 
L 648 190.543769 
L 648 191.962987 
z
" clip-path="url(#p6c941edbcf)" style="fill: #ffa600"/>
   </g>
   <g id="patch_120">
    <path d="M 648 188.94757 
Q 646.519467 189.061942 644.91853 189.119793 
Q 643.317593 189.178309 641.573954 189.178309 
Q 636.374252 189.178309 633.337376 188.74476 
Q 630.300501 188.31121 630.300501 187.569788 
Q 630.300501 186.825706 633.337376 186.392821 
Q 636.374252 185.959272 641.573954 185.959272 
Q 643.317593 185.959272 644.91853 186.017788 
Q 646.519467 186.075639 648 186.190011 
L 648 186.83169 
Q 646.506089 186.680081 645.056773 186.609596 
Q 643.607456 186.539111 642.006519 186.539111 
Q 639.134642 186.539111 637.489111 186.813737 
Q 635.848038 187.087697 635.848038 187.569788 
Q 635.848038 188.049884 637.489111 188.32451 
Q 639.134642 188.59847 642.006519 188.59847 
Q 643.607456 188.59847 645.056773 188.527985 
Q 646.506089 188.456835 648 188.305226 
L 648 188.94757 
z
" clip-path="url(#p6c941edbcf)" style="fill: #0000ff"/>
   </g>
   <g id="patch_121">
    <path d="M 630.300501 180.668513 
L 648 180.668513 
L 648 181.700358 
L 641.632296 181.700358 
L 641.632296 185.959272 
L 636.680553 185.959272 
L 636.680553 181.700358 
L 630.300501 181.700358 
L 630.300501 180.668513 
z
" clip-path="url(#p6c941edbcf)" style="fill: #ff0000"/>
   </g>
   <g id="patch_122">
    <path d="M 642.560959 179.031108 
L 635.754017 179.031108 
L 634.679236 180.668513 
L 630.300501 180.668513 
L 636.553769 171.680122 
L 641.746732 171.680122 
L 648 180.668513 
L 643.624884 180.668513 
L 642.560959 179.031108 
z
M 636.839653 177.362881 
L 641.464466 177.362881 
L 639.155679 173.787559 
L 636.839653 177.362881 
z
" clip-path="url(#p6c941edbcf)" style="fill: #008000"/>
   </g>
   <g id="matplotlib.axis_1">
    <g id="xtick_1">
     <g id="line2d_2">
      <defs>
       <path id="m14b88b1dfd" d="M 0 0 
L 0 3.5 
" style="stroke: #000000; stroke-width: 0.8"/>
      </defs>
      <g>
       <use xlink:href="#m14b88b1dfd" x="98.84975" y="192.24" style="stroke: #000000; stroke-width: 0.8"/>
      </g>
     </g>
     <g id="text_1">
      <!-- 0 -->
      <g transform="translate(95.6685 206.838437) scale(0.1 -0.1)">
       <defs>
        <path id="DejaVuSans-30" d="M 2034 4250 
Q 1547 4250 1301 3770 
Q 1056 3291 1056 2328 
Q 1056 1369 1301 889 
Q 1547 409 2034 409 
Q 2525 409 2770 889 
Q 3016 1369 3016 2328 
Q 3016 3291 2770 3770 
Q 2525 4250 2034 4250 
z
M 2034 4750 
Q 2819 4750 3233 4129 
Q 3647 3509 3647 2328 
Q 3647 1150 3233 529 
Q 2819 -91 2034 -91 
Q 1250 -91 836 529 
Q 422 1150 422 2328 
Q 422 3509 836 4129 
Q 1250 4750 2034 4750 
z
" transform="scale(0.015625)"/>
       </defs>
       <use xlink:href="#DejaVuSans-30"/>
      </g>
     </g>
    </g>
    <g id="xtick_2">
     <g id="line2d_3">
      <g>
       <use xlink:href="#m14b88b1dfd" x="192.005008" y="192.24" style="stroke: #000000; stroke-width: 0.8"/>
      </g>
     </g>
     <g id="text_2">
      <!-- 5 -->
      <g transform="translate(188.823758 206.838437) scale(0.1 -0.1)">
       <defs>
        <path id="DejaVuSans-35" d="M 691 4666 
L 3169 4666 
L 3169 4134 
L 1269 4134 
L 1269 2991 
Q 1406 3038 1543 3061 
Q 1681 3084 1819 3084 
Q 2600 3084 3056 2656 
Q 3513 2228 3513 1497 
Q 3513 744 3044 326 
Q 2575 -91 1722 -91 
Q 1428 -91 1123 -41 
Q 819 9 494 109 
L 494 744 
Q 775 591 1075 516 
Q 1375 441 1709 441 
Q 2250 441 2565 725 
Q 2881 1009 2881 1497 
Q 2881 1984 2565 2268 
Q 2250 2553 1709 2553 
Q 1456 2553 1204 2497 
Q 953 2441 691 2322 
L 691 4666 
z
" transform="scale(0.015625)"/>
       </defs>
       <use xlink:href="#DejaVuSans-35"/>
      </g>
     </g>
    </g>
    <g id="xtick_3">
     <g id="line2d_4">
      <g>
       <use xlink:href="#m14b88b1dfd" x="285.160267" y="192.24" style="stroke: #000000; stroke-width: 0.8"/>
      </g>
     </g>
     <g id="text_3">
      <!-- 10 -->
      <g transform="translate(278.797767 206.838437) scale(0.1 -0.1)">
       <defs>
        <path id="DejaVuSans-31" d="M 794 531 
L 1825 531 
L 1825 4091 
L 703 3866 
L 703 4441 
L 1819 4666 
L 2450 4666 
L 2450 531 
L 3481 531 
L 3481 0 
L 794 0 
L 794 531 
z
" transform="scale(0.015625)"/>
       </defs>
       <use xlink:href="#DejaVuSans-31"/>
       <use xlink:href="#DejaVuSans-30" x="63.623047"/>
      </g>
     </g>
    </g>
    <g id="xtick_4">
     <g id="line2d_5">
      <g>
       <use xlink:href="#m14b88b1dfd" x="378.315526" y="192.24" style="stroke: #000000; stroke-width: 0.8"/>
      </g>
     </g>
     <g id="text_4">
      <!-- 15 -->
      <g transform="translate(371.953026 206.838437) scale(0.1 -0.1)">
       <use xlink:href="#DejaVuSans-31"/>
       <use xlink:href="#DejaVuSans-35" x="63.623047"/>
      </g>
     </g>
    </g>
    <g id="xtick_5">
     <g id="line2d_6">
      <g>
       <use xlink:href="#m14b88b1dfd" x="471.470785" y="192.24" style="stroke: #000000; stroke-width: 0.8"/>
      </g>
     </g>
     <g id="text_5">
      <!-- 20 -->
      <g transform="translate(465.108285 206.838437) scale(0.1 -0.1)">
       <defs>
        <path id="DejaVuSans-32" d="M 1228 531 
L 3431 531 
L 3431 0 
L 469 0 
L 469 531 
Q 828 903 1448 1529 
Q 2069 2156 2228 2338 
Q 2531 2678 2651 2914 
Q 2772 3150 2772 3378 
Q 2772 3750 2511 3984 
Q 2250 4219 1831 4219 
Q 1534 4219 1204 4116 
Q 875 4013 500 3803 
L 500 4441 
Q 881 4594 1212 4672 
Q 1544 4750 1819 4750 
Q 2544 4750 2975 4387 
Q 3406 4025 3406 3419 
Q 3406 3131 3298 2873 
Q 3191 2616 2906 2266 
Q 2828 2175 2409 1742 
Q 1991 1309 1228 531 
z
" transform="scale(0.015625)"/>
       </defs>
       <use xlink:href="#DejaVuSans-32"/>
       <use xlink:href="#DejaVuSans-30" x="63.623047"/>
      </g>
     </g>
    </g>
    <g id="xtick_6">
     <g id="line2d_7">
      <g>
       <use xlink:href="#m14b88b1dfd" x="564.626043" y="192.24" style="stroke: #000000; stroke-width: 0.8"/>
      </g>
     </g>
     <g id="text_6">
      <!-- 25 -->
      <g transform="translate(558.263543 206.838437) scale(0.1 -0.1)">
       <use xlink:href="#DejaVuSans-32"/>
       <use xlink:href="#DejaVuSans-35" x="63.623047"/>
      </g>
     </g>
    </g>
   </g>
   <g id="matplotlib.axis_2">
    <g id="ytick_1">
     <g id="line2d_8">
      <defs>
       <path id="m562d46f747" d="M 0 0 
L -3.5 0 
" style="stroke: #000000; stroke-width: 0.8"/>
      </defs>
      <g>
       <use xlink:href="#m562d46f747" x="90" y="192.24" style="stroke: #000000; stroke-width: 0.8"/>
      </g>
     </g>
     <g id="text_7">
      <!-- 0.0 -->
      <g transform="translate(67.096875 196.039219) scale(0.1 -0.1)">
       <defs>
        <path id="DejaVuSans-2e" d="M 684 794 
L 1344 794 
L 1344 0 
L 684 0 
L 684 794 
z
" transform="scale(0.015625)"/>
       </defs>
       <use xlink:href="#DejaVuSans-30"/>
       <use xlink:href="#DejaVuSans-2e" x="63.623047"/>
       <use xlink:href="#DejaVuSans-30" x="95.410156"/>
      </g>
     </g>
    </g>
    <g id="ytick_2">
     <g id="line2d_9">
      <g>
       <use xlink:href="#m562d46f747" x="90" y="164.11939" style="stroke: #000000; stroke-width: 0.8"/>
      </g>
     </g>
     <g id="text_8">
      <!-- 0.2 -->
      <g transform="translate(67.096875 167.918609) scale(0.1 -0.1)">
       <use xlink:href="#DejaVuSans-30"/>
       <use xlink:href="#DejaVuSans-2e" x="63.623047"/>
       <use xlink:href="#DejaVuSans-32" x="95.410156"/>
      </g>
     </g>
    </g>
    <g id="ytick_3">
     <g id="line2d_10">
      <g>
       <use xlink:href="#m562d46f747" x="90" y="135.99878" style="stroke: #000000; stroke-width: 0.8"/>
      </g>
     </g>
     <g id="text_9">
      <!-- 0.4 -->
      <g transform="translate(67.096875 139.797999) scale(0.1 -0.1)">
       <defs>
        <path id="DejaVuSans-34" d="M 2419 4116 
L 825 1625 
L 2419 1625 
L 2419 4116 
z
M 2253 4666 
L 3047 4666 
L 3047 1625 
L 3713 1625 
L 3713 1100 
L 3047 1100 
L 3047 0 
L 2419 0 
L 2419 1100 
L 313 1100 
L 313 1709 
L 2253 4666 
z
" transform="scale(0.015625)"/>
       </defs>
       <use xlink:href="#DejaVuSans-30"/>
       <use xlink:href="#DejaVuSans-2e" x="63.623047"/>
       <use xlink:href="#DejaVuSans-34" x="95.410156"/>
      </g>
     </g>
    </g>
    <g id="ytick_4">
     <g id="line2d_11">
      <g>
       <use xlink:href="#m562d46f747" x="90" y="107.87817" style="stroke: #000000; stroke-width: 0.8"/>
      </g>
     </g>
     <g id="text_10">
      <!-- 0.6 -->
      <g transform="translate(67.096875 111.677389) scale(0.1 -0.1)">
       <defs>
        <path id="DejaVuSans-36" d="M 2113 2584 
Q 1688 2584 1439 2293 
Q 1191 2003 1191 1497 
Q 1191 994 1439 701 
Q 1688 409 2113 409 
Q 2538 409 2786 701 
Q 3034 994 3034 1497 
Q 3034 2003 2786 2293 
Q 2538 2584 2113 2584 
z
M 3366 4563 
L 3366 3988 
Q 3128 4100 2886 4159 
Q 2644 4219 2406 4219 
Q 1781 4219 1451 3797 
Q 1122 3375 1075 2522 
Q 1259 2794 1537 2939 
Q 1816 3084 2150 3084 
Q 2853 3084 3261 2657 
Q 3669 2231 3669 1497 
Q 3669 778 3244 343 
Q 2819 -91 2113 -91 
Q 1303 -91 875 529 
Q 447 1150 447 2328 
Q 447 3434 972 4092 
Q 1497 4750 2381 4750 
Q 2619 4750 2861 4703 
Q 3103 4656 3366 4563 
z
" transform="scale(0.015625)"/>
       </defs>
       <use xlink:href="#DejaVuSans-30"/>
       <use xlink:href="#DejaVuSans-2e" x="63.623047"/>
       <use xlink:href="#DejaVuSans-36" x="95.410156"/>
      </g>
     </g>
    </g>
    <g id="ytick_5">
     <g id="line2d_12">
      <g>
       <use xlink:href="#m562d46f747" x="90" y="79.75756" style="stroke: #000000; stroke-width: 0.8"/>
      </g>
     </g>
     <g id="text_11">
      <!-- 0.8 -->
      <g transform="translate(67.096875 83.556779) scale(0.1 -0.1)">
       <defs>
        <path id="DejaVuSans-38" d="M 2034 2216 
Q 1584 2216 1326 1975 
Q 1069 1734 1069 1313 
Q 1069 891 1326 650 
Q 1584 409 2034 409 
Q 2484 409 2743 651 
Q 3003 894 3003 1313 
Q 3003 1734 2745 1975 
Q 2488 2216 2034 2216 
z
M 1403 2484 
Q 997 2584 770 2862 
Q 544 3141 544 3541 
Q 544 4100 942 4425 
Q 1341 4750 2034 4750 
Q 2731 4750 3128 4425 
Q 3525 4100 3525 3541 
Q 3525 3141 3298 2862 
Q 3072 2584 2669 2484 
Q 3125 2378 3379 2068 
Q 3634 1759 3634 1313 
Q 3634 634 3220 271 
Q 2806 -91 2034 -91 
Q 1263 -91 848 271 
Q 434 634 434 1313 
Q 434 1759 690 2068 
Q 947 2378 1403 2484 
z
M 1172 3481 
Q 1172 3119 1398 2916 
Q 1625 2713 2034 2713 
Q 2441 2713 2670 2916 
Q 2900 3119 2900 3481 
Q 2900 3844 2670 4047 
Q 2441 4250 2034 4250 
Q 1625 4250 1398 4047 
Q 1172 3844 1172 3481 
z
" transform="scale(0.015625)"/>
       </defs>
       <use xlink:href="#DejaVuSans-30"/>
       <use xlink:href="#DejaVuSans-2e" x="63.623047"/>
       <use xlink:href="#DejaVuSans-38" x="95.410156"/>
      </g>
     </g>
    </g>
    <g id="ytick_6">
     <g id="line2d_13">
      <g>
       <use xlink:href="#m562d46f747" x="90" y="51.63695" style="stroke: #000000; stroke-width: 0.8"/>
      </g>
     </g>
     <g id="text_12">
      <!-- 1.0 -->
      <g transform="translate(67.096875 55.436169) scale(0.1 -0.1)">
       <use xlink:href="#DejaVuSans-31"/>
       <use xlink:href="#DejaVuSans-2e" x="63.623047"/>
       <use xlink:href="#DejaVuSans-30" x="95.410156"/>
      </g>
     </g>
    </g>
   </g>
  </g>
 </g>
 <defs>
  <clipPath id="p6c941edbcf">
   <rect x="90" y="25.92" width="558" height="166.32"/>
  </clipPath>
 </defs>
</svg>
