<?xml version="1.0" encoding="utf-8" standalone="no"?>
<!DOCTYPE svg PUBLIC "-//W3C//DTD SVG 1.1//EN"
  "http://www.w3.org/Graphics/SVG/1.1/DTD/svg11.dtd">
<svg xmlns:xlink="http://www.w3.org/1999/xlink" width="720pt" height="216pt" viewBox="0 0 720 216" xmlns="http://www.w3.org/2000/svg" version="1.1">
 <metadata>
  <rdf:RDF xmlns:dc="http://purl.org/dc/elements/1.1/" xmlns:cc="http://creativecommons.org/ns#" xmlns:rdf="http://www.w3.org/1999/02/22-rdf-syntax-ns#">
   <cc:Work>
    <dc:type rdf:resource="http://purl.org/dc/dcmitype/StillImage"/>
    <dc:date>2025-12-17T10:21:56.363141</dc:date>
    <dc:format>image/svg+xml</dc:format>
    <dc:creator>
     <cc:Agent>
      <dc:title>Matplotlib v3.8.2, https://matplotlib.org/</dc:title>
     </cc:Agent>
    </dc:creator>
   </cc:Work>
  </rdf:RDF>
 </metadata>
 <defs>
  <style type="text/css">*{stroke-linejoin: round; stroke-linecap: butt}</style>
 </defs>
 <g id="figure_1">
  <g id="patch_1">
   <path d="M 0 216 
L 720 216 
L 720 0 
L 0 0 
z
" style="fill: #ffffff"/>
  </g>
  <g id="axes_1">
   <g id="patch_2">
    <path d="M 90 192.24 
L 648 192.24 
L 648 25.92 
L 90 25.92 
z
" style="fill: #ffffff"/>
   </g>
   <g id="line2d_1">
    <path d="M 90 192.24 
L 648 192.24 
" clip-path="url(#p7cab5f3f49)" style="fill: none; stroke: #000000; stroke-width: 0.5; stroke-linecap: square"/>
   </g>
   <g id="patch_3">
    <path d="M 107.527481 191.835686 
L 97.796315 191.835686 
L 96.259815 192.24 
L 90 192.24 
L 98.939636 190.020555 
L 106.363466 190.020555 
L 115.303103 192.24 
L 109.048461 192.24 
L 107.527481 191.835686 
z
M 99.348335 191.423762 
L 105.959941 191.423762 
L 102.659311 190.540931 
L 99.348335 191.423762 
z
" clip-path="url(#p7cab5f3f49)" style="fill: #008000"/>
   </g>
   <g id="patch_4">
    <path d="M 115.303103 189.842297 
Q 113.186542 189.930655 110.897851 189.975348 
Q 108.60916 190.020555 106.116463 190.020555 
Q 98.683 190.020555 94.3415 189.685615 
Q 90 189.350674 90 188.777886 
Q 90 188.203042 94.3415 187.868615 
Q 98.683 187.533675 106.116463 187.533675 
Q 108.60916 187.533675 110.897851 187.578882 
Q 113.186542 187.623575 115.303103 187.711933 
L 115.303103 188.207665 
Q 113.167416 188.090539 111.095482 188.036085 
Q 109.023547 187.981632 106.734856 187.981632 
Q 102.629238 187.981632 100.276796 188.193795 
Q 97.930728 188.405444 97.930728 188.777886 
Q 97.930728 189.148786 100.276796 189.360949 
Q 102.629238 189.572598 106.734856 189.572598 
Q 109.023547 189.572598 111.095482 189.518145 
Q 113.167416 189.463177 115.303103 189.346051 
L 115.303103 189.842297 
z
" clip-path="url(#p7cab5f3f49)" style="fill: #0000ff"/>
   </g>
   <g id="patch_5">
    <path d="M 115.303103 187.300604 
Q 112.751243 187.417139 110.006577 187.475673 
Q 107.26191 187.533675 104.335778 187.533675 
Q 97.723627 187.533675 93.861814 187.186729 
Q 90 186.839782 90 186.246461 
Q 90 185.646222 93.929863 185.301936 
Q 97.865397 184.957651 104.710051 184.957651 
Q 107.346972 184.957651 109.762733 185.004478 
Q 112.184163 185.050773 114.327725 185.142298 
L 114.327725 185.655801 
Q 112.116114 185.538201 109.927186 185.480199 
Q 107.738258 185.421665 105.537988 185.421665 
Q 101.466354 185.421665 99.260414 185.63558 
Q 97.054473 185.848963 97.054473 186.246461 
Q 97.054473 186.640235 99.181023 186.855214 
Q 101.307572 187.069661 105.220423 187.069661 
Q 106.286533 187.069661 107.199532 187.057422 
Q 108.11253 187.044651 108.838392 187.018045 
L 108.838392 186.535938 
L 104.670356 186.535938 
L 104.670356 186.106512 
L 115.303103 186.106512 
L 115.303103 187.300604 
z
" clip-path="url(#p7cab5f3f49)" style="fill: #ffa600"/>
   </g>
   <g id="patch_6">
    <path d="M 90 179.922276 
L 115.303103 179.922276 
L 115.303103 180.904315 
L 106.19987 180.904315 
L 106.19987 184.957651 
L 99.120886 184.957651 
L 99.120886 180.904315 
L 90 180.904315 
L 90 179.922276 
z
" clip-path="url(#p7cab5f3f49)" style="fill: #ff0000"/>
   </g>
   <g id="patch_7">
    <path d="M 141.937947 192.084638 
Q 139.821387 192.161648 137.532696 192.2006 
Q 135.244005 192.24 132.751308 192.24 
Q 125.317845 192.24 120.976345 191.948081 
Q 116.634845 191.656162 116.634845 191.156945 
Q 116.634845 190.655937 120.976345 190.364465 
Q 125.317845 190.072547 132.751308 190.072547 
Q 135.244005 190.072547 137.532696 190.111947 
Q 139.821387 190.150899 141.937947 190.227908 
L 141.937947 190.659966 
Q 139.802261 190.557884 137.730326 190.510425 
Q 135.658392 190.462966 133.369701 190.462966 
Q 129.264083 190.462966 126.91164 190.647878 
Q 124.565573 190.832342 124.565573 191.156945 
Q 124.565573 191.480205 126.91164 191.665117 
Q 129.264083 191.849581 133.369701 191.849581 
Q 135.658392 191.849581 137.730326 191.802122 
Q 139.802261 191.754215 141.937947 191.652133 
L 141.937947 192.084638 
z
" clip-path="url(#p7cab5f3f49)" style="fill: #0000ff"/>
   </g>
   <g id="patch_8">
    <path d="M 116.634845 187.365767 
L 141.937947 187.365767 
L 141.937947 187.893664 
L 132.834715 187.893664 
L 132.834715 190.072547 
L 125.755731 190.072547 
L 125.755731 187.893664 
L 116.634845 187.893664 
L 116.634845 187.365767 
z
" clip-path="url(#p7cab5f3f49)" style="fill: #ff0000"/>
   </g>
   <g id="patch_9">
    <path d="M 134.162326 186.789217 
L 124.43116 186.789217 
L 122.89466 187.365767 
L 116.634845 187.365767 
L 125.574481 184.20085 
L 132.998311 184.20085 
L 141.937947 187.365767 
L 135.683306 187.365767 
L 134.162326 186.789217 
z
M 125.98318 186.201815 
L 132.594786 186.201815 
L 129.294156 184.942903 
L 125.98318 186.201815 
z
" clip-path="url(#p7cab5f3f49)" style="fill: #008000"/>
   </g>
   <g id="patch_10">
    <path d="M 141.937947 183.695699 
Q 139.386088 183.948274 136.641422 184.075139 
Q 133.896755 184.20085 130.970623 184.20085 
Q 124.358472 184.20085 120.496659 183.44889 
Q 116.634845 182.69693 116.634845 181.410987 
Q 116.634845 180.11005 120.564708 179.363857 
Q 124.500242 178.617664 131.344896 178.617664 
Q 133.981817 178.617664 136.397577 178.719155 
Q 138.819008 178.819493 140.96257 179.017863 
L 140.96257 180.13081 
Q 138.750959 179.875928 136.562031 179.750217 
Q 134.373102 179.623352 132.172833 179.623352 
Q 128.101199 179.623352 125.895259 180.086984 
Q 123.689318 180.549462 123.689318 181.410987 
Q 123.689318 182.264438 125.815868 182.730376 
Q 127.942417 183.195161 131.855268 183.195161 
Q 132.921378 183.195161 133.834377 183.168635 
Q 134.747375 183.140956 135.473237 183.08329 
L 135.473237 182.038389 
L 131.3052 182.038389 
L 131.3052 181.107665 
L 141.937947 181.107665 
L 141.937947 183.695699 
z
" clip-path="url(#p7cab5f3f49)" style="fill: #ffa600"/>
   </g>
   <g id="patch_11">
    <path d="M 160.797171 191.969256 
L 151.066005 191.969256 
L 149.529505 192.24 
L 143.26969 192.24 
L 152.209326 190.753772 
L 159.633156 190.753772 
L 168.572792 192.24 
L 162.318151 192.24 
L 160.797171 191.969256 
z
M 152.618025 191.693415 
L 159.229631 191.693415 
L 155.929001 191.102236 
L 152.618025 191.693415 
z
" clip-path="url(#p7cab5f3f49)" style="fill: #008000"/>
   </g>
   <g id="patch_12">
    <path d="M 168.572792 190.625595 
Q 166.456231 190.689129 164.167541 190.721266 
Q 161.87885 190.753772 159.386153 190.753772 
Q 151.952689 190.753772 147.61119 190.512932 
Q 143.26969 190.272091 143.26969 189.860224 
Q 143.26969 189.44688 147.61119 189.206409 
Q 151.952689 188.965569 159.386153 188.965569 
Q 161.87885 188.965569 164.167541 188.998075 
Q 166.456231 189.030211 168.572792 189.093746 
L 168.572792 189.450205 
Q 166.437106 189.365984 164.365171 189.326829 
Q 162.293237 189.287674 160.004546 189.287674 
Q 155.898928 189.287674 153.546485 189.440231 
Q 151.200418 189.592419 151.200418 189.860224 
Q 151.200418 190.126922 153.546485 190.279479 
Q 155.898928 190.431666 160.004546 190.431666 
Q 162.293237 190.431666 164.365171 190.392511 
Q 166.437106 190.352987 168.572792 190.268767 
L 168.572792 190.625595 
z
" clip-path="url(#p7cab5f3f49)" style="fill: #0000ff"/>
   </g>
   <g id="patch_13">
    <path d="M 168.572792 188.776784 
Q 166.020933 188.871177 163.276267 188.918588 
Q 160.5316 188.965569 157.605468 188.965569 
Q 150.993317 188.965569 147.131503 188.684547 
Q 143.26969 188.403526 143.26969 187.922945 
Q 143.26969 187.436761 147.199553 187.157895 
Q 151.135087 186.879028 157.979741 186.879028 
Q 160.616662 186.879028 163.032422 186.916958 
Q 165.453853 186.954456 167.597415 187.02859 
L 167.597415 187.444519 
Q 165.385804 187.349265 163.196875 187.302284 
Q 161.007947 187.254873 158.807677 187.254873 
Q 154.736044 187.254873 152.530104 187.428141 
Q 150.324163 187.600977 150.324163 187.922945 
Q 150.324163 188.241896 152.450712 188.416025 
Q 154.577262 188.589724 158.490113 188.589724 
Q 159.556223 188.589724 160.469221 188.579811 
Q 161.38222 188.569467 162.108082 188.547916 
L 162.108082 188.157417 
L 157.940045 188.157417 
L 157.940045 187.809588 
L 168.572792 187.809588 
L 168.572792 188.776784 
z
" clip-path="url(#p7cab5f3f49)" style="fill: #ffa600"/>
   </g>
   <g id="patch_14">
    <path d="M 143.26969 183.693734 
L 168.572792 183.693734 
L 168.572792 184.314955 
L 159.46956 184.314955 
L 159.46956 186.879028 
L 152.390576 186.879028 
L 152.390576 184.314955 
L 143.26969 184.314955 
L 143.26969 183.693734 
z
" clip-path="url(#p7cab5f3f49)" style="fill: #ff0000"/>
   </g>
   <g id="patch_15">
    <path d="M 195.207637 191.935454 
Q 192.655778 192.087727 189.911111 192.164211 
Q 187.166445 192.24 184.240313 192.24 
Q 177.628162 192.24 173.766348 191.786657 
Q 169.904535 191.333315 169.904535 190.558043 
Q 169.904535 189.773733 173.834398 189.323866 
Q 177.769932 188.874 184.614586 188.874 
Q 187.251507 188.874 189.667267 188.935188 
Q 192.088698 188.99568 194.23226 189.115273 
L 194.23226 189.786248 
Q 192.020649 189.632584 189.83172 189.556796 
Q 187.642792 189.480311 185.442522 189.480311 
Q 181.370889 189.480311 179.164948 189.759826 
Q 176.959008 190.038646 176.959008 190.558043 
Q 176.959008 191.072573 179.085557 191.353479 
Q 181.212107 191.633689 185.124958 191.633689 
Q 186.191068 191.633689 187.104066 191.617697 
Q 188.017065 191.601009 188.742927 191.566244 
L 188.742927 190.936292 
L 184.57489 190.936292 
L 184.57489 190.375176 
L 195.207637 190.375176 
L 195.207637 191.935454 
z
" clip-path="url(#p7cab5f3f49)" style="fill: #ffa600"/>
   </g>
   <g id="patch_16">
    <path d="M 195.207637 188.531958 
Q 193.091076 188.701501 190.802386 188.787258 
Q 188.513695 188.874 186.020998 188.874 
Q 178.587534 188.874 174.246034 188.231316 
Q 169.904535 187.588632 169.904535 186.489562 
Q 169.904535 185.38655 174.246034 184.744852 
Q 178.587534 184.102167 186.020998 184.102167 
Q 188.513695 184.102167 190.802386 184.18891 
Q 193.091076 184.274667 195.207637 184.444209 
L 195.207637 185.395422 
Q 193.071951 185.170679 191.000016 185.066194 
Q 188.928082 184.961708 186.639391 184.961708 
Q 182.533773 184.961708 180.18133 185.368807 
Q 177.835263 185.774921 177.835263 186.489562 
Q 177.835263 187.201247 180.18133 187.608346 
Q 182.533773 188.014459 186.639391 188.014459 
Q 188.928082 188.014459 191.000016 187.909974 
Q 193.071951 187.804503 195.207637 187.57976 
L 195.207637 188.531958 
z
" clip-path="url(#p7cab5f3f49)" style="fill: #0000ff"/>
   </g>
   <g id="patch_17">
    <path d="M 187.432016 183.035088 
L 177.700849 183.035088 
L 176.164349 184.102167 
L 169.904535 184.102167 
L 178.844171 178.244528 
L 186.268001 178.244528 
L 195.207637 184.102167 
L 188.952996 184.102167 
L 187.432016 183.035088 
z
M 179.25287 181.947922 
L 185.864476 181.947922 
L 182.563846 179.617922 
L 179.25287 181.947922 
z
" clip-path="url(#p7cab5f3f49)" style="fill: #008000"/>
   </g>
   <g id="patch_18">
    <path d="M 169.904535 165.392009 
L 195.207637 165.392009 
L 195.207637 167.898609 
L 186.104405 167.898609 
L 186.104405 178.244528 
L 179.02542 178.244528 
L 179.02542 167.898609 
L 169.904535 167.898609 
L 169.904535 165.392009 
z
" clip-path="url(#p7cab5f3f49)" style="fill: #ff0000"/>
   </g>
   <g id="patch_19">
    <path d="M 221.842482 191.709565 
Q 219.725921 191.97249 217.43723 192.105481 
Q 215.14854 192.24 212.655843 192.24 
Q 205.222379 192.24 200.880879 191.243333 
Q 196.539379 190.246667 196.539379 188.542244 
Q 196.539379 186.831707 200.880879 185.836569 
Q 205.222379 184.839902 212.655843 184.839902 
Q 215.14854 184.839902 217.43723 184.974422 
Q 219.725921 185.107412 221.842482 185.370337 
L 221.842482 186.845465 
Q 219.706796 186.496937 217.634861 186.334902 
Q 215.562927 186.172868 213.274236 186.172868 
Q 209.168618 186.172868 206.816175 186.804192 
Q 204.470108 187.433987 204.470108 188.542244 
Q 204.470108 189.645915 206.816175 190.277239 
Q 209.168618 190.907035 213.274236 190.907035 
Q 215.562927 190.907035 217.634861 190.745 
Q 219.706796 190.581436 221.842482 190.232909 
L 221.842482 191.709565 
z
" clip-path="url(#p7cab5f3f49)" style="fill: #0000ff"/>
   </g>
   <g id="patch_20">
    <path d="M 196.539379 177.157597 
L 221.842482 177.157597 
L 221.842482 178.655861 
L 212.73925 178.655861 
L 212.73925 184.839902 
L 205.660265 184.839902 
L 205.660265 178.655861 
L 196.539379 178.655861 
L 196.539379 177.157597 
z
" clip-path="url(#p7cab5f3f49)" style="fill: #ff0000"/>
   </g>
   <g id="patch_21">
    <path d="M 214.066861 175.284012 
L 204.335694 175.284012 
L 202.799194 177.157597 
L 196.539379 177.157597 
L 205.479016 166.872716 
L 212.902846 166.872716 
L 221.842482 177.157597 
L 215.587841 177.157597 
L 214.066861 175.284012 
z
M 205.887714 173.375159 
L 212.499321 173.375159 
L 209.198691 169.28413 
L 205.887714 173.375159 
z
" clip-path="url(#p7cab5f3f49)" style="fill: #008000"/>
   </g>
   <g id="patch_22">
    <path d="M 221.842482 162.503684 
Q 219.290623 164.6882 216.545956 165.785445 
Q 213.80129 166.872716 210.875158 166.872716 
Q 204.263007 166.872716 200.401193 160.369043 
Q 196.539379 153.86537 196.539379 142.743291 
Q 196.539379 131.491538 200.469243 125.03774 
Q 204.404777 118.583942 211.249431 118.583942 
Q 213.886352 118.583942 216.302112 119.461739 
Q 218.723543 120.32956 220.867105 122.045253 
L 220.867105 131.671088 
Q 218.655493 129.466622 216.466565 128.379351 
Q 214.277637 127.282106 212.077367 127.282106 
Q 208.005734 127.282106 205.799793 131.292039 
Q 203.593853 135.291998 203.593853 142.743291 
Q 203.593853 150.124761 205.720402 154.154644 
Q 207.846952 158.174552 211.759802 158.174552 
Q 212.825913 158.174552 213.738911 157.945128 
Q 214.65191 157.705729 215.377772 157.206981 
L 215.377772 148.169669 
L 211.209735 148.169669 
L 211.209735 140.119877 
L 221.842482 140.119877 
L 221.842482 162.503684 
z
" clip-path="url(#p7cab5f3f49)" style="fill: #ffa600"/>
   </g>
   <g id="patch_23">
    <path d="M 240.701706 191.514133 
L 230.970539 191.514133 
L 229.434039 192.24 
L 223.174224 192.24 
L 232.113861 188.255417 
L 239.537691 188.255417 
L 248.477327 192.24 
L 242.222686 192.24 
L 240.701706 191.514133 
z
M 232.522559 190.774603 
L 239.134165 190.774603 
L 235.833536 189.189651 
L 232.522559 190.774603 
z
" clip-path="url(#p7cab5f3f49)" style="fill: #008000"/>
   </g>
   <g id="patch_24">
    <path d="M 248.477327 187.916945 
Q 246.360766 188.084718 244.072075 188.16958 
Q 241.783384 188.255417 239.290688 188.255417 
Q 231.857224 188.255417 227.515724 187.619441 
Q 223.174224 186.983464 223.174224 185.895866 
Q 223.174224 184.804367 227.515724 184.169366 
Q 231.857224 183.533389 239.290688 183.533389 
Q 241.783384 183.533389 244.072075 183.619226 
Q 246.360766 183.704088 248.477327 183.871861 
L 248.477327 184.813145 
Q 246.341641 184.590749 244.269706 184.487354 
Q 242.197771 184.383959 239.909081 184.383959 
Q 235.803463 184.383959 233.45102 184.786809 
Q 231.104952 185.188684 231.104952 185.895866 
Q 231.104952 186.600122 233.45102 187.002973 
Q 235.803463 187.404847 239.909081 187.404847 
Q 242.197771 187.404847 244.269706 187.301452 
Q 246.341641 187.197082 248.477327 186.974685 
L 248.477327 187.916945 
z
" clip-path="url(#p7cab5f3f49)" style="fill: #0000ff"/>
   </g>
   <g id="patch_25">
    <path d="M 223.174224 178.050127 
L 248.477327 178.050127 
L 248.477327 179.119516 
L 239.374094 179.119516 
L 239.374094 183.533389 
L 232.29511 183.533389 
L 232.29511 179.119516 
L 223.174224 179.119516 
L 223.174224 178.050127 
z
" clip-path="url(#p7cab5f3f49)" style="fill: #ff0000"/>
   </g>
   <g id="patch_26">
    <path d="M 248.477327 176.806086 
Q 245.925468 177.428106 243.180801 177.740537 
Q 240.436135 178.050127 237.510003 178.050127 
Q 230.897852 178.050127 227.036038 176.198266 
Q 223.174224 174.346405 223.174224 171.179495 
Q 223.174224 167.975662 227.104088 166.138002 
Q 231.039622 164.300343 237.884275 164.300343 
Q 240.521197 164.300343 242.936957 164.550287 
Q 245.358388 164.797391 247.50195 165.285919 
L 247.50195 168.026787 
Q 245.290338 167.399086 243.10141 167.089495 
Q 240.912482 166.777065 238.712212 166.777065 
Q 234.640579 166.777065 232.434638 167.918857 
Q 230.228698 169.057808 230.228698 171.179495 
Q 230.228698 173.281301 232.355247 174.428773 
Q 234.481796 175.573405 238.394647 175.573405 
Q 239.460757 175.573405 240.373756 175.508079 
Q 241.286755 175.439912 242.012617 175.297898 
L 242.012617 172.724607 
L 237.84458 172.724607 
L 237.84458 170.432502 
L 248.477327 170.432502 
L 248.477327 176.806086 
z
" clip-path="url(#p7cab5f3f49)" style="fill: #ffa600"/>
   </g>
   <g id="patch_27">
    <path d="M 275.112172 192.012213 
Q 272.560313 192.126106 269.815646 192.183313 
Q 267.07098 192.24 264.144848 192.24 
Q 257.532697 192.24 253.670883 191.900919 
Q 249.809069 191.561839 249.809069 190.98197 
Q 249.809069 190.39534 253.738933 190.058859 
Q 257.674467 189.722379 264.51912 189.722379 
Q 267.156042 189.722379 269.571802 189.768145 
Q 271.993233 189.81339 274.136795 189.902841 
L 274.136795 190.404701 
Q 271.925183 190.289767 269.736255 190.23308 
Q 267.547327 190.175873 265.347057 190.175873 
Q 261.275424 190.175873 259.069483 190.384938 
Q 256.863542 190.593483 256.863542 190.98197 
Q 256.863542 191.366816 258.990092 191.576921 
Q 261.116641 191.786506 265.029492 191.786506 
Q 266.095602 191.786506 267.008601 191.774544 
Q 267.921599 191.762063 268.647462 191.73606 
L 268.647462 191.264883 
L 264.479425 191.264883 
L 264.479425 190.845193 
L 275.112172 190.845193 
L 275.112172 192.012213 
z
" clip-path="url(#p7cab5f3f49)" style="fill: #ffa600"/>
   </g>
   <g id="patch_28">
    <path d="M 275.112172 189.446593 
Q 272.995611 189.583294 270.70692 189.652439 
Q 268.418229 189.722379 265.925533 189.722379 
Q 258.492069 189.722379 254.150569 189.204187 
Q 249.809069 188.685996 249.809069 187.799825 
Q 249.809069 186.910474 254.150569 186.393077 
Q 258.492069 185.874886 265.925533 185.874886 
Q 268.418229 185.874886 270.70692 185.944826 
Q 272.995611 186.013971 275.112172 186.150672 
L 275.112172 186.917627 
Q 272.976485 186.736419 270.904551 186.652173 
Q 268.832616 186.567927 266.543925 186.567927 
Q 262.438307 186.567927 260.085865 186.896168 
Q 257.739797 187.223615 257.739797 187.799825 
Q 257.739797 188.37365 260.085865 188.701891 
Q 262.438307 189.029338 266.543925 189.029338 
Q 268.832616 189.029338 270.904551 188.945092 
Q 272.976485 188.860051 275.112172 188.678843 
L 275.112172 189.446593 
z
" clip-path="url(#p7cab5f3f49)" style="fill: #0000ff"/>
   </g>
   <g id="patch_29">
    <path d="M 249.809069 177.377915 
L 275.112172 177.377915 
L 275.112172 179.035061 
L 266.008939 179.035061 
L 266.008939 185.874886 
L 258.929955 185.874886 
L 258.929955 179.035061 
L 249.809069 179.035061 
L 249.809069 177.377915 
z
" clip-path="url(#p7cab5f3f49)" style="fill: #ff0000"/>
   </g>
   <g id="patch_30">
    <path d="M 267.336551 175.741264 
L 257.605384 175.741264 
L 256.068884 177.377915 
L 249.809069 177.377915 
L 258.748706 168.393663 
L 266.172535 168.393663 
L 275.112172 177.377915 
L 268.85753 177.377915 
L 267.336551 175.741264 
z
M 259.157404 174.073805 
L 265.76901 174.073805 
L 262.468381 170.500129 
L 259.157404 174.073805 
z
" clip-path="url(#p7cab5f3f49)" style="fill: #008000"/>
   </g>
   <g id="patch_31">
    <path d="M 301.747017 191.836515 
Q 299.630456 192.036513 297.341765 192.137675 
Q 295.053074 192.24 292.560378 192.24 
Q 285.126914 192.24 280.785414 191.481866 
Q 276.443914 190.723732 276.443914 189.427229 
Q 276.443914 188.126076 280.785414 187.369105 
Q 285.126914 186.61097 292.560378 186.61097 
Q 295.053074 186.61097 297.341765 186.713295 
Q 299.630456 186.814457 301.747017 187.014456 
L 301.747017 188.136541 
Q 299.61133 187.871427 297.539396 187.748172 
Q 295.467461 187.624917 293.17877 187.624917 
Q 289.073152 187.624917 286.72071 188.105146 
Q 284.374642 188.584212 284.374642 189.427229 
Q 284.374642 190.266758 286.72071 190.746987 
Q 289.073152 191.226054 293.17877 191.226054 
Q 295.467461 191.226054 297.539396 191.102799 
Q 299.61133 190.978381 301.747017 190.713267 
L 301.747017 191.836515 
z
" clip-path="url(#p7cab5f3f49)" style="fill: #0000ff"/>
   </g>
   <g id="patch_32">
    <path d="M 276.443914 179.42095 
L 301.747017 179.42095 
L 301.747017 180.823204 
L 292.643784 180.823204 
L 292.643784 186.61097 
L 285.5648 186.61097 
L 285.5648 180.823204 
L 276.443914 180.823204 
L 276.443914 179.42095 
z
" clip-path="url(#p7cab5f3f49)" style="fill: #ff0000"/>
   </g>
   <g id="patch_33">
    <path d="M 293.971396 177.667371 
L 284.240229 177.667371 
L 282.703729 179.42095 
L 276.443914 179.42095 
L 285.38355 169.794836 
L 292.80738 169.794836 
L 301.747017 179.42095 
L 295.492375 179.42095 
L 293.971396 177.667371 
z
M 285.792249 175.880784 
L 292.403855 175.880784 
L 289.103225 172.051795 
L 285.792249 175.880784 
z
" clip-path="url(#p7cab5f3f49)" style="fill: #008000"/>
   </g>
   <g id="patch_34">
    <path d="M 301.747017 166.798961 
Q 299.195157 168.296899 296.450491 169.049287 
Q 293.705825 169.794836 290.779693 169.794836 
Q 284.167542 169.794836 280.305728 165.335224 
Q 276.443914 160.875611 276.443914 153.249127 
Q 276.443914 145.533724 280.373777 141.108311 
Q 284.309312 136.682898 291.153965 136.682898 
Q 293.790886 136.682898 296.206647 137.284809 
Q 298.628078 137.87988 300.771639 139.056342 
L 300.771639 145.656842 
Q 298.560028 144.145225 296.3711 143.399676 
Q 294.182172 142.647287 291.981902 142.647287 
Q 287.910269 142.647287 285.704328 145.396926 
Q 283.498387 148.139724 283.498387 153.249127 
Q 283.498387 158.31065 285.624937 161.073968 
Q 287.751486 163.830446 291.664337 163.830446 
Q 292.730447 163.830446 293.643446 163.673129 
Q 294.556444 163.508971 295.282306 163.166976 
L 295.282306 156.97003 
L 291.11427 156.97003 
L 291.11427 151.450234 
L 301.747017 151.450234 
L 301.747017 166.798961 
z
" clip-path="url(#p7cab5f3f49)" style="fill: #ffa600"/>
   </g>
   <g id="patch_35">
    <path d="M 303.078759 188.460169 
L 328.381862 188.460169 
L 328.381862 189.197341 
L 319.278629 189.197341 
L 319.278629 192.24 
L 312.199645 192.24 
L 312.199645 189.197341 
L 303.078759 189.197341 
L 303.078759 188.460169 
z
" clip-path="url(#p7cab5f3f49)" style="fill: #ff0000"/>
   </g>
   <g id="patch_36">
    <path d="M 320.60624 187.664491 
L 310.875074 187.664491 
L 309.338574 188.460169 
L 303.078759 188.460169 
L 312.018395 184.092364 
L 319.442225 184.092364 
L 328.381862 188.460169 
L 322.12722 188.460169 
L 320.60624 187.664491 
z
M 312.427094 186.853835 
L 319.0387 186.853835 
L 315.73807 185.116449 
L 312.427094 186.853835 
z
" clip-path="url(#p7cab5f3f49)" style="fill: #008000"/>
   </g>
   <g id="patch_37">
    <path d="M 328.381862 183.635644 
Q 326.265301 183.86203 323.97661 183.976539 
Q 321.687919 184.092364 319.195222 184.092364 
Q 311.761759 184.092364 307.420259 183.234203 
Q 303.078759 182.376042 303.078759 180.908481 
Q 303.078759 179.435655 307.420259 178.57881 
Q 311.761759 177.720649 319.195222 177.720649 
Q 321.687919 177.720649 323.97661 177.836475 
Q 326.265301 177.950984 328.381862 178.17737 
L 328.381862 179.447501 
Q 326.246175 179.147408 324.174241 179.007891 
Q 322.102306 178.868374 319.813615 178.868374 
Q 315.707997 178.868374 313.355554 179.411964 
Q 311.009487 179.954237 311.009487 180.908481 
Q 311.009487 181.858776 313.355554 182.402366 
Q 315.707997 182.94464 319.813615 182.94464 
Q 322.102306 182.94464 324.174241 182.805123 
Q 326.246175 182.664289 328.381862 182.364196 
L 328.381862 183.635644 
z
" clip-path="url(#p7cab5f3f49)" style="fill: #0000ff"/>
   </g>
   <g id="patch_38">
    <path d="M 328.381862 176.484062 
Q 325.830002 177.102356 323.085336 177.412914 
Q 320.340669 177.720649 317.414537 177.720649 
Q 310.802386 177.720649 306.940573 175.879885 
Q 303.078759 174.039122 303.078759 170.89119 
Q 303.078759 167.706555 307.008622 165.879908 
Q 310.944156 164.05326 317.78881 164.05326 
Q 320.425731 164.05326 322.841492 164.301707 
Q 325.262922 164.54733 327.406484 165.032931 
L 327.406484 167.757374 
Q 325.194873 167.133434 323.005945 166.825699 
Q 320.817016 166.515141 318.616747 166.515141 
Q 314.545113 166.515141 312.339173 167.65009 
Q 310.133232 168.782216 310.133232 170.89119 
Q 310.133232 172.9804 312.259782 174.120996 
Q 314.386331 175.258769 318.299182 175.258769 
Q 319.365292 175.258769 320.278291 175.193834 
Q 321.191289 175.126076 321.917151 174.984913 
L 321.917151 172.427042 
L 317.749115 172.427042 
L 317.749115 170.148673 
L 328.381862 170.148673 
L 328.381862 176.484062 
z
" clip-path="url(#p7cab5f3f49)" style="fill: #ffa600"/>
   </g>
   <g id="patch_39">
    <path d="M 355.016706 191.727395 
Q 352.464847 191.983698 349.720181 192.112434 
Q 346.975514 192.24 344.049382 192.24 
Q 337.437231 192.24 333.575418 191.476944 
Q 329.713604 190.713889 329.713604 189.40897 
Q 329.713604 188.088836 333.643467 187.331632 
Q 337.579001 186.574428 344.423655 186.574428 
Q 347.060576 186.574428 349.476336 186.677417 
Q 351.897767 186.779236 354.041329 186.980533 
L 354.041329 188.109902 
Q 351.829718 187.851259 349.64079 187.723693 
Q 347.451861 187.594957 345.251592 187.594957 
Q 341.179958 187.594957 338.974018 188.06543 
Q 336.768077 188.534732 336.768077 189.40897 
Q 336.768077 190.275014 338.894626 190.747828 
Q 341.021176 191.219471 344.934027 191.219471 
Q 346.000137 191.219471 346.913135 191.192554 
Q 347.826134 191.164466 348.551996 191.105949 
L 348.551996 190.04563 
L 344.383959 190.04563 
L 344.383959 189.101173 
L 355.016706 189.101173 
L 355.016706 191.727395 
z
" clip-path="url(#p7cab5f3f49)" style="fill: #ffa600"/>
   </g>
   <g id="patch_40">
    <path d="M 355.016706 186.129876 
Q 352.900146 186.35023 350.611455 186.461689 
Q 348.322764 186.574428 345.830067 186.574428 
Q 338.396604 186.574428 334.055104 185.739131 
Q 329.713604 184.903833 329.713604 183.475371 
Q 329.713604 182.041785 334.055104 181.207769 
Q 338.396604 180.372471 345.830067 180.372471 
Q 348.322764 180.372471 350.611455 180.485211 
Q 352.900146 180.596669 355.016706 180.817024 
L 355.016706 182.053315 
Q 352.88102 181.761217 350.809085 181.625418 
Q 348.737151 181.489618 346.44846 181.489618 
Q 342.342842 181.489618 339.990399 182.018725 
Q 337.644332 182.546551 337.644332 183.475371 
Q 337.644332 184.400348 339.990399 184.929455 
Q 342.342842 185.457282 346.44846 185.457282 
Q 348.737151 185.457282 350.809085 185.321482 
Q 352.88102 185.184401 355.016706 184.892303 
L 355.016706 186.129876 
z
" clip-path="url(#p7cab5f3f49)" style="fill: #0000ff"/>
   </g>
   <g id="patch_41">
    <path d="M 329.713604 164.549099 
L 355.016706 164.549099 
L 355.016706 167.635097 
L 345.913474 167.635097 
L 345.913474 180.372471 
L 338.83449 180.372471 
L 338.83449 167.635097 
L 329.713604 167.635097 
L 329.713604 164.549099 
z
" clip-path="url(#p7cab5f3f49)" style="fill: #ff0000"/>
   </g>
   <g id="patch_42">
    <path d="M 347.241085 155.248067 
L 337.509919 155.248067 
L 335.973419 164.549099 
L 329.713604 164.549099 
L 338.65324 113.491905 
L 346.07707 113.491905 
L 355.016706 164.549099 
L 348.762065 164.549099 
L 347.241085 155.248067 
z
M 339.061939 145.771957 
L 345.673545 145.771957 
L 342.372915 125.46288 
L 339.061939 145.771957 
z
" clip-path="url(#p7cab5f3f49)" style="fill: #008000"/>
   </g>
   <g id="patch_43">
    <path d="M 381.651551 191.854282 
Q 379.53499 192.045474 377.2463 192.142181 
Q 374.957609 192.24 372.464912 192.24 
Q 365.031448 192.24 360.689949 191.515251 
Q 356.348449 190.790502 356.348449 189.551093 
Q 356.348449 188.307237 360.689949 187.583599 
Q 365.031448 186.858851 372.464912 186.858851 
Q 374.957609 186.858851 377.2463 186.956669 
Q 379.53499 187.053377 381.651551 187.244568 
L 381.651551 188.317241 
Q 379.515865 188.063801 377.44393 187.945974 
Q 375.371996 187.828147 373.083305 187.828147 
Q 368.977687 187.828147 366.625244 188.287228 
Q 364.279177 188.745199 364.279177 189.551093 
Q 364.279177 190.353652 366.625244 190.812734 
Q 368.977687 191.270704 373.083305 191.270704 
Q 375.371996 191.270704 377.44393 191.152877 
Q 379.515865 191.033938 381.651551 190.780498 
L 381.651551 191.854282 
z
" clip-path="url(#p7cab5f3f49)" style="fill: #0000ff"/>
   </g>
   <g id="patch_44">
    <path d="M 356.348449 178.008276 
L 381.651551 178.008276 
L 381.651551 179.734385 
L 372.548319 179.734385 
L 372.548319 186.858851 
L 365.469335 186.858851 
L 365.469335 179.734385 
L 356.348449 179.734385 
L 356.348449 178.008276 
z
" clip-path="url(#p7cab5f3f49)" style="fill: #ff0000"/>
   </g>
   <g id="patch_45">
    <path d="M 373.87593 176.357281 
L 364.144763 176.357281 
L 362.608263 178.008276 
L 356.348449 178.008276 
L 365.288085 168.945287 
L 372.711915 168.945287 
L 381.651551 178.008276 
L 375.39691 178.008276 
L 373.87593 176.357281 
z
M 365.696784 174.675209 
L 372.30839 174.675209 
L 369.00776 171.070214 
L 365.696784 174.675209 
z
" clip-path="url(#p7cab5f3f49)" style="fill: #008000"/>
   </g>
   <g id="patch_46">
    <path d="M 381.651551 156.004764 
Q 379.099692 162.475025 376.355026 165.724929 
Q 373.610359 168.945287 370.684227 168.945287 
Q 364.072076 168.945287 360.210262 149.682224 
Q 356.348449 130.419162 356.348449 97.476961 
Q 356.348449 64.15068 360.278312 45.03534 
Q 364.213846 25.92 371.0585 25.92 
Q 373.695421 25.92 376.111181 28.519923 
Q 378.532612 31.090301 380.676174 36.171968 
L 380.676174 64.682482 
Q 378.464563 58.153131 376.275634 54.932773 
Q 374.086706 51.682869 371.886436 51.682869 
Q 367.814803 51.682869 365.608863 63.559788 
Q 363.402922 75.407163 363.402922 97.476961 
Q 363.402922 119.339946 365.529471 131.275954 
Q 367.656021 143.182418 371.568872 143.182418 
Q 372.634982 143.182418 373.54798 142.502893 
Q 374.460979 141.793823 375.186841 140.316594 
L 375.186841 113.549209 
L 371.018804 113.549209 
L 371.018804 89.706737 
L 381.651551 89.706737 
L 381.651551 156.004764 
z
" clip-path="url(#p7cab5f3f49)" style="fill: #ffa600"/>
   </g>
   <g id="patch_47">
    <path d="M 400.510775 191.817071 
L 390.779608 191.817071 
L 389.243108 192.24 
L 382.983294 192.24 
L 391.92293 189.91837 
L 399.34676 189.91837 
L 408.286396 192.24 
L 402.031755 192.24 
L 400.510775 191.817071 
z
M 392.331629 191.386182 
L 398.943235 191.386182 
L 395.642605 190.462704 
L 392.331629 191.386182 
z
" clip-path="url(#p7cab5f3f49)" style="fill: #008000"/>
   </g>
   <g id="patch_48">
    <path d="M 382.983294 186.897922 
L 408.286396 186.897922 
L 408.286396 187.486994 
L 399.183164 187.486994 
L 399.183164 189.91837 
L 392.104179 189.91837 
L 392.104179 187.486994 
L 382.983294 187.486994 
L 382.983294 186.897922 
z
" clip-path="url(#p7cab5f3f49)" style="fill: #ff0000"/>
   </g>
   <g id="patch_49">
    <path d="M 408.286396 186.445991 
Q 406.169835 186.670003 403.881145 186.783311 
Q 401.592454 186.897922 399.099757 186.897922 
Q 391.666293 186.897922 387.324793 186.04876 
Q 382.983294 185.199599 382.983294 183.747428 
Q 382.983294 182.290048 387.324793 181.442189 
Q 391.666293 180.593028 399.099757 180.593028 
Q 401.592454 180.593028 403.881145 180.707638 
Q 406.169835 180.820947 408.286396 181.044959 
L 408.286396 182.30177 
Q 406.15071 182.004824 404.078775 181.86677 
Q 402.006841 181.728716 399.71815 181.728716 
Q 395.612532 181.728716 393.260089 182.266605 
Q 390.914022 182.803192 390.914022 183.747428 
Q 390.914022 184.687758 393.260089 185.225647 
Q 395.612532 185.762234 399.71815 185.762234 
Q 402.006841 185.762234 404.078775 185.62418 
Q 406.15071 185.484823 408.286396 185.187877 
L 408.286396 186.445991 
z
" clip-path="url(#p7cab5f3f49)" style="fill: #0000ff"/>
   </g>
   <g id="patch_50">
    <path d="M 408.286396 179.996585 
Q 405.734537 180.294806 402.98987 180.444598 
Q 400.245204 180.593028 397.319072 180.593028 
Q 390.706921 180.593028 386.845107 179.705173 
Q 382.983294 178.817318 382.983294 177.298977 
Q 382.983294 175.762934 386.913157 174.881887 
Q 390.848691 174.000841 397.693345 174.000841 
Q 400.330266 174.000841 402.746026 174.120674 
Q 405.167457 174.239146 407.311019 174.473365 
L 407.311019 175.787445 
Q 405.099407 175.4865 402.910479 175.338071 
Q 400.721551 175.188279 398.521281 175.188279 
Q 394.449648 175.188279 392.243707 175.735699 
Q 390.037767 176.281757 390.037767 177.298977 
Q 390.037767 178.306665 392.164316 178.856808 
Q 394.290866 179.40559 398.203717 179.40559 
Q 399.269827 179.40559 400.182825 179.37427 
Q 401.095824 179.341588 401.821686 179.273501 
L 401.821686 178.039764 
L 397.653649 178.039764 
L 397.653649 176.940839 
L 408.286396 176.940839 
L 408.286396 179.996585 
z
" clip-path="url(#p7cab5f3f49)" style="fill: #ffa600"/>
   </g>
   <g id="patch_51">
    <path d="M 434.921241 191.809856 
Q 432.369382 192.024928 429.624715 192.132955 
Q 426.880049 192.24 423.953917 192.24 
Q 417.341766 192.24 413.479952 191.599695 
Q 409.618138 190.95939 409.618138 189.864389 
Q 409.618138 188.756622 413.548002 188.121227 
Q 417.483536 187.485832 424.32819 187.485832 
Q 426.965111 187.485832 429.380871 187.572254 
Q 431.802302 187.657693 433.945864 187.826608 
L 433.945864 188.774299 
Q 431.734252 188.557263 429.545324 188.450218 
Q 427.356396 188.342191 425.156126 188.342191 
Q 421.084493 188.342191 418.878552 188.736981 
Q 416.672612 189.130788 416.672612 189.864389 
Q 416.672612 190.591116 418.799161 190.987869 
Q 420.925711 191.383641 424.838561 191.383641 
Q 425.904672 191.383641 426.81767 191.361053 
Q 427.730669 191.337484 428.456531 191.288381 
L 428.456531 190.398632 
L 424.288494 190.398632 
L 424.288494 189.606107 
L 434.921241 189.606107 
L 434.921241 191.809856 
z
" clip-path="url(#p7cab5f3f49)" style="fill: #ffa600"/>
   </g>
   <g id="patch_52">
    <path d="M 434.921241 186.649967 
Q 432.80468 187.064286 430.515989 187.273855 
Q 428.227299 187.485832 425.734602 187.485832 
Q 418.301138 187.485832 413.959638 185.915272 
Q 409.618138 184.344712 409.618138 181.658862 
Q 409.618138 178.963377 413.959638 177.395226 
Q 418.301138 175.824666 425.734602 175.824666 
Q 428.227299 175.824666 430.515989 176.036643 
Q 432.80468 176.246212 434.921241 176.660531 
L 434.921241 178.985056 
Q 432.785555 178.435842 430.71362 178.180506 
Q 428.641685 177.925169 426.352995 177.925169 
Q 422.247377 177.925169 419.894934 178.920018 
Q 417.548866 179.912458 417.548866 181.658862 
Q 417.548866 183.398041 419.894934 184.392889 
Q 422.247377 185.385329 426.352995 185.385329 
Q 428.641685 185.385329 430.71362 185.129992 
Q 432.785555 184.872247 434.921241 184.323033 
L 434.921241 186.649967 
z
" clip-path="url(#p7cab5f3f49)" style="fill: #0000ff"/>
   </g>
   <g id="patch_53">
    <path d="M 427.14562 173.643172 
L 417.414453 173.643172 
L 415.877953 175.824666 
L 409.618138 175.824666 
L 418.557775 163.849545 
L 425.981605 163.849545 
L 434.921241 175.824666 
L 428.6666 175.824666 
L 427.14562 173.643172 
z
M 418.966473 171.420614 
L 425.578079 171.420614 
L 422.27745 166.657257 
L 418.966473 171.420614 
z
" clip-path="url(#p7cab5f3f49)" style="fill: #008000"/>
   </g>
   <g id="patch_54">
    <path d="M 409.618138 86.885848 
L 434.921241 86.885848 
L 434.921241 101.895913 
L 425.818009 101.895913 
L 425.818009 163.849545 
L 418.739024 163.849545 
L 418.739024 101.895913 
L 409.618138 101.895913 
L 409.618138 86.885848 
z
" clip-path="url(#p7cab5f3f49)" style="fill: #ff0000"/>
   </g>
   <g id="patch_55">
    <path d="M 461.556086 191.859203 
Q 459.439525 192.047955 457.150834 192.143429 
Q 454.862143 192.24 452.369447 192.24 
Q 444.935983 192.24 440.594483 191.524497 
Q 436.252983 190.808994 436.252983 189.585395 
Q 436.252983 188.357407 440.594483 187.643001 
Q 444.935983 186.927498 452.369447 186.927498 
Q 454.862143 186.927498 457.150834 187.024069 
Q 459.439525 187.119543 461.556086 187.308295 
L 461.556086 188.367284 
Q 459.4204 188.117077 457.348465 188.000753 
Q 455.27653 187.884429 452.98784 187.884429 
Q 448.882221 187.884429 446.529779 188.337654 
Q 444.183711 188.789782 444.183711 189.585395 
Q 444.183711 190.377716 446.529779 190.830941 
Q 448.882221 191.283069 452.98784 191.283069 
Q 455.27653 191.283069 457.348465 191.166745 
Q 459.4204 191.049324 461.556086 190.799117 
L 461.556086 191.859203 
z
" clip-path="url(#p7cab5f3f49)" style="fill: #0000ff"/>
   </g>
   <g id="patch_56">
    <path d="M 453.780465 185.681325 
L 444.049298 185.681325 
L 442.512798 186.927498 
L 436.252983 186.927498 
L 445.19262 180.086742 
L 452.61645 180.086742 
L 461.556086 186.927498 
L 455.301445 186.927498 
L 453.780465 185.681325 
z
M 445.601318 184.411695 
L 452.212924 184.411695 
L 448.912295 181.69064 
L 445.601318 184.411695 
z
" clip-path="url(#p7cab5f3f49)" style="fill: #008000"/>
   </g>
   <g id="patch_57">
    <path d="M 436.252983 173.227793 
L 461.556086 173.227793 
L 461.556086 174.565479 
L 452.452853 174.565479 
L 452.452853 180.086742 
L 445.373869 180.086742 
L 445.373869 174.565479 
L 436.252983 174.565479 
L 436.252983 173.227793 
z
" clip-path="url(#p7cab5f3f49)" style="fill: #ff0000"/>
   </g>
   <g id="patch_58">
    <path d="M 461.556086 171.081283 
Q 459.004227 172.154538 456.25956 172.693616 
Q 453.514894 173.227793 450.588762 173.227793 
Q 443.976611 173.227793 440.114797 170.032532 
Q 436.252983 166.837271 436.252983 161.372983 
Q 436.252983 155.844985 440.182847 152.674227 
Q 444.118381 149.50347 450.963034 149.50347 
Q 453.599956 149.50347 456.015716 149.934732 
Q 458.437147 150.361094 460.580709 151.204015 
L 460.580709 155.933198 
Q 458.369097 154.850141 456.180169 154.315964 
Q 453.991241 153.776886 451.790971 153.776886 
Q 447.719338 153.776886 445.513397 155.746971 
Q 443.307457 157.712154 443.307457 161.372983 
Q 443.307457 164.999506 445.434006 166.979391 
Q 447.560555 168.954376 451.473406 168.954376 
Q 452.539516 168.954376 453.452515 168.84166 
Q 454.365514 168.724043 455.091376 168.479008 
L 455.091376 164.038967 
L 450.923339 164.038967 
L 450.923339 160.084097 
L 461.556086 160.084097 
L 461.556086 171.081283 
z
" clip-path="url(#p7cab5f3f49)" style="fill: #ffa600"/>
   </g>
   <g id="patch_59">
    <path d="M 488.190931 192.19475 
Q 486.07437 192.217179 483.785679 192.228524 
Q 481.496988 192.24 479.004292 192.24 
Q 471.570828 192.24 467.229328 192.154976 
Q 462.887828 192.069952 462.887828 191.924551 
Q 462.887828 191.778629 467.229328 191.693735 
Q 471.570828 191.608712 479.004292 191.608712 
Q 481.496988 191.608712 483.785679 191.620187 
Q 486.07437 191.631532 488.190931 191.653962 
L 488.190931 191.779802 
Q 486.055244 191.75007 483.98331 191.736247 
Q 481.911375 191.722424 479.622684 191.722424 
Q 475.517066 191.722424 473.164624 191.776281 
Q 470.818556 191.830008 470.818556 191.924551 
Q 470.818556 192.018703 473.164624 192.072561 
Q 475.517066 192.126287 479.622684 192.126287 
Q 481.911375 192.126287 483.98331 192.112464 
Q 486.055244 192.098511 488.190931 192.068779 
L 488.190931 192.19475 
z
" clip-path="url(#p7cab5f3f49)" style="fill: #0000ff"/>
   </g>
   <g id="patch_60">
    <path d="M 462.887828 190.873759 
L 488.190931 190.873759 
L 488.190931 191.017095 
L 479.087698 191.017095 
L 479.087698 191.608712 
L 472.008714 191.608712 
L 472.008714 191.017095 
L 462.887828 191.017095 
L 462.887828 190.873759 
z
" clip-path="url(#p7cab5f3f49)" style="fill: #ff0000"/>
   </g>
   <g id="patch_61">
    <path d="M 480.41531 190.738179 
L 470.684143 190.738179 
L 469.147643 190.873759 
L 462.887828 190.873759 
L 471.827465 190.129503 
L 479.251294 190.129503 
L 488.190931 190.873759 
L 481.936289 190.873759 
L 480.41531 190.738179 
z
M 472.236163 190.600046 
L 478.847769 190.600046 
L 475.54714 190.304003 
L 472.236163 190.600046 
z
" clip-path="url(#p7cab5f3f49)" style="fill: #008000"/>
   </g>
   <g id="patch_62">
    <path d="M 488.190931 190.037995 
Q 485.639071 190.083749 482.894405 190.106731 
Q 480.149739 190.129503 477.223607 190.129503 
Q 470.611456 190.129503 466.749642 189.993286 
Q 462.887828 189.857069 462.887828 189.624121 
Q 462.887828 189.388457 466.817691 189.253285 
Q 470.753226 189.118112 477.597879 189.118112 
Q 480.234801 189.118112 482.650561 189.136498 
Q 485.071992 189.154674 487.215553 189.190608 
L 487.215553 189.392218 
Q 485.003942 189.346046 482.815014 189.323274 
Q 480.626086 189.300292 478.425816 189.300292 
Q 474.354183 189.300292 472.148242 189.384279 
Q 469.942301 189.468056 469.942301 189.624121 
Q 469.942301 189.778723 472.068851 189.863128 
Q 474.1954 189.947323 478.108251 189.947323 
Q 479.174361 189.947323 480.08736 189.942518 
Q 481.000358 189.937504 481.726221 189.927058 
L 481.726221 189.737775 
L 477.558184 189.737775 
L 477.558184 189.569175 
L 488.190931 189.569175 
L 488.190931 190.037995 
z
" clip-path="url(#p7cab5f3f49)" style="fill: #ffa600"/>
   </g>
   <g id="patch_63">
    <path d="M 514.825776 191.860768 
Q 512.273916 192.050384 509.52925 192.145625 
Q 506.784583 192.24 503.858451 192.24 
Q 497.246301 192.24 493.384487 191.675482 
Q 489.522673 191.110963 489.522673 190.145568 
Q 489.522673 189.168917 493.452536 188.608727 
Q 497.38807 188.048538 504.232724 188.048538 
Q 506.869645 188.048538 509.285406 188.124731 
Q 511.706837 188.200058 513.850398 188.34898 
L 513.850398 189.184501 
Q 511.638787 188.993154 509.449859 188.898779 
Q 507.260931 188.803538 505.060661 188.803538 
Q 500.989027 188.803538 498.783087 189.1516 
Q 496.577146 189.498796 496.577146 190.145568 
Q 496.577146 190.786279 498.703696 191.136072 
Q 500.830245 191.485 504.743096 191.485 
Q 505.809206 191.485 506.722205 191.465086 
Q 507.635203 191.444306 508.361065 191.401015 
L 508.361065 190.616577 
L 504.193029 190.616577 
L 504.193029 189.917856 
L 514.825776 189.917856 
L 514.825776 191.860768 
z
" clip-path="url(#p7cab5f3f49)" style="fill: #ffa600"/>
   </g>
   <g id="patch_64">
    <path d="M 514.825776 187.743596 
Q 512.709215 187.894749 510.420524 187.971204 
Q 508.131833 188.048538 505.639136 188.048538 
Q 498.205673 188.048538 493.864173 187.475563 
Q 489.522673 186.902587 489.522673 185.922729 
Q 489.522673 184.939355 493.864173 184.367259 
Q 498.205673 183.794283 505.639136 183.794283 
Q 508.131833 183.794283 510.420524 183.871617 
Q 512.709215 183.948073 514.825776 184.099226 
L 514.825776 184.947265 
Q 512.690089 184.746899 510.618155 184.653746 
Q 508.54622 184.560594 506.257529 184.560594 
Q 502.151911 184.560594 499.799469 184.923537 
Q 497.453401 185.285601 497.453401 185.922729 
Q 497.453401 186.55722 499.799469 186.920163 
Q 502.151911 187.282228 506.257529 187.282228 
Q 508.54622 187.282228 510.618155 187.189075 
Q 512.690089 187.095044 514.825776 186.894678 
L 514.825776 187.743596 
z
" clip-path="url(#p7cab5f3f49)" style="fill: #0000ff"/>
   </g>
   <g id="patch_65">
    <path d="M 507.050154 181.912566 
L 497.318988 181.912566 
L 495.782488 183.794283 
L 489.522673 183.794283 
L 498.462309 173.464763 
L 505.886139 173.464763 
L 514.825776 183.794283 
L 508.571134 183.794283 
L 507.050154 181.912566 
z
M 498.871008 179.995428 
L 505.482614 179.995428 
L 502.181984 175.886644 
L 498.871008 179.995428 
z
" clip-path="url(#p7cab5f3f49)" style="fill: #008000"/>
   </g>
   <g id="patch_66">
    <path d="M 489.522673 155.364556 
L 514.825776 155.364556 
L 514.825776 158.894601 
L 505.722543 158.894601 
L 505.722543 173.464763 
L 498.643559 173.464763 
L 498.643559 158.894601 
L 489.522673 158.894601 
L 489.522673 155.364556 
z
" clip-path="url(#p7cab5f3f49)" style="fill: #ff0000"/>
   </g>
   <g id="patch_67">
    <path d="M 541.460621 191.694669 
Q 539.34406 191.964977 537.055369 192.101703 
Q 534.766678 192.24 532.273981 192.24 
Q 524.840518 192.24 520.499018 191.215343 
Q 516.157518 190.190687 516.157518 188.438398 
Q 516.157518 186.679823 520.499018 185.656738 
Q 524.840518 184.632081 532.273981 184.632081 
Q 534.766678 184.632081 537.055369 184.770378 
Q 539.34406 184.907104 541.460621 185.177412 
L 541.460621 186.693967 
Q 539.324934 186.335652 537.253 186.169066 
Q 535.181065 186.002481 532.892374 186.002481 
Q 528.786756 186.002481 526.434313 186.651535 
Q 524.088246 187.299017 524.088246 188.438398 
Q 524.088246 189.573064 526.434313 190.222118 
Q 528.786756 190.8696 532.892374 190.8696 
Q 535.181065 190.8696 537.253 190.703015 
Q 539.324934 190.534858 541.460621 190.176543 
L 541.460621 191.694669 
z
" clip-path="url(#p7cab5f3f49)" style="fill: #0000ff"/>
   </g>
   <g id="patch_68">
    <path d="M 533.684999 182.912699 
L 523.953833 182.912699 
L 522.417333 184.632081 
L 516.157518 184.632081 
L 525.097154 175.193686 
L 532.520984 175.193686 
L 541.460621 184.632081 
L 535.205979 184.632081 
L 533.684999 182.912699 
z
M 525.505853 181.160952 
L 532.117459 181.160952 
L 528.816829 177.406631 
L 525.505853 181.160952 
z
" clip-path="url(#p7cab5f3f49)" style="fill: #008000"/>
   </g>
   <g id="patch_69">
    <path d="M 516.157518 165.583683 
L 541.460621 165.583683 
L 541.460621 167.457901 
L 532.357388 167.457901 
L 532.357388 175.193686 
L 525.278404 175.193686 
L 525.278404 167.457901 
L 516.157518 167.457901 
L 516.157518 165.583683 
z
" clip-path="url(#p7cab5f3f49)" style="fill: #ff0000"/>
   </g>
   <g id="patch_70">
    <path d="M 541.460621 155.838195 
Q 538.908761 160.710939 536.164095 163.158436 
Q 533.419428 165.583683 530.493296 165.583683 
Q 523.881145 165.583683 520.019332 151.076701 
Q 516.157518 136.56972 516.157518 111.761001 
Q 516.157518 86.663033 520.087381 72.267301 
Q 524.022915 57.871569 530.867569 57.871569 
Q 533.50449 57.871569 535.92025 59.829567 
Q 538.341681 61.765314 540.485243 65.592309 
L 540.485243 87.063532 
Q 538.273632 82.146288 536.084704 79.721041 
Q 533.895775 77.273544 531.695506 77.273544 
Q 527.623872 77.273544 525.417932 86.218033 
Q 523.211991 95.140272 523.211991 111.761001 
Q 523.211991 128.22598 525.338541 137.214969 
Q 527.46509 146.181707 531.377941 146.181707 
Q 532.444051 146.181707 533.35705 145.669958 
Q 534.270048 145.135959 534.99591 144.02346 
L 534.99591 123.864986 
L 530.827873 123.864986 
L 530.827873 105.909258 
L 541.460621 105.909258 
L 541.460621 155.838195 
z
" clip-path="url(#p7cab5f3f49)" style="fill: #ffa600"/>
   </g>
   <g id="patch_71">
    <path d="M 542.792363 189.276659 
L 568.095465 189.276659 
L 568.095465 189.854593 
L 558.992233 189.854593 
L 558.992233 192.24 
L 551.913249 192.24 
L 551.913249 189.854593 
L 542.792363 189.854593 
L 542.792363 189.276659 
z
" clip-path="url(#p7cab5f3f49)" style="fill: #ff0000"/>
   </g>
   <g id="patch_72">
    <path d="M 560.319844 188.70714 
L 550.588678 188.70714 
L 549.052178 189.276659 
L 542.792363 189.276659 
L 551.731999 186.150335 
L 559.155829 186.150335 
L 568.095465 189.276659 
L 561.840824 189.276659 
L 560.319844 188.70714 
z
M 552.140698 188.126901 
L 558.752304 188.126901 
L 555.451674 186.883339 
L 552.140698 188.126901 
z
" clip-path="url(#p7cab5f3f49)" style="fill: #008000"/>
   </g>
   <g id="patch_73">
    <path d="M 568.095465 185.887477 
Q 565.978905 186.01777 563.690214 186.083674 
Q 561.401523 186.150335 558.908826 186.150335 
Q 551.475362 186.150335 547.133863 185.656435 
Q 542.792363 185.162534 542.792363 184.317904 
Q 542.792363 183.470244 547.133863 182.977101 
Q 551.475362 182.483201 558.908826 182.483201 
Q 561.401523 182.483201 563.690214 182.549862 
Q 565.978905 182.615766 568.095465 182.746059 
L 568.095465 183.477062 
Q 565.959779 183.304348 563.887844 183.224051 
Q 561.81591 183.143755 559.527219 183.143755 
Q 555.421601 183.143755 553.069158 183.456609 
Q 550.723091 183.768705 550.723091 184.317904 
Q 550.723091 184.864831 553.069158 185.177685 
Q 555.421601 185.489781 559.527219 185.489781 
Q 561.81591 185.489781 563.887844 185.409484 
Q 565.959779 185.32843 568.095465 185.155717 
L 568.095465 185.887477 
z
" clip-path="url(#p7cab5f3f49)" style="fill: #0000ff"/>
   </g>
   <g id="patch_74">
    <path d="M 568.095465 181.791465 
Q 565.543606 182.137333 562.79894 182.311057 
Q 560.054273 182.483201 557.128141 182.483201 
Q 550.51599 182.483201 546.654177 181.453494 
Q 542.792363 180.423786 542.792363 178.66286 
Q 542.792363 176.881404 546.722226 175.859593 
Q 550.65776 174.837782 557.502414 174.837782 
Q 560.139335 174.837782 562.555095 174.976761 
Q 564.976526 175.114161 567.120088 175.385801 
L 567.120088 176.909831 
Q 564.908477 176.560805 562.719548 176.38866 
Q 560.53062 176.214937 558.33035 176.214937 
Q 554.258717 176.214937 552.052777 176.849817 
Q 549.846836 177.483119 549.846836 178.66286 
Q 549.846836 179.831547 551.973385 180.469586 
Q 554.099935 181.106046 558.012786 181.106046 
Q 559.078896 181.106046 559.991894 181.069722 
Q 560.904893 181.031819 561.630755 180.952854 
L 561.630755 179.522003 
L 557.462718 179.522003 
L 557.462718 178.247503 
L 568.095465 178.247503 
L 568.095465 181.791465 
z
" clip-path="url(#p7cab5f3f49)" style="fill: #ffa600"/>
   </g>
   <g id="patch_75">
    <path d="M 594.73031 192.118013 
Q 592.178451 192.179007 589.433785 192.209643 
Q 586.689118 192.24 583.762986 192.24 
Q 577.150835 192.24 573.289021 192.058413 
Q 569.427208 191.876825 569.427208 191.566289 
Q 569.427208 191.252132 573.357071 191.071937 
Q 577.292605 190.891742 584.137259 190.891742 
Q 586.77418 190.891742 589.18994 190.916251 
Q 591.611371 190.940481 593.754933 190.988385 
L 593.754933 191.257145 
Q 591.543322 191.195595 589.354393 191.165237 
Q 587.165465 191.134601 584.965195 191.134601 
Q 580.893562 191.134601 578.687621 191.246562 
Q 576.481681 191.358243 576.481681 191.566289 
Q 576.481681 191.772385 578.60823 191.884902 
Q 580.73478 191.997141 584.647631 191.997141 
Q 585.713741 191.997141 586.626739 191.990735 
Q 587.539738 191.984051 588.2656 191.970126 
L 588.2656 191.717797 
L 584.097563 191.717797 
L 584.097563 191.493041 
L 594.73031 191.493041 
L 594.73031 192.118013 
z
" clip-path="url(#p7cab5f3f49)" style="fill: #ffa600"/>
   </g>
   <g id="patch_76">
    <path d="M 594.73031 190.788583 
Q 592.613749 190.839717 590.325059 190.865581 
Q 588.036368 190.891742 585.543671 190.891742 
Q 578.110207 190.891742 573.768707 190.697911 
Q 569.427208 190.504079 569.427208 190.172603 
Q 569.427208 189.839938 573.768707 189.646404 
Q 578.110207 189.452572 585.543671 189.452572 
Q 588.036368 189.452572 590.325059 189.478734 
Q 592.613749 189.504598 594.73031 189.555731 
L 594.73031 189.842614 
Q 592.594624 189.774832 590.522689 189.74332 
Q 588.450755 189.711807 586.162064 189.711807 
Q 582.056446 189.711807 579.704003 189.834587 
Q 577.357936 189.95707 577.357936 190.172603 
Q 577.357936 190.387245 579.704003 190.510025 
Q 582.056446 190.632507 586.162064 190.632507 
Q 588.450755 190.632507 590.522689 190.600995 
Q 592.594624 190.569185 594.73031 190.501403 
L 594.73031 190.788583 
z
" clip-path="url(#p7cab5f3f49)" style="fill: #0000ff"/>
   </g>
   <g id="patch_77">
    <path d="M 586.954689 189.039574 
L 577.223522 189.039574 
L 575.687022 189.452572 
L 569.427208 189.452572 
L 578.366844 187.185454 
L 585.790674 187.185454 
L 594.73031 189.452572 
L 588.475669 189.452572 
L 586.954689 189.039574 
z
M 578.775543 188.618801 
L 585.387149 188.618801 
L 582.086519 187.717007 
L 578.775543 188.618801 
z
" clip-path="url(#p7cab5f3f49)" style="fill: #008000"/>
   </g>
   <g id="patch_78">
    <path d="M 569.427208 184.61313 
L 594.73031 184.61313 
L 594.73031 185.114805 
L 585.627078 185.114805 
L 585.627078 187.185454 
L 578.548093 187.185454 
L 578.548093 185.114805 
L 569.427208 185.114805 
L 569.427208 184.61313 
z
" clip-path="url(#p7cab5f3f49)" style="fill: #ff0000"/>
   </g>
   <g id="patch_79">
    <path d="M 621.365155 192.188506 
Q 619.248594 192.21403 616.959903 192.226941 
Q 614.671213 192.24 612.178516 192.24 
Q 604.745052 192.24 600.403552 192.143244 
Q 596.062053 192.046488 596.062053 191.881024 
Q 596.062053 191.714966 600.403552 191.618358 
Q 604.745052 191.521603 612.178516 191.521603 
Q 614.671213 191.521603 616.959903 191.534662 
Q 619.248594 191.547572 621.365155 191.573097 
L 621.365155 191.716302 
Q 619.229469 191.682467 617.157534 191.666736 
Q 615.0856 191.651006 612.796909 191.651006 
Q 608.691291 191.651006 606.338848 191.712295 
Q 603.992781 191.773435 603.992781 191.881024 
Q 603.992781 191.988168 606.338848 192.049456 
Q 608.691291 192.110596 612.796909 192.110596 
Q 615.0856 192.110596 617.157534 192.094866 
Q 619.229469 192.078988 621.365155 192.045153 
L 621.365155 192.188506 
z
" clip-path="url(#p7cab5f3f49)" style="fill: #0000ff"/>
   </g>
   <g id="patch_80">
    <path d="M 596.062053 190.484514 
L 621.365155 190.484514 
L 621.365155 190.686775 
L 612.261923 190.686775 
L 612.261923 191.521603 
L 605.182938 191.521603 
L 605.182938 190.686775 
L 596.062053 190.686775 
L 596.062053 190.484514 
z
" clip-path="url(#p7cab5f3f49)" style="fill: #ff0000"/>
   </g>
   <g id="patch_81">
    <path d="M 621.365155 190.377722 
Q 618.813296 190.431118 616.068629 190.457938 
Q 613.323963 190.484514 610.397831 190.484514 
Q 603.78568 190.484514 599.923866 190.325545 
Q 596.062053 190.166576 596.062053 189.89472 
Q 596.062053 189.619694 599.991916 189.461944 
Q 603.92745 189.304194 610.772104 189.304194 
Q 613.409025 189.304194 615.824785 189.32565 
Q 618.246216 189.346862 620.389778 189.388799 
L 620.389778 189.624083 
Q 618.178166 189.570199 615.989238 189.543623 
Q 613.80031 189.516803 611.60004 189.516803 
Q 607.528407 189.516803 605.322466 189.614817 
Q 603.116526 189.712588 603.116526 189.89472 
Q 603.116526 190.075145 605.243075 190.173647 
Q 607.369625 190.271905 611.282476 190.271905 
Q 612.348586 190.271905 613.261584 190.266298 
Q 614.174583 190.260446 614.900445 190.248255 
L 614.900445 190.027357 
L 610.732408 190.027357 
L 610.732408 189.830596 
L 621.365155 189.830596 
L 621.365155 190.377722 
z
" clip-path="url(#p7cab5f3f49)" style="fill: #ffa600"/>
   </g>
   <g id="patch_82">
    <path d="M 613.589534 189.072869 
L 603.858367 189.072869 
L 602.321867 189.304194 
L 596.062053 189.304194 
L 605.001689 188.034354 
L 612.425519 188.034354 
L 621.365155 189.304194 
L 615.110514 189.304194 
L 613.589534 189.072869 
z
M 605.410387 188.837189 
L 612.021994 188.837189 
L 608.721364 188.332083 
L 605.410387 188.837189 
z
" clip-path="url(#p7cab5f3f49)" style="fill: #008000"/>
   </g>
   <g id="patch_83">
    <path d="M 640.224379 191.875934 
L 630.493212 191.875934 
L 628.956712 192.24 
L 622.696897 192.24 
L 631.636534 190.241495 
L 639.060364 190.241495 
L 648 192.24 
L 641.745359 192.24 
L 640.224379 191.875934 
z
M 632.045232 191.505016 
L 638.656838 191.505016 
L 635.356209 190.710068 
L 632.045232 191.505016 
z
" clip-path="url(#p7cab5f3f49)" style="fill: #008000"/>
   </g>
   <g id="patch_84">
    <path d="M 648 190.033855 
Q 645.448141 190.137675 642.703474 190.189822 
Q 639.958808 190.241495 637.032676 190.241495 
Q 630.420525 190.241495 626.558711 189.932405 
Q 622.696897 189.623316 622.696897 189.094735 
Q 622.696897 188.559992 626.626761 188.253273 
Q 630.562295 187.946554 637.406949 187.946554 
Q 640.04387 187.946554 642.45963 187.988272 
Q 644.881061 188.029515 647.024623 188.111054 
L 647.024623 188.568525 
Q 644.813011 188.463757 642.624083 188.412084 
Q 640.435155 188.359937 638.234885 188.359937 
Q 634.163252 188.359937 631.957311 188.550511 
Q 629.751371 188.74061 629.751371 189.094735 
Q 629.751371 189.445542 631.87792 189.637064 
Q 634.004469 189.828111 637.91732 189.828111 
Q 638.98343 189.828111 639.896429 189.817208 
Q 640.809428 189.80583 641.53529 189.782127 
L 641.53529 189.352626 
L 637.367253 189.352626 
L 637.367253 188.970057 
L 648 188.970057 
L 648 190.033855 
z
" clip-path="url(#p7cab5f3f49)" style="fill: #ffa600"/>
   </g>
   <g id="patch_85">
    <path d="M 648 187.763244 
Q 645.883439 187.854107 643.594748 187.900066 
Q 641.306058 187.946554 638.813361 187.946554 
Q 631.379897 187.946554 627.038397 187.602122 
Q 622.696897 187.257689 622.696897 186.668668 
Q 622.696897 186.077533 627.038397 185.733629 
Q 631.379897 185.389196 638.813361 185.389196 
Q 641.306058 185.389196 643.594748 185.435684 
Q 645.883439 185.481644 648 185.572506 
L 648 186.082287 
Q 645.864314 185.961842 643.792379 185.905845 
Q 641.720444 185.849848 639.431754 185.849848 
Q 635.326136 185.849848 632.973693 186.068024 
Q 630.627625 186.285671 630.627625 186.668668 
Q 630.627625 187.050079 632.973693 187.268255 
Q 635.326136 187.485902 639.431754 187.485902 
Q 641.720444 187.485902 643.792379 187.429906 
Q 645.864314 187.373381 648 187.252935 
L 648 187.763244 
z
" clip-path="url(#p7cab5f3f49)" style="fill: #0000ff"/>
   </g>
   <g id="patch_86">
    <path d="M 622.696897 180.824828 
L 648 180.824828 
L 648 181.715007 
L 638.896767 181.715007 
L 638.896767 185.389196 
L 631.817783 185.389196 
L 631.817783 181.715007 
L 622.696897 181.715007 
L 622.696897 180.824828 
z
" clip-path="url(#p7cab5f3f49)" style="fill: #ff0000"/>
   </g>
   <g id="matplotlib.axis_1">
    <g id="xtick_1">
     <g id="line2d_2">
      <defs>
       <path id="mbdc95a53c4" d="M 0 0 
L 0 3.5 
" style="stroke: #000000; stroke-width: 0.8"/>
      </defs>
      <g>
       <use xlink:href="#mbdc95a53c4" x="102.651551" y="192.24" style="stroke: #000000; stroke-width: 0.8"/>
      </g>
     </g>
     <g id="text_1">
      <!-- 0.0 -->
      <g transform="translate(94.699989 206.838437) scale(0.1 -0.1)">
       <defs>
        <path id="DejaVuSans-30" d="M 2034 4250 
Q 1547 4250 1301 3770 
Q 1056 3291 1056 2328 
Q 1056 1369 1301 889 
Q 1547 409 2034 409 
Q 2525 409 2770 889 
Q 3016 1369 3016 2328 
Q 3016 3291 2770 3770 
Q 2525 4250 2034 4250 
z
M 2034 4750 
Q 2819 4750 3233 4129 
Q 3647 3509 3647 2328 
Q 3647 1150 3233 529 
Q 2819 -91 2034 -91 
Q 1250 -91 836 529 
Q 422 1150 422 2328 
Q 422 3509 836 4129 
Q 1250 4750 2034 4750 
z
" transform="scale(0.015625)"/>
        <path id="DejaVuSans-2e" d="M 684 794 
L 1344 794 
L 1344 0 
L 684 0 
L 684 794 
z
" transform="scale(0.015625)"/>
       </defs>
       <use xlink:href="#DejaVuSans-30"/>
       <use xlink:href="#DejaVuSans-2e" x="63.623047"/>
       <use xlink:href="#DejaVuSans-30" x="95.410156"/>
      </g>
     </g>
    </g>
    <g id="xtick_2">
     <g id="line2d_3">
      <g>
       <use xlink:href="#mbdc95a53c4" x="169.238663" y="192.24" style="stroke: #000000; stroke-width: 0.8"/>
      </g>
     </g>
     <g id="text_2">
      <!-- 2.5 -->
      <g transform="translate(161.287101 206.838437) scale(0.1 -0.1)">
       <defs>
        <path id="DejaVuSans-32" d="M 1228 531 
L 3431 531 
L 3431 0 
L 469 0 
L 469 531 
Q 828 903 1448 1529 
Q 2069 2156 2228 2338 
Q 2531 2678 2651 2914 
Q 2772 3150 2772 3378 
Q 2772 3750 2511 3984 
Q 2250 4219 1831 4219 
Q 1534 4219 1204 4116 
Q 875 4013 500 3803 
L 500 4441 
Q 881 4594 1212 4672 
Q 1544 4750 1819 4750 
Q 2544 4750 2975 4387 
Q 3406 4025 3406 3419 
Q 3406 3131 3298 2873 
Q 3191 2616 2906 2266 
Q 2828 2175 2409 1742 
Q 1991 1309 1228 531 
z
" transform="scale(0.015625)"/>
        <path id="DejaVuSans-35" d="M 691 4666 
L 3169 4666 
L 3169 4134 
L 1269 4134 
L 1269 2991 
Q 1406 3038 1543 3061 
Q 1681 3084 1819 3084 
Q 2600 3084 3056 2656 
Q 3513 2228 3513 1497 
Q 3513 744 3044 326 
Q 2575 -91 1722 -91 
Q 1428 -91 1123 -41 
Q 819 9 494 109 
L 494 744 
Q 775 591 1075 516 
Q 1375 441 1709 441 
Q 2250 441 2565 725 
Q 2881 1009 2881 1497 
Q 2881 1984 2565 2268 
Q 2250 2553 1709 2553 
Q 1456 2553 1204 2497 
Q 953 2441 691 2322 
L 691 4666 
z
" transform="scale(0.015625)"/>
       </defs>
       <use xlink:href="#DejaVuSans-32"/>
       <use xlink:href="#DejaVuSans-2e" x="63.623047"/>
       <use xlink:href="#DejaVuSans-35" x="95.410156"/>
      </g>
     </g>
    </g>
    <g id="xtick_3">
     <g id="line2d_4">
      <g>
       <use xlink:href="#mbdc95a53c4" x="235.825776" y="192.24" style="stroke: #000000; stroke-width: 0.8"/>
      </g>
     </g>
     <g id="text_3">
      <!-- 5.0 -->
      <g transform="translate(227.874213 206.838437) scale(0.1 -0.1)">
       <use xlink:href="#DejaVuSans-35"/>
       <use xlink:href="#DejaVuSans-2e" x="63.623047"/>
       <use xlink:href="#DejaVuSans-30" x="95.410156"/>
      </g>
     </g>
    </g>
    <g id="xtick_4">
     <g id="line2d_5">
      <g>
       <use xlink:href="#mbdc95a53c4" x="302.412888" y="192.24" style="stroke: #000000; stroke-width: 0.8"/>
      </g>
     </g>
     <g id="text_4">
      <!-- 7.5 -->
      <g transform="translate(294.461325 206.838437) scale(0.1 -0.1)">
       <defs>
        <path id="DejaVuSans-37" d="M 525 4666 
L 3525 4666 
L 3525 4397 
L 1831 0 
L 1172 0 
L 2766 4134 
L 525 4134 
L 525 4666 
z
" transform="scale(0.015625)"/>
       </defs>
       <use xlink:href="#DejaVuSans-37"/>
       <use xlink:href="#DejaVuSans-2e" x="63.623047"/>
       <use xlink:href="#DejaVuSans-35" x="95.410156"/>
      </g>
     </g>
    </g>
    <g id="xtick_5">
     <g id="line2d_6">
      <g>
       <use xlink:href="#mbdc95a53c4" x="369" y="192.24" style="stroke: #000000; stroke-width: 0.8"/>
      </g>
     </g>
     <g id="text_5">
      <!-- 10.0 -->
      <g transform="translate(357.867188 206.838437) scale(0.1 -0.1)">
       <defs>
        <path id="DejaVuSans-31" d="M 794 531 
L 1825 531 
L 1825 4091 
L 703 3866 
L 703 4441 
L 1819 4666 
L 2450 4666 
L 2450 531 
L 3481 531 
L 3481 0 
L 794 0 
L 794 531 
z
" transform="scale(0.015625)"/>
       </defs>
       <use xlink:href="#DejaVuSans-31"/>
       <use xlink:href="#DejaVuSans-30" x="63.623047"/>
       <use xlink:href="#DejaVuSans-2e" x="127.246094"/>
       <use xlink:href="#DejaVuSans-30" x="159.033203"/>
      </g>
     </g>
    </g>
    <g id="xtick_6">
     <g id="line2d_7">
      <g>
       <use xlink:href="#mbdc95a53c4" x="435.587112" y="192.24" style="stroke: #000000; stroke-width: 0.8"/>
      </g>
     </g>
     <g id="text_6">
      <!-- 12.5 -->
      <g transform="translate(424.4543 206.838437) scale(0.1 -0.1)">
       <use xlink:href="#DejaVuSans-31"/>
       <use xlink:href="#DejaVuSans-32" x="63.623047"/>
       <use xlink:href="#DejaVuSans-2e" x="127.246094"/>
       <use xlink:href="#DejaVuSans-35" x="159.033203"/>
      </g>
     </g>
    </g>
    <g id="xtick_7">
     <g id="line2d_8">
      <g>
       <use xlink:href="#mbdc95a53c4" x="502.174224" y="192.24" style="stroke: #000000; stroke-width: 0.8"/>
      </g>
     </g>
     <g id="text_7">
      <!-- 15.0 -->
      <g transform="translate(491.041412 206.838437) scale(0.1 -0.1)">
       <use xlink:href="#DejaVuSans-31"/>
       <use xlink:href="#DejaVuSans-35" x="63.623047"/>
       <use xlink:href="#DejaVuSans-2e" x="127.246094"/>
       <use xlink:href="#DejaVuSans-30" x="159.033203"/>
      </g>
     </g>
    </g>
    <g id="xtick_8">
     <g id="line2d_9">
      <g>
       <use xlink:href="#mbdc95a53c4" x="568.761337" y="192.24" style="stroke: #000000; stroke-width: 0.8"/>
      </g>
     </g>
     <g id="text_8">
      <!-- 17.5 -->
      <g transform="translate(557.628524 206.838437) scale(0.1 -0.1)">
       <use xlink:href="#DejaVuSans-31"/>
       <use xlink:href="#DejaVuSans-37" x="63.623047"/>
       <use xlink:href="#DejaVuSans-2e" x="127.246094"/>
       <use xlink:href="#DejaVuSans-35" x="159.033203"/>
      </g>
     </g>
    </g>
    <g id="xtick_9">
     <g id="line2d_10">
      <g>
       <use xlink:href="#mbdc95a53c4" x="635.348449" y="192.24" style="stroke: #000000; stroke-width: 0.8"/>
      </g>
     </g>
     <g id="text_9">
      <!-- 20.0 -->
      <g transform="translate(624.215636 206.838437) scale(0.1 -0.1)">
       <use xlink:href="#DejaVuSans-32"/>
       <use xlink:href="#DejaVuSans-30" x="63.623047"/>
       <use xlink:href="#DejaVuSans-2e" x="127.246094"/>
       <use xlink:href="#DejaVuSans-30" x="159.033203"/>
      </g>
     </g>
    </g>
   </g>
   <g id="matplotlib.axis_2">
    <g id="ytick_1">
     <g id="line2d_11">
      <defs>
       <path id="m303662eefc" d="M 0 0 
L -3.5 0 
" style="stroke: #000000; stroke-width: 0.8"/>
      </defs>
      <g>
       <use xlink:href="#m303662eefc" x="90" y="192.24" style="stroke: #000000; stroke-width: 0.8"/>
      </g>
     </g>
     <g id="text_10">
      <!-- 0.0 -->
      <g transform="translate(67.096875 196.039219) scale(0.1 -0.1)">
       <use xlink:href="#DejaVuSans-30"/>
       <use xlink:href="#DejaVuSans-2e" x="63.623047"/>
       <use xlink:href="#DejaVuSans-30" x="95.410156"/>
      </g>
     </g>
    </g>
    <g id="ytick_2">
     <g id="line2d_12">
      <g>
       <use xlink:href="#m303662eefc" x="90" y="164.4899" style="stroke: #000000; stroke-width: 0.8"/>
      </g>
     </g>
     <g id="text_11">
      <!-- 0.2 -->
      <g transform="translate(67.096875 168.289118) scale(0.1 -0.1)">
       <use xlink:href="#DejaVuSans-30"/>
       <use xlink:href="#DejaVuSans-2e" x="63.623047"/>
       <use xlink:href="#DejaVuSans-32" x="95.410156"/>
      </g>
     </g>
    </g>
    <g id="ytick_3">
     <g id="line2d_13">
      <g>
       <use xlink:href="#m303662eefc" x="90" y="136.739799" style="stroke: #000000; stroke-width: 0.8"/>
      </g>
     </g>
     <g id="text_12">
      <!-- 0.4 -->
      <g transform="translate(67.096875 140.539018) scale(0.1 -0.1)">
       <defs>
        <path id="DejaVuSans-34" d="M 2419 4116 
L 825 1625 
L 2419 1625 
L 2419 4116 
z
M 2253 4666 
L 3047 4666 
L 3047 1625 
L 3713 1625 
L 3713 1100 
L 3047 1100 
L 3047 0 
L 2419 0 
L 2419 1100 
L 313 1100 
L 313 1709 
L 2253 4666 
z
" transform="scale(0.015625)"/>
       </defs>
       <use xlink:href="#DejaVuSans-30"/>
       <use xlink:href="#DejaVuSans-2e" x="63.623047"/>
       <use xlink:href="#DejaVuSans-34" x="95.410156"/>
      </g>
     </g>
    </g>
    <g id="ytick_4">
     <g id="line2d_14">
      <g>
       <use xlink:href="#m303662eefc" x="90" y="108.989699" style="stroke: #000000; stroke-width: 0.8"/>
      </g>
     </g>
     <g id="text_13">
      <!-- 0.6 -->
      <g transform="translate(67.096875 112.788917) scale(0.1 -0.1)">
       <defs>
        <path id="DejaVuSans-36" d="M 2113 2584 
Q 1688 2584 1439 2293 
Q 1191 2003 1191 1497 
Q 1191 994 1439 701 
Q 1688 409 2113 409 
Q 2538 409 2786 701 
Q 3034 994 3034 1497 
Q 3034 2003 2786 2293 
Q 2538 2584 2113 2584 
z
M 3366 4563 
L 3366 3988 
Q 3128 4100 2886 4159 
Q 2644 4219 2406 4219 
Q 1781 4219 1451 3797 
Q 1122 3375 1075 2522 
Q 1259 2794 1537 2939 
Q 1816 3084 2150 3084 
Q 2853 3084 3261 2657 
Q 3669 2231 3669 1497 
Q 3669 778 3244 343 
Q 2819 -91 2113 -91 
Q 1303 -91 875 529 
Q 447 1150 447 2328 
Q 447 3434 972 4092 
Q 1497 4750 2381 4750 
Q 2619 4750 2861 4703 
Q 3103 4656 3366 4563 
z
" transform="scale(0.015625)"/>
       </defs>
       <use xlink:href="#DejaVuSans-30"/>
       <use xlink:href="#DejaVuSans-2e" x="63.623047"/>
       <use xlink:href="#DejaVuSans-36" x="95.410156"/>
      </g>
     </g>
    </g>
    <g id="ytick_5">
     <g id="line2d_15">
      <g>
       <use xlink:href="#m303662eefc" x="90" y="81.239598" style="stroke: #000000; stroke-width: 0.8"/>
      </g>
     </g>
     <g id="text_14">
      <!-- 0.8 -->
      <g transform="translate(67.096875 85.038817) scale(0.1 -0.1)">
       <defs>
        <path id="DejaVuSans-38" d="M 2034 2216 
Q 1584 2216 1326 1975 
Q 1069 1734 1069 1313 
Q 1069 891 1326 650 
Q 1584 409 2034 409 
Q 2484 409 2743 651 
Q 3003 894 3003 1313 
Q 3003 1734 2745 1975 
Q 2488 2216 2034 2216 
z
M 1403 2484 
Q 997 2584 770 2862 
Q 544 3141 544 3541 
Q 544 4100 942 4425 
Q 1341 4750 2034 4750 
Q 2731 4750 3128 4425 
Q 3525 4100 3525 3541 
Q 3525 3141 3298 2862 
Q 3072 2584 2669 2484 
Q 3125 2378 3379 2068 
Q 3634 1759 3634 1313 
Q 3634 634 3220 271 
Q 2806 -91 2034 -91 
Q 1263 -91 848 271 
Q 434 634 434 1313 
Q 434 1759 690 2068 
Q 947 2378 1403 2484 
z
M 1172 3481 
Q 1172 3119 1398 2916 
Q 1625 2713 2034 2713 
Q 2441 2713 2670 2916 
Q 2900 3119 2900 3481 
Q 2900 3844 2670 4047 
Q 2441 4250 2034 4250 
Q 1625 4250 1398 4047 
Q 1172 3844 1172 3481 
z
" transform="scale(0.015625)"/>
       </defs>
       <use xlink:href="#DejaVuSans-30"/>
       <use xlink:href="#DejaVuSans-2e" x="63.623047"/>
       <use xlink:href="#DejaVuSans-38" x="95.410156"/>
      </g>
     </g>
    </g>
    <g id="ytick_6">
     <g id="line2d_16">
      <g>
       <use xlink:href="#m303662eefc" x="90" y="53.489498" style="stroke: #000000; stroke-width: 0.8"/>
      </g>
     </g>
     <g id="text_15">
      <!-- 1.0 -->
      <g transform="translate(67.096875 57.288717) scale(0.1 -0.1)">
       <use xlink:href="#DejaVuSans-31"/>
       <use xlink:href="#DejaVuSans-2e" x="63.623047"/>
       <use xlink:href="#DejaVuSans-30" x="95.410156"/>
      </g>
     </g>
    </g>
   </g>
  </g>
 </g>
 <defs>
  <clipPath id="p7cab5f3f49">
   <rect x="90" y="25.92" width="558" height="166.32"/>
  </clipPath>
 </defs>
</svg>
