<?xml version="1.0" encoding="utf-8" standalone="no"?>
<!DOCTYPE svg PUBLIC "-//W3C//DTD SVG 1.1//EN"
  "http://www.w3.org/Graphics/SVG/1.1/DTD/svg11.dtd">
<svg xmlns:xlink="http://www.w3.org/1999/xlink" width="720pt" height="216pt" viewBox="0 0 720 216" xmlns="http://www.w3.org/2000/svg" version="1.1">
 <metadata>
  <rdf:RDF xmlns:dc="http://purl.org/dc/elements/1.1/" xmlns:cc="http://creativecommons.org/ns#" xmlns:rdf="http://www.w3.org/1999/02/22-rdf-syntax-ns#">
   <cc:Work>
    <dc:type rdf:resource="http://purl.org/dc/dcmitype/StillImage"/>
    <dc:date>2025-12-17T10:23:13.866015</dc:date>
    <dc:format>image/svg+xml</dc:format>
    <dc:creator>
     <cc:Agent>
      <dc:title>Matplotlib v3.8.2, https://matplotlib.org/</dc:title>
     </cc:Agent>
    </dc:creator>
   </cc:Work>
  </rdf:RDF>
 </metadata>
 <defs>
  <style type="text/css">*{stroke-linejoin: round; stroke-linecap: butt}</style>
 </defs>
 <g id="figure_1">
  <g id="patch_1">
   <path d="M 0 216 
L 720 216 
L 720 0 
L 0 0 
z
" style="fill: #ffffff"/>
  </g>
  <g id="axes_1">
   <g id="patch_2">
    <path d="M 90 192.24 
L 648 192.24 
L 648 25.92 
L 90 25.92 
z
" style="fill: #ffffff"/>
   </g>
   <g id="line2d_1">
    <path d="M 90 192.24 
L 648 192.24 
" clip-path="url(#pd8854046af)" style="fill: none; stroke: #000000; stroke-width: 0.5; stroke-linecap: square"/>
   </g>
   <g id="patch_3">
    <path d="M 107.699499 191.960949 
Q 105.914476 192.100474 103.994584 192.170556 
Q 102.074692 192.24 100.027865 192.24 
Q 95.402671 192.24 92.701335 191.824608 
Q 90 191.409217 90 190.698846 
Q 90 189.980193 92.748936 189.567987 
Q 95.501839 189.155781 100.289668 189.155781 
Q 102.134193 189.155781 103.824015 189.211846 
Q 105.517804 189.267274 107.017224 189.376856 
L 107.017224 189.991661 
Q 105.470203 189.850861 103.93905 189.781417 
Q 102.407896 189.711336 100.868809 189.711336 
Q 98.020705 189.711336 96.477652 189.967451 
Q 94.934598 190.22293 94.934598 190.698846 
Q 94.934598 191.170303 96.422118 191.427693 
Q 97.909637 191.684446 100.646673 191.684446 
Q 101.392416 191.684446 102.031058 191.669792 
Q 102.6697 191.654502 103.17744 191.622647 
L 103.17744 191.045431 
L 100.261901 191.045431 
L 100.261901 190.531288 
L 107.699499 190.531288 
L 107.699499 191.960949 
z
" clip-path="url(#pd8854046af)" style="fill: #ffa600"/>
   </g>
   <g id="patch_4">
    <path d="M 90 184.529453 
L 107.699499 184.529453 
L 107.699499 185.431716 
L 101.331796 185.431716 
L 101.331796 189.155781 
L 96.380052 189.155781 
L 96.380052 185.431716 
L 90 185.431716 
L 90 184.529453 
z
" clip-path="url(#pd8854046af)" style="fill: #ff0000"/>
   </g>
   <g id="patch_5">
    <path d="M 107.699499 183.645153 
Q 106.218967 184.08348 104.618029 184.305192 
Q 103.017092 184.529453 101.273453 184.529453 
Q 96.073751 184.529453 93.036876 182.867886 
Q 90 181.20632 90 178.364838 
Q 90 175.513162 93.036876 173.854144 
Q 96.073751 172.192577 101.273453 172.192577 
Q 103.017092 172.192577 104.618029 172.416838 
Q 106.218967 172.63855 107.699499 173.076877 
L 107.699499 175.536097 
Q 106.205588 174.955059 104.756272 174.684927 
Q 103.306955 174.414795 101.706018 174.414795 
Q 98.834142 174.414795 97.18861 175.46729 
Q 95.547538 176.517237 95.547538 178.364838 
Q 95.547538 180.204793 97.18861 181.257288 
Q 98.834142 182.307235 101.706018 182.307235 
Q 103.306955 182.307235 104.756272 182.037103 
Q 106.205588 181.764423 107.699499 181.183384 
L 107.699499 183.645153 
z
" clip-path="url(#pd8854046af)" style="fill: #0000ff"/>
   </g>
   <g id="patch_6">
    <path d="M 102.260459 160.955603 
L 95.453516 160.955603 
L 94.378735 172.192577 
L 90 172.192577 
L 96.253268 110.5082 
L 101.446231 110.5082 
L 107.699499 172.192577 
L 103.324383 172.192577 
L 102.260459 160.955603 
z
M 96.539153 149.50711 
L 101.163965 149.50711 
L 98.855178 124.970846 
L 96.539153 149.50711 
z
" clip-path="url(#pd8854046af)" style="fill: #008000"/>
   </g>
   <g id="patch_7">
    <path d="M 120.89151 191.378063 
L 114.084567 191.378063 
L 113.009787 192.24 
L 108.631052 192.24 
L 114.88432 187.508475 
L 120.077283 187.508475 
L 126.330551 192.24 
L 121.955434 192.24 
L 120.89151 191.378063 
z
M 115.170204 190.499902 
L 119.795017 190.499902 
L 117.48623 188.617838 
L 115.170204 190.499902 
z
" clip-path="url(#pd8854046af)" style="fill: #008000"/>
   </g>
   <g id="patch_8">
    <path d="M 126.330551 187.08038 
Q 124.545527 187.294427 122.625636 187.40194 
Q 120.705744 187.508475 118.658917 187.508475 
Q 114.033723 187.508475 111.332387 186.871219 
Q 108.631052 186.233963 108.631052 185.144178 
Q 108.631052 184.041687 111.379988 183.409318 
Q 114.132891 182.776949 118.92072 182.776949 
Q 120.765244 182.776949 122.455067 182.862959 
Q 124.148856 182.947992 125.648275 183.116102 
L 125.648275 184.05928 
Q 124.101255 183.843277 122.570102 183.736742 
Q 121.038948 183.62923 119.499861 183.62923 
Q 116.651757 183.62923 115.108704 184.022139 
Q 113.56565 184.414071 113.56565 185.144178 
Q 113.56565 185.867444 115.053169 186.262308 
Q 116.540689 186.656194 119.277725 186.656194 
Q 120.023468 186.656194 120.66211 186.633714 
Q 121.300752 186.610257 121.808492 186.561388 
L 121.808492 185.675876 
L 118.892953 185.675876 
L 118.892953 184.887126 
L 126.330551 184.887126 
L 126.330551 187.08038 
z
" clip-path="url(#pd8854046af)" style="fill: #ffa600"/>
   </g>
   <g id="patch_9">
    <path d="M 126.330551 182.098644 
Q 124.850018 182.434864 123.249081 182.604929 
Q 121.648144 182.776949 119.904504 182.776949 
Q 114.704803 182.776949 111.667927 181.502438 
Q 108.631052 180.227927 108.631052 178.048356 
Q 108.631052 175.860966 111.667927 174.58841 
Q 114.704803 173.313899 119.904504 173.313899 
Q 121.648144 173.313899 123.249081 173.485919 
Q 124.850018 173.655984 126.330551 173.992205 
L 126.330551 175.878559 
Q 124.83664 175.432871 123.387324 175.225666 
Q 121.938007 175.01846 120.33707 175.01846 
Q 117.465193 175.01846 115.819662 175.825781 
Q 114.178589 176.631147 114.178589 178.048356 
Q 114.178589 179.459702 115.819662 180.267022 
Q 117.465193 181.072388 120.33707 181.072388 
Q 121.938007 181.072388 123.387324 180.865182 
Q 124.83664 180.656022 126.330551 180.210334 
L 126.330551 182.098644 
z
" clip-path="url(#pd8854046af)" style="fill: #0000ff"/>
   </g>
   <g id="patch_10">
    <path d="M 108.631052 108.649719 
L 126.330551 108.649719 
L 126.330551 121.261036 
L 119.962847 121.261036 
L 119.962847 173.313899 
L 115.011104 173.313899 
L 115.011104 121.261036 
L 108.631052 121.261036 
L 108.631052 108.649719 
z
" clip-path="url(#pd8854046af)" style="fill: #ff0000"/>
   </g>
   <g id="patch_11">
    <path d="M 139.522562 191.754841 
L 132.715619 191.754841 
L 131.640839 192.24 
L 127.262104 192.24 
L 133.515372 189.576763 
L 138.708335 189.576763 
L 144.961603 192.24 
L 140.586486 192.24 
L 139.522562 191.754841 
z
M 133.801256 191.26055 
L 138.426069 191.26055 
L 136.117281 190.201191 
L 133.801256 191.26055 
z
" clip-path="url(#pd8854046af)" style="fill: #008000"/>
   </g>
   <g id="patch_12">
    <path d="M 144.961603 189.131331 
Q 143.48107 189.352121 141.880133 189.4638 
Q 140.279195 189.576763 138.535556 189.576763 
Q 133.335855 189.576763 130.298979 188.739813 
Q 127.262104 187.902864 127.262104 186.471578 
Q 127.262104 185.035157 130.298979 184.199492 
Q 133.335855 183.362542 138.535556 183.362542 
Q 140.279195 183.362542 141.880133 183.475505 
Q 143.48107 183.587184 144.961603 183.807974 
L 144.961603 185.04671 
Q 143.467692 184.754035 142.018375 184.617966 
Q 140.569059 184.481898 138.968121 184.481898 
Q 136.096245 184.481898 134.450713 185.012051 
Q 132.809641 185.540921 132.809641 186.471578 
Q 132.809641 187.398384 134.450713 187.928537 
Q 136.096245 188.457407 138.968121 188.457407 
Q 140.569059 188.457407 142.018375 188.321339 
Q 143.467692 188.183987 144.961603 187.891311 
L 144.961603 189.131331 
z
" clip-path="url(#pd8854046af)" style="fill: #0000ff"/>
   </g>
   <g id="patch_13">
    <path d="M 127.262104 174.485084 
L 144.961603 174.485084 
L 144.961603 176.216436 
L 138.593899 176.216436 
L 138.593899 183.362542 
L 133.642156 183.362542 
L 133.642156 176.216436 
L 127.262104 176.216436 
L 127.262104 174.485084 
z
" clip-path="url(#pd8854046af)" style="fill: #ff0000"/>
   </g>
   <g id="patch_14">
    <path d="M 144.961603 171.8345 
Q 143.176579 173.159792 141.256687 173.825464 
Q 139.336795 174.485084 137.289969 174.485084 
Q 132.664774 174.485084 129.963439 170.539466 
Q 127.262104 166.593848 127.262104 159.846357 
Q 127.262104 153.020195 130.01104 149.104834 
Q 132.763942 145.189474 137.551772 145.189474 
Q 139.396296 145.189474 141.086118 145.722011 
Q 142.779907 146.248497 144.279327 147.289366 
L 144.279327 153.129123 
Q 142.732307 151.791728 141.201153 151.132108 
Q 139.67 150.466436 138.130913 150.466436 
Q 135.282809 150.466436 133.739755 152.899164 
Q 132.196702 155.32584 132.196702 159.846357 
Q 132.196702 164.324512 133.684221 166.769343 
Q 135.171741 169.208123 137.908777 169.208123 
Q 138.65452 169.208123 139.293162 169.068937 
Q 139.931803 168.923699 140.439543 168.621121 
L 140.439543 163.138406 
L 137.524005 163.138406 
L 137.524005 158.254796 
L 144.961603 158.254796 
L 144.961603 171.8345 
z
" clip-path="url(#pd8854046af)" style="fill: #ffa600"/>
   </g>
   <g id="patch_15">
    <path d="M 158.153614 191.967983 
L 151.346671 191.967983 
L 150.27189 192.24 
L 145.893155 192.24 
L 152.146423 190.746785 
L 157.339386 190.746785 
L 163.592654 192.24 
L 159.217538 192.24 
L 158.153614 191.967983 
z
M 152.432308 191.690845 
L 157.057121 191.690845 
L 154.748333 191.096887 
L 152.432308 191.690845 
z
" clip-path="url(#pd8854046af)" style="fill: #008000"/>
   </g>
   <g id="patch_16">
    <path d="M 163.592654 190.609171 
Q 162.112122 190.677383 160.511185 190.711886 
Q 158.910247 190.746785 157.166608 190.746785 
Q 151.966906 190.746785 148.930031 190.488214 
Q 145.893155 190.229644 145.893155 189.787456 
Q 145.893155 189.343682 148.930031 189.085508 
Q 151.966906 188.826937 157.166608 188.826937 
Q 158.910247 188.826937 160.511185 188.861836 
Q 162.112122 188.896339 163.592654 188.964551 
L 163.592654 189.347251 
Q 162.098744 189.256831 160.649427 189.214793 
Q 159.200111 189.172756 157.599173 189.172756 
Q 154.727297 189.172756 153.081765 189.336543 
Q 151.440693 189.499935 151.440693 189.787456 
Q 151.440693 190.073787 153.081765 190.237575 
Q 154.727297 190.400966 157.599173 190.400966 
Q 159.200111 190.400966 160.649427 190.358929 
Q 162.098744 190.316495 163.592654 190.226074 
L 163.592654 190.609171 
z
" clip-path="url(#pd8854046af)" style="fill: #0000ff"/>
   </g>
   <g id="patch_17">
    <path d="M 145.893155 184.987241 
L 163.592654 184.987241 
L 163.592654 185.736089 
L 157.224951 185.736089 
L 157.224951 188.826937 
L 152.273207 188.826937 
L 152.273207 185.736089 
L 145.893155 185.736089 
L 145.893155 184.987241 
z
" clip-path="url(#pd8854046af)" style="fill: #ff0000"/>
   </g>
   <g id="patch_18">
    <path d="M 163.592654 184.620536 
Q 161.807631 184.803889 159.887739 184.895984 
Q 157.967847 184.987241 155.92102 184.987241 
Q 151.295826 184.987241 148.594491 184.44137 
Q 145.893155 183.895498 145.893155 182.961991 
Q 145.893155 182.0176 148.642091 181.475914 
Q 151.394994 180.934229 156.182824 180.934229 
Q 158.027348 180.934229 159.71717 181.007905 
Q 161.410959 181.080744 162.910379 181.224746 
L 162.910379 182.03267 
Q 161.363358 181.847643 159.832205 181.756385 
Q 158.301052 181.66429 156.761965 181.66429 
Q 153.913861 181.66429 152.370807 182.000855 
Q 150.827753 182.336583 150.827753 182.961991 
Q 150.827753 183.581538 152.315273 183.919778 
Q 153.802792 184.25718 156.539828 184.25718 
Q 157.285572 184.25718 157.924213 184.237924 
Q 158.562855 184.21783 159.070595 184.175969 
L 159.070595 183.417442 
L 156.155057 183.417442 
L 156.155057 182.7418 
L 163.592654 182.7418 
L 163.592654 184.620536 
z
" clip-path="url(#pd8854046af)" style="fill: #ffa600"/>
   </g>
   <g id="patch_19">
    <path d="M 182.223706 191.926319 
Q 180.743174 192.081804 179.142236 192.16045 
Q 177.541299 192.24 175.79766 192.24 
Q 170.597958 192.24 167.561083 191.650605 
Q 164.524207 191.061211 164.524207 190.053274 
Q 164.524207 189.041721 167.561083 188.45323 
Q 170.597958 187.863835 175.79766 187.863835 
Q 177.541299 187.863835 179.142236 187.943386 
Q 180.743174 188.022032 182.223706 188.177516 
L 182.223706 189.049856 
Q 180.729795 188.843749 179.280479 188.747927 
Q 177.831162 188.652106 176.230225 188.652106 
Q 173.358349 188.652106 171.712817 189.025449 
Q 170.071745 189.397889 170.071745 190.053274 
Q 170.071745 190.705947 171.712817 191.07929 
Q 173.358349 191.45173 176.230225 191.45173 
Q 177.831162 191.45173 179.280479 191.355908 
Q 180.729795 191.259182 182.223706 191.053075 
L 182.223706 191.926319 
z
" clip-path="url(#pd8854046af)" style="fill: #0000ff"/>
   </g>
   <g id="patch_20">
    <path d="M 164.524207 182.028949 
L 182.223706 182.028949 
L 182.223706 183.166915 
L 175.856003 183.166915 
L 175.856003 187.863835 
L 170.904259 187.863835 
L 170.904259 183.166915 
L 164.524207 183.166915 
L 164.524207 182.028949 
z
" clip-path="url(#pd8854046af)" style="fill: #ff0000"/>
   </g>
   <g id="patch_21">
    <path d="M 182.223706 181.237063 
Q 180.438683 181.633006 178.518791 181.831882 
Q 176.598899 182.028949 174.552072 182.028949 
Q 169.926878 182.028949 167.225542 180.85016 
Q 164.524207 179.671371 164.524207 177.655497 
Q 164.524207 175.616119 167.273143 174.44637 
Q 170.026046 173.27662 174.813876 173.27662 
Q 176.6584 173.27662 178.348222 173.435721 
Q 180.042011 173.593013 181.541431 173.903982 
L 181.541431 175.648662 
Q 179.99441 175.249103 178.463257 175.052036 
Q 176.932103 174.85316 175.393016 174.85316 
Q 172.544912 174.85316 171.001859 175.57996 
Q 169.458805 176.304951 169.458805 177.655497 
Q 169.458805 178.993386 170.946325 179.723802 
Q 172.433844 180.452409 175.17088 180.452409 
Q 175.916623 180.452409 176.555265 180.410826 
Q 177.193907 180.367435 177.701647 180.277037 
L 177.701647 178.639026 
L 174.786108 178.639026 
L 174.786108 177.180004 
L 182.223706 177.180004 
L 182.223706 181.237063 
z
" clip-path="url(#pd8854046af)" style="fill: #ffa600"/>
   </g>
   <g id="patch_22">
    <path d="M 176.784666 162.647274 
L 169.977723 162.647274 
L 168.902942 173.27662 
L 164.524207 173.27662 
L 170.777475 114.92776 
L 175.970438 114.92776 
L 182.223706 173.27662 
L 177.84859 173.27662 
L 176.784666 162.647274 
z
M 171.06336 151.817845 
L 175.688172 151.817845 
L 173.379385 128.608354 
L 171.06336 151.817845 
z
" clip-path="url(#pd8854046af)" style="fill: #008000"/>
   </g>
   <g id="patch_23">
    <path d="M 183.155259 188.402551 
L 200.854758 188.402551 
L 200.854758 189.150961 
L 194.487054 189.150961 
L 194.487054 192.24 
L 189.535311 192.24 
L 189.535311 189.150961 
L 183.155259 189.150961 
L 183.155259 188.402551 
z
" clip-path="url(#pd8854046af)" style="fill: #ff0000"/>
   </g>
   <g id="patch_24">
    <path d="M 195.415717 184.907233 
L 188.608774 184.907233 
L 187.533994 188.402551 
L 183.155259 188.402551 
L 189.408527 169.215308 
L 194.60149 169.215308 
L 200.854758 188.402551 
L 196.479641 188.402551 
L 195.415717 184.907233 
z
M 189.694411 181.34612 
L 194.319224 181.34612 
L 192.010437 173.713989 
L 189.694411 181.34612 
z
" clip-path="url(#pd8854046af)" style="fill: #008000"/>
   </g>
   <g id="patch_25">
    <path d="M 200.854758 162.097677 
Q 199.069734 165.656493 197.149843 167.444026 
Q 195.229951 169.215308 193.183124 169.215308 
Q 188.55793 169.215308 185.856594 158.620114 
Q 183.155259 148.024919 183.155259 129.905836 
Q 183.155259 111.575498 185.904195 101.061555 
Q 188.657098 90.547612 193.444927 90.547612 
Q 195.289451 90.547612 196.979274 91.977638 
Q 198.673063 93.391414 200.172482 96.186466 
L 200.172482 111.868004 
Q 198.625462 108.276688 197.094309 106.505405 
Q 195.563155 104.717872 194.024068 104.717872 
Q 191.175964 104.717872 189.632911 111.250493 
Q 188.089857 117.766862 188.089857 129.905836 
Q 188.089857 141.931057 189.577376 148.496177 
Q 191.064896 155.045048 193.801932 155.045048 
Q 194.547675 155.045048 195.186317 154.671291 
Q 195.824959 154.281284 196.332699 153.468769 
L 196.332699 138.745998 
L 193.41716 138.745998 
L 193.41716 125.632007 
L 200.854758 125.632007 
L 200.854758 162.097677 
z
" clip-path="url(#pd8854046af)" style="fill: #ffa600"/>
   </g>
   <g id="patch_26">
    <path d="M 219.48581 191.977586 
Q 217.700786 192.108793 215.780894 192.174696 
Q 213.861002 192.24 211.814176 192.24 
Q 207.188981 192.24 204.487646 191.849375 
Q 201.786311 191.45875 201.786311 190.790733 
Q 201.786311 190.114927 204.535247 189.727297 
Q 207.288149 189.339668 212.075979 189.339668 
Q 213.920503 189.339668 215.610325 189.39239 
Q 217.304114 189.444513 218.803534 189.547562 
L 218.803534 190.125711 
Q 217.256514 189.993306 215.72536 189.928002 
Q 214.194207 189.862099 212.65512 189.862099 
Q 209.807016 189.862099 208.263962 190.102945 
Q 206.720909 190.343191 206.720909 190.790733 
Q 206.720909 191.23408 208.208428 191.476124 
Q 209.695948 191.717569 212.432984 191.717569 
Q 213.178727 191.717569 213.817369 191.703789 
Q 214.45601 191.68941 214.96375 191.659454 
L 214.96375 191.116653 
L 212.048212 191.116653 
L 212.048212 190.633164 
L 219.48581 190.633164 
L 219.48581 191.977586 
z
" clip-path="url(#pd8854046af)" style="fill: #ffa600"/>
   </g>
   <g id="patch_27">
    <path d="M 201.786311 183.539003 
L 219.48581 183.539003 
L 219.48581 184.670294 
L 213.118106 184.670294 
L 213.118106 189.339668 
L 208.166363 189.339668 
L 208.166363 184.670294 
L 201.786311 184.670294 
L 201.786311 183.539003 
z
" clip-path="url(#pd8854046af)" style="fill: #ff0000"/>
   </g>
   <g id="patch_28">
    <path d="M 214.046769 157.121488 
L 207.239826 157.121488 
L 206.165046 183.539003 
L 201.786311 183.539003 
L 208.039579 38.522386 
L 213.232542 38.522386 
L 219.48581 183.539003 
L 215.110693 183.539003 
L 214.046769 157.121488 
z
M 208.325463 130.206702 
L 212.950276 130.206702 
L 210.641488 72.523282 
L 208.325463 130.206702 
z
" clip-path="url(#pd8854046af)" style="fill: #008000"/>
   </g>
   <g id="patch_29">
    <path d="M 220.417362 190.485083 
L 238.116861 190.485083 
L 238.116861 190.827341 
L 231.749158 190.827341 
L 231.749158 192.24 
L 226.797414 192.24 
L 226.797414 190.827341 
L 220.417362 190.827341 
L 220.417362 190.485083 
z
" clip-path="url(#pd8854046af)" style="fill: #ff0000"/>
   </g>
   <g id="patch_30">
    <path d="M 238.116861 189.981918 
Q 236.636329 190.231325 235.035392 190.357479 
Q 233.434454 190.485083 231.690815 190.485083 
Q 226.491113 190.485083 223.454238 189.539654 
Q 220.417362 188.594225 220.417362 186.977425 
Q 220.417362 185.354824 223.454238 184.410845 
Q 226.491113 183.465416 231.690815 183.465416 
Q 233.434454 183.465416 235.035392 183.59302 
Q 236.636329 183.719174 238.116861 183.968582 
L 238.116861 185.367875 
Q 236.622951 185.037265 235.173634 184.88356 
Q 233.724318 184.729855 232.12338 184.729855 
Q 229.251504 184.729855 227.605972 185.328724 
Q 225.9649 185.926142 225.9649 186.977425 
Q 225.9649 188.024357 227.605972 188.623226 
Q 229.251504 189.220644 232.12338 189.220644 
Q 233.724318 189.220644 235.173634 189.066939 
Q 236.622951 188.911785 238.116861 188.581174 
L 238.116861 189.981918 
z
" clip-path="url(#pd8854046af)" style="fill: #0000ff"/>
   </g>
   <g id="patch_31">
    <path d="M 238.116861 182.512737 
Q 236.331838 182.989076 234.411946 183.228334 
Q 232.492054 183.465416 230.445227 183.465416 
Q 225.820033 183.465416 223.118698 182.047272 
Q 220.417362 180.629128 220.417362 178.203928 
Q 220.417362 175.750452 223.166298 174.343184 
Q 225.919201 172.935915 230.707031 172.935915 
Q 232.551555 172.935915 234.241377 173.127321 
Q 235.935166 173.316552 237.434586 173.690664 
L 237.434586 175.789604 
Q 235.887565 175.308914 234.356412 175.071831 
Q 232.825259 174.832574 231.286172 174.832574 
Q 228.438068 174.832574 226.895014 175.706951 
Q 225.35196 176.579153 225.35196 178.203928 
Q 225.35196 179.813478 226.83948 180.692205 
Q 228.327 181.568757 231.064035 181.568757 
Q 231.809779 181.568757 232.44842 181.518731 
Q 233.087062 181.466529 233.594802 181.357776 
L 233.594802 179.387165 
L 230.679264 179.387165 
L 230.679264 177.631886 
L 238.116861 177.631886 
L 238.116861 182.512737 
z
" clip-path="url(#pd8854046af)" style="fill: #ffa600"/>
   </g>
   <g id="patch_32">
    <path d="M 232.677821 159.508884 
L 225.870878 159.508884 
L 224.796097 172.935915 
L 220.417362 172.935915 
L 226.67063 99.22941 
L 231.863593 99.22941 
L 238.116861 172.935915 
L 233.741745 172.935915 
L 232.677821 159.508884 
z
M 226.956515 145.829108 
L 231.581328 145.829108 
L 229.27254 116.51079 
L 226.956515 145.829108 
z
" clip-path="url(#pd8854046af)" style="fill: #008000"/>
   </g>
   <g id="patch_33">
    <path d="M 256.747913 192.067148 
Q 255.267381 192.152827 253.666443 192.196164 
Q 252.065506 192.24 250.321867 192.24 
Q 245.122165 192.24 242.08529 191.915217 
Q 239.048414 191.590434 239.048414 191.035016 
Q 239.048414 190.477605 242.08529 190.15332 
Q 245.122165 189.828537 250.321867 189.828537 
Q 252.065506 189.828537 253.666443 189.872373 
Q 255.267381 189.915711 256.747913 190.00139 
L 256.747913 190.482088 
Q 255.254002 190.368514 253.804686 190.315712 
Q 252.355369 190.26291 250.754432 190.26291 
Q 247.882556 190.26291 246.237024 190.468639 
Q 244.595952 190.673869 244.595952 191.035016 
Q 244.595952 191.394668 246.237024 191.600397 
Q 247.882556 191.805628 250.754432 191.805628 
Q 252.355369 191.805628 253.804686 191.752826 
Q 255.254002 191.699526 256.747913 191.585951 
L 256.747913 192.067148 
z
" clip-path="url(#pd8854046af)" style="fill: #0000ff"/>
   </g>
   <g id="patch_34">
    <path d="M 256.747913 188.519443 
Q 254.96289 189.17399 253.042998 189.502758 
Q 251.123106 189.828537 249.076279 189.828537 
Q 244.451085 189.828537 241.74975 187.87984 
Q 239.048414 185.931144 239.048414 182.598633 
Q 239.048414 179.227268 241.79735 177.293515 
Q 244.550253 175.359762 249.338083 175.359762 
Q 251.182607 175.359762 252.872429 175.622776 
Q 254.566218 175.882802 256.065638 176.396875 
L 256.065638 179.281066 
Q 254.518617 178.620541 252.987464 178.294762 
Q 251.45631 177.965994 249.917223 177.965994 
Q 247.069119 177.965994 245.526066 179.167492 
Q 243.983012 180.366 243.983012 182.598633 
Q 243.983012 184.810344 245.470532 186.017819 
Q 246.958051 187.222305 249.695087 187.222305 
Q 250.44083 187.222305 251.079472 187.153562 
Q 251.718114 187.081831 252.225854 186.932391 
L 252.225854 184.224539 
L 249.310315 184.224539 
L 249.310315 181.812579 
L 256.747913 181.812579 
L 256.747913 188.519443 
z
" clip-path="url(#pd8854046af)" style="fill: #ffa600"/>
   </g>
   <g id="patch_35">
    <path d="M 251.308873 155.152263 
L 244.50193 155.152263 
L 243.427149 175.359762 
L 239.048414 175.359762 
L 245.301682 64.432482 
L 250.494645 64.432482 
L 256.747913 175.359762 
L 252.372797 175.359762 
L 251.308873 155.152263 
z
M 245.587567 134.564388 
L 250.212379 134.564388 
L 247.903592 90.440721 
L 245.587567 134.564388 
z
" clip-path="url(#pd8854046af)" style="fill: #008000"/>
   </g>
   <g id="patch_36">
    <path d="M 257.679466 187.066176 
L 275.378965 187.066176 
L 275.378965 188.075216 
L 269.011261 188.075216 
L 269.011261 192.24 
L 264.059518 192.24 
L 264.059518 188.075216 
L 257.679466 188.075216 
L 257.679466 187.066176 
z
" clip-path="url(#pd8854046af)" style="fill: #ff0000"/>
   </g>
   <g id="patch_37">
    <path d="M 275.378965 186.364007 
Q 273.593941 186.715092 271.67405 186.891436 
Q 269.754158 187.066176 267.707331 187.066176 
Q 263.082137 187.066176 260.380801 186.020938 
Q 257.679466 184.9757 257.679466 183.188214 
Q 257.679466 181.379887 260.428402 180.342664 
Q 263.181305 179.305441 267.969134 179.305441 
Q 269.813659 179.305441 271.503481 179.446516 
Q 273.19727 179.585988 274.696689 179.861726 
L 274.696689 181.408743 
Q 273.149669 181.054452 271.618516 180.879711 
Q 270.087362 180.703367 268.548275 180.703367 
Q 265.700171 180.703367 264.157118 181.347824 
Q 262.614064 181.990678 262.614064 183.188214 
Q 262.614064 184.374527 264.101583 185.02219 
Q 265.589103 185.66825 268.326139 185.66825 
Q 269.071882 185.66825 269.710524 185.631378 
Q 270.349166 185.592903 270.856906 185.512747 
L 270.856906 184.060314 
L 267.941367 184.060314 
L 267.941367 182.766591 
L 275.378965 182.766591 
L 275.378965 186.364007 
z
" clip-path="url(#pd8854046af)" style="fill: #ffa600"/>
   </g>
   <g id="patch_38">
    <path d="M 269.939924 156.68521 
L 263.132981 156.68521 
L 262.058201 179.305441 
L 257.679466 179.305441 
L 263.932734 55.133677 
L 269.125697 55.133677 
L 275.378965 179.305441 
L 271.003849 179.305441 
L 269.939924 156.68521 
z
M 264.218618 133.639186 
L 268.843431 133.639186 
L 266.534644 84.247245 
L 264.218618 133.639186 
z
" clip-path="url(#pd8854046af)" style="fill: #008000"/>
   </g>
   <g id="patch_39">
    <path d="M 276.310518 184.210502 
L 294.010017 184.210502 
L 294.010017 185.776478 
L 287.642313 185.776478 
L 287.642313 192.24 
L 282.69057 192.24 
L 282.69057 185.776478 
L 276.310518 185.776478 
L 276.310518 184.210502 
z
" clip-path="url(#pd8854046af)" style="fill: #ff0000"/>
   </g>
   <g id="patch_40">
    <path d="M 288.570976 181.076092 
L 281.764033 181.076092 
L 280.689253 184.210502 
L 276.310518 184.210502 
L 282.563786 167.004434 
L 287.756749 167.004434 
L 294.010017 184.210502 
L 289.6349 184.210502 
L 288.570976 181.076092 
z
M 282.84967 177.882681 
L 287.474483 177.882681 
L 285.165695 171.038604 
L 282.84967 177.882681 
z
" clip-path="url(#pd8854046af)" style="fill: #008000"/>
   </g>
   <g id="patch_41">
    <path d="M 294.010017 163.787138 
Q 292.224993 165.395786 290.305101 166.203783 
Q 288.385209 167.004434 286.338383 167.004434 
Q 281.713188 167.004434 279.011853 162.215217 
Q 276.310518 157.425999 276.310518 149.235849 
Q 276.310518 140.950209 279.059454 136.197718 
Q 281.812356 131.445228 286.600186 131.445228 
Q 288.44471 131.445228 290.134532 132.091625 
Q 291.828321 132.730677 293.327741 133.994091 
L 293.327741 141.082427 
Q 291.780721 139.459087 290.249567 138.658436 
Q 288.718414 137.850439 287.179327 137.850439 
Q 284.331223 137.850439 282.788169 140.8033 
Q 281.245116 143.748816 281.245116 149.235849 
Q 281.245116 154.671464 282.732635 157.639016 
Q 284.220155 160.599223 286.957191 160.599223 
Q 287.702934 160.599223 288.341576 160.430278 
Q 288.980217 160.253988 289.487957 159.886717 
L 289.487957 153.231761 
L 286.572419 153.231761 
L 286.572419 147.304002 
L 294.010017 147.304002 
L 294.010017 163.787138 
z
" clip-path="url(#pd8854046af)" style="fill: #ffa600"/>
   </g>
   <g id="patch_42">
    <path d="M 294.941569 188.615858 
L 312.641068 188.615858 
L 312.641068 189.322667 
L 306.273365 189.322667 
L 306.273365 192.24 
L 301.321621 192.24 
L 301.321621 189.322667 
L 294.941569 189.322667 
L 294.941569 188.615858 
z
" clip-path="url(#pd8854046af)" style="fill: #ff0000"/>
   </g>
   <g id="patch_43">
    <path d="M 312.641068 188.124005 
Q 310.856045 188.369931 308.936153 188.493456 
Q 307.016261 188.615858 304.969434 188.615858 
Q 300.34424 188.615858 297.642905 187.883693 
Q 294.941569 187.151528 294.941569 185.899436 
Q 294.941569 184.632745 297.690505 183.906195 
Q 300.443408 183.179645 305.231238 183.179645 
Q 307.075762 183.179645 308.765584 183.278465 
Q 310.459373 183.376161 311.958793 183.569309 
L 311.958793 184.652958 
Q 310.411772 184.404786 308.880619 184.282384 
Q 307.349466 184.158859 305.810379 184.158859 
Q 302.962275 184.158859 301.419221 184.610286 
Q 299.876167 185.06059 299.876167 185.899436 
Q 299.876167 186.730421 301.363687 187.184093 
Q 302.851207 187.636643 305.588242 187.636643 
Q 306.333986 187.636643 306.972627 187.610815 
Q 307.611269 187.583865 308.119009 187.527717 
L 308.119009 186.510322 
L 305.203471 186.510322 
L 305.203471 185.604099 
L 312.641068 185.604099 
L 312.641068 188.124005 
z
" clip-path="url(#pd8854046af)" style="fill: #ffa600"/>
   </g>
   <g id="patch_44">
    <path d="M 307.202028 181.52913 
L 300.395085 181.52913 
L 299.320305 183.179645 
L 294.941569 183.179645 
L 301.194837 174.119289 
L 306.3878 174.119289 
L 312.641068 183.179645 
L 308.265952 183.179645 
L 307.202028 181.52913 
z
M 301.480722 179.847547 
L 306.105535 179.847547 
L 303.796747 176.243599 
L 301.480722 179.847547 
z
" clip-path="url(#pd8854046af)" style="fill: #008000"/>
   </g>
   <g id="patch_45">
    <path d="M 312.641068 168.534098 
Q 311.160536 171.30255 309.559599 172.702872 
Q 307.958661 174.119289 306.215022 174.119289 
Q 301.01532 174.119289 297.978445 163.624924 
Q 294.941569 153.130558 294.941569 135.183905 
Q 294.941569 117.17287 297.978445 106.6946 
Q 301.01532 96.200234 306.215022 96.200234 
Q 307.958661 96.200234 309.559599 97.616651 
Q 311.160536 99.016973 312.641068 101.785426 
L 312.641068 117.317731 
Q 311.147158 113.647922 309.697841 111.941783 
Q 308.248525 110.235643 306.647587 110.235643 
Q 303.775711 110.235643 302.130179 116.883148 
Q 300.489107 123.514557 300.489107 135.183905 
Q 300.489107 146.804967 302.130179 153.452471 
Q 303.775711 160.08388 306.647587 160.08388 
Q 308.248525 160.08388 309.697841 158.377741 
Q 311.147158 156.655506 312.641068 152.985697 
L 312.641068 168.534098 
z
" clip-path="url(#pd8854046af)" style="fill: #0000ff"/>
   </g>
   <g id="patch_46">
    <path d="M 331.27212 191.672145 
Q 329.487097 191.956072 327.567205 192.098684 
Q 325.647313 192.24 323.600486 192.24 
Q 318.975292 192.24 316.273957 191.3947 
Q 313.572621 190.549399 313.572621 189.103832 
Q 313.572621 187.64141 316.321557 186.802592 
Q 319.07446 185.963774 323.86229 185.963774 
Q 325.706814 185.963774 327.396636 186.077863 
Q 329.090425 186.190656 330.589845 186.41365 
L 330.589845 187.664746 
Q 329.042824 187.378226 327.511671 187.23691 
Q 325.980517 187.094298 324.44143 187.094298 
Q 321.593326 187.094298 320.050273 187.61548 
Q 318.507219 188.135366 318.507219 189.103832 
Q 318.507219 190.063222 319.994739 190.586997 
Q 321.482258 191.109475 324.219294 191.109475 
Q 324.965037 191.109475 325.603679 191.079657 
Q 326.242321 191.048541 326.750061 190.983718 
L 326.750061 189.809113 
L 323.834523 189.809113 
L 323.834523 188.762859 
L 331.27212 188.762859 
L 331.27212 191.672145 
z
" clip-path="url(#pd8854046af)" style="fill: #ffa600"/>
   </g>
   <g id="patch_47">
    <path d="M 325.83308 156.808778 
L 319.026137 156.808778 
L 317.951356 185.963774 
L 313.572621 185.963774 
L 319.825889 25.92 
L 325.018852 25.92 
L 331.27212 185.963774 
L 326.897004 185.963774 
L 325.83308 156.808778 
z
M 320.111774 127.104983 
L 324.736586 127.104983 
L 322.427799 63.444194 
L 320.111774 127.104983 
z
" clip-path="url(#pd8854046af)" style="fill: #008000"/>
   </g>
   <g id="patch_48">
    <path d="M 349.903172 191.790124 
Q 348.422639 192.013117 346.821702 192.12591 
Q 345.220765 192.24 343.477126 192.24 
Q 338.277424 192.24 335.240548 191.3947 
Q 332.203673 190.549399 332.203673 189.103832 
Q 332.203673 187.653078 335.240548 186.809074 
Q 338.277424 185.963774 343.477126 185.963774 
Q 345.220765 185.963774 346.821702 186.077863 
Q 348.422639 186.190656 349.903172 186.41365 
L 349.903172 187.664746 
Q 348.409261 187.36915 346.959945 187.231724 
Q 345.510628 187.094298 343.909691 187.094298 
Q 341.037814 187.094298 339.392283 187.629742 
Q 337.75121 188.163888 337.75121 189.103832 
Q 337.75121 190.039885 339.392283 190.575329 
Q 341.037814 191.109475 343.909691 191.109475 
Q 345.510628 191.109475 346.959945 190.972049 
Q 348.409261 190.833327 349.903172 190.537731 
L 349.903172 191.790124 
z
" clip-path="url(#pd8854046af)" style="fill: #0000ff"/>
   </g>
   <g id="patch_49">
    <path d="M 344.464131 156.808778 
L 337.657188 156.808778 
L 336.582408 185.963774 
L 332.203673 185.963774 
L 338.456941 25.92 
L 343.649904 25.92 
L 349.903172 185.963774 
L 345.528056 185.963774 
L 344.464131 156.808778 
z
M 338.742825 127.104983 
L 343.367638 127.104983 
L 341.058851 63.444194 
L 338.742825 127.104983 
z
" clip-path="url(#pd8854046af)" style="fill: #008000"/>
   </g>
   <g id="patch_50">
    <path d="M 368.534224 190.150431 
Q 366.7492 191.195215 364.829308 191.719993 
Q 362.909416 192.24 360.86259 192.24 
Q 356.237396 192.24 353.53606 189.1295 
Q 350.834725 186.018999 350.834725 180.699662 
Q 350.834725 175.318306 353.583661 172.231659 
Q 356.336563 169.145012 361.124393 169.145012 
Q 362.968917 169.145012 364.658739 169.564834 
Q 366.352528 169.979886 367.851948 170.800447 
L 367.851948 175.404178 
Q 366.304928 174.349852 364.773774 173.829845 
Q 363.242621 173.305068 361.703534 173.305068 
Q 358.85543 173.305068 357.312376 175.222892 
Q 355.769323 177.135945 355.769323 180.699662 
Q 355.769323 184.229985 357.256842 186.15735 
Q 358.744362 188.079944 361.481398 188.079944 
Q 362.227141 188.079944 362.865783 187.970218 
Q 363.504424 187.855721 364.012164 187.617186 
L 364.012164 183.294926 
L 361.096626 183.294926 
L 361.096626 179.444966 
L 368.534224 179.444966 
L 368.534224 190.150431 
z
" clip-path="url(#pd8854046af)" style="fill: #ffa600"/>
   </g>
   <g id="patch_51">
    <path d="M 350.834725 69.836564 
L 368.534224 69.836564 
L 368.534224 89.204479 
L 362.16652 89.204479 
L 362.16652 169.145012 
L 357.214777 169.145012 
L 357.214777 89.204479 
L 350.834725 89.204479 
L 350.834725 69.836564 
z
" clip-path="url(#pd8854046af)" style="fill: #ff0000"/>
   </g>
   <g id="patch_52">
    <path d="M 369.465776 189.484232 
L 387.165275 189.484232 
L 387.165275 190.021683 
L 380.797572 190.021683 
L 380.797572 192.24 
L 375.845828 192.24 
L 375.845828 190.021683 
L 369.465776 190.021683 
L 369.465776 189.484232 
z
" clip-path="url(#pd8854046af)" style="fill: #ff0000"/>
   </g>
   <g id="patch_53">
    <path d="M 387.165275 188.736229 
Q 385.380252 189.110231 383.46036 189.298085 
Q 381.540468 189.484232 379.493641 189.484232 
Q 374.868447 189.484232 372.167112 188.370767 
Q 369.465776 187.257302 369.465776 185.353141 
Q 369.465776 183.426779 372.214712 182.321853 
Q 374.967615 181.216927 379.755445 181.216927 
Q 381.599969 181.216927 383.289791 181.367211 
Q 384.98358 181.515787 386.483 181.809523 
L 386.483 183.457519 
Q 384.93598 183.080102 383.404826 182.893955 
Q 381.873673 182.706101 380.334586 182.706101 
Q 377.486482 182.706101 375.943428 183.392624 
Q 374.400374 184.077439 374.400374 185.353141 
Q 374.400374 186.616889 375.887894 187.306828 
Q 377.375414 187.995058 380.112449 187.995058 
Q 380.858193 187.995058 381.496834 187.95578 
Q 382.135476 187.914793 382.643216 187.829405 
L 382.643216 186.282167 
L 379.727678 186.282167 
L 379.727678 184.903998 
L 387.165275 184.903998 
L 387.165275 188.736229 
z
" clip-path="url(#pd8854046af)" style="fill: #ffa600"/>
   </g>
   <g id="patch_54">
    <path d="M 381.726235 156.618182 
L 374.919292 156.618182 
L 373.844512 181.216927 
L 369.465776 181.216927 
L 375.719044 46.184287 
L 380.912007 46.184287 
L 387.165275 181.216927 
L 382.790159 181.216927 
L 381.726235 156.618182 
z
M 376.004929 131.556402 
L 380.629742 131.556402 
L 378.320954 77.844319 
L 376.004929 131.556402 
z
" clip-path="url(#pd8854046af)" style="fill: #008000"/>
   </g>
   <g id="patch_55">
    <path d="M 405.796327 191.99959 
Q 404.315795 192.118756 402.714857 192.179032 
Q 401.11392 192.24 399.370281 192.24 
Q 394.170579 192.24 391.133704 191.788279 
Q 388.096828 191.336558 388.096828 190.56406 
Q 388.096828 189.788791 391.133704 189.337763 
Q 394.170579 188.886043 399.370281 188.886043 
Q 401.11392 188.886043 402.714857 188.947011 
Q 404.315795 189.007287 405.796327 189.126452 
L 405.796327 189.795027 
Q 404.302416 189.637063 402.8531 189.563624 
Q 401.403783 189.490184 399.802846 189.490184 
Q 396.93097 189.490184 395.285438 189.77632 
Q 393.644366 190.061764 393.644366 190.56406 
Q 393.644366 191.064279 395.285438 191.350415 
Q 396.93097 191.635858 399.802846 191.635858 
Q 401.403783 191.635858 402.8531 191.562419 
Q 404.302416 191.488287 405.796327 191.330323 
L 405.796327 191.99959 
z
" clip-path="url(#pd8854046af)" style="fill: #0000ff"/>
   </g>
   <g id="patch_56">
    <path d="M 405.796327 188.582586 
Q 404.011304 188.734314 402.091412 188.810525 
Q 400.17152 188.886043 398.124693 188.886043 
Q 393.499499 188.886043 390.798164 188.434322 
Q 388.096828 187.982601 388.096828 187.210103 
Q 388.096828 186.428598 390.845764 185.980342 
Q 393.598667 185.532085 398.386497 185.532085 
Q 400.231021 185.532085 401.920843 185.593053 
Q 403.614632 185.653329 405.114052 185.772495 
L 405.114052 186.441069 
Q 403.567031 186.287955 402.035878 186.212437 
Q 400.504724 186.136227 398.965637 186.136227 
Q 396.117533 186.136227 394.57448 186.414742 
Q 393.031426 186.692564 393.031426 187.210103 
Q 393.031426 187.722792 394.518946 188.002693 
Q 396.006465 188.281901 398.743501 188.281901 
Q 399.489244 188.281901 400.127886 188.265966 
Q 400.766528 188.249338 401.274268 188.214697 
L 401.274268 187.586999 
L 398.35873 187.586999 
L 398.35873 187.02789 
L 405.796327 187.02789 
L 405.796327 188.582586 
z
" clip-path="url(#pd8854046af)" style="fill: #ffa600"/>
   </g>
   <g id="patch_57">
    <path d="M 400.357287 183.088138 
L 393.550344 183.088138 
L 392.475563 185.532085 
L 388.096828 185.532085 
L 394.350096 172.116255 
L 399.543059 172.116255 
L 405.796327 185.532085 
L 401.421211 185.532085 
L 400.357287 183.088138 
z
M 394.635981 180.598188 
L 399.260793 180.598188 
L 396.952006 175.261758 
L 394.635981 180.598188 
z
" clip-path="url(#pd8854046af)" style="fill: #008000"/>
   </g>
   <g id="patch_58">
    <path d="M 388.096828 103.360126 
L 405.796327 103.360126 
L 405.796327 116.769487 
L 399.428624 116.769487 
L 399.428624 172.116255 
L 394.47688 172.116255 
L 394.47688 116.769487 
L 388.096828 116.769487 
L 388.096828 103.360126 
z
" clip-path="url(#pd8854046af)" style="fill: #ff0000"/>
   </g>
   <g id="patch_59">
    <path d="M 418.988338 191.873178 
L 412.181395 191.873178 
L 411.106615 192.24 
L 406.72788 192.24 
L 412.981148 190.22636 
L 418.174111 190.22636 
L 424.427379 192.24 
L 420.052263 192.24 
L 418.988338 191.873178 
z
M 413.267032 191.49945 
L 417.891845 191.49945 
L 415.583058 190.698483 
L 413.267032 191.49945 
z
" clip-path="url(#pd8854046af)" style="fill: #008000"/>
   </g>
   <g id="patch_60">
    <path d="M 424.427379 188.222288 
Q 422.642356 189.224324 420.722464 189.72763 
Q 418.802572 190.22636 416.755745 190.22636 
Q 412.130551 190.22636 409.429215 187.243129 
Q 406.72788 184.259898 406.72788 179.158206 
Q 406.72788 173.997033 409.476816 171.036679 
Q 412.229719 168.076325 417.017548 168.076325 
Q 418.862073 168.076325 420.551895 168.47897 
Q 422.245684 168.877039 423.745103 169.664027 
L 423.745103 174.079392 
Q 422.198083 173.068205 420.66693 172.569474 
Q 419.135776 172.066169 417.596689 172.066169 
Q 414.748585 172.066169 413.205532 173.905523 
Q 411.662478 175.740302 411.662478 179.158206 
Q 411.662478 182.544082 413.149997 184.392588 
Q 414.637517 186.236517 417.374553 186.236517 
Q 418.120296 186.236517 418.758938 186.131281 
Q 419.39758 186.021468 419.90532 185.792693 
L 419.90532 181.647283 
L 416.989781 181.647283 
L 416.989781 177.954848 
L 424.427379 177.954848 
L 424.427379 188.222288 
z
" clip-path="url(#pd8854046af)" style="fill: #ffa600"/>
   </g>
   <g id="patch_61">
    <path d="M 424.427379 162.15853 
Q 422.946846 165.091846 421.345909 166.575559 
Q 419.744972 168.076325 418.001333 168.076325 
Q 412.801631 168.076325 409.764755 156.957009 
Q 406.72788 145.837692 406.72788 126.822296 
Q 406.72788 107.738684 409.764755 96.636421 
Q 412.801631 85.517104 418.001333 85.517104 
Q 419.744972 85.517104 421.345909 87.017871 
Q 422.946846 88.501583 424.427379 91.4349 
L 424.427379 107.892171 
Q 422.933468 104.003821 421.484152 102.196079 
Q 420.034835 100.388338 418.433898 100.388338 
Q 415.562021 100.388338 413.91649 107.431709 
Q 412.275417 114.458025 412.275417 126.822296 
Q 412.275417 139.135405 413.91649 146.178775 
Q 415.562021 153.205092 418.433898 153.205092 
Q 420.034835 153.205092 421.484152 151.39735 
Q 422.933468 149.572555 424.427379 145.684205 
L 424.427379 162.15853 
z
" clip-path="url(#pd8854046af)" style="fill: #0000ff"/>
   </g>
   <g id="patch_62">
    <path d="M 443.058431 191.903417 
Q 441.577898 192.070254 439.976961 192.154642 
Q 438.376024 192.24 436.632384 192.24 
Q 431.432683 192.24 428.395807 191.607574 
Q 425.358932 190.975147 425.358932 189.89362 
Q 425.358932 188.808214 428.395807 188.176757 
Q 431.432683 187.544331 436.632384 187.544331 
Q 438.376024 187.544331 439.976961 187.629689 
Q 441.577898 187.714077 443.058431 187.880914 
L 443.058431 188.816944 
Q 441.56452 188.595788 440.115203 188.492971 
Q 438.665887 188.390153 437.06495 188.390153 
Q 434.193073 188.390153 432.547541 188.790754 
Q 430.906469 189.190386 430.906469 189.89362 
Q 430.906469 190.593945 432.547541 190.994547 
Q 434.193073 191.394178 437.06495 191.394178 
Q 438.665887 191.394178 440.115203 191.29136 
Q 441.56452 191.187573 443.058431 190.966417 
L 443.058431 191.903417 
z
" clip-path="url(#pd8854046af)" style="fill: #0000ff"/>
   </g>
   <g id="patch_63">
    <path d="M 443.058431 186.482204 
Q 441.273407 187.013267 439.353515 187.280012 
Q 437.433623 187.544331 435.386797 187.544331 
Q 430.761603 187.544331 428.060267 185.963265 
Q 425.358932 184.382199 425.358932 181.678382 
Q 425.358932 178.943041 428.107868 177.3741 
Q 430.86077 175.805158 435.6486 175.805158 
Q 437.493124 175.805158 439.182946 176.018554 
Q 440.876735 176.229524 442.376155 176.646615 
L 442.376155 178.98669 
Q 440.829135 178.450777 439.297981 178.186457 
Q 437.766828 177.919713 436.227741 177.919713 
Q 433.379637 177.919713 431.836583 178.894542 
Q 430.29353 179.866946 430.29353 181.678382 
Q 430.29353 183.472844 431.781049 184.452522 
Q 433.268569 185.429776 436.005605 185.429776 
Q 436.751348 185.429776 437.38999 185.374003 
Q 438.028631 185.315804 438.536371 185.194557 
L 438.536371 182.997554 
L 435.620833 182.997554 
L 435.620833 181.040621 
L 443.058431 181.040621 
L 443.058431 186.482204 
z
" clip-path="url(#pd8854046af)" style="fill: #ffa600"/>
   </g>
   <g id="patch_64">
    <path d="M 437.61939 156.130849 
L 430.812447 156.130849 
L 429.737667 175.805158 
L 425.358932 175.805158 
L 431.6122 67.804771 
L 436.805163 67.804771 
L 443.058431 175.805158 
L 438.683314 175.805158 
L 437.61939 156.130849 
z
M 431.898084 136.086199 
L 436.522897 136.086199 
L 434.214109 93.126765 
L 431.898084 136.086199 
z
" clip-path="url(#pd8854046af)" style="fill: #008000"/>
   </g>
   <g id="patch_65">
    <path d="M 461.689482 191.94451 
Q 460.20895 192.090978 458.608013 192.165063 
Q 457.007075 192.24 455.263436 192.24 
Q 450.063734 192.24 447.026859 191.684786 
Q 443.989983 191.129572 443.989983 190.180087 
Q 443.989983 189.227197 447.026859 188.672834 
Q 450.063734 188.11762 455.263436 188.11762 
Q 457.007075 188.11762 458.608013 188.192557 
Q 460.20895 188.266642 461.689482 188.41311 
L 461.689482 189.234861 
Q 460.195572 189.040706 458.746255 188.950441 
Q 457.296939 188.860176 455.696001 188.860176 
Q 452.824125 188.860176 451.178593 189.211869 
Q 449.537521 189.562709 449.537521 190.180087 
Q 449.537521 190.79491 451.178593 191.146603 
Q 452.824125 191.497444 455.696001 191.497444 
Q 457.296939 191.497444 458.746255 191.407179 
Q 460.195572 191.316062 461.689482 191.121908 
L 461.689482 191.94451 
z
" clip-path="url(#pd8854046af)" style="fill: #0000ff"/>
   </g>
   <g id="patch_66">
    <path d="M 461.689482 187.744638 
Q 459.904459 187.931129 457.984567 188.0248 
Q 456.064675 188.11762 454.017848 188.11762 
Q 449.392654 188.11762 446.691319 187.562406 
Q 443.989983 187.007191 443.989983 186.057707 
Q 443.989983 185.097152 446.738919 184.546196 
Q 449.491822 183.99524 454.279652 183.99524 
Q 456.124176 183.99524 457.813998 184.070176 
Q 459.507787 184.144262 461.007207 184.290729 
L 461.007207 185.11248 
Q 459.460187 184.924287 457.929033 184.831467 
Q 456.39788 184.737796 454.858793 184.737796 
Q 452.010689 184.737796 450.467635 185.080121 
Q 448.924581 185.421595 448.924581 186.057707 
Q 448.924581 186.687858 450.412101 187.031886 
Q 451.899621 187.375063 454.636656 187.375063 
Q 455.3824 187.375063 456.021041 187.355478 
Q 456.659683 187.33504 457.167423 187.292462 
L 457.167423 186.520953 
L 454.251885 186.520953 
L 454.251885 185.833748 
L 461.689482 185.833748 
L 461.689482 187.744638 
z
" clip-path="url(#pd8854046af)" style="fill: #ffa600"/>
   </g>
   <g id="patch_67">
    <path d="M 443.989983 175.750479 
L 461.689482 175.750479 
L 461.689482 177.358437 
L 455.321779 177.358437 
L 455.321779 183.99524 
L 450.370035 183.99524 
L 450.370035 177.358437 
L 443.989983 177.358437 
L 443.989983 175.750479 
z
" clip-path="url(#pd8854046af)" style="fill: #ff0000"/>
   </g>
   <g id="patch_68">
    <path d="M 456.250442 158.853668 
L 449.443499 158.853668 
L 448.368719 175.750479 
L 443.989983 175.750479 
L 450.243251 82.996924 
L 455.436214 82.996924 
L 461.689482 175.750479 
L 457.314366 175.750479 
L 456.250442 158.853668 
z
M 450.529136 141.638799 
L 455.153949 141.638799 
L 452.845161 104.744114 
L 450.529136 141.638799 
z
" clip-path="url(#pd8854046af)" style="fill: #008000"/>
   </g>
   <g id="patch_69">
    <path d="M 462.621035 189.922592 
L 480.320534 189.922592 
L 480.320534 190.374551 
L 473.952831 190.374551 
L 473.952831 192.24 
L 469.001087 192.24 
L 469.001087 190.374551 
L 462.621035 190.374551 
L 462.621035 189.922592 
z
" clip-path="url(#pd8854046af)" style="fill: #ff0000"/>
   </g>
   <g id="patch_70">
    <path d="M 480.320534 188.454884 
Q 478.535511 189.188738 476.615619 189.55734 
Q 474.695727 189.922592 472.6489 189.922592 
Q 468.023706 189.922592 465.322371 187.737784 
Q 462.621035 185.552977 462.621035 181.816688 
Q 462.621035 178.036838 465.369971 175.868785 
Q 468.122874 173.700732 472.910704 173.700732 
Q 474.755228 173.700732 476.44505 173.995614 
Q 478.138839 174.287145 479.638259 174.863505 
L 479.638259 178.097154 
Q 478.091238 177.356598 476.560085 176.991347 
Q 475.028931 176.622744 473.489844 176.622744 
Q 470.64174 176.622744 469.098687 177.969819 
Q 467.555633 179.313542 467.555633 181.816688 
Q 467.555633 184.296378 469.043153 185.650154 
Q 470.530672 187.000579 473.267708 187.000579 
Q 474.013451 187.000579 474.652093 186.923508 
Q 475.290735 186.843085 475.798475 186.675539 
L 475.798475 183.639595 
L 472.882937 183.639595 
L 472.882937 180.935393 
L 480.320534 180.935393 
L 480.320534 188.454884 
z
" clip-path="url(#pd8854046af)" style="fill: #ffa600"/>
   </g>
   <g id="patch_71">
    <path d="M 474.881494 154.703545 
L 468.074551 154.703545 
L 466.99977 173.700732 
L 462.621035 173.700732 
L 468.874303 69.41735 
L 474.067266 69.41735 
L 480.320534 173.700732 
L 475.945418 173.700732 
L 474.881494 154.703545 
z
M 469.160188 135.348764 
L 473.785 135.348764 
L 471.476213 93.867848 
L 469.160188 135.348764 
z
" clip-path="url(#pd8854046af)" style="fill: #008000"/>
   </g>
   <g id="patch_72">
    <path d="M 498.951586 192.011545 
Q 497.471053 192.124785 495.870116 192.182063 
Q 494.269179 192.24 492.52554 192.24 
Q 487.325838 192.24 484.288962 191.810741 
Q 481.252087 191.381482 481.252087 190.647397 
Q 481.252087 189.910678 484.288962 189.482077 
Q 487.325838 189.052818 492.52554 189.052818 
Q 494.269179 189.052818 495.870116 189.110755 
Q 497.471053 189.168034 498.951586 189.281274 
L 498.951586 189.916603 
Q 497.457675 189.766494 496.008359 189.696707 
Q 494.559042 189.626919 492.958105 189.626919 
Q 490.086228 189.626919 488.440697 189.898827 
Q 486.799624 190.170077 486.799624 190.647397 
Q 486.799624 191.122742 488.440697 191.39465 
Q 490.086228 191.665899 492.958105 191.665899 
Q 494.559042 191.665899 496.008359 191.596112 
Q 497.457675 191.525666 498.951586 191.375557 
L 498.951586 192.011545 
z
" clip-path="url(#pd8854046af)" style="fill: #0000ff"/>
   </g>
   <g id="patch_73">
    <path d="M 481.252087 182.678455 
L 498.951586 182.678455 
L 498.951586 183.921633 
L 492.583882 183.921633 
L 492.583882 189.052818 
L 487.632139 189.052818 
L 487.632139 183.921633 
L 481.252087 183.921633 
L 481.252087 182.678455 
z
" clip-path="url(#pd8854046af)" style="fill: #ff0000"/>
   </g>
   <g id="patch_74">
    <path d="M 498.951586 181.813353 
Q 497.166563 182.245904 495.246671 182.463167 
Q 493.326779 182.678455 491.279952 182.678455 
Q 486.654758 182.678455 483.953422 181.390678 
Q 481.252087 180.102902 481.252087 177.900645 
Q 481.252087 175.672712 484.001023 174.394811 
Q 486.753926 173.11691 491.541755 173.11691 
Q 493.38628 173.11691 495.076102 173.29072 
Q 496.769891 173.462556 498.26931 173.802276 
L 498.26931 175.708265 
Q 496.72229 175.271764 495.191137 175.056476 
Q 493.659983 174.839213 492.120896 174.839213 
Q 489.272792 174.839213 487.729739 175.63321 
Q 486.186685 176.425232 486.186685 177.900645 
Q 486.186685 179.362232 487.674205 180.16018 
Q 489.161724 180.956152 491.89876 180.956152 
Q 492.644503 180.956152 493.283145 180.910725 
Q 493.921787 180.863322 494.429527 180.764566 
L 494.429527 178.975109 
L 491.513988 178.975109 
L 491.513988 177.381189 
L 498.951586 177.381189 
L 498.951586 181.813353 
z
" clip-path="url(#pd8854046af)" style="fill: #ffa600"/>
   </g>
   <g id="patch_75">
    <path d="M 493.512545 161.214501 
L 486.705603 161.214501 
L 485.630822 173.11691 
L 481.252087 173.11691 
L 487.505355 107.779686 
L 492.698318 107.779686 
L 498.951586 173.11691 
L 494.57647 173.11691 
L 493.512545 161.214501 
z
M 487.791239 149.088047 
L 492.416052 149.088047 
L 490.107265 123.098787 
L 487.791239 149.088047 
z
" clip-path="url(#pd8854046af)" style="fill: #008000"/>
   </g>
   <g id="patch_76">
    <path d="M 517.582638 191.900847 
Q 516.102105 192.068957 514.501168 192.15399 
Q 512.900231 192.24 511.156591 192.24 
Q 505.95689 192.24 502.920014 191.602744 
Q 499.883139 190.965489 499.883139 189.875703 
Q 499.883139 188.782009 502.920014 188.14573 
Q 505.95689 187.508475 511.156591 187.508475 
Q 512.900231 187.508475 514.501168 187.594485 
Q 516.102105 187.679517 517.582638 187.847628 
L 517.582638 188.790805 
Q 516.088727 188.567961 514.63941 188.464358 
Q 513.190094 188.360755 511.589157 188.360755 
Q 508.71728 188.360755 507.071748 188.764416 
Q 505.430676 189.167099 505.430676 189.875703 
Q 505.430676 190.581376 507.071748 190.985036 
Q 508.71728 191.387719 511.589157 191.387719 
Q 513.190094 191.387719 514.63941 191.284117 
Q 516.088727 191.179536 517.582638 190.956692 
L 517.582638 191.900847 
z
" clip-path="url(#pd8854046af)" style="fill: #0000ff"/>
   </g>
   <g id="patch_77">
    <path d="M 517.582638 187.08038 
Q 515.797614 187.294427 513.877722 187.40194 
Q 511.957831 187.508475 509.911004 187.508475 
Q 505.28581 187.508475 502.584474 186.871219 
Q 499.883139 186.233963 499.883139 185.144178 
Q 499.883139 184.041687 502.632075 183.409318 
Q 505.384978 182.776949 510.172807 182.776949 
Q 512.017331 182.776949 513.707153 182.862959 
Q 515.400942 182.947992 516.900362 183.116102 
L 516.900362 184.05928 
Q 515.353342 183.843277 513.822188 183.736742 
Q 512.291035 183.62923 510.751948 183.62923 
Q 507.903844 183.62923 506.36079 184.022139 
Q 504.817737 184.414071 504.817737 185.144178 
Q 504.817737 185.867444 506.305256 186.262308 
Q 507.792776 186.656194 510.529812 186.656194 
Q 511.275555 186.656194 511.914197 186.633714 
Q 512.552838 186.610257 513.060578 186.561388 
L 513.060578 185.675876 
L 510.14504 185.675876 
L 510.14504 184.887126 
L 517.582638 184.887126 
L 517.582638 187.08038 
z
" clip-path="url(#pd8854046af)" style="fill: #ffa600"/>
   </g>
   <g id="patch_78">
    <path d="M 499.883139 173.313899 
L 517.582638 173.313899 
L 517.582638 175.159457 
L 511.214934 175.159457 
L 511.214934 182.776949 
L 506.263191 182.776949 
L 506.263191 175.159457 
L 499.883139 175.159457 
L 499.883139 173.313899 
z
" clip-path="url(#pd8854046af)" style="fill: #ff0000"/>
   </g>
   <g id="patch_79">
    <path d="M 512.143597 161.534098 
L 505.336654 161.534098 
L 504.261874 173.313899 
L 499.883139 173.313899 
L 506.136407 108.649719 
L 511.32937 108.649719 
L 517.582638 173.313899 
L 513.207521 173.313899 
L 512.143597 161.534098 
z
M 506.422291 149.532559 
L 511.047104 149.532559 
L 508.738316 123.811017 
L 506.422291 149.532559 
z
" clip-path="url(#pd8854046af)" style="fill: #008000"/>
   </g>
   <g id="patch_80">
    <path d="M 530.774649 191.780945 
L 523.967706 191.780945 
L 522.892926 192.24 
L 518.51419 192.24 
L 524.767458 189.72006 
L 529.960421 189.72006 
L 536.213689 192.24 
L 531.838573 192.24 
L 530.774649 191.780945 
z
M 525.053343 191.31325 
L 529.678156 191.31325 
L 527.369368 190.310891 
L 525.053343 191.31325 
z
" clip-path="url(#pd8854046af)" style="fill: #008000"/>
   </g>
   <g id="patch_81">
    <path d="M 536.213689 189.492063 
Q 534.428666 189.606062 532.508774 189.663321 
Q 530.588882 189.72006 528.542055 189.72006 
Q 523.916861 189.72006 521.215526 189.380668 
Q 518.51419 189.041275 518.51419 188.460871 
Q 518.51419 187.873701 521.263126 187.536911 
Q 524.016029 187.200121 528.803859 187.200121 
Q 530.648383 187.200121 532.338205 187.245928 
Q 534.031994 187.291216 535.531414 187.380749 
L 535.531414 187.883071 
Q 533.984394 187.768031 532.45324 187.711292 
Q 530.922087 187.654033 529.383 187.654033 
Q 526.534896 187.654033 524.991842 187.86329 
Q 523.448788 188.072027 523.448788 188.460871 
Q 523.448788 188.846072 524.936308 189.056371 
Q 526.423828 189.266149 529.160864 189.266149 
Q 529.906607 189.266149 530.545248 189.254176 
Q 531.18389 189.241683 531.69163 189.215656 
L 531.69163 188.744046 
L 528.776092 188.744046 
L 528.776092 188.323969 
L 536.213689 188.323969 
L 536.213689 189.492063 
z
" clip-path="url(#pd8854046af)" style="fill: #ffa600"/>
   </g>
   <g id="patch_82">
    <path d="M 536.213689 186.658238 
Q 534.733157 186.926837 533.13222 187.062698 
Q 531.531282 187.200121 529.787643 187.200121 
Q 524.587941 187.200121 521.551066 186.181942 
Q 518.51419 185.163764 518.51419 183.422554 
Q 518.51419 181.675097 521.551066 180.658481 
Q 524.587941 179.640302 529.787643 179.640302 
Q 531.531282 179.640302 533.13222 179.777725 
Q 534.733157 179.913586 536.213689 180.182185 
L 536.213689 181.689152 
Q 534.719779 181.333102 533.270462 181.16757 
Q 531.821146 181.002038 530.220208 181.002038 
Q 527.348332 181.002038 525.7028 181.646988 
Q 524.061728 182.290377 524.061728 183.422554 
Q 524.061728 184.550046 525.7028 185.194996 
Q 527.348332 185.838385 530.220208 185.838385 
Q 531.821146 185.838385 533.270462 185.672853 
Q 534.719779 185.50576 536.213689 185.149709 
L 536.213689 186.658238 
z
" clip-path="url(#pd8854046af)" style="fill: #0000ff"/>
   </g>
   <g id="patch_83">
    <path d="M 518.51419 58.683203 
L 536.213689 58.683203 
L 536.213689 82.273207 
L 529.845986 82.273207 
L 529.845986 179.640302 
L 524.894242 179.640302 
L 524.894242 82.273207 
L 518.51419 82.273207 
L 518.51419 58.683203 
z
" clip-path="url(#pd8854046af)" style="fill: #ff0000"/>
   </g>
   <g id="patch_84">
    <path d="M 554.844741 192.080373 
Q 553.364209 192.159496 551.763271 192.199518 
Q 550.162334 192.24 548.418695 192.24 
Q 543.218993 192.24 540.182118 191.940066 
Q 537.145242 191.640133 537.145242 191.127209 
Q 537.145242 190.612446 540.182118 190.312972 
Q 543.218993 190.013038 548.418695 190.013038 
Q 550.162334 190.013038 551.763271 190.05352 
Q 553.364209 190.093542 554.844741 190.172666 
L 554.844741 190.616586 
Q 553.35083 190.511701 551.901514 190.462939 
Q 550.452197 190.414177 548.85126 190.414177 
Q 545.979384 190.414177 544.333852 190.604165 
Q 542.69278 190.793694 542.69278 191.127209 
Q 542.69278 191.459344 544.333852 191.649333 
Q 545.979384 191.838862 548.85126 191.838862 
Q 550.452197 191.838862 551.901514 191.790099 
Q 553.35083 191.740877 554.844741 191.635992 
L 554.844741 192.080373 
z
" clip-path="url(#pd8854046af)" style="fill: #0000ff"/>
   </g>
   <g id="patch_85">
    <path d="M 537.145242 185.559115 
L 554.844741 185.559115 
L 554.844741 186.427754 
L 548.477038 186.427754 
L 548.477038 190.013038 
L 543.525294 190.013038 
L 543.525294 186.427754 
L 537.145242 186.427754 
L 537.145242 185.559115 
z
" clip-path="url(#pd8854046af)" style="fill: #ff0000"/>
   </g>
   <g id="patch_86">
    <path d="M 549.405701 183.936382 
L 542.598758 183.936382 
L 541.523977 185.559115 
L 537.145242 185.559115 
L 543.39851 176.651268 
L 548.591473 176.651268 
L 554.844741 185.559115 
L 550.469625 185.559115 
L 549.405701 183.936382 
z
M 543.684395 182.283104 
L 548.309208 182.283104 
L 546.00042 178.73982 
L 543.684395 182.283104 
z
" clip-path="url(#pd8854046af)" style="fill: #008000"/>
   </g>
   <g id="patch_87">
    <path d="M 554.844741 167.382764 
Q 553.059718 172.017016 551.139826 174.344723 
Q 549.219934 176.651268 547.173107 176.651268 
Q 542.547913 176.651268 539.846578 162.854318 
Q 537.145242 149.057367 537.145242 125.46289 
Q 537.145242 101.593319 539.894178 87.902174 
Q 542.647081 74.211028 547.434911 74.211028 
Q 549.279435 74.211028 550.969257 76.073193 
Q 552.663046 77.914197 554.162466 81.553884 
L 554.162466 101.974217 
Q 552.615445 97.297643 551.084292 94.991098 
Q 549.553138 92.663391 548.014052 92.663391 
Q 545.165947 92.663391 543.622894 101.1701 
Q 542.07984 109.655647 542.07984 125.46289 
Q 542.07984 141.122005 543.56736 149.671035 
Q 545.054879 158.198905 547.791915 158.198905 
Q 548.537658 158.198905 549.1763 157.712203 
Q 549.814942 157.20434 550.322682 156.146291 
L 550.322682 136.974455 
L 547.407144 136.974455 
L 547.407144 119.897555 
L 554.844741 119.897555 
L 554.844741 167.382764 
z
" clip-path="url(#pd8854046af)" style="fill: #ffa600"/>
   </g>
   <g id="patch_88">
    <path d="M 573.475793 191.980224 
Q 571.99526 192.108989 570.394323 192.17412 
Q 568.793386 192.24 567.049747 192.24 
Q 561.850045 192.24 558.813169 191.75189 
Q 555.776294 191.26378 555.776294 190.429052 
Q 555.776294 189.591329 558.813169 189.103968 
Q 561.850045 188.615858 567.049747 188.615858 
Q 568.793386 188.615858 570.394323 188.681738 
Q 571.99526 188.746869 573.475793 188.875634 
L 573.475793 189.598067 
Q 571.981882 189.427378 570.532566 189.348023 
Q 569.083249 189.268668 567.482312 189.268668 
Q 564.610435 189.268668 562.964904 189.577854 
Q 561.323831 189.886292 561.323831 190.429052 
Q 561.323831 190.969566 562.964904 191.278753 
Q 564.610435 191.58719 567.482312 191.58719 
Q 569.083249 191.58719 570.532566 191.507835 
Q 571.981882 191.427731 573.475793 191.257042 
L 573.475793 191.980224 
z
" clip-path="url(#pd8854046af)" style="fill: #0000ff"/>
   </g>
   <g id="patch_89">
    <path d="M 555.776294 183.179645 
L 573.475793 183.179645 
L 573.475793 184.239858 
L 567.108089 184.239858 
L 567.108089 188.615858 
L 562.156346 188.615858 
L 562.156346 184.239858 
L 555.776294 184.239858 
L 555.776294 183.179645 
z
" clip-path="url(#pd8854046af)" style="fill: #ff0000"/>
   </g>
   <g id="patch_90">
    <path d="M 573.475793 182.359889 
Q 571.69077 182.769767 569.770878 182.975642 
Q 567.850986 183.179645 565.804159 183.179645 
Q 561.178965 183.179645 558.477629 181.95937 
Q 555.776294 180.739095 555.776294 178.652274 
Q 555.776294 176.541124 558.52523 175.330207 
Q 561.278133 174.119289 566.065962 174.119289 
Q 567.910487 174.119289 569.600309 174.283989 
Q 571.294098 174.446817 572.793517 174.76873 
L 572.793517 176.574812 
Q 571.246497 176.161191 569.715344 175.957188 
Q 568.18419 175.751314 566.645103 175.751314 
Q 563.796999 175.751314 562.253946 176.503692 
Q 560.710892 177.254199 560.710892 178.652274 
Q 560.710892 180.037249 562.198412 180.793371 
Q 563.685931 181.54762 566.422967 181.54762 
Q 567.16871 181.54762 567.807352 181.504574 
Q 568.445994 181.459656 568.953734 181.366076 
L 568.953734 179.670418 
L 566.038195 179.670418 
L 566.038195 178.160047 
L 573.475793 178.160047 
L 573.475793 182.359889 
z
" clip-path="url(#pd8854046af)" style="fill: #ffa600"/>
   </g>
   <g id="patch_91">
    <path d="M 568.036752 159.924862 
L 561.22981 159.924862 
L 560.155029 174.119289 
L 555.776294 174.119289 
L 562.029562 96.200234 
L 567.222525 96.200234 
L 573.475793 174.119289 
L 569.100677 174.119289 
L 568.036752 159.924862 
z
M 562.315446 145.463246 
L 566.940259 145.463246 
L 564.631472 114.469297 
L 562.315446 145.463246 
z
" clip-path="url(#pd8854046af)" style="fill: #008000"/>
   </g>
   <g id="patch_92">
    <path d="M 586.667804 191.71165 
L 579.860861 191.71165 
L 578.786081 192.24 
L 574.407346 192.24 
L 580.660614 189.339668 
L 585.853577 189.339668 
L 592.106845 192.24 
L 587.731728 192.24 
L 586.667804 191.71165 
z
M 580.946498 191.173354 
L 585.571311 191.173354 
L 583.262523 190.019686 
L 580.946498 191.173354 
z
" clip-path="url(#pd8854046af)" style="fill: #008000"/>
   </g>
   <g id="patch_93">
    <path d="M 592.106845 188.81484 
Q 590.321821 189.077254 588.401929 189.20906 
Q 586.482038 189.339668 584.435211 189.339668 
Q 579.810017 189.339668 577.108681 188.558417 
Q 574.407346 187.777167 574.407346 186.441133 
Q 574.407346 185.089521 577.156282 184.314262 
Q 579.909185 183.539003 584.697014 183.539003 
Q 586.541538 183.539003 588.23136 183.644448 
Q 589.925149 183.748694 591.424569 183.954791 
L 591.424569 185.11109 
Q 589.877549 184.846279 588.346395 184.715672 
Q 586.815242 184.583866 585.276155 184.583866 
Q 582.428051 184.583866 580.884997 185.065557 
Q 579.341944 185.54605 579.341944 186.441133 
Q 579.341944 187.327828 580.829463 187.811916 
Q 582.316983 188.294805 585.054019 188.294805 
Q 585.799762 188.294805 586.438404 188.267246 
Q 587.077045 188.238488 587.584785 188.178576 
L 587.584785 187.092974 
L 584.669247 187.092974 
L 584.669247 186.125996 
L 592.106845 186.125996 
L 592.106845 188.81484 
z
" clip-path="url(#pd8854046af)" style="fill: #ffa600"/>
   </g>
   <g id="patch_94">
    <path d="M 574.407346 38.522386 
L 592.106845 38.522386 
L 592.106845 66.804667 
L 585.739141 66.804667 
L 585.739141 183.539003 
L 580.787398 183.539003 
L 580.787398 66.804667 
L 574.407346 66.804667 
L 574.407346 38.522386 
z
" clip-path="url(#pd8854046af)" style="fill: #ff0000"/>
   </g>
   <g id="patch_95">
    <path d="M 610.737896 191.905564 
Q 609.257364 192.071336 607.656427 192.155186 
Q 606.055489 192.24 604.31185 192.24 
Q 599.112148 192.24 596.075273 191.611607 
Q 593.038397 190.983214 593.038397 189.908584 
Q 593.038397 188.8301 596.075273 188.20267 
Q 599.112148 187.574277 604.31185 187.574277 
Q 606.055489 187.574277 607.656427 187.659091 
Q 609.257364 187.742941 610.737896 187.908713 
L 610.737896 188.838774 
Q 609.243986 188.619029 607.794669 188.516867 
Q 606.345353 188.414705 604.744415 188.414705 
Q 601.872539 188.414705 600.227007 188.812751 
Q 598.585935 189.209834 598.585935 189.908584 
Q 598.585935 190.604443 600.227007 191.00249 
Q 601.872539 191.399572 604.744415 191.399572 
Q 606.345353 191.399572 607.794669 191.29741 
Q 609.243986 191.194284 610.737896 190.97454 
L 610.737896 191.905564 
z
" clip-path="url(#pd8854046af)" style="fill: #0000ff"/>
   </g>
   <g id="patch_96">
    <path d="M 593.038397 181.353313 
L 610.737896 181.353313 
L 610.737896 182.566574 
L 604.370193 182.566574 
L 604.370193 187.574277 
L 599.418449 187.574277 
L 599.418449 182.566574 
L 593.038397 182.566574 
L 593.038397 181.353313 
z
" clip-path="url(#pd8854046af)" style="fill: #ff0000"/>
   </g>
   <g id="patch_97">
    <path d="M 610.737896 180.649744 
Q 608.952873 181.001529 607.032981 181.178224 
Q 605.113089 181.353313 603.066262 181.353313 
Q 598.441068 181.353313 595.739733 180.305991 
Q 593.038397 179.258669 593.038397 177.46762 
Q 593.038397 175.655689 595.787333 174.616399 
Q 598.540236 173.577108 603.328066 173.577108 
Q 605.17259 173.577108 606.862412 173.718465 
Q 608.556201 173.858215 610.055621 174.134502 
L 610.055621 175.684603 
Q 608.508601 175.329606 606.977447 175.154517 
Q 605.446294 174.977821 603.907207 174.977821 
Q 601.059103 174.977821 599.516049 175.623563 
Q 597.972995 176.267698 597.972995 177.46762 
Q 597.972995 178.656299 599.460515 179.305253 
Q 600.948035 179.9526 603.685071 179.9526 
Q 604.430814 179.9526 605.069455 179.915655 
Q 605.708097 179.877103 606.215837 179.796787 
L 606.215837 178.341459 
L 603.300299 178.341459 
L 603.300299 177.045158 
L 610.737896 177.045158 
L 610.737896 180.649744 
z
" clip-path="url(#pd8854046af)" style="fill: #ffa600"/>
   </g>
   <g id="patch_98">
    <path d="M 605.298856 161.961131 
L 598.491913 161.961131 
L 597.417133 173.577108 
L 593.038397 173.577108 
L 599.291665 109.812228 
L 604.484628 109.812228 
L 610.737896 173.577108 
L 606.36278 173.577108 
L 605.298856 161.961131 
z
M 599.57755 150.126501 
L 604.202363 150.126501 
L 601.893575 124.762674 
L 599.57755 150.126501 
z
" clip-path="url(#pd8854046af)" style="fill: #008000"/>
   </g>
   <g id="patch_99">
    <path d="M 629.368948 191.554687 
Q 627.583925 191.897344 625.664033 192.069454 
Q 623.744141 192.24 621.697314 192.24 
Q 617.07212 192.24 614.370785 191.219854 
Q 611.669449 190.199708 611.669449 188.455134 
Q 611.669449 186.690219 614.418385 185.677897 
Q 617.171288 184.665574 621.959118 184.665574 
Q 623.803642 184.665574 625.493464 184.803262 
Q 627.187253 184.939386 628.686673 185.208504 
L 628.686673 186.718383 
Q 627.139652 186.372597 625.608499 186.202051 
Q 624.077345 186.029941 622.538259 186.029941 
Q 619.690154 186.029941 618.147101 186.658926 
Q 616.604047 187.286347 616.604047 188.455134 
Q 616.604047 189.612968 618.091567 190.245083 
Q 619.579086 190.875633 622.316122 190.875633 
Q 623.061865 190.875633 623.700507 190.839647 
Q 624.339149 190.802095 624.846889 190.723863 
L 624.846889 189.306299 
L 621.931351 189.306299 
L 621.931351 188.043633 
L 629.368948 188.043633 
L 629.368948 191.554687 
z
" clip-path="url(#pd8854046af)" style="fill: #ffa600"/>
   </g>
   <g id="patch_100">
    <path d="M 611.669449 171.410329 
L 629.368948 171.410329 
L 629.368948 173.995471 
L 623.001245 173.995471 
L 623.001245 184.665574 
L 618.049501 184.665574 
L 618.049501 173.995471 
L 611.669449 173.995471 
L 611.669449 171.410329 
z
" clip-path="url(#pd8854046af)" style="fill: #ff0000"/>
   </g>
   <g id="patch_101">
    <path d="M 623.929908 156.922169 
L 617.122965 156.922169 
L 616.048184 171.410329 
L 611.669449 171.410329 
L 617.922717 91.878856 
L 623.11568 91.878856 
L 629.368948 171.410329 
L 624.993832 171.410329 
L 623.929908 156.922169 
z
M 618.208602 142.161292 
L 622.833415 142.161292 
L 620.524627 110.52597 
L 618.208602 142.161292 
z
" clip-path="url(#pd8854046af)" style="fill: #008000"/>
   </g>
   <g id="patch_102">
    <path d="M 642.560959 191.922081 
L 635.754017 191.922081 
L 634.679236 192.24 
L 630.300501 192.24 
L 636.553769 190.494811 
L 641.746732 190.494811 
L 648 192.24 
L 643.624884 192.24 
L 642.560959 191.922081 
z
M 636.839653 191.598177 
L 641.464466 191.598177 
L 639.155679 190.903991 
L 636.839653 191.598177 
z
" clip-path="url(#pd8854046af)" style="fill: #008000"/>
   </g>
   <g id="patch_103">
    <path d="M 648 189.86934 
Q 646.519467 190.179372 644.91853 190.33619 
Q 643.317593 190.494811 641.573954 190.494811 
Q 636.374252 190.494811 633.337376 189.319575 
Q 630.300501 188.144339 630.300501 186.134541 
Q 630.300501 184.117534 633.337376 182.9441 
Q 636.374252 181.768864 641.573954 181.768864 
Q 643.317593 181.768864 644.91853 181.927485 
Q 646.519467 182.084303 648 182.394335 
L 648 184.133756 
Q 646.506089 183.722784 645.056773 183.531718 
Q 643.607456 183.340652 642.006519 183.340652 
Q 639.134642 183.340652 637.489111 184.085088 
Q 635.848038 184.827722 635.848038 186.134541 
Q 635.848038 187.435953 637.489111 188.180389 
Q 639.134642 188.923023 642.006519 188.923023 
Q 643.607456 188.923023 645.056773 188.731957 
Q 646.506089 188.539088 648 188.128116 
L 648 189.86934 
z
" clip-path="url(#pd8854046af)" style="fill: #0000ff"/>
   </g>
   <g id="patch_104">
    <path d="M 648 180.979365 
Q 646.214977 181.374115 644.295085 181.572391 
Q 642.375193 181.768864 640.328366 181.768864 
Q 635.703172 181.768864 633.001836 180.593628 
Q 630.300501 179.418392 630.300501 177.408595 
Q 630.300501 175.375365 633.049437 174.209141 
Q 635.80234 173.042918 640.590169 173.042918 
Q 642.434694 173.042918 644.124516 173.201539 
Q 645.818305 173.358357 647.317724 173.668389 
L 647.317724 175.40781 
Q 645.770704 175.009455 644.239551 174.812982 
Q 642.708397 174.614706 641.16931 174.614706 
Q 638.321206 174.614706 636.778153 175.339314 
Q 635.235099 176.062121 635.235099 177.408595 
Q 635.235099 178.742452 636.722619 179.470665 
Q 638.210138 180.197076 640.947174 180.197076 
Q 641.692917 180.197076 642.331559 180.155619 
Q 642.970201 180.112358 643.477941 180.022233 
L 643.477941 178.38916 
L 640.562402 178.38916 
L 640.562402 176.934535 
L 648 176.934535 
L 648 180.979365 
z
" clip-path="url(#pd8854046af)" style="fill: #ffa600"/>
   </g>
   <g id="patch_105">
    <path d="M 630.300501 99.744968 
L 648 99.744968 
L 648 114.040111 
L 641.632296 114.040111 
L 641.632296 173.042918 
L 636.680553 173.042918 
L 636.680553 114.040111 
L 630.300501 114.040111 
L 630.300501 99.744968 
z
" clip-path="url(#pd8854046af)" style="fill: #ff0000"/>
   </g>
   <g id="matplotlib.axis_1">
    <g id="xtick_1">
     <g id="line2d_2">
      <defs>
       <path id="m329181735b" d="M 0 0 
L 0 3.5 
" style="stroke: #000000; stroke-width: 0.8"/>
      </defs>
      <g>
       <use xlink:href="#m329181735b" x="98.84975" y="192.24" style="stroke: #000000; stroke-width: 0.8"/>
      </g>
     </g>
     <g id="text_1">
      <!-- 0 -->
      <g transform="translate(95.6685 206.838437) scale(0.1 -0.1)">
       <defs>
        <path id="DejaVuSans-30" d="M 2034 4250 
Q 1547 4250 1301 3770 
Q 1056 3291 1056 2328 
Q 1056 1369 1301 889 
Q 1547 409 2034 409 
Q 2525 409 2770 889 
Q 3016 1369 3016 2328 
Q 3016 3291 2770 3770 
Q 2525 4250 2034 4250 
z
M 2034 4750 
Q 2819 4750 3233 4129 
Q 3647 3509 3647 2328 
Q 3647 1150 3233 529 
Q 2819 -91 2034 -91 
Q 1250 -91 836 529 
Q 422 1150 422 2328 
Q 422 3509 836 4129 
Q 1250 4750 2034 4750 
z
" transform="scale(0.015625)"/>
       </defs>
       <use xlink:href="#DejaVuSans-30"/>
      </g>
     </g>
    </g>
    <g id="xtick_2">
     <g id="line2d_3">
      <g>
       <use xlink:href="#m329181735b" x="192.005008" y="192.24" style="stroke: #000000; stroke-width: 0.8"/>
      </g>
     </g>
     <g id="text_2">
      <!-- 5 -->
      <g transform="translate(188.823758 206.838437) scale(0.1 -0.1)">
       <defs>
        <path id="DejaVuSans-35" d="M 691 4666 
L 3169 4666 
L 3169 4134 
L 1269 4134 
L 1269 2991 
Q 1406 3038 1543 3061 
Q 1681 3084 1819 3084 
Q 2600 3084 3056 2656 
Q 3513 2228 3513 1497 
Q 3513 744 3044 326 
Q 2575 -91 1722 -91 
Q 1428 -91 1123 -41 
Q 819 9 494 109 
L 494 744 
Q 775 591 1075 516 
Q 1375 441 1709 441 
Q 2250 441 2565 725 
Q 2881 1009 2881 1497 
Q 2881 1984 2565 2268 
Q 2250 2553 1709 2553 
Q 1456 2553 1204 2497 
Q 953 2441 691 2322 
L 691 4666 
z
" transform="scale(0.015625)"/>
       </defs>
       <use xlink:href="#DejaVuSans-35"/>
      </g>
     </g>
    </g>
    <g id="xtick_3">
     <g id="line2d_4">
      <g>
       <use xlink:href="#m329181735b" x="285.160267" y="192.24" style="stroke: #000000; stroke-width: 0.8"/>
      </g>
     </g>
     <g id="text_3">
      <!-- 10 -->
      <g transform="translate(278.797767 206.838437) scale(0.1 -0.1)">
       <defs>
        <path id="DejaVuSans-31" d="M 794 531 
L 1825 531 
L 1825 4091 
L 703 3866 
L 703 4441 
L 1819 4666 
L 2450 4666 
L 2450 531 
L 3481 531 
L 3481 0 
L 794 0 
L 794 531 
z
" transform="scale(0.015625)"/>
       </defs>
       <use xlink:href="#DejaVuSans-31"/>
       <use xlink:href="#DejaVuSans-30" x="63.623047"/>
      </g>
     </g>
    </g>
    <g id="xtick_4">
     <g id="line2d_5">
      <g>
       <use xlink:href="#m329181735b" x="378.315526" y="192.24" style="stroke: #000000; stroke-width: 0.8"/>
      </g>
     </g>
     <g id="text_4">
      <!-- 15 -->
      <g transform="translate(371.953026 206.838437) scale(0.1 -0.1)">
       <use xlink:href="#DejaVuSans-31"/>
       <use xlink:href="#DejaVuSans-35" x="63.623047"/>
      </g>
     </g>
    </g>
    <g id="xtick_5">
     <g id="line2d_6">
      <g>
       <use xlink:href="#m329181735b" x="471.470785" y="192.24" style="stroke: #000000; stroke-width: 0.8"/>
      </g>
     </g>
     <g id="text_5">
      <!-- 20 -->
      <g transform="translate(465.108285 206.838437) scale(0.1 -0.1)">
       <defs>
        <path id="DejaVuSans-32" d="M 1228 531 
L 3431 531 
L 3431 0 
L 469 0 
L 469 531 
Q 828 903 1448 1529 
Q 2069 2156 2228 2338 
Q 2531 2678 2651 2914 
Q 2772 3150 2772 3378 
Q 2772 3750 2511 3984 
Q 2250 4219 1831 4219 
Q 1534 4219 1204 4116 
Q 875 4013 500 3803 
L 500 4441 
Q 881 4594 1212 4672 
Q 1544 4750 1819 4750 
Q 2544 4750 2975 4387 
Q 3406 4025 3406 3419 
Q 3406 3131 3298 2873 
Q 3191 2616 2906 2266 
Q 2828 2175 2409 1742 
Q 1991 1309 1228 531 
z
" transform="scale(0.015625)"/>
       </defs>
       <use xlink:href="#DejaVuSans-32"/>
       <use xlink:href="#DejaVuSans-30" x="63.623047"/>
      </g>
     </g>
    </g>
    <g id="xtick_6">
     <g id="line2d_7">
      <g>
       <use xlink:href="#m329181735b" x="564.626043" y="192.24" style="stroke: #000000; stroke-width: 0.8"/>
      </g>
     </g>
     <g id="text_6">
      <!-- 25 -->
      <g transform="translate(558.263543 206.838437) scale(0.1 -0.1)">
       <use xlink:href="#DejaVuSans-32"/>
       <use xlink:href="#DejaVuSans-35" x="63.623047"/>
      </g>
     </g>
    </g>
   </g>
   <g id="matplotlib.axis_2">
    <g id="ytick_1">
     <g id="line2d_8">
      <defs>
       <path id="m0527edd7f3" d="M 0 0 
L -3.5 0 
" style="stroke: #000000; stroke-width: 0.8"/>
      </defs>
      <g>
       <use xlink:href="#m0527edd7f3" x="90" y="192.24" style="stroke: #000000; stroke-width: 0.8"/>
      </g>
     </g>
     <g id="text_7">
      <!-- 0.00 -->
      <g transform="translate(60.734375 196.039219) scale(0.1 -0.1)">
       <defs>
        <path id="DejaVuSans-2e" d="M 684 794 
L 1344 794 
L 1344 0 
L 684 0 
L 684 794 
z
" transform="scale(0.015625)"/>
       </defs>
       <use xlink:href="#DejaVuSans-30"/>
       <use xlink:href="#DejaVuSans-2e" x="63.623047"/>
       <use xlink:href="#DejaVuSans-30" x="95.410156"/>
       <use xlink:href="#DejaVuSans-30" x="159.033203"/>
      </g>
     </g>
    </g>
    <g id="ytick_2">
     <g id="line2d_9">
      <g>
       <use xlink:href="#m0527edd7f3" x="90" y="168.724387" style="stroke: #000000; stroke-width: 0.8"/>
      </g>
     </g>
     <g id="text_8">
      <!-- 0.25 -->
      <g transform="translate(60.734375 172.523606) scale(0.1 -0.1)">
       <use xlink:href="#DejaVuSans-30"/>
       <use xlink:href="#DejaVuSans-2e" x="63.623047"/>
       <use xlink:href="#DejaVuSans-32" x="95.410156"/>
       <use xlink:href="#DejaVuSans-35" x="159.033203"/>
      </g>
     </g>
    </g>
    <g id="ytick_3">
     <g id="line2d_10">
      <g>
       <use xlink:href="#m0527edd7f3" x="90" y="145.208774" style="stroke: #000000; stroke-width: 0.8"/>
      </g>
     </g>
     <g id="text_9">
      <!-- 0.50 -->
      <g transform="translate(60.734375 149.007993) scale(0.1 -0.1)">
       <use xlink:href="#DejaVuSans-30"/>
       <use xlink:href="#DejaVuSans-2e" x="63.623047"/>
       <use xlink:href="#DejaVuSans-35" x="95.410156"/>
       <use xlink:href="#DejaVuSans-30" x="159.033203"/>
      </g>
     </g>
    </g>
    <g id="ytick_4">
     <g id="line2d_11">
      <g>
       <use xlink:href="#m0527edd7f3" x="90" y="121.693161" style="stroke: #000000; stroke-width: 0.8"/>
      </g>
     </g>
     <g id="text_10">
      <!-- 0.75 -->
      <g transform="translate(60.734375 125.49238) scale(0.1 -0.1)">
       <defs>
        <path id="DejaVuSans-37" d="M 525 4666 
L 3525 4666 
L 3525 4397 
L 1831 0 
L 1172 0 
L 2766 4134 
L 525 4134 
L 525 4666 
z
" transform="scale(0.015625)"/>
       </defs>
       <use xlink:href="#DejaVuSans-30"/>
       <use xlink:href="#DejaVuSans-2e" x="63.623047"/>
       <use xlink:href="#DejaVuSans-37" x="95.410156"/>
       <use xlink:href="#DejaVuSans-35" x="159.033203"/>
      </g>
     </g>
    </g>
    <g id="ytick_5">
     <g id="line2d_12">
      <g>
       <use xlink:href="#m0527edd7f3" x="90" y="98.177548" style="stroke: #000000; stroke-width: 0.8"/>
      </g>
     </g>
     <g id="text_11">
      <!-- 1.00 -->
      <g transform="translate(60.734375 101.976767) scale(0.1 -0.1)">
       <use xlink:href="#DejaVuSans-31"/>
       <use xlink:href="#DejaVuSans-2e" x="63.623047"/>
       <use xlink:href="#DejaVuSans-30" x="95.410156"/>
       <use xlink:href="#DejaVuSans-30" x="159.033203"/>
      </g>
     </g>
    </g>
    <g id="ytick_6">
     <g id="line2d_13">
      <g>
       <use xlink:href="#m0527edd7f3" x="90" y="74.661935" style="stroke: #000000; stroke-width: 0.8"/>
      </g>
     </g>
     <g id="text_12">
      <!-- 1.25 -->
      <g transform="translate(60.734375 78.461154) scale(0.1 -0.1)">
       <use xlink:href="#DejaVuSans-31"/>
       <use xlink:href="#DejaVuSans-2e" x="63.623047"/>
       <use xlink:href="#DejaVuSans-32" x="95.410156"/>
       <use xlink:href="#DejaVuSans-35" x="159.033203"/>
      </g>
     </g>
    </g>
    <g id="ytick_7">
     <g id="line2d_14">
      <g>
       <use xlink:href="#m0527edd7f3" x="90" y="51.146322" style="stroke: #000000; stroke-width: 0.8"/>
      </g>
     </g>
     <g id="text_13">
      <!-- 1.50 -->
      <g transform="translate(60.734375 54.945541) scale(0.1 -0.1)">
       <use xlink:href="#DejaVuSans-31"/>
       <use xlink:href="#DejaVuSans-2e" x="63.623047"/>
       <use xlink:href="#DejaVuSans-35" x="95.410156"/>
       <use xlink:href="#DejaVuSans-30" x="159.033203"/>
      </g>
     </g>
    </g>
    <g id="ytick_8">
     <g id="line2d_15">
      <g>
       <use xlink:href="#m0527edd7f3" x="90" y="27.630709" style="stroke: #000000; stroke-width: 0.8"/>
      </g>
     </g>
     <g id="text_14">
      <!-- 1.75 -->
      <g transform="translate(60.734375 31.429928) scale(0.1 -0.1)">
       <use xlink:href="#DejaVuSans-31"/>
       <use xlink:href="#DejaVuSans-2e" x="63.623047"/>
       <use xlink:href="#DejaVuSans-37" x="95.410156"/>
       <use xlink:href="#DejaVuSans-35" x="159.033203"/>
      </g>
     </g>
    </g>
   </g>
  </g>
 </g>
 <defs>
  <clipPath id="pd8854046af">
   <rect x="90" y="25.92" width="558" height="166.32"/>
  </clipPath>
 </defs>
</svg>
