<?xml version="1.0" encoding="utf-8" standalone="no"?>
<!DOCTYPE svg PUBLIC "-//W3C//DTD SVG 1.1//EN"
  "http://www.w3.org/Graphics/SVG/1.1/DTD/svg11.dtd">
<svg xmlns:xlink="http://www.w3.org/1999/xlink" width="720pt" height="216pt" viewBox="0 0 720 216" xmlns="http://www.w3.org/2000/svg" version="1.1">
 <metadata>
  <rdf:RDF xmlns:dc="http://purl.org/dc/elements/1.1/" xmlns:cc="http://creativecommons.org/ns#" xmlns:rdf="http://www.w3.org/1999/02/22-rdf-syntax-ns#">
   <cc:Work>
    <dc:type rdf:resource="http://purl.org/dc/dcmitype/StillImage"/>
    <dc:date>2025-12-17T10:22:24.537179</dc:date>
    <dc:format>image/svg+xml</dc:format>
    <dc:creator>
     <cc:Agent>
      <dc:title>Matplotlib v3.8.2, https://matplotlib.org/</dc:title>
     </cc:Agent>
    </dc:creator>
   </cc:Work>
  </rdf:RDF>
 </metadata>
 <defs>
  <style type="text/css">*{stroke-linejoin: round; stroke-linecap: butt}</style>
 </defs>
 <g id="figure_1">
  <g id="patch_1">
   <path d="M 0 216 
L 720 216 
L 720 0 
L 0 0 
z
" style="fill: #ffffff"/>
  </g>
  <g id="axes_1">
   <g id="patch_2">
    <path d="M 90 192.24 
L 648 192.24 
L 648 25.92 
L 90 25.92 
z
" style="fill: #ffffff"/>
   </g>
   <g id="line2d_1">
    <path d="M 90 192.24 
L 648 192.24 
" clip-path="url(#p35f5402bf0)" style="fill: none; stroke: #000000; stroke-width: 0.5; stroke-linecap: square"/>
   </g>
   <g id="patch_3">
    <path d="M 107.699499 192.05627 
Q 106.218967 192.147341 104.618029 192.193406 
Q 103.017092 192.24 101.273453 192.24 
Q 96.073751 192.24 93.036876 191.894778 
Q 90 191.549557 90 190.959185 
Q 90 190.366696 93.036876 190.022004 
Q 96.073751 189.676782 101.273453 189.676782 
Q 103.017092 189.676782 104.618029 189.723377 
Q 106.218967 189.769442 107.699499 189.860512 
L 107.699499 190.371462 
Q 106.205588 190.25074 104.756272 190.194615 
Q 103.306955 190.13849 101.706018 190.13849 
Q 98.834142 190.13849 97.18861 190.357166 
Q 95.547538 190.575312 95.547538 190.959185 
Q 95.547538 191.341471 97.18861 191.560146 
Q 98.834142 191.778293 101.706018 191.778293 
Q 103.306955 191.778293 104.756272 191.722168 
Q 106.205588 191.665513 107.699499 191.544791 
L 107.699499 192.05627 
z
" clip-path="url(#p35f5402bf0)" style="fill: #0000ff"/>
   </g>
   <g id="patch_4">
    <path d="M 107.699499 189.108764 
Q 105.914476 189.392773 103.994584 189.535426 
Q 102.074692 189.676782 100.027865 189.676782 
Q 95.402671 189.676782 92.701335 188.83124 
Q 90 187.985697 90 186.539715 
Q 90 185.076874 92.748936 184.237816 
Q 95.501839 183.398757 100.289668 183.398757 
Q 102.134193 183.398757 103.824015 183.512879 
Q 105.517804 183.625705 107.017224 183.848762 
L 107.017224 185.100217 
Q 105.470203 184.813615 103.93905 184.672259 
Q 102.407896 184.529606 100.868809 184.529606 
Q 98.020705 184.529606 96.477652 185.050937 
Q 94.934598 185.570972 94.934598 186.539715 
Q 94.934598 187.49938 96.422118 188.023305 
Q 97.909637 188.545934 100.646673 188.545934 
Q 101.392416 188.545934 102.031058 188.516106 
Q 102.6697 188.484982 103.17744 188.42014 
L 103.17744 187.245199 
L 100.261901 187.245199 
L 100.261901 186.198645 
L 107.699499 186.198645 
L 107.699499 189.108764 
z
" clip-path="url(#p35f5402bf0)" style="fill: #ffa600"/>
   </g>
   <g id="patch_5">
    <path d="M 90 170.434077 
L 107.699499 170.434077 
L 107.699499 172.962551 
L 101.331796 172.962551 
L 101.331796 183.398757 
L 96.380052 183.398757 
L 96.380052 172.962551 
L 90 172.962551 
L 90 170.434077 
z
" clip-path="url(#p35f5402bf0)" style="fill: #ff0000"/>
   </g>
   <g id="patch_6">
    <path d="M 102.260459 164.228533 
L 95.453516 164.228533 
L 94.378735 170.434077 
L 90 170.434077 
L 96.253268 136.369288 
L 101.446231 136.369288 
L 107.699499 170.434077 
L 103.324383 170.434077 
L 102.260459 164.228533 
z
M 96.539153 157.906178 
L 101.163965 157.906178 
L 98.855178 144.356189 
L 96.539153 157.906178 
z
" clip-path="url(#p35f5402bf0)" style="fill: #008000"/>
   </g>
   <g id="patch_7">
    <path d="M 126.330551 192.109948 
Q 124.850018 192.174412 123.249081 192.207018 
Q 121.648144 192.24 119.904504 192.24 
Q 114.704803 192.24 111.667927 191.995636 
Q 108.631052 191.751273 108.631052 191.333381 
Q 108.631052 190.913991 111.667927 190.670002 
Q 114.704803 190.425638 119.904504 190.425638 
Q 121.648144 190.425638 123.249081 190.45862 
Q 124.850018 190.491227 126.330551 190.555691 
L 126.330551 190.917364 
Q 124.83664 190.831911 123.387324 190.792184 
Q 121.938007 190.752456 120.33707 190.752456 
Q 117.465193 190.752456 115.819662 190.907244 
Q 114.178589 191.061658 114.178589 191.333381 
Q 114.178589 191.60398 115.819662 191.758769 
Q 117.465193 191.913183 120.33707 191.913183 
Q 121.938007 191.913183 123.387324 191.873455 
Q 124.83664 191.833352 126.330551 191.7479 
L 126.330551 192.109948 
z
" clip-path="url(#p35f5402bf0)" style="fill: #0000ff"/>
   </g>
   <g id="patch_8">
    <path d="M 126.330551 189.701727 
Q 124.545527 190.063683 122.625636 190.245487 
Q 120.705744 190.425638 118.658917 190.425638 
Q 114.033723 190.425638 111.332387 189.348035 
Q 108.631052 188.270432 108.631052 186.427599 
Q 108.631052 184.56328 111.379988 183.49394 
Q 114.132891 182.424601 118.92072 182.424601 
Q 120.765244 182.424601 122.455067 182.570045 
Q 124.148856 182.713835 125.648275 182.998111 
L 125.648275 184.593029 
Q 124.101255 184.227768 122.570102 184.047617 
Q 121.038948 183.865813 119.499861 183.865813 
Q 116.651757 183.865813 115.108704 184.530224 
Q 113.56565 185.192983 113.56565 186.427599 
Q 113.56565 187.650645 115.053169 188.318363 
Q 116.540689 188.984427 119.277725 188.984427 
Q 120.023468 188.984427 120.66211 188.946413 
Q 121.300752 188.906747 121.808492 188.824109 
L 121.808492 187.326703 
L 118.892953 187.326703 
L 118.892953 185.992922 
L 126.330551 185.992922 
L 126.330551 189.701727 
z
" clip-path="url(#p35f5402bf0)" style="fill: #ffa600"/>
   </g>
   <g id="patch_9">
    <path d="M 120.89151 180.598613 
L 114.084567 180.598613 
L 113.009787 182.424601 
L 108.631052 182.424601 
L 114.88432 172.400997 
L 120.077283 172.400997 
L 126.330551 182.424601 
L 121.955434 182.424601 
L 120.89151 180.598613 
z
M 115.170204 178.738252 
L 119.795017 178.738252 
L 117.48623 174.751152 
L 115.170204 178.738252 
z
" clip-path="url(#p35f5402bf0)" style="fill: #008000"/>
   </g>
   <g id="patch_10">
    <path d="M 108.631052 147.505577 
L 126.330551 147.505577 
L 126.330551 152.360877 
L 119.962847 152.360877 
L 119.962847 172.400997 
L 115.011104 172.400997 
L 115.011104 152.360877 
L 108.631052 152.360877 
L 108.631052 147.505577 
z
" clip-path="url(#p35f5402bf0)" style="fill: #ff0000"/>
   </g>
   <g id="patch_11">
    <path d="M 144.961603 191.884456 
Q 143.48107 192.060691 141.880133 192.149833 
Q 140.279195 192.24 138.535556 192.24 
Q 133.335855 192.24 130.298979 191.571946 
Q 127.262104 190.903892 127.262104 189.761438 
Q 127.262104 188.614885 130.298979 187.947856 
Q 133.335855 187.279802 138.535556 187.279802 
Q 140.279195 187.279802 141.880133 187.369969 
Q 143.48107 187.459111 144.961603 187.635346 
L 144.961603 188.624107 
Q 143.467692 188.390493 142.018375 188.281883 
Q 140.569059 188.173273 138.968121 188.173273 
Q 136.096245 188.173273 134.450713 188.596442 
Q 132.809641 189.018587 132.809641 189.761438 
Q 132.809641 190.501215 134.450713 190.924385 
Q 136.096245 191.346529 138.968121 191.346529 
Q 140.569059 191.346529 142.018375 191.237919 
Q 143.467692 191.128284 144.961603 190.894671 
L 144.961603 191.884456 
z
" clip-path="url(#p35f5402bf0)" style="fill: #0000ff"/>
   </g>
   <g id="patch_12">
    <path d="M 144.961603 186.809773 
Q 143.176579 187.044788 141.256687 187.162831 
Q 139.336795 187.279802 137.289969 187.279802 
Q 132.664774 187.279802 129.963439 186.580124 
Q 127.262104 185.880446 127.262104 184.683912 
Q 127.262104 183.473426 130.01104 182.779114 
Q 132.763942 182.084802 137.551772 182.084802 
Q 139.396296 182.084802 141.086118 182.179237 
Q 142.779907 182.272599 144.279327 182.457176 
L 144.279327 183.492742 
Q 142.732307 183.255582 141.201153 183.138611 
Q 139.67 183.020567 138.130913 183.020567 
Q 135.282809 183.020567 133.739755 183.451964 
Q 132.196702 183.882287 132.196702 184.683912 
Q 132.196702 185.478024 133.684221 185.911567 
Q 135.171741 186.344037 137.908777 186.344037 
Q 138.65452 186.344037 139.293162 186.319355 
Q 139.931803 186.2936 140.439543 186.239943 
L 140.439543 185.267692 
L 137.524005 185.267692 
L 137.524005 184.40168 
L 144.961603 184.40168 
L 144.961603 186.809773 
z
" clip-path="url(#p35f5402bf0)" style="fill: #ffa600"/>
   </g>
   <g id="patch_13">
    <path d="M 139.522562 180.732085 
L 132.715619 180.732085 
L 131.640839 182.084802 
L 127.262104 182.084802 
L 133.515372 174.65918 
L 138.708335 174.65918 
L 144.961603 182.084802 
L 140.586486 182.084802 
L 139.522562 180.732085 
z
M 133.801256 179.353904 
L 138.426069 179.353904 
L 136.117281 176.400207 
L 133.801256 179.353904 
z
" clip-path="url(#p35f5402bf0)" style="fill: #008000"/>
   </g>
   <g id="patch_14">
    <path d="M 127.262104 148.097173 
L 144.961603 148.097173 
L 144.961603 153.277504 
L 138.593899 153.277504 
L 138.593899 174.65918 
L 133.642156 174.65918 
L 133.642156 153.277504 
L 127.262104 153.277504 
L 127.262104 148.097173 
z
" clip-path="url(#p35f5402bf0)" style="fill: #ff0000"/>
   </g>
   <g id="patch_15">
    <path d="M 163.592654 191.966434 
Q 162.112122 192.102035 160.511185 192.170623 
Q 158.910247 192.24 157.166608 192.24 
Q 151.966906 192.24 148.930031 191.72598 
Q 145.893155 191.21196 145.893155 190.332924 
Q 145.893155 189.450733 148.930031 188.937502 
Q 151.966906 188.423482 157.166608 188.423482 
Q 158.910247 188.423482 160.511185 188.492859 
Q 162.112122 188.561447 163.592654 188.697048 
L 163.592654 189.457829 
Q 162.098744 189.278079 160.649427 189.194512 
Q 159.200111 189.110944 157.599173 189.110944 
Q 154.727297 189.110944 153.081765 189.436542 
Q 151.440693 189.761352 151.440693 190.332924 
Q 151.440693 190.902129 153.081765 191.227728 
Q 154.727297 191.552538 157.599173 191.552538 
Q 159.200111 191.552538 160.649427 191.46897 
Q 162.098744 191.384614 163.592654 191.204865 
L 163.592654 191.966434 
z
" clip-path="url(#p35f5402bf0)" style="fill: #0000ff"/>
   </g>
   <g id="patch_16">
    <path d="M 158.153614 187.360495 
L 151.346671 187.360495 
L 150.27189 188.423482 
L 145.893155 188.423482 
L 152.146423 182.58831 
L 157.339386 182.58831 
L 163.592654 188.423482 
L 159.217538 188.423482 
L 158.153614 187.360495 
z
M 152.432308 186.277499 
L 157.057121 186.277499 
L 154.748333 183.956436 
L 152.432308 186.277499 
z
" clip-path="url(#p35f5402bf0)" style="fill: #008000"/>
   </g>
   <g id="patch_17">
    <path d="M 163.592654 181.763566 
Q 161.807631 182.175938 159.887739 182.383065 
Q 157.967847 182.58831 155.92102 182.58831 
Q 151.295826 182.58831 148.594491 181.36061 
Q 145.893155 180.132909 145.893155 178.033392 
Q 145.893155 175.909395 148.642091 174.69111 
Q 151.394994 173.472824 156.182824 173.472824 
Q 158.027348 173.472824 159.71717 173.638526 
Q 161.410959 173.802345 162.910379 174.126217 
L 162.910379 175.943289 
Q 161.363358 175.527151 159.832205 175.321907 
Q 158.301052 175.114779 156.761965 175.114779 
Q 153.913861 175.114779 152.370807 175.871735 
Q 150.827753 176.626809 150.827753 178.033392 
Q 150.827753 179.426794 152.315273 180.187516 
Q 153.802792 180.946355 156.539828 180.946355 
Q 157.285572 180.946355 157.924213 180.903046 
Q 158.562855 180.857855 159.070595 180.763706 
L 159.070595 179.05773 
L 156.155057 179.05773 
L 156.155057 177.538169 
L 163.592654 177.538169 
L 163.592654 181.763566 
z
" clip-path="url(#p35f5402bf0)" style="fill: #ffa600"/>
   </g>
   <g id="patch_18">
    <path d="M 145.893155 144.801627 
L 163.592654 144.801627 
L 163.592654 150.393309 
L 157.224951 150.393309 
L 157.224951 173.472824 
L 152.273207 173.472824 
L 152.273207 150.393309 
L 145.893155 150.393309 
L 145.893155 144.801627 
z
" clip-path="url(#p35f5402bf0)" style="fill: #ff0000"/>
   </g>
   <g id="patch_19">
    <path d="M 182.223706 191.948744 
Q 180.438683 192.094372 178.518791 192.167519 
Q 176.598899 192.24 174.552072 192.24 
Q 169.926878 192.24 167.225542 191.806441 
Q 164.524207 191.372883 164.524207 190.631444 
Q 164.524207 189.881361 167.273143 189.451128 
Q 170.026046 189.020894 174.813876 189.020894 
Q 176.6584 189.020894 178.348222 189.079411 
Q 180.042011 189.137263 181.541431 189.251638 
L 181.541431 189.893331 
Q 179.99441 189.746373 178.463257 189.673892 
Q 176.932103 189.600745 175.393016 189.600745 
Q 172.544912 189.600745 171.001859 189.868062 
Q 169.458805 190.134714 169.458805 190.631444 
Q 169.458805 191.12352 170.946325 191.392167 
Q 172.433844 191.660149 175.17088 191.660149 
Q 175.916623 191.660149 176.555265 191.644854 
Q 177.193907 191.628895 177.701647 191.595647 
L 177.701647 190.993187 
L 174.786108 190.993187 
L 174.786108 190.456558 
L 182.223706 190.456558 
L 182.223706 191.948744 
z
" clip-path="url(#p35f5402bf0)" style="fill: #ffa600"/>
   </g>
   <g id="patch_20">
    <path d="M 182.223706 188.559407 
Q 180.743174 188.788155 179.142236 188.90386 
Q 177.541299 189.020894 175.79766 189.020894 
Q 170.597958 189.020894 167.561083 188.153777 
Q 164.524207 187.28666 164.524207 185.803783 
Q 164.524207 184.315586 167.561083 183.449799 
Q 170.597958 182.582682 175.79766 182.582682 
Q 177.541299 182.582682 179.142236 182.699716 
Q 180.743174 182.81542 182.223706 183.044169 
L 182.223706 184.327556 
Q 180.729795 184.024331 179.280479 183.883358 
Q 177.831162 183.742385 176.230225 183.742385 
Q 173.358349 183.742385 171.712817 184.291648 
Q 170.071745 184.83958 170.071745 185.803783 
Q 170.071745 186.763995 171.712817 187.313258 
Q 173.358349 187.861191 176.230225 187.861191 
Q 177.831162 187.861191 179.280479 187.720218 
Q 180.729795 187.577915 182.223706 187.27469 
L 182.223706 188.559407 
z
" clip-path="url(#p35f5402bf0)" style="fill: #0000ff"/>
   </g>
   <g id="patch_21">
    <path d="M 176.784666 180.269577 
L 169.977723 180.269577 
L 168.902942 182.582682 
L 164.524207 182.582682 
L 170.777475 169.885097 
L 175.970438 169.885097 
L 182.223706 182.582682 
L 177.84859 182.582682 
L 176.784666 180.269577 
z
M 171.06336 177.912931 
L 175.688172 177.912931 
L 173.379385 172.862199 
L 171.06336 177.912931 
z
" clip-path="url(#p35f5402bf0)" style="fill: #008000"/>
   </g>
   <g id="patch_22">
    <path d="M 164.524207 124.996452 
L 182.223706 124.996452 
L 182.223706 133.750988 
L 175.856003 133.750988 
L 175.856003 169.885097 
L 170.904259 169.885097 
L 170.904259 133.750988 
L 164.524207 133.750988 
L 164.524207 124.996452 
z
" clip-path="url(#p35f5402bf0)" style="fill: #ff0000"/>
   </g>
   <g id="patch_23">
    <path d="M 200.854758 191.864993 
Q 199.374225 192.050876 197.773288 192.144897 
Q 196.172351 192.24 194.428711 192.24 
Q 189.22901 192.24 186.192134 191.535376 
Q 183.155259 190.830752 183.155259 189.625759 
Q 183.155259 188.416443 186.192134 187.7129 
Q 189.22901 187.008276 194.428711 187.008276 
Q 196.172351 187.008276 197.773288 187.103379 
Q 199.374225 187.197401 200.854758 187.383283 
L 200.854758 188.426169 
Q 199.360847 188.179767 197.911531 188.065212 
Q 196.462214 187.950656 194.861277 187.950656 
Q 191.9894 187.950656 190.343869 188.39699 
Q 188.702796 188.842243 188.702796 189.625759 
Q 188.702796 190.406033 190.343869 190.852367 
Q 191.9894 191.29762 194.861277 191.29762 
Q 196.462214 191.29762 197.911531 191.183064 
Q 199.360847 191.067428 200.854758 190.821026 
L 200.854758 191.864993 
z
" clip-path="url(#p35f5402bf0)" style="fill: #0000ff"/>
   </g>
   <g id="patch_24">
    <path d="M 200.854758 186.470377 
Q 199.069734 186.739326 197.149843 186.874415 
Q 195.229951 187.008276 193.183124 187.008276 
Q 188.55793 187.008276 185.856594 186.207567 
Q 183.155259 185.406858 183.155259 184.037548 
Q 183.155259 182.652272 185.904195 181.857704 
Q 188.657098 181.063135 193.444927 181.063135 
Q 195.289451 181.063135 196.979274 181.171206 
Q 198.673063 181.278049 200.172482 181.489279 
L 200.172482 182.674378 
Q 198.625462 182.402972 197.094309 182.269111 
Q 195.563155 182.134022 194.024068 182.134022 
Q 191.175964 182.134022 189.632911 182.627711 
Q 188.089857 183.120171 188.089857 184.037548 
Q 188.089857 184.946328 189.577376 185.442473 
Q 191.064896 185.937389 193.801932 185.937389 
Q 194.547675 185.937389 195.186317 185.909143 
Q 195.824959 185.87967 196.332699 185.818265 
L 196.332699 184.705624 
L 193.41716 184.705624 
L 193.41716 183.714562 
L 200.854758 183.714562 
L 200.854758 186.470377 
z
" clip-path="url(#p35f5402bf0)" style="fill: #ffa600"/>
   </g>
   <g id="patch_25">
    <path d="M 183.155259 170.361882 
L 200.854758 170.361882 
L 200.854758 172.448924 
L 194.487054 172.448924 
L 194.487054 181.063135 
L 189.535311 181.063135 
L 189.535311 172.448924 
L 183.155259 172.448924 
L 183.155259 170.361882 
z
" clip-path="url(#p35f5402bf0)" style="fill: #ff0000"/>
   </g>
   <g id="patch_26">
    <path d="M 195.415717 158.058779 
L 188.608774 158.058779 
L 187.533994 170.361882 
L 183.155259 170.361882 
L 189.408527 102.825082 
L 194.60149 102.825082 
L 200.854758 170.361882 
L 196.479641 170.361882 
L 195.415717 158.058779 
z
M 189.694411 145.524088 
L 194.319224 145.524088 
L 192.010437 118.6599 
L 189.694411 145.524088 
z
" clip-path="url(#p35f5402bf0)" style="fill: #008000"/>
   </g>
   <g id="patch_27">
    <path d="M 214.046769 191.751726 
L 207.239826 191.751726 
L 206.165046 192.24 
L 201.786311 192.24 
L 208.039579 189.559662 
L 213.232542 189.559662 
L 219.48581 192.24 
L 215.110693 192.24 
L 214.046769 191.751726 
z
M 208.325463 191.254261 
L 212.950276 191.254261 
L 210.641488 190.1881 
L 208.325463 191.254261 
z
" clip-path="url(#p35f5402bf0)" style="fill: #008000"/>
   </g>
   <g id="patch_28">
    <path d="M 219.48581 189.171647 
Q 217.700786 189.365655 215.780894 189.463102 
Q 213.861002 189.559662 211.814176 189.559662 
Q 207.188981 189.559662 204.487646 188.982069 
Q 201.786311 188.404476 201.786311 187.416721 
Q 201.786311 186.41745 204.535247 185.844286 
Q 207.288149 185.271122 212.075979 185.271122 
Q 213.920503 185.271122 215.610325 185.34908 
Q 217.304114 185.426151 218.803534 185.578522 
L 218.803534 186.433396 
Q 217.256514 186.237616 215.72536 186.141056 
Q 214.194207 186.043609 212.65512 186.043609 
Q 209.807016 186.043609 208.263962 186.399732 
Q 206.720909 186.75497 206.720909 187.416721 
Q 206.720909 188.072272 208.208428 188.430167 
Q 209.695948 188.787176 212.432984 188.787176 
Q 213.178727 188.787176 213.817369 188.766801 
Q 214.45601 188.74554 214.96375 188.701246 
L 214.96375 187.898639 
L 212.048212 187.898639 
L 212.048212 187.183735 
L 219.48581 187.183735 
L 219.48581 189.171647 
z
" clip-path="url(#p35f5402bf0)" style="fill: #ffa600"/>
   </g>
   <g id="patch_29">
    <path d="M 219.48581 184.566664 
Q 218.005277 184.915848 216.40434 185.09247 
Q 214.803402 185.271122 213.059763 185.271122 
Q 207.860062 185.271122 204.823186 183.947472 
Q 201.786311 182.623821 201.786311 180.360215 
Q 201.786311 178.08849 204.823186 176.766869 
Q 207.860062 175.443218 213.059763 175.443218 
Q 214.803402 175.443218 216.40434 175.62187 
Q 218.005277 175.798492 219.48581 176.147676 
L 219.48581 178.106761 
Q 217.991899 177.643889 216.542582 177.428694 
Q 215.093266 177.2135 213.492328 177.2135 
Q 210.620452 177.2135 208.97492 178.051947 
Q 207.333848 178.888364 207.333848 180.360215 
Q 207.333848 181.825976 208.97492 182.664424 
Q 210.620452 183.500841 213.492328 183.500841 
Q 215.093266 183.500841 216.542582 183.285646 
Q 217.991899 183.068421 219.48581 182.60555 
L 219.48581 184.566664 
z
" clip-path="url(#p35f5402bf0)" style="fill: #0000ff"/>
   </g>
   <g id="patch_30">
    <path d="M 201.786311 158.646436 
L 219.48581 158.646436 
L 219.48581 161.922277 
L 213.118106 161.922277 
L 213.118106 175.443218 
L 208.166363 175.443218 
L 208.166363 161.922277 
L 201.786311 161.922277 
L 201.786311 158.646436 
z
" clip-path="url(#p35f5402bf0)" style="fill: #ff0000"/>
   </g>
   <g id="patch_31">
    <path d="M 238.116861 192.090251 
Q 236.636329 192.164478 235.035392 192.202023 
Q 233.434454 192.24 231.690815 192.24 
Q 226.491113 192.24 223.454238 191.958628 
Q 220.417362 191.677256 220.417362 191.196075 
Q 220.417362 190.713167 223.454238 190.432227 
Q 226.491113 190.150854 231.690815 190.150854 
Q 233.434454 190.150854 235.035392 190.188831 
Q 236.636329 190.226376 238.116861 190.300603 
L 238.116861 190.717051 
Q 236.622951 190.618657 235.173634 190.572913 
Q 233.724318 190.527168 232.12338 190.527168 
Q 229.251504 190.527168 227.605972 190.705399 
Q 225.9649 190.883199 225.9649 191.196075 
Q 225.9649 191.507655 227.605972 191.685887 
Q 229.251504 191.863686 232.12338 191.863686 
Q 233.724318 191.863686 235.173634 191.817942 
Q 236.622951 191.771766 238.116861 191.673372 
L 238.116861 192.090251 
z
" clip-path="url(#p35f5402bf0)" style="fill: #0000ff"/>
   </g>
   <g id="patch_32">
    <path d="M 220.417362 185.136905 
L 238.116861 185.136905 
L 238.116861 186.114765 
L 231.749158 186.114765 
L 231.749158 190.150854 
L 226.797414 190.150854 
L 226.797414 186.114765 
L 220.417362 186.114765 
L 220.417362 185.136905 
z
" clip-path="url(#p35f5402bf0)" style="fill: #ff0000"/>
   </g>
   <g id="patch_33">
    <path d="M 238.116861 184.305217 
Q 236.331838 184.721061 234.411946 184.929933 
Q 232.492054 185.136905 230.445227 185.136905 
Q 225.820033 185.136905 223.118698 183.898867 
Q 220.417362 182.66083 220.417362 180.543633 
Q 220.417362 178.401752 223.166298 177.173208 
Q 225.919201 175.944665 230.707031 175.944665 
Q 232.551555 175.944665 234.241377 176.111762 
Q 235.935166 176.27696 237.434586 176.603559 
L 237.434586 178.435931 
Q 235.887565 178.016289 234.356412 177.809317 
Q 232.825259 177.600445 231.286172 177.600445 
Q 228.438068 177.600445 226.895014 178.363775 
Q 225.35196 179.125207 225.35196 180.543633 
Q 225.35196 181.948768 226.83948 182.715896 
Q 228.327 183.481125 231.064035 183.481125 
Q 231.809779 183.481125 232.44842 183.437451 
Q 233.087062 183.39188 233.594802 183.296938 
L 233.594802 181.576597 
L 230.679264 181.576597 
L 230.679264 180.044241 
L 238.116861 180.044241 
L 238.116861 184.305217 
z
" clip-path="url(#p35f5402bf0)" style="fill: #ffa600"/>
   </g>
   <g id="patch_34">
    <path d="M 232.677821 173.189285 
L 225.870878 173.189285 
L 224.796097 175.944665 
L 220.417362 175.944665 
L 226.67063 160.819251 
L 231.863593 160.819251 
L 238.116861 175.944665 
L 233.741745 175.944665 
L 232.677821 173.189285 
z
M 226.956515 170.382039 
L 231.581328 170.382039 
L 229.27254 164.365587 
L 226.956515 170.382039 
z
" clip-path="url(#p35f5402bf0)" style="fill: #008000"/>
   </g>
   <g id="patch_35">
    <path d="M 251.308873 191.724389 
L 244.50193 191.724389 
L 243.427149 192.24 
L 239.048414 192.24 
L 245.301682 189.4096 
L 250.494645 189.4096 
L 256.747913 192.24 
L 252.372797 192.24 
L 251.308873 191.724389 
z
M 245.587567 191.199073 
L 250.212379 191.199073 
L 247.903592 190.073221 
L 245.587567 191.199073 
z
" clip-path="url(#p35f5402bf0)" style="fill: #008000"/>
   </g>
   <g id="patch_36">
    <path d="M 256.747913 189.158413 
Q 255.267381 189.28292 253.666443 189.345898 
Q 252.065506 189.4096 250.321867 189.4096 
Q 245.122165 189.4096 242.08529 188.937629 
Q 239.048414 188.465659 239.048414 187.658533 
Q 239.048414 186.84851 242.08529 186.377264 
Q 245.122165 185.905294 250.321867 185.905294 
Q 252.065506 185.905294 253.666443 185.968996 
Q 255.267381 186.031973 256.747913 186.156481 
L 256.747913 186.855025 
Q 255.254002 186.689981 253.804686 186.613249 
Q 252.355369 186.536518 250.754432 186.536518 
Q 247.882556 186.536518 246.237024 186.835481 
Q 244.595952 187.133719 244.595952 187.658533 
Q 244.595952 188.181174 246.237024 188.480137 
Q 247.882556 188.778376 250.754432 188.778376 
Q 252.355369 188.778376 253.804686 188.701644 
Q 255.254002 188.624189 256.747913 188.459144 
L 256.747913 189.158413 
z
" clip-path="url(#p35f5402bf0)" style="fill: #0000ff"/>
   </g>
   <g id="patch_37">
    <path d="M 256.747913 184.173661 
Q 254.96289 185.039478 253.042998 185.474363 
Q 251.123106 185.905294 249.076279 185.905294 
Q 244.451085 185.905294 241.74975 183.327612 
Q 239.048414 180.749929 239.048414 176.341775 
Q 239.048414 171.882226 241.79735 169.324311 
Q 244.550253 166.766396 249.338083 166.766396 
Q 251.182607 166.766396 252.872429 167.114304 
Q 254.566218 167.458259 256.065638 168.138261 
L 256.065638 171.953389 
Q 254.518617 171.079666 252.987464 170.648734 
Q 251.45631 170.213849 249.917223 170.213849 
Q 247.069119 170.213849 245.526066 171.803156 
Q 243.983012 173.38851 243.983012 176.341775 
Q 243.983012 179.267366 245.470532 180.86458 
Q 246.958051 182.457841 249.695087 182.457841 
Q 250.44083 182.457841 251.079472 182.366911 
Q 251.718114 182.272027 252.225854 182.074352 
L 252.225854 178.49248 
L 249.310315 178.49248 
L 249.310315 175.302005 
L 256.747913 175.302005 
L 256.747913 184.173661 
z
" clip-path="url(#p35f5402bf0)" style="fill: #ffa600"/>
   </g>
   <g id="patch_38">
    <path d="M 239.048414 141.562354 
L 256.747913 141.562354 
L 256.747913 146.477844 
L 250.38021 146.477844 
L 250.38021 166.766396 
L 245.428466 166.766396 
L 245.428466 146.477844 
L 239.048414 146.477844 
L 239.048414 141.562354 
z
" clip-path="url(#p35f5402bf0)" style="fill: #ff0000"/>
   </g>
   <g id="patch_39">
    <path d="M 275.378965 192.035329 
Q 273.593941 192.137664 271.67405 192.189066 
Q 269.754158 192.24 267.707331 192.24 
Q 263.082137 192.24 260.380801 191.93533 
Q 257.679466 191.630659 257.679466 191.109635 
Q 257.679466 190.582536 260.428402 190.280202 
Q 263.181305 189.977868 267.969134 189.977868 
Q 269.813659 189.977868 271.503481 190.018989 
Q 273.19727 190.059643 274.696689 190.140017 
L 274.696689 190.590948 
Q 273.149669 190.487677 271.618516 190.436743 
Q 270.087362 190.385342 268.548275 190.385342 
Q 265.700171 190.385342 264.157118 190.573191 
Q 262.614064 190.760572 262.614064 191.109635 
Q 262.614064 191.455427 264.101583 191.64421 
Q 265.589103 191.832527 268.326139 191.832527 
Q 269.071882 191.832527 269.710524 191.821779 
Q 270.349166 191.810564 270.856906 191.7872 
L 270.856906 191.363839 
L 267.941367 191.363839 
L 267.941367 190.986739 
L 275.378965 190.986739 
L 275.378965 192.035329 
z
" clip-path="url(#p35f5402bf0)" style="fill: #ffa600"/>
   </g>
   <g id="patch_40">
    <path d="M 275.378965 189.545473 
Q 273.898432 189.759801 272.297495 189.868212 
Q 270.696558 189.977868 268.952919 189.977868 
Q 263.753217 189.977868 260.716341 189.165414 
Q 257.679466 188.352959 257.679466 186.963562 
Q 257.679466 185.56918 260.716341 184.757972 
Q 263.753217 183.945517 268.952919 183.945517 
Q 270.696558 183.945517 272.297495 184.055174 
Q 273.898432 184.163584 275.378965 184.377912 
L 275.378965 185.580395 
Q 273.885054 185.296285 272.435738 185.164199 
Q 270.986421 185.032113 269.385484 185.032113 
Q 266.513607 185.032113 264.868076 185.546751 
Q 263.227003 186.060142 263.227003 186.963562 
Q 263.227003 187.863243 264.868076 188.377881 
Q 266.513607 188.891273 269.385484 188.891273 
Q 270.986421 188.891273 272.435738 188.759186 
Q 273.885054 188.625854 275.378965 188.341744 
L 275.378965 189.545473 
z
" clip-path="url(#p35f5402bf0)" style="fill: #0000ff"/>
   </g>
   <g id="patch_41">
    <path d="M 269.939924 182.43452 
L 263.132981 182.43452 
L 262.058201 183.945517 
L 257.679466 183.945517 
L 263.932734 175.651034 
L 269.125697 175.651034 
L 275.378965 183.945517 
L 271.003849 183.945517 
L 269.939924 182.43452 
z
M 264.218618 180.895081 
L 268.843431 180.895081 
L 266.534644 177.595776 
L 264.218618 180.895081 
z
" clip-path="url(#p35f5402bf0)" style="fill: #008000"/>
   </g>
   <g id="patch_42">
    <path d="M 257.679466 50.479747 
L 275.378965 50.479747 
L 275.378965 74.891635 
L 269.011261 74.891635 
L 269.011261 175.651034 
L 264.059518 175.651034 
L 264.059518 74.891635 
L 257.679466 74.891635 
L 257.679466 50.479747 
z
" clip-path="url(#p35f5402bf0)" style="fill: #ff0000"/>
   </g>
   <g id="patch_43">
    <path d="M 294.010017 192.039891 
Q 292.224993 192.139946 290.305101 192.190201 
Q 288.385209 192.24 286.338383 192.24 
Q 281.713188 192.24 279.011853 191.942122 
Q 276.310518 191.644243 276.310518 191.134834 
Q 276.310518 190.619486 279.059454 190.323892 
Q 281.812356 190.028298 286.600186 190.028298 
Q 288.44471 190.028298 290.134532 190.068502 
Q 291.828321 190.10825 293.327741 190.186831 
L 293.327741 190.62771 
Q 291.780721 190.526742 290.249567 190.476943 
Q 288.718414 190.426688 287.179327 190.426688 
Q 284.331223 190.426688 282.788169 190.610349 
Q 281.245116 190.793553 281.245116 191.134834 
Q 281.245116 191.472917 282.732635 191.657492 
Q 284.220155 191.84161 286.957191 191.84161 
Q 287.702934 191.84161 288.341576 191.831102 
Q 288.980217 191.820138 289.487957 191.797294 
L 289.487957 191.383371 
L 286.572419 191.383371 
L 286.572419 191.014678 
L 294.010017 191.014678 
L 294.010017 192.039891 
z
" clip-path="url(#p35f5402bf0)" style="fill: #ffa600"/>
   </g>
   <g id="patch_44">
    <path d="M 288.570976 189.544814 
L 281.764033 189.544814 
L 280.689253 190.028298 
L 276.310518 190.028298 
L 282.563786 187.374255 
L 287.756749 187.374255 
L 294.010017 190.028298 
L 289.6349 190.028298 
L 288.570976 189.544814 
z
M 282.84967 189.052229 
L 287.474483 189.052229 
L 285.165695 187.996528 
L 282.84967 189.052229 
z
" clip-path="url(#p35f5402bf0)" style="fill: #008000"/>
   </g>
   <g id="patch_45">
    <path d="M 294.010017 186.898655 
Q 292.529484 187.134399 290.928547 187.253642 
Q 289.32761 187.374255 287.58397 187.374255 
Q 282.384269 187.374255 279.347393 186.48062 
Q 276.310518 185.586984 276.310518 184.058758 
Q 276.310518 182.525049 279.347393 181.632784 
Q 282.384269 180.739149 287.58397 180.739149 
Q 289.32761 180.739149 290.928547 180.859762 
Q 292.529484 180.979005 294.010017 181.214749 
L 294.010017 182.537385 
Q 292.516106 182.224886 291.066789 182.079602 
Q 289.617473 181.934318 288.016535 181.934318 
Q 285.144659 181.934318 283.499127 182.500378 
Q 281.858055 183.065068 281.858055 184.058758 
Q 281.858055 185.048336 283.499127 185.614396 
Q 285.144659 186.179086 288.016535 186.179086 
Q 289.617473 186.179086 291.066789 186.033802 
Q 292.516106 185.887147 294.010017 185.574649 
L 294.010017 186.898655 
z
" clip-path="url(#p35f5402bf0)" style="fill: #0000ff"/>
   </g>
   <g id="patch_46">
    <path d="M 276.310518 25.92 
L 294.010017 25.92 
L 294.010017 56.114047 
L 287.642313 56.114047 
L 287.642313 180.739149 
L 282.69057 180.739149 
L 282.69057 56.114047 
L 276.310518 56.114047 
L 276.310518 25.92 
z
" clip-path="url(#p35f5402bf0)" style="fill: #ff0000"/>
   </g>
   <g id="patch_47">
    <path d="M 312.641068 191.915665 
Q 311.160536 192.07643 309.559599 192.157748 
Q 307.958661 192.24 306.215022 192.24 
Q 301.01532 192.24 297.978445 191.630586 
Q 294.941569 191.021172 294.941569 189.979 
Q 294.941569 188.933088 297.978445 188.324609 
Q 301.01532 187.715195 306.215022 187.715195 
Q 307.958661 187.715195 309.559599 187.797447 
Q 311.160536 187.878765 312.641068 188.03953 
L 312.641068 188.9415 
Q 311.147158 188.728393 309.697841 188.629316 
Q 308.248525 188.53024 306.647587 188.53024 
Q 303.775711 188.53024 302.130179 188.916264 
Q 300.489107 189.301354 300.489107 189.979 
Q 300.489107 190.653841 302.130179 191.039866 
Q 303.775711 191.424956 306.647587 191.424956 
Q 308.248525 191.424956 309.697841 191.325879 
Q 311.147158 191.225868 312.641068 191.01276 
L 312.641068 191.915665 
z
" clip-path="url(#p35f5402bf0)" style="fill: #0000ff"/>
   </g>
   <g id="patch_48">
    <path d="M 312.641068 187.218077 
Q 310.856045 187.466636 308.936153 187.591483 
Q 307.016261 187.715195 304.969434 187.715195 
Q 300.34424 187.715195 297.642905 186.975193 
Q 294.941569 186.23519 294.941569 184.969695 
Q 294.941569 183.689445 297.690505 182.955117 
Q 300.443408 182.220789 305.231238 182.220789 
Q 307.075762 182.220789 308.765584 182.320667 
Q 310.459373 182.41941 311.958793 182.614625 
L 311.958793 183.709874 
Q 310.411772 183.459045 308.880619 183.335333 
Q 307.349466 183.210486 305.810379 183.210486 
Q 302.962275 183.210486 301.419221 183.666745 
Q 299.876167 184.12187 299.876167 184.969695 
Q 299.876167 185.809575 301.363687 186.268104 
Q 302.851207 186.725498 305.588242 186.725498 
Q 306.333986 186.725498 306.972627 186.699394 
Q 307.611269 186.672155 308.119009 186.615406 
L 308.119009 185.58712 
L 305.203471 185.58712 
L 305.203471 184.671197 
L 312.641068 184.671197 
L 312.641068 187.218077 
z
" clip-path="url(#p35f5402bf0)" style="fill: #ffa600"/>
   </g>
   <g id="patch_49">
    <path d="M 307.202028 180.513355 
L 300.395085 180.513355 
L 299.320305 182.220789 
L 294.941569 182.220789 
L 301.194837 172.847979 
L 306.3878 172.847979 
L 312.641068 182.220789 
L 308.265952 182.220789 
L 307.202028 180.513355 
z
M 301.480722 178.773781 
L 306.105535 178.773781 
L 303.796747 175.045548 
L 301.480722 178.773781 
z
" clip-path="url(#p35f5402bf0)" style="fill: #008000"/>
   </g>
   <g id="patch_50">
    <path d="M 294.941569 70.71667 
L 312.641068 70.71667 
L 312.641068 90.63512 
L 306.273365 90.63512 
L 306.273365 172.847979 
L 301.321621 172.847979 
L 301.321621 90.63512 
L 294.941569 90.63512 
L 294.941569 70.71667 
z
" clip-path="url(#p35f5402bf0)" style="fill: #ff0000"/>
   </g>
   <g id="patch_51">
    <path d="M 313.572621 186.960833 
L 331.27212 186.960833 
L 331.27212 187.990418 
L 324.904417 187.990418 
L 324.904417 192.24 
L 319.952673 192.24 
L 319.952673 187.990418 
L 313.572621 187.990418 
L 313.572621 186.960833 
z
" clip-path="url(#p35f5402bf0)" style="fill: #ff0000"/>
   </g>
   <g id="patch_52">
    <path d="M 331.27212 186.423096 
Q 329.791588 186.68964 328.19065 186.824462 
Q 326.589713 186.960833 324.846074 186.960833 
Q 319.646372 186.960833 316.609497 185.950445 
Q 313.572621 184.940058 313.572621 183.212171 
Q 313.572621 181.478085 316.609497 180.469247 
Q 319.646372 179.458859 324.846074 179.458859 
Q 326.589713 179.458859 328.19065 179.59523 
Q 329.791588 179.730052 331.27212 179.996596 
L 331.27212 181.492032 
Q 329.778209 181.138706 328.328893 180.974441 
Q 326.879576 180.810175 325.278639 180.810175 
Q 322.406763 180.810175 320.761231 181.450191 
Q 319.120159 182.088657 319.120159 183.212171 
Q 319.120159 184.331035 320.761231 184.971051 
Q 322.406763 185.609517 325.278639 185.609517 
Q 326.879576 185.609517 328.328893 185.445251 
Q 329.778209 185.279436 331.27212 184.92611 
L 331.27212 186.423096 
z
" clip-path="url(#p35f5402bf0)" style="fill: #0000ff"/>
   </g>
   <g id="patch_53">
    <path d="M 331.27212 178.729823 
Q 329.487097 179.094341 327.567205 179.277432 
Q 325.647313 179.458859 323.600486 179.458859 
Q 318.975292 179.458859 316.273957 178.373628 
Q 313.572621 177.288396 313.572621 175.432518 
Q 313.572621 173.555001 316.321557 172.478092 
Q 319.07446 171.401183 323.86229 171.401183 
Q 325.706814 171.401183 327.396636 171.547656 
Q 329.090425 171.692464 330.589845 171.978752 
L 330.589845 173.584961 
Q 329.042824 173.217115 327.511671 173.035688 
Q 325.980517 172.852597 324.44143 172.852597 
Q 321.593326 172.852597 320.050273 173.521712 
Q 318.507219 174.189162 318.507219 175.432518 
Q 318.507219 176.664222 319.994739 177.336666 
Q 321.482258 178.007445 324.219294 178.007445 
Q 324.965037 178.007445 325.603679 177.969163 
Q 326.242321 177.929215 326.750061 177.845992 
L 326.750061 176.337987 
L 323.834523 176.337987 
L 323.834523 174.994763 
L 331.27212 174.994763 
L 331.27212 178.729823 
z
" clip-path="url(#p35f5402bf0)" style="fill: #ffa600"/>
   </g>
   <g id="patch_54">
    <path d="M 325.83308 156.165831 
L 319.026137 156.165831 
L 317.951356 171.401183 
L 313.572621 171.401183 
L 319.825889 87.768064 
L 325.018852 87.768064 
L 331.27212 171.401183 
L 326.897004 171.401183 
L 325.83308 156.165831 
z
M 320.111774 140.643697 
L 324.736586 140.643697 
L 322.427799 107.376858 
L 320.111774 140.643697 
z
" clip-path="url(#p35f5402bf0)" style="fill: #008000"/>
   </g>
   <g id="patch_55">
    <path d="M 349.903172 192.07189 
Q 348.422639 192.155218 346.821702 192.197367 
Q 345.220765 192.24 343.477126 192.24 
Q 338.277424 192.24 335.240548 191.924128 
Q 332.203673 191.608256 332.203673 191.068077 
Q 332.203673 190.525959 335.240548 190.210572 
Q 338.277424 189.8947 343.477126 189.8947 
Q 345.220765 189.8947 346.821702 189.937333 
Q 348.422639 189.979482 349.903172 190.06281 
L 349.903172 190.530319 
Q 348.409261 190.419861 346.959945 190.368508 
Q 345.510628 190.317154 343.909691 190.317154 
Q 341.037814 190.317154 339.392283 190.517239 
Q 337.75121 190.716839 337.75121 191.068077 
Q 337.75121 191.417861 339.392283 191.617946 
Q 341.037814 191.817546 343.909691 191.817546 
Q 345.510628 191.817546 346.959945 191.766192 
Q 348.409261 191.714354 349.903172 191.603896 
L 349.903172 192.07189 
z
" clip-path="url(#p35f5402bf0)" style="fill: #0000ff"/>
   </g>
   <g id="patch_56">
    <path d="M 349.903172 189.626929 
Q 348.118149 189.760814 346.198257 189.828063 
Q 344.278365 189.8947 342.231538 189.8947 
Q 337.606344 189.8947 334.905008 189.4961 
Q 332.203673 189.0975 332.203673 188.415844 
Q 332.203673 187.726242 334.952609 187.330698 
Q 337.705512 186.935155 342.493341 186.935155 
Q 344.337866 186.935155 346.027688 186.988954 
Q 347.721477 187.042141 349.220896 187.147293 
L 349.220896 187.737246 
Q 347.673876 187.602138 346.142723 187.535501 
Q 344.611569 187.468252 343.072482 187.468252 
Q 340.224378 187.468252 338.681325 187.714015 
Q 337.138271 187.959166 337.138271 188.415844 
Q 337.138271 188.868243 338.62579 189.115229 
Q 340.11331 189.361603 342.850346 189.361603 
Q 343.596089 189.361603 344.234731 189.347542 
Q 344.873373 189.332869 345.381113 189.302302 
L 345.381113 188.748419 
L 342.465574 188.748419 
L 342.465574 188.255059 
L 349.903172 188.255059 
L 349.903172 189.626929 
z
" clip-path="url(#p35f5402bf0)" style="fill: #ffa600"/>
   </g>
   <g id="patch_57">
    <path d="M 332.203673 180.010936 
L 349.903172 180.010936 
L 349.903172 181.361352 
L 343.535468 181.361352 
L 343.535468 186.935155 
L 338.583725 186.935155 
L 338.583725 181.361352 
L 332.203673 181.361352 
L 332.203673 180.010936 
z
" clip-path="url(#p35f5402bf0)" style="fill: #ff0000"/>
   </g>
   <g id="patch_58">
    <path d="M 344.464131 178.41387 
L 337.657188 178.41387 
L 336.582408 180.010936 
L 332.203673 180.010936 
L 338.456941 171.243981 
L 343.649904 171.243981 
L 349.903172 180.010936 
L 345.528056 180.010936 
L 344.464131 178.41387 
z
M 338.742825 176.786741 
L 343.367638 176.786741 
L 341.058851 173.2995 
L 338.742825 176.786741 
z
" clip-path="url(#p35f5402bf0)" style="fill: #008000"/>
   </g>
   <g id="patch_59">
    <path d="M 368.534224 192.103864 
Q 367.053691 192.171344 365.452754 192.205476 
Q 363.851817 192.24 362.108177 192.24 
Q 356.908476 192.24 353.8716 191.984206 
Q 350.834725 191.728412 350.834725 191.290972 
Q 350.834725 190.851963 353.8716 190.596562 
Q 356.908476 190.340767 362.108177 190.340767 
Q 363.851817 190.340767 365.452754 190.375292 
Q 367.053691 190.409424 368.534224 190.476903 
L 368.534224 190.855494 
Q 367.040313 190.766045 365.590996 190.724459 
Q 364.14168 190.682873 362.540743 190.682873 
Q 359.668866 190.682873 358.023334 190.844902 
Q 356.382262 191.006539 356.382262 191.290972 
Q 356.382262 191.574229 358.023334 191.736258 
Q 359.668866 191.897895 362.540743 191.897895 
Q 364.14168 191.897895 365.590996 191.856309 
Q 367.040313 191.81433 368.534224 191.724881 
L 368.534224 192.103864 
z
" clip-path="url(#p35f5402bf0)" style="fill: #0000ff"/>
   </g>
   <g id="patch_60">
    <path d="M 368.534224 189.868215 
Q 366.7492 190.104491 364.829308 190.223169 
Q 362.909416 190.340767 360.86259 190.340767 
Q 356.237396 190.340767 353.53606 189.637333 
Q 350.834725 188.933899 350.834725 187.730941 
Q 350.834725 186.513957 353.583661 185.815918 
Q 356.336563 185.117878 361.124393 185.117878 
Q 362.968917 185.117878 364.658739 185.21282 
Q 366.352528 185.306683 367.851948 185.492252 
L 367.851948 186.533377 
Q 366.304928 186.294943 364.773774 186.177345 
Q 363.242621 186.058667 361.703534 186.058667 
Q 358.85543 186.058667 357.312376 186.492379 
Q 355.769323 186.925013 355.769323 187.730941 
Q 355.769323 188.529317 357.256842 188.965187 
Q 358.744362 189.399978 361.481398 189.399978 
Q 362.227141 189.399978 362.865783 189.375164 
Q 363.504424 189.349271 364.012164 189.295326 
L 364.012164 188.317855 
L 361.096626 188.317855 
L 361.096626 187.447194 
L 368.534224 187.447194 
L 368.534224 189.868215 
z
" clip-path="url(#p35f5402bf0)" style="fill: #ffa600"/>
   </g>
   <g id="patch_61">
    <path d="M 350.834725 169.805316 
L 368.534224 169.805316 
L 368.534224 172.791692 
L 362.16652 172.791692 
L 362.16652 185.117878 
L 357.214777 185.117878 
L 357.214777 172.791692 
L 350.834725 172.791692 
L 350.834725 169.805316 
z
" clip-path="url(#p35f5402bf0)" style="fill: #ff0000"/>
   </g>
   <g id="patch_62">
    <path d="M 363.095183 165.761662 
L 356.28824 165.761662 
L 355.21346 169.805316 
L 350.834725 169.805316 
L 357.087993 147.608035 
L 362.280956 147.608035 
L 368.534224 169.805316 
L 364.159107 169.805316 
L 363.095183 165.761662 
z
M 357.373877 161.641892 
L 361.99869 161.641892 
L 359.689902 152.812456 
L 357.373877 161.641892 
z
" clip-path="url(#p35f5402bf0)" style="fill: #008000"/>
   </g>
   <g id="patch_63">
    <path d="M 387.165275 191.88909 
Q 385.684743 192.063028 384.083806 192.151008 
Q 382.482868 192.24 380.739229 192.24 
Q 375.539527 192.24 372.502652 191.580653 
Q 369.465776 190.921306 369.465776 189.793742 
Q 369.465776 188.662132 372.502652 188.003797 
Q 375.539527 187.34445 380.739229 187.34445 
Q 382.482868 187.34445 384.083806 187.433441 
Q 385.684743 187.521422 387.165275 187.69536 
L 387.165275 188.671234 
Q 385.671365 188.440665 384.222048 188.33347 
Q 382.772732 188.226276 381.171794 188.226276 
Q 378.299918 188.226276 376.654386 188.64393 
Q 375.013314 189.060572 375.013314 189.793742 
Q 375.013314 190.523878 376.654386 190.941531 
Q 378.299918 191.358174 381.171794 191.358174 
Q 382.772732 191.358174 384.222048 191.25098 
Q 385.671365 191.142774 387.165275 190.912205 
L 387.165275 191.88909 
z
" clip-path="url(#p35f5402bf0)" style="fill: #0000ff"/>
   </g>
   <g id="patch_64">
    <path d="M 387.165275 186.879367 
Q 385.380252 187.111909 383.46036 187.22871 
Q 381.540468 187.34445 379.493641 187.34445 
Q 374.868447 187.34445 372.167112 186.652135 
Q 369.465776 185.959821 369.465776 184.775879 
Q 369.465776 183.578132 372.214712 182.891127 
Q 374.967615 182.204122 379.755445 182.204122 
Q 381.599969 182.204122 383.289791 182.297563 
Q 384.98358 182.389943 386.483 182.572578 
L 386.483 183.597245 
Q 384.93598 183.362581 383.404826 183.246841 
Q 381.873673 183.130039 380.334586 183.130039 
Q 377.486482 183.130039 375.943428 183.556896 
Q 374.400374 183.98269 374.400374 184.775879 
Q 374.400374 185.561634 375.887894 185.990614 
Q 377.375414 186.418532 380.112449 186.418532 
Q 380.858193 186.418532 381.496834 186.39411 
Q 382.135476 186.368626 382.643216 186.315535 
L 382.643216 185.353515 
L 379.727678 185.353515 
L 379.727678 184.496617 
L 387.165275 184.496617 
L 387.165275 186.879367 
z
" clip-path="url(#p35f5402bf0)" style="fill: #ffa600"/>
   </g>
   <g id="patch_65">
    <path d="M 381.726235 179.97458 
L 374.919292 179.97458 
L 373.844512 182.204122 
L 369.465776 182.204122 
L 375.719044 169.965247 
L 380.912007 169.965247 
L 387.165275 182.204122 
L 382.790159 182.204122 
L 381.726235 179.97458 
z
M 376.004929 177.70307 
L 380.629742 177.70307 
L 378.320954 172.834799 
L 376.004929 177.70307 
z
" clip-path="url(#p35f5402bf0)" style="fill: #008000"/>
   </g>
   <g id="patch_66">
    <path d="M 369.465776 100.203656 
L 387.165275 100.203656 
L 387.165275 113.80911 
L 380.797572 113.80911 
L 380.797572 169.965247 
L 375.845828 169.965247 
L 375.845828 113.80911 
L 369.465776 113.80911 
L 369.465776 100.203656 
z
" clip-path="url(#p35f5402bf0)" style="fill: #ff0000"/>
   </g>
   <g id="patch_67">
    <path d="M 400.357287 191.335787 
L 393.550344 191.335787 
L 392.475563 192.24 
L 388.096828 192.24 
L 394.350096 187.276401 
L 399.543059 187.276401 
L 405.796327 192.24 
L 401.421211 192.24 
L 400.357287 191.335787 
z
M 394.635981 190.414553 
L 399.260793 190.414553 
L 396.952006 188.440177 
L 394.635981 190.414553 
z
" clip-path="url(#p35f5402bf0)" style="fill: #008000"/>
   </g>
   <g id="patch_68">
    <path d="M 405.796327 186.780455 
Q 404.315795 187.026284 402.714857 187.150628 
Q 401.11392 187.276401 399.370281 187.276401 
Q 394.170579 187.276401 391.133704 186.344536 
Q 388.096828 185.412671 388.096828 183.819068 
Q 388.096828 182.219747 391.133704 181.289311 
Q 394.170579 180.357446 399.370281 180.357446 
Q 401.11392 180.357446 402.714857 180.483219 
Q 404.315795 180.607563 405.796327 180.853393 
L 405.796327 182.23261 
Q 404.302416 181.906743 402.8531 181.755244 
Q 401.403783 181.603744 399.802846 181.603744 
Q 396.93097 181.603744 395.285438 182.194021 
Q 393.644366 182.782868 393.644366 183.819068 
Q 393.644366 184.85098 395.285438 185.441256 
Q 396.93097 186.030103 399.802846 186.030103 
Q 401.403783 186.030103 402.8531 185.878604 
Q 404.302416 185.725675 405.796327 185.399808 
L 405.796327 186.780455 
z
" clip-path="url(#p35f5402bf0)" style="fill: #0000ff"/>
   </g>
   <g id="patch_69">
    <path d="M 405.796327 179.649785 
Q 404.011304 180.003616 402.091412 180.181339 
Q 400.17152 180.357446 398.124693 180.357446 
Q 393.499499 180.357446 390.798164 179.304033 
Q 388.096828 178.250621 388.096828 176.449156 
Q 388.096828 174.626687 390.845764 173.581352 
Q 393.598667 172.536018 398.386497 172.536018 
Q 400.231021 172.536018 401.920843 172.678196 
Q 403.614632 172.818759 405.114052 173.096653 
L 405.114052 174.655769 
Q 403.567031 174.298707 402.035878 174.1226 
Q 400.504724 173.944877 398.965637 173.944877 
Q 396.117533 173.944877 394.57448 174.594374 
Q 393.031426 175.242255 393.031426 176.449156 
Q 393.031426 177.644747 394.518946 178.297475 
Q 396.006465 178.948587 398.743501 178.948587 
Q 399.489244 178.948587 400.127886 178.911427 
Q 400.766528 178.872651 401.274268 178.791868 
L 401.274268 177.328077 
L 398.35873 177.328077 
L 398.35873 176.024236 
L 405.796327 176.024236 
L 405.796327 179.649785 
z
" clip-path="url(#p35f5402bf0)" style="fill: #ffa600"/>
   </g>
   <g id="patch_70">
    <path d="M 388.096828 135.685059 
L 405.796327 135.685059 
L 405.796327 142.872023 
L 399.428624 142.872023 
L 399.428624 172.536018 
L 394.47688 172.536018 
L 394.47688 142.872023 
L 388.096828 142.872023 
L 388.096828 135.685059 
z
" clip-path="url(#p35f5402bf0)" style="fill: #ff0000"/>
   </g>
   <g id="patch_71">
    <path d="M 424.427379 192.098407 
Q 422.946846 192.168592 421.345909 192.204092 
Q 419.744972 192.24 418.001333 192.24 
Q 412.801631 192.24 409.764755 191.973953 
Q 406.72788 191.707906 406.72788 191.252933 
Q 406.72788 190.796328 409.764755 190.530689 
Q 412.801631 190.264642 418.001333 190.264642 
Q 419.744972 190.264642 421.345909 190.30055 
Q 422.946846 190.33605 424.427379 190.406234 
L 424.427379 190.8 
Q 422.933468 190.706965 421.484152 190.663712 
Q 420.034835 190.620459 418.433898 190.620459 
Q 415.562021 190.620459 413.91649 190.788983 
Q 412.275417 190.957098 412.275417 191.252933 
Q 412.275417 191.547543 413.91649 191.716067 
Q 415.562021 191.884183 418.433898 191.884183 
Q 420.034835 191.884183 421.484152 191.840929 
Q 422.933468 191.797268 424.427379 191.704234 
L 424.427379 192.098407 
z
" clip-path="url(#p35f5402bf0)" style="fill: #0000ff"/>
   </g>
   <g id="patch_72">
    <path d="M 424.427379 189.918024 
Q 422.642356 190.091333 420.722464 190.178383 
Q 418.802572 190.264642 416.755745 190.264642 
Q 412.130551 190.264642 409.429215 189.748672 
Q 406.72788 189.232702 406.72788 188.35033 
Q 406.72788 187.45767 409.476816 186.945657 
Q 412.229719 186.433644 417.017548 186.433644 
Q 418.862073 186.433644 420.551895 186.503284 
Q 422.245684 186.572132 423.745103 186.708247 
L 423.745103 187.471914 
Q 422.198083 187.297023 420.66693 187.210764 
Q 419.135776 187.123714 417.596689 187.123714 
Q 414.748585 187.123714 413.205532 187.441843 
Q 411.662478 187.75918 411.662478 188.35033 
Q 411.662478 188.93594 413.149997 189.255651 
Q 414.637517 189.574571 417.374553 189.574571 
Q 418.120296 189.574571 418.758938 189.55637 
Q 419.39758 189.537377 419.90532 189.497809 
L 419.90532 188.780832 
L 416.989781 188.780832 
L 416.989781 188.142201 
L 424.427379 188.142201 
L 424.427379 189.918024 
z
" clip-path="url(#p35f5402bf0)" style="fill: #ffa600"/>
   </g>
   <g id="patch_73">
    <path d="M 418.988338 185.146911 
L 412.181395 185.146911 
L 411.106615 186.433644 
L 406.72788 186.433644 
L 412.981148 179.370241 
L 418.174111 179.370241 
L 424.427379 186.433644 
L 420.052263 186.433644 
L 418.988338 185.146911 
z
M 413.267032 183.835958 
L 417.891845 183.835958 
L 415.583058 181.026341 
L 413.267032 183.835958 
z
" clip-path="url(#p35f5402bf0)" style="fill: #008000"/>
   </g>
   <g id="patch_74">
    <path d="M 406.72788 169.732886 
L 424.427379 169.732886 
L 424.427379 171.612439 
L 418.059675 171.612439 
L 418.059675 179.370241 
L 413.107932 179.370241 
L 413.107932 171.612439 
L 406.72788 171.612439 
L 406.72788 169.732886 
z
" clip-path="url(#p35f5402bf0)" style="fill: #ff0000"/>
   </g>
   <g id="patch_75">
    <path d="M 425.358932 190.959675 
L 443.058431 190.959675 
L 443.058431 191.209374 
L 436.690727 191.209374 
L 436.690727 192.24 
L 431.738984 192.24 
L 431.738984 191.209374 
L 425.358932 191.209374 
L 425.358932 190.959675 
z
" clip-path="url(#p35f5402bf0)" style="fill: #ff0000"/>
   </g>
   <g id="patch_76">
    <path d="M 443.058431 190.759183 
Q 441.273407 190.859429 439.353515 190.909781 
Q 437.433623 190.959675 435.386797 190.959675 
Q 430.761603 190.959675 428.060267 190.661225 
Q 425.358932 190.362775 425.358932 189.852388 
Q 425.358932 189.336051 428.107868 189.03989 
Q 430.86077 188.743728 435.6486 188.743728 
Q 437.493124 188.743728 439.182946 188.78401 
Q 440.876735 188.823834 442.376155 188.902566 
L 442.376155 189.344291 
Q 440.829135 189.243129 439.297981 189.193235 
Q 437.766828 189.142883 436.227741 189.142883 
Q 433.379637 189.142883 431.836583 189.326896 
Q 430.29353 189.510452 430.29353 189.852388 
Q 430.29353 190.19112 431.781049 190.376049 
Q 433.268569 190.560521 436.005605 190.560521 
Q 436.751348 190.560521 437.38999 190.549993 
Q 438.028631 190.539007 438.536371 190.51612 
L 438.536371 190.101402 
L 435.620833 190.101402 
L 435.620833 189.732001 
L 443.058431 189.732001 
L 443.058431 190.759183 
z
" clip-path="url(#p35f5402bf0)" style="fill: #ffa600"/>
   </g>
   <g id="patch_77">
    <path d="M 443.058431 188.583126 
Q 441.577898 188.662733 439.976961 188.702999 
Q 438.376024 188.743728 436.632384 188.743728 
Q 431.432683 188.743728 428.395807 188.441962 
Q 425.358932 188.140196 425.358932 187.624139 
Q 425.358932 187.10623 428.395807 186.804926 
Q 431.432683 186.50316 436.632384 186.50316 
Q 438.376024 186.50316 439.976961 186.543889 
Q 441.577898 186.584156 443.058431 186.663763 
L 443.058431 187.110395 
Q 441.56452 187.00487 440.115203 186.95581 
Q 438.665887 186.906749 437.06495 186.906749 
Q 434.193073 186.906749 432.547541 187.097899 
Q 430.906469 187.288586 430.906469 187.624139 
Q 430.906469 187.958303 432.547541 188.149453 
Q 434.193073 188.340139 437.06495 188.340139 
Q 438.665887 188.340139 440.115203 188.291079 
Q 441.56452 188.241556 443.058431 188.13603 
L 443.058431 188.583126 
z
" clip-path="url(#p35f5402bf0)" style="fill: #0000ff"/>
   </g>
   <g id="patch_78">
    <path d="M 437.61939 185.861763 
L 430.812447 185.861763 
L 429.737667 186.50316 
L 425.358932 186.50316 
L 431.6122 182.982267 
L 436.805163 182.982267 
L 443.058431 186.50316 
L 438.683314 186.50316 
L 437.61939 185.861763 
z
M 431.898084 185.208292 
L 436.522897 185.208292 
L 434.214109 183.807783 
L 431.898084 185.208292 
z
" clip-path="url(#p35f5402bf0)" style="fill: #008000"/>
   </g>
   <g id="patch_79">
    <path d="M 461.689482 192.087107 
Q 459.904459 192.163554 457.984567 192.201951 
Q 456.064675 192.24 454.017848 192.24 
Q 449.392654 192.24 446.691319 192.012406 
Q 443.989983 191.784813 443.989983 191.3956 
Q 443.989983 191.001849 446.738919 190.776001 
Q 449.491822 190.550153 454.279652 190.550153 
Q 456.124176 190.550153 457.813998 190.580871 
Q 459.507787 190.61124 461.007207 190.67128 
L 461.007207 191.008132 
Q 459.460187 190.930988 457.929033 190.892939 
Q 456.39788 190.854541 454.858793 190.854541 
Q 452.010689 190.854541 450.467635 190.994868 
Q 448.924581 191.134845 448.924581 191.3956 
Q 448.924581 191.653912 450.412101 191.794936 
Q 451.899621 191.935611 454.636656 191.935611 
Q 455.3824 191.935611 456.021041 191.927582 
Q 456.659683 191.919205 457.167423 191.901751 
L 457.167423 191.585494 
L 454.251885 191.585494 
L 454.251885 191.303794 
L 461.689482 191.303794 
L 461.689482 192.087107 
z
" clip-path="url(#p35f5402bf0)" style="fill: #ffa600"/>
   </g>
   <g id="patch_80">
    <path d="M 461.689482 189.788781 
Q 460.20895 190.166176 458.608013 190.357067 
Q 457.007075 190.550153 455.263436 190.550153 
Q 450.063734 190.550153 447.026859 189.119564 
Q 443.989983 187.688976 443.989983 185.242495 
Q 443.989983 182.787236 447.026859 181.358842 
Q 450.063734 179.928254 455.263436 179.928254 
Q 457.007075 179.928254 458.608013 180.12134 
Q 460.20895 180.312231 461.689482 180.689625 
L 461.689482 182.806984 
Q 460.195572 182.306717 458.746255 182.074137 
Q 457.296939 181.841556 455.696001 181.841556 
Q 452.824125 181.841556 451.178593 182.747742 
Q 449.537521 183.651733 449.537521 185.242495 
Q 449.537521 186.826674 451.178593 187.732859 
Q 452.824125 188.63685 455.696001 188.63685 
Q 457.296939 188.63685 458.746255 188.40427 
Q 460.195572 188.169496 461.689482 187.669229 
L 461.689482 189.788781 
z
" clip-path="url(#p35f5402bf0)" style="fill: #0000ff"/>
   </g>
   <g id="patch_81">
    <path d="M 456.250442 177.905321 
L 449.443499 177.905321 
L 448.368719 179.928254 
L 443.989983 179.928254 
L 450.243251 168.823542 
L 455.436214 168.823542 
L 461.689482 179.928254 
L 457.314366 179.928254 
L 456.250442 177.905321 
z
M 450.529136 175.844309 
L 455.153949 175.844309 
L 452.845161 171.427176 
L 450.529136 175.844309 
z
" clip-path="url(#p35f5402bf0)" style="fill: #008000"/>
   </g>
   <g id="patch_82">
    <path d="M 443.989983 101.47105 
L 461.689482 101.47105 
L 461.689482 114.606663 
L 455.321779 114.606663 
L 455.321779 168.823542 
L 450.370035 168.823542 
L 450.370035 114.606663 
L 443.989983 114.606663 
L 443.989983 101.47105 
z
" clip-path="url(#p35f5402bf0)" style="fill: #ff0000"/>
   </g>
   <g id="patch_83">
    <path d="M 480.320534 192.108508 
Q 478.840002 192.173686 477.239064 192.206653 
Q 475.638127 192.24 473.894488 192.24 
Q 468.694786 192.24 465.657911 191.992932 
Q 462.621035 191.745864 462.621035 191.323347 
Q 462.621035 190.899315 465.657911 190.652625 
Q 468.694786 190.405557 473.894488 190.405557 
Q 475.638127 190.405557 477.239064 190.438904 
Q 478.840002 190.471872 480.320534 190.537049 
L 480.320534 190.902725 
Q 478.826623 190.816327 477.377307 190.776159 
Q 475.92799 190.735992 474.327053 190.735992 
Q 471.455177 190.735992 469.809645 190.892494 
Q 468.168573 191.048616 468.168573 191.323347 
Q 468.168573 191.596941 469.809645 191.753443 
Q 471.455177 191.909565 474.327053 191.909565 
Q 475.92799 191.909565 477.377307 191.869398 
Q 478.826623 191.828851 480.320534 191.742453 
L 480.320534 192.108508 
z
" clip-path="url(#p35f5402bf0)" style="fill: #0000ff"/>
   </g>
   <g id="patch_84">
    <path d="M 480.320534 189.812789 
Q 478.535511 190.109173 476.615619 190.258042 
Q 474.695727 190.405557 472.6489 190.405557 
Q 468.023706 190.405557 465.322371 189.523171 
Q 462.621035 188.640785 462.621035 187.131797 
Q 462.621035 185.605215 465.369971 184.729596 
Q 468.122874 183.853976 472.910704 183.853976 
Q 474.755228 183.853976 476.44505 183.973071 
Q 478.138839 184.090813 479.638259 184.32359 
L 479.638259 185.629575 
Q 478.091238 185.330484 476.560085 185.182969 
Q 475.028931 185.0341 473.489844 185.0341 
Q 470.64174 185.0341 469.098687 185.578148 
Q 467.555633 186.120842 467.555633 187.131797 
Q 467.555633 188.133278 469.043153 188.680032 
Q 470.530672 189.225434 473.267708 189.225434 
Q 474.013451 189.225434 474.652093 189.194307 
Q 475.290735 189.161826 475.798475 189.094158 
L 475.798475 187.868021 
L 472.882937 187.868021 
L 472.882937 186.775865 
L 480.320534 186.775865 
L 480.320534 189.812789 
z
" clip-path="url(#p35f5402bf0)" style="fill: #ffa600"/>
   </g>
   <g id="patch_85">
    <path d="M 462.621035 170.488751 
L 480.320534 170.488751 
L 480.320534 173.095342 
L 473.952831 173.095342 
L 473.952831 183.853976 
L 469.001087 183.853976 
L 469.001087 173.095342 
L 462.621035 173.095342 
L 462.621035 170.488751 
z
" clip-path="url(#p35f5402bf0)" style="fill: #ff0000"/>
   </g>
   <g id="patch_86">
    <path d="M 474.881494 165.476075 
L 468.074551 165.476075 
L 466.99977 170.488751 
L 462.621035 170.488751 
L 468.874303 142.972111 
L 474.067266 142.972111 
L 480.320534 170.488751 
L 475.945418 170.488751 
L 474.881494 165.476075 
z
M 469.160188 160.369044 
L 473.785 160.369044 
L 471.476213 149.423719 
L 469.160188 160.369044 
z
" clip-path="url(#p35f5402bf0)" style="fill: #008000"/>
   </g>
   <g id="patch_87">
    <path d="M 498.951586 192.050075 
Q 497.166563 192.145038 495.246671 192.192736 
Q 493.326779 192.24 491.279952 192.24 
Q 486.654758 192.24 483.953422 191.957281 
Q 481.252087 191.674563 481.252087 191.191079 
Q 481.252087 190.701958 484.001023 190.421407 
Q 486.753926 190.140857 491.541755 190.140857 
Q 493.38628 190.140857 495.076102 190.179015 
Q 496.769891 190.21674 498.26931 190.291322 
L 498.26931 190.709763 
Q 496.72229 190.613934 495.191137 190.566669 
Q 493.659983 190.518971 492.120896 190.518971 
Q 489.272792 190.518971 487.729739 190.693286 
Q 486.186685 190.867166 486.186685 191.191079 
Q 486.186685 191.511956 487.674205 191.687137 
Q 489.161724 191.861885 491.89876 191.861885 
Q 492.644503 191.861885 493.283145 191.851912 
Q 493.921787 191.841505 494.429527 191.819824 
L 494.429527 191.426967 
L 491.513988 191.426967 
L 491.513988 191.077037 
L 498.951586 191.077037 
L 498.951586 192.050075 
z
" clip-path="url(#p35f5402bf0)" style="fill: #ffa600"/>
   </g>
   <g id="patch_88">
    <path d="M 498.951586 189.881722 
Q 497.471053 190.010169 495.870116 190.07514 
Q 494.269179 190.140857 492.52554 190.140857 
Q 487.325838 190.140857 484.288962 189.653952 
Q 481.252087 189.167048 481.252087 188.334381 
Q 481.252087 187.498728 484.288962 187.01257 
Q 487.325838 186.525665 492.52554 186.525665 
Q 494.269179 186.525665 495.870116 186.591383 
Q 497.471053 186.656353 498.951586 186.7848 
L 498.951586 187.505449 
Q 497.457675 187.335182 496.008359 187.256022 
Q 494.559042 187.176863 492.958105 187.176863 
Q 490.086228 187.176863 488.440697 187.485286 
Q 486.799624 187.792961 486.799624 188.334381 
Q 486.799624 188.873561 488.440697 189.181983 
Q 490.086228 189.489659 492.958105 189.489659 
Q 494.559042 189.489659 496.008359 189.4105 
Q 497.457675 189.330594 498.951586 189.160327 
L 498.951586 189.881722 
z
" clip-path="url(#p35f5402bf0)" style="fill: #0000ff"/>
   </g>
   <g id="patch_89">
    <path d="M 493.512545 185.314737 
L 486.705603 185.314737 
L 485.630822 186.525665 
L 481.252087 186.525665 
L 487.505355 179.878378 
L 492.698318 179.878378 
L 498.951586 186.525665 
L 494.57647 186.525665 
L 493.512545 185.314737 
z
M 487.791239 184.081014 
L 492.416052 184.081014 
L 490.107265 181.436915 
L 487.791239 184.081014 
z
" clip-path="url(#p35f5402bf0)" style="fill: #008000"/>
   </g>
   <g id="patch_90">
    <path d="M 481.252087 170.315614 
L 498.951586 170.315614 
L 498.951586 172.18062 
L 492.583882 172.18062 
L 492.583882 179.878378 
L 487.632139 179.878378 
L 487.632139 172.18062 
L 481.252087 172.18062 
L 481.252087 170.315614 
z
" clip-path="url(#p35f5402bf0)" style="fill: #ff0000"/>
   </g>
   <g id="patch_91">
    <path d="M 517.582638 191.918017 
Q 515.797614 192.079009 513.877722 192.159872 
Q 511.957831 192.24 509.911004 192.24 
Q 505.28581 192.24 502.584474 191.760701 
Q 499.883139 191.281403 499.883139 190.461743 
Q 499.883139 189.632527 502.632075 189.156904 
Q 505.384978 188.681281 510.172807 188.681281 
Q 512.017331 188.681281 513.707153 188.745972 
Q 515.400942 188.809927 516.900362 188.936368 
L 516.900362 189.645759 
Q 515.353342 189.483298 513.822188 189.40317 
Q 512.291035 189.322306 510.751948 189.322306 
Q 507.903844 189.322306 506.36079 189.617825 
Q 504.817737 189.912608 504.817737 190.461743 
Q 504.817737 191.005733 506.305256 191.302721 
Q 507.792776 191.598975 510.529812 191.598975 
Q 511.275555 191.598975 511.914197 191.582067 
Q 512.552838 191.564424 513.060578 191.527668 
L 513.060578 190.861649 
L 510.14504 190.861649 
L 510.14504 190.268407 
L 517.582638 190.268407 
L 517.582638 191.918017 
z
" clip-path="url(#p35f5402bf0)" style="fill: #ffa600"/>
   </g>
   <g id="patch_92">
    <path d="M 517.582638 188.394309 
Q 516.102105 188.536554 514.501168 188.608504 
Q 512.900231 188.681281 511.156591 188.681281 
Q 505.95689 188.681281 502.920014 188.14207 
Q 499.883139 187.602859 499.883139 186.680743 
Q 499.883139 185.755318 502.920014 185.216934 
Q 505.95689 184.677723 511.156591 184.677723 
Q 512.900231 184.677723 514.501168 184.7505 
Q 516.102105 184.82245 517.582638 184.964695 
L 517.582638 185.762761 
Q 516.088727 185.574202 514.63941 185.486539 
Q 513.190094 185.398876 511.589157 185.398876 
Q 508.71728 185.398876 507.071748 185.740431 
Q 505.430676 186.08116 505.430676 186.680743 
Q 505.430676 187.277844 507.071748 187.6194 
Q 508.71728 187.960128 511.589157 187.960128 
Q 513.190094 187.960128 514.63941 187.872465 
Q 516.088727 187.783975 517.582638 187.595416 
L 517.582638 188.394309 
z
" clip-path="url(#p35f5402bf0)" style="fill: #0000ff"/>
   </g>
   <g id="patch_93">
    <path d="M 499.883139 173.334307 
L 517.582638 173.334307 
L 517.582638 175.546589 
L 511.214934 175.546589 
L 511.214934 184.677723 
L 506.263191 184.677723 
L 506.263191 175.546589 
L 499.883139 175.546589 
L 499.883139 173.334307 
z
" clip-path="url(#p35f5402bf0)" style="fill: #ff0000"/>
   </g>
   <g id="patch_94">
    <path d="M 512.143597 169.160954 
L 505.336654 169.160954 
L 504.261874 173.334307 
L 499.883139 173.334307 
L 506.136407 150.425055 
L 511.32937 150.425055 
L 517.582638 173.334307 
L 513.207521 173.334307 
L 512.143597 169.160954 
z
M 506.422291 164.909044 
L 511.047104 164.909044 
L 508.738316 155.796405 
L 506.422291 164.909044 
z
" clip-path="url(#p35f5402bf0)" style="fill: #008000"/>
   </g>
   <g id="patch_95">
    <path d="M 536.213689 192.065044 
Q 534.428666 192.152522 532.508774 192.196461 
Q 530.588882 192.24 528.542055 192.24 
Q 523.916861 192.24 521.215526 191.979563 
Q 518.51419 191.719127 518.51419 191.273748 
Q 518.51419 190.823177 521.263126 190.564737 
Q 524.016029 190.306298 528.803859 190.306298 
Q 530.648383 190.306298 532.338205 190.341449 
Q 534.031994 190.3762 535.531414 190.444904 
L 535.531414 190.830367 
Q 533.984394 190.74209 532.45324 190.69855 
Q 530.922087 190.654612 529.383 190.654612 
Q 526.534896 190.654612 524.991842 190.815188 
Q 523.448788 190.975364 523.448788 191.273748 
Q 523.448788 191.569336 524.936308 191.73071 
Q 526.423828 191.891686 529.160864 191.891686 
Q 529.906607 191.891686 530.545248 191.882499 
Q 531.18389 191.872912 531.69163 191.85294 
L 531.69163 191.491045 
L 528.776092 191.491045 
L 528.776092 191.168695 
L 536.213689 191.168695 
L 536.213689 192.065044 
z
" clip-path="url(#p35f5402bf0)" style="fill: #ffa600"/>
   </g>
   <g id="patch_96">
    <path d="M 530.774649 189.026132 
L 523.967706 189.026132 
L 522.892926 190.306298 
L 518.51419 190.306298 
L 524.767458 183.27894 
L 529.960421 183.27894 
L 536.213689 190.306298 
L 531.838573 190.306298 
L 530.774649 189.026132 
z
M 525.053343 187.721869 
L 529.678156 187.721869 
L 527.369368 184.926589 
L 525.053343 187.721869 
z
" clip-path="url(#p35f5402bf0)" style="fill: #008000"/>
   </g>
   <g id="patch_97">
    <path d="M 536.213689 182.193752 
Q 534.733157 182.731655 533.13222 183.003734 
Q 531.531282 183.27894 529.787643 183.27894 
Q 524.587941 183.27894 521.551066 181.239912 
Q 518.51419 179.200883 518.51419 175.713894 
Q 518.51419 172.214395 521.551066 170.178494 
Q 524.587941 168.139466 529.787643 168.139466 
Q 531.531282 168.139466 533.13222 168.414672 
Q 534.733157 168.686751 536.213689 169.224654 
L 536.213689 172.242542 
Q 534.719779 171.529507 533.270462 171.198009 
Q 531.821146 170.86651 530.220208 170.86651 
Q 527.348332 170.86651 525.7028 172.158103 
Q 524.061728 173.446569 524.061728 175.713894 
Q 524.061728 177.971837 525.7028 179.26343 
Q 527.348332 180.551896 530.220208 180.551896 
Q 531.821146 180.551896 533.270462 180.220397 
Q 534.719779 179.885771 536.213689 179.172737 
L 536.213689 182.193752 
z
" clip-path="url(#p35f5402bf0)" style="fill: #0000ff"/>
   </g>
   <g id="patch_98">
    <path d="M 518.51419 121.306138 
L 536.213689 121.306138 
L 536.213689 130.439941 
L 529.845986 130.439941 
L 529.845986 168.139466 
L 524.894242 168.139466 
L 524.894242 130.439941 
L 518.51419 130.439941 
L 518.51419 121.306138 
z
" clip-path="url(#p35f5402bf0)" style="fill: #ff0000"/>
   </g>
   <g id="patch_99">
    <path d="M 554.844741 191.903122 
Q 553.364209 192.070105 551.763271 192.154567 
Q 550.162334 192.24 548.418695 192.24 
Q 543.218993 192.24 540.182118 191.607019 
Q 537.145242 190.974038 537.145242 189.891562 
Q 537.145242 188.805204 540.182118 188.173193 
Q 543.218993 187.540212 548.418695 187.540212 
Q 550.162334 187.540212 551.763271 187.625645 
Q 553.364209 187.710107 554.844741 187.87709 
L 554.844741 188.813941 
Q 553.35083 188.592592 551.901514 188.489684 
Q 550.452197 188.386776 548.85126 188.386776 
Q 545.979384 188.386776 544.333852 188.787729 
Q 542.69278 189.187711 542.69278 189.891562 
Q 542.69278 190.592502 544.333852 190.993454 
Q 545.979384 191.393436 548.85126 191.393436 
Q 550.452197 191.393436 551.901514 191.290528 
Q 553.35083 191.186649 554.844741 190.9653 
L 554.844741 191.903122 
z
" clip-path="url(#p35f5402bf0)" style="fill: #0000ff"/>
   </g>
   <g id="patch_100">
    <path d="M 554.844741 187.057331 
Q 553.059718 187.298772 551.139826 187.420043 
Q 549.219934 187.540212 547.173107 187.540212 
Q 542.547913 187.540212 539.846578 186.821403 
Q 537.145242 186.102594 537.145242 184.873342 
Q 537.145242 183.629758 539.894178 182.916461 
Q 542.647081 182.203165 547.434911 182.203165 
Q 549.279435 182.203165 550.969257 182.300182 
Q 552.663046 182.396097 554.162466 182.585721 
L 554.162466 183.649603 
Q 552.615445 183.405957 551.084292 183.285788 
Q 549.553138 183.164517 548.014052 183.164517 
Q 545.165947 183.164517 543.622894 183.607709 
Q 542.07984 184.049799 542.07984 184.873342 
Q 542.07984 185.689168 543.56736 186.134565 
Q 545.054879 186.57886 547.791915 186.57886 
Q 548.537658 186.57886 549.1763 186.553503 
Q 549.814942 186.527044 550.322682 186.471921 
L 550.322682 185.473085 
L 547.407144 185.473085 
L 547.407144 184.583393 
L 554.844741 184.583393 
L 554.844741 187.057331 
z
" clip-path="url(#p35f5402bf0)" style="fill: #ffa600"/>
   </g>
   <g id="patch_101">
    <path d="M 537.145242 171.449413 
L 554.844741 171.449413 
L 554.844741 173.546694 
L 548.477038 173.546694 
L 548.477038 182.203165 
L 543.525294 182.203165 
L 543.525294 173.546694 
L 537.145242 173.546694 
L 537.145242 171.449413 
z
" clip-path="url(#p35f5402bf0)" style="fill: #ff0000"/>
   </g>
   <g id="patch_102">
    <path d="M 549.405701 164.324461 
L 542.598758 164.324461 
L 541.523977 171.449413 
L 537.145242 171.449413 
L 543.39851 132.337618 
L 548.591473 132.337618 
L 554.844741 171.449413 
L 550.469625 171.449413 
L 549.405701 164.324461 
z
M 543.684395 157.065392 
L 548.309208 157.065392 
L 546.00042 141.50785 
L 543.684395 157.065392 
z
" clip-path="url(#p35f5402bf0)" style="fill: #008000"/>
   </g>
   <g id="patch_103">
    <path d="M 573.475793 192.126217 
Q 571.99526 192.182617 570.394323 192.211144 
Q 568.793386 192.24 567.049747 192.24 
Q 561.850045 192.24 558.813169 192.026206 
Q 555.776294 191.812412 555.776294 191.446797 
Q 555.776294 191.079871 558.813169 190.866405 
Q 561.850045 190.652611 567.049747 190.652611 
Q 568.793386 190.652611 570.394323 190.681466 
Q 571.99526 190.709994 573.475793 190.766394 
L 573.475793 191.082822 
Q 571.981882 191.00806 570.532566 190.973302 
Q 569.083249 190.938544 567.482312 190.938544 
Q 564.610435 190.938544 562.964904 191.073969 
Q 561.323831 191.209066 561.323831 191.446797 
Q 561.323831 191.683545 562.964904 191.81897 
Q 564.610435 191.954067 567.482312 191.954067 
Q 569.083249 191.954067 570.532566 191.919309 
Q 571.981882 191.884223 573.475793 191.80946 
L 573.475793 192.126217 
z
" clip-path="url(#p35f5402bf0)" style="fill: #0000ff"/>
   </g>
   <g id="patch_104">
    <path d="M 573.475793 190.48311 
Q 571.69077 190.567861 569.770878 190.610429 
Q 567.850986 190.652611 565.804159 190.652611 
Q 561.178965 190.652611 558.477629 190.400295 
Q 555.776294 190.147979 555.776294 189.716489 
Q 555.776294 189.279967 558.52523 189.029586 
Q 561.278133 188.779206 566.065962 188.779206 
Q 567.910487 188.779206 569.600309 188.81326 
Q 571.294098 188.846928 572.793517 188.91349 
L 572.793517 189.286933 
Q 571.246497 189.201409 569.715344 189.159227 
Q 568.18419 189.116658 566.645103 189.116658 
Q 563.796999 189.116658 562.253946 189.272227 
Q 560.710892 189.427409 560.710892 189.716489 
Q 560.710892 190.002859 562.198412 190.159202 
Q 563.685931 190.315158 566.422967 190.315158 
Q 567.16871 190.315158 567.807352 190.306257 
Q 568.445994 190.29697 568.953734 190.27762 
L 568.953734 189.92701 
L 566.038195 189.92701 
L 566.038195 189.614711 
L 573.475793 189.614711 
L 573.475793 190.48311 
z
" clip-path="url(#p35f5402bf0)" style="fill: #ffa600"/>
   </g>
   <g id="patch_105">
    <path d="M 555.776294 185.47572 
L 573.475793 185.47572 
L 573.475793 186.119992 
L 567.108089 186.119992 
L 567.108089 188.779206 
L 562.156346 188.779206 
L 562.156346 186.119992 
L 555.776294 186.119992 
L 555.776294 185.47572 
z
" clip-path="url(#p35f5402bf0)" style="fill: #ff0000"/>
   </g>
   <g id="patch_106">
    <path d="M 568.036752 184.74888 
L 561.22981 184.74888 
L 560.155029 185.47572 
L 555.776294 185.47572 
L 562.029562 181.485796 
L 567.222525 181.485796 
L 573.475793 185.47572 
L 569.100677 185.47572 
L 568.036752 184.74888 
z
M 562.315446 184.008358 
L 566.940259 184.008358 
L 564.631472 182.421282 
L 562.315446 184.008358 
z
" clip-path="url(#p35f5402bf0)" style="fill: #008000"/>
   </g>
   <g id="patch_107">
    <path d="M 592.106845 192.141402 
Q 590.626312 192.190275 589.025375 192.214995 
Q 587.424438 192.24 585.680798 192.24 
Q 580.481097 192.24 577.444221 192.054739 
Q 574.407346 191.869477 574.407346 191.552658 
Q 574.407346 191.234702 577.444221 191.049724 
Q 580.481097 190.864463 585.680798 190.864463 
Q 587.424438 190.864463 589.025375 190.889468 
Q 590.626312 190.914188 592.106845 190.963061 
L 592.106845 191.237259 
Q 590.612934 191.172474 589.163617 191.142355 
Q 587.714301 191.112236 586.113364 191.112236 
Q 583.241487 191.112236 581.595955 191.229587 
Q 579.954883 191.346654 579.954883 191.552658 
Q 579.954883 191.757809 581.595955 191.87516 
Q 583.241487 191.992227 586.113364 191.992227 
Q 587.714301 191.992227 589.163617 191.962108 
Q 590.612934 191.931705 592.106845 191.86692 
L 592.106845 192.141402 
z
" clip-path="url(#p35f5402bf0)" style="fill: #0000ff"/>
   </g>
   <g id="patch_108">
    <path d="M 592.106845 190.36968 
Q 590.321821 190.617072 588.401929 190.741332 
Q 586.482038 190.864463 584.435211 190.864463 
Q 579.810017 190.864463 577.108681 190.127937 
Q 574.407346 189.39141 574.407346 188.131859 
Q 574.407346 186.857623 577.156282 186.126744 
Q 579.909185 185.395866 584.697014 185.395866 
Q 586.541538 185.395866 588.23136 185.495274 
Q 589.925149 185.593553 591.424569 185.787851 
L 591.424569 186.877956 
Q 589.877549 186.628305 588.346395 186.505174 
Q 586.815242 186.380914 585.276155 186.380914 
Q 582.428051 186.380914 580.884997 186.83503 
Q 579.341944 187.288016 579.341944 188.131859 
Q 579.341944 188.967794 580.829463 189.424169 
Q 582.316983 189.879415 585.054019 189.879415 
Q 585.799762 189.879415 586.438404 189.853433 
Q 587.077045 189.826322 587.584785 189.76984 
L 587.584785 188.746384 
L 584.669247 188.746384 
L 584.669247 187.834763 
L 592.106845 187.834763 
L 592.106845 190.36968 
z
" clip-path="url(#p35f5402bf0)" style="fill: #ffa600"/>
   </g>
   <g id="patch_109">
    <path d="M 586.667804 183.825157 
L 579.860861 183.825157 
L 578.786081 185.395866 
L 574.407346 185.395866 
L 580.660614 176.773598 
L 585.853577 176.773598 
L 592.106845 185.395866 
L 587.731728 185.395866 
L 586.667804 183.825157 
z
M 580.946498 182.224882 
L 585.571311 182.224882 
L 583.262523 178.795193 
L 580.946498 182.224882 
z
" clip-path="url(#p35f5402bf0)" style="fill: #008000"/>
   </g>
   <g id="patch_110">
    <path d="M 574.407346 167.010642 
L 592.106845 167.010642 
L 592.106845 168.91469 
L 585.739141 168.91469 
L 585.739141 176.773598 
L 580.787398 176.773598 
L 580.787398 168.91469 
L 574.407346 168.91469 
L 574.407346 167.010642 
z
" clip-path="url(#p35f5402bf0)" style="fill: #ff0000"/>
   </g>
   <g id="patch_111">
    <path d="M 610.737896 191.871274 
Q 608.952873 192.055637 607.032981 192.148239 
Q 605.113089 192.24 603.066262 192.24 
Q 598.441068 192.24 595.739733 191.69112 
Q 593.038397 191.142241 593.038397 190.203589 
Q 593.038397 189.253993 595.787333 188.709323 
Q 598.540236 188.164652 603.328066 188.164652 
Q 605.17259 188.164652 606.862412 188.238734 
Q 608.556201 188.311974 610.055621 188.456771 
L 610.055621 189.269146 
Q 608.508601 189.0831 606.977447 188.991339 
Q 605.446294 188.898737 603.907207 188.898737 
Q 601.059103 188.898737 599.516049 189.237156 
Q 597.972995 189.574734 597.972995 190.203589 
Q 597.972995 190.826551 599.460515 191.166654 
Q 600.948035 191.505915 603.685071 191.505915 
Q 604.430814 191.505915 605.069455 191.486553 
Q 605.708097 191.466349 606.215837 191.424257 
L 606.215837 190.66155 
L 603.300299 190.66155 
L 603.300299 189.982185 
L 610.737896 189.982185 
L 610.737896 191.871274 
z
" clip-path="url(#p35f5402bf0)" style="fill: #ffa600"/>
   </g>
   <g id="patch_112">
    <path d="M 610.737896 187.82844 
Q 609.257364 187.995093 607.656427 188.079388 
Q 606.055489 188.164652 604.31185 188.164652 
Q 599.112148 188.164652 596.075273 187.532923 
Q 593.038397 186.901193 593.038397 185.820858 
Q 593.038397 184.736648 596.075273 184.105887 
Q 599.112148 183.474158 604.31185 183.474158 
Q 606.055489 183.474158 607.656427 183.559422 
Q 609.257364 183.643717 610.737896 183.810369 
L 610.737896 184.745368 
Q 609.243986 184.524456 607.794669 184.421752 
Q 606.345353 184.319047 604.744415 184.319047 
Q 601.872539 184.319047 600.227007 184.719207 
Q 598.585935 185.118398 598.585935 185.820858 
Q 598.585935 186.520411 600.227007 186.920571 
Q 601.872539 187.319762 604.744415 187.319762 
Q 606.345353 187.319762 607.794669 187.217058 
Q 609.243986 187.113385 610.737896 186.892473 
L 610.737896 187.82844 
z
" clip-path="url(#p35f5402bf0)" style="fill: #0000ff"/>
   </g>
   <g id="patch_113">
    <path d="M 593.038397 170.786754 
L 610.737896 170.786754 
L 610.737896 173.261151 
L 604.370193 173.261151 
L 604.370193 183.474158 
L 599.418449 183.474158 
L 599.418449 173.261151 
L 593.038397 173.261151 
L 593.038397 170.786754 
z
" clip-path="url(#p35f5402bf0)" style="fill: #ff0000"/>
   </g>
   <g id="patch_114">
    <path d="M 605.298856 164.16117 
L 598.491913 164.16117 
L 597.417133 170.786754 
L 593.038397 170.786754 
L 599.291665 134.416197 
L 604.484628 134.416197 
L 610.737896 170.786754 
L 606.36278 170.786754 
L 605.298856 164.16117 
z
M 599.57755 157.41087 
L 604.202363 157.41087 
L 601.893575 142.943713 
L 599.57755 157.41087 
z
" clip-path="url(#p35f5402bf0)" style="fill: #008000"/>
   </g>
   <g id="patch_115">
    <path d="M 629.368948 191.786148 
Q 627.583925 192.013074 625.664033 192.127055 
Q 623.744141 192.24 621.697314 192.24 
Q 617.07212 192.24 614.370785 191.564403 
Q 611.669449 190.888806 611.669449 189.733451 
Q 611.669449 188.564627 614.418385 187.89421 
Q 617.171288 187.223794 621.959118 187.223794 
Q 623.803642 187.223794 625.493464 187.314979 
Q 627.187253 187.405128 628.686673 187.583353 
L 628.686673 188.583278 
Q 627.139652 188.35428 625.608499 188.241335 
Q 624.077345 188.127354 622.538259 188.127354 
Q 619.690154 188.127354 618.147101 188.543903 
Q 616.604047 188.959416 616.604047 189.733451 
Q 616.604047 190.500234 618.091567 190.918855 
Q 619.579086 191.336441 622.316122 191.336441 
Q 623.061865 191.336441 623.700507 191.312608 
Q 624.339149 191.287739 624.846889 191.23593 
L 624.846889 190.29714 
L 621.931351 190.29714 
L 621.931351 189.460933 
L 629.368948 189.460933 
L 629.368948 191.786148 
z
" clip-path="url(#p35f5402bf0)" style="fill: #ffa600"/>
   </g>
   <g id="patch_116">
    <path d="M 629.368948 186.728553 
Q 627.888416 186.974033 626.287478 187.0982 
Q 624.686541 187.223794 622.942902 187.223794 
Q 617.7432 187.223794 614.706325 186.293255 
Q 611.669449 185.362715 611.669449 183.771378 
Q 611.669449 182.174333 614.706325 181.24522 
Q 617.7432 180.314681 622.942902 180.314681 
Q 624.686541 180.314681 626.287478 180.440275 
Q 627.888416 180.564442 629.368948 180.809922 
L 629.368948 182.187177 
Q 627.875037 181.861774 626.425721 181.71049 
Q 624.976404 181.559206 623.375467 181.559206 
Q 620.503591 181.559206 618.858059 182.148643 
Q 617.216987 182.736652 617.216987 183.771378 
Q 617.216987 184.801822 618.858059 185.391259 
Q 620.503591 185.979269 623.375467 185.979269 
Q 624.976404 185.979269 626.425721 185.827985 
Q 627.875037 185.675274 629.368948 185.34987 
L 629.368948 186.728553 
z
" clip-path="url(#p35f5402bf0)" style="fill: #0000ff"/>
   </g>
   <g id="patch_117">
    <path d="M 611.669449 170.944787 
L 629.368948 170.944787 
L 629.368948 172.772177 
L 623.001245 172.772177 
L 623.001245 180.314681 
L 618.049501 180.314681 
L 618.049501 172.772177 
L 611.669449 172.772177 
L 611.669449 170.944787 
z
" clip-path="url(#p35f5402bf0)" style="fill: #ff0000"/>
   </g>
   <g id="patch_118">
    <path d="M 623.929908 161.858545 
L 617.122965 161.858545 
L 616.048184 170.944787 
L 611.669449 170.944787 
L 617.922717 121.066665 
L 623.11568 121.066665 
L 629.368948 170.944787 
L 624.993832 170.944787 
L 623.929908 161.858545 
z
M 618.208602 152.601268 
L 622.833415 152.601268 
L 620.524627 132.761192 
L 618.208602 152.601268 
z
" clip-path="url(#p35f5402bf0)" style="fill: #008000"/>
   </g>
   <g id="patch_119">
    <path d="M 648 192.155385 
Q 646.519467 192.197327 644.91853 192.218541 
Q 643.317593 192.24 641.573954 192.24 
Q 636.374252 192.24 633.337376 192.081011 
Q 630.300501 191.922022 630.300501 191.650132 
Q 630.300501 191.377266 633.337376 191.218521 
Q 636.374252 191.059532 641.573954 191.059532 
Q 643.317593 191.059532 644.91853 191.080991 
Q 646.519467 191.102206 648 191.144148 
L 648 191.379461 
Q 646.506089 191.323863 645.056773 191.298016 
Q 643.607456 191.272168 642.006519 191.272168 
Q 639.134642 191.272168 637.489111 191.372877 
Q 635.848038 191.473342 635.848038 191.650132 
Q 635.848038 191.82619 637.489111 191.926899 
Q 639.134642 192.027365 642.006519 192.027365 
Q 643.607456 192.027365 645.056773 192.001517 
Q 646.506089 191.975425 648 191.919828 
L 648 192.155385 
z
" clip-path="url(#p35f5402bf0)" style="fill: #0000ff"/>
   </g>
   <g id="patch_120">
    <path d="M 648 190.949478 
Q 646.214977 191.004505 644.295085 191.032144 
Q 642.375193 191.059532 640.328366 191.059532 
Q 635.703172 191.059532 633.001836 190.895707 
Q 630.300501 190.731882 630.300501 190.451721 
Q 630.300501 190.168294 633.049437 190.005726 
Q 635.80234 189.843157 640.590169 189.843157 
Q 642.434694 189.843157 644.124516 189.865268 
Q 645.818305 189.887128 647.317724 189.930346 
L 647.317724 190.172817 
Q 645.770704 190.117287 644.239551 190.089899 
Q 642.708397 190.06226 641.16931 190.06226 
Q 638.321206 190.06226 636.778153 190.163269 
Q 635.235099 190.264026 635.235099 190.451721 
Q 635.235099 190.637658 636.722619 190.739169 
Q 638.210138 190.840429 640.947174 190.840429 
Q 641.692917 190.840429 642.331559 190.83465 
Q 642.970201 190.828619 643.477941 190.816056 
L 643.477941 190.58841 
L 640.562402 190.58841 
L 640.562402 190.385639 
L 648 190.385639 
L 648 190.949478 
z
" clip-path="url(#p35f5402bf0)" style="fill: #ffa600"/>
   </g>
   <g id="patch_121">
    <path d="M 630.300501 187.764995 
L 648 187.764995 
L 648 188.170295 
L 641.632296 188.170295 
L 641.632296 189.843157 
L 636.680553 189.843157 
L 636.680553 188.170295 
L 630.300501 188.170295 
L 630.300501 187.764995 
z
" clip-path="url(#p35f5402bf0)" style="fill: #ff0000"/>
   </g>
   <g id="patch_122">
    <path d="M 642.560959 187.350442 
L 635.754017 187.350442 
L 634.679236 187.764995 
L 630.300501 187.764995 
L 636.553769 185.489341 
L 641.746732 185.489341 
L 648 187.764995 
L 643.624884 187.764995 
L 642.560959 187.350442 
z
M 636.839653 186.928085 
L 641.464466 186.928085 
L 639.155679 186.022895 
L 636.839653 186.928085 
z
" clip-path="url(#p35f5402bf0)" style="fill: #008000"/>
   </g>
   <g id="matplotlib.axis_1">
    <g id="xtick_1">
     <g id="line2d_2">
      <defs>
       <path id="me45057dfe2" d="M 0 0 
L 0 3.5 
" style="stroke: #000000; stroke-width: 0.8"/>
      </defs>
      <g>
       <use xlink:href="#me45057dfe2" x="98.84975" y="192.24" style="stroke: #000000; stroke-width: 0.8"/>
      </g>
     </g>
     <g id="text_1">
      <!-- 0 -->
      <g transform="translate(95.6685 206.838437) scale(0.1 -0.1)">
       <defs>
        <path id="DejaVuSans-30" d="M 2034 4250 
Q 1547 4250 1301 3770 
Q 1056 3291 1056 2328 
Q 1056 1369 1301 889 
Q 1547 409 2034 409 
Q 2525 409 2770 889 
Q 3016 1369 3016 2328 
Q 3016 3291 2770 3770 
Q 2525 4250 2034 4250 
z
M 2034 4750 
Q 2819 4750 3233 4129 
Q 3647 3509 3647 2328 
Q 3647 1150 3233 529 
Q 2819 -91 2034 -91 
Q 1250 -91 836 529 
Q 422 1150 422 2328 
Q 422 3509 836 4129 
Q 1250 4750 2034 4750 
z
" transform="scale(0.015625)"/>
       </defs>
       <use xlink:href="#DejaVuSans-30"/>
      </g>
     </g>
    </g>
    <g id="xtick_2">
     <g id="line2d_3">
      <g>
       <use xlink:href="#me45057dfe2" x="192.005008" y="192.24" style="stroke: #000000; stroke-width: 0.8"/>
      </g>
     </g>
     <g id="text_2">
      <!-- 5 -->
      <g transform="translate(188.823758 206.838437) scale(0.1 -0.1)">
       <defs>
        <path id="DejaVuSans-35" d="M 691 4666 
L 3169 4666 
L 3169 4134 
L 1269 4134 
L 1269 2991 
Q 1406 3038 1543 3061 
Q 1681 3084 1819 3084 
Q 2600 3084 3056 2656 
Q 3513 2228 3513 1497 
Q 3513 744 3044 326 
Q 2575 -91 1722 -91 
Q 1428 -91 1123 -41 
Q 819 9 494 109 
L 494 744 
Q 775 591 1075 516 
Q 1375 441 1709 441 
Q 2250 441 2565 725 
Q 2881 1009 2881 1497 
Q 2881 1984 2565 2268 
Q 2250 2553 1709 2553 
Q 1456 2553 1204 2497 
Q 953 2441 691 2322 
L 691 4666 
z
" transform="scale(0.015625)"/>
       </defs>
       <use xlink:href="#DejaVuSans-35"/>
      </g>
     </g>
    </g>
    <g id="xtick_3">
     <g id="line2d_4">
      <g>
       <use xlink:href="#me45057dfe2" x="285.160267" y="192.24" style="stroke: #000000; stroke-width: 0.8"/>
      </g>
     </g>
     <g id="text_3">
      <!-- 10 -->
      <g transform="translate(278.797767 206.838437) scale(0.1 -0.1)">
       <defs>
        <path id="DejaVuSans-31" d="M 794 531 
L 1825 531 
L 1825 4091 
L 703 3866 
L 703 4441 
L 1819 4666 
L 2450 4666 
L 2450 531 
L 3481 531 
L 3481 0 
L 794 0 
L 794 531 
z
" transform="scale(0.015625)"/>
       </defs>
       <use xlink:href="#DejaVuSans-31"/>
       <use xlink:href="#DejaVuSans-30" x="63.623047"/>
      </g>
     </g>
    </g>
    <g id="xtick_4">
     <g id="line2d_5">
      <g>
       <use xlink:href="#me45057dfe2" x="378.315526" y="192.24" style="stroke: #000000; stroke-width: 0.8"/>
      </g>
     </g>
     <g id="text_4">
      <!-- 15 -->
      <g transform="translate(371.953026 206.838437) scale(0.1 -0.1)">
       <use xlink:href="#DejaVuSans-31"/>
       <use xlink:href="#DejaVuSans-35" x="63.623047"/>
      </g>
     </g>
    </g>
    <g id="xtick_5">
     <g id="line2d_6">
      <g>
       <use xlink:href="#me45057dfe2" x="471.470785" y="192.24" style="stroke: #000000; stroke-width: 0.8"/>
      </g>
     </g>
     <g id="text_5">
      <!-- 20 -->
      <g transform="translate(465.108285 206.838437) scale(0.1 -0.1)">
       <defs>
        <path id="DejaVuSans-32" d="M 1228 531 
L 3431 531 
L 3431 0 
L 469 0 
L 469 531 
Q 828 903 1448 1529 
Q 2069 2156 2228 2338 
Q 2531 2678 2651 2914 
Q 2772 3150 2772 3378 
Q 2772 3750 2511 3984 
Q 2250 4219 1831 4219 
Q 1534 4219 1204 4116 
Q 875 4013 500 3803 
L 500 4441 
Q 881 4594 1212 4672 
Q 1544 4750 1819 4750 
Q 2544 4750 2975 4387 
Q 3406 4025 3406 3419 
Q 3406 3131 3298 2873 
Q 3191 2616 2906 2266 
Q 2828 2175 2409 1742 
Q 1991 1309 1228 531 
z
" transform="scale(0.015625)"/>
       </defs>
       <use xlink:href="#DejaVuSans-32"/>
       <use xlink:href="#DejaVuSans-30" x="63.623047"/>
      </g>
     </g>
    </g>
    <g id="xtick_6">
     <g id="line2d_7">
      <g>
       <use xlink:href="#me45057dfe2" x="564.626043" y="192.24" style="stroke: #000000; stroke-width: 0.8"/>
      </g>
     </g>
     <g id="text_6">
      <!-- 25 -->
      <g transform="translate(558.263543 206.838437) scale(0.1 -0.1)">
       <use xlink:href="#DejaVuSans-32"/>
       <use xlink:href="#DejaVuSans-35" x="63.623047"/>
      </g>
     </g>
    </g>
   </g>
   <g id="matplotlib.axis_2">
    <g id="ytick_1">
     <g id="line2d_8">
      <defs>
       <path id="m215a651835" d="M 0 0 
L -3.5 0 
" style="stroke: #000000; stroke-width: 0.8"/>
      </defs>
      <g>
       <use xlink:href="#m215a651835" x="90" y="192.24" style="stroke: #000000; stroke-width: 0.8"/>
      </g>
     </g>
     <g id="text_7">
      <!-- 0.0 -->
      <g transform="translate(67.096875 196.039219) scale(0.1 -0.1)">
       <defs>
        <path id="DejaVuSans-2e" d="M 684 794 
L 1344 794 
L 1344 0 
L 684 0 
L 684 794 
z
" transform="scale(0.015625)"/>
       </defs>
       <use xlink:href="#DejaVuSans-30"/>
       <use xlink:href="#DejaVuSans-2e" x="63.623047"/>
       <use xlink:href="#DejaVuSans-30" x="95.410156"/>
      </g>
     </g>
    </g>
    <g id="ytick_2">
     <g id="line2d_9">
      <g>
       <use xlink:href="#m215a651835" x="90" y="170.643031" style="stroke: #000000; stroke-width: 0.8"/>
      </g>
     </g>
     <g id="text_8">
      <!-- 0.2 -->
      <g transform="translate(67.096875 174.442249) scale(0.1 -0.1)">
       <use xlink:href="#DejaVuSans-30"/>
       <use xlink:href="#DejaVuSans-2e" x="63.623047"/>
       <use xlink:href="#DejaVuSans-32" x="95.410156"/>
      </g>
     </g>
    </g>
    <g id="ytick_3">
     <g id="line2d_10">
      <g>
       <use xlink:href="#m215a651835" x="90" y="149.046061" style="stroke: #000000; stroke-width: 0.8"/>
      </g>
     </g>
     <g id="text_9">
      <!-- 0.4 -->
      <g transform="translate(67.096875 152.84528) scale(0.1 -0.1)">
       <defs>
        <path id="DejaVuSans-34" d="M 2419 4116 
L 825 1625 
L 2419 1625 
L 2419 4116 
z
M 2253 4666 
L 3047 4666 
L 3047 1625 
L 3713 1625 
L 3713 1100 
L 3047 1100 
L 3047 0 
L 2419 0 
L 2419 1100 
L 313 1100 
L 313 1709 
L 2253 4666 
z
" transform="scale(0.015625)"/>
       </defs>
       <use xlink:href="#DejaVuSans-30"/>
       <use xlink:href="#DejaVuSans-2e" x="63.623047"/>
       <use xlink:href="#DejaVuSans-34" x="95.410156"/>
      </g>
     </g>
    </g>
    <g id="ytick_4">
     <g id="line2d_11">
      <g>
       <use xlink:href="#m215a651835" x="90" y="127.449092" style="stroke: #000000; stroke-width: 0.8"/>
      </g>
     </g>
     <g id="text_10">
      <!-- 0.6 -->
      <g transform="translate(67.096875 131.248311) scale(0.1 -0.1)">
       <defs>
        <path id="DejaVuSans-36" d="M 2113 2584 
Q 1688 2584 1439 2293 
Q 1191 2003 1191 1497 
Q 1191 994 1439 701 
Q 1688 409 2113 409 
Q 2538 409 2786 701 
Q 3034 994 3034 1497 
Q 3034 2003 2786 2293 
Q 2538 2584 2113 2584 
z
M 3366 4563 
L 3366 3988 
Q 3128 4100 2886 4159 
Q 2644 4219 2406 4219 
Q 1781 4219 1451 3797 
Q 1122 3375 1075 2522 
Q 1259 2794 1537 2939 
Q 1816 3084 2150 3084 
Q 2853 3084 3261 2657 
Q 3669 2231 3669 1497 
Q 3669 778 3244 343 
Q 2819 -91 2113 -91 
Q 1303 -91 875 529 
Q 447 1150 447 2328 
Q 447 3434 972 4092 
Q 1497 4750 2381 4750 
Q 2619 4750 2861 4703 
Q 3103 4656 3366 4563 
z
" transform="scale(0.015625)"/>
       </defs>
       <use xlink:href="#DejaVuSans-30"/>
       <use xlink:href="#DejaVuSans-2e" x="63.623047"/>
       <use xlink:href="#DejaVuSans-36" x="95.410156"/>
      </g>
     </g>
    </g>
    <g id="ytick_5">
     <g id="line2d_12">
      <g>
       <use xlink:href="#m215a651835" x="90" y="105.852123" style="stroke: #000000; stroke-width: 0.8"/>
      </g>
     </g>
     <g id="text_11">
      <!-- 0.8 -->
      <g transform="translate(67.096875 109.651341) scale(0.1 -0.1)">
       <defs>
        <path id="DejaVuSans-38" d="M 2034 2216 
Q 1584 2216 1326 1975 
Q 1069 1734 1069 1313 
Q 1069 891 1326 650 
Q 1584 409 2034 409 
Q 2484 409 2743 651 
Q 3003 894 3003 1313 
Q 3003 1734 2745 1975 
Q 2488 2216 2034 2216 
z
M 1403 2484 
Q 997 2584 770 2862 
Q 544 3141 544 3541 
Q 544 4100 942 4425 
Q 1341 4750 2034 4750 
Q 2731 4750 3128 4425 
Q 3525 4100 3525 3541 
Q 3525 3141 3298 2862 
Q 3072 2584 2669 2484 
Q 3125 2378 3379 2068 
Q 3634 1759 3634 1313 
Q 3634 634 3220 271 
Q 2806 -91 2034 -91 
Q 1263 -91 848 271 
Q 434 634 434 1313 
Q 434 1759 690 2068 
Q 947 2378 1403 2484 
z
M 1172 3481 
Q 1172 3119 1398 2916 
Q 1625 2713 2034 2713 
Q 2441 2713 2670 2916 
Q 2900 3119 2900 3481 
Q 2900 3844 2670 4047 
Q 2441 4250 2034 4250 
Q 1625 4250 1398 4047 
Q 1172 3844 1172 3481 
z
" transform="scale(0.015625)"/>
       </defs>
       <use xlink:href="#DejaVuSans-30"/>
       <use xlink:href="#DejaVuSans-2e" x="63.623047"/>
       <use xlink:href="#DejaVuSans-38" x="95.410156"/>
      </g>
     </g>
    </g>
    <g id="ytick_6">
     <g id="line2d_13">
      <g>
       <use xlink:href="#m215a651835" x="90" y="84.255153" style="stroke: #000000; stroke-width: 0.8"/>
      </g>
     </g>
     <g id="text_12">
      <!-- 1.0 -->
      <g transform="translate(67.096875 88.054372) scale(0.1 -0.1)">
       <use xlink:href="#DejaVuSans-31"/>
       <use xlink:href="#DejaVuSans-2e" x="63.623047"/>
       <use xlink:href="#DejaVuSans-30" x="95.410156"/>
      </g>
     </g>
    </g>
    <g id="ytick_7">
     <g id="line2d_14">
      <g>
       <use xlink:href="#m215a651835" x="90" y="62.658184" style="stroke: #000000; stroke-width: 0.8"/>
      </g>
     </g>
     <g id="text_13">
      <!-- 1.2 -->
      <g transform="translate(67.096875 66.457403) scale(0.1 -0.1)">
       <use xlink:href="#DejaVuSans-31"/>
       <use xlink:href="#DejaVuSans-2e" x="63.623047"/>
       <use xlink:href="#DejaVuSans-32" x="95.410156"/>
      </g>
     </g>
    </g>
    <g id="ytick_8">
     <g id="line2d_15">
      <g>
       <use xlink:href="#m215a651835" x="90" y="41.061215" style="stroke: #000000; stroke-width: 0.8"/>
      </g>
     </g>
     <g id="text_14">
      <!-- 1.4 -->
      <g transform="translate(67.096875 44.860433) scale(0.1 -0.1)">
       <use xlink:href="#DejaVuSans-31"/>
       <use xlink:href="#DejaVuSans-2e" x="63.623047"/>
       <use xlink:href="#DejaVuSans-34" x="95.410156"/>
      </g>
     </g>
    </g>
   </g>
  </g>
 </g>
 <defs>
  <clipPath id="p35f5402bf0">
   <rect x="90" y="25.92" width="558" height="166.32"/>
  </clipPath>
 </defs>
</svg>
