<?xml version="1.0" encoding="utf-8" standalone="no"?>
<!DOCTYPE svg PUBLIC "-//W3C//DTD SVG 1.1//EN"
  "http://www.w3.org/Graphics/SVG/1.1/DTD/svg11.dtd">
<svg xmlns:xlink="http://www.w3.org/1999/xlink" width="720pt" height="216pt" viewBox="0 0 720 216" xmlns="http://www.w3.org/2000/svg" version="1.1">
 <metadata>
  <rdf:RDF xmlns:dc="http://purl.org/dc/elements/1.1/" xmlns:cc="http://creativecommons.org/ns#" xmlns:rdf="http://www.w3.org/1999/02/22-rdf-syntax-ns#">
   <cc:Work>
    <dc:type rdf:resource="http://purl.org/dc/dcmitype/StillImage"/>
    <dc:date>2025-12-17T10:23:05.622284</dc:date>
    <dc:format>image/svg+xml</dc:format>
    <dc:creator>
     <cc:Agent>
      <dc:title>Matplotlib v3.8.2, https://matplotlib.org/</dc:title>
     </cc:Agent>
    </dc:creator>
   </cc:Work>
  </rdf:RDF>
 </metadata>
 <defs>
  <style type="text/css">*{stroke-linejoin: round; stroke-linecap: butt}</style>
 </defs>
 <g id="figure_1">
  <g id="patch_1">
   <path d="M 0 216 
L 720 216 
L 720 0 
L 0 0 
z
" style="fill: #ffffff"/>
  </g>
  <g id="axes_1">
   <g id="patch_2">
    <path d="M 90 192.24 
L 648 192.24 
L 648 25.92 
L 90 25.92 
z
" style="fill: #ffffff"/>
   </g>
   <g id="line2d_1">
    <path d="M 90 192.24 
L 648 192.24 
" clip-path="url(#pc5da84227a)" style="fill: none; stroke: #000000; stroke-width: 0.5; stroke-linecap: square"/>
   </g>
   <g id="patch_3">
    <path d="M 110.427746 192.096573 
Q 108.719 192.167666 106.87129 192.203627 
Q 105.02358 192.24 103.011172 192.24 
Q 97.009975 192.24 93.504987 191.970506 
Q 90 191.701011 90 191.240143 
Q 90 190.777622 93.504987 190.508541 
Q 97.009975 190.239047 103.011172 190.239047 
Q 105.02358 190.239047 106.87129 190.27542 
Q 108.719 190.31138 110.427746 190.382474 
L 110.427746 190.781342 
Q 108.70356 190.687101 107.030842 190.643288 
Q 105.358124 190.599474 103.510414 190.599474 
Q 100.195859 190.599474 98.296681 190.770182 
Q 96.402649 190.940476 96.402649 191.240143 
Q 96.402649 191.538571 98.296681 191.709278 
Q 100.195859 191.879572 103.510414 191.879572 
Q 105.358124 191.879572 107.030842 191.835759 
Q 108.70356 191.791532 110.427746 191.697291 
L 110.427746 192.096573 
z
" clip-path="url(#pc5da84227a)" style="fill: #0000ff"/>
   </g>
   <g id="patch_4">
    <path d="M 90 187.571109 
L 110.427746 187.571109 
L 110.427746 188.091431 
L 103.078508 188.091431 
L 103.078508 190.239047 
L 97.36349 190.239047 
L 97.36349 188.091431 
L 90 188.091431 
L 90 187.571109 
z
" clip-path="url(#pc5da84227a)" style="fill: #ff0000"/>
   </g>
   <g id="patch_5">
    <path d="M 104.150317 186.558577 
L 96.294135 186.558577 
L 95.053685 187.571109 
L 90 187.571109 
L 97.217163 182.012904 
L 103.210583 182.012904 
L 110.427746 187.571109 
L 105.378237 187.571109 
L 104.150317 186.558577 
z
M 97.547114 185.526985 
L 102.884808 185.526985 
L 100.220138 183.316092 
L 97.547114 185.526985 
z
" clip-path="url(#pc5da84227a)" style="fill: #008000"/>
   </g>
   <g id="patch_6">
    <path d="M 110.427746 181.489898 
Q 108.367574 181.751401 106.151745 181.88275 
Q 103.935916 182.012904 101.573586 182.012904 
Q 96.235453 182.012904 93.117726 181.234365 
Q 90 180.455826 90 179.124429 
Q 90 177.777509 93.172664 177.004941 
Q 96.349907 176.232372 101.875745 176.232372 
Q 104.004589 176.232372 105.954884 176.337451 
Q 107.909758 176.441336 109.640302 176.646717 
L 109.640302 177.799003 
Q 107.85482 177.535111 106.087651 177.404957 
Q 104.320481 177.273608 102.544156 177.273608 
Q 99.257038 177.273608 97.476134 177.753628 
Q 95.69523 178.232453 95.69523 179.124429 
Q 95.69523 180.008047 97.412039 180.490455 
Q 99.128849 180.971668 102.287779 180.971668 
Q 103.148473 180.971668 103.885556 180.944204 
Q 104.62264 180.915547 105.208644 180.855843 
L 105.208644 179.774008 
L 101.843697 179.774008 
L 101.843697 178.810387 
L 110.427746 178.810387 
L 110.427746 181.489898 
z
" clip-path="url(#pc5da84227a)" style="fill: #ffa600"/>
   </g>
   <g id="patch_7">
    <path d="M 131.930636 192.049363 
Q 129.870464 192.144682 127.654635 192.192558 
Q 125.438806 192.24 123.076476 192.24 
Q 117.738343 192.24 114.620616 191.956221 
Q 111.50289 191.672441 111.50289 191.187144 
Q 111.50289 190.696189 114.675554 190.414585 
Q 117.852797 190.132982 123.378635 190.132982 
Q 125.507479 190.132982 127.457774 190.171284 
Q 129.412648 190.20915 131.143192 190.284012 
L 131.143192 190.704023 
Q 129.35771 190.607834 127.590541 190.560392 
Q 125.823372 190.512515 124.047046 190.512515 
Q 120.759928 190.512515 118.979024 190.687484 
Q 117.19812 190.862017 117.19812 191.187144 
Q 117.19812 191.509225 118.91493 191.685064 
Q 120.631739 191.860467 123.790669 191.860467 
Q 124.651363 191.860467 125.388447 191.850456 
Q 126.12553 191.84001 126.711535 191.818248 
L 126.711535 191.423917 
L 123.346588 191.423917 
L 123.346588 191.072675 
L 131.930636 191.072675 
L 131.930636 192.049363 
z
" clip-path="url(#pc5da84227a)" style="fill: #ffa600"/>
   </g>
   <g id="patch_8">
    <path d="M 131.930636 189.755408 
Q 130.22189 189.942563 128.37418 190.037229 
Q 126.52647 190.132982 124.514062 190.132982 
Q 118.512865 190.132982 115.007878 189.423534 
Q 111.50289 188.714086 111.50289 187.500843 
Q 111.50289 186.283247 115.007878 185.574887 
Q 118.512865 184.865438 124.514062 184.865438 
Q 126.52647 184.865438 128.37418 184.961192 
Q 130.22189 185.055858 131.930636 185.243013 
L 131.930636 186.29304 
Q 130.20645 186.04495 128.533732 185.929611 
Q 126.861014 185.814271 125.013304 185.814271 
Q 121.698749 185.814271 119.799571 186.263661 
Q 117.90554 186.711962 117.90554 187.500843 
Q 117.90554 188.286458 119.799571 188.735848 
Q 121.698749 189.18415 125.013304 189.18415 
Q 126.861014 189.18415 128.533732 189.06881 
Q 130.20645 188.952382 131.930636 188.704293 
L 131.930636 189.755408 
z
" clip-path="url(#pc5da84227a)" style="fill: #0000ff"/>
   </g>
   <g id="patch_9">
    <path d="M 125.653208 182.178607 
L 117.797025 182.178607 
L 116.556575 184.865438 
L 111.50289 184.865438 
L 118.720053 170.116315 
L 124.713473 170.116315 
L 131.930636 184.865438 
L 126.881128 184.865438 
L 125.653208 182.178607 
z
M 119.050005 179.4412 
L 124.387698 179.4412 
L 121.723028 173.574425 
L 119.050005 179.4412 
z
" clip-path="url(#pc5da84227a)" style="fill: #008000"/>
   </g>
   <g id="patch_10">
    <path d="M 111.50289 154.313683 
L 131.930636 154.313683 
L 131.930636 157.395637 
L 124.581398 157.395637 
L 124.581398 170.116315 
L 118.86638 170.116315 
L 118.86638 157.395637 
L 111.50289 157.395637 
L 111.50289 154.313683 
z
" clip-path="url(#pc5da84227a)" style="fill: #ff0000"/>
   </g>
   <g id="patch_11">
    <path d="M 133.00578 187.768158 
L 153.433526 187.768158 
L 153.433526 188.640292 
L 146.084288 188.640292 
L 146.084288 192.24 
L 140.36927 192.24 
L 140.36927 188.640292 
L 133.00578 188.640292 
L 133.00578 187.768158 
z
" clip-path="url(#pc5da84227a)" style="fill: #ff0000"/>
   </g>
   <g id="patch_12">
    <path d="M 153.433526 187.394196 
Q 151.72478 187.579561 149.87707 187.673321 
Q 148.02936 187.768158 146.016952 187.768158 
Q 140.015755 187.768158 136.510768 187.065498 
Q 133.00578 186.362837 133.00578 185.161201 
Q 133.00578 183.955254 136.510768 183.253671 
Q 140.015755 182.55101 146.016952 182.55101 
Q 148.02936 182.55101 149.87707 182.645847 
Q 151.72478 182.739607 153.433526 182.924972 
L 153.433526 183.964953 
Q 151.70934 183.719237 150.036622 183.605001 
Q 148.363904 183.490765 146.516194 183.490765 
Q 143.201639 183.490765 141.302461 183.935855 
Q 139.40843 184.379868 139.40843 185.161201 
Q 139.40843 185.9393 141.302461 186.384391 
Q 143.201639 186.828403 146.516194 186.828403 
Q 148.363904 186.828403 150.036622 186.714167 
Q 151.70934 186.598853 153.433526 186.353138 
L 153.433526 187.394196 
z
" clip-path="url(#pc5da84227a)" style="fill: #0000ff"/>
   </g>
   <g id="patch_13">
    <path d="M 147.156098 180.378662 
L 139.299915 180.378662 
L 138.059465 182.55101 
L 133.00578 182.55101 
L 140.222943 170.626099 
L 146.216363 170.626099 
L 153.433526 182.55101 
L 148.384018 182.55101 
L 147.156098 180.378662 
z
M 140.552895 178.165423 
L 145.890588 178.165423 
L 143.225918 173.422038 
L 140.552895 178.165423 
z
" clip-path="url(#pc5da84227a)" style="fill: #008000"/>
   </g>
   <g id="patch_14">
    <path d="M 153.433526 167.726468 
Q 151.373354 169.176284 149.157525 169.904501 
Q 146.941696 170.626099 144.579366 170.626099 
Q 139.241233 170.626099 136.123507 166.309754 
Q 133.00578 161.993409 133.00578 154.61193 
Q 133.00578 147.144389 136.178445 142.861145 
Q 139.355687 138.577901 144.881525 138.577901 
Q 147.010369 138.577901 148.960665 139.160475 
Q 150.915539 139.736429 152.646083 140.875096 
L 152.646083 147.263551 
Q 150.860601 145.800496 149.093431 145.078898 
Q 147.326262 144.350681 145.549936 144.350681 
Q 142.262818 144.350681 140.481914 147.011985 
Q 138.70101 149.66667 138.70101 154.61193 
Q 138.70101 159.510849 140.41782 162.185394 
Q 142.134629 164.853319 145.293559 164.853319 
Q 146.154253 164.853319 146.891337 164.701055 
Q 147.62842 164.542171 148.214425 164.211163 
L 148.214425 158.213297 
L 144.849478 158.213297 
L 144.849478 152.870828 
L 153.433526 152.870828 
L 153.433526 167.726468 
z
" clip-path="url(#pc5da84227a)" style="fill: #ffa600"/>
   </g>
   <g id="patch_15">
    <path d="M 154.508671 189.814702 
L 174.936416 189.814702 
L 174.936416 190.287702 
L 167.587178 190.287702 
L 167.587178 192.24 
L 161.87216 192.24 
L 161.87216 190.287702 
L 154.508671 190.287702 
L 154.508671 189.814702 
z
" clip-path="url(#pc5da84227a)" style="fill: #ff0000"/>
   </g>
   <g id="patch_16">
    <path d="M 168.658988 189.274707 
L 160.802805 189.274707 
L 159.562355 189.814702 
L 154.508671 189.814702 
L 161.725834 186.850448 
L 167.719253 186.850448 
L 174.936416 189.814702 
L 169.886908 189.814702 
L 168.658988 189.274707 
z
M 162.055785 188.724548 
L 167.393478 188.724548 
L 164.728808 187.545453 
L 162.055785 188.724548 
z
" clip-path="url(#pc5da84227a)" style="fill: #008000"/>
   </g>
   <g id="patch_17">
    <path d="M 174.936416 186.314054 
Q 172.876245 186.582251 170.660416 186.716962 
Q 168.444587 186.850448 166.082257 186.850448 
Q 160.744123 186.850448 157.626397 186.05198 
Q 154.508671 185.253511 154.508671 183.888032 
Q 154.508671 182.506632 157.681335 181.714287 
Q 160.858577 180.921941 166.384415 180.921941 
Q 168.513259 180.921941 170.463555 181.02971 
Q 172.418429 181.136254 174.148973 181.346893 
L 174.148973 182.528676 
Q 172.363491 182.258029 170.596321 182.124543 
Q 168.829152 181.989832 167.052826 181.989832 
Q 163.765708 181.989832 161.984804 182.482139 
Q 160.2039 182.973222 160.2039 183.888032 
Q 160.2039 184.794269 161.92071 185.289026 
Q 163.63752 185.782558 166.796449 185.782558 
Q 167.657143 185.782558 168.394227 185.754391 
Q 169.131311 185.724999 169.717315 185.663767 
L 169.717315 184.554239 
L 166.352368 184.554239 
L 166.352368 183.56595 
L 174.936416 183.56595 
L 174.936416 186.314054 
z
" clip-path="url(#pc5da84227a)" style="fill: #ffa600"/>
   </g>
   <g id="patch_18">
    <path d="M 174.936416 180.342461 
Q 173.227671 180.629696 171.379961 180.774984 
Q 169.532251 180.921941 167.519842 180.921941 
Q 161.518645 180.921941 158.013658 179.83312 
Q 154.508671 178.7443 154.508671 176.882282 
Q 154.508671 175.013585 158.013658 173.926434 
Q 161.518645 172.837614 167.519842 172.837614 
Q 169.532251 172.837614 171.379961 172.984571 
Q 173.227671 173.129858 174.936416 173.417093 
L 174.936416 175.028615 
Q 173.21223 174.647862 171.539512 174.470845 
Q 169.866794 174.293828 168.019084 174.293828 
Q 164.704529 174.293828 162.805351 174.983526 
Q 160.91132 175.671554 160.91132 176.882282 
Q 160.91132 178.088001 162.805351 178.777699 
Q 164.704529 179.465727 168.019084 179.465727 
Q 169.866794 179.465727 171.539512 179.28871 
Q 173.21223 179.110023 174.936416 178.72927 
L 174.936416 180.342461 
z
" clip-path="url(#pc5da84227a)" style="fill: #0000ff"/>
   </g>
   <g id="patch_19">
    <path d="M 176.011561 187.23625 
L 196.439306 187.23625 
L 196.439306 188.21212 
L 189.090069 188.21212 
L 189.090069 192.24 
L 183.37505 192.24 
L 183.37505 188.21212 
L 176.011561 188.21212 
L 176.011561 187.23625 
z
" clip-path="url(#pc5da84227a)" style="fill: #ff0000"/>
   </g>
   <g id="patch_20">
    <path d="M 190.161878 186.12216 
L 182.305695 186.12216 
L 181.065245 187.23625 
L 176.011561 187.23625 
L 183.228724 181.120555 
L 189.222143 181.120555 
L 196.439306 187.23625 
L 191.389798 187.23625 
L 190.161878 186.12216 
z
M 183.558675 184.9871 
L 188.896369 184.9871 
L 186.231698 182.554453 
L 183.558675 184.9871 
z
" clip-path="url(#pc5da84227a)" style="fill: #008000"/>
   </g>
   <g id="patch_21">
    <path d="M 196.439306 180.567224 
Q 194.379135 180.843889 192.163306 180.982854 
Q 189.947477 181.120555 187.585147 181.120555 
Q 182.247013 181.120555 179.129287 180.296875 
Q 176.011561 179.473195 176.011561 178.064602 
Q 176.011561 176.639586 179.184225 175.822223 
Q 182.361467 175.00486 187.887305 175.00486 
Q 190.016149 175.00486 191.966445 175.116031 
Q 193.921319 175.225939 195.651863 175.443229 
L 195.651863 176.662326 
Q 193.866381 176.383134 192.099212 176.245432 
Q 190.332042 176.106468 188.555716 176.106468 
Q 185.268598 176.106468 183.487694 176.61432 
Q 181.706791 177.120908 181.706791 178.064602 
Q 181.706791 178.999453 183.4236 179.509832 
Q 185.14041 180.018946 188.29934 180.018946 
Q 189.160033 180.018946 189.897117 179.98989 
Q 190.634201 179.959571 191.220205 179.896405 
L 191.220205 178.751844 
L 187.855258 178.751844 
L 187.855258 177.732351 
L 196.439306 177.732351 
L 196.439306 180.567224 
z
" clip-path="url(#pc5da84227a)" style="fill: #ffa600"/>
   </g>
   <g id="patch_22">
    <path d="M 196.439306 173.370938 
Q 194.730561 174.180836 192.882851 174.590493 
Q 191.035141 175.00486 189.022733 175.00486 
Q 183.021535 175.00486 179.516548 171.934781 
Q 176.011561 168.864703 176.011561 163.614491 
Q 176.011561 158.345445 179.516548 155.280076 
Q 183.021535 152.209997 189.022733 152.209997 
Q 191.035141 152.209997 192.882851 152.624363 
Q 194.730561 153.034021 196.439306 153.843919 
L 196.439306 158.387824 
Q 194.71512 157.314238 193.042402 156.815115 
Q 191.369684 156.315992 189.521974 156.315992 
Q 186.20742 156.315992 184.308241 158.260689 
Q 182.41421 160.200677 182.41421 163.614491 
Q 182.41421 167.01418 184.308241 168.958877 
Q 186.20742 170.898865 189.521974 170.898865 
Q 191.369684 170.898865 193.042402 170.399742 
Q 194.71512 169.89591 196.439306 168.822324 
L 196.439306 173.370938 
z
" clip-path="url(#pc5da84227a)" style="fill: #0000ff"/>
   </g>
   <g id="patch_23">
    <path d="M 197.514451 190.334427 
L 217.942197 190.334427 
L 217.942197 190.706067 
L 210.592959 190.706067 
L 210.592959 192.24 
L 204.877941 192.24 
L 204.877941 190.706067 
L 197.514451 190.706067 
L 197.514451 190.334427 
z
" clip-path="url(#pc5da84227a)" style="fill: #ff0000"/>
   </g>
   <g id="patch_24">
    <path d="M 211.664768 189.755866 
L 203.808586 189.755866 
L 202.568136 190.334427 
L 197.514451 190.334427 
L 204.731614 187.158471 
L 210.725033 187.158471 
L 217.942197 190.334427 
L 212.892688 190.334427 
L 211.664768 189.755866 
z
M 205.061565 189.166416 
L 210.399259 189.166416 
L 207.734589 187.903112 
L 205.061565 189.166416 
z
" clip-path="url(#pc5da84227a)" style="fill: #008000"/>
   </g>
   <g id="patch_25">
    <path d="M 217.942197 186.88529 
Q 216.233451 187.0207 214.385741 187.089192 
Q 212.538031 187.158471 210.525623 187.158471 
Q 204.524426 187.158471 201.019438 186.645175 
Q 197.514451 186.131878 197.514451 185.254079 
Q 197.514451 184.37313 201.019438 183.860621 
Q 204.524426 183.347324 210.525623 183.347324 
Q 212.538031 183.347324 214.385741 183.416604 
Q 216.233451 183.485096 217.942197 183.620505 
L 217.942197 184.380215 
Q 216.21801 184.200719 214.545292 184.117269 
Q 212.872575 184.033819 211.024865 184.033819 
Q 207.71031 184.033819 205.811132 184.358959 
Q 203.9171 184.683312 203.9171 185.254079 
Q 203.9171 185.822483 205.811132 186.147624 
Q 207.71031 186.471977 211.024865 186.471977 
Q 212.872575 186.471977 214.545292 186.388527 
Q 216.21801 186.304289 217.942197 186.124793 
L 217.942197 186.88529 
z
" clip-path="url(#pc5da84227a)" style="fill: #0000ff"/>
   </g>
   <g id="patch_26">
    <path d="M 217.942197 182.772621 
Q 215.882025 183.059973 213.666196 183.204305 
Q 211.450367 183.347324 209.088037 183.347324 
Q 203.749903 183.347324 200.632177 182.49183 
Q 197.514451 181.636337 197.514451 180.173337 
Q 197.514451 178.69328 200.687115 177.844347 
Q 203.864357 176.995413 209.390195 176.995413 
Q 211.519039 176.995413 213.469335 177.110879 
Q 215.424209 177.225032 217.154753 177.450714 
L 217.154753 178.716898 
Q 215.369271 178.426922 213.602102 178.283903 
Q 211.834932 178.139571 210.058607 178.139571 
Q 206.771488 178.139571 204.990585 178.667038 
Q 203.209681 179.193193 203.209681 180.173337 
Q 203.209681 181.144296 204.92649 181.674388 
Q 206.6433 182.203167 209.80223 182.203167 
Q 210.662924 182.203167 211.400007 182.172988 
Q 212.137091 182.141498 212.723095 182.075892 
L 212.723095 180.887123 
L 209.358148 180.887123 
L 209.358148 179.828253 
L 217.942197 179.828253 
L 217.942197 182.772621 
z
" clip-path="url(#pc5da84227a)" style="fill: #ffa600"/>
   </g>
   <g id="patch_27">
    <path d="M 239.445087 192.128678 
Q 237.384915 192.184339 235.169086 192.212297 
Q 232.953257 192.24 230.590927 192.24 
Q 225.252794 192.24 222.135067 192.074288 
Q 219.017341 191.908575 219.017341 191.625187 
Q 219.017341 191.338495 222.190005 191.174053 
Q 225.367248 191.009611 230.893086 191.009611 
Q 233.02193 191.009611 234.972225 191.031978 
Q 236.927099 191.054089 238.657643 191.097805 
L 238.657643 191.343069 
Q 236.872161 191.2869 235.104992 191.259197 
Q 233.337823 191.231239 231.561497 191.231239 
Q 228.274379 191.231239 226.493475 191.333411 
Q 224.712571 191.435329 224.712571 191.625187 
Q 224.712571 191.813265 226.429381 191.915946 
Q 228.14619 192.018372 231.30512 192.018372 
Q 232.165814 192.018372 232.902897 192.012527 
Q 233.639981 192.006427 234.225985 191.993719 
L 234.225985 191.76345 
L 230.861038 191.76345 
L 230.861038 191.558343 
L 239.445087 191.558343 
L 239.445087 192.128678 
z
" clip-path="url(#pc5da84227a)" style="fill: #ffa600"/>
   </g>
   <g id="patch_28">
    <path d="M 239.445087 190.914634 
Q 237.736341 190.961712 235.888631 190.985525 
Q 234.040921 191.009611 232.028513 191.009611 
Q 226.027316 191.009611 222.522328 190.831152 
Q 219.017341 190.652693 219.017341 190.347505 
Q 219.017341 190.041223 222.522328 189.863037 
Q 226.027316 189.684578 232.028513 189.684578 
Q 234.040921 189.684578 235.888631 189.708664 
Q 237.736341 189.732477 239.445087 189.779555 
L 239.445087 190.043686 
Q 237.720901 189.98128 236.048183 189.952267 
Q 234.375465 189.923253 232.527755 189.923253 
Q 229.2132 189.923253 227.314022 190.036296 
Q 225.41999 190.149065 225.41999 190.347505 
Q 225.41999 190.545124 227.314022 190.658167 
Q 229.2132 190.770936 232.527755 190.770936 
Q 234.375465 190.770936 236.048183 190.741922 
Q 237.720901 190.712635 239.445087 190.650229 
L 239.445087 190.914634 
z
" clip-path="url(#pc5da84227a)" style="fill: #0000ff"/>
   </g>
   <g id="patch_29">
    <path d="M 233.167658 189.356991 
L 225.311476 189.356991 
L 224.071026 189.684578 
L 219.017341 189.684578 
L 226.234504 187.886318 
L 232.227924 187.886318 
L 239.445087 189.684578 
L 234.395579 189.684578 
L 233.167658 189.356991 
z
M 226.564455 189.023237 
L 231.902149 189.023237 
L 229.237479 188.307941 
L 226.564455 189.023237 
z
" clip-path="url(#pc5da84227a)" style="fill: #008000"/>
   </g>
   <g id="patch_30">
    <path d="M 219.017341 185.425541 
L 239.445087 185.425541 
L 239.445087 185.905461 
L 232.095849 185.905461 
L 232.095849 187.886318 
L 226.380831 187.886318 
L 226.380831 185.905461 
L 219.017341 185.905461 
L 219.017341 185.425541 
z
" clip-path="url(#pc5da84227a)" style="fill: #ff0000"/>
   </g>
   <g id="patch_31">
    <path d="M 260.947977 192.089495 
Q 259.239231 192.164097 257.391521 192.201832 
Q 255.543811 192.24 253.531403 192.24 
Q 247.530206 192.24 244.025219 191.957206 
Q 240.520231 191.674413 240.520231 191.190801 
Q 240.520231 190.705454 244.025219 190.423094 
Q 247.530206 190.140301 253.531403 190.140301 
Q 255.543811 190.140301 257.391521 190.178469 
Q 259.239231 190.216204 260.947977 190.290806 
L 260.947977 190.709358 
Q 259.223791 190.610467 257.551073 190.564491 
Q 255.878355 190.518516 254.030645 190.518516 
Q 250.71609 190.518516 248.816912 190.697647 
Q 246.922881 190.876345 246.922881 191.190801 
Q 246.922881 191.503956 248.816912 191.683087 
Q 250.71609 191.861785 254.030645 191.861785 
Q 255.878355 191.861785 257.551073 191.81581 
Q 259.223791 191.7694 260.947977 191.670509 
L 260.947977 192.089495 
z
" clip-path="url(#pc5da84227a)" style="fill: #0000ff"/>
   </g>
   <g id="patch_32">
    <path d="M 260.947977 189.807845 
Q 258.887805 189.974073 256.671976 190.057566 
Q 254.456147 190.140301 252.093817 190.140301 
Q 246.755684 190.140301 243.637958 189.645412 
Q 240.520231 189.150523 240.520231 188.304202 
Q 240.520231 187.448014 243.692895 186.956921 
Q 246.870138 186.465827 252.395976 186.465827 
Q 254.52482 186.465827 256.475115 186.532622 
Q 258.429989 186.598658 260.160534 186.729211 
L 260.160534 187.461677 
Q 258.375051 187.293931 256.607882 187.211196 
Q 254.840713 187.127703 253.064387 187.127703 
Q 249.777269 187.127703 247.996365 187.432834 
Q 246.215461 187.737206 246.215461 188.304202 
Q 246.215461 188.865886 247.932271 189.172535 
Q 249.64908 189.478425 252.80801 189.478425 
Q 253.668704 189.478425 254.405788 189.460967 
Q 255.142871 189.44275 255.728876 189.404799 
L 255.728876 188.717116 
L 252.363929 188.717116 
L 252.363929 188.104577 
L 260.947977 188.104577 
L 260.947977 189.807845 
z
" clip-path="url(#pc5da84227a)" style="fill: #ffa600"/>
   </g>
   <g id="patch_33">
    <path d="M 254.670549 185.55739 
L 246.814366 185.55739 
L 245.573916 186.465827 
L 240.520231 186.465827 
L 247.737394 181.479041 
L 253.730814 181.479041 
L 260.947977 186.465827 
L 255.898469 186.465827 
L 254.670549 185.55739 
z
M 248.067346 184.631853 
L 253.405039 184.631853 
L 250.740369 182.648253 
L 248.067346 184.631853 
z
" clip-path="url(#pc5da84227a)" style="fill: #008000"/>
   </g>
   <g id="patch_34">
    <path d="M 240.520231 173.342706 
L 260.947977 173.342706 
L 260.947977 174.929518 
L 253.598739 174.929518 
L 253.598739 181.479041 
L 247.883721 181.479041 
L 247.883721 174.929518 
L 240.520231 174.929518 
L 240.520231 173.342706 
z
" clip-path="url(#pc5da84227a)" style="fill: #ff0000"/>
   </g>
   <g id="patch_35">
    <path d="M 282.450867 192.045069 
Q 280.390695 192.142535 278.174867 192.19149 
Q 275.959038 192.24 273.596707 192.24 
Q 268.258574 192.24 265.140848 191.949829 
Q 262.023121 191.659658 262.023121 191.16343 
Q 262.023121 190.661416 265.195786 190.373471 
Q 268.373028 190.085525 273.898866 190.085525 
Q 276.02771 190.085525 277.978006 190.124689 
Q 279.93288 190.163408 281.663424 190.239956 
L 281.663424 190.669427 
Q 279.877942 190.571072 278.110772 190.522562 
Q 276.343603 190.473606 274.567277 190.473606 
Q 271.280159 190.473606 269.499255 190.652515 
Q 267.718351 190.830979 267.718351 191.16343 
Q 267.718351 191.492765 269.435161 191.672564 
Q 271.151971 191.851919 274.3109 191.851919 
Q 275.171594 191.851919 275.908678 191.841682 
Q 276.645761 191.831001 277.231766 191.808749 
L 277.231766 191.405536 
L 273.866819 191.405536 
L 273.866819 191.046382 
L 282.450867 191.046382 
L 282.450867 192.045069 
z
" clip-path="url(#pc5da84227a)" style="fill: #ffa600"/>
   </g>
   <g id="patch_36">
    <path d="M 276.173439 189.300568 
L 268.317256 189.300568 
L 267.076806 190.085525 
L 262.023121 190.085525 
L 269.240284 185.776574 
L 275.233704 185.776574 
L 282.450867 190.085525 
L 277.401359 190.085525 
L 276.173439 189.300568 
z
M 269.570236 188.500836 
L 274.907929 188.500836 
L 272.243259 186.78686 
L 269.570236 188.500836 
z
" clip-path="url(#pc5da84227a)" style="fill: #008000"/>
   </g>
   <g id="patch_37">
    <path d="M 262.023121 177.158674 
L 282.450867 177.158674 
L 282.450867 178.839404 
L 275.101629 178.839404 
L 275.101629 185.776574 
L 269.386611 185.776574 
L 269.386611 178.839404 
L 262.023121 178.839404 
L 262.023121 177.158674 
z
" clip-path="url(#pc5da84227a)" style="fill: #ff0000"/>
   </g>
   <g id="patch_38">
    <path d="M 282.450867 176.386516 
Q 280.742121 176.769257 278.894411 176.962853 
Q 277.046702 177.158674 275.034293 177.158674 
Q 269.033096 177.158674 265.528109 175.707819 
Q 262.023121 174.256964 262.023121 171.775824 
Q 262.023121 169.285783 265.528109 167.837153 
Q 269.033096 166.386298 275.034293 166.386298 
Q 277.046702 166.386298 278.894411 166.582119 
Q 280.742121 166.775714 282.450867 167.158455 
L 282.450867 169.30581 
Q 280.726681 168.798455 279.053963 168.56258 
Q 277.381245 168.326705 275.533535 168.326705 
Q 272.21898 168.326705 270.319802 169.245728 
Q 268.425771 170.162526 268.425771 171.775824 
Q 268.425771 173.382445 270.319802 174.301468 
Q 272.21898 175.218266 275.533535 175.218266 
Q 277.381245 175.218266 279.053963 174.982391 
Q 280.726681 174.744291 282.450867 174.236937 
L 282.450867 176.386516 
z
" clip-path="url(#pc5da84227a)" style="fill: #0000ff"/>
   </g>
   <g id="patch_39">
    <path d="M 283.526012 190.790138 
L 303.953757 190.790138 
L 303.953757 191.072901 
L 296.604519 191.072901 
L 296.604519 192.24 
L 290.889501 192.24 
L 290.889501 191.072901 
L 283.526012 191.072901 
L 283.526012 190.790138 
z
" clip-path="url(#pc5da84227a)" style="fill: #ff0000"/>
   </g>
   <g id="patch_40">
    <path d="M 297.676329 189.557578 
L 289.820146 189.557578 
L 288.579696 190.790138 
L 283.526012 190.790138 
L 290.743175 184.024113 
L 296.736594 184.024113 
L 303.953757 190.790138 
L 298.904249 190.790138 
L 297.676329 189.557578 
z
M 291.073126 188.301818 
L 296.410819 188.301818 
L 293.746149 185.610489 
L 291.073126 188.301818 
z
" clip-path="url(#pc5da84227a)" style="fill: #008000"/>
   </g>
   <g id="patch_41">
    <path d="M 303.953757 182.887224 
Q 301.893586 183.455668 299.677757 183.741188 
Q 297.461928 184.024113 295.099598 184.024113 
Q 289.761464 184.024113 286.643738 182.331758 
Q 283.526012 180.639403 283.526012 177.745269 
Q 283.526012 174.817391 286.698676 173.138014 
Q 289.875918 171.458638 295.401756 171.458638 
Q 297.5306 171.458638 299.480896 171.687054 
Q 301.43577 171.912874 303.166314 172.359323 
L 303.166314 174.864112 
Q 301.380832 174.290477 299.613662 174.007552 
Q 297.846493 173.722032 296.070167 173.722032 
Q 292.783049 173.722032 291.002145 174.765478 
Q 289.221241 175.806328 289.221241 177.745269 
Q 289.221241 179.666039 290.938051 180.714676 
Q 292.654861 181.760718 295.81379 181.760718 
Q 296.674484 181.760718 297.411568 181.701018 
Q 298.148652 181.638723 298.734656 181.508941 
L 298.734656 179.157295 
L 295.369709 179.157295 
L 295.369709 177.062616 
L 303.953757 177.062616 
L 303.953757 182.887224 
z
" clip-path="url(#pc5da84227a)" style="fill: #ffa600"/>
   </g>
   <g id="patch_42">
    <path d="M 303.953757 170.454027 
Q 302.245012 170.951989 300.397302 171.203866 
Q 298.549592 171.458638 296.537183 171.458638 
Q 290.535986 171.458638 287.030999 169.571011 
Q 283.526012 167.683385 283.526012 164.455312 
Q 283.526012 161.215658 287.030999 159.330927 
Q 290.535986 157.4433 296.537183 157.4433 
Q 298.549592 157.4433 300.397302 157.698072 
Q 302.245012 157.949949 303.953757 158.447911 
L 303.953757 161.241714 
Q 302.229571 160.581624 300.556853 160.27474 
Q 298.884135 159.967856 297.036425 159.967856 
Q 293.721871 159.967856 291.822692 161.163546 
Q 289.928661 162.356341 289.928661 164.455312 
Q 289.928661 166.545598 291.822692 167.741287 
Q 293.721871 168.934082 297.036425 168.934082 
Q 298.884135 168.934082 300.556853 168.627198 
Q 302.229571 168.317419 303.953757 167.657328 
L 303.953757 170.454027 
z
" clip-path="url(#pc5da84227a)" style="fill: #0000ff"/>
   </g>
   <g id="patch_43">
    <path d="M 325.456647 192.06516 
Q 323.396476 192.15258 321.180647 192.19649 
Q 318.964818 192.24 316.602488 192.24 
Q 311.264354 192.24 308.146628 191.979736 
Q 305.028902 191.719473 305.028902 191.27439 
Q 305.028902 190.824118 308.201566 190.56585 
Q 311.378808 190.307582 316.904646 190.307582 
Q 319.03349 190.307582 320.983786 190.34271 
Q 322.93866 190.377438 324.669204 190.446097 
L 324.669204 190.831303 
Q 322.883722 190.743085 321.116553 190.699574 
Q 319.349383 190.655665 317.573058 190.655665 
Q 314.285939 190.655665 312.505035 190.816134 
Q 310.724132 190.976204 310.724132 191.27439 
Q 310.724132 191.569781 312.440941 191.731049 
Q 314.157751 191.891917 317.316681 191.891917 
Q 318.177375 191.891917 318.914458 191.882736 
Q 319.651542 191.873156 320.237546 191.853197 
L 320.237546 191.491542 
L 316.872599 191.491542 
L 316.872599 191.169406 
L 325.456647 191.169406 
L 325.456647 192.06516 
z
" clip-path="url(#pc5da84227a)" style="fill: #ffa600"/>
   </g>
   <g id="patch_44">
    <path d="M 325.456647 189.947444 
Q 323.747902 190.125956 321.900192 190.21625 
Q 320.052482 190.307582 318.040074 190.307582 
Q 312.038876 190.307582 308.533889 189.630896 
Q 305.028902 188.954211 305.028902 187.796995 
Q 305.028902 186.635628 308.533889 185.959981 
Q 312.038876 185.283295 318.040074 185.283295 
Q 320.052482 185.283295 321.900192 185.374627 
Q 323.747902 185.464921 325.456647 185.643433 
L 325.456647 186.644969 
Q 323.732461 186.408337 322.059743 186.298324 
Q 320.387025 186.18831 318.539316 186.18831 
Q 315.224761 186.18831 313.325583 186.616947 
Q 311.431551 187.044546 311.431551 187.796995 
Q 311.431551 188.546331 313.325583 188.974968 
Q 315.224761 189.402567 318.539316 189.402567 
Q 320.387025 189.402567 322.059743 189.292554 
Q 323.732461 189.181502 325.456647 188.94487 
L 325.456647 189.947444 
z
" clip-path="url(#pc5da84227a)" style="fill: #0000ff"/>
   </g>
   <g id="patch_45">
    <path d="M 319.179219 183.593568 
L 311.323036 183.593568 
L 310.082587 185.283295 
L 305.028902 185.283295 
L 312.246065 176.007689 
L 318.239484 176.007689 
L 325.456647 185.283295 
L 320.407139 185.283295 
L 319.179219 183.593568 
z
M 312.576016 181.872035 
L 317.91371 181.872035 
L 315.249039 178.182466 
L 312.576016 181.872035 
z
" clip-path="url(#pc5da84227a)" style="fill: #008000"/>
   </g>
   <g id="patch_46">
    <path d="M 305.028902 164.41318 
L 325.456647 164.41318 
L 325.456647 166.674433 
L 318.10741 166.674433 
L 318.10741 176.007689 
L 312.392391 176.007689 
L 312.392391 166.674433 
L 305.028902 166.674433 
L 305.028902 164.41318 
z
" clip-path="url(#pc5da84227a)" style="fill: #ff0000"/>
   </g>
   <g id="patch_47">
    <path d="M 326.531792 190.74526 
L 346.959538 190.74526 
L 346.959538 191.036776 
L 339.6103 191.036776 
L 339.6103 192.24 
L 333.895282 192.24 
L 333.895282 191.036776 
L 326.531792 191.036776 
L 326.531792 190.74526 
z
" clip-path="url(#pc5da84227a)" style="fill: #ff0000"/>
   </g>
   <g id="patch_48">
    <path d="M 340.682109 190.3822 
L 332.825927 190.3822 
L 331.585477 190.74526 
L 326.531792 190.74526 
L 333.748955 188.752274 
L 339.742375 188.752274 
L 346.959538 190.74526 
L 341.910029 190.74526 
L 340.682109 190.3822 
z
M 334.078906 190.012306 
L 339.4166 190.012306 
L 336.75193 189.219554 
L 334.078906 190.012306 
z
" clip-path="url(#pc5da84227a)" style="fill: #008000"/>
   </g>
   <g id="patch_49">
    <path d="M 346.959538 188.571954 
Q 344.899366 188.662114 342.683537 188.7074 
Q 340.467708 188.752274 338.105378 188.752274 
Q 332.767245 188.752274 329.649518 188.483853 
Q 326.531792 188.215431 326.531792 187.756398 
Q 326.531792 187.292013 329.704456 187.02565 
Q 332.881699 186.759287 338.407536 186.759287 
Q 340.53638 186.759287 342.486676 186.795516 
Q 344.44155 186.831333 346.172094 186.902144 
L 346.172094 187.299423 
Q 344.386612 187.20844 342.619443 187.163566 
Q 340.852273 187.11828 339.075948 187.11828 
Q 335.788829 187.11828 334.007926 187.283779 
Q 332.227022 187.448866 332.227022 187.756398 
Q 332.227022 188.061048 333.943831 188.22737 
Q 335.660641 188.393281 338.819571 188.393281 
Q 339.680265 188.393281 340.417348 188.383812 
Q 341.154432 188.373932 341.740436 188.353347 
L 341.740436 187.980357 
L 338.375489 187.980357 
L 338.375489 187.648124 
L 346.959538 187.648124 
L 346.959538 188.571954 
z
" clip-path="url(#pc5da84227a)" style="fill: #ffa600"/>
   </g>
   <g id="patch_50">
    <path d="M 346.959538 186.509289 
Q 345.250792 186.633208 343.403082 186.695887 
Q 341.555372 186.759287 339.542964 186.759287 
Q 333.541767 186.759287 330.036779 186.28955 
Q 326.531792 185.819813 326.531792 185.016505 
Q 326.531792 184.210315 330.036779 183.741298 
Q 333.541767 183.271561 339.542964 183.271561 
Q 341.555372 183.271561 343.403082 183.334961 
Q 345.250792 183.397641 346.959538 183.521559 
L 346.959538 184.216799 
Q 345.235351 184.052535 343.562634 183.976167 
Q 341.889916 183.899799 340.042206 183.899799 
Q 336.727651 183.899799 334.828473 184.197347 
Q 332.934441 184.494175 332.934441 185.016505 
Q 332.934441 185.536674 334.828473 185.834222 
Q 336.727651 186.13105 340.042206 186.13105 
Q 341.889916 186.13105 343.562634 186.054682 
Q 345.235351 185.977593 346.959538 185.813329 
L 346.959538 186.509289 
z
" clip-path="url(#pc5da84227a)" style="fill: #0000ff"/>
   </g>
   <g id="patch_51">
    <path d="M 362.184999 191.714184 
L 354.328817 191.714184 
L 353.088367 192.24 
L 348.034682 192.24 
L 355.251845 189.353581 
L 361.245265 189.353581 
L 368.462428 192.24 
L 363.41292 192.24 
L 362.184999 191.714184 
z
M 355.581796 191.178471 
L 360.91949 191.178471 
L 358.25482 190.030337 
L 355.581796 191.178471 
z
" clip-path="url(#pc5da84227a)" style="fill: #008000"/>
   </g>
   <g id="patch_52">
    <path d="M 348.034682 185.023952 
L 368.462428 185.023952 
L 368.462428 185.86835 
L 361.11319 185.86835 
L 361.11319 189.353581 
L 355.398172 189.353581 
L 355.398172 185.86835 
L 348.034682 185.86835 
L 348.034682 185.023952 
z
" clip-path="url(#pc5da84227a)" style="fill: #ff0000"/>
   </g>
   <g id="patch_53">
    <path d="M 368.462428 184.230848 
Q 366.753682 184.623971 364.905972 184.822819 
Q 363.058262 185.023952 361.045854 185.023952 
Q 355.044657 185.023952 351.539669 183.533738 
Q 348.034682 182.043525 348.034682 179.495077 
Q 348.034682 176.937486 351.539669 175.449558 
Q 355.044657 173.959345 361.045854 173.959345 
Q 363.058262 173.959345 364.905972 174.160478 
Q 366.753682 174.359326 368.462428 174.752449 
L 368.462428 176.958057 
Q 366.738242 176.436939 365.065524 176.194665 
Q 363.392806 175.952391 361.545096 175.952391 
Q 358.230541 175.952391 356.331363 176.896346 
Q 354.437332 177.838014 354.437332 179.495077 
Q 354.437332 181.145283 356.331363 182.089237 
Q 358.230541 183.030906 361.545096 183.030906 
Q 363.392806 183.030906 365.065524 182.788632 
Q 366.738242 182.544072 368.462428 182.022954 
L 368.462428 184.230848 
z
" clip-path="url(#pc5da84227a)" style="fill: #0000ff"/>
   </g>
   <g id="patch_54">
    <path d="M 368.462428 172.479466 
Q 366.402256 173.219406 364.186427 173.591065 
Q 361.970598 173.959345 359.608268 173.959345 
Q 354.270135 173.959345 351.152408 171.756421 
Q 348.034682 169.553496 348.034682 165.786225 
Q 348.034682 161.975031 351.207346 159.789 
Q 354.384589 157.602969 359.910427 157.602969 
Q 362.039271 157.602969 363.989566 157.900297 
Q 365.94444 158.194245 367.674984 158.775385 
L 367.674984 162.035848 
Q 365.889502 161.289151 364.122333 160.920871 
Q 362.355164 160.549212 360.578838 160.549212 
Q 357.29172 160.549212 355.510816 161.907457 
Q 353.729912 163.262323 353.729912 165.786225 
Q 353.729912 168.286477 355.446722 169.651479 
Q 357.163531 171.013103 360.322461 171.013103 
Q 361.183155 171.013103 361.920238 170.935392 
Q 362.657322 170.854303 363.243326 170.685367 
L 363.243326 167.624248 
L 359.87838 167.624248 
L 359.87838 164.897622 
L 368.462428 164.897622 
L 368.462428 172.479466 
z
" clip-path="url(#pc5da84227a)" style="fill: #ffa600"/>
   </g>
   <g id="patch_55">
    <path d="M 389.965318 192.091563 
Q 388.256572 192.16514 386.408862 192.202356 
Q 384.561152 192.24 382.548744 192.24 
Q 376.547547 192.24 373.04256 191.961093 
Q 369.537572 191.682185 369.537572 191.205219 
Q 369.537572 190.726542 373.04256 190.448062 
Q 376.547547 190.169155 382.548744 190.169155 
Q 384.561152 190.169155 386.408862 190.206799 
Q 388.256572 190.244015 389.965318 190.317592 
L 389.965318 190.730392 
Q 388.241132 190.63286 386.568414 190.587516 
Q 384.895696 190.542172 383.047986 190.542172 
Q 379.733431 190.542172 377.834253 190.718842 
Q 375.940222 190.895084 375.940222 191.205219 
Q 375.940222 191.514071 377.834253 191.690741 
Q 379.733431 191.866983 383.047986 191.866983 
Q 384.895696 191.866983 386.568414 191.821639 
Q 388.241132 191.775867 389.965318 191.678335 
L 389.965318 192.091563 
z
" clip-path="url(#pc5da84227a)" style="fill: #0000ff"/>
   </g>
   <g id="patch_56">
    <path d="M 389.965318 189.700744 
Q 387.905146 189.93495 385.689317 190.052587 
Q 383.473488 190.169155 381.111158 190.169155 
Q 375.773025 190.169155 372.655299 189.471886 
Q 369.537572 188.774618 369.537572 187.582203 
Q 369.537572 186.375885 372.710236 185.683964 
Q 375.887479 184.992042 381.413317 184.992042 
Q 383.542161 184.992042 385.492457 185.086152 
Q 387.44733 185.179192 389.177875 185.363135 
L 389.177875 186.395135 
Q 387.392393 186.158791 385.625223 186.042223 
Q 383.858054 185.924585 382.081728 185.924585 
Q 378.79461 185.924585 377.013706 186.354497 
Q 375.232802 186.783338 375.232802 187.582203 
Q 375.232802 188.373581 376.949612 188.805631 
Q 378.666421 189.236612 381.825351 189.236612 
Q 382.686045 189.236612 383.423129 189.212015 
Q 384.160212 189.186348 384.746217 189.132877 
L 384.746217 188.163973 
L 381.38127 188.163973 
L 381.38127 187.300942 
L 389.965318 187.300942 
L 389.965318 189.700744 
z
" clip-path="url(#pc5da84227a)" style="fill: #ffa600"/>
   </g>
   <g id="patch_57">
    <path d="M 369.537572 162.212746 
L 389.965318 162.212746 
L 389.965318 166.655343 
L 382.61608 166.655343 
L 382.61608 184.992042 
L 376.901062 184.992042 
L 376.901062 166.655343 
L 369.537572 166.655343 
L 369.537572 162.212746 
z
" clip-path="url(#pc5da84227a)" style="fill: #ff0000"/>
   </g>
   <g id="patch_58">
    <path d="M 383.68789 154.10201 
L 375.831707 154.10201 
L 374.591257 162.212746 
L 369.537572 162.212746 
L 376.754735 117.689576 
L 382.748155 117.689576 
L 389.965318 162.212746 
L 384.91581 162.212746 
L 383.68789 154.10201 
z
M 377.084687 145.838601 
L 382.42238 145.838601 
L 379.75771 128.128571 
L 377.084687 145.838601 
z
" clip-path="url(#pc5da84227a)" style="fill: #008000"/>
   </g>
   <g id="patch_59">
    <path d="M 411.468208 191.721312 
Q 409.759462 191.978414 407.911752 192.10846 
Q 406.064043 192.24 404.051634 192.24 
Q 398.050437 192.24 394.54545 191.265405 
Q 391.040462 190.290809 391.040462 188.624131 
Q 391.040462 186.951474 394.54545 185.978374 
Q 398.050437 185.003778 404.051634 185.003778 
Q 406.064043 185.003778 407.911752 185.135319 
Q 409.759462 185.265365 411.468208 185.522466 
L 411.468208 186.964927 
Q 409.744022 186.624118 408.071304 186.465671 
Q 406.398586 186.307225 404.550876 186.307225 
Q 401.236321 186.307225 399.337143 186.924568 
Q 397.443112 187.540417 397.443112 188.624131 
Q 397.443112 189.703361 399.337143 190.320705 
Q 401.236321 190.936553 404.550876 190.936553 
Q 406.398586 190.936553 408.071304 190.778107 
Q 409.744022 190.618166 411.468208 190.277356 
L 411.468208 191.721312 
z
" clip-path="url(#pc5da84227a)" style="fill: #0000ff"/>
   </g>
   <g id="patch_60">
    <path d="M 411.468208 183.203318 
Q 409.408037 184.103548 407.192208 184.555719 
Q 404.976379 185.003778 402.614048 185.003778 
Q 397.275915 185.003778 394.158189 182.323641 
Q 391.040462 179.643503 391.040462 175.06014 
Q 391.040462 170.423337 394.213127 167.763753 
Q 397.390369 165.104169 402.916207 165.104169 
Q 405.045051 165.104169 406.995347 165.465905 
Q 408.950221 165.823531 410.680765 166.530561 
L 410.680765 170.497329 
Q 408.895283 169.588877 407.128113 169.140818 
Q 405.360944 168.688647 403.584618 168.688647 
Q 400.2975 168.688647 398.516596 170.341124 
Q 396.735692 171.989491 396.735692 175.06014 
Q 396.735692 178.102013 398.452502 179.762712 
Q 400.169312 181.4193 403.328241 181.4193 
Q 404.188935 181.4193 404.926019 181.324755 
Q 405.663102 181.2261 406.249107 181.020568 
L 406.249107 177.296328 
L 402.88416 177.296328 
L 402.88416 173.979041 
L 411.468208 173.979041 
L 411.468208 183.203318 
z
" clip-path="url(#pc5da84227a)" style="fill: #ffa600"/>
   </g>
   <g id="patch_61">
    <path d="M 405.19078 146.319613 
L 397.334597 146.319613 
L 396.094147 165.104169 
L 391.040462 165.104169 
L 398.257625 61.98801 
L 404.251045 61.98801 
L 411.468208 165.104169 
L 406.4187 165.104169 
L 405.19078 146.319613 
z
M 398.587577 127.181467 
L 403.92527 127.181467 
L 401.2606 86.164838 
L 398.587577 127.181467 
z
" clip-path="url(#pc5da84227a)" style="fill: #008000"/>
   </g>
   <g id="patch_62">
    <path d="M 432.971098 192.066167 
Q 431.262353 192.152332 429.414643 192.195915 
Q 427.566933 192.24 425.554524 192.24 
Q 419.553327 192.24 416.04834 191.913373 
Q 412.543353 191.586747 412.543353 191.028175 
Q 412.543353 190.4676 416.04834 190.141474 
Q 419.553327 189.814848 425.554524 189.814848 
Q 427.566933 189.814848 429.414643 189.858932 
Q 431.262353 189.902516 432.971098 189.988681 
L 432.971098 190.472109 
Q 431.246912 190.357889 429.574194 190.304788 
Q 427.901476 190.251686 426.053766 190.251686 
Q 422.739212 190.251686 420.840033 190.458583 
Q 418.946002 190.664979 418.946002 191.028175 
Q 418.946002 191.389869 420.840033 191.596766 
Q 422.739212 191.803162 426.053766 191.803162 
Q 427.901476 191.803162 429.574194 191.75006 
Q 431.246912 191.696457 432.971098 191.582238 
L 432.971098 192.066167 
z
" clip-path="url(#pc5da84227a)" style="fill: #0000ff"/>
   </g>
   <g id="patch_63">
    <path d="M 412.543353 184.618093 
L 432.971098 184.618093 
L 432.971098 185.631605 
L 425.62186 185.631605 
L 425.62186 189.814848 
L 419.906842 189.814848 
L 419.906842 185.631605 
L 412.543353 185.631605 
L 412.543353 184.618093 
z
" clip-path="url(#pc5da84227a)" style="fill: #ff0000"/>
   </g>
   <g id="patch_64">
    <path d="M 432.971098 184.116559 
Q 430.910927 184.367326 428.695098 184.493282 
Q 426.479269 184.618093 424.116939 184.618093 
Q 418.778805 184.618093 415.661079 183.871518 
Q 412.543353 183.124942 412.543353 181.848207 
Q 412.543353 180.556587 415.716017 179.815737 
Q 418.893259 179.074887 424.419097 179.074887 
Q 426.547941 179.074887 428.498237 179.175652 
Q 430.453111 179.275272 432.183655 179.472221 
L 432.183655 180.577198 
Q 430.398173 180.324141 428.631003 180.19933 
Q 426.863834 180.073374 425.087508 180.073374 
Q 421.80039 180.073374 420.019486 180.533686 
Q 418.238582 180.992852 418.238582 181.848207 
Q 418.238582 182.695547 419.955392 183.158149 
Q 421.672202 183.619606 424.831131 183.619606 
Q 425.691825 183.619606 426.428909 183.593269 
Q 427.165993 183.565788 427.751997 183.508535 
L 427.751997 182.471117 
L 424.38705 182.471117 
L 424.38705 181.547058 
L 432.971098 181.547058 
L 432.971098 184.116559 
z
" clip-path="url(#pc5da84227a)" style="fill: #ffa600"/>
   </g>
   <g id="patch_65">
    <path d="M 426.69367 176.929063 
L 418.837487 176.929063 
L 417.597037 179.074887 
L 412.543353 179.074887 
L 419.760516 167.295576 
L 425.753935 167.295576 
L 432.971098 179.074887 
L 427.92159 179.074887 
L 426.69367 176.929063 
z
M 420.090467 174.742847 
L 425.42816 174.742847 
L 422.76349 170.057377 
L 420.090467 174.742847 
z
" clip-path="url(#pc5da84227a)" style="fill: #008000"/>
   </g>
   <g id="patch_66">
    <path d="M 448.19656 190.906411 
L 440.340377 190.906411 
L 439.099928 192.24 
L 434.046243 192.24 
L 441.263406 184.919378 
L 447.256825 184.919378 
L 454.473988 192.24 
L 449.42448 192.24 
L 448.19656 190.906411 
z
M 441.593357 189.547718 
L 446.931051 189.547718 
L 444.266381 186.635786 
L 441.593357 189.547718 
z
" clip-path="url(#pc5da84227a)" style="fill: #008000"/>
   </g>
   <g id="patch_67">
    <path d="M 434.046243 177.598757 
L 454.473988 177.598757 
L 454.473988 179.026482 
L 447.124751 179.026482 
L 447.124751 184.919378 
L 441.409732 184.919378 
L 441.409732 179.026482 
L 434.046243 179.026482 
L 434.046243 177.598757 
z
" clip-path="url(#pc5da84227a)" style="fill: #ff0000"/>
   </g>
   <g id="patch_68">
    <path d="M 454.473988 176.841786 
Q 452.413817 177.220272 450.197988 177.410378 
Q 447.982159 177.598757 445.619829 177.598757 
Q 440.281695 177.598757 437.163969 176.471942 
Q 434.046243 175.345128 434.046243 173.418137 
Q 434.046243 171.468679 437.218907 170.350505 
Q 440.396149 169.232332 445.921987 169.232332 
Q 448.050831 169.232332 450.001127 169.384418 
Q 451.956001 169.534775 453.686545 169.832032 
L 453.686545 171.499787 
Q 451.901063 171.117845 450.133894 170.929467 
Q 448.366724 170.73936 446.590399 170.73936 
Q 443.30328 170.73936 441.522376 171.434114 
Q 439.741473 172.127139 439.741473 173.418137 
Q 439.741473 174.697037 441.458282 175.395247 
Q 443.175092 176.091729 446.334022 176.091729 
Q 447.194716 176.091729 447.931799 176.051979 
Q 448.668883 176.010501 449.254887 175.924089 
L 449.254887 174.358301 
L 445.88994 174.358301 
L 445.88994 172.963609 
L 454.473988 172.963609 
L 454.473988 176.841786 
z
" clip-path="url(#pc5da84227a)" style="fill: #ffa600"/>
   </g>
   <g id="patch_69">
    <path d="M 454.473988 165.484205 
Q 452.765243 167.342066 450.917533 168.281798 
Q 449.069823 169.232332 447.057415 169.232332 
Q 441.056217 169.232332 437.55123 162.189742 
Q 434.046243 155.147151 434.046243 143.103457 
Q 434.046243 131.016557 437.55123 123.984768 
Q 441.056217 116.942178 447.057415 116.942178 
Q 449.069823 116.942178 450.917533 117.892712 
Q 452.765243 118.832444 454.473988 120.690305 
L 454.473988 131.113771 
Q 452.749802 128.651025 451.077084 127.506064 
Q 449.404366 126.361103 447.556657 126.361103 
Q 444.242102 126.361103 442.342924 130.82213 
Q 440.448892 135.272356 440.448892 143.103457 
Q 440.448892 150.902154 442.342924 155.363182 
Q 444.242102 159.813407 447.556657 159.813407 
Q 449.404366 159.813407 451.077084 158.668446 
Q 452.749802 157.512684 454.473988 155.049937 
L 454.473988 165.484205 
z
" clip-path="url(#pc5da84227a)" style="fill: #0000ff"/>
   </g>
   <g id="patch_70">
    <path d="M 475.976879 191.912417 
Q 473.916707 192.076208 471.700878 192.158478 
Q 469.485049 192.24 467.122719 192.24 
Q 461.784586 192.24 458.666859 191.752365 
Q 455.549133 191.26473 455.549133 190.430814 
Q 455.549133 189.587175 458.721797 189.103279 
Q 461.89904 188.619383 467.424878 188.619383 
Q 469.553721 188.619383 471.504017 188.685199 
Q 473.458891 188.750267 475.189435 188.878907 
L 475.189435 189.600637 
Q 473.403953 189.43535 471.636784 189.353828 
Q 469.869614 189.271558 468.093289 189.271558 
Q 464.806171 189.271558 463.025267 189.572217 
Q 461.244363 189.872127 461.244363 190.430814 
Q 461.244363 190.984265 462.961172 191.286419 
Q 464.677982 191.587825 467.836912 191.587825 
Q 468.697606 191.587825 469.434689 191.570623 
Q 470.171773 191.552674 470.757777 191.515278 
L 470.757777 190.837675 
L 467.39283 190.837675 
L 467.39283 190.234114 
L 475.976879 190.234114 
L 475.976879 191.912417 
z
" clip-path="url(#pc5da84227a)" style="fill: #ffa600"/>
   </g>
   <g id="patch_71">
    <path d="M 455.549133 182.826397 
L 475.976879 182.826397 
L 475.976879 183.956191 
L 468.627641 183.956191 
L 468.627641 188.619383 
L 462.912623 188.619383 
L 462.912623 183.956191 
L 455.549133 183.956191 
L 455.549133 182.826397 
z
" clip-path="url(#pc5da84227a)" style="fill: #ff0000"/>
   </g>
   <g id="patch_72">
    <path d="M 469.69945 180.58388 
L 461.843268 180.58388 
L 460.602818 182.826397 
L 455.549133 182.826397 
L 462.766296 170.516301 
L 468.759716 170.516301 
L 475.976879 182.826397 
L 470.92737 182.826397 
L 469.69945 180.58388 
z
M 463.096247 178.299152 
L 468.433941 178.299152 
L 465.769271 173.402551 
L 463.096247 178.299152 
z
" clip-path="url(#pc5da84227a)" style="fill: #008000"/>
   </g>
   <g id="patch_73">
    <path d="M 475.976879 168.336302 
Q 474.268133 169.416878 472.420423 169.963448 
Q 470.572713 170.516301 468.560305 170.516301 
Q 462.559108 170.516301 459.05412 166.420165 
Q 455.549133 162.324029 455.549133 155.319135 
Q 455.549133 148.28911 459.05412 144.199257 
Q 462.559108 140.103122 468.560305 140.103122 
Q 470.572713 140.103122 472.420423 140.655974 
Q 474.268133 141.202544 475.976879 142.28312 
L 475.976879 148.345652 
Q 474.252692 146.913261 472.579975 146.247325 
Q 470.907257 145.581389 469.059547 145.581389 
Q 465.744992 145.581389 463.845814 148.176027 
Q 461.951782 150.764383 461.951782 155.319135 
Q 461.951782 159.85504 463.845814 162.449678 
Q 465.744992 165.038033 469.059547 165.038033 
Q 470.907257 165.038033 472.579975 164.372097 
Q 474.252692 163.699879 475.976879 162.267488 
L 475.976879 168.336302 
z
" clip-path="url(#pc5da84227a)" style="fill: #0000ff"/>
   </g>
   <g id="patch_74">
    <path d="M 497.479769 191.908841 
Q 495.771023 192.072989 493.923313 192.156017 
Q 492.075603 192.24 490.063195 192.24 
Q 484.061998 192.24 480.55701 191.617765 
Q 477.052023 190.99553 477.052023 189.931432 
Q 477.052023 188.863516 480.55701 188.242235 
Q 484.061998 187.62 490.063195 187.62 
Q 492.075603 187.62 493.923313 187.703983 
Q 495.771023 187.787011 497.479769 187.951159 
L 497.479769 188.872105 
Q 495.755583 188.654514 494.082865 188.553353 
Q 492.410147 188.452192 490.562437 188.452192 
Q 487.247882 188.452192 485.348704 188.846338 
Q 483.454673 189.239529 483.454673 189.931432 
Q 483.454673 190.620471 485.348704 191.014617 
Q 487.247882 191.407808 490.562437 191.407808 
Q 492.410147 191.407808 494.082865 191.306647 
Q 495.755583 191.204532 497.479769 190.986941 
L 497.479769 191.908841 
z
" clip-path="url(#pc5da84227a)" style="fill: #0000ff"/>
   </g>
   <g id="patch_75">
    <path d="M 497.479769 187.201995 
Q 495.419597 187.410998 493.203768 187.515976 
Q 490.987939 187.62 488.625609 187.62 
Q 483.287476 187.62 480.169749 186.997765 
Q 477.052023 186.37553 477.052023 185.311432 
Q 477.052023 184.234927 480.224687 183.617463 
Q 483.40193 183 488.927768 183 
Q 491.056612 183 493.006907 183.083983 
Q 494.961781 183.167011 496.692325 183.331159 
L 496.692325 184.252105 
Q 494.906843 184.041194 493.139674 183.93717 
Q 491.372505 183.832192 489.596179 183.832192 
Q 486.309061 183.832192 484.528157 184.21584 
Q 482.747253 184.598533 482.747253 185.311432 
Q 482.747253 186.017649 484.464063 186.403206 
Q 486.180872 186.787808 489.339802 186.787808 
Q 490.200496 186.787808 490.93758 186.765858 
Q 491.674663 186.742954 492.260667 186.695237 
L 492.260667 185.830597 
L 488.895721 185.830597 
L 488.895721 185.060438 
L 497.479769 185.060438 
L 497.479769 187.201995 
z
" clip-path="url(#pc5da84227a)" style="fill: #ffa600"/>
   </g>
   <g id="patch_76">
    <path d="M 477.052023 176.07 
L 497.479769 176.07 
L 497.479769 177.421543 
L 490.130531 177.421543 
L 490.130531 183 
L 484.415513 183 
L 484.415513 177.421543 
L 477.052023 177.421543 
L 477.052023 176.07 
z
" clip-path="url(#pc5da84227a)" style="fill: #ff0000"/>
   </g>
   <g id="patch_77">
    <path d="M 491.202341 148.717342 
L 483.346158 148.717342 
L 482.105708 176.07 
L 477.052023 176.07 
L 484.269186 25.92 
L 490.262606 25.92 
L 497.479769 176.07 
L 492.430261 176.07 
L 491.202341 148.717342 
z
M 484.599137 120.849811 
L 489.936831 120.849811 
L 487.272161 61.124479 
L 484.599137 120.849811 
z
" clip-path="url(#pc5da84227a)" style="fill: #008000"/>
   </g>
   <g id="patch_78">
    <path d="M 512.705231 191.892797 
L 504.849048 191.892797 
L 503.608598 192.24 
L 498.554913 192.24 
L 505.772076 190.33406 
L 511.765496 190.33406 
L 518.982659 192.24 
L 513.933151 192.24 
L 512.705231 191.892797 
z
M 506.102028 191.539058 
L 511.439721 191.539058 
L 508.775051 190.78093 
L 506.102028 191.539058 
z
" clip-path="url(#pc5da84227a)" style="fill: #008000"/>
   </g>
   <g id="patch_79">
    <path d="M 498.554913 188.428119 
L 518.982659 188.428119 
L 518.982659 188.799831 
L 511.633421 188.799831 
L 511.633421 190.33406 
L 505.918403 190.33406 
L 505.918403 188.799831 
L 498.554913 188.799831 
L 498.554913 188.428119 
z
" clip-path="url(#pc5da84227a)" style="fill: #ff0000"/>
   </g>
   <g id="patch_80">
    <path d="M 518.982659 188.249467 
Q 517.273913 188.338021 515.426203 188.382813 
Q 513.578493 188.428119 511.566085 188.428119 
Q 505.564888 188.428119 502.059901 188.092438 
Q 498.554913 187.756756 498.554913 187.1827 
Q 498.554913 186.606584 502.059901 186.271417 
Q 505.564888 185.935736 511.566085 185.935736 
Q 513.578493 185.935736 515.426203 185.981043 
Q 517.273913 186.025835 518.982659 186.114389 
L 518.982659 186.611218 
Q 517.258473 186.493832 515.585755 186.439258 
Q 513.913037 186.384684 512.065327 186.384684 
Q 508.750772 186.384684 506.851594 186.597317 
Q 504.957563 186.809435 504.957563 187.1827 
Q 504.957563 187.554421 506.851594 187.767053 
Q 508.750772 187.979171 512.065327 187.979171 
Q 513.913037 187.979171 515.585755 187.924597 
Q 517.258473 187.869508 518.982659 187.752123 
L 518.982659 188.249467 
z
" clip-path="url(#pc5da84227a)" style="fill: #0000ff"/>
   </g>
   <g id="patch_81">
    <path d="M 518.982659 185.551053 
Q 516.922487 185.743394 514.706658 185.840004 
Q 512.490829 185.935736 510.128499 185.935736 
Q 504.790366 185.935736 501.67264 185.363103 
Q 498.554913 184.79047 498.554913 183.811197 
Q 498.554913 182.820507 501.727578 182.252265 
Q 504.90482 181.684023 510.430658 181.684023 
Q 512.559502 181.684023 514.509798 181.761311 
Q 516.464671 181.837721 518.195216 181.988783 
L 518.195216 182.836315 
Q 516.409734 182.642217 514.642564 182.546486 
Q 512.875395 182.449876 511.099069 182.449876 
Q 507.811951 182.449876 506.031047 182.802941 
Q 504.250143 183.155128 504.250143 183.811197 
Q 504.250143 184.461118 505.966953 184.81594 
Q 507.683762 185.169883 510.842692 185.169883 
Q 511.703386 185.169883 512.44047 185.149683 
Q 513.177553 185.128604 513.763558 185.084691 
L 513.763558 184.288977 
L 510.398611 184.288977 
L 510.398611 183.580211 
L 518.982659 183.580211 
L 518.982659 185.551053 
z
" clip-path="url(#pc5da84227a)" style="fill: #ffa600"/>
   </g>
   <g id="patch_82">
    <path d="M 520.057803 190.521569 
L 540.485549 190.521569 
L 540.485549 190.856711 
L 533.136311 190.856711 
L 533.136311 192.24 
L 527.421293 192.24 
L 527.421293 190.856711 
L 520.057803 190.856711 
L 520.057803 190.521569 
z
" clip-path="url(#pc5da84227a)" style="fill: #ff0000"/>
   </g>
   <g id="patch_83">
    <path d="M 534.208121 189.686784 
L 526.351938 189.686784 
L 525.111488 190.521569 
L 520.057803 190.521569 
L 527.274967 185.939088 
L 533.268386 185.939088 
L 540.485549 190.521569 
L 535.436041 190.521569 
L 534.208121 189.686784 
z
M 527.604918 188.836285 
L 532.942611 188.836285 
L 530.277941 187.013506 
L 527.604918 188.836285 
z
" clip-path="url(#pc5da84227a)" style="fill: #008000"/>
   </g>
   <g id="patch_84">
    <path d="M 540.485549 185.394912 
Q 538.425378 185.667 536.209549 185.803665 
Q 533.99372 185.939088 531.63139 185.939088 
Q 526.293256 185.939088 523.17553 185.129037 
Q 520.057803 184.318985 520.057803 182.933698 
Q 520.057803 181.532259 523.230468 180.72842 
Q 526.40771 179.924581 531.933548 179.924581 
Q 534.062392 179.924581 536.012688 180.033913 
Q 537.967562 180.142003 539.698106 180.355697 
L 539.698106 181.554623 
Q 537.912624 181.28005 536.145454 181.144628 
Q 534.378285 181.007962 532.601959 181.007962 
Q 529.314841 181.007962 527.533937 181.507411 
Q 525.753033 182.005618 525.753033 182.933698 
Q 525.753033 183.853081 527.469843 184.355015 
Q 529.186653 184.855706 532.345582 184.855706 
Q 533.206276 184.855706 533.94336 184.827131 
Q 534.680443 184.797313 535.266448 184.735193 
L 535.266448 183.609569 
L 531.901501 183.609569 
L 531.901501 182.606944 
L 540.485549 182.606944 
L 540.485549 185.394912 
z
" clip-path="url(#pc5da84227a)" style="fill: #ffa600"/>
   </g>
   <g id="patch_85">
    <path d="M 540.485549 179.32923 
Q 538.776803 179.624332 536.929094 179.773598 
Q 535.081384 179.924581 533.068975 179.924581 
Q 527.067778 179.924581 523.562791 178.805938 
Q 520.057803 177.687296 520.057803 175.77428 
Q 520.057803 173.854402 523.562791 172.737475 
Q 527.067778 171.618833 533.068975 171.618833 
Q 535.081384 171.618833 536.929094 171.769815 
Q 538.776803 171.919082 540.485549 172.214184 
L 540.485549 173.869843 
Q 538.761363 173.478662 537.088645 173.296797 
Q 535.415927 173.114931 533.568217 173.114931 
Q 530.253662 173.114931 528.354484 173.823519 
Q 526.460453 174.530391 526.460453 175.77428 
Q 526.460453 177.013022 528.354484 177.72161 
Q 530.253662 178.428482 533.568217 178.428482 
Q 535.415927 178.428482 537.088645 178.246617 
Q 538.761363 178.063036 540.485549 177.671855 
L 540.485549 179.32923 
z
" clip-path="url(#pc5da84227a)" style="fill: #0000ff"/>
   </g>
   <g id="patch_86">
    <path d="M 561.988439 192.106312 
Q 560.279694 192.172578 558.431984 192.206096 
Q 556.584274 192.24 554.571865 192.24 
Q 548.570668 192.24 545.065681 191.988805 
Q 541.560694 191.73761 541.560694 191.308036 
Q 541.560694 190.876921 545.065681 190.626111 
Q 548.570668 190.374916 554.571865 190.374916 
Q 556.584274 190.374916 558.431984 190.40882 
Q 560.279694 190.442338 561.988439 190.508604 
L 561.988439 190.880388 
Q 560.264253 190.792547 558.591535 190.751709 
Q 556.918817 190.71087 555.071107 190.71087 
Q 551.756553 190.71087 549.857374 190.869986 
Q 547.963343 191.028717 547.963343 191.308036 
Q 547.963343 191.5862 549.857374 191.745316 
Q 551.756553 191.904046 555.071107 191.904046 
Q 556.918817 191.904046 558.591535 191.863208 
Q 560.264253 191.821984 561.988439 191.734143 
L 561.988439 192.106312 
z
" clip-path="url(#pc5da84227a)" style="fill: #0000ff"/>
   </g>
   <g id="patch_87">
    <path d="M 561.988439 189.666177 
Q 559.928268 190.020546 557.712439 190.19854 
Q 555.49661 190.374916 553.13428 190.374916 
Q 547.796146 190.374916 544.67842 189.319898 
Q 541.560694 188.264879 541.560694 186.460667 
Q 541.560694 184.63542 544.733358 183.588492 
Q 547.9106 182.541564 553.436438 182.541564 
Q 555.565282 182.541564 557.515578 182.68396 
Q 559.470452 182.824737 561.200996 183.103054 
L 561.200996 184.664547 
Q 559.415514 184.306941 557.648345 184.130565 
Q 555.881175 183.952571 554.104849 183.952571 
Q 550.817731 183.952571 549.036827 184.603058 
Q 547.255923 185.251927 547.255923 186.460667 
Q 547.255923 187.658081 548.972733 188.311805 
Q 550.689543 188.96391 553.848473 188.96391 
Q 554.709166 188.96391 555.44625 188.926693 
Q 556.183334 188.887858 556.769338 188.806951 
L 556.769338 187.340928 
L 553.404391 187.340928 
L 553.404391 186.0351 
L 561.988439 186.0351 
L 561.988439 189.666177 
z
" clip-path="url(#pc5da84227a)" style="fill: #ffa600"/>
   </g>
   <g id="patch_88">
    <path d="M 555.711011 179.483722 
L 547.854828 179.483722 
L 546.614378 182.541564 
L 541.560694 182.541564 
L 548.777857 165.75581 
L 554.771276 165.75581 
L 561.988439 182.541564 
L 556.938931 182.541564 
L 555.711011 179.483722 
z
M 549.107808 176.368321 
L 554.445502 176.368321 
L 551.780831 169.691433 
L 549.107808 176.368321 
z
" clip-path="url(#pc5da84227a)" style="fill: #008000"/>
   </g>
   <g id="patch_89">
    <path d="M 541.560694 84.811175 
L 561.988439 84.811175 
L 561.988439 100.597634 
L 554.639202 100.597634 
L 554.639202 165.75581 
L 548.924183 165.75581 
L 548.924183 100.597634 
L 541.560694 100.597634 
L 541.560694 84.811175 
z
" clip-path="url(#pc5da84227a)" style="fill: #ff0000"/>
   </g>
   <g id="patch_90">
    <path d="M 563.063584 191.727495 
L 583.491329 191.727495 
L 583.491329 191.827448 
L 576.142092 191.827448 
L 576.142092 192.24 
L 570.427074 192.24 
L 570.427074 191.827448 
L 563.063584 191.827448 
L 563.063584 191.727495 
z
" clip-path="url(#pc5da84227a)" style="fill: #ff0000"/>
   </g>
   <g id="patch_91">
    <path d="M 583.491329 191.676896 
Q 581.782584 191.701977 579.934874 191.714663 
Q 578.087164 191.727495 576.074756 191.727495 
Q 570.073559 191.727495 566.568571 191.632422 
Q 563.063584 191.537349 563.063584 191.374762 
Q 563.063584 191.211592 566.568571 191.116665 
Q 570.073559 191.021591 576.074756 191.021591 
Q 578.087164 191.021591 579.934874 191.034423 
Q 581.782584 191.047109 583.491329 191.07219 
L 583.491329 191.212904 
Q 581.767143 191.179658 580.094425 191.164201 
Q 578.421708 191.148744 576.573998 191.148744 
Q 573.259443 191.148744 571.360265 191.208967 
Q 569.466233 191.269044 569.466233 191.374762 
Q 569.466233 191.480042 571.360265 191.540265 
Q 573.259443 191.600342 576.573998 191.600342 
Q 578.421708 191.600342 580.094425 191.584885 
Q 581.767143 191.569283 583.491329 191.536036 
L 583.491329 191.676896 
z
" clip-path="url(#pc5da84227a)" style="fill: #0000ff"/>
   </g>
   <g id="patch_92">
    <path d="M 583.491329 190.957723 
Q 581.431158 190.989657 579.215329 191.005697 
Q 576.9995 191.021591 574.63717 191.021591 
Q 569.299036 191.021591 566.18131 190.926518 
Q 563.063584 190.831445 563.063584 190.668858 
Q 563.063584 190.504376 566.236248 190.410032 
Q 569.41349 190.315688 574.939328 190.315688 
Q 577.068172 190.315688 579.018468 190.32852 
Q 580.973342 190.341206 582.703886 190.366287 
L 582.703886 190.507001 
Q 580.918404 190.474775 579.151235 190.458881 
Q 577.384065 190.442841 575.60774 190.442841 
Q 572.320621 190.442841 570.539718 190.50146 
Q 568.758814 190.559933 568.758814 190.668858 
Q 568.758814 190.776763 570.475623 190.835674 
Q 572.192433 190.894438 575.351363 190.894438 
Q 576.212057 190.894438 576.94914 190.891085 
Q 577.686224 190.887585 578.272228 190.880294 
L 578.272228 190.748183 
L 574.907281 190.748183 
L 574.907281 190.630508 
L 583.491329 190.630508 
L 583.491329 190.957723 
z
" clip-path="url(#pc5da84227a)" style="fill: #ffa600"/>
   </g>
   <g id="patch_93">
    <path d="M 577.213901 190.158909 
L 569.357718 190.158909 
L 568.117269 190.315688 
L 563.063584 190.315688 
L 570.280747 189.455066 
L 576.274166 189.455066 
L 583.491329 190.315688 
L 578.441821 190.315688 
L 577.213901 190.158909 
z
M 570.610698 189.99918 
L 575.948392 189.99918 
L 573.283722 189.656849 
L 570.610698 189.99918 
z
" clip-path="url(#pc5da84227a)" style="fill: #008000"/>
   </g>
   <g id="patch_94">
    <path d="M 598.716791 191.810111 
L 590.860609 191.810111 
L 589.620159 192.24 
L 584.566474 192.24 
L 591.783637 189.880165 
L 597.777057 189.880165 
L 604.99422 192.24 
L 599.944711 192.24 
L 598.716791 191.810111 
z
M 592.113588 191.372131 
L 597.451282 191.372131 
L 594.786612 190.433457 
L 592.113588 191.372131 
z
" clip-path="url(#pc5da84227a)" style="fill: #008000"/>
   </g>
   <g id="patch_95">
    <path d="M 584.566474 187.52033 
L 604.99422 187.52033 
L 604.99422 187.980563 
L 597.644982 187.980563 
L 597.644982 189.880165 
L 591.929964 189.880165 
L 591.929964 187.980563 
L 584.566474 187.980563 
L 584.566474 187.52033 
z
" clip-path="url(#pc5da84227a)" style="fill: #ff0000"/>
   </g>
   <g id="patch_96">
    <path d="M 604.99422 187.103639 
Q 603.285474 187.310183 601.437764 187.414656 
Q 599.590054 187.52033 597.577646 187.52033 
Q 591.576449 187.52033 588.071461 186.737384 
Q 584.566474 185.954438 584.566474 184.615504 
Q 584.566474 183.271768 588.071461 182.490023 
Q 591.576449 181.707077 597.577646 181.707077 
Q 599.590054 181.707077 601.437764 181.812751 
Q 603.285474 181.917223 604.99422 182.123767 
L 604.99422 183.282575 
Q 603.270034 183.008784 601.597316 182.881496 
Q 599.924598 182.754207 598.076888 182.754207 
Q 594.762333 182.754207 592.863155 183.250153 
Q 590.969123 183.744898 590.969123 184.615504 
Q 590.969123 185.482509 592.863155 185.978455 
Q 594.762333 186.4732 598.076888 186.4732 
Q 599.924598 186.4732 601.597316 186.345911 
Q 603.270034 186.217421 604.99422 185.94363 
L 604.99422 187.103639 
z
" clip-path="url(#pc5da84227a)" style="fill: #0000ff"/>
   </g>
   <g id="patch_97">
    <path d="M 604.99422 181.16028 
Q 602.934048 181.433678 600.718219 181.571002 
Q 598.50239 181.707077 596.14006 181.707077 
Q 590.801927 181.707077 587.6842 180.893123 
Q 584.566474 180.07917 584.566474 178.687209 
Q 584.566474 177.27902 587.739138 176.471308 
Q 590.916381 175.663596 596.442219 175.663596 
Q 598.571063 175.663596 600.521358 175.773455 
Q 602.476232 175.882066 604.206776 176.09679 
L 604.206776 177.301491 
Q 602.421294 177.025595 600.654125 176.88952 
Q 598.886955 176.752197 597.11063 176.752197 
Q 593.823512 176.752197 592.042608 177.254052 
Q 590.261704 177.754658 590.261704 178.687209 
Q 590.261704 179.611022 591.978513 180.115373 
Q 593.695323 180.618476 596.854253 180.618476 
Q 597.714947 180.618476 598.45203 180.589763 
Q 599.189114 180.559802 599.775118 180.497382 
L 599.775118 179.366336 
L 596.410171 179.366336 
L 596.410171 178.358881 
L 604.99422 178.358881 
L 604.99422 181.16028 
z
" clip-path="url(#pc5da84227a)" style="fill: #ffa600"/>
   </g>
   <g id="patch_98">
    <path d="M 626.49711 192.19626 
Q 624.436938 192.21813 622.221109 192.229115 
Q 620.00528 192.24 617.64295 192.24 
Q 612.304817 192.24 609.18709 192.174889 
Q 606.069364 192.109777 606.069364 191.998429 
Q 606.069364 191.885782 609.242028 191.82117 
Q 612.419271 191.756558 617.945109 191.756558 
Q 620.073953 191.756558 622.024248 191.765346 
Q 623.979122 191.774034 625.709666 191.791211 
L 625.709666 191.887579 
Q 623.924184 191.865509 622.157015 191.854624 
Q 620.389846 191.843639 618.61352 191.843639 
Q 615.326402 191.843639 613.545498 191.883785 
Q 611.764594 191.92383 611.764594 191.998429 
Q 611.764594 192.072328 613.481404 192.112673 
Q 615.198213 192.152918 618.357143 192.152918 
Q 619.217837 192.152918 619.954921 192.150622 
Q 620.692004 192.148225 621.278009 192.143232 
L 621.278009 192.052755 
L 617.913062 192.052755 
L 617.913062 191.972164 
L 626.49711 191.972164 
L 626.49711 192.19626 
z
" clip-path="url(#pc5da84227a)" style="fill: #ffa600"/>
   </g>
   <g id="patch_99">
    <path d="M 606.069364 191.205264 
L 626.49711 191.205264 
L 626.49711 191.312782 
L 619.147872 191.312782 
L 619.147872 191.756558 
L 613.432854 191.756558 
L 613.432854 191.312782 
L 606.069364 191.312782 
L 606.069364 191.205264 
z
" clip-path="url(#pc5da84227a)" style="fill: #ff0000"/>
   </g>
   <g id="patch_100">
    <path d="M 626.49711 191.158452 
Q 624.788364 191.181656 622.940654 191.193392 
Q 621.092944 191.205264 619.080536 191.205264 
Q 613.079339 191.205264 609.574352 191.117306 
Q 606.069364 191.029349 606.069364 190.878931 
Q 606.069364 190.727973 609.574352 190.64015 
Q 613.079339 190.552193 619.080536 190.552193 
Q 621.092944 190.552193 622.940654 190.564064 
Q 624.788364 190.575801 626.49711 190.599004 
L 626.49711 190.729187 
Q 624.772924 190.698429 623.100206 190.684129 
Q 621.427488 190.669829 619.579778 190.669829 
Q 616.265223 190.669829 614.366045 190.725545 
Q 612.472014 190.781125 612.472014 190.878931 
Q 612.472014 190.976331 614.366045 191.032047 
Q 616.265223 191.087627 619.579778 191.087627 
Q 621.427488 191.087627 623.100206 191.073328 
Q 624.772924 191.058893 626.49711 191.028135 
L 626.49711 191.158452 
z
" clip-path="url(#pc5da84227a)" style="fill: #0000ff"/>
   </g>
   <g id="patch_101">
    <path d="M 620.219682 190.414683 
L 612.363499 190.414683 
L 611.123049 190.552193 
L 606.069364 190.552193 
L 613.286527 189.797344 
L 619.279947 189.797344 
L 626.49711 190.552193 
L 621.447602 190.552193 
L 620.219682 190.414683 
z
M 613.616479 190.274584 
L 618.954172 190.274584 
L 616.289502 189.974328 
L 613.616479 190.274584 
z
" clip-path="url(#pc5da84227a)" style="fill: #008000"/>
   </g>
   <g id="patch_102">
    <path d="M 641.722572 191.848607 
L 633.866389 191.848607 
L 632.625939 192.24 
L 627.572254 192.24 
L 634.789417 190.091484 
L 640.782837 190.091484 
L 648 192.24 
L 642.950492 192.24 
L 641.722572 191.848607 
z
M 635.119369 191.449847 
L 640.457062 191.449847 
L 637.792392 190.59523 
L 635.119369 191.449847 
z
" clip-path="url(#pc5da84227a)" style="fill: #008000"/>
   </g>
   <g id="patch_103">
    <path d="M 648 189.674931 
Q 645.939828 189.883208 643.723999 189.987822 
Q 641.50817 190.091484 639.14584 190.091484 
Q 633.807707 190.091484 630.689981 189.471409 
Q 627.572254 188.851334 627.572254 187.79093 
Q 627.572254 186.718162 630.744919 186.102842 
Q 633.922161 185.487522 639.447999 185.487522 
Q 641.576843 185.487522 643.527139 185.571213 
Q 645.482013 185.653953 647.212557 185.817532 
L 647.212557 186.735281 
Q 645.427075 186.525102 643.659905 186.421439 
Q 641.892736 186.316825 640.11641 186.316825 
Q 636.829292 186.316825 635.048388 186.699141 
Q 633.267484 187.080506 633.267484 187.79093 
Q 633.267484 188.494696 634.984294 188.878914 
Q 636.701103 189.262182 639.860033 189.262182 
Q 640.720727 189.262182 641.457811 189.240308 
Q 642.194894 189.217483 642.780899 189.169931 
L 642.780899 188.308293 
L 639.415952 188.308293 
L 639.415952 187.540808 
L 648 187.540808 
L 648 189.674931 
z
" clip-path="url(#pc5da84227a)" style="fill: #ffa600"/>
   </g>
   <g id="patch_104">
    <path d="M 648 184.688167 
Q 646.291254 185.084389 644.443544 185.284804 
Q 642.595834 185.487522 640.583426 185.487522 
Q 634.582229 185.487522 631.077242 183.985563 
Q 627.572254 182.483603 627.572254 179.915068 
Q 627.572254 177.337318 631.077242 175.837663 
Q 634.582229 174.335703 640.583426 174.335703 
Q 642.595834 174.335703 644.443544 174.538421 
Q 646.291254 174.738836 648 175.135059 
L 648 177.358051 
Q 646.275814 176.832826 644.603096 176.588642 
Q 642.930378 176.344459 641.082668 176.344459 
Q 637.768113 176.344459 635.868935 177.295853 
Q 633.974904 178.244944 633.974904 179.915068 
Q 633.974904 181.578281 635.868935 182.529676 
Q 637.768113 183.478767 641.082668 183.478767 
Q 642.930378 183.478767 644.603096 183.234583 
Q 646.275814 182.988096 648 182.462871 
L 648 184.688167 
z
" clip-path="url(#pc5da84227a)" style="fill: #0000ff"/>
   </g>
   <g id="patch_105">
    <path d="M 627.572254 162.774643 
L 648 162.774643 
L 648 165.029372 
L 640.650762 165.029372 
L 640.650762 174.335703 
L 634.935744 174.335703 
L 634.935744 165.029372 
L 627.572254 165.029372 
L 627.572254 162.774643 
z
" clip-path="url(#pc5da84227a)" style="fill: #ff0000"/>
   </g>
   <g id="matplotlib.axis_1">
    <g id="xtick_1">
     <g id="line2d_2">
      <defs>
       <path id="ma470c8170a" d="M 0 0 
L 0 3.5 
" style="stroke: #000000; stroke-width: 0.8"/>
      </defs>
      <g>
       <use xlink:href="#ma470c8170a" x="100.213873" y="192.24" style="stroke: #000000; stroke-width: 0.8"/>
      </g>
     </g>
     <g id="text_1">
      <!-- 0 -->
      <g transform="translate(97.032623 206.838437) scale(0.1 -0.1)">
       <defs>
        <path id="DejaVuSans-30" d="M 2034 4250 
Q 1547 4250 1301 3770 
Q 1056 3291 1056 2328 
Q 1056 1369 1301 889 
Q 1547 409 2034 409 
Q 2525 409 2770 889 
Q 3016 1369 3016 2328 
Q 3016 3291 2770 3770 
Q 2525 4250 2034 4250 
z
M 2034 4750 
Q 2819 4750 3233 4129 
Q 3647 3509 3647 2328 
Q 3647 1150 3233 529 
Q 2819 -91 2034 -91 
Q 1250 -91 836 529 
Q 422 1150 422 2328 
Q 422 3509 836 4129 
Q 1250 4750 2034 4750 
z
" transform="scale(0.015625)"/>
       </defs>
       <use xlink:href="#DejaVuSans-30"/>
      </g>
     </g>
    </g>
    <g id="xtick_2">
     <g id="line2d_3">
      <g>
       <use xlink:href="#ma470c8170a" x="207.728324" y="192.24" style="stroke: #000000; stroke-width: 0.8"/>
      </g>
     </g>
     <g id="text_2">
      <!-- 5 -->
      <g transform="translate(204.547074 206.838437) scale(0.1 -0.1)">
       <defs>
        <path id="DejaVuSans-35" d="M 691 4666 
L 3169 4666 
L 3169 4134 
L 1269 4134 
L 1269 2991 
Q 1406 3038 1543 3061 
Q 1681 3084 1819 3084 
Q 2600 3084 3056 2656 
Q 3513 2228 3513 1497 
Q 3513 744 3044 326 
Q 2575 -91 1722 -91 
Q 1428 -91 1123 -41 
Q 819 9 494 109 
L 494 744 
Q 775 591 1075 516 
Q 1375 441 1709 441 
Q 2250 441 2565 725 
Q 2881 1009 2881 1497 
Q 2881 1984 2565 2268 
Q 2250 2553 1709 2553 
Q 1456 2553 1204 2497 
Q 953 2441 691 2322 
L 691 4666 
z
" transform="scale(0.015625)"/>
       </defs>
       <use xlink:href="#DejaVuSans-35"/>
      </g>
     </g>
    </g>
    <g id="xtick_3">
     <g id="line2d_4">
      <g>
       <use xlink:href="#ma470c8170a" x="315.242775" y="192.24" style="stroke: #000000; stroke-width: 0.8"/>
      </g>
     </g>
     <g id="text_3">
      <!-- 10 -->
      <g transform="translate(308.880275 206.838437) scale(0.1 -0.1)">
       <defs>
        <path id="DejaVuSans-31" d="M 794 531 
L 1825 531 
L 1825 4091 
L 703 3866 
L 703 4441 
L 1819 4666 
L 2450 4666 
L 2450 531 
L 3481 531 
L 3481 0 
L 794 0 
L 794 531 
z
" transform="scale(0.015625)"/>
       </defs>
       <use xlink:href="#DejaVuSans-31"/>
       <use xlink:href="#DejaVuSans-30" x="63.623047"/>
      </g>
     </g>
    </g>
    <g id="xtick_4">
     <g id="line2d_5">
      <g>
       <use xlink:href="#ma470c8170a" x="422.757225" y="192.24" style="stroke: #000000; stroke-width: 0.8"/>
      </g>
     </g>
     <g id="text_4">
      <!-- 15 -->
      <g transform="translate(416.394725 206.838437) scale(0.1 -0.1)">
       <use xlink:href="#DejaVuSans-31"/>
       <use xlink:href="#DejaVuSans-35" x="63.623047"/>
      </g>
     </g>
    </g>
    <g id="xtick_5">
     <g id="line2d_6">
      <g>
       <use xlink:href="#ma470c8170a" x="530.271676" y="192.24" style="stroke: #000000; stroke-width: 0.8"/>
      </g>
     </g>
     <g id="text_5">
      <!-- 20 -->
      <g transform="translate(523.909176 206.838437) scale(0.1 -0.1)">
       <defs>
        <path id="DejaVuSans-32" d="M 1228 531 
L 3431 531 
L 3431 0 
L 469 0 
L 469 531 
Q 828 903 1448 1529 
Q 2069 2156 2228 2338 
Q 2531 2678 2651 2914 
Q 2772 3150 2772 3378 
Q 2772 3750 2511 3984 
Q 2250 4219 1831 4219 
Q 1534 4219 1204 4116 
Q 875 4013 500 3803 
L 500 4441 
Q 881 4594 1212 4672 
Q 1544 4750 1819 4750 
Q 2544 4750 2975 4387 
Q 3406 4025 3406 3419 
Q 3406 3131 3298 2873 
Q 3191 2616 2906 2266 
Q 2828 2175 2409 1742 
Q 1991 1309 1228 531 
z
" transform="scale(0.015625)"/>
       </defs>
       <use xlink:href="#DejaVuSans-32"/>
       <use xlink:href="#DejaVuSans-30" x="63.623047"/>
      </g>
     </g>
    </g>
    <g id="xtick_6">
     <g id="line2d_7">
      <g>
       <use xlink:href="#ma470c8170a" x="637.786127" y="192.24" style="stroke: #000000; stroke-width: 0.8"/>
      </g>
     </g>
     <g id="text_6">
      <!-- 25 -->
      <g transform="translate(631.423627 206.838437) scale(0.1 -0.1)">
       <use xlink:href="#DejaVuSans-32"/>
       <use xlink:href="#DejaVuSans-35" x="63.623047"/>
      </g>
     </g>
    </g>
   </g>
   <g id="matplotlib.axis_2">
    <g id="ytick_1">
     <g id="line2d_8">
      <defs>
       <path id="ma6681d4a2f" d="M 0 0 
L -3.5 0 
" style="stroke: #000000; stroke-width: 0.8"/>
      </defs>
      <g>
       <use xlink:href="#ma6681d4a2f" x="90" y="192.24" style="stroke: #000000; stroke-width: 0.8"/>
      </g>
     </g>
     <g id="text_7">
      <!-- 0.0 -->
      <g transform="translate(67.096875 196.039219) scale(0.1 -0.1)">
       <defs>
        <path id="DejaVuSans-2e" d="M 684 794 
L 1344 794 
L 1344 0 
L 684 0 
L 684 794 
z
" transform="scale(0.015625)"/>
       </defs>
       <use xlink:href="#DejaVuSans-30"/>
       <use xlink:href="#DejaVuSans-2e" x="63.623047"/>
       <use xlink:href="#DejaVuSans-30" x="95.410156"/>
      </g>
     </g>
    </g>
    <g id="ytick_2">
     <g id="line2d_9">
      <g>
       <use xlink:href="#ma6681d4a2f" x="90" y="168.283738" style="stroke: #000000; stroke-width: 0.8"/>
      </g>
     </g>
     <g id="text_8">
      <!-- 0.2 -->
      <g transform="translate(67.096875 172.082957) scale(0.1 -0.1)">
       <use xlink:href="#DejaVuSans-30"/>
       <use xlink:href="#DejaVuSans-2e" x="63.623047"/>
       <use xlink:href="#DejaVuSans-32" x="95.410156"/>
      </g>
     </g>
    </g>
    <g id="ytick_3">
     <g id="line2d_10">
      <g>
       <use xlink:href="#ma6681d4a2f" x="90" y="144.327476" style="stroke: #000000; stroke-width: 0.8"/>
      </g>
     </g>
     <g id="text_9">
      <!-- 0.4 -->
      <g transform="translate(67.096875 148.126695) scale(0.1 -0.1)">
       <defs>
        <path id="DejaVuSans-34" d="M 2419 4116 
L 825 1625 
L 2419 1625 
L 2419 4116 
z
M 2253 4666 
L 3047 4666 
L 3047 1625 
L 3713 1625 
L 3713 1100 
L 3047 1100 
L 3047 0 
L 2419 0 
L 2419 1100 
L 313 1100 
L 313 1709 
L 2253 4666 
z
" transform="scale(0.015625)"/>
       </defs>
       <use xlink:href="#DejaVuSans-30"/>
       <use xlink:href="#DejaVuSans-2e" x="63.623047"/>
       <use xlink:href="#DejaVuSans-34" x="95.410156"/>
      </g>
     </g>
    </g>
    <g id="ytick_4">
     <g id="line2d_11">
      <g>
       <use xlink:href="#ma6681d4a2f" x="90" y="120.371214" style="stroke: #000000; stroke-width: 0.8"/>
      </g>
     </g>
     <g id="text_10">
      <!-- 0.6 -->
      <g transform="translate(67.096875 124.170433) scale(0.1 -0.1)">
       <defs>
        <path id="DejaVuSans-36" d="M 2113 2584 
Q 1688 2584 1439 2293 
Q 1191 2003 1191 1497 
Q 1191 994 1439 701 
Q 1688 409 2113 409 
Q 2538 409 2786 701 
Q 3034 994 3034 1497 
Q 3034 2003 2786 2293 
Q 2538 2584 2113 2584 
z
M 3366 4563 
L 3366 3988 
Q 3128 4100 2886 4159 
Q 2644 4219 2406 4219 
Q 1781 4219 1451 3797 
Q 1122 3375 1075 2522 
Q 1259 2794 1537 2939 
Q 1816 3084 2150 3084 
Q 2853 3084 3261 2657 
Q 3669 2231 3669 1497 
Q 3669 778 3244 343 
Q 2819 -91 2113 -91 
Q 1303 -91 875 529 
Q 447 1150 447 2328 
Q 447 3434 972 4092 
Q 1497 4750 2381 4750 
Q 2619 4750 2861 4703 
Q 3103 4656 3366 4563 
z
" transform="scale(0.015625)"/>
       </defs>
       <use xlink:href="#DejaVuSans-30"/>
       <use xlink:href="#DejaVuSans-2e" x="63.623047"/>
       <use xlink:href="#DejaVuSans-36" x="95.410156"/>
      </g>
     </g>
    </g>
    <g id="ytick_5">
     <g id="line2d_12">
      <g>
       <use xlink:href="#ma6681d4a2f" x="90" y="96.414953" style="stroke: #000000; stroke-width: 0.8"/>
      </g>
     </g>
     <g id="text_11">
      <!-- 0.8 -->
      <g transform="translate(67.096875 100.214171) scale(0.1 -0.1)">
       <defs>
        <path id="DejaVuSans-38" d="M 2034 2216 
Q 1584 2216 1326 1975 
Q 1069 1734 1069 1313 
Q 1069 891 1326 650 
Q 1584 409 2034 409 
Q 2484 409 2743 651 
Q 3003 894 3003 1313 
Q 3003 1734 2745 1975 
Q 2488 2216 2034 2216 
z
M 1403 2484 
Q 997 2584 770 2862 
Q 544 3141 544 3541 
Q 544 4100 942 4425 
Q 1341 4750 2034 4750 
Q 2731 4750 3128 4425 
Q 3525 4100 3525 3541 
Q 3525 3141 3298 2862 
Q 3072 2584 2669 2484 
Q 3125 2378 3379 2068 
Q 3634 1759 3634 1313 
Q 3634 634 3220 271 
Q 2806 -91 2034 -91 
Q 1263 -91 848 271 
Q 434 634 434 1313 
Q 434 1759 690 2068 
Q 947 2378 1403 2484 
z
M 1172 3481 
Q 1172 3119 1398 2916 
Q 1625 2713 2034 2713 
Q 2441 2713 2670 2916 
Q 2900 3119 2900 3481 
Q 2900 3844 2670 4047 
Q 2441 4250 2034 4250 
Q 1625 4250 1398 4047 
Q 1172 3844 1172 3481 
z
" transform="scale(0.015625)"/>
       </defs>
       <use xlink:href="#DejaVuSans-30"/>
       <use xlink:href="#DejaVuSans-2e" x="63.623047"/>
       <use xlink:href="#DejaVuSans-38" x="95.410156"/>
      </g>
     </g>
    </g>
    <g id="ytick_6">
     <g id="line2d_13">
      <g>
       <use xlink:href="#ma6681d4a2f" x="90" y="72.458691" style="stroke: #000000; stroke-width: 0.8"/>
      </g>
     </g>
     <g id="text_12">
      <!-- 1.0 -->
      <g transform="translate(67.096875 76.257909) scale(0.1 -0.1)">
       <use xlink:href="#DejaVuSans-31"/>
       <use xlink:href="#DejaVuSans-2e" x="63.623047"/>
       <use xlink:href="#DejaVuSans-30" x="95.410156"/>
      </g>
     </g>
    </g>
    <g id="ytick_7">
     <g id="line2d_14">
      <g>
       <use xlink:href="#ma6681d4a2f" x="90" y="48.502429" style="stroke: #000000; stroke-width: 0.8"/>
      </g>
     </g>
     <g id="text_13">
      <!-- 1.2 -->
      <g transform="translate(67.096875 52.301648) scale(0.1 -0.1)">
       <use xlink:href="#DejaVuSans-31"/>
       <use xlink:href="#DejaVuSans-2e" x="63.623047"/>
       <use xlink:href="#DejaVuSans-32" x="95.410156"/>
      </g>
     </g>
    </g>
   </g>
  </g>
 </g>
 <defs>
  <clipPath id="pc5da84227a">
   <rect x="90" y="25.92" width="558" height="166.32"/>
  </clipPath>
 </defs>
</svg>
