<?xml version="1.0" encoding="utf-8" standalone="no"?>
<!DOCTYPE svg PUBLIC "-//W3C//DTD SVG 1.1//EN"
  "http://www.w3.org/Graphics/SVG/1.1/DTD/svg11.dtd">
<svg xmlns:xlink="http://www.w3.org/1999/xlink" width="720pt" height="216pt" viewBox="0 0 720 216" xmlns="http://www.w3.org/2000/svg" version="1.1">
 <metadata>
  <rdf:RDF xmlns:dc="http://purl.org/dc/elements/1.1/" xmlns:cc="http://creativecommons.org/ns#" xmlns:rdf="http://www.w3.org/1999/02/22-rdf-syntax-ns#">
   <cc:Work>
    <dc:type rdf:resource="http://purl.org/dc/dcmitype/StillImage"/>
    <dc:date>2025-12-17T10:22:01.728372</dc:date>
    <dc:format>image/svg+xml</dc:format>
    <dc:creator>
     <cc:Agent>
      <dc:title>Matplotlib v3.8.2, https://matplotlib.org/</dc:title>
     </cc:Agent>
    </dc:creator>
   </cc:Work>
  </rdf:RDF>
 </metadata>
 <defs>
  <style type="text/css">*{stroke-linejoin: round; stroke-linecap: butt}</style>
 </defs>
 <g id="figure_1">
  <g id="patch_1">
   <path d="M 0 216 
L 720 216 
L 720 0 
L 0 0 
z
" style="fill: #ffffff"/>
  </g>
  <g id="axes_1">
   <g id="patch_2">
    <path d="M 90 192.24 
L 648 192.24 
L 648 25.92 
L 90 25.92 
z
" style="fill: #ffffff"/>
   </g>
   <g id="line2d_1">
    <path d="M 90 192.24 
L 648 192.24 
" clip-path="url(#pd16a8c3a0f)" style="fill: none; stroke: #000000; stroke-width: 0.5; stroke-linecap: square"/>
   </g>
   <g id="patch_3">
    <path d="M 134.359833 191.927982 
Q 129.886071 192.083991 125.074292 192.162352 
Q 120.262512 192.24 115.132599 192.24 
Q 103.540585 192.24 96.770293 191.775535 
Q 90 191.311069 90 190.516777 
Q 90 189.713223 96.889593 189.25232 
Q 103.789128 188.791417 115.788751 188.791417 
Q 120.411638 188.791417 124.646799 188.854105 
Q 128.891902 188.916081 132.649861 189.038609 
L 132.649861 189.726046 
Q 128.772601 189.568612 124.935108 189.490964 
Q 121.097615 189.412603 117.240238 189.412603 
Q 110.102103 189.412603 106.234784 189.698976 
Q 102.367466 189.984636 102.367466 190.516777 
Q 102.367466 191.043931 106.0956 191.331728 
Q 109.823735 191.618813 116.683503 191.618813 
Q 118.552541 191.618813 120.153154 191.602429 
Q 121.753766 191.585332 123.026303 191.549713 
L 123.026303 190.904306 
L 115.719159 190.904306 
L 115.719159 190.329424 
L 134.359833 190.329424 
L 134.359833 191.927982 
z
" clip-path="url(#pd16a8c3a0f)" style="fill: #ffa600"/>
   </g>
   <g id="patch_4">
    <path d="M 134.359833 188.523187 
Q 130.649209 188.656142 126.636818 188.723393 
Q 122.624427 188.791417 118.254386 188.791417 
Q 105.222497 188.791417 97.611249 188.287422 
Q 90 187.783428 90 186.921536 
Q 90 186.056552 97.611249 185.553331 
Q 105.222497 185.049337 118.254386 185.049337 
Q 122.624427 185.049337 126.636818 185.117361 
Q 130.649209 185.184611 134.359833 185.317567 
L 134.359833 186.063509 
Q 130.615679 185.887266 126.983292 185.805328 
Q 123.350905 185.72339 119.338514 185.72339 
Q 112.140798 185.72339 108.016642 186.042638 
Q 103.903661 186.361113 103.903661 186.921536 
Q 103.903661 187.47964 108.016642 187.798888 
Q 112.140798 188.117363 119.338514 188.117363 
Q 123.350905 188.117363 126.983292 188.035425 
Q 130.615679 187.952715 134.359833 187.776471 
L 134.359833 188.523187 
z
" clip-path="url(#pd16a8c3a0f)" style="fill: #0000ff"/>
   </g>
   <g id="patch_5">
    <path d="M 120.728095 183.873087 
L 103.668016 183.873087 
L 100.97432 185.049337 
L 90 185.049337 
L 105.672417 178.592415 
L 118.687416 178.592415 
L 134.359833 185.049337 
L 123.394583 185.049337 
L 120.728095 183.873087 
z
M 106.388922 182.674695 
L 117.97998 182.674695 
L 112.193521 180.106318 
L 106.388922 182.674695 
z
" clip-path="url(#pd16a8c3a0f)" style="fill: #008000"/>
   </g>
   <g id="patch_6">
    <path d="M 90 160.94594 
L 134.359833 160.94594 
L 134.359833 164.387494 
L 118.400609 164.387494 
L 118.400609 178.592415 
L 105.990172 178.592415 
L 105.990172 164.387494 
L 90 164.387494 
L 90 160.94594 
z
" clip-path="url(#pd16a8c3a0f)" style="fill: #ff0000"/>
   </g>
   <g id="patch_7">
    <path d="M 181.054393 192.071134 
Q 177.34377 192.154837 173.331379 192.197175 
Q 169.318988 192.24 164.948946 192.24 
Q 151.917058 192.24 144.305809 191.922708 
Q 136.694561 191.605416 136.694561 191.062807 
Q 136.694561 190.518252 144.305809 190.201446 
Q 151.917058 189.884154 164.948946 189.884154 
Q 169.318988 189.884154 173.331379 189.926979 
Q 177.34377 189.969317 181.054393 190.05302 
L 181.054393 190.522632 
Q 177.31024 190.411677 173.677853 190.360093 
Q 170.045465 190.308508 166.033074 190.308508 
Q 158.835359 190.308508 154.711202 190.509492 
Q 150.598222 190.70999 150.598222 191.062807 
Q 150.598222 191.414164 154.711202 191.615149 
Q 158.835359 191.815646 166.033074 191.815646 
Q 170.045465 191.815646 173.677853 191.764062 
Q 177.31024 191.711991 181.054393 191.601036 
L 181.054393 192.071134 
z
" clip-path="url(#pd16a8c3a0f)" style="fill: #0000ff"/>
   </g>
   <g id="patch_8">
    <path d="M 167.422656 189.43115 
L 150.362577 189.43115 
L 147.66888 189.884154 
L 136.694561 189.884154 
L 152.366978 187.397428 
L 165.381976 187.397428 
L 181.054393 189.884154 
L 170.089143 189.884154 
L 167.422656 189.43115 
z
M 153.083483 188.969619 
L 164.674541 188.969619 
L 158.888082 187.980471 
L 153.083483 188.969619 
z
" clip-path="url(#pd16a8c3a0f)" style="fill: #008000"/>
   </g>
   <g id="patch_9">
    <path d="M 136.694561 182.227656 
L 181.054393 182.227656 
L 181.054393 183.235906 
L 165.09517 183.235906 
L 165.09517 187.397428 
L 152.684733 187.397428 
L 152.684733 183.235906 
L 136.694561 183.235906 
L 136.694561 182.227656 
z
" clip-path="url(#pd16a8c3a0f)" style="fill: #ff0000"/>
   </g>
   <g id="patch_10">
    <path d="M 181.054393 181.450052 
Q 176.580632 181.838854 171.768852 182.034143 
Q 166.957073 182.227656 161.82716 182.227656 
Q 150.235146 182.227656 143.464853 181.070127 
Q 136.694561 179.912598 136.694561 177.933082 
Q 136.694561 175.930486 143.584154 174.781834 
Q 150.483688 173.633182 162.483311 173.633182 
Q 167.106199 173.633182 171.34136 173.789413 
Q 175.586462 173.943868 179.344422 174.249229 
L 179.344422 175.962442 
Q 175.467162 175.57009 171.629669 175.376577 
Q 167.792175 175.181288 163.934799 175.181288 
Q 156.796663 175.181288 152.929345 175.894979 
Q 149.062026 176.606895 149.062026 177.933082 
Q 149.062026 179.246842 152.790161 179.964083 
Q 156.518296 180.67955 163.378064 180.67955 
Q 165.247102 180.67955 166.847714 180.638717 
Q 168.448327 180.596108 169.720864 180.507341 
L 169.720864 178.898873 
L 162.41372 178.898873 
L 162.41372 177.466165 
L 181.054393 177.466165 
L 181.054393 181.450052 
z
" clip-path="url(#pd16a8c3a0f)" style="fill: #ffa600"/>
   </g>
   <g id="patch_11">
    <path d="M 214.117216 191.926603 
L 197.057138 191.926603 
L 194.363441 192.24 
L 183.389121 192.24 
L 199.061538 190.519636 
L 212.076537 190.519636 
L 227.748954 192.24 
L 216.783704 192.24 
L 214.117216 191.926603 
z
M 199.778043 191.607307 
L 211.369102 191.607307 
L 205.582642 190.922996 
L 199.778043 191.607307 
z
" clip-path="url(#pd16a8c3a0f)" style="fill: #008000"/>
   </g>
   <g id="patch_12">
    <path d="M 183.389121 188.745511 
L 227.748954 188.745511 
L 227.748954 189.091515 
L 211.78973 189.091515 
L 211.78973 190.519636 
L 199.379294 190.519636 
L 199.379294 189.091515 
L 183.389121 189.091515 
L 183.389121 188.745511 
z
" clip-path="url(#pd16a8c3a0f)" style="fill: #ff0000"/>
   </g>
   <g id="patch_13">
    <path d="M 227.748954 188.616031 
Q 224.038331 188.680211 220.02594 188.712675 
Q 216.013549 188.745511 211.643507 188.745511 
Q 198.611619 188.745511 191.00037 188.502222 
Q 183.389121 188.258934 183.389121 187.84288 
Q 183.389121 187.425334 191.00037 187.182418 
Q 198.611619 186.939129 211.643507 186.939129 
Q 216.013549 186.939129 220.02594 186.971966 
Q 224.038331 187.004429 227.748954 187.06861 
L 227.748954 187.428692 
Q 224.004801 187.343616 220.372413 187.304063 
Q 216.740026 187.264509 212.727635 187.264509 
Q 205.52992 187.264509 201.405763 187.418617 
Q 197.292783 187.572352 197.292783 187.84288 
Q 197.292783 188.112289 201.405763 188.266397 
Q 205.52992 188.420131 212.727635 188.420131 
Q 216.740026 188.420131 220.372413 188.380578 
Q 224.004801 188.340652 227.748954 188.255575 
L 227.748954 188.616031 
z
" clip-path="url(#pd16a8c3a0f)" style="fill: #0000ff"/>
   </g>
   <g id="patch_14">
    <path d="M 227.748954 186.588909 
Q 223.275192 186.764019 218.463413 186.851974 
Q 213.651634 186.939129 208.52172 186.939129 
Q 196.929707 186.939129 190.159414 186.417796 
Q 183.389121 185.896463 183.389121 185.00492 
Q 183.389121 184.102981 190.278714 183.585646 
Q 197.178249 183.068311 209.177872 183.068311 
Q 213.800759 183.068311 218.03592 183.138675 
Q 222.281023 183.208239 226.038983 183.345769 
L 226.038983 184.117374 
Q 222.161723 183.940665 218.324229 183.853509 
Q 214.486736 183.765554 210.629359 183.765554 
Q 203.491224 183.765554 199.623905 184.08699 
Q 195.756587 184.407625 195.756587 185.00492 
Q 195.756587 185.596617 199.484722 185.919651 
Q 203.212856 186.241886 210.072624 186.241886 
Q 211.941663 186.241886 213.542275 186.223496 
Q 215.142888 186.204306 216.415424 186.164326 
L 216.415424 185.439897 
L 209.10828 185.439897 
L 209.10828 184.794627 
L 227.748954 184.794627 
L 227.748954 186.588909 
z
" clip-path="url(#pd16a8c3a0f)" style="fill: #ffa600"/>
   </g>
   <g id="patch_15">
    <path d="M 274.443515 192.158806 
Q 269.969753 192.199403 265.157974 192.219794 
Q 260.346194 192.24 255.216281 192.24 
Q 243.624267 192.24 236.853975 192.119136 
Q 230.083682 191.998271 230.083682 191.791578 
Q 230.083682 191.582476 236.973275 191.462538 
Q 243.87281 191.342601 255.872433 191.342601 
Q 260.49532 191.342601 264.730481 191.358914 
Q 268.975584 191.375041 272.733544 191.406926 
L 272.733544 191.585812 
Q 268.856283 191.544845 265.01879 191.524639 
Q 261.181297 191.504248 257.32392 191.504248 
Q 250.185785 191.504248 246.318466 191.578768 
Q 242.451148 191.653104 242.451148 191.791578 
Q 242.451148 191.928756 246.179282 192.003647 
Q 249.907417 192.078353 256.767185 192.078353 
Q 258.636223 192.078353 260.236836 192.07409 
Q 261.837448 192.069641 263.109985 192.060372 
L 263.109985 191.892422 
L 255.802841 191.892422 
L 255.802841 191.742825 
L 274.443515 191.742825 
L 274.443515 192.158806 
z
" clip-path="url(#pd16a8c3a0f)" style="fill: #ffa600"/>
   </g>
   <g id="patch_16">
    <path d="M 274.443515 191.241895 
Q 270.732891 191.291813 266.7205 191.317062 
Q 262.708109 191.342601 258.338068 191.342601 
Q 245.306179 191.342601 237.694931 191.153379 
Q 230.083682 190.964157 230.083682 190.640564 
Q 230.083682 190.31581 237.694931 190.126878 
Q 245.306179 189.937656 258.338068 189.937656 
Q 262.708109 189.937656 266.7205 189.963195 
Q 270.732891 189.988444 274.443515 190.038362 
L 274.443515 190.318422 
Q 270.699361 190.252252 267.066974 190.221489 
Q 263.434587 190.190726 259.422196 190.190726 
Q 252.22448 190.190726 248.100324 190.310586 
Q 243.987343 190.430156 243.987343 190.640564 
Q 243.987343 190.850101 248.100324 190.969961 
Q 252.22448 191.089531 259.422196 191.089531 
Q 263.434587 191.089531 267.066974 191.058768 
Q 270.699361 191.027714 274.443515 190.961545 
L 274.443515 191.241895 
z
" clip-path="url(#pd16a8c3a0f)" style="fill: #0000ff"/>
   </g>
   <g id="patch_17">
    <path d="M 260.811777 189.61338 
L 243.751698 189.61338 
L 241.058002 189.937656 
L 230.083682 189.937656 
L 245.756099 188.157569 
L 258.771098 188.157569 
L 274.443515 189.937656 
L 263.478265 189.937656 
L 260.811777 189.61338 
z
M 246.472604 189.282999 
L 258.063662 189.282999 
L 252.277203 188.574932 
L 246.472604 189.282999 
z
" clip-path="url(#pd16a8c3a0f)" style="fill: #008000"/>
   </g>
   <g id="patch_18">
    <path d="M 230.083682 185.965561 
L 274.443515 185.965561 
L 274.443515 186.393064 
L 258.484291 186.393064 
L 258.484291 188.157569 
L 246.073854 188.157569 
L 246.073854 186.393064 
L 230.083682 186.393064 
L 230.083682 185.965561 
z
" clip-path="url(#pd16a8c3a0f)" style="fill: #ff0000"/>
   </g>
   <g id="patch_19">
    <path d="M 307.506338 191.300919 
L 290.446259 191.300919 
L 287.752562 192.24 
L 276.778243 192.24 
L 292.45066 187.084996 
L 305.465658 187.084996 
L 321.138075 192.24 
L 310.172825 192.24 
L 307.506338 191.300919 
z
M 293.167165 190.344161 
L 304.758223 190.344161 
L 298.971764 188.293649 
L 293.167165 190.344161 
z
" clip-path="url(#pd16a8c3a0f)" style="fill: #008000"/>
   </g>
   <g id="patch_20">
    <path d="M 321.138075 186.540851 
Q 316.664314 186.812923 311.852534 186.949581 
Q 307.040755 187.084996 301.910842 187.084996 
Q 290.318828 187.084996 283.548535 186.27499 
Q 276.778243 185.464984 276.778243 184.079774 
Q 276.778243 182.678413 283.667836 181.874619 
Q 290.56737 181.070824 302.566993 181.070824 
Q 307.189881 181.070824 311.425042 181.18015 
Q 315.670144 181.288234 319.428104 181.501917 
L 319.428104 182.700775 
Q 315.550844 182.426218 311.713351 182.290803 
Q 307.875857 182.154146 304.018481 182.154146 
Q 296.880345 182.154146 293.013027 182.653566 
Q 289.145708 183.151745 289.145708 184.079774 
Q 289.145708 184.999106 292.873843 185.501011 
Q 296.601978 186.001675 303.461746 186.001675 
Q 305.330784 186.001675 306.931397 185.973101 
Q 308.532009 185.943285 309.804546 185.881168 
L 309.804546 184.755607 
L 302.497402 184.755607 
L 302.497402 183.753038 
L 321.138075 183.753038 
L 321.138075 186.540851 
z
" clip-path="url(#pd16a8c3a0f)" style="fill: #ffa600"/>
   </g>
   <g id="patch_21">
    <path d="M 321.138075 180.605518 
Q 317.427452 180.83616 313.415061 180.952822 
Q 309.40267 181.070824 305.032628 181.070824 
Q 292.00074 181.070824 284.389491 180.196532 
Q 276.778243 179.32224 276.778243 177.827092 
Q 276.778243 176.326581 284.389491 175.45363 
Q 292.00074 174.579338 305.032628 174.579338 
Q 309.40267 174.579338 313.415061 174.69734 
Q 317.427452 174.814002 321.138075 175.044644 
L 321.138075 176.33865 
Q 317.393922 176.032916 313.761535 175.890776 
Q 310.129147 175.748637 306.116756 175.748637 
Q 298.919041 175.748637 294.794884 176.302445 
Q 290.681904 176.854912 290.681904 177.827092 
Q 290.681904 178.795251 294.794884 179.349058 
Q 298.919041 179.901525 306.116756 179.901525 
Q 310.129147 179.901525 313.761535 179.759386 
Q 317.393922 179.615905 321.138075 179.310171 
L 321.138075 180.605518 
z
" clip-path="url(#pd16a8c3a0f)" style="fill: #0000ff"/>
   </g>
   <g id="patch_22">
    <path d="M 276.778243 110.810027 
L 321.138075 110.810027 
L 321.138075 123.24682 
L 305.178852 123.24682 
L 305.178852 174.579338 
L 292.768415 174.579338 
L 292.768415 123.24682 
L 276.778243 123.24682 
L 276.778243 110.810027 
z
" clip-path="url(#pd16a8c3a0f)" style="fill: #ff0000"/>
   </g>
   <g id="patch_23">
    <path d="M 354.200898 192.097921 
L 337.14082 192.097921 
L 334.447123 192.24 
L 323.472803 192.24 
L 339.14522 191.46007 
L 352.160219 191.46007 
L 367.832636 192.24 
L 356.867386 192.24 
L 354.200898 192.097921 
z
M 339.861725 191.953168 
L 351.452784 191.953168 
L 345.666324 191.642934 
L 339.861725 191.953168 
z
" clip-path="url(#pd16a8c3a0f)" style="fill: #008000"/>
   </g>
   <g id="patch_24">
    <path d="M 367.832636 191.371863 
Q 363.358874 191.415967 358.547095 191.438119 
Q 353.735316 191.46007 348.605402 191.46007 
Q 337.013389 191.46007 330.243096 191.328766 
Q 323.472803 191.197462 323.472803 190.972916 
Q 323.472803 190.745752 330.362396 190.615455 
Q 337.261931 190.485158 349.261554 190.485158 
Q 353.884441 190.485158 358.119602 190.50288 
Q 362.364705 190.520401 366.122665 190.555039 
L 366.122665 190.749377 
Q 362.245405 190.704871 358.407911 190.68292 
Q 354.570418 190.660767 350.713041 190.660767 
Q 343.574906 190.660767 339.707587 190.741725 
Q 335.840269 190.822481 335.840269 190.972916 
Q 335.840269 191.121942 339.568404 191.203303 
Q 343.296539 191.284461 350.156306 191.284461 
Q 352.025345 191.284461 353.625957 191.279829 
Q 355.22657 191.274996 356.499106 191.264927 
L 356.499106 191.082471 
L 349.191962 191.082471 
L 349.191962 190.919952 
L 367.832636 190.919952 
L 367.832636 191.371863 
z
" clip-path="url(#pd16a8c3a0f)" style="fill: #ffa600"/>
   </g>
   <g id="patch_25">
    <path d="M 367.832636 190.401301 
Q 364.122013 190.442867 360.109622 190.463892 
Q 356.097231 190.485158 351.727189 190.485158 
Q 338.695301 190.485158 331.084052 190.327593 
Q 323.472803 190.170029 323.472803 189.900574 
Q 323.472803 189.630152 331.084052 189.472829 
Q 338.695301 189.315264 351.727189 189.315264 
Q 356.097231 189.315264 360.109622 189.33653 
Q 364.122013 189.357555 367.832636 189.399121 
L 367.832636 189.632327 
Q 364.088483 189.577227 360.456095 189.551611 
Q 356.823708 189.525995 352.811317 189.525995 
Q 345.613602 189.525995 341.489445 189.625802 
Q 337.376465 189.725367 337.376465 189.900574 
Q 337.376465 190.075055 341.489445 190.174862 
Q 345.613602 190.274427 352.811317 190.274427 
Q 356.823708 190.274427 360.456095 190.248811 
Q 364.088483 190.222953 367.832636 190.167854 
L 367.832636 190.401301 
z
" clip-path="url(#pd16a8c3a0f)" style="fill: #0000ff"/>
   </g>
   <g id="patch_26">
    <path d="M 323.472803 25.92 
L 367.832636 25.92 
L 367.832636 57.786629 
L 351.873412 57.786629 
L 351.873412 189.315264 
L 339.462976 189.315264 
L 339.462976 57.786629 
L 323.472803 57.786629 
L 323.472803 25.92 
z
" clip-path="url(#pd16a8c3a0f)" style="fill: #ff0000"/>
   </g>
   <g id="patch_27">
    <path d="M 414.527197 192.117447 
Q 410.816573 192.178194 406.804182 192.20892 
Q 402.791791 192.24 398.42175 192.24 
Q 385.389861 192.24 377.778613 192.009727 
Q 370.167364 191.779455 370.167364 191.38566 
Q 370.167364 190.990453 377.778613 190.760533 
Q 385.389861 190.53026 398.42175 190.53026 
Q 402.791791 190.53026 406.804182 190.56134 
Q 410.816573 190.592067 414.527197 190.652813 
L 414.527197 190.993631 
Q 410.783043 190.913106 407.150656 190.875669 
Q 403.518269 190.838232 399.505878 190.838232 
Q 392.308162 190.838232 388.184006 190.984095 
Q 384.071025 191.129605 384.071025 191.38566 
Q 384.071025 191.640655 388.184006 191.786518 
Q 392.308162 191.932028 399.505878 191.932028 
Q 403.518269 191.932028 407.150656 191.894591 
Q 410.783043 191.856801 414.527197 191.776276 
L 414.527197 192.117447 
z
" clip-path="url(#pd16a8c3a0f)" style="fill: #0000ff"/>
   </g>
   <g id="patch_28">
    <path d="M 400.895459 190.156507 
L 383.83538 190.156507 
L 381.141684 190.53026 
L 370.167364 190.53026 
L 385.839781 188.478573 
L 398.85478 188.478573 
L 414.527197 190.53026 
L 403.561947 190.53026 
L 400.895459 190.156507 
z
M 386.556286 189.775718 
L 398.147344 189.775718 
L 392.360885 188.959615 
L 386.556286 189.775718 
z
" clip-path="url(#pd16a8c3a0f)" style="fill: #008000"/>
   </g>
   <g id="patch_29">
    <path d="M 370.167364 184.375197 
L 414.527197 184.375197 
L 414.527197 185.17547 
L 398.567973 185.17547 
L 398.567973 188.478573 
L 386.157536 188.478573 
L 386.157536 185.17547 
L 370.167364 185.17547 
L 370.167364 184.375197 
z
" clip-path="url(#pd16a8c3a0f)" style="fill: #ff0000"/>
   </g>
   <g id="patch_30">
    <path d="M 414.527197 171.891519 
Q 410.053435 178.133358 405.241656 181.268528 
Q 400.429876 184.375197 395.299963 184.375197 
Q 383.707949 184.375197 376.937657 165.792187 
Q 370.167364 147.209177 370.167364 115.42995 
Q 370.167364 83.280202 377.056957 64.8397 
Q 383.956492 46.399198 395.956115 46.399198 
Q 400.579002 46.399198 404.814163 48.907334 
Q 409.059266 51.386969 412.817226 56.289235 
L 412.817226 83.79323 
Q 408.939965 77.494388 405.102472 74.387719 
Q 401.264979 71.252548 397.407602 71.252548 
Q 390.269467 71.252548 386.402148 82.710171 
Q 382.53483 94.139292 382.53483 115.42995 
Q 382.53483 136.521096 386.262964 148.035722 
Q 389.991099 159.521846 396.850867 159.521846 
Q 398.719905 159.521846 400.320518 158.866311 
Q 401.92113 158.182273 403.193667 156.757196 
L 403.193667 130.934792 
L 395.886523 130.934792 
L 395.886523 107.934042 
L 414.527197 107.934042 
L 414.527197 171.891519 
z
" clip-path="url(#pd16a8c3a0f)" style="fill: #ffa600"/>
   </g>
   <g id="patch_31">
    <path d="M 447.59002 191.767043 
L 430.529941 191.767043 
L 427.836244 192.24 
L 416.861925 192.24 
L 432.534342 189.643742 
L 445.54934 189.643742 
L 461.221757 192.24 
L 450.256507 192.24 
L 447.59002 191.767043 
z
M 433.250847 191.285182 
L 444.841905 191.285182 
L 439.055446 190.252466 
L 433.250847 191.285182 
z
" clip-path="url(#pd16a8c3a0f)" style="fill: #008000"/>
   </g>
   <g id="patch_32">
    <path d="M 461.221757 189.236098 
Q 457.511134 189.438158 453.498743 189.540363 
Q 449.486352 189.643742 445.11631 189.643742 
Q 432.084422 189.643742 424.473173 188.877795 
Q 416.861925 188.111847 416.861925 186.801983 
Q 416.861925 185.48742 424.473173 184.722648 
Q 432.084422 183.9567 445.11631 183.9567 
Q 449.486352 183.9567 453.498743 184.06008 
Q 457.511134 184.162285 461.221757 184.364344 
L 461.221757 185.497993 
Q 457.477604 185.230147 453.845217 185.105621 
Q 450.212829 184.981096 446.200438 184.981096 
Q 439.002723 184.981096 434.878566 185.466275 
Q 430.765586 185.950278 430.765586 186.801983 
Q 430.765586 187.650164 434.878566 188.135343 
Q 439.002723 188.619346 446.200438 188.619346 
Q 450.212829 188.619346 453.845217 188.494821 
Q 457.477604 188.369121 461.221757 188.101274 
L 461.221757 189.236098 
z
" clip-path="url(#pd16a8c3a0f)" style="fill: #0000ff"/>
   </g>
   <g id="patch_33">
    <path d="M 416.861925 176.415189 
L 461.221757 176.415189 
L 461.221757 177.885994 
L 445.262534 177.885994 
L 445.262534 183.9567 
L 432.852097 183.9567 
L 432.852097 177.885994 
L 416.861925 177.885994 
L 416.861925 176.415189 
z
" clip-path="url(#pd16a8c3a0f)" style="fill: #ff0000"/>
   </g>
   <g id="patch_34">
    <path d="M 461.221757 168.305474 
Q 456.747996 172.360331 451.936216 174.397018 
Q 447.124437 176.415189 441.994524 176.415189 
Q 430.40251 176.415189 423.632217 164.343193 
Q 416.861925 152.271197 416.861925 131.626603 
Q 416.861925 110.741309 423.751518 98.76189 
Q 430.651052 86.78247 442.650675 86.78247 
Q 447.273563 86.78247 451.508724 88.411819 
Q 455.753826 90.022653 459.511786 93.20729 
L 459.511786 111.074585 
Q 455.634526 106.982697 451.797033 104.964526 
Q 447.959539 102.927839 444.102163 102.927839 
Q 436.964027 102.927839 433.096709 110.371002 
Q 429.22939 117.79565 429.22939 131.626603 
Q 429.22939 145.327948 432.957525 152.808142 
Q 436.68566 160.26982 443.545428 160.26982 
Q 445.414466 160.26982 447.015079 159.843967 
Q 448.615691 159.3996 449.888228 158.473833 
L 449.888228 141.698943 
L 442.581084 141.698943 
L 442.581084 126.757071 
L 461.221757 126.757071 
L 461.221757 168.305474 
z
" clip-path="url(#pd16a8c3a0f)" style="fill: #ffa600"/>
   </g>
   <g id="patch_35">
    <path d="M 463.556485 189.937621 
L 507.916318 189.937621 
L 507.916318 190.386649 
L 491.957094 190.386649 
L 491.957094 192.24 
L 479.546658 192.24 
L 479.546658 190.386649 
L 463.556485 190.386649 
L 463.556485 189.937621 
z
" clip-path="url(#pd16a8c3a0f)" style="fill: #ff0000"/>
   </g>
   <g id="patch_36">
    <path d="M 507.916318 189.753649 
Q 504.205695 189.84484 500.193304 189.890965 
Q 496.180913 189.937621 491.810871 189.937621 
Q 478.778983 189.937621 471.167734 189.591945 
Q 463.556485 189.24627 463.556485 188.655123 
Q 463.556485 188.061855 471.167734 187.71671 
Q 478.778983 187.371034 491.810871 187.371034 
Q 496.180913 187.371034 500.193304 187.41769 
Q 504.205695 187.463815 507.916318 187.555006 
L 507.916318 188.066626 
Q 504.172165 187.945746 500.539777 187.889547 
Q 496.90739 187.833349 492.894999 187.833349 
Q 485.697284 187.833349 481.573127 188.052312 
Q 477.460147 188.270744 477.460147 188.655123 
Q 477.460147 189.037911 481.573127 189.256874 
Q 485.697284 189.475307 492.894999 189.475307 
Q 496.90739 189.475307 500.539777 189.419108 
Q 504.172165 189.362379 507.916318 189.241498 
L 507.916318 189.753649 
z
" clip-path="url(#pd16a8c3a0f)" style="fill: #0000ff"/>
   </g>
   <g id="patch_37">
    <path d="M 507.916318 187.039783 
Q 503.442556 187.205408 498.630777 187.288599 
Q 493.818998 187.371034 488.689084 187.371034 
Q 477.097071 187.371034 470.326778 186.877938 
Q 463.556485 186.384843 463.556485 185.541588 
Q 463.556485 184.688503 470.446078 184.199188 
Q 477.345613 183.709874 489.345236 183.709874 
Q 493.968123 183.709874 498.203284 183.776427 
Q 502.448387 183.842223 506.206347 183.972304 
L 506.206347 184.702116 
Q 502.329087 184.534977 498.491593 184.452543 
Q 494.6541 184.369352 490.796723 184.369352 
Q 483.658588 184.369352 479.791269 184.673377 
Q 475.923951 184.976646 475.923951 185.541588 
Q 475.923951 186.101237 479.652086 186.406775 
Q 483.380221 186.711556 490.239988 186.711556 
Q 492.109027 186.711556 493.709639 186.694162 
Q 495.310252 186.676011 496.582788 186.638197 
L 496.582788 185.953006 
L 489.275644 185.953006 
L 489.275644 185.342686 
L 507.916318 185.342686 
L 507.916318 187.039783 
z
" clip-path="url(#pd16a8c3a0f)" style="fill: #ffa600"/>
   </g>
   <g id="patch_38">
    <path d="M 494.28458 182.331282 
L 477.224502 182.331282 
L 474.530805 183.709874 
L 463.556485 183.709874 
L 479.228902 176.142218 
L 492.243901 176.142218 
L 507.916318 183.709874 
L 496.951068 183.709874 
L 494.28458 182.331282 
z
M 479.945407 180.926741 
L 491.536466 180.926741 
L 485.750006 177.916546 
L 479.945407 180.926741 
z
" clip-path="url(#pd16a8c3a0f)" style="fill: #008000"/>
   </g>
   <g id="patch_39">
    <path d="M 554.610879 192.172858 
Q 550.137117 192.206429 545.325338 192.223291 
Q 540.513558 192.24 535.383645 192.24 
Q 523.791631 192.24 517.021339 192.140053 
Q 510.251046 192.040106 510.251046 191.869185 
Q 510.251046 191.696271 517.140639 191.59709 
Q 524.040174 191.49791 536.039797 191.49791 
Q 540.662684 191.49791 544.897845 191.5114 
Q 549.142948 191.524736 552.900908 191.551103 
L 552.900908 191.69903 
Q 549.023647 191.665152 545.186154 191.648443 
Q 541.348661 191.631581 537.491284 191.631581 
Q 530.353149 191.631581 526.48583 191.693205 
Q 522.618512 191.754675 522.618512 191.869185 
Q 522.618512 191.982622 526.346646 192.044552 
Q 530.074781 192.106329 536.934549 192.106329 
Q 538.803587 192.106329 540.4042 192.102803 
Q 542.004812 192.099124 543.277349 192.091459 
L 543.277349 191.952576 
L 535.970205 191.952576 
L 535.970205 191.828869 
L 554.610879 191.828869 
L 554.610879 192.172858 
z
" clip-path="url(#pd16a8c3a0f)" style="fill: #ffa600"/>
   </g>
   <g id="patch_40">
    <path d="M 554.610879 191.42931 
Q 550.900255 191.463313 546.887864 191.480513 
Q 542.875473 191.49791 538.505432 191.49791 
Q 525.473543 191.49791 517.862295 191.369013 
Q 510.251046 191.240116 510.251046 191.019686 
Q 510.251046 190.798466 517.862295 190.669767 
Q 525.473543 190.54087 538.505432 190.54087 
Q 542.875473 190.54087 546.887864 190.558267 
Q 550.900255 190.575466 554.610879 190.60947 
L 554.610879 190.800245 
Q 550.866725 190.755171 547.234338 190.734215 
Q 543.601951 190.71326 539.58956 190.71326 
Q 532.391844 190.71326 528.267688 190.794908 
Q 524.154707 190.876358 524.154707 191.019686 
Q 524.154707 191.162422 528.267688 191.24407 
Q 532.391844 191.32552 539.58956 191.32552 
Q 543.601951 191.32552 547.234338 191.304565 
Q 550.866725 191.283411 554.610879 191.238337 
L 554.610879 191.42931 
z
" clip-path="url(#pd16a8c3a0f)" style="fill: #0000ff"/>
   </g>
   <g id="patch_41">
    <path d="M 510.251046 189.389351 
L 554.610879 189.389351 
L 554.610879 189.613929 
L 538.651655 189.613929 
L 538.651655 190.54087 
L 526.241218 190.54087 
L 526.241218 189.613929 
L 510.251046 189.613929 
L 510.251046 189.389351 
z
" clip-path="url(#pd16a8c3a0f)" style="fill: #ff0000"/>
   </g>
   <g id="patch_42">
    <path d="M 540.979141 189.113386 
L 523.919062 189.113386 
L 521.225366 189.389351 
L 510.251046 189.389351 
L 525.923463 187.874464 
L 538.938462 187.874464 
L 554.610879 189.389351 
L 543.645629 189.389351 
L 540.979141 189.113386 
z
M 526.639968 188.832226 
L 538.231026 188.832226 
L 532.444567 188.229647 
L 526.639968 188.832226 
z
" clip-path="url(#pd16a8c3a0f)" style="fill: #008000"/>
   </g>
   <g id="patch_43">
    <path d="M 601.305439 192.166676 
Q 596.831678 192.203338 592.019898 192.221753 
Q 587.208119 192.24 582.078206 192.24 
Q 570.486192 192.24 563.715899 192.130851 
Q 556.945607 192.021702 556.945607 191.835044 
Q 556.945607 191.64621 563.8352 191.537898 
Q 570.734734 191.429586 582.734357 191.429586 
Q 587.357245 191.429586 591.592406 191.444318 
Q 595.837508 191.458882 599.595468 191.487676 
L 599.595468 191.649223 
Q 595.718208 191.612226 591.880715 191.593979 
Q 588.043221 191.575564 584.185845 191.575564 
Q 577.047709 191.575564 573.180391 191.642862 
Q 569.313072 191.709992 569.313072 191.835044 
Q 569.313072 191.958925 573.041207 192.026557 
Q 576.769342 192.094022 583.62911 192.094022 
Q 585.498148 192.094022 587.098761 192.090171 
Q 588.699373 192.086154 589.97191 192.077783 
L 589.97191 191.926113 
L 582.664766 191.926113 
L 582.664766 191.791016 
L 601.305439 191.791016 
L 601.305439 192.166676 
z
" clip-path="url(#pd16a8c3a0f)" style="fill: #ffa600"/>
   </g>
   <g id="patch_44">
    <path d="M 587.673702 191.264585 
L 570.613623 191.264585 
L 567.919926 191.429586 
L 556.945607 191.429586 
L 572.618024 190.523829 
L 585.633022 190.523829 
L 601.305439 191.429586 
L 590.340189 191.429586 
L 587.673702 191.264585 
z
M 573.334529 191.096479 
L 584.925587 191.096479 
L 579.139128 190.736195 
L 573.334529 191.096479 
z
" clip-path="url(#pd16a8c3a0f)" style="fill: #008000"/>
   </g>
   <g id="patch_45">
    <path d="M 601.305439 190.436125 
Q 597.594816 190.479598 593.582425 190.501587 
Q 589.570034 190.523829 585.199992 190.523829 
Q 572.168104 190.523829 564.556855 190.359036 
Q 556.945607 190.194242 556.945607 189.912425 
Q 556.945607 189.629597 564.556855 189.465057 
Q 572.168104 189.300263 585.199992 189.300263 
Q 589.570034 189.300263 593.582425 189.322505 
Q 597.594816 189.344495 601.305439 189.387968 
L 601.305439 189.631872 
Q 597.561286 189.574245 593.928899 189.547453 
Q 590.296511 189.520662 586.28412 189.520662 
Q 579.086405 189.520662 574.962248 189.625048 
Q 570.849268 189.729181 570.849268 189.912425 
Q 570.849268 190.094911 574.962248 190.199297 
Q 579.086405 190.303431 586.28412 190.303431 
Q 590.296511 190.303431 593.928899 190.276639 
Q 597.561286 190.249595 601.305439 190.191968 
L 601.305439 190.436125 
z
" clip-path="url(#pd16a8c3a0f)" style="fill: #0000ff"/>
   </g>
   <g id="patch_46">
    <path d="M 556.945607 187.72181 
L 601.305439 187.72181 
L 601.305439 188.029652 
L 585.346216 188.029652 
L 585.346216 189.300263 
L 572.935779 189.300263 
L 572.935779 188.029652 
L 556.945607 188.029652 
L 556.945607 187.72181 
z
" clip-path="url(#pd16a8c3a0f)" style="fill: #ff0000"/>
   </g>
   <g id="patch_47">
    <path d="M 648 192.208803 
Q 644.289377 192.224267 640.276986 192.232088 
Q 636.264595 192.24 631.894553 192.24 
Q 618.862665 192.24 611.251416 192.181383 
Q 603.640167 192.122766 603.640167 192.022523 
Q 603.640167 191.921921 611.251416 191.863393 
Q 618.862665 191.804776 631.894553 191.804776 
Q 636.264595 191.804776 640.276986 191.812688 
Q 644.289377 191.820509 648 191.835973 
L 648 191.92273 
Q 644.255847 191.902232 640.623459 191.892702 
Q 636.991072 191.883172 632.978681 191.883172 
Q 625.780966 191.883172 621.656809 191.920302 
Q 617.543829 191.957343 617.543829 192.022523 
Q 617.543829 192.087433 621.656809 192.124564 
Q 625.780966 192.161604 632.978681 192.161604 
Q 636.991072 192.161604 640.623459 192.152074 
Q 644.255847 192.142454 648 192.121956 
L 648 192.208803 
z
" clip-path="url(#pd16a8c3a0f)" style="fill: #0000ff"/>
   </g>
   <g id="patch_48">
    <path d="M 603.640167 191.344395 
L 648 191.344395 
L 648 191.434182 
L 632.040776 191.434182 
L 632.040776 191.804776 
L 619.63034 191.804776 
L 619.63034 191.434182 
L 603.640167 191.434182 
L 603.640167 191.344395 
z
" clip-path="url(#pd16a8c3a0f)" style="fill: #ff0000"/>
   </g>
   <g id="patch_49">
    <path d="M 648 191.293181 
Q 643.526238 191.318788 638.714459 191.33165 
Q 633.90268 191.344395 628.772766 191.344395 
Q 617.180753 191.344395 610.41046 191.268158 
Q 603.640167 191.191922 603.640167 191.061549 
Q 603.640167 190.929655 610.52976 190.854003 
Q 617.429295 190.778352 629.428918 190.778352 
Q 634.051805 190.778352 638.286966 190.788641 
Q 642.532069 190.798814 646.290029 190.818925 
L 646.290029 190.93176 
Q 642.412769 190.905919 638.575275 190.893174 
Q 634.737782 190.880312 630.880405 190.880312 
Q 623.74227 190.880312 619.874951 190.927317 
Q 616.007633 190.974204 616.007633 191.061549 
Q 616.007633 191.148074 619.735768 191.195313 
Q 623.463903 191.242434 630.32367 191.242434 
Q 632.192709 191.242434 633.793321 191.239745 
Q 635.393934 191.236939 636.66647 191.231092 
L 636.66647 191.125157 
L 629.359326 191.125157 
L 629.359326 191.030797 
L 648 191.030797 
L 648 191.293181 
z
" clip-path="url(#pd16a8c3a0f)" style="fill: #ffa600"/>
   </g>
   <g id="patch_50">
    <path d="M 634.368262 190.653697 
L 617.308184 190.653697 
L 614.614487 190.778352 
L 603.640167 190.778352 
L 619.312584 190.094069 
L 632.327583 190.094069 
L 648 190.778352 
L 637.03475 190.778352 
L 634.368262 190.653697 
z
M 620.029089 190.526695 
L 631.620148 190.526695 
L 625.833688 190.254507 
L 620.029089 190.526695 
z
" clip-path="url(#pd16a8c3a0f)" style="fill: #008000"/>
   </g>
   <g id="matplotlib.axis_1">
    <g id="xtick_1">
     <g id="line2d_2">
      <defs>
       <path id="m7caa6844de" d="M 0 0 
L 0 3.5 
" style="stroke: #000000; stroke-width: 0.8"/>
      </defs>
      <g>
       <use xlink:href="#m7caa6844de" x="112.179916" y="192.24" style="stroke: #000000; stroke-width: 0.8"/>
      </g>
     </g>
     <g id="text_1">
      <!-- 0 -->
      <g transform="translate(108.998666 206.838437) scale(0.1 -0.1)">
       <defs>
        <path id="DejaVuSans-30" d="M 2034 4250 
Q 1547 4250 1301 3770 
Q 1056 3291 1056 2328 
Q 1056 1369 1301 889 
Q 1547 409 2034 409 
Q 2525 409 2770 889 
Q 3016 1369 3016 2328 
Q 3016 3291 2770 3770 
Q 2525 4250 2034 4250 
z
M 2034 4750 
Q 2819 4750 3233 4129 
Q 3647 3509 3647 2328 
Q 3647 1150 3233 529 
Q 2819 -91 2034 -91 
Q 1250 -91 836 529 
Q 422 1150 422 2328 
Q 422 3509 836 4129 
Q 1250 4750 2034 4750 
z
" transform="scale(0.015625)"/>
       </defs>
       <use xlink:href="#DejaVuSans-30"/>
      </g>
     </g>
    </g>
    <g id="xtick_2">
     <g id="line2d_3">
      <g>
       <use xlink:href="#m7caa6844de" x="205.569038" y="192.24" style="stroke: #000000; stroke-width: 0.8"/>
      </g>
     </g>
     <g id="text_2">
      <!-- 2 -->
      <g transform="translate(202.387788 206.838437) scale(0.1 -0.1)">
       <defs>
        <path id="DejaVuSans-32" d="M 1228 531 
L 3431 531 
L 3431 0 
L 469 0 
L 469 531 
Q 828 903 1448 1529 
Q 2069 2156 2228 2338 
Q 2531 2678 2651 2914 
Q 2772 3150 2772 3378 
Q 2772 3750 2511 3984 
Q 2250 4219 1831 4219 
Q 1534 4219 1204 4116 
Q 875 4013 500 3803 
L 500 4441 
Q 881 4594 1212 4672 
Q 1544 4750 1819 4750 
Q 2544 4750 2975 4387 
Q 3406 4025 3406 3419 
Q 3406 3131 3298 2873 
Q 3191 2616 2906 2266 
Q 2828 2175 2409 1742 
Q 1991 1309 1228 531 
z
" transform="scale(0.015625)"/>
       </defs>
       <use xlink:href="#DejaVuSans-32"/>
      </g>
     </g>
    </g>
    <g id="xtick_3">
     <g id="line2d_4">
      <g>
       <use xlink:href="#m7caa6844de" x="298.958159" y="192.24" style="stroke: #000000; stroke-width: 0.8"/>
      </g>
     </g>
     <g id="text_3">
      <!-- 4 -->
      <g transform="translate(295.776909 206.838437) scale(0.1 -0.1)">
       <defs>
        <path id="DejaVuSans-34" d="M 2419 4116 
L 825 1625 
L 2419 1625 
L 2419 4116 
z
M 2253 4666 
L 3047 4666 
L 3047 1625 
L 3713 1625 
L 3713 1100 
L 3047 1100 
L 3047 0 
L 2419 0 
L 2419 1100 
L 313 1100 
L 313 1709 
L 2253 4666 
z
" transform="scale(0.015625)"/>
       </defs>
       <use xlink:href="#DejaVuSans-34"/>
      </g>
     </g>
    </g>
    <g id="xtick_4">
     <g id="line2d_5">
      <g>
       <use xlink:href="#m7caa6844de" x="392.34728" y="192.24" style="stroke: #000000; stroke-width: 0.8"/>
      </g>
     </g>
     <g id="text_4">
      <!-- 6 -->
      <g transform="translate(389.16603 206.838437) scale(0.1 -0.1)">
       <defs>
        <path id="DejaVuSans-36" d="M 2113 2584 
Q 1688 2584 1439 2293 
Q 1191 2003 1191 1497 
Q 1191 994 1439 701 
Q 1688 409 2113 409 
Q 2538 409 2786 701 
Q 3034 994 3034 1497 
Q 3034 2003 2786 2293 
Q 2538 2584 2113 2584 
z
M 3366 4563 
L 3366 3988 
Q 3128 4100 2886 4159 
Q 2644 4219 2406 4219 
Q 1781 4219 1451 3797 
Q 1122 3375 1075 2522 
Q 1259 2794 1537 2939 
Q 1816 3084 2150 3084 
Q 2853 3084 3261 2657 
Q 3669 2231 3669 1497 
Q 3669 778 3244 343 
Q 2819 -91 2113 -91 
Q 1303 -91 875 529 
Q 447 1150 447 2328 
Q 447 3434 972 4092 
Q 1497 4750 2381 4750 
Q 2619 4750 2861 4703 
Q 3103 4656 3366 4563 
z
" transform="scale(0.015625)"/>
       </defs>
       <use xlink:href="#DejaVuSans-36"/>
      </g>
     </g>
    </g>
    <g id="xtick_5">
     <g id="line2d_6">
      <g>
       <use xlink:href="#m7caa6844de" x="485.736402" y="192.24" style="stroke: #000000; stroke-width: 0.8"/>
      </g>
     </g>
     <g id="text_5">
      <!-- 8 -->
      <g transform="translate(482.555152 206.838437) scale(0.1 -0.1)">
       <defs>
        <path id="DejaVuSans-38" d="M 2034 2216 
Q 1584 2216 1326 1975 
Q 1069 1734 1069 1313 
Q 1069 891 1326 650 
Q 1584 409 2034 409 
Q 2484 409 2743 651 
Q 3003 894 3003 1313 
Q 3003 1734 2745 1975 
Q 2488 2216 2034 2216 
z
M 1403 2484 
Q 997 2584 770 2862 
Q 544 3141 544 3541 
Q 544 4100 942 4425 
Q 1341 4750 2034 4750 
Q 2731 4750 3128 4425 
Q 3525 4100 3525 3541 
Q 3525 3141 3298 2862 
Q 3072 2584 2669 2484 
Q 3125 2378 3379 2068 
Q 3634 1759 3634 1313 
Q 3634 634 3220 271 
Q 2806 -91 2034 -91 
Q 1263 -91 848 271 
Q 434 634 434 1313 
Q 434 1759 690 2068 
Q 947 2378 1403 2484 
z
M 1172 3481 
Q 1172 3119 1398 2916 
Q 1625 2713 2034 2713 
Q 2441 2713 2670 2916 
Q 2900 3119 2900 3481 
Q 2900 3844 2670 4047 
Q 2441 4250 2034 4250 
Q 1625 4250 1398 4047 
Q 1172 3844 1172 3481 
z
" transform="scale(0.015625)"/>
       </defs>
       <use xlink:href="#DejaVuSans-38"/>
      </g>
     </g>
    </g>
    <g id="xtick_6">
     <g id="line2d_7">
      <g>
       <use xlink:href="#m7caa6844de" x="579.125523" y="192.24" style="stroke: #000000; stroke-width: 0.8"/>
      </g>
     </g>
     <g id="text_6">
      <!-- 10 -->
      <g transform="translate(572.763023 206.838437) scale(0.1 -0.1)">
       <defs>
        <path id="DejaVuSans-31" d="M 794 531 
L 1825 531 
L 1825 4091 
L 703 3866 
L 703 4441 
L 1819 4666 
L 2450 4666 
L 2450 531 
L 3481 531 
L 3481 0 
L 794 0 
L 794 531 
z
" transform="scale(0.015625)"/>
       </defs>
       <use xlink:href="#DejaVuSans-31"/>
       <use xlink:href="#DejaVuSans-30" x="63.623047"/>
      </g>
     </g>
    </g>
   </g>
   <g id="matplotlib.axis_2">
    <g id="ytick_1">
     <g id="line2d_8">
      <defs>
       <path id="mc50f9625ca" d="M 0 0 
L -3.5 0 
" style="stroke: #000000; stroke-width: 0.8"/>
      </defs>
      <g>
       <use xlink:href="#mc50f9625ca" x="90" y="192.24" style="stroke: #000000; stroke-width: 0.8"/>
      </g>
     </g>
     <g id="text_7">
      <!-- 0.00 -->
      <g transform="translate(60.734375 196.039219) scale(0.1 -0.1)">
       <defs>
        <path id="DejaVuSans-2e" d="M 684 794 
L 1344 794 
L 1344 0 
L 684 0 
L 684 794 
z
" transform="scale(0.015625)"/>
       </defs>
       <use xlink:href="#DejaVuSans-30"/>
       <use xlink:href="#DejaVuSans-2e" x="63.623047"/>
       <use xlink:href="#DejaVuSans-30" x="95.410156"/>
       <use xlink:href="#DejaVuSans-30" x="159.033203"/>
      </g>
     </g>
    </g>
    <g id="ytick_2">
     <g id="line2d_9">
      <g>
       <use xlink:href="#mc50f9625ca" x="90" y="169.701114" style="stroke: #000000; stroke-width: 0.8"/>
      </g>
     </g>
     <g id="text_8">
      <!-- 0.25 -->
      <g transform="translate(60.734375 173.500333) scale(0.1 -0.1)">
       <defs>
        <path id="DejaVuSans-35" d="M 691 4666 
L 3169 4666 
L 3169 4134 
L 1269 4134 
L 1269 2991 
Q 1406 3038 1543 3061 
Q 1681 3084 1819 3084 
Q 2600 3084 3056 2656 
Q 3513 2228 3513 1497 
Q 3513 744 3044 326 
Q 2575 -91 1722 -91 
Q 1428 -91 1123 -41 
Q 819 9 494 109 
L 494 744 
Q 775 591 1075 516 
Q 1375 441 1709 441 
Q 2250 441 2565 725 
Q 2881 1009 2881 1497 
Q 2881 1984 2565 2268 
Q 2250 2553 1709 2553 
Q 1456 2553 1204 2497 
Q 953 2441 691 2322 
L 691 4666 
z
" transform="scale(0.015625)"/>
       </defs>
       <use xlink:href="#DejaVuSans-30"/>
       <use xlink:href="#DejaVuSans-2e" x="63.623047"/>
       <use xlink:href="#DejaVuSans-32" x="95.410156"/>
       <use xlink:href="#DejaVuSans-35" x="159.033203"/>
      </g>
     </g>
    </g>
    <g id="ytick_3">
     <g id="line2d_10">
      <g>
       <use xlink:href="#mc50f9625ca" x="90" y="147.162228" style="stroke: #000000; stroke-width: 0.8"/>
      </g>
     </g>
     <g id="text_9">
      <!-- 0.50 -->
      <g transform="translate(60.734375 150.961447) scale(0.1 -0.1)">
       <use xlink:href="#DejaVuSans-30"/>
       <use xlink:href="#DejaVuSans-2e" x="63.623047"/>
       <use xlink:href="#DejaVuSans-35" x="95.410156"/>
       <use xlink:href="#DejaVuSans-30" x="159.033203"/>
      </g>
     </g>
    </g>
    <g id="ytick_4">
     <g id="line2d_11">
      <g>
       <use xlink:href="#mc50f9625ca" x="90" y="124.623342" style="stroke: #000000; stroke-width: 0.8"/>
      </g>
     </g>
     <g id="text_10">
      <!-- 0.75 -->
      <g transform="translate(60.734375 128.422561) scale(0.1 -0.1)">
       <defs>
        <path id="DejaVuSans-37" d="M 525 4666 
L 3525 4666 
L 3525 4397 
L 1831 0 
L 1172 0 
L 2766 4134 
L 525 4134 
L 525 4666 
z
" transform="scale(0.015625)"/>
       </defs>
       <use xlink:href="#DejaVuSans-30"/>
       <use xlink:href="#DejaVuSans-2e" x="63.623047"/>
       <use xlink:href="#DejaVuSans-37" x="95.410156"/>
       <use xlink:href="#DejaVuSans-35" x="159.033203"/>
      </g>
     </g>
    </g>
    <g id="ytick_5">
     <g id="line2d_12">
      <g>
       <use xlink:href="#mc50f9625ca" x="90" y="102.084456" style="stroke: #000000; stroke-width: 0.8"/>
      </g>
     </g>
     <g id="text_11">
      <!-- 1.00 -->
      <g transform="translate(60.734375 105.883675) scale(0.1 -0.1)">
       <use xlink:href="#DejaVuSans-31"/>
       <use xlink:href="#DejaVuSans-2e" x="63.623047"/>
       <use xlink:href="#DejaVuSans-30" x="95.410156"/>
       <use xlink:href="#DejaVuSans-30" x="159.033203"/>
      </g>
     </g>
    </g>
    <g id="ytick_6">
     <g id="line2d_13">
      <g>
       <use xlink:href="#mc50f9625ca" x="90" y="79.54557" style="stroke: #000000; stroke-width: 0.8"/>
      </g>
     </g>
     <g id="text_12">
      <!-- 1.25 -->
      <g transform="translate(60.734375 83.344789) scale(0.1 -0.1)">
       <use xlink:href="#DejaVuSans-31"/>
       <use xlink:href="#DejaVuSans-2e" x="63.623047"/>
       <use xlink:href="#DejaVuSans-32" x="95.410156"/>
       <use xlink:href="#DejaVuSans-35" x="159.033203"/>
      </g>
     </g>
    </g>
    <g id="ytick_7">
     <g id="line2d_14">
      <g>
       <use xlink:href="#mc50f9625ca" x="90" y="57.006684" style="stroke: #000000; stroke-width: 0.8"/>
      </g>
     </g>
     <g id="text_13">
      <!-- 1.50 -->
      <g transform="translate(60.734375 60.805903) scale(0.1 -0.1)">
       <use xlink:href="#DejaVuSans-31"/>
       <use xlink:href="#DejaVuSans-2e" x="63.623047"/>
       <use xlink:href="#DejaVuSans-35" x="95.410156"/>
       <use xlink:href="#DejaVuSans-30" x="159.033203"/>
      </g>
     </g>
    </g>
    <g id="ytick_8">
     <g id="line2d_15">
      <g>
       <use xlink:href="#mc50f9625ca" x="90" y="34.467798" style="stroke: #000000; stroke-width: 0.8"/>
      </g>
     </g>
     <g id="text_14">
      <!-- 1.75 -->
      <g transform="translate(60.734375 38.267017) scale(0.1 -0.1)">
       <use xlink:href="#DejaVuSans-31"/>
       <use xlink:href="#DejaVuSans-2e" x="63.623047"/>
       <use xlink:href="#DejaVuSans-37" x="95.410156"/>
       <use xlink:href="#DejaVuSans-35" x="159.033203"/>
      </g>
     </g>
    </g>
   </g>
  </g>
 </g>
 <defs>
  <clipPath id="pd16a8c3a0f">
   <rect x="90" y="25.92" width="558" height="166.32"/>
  </clipPath>
 </defs>
</svg>
