<?xml version="1.0" encoding="utf-8" standalone="no"?>
<!DOCTYPE svg PUBLIC "-//W3C//DTD SVG 1.1//EN"
  "http://www.w3.org/Graphics/SVG/1.1/DTD/svg11.dtd">
<svg xmlns:xlink="http://www.w3.org/1999/xlink" width="720pt" height="216pt" viewBox="0 0 720 216" xmlns="http://www.w3.org/2000/svg" version="1.1">
 <metadata>
  <rdf:RDF xmlns:dc="http://purl.org/dc/elements/1.1/" xmlns:cc="http://creativecommons.org/ns#" xmlns:rdf="http://www.w3.org/1999/02/22-rdf-syntax-ns#">
   <cc:Work>
    <dc:type rdf:resource="http://purl.org/dc/dcmitype/StillImage"/>
    <dc:date>2025-12-17T10:23:07.725497</dc:date>
    <dc:format>image/svg+xml</dc:format>
    <dc:creator>
     <cc:Agent>
      <dc:title>Matplotlib v3.8.2, https://matplotlib.org/</dc:title>
     </cc:Agent>
    </dc:creator>
   </cc:Work>
  </rdf:RDF>
 </metadata>
 <defs>
  <style type="text/css">*{stroke-linejoin: round; stroke-linecap: butt}</style>
 </defs>
 <g id="figure_1">
  <g id="patch_1">
   <path d="M 0 216 
L 720 216 
L 720 0 
L 0 0 
z
" style="fill: #ffffff"/>
  </g>
  <g id="axes_1">
   <g id="patch_2">
    <path d="M 90 192.24 
L 648 192.24 
L 648 25.92 
L 90 25.92 
z
" style="fill: #ffffff"/>
   </g>
   <g id="line2d_1">
    <path d="M 90 192.24 
L 648 192.24 
" clip-path="url(#p0c62122e53)" style="fill: none; stroke: #000000; stroke-width: 0.5; stroke-linecap: square"/>
   </g>
   <g id="patch_3">
    <path d="M 107.699499 192.072646 
Q 105.914476 192.156323 103.994584 192.198353 
Q 102.074692 192.24 100.027865 192.24 
Q 95.402671 192.24 92.701335 191.99088 
Q 90 191.74176 90 191.315734 
Q 90 190.884741 92.748936 190.637531 
Q 95.501839 190.390321 100.289668 190.390321 
Q 102.134193 190.390321 103.824015 190.423945 
Q 105.517804 190.457186 107.017224 190.522905 
L 107.017224 190.891618 
Q 105.470203 190.807177 103.93905 190.76553 
Q 102.407896 190.7235 100.868809 190.7235 
Q 98.020705 190.7235 96.477652 190.877099 
Q 94.934598 191.030315 94.934598 191.315734 
Q 94.934598 191.598477 96.422118 191.75284 
Q 97.909637 191.906821 100.646673 191.906821 
Q 101.392416 191.906821 102.031058 191.898033 
Q 102.6697 191.888863 103.17744 191.869759 
L 103.17744 191.523589 
L 100.261901 191.523589 
L 100.261901 191.215245 
L 107.699499 191.215245 
L 107.699499 192.072646 
z
" clip-path="url(#p0c62122e53)" style="fill: #ffa600"/>
   </g>
   <g id="patch_4">
    <path d="M 90 187.307523 
L 107.699499 187.307523 
L 107.699499 187.908755 
L 101.331796 187.908755 
L 101.331796 190.390321 
L 96.380052 190.390321 
L 96.380052 187.908755 
L 90 187.908755 
L 90 187.307523 
z
" clip-path="url(#p0c62122e53)" style="fill: #ff0000"/>
   </g>
   <g id="patch_5">
    <path d="M 102.260459 186.633615 
L 95.453516 186.633615 
L 94.378735 187.307523 
L 90 187.307523 
L 96.253268 183.608165 
L 101.446231 183.608165 
L 107.699499 187.307523 
L 103.324383 187.307523 
L 102.260459 186.633615 
z
M 96.539153 185.947022 
L 101.163965 185.947022 
L 98.855178 184.475524 
L 96.539153 185.947022 
z
" clip-path="url(#p0c62122e53)" style="fill: #008000"/>
   </g>
   <g id="patch_6">
    <path d="M 107.699499 183.210414 
Q 106.218967 183.40757 104.618029 183.507295 
Q 103.017092 183.608165 101.273453 183.608165 
Q 96.073751 183.608165 93.036876 182.860805 
Q 90 182.113445 90 180.835366 
Q 90 179.552703 93.036876 178.806489 
Q 96.073751 178.059129 101.273453 178.059129 
Q 103.017092 178.059129 104.618029 178.16 
Q 106.218967 178.259724 107.699499 178.45688 
L 107.699499 179.56302 
Q 106.205588 179.301673 104.756272 179.180169 
Q 103.306955 179.058666 101.706018 179.058666 
Q 98.834142 179.058666 97.18861 179.532071 
Q 95.547538 180.004329 95.547538 180.835366 
Q 95.547538 181.662965 97.18861 182.13637 
Q 98.834142 182.608628 101.706018 182.608628 
Q 103.306955 182.608628 104.756272 182.487125 
Q 106.205588 182.364475 107.699499 182.103128 
L 107.699499 183.210414 
z
" clip-path="url(#p0c62122e53)" style="fill: #0000ff"/>
   </g>
   <g id="patch_7">
    <path d="M 108.631052 188.783668 
L 126.330551 188.783668 
L 126.330551 189.457749 
L 119.962847 189.457749 
L 119.962847 192.24 
L 115.011104 192.24 
L 115.011104 189.457749 
L 108.631052 189.457749 
L 108.631052 188.783668 
z
" clip-path="url(#p0c62122e53)" style="fill: #ff0000"/>
   </g>
   <g id="patch_8">
    <path d="M 126.330551 188.381078 
Q 124.850018 188.580633 123.249081 188.68157 
Q 121.648144 188.783668 119.904504 188.783668 
Q 114.704803 188.783668 111.667927 188.027216 
Q 108.631052 187.270764 108.631052 185.977139 
Q 108.631052 184.678872 111.667927 183.92358 
Q 114.704803 183.167128 119.904504 183.167128 
Q 121.648144 183.167128 123.249081 183.269226 
Q 124.850018 183.370164 126.330551 183.569719 
L 126.330551 184.689314 
Q 124.83664 184.424788 123.387324 184.301806 
Q 121.938007 184.178825 120.33707 184.178825 
Q 117.465193 184.178825 115.819662 184.657988 
Q 114.178589 185.135992 114.178589 185.977139 
Q 114.178589 186.814805 115.819662 187.293968 
Q 117.465193 187.771972 120.33707 187.771972 
Q 121.938007 187.771972 123.387324 187.64899 
Q 124.83664 187.524848 126.330551 187.260322 
L 126.330551 188.381078 
z
" clip-path="url(#p0c62122e53)" style="fill: #0000ff"/>
   </g>
   <g id="patch_9">
    <path d="M 120.89151 182.065265 
L 114.084567 182.065265 
L 113.009787 183.167128 
L 108.631052 183.167128 
L 114.88432 177.118547 
L 120.077283 177.118547 
L 126.330551 183.167128 
L 121.955434 183.167128 
L 120.89151 182.065265 
z
M 115.170204 180.942661 
L 119.795017 180.942661 
L 117.48623 178.53671 
L 115.170204 180.942661 
z
" clip-path="url(#p0c62122e53)" style="fill: #008000"/>
   </g>
   <g id="patch_10">
    <path d="M 126.330551 175.789491 
Q 124.545527 176.454019 122.625636 176.787801 
Q 120.705744 177.118547 118.658917 177.118547 
Q 114.033723 177.118547 111.332387 175.140135 
Q 108.631052 173.161722 108.631052 169.778393 
Q 108.631052 166.355618 111.379988 164.392377 
Q 114.132891 162.429136 118.92072 162.429136 
Q 120.765244 162.429136 122.455067 162.696161 
Q 124.148856 162.960152 125.648275 163.482065 
L 125.648275 166.410237 
Q 124.101255 165.73964 122.570102 165.408893 
Q 121.038948 165.075112 119.499861 165.075112 
Q 116.651757 165.075112 115.108704 166.294931 
Q 113.56565 167.511715 113.56565 169.778393 
Q 113.56565 172.023831 115.053169 173.249719 
Q 116.540689 174.472572 119.277725 174.472572 
Q 120.023468 174.472572 120.66211 174.402782 
Q 121.300752 174.329957 121.808492 174.178238 
L 121.808492 171.429094 
L 118.892953 171.429094 
L 118.892953 168.980353 
L 126.330551 168.980353 
L 126.330551 175.789491 
z
" clip-path="url(#p0c62122e53)" style="fill: #ffa600"/>
   </g>
   <g id="patch_11">
    <path d="M 144.961603 191.811802 
Q 143.176579 192.025901 141.256687 192.133439 
Q 139.336795 192.24 137.289969 192.24 
Q 132.664774 192.24 129.963439 191.602591 
Q 127.262104 190.965183 127.262104 189.875136 
Q 127.262104 188.772379 130.01104 188.139859 
Q 132.763942 187.507338 137.551772 187.507338 
Q 139.396296 187.507338 141.086118 187.593369 
Q 142.779907 187.678422 144.279327 187.846573 
L 144.279327 188.789977 
Q 142.732307 188.573923 141.201153 188.467362 
Q 139.67 188.359824 138.130913 188.359824 
Q 135.282809 188.359824 133.739755 188.752827 
Q 132.196702 189.144853 132.196702 189.875136 
Q 132.196702 190.598575 133.684221 190.993534 
Q 135.171741 191.387515 137.908777 191.387515 
Q 138.65452 191.387515 139.293162 191.36503 
Q 139.931803 191.341567 140.439543 191.292686 
L 140.439543 190.406961 
L 137.524005 190.406961 
L 137.524005 189.618021 
L 144.961603 189.618021 
L 144.961603 191.811802 
z
" clip-path="url(#p0c62122e53)" style="fill: #ffa600"/>
   </g>
   <g id="patch_12">
    <path d="M 144.961603 187.1257 
Q 143.48107 187.314869 141.880133 187.410554 
Q 140.279195 187.507338 138.535556 187.507338 
Q 133.335855 187.507338 130.298979 186.790254 
Q 127.262104 186.073169 127.262104 184.846866 
Q 127.262104 183.616164 130.298979 182.900179 
Q 133.335855 182.183094 138.535556 182.183094 
Q 140.279195 182.183094 141.880133 182.279878 
Q 143.48107 182.375563 144.961603 182.564733 
L 144.961603 183.626062 
Q 143.467692 183.375302 142.018375 183.258721 
Q 140.569059 183.14214 138.968121 183.14214 
Q 136.096245 183.14214 134.450713 183.596367 
Q 132.809641 184.049494 132.809641 184.846866 
Q 132.809641 185.640938 134.450713 186.095165 
Q 136.096245 186.548292 138.968121 186.548292 
Q 140.569059 186.548292 142.018375 186.431711 
Q 143.467692 186.31403 144.961603 186.06327 
L 144.961603 187.1257 
z
" clip-path="url(#p0c62122e53)" style="fill: #0000ff"/>
   </g>
   <g id="patch_13">
    <path d="M 127.262104 173.309353 
L 144.961603 173.309353 
L 144.961603 175.03998 
L 138.593899 175.03998 
L 138.593899 182.183094 
L 133.642156 182.183094 
L 133.642156 175.03998 
L 127.262104 175.03998 
L 127.262104 173.309353 
z
" clip-path="url(#p0c62122e53)" style="fill: #ff0000"/>
   </g>
   <g id="patch_14">
    <path d="M 139.522562 169.321939 
L 132.715619 169.321939 
L 131.640839 173.309353 
L 127.262104 173.309353 
L 133.515372 151.420793 
L 138.708335 151.420793 
L 144.961603 173.309353 
L 140.586486 173.309353 
L 139.522562 169.321939 
z
M 133.801256 165.259467 
L 138.426069 165.259467 
L 136.117281 156.55283 
L 133.801256 165.259467 
z
" clip-path="url(#p0c62122e53)" style="fill: #008000"/>
   </g>
   <g id="patch_15">
    <path d="M 163.592654 191.825189 
Q 162.112122 192.030801 160.511185 192.134803 
Q 158.910247 192.24 157.166608 192.24 
Q 151.966906 192.24 148.930031 191.460586 
Q 145.893155 190.681172 145.893155 189.348279 
Q 145.893155 188.010604 148.930031 187.232386 
Q 151.966906 186.452972 157.166608 186.452972 
Q 158.910247 186.452972 160.511185 186.558169 
Q 162.112122 186.66217 163.592654 186.867782 
L 163.592654 188.021363 
Q 162.098744 187.748807 160.649427 187.622092 
Q 159.200111 187.495378 157.599173 187.495378 
Q 154.727297 187.495378 153.081765 187.989086 
Q 151.440693 188.481599 151.440693 189.348279 
Q 151.440693 190.211372 153.081765 190.705081 
Q 154.727297 191.197594 157.599173 191.197594 
Q 159.200111 191.197594 160.649427 191.070879 
Q 162.098744 190.942969 163.592654 190.670414 
L 163.592654 191.825189 
z
" clip-path="url(#p0c62122e53)" style="fill: #0000ff"/>
   </g>
   <g id="patch_16">
    <path d="M 145.893155 179.942565 
L 163.592654 179.942565 
L 163.592654 181.212276 
L 157.224951 181.212276 
L 157.224951 186.452972 
L 152.273207 186.452972 
L 152.273207 181.212276 
L 145.893155 181.212276 
L 145.893155 179.942565 
z
" clip-path="url(#p0c62122e53)" style="fill: #ff0000"/>
   </g>
   <g id="patch_17">
    <path d="M 158.153614 178.36124 
L 151.346671 178.36124 
L 150.27189 179.942565 
L 145.893155 179.942565 
L 152.146423 171.262022 
L 157.339386 171.262022 
L 163.592654 179.942565 
L 159.217538 179.942565 
L 158.153614 178.36124 
z
M 152.432308 176.750149 
L 157.057121 176.750149 
L 154.748333 173.29728 
L 152.432308 176.750149 
z
" clip-path="url(#p0c62122e53)" style="fill: #008000"/>
   </g>
   <g id="patch_18">
    <path d="M 163.592654 168.644053 
Q 161.807631 169.953038 159.887739 170.610519 
Q 157.967847 171.262022 155.92102 171.262022 
Q 151.295826 171.262022 148.594491 167.364953 
Q 145.893155 163.467884 145.893155 156.803417 
Q 145.893155 150.061248 148.642091 146.194065 
Q 151.394994 142.326881 156.182824 142.326881 
Q 158.027348 142.326881 159.71717 142.852866 
Q 161.410959 143.372873 162.910379 144.400935 
L 162.910379 150.168836 
Q 161.363358 148.847897 159.832205 148.196393 
Q 158.301052 147.538912 156.761965 147.538912 
Q 153.913861 147.538912 152.370807 149.941706 
Q 150.827753 152.338524 150.827753 156.803417 
Q 150.827753 161.226471 152.315273 163.64122 
Q 153.802792 166.049991 156.539828 166.049991 
Q 157.285572 166.049991 157.924213 165.912518 
Q 158.562855 165.769067 159.070595 165.470212 
L 159.070595 160.05496 
L 156.155057 160.05496 
L 156.155057 155.23144 
L 163.592654 155.23144 
L 163.592654 168.644053 
z
" clip-path="url(#p0c62122e53)" style="fill: #ffa600"/>
   </g>
   <g id="patch_19">
    <path d="M 182.223706 191.816023 
Q 180.743174 192.026179 179.142236 192.132478 
Q 177.541299 192.24 175.79766 192.24 
Q 170.597958 192.24 167.561083 191.443363 
Q 164.524207 190.646725 164.524207 189.284378 
Q 164.524207 187.917143 167.561083 187.121727 
Q 170.597958 186.32509 175.79766 186.32509 
Q 177.541299 186.32509 179.142236 186.432611 
Q 180.743174 186.538911 182.223706 186.749067 
L 182.223706 187.928139 
Q 180.729795 187.64956 179.280479 187.520046 
Q 177.831162 187.390531 176.230225 187.390531 
Q 173.358349 187.390531 171.712817 187.895149 
Q 170.071745 188.398546 170.071745 189.284378 
Q 170.071745 190.166544 171.712817 190.671162 
Q 173.358349 191.174559 176.230225 191.174559 
Q 177.831162 191.174559 179.280479 191.045044 
Q 180.729795 190.914307 182.223706 190.635729 
L 182.223706 191.816023 
z
" clip-path="url(#p0c62122e53)" style="fill: #0000ff"/>
   </g>
   <g id="patch_20">
    <path d="M 176.784666 184.708821 
L 169.977723 184.708821 
L 168.902942 186.32509 
L 164.524207 186.32509 
L 170.777475 177.452724 
L 175.970438 177.452724 
L 182.223706 186.32509 
L 177.84859 186.32509 
L 176.784666 184.708821 
z
M 171.06336 183.062128 
L 175.688172 183.062128 
L 173.379385 179.532957 
L 171.06336 183.062128 
z
" clip-path="url(#p0c62122e53)" style="fill: #008000"/>
   </g>
   <g id="patch_21">
    <path d="M 182.223706 176.560783 
Q 180.438683 177.006754 178.518791 177.230757 
Q 176.598899 177.452724 174.552072 177.452724 
Q 169.926878 177.452724 167.225542 176.124995 
Q 164.524207 174.797266 164.524207 172.526687 
Q 164.524207 170.229634 167.273143 168.912087 
Q 170.026046 167.59454 174.813876 167.59454 
Q 176.6584 167.59454 178.348222 167.773743 
Q 180.042011 167.950909 181.541431 168.301169 
L 181.541431 170.266289 
Q 179.99441 169.816246 178.463257 169.594279 
Q 176.932103 169.370276 175.393016 169.370276 
Q 172.544912 169.370276 171.001859 170.188906 
Q 169.458805 171.0055 169.458805 172.526687 
Q 169.458805 174.033618 170.946325 174.856322 
Q 172.433844 175.676988 175.17088 175.676988 
Q 175.916623 175.676988 176.555265 175.630151 
Q 177.193907 175.581278 177.701647 175.479458 
L 177.701647 173.634485 
L 174.786108 173.634485 
L 174.786108 171.991115 
L 182.223706 171.991115 
L 182.223706 176.560783 
z
" clip-path="url(#p0c62122e53)" style="fill: #ffa600"/>
   </g>
   <g id="patch_22">
    <path d="M 164.524207 124.218531 
L 182.223706 124.218531 
L 182.223706 132.678061 
L 175.856003 132.678061 
L 175.856003 167.59454 
L 170.904259 167.59454 
L 170.904259 132.678061 
L 164.524207 132.678061 
L 164.524207 124.218531 
z
" clip-path="url(#p0c62122e53)" style="fill: #ff0000"/>
   </g>
   <g id="patch_23">
    <path d="M 183.155259 189.55851 
L 200.854758 189.55851 
L 200.854758 190.081475 
L 194.487054 190.081475 
L 194.487054 192.24 
L 189.535311 192.24 
L 189.535311 190.081475 
L 183.155259 190.081475 
L 183.155259 189.55851 
z
" clip-path="url(#p0c62122e53)" style="fill: #ff0000"/>
   </g>
   <g id="patch_24">
    <path d="M 195.415717 188.790892 
L 188.608774 188.790892 
L 187.533994 189.55851 
L 183.155259 189.55851 
L 189.408527 185.344739 
L 194.60149 185.344739 
L 200.854758 189.55851 
L 196.479641 189.55851 
L 195.415717 188.790892 
z
M 189.694411 188.008824 
L 194.319224 188.008824 
L 192.010437 186.332708 
L 189.694411 188.008824 
z
" clip-path="url(#p0c62122e53)" style="fill: #008000"/>
   </g>
   <g id="patch_25">
    <path d="M 200.854758 184.582239 
Q 199.069734 184.963489 197.149843 185.154984 
Q 195.229951 185.344739 193.183124 185.344739 
Q 188.55793 185.344739 185.856594 184.209693 
Q 183.155259 183.074647 183.155259 181.133579 
Q 183.155259 179.16988 185.904195 178.043539 
Q 188.657098 176.917197 193.444927 176.917197 
Q 195.289451 176.917197 196.979274 177.070394 
Q 198.673063 177.221849 200.172482 177.521278 
L 200.172482 179.201216 
Q 198.625462 178.816484 197.094309 178.626729 
Q 195.563155 178.435234 194.024068 178.435234 
Q 191.175964 178.435234 189.632911 179.135063 
Q 188.089857 179.833151 188.089857 181.133579 
Q 188.089857 182.421821 189.577376 183.125132 
Q 191.064896 183.826702 193.801932 183.826702 
Q 194.547675 183.826702 195.186317 183.786662 
Q 195.824959 183.744881 196.332699 183.657838 
L 196.332699 182.080611 
L 193.41716 182.080611 
L 193.41716 180.675731 
L 200.854758 180.675731 
L 200.854758 184.582239 
z
" clip-path="url(#p0c62122e53)" style="fill: #ffa600"/>
   </g>
   <g id="patch_26">
    <path d="M 200.854758 176.120908 
Q 199.374225 176.515611 197.773288 176.715256 
Q 196.172351 176.917197 194.428711 176.917197 
Q 189.22901 176.917197 186.192134 175.421 
Q 183.155259 173.924803 183.155259 171.366123 
Q 183.155259 168.798264 186.192134 167.304362 
Q 189.22901 165.808165 194.428711 165.808165 
Q 196.172351 165.808165 197.773288 166.010106 
Q 199.374225 166.209752 200.854758 166.604454 
L 200.854758 168.818917 
Q 199.360847 168.295707 197.911531 168.05246 
Q 196.462214 167.809214 194.861277 167.809214 
Q 191.9894 167.809214 190.343869 168.756958 
Q 188.702796 169.702407 188.702796 171.366123 
Q 188.702796 173.022955 190.343869 173.970699 
Q 191.9894 174.916149 194.861277 174.916149 
Q 196.462214 174.916149 197.911531 174.672902 
Q 199.360847 174.42736 200.854758 173.90415 
L 200.854758 176.120908 
z
" clip-path="url(#p0c62122e53)" style="fill: #0000ff"/>
   </g>
   <g id="patch_27">
    <path d="M 201.786311 190.183844 
L 219.48581 190.183844 
L 219.48581 190.584852 
L 213.118106 190.584852 
L 213.118106 192.24 
L 208.166363 192.24 
L 208.166363 190.584852 
L 201.786311 190.584852 
L 201.786311 190.183844 
z
" clip-path="url(#p0c62122e53)" style="fill: #ff0000"/>
   </g>
   <g id="patch_28">
    <path d="M 219.48581 189.839948 
Q 218.005277 190.010409 216.40434 190.096631 
Q 214.803402 190.183844 213.059763 190.183844 
Q 207.860062 190.183844 204.823186 189.537676 
Q 201.786311 188.891508 201.786311 187.786482 
Q 201.786311 186.677492 204.823186 186.032315 
Q 207.860062 185.386147 213.059763 185.386147 
Q 214.803402 185.386147 216.40434 185.47336 
Q 218.005277 185.559582 219.48581 185.730043 
L 219.48581 186.686411 
Q 217.991899 186.460451 216.542582 186.355399 
Q 215.093266 186.250347 213.492328 186.250347 
Q 210.620452 186.250347 208.97492 186.659653 
Q 207.333848 187.067967 207.333848 187.786482 
Q 207.333848 188.502024 208.97492 188.91133 
Q 210.620452 189.319644 213.492328 189.319644 
Q 215.093266 189.319644 216.542582 189.214592 
Q 217.991899 189.108549 219.48581 188.882589 
L 219.48581 189.839948 
z
" clip-path="url(#p0c62122e53)" style="fill: #0000ff"/>
   </g>
   <g id="patch_29">
    <path d="M 214.046769 184.012732 
L 207.239826 184.012732 
L 206.165046 185.386147 
L 201.786311 185.386147 
L 208.039579 177.846909 
L 213.232542 177.846909 
L 219.48581 185.386147 
L 215.110693 185.386147 
L 214.046769 184.012732 
z
M 208.325463 182.613465 
L 212.950276 182.613465 
L 210.641488 179.614574 
L 208.325463 182.613465 
z
" clip-path="url(#p0c62122e53)" style="fill: #008000"/>
   </g>
   <g id="patch_30">
    <path d="M 219.48581 177.009751 
Q 217.700786 177.42833 215.780894 177.638575 
Q 213.861002 177.846909 211.814176 177.846909 
Q 207.188981 177.846909 204.487646 176.600728 
Q 201.786311 175.354547 201.786311 173.223425 
Q 201.786311 171.067456 204.535247 169.830832 
Q 207.288149 168.594207 212.075979 168.594207 
Q 213.920503 168.594207 215.610325 168.762404 
Q 217.304114 168.928688 218.803534 169.257435 
L 218.803534 171.10186 
Q 217.256514 170.679458 215.72536 170.471124 
Q 214.194207 170.260879 212.65512 170.260879 
Q 209.807016 170.260879 208.263962 171.029229 
Q 206.720909 171.795669 206.720909 173.223425 
Q 206.720909 174.637802 208.208428 175.409975 
Q 209.695948 176.180238 212.432984 176.180238 
Q 213.178727 176.180238 213.817369 176.136277 
Q 214.45601 176.090405 214.96375 175.994839 
L 214.96375 174.263183 
L 212.048212 174.263183 
L 212.048212 172.720748 
L 219.48581 172.720748 
L 219.48581 177.009751 
z
" clip-path="url(#p0c62122e53)" style="fill: #ffa600"/>
   </g>
   <g id="patch_31">
    <path d="M 238.116861 192.06489 
Q 236.331838 192.152445 234.411946 192.196422 
Q 232.492054 192.24 230.445227 192.24 
Q 225.820033 192.24 223.118698 191.979334 
Q 220.417362 191.718668 220.417362 191.272897 
Q 220.417362 190.821929 223.166298 190.563262 
Q 225.919201 190.304595 230.707031 190.304595 
Q 232.551555 190.304595 234.241377 190.339777 
Q 235.935166 190.374559 237.434586 190.443324 
L 237.434586 190.829125 
Q 235.887565 190.740771 234.356412 190.697193 
Q 232.825259 190.653216 231.286172 190.653216 
Q 228.438068 190.653216 226.895014 190.813933 
Q 225.35196 190.974251 225.35196 191.272897 
Q 225.35196 191.568745 226.83948 191.730262 
Q 228.327 191.891379 231.064035 191.891379 
Q 231.809779 191.891379 232.44842 191.882184 
Q 233.087062 191.872589 233.594802 191.852599 
L 233.594802 191.490385 
L 230.679264 191.490385 
L 230.679264 191.167751 
L 238.116861 191.167751 
L 238.116861 192.06489 
z
" clip-path="url(#p0c62122e53)" style="fill: #ffa600"/>
   </g>
   <g id="patch_32">
    <path d="M 232.677821 188.424219 
L 225.870878 188.424219 
L 224.796097 190.304595 
L 220.417362 190.304595 
L 226.67063 179.982435 
L 231.863593 179.982435 
L 238.116861 190.304595 
L 233.741745 190.304595 
L 232.677821 188.424219 
z
M 226.956515 186.508447 
L 231.581328 186.508447 
L 229.27254 182.40259 
L 226.956515 186.508447 
z
" clip-path="url(#p0c62122e53)" style="fill: #008000"/>
   </g>
   <g id="patch_33">
    <path d="M 220.417362 169.660276 
L 238.116861 169.660276 
L 238.116861 171.673384 
L 231.749158 171.673384 
L 231.749158 179.982435 
L 226.797414 179.982435 
L 226.797414 171.673384 
L 220.417362 171.673384 
L 220.417362 169.660276 
z
" clip-path="url(#p0c62122e53)" style="fill: #ff0000"/>
   </g>
   <g id="patch_34">
    <path d="M 238.116861 168.088017 
Q 236.636329 168.86735 235.035392 169.261547 
Q 233.434454 169.660276 231.690815 169.660276 
Q 226.491113 169.660276 223.454238 166.706061 
Q 220.417362 163.751847 220.417362 158.699777 
Q 220.417362 153.629584 223.454238 150.679901 
Q 226.491113 147.725686 231.690815 147.725686 
Q 233.434454 147.725686 235.035392 148.124415 
Q 236.636329 148.518612 238.116861 149.297944 
L 238.116861 153.670363 
Q 236.622951 152.637294 235.173634 152.157008 
Q 233.724318 151.676721 232.12338 151.676721 
Q 229.251504 151.676721 227.605972 153.548026 
Q 225.9649 155.4148 225.9649 158.699777 
Q 225.9649 161.971162 227.605972 163.842467 
Q 229.251504 165.70924 232.12338 165.70924 
Q 233.724318 165.70924 235.173634 165.228954 
Q 236.622951 164.744136 238.116861 163.711068 
L 238.116861 168.088017 
z
" clip-path="url(#p0c62122e53)" style="fill: #0000ff"/>
   </g>
   <g id="patch_35">
    <path d="M 239.048414 187.970407 
L 256.747913 187.970407 
L 256.747913 188.803097 
L 250.38021 188.803097 
L 250.38021 192.24 
L 245.428466 192.24 
L 245.428466 188.803097 
L 239.048414 188.803097 
L 239.048414 187.970407 
z
" clip-path="url(#p0c62122e53)" style="fill: #ff0000"/>
   </g>
   <g id="patch_36">
    <path d="M 256.747913 187.584107 
Q 254.96289 187.777257 253.042998 187.874273 
Q 251.123106 187.970407 249.076279 187.970407 
Q 244.451085 187.970407 241.74975 187.395366 
Q 239.048414 186.820325 239.048414 185.836934 
Q 239.048414 184.842078 241.79735 184.271446 
Q 244.550253 183.700815 249.338083 183.700815 
Q 251.182607 183.700815 252.872429 183.778428 
Q 254.566218 183.855159 256.065638 184.006857 
L 256.065638 184.857953 
Q 254.518617 184.663039 252.987464 184.566904 
Q 251.45631 184.469888 249.917223 184.469888 
Q 247.069119 184.469888 245.526066 184.824438 
Q 243.983012 185.178106 243.983012 185.836934 
Q 243.983012 186.489588 245.470532 186.845902 
Q 246.958051 187.201334 249.695087 187.201334 
Q 250.44083 187.201334 251.079472 187.181049 
Q 251.718114 187.159882 252.225854 187.115783 
L 252.225854 186.316723 
L 249.310315 186.316723 
L 249.310315 185.604977 
L 256.747913 185.604977 
L 256.747913 187.584107 
z
" clip-path="url(#p0c62122e53)" style="fill: #ffa600"/>
   </g>
   <g id="patch_37">
    <path d="M 251.308873 181.367454 
L 244.50193 181.367454 
L 243.427149 183.700815 
L 239.048414 183.700815 
L 245.301682 170.892037 
L 250.494645 170.892037 
L 256.747913 183.700815 
L 252.372797 183.700815 
L 251.308873 181.367454 
z
M 245.587567 178.990171 
L 250.212379 178.990171 
L 247.903592 173.89521 
L 245.587567 178.990171 
z
" clip-path="url(#p0c62122e53)" style="fill: #008000"/>
   </g>
   <g id="patch_38">
    <path d="M 256.747913 169.405548 
Q 255.267381 170.142367 253.666443 170.51506 
Q 252.065506 170.892037 250.321867 170.892037 
Q 245.122165 170.892037 242.08529 168.09898 
Q 239.048414 165.305923 239.048414 160.529452 
Q 239.048414 155.735846 242.08529 152.947073 
Q 245.122165 150.154016 250.321867 150.154016 
Q 252.065506 150.154016 253.666443 150.530993 
Q 255.267381 150.903686 256.747913 151.640505 
L 256.747913 155.774401 
Q 255.254002 154.797688 253.804686 154.343602 
Q 252.355369 153.889516 250.754432 153.889516 
Q 247.882556 153.889516 246.237024 155.658737 
Q 244.595952 157.423675 244.595952 160.529452 
Q 244.595952 163.622377 246.237024 165.391599 
Q 247.882556 167.156537 250.754432 167.156537 
Q 252.355369 167.156537 253.804686 166.702451 
Q 255.254002 166.244081 256.747913 165.267368 
L 256.747913 169.405548 
z
" clip-path="url(#p0c62122e53)" style="fill: #0000ff"/>
   </g>
   <g id="patch_39">
    <path d="M 257.679466 187.342274 
L 275.378965 187.342274 
L 275.378965 188.297467 
L 269.011261 188.297467 
L 269.011261 192.24 
L 264.059518 192.24 
L 264.059518 188.297467 
L 257.679466 188.297467 
L 257.679466 187.342274 
z
" clip-path="url(#p0c62122e53)" style="fill: #ff0000"/>
   </g>
   <g id="patch_40">
    <path d="M 275.378965 186.677575 
Q 273.593941 187.009925 271.67405 187.176858 
Q 269.754158 187.342274 267.707331 187.342274 
Q 263.082137 187.342274 260.380801 186.352814 
Q 257.679466 185.363354 257.679466 183.671256 
Q 257.679466 181.959429 260.428402 180.977557 
Q 263.181305 179.995685 267.969134 179.995685 
Q 269.813659 179.995685 271.503481 180.129231 
Q 273.19727 180.261261 274.696689 180.522284 
L 274.696689 181.986745 
Q 273.149669 181.651361 271.618516 181.485945 
Q 270.087362 181.319012 268.548275 181.319012 
Q 265.700171 181.319012 264.157118 181.929077 
Q 262.614064 182.537626 262.614064 183.671256 
Q 262.614064 184.794262 264.101583 185.407363 
Q 265.589103 186.018947 268.326139 186.018947 
Q 269.071882 186.018947 269.710524 185.984043 
Q 270.349166 185.947621 270.856906 185.871742 
L 270.856906 184.496817 
L 267.941367 184.496817 
L 267.941367 183.272133 
L 275.378965 183.272133 
L 275.378965 186.677575 
z
" clip-path="url(#p0c62122e53)" style="fill: #ffa600"/>
   </g>
   <g id="patch_41">
    <path d="M 269.939924 177.095991 
L 263.132981 177.095991 
L 262.058201 179.995685 
L 257.679466 179.995685 
L 263.932734 164.078075 
L 269.125697 164.078075 
L 275.378965 179.995685 
L 271.003849 179.995685 
L 269.939924 177.095991 
z
M 264.218618 174.141716 
L 268.843431 174.141716 
L 266.534644 167.81015 
L 264.218618 174.141716 
z
" clip-path="url(#p0c62122e53)" style="fill: #008000"/>
   </g>
   <g id="patch_42">
    <path d="M 275.378965 160.040814 
Q 273.898432 162.041992 272.297495 163.054216 
Q 270.696558 164.078075 268.952919 164.078075 
Q 263.753217 164.078075 260.716341 156.492214 
Q 257.679466 148.906354 257.679466 135.933601 
Q 257.679466 122.91431 260.716341 115.340084 
Q 263.753217 107.754224 268.952919 107.754224 
Q 270.696558 107.754224 272.297495 108.778082 
Q 273.898432 109.790306 275.378965 111.791484 
L 275.378965 123.019023 
Q 273.885054 120.366299 272.435738 119.133015 
Q 270.986421 117.899731 269.385484 117.899731 
Q 266.513607 117.899731 264.868076 122.704884 
Q 263.227003 127.498404 263.227003 135.933601 
Q 263.227003 144.333895 264.868076 149.139049 
Q 266.513607 153.932568 269.385484 153.932568 
Q 270.986421 153.932568 272.435738 152.699284 
Q 273.885054 151.454365 275.378965 148.801641 
L 275.378965 160.040814 
z
" clip-path="url(#p0c62122e53)" style="fill: #0000ff"/>
   </g>
   <g id="patch_43">
    <path d="M 276.310518 188.171194 
L 294.010017 188.171194 
L 294.010017 188.964724 
L 287.642313 188.964724 
L 287.642313 192.24 
L 282.69057 192.24 
L 282.69057 188.964724 
L 276.310518 188.964724 
L 276.310518 188.171194 
z
" clip-path="url(#p0c62122e53)" style="fill: #ff0000"/>
   </g>
   <g id="patch_44">
    <path d="M 294.010017 187.671223 
Q 292.529484 187.919047 290.928547 188.0444 
Q 289.32761 188.171194 287.58397 188.171194 
Q 282.384269 188.171194 279.347393 187.231767 
Q 276.310518 186.292341 276.310518 184.685807 
Q 276.310518 183.073509 279.347393 182.135523 
Q 282.384269 181.196097 287.58397 181.196097 
Q 289.32761 181.196097 290.928547 181.322891 
Q 292.529484 181.448244 294.010017 181.696068 
L 294.010017 183.086477 
Q 292.516106 182.757965 291.066789 182.605237 
Q 289.617473 182.452508 288.016535 182.452508 
Q 285.144659 182.452508 283.499127 183.047574 
Q 281.858055 183.641199 281.858055 184.685807 
Q 281.858055 185.726092 283.499127 186.321158 
Q 285.144659 186.914783 288.016535 186.914783 
Q 289.617473 186.914783 291.066789 186.762054 
Q 292.516106 186.607884 294.010017 186.279373 
L 294.010017 187.671223 
z
" clip-path="url(#p0c62122e53)" style="fill: #0000ff"/>
   </g>
   <g id="patch_45">
    <path d="M 294.010017 180.51242 
Q 292.224993 180.854258 290.305101 181.025958 
Q 288.385209 181.196097 286.338383 181.196097 
Q 281.713188 181.196097 279.011853 180.178385 
Q 276.310518 179.160673 276.310518 177.420261 
Q 276.310518 175.659557 279.059454 174.64965 
Q 281.812356 173.639743 286.600186 173.639743 
Q 288.44471 173.639743 290.134532 173.777102 
Q 291.828321 173.912901 293.327741 174.181378 
L 293.327741 175.687654 
Q 291.780721 175.342693 290.249567 175.172554 
Q 288.718414 175.000854 287.179327 175.000854 
Q 284.331223 175.000854 282.788169 175.628339 
Q 281.245116 176.254263 281.245116 177.420261 
Q 281.245116 178.575333 282.732635 179.20594 
Q 284.220155 179.834986 286.957191 179.834986 
Q 287.702934 179.834986 288.341576 179.799085 
Q 288.980217 179.761623 289.487957 179.683577 
L 289.487957 178.269395 
L 286.572419 178.269395 
L 286.572419 177.009742 
L 294.010017 177.009742 
L 294.010017 180.51242 
z
" clip-path="url(#p0c62122e53)" style="fill: #ffa600"/>
   </g>
   <g id="patch_46">
    <path d="M 288.570976 169.721919 
L 281.764033 169.721919 
L 280.689253 173.639743 
L 276.310518 173.639743 
L 282.563786 152.133195 
L 287.756749 152.133195 
L 294.010017 173.639743 
L 289.6349 173.639743 
L 288.570976 169.721919 
z
M 282.84967 165.730348 
L 287.474483 165.730348 
L 285.165695 157.175664 
L 282.84967 165.730348 
z
" clip-path="url(#p0c62122e53)" style="fill: #008000"/>
   </g>
   <g id="patch_47">
    <path d="M 312.641068 191.858056 
Q 310.856045 192.049028 308.936153 192.14495 
Q 307.016261 192.24 304.969434 192.24 
Q 300.34424 192.24 297.642905 191.671444 
Q 294.941569 191.102887 294.941569 190.130586 
Q 294.941569 189.146949 297.690505 188.582752 
Q 300.443408 188.018556 305.231238 188.018556 
Q 307.075762 188.018556 308.765584 188.095294 
Q 310.459373 188.171159 311.958793 188.321146 
L 311.958793 189.162645 
Q 310.411772 188.969929 308.880619 188.874879 
Q 307.349466 188.778956 305.810379 188.778956 
Q 302.962275 188.778956 301.419221 189.129508 
Q 299.876167 189.479188 299.876167 190.130586 
Q 299.876167 190.77588 301.363687 191.128176 
Q 302.851207 191.479599 305.588242 191.479599 
Q 306.333986 191.479599 306.972627 191.459543 
Q 307.611269 191.438615 308.119009 191.395014 
L 308.119009 190.604964 
L 305.203471 190.604964 
L 305.203471 189.901245 
L 312.641068 189.901245 
L 312.641068 191.858056 
z
" clip-path="url(#p0c62122e53)" style="fill: #ffa600"/>
   </g>
   <g id="patch_48">
    <path d="M 312.641068 187.413375 
Q 311.160536 187.713349 309.559599 187.865081 
Q 307.958661 188.018556 306.215022 188.018556 
Q 301.01532 188.018556 297.978445 186.881443 
Q 294.941569 185.74433 294.941569 183.799728 
Q 294.941569 181.848149 297.978445 180.71278 
Q 301.01532 179.575668 306.215022 179.575668 
Q 307.958661 179.575668 309.559599 179.729143 
Q 311.160536 179.880874 312.641068 180.180849 
L 312.641068 181.863846 
Q 311.147158 181.466205 309.697841 181.281337 
Q 308.248525 181.096469 306.647587 181.096469 
Q 303.775711 181.096469 302.130179 181.816757 
Q 300.489107 182.5353 300.489107 183.799728 
Q 300.489107 185.058923 302.130179 185.779211 
Q 303.775711 186.497755 306.647587 186.497755 
Q 308.248525 186.497755 309.697841 186.312887 
Q 311.147158 186.126275 312.641068 185.728634 
L 312.641068 187.413375 
z
" clip-path="url(#p0c62122e53)" style="fill: #0000ff"/>
   </g>
   <g id="patch_49">
    <path d="M 307.202028 177.576227 
L 300.395085 177.576227 
L 299.320305 179.575668 
L 294.941569 179.575668 
L 301.194837 168.599913 
L 306.3878 168.599913 
L 312.641068 179.575668 
L 308.265952 179.575668 
L 307.202028 177.576227 
z
M 301.480722 175.539149 
L 306.105535 175.539149 
L 303.796747 171.173311 
L 301.480722 175.539149 
z
" clip-path="url(#p0c62122e53)" style="fill: #008000"/>
   </g>
   <g id="patch_50">
    <path d="M 294.941569 133.984071 
L 312.641068 133.984071 
L 312.641068 140.735125 
L 306.273365 140.735125 
L 306.273365 168.599913 
L 301.321621 168.599913 
L 301.321621 140.735125 
L 294.941569 140.735125 
L 294.941569 133.984071 
z
" clip-path="url(#p0c62122e53)" style="fill: #ff0000"/>
   </g>
   <g id="patch_51">
    <path d="M 325.83308 191.012246 
L 319.026137 191.012246 
L 317.951356 192.24 
L 313.572621 192.24 
L 319.825889 185.500353 
L 325.018852 185.500353 
L 331.27212 192.24 
L 326.897004 192.24 
L 325.83308 191.012246 
z
M 320.111774 189.761382 
L 324.736586 189.761382 
L 322.427799 187.080545 
L 320.111774 189.761382 
z
" clip-path="url(#p0c62122e53)" style="fill: #008000"/>
   </g>
   <g id="patch_52">
    <path d="M 331.27212 185.017259 
Q 329.791588 185.256718 328.19065 185.37784 
Q 326.589713 185.500353 324.846074 185.500353 
Q 319.646372 185.500353 316.609497 184.592638 
Q 313.572621 183.684923 313.572621 182.132618 
Q 313.572621 180.574745 316.609497 179.668422 
Q 319.646372 178.760707 324.846074 178.760707 
Q 326.589713 178.760707 328.19065 178.88322 
Q 329.791588 179.004342 331.27212 179.2438 
L 331.27212 180.587275 
Q 329.778209 180.269853 328.328893 180.122279 
Q 326.879576 179.974706 325.278639 179.974706 
Q 322.406763 179.974706 320.761231 180.549685 
Q 319.120159 181.123272 319.120159 182.132618 
Q 319.120159 183.137788 320.761231 183.712767 
Q 322.406763 184.286354 325.278639 184.286354 
Q 326.879576 184.286354 328.328893 184.13878 
Q 329.778209 183.989815 331.27212 183.672393 
L 331.27212 185.017259 
z
" clip-path="url(#p0c62122e53)" style="fill: #0000ff"/>
   </g>
   <g id="patch_53">
    <path d="M 313.572621 169.493692 
L 331.27212 169.493692 
L 331.27212 171.301018 
L 324.904417 171.301018 
L 324.904417 178.760707 
L 319.952673 178.760707 
L 319.952673 171.301018 
L 313.572621 171.301018 
L 313.572621 169.493692 
z
" clip-path="url(#p0c62122e53)" style="fill: #ff0000"/>
   </g>
   <g id="patch_54">
    <path d="M 331.27212 166.292325 
Q 329.487097 167.893009 327.567205 168.697005 
Q 325.647313 169.493692 323.600486 169.493692 
Q 318.975292 169.493692 316.273957 164.728187 
Q 313.572621 159.962682 313.572621 151.813083 
Q 313.572621 143.568467 316.321557 138.839507 
Q 319.07446 134.110547 323.86229 134.110547 
Q 325.706814 134.110547 327.396636 134.753744 
Q 329.090425 135.389632 330.589845 136.64679 
L 330.589845 143.70003 
Q 329.042824 142.084728 327.511671 141.288041 
Q 325.980517 140.484045 324.44143 140.484045 
Q 321.593326 140.484045 320.050273 143.422286 
Q 318.507219 146.353218 318.507219 151.813083 
Q 318.507219 157.221786 319.994739 160.174645 
Q 321.482258 163.120195 324.219294 163.120195 
Q 324.965037 163.120195 325.603679 162.952086 
Q 326.242321 162.776669 326.750061 162.411216 
L 326.750061 155.78921 
L 323.834523 155.78921 
L 323.834523 149.890801 
L 331.27212 149.890801 
L 331.27212 166.292325 
z
" clip-path="url(#p0c62122e53)" style="fill: #ffa600"/>
   </g>
   <g id="patch_55">
    <path d="M 349.903172 191.987198 
Q 348.118149 192.113599 346.198257 192.177088 
Q 344.278365 192.24 342.231538 192.24 
Q 337.606344 192.24 334.905008 191.863682 
Q 332.203673 191.487365 332.203673 190.843816 
Q 332.203673 190.192763 334.952609 189.819332 
Q 337.705512 189.4459 342.493341 189.4459 
Q 344.337866 189.4459 346.027688 189.496691 
Q 347.721477 189.546906 349.220896 189.64618 
L 349.220896 190.203153 
Q 347.673876 190.075597 346.142723 190.012685 
Q 344.611569 189.949196 343.072482 189.949196 
Q 340.224378 189.949196 338.681325 190.18122 
Q 337.138271 190.412667 337.138271 190.843816 
Q 337.138271 191.270925 338.62579 191.504103 
Q 340.11331 191.736704 342.850346 191.736704 
Q 343.596089 191.736704 344.234731 191.723429 
Q 344.873373 191.709577 345.381113 191.680718 
L 345.381113 191.157799 
L 342.465574 191.157799 
L 342.465574 190.692019 
L 349.903172 190.692019 
L 349.903172 191.987198 
z
" clip-path="url(#p0c62122e53)" style="fill: #ffa600"/>
   </g>
   <g id="patch_56">
    <path d="M 344.464131 188.088572 
L 337.657188 188.088572 
L 336.582408 189.4459 
L 332.203673 189.4459 
L 338.456941 181.994967 
L 343.649904 181.994967 
L 349.903172 189.4459 
L 345.528056 189.4459 
L 344.464131 188.088572 
z
M 338.742825 186.705694 
L 343.367638 186.705694 
L 341.058851 183.741928 
L 338.742825 186.705694 
z
" clip-path="url(#p0c62122e53)" style="fill: #008000"/>
   </g>
   <g id="patch_57">
    <path d="M 332.203673 164.299002 
L 349.903172 164.299002 
L 349.903172 167.750208 
L 343.535468 167.750208 
L 343.535468 181.994967 
L 338.583725 181.994967 
L 338.583725 167.750208 
L 332.203673 167.750208 
L 332.203673 164.299002 
z
" clip-path="url(#p0c62122e53)" style="fill: #ff0000"/>
   </g>
   <g id="patch_58">
    <path d="M 349.903172 161.695369 
Q 348.422639 162.985931 346.821702 163.638715 
Q 345.220765 164.299002 343.477126 164.299002 
Q 338.277424 164.299002 335.240548 159.406874 
Q 332.203673 154.514746 332.203673 146.148608 
Q 332.203673 137.752456 335.240548 132.867832 
Q 338.277424 127.975704 343.477126 127.975704 
Q 345.220765 127.975704 346.821702 128.635991 
Q 348.422639 129.288775 349.903172 130.579336 
L 349.903172 137.819985 
Q 348.409261 136.109241 346.959945 135.313895 
Q 345.510628 134.51855 343.909691 134.51855 
Q 341.037814 134.51855 339.392283 137.617397 
Q 337.75121 140.708742 337.75121 146.148608 
Q 337.75121 151.565964 339.392283 154.664812 
Q 341.037814 157.756156 343.909691 157.756156 
Q 345.510628 157.756156 346.959945 156.96081 
Q 348.409261 156.157961 349.903172 154.447217 
L 349.903172 161.695369 
z
" clip-path="url(#p0c62122e53)" style="fill: #0000ff"/>
   </g>
   <g id="patch_59">
    <path d="M 363.095183 191.265569 
L 356.28824 191.265569 
L 355.21346 192.24 
L 350.834725 192.24 
L 357.087993 186.890946 
L 362.280956 186.890946 
L 368.534224 192.24 
L 364.159107 192.24 
L 363.095183 191.265569 
z
M 357.373877 190.272795 
L 361.99869 190.272795 
L 359.689902 188.145096 
L 357.373877 190.272795 
z
" clip-path="url(#p0c62122e53)" style="fill: #008000"/>
   </g>
   <g id="patch_60">
    <path d="M 368.534224 186.452755 
Q 367.053691 186.669956 365.452754 186.77982 
Q 363.851817 186.890946 362.108177 186.890946 
Q 356.908476 186.890946 353.8716 186.067602 
Q 350.834725 185.244258 350.834725 183.836238 
Q 350.834725 182.423167 353.8716 181.601086 
Q 356.908476 180.777741 362.108177 180.777741 
Q 363.851817 180.777741 365.452754 180.888868 
Q 367.053691 180.998731 368.534224 181.215932 
L 368.534224 182.434532 
Q 367.040313 182.146614 365.590996 182.012758 
Q 364.14168 181.878901 362.540743 181.878901 
Q 359.668866 181.878901 358.023334 182.400437 
Q 356.382262 182.920709 356.382262 183.836238 
Q 356.382262 184.747978 358.023334 185.269514 
Q 359.668866 185.789786 362.540743 185.789786 
Q 364.14168 185.789786 365.590996 185.65593 
Q 367.040313 185.52081 368.534224 185.232892 
L 368.534224 186.452755 
z
" clip-path="url(#p0c62122e53)" style="fill: #0000ff"/>
   </g>
   <g id="patch_61">
    <path d="M 350.834725 170.079634 
L 368.534224 170.079634 
L 368.534224 172.166063 
L 362.16652 172.166063 
L 362.16652 180.777741 
L 357.214777 180.777741 
L 357.214777 172.166063 
L 350.834725 172.166063 
L 350.834725 170.079634 
z
" clip-path="url(#p0c62122e53)" style="fill: #ff0000"/>
   </g>
   <g id="patch_62">
    <path d="M 368.534224 167.314106 
Q 366.7492 168.69687 364.829308 169.391409 
Q 362.909416 170.079634 360.86259 170.079634 
Q 356.237396 170.079634 353.53606 165.962912 
Q 350.834725 161.846191 350.834725 154.806093 
Q 350.834725 147.683913 353.583661 143.598762 
Q 356.336563 139.513611 361.124393 139.513611 
Q 362.968917 139.513611 364.658739 140.069242 
Q 366.352528 140.618559 367.851948 141.704565 
L 367.851948 147.797565 
Q 366.304928 146.402173 364.773774 145.713948 
Q 363.242621 145.01941 361.703534 145.01941 
Q 358.85543 145.01941 357.312376 147.557633 
Q 355.769323 150.089543 355.769323 154.806093 
Q 355.769323 159.478445 357.256842 162.029297 
Q 358.744362 164.573835 361.481398 164.573835 
Q 362.227141 164.573835 362.865783 164.428613 
Q 363.504424 164.277077 364.012164 163.961378 
L 364.012164 158.240903 
L 361.096626 158.240903 
L 361.096626 153.145514 
L 368.534224 153.145514 
L 368.534224 167.314106 
z
" clip-path="url(#p0c62122e53)" style="fill: #ffa600"/>
   </g>
   <g id="patch_63">
    <path d="M 381.726235 191.361788 
L 374.919292 191.361788 
L 373.844512 192.24 
L 369.465776 192.24 
L 375.719044 187.41913 
L 380.912007 187.41913 
L 387.165275 192.24 
L 382.790159 192.24 
L 381.726235 191.361788 
z
M 376.004929 190.467044 
L 380.629742 190.467044 
L 378.320954 188.549441 
L 376.004929 190.467044 
z
" clip-path="url(#p0c62122e53)" style="fill: #008000"/>
   </g>
   <g id="patch_64">
    <path d="M 387.165275 186.982952 
Q 385.380252 187.201041 383.46036 187.310584 
Q 381.540468 187.41913 379.493641 187.41913 
Q 374.868447 187.41913 372.167112 186.769842 
Q 369.465776 186.120553 369.465776 185.010189 
Q 369.465776 183.88688 372.214712 183.24257 
Q 374.967615 182.598261 379.755445 182.598261 
Q 381.599969 182.598261 383.289791 182.685895 
Q 384.98358 182.772533 386.483 182.943818 
L 386.483 183.904805 
Q 384.93598 183.684724 383.404826 183.576177 
Q 381.873673 183.466635 380.334586 183.466635 
Q 377.486482 183.466635 375.943428 183.866963 
Q 374.400374 184.266296 374.400374 185.010189 
Q 374.400374 185.747112 375.887894 186.149432 
Q 377.375414 186.550756 380.112449 186.550756 
Q 380.858193 186.550756 381.496834 186.527852 
Q 382.135476 186.503952 382.643216 186.45416 
L 382.643216 185.551927 
L 379.727678 185.551927 
L 379.727678 184.748283 
L 387.165275 184.748283 
L 387.165275 186.982952 
z
" clip-path="url(#p0c62122e53)" style="fill: #ffa600"/>
   </g>
   <g id="patch_65">
    <path d="M 387.165275 181.56159 
Q 385.684743 182.075444 384.083806 182.335359 
Q 382.482868 182.598261 380.739229 182.598261 
Q 375.539527 182.598261 372.502652 180.650395 
Q 369.465776 178.702528 369.465776 175.371438 
Q 369.465776 172.028397 372.502652 170.083518 
Q 375.539527 168.135652 380.739229 168.135652 
Q 382.482868 168.135652 384.083806 168.398554 
Q 385.684743 168.658469 387.165275 169.172323 
L 387.165275 172.055285 
Q 385.671365 171.374129 384.222048 171.057452 
Q 382.772732 170.740774 381.171794 170.740774 
Q 378.299918 170.740774 376.654386 171.974622 
Q 375.013314 173.205482 375.013314 175.371438 
Q 375.013314 177.528431 376.654386 178.762279 
Q 378.299918 179.993139 381.171794 179.993139 
Q 382.772732 179.993139 384.222048 179.676461 
Q 385.671365 179.356796 387.165275 178.67564 
L 387.165275 181.56159 
z
" clip-path="url(#p0c62122e53)" style="fill: #0000ff"/>
   </g>
   <g id="patch_66">
    <path d="M 369.465776 25.92 
L 387.165275 25.92 
L 387.165275 53.656014 
L 380.797572 53.656014 
L 380.797572 168.135652 
L 375.845828 168.135652 
L 375.845828 53.656014 
L 369.465776 53.656014 
L 369.465776 25.92 
z
" clip-path="url(#p0c62122e53)" style="fill: #ff0000"/>
   </g>
   <g id="patch_67">
    <path d="M 400.357287 191.676195 
L 393.550344 191.676195 
L 392.475563 192.24 
L 388.096828 192.24 
L 394.350096 189.14504 
L 399.543059 189.14504 
L 405.796327 192.24 
L 401.421211 192.24 
L 400.357287 191.676195 
z
M 394.635981 191.101776 
L 399.260793 191.101776 
L 396.952006 189.870691 
L 394.635981 191.101776 
z
" clip-path="url(#p0c62122e53)" style="fill: #008000"/>
   </g>
   <g id="patch_68">
    <path d="M 405.796327 188.444982 
Q 404.011304 188.795011 402.091412 188.970825 
Q 400.17152 189.14504 398.124693 189.14504 
Q 393.499499 189.14504 390.798164 188.102945 
Q 388.096828 187.060849 388.096828 185.278738 
Q 388.096828 183.475848 390.845764 182.441744 
Q 393.598667 181.40764 398.386497 181.40764 
Q 400.231021 181.40764 401.920843 181.548291 
Q 403.614632 181.687344 405.114052 181.962253 
L 405.114052 183.504618 
Q 403.567031 183.151392 402.035878 182.977177 
Q 400.504724 182.801363 398.965637 182.801363 
Q 396.117533 182.801363 394.57448 183.443882 
Q 393.031426 184.084803 393.031426 185.278738 
Q 393.031426 186.461484 394.518946 187.1072 
Q 396.006465 187.751317 398.743501 187.751317 
Q 399.489244 187.751317 400.127886 187.714556 
Q 400.766528 187.676197 401.274268 187.596281 
L 401.274268 186.148216 
L 398.35873 186.148216 
L 398.35873 184.858383 
L 405.796327 184.858383 
L 405.796327 188.444982 
z
" clip-path="url(#p0c62122e53)" style="fill: #ffa600"/>
   </g>
   <g id="patch_69">
    <path d="M 405.796327 179.965649 
Q 404.315795 180.680411 402.714857 181.041948 
Q 401.11392 181.40764 399.370281 181.40764 
Q 394.170579 181.40764 391.133704 178.698192 
Q 388.096828 175.988743 388.096828 171.355254 
Q 388.096828 166.705142 391.133704 163.999849 
Q 394.170579 161.290401 399.370281 161.290401 
Q 401.11392 161.290401 402.714857 161.656093 
Q 404.315795 162.01763 405.796327 162.732393 
L 405.796327 166.742543 
Q 404.302416 165.795067 402.8531 165.354574 
Q 401.403783 164.91408 399.802846 164.91408 
Q 396.93097 164.91408 395.285438 166.630341 
Q 393.644366 168.342447 393.644366 171.355254 
Q 393.644366 174.355594 395.285438 176.071855 
Q 396.93097 177.783961 399.802846 177.783961 
Q 401.403783 177.783961 402.8531 177.343468 
Q 404.302416 176.898819 405.796327 175.951343 
L 405.796327 179.965649 
z
" clip-path="url(#p0c62122e53)" style="fill: #0000ff"/>
   </g>
   <g id="patch_70">
    <path d="M 388.096828 85.463883 
L 405.796327 85.463883 
L 405.796327 100.252166 
L 399.428624 100.252166 
L 399.428624 161.290401 
L 394.47688 161.290401 
L 394.47688 100.252166 
L 388.096828 100.252166 
L 388.096828 85.463883 
z
" clip-path="url(#p0c62122e53)" style="fill: #ff0000"/>
   </g>
   <g id="patch_71">
    <path d="M 406.72788 185.382481 
L 424.427379 185.382481 
L 424.427379 186.719888 
L 418.059675 186.719888 
L 418.059675 192.24 
L 413.107932 192.24 
L 413.107932 186.719888 
L 406.72788 186.719888 
L 406.72788 185.382481 
z
" clip-path="url(#p0c62122e53)" style="fill: #ff0000"/>
   </g>
   <g id="patch_72">
    <path d="M 424.427379 184.792629 
Q 422.946846 185.085005 421.345909 185.232893 
Q 419.744972 185.382481 418.001333 185.382481 
Q 412.801631 185.382481 409.764755 184.274172 
Q 406.72788 183.165863 406.72788 181.270519 
Q 406.72788 179.368376 409.764755 178.261767 
Q 412.801631 177.153458 418.001333 177.153458 
Q 419.744972 177.153458 421.345909 177.303046 
Q 422.946846 177.450934 424.427379 177.74331 
L 424.427379 179.383675 
Q 422.933468 178.996106 421.484152 178.815921 
Q 420.034835 178.635736 418.433898 178.635736 
Q 415.562021 178.635736 413.91649 179.337778 
Q 412.275417 180.038121 412.275417 181.270519 
Q 412.275417 182.497818 413.91649 183.199861 
Q 415.562021 183.900203 418.433898 183.900203 
Q 420.034835 183.900203 421.484152 183.720018 
Q 422.933468 183.538133 424.427379 183.150565 
L 424.427379 184.792629 
z
" clip-path="url(#p0c62122e53)" style="fill: #0000ff"/>
   </g>
   <g id="patch_73">
    <path d="M 418.988338 174.90485 
L 412.181395 174.90485 
L 411.106615 177.153458 
L 406.72788 177.153458 
L 412.981148 164.809924 
L 418.174111 164.809924 
L 424.427379 177.153458 
L 420.052263 177.153458 
L 418.988338 174.90485 
z
M 413.267032 172.613916 
L 417.891845 172.613916 
L 415.583058 167.704014 
L 413.267032 172.613916 
z
" clip-path="url(#p0c62122e53)" style="fill: #008000"/>
   </g>
   <g id="patch_74">
    <path d="M 424.427379 158.729524 
Q 422.642356 161.769724 420.722464 163.296765 
Q 418.802572 164.809924 416.755745 164.809924 
Q 412.130551 164.809924 409.429215 155.758735 
Q 406.72788 146.707547 406.72788 131.228904 
Q 406.72788 115.569792 409.476816 106.588015 
Q 412.229719 97.606237 417.017548 97.606237 
Q 418.862073 97.606237 420.551895 98.82787 
Q 422.245684 100.035621 423.745103 102.423358 
L 423.745103 115.819672 
Q 422.198083 112.751708 420.66693 111.238549 
Q 419.135776 109.711508 417.596689 109.711508 
Q 414.748585 109.711508 413.205532 115.292149 
Q 411.662478 120.858907 411.662478 131.228904 
Q 411.662478 141.501725 413.149997 147.11013 
Q 414.637517 152.704653 417.374553 152.704653 
Q 418.120296 152.704653 418.758938 152.385363 
Q 419.39758 152.05219 419.90532 151.358081 
L 419.90532 138.780816 
L 416.989781 138.780816 
L 416.989781 127.577888 
L 424.427379 127.577888 
L 424.427379 158.729524 
z
" clip-path="url(#p0c62122e53)" style="fill: #ffa600"/>
   </g>
   <g id="patch_75">
    <path d="M 437.61939 191.696372 
L 430.812447 191.696372 
L 429.737667 192.24 
L 425.358932 192.24 
L 431.6122 189.255801 
L 436.805163 189.255801 
L 443.058431 192.24 
L 438.683314 192.24 
L 437.61939 191.696372 
z
M 431.898084 191.14251 
L 436.522897 191.14251 
L 434.214109 189.955482 
L 431.898084 191.14251 
z
" clip-path="url(#p0c62122e53)" style="fill: #008000"/>
   </g>
   <g id="patch_76">
    <path d="M 425.358932 184.992658 
L 443.058431 184.992658 
L 443.058431 185.82409 
L 436.690727 185.82409 
L 436.690727 189.255801 
L 431.738984 189.255801 
L 431.738984 185.82409 
L 425.358932 185.82409 
L 425.358932 184.992658 
z
" clip-path="url(#p0c62122e53)" style="fill: #ff0000"/>
   </g>
   <g id="patch_77">
    <path d="M 443.058431 184.144081 
Q 441.273407 184.56837 439.353515 184.781483 
Q 437.433623 184.992658 435.386797 184.992658 
Q 430.761603 184.992658 428.060267 183.729479 
Q 425.358932 182.4663 425.358932 180.306108 
Q 425.358932 178.12073 428.107868 176.867238 
Q 430.86077 175.613746 435.6486 175.613746 
Q 437.493124 175.613746 439.182946 175.784236 
Q 440.876735 175.952789 442.376155 176.286021 
L 442.376155 178.155603 
Q 440.829135 177.72744 439.297981 177.516264 
Q 437.766828 177.303151 436.227741 177.303151 
Q 433.379637 177.303151 431.836583 178.081983 
Q 430.29353 178.858877 430.29353 180.306108 
Q 430.29353 181.739778 431.781049 182.522484 
Q 433.268569 183.303253 436.005605 183.303253 
Q 436.751348 183.303253 437.38999 183.258693 
Q 438.028631 183.212195 438.536371 183.115326 
L 438.536371 181.360049 
L 435.620833 181.360049 
L 435.620833 179.796574 
L 443.058431 179.796574 
L 443.058431 184.144081 
z
" clip-path="url(#p0c62122e53)" style="fill: #ffa600"/>
   </g>
   <g id="patch_78">
    <path d="M 443.058431 174.697007 
Q 441.577898 175.151414 439.976961 175.381259 
Q 438.376024 175.613746 436.632384 175.613746 
Q 431.432683 175.613746 428.395807 173.891228 
Q 425.358932 172.168711 425.358932 169.222995 
Q 425.358932 166.266712 428.395807 164.546836 
Q 431.432683 162.824319 436.632384 162.824319 
Q 438.376024 162.824319 439.976961 163.056806 
Q 441.577898 163.286651 443.058431 163.741058 
L 443.058431 166.290489 
Q 441.56452 165.688136 440.115203 165.408095 
Q 438.665887 165.128054 437.06495 165.128054 
Q 434.193073 165.128054 432.547541 166.219158 
Q 430.906469 167.307619 430.906469 169.222995 
Q 430.906469 171.130445 432.547541 172.221549 
Q 434.193073 173.310011 437.06495 173.310011 
Q 438.665887 173.310011 440.115203 173.02997 
Q 441.56452 172.747287 443.058431 172.144934 
L 443.058431 174.697007 
z
" clip-path="url(#p0c62122e53)" style="fill: #0000ff"/>
   </g>
   <g id="patch_79">
    <path d="M 443.989983 190.219704 
L 461.689482 190.219704 
L 461.689482 190.613718 
L 455.321779 190.613718 
L 455.321779 192.24 
L 450.370035 192.24 
L 450.370035 190.613718 
L 443.989983 190.613718 
L 443.989983 190.219704 
z
" clip-path="url(#p0c62122e53)" style="fill: #ff0000"/>
   </g>
   <g id="patch_80">
    <path d="M 461.689482 189.12296 
Q 459.904459 189.671332 457.984567 189.94677 
Q 456.064675 190.219704 454.017848 190.219704 
Q 449.392654 190.219704 446.691319 188.587108 
Q 443.989983 186.954511 443.989983 184.162571 
Q 443.989983 181.33808 446.738919 179.718003 
Q 449.491822 178.097927 454.279652 178.097927 
Q 456.124176 178.097927 457.813998 178.318277 
Q 459.507787 178.536124 461.007207 178.966809 
L 461.007207 181.383151 
Q 459.460187 180.829771 457.929033 180.556837 
Q 456.39788 180.281399 454.858793 180.281399 
Q 452.010689 180.281399 450.467635 181.288 
Q 448.924581 182.292097 448.924581 184.162571 
Q 448.924581 186.015518 450.412101 187.027127 
Q 451.899621 188.036232 454.636656 188.036232 
Q 455.3824 188.036232 456.021041 187.97864 
Q 456.659683 187.918544 457.167423 187.793345 
L 457.167423 185.524738 
L 454.251885 185.524738 
L 454.251885 183.504024 
L 461.689482 183.504024 
L 461.689482 189.12296 
z
" clip-path="url(#p0c62122e53)" style="fill: #ffa600"/>
   </g>
   <g id="patch_81">
    <path d="M 461.689482 177.084232 
Q 460.20895 177.586697 458.608013 177.840851 
Q 457.007075 178.097927 455.263436 178.097927 
Q 450.063734 178.097927 447.026859 176.193231 
Q 443.989983 174.288536 443.989983 171.031272 
Q 443.989983 167.762324 447.026859 165.860549 
Q 450.063734 163.955854 455.263436 163.955854 
Q 457.007075 163.955854 458.608013 164.212929 
Q 460.20895 164.467083 461.689482 164.969549 
L 461.689482 167.788616 
Q 460.195572 167.122556 458.746255 166.812897 
Q 457.296939 166.503238 455.696001 166.503238 
Q 452.824125 166.503238 451.178593 167.70974 
Q 449.537521 168.913321 449.537521 171.031272 
Q 449.537521 173.14046 451.178593 174.346962 
Q 452.824125 175.550543 455.696001 175.550543 
Q 457.296939 175.550543 458.746255 175.240883 
Q 460.195572 174.928303 461.689482 174.262244 
L 461.689482 177.084232 
z
" clip-path="url(#p0c62122e53)" style="fill: #0000ff"/>
   </g>
   <g id="patch_82">
    <path d="M 456.250442 143.713924 
L 449.443499 143.713924 
L 448.368719 163.955854 
L 443.989983 163.955854 
L 450.243251 52.839565 
L 455.436214 52.839565 
L 461.689482 163.955854 
L 457.314366 163.955854 
L 456.250442 143.713924 
z
M 450.529136 123.090969 
L 455.153949 123.090969 
L 452.845161 78.89212 
L 450.529136 123.090969 
z
" clip-path="url(#p0c62122e53)" style="fill: #008000"/>
   </g>
   <g id="patch_83">
    <path d="M 480.320534 192.009899 
Q 478.535511 192.12495 476.615619 192.182737 
Q 474.695727 192.24 472.6489 192.24 
Q 468.023706 192.24 465.322371 191.897476 
Q 462.621035 191.554951 462.621035 190.969193 
Q 462.621035 190.376604 465.369971 190.036707 
Q 468.122874 189.696809 472.910704 189.696809 
Q 474.755228 189.696809 476.44505 189.743039 
Q 478.138839 189.788744 479.638259 189.879103 
L 479.638259 190.386061 
Q 478.091238 190.269959 476.560085 190.212697 
Q 475.028931 190.154909 473.489844 190.154909 
Q 470.64174 190.154909 469.098687 190.366097 
Q 467.555633 190.57676 467.555633 190.969193 
Q 467.555633 191.357947 469.043153 191.570186 
Q 470.530672 191.7819 473.267708 191.7819 
Q 474.013451 191.7819 474.652093 191.769817 
Q 475.290735 191.757209 475.798475 191.730942 
L 475.798475 191.25498 
L 472.882937 191.25498 
L 472.882937 190.831027 
L 480.320534 190.831027 
L 480.320534 192.009899 
z
" clip-path="url(#p0c62122e53)" style="fill: #ffa600"/>
   </g>
   <g id="patch_84">
    <path d="M 462.621035 185.700366 
L 480.320534 185.700366 
L 480.320534 186.479784 
L 473.952831 186.479784 
L 473.952831 189.696809 
L 469.001087 189.696809 
L 469.001087 186.479784 
L 462.621035 186.479784 
L 462.621035 185.700366 
z
" clip-path="url(#p0c62122e53)" style="fill: #ff0000"/>
   </g>
   <g id="patch_85">
    <path d="M 480.320534 185.049315 
Q 478.840002 185.372026 477.239064 185.535258 
Q 475.638127 185.700366 473.894488 185.700366 
Q 468.694786 185.700366 465.657911 184.477065 
Q 462.621035 183.253763 462.621035 181.161768 
Q 462.621035 179.062268 465.657911 177.840843 
Q 468.694786 176.617541 473.894488 176.617541 
Q 475.638127 176.617541 477.239064 176.782649 
Q 478.840002 176.945881 480.320534 177.268593 
L 480.320534 179.079154 
Q 478.826623 178.651373 477.377307 178.452493 
Q 475.92799 178.253613 474.327053 178.253613 
Q 471.455177 178.253613 469.809645 179.028496 
Q 468.168573 179.801502 468.168573 181.161768 
Q 468.168573 182.516405 469.809645 183.291288 
Q 471.455177 184.064294 474.327053 184.064294 
Q 475.92799 184.064294 477.377307 183.865414 
Q 478.826623 183.664658 480.320534 183.236877 
L 480.320534 185.049315 
z
" clip-path="url(#p0c62122e53)" style="fill: #0000ff"/>
   </g>
   <g id="patch_86">
    <path d="M 474.881494 174.896749 
L 468.074551 174.896749 
L 466.99977 176.617541 
L 462.621035 176.617541 
L 468.874303 167.171403 
L 474.067266 167.171403 
L 480.320534 176.617541 
L 475.945418 176.617541 
L 474.881494 174.896749 
z
M 469.160188 173.143565 
L 473.785 173.143565 
L 471.476213 169.386164 
L 469.160188 173.143565 
z
" clip-path="url(#p0c62122e53)" style="fill: #008000"/>
   </g>
   <g id="patch_87">
    <path d="M 498.951586 192.024898 
Q 497.166563 192.132449 495.246671 192.18647 
Q 493.326779 192.24 491.279952 192.24 
Q 486.654758 192.24 483.953422 191.919803 
Q 481.252087 191.599606 481.252087 191.052031 
Q 481.252087 190.498071 484.001023 190.180329 
Q 486.753926 189.862588 491.541755 189.862588 
Q 493.38628 189.862588 495.076102 189.905805 
Q 496.769891 189.94853 498.26931 190.032999 
L 498.26931 190.50691 
Q 496.72229 190.398377 495.191137 190.344848 
Q 493.659983 190.290827 492.120896 190.290827 
Q 489.272792 190.290827 487.729739 190.488249 
Q 486.186685 190.685179 486.186685 191.052031 
Q 486.186685 191.415444 487.674205 191.613848 
Q 489.161724 191.811761 491.89876 191.811761 
Q 492.644503 191.811761 493.283145 191.800466 
Q 493.921787 191.78868 494.429527 191.764125 
L 494.429527 191.319189 
L 491.513988 191.319189 
L 491.513988 190.922871 
L 498.951586 190.922871 
L 498.951586 192.024898 
z
" clip-path="url(#p0c62122e53)" style="fill: #ffa600"/>
   </g>
   <g id="patch_88">
    <path d="M 493.512545 188.346771 
L 486.705603 188.346771 
L 485.630822 189.862588 
L 481.252087 189.862588 
L 487.505355 181.541646 
L 492.698318 181.541646 
L 498.951586 189.862588 
L 494.57647 189.862588 
L 493.512545 188.346771 
z
M 487.791239 186.802421 
L 492.416052 186.802421 
L 490.107265 183.492591 
L 487.791239 186.802421 
z
" clip-path="url(#p0c62122e53)" style="fill: #008000"/>
   </g>
   <g id="patch_89">
    <path d="M 498.951586 180.093148 
Q 497.471053 180.811135 495.870116 181.174303 
Q 494.269179 181.541646 492.52554 181.541646 
Q 487.325838 181.541646 484.288962 178.819973 
Q 481.252087 176.0983 481.252087 171.443906 
Q 481.252087 166.772814 484.288962 164.055316 
Q 487.325838 161.333643 492.52554 161.333643 
Q 494.269179 161.333643 495.870116 161.700986 
Q 497.471053 162.064154 498.951586 162.782141 
L 498.951586 166.810383 
Q 497.457675 165.858633 496.008359 165.416152 
Q 494.559042 164.973672 492.958105 164.973672 
Q 490.086228 164.973672 488.440697 166.697676 
Q 486.799624 168.417506 486.799624 171.443906 
Q 486.799624 174.457783 488.440697 176.181787 
Q 490.086228 177.901617 492.958105 177.901617 
Q 494.559042 177.901617 496.008359 177.459137 
Q 497.457675 177.012482 498.951586 176.060731 
L 498.951586 180.093148 
z
" clip-path="url(#p0c62122e53)" style="fill: #0000ff"/>
   </g>
   <g id="patch_90">
    <path d="M 481.252087 110.219284 
L 498.951586 110.219284 
L 498.951586 120.188008 
L 492.583882 120.188008 
L 492.583882 161.333643 
L 487.632139 161.333643 
L 487.632139 120.188008 
L 481.252087 120.188008 
L 481.252087 110.219284 
z
" clip-path="url(#p0c62122e53)" style="fill: #ff0000"/>
   </g>
   <g id="patch_91">
    <path d="M 499.883139 189.866096 
L 517.582638 189.866096 
L 517.582638 190.329074 
L 511.214934 190.329074 
L 511.214934 192.24 
L 506.263191 192.24 
L 506.263191 190.329074 
L 499.883139 190.329074 
L 499.883139 189.866096 
z
" clip-path="url(#p0c62122e53)" style="fill: #ff0000"/>
   </g>
   <g id="patch_92">
    <path d="M 517.582638 189.651312 
Q 515.797614 189.758704 513.877722 189.812645 
Q 511.957831 189.866096 509.911004 189.866096 
Q 505.28581 189.866096 502.584474 189.546372 
Q 499.883139 189.226648 499.883139 188.67988 
Q 499.883139 188.126737 502.632075 187.809465 
Q 505.384978 187.492192 510.172807 187.492192 
Q 512.017331 187.492192 513.707153 187.535345 
Q 515.400942 187.578008 516.900362 187.662352 
L 516.900362 188.135564 
Q 515.353342 188.027191 513.822188 187.97374 
Q 512.291035 187.919799 510.751948 187.919799 
Q 507.903844 187.919799 506.36079 188.11693 
Q 504.817737 188.31357 504.817737 188.67988 
Q 504.817737 189.042757 506.305256 189.240868 
Q 507.792776 189.438489 510.529812 189.438489 
Q 511.275555 189.438489 511.914197 189.427211 
Q 512.552838 189.415442 513.060578 189.390923 
L 513.060578 188.946644 
L 510.14504 188.946644 
L 510.14504 188.550911 
L 517.582638 188.550911 
L 517.582638 189.651312 
z
" clip-path="url(#p0c62122e53)" style="fill: #ffa600"/>
   </g>
   <g id="patch_93">
    <path d="M 517.582638 187.18281 
Q 516.102105 187.336164 514.501168 187.413732 
Q 512.900231 187.492192 511.156591 187.492192 
Q 505.95689 187.492192 502.920014 186.910875 
Q 499.883139 186.329558 499.883139 185.335435 
Q 499.883139 184.337746 502.920014 183.75732 
Q 505.95689 183.176003 511.156591 183.176003 
Q 512.900231 183.176003 514.501168 183.254463 
Q 516.102105 183.332032 517.582638 183.485385 
L 517.582638 184.34577 
Q 516.088727 184.142487 514.63941 184.047979 
Q 513.190094 183.95347 511.589157 183.95347 
Q 508.71728 183.95347 507.071748 184.321697 
Q 505.430676 184.689032 505.430676 185.335435 
Q 505.430676 185.979163 507.071748 186.34739 
Q 508.71728 186.714725 511.589157 186.714725 
Q 513.190094 186.714725 514.63941 186.620217 
Q 516.088727 186.524817 517.582638 186.321534 
L 517.582638 187.18281 
z
" clip-path="url(#p0c62122e53)" style="fill: #0000ff"/>
   </g>
   <g id="patch_94">
    <path d="M 512.143597 182.114532 
L 505.336654 182.114532 
L 504.261874 183.176003 
L 499.883139 183.176003 
L 506.136407 177.349148 
L 511.32937 177.349148 
L 517.582638 183.176003 
L 513.207521 183.176003 
L 512.143597 182.114532 
z
M 506.422291 181.033079 
L 511.047104 181.033079 
L 508.738316 178.715325 
L 506.422291 181.033079 
z
" clip-path="url(#p0c62122e53)" style="fill: #008000"/>
   </g>
   <g id="patch_95">
    <path d="M 536.213689 192.041295 
Q 534.428666 192.140647 532.508774 192.190551 
Q 530.588882 192.24 528.542055 192.24 
Q 523.916861 192.24 521.215526 191.944211 
Q 518.51419 191.648421 518.51419 191.142585 
Q 518.51419 190.630851 521.263126 190.33733 
Q 524.016029 190.043809 528.803859 190.043809 
Q 530.648383 190.043809 532.338205 190.083731 
Q 534.031994 190.1232 535.531414 190.20123 
L 535.531414 190.639017 
Q 533.984394 190.538757 532.45324 190.489308 
Q 530.922087 190.439404 529.383 190.439404 
Q 526.534896 190.439404 524.991842 190.621778 
Q 523.448788 190.803697 523.448788 191.142585 
Q 523.448788 191.478297 524.936308 191.661577 
Q 526.423828 191.844404 529.160864 191.844404 
Q 529.906607 191.844404 530.545248 191.83397 
Q 531.18389 191.823082 531.69163 191.800399 
L 531.69163 191.389379 
L 528.776092 191.389379 
L 528.776092 191.023271 
L 536.213689 191.023271 
L 536.213689 192.041295 
z
" clip-path="url(#p0c62122e53)" style="fill: #ffa600"/>
   </g>
   <g id="patch_96">
    <path d="M 530.774649 189.563715 
L 523.967706 189.563715 
L 522.892926 190.043809 
L 518.51419 190.043809 
L 524.767458 187.408379 
L 529.960421 187.408379 
L 536.213689 190.043809 
L 531.838573 190.043809 
L 530.774649 189.563715 
z
M 525.053343 189.074585 
L 529.678156 189.074585 
L 527.369368 188.026287 
L 525.053343 189.074585 
z
" clip-path="url(#p0c62122e53)" style="fill: #008000"/>
   </g>
   <g id="patch_97">
    <path d="M 518.51419 183.015997 
L 536.213689 183.015997 
L 536.213689 183.872634 
L 529.845986 183.872634 
L 529.845986 187.408379 
L 524.894242 187.408379 
L 524.894242 183.872634 
L 518.51419 183.872634 
L 518.51419 183.015997 
z
" clip-path="url(#p0c62122e53)" style="fill: #ff0000"/>
   </g>
   <g id="patch_98">
    <path d="M 536.213689 182.590958 
Q 534.733157 182.80164 533.13222 182.908206 
Q 531.531282 183.015997 529.787643 183.015997 
Q 524.587941 183.015997 521.551066 182.217365 
Q 518.51419 181.418734 518.51419 180.052976 
Q 518.51419 178.682318 521.551066 177.884912 
Q 524.587941 177.08628 529.787643 177.08628 
Q 531.531282 177.08628 533.13222 177.194071 
Q 534.733157 177.300637 536.213689 177.511319 
L 536.213689 178.693342 
Q 534.719779 178.414066 533.270462 178.284227 
Q 531.821146 178.154389 530.220208 178.154389 
Q 527.348332 178.154389 525.7028 178.66027 
Q 524.061728 179.164927 524.061728 180.052976 
Q 524.061728 180.93735 525.7028 181.443232 
Q 527.348332 181.947888 530.220208 181.947888 
Q 531.821146 181.947888 533.270462 181.818049 
Q 534.719779 181.686986 536.213689 181.40771 
L 536.213689 182.590958 
z
" clip-path="url(#p0c62122e53)" style="fill: #0000ff"/>
   </g>
   <g id="patch_99">
    <path d="M 549.405701 191.582788 
L 542.598758 191.582788 
L 541.523977 192.24 
L 537.145242 192.24 
L 543.39851 188.632292 
L 548.591473 188.632292 
L 554.844741 192.24 
L 550.469625 192.24 
L 549.405701 191.582788 
z
M 543.684395 190.913205 
L 548.309208 190.913205 
L 546.00042 189.478163 
L 543.684395 190.913205 
z
" clip-path="url(#p0c62122e53)" style="fill: #008000"/>
   </g>
   <g id="patch_100">
    <path d="M 554.844741 188.305877 
Q 553.059718 188.469084 551.139826 188.551061 
Q 549.219934 188.632292 547.173107 188.632292 
Q 542.547913 188.632292 539.846578 188.146395 
Q 537.145242 187.660499 537.145242 186.829556 
Q 537.145242 185.988925 539.894178 185.506754 
Q 542.647081 185.024584 547.434911 185.024584 
Q 549.279435 185.024584 550.969257 185.090165 
Q 552.663046 185.155001 554.162466 185.283182 
L 554.162466 186.002339 
Q 552.615445 185.837641 551.084292 185.75641 
Q 549.553138 185.674433 548.014052 185.674433 
Q 545.165947 185.674433 543.622894 185.97402 
Q 542.07984 186.272861 542.07984 186.829556 
Q 542.07984 187.381033 543.56736 187.682111 
Q 545.054879 187.982442 547.791915 187.982442 
Q 548.537658 187.982442 549.1763 187.965302 
Q 549.814942 187.947416 550.322682 187.910154 
L 550.322682 187.234966 
L 547.407144 187.234966 
L 547.407144 186.633558 
L 554.844741 186.633558 
L 554.844741 188.305877 
z
" clip-path="url(#p0c62122e53)" style="fill: #ffa600"/>
   </g>
   <g id="patch_101">
    <path d="M 554.844741 184.584967 
Q 553.364209 184.802875 551.763271 184.913096 
Q 550.162334 185.024584 548.418695 185.024584 
Q 543.218993 185.024584 540.182118 184.198559 
Q 537.145242 183.372535 537.145242 181.959932 
Q 537.145242 180.542262 540.182118 179.717504 
Q 543.218993 178.89148 548.418695 178.89148 
Q 550.162334 178.89148 551.763271 179.002968 
Q 553.364209 179.113189 554.844741 179.331097 
L 554.844741 180.553664 
Q 553.35083 180.264809 551.901514 180.130516 
Q 550.452197 179.996224 548.85126 179.996224 
Q 545.979384 179.996224 544.333852 180.519457 
Q 542.69278 181.041424 542.69278 181.959932 
Q 542.69278 182.87464 544.333852 183.397873 
Q 545.979384 183.91984 548.85126 183.91984 
Q 550.452197 183.91984 551.901514 183.785547 
Q 553.35083 183.649988 554.844741 183.361133 
L 554.844741 184.584967 
z
" clip-path="url(#p0c62122e53)" style="fill: #0000ff"/>
   </g>
   <g id="patch_102">
    <path d="M 537.145242 167.346814 
L 554.844741 167.346814 
L 554.844741 169.598346 
L 548.477038 169.598346 
L 548.477038 178.89148 
L 543.525294 178.89148 
L 543.525294 169.598346 
L 537.145242 169.598346 
L 537.145242 167.346814 
z
" clip-path="url(#p0c62122e53)" style="fill: #ff0000"/>
   </g>
   <g id="patch_103">
    <path d="M 568.036752 191.472995 
L 561.22981 191.472995 
L 560.155029 192.24 
L 555.776294 192.24 
L 562.029562 188.029591 
L 567.222525 188.029591 
L 573.475793 192.24 
L 569.100677 192.24 
L 568.036752 191.472995 
z
M 562.315446 190.691551 
L 566.940259 190.691551 
L 564.631472 189.016772 
L 562.315446 190.691551 
z
" clip-path="url(#p0c62122e53)" style="fill: #008000"/>
   </g>
   <g id="patch_104">
    <path d="M 555.776294 182.014722 
L 573.475793 182.014722 
L 573.475793 183.187789 
L 567.108089 183.187789 
L 567.108089 188.029591 
L 562.156346 188.029591 
L 562.156346 183.187789 
L 555.776294 183.187789 
L 555.776294 182.014722 
z
" clip-path="url(#p0c62122e53)" style="fill: #ff0000"/>
   </g>
   <g id="patch_105">
    <path d="M 573.475793 181.368008 
Q 571.99526 181.688569 570.394323 181.850714 
Q 568.793386 182.014722 567.049747 182.014722 
Q 561.850045 182.014722 558.813169 180.799571 
Q 555.776294 179.584421 555.776294 177.506365 
Q 555.776294 175.420854 558.813169 174.207567 
Q 561.850045 172.992417 567.049747 172.992417 
Q 568.793386 172.992417 570.394323 173.156425 
Q 571.99526 173.318569 573.475793 173.63913 
L 573.475793 175.437627 
Q 571.981882 175.012698 570.532566 174.815142 
Q 569.083249 174.617587 567.482312 174.617587 
Q 564.610435 174.617587 562.964904 175.387307 
Q 561.323831 176.155162 561.323831 177.506365 
Q 561.323831 178.851976 562.964904 179.621695 
Q 564.610435 180.389551 567.482312 180.389551 
Q 569.083249 180.389551 570.532566 180.191996 
Q 571.981882 179.992577 573.475793 179.567647 
L 573.475793 181.368008 
z
" clip-path="url(#p0c62122e53)" style="fill: #0000ff"/>
   </g>
   <g id="patch_106">
    <path d="M 573.475793 170.978846 
Q 571.69077 171.985631 569.770878 172.491323 
Q 567.850986 172.992417 565.804159 172.992417 
Q 561.178965 172.992417 558.477629 169.995046 
Q 555.776294 166.997676 555.776294 161.871804 
Q 555.776294 156.686169 558.52523 153.711784 
Q 561.278133 150.737399 566.065962 150.737399 
Q 567.910487 150.737399 569.600309 151.141952 
Q 571.294098 151.541908 572.793517 152.332626 
L 572.793517 156.768918 
Q 571.246497 155.752938 569.715344 155.251844 
Q 568.18419 154.746153 566.645103 154.746153 
Q 563.796999 154.746153 562.253946 156.594225 
Q 560.710892 158.4377 560.710892 161.871804 
Q 560.710892 165.273728 562.198412 167.130994 
Q 563.685931 168.983664 566.422967 168.983664 
Q 567.16871 168.983664 567.807352 168.877928 
Q 568.445994 168.767595 568.953734 168.537736 
L 568.953734 164.372678 
L 566.038195 164.372678 
L 566.038195 160.662742 
L 573.475793 160.662742 
L 573.475793 170.978846 
z
" clip-path="url(#p0c62122e53)" style="fill: #ffa600"/>
   </g>
   <g id="patch_107">
    <path d="M 586.667804 191.407842 
L 579.860861 191.407842 
L 578.786081 192.24 
L 574.407346 192.24 
L 580.660614 187.671942 
L 585.853577 187.671942 
L 592.106845 192.24 
L 587.731728 192.24 
L 586.667804 191.407842 
z
M 580.946498 190.56002 
L 585.571311 190.56002 
L 583.262523 188.742979 
L 580.946498 190.56002 
z
" clip-path="url(#p0c62122e53)" style="fill: #008000"/>
   </g>
   <g id="patch_108">
    <path d="M 592.106845 187.120869 
Q 590.321821 187.396406 588.401929 187.534803 
Q 586.482038 187.671942 584.435211 187.671942 
Q 579.810017 187.671942 577.108681 186.851623 
Q 574.407346 186.031304 574.407346 184.628458 
Q 574.407346 183.209255 577.156282 182.395227 
Q 579.909185 181.581199 584.697014 181.581199 
Q 586.541538 181.581199 588.23136 181.691917 
Q 589.925149 181.801376 591.424569 182.01778 
L 591.424569 183.231902 
Q 589.877549 182.953849 588.346395 182.81671 
Q 586.815242 182.678313 585.276155 182.678313 
Q 582.428051 182.678313 580.884997 183.184092 
Q 579.341944 183.688614 579.341944 184.628458 
Q 579.341944 185.559495 580.829463 186.067791 
Q 582.316983 186.574828 585.054019 186.574828 
Q 585.799762 186.574828 586.438404 186.545891 
Q 587.077045 186.515695 587.584785 186.452787 
L 587.584785 185.312896 
L 584.669247 185.312896 
L 584.669247 184.297562 
L 592.106845 184.297562 
L 592.106845 187.120869 
z
" clip-path="url(#p0c62122e53)" style="fill: #ffa600"/>
   </g>
   <g id="patch_109">
    <path d="M 574.407346 161.786282 
L 592.106845 161.786282 
L 592.106845 165.646843 
L 585.739141 165.646843 
L 585.739141 181.581199 
L 580.787398 181.581199 
L 580.787398 165.646843 
L 574.407346 165.646843 
L 574.407346 161.786282 
z
" clip-path="url(#p0c62122e53)" style="fill: #ff0000"/>
   </g>
   <g id="patch_110">
    <path d="M 592.106845 156.438167 
Q 590.626312 159.089106 589.025375 160.429988 
Q 587.424438 161.786282 585.680798 161.786282 
Q 580.481097 161.786282 577.444221 151.737373 
Q 574.407346 141.688464 574.407346 124.503597 
Q 574.407346 107.25708 577.444221 97.223583 
Q 580.481097 87.174674 585.680798 87.174674 
Q 587.424438 87.174674 589.025375 88.530968 
Q 590.626312 89.871851 592.106845 92.52279 
L 592.106845 107.395792 
Q 590.612934 103.881756 589.163617 102.248038 
Q 587.714301 100.614319 586.113364 100.614319 
Q 583.241487 100.614319 581.595955 106.979656 
Q 579.954883 113.32958 579.954883 124.503597 
Q 579.954883 135.631376 581.595955 141.996713 
Q 583.241487 148.346637 586.113364 148.346637 
Q 587.714301 148.346637 589.163617 146.712919 
Q 590.612934 145.063788 592.106845 141.549752 
L 592.106845 156.438167 
z
" clip-path="url(#p0c62122e53)" style="fill: #0000ff"/>
   </g>
   <g id="patch_111">
    <path d="M 610.737896 192.074734 
Q 609.257364 192.156652 607.656427 192.198088 
Q 606.055489 192.24 604.31185 192.24 
Q 599.112148 192.24 596.075273 191.929471 
Q 593.038397 191.618942 593.038397 191.087899 
Q 593.038397 190.554951 596.075273 190.244898 
Q 599.112148 189.934369 604.31185 189.934369 
Q 606.055489 189.934369 607.656427 189.976281 
Q 609.257364 190.017717 610.737896 190.099635 
L 610.737896 190.559237 
Q 609.243986 190.450647 607.794669 190.400163 
Q 606.345353 190.349678 604.744415 190.349678 
Q 601.872539 190.349678 600.227007 190.546378 
Q 598.585935 190.742602 598.585935 191.087899 
Q 598.585935 191.431767 600.227007 191.628467 
Q 601.872539 191.824691 604.744415 191.824691 
Q 606.345353 191.824691 607.794669 191.774206 
Q 609.243986 191.723245 610.737896 191.614655 
L 610.737896 192.074734 
z
" clip-path="url(#p0c62122e53)" style="fill: #0000ff"/>
   </g>
   <g id="patch_112">
    <path d="M 610.737896 189.482387 
Q 608.952873 189.708378 607.032981 189.82189 
Q 605.113089 189.934369 603.066262 189.934369 
Q 598.441068 189.934369 595.739733 189.261556 
Q 593.038397 188.588743 593.038397 187.43815 
Q 593.038397 186.274142 595.787333 185.606489 
Q 598.540236 184.938835 603.328066 184.938835 
Q 605.17259 184.938835 606.862412 185.029644 
Q 608.556201 185.119422 610.055621 185.296912 
L 610.055621 186.292717 
Q 608.508601 186.064662 606.977447 185.952183 
Q 605.446294 185.838671 603.907207 185.838671 
Q 601.059103 185.838671 599.516049 186.253504 
Q 597.972995 186.667304 597.972995 187.43815 
Q 597.972995 188.201772 599.460515 188.618669 
Q 600.948035 189.034533 603.685071 189.034533 
Q 604.430814 189.034533 605.069455 189.010799 
Q 605.708097 188.986033 606.215837 188.934437 
L 606.215837 187.999516 
L 603.300299 187.999516 
L 603.300299 187.166755 
L 610.737896 187.166755 
L 610.737896 189.482387 
z
" clip-path="url(#p0c62122e53)" style="fill: #ffa600"/>
   </g>
   <g id="patch_113">
    <path d="M 593.038397 176.869127 
L 610.737896 176.869127 
L 610.737896 178.442945 
L 604.370193 178.442945 
L 604.370193 184.938835 
L 599.418449 184.938835 
L 599.418449 178.442945 
L 593.038397 178.442945 
L 593.038397 176.869127 
z
" clip-path="url(#p0c62122e53)" style="fill: #ff0000"/>
   </g>
   <g id="patch_114">
    <path d="M 605.298856 174.839058 
L 598.491913 174.839058 
L 597.417133 176.869127 
L 593.038397 176.869127 
L 599.291665 165.725244 
L 604.484628 165.725244 
L 610.737896 176.869127 
L 606.36278 176.869127 
L 605.298856 174.839058 
z
M 599.57755 172.770777 
L 604.202363 172.770777 
L 601.893575 168.338062 
L 599.57755 172.770777 
z
" clip-path="url(#p0c62122e53)" style="fill: #008000"/>
   </g>
   <g id="patch_115">
    <path d="M 629.368948 191.870955 
Q 627.583925 192.055477 625.664033 192.14816 
Q 623.744141 192.24 621.697314 192.24 
Q 617.07212 192.24 614.370785 191.690645 
Q 611.669449 191.14129 611.669449 190.201826 
Q 611.669449 189.251409 614.418385 188.706267 
Q 617.171288 188.161125 621.959118 188.161125 
Q 623.803642 188.161125 625.493464 188.235271 
Q 627.187253 188.308575 628.686673 188.453496 
L 628.686673 189.266575 
Q 627.139652 189.080368 625.608499 188.988528 
Q 624.077345 188.895845 622.538259 188.895845 
Q 619.690154 188.895845 618.147101 189.234558 
Q 616.604047 189.572428 616.604047 190.201826 
Q 616.604047 190.825327 618.091567 191.165725 
Q 619.579086 191.50528 622.316122 191.50528 
Q 623.061865 191.50528 623.700507 191.485901 
Q 624.339149 191.465679 624.846889 191.423551 
L 624.846889 190.660184 
L 621.931351 190.660184 
L 621.931351 189.980231 
L 629.368948 189.980231 
L 629.368948 191.870955 
z
" clip-path="url(#p0c62122e53)" style="fill: #ffa600"/>
   </g>
   <g id="patch_116">
    <path d="M 611.669449 183.674363 
L 629.368948 183.674363 
L 629.368948 184.549406 
L 623.001245 184.549406 
L 623.001245 188.161125 
L 618.049501 188.161125 
L 618.049501 184.549406 
L 611.669449 184.549406 
L 611.669449 183.674363 
z
" clip-path="url(#p0c62122e53)" style="fill: #ff0000"/>
   </g>
   <g id="patch_117">
    <path d="M 623.929908 182.634101 
L 617.122965 182.634101 
L 616.048184 183.674363 
L 611.669449 183.674363 
L 617.922717 177.963938 
L 623.11568 177.963938 
L 629.368948 183.674363 
L 624.993832 183.674363 
L 623.929908 182.634101 
z
M 618.208602 181.574258 
L 622.833415 181.574258 
L 620.524627 179.302816 
L 618.208602 181.574258 
z
" clip-path="url(#p0c62122e53)" style="fill: #008000"/>
   </g>
   <g id="patch_118">
    <path d="M 629.368948 176.969876 
Q 627.888416 177.46261 626.287478 177.711842 
Q 624.686541 177.963938 622.942902 177.963938 
Q 617.7432 177.963938 614.706325 176.096132 
Q 611.669449 174.228326 611.669449 171.034148 
Q 611.669449 167.828511 614.706325 165.96357 
Q 617.7432 164.095764 622.942902 164.095764 
Q 624.686541 164.095764 626.287478 164.34786 
Q 627.888416 164.597092 629.368948 165.089826 
L 629.368948 167.854294 
Q 627.875037 167.201135 626.425721 166.897473 
Q 624.976404 166.593811 623.375467 166.593811 
Q 620.503591 166.593811 618.858059 167.776946 
Q 617.216987 168.957216 617.216987 171.034148 
Q 617.216987 173.102485 618.858059 174.28562 
Q 620.503591 175.465891 623.375467 175.465891 
Q 624.976404 175.465891 626.425721 175.162229 
Q 627.875037 174.855702 629.368948 174.202543 
L 629.368948 176.969876 
z
" clip-path="url(#p0c62122e53)" style="fill: #0000ff"/>
   </g>
   <g id="patch_119">
    <path d="M 630.300501 190.52262 
L 648 190.52262 
L 648 190.857557 
L 641.632296 190.857557 
L 641.632296 192.24 
L 636.680553 192.24 
L 636.680553 190.857557 
L 630.300501 190.857557 
L 630.300501 190.52262 
z
" clip-path="url(#p0c62122e53)" style="fill: #ff0000"/>
   </g>
   <g id="patch_120">
    <path d="M 648 189.968667 
Q 646.519467 190.243249 644.91853 190.382136 
Q 643.317593 190.52262 641.573954 190.52262 
Q 636.374252 190.52262 633.337376 189.481762 
Q 630.300501 188.440904 630.300501 186.66091 
Q 630.300501 184.87453 633.337376 183.835268 
Q 636.374252 182.794411 641.573954 182.794411 
Q 643.317593 182.794411 644.91853 182.934894 
Q 646.519467 183.073782 648 183.348364 
L 648 184.888897 
Q 646.506089 184.524916 645.056773 184.355697 
Q 643.607456 184.186478 642.006519 184.186478 
Q 639.134642 184.186478 637.489111 184.845794 
Q 635.848038 185.503514 635.848038 186.66091 
Q 635.848038 187.813516 637.489111 188.472833 
Q 639.134642 189.130553 642.006519 189.130553 
Q 643.607456 189.130553 645.056773 188.961333 
Q 646.506089 188.790518 648 188.426537 
L 648 189.968667 
z
" clip-path="url(#p0c62122e53)" style="fill: #0000ff"/>
   </g>
   <g id="patch_121">
    <path d="M 642.560959 178.883746 
L 635.754017 178.883746 
L 634.679236 182.794411 
L 630.300501 182.794411 
L 636.553769 161.327162 
L 641.746732 161.327162 
L 648 182.794411 
L 643.624884 182.794411 
L 642.560959 178.883746 
z
M 636.839653 174.899469 
L 641.464466 174.899469 
L 639.155679 166.360417 
L 636.839653 174.899469 
z
" clip-path="url(#p0c62122e53)" style="fill: #008000"/>
   </g>
   <g id="patch_122">
    <path d="M 648 158.763331 
Q 646.214977 160.045246 644.295085 160.689131 
Q 642.375193 161.327162 640.328366 161.327162 
Q 635.703172 161.327162 633.001836 157.510683 
Q 630.300501 153.694205 630.300501 147.167558 
Q 630.300501 140.564816 633.049437 136.777604 
Q 635.80234 132.990393 640.590169 132.990393 
Q 642.434694 132.990393 644.124516 133.505501 
Q 645.818305 134.014755 647.317724 135.021556 
L 647.317724 140.670179 
Q 645.770704 139.376556 644.239551 138.738525 
Q 642.708397 138.094641 641.16931 138.094641 
Q 638.321206 138.094641 636.778153 140.447746 
Q 635.235099 142.794997 635.235099 147.167558 
Q 635.235099 151.499144 636.722619 153.863956 
Q 638.210138 156.222914 640.947174 156.222914 
Q 641.692917 156.222914 642.331559 156.088284 
Q 642.970201 155.9478 643.477941 155.655125 
L 643.477941 150.351859 
L 640.562402 150.351859 
L 640.562402 145.628089 
L 648 145.628089 
L 648 158.763331 
z
" clip-path="url(#p0c62122e53)" style="fill: #ffa600"/>
   </g>
   <g id="matplotlib.axis_1">
    <g id="xtick_1">
     <g id="line2d_2">
      <defs>
       <path id="m6806a39ea3" d="M 0 0 
L 0 3.5 
" style="stroke: #000000; stroke-width: 0.8"/>
      </defs>
      <g>
       <use xlink:href="#m6806a39ea3" x="98.84975" y="192.24" style="stroke: #000000; stroke-width: 0.8"/>
      </g>
     </g>
     <g id="text_1">
      <!-- 0 -->
      <g transform="translate(95.6685 206.838437) scale(0.1 -0.1)">
       <defs>
        <path id="DejaVuSans-30" d="M 2034 4250 
Q 1547 4250 1301 3770 
Q 1056 3291 1056 2328 
Q 1056 1369 1301 889 
Q 1547 409 2034 409 
Q 2525 409 2770 889 
Q 3016 1369 3016 2328 
Q 3016 3291 2770 3770 
Q 2525 4250 2034 4250 
z
M 2034 4750 
Q 2819 4750 3233 4129 
Q 3647 3509 3647 2328 
Q 3647 1150 3233 529 
Q 2819 -91 2034 -91 
Q 1250 -91 836 529 
Q 422 1150 422 2328 
Q 422 3509 836 4129 
Q 1250 4750 2034 4750 
z
" transform="scale(0.015625)"/>
       </defs>
       <use xlink:href="#DejaVuSans-30"/>
      </g>
     </g>
    </g>
    <g id="xtick_2">
     <g id="line2d_3">
      <g>
       <use xlink:href="#m6806a39ea3" x="192.005008" y="192.24" style="stroke: #000000; stroke-width: 0.8"/>
      </g>
     </g>
     <g id="text_2">
      <!-- 5 -->
      <g transform="translate(188.823758 206.838437) scale(0.1 -0.1)">
       <defs>
        <path id="DejaVuSans-35" d="M 691 4666 
L 3169 4666 
L 3169 4134 
L 1269 4134 
L 1269 2991 
Q 1406 3038 1543 3061 
Q 1681 3084 1819 3084 
Q 2600 3084 3056 2656 
Q 3513 2228 3513 1497 
Q 3513 744 3044 326 
Q 2575 -91 1722 -91 
Q 1428 -91 1123 -41 
Q 819 9 494 109 
L 494 744 
Q 775 591 1075 516 
Q 1375 441 1709 441 
Q 2250 441 2565 725 
Q 2881 1009 2881 1497 
Q 2881 1984 2565 2268 
Q 2250 2553 1709 2553 
Q 1456 2553 1204 2497 
Q 953 2441 691 2322 
L 691 4666 
z
" transform="scale(0.015625)"/>
       </defs>
       <use xlink:href="#DejaVuSans-35"/>
      </g>
     </g>
    </g>
    <g id="xtick_3">
     <g id="line2d_4">
      <g>
       <use xlink:href="#m6806a39ea3" x="285.160267" y="192.24" style="stroke: #000000; stroke-width: 0.8"/>
      </g>
     </g>
     <g id="text_3">
      <!-- 10 -->
      <g transform="translate(278.797767 206.838437) scale(0.1 -0.1)">
       <defs>
        <path id="DejaVuSans-31" d="M 794 531 
L 1825 531 
L 1825 4091 
L 703 3866 
L 703 4441 
L 1819 4666 
L 2450 4666 
L 2450 531 
L 3481 531 
L 3481 0 
L 794 0 
L 794 531 
z
" transform="scale(0.015625)"/>
       </defs>
       <use xlink:href="#DejaVuSans-31"/>
       <use xlink:href="#DejaVuSans-30" x="63.623047"/>
      </g>
     </g>
    </g>
    <g id="xtick_4">
     <g id="line2d_5">
      <g>
       <use xlink:href="#m6806a39ea3" x="378.315526" y="192.24" style="stroke: #000000; stroke-width: 0.8"/>
      </g>
     </g>
     <g id="text_4">
      <!-- 15 -->
      <g transform="translate(371.953026 206.838437) scale(0.1 -0.1)">
       <use xlink:href="#DejaVuSans-31"/>
       <use xlink:href="#DejaVuSans-35" x="63.623047"/>
      </g>
     </g>
    </g>
    <g id="xtick_5">
     <g id="line2d_6">
      <g>
       <use xlink:href="#m6806a39ea3" x="471.470785" y="192.24" style="stroke: #000000; stroke-width: 0.8"/>
      </g>
     </g>
     <g id="text_5">
      <!-- 20 -->
      <g transform="translate(465.108285 206.838437) scale(0.1 -0.1)">
       <defs>
        <path id="DejaVuSans-32" d="M 1228 531 
L 3431 531 
L 3431 0 
L 469 0 
L 469 531 
Q 828 903 1448 1529 
Q 2069 2156 2228 2338 
Q 2531 2678 2651 2914 
Q 2772 3150 2772 3378 
Q 2772 3750 2511 3984 
Q 2250 4219 1831 4219 
Q 1534 4219 1204 4116 
Q 875 4013 500 3803 
L 500 4441 
Q 881 4594 1212 4672 
Q 1544 4750 1819 4750 
Q 2544 4750 2975 4387 
Q 3406 4025 3406 3419 
Q 3406 3131 3298 2873 
Q 3191 2616 2906 2266 
Q 2828 2175 2409 1742 
Q 1991 1309 1228 531 
z
" transform="scale(0.015625)"/>
       </defs>
       <use xlink:href="#DejaVuSans-32"/>
       <use xlink:href="#DejaVuSans-30" x="63.623047"/>
      </g>
     </g>
    </g>
    <g id="xtick_6">
     <g id="line2d_7">
      <g>
       <use xlink:href="#m6806a39ea3" x="564.626043" y="192.24" style="stroke: #000000; stroke-width: 0.8"/>
      </g>
     </g>
     <g id="text_6">
      <!-- 25 -->
      <g transform="translate(558.263543 206.838437) scale(0.1 -0.1)">
       <use xlink:href="#DejaVuSans-32"/>
       <use xlink:href="#DejaVuSans-35" x="63.623047"/>
      </g>
     </g>
    </g>
   </g>
   <g id="matplotlib.axis_2">
    <g id="ytick_1">
     <g id="line2d_8">
      <defs>
       <path id="m7b10fdb974" d="M 0 0 
L -3.5 0 
" style="stroke: #000000; stroke-width: 0.8"/>
      </defs>
      <g>
       <use xlink:href="#m7b10fdb974" x="90" y="192.24" style="stroke: #000000; stroke-width: 0.8"/>
      </g>
     </g>
     <g id="text_7">
      <!-- 0.0 -->
      <g transform="translate(67.096875 196.039219) scale(0.1 -0.1)">
       <defs>
        <path id="DejaVuSans-2e" d="M 684 794 
L 1344 794 
L 1344 0 
L 684 0 
L 684 794 
z
" transform="scale(0.015625)"/>
       </defs>
       <use xlink:href="#DejaVuSans-30"/>
       <use xlink:href="#DejaVuSans-2e" x="63.623047"/>
       <use xlink:href="#DejaVuSans-30" x="95.410156"/>
      </g>
     </g>
    </g>
    <g id="ytick_2">
     <g id="line2d_9">
      <g>
       <use xlink:href="#m7b10fdb974" x="90" y="164.61925" style="stroke: #000000; stroke-width: 0.8"/>
      </g>
     </g>
     <g id="text_8">
      <!-- 0.2 -->
      <g transform="translate(67.096875 168.418469) scale(0.1 -0.1)">
       <use xlink:href="#DejaVuSans-30"/>
       <use xlink:href="#DejaVuSans-2e" x="63.623047"/>
       <use xlink:href="#DejaVuSans-32" x="95.410156"/>
      </g>
     </g>
    </g>
    <g id="ytick_3">
     <g id="line2d_10">
      <g>
       <use xlink:href="#m7b10fdb974" x="90" y="136.998501" style="stroke: #000000; stroke-width: 0.8"/>
      </g>
     </g>
     <g id="text_9">
      <!-- 0.4 -->
      <g transform="translate(67.096875 140.797719) scale(0.1 -0.1)">
       <defs>
        <path id="DejaVuSans-34" d="M 2419 4116 
L 825 1625 
L 2419 1625 
L 2419 4116 
z
M 2253 4666 
L 3047 4666 
L 3047 1625 
L 3713 1625 
L 3713 1100 
L 3047 1100 
L 3047 0 
L 2419 0 
L 2419 1100 
L 313 1100 
L 313 1709 
L 2253 4666 
z
" transform="scale(0.015625)"/>
       </defs>
       <use xlink:href="#DejaVuSans-30"/>
       <use xlink:href="#DejaVuSans-2e" x="63.623047"/>
       <use xlink:href="#DejaVuSans-34" x="95.410156"/>
      </g>
     </g>
    </g>
    <g id="ytick_4">
     <g id="line2d_11">
      <g>
       <use xlink:href="#m7b10fdb974" x="90" y="109.377751" style="stroke: #000000; stroke-width: 0.8"/>
      </g>
     </g>
     <g id="text_10">
      <!-- 0.6 -->
      <g transform="translate(67.096875 113.17697) scale(0.1 -0.1)">
       <defs>
        <path id="DejaVuSans-36" d="M 2113 2584 
Q 1688 2584 1439 2293 
Q 1191 2003 1191 1497 
Q 1191 994 1439 701 
Q 1688 409 2113 409 
Q 2538 409 2786 701 
Q 3034 994 3034 1497 
Q 3034 2003 2786 2293 
Q 2538 2584 2113 2584 
z
M 3366 4563 
L 3366 3988 
Q 3128 4100 2886 4159 
Q 2644 4219 2406 4219 
Q 1781 4219 1451 3797 
Q 1122 3375 1075 2522 
Q 1259 2794 1537 2939 
Q 1816 3084 2150 3084 
Q 2853 3084 3261 2657 
Q 3669 2231 3669 1497 
Q 3669 778 3244 343 
Q 2819 -91 2113 -91 
Q 1303 -91 875 529 
Q 447 1150 447 2328 
Q 447 3434 972 4092 
Q 1497 4750 2381 4750 
Q 2619 4750 2861 4703 
Q 3103 4656 3366 4563 
z
" transform="scale(0.015625)"/>
       </defs>
       <use xlink:href="#DejaVuSans-30"/>
       <use xlink:href="#DejaVuSans-2e" x="63.623047"/>
       <use xlink:href="#DejaVuSans-36" x="95.410156"/>
      </g>
     </g>
    </g>
    <g id="ytick_5">
     <g id="line2d_12">
      <g>
       <use xlink:href="#m7b10fdb974" x="90" y="81.757001" style="stroke: #000000; stroke-width: 0.8"/>
      </g>
     </g>
     <g id="text_11">
      <!-- 0.8 -->
      <g transform="translate(67.096875 85.55622) scale(0.1 -0.1)">
       <defs>
        <path id="DejaVuSans-38" d="M 2034 2216 
Q 1584 2216 1326 1975 
Q 1069 1734 1069 1313 
Q 1069 891 1326 650 
Q 1584 409 2034 409 
Q 2484 409 2743 651 
Q 3003 894 3003 1313 
Q 3003 1734 2745 1975 
Q 2488 2216 2034 2216 
z
M 1403 2484 
Q 997 2584 770 2862 
Q 544 3141 544 3541 
Q 544 4100 942 4425 
Q 1341 4750 2034 4750 
Q 2731 4750 3128 4425 
Q 3525 4100 3525 3541 
Q 3525 3141 3298 2862 
Q 3072 2584 2669 2484 
Q 3125 2378 3379 2068 
Q 3634 1759 3634 1313 
Q 3634 634 3220 271 
Q 2806 -91 2034 -91 
Q 1263 -91 848 271 
Q 434 634 434 1313 
Q 434 1759 690 2068 
Q 947 2378 1403 2484 
z
M 1172 3481 
Q 1172 3119 1398 2916 
Q 1625 2713 2034 2713 
Q 2441 2713 2670 2916 
Q 2900 3119 2900 3481 
Q 2900 3844 2670 4047 
Q 2441 4250 2034 4250 
Q 1625 4250 1398 4047 
Q 1172 3844 1172 3481 
z
" transform="scale(0.015625)"/>
       </defs>
       <use xlink:href="#DejaVuSans-30"/>
       <use xlink:href="#DejaVuSans-2e" x="63.623047"/>
       <use xlink:href="#DejaVuSans-38" x="95.410156"/>
      </g>
     </g>
    </g>
    <g id="ytick_6">
     <g id="line2d_13">
      <g>
       <use xlink:href="#m7b10fdb974" x="90" y="54.136252" style="stroke: #000000; stroke-width: 0.8"/>
      </g>
     </g>
     <g id="text_12">
      <!-- 1.0 -->
      <g transform="translate(67.096875 57.935471) scale(0.1 -0.1)">
       <use xlink:href="#DejaVuSans-31"/>
       <use xlink:href="#DejaVuSans-2e" x="63.623047"/>
       <use xlink:href="#DejaVuSans-30" x="95.410156"/>
      </g>
     </g>
    </g>
    <g id="ytick_7">
     <g id="line2d_14">
      <g>
       <use xlink:href="#m7b10fdb974" x="90" y="26.515502" style="stroke: #000000; stroke-width: 0.8"/>
      </g>
     </g>
     <g id="text_13">
      <!-- 1.2 -->
      <g transform="translate(67.096875 30.314721) scale(0.1 -0.1)">
       <use xlink:href="#DejaVuSans-31"/>
       <use xlink:href="#DejaVuSans-2e" x="63.623047"/>
       <use xlink:href="#DejaVuSans-32" x="95.410156"/>
      </g>
     </g>
    </g>
   </g>
  </g>
 </g>
 <defs>
  <clipPath id="p0c62122e53">
   <rect x="90" y="25.92" width="558" height="166.32"/>
  </clipPath>
 </defs>
</svg>
