<?xml version="1.0" encoding="utf-8" standalone="no"?>
<!DOCTYPE svg PUBLIC "-//W3C//DTD SVG 1.1//EN"
  "http://www.w3.org/Graphics/SVG/1.1/DTD/svg11.dtd">
<svg xmlns:xlink="http://www.w3.org/1999/xlink" width="720pt" height="216pt" viewBox="0 0 720 216" xmlns="http://www.w3.org/2000/svg" version="1.1">
 <metadata>
  <rdf:RDF xmlns:dc="http://purl.org/dc/elements/1.1/" xmlns:cc="http://creativecommons.org/ns#" xmlns:rdf="http://www.w3.org/1999/02/22-rdf-syntax-ns#">
   <cc:Work>
    <dc:type rdf:resource="http://purl.org/dc/dcmitype/StillImage"/>
    <dc:date>2025-12-17T10:22:14.526378</dc:date>
    <dc:format>image/svg+xml</dc:format>
    <dc:creator>
     <cc:Agent>
      <dc:title>Matplotlib v3.8.2, https://matplotlib.org/</dc:title>
     </cc:Agent>
    </dc:creator>
   </cc:Work>
  </rdf:RDF>
 </metadata>
 <defs>
  <style type="text/css">*{stroke-linejoin: round; stroke-linecap: butt}</style>
 </defs>
 <g id="figure_1">
  <g id="patch_1">
   <path d="M 0 216 
L 720 216 
L 720 0 
L 0 0 
z
" style="fill: #ffffff"/>
  </g>
  <g id="axes_1">
   <g id="patch_2">
    <path d="M 90 192.24 
L 648 192.24 
L 648 25.92 
L 90 25.92 
z
" style="fill: #ffffff"/>
   </g>
   <g id="line2d_1">
    <path d="M 90 192.24 
L 648 192.24 
" clip-path="url(#pace4a29ed0)" style="fill: none; stroke: #000000; stroke-width: 0.5; stroke-linecap: square"/>
   </g>
   <g id="patch_3">
    <path d="M 108.966011 192.186667 
Q 107.379537 192.213103 105.664042 192.226475 
Q 103.948548 192.24 102.08014 192.24 
Q 96.508366 192.24 93.254183 192.139789 
Q 90 192.039578 90 191.868205 
Q 90 191.696217 93.254183 191.59616 
Q 96.508366 191.495949 102.08014 191.495949 
Q 103.948548 191.495949 105.664042 191.509474 
Q 107.379537 191.522846 108.966011 191.549282 
L 108.966011 191.6976 
Q 107.365201 191.662557 105.812177 191.646265 
Q 104.259152 191.629973 102.543658 191.629973 
Q 99.46628 191.629973 97.703001 191.69345 
Q 95.944499 191.756774 95.944499 191.868205 
Q 95.944499 191.979175 97.703001 192.042652 
Q 99.46628 192.105975 102.543658 192.105975 
Q 104.259152 192.105975 105.812177 192.089684 
Q 107.365201 192.073238 108.966011 192.038195 
L 108.966011 192.186667 
z
" clip-path="url(#pace4a29ed0)" style="fill: #0000ff"/>
   </g>
   <g id="patch_4">
    <path d="M 90 190.176834 
L 108.966011 190.176834 
L 108.966011 190.434098 
L 102.142658 190.434098 
L 102.142658 191.495949 
L 96.836585 191.495949 
L 96.836585 190.434098 
L 90 190.434098 
L 90 190.176834 
z
" clip-path="url(#pace4a29ed0)" style="fill: #ff0000"/>
   </g>
   <g id="patch_5">
    <path d="M 108.966011 190.050182 
Q 107.053258 190.113508 104.995985 190.145316 
Q 102.938713 190.176834 100.745422 190.176834 
Q 95.789266 190.176834 92.894633 189.988302 
Q 90 189.799769 90 189.477355 
Q 90 189.151182 92.94564 188.964096 
Q 95.89553 188.777009 101.02596 188.777009 
Q 103.002471 188.777009 104.813211 188.802455 
Q 106.628201 188.827612 108.234914 188.877348 
L 108.234914 189.156387 
Q 106.577195 189.092483 104.936477 189.060964 
Q 103.29576 189.029157 101.646542 189.029157 
Q 98.594638 189.029157 96.941169 189.145399 
Q 95.2877 189.261352 95.2877 189.477355 
Q 95.2877 189.691334 96.881661 189.808155 
Q 98.475622 189.924686 101.40851 189.924686 
Q 102.207616 189.924686 102.891957 189.918036 
Q 103.576297 189.911096 104.120369 189.896638 
L 104.120369 189.634658 
L 100.996206 189.634658 
L 100.996206 189.401306 
L 108.966011 189.401306 
L 108.966011 190.050182 
z
" clip-path="url(#pace4a29ed0)" style="fill: #ffa600"/>
   </g>
   <g id="patch_6">
    <path d="M 103.137772 188.512815 
L 95.843749 188.512815 
L 94.692062 188.777009 
L 90 188.777009 
L 96.700729 187.326739 
L 102.265282 187.326739 
L 108.966011 188.777009 
L 104.277827 188.777009 
L 103.137772 188.512815 
z
M 97.00707 188.243648 
L 101.962818 188.243648 
L 99.488822 187.666773 
L 97.00707 188.243648 
z
" clip-path="url(#pace4a29ed0)" style="fill: #008000"/>
   </g>
   <g id="patch_7">
    <path d="M 128.930233 192.108337 
Q 127.343758 192.1736 125.628264 192.20661 
Q 123.912769 192.24 122.044362 192.24 
Q 116.472588 192.24 113.218405 191.992611 
Q 109.964222 191.745222 109.964222 191.322156 
Q 109.964222 190.897573 113.218405 190.650563 
Q 116.472588 190.403174 122.044362 190.403174 
Q 123.912769 190.403174 125.628264 190.436564 
Q 127.343758 190.469574 128.930233 190.534836 
L 128.930233 190.900987 
Q 127.329423 190.814477 125.776399 190.774257 
Q 124.223374 190.734038 122.50788 190.734038 
Q 119.430502 190.734038 117.667222 190.890743 
Q 115.908721 191.047068 115.908721 191.322156 
Q 115.908721 191.596105 117.667222 191.75281 
Q 119.430502 191.909136 122.50788 191.909136 
Q 124.223374 191.909136 125.776399 191.868916 
Q 127.329423 191.828317 128.930233 191.741807 
L 128.930233 192.108337 
z
" clip-path="url(#pace4a29ed0)" style="fill: #0000ff"/>
   </g>
   <g id="patch_8">
    <path d="M 109.964222 187.540373 
L 128.930233 187.540373 
L 128.930233 188.098699 
L 122.106879 188.098699 
L 122.106879 190.403174 
L 116.800807 190.403174 
L 116.800807 188.098699 
L 109.964222 188.098699 
L 109.964222 187.540373 
z
" clip-path="url(#pace4a29ed0)" style="fill: #ff0000"/>
   </g>
   <g id="patch_9">
    <path d="M 123.101994 186.524477 
L 115.807971 186.524477 
L 114.656283 187.540373 
L 109.964222 187.540373 
L 116.664951 181.963702 
L 122.229503 181.963702 
L 128.930233 187.540373 
L 124.242049 187.540373 
L 123.101994 186.524477 
z
M 116.971292 185.489458 
L 121.92704 185.489458 
L 119.453044 183.27122 
L 116.971292 185.489458 
z
" clip-path="url(#pace4a29ed0)" style="fill: #008000"/>
   </g>
   <g id="patch_10">
    <path d="M 128.930233 181.435185 
Q 127.017479 181.699444 124.960207 181.832176 
Q 122.902935 181.963702 120.709644 181.963702 
Q 115.753488 181.963702 112.858855 181.17696 
Q 109.964222 180.390218 109.964222 179.044793 
Q 109.964222 177.683681 112.909862 176.902972 
Q 115.859752 176.122264 120.990181 176.122264 
Q 122.966693 176.122264 124.777433 176.22845 
Q 126.592423 176.333429 128.199136 176.540975 
L 128.199136 177.705401 
Q 126.541416 177.438729 124.900699 177.307203 
Q 123.259982 177.174471 121.610764 177.174471 
Q 118.55886 177.174471 116.905391 177.659548 
Q 115.251922 178.143418 115.251922 179.044793 
Q 115.251922 179.937721 116.845883 180.425211 
Q 118.439844 180.911495 121.372732 180.911495 
Q 122.171838 180.911495 122.856178 180.883742 
Q 123.540519 180.854782 124.084591 180.794449 
L 124.084591 179.701216 
L 120.960428 179.701216 
L 120.960428 178.727441 
L 128.930233 178.727441 
L 128.930233 181.435185 
z
" clip-path="url(#pace4a29ed0)" style="fill: #ffa600"/>
   </g>
   <g id="patch_11">
    <path d="M 148.894454 191.994923 
Q 147.30798 192.116402 145.592486 192.177848 
Q 143.876991 192.24 142.008584 192.24 
Q 136.43681 192.24 133.182627 191.779509 
Q 129.928444 191.319018 129.928444 190.531523 
Q 129.928444 189.741202 133.182627 189.281417 
Q 136.43681 188.820927 142.008584 188.820927 
Q 143.876991 188.820927 145.592486 188.883079 
Q 147.30798 188.944525 148.894454 189.066004 
L 148.894454 189.747558 
Q 147.293645 189.586528 145.74062 189.511663 
Q 144.187596 189.436798 142.472102 189.436798 
Q 139.394724 189.436798 137.631444 189.728489 
Q 135.872943 190.019474 135.872943 190.531523 
Q 135.872943 191.041453 137.631444 191.333144 
Q 139.394724 191.624129 142.472102 191.624129 
Q 144.187596 191.624129 145.74062 191.549264 
Q 147.293645 191.473692 148.894454 191.312662 
L 148.894454 191.994923 
z
" clip-path="url(#pace4a29ed0)" style="fill: #0000ff"/>
   </g>
   <g id="patch_12">
    <path d="M 148.894454 188.445182 
Q 146.981701 188.633054 144.924429 188.727419 
Q 142.867156 188.820927 140.673866 188.820927 
Q 135.71771 188.820927 132.823077 188.261599 
Q 129.928444 187.702271 129.928444 186.745752 
Q 129.928444 185.77808 132.874084 185.223042 
Q 135.823974 184.668003 140.954403 184.668003 
Q 142.930915 184.668003 144.741655 184.743495 
Q 146.556645 184.818129 148.163358 184.965682 
L 148.163358 185.793522 
Q 146.505638 185.603934 144.864921 185.510426 
Q 143.224204 185.416061 141.574985 185.416061 
Q 138.523081 185.416061 136.869613 185.760923 
Q 135.216144 186.104927 135.216144 186.745752 
Q 135.216144 187.380572 136.810105 187.727149 
Q 138.404066 188.072868 141.336954 188.072868 
Q 142.13606 188.072868 142.8204 188.053138 
Q 143.504741 188.032549 144.048813 187.989656 
L 144.048813 187.21243 
L 140.924649 187.21243 
L 140.924649 186.520133 
L 148.894454 186.520133 
L 148.894454 188.445182 
z
" clip-path="url(#pace4a29ed0)" style="fill: #ffa600"/>
   </g>
   <g id="patch_13">
    <path d="M 143.066216 183.157975 
L 135.772193 183.157975 
L 134.620505 184.668003 
L 129.928444 184.668003 
L 136.629173 176.378835 
L 142.193725 176.378835 
L 148.894454 184.668003 
L 144.206271 184.668003 
L 143.066216 183.157975 
z
M 136.935514 181.619522 
L 141.891262 181.619522 
L 139.417266 178.32233 
L 136.935514 181.619522 
z
" clip-path="url(#pace4a29ed0)" style="fill: #008000"/>
   </g>
   <g id="patch_14">
    <path d="M 129.928444 159.750463 
L 148.894454 159.750463 
L 148.894454 162.993459 
L 142.071101 162.993459 
L 142.071101 176.378835 
L 136.765029 176.378835 
L 136.765029 162.993459 
L 129.928444 162.993459 
L 129.928444 159.750463 
z
" clip-path="url(#pace4a29ed0)" style="fill: #ff0000"/>
   </g>
   <g id="patch_15">
    <path d="M 168.858676 191.805929 
Q 166.945923 192.022965 164.888651 192.131978 
Q 162.831378 192.24 160.638088 192.24 
Q 155.681932 192.24 152.787299 191.593849 
Q 149.892665 190.947698 149.892665 189.8427 
Q 149.892665 188.724818 152.838305 188.083622 
Q 155.788196 187.442426 160.918625 187.442426 
Q 162.895137 187.442426 164.705876 187.529637 
Q 166.520867 187.615856 168.127579 187.786313 
L 168.127579 188.742657 
Q 166.46986 188.523639 164.829143 188.415617 
Q 163.188426 188.306604 161.539207 188.306604 
Q 158.487303 188.306604 156.833834 188.704998 
Q 155.180365 189.102401 155.180365 189.8427 
Q 155.180365 190.576061 156.774326 190.976437 
Q 158.368287 191.375822 161.301176 191.375822 
Q 162.100282 191.375822 162.784622 191.353029 
Q 163.468963 191.329244 164.013035 191.279692 
L 164.013035 190.38182 
L 160.888871 190.38182 
L 160.888871 189.582059 
L 168.858676 189.582059 
L 168.858676 191.805929 
z
" clip-path="url(#pace4a29ed0)" style="fill: #ffa600"/>
   </g>
   <g id="patch_16">
    <path d="M 168.858676 187.010924 
Q 167.272202 187.22481 165.556708 187.332996 
Q 163.841213 187.442426 161.972805 187.442426 
Q 156.401032 187.442426 153.146849 186.63165 
Q 149.892665 185.820875 149.892665 184.434349 
Q 149.892665 183.042848 153.146849 182.233316 
Q 156.401032 181.42254 161.972805 181.42254 
Q 163.841213 181.42254 165.556708 181.53197 
Q 167.272202 181.640157 168.858676 181.854042 
L 168.858676 183.05404 
Q 167.257867 182.770517 165.704842 182.638704 
Q 164.151818 182.506891 162.436323 182.506891 
Q 159.358946 182.506891 157.595666 183.020465 
Q 155.837165 183.532796 155.837165 184.434349 
Q 155.837165 185.332171 157.595666 185.845745 
Q 159.358946 186.358076 162.436323 186.358076 
Q 164.151818 186.358076 165.704842 186.226262 
Q 167.257867 186.093206 168.858676 185.809683 
L 168.858676 187.010924 
z
" clip-path="url(#pace4a29ed0)" style="fill: #0000ff"/>
   </g>
   <g id="patch_17">
    <path d="M 163.030438 179.479769 
L 155.736415 179.479769 
L 154.584727 181.42254 
L 149.892665 181.42254 
L 156.593395 170.75787 
L 162.157947 170.75787 
L 168.858676 181.42254 
L 164.170492 181.42254 
L 163.030438 179.479769 
z
M 156.899736 177.500428 
L 161.855484 177.500428 
L 159.381487 173.258331 
L 156.899736 177.500428 
z
" clip-path="url(#pace4a29ed0)" style="fill: #008000"/>
   </g>
   <g id="patch_18">
    <path d="M 149.892665 132.713415 
L 168.858676 132.713415 
L 168.858676 140.133143 
L 162.035323 140.133143 
L 162.035323 170.75787 
L 156.729251 170.75787 
L 156.729251 140.133143 
L 149.892665 140.133143 
L 149.892665 132.713415 
z
" clip-path="url(#pace4a29ed0)" style="fill: #ff0000"/>
   </g>
   <g id="patch_19">
    <path d="M 188.822898 192.072792 
Q 187.236424 192.155673 185.520929 192.197596 
Q 183.805435 192.24 181.937027 192.24 
Q 176.365254 192.24 173.111071 191.925822 
Q 169.856887 191.611644 169.856887 191.074361 
Q 169.856887 190.535151 173.111071 190.221455 
Q 176.365254 189.907277 181.937027 189.907277 
Q 183.805435 189.907277 185.520929 189.949682 
Q 187.236424 189.991604 188.822898 190.074485 
L 188.822898 190.539488 
Q 187.222088 190.429622 185.669064 190.378544 
Q 184.11604 190.327466 182.400545 190.327466 
Q 179.323168 190.327466 177.559888 190.526477 
Q 175.801387 190.725007 175.801387 191.074361 
Q 175.801387 191.42227 177.559888 191.621282 
Q 179.323168 191.819811 182.400545 191.819811 
Q 184.11604 191.819811 185.669064 191.768733 
Q 187.222088 191.717173 188.822898 191.607307 
L 188.822898 192.072792 
z
" clip-path="url(#pace4a29ed0)" style="fill: #0000ff"/>
   </g>
   <g id="patch_20">
    <path d="M 188.822898 189.688521 
Q 186.910145 189.797899 184.852872 189.852838 
Q 182.7956 189.907277 180.60231 189.907277 
Q 175.646154 189.907277 172.75152 189.58164 
Q 169.856887 189.256003 169.856887 188.699123 
Q 169.856887 188.13575 172.802527 187.81261 
Q 175.752418 187.48947 180.882847 187.48947 
Q 182.859359 187.48947 184.670098 187.533421 
Q 186.485089 187.576873 188.091801 187.662777 
L 188.091801 188.14474 
Q 186.434082 188.034363 184.793365 187.979924 
Q 183.152647 187.924985 181.503429 187.924985 
Q 178.451525 187.924985 176.798056 188.125761 
Q 175.144587 188.326038 175.144587 188.699123 
Q 175.144587 189.068711 176.738548 189.270486 
Q 178.332509 189.471762 181.265398 189.471762 
Q 182.064503 189.471762 182.748844 189.460275 
Q 183.433185 189.448288 183.977257 189.423316 
L 183.977257 188.97082 
L 180.853093 188.97082 
L 180.853093 188.567769 
L 188.822898 188.567769 
L 188.822898 189.688521 
z
" clip-path="url(#pace4a29ed0)" style="fill: #ffa600"/>
   </g>
   <g id="patch_21">
    <path d="M 169.856887 184.39099 
L 188.822898 184.39099 
L 188.822898 184.99528 
L 181.999545 184.99528 
L 181.999545 187.48947 
L 176.693473 187.48947 
L 176.693473 184.99528 
L 169.856887 184.99528 
L 169.856887 184.39099 
z
" clip-path="url(#pace4a29ed0)" style="fill: #ff0000"/>
   </g>
   <g id="patch_22">
    <path d="M 182.99466 183.304721 
L 175.700637 183.304721 
L 174.548949 184.39099 
L 169.856887 184.39099 
L 176.557617 178.428012 
L 182.122169 178.428012 
L 188.822898 184.39099 
L 184.134714 184.39099 
L 182.99466 183.304721 
z
M 176.863958 182.198005 
L 181.819705 182.198005 
L 179.345709 179.826104 
L 176.863958 182.198005 
z
" clip-path="url(#pace4a29ed0)" style="fill: #008000"/>
   </g>
   <g id="patch_23">
    <path d="M 208.78712 191.789865 
Q 206.874367 192.014932 204.817094 192.12798 
Q 202.759822 192.24 200.566532 192.24 
Q 195.610376 192.24 192.715742 191.569935 
Q 189.821109 190.899871 189.821109 189.753978 
Q 189.821109 188.594726 192.766749 187.9298 
Q 195.71664 187.264874 200.847069 187.264874 
Q 202.82358 187.264874 204.63432 187.355312 
Q 206.44931 187.444722 208.056023 187.621488 
L 208.056023 188.613224 
Q 206.398304 188.386101 204.757586 188.274081 
Q 203.116869 188.161034 201.467651 188.161034 
Q 198.415747 188.161034 196.762278 188.574171 
Q 195.108809 188.986282 195.108809 189.753978 
Q 195.108809 190.514481 196.70277 190.929674 
Q 198.296731 191.34384 201.229619 191.34384 
Q 202.028725 191.34384 202.713066 191.320203 
Q 203.397406 191.295538 203.941478 191.244153 
L 203.941478 190.313051 
L 200.817315 190.313051 
L 200.817315 189.483692 
L 208.78712 189.483692 
L 208.78712 191.789865 
z
" clip-path="url(#pace4a29ed0)" style="fill: #ffa600"/>
   </g>
   <g id="patch_24">
    <path d="M 189.821109 178.878232 
L 208.78712 178.878232 
L 208.78712 180.513861 
L 201.963767 180.513861 
L 201.963767 187.264874 
L 196.657694 187.264874 
L 196.657694 180.513861 
L 189.821109 180.513861 
L 189.821109 178.878232 
z
" clip-path="url(#pace4a29ed0)" style="fill: #ff0000"/>
   </g>
   <g id="patch_25">
    <path d="M 208.78712 178.1684 
Q 207.200646 178.520248 205.485151 178.698217 
Q 203.769657 178.878232 201.901249 178.878232 
Q 196.329476 178.878232 193.075292 177.544484 
Q 189.821109 176.210737 189.821109 173.929865 
Q 189.821109 171.640811 193.075292 170.309109 
Q 196.329476 168.975361 201.901249 168.975361 
Q 203.769657 168.975361 205.485151 169.155376 
Q 207.200646 169.333346 208.78712 169.685193 
L 208.78712 171.659221 
Q 207.18631 171.192819 205.633286 170.975983 
Q 204.080262 170.759146 202.364767 170.759146 
Q 199.28739 170.759146 197.52411 171.603989 
Q 195.765608 172.446787 195.765608 173.929865 
Q 195.765608 175.406806 197.52411 176.251649 
Q 199.28739 177.094447 202.364767 177.094447 
Q 204.080262 177.094447 205.633286 176.877611 
Q 207.18631 176.658729 208.78712 176.192326 
L 208.78712 178.1684 
z
" clip-path="url(#pace4a29ed0)" style="fill: #0000ff"/>
   </g>
   <g id="patch_26">
    <path d="M 202.958881 156.399187 
L 195.664858 156.399187 
L 194.513171 168.975361 
L 189.821109 168.975361 
L 196.521838 99.93956 
L 202.086391 99.93956 
L 208.78712 168.975361 
L 204.098936 168.975361 
L 202.958881 156.399187 
z
M 196.82818 143.586284 
L 201.783927 143.586284 
L 199.309931 116.125837 
L 196.82818 143.586284 
z
" clip-path="url(#pace4a29ed0)" style="fill: #008000"/>
   </g>
   <g id="patch_27">
    <path d="M 228.751342 192.09111 
Q 227.164868 192.164911 225.449373 192.202241 
Q 223.733879 192.24 221.865471 192.24 
Q 216.293697 192.24 213.039514 191.960241 
Q 209.785331 191.680481 209.785331 191.202058 
Q 209.785331 190.721919 213.039514 190.442589 
Q 216.293697 190.162829 221.865471 190.162829 
Q 223.733879 190.162829 225.449373 190.200588 
Q 227.164868 190.237918 228.751342 190.31172 
L 228.751342 190.725781 
Q 227.150532 190.627951 225.597508 190.582469 
Q 224.044483 190.536986 222.328989 190.536986 
Q 219.251611 190.536986 217.488332 190.714196 
Q 215.72983 190.890976 215.72983 191.202058 
Q 215.72983 191.511853 217.488332 191.689063 
Q 219.251611 191.865843 222.328989 191.865843 
Q 224.044483 191.865843 225.597508 191.820361 
Q 227.150532 191.774449 228.751342 191.67662 
L 228.751342 192.09111 
z
" clip-path="url(#pace4a29ed0)" style="fill: #0000ff"/>
   </g>
   <g id="patch_28">
    <path d="M 228.751342 189.771718 
Q 226.838588 189.967274 224.781316 190.065498 
Q 222.724044 190.162829 220.530753 190.162829 
Q 215.574597 190.162829 212.679964 189.580628 
Q 209.785331 188.998426 209.785331 188.002789 
Q 209.785331 186.995544 212.730971 186.417806 
Q 215.680861 185.840069 220.811291 185.840069 
Q 222.787802 185.840069 224.598542 185.918649 
Q 226.413532 185.996335 228.020245 186.149922 
L 228.020245 187.011617 
Q 226.362525 186.814275 224.721808 186.716944 
Q 223.081091 186.61872 221.431873 186.61872 
Q 218.379969 186.61872 216.7265 186.977685 
Q 215.073031 187.335757 215.073031 188.002789 
Q 215.073031 188.66357 216.666992 189.024321 
Q 218.260953 189.384179 221.193841 189.384179 
Q 221.992947 189.384179 222.677288 189.363641 
Q 223.361628 189.34221 223.9057 189.297563 
L 223.9057 188.488552 
L 220.781537 188.488552 
L 220.781537 187.767943 
L 228.751342 187.767943 
L 228.751342 189.771718 
z
" clip-path="url(#pace4a29ed0)" style="fill: #ffa600"/>
   </g>
   <g id="patch_29">
    <path d="M 209.785331 175.734915 
L 228.751342 175.734915 
L 228.751342 177.705702 
L 221.927989 177.705702 
L 221.927989 185.840069 
L 216.621916 185.840069 
L 216.621916 177.705702 
L 209.785331 177.705702 
L 209.785331 175.734915 
z
" clip-path="url(#pace4a29ed0)" style="fill: #ff0000"/>
   </g>
   <g id="patch_30">
    <path d="M 222.923103 173.761121 
L 215.62908 173.761121 
L 214.477392 175.734915 
L 209.785331 175.734915 
L 216.48606 164.899945 
L 222.050612 164.899945 
L 228.751342 175.734915 
L 224.063158 175.734915 
L 222.923103 173.761121 
z
M 216.792401 171.750173 
L 221.748149 171.750173 
L 219.274153 167.440334 
L 216.792401 171.750173 
z
" clip-path="url(#pace4a29ed0)" style="fill: #008000"/>
   </g>
   <g id="patch_31">
    <path d="M 248.715564 192.150144 
Q 247.129089 192.194684 245.413595 192.217212 
Q 243.6981 192.24 241.829693 192.24 
Q 236.257919 192.24 233.003736 192.071164 
Q 229.749553 191.902327 229.749553 191.613597 
Q 229.749553 191.32383 233.003736 191.155253 
Q 236.257919 190.986417 241.829693 190.986417 
Q 243.6981 190.986417 245.413595 191.009204 
Q 247.129089 191.031733 248.715564 191.076273 
L 248.715564 191.326161 
Q 247.114754 191.26712 245.56173 191.239671 
Q 244.008705 191.212222 242.293211 191.212222 
Q 239.215833 191.212222 237.452553 191.319169 
Q 235.694052 191.425857 235.694052 191.613597 
Q 235.694052 191.80056 237.452553 191.907506 
Q 239.215833 192.014194 242.293211 192.014194 
Q 244.008705 192.014194 245.56173 191.986746 
Q 247.114754 191.959038 248.715564 191.899997 
L 248.715564 192.150144 
z
" clip-path="url(#pace4a29ed0)" style="fill: #0000ff"/>
   </g>
   <g id="patch_32">
    <path d="M 229.749553 187.696556 
L 248.715564 187.696556 
L 248.715564 188.33817 
L 241.89221 188.33817 
L 241.89221 190.986417 
L 236.586138 190.986417 
L 236.586138 188.33817 
L 229.749553 188.33817 
L 229.749553 187.696556 
z
" clip-path="url(#pace4a29ed0)" style="fill: #ff0000"/>
   </g>
   <g id="patch_33">
    <path d="M 242.887325 186.999872 
L 235.593302 186.999872 
L 234.441614 187.696556 
L 229.749553 187.696556 
L 236.450282 183.872172 
L 242.014834 183.872172 
L 248.715564 187.696556 
L 244.02738 187.696556 
L 242.887325 186.999872 
z
M 236.756623 186.290074 
L 241.712371 186.290074 
L 239.238375 184.768845 
L 236.756623 186.290074 
z
" clip-path="url(#pace4a29ed0)" style="fill: #008000"/>
   </g>
   <g id="patch_34">
    <path d="M 248.715564 183.507728 
Q 246.80281 183.68995 244.745538 183.781477 
Q 242.688266 183.872172 240.494975 183.872172 
Q 235.538819 183.872172 232.644186 183.329667 
Q 229.749553 182.787163 229.749553 181.859414 
Q 229.749553 180.920848 232.695193 180.382504 
Q 235.645083 179.84416 240.775512 179.84416 
Q 242.752024 179.84416 244.562764 179.917381 
Q 246.377754 179.989771 247.984467 180.132885 
L 247.984467 180.935825 
Q 246.326747 180.751939 244.68603 180.661245 
Q 243.045313 180.569718 241.396095 180.569718 
Q 238.344191 180.569718 236.690722 180.904207 
Q 235.037253 181.237864 235.037253 181.859414 
Q 235.037253 182.47514 236.631214 182.811293 
Q 238.225175 183.146614 241.158063 183.146614 
Q 241.957169 183.146614 242.641509 183.127476 
Q 243.32585 183.107507 243.869922 183.065904 
L 243.869922 182.312056 
L 240.745758 182.312056 
L 240.745758 181.640582 
L 248.715564 181.640582 
L 248.715564 183.507728 
z
" clip-path="url(#pace4a29ed0)" style="fill: #ffa600"/>
   </g>
   <g id="patch_35">
    <path d="M 268.679785 192.217807 
Q 266.767032 192.228904 264.70976 192.234477 
Q 262.652487 192.24 260.459197 192.24 
Q 255.503041 192.24 252.608408 192.206964 
Q 249.713775 192.173928 249.713775 192.117432 
Q 249.713775 192.060277 252.659415 192.027495 
Q 255.609305 191.994712 260.739734 191.994712 
Q 262.716246 191.994712 264.526986 191.999171 
Q 266.341976 192.003579 267.948689 192.012294 
L 267.948689 192.061189 
Q 266.290969 192.049992 264.650252 192.044469 
Q 263.009535 192.038895 261.360316 192.038895 
Q 258.308412 192.038895 256.654943 192.059264 
Q 255.001475 192.079582 255.001475 192.117432 
Q 255.001475 192.154927 256.595436 192.175397 
Q 258.189397 192.195817 261.122285 192.195817 
Q 261.921391 192.195817 262.605731 192.194651 
Q 263.290072 192.193435 263.834144 192.190902 
L 263.834144 192.144996 
L 260.70998 192.144996 
L 260.70998 192.104106 
L 268.679785 192.104106 
L 268.679785 192.217807 
z
" clip-path="url(#pace4a29ed0)" style="fill: #ffa600"/>
   </g>
   <g id="patch_36">
    <path d="M 249.713775 191.735539 
L 268.679785 191.735539 
L 268.679785 191.786085 
L 261.856432 191.786085 
L 261.856432 191.994712 
L 256.55036 191.994712 
L 256.55036 191.786085 
L 249.713775 191.786085 
L 249.713775 191.735539 
z
" clip-path="url(#pace4a29ed0)" style="fill: #ff0000"/>
   </g>
   <g id="patch_37">
    <path d="M 262.851547 191.682425 
L 255.557524 191.682425 
L 254.405836 191.735539 
L 249.713775 191.735539 
L 256.414504 191.44397 
L 261.979056 191.44397 
L 268.679785 191.735539 
L 263.991602 191.735539 
L 262.851547 191.682425 
z
M 256.720845 191.62831 
L 261.676593 191.62831 
L 259.202597 191.512332 
L 256.720845 191.62831 
z
" clip-path="url(#pace4a29ed0)" style="fill: #008000"/>
   </g>
   <g id="patch_38">
    <path d="M 268.679785 191.420251 
Q 267.093311 191.432008 265.377817 191.437955 
Q 263.662322 191.44397 261.793914 191.44397 
Q 256.222141 191.44397 252.967958 191.399403 
Q 249.713775 191.354835 249.713775 191.278619 
Q 249.713775 191.20213 252.967958 191.15763 
Q 256.222141 191.113063 261.793914 191.113063 
Q 263.662322 191.113063 265.377817 191.119078 
Q 267.093311 191.125025 268.679785 191.136782 
L 268.679785 191.202745 
Q 267.078976 191.18716 265.525951 191.179914 
Q 263.972927 191.172668 262.257432 191.172668 
Q 259.180055 191.172668 257.416775 191.200899 
Q 255.658274 191.229062 255.658274 191.278619 
Q 255.658274 191.327972 257.416775 191.356202 
Q 259.180055 191.384365 262.257432 191.384365 
Q 263.972927 191.384365 265.525951 191.377119 
Q 267.078976 191.369805 268.679785 191.35422 
L 268.679785 191.420251 
z
" clip-path="url(#pace4a29ed0)" style="fill: #0000ff"/>
   </g>
   <g id="patch_39">
    <path d="M 282.815769 191.471293 
L 275.521746 191.471293 
L 274.370058 192.24 
L 269.677996 192.24 
L 276.378726 188.02025 
L 281.943278 188.02025 
L 288.644007 192.24 
L 283.955823 192.24 
L 282.815769 191.471293 
z
M 276.685067 190.688116 
L 281.640814 190.688116 
L 279.166818 189.009621 
L 276.685067 190.688116 
z
" clip-path="url(#pace4a29ed0)" style="fill: #008000"/>
   </g>
   <g id="patch_40">
    <path d="M 288.644007 187.346501 
Q 286.731254 187.683375 284.673982 187.852582 
Q 282.616709 188.02025 280.423419 188.02025 
Q 275.467263 188.02025 272.57263 187.017317 
Q 269.677996 186.014385 269.677996 184.299248 
Q 269.677996 182.564114 272.623636 181.568873 
Q 275.573527 180.573632 280.703956 180.573632 
Q 282.680468 180.573632 284.491207 180.708997 
Q 286.306198 180.842824 287.91291 181.107401 
L 287.91291 182.591802 
Q 286.255191 182.251851 284.614474 182.084183 
Q 282.973757 181.914977 281.324538 181.914977 
Q 278.272634 181.914977 276.619165 182.533349 
Q 274.965696 183.150183 274.965696 184.299248 
Q 274.965696 185.437545 276.559657 186.058994 
Q 278.153618 186.678905 281.086507 186.678905 
Q 281.885612 186.678905 282.569953 186.643525 
Q 283.254294 186.606607 283.798366 186.529696 
L 283.798366 185.13605 
L 280.674202 185.13605 
L 280.674202 183.894691 
L 288.644007 183.894691 
L 288.644007 187.346501 
z
" clip-path="url(#pace4a29ed0)" style="fill: #ffa600"/>
   </g>
   <g id="patch_41">
    <path d="M 288.644007 179.844147 
Q 287.057533 180.205736 285.342039 180.388633 
Q 283.626544 180.573632 281.758136 180.573632 
Q 276.186363 180.573632 272.93218 179.202958 
Q 269.677996 177.832283 269.677996 175.488263 
Q 269.677996 173.135833 272.93218 171.767261 
Q 276.186363 170.396587 281.758136 170.396587 
Q 283.626544 170.396587 285.342039 170.581586 
Q 287.057533 170.764482 288.644007 171.126071 
L 288.644007 173.154753 
Q 287.043197 172.675438 285.490173 172.452598 
Q 283.937149 172.229758 282.221654 172.229758 
Q 279.144277 172.229758 277.380997 173.097992 
Q 275.622496 173.964123 275.622496 175.488263 
Q 275.622496 177.006095 277.380997 177.874329 
Q 279.144277 178.74046 282.221654 178.74046 
Q 283.937149 178.74046 285.490173 178.51762 
Q 287.043197 178.292679 288.644007 177.813363 
L 288.644007 179.844147 
z
" clip-path="url(#pace4a29ed0)" style="fill: #0000ff"/>
   </g>
   <g id="patch_42">
    <path d="M 269.677996 71.356566 
L 288.644007 71.356566 
L 288.644007 90.672129 
L 281.820654 90.672129 
L 281.820654 170.396587 
L 276.514582 170.396587 
L 276.514582 90.672129 
L 269.677996 90.672129 
L 269.677996 71.356566 
z
" clip-path="url(#pace4a29ed0)" style="fill: #ff0000"/>
   </g>
   <g id="patch_43">
    <path d="M 308.608229 192.016597 
Q 306.695476 192.128298 304.638203 192.184404 
Q 302.580931 192.24 300.387641 192.24 
Q 295.431485 192.24 292.536851 191.907446 
Q 289.642218 191.574891 289.642218 191.006182 
Q 289.642218 190.430843 292.587858 190.100839 
Q 295.537749 189.770835 300.668178 189.770835 
Q 302.64469 189.770835 304.455429 189.815719 
Q 306.270419 189.860094 307.877132 189.947823 
L 307.877132 190.440024 
Q 306.219413 190.327302 304.578696 190.271706 
Q 302.937978 190.215601 301.28876 190.215601 
Q 298.236856 190.215601 296.583387 190.420642 
Q 294.929918 190.625173 294.929918 191.006182 
Q 294.929918 191.383621 296.523879 191.589683 
Q 298.11784 191.795234 301.050729 191.795234 
Q 301.849834 191.795234 302.534175 191.783503 
Q 303.218515 191.771262 303.762588 191.745759 
L 303.762588 191.283651 
L 300.638424 191.283651 
L 300.638424 190.872039 
L 308.608229 190.872039 
L 308.608229 192.016597 
z
" clip-path="url(#pace4a29ed0)" style="fill: #ffa600"/>
   </g>
   <g id="patch_44">
    <path d="M 302.779991 188.477645 
L 295.485968 188.477645 
L 294.33428 189.770835 
L 289.642218 189.770835 
L 296.342947 182.671984 
L 301.9075 182.671984 
L 308.608229 189.770835 
L 303.920045 189.770835 
L 302.779991 188.477645 
z
M 296.649289 187.160113 
L 301.605036 187.160113 
L 299.13104 184.336396 
L 296.649289 187.160113 
z
" clip-path="url(#pace4a29ed0)" style="fill: #008000"/>
   </g>
   <g id="patch_45">
    <path d="M 308.608229 182.074649 
Q 307.021755 182.370735 305.30626 182.520499 
Q 303.590766 182.671984 301.722358 182.671984 
Q 296.150585 182.671984 292.896401 181.549613 
Q 289.642218 180.427242 289.642218 178.50785 
Q 289.642218 176.581572 292.896401 175.460923 
Q 296.150585 174.338551 301.722358 174.338551 
Q 303.590766 174.338551 305.30626 174.490037 
Q 307.021755 174.639801 308.608229 174.935887 
L 308.608229 176.597065 
Q 307.007419 176.204579 305.454395 176.022108 
Q 303.901371 175.839637 302.185876 175.839637 
Q 299.108499 175.839637 297.345219 176.550586 
Q 295.586717 177.259815 295.586717 178.50785 
Q 295.586717 179.750721 297.345219 180.461671 
Q 299.108499 181.170899 302.185876 181.170899 
Q 303.901371 181.170899 305.454395 180.988428 
Q 307.007419 180.804235 308.608229 180.411749 
L 308.608229 182.074649 
z
" clip-path="url(#pace4a29ed0)" style="fill: #0000ff"/>
   </g>
   <g id="patch_46">
    <path d="M 289.642218 41.929562 
L 308.608229 41.929562 
L 308.608229 67.753004 
L 301.784876 67.753004 
L 301.784876 174.338551 
L 296.478804 174.338551 
L 296.478804 67.753004 
L 289.642218 67.753004 
L 289.642218 41.929562 
z
" clip-path="url(#pace4a29ed0)" style="fill: #ff0000"/>
   </g>
   <g id="patch_47">
    <path d="M 322.744212 191.866715 
L 315.450189 191.866715 
L 314.298502 192.24 
L 309.60644 192.24 
L 316.307169 190.190883 
L 321.871722 190.190883 
L 328.572451 192.24 
L 323.884267 192.24 
L 322.744212 191.866715 
z
M 316.61351 191.486403 
L 321.569258 191.486403 
L 319.095262 190.671323 
L 316.61351 191.486403 
z
" clip-path="url(#pace4a29ed0)" style="fill: #008000"/>
   </g>
   <g id="patch_48">
    <path d="M 328.572451 189.912785 
Q 326.659698 190.051834 324.602425 190.121676 
Q 322.545153 190.190883 320.351863 190.190883 
Q 315.395706 190.190883 312.501073 189.776911 
Q 309.60644 189.36294 309.60644 188.654998 
Q 309.60644 187.938801 312.55208 187.528004 
Q 315.501971 187.117207 320.6324 187.117207 
Q 322.608911 187.117207 324.419651 187.173081 
Q 326.234641 187.228319 327.841354 187.337527 
L 327.841354 187.95023 
Q 326.183635 187.809911 324.542917 187.740704 
Q 322.9022 187.670863 321.252982 187.670863 
Q 318.201078 187.670863 316.547609 187.926103 
Q 314.89414 188.180708 314.89414 188.654998 
Q 314.89414 189.124843 316.488101 189.381353 
Q 318.082062 189.637228 321.01495 189.637228 
Q 321.814056 189.637228 322.498397 189.622624 
Q 323.182737 189.607386 323.726809 189.57564 
L 323.726809 189.000397 
L 320.602646 189.000397 
L 320.602646 188.488012 
L 328.572451 188.488012 
L 328.572451 189.912785 
z
" clip-path="url(#pace4a29ed0)" style="fill: #ffa600"/>
   </g>
   <g id="patch_49">
    <path d="M 328.572451 186.38281 
Q 326.985977 186.746834 325.270482 186.930963 
Q 323.554988 187.117207 321.68658 187.117207 
Q 316.114807 187.117207 312.860623 185.737302 
Q 309.60644 184.357397 309.60644 181.997589 
Q 309.60644 179.629316 312.860623 178.251527 
Q 316.114807 176.871622 321.68658 176.871622 
Q 323.554988 176.871622 325.270482 177.057867 
Q 326.985977 177.241996 328.572451 177.60602 
L 328.572451 179.648364 
Q 326.971641 179.165821 325.418617 178.94148 
Q 323.865593 178.71714 322.150098 178.71714 
Q 319.072721 178.71714 317.309441 179.591221 
Q 315.550939 180.463186 315.550939 181.997589 
Q 315.550939 183.525644 317.309441 184.399725 
Q 319.072721 185.27169 322.150098 185.27169 
Q 323.865593 185.27169 325.418617 185.047349 
Q 326.971641 184.820893 328.572451 184.338349 
L 328.572451 186.38281 
z
" clip-path="url(#pace4a29ed0)" style="fill: #0000ff"/>
   </g>
   <g id="patch_50">
    <path d="M 309.60644 25.92 
L 328.572451 25.92 
L 328.572451 55.359772 
L 321.749098 55.359772 
L 321.749098 176.871622 
L 316.443025 176.871622 
L 316.443025 55.359772 
L 309.60644 55.359772 
L 309.60644 25.92 
z
" clip-path="url(#pace4a29ed0)" style="fill: #ff0000"/>
   </g>
   <g id="patch_51">
    <path d="M 329.570662 189.617661 
L 348.536673 189.617661 
L 348.536673 190.12909 
L 341.713319 190.12909 
L 341.713319 192.24 
L 336.407247 192.24 
L 336.407247 190.12909 
L 329.570662 190.12909 
L 329.570662 189.617661 
z
" clip-path="url(#pace4a29ed0)" style="fill: #ff0000"/>
   </g>
   <g id="patch_52">
    <path d="M 348.536673 189.226886 
Q 346.950199 189.420584 345.234704 189.518559 
Q 343.519209 189.617661 341.650802 189.617661 
Q 336.079028 189.617661 332.824845 188.883409 
Q 329.570662 188.149157 329.570662 186.893497 
Q 329.570662 185.633332 332.824845 184.900207 
Q 336.079028 184.165955 341.650802 184.165955 
Q 343.519209 184.165955 345.234704 184.265057 
Q 346.950199 184.363032 348.536673 184.55673 
L 348.536673 185.643468 
Q 346.935863 185.386705 345.382839 185.267333 
Q 343.829814 185.14796 342.11432 185.14796 
Q 339.036942 185.14796 337.273662 185.613061 
Q 335.515161 186.077036 335.515161 186.893497 
Q 335.515161 187.706579 337.273662 188.171681 
Q 339.036942 188.635655 342.11432 188.635655 
Q 343.829814 188.635655 345.382839 188.516283 
Q 346.935863 188.395785 348.536673 188.139022 
L 348.536673 189.226886 
z
" clip-path="url(#pace4a29ed0)" style="fill: #0000ff"/>
   </g>
   <g id="patch_53">
    <path d="M 348.536673 183.40422 
Q 346.623919 183.785087 344.566647 183.976391 
Q 342.509375 184.165955 340.316084 184.165955 
Q 335.359928 184.165955 332.465295 183.032048 
Q 329.570662 181.89814 329.570662 179.959019 
Q 329.570662 177.99729 332.516302 176.872078 
Q 335.466192 175.746866 340.596622 175.746866 
Q 342.573133 175.746866 344.383873 175.899908 
Q 346.198863 176.051212 347.805576 176.350341 
L 347.805576 178.028594 
Q 346.147856 177.644248 344.507139 177.454683 
Q 342.866422 177.26338 341.217204 177.26338 
Q 338.1653 177.26338 336.511831 177.962507 
Q 334.858362 178.659895 334.858362 179.959019 
Q 334.858362 181.245969 336.452323 181.948575 
Q 338.046284 182.649441 340.979172 182.649441 
Q 341.778278 182.649441 342.462619 182.609441 
Q 343.146959 182.567702 343.691031 182.480746 
L 343.691031 180.905101 
L 340.566868 180.905101 
L 340.566868 179.50163 
L 348.536673 179.50163 
L 348.536673 183.40422 
z
" clip-path="url(#pace4a29ed0)" style="fill: #ffa600"/>
   </g>
   <g id="patch_54">
    <path d="M 342.708434 172.629188 
L 335.414411 172.629188 
L 334.262723 175.746866 
L 329.570662 175.746866 
L 336.271391 158.632651 
L 341.835943 158.632651 
L 348.536673 175.746866 
L 343.848489 175.746866 
L 342.708434 172.629188 
z
M 336.577732 169.452825 
L 341.53348 169.452825 
L 339.059484 162.645285 
L 336.577732 169.452825 
z
" clip-path="url(#pace4a29ed0)" style="fill: #008000"/>
   </g>
   <g id="patch_55">
    <path d="M 349.534884 186.72914 
L 368.500894 186.72914 
L 368.500894 187.803911 
L 361.677541 187.803911 
L 361.677541 192.24 
L 356.371469 192.24 
L 356.371469 187.803911 
L 349.534884 187.803911 
L 349.534884 186.72914 
z
" clip-path="url(#pace4a29ed0)" style="fill: #ff0000"/>
   </g>
   <g id="patch_56">
    <path d="M 368.500894 186.242968 
Q 366.91442 186.483952 365.198926 186.605846 
Q 363.483431 186.72914 361.615024 186.72914 
Q 356.04325 186.72914 352.789067 185.81564 
Q 349.534884 184.90214 349.534884 183.339943 
Q 349.534884 181.772142 352.789067 180.860043 
Q 356.04325 179.946543 361.615024 179.946543 
Q 363.483431 179.946543 365.198926 180.069838 
Q 366.91442 180.191731 368.500894 180.432716 
L 368.500894 181.784752 
Q 366.900085 181.465307 365.34706 181.316793 
Q 363.794036 181.168279 362.078542 181.168279 
Q 359.001164 181.168279 357.237884 181.746923 
Q 355.479383 182.324165 355.479383 183.339943 
Q 355.479383 184.351518 357.237884 184.930162 
Q 359.001164 185.507404 362.078542 185.507404 
Q 363.794036 185.507404 365.34706 185.35889 
Q 366.900085 185.208975 368.500894 184.889531 
L 368.500894 186.242968 
z
" clip-path="url(#pace4a29ed0)" style="fill: #0000ff"/>
   </g>
   <g id="patch_57">
    <path d="M 368.500894 179.051607 
Q 366.588141 179.499075 364.530869 179.723831 
Q 362.473597 179.946543 360.280306 179.946543 
Q 355.32415 179.946543 352.429517 178.614356 
Q 349.534884 177.282168 349.534884 175.003964 
Q 349.534884 172.699198 352.480524 171.377227 
Q 355.430414 170.055256 360.560843 170.055256 
Q 362.537355 170.055256 364.348095 170.23506 
Q 366.163085 170.412822 367.769798 170.764258 
L 367.769798 172.735977 
Q 366.112078 172.284422 364.471361 172.06171 
Q 362.830644 171.836954 361.181425 171.836954 
Q 358.129521 171.836954 356.476053 172.658334 
Q 354.822584 173.47767 354.822584 175.003964 
Q 354.822584 176.515956 356.416545 177.341422 
Q 358.010506 178.164845 360.943394 178.164845 
Q 361.7425 178.164845 362.42684 178.11785 
Q 363.111181 178.068813 363.655253 177.966651 
L 363.655253 176.115483 
L 360.531089 176.115483 
L 360.531089 174.466594 
L 368.500894 174.466594 
L 368.500894 179.051607 
z
" clip-path="url(#pace4a29ed0)" style="fill: #ffa600"/>
   </g>
   <g id="patch_58">
    <path d="M 362.672656 161.560657 
L 355.378633 161.560657 
L 354.226945 170.055256 
L 349.534884 170.055256 
L 356.235613 123.424902 
L 361.800165 123.424902 
L 368.500894 170.055256 
L 363.812711 170.055256 
L 362.672656 161.560657 
z
M 356.541954 152.906159 
L 361.497702 152.906159 
L 359.023706 134.357951 
L 356.541954 152.906159 
z
" clip-path="url(#pace4a29ed0)" style="fill: #008000"/>
   </g>
   <g id="patch_59">
    <path d="M 388.465116 191.731745 
Q 386.552363 191.985872 384.495091 192.113516 
Q 382.437818 192.24 380.244528 192.24 
Q 375.288372 192.24 372.393739 191.483419 
Q 369.499106 190.726838 369.499106 189.432991 
Q 369.499106 188.124059 372.444745 187.37328 
Q 375.394636 186.622501 380.525065 186.622501 
Q 382.501577 186.622501 384.312317 186.724616 
Q 386.127307 186.825571 387.734019 187.02516 
L 387.734019 188.144946 
Q 386.0763 187.888498 384.435583 187.762014 
Q 382.794866 187.63437 381.145647 187.63437 
Q 378.093743 187.63437 376.440274 188.100851 
Q 374.786806 188.566172 374.786806 189.432991 
Q 374.786806 190.291687 376.380767 190.760489 
Q 377.974728 191.228131 380.907616 191.228131 
Q 381.706722 191.228131 382.391062 191.201441 
Q 383.075403 191.173592 383.619475 191.115572 
L 383.619475 190.064249 
L 380.495311 190.064249 
L 380.495311 189.127806 
L 388.465116 189.127806 
L 388.465116 191.731745 
z
" clip-path="url(#pace4a29ed0)" style="fill: #ffa600"/>
   </g>
   <g id="patch_60">
    <path d="M 388.465116 186.155128 
Q 386.878642 186.386794 385.163148 186.503974 
Q 383.447653 186.622501 381.579245 186.622501 
Q 376.007472 186.622501 372.753289 185.744326 
Q 369.499106 184.866151 369.499106 183.364365 
Q 369.499106 181.857191 372.753289 180.980363 
Q 376.007472 180.102189 381.579245 180.102189 
Q 383.447653 180.102189 385.163148 180.220715 
Q 386.878642 180.337895 388.465116 180.569561 
L 388.465116 181.869313 
Q 386.864307 181.562221 385.311282 181.419451 
Q 383.758258 181.27668 382.042763 181.27668 
Q 378.965386 181.27668 377.202106 181.832947 
Q 375.443605 182.387867 375.443605 183.364365 
Q 375.443605 184.336822 377.202106 184.893089 
Q 378.965386 185.448009 382.042763 185.448009 
Q 383.758258 185.448009 385.311282 185.305239 
Q 386.864307 185.161121 388.465116 184.854029 
L 388.465116 186.155128 
z
" clip-path="url(#pace4a29ed0)" style="fill: #0000ff"/>
   </g>
   <g id="patch_61">
    <path d="M 382.636878 178.859569 
L 375.342855 178.859569 
L 374.191167 180.102189 
L 369.499106 180.102189 
L 376.199835 173.280939 
L 381.764387 173.280939 
L 388.465116 180.102189 
L 383.776932 180.102189 
L 382.636878 178.859569 
z
M 376.506176 177.593559 
L 381.461924 177.593559 
L 378.987928 174.880264 
L 376.506176 177.593559 
z
" clip-path="url(#pace4a29ed0)" style="fill: #008000"/>
   </g>
   <g id="patch_62">
    <path d="M 369.499106 143.387817 
L 388.465116 143.387817 
L 388.465116 149.217809 
L 381.641763 149.217809 
L 381.641763 173.280939 
L 376.335691 173.280939 
L 376.335691 149.217809 
L 369.499106 149.217809 
L 369.499106 143.387817 
z
" clip-path="url(#pace4a29ed0)" style="fill: #ff0000"/>
   </g>
   <g id="patch_63">
    <path d="M 408.429338 191.8266 
Q 406.516585 192.0333 404.459313 192.137122 
Q 402.40204 192.24 400.20875 192.24 
Q 395.252594 192.24 392.357961 191.624619 
Q 389.463327 191.009238 389.463327 189.956861 
Q 389.463327 188.892214 392.408967 188.281552 
Q 395.358858 187.67089 400.489287 187.67089 
Q 402.465799 187.67089 404.276538 187.753948 
Q 406.091529 187.836061 407.698241 187.998401 
L 407.698241 188.909203 
Q 406.040522 188.700615 404.399805 188.597737 
Q 402.759087 188.493915 401.109869 188.493915 
Q 398.057965 188.493915 396.404496 188.873337 
Q 394.751027 189.251815 394.751027 189.956861 
Q 394.751027 190.655299 396.344988 191.036609 
Q 397.938949 191.416975 400.871838 191.416975 
Q 401.670943 191.416975 402.355284 191.395267 
Q 403.039625 191.372615 403.583697 191.325423 
L 403.583697 190.470308 
L 400.459533 190.470308 
L 400.459533 189.708632 
L 408.429338 189.708632 
L 408.429338 191.8266 
z
" clip-path="url(#pace4a29ed0)" style="fill: #ffa600"/>
   </g>
   <g id="patch_64">
    <path d="M 402.6011 186.514849 
L 395.307077 186.514849 
L 394.155389 187.67089 
L 389.463327 187.67089 
L 396.164057 181.324904 
L 401.728609 181.324904 
L 408.429338 187.67089 
L 403.741154 187.67089 
L 402.6011 186.514849 
z
M 396.470398 185.337047 
L 401.426145 185.337047 
L 398.952149 182.812797 
L 396.470398 185.337047 
z
" clip-path="url(#pace4a29ed0)" style="fill: #008000"/>
   </g>
   <g id="patch_65">
    <path d="M 408.429338 180.560711 
Q 406.842864 180.939504 405.127369 181.131103 
Q 403.411875 181.324904 401.543467 181.324904 
Q 395.971694 181.324904 392.717511 179.889015 
Q 389.463327 178.453126 389.463327 175.997579 
Q 389.463327 173.533223 392.717511 172.099536 
Q 395.971694 170.663647 401.543467 170.663647 
Q 403.411875 170.663647 405.127369 170.857448 
Q 406.842864 171.049047 408.429338 171.42784 
L 408.429338 173.553044 
Q 406.828528 173.050923 405.275504 172.817481 
Q 403.72248 172.584039 402.006985 172.584039 
Q 398.929608 172.584039 397.166328 173.493582 
Q 395.407827 174.400923 395.407827 175.997579 
Q 395.407827 177.587628 397.166328 178.497171 
Q 398.929608 179.404512 402.006985 179.404512 
Q 403.72248 179.404512 405.275504 179.17107 
Q 406.828528 178.935426 408.429338 178.433305 
L 408.429338 180.560711 
z
" clip-path="url(#pace4a29ed0)" style="fill: #0000ff"/>
   </g>
   <g id="patch_66">
    <path d="M 389.463327 68.620191 
L 408.429338 68.620191 
L 408.429338 88.521508 
L 401.605985 88.521508 
L 401.605985 170.663647 
L 396.299913 170.663647 
L 396.299913 88.521508 
L 389.463327 88.521508 
L 389.463327 68.620191 
z
" clip-path="url(#pace4a29ed0)" style="fill: #ff0000"/>
   </g>
   <g id="patch_67">
    <path d="M 428.39356 192.116472 
Q 426.807086 192.177702 425.091591 192.208673 
Q 423.376097 192.24 421.507689 192.24 
Q 415.935916 192.24 412.681732 192.007896 
Q 409.427549 191.775792 409.427549 191.378866 
Q 409.427549 190.980516 412.681732 190.748768 
Q 415.935916 190.516664 421.507689 190.516664 
Q 423.376097 190.516664 425.091591 190.547991 
Q 426.807086 190.578962 428.39356 190.640191 
L 428.39356 190.983719 
Q 426.79275 190.902554 425.239726 190.86482 
Q 423.686702 190.827085 421.971207 190.827085 
Q 418.89383 190.827085 417.13055 190.974108 
Q 415.372048 191.120775 415.372048 191.378866 
Q 415.372048 191.635889 417.13055 191.782912 
Q 418.89383 191.929579 421.971207 191.929579 
Q 423.686702 191.929579 425.239726 191.891844 
Q 426.79275 191.853753 428.39356 191.772588 
L 428.39356 192.116472 
z
" clip-path="url(#pace4a29ed0)" style="fill: #0000ff"/>
   </g>
   <g id="patch_68">
    <path d="M 422.565322 190.03289 
L 415.271299 190.03289 
L 414.119611 190.516664 
L 409.427549 190.516664 
L 416.128278 187.861031 
L 421.692831 187.861031 
L 428.39356 190.516664 
L 423.705376 190.516664 
L 422.565322 190.03289 
z
M 416.43462 189.54001 
L 421.390367 189.54001 
L 418.916371 188.483676 
L 416.43462 189.54001 
z
" clip-path="url(#pace4a29ed0)" style="fill: #008000"/>
   </g>
   <g id="patch_69">
    <path d="M 428.39356 187.500619 
Q 426.480807 187.680825 424.423534 187.771339 
Q 422.366262 187.861031 420.172972 187.861031 
Q 415.216816 187.861031 412.322182 187.324528 
Q 409.427549 186.788025 409.427549 185.87054 
Q 409.427549 184.942358 412.373189 184.409969 
Q 415.32308 183.877581 420.453509 183.877581 
Q 422.43002 183.877581 424.24076 183.949992 
Q 426.05575 184.021581 427.662463 184.163112 
L 427.662463 184.957169 
Q 426.004744 184.775318 424.364026 184.685626 
Q 422.723309 184.595112 421.074091 184.595112 
Q 418.022187 184.595112 416.368718 184.925901 
Q 414.715249 185.255866 414.715249 185.87054 
Q 414.715249 186.479454 416.30921 186.811888 
Q 417.903171 187.1435 420.836059 187.1435 
Q 421.635165 187.1435 422.319506 187.124574 
Q 423.003846 187.104825 423.547918 187.063682 
L 423.547918 186.318174 
L 420.423755 186.318174 
L 420.423755 185.654129 
L 428.39356 185.654129 
L 428.39356 187.500619 
z
" clip-path="url(#pace4a29ed0)" style="fill: #ffa600"/>
   </g>
   <g id="patch_70">
    <path d="M 409.427549 178.481561 
L 428.39356 178.481561 
L 428.39356 179.533935 
L 421.570207 179.533935 
L 421.570207 183.877581 
L 416.264134 183.877581 
L 416.264134 179.533935 
L 409.427549 179.533935 
L 409.427549 178.481561 
z
" clip-path="url(#pace4a29ed0)" style="fill: #ff0000"/>
   </g>
   <g id="patch_71">
    <path d="M 448.357782 191.89917 
Q 446.771308 192.068112 445.055813 192.153565 
Q 443.340319 192.24 441.471911 192.24 
Q 435.900138 192.24 432.645954 191.599593 
Q 429.391771 190.959187 429.391771 189.864013 
Q 429.391771 188.76491 432.645954 188.125485 
Q 435.900138 187.485079 441.471911 187.485079 
Q 443.340319 187.485079 445.055813 187.571514 
Q 446.771308 187.656967 448.357782 187.825909 
L 448.357782 188.77375 
Q 446.756972 188.549804 445.203948 188.445689 
Q 443.650923 188.341573 441.935429 188.341573 
Q 438.858052 188.341573 437.094772 188.74723 
Q 435.33627 189.151904 435.33627 189.864013 
Q 435.33627 190.573175 437.094772 190.978831 
Q 438.858052 191.383505 441.935429 191.383505 
Q 443.650923 191.383505 445.203948 191.27939 
Q 446.756972 191.174293 448.357782 190.950347 
L 448.357782 191.89917 
z
" clip-path="url(#pace4a29ed0)" style="fill: #0000ff"/>
   </g>
   <g id="patch_72">
    <path d="M 429.391771 182.081759 
L 448.357782 182.081759 
L 448.357782 183.135557 
L 441.534429 183.135557 
L 441.534429 187.485079 
L 436.228356 187.485079 
L 436.228356 183.135557 
L 429.391771 183.135557 
L 429.391771 182.081759 
z
" clip-path="url(#pace4a29ed0)" style="fill: #ff0000"/>
   </g>
   <g id="patch_73">
    <path d="M 448.357782 181.152893 
Q 446.445029 181.617326 444.387756 181.850603 
Q 442.330484 182.081759 440.137194 182.081759 
Q 435.181037 182.081759 432.286404 180.699063 
Q 429.391771 179.316367 429.391771 176.951786 
Q 429.391771 174.559637 432.337411 173.187544 
Q 435.287301 171.815452 440.417731 171.815452 
Q 442.394242 171.815452 444.204982 172.002073 
Q 446.019972 172.186574 447.626685 172.551334 
L 447.626685 174.59781 
Q 445.968966 174.129135 444.328248 173.897979 
Q 442.687531 173.664702 441.038313 173.664702 
Q 437.986409 173.664702 436.33294 174.517223 
Q 434.679471 175.367624 434.679471 176.951786 
Q 434.679471 178.521104 436.273432 179.377867 
Q 437.867393 180.232509 440.800281 180.232509 
Q 441.599387 180.232509 442.283728 180.183733 
Q 442.968068 180.132836 443.51214 180.026801 
L 443.51214 178.105447 
L 440.387977 178.105447 
L 440.387977 176.394042 
L 448.357782 176.394042 
L 448.357782 181.152893 
z
" clip-path="url(#pace4a29ed0)" style="fill: #ffa600"/>
   </g>
   <g id="patch_74">
    <path d="M 442.529543 165.948924 
L 435.23552 165.948924 
L 434.083833 171.815452 
L 429.391771 171.815452 
L 436.0925 139.611666 
L 441.657053 139.611666 
L 448.357782 171.815452 
L 443.669598 171.815452 
L 442.529543 165.948924 
z
M 436.398841 159.971968 
L 441.354589 159.971968 
L 438.880593 147.162232 
L 436.398841 159.971968 
z
" clip-path="url(#pace4a29ed0)" style="fill: #008000"/>
   </g>
   <g id="patch_75">
    <path d="M 468.322004 191.723483 
Q 466.73553 191.979509 465.020035 192.10901 
Q 463.30454 192.24 461.436133 192.24 
Q 455.864359 192.24 452.610176 191.269484 
Q 449.355993 190.298968 449.355993 188.639267 
Q 449.355993 186.973611 452.610176 186.004584 
Q 455.864359 185.034068 461.436133 185.034068 
Q 463.30454 185.034068 465.020035 185.165058 
Q 466.73553 185.294559 468.322004 185.550585 
L 468.322004 186.987008 
Q 466.721194 186.647625 465.16817 186.489842 
Q 463.615145 186.332059 461.899651 186.332059 
Q 458.822273 186.332059 457.058993 186.946818 
Q 455.300492 187.560089 455.300492 188.639267 
Q 455.300492 189.713979 457.058993 190.328739 
Q 458.822273 190.942009 461.899651 190.942009 
Q 463.615145 190.942009 465.16817 190.784226 
Q 466.721194 190.624954 468.322004 190.285571 
L 468.322004 191.723483 
z
" clip-path="url(#pace4a29ed0)" style="fill: #0000ff"/>
   </g>
   <g id="patch_76">
    <path d="M 462.493765 183.684908 
L 455.199742 183.684908 
L 454.048054 185.034068 
L 449.355993 185.034068 
L 456.056722 177.627971 
L 461.621274 177.627971 
L 468.322004 185.034068 
L 463.63382 185.034068 
L 462.493765 183.684908 
z
M 456.363063 182.310351 
L 461.318811 182.310351 
L 458.844815 179.36442 
L 456.363063 182.310351 
z
" clip-path="url(#pace4a29ed0)" style="fill: #008000"/>
   </g>
   <g id="patch_77">
    <path d="M 468.322004 176.885447 
Q 466.40925 177.256709 464.351978 177.443188 
Q 462.294706 177.627971 460.101415 177.627971 
Q 455.145259 177.627971 452.250626 176.522661 
Q 449.355993 175.417351 449.355993 173.527136 
Q 449.355993 171.614882 452.301633 170.518049 
Q 455.251523 169.421215 460.381952 169.421215 
Q 462.358464 169.421215 464.169204 169.570398 
Q 465.984194 169.717886 467.590907 170.00947 
L 467.590907 171.645397 
Q 465.933187 171.270744 464.29247 171.085961 
Q 462.651753 170.899482 461.002535 170.899482 
Q 457.950631 170.899482 456.297162 171.580977 
Q 454.643693 172.260776 454.643693 173.527136 
Q 454.643693 174.781629 456.237654 175.466514 
Q 457.831615 176.149704 460.764503 176.149704 
Q 461.563609 176.149704 462.247949 176.110713 
Q 462.93229 176.070027 463.476362 175.985264 
L 463.476362 174.449358 
L 460.352199 174.449358 
L 460.352199 173.081282 
L 468.322004 173.081282 
L 468.322004 176.885447 
z
" clip-path="url(#pace4a29ed0)" style="fill: #ffa600"/>
   </g>
   <g id="patch_78">
    <path d="M 449.355993 94.759752 
L 468.322004 94.759752 
L 468.322004 109.320818 
L 461.49865 109.320818 
L 461.49865 169.421215 
L 456.192578 169.421215 
L 456.192578 109.320818 
L 449.355993 109.320818 
L 449.355993 94.759752 
z
" clip-path="url(#pace4a29ed0)" style="fill: #ff0000"/>
   </g>
   <g id="patch_79">
    <path d="M 488.286225 191.827426 
Q 486.699751 192.03193 484.984257 192.13537 
Q 483.268762 192.24 481.400355 192.24 
Q 475.828581 192.24 472.574398 191.464789 
Q 469.320215 190.689578 469.320215 189.363872 
Q 469.320215 188.03341 472.574398 187.259388 
Q 475.828581 186.484177 481.400355 186.484177 
Q 483.268762 186.484177 484.984257 186.588806 
Q 486.699751 186.692247 488.286225 186.896751 
L 488.286225 188.044111 
Q 486.685416 187.773024 485.132391 187.646993 
Q 483.579367 187.520962 481.863873 187.520962 
Q 478.786495 187.520962 477.023215 188.012008 
Q 475.264714 188.501866 475.264714 189.363872 
Q 475.264714 190.222311 477.023215 190.713357 
Q 478.786495 191.203215 481.863873 191.203215 
Q 483.579367 191.203215 485.132391 191.077183 
Q 486.685416 190.949963 488.286225 190.678877 
L 488.286225 191.827426 
z
" clip-path="url(#pace4a29ed0)" style="fill: #0000ff"/>
   </g>
   <g id="patch_80">
    <path d="M 482.457987 185.153348 
L 475.163964 185.153348 
L 474.012276 186.484177 
L 469.320215 186.484177 
L 476.020944 179.178708 
L 481.585496 179.178708 
L 488.286225 186.484177 
L 483.598042 186.484177 
L 482.457987 185.153348 
z
M 476.327285 183.797468 
L 481.283033 183.797468 
L 478.809037 180.891564 
L 476.327285 183.797468 
z
" clip-path="url(#pace4a29ed0)" style="fill: #008000"/>
   </g>
   <g id="patch_81">
    <path d="M 488.286225 178.317434 
Q 486.373472 178.748071 484.3162 178.964373 
Q 482.258928 179.178708 480.065637 179.178708 
Q 475.109481 179.178708 472.214848 177.896629 
Q 469.320215 176.614549 469.320215 174.422035 
Q 469.320215 172.203958 472.265855 170.93171 
Q 475.215745 169.659462 480.346174 169.659462 
Q 482.322686 169.659462 484.133426 169.832503 
Q 485.948416 170.003578 487.555129 170.341796 
L 487.555129 172.239353 
Q 485.897409 171.804783 484.256692 171.590447 
Q 482.615975 171.374145 480.966756 171.374145 
Q 477.914852 171.374145 476.261384 172.16463 
Q 474.607915 172.953149 474.607915 174.422035 
Q 474.607915 175.877156 476.201876 176.671574 
Q 477.795837 177.464025 480.728725 177.464025 
Q 481.527831 177.464025 482.212171 177.418798 
Q 482.896512 177.371605 483.440584 177.273286 
L 483.440584 175.491746 
L 480.31642 175.491746 
L 480.31642 173.904877 
L 488.286225 173.904877 
L 488.286225 178.317434 
z
" clip-path="url(#pace4a29ed0)" style="fill: #ffa600"/>
   </g>
   <g id="patch_82">
    <path d="M 469.320215 84.429 
L 488.286225 84.429 
L 488.286225 101.051315 
L 481.462872 101.051315 
L 481.462872 169.659462 
L 476.1568 169.659462 
L 476.1568 101.051315 
L 469.320215 101.051315 
L 469.320215 84.429 
z
" clip-path="url(#pace4a29ed0)" style="fill: #ff0000"/>
   </g>
   <g id="patch_83">
    <path d="M 508.250447 192.004326 
Q 506.337694 192.122163 504.280422 192.181351 
Q 502.223149 192.24 500.029859 192.24 
Q 495.073703 192.24 492.17907 191.88918 
Q 489.284436 191.538359 489.284436 190.938413 
Q 489.284436 190.331472 492.230076 189.983342 
Q 495.179967 189.635212 500.310396 189.635212 
Q 502.286908 189.635212 504.097647 189.682562 
Q 505.912638 189.729374 507.51935 189.821922 
L 507.51935 190.341158 
Q 505.861631 190.222245 504.220914 190.163595 
Q 502.580197 190.104408 500.930978 190.104408 
Q 497.879074 190.104408 496.225605 190.320711 
Q 494.572136 190.536476 494.572136 190.938413 
Q 494.572136 191.336584 496.166097 191.553963 
Q 497.760059 191.770805 500.692947 191.770805 
Q 501.492053 191.770805 502.176393 191.758429 
Q 502.860734 191.745515 503.404806 191.718612 
L 503.404806 191.231122 
L 500.280642 191.231122 
L 500.280642 190.796901 
L 508.250447 190.796901 
L 508.250447 192.004326 
z
" clip-path="url(#pace4a29ed0)" style="fill: #ffa600"/>
   </g>
   <g id="patch_84">
    <path d="M 508.250447 189.401825 
Q 506.663973 189.51751 504.948479 189.576025 
Q 503.232984 189.635212 501.364576 189.635212 
Q 495.792803 189.635212 492.53862 189.196687 
Q 489.284436 188.758161 489.284436 188.008229 
Q 489.284436 187.255606 492.53862 186.817753 
Q 495.792803 186.379228 501.364576 186.379228 
Q 503.232984 186.379228 504.948479 186.438415 
Q 506.663973 186.49693 508.250447 186.612615 
L 508.250447 187.26166 
Q 506.649638 187.10831 505.096613 187.037016 
Q 503.543589 186.965722 501.828094 186.965722 
Q 498.750717 186.965722 496.987437 187.2435 
Q 495.228936 187.520605 495.228936 188.008229 
Q 495.228936 188.493835 496.987437 188.771613 
Q 498.750717 189.048718 501.828094 189.048718 
Q 503.543589 189.048718 505.096613 188.977424 
Q 506.649638 188.905458 508.250447 188.752108 
L 508.250447 189.401825 
z
" clip-path="url(#pace4a29ed0)" style="fill: #0000ff"/>
   </g>
   <g id="patch_85">
    <path d="M 489.284436 177.96376 
L 508.250447 177.96376 
L 508.250447 179.605011 
L 501.427094 179.605011 
L 501.427094 186.379228 
L 496.121022 186.379228 
L 496.121022 179.605011 
L 489.284436 179.605011 
L 489.284436 177.96376 
z
" clip-path="url(#pace4a29ed0)" style="fill: #ff0000"/>
   </g>
   <g id="patch_86">
    <path d="M 502.422209 176.120466 
L 495.128186 176.120466 
L 493.976498 177.96376 
L 489.284436 177.96376 
L 495.985166 167.845162 
L 501.549718 167.845162 
L 508.250447 177.96376 
L 503.562263 177.96376 
L 502.422209 176.120466 
z
M 496.291507 174.242475 
L 501.247255 174.242475 
L 498.773258 170.217589 
L 496.291507 174.242475 
z
" clip-path="url(#pace4a29ed0)" style="fill: #008000"/>
   </g>
   <g id="patch_87">
    <path d="M 528.214669 191.983768 
Q 526.301916 192.111884 524.244643 192.176234 
Q 522.187371 192.24 519.994081 192.24 
Q 515.037925 192.24 512.143292 191.858577 
Q 509.248658 191.477154 509.248658 190.824873 
Q 509.248658 190.164988 512.194298 189.78649 
Q 515.144189 189.407991 520.274618 189.407991 
Q 522.25113 189.407991 524.061869 189.459472 
Q 525.87686 189.510367 527.483572 189.610988 
L 527.483572 190.175518 
Q 525.825853 190.046232 524.185136 189.982466 
Q 522.544418 189.918116 520.8952 189.918116 
Q 517.843296 189.918116 516.189827 190.153288 
Q 514.536358 190.387875 514.536358 190.824873 
Q 514.536358 191.257777 516.130319 191.494119 
Q 517.72428 191.729876 520.657169 191.729876 
Q 521.456274 191.729876 522.140615 191.716421 
Q 522.824956 191.702381 523.369028 191.67313 
L 523.369028 191.143116 
L 520.244864 191.143116 
L 520.244864 190.671017 
L 528.214669 190.671017 
L 528.214669 191.983768 
z
" clip-path="url(#pace4a29ed0)" style="fill: #ffa600"/>
   </g>
   <g id="patch_88">
    <path d="M 528.214669 189.163707 
Q 526.628195 189.284793 524.9127 189.34604 
Q 523.197206 189.407991 521.328798 189.407991 
Q 515.757025 189.407991 512.502842 188.948991 
Q 509.248658 188.48999 509.248658 187.705042 
Q 509.248658 186.917279 512.502842 186.458982 
Q 515.757025 185.999981 521.328798 185.999981 
Q 523.197206 185.999981 524.9127 186.061932 
Q 526.628195 186.123179 528.214669 186.244265 
L 528.214669 186.923615 
Q 526.613859 186.763105 525.060835 186.688482 
Q 523.507811 186.613859 521.792316 186.613859 
Q 518.714939 186.613859 516.951659 186.904607 
Q 515.193158 187.19465 515.193158 187.705042 
Q 515.193158 188.213322 516.951659 188.50407 
Q 518.714939 188.794113 521.792316 188.794113 
Q 523.507811 188.794113 525.060835 188.71949 
Q 526.613859 188.644163 528.214669 188.483654 
L 528.214669 189.163707 
z
" clip-path="url(#pace4a29ed0)" style="fill: #0000ff"/>
   </g>
   <g id="patch_89">
    <path d="M 522.386431 184.8545 
L 515.092408 184.8545 
L 513.94072 185.999981 
L 509.248658 185.999981 
L 515.949388 179.711962 
L 521.51394 179.711962 
L 528.214669 185.999981 
L 523.526485 185.999981 
L 522.386431 184.8545 
z
M 516.255729 183.687456 
L 521.211476 183.687456 
L 518.73748 181.186264 
L 516.255729 183.687456 
z
" clip-path="url(#pace4a29ed0)" style="fill: #008000"/>
   </g>
   <g id="patch_90">
    <path d="M 509.248658 168.863929 
L 528.214669 168.863929 
L 528.214669 170.979598 
L 521.391316 170.979598 
L 521.391316 179.711962 
L 516.085244 179.711962 
L 516.085244 170.979598 
L 509.248658 170.979598 
L 509.248658 168.863929 
z
" clip-path="url(#pace4a29ed0)" style="fill: #ff0000"/>
   </g>
   <g id="patch_91">
    <path d="M 542.350652 191.774699 
L 535.05663 191.774699 
L 533.904942 192.24 
L 529.21288 192.24 
L 535.913609 189.685773 
L 541.478162 189.685773 
L 548.178891 192.24 
L 543.490707 192.24 
L 542.350652 191.774699 
z
M 536.219951 191.30064 
L 541.175698 191.30064 
L 538.701702 190.284643 
L 536.219951 191.30064 
z
" clip-path="url(#pace4a29ed0)" style="fill: #008000"/>
   </g>
   <g id="patch_92">
    <path d="M 548.178891 189.428009 
Q 546.266138 189.556891 544.208865 189.621626 
Q 542.151593 189.685773 539.958303 189.685773 
Q 535.002147 189.685773 532.107513 189.302069 
Q 529.21288 188.918365 529.21288 188.262183 
Q 529.21288 187.598352 532.15852 187.21759 
Q 535.108411 186.836828 540.23884 186.836828 
Q 542.215351 186.836828 544.026091 186.888616 
Q 545.841081 186.939816 547.447794 187.041039 
L 547.447794 187.608945 
Q 545.790075 187.478885 544.149357 187.414739 
Q 542.50864 187.350003 540.859422 187.350003 
Q 537.807518 187.350003 536.154049 187.586582 
Q 534.50058 187.822571 534.50058 188.262183 
Q 534.50058 188.697676 536.094541 188.935431 
Q 537.688502 189.172598 540.62139 189.172598 
Q 541.420496 189.172598 542.104837 189.159063 
Q 542.789177 189.144939 543.333249 189.115513 
L 543.333249 188.582329 
L 540.209086 188.582329 
L 540.209086 188.107407 
L 548.178891 188.107407 
L 548.178891 189.428009 
z
" clip-path="url(#pace4a29ed0)" style="fill: #ffa600"/>
   </g>
   <g id="patch_93">
    <path d="M 548.178891 186.592714 
Q 546.592417 186.713716 544.876922 186.77492 
Q 543.161428 186.836828 541.29302 186.836828 
Q 535.721247 186.836828 532.467063 186.378147 
Q 529.21288 185.919466 529.21288 185.135066 
Q 529.21288 184.347851 532.467063 183.889873 
Q 535.721247 183.431193 541.29302 183.431193 
Q 543.161428 183.431193 544.876922 183.4931 
Q 546.592417 183.554305 548.178891 183.675306 
L 548.178891 184.354182 
Q 546.578081 184.193785 545.025057 184.119214 
Q 543.472033 184.044643 541.756538 184.044643 
Q 538.679161 184.044643 536.915881 184.335188 
Q 535.157379 184.625029 535.157379 185.135066 
Q 535.157379 185.642991 536.915881 185.933536 
Q 538.679161 186.223378 541.756538 186.223378 
Q 543.472033 186.223378 545.025057 186.148807 
Q 546.578081 186.073532 548.178891 185.913135 
L 548.178891 186.592714 
z
" clip-path="url(#pace4a29ed0)" style="fill: #0000ff"/>
   </g>
   <g id="patch_94">
    <path d="M 529.21288 176.292456 
L 548.178891 176.292456 
L 548.178891 177.684709 
L 541.355538 177.684709 
L 541.355538 183.431193 
L 536.049465 183.431193 
L 536.049465 177.684709 
L 529.21288 177.684709 
L 529.21288 176.292456 
z
" clip-path="url(#pace4a29ed0)" style="fill: #ff0000"/>
   </g>
   <g id="patch_95">
    <path d="M 568.143113 191.881902 
Q 566.230359 192.060951 564.173087 192.150884 
Q 562.115815 192.24 559.922524 192.24 
Q 554.966368 192.24 552.071735 191.706941 
Q 549.177102 191.173883 549.177102 190.262287 
Q 549.177102 189.340063 552.122742 188.811092 
Q 555.072632 188.282121 560.203062 188.282121 
Q 562.179573 188.282121 563.990313 188.354068 
Q 565.805303 188.425197 567.412016 188.56582 
L 567.412016 189.354779 
Q 565.754296 189.174095 564.113579 189.08498 
Q 562.472862 188.995046 560.823644 188.995046 
Q 557.77174 188.995046 556.118271 189.323711 
Q 554.464802 189.651559 554.464802 190.262287 
Q 554.464802 190.867292 556.058763 191.197592 
Q 557.652724 191.527075 560.585612 191.527075 
Q 561.384718 191.527075 562.069059 191.508271 
Q 562.753399 191.488649 563.297471 191.44777 
L 563.297471 190.707048 
L 560.173308 190.707048 
L 560.173308 190.047265 
L 568.143113 190.047265 
L 568.143113 191.881902 
z
" clip-path="url(#pace4a29ed0)" style="fill: #ffa600"/>
   </g>
   <g id="patch_96">
    <path d="M 568.143113 187.771464 
Q 566.556639 188.024585 564.841144 188.152618 
Q 563.12565 188.282121 561.257242 188.282121 
Q 555.685468 188.282121 552.431285 187.322616 
Q 549.177102 186.36311 549.177102 184.722238 
Q 549.177102 183.075479 552.431285 182.117445 
Q 555.685468 181.15794 561.257242 181.15794 
Q 563.12565 181.15794 564.841144 181.287444 
Q 566.556639 181.415476 568.143113 181.668597 
L 568.143113 183.088724 
Q 566.542303 182.753191 564.989279 182.597198 
Q 563.436254 182.441205 561.72076 182.441205 
Q 558.643382 182.441205 556.880103 183.04899 
Q 555.121601 183.655303 555.121601 184.722238 
Q 555.121601 185.784758 556.880103 186.392543 
Q 558.643382 186.998856 561.72076 186.998856 
Q 563.436254 186.998856 564.989279 186.842863 
Q 566.542303 186.685398 568.143113 186.349866 
L 568.143113 187.771464 
z
" clip-path="url(#pace4a29ed0)" style="fill: #0000ff"/>
   </g>
   <g id="patch_97">
    <path d="M 562.314874 179.167973 
L 555.020851 179.167973 
L 553.869164 181.15794 
L 549.177102 181.15794 
L 555.877831 170.234195 
L 561.442383 170.234195 
L 568.143113 181.15794 
L 563.454929 181.15794 
L 562.314874 179.167973 
z
M 556.184172 177.140549 
L 561.13992 177.140549 
L 558.665924 172.795399 
L 556.184172 177.140549 
z
" clip-path="url(#pace4a29ed0)" style="fill: #008000"/>
   </g>
   <g id="patch_98">
    <path d="M 549.177102 130.56042 
L 568.143113 130.56042 
L 568.143113 138.297911 
L 561.31976 138.297911 
L 561.31976 170.234195 
L 556.013687 170.234195 
L 556.013687 138.297911 
L 549.177102 138.297911 
L 549.177102 130.56042 
z
" clip-path="url(#pace4a29ed0)" style="fill: #ff0000"/>
   </g>
   <g id="patch_99">
    <path d="M 588.107335 192.141945 
Q 586.194581 192.190973 584.137309 192.215598 
Q 582.080037 192.24 579.886746 192.24 
Q 574.93059 192.24 572.035957 192.094037 
Q 569.141324 191.948074 569.141324 191.69846 
Q 569.141324 191.445935 572.086964 191.301092 
Q 575.036854 191.156248 580.167283 191.156248 
Q 582.143795 191.156248 583.954535 191.175949 
Q 585.769525 191.195425 587.376238 191.233931 
L 587.376238 191.449965 
Q 585.718518 191.40049 584.077801 191.376088 
Q 582.437084 191.351462 580.787866 191.351462 
Q 577.735962 191.351462 576.082493 191.441458 
Q 574.429024 191.531229 574.429024 191.69846 
Q 574.429024 191.864123 576.022985 191.954566 
Q 577.616946 192.044786 580.549834 192.044786 
Q 581.34894 192.044786 582.03328 192.039637 
Q 582.717621 192.034264 583.261693 192.023071 
L 583.261693 191.820245 
L 580.137529 191.820245 
L 580.137529 191.639582 
L 588.107335 191.639582 
L 588.107335 192.141945 
z
" clip-path="url(#pace4a29ed0)" style="fill: #ffa600"/>
   </g>
   <g id="patch_100">
    <path d="M 582.279096 190.887263 
L 574.985073 190.887263 
L 573.833385 191.156248 
L 569.141324 191.156248 
L 575.842053 189.67968 
L 581.406605 189.67968 
L 588.107335 191.156248 
L 583.419151 191.156248 
L 582.279096 190.887263 
z
M 576.148394 190.613215 
L 581.104142 190.613215 
L 578.630146 190.025879 
L 576.148394 190.613215 
z
" clip-path="url(#pace4a29ed0)" style="fill: #008000"/>
   </g>
   <g id="patch_101">
    <path d="M 588.107335 189.545684 
Q 586.52086 189.612103 584.805366 189.645698 
Q 583.089871 189.67968 581.221464 189.67968 
Q 575.64969 189.67968 572.395507 189.427906 
Q 569.141324 189.176132 569.141324 188.745567 
Q 569.141324 188.313458 572.395507 188.06207 
Q 575.64969 187.810296 581.221464 187.810296 
Q 583.089871 187.810296 584.805366 187.844278 
Q 586.52086 187.877873 588.107335 187.944292 
L 588.107335 188.316933 
Q 586.506525 188.22889 584.953501 188.187957 
Q 583.400476 188.147024 581.684982 188.147024 
Q 578.607604 188.147024 576.844324 188.306507 
Q 575.085823 188.465604 575.085823 188.745567 
Q 575.085823 189.024372 576.844324 189.183855 
Q 578.607604 189.342951 581.684982 189.342951 
Q 583.400476 189.342951 584.953501 189.302019 
Q 586.506525 189.2607 588.107335 189.172656 
L 588.107335 189.545684 
z
" clip-path="url(#pace4a29ed0)" style="fill: #0000ff"/>
   </g>
   <g id="patch_102">
    <path d="M 569.141324 185.407804 
L 588.107335 185.407804 
L 588.107335 185.876357 
L 581.283981 185.876357 
L 581.283981 187.810296 
L 575.977909 187.810296 
L 575.977909 185.876357 
L 569.141324 185.876357 
L 569.141324 185.407804 
z
" clip-path="url(#pace4a29ed0)" style="fill: #ff0000"/>
   </g>
   <g id="patch_103">
    <path d="M 608.071556 192.112389 
Q 606.485082 192.175643 604.769588 192.207638 
Q 603.054093 192.24 601.185685 192.24 
Q 595.613912 192.24 592.359729 192.000224 
Q 589.105546 191.760449 589.105546 191.350403 
Q 589.105546 190.938886 592.359729 190.699478 
Q 595.613912 190.459702 601.185685 190.459702 
Q 603.054093 190.459702 604.769588 190.492065 
Q 606.485082 190.524059 608.071556 190.587313 
L 608.071556 190.942196 
Q 606.470747 190.858348 604.917722 190.819366 
Q 603.364698 190.780384 601.649204 190.780384 
Q 598.571826 190.780384 596.808546 190.932266 
Q 595.050045 191.083781 595.050045 191.350403 
Q 595.050045 191.615921 596.808546 191.767804 
Q 598.571826 191.919318 601.649204 191.919318 
Q 603.364698 191.919318 604.917722 191.880336 
Q 606.470747 191.840987 608.071556 191.757139 
L 608.071556 192.112389 
z
" clip-path="url(#pace4a29ed0)" style="fill: #0000ff"/>
   </g>
   <g id="patch_104">
    <path d="M 608.071556 190.18148 
Q 606.158803 190.320591 604.101531 190.390464 
Q 602.044258 190.459702 599.850968 190.459702 
Q 594.894812 190.459702 592.000179 190.045544 
Q 589.105546 189.631386 589.105546 188.923125 
Q 589.105546 188.206607 592.051186 187.795625 
Q 595.001076 187.384643 600.131505 187.384643 
Q 602.108017 187.384643 603.918757 187.440542 
Q 605.733747 187.495805 607.34046 187.605061 
L 607.34046 188.218041 
Q 605.68274 188.077659 604.042023 188.008421 
Q 602.401306 187.938547 600.752087 187.938547 
Q 597.700183 187.938547 596.046714 188.193903 
Q 594.393246 188.448622 594.393246 188.923125 
Q 594.393246 189.393182 595.987207 189.649808 
Q 597.581168 189.905798 600.514056 189.905798 
Q 601.313162 189.905798 601.997502 189.891188 
Q 602.681843 189.875943 603.225915 189.844182 
L 603.225915 189.268681 
L 600.101751 189.268681 
L 600.101751 188.756065 
L 608.071556 188.756065 
L 608.071556 190.18148 
z
" clip-path="url(#pace4a29ed0)" style="fill: #ffa600"/>
   </g>
   <g id="patch_105">
    <path d="M 602.243318 186.352732 
L 594.949295 186.352732 
L 593.797607 187.384643 
L 589.105546 187.384643 
L 595.806275 181.72006 
L 601.370827 181.72006 
L 608.071556 187.384643 
L 603.383373 187.384643 
L 602.243318 186.352732 
z
M 596.112616 185.301397 
L 601.068364 185.301397 
L 598.594368 183.04819 
L 596.112616 185.301397 
z
" clip-path="url(#pace4a29ed0)" style="fill: #008000"/>
   </g>
   <g id="patch_106">
    <path d="M 589.105546 175.646604 
L 608.071556 175.646604 
L 608.071556 176.831097 
L 601.248203 176.831097 
L 601.248203 181.72006 
L 595.942131 181.72006 
L 595.942131 176.831097 
L 589.105546 176.831097 
L 589.105546 175.646604 
z
" clip-path="url(#pace4a29ed0)" style="fill: #ff0000"/>
   </g>
   <g id="patch_107">
    <path d="M 628.035778 192.124824 
Q 626.123025 192.182412 624.065753 192.211337 
Q 622.00848 192.24 619.81519 192.24 
Q 614.859034 192.24 611.964401 192.06855 
Q 609.069767 191.8971 609.069767 191.6039 
Q 609.069767 191.307281 612.015407 191.137146 
Q 614.965298 190.967011 620.095727 190.967011 
Q 622.072239 190.967011 623.882978 190.990152 
Q 625.697969 191.013029 627.304681 191.058258 
L 627.304681 191.312015 
Q 625.646962 191.2539 624.006245 191.225238 
Q 622.365528 191.196312 620.716309 191.196312 
Q 617.664405 191.196312 616.010936 191.302022 
Q 614.357467 191.407469 614.357467 191.6039 
Q 614.357467 191.79849 615.951428 191.904726 
Q 617.545389 192.010699 620.478278 192.010699 
Q 621.277383 192.010699 621.961724 192.004651 
Q 622.646065 191.99834 623.190137 191.985192 
L 623.190137 191.74695 
L 620.065973 191.74695 
L 620.065973 191.534742 
L 628.035778 191.534742 
L 628.035778 192.124824 
z
" clip-path="url(#pace4a29ed0)" style="fill: #ffa600"/>
   </g>
   <g id="patch_108">
    <path d="M 628.035778 190.861947 
Q 626.449304 190.914025 624.73381 190.940367 
Q 623.018315 190.967011 621.149907 190.967011 
Q 615.578134 190.967011 612.323951 190.7696 
Q 609.069767 190.57219 609.069767 190.234593 
Q 609.069767 189.895785 612.323951 189.698678 
Q 615.578134 189.501267 621.149907 189.501267 
Q 623.018315 189.501267 624.73381 189.527911 
Q 626.449304 189.554253 628.035778 189.60633 
L 628.035778 189.89851 
Q 626.434969 189.829477 624.881944 189.797383 
Q 623.32892 189.765288 621.613425 189.765288 
Q 618.536048 189.765288 616.772768 189.890335 
Q 615.014267 190.01508 615.014267 190.234593 
Q 615.014267 190.453198 616.772768 190.578245 
Q 618.536048 190.702989 621.613425 190.702989 
Q 623.32892 190.702989 624.881944 190.670895 
Q 626.434969 190.638498 628.035778 190.569465 
L 628.035778 190.861947 
z
" clip-path="url(#pace4a29ed0)" style="fill: #0000ff"/>
   </g>
   <g id="patch_109">
    <path d="M 622.20754 189.055757 
L 614.913517 189.055757 
L 613.761829 189.501267 
L 609.069767 189.501267 
L 615.770497 187.055682 
L 621.335049 187.055682 
L 628.035778 189.501267 
L 623.347594 189.501267 
L 622.20754 189.055757 
z
M 616.076838 188.601862 
L 621.032585 188.601862 
L 618.558589 187.629079 
L 616.076838 188.601862 
z
" clip-path="url(#pace4a29ed0)" style="fill: #008000"/>
   </g>
   <g id="patch_110">
    <path d="M 609.069767 184.417343 
L 628.035778 184.417343 
L 628.035778 184.931892 
L 621.212425 184.931892 
L 621.212425 187.055682 
L 615.906353 187.055682 
L 615.906353 184.931892 
L 609.069767 184.931892 
L 609.069767 184.417343 
z
" clip-path="url(#pace4a29ed0)" style="fill: #ff0000"/>
   </g>
   <g id="patch_111">
    <path d="M 648 191.982001 
Q 646.087247 192.111001 644.029974 192.175795 
Q 641.972702 192.24 639.779412 192.24 
Q 634.823256 192.24 631.928622 191.855947 
Q 629.033989 191.471894 629.033989 190.815115 
Q 629.033989 190.15068 631.979629 189.769572 
Q 634.92952 189.388464 640.059949 189.388464 
Q 642.036461 189.388464 643.8472 189.440299 
Q 645.662191 189.491545 647.268903 189.59286 
L 647.268903 190.161282 
Q 645.611184 190.031105 643.970467 189.9669 
Q 642.329749 189.902105 640.680531 189.902105 
Q 637.628627 189.902105 635.975158 190.138899 
Q 634.321689 190.375103 634.321689 190.815115 
Q 634.321689 191.251004 635.91565 191.488976 
Q 637.509611 191.726358 640.4425 191.726358 
Q 641.241605 191.726358 641.925946 191.71281 
Q 642.610287 191.698673 643.154359 191.669221 
L 643.154359 191.135552 
L 640.030195 191.135552 
L 640.030195 190.660198 
L 648 190.660198 
L 648 191.982001 
z
" clip-path="url(#pace4a29ed0)" style="fill: #ffa600"/>
   </g>
   <g id="patch_112">
    <path d="M 648 189.071141 
Q 646.413526 189.228431 644.698031 189.30799 
Q 642.982537 189.388464 641.114129 189.388464 
Q 635.542356 189.388464 632.288173 188.792226 
Q 629.033989 188.195989 629.033989 187.17635 
Q 629.033989 186.153053 632.288173 185.55773 
Q 635.542356 184.961493 641.114129 184.961493 
Q 642.982537 184.961493 644.698031 185.041966 
Q 646.413526 185.121526 648 185.278815 
L 648 186.161283 
Q 646.39919 185.952783 644.846166 185.855849 
Q 643.293142 185.758914 641.577647 185.758914 
Q 638.50027 185.758914 636.73699 186.136592 
Q 634.978488 186.513356 634.978488 187.17635 
Q 634.978488 187.8366 636.73699 188.214278 
Q 638.50027 188.591042 641.577647 188.591042 
Q 643.293142 188.591042 644.846166 188.494108 
Q 646.39919 188.396259 648 188.187759 
L 648 189.071141 
z
" clip-path="url(#pace4a29ed0)" style="fill: #0000ff"/>
   </g>
   <g id="patch_113">
    <path d="M 642.171762 183.454768 
L 634.877739 183.454768 
L 633.726051 184.961493 
L 629.033989 184.961493 
L 635.734718 176.690462 
L 641.299271 176.690462 
L 648 184.961493 
L 643.311816 184.961493 
L 642.171762 183.454768 
z
M 636.04106 181.919682 
L 640.996807 181.919682 
L 638.522811 178.629705 
L 636.04106 181.919682 
z
" clip-path="url(#pace4a29ed0)" style="fill: #008000"/>
   </g>
   <g id="patch_114">
    <path d="M 629.033989 161.550536 
L 648 161.550536 
L 648 164.503244 
L 641.176647 164.503244 
L 641.176647 176.690462 
L 635.870575 176.690462 
L 635.870575 164.503244 
L 629.033989 164.503244 
L 629.033989 161.550536 
z
" clip-path="url(#pace4a29ed0)" style="fill: #ff0000"/>
   </g>
   <g id="matplotlib.axis_1">
    <g id="xtick_1">
     <g id="line2d_2">
      <defs>
       <path id="m4cf966ec3a" d="M 0 0 
L 0 3.5 
" style="stroke: #000000; stroke-width: 0.8"/>
      </defs>
      <g>
       <use xlink:href="#m4cf966ec3a" x="99.483005" y="192.24" style="stroke: #000000; stroke-width: 0.8"/>
      </g>
     </g>
     <g id="text_1">
      <!-- 0 -->
      <g transform="translate(96.301755 206.838437) scale(0.1 -0.1)">
       <defs>
        <path id="DejaVuSans-30" d="M 2034 4250 
Q 1547 4250 1301 3770 
Q 1056 3291 1056 2328 
Q 1056 1369 1301 889 
Q 1547 409 2034 409 
Q 2525 409 2770 889 
Q 3016 1369 3016 2328 
Q 3016 3291 2770 3770 
Q 2525 4250 2034 4250 
z
M 2034 4750 
Q 2819 4750 3233 4129 
Q 3647 3509 3647 2328 
Q 3647 1150 3233 529 
Q 2819 -91 2034 -91 
Q 1250 -91 836 529 
Q 422 1150 422 2328 
Q 422 3509 836 4129 
Q 1250 4750 2034 4750 
z
" transform="scale(0.015625)"/>
       </defs>
       <use xlink:href="#DejaVuSans-30"/>
      </g>
     </g>
    </g>
    <g id="xtick_2">
     <g id="line2d_3">
      <g>
       <use xlink:href="#m4cf966ec3a" x="199.304114" y="192.24" style="stroke: #000000; stroke-width: 0.8"/>
      </g>
     </g>
     <g id="text_2">
      <!-- 5 -->
      <g transform="translate(196.122864 206.838437) scale(0.1 -0.1)">
       <defs>
        <path id="DejaVuSans-35" d="M 691 4666 
L 3169 4666 
L 3169 4134 
L 1269 4134 
L 1269 2991 
Q 1406 3038 1543 3061 
Q 1681 3084 1819 3084 
Q 2600 3084 3056 2656 
Q 3513 2228 3513 1497 
Q 3513 744 3044 326 
Q 2575 -91 1722 -91 
Q 1428 -91 1123 -41 
Q 819 9 494 109 
L 494 744 
Q 775 591 1075 516 
Q 1375 441 1709 441 
Q 2250 441 2565 725 
Q 2881 1009 2881 1497 
Q 2881 1984 2565 2268 
Q 2250 2553 1709 2553 
Q 1456 2553 1204 2497 
Q 953 2441 691 2322 
L 691 4666 
z
" transform="scale(0.015625)"/>
       </defs>
       <use xlink:href="#DejaVuSans-35"/>
      </g>
     </g>
    </g>
    <g id="xtick_3">
     <g id="line2d_4">
      <g>
       <use xlink:href="#m4cf966ec3a" x="299.125224" y="192.24" style="stroke: #000000; stroke-width: 0.8"/>
      </g>
     </g>
     <g id="text_3">
      <!-- 10 -->
      <g transform="translate(292.762724 206.838437) scale(0.1 -0.1)">
       <defs>
        <path id="DejaVuSans-31" d="M 794 531 
L 1825 531 
L 1825 4091 
L 703 3866 
L 703 4441 
L 1819 4666 
L 2450 4666 
L 2450 531 
L 3481 531 
L 3481 0 
L 794 0 
L 794 531 
z
" transform="scale(0.015625)"/>
       </defs>
       <use xlink:href="#DejaVuSans-31"/>
       <use xlink:href="#DejaVuSans-30" x="63.623047"/>
      </g>
     </g>
    </g>
    <g id="xtick_4">
     <g id="line2d_5">
      <g>
       <use xlink:href="#m4cf966ec3a" x="398.946333" y="192.24" style="stroke: #000000; stroke-width: 0.8"/>
      </g>
     </g>
     <g id="text_4">
      <!-- 15 -->
      <g transform="translate(392.583833 206.838437) scale(0.1 -0.1)">
       <use xlink:href="#DejaVuSans-31"/>
       <use xlink:href="#DejaVuSans-35" x="63.623047"/>
      </g>
     </g>
    </g>
    <g id="xtick_5">
     <g id="line2d_6">
      <g>
       <use xlink:href="#m4cf966ec3a" x="498.767442" y="192.24" style="stroke: #000000; stroke-width: 0.8"/>
      </g>
     </g>
     <g id="text_5">
      <!-- 20 -->
      <g transform="translate(492.404942 206.838437) scale(0.1 -0.1)">
       <defs>
        <path id="DejaVuSans-32" d="M 1228 531 
L 3431 531 
L 3431 0 
L 469 0 
L 469 531 
Q 828 903 1448 1529 
Q 2069 2156 2228 2338 
Q 2531 2678 2651 2914 
Q 2772 3150 2772 3378 
Q 2772 3750 2511 3984 
Q 2250 4219 1831 4219 
Q 1534 4219 1204 4116 
Q 875 4013 500 3803 
L 500 4441 
Q 881 4594 1212 4672 
Q 1544 4750 1819 4750 
Q 2544 4750 2975 4387 
Q 3406 4025 3406 3419 
Q 3406 3131 3298 2873 
Q 3191 2616 2906 2266 
Q 2828 2175 2409 1742 
Q 1991 1309 1228 531 
z
" transform="scale(0.015625)"/>
       </defs>
       <use xlink:href="#DejaVuSans-32"/>
       <use xlink:href="#DejaVuSans-30" x="63.623047"/>
      </g>
     </g>
    </g>
    <g id="xtick_6">
     <g id="line2d_7">
      <g>
       <use xlink:href="#m4cf966ec3a" x="598.588551" y="192.24" style="stroke: #000000; stroke-width: 0.8"/>
      </g>
     </g>
     <g id="text_6">
      <!-- 25 -->
      <g transform="translate(592.226051 206.838437) scale(0.1 -0.1)">
       <use xlink:href="#DejaVuSans-32"/>
       <use xlink:href="#DejaVuSans-35" x="63.623047"/>
      </g>
     </g>
    </g>
   </g>
   <g id="matplotlib.axis_2">
    <g id="ytick_1">
     <g id="line2d_8">
      <defs>
       <path id="m15a76d07ef" d="M 0 0 
L -3.5 0 
" style="stroke: #000000; stroke-width: 0.8"/>
      </defs>
      <g>
       <use xlink:href="#m15a76d07ef" x="90" y="192.24" style="stroke: #000000; stroke-width: 0.8"/>
      </g>
     </g>
     <g id="text_7">
      <!-- 0.0 -->
      <g transform="translate(67.096875 196.039219) scale(0.1 -0.1)">
       <defs>
        <path id="DejaVuSans-2e" d="M 684 794 
L 1344 794 
L 1344 0 
L 684 0 
L 684 794 
z
" transform="scale(0.015625)"/>
       </defs>
       <use xlink:href="#DejaVuSans-30"/>
       <use xlink:href="#DejaVuSans-2e" x="63.623047"/>
       <use xlink:href="#DejaVuSans-30" x="95.410156"/>
      </g>
     </g>
    </g>
    <g id="ytick_2">
     <g id="line2d_9">
      <g>
       <use xlink:href="#m15a76d07ef" x="90" y="169.152868" style="stroke: #000000; stroke-width: 0.8"/>
      </g>
     </g>
     <g id="text_8">
      <!-- 0.2 -->
      <g transform="translate(67.096875 172.952087) scale(0.1 -0.1)">
       <use xlink:href="#DejaVuSans-30"/>
       <use xlink:href="#DejaVuSans-2e" x="63.623047"/>
       <use xlink:href="#DejaVuSans-32" x="95.410156"/>
      </g>
     </g>
    </g>
    <g id="ytick_3">
     <g id="line2d_10">
      <g>
       <use xlink:href="#m15a76d07ef" x="90" y="146.065737" style="stroke: #000000; stroke-width: 0.8"/>
      </g>
     </g>
     <g id="text_9">
      <!-- 0.4 -->
      <g transform="translate(67.096875 149.864956) scale(0.1 -0.1)">
       <defs>
        <path id="DejaVuSans-34" d="M 2419 4116 
L 825 1625 
L 2419 1625 
L 2419 4116 
z
M 2253 4666 
L 3047 4666 
L 3047 1625 
L 3713 1625 
L 3713 1100 
L 3047 1100 
L 3047 0 
L 2419 0 
L 2419 1100 
L 313 1100 
L 313 1709 
L 2253 4666 
z
" transform="scale(0.015625)"/>
       </defs>
       <use xlink:href="#DejaVuSans-30"/>
       <use xlink:href="#DejaVuSans-2e" x="63.623047"/>
       <use xlink:href="#DejaVuSans-34" x="95.410156"/>
      </g>
     </g>
    </g>
    <g id="ytick_4">
     <g id="line2d_11">
      <g>
       <use xlink:href="#m15a76d07ef" x="90" y="122.978605" style="stroke: #000000; stroke-width: 0.8"/>
      </g>
     </g>
     <g id="text_10">
      <!-- 0.6 -->
      <g transform="translate(67.096875 126.777824) scale(0.1 -0.1)">
       <defs>
        <path id="DejaVuSans-36" d="M 2113 2584 
Q 1688 2584 1439 2293 
Q 1191 2003 1191 1497 
Q 1191 994 1439 701 
Q 1688 409 2113 409 
Q 2538 409 2786 701 
Q 3034 994 3034 1497 
Q 3034 2003 2786 2293 
Q 2538 2584 2113 2584 
z
M 3366 4563 
L 3366 3988 
Q 3128 4100 2886 4159 
Q 2644 4219 2406 4219 
Q 1781 4219 1451 3797 
Q 1122 3375 1075 2522 
Q 1259 2794 1537 2939 
Q 1816 3084 2150 3084 
Q 2853 3084 3261 2657 
Q 3669 2231 3669 1497 
Q 3669 778 3244 343 
Q 2819 -91 2113 -91 
Q 1303 -91 875 529 
Q 447 1150 447 2328 
Q 447 3434 972 4092 
Q 1497 4750 2381 4750 
Q 2619 4750 2861 4703 
Q 3103 4656 3366 4563 
z
" transform="scale(0.015625)"/>
       </defs>
       <use xlink:href="#DejaVuSans-30"/>
       <use xlink:href="#DejaVuSans-2e" x="63.623047"/>
       <use xlink:href="#DejaVuSans-36" x="95.410156"/>
      </g>
     </g>
    </g>
    <g id="ytick_5">
     <g id="line2d_12">
      <g>
       <use xlink:href="#m15a76d07ef" x="90" y="99.891474" style="stroke: #000000; stroke-width: 0.8"/>
      </g>
     </g>
     <g id="text_11">
      <!-- 0.8 -->
      <g transform="translate(67.096875 103.690692) scale(0.1 -0.1)">
       <defs>
        <path id="DejaVuSans-38" d="M 2034 2216 
Q 1584 2216 1326 1975 
Q 1069 1734 1069 1313 
Q 1069 891 1326 650 
Q 1584 409 2034 409 
Q 2484 409 2743 651 
Q 3003 894 3003 1313 
Q 3003 1734 2745 1975 
Q 2488 2216 2034 2216 
z
M 1403 2484 
Q 997 2584 770 2862 
Q 544 3141 544 3541 
Q 544 4100 942 4425 
Q 1341 4750 2034 4750 
Q 2731 4750 3128 4425 
Q 3525 4100 3525 3541 
Q 3525 3141 3298 2862 
Q 3072 2584 2669 2484 
Q 3125 2378 3379 2068 
Q 3634 1759 3634 1313 
Q 3634 634 3220 271 
Q 2806 -91 2034 -91 
Q 1263 -91 848 271 
Q 434 634 434 1313 
Q 434 1759 690 2068 
Q 947 2378 1403 2484 
z
M 1172 3481 
Q 1172 3119 1398 2916 
Q 1625 2713 2034 2713 
Q 2441 2713 2670 2916 
Q 2900 3119 2900 3481 
Q 2900 3844 2670 4047 
Q 2441 4250 2034 4250 
Q 1625 4250 1398 4047 
Q 1172 3844 1172 3481 
z
" transform="scale(0.015625)"/>
       </defs>
       <use xlink:href="#DejaVuSans-30"/>
       <use xlink:href="#DejaVuSans-2e" x="63.623047"/>
       <use xlink:href="#DejaVuSans-38" x="95.410156"/>
      </g>
     </g>
    </g>
    <g id="ytick_6">
     <g id="line2d_13">
      <g>
       <use xlink:href="#m15a76d07ef" x="90" y="76.804342" style="stroke: #000000; stroke-width: 0.8"/>
      </g>
     </g>
     <g id="text_12">
      <!-- 1.0 -->
      <g transform="translate(67.096875 80.603561) scale(0.1 -0.1)">
       <use xlink:href="#DejaVuSans-31"/>
       <use xlink:href="#DejaVuSans-2e" x="63.623047"/>
       <use xlink:href="#DejaVuSans-30" x="95.410156"/>
      </g>
     </g>
    </g>
    <g id="ytick_7">
     <g id="line2d_14">
      <g>
       <use xlink:href="#m15a76d07ef" x="90" y="53.71721" style="stroke: #000000; stroke-width: 0.8"/>
      </g>
     </g>
     <g id="text_13">
      <!-- 1.2 -->
      <g transform="translate(67.096875 57.516429) scale(0.1 -0.1)">
       <use xlink:href="#DejaVuSans-31"/>
       <use xlink:href="#DejaVuSans-2e" x="63.623047"/>
       <use xlink:href="#DejaVuSans-32" x="95.410156"/>
      </g>
     </g>
    </g>
    <g id="ytick_8">
     <g id="line2d_15">
      <g>
       <use xlink:href="#m15a76d07ef" x="90" y="30.630079" style="stroke: #000000; stroke-width: 0.8"/>
      </g>
     </g>
     <g id="text_14">
      <!-- 1.4 -->
      <g transform="translate(67.096875 34.429297) scale(0.1 -0.1)">
       <use xlink:href="#DejaVuSans-31"/>
       <use xlink:href="#DejaVuSans-2e" x="63.623047"/>
       <use xlink:href="#DejaVuSans-34" x="95.410156"/>
      </g>
     </g>
    </g>
   </g>
  </g>
 </g>
 <defs>
  <clipPath id="pace4a29ed0">
   <rect x="90" y="25.92" width="558" height="166.32"/>
  </clipPath>
 </defs>
</svg>
