<?xml version="1.0" encoding="utf-8" standalone="no"?>
<!DOCTYPE svg PUBLIC "-//W3C//DTD SVG 1.1//EN"
  "http://www.w3.org/Graphics/SVG/1.1/DTD/svg11.dtd">
<svg xmlns:xlink="http://www.w3.org/1999/xlink" width="720pt" height="216pt" viewBox="0 0 720 216" xmlns="http://www.w3.org/2000/svg" version="1.1">
 <metadata>
  <rdf:RDF xmlns:dc="http://purl.org/dc/elements/1.1/" xmlns:cc="http://creativecommons.org/ns#" xmlns:rdf="http://www.w3.org/1999/02/22-rdf-syntax-ns#">
   <cc:Work>
    <dc:type rdf:resource="http://purl.org/dc/dcmitype/StillImage"/>
    <dc:date>2025-12-17T10:22:26.739571</dc:date>
    <dc:format>image/svg+xml</dc:format>
    <dc:creator>
     <cc:Agent>
      <dc:title>Matplotlib v3.8.2, https://matplotlib.org/</dc:title>
     </cc:Agent>
    </dc:creator>
   </cc:Work>
  </rdf:RDF>
 </metadata>
 <defs>
  <style type="text/css">*{stroke-linejoin: round; stroke-linecap: butt}</style>
 </defs>
 <g id="figure_1">
  <g id="patch_1">
   <path d="M 0 216 
L 720 216 
L 720 0 
L 0 0 
z
" style="fill: #ffffff"/>
  </g>
  <g id="axes_1">
   <g id="patch_2">
    <path d="M 90 192.24 
L 648 192.24 
L 648 25.92 
L 90 25.92 
z
" style="fill: #ffffff"/>
   </g>
   <g id="line2d_1">
    <path d="M 90 192.24 
L 648 192.24 
" clip-path="url(#pff995d1ec8)" style="fill: none; stroke: #000000; stroke-width: 0.5; stroke-linecap: square"/>
   </g>
   <g id="patch_3">
    <path d="M 107.699499 192.072633 
Q 105.914476 192.156316 103.994584 192.198349 
Q 102.074692 192.24 100.027865 192.24 
Q 95.402671 192.24 92.701335 191.990859 
Q 90 191.741719 90 191.315658 
Q 90 190.884629 92.748936 190.637399 
Q 95.501839 190.390169 100.289668 190.390169 
Q 102.134193 190.390169 103.824015 190.423795 
Q 105.517804 190.457039 107.017224 190.522764 
L 107.017224 190.891507 
Q 105.470203 190.807059 103.93905 190.765408 
Q 102.407896 190.723375 100.868809 190.723375 
Q 98.020705 190.723375 96.477652 190.876987 
Q 94.934598 191.030216 94.934598 191.315658 
Q 94.934598 191.598425 96.422118 191.7528 
Q 97.909637 191.906793 100.646673 191.906793 
Q 101.392416 191.906793 102.031058 191.898005 
Q 102.6697 191.888834 103.17744 191.869728 
L 103.17744 191.52353 
L 100.261901 191.52353 
L 100.261901 191.215161 
L 107.699499 191.215161 
L 107.699499 192.072633 
z
" clip-path="url(#pff995d1ec8)" style="fill: #ffa600"/>
   </g>
   <g id="patch_4">
    <path d="M 107.699499 190.080781 
Q 106.218967 190.234138 104.618029 190.311707 
Q 103.017092 190.390169 101.273453 190.390169 
Q 96.073751 190.390169 93.036876 189.808841 
Q 90 189.227513 90 188.23337 
Q 90 187.235661 93.036876 186.655224 
Q 96.073751 186.073896 101.273453 186.073896 
Q 103.017092 186.073896 104.618029 186.152358 
Q 106.218967 186.229928 107.699499 186.383284 
L 107.699499 187.243685 
Q 106.205588 187.040399 104.756272 186.945889 
Q 103.306955 186.851378 101.706018 186.851378 
Q 98.834142 186.851378 97.18861 187.219612 
Q 95.547538 187.586954 95.547538 188.23337 
Q 95.547538 188.877111 97.18861 189.245345 
Q 98.834142 189.612687 101.706018 189.612687 
Q 103.306955 189.612687 104.756272 189.518177 
Q 106.205588 189.422775 107.699499 189.219488 
L 107.699499 190.080781 
z
" clip-path="url(#pff995d1ec8)" style="fill: #0000ff"/>
   </g>
   <g id="patch_5">
    <path d="M 102.260459 183.130923 
L 95.453516 183.130923 
L 94.378735 186.073896 
L 90 186.073896 
L 96.253268 169.918704 
L 101.446231 169.918704 
L 107.699499 186.073896 
L 103.324383 186.073896 
L 102.260459 183.130923 
z
M 96.539153 180.132553 
L 101.163965 180.132553 
L 98.855178 173.706484 
L 96.539153 180.132553 
z
" clip-path="url(#pff995d1ec8)" style="fill: #008000"/>
   </g>
   <g id="patch_6">
    <path d="M 90 151.173749 
L 107.699499 151.173749 
L 107.699499 154.829538 
L 101.331796 154.829538 
L 101.331796 169.918704 
L 96.380052 169.918704 
L 96.380052 154.829538 
L 90 154.829538 
L 90 151.173749 
z
" clip-path="url(#pff995d1ec8)" style="fill: #ff0000"/>
   </g>
   <g id="patch_7">
    <path d="M 126.330551 191.985267 
Q 124.545527 192.112633 122.625636 192.176607 
Q 120.705744 192.24 118.658917 192.24 
Q 114.033723 192.24 111.332387 191.860808 
Q 108.631052 191.481616 108.631052 190.833151 
Q 108.631052 190.177126 111.379988 189.800842 
Q 114.132891 189.424558 118.92072 189.424558 
Q 120.765244 189.424558 122.455067 189.475737 
Q 124.148856 189.526335 125.648275 189.626367 
L 125.648275 190.187594 
Q 124.101255 190.059065 122.570102 189.995672 
Q 121.038948 189.931698 119.499861 189.931698 
Q 116.651757 189.931698 115.108704 190.165494 
Q 113.56565 190.398709 113.56565 190.833151 
Q 113.56565 191.263523 115.053169 191.498482 
Q 116.540689 191.73286 119.277725 191.73286 
Q 120.023468 191.73286 120.66211 191.719483 
Q 121.300752 191.705525 121.808492 191.676446 
L 121.808492 191.149532 
L 118.892953 191.149532 
L 118.892953 190.680195 
L 126.330551 190.680195 
L 126.330551 191.985267 
z
" clip-path="url(#pff995d1ec8)" style="fill: #ffa600"/>
   </g>
   <g id="patch_8">
    <path d="M 126.330551 189.114082 
Q 124.850018 189.267978 123.249081 189.34582 
Q 121.648144 189.424558 119.904504 189.424558 
Q 114.704803 189.424558 111.667927 188.841186 
Q 108.631052 188.257813 108.631052 187.260175 
Q 108.631052 186.258958 111.667927 185.67648 
Q 114.704803 185.093108 119.904504 185.093108 
Q 121.648144 185.093108 123.249081 185.171846 
Q 124.850018 185.249688 126.330551 185.403584 
L 126.330551 186.267011 
Q 124.83664 186.063009 123.387324 185.968167 
Q 121.938007 185.873324 120.33707 185.873324 
Q 117.465193 185.873324 115.819662 186.242853 
Q 114.178589 186.611487 114.178589 187.260175 
Q 114.178589 187.906179 115.819662 188.275708 
Q 117.465193 188.644342 120.33707 188.644342 
Q 121.938007 188.644342 123.387324 188.549499 
Q 124.83664 188.453762 126.330551 188.249761 
L 126.330551 189.114082 
z
" clip-path="url(#pff995d1ec8)" style="fill: #0000ff"/>
   </g>
   <g id="patch_9">
    <path d="M 108.631052 169.49989 
L 126.330551 169.49989 
L 126.330551 172.541002 
L 119.962847 172.541002 
L 119.962847 185.093108 
L 115.011104 185.093108 
L 115.011104 172.541002 
L 108.631052 172.541002 
L 108.631052 169.49989 
z
" clip-path="url(#pff995d1ec8)" style="fill: #ff0000"/>
   </g>
   <g id="patch_10">
    <path d="M 120.89151 160.504659 
L 114.084567 160.504659 
L 113.009787 169.49989 
L 108.631052 169.49989 
L 114.88432 120.121364 
L 120.077283 120.121364 
L 126.330551 169.49989 
L 121.955434 169.49989 
L 120.89151 160.504659 
z
M 115.170204 151.340106 
L 119.795017 151.340106 
L 117.48623 131.698755 
L 115.170204 151.340106 
z
" clip-path="url(#pff995d1ec8)" style="fill: #008000"/>
   </g>
   <g id="patch_11">
    <path d="M 144.961603 191.915537 
Q 143.176579 192.077769 141.256687 192.159255 
Q 139.336795 192.24 137.289969 192.24 
Q 132.664774 192.24 129.963439 191.75701 
Q 127.262104 191.274019 127.262104 190.448046 
Q 127.262104 189.612443 130.01104 189.133157 
Q 132.763942 188.65387 137.551772 188.65387 
Q 139.396296 188.65387 141.086118 188.719059 
Q 142.779907 188.783507 144.279327 188.910922 
L 144.279327 189.625777 
Q 142.732307 189.462064 141.201153 189.381319 
Q 139.67 189.299833 138.130913 189.299833 
Q 135.282809 189.299833 133.739755 189.597628 
Q 132.196702 189.894682 132.196702 190.448046 
Q 132.196702 190.996226 133.684221 191.295502 
Q 135.171741 191.594037 137.908777 191.594037 
Q 138.65452 191.594037 139.293162 191.576999 
Q 139.931803 191.559221 140.439543 191.522181 
L 140.439543 190.851032 
L 137.524005 190.851032 
L 137.524005 190.253221 
L 144.961603 190.253221 
L 144.961603 191.915537 
z
" clip-path="url(#pff995d1ec8)" style="fill: #ffa600"/>
   </g>
   <g id="patch_12">
    <path d="M 144.961603 188.161188 
Q 143.48107 188.4054 141.880133 188.528925 
Q 140.279195 188.65387 138.535556 188.65387 
Q 133.335855 188.65387 130.298979 187.728139 
Q 127.262104 186.802407 127.262104 185.219293 
Q 127.262104 183.630499 130.298979 182.706187 
Q 133.335855 181.780455 138.535556 181.780455 
Q 140.279195 181.780455 141.880133 181.905401 
Q 143.48107 182.028926 144.961603 182.273138 
L 144.961603 183.643277 
Q 143.467692 183.319555 142.018375 183.169053 
Q 140.569059 183.01855 138.968121 183.01855 
Q 136.096245 183.01855 134.450713 183.604942 
Q 132.809641 184.189913 132.809641 185.219293 
Q 132.809641 186.244413 134.450713 186.830804 
Q 136.096245 187.415775 138.968121 187.415775 
Q 140.569059 187.415775 142.018375 187.265273 
Q 143.467692 187.113351 144.961603 186.789629 
L 144.961603 188.161188 
z
" clip-path="url(#pff995d1ec8)" style="fill: #0000ff"/>
   </g>
   <g id="patch_13">
    <path d="M 127.262104 172.815131 
L 144.961603 172.815131 
L 144.961603 174.563619 
L 138.593899 174.563619 
L 138.593899 181.780455 
L 133.642156 181.780455 
L 133.642156 174.563619 
L 127.262104 174.563619 
L 127.262104 172.815131 
z
" clip-path="url(#pff995d1ec8)" style="fill: #ff0000"/>
   </g>
   <g id="patch_14">
    <path d="M 139.522562 158.225184 
L 132.715619 158.225184 
L 131.640839 172.815131 
L 127.262104 172.815131 
L 133.515372 92.724904 
L 138.708335 92.724904 
L 144.961603 172.815131 
L 140.586486 172.815131 
L 139.522562 158.225184 
z
M 133.801256 143.360603 
L 138.426069 143.360603 
L 136.117281 111.503024 
L 133.801256 143.360603 
z
" clip-path="url(#pff995d1ec8)" style="fill: #008000"/>
   </g>
   <g id="patch_15">
    <path d="M 163.592654 192.005769 
Q 161.807631 192.122885 159.887739 192.18171 
Q 157.967847 192.24 155.92102 192.24 
Q 151.295826 192.24 148.594491 191.891328 
Q 145.893155 191.542656 145.893155 190.946384 
Q 145.893155 190.34316 148.642091 189.997162 
Q 151.394994 189.651164 156.182824 189.651164 
Q 158.027348 189.651164 159.71717 189.698224 
Q 161.410959 189.744749 162.910379 189.83673 
L 162.910379 190.352786 
Q 161.363358 190.234601 159.832205 190.176311 
Q 158.301052 190.117486 156.761965 190.117486 
Q 153.913861 190.117486 152.370807 190.332465 
Q 150.827753 190.546909 150.827753 190.946384 
Q 150.827753 191.342116 152.315273 191.558164 
Q 153.802792 191.773678 156.539828 191.773678 
Q 157.285572 191.773678 157.924213 191.761378 
Q 158.562855 191.748544 159.070595 191.721805 
L 159.070595 191.237301 
L 156.155057 191.237301 
L 156.155057 190.805739 
L 163.592654 190.805739 
L 163.592654 192.005769 
z
" clip-path="url(#pff995d1ec8)" style="fill: #ffa600"/>
   </g>
   <g id="patch_16">
    <path d="M 158.153614 188.666944 
L 151.346671 188.666944 
L 150.27189 189.651164 
L 145.893155 189.651164 
L 152.146423 184.248376 
L 157.339386 184.248376 
L 163.592654 189.651164 
L 159.217538 189.651164 
L 158.153614 188.666944 
z
M 152.432308 187.664198 
L 157.057121 187.664198 
L 154.748333 185.515124 
L 152.432308 187.664198 
z
" clip-path="url(#pff995d1ec8)" style="fill: #008000"/>
   </g>
   <g id="patch_17">
    <path d="M 163.592654 183.6352 
Q 162.112122 183.939137 160.511185 184.092873 
Q 158.910247 184.248376 157.166608 184.248376 
Q 151.966906 184.248376 148.930031 183.096242 
Q 145.893155 181.944108 145.893155 179.973819 
Q 145.893155 177.996461 148.930031 176.846094 
Q 151.966906 175.693961 157.166608 175.693961 
Q 158.910247 175.693961 160.511185 175.849463 
Q 162.112122 176.003199 163.592654 176.307136 
L 163.592654 178.012364 
Q 162.098744 177.609471 160.649427 177.422161 
Q 159.200111 177.234851 157.599173 177.234851 
Q 154.727297 177.234851 153.081765 177.964653 
Q 151.440693 178.692689 151.440693 179.973819 
Q 151.440693 181.249648 153.081765 181.97945 
Q 154.727297 182.707485 157.599173 182.707485 
Q 159.200111 182.707485 160.649427 182.520175 
Q 162.098744 182.331098 163.592654 181.928205 
L 163.592654 183.6352 
z
" clip-path="url(#pff995d1ec8)" style="fill: #0000ff"/>
   </g>
   <g id="patch_18">
    <path d="M 145.893155 154.758156 
L 163.592654 154.758156 
L 163.592654 158.841221 
L 157.224951 158.841221 
L 157.224951 175.693961 
L 152.273207 175.693961 
L 152.273207 158.841221 
L 145.893155 158.841221 
L 145.893155 154.758156 
z
" clip-path="url(#pff995d1ec8)" style="fill: #ff0000"/>
   </g>
   <g id="patch_19">
    <path d="M 182.223706 191.89547 
Q 180.438683 192.067735 178.518791 192.154261 
Q 176.598899 192.24 174.552072 192.24 
Q 169.926878 192.24 167.225542 191.727138 
Q 164.524207 191.214275 164.524207 190.337218 
Q 164.524207 189.449935 167.273143 188.941005 
Q 170.026046 188.432076 174.813876 188.432076 
Q 176.6584 188.432076 178.348222 188.501297 
Q 180.042011 188.569731 181.541431 188.705026 
L 181.541431 189.464093 
Q 179.99441 189.290255 178.463257 189.204516 
Q 176.932103 189.11799 175.393016 189.11799 
Q 172.544912 189.11799 171.001859 189.434203 
Q 169.458805 189.749629 169.458805 190.337218 
Q 169.458805 190.919301 170.946325 191.237087 
Q 172.433844 191.554086 175.17088 191.554086 
Q 175.916623 191.554086 176.555265 191.535994 
Q 177.193907 191.517116 177.701647 191.477786 
L 177.701647 190.765128 
L 174.786108 190.765128 
L 174.786108 190.130342 
L 182.223706 190.130342 
L 182.223706 191.89547 
z
" clip-path="url(#pff995d1ec8)" style="fill: #ffa600"/>
   </g>
   <g id="patch_20">
    <path d="M 176.784666 187.603508 
L 169.977723 187.603508 
L 168.902942 188.432076 
L 164.524207 188.432076 
L 170.777475 183.883722 
L 175.970438 183.883722 
L 182.223706 188.432076 
L 177.84859 188.432076 
L 176.784666 187.603508 
z
M 171.06336 186.759342 
L 175.688172 186.759342 
L 173.379385 184.950139 
L 171.06336 186.759342 
z
" clip-path="url(#pff995d1ec8)" style="fill: #008000"/>
   </g>
   <g id="patch_21">
    <path d="M 182.223706 183.398478 
Q 180.743174 183.639003 179.142236 183.760663 
Q 177.541299 183.883722 175.79766 183.883722 
Q 170.597958 183.883722 167.561083 182.971967 
Q 164.524207 182.060212 164.524207 180.500999 
Q 164.524207 178.936192 167.561083 178.025835 
Q 170.597958 177.11408 175.79766 177.11408 
Q 177.541299 177.11408 179.142236 177.237139 
Q 180.743174 177.358799 182.223706 177.599324 
L 182.223706 178.948777 
Q 180.729795 178.629943 179.280479 178.481712 
Q 177.831162 178.333482 176.230225 178.333482 
Q 173.358349 178.333482 171.712817 178.911021 
Q 170.071745 179.48716 170.071745 180.500999 
Q 170.071745 181.510642 171.712817 182.08818 
Q 173.358349 182.66432 176.230225 182.66432 
Q 177.831162 182.66432 179.280479 182.51609 
Q 180.729795 182.366461 182.223706 182.047626 
L 182.223706 183.398478 
z
" clip-path="url(#pff995d1ec8)" style="fill: #0000ff"/>
   </g>
   <g id="patch_22">
    <path d="M 164.524207 157.016703 
L 182.223706 157.016703 
L 182.223706 160.936251 
L 175.856003 160.936251 
L 175.856003 177.11408 
L 170.904259 177.11408 
L 170.904259 160.936251 
L 164.524207 160.936251 
L 164.524207 157.016703 
z
" clip-path="url(#pff995d1ec8)" style="fill: #ff0000"/>
   </g>
   <g id="patch_23">
    <path d="M 200.854758 192.132006 
Q 199.374225 192.185536 197.773288 192.212612 
Q 196.172351 192.24 194.428711 192.24 
Q 189.22901 192.24 186.192134 192.037083 
Q 183.155259 191.834165 183.155259 191.487151 
Q 183.155259 191.138892 186.192134 190.936286 
Q 189.22901 190.733369 194.428711 190.733369 
Q 196.172351 190.733369 197.773288 190.760756 
Q 199.374225 190.787833 200.854758 190.841363 
L 200.854758 191.141693 
Q 199.360847 191.070735 197.911531 191.037745 
Q 196.462214 191.004755 194.861277 191.004755 
Q 191.9894 191.004755 190.343869 191.13329 
Q 188.702796 191.261514 188.702796 191.487151 
Q 188.702796 191.711854 190.343869 191.840389 
Q 191.9894 191.968613 194.861277 191.968613 
Q 196.462214 191.968613 197.911531 191.935624 
Q 199.360847 191.902323 200.854758 191.831364 
L 200.854758 192.132006 
z
" clip-path="url(#pff995d1ec8)" style="fill: #0000ff"/>
   </g>
   <g id="patch_24">
    <path d="M 200.854758 190.311439 
Q 199.069734 190.522404 197.149843 190.628368 
Q 195.229951 190.733369 193.183124 190.733369 
Q 188.55793 190.733369 185.856594 190.105291 
Q 183.155259 189.477213 183.155259 188.403122 
Q 183.155259 187.316509 185.904195 186.693248 
Q 188.657098 186.069986 193.444927 186.069986 
Q 195.289451 186.069986 196.979274 186.154757 
Q 198.673063 186.238565 200.172482 186.404255 
L 200.172482 187.333849 
Q 198.625462 187.120957 197.094309 187.015956 
Q 195.563155 186.909992 194.024068 186.909992 
Q 191.175964 186.909992 189.632911 187.297243 
Q 188.089857 187.68353 188.089857 188.403122 
Q 188.089857 189.115972 189.577376 189.505149 
Q 191.064896 189.893363 193.801932 189.893363 
Q 194.547675 189.893363 195.186317 189.871206 
Q 195.824959 189.848087 196.332699 189.799922 
L 196.332699 188.927163 
L 193.41716 188.927163 
L 193.41716 188.149772 
L 200.854758 188.149772 
L 200.854758 190.311439 
z
" clip-path="url(#pff995d1ec8)" style="fill: #ffa600"/>
   </g>
   <g id="patch_25">
    <path d="M 183.155259 178.53683 
L 200.854758 178.53683 
L 200.854758 180.006005 
L 194.487054 180.006005 
L 194.487054 186.069986 
L 189.535311 186.069986 
L 189.535311 180.006005 
L 183.155259 180.006005 
L 183.155259 178.53683 
z
" clip-path="url(#pff995d1ec8)" style="fill: #ff0000"/>
   </g>
   <g id="patch_26">
    <path d="M 195.415717 176.680948 
L 188.608774 176.680948 
L 187.533994 178.53683 
L 183.155259 178.53683 
L 189.408527 168.349132 
L 194.60149 168.349132 
L 200.854758 178.53683 
L 196.479641 178.53683 
L 195.415717 176.680948 
z
M 189.694411 174.790133 
L 194.319224 174.790133 
L 192.010437 170.737761 
L 189.694411 174.790133 
z
" clip-path="url(#pff995d1ec8)" style="fill: #008000"/>
   </g>
   <g id="patch_27">
    <path d="M 219.48581 192.121143 
Q 217.700786 192.180572 215.780894 192.210421 
Q 213.861002 192.24 211.814176 192.24 
Q 207.188981 192.24 204.487646 192.063071 
Q 201.786311 191.886143 201.786311 191.583573 
Q 201.786311 191.277476 204.535247 191.101904 
Q 207.288149 190.926332 212.075979 190.926332 
Q 213.920503 190.926332 215.610325 190.950212 
Q 217.304114 190.973821 218.803534 191.020495 
L 218.803534 191.28236 
Q 217.256514 191.222389 215.72536 191.192811 
Q 214.194207 191.162961 212.65512 191.162961 
Q 209.807016 191.162961 208.263962 191.272048 
Q 206.720909 191.380865 206.720909 191.583573 
Q 206.720909 191.784382 208.208428 191.894012 
Q 209.695948 192.003372 212.432984 192.003372 
Q 213.178727 192.003372 213.817369 191.99713 
Q 214.45601 191.990617 214.96375 191.977049 
L 214.96375 191.731195 
L 212.048212 191.731195 
L 212.048212 191.512205 
L 219.48581 191.512205 
L 219.48581 192.121143 
z
" clip-path="url(#pff995d1ec8)" style="fill: #ffa600"/>
   </g>
   <g id="patch_28">
    <path d="M 201.786311 185.202494 
L 219.48581 185.202494 
L 219.48581 186.318802 
L 213.118106 186.318802 
L 213.118106 190.926332 
L 208.166363 190.926332 
L 208.166363 186.318802 
L 201.786311 186.318802 
L 201.786311 185.202494 
z
" clip-path="url(#pff995d1ec8)" style="fill: #ff0000"/>
   </g>
   <g id="patch_29">
    <path d="M 214.046769 183.339299 
L 207.239826 183.339299 
L 206.165046 185.202494 
L 201.786311 185.202494 
L 208.039579 174.974651 
L 213.232542 174.974651 
L 219.48581 185.202494 
L 215.110693 185.202494 
L 214.046769 183.339299 
z
M 208.325463 181.441032 
L 212.950276 181.441032 
L 210.641488 177.372692 
L 208.325463 181.441032 
z
" clip-path="url(#pff995d1ec8)" style="fill: #008000"/>
   </g>
   <g id="patch_30">
    <path d="M 219.48581 173.972488 
Q 218.005277 174.469238 216.40434 174.7205 
Q 214.803402 174.974651 213.059763 174.974651 
Q 207.860062 174.974651 204.823186 173.091625 
Q 201.786311 171.208599 201.786311 167.988393 
Q 201.786311 164.756636 204.823186 162.876498 
Q 207.860062 160.993472 213.059763 160.993472 
Q 214.803402 160.993472 216.40434 161.247622 
Q 218.005277 161.498885 219.48581 161.995634 
L 219.48581 164.782628 
Q 217.991899 164.124147 216.542582 163.818011 
Q 215.093266 163.511875 213.492328 163.511875 
Q 210.620452 163.511875 208.97492 164.70465 
Q 207.333848 165.894538 207.333848 167.988393 
Q 207.333848 170.073585 208.97492 171.26636 
Q 210.620452 172.456248 213.492328 172.456248 
Q 215.093266 172.456248 216.542582 172.150112 
Q 217.991899 171.841088 219.48581 171.182606 
L 219.48581 173.972488 
z
" clip-path="url(#pff995d1ec8)" style="fill: #0000ff"/>
   </g>
   <g id="patch_31">
    <path d="M 238.116861 191.991889 
Q 236.331838 192.115945 234.411946 192.178256 
Q 232.492054 192.24 230.445227 192.24 
Q 225.820033 192.24 223.118698 191.870666 
Q 220.417362 191.501333 220.417362 190.869727 
Q 220.417362 190.230757 223.166298 189.864255 
Q 225.919201 189.497754 230.707031 189.497754 
Q 232.551555 189.497754 234.241377 189.547603 
Q 235.935166 189.596885 237.434586 189.694317 
L 237.434586 190.240953 
Q 235.887565 190.115765 234.356412 190.05402 
Q 232.825259 189.99171 231.286172 189.99171 
Q 228.438068 189.99171 226.895014 190.219428 
Q 225.35196 190.446579 225.35196 190.869727 
Q 225.35196 191.288909 226.83948 191.51776 
Q 228.327 191.746045 231.064035 191.746045 
Q 231.809779 191.746045 232.44842 191.733016 
Q 233.087062 191.719421 233.594802 191.691098 
L 233.594802 191.177882 
L 230.679264 191.177882 
L 230.679264 190.720747 
L 238.116861 190.720747 
L 238.116861 191.991889 
z
" clip-path="url(#pff995d1ec8)" style="fill: #ffa600"/>
   </g>
   <g id="patch_32">
    <path d="M 232.677821 188.657599 
L 225.870878 188.657599 
L 224.796097 189.497754 
L 220.417362 189.497754 
L 226.67063 184.885795 
L 231.863593 184.885795 
L 238.116861 189.497754 
L 233.741745 189.497754 
L 232.677821 188.657599 
z
M 226.956515 187.801629 
L 231.581328 187.801629 
L 229.27254 185.967124 
L 226.956515 187.801629 
z
" clip-path="url(#pff995d1ec8)" style="fill: #008000"/>
   </g>
   <g id="patch_33">
    <path d="M 238.116861 184.108479 
Q 236.636329 184.493777 235.035392 184.688666 
Q 233.434454 184.885795 231.690815 184.885795 
Q 226.491113 184.885795 223.454238 183.425248 
Q 220.417362 181.964701 220.417362 179.466987 
Q 220.417362 176.960312 223.454238 175.502006 
Q 226.491113 174.041459 231.690815 174.041459 
Q 233.434454 174.041459 235.035392 174.238588 
Q 236.636329 174.433477 238.116861 174.818774 
L 238.116861 176.980473 
Q 236.622951 176.46973 235.173634 176.232279 
Q 233.724318 175.994828 232.12338 175.994828 
Q 229.251504 175.994828 227.605972 176.919991 
Q 225.9649 177.842913 225.9649 179.466987 
Q 225.9649 181.084341 227.605972 182.009503 
Q 229.251504 182.932426 232.12338 182.932426 
Q 233.724318 182.932426 235.173634 182.694975 
Q 236.622951 182.455284 238.116861 181.94454 
L 238.116861 184.108479 
z
" clip-path="url(#pff995d1ec8)" style="fill: #0000ff"/>
   </g>
   <g id="patch_34">
    <path d="M 220.417362 150.732369 
L 238.116861 150.732369 
L 238.116861 155.278291 
L 231.749158 155.278291 
L 231.749158 174.041459 
L 226.797414 174.041459 
L 226.797414 155.278291 
L 220.417362 155.278291 
L 220.417362 150.732369 
z
" clip-path="url(#pff995d1ec8)" style="fill: #ff0000"/>
   </g>
   <g id="patch_35">
    <path d="M 256.747913 192.0455 
Q 254.96289 192.14275 253.042998 192.191597 
Q 251.123106 192.24 249.076279 192.24 
Q 244.451085 192.24 241.74975 191.950471 
Q 239.048414 191.660942 239.048414 191.165812 
Q 239.048414 190.664909 241.79735 190.3776 
Q 244.550253 190.090291 249.338083 190.090291 
Q 251.182607 190.090291 252.872429 190.129369 
Q 254.566218 190.168002 256.065638 190.244381 
L 256.065638 190.672902 
Q 254.518617 190.574764 252.987464 190.526361 
Q 251.45631 190.477514 249.917223 190.477514 
Q 247.069119 190.477514 245.526066 190.656028 
Q 243.983012 190.834097 243.983012 191.165812 
Q 243.983012 191.494418 245.470532 191.67382 
Q 246.958051 191.852777 249.695087 191.852777 
Q 250.44083 191.852777 251.079472 191.842564 
Q 251.718114 191.831906 252.225854 191.809703 
L 252.225854 191.407382 
L 249.310315 191.407382 
L 249.310315 191.049023 
L 256.747913 191.049023 
L 256.747913 192.0455 
z
" clip-path="url(#pff995d1ec8)" style="fill: #ffa600"/>
   </g>
   <g id="patch_36">
    <path d="M 239.048414 184.255368 
L 256.747913 184.255368 
L 256.747913 185.393341 
L 250.38021 185.393341 
L 250.38021 190.090291 
L 245.428466 190.090291 
L 245.428466 185.393341 
L 239.048414 185.393341 
L 239.048414 184.255368 
z
" clip-path="url(#pff995d1ec8)" style="fill: #ff0000"/>
   </g>
   <g id="patch_37">
    <path d="M 256.747913 183.690372 
Q 255.267381 183.970428 253.666443 184.112084 
Q 252.065506 184.255368 250.321867 184.255368 
Q 245.122165 184.255368 242.08529 183.193762 
Q 239.048414 182.132155 239.048414 180.316678 
Q 239.048414 178.494688 242.08529 177.43471 
Q 245.122165 176.373103 250.321867 176.373103 
Q 252.065506 176.373103 253.666443 176.516388 
Q 255.267381 176.658044 256.747913 176.938099 
L 256.747913 178.509342 
Q 255.254002 178.138105 253.804686 177.965513 
Q 252.355369 177.79292 250.754432 177.79292 
Q 247.882556 177.79292 246.237024 178.46538 
Q 244.595952 179.136211 244.595952 180.316678 
Q 244.595952 181.492261 246.237024 182.16472 
Q 247.882556 182.835551 250.754432 182.835551 
Q 252.355369 182.835551 253.804686 182.662958 
Q 255.254002 182.488738 256.747913 182.117501 
L 256.747913 183.690372 
z
" clip-path="url(#pff995d1ec8)" style="fill: #0000ff"/>
   </g>
   <g id="patch_38">
    <path d="M 251.308873 173.053742 
L 244.50193 173.053742 
L 243.427149 176.373103 
L 239.048414 176.373103 
L 245.301682 158.151764 
L 250.494645 158.151764 
L 256.747913 176.373103 
L 252.372797 176.373103 
L 251.308873 173.053742 
z
M 245.587567 169.671899 
L 250.212379 169.671899 
L 247.903592 162.423977 
L 245.587567 169.671899 
z
" clip-path="url(#pff995d1ec8)" style="fill: #008000"/>
   </g>
   <g id="patch_39">
    <path d="M 269.939924 192.035881 
L 263.132981 192.035881 
L 262.058201 192.24 
L 257.679466 192.24 
L 263.932734 191.119506 
L 269.125697 191.119506 
L 275.378965 192.24 
L 271.003849 192.24 
L 269.939924 192.035881 
z
M 264.218618 191.827919 
L 268.843431 191.827919 
L 266.534644 191.382219 
L 264.218618 191.827919 
z
" clip-path="url(#pff995d1ec8)" style="fill: #008000"/>
   </g>
   <g id="patch_40">
    <path d="M 275.378965 191.001775 
Q 273.593941 191.06064 271.67405 191.090207 
Q 269.754158 191.119506 267.707331 191.119506 
Q 263.082137 191.119506 260.380801 190.944254 
Q 257.679466 190.769002 257.679466 190.469299 
Q 257.679466 190.166102 260.428402 189.992194 
Q 263.181305 189.818286 267.969134 189.818286 
Q 269.813659 189.818286 271.503481 189.84194 
Q 273.19727 189.865325 274.696689 189.911557 
L 274.696689 190.170941 
Q 273.149669 190.111538 271.618516 190.082239 
Q 270.087362 190.052672 268.548275 190.052672 
Q 265.700171 190.052672 264.157118 190.160727 
Q 262.614064 190.268512 262.614064 190.469299 
Q 262.614064 190.668205 264.101583 190.776797 
Q 265.589103 190.885119 268.326139 190.885119 
Q 269.071882 190.885119 269.710524 190.878937 
Q 270.349166 190.872486 270.856906 190.859047 
L 270.856906 190.615522 
L 267.941367 190.615522 
L 267.941367 190.398607 
L 275.378965 190.398607 
L 275.378965 191.001775 
z
" clip-path="url(#pff995d1ec8)" style="fill: #ffa600"/>
   </g>
   <g id="patch_41">
    <path d="M 257.679466 188.498994 
L 275.378965 188.498994 
L 275.378965 188.756293 
L 269.011261 188.756293 
L 269.011261 189.818286 
L 264.059518 189.818286 
L 264.059518 188.756293 
L 257.679466 188.756293 
L 257.679466 188.498994 
z
" clip-path="url(#pff995d1ec8)" style="fill: #ff0000"/>
   </g>
   <g id="patch_42">
    <path d="M 275.378965 188.335771 
Q 273.898432 188.416677 272.297495 188.457601 
Q 270.696558 188.498994 268.952919 188.498994 
Q 263.753217 188.498994 260.716341 188.192303 
Q 257.679466 187.885612 257.679466 187.361133 
Q 257.679466 186.834772 260.716341 186.528552 
Q 263.753217 186.221861 268.952919 186.221861 
Q 270.696558 186.221861 272.297495 186.263254 
Q 273.898432 186.304178 275.378965 186.385084 
L 275.378965 186.839006 
Q 273.885054 186.731758 272.435738 186.681897 
Q 270.986421 186.632036 269.385484 186.632036 
Q 266.513607 186.632036 264.868076 186.826305 
Q 263.227003 187.020104 263.227003 187.361133 
Q 263.227003 187.700751 264.868076 187.89502 
Q 266.513607 188.088819 269.385484 188.088819 
Q 270.986421 188.088819 272.435738 188.038958 
Q 273.885054 187.988627 275.378965 187.881379 
L 275.378965 188.335771 
z
" clip-path="url(#pff995d1ec8)" style="fill: #0000ff"/>
   </g>
   <g id="patch_43">
    <path d="M 294.010017 192.061613 
Q 292.224993 192.150806 290.305101 192.195607 
Q 288.385209 192.24 286.338383 192.24 
Q 281.713188 192.24 279.011853 191.974456 
Q 276.310518 191.708912 276.310518 191.254799 
Q 276.310518 190.795391 279.059454 190.531883 
Q 281.812356 190.268375 286.600186 190.268375 
Q 288.44471 190.268375 290.134532 190.304216 
Q 291.828321 190.339649 293.327741 190.4097 
L 293.327741 190.802722 
Q 291.780721 190.712714 290.249567 190.668321 
Q 288.718414 190.62352 287.179327 190.62352 
Q 284.331223 190.62352 282.788169 190.787245 
Q 281.245116 190.950563 281.245116 191.254799 
Q 281.245116 191.556183 282.732635 191.720723 
Q 284.220155 191.884855 286.957191 191.884855 
Q 287.702934 191.884855 288.341576 191.875488 
Q 288.980217 191.865713 289.487957 191.845349 
L 289.487957 191.476357 
L 286.572419 191.476357 
L 286.572419 191.147685 
L 294.010017 191.147685 
L 294.010017 192.061613 
z
" clip-path="url(#pff995d1ec8)" style="fill: #ffa600"/>
   </g>
   <g id="patch_44">
    <path d="M 276.310518 186.325126 
L 294.010017 186.325126 
L 294.010017 187.09417 
L 287.642313 187.09417 
L 287.642313 190.268375 
L 282.69057 190.268375 
L 282.69057 187.09417 
L 276.310518 187.09417 
L 276.310518 186.325126 
z
" clip-path="url(#pff995d1ec8)" style="fill: #ff0000"/>
   </g>
   <g id="patch_45">
    <path d="M 294.010017 185.288744 
Q 292.529484 185.802455 290.928547 186.062297 
Q 289.32761 186.325126 287.58397 186.325126 
Q 282.384269 186.325126 279.347393 184.377802 
Q 276.310518 182.430479 276.310518 179.100316 
Q 276.310518 175.758206 279.347393 173.813869 
Q 282.384269 171.866546 287.58397 171.866546 
Q 289.32761 171.866546 290.928547 172.129375 
Q 292.529484 172.389217 294.010017 172.902928 
L 294.010017 175.785087 
Q 292.516106 175.104121 291.066789 174.787531 
Q 289.617473 174.470942 288.016535 174.470942 
Q 285.144659 174.470942 283.499127 175.704446 
Q 281.858055 176.934963 281.858055 179.100316 
Q 281.858055 181.256708 283.499127 182.490212 
Q 285.144659 183.72073 288.016535 183.72073 
Q 289.617473 183.72073 291.066789 183.40414 
Q 292.516106 183.084564 294.010017 182.403598 
L 294.010017 185.288744 
z
" clip-path="url(#pff995d1ec8)" style="fill: #0000ff"/>
   </g>
   <g id="patch_46">
    <path d="M 288.570976 155.644095 
L 281.764033 155.644095 
L 280.689253 171.866546 
L 276.310518 171.866546 
L 282.563786 82.814833 
L 287.756749 82.814833 
L 294.010017 171.866546 
L 289.6349 171.866546 
L 288.570976 155.644095 
z
M 282.84967 139.11628 
L 287.474483 139.11628 
L 285.165695 103.694082 
L 282.84967 139.11628 
z
" clip-path="url(#pff995d1ec8)" style="fill: #008000"/>
   </g>
   <g id="patch_47">
    <path d="M 312.641068 192.014578 
Q 310.856045 192.127289 308.936153 192.183902 
Q 307.016261 192.24 304.969434 192.24 
Q 300.34424 192.24 297.642905 191.904441 
Q 294.941569 191.568881 294.941569 190.995033 
Q 294.941569 190.414495 297.690505 190.081509 
Q 300.443408 189.748523 305.231238 189.748523 
Q 307.075762 189.748523 308.765584 189.793813 
Q 310.459373 189.838589 311.958793 189.92711 
L 311.958793 190.423759 
Q 310.411772 190.310019 308.880619 190.253921 
Q 307.349466 190.197308 305.810379 190.197308 
Q 302.962275 190.197308 301.419221 190.404202 
Q 299.876167 190.610581 299.876167 190.995033 
Q 299.876167 191.375883 301.363687 191.583806 
Q 302.851207 191.791215 305.588242 191.791215 
Q 306.333986 191.791215 306.972627 191.779378 
Q 307.611269 191.767026 308.119009 191.741293 
L 308.119009 191.275009 
L 305.203471 191.275009 
L 305.203471 190.859677 
L 312.641068 190.859677 
L 312.641068 192.014578 
z
" clip-path="url(#pff995d1ec8)" style="fill: #ffa600"/>
   </g>
   <g id="patch_48">
    <path d="M 294.941569 183.208396 
L 312.641068 183.208396 
L 312.641068 184.483903 
L 306.273365 184.483903 
L 306.273365 189.748523 
L 301.321621 189.748523 
L 301.321621 184.483903 
L 294.941569 184.483903 
L 294.941569 183.208396 
z
" clip-path="url(#pff995d1ec8)" style="fill: #ff0000"/>
   </g>
   <g id="patch_49">
    <path d="M 312.641068 182.449398 
Q 311.160536 182.825616 309.559599 183.015912 
Q 307.958661 183.208396 306.215022 183.208396 
Q 301.01532 183.208396 297.978445 181.782268 
Q 294.941569 180.356141 294.941569 177.917288 
Q 294.941569 175.469685 297.978445 174.045745 
Q 301.01532 172.619618 306.215022 172.619618 
Q 307.958661 172.619618 309.559599 172.812101 
Q 311.160536 173.002397 312.641068 173.378615 
L 312.641068 175.489371 
Q 311.147158 174.990664 309.697841 174.758809 
Q 308.248525 174.526954 306.647587 174.526954 
Q 303.775711 174.526954 302.130179 175.430314 
Q 300.489107 176.331486 300.489107 177.917288 
Q 300.489107 179.496527 302.130179 180.399887 
Q 303.775711 181.301059 306.647587 181.301059 
Q 308.248525 181.301059 309.697841 181.069204 
Q 311.147158 180.835162 312.641068 180.336455 
L 312.641068 182.449398 
z
" clip-path="url(#pff995d1ec8)" style="fill: #0000ff"/>
   </g>
   <g id="patch_50">
    <path d="M 307.202028 157.301519 
L 300.395085 157.301519 
L 299.320305 172.619618 
L 294.941569 172.619618 
L 301.194837 88.532266 
L 306.3878 88.532266 
L 312.641068 172.619618 
L 308.265952 172.619618 
L 307.202028 157.301519 
z
M 301.480722 141.695079 
L 306.105535 141.695079 
L 303.796747 108.24756 
L 301.480722 141.695079 
z
" clip-path="url(#pff995d1ec8)" style="fill: #008000"/>
   </g>
   <g id="patch_51">
    <path d="M 331.27212 191.916485 
Q 329.487097 192.078242 327.567205 192.15949 
Q 325.647313 192.24 323.600486 192.24 
Q 318.975292 192.24 316.273957 191.75842 
Q 313.572621 191.27684 313.572621 190.453279 
Q 313.572621 189.620116 316.321557 189.142229 
Q 319.07446 188.664342 323.86229 188.664342 
Q 325.706814 188.664342 327.396636 188.729341 
Q 329.090425 188.793601 330.589845 188.920643 
L 330.589845 189.633411 
Q 329.042824 189.470176 327.511671 189.389667 
Q 325.980517 189.308418 324.44143 189.308418 
Q 321.593326 189.308418 320.050273 189.605344 
Q 318.507219 189.90153 318.507219 190.453279 
Q 318.507219 190.999858 319.994739 191.29826 
Q 321.482258 191.595924 324.219294 191.595924 
Q 324.965037 191.595924 325.603679 191.578935 
Q 326.242321 191.561209 326.750061 191.524278 
L 326.750061 190.855088 
L 323.834523 190.855088 
L 323.834523 190.259022 
L 331.27212 190.259022 
L 331.27212 191.916485 
z
" clip-path="url(#pff995d1ec8)" style="fill: #ffa600"/>
   </g>
   <g id="patch_52">
    <path d="M 331.27212 188.250317 
Q 329.791588 188.45554 328.19065 188.559344 
Q 326.589713 188.664342 324.846074 188.664342 
Q 319.646372 188.664342 316.609497 187.886405 
Q 313.572621 187.108468 313.572621 185.7781 
Q 313.572621 184.44296 316.609497 183.666216 
Q 319.646372 182.888279 324.846074 182.888279 
Q 326.589713 182.888279 328.19065 182.993277 
Q 329.791588 183.097081 331.27212 183.302304 
L 331.27212 184.453698 
Q 329.778209 184.181659 328.328893 184.055185 
Q 326.879576 183.92871 325.278639 183.92871 
Q 322.406763 183.92871 320.761231 184.421483 
Q 319.120159 184.913063 319.120159 185.7781 
Q 319.120159 186.639558 320.761231 187.132331 
Q 322.406763 187.623911 325.278639 187.623911 
Q 326.879576 187.623911 328.328893 187.497437 
Q 329.778209 187.369769 331.27212 187.09773 
L 331.27212 188.250317 
z
" clip-path="url(#pff995d1ec8)" style="fill: #0000ff"/>
   </g>
   <g id="patch_53">
    <path d="M 313.572621 171.886255 
L 331.27212 171.886255 
L 331.27212 174.031956 
L 324.904417 174.031956 
L 324.904417 182.888279 
L 319.952673 182.888279 
L 319.952673 174.031956 
L 313.572621 174.031956 
L 313.572621 171.886255 
z
" clip-path="url(#pff995d1ec8)" style="fill: #ff0000"/>
   </g>
   <g id="patch_54">
    <path d="M 325.83308 158.908888 
L 319.026137 158.908888 
L 317.951356 171.886255 
L 313.572621 171.886255 
L 319.825889 100.648147 
L 325.018852 100.648147 
L 331.27212 171.886255 
L 326.897004 171.886255 
L 325.83308 158.908888 
z
M 320.111774 145.687242 
L 324.736586 145.687242 
L 322.427799 117.350781 
L 320.111774 145.687242 
z
" clip-path="url(#pff995d1ec8)" style="fill: #008000"/>
   </g>
   <g id="patch_55">
    <path d="M 349.903172 192.050512 
Q 348.118149 192.145256 346.198257 192.192844 
Q 344.278365 192.24 342.231538 192.24 
Q 337.606344 192.24 334.905008 191.957932 
Q 332.203673 191.675864 332.203673 191.193492 
Q 332.203673 190.705497 334.952609 190.425592 
Q 337.705512 190.145687 342.493341 190.145687 
Q 344.337866 190.145687 346.027688 190.183758 
Q 347.721477 190.221395 349.220896 190.295806 
L 349.220896 190.713284 
Q 347.673876 190.617675 346.142723 190.57052 
Q 344.611569 190.522932 343.072482 190.522932 
Q 340.224378 190.522932 338.681325 190.696845 
Q 337.138271 190.870325 337.138271 191.193492 
Q 337.138271 191.513631 338.62579 191.68841 
Q 340.11331 191.862755 342.850346 191.862755 
Q 343.596089 191.862755 344.234731 191.852805 
Q 344.873373 191.842422 345.381113 191.820791 
L 345.381113 191.428838 
L 342.465574 191.428838 
L 342.465574 191.079713 
L 349.903172 191.079713 
L 349.903172 192.050512 
z
" clip-path="url(#pff995d1ec8)" style="fill: #ffa600"/>
   </g>
   <g id="patch_56">
    <path d="M 349.903172 189.915504 
Q 348.422639 190.029601 346.821702 190.087312 
Q 345.220765 190.145687 343.477126 190.145687 
Q 338.277424 190.145687 335.240548 189.713182 
Q 332.203673 189.280678 332.203673 188.541042 
Q 332.203673 187.798753 335.240548 187.366912 
Q 338.277424 186.934407 343.477126 186.934407 
Q 345.220765 186.934407 346.821702 186.992782 
Q 348.422639 187.050493 349.903172 187.16459 
L 349.903172 187.804723 
Q 348.409261 187.653479 346.959945 187.583164 
Q 345.510628 187.512849 343.909691 187.512849 
Q 341.037814 187.512849 339.392283 187.786813 
Q 337.75121 188.060113 337.75121 188.541042 
Q 337.75121 189.019981 339.392283 189.293945 
Q 341.037814 189.567245 343.909691 189.567245 
Q 345.510628 189.567245 346.959945 189.49693 
Q 348.409261 189.425952 349.903172 189.274708 
L 349.903172 189.915504 
z
" clip-path="url(#pff995d1ec8)" style="fill: #0000ff"/>
   </g>
   <g id="patch_57">
    <path d="M 344.464131 185.332029 
L 337.657188 185.332029 
L 336.582408 186.934407 
L 332.203673 186.934407 
L 338.456941 178.138293 
L 343.649904 178.138293 
L 349.903172 186.934407 
L 345.528056 186.934407 
L 344.464131 185.332029 
z
M 338.742825 183.699488 
L 343.367638 183.699488 
L 341.058851 180.200648 
L 338.742825 183.699488 
z
" clip-path="url(#pff995d1ec8)" style="fill: #008000"/>
   </g>
   <g id="patch_58">
    <path d="M 332.203673 168.993126 
L 349.903172 168.993126 
L 349.903172 170.776688 
L 343.535468 170.776688 
L 343.535468 178.138293 
L 338.583725 178.138293 
L 338.583725 170.776688 
L 332.203673 170.776688 
L 332.203673 168.993126 
z
" clip-path="url(#pff995d1ec8)" style="fill: #ff0000"/>
   </g>
   <g id="patch_59">
    <path d="M 368.534224 192.044888 
Q 366.7492 192.142444 364.829308 192.191445 
Q 362.909416 192.24 360.86259 192.24 
Q 356.237396 192.24 353.53606 191.949559 
Q 350.834725 191.659118 350.834725 191.162429 
Q 350.834725 190.659948 353.583661 190.371734 
Q 356.336563 190.083521 361.124393 190.083521 
Q 362.968917 190.083521 364.658739 190.122721 
Q 366.352528 190.161477 367.851948 190.238096 
L 367.851948 190.667966 
Q 366.304928 190.569519 364.773774 190.520964 
Q 363.242621 190.471963 361.703534 190.471963 
Q 358.85543 190.471963 357.312376 190.651039 
Q 355.769323 190.829669 355.769323 191.162429 
Q 355.769323 191.49207 357.256842 191.672037 
Q 358.744362 191.851558 361.481398 191.851558 
Q 362.227141 191.851558 362.865783 191.841312 
Q 363.504424 191.830621 364.012164 191.808348 
L 364.012164 191.40476 
L 361.096626 191.40476 
L 361.096626 191.045272 
L 368.534224 191.045272 
L 368.534224 192.044888 
z
" clip-path="url(#pff995d1ec8)" style="fill: #ffa600"/>
   </g>
   <g id="patch_60">
    <path d="M 368.534224 189.774371 
Q 367.053691 189.927609 365.452754 190.00512 
Q 363.851817 190.083521 362.108177 190.083521 
Q 356.908476 190.083521 353.8716 189.502639 
Q 350.834725 188.921757 350.834725 187.928378 
Q 350.834725 186.931435 353.8716 186.351444 
Q 356.908476 185.770562 362.108177 185.770562 
Q 363.851817 185.770562 365.452754 185.848964 
Q 367.053691 185.926474 368.534224 186.079713 
L 368.534224 186.939453 
Q 367.040313 186.736323 365.590996 186.641885 
Q 364.14168 186.547447 362.540743 186.547447 
Q 359.668866 186.547447 358.023334 186.915399 
Q 356.382262 187.282459 356.382262 187.928378 
Q 356.382262 188.571624 358.023334 188.939576 
Q 359.668866 189.306636 362.540743 189.306636 
Q 364.14168 189.306636 365.590996 189.212198 
Q 367.040313 189.116869 368.534224 188.913739 
L 368.534224 189.774371 
z
" clip-path="url(#pff995d1ec8)" style="fill: #0000ff"/>
   </g>
   <g id="patch_61">
    <path d="M 363.095183 184.837559 
L 356.28824 184.837559 
L 355.21346 185.770562 
L 350.834725 185.770562 
L 357.087993 180.648924 
L 362.280956 180.648924 
L 368.534224 185.770562 
L 364.159107 185.770562 
L 363.095183 184.837559 
z
M 357.373877 183.886994 
L 361.99869 183.886994 
L 359.689902 181.849754 
L 357.373877 183.886994 
z
" clip-path="url(#pff995d1ec8)" style="fill: #008000"/>
   </g>
   <g id="patch_62">
    <path d="M 350.834725 169.799139 
L 368.534224 169.799139 
L 368.534224 171.915149 
L 362.16652 171.915149 
L 362.16652 180.648924 
L 357.214777 180.648924 
L 357.214777 171.915149 
L 350.834725 171.915149 
L 350.834725 169.799139 
z
" clip-path="url(#pff995d1ec8)" style="fill: #ff0000"/>
   </g>
   <g id="patch_63">
    <path d="M 387.165275 192.094685 
Q 385.684743 192.166714 384.083806 192.203148 
Q 382.482868 192.24 380.739229 192.24 
Q 375.539527 192.24 372.502652 191.966959 
Q 369.465776 191.693917 369.465776 191.226983 
Q 369.465776 190.758374 372.502652 190.485752 
Q 375.539527 190.21271 380.739229 190.21271 
Q 382.482868 190.21271 384.083806 190.249563 
Q 385.684743 190.285996 387.165275 190.358025 
L 387.165275 190.762143 
Q 385.671365 190.666663 384.222048 190.622272 
Q 382.772732 190.577882 381.171794 190.577882 
Q 378.299918 190.577882 376.654386 190.750836 
Q 375.013314 190.923372 375.013314 191.226983 
Q 375.013314 191.529339 376.654386 191.702293 
Q 378.299918 191.874828 381.171794 191.874828 
Q 382.772732 191.874828 384.222048 191.830438 
Q 385.671365 191.785629 387.165275 191.690148 
L 387.165275 192.094685 
z
" clip-path="url(#pff995d1ec8)" style="fill: #0000ff"/>
   </g>
   <g id="patch_64">
    <path d="M 387.165275 189.959884 
Q 385.380252 190.086297 383.46036 190.149792 
Q 381.540468 190.21271 379.493641 190.21271 
Q 374.868447 190.21271 372.167112 189.836356 
Q 369.465776 189.460002 369.465776 188.81639 
Q 369.465776 188.165274 372.214712 187.791806 
Q 374.967615 187.418338 379.755445 187.418338 
Q 381.599969 187.418338 383.289791 187.469135 
Q 384.98358 187.519354 386.483 187.618637 
L 386.483 188.175665 
Q 384.93598 188.048097 383.404826 187.985179 
Q 381.873673 187.921683 380.334586 187.921683 
Q 377.486482 187.921683 375.943428 188.15373 
Q 374.400374 188.385199 374.400374 188.81639 
Q 374.400374 189.243541 375.887894 189.476742 
Q 377.375414 189.709366 380.112449 189.709366 
Q 380.858193 189.709366 381.496834 189.696089 
Q 382.135476 189.682236 382.643216 189.653374 
L 382.643216 189.130404 
L 379.727678 189.130404 
L 379.727678 188.664579 
L 387.165275 188.664579 
L 387.165275 189.959884 
z
" clip-path="url(#pff995d1ec8)" style="fill: #ffa600"/>
   </g>
   <g id="patch_65">
    <path d="M 381.726235 186.370299 
L 374.919292 186.370299 
L 373.844512 187.418338 
L 369.465776 187.418338 
L 375.719044 181.66522 
L 380.912007 181.66522 
L 387.165275 187.418338 
L 382.790159 187.418338 
L 381.726235 186.370299 
z
M 376.004929 185.302532 
L 380.629742 185.302532 
L 378.320954 183.014108 
L 376.004929 185.302532 
z
" clip-path="url(#pff995d1ec8)" style="fill: #008000"/>
   </g>
   <g id="patch_66">
    <path d="M 369.465776 173.994394 
L 387.165275 173.994394 
L 387.165275 175.490419 
L 380.797572 175.490419 
L 380.797572 181.66522 
L 375.845828 181.66522 
L 375.845828 175.490419 
L 369.465776 175.490419 
L 369.465776 173.994394 
z
" clip-path="url(#pff995d1ec8)" style="fill: #ff0000"/>
   </g>
   <g id="patch_67">
    <path d="M 405.796327 192.012045 
Q 404.011304 192.126023 402.091412 192.183272 
Q 400.17152 192.24 398.124693 192.24 
Q 393.499499 192.24 390.798164 191.90067 
Q 388.096828 191.56134 388.096828 190.981044 
Q 388.096828 190.393982 390.845764 190.057254 
Q 393.598667 189.720526 398.386497 189.720526 
Q 400.231021 189.720526 401.920843 189.766326 
Q 403.614632 189.811604 405.114052 189.901121 
L 405.114052 190.40335 
Q 403.567031 190.288332 402.035878 190.231603 
Q 400.504724 190.174354 398.965637 190.174354 
Q 396.117533 190.174354 394.57448 190.383573 
Q 393.031426 190.592272 393.031426 190.981044 
Q 393.031426 191.366173 394.518946 191.576433 
Q 396.006465 191.786172 398.743501 191.786172 
Q 399.489244 191.786172 400.127886 191.774202 
Q 400.766528 191.761711 401.274268 191.735689 
L 401.274268 191.264166 
L 398.35873 191.264166 
L 398.35873 190.844167 
L 405.796327 190.844167 
L 405.796327 192.012045 
z
" clip-path="url(#pff995d1ec8)" style="fill: #ffa600"/>
   </g>
   <g id="patch_68">
    <path d="M 405.796327 189.293667 
Q 404.315795 189.505251 402.714857 189.612274 
Q 401.11392 189.720526 399.370281 189.720526 
Q 394.170579 189.720526 391.133704 188.918474 
Q 388.096828 188.116421 388.096828 186.744812 
Q 388.096828 185.368283 391.133704 184.56746 
Q 394.170579 183.765407 399.370281 183.765407 
Q 401.11392 183.765407 402.714857 183.873659 
Q 404.315795 183.980682 405.796327 184.192266 
L 405.796327 185.379354 
Q 404.302416 185.098881 402.8531 184.968486 
Q 401.403783 184.838091 399.802846 184.838091 
Q 396.93097 184.838091 395.285438 185.34614 
Q 393.644366 185.852959 393.644366 186.744812 
Q 393.644366 187.632975 395.285438 188.141024 
Q 396.93097 188.647842 399.802846 188.647842 
Q 401.403783 188.647842 402.8531 188.517447 
Q 404.302416 188.385822 405.796327 188.105349 
L 405.796327 189.293667 
z
" clip-path="url(#pff995d1ec8)" style="fill: #0000ff"/>
   </g>
   <g id="patch_69">
    <path d="M 388.096828 175.634378 
L 405.796327 175.634378 
L 405.796327 177.220156 
L 399.428624 177.220156 
L 399.428624 183.765407 
L 394.47688 183.765407 
L 394.47688 177.220156 
L 388.096828 177.220156 
L 388.096828 175.634378 
z
" clip-path="url(#pff995d1ec8)" style="fill: #ff0000"/>
   </g>
   <g id="patch_70">
    <path d="M 400.357287 171.712274 
L 393.550344 171.712274 
L 392.475563 175.634378 
L 388.096828 175.634378 
L 394.350096 154.104331 
L 399.543059 154.104331 
L 405.796327 175.634378 
L 401.421211 175.634378 
L 400.357287 171.712274 
z
M 394.635981 167.716341 
L 399.260793 167.716341 
L 396.952006 159.152311 
L 394.635981 167.716341 
z
" clip-path="url(#pff995d1ec8)" style="fill: #008000"/>
   </g>
   <g id="patch_71">
    <path d="M 424.427379 192.056674 
Q 422.642356 192.148337 420.722464 192.194378 
Q 418.802572 192.24 416.755745 192.24 
Q 412.130551 192.24 409.429215 191.967104 
Q 406.72788 191.694208 406.72788 191.227523 
Q 406.72788 190.755396 409.476816 190.484593 
Q 412.229719 190.213789 417.017548 190.213789 
Q 418.862073 190.213789 420.551895 190.250622 
Q 422.245684 190.287036 423.745103 190.359027 
L 423.745103 190.76293 
Q 422.198083 190.67043 420.66693 190.624808 
Q 419.135776 190.578767 417.596689 190.578767 
Q 414.748585 190.578767 413.205532 190.747025 
Q 411.662478 190.914864 411.662478 191.227523 
Q 411.662478 191.537251 413.149997 191.706346 
Q 414.637517 191.875023 417.374553 191.875023 
Q 418.120296 191.875023 418.758938 191.865396 
Q 419.39758 191.855351 419.90532 191.834423 
L 419.90532 191.455215 
L 416.989781 191.455215 
L 416.989781 191.117443 
L 424.427379 191.117443 
L 424.427379 192.056674 
z
" clip-path="url(#pff995d1ec8)" style="fill: #ffa600"/>
   </g>
   <g id="patch_72">
    <path d="M 418.988338 189.475564 
L 412.181395 189.475564 
L 411.106615 190.213789 
L 406.72788 190.213789 
L 412.981148 186.161368 
L 418.174111 186.161368 
L 424.427379 190.213789 
L 420.052263 190.213789 
L 418.988338 189.475564 
z
M 413.267032 188.723443 
L 417.891845 188.723443 
L 415.583058 187.111507 
L 413.267032 188.723443 
z
" clip-path="url(#pff995d1ec8)" style="fill: #008000"/>
   </g>
   <g id="patch_73">
    <path d="M 424.427379 185.507799 
Q 422.946846 185.831759 421.345909 185.995622 
Q 419.744972 186.161368 418.001333 186.161368 
Q 412.801631 186.161368 409.764755 184.933337 
Q 406.72788 183.705305 406.72788 181.60522 
Q 406.72788 179.497601 409.764755 178.271453 
Q 412.801631 177.043421 418.001333 177.043421 
Q 419.744972 177.043421 421.345909 177.209168 
Q 422.946846 177.373031 424.427379 177.69699 
L 424.427379 179.514552 
Q 422.933468 179.085118 421.484152 178.885469 
Q 420.034835 178.685819 418.433898 178.685819 
Q 415.562021 178.685819 413.91649 179.463698 
Q 412.275417 180.239694 412.275417 181.60522 
Q 412.275417 182.965096 413.91649 183.742975 
Q 415.562021 184.51897 418.433898 184.51897 
Q 420.034835 184.51897 421.484152 184.319321 
Q 422.933468 184.117788 424.427379 183.688354 
L 424.427379 185.507799 
z
" clip-path="url(#pff995d1ec8)" style="fill: #0000ff"/>
   </g>
   <g id="patch_74">
    <path d="M 406.72788 164.126329 
L 424.427379 164.126329 
L 424.427379 166.645522 
L 418.059675 166.645522 
L 418.059675 177.043421 
L 413.107932 177.043421 
L 413.107932 166.645522 
L 406.72788 166.645522 
L 406.72788 164.126329 
z
" clip-path="url(#pff995d1ec8)" style="fill: #ff0000"/>
   </g>
   <g id="patch_75">
    <path d="M 443.058431 192.02627 
Q 441.577898 192.132211 439.976961 192.185798 
Q 438.376024 192.24 436.632384 192.24 
Q 431.432683 192.24 428.395807 191.838409 
Q 425.358932 191.436818 425.358932 190.750048 
Q 425.358932 190.060814 428.395807 189.659839 
Q 431.432683 189.258248 436.632384 189.258248 
Q 438.376024 189.258248 439.976961 189.31245 
Q 441.577898 189.366037 443.058431 189.471978 
L 443.058431 190.066357 
Q 441.56452 189.925924 440.115203 189.860634 
Q 438.665887 189.795345 437.06495 189.795345 
Q 434.193073 189.795345 432.547541 190.049727 
Q 430.906469 190.303493 430.906469 190.750048 
Q 430.906469 191.194754 432.547541 191.449137 
Q 434.193073 191.702903 437.06495 191.702903 
Q 438.665887 191.702903 440.115203 191.637613 
Q 441.56452 191.571708 443.058431 191.431274 
L 443.058431 192.02627 
z
" clip-path="url(#pff995d1ec8)" style="fill: #0000ff"/>
   </g>
   <g id="patch_76">
    <path d="M 443.058431 188.786132 
Q 441.273407 189.02219 439.353515 189.140758 
Q 437.433623 189.258248 435.386797 189.258248 
Q 430.761603 189.258248 428.060267 188.555463 
Q 425.358932 187.852679 425.358932 186.650831 
Q 425.358932 185.434971 428.107868 184.737576 
Q 430.86077 184.040181 435.6486 184.040181 
Q 437.493124 184.040181 439.182946 184.135035 
Q 440.876735 184.228812 442.376155 184.414209 
L 442.376155 185.454373 
Q 440.829135 185.216159 439.297981 185.098669 
Q 437.766828 184.980101 436.227741 184.980101 
Q 433.379637 184.980101 431.836583 185.413413 
Q 430.29353 185.845647 430.29353 186.650831 
Q 430.29353 187.44847 431.781049 187.883937 
Q 433.268569 188.318327 436.005605 188.318327 
Q 436.751348 188.318327 437.38999 188.293536 
Q 438.028631 188.267666 438.536371 188.213772 
L 438.536371 187.237203 
L 435.620833 187.237203 
L 435.620833 186.367346 
L 443.058431 186.367346 
L 443.058431 188.786132 
z
" clip-path="url(#pff995d1ec8)" style="fill: #ffa600"/>
   </g>
   <g id="patch_77">
    <path d="M 425.358932 175.840362 
L 443.058431 175.840362 
L 443.058431 177.439555 
L 436.690727 177.439555 
L 436.690727 184.040181 
L 431.738984 184.040181 
L 431.738984 177.439555 
L 425.358932 177.439555 
L 425.358932 175.840362 
z
" clip-path="url(#pff995d1ec8)" style="fill: #ff0000"/>
   </g>
   <g id="patch_78">
    <path d="M 437.61939 156.217893 
L 430.812447 156.217893 
L 429.737667 175.840362 
L 425.358932 175.840362 
L 431.6122 68.124554 
L 436.805163 68.124554 
L 443.058431 175.840362 
L 438.683314 175.840362 
L 437.61939 156.217893 
z
M 431.898084 136.226061 
L 436.522897 136.226061 
L 434.214109 93.379825 
L 431.898084 136.226061 
z
" clip-path="url(#pff995d1ec8)" style="fill: #008000"/>
   </g>
   <g id="patch_79">
    <path d="M 443.989983 190.242162 
L 461.689482 190.242162 
L 461.689482 190.631796 
L 455.321779 190.631796 
L 455.321779 192.24 
L 450.370035 192.24 
L 450.370035 190.631796 
L 443.989983 190.631796 
L 443.989983 190.242162 
z
" clip-path="url(#pff995d1ec8)" style="fill: #ff0000"/>
   </g>
   <g id="patch_80">
    <path d="M 461.689482 190.063157 
Q 460.20895 190.151886 458.608013 190.196766 
Q 457.007075 190.242162 455.263436 190.242162 
Q 450.063734 190.242162 447.026859 189.905819 
Q 443.989983 189.569476 443.989983 188.994287 
Q 443.989983 188.417036 447.026859 188.081208 
Q 450.063734 187.744865 455.263436 187.744865 
Q 457.007075 187.744865 458.608013 187.790261 
Q 460.20895 187.835141 461.689482 187.92387 
L 461.689482 188.421678 
Q 460.195572 188.304061 458.746255 188.24938 
Q 457.296939 188.194698 455.696001 188.194698 
Q 452.824125 188.194698 451.178593 188.40775 
Q 449.537521 188.620286 449.537521 188.994287 
Q 449.537521 189.366741 451.178593 189.579793 
Q 452.824125 189.792329 455.696001 189.792329 
Q 457.296939 189.792329 458.746255 189.737647 
Q 460.195572 189.68245 461.689482 189.564833 
L 461.689482 190.063157 
z
" clip-path="url(#pff995d1ec8)" style="fill: #0000ff"/>
   </g>
   <g id="patch_81">
    <path d="M 461.689482 187.473727 
Q 459.904459 187.609296 457.984567 187.67739 
Q 456.064675 187.744865 454.017848 187.744865 
Q 449.392654 187.744865 446.691319 187.341253 
Q 443.989983 186.937641 443.989983 186.247415 
Q 443.989983 185.549142 446.738919 185.148625 
Q 449.491822 184.748108 454.279652 184.748108 
Q 456.124176 184.748108 457.813998 184.802583 
Q 459.507787 184.85644 461.007207 184.962914 
L 461.007207 185.560284 
Q 459.460187 185.423477 457.929033 185.356002 
Q 456.39788 185.287908 454.858793 185.287908 
Q 452.010689 185.287908 450.467635 185.536761 
Q 448.924581 185.784995 448.924581 186.247415 
Q 448.924581 186.705502 450.412101 186.955593 
Q 451.899621 187.205065 454.636656 187.205065 
Q 455.3824 187.205065 456.021041 187.190827 
Q 456.659683 187.17597 457.167423 187.145018 
L 457.167423 186.584171 
L 454.251885 186.584171 
L 454.251885 186.084608 
L 461.689482 186.084608 
L 461.689482 187.473727 
z
" clip-path="url(#pff995d1ec8)" style="fill: #ffa600"/>
   </g>
   <g id="patch_82">
    <path d="M 456.250442 155.814569 
L 449.443499 155.814569 
L 448.368719 184.748108 
L 443.989983 184.748108 
L 450.243251 25.92 
L 455.436214 25.92 
L 461.689482 184.748108 
L 457.314366 184.748108 
L 456.250442 155.814569 
z
M 450.529136 126.336399 
L 455.153949 126.336399 
L 452.845161 63.159166 
L 450.529136 126.336399 
z
" clip-path="url(#pff995d1ec8)" style="fill: #008000"/>
   </g>
   <g id="patch_83">
    <path d="M 480.320534 192.081323 
Q 478.840002 192.159975 477.239064 192.199759 
Q 475.638127 192.24 473.894488 192.24 
Q 468.694786 192.24 465.657911 191.941851 
Q 462.621035 191.643702 462.621035 191.13383 
Q 462.621035 190.62213 465.657911 190.324438 
Q 468.694786 190.026289 473.894488 190.026289 
Q 475.638127 190.026289 477.239064 190.06653 
Q 478.840002 190.106314 480.320534 190.184967 
L 480.320534 190.626245 
Q 478.826623 190.521985 477.377307 190.473513 
Q 475.92799 190.425041 474.327053 190.425041 
Q 471.455177 190.425041 469.809645 190.613899 
Q 468.168573 190.8023 468.168573 191.13383 
Q 468.168573 191.463989 469.809645 191.652848 
Q 471.455177 191.841249 474.327053 191.841249 
Q 475.92799 191.841249 477.377307 191.792776 
Q 478.826623 191.743847 480.320534 191.639586 
L 480.320534 192.081323 
z
" clip-path="url(#pff995d1ec8)" style="fill: #0000ff"/>
   </g>
   <g id="patch_84">
    <path d="M 480.320534 189.705825 
Q 478.535511 189.866057 476.615619 189.946539 
Q 474.695727 190.026289 472.6489 190.026289 
Q 468.023706 190.026289 465.322371 189.549251 
Q 462.621035 189.072212 462.621035 188.256418 
Q 462.621035 187.431112 465.369971 186.957732 
Q 468.122874 186.484352 472.910704 186.484352 
Q 474.755228 186.484352 476.44505 186.548737 
Q 478.138839 186.612391 479.638259 186.738236 
L 479.638259 187.444282 
Q 478.091238 187.282586 476.560085 187.202836 
Q 475.028931 187.122354 473.489844 187.122354 
Q 470.64174 187.122354 469.098687 187.416479 
Q 467.555633 187.709872 467.555633 188.256418 
Q 467.555633 188.797842 469.043153 189.09343 
Q 470.530672 189.388287 473.267708 189.388287 
Q 474.013451 189.388287 474.652093 189.371459 
Q 475.290735 189.353899 475.798475 189.317316 
L 475.798475 188.654438 
L 472.882937 188.654438 
L 472.882937 188.063993 
L 480.320534 188.063993 
L 480.320534 189.705825 
z
" clip-path="url(#pff995d1ec8)" style="fill: #ffa600"/>
   </g>
   <g id="patch_85">
    <path d="M 462.621035 180.285961 
L 480.320534 180.285961 
L 480.320534 181.49482 
L 473.952831 181.49482 
L 473.952831 186.484352 
L 469.001087 186.484352 
L 469.001087 181.49482 
L 462.621035 181.49482 
L 462.621035 180.285961 
z
" clip-path="url(#pff995d1ec8)" style="fill: #ff0000"/>
   </g>
   <g id="patch_86">
    <path d="M 474.881494 155.605883 
L 468.074551 155.605883 
L 466.99977 180.285961 
L 462.621035 180.285961 
L 468.874303 44.806851 
L 474.067266 44.806851 
L 480.320534 180.285961 
L 475.945418 180.285961 
L 474.881494 155.605883 
z
M 469.160188 130.461239 
L 473.785 130.461239 
L 471.476213 76.571563 
L 469.160188 130.461239 
z
" clip-path="url(#pff995d1ec8)" style="fill: #008000"/>
   </g>
   <g id="patch_87">
    <path d="M 498.951586 192.160921 
Q 497.166563 192.20046 495.246671 192.220321 
Q 493.326779 192.24 491.279952 192.24 
Q 486.654758 192.24 483.953422 192.122284 
Q 481.252087 192.004568 481.252087 191.80326 
Q 481.252087 191.599604 484.001023 191.482791 
Q 486.753926 191.365978 491.541755 191.365978 
Q 493.38628 191.365978 495.076102 191.381866 
Q 496.769891 191.397573 498.26931 191.428627 
L 498.26931 191.602854 
Q 496.72229 191.562953 495.191137 191.543274 
Q 493.659983 191.523413 492.120896 191.523413 
Q 489.272792 191.523413 487.729739 191.595993 
Q 486.186685 191.668392 486.186685 191.80326 
Q 486.186685 191.936864 487.674205 192.009804 
Q 489.161724 192.082564 491.89876 192.082564 
Q 492.644503 192.082564 493.283145 192.078411 
Q 493.921787 192.074078 494.429527 192.065051 
L 494.429527 191.901477 
L 491.513988 191.901477 
L 491.513988 191.755776 
L 498.951586 191.755776 
L 498.951586 192.160921 
z
" clip-path="url(#pff995d1ec8)" style="fill: #ffa600"/>
   </g>
   <g id="patch_88">
    <path d="M 498.951586 191.11538 
Q 497.471053 191.239595 495.870116 191.302425 
Q 494.269179 191.365978 492.52554 191.365978 
Q 487.325838 191.365978 484.288962 190.895114 
Q 481.252087 190.42425 481.252087 189.619016 
Q 481.252087 188.810893 484.288962 188.340751 
Q 487.325838 187.869888 492.52554 187.869888 
Q 494.269179 187.869888 495.870116 187.93344 
Q 497.471053 187.99627 498.951586 188.120485 
L 498.951586 188.817392 
Q 497.457675 188.652734 496.008359 188.576183 
Q 494.559042 188.499631 492.958105 188.499631 
Q 490.086228 188.499631 488.440697 188.797893 
Q 486.799624 189.095433 486.799624 189.619016 
Q 486.799624 190.140432 488.440697 190.438694 
Q 490.086228 190.736234 492.958105 190.736234 
Q 494.559042 190.736234 496.008359 190.659682 
Q 497.457675 190.582408 498.951586 190.417751 
L 498.951586 191.11538 
z
" clip-path="url(#pff995d1ec8)" style="fill: #0000ff"/>
   </g>
   <g id="patch_89">
    <path d="M 481.252087 167.184688 
L 498.951586 167.184688 
L 498.951586 171.218879 
L 492.583882 171.218879 
L 492.583882 187.869888 
L 487.632139 187.869888 
L 487.632139 171.218879 
L 481.252087 171.218879 
L 481.252087 167.184688 
z
" clip-path="url(#pff995d1ec8)" style="fill: #ff0000"/>
   </g>
   <g id="patch_90">
    <path d="M 493.512545 154.0756 
L 486.705603 154.0756 
L 485.630822 167.184688 
L 481.252087 167.184688 
L 487.505355 95.223503 
L 492.698318 95.223503 
L 498.951586 167.184688 
L 494.57647 167.184688 
L 493.512545 154.0756 
z
M 487.791239 140.719752 
L 492.416052 140.719752 
L 490.107265 112.095671 
L 487.791239 140.719752 
z
" clip-path="url(#pff995d1ec8)" style="fill: #008000"/>
   </g>
   <g id="patch_91">
    <path d="M 517.582638 191.955155 
Q 515.797614 192.097578 513.877722 192.169114 
Q 511.957831 192.24 509.911004 192.24 
Q 505.28581 192.24 502.584474 191.815984 
Q 499.883139 191.391969 499.883139 190.66685 
Q 499.883139 189.933277 502.632075 189.512513 
Q 505.384978 189.091749 510.172807 189.091749 
Q 512.017331 189.091749 513.707153 189.148978 
Q 515.400942 189.205557 516.900362 189.317414 
L 516.900362 189.944983 
Q 515.353342 189.80126 513.822188 189.730374 
Q 512.291035 189.658837 510.751948 189.658837 
Q 507.903844 189.658837 506.36079 189.92027 
Q 504.817737 190.181053 504.817737 190.66685 
Q 504.817737 191.148095 506.305256 191.410828 
Q 507.792776 191.672912 510.529812 191.672912 
Q 511.275555 191.672912 511.914197 191.657954 
Q 512.552838 191.642346 513.060578 191.60983 
L 513.060578 191.02063 
L 510.14504 191.02063 
L 510.14504 190.495813 
L 517.582638 190.495813 
L 517.582638 191.955155 
z
" clip-path="url(#pff995d1ec8)" style="fill: #ffa600"/>
   </g>
   <g id="patch_92">
    <path d="M 512.143597 188.257548 
L 505.336654 188.257548 
L 504.261874 189.091749 
L 499.883139 189.091749 
L 506.136407 184.512474 
L 511.32937 184.512474 
L 517.582638 189.091749 
L 513.207521 189.091749 
L 512.143597 188.257548 
z
M 506.422291 187.407644 
L 511.047104 187.407644 
L 508.738316 185.586141 
L 506.422291 187.407644 
z
" clip-path="url(#pff995d1ec8)" style="fill: #008000"/>
   </g>
   <g id="patch_93">
    <path d="M 517.582638 183.568785 
Q 516.102105 184.036551 514.501168 184.273153 
Q 512.900231 184.512474 511.156591 184.512474 
Q 505.95689 184.512474 502.920014 182.739318 
Q 499.883139 180.966162 499.883139 177.933847 
Q 499.883139 174.890654 502.920014 173.120217 
Q 505.95689 171.34706 511.156591 171.34706 
Q 512.900231 171.34706 514.501168 171.586382 
Q 516.102105 171.822984 517.582638 172.290749 
L 517.582638 174.91513 
Q 516.088727 174.295069 514.63941 174.006795 
Q 513.190094 173.718521 511.589157 173.718521 
Q 508.71728 173.718521 507.071748 174.841701 
Q 505.430676 175.962162 505.430676 177.933847 
Q 505.430676 179.897373 507.071748 181.020553 
Q 508.71728 182.141014 511.589157 182.141014 
Q 513.190094 182.141014 514.63941 181.85274 
Q 516.088727 181.561746 517.582638 180.941686 
L 517.582638 183.568785 
z
" clip-path="url(#pff995d1ec8)" style="fill: #0000ff"/>
   </g>
   <g id="patch_94">
    <path d="M 499.883139 96.933851 
L 517.582638 96.933851 
L 517.582638 111.4465 
L 511.214934 111.4465 
L 511.214934 171.34706 
L 506.263191 171.34706 
L 506.263191 111.4465 
L 499.883139 111.4465 
L 499.883139 96.933851 
z
" clip-path="url(#pff995d1ec8)" style="fill: #ff0000"/>
   </g>
   <g id="patch_95">
    <path d="M 536.213689 191.865463 
Q 534.428666 192.052732 532.508774 192.146793 
Q 530.588882 192.24 528.542055 192.24 
Q 523.916861 192.24 521.215526 191.682471 
Q 518.51419 191.124941 518.51419 190.171497 
Q 518.51419 189.206937 521.263126 188.653683 
Q 524.016029 188.100429 528.803859 188.100429 
Q 530.648383 188.100429 532.338205 188.175679 
Q 534.031994 188.250073 535.531414 188.397151 
L 535.531414 189.222329 
Q 533.984394 189.033351 532.45324 188.940144 
Q 530.922087 188.846082 529.383 188.846082 
Q 526.534896 188.846082 524.991842 189.189835 
Q 523.448788 189.532733 523.448788 190.171497 
Q 523.448788 190.804276 524.936308 191.149739 
Q 526.423828 191.494347 529.160864 191.494347 
Q 529.906607 191.494347 530.545248 191.47468 
Q 531.18389 191.454157 531.69163 191.411402 
L 531.69163 190.636675 
L 528.776092 190.636675 
L 528.776092 189.946604 
L 536.213689 189.946604 
L 536.213689 191.865463 
z
" clip-path="url(#pff995d1ec8)" style="fill: #ffa600"/>
   </g>
   <g id="patch_96">
    <path d="M 518.51419 181.413431 
L 536.213689 181.413431 
L 536.213689 182.717582 
L 529.845986 182.717582 
L 529.845986 188.100429 
L 524.894242 188.100429 
L 524.894242 182.717582 
L 518.51419 182.717582 
L 518.51419 181.413431 
z
" clip-path="url(#pff995d1ec8)" style="fill: #ff0000"/>
   </g>
   <g id="patch_97">
    <path d="M 536.213689 180.865637 
Q 534.733157 181.137166 533.13222 181.274509 
Q 531.531282 181.413431 529.787643 181.413431 
Q 524.587941 181.413431 521.551066 180.384146 
Q 518.51419 179.354861 518.51419 177.594657 
Q 518.51419 175.828138 521.551066 174.800432 
Q 524.587941 173.771147 529.787643 173.771147 
Q 531.531282 173.771147 533.13222 173.910069 
Q 534.733157 174.047412 536.213689 174.318941 
L 536.213689 175.842346 
Q 534.719779 175.482412 533.270462 175.315075 
Q 531.821146 175.147737 530.220208 175.147737 
Q 527.348332 175.147737 525.7028 175.799723 
Q 524.061728 176.45013 524.061728 177.594657 
Q 524.061728 178.734448 525.7028 179.386434 
Q 527.348332 180.036841 530.220208 180.036841 
Q 531.821146 180.036841 533.270462 179.869503 
Q 534.719779 179.700587 536.213689 179.340653 
L 536.213689 180.865637 
z
" clip-path="url(#pff995d1ec8)" style="fill: #0000ff"/>
   </g>
   <g id="patch_98">
    <path d="M 530.774649 167.477304 
L 523.967706 167.477304 
L 522.892926 173.771147 
L 518.51419 173.771147 
L 524.767458 139.221654 
L 529.960421 139.221654 
L 536.213689 173.771147 
L 531.838573 173.771147 
L 530.774649 167.477304 
z
M 525.053343 161.06499 
L 529.678156 161.06499 
L 527.369368 147.3222 
L 525.053343 161.06499 
z
" clip-path="url(#pff995d1ec8)" style="fill: #008000"/>
   </g>
   <g id="patch_99">
    <path d="M 554.844741 191.85816 
Q 553.059718 192.04908 551.139826 192.144976 
Q 549.219934 192.24 547.173107 192.24 
Q 542.547913 192.24 539.846578 191.671599 
Q 537.145242 191.103198 537.145242 190.131162 
Q 537.145242 189.147793 539.894178 188.58375 
Q 542.647081 188.019708 547.434911 188.019708 
Q 549.279435 188.019708 550.969257 188.096425 
Q 552.663046 188.17227 554.162466 188.322216 
L 554.162466 189.163485 
Q 552.615445 188.970821 551.084292 188.875797 
Q 549.553138 188.779901 548.014052 188.779901 
Q 545.165947 188.779901 543.622894 189.130357 
Q 542.07984 189.479941 542.07984 190.131162 
Q 542.07984 190.77628 543.56736 191.128479 
Q 545.054879 191.479807 547.791915 191.479807 
Q 548.537658 191.479807 549.1763 191.459756 
Q 549.814942 191.438833 550.322682 191.395244 
L 550.322682 190.605411 
L 547.407144 190.605411 
L 547.407144 189.901883 
L 554.844741 189.901883 
L 554.844741 191.85816 
z
" clip-path="url(#pff995d1ec8)" style="fill: #ffa600"/>
   </g>
   <g id="patch_100">
    <path d="M 554.844741 187.679387 
Q 553.364209 187.848076 551.763271 187.933402 
Q 550.162334 188.019708 548.418695 188.019708 
Q 543.218993 188.019708 540.182118 187.380257 
Q 537.145242 186.740805 537.145242 185.647265 
Q 537.145242 184.549802 540.182118 183.911331 
Q 543.218993 183.27188 548.418695 183.27188 
Q 550.162334 183.27188 551.763271 183.358186 
Q 553.364209 183.443512 554.844741 183.612201 
L 554.844741 184.558629 
Q 553.35083 184.335017 551.901514 184.231057 
Q 550.452197 184.127097 548.85126 184.127097 
Q 545.979384 184.127097 544.333852 184.532148 
Q 542.69278 184.936219 542.69278 185.647265 
Q 542.69278 186.355369 544.333852 186.760421 
Q 545.979384 187.164491 548.85126 187.164491 
Q 550.452197 187.164491 551.901514 187.060531 
Q 553.35083 186.95559 554.844741 186.731979 
L 554.844741 187.679387 
z
" clip-path="url(#pff995d1ec8)" style="fill: #0000ff"/>
   </g>
   <g id="patch_101">
    <path d="M 549.405701 181.285798 
L 542.598758 181.285798 
L 541.523977 183.27188 
L 537.145242 183.27188 
L 543.39851 172.369459 
L 548.591473 172.369459 
L 554.844741 183.27188 
L 550.469625 183.27188 
L 549.405701 181.285798 
z
M 543.684395 179.262331 
L 548.309208 179.262331 
L 546.00042 174.925663 
L 543.684395 179.262331 
z
" clip-path="url(#pff995d1ec8)" style="fill: #008000"/>
   </g>
   <g id="patch_102">
    <path d="M 537.145242 133.683451 
L 554.844741 133.683451 
L 554.844741 141.2283 
L 548.477038 141.2283 
L 548.477038 172.369459 
L 543.525294 172.369459 
L 543.525294 141.2283 
L 537.145242 141.2283 
L 537.145242 133.683451 
z
" clip-path="url(#pff995d1ec8)" style="fill: #ff0000"/>
   </g>
   <g id="patch_103">
    <path d="M 573.475793 191.849524 
Q 571.69077 192.044762 569.770878 192.142827 
Q 567.850986 192.24 565.804159 192.24 
Q 561.178965 192.24 558.477629 191.658743 
Q 555.776294 191.077486 555.776294 190.083466 
Q 555.776294 189.077856 558.52523 188.501056 
Q 561.278133 187.924257 566.065962 187.924257 
Q 567.910487 187.924257 569.600309 188.002709 
Q 571.294098 188.080269 572.793517 188.233607 
L 572.793517 189.093903 
Q 571.246497 188.896882 569.715344 188.799708 
Q 568.18419 188.701643 566.645103 188.701643 
Q 563.796999 188.701643 562.253946 189.060026 
Q 560.710892 189.417517 560.710892 190.083466 
Q 560.710892 190.743174 562.198412 191.10334 
Q 563.685931 191.462614 566.422967 191.462614 
Q 567.16871 191.462614 567.807352 191.442109 
Q 568.445994 191.420713 568.953734 191.376138 
L 568.953734 190.568441 
L 566.038195 190.568441 
L 566.038195 189.849002 
L 573.475793 189.849002 
L 573.475793 191.849524 
z
" clip-path="url(#pff995d1ec8)" style="fill: #ffa600"/>
   </g>
   <g id="patch_104">
    <path d="M 568.036752 186.697794 
L 561.22981 186.697794 
L 560.155029 187.924257 
L 555.776294 187.924257 
L 562.029562 181.191698 
L 567.222525 181.191698 
L 573.475793 187.924257 
L 569.100677 187.924257 
L 568.036752 186.697794 
z
M 562.315446 185.448245 
L 566.940259 185.448245 
L 564.631472 182.770227 
L 562.315446 185.448245 
z
" clip-path="url(#pff995d1ec8)" style="fill: #008000"/>
   </g>
   <g id="patch_105">
    <path d="M 573.475793 180.622494 
Q 571.99526 180.904635 570.394323 181.047346 
Q 568.793386 181.191698 567.049747 181.191698 
Q 561.850045 181.191698 558.813169 180.122185 
Q 555.776294 179.052672 555.776294 177.223675 
Q 555.776294 175.388115 558.813169 174.320243 
Q 561.850045 173.25073 567.049747 173.25073 
Q 568.793386 173.25073 570.394323 173.395082 
Q 571.99526 173.537793 573.475793 173.819934 
L 573.475793 175.402879 
Q 571.981882 175.028877 570.532566 174.854999 
Q 569.083249 174.681122 567.482312 174.681122 
Q 564.610435 174.681122 562.964904 175.358589 
Q 561.323831 176.034416 561.323831 177.223675 
Q 561.323831 178.408012 562.964904 179.08548 
Q 564.610435 179.761307 567.482312 179.761307 
Q 569.083249 179.761307 570.532566 179.587429 
Q 571.981882 179.411911 573.475793 179.037909 
L 573.475793 180.622494 
z
" clip-path="url(#pff995d1ec8)" style="fill: #0000ff"/>
   </g>
   <g id="patch_106">
    <path d="M 555.776294 134.754302 
L 573.475793 134.754302 
L 573.475793 142.262178 
L 567.108089 142.262178 
L 567.108089 173.25073 
L 562.156346 173.25073 
L 562.156346 142.262178 
L 555.776294 142.262178 
L 555.776294 134.754302 
z
" clip-path="url(#pff995d1ec8)" style="fill: #ff0000"/>
   </g>
   <g id="patch_107">
    <path d="M 592.106845 192.115943 
Q 590.321821 192.177972 588.401929 192.209127 
Q 586.482038 192.24 584.435211 192.24 
Q 579.810017 192.24 577.108681 192.055331 
Q 574.407346 191.870662 574.407346 191.554855 
Q 574.407346 191.235366 577.156282 191.052113 
Q 579.909185 190.86886 584.697014 190.86886 
Q 586.541538 190.86886 588.23136 190.893785 
Q 589.925149 190.918426 591.424569 190.967143 
L 591.424569 191.240464 
Q 589.877549 191.177869 588.346395 191.146997 
Q 586.815242 191.115841 585.276155 191.115841 
Q 582.428051 191.115841 580.884997 191.229701 
Q 579.341944 191.343278 579.341944 191.554855 
Q 579.341944 191.764449 580.829463 191.878876 
Q 582.316983 191.993019 585.054019 191.993019 
Q 585.799762 191.993019 586.438404 191.986505 
Q 587.077045 191.979707 587.584785 191.965545 
L 587.584785 191.708935 
L 584.669247 191.708935 
L 584.669247 191.480364 
L 592.106845 191.480364 
L 592.106845 192.115943 
z
" clip-path="url(#pff995d1ec8)" style="fill: #ffa600"/>
   </g>
   <g id="patch_108">
    <path d="M 592.106845 190.565466 
Q 590.626312 190.715852 589.025375 190.791919 
Q 587.424438 190.86886 585.680798 190.86886 
Q 580.481097 190.86886 577.444221 190.298794 
Q 574.407346 189.728729 574.407346 188.753847 
Q 574.407346 187.775467 577.444221 187.206276 
Q 580.481097 186.63621 585.680798 186.63621 
Q 587.424438 186.63621 589.025375 186.713152 
Q 590.626312 186.789219 592.106845 186.939604 
L 592.106845 187.783336 
Q 590.612934 187.583988 589.163617 187.491309 
Q 587.714301 187.398629 586.113364 187.398629 
Q 583.241487 187.398629 581.595955 187.759729 
Q 579.954883 188.119955 579.954883 188.753847 
Q 579.954883 189.385116 581.595955 189.746216 
Q 583.241487 190.106441 586.113364 190.106441 
Q 587.714301 190.106441 589.163617 190.013762 
Q 590.612934 189.920208 592.106845 189.72086 
L 592.106845 190.565466 
z
" clip-path="url(#pff995d1ec8)" style="fill: #0000ff"/>
   </g>
   <g id="patch_109">
    <path d="M 586.667804 185.409035 
L 579.860861 185.409035 
L 578.786081 186.63621 
L 574.407346 186.63621 
L 580.660614 179.89974 
L 585.853577 179.89974 
L 592.106845 186.63621 
L 587.731728 186.63621 
L 586.667804 185.409035 
z
M 580.946498 184.15876 
L 585.571311 184.15876 
L 583.262523 181.479187 
L 580.946498 184.15876 
z
" clip-path="url(#pff995d1ec8)" style="fill: #008000"/>
   </g>
   <g id="patch_110">
    <path d="M 574.407346 172.388277 
L 592.106845 172.388277 
L 592.106845 173.853222 
L 585.739141 173.853222 
L 585.739141 179.89974 
L 580.787398 179.89974 
L 580.787398 173.853222 
L 574.407346 173.853222 
L 574.407346 172.388277 
z
" clip-path="url(#pff995d1ec8)" style="fill: #ff0000"/>
   </g>
   <g id="patch_111">
    <path d="M 610.737896 191.974102 
Q 608.952873 192.107051 607.032981 192.173829 
Q 605.113089 192.24 603.066262 192.24 
Q 598.441068 192.24 595.739733 191.844188 
Q 593.038397 191.448376 593.038397 190.771489 
Q 593.038397 190.08671 595.787333 189.693933 
Q 598.540236 189.301157 603.328066 189.301157 
Q 605.17259 189.301157 606.862412 189.354579 
Q 608.556201 189.407395 610.055621 189.511811 
L 610.055621 190.097637 
Q 608.508601 189.963474 606.977447 189.897303 
Q 605.446294 189.830525 603.907207 189.830525 
Q 601.059103 189.830525 599.516049 190.074569 
Q 597.972995 190.318005 597.972995 190.771489 
Q 597.972995 191.220723 599.460515 191.465981 
Q 600.948035 191.710632 603.685071 191.710632 
Q 604.430814 191.710632 605.069455 191.696669 
Q 605.708097 191.682099 606.215837 191.651746 
L 606.215837 191.101737 
L 603.300299 191.101737 
L 603.300299 190.611829 
L 610.737896 190.611829 
L 610.737896 191.974102 
z
" clip-path="url(#pff995d1ec8)" style="fill: #ffa600"/>
   </g>
   <g id="patch_112">
    <path d="M 610.737896 188.974279 
Q 609.257364 189.136305 607.656427 189.21826 
Q 606.055489 189.301157 604.31185 189.301157 
Q 599.112148 189.301157 596.075273 188.686966 
Q 593.038397 188.072775 593.038397 187.022433 
Q 593.038397 185.968323 596.075273 185.355074 
Q 599.112148 184.740883 604.31185 184.740883 
Q 606.055489 184.740883 607.656427 184.82378 
Q 609.257364 184.905735 610.737896 185.067761 
L 610.737896 185.976801 
Q 609.243986 185.762023 607.794669 185.662169 
Q 606.345353 185.562316 604.744415 185.562316 
Q 601.872539 185.562316 600.227007 185.951367 
Q 598.585935 186.339475 598.585935 187.022433 
Q 598.585935 187.702565 600.227007 188.091615 
Q 601.872539 188.479724 604.744415 188.479724 
Q 606.345353 188.479724 607.794669 188.37987 
Q 609.243986 188.279075 610.737896 188.064297 
L 610.737896 188.974279 
z
" clip-path="url(#pff995d1ec8)" style="fill: #0000ff"/>
   </g>
   <g id="patch_113">
    <path d="M 593.038397 179.450965 
L 610.737896 179.450965 
L 610.737896 180.482647 
L 604.370193 180.482647 
L 604.370193 184.740883 
L 599.418449 184.740883 
L 599.418449 180.482647 
L 593.038397 180.482647 
L 593.038397 179.450965 
z
" clip-path="url(#pff995d1ec8)" style="fill: #ff0000"/>
   </g>
   <g id="patch_114">
    <path d="M 605.298856 176.862749 
L 598.491913 176.862749 
L 597.417133 179.450965 
L 593.038397 179.450965 
L 599.291665 165.243179 
L 604.484628 165.243179 
L 610.737896 179.450965 
L 606.36278 179.450965 
L 605.298856 176.862749 
z
M 599.57755 174.225813 
L 604.202363 174.225813 
L 601.893575 168.574366 
L 599.57755 174.225813 
z
" clip-path="url(#pff995d1ec8)" style="fill: #008000"/>
   </g>
   <g id="patch_115">
    <path d="M 629.368948 192.056976 
Q 627.888416 192.147697 626.287478 192.193585 
Q 624.686541 192.24 622.942902 192.24 
Q 617.7432 192.24 614.706325 191.896105 
Q 611.669449 191.55221 611.669449 190.964108 
Q 611.669449 190.373896 614.706325 190.030529 
Q 617.7432 189.686634 622.942902 189.686634 
Q 624.686541 189.686634 626.287478 189.733049 
Q 627.888416 189.778937 629.368948 189.869658 
L 629.368948 190.378643 
Q 627.875037 190.258386 626.425721 190.202476 
Q 624.976404 190.146567 623.375467 190.146567 
Q 620.503591 190.146567 618.858059 190.364402 
Q 617.216987 190.58171 617.216987 190.964108 
Q 617.216987 191.344924 618.858059 191.562759 
Q 620.503591 191.780067 623.375467 191.780067 
Q 624.976404 191.780067 626.425721 191.724158 
Q 627.875037 191.667721 629.368948 191.547463 
L 629.368948 192.056976 
z
" clip-path="url(#pff995d1ec8)" style="fill: #0000ff"/>
   </g>
   <g id="patch_116">
    <path d="M 611.669449 186.124531 
L 629.368948 186.124531 
L 629.368948 186.819241 
L 623.001245 186.819241 
L 623.001245 189.686634 
L 618.049501 189.686634 
L 618.049501 186.819241 
L 611.669449 186.819241 
L 611.669449 186.124531 
z
" clip-path="url(#pff995d1ec8)" style="fill: #ff0000"/>
   </g>
   <g id="patch_117">
    <path d="M 623.929908 183.385351 
L 617.122965 183.385351 
L 616.048184 186.124531 
L 611.669449 186.124531 
L 617.922717 171.088044 
L 623.11568 171.088044 
L 629.368948 186.124531 
L 624.993832 186.124531 
L 623.929908 183.385351 
z
M 618.208602 180.59461 
L 622.833415 180.59461 
L 620.524627 174.61353 
L 618.208602 180.59461 
z
" clip-path="url(#pff995d1ec8)" style="fill: #008000"/>
   </g>
   <g id="patch_118">
    <path d="M 629.368948 169.202796 
Q 627.583925 170.14542 625.664033 170.618884 
Q 623.744141 171.088044 621.697314 171.088044 
Q 617.07212 171.088044 614.370785 168.281693 
Q 611.669449 165.475342 611.669449 160.676137 
Q 611.669449 155.820978 614.418385 153.036148 
Q 617.171288 150.251318 621.959118 150.251318 
Q 623.803642 150.251318 625.493464 150.63009 
Q 627.187253 151.004557 628.686673 151.744882 
L 628.686673 155.898454 
Q 627.139652 154.947221 625.608499 154.478062 
Q 624.077345 154.004597 622.538259 154.004597 
Q 619.690154 154.004597 618.147101 155.734894 
Q 616.604047 157.460886 616.604047 160.676137 
Q 616.604047 163.86126 618.091567 165.600164 
Q 619.579086 167.334765 622.316122 167.334765 
Q 623.061865 167.334765 623.700507 167.235768 
Q 624.339149 167.132466 624.846889 166.917255 
L 624.846889 163.017633 
L 621.931351 163.017633 
L 621.931351 159.544128 
L 629.368948 159.544128 
L 629.368948 169.202796 
z
" clip-path="url(#pff995d1ec8)" style="fill: #ffa600"/>
   </g>
   <g id="patch_119">
    <path d="M 648 192.063816 
Q 646.519467 192.151146 644.91853 192.195319 
Q 643.317593 192.24 641.573954 192.24 
Q 636.374252 192.24 633.337376 191.908957 
Q 630.300501 191.577914 630.300501 191.01179 
Q 630.300501 190.443635 633.337376 190.1131 
Q 636.374252 189.782057 641.573954 189.782057 
Q 643.317593 189.782057 644.91853 189.826738 
Q 646.519467 189.870911 648 189.958241 
L 648 190.448205 
Q 646.506089 190.332441 645.056773 190.278622 
Q 643.607456 190.224802 642.006519 190.224802 
Q 639.134642 190.224802 637.489111 190.434496 
Q 635.848038 190.643683 635.848038 191.01179 
Q 635.848038 191.378375 637.489111 191.588069 
Q 639.134642 191.797256 642.006519 191.797256 
Q 643.607456 191.797256 645.056773 191.743436 
Q 646.506089 191.689108 648 191.573345 
L 648 192.063816 
z
" clip-path="url(#pff995d1ec8)" style="fill: #0000ff"/>
   </g>
   <g id="patch_120">
    <path d="M 630.300501 186.125118 
L 648 186.125118 
L 648 186.838323 
L 641.632296 186.838323 
L 641.632296 189.782057 
L 636.680553 189.782057 
L 636.680553 186.838323 
L 630.300501 186.838323 
L 630.300501 186.125118 
z
" clip-path="url(#pff995d1ec8)" style="fill: #ff0000"/>
   </g>
   <g id="patch_121">
    <path d="M 648 184.514163 
Q 646.214977 185.319641 644.295085 185.724218 
Q 642.375193 186.125118 640.328366 186.125118 
Q 635.703172 186.125118 633.001836 183.727076 
Q 630.300501 181.329033 630.300501 177.228086 
Q 630.300501 173.079326 633.049437 170.699673 
Q 635.80234 168.320021 640.590169 168.320021 
Q 642.434694 168.320021 644.124516 168.643683 
Q 645.818305 168.963667 647.317724 169.596279 
L 647.317724 173.145529 
Q 645.770704 172.332696 644.239551 171.931796 
Q 642.708397 171.527218 641.16931 171.527218 
Q 638.321206 171.527218 636.778153 173.005766 
Q 635.235099 174.480636 635.235099 177.228086 
Q 635.235099 179.949791 636.722619 181.435695 
Q 638.210138 182.91792 640.947174 182.91792 
Q 641.692917 182.91792 642.331559 182.833327 
Q 642.970201 182.745055 643.477941 182.561156 
L 643.477941 179.228907 
L 640.562402 179.228907 
L 640.562402 176.260778 
L 648 176.260778 
L 648 184.514163 
z
" clip-path="url(#pff995d1ec8)" style="fill: #ffa600"/>
   </g>
   <g id="patch_122">
    <path d="M 642.560959 158.130735 
L 635.754017 158.130735 
L 634.679236 168.320021 
L 630.300501 168.320021 
L 636.553769 112.386836 
L 641.746732 112.386836 
L 648 168.320021 
L 643.624884 168.320021 
L 642.560959 158.130735 
z
M 636.839653 147.749651 
L 641.464466 147.749651 
L 639.155679 125.501046 
L 636.839653 147.749651 
z
" clip-path="url(#pff995d1ec8)" style="fill: #008000"/>
   </g>
   <g id="matplotlib.axis_1">
    <g id="xtick_1">
     <g id="line2d_2">
      <defs>
       <path id="m327fd17c71" d="M 0 0 
L 0 3.5 
" style="stroke: #000000; stroke-width: 0.8"/>
      </defs>
      <g>
       <use xlink:href="#m327fd17c71" x="98.84975" y="192.24" style="stroke: #000000; stroke-width: 0.8"/>
      </g>
     </g>
     <g id="text_1">
      <!-- 0 -->
      <g transform="translate(95.6685 206.838437) scale(0.1 -0.1)">
       <defs>
        <path id="DejaVuSans-30" d="M 2034 4250 
Q 1547 4250 1301 3770 
Q 1056 3291 1056 2328 
Q 1056 1369 1301 889 
Q 1547 409 2034 409 
Q 2525 409 2770 889 
Q 3016 1369 3016 2328 
Q 3016 3291 2770 3770 
Q 2525 4250 2034 4250 
z
M 2034 4750 
Q 2819 4750 3233 4129 
Q 3647 3509 3647 2328 
Q 3647 1150 3233 529 
Q 2819 -91 2034 -91 
Q 1250 -91 836 529 
Q 422 1150 422 2328 
Q 422 3509 836 4129 
Q 1250 4750 2034 4750 
z
" transform="scale(0.015625)"/>
       </defs>
       <use xlink:href="#DejaVuSans-30"/>
      </g>
     </g>
    </g>
    <g id="xtick_2">
     <g id="line2d_3">
      <g>
       <use xlink:href="#m327fd17c71" x="192.005008" y="192.24" style="stroke: #000000; stroke-width: 0.8"/>
      </g>
     </g>
     <g id="text_2">
      <!-- 5 -->
      <g transform="translate(188.823758 206.838437) scale(0.1 -0.1)">
       <defs>
        <path id="DejaVuSans-35" d="M 691 4666 
L 3169 4666 
L 3169 4134 
L 1269 4134 
L 1269 2991 
Q 1406 3038 1543 3061 
Q 1681 3084 1819 3084 
Q 2600 3084 3056 2656 
Q 3513 2228 3513 1497 
Q 3513 744 3044 326 
Q 2575 -91 1722 -91 
Q 1428 -91 1123 -41 
Q 819 9 494 109 
L 494 744 
Q 775 591 1075 516 
Q 1375 441 1709 441 
Q 2250 441 2565 725 
Q 2881 1009 2881 1497 
Q 2881 1984 2565 2268 
Q 2250 2553 1709 2553 
Q 1456 2553 1204 2497 
Q 953 2441 691 2322 
L 691 4666 
z
" transform="scale(0.015625)"/>
       </defs>
       <use xlink:href="#DejaVuSans-35"/>
      </g>
     </g>
    </g>
    <g id="xtick_3">
     <g id="line2d_4">
      <g>
       <use xlink:href="#m327fd17c71" x="285.160267" y="192.24" style="stroke: #000000; stroke-width: 0.8"/>
      </g>
     </g>
     <g id="text_3">
      <!-- 10 -->
      <g transform="translate(278.797767 206.838437) scale(0.1 -0.1)">
       <defs>
        <path id="DejaVuSans-31" d="M 794 531 
L 1825 531 
L 1825 4091 
L 703 3866 
L 703 4441 
L 1819 4666 
L 2450 4666 
L 2450 531 
L 3481 531 
L 3481 0 
L 794 0 
L 794 531 
z
" transform="scale(0.015625)"/>
       </defs>
       <use xlink:href="#DejaVuSans-31"/>
       <use xlink:href="#DejaVuSans-30" x="63.623047"/>
      </g>
     </g>
    </g>
    <g id="xtick_4">
     <g id="line2d_5">
      <g>
       <use xlink:href="#m327fd17c71" x="378.315526" y="192.24" style="stroke: #000000; stroke-width: 0.8"/>
      </g>
     </g>
     <g id="text_4">
      <!-- 15 -->
      <g transform="translate(371.953026 206.838437) scale(0.1 -0.1)">
       <use xlink:href="#DejaVuSans-31"/>
       <use xlink:href="#DejaVuSans-35" x="63.623047"/>
      </g>
     </g>
    </g>
    <g id="xtick_5">
     <g id="line2d_6">
      <g>
       <use xlink:href="#m327fd17c71" x="471.470785" y="192.24" style="stroke: #000000; stroke-width: 0.8"/>
      </g>
     </g>
     <g id="text_5">
      <!-- 20 -->
      <g transform="translate(465.108285 206.838437) scale(0.1 -0.1)">
       <defs>
        <path id="DejaVuSans-32" d="M 1228 531 
L 3431 531 
L 3431 0 
L 469 0 
L 469 531 
Q 828 903 1448 1529 
Q 2069 2156 2228 2338 
Q 2531 2678 2651 2914 
Q 2772 3150 2772 3378 
Q 2772 3750 2511 3984 
Q 2250 4219 1831 4219 
Q 1534 4219 1204 4116 
Q 875 4013 500 3803 
L 500 4441 
Q 881 4594 1212 4672 
Q 1544 4750 1819 4750 
Q 2544 4750 2975 4387 
Q 3406 4025 3406 3419 
Q 3406 3131 3298 2873 
Q 3191 2616 2906 2266 
Q 2828 2175 2409 1742 
Q 1991 1309 1228 531 
z
" transform="scale(0.015625)"/>
       </defs>
       <use xlink:href="#DejaVuSans-32"/>
       <use xlink:href="#DejaVuSans-30" x="63.623047"/>
      </g>
     </g>
    </g>
    <g id="xtick_6">
     <g id="line2d_7">
      <g>
       <use xlink:href="#m327fd17c71" x="564.626043" y="192.24" style="stroke: #000000; stroke-width: 0.8"/>
      </g>
     </g>
     <g id="text_6">
      <!-- 25 -->
      <g transform="translate(558.263543 206.838437) scale(0.1 -0.1)">
       <use xlink:href="#DejaVuSans-32"/>
       <use xlink:href="#DejaVuSans-35" x="63.623047"/>
      </g>
     </g>
    </g>
   </g>
   <g id="matplotlib.axis_2">
    <g id="ytick_1">
     <g id="line2d_8">
      <defs>
       <path id="m10a2c80ff4" d="M 0 0 
L -3.5 0 
" style="stroke: #000000; stroke-width: 0.8"/>
      </defs>
      <g>
       <use xlink:href="#m10a2c80ff4" x="90" y="192.24" style="stroke: #000000; stroke-width: 0.8"/>
      </g>
     </g>
     <g id="text_7">
      <!-- 0.00 -->
      <g transform="translate(60.734375 196.039219) scale(0.1 -0.1)">
       <defs>
        <path id="DejaVuSans-2e" d="M 684 794 
L 1344 794 
L 1344 0 
L 684 0 
L 684 794 
z
" transform="scale(0.015625)"/>
       </defs>
       <use xlink:href="#DejaVuSans-30"/>
       <use xlink:href="#DejaVuSans-2e" x="63.623047"/>
       <use xlink:href="#DejaVuSans-30" x="95.410156"/>
       <use xlink:href="#DejaVuSans-30" x="159.033203"/>
      </g>
     </g>
    </g>
    <g id="ytick_2">
     <g id="line2d_9">
      <g>
       <use xlink:href="#m10a2c80ff4" x="90" y="167.259737" style="stroke: #000000; stroke-width: 0.8"/>
      </g>
     </g>
     <g id="text_8">
      <!-- 0.25 -->
      <g transform="translate(60.734375 171.058956) scale(0.1 -0.1)">
       <use xlink:href="#DejaVuSans-30"/>
       <use xlink:href="#DejaVuSans-2e" x="63.623047"/>
       <use xlink:href="#DejaVuSans-32" x="95.410156"/>
       <use xlink:href="#DejaVuSans-35" x="159.033203"/>
      </g>
     </g>
    </g>
    <g id="ytick_3">
     <g id="line2d_10">
      <g>
       <use xlink:href="#m10a2c80ff4" x="90" y="142.279474" style="stroke: #000000; stroke-width: 0.8"/>
      </g>
     </g>
     <g id="text_9">
      <!-- 0.50 -->
      <g transform="translate(60.734375 146.078693) scale(0.1 -0.1)">
       <use xlink:href="#DejaVuSans-30"/>
       <use xlink:href="#DejaVuSans-2e" x="63.623047"/>
       <use xlink:href="#DejaVuSans-35" x="95.410156"/>
       <use xlink:href="#DejaVuSans-30" x="159.033203"/>
      </g>
     </g>
    </g>
    <g id="ytick_4">
     <g id="line2d_11">
      <g>
       <use xlink:href="#m10a2c80ff4" x="90" y="117.299211" style="stroke: #000000; stroke-width: 0.8"/>
      </g>
     </g>
     <g id="text_10">
      <!-- 0.75 -->
      <g transform="translate(60.734375 121.09843) scale(0.1 -0.1)">
       <defs>
        <path id="DejaVuSans-37" d="M 525 4666 
L 3525 4666 
L 3525 4397 
L 1831 0 
L 1172 0 
L 2766 4134 
L 525 4134 
L 525 4666 
z
" transform="scale(0.015625)"/>
       </defs>
       <use xlink:href="#DejaVuSans-30"/>
       <use xlink:href="#DejaVuSans-2e" x="63.623047"/>
       <use xlink:href="#DejaVuSans-37" x="95.410156"/>
       <use xlink:href="#DejaVuSans-35" x="159.033203"/>
      </g>
     </g>
    </g>
    <g id="ytick_5">
     <g id="line2d_12">
      <g>
       <use xlink:href="#m10a2c80ff4" x="90" y="92.318949" style="stroke: #000000; stroke-width: 0.8"/>
      </g>
     </g>
     <g id="text_11">
      <!-- 1.00 -->
      <g transform="translate(60.734375 96.118167) scale(0.1 -0.1)">
       <use xlink:href="#DejaVuSans-31"/>
       <use xlink:href="#DejaVuSans-2e" x="63.623047"/>
       <use xlink:href="#DejaVuSans-30" x="95.410156"/>
       <use xlink:href="#DejaVuSans-30" x="159.033203"/>
      </g>
     </g>
    </g>
    <g id="ytick_6">
     <g id="line2d_13">
      <g>
       <use xlink:href="#m10a2c80ff4" x="90" y="67.338686" style="stroke: #000000; stroke-width: 0.8"/>
      </g>
     </g>
     <g id="text_12">
      <!-- 1.25 -->
      <g transform="translate(60.734375 71.137905) scale(0.1 -0.1)">
       <use xlink:href="#DejaVuSans-31"/>
       <use xlink:href="#DejaVuSans-2e" x="63.623047"/>
       <use xlink:href="#DejaVuSans-32" x="95.410156"/>
       <use xlink:href="#DejaVuSans-35" x="159.033203"/>
      </g>
     </g>
    </g>
    <g id="ytick_7">
     <g id="line2d_14">
      <g>
       <use xlink:href="#m10a2c80ff4" x="90" y="42.358423" style="stroke: #000000; stroke-width: 0.8"/>
      </g>
     </g>
     <g id="text_13">
      <!-- 1.50 -->
      <g transform="translate(60.734375 46.157642) scale(0.1 -0.1)">
       <use xlink:href="#DejaVuSans-31"/>
       <use xlink:href="#DejaVuSans-2e" x="63.623047"/>
       <use xlink:href="#DejaVuSans-35" x="95.410156"/>
       <use xlink:href="#DejaVuSans-30" x="159.033203"/>
      </g>
     </g>
    </g>
   </g>
  </g>
 </g>
 <defs>
  <clipPath id="pff995d1ec8">
   <rect x="90" y="25.92" width="558" height="166.32"/>
  </clipPath>
 </defs>
</svg>
