<?xml version="1.0" encoding="utf-8" standalone="no"?>
<!DOCTYPE svg PUBLIC "-//W3C//DTD SVG 1.1//EN"
  "http://www.w3.org/Graphics/SVG/1.1/DTD/svg11.dtd">
<svg xmlns:xlink="http://www.w3.org/1999/xlink" width="720pt" height="216pt" viewBox="0 0 720 216" xmlns="http://www.w3.org/2000/svg" version="1.1">
 <metadata>
  <rdf:RDF xmlns:dc="http://purl.org/dc/elements/1.1/" xmlns:cc="http://creativecommons.org/ns#" xmlns:rdf="http://www.w3.org/1999/02/22-rdf-syntax-ns#">
   <cc:Work>
    <dc:type rdf:resource="http://purl.org/dc/dcmitype/StillImage"/>
    <dc:date>2025-12-17T10:22:07.899275</dc:date>
    <dc:format>image/svg+xml</dc:format>
    <dc:creator>
     <cc:Agent>
      <dc:title>Matplotlib v3.8.2, https://matplotlib.org/</dc:title>
     </cc:Agent>
    </dc:creator>
   </cc:Work>
  </rdf:RDF>
 </metadata>
 <defs>
  <style type="text/css">*{stroke-linejoin: round; stroke-linecap: butt}</style>
 </defs>
 <g id="figure_1">
  <g id="patch_1">
   <path d="M 0 216 
L 720 216 
L 720 0 
L 0 0 
z
" style="fill: #ffffff"/>
  </g>
  <g id="axes_1">
   <g id="patch_2">
    <path d="M 90 192.24 
L 648 192.24 
L 648 25.92 
L 90 25.92 
z
" style="fill: #ffffff"/>
   </g>
   <g id="line2d_1">
    <path d="M 90 192.24 
L 648 192.24 
" clip-path="url(#p2f9b03c1fb)" style="fill: none; stroke: #000000; stroke-width: 0.5; stroke-linecap: square"/>
   </g>
   <g id="patch_3">
    <path d="M 108.310881 191.887255 
Q 106.464199 192.063627 104.477989 192.152216 
Q 102.49178 192.24 100.374251 192.24 
Q 95.589292 192.24 92.794646 191.714909 
Q 90 191.189817 90 190.291847 
Q 90 189.383406 92.843891 188.862342 
Q 95.691885 188.341277 100.645097 188.341277 
Q 102.553336 188.341277 104.301528 188.412148 
Q 106.053825 188.482214 107.605038 188.620735 
L 107.605038 189.397903 
Q 106.00458 189.219919 104.420537 189.132136 
Q 102.836494 189.043547 101.244243 189.043547 
Q 98.297759 189.043547 96.701405 189.367299 
Q 95.105051 189.690247 95.105051 190.291847 
Q 95.105051 190.887809 96.643953 191.213173 
Q 98.182854 191.537731 101.014434 191.537731 
Q 101.785937 191.537731 102.446639 191.519207 
Q 103.107341 191.499879 103.632619 191.459611 
L 103.632619 190.72996 
L 100.616371 190.72996 
L 100.616371 190.080038 
L 108.310881 190.080038 
L 108.310881 191.887255 
z
" clip-path="url(#p2f9b03c1fb)" style="fill: #ffa600"/>
   </g>
   <g id="patch_4">
    <path d="M 108.310881 188.022768 
Q 106.779207 188.180646 105.12297 188.260503 
Q 103.466732 188.341277 101.662864 188.341277 
Q 96.283552 188.341277 93.141776 187.742811 
Q 90 187.144344 90 186.120893 
Q 90 185.09377 93.141776 184.496221 
Q 96.283552 183.897755 101.662864 183.897755 
Q 103.466732 183.897755 105.12297 183.978529 
Q 106.779207 184.058386 108.310881 184.216264 
L 108.310881 185.102031 
Q 106.765367 184.892751 105.265988 184.795455 
Q 103.766608 184.698158 102.110371 184.698158 
Q 99.139293 184.698158 97.436921 185.077248 
Q 95.739162 185.45542 95.739162 186.120893 
Q 95.739162 186.783612 97.436921 187.162702 
Q 99.139293 187.540874 102.110371 187.540874 
Q 103.766608 187.540874 105.265988 187.443577 
Q 106.765367 187.345363 108.310881 187.136083 
L 108.310881 188.022768 
z
" clip-path="url(#p2f9b03c1fb)" style="fill: #0000ff"/>
   </g>
   <g id="patch_5">
    <path d="M 102.683963 182.058611 
L 95.641893 182.058611 
L 94.529987 183.897755 
L 90 183.897755 
L 96.469271 173.801936 
L 101.84161 173.801936 
L 108.310881 183.897755 
L 103.784638 183.897755 
L 102.683963 182.058611 
z
M 96.76503 180.184847 
L 101.549595 180.184847 
L 99.161056 176.169022 
L 96.76503 180.184847 
z
" clip-path="url(#p2f9b03c1fb)" style="fill: #008000"/>
   </g>
   <g id="patch_6">
    <path d="M 90 150.222324 
L 108.310881 150.222324 
L 108.310881 154.821005 
L 101.723222 154.821005 
L 101.723222 173.801936 
L 96.600434 173.801936 
L 96.600434 154.821005 
L 90 154.821005 
L 90 150.222324 
z
" clip-path="url(#p2f9b03c1fb)" style="fill: #ff0000"/>
   </g>
   <g id="patch_7">
    <path d="M 127.585492 192.04057 
Q 125.73881 192.140285 123.752601 192.19037 
Q 121.766391 192.24 119.648862 192.24 
Q 114.863903 192.24 112.069257 191.943132 
Q 109.274611 191.646264 109.274611 191.138583 
Q 109.274611 190.624983 112.118502 190.330392 
Q 114.966497 190.035801 119.919709 190.035801 
Q 121.827947 190.035801 123.57614 190.075869 
Q 125.328436 190.115482 126.879649 190.193796 
L 126.879649 190.633179 
Q 125.279191 190.532554 123.695148 190.482924 
Q 122.111105 190.432839 120.518855 190.432839 
Q 117.57237 190.432839 115.976016 190.615877 
Q 114.379662 190.79846 114.379662 191.138583 
Q 114.379662 191.475519 115.918564 191.659468 
Q 117.457466 191.842962 120.289045 191.842962 
Q 121.060548 191.842962 121.72125 191.832489 
Q 122.381952 191.821562 122.90723 191.798796 
L 122.90723 191.386277 
L 119.890983 191.386277 
L 119.890983 191.018834 
L 127.585492 191.018834 
L 127.585492 192.04057 
z
" clip-path="url(#p2f9b03c1fb)" style="fill: #ffa600"/>
   </g>
   <g id="patch_8">
    <path d="M 127.585492 189.872434 
Q 126.053819 189.953411 124.397581 189.994371 
Q 122.741344 190.035801 120.937475 190.035801 
Q 115.558164 190.035801 112.416388 189.728841 
Q 109.274611 189.421881 109.274611 188.896942 
Q 109.274611 188.37012 112.416388 188.063631 
Q 115.558164 187.756671 120.937475 187.756671 
Q 122.741344 187.756671 124.397581 187.798101 
Q 126.053819 187.839061 127.585492 187.920038 
L 127.585492 188.374357 
Q 126.039978 188.267015 124.540599 188.217111 
Q 123.04122 188.167206 121.384982 188.167206 
Q 118.413905 188.167206 116.711533 188.361646 
Q 115.013774 188.555614 115.013774 188.896942 
Q 115.013774 189.236858 116.711533 189.431297 
Q 118.413905 189.625265 121.384982 189.625265 
Q 123.04122 189.625265 124.540599 189.575361 
Q 126.039978 189.524986 127.585492 189.417644 
L 127.585492 189.872434 
z
" clip-path="url(#p2f9b03c1fb)" style="fill: #0000ff"/>
   </g>
   <g id="patch_9">
    <path d="M 109.274611 182.979865 
L 127.585492 182.979865 
L 127.585492 183.911475 
L 120.997833 183.911475 
L 120.997833 187.756671 
L 115.875045 187.756671 
L 115.875045 183.911475 
L 109.274611 183.911475 
L 109.274611 182.979865 
z
" clip-path="url(#p2f9b03c1fb)" style="fill: #ff0000"/>
   </g>
   <g id="patch_10">
    <path d="M 121.958575 181.85943 
L 114.916504 181.85943 
L 113.804598 182.979865 
L 109.274611 182.979865 
L 115.743882 176.829337 
L 121.116222 176.829337 
L 127.585492 182.979865 
L 123.059249 182.979865 
L 121.958575 181.85943 
z
M 116.039641 180.717905 
L 120.824206 180.717905 
L 118.435667 178.271403 
L 116.039641 180.717905 
z
" clip-path="url(#p2f9b03c1fb)" style="fill: #008000"/>
   </g>
   <g id="patch_11">
    <path d="M 146.860104 192.1146 
Q 145.013421 192.1773 143.027212 192.208793 
Q 141.041003 192.24 138.923474 192.24 
Q 134.138515 192.24 131.343869 192.053331 
Q 128.549223 191.866663 128.549223 191.547436 
Q 128.549223 191.224488 131.393114 191.039251 
Q 134.241108 190.854014 139.19432 190.854014 
Q 141.102559 190.854014 142.850751 190.879209 
Q 144.603047 190.904117 146.154261 190.953361 
L 146.154261 191.229642 
Q 144.553803 191.166369 142.96976 191.135162 
Q 141.385717 191.103669 139.793466 191.103669 
Q 136.846982 191.103669 135.250628 191.218762 
Q 133.654273 191.333569 133.654273 191.547436 
Q 133.654273 191.7593 135.193175 191.874965 
Q 136.732077 191.990345 139.563657 191.990345 
Q 140.33516 191.990345 140.995861 191.98376 
Q 141.656563 191.976889 142.181842 191.962574 
L 142.181842 191.703185 
L 139.165594 191.703185 
L 139.165594 191.472139 
L 146.860104 191.472139 
L 146.860104 192.1146 
z
" clip-path="url(#p2f9b03c1fb)" style="fill: #ffa600"/>
   </g>
   <g id="patch_12">
    <path d="M 146.860104 190.748099 
Q 145.32843 190.800599 143.672193 190.827154 
Q 142.015955 190.854014 140.212087 190.854014 
Q 134.832775 190.854014 131.690999 190.655004 
Q 128.549223 190.455993 128.549223 190.115661 
Q 128.549223 189.774108 131.690999 189.575403 
Q 134.832775 189.376393 140.212087 189.376393 
Q 142.015955 189.376393 143.672193 189.403253 
Q 145.32843 189.429808 146.860104 189.482308 
L 146.860104 189.776855 
Q 145.31459 189.707263 143.81521 189.674908 
Q 142.315831 189.642554 140.659594 189.642554 
Q 137.688516 189.642554 135.986144 189.768614 
Q 134.288385 189.894369 134.288385 190.115661 
Q 134.288385 190.336038 135.986144 190.462098 
Q 137.688516 190.587853 140.659594 190.587853 
Q 142.315831 190.587853 143.81521 190.555498 
Q 145.31459 190.522839 146.860104 190.453246 
L 146.860104 190.748099 
z
" clip-path="url(#p2f9b03c1fb)" style="fill: #0000ff"/>
   </g>
   <g id="patch_13">
    <path d="M 128.549223 187.887317 
L 146.860104 187.887317 
L 146.860104 188.177728 
L 140.272445 188.177728 
L 140.272445 189.376393 
L 135.149657 189.376393 
L 135.149657 188.177728 
L 128.549223 188.177728 
L 128.549223 187.887317 
z
" clip-path="url(#p2f9b03c1fb)" style="fill: #ff0000"/>
   </g>
   <g id="patch_14">
    <path d="M 141.233186 187.392783 
L 134.191116 187.392783 
L 133.07921 187.887317 
L 128.549223 187.887317 
L 135.018493 185.172617 
L 140.390833 185.172617 
L 146.860104 187.887317 
L 142.333861 187.887317 
L 141.233186 187.392783 
z
M 135.314253 186.88894 
L 140.098817 186.88894 
L 137.710279 185.809111 
L 135.314253 186.88894 
z
" clip-path="url(#p2f9b03c1fb)" style="fill: #008000"/>
   </g>
   <g id="patch_15">
    <path d="M 166.134715 191.898308 
Q 164.288033 192.069154 162.301823 192.154967 
Q 160.315614 192.24 158.198085 192.24 
Q 153.413126 192.24 150.61848 191.731363 
Q 147.823834 191.222726 147.823834 190.352894 
Q 147.823834 189.472921 150.667725 188.968185 
Q 153.515719 188.463448 158.468932 188.463448 
Q 160.37717 188.463448 162.125363 188.532099 
Q 163.877659 188.599969 165.428872 188.734149 
L 165.428872 189.486963 
Q 163.828414 189.314557 162.244371 189.229524 
Q 160.660328 189.143711 159.068077 189.143711 
Q 156.121593 189.143711 154.525239 189.457319 
Q 152.928885 189.770146 152.928885 190.352894 
Q 152.928885 190.930182 154.467787 191.245349 
Q 156.006689 191.559737 158.838268 191.559737 
Q 159.609771 191.559737 160.270473 191.541794 
Q 160.931175 191.523071 161.456453 191.484066 
L 161.456453 190.777279 
L 158.440205 190.777279 
L 158.440205 190.147723 
L 166.134715 190.147723 
L 166.134715 191.898308 
z
" clip-path="url(#p2f9b03c1fb)" style="fill: #ffa600"/>
   </g>
   <g id="patch_16">
    <path d="M 166.134715 188.167482 
Q 164.603041 188.314186 162.946804 188.388391 
Q 161.290567 188.463448 159.486698 188.463448 
Q 154.107387 188.463448 150.96561 187.907339 
Q 147.823834 187.351229 147.823834 186.400213 
Q 147.823834 185.445785 150.96561 184.890528 
Q 154.107387 184.334418 159.486698 184.334418 
Q 161.290567 184.334418 162.946804 184.409476 
Q 164.603041 184.483681 166.134715 184.630385 
L 166.134715 185.453461 
Q 164.589201 185.258994 163.089822 185.168583 
Q 161.590443 185.078173 159.934205 185.078173 
Q 156.963127 185.078173 155.260755 185.430432 
Q 153.562997 185.781839 153.562997 186.400213 
Q 153.562997 187.016028 155.260755 187.368287 
Q 156.963127 187.719694 159.934205 187.719694 
Q 161.590443 187.719694 163.089822 187.629284 
Q 164.589201 187.53802 166.134715 187.343552 
L 166.134715 188.167482 
z
" clip-path="url(#p2f9b03c1fb)" style="fill: #0000ff"/>
   </g>
   <g id="patch_17">
    <path d="M 147.823834 177.586979 
L 166.134715 177.586979 
L 166.134715 178.902918 
L 159.547056 178.902918 
L 159.547056 184.334418 
L 154.424268 184.334418 
L 154.424268 178.902918 
L 147.823834 178.902918 
L 147.823834 177.586979 
z
" clip-path="url(#p2f9b03c1fb)" style="fill: #ff0000"/>
   </g>
   <g id="patch_18">
    <path d="M 160.507797 174.596602 
L 153.465727 174.596602 
L 152.353821 177.586979 
L 147.823834 177.586979 
L 154.293105 161.171568 
L 159.665445 161.171568 
L 166.134715 177.586979 
L 161.608472 177.586979 
L 160.507797 174.596602 
z
M 154.588864 171.549936 
L 159.373429 171.549936 
L 156.98489 165.020359 
L 154.588864 171.549936 
z
" clip-path="url(#p2f9b03c1fb)" style="fill: #008000"/>
   </g>
   <g id="patch_19">
    <path d="M 185.409326 191.938194 
Q 183.877653 192.087792 182.221415 192.163461 
Q 180.565178 192.24 178.761309 192.24 
Q 173.381998 192.24 170.240222 191.672918 
Q 167.098446 191.105835 167.098446 190.136055 
Q 167.098446 189.162795 170.240222 188.596583 
Q 173.381998 188.0295 178.761309 188.0295 
Q 180.565178 188.0295 182.221415 188.106039 
Q 183.877653 188.181708 185.409326 188.331306 
L 185.409326 189.170623 
Q 183.863812 188.972318 182.364433 188.880124 
Q 180.865054 188.787929 179.208817 188.787929 
Q 176.237739 188.787929 174.535367 189.14714 
Q 172.837608 189.50548 172.837608 190.136055 
Q 172.837608 190.76402 174.535367 191.12323 
Q 176.237739 191.481571 179.208817 191.481571 
Q 180.865054 191.481571 182.364433 191.389376 
Q 183.863812 191.296312 185.409326 191.098007 
L 185.409326 191.938194 
z
" clip-path="url(#p2f9b03c1fb)" style="fill: #0000ff"/>
   </g>
   <g id="patch_20">
    <path d="M 185.409326 187.415309 
Q 183.562644 187.722405 181.576435 187.876654 
Q 179.590225 188.0295 177.472696 188.0295 
Q 172.687737 188.0295 169.893091 187.115225 
Q 167.098446 186.200949 167.098446 184.637425 
Q 167.098446 183.055672 169.942336 182.148408 
Q 172.790331 181.241144 177.743543 181.241144 
Q 179.651781 181.241144 181.399974 181.364543 
Q 183.15227 181.48654 184.703483 181.727729 
L 184.703483 183.080913 
Q 183.103025 182.771013 181.518982 182.618166 
Q 179.934939 182.463917 178.342689 182.463917 
Q 175.396205 182.463917 173.79985 183.027627 
Q 172.203496 183.589935 172.203496 184.637425 
Q 172.203496 185.6751 173.742398 186.241615 
Q 175.2813 186.806727 178.11288 186.806727 
Q 178.884382 186.806727 179.545084 186.774475 
Q 180.205786 186.74082 180.731065 186.670707 
L 180.731065 185.400257 
L 177.714817 185.400257 
L 177.714817 184.26863 
L 185.409326 184.26863 
L 185.409326 187.415309 
z
" clip-path="url(#p2f9b03c1fb)" style="fill: #ffa600"/>
   </g>
   <g id="patch_21">
    <path d="M 167.098446 172.390501 
L 185.409326 172.390501 
L 185.409326 174.116623 
L 178.821668 174.116623 
L 178.821668 181.241144 
L 173.698879 181.241144 
L 173.698879 174.116623 
L 167.098446 174.116623 
L 167.098446 172.390501 
z
" clip-path="url(#p2f9b03c1fb)" style="fill: #ff0000"/>
   </g>
   <g id="patch_22">
    <path d="M 179.782409 166.348246 
L 172.740338 166.348246 
L 171.628432 172.390501 
L 167.098446 172.390501 
L 173.567716 139.222075 
L 178.940056 139.222075 
L 185.409326 172.390501 
L 180.883083 172.390501 
L 179.782409 166.348246 
z
M 173.863476 160.192254 
L 178.64804 160.192254 
L 176.259502 146.998813 
L 173.863476 160.192254 
z
" clip-path="url(#p2f9b03c1fb)" style="fill: #008000"/>
   </g>
   <g id="patch_23">
    <path d="M 199.05702 191.658 
L 192.01495 191.658 
L 190.903044 192.24 
L 186.373057 192.24 
L 192.842328 189.045161 
L 198.214667 189.045161 
L 204.683938 192.24 
L 200.157695 192.24 
L 199.05702 191.658 
z
M 193.138087 191.065044 
L 197.922652 191.065044 
L 195.534113 189.794229 
L 193.138087 191.065044 
z
" clip-path="url(#p2f9b03c1fb)" style="fill: #008000"/>
   </g>
   <g id="patch_24">
    <path d="M 204.683938 188.735856 
Q 203.152264 188.889171 201.496027 188.96672 
Q 199.839789 189.045161 198.035921 189.045161 
Q 192.656609 189.045161 189.514833 188.463989 
Q 186.373057 187.882818 186.373057 186.888944 
Q 186.373057 185.891504 189.514833 185.311224 
Q 192.656609 184.730053 198.035921 184.730053 
Q 199.839789 184.730053 201.496027 184.808493 
Q 203.152264 184.886042 204.683938 185.039357 
L 204.683938 185.899526 
Q 203.138424 185.696295 201.639045 185.60181 
Q 200.139665 185.507325 198.483428 185.507325 
Q 195.51235 185.507325 193.809978 185.875459 
Q 192.112219 186.242703 192.112219 186.888944 
Q 192.112219 187.532511 193.809978 187.900645 
Q 195.51235 188.267888 198.483428 188.267888 
Q 200.139665 188.267888 201.639045 188.173404 
Q 203.138424 188.078027 204.683938 187.874796 
L 204.683938 188.735856 
z
" clip-path="url(#p2f9b03c1fb)" style="fill: #0000ff"/>
   </g>
   <g id="patch_25">
    <path d="M 204.683938 184.264553 
Q 202.837256 184.497303 200.851046 184.614209 
Q 198.864837 184.730053 196.747308 184.730053 
Q 191.962349 184.730053 189.167703 184.037118 
Q 186.373057 183.344183 186.373057 182.159179 
Q 186.373057 180.960359 189.216948 180.272737 
Q 192.064942 179.585116 197.018154 179.585116 
Q 198.926393 179.585116 200.674585 179.678641 
Q 202.426882 179.771104 203.978095 179.953902 
L 203.978095 180.979489 
Q 202.377637 180.744613 200.793594 180.62877 
Q 199.209551 180.511864 197.6173 180.511864 
Q 194.670816 180.511864 193.074462 180.939103 
Q 191.478108 181.365279 191.478108 182.159179 
Q 191.478108 182.945639 193.017009 183.375003 
Q 194.555911 183.803305 197.387491 183.803305 
Q 198.158994 183.803305 198.819696 183.778861 
Q 199.480398 183.753354 200.005676 183.700215 
L 200.005676 182.737333 
L 196.989428 182.737333 
L 196.989428 181.879667 
L 204.683938 181.879667 
L 204.683938 184.264553 
z
" clip-path="url(#p2f9b03c1fb)" style="fill: #ffa600"/>
   </g>
   <g id="patch_26">
    <path d="M 186.373057 166.639793 
L 204.683938 166.639793 
L 204.683938 169.164492 
L 198.096279 169.164492 
L 198.096279 179.585116 
L 192.973491 179.585116 
L 192.973491 169.164492 
L 186.373057 169.164492 
L 186.373057 166.639793 
z
" clip-path="url(#p2f9b03c1fb)" style="fill: #ff0000"/>
   </g>
   <g id="patch_27">
    <path d="M 223.958549 191.693991 
Q 222.111867 191.966995 220.125658 192.104121 
Q 218.139448 192.24 216.021919 192.24 
Q 211.23696 192.24 208.442314 191.427219 
Q 205.647668 190.614438 205.647668 189.224483 
Q 205.647668 187.818323 208.491559 187.011775 
Q 211.339554 186.205227 216.292766 186.205227 
Q 218.201004 186.205227 219.949197 186.314928 
Q 221.701493 186.423381 223.252706 186.637796 
L 223.252706 187.840762 
Q 221.652248 187.565264 220.068205 187.429385 
Q 218.484162 187.292259 216.891912 187.292259 
Q 213.945427 187.292259 212.349073 187.793391 
Q 210.752719 188.293276 210.752719 189.224483 
Q 210.752719 190.146965 212.291621 190.65059 
Q 213.830523 191.152968 216.662102 191.152968 
Q 217.433605 191.152968 218.094307 191.124296 
Q 218.755009 191.094378 219.280287 191.032048 
L 219.280287 189.902632 
L 216.26404 189.902632 
L 216.26404 188.896629 
L 223.958549 188.896629 
L 223.958549 191.693991 
z
" clip-path="url(#p2f9b03c1fb)" style="fill: #ffa600"/>
   </g>
   <g id="patch_28">
    <path d="M 223.958549 185.745623 
Q 222.426876 185.973438 220.770638 186.08867 
Q 219.114401 186.205227 217.310532 186.205227 
Q 211.931221 186.205227 208.789445 185.341647 
Q 205.647668 184.478068 205.647668 183.001241 
Q 205.647668 181.519116 208.789445 180.656861 
Q 211.931221 179.793281 217.310532 179.793281 
Q 219.114401 179.793281 220.770638 179.909838 
Q 222.426876 180.02507 223.958549 180.252885 
L 223.958549 181.531036 
Q 222.413035 181.229048 220.913656 181.08865 
Q 219.414277 180.948252 217.758039 180.948252 
Q 214.786962 180.948252 213.08459 181.495274 
Q 211.386831 182.040972 211.386831 183.001241 
Q 211.386831 183.957536 213.08459 184.504558 
Q 214.786962 185.050256 217.758039 185.050256 
Q 219.414277 185.050256 220.913656 184.909858 
Q 222.413035 184.768135 223.958549 184.466147 
L 223.958549 185.745623 
z
" clip-path="url(#p2f9b03c1fb)" style="fill: #0000ff"/>
   </g>
   <g id="patch_29">
    <path d="M 205.647668 172.061228 
L 223.958549 172.061228 
L 223.958549 173.569194 
L 217.37089 173.569194 
L 217.37089 179.793281 
L 212.248102 179.793281 
L 212.248102 173.569194 
L 205.647668 173.569194 
L 205.647668 172.061228 
z
" clip-path="url(#p2f9b03c1fb)" style="fill: #ff0000"/>
   </g>
   <g id="patch_30">
    <path d="M 218.331632 165.138772 
L 211.289561 165.138772 
L 210.177655 172.061228 
L 205.647668 172.061228 
L 212.116939 134.061018 
L 217.489279 134.061018 
L 223.958549 172.061228 
L 219.432306 172.061228 
L 218.331632 165.138772 
z
M 212.412698 158.086011 
L 217.197263 158.086011 
L 214.808724 142.970625 
L 212.412698 158.086011 
z
" clip-path="url(#p2f9b03c1fb)" style="fill: #008000"/>
   </g>
   <g id="patch_31">
    <path d="M 243.233161 191.850664 
Q 241.701487 192.043649 240.04525 192.141264 
Q 238.389012 192.24 236.585144 192.24 
Q 231.205832 192.24 228.064056 191.508453 
Q 224.92228 190.776906 224.92228 189.525871 
Q 224.92228 188.270348 228.064056 187.539923 
Q 231.205832 186.808376 236.585144 186.808376 
Q 238.389012 186.808376 240.04525 186.907113 
Q 241.701487 187.004727 243.233161 187.197712 
L 243.233161 188.280446 
Q 241.687647 188.024629 240.188267 187.905697 
Q 238.688888 187.786764 237.032651 187.786764 
Q 234.061573 187.786764 232.359201 188.250152 
Q 230.661442 188.712418 230.661442 189.525871 
Q 230.661442 190.335958 232.359201 190.799346 
Q 234.061573 191.261612 237.032651 191.261612 
Q 238.688888 191.261612 240.188267 191.14268 
Q 241.687647 191.022625 243.233161 190.766808 
L 243.233161 191.850664 
z
" clip-path="url(#p2f9b03c1fb)" style="fill: #0000ff"/>
   </g>
   <g id="patch_32">
    <path d="M 243.233161 186.296462 
Q 241.386478 186.552419 239.400269 186.680982 
Q 237.41406 186.808376 235.296531 186.808376 
Q 230.511572 186.808376 227.716926 186.046348 
Q 224.92228 185.28432 224.92228 183.981159 
Q 224.92228 182.662803 227.766171 181.906619 
Q 230.614165 181.150435 235.567377 181.150435 
Q 237.475616 181.150435 239.223808 181.253285 
Q 240.976104 181.354967 242.527318 181.555993 
L 242.527318 182.683841 
Q 240.92686 182.425546 239.342817 182.298152 
Q 237.758774 182.169589 236.166523 182.169589 
Q 233.220039 182.169589 231.623685 182.639428 
Q 230.02733 183.108099 230.02733 183.981159 
Q 230.02733 184.846037 231.566232 185.318214 
Q 233.105134 185.789222 235.936714 185.789222 
Q 236.708217 185.789222 237.368918 185.762341 
Q 238.02962 185.734291 238.554899 185.675853 
L 238.554899 184.616961 
L 235.538651 184.616961 
L 235.538651 183.673776 
L 243.233161 183.673776 
L 243.233161 186.296462 
z
" clip-path="url(#p2f9b03c1fb)" style="fill: #ffa600"/>
   </g>
   <g id="patch_33">
    <path d="M 237.606243 179.954822 
L 230.564173 179.954822 
L 229.452267 181.150435 
L 224.92228 181.150435 
L 231.39155 174.587223 
L 236.76389 174.587223 
L 243.233161 181.150435 
L 238.706918 181.150435 
L 237.606243 179.954822 
z
M 231.68731 178.736703 
L 236.471874 178.736703 
L 234.083336 176.126047 
L 231.68731 178.736703 
z
" clip-path="url(#p2f9b03c1fb)" style="fill: #008000"/>
   </g>
   <g id="patch_34">
    <path d="M 224.92228 52.602007 
L 243.233161 52.602007 
L 243.233161 76.392523 
L 236.645502 76.392523 
L 236.645502 174.587223 
L 231.522714 174.587223 
L 231.522714 76.392523 
L 224.92228 76.392523 
L 224.92228 52.602007 
z
" clip-path="url(#p2f9b03c1fb)" style="fill: #ff0000"/>
   </g>
   <g id="patch_35">
    <path d="M 256.880854 192.092682 
L 249.838784 192.092682 
L 248.726878 192.24 
L 244.196891 192.24 
L 250.666162 191.431313 
L 256.038502 191.431313 
L 262.507772 192.24 
L 257.981529 192.24 
L 256.880854 192.092682 
z
M 250.961921 191.942592 
L 255.746486 191.942592 
L 253.357947 191.620919 
L 250.961921 191.942592 
z
" clip-path="url(#p2f9b03c1fb)" style="fill: #008000"/>
   </g>
   <g id="patch_36">
    <path d="M 262.507772 191.025549 
Q 260.976098 191.226677 259.319861 191.32841 
Q 257.663624 191.431313 255.859755 191.431313 
Q 250.480444 191.431313 247.338667 190.668898 
Q 244.196891 189.906484 244.196891 188.602662 
Q 244.196891 187.294162 247.338667 186.532917 
Q 250.480444 185.770502 255.859755 185.770502 
Q 257.663624 185.770502 259.319861 185.873405 
Q 260.976098 185.975138 262.507772 186.176266 
L 262.507772 187.304686 
Q 260.962258 187.038075 259.462879 186.914124 
Q 257.9635 186.790173 256.307262 186.790173 
Q 253.336184 186.790173 251.633812 187.273114 
Q 249.936054 187.754885 249.936054 188.602662 
Q 249.936054 189.44693 251.633812 189.929871 
Q 253.336184 190.411642 256.307262 190.411642 
Q 257.9635 190.411642 259.462879 190.287691 
Q 260.962258 190.162571 262.507772 189.89596 
L 262.507772 191.025549 
z
" clip-path="url(#p2f9b03c1fb)" style="fill: #0000ff"/>
   </g>
   <g id="patch_37">
    <path d="M 262.507772 185.136382 
Q 260.66109 185.453442 258.67488 185.612696 
Q 256.688671 185.770502 254.571142 185.770502 
Q 249.786183 185.770502 246.991537 184.826561 
Q 244.196891 183.882619 244.196891 182.268363 
Q 244.196891 180.635286 247.040782 179.698583 
Q 249.888776 178.76188 254.841989 178.76188 
Q 256.750227 178.76188 258.49842 178.889283 
Q 260.250716 179.015239 261.801929 179.264254 
L 261.801929 180.661346 
Q 260.201471 180.34139 258.617428 180.183584 
Q 257.033385 180.02433 255.441134 180.02433 
Q 252.49465 180.02433 250.898296 180.606331 
Q 249.301942 181.186884 249.301942 182.268363 
Q 249.301942 183.339708 250.840844 183.924604 
Q 252.379746 184.508053 255.211325 184.508053 
Q 255.982828 184.508053 256.64353 184.474754 
Q 257.304232 184.440008 257.82951 184.36762 
L 257.82951 183.055946 
L 254.813262 183.055946 
L 254.813262 181.887601 
L 262.507772 181.887601 
L 262.507772 185.136382 
z
" clip-path="url(#p2f9b03c1fb)" style="fill: #ffa600"/>
   </g>
   <g id="patch_38">
    <path d="M 244.196891 25.92 
L 262.507772 25.92 
L 262.507772 55.728425 
L 255.920113 55.728425 
L 255.920113 178.76188 
L 250.797325 178.76188 
L 250.797325 55.728425 
L 244.196891 55.728425 
L 244.196891 25.92 
z
" clip-path="url(#p2f9b03c1fb)" style="fill: #ff0000"/>
   </g>
   <g id="patch_39">
    <path d="M 281.782383 191.789219 
Q 279.935701 192.014609 277.949492 192.127819 
Q 275.963282 192.24 273.845753 192.24 
Q 269.060794 192.24 266.266148 191.568974 
Q 263.471503 190.897948 263.471503 189.750411 
Q 263.471503 188.589495 266.315393 187.923615 
Q 269.163388 187.257735 274.1166 187.257735 
Q 276.024838 187.257735 277.773031 187.348303 
Q 279.525327 187.437841 281.07654 187.614861 
L 281.07654 188.60802 
Q 279.476082 188.380571 277.892039 188.26839 
Q 276.307996 188.155181 274.715746 188.155181 
Q 271.769262 188.155181 270.172907 188.568911 
Q 268.576553 188.981613 268.576553 189.750411 
Q 268.576553 190.512005 270.115455 190.927794 
Q 271.654357 191.342554 274.485937 191.342554 
Q 275.257439 191.342554 275.918141 191.318883 
Q 276.578843 191.294183 277.104122 191.242724 
L 277.104122 190.310286 
L 274.087874 190.310286 
L 274.087874 189.479737 
L 281.782383 189.479737 
L 281.782383 191.789219 
z
" clip-path="url(#p2f9b03c1fb)" style="fill: #ffa600"/>
   </g>
   <g id="patch_40">
    <path d="M 276.155466 186.1851 
L 269.113395 186.1851 
L 268.001489 187.257735 
L 263.471503 187.257735 
L 269.940773 181.369603 
L 275.313113 181.369603 
L 281.782383 187.257735 
L 277.25614 187.257735 
L 276.155466 186.1851 
z
M 270.236533 185.092275 
L 275.021097 185.092275 
L 272.632559 182.750147 
L 270.236533 185.092275 
z
" clip-path="url(#p2f9b03c1fb)" style="fill: #008000"/>
   </g>
   <g id="patch_41">
    <path d="M 281.782383 180.882613 
Q 280.25071 181.124003 278.594472 181.246101 
Q 276.938235 181.369603 275.134366 181.369603 
Q 269.755055 181.369603 266.613279 180.454568 
Q 263.471503 179.539532 263.471503 177.974709 
Q 263.471503 176.404273 266.613279 175.49064 
Q 269.755055 174.575605 275.134366 174.575605 
Q 276.938235 174.575605 278.594472 174.699107 
Q 280.25071 174.821205 281.782383 175.062595 
L 281.782383 176.416903 
Q 280.236869 176.096922 278.73749 175.948158 
Q 277.238111 175.799395 275.581874 175.799395 
Q 272.610796 175.799395 270.908424 176.379011 
Q 269.210665 176.957223 269.210665 177.974709 
Q 269.210665 178.987985 270.908424 179.567601 
Q 272.610796 180.145813 275.581874 180.145813 
Q 277.238111 180.145813 278.73749 179.99705 
Q 280.236869 179.846883 281.782383 179.526901 
L 281.782383 180.882613 
z
" clip-path="url(#p2f9b03c1fb)" style="fill: #0000ff"/>
   </g>
   <g id="patch_42">
    <path d="M 263.471503 52.510106 
L 281.782383 52.510106 
L 281.782383 76.316279 
L 275.194725 76.316279 
L 275.194725 174.575605 
L 270.071936 174.575605 
L 270.071936 76.316279 
L 263.471503 76.316279 
L 263.471503 52.510106 
z
" clip-path="url(#p2f9b03c1fb)" style="fill: #ff0000"/>
   </g>
   <g id="patch_43">
    <path d="M 295.430077 192.106801 
L 288.388007 192.106801 
L 287.276101 192.24 
L 282.746114 192.24 
L 289.215385 191.508814 
L 294.587724 191.508814 
L 301.056995 192.24 
L 296.530752 192.24 
L 295.430077 192.106801 
z
M 289.511144 191.971094 
L 294.295709 191.971094 
L 291.90717 191.680249 
L 289.511144 191.971094 
z
" clip-path="url(#p2f9b03c1fb)" style="fill: #008000"/>
   </g>
   <g id="patch_44">
    <path d="M 301.056995 191.037115 
Q 299.525321 191.270926 297.869084 191.38919 
Q 296.212846 191.508814 294.408978 191.508814 
Q 289.029666 191.508814 285.88789 190.62251 
Q 282.746114 189.736205 282.746114 188.220516 
Q 282.746114 186.69939 285.88789 185.814445 
Q 289.029666 184.92814 294.408978 184.92814 
Q 296.212846 184.92814 297.869084 185.047764 
Q 299.525321 185.166029 301.056995 185.399839 
L 301.056995 186.711624 
Q 299.511481 186.401689 298.012102 186.257597 
Q 296.512722 186.113504 294.856485 186.113504 
Q 291.885407 186.113504 290.183035 186.674921 
Q 288.485276 187.234978 288.485276 188.220516 
Q 288.485276 189.201976 290.183035 189.763393 
Q 291.885407 190.32345 294.856485 190.32345 
Q 296.512722 190.32345 298.012102 190.179358 
Q 299.511481 190.033906 301.056995 189.723971 
L 301.056995 191.037115 
z
" clip-path="url(#p2f9b03c1fb)" style="fill: #0000ff"/>
   </g>
   <g id="patch_45">
    <path d="M 301.056995 184.024013 
Q 299.210313 184.476077 297.224103 184.703141 
Q 295.237894 184.92814 293.120365 184.92814 
Q 288.335406 184.92814 285.54076 183.582271 
Q 282.746114 182.236401 282.746114 179.934799 
Q 282.746114 177.606362 285.590005 176.270814 
Q 288.437999 174.935265 293.391211 174.935265 
Q 295.29945 174.935265 297.047642 175.116916 
Q 298.799939 175.296503 300.351152 175.651549 
L 300.351152 177.643518 
Q 298.750694 177.187326 297.166651 176.962326 
Q 295.582608 176.735262 293.990357 176.735262 
Q 291.043873 176.735262 289.447519 177.565078 
Q 287.851165 178.392829 287.851165 179.934799 
Q 287.851165 181.46232 289.390066 182.296263 
Q 290.928968 183.128143 293.760548 183.128143 
Q 294.532051 183.128143 295.192753 183.080666 
Q 295.853455 183.031125 296.378733 182.927914 
L 296.378733 181.057733 
L 293.362485 181.057733 
L 293.362485 179.39191 
L 301.056995 179.39191 
L 301.056995 184.024013 
z
" clip-path="url(#p2f9b03c1fb)" style="fill: #ffa600"/>
   </g>
   <g id="patch_46">
    <path d="M 282.746114 41.859417 
L 301.056995 41.859417 
L 301.056995 67.812915 
L 294.469336 67.812915 
L 294.469336 174.935265 
L 289.346548 174.935265 
L 289.346548 67.812915 
L 282.746114 67.812915 
L 282.746114 41.859417 
z
" clip-path="url(#p2f9b03c1fb)" style="fill: #ff0000"/>
   </g>
   <g id="patch_47">
    <path d="M 320.331606 192.067453 
Q 318.799933 192.152981 317.143695 192.196242 
Q 315.487458 192.24 313.683589 192.24 
Q 308.304278 192.24 305.162502 191.915791 
Q 302.020725 191.591583 302.020725 191.037146 
Q 302.020725 190.480721 305.162502 190.157009 
Q 308.304278 189.832801 313.683589 189.832801 
Q 315.487458 189.832801 317.143695 189.876559 
Q 318.799933 189.91982 320.331606 190.005347 
L 320.331606 190.485196 
Q 318.786092 190.371822 317.286713 190.319114 
Q 315.787334 190.266405 314.131096 190.266405 
Q 311.160019 190.266405 309.457647 190.47177 
Q 307.759888 190.676638 307.759888 191.037146 
Q 307.759888 191.396163 309.457647 191.601528 
Q 311.160019 191.806396 314.131096 191.806396 
Q 315.787334 191.806396 317.286713 191.753687 
Q 318.786092 191.700481 320.331606 191.587107 
L 320.331606 192.067453 
z
" clip-path="url(#p2f9b03c1fb)" style="fill: #0000ff"/>
   </g>
   <g id="patch_48">
    <path d="M 302.020725 186.71949 
L 320.331606 186.71949 
L 320.331606 187.326672 
L 313.743947 187.326672 
L 313.743947 189.832801 
L 308.621159 189.832801 
L 308.621159 187.326672 
L 302.020725 187.326672 
L 302.020725 186.71949 
z
" clip-path="url(#p2f9b03c1fb)" style="fill: #ff0000"/>
   </g>
   <g id="patch_49">
    <path d="M 320.331606 186.222914 
Q 318.484924 186.471202 316.498715 186.595913 
Q 314.512505 186.71949 312.394976 186.71949 
Q 307.610017 186.71949 304.815371 185.980294 
Q 302.020725 185.241098 302.020725 183.976983 
Q 302.020725 182.698129 304.864616 181.964602 
Q 307.712611 181.231075 312.665823 181.231075 
Q 314.574061 181.231075 316.322254 181.330844 
Q 318.07455 181.429479 319.625763 181.624482 
L 319.625763 182.718537 
Q 318.025305 182.467981 316.441262 182.344404 
Q 314.857219 182.219693 313.264969 182.219693 
Q 310.318484 182.219693 308.72213 182.675455 
Q 307.125776 183.130083 307.125776 183.976983 
Q 307.125776 184.815948 308.664678 185.273977 
Q 310.20358 185.730872 313.035159 185.730872 
Q 313.806662 185.730872 314.467364 185.704796 
Q 315.128066 185.677587 315.653344 185.6209 
L 315.653344 184.593735 
L 312.637097 184.593735 
L 312.637097 183.678811 
L 320.331606 183.678811 
L 320.331606 186.222914 
z
" clip-path="url(#p2f9b03c1fb)" style="fill: #ffa600"/>
   </g>
   <g id="patch_50">
    <path d="M 314.704689 179.629027 
L 307.662618 179.629027 
L 306.550712 181.231075 
L 302.020725 181.231075 
L 308.489996 172.436774 
L 313.862336 172.436774 
L 320.331606 181.231075 
L 315.805363 181.231075 
L 314.704689 179.629027 
z
M 308.785755 177.996823 
L 313.57032 177.996823 
L 311.181781 174.498704 
L 308.785755 177.996823 
z
" clip-path="url(#p2f9b03c1fb)" style="fill: #008000"/>
   </g>
   <g id="patch_51">
    <path d="M 339.606218 192.022649 
Q 338.074544 192.130385 336.418307 192.184879 
Q 334.762069 192.24 332.958201 192.24 
Q 327.578889 192.24 324.437113 191.831606 
Q 321.295337 191.423212 321.295337 190.724808 
Q 321.295337 190.023898 324.437113 189.61613 
Q 327.578889 189.207736 332.958201 189.207736 
Q 334.762069 189.207736 336.418307 189.262857 
Q 338.074544 189.317351 339.606218 189.425087 
L 339.606218 190.029536 
Q 338.060704 189.886723 336.561324 189.820327 
Q 335.061945 189.753932 333.405708 189.753932 
Q 330.43463 189.753932 328.732258 190.012623 
Q 327.034499 190.270688 327.034499 190.724808 
Q 327.034499 191.177048 328.732258 191.435739 
Q 330.43463 191.693804 333.405708 191.693804 
Q 335.061945 191.693804 336.561324 191.627409 
Q 338.060704 191.560387 339.606218 191.417574 
L 339.606218 192.022649 
z
" clip-path="url(#p2f9b03c1fb)" style="fill: #0000ff"/>
   </g>
   <g id="patch_52">
    <path d="M 321.295337 185.730741 
L 339.606218 185.730741 
L 339.606218 186.408852 
L 333.018559 186.408852 
L 333.018559 189.207736 
L 327.895771 189.207736 
L 327.895771 186.408852 
L 321.295337 186.408852 
L 321.295337 185.730741 
z
" clip-path="url(#p2f9b03c1fb)" style="fill: #ff0000"/>
   </g>
   <g id="patch_53">
    <path d="M 339.606218 185.152775 
Q 337.759535 185.441758 335.773326 185.586909 
Q 333.787117 185.730741 331.669588 185.730741 
Q 326.884629 185.730741 324.089983 184.87039 
Q 321.295337 184.01004 321.295337 182.538735 
Q 321.295337 181.050277 324.139228 180.196524 
Q 326.987222 179.342772 331.940434 179.342772 
Q 333.848673 179.342772 335.596865 179.458893 
Q 337.349161 179.573694 338.900375 179.800658 
L 338.900375 181.074029 
Q 337.299917 180.782407 335.715874 180.638575 
Q 334.131831 180.493424 332.53958 180.493424 
Q 329.593096 180.493424 327.996742 181.023886 
Q 326.400387 181.553027 326.400387 182.538735 
Q 326.400387 183.515207 327.939289 184.048307 
Q 329.478191 184.580088 332.309771 184.580088 
Q 333.081274 184.580088 333.741975 184.549738 
Q 334.402677 184.518069 334.927956 184.452091 
L 334.927956 183.256574 
L 331.911708 183.256574 
L 331.911708 182.191692 
L 339.606218 182.191692 
L 339.606218 185.152775 
z
" clip-path="url(#p2f9b03c1fb)" style="fill: #ffa600"/>
   </g>
   <g id="patch_54">
    <path d="M 333.9793 177.147966 
L 326.93723 177.147966 
L 325.825324 179.342772 
L 321.295337 179.342772 
L 327.764607 167.294577 
L 333.136947 167.294577 
L 339.606218 179.342772 
L 335.079975 179.342772 
L 333.9793 177.147966 
z
M 328.060367 174.911845 
L 332.844931 174.911845 
L 330.456393 170.119422 
L 328.060367 174.911845 
z
" clip-path="url(#p2f9b03c1fb)" style="fill: #008000"/>
   </g>
   <g id="patch_55">
    <path d="M 358.880829 191.805361 
Q 357.034147 192.022681 355.047937 192.131836 
Q 353.061728 192.24 350.944199 192.24 
Q 346.15924 192.24 343.364594 191.593003 
Q 340.569948 190.946006 340.569948 189.839562 
Q 340.569948 188.720218 343.413839 188.078183 
Q 346.261833 187.436148 351.215046 187.436148 
Q 353.123284 187.436148 354.871477 187.523473 
Q 356.623773 187.609805 358.174986 187.780485 
L 358.174986 188.73808 
Q 356.574528 188.518776 354.990485 188.410612 
Q 353.406442 188.301456 351.814191 188.301456 
Q 348.867707 188.301456 347.271353 188.700372 
Q 345.674999 189.098295 345.674999 189.839562 
Q 345.674999 190.573884 347.213901 190.974784 
Q 348.752803 191.374691 351.584382 191.374691 
Q 352.355885 191.374691 353.016587 191.351868 
Q 353.677289 191.328052 354.202567 191.278436 
L 354.202567 190.379388 
L 351.186319 190.379388 
L 351.186319 189.578581 
L 358.880829 189.578581 
L 358.880829 191.805361 
z
" clip-path="url(#p2f9b03c1fb)" style="fill: #ffa600"/>
   </g>
   <g id="patch_56">
    <path d="M 358.880829 187.054149 
Q 357.349155 187.243497 355.692918 187.339272 
Q 354.036681 187.436148 352.232812 187.436148 
Q 346.853501 187.436148 343.711724 186.718386 
Q 340.569948 186.000624 340.569948 184.773162 
Q 340.569948 183.541298 343.711724 182.824636 
Q 346.853501 182.106874 352.232812 182.106874 
Q 354.036681 182.106874 355.692918 182.20375 
Q 357.349155 182.299525 358.880829 182.488873 
L 358.880829 183.551205 
Q 357.335315 183.300209 355.835936 183.183517 
Q 354.336556 183.066826 352.680319 183.066826 
Q 349.709241 183.066826 348.006869 183.521482 
Q 346.309111 183.975037 346.309111 184.773162 
Q 346.309111 185.567985 348.006869 186.022641 
Q 349.709241 186.476196 352.680319 186.476196 
Q 354.336556 186.476196 355.835936 186.359505 
Q 357.335315 186.241712 358.880829 185.990716 
L 358.880829 187.054149 
z
" clip-path="url(#p2f9b03c1fb)" style="fill: #0000ff"/>
   </g>
   <g id="patch_57">
    <path d="M 340.569948 173.775193 
L 358.880829 173.775193 
L 358.880829 175.400103 
L 352.29317 175.400103 
L 352.29317 182.106874 
L 347.170382 182.106874 
L 347.170382 175.400103 
L 340.569948 175.400103 
L 340.569948 173.775193 
z
" clip-path="url(#p2f9b03c1fb)" style="fill: #ff0000"/>
   </g>
   <g id="patch_58">
    <path d="M 353.253911 168.702276 
L 346.211841 168.702276 
L 345.099935 173.775193 
L 340.569948 173.775193 
L 347.039219 145.927863 
L 352.411559 145.927863 
L 358.880829 173.775193 
L 354.354586 173.775193 
L 353.253911 168.702276 
z
M 347.334978 163.533869 
L 352.119543 163.533869 
L 349.731004 152.457005 
L 347.334978 163.533869 
z
" clip-path="url(#p2f9b03c1fb)" style="fill: #008000"/>
   </g>
   <g id="patch_59">
    <path d="M 378.15544 191.993205 
Q 376.623767 192.115536 374.967529 192.177412 
Q 373.311292 192.24 371.507423 192.24 
Q 366.128112 192.24 362.986336 191.776282 
Q 359.84456 191.312564 359.84456 190.51955 
Q 359.84456 189.723691 362.986336 189.260684 
Q 366.128112 188.796966 371.507423 188.796966 
Q 373.311292 188.796966 374.967529 188.859554 
Q 376.623767 188.92143 378.15544 189.043761 
L 378.15544 189.730092 
Q 376.609926 189.567933 375.110547 189.492543 
Q 373.611168 189.417153 371.954931 189.417153 
Q 368.983853 189.417153 367.281481 189.710889 
Q 365.583722 190.003913 365.583722 190.51955 
Q 365.583722 191.033053 367.281481 191.326789 
Q 368.983853 191.619813 371.954931 191.619813 
Q 373.611168 191.619813 375.110547 191.544423 
Q 376.609926 191.468322 378.15544 191.306163 
L 378.15544 191.993205 
z
" clip-path="url(#p2f9b03c1fb)" style="fill: #0000ff"/>
   </g>
   <g id="patch_60">
    <path d="M 378.15544 188.202254 
Q 376.308758 188.49961 374.322549 188.648967 
Q 372.336339 188.796966 370.21881 188.796966 
Q 365.433851 188.796966 362.639205 187.911687 
Q 359.84456 187.026407 359.84456 185.512471 
Q 359.84456 183.980883 362.68845 183.102392 
Q 365.536445 182.223902 370.489657 182.223902 
Q 372.397895 182.223902 374.146088 182.343387 
Q 375.898384 182.461515 377.449597 182.695055 
L 377.449597 184.005323 
Q 375.849139 183.705251 374.265096 183.557252 
Q 372.681053 183.407895 371.088803 183.407895 
Q 368.142319 183.407895 366.545964 183.953727 
Q 364.94961 184.498201 364.94961 185.512471 
Q 364.94961 186.517236 366.488512 187.065783 
Q 368.027414 187.612973 370.858994 187.612973 
Q 371.630496 187.612973 372.291198 187.581744 
Q 372.9519 187.549157 373.477179 187.481267 
L 373.477179 186.251109 
L 370.460931 186.251109 
L 370.460931 185.155372 
L 378.15544 185.155372 
L 378.15544 188.202254 
z
" clip-path="url(#p2f9b03c1fb)" style="fill: #ffa600"/>
   </g>
   <g id="patch_61">
    <path d="M 359.84456 175.400434 
L 378.15544 175.400434 
L 378.15544 176.731201 
L 371.567782 176.731201 
L 371.567782 182.223902 
L 366.444993 182.223902 
L 366.444993 176.731201 
L 359.84456 176.731201 
L 359.84456 175.400434 
z
" clip-path="url(#p2f9b03c1fb)" style="fill: #ff0000"/>
   </g>
   <g id="patch_62">
    <path d="M 372.528523 171.431883 
L 365.486452 171.431883 
L 364.374546 175.400434 
L 359.84456 175.400434 
L 366.31383 153.61542 
L 371.68617 153.61542 
L 378.15544 175.400434 
L 373.629197 175.400434 
L 372.528523 171.431883 
z
M 366.60959 167.388629 
L 371.394154 167.388629 
L 369.005616 158.72318 
L 366.60959 167.388629 
z
" clip-path="url(#p2f9b03c1fb)" style="fill: #008000"/>
   </g>
   <g id="patch_63">
    <path d="M 397.430052 192.215184 
Q 395.898378 192.227485 394.242141 192.233707 
Q 392.585903 192.24 390.782035 192.24 
Q 385.402723 192.24 382.260947 192.193372 
Q 379.119171 192.146744 379.119171 192.067005 
Q 379.119171 191.98698 382.260947 191.940423 
Q 385.402723 191.893796 390.782035 191.893796 
Q 392.585903 191.893796 394.242141 191.900089 
Q 395.898378 191.906311 397.430052 191.918611 
L 397.430052 191.987623 
Q 395.884538 191.971318 394.385159 191.963737 
Q 392.885779 191.956157 391.229542 191.956157 
Q 388.258464 191.956157 386.556092 191.985692 
Q 384.858333 192.015157 384.858333 192.067005 
Q 384.858333 192.118639 386.556092 192.148175 
Q 388.258464 192.177639 391.229542 192.177639 
Q 392.885779 192.177639 394.385159 192.170058 
Q 395.884538 192.162406 397.430052 192.146101 
L 397.430052 192.215184 
z
" clip-path="url(#p2f9b03c1fb)" style="fill: #0000ff"/>
   </g>
   <g id="patch_64">
    <path d="M 397.430052 191.860871 
Q 395.58337 191.877334 393.59716 191.885602 
Q 391.610951 191.893796 389.493422 191.893796 
Q 384.708463 191.893796 381.913817 191.844785 
Q 379.119171 191.795775 379.119171 191.711961 
Q 379.119171 191.627171 381.963062 191.578536 
Q 384.811056 191.529902 389.764268 191.529902 
Q 391.672507 191.529902 393.420699 191.536517 
Q 395.172996 191.543056 396.724209 191.555986 
L 396.724209 191.628524 
Q 395.123751 191.611911 393.539708 191.603718 
Q 391.955665 191.595449 390.363414 191.595449 
Q 387.41693 191.595449 385.820576 191.625667 
Q 384.224222 191.65581 384.224222 191.711961 
Q 384.224222 191.767587 385.763123 191.797955 
Q 387.302025 191.828248 390.133605 191.828248 
Q 390.905108 191.828248 391.56581 191.826519 
Q 392.226511 191.824715 392.75179 191.820957 
L 392.75179 191.752853 
L 389.735542 191.752853 
L 389.735542 191.692192 
L 397.430052 191.692192 
L 397.430052 191.860871 
z
" clip-path="url(#p2f9b03c1fb)" style="fill: #ffa600"/>
   </g>
   <g id="patch_65">
    <path d="M 379.119171 191.166008 
L 397.430052 191.166008 
L 397.430052 191.236978 
L 390.842393 191.236978 
L 390.842393 191.529902 
L 385.719605 191.529902 
L 385.719605 191.236978 
L 379.119171 191.236978 
L 379.119171 191.166008 
z
" clip-path="url(#p2f9b03c1fb)" style="fill: #ff0000"/>
   </g>
   <g id="patch_66">
    <path d="M 391.803134 191.077621 
L 384.761064 191.077621 
L 383.649158 191.166008 
L 379.119171 191.166008 
L 385.588441 190.680817 
L 390.960781 190.680817 
L 397.430052 191.166008 
L 392.903809 191.166008 
L 391.803134 191.077621 
z
M 385.884201 190.987571 
L 390.668766 190.987571 
L 388.280227 190.794576 
L 385.884201 190.987571 
z
" clip-path="url(#p2f9b03c1fb)" style="fill: #008000"/>
   </g>
   <g id="patch_67">
    <path d="M 416.704663 192.025211 
Q 415.17299 192.131677 413.516752 192.185529 
Q 411.860515 192.24 410.056646 192.24 
Q 404.677335 192.24 401.535559 191.83642 
Q 398.393782 191.43284 398.393782 190.742668 
Q 398.393782 190.050021 401.535559 189.647059 
Q 404.677335 189.243479 410.056646 189.243479 
Q 411.860515 189.243479 413.516752 189.29795 
Q 415.17299 189.351802 416.704663 189.458268 
L 416.704663 190.055591 
Q 415.159149 189.914462 413.65977 189.848849 
Q 412.160391 189.783237 410.504153 189.783237 
Q 407.533076 189.783237 405.830703 190.038879 
Q 404.132945 190.293902 404.132945 190.742668 
Q 404.132945 191.189577 405.830703 191.445219 
Q 407.533076 191.700242 410.504153 191.700242 
Q 412.160391 191.700242 413.65977 191.63463 
Q 415.159149 191.568398 416.704663 191.427269 
L 416.704663 192.025211 
z
" clip-path="url(#p2f9b03c1fb)" style="fill: #0000ff"/>
   </g>
   <g id="patch_68">
    <path d="M 416.704663 188.920447 
Q 414.857981 189.081963 412.871772 189.16309 
Q 410.885562 189.243479 408.768033 189.243479 
Q 403.983074 189.243479 401.188428 188.762618 
Q 398.393782 188.281756 398.393782 187.459424 
Q 398.393782 186.627504 401.237673 186.150331 
Q 404.085668 185.673157 409.03888 185.673157 
Q 410.947118 185.673157 412.695311 185.738058 
Q 414.447607 185.802222 415.99882 185.929075 
L 415.99882 186.64078 
Q 414.398362 186.477788 412.814319 186.397399 
Q 411.230276 186.316272 409.638026 186.316272 
Q 406.691541 186.316272 405.095187 186.612754 
Q 403.498833 186.908499 403.498833 187.459424 
Q 403.498833 188.005187 405.037735 188.303144 
Q 406.576637 188.600364 409.408216 188.600364 
Q 410.179719 188.600364 410.840421 188.583401 
Q 411.501123 188.565701 412.026401 188.528825 
L 412.026401 187.860634 
L 409.010154 187.860634 
L 409.010154 187.265457 
L 416.704663 187.265457 
L 416.704663 188.920447 
z
" clip-path="url(#p2f9b03c1fb)" style="fill: #ffa600"/>
   </g>
   <g id="patch_69">
    <path d="M 411.077746 182.885721 
L 404.035675 182.885721 
L 402.923769 185.673157 
L 398.393782 185.673157 
L 404.863053 170.371774 
L 410.235393 170.371774 
L 416.704663 185.673157 
L 412.17842 185.673157 
L 411.077746 182.885721 
z
M 405.158812 180.045816 
L 409.943377 180.045816 
L 407.554838 173.959368 
L 405.158812 180.045816 
z
" clip-path="url(#p2f9b03c1fb)" style="fill: #008000"/>
   </g>
   <g id="patch_70">
    <path d="M 398.393782 152.902696 
L 416.704663 152.902696 
L 416.704663 156.309653 
L 410.117004 156.309653 
L 410.117004 170.371774 
L 404.994216 170.371774 
L 404.994216 156.309653 
L 398.393782 156.309653 
L 398.393782 152.902696 
z
" clip-path="url(#p2f9b03c1fb)" style="fill: #ff0000"/>
   </g>
   <g id="patch_71">
    <path d="M 435.979275 191.938648 
Q 434.132592 192.089324 432.146383 192.165006 
Q 430.160174 192.24 428.042645 192.24 
Q 423.257686 192.24 420.46304 191.791412 
Q 417.668394 191.342823 417.668394 190.575682 
Q 417.668394 189.799597 420.512285 189.354449 
Q 423.360279 188.9093 428.313491 188.9093 
Q 430.22173 188.9093 431.969922 188.969846 
Q 433.722218 189.029704 435.273432 189.148043 
L 435.273432 189.811981 
Q 433.672974 189.659929 432.088931 189.584935 
Q 430.504888 189.509253 428.912637 189.509253 
Q 425.966153 189.509253 424.369799 189.785836 
Q 422.773444 190.061732 422.773444 190.575682 
Q 422.773444 191.084816 424.312346 191.362776 
Q 425.851248 191.640047 428.682828 191.640047 
Q 429.454331 191.640047 430.115032 191.624223 
Q 430.775734 191.607711 431.301013 191.57331 
L 431.301013 190.949964 
L 428.284765 190.949964 
L 428.284765 190.394733 
L 435.979275 190.394733 
L 435.979275 191.938648 
z
" clip-path="url(#p2f9b03c1fb)" style="fill: #ffa600"/>
   </g>
   <g id="patch_72">
    <path d="M 435.979275 188.635741 
Q 434.447601 188.771338 432.791364 188.839925 
Q 431.135126 188.9093 429.331258 188.9093 
Q 423.951946 188.9093 420.81017 188.395293 
Q 417.668394 187.881285 417.668394 187.002269 
Q 417.668394 186.1201 420.81017 185.606881 
Q 423.951946 185.092874 429.331258 185.092874 
Q 431.135126 185.092874 432.791364 185.162249 
Q 434.447601 185.230836 435.979275 185.366433 
L 435.979275 186.127195 
Q 434.433761 185.94745 432.934381 185.863885 
Q 431.435002 185.780319 429.778765 185.780319 
Q 426.807687 185.780319 425.105315 186.10591 
Q 423.407556 186.430712 423.407556 187.002269 
Q 423.407556 187.571462 425.105315 187.897052 
Q 426.807687 188.221855 429.778765 188.221855 
Q 431.435002 188.221855 432.934381 188.138289 
Q 434.433761 188.053935 435.979275 187.87419 
L 435.979275 188.635741 
z
" clip-path="url(#p2f9b03c1fb)" style="fill: #0000ff"/>
   </g>
   <g id="patch_73">
    <path d="M 430.352357 182.615312 
L 423.310287 182.615312 
L 422.198381 185.092874 
L 417.668394 185.092874 
L 424.137664 171.492516 
L 429.510004 171.492516 
L 435.979275 185.092874 
L 431.453032 185.092874 
L 430.352357 182.615312 
z
M 424.433424 180.091113 
L 429.217988 180.091113 
L 426.82945 174.681284 
L 424.433424 180.091113 
z
" clip-path="url(#p2f9b03c1fb)" style="fill: #008000"/>
   </g>
   <g id="patch_74">
    <path d="M 417.668394 149.426631 
L 435.979275 149.426631 
L 435.979275 153.730093 
L 429.391616 153.730093 
L 429.391616 171.492516 
L 424.268828 171.492516 
L 424.268828 153.730093 
L 417.668394 153.730093 
L 417.668394 149.426631 
z
" clip-path="url(#p2f9b03c1fb)" style="fill: #ff0000"/>
   </g>
   <g id="patch_75">
    <path d="M 455.253886 191.954448 
Q 453.407204 192.097224 451.420994 192.168938 
Q 449.434785 192.24 447.317256 192.24 
Q 442.532297 192.24 439.737651 191.814931 
Q 436.943005 191.389862 436.943005 190.662942 
Q 436.943005 189.927547 439.786896 189.505738 
Q 442.63489 189.083929 447.588103 189.083929 
Q 449.496341 189.083929 451.244534 189.1413 
Q 452.99683 189.198019 454.548043 189.310154 
L 454.548043 189.939282 
Q 452.947585 189.795202 451.363542 189.72414 
Q 449.779499 189.652426 448.187248 189.652426 
Q 445.240764 189.652426 443.64441 189.914508 
Q 442.048056 190.175939 442.048056 190.662942 
Q 442.048056 191.145382 443.586958 191.408769 
Q 445.12586 191.671503 447.957439 191.671503 
Q 448.728942 191.671503 449.389644 191.656508 
Q 450.050346 191.640862 450.575624 191.608264 
L 450.575624 191.017601 
L 447.559376 191.017601 
L 447.559376 190.491481 
L 455.253886 190.491481 
L 455.253886 191.954448 
z
" clip-path="url(#p2f9b03c1fb)" style="fill: #ffa600"/>
   </g>
   <g id="patch_76">
    <path d="M 449.626968 188.305551 
L 442.584898 188.305551 
L 441.472992 189.083929 
L 436.943005 189.083929 
L 443.412276 184.811094 
L 448.784615 184.811094 
L 455.253886 189.083929 
L 450.727643 189.083929 
L 449.626968 188.305551 
z
M 443.708035 187.512522 
L 448.4926 187.512522 
L 446.104061 185.812912 
L 443.708035 187.512522 
z
" clip-path="url(#p2f9b03c1fb)" style="fill: #008000"/>
   </g>
   <g id="patch_77">
    <path d="M 455.253886 184.295997 
Q 453.722212 184.551319 452.065975 184.680464 
Q 450.409738 184.811094 448.605869 184.811094 
Q 443.226558 184.811094 440.084781 183.843245 
Q 436.943005 182.875396 436.943005 181.220255 
Q 436.943005 179.559177 440.084781 178.592812 
Q 443.226558 177.624963 448.605869 177.624963 
Q 450.409738 177.624963 452.065975 177.755593 
Q 453.722212 177.884739 455.253886 178.140061 
L 455.253886 179.572537 
Q 453.708372 179.234086 452.208993 179.076737 
Q 450.709613 178.919387 449.053376 178.919387 
Q 446.082298 178.919387 444.379926 179.532457 
Q 442.682168 180.144043 442.682168 181.220255 
Q 442.682168 182.292015 444.379926 182.905085 
Q 446.082298 183.51667 449.053376 183.51667 
Q 450.709613 183.51667 452.208993 183.359321 
Q 453.708372 183.200486 455.253886 182.862036 
L 455.253886 184.295997 
z
" clip-path="url(#p2f9b03c1fb)" style="fill: #0000ff"/>
   </g>
   <g id="patch_78">
    <path d="M 436.943005 162.281602 
L 455.253886 162.281602 
L 455.253886 165.273985 
L 448.666227 165.273985 
L 448.666227 177.624963 
L 443.543439 177.624963 
L 443.543439 165.273985 
L 436.943005 165.273985 
L 436.943005 162.281602 
z
" clip-path="url(#p2f9b03c1fb)" style="fill: #ff0000"/>
   </g>
   <g id="patch_79">
    <path d="M 474.528497 192.134855 
Q 472.996824 192.186973 471.340586 192.213335 
Q 469.684349 192.24 467.88048 192.24 
Q 462.501169 192.24 459.359393 192.042437 
Q 456.217617 191.844874 456.217617 191.507016 
Q 456.217617 191.167947 459.359393 190.970686 
Q 462.501169 190.773123 467.88048 190.773123 
Q 469.684349 190.773123 471.340586 190.799788 
Q 472.996824 190.82615 474.528497 190.878268 
L 474.528497 191.170674 
Q 472.982983 191.101587 471.483604 191.069468 
Q 469.984225 191.037349 468.327987 191.037349 
Q 465.35691 191.037349 463.654538 191.162492 
Q 461.956779 191.287333 461.956779 191.507016 
Q 461.956779 191.72579 463.654538 191.850934 
Q 465.35691 191.975774 468.327987 191.975774 
Q 469.984225 191.975774 471.483604 191.943655 
Q 472.982983 191.911233 474.528497 191.842146 
L 474.528497 192.134855 
z
" clip-path="url(#p2f9b03c1fb)" style="fill: #0000ff"/>
   </g>
   <g id="patch_80">
    <path d="M 474.528497 190.435702 
Q 472.681815 190.604413 470.695606 190.689153 
Q 468.709396 190.773123 466.591867 190.773123 
Q 461.806908 190.773123 459.012262 190.270844 
Q 456.217617 189.768564 456.217617 188.909605 
Q 456.217617 188.040631 459.061507 187.542203 
Q 461.909502 187.043775 466.862714 187.043775 
Q 468.770952 187.043775 470.519145 187.111568 
Q 472.271441 187.17859 473.822654 187.311093 
L 473.822654 188.054497 
Q 472.222196 187.884246 470.638153 187.800276 
Q 469.05411 187.715536 467.46186 187.715536 
Q 464.515376 187.715536 462.919021 188.025223 
Q 461.322667 188.33414 461.322667 188.909605 
Q 461.322667 189.479677 462.861569 189.790905 
Q 464.400471 190.101363 467.23205 190.101363 
Q 468.003553 190.101363 468.664255 190.083644 
Q 469.324957 190.065156 469.850236 190.026637 
L 469.850236 189.328685 
L 466.833988 189.328685 
L 466.833988 188.706998 
L 474.528497 188.706998 
L 474.528497 190.435702 
z
" clip-path="url(#p2f9b03c1fb)" style="fill: #ffa600"/>
   </g>
   <g id="patch_81">
    <path d="M 468.90158 186.273821 
L 461.859509 186.273821 
L 460.747603 187.043775 
L 456.217617 187.043775 
L 462.686887 182.817181 
L 468.059227 182.817181 
L 474.528497 187.043775 
L 470.002254 187.043775 
L 468.90158 186.273821 
z
M 462.982647 185.489374 
L 467.767211 185.489374 
L 465.378673 183.808157 
L 462.982647 185.489374 
z
" clip-path="url(#p2f9b03c1fb)" style="fill: #008000"/>
   </g>
   <g id="patch_82">
    <path d="M 456.217617 176.899949 
L 474.528497 176.899949 
L 474.528497 178.053974 
L 467.940839 178.053974 
L 467.940839 182.817181 
L 462.81805 182.817181 
L 462.81805 178.053974 
L 456.217617 178.053974 
L 456.217617 176.899949 
z
" clip-path="url(#p2f9b03c1fb)" style="fill: #ff0000"/>
   </g>
   <g id="patch_83">
    <path d="M 493.803109 192.139321 
Q 492.271435 192.189225 490.615198 192.214468 
Q 488.95896 192.24 487.155092 192.24 
Q 481.77578 192.24 478.634004 192.050828 
Q 475.492228 191.861656 475.492228 191.538148 
Q 475.492228 191.21348 478.634004 191.024598 
Q 481.77578 190.835426 487.155092 190.835426 
Q 488.95896 190.835426 490.615198 190.860958 
Q 492.271435 190.886201 493.803109 190.936105 
L 493.803109 191.216091 
Q 492.257595 191.149939 490.758216 191.119184 
Q 489.258836 191.088429 487.602599 191.088429 
Q 484.631521 191.088429 482.929149 191.208258 
Q 481.23139 191.327796 481.23139 191.538148 
Q 481.23139 191.74763 482.929149 191.867459 
Q 484.631521 191.986997 487.602599 191.986997 
Q 489.258836 191.986997 490.758216 191.956242 
Q 492.257595 191.925197 493.803109 191.859044 
L 493.803109 192.139321 
z
" clip-path="url(#p2f9b03c1fb)" style="fill: #0000ff"/>
   </g>
   <g id="patch_84">
    <path d="M 493.803109 190.633683 
Q 491.956427 190.734555 489.970217 190.785221 
Q 487.984008 190.835426 485.866479 190.835426 
Q 481.08152 190.835426 478.286874 190.535115 
Q 475.492228 190.234804 475.492228 189.721236 
Q 475.492228 189.20168 478.336119 188.903672 
Q 481.184113 188.605665 486.137325 188.605665 
Q 488.045564 188.605665 489.793756 188.646197 
Q 491.546053 188.686269 493.097266 188.765493 
L 493.097266 189.209971 
Q 491.496808 189.108178 489.912765 189.057973 
Q 488.328722 189.007307 486.736471 189.007307 
Q 483.789987 189.007307 482.193633 189.192468 
Q 480.597279 189.377168 480.597279 189.721236 
Q 480.597279 190.06208 482.13618 190.248162 
Q 483.675082 190.433783 486.506662 190.433783 
Q 487.278165 190.433783 487.938867 190.42319 
Q 488.599568 190.412135 489.124847 190.389105 
L 489.124847 189.971802 
L 486.108599 189.971802 
L 486.108599 189.600099 
L 493.803109 189.600099 
L 493.803109 190.633683 
z
" clip-path="url(#p2f9b03c1fb)" style="fill: #ffa600"/>
   </g>
   <g id="patch_85">
    <path d="M 475.492228 185.375144 
L 493.803109 185.375144 
L 493.803109 186.005186 
L 487.21545 186.005186 
L 487.21545 188.605665 
L 482.092662 188.605665 
L 482.092662 186.005186 
L 475.492228 186.005186 
L 475.492228 185.375144 
z
" clip-path="url(#p2f9b03c1fb)" style="fill: #ff0000"/>
   </g>
   <g id="patch_86">
    <path d="M 488.176191 184.652312 
L 481.134121 184.652312 
L 480.022215 185.375144 
L 475.492228 185.375144 
L 481.961498 181.407222 
L 487.333838 181.407222 
L 493.803109 185.375144 
L 489.276866 185.375144 
L 488.176191 184.652312 
z
M 482.257258 183.915874 
L 487.041823 183.915874 
L 484.653284 182.33755 
L 482.257258 183.915874 
z
" clip-path="url(#p2f9b03c1fb)" style="fill: #008000"/>
   </g>
   <g id="patch_87">
    <path d="M 513.07772 192.023321 
Q 511.546047 192.130724 509.889809 192.18505 
Q 508.233572 192.24 506.429703 192.24 
Q 501.050392 192.24 497.908616 191.832869 
Q 494.766839 191.425737 494.766839 190.729493 
Q 494.766839 190.03075 497.908616 189.624244 
Q 501.050392 189.217112 506.429703 189.217112 
Q 508.233572 189.217112 509.889809 189.272062 
Q 511.546047 189.326388 513.07772 189.433791 
L 513.07772 190.03637 
Q 511.532206 189.893999 510.032827 189.827809 
Q 508.533448 189.761619 506.87721 189.761619 
Q 503.906133 189.761619 502.20376 190.019511 
Q 500.506002 190.276778 500.506002 190.729493 
Q 500.506002 191.180335 502.20376 191.438226 
Q 503.906133 191.695493 506.87721 191.695493 
Q 508.533448 191.695493 510.032827 191.629303 
Q 511.532206 191.562488 513.07772 191.420117 
L 513.07772 192.023321 
z
" clip-path="url(#p2f9b03c1fb)" style="fill: #0000ff"/>
   </g>
   <g id="patch_88">
    <path d="M 507.450803 188.420081 
L 500.408732 188.420081 
L 499.296826 189.217112 
L 494.766839 189.217112 
L 501.23611 184.84188 
L 506.60845 184.84188 
L 513.07772 189.217112 
L 508.551477 189.217112 
L 507.450803 188.420081 
z
M 501.531869 187.608047 
L 506.316434 187.608047 
L 503.927895 185.867706 
L 501.531869 187.608047 
z
" clip-path="url(#p2f9b03c1fb)" style="fill: #008000"/>
   </g>
   <g id="patch_89">
    <path d="M 513.07772 184.399238 
Q 511.231038 184.620559 509.244829 184.731725 
Q 507.258619 184.84188 505.14109 184.84188 
Q 500.356131 184.84188 497.561485 184.18297 
Q 494.766839 183.52406 494.766839 182.397243 
Q 494.766839 181.257288 497.61073 180.603431 
Q 500.458725 179.949574 505.411937 179.949574 
Q 507.320175 179.949574 509.068368 180.038507 
Q 510.820664 180.126429 512.371877 180.300252 
L 512.371877 181.275479 
Q 510.771419 181.052137 509.187376 180.941982 
Q 507.603333 180.830816 506.011083 180.830816 
Q 503.064598 180.830816 501.468244 181.237076 
Q 499.87189 181.642326 499.87189 182.397243 
Q 499.87189 183.145086 501.410792 183.553367 
Q 502.949694 183.960638 505.781273 183.960638 
Q 506.552776 183.960638 507.213478 183.937394 
Q 507.87418 183.91314 508.399458 183.86261 
L 508.399458 182.947008 
L 505.383211 182.947008 
L 505.383211 182.131456 
L 513.07772 182.131456 
L 513.07772 184.399238 
z
" clip-path="url(#p2f9b03c1fb)" style="fill: #ffa600"/>
   </g>
   <g id="patch_90">
    <path d="M 494.766839 167.698924 
L 513.07772 167.698924 
L 513.07772 170.088142 
L 506.490061 170.088142 
L 506.490061 179.949574 
L 501.367273 179.949574 
L 501.367273 170.088142 
L 494.766839 170.088142 
L 494.766839 167.698924 
z
" clip-path="url(#p2f9b03c1fb)" style="fill: #ff0000"/>
   </g>
   <g id="patch_91">
    <path d="M 532.352332 191.792672 
Q 530.505649 192.016336 528.51944 192.128679 
Q 526.533231 192.24 524.415702 192.24 
Q 519.630743 192.24 516.836097 191.574114 
Q 514.041451 190.908229 514.041451 189.769482 
Q 514.041451 188.617459 516.885342 187.95668 
Q 519.733336 187.295901 524.686548 187.295901 
Q 526.594787 187.295901 528.342979 187.385775 
Q 530.095275 187.474628 531.646489 187.650291 
L 531.646489 188.635842 
Q 530.046031 188.410136 528.461988 188.298814 
Q 526.877945 188.186472 525.285694 188.186472 
Q 522.33921 188.186472 520.742856 188.597033 
Q 519.146501 189.006573 519.146501 189.769482 
Q 519.146501 190.525242 520.685403 190.937846 
Q 522.224305 191.349429 525.055885 191.349429 
Q 525.827388 191.349429 526.488089 191.325939 
Q 527.148791 191.301428 527.67407 191.250363 
L 527.67407 190.325068 
L 524.657822 190.325068 
L 524.657822 189.500881 
L 532.352332 189.500881 
L 532.352332 191.792672 
z
" clip-path="url(#p2f9b03c1fb)" style="fill: #ffa600"/>
   </g>
   <g id="patch_92">
    <path d="M 526.725414 186.078207 
L 519.683344 186.078207 
L 518.571438 187.295901 
L 514.041451 187.295901 
L 520.510721 180.611478 
L 525.883061 180.611478 
L 532.352332 187.295901 
L 527.826089 187.295901 
L 526.725414 186.078207 
z
M 520.806481 184.837592 
L 525.591045 184.837592 
L 523.202507 182.178722 
L 520.806481 184.837592 
z
" clip-path="url(#p2f9b03c1fb)" style="fill: #008000"/>
   </g>
   <g id="patch_93">
    <path d="M 532.352332 179.83749 
Q 530.820658 180.221139 529.164421 180.415193 
Q 527.508183 180.611478 525.704315 180.611478 
Q 520.325003 180.611478 517.183227 179.157184 
Q 514.041451 177.70289 514.041451 175.215868 
Q 514.041451 172.719924 517.183227 171.26786 
Q 520.325003 169.813565 525.704315 169.813565 
Q 527.508183 169.813565 529.164421 170.00985 
Q 530.820658 170.203905 532.352332 170.587553 
L 532.352332 172.739998 
Q 530.806818 172.231441 529.307438 171.995007 
Q 527.808059 171.758573 526.151822 171.758573 
Q 523.180744 171.758573 521.478372 172.679774 
Q 519.780613 173.598746 519.780613 175.215868 
Q 519.780613 176.826298 521.478372 177.7475 
Q 523.180744 178.666471 526.151822 178.666471 
Q 527.808059 178.666471 529.307438 178.430037 
Q 530.806818 178.191372 532.352332 177.682815 
L 532.352332 179.83749 
z
" clip-path="url(#p2f9b03c1fb)" style="fill: #0000ff"/>
   </g>
   <g id="patch_94">
    <path d="M 514.041451 94.623702 
L 532.352332 94.623702 
L 532.352332 109.287821 
L 525.764673 109.287821 
L 525.764673 169.813565 
L 520.641885 169.813565 
L 520.641885 109.287821 
L 514.041451 109.287821 
L 514.041451 94.623702 
z
" clip-path="url(#p2f9b03c1fb)" style="fill: #ff0000"/>
   </g>
   <g id="patch_95">
    <path d="M 551.626943 191.736472 
Q 549.780261 191.988236 547.794051 192.114693 
Q 545.807842 192.24 543.690313 192.24 
Q 538.905354 192.24 536.110708 191.490456 
Q 533.316062 190.740911 533.316062 189.459099 
Q 533.316062 188.162341 536.159953 187.418545 
Q 539.007947 186.674749 543.96116 186.674749 
Q 545.869398 186.674749 547.617591 186.775914 
Q 549.369887 186.87593 550.9211 187.073663 
L 550.9211 188.183034 
Q 549.320642 187.928971 547.736599 187.803664 
Q 546.152556 187.677207 544.560305 187.677207 
Q 541.613821 187.677207 540.017467 188.139349 
Q 538.421113 188.600342 538.421113 189.459099 
Q 538.421113 190.309809 539.960015 190.77425 
Q 541.498917 191.237542 544.330496 191.237542 
Q 545.101999 191.237542 545.762701 191.211101 
Q 546.423403 191.18351 546.948681 191.12603 
L 546.948681 190.084485 
L 543.932433 190.084485 
L 543.932433 189.156752 
L 551.626943 189.156752 
L 551.626943 191.736472 
z
" clip-path="url(#p2f9b03c1fb)" style="fill: #ffa600"/>
   </g>
   <g id="patch_96">
    <path d="M 551.626943 186.256296 
Q 550.095269 186.463714 548.439032 186.568628 
Q 546.782795 186.674749 544.978926 186.674749 
Q 539.599615 186.674749 536.457838 185.888492 
Q 533.316062 185.102235 533.316062 183.75764 
Q 533.316062 182.408221 536.457838 181.62317 
Q 539.599615 180.836914 544.978926 180.836914 
Q 546.782795 180.836914 548.439032 180.943034 
Q 550.095269 181.047949 551.626943 181.255366 
L 551.626943 182.419074 
Q 550.081429 182.144126 548.58205 182.016299 
Q 547.08267 181.888472 545.426433 181.888472 
Q 542.455355 181.888472 540.752983 182.386515 
Q 539.055225 182.883352 539.055225 183.75764 
Q 539.055225 184.628311 540.752983 185.126354 
Q 542.455355 185.623191 545.426433 185.623191 
Q 547.08267 185.623191 548.58205 185.495364 
Q 550.081429 185.366331 551.626943 185.091382 
L 551.626943 186.256296 
z
" clip-path="url(#p2f9b03c1fb)" style="fill: #0000ff"/>
   </g>
   <g id="patch_97">
    <path d="M 546.000025 179.260327 
L 538.957955 179.260327 
L 537.846049 180.836914 
L 533.316062 180.836914 
L 539.785333 172.18238 
L 545.157672 172.18238 
L 551.626943 180.836914 
L 547.1007 180.836914 
L 546.000025 179.260327 
z
M 540.081092 177.654063 
L 544.865657 177.654063 
L 542.477118 174.21154 
L 540.081092 177.654063 
z
" clip-path="url(#p2f9b03c1fb)" style="fill: #008000"/>
   </g>
   <g id="patch_98">
    <path d="M 533.316062 136.178611 
L 551.626943 136.178611 
L 551.626943 143.200349 
L 545.039284 143.200349 
L 545.039284 172.18238 
L 539.916496 172.18238 
L 539.916496 143.200349 
L 533.316062 143.200349 
L 533.316062 136.178611 
z
" clip-path="url(#p2f9b03c1fb)" style="fill: #ff0000"/>
   </g>
   <g id="patch_99">
    <path d="M 570.901554 191.786949 
Q 569.054872 192.013475 567.068663 192.127254 
Q 565.082453 192.24 562.964924 192.24 
Q 558.179965 192.24 555.385319 191.565596 
Q 552.590674 190.891191 552.590674 189.737877 
Q 552.590674 188.571117 555.434564 187.901884 
Q 558.282559 187.232652 563.235771 187.232652 
Q 565.144009 187.232652 566.892202 187.323676 
Q 568.644498 187.413665 570.195711 187.591575 
L 570.195711 188.589735 
Q 568.595253 188.361141 567.01121 188.248396 
Q 565.427167 188.134616 563.834917 188.134616 
Q 560.888433 188.134616 559.292078 188.550429 
Q 557.695724 188.965209 557.695724 189.737877 
Q 557.695724 190.503306 559.234626 190.921188 
Q 560.773528 191.338036 563.605107 191.338036 
Q 564.37661 191.338036 565.037312 191.314246 
Q 565.698014 191.289421 566.223293 191.237703 
L 566.223293 190.300571 
L 563.207045 190.300571 
L 563.207045 189.46584 
L 570.901554 189.46584 
L 570.901554 191.786949 
z
" clip-path="url(#p2f9b03c1fb)" style="fill: #ffa600"/>
   </g>
   <g id="patch_100">
    <path d="M 570.901554 186.726968 
Q 569.369881 186.977624 567.713643 187.104409 
Q 566.057406 187.232652 564.253537 187.232652 
Q 558.874226 187.232652 555.73245 186.282491 
Q 552.590674 185.33233 552.590674 183.707439 
Q 552.590674 182.076718 555.73245 181.128015 
Q 558.874226 180.177854 564.253537 180.177854 
Q 566.057406 180.177854 567.713643 180.306097 
Q 569.369881 180.432882 570.901554 180.683538 
L 570.901554 182.089834 
Q 569.35604 181.757569 567.856661 181.603095 
Q 566.357282 181.448621 564.701044 181.448621 
Q 561.729967 181.448621 560.027595 182.050487 
Q 558.329836 182.650895 558.329836 183.707439 
Q 558.329836 184.759611 560.027595 185.361476 
Q 561.729967 185.961885 564.701044 185.961885 
Q 566.357282 185.961885 567.856661 185.807411 
Q 569.35604 185.651479 570.901554 185.319215 
L 570.901554 186.726968 
z
" clip-path="url(#p2f9b03c1fb)" style="fill: #0000ff"/>
   </g>
   <g id="patch_101">
    <path d="M 565.274637 178.762957 
L 558.232566 178.762957 
L 557.12066 180.177854 
L 552.590674 180.177854 
L 559.059944 172.4109 
L 564.432284 172.4109 
L 570.901554 180.177854 
L 566.375311 180.177854 
L 565.274637 178.762957 
z
M 559.355704 177.321426 
L 564.140268 177.321426 
L 561.75173 174.231956 
L 559.355704 177.321426 
z
" clip-path="url(#p2f9b03c1fb)" style="fill: #008000"/>
   </g>
   <g id="patch_102">
    <path d="M 552.590674 137.314952 
L 570.901554 137.314952 
L 570.901554 144.15964 
L 564.313896 144.15964 
L 564.313896 172.4109 
L 559.191107 172.4109 
L 559.191107 144.15964 
L 552.590674 144.15964 
L 552.590674 137.314952 
z
" clip-path="url(#p2f9b03c1fb)" style="fill: #ff0000"/>
   </g>
   <g id="patch_103">
    <path d="M 590.176166 192.074739 
Q 588.644492 192.156655 586.988255 192.198089 
Q 585.332017 192.24 583.528149 192.24 
Q 578.148837 192.24 575.007061 191.92948 
Q 571.865285 191.618961 571.865285 191.087934 
Q 571.865285 190.555002 575.007061 190.244959 
Q 578.148837 189.934439 583.528149 189.934439 
Q 585.332017 189.934439 586.988255 189.97635 
Q 588.644492 190.017784 590.176166 190.0997 
L 590.176166 190.559289 
Q 588.630652 190.450702 587.131273 190.400219 
Q 585.631893 190.349735 583.975656 190.349735 
Q 581.004578 190.349735 579.302206 190.54643 
Q 577.604447 190.742648 577.604447 191.087934 
Q 577.604447 191.431792 579.302206 191.628486 
Q 581.004578 191.824704 583.975656 191.824704 
Q 585.631893 191.824704 587.131273 191.774221 
Q 588.630652 191.723261 590.176166 191.614674 
L 590.176166 192.074739 
z
" clip-path="url(#p2f9b03c1fb)" style="fill: #0000ff"/>
   </g>
   <g id="patch_104">
    <path d="M 590.176166 189.578237 
Q 588.329484 189.756338 586.343274 189.845795 
Q 584.357065 189.934439 582.239536 189.934439 
Q 577.454577 189.934439 574.659931 189.404202 
Q 571.865285 188.873964 571.865285 187.967193 
Q 571.865285 187.049849 574.709176 186.523678 
Q 577.55717 185.997507 582.510382 185.997507 
Q 584.418621 185.997507 586.166813 186.069072 
Q 587.91911 186.139825 589.470323 186.279704 
L 589.470323 187.064488 
Q 587.869865 186.88476 586.285822 186.796116 
Q 584.701779 186.706659 583.109528 186.706659 
Q 580.163044 186.706659 578.56669 187.033584 
Q 576.970336 187.359697 576.970336 187.967193 
Q 576.970336 188.568996 578.509237 188.897548 
Q 580.048139 189.225287 582.879719 189.225287 
Q 583.651222 189.225287 584.311924 189.206582 
Q 584.972625 189.187064 585.497904 189.146402 
L 585.497904 188.4096 
L 582.481656 188.4096 
L 582.481656 187.753309 
L 590.176166 187.753309 
L 590.176166 189.578237 
z
" clip-path="url(#p2f9b03c1fb)" style="fill: #ffa600"/>
   </g>
   <g id="patch_105">
    <path d="M 584.549248 185.12263 
L 577.507178 185.12263 
L 576.395272 185.997507 
L 571.865285 185.997507 
L 578.334555 181.194948 
L 583.706895 181.194948 
L 590.176166 185.997507 
L 585.649923 185.997507 
L 584.549248 185.12263 
z
M 578.630315 184.231285 
L 583.41488 184.231285 
L 581.026341 182.320966 
L 578.630315 184.231285 
z
" clip-path="url(#p2f9b03c1fb)" style="fill: #008000"/>
   </g>
   <g id="patch_106">
    <path d="M 571.865285 171.698035 
L 590.176166 171.698035 
L 590.176166 173.550198 
L 583.588507 173.550198 
L 583.588507 181.194948 
L 578.465719 181.194948 
L 578.465719 173.550198 
L 571.865285 173.550198 
L 571.865285 171.698035 
z
" clip-path="url(#p2f9b03c1fb)" style="fill: #ff0000"/>
   </g>
   <g id="patch_107">
    <path d="M 609.450777 192.169032 
Q 607.919104 192.204209 606.262866 192.222002 
Q 604.606629 192.24 602.80276 192.24 
Q 597.423449 192.24 594.281673 192.106654 
Q 591.139896 191.973308 591.139896 191.745271 
Q 591.139896 191.516415 594.281673 191.383274 
Q 597.423449 191.249928 602.80276 191.249928 
Q 604.606629 191.249928 606.262866 191.267926 
Q 607.919104 191.285719 609.450777 191.320896 
L 609.450777 191.518256 
Q 607.905263 191.471626 606.405884 191.449947 
Q 604.906505 191.428268 603.250267 191.428268 
Q 600.27919 191.428268 598.576817 191.512734 
Q 596.879059 191.596995 596.879059 191.745271 
Q 596.879059 191.892933 598.576817 191.977399 
Q 600.27919 192.06166 603.250267 192.06166 
Q 604.906505 192.06166 606.405884 192.039981 
Q 607.905263 192.018098 609.450777 191.971468 
L 609.450777 192.169032 
z
" clip-path="url(#p2f9b03c1fb)" style="fill: #0000ff"/>
   </g>
   <g id="patch_108">
    <path d="M 591.139896 189.771317 
L 609.450777 189.771317 
L 609.450777 190.059687 
L 602.863118 190.059687 
L 602.863118 191.249928 
L 597.74033 191.249928 
L 597.74033 190.059687 
L 591.139896 190.059687 
L 591.139896 189.771317 
z
" clip-path="url(#p2f9b03c1fb)" style="fill: #ff0000"/>
   </g>
   <g id="patch_109">
    <path d="M 603.82386 189.460302 
L 596.781789 189.460302 
L 595.669883 189.771317 
L 591.139896 189.771317 
L 597.609167 188.064027 
L 602.981507 188.064027 
L 609.450777 189.771317 
L 604.924534 189.771317 
L 603.82386 189.460302 
z
M 597.904926 189.143432 
L 602.689491 189.143432 
L 600.300952 188.464322 
L 597.904926 189.143432 
z
" clip-path="url(#p2f9b03c1fb)" style="fill: #008000"/>
   </g>
   <g id="patch_110">
    <path d="M 609.450777 187.861593 
Q 607.604095 187.96281 605.617886 188.01365 
Q 603.631676 188.064027 601.514147 188.064027 
Q 596.729188 188.064027 593.934542 187.762687 
Q 591.139896 187.461347 591.139896 186.946017 
Q 591.139896 186.42468 593.983787 186.12565 
Q 596.831782 185.826621 601.784994 185.826621 
Q 603.693232 185.826621 605.441425 185.867293 
Q 607.193721 185.907502 608.744934 185.986997 
L 608.744934 186.432999 
Q 607.144476 186.330858 605.560433 186.28048 
Q 603.97639 186.229641 602.38414 186.229641 
Q 599.437655 186.229641 597.841301 186.415436 
Q 596.244947 186.60077 596.244947 186.946017 
Q 596.244947 187.28803 597.783849 187.47475 
Q 599.322751 187.661008 602.15433 187.661008 
Q 602.925833 187.661008 603.586535 187.650378 
Q 604.247237 187.639285 604.772515 187.616176 
L 604.772515 187.197443 
L 601.756268 187.197443 
L 601.756268 186.824464 
L 609.450777 186.824464 
L 609.450777 187.861593 
z
" clip-path="url(#p2f9b03c1fb)" style="fill: #ffa600"/>
   </g>
   <g id="patch_111">
    <path d="M 628.725389 191.867464 
Q 626.878706 192.053732 624.892497 192.147291 
Q 622.906288 192.24 620.788758 192.24 
Q 616.003799 192.24 613.209154 191.685448 
Q 610.414508 191.130897 610.414508 190.182545 
Q 610.414508 189.223137 613.258398 188.672838 
Q 616.106393 188.122539 621.059605 188.122539 
Q 622.967844 188.122539 624.716036 188.197386 
Q 626.468332 188.271383 628.019546 188.417676 
L 628.019546 189.238447 
Q 626.419088 189.050477 624.835045 188.957769 
Q 623.251002 188.864209 621.658751 188.864209 
Q 618.712267 188.864209 617.115913 189.206126 
Q 615.519558 189.547192 615.519558 190.182545 
Q 615.519558 190.811944 617.05846 191.155562 
Q 618.597362 191.49833 621.428942 191.49833 
Q 622.200445 191.49833 622.861146 191.478767 
Q 623.521848 191.458354 624.047127 191.415827 
L 624.047127 190.645239 
L 621.030879 190.645239 
L 621.030879 189.958853 
L 628.725389 189.958853 
L 628.725389 191.867464 
z
" clip-path="url(#p2f9b03c1fb)" style="fill: #ffa600"/>
   </g>
   <g id="patch_112">
    <path d="M 628.725389 187.801922 
Q 627.193715 187.960845 625.537478 188.04123 
Q 623.88124 188.122539 622.077372 188.122539 
Q 616.69806 188.122539 613.556284 187.520112 
Q 610.414508 186.917686 610.414508 185.887462 
Q 610.414508 184.853543 613.556284 184.25204 
Q 616.69806 183.649614 622.077372 183.649614 
Q 623.88124 183.649614 625.537478 183.730923 
Q 627.193715 183.811308 628.725389 183.97023 
L 628.725389 184.861859 
Q 627.179875 184.651194 625.680495 184.553254 
Q 624.181116 184.455313 622.524879 184.455313 
Q 619.553801 184.455313 617.851429 184.836912 
Q 616.15367 185.217586 616.15367 185.887462 
Q 616.15367 186.554567 617.851429 186.936165 
Q 619.553801 187.31684 622.524879 187.31684 
Q 624.181116 187.31684 625.680495 187.218899 
Q 627.179875 187.120035 628.725389 186.90937 
L 628.725389 187.801922 
z
" clip-path="url(#p2f9b03c1fb)" style="fill: #0000ff"/>
   </g>
   <g id="patch_113">
    <path d="M 623.098471 182.241203 
L 616.056401 182.241203 
L 614.944495 183.649614 
L 610.414508 183.649614 
L 616.883778 175.918266 
L 622.256118 175.918266 
L 628.725389 183.649614 
L 624.199146 183.649614 
L 623.098471 182.241203 
z
M 617.179538 180.806281 
L 621.964102 180.806281 
L 619.575564 177.730974 
L 617.179538 180.806281 
z
" clip-path="url(#p2f9b03c1fb)" style="fill: #008000"/>
   </g>
   <g id="patch_114">
    <path d="M 610.414508 155.686425 
L 628.725389 155.686425 
L 628.725389 159.632198 
L 622.13773 159.632198 
L 622.13773 175.918266 
L 617.014942 175.918266 
L 617.014942 159.632198 
L 610.414508 159.632198 
L 610.414508 155.686425 
z
" clip-path="url(#p2f9b03c1fb)" style="fill: #ff0000"/>
   </g>
   <g id="patch_115">
    <path d="M 648 192.10415 
Q 646.468326 192.171488 644.812089 192.205548 
Q 643.155852 192.24 641.351983 192.24 
Q 635.972672 192.24 632.830895 191.984742 
Q 629.689119 191.729484 629.689119 191.292962 
Q 629.689119 190.854874 632.830895 190.600008 
Q 635.972672 190.34475 641.351983 190.34475 
Q 643.155852 190.34475 644.812089 190.379202 
Q 646.468326 190.413263 648 190.480601 
L 648 190.858398 
Q 646.454486 190.769136 644.955107 190.727637 
Q 643.455727 190.686138 641.79949 190.686138 
Q 638.828412 190.686138 637.12604 190.847827 
Q 635.428282 191.009125 635.428282 191.292962 
Q 635.428282 191.575625 637.12604 191.737314 
Q 638.828412 191.898612 641.79949 191.898612 
Q 643.455727 191.898612 644.955107 191.857113 
Q 646.454486 191.815223 648 191.725961 
L 648 192.10415 
z
" clip-path="url(#p2f9b03c1fb)" style="fill: #0000ff"/>
   </g>
   <g id="patch_116">
    <path d="M 648 190.120847 
Q 646.153318 190.232799 644.167108 190.28903 
Q 642.180899 190.34475 640.06337 190.34475 
Q 635.278411 190.34475 632.483765 190.011452 
Q 629.689119 189.678153 629.689119 189.108172 
Q 629.689119 188.531546 632.53301 188.200803 
Q 635.381004 187.870061 640.334217 187.870061 
Q 642.242455 187.870061 643.990648 187.915046 
Q 645.742944 187.95952 647.294157 188.047445 
L 647.294157 188.540747 
Q 645.693699 188.427773 644.109656 188.372053 
Q 642.525613 188.315822 640.933362 188.315822 
Q 637.986878 188.315822 636.390524 188.521322 
Q 634.79417 188.726311 634.79417 189.108172 
Q 634.79417 189.486456 636.333072 189.692978 
Q 637.871974 189.898989 640.703553 189.898989 
Q 641.475056 189.898989 642.135758 189.887232 
Q 642.79646 189.874963 643.321738 189.849403 
L 643.321738 189.386262 
L 640.30549 189.386262 
L 640.30549 188.973728 
L 648 188.973728 
L 648 190.120847 
z
" clip-path="url(#p2f9b03c1fb)" style="fill: #ffa600"/>
   </g>
   <g id="patch_117">
    <path d="M 629.689119 183.005184 
L 648 183.005184 
L 648 183.953971 
L 641.412341 183.953971 
L 641.412341 187.870061 
L 636.289553 187.870061 
L 636.289553 183.953971 
L 629.689119 183.953971 
L 629.689119 183.005184 
z
" clip-path="url(#p2f9b03c1fb)" style="fill: #ff0000"/>
   </g>
   <g id="patch_118">
    <path d="M 642.373082 181.973816 
L 635.331012 181.973816 
L 634.219106 183.005184 
L 629.689119 183.005184 
L 636.15839 177.343578 
L 641.530729 177.343578 
L 648 183.005184 
L 643.473757 183.005184 
L 642.373082 181.973816 
z
M 636.454149 180.923033 
L 641.238714 180.923033 
L 638.850175 178.67101 
L 636.454149 180.923033 
z
" clip-path="url(#p2f9b03c1fb)" style="fill: #008000"/>
   </g>
   <g id="matplotlib.axis_1">
    <g id="xtick_1">
     <g id="line2d_2">
      <defs>
       <path id="mf5fbf67ad6" d="M 0 0 
L 0 3.5 
" style="stroke: #000000; stroke-width: 0.8"/>
      </defs>
      <g>
       <use xlink:href="#mf5fbf67ad6" x="99.15544" y="192.24" style="stroke: #000000; stroke-width: 0.8"/>
      </g>
     </g>
     <g id="text_1">
      <!-- 0 -->
      <g transform="translate(95.97419 206.838437) scale(0.1 -0.1)">
       <defs>
        <path id="DejaVuSans-30" d="M 2034 4250 
Q 1547 4250 1301 3770 
Q 1056 3291 1056 2328 
Q 1056 1369 1301 889 
Q 1547 409 2034 409 
Q 2525 409 2770 889 
Q 3016 1369 3016 2328 
Q 3016 3291 2770 3770 
Q 2525 4250 2034 4250 
z
M 2034 4750 
Q 2819 4750 3233 4129 
Q 3647 3509 3647 2328 
Q 3647 1150 3233 529 
Q 2819 -91 2034 -91 
Q 1250 -91 836 529 
Q 422 1150 422 2328 
Q 422 3509 836 4129 
Q 1250 4750 2034 4750 
z
" transform="scale(0.015625)"/>
       </defs>
       <use xlink:href="#DejaVuSans-30"/>
      </g>
     </g>
    </g>
    <g id="xtick_2">
     <g id="line2d_3">
      <g>
       <use xlink:href="#mf5fbf67ad6" x="195.528497" y="192.24" style="stroke: #000000; stroke-width: 0.8"/>
      </g>
     </g>
     <g id="text_2">
      <!-- 5 -->
      <g transform="translate(192.347247 206.838437) scale(0.1 -0.1)">
       <defs>
        <path id="DejaVuSans-35" d="M 691 4666 
L 3169 4666 
L 3169 4134 
L 1269 4134 
L 1269 2991 
Q 1406 3038 1543 3061 
Q 1681 3084 1819 3084 
Q 2600 3084 3056 2656 
Q 3513 2228 3513 1497 
Q 3513 744 3044 326 
Q 2575 -91 1722 -91 
Q 1428 -91 1123 -41 
Q 819 9 494 109 
L 494 744 
Q 775 591 1075 516 
Q 1375 441 1709 441 
Q 2250 441 2565 725 
Q 2881 1009 2881 1497 
Q 2881 1984 2565 2268 
Q 2250 2553 1709 2553 
Q 1456 2553 1204 2497 
Q 953 2441 691 2322 
L 691 4666 
z
" transform="scale(0.015625)"/>
       </defs>
       <use xlink:href="#DejaVuSans-35"/>
      </g>
     </g>
    </g>
    <g id="xtick_3">
     <g id="line2d_4">
      <g>
       <use xlink:href="#mf5fbf67ad6" x="291.901554" y="192.24" style="stroke: #000000; stroke-width: 0.8"/>
      </g>
     </g>
     <g id="text_3">
      <!-- 10 -->
      <g transform="translate(285.539054 206.838437) scale(0.1 -0.1)">
       <defs>
        <path id="DejaVuSans-31" d="M 794 531 
L 1825 531 
L 1825 4091 
L 703 3866 
L 703 4441 
L 1819 4666 
L 2450 4666 
L 2450 531 
L 3481 531 
L 3481 0 
L 794 0 
L 794 531 
z
" transform="scale(0.015625)"/>
       </defs>
       <use xlink:href="#DejaVuSans-31"/>
       <use xlink:href="#DejaVuSans-30" x="63.623047"/>
      </g>
     </g>
    </g>
    <g id="xtick_4">
     <g id="line2d_5">
      <g>
       <use xlink:href="#mf5fbf67ad6" x="388.274611" y="192.24" style="stroke: #000000; stroke-width: 0.8"/>
      </g>
     </g>
     <g id="text_4">
      <!-- 15 -->
      <g transform="translate(381.912111 206.838437) scale(0.1 -0.1)">
       <use xlink:href="#DejaVuSans-31"/>
       <use xlink:href="#DejaVuSans-35" x="63.623047"/>
      </g>
     </g>
    </g>
    <g id="xtick_5">
     <g id="line2d_6">
      <g>
       <use xlink:href="#mf5fbf67ad6" x="484.647668" y="192.24" style="stroke: #000000; stroke-width: 0.8"/>
      </g>
     </g>
     <g id="text_5">
      <!-- 20 -->
      <g transform="translate(478.285168 206.838437) scale(0.1 -0.1)">
       <defs>
        <path id="DejaVuSans-32" d="M 1228 531 
L 3431 531 
L 3431 0 
L 469 0 
L 469 531 
Q 828 903 1448 1529 
Q 2069 2156 2228 2338 
Q 2531 2678 2651 2914 
Q 2772 3150 2772 3378 
Q 2772 3750 2511 3984 
Q 2250 4219 1831 4219 
Q 1534 4219 1204 4116 
Q 875 4013 500 3803 
L 500 4441 
Q 881 4594 1212 4672 
Q 1544 4750 1819 4750 
Q 2544 4750 2975 4387 
Q 3406 4025 3406 3419 
Q 3406 3131 3298 2873 
Q 3191 2616 2906 2266 
Q 2828 2175 2409 1742 
Q 1991 1309 1228 531 
z
" transform="scale(0.015625)"/>
       </defs>
       <use xlink:href="#DejaVuSans-32"/>
       <use xlink:href="#DejaVuSans-30" x="63.623047"/>
      </g>
     </g>
    </g>
    <g id="xtick_6">
     <g id="line2d_7">
      <g>
       <use xlink:href="#mf5fbf67ad6" x="581.020725" y="192.24" style="stroke: #000000; stroke-width: 0.8"/>
      </g>
     </g>
     <g id="text_6">
      <!-- 25 -->
      <g transform="translate(574.658225 206.838437) scale(0.1 -0.1)">
       <use xlink:href="#DejaVuSans-32"/>
       <use xlink:href="#DejaVuSans-35" x="63.623047"/>
      </g>
     </g>
    </g>
   </g>
   <g id="matplotlib.axis_2">
    <g id="ytick_1">
     <g id="line2d_8">
      <defs>
       <path id="m988f18a316" d="M 0 0 
L -3.5 0 
" style="stroke: #000000; stroke-width: 0.8"/>
      </defs>
      <g>
       <use xlink:href="#m988f18a316" x="90" y="192.24" style="stroke: #000000; stroke-width: 0.8"/>
      </g>
     </g>
     <g id="text_7">
      <!-- 0.0 -->
      <g transform="translate(67.096875 196.039219) scale(0.1 -0.1)">
       <defs>
        <path id="DejaVuSans-2e" d="M 684 794 
L 1344 794 
L 1344 0 
L 684 0 
L 684 794 
z
" transform="scale(0.015625)"/>
       </defs>
       <use xlink:href="#DejaVuSans-30"/>
       <use xlink:href="#DejaVuSans-2e" x="63.623047"/>
       <use xlink:href="#DejaVuSans-30" x="95.410156"/>
      </g>
     </g>
    </g>
    <g id="ytick_2">
     <g id="line2d_9">
      <g>
       <use xlink:href="#m988f18a316" x="90" y="169.946426" style="stroke: #000000; stroke-width: 0.8"/>
      </g>
     </g>
     <g id="text_8">
      <!-- 0.2 -->
      <g transform="translate(67.096875 173.745645) scale(0.1 -0.1)">
       <use xlink:href="#DejaVuSans-30"/>
       <use xlink:href="#DejaVuSans-2e" x="63.623047"/>
       <use xlink:href="#DejaVuSans-32" x="95.410156"/>
      </g>
     </g>
    </g>
    <g id="ytick_3">
     <g id="line2d_10">
      <g>
       <use xlink:href="#m988f18a316" x="90" y="147.652852" style="stroke: #000000; stroke-width: 0.8"/>
      </g>
     </g>
     <g id="text_9">
      <!-- 0.4 -->
      <g transform="translate(67.096875 151.452071) scale(0.1 -0.1)">
       <defs>
        <path id="DejaVuSans-34" d="M 2419 4116 
L 825 1625 
L 2419 1625 
L 2419 4116 
z
M 2253 4666 
L 3047 4666 
L 3047 1625 
L 3713 1625 
L 3713 1100 
L 3047 1100 
L 3047 0 
L 2419 0 
L 2419 1100 
L 313 1100 
L 313 1709 
L 2253 4666 
z
" transform="scale(0.015625)"/>
       </defs>
       <use xlink:href="#DejaVuSans-30"/>
       <use xlink:href="#DejaVuSans-2e" x="63.623047"/>
       <use xlink:href="#DejaVuSans-34" x="95.410156"/>
      </g>
     </g>
    </g>
    <g id="ytick_4">
     <g id="line2d_11">
      <g>
       <use xlink:href="#m988f18a316" x="90" y="125.359279" style="stroke: #000000; stroke-width: 0.8"/>
      </g>
     </g>
     <g id="text_10">
      <!-- 0.6 -->
      <g transform="translate(67.096875 129.158497) scale(0.1 -0.1)">
       <defs>
        <path id="DejaVuSans-36" d="M 2113 2584 
Q 1688 2584 1439 2293 
Q 1191 2003 1191 1497 
Q 1191 994 1439 701 
Q 1688 409 2113 409 
Q 2538 409 2786 701 
Q 3034 994 3034 1497 
Q 3034 2003 2786 2293 
Q 2538 2584 2113 2584 
z
M 3366 4563 
L 3366 3988 
Q 3128 4100 2886 4159 
Q 2644 4219 2406 4219 
Q 1781 4219 1451 3797 
Q 1122 3375 1075 2522 
Q 1259 2794 1537 2939 
Q 1816 3084 2150 3084 
Q 2853 3084 3261 2657 
Q 3669 2231 3669 1497 
Q 3669 778 3244 343 
Q 2819 -91 2113 -91 
Q 1303 -91 875 529 
Q 447 1150 447 2328 
Q 447 3434 972 4092 
Q 1497 4750 2381 4750 
Q 2619 4750 2861 4703 
Q 3103 4656 3366 4563 
z
" transform="scale(0.015625)"/>
       </defs>
       <use xlink:href="#DejaVuSans-30"/>
       <use xlink:href="#DejaVuSans-2e" x="63.623047"/>
       <use xlink:href="#DejaVuSans-36" x="95.410156"/>
      </g>
     </g>
    </g>
    <g id="ytick_5">
     <g id="line2d_12">
      <g>
       <use xlink:href="#m988f18a316" x="90" y="103.065705" style="stroke: #000000; stroke-width: 0.8"/>
      </g>
     </g>
     <g id="text_11">
      <!-- 0.8 -->
      <g transform="translate(67.096875 106.864924) scale(0.1 -0.1)">
       <defs>
        <path id="DejaVuSans-38" d="M 2034 2216 
Q 1584 2216 1326 1975 
Q 1069 1734 1069 1313 
Q 1069 891 1326 650 
Q 1584 409 2034 409 
Q 2484 409 2743 651 
Q 3003 894 3003 1313 
Q 3003 1734 2745 1975 
Q 2488 2216 2034 2216 
z
M 1403 2484 
Q 997 2584 770 2862 
Q 544 3141 544 3541 
Q 544 4100 942 4425 
Q 1341 4750 2034 4750 
Q 2731 4750 3128 4425 
Q 3525 4100 3525 3541 
Q 3525 3141 3298 2862 
Q 3072 2584 2669 2484 
Q 3125 2378 3379 2068 
Q 3634 1759 3634 1313 
Q 3634 634 3220 271 
Q 2806 -91 2034 -91 
Q 1263 -91 848 271 
Q 434 634 434 1313 
Q 434 1759 690 2068 
Q 947 2378 1403 2484 
z
M 1172 3481 
Q 1172 3119 1398 2916 
Q 1625 2713 2034 2713 
Q 2441 2713 2670 2916 
Q 2900 3119 2900 3481 
Q 2900 3844 2670 4047 
Q 2441 4250 2034 4250 
Q 1625 4250 1398 4047 
Q 1172 3844 1172 3481 
z
" transform="scale(0.015625)"/>
       </defs>
       <use xlink:href="#DejaVuSans-30"/>
       <use xlink:href="#DejaVuSans-2e" x="63.623047"/>
       <use xlink:href="#DejaVuSans-38" x="95.410156"/>
      </g>
     </g>
    </g>
    <g id="ytick_6">
     <g id="line2d_13">
      <g>
       <use xlink:href="#m988f18a316" x="90" y="80.772131" style="stroke: #000000; stroke-width: 0.8"/>
      </g>
     </g>
     <g id="text_12">
      <!-- 1.0 -->
      <g transform="translate(67.096875 84.57135) scale(0.1 -0.1)">
       <use xlink:href="#DejaVuSans-31"/>
       <use xlink:href="#DejaVuSans-2e" x="63.623047"/>
       <use xlink:href="#DejaVuSans-30" x="95.410156"/>
      </g>
     </g>
    </g>
    <g id="ytick_7">
     <g id="line2d_14">
      <g>
       <use xlink:href="#m988f18a316" x="90" y="58.478557" style="stroke: #000000; stroke-width: 0.8"/>
      </g>
     </g>
     <g id="text_13">
      <!-- 1.2 -->
      <g transform="translate(67.096875 62.277776) scale(0.1 -0.1)">
       <use xlink:href="#DejaVuSans-31"/>
       <use xlink:href="#DejaVuSans-2e" x="63.623047"/>
       <use xlink:href="#DejaVuSans-32" x="95.410156"/>
      </g>
     </g>
    </g>
    <g id="ytick_8">
     <g id="line2d_15">
      <g>
       <use xlink:href="#m988f18a316" x="90" y="36.184983" style="stroke: #000000; stroke-width: 0.8"/>
      </g>
     </g>
     <g id="text_14">
      <!-- 1.4 -->
      <g transform="translate(67.096875 39.984202) scale(0.1 -0.1)">
       <use xlink:href="#DejaVuSans-31"/>
       <use xlink:href="#DejaVuSans-2e" x="63.623047"/>
       <use xlink:href="#DejaVuSans-34" x="95.410156"/>
      </g>
     </g>
    </g>
   </g>
  </g>
 </g>
 <defs>
  <clipPath id="p2f9b03c1fb">
   <rect x="90" y="25.92" width="558" height="166.32"/>
  </clipPath>
 </defs>
</svg>
