<?xml version="1.0" encoding="utf-8" standalone="no"?>
<!DOCTYPE svg PUBLIC "-//W3C//DTD SVG 1.1//EN"
  "http://www.w3.org/Graphics/SVG/1.1/DTD/svg11.dtd">
<svg xmlns:xlink="http://www.w3.org/1999/xlink" width="720pt" height="216pt" viewBox="0 0 720 216" xmlns="http://www.w3.org/2000/svg" version="1.1">
 <metadata>
  <rdf:RDF xmlns:dc="http://purl.org/dc/elements/1.1/" xmlns:cc="http://creativecommons.org/ns#" xmlns:rdf="http://www.w3.org/1999/02/22-rdf-syntax-ns#">
   <cc:Work>
    <dc:type rdf:resource="http://purl.org/dc/dcmitype/StillImage"/>
    <dc:date>2025-12-17T10:22:39.674982</dc:date>
    <dc:format>image/svg+xml</dc:format>
    <dc:creator>
     <cc:Agent>
      <dc:title>Matplotlib v3.8.2, https://matplotlib.org/</dc:title>
     </cc:Agent>
    </dc:creator>
   </cc:Work>
  </rdf:RDF>
 </metadata>
 <defs>
  <style type="text/css">*{stroke-linejoin: round; stroke-linecap: butt}</style>
 </defs>
 <g id="figure_1">
  <g id="patch_1">
   <path d="M 0 216 
L 720 216 
L 720 0 
L 0 0 
z
" style="fill: #ffffff"/>
  </g>
  <g id="axes_1">
   <g id="patch_2">
    <path d="M 90 192.24 
L 648 192.24 
L 648 25.92 
L 90 25.92 
z
" style="fill: #ffffff"/>
   </g>
   <g id="line2d_1">
    <path d="M 90 192.24 
L 648 192.24 
" clip-path="url(#p5c1df4956a)" style="fill: none; stroke: #000000; stroke-width: 0.5; stroke-linecap: square"/>
   </g>
   <g id="patch_3">
    <path d="M 107.699499 192.135532 
Q 106.218967 192.187314 104.618029 192.213507 
Q 103.017092 192.24 101.273453 192.24 
Q 96.073751 192.24 93.036876 192.043708 
Q 90 191.847416 90 191.511732 
Q 90 191.174844 93.036876 190.978853 
Q 96.073751 190.78256 101.273453 190.78256 
Q 103.017092 190.78256 104.618029 190.809054 
Q 106.218967 190.835246 107.699499 190.887029 
L 107.699499 191.177553 
Q 106.205588 191.108911 104.756272 191.076999 
Q 103.306955 191.045086 101.706018 191.045086 
Q 98.834142 191.045086 97.18861 191.169425 
Q 95.547538 191.293462 95.547538 191.511732 
Q 95.547538 191.729098 97.18861 191.853437 
Q 98.834142 191.977474 101.706018 191.977474 
Q 103.306955 191.977474 104.756272 191.945562 
Q 106.205588 191.913348 107.699499 191.844706 
L 107.699499 192.135532 
z
" clip-path="url(#p5c1df4956a)" style="fill: #0000ff"/>
   </g>
   <g id="patch_4">
    <path d="M 107.699499 190.419353 
Q 105.914476 190.600957 103.994584 190.692173 
Q 102.074692 190.78256 100.027865 190.78256 
Q 95.402671 190.78256 92.701335 190.241896 
Q 90 189.701231 90 188.776629 
Q 90 187.841246 92.748936 187.304728 
Q 95.501839 186.768209 100.289668 186.768209 
Q 102.134193 186.768209 103.824015 186.841182 
Q 105.517804 186.913326 107.017224 187.055956 
L 107.017224 187.856172 
Q 105.470203 187.67291 103.93905 187.582523 
Q 102.407896 187.491307 100.868809 187.491307 
Q 98.020705 187.491307 96.477652 187.824661 
Q 94.934598 188.157186 94.934598 188.776629 
Q 94.934598 189.390266 96.422118 189.725279 
Q 97.909637 190.059463 100.646673 190.059463 
Q 101.392416 190.059463 102.031058 190.040391 
Q 102.6697 190.020489 103.17744 189.979027 
L 103.17744 189.227735 
L 100.261901 189.227735 
L 100.261901 188.558539 
L 107.699499 188.558539 
L 107.699499 190.419353 
z
" clip-path="url(#p5c1df4956a)" style="fill: #ffa600"/>
   </g>
   <g id="patch_5">
    <path d="M 102.260459 185.403445 
L 95.453516 185.403445 
L 94.378735 186.768209 
L 90 186.768209 
L 96.253268 179.276459 
L 101.446231 179.276459 
L 107.699499 186.768209 
L 103.324383 186.768209 
L 102.260459 185.403445 
z
M 96.539153 184.012992 
L 101.163965 184.012992 
L 98.855178 181.03299 
L 96.539153 184.012992 
z
" clip-path="url(#p5c1df4956a)" style="fill: #008000"/>
   </g>
   <g id="patch_6">
    <path d="M 90 170.659667 
L 107.699499 170.659667 
L 107.699499 172.340181 
L 101.331796 172.340181 
L 101.331796 179.276459 
L 96.380052 179.276459 
L 96.380052 172.340181 
L 90 172.340181 
L 90 170.659667 
z
" clip-path="url(#p5c1df4956a)" style="fill: #ff0000"/>
   </g>
   <g id="patch_7">
    <path d="M 126.330551 191.986002 
Q 124.545527 192.113001 122.625636 192.17679 
Q 120.705744 192.24 118.658917 192.24 
Q 114.033723 192.24 111.332387 191.861902 
Q 108.631052 191.483805 108.631052 190.837212 
Q 108.631052 190.18308 111.379988 189.807882 
Q 114.132891 189.432684 118.92072 189.432684 
Q 120.765244 189.432684 122.455067 189.483715 
Q 124.148856 189.534167 125.648275 189.633911 
L 125.648275 190.193518 
Q 124.101255 190.065359 122.570102 190.00215 
Q 121.038948 189.93836 119.499861 189.93836 
Q 116.651757 189.93836 115.108704 190.171482 
Q 113.56565 190.404023 113.56565 190.837212 
Q 113.56565 191.266341 115.053169 191.500622 
Q 116.540689 191.734324 119.277725 191.734324 
Q 120.023468 191.734324 120.66211 191.720986 
Q 121.300752 191.707068 121.808492 191.678073 
L 121.808492 191.15268 
L 118.892953 191.15268 
L 118.892953 190.684697 
L 126.330551 190.684697 
L 126.330551 191.986002 
z
" clip-path="url(#p5c1df4956a)" style="fill: #ffa600"/>
   </g>
   <g id="patch_8">
    <path d="M 126.330551 189.046724 
Q 124.850018 189.238036 123.249081 189.334804 
Q 121.648144 189.432684 119.904504 189.432684 
Q 114.704803 189.432684 111.667927 188.70748 
Q 108.631052 187.982277 108.631052 186.74209 
Q 108.631052 185.497454 111.667927 184.773363 
Q 114.704803 184.04816 119.904504 184.04816 
Q 121.648144 184.04816 123.249081 184.14604 
Q 124.850018 184.242808 126.330551 184.434119 
L 126.330551 185.507465 
Q 124.83664 185.253866 123.387324 185.135965 
Q 121.938007 185.018064 120.33707 185.018064 
Q 117.465193 185.018064 115.819662 185.477433 
Q 114.178589 185.935691 114.178589 186.74209 
Q 114.178589 187.545153 115.819662 188.004523 
Q 117.465193 188.46278 120.33707 188.46278 
Q 121.938007 188.46278 123.387324 188.344879 
Q 124.83664 188.225865 126.330551 187.972267 
L 126.330551 189.046724 
z
" clip-path="url(#p5c1df4956a)" style="fill: #0000ff"/>
   </g>
   <g id="patch_9">
    <path d="M 120.89151 182.59778 
L 114.084567 182.59778 
L 113.009787 184.04816 
L 108.631052 184.04816 
L 114.88432 176.086427 
L 120.077283 176.086427 
L 126.330551 184.04816 
L 121.955434 184.04816 
L 120.89151 182.59778 
z
M 115.170204 181.120098 
L 119.795017 181.120098 
L 117.48623 177.953151 
L 115.170204 181.120098 
z
" clip-path="url(#p5c1df4956a)" style="fill: #008000"/>
   </g>
   <g id="patch_10">
    <path d="M 108.631052 153.39779 
L 126.330551 153.39779 
L 126.330551 157.822707 
L 119.962847 157.822707 
L 119.962847 176.086427 
L 115.011104 176.086427 
L 115.011104 157.822707 
L 108.631052 157.822707 
L 108.631052 153.39779 
z
" clip-path="url(#p5c1df4956a)" style="fill: #ff0000"/>
   </g>
   <g id="patch_11">
    <path d="M 139.522562 191.515465 
L 132.715619 191.515465 
L 131.640839 192.24 
L 127.262104 192.24 
L 133.515372 188.262727 
L 138.708335 188.262727 
L 144.961603 192.24 
L 140.586486 192.24 
L 139.522562 191.515465 
z
M 133.801256 190.777291 
L 138.426069 190.777291 
L 136.117281 189.195247 
L 133.801256 190.777291 
z
" clip-path="url(#p5c1df4956a)" style="fill: #008000"/>
   </g>
   <g id="patch_12">
    <path d="M 144.961603 187.710953 
Q 143.176579 187.98684 141.256687 188.125414 
Q 139.336795 188.262727 137.289969 188.262727 
Q 132.664774 188.262727 129.963439 187.441365 
Q 127.262104 186.620004 127.262104 185.215374 
Q 127.262104 183.794368 130.01104 182.979305 
Q 132.763942 182.164242 137.551772 182.164242 
Q 139.396296 182.164242 141.086118 182.275101 
Q 142.779907 182.384699 144.279327 182.601378 
L 144.279327 183.817044 
Q 142.732307 183.538637 141.201153 183.401324 
Q 139.67 183.26275 138.130913 183.26275 
Q 135.282809 183.26275 133.739755 183.769173 
Q 132.196702 184.274335 132.196702 185.215374 
Q 132.196702 186.147595 133.684221 186.656536 
Q 135.171741 187.164219 137.908777 187.164219 
Q 138.65452 187.164219 139.293162 187.135244 
Q 139.931803 187.10501 140.439543 187.042022 
L 140.439543 185.900682 
L 137.524005 185.900682 
L 137.524005 184.884058 
L 144.961603 184.884058 
L 144.961603 187.710953 
z
" clip-path="url(#p5c1df4956a)" style="fill: #ffa600"/>
   </g>
   <g id="patch_13">
    <path d="M 144.961603 181.575059 
Q 143.48107 181.867104 141.880133 182.014824 
Q 140.279195 182.164242 138.535556 182.164242 
Q 133.335855 182.164242 130.298979 181.057189 
Q 127.262104 179.950136 127.262104 178.05694 
Q 127.262104 176.156952 130.298979 175.051597 
Q 133.335855 173.944545 138.535556 173.944545 
Q 140.279195 173.944545 141.880133 174.093963 
Q 143.48107 174.241683 144.961603 174.533728 
L 144.961603 176.172234 
Q 143.467692 175.785105 142.018375 175.605124 
Q 140.569059 175.425143 138.968121 175.425143 
Q 136.096245 175.425143 134.450713 176.126389 
Q 132.809641 176.825938 132.809641 178.05694 
Q 132.809641 179.282848 134.450713 179.984095 
Q 136.096245 180.683644 138.968121 180.683644 
Q 140.569059 180.683644 142.018375 180.503663 
Q 143.467692 180.321984 144.961603 179.934855 
L 144.961603 181.575059 
z
" clip-path="url(#p5c1df4956a)" style="fill: #0000ff"/>
   </g>
   <g id="patch_14">
    <path d="M 127.262104 136.293028 
L 144.961603 136.293028 
L 144.961603 143.636122 
L 138.593899 143.636122 
L 138.593899 173.944545 
L 133.642156 173.944545 
L 133.642156 143.636122 
L 127.262104 143.636122 
L 127.262104 136.293028 
z
" clip-path="url(#p5c1df4956a)" style="fill: #ff0000"/>
   </g>
   <g id="patch_15">
    <path d="M 145.893155 188.329288 
L 163.592654 188.329288 
L 163.592654 189.091986 
L 157.224951 189.091986 
L 157.224951 192.24 
L 152.273207 192.24 
L 152.273207 189.091986 
L 145.893155 189.091986 
L 145.893155 188.329288 
z
" clip-path="url(#p5c1df4956a)" style="fill: #ff0000"/>
   </g>
   <g id="patch_16">
    <path d="M 163.592654 187.837857 
Q 161.807631 188.083572 159.887739 188.206991 
Q 157.967847 188.329288 155.92102 188.329288 
Q 151.295826 188.329288 148.594491 187.597751 
Q 145.893155 186.866215 145.893155 185.615198 
Q 145.893155 184.349595 148.642091 183.623669 
Q 151.394994 182.897743 156.182824 182.897743 
Q 158.027348 182.897743 159.71717 182.996478 
Q 161.410959 183.094091 162.910379 183.287073 
L 162.910379 184.369791 
Q 161.363358 184.121832 159.832205 183.999535 
Q 158.301052 183.876116 156.761965 183.876116 
Q 153.913861 183.876116 152.370807 184.327156 
Q 150.827753 184.777073 150.827753 185.615198 
Q 150.827753 186.445469 152.315273 186.898753 
Q 153.802792 187.350914 156.539828 187.350914 
Q 157.285572 187.350914 157.924213 187.325108 
Q 158.562855 187.29818 159.070595 187.242081 
L 159.070595 186.22556 
L 156.155057 186.22556 
L 156.155057 185.320115 
L 163.592654 185.320115 
L 163.592654 187.837857 
z
" clip-path="url(#p5c1df4956a)" style="fill: #ffa600"/>
   </g>
   <g id="patch_17">
    <path d="M 163.592654 182.352681 
Q 162.112122 182.622856 160.511185 182.759514 
Q 158.910247 182.897743 157.166608 182.897743 
Q 151.966906 182.897743 148.930031 181.873592 
Q 145.893155 180.849441 145.893155 179.098017 
Q 145.893155 177.340311 148.930031 176.317731 
Q 151.966906 175.29358 157.166608 175.29358 
Q 158.910247 175.29358 160.511185 175.431809 
Q 162.112122 175.568467 163.592654 175.838642 
L 163.592654 177.354448 
Q 162.098744 176.996309 160.649427 176.829806 
Q 159.200111 176.663303 157.599173 176.663303 
Q 154.727297 176.663303 153.081765 177.312037 
Q 151.440693 177.959199 151.440693 179.098017 
Q 151.440693 180.232123 153.081765 180.880857 
Q 154.727297 181.52802 157.599173 181.52802 
Q 159.200111 181.52802 160.649427 181.361516 
Q 162.098744 181.193443 163.592654 180.835304 
L 163.592654 182.352681 
z
" clip-path="url(#p5c1df4956a)" style="fill: #0000ff"/>
   </g>
   <g id="patch_18">
    <path d="M 158.153614 170.029661 
L 151.346671 170.029661 
L 150.27189 175.29358 
L 145.893155 175.29358 
L 152.146423 146.397761 
L 157.339386 146.397761 
L 163.592654 175.29358 
L 159.217538 175.29358 
L 158.153614 170.029661 
z
M 152.432308 164.666656 
L 157.057121 164.666656 
L 154.748333 153.172734 
L 152.432308 164.666656 
z
" clip-path="url(#p5c1df4956a)" style="fill: #008000"/>
   </g>
   <g id="patch_19">
    <path d="M 182.223706 192.109343 
Q 180.743174 192.174107 179.142236 192.206865 
Q 177.541299 192.24 175.79766 192.24 
Q 170.597958 192.24 167.561083 191.994501 
Q 164.524207 191.749001 164.524207 191.329167 
Q 164.524207 190.907827 167.561083 190.662704 
Q 170.597958 190.417205 175.79766 190.417205 
Q 177.541299 190.417205 179.142236 190.45034 
Q 180.743174 190.483098 182.223706 190.547862 
L 182.223706 190.911216 
Q 180.729795 190.825367 179.280479 190.785454 
Q 177.831162 190.745542 176.230225 190.745542 
Q 173.358349 190.745542 171.712817 190.90105 
Q 170.071745 191.056181 170.071745 191.329167 
Q 170.071745 191.601024 171.712817 191.756532 
Q 173.358349 191.911663 176.230225 191.911663 
Q 177.831162 191.911663 179.280479 191.871751 
Q 180.729795 191.831462 182.223706 191.745613 
L 182.223706 192.109343 
z
" clip-path="url(#p5c1df4956a)" style="fill: #0000ff"/>
   </g>
   <g id="patch_20">
    <path d="M 182.223706 190.087362 
Q 180.438683 190.252284 178.518791 190.335121 
Q 176.598899 190.417205 174.552072 190.417205 
Q 169.926878 190.417205 167.225542 189.926206 
Q 164.524207 189.435208 164.524207 188.59554 
Q 164.524207 187.746082 167.273143 187.258848 
Q 170.026046 186.771615 174.813876 186.771615 
Q 176.6584 186.771615 178.348222 186.837885 
Q 180.042011 186.903402 181.541431 187.032929 
L 181.541431 187.759637 
Q 179.99441 187.59321 178.463257 187.511125 
Q 176.932103 187.428288 175.393016 187.428288 
Q 172.544912 187.428288 171.001859 187.731021 
Q 169.458805 188.033 169.458805 188.59554 
Q 169.458805 189.152808 170.946325 189.457047 
Q 172.433844 189.760532 175.17088 189.760532 
Q 175.916623 189.760532 176.555265 189.743211 
Q 177.193907 189.725138 177.701647 189.687485 
L 177.701647 189.005207 
L 174.786108 189.005207 
L 174.786108 188.397483 
L 182.223706 188.397483 
L 182.223706 190.087362 
z
" clip-path="url(#p5c1df4956a)" style="fill: #ffa600"/>
   </g>
   <g id="patch_21">
    <path d="M 176.784666 184.97851 
L 169.977723 184.97851 
L 168.902942 186.771615 
L 164.524207 186.771615 
L 170.777475 176.928522 
L 175.970438 176.928522 
L 182.223706 186.771615 
L 177.84859 186.771615 
L 176.784666 184.97851 
z
M 171.06336 183.151652 
L 175.688172 183.151652 
L 173.379385 179.236354 
L 171.06336 183.151652 
z
" clip-path="url(#p5c1df4956a)" style="fill: #008000"/>
   </g>
   <g id="patch_22">
    <path d="M 164.524207 166.599351 
L 182.223706 166.599351 
L 182.223706 168.613827 
L 175.856003 168.613827 
L 175.856003 176.928522 
L 170.904259 176.928522 
L 170.904259 168.613827 
L 164.524207 168.613827 
L 164.524207 166.599351 
z
" clip-path="url(#p5c1df4956a)" style="fill: #ff0000"/>
   </g>
   <g id="patch_23">
    <path d="M 200.854758 191.970035 
Q 199.069734 192.105018 197.149843 192.172817 
Q 195.229951 192.24 193.183124 192.24 
Q 188.55793 192.24 185.856594 191.838135 
Q 183.155259 191.436269 183.155259 190.74903 
Q 183.155259 190.053778 185.904195 189.654994 
Q 188.657098 189.256211 193.444927 189.256211 
Q 195.289451 189.256211 196.979274 189.31045 
Q 198.673063 189.364073 200.172482 189.470087 
L 200.172482 190.064872 
Q 198.625462 189.928657 197.094309 189.861474 
Q 195.563155 189.793675 194.024068 189.793675 
Q 191.175964 189.793675 189.632911 190.041451 
Q 188.089857 190.28861 188.089857 190.74903 
Q 188.089857 191.205135 189.577376 191.454143 
Q 191.064896 191.702536 193.801932 191.702536 
Q 194.547675 191.702536 195.186317 191.68836 
Q 195.824959 191.673567 196.332699 191.642749 
L 196.332699 191.084329 
L 193.41716 191.084329 
L 193.41716 190.586928 
L 200.854758 190.586928 
L 200.854758 191.970035 
z
" clip-path="url(#p5c1df4956a)" style="fill: #ffa600"/>
   </g>
   <g id="patch_24">
    <path d="M 195.415717 188.386525 
L 188.608774 188.386525 
L 187.533994 189.256211 
L 183.155259 189.256211 
L 189.408527 184.482148 
L 194.60149 184.482148 
L 200.854758 189.256211 
L 196.479641 189.256211 
L 195.415717 188.386525 
z
M 189.694411 187.500469 
L 194.319224 187.500469 
L 192.010437 185.601484 
L 189.694411 187.500469 
z
" clip-path="url(#p5c1df4956a)" style="fill: #008000"/>
   </g>
   <g id="patch_25">
    <path d="M 200.854758 183.812002 
Q 199.374225 184.144178 197.773288 184.312197 
Q 196.172351 184.482148 194.428711 184.482148 
Q 189.22901 184.482148 186.192134 183.222969 
Q 183.155259 181.963791 183.155259 179.810441 
Q 183.155259 177.649367 186.192134 176.392119 
Q 189.22901 175.132941 194.428711 175.132941 
Q 196.172351 175.132941 197.773288 175.302892 
Q 199.374225 175.470911 200.854758 175.803087 
L 200.854758 177.666748 
Q 199.360847 177.226422 197.911531 177.021709 
Q 196.462214 176.816996 194.861277 176.816996 
Q 191.9894 176.816996 190.343869 177.614604 
Q 188.702796 178.410281 188.702796 179.810441 
Q 188.702796 181.204808 190.343869 182.002416 
Q 191.9894 182.798093 194.861277 182.798093 
Q 196.462214 182.798093 197.911531 182.59338 
Q 199.360847 182.386736 200.854758 181.94641 
L 200.854758 183.812002 
z
" clip-path="url(#p5c1df4956a)" style="fill: #0000ff"/>
   </g>
   <g id="patch_26">
    <path d="M 183.155259 150.26803 
L 200.854758 150.26803 
L 200.854758 155.11738 
L 194.487054 155.11738 
L 194.487054 175.132941 
L 189.535311 175.132941 
L 189.535311 155.11738 
L 183.155259 155.11738 
L 183.155259 150.26803 
z
" clip-path="url(#p5c1df4956a)" style="fill: #ff0000"/>
   </g>
   <g id="patch_27">
    <path d="M 219.48581 191.99925 
Q 217.700786 192.119625 215.780894 192.180087 
Q 213.861002 192.24 211.814176 192.24 
Q 207.188981 192.24 204.487646 191.881623 
Q 201.786311 191.523247 201.786311 190.910379 
Q 201.786311 190.290366 204.535247 189.934738 
Q 207.288149 189.579109 212.075979 189.579109 
Q 213.920503 189.579109 215.610325 189.627479 
Q 217.304114 189.675299 218.803534 189.76984 
L 218.803534 190.30026 
Q 217.256514 190.178785 215.72536 190.118873 
Q 214.194207 190.05841 212.65512 190.05841 
Q 209.807016 190.05841 208.263962 190.279373 
Q 206.720909 190.499785 206.720909 190.910379 
Q 206.720909 191.317125 208.208428 191.539187 
Q 209.695948 191.760699 212.432984 191.760699 
Q 213.178727 191.760699 213.817369 191.748057 
Q 214.45601 191.734865 214.96375 191.707382 
L 214.96375 191.209393 
L 212.048212 191.209393 
L 212.048212 190.765819 
L 219.48581 190.765819 
L 219.48581 191.99925 
z
" clip-path="url(#p5c1df4956a)" style="fill: #ffa600"/>
   </g>
   <g id="patch_28">
    <path d="M 214.046769 188.900485 
L 207.239826 188.900485 
L 206.165046 189.579109 
L 201.786311 189.579109 
L 208.039579 185.853862 
L 213.232542 185.853862 
L 219.48581 189.579109 
L 215.110693 189.579109 
L 214.046769 188.900485 
z
M 208.325463 188.209087 
L 212.950276 188.209087 
L 210.641488 186.727291 
L 208.325463 188.209087 
z
" clip-path="url(#p5c1df4956a)" style="fill: #008000"/>
   </g>
   <g id="patch_29">
    <path d="M 219.48581 185.338888 
Q 218.005277 185.594149 216.40434 185.723264 
Q 214.803402 185.853862 213.059763 185.853862 
Q 207.860062 185.853862 204.823186 184.886246 
Q 201.786311 183.918629 201.786311 182.263886 
Q 201.786311 180.603206 204.823186 179.637074 
Q 207.860062 178.669457 213.059763 178.669457 
Q 214.803402 178.669457 216.40434 178.800056 
Q 218.005277 178.92917 219.48581 179.184431 
L 219.48581 180.616563 
Q 217.991899 180.278194 216.542582 180.120882 
Q 215.093266 179.96357 213.492328 179.96357 
Q 210.620452 179.96357 208.97492 180.576493 
Q 207.333848 181.187932 207.333848 182.263886 
Q 207.333848 183.335388 208.97492 183.94831 
Q 210.620452 184.559749 213.492328 184.559749 
Q 215.093266 184.559749 216.542582 184.402437 
Q 217.991899 184.243641 219.48581 183.905272 
L 219.48581 185.338888 
z
" clip-path="url(#p5c1df4956a)" style="fill: #0000ff"/>
   </g>
   <g id="patch_30">
    <path d="M 201.786311 164.167603 
L 219.48581 164.167603 
L 219.48581 166.995868 
L 213.118106 166.995868 
L 213.118106 178.669457 
L 208.166363 178.669457 
L 208.166363 166.995868 
L 201.786311 166.995868 
L 201.786311 164.167603 
z
" clip-path="url(#p5c1df4956a)" style="fill: #ff0000"/>
   </g>
   <g id="patch_31">
    <path d="M 238.116861 192.084544 
Q 236.331838 192.162272 234.411946 192.201314 
Q 232.492054 192.24 230.445227 192.24 
Q 225.820033 192.24 223.118698 192.008591 
Q 220.417362 191.777182 220.417362 191.381444 
Q 220.417362 190.981092 223.166298 190.751458 
Q 225.919201 190.521823 230.707031 190.521823 
Q 232.551555 190.521823 234.241377 190.553056 
Q 235.935166 190.583935 237.434586 190.644981 
L 237.434586 190.987481 
Q 235.887565 190.909043 234.356412 190.870356 
Q 232.825259 190.831315 231.286172 190.831315 
Q 228.438068 190.831315 226.895014 190.973994 
Q 225.35196 191.116317 225.35196 191.381444 
Q 225.35196 191.644086 226.83948 191.787475 
Q 228.327 191.930508 231.064035 191.930508 
Q 231.809779 191.930508 232.44842 191.922345 
Q 233.087062 191.913827 233.594802 191.896081 
L 233.594802 191.574521 
L 230.679264 191.574521 
L 230.679264 191.2881 
L 238.116861 191.2881 
L 238.116861 192.084544 
z
" clip-path="url(#p5c1df4956a)" style="fill: #ffa600"/>
   </g>
   <g id="patch_32">
    <path d="M 220.417362 186.67638 
L 238.116861 186.67638 
L 238.116861 187.426348 
L 231.749158 187.426348 
L 231.749158 190.521823 
L 226.797414 190.521823 
L 226.797414 187.426348 
L 220.417362 187.426348 
L 220.417362 186.67638 
z
" clip-path="url(#p5c1df4956a)" style="fill: #ff0000"/>
   </g>
   <g id="patch_33">
    <path d="M 238.116861 186.394876 
Q 236.636329 186.534411 235.035392 186.60499 
Q 233.434454 186.67638 231.690815 186.67638 
Q 226.491113 186.67638 223.454238 186.147445 
Q 220.417362 185.61851 220.417362 184.713966 
Q 220.417362 183.806177 223.454238 183.278054 
Q 226.491113 182.749119 231.690815 182.749119 
Q 233.434454 182.749119 235.035392 182.820509 
Q 236.636329 182.891087 238.116861 183.030622 
L 238.116861 183.813479 
Q 236.622951 183.628514 235.173634 183.542521 
Q 233.724318 183.456529 232.12338 183.456529 
Q 229.251504 183.456529 227.605972 183.791575 
Q 225.9649 184.12581 225.9649 184.713966 
Q 225.9649 185.299689 227.605972 185.634735 
Q 229.251504 185.96897 232.12338 185.96897 
Q 233.724318 185.96897 235.173634 185.882977 
Q 236.622951 185.796174 238.116861 185.611209 
L 238.116861 186.394876 
z
" clip-path="url(#p5c1df4956a)" style="fill: #0000ff"/>
   </g>
   <g id="patch_34">
    <path d="M 232.677821 181.333174 
L 225.870878 181.333174 
L 224.796097 182.749119 
L 220.417362 182.749119 
L 226.67063 174.976414 
L 231.863593 174.976414 
L 238.116861 182.749119 
L 233.741745 182.749119 
L 232.677821 181.333174 
z
M 226.956515 179.890576 
L 231.581328 179.890576 
L 229.27254 176.798818 
L 226.956515 179.890576 
z
" clip-path="url(#p5c1df4956a)" style="fill: #008000"/>
   </g>
   <g id="patch_35">
    <path d="M 256.747913 192.027048 
Q 254.96289 192.133524 253.042998 192.187005 
Q 251.123106 192.24 249.076279 192.24 
Q 244.451085 192.24 241.74975 191.923002 
Q 239.048414 191.606005 239.048414 191.0639 
Q 239.048414 190.515475 241.79735 190.200908 
Q 244.550253 189.886342 249.338083 189.886342 
Q 251.182607 189.886342 252.872429 189.929127 
Q 254.566218 189.971425 256.065638 190.055051 
L 256.065638 190.524226 
Q 254.518617 190.416778 252.987464 190.363783 
Q 251.45631 190.310302 249.917223 190.310302 
Q 247.069119 190.310302 245.526066 190.505751 
Q 243.983012 190.700714 243.983012 191.0639 
Q 243.983012 191.423683 245.470532 191.620104 
Q 246.958051 191.81604 249.695087 191.81604 
Q 250.44083 191.81604 251.079472 191.804858 
Q 251.718114 191.793189 252.225854 191.768879 
L 252.225854 191.328389 
L 249.310315 191.328389 
L 249.310315 190.936032 
L 256.747913 190.936032 
L 256.747913 192.027048 
z
" clip-path="url(#p5c1df4956a)" style="fill: #ffa600"/>
   </g>
   <g id="patch_36">
    <path d="M 256.747913 189.597127 
Q 255.267381 189.740484 253.666443 189.812996 
Q 252.065506 189.886342 250.321867 189.886342 
Q 245.122165 189.886342 242.08529 189.342917 
Q 239.048414 188.799493 239.048414 187.870171 
Q 239.048414 186.937514 242.08529 186.394923 
Q 245.122165 185.851499 250.321867 185.851499 
Q 252.065506 185.851499 253.666443 185.924845 
Q 255.267381 185.997357 256.747913 186.140714 
L 256.747913 186.945016 
Q 255.254002 186.754984 253.804686 186.666636 
Q 252.355369 186.578287 250.754432 186.578287 
Q 247.882556 186.578287 246.237024 186.922512 
Q 244.595952 187.265903 244.595952 187.870171 
Q 244.595952 188.471938 246.237024 188.816162 
Q 247.882556 189.159553 250.754432 189.159553 
Q 252.355369 189.159553 253.804686 189.071205 
Q 255.254002 188.982024 256.747913 188.791992 
L 256.747913 189.597127 
z
" clip-path="url(#p5c1df4956a)" style="fill: #0000ff"/>
   </g>
   <g id="patch_37">
    <path d="M 251.308873 182.97266 
L 244.50193 182.97266 
L 243.427149 185.851499 
L 239.048414 185.851499 
L 245.301682 170.048365 
L 250.494645 170.048365 
L 256.747913 185.851499 
L 252.372797 185.851499 
L 251.308873 182.97266 
z
M 245.587567 180.039631 
L 250.212379 180.039631 
L 247.903592 173.7536 
L 245.587567 180.039631 
z
" clip-path="url(#p5c1df4956a)" style="fill: #008000"/>
   </g>
   <g id="patch_38">
    <path d="M 239.048414 121.294015 
L 256.747913 121.294015 
L 256.747913 130.802472 
L 250.38021 130.802472 
L 250.38021 170.048365 
L 245.428466 170.048365 
L 245.428466 130.802472 
L 239.048414 130.802472 
L 239.048414 121.294015 
z
" clip-path="url(#p5c1df4956a)" style="fill: #ff0000"/>
   </g>
   <g id="patch_39">
    <path d="M 275.378965 192.029168 
Q 273.898432 192.133673 272.297495 192.186533 
Q 270.696558 192.24 268.952919 192.24 
Q 263.753217 192.24 260.716341 191.843855 
Q 257.679466 191.44771 257.679466 190.770254 
Q 257.679466 190.090367 260.716341 189.694829 
Q 263.753217 189.298684 268.952919 189.298684 
Q 270.696558 189.298684 272.297495 189.352152 
Q 273.898432 189.405012 275.378965 189.509516 
L 275.378965 190.095835 
Q 273.885054 189.957306 272.435738 189.892902 
Q 270.986421 189.828498 269.385484 189.828498 
Q 266.513607 189.828498 264.868076 190.07943 
Q 263.227003 190.329755 263.227003 190.770254 
Q 263.227003 191.208929 264.868076 191.459862 
Q 266.513607 191.710186 269.385484 191.710186 
Q 270.986421 191.710186 272.435738 191.645783 
Q 273.885054 191.580771 275.378965 191.442242 
L 275.378965 192.029168 
z
" clip-path="url(#p5c1df4956a)" style="fill: #0000ff"/>
   </g>
   <g id="patch_40">
    <path d="M 275.378965 188.788617 
Q 273.593941 189.043651 271.67405 189.17175 
Q 269.754158 189.298684 267.707331 189.298684 
Q 263.082137 189.298684 260.380801 188.539407 
Q 257.679466 187.780129 257.679466 186.48167 
Q 257.679466 185.168073 260.428402 184.414618 
Q 263.181305 183.661163 267.969134 183.661163 
Q 269.813659 183.661163 271.503481 183.763642 
Q 273.19727 183.864957 274.696689 184.065257 
L 274.696689 185.189035 
Q 273.149669 184.931672 271.618516 184.804738 
Q 270.087362 184.676639 268.548275 184.676639 
Q 265.700171 184.676639 264.157118 185.144782 
Q 262.614064 185.611762 262.614064 186.48167 
Q 262.614064 187.343427 264.101583 187.8139 
Q 265.589103 188.283209 268.326139 188.283209 
Q 269.071882 188.283209 269.710524 188.256424 
Q 270.349166 188.228475 270.856906 188.170248 
L 270.856906 187.115178 
L 267.941367 187.115178 
L 267.941367 186.175397 
L 275.378965 186.175397 
L 275.378965 188.788617 
z
" clip-path="url(#p5c1df4956a)" style="fill: #ffa600"/>
   </g>
   <g id="patch_41">
    <path d="M 269.939924 181.830458 
L 263.132981 181.830458 
L 262.058201 183.661163 
L 257.679466 183.661163 
L 263.932734 173.611668 
L 269.125697 173.611668 
L 275.378965 183.661163 
L 271.003849 183.661163 
L 269.939924 181.830458 
z
M 264.218618 179.965292 
L 268.843431 179.965292 
L 266.534644 175.967893 
L 264.218618 179.965292 
z
" clip-path="url(#p5c1df4956a)" style="fill: #008000"/>
   </g>
   <g id="patch_42">
    <path d="M 257.679466 140.521867 
L 275.378965 140.521867 
L 275.378965 146.9753 
L 269.011261 146.9753 
L 269.011261 173.611668 
L 264.059518 173.611668 
L 264.059518 146.9753 
L 257.679466 146.9753 
L 257.679466 140.521867 
z
" clip-path="url(#p5c1df4956a)" style="fill: #ff0000"/>
   </g>
   <g id="patch_43">
    <path d="M 294.010017 192.0661 
Q 292.529484 192.152298 290.928547 192.195899 
Q 289.32761 192.24 287.58397 192.24 
Q 282.384269 192.24 279.347393 191.913249 
Q 276.310518 191.586498 276.310518 191.027713 
Q 276.310518 190.466924 279.347393 190.140674 
Q 282.384269 189.813923 287.58397 189.813923 
Q 289.32761 189.813923 290.928547 189.858024 
Q 292.529484 189.901624 294.010017 189.987823 
L 294.010017 190.471434 
Q 292.516106 190.357172 291.066789 190.30405 
Q 289.617473 190.250927 288.016535 190.250927 
Q 285.144659 190.250927 283.499127 190.457903 
Q 281.858055 190.664378 281.858055 191.027713 
Q 281.858055 191.389545 283.499127 191.596521 
Q 285.144659 191.802995 288.016535 191.802995 
Q 289.617473 191.802995 291.066789 191.749873 
Q 292.516106 191.69625 294.010017 191.581987 
L 294.010017 192.0661 
z
" clip-path="url(#p5c1df4956a)" style="fill: #0000ff"/>
   </g>
   <g id="patch_44">
    <path d="M 294.010017 189.556244 
Q 292.224993 189.685083 290.305101 189.749797 
Q 288.385209 189.813923 286.338383 189.813923 
Q 281.713188 189.813923 279.011853 189.430345 
Q 276.310518 189.046768 276.310518 188.390803 
Q 276.310518 187.727191 279.059454 187.346555 
Q 281.812356 186.965919 286.600186 186.965919 
Q 288.44471 186.965919 290.134532 187.01769 
Q 291.828321 187.068873 293.327741 187.170062 
L 293.327741 187.737781 
Q 291.780721 187.607764 290.249567 187.543639 
Q 288.718414 187.478925 287.179327 187.478925 
Q 284.331223 187.478925 282.788169 187.715425 
Q 281.245116 187.951337 281.245116 188.390803 
Q 281.245116 188.826152 282.732635 189.063829 
Q 284.220155 189.300917 286.957191 189.300917 
Q 287.702934 189.300917 288.341576 189.287386 
Q 288.980217 189.273267 289.487957 189.243851 
L 289.487957 188.710844 
L 286.572419 188.710844 
L 286.572419 188.236078 
L 294.010017 188.236078 
L 294.010017 189.556244 
z
" clip-path="url(#p5c1df4956a)" style="fill: #ffa600"/>
   </g>
   <g id="patch_45">
    <path d="M 288.570976 185.736129 
L 281.764033 185.736129 
L 280.689253 186.965919 
L 276.310518 186.965919 
L 282.563786 180.215096 
L 287.756749 180.215096 
L 294.010017 186.965919 
L 289.6349 186.965919 
L 288.570976 185.736129 
z
M 282.84967 184.48319 
L 287.474483 184.48319 
L 285.165695 181.797908 
L 282.84967 184.48319 
z
" clip-path="url(#p5c1df4956a)" style="fill: #008000"/>
   </g>
   <g id="patch_46">
    <path d="M 276.310518 169.983379 
L 294.010017 169.983379 
L 294.010017 171.978849 
L 287.642313 171.978849 
L 287.642313 180.215096 
L 282.69057 180.215096 
L 282.69057 171.978849 
L 276.310518 171.978849 
L 276.310518 169.983379 
z
" clip-path="url(#p5c1df4956a)" style="fill: #ff0000"/>
   </g>
   <g id="patch_47">
    <path d="M 312.641068 191.860327 
Q 310.856045 192.050163 308.936153 192.145515 
Q 307.016261 192.24 304.969434 192.24 
Q 300.34424 192.24 297.642905 191.674824 
Q 294.941569 191.109648 294.941569 190.143129 
Q 294.941569 189.16534 297.690505 188.604498 
Q 300.443408 188.043657 305.231238 188.043657 
Q 307.075762 188.043657 308.765584 188.119938 
Q 310.459373 188.195353 311.958793 188.344448 
L 311.958793 189.180943 
Q 310.411772 188.989373 308.880619 188.894888 
Q 307.349466 188.799536 305.810379 188.799536 
Q 302.962275 188.799536 301.419221 189.148003 
Q 299.876167 189.495604 299.876167 190.143129 
Q 299.876167 190.784586 301.363687 191.134787 
Q 302.851207 191.484121 305.588242 191.484121 
Q 306.333986 191.484121 306.972627 191.464184 
Q 307.611269 191.44338 308.119009 191.400038 
L 308.119009 190.614686 
L 305.203471 190.614686 
L 305.203471 189.915151 
L 312.641068 189.915151 
L 312.641068 191.860327 
z
" clip-path="url(#p5c1df4956a)" style="fill: #ffa600"/>
   </g>
   <g id="patch_48">
    <path d="M 312.641068 187.582443 
Q 311.160536 187.811056 309.559599 187.926692 
Q 307.958661 188.043657 306.215022 188.043657 
Q 301.01532 188.043657 297.978445 187.177054 
Q 294.941569 186.310451 294.941569 184.828454 
Q 294.941569 183.34114 297.978445 182.475866 
Q 301.01532 181.609264 306.215022 181.609264 
Q 307.958661 181.609264 309.559599 181.726228 
Q 311.160536 181.841864 312.641068 182.070477 
L 312.641068 183.353102 
Q 311.147158 183.050057 309.697841 182.909168 
Q 308.248525 182.768278 306.647587 182.768278 
Q 303.775711 182.768278 302.130179 183.317216 
Q 300.489107 183.864823 300.489107 184.828454 
Q 300.489107 185.788097 302.130179 186.337034 
Q 303.775711 186.884642 306.647587 186.884642 
Q 308.248525 186.884642 309.697841 186.743752 
Q 311.147158 186.601534 312.641068 186.298489 
L 312.641068 187.582443 
z
" clip-path="url(#p5c1df4956a)" style="fill: #0000ff"/>
   </g>
   <g id="patch_49">
    <path d="M 294.941569 173.77609 
L 312.641068 173.77609 
L 312.641068 175.303777 
L 306.273365 175.303777 
L 306.273365 181.609264 
L 301.321621 181.609264 
L 301.321621 175.303777 
L 294.941569 175.303777 
L 294.941569 173.77609 
z
" clip-path="url(#p5c1df4956a)" style="fill: #ff0000"/>
   </g>
   <g id="patch_50">
    <path d="M 307.202028 166.386472 
L 300.395085 166.386472 
L 299.320305 173.77609 
L 294.941569 173.77609 
L 301.194837 133.211438 
L 306.3878 133.211438 
L 312.641068 173.77609 
L 308.265952 173.77609 
L 307.202028 166.386472 
z
M 301.480722 158.857756 
L 306.105535 158.857756 
L 303.796747 142.72231 
L 301.480722 158.857756 
z
" clip-path="url(#p5c1df4956a)" style="fill: #008000"/>
   </g>
   <g id="patch_51">
    <path d="M 331.27212 192.143201 
Q 329.791588 192.191182 328.19065 192.215452 
Q 326.589713 192.24 324.846074 192.24 
Q 319.646372 192.24 316.609497 192.058118 
Q 313.572621 191.876237 313.572621 191.565197 
Q 313.572621 191.253041 316.609497 191.071439 
Q 319.646372 190.889557 324.846074 190.889557 
Q 326.589713 190.889557 328.19065 190.914106 
Q 329.791588 190.938375 331.27212 190.986356 
L 331.27212 191.255552 
Q 329.778209 191.191949 328.328893 191.16238 
Q 326.879576 191.13281 325.278639 191.13281 
Q 322.406763 191.13281 320.761231 191.24802 
Q 319.120159 191.362952 319.120159 191.565197 
Q 319.120159 191.766606 320.761231 191.881816 
Q 322.406763 191.996747 325.278639 191.996747 
Q 326.879576 191.996747 328.328893 191.967178 
Q 329.778209 191.937329 331.27212 191.873726 
L 331.27212 192.143201 
z
" clip-path="url(#p5c1df4956a)" style="fill: #0000ff"/>
   </g>
   <g id="patch_52">
    <path d="M 331.27212 190.640098 
Q 329.487097 190.764828 327.567205 190.827477 
Q 325.647313 190.889557 323.600486 190.889557 
Q 318.975292 190.889557 316.273957 190.518216 
Q 313.572621 190.146874 313.572621 189.511835 
Q 313.572621 188.869391 316.321557 188.500897 
Q 319.07446 188.132404 323.86229 188.132404 
Q 325.706814 188.132404 327.396636 188.182523 
Q 329.090425 188.232073 330.589845 188.330035 
L 330.589845 188.879643 
Q 329.042824 188.753774 327.511671 188.691694 
Q 325.980517 188.629044 324.44143 188.629044 
Q 321.593326 188.629044 320.050273 188.858 
Q 318.507219 189.086387 318.507219 189.511835 
Q 318.507219 189.933296 319.994739 190.163391 
Q 321.482258 190.392917 324.219294 190.392917 
Q 324.965037 190.392917 325.603679 190.379817 
Q 326.242321 190.366148 326.750061 190.337671 
L 326.750061 189.821666 
L 323.834523 189.821666 
L 323.834523 189.362045 
L 331.27212 189.362045 
L 331.27212 190.640098 
z
" clip-path="url(#p5c1df4956a)" style="fill: #ffa600"/>
   </g>
   <g id="patch_53">
    <path d="M 313.572621 185.150176 
L 331.27212 185.150176 
L 331.27212 185.731793 
L 324.904417 185.731793 
L 324.904417 188.132404 
L 319.952673 188.132404 
L 319.952673 185.731793 
L 313.572621 185.731793 
L 313.572621 185.150176 
z
" clip-path="url(#p5c1df4956a)" style="fill: #ff0000"/>
   </g>
   <g id="patch_54">
    <path d="M 325.83308 184.278895 
L 319.026137 184.278895 
L 317.951356 185.150176 
L 313.572621 185.150176 
L 319.825889 180.367358 
L 325.018852 180.367358 
L 331.27212 185.150176 
L 326.897004 185.150176 
L 325.83308 184.278895 
z
M 320.111774 183.391214 
L 324.736586 183.391214 
L 322.427799 181.488747 
L 320.111774 183.391214 
z
" clip-path="url(#p5c1df4956a)" style="fill: #008000"/>
   </g>
   <g id="patch_55">
    <path d="M 349.903172 192.126691 
Q 348.422639 192.182856 346.821702 192.211265 
Q 345.220765 192.24 343.477126 192.24 
Q 338.277424 192.24 335.240548 192.027097 
Q 332.203673 191.814194 332.203673 191.450103 
Q 332.203673 191.084707 335.240548 190.87213 
Q 338.277424 190.659227 343.477126 190.659227 
Q 345.220765 190.659227 346.821702 190.687962 
Q 348.422639 190.716371 349.903172 190.772536 
L 349.903172 191.087645 
Q 348.409261 191.013195 346.959945 190.978581 
Q 345.510628 190.943968 343.909691 190.943968 
Q 341.037814 190.943968 339.392283 191.078829 
Q 337.75121 191.213363 337.75121 191.450103 
Q 337.75121 191.685864 339.392283 191.820724 
Q 341.037814 191.955258 343.909691 191.955258 
Q 345.510628 191.955258 346.959945 191.920645 
Q 348.409261 191.885706 349.903172 191.811255 
L 349.903172 192.126691 
z
" clip-path="url(#p5c1df4956a)" style="fill: #0000ff"/>
   </g>
   <g id="patch_56">
    <path d="M 344.464131 190.174917 
L 337.657188 190.174917 
L 336.582408 190.659227 
L 332.203673 190.659227 
L 338.456941 188.000654 
L 343.649904 188.000654 
L 349.903172 190.659227 
L 345.528056 190.659227 
L 344.464131 190.174917 
z
M 338.742825 189.681492 
L 343.367638 189.681492 
L 341.058851 188.623988 
L 338.742825 189.681492 
z
" clip-path="url(#p5c1df4956a)" style="fill: #008000"/>
   </g>
   <g id="patch_57">
    <path d="M 349.903172 187.532575 
Q 348.118149 187.766614 346.198257 187.884168 
Q 344.278365 188.000654 342.231538 188.000654 
Q 337.606344 188.000654 334.905008 187.30388 
Q 332.203673 186.607106 332.203673 185.415537 
Q 332.203673 184.210075 334.952609 183.518644 
Q 337.705512 182.827214 342.493341 182.827214 
Q 344.337866 182.827214 346.027688 182.921257 
Q 347.721477 183.014231 349.220896 183.198043 
L 349.220896 184.229311 
Q 347.673876 183.993135 346.142723 183.876649 
Q 344.611569 183.759095 343.072482 183.759095 
Q 340.224378 183.759095 338.681325 184.188702 
Q 337.138271 184.617239 337.138271 185.415537 
Q 337.138271 186.206354 338.62579 186.638097 
Q 340.11331 187.068772 342.850346 187.068772 
Q 343.596089 187.068772 344.234731 187.044192 
Q 344.873373 187.018544 345.381113 186.965111 
L 345.381113 185.996894 
L 342.465574 185.996894 
L 342.465574 185.134476 
L 349.903172 185.134476 
L 349.903172 187.532575 
z
" clip-path="url(#p5c1df4956a)" style="fill: #ffa600"/>
   </g>
   <g id="patch_58">
    <path d="M 332.203673 177.078947 
L 349.903172 177.078947 
L 349.903172 178.200019 
L 343.535468 178.200019 
L 343.535468 182.827214 
L 338.583725 182.827214 
L 338.583725 178.200019 
L 332.203673 178.200019 
L 332.203673 177.078947 
z
" clip-path="url(#p5c1df4956a)" style="fill: #ff0000"/>
   </g>
   <g id="patch_59">
    <path d="M 368.534224 192.032194 
Q 367.053691 192.135199 365.452754 192.1873 
Q 363.851817 192.24 362.108177 192.24 
Q 356.908476 192.24 353.8716 191.84954 
Q 350.834725 191.45908 350.834725 190.791345 
Q 350.834725 190.121214 353.8716 189.731353 
Q 356.908476 189.340893 362.108177 189.340893 
Q 363.851817 189.340893 365.452754 189.393593 
Q 367.053691 189.445694 368.534224 189.548699 
L 368.534224 190.126604 
Q 367.040313 189.990063 365.590996 189.926583 
Q 364.14168 189.863103 362.540743 189.863103 
Q 359.668866 189.863103 358.023334 190.110435 
Q 356.382262 190.357167 356.382262 190.791345 
Q 356.382262 191.223726 358.023334 191.471057 
Q 359.668866 191.717789 362.540743 191.717789 
Q 364.14168 191.717789 365.590996 191.65431 
Q 367.040313 191.590231 368.534224 191.45369 
L 368.534224 192.032194 
z
" clip-path="url(#p5c1df4956a)" style="fill: #0000ff"/>
   </g>
   <g id="patch_60">
    <path d="M 350.834725 184.434712 
L 368.534224 184.434712 
L 368.534224 185.391554 
L 362.16652 185.391554 
L 362.16652 189.340893 
L 357.214777 189.340893 
L 357.214777 185.391554 
L 350.834725 185.391554 
L 350.834725 184.434712 
z
" clip-path="url(#p5c1df4956a)" style="fill: #ff0000"/>
   </g>
   <g id="patch_61">
    <path d="M 368.534224 183.486385 
Q 366.7492 183.960548 364.829308 184.198713 
Q 362.909416 184.434712 360.86259 184.434712 
Q 356.237396 184.434712 353.53606 183.023048 
Q 350.834725 181.611384 350.834725 179.197266 
Q 350.834725 176.755001 353.583661 175.354163 
Q 356.336563 173.953324 361.124393 173.953324 
Q 362.968917 173.953324 364.658739 174.143856 
Q 366.352528 174.332222 367.851948 174.704624 
L 367.851948 176.793973 
Q 366.304928 176.31548 364.773774 176.079481 
Q 363.242621 175.841316 361.703534 175.841316 
Q 358.85543 175.841316 357.312376 176.711698 
Q 355.769323 177.579915 355.769323 179.197266 
Q 355.769323 180.799461 357.256842 181.674173 
Q 358.744362 182.54672 361.481398 182.54672 
Q 362.227141 182.54672 362.865783 182.496922 
Q 363.504424 182.444958 364.012164 182.336702 
L 364.012164 180.375096 
L 361.096626 180.375096 
L 361.096626 178.627837 
L 368.534224 178.627837 
L 368.534224 183.486385 
z
" clip-path="url(#p5c1df4956a)" style="fill: #ffa600"/>
   </g>
   <g id="patch_62">
    <path d="M 363.095183 168.712679 
L 356.28824 168.712679 
L 355.21346 173.953324 
L 350.834725 173.953324 
L 357.087993 145.185261 
L 362.280956 145.185261 
L 368.534224 173.953324 
L 364.159107 173.953324 
L 363.095183 168.712679 
z
M 357.373877 163.373385 
L 361.99869 163.373385 
L 359.689902 151.930281 
L 357.373877 163.373385 
z
" clip-path="url(#p5c1df4956a)" style="fill: #008000"/>
   </g>
   <g id="patch_63">
    <path d="M 387.165275 192.169121 
Q 385.684743 192.204254 384.083806 192.222025 
Q 382.482868 192.24 380.739229 192.24 
Q 375.539527 192.24 372.502652 192.106822 
Q 369.465776 191.973643 369.465776 191.745892 
Q 369.465776 191.517324 372.502652 191.38435 
Q 375.539527 191.251172 380.739229 191.251172 
Q 382.482868 191.251172 384.083806 191.269147 
Q 385.684743 191.286917 387.165275 191.32205 
L 387.165275 191.519162 
Q 385.671365 191.472591 384.222048 191.450939 
Q 382.772732 191.429287 381.171794 191.429287 
Q 378.299918 191.429287 376.654386 191.513647 
Q 375.013314 191.597803 375.013314 191.745892 
Q 375.013314 191.893369 376.654386 191.977729 
Q 378.299918 192.061884 381.171794 192.061884 
Q 382.772732 192.061884 384.222048 192.040233 
Q 385.671365 192.018377 387.165275 191.971805 
L 387.165275 192.169121 
z
" clip-path="url(#p5c1df4956a)" style="fill: #0000ff"/>
   </g>
   <g id="patch_64">
    <path d="M 369.465776 186.63664 
L 387.165275 186.63664 
L 387.165275 187.536602 
L 380.797572 187.536602 
L 380.797572 191.251172 
L 375.845828 191.251172 
L 375.845828 187.536602 
L 369.465776 187.536602 
L 369.465776 186.63664 
z
" clip-path="url(#p5c1df4956a)" style="fill: #ff0000"/>
   </g>
   <g id="patch_65">
    <path d="M 387.165275 184.906957 
Q 385.380252 185.771798 383.46036 186.206194 
Q 381.540468 186.63664 379.493641 186.63664 
Q 374.868447 186.63664 372.167112 184.06186 
Q 369.465776 181.48708 369.465776 177.083891 
Q 369.465776 172.629364 372.214712 170.074329 
Q 374.967615 167.519294 379.755445 167.519294 
Q 381.599969 167.519294 383.289791 167.866811 
Q 384.98358 168.210378 386.483 168.889614 
L 386.483 172.700446 
Q 384.93598 171.827707 383.404826 171.39726 
Q 381.873673 170.962865 380.334586 170.962865 
Q 377.486482 170.962865 375.943428 172.550383 
Q 374.400374 174.133951 374.400374 177.083891 
Q 374.400374 180.006187 375.887894 181.601603 
Q 377.375414 183.193069 380.112449 183.193069 
Q 380.858193 183.193069 381.496834 183.102241 
Q 382.135476 183.007464 382.643216 182.810012 
L 382.643216 179.232173 
L 379.727678 179.232173 
L 379.727678 176.045291 
L 387.165275 176.045291 
L 387.165275 184.906957 
z
" clip-path="url(#p5c1df4956a)" style="fill: #ffa600"/>
   </g>
   <g id="patch_66">
    <path d="M 381.726235 159.353232 
L 374.919292 159.353232 
L 373.844512 167.519294 
L 369.465776 167.519294 
L 375.719044 122.692415 
L 380.912007 122.692415 
L 387.165275 167.519294 
L 382.790159 167.519294 
L 381.726235 159.353232 
z
M 376.004929 151.033455 
L 380.629742 151.033455 
L 378.320954 133.202618 
L 376.004929 151.033455 
z
" clip-path="url(#p5c1df4956a)" style="fill: #008000"/>
   </g>
   <g id="patch_67">
    <path d="M 405.796327 191.969195 
Q 404.011304 192.104598 402.091412 192.172608 
Q 400.17152 192.24 398.124693 192.24 
Q 393.499499 192.24 390.798164 191.836884 
Q 388.096828 191.433768 388.096828 190.744391 
Q 388.096828 190.046975 390.845764 189.646951 
Q 393.598667 189.246926 398.386497 189.246926 
Q 400.231021 189.246926 401.920843 189.301334 
Q 403.614632 189.355124 405.114052 189.461468 
L 405.114052 190.058104 
Q 403.567031 189.921465 402.035878 189.854073 
Q 400.504724 189.786063 398.965637 189.786063 
Q 396.117533 189.786063 394.57448 190.03461 
Q 393.031426 190.282538 393.031426 190.744391 
Q 393.031426 191.201915 394.518946 191.451698 
Q 396.006465 191.700863 398.743501 191.700863 
Q 399.489244 191.700863 400.127886 191.686643 
Q 400.766528 191.671804 401.274268 191.640891 
L 401.274268 191.080733 
L 398.35873 191.080733 
L 398.35873 190.581784 
L 405.796327 190.581784 
L 405.796327 191.969195 
z
" clip-path="url(#p5c1df4956a)" style="fill: #ffa600"/>
   </g>
   <g id="patch_68">
    <path d="M 400.357287 188.047387 
L 393.550344 188.047387 
L 392.475563 189.246926 
L 388.096828 189.246926 
L 394.350096 182.662164 
L 399.543059 182.662164 
L 405.796327 189.246926 
L 401.421211 189.246926 
L 400.357287 188.047387 
z
M 394.635981 186.825269 
L 399.260793 186.825269 
L 396.952006 184.206041 
L 394.635981 186.825269 
z
" clip-path="url(#p5c1df4956a)" style="fill: #008000"/>
   </g>
   <g id="patch_69">
    <path d="M 405.796327 181.954176 
Q 404.315795 182.305109 402.714857 182.482616 
Q 401.11392 182.662164 399.370281 182.662164 
Q 394.170579 182.662164 391.133704 181.331881 
Q 388.096828 180.001599 388.096828 177.726652 
Q 388.096828 175.443545 391.133704 174.115303 
Q 394.170579 172.78502 399.370281 172.78502 
Q 401.11392 172.78502 402.714857 172.964568 
Q 404.315795 173.142075 405.796327 173.493008 
L 405.796327 175.461908 
Q 404.302416 174.996717 402.8531 174.780444 
Q 401.403783 174.564171 399.802846 174.564171 
Q 396.93097 174.564171 395.285438 175.406819 
Q 393.644366 176.247427 393.644366 177.726652 
Q 393.644366 179.199757 395.285438 180.042405 
Q 396.93097 180.883013 399.802846 180.883013 
Q 401.403783 180.883013 402.8531 180.66674 
Q 404.302416 180.448427 405.796327 179.983236 
L 405.796327 181.954176 
z
" clip-path="url(#p5c1df4956a)" style="fill: #0000ff"/>
   </g>
   <g id="patch_70">
    <path d="M 388.096828 129.086142 
L 405.796327 129.086142 
L 405.796327 137.608641 
L 399.428624 137.608641 
L 399.428624 172.78502 
L 394.47688 172.78502 
L 394.47688 137.608641 
L 388.096828 137.608641 
L 388.096828 129.086142 
z
" clip-path="url(#p5c1df4956a)" style="fill: #ff0000"/>
   </g>
   <g id="patch_71">
    <path d="M 418.988338 192.052228 
L 412.181395 192.052228 
L 411.106615 192.24 
L 406.72788 192.24 
L 412.981148 191.209241 
L 418.174111 191.209241 
L 424.427379 192.24 
L 420.052263 192.24 
L 418.988338 192.052228 
z
M 413.267032 191.860921 
L 417.891845 191.860921 
L 415.583058 191.450915 
L 413.267032 191.860921 
z
" clip-path="url(#p5c1df4956a)" style="fill: #008000"/>
   </g>
   <g id="patch_72">
    <path d="M 424.427379 191.064314 
Q 422.946846 191.136151 421.345909 191.172487 
Q 419.744972 191.209241 418.001333 191.209241 
Q 412.801631 191.209241 409.764755 190.936929 
Q 406.72788 190.664617 406.72788 190.19893 
Q 406.72788 189.731573 409.764755 189.459679 
Q 412.801631 189.187367 418.001333 189.187367 
Q 419.744972 189.187367 421.345909 189.224121 
Q 422.946846 189.260457 424.427379 189.332294 
L 424.427379 189.735332 
Q 422.933468 189.640106 421.484152 189.595835 
Q 420.034835 189.551563 418.433898 189.551563 
Q 415.562021 189.551563 413.91649 189.724055 
Q 412.275417 189.89613 412.275417 190.19893 
Q 412.275417 190.500478 413.91649 190.67297 
Q 415.562021 190.845045 418.433898 190.845045 
Q 420.034835 190.845045 421.484152 190.800773 
Q 422.933468 190.756084 424.427379 190.660858 
L 424.427379 191.064314 
z
" clip-path="url(#p5c1df4956a)" style="fill: #0000ff"/>
   </g>
   <g id="patch_73">
    <path d="M 424.427379 188.975738 
Q 422.642356 189.081553 420.722464 189.134701 
Q 418.802572 189.187367 416.755745 189.187367 
Q 412.130551 189.187367 409.429215 188.87234 
Q 406.72788 188.557312 406.72788 188.018577 
Q 406.72788 187.47356 409.476816 187.160948 
Q 412.229719 186.848337 417.017548 186.848337 
Q 418.862073 186.848337 420.551895 186.890856 
Q 422.245684 186.932892 423.745103 187.015997 
L 423.745103 187.482257 
Q 422.198083 187.375476 420.66693 187.322811 
Q 419.135776 187.269662 417.596689 187.269662 
Q 414.748585 187.269662 413.205532 187.463896 
Q 411.662478 187.657648 411.662478 188.018577 
Q 411.662478 188.376123 413.149997 188.571324 
Q 414.637517 188.766042 417.374553 188.766042 
Q 418.120296 188.766042 418.758938 188.754929 
Q 419.39758 188.743333 419.90532 188.719175 
L 419.90532 188.281422 
L 416.989781 188.281422 
L 416.989781 187.891503 
L 424.427379 187.891503 
L 424.427379 188.975738 
z
" clip-path="url(#p5c1df4956a)" style="fill: #ffa600"/>
   </g>
   <g id="patch_74">
    <path d="M 406.72788 183.874993 
L 424.427379 183.874993 
L 424.427379 184.454878 
L 418.059675 184.454878 
L 418.059675 186.848337 
L 413.107932 186.848337 
L 413.107932 184.454878 
L 406.72788 184.454878 
L 406.72788 183.874993 
z
" clip-path="url(#p5c1df4956a)" style="fill: #ff0000"/>
   </g>
   <g id="patch_75">
    <path d="M 425.358932 191.478017 
L 443.058431 191.478017 
L 443.058431 191.626625 
L 436.690727 191.626625 
L 436.690727 192.24 
L 431.738984 192.24 
L 431.738984 191.626625 
L 425.358932 191.626625 
L 425.358932 191.478017 
z
" clip-path="url(#p5c1df4956a)" style="fill: #ff0000"/>
   </g>
   <g id="patch_76">
    <path d="M 443.058431 191.368781 
Q 441.577898 191.422927 439.976961 191.450315 
Q 438.376024 191.478017 436.632384 191.478017 
Q 431.432683 191.478017 428.395807 191.272765 
Q 425.358932 191.067513 425.358932 190.716507 
Q 425.358932 190.364242 428.395807 190.159304 
Q 431.432683 189.954052 436.632384 189.954052 
Q 438.376024 189.954052 439.976961 189.981755 
Q 441.577898 190.009143 443.058431 190.063289 
L 443.058431 190.367075 
Q 441.56452 190.2953 440.115203 190.26193 
Q 438.665887 190.228561 437.06495 190.228561 
Q 434.193073 190.228561 432.547541 190.358575 
Q 430.906469 190.488274 430.906469 190.716507 
Q 430.906469 190.943795 432.547541 191.073809 
Q 434.193073 191.203509 437.06495 191.203509 
Q 438.665887 191.203509 440.115203 191.170139 
Q 441.56452 191.136455 443.058431 191.06468 
L 443.058431 191.368781 
z
" clip-path="url(#p5c1df4956a)" style="fill: #0000ff"/>
   </g>
   <g id="patch_77">
    <path d="M 443.058431 189.5404 
Q 441.273407 189.747226 439.353515 189.851111 
Q 437.433623 189.954052 435.386797 189.954052 
Q 430.761603 189.954052 428.060267 189.338296 
Q 425.358932 188.72254 425.358932 187.669521 
Q 425.358932 186.604225 428.107868 185.993191 
Q 430.86077 185.382157 435.6486 185.382157 
Q 437.493124 185.382157 439.182946 185.465265 
Q 440.876735 185.547429 442.376155 185.709868 
L 442.376155 186.621224 
Q 440.829135 186.41251 439.297981 186.309569 
Q 437.766828 186.205683 436.227741 186.205683 
Q 433.379637 186.205683 431.836583 186.585337 
Q 430.29353 186.964046 430.29353 187.669521 
Q 430.29353 188.368386 431.781049 188.749928 
Q 433.268569 189.130526 436.005605 189.130526 
Q 436.751348 189.130526 437.38999 189.108804 
Q 438.028631 189.086138 438.536371 189.038918 
L 438.536371 188.183281 
L 435.620833 188.183281 
L 435.620833 187.421141 
L 443.058431 187.421141 
L 443.058431 189.5404 
z
" clip-path="url(#p5c1df4956a)" style="fill: #ffa600"/>
   </g>
   <g id="patch_78">
    <path d="M 437.61939 157.342635 
L 430.812447 157.342635 
L 429.737667 185.382157 
L 425.358932 185.382157 
L 431.6122 31.461675 
L 436.805163 31.461675 
L 443.058431 185.382157 
L 438.683314 185.382157 
L 437.61939 157.342635 
z
M 431.898084 128.77531 
L 436.522897 128.77531 
L 434.214109 67.550189 
L 431.898084 128.77531 
z
" clip-path="url(#p5c1df4956a)" style="fill: #008000"/>
   </g>
   <g id="patch_79">
    <path d="M 443.989983 191.451754 
L 461.689482 191.451754 
L 461.689482 191.605484 
L 455.321779 191.605484 
L 455.321779 192.24 
L 450.370035 192.24 
L 450.370035 191.605484 
L 443.989983 191.605484 
L 443.989983 191.451754 
z
" clip-path="url(#p5c1df4956a)" style="fill: #ff0000"/>
   </g>
   <g id="patch_80">
    <path d="M 461.689482 191.380435 
Q 459.904459 191.416094 457.984567 191.434005 
Q 456.064675 191.451754 454.017848 191.451754 
Q 449.392654 191.451754 446.691319 191.34559 
Q 443.989983 191.239427 443.989983 191.057875 
Q 443.989983 190.874205 446.738919 190.768856 
Q 449.491822 190.663507 454.279652 190.663507 
Q 456.124176 190.663507 457.813998 190.677836 
Q 459.507787 190.692002 461.007207 190.720008 
L 461.007207 190.877136 
Q 459.460187 190.841152 457.929033 190.823403 
Q 456.39788 190.805492 454.858793 190.805492 
Q 452.010689 190.805492 450.467635 190.870949 
Q 448.924581 190.936243 448.924581 191.057875 
Q 448.924581 191.178367 450.412101 191.244149 
Q 451.899621 191.309768 454.636656 191.309768 
Q 455.3824 191.309768 456.021041 191.306023 
Q 456.659683 191.302115 457.167423 191.293974 
L 457.167423 191.146453 
L 454.251885 191.146453 
L 454.251885 191.015051 
L 461.689482 191.015051 
L 461.689482 191.380435 
z
" clip-path="url(#p5c1df4956a)" style="fill: #ffa600"/>
   </g>
   <g id="patch_81">
    <path d="M 461.689482 190.381002 
Q 460.20895 190.521033 458.608013 190.591863 
Q 457.007075 190.663507 455.263436 190.663507 
Q 450.063734 190.663507 447.026859 190.13269 
Q 443.989983 189.601874 443.989983 188.694112 
Q 443.989983 187.783094 447.026859 187.253092 
Q 450.063734 186.722275 455.263436 186.722275 
Q 457.007075 186.722275 458.608013 186.793919 
Q 460.20895 186.864749 461.689482 187.00478 
L 461.689482 187.790421 
Q 460.195572 187.604798 458.746255 187.5185 
Q 457.296939 187.432201 455.696001 187.432201 
Q 452.824125 187.432201 451.178593 187.76844 
Q 449.537521 188.103864 449.537521 188.694112 
Q 449.537521 189.281918 451.178593 189.618157 
Q 452.824125 189.953581 455.696001 189.953581 
Q 457.296939 189.953581 458.746255 189.867282 
Q 460.195572 189.78017 461.689482 189.594547 
L 461.689482 190.381002 
z
" clip-path="url(#p5c1df4956a)" style="fill: #0000ff"/>
   </g>
   <g id="patch_82">
    <path d="M 456.250442 157.429104 
L 449.443499 157.429104 
L 448.368719 186.722275 
L 443.989983 186.722275 
L 450.243251 25.92 
L 455.436214 25.92 
L 461.689482 186.722275 
L 457.314366 186.722275 
L 456.250442 157.429104 
z
M 450.529136 127.584533 
L 455.153949 127.584533 
L 452.845161 63.622034 
L 450.529136 127.584533 
z
" clip-path="url(#p5c1df4956a)" style="fill: #008000"/>
   </g>
   <g id="patch_83">
    <path d="M 462.621035 187.907304 
L 480.320534 187.907304 
L 480.320534 188.7523 
L 473.952831 188.7523 
L 473.952831 192.24 
L 469.001087 192.24 
L 469.001087 188.7523 
L 462.621035 188.7523 
L 462.621035 187.907304 
z
" clip-path="url(#p5c1df4956a)" style="fill: #ff0000"/>
   </g>
   <g id="patch_84">
    <path d="M 480.320534 187.449959 
Q 478.535511 187.678631 476.615619 187.79349 
Q 474.695727 187.907304 472.6489 187.907304 
Q 468.023706 187.907304 465.322371 187.226507 
Q 462.621035 186.54571 462.621035 185.381464 
Q 462.621035 184.203644 465.369971 183.528068 
Q 468.122874 182.852492 472.910704 182.852492 
Q 474.755228 182.852492 476.44505 182.944378 
Q 478.138839 183.035221 479.638259 183.214817 
L 479.638259 184.222439 
Q 478.091238 183.991678 476.560085 183.877864 
Q 475.028931 183.763005 473.489844 183.763005 
Q 470.64174 183.763005 469.098687 184.18276 
Q 467.555633 184.601471 467.555633 185.381464 
Q 467.555633 186.154147 469.043153 186.575991 
Q 470.530672 186.99679 473.267708 186.99679 
Q 474.013451 186.99679 474.652093 186.972774 
Q 475.290735 186.947714 475.798475 186.895506 
L 475.798475 185.949491 
L 472.882937 185.949491 
L 472.882937 185.106848 
L 480.320534 185.106848 
L 480.320534 187.449959 
z
" clip-path="url(#p5c1df4956a)" style="fill: #ffa600"/>
   </g>
   <g id="patch_85">
    <path d="M 474.881494 156.806172 
L 468.074551 156.806172 
L 466.99977 182.852492 
L 462.621035 182.852492 
L 468.874303 39.873517 
L 474.067266 39.873517 
L 480.320534 182.852492 
L 475.945418 182.852492 
L 474.881494 156.806172 
z
M 469.160188 130.269568 
L 473.785 130.269568 
L 471.476213 73.396663 
L 469.160188 130.269568 
z
" clip-path="url(#p5c1df4956a)" style="fill: #008000"/>
   </g>
   <g id="patch_86">
    <path d="M 498.951586 191.875691 
Q 497.166563 192.057845 495.246671 192.149339 
Q 493.326779 192.24 491.279952 192.24 
Q 486.654758 192.24 483.953422 191.697695 
Q 481.252087 191.155389 481.252087 190.227981 
Q 481.252087 189.289759 484.001023 188.751612 
Q 486.753926 188.213466 491.541755 188.213466 
Q 493.38628 188.213466 495.076102 188.28666 
Q 496.769891 188.359023 498.26931 188.502085 
L 498.26931 189.304731 
Q 496.72229 189.120912 495.191137 189.030251 
Q 493.659983 188.938758 492.120896 188.938758 
Q 489.272792 188.938758 487.729739 189.273124 
Q 486.186685 189.606658 486.186685 190.227981 
Q 486.186685 190.84348 487.674205 191.17951 
Q 489.161724 191.514708 491.89876 191.514708 
Q 492.644503 191.514708 493.283145 191.495578 
Q 493.921787 191.475616 494.429527 191.434028 
L 494.429527 190.680456 
L 491.513988 190.680456 
L 491.513988 190.009229 
L 498.951586 190.009229 
L 498.951586 191.875691 
z
" clip-path="url(#p5c1df4956a)" style="fill: #ffa600"/>
   </g>
   <g id="patch_87">
    <path d="M 498.951586 187.852691 
Q 497.471053 188.031519 495.870116 188.121973 
Q 494.269179 188.213466 492.52554 188.213466 
Q 487.325838 188.213466 484.288962 187.535584 
Q 481.252087 186.857702 481.252087 185.698441 
Q 481.252087 184.535022 484.288962 183.85818 
Q 487.325838 183.180298 492.52554 183.180298 
Q 494.269179 183.180298 495.870116 183.271791 
Q 497.471053 183.362245 498.951586 183.541073 
L 498.951586 184.544379 
Q 497.457675 184.307328 496.008359 184.197121 
Q 494.559042 184.086913 492.958105 184.086913 
Q 490.086228 184.086913 488.440697 184.516307 
Q 486.799624 184.944662 486.799624 185.698441 
Q 486.799624 186.449102 488.440697 186.878496 
Q 490.086228 187.306851 492.958105 187.306851 
Q 494.559042 187.306851 496.008359 187.196643 
Q 497.457675 187.085396 498.951586 186.848345 
L 498.951586 187.852691 
z
" clip-path="url(#p5c1df4956a)" style="fill: #0000ff"/>
   </g>
   <g id="patch_88">
    <path d="M 481.252087 175.932536 
L 498.951586 175.932536 
L 498.951586 177.346052 
L 492.583882 177.346052 
L 492.583882 183.180298 
L 487.632139 183.180298 
L 487.632139 177.346052 
L 481.252087 177.346052 
L 481.252087 175.932536 
z
" clip-path="url(#p5c1df4956a)" style="fill: #ff0000"/>
   </g>
   <g id="patch_89">
    <path d="M 493.512545 171.164726 
L 486.705603 171.164726 
L 485.630822 175.932536 
L 481.252087 175.932536 
L 487.505355 149.760064 
L 492.698318 149.760064 
L 498.951586 175.932536 
L 494.57647 175.932536 
L 493.512545 171.164726 
z
M 487.791239 166.307169 
L 492.416052 166.307169 
L 490.107265 155.896516 
L 487.791239 166.307169 
z
" clip-path="url(#p5c1df4956a)" style="fill: #008000"/>
   </g>
   <g id="patch_90">
    <path d="M 517.582638 192.052306 
Q 516.102105 192.145342 514.501168 192.1924 
Q 512.900231 192.24 511.156591 192.24 
Q 505.95689 192.24 502.920014 191.88733 
Q 499.883139 191.534659 499.883139 190.93155 
Q 499.883139 190.326277 502.920014 189.974148 
Q 505.95689 189.621477 511.156591 189.621477 
Q 512.900231 189.621477 514.501168 189.669077 
Q 516.102105 189.716136 517.582638 189.809172 
L 517.582638 190.331145 
Q 516.088727 190.207819 514.63941 190.150483 
Q 513.190094 190.093147 511.589157 190.093147 
Q 508.71728 190.093147 507.071748 190.316541 
Q 505.430676 190.539394 505.430676 190.93155 
Q 505.430676 191.322084 507.071748 191.545478 
Q 508.71728 191.768331 511.589157 191.768331 
Q 513.190094 191.768331 514.63941 191.710995 
Q 516.088727 191.653118 517.582638 191.529791 
L 517.582638 192.052306 
z
" clip-path="url(#p5c1df4956a)" style="fill: #0000ff"/>
   </g>
   <g id="patch_91">
    <path d="M 517.582638 189.266103 
Q 515.797614 189.44379 513.877722 189.533039 
Q 511.957831 189.621477 509.911004 189.621477 
Q 505.28581 189.621477 502.584474 189.092472 
Q 499.883139 188.563467 499.883139 187.658803 
Q 499.883139 186.743591 502.632075 186.218642 
Q 505.384978 185.693694 510.172807 185.693694 
Q 512.017331 185.693694 513.707153 185.765093 
Q 515.400942 185.835681 516.900362 185.975235 
L 516.900362 186.758195 
Q 515.353342 186.578885 513.822188 186.490447 
Q 512.291035 186.401198 510.751948 186.401198 
Q 507.903844 186.401198 506.36079 186.727364 
Q 504.817737 187.052718 504.817737 187.658803 
Q 504.817737 188.259207 506.305256 188.586996 
Q 507.792776 188.913973 510.529812 188.913973 
Q 511.275555 188.913973 511.914197 188.895312 
Q 512.552838 188.87584 513.060578 188.835272 
L 513.060578 188.100181 
L 510.14504 188.100181 
L 510.14504 187.445415 
L 517.582638 187.445415 
L 517.582638 189.266103 
z
" clip-path="url(#p5c1df4956a)" style="fill: #ffa600"/>
   </g>
   <g id="patch_92">
    <path d="M 512.143597 183.022419 
L 505.336654 183.022419 
L 504.261874 185.693694 
L 499.883139 185.693694 
L 506.136407 171.029967 
L 511.32937 171.029967 
L 517.582638 185.693694 
L 513.207521 185.693694 
L 512.143597 183.022419 
z
M 506.422291 180.300862 
L 511.047104 180.300862 
L 508.738316 174.468055 
L 506.422291 180.300862 
z
" clip-path="url(#p5c1df4956a)" style="fill: #008000"/>
   </g>
   <g id="patch_93">
    <path d="M 499.883139 136.989175 
L 517.582638 136.989175 
L 517.582638 143.628078 
L 511.214934 143.628078 
L 511.214934 171.029967 
L 506.263191 171.029967 
L 506.263191 143.628078 
L 499.883139 143.628078 
L 499.883139 136.989175 
z
" clip-path="url(#p5c1df4956a)" style="fill: #ff0000"/>
   </g>
   <g id="patch_94">
    <path d="M 536.213689 192.06085 
Q 534.733157 192.149651 533.13222 192.194567 
Q 531.531282 192.24 529.787643 192.24 
Q 524.587941 192.24 521.551066 191.903385 
Q 518.51419 191.566769 518.51419 190.991116 
Q 518.51419 190.413397 521.551066 190.077298 
Q 524.587941 189.740683 529.787643 189.740683 
Q 531.531282 189.740683 533.13222 189.786116 
Q 534.733157 189.831032 536.213689 189.919833 
L 536.213689 190.418044 
Q 534.719779 190.300332 533.270462 190.245606 
Q 531.821146 190.19088 530.220208 190.19088 
Q 527.348332 190.19088 525.7028 190.404104 
Q 524.061728 190.616812 524.061728 190.991116 
Q 524.061728 191.363871 525.7028 191.577095 
Q 527.348332 191.789803 530.220208 191.789803 
Q 531.821146 191.789803 533.270462 191.735077 
Q 534.719779 191.679835 536.213689 191.562123 
L 536.213689 192.06085 
z
" clip-path="url(#p5c1df4956a)" style="fill: #0000ff"/>
   </g>
   <g id="patch_95">
    <path d="M 518.51419 186.348753 
L 536.213689 186.348753 
L 536.213689 187.010274 
L 529.845986 187.010274 
L 529.845986 189.740683 
L 524.894242 189.740683 
L 524.894242 187.010274 
L 518.51419 187.010274 
L 518.51419 186.348753 
z
" clip-path="url(#p5c1df4956a)" style="fill: #ff0000"/>
   </g>
   <g id="patch_96">
    <path d="M 536.213689 185.169641 
Q 534.428666 185.759197 532.508774 186.055321 
Q 530.588882 186.348753 528.542055 186.348753 
Q 523.916861 186.348753 521.215526 184.593545 
Q 518.51419 182.838337 518.51419 179.836715 
Q 518.51419 176.800097 521.263126 175.058349 
Q 524.016029 173.316601 528.803859 173.316601 
Q 530.648383 173.316601 532.338205 173.5535 
Q 534.031994 173.787708 535.531414 174.250738 
L 535.531414 176.848554 
Q 533.984394 176.253614 532.45324 175.960182 
Q 530.922087 175.664057 529.383 175.664057 
Q 526.534896 175.664057 524.991842 176.746256 
Q 523.448788 177.825763 523.448788 179.836715 
Q 523.448788 181.828823 524.936308 182.916406 
Q 526.423828 184.001297 529.160864 184.001297 
Q 529.906607 184.001297 530.545248 183.93938 
Q 531.18389 183.874771 531.69163 183.740169 
L 531.69163 181.301183 
L 528.776092 181.301183 
L 528.776092 179.128709 
L 536.213689 179.128709 
L 536.213689 185.169641 
z
" clip-path="url(#p5c1df4956a)" style="fill: #ffa600"/>
   </g>
   <g id="patch_97">
    <path d="M 530.774649 169.901868 
L 523.967706 169.901868 
L 522.892926 173.316601 
L 518.51419 173.316601 
L 524.767458 154.571725 
L 529.960421 154.571725 
L 536.213689 173.316601 
L 531.838573 173.316601 
L 530.774649 169.901868 
z
M 525.053343 166.422857 
L 529.678156 166.422857 
L 527.369368 158.966687 
L 525.053343 166.422857 
z
" clip-path="url(#p5c1df4956a)" style="fill: #008000"/>
   </g>
   <g id="patch_98">
    <path d="M 554.844741 191.969136 
Q 553.059718 192.104568 551.139826 192.172593 
Q 549.219934 192.24 547.173107 192.24 
Q 542.547913 192.24 539.846578 191.836796 
Q 537.145242 191.433592 537.145242 190.744064 
Q 537.145242 190.046497 539.894178 189.646385 
Q 542.647081 189.246274 547.434911 189.246274 
Q 549.279435 189.246274 550.969257 189.300694 
Q 552.663046 189.354495 554.162466 189.460862 
L 554.162466 190.057628 
Q 552.615445 189.92096 551.084292 189.853553 
Q 549.553138 189.785528 548.014052 189.785528 
Q 545.165947 189.785528 543.622894 190.034129 
Q 542.07984 190.282112 542.07984 190.744064 
Q 542.07984 191.201688 543.56736 191.451526 
Q 545.054879 191.700746 547.791915 191.700746 
Q 548.537658 191.700746 549.1763 191.686522 
Q 549.814942 191.671681 550.322682 191.64076 
L 550.322682 191.08048 
L 547.407144 191.08048 
L 547.407144 190.581422 
L 554.844741 190.581422 
L 554.844741 191.969136 
z
" clip-path="url(#p5c1df4956a)" style="fill: #ffa600"/>
   </g>
   <g id="patch_99">
    <path d="M 554.844741 188.875621 
Q 553.364209 189.059345 551.763271 189.152275 
Q 550.162334 189.246274 548.418695 189.246274 
Q 543.218993 189.246274 540.182118 188.549831 
Q 537.145242 187.853388 537.145242 186.662385 
Q 537.145242 185.467109 540.182118 184.771735 
Q 543.218993 184.075292 548.418695 184.075292 
Q 550.162334 184.075292 551.763271 184.16929 
Q 553.364209 184.26222 554.844741 184.445945 
L 554.844741 185.476723 
Q 553.35083 185.233181 551.901514 185.119956 
Q 550.452197 185.006731 548.85126 185.006731 
Q 545.979384 185.006731 544.333852 185.447882 
Q 542.69278 185.887966 542.69278 186.662385 
Q 542.69278 187.433599 544.333852 187.874751 
Q 545.979384 188.314835 548.85126 188.314835 
Q 550.452197 188.314835 551.901514 188.201609 
Q 553.35083 188.087316 554.844741 187.843774 
L 554.844741 188.875621 
z
" clip-path="url(#p5c1df4956a)" style="fill: #0000ff"/>
   </g>
   <g id="patch_100">
    <path d="M 549.405701 181.992994 
L 542.598758 181.992994 
L 541.523977 184.075292 
L 537.145242 184.075292 
L 543.39851 172.6447 
L 548.591473 172.6447 
L 554.844741 184.075292 
L 550.469625 184.075292 
L 549.405701 181.992994 
z
M 543.684395 179.871499 
L 548.309208 179.871499 
L 546.00042 175.32474 
L 543.684395 179.871499 
z
" clip-path="url(#p5c1df4956a)" style="fill: #008000"/>
   </g>
   <g id="patch_101">
    <path d="M 537.145242 134.814884 
L 554.844741 134.814884 
L 554.844741 142.192752 
L 548.477038 142.192752 
L 548.477038 172.6447 
L 543.525294 172.6447 
L 543.525294 142.192752 
L 537.145242 142.192752 
L 537.145242 134.814884 
z
" clip-path="url(#p5c1df4956a)" style="fill: #ff0000"/>
   </g>
   <g id="patch_102">
    <path d="M 573.475793 192.140232 
Q 571.69077 192.190116 569.770878 192.215172 
Q 567.850986 192.24 565.804159 192.24 
Q 561.178965 192.24 558.477629 192.091487 
Q 555.776294 191.942975 555.776294 191.689 
Q 555.776294 191.432064 558.52523 191.284691 
Q 561.278133 191.137317 566.065962 191.137317 
Q 567.910487 191.137317 569.600309 191.157362 
Q 571.294098 191.177178 572.793517 191.216357 
L 572.793517 191.436164 
Q 571.246497 191.385825 569.715344 191.360997 
Q 568.18419 191.335941 566.645103 191.335941 
Q 563.796999 191.335941 562.253946 191.427509 
Q 560.710892 191.518848 560.710892 191.689 
Q 560.710892 191.857557 562.198412 191.94958 
Q 563.685931 192.041376 566.422967 192.041376 
Q 567.16871 192.041376 567.807352 192.036137 
Q 568.445994 192.03067 568.953734 192.019281 
L 568.953734 191.812912 
L 566.038195 191.812912 
L 566.038195 191.629094 
L 573.475793 191.629094 
L 573.475793 192.140232 
z
" clip-path="url(#p5c1df4956a)" style="fill: #ffa600"/>
   </g>
   <g id="patch_103">
    <path d="M 568.036752 190.903868 
L 561.22981 190.903868 
L 560.155029 191.137317 
L 555.776294 191.137317 
L 562.029562 189.85582 
L 567.222525 189.85582 
L 573.475793 191.137317 
L 569.100677 191.137317 
L 568.036752 190.903868 
z
M 562.315446 190.666025 
L 566.940259 190.666025 
L 564.631472 190.156283 
L 562.315446 190.666025 
z
" clip-path="url(#p5c1df4956a)" style="fill: #008000"/>
   </g>
   <g id="patch_104">
    <path d="M 573.475793 189.746874 
Q 571.99526 189.800876 570.394323 189.828191 
Q 568.793386 189.85582 567.049747 189.85582 
Q 561.850045 189.85582 558.813169 189.651114 
Q 555.776294 189.446407 555.776294 189.096334 
Q 555.776294 188.745005 558.813169 188.540612 
Q 561.850045 188.335906 567.049747 188.335906 
Q 568.793386 188.335906 570.394323 188.363535 
Q 571.99526 188.39085 573.475793 188.444852 
L 573.475793 188.747831 
Q 571.981882 188.676246 570.532566 188.642966 
Q 569.083249 188.609685 567.482312 188.609685 
Q 564.610435 188.609685 562.964904 188.739353 
Q 561.323831 188.868708 561.323831 189.096334 
Q 561.323831 189.323018 562.964904 189.452687 
Q 564.610435 189.582041 567.482312 189.582041 
Q 569.083249 189.582041 570.532566 189.548761 
Q 571.981882 189.515166 573.475793 189.443582 
L 573.475793 189.746874 
z
" clip-path="url(#p5c1df4956a)" style="fill: #0000ff"/>
   </g>
   <g id="patch_105">
    <path d="M 555.776294 185.951726 
L 573.475793 185.951726 
L 573.475793 186.416708 
L 567.108089 186.416708 
L 567.108089 188.335906 
L 562.156346 188.335906 
L 562.156346 186.416708 
L 555.776294 186.416708 
L 555.776294 185.951726 
z
" clip-path="url(#p5c1df4956a)" style="fill: #ff0000"/>
   </g>
   <g id="patch_106">
    <path d="M 592.106845 192.100563 
Q 590.626312 192.169679 589.025375 192.204638 
Q 587.424438 192.24 585.680798 192.24 
Q 580.481097 192.24 577.444221 191.978003 
Q 574.407346 191.716007 574.407346 191.26796 
Q 574.407346 190.818307 577.444221 190.556712 
Q 580.481097 190.294715 585.680798 190.294715 
Q 587.424438 190.294715 589.025375 190.330077 
Q 590.626312 190.365037 592.106845 190.434152 
L 592.106845 190.821923 
Q 590.612934 190.730305 589.163617 190.68771 
Q 587.714301 190.645116 586.113364 190.645116 
Q 583.241487 190.645116 581.595955 190.811074 
Q 579.954883 190.97663 579.954883 191.26796 
Q 579.954883 191.558086 581.595955 191.724043 
Q 583.241487 191.8896 586.113364 191.8896 
Q 587.714301 191.8896 589.163617 191.847005 
Q 590.612934 191.804009 592.106845 191.71239 
L 592.106845 192.100563 
z
" clip-path="url(#p5c1df4956a)" style="fill: #0000ff"/>
   </g>
   <g id="patch_107">
    <path d="M 592.106845 189.898707 
Q 590.321821 190.096711 588.401929 190.196165 
Q 586.482038 190.294715 584.435211 190.294715 
Q 579.810017 190.294715 577.108681 189.705223 
Q 574.407346 189.115731 574.407346 188.107626 
Q 574.407346 187.087768 577.156282 186.502797 
Q 579.909185 185.917825 584.697014 185.917825 
Q 586.541538 185.917825 588.23136 185.997388 
Q 589.925149 186.076048 591.424569 186.231558 
L 591.424569 187.104043 
Q 589.877549 186.90423 588.346395 186.80568 
Q 586.815242 186.706226 585.276155 186.706226 
Q 582.428051 186.706226 580.884997 187.069686 
Q 579.341944 187.432242 579.341944 188.107626 
Q 579.341944 188.776682 580.829463 189.14195 
Q 582.316983 189.506315 585.054019 189.506315 
Q 585.799762 189.506315 586.438404 189.48552 
Q 587.077045 189.463821 587.584785 189.418614 
L 587.584785 188.599473 
L 584.669247 188.599473 
L 584.669247 187.86984 
L 592.106845 187.86984 
L 592.106845 189.898707 
z
" clip-path="url(#p5c1df4956a)" style="fill: #ffa600"/>
   </g>
   <g id="patch_108">
    <path d="M 586.667804 183.127159 
L 579.860861 183.127159 
L 578.786081 185.917825 
L 574.407346 185.917825 
L 580.660614 170.598709 
L 585.853577 170.598709 
L 592.106845 185.917825 
L 587.731728 185.917825 
L 586.667804 183.127159 
z
M 580.946498 180.283962 
L 585.571311 180.283962 
L 583.262523 174.190461 
L 580.946498 180.283962 
z
" clip-path="url(#p5c1df4956a)" style="fill: #008000"/>
   </g>
   <g id="patch_109">
    <path d="M 574.407346 140.933119 
L 592.106845 140.933119 
L 592.106845 146.718735 
L 585.739141 146.718735 
L 585.739141 170.598709 
L 580.787398 170.598709 
L 580.787398 146.718735 
L 574.407346 146.718735 
L 574.407346 140.933119 
z
" clip-path="url(#p5c1df4956a)" style="fill: #ff0000"/>
   </g>
   <g id="patch_110">
    <path d="M 610.737896 191.976004 
Q 609.257364 192.106861 607.656427 192.17305 
Q 606.055489 192.24 604.31185 192.24 
Q 599.112148 192.24 596.075273 191.743961 
Q 593.038397 191.247922 593.038397 190.399635 
Q 593.038397 189.548305 596.075273 189.053027 
Q 599.112148 188.556988 604.31185 188.556988 
Q 606.055489 188.556988 607.656427 188.623938 
Q 609.257364 188.690127 610.737896 188.820984 
L 610.737896 189.555152 
Q 609.243986 189.38169 607.794669 189.301046 
Q 606.345353 189.220402 604.744415 189.220402 
Q 601.872539 189.220402 600.227007 189.53461 
Q 598.585935 189.848058 598.585935 190.399635 
Q 598.585935 190.94893 600.227007 191.263138 
Q 601.872539 191.576586 604.744415 191.576586 
Q 606.345353 191.576586 607.794669 191.495942 
Q 609.243986 191.414537 610.737896 191.241075 
L 610.737896 191.976004 
z
" clip-path="url(#p5c1df4956a)" style="fill: #0000ff"/>
   </g>
   <g id="patch_111">
    <path d="M 610.737896 188.098799 
Q 608.952873 188.327893 607.032981 188.442964 
Q 605.113089 188.556988 603.066262 188.556988 
Q 598.441068 188.556988 595.739733 187.874934 
Q 593.038397 187.192881 593.038397 186.026486 
Q 593.038397 184.846492 595.787333 184.169669 
Q 598.540236 183.492846 603.328066 183.492846 
Q 605.17259 183.492846 606.862412 183.584902 
Q 608.556201 183.675912 610.055621 183.855841 
L 610.055621 184.865321 
Q 608.508601 184.634135 606.977447 184.52011 
Q 605.446294 184.40504 603.907207 184.40504 
Q 601.059103 184.40504 599.516049 184.82557 
Q 597.972995 185.245054 597.972995 186.026486 
Q 597.972995 186.800596 599.460515 187.223218 
Q 600.948035 187.644794 603.685071 187.644794 
Q 604.430814 187.644794 605.069455 187.620734 
Q 605.708097 187.595627 606.215837 187.543323 
L 606.215837 186.595561 
L 603.300299 186.595561 
L 603.300299 185.751363 
L 610.737896 185.751363 
L 610.737896 188.098799 
z
" clip-path="url(#p5c1df4956a)" style="fill: #ffa600"/>
   </g>
   <g id="patch_112">
    <path d="M 593.038397 174.515504 
L 610.737896 174.515504 
L 610.737896 176.266336 
L 604.370193 176.266336 
L 604.370193 183.492846 
L 599.418449 183.492846 
L 599.418449 176.266336 
L 593.038397 176.266336 
L 593.038397 174.515504 
z
" clip-path="url(#p5c1df4956a)" style="fill: #ff0000"/>
   </g>
   <g id="patch_113">
    <path d="M 605.298856 168.896463 
L 598.491913 168.896463 
L 597.417133 174.515504 
L 593.038397 174.515504 
L 599.291665 143.670276 
L 604.484628 143.670276 
L 610.737896 174.515504 
L 606.36278 174.515504 
L 605.298856 168.896463 
z
M 599.57755 163.171652 
L 604.202363 163.171652 
L 601.893575 150.902312 
L 599.57755 163.171652 
z
" clip-path="url(#p5c1df4956a)" style="fill: #008000"/>
   </g>
   <g id="patch_114">
    <path d="M 611.669449 187.688121 
L 629.368948 187.688121 
L 629.368948 188.575864 
L 623.001245 188.575864 
L 623.001245 192.24 
L 618.049501 192.24 
L 618.049501 188.575864 
L 611.669449 188.575864 
L 611.669449 187.688121 
z
" clip-path="url(#p5c1df4956a)" style="fill: #ff0000"/>
   </g>
   <g id="patch_115">
    <path d="M 629.368948 187.259884 
Q 627.888416 187.472151 626.287478 187.579519 
Q 624.686541 187.688121 622.942902 187.688121 
Q 617.7432 187.688121 614.706325 186.88348 
Q 611.669449 186.078838 611.669449 184.702802 
Q 611.669449 183.321829 614.706325 182.518422 
Q 617.7432 181.71378 622.942902 181.71378 
Q 624.686541 181.71378 626.287478 181.822382 
Q 627.888416 181.92975 629.368948 182.142017 
L 629.368948 183.332936 
Q 627.875037 183.051559 626.425721 182.920743 
Q 624.976404 182.789927 623.375467 182.789927 
Q 620.503591 182.789927 618.858059 183.299615 
Q 617.216987 183.80807 617.216987 184.702802 
Q 617.216987 185.593831 618.858059 186.10352 
Q 620.503591 186.611975 623.375467 186.611975 
Q 624.976404 186.611975 626.425721 186.481159 
Q 627.875037 186.349109 629.368948 186.067731 
L 629.368948 187.259884 
z
" clip-path="url(#p5c1df4956a)" style="fill: #0000ff"/>
   </g>
   <g id="patch_116">
    <path d="M 629.368948 180.993058 
Q 627.583925 181.353419 625.664033 181.534422 
Q 623.744141 181.71378 621.697314 181.71378 
Q 617.07212 181.71378 614.370785 180.640925 
Q 611.669449 179.568069 611.669449 177.733355 
Q 611.669449 175.877249 614.418385 174.81262 
Q 617.171288 173.747992 621.959118 173.747992 
Q 623.803642 173.747992 625.493464 173.892795 
Q 627.187253 174.035952 628.686673 174.318975 
L 628.686673 175.906867 
Q 627.139652 175.543215 625.608499 175.363858 
Q 624.077345 175.182854 622.538259 175.182854 
Q 619.690154 175.182854 618.147101 175.844339 
Q 616.604047 176.504178 616.604047 177.733355 
Q 616.604047 178.951013 618.091567 179.615788 
Q 619.579086 180.278918 622.316122 180.278918 
Q 623.061865 180.278918 623.700507 180.241072 
Q 624.339149 180.20158 624.846889 180.119306 
L 624.846889 178.628498 
L 621.931351 178.628498 
L 621.931351 177.300592 
L 629.368948 177.300592 
L 629.368948 180.993058 
z
" clip-path="url(#p5c1df4956a)" style="fill: #ffa600"/>
   </g>
   <g id="patch_117">
    <path d="M 623.929908 166.181445 
L 617.122965 166.181445 
L 616.048184 173.747992 
L 611.669449 173.747992 
L 617.922717 132.212098 
L 623.11568 132.212098 
L 629.368948 173.747992 
L 624.993832 173.747992 
L 623.929908 166.181445 
z
M 618.208602 158.472468 
L 622.833415 158.472468 
L 620.524627 141.95069 
L 618.208602 158.472468 
z
" clip-path="url(#p5c1df4956a)" style="fill: #008000"/>
   </g>
   <g id="patch_118">
    <path d="M 648 192.025633 
Q 646.214977 192.132816 644.295085 192.186653 
Q 642.375193 192.24 640.328366 192.24 
Q 635.703172 192.24 633.001836 191.920897 
Q 630.300501 191.601793 630.300501 191.056087 
Q 630.300501 190.504018 633.049437 190.187362 
Q 635.80234 189.870706 640.590169 189.870706 
Q 642.434694 189.870706 644.124516 189.913775 
Q 645.818305 189.956355 647.317724 190.040535 
L 647.317724 190.512828 
Q 645.770704 190.404666 644.239551 190.351318 
Q 642.708397 190.297482 641.16931 190.297482 
Q 638.321206 190.297482 636.778153 190.49423 
Q 635.235099 190.690488 635.235099 191.056087 
Q 635.235099 191.41826 636.722619 191.615986 
Q 638.210138 191.813224 640.947174 191.813224 
Q 641.692917 191.813224 642.331559 191.801967 
Q 642.970201 191.790221 643.477941 191.76575 
L 643.477941 191.322333 
L 640.562402 191.322333 
L 640.562402 190.927369 
L 648 190.927369 
L 648 192.025633 
z
" clip-path="url(#p5c1df4956a)" style="fill: #ffa600"/>
   </g>
   <g id="patch_119">
    <path d="M 642.560959 189.143781 
L 635.754017 189.143781 
L 634.679236 189.870706 
L 630.300501 189.870706 
L 636.553769 185.880315 
L 641.746732 185.880315 
L 648 189.870706 
L 643.624884 189.870706 
L 642.560959 189.143781 
z
M 636.839653 188.403172 
L 641.464466 188.403172 
L 639.155679 186.81591 
L 636.839653 188.403172 
z
" clip-path="url(#p5c1df4956a)" style="fill: #008000"/>
   </g>
   <g id="patch_120">
    <path d="M 648 185.40658 
Q 646.519467 185.641399 644.91853 185.760175 
Q 643.317593 185.880315 641.573954 185.880315 
Q 636.374252 185.880315 633.337376 184.990184 
Q 630.300501 184.100053 630.300501 182.577821 
Q 630.300501 181.050127 633.337376 180.161361 
Q 636.374252 179.27123 641.573954 179.27123 
Q 643.317593 179.27123 644.91853 179.391371 
Q 646.519467 179.510146 648 179.744966 
L 648 181.062414 
Q 646.506089 180.751141 645.056773 180.606427 
Q 643.607456 180.461712 642.006519 180.461712 
Q 639.134642 180.461712 637.489111 181.025553 
Q 635.848038 181.588028 635.848038 182.577821 
Q 635.848038 183.563518 637.489111 184.127358 
Q 639.134642 184.689833 642.006519 184.689833 
Q 643.607456 184.689833 645.056773 184.545119 
Q 646.506089 184.399039 648 184.087766 
L 648 185.40658 
z
" clip-path="url(#p5c1df4956a)" style="fill: #0000ff"/>
   </g>
   <g id="patch_121">
    <path d="M 630.300501 165.928362 
L 648 165.928362 
L 648 168.530593 
L 641.632296 168.530593 
L 641.632296 179.27123 
L 636.680553 179.27123 
L 636.680553 168.530593 
L 630.300501 168.530593 
L 630.300501 165.928362 
z
" clip-path="url(#p5c1df4956a)" style="fill: #ff0000"/>
   </g>
   <g id="matplotlib.axis_1">
    <g id="xtick_1">
     <g id="line2d_2">
      <defs>
       <path id="mcd8f458367" d="M 0 0 
L 0 3.5 
" style="stroke: #000000; stroke-width: 0.8"/>
      </defs>
      <g>
       <use xlink:href="#mcd8f458367" x="98.84975" y="192.24" style="stroke: #000000; stroke-width: 0.8"/>
      </g>
     </g>
     <g id="text_1">
      <!-- 0 -->
      <g transform="translate(95.6685 206.838437) scale(0.1 -0.1)">
       <defs>
        <path id="DejaVuSans-30" d="M 2034 4250 
Q 1547 4250 1301 3770 
Q 1056 3291 1056 2328 
Q 1056 1369 1301 889 
Q 1547 409 2034 409 
Q 2525 409 2770 889 
Q 3016 1369 3016 2328 
Q 3016 3291 2770 3770 
Q 2525 4250 2034 4250 
z
M 2034 4750 
Q 2819 4750 3233 4129 
Q 3647 3509 3647 2328 
Q 3647 1150 3233 529 
Q 2819 -91 2034 -91 
Q 1250 -91 836 529 
Q 422 1150 422 2328 
Q 422 3509 836 4129 
Q 1250 4750 2034 4750 
z
" transform="scale(0.015625)"/>
       </defs>
       <use xlink:href="#DejaVuSans-30"/>
      </g>
     </g>
    </g>
    <g id="xtick_2">
     <g id="line2d_3">
      <g>
       <use xlink:href="#mcd8f458367" x="192.005008" y="192.24" style="stroke: #000000; stroke-width: 0.8"/>
      </g>
     </g>
     <g id="text_2">
      <!-- 5 -->
      <g transform="translate(188.823758 206.838437) scale(0.1 -0.1)">
       <defs>
        <path id="DejaVuSans-35" d="M 691 4666 
L 3169 4666 
L 3169 4134 
L 1269 4134 
L 1269 2991 
Q 1406 3038 1543 3061 
Q 1681 3084 1819 3084 
Q 2600 3084 3056 2656 
Q 3513 2228 3513 1497 
Q 3513 744 3044 326 
Q 2575 -91 1722 -91 
Q 1428 -91 1123 -41 
Q 819 9 494 109 
L 494 744 
Q 775 591 1075 516 
Q 1375 441 1709 441 
Q 2250 441 2565 725 
Q 2881 1009 2881 1497 
Q 2881 1984 2565 2268 
Q 2250 2553 1709 2553 
Q 1456 2553 1204 2497 
Q 953 2441 691 2322 
L 691 4666 
z
" transform="scale(0.015625)"/>
       </defs>
       <use xlink:href="#DejaVuSans-35"/>
      </g>
     </g>
    </g>
    <g id="xtick_3">
     <g id="line2d_4">
      <g>
       <use xlink:href="#mcd8f458367" x="285.160267" y="192.24" style="stroke: #000000; stroke-width: 0.8"/>
      </g>
     </g>
     <g id="text_3">
      <!-- 10 -->
      <g transform="translate(278.797767 206.838437) scale(0.1 -0.1)">
       <defs>
        <path id="DejaVuSans-31" d="M 794 531 
L 1825 531 
L 1825 4091 
L 703 3866 
L 703 4441 
L 1819 4666 
L 2450 4666 
L 2450 531 
L 3481 531 
L 3481 0 
L 794 0 
L 794 531 
z
" transform="scale(0.015625)"/>
       </defs>
       <use xlink:href="#DejaVuSans-31"/>
       <use xlink:href="#DejaVuSans-30" x="63.623047"/>
      </g>
     </g>
    </g>
    <g id="xtick_4">
     <g id="line2d_5">
      <g>
       <use xlink:href="#mcd8f458367" x="378.315526" y="192.24" style="stroke: #000000; stroke-width: 0.8"/>
      </g>
     </g>
     <g id="text_4">
      <!-- 15 -->
      <g transform="translate(371.953026 206.838437) scale(0.1 -0.1)">
       <use xlink:href="#DejaVuSans-31"/>
       <use xlink:href="#DejaVuSans-35" x="63.623047"/>
      </g>
     </g>
    </g>
    <g id="xtick_5">
     <g id="line2d_6">
      <g>
       <use xlink:href="#mcd8f458367" x="471.470785" y="192.24" style="stroke: #000000; stroke-width: 0.8"/>
      </g>
     </g>
     <g id="text_5">
      <!-- 20 -->
      <g transform="translate(465.108285 206.838437) scale(0.1 -0.1)">
       <defs>
        <path id="DejaVuSans-32" d="M 1228 531 
L 3431 531 
L 3431 0 
L 469 0 
L 469 531 
Q 828 903 1448 1529 
Q 2069 2156 2228 2338 
Q 2531 2678 2651 2914 
Q 2772 3150 2772 3378 
Q 2772 3750 2511 3984 
Q 2250 4219 1831 4219 
Q 1534 4219 1204 4116 
Q 875 4013 500 3803 
L 500 4441 
Q 881 4594 1212 4672 
Q 1544 4750 1819 4750 
Q 2544 4750 2975 4387 
Q 3406 4025 3406 3419 
Q 3406 3131 3298 2873 
Q 3191 2616 2906 2266 
Q 2828 2175 2409 1742 
Q 1991 1309 1228 531 
z
" transform="scale(0.015625)"/>
       </defs>
       <use xlink:href="#DejaVuSans-32"/>
       <use xlink:href="#DejaVuSans-30" x="63.623047"/>
      </g>
     </g>
    </g>
    <g id="xtick_6">
     <g id="line2d_7">
      <g>
       <use xlink:href="#mcd8f458367" x="564.626043" y="192.24" style="stroke: #000000; stroke-width: 0.8"/>
      </g>
     </g>
     <g id="text_6">
      <!-- 25 -->
      <g transform="translate(558.263543 206.838437) scale(0.1 -0.1)">
       <use xlink:href="#DejaVuSans-32"/>
       <use xlink:href="#DejaVuSans-35" x="63.623047"/>
      </g>
     </g>
    </g>
   </g>
   <g id="matplotlib.axis_2">
    <g id="ytick_1">
     <g id="line2d_8">
      <defs>
       <path id="mb7d9405918" d="M 0 0 
L -3.5 0 
" style="stroke: #000000; stroke-width: 0.8"/>
      </defs>
      <g>
       <use xlink:href="#mb7d9405918" x="90" y="192.24" style="stroke: #000000; stroke-width: 0.8"/>
      </g>
     </g>
     <g id="text_7">
      <!-- 0.00 -->
      <g transform="translate(60.734375 196.039219) scale(0.1 -0.1)">
       <defs>
        <path id="DejaVuSans-2e" d="M 684 794 
L 1344 794 
L 1344 0 
L 684 0 
L 684 794 
z
" transform="scale(0.015625)"/>
       </defs>
       <use xlink:href="#DejaVuSans-30"/>
       <use xlink:href="#DejaVuSans-2e" x="63.623047"/>
       <use xlink:href="#DejaVuSans-30" x="95.410156"/>
       <use xlink:href="#DejaVuSans-30" x="159.033203"/>
      </g>
     </g>
    </g>
    <g id="ytick_2">
     <g id="line2d_9">
      <g>
       <use xlink:href="#mb7d9405918" x="90" y="168.504586" style="stroke: #000000; stroke-width: 0.8"/>
      </g>
     </g>
     <g id="text_8">
      <!-- 0.25 -->
      <g transform="translate(60.734375 172.303805) scale(0.1 -0.1)">
       <use xlink:href="#DejaVuSans-30"/>
       <use xlink:href="#DejaVuSans-2e" x="63.623047"/>
       <use xlink:href="#DejaVuSans-32" x="95.410156"/>
       <use xlink:href="#DejaVuSans-35" x="159.033203"/>
      </g>
     </g>
    </g>
    <g id="ytick_3">
     <g id="line2d_10">
      <g>
       <use xlink:href="#mb7d9405918" x="90" y="144.769172" style="stroke: #000000; stroke-width: 0.8"/>
      </g>
     </g>
     <g id="text_9">
      <!-- 0.50 -->
      <g transform="translate(60.734375 148.568391) scale(0.1 -0.1)">
       <use xlink:href="#DejaVuSans-30"/>
       <use xlink:href="#DejaVuSans-2e" x="63.623047"/>
       <use xlink:href="#DejaVuSans-35" x="95.410156"/>
       <use xlink:href="#DejaVuSans-30" x="159.033203"/>
      </g>
     </g>
    </g>
    <g id="ytick_4">
     <g id="line2d_11">
      <g>
       <use xlink:href="#mb7d9405918" x="90" y="121.033758" style="stroke: #000000; stroke-width: 0.8"/>
      </g>
     </g>
     <g id="text_10">
      <!-- 0.75 -->
      <g transform="translate(60.734375 124.832977) scale(0.1 -0.1)">
       <defs>
        <path id="DejaVuSans-37" d="M 525 4666 
L 3525 4666 
L 3525 4397 
L 1831 0 
L 1172 0 
L 2766 4134 
L 525 4134 
L 525 4666 
z
" transform="scale(0.015625)"/>
       </defs>
       <use xlink:href="#DejaVuSans-30"/>
       <use xlink:href="#DejaVuSans-2e" x="63.623047"/>
       <use xlink:href="#DejaVuSans-37" x="95.410156"/>
       <use xlink:href="#DejaVuSans-35" x="159.033203"/>
      </g>
     </g>
    </g>
    <g id="ytick_5">
     <g id="line2d_12">
      <g>
       <use xlink:href="#mb7d9405918" x="90" y="97.298344" style="stroke: #000000; stroke-width: 0.8"/>
      </g>
     </g>
     <g id="text_11">
      <!-- 1.00 -->
      <g transform="translate(60.734375 101.097562) scale(0.1 -0.1)">
       <use xlink:href="#DejaVuSans-31"/>
       <use xlink:href="#DejaVuSans-2e" x="63.623047"/>
       <use xlink:href="#DejaVuSans-30" x="95.410156"/>
       <use xlink:href="#DejaVuSans-30" x="159.033203"/>
      </g>
     </g>
    </g>
    <g id="ytick_6">
     <g id="line2d_13">
      <g>
       <use xlink:href="#mb7d9405918" x="90" y="73.56293" style="stroke: #000000; stroke-width: 0.8"/>
      </g>
     </g>
     <g id="text_12">
      <!-- 1.25 -->
      <g transform="translate(60.734375 77.362148) scale(0.1 -0.1)">
       <use xlink:href="#DejaVuSans-31"/>
       <use xlink:href="#DejaVuSans-2e" x="63.623047"/>
       <use xlink:href="#DejaVuSans-32" x="95.410156"/>
       <use xlink:href="#DejaVuSans-35" x="159.033203"/>
      </g>
     </g>
    </g>
    <g id="ytick_7">
     <g id="line2d_14">
      <g>
       <use xlink:href="#mb7d9405918" x="90" y="49.827516" style="stroke: #000000; stroke-width: 0.8"/>
      </g>
     </g>
     <g id="text_13">
      <!-- 1.50 -->
      <g transform="translate(60.734375 53.626734) scale(0.1 -0.1)">
       <use xlink:href="#DejaVuSans-31"/>
       <use xlink:href="#DejaVuSans-2e" x="63.623047"/>
       <use xlink:href="#DejaVuSans-35" x="95.410156"/>
       <use xlink:href="#DejaVuSans-30" x="159.033203"/>
      </g>
     </g>
    </g>
    <g id="ytick_8">
     <g id="line2d_15">
      <g>
       <use xlink:href="#mb7d9405918" x="90" y="26.092102" style="stroke: #000000; stroke-width: 0.8"/>
      </g>
     </g>
     <g id="text_14">
      <!-- 1.75 -->
      <g transform="translate(60.734375 29.89132) scale(0.1 -0.1)">
       <use xlink:href="#DejaVuSans-31"/>
       <use xlink:href="#DejaVuSans-2e" x="63.623047"/>
       <use xlink:href="#DejaVuSans-37" x="95.410156"/>
       <use xlink:href="#DejaVuSans-35" x="159.033203"/>
      </g>
     </g>
    </g>
   </g>
  </g>
 </g>
 <defs>
  <clipPath id="p5c1df4956a">
   <rect x="90" y="25.92" width="558" height="166.32"/>
  </clipPath>
 </defs>
</svg>
