<?xml version="1.0" encoding="utf-8" standalone="no"?>
<!DOCTYPE svg PUBLIC "-//W3C//DTD SVG 1.1//EN"
  "http://www.w3.org/Graphics/SVG/1.1/DTD/svg11.dtd">
<svg xmlns:xlink="http://www.w3.org/1999/xlink" width="720pt" height="216pt" viewBox="0 0 720 216" xmlns="http://www.w3.org/2000/svg" version="1.1">
 <metadata>
  <rdf:RDF xmlns:dc="http://purl.org/dc/elements/1.1/" xmlns:cc="http://creativecommons.org/ns#" xmlns:rdf="http://www.w3.org/1999/02/22-rdf-syntax-ns#">
   <cc:Work>
    <dc:type rdf:resource="http://purl.org/dc/dcmitype/StillImage"/>
    <dc:date>2025-12-17T10:22:23.513288</dc:date>
    <dc:format>image/svg+xml</dc:format>
    <dc:creator>
     <cc:Agent>
      <dc:title>Matplotlib v3.8.2, https://matplotlib.org/</dc:title>
     </cc:Agent>
    </dc:creator>
   </cc:Work>
  </rdf:RDF>
 </metadata>
 <defs>
  <style type="text/css">*{stroke-linejoin: round; stroke-linecap: butt}</style>
 </defs>
 <g id="figure_1">
  <g id="patch_1">
   <path d="M 0 216 
L 720 216 
L 720 0 
L 0 0 
z
" style="fill: #ffffff"/>
  </g>
  <g id="axes_1">
   <g id="patch_2">
    <path d="M 90 192.24 
L 648 192.24 
L 648 25.92 
L 90 25.92 
z
" style="fill: #ffffff"/>
   </g>
   <g id="line2d_1">
    <path d="M 90 192.24 
L 648 192.24 
" clip-path="url(#p1f5a8ea128)" style="fill: none; stroke: #000000; stroke-width: 0.5; stroke-linecap: square"/>
   </g>
   <g id="patch_3">
    <path d="M 102.260459 191.326625 
L 95.453516 191.326625 
L 94.378735 192.24 
L 90 192.24 
L 96.253268 187.226107 
L 101.446231 187.226107 
L 107.699499 192.24 
L 103.324383 192.24 
L 102.260459 191.326625 
z
M 96.539153 190.396056 
L 101.163965 190.396056 
L 98.855178 188.401675 
L 96.539153 190.396056 
z
" clip-path="url(#p1f5a8ea128)" style="fill: #008000"/>
   </g>
   <g id="patch_4">
    <path d="M 107.699499 186.836555 
Q 106.218967 187.029647 104.618029 187.127316 
Q 103.017092 187.226107 101.273453 187.226107 
Q 96.073751 187.226107 93.036876 186.494154 
Q 90 185.762201 90 184.510471 
Q 90 183.254251 93.036876 182.523421 
Q 96.073751 181.791468 101.273453 181.791468 
Q 103.017092 181.791468 104.618029 181.890259 
Q 106.218967 181.987927 107.699499 182.181019 
L 107.699499 183.264355 
Q 106.205588 183.008396 104.756272 182.889397 
Q 103.306955 182.770399 101.706018 182.770399 
Q 98.834142 182.770399 97.18861 183.234044 
Q 95.547538 183.696566 95.547538 184.510471 
Q 95.547538 185.321008 97.18861 185.784653 
Q 98.834142 186.247176 101.706018 186.247176 
Q 103.306955 186.247176 104.756272 186.128177 
Q 106.205588 186.008056 107.699499 185.752097 
L 107.699499 186.836555 
z
" clip-path="url(#p1f5a8ea128)" style="fill: #0000ff"/>
   </g>
   <g id="patch_5">
    <path d="M 107.699499 180.944456 
Q 105.914476 181.367962 103.994584 181.580682 
Q 102.074692 181.791468 100.027865 181.791468 
Q 95.402671 181.791468 92.701335 180.530619 
Q 90 179.269771 90 177.113566 
Q 90 174.932221 92.748936 173.681042 
Q 95.501839 172.429863 100.289668 172.429863 
Q 102.134193 172.429863 103.824015 172.600039 
Q 105.517804 172.768281 107.017224 173.100897 
L 107.017224 174.96703 
Q 105.470203 174.539657 103.93905 174.328871 
Q 102.407896 174.116151 100.868809 174.116151 
Q 98.020705 174.116151 96.477652 174.893545 
Q 94.934598 175.669005 94.934598 177.113566 
Q 94.934598 178.54459 96.422118 179.325852 
Q 97.909637 180.10518 100.646673 180.10518 
Q 101.392416 180.10518 102.031058 180.060702 
Q 102.6697 180.01429 103.17744 179.9176 
L 103.17744 178.165562 
L 100.261901 178.165562 
L 100.261901 176.604972 
L 107.699499 176.604972 
L 107.699499 180.944456 
z
" clip-path="url(#p1f5a8ea128)" style="fill: #ffa600"/>
   </g>
   <g id="patch_6">
    <path d="M 90 139.366219 
L 107.699499 139.366219 
L 107.699499 145.814551 
L 101.331796 145.814551 
L 101.331796 172.429863 
L 96.380052 172.429863 
L 96.380052 145.814551 
L 90 145.814551 
L 90 139.366219 
z
" clip-path="url(#p1f5a8ea128)" style="fill: #ff0000"/>
   </g>
   <g id="patch_7">
    <path d="M 126.330551 191.914185 
Q 124.545527 192.077093 122.625636 192.158918 
Q 120.705744 192.24 118.658917 192.24 
Q 114.033723 192.24 111.332387 191.754997 
Q 108.631052 191.269994 108.631052 190.440579 
Q 108.631052 189.601494 111.379988 189.12021 
Q 114.132891 188.638926 118.92072 188.638926 
Q 120.765244 188.638926 122.455067 188.704387 
Q 124.148856 188.769104 125.648275 188.897049 
L 125.648275 189.614884 
Q 124.101255 189.450488 122.570102 189.369407 
Q 121.038948 189.287581 119.499861 189.287581 
Q 116.651757 189.287581 115.108704 189.586617 
Q 113.56565 189.884908 113.56565 190.440579 
Q 113.56565 190.991043 115.053169 191.291566 
Q 116.540689 191.591346 119.277725 191.591346 
Q 120.023468 191.591346 120.66211 191.574237 
Q 121.300752 191.556384 121.808492 191.51919 
L 121.808492 190.845244 
L 118.892953 190.845244 
L 118.892953 190.244941 
L 126.330551 190.244941 
L 126.330551 191.914185 
z
" clip-path="url(#p1f5a8ea128)" style="fill: #ffa600"/>
   </g>
   <g id="patch_8">
    <path d="M 126.330551 188.363785 
Q 124.850018 188.500166 123.249081 188.56915 
Q 121.648144 188.638926 119.904504 188.638926 
Q 114.704803 188.638926 111.667927 188.121945 
Q 108.631052 187.604964 108.631052 186.720862 
Q 108.631052 185.833589 111.667927 185.317401 
Q 114.704803 184.800419 119.904504 184.800419 
Q 121.648144 184.800419 123.249081 184.870196 
Q 124.850018 184.93918 126.330551 185.075561 
L 126.330551 185.840725 
Q 124.83664 185.65994 123.387324 185.575891 
Q 121.938007 185.491842 120.33707 185.491842 
Q 117.465193 185.491842 115.819662 185.819317 
Q 114.178589 186.145998 114.178589 186.720862 
Q 114.178589 187.293348 115.819662 187.620822 
Q 117.465193 187.947504 120.33707 187.947504 
Q 121.938007 187.947504 123.387324 187.863454 
Q 124.83664 187.778612 126.330551 187.597828 
L 126.330551 188.363785 
z
" clip-path="url(#p1f5a8ea128)" style="fill: #0000ff"/>
   </g>
   <g id="patch_9">
    <path d="M 108.631052 177.796133 
L 126.330551 177.796133 
L 126.330551 179.162164 
L 119.962847 179.162164 
L 119.962847 184.800419 
L 115.011104 184.800419 
L 115.011104 179.162164 
L 108.631052 179.162164 
L 108.631052 177.796133 
z
" clip-path="url(#p1f5a8ea128)" style="fill: #ff0000"/>
   </g>
   <g id="patch_10">
    <path d="M 120.89151 174.991898 
L 114.084567 174.991898 
L 113.009787 177.796133 
L 108.631052 177.796133 
L 114.88432 162.402533 
L 120.077283 162.402533 
L 126.330551 177.796133 
L 121.955434 177.796133 
L 120.89151 174.991898 
z
M 115.170204 172.134878 
L 119.795017 172.134878 
L 117.48623 166.011748 
L 115.170204 172.134878 
z
" clip-path="url(#p1f5a8ea128)" style="fill: #008000"/>
   </g>
   <g id="patch_11">
    <path d="M 144.961603 191.887301 
Q 143.48107 192.062126 141.880133 192.150555 
Q 140.279195 192.24 138.535556 192.24 
Q 133.335855 192.24 130.298979 191.577292 
Q 127.262104 190.914585 127.262104 189.781274 
Q 127.262104 188.643897 130.298979 187.982206 
Q 133.335855 187.319498 138.535556 187.319498 
Q 140.279195 187.319498 141.880133 187.408943 
Q 143.48107 187.497372 144.961603 187.672197 
L 144.961603 188.653045 
Q 143.467692 188.4213 142.018375 188.313559 
Q 140.569059 188.205819 138.968121 188.205819 
Q 136.096245 188.205819 134.450713 188.625601 
Q 132.809641 189.044367 132.809641 189.781274 
Q 132.809641 190.515131 134.450713 190.934913 
Q 136.096245 191.353679 138.968121 191.353679 
Q 140.569059 191.353679 142.018375 191.245939 
Q 143.467692 191.137181 144.961603 190.905437 
L 144.961603 191.887301 
z
" clip-path="url(#p1f5a8ea128)" style="fill: #0000ff"/>
   </g>
   <g id="patch_12">
    <path d="M 144.961603 186.655358 
Q 143.176579 186.987428 141.256687 187.154221 
Q 139.336795 187.319498 137.289969 187.319498 
Q 132.664774 187.319498 129.963439 186.330869 
Q 127.262104 185.34224 127.262104 183.651562 
Q 127.262104 181.941173 130.01104 180.960125 
Q 132.763942 179.979077 137.551772 179.979077 
Q 139.396296 179.979077 141.086118 180.112512 
Q 142.779907 180.24443 144.279327 180.505234 
L 144.279327 181.968466 
Q 142.732307 181.633364 141.201153 181.468087 
Q 139.67 181.301293 138.130913 181.301293 
Q 135.282809 181.301293 133.739755 181.910847 
Q 132.196702 182.518884 132.196702 183.651562 
Q 132.196702 184.773626 133.684221 185.386212 
Q 135.171741 185.997282 137.908777 185.997282 
Q 138.65452 185.997282 139.293162 185.962407 
Q 139.931803 185.926016 140.439543 185.850201 
L 140.439543 184.476431 
L 137.524005 184.476431 
L 137.524005 183.252775 
L 144.961603 183.252775 
L 144.961603 186.655358 
z
" clip-path="url(#p1f5a8ea128)" style="fill: #ffa600"/>
   </g>
   <g id="patch_13">
    <path d="M 139.522562 178.436159 
L 132.715619 178.436159 
L 131.640839 179.979077 
L 127.262104 179.979077 
L 133.515372 171.509361 
L 138.708335 171.509361 
L 144.961603 179.979077 
L 140.586486 179.979077 
L 139.522562 178.436159 
z
M 133.801256 176.864197 
L 138.426069 176.864197 
L 136.117281 173.495188 
L 133.801256 176.864197 
z
" clip-path="url(#p1f5a8ea128)" style="fill: #008000"/>
   </g>
   <g id="patch_14">
    <path d="M 127.262104 131.419371 
L 144.961603 131.419371 
L 144.961603 139.238036 
L 138.593899 139.238036 
L 138.593899 171.509361 
L 133.642156 171.509361 
L 133.642156 139.238036 
L 127.262104 139.238036 
L 127.262104 131.419371 
z
" clip-path="url(#p1f5a8ea128)" style="fill: #ff0000"/>
   </g>
   <g id="patch_15">
    <path d="M 163.592654 191.920822 
Q 162.112122 192.079031 160.511185 192.159056 
Q 158.910247 192.24 157.166608 192.24 
Q 151.966906 192.24 148.930031 191.640277 
Q 145.893155 191.040554 145.893155 190.014955 
Q 145.893155 188.985676 148.930031 188.386873 
Q 151.966906 187.78715 157.166608 187.78715 
Q 158.910247 187.78715 160.511185 187.868094 
Q 162.112122 187.948118 163.592654 188.106327 
L 163.592654 188.993954 
Q 162.098744 188.784235 160.649427 188.686734 
Q 159.200111 188.589233 157.599173 188.589233 
Q 154.727297 188.589233 153.081765 188.969119 
Q 151.440693 189.348085 151.440693 190.014955 
Q 151.440693 190.679065 153.081765 191.058951 
Q 154.727297 191.437917 157.599173 191.437917 
Q 159.200111 191.437917 160.649427 191.340416 
Q 162.098744 191.241995 163.592654 191.032276 
L 163.592654 191.920822 
z
" clip-path="url(#p1f5a8ea128)" style="fill: #0000ff"/>
   </g>
   <g id="patch_16">
    <path d="M 163.592654 187.154051 
Q 161.807631 187.4706 159.887739 187.629598 
Q 157.967847 187.78715 155.92102 187.78715 
Q 151.295826 187.78715 148.594491 186.844728 
Q 145.893155 185.902306 145.893155 184.29065 
Q 145.893155 182.660203 148.642091 181.725008 
Q 151.394994 180.789814 156.182824 180.789814 
Q 158.027348 180.789814 159.71717 180.917012 
Q 161.410959 181.042764 162.910379 181.291378 
L 162.910379 182.68622 
Q 161.363358 182.36678 159.832205 182.209228 
Q 158.301052 182.05023 156.761965 182.05023 
Q 153.913861 182.05023 152.370807 182.631294 
Q 150.827753 183.210912 150.827753 184.29065 
Q 150.827753 185.360269 152.315273 185.944224 
Q 153.802792 186.526733 156.539828 186.526733 
Q 157.285572 186.526733 157.924213 186.493488 
Q 158.562855 186.458798 159.070595 186.386526 
L 159.070595 185.076965 
L 156.155057 185.076965 
L 156.155057 183.910501 
L 163.592654 183.910501 
L 163.592654 187.154051 
z
" clip-path="url(#p1f5a8ea128)" style="fill: #ffa600"/>
   </g>
   <g id="patch_17">
    <path d="M 158.153614 178.742573 
L 151.346671 178.742573 
L 150.27189 180.789814 
L 145.893155 180.789814 
L 152.146423 169.551668 
L 157.339386 169.551668 
L 163.592654 180.789814 
L 159.217538 180.789814 
L 158.153614 178.742573 
z
M 152.432308 176.656796 
L 157.057121 176.656796 
L 154.748333 172.186587 
L 152.432308 176.656796 
z
" clip-path="url(#p1f5a8ea128)" style="fill: #008000"/>
   </g>
   <g id="patch_18">
    <path d="M 145.893155 112.300736 
L 163.592654 112.300736 
L 163.592654 123.466263 
L 157.224951 123.466263 
L 157.224951 169.551668 
L 152.273207 169.551668 
L 152.273207 123.466263 
L 145.893155 123.466263 
L 145.893155 112.300736 
z
" clip-path="url(#p1f5a8ea128)" style="fill: #ff0000"/>
   </g>
   <g id="patch_19">
    <path d="M 182.223706 191.828935 
Q 180.743174 192.032691 179.142236 192.135753 
Q 177.541299 192.24 175.79766 192.24 
Q 170.597958 192.24 167.561083 191.467625 
Q 164.524207 190.695249 164.524207 189.374393 
Q 164.524207 188.048798 167.561083 187.277607 
Q 170.597958 186.505232 175.79766 186.505232 
Q 177.541299 186.505232 179.142236 186.609479 
Q 180.743174 186.712541 182.223706 186.916297 
L 182.223706 188.059459 
Q 180.729795 187.789365 179.280479 187.663795 
Q 177.831162 187.538225 176.230225 187.538225 
Q 173.358349 187.538225 171.712817 188.027475 
Q 170.071745 188.51554 170.071745 189.374393 
Q 170.071745 190.229692 171.712817 190.718942 
Q 173.358349 191.207007 176.230225 191.207007 
Q 177.831162 191.207007 179.280479 191.081437 
Q 180.729795 190.954682 182.223706 190.684588 
L 182.223706 191.828935 
z
" clip-path="url(#p1f5a8ea128)" style="fill: #0000ff"/>
   </g>
   <g id="patch_20">
    <path d="M 182.223706 185.944296 
Q 180.438683 186.224764 178.518791 186.365638 
Q 176.598899 186.505232 174.552072 186.505232 
Q 169.926878 186.505232 167.225542 185.670231 
Q 164.524207 184.835231 164.524207 183.407278 
Q 164.524207 181.962676 167.273143 181.134079 
Q 170.026046 180.305482 174.813876 180.305482 
Q 176.6584 180.305482 178.348222 180.418182 
Q 180.042011 180.529601 181.541431 180.749877 
L 181.541431 181.985728 
Q 179.99441 181.702699 178.463257 181.563106 
Q 176.932103 181.422231 175.393016 181.422231 
Q 172.544912 181.422231 171.001859 181.937063 
Q 169.458805 182.450614 169.458805 183.407278 
Q 169.458805 184.354978 170.946325 184.872371 
Q 172.433844 185.388483 175.17088 185.388483 
Q 175.916623 185.388483 176.555265 185.359027 
Q 177.193907 185.328291 177.701647 185.264257 
L 177.701647 184.103965 
L 174.786108 184.103965 
L 174.786108 183.07046 
L 182.223706 183.07046 
L 182.223706 185.944296 
z
" clip-path="url(#p1f5a8ea128)" style="fill: #ffa600"/>
   </g>
   <g id="patch_21">
    <path d="M 176.784666 178.78079 
L 169.977723 178.78079 
L 168.902942 180.305482 
L 164.524207 180.305482 
L 170.777475 171.935821 
L 175.970438 171.935821 
L 182.223706 180.305482 
L 177.84859 180.305482 
L 176.784666 178.78079 
z
M 171.06336 177.227398 
L 175.688172 177.227398 
L 173.379385 173.898189 
L 171.06336 177.227398 
z
" clip-path="url(#p1f5a8ea128)" style="fill: #008000"/>
   </g>
   <g id="patch_22">
    <path d="M 164.524207 133.807362 
L 182.223706 133.807362 
L 182.223706 141.243473 
L 175.856003 141.243473 
L 175.856003 171.935821 
L 170.904259 171.935821 
L 170.904259 141.243473 
L 164.524207 141.243473 
L 164.524207 133.807362 
z
" clip-path="url(#p1f5a8ea128)" style="fill: #ff0000"/>
   </g>
   <g id="patch_23">
    <path d="M 200.854758 192.052824 
Q 199.374225 192.145603 197.773288 192.192532 
Q 196.172351 192.24 194.428711 192.24 
Q 189.22901 192.24 186.192134 191.888304 
Q 183.155259 191.536607 183.155259 190.935164 
Q 183.155259 190.331562 186.192134 189.980405 
Q 189.22901 189.628709 194.428711 189.628709 
Q 196.172351 189.628709 197.773288 189.676177 
Q 199.374225 189.723106 200.854758 189.815885 
L 200.854758 190.336417 
Q 199.360847 190.213431 197.911531 190.156254 
Q 196.462214 190.099076 194.861277 190.099076 
Q 191.9894 190.099076 190.343869 190.321853 
Q 188.702796 190.54409 188.702796 190.935164 
Q 188.702796 191.324619 190.343869 191.547396 
Q 191.9894 191.769633 194.861277 191.769633 
Q 196.462214 191.769633 197.911531 191.712456 
Q 199.360847 191.654739 200.854758 191.531753 
L 200.854758 192.052824 
z
" clip-path="url(#p1f5a8ea128)" style="fill: #0000ff"/>
   </g>
   <g id="patch_24">
    <path d="M 200.854758 189.213213 
Q 199.069734 189.420961 197.149843 189.525309 
Q 195.229951 189.628709 193.183124 189.628709 
Q 188.55793 189.628709 185.856594 189.010209 
Q 183.155259 188.391708 183.155259 187.333997 
Q 183.155259 186.263953 185.904195 185.650196 
Q 188.657098 185.036439 193.444927 185.036439 
Q 195.289451 185.036439 196.979274 185.119917 
Q 198.673063 185.202447 200.172482 185.36561 
L 200.172482 186.281029 
Q 198.625462 186.071383 197.094309 185.967984 
Q 195.563155 185.863636 194.024068 185.863636 
Q 191.175964 185.863636 189.632911 186.244981 
Q 188.089857 186.625378 188.089857 187.333997 
Q 188.089857 188.035976 189.577376 188.419218 
Q 191.064896 188.801512 193.801932 188.801512 
Q 194.547675 188.801512 195.186317 188.779694 
Q 195.824959 188.756927 196.332699 188.709496 
L 196.332699 187.850046 
L 193.41716 187.850046 
L 193.41716 187.08451 
L 200.854758 187.08451 
L 200.854758 189.213213 
z
" clip-path="url(#p1f5a8ea128)" style="fill: #ffa600"/>
   </g>
   <g id="patch_25">
    <path d="M 183.155259 175.131542 
L 200.854758 175.131542 
L 200.854758 177.063273 
L 194.487054 177.063273 
L 194.487054 185.036439 
L 189.535311 185.036439 
L 189.535311 177.063273 
L 183.155259 177.063273 
L 183.155259 175.131542 
z
" clip-path="url(#p1f5a8ea128)" style="fill: #ff0000"/>
   </g>
   <g id="patch_26">
    <path d="M 195.415717 172.064124 
L 188.608774 172.064124 
L 187.533994 175.131542 
L 183.155259 175.131542 
L 189.408527 158.293218 
L 194.60149 158.293218 
L 200.854758 175.131542 
L 196.479641 175.131542 
L 195.415717 172.064124 
z
M 189.694411 168.938965 
L 194.319224 168.938965 
L 192.010437 162.241166 
L 189.694411 168.938965 
z
" clip-path="url(#p1f5a8ea128)" style="fill: #008000"/>
   </g>
   <g id="patch_27">
    <path d="M 214.046769 191.413843 
L 207.239826 191.413843 
L 206.165046 192.24 
L 201.786311 192.24 
L 208.039579 187.704883 
L 213.232542 187.704883 
L 219.48581 192.24 
L 215.110693 192.24 
L 214.046769 191.413843 
z
M 208.325463 190.572135 
L 212.950276 190.572135 
L 210.641488 188.768196 
L 208.325463 190.572135 
z
" clip-path="url(#p1f5a8ea128)" style="fill: #008000"/>
   </g>
   <g id="patch_28">
    <path d="M 219.48581 187.28693 
Q 218.005277 187.4941 216.40434 187.598889 
Q 214.803402 187.704883 213.059763 187.704883 
Q 207.860062 187.704883 204.823186 186.919565 
Q 201.786311 186.134248 201.786311 184.791258 
Q 201.786311 183.44345 204.823186 182.659337 
Q 207.860062 181.874019 213.059763 181.874019 
Q 214.803402 181.874019 216.40434 181.980013 
Q 218.005277 182.084802 219.48581 182.291972 
L 219.48581 183.45429 
Q 217.991899 183.17967 216.542582 183.051996 
Q 215.093266 182.924321 213.492328 182.924321 
Q 210.620452 182.924321 208.97492 183.42177 
Q 207.333848 183.918013 207.333848 184.791258 
Q 207.333848 185.660889 208.97492 186.158337 
Q 210.620452 186.654581 213.492328 186.654581 
Q 215.093266 186.654581 216.542582 186.526907 
Q 217.991899 186.398028 219.48581 186.123407 
L 219.48581 187.28693 
z
" clip-path="url(#p1f5a8ea128)" style="fill: #0000ff"/>
   </g>
   <g id="patch_29">
    <path d="M 219.48581 180.877517 
Q 217.700786 181.375768 215.780894 181.626031 
Q 213.861002 181.874019 211.814176 181.874019 
Q 207.188981 181.874019 204.487646 180.390641 
Q 201.786311 178.907263 201.786311 176.370504 
Q 201.786311 173.804169 204.535247 172.332167 
Q 207.288149 170.860164 212.075979 170.860164 
Q 213.920503 170.860164 215.610325 171.060375 
Q 217.304114 171.25831 218.803534 171.649631 
L 218.803534 173.845121 
Q 217.256514 173.34232 215.72536 173.094332 
Q 214.194207 172.844069 212.65512 172.844069 
Q 209.807016 172.844069 208.263962 173.758667 
Q 206.720909 174.67099 206.720909 176.370504 
Q 206.720909 178.054093 208.208428 178.973241 
Q 209.695948 179.890115 212.432984 179.890115 
Q 213.178727 179.890115 213.817369 179.837787 
Q 214.45601 179.783184 214.96375 179.669428 
L 214.96375 177.608169 
L 212.048212 177.608169 
L 212.048212 175.772148 
L 219.48581 175.772148 
L 219.48581 180.877517 
z
" clip-path="url(#p1f5a8ea128)" style="fill: #ffa600"/>
   </g>
   <g id="patch_30">
    <path d="M 201.786311 131.177893 
L 219.48581 131.177893 
L 219.48581 138.917042 
L 213.118106 138.917042 
L 213.118106 170.860164 
L 208.166363 170.860164 
L 208.166363 138.917042 
L 201.786311 138.917042 
L 201.786311 131.177893 
z
" clip-path="url(#p1f5a8ea128)" style="fill: #ff0000"/>
   </g>
   <g id="patch_31">
    <path d="M 238.116861 191.966802 
Q 236.636329 192.10222 235.035392 192.170716 
Q 233.434454 192.24 231.690815 192.24 
Q 226.491113 192.24 223.454238 191.726671 
Q 220.417362 191.213342 220.417362 190.335486 
Q 220.417362 189.454482 223.454238 188.94194 
Q 226.491113 188.428611 231.690815 188.428611 
Q 233.434454 188.428611 235.035392 188.497895 
Q 236.636329 188.566391 238.116861 188.701809 
L 238.116861 189.461567 
Q 236.622951 189.28206 235.173634 189.198604 
Q 233.724318 189.115149 232.12338 189.115149 
Q 229.251504 189.115149 227.605972 189.44031 
Q 225.9649 189.764684 225.9649 190.335486 
Q 225.9649 190.903927 227.605972 191.229088 
Q 229.251504 191.553462 232.12338 191.553462 
Q 233.724318 191.553462 235.173634 191.470007 
Q 236.622951 191.385764 238.116861 191.206256 
L 238.116861 191.966802 
z
" clip-path="url(#p1f5a8ea128)" style="fill: #0000ff"/>
   </g>
   <g id="patch_32">
    <path d="M 220.417362 182.28804 
L 238.116861 182.28804 
L 238.116861 183.485622 
L 231.749158 183.485622 
L 231.749158 188.428611 
L 226.797414 188.428611 
L 226.797414 183.485622 
L 220.417362 183.485622 
L 220.417362 182.28804 
z
" clip-path="url(#p1f5a8ea128)" style="fill: #ff0000"/>
   </g>
   <g id="patch_33">
    <path d="M 238.116861 181.061929 
Q 236.331838 181.674984 234.411946 181.982912 
Q 232.492054 182.28804 230.445227 182.28804 
Q 225.820033 182.28804 223.118698 180.46287 
Q 220.417362 178.6377 220.417362 175.516436 
Q 220.417362 172.35878 223.166298 170.547607 
Q 225.919201 168.736434 230.707031 168.736434 
Q 232.551555 168.736434 234.241377 168.982776 
Q 235.935166 169.226319 237.434586 169.707805 
L 237.434586 172.409169 
Q 235.887565 171.790514 234.356412 171.485386 
Q 232.825259 171.177459 231.286172 171.177459 
Q 228.438068 171.177459 226.895014 172.302794 
Q 225.35196 173.425329 225.35196 175.516436 
Q 225.35196 177.587948 226.83948 178.718881 
Q 228.327 179.847015 231.064035 179.847015 
Q 231.809779 179.847015 232.44842 179.78263 
Q 233.087062 179.715446 233.594802 179.575479 
L 233.594802 177.039277 
L 230.679264 177.039277 
L 230.679264 174.78021 
L 238.116861 174.78021 
L 238.116861 181.061929 
z
" clip-path="url(#p1f5a8ea128)" style="fill: #ffa600"/>
   </g>
   <g id="patch_34">
    <path d="M 232.677821 158.47598 
L 225.870878 158.47598 
L 224.796097 168.736434 
L 220.417362 168.736434 
L 226.67063 112.412574 
L 231.863593 112.412574 
L 238.116861 168.736434 
L 233.741745 168.736434 
L 232.677821 158.47598 
z
M 226.956515 148.022387 
L 231.581328 148.022387 
L 229.27254 125.618383 
L 226.956515 148.022387 
z
" clip-path="url(#p1f5a8ea128)" style="fill: #008000"/>
   </g>
   <g id="patch_35">
    <path d="M 256.747913 191.905405 
Q 255.267381 192.071256 253.666443 192.155146 
Q 252.065506 192.24 250.321867 192.24 
Q 245.122165 192.24 242.08529 191.611308 
Q 239.048414 190.982616 239.048414 189.907475 
Q 239.048414 188.828477 242.08529 188.200749 
Q 245.122165 187.572057 250.321867 187.572057 
Q 252.065506 187.572057 253.666443 187.656911 
Q 255.267381 187.740801 256.747913 187.906652 
L 256.747913 188.837155 
Q 255.254002 188.617306 253.804686 188.515095 
Q 252.355369 188.412885 250.754432 188.412885 
Q 247.882556 188.412885 246.237024 188.811121 
Q 244.595952 189.208392 244.595952 189.907475 
Q 244.595952 190.603665 246.237024 191.001901 
Q 247.882556 191.399172 250.754432 191.399172 
Q 252.355369 191.399172 253.804686 191.296962 
Q 255.254002 191.193787 256.747913 190.973937 
L 256.747913 191.905405 
z
" clip-path="url(#p1f5a8ea128)" style="fill: #0000ff"/>
   </g>
   <g id="patch_36">
    <path d="M 256.747913 186.952622 
Q 254.96289 187.262339 253.042998 187.417905 
Q 251.123106 187.572057 249.076279 187.572057 
Q 244.451085 187.572057 241.74975 186.649975 
Q 239.048414 185.727893 239.048414 184.15102 
Q 239.048414 182.555762 241.79735 181.640751 
Q 244.550253 180.725741 249.338083 180.725741 
Q 251.182607 180.725741 252.872429 180.850194 
Q 254.566218 180.973232 256.065638 181.216481 
L 256.065638 182.581218 
Q 254.518617 182.268672 252.987464 182.11452 
Q 251.45631 181.958955 249.917223 181.958955 
Q 247.069119 181.958955 245.526066 182.527477 
Q 243.983012 183.094586 243.983012 184.15102 
Q 243.983012 185.197555 245.470532 185.768906 
Q 246.958051 186.338843 249.695087 186.338843 
Q 250.44083 186.338843 251.079472 186.306316 
Q 251.718114 186.272374 252.225854 186.201662 
L 252.225854 184.920365 
L 249.310315 184.920365 
L 249.310315 183.779076 
L 256.747913 183.779076 
L 256.747913 186.952622 
z
" clip-path="url(#p1f5a8ea128)" style="fill: #ffa600"/>
   </g>
   <g id="patch_37">
    <path d="M 251.308873 179.025033 
L 244.50193 179.025033 
L 243.427149 180.725741 
L 239.048414 180.725741 
L 245.301682 171.389855 
L 250.494645 171.389855 
L 256.747913 180.725741 
L 252.372797 180.725741 
L 251.308873 179.025033 
z
M 245.587567 177.292312 
L 250.212379 177.292312 
L 247.903592 173.578766 
L 245.587567 177.292312 
z
" clip-path="url(#p1f5a8ea128)" style="fill: #008000"/>
   </g>
   <g id="patch_38">
    <path d="M 239.048414 74.919034 
L 256.747913 74.919034 
L 256.747913 93.733532 
L 250.38021 93.733532 
L 250.38021 171.389855 
L 245.428466 171.389855 
L 245.428466 93.733532 
L 239.048414 93.733532 
L 239.048414 74.919034 
z
" clip-path="url(#p1f5a8ea128)" style="fill: #ff0000"/>
   </g>
   <g id="patch_39">
    <path d="M 275.378965 192.11351 
Q 273.898432 192.176208 272.297495 192.207922 
Q 270.696558 192.24 268.952919 192.24 
Q 263.753217 192.24 260.716341 192.002329 
Q 257.679466 191.764659 257.679466 191.358213 
Q 257.679466 190.950308 260.716341 190.713002 
Q 263.753217 190.475332 268.952919 190.475332 
Q 270.696558 190.475332 272.297495 190.50741 
Q 273.898432 190.539124 275.378965 190.601822 
L 275.378965 190.953589 
Q 273.885054 190.870477 272.435738 190.831838 
Q 270.986421 190.793198 269.385484 190.793198 
Q 266.513607 190.793198 264.868076 190.943747 
Q 263.227003 191.093932 263.227003 191.358213 
Q 263.227003 191.6214 264.868076 191.771949 
Q 266.513607 191.922134 269.385484 191.922134 
Q 270.986421 191.922134 272.435738 191.883494 
Q 273.885054 191.84449 275.378965 191.761378 
L 275.378965 192.11351 
z
" clip-path="url(#p1f5a8ea128)" style="fill: #0000ff"/>
   </g>
   <g id="patch_40">
    <path d="M 275.378965 190.156007 
Q 273.593941 190.315669 271.67405 190.395865 
Q 269.754158 190.475332 267.707331 190.475332 
Q 263.082137 190.475332 260.380801 189.99999 
Q 257.679466 189.524649 257.679466 188.711757 
Q 257.679466 187.889387 260.428402 187.417691 
Q 263.181305 186.945995 267.969134 186.945995 
Q 269.813659 186.945995 271.503481 187.010151 
Q 273.19727 187.073579 274.696689 187.198975 
L 274.696689 187.90251 
Q 273.149669 187.74139 271.618516 187.661923 
Q 270.087362 187.581727 268.548275 187.581727 
Q 265.700171 187.581727 264.157118 187.874806 
Q 262.614064 188.167155 262.614064 188.711757 
Q 262.614064 189.251255 264.101583 189.545791 
Q 265.589103 189.839599 268.326139 189.839599 
Q 269.071882 189.839599 269.710524 189.822831 
Q 270.349166 189.805334 270.856906 189.768881 
L 270.856906 189.108361 
L 267.941367 189.108361 
L 267.941367 188.520016 
L 275.378965 188.520016 
L 275.378965 190.156007 
z
" clip-path="url(#p1f5a8ea128)" style="fill: #ffa600"/>
   </g>
   <g id="patch_41">
    <path d="M 269.939924 185.49939 
L 263.132981 185.49939 
L 262.058201 186.945995 
L 257.679466 186.945995 
L 263.932734 179.004987 
L 269.125697 179.004987 
L 275.378965 186.945995 
L 271.003849 186.945995 
L 269.939924 185.49939 
z
M 264.218618 184.025555 
L 268.843431 184.025555 
L 266.534644 180.866852 
L 264.218618 184.025555 
z
" clip-path="url(#p1f5a8ea128)" style="fill: #008000"/>
   </g>
   <g id="patch_42">
    <path d="M 257.679466 25.92 
L 275.378965 25.92 
L 275.378965 55.775838 
L 269.011261 55.775838 
L 269.011261 179.004987 
L 264.059518 179.004987 
L 264.059518 55.775838 
L 257.679466 55.775838 
L 257.679466 25.92 
z
" clip-path="url(#p1f5a8ea128)" style="fill: #ff0000"/>
   </g>
   <g id="patch_43">
    <path d="M 294.010017 191.759525 
Q 292.224993 191.999762 290.305101 192.12043 
Q 288.385209 192.24 286.338383 192.24 
Q 281.713188 192.24 279.011853 191.524772 
Q 276.310518 190.809544 276.310518 189.586416 
Q 276.310518 188.349028 279.059454 187.639284 
Q 281.812356 186.929541 286.600186 186.929541 
Q 288.44471 186.929541 290.134532 187.026075 
Q 291.828321 187.121512 293.327741 187.310192 
L 293.327741 188.368773 
Q 291.780721 188.126342 290.249567 188.006771 
Q 288.718414 187.886104 287.179327 187.886104 
Q 284.331223 187.886104 282.788169 188.327088 
Q 281.245116 188.766975 281.245116 189.586416 
Q 281.245116 190.398178 282.732635 190.841356 
Q 284.220155 191.283437 286.957191 191.283437 
Q 287.702934 191.283437 288.341576 191.258207 
Q 288.980217 191.231879 289.487957 191.177031 
L 289.487957 190.183171 
L 286.572419 190.183171 
L 286.572419 189.297912 
L 294.010017 189.297912 
L 294.010017 191.759525 
z
" clip-path="url(#p1f5a8ea128)" style="fill: #ffa600"/>
   </g>
   <g id="patch_44">
    <path d="M 288.570976 185.893041 
L 281.764033 185.893041 
L 280.689253 186.929541 
L 276.310518 186.929541 
L 282.563786 181.239764 
L 287.756749 181.239764 
L 294.010017 186.929541 
L 289.6349 186.929541 
L 288.570976 185.893041 
z
M 282.84967 184.83703 
L 287.474483 184.83703 
L 285.165695 182.573801 
L 282.84967 184.83703 
z
" clip-path="url(#p1f5a8ea128)" style="fill: #008000"/>
   </g>
   <g id="patch_45">
    <path d="M 294.010017 180.804735 
Q 292.529484 181.020369 290.928547 181.12944 
Q 289.32761 181.239764 287.58397 181.239764 
Q 282.384269 181.239764 279.347393 180.422361 
Q 276.310518 179.604957 276.310518 178.207097 
Q 276.310518 176.804222 279.347393 175.988072 
Q 282.384269 175.170668 287.58397 175.170668 
Q 289.32761 175.170668 290.928547 175.280993 
Q 292.529484 175.390063 294.010017 175.605697 
L 294.010017 176.815505 
Q 292.516106 176.529664 291.066789 176.396774 
Q 289.617473 176.263883 288.016535 176.263883 
Q 285.144659 176.263883 283.499127 176.781655 
Q 281.858055 177.298174 281.858055 178.207097 
Q 281.858055 179.112258 283.499127 179.630031 
Q 285.144659 180.14655 288.016535 180.14655 
Q 289.617473 180.14655 291.066789 180.013659 
Q 292.516106 179.879514 294.010017 179.593674 
L 294.010017 180.804735 
z
" clip-path="url(#p1f5a8ea128)" style="fill: #0000ff"/>
   </g>
   <g id="patch_46">
    <path d="M 276.310518 49.236932 
L 294.010017 49.236932 
L 294.010017 73.79752 
L 287.642313 73.79752 
L 287.642313 175.170668 
L 282.69057 175.170668 
L 282.69057 73.79752 
L 276.310518 73.79752 
L 276.310518 49.236932 
z
" clip-path="url(#p1f5a8ea128)" style="fill: #ff0000"/>
   </g>
   <g id="patch_47">
    <path d="M 307.202028 191.193858 
L 300.395085 191.193858 
L 299.320305 192.24 
L 294.941569 192.24 
L 301.194837 186.497295 
L 306.3878 186.497295 
L 312.641068 192.24 
L 308.265952 192.24 
L 307.202028 191.193858 
z
M 301.480722 190.128024 
L 306.105535 190.128024 
L 303.796747 187.843741 
L 301.480722 190.128024 
z
" clip-path="url(#p1f5a8ea128)" style="fill: #008000"/>
   </g>
   <g id="patch_48">
    <path d="M 312.641068 185.977711 
Q 310.856045 186.237503 308.936153 186.367992 
Q 307.016261 186.497295 304.969434 186.497295 
Q 300.34424 186.497295 297.642905 185.72385 
Q 294.941569 184.950406 294.941569 183.627721 
Q 294.941569 182.289615 297.690505 181.522102 
Q 300.443408 180.754589 305.231238 180.754589 
Q 307.075762 180.754589 308.765584 180.858981 
Q 310.459373 180.962186 311.958793 181.166223 
L 311.958793 182.310968 
Q 310.411772 182.048804 308.880619 181.919501 
Q 307.349466 181.789012 305.810379 181.789012 
Q 302.962275 181.789012 301.419221 182.26589 
Q 299.876167 182.741582 299.876167 183.627721 
Q 299.876167 184.505557 301.363687 184.984808 
Q 302.851207 185.462872 305.588242 185.462872 
Q 306.333986 185.462872 306.972627 185.435588 
Q 307.611269 185.407118 308.119009 185.347805 
L 308.119009 184.273049 
L 305.203471 184.273049 
L 305.203471 183.315734 
L 312.641068 183.315734 
L 312.641068 185.977711 
z
" clip-path="url(#p1f5a8ea128)" style="fill: #ffa600"/>
   </g>
   <g id="patch_49">
    <path d="M 312.641068 180.265774 
Q 311.160536 180.508069 309.559599 180.630625 
Q 307.958661 180.754589 306.215022 180.754589 
Q 301.01532 180.754589 297.978445 179.836124 
Q 294.941569 178.917659 294.941569 177.346971 
Q 294.941569 175.770648 297.978445 174.853592 
Q 301.01532 173.935127 306.215022 173.935127 
Q 307.958661 173.935127 309.559599 174.059091 
Q 311.160536 174.181647 312.641068 174.423942 
L 312.641068 175.783327 
Q 311.147158 175.462145 309.697841 175.312824 
Q 308.248525 175.163503 306.647587 175.163503 
Q 303.775711 175.163503 302.130179 175.745292 
Q 300.489107 176.325672 300.489107 177.346971 
Q 300.489107 178.364044 302.130179 178.945833 
Q 303.775711 179.526213 306.647587 179.526213 
Q 308.248525 179.526213 309.697841 179.376892 
Q 311.147158 179.226162 312.641068 178.904981 
L 312.641068 180.265774 
z
" clip-path="url(#p1f5a8ea128)" style="fill: #0000ff"/>
   </g>
   <g id="patch_50">
    <path d="M 294.941569 56.927506 
L 312.641068 56.927506 
L 312.641068 79.747252 
L 306.273365 79.747252 
L 306.273365 173.935127 
L 301.321621 173.935127 
L 301.321621 79.747252 
L 294.941569 79.747252 
L 294.941569 56.927506 
z
" clip-path="url(#p1f5a8ea128)" style="fill: #ff0000"/>
   </g>
   <g id="patch_51">
    <path d="M 331.27212 191.957726 
Q 329.791588 192.097643 328.19065 192.168415 
Q 326.589713 192.24 324.846074 192.24 
Q 319.646372 192.24 316.609497 191.709618 
Q 313.572621 191.179236 313.572621 190.272218 
Q 313.572621 189.361946 316.609497 188.832378 
Q 319.646372 188.301996 324.846074 188.301996 
Q 326.589713 188.301996 328.19065 188.373581 
Q 329.791588 188.444353 331.27212 188.58427 
L 331.27212 189.369268 
Q 329.778209 189.183797 328.328893 189.097569 
Q 326.879576 189.011341 325.278639 189.011341 
Q 322.406763 189.011341 320.761231 189.347304 
Q 319.120159 189.682453 319.120159 190.272218 
Q 319.120159 190.859543 320.761231 191.195506 
Q 322.406763 191.530655 325.278639 191.530655 
Q 326.879576 191.530655 328.328893 191.444427 
Q 329.778209 191.357386 331.27212 191.171915 
L 331.27212 191.957726 
z
" clip-path="url(#p1f5a8ea128)" style="fill: #0000ff"/>
   </g>
   <g id="patch_52">
    <path d="M 313.572621 182.920058 
L 331.27212 182.920058 
L 331.27212 183.969686 
L 324.904417 183.969686 
L 324.904417 188.301996 
L 319.952673 188.301996 
L 319.952673 183.969686 
L 313.572621 183.969686 
L 313.572621 182.920058 
z
" clip-path="url(#p1f5a8ea128)" style="fill: #ff0000"/>
   </g>
   <g id="patch_53">
    <path d="M 331.27212 181.969926 
Q 329.487097 182.444992 327.567205 182.683609 
Q 325.647313 182.920058 323.600486 182.920058 
Q 318.975292 182.920058 316.273957 181.505706 
Q 313.572621 180.091354 313.572621 177.67264 
Q 313.572621 175.225725 316.321557 173.822219 
Q 319.07446 172.418714 323.86229 172.418714 
Q 325.706814 172.418714 327.396636 172.609608 
Q 329.090425 172.798333 330.589845 173.171444 
L 330.589845 175.264771 
Q 329.042824 174.785367 327.511671 174.548918 
Q 325.980517 174.310301 324.44143 174.310301 
Q 321.593326 174.310301 320.050273 175.18234 
Q 318.507219 176.052209 318.507219 177.67264 
Q 318.507219 179.277885 319.994739 180.154263 
Q 321.482258 181.028471 324.219294 181.028471 
Q 324.965037 181.028471 325.603679 180.978578 
Q 326.242321 180.926516 326.750061 180.818054 
L 326.750061 178.852712 
L 323.834523 178.852712 
L 323.834523 177.102127 
L 331.27212 177.102127 
L 331.27212 181.969926 
z
" clip-path="url(#p1f5a8ea128)" style="fill: #ffa600"/>
   </g>
   <g id="patch_54">
    <path d="M 325.83308 167.014438 
L 319.026137 167.014438 
L 317.951356 172.418714 
L 313.572621 172.418714 
L 319.825889 142.752419 
L 325.018852 142.752419 
L 331.27212 172.418714 
L 326.897004 172.418714 
L 325.83308 167.014438 
z
M 320.111774 161.508435 
L 324.736586 161.508435 
L 322.427799 149.70804 
L 320.111774 161.508435 
z
" clip-path="url(#p1f5a8ea128)" style="fill: #008000"/>
   </g>
   <g id="patch_55">
    <path d="M 349.903172 192.183277 
Q 348.118149 192.211639 346.198257 192.225884 
Q 344.278365 192.24 342.231538 192.24 
Q 337.606344 192.24 334.905008 192.155564 
Q 332.203673 192.071127 332.203673 191.926731 
Q 332.203673 191.78065 334.952609 191.696862 
Q 337.705512 191.613073 342.493341 191.613073 
Q 344.337866 191.613073 346.027688 191.624469 
Q 347.721477 191.635736 349.220896 191.65801 
L 349.220896 191.782982 
Q 347.673876 191.754361 346.142723 191.740245 
Q 344.611569 191.726 343.072482 191.726 
Q 340.224378 191.726 338.681325 191.77806 
Q 337.138271 191.829991 337.138271 191.926731 
Q 337.138271 192.022563 338.62579 192.074883 
Q 340.11331 192.127073 342.850346 192.127073 
Q 343.596089 192.127073 344.234731 192.124094 
Q 344.873373 192.120986 345.381113 192.114511 
L 345.381113 191.997181 
L 342.465574 191.997181 
L 342.465574 191.892671 
L 349.903172 191.892671 
L 349.903172 192.183277 
z
" clip-path="url(#p1f5a8ea128)" style="fill: #ffa600"/>
   </g>
   <g id="patch_56">
    <path d="M 349.903172 191.558366 
Q 348.422639 191.585483 346.821702 191.599199 
Q 345.220765 191.613073 343.477126 191.613073 
Q 338.277424 191.613073 335.240548 191.510281 
Q 332.203673 191.407488 332.203673 191.231701 
Q 332.203673 191.055283 335.240548 190.952649 
Q 338.277424 190.849857 343.477126 190.849857 
Q 345.220765 190.849857 346.821702 190.863731 
Q 348.422639 190.877447 349.903172 190.904564 
L 349.903172 191.056702 
Q 348.409261 191.020757 346.959945 191.004045 
Q 345.510628 190.987333 343.909691 190.987333 
Q 341.037814 190.987333 339.392283 191.052446 
Q 337.75121 191.1174 337.75121 191.231701 
Q 337.75121 191.345529 339.392283 191.410642 
Q 341.037814 191.475596 343.909691 191.475596 
Q 345.510628 191.475596 346.959945 191.458884 
Q 348.409261 191.442015 349.903172 191.406069 
L 349.903172 191.558366 
z
" clip-path="url(#p1f5a8ea128)" style="fill: #0000ff"/>
   </g>
   <g id="patch_57">
    <path d="M 344.464131 190.677719 
L 337.657188 190.677719 
L 336.582408 190.849857 
L 332.203673 190.849857 
L 338.456941 189.904923 
L 343.649904 189.904923 
L 349.903172 190.849857 
L 345.528056 190.849857 
L 344.464131 190.677719 
z
M 338.742825 190.502341 
L 343.367638 190.502341 
L 341.058851 190.126474 
L 338.742825 190.502341 
z
" clip-path="url(#p1f5a8ea128)" style="fill: #008000"/>
   </g>
   <g id="patch_58">
    <path d="M 332.203673 188.814614 
L 349.903172 188.814614 
L 349.903172 189.027255 
L 343.535468 189.027255 
L 343.535468 189.904923 
L 338.583725 189.904923 
L 338.583725 189.027255 
L 332.203673 189.027255 
L 332.203673 188.814614 
z
" clip-path="url(#p1f5a8ea128)" style="fill: #ff0000"/>
   </g>
   <g id="patch_59">
    <path d="M 368.534224 191.851317 
Q 367.053691 192.043978 365.452754 192.141429 
Q 363.851817 192.24 362.108177 192.24 
Q 356.908476 192.24 353.8716 191.50968 
Q 350.834725 190.779359 350.834725 189.530422 
Q 350.834725 188.277004 353.8716 187.547804 
Q 356.908476 186.817483 362.108177 186.817483 
Q 363.851817 186.817483 365.452754 186.916054 
Q 367.053691 187.013505 368.534224 187.206166 
L 368.534224 188.287085 
Q 367.040313 188.031697 365.590996 187.912964 
Q 364.14168 187.794231 362.540743 187.794231 
Q 359.668866 187.794231 358.023334 188.256842 
Q 356.382262 188.718333 356.382262 189.530422 
Q 356.382262 190.339151 358.023334 190.801762 
Q 359.668866 191.263253 362.540743 191.263253 
Q 364.14168 191.263253 365.590996 191.144519 
Q 367.040313 191.024666 368.534224 190.769278 
L 368.534224 191.851317 
z
" clip-path="url(#p1f5a8ea128)" style="fill: #0000ff"/>
   </g>
   <g id="patch_60">
    <path d="M 350.834725 180.110687 
L 368.534224 180.110687 
L 368.534224 181.418699 
L 362.16652 181.418699 
L 362.16652 186.817483 
L 357.214777 186.817483 
L 357.214777 181.418699 
L 350.834725 181.418699 
L 350.834725 180.110687 
z
" clip-path="url(#p1f5a8ea128)" style="fill: #ff0000"/>
   </g>
   <g id="patch_61">
    <path d="M 368.534224 179.43932 
Q 366.7492 179.775003 364.829308 179.943611 
Q 362.909416 180.110687 360.86259 180.110687 
Q 356.237396 180.110687 353.53606 179.111301 
Q 350.834725 178.111915 350.834725 176.402843 
Q 350.834725 174.673844 353.583661 173.682123 
Q 356.336563 172.690401 361.124393 172.690401 
Q 362.968917 172.690401 364.658739 172.825287 
Q 366.352528 172.958641 367.851948 173.222282 
L 367.851948 174.701435 
Q 366.304928 174.362686 364.773774 174.195611 
Q 363.242621 174.027003 361.703534 174.027003 
Q 358.85543 174.027003 357.312376 174.643188 
Q 355.769323 175.257841 355.769323 176.402843 
Q 355.769323 177.537115 357.256842 178.156366 
Q 358.744362 178.774085 361.481398 178.774085 
Q 362.227141 178.774085 362.865783 178.73883 
Q 363.504424 178.702043 364.012164 178.625403 
L 364.012164 177.236686 
L 361.096626 177.236686 
L 361.096626 175.999716 
L 368.534224 175.999716 
L 368.534224 179.43932 
z
" clip-path="url(#p1f5a8ea128)" style="fill: #ffa600"/>
   </g>
   <g id="patch_62">
    <path d="M 363.095183 166.451577 
L 356.28824 166.451577 
L 355.21346 172.690401 
L 350.834725 172.690401 
L 357.087993 138.442928 
L 362.280956 138.442928 
L 368.534224 172.690401 
L 364.159107 172.690401 
L 363.095183 166.451577 
z
M 357.373877 160.095316 
L 361.99869 160.095316 
L 359.689902 146.472661 
L 357.373877 160.095316 
z
" clip-path="url(#p1f5a8ea128)" style="fill: #008000"/>
   </g>
   <g id="patch_63">
    <path d="M 387.165275 192.084009 
Q 385.684743 192.16133 384.083806 192.20044 
Q 382.482868 192.24 380.739229 192.24 
Q 375.539527 192.24 372.502652 191.946898 
Q 369.465776 191.653796 369.465776 191.152555 
Q 369.465776 190.649517 372.502652 190.356864 
Q 375.539527 190.063762 380.739229 190.063762 
Q 382.482868 190.063762 384.083806 190.103322 
Q 385.684743 190.142432 387.165275 190.219754 
L 387.165275 190.653563 
Q 385.671365 190.551067 384.222048 190.503415 
Q 382.772732 190.455764 381.171794 190.455764 
Q 378.299918 190.455764 376.654386 190.641425 
Q 375.013314 190.826637 375.013314 191.152555 
Q 375.013314 191.477125 376.654386 191.662787 
Q 378.299918 191.847998 381.171794 191.847998 
Q 382.772732 191.847998 384.222048 191.800347 
Q 385.671365 191.752246 387.165275 191.64975 
L 387.165275 192.084009 
z
" clip-path="url(#p1f5a8ea128)" style="fill: #0000ff"/>
   </g>
   <g id="patch_64">
    <path d="M 381.726235 188.977854 
L 374.919292 188.977854 
L 373.844512 190.063762 
L 369.465776 190.063762 
L 375.719044 184.102763 
L 380.912007 184.102763 
L 387.165275 190.063762 
L 382.790159 190.063762 
L 381.726235 188.977854 
z
M 376.004929 187.871505 
L 380.629742 187.871505 
L 378.320954 185.500391 
L 376.004929 187.871505 
z
" clip-path="url(#p1f5a8ea128)" style="fill: #008000"/>
   </g>
   <g id="patch_65">
    <path d="M 369.465776 174.735479 
L 387.165275 174.735479 
L 387.165275 176.56236 
L 380.797572 176.56236 
L 380.797572 184.102763 
L 375.845828 184.102763 
L 375.845828 176.56236 
L 369.465776 176.56236 
L 369.465776 174.735479 
z
" clip-path="url(#p1f5a8ea128)" style="fill: #ff0000"/>
   </g>
   <g id="patch_66">
    <path d="M 387.165275 173.091793 
Q 385.380252 173.913636 383.46036 174.326434 
Q 381.540468 174.735479 379.493641 174.735479 
Q 374.868447 174.735479 372.167112 172.288714 
Q 369.465776 169.841949 369.465776 165.657681 
Q 369.465776 161.424627 372.214712 158.996626 
Q 374.967615 156.568625 379.755445 156.568625 
Q 381.599969 156.568625 383.289791 156.898863 
Q 384.98358 157.225348 386.483 157.870814 
L 386.483 161.492176 
Q 384.93598 160.662828 383.404826 160.253783 
Q 381.873673 159.840985 380.334586 159.840985 
Q 377.486482 159.840985 375.943428 161.349573 
Q 374.400374 162.854409 374.400374 165.657681 
Q 374.400374 168.434684 375.887894 169.950778 
Q 377.375414 171.463118 380.112449 171.463118 
Q 380.858193 171.463118 381.496834 171.376806 
Q 382.135476 171.286741 382.643216 171.099106 
L 382.643216 167.699153 
L 379.727678 167.699153 
L 379.727678 164.670719 
L 387.165275 164.670719 
L 387.165275 173.091793 
z
" clip-path="url(#p1f5a8ea128)" style="fill: #ffa600"/>
   </g>
   <g id="patch_67">
    <path d="M 405.796327 191.808063 
Q 404.011304 192.024031 402.091412 192.132509 
Q 400.17152 192.24 398.124693 192.24 
Q 393.499499 192.24 390.798164 191.597025 
Q 388.096828 190.95405 388.096828 189.854484 
Q 388.096828 188.742098 390.845764 188.104054 
Q 393.598667 187.46601 398.386497 187.46601 
Q 400.231021 187.46601 401.920843 187.552792 
Q 403.614632 187.638588 405.114052 187.808207 
L 405.114052 188.759849 
Q 403.567031 188.541908 402.035878 188.434417 
Q 400.504724 188.32594 398.965637 188.32594 
Q 396.117533 188.32594 394.57448 188.722375 
Q 393.031426 189.117824 393.031426 189.854484 
Q 393.031426 190.584241 394.518946 190.982649 
Q 396.006465 191.38007 398.743501 191.38007 
Q 399.489244 191.38007 400.127886 191.357389 
Q 400.766528 191.333721 401.274268 191.284413 
L 401.274268 190.390954 
L 398.35873 190.390954 
L 398.35873 189.595125 
L 405.796327 189.595125 
L 405.796327 191.808063 
z
" clip-path="url(#p1f5a8ea128)" style="fill: #ffa600"/>
   </g>
   <g id="patch_68">
    <path d="M 405.796327 186.867166 
Q 404.315795 187.163999 402.714857 187.314142 
Q 401.11392 187.46601 399.370281 187.46601 
Q 394.170579 187.46601 391.133704 186.340804 
Q 388.096828 185.215598 388.096828 183.291358 
Q 388.096828 181.360214 391.133704 180.236734 
Q 394.170579 179.111528 399.370281 179.111528 
Q 401.11392 179.111528 402.714857 179.263396 
Q 404.315795 179.413539 405.796327 179.710372 
L 405.796327 181.375746 
Q 404.302416 180.982269 402.8531 180.799337 
Q 401.403783 180.616405 399.802846 180.616405 
Q 396.93097 180.616405 395.285438 181.32915 
Q 393.644366 182.04017 393.644366 183.291358 
Q 393.644366 184.537368 395.285438 185.250114 
Q 396.93097 185.961133 399.802846 185.961133 
Q 401.403783 185.961133 402.8531 185.778201 
Q 404.302416 185.593543 405.796327 185.200066 
L 405.796327 186.867166 
z
" clip-path="url(#p1f5a8ea128)" style="fill: #0000ff"/>
   </g>
   <g id="patch_69">
    <path d="M 400.357287 177.415667 
L 393.550344 177.415667 
L 392.475563 179.111528 
L 388.096828 179.111528 
L 394.350096 169.802247 
L 399.543059 169.802247 
L 405.796327 179.111528 
L 401.421211 179.111528 
L 400.357287 177.415667 
z
M 394.635981 175.687883 
L 399.260793 175.687883 
L 396.952006 171.984921 
L 394.635981 175.687883 
z
" clip-path="url(#p1f5a8ea128)" style="fill: #008000"/>
   </g>
   <g id="patch_70">
    <path d="M 388.096828 102.25029 
L 405.796327 102.25029 
L 405.796327 115.424804 
L 399.428624 115.424804 
L 399.428624 169.802247 
L 394.47688 169.802247 
L 394.47688 115.424804 
L 388.096828 115.424804 
L 388.096828 102.25029 
z
" clip-path="url(#p1f5a8ea128)" style="fill: #ff0000"/>
   </g>
   <g id="patch_71">
    <path d="M 424.427379 191.930797 
Q 422.642356 192.085399 420.722464 192.163052 
Q 418.802572 192.24 416.755745 192.24 
Q 412.130551 192.24 409.429215 191.779726 
Q 406.72788 191.319451 406.72788 190.532326 
Q 406.72788 189.736023 409.476816 189.279278 
Q 412.229719 188.822534 417.017548 188.822534 
Q 418.862073 188.822534 420.551895 188.884657 
Q 422.245684 188.946074 423.745103 189.067496 
L 423.745103 189.74873 
Q 422.198083 189.592717 420.66693 189.515769 
Q 419.135776 189.438115 417.596689 189.438115 
Q 414.748585 189.438115 413.205532 189.721904 
Q 411.662478 190.004987 411.662478 190.532326 
Q 411.662478 191.054723 413.149997 191.339924 
Q 414.637517 191.624418 417.374553 191.624418 
Q 418.120296 191.624418 418.758938 191.608182 
Q 419.39758 191.591239 419.90532 191.555942 
L 419.90532 190.916358 
L 416.989781 190.916358 
L 416.989781 190.346663 
L 424.427379 190.346663 
L 424.427379 191.930797 
z
" clip-path="url(#p1f5a8ea128)" style="fill: #ffa600"/>
   </g>
   <g id="patch_72">
    <path d="M 424.427379 188.504083 
Q 422.946846 188.661932 421.345909 188.741774 
Q 419.744972 188.822534 418.001333 188.822534 
Q 412.801631 188.822534 409.764755 188.224177 
Q 406.72788 187.625821 406.72788 186.602557 
Q 406.72788 185.575623 409.764755 184.978185 
Q 412.801631 184.379828 418.001333 184.379828 
Q 419.744972 184.379828 421.345909 184.460588 
Q 422.946846 184.54043 424.427379 184.698278 
L 424.427379 185.583883 
Q 422.933468 185.374642 421.484152 185.277363 
Q 420.034835 185.180084 418.433898 185.180084 
Q 415.562021 185.180084 413.91649 185.559104 
Q 412.275417 185.937207 412.275417 186.602557 
Q 412.275417 187.265155 413.91649 187.644175 
Q 415.562021 188.022278 418.433898 188.022278 
Q 420.034835 188.022278 421.484152 187.924999 
Q 422.933468 187.826802 424.427379 187.617561 
L 424.427379 188.504083 
z
" clip-path="url(#p1f5a8ea128)" style="fill: #0000ff"/>
   </g>
   <g id="patch_73">
    <path d="M 418.988338 181.360431 
L 412.181395 181.360431 
L 411.106615 184.379828 
L 406.72788 184.379828 
L 412.981148 167.805117 
L 418.174111 167.805117 
L 424.427379 184.379828 
L 420.052263 184.379828 
L 418.988338 181.360431 
z
M 413.267032 178.284199 
L 417.891845 178.284199 
L 415.583058 171.691258 
L 413.267032 178.284199 
z
" clip-path="url(#p1f5a8ea128)" style="fill: #008000"/>
   </g>
   <g id="patch_74">
    <path d="M 406.72788 127.820764 
L 424.427379 127.820764 
L 424.427379 135.618827 
L 418.059675 135.618827 
L 418.059675 167.805117 
L 413.107932 167.805117 
L 413.107932 135.618827 
L 406.72788 135.618827 
L 406.72788 127.820764 
z
" clip-path="url(#p1f5a8ea128)" style="fill: #ff0000"/>
   </g>
   <g id="patch_75">
    <path d="M 443.058431 191.657825 
Q 441.273407 191.948913 439.353515 192.095121 
Q 437.433623 192.24 435.386797 192.24 
Q 430.761603 192.24 428.060267 191.373384 
Q 425.358932 190.506767 425.358932 189.024747 
Q 425.358932 187.525448 428.107868 186.665478 
Q 430.86077 185.805507 435.6486 185.805507 
Q 437.493124 185.805507 439.182946 185.922474 
Q 440.876735 186.038111 442.376155 186.266728 
L 442.376155 187.549373 
Q 440.829135 187.255627 439.297981 187.110748 
Q 437.766828 186.96454 436.227741 186.96454 
Q 433.379637 186.96454 431.836583 187.498865 
Q 430.29353 188.03186 430.29353 189.024747 
Q 430.29353 190.00833 431.781049 190.545313 
Q 433.268569 191.080967 436.005605 191.080967 
Q 436.751348 191.080967 437.38999 191.050396 
Q 438.028631 191.018496 438.536371 190.952038 
L 438.536371 189.747814 
L 435.620833 189.747814 
L 435.620833 188.675177 
L 443.058431 188.675177 
L 443.058431 191.657825 
z
" clip-path="url(#p1f5a8ea128)" style="fill: #ffa600"/>
   </g>
   <g id="patch_76">
    <path d="M 443.058431 185.310122 
Q 441.577898 185.555673 439.976961 185.679876 
Q 438.376024 185.805507 436.632384 185.805507 
Q 431.432683 185.805507 428.395807 184.874697 
Q 425.358932 183.943887 425.358932 182.352087 
Q 425.358932 180.754578 428.395807 179.825195 
Q 431.432683 178.894385 436.632384 178.894385 
Q 438.376024 178.894385 439.976961 179.020016 
Q 441.577898 179.144219 443.058431 179.38977 
L 443.058431 180.767426 
Q 441.56452 180.441928 440.115203 180.2906 
Q 438.665887 180.139272 437.06495 180.139272 
Q 434.193073 180.139272 432.547541 180.72888 
Q 430.906469 181.317061 430.906469 182.352087 
Q 430.906469 183.382831 432.547541 183.972439 
Q 434.193073 184.56062 437.06495 184.56062 
Q 438.665887 184.56062 440.115203 184.409292 
Q 441.56452 184.256536 443.058431 183.931038 
L 443.058431 185.310122 
z
" clip-path="url(#p1f5a8ea128)" style="fill: #0000ff"/>
   </g>
   <g id="patch_77">
    <path d="M 437.61939 177.288086 
L 430.812447 177.288086 
L 429.737667 178.894385 
L 425.358932 178.894385 
L 431.6122 170.076747 
L 436.805163 170.076747 
L 443.058431 178.894385 
L 438.683314 178.894385 
L 437.61939 177.288086 
z
M 431.898084 175.65155 
L 436.522897 175.65155 
L 434.214109 172.144148 
L 431.898084 175.65155 
z
" clip-path="url(#p1f5a8ea128)" style="fill: #008000"/>
   </g>
   <g id="patch_78">
    <path d="M 425.358932 102.395413 
L 443.058431 102.395413 
L 443.058431 115.595159 
L 436.690727 115.595159 
L 436.690727 170.076747 
L 431.738984 170.076747 
L 431.738984 115.595159 
L 425.358932 115.595159 
L 425.358932 102.395413 
z
" clip-path="url(#p1f5a8ea128)" style="fill: #ff0000"/>
   </g>
   <g id="patch_79">
    <path d="M 461.689482 191.859557 
Q 459.904459 192.049778 457.984567 192.145324 
Q 456.064675 192.24 454.017848 192.24 
Q 449.392654 192.24 446.691319 191.673678 
Q 443.989983 191.107357 443.989983 190.138877 
Q 443.989983 189.159106 446.738919 188.597128 
Q 449.491822 188.035149 454.279652 188.035149 
Q 456.124176 188.035149 457.813998 188.111585 
Q 459.507787 188.187153 461.007207 188.33655 
L 461.007207 189.174741 
Q 459.460187 188.982782 457.929033 188.888106 
Q 456.39788 188.792561 454.858793 188.792561 
Q 452.010689 188.792561 450.467635 189.141735 
Q 448.924581 189.49004 448.924581 190.138877 
Q 448.924581 190.781635 450.412101 191.132546 
Q 451.899621 191.482588 454.636656 191.482588 
Q 455.3824 191.482588 456.021041 191.462611 
Q 456.659683 191.441765 457.167423 191.398335 
L 457.167423 190.611391 
L 454.251885 190.611391 
L 454.251885 189.910438 
L 461.689482 189.910438 
L 461.689482 191.859557 
z
" clip-path="url(#p1f5a8ea128)" style="fill: #ffa600"/>
   </g>
   <g id="patch_80">
    <path d="M 461.689482 187.532814 
Q 460.20895 187.78181 458.608013 187.907756 
Q 457.007075 188.035149 455.263436 188.035149 
Q 450.063734 188.035149 447.026859 187.09128 
Q 443.989983 186.147411 443.989983 184.533278 
Q 443.989983 182.913355 447.026859 181.970934 
Q 450.063734 181.027064 455.263436 181.027064 
Q 457.007075 181.027064 458.608013 181.154458 
Q 460.20895 181.280403 461.689482 181.5294 
L 461.689482 182.926384 
Q 460.195572 182.596319 458.746255 182.442868 
Q 457.296939 182.289417 455.696001 182.289417 
Q 452.824125 182.289417 451.178593 182.887298 
Q 449.537521 183.48373 449.537521 184.533278 
Q 449.537521 185.578483 451.178593 186.176364 
Q 452.824125 186.772796 455.696001 186.772796 
Q 457.296939 186.772796 458.746255 186.619345 
Q 460.195572 186.464446 461.689482 186.134382 
L 461.689482 187.532814 
z
" clip-path="url(#p1f5a8ea128)" style="fill: #0000ff"/>
   </g>
   <g id="patch_81">
    <path d="M 443.989983 169.613898 
L 461.689482 169.613898 
L 461.689482 171.839783 
L 455.321779 171.839783 
L 455.321779 181.027064 
L 450.370035 181.027064 
L 450.370035 171.839783 
L 443.989983 171.839783 
L 443.989983 169.613898 
z
" clip-path="url(#p1f5a8ea128)" style="fill: #ff0000"/>
   </g>
   <g id="patch_82">
    <path d="M 456.250442 159.984272 
L 449.443499 159.984272 
L 448.368719 169.613898 
L 443.989983 169.613898 
L 450.243251 116.752915 
L 455.436214 116.752915 
L 461.689482 169.613898 
L 457.314366 169.613898 
L 456.250442 159.984272 
z
M 450.529136 150.173382 
L 455.153949 150.173382 
L 452.845161 129.14681 
L 450.529136 150.173382 
z
" clip-path="url(#p1f5a8ea128)" style="fill: #008000"/>
   </g>
   <g id="patch_83">
    <path d="M 480.320534 192.192889 
Q 478.535511 192.216445 476.615619 192.228276 
Q 474.695727 192.24 472.6489 192.24 
Q 468.023706 192.24 465.322371 192.169872 
Q 462.621035 192.099743 462.621035 191.979816 
Q 462.621035 191.858489 465.369971 191.788899 
Q 468.122874 191.719308 472.910704 191.719308 
Q 474.755228 191.719308 476.44505 191.728774 
Q 478.138839 191.738131 479.638259 191.756631 
L 479.638259 191.860425 
Q 478.091238 191.836655 476.560085 191.824931 
Q 475.028931 191.8131 473.489844 191.8131 
Q 470.64174 191.8131 469.098687 191.856338 
Q 467.555633 191.899469 467.555633 191.979816 
Q 467.555633 192.059409 469.043153 192.102863 
Q 470.530672 192.146209 473.267708 192.146209 
Q 474.013451 192.146209 474.652093 192.143735 
Q 475.290735 192.141154 475.798475 192.135776 
L 475.798475 192.038327 
L 472.882937 192.038327 
L 472.882937 191.951528 
L 480.320534 191.951528 
L 480.320534 192.192889 
z
" clip-path="url(#p1f5a8ea128)" style="fill: #ffa600"/>
   </g>
   <g id="patch_84">
    <path d="M 474.881494 191.585651 
L 468.074551 191.585651 
L 466.99977 191.719308 
L 462.621035 191.719308 
L 468.874303 190.985607 
L 474.067266 190.985607 
L 480.320534 191.719308 
L 475.945418 191.719308 
L 474.881494 191.585651 
z
M 469.160188 191.449477 
L 473.785 191.449477 
L 471.476213 191.157632 
L 469.160188 191.449477 
z
" clip-path="url(#p1f5a8ea128)" style="fill: #008000"/>
   </g>
   <g id="patch_85">
    <path d="M 462.621035 190.141455 
L 480.320534 190.141455 
L 480.320534 190.306088 
L 473.952831 190.306088 
L 473.952831 190.985607 
L 469.001087 190.985607 
L 469.001087 190.306088 
L 462.621035 190.306088 
L 462.621035 190.141455 
z
" clip-path="url(#p1f5a8ea128)" style="fill: #ff0000"/>
   </g>
   <g id="patch_86">
    <path d="M 480.320534 190.078685 
Q 478.840002 190.109798 477.239064 190.125536 
Q 475.638127 190.141455 473.894488 190.141455 
Q 468.694786 190.141455 465.657911 190.023512 
Q 462.621035 189.905569 462.621035 189.703872 
Q 462.621035 189.501451 465.657911 189.383689 
Q 468.694786 189.265746 473.894488 189.265746 
Q 475.638127 189.265746 477.239064 189.281665 
Q 478.840002 189.297403 480.320534 189.328517 
L 480.320534 189.503079 
Q 478.826623 189.461836 477.377307 189.442661 
Q 475.92799 189.423486 474.327053 189.423486 
Q 471.455177 189.423486 469.809645 189.498195 
Q 468.168573 189.572724 468.168573 189.703872 
Q 468.168573 189.834478 469.809645 189.909187 
Q 471.455177 189.983715 474.327053 189.983715 
Q 475.92799 189.983715 477.377307 189.96454 
Q 478.826623 189.945185 480.320534 189.903941 
L 480.320534 190.078685 
z
" clip-path="url(#p1f5a8ea128)" style="fill: #0000ff"/>
   </g>
   <g id="patch_87">
    <path d="M 498.951586 192.079314 
Q 497.471053 192.158962 495.870116 192.19925 
Q 494.269179 192.24 492.52554 192.24 
Q 487.325838 192.24 484.288962 191.938077 
Q 481.252087 191.636154 481.252087 191.119828 
Q 481.252087 190.60165 484.288962 190.30019 
Q 487.325838 189.998267 492.52554 189.998267 
Q 494.269179 189.998267 495.870116 190.039017 
Q 497.471053 190.079304 498.951586 190.158953 
L 498.951586 190.605818 
Q 497.457675 190.500237 496.008359 190.451152 
Q 494.559042 190.402066 492.958105 190.402066 
Q 490.086228 190.402066 488.440697 190.593315 
Q 486.799624 190.784101 486.799624 191.119828 
Q 486.799624 191.454166 488.440697 191.645415 
Q 490.086228 191.836201 492.958105 191.836201 
Q 494.559042 191.836201 496.008359 191.787115 
Q 497.457675 191.737567 498.951586 191.631986 
L 498.951586 192.079314 
z
" clip-path="url(#p1f5a8ea128)" style="fill: #0000ff"/>
   </g>
   <g id="patch_88">
    <path d="M 498.951586 189.296178 
Q 497.166563 189.647222 495.246671 189.823546 
Q 493.326779 189.998267 491.279952 189.998267 
Q 486.654758 189.998267 483.953422 188.953148 
Q 481.252087 187.908029 481.252087 186.120748 
Q 481.252087 184.312629 484.001023 183.275525 
Q 486.753926 182.238421 491.541755 182.238421 
Q 493.38628 182.238421 495.076102 182.37948 
Q 496.769891 182.518936 498.26931 182.794642 
L 498.26931 184.341482 
Q 496.72229 183.987231 495.191137 183.812511 
Q 493.659983 183.636187 492.120896 183.636187 
Q 489.272792 183.636187 487.729739 184.28057 
Q 486.186685 184.92335 486.186685 186.120748 
Q 486.186685 187.306926 487.674205 187.954515 
Q 489.161724 188.600501 491.89876 188.600501 
Q 492.644503 188.600501 493.283145 188.563633 
Q 493.921787 188.525162 494.429527 188.445015 
L 494.429527 186.992749 
L 491.513988 186.992749 
L 491.513988 185.699174 
L 498.951586 185.699174 
L 498.951586 189.296178 
z
" clip-path="url(#p1f5a8ea128)" style="fill: #ffa600"/>
   </g>
   <g id="patch_89">
    <path d="M 481.252087 168.788021 
L 498.951586 168.788021 
L 498.951586 171.411224 
L 492.583882 171.411224 
L 492.583882 182.238421 
L 487.632139 182.238421 
L 487.632139 171.411224 
L 481.252087 171.411224 
L 481.252087 168.788021 
z
" clip-path="url(#p1f5a8ea128)" style="fill: #ff0000"/>
   </g>
   <g id="patch_90">
    <path d="M 493.512545 161.217395 
L 486.705603 161.217395 
L 485.630822 168.788021 
L 481.252087 168.788021 
L 487.505355 127.229736 
L 492.698318 127.229736 
L 498.951586 168.788021 
L 494.57647 168.788021 
L 493.512545 161.217395 
z
M 487.791239 153.504263 
L 492.416052 153.504263 
L 490.107265 136.973577 
L 487.791239 153.504263 
z
" clip-path="url(#p1f5a8ea128)" style="fill: #008000"/>
   </g>
   <g id="patch_91">
    <path d="M 517.582638 191.783867 
Q 515.797614 192.011934 513.877722 192.126488 
Q 511.957831 192.24 509.911004 192.24 
Q 505.28581 192.24 502.584474 191.561008 
Q 499.883139 190.882016 499.883139 189.720857 
Q 499.883139 188.54616 502.632075 187.872375 
Q 505.384978 187.19859 510.172807 187.19859 
Q 512.017331 187.19859 513.707153 187.290233 
Q 515.400942 187.380835 516.900362 187.559955 
L 516.900362 188.564905 
Q 515.353342 188.334756 513.822188 188.221243 
Q 512.291035 188.10669 510.751948 188.10669 
Q 507.903844 188.10669 506.36079 188.525332 
Q 504.817737 188.942932 504.817737 189.720857 
Q 504.817737 190.491492 506.305256 190.912217 
Q 507.792776 191.331901 510.529812 191.331901 
Q 511.275555 191.331901 511.914197 191.307948 
Q 512.552838 191.282955 513.060578 191.230885 
L 513.060578 190.287378 
L 510.14504 190.287378 
L 510.14504 189.446969 
L 517.582638 189.446969 
L 517.582638 191.783867 
z
" clip-path="url(#p1f5a8ea128)" style="fill: #ffa600"/>
   </g>
   <g id="patch_92">
    <path d="M 517.582638 186.729792 
Q 516.102105 186.962164 514.501168 187.079702 
Q 512.900231 187.19859 511.156591 187.19859 
Q 505.95689 187.19859 502.920014 186.317736 
Q 499.883139 185.436882 499.883139 183.930513 
Q 499.883139 182.41874 502.920014 181.539237 
Q 505.95689 180.658383 511.156591 180.658383 
Q 512.900231 180.658383 514.501168 180.777271 
Q 516.102105 180.894808 517.582638 181.127181 
L 517.582638 182.430899 
Q 516.088727 182.12287 514.63941 181.979664 
Q 513.190094 181.836458 511.589157 181.836458 
Q 508.71728 181.836458 507.071748 182.394422 
Q 505.430676 182.951035 505.430676 183.930513 
Q 505.430676 184.905937 507.071748 185.463902 
Q 508.71728 186.020515 511.589157 186.020515 
Q 513.190094 186.020515 514.63941 185.877309 
Q 516.088727 185.732751 517.582638 185.424723 
L 517.582638 186.729792 
z
" clip-path="url(#p1f5a8ea128)" style="fill: #0000ff"/>
   </g>
   <g id="patch_93">
    <path d="M 499.883139 173.028141 
L 517.582638 173.028141 
L 517.582638 174.51625 
L 511.214934 174.51625 
L 511.214934 180.658383 
L 506.263191 180.658383 
L 506.263191 174.51625 
L 499.883139 174.51625 
L 499.883139 173.028141 
z
" clip-path="url(#p1f5a8ea128)" style="fill: #ff0000"/>
   </g>
   <g id="patch_94">
    <path d="M 512.143597 167.170314 
L 505.336654 167.170314 
L 504.261874 173.028141 
L 499.883139 173.028141 
L 506.136407 140.87212 
L 511.32937 140.87212 
L 517.582638 173.028141 
L 513.207521 173.028141 
L 512.143597 167.170314 
z
M 506.422291 161.202223 
L 511.047104 161.202223 
L 508.738316 148.411487 
L 506.422291 161.202223 
z
" clip-path="url(#p1f5a8ea128)" style="fill: #008000"/>
   </g>
   <g id="patch_95">
    <path d="M 536.213689 191.863078 
Q 534.428666 192.051539 532.508774 192.1462 
Q 530.588882 192.24 528.542055 192.24 
Q 523.916861 192.24 521.215526 191.67892 
Q 518.51419 191.11784 518.51419 190.158325 
Q 518.51419 189.187623 521.263126 188.630846 
Q 524.016029 188.074069 528.803859 188.074069 
Q 530.648383 188.074069 532.338205 188.149797 
Q 534.031994 188.224665 535.531414 188.37268 
L 535.531414 189.203113 
Q 533.984394 189.012931 532.45324 188.919131 
Q 530.922087 188.82447 529.383 188.82447 
Q 526.534896 188.82447 524.991842 189.170412 
Q 523.448788 189.515493 523.448788 190.158325 
Q 523.448788 190.795134 524.936308 191.142796 
Q 526.423828 191.489599 529.160864 191.489599 
Q 529.906607 191.489599 530.545248 191.469806 
Q 531.18389 191.449153 531.69163 191.406125 
L 531.69163 190.626465 
L 528.776092 190.626465 
L 528.776092 189.932 
L 536.213689 189.932 
L 536.213689 191.863078 
z
" clip-path="url(#p1f5a8ea128)" style="fill: #ffa600"/>
   </g>
   <g id="patch_96">
    <path d="M 530.774649 186.502055 
L 523.967706 186.502055 
L 522.892926 188.074069 
L 518.51419 188.074069 
L 524.767458 179.44464 
L 529.960421 179.44464 
L 536.213689 188.074069 
L 531.838573 188.074069 
L 530.774649 186.502055 
z
M 525.053343 184.900451 
L 529.678156 184.900451 
L 527.369368 181.467913 
L 525.053343 184.900451 
z
" clip-path="url(#p1f5a8ea128)" style="fill: #008000"/>
   </g>
   <g id="patch_97">
    <path d="M 536.213689 178.826087 
Q 534.733157 179.13269 533.13222 179.287773 
Q 531.531282 179.44464 529.787643 179.44464 
Q 524.587941 179.44464 521.551066 178.282403 
Q 518.51419 177.120166 518.51419 175.132599 
Q 518.51419 173.137901 521.551066 171.977447 
Q 524.587941 170.815211 529.787643 170.815211 
Q 531.531282 170.815211 533.13222 170.972077 
Q 534.733157 171.127161 536.213689 171.433763 
L 536.213689 173.153945 
Q 534.719779 172.747518 533.270462 172.558566 
Q 531.821146 172.369613 530.220208 172.369613 
Q 527.348332 172.369613 525.7028 173.105815 
Q 524.061728 173.840235 524.061728 175.132599 
Q 524.061728 176.419616 525.7028 177.155818 
Q 527.348332 177.890237 530.220208 177.890237 
Q 531.821146 177.890237 533.270462 177.701285 
Q 534.719779 177.510549 536.213689 177.104123 
L 536.213689 178.826087 
z
" clip-path="url(#p1f5a8ea128)" style="fill: #0000ff"/>
   </g>
   <g id="patch_98">
    <path d="M 518.51419 80.057422 
L 536.213689 80.057422 
L 536.213689 97.75772 
L 529.845986 97.75772 
L 529.845986 170.815211 
L 524.894242 170.815211 
L 524.894242 97.75772 
L 518.51419 97.75772 
L 518.51419 80.057422 
z
" clip-path="url(#p1f5a8ea128)" style="fill: #ff0000"/>
   </g>
   <g id="patch_99">
    <path d="M 554.844741 191.815991 
Q 553.364209 192.026163 551.763271 192.13247 
Q 550.162334 192.24 548.418695 192.24 
Q 543.218993 192.24 540.182118 191.443303 
Q 537.145242 190.646606 537.145242 189.284157 
Q 537.145242 187.91682 540.182118 187.121345 
Q 543.218993 186.324648 548.418695 186.324648 
Q 550.162334 186.324648 551.763271 186.432177 
Q 553.364209 186.538485 554.844741 186.748657 
L 554.844741 187.927817 
Q 553.35083 187.649217 551.901514 187.519693 
Q 550.452197 187.390169 548.85126 187.390169 
Q 545.979384 187.390169 544.333852 187.894825 
Q 542.69278 188.398259 542.69278 189.284157 
Q 542.69278 190.166389 544.333852 190.671045 
Q 545.979384 191.174479 548.85126 191.174479 
Q 550.452197 191.174479 551.901514 191.044955 
Q 553.35083 190.914208 554.844741 190.635609 
L 554.844741 191.815991 
z
" clip-path="url(#p1f5a8ea128)" style="fill: #0000ff"/>
   </g>
   <g id="patch_100">
    <path d="M 554.844741 185.682403 
Q 553.059718 186.003525 551.139826 186.16482 
Q 549.219934 186.324648 547.173107 186.324648 
Q 542.547913 186.324648 539.846578 185.368612 
Q 537.145242 184.412575 537.145242 182.777636 
Q 537.145242 181.123635 539.894178 180.17493 
Q 542.647081 179.226225 547.434911 179.226225 
Q 549.279435 179.226225 550.969257 179.355261 
Q 552.663046 179.48283 554.162466 179.735036 
L 554.162466 181.150028 
Q 552.615445 180.825973 551.084292 180.666145 
Q 549.553138 180.50485 548.014052 180.50485 
Q 545.165947 180.50485 543.622894 181.094308 
Q 542.07984 181.6823 542.07984 182.777636 
Q 542.07984 183.862708 543.56736 184.455098 
Q 545.054879 185.046023 547.791915 185.046023 
Q 548.537658 185.046023 549.1763 185.012297 
Q 549.814942 184.977106 550.322682 184.90379 
L 550.322682 183.57531 
L 547.407144 183.57531 
L 547.407144 182.391996 
L 554.844741 182.391996 
L 554.844741 185.682403 
z
" clip-path="url(#p1f5a8ea128)" style="fill: #ffa600"/>
   </g>
   <g id="patch_101">
    <path d="M 549.405701 177.54518 
L 542.598758 177.54518 
L 541.523977 179.226225 
L 537.145242 179.226225 
L 543.39851 169.998276 
L 548.591473 169.998276 
L 554.844741 179.226225 
L 550.469625 179.226225 
L 549.405701 177.54518 
z
M 543.684395 175.832492 
L 548.309208 175.832492 
L 546.00042 172.16188 
L 543.684395 175.832492 
z
" clip-path="url(#p1f5a8ea128)" style="fill: #008000"/>
   </g>
   <g id="patch_102">
    <path d="M 537.145242 103.036489 
L 554.844741 103.036489 
L 554.844741 116.095903 
L 548.477038 116.095903 
L 548.477038 169.998276 
L 543.525294 169.998276 
L 543.525294 116.095903 
L 537.145242 116.095903 
L 537.145242 103.036489 
z
" clip-path="url(#p1f5a8ea128)" style="fill: #ff0000"/>
   </g>
   <g id="patch_103">
    <path d="M 573.475793 192.028455 
Q 571.99526 192.133313 570.394323 192.186352 
Q 568.793386 192.24 567.049747 192.24 
Q 561.850045 192.24 558.813169 191.842514 
Q 555.776294 191.445028 555.776294 190.765278 
Q 555.776294 190.08309 558.813169 189.686213 
Q 561.850045 189.288727 567.049747 189.288727 
Q 568.793386 189.288727 570.394323 189.342376 
Q 571.99526 189.395415 573.475793 189.500273 
L 573.475793 190.088577 
Q 571.981882 189.949578 570.532566 189.884956 
Q 569.083249 189.820335 567.482312 189.820335 
Q 564.610435 189.820335 562.964904 190.072116 
Q 561.323831 190.323288 561.323831 190.765278 
Q 561.323831 191.205439 562.964904 191.457221 
Q 564.610435 191.708393 567.482312 191.708393 
Q 569.083249 191.708393 570.532566 191.643771 
Q 571.981882 191.578539 573.475793 191.439541 
L 573.475793 192.028455 
z
" clip-path="url(#p1f5a8ea128)" style="fill: #0000ff"/>
   </g>
   <g id="patch_104">
    <path d="M 568.036752 188.643571 
L 561.22981 188.643571 
L 560.155029 189.288727 
L 555.776294 189.288727 
L 562.029562 185.7472 
L 567.222525 185.7472 
L 573.475793 189.288727 
L 569.100677 189.288727 
L 568.036752 188.643571 
z
M 562.315446 187.986271 
L 566.940259 187.986271 
L 564.631472 186.577554 
L 562.315446 187.986271 
z
" clip-path="url(#p1f5a8ea128)" style="fill: #008000"/>
   </g>
   <g id="patch_105">
    <path d="M 555.776294 180.730037 
L 573.475793 180.730037 
L 573.475793 181.708524 
L 567.108089 181.708524 
L 567.108089 185.7472 
L 562.156346 185.7472 
L 562.156346 181.708524 
L 555.776294 181.708524 
L 555.776294 180.730037 
z
" clip-path="url(#p1f5a8ea128)" style="fill: #ff0000"/>
   </g>
   <g id="patch_106">
    <path d="M 573.475793 179.758074 
Q 571.69077 180.244056 569.770878 180.488156 
Q 567.850986 180.730037 565.804159 180.730037 
Q 561.178965 180.730037 558.477629 179.283188 
Q 555.776294 177.836339 555.776294 175.36205 
Q 555.776294 172.858912 558.52523 171.423159 
Q 561.278133 169.987405 566.065962 169.987405 
Q 567.910487 169.987405 569.600309 170.182685 
Q 571.294098 170.375747 572.793517 170.757431 
L 572.793517 172.898856 
Q 571.246497 172.408436 569.715344 172.166555 
Q 568.18419 171.922455 566.645103 171.922455 
Q 563.796999 171.922455 562.253946 172.81453 
Q 560.710892 173.704387 560.710892 175.36205 
Q 560.710892 177.004179 562.198412 177.900693 
Q 563.685931 178.794988 566.422967 178.794988 
Q 567.16871 178.794988 567.807352 178.743948 
Q 568.445994 178.69069 568.953734 178.579736 
L 568.953734 176.569237 
L 566.038195 176.569237 
L 566.038195 174.778428 
L 573.475793 174.778428 
L 573.475793 179.758074 
z
" clip-path="url(#p1f5a8ea128)" style="fill: #ffa600"/>
   </g>
   <g id="patch_107">
    <path d="M 592.106845 191.80522 
Q 590.321821 192.02261 588.401929 192.131801 
Q 586.482038 192.24 584.435211 192.24 
Q 579.810017 192.24 577.108681 191.592793 
Q 574.407346 190.945585 574.407346 189.838781 
Q 574.407346 188.719073 577.156282 188.076829 
Q 579.909185 187.434584 584.697014 187.434584 
Q 586.541538 187.434584 588.23136 187.521938 
Q 589.925149 187.608298 591.424569 187.779034 
L 591.424569 188.73694 
Q 589.877549 188.517565 588.346395 188.409366 
Q 586.815242 188.300175 585.276155 188.300175 
Q 582.428051 188.300175 580.884997 188.69922 
Q 579.341944 189.097272 579.341944 189.838781 
Q 579.341944 190.573342 580.829463 190.974372 
Q 582.316983 191.37441 585.054019 191.37441 
Q 585.799762 191.37441 586.438404 191.351579 
Q 587.077045 191.327755 587.584785 191.278123 
L 587.584785 190.378782 
L 584.669247 190.378782 
L 584.669247 189.577714 
L 592.106845 189.577714 
L 592.106845 191.80522 
z
" clip-path="url(#p1f5a8ea128)" style="fill: #ffa600"/>
   </g>
   <g id="patch_108">
    <path d="M 592.106845 186.938577 
Q 590.626312 187.184437 589.025375 187.308796 
Q 587.424438 187.434584 585.680798 187.434584 
Q 580.481097 187.434584 577.444221 186.502606 
Q 574.407346 185.570627 574.407346 183.976829 
Q 574.407346 182.377314 577.444221 181.446765 
Q 580.481097 180.514786 585.680798 180.514786 
Q 587.424438 180.514786 589.025375 180.640574 
Q 590.626312 180.764934 592.106845 181.010793 
L 592.106845 182.390179 
Q 590.612934 182.064272 589.163617 181.912754 
Q 587.714301 181.761236 586.113364 181.761236 
Q 583.241487 181.761236 581.595955 182.351584 
Q 579.954883 182.940503 579.954883 183.976829 
Q 579.954883 185.008867 581.595955 185.599215 
Q 583.241487 186.188134 586.113364 186.188134 
Q 587.714301 186.188134 589.163617 186.036616 
Q 590.612934 185.883669 592.106845 185.557762 
L 592.106845 186.938577 
z
" clip-path="url(#p1f5a8ea128)" style="fill: #0000ff"/>
   </g>
   <g id="patch_109">
    <path d="M 586.667804 178.623928 
L 579.860861 178.623928 
L 578.786081 180.514786 
L 574.407346 180.514786 
L 580.660614 170.135088 
L 585.853577 170.135088 
L 592.106845 180.514786 
L 587.731728 180.514786 
L 586.667804 178.623928 
z
M 580.946498 176.697477 
L 585.571311 176.697477 
L 583.262523 172.568734 
L 580.946498 176.697477 
z
" clip-path="url(#p1f5a8ea128)" style="fill: #008000"/>
   </g>
   <g id="patch_110">
    <path d="M 574.407346 119.774333 
L 592.106845 119.774333 
L 592.106845 129.596083 
L 585.739141 129.596083 
L 585.739141 170.135088 
L 580.787398 170.135088 
L 580.787398 129.596083 
L 574.407346 129.596083 
L 574.407346 119.774333 
z
" clip-path="url(#p1f5a8ea128)" style="fill: #ff0000"/>
   </g>
   <g id="patch_111">
    <path d="M 610.737896 192.063595 
Q 609.257364 192.151035 607.656427 192.195263 
Q 606.055489 192.24 604.31185 192.24 
Q 599.112148 192.24 596.075273 191.908542 
Q 593.038397 191.577083 593.038397 191.010249 
Q 593.038397 190.441381 596.075273 190.110431 
Q 599.112148 189.778973 604.31185 189.778973 
Q 606.055489 189.778973 607.656427 189.823709 
Q 609.257364 189.867938 610.737896 189.955378 
L 610.737896 190.445956 
Q 609.243986 190.330048 607.794669 190.27616 
Q 606.345353 190.222273 604.744415 190.222273 
Q 601.872539 190.222273 600.227007 190.43223 
Q 598.585935 190.641679 598.585935 191.010249 
Q 598.585935 191.377293 600.227007 191.587251 
Q 601.872539 191.7967 604.744415 191.7967 
Q 606.345353 191.7967 607.794669 191.742812 
Q 609.243986 191.688417 610.737896 191.572508 
L 610.737896 192.063595 
z
" clip-path="url(#p1f5a8ea128)" style="fill: #0000ff"/>
   </g>
   <g id="patch_112">
    <path d="M 610.737896 189.041389 
Q 608.952873 189.410181 607.032981 189.595419 
Q 605.113089 189.778973 603.066262 189.778973 
Q 598.441068 189.778973 595.739733 188.681017 
Q 593.038397 187.583061 593.038397 185.705422 
Q 593.038397 183.805891 595.787333 182.716355 
Q 598.540236 181.626819 603.328066 181.626819 
Q 605.17259 181.626819 606.862412 181.77501 
Q 608.556201 181.921516 610.055621 182.211161 
L 610.055621 183.836203 
Q 608.508601 183.464043 606.977447 183.280489 
Q 605.446294 183.095251 603.907207 183.095251 
Q 601.059103 183.095251 599.516049 183.772212 
Q 597.972995 184.447488 597.972995 185.705422 
Q 597.972995 186.951568 599.460515 187.631897 
Q 600.948035 188.310541 603.685071 188.310541 
Q 604.430814 188.310541 605.069455 188.271809 
Q 605.708097 188.231394 606.215837 188.147195 
L 606.215837 186.621508 
L 603.300299 186.621508 
L 603.300299 185.262535 
L 610.737896 185.262535 
L 610.737896 189.041389 
z
" clip-path="url(#p1f5a8ea128)" style="fill: #ffa600"/>
   </g>
   <g id="patch_113">
    <path d="M 605.298856 179.553327 
L 598.491913 179.553327 
L 597.417133 181.626819 
L 593.038397 181.626819 
L 599.291665 170.244568 
L 604.484628 170.244568 
L 610.737896 181.626819 
L 606.36278 181.626819 
L 605.298856 179.553327 
z
M 599.57755 177.440805 
L 604.202363 177.440805 
L 601.893575 172.913274 
L 599.57755 177.440805 
z
" clip-path="url(#p1f5a8ea128)" style="fill: #008000"/>
   </g>
   <g id="patch_114">
    <path d="M 593.038397 134.252042 
L 610.737896 134.252042 
L 610.737896 141.271588 
L 604.370193 141.271588 
L 604.370193 170.244568 
L 599.418449 170.244568 
L 599.418449 141.271588 
L 593.038397 141.271588 
L 593.038397 134.252042 
z
" clip-path="url(#p1f5a8ea128)" style="fill: #ff0000"/>
   </g>
   <g id="patch_115">
    <path d="M 629.368948 192.004295 
Q 627.888416 192.121129 626.287478 192.180225 
Q 624.686541 192.24 622.942902 192.24 
Q 617.7432 192.24 614.706325 191.797119 
Q 611.669449 191.354238 611.669449 190.596856 
Q 611.669449 189.836758 614.706325 189.394556 
Q 617.7432 188.951675 622.942902 188.951675 
Q 624.686541 188.951675 626.287478 189.01145 
Q 627.888416 189.070546 629.368948 189.18738 
L 629.368948 189.842871 
Q 627.875037 189.687999 626.425721 189.615997 
Q 624.976404 189.543995 623.375467 189.543995 
Q 620.503591 189.543995 618.858059 189.824531 
Q 617.216987 190.104389 617.216987 190.596856 
Q 617.216987 191.087286 618.858059 191.367823 
Q 620.503591 191.64768 623.375467 191.64768 
Q 624.976404 191.64768 626.425721 191.575678 
Q 627.875037 191.502997 629.368948 191.348124 
L 629.368948 192.004295 
z
" clip-path="url(#p1f5a8ea128)" style="fill: #0000ff"/>
   </g>
   <g id="patch_116">
    <path d="M 629.368948 188.654157 
Q 627.583925 188.802916 625.664033 188.877635 
Q 623.744141 188.951675 621.697314 188.951675 
Q 617.07212 188.951675 614.370785 188.508794 
Q 611.669449 188.065913 611.669449 187.308531 
Q 611.669449 186.54232 614.418385 186.102835 
Q 617.171288 185.66335 621.959118 185.66335 
Q 623.803642 185.66335 625.493464 185.723125 
Q 627.187253 185.782221 628.686673 185.899055 
L 628.686673 186.554546 
Q 627.139652 186.404429 625.608499 186.330389 
Q 624.077345 186.25567 622.538259 186.25567 
Q 619.690154 186.25567 618.147101 186.528734 
Q 616.604047 186.80112 616.604047 187.308531 
Q 616.604047 187.811188 618.091567 188.085611 
Q 619.579086 188.359355 622.316122 188.359355 
Q 623.061865 188.359355 623.700507 188.343732 
Q 624.339149 188.32743 624.846889 188.293467 
L 624.846889 187.678052 
L 621.931351 187.678052 
L 621.931351 187.129884 
L 629.368948 187.129884 
L 629.368948 188.654157 
z
" clip-path="url(#p1f5a8ea128)" style="fill: #ffa600"/>
   </g>
   <g id="patch_117">
    <path d="M 611.669449 177.251356 
L 629.368948 177.251356 
L 629.368948 178.891929 
L 623.001245 178.891929 
L 623.001245 185.66335 
L 618.049501 185.66335 
L 618.049501 178.891929 
L 611.669449 178.891929 
L 611.669449 177.251356 
z
" clip-path="url(#p1f5a8ea128)" style="fill: #ff0000"/>
   </g>
   <g id="patch_118">
    <path d="M 623.929908 174.729855 
L 617.122965 174.729855 
L 616.048184 177.251356 
L 611.669449 177.251356 
L 617.922717 163.409801 
L 623.11568 163.409801 
L 629.368948 177.251356 
L 624.993832 177.251356 
L 623.929908 174.729855 
z
M 618.208602 172.160891 
L 622.833415 172.160891 
L 620.524627 166.655121 
L 618.208602 172.160891 
z
" clip-path="url(#p1f5a8ea128)" style="fill: #008000"/>
   </g>
   <g id="patch_119">
    <path d="M 642.560959 191.552597 
L 635.754017 191.552597 
L 634.679236 192.24 
L 630.300501 192.24 
L 636.553769 188.466564 
L 641.746732 188.466564 
L 648 192.24 
L 643.624884 192.24 
L 642.560959 191.552597 
z
M 636.839653 190.852255 
L 641.464466 190.852255 
L 639.155679 189.351291 
L 636.839653 190.852255 
z
" clip-path="url(#p1f5a8ea128)" style="fill: #008000"/>
   </g>
   <g id="patch_120">
    <path d="M 648 188.085121 
Q 646.519467 188.274193 644.91853 188.369829 
Q 643.317593 188.466564 641.573954 188.466564 
Q 636.374252 188.466564 633.337376 187.749847 
Q 630.300501 187.03313 630.300501 185.807456 
Q 630.300501 184.577386 633.337376 183.861768 
Q 636.374252 183.145051 641.573954 183.145051 
Q 643.317593 183.145051 644.91853 183.241786 
Q 646.519467 183.337421 648 183.526494 
L 648 184.587279 
Q 646.506089 184.336648 645.056773 184.220126 
Q 643.607456 184.103605 642.006519 184.103605 
Q 639.134642 184.103605 637.489111 184.557599 
Q 635.848038 185.010494 635.848038 185.807456 
Q 635.848038 186.601121 637.489111 187.055115 
Q 639.134642 187.50801 642.006519 187.50801 
Q 643.607456 187.50801 645.056773 187.391489 
Q 646.506089 187.273868 648 187.023237 
L 648 188.085121 
z
" clip-path="url(#p1f5a8ea128)" style="fill: #0000ff"/>
   </g>
   <g id="patch_121">
    <path d="M 648 182.506002 
Q 646.214977 182.825527 644.295085 182.986018 
Q 642.375193 183.145051 640.328366 183.145051 
Q 635.703172 183.145051 633.001836 182.193772 
Q 630.300501 181.242494 630.300501 179.61569 
Q 630.300501 177.96992 633.049437 177.025936 
Q 635.80234 176.081953 640.590169 176.081953 
Q 642.434694 176.081953 644.124516 176.210346 
Q 645.818305 176.33728 647.317724 176.588231 
L 647.317724 177.996182 
Q 645.770704 177.673739 644.239551 177.514707 
Q 642.708397 177.354215 641.16931 177.354215 
Q 638.321206 177.354215 636.778153 177.940739 
Q 635.235099 178.525805 635.235099 179.61569 
Q 635.235099 180.695363 636.722619 181.284805 
Q 638.210138 181.872789 640.947174 181.872789 
Q 641.692917 181.872789 642.331559 181.839231 
Q 642.970201 181.804215 643.477941 181.731264 
L 643.477941 180.409395 
L 640.562402 180.409395 
L 640.562402 179.231969 
L 648 179.231969 
L 648 182.506002 
z
" clip-path="url(#p1f5a8ea128)" style="fill: #ffa600"/>
   </g>
   <g id="patch_122">
    <path d="M 630.300501 155.76345 
L 648 155.76345 
L 648 159.726124 
L 641.632296 159.726124 
L 641.632296 176.081953 
L 636.680553 176.081953 
L 636.680553 159.726124 
L 630.300501 159.726124 
L 630.300501 155.76345 
z
" clip-path="url(#p1f5a8ea128)" style="fill: #ff0000"/>
   </g>
   <g id="matplotlib.axis_1">
    <g id="xtick_1">
     <g id="line2d_2">
      <defs>
       <path id="mbfb25de4f6" d="M 0 0 
L 0 3.5 
" style="stroke: #000000; stroke-width: 0.8"/>
      </defs>
      <g>
       <use xlink:href="#mbfb25de4f6" x="98.84975" y="192.24" style="stroke: #000000; stroke-width: 0.8"/>
      </g>
     </g>
     <g id="text_1">
      <!-- 0 -->
      <g transform="translate(95.6685 206.838437) scale(0.1 -0.1)">
       <defs>
        <path id="DejaVuSans-30" d="M 2034 4250 
Q 1547 4250 1301 3770 
Q 1056 3291 1056 2328 
Q 1056 1369 1301 889 
Q 1547 409 2034 409 
Q 2525 409 2770 889 
Q 3016 1369 3016 2328 
Q 3016 3291 2770 3770 
Q 2525 4250 2034 4250 
z
M 2034 4750 
Q 2819 4750 3233 4129 
Q 3647 3509 3647 2328 
Q 3647 1150 3233 529 
Q 2819 -91 2034 -91 
Q 1250 -91 836 529 
Q 422 1150 422 2328 
Q 422 3509 836 4129 
Q 1250 4750 2034 4750 
z
" transform="scale(0.015625)"/>
       </defs>
       <use xlink:href="#DejaVuSans-30"/>
      </g>
     </g>
    </g>
    <g id="xtick_2">
     <g id="line2d_3">
      <g>
       <use xlink:href="#mbfb25de4f6" x="192.005008" y="192.24" style="stroke: #000000; stroke-width: 0.8"/>
      </g>
     </g>
     <g id="text_2">
      <!-- 5 -->
      <g transform="translate(188.823758 206.838437) scale(0.1 -0.1)">
       <defs>
        <path id="DejaVuSans-35" d="M 691 4666 
L 3169 4666 
L 3169 4134 
L 1269 4134 
L 1269 2991 
Q 1406 3038 1543 3061 
Q 1681 3084 1819 3084 
Q 2600 3084 3056 2656 
Q 3513 2228 3513 1497 
Q 3513 744 3044 326 
Q 2575 -91 1722 -91 
Q 1428 -91 1123 -41 
Q 819 9 494 109 
L 494 744 
Q 775 591 1075 516 
Q 1375 441 1709 441 
Q 2250 441 2565 725 
Q 2881 1009 2881 1497 
Q 2881 1984 2565 2268 
Q 2250 2553 1709 2553 
Q 1456 2553 1204 2497 
Q 953 2441 691 2322 
L 691 4666 
z
" transform="scale(0.015625)"/>
       </defs>
       <use xlink:href="#DejaVuSans-35"/>
      </g>
     </g>
    </g>
    <g id="xtick_3">
     <g id="line2d_4">
      <g>
       <use xlink:href="#mbfb25de4f6" x="285.160267" y="192.24" style="stroke: #000000; stroke-width: 0.8"/>
      </g>
     </g>
     <g id="text_3">
      <!-- 10 -->
      <g transform="translate(278.797767 206.838437) scale(0.1 -0.1)">
       <defs>
        <path id="DejaVuSans-31" d="M 794 531 
L 1825 531 
L 1825 4091 
L 703 3866 
L 703 4441 
L 1819 4666 
L 2450 4666 
L 2450 531 
L 3481 531 
L 3481 0 
L 794 0 
L 794 531 
z
" transform="scale(0.015625)"/>
       </defs>
       <use xlink:href="#DejaVuSans-31"/>
       <use xlink:href="#DejaVuSans-30" x="63.623047"/>
      </g>
     </g>
    </g>
    <g id="xtick_4">
     <g id="line2d_5">
      <g>
       <use xlink:href="#mbfb25de4f6" x="378.315526" y="192.24" style="stroke: #000000; stroke-width: 0.8"/>
      </g>
     </g>
     <g id="text_4">
      <!-- 15 -->
      <g transform="translate(371.953026 206.838437) scale(0.1 -0.1)">
       <use xlink:href="#DejaVuSans-31"/>
       <use xlink:href="#DejaVuSans-35" x="63.623047"/>
      </g>
     </g>
    </g>
    <g id="xtick_5">
     <g id="line2d_6">
      <g>
       <use xlink:href="#mbfb25de4f6" x="471.470785" y="192.24" style="stroke: #000000; stroke-width: 0.8"/>
      </g>
     </g>
     <g id="text_5">
      <!-- 20 -->
      <g transform="translate(465.108285 206.838437) scale(0.1 -0.1)">
       <defs>
        <path id="DejaVuSans-32" d="M 1228 531 
L 3431 531 
L 3431 0 
L 469 0 
L 469 531 
Q 828 903 1448 1529 
Q 2069 2156 2228 2338 
Q 2531 2678 2651 2914 
Q 2772 3150 2772 3378 
Q 2772 3750 2511 3984 
Q 2250 4219 1831 4219 
Q 1534 4219 1204 4116 
Q 875 4013 500 3803 
L 500 4441 
Q 881 4594 1212 4672 
Q 1544 4750 1819 4750 
Q 2544 4750 2975 4387 
Q 3406 4025 3406 3419 
Q 3406 3131 3298 2873 
Q 3191 2616 2906 2266 
Q 2828 2175 2409 1742 
Q 1991 1309 1228 531 
z
" transform="scale(0.015625)"/>
       </defs>
       <use xlink:href="#DejaVuSans-32"/>
       <use xlink:href="#DejaVuSans-30" x="63.623047"/>
      </g>
     </g>
    </g>
    <g id="xtick_6">
     <g id="line2d_7">
      <g>
       <use xlink:href="#mbfb25de4f6" x="564.626043" y="192.24" style="stroke: #000000; stroke-width: 0.8"/>
      </g>
     </g>
     <g id="text_6">
      <!-- 25 -->
      <g transform="translate(558.263543 206.838437) scale(0.1 -0.1)">
       <use xlink:href="#DejaVuSans-32"/>
       <use xlink:href="#DejaVuSans-35" x="63.623047"/>
      </g>
     </g>
    </g>
   </g>
   <g id="matplotlib.axis_2">
    <g id="ytick_1">
     <g id="line2d_8">
      <defs>
       <path id="m5d81d42b0c" d="M 0 0 
L -3.5 0 
" style="stroke: #000000; stroke-width: 0.8"/>
      </defs>
      <g>
       <use xlink:href="#m5d81d42b0c" x="90" y="192.24" style="stroke: #000000; stroke-width: 0.8"/>
      </g>
     </g>
     <g id="text_7">
      <!-- 0.0 -->
      <g transform="translate(67.096875 196.039219) scale(0.1 -0.1)">
       <defs>
        <path id="DejaVuSans-2e" d="M 684 794 
L 1344 794 
L 1344 0 
L 684 0 
L 684 794 
z
" transform="scale(0.015625)"/>
       </defs>
       <use xlink:href="#DejaVuSans-30"/>
       <use xlink:href="#DejaVuSans-2e" x="63.623047"/>
       <use xlink:href="#DejaVuSans-30" x="95.410156"/>
      </g>
     </g>
    </g>
    <g id="ytick_2">
     <g id="line2d_9">
      <g>
       <use xlink:href="#m5d81d42b0c" x="90" y="169.957407" style="stroke: #000000; stroke-width: 0.8"/>
      </g>
     </g>
     <g id="text_8">
      <!-- 0.2 -->
      <g transform="translate(67.096875 173.756625) scale(0.1 -0.1)">
       <use xlink:href="#DejaVuSans-30"/>
       <use xlink:href="#DejaVuSans-2e" x="63.623047"/>
       <use xlink:href="#DejaVuSans-32" x="95.410156"/>
      </g>
     </g>
    </g>
    <g id="ytick_3">
     <g id="line2d_10">
      <g>
       <use xlink:href="#m5d81d42b0c" x="90" y="147.674813" style="stroke: #000000; stroke-width: 0.8"/>
      </g>
     </g>
     <g id="text_9">
      <!-- 0.4 -->
      <g transform="translate(67.096875 151.474032) scale(0.1 -0.1)">
       <defs>
        <path id="DejaVuSans-34" d="M 2419 4116 
L 825 1625 
L 2419 1625 
L 2419 4116 
z
M 2253 4666 
L 3047 4666 
L 3047 1625 
L 3713 1625 
L 3713 1100 
L 3047 1100 
L 3047 0 
L 2419 0 
L 2419 1100 
L 313 1100 
L 313 1709 
L 2253 4666 
z
" transform="scale(0.015625)"/>
       </defs>
       <use xlink:href="#DejaVuSans-30"/>
       <use xlink:href="#DejaVuSans-2e" x="63.623047"/>
       <use xlink:href="#DejaVuSans-34" x="95.410156"/>
      </g>
     </g>
    </g>
    <g id="ytick_4">
     <g id="line2d_11">
      <g>
       <use xlink:href="#m5d81d42b0c" x="90" y="125.39222" style="stroke: #000000; stroke-width: 0.8"/>
      </g>
     </g>
     <g id="text_10">
      <!-- 0.6 -->
      <g transform="translate(67.096875 129.191439) scale(0.1 -0.1)">
       <defs>
        <path id="DejaVuSans-36" d="M 2113 2584 
Q 1688 2584 1439 2293 
Q 1191 2003 1191 1497 
Q 1191 994 1439 701 
Q 1688 409 2113 409 
Q 2538 409 2786 701 
Q 3034 994 3034 1497 
Q 3034 2003 2786 2293 
Q 2538 2584 2113 2584 
z
M 3366 4563 
L 3366 3988 
Q 3128 4100 2886 4159 
Q 2644 4219 2406 4219 
Q 1781 4219 1451 3797 
Q 1122 3375 1075 2522 
Q 1259 2794 1537 2939 
Q 1816 3084 2150 3084 
Q 2853 3084 3261 2657 
Q 3669 2231 3669 1497 
Q 3669 778 3244 343 
Q 2819 -91 2113 -91 
Q 1303 -91 875 529 
Q 447 1150 447 2328 
Q 447 3434 972 4092 
Q 1497 4750 2381 4750 
Q 2619 4750 2861 4703 
Q 3103 4656 3366 4563 
z
" transform="scale(0.015625)"/>
       </defs>
       <use xlink:href="#DejaVuSans-30"/>
       <use xlink:href="#DejaVuSans-2e" x="63.623047"/>
       <use xlink:href="#DejaVuSans-36" x="95.410156"/>
      </g>
     </g>
    </g>
    <g id="ytick_5">
     <g id="line2d_12">
      <g>
       <use xlink:href="#m5d81d42b0c" x="90" y="103.109626" style="stroke: #000000; stroke-width: 0.8"/>
      </g>
     </g>
     <g id="text_11">
      <!-- 0.8 -->
      <g transform="translate(67.096875 106.908845) scale(0.1 -0.1)">
       <defs>
        <path id="DejaVuSans-38" d="M 2034 2216 
Q 1584 2216 1326 1975 
Q 1069 1734 1069 1313 
Q 1069 891 1326 650 
Q 1584 409 2034 409 
Q 2484 409 2743 651 
Q 3003 894 3003 1313 
Q 3003 1734 2745 1975 
Q 2488 2216 2034 2216 
z
M 1403 2484 
Q 997 2584 770 2862 
Q 544 3141 544 3541 
Q 544 4100 942 4425 
Q 1341 4750 2034 4750 
Q 2731 4750 3128 4425 
Q 3525 4100 3525 3541 
Q 3525 3141 3298 2862 
Q 3072 2584 2669 2484 
Q 3125 2378 3379 2068 
Q 3634 1759 3634 1313 
Q 3634 634 3220 271 
Q 2806 -91 2034 -91 
Q 1263 -91 848 271 
Q 434 634 434 1313 
Q 434 1759 690 2068 
Q 947 2378 1403 2484 
z
M 1172 3481 
Q 1172 3119 1398 2916 
Q 1625 2713 2034 2713 
Q 2441 2713 2670 2916 
Q 2900 3119 2900 3481 
Q 2900 3844 2670 4047 
Q 2441 4250 2034 4250 
Q 1625 4250 1398 4047 
Q 1172 3844 1172 3481 
z
" transform="scale(0.015625)"/>
       </defs>
       <use xlink:href="#DejaVuSans-30"/>
       <use xlink:href="#DejaVuSans-2e" x="63.623047"/>
       <use xlink:href="#DejaVuSans-38" x="95.410156"/>
      </g>
     </g>
    </g>
    <g id="ytick_6">
     <g id="line2d_13">
      <g>
       <use xlink:href="#m5d81d42b0c" x="90" y="80.827033" style="stroke: #000000; stroke-width: 0.8"/>
      </g>
     </g>
     <g id="text_12">
      <!-- 1.0 -->
      <g transform="translate(67.096875 84.626252) scale(0.1 -0.1)">
       <use xlink:href="#DejaVuSans-31"/>
       <use xlink:href="#DejaVuSans-2e" x="63.623047"/>
       <use xlink:href="#DejaVuSans-30" x="95.410156"/>
      </g>
     </g>
    </g>
    <g id="ytick_7">
     <g id="line2d_14">
      <g>
       <use xlink:href="#m5d81d42b0c" x="90" y="58.54444" style="stroke: #000000; stroke-width: 0.8"/>
      </g>
     </g>
     <g id="text_13">
      <!-- 1.2 -->
      <g transform="translate(67.096875 62.343658) scale(0.1 -0.1)">
       <use xlink:href="#DejaVuSans-31"/>
       <use xlink:href="#DejaVuSans-2e" x="63.623047"/>
       <use xlink:href="#DejaVuSans-32" x="95.410156"/>
      </g>
     </g>
    </g>
    <g id="ytick_8">
     <g id="line2d_15">
      <g>
       <use xlink:href="#m5d81d42b0c" x="90" y="36.261846" style="stroke: #000000; stroke-width: 0.8"/>
      </g>
     </g>
     <g id="text_14">
      <!-- 1.4 -->
      <g transform="translate(67.096875 40.061065) scale(0.1 -0.1)">
       <use xlink:href="#DejaVuSans-31"/>
       <use xlink:href="#DejaVuSans-2e" x="63.623047"/>
       <use xlink:href="#DejaVuSans-34" x="95.410156"/>
      </g>
     </g>
    </g>
   </g>
  </g>
 </g>
 <defs>
  <clipPath id="p1f5a8ea128">
   <rect x="90" y="25.92" width="558" height="166.32"/>
  </clipPath>
 </defs>
</svg>
