<?xml version="1.0" encoding="utf-8" standalone="no"?>
<!DOCTYPE svg PUBLIC "-//W3C//DTD SVG 1.1//EN"
  "http://www.w3.org/Graphics/SVG/1.1/DTD/svg11.dtd">
<svg xmlns:xlink="http://www.w3.org/1999/xlink" width="720pt" height="216pt" viewBox="0 0 720 216" xmlns="http://www.w3.org/2000/svg" version="1.1">
 <metadata>
  <rdf:RDF xmlns:dc="http://purl.org/dc/elements/1.1/" xmlns:cc="http://creativecommons.org/ns#" xmlns:rdf="http://www.w3.org/1999/02/22-rdf-syntax-ns#">
   <cc:Work>
    <dc:type rdf:resource="http://purl.org/dc/dcmitype/StillImage"/>
    <dc:date>2025-12-17T10:22:47.058878</dc:date>
    <dc:format>image/svg+xml</dc:format>
    <dc:creator>
     <cc:Agent>
      <dc:title>Matplotlib v3.8.2, https://matplotlib.org/</dc:title>
     </cc:Agent>
    </dc:creator>
   </cc:Work>
  </rdf:RDF>
 </metadata>
 <defs>
  <style type="text/css">*{stroke-linejoin: round; stroke-linecap: butt}</style>
 </defs>
 <g id="figure_1">
  <g id="patch_1">
   <path d="M 0 216 
L 720 216 
L 720 0 
L 0 0 
z
" style="fill: #ffffff"/>
  </g>
  <g id="axes_1">
   <g id="patch_2">
    <path d="M 90 192.24 
L 648 192.24 
L 648 25.92 
L 90 25.92 
z
" style="fill: #ffffff"/>
   </g>
   <g id="line2d_1">
    <path d="M 90 192.24 
L 648 192.24 
" clip-path="url(#p04e37c3f17)" style="fill: none; stroke: #000000; stroke-width: 0.5; stroke-linecap: square"/>
   </g>
   <g id="patch_3">
    <path d="M 102.683963 191.572469 
L 95.641893 191.572469 
L 94.529987 192.24 
L 90 192.24 
L 96.469271 188.575647 
L 101.84161 188.575647 
L 108.310881 192.24 
L 103.784638 192.24 
L 102.683963 191.572469 
z
M 96.76503 190.892373 
L 101.549595 190.892373 
L 99.161056 189.434799 
L 96.76503 190.892373 
z
" clip-path="url(#p04e37c3f17)" style="fill: #008000"/>
   </g>
   <g id="patch_4">
    <path d="M 108.310881 188.102862 
Q 106.779207 188.337211 105.12297 188.455748 
Q 103.466732 188.575647 101.662864 188.575647 
Q 96.283552 188.575647 93.141776 187.687301 
Q 90 186.798954 90 185.279773 
Q 90 183.755142 93.141776 182.868158 
Q 96.283552 181.979812 101.662864 181.979812 
Q 103.466732 181.979812 105.12297 182.099711 
Q 106.779207 182.218248 108.310881 182.452597 
L 108.310881 183.767405 
Q 106.765367 183.456756 105.265988 183.312331 
Q 103.766608 183.167907 102.110371 183.167907 
Q 99.139293 183.167907 97.436921 183.730617 
Q 95.739162 184.291965 95.739162 185.279773 
Q 95.739162 186.263494 97.436921 186.826204 
Q 99.139293 187.387552 102.110371 187.387552 
Q 103.766608 187.387552 105.265988 187.243128 
Q 106.765367 187.097341 108.310881 186.786692 
L 108.310881 188.102862 
z
" clip-path="url(#p04e37c3f17)" style="fill: #0000ff"/>
   </g>
   <g id="patch_5">
    <path d="M 108.310881 181.184115 
Q 106.464199 181.581964 104.477989 181.781796 
Q 102.49178 181.979812 100.374251 181.979812 
Q 95.589292 181.979812 92.794646 180.79535 
Q 90 179.610888 90 177.585313 
Q 90 175.536122 92.843891 174.360743 
Q 95.691885 173.185365 100.645097 173.185365 
Q 102.553336 173.185365 104.301528 173.345231 
Q 106.053825 173.50328 107.605038 173.815746 
L 107.605038 175.568822 
Q 106.00458 175.16734 104.420537 174.969324 
Q 102.836494 174.769492 101.244243 174.769492 
Q 98.297759 174.769492 96.701405 175.499789 
Q 95.105051 176.228269 95.105051 177.585313 
Q 95.105051 178.929641 96.643953 179.663571 
Q 98.182854 180.395685 101.014434 180.395685 
Q 101.785937 180.395685 102.446639 180.353902 
Q 103.107341 180.310302 103.632619 180.219469 
L 103.632619 178.573576 
L 100.616371 178.573576 
L 100.616371 177.107532 
L 108.310881 177.107532 
L 108.310881 181.184115 
z
" clip-path="url(#p04e37c3f17)" style="fill: #ffa600"/>
   </g>
   <g id="patch_6">
    <path d="M 90 128.113824 
L 108.310881 128.113824 
L 108.310881 136.904031 
L 101.723222 136.904031 
L 101.723222 173.185365 
L 96.600434 173.185365 
L 96.600434 136.904031 
L 90 136.904031 
L 90 128.113824 
z
" clip-path="url(#p04e37c3f17)" style="fill: #ff0000"/>
   </g>
   <g id="patch_7">
    <path d="M 127.585492 191.954785 
Q 126.053819 192.096159 124.397581 192.167669 
Q 122.741344 192.24 120.937475 192.24 
Q 115.558164 192.24 112.416388 191.704091 
Q 109.274611 191.168182 109.274611 190.251712 
Q 109.274611 189.331954 112.416388 188.796867 
Q 115.558164 188.260958 120.937475 188.260958 
Q 122.741344 188.260958 124.397581 188.33329 
Q 126.053819 188.404799 127.585492 188.546174 
L 127.585492 189.339352 
Q 126.039978 189.151948 124.540599 189.064822 
Q 123.04122 188.977695 121.384982 188.977695 
Q 118.413905 188.977695 116.711533 189.317159 
Q 115.013774 189.655801 115.013774 190.251712 
Q 115.013774 190.845157 116.711533 191.184621 
Q 118.413905 191.523263 121.384982 191.523263 
Q 123.04122 191.523263 124.540599 191.436137 
Q 126.039978 191.348188 127.585492 191.160785 
L 127.585492 191.954785 
z
" clip-path="url(#p04e37c3f17)" style="fill: #0000ff"/>
   </g>
   <g id="patch_8">
    <path d="M 121.958575 187.40019 
L 114.916504 187.40019 
L 113.804598 188.260958 
L 109.274611 188.260958 
L 115.743882 183.535846 
L 121.116222 183.535846 
L 127.585492 188.260958 
L 123.059249 188.260958 
L 121.958575 187.40019 
z
M 116.039641 186.523219 
L 120.824206 186.523219 
L 118.435667 184.643706 
L 116.039641 186.523219 
z
" clip-path="url(#p04e37c3f17)" style="fill: #008000"/>
   </g>
   <g id="patch_9">
    <path d="M 109.274611 175.577763 
L 127.585492 175.577763 
L 127.585492 177.129811 
L 120.997833 177.129811 
L 120.997833 183.535846 
L 115.875045 183.535846 
L 115.875045 177.129811 
L 109.274611 177.129811 
L 109.274611 175.577763 
z
" clip-path="url(#p04e37c3f17)" style="fill: #ff0000"/>
   </g>
   <g id="patch_10">
    <path d="M 127.585492 173.147679 
Q 125.73881 174.362721 123.752601 174.973016 
Q 121.766391 175.577763 119.648862 175.577763 
Q 114.863903 175.577763 112.069257 171.960377 
Q 109.274611 168.342992 109.274611 162.156819 
Q 109.274611 155.898521 112.118502 152.308876 
Q 114.966497 148.719231 119.919709 148.719231 
Q 121.827947 148.719231 123.57614 149.207467 
Q 125.328436 149.690155 126.879649 150.644435 
L 126.879649 155.998387 
Q 125.279191 154.772249 123.695148 154.167502 
Q 122.111105 153.557207 120.518855 153.557207 
Q 117.57237 153.557207 115.976016 155.787558 
Q 114.379662 158.012361 114.379662 162.156819 
Q 114.379662 166.262441 115.918564 168.503888 
Q 117.457466 170.739787 120.289045 170.739787 
Q 121.060548 170.739787 121.72125 170.61218 
Q 122.381952 170.479025 122.90723 170.201618 
L 122.90723 165.175006 
L 119.890983 165.175006 
L 119.890983 160.697659 
L 127.585492 160.697659 
L 127.585492 173.147679 
z
" clip-path="url(#p04e37c3f17)" style="fill: #ffa600"/>
   </g>
   <g id="patch_11">
    <path d="M 128.549223 188.488308 
L 146.860104 188.488308 
L 146.860104 189.219993 
L 140.272445 189.219993 
L 140.272445 192.24 
L 135.149657 192.24 
L 135.149657 189.219993 
L 128.549223 189.219993 
L 128.549223 188.488308 
z
" clip-path="url(#p04e37c3f17)" style="fill: #ff0000"/>
   </g>
   <g id="patch_12">
    <path d="M 146.860104 188.031146 
Q 145.32843 188.257751 143.672193 188.372371 
Q 142.015955 188.488308 140.212087 188.488308 
Q 134.832775 188.488308 131.690999 187.629317 
Q 128.549223 186.770326 128.549223 185.301346 
Q 128.549223 183.827097 131.690999 182.969423 
Q 134.832775 182.110432 140.212087 182.110432 
Q 142.015955 182.110432 143.672193 182.22637 
Q 145.32843 182.34099 146.860104 182.567595 
L 146.860104 183.838954 
Q 145.31459 183.538571 143.81521 183.398919 
Q 142.315831 183.259267 140.659594 183.259267 
Q 137.688516 183.259267 135.986144 183.803382 
Q 134.288385 184.34618 134.288385 185.301346 
Q 134.288385 186.25256 135.986144 186.796676 
Q 137.688516 187.339474 140.659594 187.339474 
Q 142.315831 187.339474 143.81521 187.199822 
Q 145.31459 187.058852 146.860104 186.758469 
L 146.860104 188.031146 
z
" clip-path="url(#p04e37c3f17)" style="fill: #0000ff"/>
   </g>
   <g id="patch_13">
    <path d="M 141.233186 180.470173 
L 134.191116 180.470173 
L 133.07921 182.110432 
L 128.549223 182.110432 
L 135.018493 173.106372 
L 140.390833 173.106372 
L 146.860104 182.110432 
L 142.333861 182.110432 
L 141.233186 180.470173 
z
M 135.314253 178.799038 
L 140.098817 178.799038 
L 137.710279 175.217483 
L 135.314253 178.799038 
z
" clip-path="url(#p04e37c3f17)" style="fill: #008000"/>
   </g>
   <g id="patch_14">
    <path d="M 146.860104 168.897285 
Q 145.013421 171.001829 143.027212 172.058905 
Q 141.041003 173.106372 138.923474 173.106372 
Q 134.138515 173.106372 131.343869 166.840791 
Q 128.549223 160.57521 128.549223 149.860298 
Q 128.549223 139.020458 131.393114 132.802926 
Q 134.241108 126.585394 139.19432 126.585394 
Q 141.102559 126.585394 142.850751 127.431055 
Q 144.603047 128.267107 146.154261 129.91999 
L 146.154261 139.193434 
Q 144.553803 137.069671 142.96976 136.022205 
Q 141.385717 134.965128 139.793466 134.965128 
Q 136.846982 134.965128 135.250628 138.828262 
Q 133.654273 142.681787 133.654273 149.860298 
Q 133.654273 156.97154 135.193175 160.853894 
Q 136.732077 164.726638 139.563657 164.726638 
Q 140.33516 164.726638 140.995861 164.505613 
Q 141.656563 164.274978 142.181842 163.794489 
L 142.181842 155.088022 
L 139.165594 155.088022 
L 139.165594 147.332924 
L 146.860104 147.332924 
L 146.860104 168.897285 
z
" clip-path="url(#p04e37c3f17)" style="fill: #ffa600"/>
   </g>
   <g id="patch_15">
    <path d="M 147.823834 187.504746 
L 166.134715 187.504746 
L 166.134715 188.428252 
L 159.547056 188.428252 
L 159.547056 192.24 
L 154.424268 192.24 
L 154.424268 188.428252 
L 147.823834 188.428252 
L 147.823834 187.504746 
z
" clip-path="url(#p04e37c3f17)" style="fill: #ff0000"/>
   </g>
   <g id="patch_16">
    <path d="M 166.134715 186.881571 
Q 164.288033 187.193158 162.301823 187.349663 
Q 160.315614 187.504746 158.198085 187.504746 
Q 153.413126 187.504746 150.61848 186.577098 
Q 147.823834 185.64945 147.823834 184.063059 
Q 147.823834 182.458171 150.667725 181.537637 
Q 153.515719 180.617103 158.468932 180.617103 
Q 160.37717 180.617103 162.125363 180.742307 
Q 163.877659 180.866088 165.428872 181.110805 
L 165.428872 182.483781 
Q 163.828414 182.169348 162.244371 182.014266 
Q 160.660328 181.857761 159.068077 181.857761 
Q 156.121593 181.857761 154.525239 182.429715 
Q 152.928885 183.000247 152.928885 184.063059 
Q 152.928885 185.11591 154.467787 185.690711 
Q 156.006689 186.264088 158.838268 186.264088 
Q 159.609771 186.264088 160.270473 186.231364 
Q 160.931175 186.197218 161.456453 186.126079 
L 161.456453 184.837047 
L 158.440205 184.837047 
L 158.440205 183.688869 
L 166.134715 183.688869 
L 166.134715 186.881571 
z
" clip-path="url(#p04e37c3f17)" style="fill: #ffa600"/>
   </g>
   <g id="patch_17">
    <path d="M 160.507797 179.283969 
L 153.465727 179.283969 
L 152.353821 180.617103 
L 147.823834 180.617103 
L 154.293105 173.298983 
L 159.665445 173.298983 
L 166.134715 180.617103 
L 161.608472 180.617103 
L 160.507797 179.283969 
z
M 154.588864 177.925741 
L 159.373429 177.925741 
L 156.98489 175.014804 
L 154.588864 177.925741 
z
" clip-path="url(#p04e37c3f17)" style="fill: #008000"/>
   </g>
   <g id="patch_18">
    <path d="M 166.134715 169.256797 
Q 164.603041 171.260416 162.946804 172.273875 
Q 161.290567 173.298983 159.486698 173.298983 
Q 154.107387 173.298983 150.96561 165.703866 
Q 147.823834 158.10875 147.823834 145.120169 
Q 147.823834 132.084993 150.96561 124.501525 
Q 154.107387 116.906409 159.486698 116.906409 
Q 161.290567 116.906409 162.946804 117.931517 
Q 164.603041 118.944975 166.134715 120.948595 
L 166.134715 132.189833 
Q 164.589201 129.533872 163.089822 128.299083 
Q 161.590443 127.064295 159.934205 127.064295 
Q 156.963127 127.064295 155.260755 131.875311 
Q 153.562997 136.674679 153.562997 145.120169 
Q 153.562997 153.530712 155.260755 158.341729 
Q 156.963127 163.141097 159.934205 163.141097 
Q 161.590443 163.141097 163.089822 161.906308 
Q 164.589201 160.65987 166.134715 158.00391 
L 166.134715 169.256797 
z
" clip-path="url(#p04e37c3f17)" style="fill: #0000ff"/>
   </g>
   <g id="patch_19">
    <path d="M 185.409326 191.92086 
Q 183.562644 192.08043 181.576435 192.160579 
Q 179.590225 192.24 177.472696 192.24 
Q 172.687737 192.24 169.893091 191.764933 
Q 167.098446 191.289865 167.098446 190.477442 
Q 167.098446 189.655546 169.942336 189.184122 
Q 172.790331 188.712698 177.743543 188.712698 
Q 179.651781 188.712698 181.399974 188.776818 
Q 183.15227 188.840209 184.703483 188.965533 
L 184.703483 189.668662 
Q 183.103025 189.507634 181.518982 189.428214 
Q 179.934939 189.348064 178.342689 189.348064 
Q 175.396205 189.348064 173.79985 189.640974 
Q 172.203496 189.933155 172.203496 190.477442 
Q 172.203496 191.016629 173.742398 191.310996 
Q 175.2813 191.604634 178.11288 191.604634 
Q 178.884382 191.604634 179.545084 191.587875 
Q 180.205786 191.570388 180.731065 191.533957 
L 180.731065 190.873817 
L 177.714817 190.873817 
L 177.714817 190.285812 
L 185.409326 190.285812 
L 185.409326 191.92086 
z
" clip-path="url(#p04e37c3f17)" style="fill: #ffa600"/>
   </g>
   <g id="patch_20">
    <path d="M 185.409326 188.333446 
Q 183.877653 188.521433 182.221415 188.616519 
Q 180.565178 188.712698 178.761309 188.712698 
Q 173.381998 188.712698 170.240222 188.000097 
Q 167.098446 187.287496 167.098446 186.068861 
Q 167.098446 184.845854 170.240222 184.134346 
Q 173.381998 183.421745 178.761309 183.421745 
Q 180.565178 183.421745 182.221415 183.517925 
Q 183.877653 183.613011 185.409326 183.800998 
L 185.409326 184.855691 
Q 183.863812 184.606499 182.364433 184.490647 
Q 180.865054 184.374794 179.208817 184.374794 
Q 176.237739 184.374794 174.535367 184.826181 
Q 172.837608 185.276475 172.837608 186.068861 
Q 172.837608 186.857968 174.535367 187.309355 
Q 176.237739 187.759649 179.208817 187.759649 
Q 180.865054 187.759649 182.364433 187.643797 
Q 183.863812 187.526851 185.409326 187.27766 
L 185.409326 188.333446 
z
" clip-path="url(#p04e37c3f17)" style="fill: #0000ff"/>
   </g>
   <g id="patch_21">
    <path d="M 179.782409 181.815334 
L 172.740338 181.815334 
L 171.628432 183.421745 
L 167.098446 183.421745 
L 173.567716 174.603491 
L 178.940056 174.603491 
L 185.409326 183.421745 
L 180.883083 183.421745 
L 179.782409 181.815334 
z
M 173.863476 180.178684 
L 178.64804 180.178684 
L 176.259502 176.671037 
L 173.863476 180.178684 
z
" clip-path="url(#p04e37c3f17)" style="fill: #008000"/>
   </g>
   <g id="patch_22">
    <path d="M 167.098446 89.360362 
L 185.409326 89.360362 
L 185.409326 105.985147 
L 178.821668 105.985147 
L 178.821668 174.603491 
L 173.698879 174.603491 
L 173.698879 105.985147 
L 167.098446 105.985147 
L 167.098446 89.360362 
z
" clip-path="url(#p04e37c3f17)" style="fill: #ff0000"/>
   </g>
   <g id="patch_23">
    <path d="M 199.05702 191.528988 
L 192.01495 191.528988 
L 190.903044 192.24 
L 186.373057 192.24 
L 192.842328 188.336965 
L 198.214667 188.336965 
L 204.683938 192.24 
L 200.157695 192.24 
L 199.05702 191.528988 
z
M 193.138087 190.804593 
L 197.922652 190.804593 
L 195.534113 189.252079 
L 193.138087 190.804593 
z
" clip-path="url(#p04e37c3f17)" style="fill: #008000"/>
   </g>
   <g id="patch_24">
    <path d="M 204.683938 187.861361 
Q 203.152264 188.097107 201.496027 188.216351 
Q 199.839789 188.336965 198.035921 188.336965 
Q 192.656609 188.336965 189.514833 187.443322 
Q 186.373057 186.54968 186.373057 185.021441 
Q 186.373057 183.48772 189.514833 182.595448 
Q 192.656609 181.701805 198.035921 181.701805 
Q 199.839789 181.701805 201.496027 181.82242 
Q 203.152264 181.941663 204.683938 182.17741 
L 204.683938 183.500056 
Q 203.138424 183.187555 201.639045 183.042269 
Q 200.139665 182.896984 198.483428 182.896984 
Q 195.51235 182.896984 193.809978 183.463049 
Q 192.112219 184.027743 192.112219 185.021441 
Q 192.112219 186.011027 193.809978 186.577092 
Q 195.51235 187.141786 198.483428 187.141786 
Q 200.139665 187.141786 201.639045 186.996501 
Q 203.138424 186.849845 204.683938 186.537344 
L 204.683938 187.861361 
z
" clip-path="url(#p04e37c3f17)" style="fill: #0000ff"/>
   </g>
   <g id="patch_25">
    <path d="M 186.373057 173.115128 
L 204.683938 173.115128 
L 204.683938 174.789769 
L 198.096279 174.789769 
L 198.096279 181.701805 
L 192.973491 181.701805 
L 192.973491 174.789769 
L 186.373057 174.789769 
L 186.373057 173.115128 
z
" clip-path="url(#p04e37c3f17)" style="fill: #ff0000"/>
   </g>
   <g id="patch_26">
    <path d="M 204.683938 168.66562 
Q 202.837256 170.890374 200.851046 172.00783 
Q 198.864837 173.115128 196.747308 173.115128 
Q 191.962349 173.115128 189.167703 166.491659 
Q 186.373057 159.86819 186.373057 148.541245 
Q 186.373057 137.082237 189.216948 130.509562 
Q 192.064942 123.936886 197.018154 123.936886 
Q 198.926393 123.936886 200.674585 124.830851 
Q 202.426882 125.714658 203.978095 127.461953 
L 203.978095 137.265094 
Q 202.377637 135.020022 200.793594 133.912724 
Q 199.209551 132.795268 197.6173 132.795268 
Q 194.670816 132.795268 193.074462 136.879063 
Q 191.478108 140.9527 191.478108 148.541245 
Q 191.478108 156.058679 193.017009 160.162792 
Q 194.555911 164.256746 197.387491 164.256746 
Q 198.158994 164.256746 198.819696 164.023096 
Q 199.480398 163.779287 200.005676 163.271353 
L 200.005676 154.067575 
L 196.989428 154.067575 
L 196.989428 145.869508 
L 204.683938 145.869508 
L 204.683938 168.66562 
z
" clip-path="url(#p04e37c3f17)" style="fill: #ffa600"/>
   </g>
   <g id="patch_27">
    <path d="M 223.958549 191.848165 
Q 222.111867 192.044083 220.125658 192.142489 
Q 218.139448 192.24 216.021919 192.24 
Q 211.23696 192.24 208.442314 191.656721 
Q 205.647668 191.073442 205.647668 190.075963 
Q 205.647668 189.066855 208.491559 188.488049 
Q 211.339554 187.909243 216.292766 187.909243 
Q 218.201004 187.909243 219.949197 187.987968 
Q 221.701493 188.065798 223.252706 188.219669 
L 223.252706 189.082958 
Q 221.652248 188.885251 220.068205 188.78774 
Q 218.484162 188.689334 216.891912 188.689334 
Q 213.945427 188.689334 212.349073 189.048963 
Q 210.752719 189.407697 210.752719 190.075963 
Q 210.752719 190.737967 212.291621 191.099385 
Q 213.830523 191.459909 216.662102 191.459909 
Q 217.433605 191.459909 218.094307 191.439333 
Q 218.755009 191.417863 219.280287 191.373133 
L 219.280287 190.562626 
L 216.26404 190.562626 
L 216.26404 189.840684 
L 223.958549 189.840684 
L 223.958549 191.848165 
z
" clip-path="url(#p04e37c3f17)" style="fill: #ffa600"/>
   </g>
   <g id="patch_28">
    <path d="M 218.331632 187.007609 
L 211.289561 187.007609 
L 210.177655 187.909243 
L 205.647668 187.909243 
L 212.116939 182.959806 
L 217.489279 182.959806 
L 223.958549 187.909243 
L 219.432306 187.909243 
L 218.331632 187.007609 
z
M 212.412698 186.089004 
L 217.197263 186.089004 
L 214.808724 184.120261 
L 212.412698 186.089004 
z
" clip-path="url(#p04e37c3f17)" style="fill: #008000"/>
   </g>
   <g id="patch_29">
    <path d="M 205.647668 175.535651 
L 223.958549 175.535651 
L 223.958549 176.983568 
L 217.37089 176.983568 
L 217.37089 182.959806 
L 212.248102 182.959806 
L 212.248102 176.983568 
L 205.647668 176.983568 
L 205.647668 175.535651 
z
" clip-path="url(#p04e37c3f17)" style="fill: #ff0000"/>
   </g>
   <g id="patch_30">
    <path d="M 223.958549 168.972356 
Q 222.426876 172.225632 220.770638 173.871184 
Q 219.114401 175.535651 217.310532 175.535651 
Q 211.931221 175.535651 208.789445 163.203466 
Q 205.647668 150.871281 205.647668 129.781732 
Q 205.647668 108.616525 208.789445 96.303254 
Q 211.931221 83.971069 217.310532 83.971069 
Q 219.114401 83.971069 220.770638 85.635536 
Q 222.426876 87.281088 223.958549 90.534364 
L 223.958549 108.786754 
Q 222.413035 104.474272 220.913656 102.469347 
Q 219.414277 100.464421 217.758039 100.464421 
Q 214.786962 100.464421 213.08459 108.276066 
Q 211.386831 116.068796 211.386831 129.781732 
Q 211.386831 143.437924 213.08459 151.249569 
Q 214.786962 159.042299 217.758039 159.042299 
Q 219.414277 159.042299 220.913656 157.037373 
Q 222.413035 155.013533 223.958549 150.701051 
L 223.958549 168.972356 
z
" clip-path="url(#p04e37c3f17)" style="fill: #0000ff"/>
   </g>
   <g id="patch_31">
    <path d="M 243.233161 192.189066 
Q 241.701487 192.214313 240.04525 192.227083 
Q 238.389012 192.24 236.585144 192.24 
Q 231.205832 192.24 228.064056 192.144297 
Q 224.92228 192.048594 224.92228 191.884931 
Q 224.92228 191.72068 228.064056 191.625124 
Q 231.205832 191.529422 236.585144 191.529422 
Q 238.389012 191.529422 240.04525 191.542339 
Q 241.701487 191.555109 243.233161 191.580356 
L 243.233161 191.722001 
Q 241.687647 191.688535 240.188267 191.672976 
Q 238.688888 191.657417 237.032651 191.657417 
Q 234.061573 191.657417 232.359201 191.718038 
Q 230.661442 191.778513 230.661442 191.884931 
Q 230.661442 191.990909 232.359201 192.05153 
Q 234.061573 192.112005 237.032651 192.112005 
Q 238.688888 192.112005 240.188267 192.096446 
Q 241.687647 192.08074 243.233161 192.047273 
L 243.233161 192.189066 
z
" clip-path="url(#p04e37c3f17)" style="fill: #0000ff"/>
   </g>
   <g id="patch_32">
    <path d="M 224.92228 186.555374 
L 243.233161 186.555374 
L 243.233161 187.525452 
L 236.645502 187.525452 
L 236.645502 191.529422 
L 231.522714 191.529422 
L 231.522714 187.525452 
L 224.92228 187.525452 
L 224.92228 186.555374 
z
" clip-path="url(#p04e37c3f17)" style="fill: #ff0000"/>
   </g>
   <g id="patch_33">
    <path d="M 243.233161 185.655298 
Q 241.386478 186.105336 239.400269 186.331382 
Q 237.41406 186.555374 235.296531 186.555374 
Q 230.511572 186.555374 227.716926 185.215535 
Q 224.92228 183.875696 224.92228 181.584408 
Q 224.92228 179.266405 227.766171 177.936841 
Q 230.614165 176.607278 235.567377 176.607278 
Q 237.475616 176.607278 239.223808 176.788115 
Q 240.976104 176.966897 242.527318 177.320351 
L 242.527318 179.303394 
Q 240.92686 178.849247 239.342817 178.625255 
Q 237.758774 178.399209 236.166523 178.399209 
Q 233.220039 178.399209 231.623685 179.225306 
Q 230.02733 180.049348 230.02733 181.584408 
Q 230.02733 183.105084 231.566232 183.935291 
Q 233.105134 184.763442 235.936714 184.763442 
Q 236.708217 184.763442 237.368918 184.716178 
Q 238.02962 184.666859 238.554899 184.56411 
L 238.554899 182.70231 
L 235.538651 182.70231 
L 235.538651 181.043952 
L 243.233161 181.043952 
L 243.233161 185.655298 
z
" clip-path="url(#p04e37c3f17)" style="fill: #ffa600"/>
   </g>
   <g id="patch_34">
    <path d="M 237.606243 156.802154 
L 230.564173 156.802154 
L 229.452267 176.607278 
L 224.92228 176.607278 
L 231.39155 67.888799 
L 236.76389 67.888799 
L 243.233161 176.607278 
L 238.706918 176.607278 
L 237.606243 156.802154 
z
M 231.68731 136.624228 
L 236.471874 136.624228 
L 234.083336 93.379158 
L 231.68731 136.624228 
z
" clip-path="url(#p04e37c3f17)" style="fill: #008000"/>
   </g>
   <g id="patch_35">
    <path d="M 262.507772 192.01462 
Q 260.976098 192.126336 259.319861 192.182843 
Q 257.663624 192.24 255.859755 192.24 
Q 250.480444 192.24 247.338667 191.816519 
Q 244.196891 191.393038 244.196891 190.668833 
Q 244.196891 189.942031 247.338667 189.519199 
Q 250.480444 189.095718 255.859755 189.095718 
Q 257.663624 189.095718 259.319861 189.152875 
Q 260.976098 189.209382 262.507772 189.321098 
L 262.507772 189.947876 
Q 260.962258 189.799788 259.462879 189.73094 
Q 257.9635 189.662091 256.307262 189.662091 
Q 253.336184 189.662091 251.633812 189.930339 
Q 249.936054 190.197938 249.936054 190.668833 
Q 249.936054 191.13778 251.633812 191.406028 
Q 253.336184 191.673627 256.307262 191.673627 
Q 257.9635 191.673627 259.462879 191.604778 
Q 260.962258 191.535281 262.507772 191.387192 
L 262.507772 192.01462 
z
" clip-path="url(#p04e37c3f17)" style="fill: #0000ff"/>
   </g>
   <g id="patch_36">
    <path d="M 244.196891 184.379295 
L 262.507772 184.379295 
L 262.507772 185.299129 
L 255.920113 185.299129 
L 255.920113 189.095718 
L 250.797325 189.095718 
L 250.797325 185.299129 
L 244.196891 185.299129 
L 244.196891 184.379295 
z
" clip-path="url(#p04e37c3f17)" style="fill: #ff0000"/>
   </g>
   <g id="patch_37">
    <path d="M 262.507772 183.336181 
Q 260.66109 183.857738 258.67488 184.119707 
Q 256.688671 184.379295 254.571142 184.379295 
Q 249.786183 184.379295 246.991537 182.826531 
Q 244.196891 181.273767 244.196891 178.61835 
Q 244.196891 175.931973 247.040782 174.391117 
Q 249.888776 172.850261 254.841989 172.850261 
Q 256.750227 172.850261 258.49842 173.059837 
Q 260.250716 173.26703 261.801929 173.676655 
L 261.801929 175.974841 
Q 260.201471 175.448521 258.617428 175.188933 
Q 257.033385 174.926964 255.441134 174.926964 
Q 252.49465 174.926964 250.898296 175.884343 
Q 249.301942 176.83934 249.301942 178.61835 
Q 249.301942 180.38069 250.840844 181.342832 
Q 252.379746 182.302592 255.211325 182.302592 
Q 255.982828 182.302592 256.64353 182.247817 
Q 257.304232 182.19066 257.82951 182.071583 
L 257.82951 179.913908 
L 254.813262 179.913908 
L 254.813262 177.992005 
L 262.507772 177.992005 
L 262.507772 183.336181 
z
" clip-path="url(#p04e37c3f17)" style="fill: #ffa600"/>
   </g>
   <g id="patch_38">
    <path d="M 256.880854 159.676083 
L 249.838784 159.676083 
L 248.726878 172.850261 
L 244.196891 172.850261 
L 250.666162 100.531775 
L 256.038502 100.531775 
L 262.507772 172.850261 
L 257.981529 172.850261 
L 256.880854 159.676083 
z
M 250.961921 146.253921 
L 255.746486 146.253921 
L 253.357947 117.487717 
L 250.961921 146.253921 
z
" clip-path="url(#p04e37c3f17)" style="fill: #008000"/>
   </g>
   <g id="patch_39">
    <path d="M 263.471503 191.318502 
L 281.782383 191.318502 
L 281.782383 191.49822 
L 275.194725 191.49822 
L 275.194725 192.24 
L 270.071936 192.24 
L 270.071936 191.49822 
L 263.471503 191.49822 
L 263.471503 191.318502 
z
" clip-path="url(#p04e37c3f17)" style="fill: #ff0000"/>
   </g>
   <g id="patch_40">
    <path d="M 281.782383 191.120345 
Q 280.25071 191.218567 278.594472 191.268249 
Q 276.938235 191.318502 275.134366 191.318502 
Q 269.755055 191.318502 266.613279 190.946172 
Q 263.471503 190.573842 263.471503 189.937112 
Q 263.471503 189.298097 266.613279 188.926338 
Q 269.755055 188.554008 275.134366 188.554008 
Q 276.938235 188.554008 278.594472 188.604262 
Q 280.25071 188.653944 281.782383 188.752166 
L 281.782383 189.303237 
Q 280.236869 189.173036 278.73749 189.112504 
Q 277.238111 189.051971 275.581874 189.051971 
Q 272.610796 189.051971 270.908424 189.287818 
Q 269.210665 189.523094 269.210665 189.937112 
Q 269.210665 190.349416 270.908424 190.585263 
Q 272.610796 190.820539 275.581874 190.820539 
Q 277.238111 190.820539 278.73749 190.760007 
Q 280.236869 190.698904 281.782383 190.568702 
L 281.782383 191.120345 
z
" clip-path="url(#p04e37c3f17)" style="fill: #0000ff"/>
   </g>
   <g id="patch_41">
    <path d="M 281.782383 188.303885 
Q 279.935701 188.428947 277.949492 188.491763 
Q 275.963282 188.554008 273.845753 188.554008 
Q 269.060794 188.554008 266.266148 188.181678 
Q 263.471503 187.809348 263.471503 187.172618 
Q 263.471503 186.528464 266.315393 186.158989 
Q 269.163388 185.789515 274.1166 185.789515 
Q 276.024838 185.789515 277.773031 185.839768 
Q 279.525327 185.88945 281.07654 185.987672 
L 281.07654 186.538743 
Q 279.476082 186.412539 277.892039 186.350294 
Q 276.307996 186.287478 274.715746 186.287478 
Q 271.769262 186.287478 270.172907 186.517043 
Q 268.576553 186.746037 268.576553 187.172618 
Q 268.576553 187.595201 270.115455 187.825909 
Q 271.654357 188.056045 274.485937 188.056045 
Q 275.257439 188.056045 275.918141 188.042911 
Q 276.578843 188.029206 277.104122 188.000653 
L 277.104122 187.483274 
L 274.087874 187.483274 
L 274.087874 187.02243 
L 281.782383 187.02243 
L 281.782383 188.303885 
z
" clip-path="url(#p04e37c3f17)" style="fill: #ffa600"/>
   </g>
   <g id="patch_42">
    <path d="M 276.155466 157.58765 
L 269.113395 157.58765 
L 268.001489 185.789515 
L 263.471503 185.789515 
L 269.940773 30.977867 
L 275.313113 30.977867 
L 281.782383 185.789515 
L 277.25614 185.789515 
L 276.155466 157.58765 
z
M 270.236533 128.854927 
L 275.021097 128.854927 
L 272.632559 67.275326 
L 270.236533 128.854927 
z
" clip-path="url(#p04e37c3f17)" style="fill: #008000"/>
   </g>
   <g id="patch_43">
    <path d="M 301.056995 192.076025 
Q 299.525321 192.157304 297.869084 192.198416 
Q 296.212846 192.24 294.408978 192.24 
Q 289.029666 192.24 285.88789 191.931898 
Q 282.746114 191.623796 282.746114 191.096903 
Q 282.746114 190.568121 285.88789 190.260491 
Q 289.029666 189.952389 294.408978 189.952389 
Q 296.212846 189.952389 297.869084 189.993973 
Q 299.525321 190.035085 301.056995 190.116364 
L 301.056995 190.572374 
Q 299.511481 190.464632 298.012102 190.414542 
Q 296.512722 190.364452 294.856485 190.364452 
Q 291.885407 190.364452 290.183035 190.559615 
Q 288.485276 190.754305 288.485276 191.096903 
Q 288.485276 191.438084 290.183035 191.633247 
Q 291.885407 191.827937 294.856485 191.827937 
Q 296.512722 191.827937 298.012102 191.777847 
Q 299.511481 191.727284 301.056995 191.619543 
L 301.056995 192.076025 
z
" clip-path="url(#p04e37c3f17)" style="fill: #0000ff"/>
   </g>
   <g id="patch_44">
    <path d="M 301.056995 189.279715 
Q 299.210313 189.616052 297.224103 189.784989 
Q 295.237894 189.952389 293.120365 189.952389 
Q 288.335406 189.952389 285.54076 188.951057 
Q 282.746114 187.949725 282.746114 186.237325 
Q 282.746114 184.50496 285.590005 183.511307 
Q 288.437999 182.517654 293.391211 182.517654 
Q 295.29945 182.517654 297.047642 182.652803 
Q 298.799939 182.786416 300.351152 183.050571 
L 300.351152 184.532604 
Q 298.750694 184.193195 297.166651 184.025795 
Q 295.582608 183.856858 293.990357 183.856858 
Q 291.043873 183.856858 289.447519 184.474244 
Q 287.851165 185.090094 287.851165 186.237325 
Q 287.851165 187.373806 289.390066 187.994263 
Q 290.928968 188.613185 293.760548 188.613185 
Q 294.532051 188.613185 295.192753 188.577861 
Q 295.853455 188.541003 296.378733 188.464213 
L 296.378733 187.072792 
L 293.362485 187.072792 
L 293.362485 185.833414 
L 301.056995 185.833414 
L 301.056995 189.279715 
z
" clip-path="url(#p04e37c3f17)" style="fill: #ffa600"/>
   </g>
   <g id="patch_45">
    <path d="M 282.746114 173.939113 
L 301.056995 173.939113 
L 301.056995 175.612167 
L 294.469336 175.612167 
L 294.469336 182.517654 
L 289.346548 182.517654 
L 289.346548 175.612167 
L 282.746114 175.612167 
L 282.746114 173.939113 
z
" clip-path="url(#p04e37c3f17)" style="fill: #ff0000"/>
   </g>
   <g id="patch_46">
    <path d="M 295.430077 159.040961 
L 288.388007 159.040961 
L 287.276101 173.939113 
L 282.746114 173.939113 
L 289.215385 92.157023 
L 294.587724 92.157023 
L 301.056995 173.939113 
L 296.530752 173.939113 
L 295.430077 159.040961 
z
M 289.511144 143.862373 
L 294.295709 143.862373 
L 291.90717 111.331821 
L 289.511144 143.862373 
z
" clip-path="url(#p04e37c3f17)" style="fill: #008000"/>
   </g>
   <g id="patch_47">
    <path d="M 320.331606 191.924025 
Q 318.484924 192.082013 316.498715 192.161367 
Q 314.512505 192.24 312.394976 192.24 
Q 307.610017 192.24 304.815371 191.769645 
Q 302.020725 191.29929 302.020725 190.494926 
Q 302.020725 189.681183 304.864616 189.214436 
Q 307.712611 188.747688 312.665823 188.747688 
Q 314.574061 188.747688 316.322254 188.811171 
Q 318.07455 188.873933 319.625763 188.998015 
L 319.625763 189.694169 
Q 318.025305 189.534739 316.441262 189.456106 
Q 314.857219 189.376751 313.264969 189.376751 
Q 310.318484 189.376751 308.72213 189.666755 
Q 307.125776 189.956038 307.125776 190.494926 
Q 307.125776 191.028764 308.664678 191.320211 
Q 310.20358 191.610937 313.035159 191.610937 
Q 313.806662 191.610937 314.467364 191.594344 
Q 315.128066 191.577031 315.653344 191.54096 
L 315.653344 190.887369 
L 312.637097 190.887369 
L 312.637097 190.305197 
L 320.331606 190.305197 
L 320.331606 191.924025 
z
" clip-path="url(#p04e37c3f17)" style="fill: #ffa600"/>
   </g>
   <g id="patch_48">
    <path d="M 320.331606 188.447296 
Q 318.799933 188.596193 317.143695 188.671508 
Q 315.487458 188.747688 313.683589 188.747688 
Q 308.304278 188.747688 305.162502 188.183262 
Q 302.020725 187.618836 302.020725 186.653599 
Q 302.020725 185.684899 305.162502 185.121339 
Q 308.304278 184.556913 313.683589 184.556913 
Q 315.487458 184.556913 317.143695 184.633093 
Q 318.799933 184.708408 320.331606 184.857306 
L 320.331606 185.69269 
Q 318.786092 185.495314 317.286713 185.403552 
Q 315.787334 185.311789 314.131096 185.311789 
Q 311.160019 185.311789 309.457647 185.669317 
Q 307.759888 186.025978 307.759888 186.653599 
Q 307.759888 187.278623 309.457647 187.63615 
Q 311.160019 187.992812 314.131096 187.992812 
Q 315.787334 187.992812 317.286713 187.901049 
Q 318.786092 187.808421 320.331606 187.611045 
L 320.331606 188.447296 
z
" clip-path="url(#p04e37c3f17)" style="fill: #0000ff"/>
   </g>
   <g id="patch_49">
    <path d="M 302.020725 177.572289 
L 320.331606 177.572289 
L 320.331606 178.934485 
L 313.743947 178.934485 
L 313.743947 184.556913 
L 308.621159 184.556913 
L 308.621159 178.934485 
L 302.020725 178.934485 
L 302.020725 177.572289 
z
" clip-path="url(#p04e37c3f17)" style="fill: #ff0000"/>
   </g>
   <g id="patch_50">
    <path d="M 314.704689 157.977619 
L 307.662618 157.977619 
L 306.550712 177.572289 
L 302.020725 177.572289 
L 308.489996 70.009075 
L 313.862336 70.009075 
L 320.331606 177.572289 
L 315.805363 177.572289 
L 314.704689 157.977619 
z
M 308.785755 138.014107 
L 313.57032 138.014107 
L 311.181781 95.228568 
L 308.785755 138.014107 
z
" clip-path="url(#p04e37c3f17)" style="fill: #008000"/>
   </g>
   <g id="patch_51">
    <path d="M 339.606218 191.961667 
Q 337.759535 192.100834 335.773326 192.170735 
Q 333.787117 192.24 331.669588 192.24 
Q 326.884629 192.24 324.089983 191.825678 
Q 321.295337 191.411356 321.295337 190.702814 
Q 321.295337 189.986012 324.139228 189.574867 
Q 326.987222 189.163723 331.940434 189.163723 
Q 333.848673 189.163723 335.596865 189.219643 
Q 337.349161 189.274929 338.900375 189.384228 
L 338.900375 189.99745 
Q 337.299917 189.857013 335.715874 189.787747 
Q 334.131831 189.717847 332.53958 189.717847 
Q 329.593096 189.717847 327.996742 189.973303 
Q 326.400387 190.228123 326.400387 190.702814 
Q 326.400387 191.173057 327.939289 191.429784 
Q 329.478191 191.685876 332.309771 191.685876 
Q 333.081274 191.685876 333.741975 191.67126 
Q 334.402677 191.656009 334.927956 191.624236 
L 334.927956 191.048506 
L 331.911708 191.048506 
L 331.911708 190.535688 
L 339.606218 190.535688 
L 339.606218 191.961667 
z
" clip-path="url(#p04e37c3f17)" style="fill: #ffa600"/>
   </g>
   <g id="patch_52">
    <path d="M 333.9793 188.267079 
L 326.93723 188.267079 
L 325.825324 189.163723 
L 321.295337 189.163723 
L 327.764607 184.241679 
L 333.136947 184.241679 
L 339.606218 189.163723 
L 335.079975 189.163723 
L 333.9793 188.267079 
z
M 328.060367 187.353558 
L 332.844931 187.353558 
L 330.456393 185.395711 
L 328.060367 187.353558 
z
" clip-path="url(#p04e37c3f17)" style="fill: #008000"/>
   </g>
   <g id="patch_53">
    <path d="M 339.606218 183.580162 
Q 338.074544 183.908061 336.418307 184.073916 
Q 334.762069 184.241679 332.958201 184.241679 
Q 327.578889 184.241679 324.437113 182.998713 
Q 321.295337 181.755747 321.295337 179.630122 
Q 321.295337 177.496872 324.437113 176.255813 
Q 327.578889 175.012847 332.958201 175.012847 
Q 334.762069 175.012847 336.418307 175.180609 
Q 338.074544 175.346465 339.606218 175.674364 
L 339.606218 177.51403 
Q 338.060704 177.079373 336.561324 176.877296 
Q 335.061945 176.675218 333.405708 176.675218 
Q 330.43463 176.675218 328.732258 177.462557 
Q 327.034499 178.24799 327.034499 179.630122 
Q 327.034499 181.006536 328.732258 181.793874 
Q 330.43463 182.579307 333.405708 182.579307 
Q 335.061945 182.579307 336.561324 182.37723 
Q 338.060704 182.173246 339.606218 181.738589 
L 339.606218 183.580162 
z
" clip-path="url(#p04e37c3f17)" style="fill: #0000ff"/>
   </g>
   <g id="patch_54">
    <path d="M 321.295337 84.570291 
L 339.606218 84.570291 
L 339.606218 102.209109 
L 333.018559 102.209109 
L 333.018559 175.012847 
L 327.895771 175.012847 
L 327.895771 102.209109 
L 321.295337 102.209109 
L 321.295337 84.570291 
z
" clip-path="url(#p04e37c3f17)" style="fill: #ff0000"/>
   </g>
   <g id="patch_55">
    <path d="M 358.880829 192.048278 
Q 357.349155 192.14331 355.692918 192.191379 
Q 354.036681 192.24 352.232812 192.24 
Q 346.853501 192.24 343.711724 191.879762 
Q 340.569948 191.519523 340.569948 190.903472 
Q 340.569948 190.28521 343.711724 189.925524 
Q 346.853501 189.565286 352.232812 189.565286 
Q 354.036681 189.565286 355.692918 189.613907 
Q 357.349155 189.661975 358.880829 189.757008 
L 358.880829 190.290182 
Q 357.335315 190.16421 355.835936 190.105643 
Q 354.336556 190.047077 352.680319 190.047077 
Q 349.709241 190.047077 348.006869 190.275265 
Q 346.309111 190.5029 346.309111 190.903472 
Q 346.309111 191.302386 348.006869 191.530574 
Q 349.709241 191.758209 352.680319 191.758209 
Q 354.336556 191.758209 355.835936 191.699643 
Q 357.335315 191.640524 358.880829 191.514551 
L 358.880829 192.048278 
z
" clip-path="url(#p04e37c3f17)" style="fill: #0000ff"/>
   </g>
   <g id="patch_56">
    <path d="M 340.569948 186.890571 
L 358.880829 186.890571 
L 358.880829 187.412215 
L 352.29317 187.412215 
L 352.29317 189.565286 
L 347.170382 189.565286 
L 347.170382 187.412215 
L 340.569948 187.412215 
L 340.569948 186.890571 
z
" clip-path="url(#p04e37c3f17)" style="fill: #ff0000"/>
   </g>
   <g id="patch_57">
    <path d="M 353.253911 184.81976 
L 346.211841 184.81976 
L 345.099935 186.890571 
L 340.569948 186.890571 
L 347.039219 175.523036 
L 352.411559 175.523036 
L 358.880829 186.890571 
L 354.354586 186.890571 
L 353.253911 184.81976 
z
M 347.334978 182.709969 
L 352.119543 182.709969 
L 349.731004 178.188292 
L 347.334978 182.709969 
z
" clip-path="url(#p04e37c3f17)" style="fill: #008000"/>
   </g>
   <g id="patch_58">
    <path d="M 358.880829 166.448013 
Q 357.034147 170.985525 355.047937 173.26464 
Q 353.061728 175.523036 350.944199 175.523036 
Q 346.15924 175.523036 343.364594 162.014099 
Q 340.569948 148.505161 340.569948 125.403221 
Q 340.569948 102.031931 343.413839 88.62659 
Q 346.261833 75.221249 351.215046 75.221249 
Q 353.123284 75.221249 354.871477 77.044542 
Q 356.623773 78.847114 358.174986 82.410822 
L 358.174986 102.404877 
Q 356.574528 97.825928 354.990485 95.567532 
Q 353.406442 93.288417 351.814191 93.288417 
Q 348.867707 93.288417 347.271353 101.617547 
Q 345.674999 109.925958 345.674999 125.403221 
Q 345.674999 140.735451 347.213901 149.106019 
Q 348.752803 157.455868 351.584382 157.455868 
Q 352.355885 157.455868 353.016587 156.979326 
Q 353.677289 156.482064 354.202567 155.446103 
L 354.202567 136.674482 
L 351.186319 136.674482 
L 351.186319 119.954064 
L 358.880829 119.954064 
L 358.880829 166.448013 
z
" clip-path="url(#p04e37c3f17)" style="fill: #ffa600"/>
   </g>
   <g id="patch_59">
    <path d="M 372.528523 191.862586 
L 365.486452 191.862586 
L 364.374546 192.24 
L 359.84456 192.24 
L 366.31383 190.168219 
L 371.68617 190.168219 
L 378.15544 192.24 
L 373.629197 192.24 
L 372.528523 191.862586 
z
M 366.60959 191.478068 
L 371.394154 191.478068 
L 369.005616 190.653973 
L 366.60959 191.478068 
z
" clip-path="url(#p04e37c3f17)" style="fill: #008000"/>
   </g>
   <g id="patch_60">
    <path d="M 378.15544 189.722707 
Q 376.623767 189.943537 374.967529 190.055236 
Q 373.311292 190.168219 371.507423 190.168219 
Q 366.128112 190.168219 362.986336 189.331118 
Q 359.84456 188.494018 359.84456 187.062473 
Q 359.84456 185.625792 362.986336 184.789976 
Q 366.128112 183.952875 371.507423 183.952875 
Q 373.311292 183.952875 374.967529 184.065858 
Q 376.623767 184.177557 378.15544 184.398387 
L 378.15544 185.637347 
Q 376.609926 185.344619 375.110547 185.208526 
Q 373.611168 185.072433 371.954931 185.072433 
Q 368.983853 185.072433 367.281481 185.602682 
Q 365.583722 186.131648 365.583722 187.062473 
Q 365.583722 187.989446 367.281481 188.519695 
Q 368.983853 189.048661 371.954931 189.048661 
Q 373.611168 189.048661 375.110547 188.912568 
Q 376.609926 188.775191 378.15544 188.482462 
L 378.15544 189.722707 
z
" clip-path="url(#p04e37c3f17)" style="fill: #0000ff"/>
   </g>
   <g id="patch_61">
    <path d="M 378.15544 183.328045 
Q 376.308758 183.64046 374.322549 183.797381 
Q 372.336339 183.952875 370.21881 183.952875 
Q 365.433851 183.952875 362.639205 183.022763 
Q 359.84456 182.092651 359.84456 180.502046 
Q 359.84456 178.892896 362.68845 177.969917 
Q 365.536445 177.046938 370.489657 177.046938 
Q 372.397895 177.046938 374.146088 177.172474 
Q 375.898384 177.296584 377.449597 177.541951 
L 377.449597 178.918574 
Q 375.849139 178.603306 374.265096 178.447811 
Q 372.681053 178.290891 371.088803 178.290891 
Q 368.142319 178.290891 366.545964 178.864365 
Q 364.94961 179.436412 364.94961 180.502046 
Q 364.94961 181.557694 366.488512 182.134021 
Q 368.027414 182.708922 370.858994 182.708922 
Q 371.630496 182.708922 372.291198 182.676111 
Q 372.9519 182.641874 373.477179 182.570546 
L 373.477179 181.27809 
L 370.460931 181.27809 
L 370.460931 180.126863 
L 378.15544 180.126863 
L 378.15544 183.328045 
z
" clip-path="url(#p04e37c3f17)" style="fill: #ffa600"/>
   </g>
   <g id="patch_62">
    <path d="M 359.84456 71.386094 
L 378.15544 71.386094 
L 378.15544 91.992902 
L 371.567782 91.992902 
L 371.567782 177.046938 
L 366.444993 177.046938 
L 366.444993 91.992902 
L 359.84456 91.992902 
L 359.84456 71.386094 
z
" clip-path="url(#p04e37c3f17)" style="fill: #ff0000"/>
   </g>
   <g id="patch_63">
    <path d="M 397.430052 192.068021 
Q 395.58337 192.15401 393.59716 192.197202 
Q 391.610951 192.24 389.493422 192.24 
Q 384.708463 192.24 381.913817 191.983995 
Q 379.119171 191.727989 379.119171 191.290189 
Q 379.119171 190.847284 381.963062 190.593242 
Q 384.811056 190.3392 389.764268 190.3392 
Q 391.672507 190.3392 393.420699 190.373753 
Q 395.172996 190.407913 396.724209 190.475448 
L 396.724209 190.854352 
Q 395.123751 190.767577 393.539708 190.724779 
Q 391.955665 190.681587 390.363414 190.681587 
Q 387.41693 190.681587 385.820576 190.839431 
Q 384.224222 190.996882 384.224222 191.290189 
Q 384.224222 191.580747 385.763123 191.739376 
Q 387.302025 191.897613 390.133605 191.897613 
Q 390.905108 191.897613 391.56581 191.888582 
Q 392.226511 191.879158 392.75179 191.859526 
L 392.75179 191.503788 
L 389.735542 191.503788 
L 389.735542 191.186923 
L 397.430052 191.186923 
L 397.430052 192.068021 
z
" clip-path="url(#p04e37c3f17)" style="fill: #ffa600"/>
   </g>
   <g id="patch_64">
    <path d="M 379.119171 186.5376 
L 397.430052 186.5376 
L 397.430052 187.279018 
L 390.842393 187.279018 
L 390.842393 190.3392 
L 385.719605 190.3392 
L 385.719605 187.279018 
L 379.119171 187.279018 
L 379.119171 186.5376 
z
" clip-path="url(#p04e37c3f17)" style="fill: #ff0000"/>
   </g>
   <g id="patch_65">
    <path d="M 391.803134 157.278071 
L 384.761064 157.278071 
L 383.649158 186.5376 
L 379.119171 186.5376 
L 385.588441 25.92 
L 390.960781 25.92 
L 397.430052 186.5376 
L 392.903809 186.5376 
L 391.803134 157.278071 
z
M 385.884201 127.467775 
L 390.668766 127.467775 
L 388.280227 63.578734 
L 385.884201 127.467775 
z
" clip-path="url(#p04e37c3f17)" style="fill: #008000"/>
   </g>
   <g id="patch_66">
    <path d="M 411.077746 191.838787 
L 404.035675 191.838787 
L 402.923769 192.24 
L 398.393782 192.24 
L 404.863053 190.037575 
L 410.235393 190.037575 
L 416.704663 192.24 
L 412.17842 192.24 
L 411.077746 191.838787 
z
M 405.158812 191.430021 
L 409.943377 191.430021 
L 407.554838 190.55396 
L 405.158812 191.430021 
z
" clip-path="url(#p04e37c3f17)" style="fill: #008000"/>
   </g>
   <g id="patch_67">
    <path d="M 416.704663 189.77446 
Q 415.17299 189.90488 413.516752 189.970848 
Q 411.860515 190.037575 410.056646 190.037575 
Q 404.677335 190.037575 401.535559 189.543193 
Q 398.393782 189.048811 398.393782 188.203358 
Q 398.393782 187.354871 401.535559 186.861248 
Q 404.677335 186.366866 410.056646 186.366866 
Q 411.860515 186.366866 413.516752 186.433592 
Q 415.17299 186.49956 416.704663 186.62998 
L 416.704663 187.361695 
Q 415.159149 187.188813 413.65977 187.108439 
Q 412.160391 187.028064 410.504153 187.028064 
Q 407.533076 187.028064 405.830703 187.341223 
Q 404.132945 187.653623 404.132945 188.203358 
Q 404.132945 188.750817 405.830703 189.063976 
Q 407.533076 189.376377 410.504153 189.376377 
Q 412.160391 189.376377 413.65977 189.296002 
Q 415.159149 189.214869 416.704663 189.041987 
L 416.704663 189.77446 
z
" clip-path="url(#p04e37c3f17)" style="fill: #0000ff"/>
   </g>
   <g id="patch_68">
    <path d="M 416.704663 185.636212 
Q 414.857981 186.001539 412.871772 186.185037 
Q 410.885562 186.366866 408.768033 186.366866 
Q 403.983074 186.366866 401.188428 185.279226 
Q 398.393782 184.191586 398.393782 182.331588 
Q 398.393782 180.449905 401.237673 179.370606 
Q 404.085668 178.291306 409.03888 178.291306 
Q 410.947118 178.291306 412.695311 178.438104 
Q 414.447607 178.583234 415.99882 178.870158 
L 415.99882 180.479932 
Q 414.398362 180.111268 412.814319 179.929439 
Q 411.230276 179.745941 409.638026 179.745941 
Q 406.691541 179.745941 405.095187 180.416541 
Q 403.498833 181.085473 403.498833 182.331588 
Q 403.498833 183.566026 405.037735 184.239963 
Q 406.576637 184.912231 409.408216 184.912231 
Q 410.179719 184.912231 410.840421 184.873863 
Q 411.501123 184.833827 412.026401 184.750419 
L 412.026401 183.239067 
L 409.010154 183.239067 
L 409.010154 181.892862 
L 416.704663 181.892862 
L 416.704663 185.636212 
z
" clip-path="url(#p04e37c3f17)" style="fill: #ffa600"/>
   </g>
   <g id="patch_69">
    <path d="M 398.393782 63.765191 
L 416.704663 63.765191 
L 416.704663 86.100974 
L 410.117004 86.100974 
L 410.117004 178.291306 
L 404.994216 178.291306 
L 404.994216 86.100974 
L 398.393782 86.100974 
L 398.393782 63.765191 
z
" clip-path="url(#p04e37c3f17)" style="fill: #ff0000"/>
   </g>
   <g id="patch_70">
    <path d="M 435.979275 192.164776 
Q 434.132592 192.202388 432.146383 192.22128 
Q 430.160174 192.24 428.042645 192.24 
Q 423.257686 192.24 420.46304 192.128023 
Q 417.668394 192.016046 417.668394 191.824551 
Q 417.668394 191.630824 420.512285 191.519705 
Q 423.360279 191.408587 428.313491 191.408587 
Q 430.22173 191.408587 431.969922 191.423701 
Q 433.722218 191.438642 435.273432 191.468182 
L 435.273432 191.633915 
Q 433.672974 191.59596 432.088931 191.57724 
Q 430.504888 191.558348 428.912637 191.558348 
Q 425.966153 191.558348 424.369799 191.627389 
Q 422.773444 191.696258 422.773444 191.824551 
Q 422.773444 191.951642 424.312346 192.021026 
Q 425.851248 192.090239 428.682828 192.090239 
Q 429.454331 192.090239 430.115032 192.086289 
Q 430.775734 192.082167 431.301013 192.07358 
L 431.301013 191.91798 
L 428.284765 191.91798 
L 428.284765 191.779382 
L 435.979275 191.779382 
L 435.979275 192.164776 
z
" clip-path="url(#p04e37c3f17)" style="fill: #ffa600"/>
   </g>
   <g id="patch_71">
    <path d="M 435.979275 191.229801 
Q 434.447601 191.318421 432.791364 191.363247 
Q 431.135126 191.408587 429.331258 191.408587 
Q 423.951946 191.408587 420.81017 191.072656 
Q 417.668394 190.736724 417.668394 190.16224 
Q 417.668394 189.585696 420.81017 189.25028 
Q 423.951946 188.914348 429.331258 188.914348 
Q 431.135126 188.914348 432.791364 188.959689 
Q 434.447601 189.004514 435.979275 189.093134 
L 435.979275 189.590333 
Q 434.433761 189.47286 432.934381 189.418245 
Q 431.435002 189.363631 429.778765 189.363631 
Q 426.807687 189.363631 425.105315 189.576421 
Q 423.407556 189.788697 423.407556 190.16224 
Q 423.407556 190.534238 425.105315 190.747029 
Q 426.807687 190.959305 429.778765 190.959305 
Q 431.435002 190.959305 432.934381 190.90469 
Q 434.433761 190.84956 435.979275 190.732087 
L 435.979275 191.229801 
z
" clip-path="url(#p04e37c3f17)" style="fill: #0000ff"/>
   </g>
   <g id="patch_72">
    <path d="M 417.668394 181.431632 
L 435.979275 181.431632 
L 435.979275 182.89097 
L 429.391616 182.89097 
L 429.391616 188.914348 
L 424.268828 188.914348 
L 424.268828 182.89097 
L 417.668394 182.89097 
L 417.668394 181.431632 
z
" clip-path="url(#p04e37c3f17)" style="fill: #ff0000"/>
   </g>
   <g id="patch_73">
    <path d="M 430.352357 156.895505 
L 423.310287 156.895505 
L 422.198381 181.431632 
L 417.668394 181.431632 
L 424.137664 46.742732 
L 429.510004 46.742732 
L 435.979275 181.431632 
L 431.453032 181.431632 
L 430.352357 156.895505 
z
M 424.433424 131.897523 
L 429.217988 131.897523 
L 426.82945 78.32217 
L 424.433424 131.897523 
z
" clip-path="url(#p04e37c3f17)" style="fill: #008000"/>
   </g>
   <g id="patch_74">
    <path d="M 449.626968 192.017935 
L 442.584898 192.017935 
L 441.472992 192.24 
L 436.943005 192.24 
L 443.412276 191.020995 
L 448.784615 191.020995 
L 455.253886 192.24 
L 450.727643 192.24 
L 449.626968 192.017935 
z
M 443.708035 191.79169 
L 448.4926 191.79169 
L 446.104061 191.306805 
L 443.708035 191.79169 
z
" clip-path="url(#p04e37c3f17)" style="fill: #008000"/>
   </g>
   <g id="patch_75">
    <path d="M 455.253886 190.671484 
Q 453.722212 190.844728 452.065975 190.932358 
Q 450.409738 191.020995 448.605869 191.020995 
Q 443.226558 191.020995 440.084781 190.364278 
Q 436.943005 189.707561 436.943005 188.584494 
Q 436.943005 187.457399 440.084781 186.801689 
Q 443.226558 186.144973 448.605869 186.144973 
Q 450.409738 186.144973 452.065975 186.233609 
Q 453.722212 186.321239 455.253886 186.494483 
L 455.253886 187.466464 
Q 453.708372 187.236815 452.208993 187.130048 
Q 450.709613 187.023281 449.053376 187.023281 
Q 446.082298 187.023281 444.379926 187.439269 
Q 442.682168 187.854249 442.682168 188.584494 
Q 442.682168 189.311718 444.379926 189.727705 
Q 446.082298 190.142686 449.053376 190.142686 
Q 450.709613 190.142686 452.208993 190.035919 
Q 453.708372 189.928145 455.253886 189.698496 
L 455.253886 190.671484 
z
" clip-path="url(#p04e37c3f17)" style="fill: #0000ff"/>
   </g>
   <g id="patch_76">
    <path d="M 455.253886 184.986905 
Q 453.407204 185.565939 451.420994 185.856778 
Q 449.434785 186.144973 447.317256 186.144973 
Q 442.532297 186.144973 439.737651 184.421091 
Q 436.943005 182.697209 436.943005 179.74916 
Q 436.943005 176.766739 439.786896 175.056077 
Q 442.63489 173.345415 447.588103 173.345415 
Q 449.496341 173.345415 451.244534 173.578086 
Q 452.99683 173.808113 454.548043 174.26288 
L 454.548043 176.81433 
Q 452.947585 176.230008 451.363542 175.941813 
Q 449.779499 175.650975 448.187248 175.650975 
Q 445.240764 175.650975 443.64441 176.713859 
Q 442.048056 177.774099 442.048056 179.74916 
Q 442.048056 181.705713 443.586958 182.773885 
Q 445.12586 183.839413 447.957439 183.839413 
Q 448.728942 183.839413 449.389644 183.778601 
Q 450.050346 183.715145 450.575624 183.582946 
L 450.575624 181.18749 
L 447.559376 181.18749 
L 447.559376 179.05379 
L 455.253886 179.05379 
L 455.253886 184.986905 
z
" clip-path="url(#p04e37c3f17)" style="fill: #ffa600"/>
   </g>
   <g id="patch_77">
    <path d="M 436.943005 85.57702 
L 455.253886 85.57702 
L 455.253886 102.694302 
L 448.666227 102.694302 
L 448.666227 173.345415 
L 443.543439 173.345415 
L 443.543439 102.694302 
L 436.943005 102.694302 
L 436.943005 85.57702 
z
" clip-path="url(#p04e37c3f17)" style="fill: #ff0000"/>
   </g>
   <g id="patch_78">
    <path d="M 474.528497 192.095266 
Q 472.996824 192.167008 471.340586 192.203295 
Q 469.684349 192.24 467.88048 192.24 
Q 462.501169 192.24 459.359393 191.968051 
Q 456.217617 191.696102 456.217617 191.231036 
Q 456.217617 190.764301 459.359393 190.492769 
Q 462.501169 190.22082 467.88048 190.22082 
Q 469.684349 190.22082 471.340586 190.257525 
Q 472.996824 190.293813 474.528497 190.365554 
L 474.528497 190.768055 
Q 472.982983 190.672956 471.483604 190.628744 
Q 469.984225 190.584531 468.327987 190.584531 
Q 465.35691 190.584531 463.654538 190.756793 
Q 461.956779 190.928639 461.956779 191.231036 
Q 461.956779 191.532182 463.654538 191.704444 
Q 465.35691 191.876289 468.327987 191.876289 
Q 469.984225 191.876289 471.483604 191.832076 
Q 472.982983 191.787447 474.528497 191.692348 
L 474.528497 192.095266 
z
" clip-path="url(#p04e37c3f17)" style="fill: #0000ff"/>
   </g>
   <g id="patch_79">
    <path d="M 456.217617 188.201641 
L 474.528497 188.201641 
L 474.528497 188.595437 
L 467.940839 188.595437 
L 467.940839 190.22082 
L 462.81805 190.22082 
L 462.81805 188.595437 
L 456.217617 188.595437 
L 456.217617 188.201641 
z
" clip-path="url(#p04e37c3f17)" style="fill: #ff0000"/>
   </g>
   <g id="patch_80">
    <path d="M 474.528497 186.082441 
Q 472.681815 187.142041 470.695606 187.67426 
Q 468.709396 188.201641 466.591867 188.201641 
Q 461.806908 188.201641 459.012262 185.047032 
Q 456.217617 181.892424 456.217617 176.497656 
Q 456.217617 171.03999 459.061507 167.909573 
Q 461.909502 164.779157 466.862714 164.779157 
Q 468.770952 164.779157 470.519145 165.204932 
Q 472.271441 165.625869 473.822654 166.458066 
L 473.822654 171.12708 
Q 472.222196 170.057804 470.638153 169.530423 
Q 469.05411 168.998204 467.46186 168.998204 
Q 464.515376 168.998204 462.919021 170.943223 
Q 461.322667 172.883404 461.322667 176.497656 
Q 461.322667 180.07804 462.861569 182.032736 
Q 464.400471 183.982594 467.23205 183.982594 
Q 468.003553 183.982594 468.664255 183.871312 
Q 469.324957 183.755191 469.850236 183.513273 
L 469.850236 179.129722 
L 466.833988 179.129722 
L 466.833988 175.225168 
L 474.528497 175.225168 
L 474.528497 186.082441 
z
" clip-path="url(#p04e37c3f17)" style="fill: #ffa600"/>
   </g>
   <g id="patch_81">
    <path d="M 468.90158 156.907558 
L 461.859509 156.907558 
L 460.747603 164.779157 
L 456.217617 164.779157 
L 462.686887 121.568712 
L 468.059227 121.568712 
L 474.528497 164.779157 
L 470.002254 164.779157 
L 468.90158 156.907558 
z
M 462.982647 148.887789 
L 467.767211 148.887789 
L 465.378673 131.699922 
L 462.982647 148.887789 
z
" clip-path="url(#p04e37c3f17)" style="fill: #008000"/>
   </g>
   <g id="patch_82">
    <path d="M 493.803109 192.091589 
Q 491.956427 192.165794 489.970217 192.203067 
Q 487.984008 192.24 485.866479 192.24 
Q 481.08152 192.24 478.286874 192.019077 
Q 475.492228 191.798154 475.492228 191.420349 
Q 475.492228 191.038139 478.336119 190.818911 
Q 481.184113 190.599682 486.137325 190.599682 
Q 488.045564 190.599682 489.793756 190.6295 
Q 491.546053 190.658979 493.097266 190.717259 
L 493.097266 191.044238 
Q 491.496808 190.969355 489.912765 190.932421 
Q 488.328722 190.895149 486.736471 190.895149 
Q 483.789987 190.895149 482.193633 191.031362 
Q 480.597279 191.167237 480.597279 191.420349 
Q 480.597279 191.67109 482.13618 191.807981 
Q 483.675082 191.944533 486.506662 191.944533 
Q 487.278165 191.944533 487.938867 191.936739 
Q 488.599568 191.928607 489.124847 191.911665 
L 489.124847 191.604677 
L 486.108599 191.604677 
L 486.108599 191.331235 
L 493.803109 191.331235 
L 493.803109 192.091589 
z
" clip-path="url(#p04e37c3f17)" style="fill: #ffa600"/>
   </g>
   <g id="patch_83">
    <path d="M 488.176191 190.002052 
L 481.134121 190.002052 
L 480.022215 190.599682 
L 475.492228 190.599682 
L 481.961498 187.319046 
L 487.333838 187.319046 
L 493.803109 190.599682 
L 489.276866 190.599682 
L 488.176191 190.002052 
z
M 482.257258 189.393173 
L 487.041823 189.393173 
L 484.653284 188.08823 
L 482.257258 189.393173 
z
" clip-path="url(#p04e37c3f17)" style="fill: #008000"/>
   </g>
   <g id="patch_84">
    <path d="M 493.803109 186.907526 
Q 492.271435 187.111507 490.615198 187.214683 
Q 488.95896 187.319046 487.155092 187.319046 
Q 481.77578 187.319046 478.634004 186.545816 
Q 475.492228 185.772586 475.492228 184.450268 
Q 475.492228 183.123206 478.634004 182.351162 
Q 481.77578 181.577932 487.155092 181.577932 
Q 488.95896 181.577932 490.615198 181.682294 
Q 492.271435 181.785471 493.803109 181.989452 
L 493.803109 183.133879 
Q 492.257595 182.863486 490.758216 182.737777 
Q 489.258836 182.612068 487.602599 182.612068 
Q 484.631521 182.612068 482.929149 183.101859 
Q 481.23139 183.590465 481.23139 184.450268 
Q 481.23139 185.306513 482.929149 185.796305 
Q 484.631521 186.28491 487.602599 186.28491 
Q 489.258836 186.28491 490.758216 186.159201 
Q 492.257595 186.032306 493.803109 185.761912 
L 493.803109 186.907526 
z
" clip-path="url(#p04e37c3f17)" style="fill: #0000ff"/>
   </g>
   <g id="patch_85">
    <path d="M 475.492228 48.712164 
L 493.803109 48.712164 
L 493.803109 74.62469 
L 487.21545 74.62469 
L 487.21545 181.577932 
L 482.092662 181.577932 
L 482.092662 74.62469 
L 475.492228 74.62469 
L 475.492228 48.712164 
z
" clip-path="url(#p04e37c3f17)" style="fill: #ff0000"/>
   </g>
   <g id="patch_86">
    <path d="M 513.07772 191.941177 
Q 511.546047 192.089297 509.889809 192.164218 
Q 508.233572 192.24 506.429703 192.24 
Q 501.050392 192.24 497.908616 191.678522 
Q 494.766839 191.117044 494.766839 190.156847 
Q 494.766839 189.193206 497.908616 188.632589 
Q 501.050392 188.071111 506.429703 188.071111 
Q 508.233572 188.071111 509.889809 188.146893 
Q 511.546047 188.221815 513.07772 188.369935 
L 513.07772 189.200957 
Q 511.532206 189.004611 510.032827 188.913328 
Q 508.533448 188.822045 506.87721 188.822045 
Q 503.906133 188.822045 502.20376 189.177705 
Q 500.506002 189.532504 500.506002 190.156847 
Q 500.506002 190.778607 502.20376 191.134267 
Q 503.906133 191.489066 506.87721 191.489066 
Q 508.533448 191.489066 510.032827 191.397783 
Q 511.532206 191.305638 513.07772 191.109293 
L 513.07772 191.941177 
z
" clip-path="url(#p04e37c3f17)" style="fill: #0000ff"/>
   </g>
   <g id="patch_87">
    <path d="M 494.766839 183.207407 
L 513.07772 183.207407 
L 513.07772 184.155965 
L 506.490061 184.155965 
L 506.490061 188.071111 
L 501.367273 188.071111 
L 501.367273 184.155965 
L 494.766839 184.155965 
L 494.766839 183.207407 
z
" clip-path="url(#p04e37c3f17)" style="fill: #ff0000"/>
   </g>
   <g id="patch_88">
    <path d="M 513.07772 182.704488 
Q 511.231038 182.955948 509.244829 183.082252 
Q 507.258619 183.207407 505.14109 183.207407 
Q 500.356131 183.207407 497.561485 182.45877 
Q 494.766839 181.710132 494.766839 180.42987 
Q 494.766839 179.134681 497.61073 178.391785 
Q 500.458725 177.648889 505.411937 177.648889 
Q 507.320175 177.648889 509.068368 177.749932 
Q 510.820664 177.849827 512.371877 178.04732 
L 512.371877 179.155349 
Q 510.771419 178.901593 509.187376 178.776438 
Q 507.603333 178.650134 506.011083 178.650134 
Q 503.064598 178.650134 501.468244 179.111717 
Q 499.87189 179.572152 499.87189 180.42987 
Q 499.87189 181.279551 501.410792 181.743431 
Q 502.949694 182.206162 505.781273 182.206162 
Q 506.552776 182.206162 507.213478 182.179753 
Q 507.87418 182.152196 508.399458 182.094785 
L 508.399458 181.0545 
L 505.383211 181.0545 
L 505.383211 180.127889 
L 513.07772 180.127889 
L 513.07772 182.704488 
z
" clip-path="url(#p04e37c3f17)" style="fill: #ffa600"/>
   </g>
   <g id="patch_89">
    <path d="M 507.450803 158.156548 
L 500.408732 158.156548 
L 499.296826 177.648889 
L 494.766839 177.648889 
L 501.23611 70.647405 
L 506.60845 70.647405 
L 513.07772 177.648889 
L 508.551477 177.648889 
L 507.450803 158.156548 
z
M 501.531869 138.297293 
L 506.316434 138.297293 
L 503.927895 95.735194 
L 501.531869 138.297293 
z
" clip-path="url(#p04e37c3f17)" style="fill: #008000"/>
   </g>
   <g id="patch_90">
    <path d="M 514.041451 189.477909 
L 532.352332 189.477909 
L 532.352332 190.016594 
L 525.764673 190.016594 
L 525.764673 192.24 
L 520.641885 192.24 
L 520.641885 190.016594 
L 514.041451 190.016594 
L 514.041451 189.477909 
z
" clip-path="url(#p04e37c3f17)" style="fill: #ff0000"/>
   </g>
   <g id="patch_91">
    <path d="M 532.352332 189.16679 
Q 530.820658 189.321005 529.164421 189.399009 
Q 527.508183 189.477909 525.704315 189.477909 
Q 520.325003 189.477909 517.183227 188.893328 
Q 514.041451 188.308746 514.041451 187.30904 
Q 514.041451 186.305748 517.183227 185.722063 
Q 520.325003 185.137481 525.704315 185.137481 
Q 527.508183 185.137481 529.164421 185.216382 
Q 530.820658 185.294386 532.352332 185.4486 
L 532.352332 186.313817 
Q 530.806818 186.109393 529.307438 186.014353 
Q 527.808059 185.919314 526.151822 185.919314 
Q 523.180744 185.919314 521.478372 186.289609 
Q 519.780613 186.659007 519.780613 187.30904 
Q 519.780613 187.956384 521.478372 188.326678 
Q 523.180744 188.696076 526.151822 188.696076 
Q 527.808059 188.696076 529.307438 188.601037 
Q 530.806818 188.505101 532.352332 188.300677 
L 532.352332 189.16679 
z
" clip-path="url(#p04e37c3f17)" style="fill: #0000ff"/>
   </g>
   <g id="patch_92">
    <path d="M 526.725414 182.813329 
L 519.683344 182.813329 
L 518.571438 185.137481 
L 514.041451 185.137481 
L 520.510721 172.379253 
L 525.883061 172.379253 
L 532.352332 185.137481 
L 527.826089 185.137481 
L 526.725414 182.813329 
z
M 520.806481 180.445428 
L 525.591045 180.445428 
L 523.202507 175.370574 
L 520.806481 180.445428 
z
" clip-path="url(#p04e37c3f17)" style="fill: #008000"/>
   </g>
   <g id="patch_93">
    <path d="M 532.352332 165.845992 
Q 530.505649 169.112622 528.51944 170.753396 
Q 526.533231 172.379253 524.415702 172.379253 
Q 519.630743 172.379253 516.836097 162.653942 
Q 514.041451 152.928631 514.041451 136.297157 
Q 514.041451 119.471772 516.885342 109.821042 
Q 519.733336 100.170312 524.686548 100.170312 
Q 526.594787 100.170312 528.342979 101.48293 
Q 530.095275 102.780633 531.646489 105.346206 
L 531.646489 119.740262 
Q 530.046031 116.4438 528.461988 114.817942 
Q 526.877945 113.177169 525.285694 113.177169 
Q 522.33921 113.177169 520.742856 119.17345 
Q 519.146501 125.154814 519.146501 136.297157 
Q 519.146501 147.335086 520.685403 153.361199 
Q 522.224305 159.372396 525.055885 159.372396 
Q 525.827388 159.372396 526.488089 159.029325 
Q 527.148791 158.671338 527.67407 157.925532 
L 527.67407 144.411526 
L 524.657822 144.411526 
L 524.657822 132.374217 
L 532.352332 132.374217 
L 532.352332 165.845992 
z
" clip-path="url(#p04e37c3f17)" style="fill: #ffa600"/>
   </g>
   <g id="patch_94">
    <path d="M 551.626943 192.11586 
Q 550.095269 192.177393 548.439032 192.208518 
Q 546.782795 192.24 544.978926 192.24 
Q 539.599615 192.24 536.457838 192.006746 
Q 533.316062 191.773491 533.316062 191.374598 
Q 533.316062 190.974274 536.457838 190.741377 
Q 539.599615 190.508123 544.978926 190.508123 
Q 546.782795 190.508123 548.439032 190.539605 
Q 550.095269 190.570729 551.626943 190.632263 
L 551.626943 190.977493 
Q 550.081429 190.895926 548.58205 190.858004 
Q 547.08267 190.820083 545.426433 190.820083 
Q 542.455355 190.820083 540.752983 190.967834 
Q 539.055225 191.115228 539.055225 191.374598 
Q 539.055225 191.632895 540.752983 191.780647 
Q 542.455355 191.92804 545.426433 191.92804 
Q 547.08267 191.92804 548.58205 191.890119 
Q 550.081429 191.851839 551.626943 191.770272 
L 551.626943 192.11586 
z
" clip-path="url(#p04e37c3f17)" style="fill: #0000ff"/>
   </g>
   <g id="patch_95">
    <path d="M 533.316062 186.005242 
L 551.626943 186.005242 
L 551.626943 186.88343 
L 545.039284 186.88343 
L 545.039284 190.508123 
L 539.916496 190.508123 
L 539.916496 186.88343 
L 533.316062 186.88343 
L 533.316062 186.005242 
z
" clip-path="url(#p04e37c3f17)" style="fill: #ff0000"/>
   </g>
   <g id="patch_96">
    <path d="M 551.626943 185.159088 
Q 549.780261 185.582165 547.794051 185.79467 
Q 545.807842 186.005242 543.690313 186.005242 
Q 538.905354 186.005242 536.110708 184.745669 
Q 533.316062 183.486096 533.316062 181.332072 
Q 533.316062 179.152933 536.159953 177.90302 
Q 539.007947 176.653106 543.96116 176.653106 
Q 545.869398 176.653106 547.617591 176.82311 
Q 549.369887 176.991182 550.9211 177.323462 
L 550.9211 179.187707 
Q 549.320642 178.760766 547.736599 178.550193 
Q 546.152556 178.337688 544.560305 178.337688 
Q 541.613821 178.337688 540.017467 179.114296 
Q 538.421113 179.888972 538.421113 181.332072 
Q 538.421113 182.761649 539.960015 183.54212 
Q 541.498917 184.32066 544.330496 184.32066 
Q 545.101999 184.32066 545.762701 184.276227 
Q 546.423403 184.229863 546.948681 184.13327 
L 546.948681 182.383004 
L 543.932433 182.383004 
L 543.932433 180.823993 
L 551.626943 180.823993 
L 551.626943 185.159088 
z
" clip-path="url(#p04e37c3f17)" style="fill: #ffa600"/>
   </g>
   <g id="patch_97">
    <path d="M 546.000025 157.407965 
L 538.957955 157.407965 
L 537.846049 176.653106 
L 533.316062 176.653106 
L 539.785333 71.008603 
L 545.157672 71.008603 
L 551.626943 176.653106 
L 547.1007 176.653106 
L 546.000025 157.407965 
z
M 540.081092 137.800563 
L 544.865657 137.800563 
L 542.477118 95.778231 
L 540.081092 137.800563 
z
" clip-path="url(#p04e37c3f17)" style="fill: #008000"/>
   </g>
   <g id="patch_98">
    <path d="M 570.901554 192.016978 
Q 569.369881 192.127525 567.713643 192.183441 
Q 566.057406 192.24 564.253537 192.24 
Q 558.874226 192.24 555.73245 191.82095 
Q 552.590674 191.401901 552.590674 190.685274 
Q 552.590674 189.966077 555.73245 189.54767 
Q 558.874226 189.12862 564.253537 189.12862 
Q 566.057406 189.12862 567.713643 189.185179 
Q 569.369881 189.241095 570.901554 189.351642 
L 570.901554 189.971861 
Q 569.35604 189.825322 567.856661 189.757195 
Q 566.357282 189.689067 564.701044 189.689067 
Q 561.729967 189.689067 560.027595 189.954508 
Q 558.329836 190.219306 558.329836 190.685274 
Q 558.329836 191.149314 560.027595 191.414755 
Q 561.729967 191.679553 564.701044 191.679553 
Q 566.357282 191.679553 567.856661 191.611425 
Q 569.35604 191.542655 570.901554 191.396116 
L 570.901554 192.016978 
z
" clip-path="url(#p04e37c3f17)" style="fill: #0000ff"/>
   </g>
   <g id="patch_99">
    <path d="M 565.274637 188.266103 
L 558.232566 188.266103 
L 557.12066 189.12862 
L 552.590674 189.12862 
L 559.059944 184.393911 
L 564.432284 184.393911 
L 570.901554 189.12862 
L 566.375311 189.12862 
L 565.274637 188.266103 
z
M 559.355704 187.387351 
L 564.140268 187.387351 
L 561.75173 185.504021 
L 559.355704 187.387351 
z
" clip-path="url(#p04e37c3f17)" style="fill: #008000"/>
   </g>
   <g id="patch_100">
    <path d="M 570.901554 183.378031 
Q 569.054872 183.885971 567.068663 184.141101 
Q 565.082453 184.393911 562.964924 184.393911 
Q 558.179965 184.393911 555.385319 182.881688 
Q 552.590674 181.369465 552.590674 178.783378 
Q 552.590674 176.16714 555.434564 174.666514 
Q 558.282559 173.165888 563.235771 173.165888 
Q 565.144009 173.165888 566.892202 173.369991 
Q 568.644498 173.571776 570.195711 173.970706 
L 570.195711 176.208888 
Q 568.595253 175.69631 567.01121 175.443499 
Q 565.427167 175.18837 563.834917 175.18837 
Q 560.888433 175.18837 559.292078 176.120753 
Q 557.695724 177.050816 557.695724 178.783378 
Q 557.695724 180.499705 559.234626 181.436727 
Q 560.773528 182.371429 563.605107 182.371429 
Q 564.37661 182.371429 565.037312 182.318084 
Q 565.698014 182.262419 566.223293 182.146451 
L 566.223293 180.04511 
L 563.207045 180.04511 
L 563.207045 178.173387 
L 570.901554 178.173387 
L 570.901554 183.378031 
z
" clip-path="url(#p04e37c3f17)" style="fill: #ffa600"/>
   </g>
   <g id="patch_101">
    <path d="M 552.590674 97.545825 
L 570.901554 97.545825 
L 570.901554 112.293844 
L 564.313896 112.293844 
L 564.313896 173.165888 
L 559.191107 173.165888 
L 559.191107 112.293844 
L 552.590674 112.293844 
L 552.590674 97.545825 
z
" clip-path="url(#p04e37c3f17)" style="fill: #ff0000"/>
   </g>
   <g id="patch_102">
    <path d="M 590.176166 192.110216 
Q 588.644492 192.174547 586.988255 192.207086 
Q 585.332017 192.24 583.528149 192.24 
Q 578.148837 192.24 575.007061 191.99614 
Q 571.865285 191.75228 571.865285 191.33525 
Q 571.865285 190.916723 575.007061 190.673237 
Q 578.148837 190.429377 583.528149 190.429377 
Q 585.332017 190.429377 586.988255 190.462291 
Q 588.644492 190.49483 590.176166 190.559161 
L 590.176166 190.920089 
Q 588.630652 190.834813 587.131273 190.795167 
Q 585.631893 190.755521 583.975656 190.755521 
Q 581.004578 190.755521 579.302206 190.909991 
Q 577.604447 191.064086 577.604447 191.33525 
Q 577.604447 191.605291 579.302206 191.75976 
Q 581.004578 191.913856 583.975656 191.913856 
Q 585.631893 191.913856 587.131273 191.87421 
Q 588.630652 191.83419 590.176166 191.748914 
L 590.176166 192.110216 
z
" clip-path="url(#p04e37c3f17)" style="fill: #0000ff"/>
   </g>
   <g id="patch_103">
    <path d="M 590.176166 190.098525 
Q 588.329484 190.263951 586.343274 190.347042 
Q 584.357065 190.429377 582.239536 190.429377 
Q 577.454577 190.429377 574.659931 189.936876 
Q 571.865285 189.444374 571.865285 188.602136 
Q 571.865285 187.750078 574.709176 187.261354 
Q 577.55717 186.772629 582.510382 186.772629 
Q 584.418621 186.772629 586.166813 186.839101 
Q 587.91911 186.904819 589.470323 187.034742 
L 589.470323 187.763675 
Q 587.869865 187.596738 586.285822 187.514403 
Q 584.701779 187.431312 583.109528 187.431312 
Q 580.163044 187.431312 578.56669 187.734971 
Q 576.970336 188.037874 576.970336 188.602136 
Q 576.970336 189.16111 578.509237 189.46628 
Q 580.048139 189.770694 582.879719 189.770694 
Q 583.651222 189.770694 584.311924 189.753321 
Q 584.972625 189.735192 585.497904 189.697423 
L 585.497904 189.013058 
L 582.481656 189.013058 
L 582.481656 188.403474 
L 590.176166 188.403474 
L 590.176166 190.098525 
z
" clip-path="url(#p04e37c3f17)" style="fill: #ffa600"/>
   </g>
   <g id="patch_104">
    <path d="M 584.549248 185.149303 
L 577.507178 185.149303 
L 576.395272 186.772629 
L 571.865285 186.772629 
L 578.334555 177.861524 
L 583.706895 177.861524 
L 590.176166 186.772629 
L 585.649923 186.772629 
L 584.549248 185.149303 
z
M 578.630315 183.49542 
L 583.41488 183.49542 
L 581.026341 179.95084 
L 578.630315 183.49542 
z
" clip-path="url(#p04e37c3f17)" style="fill: #008000"/>
   </g>
   <g id="patch_105">
    <path d="M 571.865285 167.388313 
L 590.176166 167.388313 
L 590.176166 169.430881 
L 583.588507 169.430881 
L 583.588507 177.861524 
L 578.465719 177.861524 
L 578.465719 169.430881 
L 571.865285 169.430881 
L 571.865285 167.388313 
z
" clip-path="url(#p04e37c3f17)" style="fill: #ff0000"/>
   </g>
   <g id="patch_106">
    <path d="M 609.450777 192.048673 
Q 607.604095 192.144337 605.617886 192.192387 
Q 603.631676 192.24 601.514147 192.24 
Q 596.729188 192.24 593.934542 191.955194 
Q 591.139896 191.670389 591.139896 191.183336 
Q 591.139896 190.690605 593.983787 190.407983 
Q 596.831782 190.125362 601.784994 190.125362 
Q 603.693232 190.125362 605.441425 190.163802 
Q 607.193721 190.201805 608.744934 190.276938 
L 608.744934 190.698467 
Q 607.144476 190.601931 605.560433 190.554317 
Q 603.97639 190.506267 602.38414 190.506267 
Q 599.437655 190.506267 597.841301 190.681868 
Q 596.244947 190.857033 596.244947 191.183336 
Q 596.244947 191.506582 597.783849 191.683056 
Q 599.322751 191.859094 602.15433 191.859094 
Q 602.925833 191.859094 603.586535 191.849047 
Q 604.247237 191.838564 604.772515 191.816723 
L 604.772515 191.420965 
L 601.756268 191.420965 
L 601.756268 191.068453 
L 609.450777 191.068453 
L 609.450777 192.048673 
z
" clip-path="url(#p04e37c3f17)" style="fill: #ffa600"/>
   </g>
   <g id="patch_107">
    <path d="M 609.450777 189.967899 
Q 607.919104 190.04595 606.262866 190.085429 
Q 604.606629 190.125362 602.80276 190.125362 
Q 597.423449 190.125362 594.281673 189.829495 
Q 591.139896 189.533629 591.139896 189.027662 
Q 591.139896 188.51988 594.281673 188.224467 
Q 597.423449 187.928601 602.80276 187.928601 
Q 604.606629 187.928601 606.262866 187.968534 
Q 607.919104 188.008013 609.450777 188.086064 
L 609.450777 188.523964 
Q 607.905263 188.420501 606.405884 188.3724 
Q 604.906505 188.324299 603.250267 188.324299 
Q 600.27919 188.324299 598.576817 188.511711 
Q 596.879059 188.69867 596.879059 189.027662 
Q 596.879059 189.355293 598.576817 189.542705 
Q 600.27919 189.729663 603.250267 189.729663 
Q 604.906505 189.729663 606.405884 189.681562 
Q 607.905263 189.633008 609.450777 189.529545 
L 609.450777 189.967899 
z
" clip-path="url(#p04e37c3f17)" style="fill: #0000ff"/>
   </g>
   <g id="patch_108">
    <path d="M 603.82386 187.244179 
L 596.781789 187.244179 
L 595.669883 187.928601 
L 591.139896 187.928601 
L 597.609167 184.171525 
L 602.981507 184.171525 
L 609.450777 187.928601 
L 604.924534 187.928601 
L 603.82386 187.244179 
z
M 597.904926 186.546873 
L 602.689491 186.546873 
L 600.300952 185.052417 
L 597.904926 186.546873 
z
" clip-path="url(#p04e37c3f17)" style="fill: #008000"/>
   </g>
   <g id="patch_109">
    <path d="M 591.139896 177.868671 
L 609.450777 177.868671 
L 609.450777 179.097903 
L 602.863118 179.097903 
L 602.863118 184.171525 
L 597.74033 184.171525 
L 597.74033 179.097903 
L 591.139896 179.097903 
L 591.139896 177.868671 
z
" clip-path="url(#p04e37c3f17)" style="fill: #ff0000"/>
   </g>
   <g id="patch_110">
    <path d="M 628.725389 192.130705 
Q 626.878706 192.185352 624.892497 192.212801 
Q 622.906288 192.24 620.788758 192.24 
Q 616.003799 192.24 613.209154 192.077305 
Q 610.414508 191.91461 610.414508 191.636381 
Q 610.414508 191.354909 613.258398 191.193462 
Q 616.106393 191.032014 621.059605 191.032014 
Q 622.967844 191.032014 624.716036 191.053973 
Q 626.468332 191.075683 628.019546 191.118602 
L 628.019546 191.359401 
Q 626.419088 191.304254 624.835045 191.277055 
Q 623.251002 191.249606 621.658751 191.249606 
Q 618.712267 191.249606 617.115913 191.349918 
Q 615.519558 191.449981 615.519558 191.636381 
Q 615.519558 191.821035 617.05846 191.921846 
Q 618.597362 192.022408 621.428942 192.022408 
Q 622.200445 192.022408 622.861146 192.016669 
Q 623.521848 192.01068 624.047127 191.998203 
L 624.047127 191.772127 
L 621.030879 191.772127 
L 621.030879 191.570755 
L 628.725389 191.570755 
L 628.725389 192.130705 
z
" clip-path="url(#p04e37c3f17)" style="fill: #ffa600"/>
   </g>
   <g id="patch_111">
    <path d="M 628.725389 190.87866 
Q 627.193715 190.954674 625.537478 190.993123 
Q 623.88124 191.032014 622.077372 191.032014 
Q 616.69806 191.032014 613.556284 190.743868 
Q 610.414508 190.455721 610.414508 189.962955 
Q 610.414508 189.468421 613.556284 189.180717 
Q 616.69806 188.89257 622.077372 188.89257 
Q 623.88124 188.89257 625.537478 188.931461 
Q 627.193715 188.96991 628.725389 189.045924 
L 628.725389 189.472399 
Q 627.179875 189.371636 625.680495 189.32479 
Q 624.181116 189.277944 622.524879 189.277944 
Q 619.553801 189.277944 617.851429 189.460466 
Q 616.15367 189.642547 616.15367 189.962955 
Q 616.15367 190.282038 617.851429 190.46456 
Q 619.553801 190.64664 622.524879 190.64664 
Q 624.181116 190.64664 625.680495 190.599794 
Q 627.179875 190.552507 628.725389 190.451744 
L 628.725389 190.87866 
z
" clip-path="url(#p04e37c3f17)" style="fill: #0000ff"/>
   </g>
   <g id="patch_112">
    <path d="M 610.414508 185.705234 
L 628.725389 185.705234 
L 628.725389 186.326854 
L 622.13773 186.326854 
L 622.13773 188.89257 
L 617.014942 188.89257 
L 617.014942 186.326854 
L 610.414508 186.326854 
L 610.414508 185.705234 
z
" clip-path="url(#p04e37c3f17)" style="fill: #ff0000"/>
   </g>
   <g id="patch_113">
    <path d="M 623.098471 185.03976 
L 616.056401 185.03976 
L 614.944495 185.705234 
L 610.414508 185.705234 
L 616.883778 182.052169 
L 622.256118 182.052169 
L 628.725389 185.705234 
L 624.199146 185.705234 
L 623.098471 185.03976 
z
M 617.179538 184.361758 
L 621.964102 184.361758 
L 619.575564 182.908675 
L 617.179538 184.361758 
z
" clip-path="url(#p04e37c3f17)" style="fill: #008000"/>
   </g>
   <g id="patch_114">
    <path d="M 648 192.085283 
Q 646.468326 192.161973 644.812089 192.200763 
Q 643.155852 192.24 641.351983 192.24 
Q 635.972672 192.24 632.830895 191.949292 
Q 629.689119 191.658585 629.689119 191.161439 
Q 629.689119 190.66251 632.830895 190.372248 
Q 635.972672 190.081541 641.351983 190.081541 
Q 643.155852 190.081541 644.812089 190.120777 
Q 646.468326 190.159568 648 190.236258 
L 648 190.666523 
Q 646.454486 190.564864 644.955107 190.517602 
Q 643.455727 190.47034 641.79949 190.47034 
Q 638.828412 190.47034 637.12604 190.654484 
Q 635.428282 190.838183 635.428282 191.161439 
Q 635.428282 191.483358 637.12604 191.667502 
Q 638.828412 191.851201 641.79949 191.851201 
Q 643.455727 191.851201 644.955107 191.803939 
Q 646.454486 191.75623 648 191.654572 
L 648 192.085283 
z
" clip-path="url(#p04e37c3f17)" style="fill: #0000ff"/>
   </g>
   <g id="patch_115">
    <path d="M 648 189.867426 
Q 646.153318 189.974483 644.167108 190.028256 
Q 642.180899 190.081541 640.06337 190.081541 
Q 635.278411 190.081541 632.483765 189.762813 
Q 629.689119 189.444085 629.689119 188.899022 
Q 629.689119 188.347604 632.53301 188.03132 
Q 635.381004 187.715037 640.334217 187.715037 
Q 642.242455 187.715037 643.990648 187.758055 
Q 645.742944 187.800585 647.294157 187.884666 
L 647.294157 188.356403 
Q 645.693699 188.248368 644.109656 188.195084 
Q 642.525613 188.141311 640.933362 188.141311 
Q 637.986878 188.141311 636.390524 188.337827 
Q 634.79417 188.533854 634.79417 188.899022 
Q 634.79417 189.260768 636.333072 189.458262 
Q 637.871974 189.655267 640.703553 189.655267 
Q 641.475056 189.655267 642.135758 189.644023 
Q 642.79646 189.632291 643.321738 189.607849 
L 643.321738 189.164954 
L 640.30549 189.164954 
L 640.30549 188.770455 
L 648 188.770455 
L 648 189.867426 
z
" clip-path="url(#p04e37c3f17)" style="fill: #ffa600"/>
   </g>
   <g id="patch_116">
    <path d="M 642.373082 186.507 
L 635.331012 186.507 
L 634.219106 187.715037 
L 629.689119 187.715037 
L 636.15839 181.083625 
L 641.530729 181.083625 
L 648 187.715037 
L 643.473757 187.715037 
L 642.373082 186.507 
z
M 636.454149 185.276224 
L 641.238714 185.276224 
L 638.850175 182.63844 
L 636.454149 185.276224 
z
" clip-path="url(#p04e37c3f17)" style="fill: #008000"/>
   </g>
   <g id="patch_117">
    <path d="M 629.689119 174.036125 
L 648 174.036125 
L 648 175.410584 
L 641.412341 175.410584 
L 641.412341 181.083625 
L 636.289553 181.083625 
L 636.289553 175.410584 
L 629.689119 175.410584 
L 629.689119 174.036125 
z
" clip-path="url(#p04e37c3f17)" style="fill: #ff0000"/>
   </g>
   <g id="matplotlib.axis_1">
    <g id="xtick_1">
     <g id="line2d_2">
      <defs>
       <path id="m47b0c20124" d="M 0 0 
L 0 3.5 
" style="stroke: #000000; stroke-width: 0.8"/>
      </defs>
      <g>
       <use xlink:href="#m47b0c20124" x="99.15544" y="192.24" style="stroke: #000000; stroke-width: 0.8"/>
      </g>
     </g>
     <g id="text_1">
      <!-- 0 -->
      <g transform="translate(95.97419 206.838437) scale(0.1 -0.1)">
       <defs>
        <path id="DejaVuSans-30" d="M 2034 4250 
Q 1547 4250 1301 3770 
Q 1056 3291 1056 2328 
Q 1056 1369 1301 889 
Q 1547 409 2034 409 
Q 2525 409 2770 889 
Q 3016 1369 3016 2328 
Q 3016 3291 2770 3770 
Q 2525 4250 2034 4250 
z
M 2034 4750 
Q 2819 4750 3233 4129 
Q 3647 3509 3647 2328 
Q 3647 1150 3233 529 
Q 2819 -91 2034 -91 
Q 1250 -91 836 529 
Q 422 1150 422 2328 
Q 422 3509 836 4129 
Q 1250 4750 2034 4750 
z
" transform="scale(0.015625)"/>
       </defs>
       <use xlink:href="#DejaVuSans-30"/>
      </g>
     </g>
    </g>
    <g id="xtick_2">
     <g id="line2d_3">
      <g>
       <use xlink:href="#m47b0c20124" x="195.528497" y="192.24" style="stroke: #000000; stroke-width: 0.8"/>
      </g>
     </g>
     <g id="text_2">
      <!-- 5 -->
      <g transform="translate(192.347247 206.838437) scale(0.1 -0.1)">
       <defs>
        <path id="DejaVuSans-35" d="M 691 4666 
L 3169 4666 
L 3169 4134 
L 1269 4134 
L 1269 2991 
Q 1406 3038 1543 3061 
Q 1681 3084 1819 3084 
Q 2600 3084 3056 2656 
Q 3513 2228 3513 1497 
Q 3513 744 3044 326 
Q 2575 -91 1722 -91 
Q 1428 -91 1123 -41 
Q 819 9 494 109 
L 494 744 
Q 775 591 1075 516 
Q 1375 441 1709 441 
Q 2250 441 2565 725 
Q 2881 1009 2881 1497 
Q 2881 1984 2565 2268 
Q 2250 2553 1709 2553 
Q 1456 2553 1204 2497 
Q 953 2441 691 2322 
L 691 4666 
z
" transform="scale(0.015625)"/>
       </defs>
       <use xlink:href="#DejaVuSans-35"/>
      </g>
     </g>
    </g>
    <g id="xtick_3">
     <g id="line2d_4">
      <g>
       <use xlink:href="#m47b0c20124" x="291.901554" y="192.24" style="stroke: #000000; stroke-width: 0.8"/>
      </g>
     </g>
     <g id="text_3">
      <!-- 10 -->
      <g transform="translate(285.539054 206.838437) scale(0.1 -0.1)">
       <defs>
        <path id="DejaVuSans-31" d="M 794 531 
L 1825 531 
L 1825 4091 
L 703 3866 
L 703 4441 
L 1819 4666 
L 2450 4666 
L 2450 531 
L 3481 531 
L 3481 0 
L 794 0 
L 794 531 
z
" transform="scale(0.015625)"/>
       </defs>
       <use xlink:href="#DejaVuSans-31"/>
       <use xlink:href="#DejaVuSans-30" x="63.623047"/>
      </g>
     </g>
    </g>
    <g id="xtick_4">
     <g id="line2d_5">
      <g>
       <use xlink:href="#m47b0c20124" x="388.274611" y="192.24" style="stroke: #000000; stroke-width: 0.8"/>
      </g>
     </g>
     <g id="text_4">
      <!-- 15 -->
      <g transform="translate(381.912111 206.838437) scale(0.1 -0.1)">
       <use xlink:href="#DejaVuSans-31"/>
       <use xlink:href="#DejaVuSans-35" x="63.623047"/>
      </g>
     </g>
    </g>
    <g id="xtick_5">
     <g id="line2d_6">
      <g>
       <use xlink:href="#m47b0c20124" x="484.647668" y="192.24" style="stroke: #000000; stroke-width: 0.8"/>
      </g>
     </g>
     <g id="text_5">
      <!-- 20 -->
      <g transform="translate(478.285168 206.838437) scale(0.1 -0.1)">
       <defs>
        <path id="DejaVuSans-32" d="M 1228 531 
L 3431 531 
L 3431 0 
L 469 0 
L 469 531 
Q 828 903 1448 1529 
Q 2069 2156 2228 2338 
Q 2531 2678 2651 2914 
Q 2772 3150 2772 3378 
Q 2772 3750 2511 3984 
Q 2250 4219 1831 4219 
Q 1534 4219 1204 4116 
Q 875 4013 500 3803 
L 500 4441 
Q 881 4594 1212 4672 
Q 1544 4750 1819 4750 
Q 2544 4750 2975 4387 
Q 3406 4025 3406 3419 
Q 3406 3131 3298 2873 
Q 3191 2616 2906 2266 
Q 2828 2175 2409 1742 
Q 1991 1309 1228 531 
z
" transform="scale(0.015625)"/>
       </defs>
       <use xlink:href="#DejaVuSans-32"/>
       <use xlink:href="#DejaVuSans-30" x="63.623047"/>
      </g>
     </g>
    </g>
    <g id="xtick_6">
     <g id="line2d_7">
      <g>
       <use xlink:href="#m47b0c20124" x="581.020725" y="192.24" style="stroke: #000000; stroke-width: 0.8"/>
      </g>
     </g>
     <g id="text_6">
      <!-- 25 -->
      <g transform="translate(574.658225 206.838437) scale(0.1 -0.1)">
       <use xlink:href="#DejaVuSans-32"/>
       <use xlink:href="#DejaVuSans-35" x="63.623047"/>
      </g>
     </g>
    </g>
   </g>
   <g id="matplotlib.axis_2">
    <g id="ytick_1">
     <g id="line2d_8">
      <defs>
       <path id="m7cd2499150" d="M 0 0 
L -3.5 0 
" style="stroke: #000000; stroke-width: 0.8"/>
      </defs>
      <g>
       <use xlink:href="#m7cd2499150" x="90" y="192.24" style="stroke: #000000; stroke-width: 0.8"/>
      </g>
     </g>
     <g id="text_7">
      <!-- 0.00 -->
      <g transform="translate(60.734375 196.039219) scale(0.1 -0.1)">
       <defs>
        <path id="DejaVuSans-2e" d="M 684 794 
L 1344 794 
L 1344 0 
L 684 0 
L 684 794 
z
" transform="scale(0.015625)"/>
       </defs>
       <use xlink:href="#DejaVuSans-30"/>
       <use xlink:href="#DejaVuSans-2e" x="63.623047"/>
       <use xlink:href="#DejaVuSans-30" x="95.410156"/>
       <use xlink:href="#DejaVuSans-30" x="159.033203"/>
      </g>
     </g>
    </g>
    <g id="ytick_2">
     <g id="line2d_9">
      <g>
       <use xlink:href="#m7cd2499150" x="90" y="168.521565" style="stroke: #000000; stroke-width: 0.8"/>
      </g>
     </g>
     <g id="text_8">
      <!-- 0.25 -->
      <g transform="translate(60.734375 172.320784) scale(0.1 -0.1)">
       <use xlink:href="#DejaVuSans-30"/>
       <use xlink:href="#DejaVuSans-2e" x="63.623047"/>
       <use xlink:href="#DejaVuSans-32" x="95.410156"/>
       <use xlink:href="#DejaVuSans-35" x="159.033203"/>
      </g>
     </g>
    </g>
    <g id="ytick_3">
     <g id="line2d_10">
      <g>
       <use xlink:href="#m7cd2499150" x="90" y="144.80313" style="stroke: #000000; stroke-width: 0.8"/>
      </g>
     </g>
     <g id="text_9">
      <!-- 0.50 -->
      <g transform="translate(60.734375 148.602348) scale(0.1 -0.1)">
       <use xlink:href="#DejaVuSans-30"/>
       <use xlink:href="#DejaVuSans-2e" x="63.623047"/>
       <use xlink:href="#DejaVuSans-35" x="95.410156"/>
       <use xlink:href="#DejaVuSans-30" x="159.033203"/>
      </g>
     </g>
    </g>
    <g id="ytick_4">
     <g id="line2d_11">
      <g>
       <use xlink:href="#m7cd2499150" x="90" y="121.084694" style="stroke: #000000; stroke-width: 0.8"/>
      </g>
     </g>
     <g id="text_10">
      <!-- 0.75 -->
      <g transform="translate(60.734375 124.883913) scale(0.1 -0.1)">
       <defs>
        <path id="DejaVuSans-37" d="M 525 4666 
L 3525 4666 
L 3525 4397 
L 1831 0 
L 1172 0 
L 2766 4134 
L 525 4134 
L 525 4666 
z
" transform="scale(0.015625)"/>
       </defs>
       <use xlink:href="#DejaVuSans-30"/>
       <use xlink:href="#DejaVuSans-2e" x="63.623047"/>
       <use xlink:href="#DejaVuSans-37" x="95.410156"/>
       <use xlink:href="#DejaVuSans-35" x="159.033203"/>
      </g>
     </g>
    </g>
    <g id="ytick_5">
     <g id="line2d_12">
      <g>
       <use xlink:href="#m7cd2499150" x="90" y="97.366259" style="stroke: #000000; stroke-width: 0.8"/>
      </g>
     </g>
     <g id="text_11">
      <!-- 1.00 -->
      <g transform="translate(60.734375 101.165478) scale(0.1 -0.1)">
       <use xlink:href="#DejaVuSans-31"/>
       <use xlink:href="#DejaVuSans-2e" x="63.623047"/>
       <use xlink:href="#DejaVuSans-30" x="95.410156"/>
       <use xlink:href="#DejaVuSans-30" x="159.033203"/>
      </g>
     </g>
    </g>
    <g id="ytick_6">
     <g id="line2d_13">
      <g>
       <use xlink:href="#m7cd2499150" x="90" y="73.647824" style="stroke: #000000; stroke-width: 0.8"/>
      </g>
     </g>
     <g id="text_12">
      <!-- 1.25 -->
      <g transform="translate(60.734375 77.447043) scale(0.1 -0.1)">
       <use xlink:href="#DejaVuSans-31"/>
       <use xlink:href="#DejaVuSans-2e" x="63.623047"/>
       <use xlink:href="#DejaVuSans-32" x="95.410156"/>
       <use xlink:href="#DejaVuSans-35" x="159.033203"/>
      </g>
     </g>
    </g>
    <g id="ytick_7">
     <g id="line2d_14">
      <g>
       <use xlink:href="#m7cd2499150" x="90" y="49.929389" style="stroke: #000000; stroke-width: 0.8"/>
      </g>
     </g>
     <g id="text_13">
      <!-- 1.50 -->
      <g transform="translate(60.734375 53.728607) scale(0.1 -0.1)">
       <use xlink:href="#DejaVuSans-31"/>
       <use xlink:href="#DejaVuSans-2e" x="63.623047"/>
       <use xlink:href="#DejaVuSans-35" x="95.410156"/>
       <use xlink:href="#DejaVuSans-30" x="159.033203"/>
      </g>
     </g>
    </g>
    <g id="ytick_8">
     <g id="line2d_15">
      <g>
       <use xlink:href="#m7cd2499150" x="90" y="26.210953" style="stroke: #000000; stroke-width: 0.8"/>
      </g>
     </g>
     <g id="text_14">
      <!-- 1.75 -->
      <g transform="translate(60.734375 30.010172) scale(0.1 -0.1)">
       <use xlink:href="#DejaVuSans-31"/>
       <use xlink:href="#DejaVuSans-2e" x="63.623047"/>
       <use xlink:href="#DejaVuSans-37" x="95.410156"/>
       <use xlink:href="#DejaVuSans-35" x="159.033203"/>
      </g>
     </g>
    </g>
   </g>
  </g>
 </g>
 <defs>
  <clipPath id="p04e37c3f17">
   <rect x="90" y="25.92" width="558" height="166.32"/>
  </clipPath>
 </defs>
</svg>
