<?xml version="1.0" encoding="utf-8" standalone="no"?>
<!DOCTYPE svg PUBLIC "-//W3C//DTD SVG 1.1//EN"
  "http://www.w3.org/Graphics/SVG/1.1/DTD/svg11.dtd">
<svg xmlns:xlink="http://www.w3.org/1999/xlink" width="720pt" height="216pt" viewBox="0 0 720 216" xmlns="http://www.w3.org/2000/svg" version="1.1">
 <metadata>
  <rdf:RDF xmlns:dc="http://purl.org/dc/elements/1.1/" xmlns:cc="http://creativecommons.org/ns#" xmlns:rdf="http://www.w3.org/1999/02/22-rdf-syntax-ns#">
   <cc:Work>
    <dc:type rdf:resource="http://purl.org/dc/dcmitype/StillImage"/>
    <dc:date>2025-12-17T10:22:22.584419</dc:date>
    <dc:format>image/svg+xml</dc:format>
    <dc:creator>
     <cc:Agent>
      <dc:title>Matplotlib v3.8.2, https://matplotlib.org/</dc:title>
     </cc:Agent>
    </dc:creator>
   </cc:Work>
  </rdf:RDF>
 </metadata>
 <defs>
  <style type="text/css">*{stroke-linejoin: round; stroke-linecap: butt}</style>
 </defs>
 <g id="figure_1">
  <g id="patch_1">
   <path d="M 0 216 
L 720 216 
L 720 0 
L 0 0 
z
" style="fill: #ffffff"/>
  </g>
  <g id="axes_1">
   <g id="patch_2">
    <path d="M 90 192.24 
L 648 192.24 
L 648 25.92 
L 90 25.92 
z
" style="fill: #ffffff"/>
   </g>
   <g id="line2d_1">
    <path d="M 90 192.24 
L 648 192.24 
" clip-path="url(#pa25a9ef65b)" style="fill: none; stroke: #000000; stroke-width: 0.5; stroke-linecap: square"/>
   </g>
   <g id="patch_3">
    <path d="M 123.23511 192.116468 
Q 120.45505 192.1777 117.448901 192.208672 
Q 114.442753 192.24 111.168646 192.24 
Q 101.404943 192.24 95.702472 192.007887 
Q 90 191.775775 90 191.378833 
Q 90 190.980468 95.702472 190.748712 
Q 101.404943 190.516599 111.168646 190.516599 
Q 114.442753 190.516599 117.448901 190.547927 
Q 120.45505 190.578899 123.23511 190.640131 
L 123.23511 190.983672 
Q 120.429929 190.902504 117.708485 190.864768 
Q 114.987041 190.827032 111.980893 190.827032 
Q 106.588247 190.827032 103.498362 190.97406 
Q 100.41685 191.120733 100.41685 191.378833 
Q 100.41685 191.635866 103.498362 191.782895 
Q 106.588247 191.929567 111.980893 191.929567 
Q 114.987041 191.929567 117.708485 191.891831 
Q 120.429929 191.853739 123.23511 191.772571 
L 123.23511 192.116468 
z
" clip-path="url(#pa25a9ef65b)" style="fill: #0000ff"/>
   </g>
   <g id="patch_4">
    <path d="M 113.02199 189.742189 
L 100.240301 189.742189 
L 98.222139 190.516599 
L 90 190.516599 
L 101.74203 186.265543 
L 111.49308 186.265543 
L 123.23511 190.516599 
L 115.019766 190.516599 
L 113.02199 189.742189 
z
M 102.278848 188.953201 
L 110.963057 188.953201 
L 106.627748 187.262254 
L 102.278848 188.953201 
z
" clip-path="url(#pa25a9ef65b)" style="fill: #008000"/>
   </g>
   <g id="patch_5">
    <path d="M 123.23511 185.85597 
Q 119.883295 186.060756 116.278231 186.163617 
Q 112.673168 186.265543 108.829753 186.265543 
Q 100.144827 186.265543 95.072414 185.65586 
Q 90 185.046177 90 184.003545 
Q 90 182.948756 95.161795 182.343749 
Q 100.331039 181.738742 109.321352 181.738742 
Q 112.784895 181.738742 115.957947 181.821031 
Q 119.138447 181.902384 121.953971 182.06322 
L 121.953971 182.965588 
Q 119.049065 182.758932 116.173952 182.657006 
Q 113.29884 182.554146 110.40883 182.554146 
Q 105.060823 182.554146 102.163365 182.930055 
Q 99.265907 183.305028 99.265907 184.003545 
Q 99.265907 184.695516 102.059086 185.073295 
Q 104.852266 185.450139 109.991715 185.450139 
Q 111.392029 185.450139 112.591234 185.428631 
Q 113.790439 185.406189 114.743845 185.359434 
L 114.743845 184.512237 
L 109.269213 184.512237 
L 109.269213 183.757615 
L 123.23511 183.757615 
L 123.23511 185.85597 
z
" clip-path="url(#pa25a9ef65b)" style="fill: #ffa600"/>
   </g>
   <g id="patch_6">
    <path d="M 90 174.822159 
L 123.23511 174.822159 
L 123.23511 176.171085 
L 111.278199 176.171085 
L 111.278199 181.738742 
L 101.980098 181.738742 
L 101.980098 176.171085 
L 90 176.171085 
L 90 174.822159 
z
" clip-path="url(#pa25a9ef65b)" style="fill: #ff0000"/>
   </g>
   <g id="patch_7">
    <path d="M 158.219436 192.089171 
Q 155.439376 192.163933 152.433227 192.201749 
Q 149.427079 192.24 146.152972 192.24 
Q 136.389269 192.24 130.686798 191.956597 
Q 124.984326 191.673194 124.984326 191.188541 
Q 124.984326 190.702149 130.686798 190.41918 
Q 136.389269 190.135778 146.152972 190.135778 
Q 149.427079 190.135778 152.433227 190.174028 
Q 155.439376 190.211844 158.219436 190.286607 
L 158.219436 190.706061 
Q 155.414255 190.606957 152.692811 190.560882 
Q 149.971367 190.514807 146.965219 190.514807 
Q 141.572573 190.514807 138.482688 190.694325 
Q 135.401176 190.873407 135.401176 191.188541 
Q 135.401176 191.50237 138.482688 191.681888 
Q 141.572573 191.86097 146.965219 191.86097 
Q 149.971367 191.86097 152.692811 191.814896 
Q 155.414255 191.768386 158.219436 191.669282 
L 158.219436 192.089171 
z
" clip-path="url(#pa25a9ef65b)" style="fill: #0000ff"/>
   </g>
   <g id="patch_8">
    <path d="M 158.219436 189.714625 
Q 154.867621 189.925201 151.262557 190.03097 
Q 147.657494 190.135778 143.814079 190.135778 
Q 135.129153 190.135778 130.05674 189.508856 
Q 124.984326 188.881935 124.984326 187.809823 
Q 124.984326 186.72521 130.146121 186.103097 
Q 135.315365 185.480983 144.305678 185.480983 
Q 147.769221 185.480983 150.942273 185.565598 
Q 154.122773 185.649252 156.938297 185.814636 
L 156.938297 186.742518 
Q 154.033391 186.530018 151.158278 186.425211 
Q 148.283166 186.319442 145.393156 186.319442 
Q 140.045149 186.319442 137.147691 186.705979 
Q 134.250233 187.091555 134.250233 187.809823 
Q 134.250233 188.521359 137.043412 188.90982 
Q 139.836592 189.297318 144.976042 189.297318 
Q 146.376355 189.297318 147.57556 189.275203 
Q 148.774765 189.252126 149.728171 189.204049 
L 149.728171 188.332898 
L 144.253539 188.332898 
L 144.253539 187.556939 
L 158.219436 187.556939 
L 158.219436 189.714625 
z
" clip-path="url(#pa25a9ef65b)" style="fill: #ffa600"/>
   </g>
   <g id="patch_9">
    <path d="M 148.006316 184.191621 
L 135.224627 184.191621 
L 133.206465 185.480983 
L 124.984326 185.480983 
L 136.726356 178.403144 
L 146.477406 178.403144 
L 158.219436 185.480983 
L 150.004092 185.480983 
L 148.006316 184.191621 
z
M 137.263174 182.877989 
L 145.947383 182.877989 
L 141.612074 180.062629 
L 137.263174 182.877989 
z
" clip-path="url(#pa25a9ef65b)" style="fill: #008000"/>
   </g>
   <g id="patch_10">
    <path d="M 124.984326 168.073325 
L 158.219436 168.073325 
L 158.219436 170.087928 
L 146.262525 170.087928 
L 146.262525 178.403144 
L 136.964424 178.403144 
L 136.964424 170.087928 
L 124.984326 170.087928 
L 124.984326 168.073325 
z
" clip-path="url(#pa25a9ef65b)" style="fill: #ff0000"/>
   </g>
   <g id="patch_11">
    <path d="M 193.203762 192.136801 
Q 190.423702 192.187955 187.417553 192.213829 
Q 184.411405 192.24 181.137298 192.24 
Q 171.373595 192.24 165.671124 192.046093 
Q 159.968652 191.852187 159.968652 191.520583 
Q 159.968652 191.187789 165.671124 190.99418 
Q 171.373595 190.800273 181.137298 190.800273 
Q 184.411405 190.800273 187.417553 190.826445 
Q 190.423702 190.852319 193.203762 190.903472 
L 193.203762 191.190466 
Q 190.398581 191.122658 187.677137 191.091133 
Q 184.955693 191.059609 181.949545 191.059609 
Q 176.556899 191.059609 173.467014 191.182436 
Q 170.385502 191.304966 170.385502 191.520583 
Q 170.385502 191.735308 173.467014 191.858135 
Q 176.556899 191.980665 181.949545 191.980665 
Q 184.955693 191.980665 187.677137 191.94914 
Q 190.398581 191.917318 193.203762 191.84951 
L 193.203762 192.136801 
z
" clip-path="url(#pa25a9ef65b)" style="fill: #0000ff"/>
   </g>
   <g id="patch_12">
    <path d="M 159.968652 188.964185 
L 193.203762 188.964185 
L 193.203762 189.322273 
L 181.246851 189.322273 
L 181.246851 190.800273 
L 171.94875 190.800273 
L 171.94875 189.322273 
L 159.968652 189.322273 
L 159.968652 188.964185 
z
" clip-path="url(#pa25a9ef65b)" style="fill: #ff0000"/>
   </g>
   <g id="patch_13">
    <path d="M 182.990642 188.557502 
L 170.208953 188.557502 
L 168.190791 188.964185 
L 159.968652 188.964185 
L 171.710682 186.731735 
L 181.461732 186.731735 
L 193.203762 188.964185 
L 184.988418 188.964185 
L 182.990642 188.557502 
z
M 172.2475 188.143164 
L 180.931709 188.143164 
L 176.5964 187.25516 
L 172.2475 188.143164 
z
" clip-path="url(#pa25a9ef65b)" style="fill: #008000"/>
   </g>
   <g id="patch_14">
    <path d="M 193.203762 186.430602 
Q 189.851947 186.581168 186.246883 186.656795 
Q 182.64182 186.731735 178.798405 186.731735 
Q 170.113479 186.731735 165.041066 186.283473 
Q 159.968652 185.835211 159.968652 185.068629 
Q 159.968652 184.293108 165.130447 183.848284 
Q 170.299691 183.40346 179.290004 183.40346 
Q 182.753547 183.40346 185.926599 183.463962 
Q 189.107099 183.523776 191.922624 183.642029 
L 191.922624 184.305484 
Q 189.017717 184.153542 186.142604 184.078603 
Q 183.267492 184.002976 180.377482 184.002976 
Q 175.029475 184.002976 172.132017 184.279358 
Q 169.234559 184.555053 169.234559 185.068629 
Q 169.234559 185.577392 172.027738 185.855149 
Q 174.820918 186.132219 179.960368 186.132219 
Q 181.360681 186.132219 182.559886 186.116406 
Q 183.759091 186.099906 184.712497 186.06553 
L 184.712497 185.442638 
L 179.237865 185.442638 
L 179.237865 184.887811 
L 193.203762 184.887811 
L 193.203762 186.430602 
z
" clip-path="url(#pa25a9ef65b)" style="fill: #ffa600"/>
   </g>
   <g id="patch_15">
    <path d="M 228.188088 192.099452 
Q 224.836273 192.169726 221.231209 192.205023 
Q 217.626146 192.24 213.782731 192.24 
Q 205.097805 192.24 200.025392 192.030783 
Q 194.952978 191.821565 194.952978 191.463778 
Q 194.952978 191.101819 200.114773 190.894206 
Q 205.284017 190.686594 214.274331 190.686594 
Q 217.737873 190.686594 220.910925 190.714832 
Q 224.091425 190.742749 226.90695 190.797941 
L 226.90695 191.107595 
Q 224.002043 191.03668 221.12693 191.001703 
Q 218.251818 190.966406 215.361808 190.966406 
Q 210.013801 190.966406 207.116343 191.095402 
Q 204.218885 191.224077 204.218885 191.463778 
Q 204.218885 191.701233 207.012064 191.830871 
Q 209.805244 191.960188 214.944694 191.960188 
Q 216.345007 191.960188 217.544212 191.952808 
Q 218.743417 191.945106 219.696823 191.929062 
L 219.696823 191.63834 
L 214.222191 191.63834 
L 214.222191 191.379385 
L 228.188088 191.379385 
L 228.188088 192.099452 
z
" clip-path="url(#pa25a9ef65b)" style="fill: #ffa600"/>
   </g>
   <g id="patch_16">
    <path d="M 194.952978 188.584076 
L 228.188088 188.584076 
L 228.188088 188.994126 
L 216.231177 188.994126 
L 216.231177 190.686594 
L 206.933076 190.686594 
L 206.933076 188.994126 
L 194.952978 188.994126 
L 194.952978 188.584076 
z
" clip-path="url(#pa25a9ef65b)" style="fill: #ff0000"/>
   </g>
   <g id="patch_17">
    <path d="M 217.974968 187.943088 
L 205.193279 187.943088 
L 203.175117 188.584076 
L 194.952978 188.584076 
L 206.695008 185.06543 
L 216.446058 185.06543 
L 228.188088 188.584076 
L 219.972744 188.584076 
L 217.974968 187.943088 
z
M 207.231826 187.290035 
L 215.916035 187.290035 
L 211.580726 185.890419 
L 207.231826 187.290035 
z
" clip-path="url(#pa25a9ef65b)" style="fill: #008000"/>
   </g>
   <g id="patch_18">
    <path d="M 228.188088 184.794571 
Q 225.408028 184.92883 222.401879 184.99674 
Q 219.395731 185.06543 216.121624 185.06543 
Q 206.357921 185.06543 200.65545 184.556497 
Q 194.952978 184.047563 194.952978 183.177225 
Q 194.952978 182.303765 200.65545 181.795612 
Q 206.357921 181.286679 216.121624 181.286679 
Q 219.395731 181.286679 222.401879 181.355369 
Q 225.408028 181.423279 228.188088 181.557537 
L 228.188088 182.31079 
Q 225.382907 182.132819 222.661463 182.050078 
Q 219.940019 181.967338 216.933871 181.967338 
Q 211.541225 181.967338 208.45134 182.289714 
Q 205.369828 182.61131 205.369828 183.177225 
Q 205.369828 183.740798 208.45134 184.063175 
Q 211.541225 184.384771 216.933871 184.384771 
Q 219.940019 184.384771 222.661463 184.30203 
Q 225.382907 184.218509 228.188088 184.040538 
L 228.188088 184.794571 
z
" clip-path="url(#pa25a9ef65b)" style="fill: #0000ff"/>
   </g>
   <g id="patch_19">
    <path d="M 263.172414 192.053694 
Q 260.392354 192.146042 257.386205 192.192752 
Q 254.380057 192.24 251.10595 192.24 
Q 241.342247 192.24 235.639776 191.889938 
Q 229.937304 191.539876 229.937304 190.941227 
Q 229.937304 190.340431 235.639776 189.990905 
Q 241.342247 189.640844 251.10595 189.640844 
Q 254.380057 189.640844 257.386205 189.688091 
Q 260.392354 189.734802 263.172414 189.827149 
L 263.172414 190.345263 
Q 260.367233 190.222848 257.645789 190.165936 
Q 254.924345 190.109025 251.918197 190.109025 
Q 246.525551 190.109025 243.435666 190.330766 
Q 240.354154 190.551971 240.354154 190.941227 
Q 240.354154 191.328872 243.435666 191.550614 
Q 246.525551 191.771819 251.918197 191.771819 
Q 254.924345 191.771819 257.645789 191.714907 
Q 260.367233 191.657458 263.172414 191.535044 
L 263.172414 192.053694 
z
" clip-path="url(#pa25a9ef65b)" style="fill: #0000ff"/>
   </g>
   <g id="patch_20">
    <path d="M 229.937304 182.477315 
L 263.172414 182.477315 
L 263.172414 183.874402 
L 251.215503 183.874402 
L 251.215503 189.640844 
L 241.917402 189.640844 
L 241.917402 183.874402 
L 229.937304 183.874402 
L 229.937304 182.477315 
z
" clip-path="url(#pa25a9ef65b)" style="fill: #ff0000"/>
   </g>
   <g id="patch_21">
    <path d="M 263.172414 180.79675 
Q 259.820599 181.637032 256.215535 182.059092 
Q 252.610472 182.477315 248.767057 182.477315 
Q 240.082131 182.477315 235.009718 179.975652 
Q 229.937304 177.47399 229.937304 173.19584 
Q 229.937304 168.867811 235.099099 166.385333 
Q 240.268343 163.902855 249.258657 163.902855 
Q 252.722199 163.902855 255.895251 164.240503 
Q 259.075751 164.574313 261.891276 165.234261 
L 261.891276 168.936875 
Q 258.986369 168.088919 256.111256 167.670696 
Q 253.236144 167.248636 250.346134 167.248636 
Q 244.998127 167.248636 242.100669 168.791073 
Q 239.203211 170.329672 239.203211 173.19584 
Q 239.203211 176.03515 241.99639 177.58526 
Q 244.78957 179.131533 249.92902 179.131533 
Q 251.329333 179.131533 252.528538 179.043284 
Q 253.727743 178.951198 254.681149 178.759353 
L 254.681149 175.283117 
L 249.206517 175.283117 
L 249.206517 172.186734 
L 263.172414 172.186734 
L 263.172414 180.79675 
z
" clip-path="url(#pa25a9ef65b)" style="fill: #ffa600"/>
   </g>
   <g id="patch_22">
    <path d="M 252.959294 151.557588 
L 240.177605 151.557588 
L 238.159443 163.902855 
L 229.937304 163.902855 
L 241.679334 96.134604 
L 251.430384 96.134604 
L 263.172414 163.902855 
L 254.95707 163.902855 
L 252.959294 151.557588 
z
M 242.216152 138.97994 
L 250.900361 138.97994 
L 246.565052 112.023688 
L 242.216152 138.97994 
z
" clip-path="url(#pa25a9ef65b)" style="fill: #008000"/>
   </g>
   <g id="patch_23">
    <path d="M 264.92163 188.203788 
L 298.15674 188.203788 
L 298.15674 188.990962 
L 286.199829 188.990962 
L 286.199829 192.24 
L 276.901728 192.24 
L 276.901728 188.990962 
L 264.92163 188.990962 
L 264.92163 188.203788 
z
" clip-path="url(#pa25a9ef65b)" style="fill: #ff0000"/>
   </g>
   <g id="patch_24">
    <path d="M 287.94362 187.267988 
L 275.161931 187.267988 
L 273.143769 188.203788 
L 264.92163 188.203788 
L 276.66366 183.066792 
L 286.41471 183.066792 
L 298.15674 188.203788 
L 289.941396 188.203788 
L 287.94362 187.267988 
z
M 277.200478 186.314572 
L 285.884687 186.314572 
L 281.549378 184.271223 
L 277.200478 186.314572 
z
" clip-path="url(#pa25a9ef65b)" style="fill: #008000"/>
   </g>
   <g id="patch_25">
    <path d="M 298.15674 182.014744 
Q 295.37668 182.53622 292.370531 182.79999 
Q 289.364383 183.066792 286.090276 183.066792 
Q 276.326573 183.066792 270.624102 181.090033 
Q 264.92163 179.113274 264.92163 175.732773 
Q 264.92163 172.340146 270.624102 170.366418 
Q 276.326573 168.389659 286.090276 168.389659 
Q 289.364383 168.389659 292.370531 168.656461 
Q 295.37668 168.920231 298.15674 169.441707 
L 298.15674 172.367432 
Q 295.351559 171.676173 292.630115 171.354798 
Q 289.908672 171.033423 286.902523 171.033423 
Q 281.509877 171.033423 278.419992 172.285572 
Q 275.33848 173.53469 275.33848 175.732773 
Q 275.33848 177.921761 278.419992 179.173911 
Q 281.509877 180.423028 286.902523 180.423028 
Q 289.908672 180.423028 292.630115 180.101653 
Q 295.351559 179.777247 298.15674 179.085987 
L 298.15674 182.014744 
z
" clip-path="url(#pa25a9ef65b)" style="fill: #0000ff"/>
   </g>
   <g id="patch_26">
    <path d="M 298.15674 157.965287 
Q 294.804925 163.177473 291.199861 165.795466 
Q 287.594798 168.389659 283.751383 168.389659 
Q 275.066457 168.389659 269.994044 152.872101 
Q 264.92163 137.354542 264.92163 110.817613 
Q 264.92163 83.971285 270.083425 68.572726 
Q 275.252669 53.174167 284.242983 53.174167 
Q 287.706525 53.174167 290.879577 55.268561 
Q 294.060077 57.339156 296.875602 61.432745 
L 296.875602 84.399684 
Q 293.970695 79.139898 291.095582 76.545705 
Q 288.22047 73.927712 285.33046 73.927712 
Q 279.982453 73.927712 277.084995 83.495286 
Q 274.187537 93.039061 274.187537 110.817613 
Q 274.187537 128.429566 276.980716 138.04474 
Q 279.773896 147.636115 284.913346 147.636115 
Q 286.313659 147.636115 287.512864 147.088716 
Q 288.712069 146.517518 289.665475 145.327521 
L 289.665475 123.764778 
L 284.190843 123.764778 
L 284.190843 104.55823 
L 298.15674 104.55823 
L 298.15674 157.965287 
z
" clip-path="url(#pa25a9ef65b)" style="fill: #ffa600"/>
   </g>
   <g id="patch_27">
    <path d="M 299.905956 191.451061 
L 333.141066 191.451061 
L 333.141066 191.604926 
L 321.184155 191.604926 
L 321.184155 192.24 
L 311.886054 192.24 
L 311.886054 191.604926 
L 299.905956 191.604926 
L 299.905956 191.451061 
z
" clip-path="url(#pa25a9ef65b)" style="fill: #ff0000"/>
   </g>
   <g id="patch_28">
    <path d="M 322.927946 191.234341 
L 310.146257 191.234341 
L 308.128095 191.451061 
L 299.905956 191.451061 
L 311.647986 190.261392 
L 321.399036 190.261392 
L 333.141066 191.451061 
L 324.925722 191.451061 
L 322.927946 191.234341 
z
M 312.184804 191.01354 
L 320.869013 191.01354 
L 316.533704 190.540324 
L 312.184804 191.01354 
z
" clip-path="url(#pa25a9ef65b)" style="fill: #008000"/>
   </g>
   <g id="patch_29">
    <path d="M 333.141066 190.173424 
Q 330.361006 190.217028 327.354858 190.239083 
Q 324.348709 190.261392 321.074602 190.261392 
Q 311.310899 190.261392 305.608428 190.096104 
Q 299.905956 189.930816 299.905956 189.648153 
Q 299.905956 189.364477 305.608428 189.199442 
Q 311.310899 189.034154 321.074602 189.034154 
Q 324.348709 189.034154 327.354858 189.056463 
Q 330.361006 189.078518 333.141066 189.122122 
L 333.141066 189.366758 
Q 330.335885 189.308958 327.614441 189.282086 
Q 324.892998 189.255214 321.886849 189.255214 
Q 316.494203 189.255214 313.404318 189.359913 
Q 310.322806 189.464359 310.322806 189.648153 
Q 310.322806 189.831187 313.404318 189.935886 
Q 316.494203 190.040332 321.886849 190.040332 
Q 324.892998 190.040332 327.614441 190.01346 
Q 330.335885 189.986335 333.141066 189.928534 
L 333.141066 190.173424 
z
" clip-path="url(#pa25a9ef65b)" style="fill: #0000ff"/>
   </g>
   <g id="patch_30">
    <path d="M 333.141066 188.894791 
Q 329.789251 188.964473 326.184187 188.999473 
Q 322.579124 189.034154 318.735709 189.034154 
Q 310.050783 189.034154 304.97837 188.826701 
Q 299.905956 188.619248 299.905956 188.264477 
Q 299.905956 187.90557 305.067752 187.699708 
Q 310.236995 187.493845 319.227309 187.493845 
Q 322.690851 187.493845 325.863903 187.521845 
Q 329.044403 187.549527 331.859928 187.604254 
L 331.859928 187.911297 
Q 328.955021 187.84098 326.079908 187.806298 
Q 323.204796 187.771298 320.314786 187.771298 
Q 314.966779 187.771298 312.069321 187.899207 
Q 309.171863 188.026797 309.171863 188.264477 
Q 309.171863 188.49993 311.965042 188.628475 
Q 314.758222 188.756701 319.897672 188.756701 
Q 321.297985 188.756701 322.49719 188.749383 
Q 323.696395 188.741747 324.649801 188.725838 
L 324.649801 188.437567 
L 319.175169 188.437567 
L 319.175169 188.180796 
L 333.141066 188.180796 
L 333.141066 188.894791 
z
" clip-path="url(#pa25a9ef65b)" style="fill: #ffa600"/>
   </g>
   <g id="patch_31">
    <path d="M 368.125392 192.00177 
Q 364.773577 192.120885 361.168513 192.180715 
Q 357.56345 192.24 353.720035 192.24 
Q 345.035109 192.24 339.962696 191.885375 
Q 334.890282 191.530751 334.890282 190.924299 
Q 334.890282 190.310776 340.052078 189.958871 
Q 345.221321 189.606966 354.211635 189.606966 
Q 357.675177 189.606966 360.848229 189.654829 
Q 364.028729 189.702149 366.844254 189.7957 
L 366.844254 190.320566 
Q 363.939347 190.200364 361.064235 190.141078 
Q 358.189122 190.081249 355.299112 190.081249 
Q 349.951105 190.081249 347.053647 190.299898 
Q 344.156189 190.518003 344.156189 190.924299 
Q 344.156189 191.326787 346.949368 191.546524 
Q 349.742548 191.765717 354.881998 191.765717 
Q 356.282312 191.765717 357.481517 191.753207 
Q 358.680721 191.740153 359.634127 191.712958 
L 359.634127 191.220182 
L 354.159495 191.220182 
L 354.159495 190.781252 
L 368.125392 190.781252 
L 368.125392 192.00177 
z
" clip-path="url(#pa25a9ef65b)" style="fill: #ffa600"/>
   </g>
   <g id="patch_32">
    <path d="M 368.125392 189.040763 
Q 365.345332 189.321417 362.339184 189.463375 
Q 359.333035 189.606966 356.058928 189.606966 
Q 346.295225 189.606966 340.592754 188.543091 
Q 334.890282 187.479217 334.890282 185.659862 
Q 334.890282 183.83398 340.592754 182.771737 
Q 346.295225 181.707863 356.058928 181.707863 
Q 359.333035 181.707863 362.339184 181.851453 
Q 365.345332 181.993412 368.125392 182.274066 
L 368.125392 183.848665 
Q 365.320211 183.476635 362.598767 183.303674 
Q 359.877324 183.130713 356.871175 183.130713 
Q 351.478529 183.130713 348.388644 183.804609 
Q 345.307132 184.476873 345.307132 185.659862 
Q 345.307132 186.837956 348.388644 187.511851 
Q 351.478529 188.184116 356.871175 188.184116 
Q 359.877324 188.184116 362.598767 188.011154 
Q 365.320211 187.836562 368.125392 187.464532 
L 368.125392 189.040763 
z
" clip-path="url(#pa25a9ef65b)" style="fill: #0000ff"/>
   </g>
   <g id="patch_33">
    <path d="M 357.912272 180.188949 
L 345.130583 180.188949 
L 343.112421 181.707863 
L 334.890282 181.707863 
L 346.632312 173.369921 
L 356.383362 173.369921 
L 368.125392 181.707863 
L 359.910048 181.707863 
L 357.912272 180.188949 
z
M 347.16913 178.641444 
L 355.853339 178.641444 
L 351.51803 175.324852 
L 347.16913 178.641444 
z
" clip-path="url(#pa25a9ef65b)" style="fill: #008000"/>
   </g>
   <g id="patch_34">
    <path d="M 334.890282 25.92 
L 368.125392 25.92 
L 368.125392 54.676843 
L 356.168481 54.676843 
L 356.168481 173.369921 
L 346.87038 173.369921 
L 346.87038 54.676843 
L 334.890282 54.676843 
L 334.890282 25.92 
z
" clip-path="url(#pa25a9ef65b)" style="fill: #ff0000"/>
   </g>
   <g id="patch_35">
    <path d="M 392.896598 191.604228 
L 380.114909 191.604228 
L 378.096747 192.24 
L 369.874608 192.24 
L 381.616638 188.749987 
L 391.367688 188.749987 
L 403.109718 192.24 
L 394.894374 192.24 
L 392.896598 191.604228 
z
M 382.153456 190.956489 
L 390.837665 190.956489 
L 386.502356 189.568263 
L 382.153456 190.956489 
z
" clip-path="url(#pa25a9ef65b)" style="fill: #008000"/>
   </g>
   <g id="patch_36">
    <path d="M 403.109718 188.36849 
Q 400.329658 188.557589 397.32351 188.653238 
Q 394.317361 188.749987 391.043255 188.749987 
Q 381.279551 188.749987 375.57708 188.033168 
Q 369.874608 187.316349 369.874608 186.090501 
Q 369.874608 184.860255 375.57708 184.144536 
Q 381.279551 183.427717 391.043255 183.427717 
Q 394.317361 183.427717 397.32351 183.524466 
Q 400.329658 183.620115 403.109718 183.809214 
L 403.109718 184.87015 
Q 400.304537 184.619483 397.583093 184.502945 
Q 394.86165 184.386407 391.855501 184.386407 
Q 386.462855 184.386407 383.37297 184.840466 
Q 380.291458 185.293425 380.291458 186.090501 
Q 380.291458 186.884279 383.37297 187.338338 
Q 386.462855 187.791297 391.855501 187.791297 
Q 394.86165 187.791297 397.583093 187.674759 
Q 400.304537 187.557121 403.109718 187.306455 
L 403.109718 188.36849 
z
" clip-path="url(#pa25a9ef65b)" style="fill: #0000ff"/>
   </g>
   <g id="patch_37">
    <path d="M 369.874608 176.273191 
L 403.109718 176.273191 
L 403.109718 177.668523 
L 391.152807 177.668523 
L 391.152807 183.427717 
L 381.854706 183.427717 
L 381.854706 177.668523 
L 369.874608 177.668523 
L 369.874608 176.273191 
z
" clip-path="url(#pa25a9ef65b)" style="fill: #ff0000"/>
   </g>
   <g id="patch_38">
    <path d="M 403.109718 174.725935 
Q 399.757903 175.499563 396.152839 175.888143 
Q 392.547776 176.273191 388.704361 176.273191 
Q 380.019435 176.273191 374.947022 173.969969 
Q 369.874608 171.666748 369.874608 167.727958 
Q 369.874608 163.743244 375.036404 161.457685 
Q 380.205647 159.172127 389.195961 159.172127 
Q 392.659503 159.172127 395.832555 159.482991 
Q 399.013055 159.790323 401.82858 160.397921 
L 401.82858 163.80683 
Q 398.923673 163.026136 396.048561 162.641089 
Q 393.173448 162.252508 390.283438 162.252508 
Q 384.935431 162.252508 382.037973 163.672593 
Q 379.140515 165.089144 379.140515 167.727958 
Q 379.140515 170.342043 381.933694 171.769192 
Q 384.726874 173.192809 389.866324 173.192809 
Q 391.266638 173.192809 392.465843 173.11156 
Q 393.665048 173.026779 394.618453 172.850152 
L 394.618453 169.649663 
L 389.143821 169.649663 
L 389.143821 166.798897 
L 403.109718 166.798897 
L 403.109718 174.725935 
z
" clip-path="url(#pa25a9ef65b)" style="fill: #ffa600"/>
   </g>
   <g id="patch_39">
    <path d="M 438.094044 192.22237 
Q 435.313984 192.231109 432.307836 192.235529 
Q 429.301687 192.24 426.027581 192.24 
Q 416.263877 192.24 410.561406 192.206873 
Q 404.858934 192.173746 404.858934 192.117095 
Q 404.858934 192.060241 410.561406 192.027165 
Q 416.263877 191.994038 426.027581 191.994038 
Q 429.301687 191.994038 432.307836 191.998509 
Q 435.313984 192.002929 438.094044 192.011668 
L 438.094044 192.060698 
Q 435.288863 192.049114 432.567419 192.043728 
Q 429.845976 192.038342 426.839827 192.038342 
Q 421.447181 192.038342 418.357296 192.059326 
Q 415.275784 192.080259 415.275784 192.117095 
Q 415.275784 192.153779 418.357296 192.174762 
Q 421.447181 192.195695 426.839827 192.195695 
Q 429.845976 192.195695 432.567419 192.19031 
Q 435.288863 192.184873 438.094044 192.173289 
L 438.094044 192.22237 
z
" clip-path="url(#pa25a9ef65b)" style="fill: #0000ff"/>
   </g>
   <g id="patch_40">
    <path d="M 404.858934 191.714673 
L 438.094044 191.714673 
L 438.094044 191.769157 
L 426.137133 191.769157 
L 426.137133 191.994038 
L 416.839032 191.994038 
L 416.839032 191.769157 
L 404.858934 191.769157 
L 404.858934 191.714673 
z
" clip-path="url(#pa25a9ef65b)" style="fill: #ff0000"/>
   </g>
   <g id="patch_41">
    <path d="M 438.094044 191.688573 
Q 434.742229 191.701623 431.137165 191.708178 
Q 427.532102 191.714673 423.688687 191.714673 
Q 415.003761 191.714673 409.931348 191.675821 
Q 404.858934 191.636968 404.858934 191.570526 
Q 404.858934 191.503308 410.02073 191.464754 
Q 415.189973 191.426199 424.180287 191.426199 
Q 427.643829 191.426199 430.816881 191.431443 
Q 433.997381 191.436627 436.812906 191.446877 
L 436.812906 191.504381 
Q 433.907999 191.491211 431.032887 191.484716 
Q 428.157774 191.478161 425.267764 191.478161 
Q 419.919757 191.478161 417.022299 191.502116 
Q 414.124841 191.526012 414.124841 191.570526 
Q 414.124841 191.614622 416.91802 191.638696 
Q 419.7112 191.662711 424.85065 191.662711 
Q 426.250964 191.662711 427.450169 191.66134 
Q 428.649374 191.65991 429.602779 191.656931 
L 429.602779 191.602942 
L 424.128147 191.602942 
L 424.128147 191.554853 
L 438.094044 191.554853 
L 438.094044 191.688573 
z
" clip-path="url(#pa25a9ef65b)" style="fill: #ffa600"/>
   </g>
   <g id="patch_42">
    <path d="M 427.880924 191.364797 
L 415.099235 191.364797 
L 413.081073 191.426199 
L 404.858934 191.426199 
L 416.600964 191.08914 
L 426.352014 191.08914 
L 438.094044 191.426199 
L 429.8787 191.426199 
L 427.880924 191.364797 
z
M 417.137782 191.30224 
L 425.821992 191.30224 
L 421.486682 191.168167 
L 417.137782 191.30224 
z
" clip-path="url(#pa25a9ef65b)" style="fill: #008000"/>
   </g>
   <g id="patch_43">
    <path d="M 473.07837 192.038928 
Q 470.29831 192.138595 467.292162 192.189008 
Q 464.286013 192.24 461.011907 192.24 
Q 451.248203 192.24 445.545732 191.862193 
Q 439.84326 191.484386 439.84326 190.83829 
Q 439.84326 190.189876 445.545732 189.812648 
Q 451.248203 189.434841 461.011907 189.434841 
Q 464.286013 189.434841 467.292162 189.485834 
Q 470.29831 189.536247 473.07837 189.635913 
L 473.07837 190.195091 
Q 470.273189 190.062974 467.551745 190.001552 
Q 464.830302 189.940129 461.824153 189.940129 
Q 456.431507 189.940129 453.341622 190.179445 
Q 450.26011 190.418182 450.26011 190.83829 
Q 450.26011 191.256659 453.341622 191.495975 
Q 456.431507 191.734712 461.824153 191.734712 
Q 464.830302 191.734712 467.551745 191.67329 
Q 470.273189 191.611287 473.07837 191.479171 
L 473.07837 192.038928 
z
" clip-path="url(#pa25a9ef65b)" style="fill: #0000ff"/>
   </g>
   <g id="patch_44">
    <path d="M 473.07837 188.952616 
Q 469.726555 189.193729 466.121491 189.314835 
Q 462.516428 189.434841 458.673013 189.434841 
Q 449.988087 189.434841 444.915674 188.717008 
Q 439.84326 187.999175 439.84326 186.771592 
Q 439.84326 185.529696 445.005056 184.817368 
Q 450.174299 184.10504 459.164613 184.10504 
Q 462.628155 184.10504 465.801207 184.201925 
Q 468.981707 184.29771 471.797232 184.487077 
L 471.797232 185.549514 
Q 468.892325 185.306199 466.017213 185.186193 
Q 463.1421 185.065087 460.25209 185.065087 
Q 454.904083 185.065087 452.006625 185.507677 
Q 449.109167 185.949166 449.109167 186.771592 
Q 449.109167 187.586311 451.902346 188.031103 
Q 454.695526 188.474794 459.834976 188.474794 
Q 461.23529 188.474794 462.434495 188.449472 
Q 463.6337 188.423049 464.587105 188.368 
L 464.587105 187.37052 
L 459.112473 187.37052 
L 459.112473 186.482036 
L 473.07837 186.482036 
L 473.07837 188.952616 
z
" clip-path="url(#pa25a9ef65b)" style="fill: #ffa600"/>
   </g>
   <g id="patch_45">
    <path d="M 462.86525 183.083014 
L 450.083561 183.083014 
L 448.065399 184.10504 
L 439.84326 184.10504 
L 451.58529 178.494722 
L 461.33634 178.494722 
L 473.07837 184.10504 
L 464.863026 184.10504 
L 462.86525 183.083014 
z
M 452.122108 182.041751 
L 460.806318 182.041751 
L 456.471008 179.810129 
L 452.122108 182.041751 
z
" clip-path="url(#pa25a9ef65b)" style="fill: #008000"/>
   </g>
   <g id="patch_46">
    <path d="M 439.84326 165.661121 
L 473.07837 165.661121 
L 473.07837 168.164031 
L 461.12146 168.164031 
L 461.12146 178.494722 
L 451.823358 178.494722 
L 451.823358 168.164031 
L 439.84326 168.164031 
L 439.84326 165.661121 
z
" clip-path="url(#pa25a9ef65b)" style="fill: #ff0000"/>
   </g>
   <g id="patch_47">
    <path d="M 508.062696 191.831084 
Q 505.282636 192.033774 502.276488 192.136298 
Q 499.270339 192.24 495.996233 192.24 
Q 486.232529 192.24 480.530058 191.471661 
Q 474.827586 190.703323 474.827586 189.38937 
Q 474.827586 188.070703 480.530058 187.303543 
Q 486.232529 186.535204 495.996233 186.535204 
Q 499.270339 186.535204 502.276488 186.638907 
Q 505.282636 186.74143 508.062696 186.944121 
L 508.062696 188.081309 
Q 505.257515 187.812626 502.536071 187.687712 
Q 499.814628 187.562798 496.808479 187.562798 
Q 491.415833 187.562798 488.325948 188.049491 
Q 485.244436 188.535006 485.244436 189.38937 
Q 485.244436 190.240199 488.325948 190.726892 
Q 491.415833 191.212406 496.808479 191.212406 
Q 499.814628 191.212406 502.536071 191.087492 
Q 505.257515 190.9614 508.062696 190.692717 
L 508.062696 191.831084 
z
" clip-path="url(#pa25a9ef65b)" style="fill: #0000ff"/>
   </g>
   <g id="patch_48">
    <path d="M 474.827586 179.472124 
L 508.062696 179.472124 
L 508.062696 180.849622 
L 496.105786 180.849622 
L 496.105786 186.535204 
L 486.807684 186.535204 
L 486.807684 180.849622 
L 474.827586 180.849622 
L 474.827586 179.472124 
z
" clip-path="url(#pa25a9ef65b)" style="fill: #ff0000"/>
   </g>
   <g id="patch_49">
    <path d="M 497.849576 177.146214 
L 485.067887 177.146214 
L 483.049725 179.472124 
L 474.827586 179.472124 
L 486.569616 166.704248 
L 496.320666 166.704248 
L 508.062696 179.472124 
L 499.847352 179.472124 
L 497.849576 177.146214 
z
M 487.106434 174.776523 
L 495.790644 174.776523 
L 491.455334 169.697831 
L 487.106434 174.776523 
z
" clip-path="url(#pa25a9ef65b)" style="fill: #008000"/>
   </g>
   <g id="patch_50">
    <path d="M 508.062696 159.699304 
Q 504.710881 163.201776 501.105817 164.961009 
Q 497.500754 166.704248 493.657339 166.704248 
Q 484.972414 166.704248 479.9 156.276797 
Q 474.827586 145.849346 474.827586 128.017125 
Q 474.827586 109.976994 479.989382 99.629508 
Q 485.158625 89.282022 494.148939 89.282022 
Q 497.612481 89.282022 500.785533 90.689408 
Q 503.966033 92.080801 506.781558 94.831601 
L 506.781558 110.264869 
Q 503.876651 106.730411 501.001539 104.987171 
Q 498.126426 103.227939 495.236416 103.227939 
Q 489.888409 103.227939 486.990951 109.657134 
Q 484.093493 116.070336 484.093493 128.017125 
Q 484.093493 139.851962 486.886672 146.313143 
Q 489.679852 152.758332 494.819302 152.758332 
Q 496.219616 152.758332 497.418821 152.390492 
Q 498.618026 152.00666 499.571431 151.207009 
L 499.571431 136.717329 
L 494.096799 136.717329 
L 494.096799 123.81096 
L 508.062696 123.81096 
L 508.062696 159.699304 
z
" clip-path="url(#pa25a9ef65b)" style="fill: #ffa600"/>
   </g>
   <g id="patch_51">
    <path d="M 543.047022 192.020542 
Q 540.266962 192.129322 537.260814 192.184345 
Q 534.254665 192.24 530.980559 192.24 
Q 521.216855 192.24 515.514384 191.827647 
Q 509.811912 191.415294 509.811912 190.71012 
Q 509.811912 190.002415 515.514384 189.590695 
Q 521.216855 189.178342 530.980559 189.178342 
Q 534.254665 189.178342 537.260814 189.233997 
Q 540.266962 189.289019 543.047022 189.3978 
L 543.047022 190.008107 
Q 540.241841 189.86391 537.520398 189.796871 
Q 534.798954 189.729832 531.792805 189.729832 
Q 526.400159 189.729832 523.310274 189.991031 
Q 520.228762 190.251598 520.228762 190.71012 
Q 520.228762 191.166744 523.310274 191.427943 
Q 526.400159 191.688509 531.792805 191.688509 
Q 534.798954 191.688509 537.520398 191.62147 
Q 540.241841 191.553799 543.047022 191.409602 
L 543.047022 192.020542 
z
" clip-path="url(#pa25a9ef65b)" style="fill: #0000ff"/>
   </g>
   <g id="patch_52">
    <path d="M 509.811912 184.642552 
L 543.047022 184.642552 
L 543.047022 185.527157 
L 531.090112 185.527157 
L 531.090112 189.178342 
L 521.79201 189.178342 
L 521.79201 185.527157 
L 509.811912 185.527157 
L 509.811912 184.642552 
z
" clip-path="url(#pa25a9ef65b)" style="fill: #ff0000"/>
   </g>
   <g id="patch_53">
    <path d="M 543.047022 183.257501 
Q 539.695207 183.950026 536.090143 184.29787 
Q 532.48508 184.642552 528.641665 184.642552 
Q 519.95674 184.642552 514.884326 182.580786 
Q 509.811912 180.519021 509.811912 176.993149 
Q 509.811912 173.426169 514.973708 171.380215 
Q 520.142951 169.33426 529.133265 169.33426 
Q 532.596807 169.33426 535.769859 169.612535 
Q 538.950359 169.887648 541.765884 170.43155 
L 541.765884 173.483089 
Q 538.860977 172.784239 535.985865 172.439557 
Q 533.110752 172.091713 530.220742 172.091713 
Q 524.872735 172.091713 521.975277 173.362924 
Q 519.077819 174.630973 519.077819 176.993149 
Q 519.077819 179.33319 521.870998 180.610725 
Q 524.664178 181.885099 529.803628 181.885099 
Q 531.203942 181.885099 532.403147 181.812368 
Q 533.602352 181.736474 534.555757 181.578364 
L 534.555757 178.713395 
L 529.081125 178.713395 
L 529.081125 176.161486 
L 543.047022 176.161486 
L 543.047022 183.257501 
z
" clip-path="url(#pa25a9ef65b)" style="fill: #ffa600"/>
   </g>
   <g id="patch_54">
    <path d="M 532.833902 165.677972 
L 520.052213 165.677972 
L 518.034051 169.33426 
L 509.811912 169.33426 
L 521.553942 149.263389 
L 531.304992 149.263389 
L 543.047022 169.33426 
L 534.831678 169.33426 
L 532.833902 165.677972 
z
M 522.09076 161.95286 
L 530.77497 161.95286 
L 526.43966 153.969247 
L 522.09076 161.95286 
z
" clip-path="url(#pa25a9ef65b)" style="fill: #008000"/>
   </g>
   <g id="patch_55">
    <path d="M 578.031348 192.142839 
Q 575.251288 192.190999 572.24514 192.21536 
Q 569.238991 192.24 565.964885 192.24 
Q 556.201181 192.24 550.49871 192.057438 
Q 544.796238 191.874876 544.796238 191.562672 
Q 544.796238 191.249349 550.49871 191.067066 
Q 556.201181 190.884504 565.964885 190.884504 
Q 569.238991 190.884504 572.24514 190.909145 
Q 575.251288 190.933505 578.031348 190.981665 
L 578.031348 191.251869 
Q 575.226167 191.188028 572.504724 191.158348 
Q 569.78328 191.128667 566.777131 191.128667 
Q 561.384485 191.128667 558.2946 191.244309 
Q 555.213088 191.35967 555.213088 191.562672 
Q 555.213088 191.764835 558.2946 191.880476 
Q 561.384485 191.995837 566.777131 191.995837 
Q 569.78328 191.995837 572.504724 191.966157 
Q 575.226167 191.936196 578.031348 191.872356 
L 578.031348 192.142839 
z
" clip-path="url(#pa25a9ef65b)" style="fill: #0000ff"/>
   </g>
   <g id="patch_56">
    <path d="M 544.796238 188.34295 
L 578.031348 188.34295 
L 578.031348 188.838624 
L 566.074438 188.838624 
L 566.074438 190.884504 
L 556.776336 190.884504 
L 556.776336 188.838624 
L 544.796238 188.838624 
L 544.796238 188.34295 
z
" clip-path="url(#pa25a9ef65b)" style="fill: #ff0000"/>
   </g>
   <g id="patch_57">
    <path d="M 578.031348 188.072117 
Q 574.679533 188.207533 571.074469 188.275551 
Q 567.469406 188.34295 563.625991 188.34295 
Q 554.941066 188.34295 549.868652 187.939792 
Q 544.796238 187.536634 544.796238 186.847184 
Q 544.796238 186.149696 549.958034 185.74963 
Q 555.127278 185.349564 564.117591 185.349564 
Q 567.581133 185.349564 570.754185 185.403978 
Q 573.934685 185.457773 576.75021 185.564128 
L 576.75021 186.160827 
Q 573.845303 186.024173 570.970191 185.956774 
Q 568.095078 185.888757 565.205069 185.888757 
Q 559.857061 185.888757 556.959603 186.13733 
Q 554.062145 186.385284 554.062145 186.847184 
Q 554.062145 187.304756 556.855324 187.554566 
Q 559.648504 187.803757 564.787954 187.803757 
Q 566.188268 187.803757 567.387473 187.789535 
Q 568.586678 187.774695 569.540083 187.743778 
L 569.540083 187.183562 
L 564.065451 187.183562 
L 564.065451 186.684561 
L 578.031348 186.684561 
L 578.031348 188.072117 
z
" clip-path="url(#pa25a9ef65b)" style="fill: #ffa600"/>
   </g>
   <g id="patch_58">
    <path d="M 567.818228 184.655076 
L 555.036539 184.655076 
L 553.018377 185.349564 
L 544.796238 185.349564 
L 556.538268 181.537232 
L 566.289318 181.537232 
L 578.031348 185.349564 
L 569.816004 185.349564 
L 567.818228 184.655076 
z
M 557.075086 183.947515 
L 565.759296 183.947515 
L 561.423986 182.431079 
L 557.075086 183.947515 
z
" clip-path="url(#pa25a9ef65b)" style="fill: #008000"/>
   </g>
   <g id="patch_59">
    <path d="M 613.015674 192.166225 
Q 610.235614 192.202794 607.229466 192.22129 
Q 604.223317 192.24 600.949211 192.24 
Q 591.185507 192.24 585.483036 192.101379 
Q 579.780564 191.962759 579.780564 191.7257 
Q 579.780564 191.487791 585.483036 191.349383 
Q 591.185507 191.210762 600.949211 191.210762 
Q 604.223317 191.210762 607.229466 191.229472 
Q 610.235614 191.247969 613.015674 191.284538 
L 613.015674 191.489705 
Q 610.210493 191.44123 607.48905 191.418693 
Q 604.767606 191.396157 601.761457 191.396157 
Q 596.368811 191.396157 593.278926 191.483964 
Q 590.197414 191.571559 590.197414 191.7257 
Q 590.197414 191.879203 593.278926 191.967011 
Q 596.368811 192.054605 601.761457 192.054605 
Q 604.767606 192.054605 607.48905 192.032069 
Q 610.210493 192.00932 613.015674 191.960845 
L 613.015674 192.166225 
z
" clip-path="url(#pa25a9ef65b)" style="fill: #0000ff"/>
   </g>
   <g id="patch_60">
    <path d="M 579.780564 189.132106 
L 613.015674 189.132106 
L 613.015674 189.537502 
L 601.058764 189.537502 
L 601.058764 191.210762 
L 591.760662 191.210762 
L 591.760662 189.537502 
L 579.780564 189.537502 
L 579.780564 189.132106 
z
" clip-path="url(#pa25a9ef65b)" style="fill: #ff0000"/>
   </g>
   <g id="patch_61">
    <path d="M 613.015674 188.938557 
Q 609.663859 189.035332 606.058795 189.08394 
Q 602.453732 189.132106 598.610317 189.132106 
Q 589.925392 189.132106 584.852978 188.843992 
Q 579.780564 188.555879 579.780564 188.063169 
Q 579.780564 187.564715 584.94236 187.27881 
Q 590.111604 186.992906 599.101917 186.992906 
Q 602.565459 186.992906 605.738511 187.031793 
Q 608.919011 187.070237 611.734536 187.146243 
L 611.734536 187.572669 
Q 608.829629 187.47501 605.954517 187.426844 
Q 603.079404 187.378236 600.189395 187.378236 
Q 594.841387 187.378236 591.943929 187.555877 
Q 589.046471 187.733075 589.046471 188.063169 
Q 589.046471 188.390169 591.83965 188.568693 
Q 594.63283 188.746776 599.77228 188.746776 
Q 601.172594 188.746776 602.371799 188.736613 
Q 603.571004 188.726007 604.524409 188.703912 
L 604.524409 188.303558 
L 599.049777 188.303558 
L 599.049777 187.946951 
L 613.015674 187.946951 
L 613.015674 188.938557 
z
" clip-path="url(#pa25a9ef65b)" style="fill: #ffa600"/>
   </g>
   <g id="patch_62">
    <path d="M 602.802554 186.555418 
L 590.020865 186.555418 
L 588.002703 186.992906 
L 579.780564 186.992906 
L 591.522594 184.591352 
L 601.273644 184.591352 
L 613.015674 186.992906 
L 604.80033 186.992906 
L 602.802554 186.555418 
z
M 592.059412 186.109694 
L 600.743622 186.109694 
L 596.408312 185.154425 
L 592.059412 186.109694 
z
" clip-path="url(#pa25a9ef65b)" style="fill: #008000"/>
   </g>
   <g id="patch_63">
    <path d="M 648 192.078109 
Q 644.648185 192.159055 641.043121 192.199712 
Q 637.438058 192.24 633.594643 192.24 
Q 624.909718 192.24 619.837304 191.999012 
Q 614.76489 191.758023 614.76489 191.345904 
Q 614.76489 190.928979 619.926686 190.689839 
Q 625.09593 190.450698 634.086243 190.450698 
Q 637.549785 190.450698 640.722837 190.483224 
Q 643.903337 190.515381 646.718862 190.578954 
L 646.718862 190.935632 
Q 643.813955 190.853947 640.938843 190.813659 
Q 638.06373 190.773002 635.173721 190.773002 
Q 629.825713 190.773002 626.928255 190.921587 
Q 624.030797 191.069802 624.030797 191.345904 
Q 624.030797 191.619418 626.823976 191.768742 
Q 629.617156 191.917697 634.756606 191.917697 
Q 636.15692 191.917697 637.356125 191.909195 
Q 638.55533 191.900325 639.508735 191.881844 
L 639.508735 191.546974 
L 634.034103 191.546974 
L 634.034103 191.248695 
L 648 191.248695 
L 648 192.078109 
z
" clip-path="url(#pa25a9ef65b)" style="fill: #ffa600"/>
   </g>
   <g id="patch_64">
    <path d="M 648 190.316523 
Q 645.21994 190.38303 642.213792 190.416671 
Q 639.207643 190.450698 635.933537 190.450698 
Q 626.169833 190.450698 620.467362 190.198587 
Q 614.76489 189.946476 614.76489 189.515336 
Q 614.76489 189.082649 620.467362 188.830924 
Q 626.169833 188.578813 635.933537 188.578813 
Q 639.207643 188.578813 642.213792 188.612841 
Q 645.21994 188.646481 648 188.712989 
L 648 189.086129 
Q 645.194819 188.997967 642.473376 188.95698 
Q 639.751932 188.915992 636.745783 188.915992 
Q 631.353137 188.915992 628.263252 189.075688 
Q 625.18174 189.234998 625.18174 189.515336 
Q 625.18174 189.794514 628.263252 189.95421 
Q 631.353137 190.113519 636.745783 190.113519 
Q 639.751932 190.113519 642.473376 190.072532 
Q 645.194819 190.031158 648 189.942996 
L 648 190.316523 
z
" clip-path="url(#pa25a9ef65b)" style="fill: #0000ff"/>
   </g>
   <g id="patch_65">
    <path d="M 637.78688 188.082359 
L 625.005191 188.082359 
L 622.987029 188.578813 
L 614.76489 188.578813 
L 626.50692 185.853569 
L 636.25797 185.853569 
L 648 188.578813 
L 639.784656 188.578813 
L 637.78688 188.082359 
z
M 627.043738 187.576559 
L 635.727948 187.576559 
L 631.392638 186.492536 
L 627.043738 187.576559 
z
" clip-path="url(#pa25a9ef65b)" style="fill: #008000"/>
   </g>
   <g id="patch_66">
    <path d="M 614.76489 181.806995 
L 648 181.806995 
L 648 182.596189 
L 636.04309 182.596189 
L 636.04309 185.853569 
L 626.744988 185.853569 
L 626.744988 182.596189 
L 614.76489 182.596189 
L 614.76489 181.806995 
z
" clip-path="url(#pa25a9ef65b)" style="fill: #ff0000"/>
   </g>
   <g id="matplotlib.axis_1">
    <g id="xtick_1">
     <g id="line2d_2">
      <defs>
       <path id="mb3d4eca134" d="M 0 0 
L 0 3.5 
" style="stroke: #000000; stroke-width: 0.8"/>
      </defs>
      <g>
       <use xlink:href="#mb3d4eca134" x="106.617555" y="192.24" style="stroke: #000000; stroke-width: 0.8"/>
      </g>
     </g>
     <g id="text_1">
      <!-- 0 -->
      <g transform="translate(103.436305 206.838437) scale(0.1 -0.1)">
       <defs>
        <path id="DejaVuSans-30" d="M 2034 4250 
Q 1547 4250 1301 3770 
Q 1056 3291 1056 2328 
Q 1056 1369 1301 889 
Q 1547 409 2034 409 
Q 2525 409 2770 889 
Q 3016 1369 3016 2328 
Q 3016 3291 2770 3770 
Q 2525 4250 2034 4250 
z
M 2034 4750 
Q 2819 4750 3233 4129 
Q 3647 3509 3647 2328 
Q 3647 1150 3233 529 
Q 2819 -91 2034 -91 
Q 1250 -91 836 529 
Q 422 1150 422 2328 
Q 422 3509 836 4129 
Q 1250 4750 2034 4750 
z
" transform="scale(0.015625)"/>
       </defs>
       <use xlink:href="#DejaVuSans-30"/>
      </g>
     </g>
    </g>
    <g id="xtick_2">
     <g id="line2d_3">
      <g>
       <use xlink:href="#mb3d4eca134" x="176.586207" y="192.24" style="stroke: #000000; stroke-width: 0.8"/>
      </g>
     </g>
     <g id="text_2">
      <!-- 2 -->
      <g transform="translate(173.404957 206.838437) scale(0.1 -0.1)">
       <defs>
        <path id="DejaVuSans-32" d="M 1228 531 
L 3431 531 
L 3431 0 
L 469 0 
L 469 531 
Q 828 903 1448 1529 
Q 2069 2156 2228 2338 
Q 2531 2678 2651 2914 
Q 2772 3150 2772 3378 
Q 2772 3750 2511 3984 
Q 2250 4219 1831 4219 
Q 1534 4219 1204 4116 
Q 875 4013 500 3803 
L 500 4441 
Q 881 4594 1212 4672 
Q 1544 4750 1819 4750 
Q 2544 4750 2975 4387 
Q 3406 4025 3406 3419 
Q 3406 3131 3298 2873 
Q 3191 2616 2906 2266 
Q 2828 2175 2409 1742 
Q 1991 1309 1228 531 
z
" transform="scale(0.015625)"/>
       </defs>
       <use xlink:href="#DejaVuSans-32"/>
      </g>
     </g>
    </g>
    <g id="xtick_3">
     <g id="line2d_4">
      <g>
       <use xlink:href="#mb3d4eca134" x="246.554859" y="192.24" style="stroke: #000000; stroke-width: 0.8"/>
      </g>
     </g>
     <g id="text_3">
      <!-- 4 -->
      <g transform="translate(243.373609 206.838437) scale(0.1 -0.1)">
       <defs>
        <path id="DejaVuSans-34" d="M 2419 4116 
L 825 1625 
L 2419 1625 
L 2419 4116 
z
M 2253 4666 
L 3047 4666 
L 3047 1625 
L 3713 1625 
L 3713 1100 
L 3047 1100 
L 3047 0 
L 2419 0 
L 2419 1100 
L 313 1100 
L 313 1709 
L 2253 4666 
z
" transform="scale(0.015625)"/>
       </defs>
       <use xlink:href="#DejaVuSans-34"/>
      </g>
     </g>
    </g>
    <g id="xtick_4">
     <g id="line2d_5">
      <g>
       <use xlink:href="#mb3d4eca134" x="316.523511" y="192.24" style="stroke: #000000; stroke-width: 0.8"/>
      </g>
     </g>
     <g id="text_4">
      <!-- 6 -->
      <g transform="translate(313.342261 206.838437) scale(0.1 -0.1)">
       <defs>
        <path id="DejaVuSans-36" d="M 2113 2584 
Q 1688 2584 1439 2293 
Q 1191 2003 1191 1497 
Q 1191 994 1439 701 
Q 1688 409 2113 409 
Q 2538 409 2786 701 
Q 3034 994 3034 1497 
Q 3034 2003 2786 2293 
Q 2538 2584 2113 2584 
z
M 3366 4563 
L 3366 3988 
Q 3128 4100 2886 4159 
Q 2644 4219 2406 4219 
Q 1781 4219 1451 3797 
Q 1122 3375 1075 2522 
Q 1259 2794 1537 2939 
Q 1816 3084 2150 3084 
Q 2853 3084 3261 2657 
Q 3669 2231 3669 1497 
Q 3669 778 3244 343 
Q 2819 -91 2113 -91 
Q 1303 -91 875 529 
Q 447 1150 447 2328 
Q 447 3434 972 4092 
Q 1497 4750 2381 4750 
Q 2619 4750 2861 4703 
Q 3103 4656 3366 4563 
z
" transform="scale(0.015625)"/>
       </defs>
       <use xlink:href="#DejaVuSans-36"/>
      </g>
     </g>
    </g>
    <g id="xtick_5">
     <g id="line2d_6">
      <g>
       <use xlink:href="#mb3d4eca134" x="386.492163" y="192.24" style="stroke: #000000; stroke-width: 0.8"/>
      </g>
     </g>
     <g id="text_5">
      <!-- 8 -->
      <g transform="translate(383.310913 206.838437) scale(0.1 -0.1)">
       <defs>
        <path id="DejaVuSans-38" d="M 2034 2216 
Q 1584 2216 1326 1975 
Q 1069 1734 1069 1313 
Q 1069 891 1326 650 
Q 1584 409 2034 409 
Q 2484 409 2743 651 
Q 3003 894 3003 1313 
Q 3003 1734 2745 1975 
Q 2488 2216 2034 2216 
z
M 1403 2484 
Q 997 2584 770 2862 
Q 544 3141 544 3541 
Q 544 4100 942 4425 
Q 1341 4750 2034 4750 
Q 2731 4750 3128 4425 
Q 3525 4100 3525 3541 
Q 3525 3141 3298 2862 
Q 3072 2584 2669 2484 
Q 3125 2378 3379 2068 
Q 3634 1759 3634 1313 
Q 3634 634 3220 271 
Q 2806 -91 2034 -91 
Q 1263 -91 848 271 
Q 434 634 434 1313 
Q 434 1759 690 2068 
Q 947 2378 1403 2484 
z
M 1172 3481 
Q 1172 3119 1398 2916 
Q 1625 2713 2034 2713 
Q 2441 2713 2670 2916 
Q 2900 3119 2900 3481 
Q 2900 3844 2670 4047 
Q 2441 4250 2034 4250 
Q 1625 4250 1398 4047 
Q 1172 3844 1172 3481 
z
" transform="scale(0.015625)"/>
       </defs>
       <use xlink:href="#DejaVuSans-38"/>
      </g>
     </g>
    </g>
    <g id="xtick_6">
     <g id="line2d_7">
      <g>
       <use xlink:href="#mb3d4eca134" x="456.460815" y="192.24" style="stroke: #000000; stroke-width: 0.8"/>
      </g>
     </g>
     <g id="text_6">
      <!-- 10 -->
      <g transform="translate(450.098315 206.838437) scale(0.1 -0.1)">
       <defs>
        <path id="DejaVuSans-31" d="M 794 531 
L 1825 531 
L 1825 4091 
L 703 3866 
L 703 4441 
L 1819 4666 
L 2450 4666 
L 2450 531 
L 3481 531 
L 3481 0 
L 794 0 
L 794 531 
z
" transform="scale(0.015625)"/>
       </defs>
       <use xlink:href="#DejaVuSans-31"/>
       <use xlink:href="#DejaVuSans-30" x="63.623047"/>
      </g>
     </g>
    </g>
    <g id="xtick_7">
     <g id="line2d_8">
      <g>
       <use xlink:href="#mb3d4eca134" x="526.429467" y="192.24" style="stroke: #000000; stroke-width: 0.8"/>
      </g>
     </g>
     <g id="text_7">
      <!-- 12 -->
      <g transform="translate(520.066967 206.838437) scale(0.1 -0.1)">
       <use xlink:href="#DejaVuSans-31"/>
       <use xlink:href="#DejaVuSans-32" x="63.623047"/>
      </g>
     </g>
    </g>
    <g id="xtick_8">
     <g id="line2d_9">
      <g>
       <use xlink:href="#mb3d4eca134" x="596.398119" y="192.24" style="stroke: #000000; stroke-width: 0.8"/>
      </g>
     </g>
     <g id="text_8">
      <!-- 14 -->
      <g transform="translate(590.035619 206.838437) scale(0.1 -0.1)">
       <use xlink:href="#DejaVuSans-31"/>
       <use xlink:href="#DejaVuSans-34" x="63.623047"/>
      </g>
     </g>
    </g>
   </g>
   <g id="matplotlib.axis_2">
    <g id="ytick_1">
     <g id="line2d_10">
      <defs>
       <path id="m238c86c5db" d="M 0 0 
L -3.5 0 
" style="stroke: #000000; stroke-width: 0.8"/>
      </defs>
      <g>
       <use xlink:href="#m238c86c5db" x="90" y="192.24" style="stroke: #000000; stroke-width: 0.8"/>
      </g>
     </g>
     <g id="text_9">
      <!-- 0.0 -->
      <g transform="translate(67.096875 196.039219) scale(0.1 -0.1)">
       <defs>
        <path id="DejaVuSans-2e" d="M 684 794 
L 1344 794 
L 1344 0 
L 684 0 
L 684 794 
z
" transform="scale(0.015625)"/>
       </defs>
       <use xlink:href="#DejaVuSans-30"/>
       <use xlink:href="#DejaVuSans-2e" x="63.623047"/>
       <use xlink:href="#DejaVuSans-30" x="95.410156"/>
      </g>
     </g>
    </g>
    <g id="ytick_2">
     <g id="line2d_11">
      <g>
       <use xlink:href="#m238c86c5db" x="90" y="167.154487" style="stroke: #000000; stroke-width: 0.8"/>
      </g>
     </g>
     <g id="text_10">
      <!-- 0.2 -->
      <g transform="translate(67.096875 170.953706) scale(0.1 -0.1)">
       <use xlink:href="#DejaVuSans-30"/>
       <use xlink:href="#DejaVuSans-2e" x="63.623047"/>
       <use xlink:href="#DejaVuSans-32" x="95.410156"/>
      </g>
     </g>
    </g>
    <g id="ytick_3">
     <g id="line2d_12">
      <g>
       <use xlink:href="#m238c86c5db" x="90" y="142.068975" style="stroke: #000000; stroke-width: 0.8"/>
      </g>
     </g>
     <g id="text_11">
      <!-- 0.4 -->
      <g transform="translate(67.096875 145.868194) scale(0.1 -0.1)">
       <use xlink:href="#DejaVuSans-30"/>
       <use xlink:href="#DejaVuSans-2e" x="63.623047"/>
       <use xlink:href="#DejaVuSans-34" x="95.410156"/>
      </g>
     </g>
    </g>
    <g id="ytick_4">
     <g id="line2d_13">
      <g>
       <use xlink:href="#m238c86c5db" x="90" y="116.983462" style="stroke: #000000; stroke-width: 0.8"/>
      </g>
     </g>
     <g id="text_12">
      <!-- 0.6 -->
      <g transform="translate(67.096875 120.782681) scale(0.1 -0.1)">
       <use xlink:href="#DejaVuSans-30"/>
       <use xlink:href="#DejaVuSans-2e" x="63.623047"/>
       <use xlink:href="#DejaVuSans-36" x="95.410156"/>
      </g>
     </g>
    </g>
    <g id="ytick_5">
     <g id="line2d_14">
      <g>
       <use xlink:href="#m238c86c5db" x="90" y="91.89795" style="stroke: #000000; stroke-width: 0.8"/>
      </g>
     </g>
     <g id="text_13">
      <!-- 0.8 -->
      <g transform="translate(67.096875 95.697169) scale(0.1 -0.1)">
       <use xlink:href="#DejaVuSans-30"/>
       <use xlink:href="#DejaVuSans-2e" x="63.623047"/>
       <use xlink:href="#DejaVuSans-38" x="95.410156"/>
      </g>
     </g>
    </g>
    <g id="ytick_6">
     <g id="line2d_15">
      <g>
       <use xlink:href="#m238c86c5db" x="90" y="66.812437" style="stroke: #000000; stroke-width: 0.8"/>
      </g>
     </g>
     <g id="text_14">
      <!-- 1.0 -->
      <g transform="translate(67.096875 70.611656) scale(0.1 -0.1)">
       <use xlink:href="#DejaVuSans-31"/>
       <use xlink:href="#DejaVuSans-2e" x="63.623047"/>
       <use xlink:href="#DejaVuSans-30" x="95.410156"/>
      </g>
     </g>
    </g>
    <g id="ytick_7">
     <g id="line2d_16">
      <g>
       <use xlink:href="#m238c86c5db" x="90" y="41.726925" style="stroke: #000000; stroke-width: 0.8"/>
      </g>
     </g>
     <g id="text_15">
      <!-- 1.2 -->
      <g transform="translate(67.096875 45.526143) scale(0.1 -0.1)">
       <use xlink:href="#DejaVuSans-31"/>
       <use xlink:href="#DejaVuSans-2e" x="63.623047"/>
       <use xlink:href="#DejaVuSans-32" x="95.410156"/>
      </g>
     </g>
    </g>
   </g>
  </g>
 </g>
 <defs>
  <clipPath id="pa25a9ef65b">
   <rect x="90" y="25.92" width="558" height="166.32"/>
  </clipPath>
 </defs>
</svg>
