<?xml version="1.0" encoding="utf-8" standalone="no"?>
<!DOCTYPE svg PUBLIC "-//W3C//DTD SVG 1.1//EN"
  "http://www.w3.org/Graphics/SVG/1.1/DTD/svg11.dtd">
<svg xmlns:xlink="http://www.w3.org/1999/xlink" width="720pt" height="216pt" viewBox="0 0 720 216" xmlns="http://www.w3.org/2000/svg" version="1.1">
 <metadata>
  <rdf:RDF xmlns:dc="http://purl.org/dc/elements/1.1/" xmlns:cc="http://creativecommons.org/ns#" xmlns:rdf="http://www.w3.org/1999/02/22-rdf-syntax-ns#">
   <cc:Work>
    <dc:type rdf:resource="http://purl.org/dc/dcmitype/StillImage"/>
    <dc:date>2025-12-17T10:22:51.326519</dc:date>
    <dc:format>image/svg+xml</dc:format>
    <dc:creator>
     <cc:Agent>
      <dc:title>Matplotlib v3.8.2, https://matplotlib.org/</dc:title>
     </cc:Agent>
    </dc:creator>
   </cc:Work>
  </rdf:RDF>
 </metadata>
 <defs>
  <style type="text/css">*{stroke-linejoin: round; stroke-linecap: butt}</style>
 </defs>
 <g id="figure_1">
  <g id="patch_1">
   <path d="M 0 216 
L 720 216 
L 720 0 
L 0 0 
z
" style="fill: #ffffff"/>
  </g>
  <g id="axes_1">
   <g id="patch_2">
    <path d="M 90 192.24 
L 648 192.24 
L 648 25.92 
L 90 25.92 
z
" style="fill: #ffffff"/>
   </g>
   <g id="line2d_1">
    <path d="M 90 192.24 
L 648 192.24 
" clip-path="url(#p6989a27d0f)" style="fill: none; stroke: #000000; stroke-width: 0.5; stroke-linecap: square"/>
   </g>
   <g id="patch_3">
    <path d="M 107.699499 191.682716 
Q 106.218967 191.958949 104.618029 192.098672 
Q 103.017092 192.24 101.273453 192.24 
Q 96.073751 192.24 93.036876 191.192885 
Q 90 190.14577 90 188.355075 
Q 90 186.557956 93.036876 185.512447 
Q 96.073751 184.465332 101.273453 184.465332 
Q 103.017092 184.465332 104.618029 184.60666 
Q 106.218967 184.746383 107.699499 185.022616 
L 107.699499 186.57241 
Q 106.205588 186.206241 104.756272 186.036004 
Q 103.306955 185.865768 101.706018 185.865768 
Q 98.834142 185.865768 97.18861 186.529048 
Q 95.547538 187.190722 95.547538 188.355075 
Q 95.547538 189.51461 97.18861 190.17789 
Q 98.834142 190.839564 101.706018 190.839564 
Q 103.306955 190.839564 104.756272 190.669328 
Q 106.205588 190.497485 107.699499 190.131316 
L 107.699499 191.682716 
z
" clip-path="url(#p6989a27d0f)" style="fill: #0000ff"/>
   </g>
   <g id="patch_4">
    <path d="M 90 175.654042 
L 107.699499 175.654042 
L 107.699499 177.372489 
L 101.331796 177.372489 
L 101.331796 184.465332 
L 96.380052 184.465332 
L 96.380052 177.372489 
L 90 177.372489 
L 90 175.654042 
z
" clip-path="url(#p6989a27d0f)" style="fill: #ff0000"/>
   </g>
   <g id="patch_5">
    <path d="M 107.699499 174.76303 
Q 105.914476 175.208536 103.994584 175.432306 
Q 102.074692 175.654042 100.027865 175.654042 
Q 95.402671 175.654042 92.701335 174.327696 
Q 90 173.00135 90 170.733137 
Q 90 168.438477 92.748936 167.122303 
Q 95.501839 165.806129 100.289668 165.806129 
Q 102.134193 165.806129 103.824015 165.985145 
Q 105.517804 166.162127 107.017224 166.512021 
L 107.017224 168.475094 
Q 105.470203 168.02552 103.93905 167.803784 
Q 102.407896 167.580015 100.868809 167.580015 
Q 98.020705 167.580015 96.477652 168.397792 
Q 94.934598 169.213535 94.934598 170.733137 
Q 94.934598 172.238498 96.422118 173.060344 
Q 97.909637 173.880156 100.646673 173.880156 
Q 101.392416 173.880156 102.031058 173.833368 
Q 102.6697 173.784545 103.17744 173.682832 
L 103.17744 171.839781 
L 100.261901 171.839781 
L 100.261901 170.198123 
L 107.699499 170.198123 
L 107.699499 174.76303 
z
" clip-path="url(#p6989a27d0f)" style="fill: #ffa600"/>
   </g>
   <g id="patch_6">
    <path d="M 102.260459 155.608751 
L 95.453516 155.608751 
L 94.378735 165.806129 
L 90 165.806129 
L 96.253268 109.82852 
L 101.446231 109.82852 
L 107.699499 165.806129 
L 103.324383 165.806129 
L 102.260459 155.608751 
z
M 96.539153 145.219421 
L 101.163965 145.219421 
L 98.855178 122.953146 
L 96.539153 145.219421 
z
" clip-path="url(#p6989a27d0f)" style="fill: #008000"/>
   </g>
   <g id="patch_7">
    <path d="M 126.330551 192.007207 
Q 124.850018 192.122597 123.249081 192.180963 
Q 121.648144 192.24 119.904504 192.24 
Q 114.704803 192.24 111.667927 191.802591 
Q 108.631052 191.365183 108.631052 190.61716 
Q 108.631052 189.866454 111.667927 189.429716 
Q 114.704803 188.992307 119.904504 188.992307 
Q 121.648144 188.992307 123.249081 189.051344 
Q 124.850018 189.10971 126.330551 189.2251 
L 126.330551 189.872492 
Q 124.83664 189.719533 123.387324 189.648421 
Q 121.938007 189.577308 120.33707 189.577308 
Q 117.465193 189.577308 115.819662 189.854378 
Q 114.178589 190.130778 114.178589 190.61716 
Q 114.178589 191.10153 115.819662 191.3786 
Q 117.465193 191.654999 120.33707 191.654999 
Q 121.938007 191.654999 123.387324 191.583887 
Q 124.83664 191.512104 126.330551 191.359145 
L 126.330551 192.007207 
z
" clip-path="url(#p6989a27d0f)" style="fill: #0000ff"/>
   </g>
   <g id="patch_8">
    <path d="M 126.330551 188.577472 
Q 124.545527 188.78489 122.625636 188.889072 
Q 120.705744 188.992307 118.658917 188.992307 
Q 114.033723 188.992307 111.332387 188.374789 
Q 108.631052 187.757271 108.631052 186.701239 
Q 108.631052 185.632895 111.379988 185.020112 
Q 114.132891 184.40733 118.92072 184.40733 
Q 120.765244 184.40733 122.455067 184.490676 
Q 124.148856 184.573075 125.648275 184.735978 
L 125.648275 185.649943 
Q 124.101255 185.440631 122.570102 185.337396 
Q 121.038948 185.233213 119.499861 185.233213 
Q 116.651757 185.233213 115.108704 185.613953 
Q 113.56565 185.993745 113.56565 186.701239 
Q 113.56565 187.402104 115.053169 187.784737 
Q 116.540689 188.166424 119.277725 188.166424 
Q 120.023468 188.166424 120.66211 188.144641 
Q 121.300752 188.12191 121.808492 188.074554 
L 121.808492 187.216469 
L 118.892953 187.216469 
L 118.892953 186.452148 
L 126.330551 186.452148 
L 126.330551 188.577472 
z
" clip-path="url(#p6989a27d0f)" style="fill: #ffa600"/>
   </g>
   <g id="patch_9">
    <path d="M 120.89151 182.876056 
L 114.084567 182.876056 
L 113.009787 184.40733 
L 108.631052 184.40733 
L 114.88432 176.001537 
L 120.077283 176.001537 
L 126.330551 184.40733 
L 121.955434 184.40733 
L 120.89151 182.876056 
z
M 115.170204 181.315958 
L 119.795017 181.315958 
L 117.48623 177.972377 
L 115.170204 181.315958 
z
" clip-path="url(#p6989a27d0f)" style="fill: #008000"/>
   </g>
   <g id="patch_10">
    <path d="M 108.631052 161.864523 
L 126.330551 161.864523 
L 126.330551 164.621635 
L 119.962847 164.621635 
L 119.962847 176.001537 
L 115.011104 176.001537 
L 115.011104 164.621635 
L 108.631052 164.621635 
L 108.631052 161.864523 
z
" clip-path="url(#p6989a27d0f)" style="fill: #ff0000"/>
   </g>
   <g id="patch_11">
    <path d="M 127.262104 185.480007 
L 144.961603 185.480007 
L 144.961603 186.798394 
L 138.593899 186.798394 
L 138.593899 192.24 
L 133.642156 192.24 
L 133.642156 186.798394 
L 127.262104 186.798394 
L 127.262104 185.480007 
z
" clip-path="url(#p6989a27d0f)" style="fill: #ff0000"/>
   </g>
   <g id="patch_12">
    <path d="M 144.961603 184.796426 
Q 143.176579 185.138217 141.256687 185.309892 
Q 139.336795 185.480007 137.289969 185.480007 
Q 132.664774 185.480007 129.963439 184.462439 
Q 127.262104 183.444871 127.262104 181.704705 
Q 127.262104 179.94425 130.01104 178.934485 
Q 132.763942 177.924721 137.551772 177.924721 
Q 139.396296 177.924721 141.086118 178.062061 
Q 142.779907 178.197841 144.279327 178.466279 
L 144.279327 179.972342 
Q 142.732307 179.62743 141.201153 179.457315 
Q 139.67 179.28564 138.130913 179.28564 
Q 135.282809 179.28564 133.739755 179.913036 
Q 132.196702 180.538872 132.196702 181.704705 
Q 132.196702 182.859613 133.684221 183.490131 
Q 135.171741 184.119088 137.908777 184.119088 
Q 138.65452 184.119088 139.293162 184.083192 
Q 139.931803 184.045736 140.439543 183.967701 
L 140.439543 182.553719 
L 137.524005 182.553719 
L 137.524005 181.294244 
L 144.961603 181.294244 
L 144.961603 184.796426 
z
" clip-path="url(#p6989a27d0f)" style="fill: #ffa600"/>
   </g>
   <g id="patch_13">
    <path d="M 144.961603 177.240647 
Q 143.48107 177.579727 141.880133 177.751238 
Q 140.279195 177.924721 138.535556 177.924721 
Q 133.335855 177.924721 130.298979 176.639372 
Q 127.262104 175.354023 127.262104 173.155918 
Q 127.262104 170.949928 130.298979 169.66655 
Q 133.335855 168.381201 138.535556 168.381201 
Q 140.279195 168.381201 141.880133 168.554684 
Q 143.48107 168.726195 144.961603 169.065275 
L 144.961603 170.96767 
Q 143.467692 170.518193 142.018375 170.309225 
Q 140.569059 170.100257 138.968121 170.100257 
Q 136.096245 170.100257 134.450713 170.914443 
Q 132.809641 171.726657 132.809641 173.155918 
Q 132.809641 174.579265 134.450713 175.393451 
Q 136.096245 176.205665 138.968121 176.205665 
Q 140.569059 176.205665 142.018375 175.996697 
Q 143.467692 175.785758 144.961603 175.33628 
L 144.961603 177.240647 
z
" clip-path="url(#p6989a27d0f)" style="fill: #0000ff"/>
   </g>
   <g id="patch_14">
    <path d="M 139.522562 161.209756 
L 132.715619 161.209756 
L 131.640839 168.381201 
L 127.262104 168.381201 
L 133.515372 129.014183 
L 138.708335 129.014183 
L 144.961603 168.381201 
L 140.586486 168.381201 
L 139.522562 161.209756 
z
M 133.801256 153.903318 
L 138.426069 153.903318 
L 136.117281 138.244256 
L 133.801256 153.903318 
z
" clip-path="url(#p6989a27d0f)" style="fill: #008000"/>
   </g>
   <g id="patch_15">
    <path d="M 163.592654 192.008124 
Q 162.112122 192.12306 160.511185 192.181196 
Q 158.910247 192.24 157.166608 192.24 
Q 151.966906 192.24 148.930031 191.804314 
Q 145.893155 191.368628 145.893155 190.623552 
Q 145.893155 189.875803 148.930031 189.440785 
Q 151.966906 189.005099 157.166608 189.005099 
Q 158.910247 189.005099 160.511185 189.063904 
Q 162.112122 189.12204 163.592654 189.236975 
L 163.592654 189.881817 
Q 162.098744 189.729461 160.649427 189.658628 
Q 159.200111 189.587796 157.599173 189.587796 
Q 154.727297 189.587796 153.081765 189.863775 
Q 151.440693 190.139085 151.440693 190.623552 
Q 151.440693 191.106014 153.081765 191.381993 
Q 154.727297 191.657304 157.599173 191.657304 
Q 159.200111 191.657304 160.649427 191.586471 
Q 162.098744 191.514971 163.592654 191.362614 
L 163.592654 192.008124 
z
" clip-path="url(#p6989a27d0f)" style="fill: #0000ff"/>
   </g>
   <g id="patch_16">
    <path d="M 163.592654 188.309973 
Q 161.807631 188.657536 159.887739 188.832111 
Q 157.967847 189.005099 155.92102 189.005099 
Q 151.295826 189.005099 148.594491 187.970346 
Q 145.893155 186.935592 145.893155 185.166036 
Q 145.893155 183.375848 148.642091 182.349029 
Q 151.394994 181.322211 156.182824 181.322211 
Q 158.027348 181.322211 159.71717 181.461871 
Q 161.410959 181.599944 162.910379 181.872915 
L 162.910379 183.404415 
Q 161.363358 183.053678 159.832205 182.88069 
Q 158.301052 182.706115 156.761965 182.706115 
Q 153.913861 182.706115 152.370807 183.344107 
Q 150.827753 183.980512 150.827753 185.166036 
Q 150.827753 186.340449 152.315273 186.981616 
Q 153.802792 187.621195 156.539828 187.621195 
Q 157.285572 187.621195 157.924213 187.584693 
Q 158.562855 187.546604 159.070595 187.467252 
L 159.070595 186.029389 
L 156.155057 186.029389 
L 156.155057 184.748643 
L 163.592654 184.748643 
L 163.592654 188.309973 
z
" clip-path="url(#p6989a27d0f)" style="fill: #ffa600"/>
   </g>
   <g id="patch_17">
    <path d="M 158.153614 178.375719 
L 151.346671 178.375719 
L 150.27189 181.322211 
L 145.893155 181.322211 
L 152.146423 165.147708 
L 157.339386 165.147708 
L 163.592654 181.322211 
L 159.217538 181.322211 
L 158.153614 178.375719 
z
M 152.432308 175.373765 
L 157.057121 175.373765 
L 154.748333 168.940015 
L 152.432308 175.373765 
z
" clip-path="url(#p6989a27d0f)" style="fill: #008000"/>
   </g>
   <g id="patch_18">
    <path d="M 145.893155 127.946351 
L 163.592654 127.946351 
L 163.592654 135.201652 
L 157.224951 135.201652 
L 157.224951 165.147708 
L 152.273207 165.147708 
L 152.273207 135.201652 
L 145.893155 135.201652 
L 145.893155 127.946351 
z
" clip-path="url(#p6989a27d0f)" style="fill: #ff0000"/>
   </g>
   <g id="patch_19">
    <path d="M 164.524207 187.307037 
L 182.223706 187.307037 
L 182.223706 188.269102 
L 175.856003 188.269102 
L 175.856003 192.24 
L 170.904259 192.24 
L 170.904259 188.269102 
L 164.524207 188.269102 
L 164.524207 187.307037 
z
" clip-path="url(#p6989a27d0f)" style="fill: #ff0000"/>
   </g>
   <g id="patch_20">
    <path d="M 182.223706 186.857011 
Q 180.743174 187.080078 179.142236 187.192909 
Q 177.541299 187.307037 175.79766 187.307037 
Q 170.597958 187.307037 167.561083 186.461455 
Q 164.524207 185.615873 164.524207 184.169824 
Q 164.524207 182.718587 167.561083 181.874302 
Q 170.597958 181.02872 175.79766 181.02872 
Q 177.541299 181.02872 179.142236 181.142848 
Q 180.743174 181.255678 182.223706 181.478746 
L 182.223706 182.730259 
Q 180.729795 182.434565 179.280479 182.297093 
Q 177.831162 182.159621 176.230225 182.159621 
Q 173.358349 182.159621 171.712817 182.695243 
Q 170.071745 183.229568 170.071745 184.169824 
Q 170.071745 185.106189 171.712817 185.641811 
Q 173.358349 186.176136 176.230225 186.176136 
Q 177.831162 186.176136 179.280479 186.038664 
Q 180.729795 185.899895 182.223706 185.604201 
L 182.223706 186.857011 
z
" clip-path="url(#p6989a27d0f)" style="fill: #0000ff"/>
   </g>
   <g id="patch_21">
    <path d="M 176.784666 178.087741 
L 169.977723 178.087741 
L 168.902942 181.02872 
L 164.524207 181.02872 
L 170.777475 164.884477 
L 175.970438 164.884477 
L 182.223706 181.02872 
L 177.84859 181.02872 
L 176.784666 178.087741 
z
M 171.06336 175.091403 
L 175.688172 175.091403 
L 173.379385 168.66969 
L 171.06336 175.091403 
z
" clip-path="url(#p6989a27d0f)" style="fill: #008000"/>
   </g>
   <g id="patch_22">
    <path d="M 182.223706 160.908167 
Q 180.438683 162.896322 178.518791 163.894939 
Q 176.598899 164.884477 174.552072 164.884477 
Q 169.926878 164.884477 167.225542 158.965403 
Q 164.524207 153.046329 164.524207 142.923986 
Q 164.524207 132.683625 167.273143 126.809942 
Q 170.026046 120.93626 174.813876 120.93626 
Q 176.6584 120.93626 178.348222 121.735153 
Q 180.042011 122.524969 181.541431 124.086442 
L 181.541431 132.847035 
Q 179.99441 130.840723 178.463257 129.851184 
Q 176.932103 128.852568 175.393016 128.852568 
Q 172.544912 128.852568 171.001859 132.502058 
Q 169.458805 136.14247 169.458805 142.923986 
Q 169.458805 149.641954 170.946325 153.309601 
Q 172.433844 156.968169 175.17088 156.968169 
Q 175.916623 156.968169 176.555265 156.759368 
Q 177.193907 156.541488 177.701647 156.087571 
L 177.701647 147.8626 
L 174.786108 147.8626 
L 174.786108 140.536384 
L 182.223706 140.536384 
L 182.223706 160.908167 
z
" clip-path="url(#p6989a27d0f)" style="fill: #ffa600"/>
   </g>
   <g id="patch_23">
    <path d="M 183.155259 188.945603 
L 200.854758 188.945603 
L 200.854758 189.588102 
L 194.487054 189.588102 
L 194.487054 192.24 
L 189.535311 192.24 
L 189.535311 189.588102 
L 183.155259 189.588102 
L 183.155259 188.945603 
z
" clip-path="url(#p6989a27d0f)" style="fill: #ff0000"/>
   </g>
   <g id="patch_24">
    <path d="M 200.854758 188.591392 
Q 199.374225 188.766966 197.773288 188.855774 
Q 196.172351 188.945603 194.428711 188.945603 
Q 189.22901 188.945603 186.192134 188.280054 
Q 183.155259 187.614506 183.155259 186.476336 
Q 183.155259 185.334084 186.192134 184.669556 
Q 189.22901 184.004007 194.428711 184.004007 
Q 196.172351 184.004007 197.773288 184.093836 
Q 199.374225 184.182644 200.854758 184.358218 
L 200.854758 185.343271 
Q 199.360847 185.110533 197.911531 185.00233 
Q 196.462214 184.894128 194.861277 184.894128 
Q 191.9894 184.894128 190.343869 185.31571 
Q 188.702796 185.736271 188.702796 186.476336 
Q 188.702796 187.213339 190.343869 187.634922 
Q 191.9894 188.055483 194.861277 188.055483 
Q 196.462214 188.055483 197.911531 187.94728 
Q 199.360847 187.838057 200.854758 187.605319 
L 200.854758 188.591392 
z
" clip-path="url(#p6989a27d0f)" style="fill: #0000ff"/>
   </g>
   <g id="patch_25">
    <path d="M 195.415717 181.860662 
L 188.608774 181.860662 
L 187.533994 184.004007 
L 183.155259 184.004007 
L 189.408527 172.238304 
L 194.60149 172.238304 
L 200.854758 184.004007 
L 196.479641 184.004007 
L 195.415717 181.860662 
z
M 189.694411 179.676972 
L 194.319224 179.676972 
L 192.010437 174.996915 
L 189.694411 179.676972 
z
" clip-path="url(#p6989a27d0f)" style="fill: #008000"/>
   </g>
   <g id="patch_26">
    <path d="M 200.854758 170.662803 
Q 199.069734 171.450553 197.149843 171.846227 
Q 195.229951 172.238304 193.183124 172.238304 
Q 188.55793 172.238304 185.856594 169.893038 
Q 183.155259 167.547772 183.155259 163.537079 
Q 183.155259 159.479624 185.904195 157.152343 
Q 188.657098 154.825062 193.444927 154.825062 
Q 195.289451 154.825062 196.979274 155.141601 
Q 198.673063 155.454543 200.172482 156.073233 
L 200.172482 159.544371 
Q 198.625462 158.749426 197.094309 158.35735 
Q 195.563155 157.961676 194.024068 157.961676 
Q 191.175964 157.961676 189.632911 159.407684 
Q 188.089857 160.850094 188.089857 163.537079 
Q 188.089857 166.198884 189.577376 167.652086 
Q 191.064896 169.10169 193.801932 169.10169 
Q 194.547675 169.10169 195.186317 169.018958 
Q 195.824959 168.93263 196.332699 168.752778 
L 196.332699 165.493865 
L 193.41716 165.493865 
L 193.41716 162.591059 
L 200.854758 162.591059 
L 200.854758 170.662803 
z
" clip-path="url(#p6989a27d0f)" style="fill: #ffa600"/>
   </g>
   <g id="patch_27">
    <path d="M 219.48581 191.716098 
Q 217.700786 191.978049 215.780894 192.109622 
Q 213.861002 192.24 211.814176 192.24 
Q 207.188981 192.24 204.487646 191.460127 
Q 201.786311 190.680254 201.786311 189.346576 
Q 201.786311 187.997348 204.535247 187.223455 
Q 207.288149 186.449563 212.075979 186.449563 
Q 213.920503 186.449563 215.610325 186.554822 
Q 217.304114 186.658885 218.803534 186.864618 
L 218.803534 188.018878 
Q 217.256514 187.754534 215.72536 187.624157 
Q 214.194207 187.492583 212.65512 187.492583 
Q 209.807016 187.492583 208.263962 187.973425 
Q 206.720909 188.453071 206.720909 189.346576 
Q 206.720909 190.231708 208.208428 190.714942 
Q 209.695948 191.19698 212.432984 191.19698 
Q 213.178727 191.19698 213.817369 191.169469 
Q 214.45601 191.140762 214.96375 191.080956 
L 214.96375 189.997267 
L 212.048212 189.997267 
L 212.048212 189.031995 
L 219.48581 189.031995 
L 219.48581 191.716098 
z
" clip-path="url(#p6989a27d0f)" style="fill: #ffa600"/>
   </g>
   <g id="patch_28">
    <path d="M 219.48581 185.671335 
Q 218.005277 186.057085 216.40434 186.252203 
Q 214.803402 186.449563 213.059763 186.449563 
Q 207.860062 186.449563 204.823186 184.987301 
Q 201.786311 183.525039 201.786311 181.024392 
Q 201.786311 178.514774 204.823186 177.054755 
Q 207.860062 175.592494 213.059763 175.592494 
Q 214.803402 175.592494 216.40434 175.789854 
Q 218.005277 175.984972 219.48581 176.370722 
L 219.48581 178.534959 
Q 217.991899 178.023616 216.542582 177.785886 
Q 215.093266 177.548157 213.492328 177.548157 
Q 210.620452 177.548157 208.97492 178.474405 
Q 207.333848 179.398411 207.333848 181.024392 
Q 207.333848 182.643646 208.97492 183.569894 
Q 210.620452 184.4939 213.492328 184.4939 
Q 215.093266 184.4939 216.542582 184.25617 
Q 217.991899 184.016198 219.48581 183.504855 
L 219.48581 185.671335 
z
" clip-path="url(#p6989a27d0f)" style="fill: #0000ff"/>
   </g>
   <g id="patch_29">
    <path d="M 214.046769 173.482819 
L 207.239826 173.482819 
L 206.165046 175.592494 
L 201.786311 175.592494 
L 208.039579 164.01162 
L 213.232542 164.01162 
L 219.48581 175.592494 
L 215.110693 175.592494 
L 214.046769 173.482819 
z
M 208.325463 171.333432 
L 212.950276 171.333432 
L 210.641488 166.726895 
L 208.325463 171.333432 
z
" clip-path="url(#p6989a27d0f)" style="fill: #008000"/>
   </g>
   <g id="patch_30">
    <path d="M 201.786311 77.155065 
L 219.48581 77.155065 
L 219.48581 94.094513 
L 213.118106 94.094513 
L 213.118106 164.01162 
L 208.166363 164.01162 
L 208.166363 94.094513 
L 201.786311 94.094513 
L 201.786311 77.155065 
z
" clip-path="url(#p6989a27d0f)" style="fill: #ff0000"/>
   </g>
   <g id="patch_31">
    <path d="M 238.116861 192.085685 
Q 236.636329 192.162176 235.035392 192.200865 
Q 233.434454 192.24 231.690815 192.24 
Q 226.491113 192.24 223.454238 191.950049 
Q 220.417362 191.660098 220.417362 191.164245 
Q 220.417362 190.666615 223.454238 190.377108 
Q 226.491113 190.087157 231.690815 190.087157 
Q 233.434454 190.087157 235.035392 190.126291 
Q 236.636329 190.164981 238.116861 190.241471 
L 238.116861 190.670617 
Q 236.622951 190.569223 235.173634 190.522084 
Q 233.724318 190.474944 232.12338 190.474944 
Q 229.251504 190.474944 227.605972 190.65861 
Q 225.9649 190.84183 225.9649 191.164245 
Q 225.9649 191.485326 227.605972 191.668992 
Q 229.251504 191.852213 232.12338 191.852213 
Q 233.724318 191.852213 235.173634 191.805073 
Q 236.622951 191.757489 238.116861 191.656095 
L 238.116861 192.085685 
z
" clip-path="url(#p6989a27d0f)" style="fill: #0000ff"/>
   </g>
   <g id="patch_32">
    <path d="M 220.417362 184.125437 
L 238.116861 184.125437 
L 238.116861 185.288139 
L 231.749158 185.288139 
L 231.749158 190.087157 
L 226.797414 190.087157 
L 226.797414 185.288139 
L 220.417362 185.288139 
L 220.417362 184.125437 
z
" clip-path="url(#p6989a27d0f)" style="fill: #ff0000"/>
   </g>
   <g id="patch_33">
    <path d="M 232.677821 182.858391 
L 225.870878 182.858391 
L 224.796097 184.125437 
L 220.417362 184.125437 
L 226.67063 177.170098 
L 231.863593 177.170098 
L 238.116861 184.125437 
L 233.741745 184.125437 
L 232.677821 182.858391 
z
M 226.956515 181.567494 
L 231.581328 181.567494 
L 229.27254 178.800861 
L 226.956515 181.567494 
z
" clip-path="url(#p6989a27d0f)" style="fill: #008000"/>
   </g>
   <g id="patch_34">
    <path d="M 238.116861 176.151232 
Q 236.331838 176.660665 234.411946 176.916545 
Q 232.492054 177.170098 230.445227 177.170098 
Q 225.820033 177.170098 223.118698 175.65343 
Q 220.417362 174.136762 220.417362 171.543074 
Q 220.417362 168.919146 223.166298 167.414109 
Q 225.919201 165.909072 230.707031 165.909072 
Q 232.551555 165.909072 234.241377 166.113776 
Q 235.935166 166.316153 237.434586 166.716256 
L 237.434586 168.961017 
Q 235.887565 168.446932 234.356412 168.193378 
Q 232.825259 167.937499 231.286172 167.937499 
Q 228.438068 167.937499 226.895014 168.872622 
Q 225.35196 169.80542 225.35196 171.543074 
Q 225.35196 173.264446 226.83948 174.204221 
Q 228.327 175.141671 231.064035 175.141671 
Q 231.809779 175.141671 232.44842 175.088169 
Q 233.087062 175.032341 233.594802 174.916032 
L 233.594802 172.808515 
L 230.679264 172.808515 
L 230.679264 170.93129 
L 238.116861 170.93129 
L 238.116861 176.151232 
z
" clip-path="url(#p6989a27d0f)" style="fill: #ffa600"/>
   </g>
   <g id="patch_35">
    <path d="M 251.308873 191.848463 
L 244.50193 191.848463 
L 243.427149 192.24 
L 239.048414 192.24 
L 245.301682 190.090694 
L 250.494645 190.090694 
L 256.747913 192.24 
L 252.372797 192.24 
L 251.308873 191.848463 
z
M 245.587567 191.449556 
L 250.212379 191.449556 
L 247.903592 190.594624 
L 245.587567 191.449556 
z
" clip-path="url(#p6989a27d0f)" style="fill: #008000"/>
   </g>
   <g id="patch_36">
    <path d="M 256.747913 189.808248 
Q 255.267381 189.94825 253.666443 190.019065 
Q 252.065506 190.090694 250.321867 190.090694 
Q 245.122165 190.090694 242.08529 189.55999 
Q 239.048414 189.029286 239.048414 188.121717 
Q 239.048414 187.210892 242.08529 186.681002 
Q 245.122165 186.150299 250.321867 186.150299 
Q 252.065506 186.150299 253.666443 186.221927 
Q 255.267381 186.292742 256.747913 186.432744 
L 256.747913 187.218218 
Q 255.254002 187.032634 253.804686 186.946354 
Q 252.355369 186.860074 250.754432 186.860074 
Q 247.882556 186.860074 246.237024 187.196241 
Q 244.595952 187.531594 244.595952 188.121717 
Q 244.595952 188.709398 246.237024 189.045565 
Q 247.882556 189.380918 250.754432 189.380918 
Q 252.355369 189.380918 253.804686 189.294638 
Q 255.254002 189.207544 256.747913 189.02196 
L 256.747913 189.808248 
z
" clip-path="url(#p6989a27d0f)" style="fill: #0000ff"/>
   </g>
   <g id="patch_37">
    <path d="M 239.048414 181.015844 
L 256.747913 181.015844 
L 256.747913 182.017206 
L 250.38021 182.017206 
L 250.38021 186.150299 
L 245.428466 186.150299 
L 245.428466 182.017206 
L 239.048414 182.017206 
L 239.048414 181.015844 
z
" clip-path="url(#p6989a27d0f)" style="fill: #ff0000"/>
   </g>
   <g id="patch_38">
    <path d="M 256.747913 180.313616 
Q 254.96289 180.66473 253.042998 180.841089 
Q 251.123106 181.015844 249.076279 181.015844 
Q 244.451085 181.015844 241.74975 179.970519 
Q 239.048414 178.925193 239.048414 177.137557 
Q 239.048414 175.329079 241.79735 174.29177 
Q 244.550253 173.25446 249.338083 173.25446 
Q 251.182607 173.25446 252.872429 173.395547 
Q 254.566218 173.535031 256.065638 173.810792 
L 256.065638 175.357938 
Q 254.518617 175.003617 252.987464 174.828862 
Q 251.45631 174.652503 249.917223 174.652503 
Q 247.069119 174.652503 245.526066 175.297014 
Q 243.983012 175.939922 243.983012 177.137557 
Q 243.983012 178.32397 245.470532 178.971687 
Q 246.958051 179.617801 249.695087 179.617801 
Q 250.44083 179.617801 251.079472 179.580926 
Q 251.718114 179.542448 252.225854 179.462285 
L 252.225854 178.009731 
L 249.310315 178.009731 
L 249.310315 176.7159 
L 256.747913 176.7159 
L 256.747913 180.313616 
z
" clip-path="url(#p6989a27d0f)" style="fill: #ffa600"/>
   </g>
   <g id="patch_39">
    <path d="M 257.679466 187.144971 
L 275.378965 187.144971 
L 275.378965 188.138644 
L 269.011261 188.138644 
L 269.011261 192.24 
L 264.059518 192.24 
L 264.059518 188.138644 
L 257.679466 188.138644 
L 257.679466 187.144971 
z
" clip-path="url(#p6989a27d0f)" style="fill: #ff0000"/>
   </g>
   <g id="patch_40">
    <path d="M 275.378965 186.487596 
Q 273.898432 186.813442 272.297495 186.978259 
Q 270.696558 187.144971 268.952919 187.144971 
Q 263.753217 187.144971 260.716341 185.909787 
Q 257.679466 184.674603 257.679466 182.562287 
Q 257.679466 180.442393 260.716341 179.209103 
Q 263.753217 177.973919 268.952919 177.973919 
Q 270.696558 177.973919 272.297495 178.140631 
Q 273.898432 178.305449 275.378965 178.631295 
L 275.378965 180.459443 
Q 273.885054 180.027508 272.435738 179.826695 
Q 270.986421 179.625883 269.385484 179.625883 
Q 266.513607 179.625883 264.868076 180.408293 
Q 263.227003 181.188808 263.227003 182.562287 
Q 263.227003 183.930083 264.868076 184.712492 
Q 266.513607 185.493007 269.385484 185.493007 
Q 270.986421 185.493007 272.435738 185.292195 
Q 273.885054 185.089489 275.378965 184.657553 
L 275.378965 186.487596 
z
" clip-path="url(#p6989a27d0f)" style="fill: #0000ff"/>
   </g>
   <g id="patch_41">
    <path d="M 275.378965 177.051952 
Q 273.593941 177.512936 271.67405 177.74448 
Q 269.754158 177.973919 267.707331 177.973919 
Q 263.082137 177.973919 260.380801 176.601493 
Q 257.679466 175.229066 257.679466 172.882048 
Q 257.679466 170.507666 260.428402 169.145764 
Q 263.181305 167.783862 267.969134 167.783862 
Q 269.813659 167.783862 271.503481 167.969097 
Q 273.19727 168.152228 274.696689 168.514279 
L 274.696689 170.545555 
Q 273.149669 170.080361 271.618516 169.850922 
Q 270.087362 169.619377 268.548275 169.619377 
Q 265.700171 169.619377 264.157118 170.465567 
Q 262.614064 171.309651 262.614064 172.882048 
Q 262.614064 174.43971 264.101583 175.29011 
Q 265.589103 176.138404 268.326139 176.138404 
Q 269.071882 176.138404 269.710524 176.08999 
Q 270.349166 176.039471 270.856906 175.934224 
L 270.856906 174.02714 
L 267.941367 174.02714 
L 267.941367 172.328447 
L 275.378965 172.328447 
L 275.378965 177.051952 
z
" clip-path="url(#p6989a27d0f)" style="fill: #ffa600"/>
   </g>
   <g id="patch_42">
    <path d="M 269.939924 142.723658 
L 263.132981 142.723658 
L 262.058201 167.783862 
L 257.679466 167.783862 
L 263.932734 30.218086 
L 269.125697 30.218086 
L 275.378965 167.783862 
L 271.003849 167.783862 
L 269.939924 142.723658 
z
M 264.218618 117.191733 
L 268.843431 117.191733 
L 266.534644 62.472042 
L 264.218618 117.191733 
z
" clip-path="url(#p6989a27d0f)" style="fill: #008000"/>
   </g>
   <g id="patch_43">
    <path d="M 294.010017 191.746086 
Q 292.529484 191.990908 290.928547 192.114742 
Q 289.32761 192.24 287.58397 192.24 
Q 282.384269 192.24 279.347393 191.311955 
Q 276.310518 190.383909 276.310518 188.796837 
Q 276.310518 187.204072 279.347393 186.27745 
Q 282.384269 185.349405 287.58397 185.349405 
Q 289.32761 185.349405 290.928547 185.474662 
Q 292.529484 185.598497 294.010017 185.843319 
L 294.010017 187.216883 
Q 292.516106 186.892352 291.066789 186.741473 
Q 289.617473 186.590594 288.016535 186.590594 
Q 285.144659 186.590594 283.499127 187.178451 
Q 281.858055 187.764885 281.858055 188.796837 
Q 281.858055 189.82452 283.499127 190.412377 
Q 285.144659 190.99881 288.016535 190.99881 
Q 289.617473 190.99881 291.066789 190.847932 
Q 292.516106 190.69563 294.010017 190.371099 
L 294.010017 191.746086 
z
" clip-path="url(#p6989a27d0f)" style="fill: #0000ff"/>
   </g>
   <g id="patch_44">
    <path d="M 294.010017 184.503305 
Q 292.224993 184.926355 290.305101 185.138846 
Q 288.385209 185.349405 286.338383 185.349405 
Q 281.713188 185.349405 279.011853 184.089915 
Q 276.310518 182.830424 276.310518 180.676541 
Q 276.310518 178.497546 279.059454 177.247714 
Q 281.812356 175.997883 286.600186 175.997883 
Q 288.44471 175.997883 290.134532 176.167875 
Q 291.828321 176.335936 293.327741 176.668194 
L 293.327741 178.532317 
Q 291.780721 178.105404 290.249567 177.894845 
Q 288.718414 177.682354 287.179327 177.682354 
Q 284.331223 177.682354 282.788169 178.458911 
Q 281.245116 179.233536 281.245116 180.676541 
Q 281.245116 182.106024 282.732635 182.886445 
Q 284.220155 183.664933 286.957191 183.664933 
Q 287.702934 183.664933 288.341576 183.620503 
Q 288.980217 183.574142 289.487957 183.477555 
L 289.487957 181.727404 
L 286.572419 181.727404 
L 286.572419 180.168495 
L 294.010017 180.168495 
L 294.010017 184.503305 
z
" clip-path="url(#p6989a27d0f)" style="fill: #ffa600"/>
   </g>
   <g id="patch_45">
    <path d="M 288.570976 174.204666 
L 281.764033 174.204666 
L 280.689253 175.997883 
L 276.310518 175.997883 
L 282.563786 166.154175 
L 287.756749 166.154175 
L 294.010017 175.997883 
L 289.6349 175.997883 
L 288.570976 174.204666 
z
M 282.84967 172.377694 
L 287.474483 172.377694 
L 285.165695 168.462151 
L 282.84967 172.377694 
z
" clip-path="url(#p6989a27d0f)" style="fill: #008000"/>
   </g>
   <g id="patch_46">
    <path d="M 276.310518 113.982526 
L 294.010017 113.982526 
L 294.010017 124.157451 
L 287.642313 124.157451 
L 287.642313 166.154175 
L 282.69057 166.154175 
L 282.69057 124.157451 
L 276.310518 124.157451 
L 276.310518 113.982526 
z
" clip-path="url(#p6989a27d0f)" style="fill: #ff0000"/>
   </g>
   <g id="patch_47">
    <path d="M 294.941569 189.918205 
L 312.641068 189.918205 
L 312.641068 190.37102 
L 306.273365 190.37102 
L 306.273365 192.24 
L 301.321621 192.24 
L 301.321621 190.37102 
L 294.941569 190.37102 
L 294.941569 189.918205 
z
" clip-path="url(#p6989a27d0f)" style="fill: #ff0000"/>
   </g>
   <g id="patch_48">
    <path d="M 312.641068 189.455914 
Q 311.160536 189.685061 309.559599 189.800967 
Q 307.958661 189.918205 306.215022 189.918205 
Q 301.01532 189.918205 297.978445 189.049577 
Q 294.941569 188.180949 294.941569 186.695488 
Q 294.941569 185.204698 297.978445 184.337402 
Q 301.01532 183.468774 306.215022 183.468774 
Q 307.958661 183.468774 309.559599 183.586012 
Q 311.160536 183.701918 312.641068 183.931065 
L 312.641068 185.216688 
Q 311.147158 184.912935 309.697841 184.771716 
Q 308.248525 184.630498 306.647587 184.630498 
Q 303.775711 184.630498 302.130179 185.180718 
Q 300.489107 185.729605 300.489107 186.695488 
Q 300.489107 187.657374 302.130179 188.207594 
Q 303.775711 188.756481 306.647587 188.756481 
Q 308.248525 188.756481 309.697841 188.615263 
Q 311.147158 188.472712 312.641068 188.168958 
L 312.641068 189.455914 
z
" clip-path="url(#p6989a27d0f)" style="fill: #0000ff"/>
   </g>
   <g id="patch_49">
    <path d="M 307.202028 180.83703 
L 300.395085 180.83703 
L 299.320305 183.468774 
L 294.941569 183.468774 
L 301.194837 169.022049 
L 306.3878 169.022049 
L 312.641068 183.468774 
L 308.265952 183.468774 
L 307.202028 180.83703 
z
M 301.480722 178.155748 
L 306.105535 178.155748 
L 303.796747 172.409258 
L 301.480722 178.155748 
z
" clip-path="url(#p6989a27d0f)" style="fill: #008000"/>
   </g>
   <g id="patch_50">
    <path d="M 312.641068 167.411517 
Q 310.856045 168.216783 308.936153 168.621254 
Q 307.016261 169.022049 304.969434 169.022049 
Q 300.34424 169.022049 297.642905 166.624635 
Q 294.941569 164.227222 294.941569 160.12735 
Q 294.941569 155.979677 297.690505 153.600649 
Q 300.443408 151.22162 305.231238 151.22162 
Q 307.075762 151.22162 308.765584 151.545197 
Q 310.459373 151.865098 311.958793 152.497544 
L 311.958793 156.045864 
Q 310.411772 155.233243 308.880619 154.832449 
Q 307.349466 154.427977 305.810379 154.427977 
Q 302.962275 154.427977 301.419221 155.906137 
Q 299.876167 157.38062 299.876167 160.12735 
Q 299.876167 162.848341 301.363687 164.333855 
Q 302.851207 165.815692 305.588242 165.815692 
Q 306.333986 165.815692 306.972627 165.731121 
Q 307.611269 165.642872 308.119009 165.459022 
L 308.119009 162.127646 
L 305.203471 162.127646 
L 305.203471 159.160295 
L 312.641068 159.160295 
L 312.641068 167.411517 
z
" clip-path="url(#p6989a27d0f)" style="fill: #ffa600"/>
   </g>
   <g id="patch_51">
    <path d="M 325.83308 191.762113 
L 319.026137 191.762113 
L 317.951356 192.24 
L 313.572621 192.24 
L 319.825889 189.616679 
L 325.018852 189.616679 
L 331.27212 192.24 
L 326.897004 192.24 
L 325.83308 191.762113 
z
M 320.111774 191.27523 
L 324.736586 191.27523 
L 322.427799 190.231748 
L 320.111774 191.27523 
z
" clip-path="url(#p6989a27d0f)" style="fill: #008000"/>
   </g>
   <g id="patch_52">
    <path d="M 331.27212 188.629479 
Q 329.791588 189.118812 328.19065 189.366323 
Q 326.589713 189.616679 324.846074 189.616679 
Q 319.646372 189.616679 316.609497 187.761767 
Q 313.572621 185.906856 313.572621 182.734729 
Q 313.572621 179.551223 316.609497 177.699156 
Q 319.646372 175.844244 324.846074 175.844244 
Q 326.589713 175.844244 328.19065 176.094601 
Q 329.791588 176.342112 331.27212 176.831444 
L 331.27212 179.576827 
Q 329.778209 178.928177 328.328893 178.626612 
Q 326.879576 178.325047 325.278639 178.325047 
Q 322.406763 178.325047 320.761231 179.500014 
Q 319.120159 180.672136 319.120159 182.734729 
Q 319.120159 184.788788 320.761231 185.963755 
Q 322.406763 187.135877 325.278639 187.135877 
Q 326.879576 187.135877 328.328893 186.834312 
Q 329.778209 186.529901 331.27212 185.881251 
L 331.27212 188.629479 
z
" clip-path="url(#p6989a27d0f)" style="fill: #0000ff"/>
   </g>
   <g id="patch_53">
    <path d="M 331.27212 174.598153 
Q 329.487097 175.221199 327.567205 175.534144 
Q 325.647313 175.844244 323.600486 175.844244 
Q 318.975292 175.844244 316.273957 173.989333 
Q 313.572621 172.134421 313.572621 168.962295 
Q 313.572621 165.753184 316.321557 163.912497 
Q 319.07446 162.07181 323.86229 162.07181 
Q 325.706814 162.07181 327.396636 162.322166 
Q 329.090425 162.569677 330.589845 163.05901 
L 330.589845 165.804393 
Q 329.042824 165.175657 327.511671 164.865557 
Q 325.980517 164.552612 324.44143 164.552612 
Q 321.593326 164.552612 320.050273 165.696284 
Q 318.507219 166.837112 318.507219 168.962295 
Q 318.507219 171.067562 319.994739 172.216925 
Q 321.482258 173.363442 324.219294 173.363442 
Q 324.965037 173.363442 325.603679 173.298008 
Q 326.242321 173.229729 326.750061 173.087482 
L 326.750061 170.509951 
L 323.834523 170.509951 
L 323.834523 168.214071 
L 331.27212 168.214071 
L 331.27212 174.598153 
z
" clip-path="url(#p6989a27d0f)" style="fill: #ffa600"/>
   </g>
   <g id="patch_54">
    <path d="M 313.572621 87.962995 
L 331.27212 87.962995 
L 331.27212 102.416278 
L 324.904417 102.416278 
L 324.904417 162.07181 
L 319.952673 162.07181 
L 319.952673 102.416278 
L 313.572621 102.416278 
L 313.572621 87.962995 
z
" clip-path="url(#p6989a27d0f)" style="fill: #ff0000"/>
   </g>
   <g id="patch_55">
    <path d="M 349.903172 191.968378 
Q 348.118149 192.104189 346.198257 192.172405 
Q 344.278365 192.24 342.231538 192.24 
Q 337.606344 192.24 334.905008 191.835668 
Q 332.203673 191.431336 332.203673 190.739879 
Q 332.203673 190.04036 334.952609 189.639129 
Q 337.705512 189.237898 342.493341 189.237898 
Q 344.337866 189.237898 346.027688 189.29247 
Q 347.721477 189.346422 349.220896 189.453087 
L 349.220896 190.051523 
Q 347.673876 189.914472 346.142723 189.846876 
Q 344.611569 189.778661 343.072482 189.778661 
Q 340.224378 189.778661 338.681325 190.027957 
Q 337.138271 190.276634 337.138271 190.739879 
Q 337.138271 191.198783 338.62579 191.44932 
Q 340.11331 191.699237 342.850346 191.699237 
Q 343.596089 191.699237 344.234731 191.684974 
Q 344.873373 191.67009 345.381113 191.639083 
L 345.381113 191.077236 
L 342.465574 191.077236 
L 342.465574 190.576782 
L 349.903172 190.576782 
L 349.903172 191.968378 
z
" clip-path="url(#p6989a27d0f)" style="fill: #ffa600"/>
   </g>
   <g id="patch_56">
    <path d="M 349.903172 188.891205 
Q 348.422639 189.063052 346.821702 189.149976 
Q 345.220765 189.237898 343.477126 189.237898 
Q 338.277424 189.237898 335.240548 188.586474 
Q 332.203673 187.935051 332.203673 186.821036 
Q 332.203673 185.703026 335.240548 185.052601 
Q 338.277424 184.401177 343.477126 184.401177 
Q 345.220765 184.401177 346.821702 184.4891 
Q 348.422639 184.576023 349.903172 184.747871 
L 349.903172 185.712018 
Q 348.409261 185.484219 346.959945 185.378313 
Q 345.510628 185.272407 343.909691 185.272407 
Q 341.037814 185.272407 339.392283 185.685041 
Q 337.75121 186.096677 337.75121 186.821036 
Q 337.75121 187.542398 339.392283 187.955033 
Q 341.037814 188.366669 343.909691 188.366669 
Q 345.510628 188.366669 346.959945 188.260762 
Q 348.409261 188.153857 349.903172 187.926059 
L 349.903172 188.891205 
z
" clip-path="url(#p6989a27d0f)" style="fill: #0000ff"/>
   </g>
   <g id="patch_57">
    <path d="M 332.203673 178.063406 
L 349.903172 178.063406 
L 349.903172 179.299448 
L 343.535468 179.299448 
L 343.535468 184.401177 
L 338.583725 184.401177 
L 338.583725 179.299448 
L 332.203673 179.299448 
L 332.203673 178.063406 
z
" clip-path="url(#p6989a27d0f)" style="fill: #ff0000"/>
   </g>
   <g id="patch_58">
    <path d="M 344.464131 175.815082 
L 337.657188 175.815082 
L 336.582408 178.063406 
L 332.203673 178.063406 
L 338.456941 165.72143 
L 343.649904 165.72143 
L 349.903172 178.063406 
L 345.528056 178.063406 
L 344.464131 175.815082 
z
M 338.742825 173.524437 
L 343.367638 173.524437 
L 341.058851 168.615155 
L 338.742825 173.524437 
z
" clip-path="url(#p6989a27d0f)" style="fill: #008000"/>
   </g>
   <g id="patch_59">
    <path d="M 368.534224 191.763179 
Q 366.7492 192.001589 364.829308 192.121339 
Q 362.909416 192.24 360.86259 192.24 
Q 356.237396 192.24 353.53606 191.530211 
Q 350.834725 190.820422 350.834725 189.606595 
Q 350.834725 188.378617 353.583661 187.674271 
Q 356.336563 186.969925 361.124393 186.969925 
Q 362.968917 186.969925 364.658739 187.065725 
Q 366.352528 187.160436 367.851948 187.347681 
L 367.851948 188.398212 
Q 366.304928 188.157624 364.773774 188.038963 
Q 363.242621 187.919213 361.703534 187.919213 
Q 358.85543 187.919213 357.312376 188.356844 
Q 355.769323 188.793386 355.769323 189.606595 
Q 355.769323 190.412184 357.256842 190.851992 
Q 358.744362 191.290712 361.481398 191.290712 
Q 362.227141 191.290712 362.865783 191.265673 
Q 363.504424 191.239546 364.012164 191.185114 
L 364.012164 190.198812 
L 361.096626 190.198812 
L 361.096626 189.320285 
L 368.534224 189.320285 
L 368.534224 191.763179 
z
" clip-path="url(#p6989a27d0f)" style="fill: #ffa600"/>
   </g>
   <g id="patch_60">
    <path d="M 363.095183 185.369852 
L 356.28824 185.369852 
L 355.21346 186.969925 
L 350.834725 186.969925 
L 357.087993 178.186467 
L 362.280956 178.186467 
L 368.534224 186.969925 
L 364.159107 186.969925 
L 363.095183 185.369852 
z
M 357.373877 183.73966 
L 361.99869 183.73966 
L 359.689902 180.245854 
L 357.373877 183.73966 
z
" clip-path="url(#p6989a27d0f)" style="fill: #008000"/>
   </g>
   <g id="patch_61">
    <path d="M 368.534224 177.242077 
Q 367.053691 177.710189 365.452754 177.946967 
Q 363.851817 178.186467 362.108177 178.186467 
Q 356.908476 178.186467 353.8716 176.411994 
Q 350.834725 174.637521 350.834725 171.602955 
Q 350.834725 168.557503 353.8716 166.785752 
Q 356.908476 165.011279 362.108177 165.011279 
Q 363.851817 165.011279 365.452754 165.250779 
Q 367.053691 165.487556 368.534224 165.955669 
L 368.534224 168.581997 
Q 367.040313 167.961476 365.590996 167.672988 
Q 364.14168 167.3845 362.540743 167.3845 
Q 359.668866 167.3845 358.023334 168.508514 
Q 356.382262 169.629807 356.382262 171.602955 
Q 356.382262 173.567939 358.023334 174.691953 
Q 359.668866 175.813246 362.540743 175.813246 
Q 364.14168 175.813246 365.590996 175.524758 
Q 367.040313 175.233548 368.534224 174.613027 
L 368.534224 177.242077 
z
" clip-path="url(#p6989a27d0f)" style="fill: #0000ff"/>
   </g>
   <g id="patch_62">
    <path d="M 350.834725 52.583012 
L 368.534224 52.583012 
L 368.534224 74.509657 
L 362.16652 74.509657 
L 362.16652 165.011279 
L 357.214777 165.011279 
L 357.214777 74.509657 
L 350.834725 74.509657 
L 350.834725 52.583012 
z
" clip-path="url(#p6989a27d0f)" style="fill: #ff0000"/>
   </g>
   <g id="patch_63">
    <path d="M 381.726235 191.495051 
L 374.919292 191.495051 
L 373.844512 192.24 
L 369.465776 192.24 
L 375.719044 188.150667 
L 380.912007 188.150667 
L 387.165275 192.24 
L 382.790159 192.24 
L 381.726235 191.495051 
z
M 376.004929 190.736079 
L 380.629742 190.736079 
L 378.320954 189.109461 
L 376.004929 190.736079 
z
" clip-path="url(#p6989a27d0f)" style="fill: #008000"/>
   </g>
   <g id="patch_64">
    <path d="M 387.165275 187.628327 
Q 385.380252 187.889497 383.46036 188.020679 
Q 381.540468 188.150667 379.493641 188.150667 
Q 374.868447 188.150667 372.167112 187.373119 
Q 369.465776 186.595571 369.465776 185.265869 
Q 369.465776 183.920663 372.214712 183.149077 
Q 374.967615 182.377492 379.755445 182.377492 
Q 381.599969 182.377492 383.289791 182.482437 
Q 384.98358 182.58619 386.483 182.79131 
L 386.483 183.942129 
Q 384.93598 183.678573 383.404826 183.548584 
Q 381.873673 183.417403 380.334586 183.417403 
Q 377.486482 183.417403 375.943428 183.896812 
Q 374.400374 184.375027 374.400374 185.265869 
Q 374.400374 186.148362 375.887894 186.630155 
Q 377.375414 187.110757 380.112449 187.110757 
Q 380.858193 187.110757 381.496834 187.083328 
Q 382.135476 187.054706 382.643216 186.995078 
L 382.643216 185.91462 
L 379.727678 185.91462 
L 379.727678 184.952226 
L 387.165275 184.952226 
L 387.165275 187.628327 
z
" clip-path="url(#p6989a27d0f)" style="fill: #ffa600"/>
   </g>
   <g id="patch_65">
    <path d="M 387.165275 181.774008 
Q 385.684743 182.073141 384.083806 182.224447 
Q 382.482868 182.377492 380.739229 182.377492 
Q 375.539527 182.377492 372.502652 181.243568 
Q 369.465776 180.109643 369.465776 178.170494 
Q 369.465776 176.224388 372.502652 175.092202 
Q 375.539527 173.958278 380.739229 173.958278 
Q 382.482868 173.958278 384.083806 174.111323 
Q 385.684743 174.262629 387.165275 174.561762 
L 387.165275 176.24004 
Q 385.671365 175.843514 384.222048 175.659165 
Q 382.772732 175.474815 381.171794 175.474815 
Q 378.299918 175.474815 376.654386 176.193083 
Q 375.013314 176.909612 375.013314 178.170494 
Q 375.013314 179.426158 376.654386 180.144426 
Q 378.299918 180.860955 381.171794 180.860955 
Q 382.772732 180.860955 384.222048 180.676606 
Q 385.671365 180.490517 387.165275 180.093991 
L 387.165275 181.774008 
z
" clip-path="url(#p6989a27d0f)" style="fill: #0000ff"/>
   </g>
   <g id="patch_66">
    <path d="M 369.465776 153.992713 
L 387.165275 153.992713 
L 387.165275 157.886555 
L 380.797572 157.886555 
L 380.797572 173.958278 
L 375.845828 173.958278 
L 375.845828 157.886555 
L 369.465776 157.886555 
L 369.465776 153.992713 
z
" clip-path="url(#p6989a27d0f)" style="fill: #ff0000"/>
   </g>
   <g id="patch_67">
    <path d="M 400.357287 191.818434 
L 393.550344 191.818434 
L 392.475563 192.24 
L 388.096828 192.24 
L 394.350096 189.925853 
L 399.543059 189.925853 
L 405.796327 192.24 
L 401.421211 192.24 
L 400.357287 191.818434 
z
M 394.635981 191.388933 
L 399.260793 191.388933 
L 396.952006 190.468433 
L 394.635981 191.388933 
z
" clip-path="url(#p6989a27d0f)" style="fill: #008000"/>
   </g>
   <g id="patch_68">
    <path d="M 405.796327 188.809173 
Q 404.011304 189.367513 402.091412 189.647958 
Q 400.17152 189.925853 398.124693 189.925853 
Q 393.499499 189.925853 390.798164 188.26358 
Q 388.096828 186.601308 388.096828 183.758618 
Q 388.096828 180.882785 390.845764 179.23326 
Q 393.598667 177.583735 398.386497 177.583735 
Q 400.231021 177.583735 401.920843 177.808091 
Q 403.614632 178.029897 405.114052 178.468411 
L 405.114052 180.928676 
Q 403.567031 180.365237 402.035878 180.087342 
Q 400.504724 179.806897 398.965637 179.806897 
Q 396.117533 179.806897 394.57448 180.831795 
Q 393.031426 181.854144 393.031426 183.758618 
Q 393.031426 185.645246 394.518946 186.675243 
Q 396.006465 187.702691 398.743501 187.702691 
Q 399.489244 187.702691 400.127886 187.644053 
Q 400.766528 187.582865 401.274268 187.45539 
L 401.274268 185.145545 
L 398.35873 185.145545 
L 398.35873 183.0881 
L 405.796327 183.0881 
L 405.796327 188.809173 
z
" clip-path="url(#p6989a27d0f)" style="fill: #ffa600"/>
   </g>
   <g id="patch_69">
    <path d="M 405.796327 176.47789 
Q 404.315795 177.026032 402.714857 177.30329 
Q 401.11392 177.583735 399.370281 177.583735 
Q 394.170579 177.583735 391.133704 175.505895 
Q 388.096828 173.428054 388.096828 169.874692 
Q 388.096828 166.308582 391.133704 164.233928 
Q 394.170579 162.156088 399.370281 162.156088 
Q 401.11392 162.156088 402.714857 162.436532 
Q 404.315795 162.71379 405.796327 163.261932 
L 405.796327 166.337264 
Q 404.302416 165.610657 402.8531 165.272849 
Q 401.403783 164.93504 399.802846 164.93504 
Q 396.93097 164.93504 395.285438 166.251218 
Q 393.644366 167.564209 393.644366 169.874692 
Q 393.644366 172.175613 395.285438 173.491791 
Q 396.93097 174.804783 399.802846 174.804783 
Q 401.403783 174.804783 402.8531 174.466974 
Q 404.302416 174.125979 405.796327 173.399372 
L 405.796327 176.47789 
z
" clip-path="url(#p6989a27d0f)" style="fill: #0000ff"/>
   </g>
   <g id="patch_70">
    <path d="M 388.096828 69.590204 
L 405.796327 69.590204 
L 405.796327 87.64313 
L 399.428624 87.64313 
L 399.428624 162.156088 
L 394.47688 162.156088 
L 394.47688 87.64313 
L 388.096828 87.64313 
L 388.096828 69.590204 
z
" clip-path="url(#p6989a27d0f)" style="fill: #ff0000"/>
   </g>
   <g id="patch_71">
    <path d="M 406.72788 189.554954 
L 424.427379 189.554954 
L 424.427379 190.078612 
L 418.059675 190.078612 
L 418.059675 192.24 
L 413.107932 192.24 
L 413.107932 190.078612 
L 406.72788 190.078612 
L 406.72788 189.554954 
z
" clip-path="url(#p6989a27d0f)" style="fill: #ff0000"/>
   </g>
   <g id="patch_72">
    <path d="M 418.988338 188.275686 
L 412.181395 188.275686 
L 411.106615 189.554954 
L 406.72788 189.554954 
L 412.981148 182.532525 
L 418.174111 182.532525 
L 424.427379 189.554954 
L 420.052263 189.554954 
L 418.988338 188.275686 
z
M 413.267032 186.972337 
L 417.891845 186.972337 
L 415.583058 184.179018 
L 413.267032 186.972337 
z
" clip-path="url(#p6989a27d0f)" style="fill: #008000"/>
   </g>
   <g id="patch_73">
    <path d="M 424.427379 181.999551 
Q 422.946846 182.263734 421.345909 182.397361 
Q 419.744972 182.532525 418.001333 182.532525 
Q 412.801631 182.532525 409.764755 181.531088 
Q 406.72788 180.529651 406.72788 178.817072 
Q 406.72788 177.098349 409.764755 176.098448 
Q 412.801631 175.097012 418.001333 175.097012 
Q 419.744972 175.097012 421.345909 175.232175 
Q 422.946846 175.365802 424.427379 175.629985 
L 424.427379 177.112172 
Q 422.933468 176.761977 421.484152 176.599166 
Q 420.034835 176.436356 418.433898 176.436356 
Q 415.562021 176.436356 413.91649 177.070702 
Q 412.275417 177.703511 412.275417 178.817072 
Q 412.275417 179.926025 413.91649 180.56037 
Q 415.562021 181.19318 418.433898 181.19318 
Q 420.034835 181.19318 421.484152 181.03037 
Q 422.933468 180.866024 424.427379 180.515828 
L 424.427379 181.999551 
z
" clip-path="url(#p6989a27d0f)" style="fill: #0000ff"/>
   </g>
   <g id="patch_74">
    <path d="M 424.427379 173.676774 
Q 422.642356 174.386893 420.722464 174.743573 
Q 418.802572 175.097012 416.755745 175.097012 
Q 412.130551 175.097012 409.429215 172.982868 
Q 406.72788 170.868724 406.72788 167.253278 
Q 406.72788 163.59568 409.476816 161.497748 
Q 412.229719 159.399817 417.017548 159.399817 
Q 418.862073 159.399817 420.551895 159.685162 
Q 422.245684 159.967264 423.745103 160.524983 
L 423.745103 163.654046 
Q 422.198083 162.937442 420.66693 162.584003 
Q 419.135776 162.227323 417.596689 162.227323 
Q 414.748585 162.227323 413.205532 163.530829 
Q 411.662478 164.831092 411.662478 167.253278 
Q 411.662478 169.652767 413.149997 170.962758 
Q 414.637517 172.269506 417.374553 172.269506 
Q 418.120296 172.269506 418.758938 172.194928 
Q 419.39758 172.117106 419.90532 171.954979 
L 419.90532 169.017227 
L 416.989781 169.017227 
L 416.989781 166.400487 
L 424.427379 166.400487 
L 424.427379 173.676774 
z
" clip-path="url(#p6989a27d0f)" style="fill: #ffa600"/>
   </g>
   <g id="patch_75">
    <path d="M 443.058431 192.142649 
Q 441.273407 192.191324 439.353515 192.215773 
Q 437.433623 192.24 435.386797 192.24 
Q 430.761603 192.24 428.060267 192.095085 
Q 425.358932 191.950169 425.358932 191.702346 
Q 425.358932 191.451634 428.107868 191.30783 
Q 430.86077 191.164026 435.6486 191.164026 
Q 437.493124 191.164026 439.182946 191.183585 
Q 440.876735 191.202922 442.376155 191.241151 
L 442.376155 191.455635 
Q 440.829135 191.406515 439.297981 191.382288 
Q 437.766828 191.357839 436.227741 191.357839 
Q 433.379637 191.357839 431.836583 191.447189 
Q 430.29353 191.536316 430.29353 191.702346 
Q 430.29353 191.866821 431.781049 191.956615 
Q 433.268569 192.046187 436.005605 192.046187 
Q 436.751348 192.046187 437.38999 192.041075 
Q 438.028631 192.035741 438.536371 192.024627 
L 438.536371 191.823257 
L 435.620833 191.823257 
L 435.620833 191.643891 
L 443.058431 191.643891 
L 443.058431 192.142649 
z
" clip-path="url(#p6989a27d0f)" style="fill: #ffa600"/>
   </g>
   <g id="patch_76">
    <path d="M 425.358932 178.252337 
L 443.058431 178.252337 
L 443.058431 180.770476 
L 436.690727 180.770476 
L 436.690727 191.164026 
L 431.738984 191.164026 
L 431.738984 180.770476 
L 425.358932 180.770476 
L 425.358932 178.252337 
z
" clip-path="url(#p6989a27d0f)" style="fill: #ff0000"/>
   </g>
   <g id="patch_77">
    <path d="M 443.058431 177.224001 
Q 441.577898 177.733724 439.976961 177.991549 
Q 438.376024 178.252337 436.632384 178.252337 
Q 431.432683 178.252337 428.395807 176.320133 
Q 425.358932 174.387928 425.358932 171.083622 
Q 425.358932 167.767461 428.395807 165.83822 
Q 431.432683 163.906016 436.632384 163.906016 
Q 438.376024 163.906016 439.976961 164.166804 
Q 441.577898 164.424629 443.058431 164.934352 
L 443.058431 167.794133 
Q 441.56452 167.118454 440.115203 166.804323 
Q 438.665887 166.490191 437.06495 166.490191 
Q 434.193073 166.490191 432.547541 167.714118 
Q 430.906469 168.935082 430.906469 171.083622 
Q 430.906469 173.223271 432.547541 174.447198 
Q 434.193073 175.668162 437.06495 175.668162 
Q 438.665887 175.668162 440.115203 175.354031 
Q 441.56452 175.036936 443.058431 174.361257 
L 443.058431 177.224001 
z
" clip-path="url(#p6989a27d0f)" style="fill: #0000ff"/>
   </g>
   <g id="patch_78">
    <path d="M 437.61939 158.67911 
L 430.812447 158.67911 
L 429.737667 163.906016 
L 425.358932 163.906016 
L 431.6122 135.213374 
L 436.805163 135.213374 
L 443.058431 163.906016 
L 438.683314 163.906016 
L 437.61939 158.67911 
z
M 431.898084 153.353814 
L 436.522897 153.353814 
L 434.214109 141.94071 
L 431.898084 153.353814 
z
" clip-path="url(#p6989a27d0f)" style="fill: #008000"/>
   </g>
   <g id="patch_79">
    <path d="M 461.689482 192.092284 
Q 460.20895 192.165503 458.608013 192.202539 
Q 457.007075 192.24 455.263436 192.24 
Q 450.063734 192.24 447.026859 191.962446 
Q 443.989983 191.684893 443.989983 191.210242 
Q 443.989983 190.733888 447.026859 190.45676 
Q 450.063734 190.179206 455.263436 190.179206 
Q 457.007075 190.179206 458.608013 190.216667 
Q 460.20895 190.253703 461.689482 190.326923 
L 461.689482 190.737719 
Q 460.195572 190.64066 458.746255 190.595537 
Q 457.296939 190.550413 455.696001 190.550413 
Q 452.824125 190.550413 451.178593 190.726225 
Q 449.537521 190.901612 449.537521 191.210242 
Q 449.537521 191.517594 451.178593 191.693406 
Q 452.824125 191.868793 455.696001 191.868793 
Q 457.296939 191.868793 458.746255 191.823669 
Q 460.195572 191.77812 461.689482 191.681061 
L 461.689482 192.092284 
z
" clip-path="url(#p6989a27d0f)" style="fill: #0000ff"/>
   </g>
   <g id="patch_80">
    <path d="M 461.689482 189.293546 
Q 459.904459 189.736376 457.984567 189.958802 
Q 456.064675 190.179206 454.017848 190.179206 
Q 449.392654 190.179206 446.691319 188.860826 
Q 443.989983 187.542446 443.989983 185.287854 
Q 443.989983 183.006975 446.738919 181.698705 
Q 449.491822 180.390435 454.279652 180.390435 
Q 456.124176 180.390435 457.813998 180.568376 
Q 459.507787 180.744295 461.007207 181.092088 
L 461.007207 183.043372 
Q 459.460187 182.596498 457.929033 182.376094 
Q 456.39788 182.153668 454.858793 182.153668 
Q 452.010689 182.153668 450.467635 182.966534 
Q 448.924581 183.777378 448.924581 185.287854 
Q 448.924581 186.784175 450.412101 187.601085 
Q 451.899621 188.415974 454.636656 188.415974 
Q 455.3824 188.415974 456.021041 188.369466 
Q 456.659683 188.320937 457.167423 188.219834 
L 457.167423 186.387852 
L 454.251885 186.387852 
L 454.251885 184.756053 
L 461.689482 184.756053 
L 461.689482 189.293546 
z
" clip-path="url(#p6989a27d0f)" style="fill: #ffa600"/>
   </g>
   <g id="patch_81">
    <path d="M 443.989983 161.328092 
L 461.689482 161.328092 
L 461.689482 165.04578 
L 455.321779 165.04578 
L 455.321779 180.390435 
L 450.370035 180.390435 
L 450.370035 165.04578 
L 443.989983 165.04578 
L 443.989983 161.328092 
z
" clip-path="url(#p6989a27d0f)" style="fill: #ff0000"/>
   </g>
   <g id="patch_82">
    <path d="M 456.250442 152.036632 
L 449.443499 152.036632 
L 448.368719 161.328092 
L 443.989983 161.328092 
L 450.243251 110.323443 
L 455.436214 110.323443 
L 461.689482 161.328092 
L 457.314366 161.328092 
L 456.250442 152.036632 
z
M 450.529136 142.570274 
L 455.153949 142.570274 
L 452.845161 122.282098 
L 450.529136 142.570274 
z
" clip-path="url(#p6989a27d0f)" style="fill: #008000"/>
   </g>
   <g id="patch_83">
    <path d="M 480.320534 192.050715 
Q 478.535511 192.145357 476.615619 192.192895 
Q 474.695727 192.24 472.6489 192.24 
Q 468.023706 192.24 465.322371 191.958233 
Q 462.621035 191.676466 462.621035 191.194611 
Q 462.621035 190.707137 465.369971 190.427531 
Q 468.122874 190.147925 472.910704 190.147925 
Q 474.755228 190.147925 476.44505 190.185954 
Q 478.138839 190.223552 479.638259 190.297883 
L 479.638259 190.714915 
Q 478.091238 190.619409 476.560085 190.572303 
Q 475.028931 190.524766 473.489844 190.524766 
Q 470.64174 190.524766 469.098687 190.698493 
Q 467.555633 190.871789 467.555633 191.194611 
Q 467.555633 191.514407 469.043153 191.688999 
Q 470.530672 191.863158 473.267708 191.863158 
Q 474.013451 191.863158 474.652093 191.853219 
Q 475.290735 191.842847 475.798475 191.821239 
L 475.798475 191.429704 
L 472.882937 191.429704 
L 472.882937 191.080953 
L 480.320534 191.080953 
L 480.320534 192.050715 
z
" clip-path="url(#p6989a27d0f)" style="fill: #ffa600"/>
   </g>
   <g id="patch_84">
    <path d="M 474.881494 188.242369 
L 468.074551 188.242369 
L 466.99977 190.147925 
L 462.621035 190.147925 
L 468.874303 179.687547 
L 474.067266 179.687547 
L 480.320534 190.147925 
L 475.945418 190.147925 
L 474.881494 188.242369 
z
M 469.160188 186.300945 
L 473.785 186.300945 
L 471.476213 182.140109 
L 469.160188 186.300945 
z
" clip-path="url(#p6989a27d0f)" style="fill: #008000"/>
   </g>
   <g id="patch_85">
    <path d="M 480.320534 178.787795 
Q 478.840002 179.233782 477.239064 179.459368 
Q 475.638127 179.687547 473.894488 179.687547 
Q 468.694786 179.687547 465.657911 177.996946 
Q 462.621035 176.306345 462.621035 173.41521 
Q 462.621035 170.513703 465.657911 168.825695 
Q 468.694786 167.135094 473.894488 167.135094 
Q 475.638127 167.135094 477.239064 167.363274 
Q 478.840002 167.58886 480.320534 168.034847 
L 480.320534 170.53704 
Q 478.826623 169.945848 477.377307 169.670996 
Q 475.92799 169.396143 474.327053 169.396143 
Q 471.455177 169.396143 469.809645 170.46703 
Q 468.168573 171.535324 468.168573 173.41521 
Q 468.168573 175.287317 469.809645 176.358204 
Q 471.455177 177.426498 474.327053 177.426498 
Q 475.92799 177.426498 477.377307 177.151646 
Q 478.826623 176.8742 480.320534 176.283009 
L 480.320534 178.787795 
z
" clip-path="url(#p6989a27d0f)" style="fill: #0000ff"/>
   </g>
   <g id="patch_86">
    <path d="M 462.621035 25.92 
L 480.320534 25.92 
L 480.320534 53.460878 
L 473.952831 53.460878 
L 473.952831 167.135094 
L 469.001087 167.135094 
L 469.001087 53.460878 
L 462.621035 53.460878 
L 462.621035 25.92 
z
" clip-path="url(#p6989a27d0f)" style="fill: #ff0000"/>
   </g>
   <g id="patch_87">
    <path d="M 498.951586 191.751224 
Q 497.166563 191.995612 495.246671 192.118364 
Q 493.326779 192.24 491.279952 192.24 
Q 486.654758 192.24 483.953422 191.512415 
Q 481.252087 190.78483 481.252087 189.54057 
Q 481.252087 188.281804 484.001023 187.559799 
Q 486.753926 186.837793 491.541755 186.837793 
Q 493.38628 186.837793 495.076102 186.935995 
Q 496.769891 187.033081 498.26931 187.22502 
L 498.26931 188.301891 
Q 496.72229 188.055271 495.191137 187.933634 
Q 493.659983 187.810882 492.120896 187.810882 
Q 489.272792 187.810882 487.729739 188.259485 
Q 486.186685 188.706972 486.186685 189.54057 
Q 486.186685 190.366357 487.674205 190.817192 
Q 489.161724 191.266911 491.89876 191.266911 
Q 492.644503 191.266911 493.283145 191.241245 
Q 493.921787 191.214462 494.429527 191.158666 
L 494.429527 190.147635 
L 491.513988 190.147635 
L 491.513988 189.247081 
L 498.951586 189.247081 
L 498.951586 191.751224 
z
" clip-path="url(#p6989a27d0f)" style="fill: #ffa600"/>
   </g>
   <g id="patch_88">
    <path d="M 481.252087 180.625255 
L 498.951586 180.625255 
L 498.951586 181.836873 
L 492.583882 181.836873 
L 492.583882 186.837793 
L 487.632139 186.837793 
L 487.632139 181.836873 
L 481.252087 181.836873 
L 481.252087 180.625255 
z
" clip-path="url(#p6989a27d0f)" style="fill: #ff0000"/>
   </g>
   <g id="patch_89">
    <path d="M 493.512545 179.247496 
L 486.705603 179.247496 
L 485.630822 180.625255 
L 481.252087 180.625255 
L 487.505355 173.062166 
L 492.698318 173.062166 
L 498.951586 180.625255 
L 494.57647 180.625255 
L 493.512545 179.247496 
z
M 487.791239 177.843802 
L 492.416052 177.843802 
L 490.107265 174.835423 
L 487.791239 177.843802 
z
" clip-path="url(#p6989a27d0f)" style="fill: #008000"/>
   </g>
   <g id="patch_90">
    <path d="M 498.951586 171.358367 
Q 497.471053 172.202901 495.870116 172.630079 
Q 494.269179 173.062166 492.52554 173.062166 
Q 487.325838 173.062166 484.288962 169.860792 
Q 481.252087 166.659418 481.252087 161.184676 
Q 481.252087 155.690294 484.288962 152.49383 
Q 487.325838 149.292456 492.52554 149.292456 
Q 494.269179 149.292456 495.870116 149.724543 
Q 497.471053 150.15172 498.951586 150.996255 
L 498.951586 155.734484 
Q 497.457675 154.614986 496.008359 154.094517 
Q 494.559042 153.574048 492.958105 153.574048 
Q 490.086228 153.574048 488.440697 155.601912 
Q 486.799624 157.624866 486.799624 161.184676 
Q 486.799624 164.729756 488.440697 166.75762 
Q 490.086228 168.780574 492.958105 168.780574 
Q 494.559042 168.780574 496.008359 168.260105 
Q 497.457675 167.734726 498.951586 166.615227 
L 498.951586 171.358367 
z
" clip-path="url(#p6989a27d0f)" style="fill: #0000ff"/>
   </g>
   <g id="patch_91">
    <path d="M 517.582638 191.839755 
Q 515.797614 192.039878 513.877722 192.140396 
Q 511.957831 192.24 509.911004 192.24 
Q 505.28581 192.24 502.584474 191.644202 
Q 499.883139 191.048404 499.883139 190.029516 
Q 499.883139 188.998748 502.632075 188.407519 
Q 505.384978 187.81629 510.172807 187.81629 
Q 512.017331 187.81629 513.707153 187.896704 
Q 515.400942 187.976205 516.900362 188.133379 
L 516.900362 189.015197 
Q 515.353342 188.813247 513.822188 188.713642 
Q 512.291035 188.613124 510.751948 188.613124 
Q 507.903844 188.613124 506.36079 188.980472 
Q 504.817737 189.346906 504.817737 190.029516 
Q 504.817737 190.705728 506.305256 191.074904 
Q 507.792776 191.443166 510.529812 191.443166 
Q 511.275555 191.443166 511.914197 191.422148 
Q 512.552838 191.400217 513.060578 191.354527 
L 513.060578 190.526623 
L 510.14504 190.526623 
L 510.14504 189.789186 
L 517.582638 189.789186 
L 517.582638 191.839755 
z
" clip-path="url(#p6989a27d0f)" style="fill: #ffa600"/>
   </g>
   <g id="patch_92">
    <path d="M 517.582638 187.340657 
Q 516.102105 187.576417 514.501168 187.695668 
Q 512.900231 187.81629 511.156591 187.81629 
Q 505.95689 187.81629 502.920014 186.922593 
Q 499.883139 186.028895 499.883139 184.500564 
Q 499.883139 182.966749 502.920014 182.074422 
Q 505.95689 181.180725 511.156591 181.180725 
Q 512.900231 181.180725 514.501168 181.301347 
Q 516.102105 181.420598 517.582638 181.656358 
L 517.582638 182.979085 
Q 516.088727 182.666565 514.63941 182.521271 
Q 513.190094 182.375976 511.589157 182.375976 
Q 508.71728 182.375976 507.071748 182.942076 
Q 505.430676 183.506805 505.430676 184.500564 
Q 505.430676 185.49021 507.071748 186.056309 
Q 508.71728 186.621038 511.589157 186.621038 
Q 513.190094 186.621038 514.63941 186.475744 
Q 516.088727 186.329079 517.582638 186.016559 
L 517.582638 187.340657 
z
" clip-path="url(#p6989a27d0f)" style="fill: #0000ff"/>
   </g>
   <g id="patch_93">
    <path d="M 499.883139 174.053637 
L 517.582638 174.053637 
L 517.582638 175.443617 
L 511.214934 175.443617 
L 511.214934 181.180725 
L 506.263191 181.180725 
L 506.263191 175.443617 
L 499.883139 175.443617 
L 499.883139 174.053637 
z
" clip-path="url(#p6989a27d0f)" style="fill: #ff0000"/>
   </g>
   <g id="patch_94">
    <path d="M 512.143597 170.248176 
L 505.336654 170.248176 
L 504.261874 174.053637 
L 499.883139 174.053637 
L 506.136407 153.163895 
L 511.32937 153.163895 
L 517.582638 174.053637 
L 513.207521 174.053637 
L 512.143597 170.248176 
z
M 506.422291 166.371083 
L 511.047104 166.371083 
L 508.738316 158.061747 
L 506.422291 166.371083 
z
" clip-path="url(#p6989a27d0f)" style="fill: #008000"/>
   </g>
   <g id="patch_95">
    <path d="M 536.213689 191.714627 
Q 534.733157 191.975043 533.13222 192.106764 
Q 531.531282 192.24 529.787643 192.24 
Q 524.587941 192.24 521.551066 191.252844 
Q 518.51419 190.265689 518.51419 188.577532 
Q 518.51419 186.883319 521.551066 185.897677 
Q 524.587941 184.910522 529.787643 184.910522 
Q 531.531282 184.910522 533.13222 185.043757 
Q 534.733157 185.175479 536.213689 185.435894 
L 536.213689 186.896945 
Q 534.719779 186.551743 533.270462 186.391255 
Q 531.821146 186.230766 530.220208 186.230766 
Q 527.348332 186.230766 525.7028 186.856066 
Q 524.061728 187.479851 524.061728 188.577532 
Q 524.061728 189.67067 525.7028 190.29597 
Q 527.348332 190.919755 530.220208 190.919755 
Q 531.821146 190.919755 533.270462 190.759267 
Q 534.719779 190.597264 536.213689 190.252063 
L 536.213689 191.714627 
z
" clip-path="url(#p6989a27d0f)" style="fill: #0000ff"/>
   </g>
   <g id="patch_96">
    <path d="M 536.213689 184.126798 
Q 534.428666 184.51866 532.508774 184.715485 
Q 530.588882 184.910522 528.542055 184.910522 
Q 523.916861 184.910522 521.215526 183.743883 
Q 518.51419 182.577245 518.51419 180.58215 
Q 518.51419 178.563794 521.263126 177.406102 
Q 524.016029 176.248411 528.803859 176.248411 
Q 530.648383 176.248411 532.338205 176.405871 
Q 534.031994 176.561542 535.531414 176.869306 
L 535.531414 178.596002 
Q 533.984394 178.200562 532.45324 178.005525 
Q 530.922087 177.8087 529.383 177.8087 
Q 526.534896 177.8087 524.991842 178.528008 
Q 523.448788 179.245526 523.448788 180.58215 
Q 523.448788 181.906249 524.936308 182.629135 
Q 526.423828 183.350232 529.160864 183.350232 
Q 529.906607 183.350232 530.545248 183.309078 
Q 531.18389 183.266134 531.69163 183.176668 
L 531.69163 181.555542 
L 528.776092 181.555542 
L 528.776092 180.111558 
L 536.213689 180.111558 
L 536.213689 184.126798 
z
" clip-path="url(#p6989a27d0f)" style="fill: #ffa600"/>
   </g>
   <g id="patch_97">
    <path d="M 518.51419 164.254719 
L 536.213689 164.254719 
L 536.213689 166.593823 
L 529.845986 166.593823 
L 529.845986 176.248411 
L 524.894242 176.248411 
L 524.894242 166.593823 
L 518.51419 166.593823 
L 518.51419 164.254719 
z
" clip-path="url(#p6989a27d0f)" style="fill: #ff0000"/>
   </g>
   <g id="patch_98">
    <path d="M 530.774649 150.053015 
L 523.967706 150.053015 
L 522.892926 164.254719 
L 518.51419 164.254719 
L 524.767458 86.29572 
L 529.960421 86.29572 
L 536.213689 164.254719 
L 531.838573 164.254719 
L 530.774649 150.053015 
z
M 525.053343 135.583985 
L 529.678156 135.583985 
L 527.369368 104.574148 
L 525.053343 135.583985 
z
" clip-path="url(#p6989a27d0f)" style="fill: #008000"/>
   </g>
   <g id="patch_99">
    <path d="M 554.844741 191.760948 
Q 553.364209 191.998403 551.763271 192.118511 
Q 550.162334 192.24 548.418695 192.24 
Q 543.218993 192.24 540.182118 191.33988 
Q 537.145242 190.439759 537.145242 188.900443 
Q 537.145242 187.355604 540.182118 186.456865 
Q 543.218993 185.556744 548.418695 185.556744 
Q 550.162334 185.556744 551.763271 185.678233 
Q 553.364209 185.798341 554.844741 186.035796 
L 554.844741 187.368029 
Q 553.35083 187.053263 551.901514 186.906925 
Q 550.452197 186.760586 548.85126 186.760586 
Q 545.979384 186.760586 544.333852 187.330754 
Q 542.69278 187.899542 542.69278 188.900443 
Q 542.69278 189.897202 544.333852 190.46737 
Q 545.979384 191.036158 548.85126 191.036158 
Q 550.452197 191.036158 551.901514 190.889819 
Q 553.35083 190.7421 554.844741 190.427334 
L 554.844741 191.760948 
z
" clip-path="url(#p6989a27d0f)" style="fill: #0000ff"/>
   </g>
   <g id="patch_100">
    <path d="M 549.405701 183.852271 
L 542.598758 183.852271 
L 541.523977 185.556744 
L 537.145242 185.556744 
L 543.39851 176.200186 
L 548.591473 176.200186 
L 554.844741 185.556744 
L 550.469625 185.556744 
L 549.405701 183.852271 
z
M 543.684395 182.115713 
L 548.309208 182.115713 
L 546.00042 178.393944 
L 543.684395 182.115713 
z
" clip-path="url(#p6989a27d0f)" style="fill: #008000"/>
   </g>
   <g id="patch_101">
    <path d="M 554.844741 175.111758 
Q 553.059718 175.655972 551.139826 175.929322 
Q 549.219934 176.200186 547.173107 176.200186 
Q 542.547913 176.200186 539.846578 174.579969 
Q 537.145242 172.959753 537.145242 170.188983 
Q 537.145242 167.385909 539.894178 165.778117 
Q 542.647081 164.170326 547.434911 164.170326 
Q 549.279435 164.170326 550.969257 164.389005 
Q 552.663046 164.6052 554.162466 165.032619 
L 554.162466 167.430639 
Q 552.615445 166.881455 551.084292 166.610591 
Q 549.553138 166.337241 548.014052 166.337241 
Q 545.165947 166.337241 543.622894 167.336209 
Q 542.07984 168.332692 542.07984 170.188983 
Q 542.07984 172.02788 543.56736 173.031818 
Q 545.054879 174.033271 547.791915 174.033271 
Q 548.537658 174.033271 549.1763 173.976116 
Q 549.814942 173.916476 550.322682 173.792226 
L 550.322682 171.540821 
L 547.407144 171.540821 
L 547.407144 169.53543 
L 554.844741 169.53543 
L 554.844741 175.111758 
z
" clip-path="url(#p6989a27d0f)" style="fill: #ffa600"/>
   </g>
   <g id="patch_102">
    <path d="M 537.145242 85.976233 
L 554.844741 85.976233 
L 554.844741 101.22626 
L 548.477038 101.22626 
L 548.477038 164.170326 
L 543.525294 164.170326 
L 543.525294 101.22626 
L 537.145242 101.22626 
L 537.145242 85.976233 
z
" clip-path="url(#p6989a27d0f)" style="fill: #ff0000"/>
   </g>
   <g id="patch_103">
    <path d="M 555.776294 188.867768 
L 573.475793 188.867768 
L 573.475793 189.525447 
L 567.108089 189.525447 
L 567.108089 192.24 
L 562.156346 192.24 
L 562.156346 189.525447 
L 555.776294 189.525447 
L 555.776294 188.867768 
z
" clip-path="url(#p6989a27d0f)" style="fill: #ff0000"/>
   </g>
   <g id="patch_104">
    <path d="M 573.475793 188.303756 
Q 571.99526 188.583324 570.394323 188.724733 
Q 568.793386 188.867768 567.049747 188.867768 
Q 561.850045 188.867768 558.813169 187.80801 
Q 555.776294 186.748252 555.776294 184.935936 
Q 555.776294 183.117118 558.813169 182.058985 
Q 561.850045 180.999227 567.049747 180.999227 
Q 568.793386 180.999227 570.394323 181.142262 
Q 571.99526 181.283671 573.475793 181.563239 
L 573.475793 183.131746 
Q 571.981882 182.761156 570.532566 182.588864 
Q 569.083249 182.416572 567.482312 182.416572 
Q 564.610435 182.416572 562.964904 183.08786 
Q 561.323831 183.757524 561.323831 184.935936 
Q 561.323831 186.109471 562.964904 186.78076 
Q 564.610435 187.450423 567.482312 187.450423 
Q 569.083249 187.450423 570.532566 187.278131 
Q 571.981882 187.104214 573.475793 186.733623 
L 573.475793 188.303756 
z
" clip-path="url(#p6989a27d0f)" style="fill: #0000ff"/>
   </g>
   <g id="patch_105">
    <path d="M 573.475793 179.710985 
Q 571.69077 180.355106 569.770878 180.678637 
Q 567.850986 180.999227 565.804159 180.999227 
Q 561.178965 180.999227 558.477629 179.081569 
Q 555.776294 177.163912 555.776294 173.884482 
Q 555.776294 170.566817 558.52523 168.663866 
Q 561.278133 166.760914 566.065962 166.760914 
Q 567.910487 166.760914 569.600309 167.019739 
Q 571.294098 167.275623 572.793517 167.781508 
L 572.793517 170.619759 
Q 571.246497 169.969755 569.715344 169.649165 
Q 568.18419 169.325634 566.645103 169.325634 
Q 563.796999 169.325634 562.253946 170.507993 
Q 560.710892 171.687411 560.710892 173.884482 
Q 560.710892 176.060965 562.198412 177.249206 
Q 563.685931 178.434507 566.422967 178.434507 
Q 567.16871 178.434507 567.807352 178.36686 
Q 568.445994 178.296271 568.953734 178.149211 
L 568.953734 175.484491 
L 566.038195 175.484491 
L 566.038195 173.110949 
L 573.475793 173.110949 
L 573.475793 179.710985 
z
" clip-path="url(#p6989a27d0f)" style="fill: #ffa600"/>
   </g>
   <g id="patch_106">
    <path d="M 568.036752 160.5495 
L 561.22981 160.5495 
L 560.155029 166.760914 
L 555.776294 166.760914 
L 562.029562 132.663902 
L 567.222525 132.663902 
L 573.475793 166.760914 
L 569.100677 166.760914 
L 568.036752 160.5495 
z
M 562.315446 154.221164 
L 566.940259 154.221164 
L 564.631472 140.658358 
L 562.315446 154.221164 
z
" clip-path="url(#p6989a27d0f)" style="fill: #008000"/>
   </g>
   <g id="patch_107">
    <path d="M 592.106845 191.854152 
Q 590.626312 192.045408 589.025375 192.142148 
Q 587.424438 192.24 585.680798 192.24 
Q 580.481097 192.24 577.444221 191.515005 
Q 574.407346 190.790011 574.407346 189.550181 
Q 574.407346 188.305903 577.444221 187.582021 
Q 580.481097 186.857026 585.680798 186.857026 
Q 587.424438 186.857026 589.025375 186.954878 
Q 590.626312 187.051618 592.106845 187.242874 
L 592.106845 188.315911 
Q 590.612934 188.062385 589.163617 187.944518 
Q 587.714301 187.826651 586.113364 187.826651 
Q 583.241487 187.826651 581.595955 188.285888 
Q 579.954883 188.744014 579.954883 189.550181 
Q 579.954883 190.353012 581.595955 190.81225 
Q 583.241487 191.270375 586.113364 191.270375 
Q 587.714301 191.270375 589.163617 191.152508 
Q 590.612934 191.033529 592.106845 190.780003 
L 592.106845 191.854152 
z
" clip-path="url(#p6989a27d0f)" style="fill: #0000ff"/>
   </g>
   <g id="patch_108">
    <path d="M 592.106845 186.36999 
Q 590.321821 186.613508 588.401929 186.735823 
Q 586.482038 186.857026 584.435211 186.857026 
Q 579.810017 186.857026 577.108681 186.132031 
Q 574.407346 185.407037 574.407346 184.167207 
Q 574.407346 182.912922 577.156282 182.193487 
Q 579.909185 181.474052 584.697014 181.474052 
Q 586.541538 181.474052 588.23136 181.571904 
Q 589.925149 181.668644 591.424569 181.859901 
L 591.424569 182.932937 
Q 589.877549 182.687195 588.346395 182.565992 
Q 586.815242 182.443677 585.276155 182.443677 
Q 582.428051 182.443677 580.884997 182.890683 
Q 579.341944 183.336577 579.341944 184.167207 
Q 579.341944 184.990054 580.829463 185.439284 
Q 582.316983 185.887401 585.054019 185.887401 
Q 585.799762 185.887401 586.438404 185.861826 
Q 587.077045 185.835139 587.584785 185.779542 
L 587.584785 184.772111 
L 584.669247 184.772111 
L 584.669247 183.874763 
L 592.106845 183.874763 
L 592.106845 186.36999 
z
" clip-path="url(#p6989a27d0f)" style="fill: #ffa600"/>
   </g>
   <g id="patch_109">
    <path d="M 586.667804 178.812396 
L 579.860861 178.812396 
L 578.786081 181.474052 
L 574.407346 181.474052 
L 580.660614 166.863123 
L 585.853577 166.863123 
L 592.106845 181.474052 
L 587.731728 181.474052 
L 586.667804 178.812396 
z
M 580.946498 176.100637 
L 585.571311 176.100637 
L 583.262523 170.288832 
L 580.946498 176.100637 
z
" clip-path="url(#p6989a27d0f)" style="fill: #008000"/>
   </g>
   <g id="patch_110">
    <path d="M 574.407346 131.104796 
L 592.106845 131.104796 
L 592.106845 138.078666 
L 585.739141 138.078666 
L 585.739141 166.863123 
L 580.787398 166.863123 
L 580.787398 138.078666 
L 574.407346 138.078666 
L 574.407346 131.104796 
z
" clip-path="url(#p6989a27d0f)" style="fill: #ff0000"/>
   </g>
   <g id="patch_111">
    <path d="M 605.298856 191.28704 
L 598.491913 191.28704 
L 597.417133 192.24 
L 593.038397 192.24 
L 599.291665 187.00881 
L 604.484628 187.00881 
L 610.737896 192.24 
L 606.36278 192.24 
L 605.298856 191.28704 
z
M 599.57755 190.316142 
L 604.202363 190.316142 
L 601.893575 188.235325 
L 599.57755 190.316142 
z
" clip-path="url(#p6989a27d0f)" style="fill: #008000"/>
   </g>
   <g id="patch_112">
    <path d="M 610.737896 186.550515 
Q 609.257364 186.777681 607.656427 186.892585 
Q 606.055489 187.00881 604.31185 187.00881 
Q 599.112148 187.00881 596.075273 186.147691 
Q 593.038397 185.286572 593.038397 183.813952 
Q 593.038397 182.33605 596.075273 181.476252 
Q 599.112148 180.615133 604.31185 180.615133 
Q 606.055489 180.615133 607.656427 180.731357 
Q 609.257364 180.846261 610.737896 181.073428 
L 610.737896 182.347937 
Q 609.243986 182.046809 607.794669 181.906811 
Q 606.345353 181.766813 604.744415 181.766813 
Q 601.872539 181.766813 600.227007 182.312277 
Q 598.585935 182.85642 598.585935 183.813952 
Q 598.585935 184.767523 600.227007 185.312986 
Q 601.872539 185.857129 604.744415 185.857129 
Q 606.345353 185.857129 607.794669 185.717131 
Q 609.243986 185.575813 610.737896 185.274685 
L 610.737896 186.550515 
z
" clip-path="url(#p6989a27d0f)" style="fill: #0000ff"/>
   </g>
   <g id="patch_113">
    <path d="M 610.737896 178.984866 
Q 608.952873 179.799999 607.032981 180.209427 
Q 605.113089 180.615133 603.066262 180.615133 
Q 598.441068 180.615133 595.739733 178.188343 
Q 593.038397 175.761553 593.038397 171.611444 
Q 593.038397 167.412948 595.787333 165.004768 
Q 598.540236 162.596588 603.328066 162.596588 
Q 605.17259 162.596588 606.862412 162.924131 
Q 608.556201 163.247951 610.055621 163.888147 
L 610.055621 167.479945 
Q 608.508601 166.657368 606.977447 166.251662 
Q 605.446294 165.842234 603.907207 165.842234 
Q 601.059103 165.842234 599.516049 167.338507 
Q 597.972995 168.831057 597.972995 171.611444 
Q 597.972995 174.365776 599.460515 175.869493 
Q 600.948035 177.369487 603.685071 177.369487 
Q 604.430814 177.369487 605.069455 177.283879 
Q 605.708097 177.19455 606.215837 177.008446 
L 606.215837 173.63625 
L 603.300299 173.63625 
L 603.300299 170.632539 
L 610.737896 170.632539 
L 610.737896 178.984866 
z
" clip-path="url(#p6989a27d0f)" style="fill: #ffa600"/>
   </g>
   <g id="patch_114">
    <path d="M 593.038397 99.822305 
L 610.737896 99.822305 
L 610.737896 112.065039 
L 604.370193 112.065039 
L 604.370193 162.596588 
L 599.418449 162.596588 
L 599.418449 112.065039 
L 593.038397 112.065039 
L 593.038397 99.822305 
z
" clip-path="url(#p6989a27d0f)" style="fill: #ff0000"/>
   </g>
   <g id="patch_115">
    <path d="M 629.368948 191.696199 
Q 627.583925 191.9681 625.664033 192.104671 
Q 623.744141 192.24 621.697314 192.24 
Q 617.07212 192.24 614.370785 191.430507 
Q 611.669449 190.621013 611.669449 189.23668 
Q 611.669449 187.836206 614.418385 187.032921 
Q 617.171288 186.229635 621.959118 186.229635 
Q 623.803642 186.229635 625.493464 186.338892 
Q 627.187253 186.446907 628.686673 186.660454 
L 628.686673 187.858554 
Q 627.139652 187.584171 625.608499 187.448841 
Q 624.077345 187.31227 622.538259 187.31227 
Q 619.690154 187.31227 618.147101 187.811375 
Q 616.604047 188.309239 616.604047 189.23668 
Q 616.604047 190.15543 618.091567 190.657018 
Q 619.579086 191.157365 622.316122 191.157365 
Q 623.061865 191.157365 623.700507 191.128809 
Q 624.339149 191.099011 624.846889 191.036934 
L 624.846889 189.912085 
L 621.931351 189.912085 
L 621.931351 188.910151 
L 629.368948 188.910151 
L 629.368948 191.696199 
z
" clip-path="url(#p6989a27d0f)" style="fill: #ffa600"/>
   </g>
   <g id="patch_116">
    <path d="M 623.929908 184.66549 
L 617.122965 184.66549 
L 616.048184 186.229635 
L 611.669449 186.229635 
L 617.922717 177.643399 
L 623.11568 177.643399 
L 629.368948 186.229635 
L 624.993832 186.229635 
L 623.929908 184.66549 
z
M 618.208602 183.071902 
L 622.833415 183.071902 
L 620.524627 179.656546 
L 618.208602 183.071902 
z
" clip-path="url(#p6989a27d0f)" style="fill: #008000"/>
   </g>
   <g id="patch_117">
    <path d="M 629.368948 176.904852 
Q 627.888416 177.270933 626.287478 177.456102 
Q 624.686541 177.643399 622.942902 177.643399 
Q 617.7432 177.643399 614.706325 176.255696 
Q 611.669449 174.867993 611.669449 172.49485 
Q 611.669449 170.113194 614.706325 168.727619 
Q 617.7432 167.339916 622.942902 167.339916 
Q 624.686541 167.339916 626.287478 167.527214 
Q 627.888416 167.712383 629.368948 168.078464 
L 629.368948 170.13235 
Q 627.875037 169.647079 626.425721 169.421471 
Q 624.976404 169.195863 623.375467 169.195863 
Q 620.503591 169.195863 618.858059 170.074883 
Q 617.216987 170.951775 617.216987 172.49485 
Q 617.216987 174.03154 618.858059 174.91056 
Q 620.503591 175.787453 623.375467 175.787453 
Q 624.976404 175.787453 626.425721 175.561844 
Q 627.875037 175.334108 629.368948 174.848837 
L 629.368948 176.904852 
z
" clip-path="url(#p6989a27d0f)" style="fill: #0000ff"/>
   </g>
   <g id="patch_118">
    <path d="M 611.669449 123.979425 
L 629.368948 123.979425 
L 629.368948 132.435929 
L 623.001245 132.435929 
L 623.001245 167.339916 
L 618.049501 167.339916 
L 618.049501 132.435929 
L 611.669449 132.435929 
L 611.669449 123.979425 
z
" clip-path="url(#p6989a27d0f)" style="fill: #ff0000"/>
   </g>
   <g id="patch_119">
    <path d="M 648 192.107046 
Q 646.519467 192.172948 644.91853 192.206282 
Q 643.317593 192.24 641.573954 192.24 
Q 636.374252 192.24 633.337376 191.990184 
Q 630.300501 191.740367 630.300501 191.313151 
Q 630.300501 190.884402 633.337376 190.634968 
Q 636.374252 190.385152 641.573954 190.385152 
Q 643.317593 190.385152 644.91853 190.41887 
Q 646.519467 190.452204 648 190.518107 
L 648 190.88785 
Q 646.506089 190.800491 645.056773 190.759877 
Q 643.607456 190.719262 642.006519 190.719262 
Q 639.134642 190.719262 637.489111 190.877505 
Q 635.848038 191.035364 635.848038 191.313151 
Q 635.848038 191.589788 637.489111 191.74803 
Q 639.134642 191.90589 642.006519 191.90589 
Q 643.607456 191.90589 645.056773 191.865276 
Q 646.506089 191.824278 648 191.736919 
L 648 192.107046 
z
" clip-path="url(#p6989a27d0f)" style="fill: #0000ff"/>
   </g>
   <g id="patch_120">
    <path d="M 648 189.522071 
Q 646.214977 189.953611 644.295085 190.170367 
Q 642.375193 190.385152 640.328366 190.385152 
Q 635.703172 190.385152 633.001836 189.100383 
Q 630.300501 187.815613 630.300501 185.618499 
Q 630.300501 183.395769 633.049437 182.120852 
Q 635.80234 180.845935 640.590169 180.845935 
Q 642.434694 180.845935 644.124516 181.019339 
Q 645.818305 181.190773 647.317724 181.5297 
L 647.317724 183.431238 
Q 645.770704 182.995756 644.239551 182.780971 
Q 642.708397 182.564216 641.16931 182.564216 
Q 638.321206 182.564216 636.778153 183.356359 
Q 635.235099 184.146532 635.235099 185.618499 
Q 635.235099 187.076673 636.722619 187.872758 
Q 638.210138 188.666871 640.947174 188.666871 
Q 641.692917 188.666871 642.331559 188.62155 
Q 642.970201 188.574258 643.477941 188.475732 
L 643.477941 186.690454 
L 640.562402 186.690454 
L 640.562402 185.100256 
L 648 185.100256 
L 648 189.522071 
z
" clip-path="url(#p6989a27d0f)" style="fill: #ffa600"/>
   </g>
   <g id="patch_121">
    <path d="M 630.300501 169.981826 
L 648 169.981826 
L 648 172.10063 
L 641.632296 172.10063 
L 641.632296 180.845935 
L 636.680553 180.845935 
L 636.680553 172.10063 
L 630.300501 172.10063 
L 630.300501 169.981826 
z
" clip-path="url(#p6989a27d0f)" style="fill: #ff0000"/>
   </g>
   <g id="patch_122">
    <path d="M 642.560959 166.361516 
L 635.754017 166.361516 
L 634.679236 169.981826 
L 630.300501 169.981826 
L 636.553769 150.108456 
L 641.746732 150.108456 
L 648 169.981826 
L 643.624884 169.981826 
L 642.560959 166.361516 
z
M 636.839653 162.67306 
L 641.464466 162.67306 
L 639.155679 154.768007 
L 636.839653 162.67306 
z
" clip-path="url(#p6989a27d0f)" style="fill: #008000"/>
   </g>
   <g id="matplotlib.axis_1">
    <g id="xtick_1">
     <g id="line2d_2">
      <defs>
       <path id="m925a848f2f" d="M 0 0 
L 0 3.5 
" style="stroke: #000000; stroke-width: 0.8"/>
      </defs>
      <g>
       <use xlink:href="#m925a848f2f" x="98.84975" y="192.24" style="stroke: #000000; stroke-width: 0.8"/>
      </g>
     </g>
     <g id="text_1">
      <!-- 0 -->
      <g transform="translate(95.6685 206.838437) scale(0.1 -0.1)">
       <defs>
        <path id="DejaVuSans-30" d="M 2034 4250 
Q 1547 4250 1301 3770 
Q 1056 3291 1056 2328 
Q 1056 1369 1301 889 
Q 1547 409 2034 409 
Q 2525 409 2770 889 
Q 3016 1369 3016 2328 
Q 3016 3291 2770 3770 
Q 2525 4250 2034 4250 
z
M 2034 4750 
Q 2819 4750 3233 4129 
Q 3647 3509 3647 2328 
Q 3647 1150 3233 529 
Q 2819 -91 2034 -91 
Q 1250 -91 836 529 
Q 422 1150 422 2328 
Q 422 3509 836 4129 
Q 1250 4750 2034 4750 
z
" transform="scale(0.015625)"/>
       </defs>
       <use xlink:href="#DejaVuSans-30"/>
      </g>
     </g>
    </g>
    <g id="xtick_2">
     <g id="line2d_3">
      <g>
       <use xlink:href="#m925a848f2f" x="192.005008" y="192.24" style="stroke: #000000; stroke-width: 0.8"/>
      </g>
     </g>
     <g id="text_2">
      <!-- 5 -->
      <g transform="translate(188.823758 206.838437) scale(0.1 -0.1)">
       <defs>
        <path id="DejaVuSans-35" d="M 691 4666 
L 3169 4666 
L 3169 4134 
L 1269 4134 
L 1269 2991 
Q 1406 3038 1543 3061 
Q 1681 3084 1819 3084 
Q 2600 3084 3056 2656 
Q 3513 2228 3513 1497 
Q 3513 744 3044 326 
Q 2575 -91 1722 -91 
Q 1428 -91 1123 -41 
Q 819 9 494 109 
L 494 744 
Q 775 591 1075 516 
Q 1375 441 1709 441 
Q 2250 441 2565 725 
Q 2881 1009 2881 1497 
Q 2881 1984 2565 2268 
Q 2250 2553 1709 2553 
Q 1456 2553 1204 2497 
Q 953 2441 691 2322 
L 691 4666 
z
" transform="scale(0.015625)"/>
       </defs>
       <use xlink:href="#DejaVuSans-35"/>
      </g>
     </g>
    </g>
    <g id="xtick_3">
     <g id="line2d_4">
      <g>
       <use xlink:href="#m925a848f2f" x="285.160267" y="192.24" style="stroke: #000000; stroke-width: 0.8"/>
      </g>
     </g>
     <g id="text_3">
      <!-- 10 -->
      <g transform="translate(278.797767 206.838437) scale(0.1 -0.1)">
       <defs>
        <path id="DejaVuSans-31" d="M 794 531 
L 1825 531 
L 1825 4091 
L 703 3866 
L 703 4441 
L 1819 4666 
L 2450 4666 
L 2450 531 
L 3481 531 
L 3481 0 
L 794 0 
L 794 531 
z
" transform="scale(0.015625)"/>
       </defs>
       <use xlink:href="#DejaVuSans-31"/>
       <use xlink:href="#DejaVuSans-30" x="63.623047"/>
      </g>
     </g>
    </g>
    <g id="xtick_4">
     <g id="line2d_5">
      <g>
       <use xlink:href="#m925a848f2f" x="378.315526" y="192.24" style="stroke: #000000; stroke-width: 0.8"/>
      </g>
     </g>
     <g id="text_4">
      <!-- 15 -->
      <g transform="translate(371.953026 206.838437) scale(0.1 -0.1)">
       <use xlink:href="#DejaVuSans-31"/>
       <use xlink:href="#DejaVuSans-35" x="63.623047"/>
      </g>
     </g>
    </g>
    <g id="xtick_5">
     <g id="line2d_6">
      <g>
       <use xlink:href="#m925a848f2f" x="471.470785" y="192.24" style="stroke: #000000; stroke-width: 0.8"/>
      </g>
     </g>
     <g id="text_5">
      <!-- 20 -->
      <g transform="translate(465.108285 206.838437) scale(0.1 -0.1)">
       <defs>
        <path id="DejaVuSans-32" d="M 1228 531 
L 3431 531 
L 3431 0 
L 469 0 
L 469 531 
Q 828 903 1448 1529 
Q 2069 2156 2228 2338 
Q 2531 2678 2651 2914 
Q 2772 3150 2772 3378 
Q 2772 3750 2511 3984 
Q 2250 4219 1831 4219 
Q 1534 4219 1204 4116 
Q 875 4013 500 3803 
L 500 4441 
Q 881 4594 1212 4672 
Q 1544 4750 1819 4750 
Q 2544 4750 2975 4387 
Q 3406 4025 3406 3419 
Q 3406 3131 3298 2873 
Q 3191 2616 2906 2266 
Q 2828 2175 2409 1742 
Q 1991 1309 1228 531 
z
" transform="scale(0.015625)"/>
       </defs>
       <use xlink:href="#DejaVuSans-32"/>
       <use xlink:href="#DejaVuSans-30" x="63.623047"/>
      </g>
     </g>
    </g>
    <g id="xtick_6">
     <g id="line2d_7">
      <g>
       <use xlink:href="#m925a848f2f" x="564.626043" y="192.24" style="stroke: #000000; stroke-width: 0.8"/>
      </g>
     </g>
     <g id="text_6">
      <!-- 25 -->
      <g transform="translate(558.263543 206.838437) scale(0.1 -0.1)">
       <use xlink:href="#DejaVuSans-32"/>
       <use xlink:href="#DejaVuSans-35" x="63.623047"/>
      </g>
     </g>
    </g>
   </g>
   <g id="matplotlib.axis_2">
    <g id="ytick_1">
     <g id="line2d_8">
      <defs>
       <path id="m81e478a3fb" d="M 0 0 
L -3.5 0 
" style="stroke: #000000; stroke-width: 0.8"/>
      </defs>
      <g>
       <use xlink:href="#m81e478a3fb" x="90" y="192.24" style="stroke: #000000; stroke-width: 0.8"/>
      </g>
     </g>
     <g id="text_7">
      <!-- 0.0 -->
      <g transform="translate(67.096875 196.039219) scale(0.1 -0.1)">
       <defs>
        <path id="DejaVuSans-2e" d="M 684 794 
L 1344 794 
L 1344 0 
L 684 0 
L 684 794 
z
" transform="scale(0.015625)"/>
       </defs>
       <use xlink:href="#DejaVuSans-30"/>
       <use xlink:href="#DejaVuSans-2e" x="63.623047"/>
       <use xlink:href="#DejaVuSans-30" x="95.410156"/>
      </g>
     </g>
    </g>
    <g id="ytick_2">
     <g id="line2d_9">
      <g>
       <use xlink:href="#m81e478a3fb" x="90" y="164.235337" style="stroke: #000000; stroke-width: 0.8"/>
      </g>
     </g>
     <g id="text_8">
      <!-- 0.2 -->
      <g transform="translate(67.096875 168.034556) scale(0.1 -0.1)">
       <use xlink:href="#DejaVuSans-30"/>
       <use xlink:href="#DejaVuSans-2e" x="63.623047"/>
       <use xlink:href="#DejaVuSans-32" x="95.410156"/>
      </g>
     </g>
    </g>
    <g id="ytick_3">
     <g id="line2d_10">
      <g>
       <use xlink:href="#m81e478a3fb" x="90" y="136.230674" style="stroke: #000000; stroke-width: 0.8"/>
      </g>
     </g>
     <g id="text_9">
      <!-- 0.4 -->
      <g transform="translate(67.096875 140.029892) scale(0.1 -0.1)">
       <defs>
        <path id="DejaVuSans-34" d="M 2419 4116 
L 825 1625 
L 2419 1625 
L 2419 4116 
z
M 2253 4666 
L 3047 4666 
L 3047 1625 
L 3713 1625 
L 3713 1100 
L 3047 1100 
L 3047 0 
L 2419 0 
L 2419 1100 
L 313 1100 
L 313 1709 
L 2253 4666 
z
" transform="scale(0.015625)"/>
       </defs>
       <use xlink:href="#DejaVuSans-30"/>
       <use xlink:href="#DejaVuSans-2e" x="63.623047"/>
       <use xlink:href="#DejaVuSans-34" x="95.410156"/>
      </g>
     </g>
    </g>
    <g id="ytick_4">
     <g id="line2d_11">
      <g>
       <use xlink:href="#m81e478a3fb" x="90" y="108.22601" style="stroke: #000000; stroke-width: 0.8"/>
      </g>
     </g>
     <g id="text_10">
      <!-- 0.6 -->
      <g transform="translate(67.096875 112.025229) scale(0.1 -0.1)">
       <defs>
        <path id="DejaVuSans-36" d="M 2113 2584 
Q 1688 2584 1439 2293 
Q 1191 2003 1191 1497 
Q 1191 994 1439 701 
Q 1688 409 2113 409 
Q 2538 409 2786 701 
Q 3034 994 3034 1497 
Q 3034 2003 2786 2293 
Q 2538 2584 2113 2584 
z
M 3366 4563 
L 3366 3988 
Q 3128 4100 2886 4159 
Q 2644 4219 2406 4219 
Q 1781 4219 1451 3797 
Q 1122 3375 1075 2522 
Q 1259 2794 1537 2939 
Q 1816 3084 2150 3084 
Q 2853 3084 3261 2657 
Q 3669 2231 3669 1497 
Q 3669 778 3244 343 
Q 2819 -91 2113 -91 
Q 1303 -91 875 529 
Q 447 1150 447 2328 
Q 447 3434 972 4092 
Q 1497 4750 2381 4750 
Q 2619 4750 2861 4703 
Q 3103 4656 3366 4563 
z
" transform="scale(0.015625)"/>
       </defs>
       <use xlink:href="#DejaVuSans-30"/>
       <use xlink:href="#DejaVuSans-2e" x="63.623047"/>
       <use xlink:href="#DejaVuSans-36" x="95.410156"/>
      </g>
     </g>
    </g>
    <g id="ytick_5">
     <g id="line2d_12">
      <g>
       <use xlink:href="#m81e478a3fb" x="90" y="80.221347" style="stroke: #000000; stroke-width: 0.8"/>
      </g>
     </g>
     <g id="text_11">
      <!-- 0.8 -->
      <g transform="translate(67.096875 84.020566) scale(0.1 -0.1)">
       <defs>
        <path id="DejaVuSans-38" d="M 2034 2216 
Q 1584 2216 1326 1975 
Q 1069 1734 1069 1313 
Q 1069 891 1326 650 
Q 1584 409 2034 409 
Q 2484 409 2743 651 
Q 3003 894 3003 1313 
Q 3003 1734 2745 1975 
Q 2488 2216 2034 2216 
z
M 1403 2484 
Q 997 2584 770 2862 
Q 544 3141 544 3541 
Q 544 4100 942 4425 
Q 1341 4750 2034 4750 
Q 2731 4750 3128 4425 
Q 3525 4100 3525 3541 
Q 3525 3141 3298 2862 
Q 3072 2584 2669 2484 
Q 3125 2378 3379 2068 
Q 3634 1759 3634 1313 
Q 3634 634 3220 271 
Q 2806 -91 2034 -91 
Q 1263 -91 848 271 
Q 434 634 434 1313 
Q 434 1759 690 2068 
Q 947 2378 1403 2484 
z
M 1172 3481 
Q 1172 3119 1398 2916 
Q 1625 2713 2034 2713 
Q 2441 2713 2670 2916 
Q 2900 3119 2900 3481 
Q 2900 3844 2670 4047 
Q 2441 4250 2034 4250 
Q 1625 4250 1398 4047 
Q 1172 3844 1172 3481 
z
" transform="scale(0.015625)"/>
       </defs>
       <use xlink:href="#DejaVuSans-30"/>
       <use xlink:href="#DejaVuSans-2e" x="63.623047"/>
       <use xlink:href="#DejaVuSans-38" x="95.410156"/>
      </g>
     </g>
    </g>
    <g id="ytick_6">
     <g id="line2d_13">
      <g>
       <use xlink:href="#m81e478a3fb" x="90" y="52.216684" style="stroke: #000000; stroke-width: 0.8"/>
      </g>
     </g>
     <g id="text_12">
      <!-- 1.0 -->
      <g transform="translate(67.096875 56.015903) scale(0.1 -0.1)">
       <use xlink:href="#DejaVuSans-31"/>
       <use xlink:href="#DejaVuSans-2e" x="63.623047"/>
       <use xlink:href="#DejaVuSans-30" x="95.410156"/>
      </g>
     </g>
    </g>
   </g>
  </g>
 </g>
 <defs>
  <clipPath id="p6989a27d0f">
   <rect x="90" y="25.92" width="558" height="166.32"/>
  </clipPath>
 </defs>
</svg>
