<?xml version="1.0" encoding="utf-8" standalone="no"?>
<!DOCTYPE svg PUBLIC "-//W3C//DTD SVG 1.1//EN"
  "http://www.w3.org/Graphics/SVG/1.1/DTD/svg11.dtd">
<svg xmlns:xlink="http://www.w3.org/1999/xlink" width="720pt" height="216pt" viewBox="0 0 720 216" xmlns="http://www.w3.org/2000/svg" version="1.1">
 <metadata>
  <rdf:RDF xmlns:dc="http://purl.org/dc/elements/1.1/" xmlns:cc="http://creativecommons.org/ns#" xmlns:rdf="http://www.w3.org/1999/02/22-rdf-syntax-ns#">
   <cc:Work>
    <dc:type rdf:resource="http://purl.org/dc/dcmitype/StillImage"/>
    <dc:date>2025-12-17T10:22:05.981296</dc:date>
    <dc:format>image/svg+xml</dc:format>
    <dc:creator>
     <cc:Agent>
      <dc:title>Matplotlib v3.8.2, https://matplotlib.org/</dc:title>
     </cc:Agent>
    </dc:creator>
   </cc:Work>
  </rdf:RDF>
 </metadata>
 <defs>
  <style type="text/css">*{stroke-linejoin: round; stroke-linecap: butt}</style>
 </defs>
 <g id="figure_1">
  <g id="patch_1">
   <path d="M 0 216 
L 720 216 
L 720 0 
L 0 0 
z
" style="fill: #ffffff"/>
  </g>
  <g id="axes_1">
   <g id="patch_2">
    <path d="M 90 192.24 
L 648 192.24 
L 648 25.92 
L 90 25.92 
z
" style="fill: #ffffff"/>
   </g>
   <g id="line2d_1">
    <path d="M 90 192.24 
L 648 192.24 
" clip-path="url(#p890e106329)" style="fill: none; stroke: #000000; stroke-width: 0.5; stroke-linecap: square"/>
   </g>
   <g id="patch_3">
    <path d="M 107.699499 192.025986 
Q 105.914476 192.132993 103.994584 192.186741 
Q 102.074692 192.24 100.027865 192.24 
Q 95.402671 192.24 92.701335 191.921421 
Q 90 191.602843 90 191.058035 
Q 90 190.506874 92.748936 190.190739 
Q 95.501839 189.874603 100.289668 189.874603 
Q 102.134193 189.874603 103.824015 189.917602 
Q 105.517804 189.960111 107.017224 190.044154 
L 107.017224 190.515669 
Q 105.470203 190.407685 103.93905 190.354426 
Q 102.407896 190.300678 100.868809 190.300678 
Q 98.020705 190.300678 96.477652 190.497102 
Q 94.934598 190.693037 94.934598 191.058035 
Q 94.934598 191.419611 96.422118 191.617013 
Q 97.909637 191.813926 100.646673 191.813926 
Q 101.392416 191.813926 102.031058 191.802687 
Q 102.6697 191.790961 103.17744 191.76653 
L 103.17744 191.323842 
L 100.261901 191.323842 
L 100.261901 190.929528 
L 107.699499 190.929528 
L 107.699499 192.025986 
z
" clip-path="url(#p890e106329)" style="fill: #ffa600"/>
   </g>
   <g id="patch_4">
    <path d="M 107.699499 189.516664 
Q 106.218967 189.694086 104.618029 189.783829 
Q 103.017092 189.874603 101.273453 189.874603 
Q 96.073751 189.874603 93.036876 189.202049 
Q 90 188.529494 90 187.379343 
Q 90 186.225066 93.036876 185.553543 
Q 96.073751 184.880988 101.273453 184.880988 
Q 103.017092 184.880988 104.618029 184.971762 
Q 106.218967 185.061505 107.699499 185.238928 
L 107.699499 186.23435 
Q 106.205588 185.999162 104.756272 185.88982 
Q 103.306955 185.780478 101.706018 185.780478 
Q 98.834142 185.780478 97.18861 186.206499 
Q 95.547538 186.631487 95.547538 187.379343 
Q 95.547538 188.124104 97.18861 188.550125 
Q 98.834142 188.975113 101.706018 188.975113 
Q 103.306955 188.975113 104.756272 188.865771 
Q 106.205588 188.755398 107.699499 188.52021 
L 107.699499 189.516664 
z
" clip-path="url(#p890e106329)" style="fill: #0000ff"/>
   </g>
   <g id="patch_5">
    <path d="M 90 172.475797 
L 107.699499 172.475797 
L 107.699499 174.895155 
L 101.331796 174.895155 
L 101.331796 184.880988 
L 96.380052 184.880988 
L 96.380052 174.895155 
L 90 174.895155 
L 90 172.475797 
z
" clip-path="url(#p890e106329)" style="fill: #ff0000"/>
   </g>
   <g id="patch_6">
    <path d="M 102.260459 169.239247 
L 95.453516 169.239247 
L 94.378735 172.475797 
L 90 172.475797 
L 96.253268 154.70904 
L 101.446231 154.70904 
L 107.699499 172.475797 
L 103.324383 172.475797 
L 102.260459 169.239247 
z
M 96.539153 165.941773 
L 101.163965 165.941773 
L 98.855178 158.87467 
L 96.539153 165.941773 
z
" clip-path="url(#p890e106329)" style="fill: #008000"/>
   </g>
   <g id="patch_7">
    <path d="M 126.330551 191.924802 
Q 124.545527 192.082401 122.625636 192.16156 
Q 120.705744 192.24 118.658917 192.24 
Q 114.033723 192.24 111.332387 191.7708 
Q 108.631052 191.301601 108.631052 190.499212 
Q 108.631052 189.687468 111.379988 189.221867 
Q 114.132891 188.756265 118.92072 188.756265 
Q 120.765244 188.756265 122.455067 188.819593 
Q 124.148856 188.882201 125.648275 189.005977 
L 125.648275 189.700421 
Q 124.101255 189.541383 122.570102 189.462943 
Q 121.038948 189.383784 119.499861 189.383784 
Q 116.651757 189.383784 115.108704 189.673075 
Q 113.56565 189.961648 113.56565 190.499212 
Q 113.56565 191.031739 115.053169 191.32247 
Q 116.540689 191.612482 119.277725 191.612482 
Q 120.023468 191.612482 120.66211 191.59593 
Q 121.300752 191.578659 121.808492 191.542677 
L 121.808492 190.890691 
L 118.892953 190.890691 
L 118.892953 190.309949 
L 126.330551 190.309949 
L 126.330551 191.924802 
z
" clip-path="url(#p890e106329)" style="fill: #ffa600"/>
   </g>
   <g id="patch_8">
    <path d="M 126.330551 188.402827 
Q 124.850018 188.578018 123.249081 188.666632 
Q 121.648144 188.756265 119.904504 188.756265 
Q 114.704803 188.756265 111.667927 188.092167 
Q 108.631052 187.428069 108.631052 186.292381 
Q 108.631052 185.152618 111.667927 184.489538 
Q 114.704803 183.825441 119.904504 183.825441 
Q 121.648144 183.825441 123.249081 183.915073 
Q 124.850018 184.003688 126.330551 184.178879 
L 126.330551 185.161785 
Q 124.83664 184.929554 123.387324 184.821587 
Q 121.938007 184.71362 120.33707 184.71362 
Q 117.465193 184.71362 115.819662 185.134284 
Q 114.178589 185.553928 114.178589 186.292381 
Q 114.178589 187.027777 115.819662 187.448441 
Q 117.465193 187.868085 120.33707 187.868085 
Q 121.938007 187.868085 123.387324 187.760118 
Q 124.83664 187.651133 126.330551 187.418902 
L 126.330551 188.402827 
z
" clip-path="url(#p890e106329)" style="fill: #0000ff"/>
   </g>
   <g id="patch_9">
    <path d="M 108.631052 174.606942 
L 126.330551 174.606942 
L 126.330551 176.404806 
L 119.962847 176.404806 
L 119.962847 183.825441 
L 115.011104 183.825441 
L 115.011104 176.404806 
L 108.631052 176.404806 
L 108.631052 174.606942 
z
" clip-path="url(#p890e106329)" style="fill: #ff0000"/>
   </g>
   <g id="patch_10">
    <path d="M 120.89151 170.847991 
L 114.084567 170.847991 
L 113.009787 174.606942 
L 108.631052 174.606942 
L 114.88432 153.972513 
L 120.077283 153.972513 
L 126.330551 174.606942 
L 121.955434 174.606942 
L 120.89151 170.847991 
z
M 115.170204 167.018284 
L 119.795017 167.018284 
L 117.48623 158.810504 
L 115.170204 167.018284 
z
" clip-path="url(#p890e106329)" style="fill: #008000"/>
   </g>
   <g id="patch_11">
    <path d="M 144.961603 192.015808 
Q 143.48107 192.126935 141.880133 192.183144 
Q 140.279195 192.24 138.535556 192.24 
Q 133.335855 192.24 130.298979 191.818752 
Q 127.262104 191.397504 127.262104 190.677119 
Q 127.262104 189.954149 130.298979 189.533547 
Q 133.335855 189.1123 138.535556 189.1123 
Q 140.279195 189.1123 141.880133 189.169155 
Q 143.48107 189.225365 144.961603 189.336491 
L 144.961603 189.959964 
Q 143.467692 189.812656 142.018375 189.744171 
Q 140.569059 189.675686 138.968121 189.675686 
Q 136.096245 189.675686 134.450713 189.94252 
Q 132.809641 190.208707 132.809641 190.677119 
Q 132.809641 191.143593 134.450713 191.410426 
Q 136.096245 191.676613 138.968121 191.676613 
Q 140.569059 191.676613 142.018375 191.608128 
Q 143.467692 191.538997 144.961603 191.39169 
L 144.961603 192.015808 
z
" clip-path="url(#p890e106329)" style="fill: #0000ff"/>
   </g>
   <g id="patch_12">
    <path d="M 144.961603 188.817272 
Q 143.176579 188.964786 141.256687 189.03888 
Q 139.336795 189.1123 137.289969 189.1123 
Q 132.664774 189.1123 129.963439 188.673126 
Q 127.262104 188.233953 127.262104 187.482913 
Q 127.262104 186.723116 130.01104 186.287311 
Q 132.763942 185.851506 137.551772 185.851506 
Q 139.396296 185.851506 141.086118 185.910781 
Q 142.779907 185.969382 144.279327 186.085238 
L 144.279327 186.735241 
Q 142.732307 186.58638 141.201153 186.51296 
Q 139.67 186.438866 138.130913 186.438866 
Q 135.282809 186.438866 133.739755 186.709645 
Q 132.196702 186.97975 132.196702 187.482913 
Q 132.196702 187.981361 133.684221 188.253487 
Q 135.171741 188.524939 137.908777 188.524939 
Q 138.65452 188.524939 139.293162 188.509447 
Q 139.931803 188.493281 140.439543 188.459602 
L 140.439543 187.84934 
L 137.524005 187.84934 
L 137.524005 187.305762 
L 144.961603 187.305762 
L 144.961603 188.817272 
z
" clip-path="url(#p890e106329)" style="fill: #ffa600"/>
   </g>
   <g id="patch_13">
    <path d="M 127.262104 179.662652 
L 144.961603 179.662652 
L 144.961603 180.869651 
L 138.593899 180.869651 
L 138.593899 185.851506 
L 133.642156 185.851506 
L 133.642156 180.869651 
L 127.262104 180.869651 
L 127.262104 179.662652 
z
" clip-path="url(#p890e106329)" style="fill: #ff0000"/>
   </g>
   <g id="patch_14">
    <path d="M 139.522562 177.626028 
L 132.715619 177.626028 
L 131.640839 179.662652 
L 127.262104 179.662652 
L 133.515372 168.482787 
L 138.708335 168.482787 
L 144.961603 179.662652 
L 140.586486 179.662652 
L 139.522562 177.626028 
z
M 133.801256 175.551068 
L 138.426069 175.551068 
L 136.117281 171.104041 
L 133.801256 175.551068 
z
" clip-path="url(#p890e106329)" style="fill: #008000"/>
   </g>
   <g id="patch_15">
    <path d="M 163.592654 192.026681 
Q 162.112122 192.132418 160.511185 192.185902 
Q 158.910247 192.24 157.166608 192.24 
Q 151.966906 192.24 148.930031 191.839181 
Q 145.893155 191.438362 145.893155 190.752912 
Q 145.893155 190.065003 148.930031 189.664799 
Q 151.966906 189.26398 157.166608 189.26398 
Q 158.910247 189.26398 160.511185 189.318078 
Q 162.112122 189.371562 163.592654 189.477299 
L 163.592654 190.070536 
Q 162.098744 189.930372 160.649427 189.865208 
Q 159.200111 189.800045 157.599173 189.800045 
Q 154.727297 189.800045 153.081765 190.053938 
Q 151.440693 190.307216 151.440693 190.752912 
Q 151.440693 191.196764 153.081765 191.450657 
Q 154.727297 191.703935 157.599173 191.703935 
Q 159.200111 191.703935 160.649427 191.638771 
Q 162.098744 191.572993 163.592654 191.432829 
L 163.592654 192.026681 
z
" clip-path="url(#p890e106329)" style="fill: #0000ff"/>
   </g>
   <g id="patch_16">
    <path d="M 163.592654 188.852466 
Q 161.807631 189.058223 159.887739 189.161571 
Q 157.967847 189.26398 155.92102 189.26398 
Q 151.295826 189.26398 148.594491 188.651407 
Q 145.893155 188.038835 145.893155 186.991261 
Q 145.893155 185.931472 148.642091 185.323598 
Q 151.394994 184.715723 156.182824 184.715723 
Q 158.027348 184.715723 159.71717 184.798401 
Q 161.410959 184.88014 162.910379 185.041739 
L 162.910379 185.948384 
Q 161.363358 185.740748 159.832205 185.63834 
Q 158.301052 185.534991 156.761965 185.534991 
Q 153.913861 185.534991 152.370807 185.912682 
Q 150.827753 186.289433 150.827753 186.991261 
Q 150.827753 187.686512 152.315273 188.066081 
Q 153.802792 188.444711 156.539828 188.444711 
Q 157.285572 188.444711 157.924213 188.423102 
Q 158.562855 188.400553 159.070595 188.353577 
L 159.070595 187.502364 
L 156.155057 187.502364 
L 156.155057 186.744165 
L 163.592654 186.744165 
L 163.592654 188.852466 
z
" clip-path="url(#p890e106329)" style="fill: #ffa600"/>
   </g>
   <g id="patch_17">
    <path d="M 145.893155 167.664437 
L 163.592654 167.664437 
L 163.592654 170.989913 
L 157.224951 170.989913 
L 157.224951 184.715723 
L 152.273207 184.715723 
L 152.273207 170.989913 
L 145.893155 170.989913 
L 145.893155 167.664437 
z
" clip-path="url(#p890e106329)" style="fill: #ff0000"/>
   </g>
   <g id="patch_18">
    <path d="M 158.153614 162.403309 
L 151.346671 162.403309 
L 150.27189 167.664437 
L 145.893155 167.664437 
L 152.146423 138.78394 
L 157.339386 138.78394 
L 163.592654 167.664437 
L 159.217538 167.664437 
L 158.153614 162.403309 
z
M 152.432308 157.043148 
L 157.057121 157.043148 
L 154.748333 145.555321 
L 152.432308 157.043148 
z
" clip-path="url(#p890e106329)" style="fill: #008000"/>
   </g>
   <g id="patch_19">
    <path d="M 182.223706 191.767418 
Q 180.438683 192.003709 178.518791 192.122394 
Q 176.598899 192.24 174.552072 192.24 
Q 169.926878 192.24 167.225542 191.536522 
Q 164.524207 190.833045 164.524207 189.630012 
Q 164.524207 188.412952 167.273143 187.71487 
Q 170.026046 187.016787 174.813876 187.016787 
Q 176.6584 187.016787 178.348222 187.111735 
Q 180.042011 187.205604 181.541431 187.391184 
L 181.541431 188.432374 
Q 179.99441 188.193925 178.463257 188.076319 
Q 176.932103 187.957634 175.393016 187.957634 
Q 172.544912 187.957634 171.001859 188.391373 
Q 169.458805 188.824034 169.458805 189.630012 
Q 169.458805 190.428437 170.946325 190.864334 
Q 172.433844 191.299153 175.17088 191.299153 
Q 175.916623 191.299153 176.555265 191.274337 
Q 177.193907 191.248442 177.701647 191.194494 
L 177.701647 190.216962 
L 174.786108 190.216962 
L 174.786108 189.346247 
L 182.223706 189.346247 
L 182.223706 191.767418 
z
" clip-path="url(#p890e106329)" style="fill: #ffa600"/>
   </g>
   <g id="patch_20">
    <path d="M 176.784666 185.798615 
L 169.977723 185.798615 
L 168.902942 187.016787 
L 164.524207 187.016787 
L 170.777475 180.329743 
L 175.970438 180.329743 
L 182.223706 187.016787 
L 177.84859 187.016787 
L 176.784666 185.798615 
z
M 171.06336 184.557514 
L 175.688172 184.557514 
L 173.379385 181.897601 
L 171.06336 184.557514 
z
" clip-path="url(#p890e106329)" style="fill: #008000"/>
   </g>
   <g id="patch_21">
    <path d="M 182.223706 179.836112 
Q 180.743174 180.080793 179.142236 180.204557 
Q 177.541299 180.329743 175.79766 180.329743 
Q 170.597958 180.329743 167.561083 179.402228 
Q 164.524207 178.474713 164.524207 176.888548 
Q 164.524207 175.296694 167.561083 174.370601 
Q 170.597958 173.443086 175.79766 173.443086 
Q 177.541299 173.443086 179.142236 173.568272 
Q 180.743174 173.692036 182.223706 173.936718 
L 182.223706 175.309497 
Q 180.729795 174.985151 179.280479 174.834359 
Q 177.831162 174.683566 176.230225 174.683566 
Q 173.358349 174.683566 171.712817 175.271087 
Q 170.071745 175.857186 170.071745 176.888548 
Q 170.071745 177.915643 171.712817 178.503164 
Q 173.358349 179.089263 176.230225 179.089263 
Q 177.831162 179.089263 179.280479 178.93847 
Q 180.729795 178.786256 182.223706 178.46191 
L 182.223706 179.836112 
z
" clip-path="url(#p890e106329)" style="fill: #0000ff"/>
   </g>
   <g id="patch_22">
    <path d="M 164.524207 144.732048 
L 182.223706 144.732048 
L 182.223706 150.3315 
L 175.856003 150.3315 
L 175.856003 173.443086 
L 170.904259 173.443086 
L 170.904259 150.3315 
L 164.524207 150.3315 
L 164.524207 144.732048 
z
" clip-path="url(#p890e106329)" style="fill: #ff0000"/>
   </g>
   <g id="patch_23">
    <path d="M 200.854758 191.905245 
Q 199.069734 192.072622 197.149843 192.156693 
Q 195.229951 192.24 193.183124 192.24 
Q 188.55793 192.24 185.856594 191.741688 
Q 183.155259 191.243377 183.155259 190.391203 
Q 183.155259 189.529094 185.904195 189.034603 
Q 188.657098 188.540113 193.444927 188.540113 
Q 195.289451 188.540113 196.979274 188.60737 
Q 198.673063 188.673863 200.172482 188.805319 
L 200.172482 189.542851 
Q 198.625462 189.373944 197.094309 189.290638 
Q 195.563155 189.206567 194.024068 189.206567 
Q 191.175964 189.206567 189.632911 189.513808 
Q 188.089857 189.820285 188.089857 190.391203 
Q 188.089857 190.956771 189.577376 191.265541 
Q 191.064896 191.573547 193.801932 191.573547 
Q 194.547675 191.573547 195.186317 191.555968 
Q 195.824959 191.537625 196.332699 191.499411 
L 196.332699 190.806972 
L 193.41716 190.806972 
L 193.41716 190.190197 
L 200.854758 190.190197 
L 200.854758 191.905245 
z
" clip-path="url(#p890e106329)" style="fill: #ffa600"/>
   </g>
   <g id="patch_24">
    <path d="M 200.854758 188.250465 
Q 199.374225 188.394037 197.773288 188.466658 
Q 196.172351 188.540113 194.428711 188.540113 
Q 189.22901 188.540113 186.192134 187.995874 
Q 183.155259 187.451636 183.155259 186.52092 
Q 183.155259 185.586866 186.192134 185.043462 
Q 189.22901 184.499223 194.428711 184.499223 
Q 196.172351 184.499223 197.773288 184.572679 
Q 199.374225 184.6453 200.854758 184.788872 
L 200.854758 185.594379 
Q 199.360847 185.404062 197.911531 185.315581 
Q 196.462214 185.227101 194.861277 185.227101 
Q 191.9894 185.227101 190.343869 185.571841 
Q 188.702796 185.915747 188.702796 186.52092 
Q 188.702796 187.12359 190.343869 187.46833 
Q 191.9894 187.812236 194.861277 187.812236 
Q 196.462214 187.812236 197.911531 187.723755 
Q 199.360847 187.63444 200.854758 187.444123 
L 200.854758 188.250465 
z
" clip-path="url(#p890e106329)" style="fill: #0000ff"/>
   </g>
   <g id="patch_25">
    <path d="M 183.155259 169.887228 
L 200.854758 169.887228 
L 200.854758 172.736974 
L 194.487054 172.736974 
L 194.487054 184.499223 
L 189.535311 184.499223 
L 189.535311 172.736974 
L 183.155259 172.736974 
L 183.155259 169.887228 
z
" clip-path="url(#p890e106329)" style="fill: #ff0000"/>
   </g>
   <g id="patch_26">
    <path d="M 195.415717 165.088442 
L 188.608774 165.088442 
L 187.533994 169.887228 
L 183.155259 169.887228 
L 189.408527 143.544716 
L 194.60149 143.544716 
L 200.854758 169.887228 
L 196.479641 169.887228 
L 195.415717 165.088442 
z
M 189.694411 160.199326 
L 194.319224 160.199326 
L 192.010437 149.721036 
L 189.694411 160.199326 
z
" clip-path="url(#p890e106329)" style="fill: #008000"/>
   </g>
   <g id="patch_27">
    <path d="M 219.48581 191.856679 
Q 218.005277 192.046682 216.40434 192.142789 
Q 214.803402 192.24 213.059763 192.24 
Q 207.860062 192.24 204.823186 191.519754 
Q 201.786311 190.799508 201.786311 189.567798 
Q 201.786311 188.33167 204.823186 187.612528 
Q 207.860062 186.892282 213.059763 186.892282 
Q 214.803402 186.892282 216.40434 186.989493 
Q 218.005277 187.0856 219.48581 187.275603 
L 219.48581 188.341612 
Q 217.991899 188.089747 216.542582 187.972652 
Q 215.093266 187.855556 213.492328 187.855556 
Q 210.620452 187.855556 208.97492 188.311786 
Q 207.333848 188.766911 207.333848 189.567798 
Q 207.333848 190.365371 208.97492 190.821601 
Q 210.620452 191.276726 213.492328 191.276726 
Q 215.093266 191.276726 216.542582 191.159631 
Q 217.991899 191.041431 219.48581 190.789565 
L 219.48581 191.856679 
z
" clip-path="url(#p890e106329)" style="fill: #0000ff"/>
   </g>
   <g id="patch_28">
    <path d="M 219.48581 186.176546 
Q 217.700786 186.534414 215.780894 186.714165 
Q 213.861002 186.892282 211.814176 186.892282 
Q 207.188981 186.892282 204.487646 185.826849 
Q 201.786311 184.761415 201.786311 182.939394 
Q 201.786311 181.096129 204.535247 180.038866 
Q 207.288149 178.981603 212.075979 178.981603 
Q 213.920503 178.981603 215.610325 179.125404 
Q 217.304114 179.26757 218.803534 179.548636 
L 218.803534 181.125542 
Q 217.256514 180.764406 215.72536 180.586289 
Q 214.194207 180.406538 212.65512 180.406538 
Q 209.807016 180.406538 208.263962 181.063447 
Q 206.720909 181.718721 206.720909 182.939394 
Q 206.720909 184.148628 208.208428 184.808804 
Q 209.695948 185.467347 212.432984 185.467347 
Q 213.178727 185.467347 213.817369 185.429762 
Q 214.45601 185.390544 214.96375 185.308839 
L 214.96375 183.828344 
L 212.048212 183.828344 
L 212.048212 182.509625 
L 219.48581 182.509625 
L 219.48581 186.176546 
z
" clip-path="url(#p890e106329)" style="fill: #ffa600"/>
   </g>
   <g id="patch_29">
    <path d="M 201.786311 169.888018 
L 219.48581 169.888018 
L 219.48581 171.66152 
L 213.118106 171.66152 
L 213.118106 178.981603 
L 208.166363 178.981603 
L 208.166363 171.66152 
L 201.786311 171.66152 
L 201.786311 169.888018 
z
" clip-path="url(#p890e106329)" style="fill: #ff0000"/>
   </g>
   <g id="patch_30">
    <path d="M 214.046769 161.138286 
L 207.239826 161.138286 
L 206.165046 169.888018 
L 201.786311 169.888018 
L 208.039579 121.857133 
L 213.232542 121.857133 
L 219.48581 169.888018 
L 215.110693 169.888018 
L 214.046769 161.138286 
z
M 208.325463 152.223852 
L 212.950276 152.223852 
L 210.641488 133.118554 
L 208.325463 152.223852 
z
" clip-path="url(#p890e106329)" style="fill: #008000"/>
   </g>
   <g id="patch_31">
    <path d="M 238.116861 191.893854 
Q 236.331838 192.066927 234.411946 192.153859 
Q 232.492054 192.24 230.445227 192.24 
Q 225.820033 192.24 223.118698 191.724732 
Q 220.417362 191.209464 220.417362 190.328293 
Q 220.417362 189.436847 223.166298 188.925531 
Q 225.919201 188.414214 230.707031 188.414214 
Q 232.551555 188.414214 234.241377 188.48376 
Q 235.935166 188.552515 237.434586 188.688444 
L 237.434586 189.451073 
Q 235.887565 189.276419 234.356412 189.190278 
Q 232.825259 189.103346 231.286172 189.103346 
Q 228.438068 189.103346 226.895014 189.421042 
Q 225.35196 189.737947 225.35196 190.328293 
Q 225.35196 190.913106 226.83948 191.232382 
Q 228.327 191.550869 231.064035 191.550869 
Q 231.809779 191.550869 232.44842 191.532692 
Q 233.087062 191.513725 233.594802 191.474211 
L 233.594802 190.758209 
L 230.679264 190.758209 
L 230.679264 190.120447 
L 238.116861 190.120447 
L 238.116861 191.893854 
z
" clip-path="url(#p890e106329)" style="fill: #ffa600"/>
   </g>
   <g id="patch_32">
    <path d="M 238.116861 188.107362 
Q 236.636329 188.259462 235.035392 188.336396 
Q 233.434454 188.414214 231.690815 188.414214 
Q 226.491113 188.414214 223.454238 187.837651 
Q 220.417362 187.261087 220.417362 186.275092 
Q 220.417362 185.28556 223.454238 184.709881 
Q 226.491113 184.133317 231.690815 184.133317 
Q 233.434454 184.133317 235.035392 184.211135 
Q 236.636329 184.288069 238.116861 184.440169 
L 238.116861 185.293519 
Q 236.622951 185.091898 235.173634 184.998162 
Q 233.724318 184.904427 232.12338 184.904427 
Q 229.251504 184.904427 227.605972 185.269643 
Q 225.9649 185.633974 225.9649 186.275092 
Q 225.9649 186.913557 227.605972 187.278773 
Q 229.251504 187.643105 232.12338 187.643105 
Q 233.724318 187.643105 235.173634 187.549369 
Q 236.622951 187.454749 238.116861 187.253128 
L 238.116861 188.107362 
z
" clip-path="url(#p890e106329)" style="fill: #0000ff"/>
   </g>
   <g id="patch_33">
    <path d="M 220.417362 173.480851 
L 238.116861 173.480851 
L 238.116861 175.558378 
L 231.749158 175.558378 
L 231.749158 184.133317 
L 226.797414 184.133317 
L 226.797414 175.558378 
L 220.417362 175.558378 
L 220.417362 173.480851 
z
" clip-path="url(#p890e106329)" style="fill: #ff0000"/>
   </g>
   <g id="patch_34">
    <path d="M 232.677821 169.498712 
L 225.870878 169.498712 
L 224.796097 173.480851 
L 220.417362 173.480851 
L 226.67063 151.62125 
L 231.863593 151.62125 
L 238.116861 173.480851 
L 233.741745 173.480851 
L 232.677821 169.498712 
z
M 226.956515 165.441615 
L 231.581328 165.441615 
L 229.27254 156.746498 
L 226.956515 165.441615 
z
" clip-path="url(#p890e106329)" style="fill: #008000"/>
   </g>
   <g id="patch_35">
    <path d="M 256.747913 191.940578 
Q 254.96289 192.090289 253.042998 192.165486 
Q 251.123106 192.24 249.076279 192.24 
Q 244.451085 192.24 241.74975 191.794285 
Q 239.048414 191.34857 239.048414 190.586342 
Q 239.048414 189.815228 241.79735 189.372931 
Q 244.550253 188.930634 249.338083 188.930634 
Q 251.182607 188.930634 252.872429 188.990792 
Q 254.566218 189.050266 256.065638 189.167847 
L 256.065638 189.827533 
Q 254.518617 189.676455 252.987464 189.601941 
Q 251.45631 189.526743 249.917223 189.526743 
Q 247.069119 189.526743 245.526066 189.801556 
Q 243.983012 190.075684 243.983012 190.586342 
Q 243.983012 191.092215 245.470532 191.368395 
Q 246.958051 191.64389 249.695087 191.64389 
Q 250.44083 191.64389 251.079472 191.628167 
Q 251.718114 191.61176 252.225854 191.57758 
L 252.225854 190.958227 
L 249.310315 190.958227 
L 249.310315 190.406552 
L 256.747913 190.406552 
L 256.747913 191.940578 
z
" clip-path="url(#p890e106329)" style="fill: #ffa600"/>
   </g>
   <g id="patch_36">
    <path d="M 256.747913 188.669028 
Q 255.267381 188.7987 253.666443 188.86429 
Q 252.065506 188.930634 250.321867 188.930634 
Q 245.122165 188.930634 242.08529 188.439087 
Q 239.048414 187.94754 239.048414 187.106934 
Q 239.048414 186.263313 242.08529 185.77252 
Q 245.122165 185.280973 250.321867 185.280973 
Q 252.065506 185.280973 253.666443 185.347316 
Q 255.267381 185.412906 256.747913 185.542578 
L 256.747913 186.270098 
Q 255.254002 186.098207 253.804686 186.018293 
Q 252.355369 185.938379 250.754432 185.938379 
Q 247.882556 185.938379 246.237024 186.249742 
Q 244.595952 186.560352 244.595952 187.106934 
Q 244.595952 187.651254 246.237024 187.962618 
Q 247.882556 188.273227 250.754432 188.273227 
Q 252.355369 188.273227 253.804686 188.193313 
Q 255.254002 188.112645 256.747913 187.940755 
L 256.747913 188.669028 
z
" clip-path="url(#p890e106329)" style="fill: #0000ff"/>
   </g>
   <g id="patch_37">
    <path d="M 251.308873 184.287565 
L 244.50193 184.287565 
L 243.427149 185.280973 
L 239.048414 185.280973 
L 245.301682 179.827749 
L 250.494645 179.827749 
L 256.747913 185.280973 
L 252.372797 185.280973 
L 251.308873 184.287565 
z
M 245.587567 183.275458 
L 250.212379 183.275458 
L 247.903592 181.106323 
L 245.587567 183.275458 
z
" clip-path="url(#p890e106329)" style="fill: #008000"/>
   </g>
   <g id="patch_38">
    <path d="M 239.048414 167.942956 
L 256.747913 167.942956 
L 256.747913 170.260822 
L 250.38021 170.260822 
L 250.38021 179.827749 
L 245.428466 179.827749 
L 245.428466 170.260822 
L 239.048414 170.260822 
L 239.048414 167.942956 
z
" clip-path="url(#p890e106329)" style="fill: #ff0000"/>
   </g>
   <g id="patch_39">
    <path d="M 275.378965 191.89568 
Q 273.593941 192.06784 271.67405 192.154313 
Q 269.754158 192.24 267.707331 192.24 
Q 263.082137 192.24 260.380801 191.72745 
Q 257.679466 191.2149 257.679466 190.338377 
Q 257.679466 189.451634 260.428402 188.943015 
Q 263.181305 188.434395 267.969134 188.434395 
Q 269.813659 188.434395 271.503481 188.503574 
Q 273.19727 188.571966 274.696689 188.707179 
L 274.696689 189.465784 
Q 273.149669 189.292052 271.618516 189.206365 
Q 270.087362 189.119892 268.548275 189.119892 
Q 265.700171 189.119892 264.157118 189.435912 
Q 262.614064 189.751146 262.614064 190.338377 
Q 262.614064 190.920105 264.101583 191.237698 
Q 265.589103 191.554504 268.326139 191.554504 
Q 269.071882 191.554504 269.710524 191.536423 
Q 270.349166 191.517556 270.856906 191.47825 
L 270.856906 190.766026 
L 267.941367 190.766026 
L 267.941367 190.131627 
L 275.378965 190.131627 
L 275.378965 191.89568 
z
" clip-path="url(#p890e106329)" style="fill: #ffa600"/>
   </g>
   <g id="patch_40">
    <path d="M 275.378965 188.155359 
Q 273.898432 188.293671 272.297495 188.363631 
Q 270.696558 188.434395 268.952919 188.434395 
Q 263.753217 188.434395 260.716341 187.910096 
Q 257.679466 187.385798 257.679466 186.489182 
Q 257.679466 185.58935 260.716341 185.065855 
Q 263.753217 184.541556 268.952919 184.541556 
Q 270.696558 184.541556 272.297495 184.612321 
Q 273.898432 184.682281 275.378965 184.820593 
L 275.378965 185.596587 
Q 273.885054 185.413243 272.435738 185.328005 
Q 270.986421 185.242766 269.385484 185.242766 
Q 266.513607 185.242766 264.868076 185.574876 
Q 263.227003 185.906181 263.227003 186.489182 
Q 263.227003 187.069771 264.868076 187.40188 
Q 266.513607 187.733186 269.385484 187.733186 
Q 270.986421 187.733186 272.435738 187.647947 
Q 273.885054 187.561904 275.378965 187.37856 
L 275.378965 188.155359 
z
" clip-path="url(#p890e106329)" style="fill: #0000ff"/>
   </g>
   <g id="patch_41">
    <path d="M 269.939924 183.1888 
L 263.132981 183.1888 
L 262.058201 184.541556 
L 257.679466 184.541556 
L 263.932734 177.11572 
L 269.125697 177.11572 
L 275.378965 184.541556 
L 271.003849 184.541556 
L 269.939924 183.1888 
z
M 264.218618 181.81058 
L 268.843431 181.81058 
L 266.534644 178.856797 
L 264.218618 181.81058 
z
" clip-path="url(#p890e106329)" style="fill: #008000"/>
   </g>
   <g id="patch_42">
    <path d="M 257.679466 161.097287 
L 275.378965 161.097287 
L 275.378965 164.221328 
L 269.011261 164.221328 
L 269.011261 177.11572 
L 264.059518 177.11572 
L 264.059518 164.221328 
L 257.679466 164.221328 
L 257.679466 161.097287 
z
" clip-path="url(#p890e106329)" style="fill: #ff0000"/>
   </g>
   <g id="patch_43">
    <path d="M 294.010017 191.897911 
Q 292.224993 192.068956 290.305101 192.154868 
Q 288.385209 192.24 286.338383 192.24 
Q 281.713188 192.24 279.011853 191.730772 
Q 276.310518 191.221543 276.310518 190.3507 
Q 276.310518 189.469704 279.059454 188.964381 
Q 281.812356 188.459058 286.600186 188.459058 
Q 288.44471 188.459058 290.134532 188.527788 
Q 291.828321 188.595737 293.327741 188.730073 
L 293.327741 189.483763 
Q 291.780721 189.311156 290.249567 189.226024 
Q 288.718414 189.140112 287.179327 189.140112 
Q 284.331223 189.140112 282.788169 189.454084 
Q 281.245116 189.767275 281.245116 190.3507 
Q 281.245116 190.928659 282.732635 191.244193 
Q 284.220155 191.558946 286.957191 191.558946 
Q 287.702934 191.558946 288.341576 191.540983 
Q 288.980217 191.522238 289.487957 191.483187 
L 289.487957 190.775578 
L 286.572419 190.775578 
L 286.572419 190.145291 
L 294.010017 190.145291 
L 294.010017 191.897911 
z
" clip-path="url(#p890e106329)" style="fill: #ffa600"/>
   </g>
   <g id="patch_44">
    <path d="M 288.570976 187.066544 
L 281.764033 187.066544 
L 280.689253 188.459058 
L 276.310518 188.459058 
L 282.563786 180.814979 
L 287.756749 180.814979 
L 294.010017 188.459058 
L 289.6349 188.459058 
L 288.570976 187.066544 
z
M 282.84967 185.647819 
L 287.474483 185.647819 
L 285.165695 182.607225 
L 282.84967 185.647819 
z
" clip-path="url(#p890e106329)" style="fill: #008000"/>
   </g>
   <g id="patch_45">
    <path d="M 294.010017 180.084415 
Q 292.529484 180.446539 290.928547 180.629706 
Q 289.32761 180.814979 287.58397 180.814979 
Q 282.384269 180.814979 279.347393 179.442276 
Q 276.310518 178.069574 276.310518 175.722084 
Q 276.310518 173.366173 279.347393 171.995576 
Q 282.384269 170.622873 287.58397 170.622873 
Q 289.32761 170.622873 290.928547 170.808146 
Q 292.529484 170.991313 294.010017 171.353437 
L 294.010017 173.385121 
Q 292.516106 172.905096 291.066789 172.681927 
Q 289.617473 172.458758 288.016535 172.458758 
Q 285.144659 172.458758 283.499127 173.328276 
Q 281.858055 174.195689 281.858055 175.722084 
Q 281.858055 177.242163 283.499127 178.111681 
Q 285.144659 178.979094 288.016535 178.979094 
Q 289.617473 178.979094 291.066789 178.755925 
Q 292.516106 178.53065 294.010017 178.050625 
L 294.010017 180.084415 
z
" clip-path="url(#p890e106329)" style="fill: #0000ff"/>
   </g>
   <g id="patch_46">
    <path d="M 276.310518 133.5532 
L 294.010017 133.5532 
L 294.010017 140.782819 
L 287.642313 140.782819 
L 287.642313 170.622873 
L 282.69057 170.622873 
L 282.69057 140.782819 
L 276.310518 140.782819 
L 276.310518 133.5532 
z
" clip-path="url(#p890e106329)" style="fill: #ff0000"/>
   </g>
   <g id="patch_47">
    <path d="M 312.641068 192.056096 
Q 311.160536 192.147253 309.559599 192.193361 
Q 307.958661 192.24 306.215022 192.24 
Q 301.01532 192.24 297.978445 191.894451 
Q 294.941569 191.548901 294.941569 190.95797 
Q 294.941569 190.364918 297.978445 190.019899 
Q 301.01532 189.67435 306.215022 189.67435 
Q 307.958661 189.67435 309.559599 189.720988 
Q 311.160536 189.767097 312.641068 189.858254 
L 312.641068 190.369688 
Q 311.147158 190.248852 309.697841 190.192674 
Q 308.248525 190.136495 306.647587 190.136495 
Q 303.775711 190.136495 302.130179 190.355379 
Q 300.489107 190.573732 300.489107 190.95797 
Q 300.489107 191.340618 302.130179 191.559501 
Q 303.775711 191.777854 306.647587 191.777854 
Q 308.248525 191.777854 309.697841 191.721676 
Q 311.147158 191.664968 312.641068 191.544132 
L 312.641068 192.056096 
z
" clip-path="url(#p890e106329)" style="fill: #0000ff"/>
   </g>
   <g id="patch_48">
    <path d="M 312.641068 189.388648 
Q 310.856045 189.531499 308.936153 189.60325 
Q 307.016261 189.67435 304.969434 189.67435 
Q 300.34424 189.67435 297.642905 189.249058 
Q 294.941569 188.823767 294.941569 188.096467 
Q 294.941569 187.360686 297.690505 186.938656 
Q 300.443408 186.516626 305.231238 186.516626 
Q 307.075762 186.516626 308.765584 186.574028 
Q 310.459373 186.630777 311.958793 186.74297 
L 311.958793 187.372428 
Q 310.411772 187.228272 308.880619 187.157173 
Q 307.349466 187.085421 305.810379 187.085421 
Q 302.962275 187.085421 301.419221 187.347641 
Q 299.876167 187.609208 299.876167 188.096467 
Q 299.876167 188.579159 301.363687 188.842683 
Q 302.851207 189.105555 305.588242 189.105555 
Q 306.333986 189.105555 306.972627 189.090553 
Q 307.611269 189.074898 308.119009 189.042283 
L 308.119009 188.451311 
L 305.203471 188.451311 
L 305.203471 187.924915 
L 312.641068 187.924915 
L 312.641068 189.388648 
z
" clip-path="url(#p890e106329)" style="fill: #ffa600"/>
   </g>
   <g id="patch_49">
    <path d="M 294.941569 181.103386 
L 312.641068 181.103386 
L 312.641068 182.159119 
L 306.273365 182.159119 
L 306.273365 186.516626 
L 301.321621 186.516626 
L 301.321621 182.159119 
L 294.941569 182.159119 
L 294.941569 181.103386 
z
" clip-path="url(#p890e106329)" style="fill: #ff0000"/>
   </g>
   <g id="patch_50">
    <path d="M 307.202028 179.464983 
L 300.395085 179.464983 
L 299.320305 181.103386 
L 294.941569 181.103386 
L 301.194837 172.109514 
L 306.3878 172.109514 
L 312.641068 181.103386 
L 308.265952 181.103386 
L 307.202028 179.464983 
z
M 301.480722 177.795738 
L 306.105535 177.795738 
L 303.796747 174.218236 
L 301.480722 177.795738 
z
" clip-path="url(#p890e106329)" style="fill: #008000"/>
   </g>
   <g id="patch_51">
    <path d="M 331.27212 192.013984 
Q 329.487097 192.126992 327.567205 192.183754 
Q 325.647313 192.24 323.600486 192.24 
Q 318.975292 192.24 316.273957 191.903557 
Q 313.572621 191.567113 313.572621 190.991753 
Q 313.572621 190.409686 316.321557 190.075822 
Q 319.07446 189.741959 323.86229 189.741959 
Q 325.706814 189.741959 327.396636 189.787368 
Q 329.090425 189.832262 330.589845 189.921017 
L 330.589845 190.418974 
Q 329.042824 190.304934 327.511671 190.248688 
Q 325.980517 190.191926 324.44143 190.191926 
Q 321.593326 190.191926 320.050273 190.399365 
Q 318.507219 190.606288 318.507219 190.991753 
Q 318.507219 191.373606 319.994739 191.582078 
Q 321.482258 191.790033 324.219294 191.790033 
Q 324.965037 191.790033 325.603679 191.778164 
Q 326.242321 191.76578 326.750061 191.739979 
L 326.750061 191.272467 
L 323.834523 191.272467 
L 323.834523 190.856041 
L 331.27212 190.856041 
L 331.27212 192.013984 
z
" clip-path="url(#p890e106329)" style="fill: #ffa600"/>
   </g>
   <g id="patch_52">
    <path d="M 331.27212 189.51077 
Q 329.791588 189.625365 328.19065 189.683329 
Q 326.589713 189.741959 324.846074 189.741959 
Q 319.646372 189.741959 316.609497 189.307563 
Q 313.572621 188.873168 313.572621 188.130299 
Q 313.572621 187.384764 316.609497 186.951035 
Q 319.646372 186.51664 324.846074 186.51664 
Q 326.589713 186.51664 328.19065 186.57527 
Q 329.791588 186.633234 331.27212 186.747829 
L 331.27212 187.390761 
Q 329.778209 187.238855 328.328893 187.168233 
Q 326.879576 187.09761 325.278639 187.09761 
Q 322.406763 187.09761 320.761231 187.372772 
Q 319.120159 187.647267 319.120159 188.130299 
Q 319.120159 188.611332 320.761231 188.886493 
Q 322.406763 189.160988 325.278639 189.160988 
Q 326.879576 189.160988 328.328893 189.090366 
Q 329.778209 189.019077 331.27212 188.867172 
L 331.27212 189.51077 
z
" clip-path="url(#p890e106329)" style="fill: #0000ff"/>
   </g>
   <g id="patch_53">
    <path d="M 313.572621 179.117379 
L 331.27212 179.117379 
L 331.27212 180.560441 
L 324.904417 180.560441 
L 324.904417 186.51664 
L 319.952673 186.51664 
L 319.952673 180.560441 
L 313.572621 180.560441 
L 313.572621 179.117379 
z
" clip-path="url(#p890e106329)" style="fill: #ff0000"/>
   </g>
   <g id="patch_54">
    <path d="M 325.83308 177.395043 
L 319.026137 177.395043 
L 317.951356 179.117379 
L 313.572621 179.117379 
L 319.825889 169.662767 
L 325.018852 169.662767 
L 331.27212 179.117379 
L 326.897004 179.117379 
L 325.83308 177.395043 
z
M 320.111774 175.640286 
L 324.736586 175.640286 
L 322.427799 171.879515 
L 320.111774 175.640286 
z
" clip-path="url(#p890e106329)" style="fill: #008000"/>
   </g>
   <g id="patch_55">
    <path d="M 349.903172 191.917882 
Q 348.118149 192.078941 346.198257 192.159838 
Q 344.278365 192.24 342.231538 192.24 
Q 337.606344 192.24 334.905008 191.760501 
Q 332.203673 191.281001 332.203673 190.460999 
Q 332.203673 189.631435 334.952609 189.155613 
Q 337.705512 188.679791 342.493341 188.679791 
Q 344.337866 188.679791 346.027688 188.744509 
Q 347.721477 188.808491 349.220896 188.934985 
L 349.220896 189.644673 
Q 347.673876 189.482143 346.142723 189.401982 
Q 344.611569 189.321085 343.072482 189.321085 
Q 340.224378 189.321085 338.681325 189.616727 
Q 337.138271 189.911634 337.138271 190.460999 
Q 337.138271 191.005216 338.62579 191.302329 
Q 340.11331 191.598706 342.850346 191.598706 
Q 343.596089 191.598706 344.234731 191.581792 
Q 344.873373 191.564141 345.381113 191.52737 
L 345.381113 190.861072 
L 342.465574 190.861072 
L 342.465574 190.267581 
L 349.903172 190.267581 
L 349.903172 191.917882 
z
" clip-path="url(#p890e106329)" style="fill: #ffa600"/>
   </g>
   <g id="patch_56">
    <path d="M 349.903172 188.213961 
Q 348.422639 188.444863 346.821702 188.561656 
Q 345.220765 188.679791 343.477126 188.679791 
Q 338.277424 188.679791 335.240548 187.804515 
Q 332.203673 186.929238 332.203673 185.432408 
Q 332.203673 183.930208 335.240548 183.056274 
Q 338.277424 182.180997 343.477126 182.180997 
Q 345.220765 182.180997 346.821702 182.299133 
Q 348.422639 182.415926 349.903172 182.646827 
L 349.903172 183.94229 
Q 348.409261 183.636211 346.959945 183.493912 
Q 345.510628 183.351612 343.909691 183.351612 
Q 341.037814 183.351612 339.392283 183.906044 
Q 337.75121 184.459132 337.75121 185.432408 
Q 337.75121 186.401656 339.392283 186.956087 
Q 341.037814 187.509176 343.909691 187.509176 
Q 345.510628 187.509176 346.959945 187.366876 
Q 348.409261 187.223234 349.903172 186.917156 
L 349.903172 188.213961 
z
" clip-path="url(#p890e106329)" style="fill: #0000ff"/>
   </g>
   <g id="patch_57">
    <path d="M 344.464131 180.801522 
L 337.657188 180.801522 
L 336.582408 182.180997 
L 332.203673 182.180997 
L 338.456941 174.608489 
L 343.649904 174.608489 
L 349.903172 182.180997 
L 345.528056 182.180997 
L 344.464131 180.801522 
z
M 338.742825 179.39608 
L 343.367638 179.39608 
L 341.058851 176.383955 
L 338.742825 179.39608 
z
" clip-path="url(#p890e106329)" style="fill: #008000"/>
   </g>
   <g id="patch_58">
    <path d="M 332.203673 151.890966 
L 349.903172 151.890966 
L 349.903172 156.321516 
L 343.535468 156.321516 
L 343.535468 174.608489 
L 338.583725 174.608489 
L 338.583725 156.321516 
L 332.203673 156.321516 
L 332.203673 151.890966 
z
" clip-path="url(#p890e106329)" style="fill: #ff0000"/>
   </g>
   <g id="patch_59">
    <path d="M 368.534224 191.656221 
Q 366.7492 191.948111 364.829308 192.094722 
Q 362.909416 192.24 360.86259 192.24 
Q 356.237396 192.24 353.53606 191.370996 
Q 350.834725 190.501992 350.834725 189.015889 
Q 350.834725 187.512459 353.583661 186.650119 
Q 356.336563 185.78778 361.124393 185.78778 
Q 362.968917 185.78778 364.658739 185.905069 
Q 366.352528 186.021025 367.851948 186.250271 
L 367.851948 187.53645 
Q 366.304928 187.241895 364.773774 187.096617 
Q 363.242621 186.950006 361.703534 186.950006 
Q 358.85543 186.950006 357.312376 187.485803 
Q 355.769323 188.020267 355.769323 189.015889 
Q 355.769323 190.002182 357.256842 190.540644 
Q 358.744362 191.077774 361.481398 191.077774 
Q 362.227141 191.077774 362.865783 191.047119 
Q 363.504424 191.015131 364.012164 190.94849 
L 364.012164 189.740948 
L 361.096626 189.740948 
L 361.096626 188.665355 
L 368.534224 188.665355 
L 368.534224 191.656221 
z
" clip-path="url(#p890e106329)" style="fill: #ffa600"/>
   </g>
   <g id="patch_60">
    <path d="M 368.534224 185.234442 
Q 367.053691 185.508719 365.452754 185.647452 
Q 363.851817 185.78778 362.108177 185.78778 
Q 356.908476 185.78778 353.8716 184.748079 
Q 350.834725 183.708378 350.834725 181.930361 
Q 350.834725 180.145966 353.8716 179.10786 
Q 356.908476 178.068159 362.108177 178.068159 
Q 363.851817 178.068159 365.452754 178.208487 
Q 367.053691 178.34722 368.534224 178.621497 
L 368.534224 180.160318 
Q 367.040313 179.796742 365.590996 179.62771 
Q 364.14168 179.458679 362.540743 179.458679 
Q 359.668866 179.458679 358.023334 180.117263 
Q 356.382262 180.774252 356.382262 181.930361 
Q 356.382262 183.081687 358.023334 183.74027 
Q 359.668866 184.397259 362.540743 184.397259 
Q 364.14168 184.397259 365.590996 184.228228 
Q 367.040313 184.057602 368.534224 183.694026 
L 368.534224 185.234442 
z
" clip-path="url(#p890e106329)" style="fill: #0000ff"/>
   </g>
   <g id="patch_61">
    <path d="M 350.834725 169.311574 
L 368.534224 169.311574 
L 368.534224 171.019352 
L 362.16652 171.019352 
L 362.16652 178.068159 
L 357.214777 178.068159 
L 357.214777 171.019352 
L 350.834725 171.019352 
L 350.834725 169.311574 
z
" clip-path="url(#p890e106329)" style="fill: #ff0000"/>
   </g>
   <g id="patch_62">
    <path d="M 363.095183 158.502149 
L 356.28824 158.502149 
L 355.21346 169.311574 
L 350.834725 169.311574 
L 357.087993 109.974191 
L 362.280956 109.974191 
L 368.534224 169.311574 
L 364.159107 169.311574 
L 363.095183 158.502149 
z
M 357.373877 147.489253 
L 361.99869 147.489253 
L 359.689902 123.886556 
L 357.373877 147.489253 
z
" clip-path="url(#p890e106329)" style="fill: #008000"/>
   </g>
   <g id="patch_63">
    <path d="M 387.165275 191.893857 
Q 385.380252 192.066928 383.46036 192.153859 
Q 381.540468 192.24 379.493641 192.24 
Q 374.868447 192.24 372.167112 191.724736 
Q 369.465776 191.209473 369.465776 190.328309 
Q 369.465776 189.436871 372.214712 188.925559 
Q 374.967615 188.414246 379.755445 188.414246 
Q 381.599969 188.414246 383.289791 188.483791 
Q 384.98358 188.552546 386.483 188.688474 
L 386.483 189.451096 
Q 384.93598 189.276444 383.404826 189.190303 
Q 381.873673 189.103372 380.334586 189.103372 
Q 377.486482 189.103372 375.943428 189.421065 
Q 374.400374 189.737968 374.400374 190.328309 
Q 374.400374 190.913117 375.887894 191.232391 
Q 377.375414 191.550874 380.112449 191.550874 
Q 380.858193 191.550874 381.496834 191.532698 
Q 382.135476 191.513731 382.643216 191.474217 
L 382.643216 190.758222 
L 379.727678 190.758222 
L 379.727678 190.120465 
L 387.165275 190.120465 
L 387.165275 191.893857 
z
" clip-path="url(#p890e106329)" style="fill: #ffa600"/>
   </g>
   <g id="patch_64">
    <path d="M 387.165275 187.855997 
Q 385.684743 188.132709 384.083806 188.272673 
Q 382.482868 188.414246 380.739229 188.414246 
Q 375.539527 188.414246 372.502652 187.365317 
Q 369.465776 186.316387 369.465776 184.522589 
Q 369.465776 182.722356 372.502652 181.675035 
Q 375.539527 180.626105 380.739229 180.626105 
Q 382.482868 180.626105 384.083806 180.767679 
Q 385.684743 180.907643 387.165275 181.184355 
L 387.165275 182.736835 
Q 385.671365 182.370031 384.222048 182.1995 
Q 382.772732 182.028968 381.171794 182.028968 
Q 378.299918 182.028968 376.654386 182.693398 
Q 375.013314 183.356218 375.013314 184.522589 
Q 375.013314 185.684134 376.654386 186.348563 
Q 378.299918 187.011384 381.171794 187.011384 
Q 382.772732 187.011384 384.222048 186.840852 
Q 385.671365 186.668712 387.165275 186.301908 
L 387.165275 187.855997 
z
" clip-path="url(#p890e106329)" style="fill: #0000ff"/>
   </g>
   <g id="patch_65">
    <path d="M 381.726235 178.361072 
L 374.919292 178.361072 
L 373.844512 180.626105 
L 369.465776 180.626105 
L 375.719044 168.192407 
L 380.912007 168.192407 
L 387.165275 180.626105 
L 382.790159 180.626105 
L 381.726235 178.361072 
z
M 376.004929 176.053403 
L 380.629742 176.053403 
L 378.320954 171.107637 
L 376.004929 176.053403 
z
" clip-path="url(#p890e106329)" style="fill: #008000"/>
   </g>
   <g id="patch_66">
    <path d="M 369.465776 94.683286 
L 387.165275 94.683286 
L 387.165275 109.019612 
L 380.797572 109.019612 
L 380.797572 168.192407 
L 375.845828 168.192407 
L 375.845828 109.019612 
L 369.465776 109.019612 
L 369.465776 94.683286 
z
" clip-path="url(#p890e106329)" style="fill: #ff0000"/>
   </g>
   <g id="patch_67">
    <path d="M 405.796327 191.990764 
Q 404.011304 192.115382 402.091412 192.177975 
Q 400.17152 192.24 398.124693 192.24 
Q 393.499499 192.24 390.798164 191.868991 
Q 388.096828 191.497982 388.096828 190.86351 
Q 388.096828 190.221642 390.845764 189.853478 
Q 393.598667 189.485313 398.386497 189.485313 
Q 400.231021 189.485313 401.920843 189.535388 
Q 403.614632 189.584894 405.114052 189.682768 
L 405.114052 190.231884 
Q 403.567031 190.106128 402.035878 190.044103 
Q 400.504724 189.98151 398.965637 189.98151 
Q 396.117533 189.98151 394.57448 190.210261 
Q 393.031426 190.438443 393.031426 190.86351 
Q 393.031426 191.284594 394.518946 191.514484 
Q 396.006465 191.743804 398.743501 191.743804 
Q 399.489244 191.743804 400.127886 191.730716 
Q 400.766528 191.717059 401.274268 191.688607 
L 401.274268 191.173064 
L 398.35873 191.173064 
L 398.35873 190.713855 
L 405.796327 190.713855 
L 405.796327 191.990764 
z
" clip-path="url(#p890e106329)" style="fill: #ffa600"/>
   </g>
   <g id="patch_68">
    <path d="M 405.796327 189.090405 
Q 404.315795 189.286152 402.714857 189.385164 
Q 401.11392 189.485313 399.370281 189.485313 
Q 394.170579 189.485313 391.133704 188.743295 
Q 388.096828 188.001277 388.096828 186.732334 
Q 388.096828 185.458839 391.133704 184.717959 
Q 394.170579 183.97594 399.370281 183.97594 
Q 401.11392 183.97594 402.714857 184.07609 
Q 404.315795 184.175102 405.796327 184.370849 
L 405.796327 185.469082 
Q 404.302416 185.209603 402.8531 185.088968 
Q 401.403783 184.968333 399.802846 184.968333 
Q 396.93097 184.968333 395.285438 185.438354 
Q 393.644366 185.907237 393.644366 186.732334 
Q 393.644366 187.554017 395.285438 188.024038 
Q 396.93097 188.492921 399.802846 188.492921 
Q 401.403783 188.492921 402.8531 188.372286 
Q 404.302416 188.250513 405.796327 187.991034 
L 405.796327 189.090405 
z
" clip-path="url(#p890e106329)" style="fill: #0000ff"/>
   </g>
   <g id="patch_69">
    <path d="M 400.357287 182.797428 
L 393.550344 182.797428 
L 392.475563 183.97594 
L 388.096828 183.97594 
L 394.350096 177.506601 
L 399.543059 177.506601 
L 405.796327 183.97594 
L 401.421211 183.97594 
L 400.357287 182.797428 
z
M 394.635981 181.596732 
L 399.260793 181.596732 
L 396.952006 179.023416 
L 394.635981 181.596732 
z
" clip-path="url(#p890e106329)" style="fill: #008000"/>
   </g>
   <g id="patch_70">
    <path d="M 388.096828 162.4393 
L 405.796327 162.4393 
L 405.796327 165.377844 
L 399.428624 165.377844 
L 399.428624 177.506601 
L 394.47688 177.506601 
L 394.47688 165.377844 
L 388.096828 165.377844 
L 388.096828 162.4393 
z
" clip-path="url(#p890e106329)" style="fill: #ff0000"/>
   </g>
   <g id="patch_71">
    <path d="M 424.427379 191.631513 
Q 422.642356 191.935757 420.722464 192.088573 
Q 418.802572 192.24 416.755745 192.24 
Q 412.130551 192.24 409.429215 191.334216 
Q 406.72788 190.428433 406.72788 188.879432 
Q 406.72788 187.312371 409.476816 186.413533 
Q 412.229719 185.514696 417.017548 185.514696 
Q 418.862073 185.514696 420.551895 185.636949 
Q 422.245684 185.757813 423.745103 185.996762 
L 423.745103 187.337377 
Q 422.198083 187.030355 420.66693 186.878928 
Q 419.135776 186.726112 417.596689 186.726112 
Q 414.748585 186.726112 413.205532 187.284586 
Q 411.662478 187.84167 411.662478 188.879432 
Q 411.662478 189.907468 413.149997 190.468721 
Q 414.637517 191.028584 417.374553 191.028584 
Q 418.120296 191.028584 418.758938 190.996631 
Q 419.39758 190.96329 419.90532 190.893828 
L 419.90532 189.635178 
L 416.989781 189.635178 
L 416.989781 188.514062 
L 424.427379 188.514062 
L 424.427379 191.631513 
z
" clip-path="url(#p890e106329)" style="fill: #ffa600"/>
   </g>
   <g id="patch_72">
    <path d="M 418.988338 184.147509 
L 412.181395 184.147509 
L 411.106615 185.514696 
L 406.72788 185.514696 
L 412.981148 178.009646 
L 418.174111 178.009646 
L 424.427379 185.514696 
L 420.052263 185.514696 
L 418.988338 184.147509 
z
M 413.267032 182.754587 
L 417.891845 182.754587 
L 415.583058 179.769296 
L 413.267032 182.754587 
z
" clip-path="url(#p890e106329)" style="fill: #008000"/>
   </g>
   <g id="patch_73">
    <path d="M 424.427379 177.450729 
Q 422.946846 177.727772 421.345909 177.867903 
Q 419.744972 178.009646 418.001333 178.009646 
Q 412.801631 178.009646 409.764755 176.959462 
Q 406.72788 175.909278 406.72788 174.113335 
Q 406.72788 172.310949 409.764755 171.262376 
Q 412.801631 170.212192 418.001333 170.212192 
Q 419.744972 170.212192 421.345909 170.353935 
Q 422.946846 170.494066 424.427379 170.771109 
L 424.427379 172.325445 
Q 422.933468 171.958203 421.484152 171.787468 
Q 420.034835 171.616732 418.433898 171.616732 
Q 415.562021 171.616732 413.91649 172.281956 
Q 412.275417 172.945569 412.275417 174.113335 
Q 412.275417 175.276269 413.91649 175.941493 
Q 415.562021 176.605106 418.433898 176.605106 
Q 420.034835 176.605106 421.484152 176.43437 
Q 422.933468 176.262024 424.427379 175.894782 
L 424.427379 177.450729 
z
" clip-path="url(#p890e106329)" style="fill: #0000ff"/>
   </g>
   <g id="patch_74">
    <path d="M 406.72788 122.647721 
L 424.427379 122.647721 
L 424.427379 131.924118 
L 418.059675 131.924118 
L 418.059675 170.212192 
L 413.107932 170.212192 
L 413.107932 131.924118 
L 406.72788 131.924118 
L 406.72788 122.647721 
z
" clip-path="url(#p890e106329)" style="fill: #ff0000"/>
   </g>
   <g id="patch_75">
    <path d="M 425.358932 190.842353 
L 443.058431 190.842353 
L 443.058431 191.114933 
L 436.690727 191.114933 
L 436.690727 192.24 
L 431.738984 192.24 
L 431.738984 191.114933 
L 425.358932 191.114933 
L 425.358932 190.842353 
z
" clip-path="url(#p890e106329)" style="fill: #ff0000"/>
   </g>
   <g id="patch_76">
    <path d="M 443.058431 190.491714 
Q 441.577898 190.665518 439.976961 190.75343 
Q 438.376024 190.842353 436.632384 190.842353 
Q 431.432683 190.842353 428.395807 190.183516 
Q 425.358932 189.524679 425.358932 188.397986 
Q 425.358932 187.267252 428.395807 186.609425 
Q 431.432683 185.950588 436.632384 185.950588 
Q 438.376024 185.950588 439.976961 186.039511 
Q 441.577898 186.127423 443.058431 186.301227 
L 443.058431 187.276346 
Q 441.56452 187.045956 440.115203 186.938844 
Q 438.665887 186.831732 437.06495 186.831732 
Q 434.193073 186.831732 432.547541 187.249063 
Q 430.906469 187.665384 430.906469 188.397986 
Q 430.906469 189.127558 432.547541 189.544888 
Q 434.193073 189.961209 437.06495 189.961209 
Q 438.665887 189.961209 440.115203 189.854097 
Q 441.56452 189.745975 443.058431 189.515584 
L 443.058431 190.491714 
z
" clip-path="url(#p890e106329)" style="fill: #0000ff"/>
   </g>
   <g id="patch_77">
    <path d="M 443.058431 185.107554 
Q 441.273407 185.529071 439.353515 185.740792 
Q 437.433623 185.950588 435.386797 185.950588 
Q 430.761603 185.950588 428.060267 184.69566 
Q 425.358932 183.440732 425.358932 181.294652 
Q 425.358932 179.12355 428.107868 177.878245 
Q 430.86077 176.632941 435.6486 176.632941 
Q 437.493124 176.632941 439.182946 176.802318 
Q 440.876735 176.96977 442.376155 177.300825 
L 442.376155 179.158195 
Q 440.829135 178.732828 439.297981 178.523032 
Q 437.766828 178.311311 436.227741 178.311311 
Q 433.379637 178.311311 431.836583 179.085055 
Q 430.29353 179.856874 430.29353 181.294652 
Q 430.29353 182.718956 431.781049 183.49655 
Q 433.268569 184.272218 436.005605 184.272218 
Q 436.751348 184.272218 437.38999 184.227949 
Q 438.028631 184.181756 438.536371 184.085519 
L 438.536371 182.341708 
L 435.620833 182.341708 
L 435.620833 180.788446 
L 443.058431 180.788446 
L 443.058431 185.107554 
z
" clip-path="url(#p890e106329)" style="fill: #ffa600"/>
   </g>
   <g id="patch_78">
    <path d="M 437.61939 149.177733 
L 430.812447 149.177733 
L 429.737667 176.632941 
L 425.358932 176.632941 
L 431.6122 25.92 
L 436.805163 25.92 
L 443.058431 176.632941 
L 438.683314 176.632941 
L 437.61939 149.177733 
z
M 431.898084 121.205721 
L 436.522897 121.205721 
L 434.214109 61.256468 
L 431.898084 121.205721 
z
" clip-path="url(#p890e106329)" style="fill: #008000"/>
   </g>
   <g id="patch_79">
    <path d="M 461.689482 191.789143 
Q 459.904459 192.014572 457.984567 192.1278 
Q 456.064675 192.24 454.017848 192.24 
Q 449.392654 192.24 446.691319 191.568862 
Q 443.989983 190.897723 443.989983 189.749994 
Q 443.989983 188.588884 446.738919 187.922892 
Q 449.491822 187.2569 454.279652 187.2569 
Q 456.124176 187.2569 457.813998 187.347484 
Q 459.507787 187.437037 461.007207 187.614086 
L 461.007207 188.607412 
Q 459.460187 188.379925 457.929033 188.267725 
Q 456.39788 188.154497 454.858793 188.154497 
Q 452.010689 188.154497 450.467635 188.568297 
Q 448.924581 188.981067 448.924581 189.749994 
Q 448.924581 190.511716 450.412101 190.927574 
Q 451.899621 191.342404 454.636656 191.342404 
Q 455.3824 191.342404 456.021041 191.318729 
Q 456.659683 191.294024 457.167423 191.242557 
L 457.167423 190.309962 
L 454.251885 190.309962 
L 454.251885 189.479274 
L 461.689482 189.479274 
L 461.689482 191.789143 
z
" clip-path="url(#p890e106329)" style="fill: #ffa600"/>
   </g>
   <g id="patch_80">
    <path d="M 461.689482 186.884185 
Q 460.20895 187.068932 458.608013 187.162379 
Q 457.007075 187.2569 455.263436 187.2569 
Q 450.063734 187.2569 447.026859 186.556582 
Q 443.989983 185.856264 443.989983 184.658634 
Q 443.989983 183.456707 447.026859 182.757463 
Q 450.063734 182.057144 455.263436 182.057144 
Q 457.007075 182.057144 458.608013 182.151666 
Q 460.20895 182.245113 461.689482 182.42986 
L 461.689482 183.466374 
Q 460.195572 183.221477 458.746255 183.107622 
Q 457.296939 182.993766 455.696001 182.993766 
Q 452.824125 182.993766 451.178593 183.437373 
Q 449.537521 183.879905 449.537521 184.658634 
Q 449.537521 185.434139 451.178593 185.877746 
Q 452.824125 186.320278 455.696001 186.320278 
Q 457.296939 186.320278 458.746255 186.206423 
Q 460.195572 186.091493 461.689482 185.846597 
L 461.689482 186.884185 
z
" clip-path="url(#p890e106329)" style="fill: #0000ff"/>
   </g>
   <g id="patch_81">
    <path d="M 443.989983 175.340793 
L 461.689482 175.340793 
L 461.689482 176.650669 
L 455.321779 176.650669 
L 455.321779 182.057144 
L 450.370035 182.057144 
L 450.370035 176.650669 
L 443.989983 176.650669 
L 443.989983 175.340793 
z
" clip-path="url(#p890e106329)" style="fill: #ff0000"/>
   </g>
   <g id="patch_82">
    <path d="M 456.250442 150.239099 
L 449.443499 150.239099 
L 448.368719 175.340793 
L 443.989983 175.340793 
L 450.243251 37.547257 
L 455.436214 37.547257 
L 461.689482 175.340793 
L 457.314366 175.340793 
L 456.250442 150.239099 
z
M 450.529136 124.664902 
L 455.153949 124.664902 
L 452.845161 69.854614 
L 450.529136 124.664902 
z
" clip-path="url(#p890e106329)" style="fill: #008000"/>
   </g>
   <g id="patch_83">
    <path d="M 480.320534 192.034328 
Q 478.840002 192.136275 477.239064 192.187841 
Q 475.638127 192.24 473.894488 192.24 
Q 468.694786 192.24 465.657911 191.85355 
Q 462.621035 191.467101 462.621035 190.806225 
Q 462.621035 190.142978 465.657911 189.757121 
Q 468.694786 189.370671 473.894488 189.370671 
Q 475.638127 189.370671 477.239064 189.42283 
Q 478.840002 189.474396 480.320534 189.576343 
L 480.320534 190.148312 
Q 478.826623 190.013173 477.377307 189.950345 
Q 475.92799 189.887518 474.327053 189.887518 
Q 471.455177 189.887518 469.809645 190.132309 
Q 468.168573 190.376507 468.168573 190.806225 
Q 468.168573 191.234164 469.809645 191.478955 
Q 471.455177 191.723153 474.327053 191.723153 
Q 475.92799 191.723153 477.377307 191.660326 
Q 478.826623 191.596905 480.320534 191.461766 
L 480.320534 192.034328 
z
" clip-path="url(#p890e106329)" style="fill: #0000ff"/>
   </g>
   <g id="patch_84">
    <path d="M 480.320534 188.500218 
Q 478.535511 188.935445 476.615619 189.154052 
Q 474.695727 189.370671 472.6489 189.370671 
Q 468.023706 189.370671 465.322371 188.074928 
Q 462.621035 186.779186 462.621035 184.563307 
Q 462.621035 182.321592 465.369971 181.035786 
Q 468.122874 179.74998 472.910704 179.74998 
Q 474.755228 179.74998 476.44505 179.924866 
Q 478.138839 180.097764 479.638259 180.439586 
L 479.638259 182.357364 
Q 478.091238 181.918163 476.560085 181.701544 
Q 475.028931 181.482937 473.489844 181.482937 
Q 470.64174 181.482937 469.098687 182.281846 
Q 467.555633 183.078767 467.555633 184.563307 
Q 467.555633 186.033935 469.043153 186.836818 
Q 470.530672 187.637715 473.267708 187.637715 
Q 474.013451 187.637715 474.652093 187.592006 
Q 475.290735 187.54431 475.798475 187.444943 
L 475.798475 185.644417 
L 472.882937 185.644417 
L 472.882937 184.040637 
L 480.320534 184.040637 
L 480.320534 188.500218 
z
" clip-path="url(#p890e106329)" style="fill: #ffa600"/>
   </g>
   <g id="patch_85">
    <path d="M 462.621035 169.622937 
L 480.320534 169.622937 
L 480.320534 171.597993 
L 473.952831 171.597993 
L 473.952831 179.74998 
L 469.001087 179.74998 
L 469.001087 171.597993 
L 462.621035 171.597993 
L 462.621035 169.622937 
z
" clip-path="url(#p890e106329)" style="fill: #ff0000"/>
   </g>
   <g id="patch_86">
    <path d="M 474.881494 151.78956 
L 468.074551 151.78956 
L 466.99977 169.622937 
L 462.621035 169.622937 
L 468.874303 71.728187 
L 474.067266 71.728187 
L 480.320534 169.622937 
L 475.945418 169.622937 
L 474.881494 151.78956 
z
M 469.160188 133.620496 
L 473.785 133.620496 
L 471.476213 94.680793 
L 469.160188 133.620496 
z
" clip-path="url(#p890e106329)" style="fill: #008000"/>
   </g>
   <g id="patch_87">
    <path d="M 498.951586 191.842272 
Q 497.471053 192.039416 495.870116 192.139135 
Q 494.269179 192.24 492.52554 192.24 
Q 487.325838 192.24 484.288962 191.492683 
Q 481.252087 190.745366 481.252087 189.467363 
Q 481.252087 188.184774 484.288962 187.438604 
Q 487.325838 186.691287 492.52554 186.691287 
Q 494.269179 186.691287 495.870116 186.792151 
Q 497.471053 186.89187 498.951586 187.089015 
L 498.951586 188.19509 
Q 497.457675 187.933758 496.008359 187.812262 
Q 494.559042 187.690766 492.958105 187.690766 
Q 490.086228 187.690766 488.440697 188.164143 
Q 486.799624 188.636374 486.799624 189.467363 
Q 486.799624 190.294913 488.440697 190.76829 
Q 490.086228 191.240521 492.958105 191.240521 
Q 494.559042 191.240521 496.008359 191.119025 
Q 497.457675 190.996382 498.951586 190.73505 
L 498.951586 191.842272 
z
" clip-path="url(#p890e106329)" style="fill: #0000ff"/>
   </g>
   <g id="patch_88">
    <path d="M 498.951586 186.179214 
Q 497.166563 186.43525 495.246671 186.563853 
Q 493.326779 186.691287 491.279952 186.691287 
Q 486.654758 186.691287 483.953422 185.929023 
Q 481.252087 185.16676 481.252087 183.863196 
Q 481.252087 182.544434 484.001023 181.788017 
Q 486.753926 181.031599 491.541755 181.031599 
Q 493.38628 181.031599 495.076102 181.134481 
Q 496.769891 181.236194 498.26931 181.437282 
L 498.26931 182.565478 
Q 496.72229 182.307104 495.191137 182.17967 
Q 493.659983 182.051068 492.120896 182.051068 
Q 489.272792 182.051068 487.729739 182.521052 
Q 486.186685 182.989867 486.186685 183.863196 
Q 486.186685 184.728342 487.674205 185.200664 
Q 489.161724 185.671818 491.89876 185.671818 
Q 492.644503 185.671818 493.283145 185.644928 
Q 493.921787 185.61687 494.429527 185.558414 
L 494.429527 184.499195 
L 491.513988 184.499195 
L 491.513988 183.555719 
L 498.951586 183.555719 
L 498.951586 186.179214 
z
" clip-path="url(#p890e106329)" style="fill: #ffa600"/>
   </g>
   <g id="patch_89">
    <path d="M 481.252087 168.602481 
L 498.951586 168.602481 
L 498.951586 171.026505 
L 492.583882 171.026505 
L 492.583882 181.031599 
L 487.632139 181.031599 
L 487.632139 171.026505 
L 481.252087 171.026505 
L 481.252087 168.602481 
z
" clip-path="url(#p890e106329)" style="fill: #ff0000"/>
   </g>
   <g id="patch_90">
    <path d="M 493.512545 158.474236 
L 486.705603 158.474236 
L 485.630822 168.602481 
L 481.252087 168.602481 
L 487.505355 113.004373 
L 492.698318 113.004373 
L 498.951586 168.602481 
L 494.57647 168.602481 
L 493.512545 158.474236 
z
M 487.791239 148.155341 
L 492.416052 148.155341 
L 490.107265 126.04002 
L 487.791239 148.155341 
z
" clip-path="url(#p890e106329)" style="fill: #008000"/>
   </g>
   <g id="patch_91">
    <path d="M 512.143597 191.458702 
L 505.336654 191.458702 
L 504.261874 192.24 
L 499.883139 192.24 
L 506.136407 187.951133 
L 511.32937 187.951133 
L 517.582638 192.24 
L 513.207521 192.24 
L 512.143597 191.458702 
z
M 506.422291 190.662697 
L 511.047104 190.662697 
L 508.738316 188.95671 
L 506.422291 190.662697 
z
" clip-path="url(#p890e106329)" style="fill: #008000"/>
   </g>
   <g id="patch_92">
    <path d="M 517.582638 187.163631 
Q 515.797614 187.557382 513.877722 187.755156 
Q 511.957831 187.951133 509.911004 187.951133 
Q 505.28581 187.951133 502.584474 186.77887 
Q 499.883139 185.606606 499.883139 183.601891 
Q 499.883139 181.573804 502.632075 180.41053 
Q 505.384978 179.247256 510.172807 179.247256 
Q 512.017331 179.247256 513.707153 179.405476 
Q 515.400942 179.561897 516.900362 179.871145 
L 516.900362 181.606167 
Q 515.353342 181.20882 513.822188 181.012843 
Q 512.291035 180.815069 510.751948 180.815069 
Q 507.903844 180.815069 506.36079 181.537845 
Q 504.817737 182.258823 504.817737 183.601891 
Q 504.817737 184.932375 506.305256 185.658747 
Q 507.792776 186.38332 510.529812 186.38332 
Q 511.275555 186.38332 511.914197 186.341968 
Q 512.552838 186.298817 513.060578 186.208919 
L 513.060578 184.579976 
L 510.14504 184.579976 
L 510.14504 183.129031 
L 517.582638 183.129031 
L 517.582638 187.163631 
z
" clip-path="url(#p890e106329)" style="fill: #ffa600"/>
   </g>
   <g id="patch_93">
    <path d="M 517.582638 178.478697 
Q 516.102105 178.859654 514.501168 179.052348 
Q 512.900231 179.247256 511.156591 179.247256 
Q 505.95689 179.247256 502.920014 177.803163 
Q 499.883139 176.35907 499.883139 173.889495 
Q 499.883139 171.411059 502.920014 169.969181 
Q 505.95689 168.525089 511.156591 168.525089 
Q 512.900231 168.525089 514.501168 168.719997 
Q 516.102105 168.91269 517.582638 169.293647 
L 517.582638 171.430993 
Q 516.088727 170.926004 514.63941 170.691228 
Q 513.190094 170.456452 511.589157 170.456452 
Q 508.71728 170.456452 507.071748 171.371192 
Q 505.430676 172.283717 505.430676 173.889495 
Q 505.430676 175.488628 507.071748 176.403368 
Q 508.71728 177.315893 511.589157 177.315893 
Q 513.190094 177.315893 514.63941 177.081117 
Q 516.088727 176.844126 517.582638 176.339137 
L 517.582638 178.478697 
z
" clip-path="url(#p890e106329)" style="fill: #0000ff"/>
   </g>
   <g id="patch_94">
    <path d="M 499.883139 102.173794 
L 517.582638 102.173794 
L 517.582638 115.114145 
L 511.214934 115.114145 
L 511.214934 168.525089 
L 506.263191 168.525089 
L 506.263191 115.114145 
L 499.883139 115.114145 
L 499.883139 102.173794 
z
" clip-path="url(#p890e106329)" style="fill: #ff0000"/>
   </g>
   <g id="patch_95">
    <path d="M 536.213689 192.028793 
Q 534.733157 192.133483 533.13222 192.186437 
Q 531.531282 192.24 529.787643 192.24 
Q 524.587941 192.24 521.551066 191.84315 
Q 518.51419 191.4463 518.51419 190.767637 
Q 518.51419 190.08654 521.551066 189.690299 
Q 524.587941 189.293449 529.787643 189.293449 
Q 531.531282 189.293449 533.13222 189.347011 
Q 534.733157 189.399965 536.213689 189.504656 
L 536.213689 190.092018 
Q 534.719779 189.953243 533.270462 189.888724 
Q 531.821146 189.824205 530.220208 189.824205 
Q 527.348332 189.824205 525.7028 190.075584 
Q 524.061728 190.326355 524.061728 190.767637 
Q 524.061728 191.207094 525.7028 191.458473 
Q 527.348332 191.709243 530.220208 191.709243 
Q 531.821146 191.709243 533.270462 191.644725 
Q 534.719779 191.579598 536.213689 191.440822 
L 536.213689 192.028793 
z
" clip-path="url(#p890e106329)" style="fill: #0000ff"/>
   </g>
   <g id="patch_96">
    <path d="M 536.213689 188.911732 
Q 534.428666 189.102591 532.508774 189.198456 
Q 530.588882 189.293449 528.542055 189.293449 
Q 523.916861 189.293449 521.215526 188.725232 
Q 518.51419 188.157015 518.51419 187.185293 
Q 518.51419 186.202243 521.263126 185.638383 
Q 524.016029 185.074523 528.803859 185.074523 
Q 530.648383 185.074523 532.338205 185.151215 
Q 534.031994 185.227036 535.531414 185.376933 
L 535.531414 186.21793 
Q 533.984394 186.025329 532.45324 185.930335 
Q 530.922087 185.83447 529.383 185.83447 
Q 526.534896 185.83447 524.991842 186.184813 
Q 523.448788 186.534284 523.448788 187.185293 
Q 523.448788 187.830202 524.936308 188.182288 
Q 526.423828 188.533502 529.160864 188.533502 
Q 529.906607 188.533502 530.545248 188.513457 
Q 531.18389 188.492542 531.69163 188.448967 
L 531.69163 187.659389 
L 528.776092 187.659389 
L 528.776092 186.956089 
L 536.213689 186.956089 
L 536.213689 188.911732 
z
" clip-path="url(#p890e106329)" style="fill: #ffa600"/>
   </g>
   <g id="patch_97">
    <path d="M 518.51419 179.985026 
L 536.213689 179.985026 
L 536.213689 180.97762 
L 529.845986 180.97762 
L 529.845986 185.074523 
L 524.894242 185.074523 
L 524.894242 180.97762 
L 518.51419 180.97762 
L 518.51419 179.985026 
z
" clip-path="url(#p890e106329)" style="fill: #ff0000"/>
   </g>
   <g id="patch_98">
    <path d="M 530.774649 177.862345 
L 523.967706 177.862345 
L 522.892926 179.985026 
L 518.51419 179.985026 
L 524.767458 168.332756 
L 529.960421 168.332756 
L 536.213689 179.985026 
L 531.838573 179.985026 
L 530.774649 177.862345 
z
M 525.053343 175.699708 
L 529.678156 175.699708 
L 527.369368 171.064771 
L 525.053343 175.699708 
z
" clip-path="url(#p890e106329)" style="fill: #008000"/>
   </g>
   <g id="patch_99">
    <path d="M 554.844741 191.765194 
Q 553.059718 192.002597 551.139826 192.121841 
Q 549.219934 192.24 547.173107 192.24 
Q 542.547913 192.24 539.846578 191.533211 
Q 537.145242 190.826422 537.145242 189.617727 
Q 537.145242 188.394938 539.894178 187.69357 
Q 542.647081 186.992201 547.434911 186.992201 
Q 549.279435 186.992201 550.969257 187.087596 
Q 552.663046 187.181907 554.162466 187.36836 
L 554.162466 188.414451 
Q 552.615445 188.17488 551.084292 188.05672 
Q 549.553138 187.937477 548.014052 187.937477 
Q 545.165947 187.937477 543.622894 188.373258 
Q 542.07984 188.807955 542.07984 189.617727 
Q 542.07984 190.41991 543.56736 190.857859 
Q 545.054879 191.294724 547.791915 191.294724 
Q 548.537658 191.294724 549.1763 191.269791 
Q 549.814942 191.243775 550.322682 191.189573 
L 550.322682 190.20744 
L 547.407144 190.20744 
L 547.407144 189.332626 
L 554.844741 189.332626 
L 554.844741 191.765194 
z
" clip-path="url(#p890e106329)" style="fill: #ffa600"/>
   </g>
   <g id="patch_100">
    <path d="M 554.844741 186.574246 
Q 553.364209 186.781417 551.763271 186.886207 
Q 550.162334 186.992201 548.418695 186.992201 
Q 543.218993 186.992201 540.182118 186.20688 
Q 537.145242 185.421559 537.145242 184.078564 
Q 537.145242 182.730751 540.182118 181.946634 
Q 543.218993 181.161313 548.418695 181.161313 
Q 550.162334 181.161313 551.763271 181.267307 
Q 553.364209 181.372097 554.844741 181.579268 
L 554.844741 182.741591 
Q 553.35083 182.46697 551.901514 182.339295 
Q 550.452197 182.21162 548.85126 182.21162 
Q 545.979384 182.21162 544.333852 182.70907 
Q 542.69278 183.205316 542.69278 184.078564 
Q 542.69278 184.948198 544.333852 185.445649 
Q 545.979384 185.941894 548.85126 185.941894 
Q 550.452197 185.941894 551.901514 185.81422 
Q 553.35083 185.68534 554.844741 185.410719 
L 554.844741 186.574246 
z
" clip-path="url(#p890e106329)" style="fill: #0000ff"/>
   </g>
   <g id="patch_101">
    <path d="M 549.405701 178.824459 
L 542.598758 178.824459 
L 541.523977 181.161313 
L 537.145242 181.161313 
L 543.39851 168.33336 
L 548.591473 168.33336 
L 554.844741 181.161313 
L 550.469625 181.161313 
L 549.405701 178.824459 
z
M 543.684395 176.443618 
L 548.309208 176.443618 
L 546.00042 171.341028 
L 543.684395 176.443618 
z
" clip-path="url(#p890e106329)" style="fill: #008000"/>
   </g>
   <g id="patch_102">
    <path d="M 537.145242 108.974922 
L 554.844741 108.974922 
L 554.844741 120.551472 
L 548.477038 120.551472 
L 548.477038 168.33336 
L 543.525294 168.33336 
L 543.525294 120.551472 
L 537.145242 120.551472 
L 537.145242 108.974922 
z
" clip-path="url(#p890e106329)" style="fill: #ff0000"/>
   </g>
   <g id="patch_103">
    <path d="M 573.475793 192.168752 
Q 571.69077 192.204376 569.770878 192.222269 
Q 567.850986 192.24 565.804159 192.24 
Q 561.178965 192.24 558.477629 192.133942 
Q 555.776294 192.027884 555.776294 191.846512 
Q 555.776294 191.663025 558.52523 191.557781 
Q 561.278133 191.452536 566.065962 191.452536 
Q 567.910487 191.452536 569.600309 191.466851 
Q 571.294098 191.481002 572.793517 191.508981 
L 572.793517 191.665953 
Q 571.246497 191.630004 569.715344 191.612274 
Q 568.18419 191.59438 566.645103 191.59438 
Q 563.796999 191.59438 562.253946 191.659772 
Q 560.710892 191.725001 560.710892 191.846512 
Q 560.710892 191.966885 562.198412 192.032601 
Q 563.685931 192.098156 566.422967 192.098156 
Q 567.16871 192.098156 567.807352 192.094414 
Q 568.445994 192.09051 568.953734 192.082377 
L 568.953734 191.935002 
L 566.038195 191.935002 
L 566.038195 191.803731 
L 573.475793 191.803731 
L 573.475793 192.168752 
z
" clip-path="url(#p890e106329)" style="fill: #ffa600"/>
   </g>
   <g id="patch_104">
    <path d="M 573.475793 191.352834 
Q 571.99526 191.402254 570.394323 191.427251 
Q 568.793386 191.452536 567.049747 191.452536 
Q 561.850045 191.452536 558.813169 191.2652 
Q 555.776294 191.077864 555.776294 190.757496 
Q 555.776294 190.43598 558.813169 190.248931 
Q 561.850045 190.061595 567.049747 190.061595 
Q 568.793386 190.061595 570.394323 190.08688 
Q 571.99526 190.111877 573.475793 190.161297 
L 573.475793 190.438566 
Q 571.981882 190.373055 570.532566 190.342599 
Q 569.083249 190.312142 567.482312 190.312142 
Q 564.610435 190.312142 562.964904 190.430808 
Q 561.323831 190.549186 561.323831 190.757496 
Q 561.323831 190.964945 562.964904 191.083611 
Q 564.610435 191.201988 567.482312 191.201988 
Q 569.083249 191.201988 570.532566 191.171532 
Q 571.981882 191.140788 573.475793 191.075278 
L 573.475793 191.352834 
z
" clip-path="url(#p890e106329)" style="fill: #0000ff"/>
   </g>
   <g id="patch_105">
    <path d="M 555.776294 188.5897 
L 573.475793 188.5897 
L 573.475793 188.87676 
L 567.108089 188.87676 
L 567.108089 190.061595 
L 562.156346 190.061595 
L 562.156346 188.87676 
L 555.776294 188.87676 
L 555.776294 188.5897 
z
" clip-path="url(#p890e106329)" style="fill: #ff0000"/>
   </g>
   <g id="patch_106">
    <path d="M 568.036752 188.297434 
L 561.22981 188.297434 
L 560.155029 188.5897 
L 555.776294 188.5897 
L 562.029562 186.985334 
L 567.222525 186.985334 
L 573.475793 188.5897 
L 569.100677 188.5897 
L 568.036752 188.297434 
z
M 562.315446 187.999667 
L 566.940259 187.999667 
L 564.631472 187.361497 
L 562.315446 187.999667 
z
" clip-path="url(#p890e106329)" style="fill: #008000"/>
   </g>
   <g id="patch_107">
    <path d="M 592.106845 191.77042 
Q 590.321821 192.00521 588.401929 192.123141 
Q 586.482038 192.24 584.435211 192.24 
Q 579.810017 192.24 577.108681 191.54099 
Q 574.407346 190.84198 574.407346 189.646587 
Q 574.407346 188.437256 577.156282 187.743606 
Q 579.909185 187.049957 584.697014 187.049957 
Q 586.541538 187.049957 588.23136 187.144302 
Q 589.925149 187.237575 591.424569 187.421976 
L 591.424569 188.456554 
Q 589.877549 188.21962 588.346395 188.10276 
Q 586.815242 187.984829 585.276155 187.984829 
Q 582.428051 187.984829 580.884997 188.415814 
Q 579.341944 188.845727 579.341944 189.646587 
Q 579.341944 190.439942 580.829463 190.873071 
Q 582.316983 191.305128 585.054019 191.305128 
Q 585.799762 191.305128 586.438404 191.280469 
Q 587.077045 191.254739 587.584785 191.201134 
L 587.584785 190.22981 
L 584.669247 190.22981 
L 584.669247 189.364624 
L 592.106845 189.364624 
L 592.106845 191.77042 
z
" clip-path="url(#p890e106329)" style="fill: #ffa600"/>
   </g>
   <g id="patch_108">
    <path d="M 574.407346 181.752902 
L 592.106845 181.752902 
L 592.106845 182.785976 
L 585.739141 182.785976 
L 585.739141 187.049957 
L 580.787398 187.049957 
L 580.787398 182.785976 
L 574.407346 182.785976 
L 574.407346 181.752902 
z
" clip-path="url(#p890e106329)" style="fill: #ff0000"/>
   </g>
   <g id="patch_109">
    <path d="M 592.106845 181.319519 
Q 590.626312 181.534337 589.025375 181.642995 
Q 587.424438 181.752902 585.680798 181.752902 
Q 580.481097 181.752902 577.444221 180.938592 
Q 574.407346 180.124281 574.407346 178.731709 
Q 574.407346 177.334142 577.444221 176.52108 
Q 580.481097 175.70677 585.680798 175.70677 
Q 587.424438 175.70677 589.025375 175.816677 
Q 590.626312 175.925335 592.106845 176.140153 
L 592.106845 177.345383 
Q 590.612934 177.060624 589.163617 176.928236 
Q 587.714301 176.795848 586.113364 176.795848 
Q 583.241487 176.795848 581.595955 177.311661 
Q 579.954883 177.826226 579.954883 178.731709 
Q 579.954883 179.633446 581.595955 180.14926 
Q 583.241487 180.663824 586.113364 180.663824 
Q 587.714301 180.663824 589.163617 180.531436 
Q 590.612934 180.397799 592.106845 180.11304 
L 592.106845 181.319519 
z
" clip-path="url(#p890e106329)" style="fill: #0000ff"/>
   </g>
   <g id="patch_110">
    <path d="M 586.667804 171.759212 
L 579.860861 171.759212 
L 578.786081 175.70677 
L 574.407346 175.70677 
L 580.660614 154.037002 
L 585.853577 154.037002 
L 592.106845 175.70677 
L 587.731728 175.70677 
L 586.667804 171.759212 
z
M 580.946498 167.737348 
L 585.571311 167.737348 
L 583.262523 159.11774 
L 580.946498 167.737348 
z
" clip-path="url(#p890e106329)" style="fill: #008000"/>
   </g>
   <g id="patch_111">
    <path d="M 610.737896 192.046647 
Q 609.257364 192.142488 607.656427 192.190965 
Q 606.055489 192.24 604.31185 192.24 
Q 599.112148 192.24 596.075273 191.876697 
Q 593.038397 191.513394 593.038397 190.892101 
Q 593.038397 190.268579 596.075273 189.905833 
Q 599.112148 189.54253 604.31185 189.54253 
Q 606.055489 189.54253 607.656427 189.591565 
Q 609.257364 189.640043 610.737896 189.735883 
L 610.737896 190.273594 
Q 609.243986 190.14655 607.794669 190.087485 
Q 606.345353 190.02842 604.744415 190.02842 
Q 601.872539 190.02842 600.227007 190.258549 
Q 598.585935 190.488121 598.585935 190.892101 
Q 598.585935 191.294409 600.227007 191.524538 
Q 601.872539 191.75411 604.744415 191.75411 
Q 606.345353 191.75411 607.794669 191.695045 
Q 609.243986 191.635424 610.737896 191.508379 
L 610.737896 192.046647 
z
" clip-path="url(#p890e106329)" style="fill: #0000ff"/>
   </g>
   <g id="patch_112">
    <path d="M 610.737896 189.168568 
Q 608.952873 189.355549 607.032981 189.449467 
Q 605.113089 189.54253 603.066262 189.54253 
Q 598.441068 189.54253 595.739733 188.985856 
Q 593.038397 188.429182 593.038397 187.477201 
Q 593.038397 186.514121 595.787333 185.961716 
Q 598.540236 185.409311 603.328066 185.409311 
Q 605.17259 185.409311 606.862412 185.484445 
Q 608.556201 185.558725 610.055621 185.705577 
L 610.055621 186.529489 
Q 608.508601 186.340801 606.977447 186.247737 
Q 605.446294 186.153819 603.907207 186.153819 
Q 601.059103 186.153819 599.516049 186.497045 
Q 597.972995 186.839417 597.972995 187.477201 
Q 597.972995 188.109009 599.460515 188.453942 
Q 600.948035 188.798021 603.685071 188.798021 
Q 604.430814 188.798021 605.069455 188.778384 
Q 605.708097 188.757893 606.215837 188.715203 
L 606.215837 187.941665 
L 603.300299 187.941665 
L 603.300299 187.252653 
L 610.737896 187.252653 
L 610.737896 189.168568 
z
" clip-path="url(#p890e106329)" style="fill: #ffa600"/>
   </g>
   <g id="patch_113">
    <path d="M 605.298856 183.618096 
L 598.491913 183.618096 
L 597.417133 185.409311 
L 593.038397 185.409311 
L 599.291665 175.576598 
L 604.484628 175.576598 
L 610.737896 185.409311 
L 606.36278 185.409311 
L 605.298856 183.618096 
z
M 599.57755 181.793165 
L 604.202363 181.793165 
L 601.893575 177.881996 
L 599.57755 181.793165 
z
" clip-path="url(#p890e106329)" style="fill: #008000"/>
   </g>
   <g id="patch_114">
    <path d="M 593.038397 161.175591 
L 610.737896 161.175591 
L 610.737896 163.984189 
L 604.370193 163.984189 
L 604.370193 175.576598 
L 599.418449 175.576598 
L 599.418449 163.984189 
L 593.038397 163.984189 
L 593.038397 161.175591 
z
" clip-path="url(#p890e106329)" style="fill: #ff0000"/>
   </g>
   <g id="patch_115">
    <path d="M 629.368948 191.929613 
Q 627.583925 192.084806 625.664033 192.162758 
Q 623.744141 192.24 621.697314 192.24 
Q 617.07212 192.24 614.370785 191.777963 
Q 611.669449 191.315925 611.669449 190.525784 
Q 611.669449 189.726431 614.418385 189.267937 
Q 617.171288 188.809443 621.959118 188.809443 
Q 623.803642 188.809443 625.493464 188.871804 
Q 627.187253 188.933456 628.686673 189.055343 
L 628.686673 189.739187 
Q 627.139652 189.582576 625.608499 189.505333 
Q 624.077345 189.427382 622.538259 189.427382 
Q 619.690154 189.427382 618.147101 189.712258 
Q 616.604047 189.996425 616.604047 190.525784 
Q 616.604047 191.050183 618.091567 191.336476 
Q 619.579086 191.62206 622.316122 191.62206 
Q 623.061865 191.62206 623.700507 191.605761 
Q 624.339149 191.588754 624.846889 191.553322 
L 624.846889 190.911288 
L 621.931351 190.911288 
L 621.931351 190.33941 
L 629.368948 190.33941 
L 629.368948 191.929613 
z
" clip-path="url(#p890e106329)" style="fill: #ffa600"/>
   </g>
   <g id="patch_116">
    <path d="M 629.368948 188.554914 
Q 627.888416 188.681078 626.287478 188.744894 
Q 624.686541 188.809443 622.942902 188.809443 
Q 617.7432 188.809443 614.706325 188.331193 
Q 611.669449 187.852944 611.669449 187.035079 
Q 611.669449 186.21428 614.706325 185.736764 
Q 617.7432 185.258515 622.942902 185.258515 
Q 624.686541 185.258515 626.287478 185.323064 
Q 627.888416 185.386879 629.368948 185.513043 
L 629.368948 186.220882 
Q 627.875037 186.053641 626.425721 185.975889 
Q 624.976404 185.898137 623.375467 185.898137 
Q 620.503591 185.898137 618.858059 186.201077 
Q 617.216987 186.503283 617.216987 187.035079 
Q 617.216987 187.564674 618.858059 187.867614 
Q 620.503591 188.169821 623.375467 188.169821 
Q 624.976404 188.169821 626.425721 188.092069 
Q 627.875037 188.013583 629.368948 187.846342 
L 629.368948 188.554914 
z
" clip-path="url(#p890e106329)" style="fill: #0000ff"/>
   </g>
   <g id="patch_117">
    <path d="M 623.929908 182.396944 
L 617.122965 182.396944 
L 616.048184 185.258515 
L 611.669449 185.258515 
L 617.922717 169.550174 
L 623.11568 169.550174 
L 629.368948 185.258515 
L 624.993832 185.258515 
L 623.929908 182.396944 
z
M 618.208602 179.481508 
L 622.833415 179.481508 
L 620.524627 173.233184 
L 618.208602 179.481508 
z
" clip-path="url(#p890e106329)" style="fill: #008000"/>
   </g>
   <g id="patch_118">
    <path d="M 611.669449 149.267756 
L 629.368948 149.267756 
L 629.368948 153.223392 
L 623.001245 153.223392 
L 623.001245 169.550174 
L 618.049501 169.550174 
L 618.049501 153.223392 
L 611.669449 153.223392 
L 611.669449 149.267756 
z
" clip-path="url(#p890e106329)" style="fill: #ff0000"/>
   </g>
   <g id="patch_119">
    <path d="M 648 191.938907 
Q 646.214977 192.089454 644.295085 192.165071 
Q 642.375193 192.24 640.328366 192.24 
Q 635.703172 192.24 633.001836 191.791798 
Q 630.300501 191.343596 630.300501 190.577116 
Q 630.300501 189.8017 633.049437 189.356935 
Q 635.80234 188.91217 640.590169 188.91217 
Q 642.434694 188.91217 644.124516 188.972664 
Q 645.818305 189.03247 647.317724 189.150707 
L 647.317724 189.814073 
Q 645.770704 189.662152 644.239551 189.587223 
Q 642.708397 189.511606 641.16931 189.511606 
Q 638.321206 189.511606 636.778153 189.787951 
Q 635.235099 190.063609 635.235099 190.577116 
Q 635.235099 191.085812 636.722619 191.363532 
Q 638.210138 191.640564 640.947174 191.640564 
Q 641.692917 191.640564 642.331559 191.624754 
Q 642.970201 191.608255 643.477941 191.573884 
L 643.477941 190.951076 
L 640.562402 190.951076 
L 640.562402 190.396323 
L 648 190.396323 
L 648 191.938907 
z
" clip-path="url(#p890e106329)" style="fill: #ffa600"/>
   </g>
   <g id="patch_120">
    <path d="M 642.560959 187.468772 
L 635.754017 187.468772 
L 634.679236 188.91217 
L 630.300501 188.91217 
L 636.553769 180.988766 
L 641.746732 180.988766 
L 648 188.91217 
L 643.624884 188.91217 
L 642.560959 187.468772 
z
M 636.839653 185.998205 
L 641.464466 185.998205 
L 639.155679 182.846504 
L 636.839653 185.998205 
z
" clip-path="url(#p890e106329)" style="fill: #008000"/>
   </g>
   <g id="patch_121">
    <path d="M 648 180.250437 
Q 646.519467 180.61641 644.91853 180.801524 
Q 643.317593 180.988766 641.573954 180.988766 
Q 636.374252 180.988766 633.337376 179.601474 
Q 630.300501 178.214183 630.300501 175.841745 
Q 630.300501 173.460795 633.337376 172.075632 
Q 636.374252 170.68834 641.573954 170.68834 
Q 643.317593 170.68834 644.91853 170.875582 
Q 646.519467 171.060696 648 171.426669 
L 648 173.479945 
Q 646.506089 172.994819 645.056773 172.769277 
Q 643.607456 172.543736 642.006519 172.543736 
Q 639.134642 172.543736 637.489111 173.422496 
Q 635.848038 174.299128 635.848038 175.841745 
Q 635.848038 177.377978 637.489111 178.256738 
Q 639.134642 179.13337 642.006519 179.13337 
Q 643.607456 179.13337 645.056773 178.907829 
Q 646.506089 178.68016 648 178.195033 
L 648 180.250437 
z
" clip-path="url(#p890e106329)" style="fill: #0000ff"/>
   </g>
   <g id="patch_122">
    <path d="M 630.300501 135.666893 
L 648 135.666893 
L 648 142.497051 
L 641.632296 142.497051 
L 641.632296 170.68834 
L 636.680553 170.68834 
L 636.680553 142.497051 
L 630.300501 142.497051 
L 630.300501 135.666893 
z
" clip-path="url(#p890e106329)" style="fill: #ff0000"/>
   </g>
   <g id="matplotlib.axis_1">
    <g id="xtick_1">
     <g id="line2d_2">
      <defs>
       <path id="m2fd67cc038" d="M 0 0 
L 0 3.5 
" style="stroke: #000000; stroke-width: 0.8"/>
      </defs>
      <g>
       <use xlink:href="#m2fd67cc038" x="98.84975" y="192.24" style="stroke: #000000; stroke-width: 0.8"/>
      </g>
     </g>
     <g id="text_1">
      <!-- 0 -->
      <g transform="translate(95.6685 206.838437) scale(0.1 -0.1)">
       <defs>
        <path id="DejaVuSans-30" d="M 2034 4250 
Q 1547 4250 1301 3770 
Q 1056 3291 1056 2328 
Q 1056 1369 1301 889 
Q 1547 409 2034 409 
Q 2525 409 2770 889 
Q 3016 1369 3016 2328 
Q 3016 3291 2770 3770 
Q 2525 4250 2034 4250 
z
M 2034 4750 
Q 2819 4750 3233 4129 
Q 3647 3509 3647 2328 
Q 3647 1150 3233 529 
Q 2819 -91 2034 -91 
Q 1250 -91 836 529 
Q 422 1150 422 2328 
Q 422 3509 836 4129 
Q 1250 4750 2034 4750 
z
" transform="scale(0.015625)"/>
       </defs>
       <use xlink:href="#DejaVuSans-30"/>
      </g>
     </g>
    </g>
    <g id="xtick_2">
     <g id="line2d_3">
      <g>
       <use xlink:href="#m2fd67cc038" x="192.005008" y="192.24" style="stroke: #000000; stroke-width: 0.8"/>
      </g>
     </g>
     <g id="text_2">
      <!-- 5 -->
      <g transform="translate(188.823758 206.838437) scale(0.1 -0.1)">
       <defs>
        <path id="DejaVuSans-35" d="M 691 4666 
L 3169 4666 
L 3169 4134 
L 1269 4134 
L 1269 2991 
Q 1406 3038 1543 3061 
Q 1681 3084 1819 3084 
Q 2600 3084 3056 2656 
Q 3513 2228 3513 1497 
Q 3513 744 3044 326 
Q 2575 -91 1722 -91 
Q 1428 -91 1123 -41 
Q 819 9 494 109 
L 494 744 
Q 775 591 1075 516 
Q 1375 441 1709 441 
Q 2250 441 2565 725 
Q 2881 1009 2881 1497 
Q 2881 1984 2565 2268 
Q 2250 2553 1709 2553 
Q 1456 2553 1204 2497 
Q 953 2441 691 2322 
L 691 4666 
z
" transform="scale(0.015625)"/>
       </defs>
       <use xlink:href="#DejaVuSans-35"/>
      </g>
     </g>
    </g>
    <g id="xtick_3">
     <g id="line2d_4">
      <g>
       <use xlink:href="#m2fd67cc038" x="285.160267" y="192.24" style="stroke: #000000; stroke-width: 0.8"/>
      </g>
     </g>
     <g id="text_3">
      <!-- 10 -->
      <g transform="translate(278.797767 206.838437) scale(0.1 -0.1)">
       <defs>
        <path id="DejaVuSans-31" d="M 794 531 
L 1825 531 
L 1825 4091 
L 703 3866 
L 703 4441 
L 1819 4666 
L 2450 4666 
L 2450 531 
L 3481 531 
L 3481 0 
L 794 0 
L 794 531 
z
" transform="scale(0.015625)"/>
       </defs>
       <use xlink:href="#DejaVuSans-31"/>
       <use xlink:href="#DejaVuSans-30" x="63.623047"/>
      </g>
     </g>
    </g>
    <g id="xtick_4">
     <g id="line2d_5">
      <g>
       <use xlink:href="#m2fd67cc038" x="378.315526" y="192.24" style="stroke: #000000; stroke-width: 0.8"/>
      </g>
     </g>
     <g id="text_4">
      <!-- 15 -->
      <g transform="translate(371.953026 206.838437) scale(0.1 -0.1)">
       <use xlink:href="#DejaVuSans-31"/>
       <use xlink:href="#DejaVuSans-35" x="63.623047"/>
      </g>
     </g>
    </g>
    <g id="xtick_5">
     <g id="line2d_6">
      <g>
       <use xlink:href="#m2fd67cc038" x="471.470785" y="192.24" style="stroke: #000000; stroke-width: 0.8"/>
      </g>
     </g>
     <g id="text_5">
      <!-- 20 -->
      <g transform="translate(465.108285 206.838437) scale(0.1 -0.1)">
       <defs>
        <path id="DejaVuSans-32" d="M 1228 531 
L 3431 531 
L 3431 0 
L 469 0 
L 469 531 
Q 828 903 1448 1529 
Q 2069 2156 2228 2338 
Q 2531 2678 2651 2914 
Q 2772 3150 2772 3378 
Q 2772 3750 2511 3984 
Q 2250 4219 1831 4219 
Q 1534 4219 1204 4116 
Q 875 4013 500 3803 
L 500 4441 
Q 881 4594 1212 4672 
Q 1544 4750 1819 4750 
Q 2544 4750 2975 4387 
Q 3406 4025 3406 3419 
Q 3406 3131 3298 2873 
Q 3191 2616 2906 2266 
Q 2828 2175 2409 1742 
Q 1991 1309 1228 531 
z
" transform="scale(0.015625)"/>
       </defs>
       <use xlink:href="#DejaVuSans-32"/>
       <use xlink:href="#DejaVuSans-30" x="63.623047"/>
      </g>
     </g>
    </g>
    <g id="xtick_6">
     <g id="line2d_7">
      <g>
       <use xlink:href="#m2fd67cc038" x="564.626043" y="192.24" style="stroke: #000000; stroke-width: 0.8"/>
      </g>
     </g>
     <g id="text_6">
      <!-- 25 -->
      <g transform="translate(558.263543 206.838437) scale(0.1 -0.1)">
       <use xlink:href="#DejaVuSans-32"/>
       <use xlink:href="#DejaVuSans-35" x="63.623047"/>
      </g>
     </g>
    </g>
   </g>
   <g id="matplotlib.axis_2">
    <g id="ytick_1">
     <g id="line2d_8">
      <defs>
       <path id="meb0b365cf8" d="M 0 0 
L -3.5 0 
" style="stroke: #000000; stroke-width: 0.8"/>
      </defs>
      <g>
       <use xlink:href="#meb0b365cf8" x="90" y="192.24" style="stroke: #000000; stroke-width: 0.8"/>
      </g>
     </g>
     <g id="text_7">
      <!-- 0.0 -->
      <g transform="translate(67.096875 196.039219) scale(0.1 -0.1)">
       <defs>
        <path id="DejaVuSans-2e" d="M 684 794 
L 1344 794 
L 1344 0 
L 684 0 
L 684 794 
z
" transform="scale(0.015625)"/>
       </defs>
       <use xlink:href="#DejaVuSans-30"/>
       <use xlink:href="#DejaVuSans-2e" x="63.623047"/>
       <use xlink:href="#DejaVuSans-30" x="95.410156"/>
      </g>
     </g>
    </g>
    <g id="ytick_2">
     <g id="line2d_9">
      <g>
       <use xlink:href="#meb0b365cf8" x="90" y="168.989479" style="stroke: #000000; stroke-width: 0.8"/>
      </g>
     </g>
     <g id="text_8">
      <!-- 0.2 -->
      <g transform="translate(67.096875 172.788698) scale(0.1 -0.1)">
       <use xlink:href="#DejaVuSans-30"/>
       <use xlink:href="#DejaVuSans-2e" x="63.623047"/>
       <use xlink:href="#DejaVuSans-32" x="95.410156"/>
      </g>
     </g>
    </g>
    <g id="ytick_3">
     <g id="line2d_10">
      <g>
       <use xlink:href="#meb0b365cf8" x="90" y="145.738958" style="stroke: #000000; stroke-width: 0.8"/>
      </g>
     </g>
     <g id="text_9">
      <!-- 0.4 -->
      <g transform="translate(67.096875 149.538177) scale(0.1 -0.1)">
       <defs>
        <path id="DejaVuSans-34" d="M 2419 4116 
L 825 1625 
L 2419 1625 
L 2419 4116 
z
M 2253 4666 
L 3047 4666 
L 3047 1625 
L 3713 1625 
L 3713 1100 
L 3047 1100 
L 3047 0 
L 2419 0 
L 2419 1100 
L 313 1100 
L 313 1709 
L 2253 4666 
z
" transform="scale(0.015625)"/>
       </defs>
       <use xlink:href="#DejaVuSans-30"/>
       <use xlink:href="#DejaVuSans-2e" x="63.623047"/>
       <use xlink:href="#DejaVuSans-34" x="95.410156"/>
      </g>
     </g>
    </g>
    <g id="ytick_4">
     <g id="line2d_11">
      <g>
       <use xlink:href="#meb0b365cf8" x="90" y="122.488438" style="stroke: #000000; stroke-width: 0.8"/>
      </g>
     </g>
     <g id="text_10">
      <!-- 0.6 -->
      <g transform="translate(67.096875 126.287656) scale(0.1 -0.1)">
       <defs>
        <path id="DejaVuSans-36" d="M 2113 2584 
Q 1688 2584 1439 2293 
Q 1191 2003 1191 1497 
Q 1191 994 1439 701 
Q 1688 409 2113 409 
Q 2538 409 2786 701 
Q 3034 994 3034 1497 
Q 3034 2003 2786 2293 
Q 2538 2584 2113 2584 
z
M 3366 4563 
L 3366 3988 
Q 3128 4100 2886 4159 
Q 2644 4219 2406 4219 
Q 1781 4219 1451 3797 
Q 1122 3375 1075 2522 
Q 1259 2794 1537 2939 
Q 1816 3084 2150 3084 
Q 2853 3084 3261 2657 
Q 3669 2231 3669 1497 
Q 3669 778 3244 343 
Q 2819 -91 2113 -91 
Q 1303 -91 875 529 
Q 447 1150 447 2328 
Q 447 3434 972 4092 
Q 1497 4750 2381 4750 
Q 2619 4750 2861 4703 
Q 3103 4656 3366 4563 
z
" transform="scale(0.015625)"/>
       </defs>
       <use xlink:href="#DejaVuSans-30"/>
       <use xlink:href="#DejaVuSans-2e" x="63.623047"/>
       <use xlink:href="#DejaVuSans-36" x="95.410156"/>
      </g>
     </g>
    </g>
    <g id="ytick_5">
     <g id="line2d_12">
      <g>
       <use xlink:href="#meb0b365cf8" x="90" y="99.237917" style="stroke: #000000; stroke-width: 0.8"/>
      </g>
     </g>
     <g id="text_11">
      <!-- 0.8 -->
      <g transform="translate(67.096875 103.037135) scale(0.1 -0.1)">
       <defs>
        <path id="DejaVuSans-38" d="M 2034 2216 
Q 1584 2216 1326 1975 
Q 1069 1734 1069 1313 
Q 1069 891 1326 650 
Q 1584 409 2034 409 
Q 2484 409 2743 651 
Q 3003 894 3003 1313 
Q 3003 1734 2745 1975 
Q 2488 2216 2034 2216 
z
M 1403 2484 
Q 997 2584 770 2862 
Q 544 3141 544 3541 
Q 544 4100 942 4425 
Q 1341 4750 2034 4750 
Q 2731 4750 3128 4425 
Q 3525 4100 3525 3541 
Q 3525 3141 3298 2862 
Q 3072 2584 2669 2484 
Q 3125 2378 3379 2068 
Q 3634 1759 3634 1313 
Q 3634 634 3220 271 
Q 2806 -91 2034 -91 
Q 1263 -91 848 271 
Q 434 634 434 1313 
Q 434 1759 690 2068 
Q 947 2378 1403 2484 
z
M 1172 3481 
Q 1172 3119 1398 2916 
Q 1625 2713 2034 2713 
Q 2441 2713 2670 2916 
Q 2900 3119 2900 3481 
Q 2900 3844 2670 4047 
Q 2441 4250 2034 4250 
Q 1625 4250 1398 4047 
Q 1172 3844 1172 3481 
z
" transform="scale(0.015625)"/>
       </defs>
       <use xlink:href="#DejaVuSans-30"/>
       <use xlink:href="#DejaVuSans-2e" x="63.623047"/>
       <use xlink:href="#DejaVuSans-38" x="95.410156"/>
      </g>
     </g>
    </g>
    <g id="ytick_6">
     <g id="line2d_13">
      <g>
       <use xlink:href="#meb0b365cf8" x="90" y="75.987396" style="stroke: #000000; stroke-width: 0.8"/>
      </g>
     </g>
     <g id="text_12">
      <!-- 1.0 -->
      <g transform="translate(67.096875 79.786615) scale(0.1 -0.1)">
       <use xlink:href="#DejaVuSans-31"/>
       <use xlink:href="#DejaVuSans-2e" x="63.623047"/>
       <use xlink:href="#DejaVuSans-30" x="95.410156"/>
      </g>
     </g>
    </g>
    <g id="ytick_7">
     <g id="line2d_14">
      <g>
       <use xlink:href="#meb0b365cf8" x="90" y="52.736875" style="stroke: #000000; stroke-width: 0.8"/>
      </g>
     </g>
     <g id="text_13">
      <!-- 1.2 -->
      <g transform="translate(67.096875 56.536094) scale(0.1 -0.1)">
       <use xlink:href="#DejaVuSans-31"/>
       <use xlink:href="#DejaVuSans-2e" x="63.623047"/>
       <use xlink:href="#DejaVuSans-32" x="95.410156"/>
      </g>
     </g>
    </g>
    <g id="ytick_8">
     <g id="line2d_15">
      <g>
       <use xlink:href="#meb0b365cf8" x="90" y="29.486354" style="stroke: #000000; stroke-width: 0.8"/>
      </g>
     </g>
     <g id="text_14">
      <!-- 1.4 -->
      <g transform="translate(67.096875 33.285573) scale(0.1 -0.1)">
       <use xlink:href="#DejaVuSans-31"/>
       <use xlink:href="#DejaVuSans-2e" x="63.623047"/>
       <use xlink:href="#DejaVuSans-34" x="95.410156"/>
      </g>
     </g>
    </g>
   </g>
  </g>
 </g>
 <defs>
  <clipPath id="p890e106329">
   <rect x="90" y="25.92" width="558" height="166.32"/>
  </clipPath>
 </defs>
</svg>
