<?xml version="1.0" encoding="utf-8" standalone="no"?>
<!DOCTYPE svg PUBLIC "-//W3C//DTD SVG 1.1//EN"
  "http://www.w3.org/Graphics/SVG/1.1/DTD/svg11.dtd">
<svg xmlns:xlink="http://www.w3.org/1999/xlink" width="720pt" height="216pt" viewBox="0 0 720 216" xmlns="http://www.w3.org/2000/svg" version="1.1">
 <metadata>
  <rdf:RDF xmlns:dc="http://purl.org/dc/elements/1.1/" xmlns:cc="http://creativecommons.org/ns#" xmlns:rdf="http://www.w3.org/1999/02/22-rdf-syntax-ns#">
   <cc:Work>
    <dc:type rdf:resource="http://purl.org/dc/dcmitype/StillImage"/>
    <dc:date>2025-12-17T10:22:38.740396</dc:date>
    <dc:format>image/svg+xml</dc:format>
    <dc:creator>
     <cc:Agent>
      <dc:title>Matplotlib v3.8.2, https://matplotlib.org/</dc:title>
     </cc:Agent>
    </dc:creator>
   </cc:Work>
  </rdf:RDF>
 </metadata>
 <defs>
  <style type="text/css">*{stroke-linejoin: round; stroke-linecap: butt}</style>
 </defs>
 <g id="figure_1">
  <g id="patch_1">
   <path d="M 0 216 
L 720 216 
L 720 0 
L 0 0 
z
" style="fill: #ffffff"/>
  </g>
  <g id="axes_1">
   <g id="patch_2">
    <path d="M 90 192.24 
L 648 192.24 
L 648 25.92 
L 90 25.92 
z
" style="fill: #ffffff"/>
   </g>
   <g id="line2d_1">
    <path d="M 90 192.24 
L 648 192.24 
" clip-path="url(#p1e13df08fc)" style="fill: none; stroke: #000000; stroke-width: 0.5; stroke-linecap: square"/>
   </g>
   <g id="patch_3">
    <path d="M 107.699499 192.121907 
Q 105.914476 192.180953 103.994584 192.210612 
Q 102.074692 192.24 100.027865 192.24 
Q 95.402671 192.24 92.701335 192.064208 
Q 90 191.888417 90 191.587791 
Q 90 191.283661 92.748936 191.109217 
Q 95.501839 190.934774 100.289668 190.934774 
Q 102.134193 190.934774 103.824015 190.9585 
Q 105.517804 190.981957 107.017224 191.028332 
L 107.017224 191.288514 
Q 105.470203 191.228928 103.93905 191.19954 
Q 102.407896 191.169882 100.868809 191.169882 
Q 98.020705 191.169882 96.477652 191.278268 
Q 94.934598 191.386386 94.934598 191.587791 
Q 94.934598 191.787309 96.422118 191.896236 
Q 97.909637 192.004892 100.646673 192.004892 
Q 101.392416 192.004892 102.031058 191.998691 
Q 102.6697 191.99222 103.17744 191.978739 
L 103.17744 191.734464 
L 100.261901 191.734464 
L 100.261901 191.516881 
L 107.699499 191.516881 
L 107.699499 192.121907 
z
" clip-path="url(#p1e13df08fc)" style="fill: #ffa600"/>
   </g>
   <g id="patch_4">
    <path d="M 107.699499 190.725204 
Q 106.218967 190.829083 104.618029 190.881626 
Q 103.017092 190.934774 101.273453 190.934774 
Q 96.073751 190.934774 93.036876 190.541 
Q 90 190.147227 90 189.473826 
Q 90 188.798009 93.036876 188.40484 
Q 96.073751 188.011067 101.273453 188.011067 
Q 103.017092 188.011067 104.618029 188.064214 
Q 106.218967 188.116757 107.699499 188.220636 
L 107.699499 188.803445 
Q 106.205588 188.665745 104.756272 188.601727 
Q 103.306955 188.537708 101.706018 188.537708 
Q 98.834142 188.537708 97.18861 188.787138 
Q 95.547538 189.035965 95.547538 189.473826 
Q 95.547538 189.909876 97.18861 190.159306 
Q 98.834142 190.408132 101.706018 190.408132 
Q 103.306955 190.408132 104.756272 190.344114 
Q 106.205588 190.279491 107.699499 190.141791 
L 107.699499 190.725204 
z
" clip-path="url(#p1e13df08fc)" style="fill: #0000ff"/>
   </g>
   <g id="patch_5">
    <path d="M 90 185.035151 
L 107.699499 185.035151 
L 107.699499 185.615537 
L 101.331796 185.615537 
L 101.331796 188.011067 
L 96.380052 188.011067 
L 96.380052 185.615537 
L 90 185.615537 
L 90 185.035151 
z
" clip-path="url(#p1e13df08fc)" style="fill: #ff0000"/>
   </g>
   <g id="patch_6">
    <path d="M 102.260459 184.302814 
L 95.453516 184.302814 
L 94.378735 185.035151 
L 90 185.035151 
L 96.253268 181.015053 
L 101.446231 181.015053 
L 107.699499 185.035151 
L 103.324383 185.035151 
L 102.260459 184.302814 
z
M 96.539153 183.556692 
L 101.163965 183.556692 
L 98.855178 181.957614 
L 96.539153 183.556692 
z
" clip-path="url(#p1e13df08fc)" style="fill: #008000"/>
   </g>
   <g id="patch_7">
    <path d="M 108.631052 190.165724 
L 126.330551 190.165724 
L 126.330551 190.570265 
L 119.962847 190.570265 
L 119.962847 192.24 
L 115.011104 192.24 
L 115.011104 190.570265 
L 108.631052 190.570265 
L 108.631052 190.165724 
z
" clip-path="url(#p1e13df08fc)" style="fill: #ff0000"/>
   </g>
   <g id="patch_8">
    <path d="M 126.330551 189.972184 
Q 124.545527 190.068954 122.625636 190.11756 
Q 120.705744 190.165724 118.658917 190.165724 
Q 114.033723 190.165724 111.332387 189.877624 
Q 108.631052 189.589524 108.631052 189.096838 
Q 108.631052 188.598408 111.379988 188.312517 
Q 114.132891 188.026627 118.92072 188.026627 
Q 120.765244 188.026627 122.455067 188.065511 
Q 124.148856 188.103954 125.648275 188.179956 
L 125.648275 188.606361 
Q 124.101255 188.508708 122.570102 188.460544 
Q 121.038948 188.411938 119.499861 188.411938 
Q 116.651757 188.411938 115.108704 188.58957 
Q 113.56565 188.76676 113.56565 189.096838 
Q 113.56565 189.423823 115.053169 189.602338 
Q 116.540689 189.780412 119.277725 189.780412 
Q 120.023468 189.780412 120.66211 189.770249 
Q 121.300752 189.759644 121.808492 189.737551 
L 121.808492 189.337216 
L 118.892953 189.337216 
L 118.892953 188.980626 
L 126.330551 188.980626 
L 126.330551 189.972184 
z
" clip-path="url(#p1e13df08fc)" style="fill: #ffa600"/>
   </g>
   <g id="patch_9">
    <path d="M 120.89151 187.200039 
L 114.084567 187.200039 
L 113.009787 188.026627 
L 108.631052 188.026627 
L 114.88432 183.489148 
L 120.077283 183.489148 
L 126.330551 188.026627 
L 121.955434 188.026627 
L 120.89151 187.200039 
z
M 115.170204 186.357892 
L 119.795017 186.357892 
L 117.48623 184.553014 
L 115.170204 186.357892 
z
" clip-path="url(#p1e13df08fc)" style="fill: #008000"/>
   </g>
   <g id="patch_10">
    <path d="M 126.330551 183.11744 
Q 124.850018 183.301687 123.249081 183.394882 
Q 121.648144 183.489148 119.904504 183.489148 
Q 114.704803 183.489148 111.667927 182.790724 
Q 108.631052 182.0923 108.631052 180.897909 
Q 108.631052 179.699234 111.667927 179.001881 
Q 114.704803 178.303457 119.904504 178.303457 
Q 121.648144 178.303457 123.249081 178.397723 
Q 124.850018 178.490918 126.330551 178.675164 
L 126.330551 179.708875 
Q 124.83664 179.46464 123.387324 179.351093 
Q 121.938007 179.237546 120.33707 179.237546 
Q 117.465193 179.237546 115.819662 179.679952 
Q 114.178589 180.121287 114.178589 180.897909 
Q 114.178589 181.671317 115.819662 182.113724 
Q 117.465193 182.555059 120.33707 182.555059 
Q 121.938007 182.555059 123.387324 182.441512 
Q 124.83664 182.326893 126.330551 182.082659 
L 126.330551 183.11744 
z
" clip-path="url(#p1e13df08fc)" style="fill: #0000ff"/>
   </g>
   <g id="patch_11">
    <path d="M 139.522562 191.414797 
L 132.715619 191.414797 
L 131.640839 192.24 
L 127.262104 192.24 
L 133.515372 187.710119 
L 138.708335 187.710119 
L 144.961603 192.24 
L 140.586486 192.24 
L 139.522562 191.414797 
z
M 133.801256 190.57406 
L 138.426069 190.57406 
L 136.117281 188.772204 
L 133.801256 190.57406 
z
" clip-path="url(#p1e13df08fc)" style="fill: #008000"/>
   </g>
   <g id="patch_12">
    <path d="M 144.961603 187.109005 
Q 143.176579 187.409562 141.256687 187.560527 
Q 139.336795 187.710119 137.289969 187.710119 
Q 132.664774 187.710119 129.963439 186.815309 
Q 127.262104 185.9205 127.262104 184.390265 
Q 127.262104 182.842189 130.01104 181.954242 
Q 132.763942 181.066294 137.551772 181.066294 
Q 139.396296 181.066294 141.086118 181.187066 
Q 142.779907 181.306465 144.279327 181.542519 
L 144.279327 182.866893 
Q 142.732307 182.563591 141.201153 182.413998 
Q 139.67 182.263033 138.130913 182.263033 
Q 135.282809 182.263033 133.739755 182.814741 
Q 132.196702 183.365077 132.196702 184.390265 
Q 132.196702 185.405847 133.684221 185.9603 
Q 135.171741 186.51338 137.908777 186.51338 
Q 138.65452 186.51338 139.293162 186.481814 
Q 139.931803 186.448877 140.439543 186.380256 
L 140.439543 185.136855 
L 137.524005 185.136855 
L 137.524005 184.029322 
L 144.961603 184.029322 
L 144.961603 187.109005 
z
" clip-path="url(#p1e13df08fc)" style="fill: #ffa600"/>
   </g>
   <g id="patch_13">
    <path d="M 144.961603 180.243723 
Q 143.48107 180.651453 141.880133 180.857688 
Q 140.279195 181.066294 138.535556 181.066294 
Q 133.335855 181.066294 130.298979 179.520714 
Q 127.262104 177.975133 127.262104 175.332001 
Q 127.262104 172.679386 130.298979 171.136176 
Q 133.335855 169.590596 138.535556 169.590596 
Q 140.279195 169.590596 141.880133 169.799202 
Q 143.48107 170.005437 144.961603 170.413167 
L 144.961603 172.700721 
Q 143.467692 172.160242 142.018375 171.908967 
Q 140.569059 171.657691 138.968121 171.657691 
Q 136.096245 171.657691 134.450713 172.636717 
Q 132.809641 173.613372 132.809641 175.332001 
Q 132.809641 177.043518 134.450713 178.022543 
Q 136.096245 178.999199 138.968121 178.999199 
Q 140.569059 178.999199 142.018375 178.747923 
Q 143.467692 178.494277 144.961603 177.953798 
L 144.961603 180.243723 
z
" clip-path="url(#p1e13df08fc)" style="fill: #0000ff"/>
   </g>
   <g id="patch_14">
    <path d="M 127.262104 127.311708 
L 144.961603 127.311708 
L 144.961603 135.557269 
L 138.593899 135.557269 
L 138.593899 169.590596 
L 133.642156 169.590596 
L 133.642156 135.557269 
L 127.262104 135.557269 
L 127.262104 127.311708 
z
" clip-path="url(#p1e13df08fc)" style="fill: #ff0000"/>
   </g>
   <g id="patch_15">
    <path d="M 163.592654 192.047224 
Q 161.807631 192.143612 159.887739 192.192026 
Q 157.967847 192.24 155.92102 192.24 
Q 151.295826 192.24 148.594491 191.953036 
Q 145.893155 191.666073 145.893155 191.17533 
Q 145.893155 190.678866 148.642091 190.394103 
Q 151.394994 190.10934 156.182824 190.10934 
Q 158.027348 190.10934 159.71717 190.148071 
Q 161.410959 190.186362 162.910379 190.262064 
L 162.910379 190.686788 
Q 161.363358 190.58952 159.832205 190.541546 
Q 158.301052 190.493132 156.761965 190.493132 
Q 153.913861 190.493132 152.370807 190.670063 
Q 150.827753 190.846554 150.827753 191.17533 
Q 150.827753 191.501025 152.315273 191.678837 
Q 153.802792 191.856208 156.539828 191.856208 
Q 157.285572 191.856208 157.924213 191.846085 
Q 158.562855 191.835522 159.070595 191.813516 
L 159.070595 191.41476 
L 156.155057 191.41476 
L 156.155057 191.059576 
L 163.592654 191.059576 
L 163.592654 192.047224 
z
" clip-path="url(#p1e13df08fc)" style="fill: #ffa600"/>
   </g>
   <g id="patch_16">
    <path d="M 158.153614 188.662636 
L 151.346671 188.662636 
L 150.27189 190.10934 
L 145.893155 190.10934 
L 152.146423 182.167789 
L 157.339386 182.167789 
L 163.592654 190.10934 
L 159.217538 190.10934 
L 158.153614 188.662636 
z
M 152.432308 187.188701 
L 157.057121 187.188701 
L 154.748333 184.029781 
L 152.432308 187.188701 
z
" clip-path="url(#p1e13df08fc)" style="fill: #008000"/>
   </g>
   <g id="patch_17">
    <path d="M 145.893155 172.676667 
L 163.592654 172.676667 
L 163.592654 174.5277 
L 157.224951 174.5277 
L 157.224951 182.167789 
L 152.273207 182.167789 
L 152.273207 174.5277 
L 145.893155 174.5277 
L 145.893155 172.676667 
z
" clip-path="url(#p1e13df08fc)" style="fill: #ff0000"/>
   </g>
   <g id="patch_18">
    <path d="M 163.592654 171.093886 
Q 162.112122 171.878435 160.511185 172.27527 
Q 158.910247 172.676667 157.166608 172.676667 
Q 151.966906 172.676667 148.930031 169.702681 
Q 145.893155 166.728696 145.893155 161.642816 
Q 145.893155 156.53869 148.930031 153.569266 
Q 151.966906 150.595281 157.166608 150.595281 
Q 158.910247 150.595281 160.511185 150.996678 
Q 162.112122 151.393513 163.592654 152.178061 
L 163.592654 156.579742 
Q 162.098744 155.53976 160.649427 155.056259 
Q 159.200111 154.572758 157.599173 154.572758 
Q 154.727297 154.572758 153.081765 156.456587 
Q 151.440693 158.335853 151.440693 161.642816 
Q 151.440693 164.936094 153.081765 166.819922 
Q 154.727297 168.699189 157.599173 168.699189 
Q 159.200111 168.699189 160.649427 168.215689 
Q 162.098744 167.727627 163.592654 166.687644 
L 163.592654 171.093886 
z
" clip-path="url(#p1e13df08fc)" style="fill: #0000ff"/>
   </g>
   <g id="patch_19">
    <path d="M 182.223706 192.12962 
Q 180.438683 192.18481 178.518791 192.212531 
Q 176.598899 192.24 174.552072 192.24 
Q 169.926878 192.24 167.225542 192.075691 
Q 164.524207 191.911381 164.524207 191.630392 
Q 164.524207 191.346127 167.273143 191.183077 
Q 170.026046 191.020028 174.813876 191.020028 
Q 176.6584 191.020028 178.348222 191.042205 
Q 180.042011 191.06413 181.541431 191.107475 
L 181.541431 191.350663 
Q 179.99441 191.294969 178.463257 191.2675 
Q 176.932103 191.239779 175.393016 191.239779 
Q 172.544912 191.239779 171.001859 191.341087 
Q 169.458805 191.442142 169.458805 191.630392 
Q 169.458805 191.816878 170.946325 191.91869 
Q 172.433844 192.020249 175.17088 192.020249 
Q 175.916623 192.020249 176.555265 192.014453 
Q 177.193907 192.008404 177.701647 191.995804 
L 177.701647 191.767485 
L 174.786108 191.767485 
L 174.786108 191.564114 
L 182.223706 191.564114 
L 182.223706 192.12962 
z
" clip-path="url(#p1e13df08fc)" style="fill: #ffa600"/>
   </g>
   <g id="patch_20">
    <path d="M 164.524207 188.760821 
L 182.223706 188.760821 
L 182.223706 189.201429 
L 175.856003 189.201429 
L 175.856003 191.020028 
L 170.904259 191.020028 
L 170.904259 189.201429 
L 164.524207 189.201429 
L 164.524207 188.760821 
z
" clip-path="url(#p1e13df08fc)" style="fill: #ff0000"/>
   </g>
   <g id="patch_21">
    <path d="M 176.784666 188.201103 
L 169.977723 188.201103 
L 168.902942 188.760821 
L 164.524207 188.760821 
L 170.777475 185.688299 
L 175.970438 185.688299 
L 182.223706 188.760821 
L 177.84859 188.760821 
L 176.784666 188.201103 
z
M 171.06336 187.63085 
L 175.688172 187.63085 
L 173.379385 186.408689 
L 171.06336 187.63085 
z
" clip-path="url(#p1e13df08fc)" style="fill: #008000"/>
   </g>
   <g id="patch_22">
    <path d="M 182.223706 185.461585 
Q 180.743174 185.573962 179.142236 185.630804 
Q 177.541299 185.688299 175.79766 185.688299 
Q 170.597958 185.688299 167.561083 185.262312 
Q 164.524207 184.836325 164.524207 184.107835 
Q 164.524207 183.376731 167.561083 182.951397 
Q 170.597958 182.52541 175.79766 182.52541 
Q 177.541299 182.52541 179.142236 182.582905 
Q 180.743174 182.639747 182.223706 182.752124 
L 182.223706 183.382611 
Q 180.729795 183.233646 179.280479 183.16439 
Q 177.831162 183.095135 176.230225 183.095135 
Q 173.358349 183.095135 171.712817 183.36497 
Q 170.071745 183.634152 170.071745 184.107835 
Q 170.071745 184.579557 171.712817 184.849392 
Q 173.358349 185.118574 176.230225 185.118574 
Q 177.831162 185.118574 179.280479 185.049319 
Q 180.729795 184.97941 182.223706 184.830445 
L 182.223706 185.461585 
z
" clip-path="url(#p1e13df08fc)" style="fill: #0000ff"/>
   </g>
   <g id="patch_23">
    <path d="M 200.854758 191.878048 
Q 199.069734 192.059024 197.149843 192.149925 
Q 195.229951 192.24 193.183124 192.24 
Q 188.55793 192.24 185.856594 191.701203 
Q 183.155259 191.162407 183.155259 190.240998 
Q 183.155259 189.308847 185.904195 188.774182 
Q 188.657098 188.239517 193.444927 188.239517 
Q 195.289451 188.239517 196.979274 188.312238 
Q 198.673063 188.384133 200.172482 188.526269 
L 200.172482 189.323721 
Q 198.625462 189.141092 197.094309 189.051018 
Q 195.563155 188.960116 194.024068 188.960116 
Q 191.175964 188.960116 189.632911 189.292319 
Q 188.089857 189.623696 188.089857 190.240998 
Q 188.089857 190.852516 189.577376 191.186371 
Q 191.064896 191.519401 193.801932 191.519401 
Q 194.547675 191.519401 195.186317 191.500394 
Q 195.824959 191.480561 196.332699 191.439242 
L 196.332699 190.690546 
L 193.41716 190.690546 
L 193.41716 190.023661 
L 200.854758 190.023661 
L 200.854758 191.878048 
z
" clip-path="url(#p1e13df08fc)" style="fill: #ffa600"/>
   </g>
   <g id="patch_24">
    <path d="M 200.854758 187.930707 
Q 199.374225 188.083777 197.773288 188.161202 
Q 196.172351 188.239517 194.428711 188.239517 
Q 189.22901 188.239517 186.192134 187.659274 
Q 183.155259 187.079032 183.155259 186.086746 
Q 183.155259 185.0909 186.192134 184.511547 
Q 189.22901 183.931305 194.428711 183.931305 
Q 196.172351 183.931305 197.773288 184.009619 
Q 199.374225 184.087044 200.854758 184.240115 
L 200.854758 185.098909 
Q 199.360847 184.896002 197.911531 184.801668 
Q 196.462214 184.707335 194.861277 184.707335 
Q 191.9894 184.707335 190.343869 185.074881 
Q 188.702796 185.441537 188.702796 186.086746 
Q 188.702796 186.729284 190.343869 187.096831 
Q 191.9894 187.463487 194.861277 187.463487 
Q 196.462214 187.463487 197.911531 187.369153 
Q 199.360847 187.273929 200.854758 187.071022 
L 200.854758 187.930707 
z
" clip-path="url(#p1e13df08fc)" style="fill: #0000ff"/>
   </g>
   <g id="patch_25">
    <path d="M 195.415717 180.792016 
L 188.608774 180.792016 
L 187.533994 183.931305 
L 183.155259 183.931305 
L 189.408527 166.698455 
L 194.60149 166.698455 
L 200.854758 183.931305 
L 196.479641 183.931305 
L 195.415717 180.792016 
z
M 189.694411 177.593634 
L 194.319224 177.593634 
L 192.010437 170.738904 
L 189.694411 177.593634 
z
" clip-path="url(#p1e13df08fc)" style="fill: #008000"/>
   </g>
   <g id="patch_26">
    <path d="M 183.155259 126.078166 
L 200.854758 126.078166 
L 200.854758 134.000254 
L 194.487054 134.000254 
L 194.487054 166.698455 
L 189.535311 166.698455 
L 189.535311 134.000254 
L 183.155259 134.000254 
L 183.155259 126.078166 
z
" clip-path="url(#p1e13df08fc)" style="fill: #ff0000"/>
   </g>
   <g id="patch_27">
    <path d="M 219.48581 191.994121 
Q 217.700786 192.11706 215.780894 192.178811 
Q 213.861002 192.24 211.814176 192.24 
Q 207.188981 192.24 204.487646 191.873988 
Q 201.786311 191.507976 201.786311 190.882051 
Q 201.786311 190.248828 204.535247 189.885623 
Q 207.288149 189.522418 212.075979 189.522418 
Q 213.920503 189.522418 215.610325 189.571818 
Q 217.304114 189.620657 218.803534 189.717212 
L 218.803534 190.258932 
Q 217.256514 190.13487 215.72536 190.073681 
Q 214.194207 190.011931 212.65512 190.011931 
Q 209.807016 190.011931 208.263962 190.2376 
Q 206.720909 190.462709 206.720909 190.882051 
Q 206.720909 191.297463 208.208428 191.524256 
Q 209.695948 191.750487 212.432984 191.750487 
Q 213.178727 191.750487 213.817369 191.737576 
Q 214.45601 191.724103 214.96375 191.696034 
L 214.96375 191.187435 
L 212.048212 191.187435 
L 212.048212 190.734411 
L 219.48581 190.734411 
L 219.48581 191.994121 
z
" clip-path="url(#p1e13df08fc)" style="fill: #ffa600"/>
   </g>
   <g id="patch_28">
    <path d="M 201.786311 183.8402 
L 219.48581 183.8402 
L 219.48581 184.948391 
L 213.118106 184.948391 
L 213.118106 189.522418 
L 208.166363 189.522418 
L 208.166363 184.948391 
L 201.786311 184.948391 
L 201.786311 183.8402 
z
" clip-path="url(#p1e13df08fc)" style="fill: #ff0000"/>
   </g>
   <g id="patch_29">
    <path d="M 219.48581 182.759975 
Q 218.005277 183.295418 216.40434 183.566253 
Q 214.803402 183.8402 213.059763 183.8402 
Q 207.860062 183.8402 204.823186 181.810498 
Q 201.786311 179.780795 201.786311 176.309755 
Q 201.786311 172.826263 204.823186 170.799673 
Q 207.860062 168.769971 213.059763 168.769971 
Q 214.803402 168.769971 216.40434 169.043918 
Q 218.005277 169.314753 219.48581 169.850196 
L 219.48581 172.85428 
Q 217.991899 172.144507 216.542582 171.814525 
Q 215.093266 171.484542 213.492328 171.484542 
Q 210.620452 171.484542 208.97492 172.770228 
Q 207.333848 174.052801 207.333848 176.309755 
Q 207.333848 178.55737 208.97492 179.843056 
Q 210.620452 181.125629 213.492328 181.125629 
Q 215.093266 181.125629 216.542582 180.795646 
Q 217.991899 180.462551 219.48581 179.752778 
L 219.48581 182.759975 
z
" clip-path="url(#p1e13df08fc)" style="fill: #0000ff"/>
   </g>
   <g id="patch_30">
    <path d="M 214.046769 163.369328 
L 207.239826 163.369328 
L 206.165046 168.769971 
L 201.786311 168.769971 
L 208.039579 139.123618 
L 213.232542 139.123618 
L 219.48581 168.769971 
L 215.110693 168.769971 
L 214.046769 163.369328 
z
M 208.325463 157.867026 
L 212.950276 157.867026 
L 210.641488 146.074563 
L 208.325463 157.867026 
z
" clip-path="url(#p1e13df08fc)" style="fill: #008000"/>
   </g>
   <g id="patch_31">
    <path d="M 238.116861 191.883345 
Q 236.331838 192.061673 234.411946 192.151243 
Q 232.492054 192.24 230.445227 192.24 
Q 225.820033 192.24 223.118698 191.709089 
Q 220.417362 191.178178 220.417362 190.270256 
Q 220.417362 189.351747 223.166298 188.824908 
Q 225.919201 188.298068 230.707031 188.298068 
Q 232.551555 188.298068 234.241377 188.369725 
Q 235.935166 188.440567 237.434586 188.580624 
L 237.434586 189.366404 
Q 235.887565 189.186448 234.356412 189.097692 
Q 232.825259 189.008121 231.286172 189.008121 
Q 228.438068 189.008121 226.895014 189.335462 
Q 225.35196 189.661988 225.35196 190.270256 
Q 225.35196 190.872823 226.83948 191.201792 
Q 228.327 191.529947 231.064035 191.529947 
Q 231.809779 191.529947 232.44842 191.511219 
Q 233.087062 191.491676 233.594802 191.450962 
L 233.594802 190.713224 
L 230.679264 190.713224 
L 230.679264 190.0561 
L 238.116861 190.0561 
L 238.116861 191.883345 
z
" clip-path="url(#p1e13df08fc)" style="fill: #ffa600"/>
   </g>
   <g id="patch_32">
    <path d="M 232.677821 187.436351 
L 225.870878 187.436351 
L 224.796097 188.298068 
L 220.417362 188.298068 
L 226.67063 183.56775 
L 231.863593 183.56775 
L 238.116861 188.298068 
L 233.741745 188.298068 
L 232.677821 187.436351 
z
M 226.956515 186.558414 
L 231.581328 186.558414 
L 229.27254 184.67683 
L 226.956515 186.558414 
z
" clip-path="url(#p1e13df08fc)" style="fill: #008000"/>
   </g>
   <g id="patch_33">
    <path d="M 238.116861 182.296251 
Q 236.636329 182.926504 235.035392 183.245295 
Q 233.434454 183.56775 231.690815 183.56775 
Q 226.491113 183.56775 223.454238 181.178651 
Q 220.417362 178.789552 220.417362 174.7039 
Q 220.417362 170.603591 223.454238 168.218156 
Q 226.491113 165.829057 231.690815 165.829057 
Q 233.434454 165.829057 235.035392 166.151512 
Q 236.636329 166.470303 238.116861 167.100556 
L 238.116861 170.636569 
Q 236.622951 169.801117 235.173634 169.412706 
Q 233.724318 169.024294 232.12338 169.024294 
Q 229.251504 169.024294 227.605972 170.537634 
Q 225.9649 172.04731 225.9649 174.7039 
Q 225.9649 177.349497 227.605972 178.862838 
Q 229.251504 180.372514 232.12338 180.372514 
Q 233.724318 180.372514 235.173634 179.984102 
Q 236.622951 179.592026 238.116861 178.756574 
L 238.116861 182.296251 
z
" clip-path="url(#p1e13df08fc)" style="fill: #0000ff"/>
   </g>
   <g id="patch_34">
    <path d="M 220.417362 107.488467 
L 238.116861 107.488467 
L 238.116861 118.866508 
L 231.749158 118.866508 
L 231.749158 165.829057 
L 226.797414 165.829057 
L 226.797414 118.866508 
L 220.417362 118.866508 
L 220.417362 107.488467 
z
" clip-path="url(#p1e13df08fc)" style="fill: #ff0000"/>
   </g>
   <g id="patch_35">
    <path d="M 251.308873 191.952416 
L 244.50193 191.952416 
L 243.427149 192.24 
L 239.048414 192.24 
L 245.301682 190.661334 
L 250.494645 190.661334 
L 256.747913 192.24 
L 252.372797 192.24 
L 251.308873 191.952416 
z
M 245.587567 191.659419 
L 250.212379 191.659419 
L 247.903592 191.031471 
L 245.587567 191.659419 
z
" clip-path="url(#p1e13df08fc)" style="fill: #008000"/>
   </g>
   <g id="patch_36">
    <path d="M 256.747913 190.410418 
Q 255.267381 190.534791 253.666443 190.597701 
Q 252.065506 190.661334 250.321867 190.661334 
Q 245.122165 190.661334 242.08529 190.189873 
Q 239.048414 189.718413 239.048414 188.912158 
Q 239.048414 188.103011 242.08529 187.632273 
Q 245.122165 187.160813 250.321867 187.160813 
Q 252.065506 187.160813 253.666443 187.224446 
Q 255.267381 187.287355 256.747913 187.411728 
L 256.747913 188.109518 
Q 255.254002 187.944652 253.804686 187.868003 
Q 252.355369 187.791355 250.754432 187.791355 
Q 247.882556 187.791355 246.237024 188.089995 
Q 244.595952 188.387911 244.595952 188.912158 
Q 244.595952 189.434235 246.237024 189.732875 
Q 247.882556 190.030792 250.754432 190.030792 
Q 252.355369 190.030792 253.804686 189.954143 
Q 255.254002 189.876772 256.747913 189.711905 
L 256.747913 190.410418 
z
" clip-path="url(#p1e13df08fc)" style="fill: #0000ff"/>
   </g>
   <g id="patch_37">
    <path d="M 239.048414 183.248466 
L 256.747913 183.248466 
L 256.747913 184.011483 
L 250.38021 184.011483 
L 250.38021 187.160813 
L 245.428466 187.160813 
L 245.428466 184.011483 
L 239.048414 184.011483 
L 239.048414 183.248466 
z
" clip-path="url(#p1e13df08fc)" style="fill: #ff0000"/>
   </g>
   <g id="patch_38">
    <path d="M 256.747913 182.726814 
Q 254.96289 182.98764 253.042998 183.118649 
Q 251.123106 183.248466 249.076279 183.248466 
Q 244.451085 183.248466 241.74975 182.471943 
Q 239.048414 181.69542 239.048414 180.367471 
Q 239.048414 179.024038 241.79735 178.25347 
Q 244.550253 177.482902 249.338083 177.482902 
Q 251.182607 177.482902 252.872429 177.587709 
Q 254.566218 177.691325 256.065638 177.896175 
L 256.065638 179.045476 
Q 254.518617 178.782268 252.987464 178.652451 
Q 251.45631 178.521442 249.917223 178.521442 
Q 247.069119 178.521442 245.526066 179.000219 
Q 243.983012 179.477804 243.983012 180.367471 
Q 243.983012 181.2488 245.470532 181.729959 
Q 246.958051 182.209926 249.695087 182.209926 
Q 250.44083 182.209926 251.079472 182.182534 
Q 251.718114 182.15395 252.225854 182.094401 
L 252.225854 181.015367 
L 249.310315 181.015367 
L 249.310315 180.054241 
L 256.747913 180.054241 
L 256.747913 182.726814 
z
" clip-path="url(#p1e13df08fc)" style="fill: #ffa600"/>
   </g>
   <g id="patch_39">
    <path d="M 275.378965 192.059742 
Q 273.593941 192.149871 271.67405 192.195141 
Q 269.754158 192.24 267.707331 192.24 
Q 263.082137 192.24 260.380801 191.971671 
Q 257.679466 191.703342 257.679466 191.244466 
Q 257.679466 190.78024 260.428402 190.513968 
Q 263.181305 190.247697 267.969134 190.247697 
Q 269.813659 190.247697 271.503481 190.283913 
Q 273.19727 190.319718 274.696689 190.390504 
L 274.696689 190.787648 
Q 273.149669 190.696695 271.618516 190.651837 
Q 270.087362 190.606566 268.548275 190.606566 
Q 265.700171 190.606566 264.157118 190.772009 
Q 262.614064 190.937039 262.614064 191.244466 
Q 262.614064 191.549011 264.101583 191.715276 
Q 265.589103 191.88113 268.326139 191.88113 
Q 269.071882 191.88113 269.710524 191.871665 
Q 270.349166 191.861787 270.856906 191.84121 
L 270.856906 191.468348 
L 267.941367 191.468348 
L 267.941367 191.136229 
L 275.378965 191.136229 
L 275.378965 192.059742 
z
" clip-path="url(#p1e13df08fc)" style="fill: #ffa600"/>
   </g>
   <g id="patch_40">
    <path d="M 275.378965 189.843077 
Q 273.898432 190.043638 272.297495 190.145084 
Q 270.696558 190.247697 268.952919 190.247697 
Q 263.753217 190.247697 260.716341 189.487431 
Q 257.679466 188.727164 257.679466 187.427016 
Q 257.679466 186.122204 260.716341 185.363104 
Q 263.753217 184.602837 268.952919 184.602837 
Q 270.696558 184.602837 272.297495 184.70545 
Q 273.898432 184.806897 275.378965 185.007458 
L 275.378965 186.132698 
Q 273.885054 185.866838 272.435738 185.743237 
Q 270.986421 185.619635 269.385484 185.619635 
Q 266.513607 185.619635 264.868076 186.101215 
Q 263.227003 186.581628 263.227003 187.427016 
Q 263.227003 188.268906 264.868076 188.750486 
Q 266.513607 189.230899 269.385484 189.230899 
Q 270.986421 189.230899 272.435738 189.107298 
Q 273.885054 188.98253 275.378965 188.71667 
L 275.378965 189.843077 
z
" clip-path="url(#p1e13df08fc)" style="fill: #0000ff"/>
   </g>
   <g id="patch_41">
    <path d="M 269.939924 180.792013 
L 263.132981 180.792013 
L 262.058201 184.602837 
L 257.679466 184.602837 
L 263.932734 163.683653 
L 269.125697 163.683653 
L 275.378965 184.602837 
L 271.003849 184.602837 
L 269.939924 180.792013 
z
M 264.218618 176.909455 
L 268.843431 176.909455 
L 266.534644 168.588408 
L 264.218618 176.909455 
z
" clip-path="url(#p1e13df08fc)" style="fill: #008000"/>
   </g>
   <g id="patch_42">
    <path d="M 257.679466 120.849132 
L 275.378965 120.849132 
L 275.378965 129.203057 
L 269.011261 129.203057 
L 269.011261 163.683653 
L 264.059518 163.683653 
L 264.059518 129.203057 
L 257.679466 129.203057 
L 257.679466 120.849132 
z
" clip-path="url(#p1e13df08fc)" style="fill: #ff0000"/>
   </g>
   <g id="patch_43">
    <path d="M 294.010017 191.869397 
Q 292.224993 192.054699 290.305101 192.147772 
Q 288.385209 192.24 286.338383 192.24 
Q 281.713188 192.24 279.011853 191.688327 
Q 276.310518 191.136653 276.310518 190.193224 
Q 276.310518 189.238795 279.059454 188.691352 
Q 281.812356 188.143909 286.600186 188.143909 
Q 288.44471 188.143909 290.134532 188.218368 
Q 291.828321 188.291981 293.327741 188.437514 
L 293.327741 189.254025 
Q 291.780721 189.067031 290.249567 188.974804 
Q 288.718414 188.88173 287.179327 188.88173 
Q 284.331223 188.88173 282.788169 189.221872 
Q 281.245116 189.561168 281.245116 190.193224 
Q 281.245116 190.819356 282.732635 191.161191 
Q 284.220155 191.502179 286.957191 191.502179 
Q 287.702934 191.502179 288.341576 191.482718 
Q 288.980217 191.462411 289.487957 191.420105 
L 289.487957 190.653516 
L 286.572419 190.653516 
L 286.572419 189.970693 
L 294.010017 189.970693 
L 294.010017 191.869397 
z
" clip-path="url(#p1e13df08fc)" style="fill: #ffa600"/>
   </g>
   <g id="patch_44">
    <path d="M 294.010017 187.573969 
Q 292.529484 187.856475 290.928547 187.999371 
Q 289.32761 188.143909 287.58397 188.143909 
Q 282.384269 188.143909 279.347393 187.073013 
Q 276.310518 186.002118 276.310518 184.170755 
Q 276.310518 182.332822 279.347393 181.263569 
Q 282.384269 180.192674 287.58397 180.192674 
Q 289.32761 180.192674 290.928547 180.337212 
Q 292.529484 180.480107 294.010017 180.762613 
L 294.010017 182.347605 
Q 292.516106 181.97312 291.066789 181.799017 
Q 289.617473 181.624914 288.016535 181.624914 
Q 285.144659 181.624914 283.499127 182.303258 
Q 281.858055 182.979959 281.858055 184.170755 
Q 281.858055 185.356624 283.499127 186.034967 
Q 285.144659 186.711668 288.016535 186.711668 
Q 289.617473 186.711668 291.066789 186.537566 
Q 292.516106 186.361821 294.010017 185.987336 
L 294.010017 187.573969 
z
" clip-path="url(#p1e13df08fc)" style="fill: #0000ff"/>
   </g>
   <g id="patch_45">
    <path d="M 288.570976 178.700313 
L 281.764033 178.700313 
L 280.689253 180.192674 
L 276.310518 180.192674 
L 282.563786 172.000492 
L 287.756749 172.000492 
L 294.010017 180.192674 
L 289.6349 180.192674 
L 288.570976 178.700313 
z
M 282.84967 177.179861 
L 287.474483 177.179861 
L 285.165695 173.921248 
L 282.84967 177.179861 
z
" clip-path="url(#p1e13df08fc)" style="fill: #008000"/>
   </g>
   <g id="patch_46">
    <path d="M 276.310518 140.436497 
L 294.010017 140.436497 
L 294.010017 146.592355 
L 287.642313 146.592355 
L 287.642313 172.000492 
L 282.69057 172.000492 
L 282.69057 146.592355 
L 276.310518 146.592355 
L 276.310518 140.436497 
z
" clip-path="url(#p1e13df08fc)" style="fill: #ff0000"/>
   </g>
   <g id="patch_47">
    <path d="M 312.641068 191.981174 
Q 311.160536 192.109468 309.559599 192.174361 
Q 307.958661 192.24 306.215022 192.24 
Q 301.01532 192.24 297.978445 191.753675 
Q 294.941569 191.267351 294.941569 190.435676 
Q 294.941569 189.601018 297.978445 189.115439 
Q 301.01532 188.629114 306.215022 188.629114 
Q 307.958661 188.629114 309.559599 188.694753 
Q 311.160536 188.759646 312.641068 188.88794 
L 312.641068 189.607731 
Q 311.147158 189.437666 309.697841 189.358601 
Q 308.248525 189.279536 306.647587 189.279536 
Q 303.775711 189.279536 302.130179 189.587592 
Q 300.489107 189.894901 300.489107 190.435676 
Q 300.489107 190.974213 302.130179 191.282269 
Q 303.775711 191.589578 306.647587 191.589578 
Q 308.248525 191.589578 309.697841 191.510513 
Q 311.147158 191.430702 312.641068 191.260638 
L 312.641068 191.981174 
z
" clip-path="url(#p1e13df08fc)" style="fill: #0000ff"/>
   </g>
   <g id="patch_48">
    <path d="M 312.641068 188.167887 
Q 310.856045 188.398501 308.936153 188.514334 
Q 307.016261 188.629114 304.969434 188.629114 
Q 300.34424 188.629114 297.642905 187.942538 
Q 294.941569 187.255962 294.941569 186.081833 
Q 294.941569 184.894015 297.690505 184.212704 
Q 300.443408 183.531393 305.231238 183.531393 
Q 307.075762 183.531393 308.765584 183.62406 
Q 310.459373 183.715674 311.958793 183.896795 
L 311.958793 184.912969 
Q 310.411772 184.68025 308.880619 184.565469 
Q 307.349466 184.449636 305.810379 184.449636 
Q 302.962275 184.449636 301.419221 184.872954 
Q 299.876167 185.29522 299.876167 186.081833 
Q 299.876167 186.861076 301.363687 187.2865 
Q 302.851207 187.710872 305.588242 187.710872 
Q 306.333986 187.710872 306.972627 187.686652 
Q 307.611269 187.661379 308.119009 187.608728 
L 308.119009 186.654682 
L 305.203471 186.654682 
L 305.203471 185.804886 
L 312.641068 185.804886 
L 312.641068 188.167887 
z
" clip-path="url(#p1e13df08fc)" style="fill: #ffa600"/>
   </g>
   <g id="patch_49">
    <path d="M 294.941569 172.061521 
L 312.641068 172.061521 
L 312.641068 174.298466 
L 306.273365 174.298466 
L 306.273365 183.531393 
L 301.321621 183.531393 
L 301.321621 174.298466 
L 294.941569 174.298466 
L 294.941569 172.061521 
z
" clip-path="url(#p1e13df08fc)" style="fill: #ff0000"/>
   </g>
   <g id="patch_50">
    <path d="M 307.202028 167.418291 
L 300.395085 167.418291 
L 299.320305 172.061521 
L 294.941569 172.061521 
L 301.194837 146.572916 
L 306.3878 146.572916 
L 312.641068 172.061521 
L 308.265952 172.061521 
L 307.202028 167.418291 
z
M 301.480722 162.687658 
L 306.105535 162.687658 
L 303.796747 152.549027 
L 301.480722 162.687658 
z
" clip-path="url(#p1e13df08fc)" style="fill: #008000"/>
   </g>
   <g id="patch_51">
    <path d="M 331.27212 191.763725 
Q 329.791588 191.999804 328.19065 192.119216 
Q 326.589713 192.24 324.846074 192.24 
Q 319.646372 192.24 316.609497 191.345098 
Q 313.572621 190.450196 313.572621 188.919804 
Q 313.572621 187.383921 316.609497 186.490391 
Q 319.646372 185.595489 324.846074 185.595489 
Q 326.589713 185.595489 328.19065 185.716274 
Q 329.791588 185.835686 331.27212 186.071764 
L 331.27212 187.396274 
Q 329.778209 187.083333 328.328893 186.937843 
Q 326.879576 186.792352 325.278639 186.792352 
Q 322.406763 186.792352 320.761231 187.359215 
Q 319.120159 187.924705 319.120159 188.919804 
Q 319.120159 189.910784 320.761231 190.477647 
Q 322.406763 191.043137 325.278639 191.043137 
Q 326.879576 191.043137 328.328893 190.897647 
Q 329.778209 190.750784 331.27212 190.437843 
L 331.27212 191.763725 
z
" clip-path="url(#p1e13df08fc)" style="fill: #0000ff"/>
   </g>
   <g id="patch_52">
    <path d="M 325.83308 184.275028 
L 319.026137 184.275028 
L 317.951356 185.595489 
L 313.572621 185.595489 
L 319.825889 178.346932 
L 325.018852 178.346932 
L 331.27212 185.595489 
L 326.897004 185.595489 
L 325.83308 184.275028 
z
M 320.111774 182.929711 
L 324.736586 182.929711 
L 322.427799 180.046444 
L 320.111774 182.929711 
z
" clip-path="url(#p1e13df08fc)" style="fill: #008000"/>
   </g>
   <g id="patch_53">
    <path d="M 331.27212 177.691103 
Q 329.487097 178.019018 327.567205 178.183724 
Q 325.647313 178.346932 323.600486 178.346932 
Q 318.975292 178.346932 316.273957 177.370676 
Q 313.572621 176.394419 313.572621 174.7249 
Q 313.572621 173.035916 316.321557 172.067146 
Q 319.07446 171.098375 323.86229 171.098375 
Q 325.706814 171.098375 327.396636 171.23014 
Q 329.090425 171.360408 330.589845 171.617948 
L 330.589845 173.062868 
Q 329.042824 172.731958 327.511671 172.56875 
Q 325.980517 172.404044 324.44143 172.404044 
Q 321.593326 172.404044 320.050273 173.005969 
Q 318.507219 173.606397 318.507219 174.7249 
Q 318.507219 175.832921 319.994739 176.437841 
Q 321.482258 177.041264 324.219294 177.041264 
Q 324.965037 177.041264 325.603679 177.006825 
Q 326.242321 176.970889 326.750061 176.896023 
L 326.750061 175.539445 
L 323.834523 175.539445 
L 323.834523 174.331103 
L 331.27212 174.331103 
L 331.27212 177.691103 
z
" clip-path="url(#p1e13df08fc)" style="fill: #ffa600"/>
   </g>
   <g id="patch_54">
    <path d="M 313.572621 62.37002 
L 331.27212 62.37002 
L 331.27212 83.575079 
L 324.904417 83.575079 
L 324.904417 171.098375 
L 319.952673 171.098375 
L 319.952673 83.575079 
L 313.572621 83.575079 
L 313.572621 62.37002 
z
" clip-path="url(#p1e13df08fc)" style="fill: #ff0000"/>
   </g>
   <g id="patch_55">
    <path d="M 344.464131 192.13545 
L 337.657188 192.13545 
L 336.582408 192.24 
L 332.203673 192.24 
L 338.456941 191.66608 
L 343.649904 191.66608 
L 349.903172 192.24 
L 345.528056 192.24 
L 344.464131 192.13545 
z
M 338.742825 192.028931 
L 343.367638 192.028931 
L 341.058851 191.800643 
L 338.742825 192.028931 
z
" clip-path="url(#p1e13df08fc)" style="fill: #008000"/>
   </g>
   <g id="patch_56">
    <path d="M 349.903172 191.588892 
Q 348.118149 191.627486 346.198257 191.646871 
Q 344.278365 191.66608 342.231538 191.66608 
Q 337.606344 191.66608 334.905008 191.551179 
Q 332.203673 191.436278 332.203673 191.239783 
Q 332.203673 191.040996 334.952609 190.926976 
Q 337.705512 190.812956 342.493341 190.812956 
Q 344.337866 190.812956 346.027688 190.828464 
Q 347.721477 190.843796 349.220896 190.874108 
L 349.220896 191.044169 
Q 347.673876 191.005222 346.142723 190.986013 
Q 344.611569 190.966628 343.072482 190.966628 
Q 340.224378 190.966628 338.681325 191.037472 
Q 337.138271 191.10814 337.138271 191.239783 
Q 337.138271 191.370192 338.62579 191.441388 
Q 340.11331 191.512409 342.850346 191.512409 
Q 343.596089 191.512409 344.234731 191.508355 
Q 344.873373 191.504126 345.381113 191.495314 
L 345.381113 191.335651 
L 342.465574 191.335651 
L 342.465574 191.193434 
L 349.903172 191.193434 
L 349.903172 191.588892 
z
" clip-path="url(#p1e13df08fc)" style="fill: #ffa600"/>
   </g>
   <g id="patch_57">
    <path d="M 349.903172 190.748469 
Q 348.422639 190.780434 346.821702 190.796602 
Q 345.220765 190.812956 343.477126 190.812956 
Q 338.277424 190.812956 335.240548 190.691788 
Q 332.203673 190.570619 332.203673 190.363406 
Q 332.203673 190.155449 335.240548 190.034467 
Q 338.277424 189.913298 343.477126 189.913298 
Q 345.220765 189.913298 346.821702 189.929652 
Q 348.422639 189.94582 349.903172 189.977785 
L 349.903172 190.157122 
Q 348.409261 190.11475 346.959945 190.095051 
Q 345.510628 190.075352 343.909691 190.075352 
Q 341.037814 190.075352 339.392283 190.152104 
Q 337.75121 190.228671 337.75121 190.363406 
Q 337.75121 190.497583 339.392283 190.574336 
Q 341.037814 190.650903 343.909691 190.650903 
Q 345.510628 190.650903 346.959945 190.631203 
Q 348.409261 190.611318 349.903172 190.568947 
L 349.903172 190.748469 
z
" clip-path="url(#p1e13df08fc)" style="fill: #0000ff"/>
   </g>
   <g id="patch_58">
    <path d="M 332.203673 188.905061 
L 349.903172 188.905061 
L 349.903172 189.101695 
L 343.535468 189.101695 
L 343.535468 189.913298 
L 338.583725 189.913298 
L 338.583725 189.101695 
L 332.203673 189.101695 
L 332.203673 188.905061 
z
" clip-path="url(#p1e13df08fc)" style="fill: #ff0000"/>
   </g>
   <g id="patch_59">
    <path d="M 368.534224 191.891693 
Q 367.053691 192.064341 365.452754 192.151669 
Q 363.851817 192.24 362.108177 192.24 
Q 356.908476 192.24 353.8716 191.585545 
Q 350.834725 190.93109 350.834725 189.811892 
Q 350.834725 188.688679 353.8716 188.035227 
Q 356.908476 187.380772 362.108177 187.380772 
Q 363.851817 187.380772 365.452754 187.469104 
Q 367.053691 187.556431 368.534224 187.729079 
L 368.534224 188.697712 
Q 367.040313 188.468854 365.590996 188.362455 
Q 364.14168 188.256056 362.540743 188.256056 
Q 359.668866 188.256056 358.023334 188.670611 
Q 356.382262 189.084162 356.382262 189.811892 
Q 356.382262 190.53661 358.023334 190.951165 
Q 359.668866 191.364717 362.540743 191.364717 
Q 364.14168 191.364717 365.590996 191.258318 
Q 367.040313 191.150915 368.534224 190.922056 
L 368.534224 191.891693 
z
" clip-path="url(#p1e13df08fc)" style="fill: #0000ff"/>
   </g>
   <g id="patch_60">
    <path d="M 368.534224 186.666343 
Q 366.7492 187.023557 364.829308 187.202981 
Q 362.909416 187.380772 360.86259 187.380772 
Q 356.237396 187.380772 353.53606 186.317283 
Q 350.834725 185.253794 350.834725 183.435097 
Q 350.834725 181.595195 353.583661 180.539861 
Q 356.336563 179.484528 361.124393 179.484528 
Q 362.968917 179.484528 364.658739 179.628066 
Q 366.352528 179.769973 367.851948 180.050526 
L 367.851948 181.624555 
Q 366.304928 181.264078 364.773774 181.086286 
Q 363.242621 180.906863 361.703534 180.906863 
Q 358.85543 180.906863 357.312376 181.562573 
Q 355.769323 182.216651 355.769323 183.435097 
Q 355.769323 184.642124 357.256842 185.301096 
Q 358.744362 185.958437 361.481398 185.958437 
Q 362.227141 185.958437 362.865783 185.920921 
Q 363.504424 185.881774 364.012164 185.800219 
L 364.012164 184.322425 
L 361.096626 184.322425 
L 361.096626 183.006113 
L 368.534224 183.006113 
L 368.534224 186.666343 
z
" clip-path="url(#p1e13df08fc)" style="fill: #ffa600"/>
   </g>
   <g id="patch_61">
    <path d="M 350.834725 170.980879 
L 368.534224 170.980879 
L 368.534224 172.639328 
L 362.16652 172.639328 
L 362.16652 179.484528 
L 357.214777 179.484528 
L 357.214777 172.639328 
L 350.834725 172.639328 
L 350.834725 170.980879 
z
" clip-path="url(#p1e13df08fc)" style="fill: #ff0000"/>
   </g>
   <g id="patch_62">
    <path d="M 363.095183 151.063878 
L 356.28824 151.063878 
L 355.21346 170.980879 
L 350.834725 170.980879 
L 357.087993 61.648259 
L 362.280956 61.648259 
L 368.534224 170.980879 
L 364.159107 170.980879 
L 363.095183 151.063878 
z
M 357.373877 130.771969 
L 361.99869 130.771969 
L 359.689902 87.282611 
L 357.373877 130.771969 
z
" clip-path="url(#p1e13df08fc)" style="fill: #008000"/>
   </g>
   <g id="patch_63">
    <path d="M 387.165275 192.157259 
Q 385.684743 192.198272 384.083806 192.219017 
Q 382.482868 192.24 380.739229 192.24 
Q 375.539527 192.24 372.502652 192.084533 
Q 369.465776 191.929067 369.465776 191.6632 
Q 369.465776 191.396379 372.502652 191.24115 
Q 375.539527 191.085684 380.739229 191.085684 
Q 382.482868 191.085684 384.083806 191.106667 
Q 385.684743 191.127412 387.165275 191.168424 
L 387.165275 191.398525 
Q 385.671365 191.344159 384.222048 191.318884 
Q 382.772732 191.293609 381.171794 191.293609 
Q 378.299918 191.293609 376.654386 191.392087 
Q 375.013314 191.490326 375.013314 191.6632 
Q 375.013314 191.835357 376.654386 191.933836 
Q 378.299918 192.032075 381.171794 192.032075 
Q 382.772732 192.032075 384.222048 192.0068 
Q 385.671365 191.981286 387.165275 191.926921 
L 387.165275 192.157259 
z
" clip-path="url(#p1e13df08fc)" style="fill: #0000ff"/>
   </g>
   <g id="patch_64">
    <path d="M 381.726235 190.754333 
L 374.919292 190.754333 
L 373.844512 191.085684 
L 369.465776 191.085684 
L 375.719044 189.266761 
L 380.912007 189.266761 
L 387.165275 191.085684 
L 382.790159 191.085684 
L 381.726235 190.754333 
z
M 376.004929 190.416744 
L 380.629742 190.416744 
L 378.320954 189.69323 
L 376.004929 190.416744 
z
" clip-path="url(#p1e13df08fc)" style="fill: #008000"/>
   </g>
   <g id="patch_65">
    <path d="M 369.465776 187.447839 
L 387.165275 187.447839 
L 387.165275 187.802579 
L 380.797572 187.802579 
L 380.797572 189.266761 
L 375.845828 189.266761 
L 375.845828 187.802579 
L 369.465776 187.802579 
L 369.465776 187.447839 
z
" clip-path="url(#p1e13df08fc)" style="fill: #ff0000"/>
   </g>
   <g id="patch_66">
    <path d="M 387.165275 187.200982 
Q 385.380252 187.32441 383.46036 187.386406 
Q 381.540468 187.447839 379.493641 187.447839 
Q 374.868447 187.447839 372.167112 187.080372 
Q 369.465776 186.712905 369.465776 186.084492 
Q 369.465776 185.448752 372.214712 185.084103 
Q 374.967615 184.719455 379.755445 184.719455 
Q 381.599969 184.719455 383.289791 184.769052 
Q 384.98358 184.818085 386.483 184.915024 
L 386.483 185.458897 
Q 384.93598 185.334342 383.404826 185.272909 
Q 381.873673 185.210913 380.334586 185.210913 
Q 377.486482 185.210913 375.943428 185.43748 
Q 374.400374 185.663483 374.400374 186.084492 
Q 374.400374 186.501556 375.887894 186.72925 
Q 377.375414 186.95638 380.112449 186.95638 
Q 380.858193 186.95638 381.496834 186.943417 
Q 382.135476 186.929891 382.643216 186.901711 
L 382.643216 186.39109 
L 379.727678 186.39109 
L 379.727678 185.936266 
L 387.165275 185.936266 
L 387.165275 187.200982 
z
" clip-path="url(#p1e13df08fc)" style="fill: #ffa600"/>
   </g>
   <g id="patch_67">
    <path d="M 400.357287 191.649046 
L 393.550344 191.649046 
L 392.475563 192.24 
L 388.096828 192.24 
L 394.350096 188.996012 
L 399.543059 188.996012 
L 405.796327 192.24 
L 401.421211 192.24 
L 400.357287 191.649046 
z
M 394.635981 191.046969 
L 399.260793 191.046969 
L 396.952006 189.756604 
L 394.635981 191.046969 
z
" clip-path="url(#p1e13df08fc)" style="fill: #008000"/>
   </g>
   <g id="patch_68">
    <path d="M 405.796327 188.679928 
Q 404.011304 188.83797 402.091412 188.917352 
Q 400.17152 188.996012 398.124693 188.996012 
Q 393.499499 188.996012 390.798164 188.525494 
Q 388.096828 188.054976 388.096828 187.250332 
Q 388.096828 186.436307 390.845764 185.969397 
Q 393.598667 185.502487 398.386497 185.502487 
Q 400.231021 185.502487 401.920843 185.565993 
Q 403.614632 185.628776 405.114052 185.752901 
L 405.114052 186.449297 
Q 403.567031 186.289811 402.035878 186.211151 
Q 400.504724 186.131769 398.965637 186.131769 
Q 396.117533 186.131769 394.57448 186.421874 
Q 393.031426 186.711257 393.031426 187.250332 
Q 393.031426 187.784356 394.518946 188.075904 
Q 396.006465 188.36673 398.743501 188.36673 
Q 399.489244 188.36673 400.127886 188.350132 
Q 400.766528 188.332813 401.274268 188.29673 
L 401.274268 187.642912 
L 398.35873 187.642912 
L 398.35873 187.060537 
L 405.796327 187.060537 
L 405.796327 188.679928 
z
" clip-path="url(#p1e13df08fc)" style="fill: #ffa600"/>
   </g>
   <g id="patch_69">
    <path d="M 405.796327 183.821137 
Q 404.315795 184.654544 402.714857 185.076093 
Q 401.11392 185.502487 399.370281 185.502487 
Q 394.170579 185.502487 391.133704 182.343294 
Q 388.096828 179.1841 388.096828 173.781492 
Q 388.096828 168.359502 391.133704 165.205154 
Q 394.170579 162.04596 399.370281 162.04596 
Q 401.11392 162.04596 402.714857 162.472355 
Q 404.315795 162.893904 405.796327 163.72731 
L 405.796327 168.40311 
Q 404.302416 167.298362 402.8531 166.784751 
Q 401.403783 166.271139 399.802846 166.271139 
Q 396.93097 166.271139 395.285438 168.272285 
Q 393.644366 170.268585 393.644366 173.781492 
Q 393.644366 177.279862 395.285438 179.281008 
Q 396.93097 181.277308 399.802846 181.277308 
Q 401.403783 181.277308 402.8531 180.763697 
Q 404.302416 180.24524 405.796327 179.140492 
L 405.796327 183.821137 
z
" clip-path="url(#p1e13df08fc)" style="fill: #0000ff"/>
   </g>
   <g id="patch_70">
    <path d="M 388.096828 138.589434 
L 405.796327 138.589434 
L 405.796327 143.16411 
L 399.428624 143.16411 
L 399.428624 162.04596 
L 394.47688 162.04596 
L 394.47688 143.16411 
L 388.096828 143.16411 
L 388.096828 138.589434 
z
" clip-path="url(#p1e13df08fc)" style="fill: #ff0000"/>
   </g>
   <g id="patch_71">
    <path d="M 418.988338 191.959365 
L 412.181395 191.959365 
L 411.106615 192.24 
L 406.72788 192.24 
L 412.981148 190.699481 
L 418.174111 190.699481 
L 424.427379 192.24 
L 420.052263 192.24 
L 418.988338 191.959365 
z
M 413.267032 191.673448 
L 417.891845 191.673448 
L 415.583058 191.060674 
L 413.267032 191.673448 
z
" clip-path="url(#p1e13df08fc)" style="fill: #008000"/>
   </g>
   <g id="patch_72">
    <path d="M 424.427379 190.118723 
Q 422.642356 190.409102 420.722464 190.554955 
Q 418.802572 190.699481 416.755745 190.699481 
Q 412.130551 190.699481 409.429215 189.834974 
Q 406.72788 188.970468 406.72788 187.492055 
Q 406.72788 185.996406 409.476816 185.138529 
Q 412.229719 184.280652 417.017548 184.280652 
Q 418.862073 184.280652 420.551895 184.397334 
Q 422.245684 184.512689 423.745103 184.740749 
L 423.745103 186.020272 
Q 422.198083 185.727242 420.66693 185.582715 
Q 419.135776 185.436863 417.596689 185.436863 
Q 414.748585 185.436863 413.205532 185.969887 
Q 411.662478 186.501585 411.662478 187.492055 
Q 411.662478 188.473244 413.149997 189.00892 
Q 414.637517 189.54327 417.374553 189.54327 
Q 418.120296 189.54327 418.758938 189.512773 
Q 419.39758 189.480951 419.90532 189.414654 
L 419.90532 188.213361 
L 416.989781 188.213361 
L 416.989781 187.143335 
L 424.427379 187.143335 
L 424.427379 190.118723 
z
" clip-path="url(#p1e13df08fc)" style="fill: #ffa600"/>
   </g>
   <g id="patch_73">
    <path d="M 406.72788 165.024164 
L 424.427379 165.024164 
L 424.427379 168.779715 
L 418.059675 168.779715 
L 418.059675 184.280652 
L 413.107932 184.280652 
L 413.107932 168.779715 
L 406.72788 168.779715 
L 406.72788 165.024164 
z
" clip-path="url(#p1e13df08fc)" style="fill: #ff0000"/>
   </g>
   <g id="patch_74">
    <path d="M 424.427379 163.018137 
Q 422.946846 164.012479 421.345909 164.515431 
Q 419.744972 165.024164 418.001333 165.024164 
Q 412.801631 165.024164 409.764755 161.254915 
Q 406.72788 157.485666 406.72788 151.039787 
Q 406.72788 144.570785 409.764755 140.807317 
Q 412.801631 137.038068 418.001333 137.038068 
Q 419.744972 137.038068 421.345909 137.546801 
Q 422.946846 138.049753 424.427379 139.044094 
L 424.427379 144.622814 
Q 422.933468 143.304733 421.484152 142.691941 
Q 420.034835 142.079149 418.433898 142.079149 
Q 415.562021 142.079149 413.91649 144.466726 
Q 412.275417 146.848521 412.275417 151.039787 
Q 412.275417 155.21371 413.91649 157.601287 
Q 415.562021 159.983082 418.433898 159.983082 
Q 420.034835 159.983082 421.484152 159.37029 
Q 422.933468 158.751717 424.427379 157.433636 
L 424.427379 163.018137 
z
" clip-path="url(#p1e13df08fc)" style="fill: #0000ff"/>
   </g>
   <g id="patch_75">
    <path d="M 425.358932 191.058629 
L 443.058431 191.058629 
L 443.058431 191.28903 
L 436.690727 191.28903 
L 436.690727 192.24 
L 431.738984 192.24 
L 431.738984 191.28903 
L 425.358932 191.28903 
L 425.358932 191.058629 
z
" clip-path="url(#p1e13df08fc)" style="fill: #ff0000"/>
   </g>
   <g id="patch_76">
    <path d="M 443.058431 190.363863 
Q 441.273407 190.711246 439.353515 190.885731 
Q 437.433623 191.058629 435.386797 191.058629 
Q 430.761603 191.058629 428.060267 190.024412 
Q 425.358932 188.990194 425.358932 187.221554 
Q 425.358932 185.432294 428.107868 184.406007 
Q 430.86077 183.379721 435.6486 183.379721 
Q 437.493124 183.379721 439.182946 183.519308 
Q 440.876735 183.65731 442.376155 183.93014 
L 442.376155 185.460846 
Q 440.829135 185.110291 439.297981 184.937392 
Q 437.766828 184.762908 436.227741 184.762908 
Q 433.379637 184.762908 431.836583 185.400569 
Q 430.29353 186.036645 430.29353 187.221554 
Q 430.29353 188.39536 431.781049 189.036194 
Q 433.268569 189.675442 436.005605 189.675442 
Q 436.751348 189.675442 437.38999 189.638959 
Q 438.028631 189.60089 438.536371 189.521579 
L 438.536371 188.08446 
L 435.620833 188.08446 
L 435.620833 186.804377 
L 443.058431 186.804377 
L 443.058431 190.363863 
z
" clip-path="url(#p1e13df08fc)" style="fill: #ffa600"/>
   </g>
   <g id="patch_77">
    <path d="M 443.058431 182.278881 
Q 441.577898 182.824542 439.976961 183.100545 
Q 438.376024 183.379721 436.632384 183.379721 
Q 431.432683 183.379721 428.395807 181.311285 
Q 425.358932 179.242849 425.358932 175.70557 
Q 425.358932 172.155602 428.395807 170.090338 
Q 431.432683 168.021903 436.632384 168.021903 
Q 438.376024 168.021903 439.976961 168.301078 
Q 441.577898 168.577081 443.058431 169.122742 
L 443.058431 172.184154 
Q 441.56452 171.460836 440.115203 171.124556 
Q 438.665887 170.788277 437.06495 170.788277 
Q 434.193073 170.788277 432.547541 172.098498 
Q 430.906469 173.405546 430.906469 175.70557 
Q 430.906469 177.996077 432.547541 179.306298 
Q 434.193073 180.613346 437.06495 180.613346 
Q 438.665887 180.613346 440.115203 180.277067 
Q 441.56452 179.937615 443.058431 179.214297 
L 443.058431 182.278881 
z
" clip-path="url(#p1e13df08fc)" style="fill: #0000ff"/>
   </g>
   <g id="patch_78">
    <path d="M 437.61939 149.298723 
L 430.812447 149.298723 
L 429.737667 168.021903 
L 425.358932 168.021903 
L 431.6122 65.242661 
L 436.805163 65.242661 
L 443.058431 168.021903 
L 438.683314 168.021903 
L 437.61939 149.298723 
z
M 431.898084 130.223107 
L 436.522897 130.223107 
L 434.214109 89.340494 
L 431.898084 130.223107 
z
" clip-path="url(#p1e13df08fc)" style="fill: #008000"/>
   </g>
   <g id="patch_79">
    <path d="M 443.989983 188.595437 
L 461.689482 188.595437 
L 461.689482 189.306228 
L 455.321779 189.306228 
L 455.321779 192.24 
L 450.370035 192.24 
L 450.370035 189.306228 
L 443.989983 189.306228 
L 443.989983 188.595437 
z
" clip-path="url(#p1e13df08fc)" style="fill: #ff0000"/>
   </g>
   <g id="patch_80">
    <path d="M 461.689482 188.133787 
Q 459.904459 188.364612 457.984567 188.480551 
Q 456.064675 188.595437 454.017848 188.595437 
Q 449.392654 188.595437 446.691319 187.908232 
Q 443.989983 187.221028 443.989983 186.045823 
Q 443.989983 184.856917 446.738919 184.174983 
Q 449.491822 183.493048 454.279652 183.493048 
Q 456.124176 183.493048 457.813998 183.5858 
Q 459.507787 183.677497 461.007207 183.858784 
L 461.007207 184.875889 
Q 459.460187 184.642956 457.929033 184.528071 
Q 456.39788 184.412131 454.858793 184.412131 
Q 452.010689 184.412131 450.467635 184.835837 
Q 448.924581 185.258489 448.924581 186.045823 
Q 448.924581 186.825779 450.412101 187.251593 
Q 451.899621 187.676353 454.636656 187.676353 
Q 455.3824 187.676353 456.021041 187.652111 
Q 456.659683 187.626815 457.167423 187.574116 
L 457.167423 186.619196 
L 454.251885 186.619196 
L 454.251885 185.768623 
L 461.689482 185.768623 
L 461.689482 188.133787 
z
" clip-path="url(#p1e13df08fc)" style="fill: #ffa600"/>
   </g>
   <g id="patch_81">
    <path d="M 461.689482 182.866072 
Q 460.20895 183.17685 458.608013 183.334045 
Q 457.007075 183.493048 455.263436 183.493048 
Q 450.063734 183.493048 447.026859 182.314983 
Q 443.989983 181.136918 443.989983 179.122282 
Q 443.989983 177.100419 447.026859 175.924161 
Q 450.063734 174.746096 455.263436 174.746096 
Q 457.007075 174.746096 458.608013 174.905099 
Q 460.20895 175.062294 461.689482 175.373072 
L 461.689482 177.116681 
Q 460.195572 176.704719 458.746255 176.513194 
Q 457.296939 176.321668 455.696001 176.321668 
Q 452.824125 176.321668 451.178593 177.067896 
Q 449.537521 177.812317 449.537521 179.122282 
Q 449.537521 180.426827 451.178593 181.173055 
Q 452.824125 181.917476 455.696001 181.917476 
Q 457.296939 181.917476 458.746255 181.725951 
Q 460.195572 181.532618 461.689482 181.120656 
L 461.689482 182.866072 
z
" clip-path="url(#p1e13df08fc)" style="fill: #0000ff"/>
   </g>
   <g id="patch_82">
    <path d="M 456.250442 149.384122 
L 449.443499 149.384122 
L 448.368719 174.746096 
L 443.989983 174.746096 
L 450.243251 35.523777 
L 455.436214 35.523777 
L 461.689482 174.746096 
L 457.314366 174.746096 
L 456.250442 149.384122 
z
M 450.529136 123.544746 
L 455.153949 123.544746 
L 452.845161 68.16613 
L 450.529136 123.544746 
z
" clip-path="url(#p1e13df08fc)" style="fill: #008000"/>
   </g>
   <g id="patch_83">
    <path d="M 462.621035 188.372093 
L 480.320534 188.372093 
L 480.320534 189.126443 
L 473.952831 189.126443 
L 473.952831 192.24 
L 469.001087 192.24 
L 469.001087 189.126443 
L 462.621035 189.126443 
L 462.621035 188.372093 
z
" clip-path="url(#p1e13df08fc)" style="fill: #ff0000"/>
   </g>
   <g id="patch_84">
    <path d="M 480.320534 187.952144 
Q 478.535511 188.162119 476.615619 188.267585 
Q 474.695727 188.372093 472.6489 188.372093 
Q 468.023706 188.372093 465.322371 187.746964 
Q 462.621035 187.121835 462.621035 186.052787 
Q 462.621035 184.971275 465.369971 184.35094 
Q 468.122874 183.730605 472.910704 183.730605 
Q 474.755228 183.730605 476.44505 183.814978 
Q 478.138839 183.898392 479.638259 184.063304 
L 479.638259 184.988533 
Q 478.091238 184.776641 476.560085 184.672134 
Q 475.028931 184.566667 473.489844 184.566667 
Q 470.64174 184.566667 469.098687 184.952099 
Q 467.555633 185.336573 467.555633 186.052787 
Q 467.555633 186.762289 469.043153 187.149639 
Q 470.530672 187.536031 473.267708 187.536031 
Q 474.013451 187.536031 474.652093 187.513979 
Q 475.290735 187.490968 475.798475 187.443028 
L 475.798475 186.574367 
L 472.882937 186.574367 
L 472.882937 185.800626 
L 480.320534 185.800626 
L 480.320534 187.952144 
z
" clip-path="url(#p1e13df08fc)" style="fill: #ffa600"/>
   </g>
   <g id="patch_85">
    <path d="M 480.320534 183.231556 
Q 478.840002 183.478923 477.239064 183.604045 
Q 475.638127 183.730605 473.894488 183.730605 
Q 468.694786 183.730605 465.657911 182.792911 
Q 462.621035 181.855217 462.621035 180.251646 
Q 462.621035 178.642321 465.657911 177.706066 
Q 468.694786 176.768372 473.894488 176.768372 
Q 475.638127 176.768372 477.239064 176.894932 
Q 478.840002 177.020054 480.320534 177.267421 
L 480.320534 178.655265 
Q 478.826623 178.32736 477.377307 178.174913 
Q 475.92799 178.022466 474.327053 178.022466 
Q 471.455177 178.022466 469.809645 178.616434 
Q 468.168573 179.208965 468.168573 180.251646 
Q 468.168573 181.290012 469.809645 181.883981 
Q 471.455177 182.476511 474.327053 182.476511 
Q 475.92799 182.476511 477.377307 182.324064 
Q 478.826623 182.170179 480.320534 181.842273 
L 480.320534 183.231556 
z
" clip-path="url(#p1e13df08fc)" style="fill: #0000ff"/>
   </g>
   <g id="patch_86">
    <path d="M 474.881494 149.288493 
L 468.074551 149.288493 
L 466.99977 176.768372 
L 462.621035 176.768372 
L 468.874303 25.92 
L 474.067266 25.92 
L 480.320534 176.768372 
L 475.945418 176.768372 
L 474.881494 149.288493 
z
M 469.160188 121.291345 
L 473.785 121.291345 
L 471.476213 61.288221 
L 469.160188 121.291345 
z
" clip-path="url(#p1e13df08fc)" style="fill: #008000"/>
   </g>
   <g id="patch_87">
    <path d="M 481.252087 186.28836 
L 498.951586 186.28836 
L 498.951586 187.449095 
L 492.583882 187.449095 
L 492.583882 192.24 
L 487.632139 192.24 
L 487.632139 187.449095 
L 481.252087 187.449095 
L 481.252087 186.28836 
z
" clip-path="url(#p1e13df08fc)" style="fill: #ff0000"/>
   </g>
   <g id="patch_88">
    <path d="M 498.951586 185.642175 
Q 497.166563 185.965267 495.246671 186.127551 
Q 493.326779 186.28836 491.279952 186.28836 
Q 486.654758 186.28836 483.953422 185.326459 
Q 481.252087 184.364557 481.252087 182.719588 
Q 481.252087 181.05544 484.001023 180.100916 
Q 486.753926 179.146391 491.541755 179.146391 
Q 493.38628 179.146391 495.076102 179.276218 
Q 496.769891 179.40457 498.26931 179.658323 
L 498.26931 181.081996 
Q 496.72229 180.755953 495.191137 180.595144 
Q 493.659983 180.43286 492.120896 180.43286 
Q 489.272792 180.43286 487.729739 181.025934 
Q 486.186685 181.617533 486.186685 182.719588 
Q 486.186685 183.811317 487.674205 184.407341 
Q 489.161724 185.001891 491.89876 185.001891 
Q 492.644503 185.001891 493.283145 184.967959 
Q 493.921787 184.932551 494.429527 184.858786 
L 494.429527 183.522156 
L 491.513988 183.522156 
L 491.513988 182.331582 
L 498.951586 182.331582 
L 498.951586 185.642175 
z
" clip-path="url(#p1e13df08fc)" style="fill: #ffa600"/>
   </g>
   <g id="patch_89">
    <path d="M 498.951586 178.549137 
Q 497.471053 178.845182 495.870116 178.994926 
Q 494.269179 179.146391 492.52554 179.146391 
Q 487.325838 179.146391 484.288962 178.024173 
Q 481.252087 176.901955 481.252087 174.982825 
Q 481.252087 173.05681 484.288962 171.936313 
Q 487.325838 170.814095 492.52554 170.814095 
Q 494.269179 170.814095 495.870116 170.96556 
Q 497.471053 171.115304 498.951586 171.411349 
L 498.951586 173.0723 
Q 497.457675 172.679868 496.008359 172.497422 
Q 494.559042 172.314975 492.958105 172.314975 
Q 490.086228 172.314975 488.440697 173.025828 
Q 486.799624 173.73496 486.799624 174.982825 
Q 486.799624 176.225526 488.440697 176.936379 
Q 490.086228 177.645511 492.958105 177.645511 
Q 494.559042 177.645511 496.008359 177.463064 
Q 497.457675 177.278897 498.951586 176.886464 
L 498.951586 178.549137 
z
" clip-path="url(#p1e13df08fc)" style="fill: #0000ff"/>
   </g>
   <g id="patch_90">
    <path d="M 493.512545 151.406849 
L 486.705603 151.406849 
L 485.630822 170.814095 
L 481.252087 170.814095 
L 487.505355 64.279732 
L 492.698318 64.279732 
L 498.951586 170.814095 
L 494.57647 170.814095 
L 493.512545 151.406849 
z
M 487.791239 131.634291 
L 492.416052 131.634291 
L 490.107265 89.257999 
L 487.791239 131.634291 
z
" clip-path="url(#p1e13df08fc)" style="fill: #008000"/>
   </g>
   <g id="patch_91">
    <path d="M 517.582638 191.82603 
Q 515.797614 192.033015 513.877722 192.13698 
Q 511.957831 192.24 509.911004 192.24 
Q 505.28581 192.24 502.584474 191.623771 
Q 499.883139 191.007542 499.883139 189.953715 
Q 499.883139 188.887601 502.632075 188.276098 
Q 505.384978 187.664594 510.172807 187.664594 
Q 512.017331 187.664594 513.707153 187.747766 
Q 515.400942 187.829993 516.900362 187.992557 
L 516.900362 188.904613 
Q 515.353342 188.695738 513.822188 188.592718 
Q 512.291035 188.488753 510.751948 188.488753 
Q 507.903844 188.488753 506.36079 188.868698 
Q 504.817737 189.247698 504.817737 189.953715 
Q 504.817737 190.653116 506.305256 191.034951 
Q 507.792776 191.415841 510.529812 191.415841 
Q 511.275555 191.415841 511.914197 191.394103 
Q 512.552838 191.37142 513.060578 191.324163 
L 513.060578 190.467869 
L 510.14504 190.467869 
L 510.14504 189.705144 
L 517.582638 189.705144 
L 517.582638 191.82603 
z
" clip-path="url(#p1e13df08fc)" style="fill: #ffa600"/>
   </g>
   <g id="patch_92">
    <path d="M 512.143597 186.229128 
L 505.336654 186.229128 
L 504.261874 187.664594 
L 499.883139 187.664594 
L 506.136407 179.784729 
L 511.32937 179.784729 
L 517.582638 187.664594 
L 513.207521 187.664594 
L 512.143597 186.229128 
z
M 506.422291 184.766641 
L 511.047104 184.766641 
L 508.738316 181.632259 
L 506.422291 184.766641 
z
" clip-path="url(#p1e13df08fc)" style="fill: #008000"/>
   </g>
   <g id="patch_93">
    <path d="M 517.582638 179.201685 
Q 516.102105 179.490687 514.501168 179.636868 
Q 512.900231 179.784729 511.156591 179.784729 
Q 505.95689 179.784729 502.920014 178.689211 
Q 499.883139 177.593693 499.883139 175.720222 
Q 499.883139 173.840031 502.920014 172.746193 
Q 505.95689 171.650674 511.156591 171.650674 
Q 512.900231 171.650674 514.501168 171.798536 
Q 516.102105 171.944717 517.582638 172.233719 
L 517.582638 173.855153 
Q 516.088727 173.472057 514.63941 173.293952 
Q 513.190094 173.115846 511.589157 173.115846 
Q 508.71728 173.115846 507.071748 173.809786 
Q 505.430676 174.502046 505.430676 175.720222 
Q 505.430676 176.933357 507.071748 177.627297 
Q 508.71728 178.319557 511.589157 178.319557 
Q 513.190094 178.319557 514.63941 178.141452 
Q 516.088727 177.961666 517.582638 177.57857 
L 517.582638 179.201685 
z
" clip-path="url(#p1e13df08fc)" style="fill: #0000ff"/>
   </g>
   <g id="patch_94">
    <path d="M 499.883139 137.589321 
L 517.582638 137.589321 
L 517.582638 144.232234 
L 511.214934 144.232234 
L 511.214934 171.650674 
L 506.263191 171.650674 
L 506.263191 144.232234 
L 499.883139 144.232234 
L 499.883139 137.589321 
z
" clip-path="url(#p1e13df08fc)" style="fill: #ff0000"/>
   </g>
   <g id="patch_95">
    <path d="M 530.774649 192.052662 
L 523.967706 192.052662 
L 522.892926 192.24 
L 518.51419 192.24 
L 524.767458 191.211624 
L 529.960421 191.211624 
L 536.213689 192.24 
L 531.838573 192.24 
L 530.774649 192.052662 
z
M 525.053343 191.861798 
L 529.678156 191.861798 
L 527.369368 191.45274 
L 525.053343 191.861798 
z
" clip-path="url(#p1e13df08fc)" style="fill: #008000"/>
   </g>
   <g id="patch_96">
    <path d="M 536.213689 191.009317 
Q 534.428666 191.110471 532.508774 191.161278 
Q 530.588882 191.211624 528.542055 191.211624 
Q 523.916861 191.211624 521.215526 190.910472 
Q 518.51419 190.60932 518.51419 190.094313 
Q 518.51419 189.573301 521.263126 189.274458 
Q 524.016029 188.975615 528.803859 188.975615 
Q 530.648383 188.975615 532.338205 189.016262 
Q 534.031994 189.056446 535.531414 189.135891 
L 535.531414 189.581615 
Q 533.984394 189.479537 532.45324 189.429191 
Q 530.922087 189.378383 529.383 189.378383 
Q 526.534896 189.378383 524.991842 189.564063 
Q 523.448788 189.749281 523.448788 190.094313 
Q 523.448788 190.436111 524.936308 190.622715 
Q 526.423828 190.808856 529.160864 190.808856 
Q 529.906607 190.808856 530.545248 190.798233 
Q 531.18389 190.787148 531.69163 190.764053 
L 531.69163 190.345581 
L 528.776092 190.345581 
L 528.776092 189.972836 
L 536.213689 189.972836 
L 536.213689 191.009317 
z
" clip-path="url(#p1e13df08fc)" style="fill: #ffa600"/>
   </g>
   <g id="patch_97">
    <path d="M 518.51419 186.62639 
L 536.213689 186.62639 
L 536.213689 187.084555 
L 529.845986 187.084555 
L 529.845986 188.975615 
L 524.894242 188.975615 
L 524.894242 187.084555 
L 518.51419 187.084555 
L 518.51419 186.62639 
z
" clip-path="url(#p1e13df08fc)" style="fill: #ff0000"/>
   </g>
   <g id="patch_98">
    <path d="M 536.213689 186.447179 
Q 534.733157 186.53601 533.13222 186.580942 
Q 531.531282 186.62639 529.787643 186.62639 
Q 524.587941 186.62639 521.551066 186.289659 
Q 518.51419 185.952928 518.51419 185.377076 
Q 518.51419 184.799158 521.551066 184.462943 
Q 524.587941 184.126211 529.787643 184.126211 
Q 531.531282 184.126211 533.13222 184.17166 
Q 534.733157 184.216592 536.213689 184.305423 
L 536.213689 184.803806 
Q 534.719779 184.686053 533.270462 184.631309 
Q 531.821146 184.576564 530.220208 184.576564 
Q 527.348332 184.576564 525.7028 184.789862 
Q 524.061728 185.002643 524.061728 185.377076 
Q 524.061728 185.749959 525.7028 185.963257 
Q 527.348332 186.176038 530.220208 186.176038 
Q 531.821146 186.176038 533.270462 186.121293 
Q 534.719779 186.066032 536.213689 185.94828 
L 536.213689 186.447179 
z
" clip-path="url(#p1e13df08fc)" style="fill: #0000ff"/>
   </g>
   <g id="patch_99">
    <path d="M 549.405701 191.803155 
L 542.598758 191.803155 
L 541.523977 192.24 
L 537.145242 192.24 
L 543.39851 189.841977 
L 548.591473 189.841977 
L 554.844741 192.24 
L 550.469625 192.24 
L 549.405701 191.803155 
z
M 543.684395 191.358087 
L 548.309208 191.358087 
L 546.00042 190.404223 
L 543.684395 191.358087 
z
" clip-path="url(#p1e13df08fc)" style="fill: #008000"/>
   </g>
   <g id="patch_100">
    <path d="M 554.844741 189.343218 
Q 553.364209 189.590442 551.763271 189.715491 
Q 550.162334 189.841977 548.418695 189.841977 
Q 543.218993 189.841977 540.182118 188.904827 
Q 537.145242 187.967677 537.145242 186.365035 
Q 537.145242 184.756643 540.182118 183.820931 
Q 543.218993 182.88378 548.418695 182.88378 
Q 550.162334 182.88378 551.763271 183.010267 
Q 553.364209 183.135316 554.844741 183.38254 
L 554.844741 184.76958 
Q 553.35083 184.441864 551.901514 184.289506 
Q 550.452197 184.137147 548.85126 184.137147 
Q 545.979384 184.137147 544.333852 184.730771 
Q 542.69278 185.322958 542.69278 186.365035 
Q 542.69278 187.402799 544.333852 187.996424 
Q 545.979384 188.588611 548.85126 188.588611 
Q 550.452197 188.588611 551.901514 188.436252 
Q 553.35083 188.282456 554.844741 187.954741 
L 554.844741 189.343218 
z
" clip-path="url(#p1e13df08fc)" style="fill: #0000ff"/>
   </g>
   <g id="patch_101">
    <path d="M 554.844741 182.225768 
Q 553.059718 182.554774 551.139826 182.720028 
Q 549.219934 182.88378 547.173107 182.88378 
Q 542.547913 182.88378 539.846578 181.904273 
Q 537.145242 180.924766 537.145242 179.249688 
Q 537.145242 177.55508 539.894178 176.583084 
Q 542.647081 175.611088 547.434911 175.611088 
Q 549.279435 175.611088 550.969257 175.743292 
Q 552.663046 175.873993 554.162466 176.132391 
L 554.162466 177.582122 
Q 552.615445 177.250111 551.084292 177.086359 
Q 549.553138 176.921104 548.014052 176.921104 
Q 545.165947 176.921104 543.622894 177.525034 
Q 542.07984 178.127461 542.07984 179.249688 
Q 542.07984 180.361399 543.56736 180.968333 
Q 545.054879 181.573764 547.791915 181.573764 
Q 548.537658 181.573764 549.1763 181.539211 
Q 549.814942 181.503156 550.322682 181.42804 
L 550.322682 180.066945 
L 547.407144 180.066945 
L 547.407144 178.85458 
L 554.844741 178.85458 
L 554.844741 182.225768 
z
" clip-path="url(#p1e13df08fc)" style="fill: #ffa600"/>
   </g>
   <g id="patch_102">
    <path d="M 537.145242 158.431811 
L 554.844741 158.431811 
L 554.844741 161.782249 
L 548.477038 161.782249 
L 548.477038 175.611088 
L 543.525294 175.611088 
L 543.525294 161.782249 
L 537.145242 161.782249 
L 537.145242 158.431811 
z
" clip-path="url(#p1e13df08fc)" style="fill: #ff0000"/>
   </g>
   <g id="patch_103">
    <path d="M 573.475793 192.045954 
Q 571.69077 192.142977 569.770878 192.19171 
Q 567.850986 192.24 565.804159 192.24 
Q 561.178965 192.24 558.477629 191.951146 
Q 555.776294 191.662291 555.776294 191.168315 
Q 555.776294 190.66858 558.52523 190.381941 
Q 561.278133 190.095301 566.065962 190.095301 
Q 567.910487 190.095301 569.600309 190.134288 
Q 571.294098 190.172831 572.793517 190.249032 
L 572.793517 190.676554 
Q 571.246497 190.578645 569.715344 190.530355 
Q 568.18419 190.481622 566.645103 190.481622 
Q 563.796999 190.481622 562.253946 190.659719 
Q 560.710892 190.837373 560.710892 191.168315 
Q 560.710892 191.496156 562.198412 191.675139 
Q 563.685931 191.85368 566.422967 191.85368 
Q 567.16871 191.85368 567.807352 191.84349 
Q 568.445994 191.832857 568.953734 191.810706 
L 568.953734 191.409322 
L 566.038195 191.409322 
L 566.038195 191.051799 
L 573.475793 191.051799 
L 573.475793 192.045954 
z
" clip-path="url(#p1e13df08fc)" style="fill: #ffa600"/>
   </g>
   <g id="patch_104">
    <path d="M 568.036752 189.093078 
L 561.22981 189.093078 
L 560.155029 190.095301 
L 555.776294 190.095301 
L 562.029562 184.593683 
L 567.222525 184.593683 
L 573.475793 190.095301 
L 569.100677 190.095301 
L 568.036752 189.093078 
z
M 562.315446 188.071989 
L 566.940259 188.071989 
L 564.631472 185.883604 
L 562.315446 188.071989 
z
" clip-path="url(#p1e13df08fc)" style="fill: #008000"/>
   </g>
   <g id="patch_105">
    <path d="M 573.475793 184.119123 
Q 571.99526 184.354352 570.394323 184.473334 
Q 568.793386 184.593683 567.049747 184.593683 
Q 561.850045 184.593683 558.813169 183.702003 
Q 555.776294 182.810322 555.776294 181.285439 
Q 555.776294 179.755085 558.813169 178.864772 
Q 561.850045 177.973092 567.049747 177.973092 
Q 568.793386 177.973092 570.394323 178.093441 
Q 571.99526 178.212423 573.475793 178.447652 
L 573.475793 179.767394 
Q 571.981882 179.455579 570.532566 179.310613 
Q 569.083249 179.165646 567.482312 179.165646 
Q 564.610435 179.165646 562.964904 179.730468 
Q 561.323831 180.293923 561.323831 181.285439 
Q 561.323831 182.272852 562.964904 182.837674 
Q 564.610435 183.401129 567.482312 183.401129 
Q 569.083249 183.401129 570.532566 183.256162 
Q 571.981882 183.109828 573.475793 182.798014 
L 573.475793 184.119123 
z
" clip-path="url(#p1e13df08fc)" style="fill: #0000ff"/>
   </g>
   <g id="patch_106">
    <path d="M 555.776294 165.508974 
L 573.475793 165.508974 
L 573.475793 167.939824 
L 567.108089 167.939824 
L 567.108089 177.973092 
L 562.156346 177.973092 
L 562.156346 167.939824 
L 555.776294 167.939824 
L 555.776294 165.508974 
z
" clip-path="url(#p1e13df08fc)" style="fill: #ff0000"/>
   </g>
   <g id="patch_107">
    <path d="M 592.106845 192.109449 
Q 590.321821 192.174725 588.401929 192.207511 
Q 586.482038 192.24 584.435211 192.24 
Q 579.810017 192.24 577.108681 192.045665 
Q 574.407346 191.851329 574.407346 191.518992 
Q 574.407346 191.182779 577.156282 190.989934 
Q 579.909185 190.797089 584.697014 190.797089 
Q 586.541538 190.797089 588.23136 190.823318 
Q 589.925149 190.849249 591.424569 190.900516 
L 591.424569 191.188144 
Q 589.877549 191.122273 588.346395 191.089784 
Q 586.815242 191.056998 585.276155 191.056998 
Q 582.428051 191.056998 580.884997 191.176818 
Q 579.341944 191.29634 579.341944 191.518992 
Q 579.341944 191.739556 580.829463 191.859973 
Q 582.316983 191.980091 585.054019 191.980091 
Q 585.799762 191.980091 586.438404 191.973236 
Q 587.077045 191.966082 587.584785 191.951179 
L 587.584785 191.681136 
L 584.669247 191.681136 
L 584.669247 191.440602 
L 592.106845 191.440602 
L 592.106845 192.109449 
z
" clip-path="url(#p1e13df08fc)" style="fill: #ffa600"/>
   </g>
   <g id="patch_108">
    <path d="M 592.106845 190.339055 
Q 590.626312 190.566092 589.025375 190.68093 
Q 587.424438 190.797089 585.680798 190.797089 
Q 580.481097 190.797089 577.444221 189.93646 
Q 574.407346 189.075832 574.407346 187.604051 
Q 574.407346 186.126991 577.444221 185.267682 
Q 580.481097 184.407054 585.680798 184.407054 
Q 587.424438 184.407054 589.025375 184.523212 
Q 590.626312 184.638051 592.106845 184.865088 
L 592.106845 186.138871 
Q 590.612934 185.837915 589.163617 185.697997 
Q 587.714301 185.558079 586.113364 185.558079 
Q 583.241487 185.558079 581.595955 186.103231 
Q 579.954883 186.647064 579.954883 187.604051 
Q 579.954883 188.557079 581.595955 189.102231 
Q 583.241487 189.646064 586.113364 189.646064 
Q 587.714301 189.646064 589.163617 189.506146 
Q 590.612934 189.364908 592.106845 189.063952 
L 592.106845 190.339055 
z
" clip-path="url(#p1e13df08fc)" style="fill: #0000ff"/>
   </g>
   <g id="patch_109">
    <path d="M 586.667804 183.049871 
L 579.860861 183.049871 
L 578.786081 184.407054 
L 574.407346 184.407054 
L 580.660614 176.956921 
L 585.853577 176.956921 
L 592.106845 184.407054 
L 587.731728 184.407054 
L 586.667804 183.049871 
z
M 580.946498 181.667142 
L 585.571311 181.667142 
L 583.262523 178.703694 
L 580.946498 181.667142 
z
" clip-path="url(#p1e13df08fc)" style="fill: #008000"/>
   </g>
   <g id="patch_110">
    <path d="M 574.407346 166.915437 
L 592.106845 166.915437 
L 592.106845 168.873806 
L 585.739141 168.873806 
L 585.739141 176.956921 
L 580.787398 176.956921 
L 580.787398 168.873806 
L 574.407346 168.873806 
L 574.407346 166.915437 
z
" clip-path="url(#p1e13df08fc)" style="fill: #ff0000"/>
   </g>
   <g id="patch_111">
    <path d="M 610.737896 191.826508 
Q 609.257364 192.031467 607.656427 192.135137 
Q 606.055489 192.24 604.31185 192.24 
Q 599.112148 192.24 596.075273 191.463064 
Q 593.038397 190.686128 593.038397 189.357473 
Q 593.038397 188.02405 596.075273 187.248306 
Q 599.112148 186.47137 604.31185 186.47137 
Q 606.055489 186.47137 607.656427 186.576233 
Q 609.257364 186.679904 610.737896 186.884862 
L 610.737896 188.034775 
Q 609.243986 187.763086 607.794669 187.636774 
Q 606.345353 187.510462 604.744415 187.510462 
Q 601.872539 187.510462 600.227007 188.002601 
Q 598.585935 188.493548 598.585935 189.357473 
Q 598.585935 190.217822 600.227007 190.709961 
Q 601.872539 191.200908 604.744415 191.200908 
Q 606.345353 191.200908 607.794669 191.074596 
Q 609.243986 190.947093 610.737896 190.675404 
L 610.737896 191.826508 
z
" clip-path="url(#p1e13df08fc)" style="fill: #0000ff"/>
   </g>
   <g id="patch_112">
    <path d="M 593.038397 178.811387 
L 610.737896 178.811387 
L 610.737896 180.305297 
L 604.370193 180.305297 
L 604.370193 186.47137 
L 599.418449 186.47137 
L 599.418449 180.305297 
L 593.038397 180.305297 
L 593.038397 178.811387 
z
" clip-path="url(#p1e13df08fc)" style="fill: #ff0000"/>
   </g>
   <g id="patch_113">
    <path d="M 610.737896 177.912984 
Q 608.952873 178.362185 607.032981 178.587811 
Q 605.113089 178.811387 603.066262 178.811387 
Q 598.441068 178.811387 595.739733 177.474038 
Q 593.038397 176.136689 593.038397 173.849659 
Q 593.038397 171.535964 595.787333 170.208871 
Q 598.540236 168.881778 603.328066 168.881778 
Q 605.17259 168.881778 606.862412 169.062279 
Q 608.556201 169.240729 610.055621 169.593527 
L 610.055621 171.572885 
Q 608.508601 171.119581 606.977447 170.896006 
Q 605.446294 170.670379 603.907207 170.670379 
Q 601.059103 170.670379 599.516049 171.494941 
Q 597.972995 172.317451 597.972995 173.849659 
Q 597.972995 175.367509 599.460515 176.196173 
Q 600.948035 177.022785 603.685071 177.022785 
Q 604.430814 177.022785 605.069455 176.975609 
Q 605.708097 176.926381 606.215837 176.823824 
L 606.215837 174.965484 
L 603.300299 174.965484 
L 603.300299 173.310207 
L 610.737896 173.310207 
L 610.737896 177.912984 
z
" clip-path="url(#p1e13df08fc)" style="fill: #ffa600"/>
   </g>
   <g id="patch_114">
    <path d="M 605.298856 158.321448 
L 598.491913 158.321448 
L 597.417133 168.881778 
L 593.038397 168.881778 
L 599.291665 110.911778 
L 604.484628 110.911778 
L 610.737896 168.881778 
L 606.36278 168.881778 
L 605.298856 158.321448 
z
M 599.57755 147.562335 
L 604.202363 147.562335 
L 601.893575 124.503544 
L 599.57755 147.562335 
z
" clip-path="url(#p1e13df08fc)" style="fill: #008000"/>
   </g>
   <g id="patch_115">
    <path d="M 611.669449 188.68774 
L 629.368948 188.68774 
L 629.368948 189.38053 
L 623.001245 189.38053 
L 623.001245 192.24 
L 618.049501 192.24 
L 618.049501 189.38053 
L 611.669449 189.38053 
L 611.669449 188.68774 
z
" clip-path="url(#p1e13df08fc)" style="fill: #ff0000"/>
   </g>
   <g id="patch_116">
    <path d="M 629.368948 188.422616 
Q 627.888416 188.554032 626.287478 188.620504 
Q 624.686541 188.68774 622.942902 188.68774 
Q 617.7432 188.68774 614.706325 188.189582 
Q 611.669449 187.691424 611.669449 186.839513 
Q 611.669449 185.984546 614.706325 185.487153 
Q 617.7432 184.988995 622.942902 184.988995 
Q 624.686541 184.988995 626.287478 185.056231 
Q 627.888416 185.122703 629.368948 185.254119 
L 629.368948 185.991423 
Q 627.875037 185.81722 626.425721 185.736231 
Q 624.976404 185.655243 623.375467 185.655243 
Q 620.503591 185.655243 618.858059 185.970793 
Q 617.216987 186.28558 617.216987 186.839513 
Q 617.216987 187.391154 618.858059 187.706705 
Q 620.503591 188.021492 623.375467 188.021492 
Q 624.976404 188.021492 626.425721 187.940503 
Q 627.875037 187.85875 629.368948 187.684548 
L 629.368948 188.422616 
z
" clip-path="url(#p1e13df08fc)" style="fill: #0000ff"/>
   </g>
   <g id="patch_117">
    <path d="M 629.368948 184.203722 
Q 627.583925 184.596358 625.664033 184.793573 
Q 623.744141 184.988995 621.697314 184.988995 
Q 617.07212 184.988995 614.370785 183.82005 
Q 611.669449 182.651106 611.669449 180.652067 
Q 611.669449 178.629722 614.418385 177.469741 
Q 617.171288 176.309761 621.959118 176.309761 
Q 623.803642 176.309761 625.493464 176.467533 
Q 627.187253 176.623512 628.686673 176.931883 
L 628.686673 178.661993 
Q 627.139652 178.265771 625.608499 178.070349 
Q 624.077345 177.873135 622.538259 177.873135 
Q 619.690154 177.873135 618.147101 178.593864 
Q 616.604047 179.312801 616.604047 180.652067 
Q 616.604047 181.978783 618.091567 182.703099 
Q 619.579086 183.425621 622.316122 183.425621 
Q 623.061865 183.425621 623.700507 183.384385 
Q 624.339149 183.341357 624.846889 183.251714 
L 624.846889 181.627383 
L 621.931351 181.627383 
L 621.931351 180.180545 
L 629.368948 180.180545 
L 629.368948 184.203722 
z
" clip-path="url(#p1e13df08fc)" style="fill: #ffa600"/>
   </g>
   <g id="patch_118">
    <path d="M 623.929908 173.47448 
L 617.122965 173.47448 
L 616.048184 176.309761 
L 611.669449 176.309761 
L 617.922717 160.745735 
L 623.11568 160.745735 
L 629.368948 176.309761 
L 624.993832 176.309761 
L 623.929908 173.47448 
z
M 618.208602 170.585829 
L 622.833415 170.585829 
L 620.524627 164.394909 
L 618.208602 170.585829 
z
" clip-path="url(#p1e13df08fc)" style="fill: #008000"/>
   </g>
   <g id="patch_119">
    <path d="M 648 191.963337 
Q 646.214977 192.101669 644.295085 192.17115 
Q 642.375193 192.24 640.328366 192.24 
Q 635.703172 192.24 633.001836 191.828164 
Q 630.300501 191.416329 630.300501 190.712039 
Q 630.300501 189.999538 633.049437 189.59086 
Q 635.80234 189.182183 640.590169 189.182183 
Q 642.434694 189.182183 644.124516 189.237768 
Q 645.818305 189.292722 647.317724 189.401365 
L 647.317724 190.010907 
Q 645.770704 189.871313 644.239551 189.802463 
Q 642.708397 189.732982 641.16931 189.732982 
Q 638.321206 189.732982 636.778153 189.986905 
Q 635.235099 190.240196 635.235099 190.712039 
Q 635.235099 191.17946 636.722619 191.434646 
Q 638.210138 191.689201 640.947174 191.689201 
Q 641.692917 191.689201 642.331559 191.674673 
Q 642.970201 191.659514 643.477941 191.627931 
L 643.477941 191.055656 
L 640.562402 191.055656 
L 640.562402 190.545915 
L 648 190.545915 
L 648 191.963337 
z
" clip-path="url(#p1e13df08fc)" style="fill: #ffa600"/>
   </g>
   <g id="patch_120">
    <path d="M 630.300501 184.161322 
L 648 184.161322 
L 648 185.14053 
L 641.632296 185.14053 
L 641.632296 189.182183 
L 636.680553 189.182183 
L 636.680553 185.14053 
L 630.300501 185.14053 
L 630.300501 184.161322 
z
" clip-path="url(#p1e13df08fc)" style="fill: #ff0000"/>
   </g>
   <g id="patch_121">
    <path d="M 648 183.606601 
Q 646.519467 183.881564 644.91853 184.020644 
Q 643.317593 184.161322 641.573954 184.161322 
Q 636.374252 184.161322 633.337376 183.119022 
Q 630.300501 182.076722 630.300501 180.29426 
Q 630.300501 178.505404 633.337376 177.464703 
Q 636.374252 176.422402 641.573954 176.422402 
Q 643.317593 176.422402 644.91853 176.563081 
Q 646.519467 176.702161 648 176.977124 
L 648 178.519792 
Q 646.506089 178.155307 645.056773 177.985853 
Q 643.607456 177.816399 642.006519 177.816399 
Q 639.134642 177.816399 637.489111 178.476629 
Q 635.848038 179.135261 635.848038 180.29426 
Q 635.848038 181.448464 637.489111 182.108694 
Q 639.134642 182.767326 642.006519 182.767326 
Q 643.607456 182.767326 645.056773 182.597872 
Q 646.506089 182.42682 648 182.062334 
L 648 183.606601 
z
" clip-path="url(#p1e13df08fc)" style="fill: #0000ff"/>
   </g>
   <g id="patch_122">
    <path d="M 642.560959 173.389634 
L 635.754017 173.389634 
L 634.679236 176.422402 
L 630.300501 176.422402 
L 636.553769 159.774287 
L 641.746732 159.774287 
L 648 176.422402 
L 643.624884 176.422402 
L 642.560959 173.389634 
z
M 636.839653 170.299778 
L 641.464466 170.299778 
L 639.155679 163.677638 
L 636.839653 170.299778 
z
" clip-path="url(#p1e13df08fc)" style="fill: #008000"/>
   </g>
   <g id="matplotlib.axis_1">
    <g id="xtick_1">
     <g id="line2d_2">
      <defs>
       <path id="m67aca95bb1" d="M 0 0 
L 0 3.5 
" style="stroke: #000000; stroke-width: 0.8"/>
      </defs>
      <g>
       <use xlink:href="#m67aca95bb1" x="98.84975" y="192.24" style="stroke: #000000; stroke-width: 0.8"/>
      </g>
     </g>
     <g id="text_1">
      <!-- 0 -->
      <g transform="translate(95.6685 206.838437) scale(0.1 -0.1)">
       <defs>
        <path id="DejaVuSans-30" d="M 2034 4250 
Q 1547 4250 1301 3770 
Q 1056 3291 1056 2328 
Q 1056 1369 1301 889 
Q 1547 409 2034 409 
Q 2525 409 2770 889 
Q 3016 1369 3016 2328 
Q 3016 3291 2770 3770 
Q 2525 4250 2034 4250 
z
M 2034 4750 
Q 2819 4750 3233 4129 
Q 3647 3509 3647 2328 
Q 3647 1150 3233 529 
Q 2819 -91 2034 -91 
Q 1250 -91 836 529 
Q 422 1150 422 2328 
Q 422 3509 836 4129 
Q 1250 4750 2034 4750 
z
" transform="scale(0.015625)"/>
       </defs>
       <use xlink:href="#DejaVuSans-30"/>
      </g>
     </g>
    </g>
    <g id="xtick_2">
     <g id="line2d_3">
      <g>
       <use xlink:href="#m67aca95bb1" x="192.005008" y="192.24" style="stroke: #000000; stroke-width: 0.8"/>
      </g>
     </g>
     <g id="text_2">
      <!-- 5 -->
      <g transform="translate(188.823758 206.838437) scale(0.1 -0.1)">
       <defs>
        <path id="DejaVuSans-35" d="M 691 4666 
L 3169 4666 
L 3169 4134 
L 1269 4134 
L 1269 2991 
Q 1406 3038 1543 3061 
Q 1681 3084 1819 3084 
Q 2600 3084 3056 2656 
Q 3513 2228 3513 1497 
Q 3513 744 3044 326 
Q 2575 -91 1722 -91 
Q 1428 -91 1123 -41 
Q 819 9 494 109 
L 494 744 
Q 775 591 1075 516 
Q 1375 441 1709 441 
Q 2250 441 2565 725 
Q 2881 1009 2881 1497 
Q 2881 1984 2565 2268 
Q 2250 2553 1709 2553 
Q 1456 2553 1204 2497 
Q 953 2441 691 2322 
L 691 4666 
z
" transform="scale(0.015625)"/>
       </defs>
       <use xlink:href="#DejaVuSans-35"/>
      </g>
     </g>
    </g>
    <g id="xtick_3">
     <g id="line2d_4">
      <g>
       <use xlink:href="#m67aca95bb1" x="285.160267" y="192.24" style="stroke: #000000; stroke-width: 0.8"/>
      </g>
     </g>
     <g id="text_3">
      <!-- 10 -->
      <g transform="translate(278.797767 206.838437) scale(0.1 -0.1)">
       <defs>
        <path id="DejaVuSans-31" d="M 794 531 
L 1825 531 
L 1825 4091 
L 703 3866 
L 703 4441 
L 1819 4666 
L 2450 4666 
L 2450 531 
L 3481 531 
L 3481 0 
L 794 0 
L 794 531 
z
" transform="scale(0.015625)"/>
       </defs>
       <use xlink:href="#DejaVuSans-31"/>
       <use xlink:href="#DejaVuSans-30" x="63.623047"/>
      </g>
     </g>
    </g>
    <g id="xtick_4">
     <g id="line2d_5">
      <g>
       <use xlink:href="#m67aca95bb1" x="378.315526" y="192.24" style="stroke: #000000; stroke-width: 0.8"/>
      </g>
     </g>
     <g id="text_4">
      <!-- 15 -->
      <g transform="translate(371.953026 206.838437) scale(0.1 -0.1)">
       <use xlink:href="#DejaVuSans-31"/>
       <use xlink:href="#DejaVuSans-35" x="63.623047"/>
      </g>
     </g>
    </g>
    <g id="xtick_5">
     <g id="line2d_6">
      <g>
       <use xlink:href="#m67aca95bb1" x="471.470785" y="192.24" style="stroke: #000000; stroke-width: 0.8"/>
      </g>
     </g>
     <g id="text_5">
      <!-- 20 -->
      <g transform="translate(465.108285 206.838437) scale(0.1 -0.1)">
       <defs>
        <path id="DejaVuSans-32" d="M 1228 531 
L 3431 531 
L 3431 0 
L 469 0 
L 469 531 
Q 828 903 1448 1529 
Q 2069 2156 2228 2338 
Q 2531 2678 2651 2914 
Q 2772 3150 2772 3378 
Q 2772 3750 2511 3984 
Q 2250 4219 1831 4219 
Q 1534 4219 1204 4116 
Q 875 4013 500 3803 
L 500 4441 
Q 881 4594 1212 4672 
Q 1544 4750 1819 4750 
Q 2544 4750 2975 4387 
Q 3406 4025 3406 3419 
Q 3406 3131 3298 2873 
Q 3191 2616 2906 2266 
Q 2828 2175 2409 1742 
Q 1991 1309 1228 531 
z
" transform="scale(0.015625)"/>
       </defs>
       <use xlink:href="#DejaVuSans-32"/>
       <use xlink:href="#DejaVuSans-30" x="63.623047"/>
      </g>
     </g>
    </g>
    <g id="xtick_6">
     <g id="line2d_7">
      <g>
       <use xlink:href="#m67aca95bb1" x="564.626043" y="192.24" style="stroke: #000000; stroke-width: 0.8"/>
      </g>
     </g>
     <g id="text_6">
      <!-- 25 -->
      <g transform="translate(558.263543 206.838437) scale(0.1 -0.1)">
       <use xlink:href="#DejaVuSans-32"/>
       <use xlink:href="#DejaVuSans-35" x="63.623047"/>
      </g>
     </g>
    </g>
   </g>
   <g id="matplotlib.axis_2">
    <g id="ytick_1">
     <g id="line2d_8">
      <defs>
       <path id="mc64e820509" d="M 0 0 
L -3.5 0 
" style="stroke: #000000; stroke-width: 0.8"/>
      </defs>
      <g>
       <use xlink:href="#mc64e820509" x="90" y="192.24" style="stroke: #000000; stroke-width: 0.8"/>
      </g>
     </g>
     <g id="text_7">
      <!-- 0.0 -->
      <g transform="translate(67.096875 196.039219) scale(0.1 -0.1)">
       <defs>
        <path id="DejaVuSans-2e" d="M 684 794 
L 1344 794 
L 1344 0 
L 684 0 
L 684 794 
z
" transform="scale(0.015625)"/>
       </defs>
       <use xlink:href="#DejaVuSans-30"/>
       <use xlink:href="#DejaVuSans-2e" x="63.623047"/>
       <use xlink:href="#DejaVuSans-30" x="95.410156"/>
      </g>
     </g>
    </g>
    <g id="ytick_2">
     <g id="line2d_9">
      <g>
       <use xlink:href="#mc64e820509" x="90" y="168.653699" style="stroke: #000000; stroke-width: 0.8"/>
      </g>
     </g>
     <g id="text_8">
      <!-- 0.2 -->
      <g transform="translate(67.096875 172.452918) scale(0.1 -0.1)">
       <use xlink:href="#DejaVuSans-30"/>
       <use xlink:href="#DejaVuSans-2e" x="63.623047"/>
       <use xlink:href="#DejaVuSans-32" x="95.410156"/>
      </g>
     </g>
    </g>
    <g id="ytick_3">
     <g id="line2d_10">
      <g>
       <use xlink:href="#mc64e820509" x="90" y="145.067399" style="stroke: #000000; stroke-width: 0.8"/>
      </g>
     </g>
     <g id="text_9">
      <!-- 0.4 -->
      <g transform="translate(67.096875 148.866617) scale(0.1 -0.1)">
       <defs>
        <path id="DejaVuSans-34" d="M 2419 4116 
L 825 1625 
L 2419 1625 
L 2419 4116 
z
M 2253 4666 
L 3047 4666 
L 3047 1625 
L 3713 1625 
L 3713 1100 
L 3047 1100 
L 3047 0 
L 2419 0 
L 2419 1100 
L 313 1100 
L 313 1709 
L 2253 4666 
z
" transform="scale(0.015625)"/>
       </defs>
       <use xlink:href="#DejaVuSans-30"/>
       <use xlink:href="#DejaVuSans-2e" x="63.623047"/>
       <use xlink:href="#DejaVuSans-34" x="95.410156"/>
      </g>
     </g>
    </g>
    <g id="ytick_4">
     <g id="line2d_11">
      <g>
       <use xlink:href="#mc64e820509" x="90" y="121.481098" style="stroke: #000000; stroke-width: 0.8"/>
      </g>
     </g>
     <g id="text_10">
      <!-- 0.6 -->
      <g transform="translate(67.096875 125.280317) scale(0.1 -0.1)">
       <defs>
        <path id="DejaVuSans-36" d="M 2113 2584 
Q 1688 2584 1439 2293 
Q 1191 2003 1191 1497 
Q 1191 994 1439 701 
Q 1688 409 2113 409 
Q 2538 409 2786 701 
Q 3034 994 3034 1497 
Q 3034 2003 2786 2293 
Q 2538 2584 2113 2584 
z
M 3366 4563 
L 3366 3988 
Q 3128 4100 2886 4159 
Q 2644 4219 2406 4219 
Q 1781 4219 1451 3797 
Q 1122 3375 1075 2522 
Q 1259 2794 1537 2939 
Q 1816 3084 2150 3084 
Q 2853 3084 3261 2657 
Q 3669 2231 3669 1497 
Q 3669 778 3244 343 
Q 2819 -91 2113 -91 
Q 1303 -91 875 529 
Q 447 1150 447 2328 
Q 447 3434 972 4092 
Q 1497 4750 2381 4750 
Q 2619 4750 2861 4703 
Q 3103 4656 3366 4563 
z
" transform="scale(0.015625)"/>
       </defs>
       <use xlink:href="#DejaVuSans-30"/>
       <use xlink:href="#DejaVuSans-2e" x="63.623047"/>
       <use xlink:href="#DejaVuSans-36" x="95.410156"/>
      </g>
     </g>
    </g>
    <g id="ytick_5">
     <g id="line2d_12">
      <g>
       <use xlink:href="#mc64e820509" x="90" y="97.894797" style="stroke: #000000; stroke-width: 0.8"/>
      </g>
     </g>
     <g id="text_11">
      <!-- 0.8 -->
      <g transform="translate(67.096875 101.694016) scale(0.1 -0.1)">
       <defs>
        <path id="DejaVuSans-38" d="M 2034 2216 
Q 1584 2216 1326 1975 
Q 1069 1734 1069 1313 
Q 1069 891 1326 650 
Q 1584 409 2034 409 
Q 2484 409 2743 651 
Q 3003 894 3003 1313 
Q 3003 1734 2745 1975 
Q 2488 2216 2034 2216 
z
M 1403 2484 
Q 997 2584 770 2862 
Q 544 3141 544 3541 
Q 544 4100 942 4425 
Q 1341 4750 2034 4750 
Q 2731 4750 3128 4425 
Q 3525 4100 3525 3541 
Q 3525 3141 3298 2862 
Q 3072 2584 2669 2484 
Q 3125 2378 3379 2068 
Q 3634 1759 3634 1313 
Q 3634 634 3220 271 
Q 2806 -91 2034 -91 
Q 1263 -91 848 271 
Q 434 634 434 1313 
Q 434 1759 690 2068 
Q 947 2378 1403 2484 
z
M 1172 3481 
Q 1172 3119 1398 2916 
Q 1625 2713 2034 2713 
Q 2441 2713 2670 2916 
Q 2900 3119 2900 3481 
Q 2900 3844 2670 4047 
Q 2441 4250 2034 4250 
Q 1625 4250 1398 4047 
Q 1172 3844 1172 3481 
z
" transform="scale(0.015625)"/>
       </defs>
       <use xlink:href="#DejaVuSans-30"/>
       <use xlink:href="#DejaVuSans-2e" x="63.623047"/>
       <use xlink:href="#DejaVuSans-38" x="95.410156"/>
      </g>
     </g>
    </g>
    <g id="ytick_6">
     <g id="line2d_13">
      <g>
       <use xlink:href="#mc64e820509" x="90" y="74.308497" style="stroke: #000000; stroke-width: 0.8"/>
      </g>
     </g>
     <g id="text_12">
      <!-- 1.0 -->
      <g transform="translate(67.096875 78.107715) scale(0.1 -0.1)">
       <use xlink:href="#DejaVuSans-31"/>
       <use xlink:href="#DejaVuSans-2e" x="63.623047"/>
       <use xlink:href="#DejaVuSans-30" x="95.410156"/>
      </g>
     </g>
    </g>
    <g id="ytick_7">
     <g id="line2d_14">
      <g>
       <use xlink:href="#mc64e820509" x="90" y="50.722196" style="stroke: #000000; stroke-width: 0.8"/>
      </g>
     </g>
     <g id="text_13">
      <!-- 1.2 -->
      <g transform="translate(67.096875 54.521415) scale(0.1 -0.1)">
       <use xlink:href="#DejaVuSans-31"/>
       <use xlink:href="#DejaVuSans-2e" x="63.623047"/>
       <use xlink:href="#DejaVuSans-32" x="95.410156"/>
      </g>
     </g>
    </g>
    <g id="ytick_8">
     <g id="line2d_15">
      <g>
       <use xlink:href="#mc64e820509" x="90" y="27.135895" style="stroke: #000000; stroke-width: 0.8"/>
      </g>
     </g>
     <g id="text_14">
      <!-- 1.4 -->
      <g transform="translate(67.096875 30.935114) scale(0.1 -0.1)">
       <use xlink:href="#DejaVuSans-31"/>
       <use xlink:href="#DejaVuSans-2e" x="63.623047"/>
       <use xlink:href="#DejaVuSans-34" x="95.410156"/>
      </g>
     </g>
    </g>
   </g>
  </g>
 </g>
 <defs>
  <clipPath id="p1e13df08fc">
   <rect x="90" y="25.92" width="558" height="166.32"/>
  </clipPath>
 </defs>
</svg>
