<?xml version="1.0" encoding="utf-8" standalone="no"?>
<!DOCTYPE svg PUBLIC "-//W3C//DTD SVG 1.1//EN"
  "http://www.w3.org/Graphics/SVG/1.1/DTD/svg11.dtd">
<svg xmlns:xlink="http://www.w3.org/1999/xlink" width="720pt" height="216pt" viewBox="0 0 720 216" xmlns="http://www.w3.org/2000/svg" version="1.1">
 <metadata>
  <rdf:RDF xmlns:dc="http://purl.org/dc/elements/1.1/" xmlns:cc="http://creativecommons.org/ns#" xmlns:rdf="http://www.w3.org/1999/02/22-rdf-syntax-ns#">
   <cc:Work>
    <dc:type rdf:resource="http://purl.org/dc/dcmitype/StillImage"/>
    <dc:date>2025-12-17T10:21:57.714309</dc:date>
    <dc:format>image/svg+xml</dc:format>
    <dc:creator>
     <cc:Agent>
      <dc:title>Matplotlib v3.8.2, https://matplotlib.org/</dc:title>
     </cc:Agent>
    </dc:creator>
   </cc:Work>
  </rdf:RDF>
 </metadata>
 <defs>
  <style type="text/css">*{stroke-linejoin: round; stroke-linecap: butt}</style>
 </defs>
 <g id="figure_1">
  <g id="patch_1">
   <path d="M 0 216 
L 720 216 
L 720 0 
L 0 0 
z
" style="fill: #ffffff"/>
  </g>
  <g id="axes_1">
   <g id="patch_2">
    <path d="M 90 192.24 
L 648 192.24 
L 648 25.92 
L 90 25.92 
z
" style="fill: #ffffff"/>
   </g>
   <g id="line2d_1">
    <path d="M 90 192.24 
L 648 192.24 
" clip-path="url(#p66df1a4786)" style="fill: none; stroke: #000000; stroke-width: 0.5; stroke-linecap: square"/>
   </g>
   <g id="patch_3">
    <path d="M 115.303103 192.173143 
Q 113.186542 192.206282 110.897851 192.223045 
Q 108.60916 192.24 106.116463 192.24 
Q 98.683 192.24 94.3415 192.114378 
Q 90 191.988756 90 191.773928 
Q 90 191.558328 94.3415 191.432899 
Q 98.683 191.307277 106.116463 191.307277 
Q 108.60916 191.307277 110.897851 191.324232 
Q 113.186542 191.340995 115.303103 191.374134 
L 115.303103 191.560062 
Q 113.167416 191.516133 111.095482 191.49571 
Q 109.023547 191.475287 106.734856 191.475287 
Q 102.629238 191.475287 100.276796 191.55486 
Q 97.930728 191.634241 97.930728 191.773928 
Q 97.930728 191.913036 100.276796 191.99261 
Q 102.629238 192.07199 106.734856 192.07199 
Q 109.023547 192.07199 111.095482 192.051567 
Q 113.167416 192.030951 115.303103 191.987022 
L 115.303103 192.173143 
z
" clip-path="url(#p66df1a4786)" style="fill: #0000ff"/>
   </g>
   <g id="patch_4">
    <path d="M 115.303103 191.166667 
Q 112.751243 191.236972 110.006577 191.272285 
Q 107.26191 191.307277 104.335778 191.307277 
Q 97.723627 191.307277 93.861814 191.097967 
Q 90 190.888657 90 190.530711 
Q 90 190.168591 93.929863 189.960886 
Q 97.865397 189.753181 104.710051 189.753181 
Q 107.346972 189.753181 109.762733 189.781432 
Q 112.184163 189.809361 114.327725 189.864578 
L 114.327725 190.17437 
Q 112.116114 190.103423 109.927186 190.068431 
Q 107.738258 190.033118 105.537988 190.033118 
Q 101.466354 190.033118 99.260414 190.162171 
Q 97.054473 190.290903 97.054473 190.530711 
Q 97.054473 190.768271 99.181023 190.897967 
Q 101.307572 191.027341 105.220423 191.027341 
Q 106.286533 191.027341 107.199532 191.019957 
Q 108.11253 191.012252 108.838392 190.996201 
L 108.838392 190.70535 
L 104.670356 190.70535 
L 104.670356 190.44628 
L 115.303103 190.44628 
L 115.303103 191.166667 
z
" clip-path="url(#p66df1a4786)" style="fill: #ffa600"/>
   </g>
   <g id="patch_5">
    <path d="M 90 188.16722 
L 115.303103 188.16722 
L 115.303103 188.476527 
L 106.19987 188.476527 
L 106.19987 189.753181 
L 99.120886 189.753181 
L 99.120886 188.476527 
L 90 188.476527 
L 90 188.16722 
z
" clip-path="url(#p66df1a4786)" style="fill: #ff0000"/>
   </g>
   <g id="patch_6">
    <path d="M 107.527481 187.872503 
L 97.796315 187.872503 
L 96.259815 188.16722 
L 90 188.16722 
L 98.939636 186.549394 
L 106.363466 186.549394 
L 115.303103 188.16722 
L 109.048461 188.16722 
L 107.527481 187.872503 
z
M 99.348335 187.572237 
L 105.959941 187.572237 
L 102.659311 186.928713 
L 99.348335 187.572237 
z
" clip-path="url(#p66df1a4786)" style="fill: #008000"/>
   </g>
   <g id="patch_7">
    <path d="M 141.937947 192.078503 
Q 139.821387 192.158553 137.532696 192.199044 
Q 135.244005 192.24 132.751308 192.24 
Q 125.317845 192.24 120.976345 191.936554 
Q 116.634845 191.633107 116.634845 191.114177 
Q 116.634845 190.593384 120.976345 190.290403 
Q 125.317845 189.986957 132.751308 189.986957 
Q 135.244005 189.986957 137.532696 190.027913 
Q 139.821387 190.068403 141.937947 190.148454 
L 141.937947 190.597573 
Q 139.802261 190.49146 137.730326 190.442126 
Q 135.658392 190.392793 133.369701 190.392793 
Q 129.264083 190.392793 126.91164 190.585007 
Q 124.565573 190.776755 124.565573 191.114177 
Q 124.565573 191.450202 126.91164 191.642415 
Q 129.264083 191.834164 133.369701 191.834164 
Q 135.658392 191.834164 137.730326 191.78483 
Q 139.802261 191.735032 141.937947 191.628918 
L 141.937947 192.078503 
z
" clip-path="url(#p66df1a4786)" style="fill: #0000ff"/>
   </g>
   <g id="patch_8">
    <path d="M 134.162326 189.57152 
L 124.43116 189.57152 
L 122.89466 189.986957 
L 116.634845 189.986957 
L 125.574481 187.706454 
L 132.998311 187.706454 
L 141.937947 189.986957 
L 135.683306 189.986957 
L 134.162326 189.57152 
z
M 125.98318 189.148264 
L 132.594786 189.148264 
L 129.294156 188.241146 
L 125.98318 189.148264 
z
" clip-path="url(#p66df1a4786)" style="fill: #008000"/>
   </g>
   <g id="patch_9">
    <path d="M 116.634845 184.970126 
L 141.937947 184.970126 
L 141.937947 185.503786 
L 132.834715 185.503786 
L 132.834715 187.706454 
L 125.755731 187.706454 
L 125.755731 185.503786 
L 116.634845 185.503786 
L 116.634845 184.970126 
z
" clip-path="url(#p66df1a4786)" style="fill: #ff0000"/>
   </g>
   <g id="patch_10">
    <path d="M 141.937947 184.563049 
Q 139.386088 184.766587 136.641422 184.868821 
Q 133.896755 184.970126 130.970623 184.970126 
Q 124.358472 184.970126 120.496659 184.364157 
Q 116.634845 183.758189 116.634845 182.721909 
Q 116.634845 181.673547 120.564708 181.072225 
Q 124.500242 180.470904 131.344896 180.470904 
Q 133.981817 180.470904 136.397577 180.552691 
Q 138.819008 180.633549 140.96257 180.793406 
L 140.96257 181.690276 
Q 138.750959 181.484879 136.562031 181.383574 
Q 134.373102 181.28134 132.172833 181.28134 
Q 128.101199 181.28134 125.895259 181.654959 
Q 123.689318 182.027648 123.689318 182.721909 
Q 123.689318 183.409664 125.815868 183.785142 
Q 127.942417 184.15969 131.855268 184.15969 
Q 132.921378 184.15969 133.834377 184.138313 
Q 134.747375 184.116008 135.473237 184.069538 
L 135.473237 183.227502 
L 131.3052 183.227502 
L 131.3052 182.477477 
L 141.937947 182.477477 
L 141.937947 184.563049 
z
" clip-path="url(#p66df1a4786)" style="fill: #ffa600"/>
   </g>
   <g id="patch_11">
    <path d="M 168.572792 192.099291 
Q 166.456231 192.169037 164.167541 192.204316 
Q 161.87885 192.24 159.386153 192.24 
Q 151.952689 192.24 147.61119 191.975614 
Q 143.26969 191.711227 143.26969 191.259094 
Q 143.26969 190.805339 147.61119 190.541358 
Q 151.952689 190.276972 159.386153 190.276972 
Q 161.87885 190.276972 164.167541 190.312656 
Q 166.456231 190.347934 168.572792 190.417681 
L 168.572792 190.808989 
Q 166.437106 190.716534 164.365171 190.673551 
Q 162.293237 190.630568 160.004546 190.630568 
Q 155.898928 190.630568 153.546485 190.79804 
Q 151.200418 190.965106 151.200418 191.259094 
Q 151.200418 191.551866 153.546485 191.719337 
Q 155.898928 191.886404 160.004546 191.886404 
Q 162.293237 191.886404 164.365171 191.84342 
Q 166.437106 191.800032 168.572792 191.707578 
L 168.572792 192.099291 
z
" clip-path="url(#p66df1a4786)" style="fill: #0000ff"/>
   </g>
   <g id="patch_12">
    <path d="M 168.572792 190.064431 
Q 166.020933 190.170702 163.276267 190.224079 
Q 160.5316 190.276972 157.605468 190.276972 
Q 150.993317 190.276972 147.131503 189.960588 
Q 143.26969 189.644203 143.26969 189.103147 
Q 143.26969 188.555783 147.199553 188.241825 
Q 151.135087 187.927867 157.979741 187.927867 
Q 160.616662 187.927867 163.032422 187.970569 
Q 165.453853 188.012786 167.597415 188.09625 
L 167.597415 188.564518 
Q 165.385804 188.457277 163.196875 188.404385 
Q 161.007947 188.351007 158.807677 188.351007 
Q 154.736044 188.351007 152.530104 188.546078 
Q 150.324163 188.740664 150.324163 189.103147 
Q 150.324163 189.462234 152.450712 189.658276 
Q 154.577262 189.853832 158.490113 189.853832 
Q 159.556223 189.853832 160.469221 189.842671 
Q 161.38222 189.831025 162.108082 189.806763 
L 162.108082 189.367124 
L 157.940045 189.367124 
L 157.940045 188.975526 
L 168.572792 188.975526 
L 168.572792 190.064431 
z
" clip-path="url(#p66df1a4786)" style="fill: #ffa600"/>
   </g>
   <g id="patch_13">
    <path d="M 143.26969 184.318337 
L 168.572792 184.318337 
L 168.572792 185.022296 
L 159.46956 185.022296 
L 159.46956 187.927867 
L 152.390576 187.927867 
L 152.390576 185.022296 
L 143.26969 185.022296 
L 143.26969 184.318337 
z
" clip-path="url(#p66df1a4786)" style="fill: #ff0000"/>
   </g>
   <g id="patch_14">
    <path d="M 160.797171 183.544953 
L 151.066005 183.544953 
L 149.529505 184.318337 
L 143.26969 184.318337 
L 152.209326 180.072916 
L 159.633156 180.072916 
L 168.572792 184.318337 
L 162.318151 184.318337 
L 160.797171 183.544953 
z
M 152.618025 182.757012 
L 159.229631 182.757012 
L 155.929001 181.068306 
L 152.618025 182.757012 
z
" clip-path="url(#p66df1a4786)" style="fill: #008000"/>
   </g>
   <g id="patch_15">
    <path d="M 169.904535 185.839936 
L 195.207637 185.839936 
L 195.207637 187.088127 
L 186.104405 187.088127 
L 186.104405 192.24 
L 179.02542 192.24 
L 179.02542 187.088127 
L 169.904535 187.088127 
L 169.904535 185.839936 
z
" clip-path="url(#p66df1a4786)" style="fill: #ff0000"/>
   </g>
   <g id="patch_16">
    <path d="M 195.207637 185.352032 
Q 193.091076 185.593875 190.802386 185.716202 
Q 188.513695 185.839936 186.020998 185.839936 
Q 178.587534 185.839936 174.246034 184.923182 
Q 169.904535 184.006428 169.904535 182.438667 
Q 169.904535 180.865281 174.246034 179.949933 
Q 178.587534 179.033179 186.020998 179.033179 
Q 188.513695 179.033179 190.802386 179.156913 
Q 193.091076 179.27924 195.207637 179.521083 
L 195.207637 180.877935 
Q 193.071951 180.557353 191.000016 180.40831 
Q 188.928082 180.259267 186.639391 180.259267 
Q 182.533773 180.259267 180.18133 180.839972 
Q 177.835263 181.41927 177.835263 182.438667 
Q 177.835263 183.453845 180.18133 184.03455 
Q 182.533773 184.613848 186.639391 184.613848 
Q 188.928082 184.613848 191.000016 184.464805 
Q 193.071951 184.314356 195.207637 183.993774 
L 195.207637 185.352032 
z
" clip-path="url(#p66df1a4786)" style="fill: #0000ff"/>
   </g>
   <g id="patch_17">
    <path d="M 187.432016 177.461759 
L 177.700849 177.461759 
L 176.164349 179.033179 
L 169.904535 179.033179 
L 178.844171 170.407006 
L 186.268001 170.407006 
L 195.207637 179.033179 
L 188.952996 179.033179 
L 187.432016 177.461759 
z
M 179.25287 175.860759 
L 185.864476 175.860759 
L 182.563846 172.429516 
L 179.25287 175.860759 
z
" clip-path="url(#p66df1a4786)" style="fill: #008000"/>
   </g>
   <g id="patch_18">
    <path d="M 195.207637 168.232143 
Q 192.655778 169.319574 189.911111 169.865773 
Q 187.166445 170.407006 184.240313 170.407006 
Q 177.628162 170.407006 173.766348 167.169539 
Q 169.904535 163.932071 169.904535 158.395605 
Q 169.904535 152.794588 173.834398 149.581948 
Q 177.769932 146.369308 184.614586 146.369308 
Q 187.251507 146.369308 189.667267 146.806266 
Q 192.088698 147.23826 194.23226 148.092315 
L 194.23226 152.883966 
Q 192.020649 151.786603 189.83172 151.24537 
Q 187.642792 150.699172 185.442522 150.699172 
Q 181.370889 150.699172 179.164948 152.695279 
Q 176.959008 154.686421 176.959008 158.395605 
Q 176.959008 162.070031 179.085557 164.076069 
Q 181.212107 166.077142 185.124958 166.077142 
Q 186.191068 166.077142 187.104066 165.962937 
Q 188.017065 165.843766 188.742927 165.595494 
L 188.742927 161.096805 
L 184.57489 161.096805 
L 184.57489 157.089694 
L 195.207637 157.089694 
L 195.207637 168.232143 
z
" clip-path="url(#p66df1a4786)" style="fill: #ffa600"/>
   </g>
   <g id="patch_19">
    <path d="M 221.842482 191.549324 
Q 219.725921 191.891677 217.43723 192.064843 
Q 215.14854 192.24 212.655843 192.24 
Q 205.222379 192.24 200.880879 190.942247 
Q 196.539379 189.644493 196.539379 187.425176 
Q 196.539379 185.197896 200.880879 183.902133 
Q 205.222379 182.60438 212.655843 182.60438 
Q 215.14854 182.60438 217.43723 182.779537 
Q 219.725921 182.952703 221.842482 183.295056 
L 221.842482 185.21581 
Q 219.706796 184.761995 217.634861 184.55101 
Q 215.562927 184.340026 213.274236 184.340026 
Q 209.168618 184.340026 206.816175 185.162069 
Q 204.470108 185.982122 204.470108 187.425176 
Q 204.470108 188.862258 206.816175 189.684302 
Q 209.168618 190.504354 213.274236 190.504354 
Q 215.562927 190.504354 217.634861 190.29337 
Q 219.706796 190.080395 221.842482 189.626579 
L 221.842482 191.549324 
z
" clip-path="url(#p66df1a4786)" style="fill: #0000ff"/>
   </g>
   <g id="patch_20">
    <path d="M 196.539379 172.785006 
L 221.842482 172.785006 
L 221.842482 174.700057 
L 212.73925 174.700057 
L 212.73925 182.60438 
L 205.660265 182.60438 
L 205.660265 174.700057 
L 196.539379 174.700057 
L 196.539379 172.785006 
z
" clip-path="url(#p66df1a4786)" style="fill: #ff0000"/>
   </g>
   <g id="patch_21">
    <path d="M 221.842482 171.514188 
Q 219.290623 172.149597 216.545956 172.468752 
Q 213.80129 172.785006 210.875158 172.785006 
Q 204.263007 172.785006 200.401193 170.893287 
Q 196.539379 169.001567 196.539379 165.766495 
Q 196.539379 162.493705 200.469243 160.616493 
Q 204.404777 158.739281 211.249431 158.739281 
Q 213.886352 158.739281 216.302112 158.994605 
Q 218.723543 159.247028 220.867105 159.74607 
L 220.867105 162.545931 
Q 218.655493 161.904719 216.466565 161.588465 
Q 214.277637 161.26931 212.077367 161.26931 
Q 208.005734 161.26931 205.799793 162.435677 
Q 203.593853 163.599142 203.593853 165.766495 
Q 203.593853 167.913539 205.720402 169.085708 
Q 207.846952 170.254976 211.759802 170.254976 
Q 212.825913 170.254976 213.738911 170.188244 
Q 214.65191 170.11861 215.377772 169.97354 
L 215.377772 167.344862 
L 211.209735 167.344862 
L 211.209735 165.003425 
L 221.842482 165.003425 
L 221.842482 171.514188 
z
" clip-path="url(#p66df1a4786)" style="fill: #ffa600"/>
   </g>
   <g id="patch_22">
    <path d="M 214.066861 146.908198 
L 204.335694 146.908198 
L 202.799194 158.739281 
L 196.539379 158.739281 
L 205.479016 93.793595 
L 212.902846 93.793595 
L 221.842482 158.739281 
L 215.587841 158.739281 
L 214.066861 146.908198 
z
M 205.887714 134.854412 
L 212.499321 134.854412 
L 209.198691 109.020894 
L 205.887714 134.854412 
z
" clip-path="url(#p66df1a4786)" style="fill: #008000"/>
   </g>
   <g id="patch_23">
    <path d="M 248.477327 192.005813 
Q 246.360766 192.121894 244.072075 192.18061 
Q 241.783384 192.24 239.290688 192.24 
Q 231.857224 192.24 227.515724 191.799972 
Q 223.174224 191.359943 223.174224 190.607441 
Q 223.174224 189.852239 227.515724 189.412885 
Q 231.857224 188.972857 239.290688 188.972857 
Q 241.783384 188.972857 244.072075 189.032247 
Q 246.360766 189.090963 248.477327 189.207044 
L 248.477327 189.858313 
Q 246.341641 189.704438 244.269706 189.6329 
Q 242.197771 189.561361 239.909081 189.561361 
Q 235.803463 189.561361 233.45102 189.840091 
Q 231.104952 190.118146 231.104952 190.607441 
Q 231.104952 191.094711 233.45102 191.373441 
Q 235.803463 191.651496 239.909081 191.651496 
Q 242.197771 191.651496 244.269706 191.579957 
Q 246.341641 191.507744 248.477327 191.353869 
L 248.477327 192.005813 
z
" clip-path="url(#p66df1a4786)" style="fill: #0000ff"/>
   </g>
   <g id="patch_24">
    <path d="M 248.477327 188.412952 
Q 245.925468 188.692905 243.180801 188.83352 
Q 240.436135 188.972857 237.510003 188.972857 
Q 230.897852 188.972857 227.036038 188.139392 
Q 223.174224 187.305926 223.174224 185.880598 
Q 223.174224 184.438651 227.104088 183.611578 
Q 231.039622 182.784504 237.884275 182.784504 
Q 240.521197 182.784504 242.936957 182.896996 
Q 245.358388 183.00821 247.50195 183.228081 
L 247.50195 184.461661 
Q 245.290338 184.179152 243.10141 184.039815 
Q 240.912482 183.8992 238.712212 183.8992 
Q 234.640579 183.8992 232.434638 184.413085 
Q 230.228698 184.925692 230.228698 185.880598 
Q 230.228698 186.826556 232.355247 187.342997 
Q 234.481796 187.858161 238.394647 187.858161 
Q 239.460757 187.858161 240.373756 187.828759 
Q 241.286755 187.79808 242.012617 187.734164 
L 242.012617 186.576005 
L 237.84458 186.576005 
L 237.84458 185.544399 
L 248.477327 185.544399 
L 248.477327 188.412952 
z
" clip-path="url(#p66df1a4786)" style="fill: #ffa600"/>
   </g>
   <g id="patch_25">
    <path d="M 223.174224 175.533892 
L 248.477327 175.533892 
L 248.477327 176.947964 
L 239.374094 176.947964 
L 239.374094 182.784504 
L 232.29511 182.784504 
L 232.29511 176.947964 
L 223.174224 176.947964 
L 223.174224 175.533892 
z
" clip-path="url(#p66df1a4786)" style="fill: #ff0000"/>
   </g>
   <g id="patch_26">
    <path d="M 240.701706 173.120741 
L 230.970539 173.120741 
L 229.434039 175.533892 
L 223.174224 175.533892 
L 232.113861 162.287112 
L 239.537691 162.287112 
L 248.477327 175.533892 
L 242.222686 175.533892 
L 240.701706 173.120741 
z
M 232.522559 170.662166 
L 239.134165 170.662166 
L 235.833536 165.39298 
L 232.522559 170.662166 
z
" clip-path="url(#p66df1a4786)" style="fill: #008000"/>
   </g>
   <g id="patch_27">
    <path d="M 249.809069 184.293269 
L 275.112172 184.293269 
L 275.112172 185.843103 
L 266.008939 185.843103 
L 266.008939 192.24 
L 258.929955 192.24 
L 258.929955 185.843103 
L 249.809069 185.843103 
L 249.809069 184.293269 
z
" clip-path="url(#p66df1a4786)" style="fill: #ff0000"/>
   </g>
   <g id="patch_28">
    <path d="M 275.112172 183.398157 
Q 272.995611 183.841844 270.70692 184.066267 
Q 268.418229 184.293269 265.925533 184.293269 
Q 258.492069 184.293269 254.150569 182.611387 
Q 249.809069 180.929504 249.809069 178.053279 
Q 249.809069 175.166735 254.150569 173.487432 
Q 258.492069 171.80555 265.925533 171.80555 
Q 268.418229 171.80555 270.70692 172.032552 
Q 272.995611 172.256975 275.112172 172.700662 
L 275.112172 175.189951 
Q 272.976485 174.601809 270.904551 174.328374 
Q 268.832616 174.054939 266.543925 174.054939 
Q 262.438307 174.054939 260.085865 175.120303 
Q 257.739797 176.183088 257.739797 178.053279 
Q 257.739797 179.915732 260.085865 180.981096 
Q 262.438307 182.043881 266.543925 182.043881 
Q 268.832616 182.043881 270.904551 181.770446 
Q 272.976485 181.494431 275.112172 180.906288 
L 275.112172 183.398157 
z
" clip-path="url(#p66df1a4786)" style="fill: #0000ff"/>
   </g>
   <g id="patch_29">
    <path d="M 267.336551 169.405339 
L 257.605384 169.405339 
L 256.068884 171.80555 
L 249.809069 171.80555 
L 258.748706 158.629802 
L 266.172535 158.629802 
L 275.112172 171.80555 
L 268.85753 171.80555 
L 267.336551 169.405339 
z
M 259.157404 166.959947 
L 265.76901 166.959947 
L 262.468381 161.719015 
L 259.157404 166.959947 
z
" clip-path="url(#p66df1a4786)" style="fill: #008000"/>
   </g>
   <g id="patch_30">
    <path d="M 275.112172 152.777181 
Q 272.560313 155.703491 269.815646 157.173328 
Q 267.07098 158.629802 264.144848 158.629802 
Q 257.532697 158.629802 253.670883 149.917681 
Q 249.809069 141.205561 249.809069 126.306766 
Q 249.809069 111.234263 253.738933 102.588954 
Q 257.674467 93.943644 264.51912 93.943644 
Q 267.156042 93.943644 269.571802 95.119513 
Q 271.993233 96.28202 274.136795 98.580309 
L 274.136795 111.474782 
Q 271.925183 108.521747 269.736255 107.065273 
Q 267.547327 105.595437 265.347057 105.595437 
Q 261.275424 105.595437 259.069483 110.96702 
Q 256.863542 116.325242 256.863542 126.306766 
Q 256.863542 136.194756 258.990092 141.593063 
Q 261.116641 146.978009 265.029492 146.978009 
Q 266.095602 146.978009 267.008601 146.670679 
Q 267.921599 146.349988 268.647462 145.681881 
L 268.647462 133.575775 
L 264.479425 133.575775 
L 264.479425 122.792521 
L 275.112172 122.792521 
L 275.112172 152.777181 
z
" clip-path="url(#p66df1a4786)" style="fill: #ffa600"/>
   </g>
   <g id="patch_31">
    <path d="M 276.443914 184.603297 
L 301.747017 184.603297 
L 301.747017 186.092667 
L 292.643784 186.092667 
L 292.643784 192.24 
L 285.5648 192.24 
L 285.5648 186.092667 
L 276.443914 186.092667 
L 276.443914 184.603297 
z
" clip-path="url(#p66df1a4786)" style="fill: #ff0000"/>
   </g>
   <g id="patch_32">
    <path d="M 301.747017 183.717977 
Q 299.630456 184.15681 297.341765 184.378778 
Q 295.053074 184.603297 292.560378 184.603297 
Q 285.126914 184.603297 280.785414 182.939813 
Q 276.443914 181.276329 276.443914 178.431566 
Q 276.443914 175.576599 280.785414 173.915666 
Q 285.126914 172.252182 292.560378 172.252182 
Q 295.053074 172.252182 297.341765 172.476701 
Q 299.630456 172.698669 301.747017 173.137502 
L 301.747017 175.599561 
Q 299.61133 175.017852 297.539396 174.747408 
Q 295.467461 174.476964 293.17877 174.476964 
Q 289.073152 174.476964 286.72071 175.530674 
Q 284.374642 176.581833 284.374642 178.431566 
Q 284.374642 180.273646 286.72071 181.327356 
Q 289.073152 182.378515 293.17877 182.378515 
Q 295.467461 182.378515 297.539396 182.108071 
Q 299.61133 181.835076 301.747017 181.253366 
L 301.747017 183.717977 
z
" clip-path="url(#p66df1a4786)" style="fill: #0000ff"/>
   </g>
   <g id="patch_33">
    <path d="M 301.747017 170.7432 
Q 299.195157 171.497691 296.450491 171.876659 
Q 293.705825 172.252182 290.779693 172.252182 
Q 284.167542 172.252182 280.305728 170.005934 
Q 276.443914 167.759687 276.443914 163.918328 
Q 276.443914 160.032183 280.373777 157.803161 
Q 284.309312 155.574139 291.153965 155.574139 
Q 293.790886 155.574139 296.206647 155.877314 
Q 298.628078 156.177043 300.771639 156.769612 
L 300.771639 160.094196 
Q 298.560028 159.332814 296.3711 158.957291 
Q 294.182172 158.578323 291.981902 158.578323 
Q 287.910269 158.578323 285.704328 159.963279 
Q 283.498387 161.34479 283.498387 163.918328 
Q 283.498387 166.46775 285.624937 167.859597 
Q 287.751486 169.247998 291.664337 169.247998 
Q 292.730447 169.247998 293.643446 169.168759 
Q 294.556444 169.086075 295.282306 168.913817 
L 295.282306 165.792498 
L 291.11427 165.792498 
L 291.11427 163.01225 
L 301.747017 163.01225 
L 301.747017 170.7432 
z
" clip-path="url(#p66df1a4786)" style="fill: #ffa600"/>
   </g>
   <g id="patch_34">
    <path d="M 293.971396 137.041878 
L 284.240229 137.041878 
L 282.703729 155.574139 
L 276.443914 155.574139 
L 285.38355 53.842925 
L 292.80738 53.842925 
L 301.747017 155.574139 
L 295.492375 155.574139 
L 293.971396 137.041878 
z
M 285.792249 118.160774 
L 292.403855 118.160774 
L 289.103225 77.695036 
L 285.792249 118.160774 
z
" clip-path="url(#p66df1a4786)" style="fill: #008000"/>
   </g>
   <g id="patch_35">
    <path d="M 328.381862 191.741695 
Q 326.265301 191.988693 323.97661 192.113629 
Q 321.687919 192.24 319.195222 192.24 
Q 311.761759 192.24 307.420259 191.303703 
Q 303.078759 190.367407 303.078759 188.766224 
Q 303.078759 187.159298 307.420259 186.224437 
Q 311.761759 185.28814 319.195222 185.28814 
Q 321.687919 185.28814 323.97661 185.414512 
Q 326.265301 185.539447 328.381862 185.786445 
L 328.381862 187.172222 
Q 326.246175 186.844805 324.174241 186.692585 
Q 322.102306 186.540365 319.813615 186.540365 
Q 315.707997 186.540365 313.355554 187.133449 
Q 311.009487 187.725097 311.009487 188.766224 
Q 311.009487 189.803044 313.355554 190.396127 
Q 315.707997 190.987775 319.813615 190.987775 
Q 322.102306 190.987775 324.174241 190.835555 
Q 326.246175 190.681899 328.381862 190.354482 
L 328.381862 191.741695 
z
" clip-path="url(#p66df1a4786)" style="fill: #0000ff"/>
   </g>
   <g id="patch_36">
    <path d="M 328.381862 184.054768 
Q 325.830002 184.671454 323.085336 184.981205 
Q 320.340669 185.28814 317.414537 185.28814 
Q 310.802386 185.28814 306.940573 183.452162 
Q 303.078759 181.616183 303.078759 178.476435 
Q 303.078759 175.300079 307.008622 173.47818 
Q 310.944156 171.656281 317.78881 171.656281 
Q 320.425731 171.656281 322.841492 171.904082 
Q 325.262922 172.149067 327.406484 172.633405 
L 327.406484 175.350766 
Q 325.194873 174.728448 323.005945 174.421513 
Q 320.817016 174.111762 318.616747 174.111762 
Q 314.545113 174.111762 312.339173 175.243761 
Q 310.133232 176.372944 310.133232 178.476435 
Q 310.133232 180.560214 312.259782 181.697845 
Q 314.386331 182.83266 318.299182 182.83266 
Q 319.365292 182.83266 320.278291 182.767894 
Q 321.191289 182.700312 321.917151 182.559516 
L 321.917151 180.008294 
L 317.749115 180.008294 
L 317.749115 177.735848 
L 328.381862 177.735848 
L 328.381862 184.054768 
z
" clip-path="url(#p66df1a4786)" style="fill: #ffa600"/>
   </g>
   <g id="patch_37">
    <path d="M 303.078759 156.833415 
L 328.381862 156.833415 
L 328.381862 159.724287 
L 319.278629 159.724287 
L 319.278629 171.656281 
L 312.199645 171.656281 
L 312.199645 159.724287 
L 303.078759 159.724287 
L 303.078759 156.833415 
z
" clip-path="url(#p66df1a4786)" style="fill: #ff0000"/>
   </g>
   <g id="patch_38">
    <path d="M 320.60624 143.067959 
L 310.875074 143.067959 
L 309.338574 156.833415 
L 303.078759 156.833415 
L 312.018395 81.26916 
L 319.442225 81.26916 
L 328.381862 156.833415 
L 322.12722 156.833415 
L 320.60624 143.067959 
z
M 312.427094 129.043389 
L 319.0387 129.043389 
L 315.73807 98.986111 
L 312.427094 129.043389 
z
" clip-path="url(#p66df1a4786)" style="fill: #008000"/>
   </g>
   <g id="patch_39">
    <path d="M 329.713604 183.464641 
L 355.016706 183.464641 
L 355.016706 185.176081 
L 345.913474 185.176081 
L 345.913474 192.24 
L 338.83449 192.24 
L 338.83449 185.176081 
L 329.713604 185.176081 
L 329.713604 183.464641 
z
" clip-path="url(#p66df1a4786)" style="fill: #ff0000"/>
   </g>
   <g id="patch_40">
    <path d="M 355.016706 182.616176 
Q 352.900146 183.036741 350.611455 183.249469 
Q 348.322764 183.464641 345.830067 183.464641 
Q 338.396604 183.464641 334.055104 181.870407 
Q 329.713604 180.276173 329.713604 177.549837 
Q 329.713604 174.81372 334.055104 173.221931 
Q 338.396604 171.627697 345.830067 171.627697 
Q 348.322764 171.627697 350.611455 171.84287 
Q 352.900146 172.055598 355.016706 172.476162 
L 355.016706 174.835727 
Q 352.88102 174.278234 350.809085 174.019049 
Q 348.737151 173.759863 346.44846 173.759863 
Q 342.342842 173.759863 339.990399 174.769708 
Q 337.644332 175.777107 337.644332 177.549837 
Q 337.644332 179.315231 339.990399 180.325076 
Q 342.342842 181.332475 346.44846 181.332475 
Q 348.737151 181.332475 350.809085 181.07329 
Q 352.88102 180.81166 355.016706 180.254167 
L 355.016706 182.616176 
z
" clip-path="url(#p66df1a4786)" style="fill: #0000ff"/>
   </g>
   <g id="patch_41">
    <path d="M 347.241085 168.783945 
L 337.509919 168.783945 
L 335.973419 171.627697 
L 329.713604 171.627697 
L 338.65324 156.017171 
L 346.07707 156.017171 
L 355.016706 171.627697 
L 348.762065 171.627697 
L 347.241085 168.783945 
z
M 339.061939 165.886664 
L 345.673545 165.886664 
L 342.372915 159.677247 
L 339.061939 165.886664 
z
" clip-path="url(#p66df1a4786)" style="fill: #008000"/>
   </g>
   <g id="patch_42">
    <path d="M 355.016706 145.489423 
Q 352.464847 150.753297 349.720181 153.397252 
Q 346.975514 156.017171 344.049382 156.017171 
Q 337.437231 156.017171 333.575418 140.345729 
Q 329.713604 124.674288 329.713604 97.874199 
Q 329.713604 70.761644 333.643467 55.210382 
Q 337.579001 39.65912 344.423655 39.65912 
Q 347.060576 39.65912 349.476336 41.774284 
Q 351.897767 43.865412 354.041329 47.999596 
L 354.041329 71.194291 
Q 351.829718 65.882345 349.64079 63.262426 
Q 347.451861 60.618471 345.251592 60.618471 
Q 341.179958 60.618471 338.974018 70.280925 
Q 336.768077 79.919342 336.768077 97.874199 
Q 336.768077 115.660805 338.894626 125.37133 
Q 341.021176 135.057819 344.934027 135.057819 
Q 346.000137 135.057819 346.913135 134.504993 
Q 347.826134 133.92813 348.551996 132.726332 
L 348.551996 110.949758 
L 344.383959 110.949758 
L 344.383959 91.552744 
L 355.016706 91.552744 
L 355.016706 145.489423 
z
" clip-path="url(#p66df1a4786)" style="fill: #ffa600"/>
   </g>
   <g id="patch_43">
    <path d="M 356.348449 184.478917 
L 381.651551 184.478917 
L 381.651551 185.992545 
L 372.548319 185.992545 
L 372.548319 192.24 
L 365.469335 192.24 
L 365.469335 185.992545 
L 356.348449 185.992545 
L 356.348449 184.478917 
z
" clip-path="url(#p66df1a4786)" style="fill: #ff0000"/>
   </g>
   <g id="patch_44">
    <path d="M 381.651551 183.483123 
Q 379.53499 183.976716 377.2463 184.226382 
Q 374.957609 184.478917 372.464912 184.478917 
Q 365.031448 184.478917 360.689949 182.607857 
Q 356.348449 180.736796 356.348449 177.537053 
Q 356.348449 174.325831 360.689949 172.45764 
Q 365.031448 170.58658 372.464912 170.58658 
Q 374.957609 170.58658 377.2463 170.839115 
Q 379.53499 171.088781 381.651551 171.582374 
L 381.651551 174.351659 
Q 379.515865 173.697361 377.44393 173.39317 
Q 375.371996 173.08898 373.083305 173.08898 
Q 368.977687 173.08898 366.625244 174.274176 
Q 364.279177 175.456503 364.279177 177.537053 
Q 364.279177 179.608994 366.625244 180.794191 
Q 368.977687 181.976517 373.083305 181.976517 
Q 375.371996 181.976517 377.44393 181.672327 
Q 379.515865 181.365266 381.651551 180.710969 
L 381.651551 183.483123 
z
" clip-path="url(#p66df1a4786)" style="fill: #0000ff"/>
   </g>
   <g id="patch_45">
    <path d="M 381.651551 169.308574 
Q 379.099692 169.947577 376.355026 170.268537 
Q 373.610359 170.58658 370.684227 170.58658 
Q 364.072076 170.58658 360.210262 168.68416 
Q 356.348449 166.781741 356.348449 163.528371 
Q 356.348449 160.237069 360.278312 158.349239 
Q 364.213846 156.461409 371.0585 156.461409 
Q 373.695421 156.461409 376.111181 156.718177 
Q 378.532612 156.972028 380.676174 157.473893 
L 380.676174 160.28959 
Q 378.464563 159.644752 376.275634 159.326709 
Q 374.086706 159.005749 371.886436 159.005749 
Q 367.814803 159.005749 365.608863 160.178713 
Q 363.402922 161.348759 363.402922 163.528371 
Q 363.402922 165.687558 365.529471 166.866358 
Q 367.656021 168.04224 371.568872 168.04224 
Q 372.634982 168.04224 373.54798 167.97513 
Q 374.460979 167.905102 375.186841 167.759211 
L 375.186841 165.115666 
L 371.018804 165.115666 
L 371.018804 162.760984 
L 381.651551 162.760984 
L 381.651551 169.308574 
z
" clip-path="url(#p66df1a4786)" style="fill: #ffa600"/>
   </g>
   <g id="patch_46">
    <path d="M 373.87593 132.680827 
L 364.144763 132.680827 
L 362.608263 156.461409 
L 356.348449 156.461409 
L 365.288085 25.92 
L 372.711915 25.92 
L 381.651551 156.461409 
L 375.39691 156.461409 
L 373.87593 132.680827 
z
M 365.696784 108.45261 
L 372.30839 108.45261 
L 369.00776 56.527009 
L 365.696784 108.45261 
z
" clip-path="url(#p66df1a4786)" style="fill: #008000"/>
   </g>
   <g id="patch_47">
    <path d="M 408.286396 191.748137 
Q 406.169835 191.991942 403.881145 192.115262 
Q 401.592454 192.24 399.099757 192.24 
Q 391.666293 192.24 387.324793 191.315807 
Q 382.983294 190.391615 382.983294 188.811132 
Q 382.983294 187.224979 387.324793 186.302204 
Q 391.666293 185.378012 399.099757 185.378012 
Q 401.592454 185.378012 403.881145 185.502749 
Q 406.169835 185.62607 408.286396 185.869875 
L 408.286396 187.237737 
Q 406.15071 186.914553 404.078775 186.764301 
Q 402.006841 186.614048 399.71815 186.614048 
Q 395.612532 186.614048 393.260089 187.199465 
Q 390.914022 187.783464 390.914022 188.811132 
Q 390.914022 189.834548 393.260089 190.419964 
Q 395.612532 191.003963 399.71815 191.003963 
Q 402.006841 191.003963 404.078775 190.853711 
Q 406.15071 190.702041 408.286396 190.378858 
L 408.286396 191.748137 
z
" clip-path="url(#p66df1a4786)" style="fill: #0000ff"/>
   </g>
   <g id="patch_48">
    <path d="M 408.286396 184.267011 
Q 405.734537 184.822511 402.98987 185.10153 
Q 400.245204 185.378012 397.319072 185.378012 
Q 390.706921 185.378012 386.845107 183.724193 
Q 382.983294 182.070375 382.983294 179.242143 
Q 382.983294 176.380936 386.913157 174.7398 
Q 390.848691 173.098664 397.693345 173.098664 
Q 400.330266 173.098664 402.746026 173.321879 
Q 405.167457 173.542557 407.311019 173.97884 
L 407.311019 176.426593 
Q 405.099407 175.86602 402.910479 175.589538 
Q 400.721551 175.310519 398.521281 175.310519 
Q 394.449648 175.310519 392.243707 176.330205 
Q 390.037767 177.347354 390.037767 179.242143 
Q 390.037767 181.119176 392.164316 182.143934 
Q 394.290866 183.166156 398.203717 183.166156 
Q 399.269827 183.166156 400.182825 183.107816 
Q 401.095824 183.04694 401.821686 182.920113 
L 401.821686 180.622016 
L 397.653649 180.622016 
L 397.653649 178.575035 
L 408.286396 178.575035 
L 408.286396 184.267011 
z
" clip-path="url(#p66df1a4786)" style="fill: #ffa600"/>
   </g>
   <g id="patch_49">
    <path d="M 382.983294 158.381505 
L 408.286396 158.381505 
L 408.286396 161.251761 
L 399.183164 161.251761 
L 399.183164 173.098664 
L 392.104179 173.098664 
L 392.104179 161.251761 
L 382.983294 161.251761 
L 382.983294 158.381505 
z
" clip-path="url(#p66df1a4786)" style="fill: #ff0000"/>
   </g>
   <g id="patch_50">
    <path d="M 400.510775 146.92554 
L 390.779608 146.92554 
L 389.243108 158.381505 
L 382.983294 158.381505 
L 391.92293 95.494994 
L 399.34676 95.494994 
L 408.286396 158.381505 
L 402.031755 158.381505 
L 400.510775 146.92554 
z
M 392.331629 135.253932 
L 398.943235 135.253932 
L 395.642605 110.239495 
L 392.331629 135.253932 
z
" clip-path="url(#p66df1a4786)" style="fill: #008000"/>
   </g>
   <g id="patch_51">
    <path d="M 409.618138 183.875368 
L 434.921241 183.875368 
L 434.921241 185.506704 
L 425.818009 185.506704 
L 425.818009 192.24 
L 418.739024 192.24 
L 418.739024 185.506704 
L 409.618138 185.506704 
L 409.618138 183.875368 
z
" clip-path="url(#p66df1a4786)" style="fill: #ff0000"/>
   </g>
   <g id="patch_52">
    <path d="M 427.14562 181.557769 
L 417.414453 181.557769 
L 415.877953 183.875368 
L 409.618138 183.875368 
L 418.557775 171.153113 
L 425.981605 171.153113 
L 434.921241 183.875368 
L 428.6666 183.875368 
L 427.14562 181.557769 
z
M 418.966473 179.196545 
L 425.578079 179.196545 
L 422.27745 174.135999 
L 418.966473 179.196545 
z
" clip-path="url(#p66df1a4786)" style="fill: #008000"/>
   </g>
   <g id="patch_53">
    <path d="M 434.921241 170.187336 
Q 432.80468 170.66605 430.515989 170.90819 
Q 428.227299 171.153113 425.734602 171.153113 
Q 418.301138 171.153113 413.959638 169.338454 
Q 409.618138 167.523794 409.618138 164.420504 
Q 409.618138 161.30608 413.959638 159.494204 
Q 418.301138 157.679544 425.734602 157.679544 
Q 428.227299 157.679544 430.515989 157.924468 
Q 432.80468 158.166608 434.921241 158.645322 
L 434.921241 161.331129 
Q 432.785555 160.696555 430.71362 160.401534 
Q 428.641685 160.106512 426.352995 160.106512 
Q 422.247377 160.106512 419.894934 161.255982 
Q 417.548866 162.402669 417.548866 164.420504 
Q 417.548866 166.429988 419.894934 167.579458 
Q 422.247377 168.726145 426.352995 168.726145 
Q 428.641685 168.726145 430.71362 168.431124 
Q 432.785555 168.133319 434.921241 167.498745 
L 434.921241 170.187336 
z
" clip-path="url(#p66df1a4786)" style="fill: #0000ff"/>
   </g>
   <g id="patch_54">
    <path d="M 434.921241 151.094859 
Q 432.369382 154.387202 429.624715 156.04089 
Q 426.880049 157.679544 423.953917 157.679544 
Q 417.341766 157.679544 413.479952 147.877684 
Q 409.618138 138.075824 409.618138 121.313441 
Q 409.618138 104.355621 413.548002 94.628929 
Q 417.483536 84.902236 424.32819 84.902236 
Q 426.965111 84.902236 429.380871 86.225187 
Q 431.802302 87.533104 433.945864 90.118871 
L 433.945864 104.626225 
Q 431.734252 101.303815 429.545324 99.665161 
Q 427.356396 98.011473 425.156126 98.011473 
Q 421.084493 98.011473 418.878552 104.054951 
Q 416.672612 110.083395 416.672612 121.313441 
Q 416.672612 132.438251 418.799161 138.511796 
Q 420.925711 144.570308 424.838561 144.570308 
Q 425.904672 144.570308 426.81767 144.224537 
Q 427.730669 143.863732 428.456531 143.112056 
L 428.456531 129.49168 
L 424.288494 129.49168 
L 424.288494 117.359623 
L 434.921241 117.359623 
L 434.921241 151.094859 
z
" clip-path="url(#p66df1a4786)" style="fill: #ffa600"/>
   </g>
   <g id="patch_55">
    <path d="M 436.252983 185.523844 
L 461.556086 185.523844 
L 461.556086 186.833682 
L 452.452853 186.833682 
L 452.452853 192.24 
L 445.373869 192.24 
L 445.373869 186.833682 
L 436.252983 186.833682 
L 436.252983 185.523844 
z
" clip-path="url(#p66df1a4786)" style="fill: #ff0000"/>
   </g>
   <g id="patch_56">
    <path d="M 461.556086 184.20393 
Q 459.004227 184.863887 456.25956 185.195372 
Q 453.514894 185.523844 450.588762 185.523844 
Q 443.976611 185.523844 440.114797 183.55904 
Q 436.252983 181.594236 436.252983 178.234179 
Q 436.252983 174.834947 440.182847 172.88521 
Q 444.118381 170.935474 450.963034 170.935474 
Q 453.599956 170.935474 456.015716 171.200662 
Q 458.437147 171.462837 460.580709 171.981159 
L 460.580709 174.88919 
Q 458.369097 174.223206 456.180169 173.894734 
Q 453.991241 173.563249 451.790971 173.563249 
Q 447.719338 173.563249 445.513397 174.774677 
Q 443.307457 175.983092 443.307457 178.234179 
Q 443.307457 180.464172 445.434006 181.681627 
Q 447.560555 182.896069 451.473406 182.896069 
Q 452.539516 182.896069 453.452515 182.826759 
Q 454.365514 182.754435 455.091376 182.603759 
L 455.091376 179.873525 
L 450.923339 179.873525 
L 450.923339 177.441628 
L 461.556086 177.441628 
L 461.556086 184.20393 
z
" clip-path="url(#p66df1a4786)" style="fill: #ffa600"/>
   </g>
   <g id="patch_57">
    <path d="M 461.556086 169.87795 
Q 459.439525 170.40214 457.150834 170.667283 
Q 454.862143 170.935474 452.369447 170.935474 
Q 444.935983 170.935474 440.594483 168.948426 
Q 436.252983 166.961379 436.252983 163.563284 
Q 436.252983 160.152999 440.594483 158.168999 
Q 444.935983 156.181951 452.369447 156.181951 
Q 454.862143 156.181951 457.150834 156.450142 
Q 459.439525 156.715285 461.556086 157.239475 
L 461.556086 160.180427 
Q 459.4204 159.48557 457.348465 159.162523 
Q 455.27653 158.839475 452.98784 158.839475 
Q 448.882221 158.839475 446.529779 160.098141 
Q 444.183711 161.35376 444.183711 163.563284 
Q 444.183711 165.763665 446.529779 167.022331 
Q 448.882221 168.27795 452.98784 168.27795 
Q 455.27653 168.27795 457.348465 167.954902 
Q 459.4204 167.628807 461.556086 166.93395 
L 461.556086 169.87795 
z
" clip-path="url(#p66df1a4786)" style="fill: #0000ff"/>
   </g>
   <g id="patch_58">
    <path d="M 453.780465 141.259573 
L 444.049298 141.259573 
L 442.512798 156.181951 
L 436.252983 156.181951 
L 445.19262 74.266873 
L 452.61645 74.266873 
L 461.556086 156.181951 
L 455.301445 156.181951 
L 453.780465 141.259573 
z
M 445.601318 126.056303 
L 452.212924 126.056303 
L 448.912295 93.472852 
L 445.601318 126.056303 
z
" clip-path="url(#p66df1a4786)" style="fill: #008000"/>
   </g>
   <g id="patch_59">
    <path d="M 488.190931 191.931861 
Q 486.07437 192.084598 483.785679 192.161855 
Q 481.496988 192.24 479.004292 192.24 
Q 471.570828 192.24 467.229328 191.661018 
Q 462.887828 191.082035 462.887828 190.091905 
Q 462.887828 189.098222 467.229328 188.520128 
Q 471.570828 187.941145 479.004292 187.941145 
Q 481.496988 187.941145 483.785679 188.01929 
Q 486.07437 188.096547 488.190931 188.249285 
L 488.190931 189.106214 
Q 486.055244 188.903748 483.98331 188.809619 
Q 481.911375 188.71549 479.622684 188.71549 
Q 475.517066 188.71549 473.164624 189.082238 
Q 470.818556 189.448098 470.818556 190.091905 
Q 470.818556 190.733048 473.164624 191.099796 
Q 475.517066 191.465656 479.622684 191.465656 
Q 481.911375 191.465656 483.98331 191.371527 
Q 486.055244 191.27651 488.190931 191.074043 
L 488.190931 191.931861 
z
" clip-path="url(#p66df1a4786)" style="fill: #0000ff"/>
   </g>
   <g id="patch_60">
    <path d="M 488.190931 187.340958 
Q 485.639071 187.641052 482.894405 187.791784 
Q 480.149739 187.941145 477.223607 187.941145 
Q 470.611456 187.941145 466.749642 187.047716 
Q 462.887828 186.154286 462.887828 184.626412 
Q 462.887828 183.080724 466.817691 182.194146 
Q 470.753226 181.307568 477.597879 181.307568 
Q 480.234801 181.307568 482.650561 181.428154 
Q 485.071992 181.547369 487.215553 181.783059 
L 487.215553 183.105389 
Q 485.003942 182.802555 482.815014 182.653193 
Q 480.626086 182.502461 478.425816 182.502461 
Q 474.354183 182.502461 472.148242 183.053318 
Q 469.942301 183.602805 469.942301 184.626412 
Q 469.942301 185.640427 472.068851 186.194025 
Q 474.1954 186.746252 478.108251 186.746252 
Q 479.174361 186.746252 480.08736 186.714735 
Q 481.000358 186.681848 481.726221 186.613334 
L 481.726221 185.37185 
L 477.558184 185.37185 
L 477.558184 184.266026 
L 488.190931 184.266026 
L 488.190931 187.340958 
z
" clip-path="url(#p66df1a4786)" style="fill: #ffa600"/>
   </g>
   <g id="patch_61">
    <path d="M 462.887828 171.709263 
L 488.190931 171.709263 
L 488.190931 173.5812 
L 479.087698 173.5812 
L 479.087698 181.307568 
L 472.008714 181.307568 
L 472.008714 173.5812 
L 462.887828 173.5812 
L 462.887828 171.709263 
z
" clip-path="url(#p66df1a4786)" style="fill: #ff0000"/>
   </g>
   <g id="patch_62">
    <path d="M 480.41531 168.215614 
L 470.684143 168.215614 
L 469.147643 171.709263 
L 462.887828 171.709263 
L 471.827465 152.531183 
L 479.251294 152.531183 
L 488.190931 171.709263 
L 481.936289 171.709263 
L 480.41531 168.215614 
z
M 472.236163 164.656202 
L 478.847769 164.656202 
L 475.54714 157.027715 
L 472.236163 164.656202 
z
" clip-path="url(#p66df1a4786)" style="fill: #008000"/>
   </g>
   <g id="patch_63">
    <path d="M 489.522673 182.623782 
L 514.825776 182.623782 
L 514.825776 184.499213 
L 505.722543 184.499213 
L 505.722543 192.24 
L 498.643559 192.24 
L 498.643559 184.499213 
L 489.522673 184.499213 
L 489.522673 182.623782 
z
" clip-path="url(#p66df1a4786)" style="fill: #ff0000"/>
   </g>
   <g id="patch_64">
    <path d="M 507.050154 180.684317 
L 497.318988 180.684317 
L 495.782488 182.623782 
L 489.522673 182.623782 
L 498.462309 171.977256 
L 505.886139 171.977256 
L 514.825776 182.623782 
L 508.571134 182.623782 
L 507.050154 180.684317 
z
M 498.871008 178.708343 
L 505.482614 178.708343 
L 502.181984 174.473462 
L 498.871008 178.708343 
z
" clip-path="url(#p66df1a4786)" style="fill: #008000"/>
   </g>
   <g id="patch_65">
    <path d="M 514.825776 171.106418 
Q 512.709215 171.538073 510.420524 171.756409 
Q 508.131833 171.977256 505.639136 171.977256 
Q 498.205673 171.977256 493.864173 170.340985 
Q 489.522673 168.704714 489.522673 165.90649 
Q 489.522673 163.098227 493.864173 161.464466 
Q 498.205673 159.828195 505.639136 159.828195 
Q 508.131833 159.828195 510.420524 160.049042 
Q 512.709215 160.267378 514.825776 160.699033 
L 514.825776 163.120814 
Q 512.690089 162.548621 510.618155 162.282602 
Q 508.54622 162.016582 506.257529 162.016582 
Q 502.151911 162.016582 499.799469 163.053054 
Q 497.453401 164.087017 497.453401 165.90649 
Q 497.453401 167.718434 499.799469 168.754906 
Q 502.151911 169.788869 506.257529 169.788869 
Q 508.54622 169.788869 510.618155 169.522849 
Q 512.690089 169.25432 514.825776 168.682127 
L 514.825776 171.106418 
z
" clip-path="url(#p66df1a4786)" style="fill: #0000ff"/>
   </g>
   <g id="patch_66">
    <path d="M 514.825776 154.437004 
Q 512.273916 157.132599 509.52925 158.486552 
Q 506.784583 159.828195 503.858451 159.828195 
Q 497.246301 159.828195 493.384487 151.802951 
Q 489.522673 143.777707 489.522673 130.053555 
Q 489.522673 116.169391 493.452536 108.20569 
Q 497.38807 100.24199 504.232724 100.24199 
Q 506.869645 100.24199 509.285406 101.325151 
Q 511.706837 102.396005 513.850398 104.513093 
L 513.850398 116.390947 
Q 511.638787 113.670734 509.449859 112.32909 
Q 507.260931 110.975138 505.060661 110.975138 
Q 500.989027 110.975138 498.783087 115.923218 
Q 496.577146 120.858989 496.577146 130.053555 
Q 496.577146 139.161961 498.703696 144.134658 
Q 500.830245 149.095047 504.743096 149.095047 
Q 505.809206 149.095047 506.722205 148.811948 
Q 507.635203 148.51654 508.361065 147.901107 
L 508.361065 136.749464 
L 504.193029 136.749464 
L 504.193029 126.816379 
L 514.825776 126.816379 
L 514.825776 154.437004 
z
" clip-path="url(#p66df1a4786)" style="fill: #ffa600"/>
   </g>
   <g id="patch_67">
    <path d="M 516.157518 184.31966 
L 541.460621 184.31966 
L 541.460621 185.864347 
L 532.357388 185.864347 
L 532.357388 192.24 
L 525.278404 192.24 
L 525.278404 185.864347 
L 516.157518 185.864347 
L 516.157518 184.31966 
z
" clip-path="url(#p66df1a4786)" style="fill: #ff0000"/>
   </g>
   <g id="patch_68">
    <path d="M 541.460621 183.449953 
Q 539.34406 183.881047 537.055369 184.0991 
Q 534.766678 184.31966 532.273981 184.31966 
Q 524.840518 184.31966 520.499018 182.685513 
Q 516.157518 181.051367 516.157518 178.256776 
Q 516.157518 175.452159 520.499018 173.820519 
Q 524.840518 172.186372 532.273981 172.186372 
Q 534.766678 172.186372 537.055369 172.406932 
Q 539.34406 172.624985 541.460621 173.056079 
L 541.460621 175.474716 
Q 539.324934 174.903266 537.253 174.637592 
Q 535.181065 174.371918 532.892374 174.371918 
Q 528.786756 174.371918 526.434313 175.407045 
Q 524.088246 176.439665 524.088246 178.256776 
Q 524.088246 180.066367 526.434313 181.101494 
Q 528.786756 182.134114 532.892374 182.134114 
Q 535.181065 182.134114 537.253 181.86844 
Q 539.324934 181.600259 541.460621 181.028809 
L 541.460621 183.449953 
z
" clip-path="url(#p66df1a4786)" style="fill: #0000ff"/>
   </g>
   <g id="patch_69">
    <path d="M 541.460621 170.753152 
Q 538.908761 171.469762 536.164095 171.829703 
Q 533.419428 172.186372 530.493296 172.186372 
Q 523.881145 172.186372 520.019332 170.052903 
Q 516.157518 167.919434 516.157518 164.27094 
Q 516.157518 160.579908 520.087381 158.4628 
Q 524.022915 156.345692 530.867569 156.345692 
Q 533.50449 156.345692 535.92025 156.633645 
Q 538.341681 156.918325 540.485243 157.481142 
L 540.485243 160.638807 
Q 538.273632 159.915653 536.084704 159.558984 
Q 533.895775 159.199043 531.695506 159.199043 
Q 527.623872 159.199043 525.417932 160.514464 
Q 523.211991 161.826613 523.211991 164.27094 
Q 523.211991 166.692362 525.338541 168.014328 
Q 527.46509 169.333021 531.377941 169.333021 
Q 532.444051 169.333021 533.35705 169.257761 
Q 534.270048 169.179228 534.99591 169.015618 
L 534.99591 166.051013 
L 530.827873 166.051013 
L 530.827873 163.410354 
L 541.460621 163.410354 
L 541.460621 170.753152 
z
" clip-path="url(#p66df1a4786)" style="fill: #ffa600"/>
   </g>
   <g id="patch_70">
    <path d="M 533.684999 140.955403 
L 523.953833 140.955403 
L 522.417333 156.345692 
L 516.157518 156.345692 
L 525.097154 71.862061 
L 532.520984 71.862061 
L 541.460621 156.345692 
L 535.205979 156.345692 
L 533.684999 140.955403 
z
M 525.505853 125.275415 
L 532.117459 125.275415 
L 528.816829 91.670268 
L 525.505853 125.275415 
z
" clip-path="url(#p66df1a4786)" style="fill: #008000"/>
   </g>
   <g id="patch_71">
    <path d="M 568.095465 191.882934 
Q 565.978905 192.059923 563.690214 192.149447 
Q 561.401523 192.24 558.908826 192.24 
Q 551.475362 192.24 547.133863 191.569085 
Q 542.792363 190.898171 542.792363 189.750825 
Q 542.792363 188.599362 547.133863 187.929477 
Q 551.475362 187.258562 558.908826 187.258562 
Q 561.401523 187.258562 563.690214 187.349115 
Q 565.978905 187.438639 568.095465 187.615629 
L 568.095465 188.608623 
Q 565.959779 188.374009 563.887844 188.264934 
Q 561.81591 188.155859 559.527219 188.155859 
Q 555.421601 188.155859 553.069158 188.58084 
Q 550.723091 189.004792 550.723091 189.750825 
Q 550.723091 190.49377 553.069158 190.918751 
Q 555.421601 191.342703 559.527219 191.342703 
Q 561.81591 191.342703 563.887844 191.233628 
Q 565.959779 191.123524 568.095465 190.88891 
L 568.095465 191.882934 
z
" clip-path="url(#p66df1a4786)" style="fill: #0000ff"/>
   </g>
   <g id="patch_72">
    <path d="M 542.792363 181.353924 
L 568.095465 181.353924 
L 568.095465 182.505493 
L 558.992233 182.505493 
L 558.992233 187.258562 
L 551.913249 187.258562 
L 551.913249 182.505493 
L 542.792363 182.505493 
L 542.792363 181.353924 
z
" clip-path="url(#p66df1a4786)" style="fill: #ff0000"/>
   </g>
   <g id="patch_73">
    <path d="M 568.095465 180.435109 
Q 565.543606 180.894516 562.79894 181.125269 
Q 560.054273 181.353924 557.128141 181.353924 
Q 550.51599 181.353924 546.654177 179.98619 
Q 542.792363 178.618457 542.792363 176.279466 
Q 542.792363 173.913203 546.722226 172.555959 
Q 550.65776 171.198714 557.502414 171.198714 
Q 560.139335 171.198714 562.555095 171.383316 
Q 564.976526 171.565821 567.120088 171.926634 
L 567.120088 173.950963 
Q 564.908477 173.48736 562.719548 173.258705 
Q 560.53062 173.027953 558.33035 173.027953 
Q 554.258717 173.027953 552.052777 173.871248 
Q 549.846836 174.712446 549.846836 176.279466 
Q 549.846836 177.831801 551.973385 178.679292 
Q 554.099935 179.524685 558.012786 179.524685 
Q 559.078896 179.524685 559.991894 179.476437 
Q 560.904893 179.426091 561.630755 179.321204 
L 561.630755 177.420642 
L 557.462718 177.420642 
L 557.462718 175.727757 
L 568.095465 175.727757 
L 568.095465 180.435109 
z
" clip-path="url(#p66df1a4786)" style="fill: #ffa600"/>
   </g>
   <g id="patch_74">
    <path d="M 560.319844 167.523314 
L 550.588678 167.523314 
L 549.052178 171.198714 
L 542.792363 171.198714 
L 551.731999 151.02293 
L 559.155829 151.02293 
L 568.095465 171.198714 
L 561.840824 171.198714 
L 560.319844 167.523314 
z
M 552.140698 163.77873 
L 558.752304 163.77873 
L 555.451674 155.753386 
L 552.140698 163.77873 
z
" clip-path="url(#p66df1a4786)" style="fill: #008000"/>
   </g>
   <g id="patch_75">
    <path d="M 594.73031 191.966745 
Q 592.613749 192.102191 590.325059 192.170702 
Q 588.036368 192.24 585.543671 192.24 
Q 578.110207 192.24 573.768707 191.726564 
Q 569.427208 191.213128 569.427208 190.335089 
Q 569.427208 189.4539 573.768707 188.941252 
Q 578.110207 188.427816 585.543671 188.427816 
Q 588.036368 188.427816 590.325059 188.497114 
Q 592.613749 188.565625 594.73031 188.701071 
L 594.73031 189.460988 
Q 592.594624 189.281443 590.522689 189.19797 
Q 588.450755 189.114497 586.162064 189.114497 
Q 582.056446 189.114497 579.704003 189.439726 
Q 577.357936 189.764167 577.357936 190.335089 
Q 577.357936 190.903649 579.704003 191.228877 
Q 582.056446 191.553319 586.162064 191.553319 
Q 588.450755 191.553319 590.522689 191.469846 
Q 592.594624 191.385586 594.73031 191.206041 
L 594.73031 191.966745 
z
" clip-path="url(#p66df1a4786)" style="fill: #0000ff"/>
   </g>
   <g id="patch_76">
    <path d="M 569.427208 182.850547 
L 594.73031 182.850547 
L 594.73031 183.93827 
L 585.627078 183.93827 
L 585.627078 188.427816 
L 578.548093 188.427816 
L 578.548093 183.93827 
L 569.427208 183.93827 
L 569.427208 182.850547 
z
" clip-path="url(#p66df1a4786)" style="fill: #ff0000"/>
   </g>
   <g id="patch_77">
    <path d="M 594.73031 182.297902 
Q 592.178451 182.574224 589.433785 182.713017 
Q 586.689118 182.850547 583.762986 182.850547 
Q 577.150835 182.850547 573.289021 182.027888 
Q 569.427208 181.205228 569.427208 179.798379 
Q 569.427208 178.375128 573.357071 177.558777 
Q 577.292605 176.742426 584.137259 176.742426 
Q 586.77418 176.742426 589.18994 176.85346 
Q 591.611371 176.963232 593.754933 177.180253 
L 593.754933 178.397839 
Q 591.543322 178.118993 589.354393 177.981462 
Q 587.165465 177.84267 584.965195 177.84267 
Q 580.893562 177.84267 578.687621 178.349893 
Q 576.481681 178.855854 576.481681 179.798379 
Q 576.481681 180.732073 578.60823 181.241819 
Q 580.73478 181.750303 584.647631 181.750303 
Q 585.713741 181.750303 586.626739 181.721283 
Q 587.539738 181.691001 588.2656 181.627914 
L 588.2656 180.48477 
L 584.097563 180.48477 
L 584.097563 179.46654 
L 594.73031 179.46654 
L 594.73031 182.297902 
z
" clip-path="url(#p66df1a4786)" style="fill: #ffa600"/>
   </g>
   <g id="patch_78">
    <path d="M 586.954689 174.384642 
L 577.223522 174.384642 
L 575.687022 176.742426 
L 569.427208 176.742426 
L 578.366844 163.79958 
L 585.790674 163.79958 
L 594.73031 176.742426 
L 588.475669 176.742426 
L 586.954689 174.384642 
z
M 578.775543 171.982477 
L 585.387149 171.982477 
L 582.086519 166.834186 
L 578.775543 171.982477 
z
" clip-path="url(#p66df1a4786)" style="fill: #008000"/>
   </g>
   <g id="patch_79">
    <path d="M 613.589534 191.583357 
L 603.858367 191.583357 
L 602.321867 192.24 
L 596.062053 192.24 
L 605.001689 188.635415 
L 612.425519 188.635415 
L 621.365155 192.24 
L 615.110514 192.24 
L 613.589534 191.583357 
z
M 605.410387 190.914353 
L 612.021994 190.914353 
L 608.721364 189.480554 
L 605.410387 190.914353 
z
" clip-path="url(#p66df1a4786)" style="fill: #008000"/>
   </g>
   <g id="patch_80">
    <path d="M 596.062053 183.6449 
L 621.365155 183.6449 
L 621.365155 184.618189 
L 612.261923 184.618189 
L 612.261923 188.635415 
L 605.182938 188.635415 
L 605.182938 184.618189 
L 596.062053 184.618189 
L 596.062053 183.6449 
z
" clip-path="url(#p66df1a4786)" style="fill: #ff0000"/>
   </g>
   <g id="patch_81">
    <path d="M 621.365155 183.265478 
Q 619.248594 183.453549 616.959903 183.548678 
Q 614.671213 183.6449 612.178516 183.6449 
Q 604.745052 183.6449 600.403552 182.93198 
Q 596.062053 182.219059 596.062053 180.999878 
Q 596.062053 179.776323 600.403552 179.064496 
Q 604.745052 178.351576 612.178516 178.351576 
Q 614.671213 178.351576 616.959903 178.447799 
Q 619.248594 178.542927 621.365155 178.730998 
L 621.365155 179.786164 
Q 619.229469 179.536861 617.157534 179.420957 
Q 615.0856 179.305052 612.796909 179.305052 
Q 608.691291 179.305052 606.338848 179.756641 
Q 603.992781 180.207137 603.992781 180.999878 
Q 603.992781 181.789339 606.338848 182.240928 
Q 608.691291 182.691424 612.796909 182.691424 
Q 615.0856 182.691424 617.157534 182.57552 
Q 619.229469 182.458522 621.365155 182.209218 
L 621.365155 183.265478 
z
" clip-path="url(#p66df1a4786)" style="fill: #0000ff"/>
   </g>
   <g id="patch_82">
    <path d="M 621.365155 177.349996 
Q 618.813296 177.850786 616.068629 178.102324 
Q 613.323963 178.351576 610.397831 178.351576 
Q 603.78568 178.351576 599.923866 176.860639 
Q 596.062053 175.369703 596.062053 172.820018 
Q 596.062053 170.240606 599.991916 168.761103 
Q 603.92745 167.2816 610.772104 167.2816 
Q 613.409025 167.2816 615.824785 167.48283 
Q 618.246216 167.681774 620.389778 168.075089 
L 620.389778 170.281767 
Q 618.178166 169.776403 615.989238 169.527152 
Q 613.80031 169.275613 611.60004 169.275613 
Q 607.528407 169.275613 605.322466 170.194872 
Q 603.116526 171.111844 603.116526 172.820018 
Q 603.116526 174.512185 605.243075 175.436017 
Q 607.369625 176.357563 611.282476 176.357563 
Q 612.348586 176.357563 613.261584 176.304968 
Q 614.174583 176.250087 614.900445 176.135751 
L 614.900445 174.06399 
L 610.732408 174.06399 
L 610.732408 172.218613 
L 621.365155 172.218613 
L 621.365155 177.349996 
z
" clip-path="url(#p66df1a4786)" style="fill: #ffa600"/>
   </g>
   <g id="patch_83">
    <path d="M 648 192.184882 
Q 645.448141 192.212441 642.703474 192.226283 
Q 639.958808 192.24 637.032676 192.24 
Q 630.420525 192.24 626.558711 192.157952 
Q 622.696897 192.075905 622.696897 191.935593 
Q 622.696897 191.793646 626.626761 191.712227 
Q 630.562295 191.630809 637.406949 191.630809 
Q 640.04387 191.630809 642.45963 191.641883 
Q 644.881061 191.652831 647.024623 191.674475 
L 647.024623 191.795911 
Q 644.813011 191.7681 642.624083 191.754384 
Q 640.435155 191.740541 638.234885 191.740541 
Q 634.163252 191.740541 631.957311 191.791129 
Q 629.751371 191.841591 629.751371 191.935593 
Q 629.751371 192.028715 631.87792 192.079554 
Q 634.004469 192.130268 637.91732 192.130268 
Q 638.98343 192.130268 639.896429 192.127373 
Q 640.809428 192.124353 641.53529 192.118061 
L 641.53529 192.00405 
L 637.367253 192.00405 
L 637.367253 191.902497 
L 648 191.902497 
L 648 192.184882 
z
" clip-path="url(#p66df1a4786)" style="fill: #ffa600"/>
   </g>
   <g id="patch_84">
    <path d="M 648 191.586077 
Q 645.883439 191.608249 643.594748 191.619465 
Q 641.306058 191.630809 638.813361 191.630809 
Q 631.379897 191.630809 627.038397 191.546759 
Q 622.696897 191.462709 622.696897 191.318973 
Q 622.696897 191.174722 627.038397 191.090801 
Q 631.379897 191.006751 638.813361 191.006751 
Q 641.306058 191.006751 643.594748 191.018095 
Q 645.883439 191.029311 648 191.051483 
L 648 191.175882 
Q 645.864314 191.146491 643.792379 191.132826 
Q 641.720444 191.119161 639.431754 191.119161 
Q 635.326136 191.119161 632.973693 191.172402 
Q 630.627625 191.225513 630.627625 191.318973 
Q 630.627625 191.412047 632.973693 191.465287 
Q 635.326136 191.518399 639.431754 191.518399 
Q 641.720444 191.518399 643.792379 191.504734 
Q 645.864314 191.490941 648 191.461549 
L 648 191.586077 
z
" clip-path="url(#p66df1a4786)" style="fill: #0000ff"/>
   </g>
   <g id="patch_85">
    <path d="M 640.224379 190.855398 
L 630.493212 190.855398 
L 628.956712 191.006751 
L 622.696897 191.006751 
L 631.636534 190.175913 
L 639.060364 190.175913 
L 648 191.006751 
L 641.745359 191.006751 
L 640.224379 190.855398 
z
M 632.045232 190.701196 
L 638.656838 190.701196 
L 635.356209 190.370713 
L 632.045232 190.701196 
z
" clip-path="url(#p66df1a4786)" style="fill: #008000"/>
   </g>
   <g id="patch_86">
    <path d="M 622.696897 189.343723 
L 648 189.343723 
L 648 189.506024 
L 638.896767 189.506024 
L 638.896767 190.175913 
L 631.817783 190.175913 
L 631.817783 189.506024 
L 622.696897 189.506024 
L 622.696897 189.343723 
z
" clip-path="url(#p66df1a4786)" style="fill: #ff0000"/>
   </g>
   <g id="matplotlib.axis_1">
    <g id="xtick_1">
     <g id="line2d_2">
      <defs>
       <path id="mc3665450ba" d="M 0 0 
L 0 3.5 
" style="stroke: #000000; stroke-width: 0.8"/>
      </defs>
      <g>
       <use xlink:href="#mc3665450ba" x="102.651551" y="192.24" style="stroke: #000000; stroke-width: 0.8"/>
      </g>
     </g>
     <g id="text_1">
      <!-- 0.0 -->
      <g transform="translate(94.699989 206.838437) scale(0.1 -0.1)">
       <defs>
        <path id="DejaVuSans-30" d="M 2034 4250 
Q 1547 4250 1301 3770 
Q 1056 3291 1056 2328 
Q 1056 1369 1301 889 
Q 1547 409 2034 409 
Q 2525 409 2770 889 
Q 3016 1369 3016 2328 
Q 3016 3291 2770 3770 
Q 2525 4250 2034 4250 
z
M 2034 4750 
Q 2819 4750 3233 4129 
Q 3647 3509 3647 2328 
Q 3647 1150 3233 529 
Q 2819 -91 2034 -91 
Q 1250 -91 836 529 
Q 422 1150 422 2328 
Q 422 3509 836 4129 
Q 1250 4750 2034 4750 
z
" transform="scale(0.015625)"/>
        <path id="DejaVuSans-2e" d="M 684 794 
L 1344 794 
L 1344 0 
L 684 0 
L 684 794 
z
" transform="scale(0.015625)"/>
       </defs>
       <use xlink:href="#DejaVuSans-30"/>
       <use xlink:href="#DejaVuSans-2e" x="63.623047"/>
       <use xlink:href="#DejaVuSans-30" x="95.410156"/>
      </g>
     </g>
    </g>
    <g id="xtick_2">
     <g id="line2d_3">
      <g>
       <use xlink:href="#mc3665450ba" x="169.238663" y="192.24" style="stroke: #000000; stroke-width: 0.8"/>
      </g>
     </g>
     <g id="text_2">
      <!-- 2.5 -->
      <g transform="translate(161.287101 206.838437) scale(0.1 -0.1)">
       <defs>
        <path id="DejaVuSans-32" d="M 1228 531 
L 3431 531 
L 3431 0 
L 469 0 
L 469 531 
Q 828 903 1448 1529 
Q 2069 2156 2228 2338 
Q 2531 2678 2651 2914 
Q 2772 3150 2772 3378 
Q 2772 3750 2511 3984 
Q 2250 4219 1831 4219 
Q 1534 4219 1204 4116 
Q 875 4013 500 3803 
L 500 4441 
Q 881 4594 1212 4672 
Q 1544 4750 1819 4750 
Q 2544 4750 2975 4387 
Q 3406 4025 3406 3419 
Q 3406 3131 3298 2873 
Q 3191 2616 2906 2266 
Q 2828 2175 2409 1742 
Q 1991 1309 1228 531 
z
" transform="scale(0.015625)"/>
        <path id="DejaVuSans-35" d="M 691 4666 
L 3169 4666 
L 3169 4134 
L 1269 4134 
L 1269 2991 
Q 1406 3038 1543 3061 
Q 1681 3084 1819 3084 
Q 2600 3084 3056 2656 
Q 3513 2228 3513 1497 
Q 3513 744 3044 326 
Q 2575 -91 1722 -91 
Q 1428 -91 1123 -41 
Q 819 9 494 109 
L 494 744 
Q 775 591 1075 516 
Q 1375 441 1709 441 
Q 2250 441 2565 725 
Q 2881 1009 2881 1497 
Q 2881 1984 2565 2268 
Q 2250 2553 1709 2553 
Q 1456 2553 1204 2497 
Q 953 2441 691 2322 
L 691 4666 
z
" transform="scale(0.015625)"/>
       </defs>
       <use xlink:href="#DejaVuSans-32"/>
       <use xlink:href="#DejaVuSans-2e" x="63.623047"/>
       <use xlink:href="#DejaVuSans-35" x="95.410156"/>
      </g>
     </g>
    </g>
    <g id="xtick_3">
     <g id="line2d_4">
      <g>
       <use xlink:href="#mc3665450ba" x="235.825776" y="192.24" style="stroke: #000000; stroke-width: 0.8"/>
      </g>
     </g>
     <g id="text_3">
      <!-- 5.0 -->
      <g transform="translate(227.874213 206.838437) scale(0.1 -0.1)">
       <use xlink:href="#DejaVuSans-35"/>
       <use xlink:href="#DejaVuSans-2e" x="63.623047"/>
       <use xlink:href="#DejaVuSans-30" x="95.410156"/>
      </g>
     </g>
    </g>
    <g id="xtick_4">
     <g id="line2d_5">
      <g>
       <use xlink:href="#mc3665450ba" x="302.412888" y="192.24" style="stroke: #000000; stroke-width: 0.8"/>
      </g>
     </g>
     <g id="text_4">
      <!-- 7.5 -->
      <g transform="translate(294.461325 206.838437) scale(0.1 -0.1)">
       <defs>
        <path id="DejaVuSans-37" d="M 525 4666 
L 3525 4666 
L 3525 4397 
L 1831 0 
L 1172 0 
L 2766 4134 
L 525 4134 
L 525 4666 
z
" transform="scale(0.015625)"/>
       </defs>
       <use xlink:href="#DejaVuSans-37"/>
       <use xlink:href="#DejaVuSans-2e" x="63.623047"/>
       <use xlink:href="#DejaVuSans-35" x="95.410156"/>
      </g>
     </g>
    </g>
    <g id="xtick_5">
     <g id="line2d_6">
      <g>
       <use xlink:href="#mc3665450ba" x="369" y="192.24" style="stroke: #000000; stroke-width: 0.8"/>
      </g>
     </g>
     <g id="text_5">
      <!-- 10.0 -->
      <g transform="translate(357.867188 206.838437) scale(0.1 -0.1)">
       <defs>
        <path id="DejaVuSans-31" d="M 794 531 
L 1825 531 
L 1825 4091 
L 703 3866 
L 703 4441 
L 1819 4666 
L 2450 4666 
L 2450 531 
L 3481 531 
L 3481 0 
L 794 0 
L 794 531 
z
" transform="scale(0.015625)"/>
       </defs>
       <use xlink:href="#DejaVuSans-31"/>
       <use xlink:href="#DejaVuSans-30" x="63.623047"/>
       <use xlink:href="#DejaVuSans-2e" x="127.246094"/>
       <use xlink:href="#DejaVuSans-30" x="159.033203"/>
      </g>
     </g>
    </g>
    <g id="xtick_6">
     <g id="line2d_7">
      <g>
       <use xlink:href="#mc3665450ba" x="435.587112" y="192.24" style="stroke: #000000; stroke-width: 0.8"/>
      </g>
     </g>
     <g id="text_6">
      <!-- 12.5 -->
      <g transform="translate(424.4543 206.838437) scale(0.1 -0.1)">
       <use xlink:href="#DejaVuSans-31"/>
       <use xlink:href="#DejaVuSans-32" x="63.623047"/>
       <use xlink:href="#DejaVuSans-2e" x="127.246094"/>
       <use xlink:href="#DejaVuSans-35" x="159.033203"/>
      </g>
     </g>
    </g>
    <g id="xtick_7">
     <g id="line2d_8">
      <g>
       <use xlink:href="#mc3665450ba" x="502.174224" y="192.24" style="stroke: #000000; stroke-width: 0.8"/>
      </g>
     </g>
     <g id="text_7">
      <!-- 15.0 -->
      <g transform="translate(491.041412 206.838437) scale(0.1 -0.1)">
       <use xlink:href="#DejaVuSans-31"/>
       <use xlink:href="#DejaVuSans-35" x="63.623047"/>
       <use xlink:href="#DejaVuSans-2e" x="127.246094"/>
       <use xlink:href="#DejaVuSans-30" x="159.033203"/>
      </g>
     </g>
    </g>
    <g id="xtick_8">
     <g id="line2d_9">
      <g>
       <use xlink:href="#mc3665450ba" x="568.761337" y="192.24" style="stroke: #000000; stroke-width: 0.8"/>
      </g>
     </g>
     <g id="text_8">
      <!-- 17.5 -->
      <g transform="translate(557.628524 206.838437) scale(0.1 -0.1)">
       <use xlink:href="#DejaVuSans-31"/>
       <use xlink:href="#DejaVuSans-37" x="63.623047"/>
       <use xlink:href="#DejaVuSans-2e" x="127.246094"/>
       <use xlink:href="#DejaVuSans-35" x="159.033203"/>
      </g>
     </g>
    </g>
    <g id="xtick_9">
     <g id="line2d_10">
      <g>
       <use xlink:href="#mc3665450ba" x="635.348449" y="192.24" style="stroke: #000000; stroke-width: 0.8"/>
      </g>
     </g>
     <g id="text_9">
      <!-- 20.0 -->
      <g transform="translate(624.215636 206.838437) scale(0.1 -0.1)">
       <use xlink:href="#DejaVuSans-32"/>
       <use xlink:href="#DejaVuSans-30" x="63.623047"/>
       <use xlink:href="#DejaVuSans-2e" x="127.246094"/>
       <use xlink:href="#DejaVuSans-30" x="159.033203"/>
      </g>
     </g>
    </g>
   </g>
   <g id="matplotlib.axis_2">
    <g id="ytick_1">
     <g id="line2d_11">
      <defs>
       <path id="mfda6eb3259" d="M 0 0 
L -3.5 0 
" style="stroke: #000000; stroke-width: 0.8"/>
      </defs>
      <g>
       <use xlink:href="#mfda6eb3259" x="90" y="192.24" style="stroke: #000000; stroke-width: 0.8"/>
      </g>
     </g>
     <g id="text_10">
      <!-- 0.0 -->
      <g transform="translate(67.096875 196.039219) scale(0.1 -0.1)">
       <use xlink:href="#DejaVuSans-30"/>
       <use xlink:href="#DejaVuSans-2e" x="63.623047"/>
       <use xlink:href="#DejaVuSans-30" x="95.410156"/>
      </g>
     </g>
    </g>
    <g id="ytick_2">
     <g id="line2d_12">
      <g>
       <use xlink:href="#mfda6eb3259" x="90" y="156.008289" style="stroke: #000000; stroke-width: 0.8"/>
      </g>
     </g>
     <g id="text_11">
      <!-- 0.2 -->
      <g transform="translate(67.096875 159.807508) scale(0.1 -0.1)">
       <use xlink:href="#DejaVuSans-30"/>
       <use xlink:href="#DejaVuSans-2e" x="63.623047"/>
       <use xlink:href="#DejaVuSans-32" x="95.410156"/>
      </g>
     </g>
    </g>
    <g id="ytick_3">
     <g id="line2d_13">
      <g>
       <use xlink:href="#mfda6eb3259" x="90" y="119.776578" style="stroke: #000000; stroke-width: 0.8"/>
      </g>
     </g>
     <g id="text_12">
      <!-- 0.4 -->
      <g transform="translate(67.096875 123.575797) scale(0.1 -0.1)">
       <defs>
        <path id="DejaVuSans-34" d="M 2419 4116 
L 825 1625 
L 2419 1625 
L 2419 4116 
z
M 2253 4666 
L 3047 4666 
L 3047 1625 
L 3713 1625 
L 3713 1100 
L 3047 1100 
L 3047 0 
L 2419 0 
L 2419 1100 
L 313 1100 
L 313 1709 
L 2253 4666 
z
" transform="scale(0.015625)"/>
       </defs>
       <use xlink:href="#DejaVuSans-30"/>
       <use xlink:href="#DejaVuSans-2e" x="63.623047"/>
       <use xlink:href="#DejaVuSans-34" x="95.410156"/>
      </g>
     </g>
    </g>
    <g id="ytick_4">
     <g id="line2d_14">
      <g>
       <use xlink:href="#mfda6eb3259" x="90" y="83.544867" style="stroke: #000000; stroke-width: 0.8"/>
      </g>
     </g>
     <g id="text_13">
      <!-- 0.6 -->
      <g transform="translate(67.096875 87.344086) scale(0.1 -0.1)">
       <defs>
        <path id="DejaVuSans-36" d="M 2113 2584 
Q 1688 2584 1439 2293 
Q 1191 2003 1191 1497 
Q 1191 994 1439 701 
Q 1688 409 2113 409 
Q 2538 409 2786 701 
Q 3034 994 3034 1497 
Q 3034 2003 2786 2293 
Q 2538 2584 2113 2584 
z
M 3366 4563 
L 3366 3988 
Q 3128 4100 2886 4159 
Q 2644 4219 2406 4219 
Q 1781 4219 1451 3797 
Q 1122 3375 1075 2522 
Q 1259 2794 1537 2939 
Q 1816 3084 2150 3084 
Q 2853 3084 3261 2657 
Q 3669 2231 3669 1497 
Q 3669 778 3244 343 
Q 2819 -91 2113 -91 
Q 1303 -91 875 529 
Q 447 1150 447 2328 
Q 447 3434 972 4092 
Q 1497 4750 2381 4750 
Q 2619 4750 2861 4703 
Q 3103 4656 3366 4563 
z
" transform="scale(0.015625)"/>
       </defs>
       <use xlink:href="#DejaVuSans-30"/>
       <use xlink:href="#DejaVuSans-2e" x="63.623047"/>
       <use xlink:href="#DejaVuSans-36" x="95.410156"/>
      </g>
     </g>
    </g>
    <g id="ytick_5">
     <g id="line2d_15">
      <g>
       <use xlink:href="#mfda6eb3259" x="90" y="47.313156" style="stroke: #000000; stroke-width: 0.8"/>
      </g>
     </g>
     <g id="text_14">
      <!-- 0.8 -->
      <g transform="translate(67.096875 51.112375) scale(0.1 -0.1)">
       <defs>
        <path id="DejaVuSans-38" d="M 2034 2216 
Q 1584 2216 1326 1975 
Q 1069 1734 1069 1313 
Q 1069 891 1326 650 
Q 1584 409 2034 409 
Q 2484 409 2743 651 
Q 3003 894 3003 1313 
Q 3003 1734 2745 1975 
Q 2488 2216 2034 2216 
z
M 1403 2484 
Q 997 2584 770 2862 
Q 544 3141 544 3541 
Q 544 4100 942 4425 
Q 1341 4750 2034 4750 
Q 2731 4750 3128 4425 
Q 3525 4100 3525 3541 
Q 3525 3141 3298 2862 
Q 3072 2584 2669 2484 
Q 3125 2378 3379 2068 
Q 3634 1759 3634 1313 
Q 3634 634 3220 271 
Q 2806 -91 2034 -91 
Q 1263 -91 848 271 
Q 434 634 434 1313 
Q 434 1759 690 2068 
Q 947 2378 1403 2484 
z
M 1172 3481 
Q 1172 3119 1398 2916 
Q 1625 2713 2034 2713 
Q 2441 2713 2670 2916 
Q 2900 3119 2900 3481 
Q 2900 3844 2670 4047 
Q 2441 4250 2034 4250 
Q 1625 4250 1398 4047 
Q 1172 3844 1172 3481 
z
" transform="scale(0.015625)"/>
       </defs>
       <use xlink:href="#DejaVuSans-30"/>
       <use xlink:href="#DejaVuSans-2e" x="63.623047"/>
       <use xlink:href="#DejaVuSans-38" x="95.410156"/>
      </g>
     </g>
    </g>
   </g>
  </g>
 </g>
 <defs>
  <clipPath id="p66df1a4786">
   <rect x="90" y="25.92" width="558" height="166.32"/>
  </clipPath>
 </defs>
</svg>
