<?xml version="1.0" encoding="utf-8" standalone="no"?>
<!DOCTYPE svg PUBLIC "-//W3C//DTD SVG 1.1//EN"
  "http://www.w3.org/Graphics/SVG/1.1/DTD/svg11.dtd">
<svg xmlns:xlink="http://www.w3.org/1999/xlink" width="720pt" height="216pt" viewBox="0 0 720 216" xmlns="http://www.w3.org/2000/svg" version="1.1">
 <metadata>
  <rdf:RDF xmlns:dc="http://purl.org/dc/elements/1.1/" xmlns:cc="http://creativecommons.org/ns#" xmlns:rdf="http://www.w3.org/1999/02/22-rdf-syntax-ns#">
   <cc:Work>
    <dc:type rdf:resource="http://purl.org/dc/dcmitype/StillImage"/>
    <dc:date>2025-12-17T10:21:57.028529</dc:date>
    <dc:format>image/svg+xml</dc:format>
    <dc:creator>
     <cc:Agent>
      <dc:title>Matplotlib v3.8.2, https://matplotlib.org/</dc:title>
     </cc:Agent>
    </dc:creator>
   </cc:Work>
  </rdf:RDF>
 </metadata>
 <defs>
  <style type="text/css">*{stroke-linejoin: round; stroke-linecap: butt}</style>
 </defs>
 <g id="figure_1">
  <g id="patch_1">
   <path d="M 0 216 
L 720 216 
L 720 0 
L 0 0 
z
" style="fill: #ffffff"/>
  </g>
  <g id="axes_1">
   <g id="patch_2">
    <path d="M 90 192.24 
L 648 192.24 
L 648 25.92 
L 90 25.92 
z
" style="fill: #ffffff"/>
   </g>
   <g id="line2d_1">
    <path d="M 90 192.24 
L 648 192.24 
" clip-path="url(#pc492026264)" style="fill: none; stroke: #000000; stroke-width: 0.5; stroke-linecap: square"/>
   </g>
   <g id="patch_3">
    <path d="M 90 189.550994 
L 121.274336 189.550994 
L 121.274336 190.075425 
L 110.022848 190.075425 
L 110.022848 192.24 
L 101.273307 192.24 
L 101.273307 190.075425 
L 90 190.075425 
L 90 189.550994 
z
" clip-path="url(#pc492026264)" style="fill: #ff0000"/>
   </g>
   <g id="patch_4">
    <path d="M 121.274336 189.353108 
Q 118.658292 189.451195 115.829497 189.50081 
Q 113.000702 189.550994 109.919759 189.550994 
Q 100.732085 189.550994 95.366043 189.179173 
Q 90 188.807352 90 188.171493 
Q 90 187.533352 95.366043 187.162102 
Q 100.732085 186.790281 109.919759 186.790281 
Q 113.000702 186.790281 115.829497 186.840465 
Q 118.658292 186.89008 121.274336 186.988167 
L 121.274336 187.538485 
Q 118.634653 187.408462 116.073766 187.348012 
Q 113.51288 187.287563 110.684085 187.287563 
Q 105.609589 187.287563 102.701998 187.523087 
Q 99.802286 187.758042 99.802286 188.171493 
Q 99.802286 188.583233 102.701998 188.818758 
Q 105.609589 189.053712 110.684085 189.053712 
Q 113.51288 189.053712 116.073766 188.993263 
Q 118.634653 188.932243 121.274336 188.80222 
L 121.274336 189.353108 
z
" clip-path="url(#pc492026264)" style="fill: #0000ff"/>
   </g>
   <g id="patch_5">
    <path d="M 121.274336 186.19259 
Q 118.120268 186.491435 114.727893 186.64154 
Q 111.335518 186.790281 107.718853 186.790281 
Q 99.546312 186.790281 94.773156 185.900567 
Q 90 185.010853 90 183.489332 
Q 90 181.950072 94.857265 181.067181 
Q 99.721538 180.184289 108.18145 180.184289 
Q 111.440653 180.184289 114.426504 180.304374 
Q 117.419364 180.423093 120.068781 180.657803 
L 120.068781 181.974635 
Q 117.335256 181.67306 114.629766 181.524319 
Q 111.924277 181.374214 109.204769 181.374214 
Q 104.172279 181.374214 101.445762 181.92278 
Q 98.719246 182.469982 98.719246 183.489332 
Q 98.719246 184.49913 101.347636 185.050426 
Q 103.976026 185.600356 108.812263 185.600356 
Q 110.129963 185.600356 111.258418 185.568971 
Q 112.386874 185.536221 113.284031 185.467991 
L 113.284031 184.23167 
L 108.132386 184.23167 
L 108.132386 183.130444 
L 121.274336 183.130444 
L 121.274336 186.19259 
z
" clip-path="url(#pc492026264)" style="fill: #ffa600"/>
   </g>
   <g id="patch_6">
    <path d="M 111.66376 178.806169 
L 99.636153 178.806169 
L 97.737057 180.184289 
L 90 180.184289 
L 101.049285 172.619219 
L 110.225051 172.619219 
L 121.274336 180.184289 
L 113.543673 180.184289 
L 111.66376 178.806169 
z
M 101.554432 177.402108 
L 109.726299 177.402108 
L 105.64676 174.392941 
L 101.554432 177.402108 
z
" clip-path="url(#pc492026264)" style="fill: #008000"/>
   </g>
   <g id="patch_7">
    <path d="M 154.19469 192.139434 
Q 151.578646 192.189283 148.749851 192.214496 
Q 145.921056 192.24 142.840113 192.24 
Q 133.652439 192.24 128.286397 192.051041 
Q 122.920354 191.862082 122.920354 191.538939 
Q 122.920354 191.214637 128.286397 191.025968 
Q 133.652439 190.837009 142.840113 190.837009 
Q 145.921056 190.837009 148.749851 190.862513 
Q 151.578646 190.887727 154.19469 190.937575 
L 154.19469 191.217246 
Q 151.555007 191.151168 148.99412 191.120448 
Q 146.433234 191.089727 143.604439 191.089727 
Q 138.529943 191.089727 135.622352 191.209421 
Q 132.72264 191.328824 132.72264 191.538939 
Q 132.72264 191.748185 135.622352 191.867879 
Q 138.529943 191.987282 143.604439 191.987282 
Q 146.433234 191.987282 148.99412 191.956562 
Q 151.555007 191.925552 154.19469 191.859474 
L 154.19469 192.139434 
z
" clip-path="url(#pc492026264)" style="fill: #0000ff"/>
   </g>
   <g id="patch_8">
    <path d="M 154.19469 190.68364 
Q 151.040622 190.760325 147.648247 190.798842 
Q 144.255872 190.837009 140.639207 190.837009 
Q 132.466666 190.837009 127.69351 190.608706 
Q 122.920354 190.380402 122.920354 189.989975 
Q 122.920354 189.594995 127.777619 189.368442 
Q 132.641892 189.141889 141.101804 189.141889 
Q 144.361007 189.141889 147.346858 189.172703 
Q 150.339718 189.203167 152.989135 189.263394 
L 152.989135 189.601298 
Q 150.25561 189.523913 147.55012 189.485746 
Q 144.844631 189.447228 142.125123 189.447228 
Q 137.092633 189.447228 134.366116 189.587992 
Q 131.6396 189.728406 131.6396 189.989975 
Q 131.6396 190.249092 134.26799 190.390557 
Q 136.89638 190.531671 141.732617 190.531671 
Q 143.050317 190.531671 144.178772 190.523617 
Q 145.307228 190.515213 146.204385 190.497705 
L 146.204385 190.180461 
L 141.05274 190.180461 
L 141.05274 189.897883 
L 154.19469 189.897883 
L 154.19469 190.68364 
z
" clip-path="url(#pc492026264)" style="fill: #ffa600"/>
   </g>
   <g id="patch_9">
    <path d="M 122.920354 186.900948 
L 154.19469 186.900948 
L 154.19469 187.337994 
L 142.943202 187.337994 
L 142.943202 189.141889 
L 134.193661 189.141889 
L 134.193661 187.337994 
L 122.920354 187.337994 
L 122.920354 186.900948 
z
" clip-path="url(#pc492026264)" style="fill: #ff0000"/>
   </g>
   <g id="patch_10">
    <path d="M 144.584114 186.34077 
L 132.556507 186.34077 
L 130.657411 186.900948 
L 122.920354 186.900948 
L 133.969639 183.8259 
L 143.145405 183.8259 
L 154.19469 186.900948 
L 146.464027 186.900948 
L 144.584114 186.34077 
z
M 134.474786 185.770048 
L 142.646653 185.770048 
L 138.567114 184.546882 
L 134.474786 185.770048 
z
" clip-path="url(#pc492026264)" style="fill: #008000"/>
   </g>
   <g id="patch_11">
    <path d="M 155.840708 190.871941 
L 187.115044 190.871941 
L 187.115044 191.138751 
L 175.863556 191.138751 
L 175.863556 192.24 
L 167.114015 192.24 
L 167.114015 191.138751 
L 155.840708 191.138751 
L 155.840708 190.871941 
z
" clip-path="url(#pc492026264)" style="fill: #ff0000"/>
   </g>
   <g id="patch_12">
    <path d="M 187.115044 190.771121 
Q 184.499 190.821095 181.670205 190.846373 
Q 178.84141 190.871941 175.760467 190.871941 
Q 166.572793 190.871941 161.206751 190.682504 
Q 155.840708 190.493066 155.840708 190.169104 
Q 155.840708 189.84398 161.206751 189.654833 
Q 166.572793 189.465395 175.760467 189.465395 
Q 178.84141 189.465395 181.670205 189.490963 
Q 184.499 189.516241 187.115044 189.566216 
L 187.115044 189.846595 
Q 184.475361 189.78035 181.914474 189.749552 
Q 179.353588 189.718754 176.524793 189.718754 
Q 171.450297 189.718754 168.542706 189.83875 
Q 165.642994 189.958456 165.642994 190.169104 
Q 165.642994 190.37888 168.542706 190.498877 
Q 171.450297 190.618583 176.524793 190.618583 
Q 179.353588 190.618583 181.914474 190.587785 
Q 184.475361 190.556696 187.115044 190.490451 
L 187.115044 190.771121 
z
" clip-path="url(#pc492026264)" style="fill: #0000ff"/>
   </g>
   <g id="patch_13">
    <path d="M 177.504468 189.056831 
L 165.476861 189.056831 
L 163.577765 189.465395 
L 155.840708 189.465395 
L 166.889993 187.222619 
L 176.065759 187.222619 
L 187.115044 189.465395 
L 179.384381 189.465395 
L 177.504468 189.056831 
z
M 167.39514 188.640576 
L 175.567007 188.640576 
L 171.487467 187.748465 
L 167.39514 188.640576 
z
" clip-path="url(#pc492026264)" style="fill: #008000"/>
   </g>
   <g id="patch_14">
    <path d="M 187.115044 186.98361 
Q 183.960976 187.103114 180.568601 187.163139 
Q 177.176226 187.222619 173.559561 187.222619 
Q 165.38702 187.222619 160.613864 186.866834 
Q 155.840708 186.511049 155.840708 185.902613 
Q 155.840708 185.287084 160.697973 184.934027 
Q 165.562246 184.580971 174.022158 184.580971 
Q 177.281361 184.580971 180.267212 184.628991 
Q 183.260072 184.676465 185.909489 184.770323 
L 185.909489 185.296906 
Q 183.175964 185.17631 180.470474 185.116831 
Q 177.764985 185.056806 175.045477 185.056806 
Q 170.012987 185.056806 167.28647 185.27617 
Q 164.559954 185.494989 164.559954 185.902613 
Q 164.559954 186.306418 167.188344 186.526874 
Q 169.816734 186.746784 174.652971 186.746784 
Q 175.970671 186.746784 177.099126 186.734233 
Q 178.227582 186.721137 179.124739 186.693853 
L 179.124739 186.199465 
L 173.973094 186.199465 
L 173.973094 185.759099 
L 187.115044 185.759099 
L 187.115044 186.98361 
z
" clip-path="url(#pc492026264)" style="fill: #ffa600"/>
   </g>
   <g id="patch_15">
    <path d="M 188.761062 189.475463 
L 220.035398 189.475463 
L 220.035398 190.014624 
L 208.78391 190.014624 
L 208.78391 192.24 
L 200.034369 192.24 
L 200.034369 190.014624 
L 188.761062 190.014624 
L 188.761062 189.475463 
z
" clip-path="url(#pc492026264)" style="fill: #ff0000"/>
   </g>
   <g id="patch_16">
    <path d="M 220.035398 189.097009 
Q 217.419354 189.2846 214.590559 189.379486 
Q 211.761764 189.475463 208.680821 189.475463 
Q 199.493147 189.475463 194.127105 188.764362 
Q 188.761062 188.053261 188.761062 186.837192 
Q 188.761062 185.61676 194.127105 184.90675 
Q 199.493147 184.19565 208.680821 184.19565 
Q 211.761764 184.19565 214.590559 184.291626 
Q 217.419354 184.386512 220.035398 184.574103 
L 220.035398 185.626576 
Q 217.395715 185.377909 214.834828 185.2623 
Q 212.273942 185.146692 209.445147 185.146692 
Q 204.370651 185.146692 201.46306 185.597129 
Q 198.563348 186.046474 198.563348 186.837192 
Q 198.563348 187.624638 201.46306 188.075074 
Q 204.370651 188.52442 209.445147 188.52442 
Q 212.273942 188.52442 214.834828 188.408812 
Q 217.395715 188.292113 220.035398 188.043446 
L 220.035398 189.097009 
z
" clip-path="url(#pc492026264)" style="fill: #0000ff"/>
   </g>
   <g id="patch_17">
    <path d="M 220.035398 182.520615 
Q 216.88133 183.358132 213.488955 183.778803 
Q 210.09658 184.19565 206.479915 184.19565 
Q 198.307374 184.19565 193.534218 181.702219 
Q 188.761062 179.208789 188.761062 174.944718 
Q 188.761062 170.630931 193.618327 168.156622 
Q 198.4826 165.682313 206.942512 165.682313 
Q 210.201715 165.682313 213.187566 166.01885 
Q 216.180426 166.351562 218.829843 167.009338 
L 218.829843 170.699768 
Q 216.096318 169.854602 213.390828 169.437756 
Q 210.685339 169.017085 207.965831 169.017085 
Q 202.933341 169.017085 200.206824 170.554445 
Q 197.480308 172.087981 197.480308 174.944718 
Q 197.480308 177.774685 200.108698 179.319693 
Q 202.737088 180.860878 207.573325 180.860878 
Q 208.891025 180.860878 210.01948 180.77292 
Q 211.147936 180.681137 212.045093 180.489923 
L 212.045093 177.025126 
L 206.893448 177.025126 
L 206.893448 173.938932 
L 220.035398 173.938932 
L 220.035398 182.520615 
z
" clip-path="url(#pc492026264)" style="fill: #ffa600"/>
   </g>
   <g id="patch_18">
    <path d="M 210.424822 161.484165 
L 198.397215 161.484165 
L 196.498119 165.682313 
L 188.761062 165.682313 
L 199.810347 142.636949 
L 208.986113 142.636949 
L 220.035398 165.682313 
L 212.304735 165.682313 
L 210.424822 161.484165 
z
M 200.315494 157.206993 
L 208.487361 157.206993 
L 204.407821 148.040213 
L 200.315494 157.206993 
z
" clip-path="url(#pc492026264)" style="fill: #008000"/>
   </g>
   <g id="patch_19">
    <path d="M 221.681416 188.42203 
L 252.955752 188.42203 
L 252.955752 189.166641 
L 241.704264 189.166641 
L 241.704264 192.24 
L 232.954723 192.24 
L 232.954723 189.166641 
L 221.681416 189.166641 
L 221.681416 188.42203 
z
" clip-path="url(#pc492026264)" style="fill: #ff0000"/>
   </g>
   <g id="patch_20">
    <path d="M 252.955752 187.87469 
Q 250.339708 188.145994 247.510913 188.283224 
Q 244.682118 188.42203 241.601175 188.42203 
Q 232.413501 188.42203 227.047459 187.393599 
Q 221.681416 186.365169 221.681416 184.606426 
Q 221.681416 182.841374 227.047459 181.814521 
Q 232.413501 180.78609 241.601175 180.78609 
Q 244.682118 180.78609 247.510913 180.924897 
Q 250.339708 181.062126 252.955752 181.33343 
L 252.955752 182.85557 
Q 250.316069 182.495935 247.755182 182.328736 
Q 245.194296 182.161537 242.365501 182.161537 
Q 237.291005 182.161537 234.383414 182.812982 
Q 231.483702 183.462849 231.483702 184.606426 
Q 231.483702 185.745271 234.383414 186.396716 
Q 237.291005 187.046583 242.365501 187.046583 
Q 245.194296 187.046583 247.755182 186.879384 
Q 250.316069 186.710608 252.955752 186.350973 
L 252.955752 187.87469 
z
" clip-path="url(#pc492026264)" style="fill: #0000ff"/>
   </g>
   <g id="patch_21">
    <path d="M 252.955752 179.346191 
Q 249.801684 180.06614 246.409309 180.427759 
Q 243.016934 180.78609 239.400269 180.78609 
Q 231.227728 180.78609 226.454572 178.642678 
Q 221.681416 176.499266 221.681416 172.833767 
Q 221.681416 169.125532 226.538681 166.998557 
Q 231.402954 164.871582 239.862866 164.871582 
Q 243.122069 164.871582 246.10792 165.160877 
Q 249.10078 165.446884 251.750197 166.012325 
L 251.750197 169.184706 
Q 249.016672 168.458182 246.311182 168.09985 
Q 243.605693 167.738232 240.886185 167.738232 
Q 235.853695 167.738232 233.127178 169.059784 
Q 230.400662 170.378048 230.400662 172.833767 
Q 230.400662 175.266475 233.029052 176.594601 
Q 235.657442 177.919441 240.493679 177.919441 
Q 241.811379 177.919441 242.939834 177.843829 
Q 244.06829 177.764931 244.965447 177.600559 
L 244.965447 174.622136 
L 239.813802 174.622136 
L 239.813802 171.96917 
L 252.955752 171.96917 
L 252.955752 179.346191 
z
" clip-path="url(#pc492026264)" style="fill: #ffa600"/>
   </g>
   <g id="patch_22">
    <path d="M 243.345176 154.783167 
L 231.317569 154.783167 
L 229.418473 164.871582 
L 221.681416 164.871582 
L 232.730701 109.492118 
L 241.906467 109.492118 
L 252.955752 164.871582 
L 245.225089 164.871582 
L 243.345176 154.783167 
z
M 233.235848 144.504852 
L 241.407715 144.504852 
L 237.328175 122.476501 
L 233.235848 144.504852 
z
" clip-path="url(#pc492026264)" style="fill: #008000"/>
   </g>
   <g id="patch_23">
    <path d="M 285.876106 191.86908 
Q 283.260062 192.052936 280.431267 192.145934 
Q 277.602472 192.24 274.521529 192.24 
Q 265.333855 192.24 259.967812 191.543054 
Q 254.60177 190.846109 254.60177 189.654246 
Q 254.60177 188.458107 259.967812 187.762231 
Q 265.333855 187.065285 274.521529 187.065285 
Q 277.602472 187.065285 280.431267 187.159351 
Q 283.260062 187.252349 285.876106 187.436205 
L 285.876106 188.467728 
Q 283.236423 188.224011 280.675536 188.110704 
Q 278.11465 187.997396 275.285855 187.997396 
Q 270.211359 187.997396 267.303768 188.438867 
Q 264.404056 188.879268 264.404056 189.654246 
Q 264.404056 190.426017 267.303768 190.867487 
Q 270.211359 191.307889 275.285855 191.307889 
Q 278.11465 191.307889 280.675536 191.194581 
Q 283.236423 191.080205 285.876106 190.836488 
L 285.876106 191.86908 
z
" clip-path="url(#pc492026264)" style="fill: #0000ff"/>
   </g>
   <g id="patch_24">
    <path d="M 254.60177 176.759708 
L 285.876106 176.759708 
L 285.876106 178.769583 
L 274.624618 178.769583 
L 274.624618 187.065285 
L 265.875077 187.065285 
L 265.875077 178.769583 
L 254.60177 178.769583 
L 254.60177 176.759708 
z
" clip-path="url(#pc492026264)" style="fill: #ff0000"/>
   </g>
   <g id="patch_25">
    <path d="M 285.876106 175.77174 
Q 282.722038 176.265724 279.329663 176.513844 
Q 275.937288 176.759708 272.320623 176.759708 
Q 264.148082 176.759708 259.374926 175.289035 
Q 254.60177 173.818361 254.60177 171.303329 
Q 254.60177 168.758973 259.459035 167.299578 
Q 264.323308 165.840182 272.78322 165.840182 
Q 276.042423 165.840182 279.028274 166.038678 
Q 282.021134 166.234918 284.670551 166.622888 
L 284.670551 168.799575 
Q 281.937026 168.30108 279.231536 168.055215 
Q 276.526047 167.807096 273.806539 167.807096 
Q 268.774049 167.807096 266.047532 168.713861 
Q 263.321016 169.61837 263.321016 171.303329 
Q 263.321016 172.972498 265.949406 173.883775 
Q 268.577796 174.792795 273.414033 174.792795 
Q 274.731733 174.792795 275.860188 174.740916 
Q 276.988644 174.68678 277.885801 174.573999 
L 277.885801 172.530394 
L 272.734156 172.530394 
L 272.734156 170.710097 
L 285.876106 170.710097 
L 285.876106 175.77174 
z
" clip-path="url(#pc492026264)" style="fill: #ffa600"/>
   </g>
   <g id="patch_26">
    <path d="M 276.26553 153.162042 
L 264.237923 153.162042 
L 262.338827 165.840182 
L 254.60177 165.840182 
L 265.651055 96.24465 
L 274.826821 96.24465 
L 285.876106 165.840182 
L 278.145443 165.840182 
L 276.26553 153.162042 
z
M 266.156202 140.245255 
L 274.328069 140.245255 
L 270.248529 112.562162 
L 266.156202 140.245255 
z
" clip-path="url(#pc492026264)" style="fill: #008000"/>
   </g>
   <g id="patch_27">
    <path d="M 287.522124 185.857688 
L 318.79646 185.857688 
L 318.79646 187.102417 
L 307.544972 187.102417 
L 307.544972 192.24 
L 298.795431 192.24 
L 298.795431 187.102417 
L 287.522124 187.102417 
L 287.522124 185.857688 
z
" clip-path="url(#pc492026264)" style="fill: #ff0000"/>
   </g>
   <g id="patch_28">
    <path d="M 318.79646 185.38387 
Q 316.180416 185.618731 313.351621 185.737527 
Q 310.522826 185.857688 307.441883 185.857688 
Q 298.254209 185.857688 292.888166 184.967401 
Q 287.522124 184.077113 287.522124 182.554611 
Q 287.522124 181.026648 292.888166 180.137725 
Q 298.254209 179.247437 307.441883 179.247437 
Q 310.522826 179.247437 313.351621 179.367599 
Q 316.180416 179.486395 318.79646 179.721256 
L 318.79646 181.038937 
Q 316.156777 180.727609 313.59589 180.582869 
Q 311.035004 180.438129 308.206209 180.438129 
Q 303.131713 180.438129 300.224122 181.002069 
Q 297.32441 181.564644 297.32441 182.554611 
Q 297.32441 183.540482 300.224122 184.104422 
Q 303.131713 184.666997 308.206209 184.666997 
Q 311.035004 184.666997 313.59589 184.522257 
Q 316.156777 184.376151 318.79646 184.064823 
L 318.79646 185.38387 
z
" clip-path="url(#pc492026264)" style="fill: #0000ff"/>
   </g>
   <g id="patch_29">
    <path d="M 309.185884 177.918685 
L 297.158277 177.918685 
L 295.259181 179.247437 
L 287.522124 179.247437 
L 298.571409 171.953367 
L 307.747175 171.953367 
L 318.79646 179.247437 
L 311.065797 179.247437 
L 309.185884 177.918685 
z
M 299.076556 176.56492 
L 307.248423 176.56492 
L 303.168883 173.66355 
L 299.076556 176.56492 
z
" clip-path="url(#pc492026264)" style="fill: #008000"/>
   </g>
   <g id="patch_30">
    <path d="M 318.79646 158.74068 
Q 315.642392 165.347024 312.250017 168.665278 
Q 308.857642 171.953367 305.240977 171.953367 
Q 297.068436 171.953367 292.29528 152.285167 
Q 287.522124 132.616967 287.522124 98.981932 
Q 287.522124 64.95474 292.379389 45.43737 
Q 297.243662 25.92 305.703574 25.92 
Q 308.962777 25.92 311.948628 28.574604 
Q 314.941488 31.199041 317.590905 36.387585 
L 317.590905 65.497727 
Q 314.85738 58.831052 312.15189 55.542963 
Q 309.446401 52.224709 306.726893 52.224709 
Q 301.694403 52.224709 298.967886 64.351421 
Q 296.24137 76.447967 296.24137 98.981932 
Q 296.24137 121.304736 298.86976 133.49178 
Q 301.49815 145.648658 306.334387 145.648658 
Q 307.652087 145.648658 308.780542 144.954841 
Q 309.908998 144.230858 310.806155 142.722561 
L 310.806155 115.392209 
L 305.65451 115.392209 
L 305.65451 91.048287 
L 318.79646 91.048287 
L 318.79646 158.74068 
z
" clip-path="url(#pc492026264)" style="fill: #ffa600"/>
   </g>
   <g id="patch_31">
    <path d="M 351.716814 191.902298 
Q 348.562746 192.071149 345.170371 192.15596 
Q 341.777996 192.24 338.161331 192.24 
Q 329.98879 192.24 325.215634 191.737301 
Q 320.442478 191.234603 320.442478 190.374926 
Q 320.442478 189.505227 325.299743 189.006383 
Q 330.164016 188.50754 338.623928 188.50754 
Q 341.883131 188.50754 344.868982 188.575389 
Q 347.861842 188.642467 350.511259 188.77508 
L 350.511259 189.519105 
Q 347.777734 189.348712 345.072244 189.264672 
Q 342.366755 189.179861 339.647247 189.179861 
Q 334.614757 189.179861 331.88824 189.489807 
Q 329.161724 189.798982 329.161724 190.374926 
Q 329.161724 190.945474 331.790114 191.256962 
Q 334.418504 191.567679 339.254741 191.567679 
Q 340.572441 191.567679 341.700896 191.549946 
Q 342.829351 191.531442 343.726509 191.492891 
L 343.726509 190.794356 
L 338.574864 190.794356 
L 338.574864 190.172151 
L 351.716814 190.172151 
L 351.716814 191.902298 
z
" clip-path="url(#pc492026264)" style="fill: #ffa600"/>
   </g>
   <g id="patch_32">
    <path d="M 320.442478 184.660714 
L 351.716814 184.660714 
L 351.716814 185.410953 
L 340.465326 185.410953 
L 340.465326 188.50754 
L 331.715785 188.50754 
L 331.715785 185.410953 
L 320.442478 185.410953 
L 320.442478 184.660714 
z
" clip-path="url(#pc492026264)" style="fill: #ff0000"/>
   </g>
   <g id="patch_33">
    <path d="M 342.106238 183.87282 
L 330.078631 183.87282 
L 328.179535 184.660714 
L 320.442478 184.660714 
L 331.491763 180.335635 
L 340.667529 180.335635 
L 351.716814 184.660714 
L 343.986151 184.660714 
L 342.106238 183.87282 
z
M 331.99691 183.070094 
L 340.168777 183.070094 
L 336.089237 181.349702 
L 331.99691 183.070094 
z
" clip-path="url(#pc492026264)" style="fill: #008000"/>
   </g>
   <g id="patch_34">
    <path d="M 351.716814 179.557606 
Q 349.10077 179.943258 346.271975 180.138325 
Q 343.44318 180.335635 340.362237 180.335635 
Q 331.174563 180.335635 325.80852 178.873748 
Q 320.442478 177.411861 320.442478 174.911856 
Q 320.442478 172.402881 325.80852 170.943236 
Q 331.174563 169.48135 340.362237 169.48135 
Q 343.44318 169.48135 346.271975 169.678659 
Q 349.10077 169.873727 351.716814 170.259378 
L 351.716814 172.42306 
Q 349.077131 171.911849 346.516244 171.67418 
Q 343.955358 171.436511 341.126563 171.436511 
Q 336.052067 171.436511 333.144476 172.362522 
Q 330.244764 173.286291 330.244764 174.911856 
Q 330.244764 176.530693 333.144476 177.456705 
Q 336.052067 178.380474 341.126563 178.380474 
Q 343.955358 178.380474 346.516244 178.142805 
Q 349.077131 177.902894 351.716814 177.391682 
L 351.716814 179.557606 
z
" clip-path="url(#pc492026264)" style="fill: #0000ff"/>
   </g>
   <g id="patch_35">
    <path d="M 384.637168 191.735276 
Q 381.4831 191.987638 378.090725 192.114395 
Q 374.698349 192.24 371.081685 192.24 
Q 362.909144 192.24 358.135988 191.488676 
Q 353.362832 190.737352 353.362832 189.452496 
Q 353.362832 188.15266 358.220097 187.407097 
Q 363.08437 186.661535 371.544282 186.661535 
Q 374.803485 186.661535 377.789336 186.762941 
Q 380.782196 186.863194 383.431613 187.061396 
L 383.431613 188.173402 
Q 380.698088 187.918735 377.992598 187.79313 
Q 375.287109 187.666373 372.567601 187.666373 
Q 367.535111 187.666373 364.808594 188.129613 
Q 362.082078 188.5917 362.082078 189.452496 
Q 362.082078 190.305226 364.710468 190.77077 
Q 367.338858 191.235162 372.175095 191.235162 
Q 373.492795 191.235162 374.62125 191.208658 
Q 375.749705 191.181002 376.646863 191.123385 
L 376.646863 190.079368 
L 371.495218 190.079368 
L 371.495218 189.149431 
L 384.637168 189.149431 
L 384.637168 191.735276 
z
" clip-path="url(#pc492026264)" style="fill: #ffa600"/>
   </g>
   <g id="patch_36">
    <path d="M 384.637168 186.057349 
Q 382.021124 186.356831 379.192329 186.508312 
Q 376.363534 186.661535 373.282591 186.661535 
Q 364.094917 186.661535 358.728874 185.526293 
Q 353.362832 184.391051 353.362832 182.449647 
Q 353.362832 180.501279 358.728874 179.367778 
Q 364.094917 178.232536 373.282591 178.232536 
Q 376.363534 178.232536 379.192329 178.385759 
Q 382.021124 178.537241 384.637168 178.836722 
L 384.637168 180.51695 
Q 381.997485 180.119963 379.436598 179.935399 
Q 376.875712 179.750835 374.046917 179.750835 
Q 368.972421 179.750835 366.06483 180.469938 
Q 363.165118 181.1873 363.165118 182.449647 
Q 363.165118 183.706771 366.06483 184.425874 
Q 368.972421 185.143236 374.046917 185.143236 
Q 376.875712 185.143236 379.436598 184.958672 
Q 381.997485 184.772367 384.637168 184.37538 
L 384.637168 186.057349 
z
" clip-path="url(#pc492026264)" style="fill: #0000ff"/>
   </g>
   <g id="patch_37">
    <path d="M 375.026592 176.451354 
L 362.998985 176.451354 
L 361.099889 178.232536 
L 353.362832 178.232536 
L 364.412117 168.454897 
L 373.587883 168.454897 
L 384.637168 178.232536 
L 376.906505 178.232536 
L 375.026592 176.451354 
z
M 364.917264 174.636645 
L 373.089131 174.636645 
L 369.009591 170.747383 
L 364.917264 174.636645 
z
" clip-path="url(#pc492026264)" style="fill: #008000"/>
   </g>
   <g id="patch_38">
    <path d="M 353.362832 125.145167 
L 384.637168 125.145167 
L 384.637168 133.591771 
L 373.38568 133.591771 
L 373.38568 168.454897 
L 364.636139 168.454897 
L 364.636139 133.591771 
L 353.362832 133.591771 
L 353.362832 125.145167 
z
" clip-path="url(#pc492026264)" style="fill: #ff0000"/>
   </g>
   <g id="patch_39">
    <path d="M 417.557522 192.207849 
Q 414.941478 192.223785 412.112683 192.231846 
Q 409.283888 192.24 406.202945 192.24 
Q 397.015271 192.24 391.649228 192.179589 
Q 386.283186 192.119178 386.283186 192.015867 
Q 386.283186 191.912186 391.649228 191.851867 
Q 397.015271 191.791456 406.202945 191.791456 
Q 409.283888 191.791456 412.112683 191.79961 
Q 414.941478 191.807671 417.557522 191.823607 
L 417.557522 191.91302 
Q 414.917839 191.891894 412.356952 191.882073 
Q 409.796066 191.872251 406.967271 191.872251 
Q 401.892775 191.872251 398.985184 191.910518 
Q 396.085472 191.948692 396.085472 192.015867 
Q 396.085472 192.082764 398.985184 192.121031 
Q 401.892775 192.159205 406.967271 192.159205 
Q 409.796066 192.159205 412.356952 192.149383 
Q 414.917839 192.139469 417.557522 192.118344 
L 417.557522 192.207849 
z
" clip-path="url(#pc492026264)" style="fill: #0000ff"/>
   </g>
   <g id="patch_40">
    <path d="M 407.946946 191.706171 
L 395.919339 191.706171 
L 394.020243 191.791456 
L 386.283186 191.791456 
L 397.332471 191.323288 
L 406.508237 191.323288 
L 417.557522 191.791456 
L 409.826859 191.791456 
L 407.946946 191.706171 
z
M 397.837618 191.61928 
L 406.009485 191.61928 
L 401.929945 191.433056 
L 397.837618 191.61928 
z
" clip-path="url(#pc492026264)" style="fill: #008000"/>
   </g>
   <g id="patch_41">
    <path d="M 386.283186 190.837366 
L 417.557522 190.837366 
L 417.557522 190.932134 
L 406.306034 190.932134 
L 406.306034 191.323288 
L 397.556493 191.323288 
L 397.556493 190.932134 
L 386.283186 190.932134 
L 386.283186 190.837366 
z
" clip-path="url(#pc492026264)" style="fill: #ff0000"/>
   </g>
   <g id="patch_42">
    <path d="M 417.557522 190.779197 
Q 414.403454 190.808281 411.011079 190.82289 
Q 407.618703 190.837366 404.002039 190.837366 
Q 395.829498 190.837366 391.056342 190.750777 
Q 386.283186 190.664187 386.283186 190.516109 
Q 386.283186 190.366304 391.140451 190.280378 
Q 396.004724 190.194453 404.464635 190.194453 
Q 407.723839 190.194453 410.70969 190.20614 
Q 413.70255 190.217694 416.351967 190.240537 
L 416.351967 190.368694 
Q 413.618442 190.339344 410.912952 190.324868 
Q 408.207463 190.31026 405.487955 190.31026 
Q 400.455465 190.31026 397.728948 190.363648 
Q 395.002432 190.416903 395.002432 190.516109 
Q 395.002432 190.614385 397.630822 190.668039 
Q 400.259212 190.721559 405.095449 190.721559 
Q 406.413149 190.721559 407.541604 190.718505 
Q 408.670059 190.715317 409.567217 190.708677 
L 409.567217 190.588355 
L 404.415572 190.588355 
L 404.415572 190.481181 
L 417.557522 190.481181 
L 417.557522 190.779197 
z
" clip-path="url(#pc492026264)" style="fill: #ffa600"/>
   </g>
   <g id="patch_43">
    <path d="M 450.477876 192.028582 
Q 447.323808 192.134291 443.931433 192.187387 
Q 440.539057 192.24 436.922393 192.24 
Q 428.749852 192.24 423.976696 191.925287 
Q 419.20354 191.610573 419.20354 191.072375 
Q 419.20354 190.527901 424.060805 190.215602 
Q 428.925078 189.903302 437.384989 189.903302 
Q 440.644193 189.903302 443.630044 189.945778 
Q 446.622904 189.987772 449.272321 190.070795 
L 449.272321 190.53659 
Q 446.538796 190.429916 443.833306 190.377302 
Q 441.127817 190.324207 438.408309 190.324207 
Q 433.375819 190.324207 430.649302 190.518248 
Q 427.922786 190.711806 427.922786 191.072375 
Q 427.922786 191.429565 430.551176 191.624571 
Q 433.179565 191.819095 438.015803 191.819095 
Q 439.333503 191.819095 440.461958 191.807993 
Q 441.590413 191.796409 442.487571 191.772274 
L 442.487571 191.334958 
L 437.335926 191.334958 
L 437.335926 190.945428 
L 450.477876 190.945428 
L 450.477876 192.028582 
z
" clip-path="url(#pc492026264)" style="fill: #ffa600"/>
   </g>
   <g id="patch_44">
    <path d="M 450.477876 189.68809 
Q 447.861832 189.794765 445.033037 189.848723 
Q 442.204242 189.903302 439.123298 189.903302 
Q 429.935625 189.903302 424.569582 189.498926 
Q 419.20354 189.094551 419.20354 188.40302 
Q 419.20354 187.709008 424.569582 187.305252 
Q 429.935625 186.900877 439.123298 186.900877 
Q 442.204242 186.900877 445.033037 186.955455 
Q 447.861832 187.009414 450.477876 187.116089 
L 450.477876 187.714589 
Q 447.838193 187.573182 445.277306 187.50744 
Q 442.71642 187.441698 439.887625 187.441698 
Q 434.813129 187.441698 431.905538 187.697844 
Q 429.005826 187.953369 429.005826 188.40302 
Q 429.005826 188.85081 431.905538 189.106955 
Q 434.813129 189.362481 439.887625 189.362481 
Q 442.71642 189.362481 445.277306 189.296739 
Q 447.838193 189.230377 450.477876 189.088969 
L 450.477876 189.68809 
z
" clip-path="url(#pc492026264)" style="fill: #0000ff"/>
   </g>
   <g id="patch_45">
    <path d="M 440.8673 186.349078 
L 428.839693 186.349078 
L 426.940597 186.900877 
L 419.20354 186.900877 
L 430.252825 183.871824 
L 439.428591 183.871824 
L 450.477876 186.900877 
L 442.747213 186.900877 
L 440.8673 186.349078 
z
M 430.757972 185.786892 
L 438.929839 185.786892 
L 434.850299 184.582022 
L 430.757972 185.786892 
z
" clip-path="url(#pc492026264)" style="fill: #008000"/>
   </g>
   <g id="patch_46">
    <path d="M 419.20354 177.667257 
L 450.477876 177.667257 
L 450.477876 178.87732 
L 439.226388 178.87732 
L 439.226388 183.871824 
L 430.476847 183.871824 
L 430.476847 178.87732 
L 419.20354 178.87732 
L 419.20354 177.667257 
z
" clip-path="url(#pc492026264)" style="fill: #ff0000"/>
   </g>
   <g id="patch_47">
    <path d="M 483.39823 192.018206 
Q 480.782186 192.128144 477.953391 192.183752 
Q 475.124596 192.24 472.043652 192.24 
Q 462.855979 192.24 457.489936 191.823257 
Q 452.123894 191.406514 452.123894 190.693832 
Q 452.123894 189.978593 457.489936 189.562489 
Q 462.855979 189.145746 472.043652 189.145746 
Q 475.124596 189.145746 477.953391 189.201994 
Q 480.782186 189.257602 483.39823 189.36754 
L 483.39823 189.984346 
Q 480.758547 189.838614 478.19766 189.770861 
Q 475.636773 189.703108 472.807979 189.703108 
Q 467.733483 189.703108 464.825892 189.967088 
Q 461.92618 190.230429 461.92618 190.693832 
Q 461.92618 191.155317 464.825892 191.419297 
Q 467.733483 191.682638 472.807979 191.682638 
Q 475.636773 191.682638 478.19766 191.614885 
Q 480.758547 191.546493 483.39823 191.400761 
L 483.39823 192.018206 
z
" clip-path="url(#pc492026264)" style="fill: #0000ff"/>
   </g>
   <g id="patch_48">
    <path d="M 483.39823 188.778431 
Q 480.244162 188.962089 476.851787 189.054337 
Q 473.459411 189.145746 469.842747 189.145746 
Q 461.670206 189.145746 456.89705 188.598967 
Q 452.123894 188.052187 452.123894 187.117127 
Q 452.123894 186.171165 456.981158 185.628578 
Q 461.845432 185.085992 470.305343 185.085992 
Q 473.564547 185.085992 476.550398 185.15979 
Q 479.543258 185.23275 482.192675 185.376993 
L 482.192675 186.18626 
Q 479.45915 186.000925 476.75366 185.909516 
Q 474.048171 185.817268 471.328663 185.817268 
Q 466.296173 185.817268 463.569656 186.154392 
Q 460.84314 186.490679 460.84314 187.117127 
Q 460.84314 187.737705 463.471529 188.076507 
Q 466.099919 188.41447 470.936157 188.41447 
Q 472.253857 188.41447 473.382312 188.395182 
Q 474.510767 188.375055 475.407925 188.333124 
L 475.407925 187.573336 
L 470.25628 187.573336 
L 470.25628 186.89657 
L 483.39823 186.89657 
L 483.39823 188.778431 
z
" clip-path="url(#pc492026264)" style="fill: #ffa600"/>
   </g>
   <g id="patch_49">
    <path d="M 473.787654 183.920495 
L 461.760047 183.920495 
L 459.860951 185.085992 
L 452.123894 185.085992 
L 463.173179 178.688098 
L 472.348945 178.688098 
L 483.39823 185.085992 
L 475.667567 185.085992 
L 473.787654 183.920495 
z
M 463.678326 182.733059 
L 471.850193 182.733059 
L 467.770653 180.188162 
L 463.678326 182.733059 
z
" clip-path="url(#pc492026264)" style="fill: #008000"/>
   </g>
   <g id="patch_50">
    <path d="M 452.123894 166.776384 
L 483.39823 166.776384 
L 483.39823 169.0995 
L 472.146742 169.0995 
L 472.146742 178.688098 
L 463.397201 178.688098 
L 463.397201 169.0995 
L 452.123894 169.0995 
L 452.123894 166.776384 
z
" clip-path="url(#pc492026264)" style="fill: #ff0000"/>
   </g>
   <g id="patch_51">
    <path d="M 485.044248 187.378276 
L 516.318584 187.378276 
L 516.318584 188.326448 
L 505.067096 188.326448 
L 505.067096 192.24 
L 496.317555 192.24 
L 496.317555 188.326448 
L 485.044248 188.326448 
L 485.044248 187.378276 
z
" clip-path="url(#pc492026264)" style="fill: #ff0000"/>
   </g>
   <g id="patch_52">
    <path d="M 516.318584 186.84876 
Q 513.70254 187.111229 510.873745 187.24399 
Q 508.04495 187.378276 504.964006 187.378276 
Q 495.776333 187.378276 490.41029 186.383334 
Q 485.044248 185.388392 485.044248 183.686918 
Q 485.044248 181.979341 490.41029 180.985925 
Q 495.776333 179.990982 504.964006 179.990982 
Q 508.04495 179.990982 510.873745 180.125269 
Q 513.70254 180.25803 516.318584 180.520499 
L 516.318584 181.993075 
Q 513.678901 181.64515 511.118014 181.483396 
Q 508.557127 181.321641 505.728333 181.321641 
Q 500.653837 181.321641 497.746246 181.951873 
Q 494.846534 182.580579 494.846534 183.686918 
Q 494.846534 184.78868 497.746246 185.418912 
Q 500.653837 186.047617 505.728333 186.047617 
Q 508.557127 186.047617 511.118014 185.885863 
Q 513.678901 185.722583 516.318584 185.374658 
L 516.318584 186.84876 
z
" clip-path="url(#pc492026264)" style="fill: #0000ff"/>
   </g>
   <g id="patch_53">
    <path d="M 506.708008 177.713584 
L 494.680401 177.713584 
L 492.781305 179.990982 
L 485.044248 179.990982 
L 496.093533 167.489407 
L 505.269299 167.489407 
L 516.318584 179.990982 
L 508.587921 179.990982 
L 506.708008 177.713584 
z
M 496.59868 175.393318 
L 504.770547 175.393318 
L 500.691007 170.420553 
L 496.59868 175.393318 
z
" clip-path="url(#pc492026264)" style="fill: #008000"/>
   </g>
   <g id="patch_54">
    <path d="M 516.318584 157.223753 
Q 513.164516 162.35658 509.772141 164.934713 
Q 506.379765 167.489407 502.763101 167.489407 
Q 494.59056 167.489407 489.817404 152.208114 
Q 485.044248 136.92682 485.044248 110.793933 
Q 485.044248 84.356357 489.901512 69.192251 
Q 494.765786 54.028145 503.225697 54.028145 
Q 506.484901 54.028145 509.470752 56.090651 
Q 512.463612 58.12972 515.113029 62.160981 
L 515.113029 84.778233 
Q 512.379504 79.598531 509.674014 77.043836 
Q 506.968525 74.465704 504.249017 74.465704 
Q 499.216527 74.465704 496.49001 83.887606 
Q 493.763493 93.28607 493.763493 110.793933 
Q 493.763493 128.137732 496.391883 137.606509 
Q 499.020273 147.051849 503.856511 147.051849 
Q 505.174211 147.051849 506.302666 146.512785 
Q 507.431121 145.950283 508.328279 144.778405 
L 508.328279 123.543969 
L 503.176634 123.543969 
L 503.176634 104.629853 
L 516.318584 104.629853 
L 516.318584 157.223753 
z
" clip-path="url(#pc492026264)" style="fill: #ffa600"/>
   </g>
   <g id="patch_55">
    <path d="M 517.964602 187.356341 
L 549.238938 187.356341 
L 549.238938 188.30879 
L 537.98745 188.30879 
L 537.98745 192.24 
L 529.237909 192.24 
L 529.237909 188.30879 
L 517.964602 188.30879 
L 517.964602 187.356341 
z
" clip-path="url(#pc492026264)" style="fill: #ff0000"/>
   </g>
   <g id="patch_56">
    <path d="M 549.238938 186.956444 
Q 546.622894 187.154664 543.794099 187.254926 
Q 540.965304 187.356341 537.88436 187.356341 
Q 528.696687 187.356341 523.330644 186.60495 
Q 517.964602 185.853559 517.964602 184.568589 
Q 517.964602 183.279009 523.330644 182.528771 
Q 528.696687 181.777381 537.88436 181.777381 
Q 540.965304 181.777381 543.794099 181.878795 
Q 546.622894 181.979058 549.238938 182.177277 
L 549.238938 183.289381 
Q 546.599255 183.026625 544.038368 182.904467 
Q 541.477481 182.782308 538.648687 182.782308 
Q 533.574191 182.782308 530.6666 183.258266 
Q 527.766888 183.733071 527.766888 184.568589 
Q 527.766888 185.400651 530.6666 185.876608 
Q 533.574191 186.351413 538.648687 186.351413 
Q 541.477481 186.351413 544.038368 186.229255 
Q 546.599255 186.105944 549.238938 185.843188 
L 549.238938 186.956444 
z
" clip-path="url(#pc492026264)" style="fill: #0000ff"/>
   </g>
   <g id="patch_57">
    <path d="M 549.238938 181.212699 
Q 546.08487 181.49504 542.692495 181.636855 
Q 539.300119 181.777381 535.683455 181.777381 
Q 527.510914 181.777381 522.737758 180.936804 
Q 517.964602 180.096228 517.964602 178.658739 
Q 517.964602 177.20449 522.821866 176.37036 
Q 527.68614 175.53623 536.146051 175.53623 
Q 539.405255 175.53623 542.391106 175.649682 
Q 545.383966 175.761845 548.033383 175.983592 
L 548.033383 177.227696 
Q 545.299858 176.942777 542.594368 176.802251 
Q 539.888879 176.660436 537.169371 176.660436 
Q 532.136881 176.660436 529.410364 177.178706 
Q 526.683847 177.695686 526.683847 178.658739 
Q 526.683847 179.612768 529.312237 180.133615 
Q 531.940627 180.653174 536.776865 180.653174 
Q 538.094565 180.653174 539.22302 180.623522 
Q 540.351475 180.592581 541.248633 180.528119 
L 541.248633 179.360079 
L 536.096988 179.360079 
L 536.096988 178.319672 
L 549.238938 178.319672 
L 549.238938 181.212699 
z
" clip-path="url(#pc492026264)" style="fill: #ffa600"/>
   </g>
   <g id="patch_58">
    <path d="M 539.628362 171.977627 
L 527.600755 171.977627 
L 525.701659 175.53623 
L 517.964602 175.53623 
L 529.013887 156.001592 
L 538.189653 156.001592 
L 549.238938 175.53623 
L 541.508275 175.53623 
L 539.628362 171.977627 
z
M 529.519034 168.352038 
L 537.690901 168.352038 
L 533.611361 160.581724 
L 529.519034 168.352038 
z
" clip-path="url(#pc492026264)" style="fill: #008000"/>
   </g>
   <g id="patch_59">
    <path d="M 582.159292 192.179313 
Q 579.543248 192.209394 576.714453 192.22461 
Q 573.885658 192.24 570.804714 192.24 
Q 561.617041 192.24 556.250998 192.125972 
Q 550.884956 192.011944 550.884956 191.816942 
Q 550.884956 191.62124 556.250998 191.507387 
Q 561.617041 191.393359 570.804714 191.393359 
Q 573.885658 191.393359 576.714453 191.408749 
Q 579.543248 191.423965 582.159292 191.454046 
L 582.159292 191.622814 
Q 579.519609 191.582939 576.958722 191.564401 
Q 574.397835 191.545863 571.569041 191.545863 
Q 566.494545 191.545863 563.586954 191.618092 
Q 560.687242 191.690147 560.687242 191.816942 
Q 560.687242 191.943212 563.586954 192.015442 
Q 566.494545 192.087496 571.569041 192.087496 
Q 574.397835 192.087496 576.958722 192.068958 
Q 579.519609 192.050245 582.159292 192.01037 
L 582.159292 192.179313 
z
" clip-path="url(#pc492026264)" style="fill: #0000ff"/>
   </g>
   <g id="patch_60">
    <path d="M 582.159292 191.253194 
Q 579.005224 191.323276 575.612849 191.358478 
Q 572.220473 191.393359 568.603809 191.393359 
Q 560.431268 191.393359 555.658112 191.184712 
Q 550.884956 190.976065 550.884956 190.619252 
Q 550.884956 190.25828 555.74222 190.051233 
Q 560.606494 189.844186 569.066405 189.844186 
Q 572.325609 189.844186 575.31146 189.872347 
Q 578.30432 189.900188 580.953737 189.95523 
L 580.953737 190.26404 
Q 578.220212 190.193318 575.514722 190.158437 
Q 572.809233 190.123235 570.089725 190.123235 
Q 565.057235 190.123235 562.330718 190.25188 
Q 559.604201 190.380204 559.604201 190.619252 
Q 559.604201 190.85606 562.232591 190.985345 
Q 564.860981 191.114309 569.697219 191.114309 
Q 571.014919 191.114309 572.143374 191.106949 
Q 573.271829 191.099269 574.168986 191.083268 
L 574.168986 190.793338 
L 569.017342 190.793338 
L 569.017342 190.535089 
L 582.159292 190.535089 
L 582.159292 191.253194 
z
" clip-path="url(#pc492026264)" style="fill: #ffa600"/>
   </g>
   <g id="patch_61">
    <path d="M 550.884956 188.256412 
L 582.159292 188.256412 
L 582.159292 188.566072 
L 570.907804 188.566072 
L 570.907804 189.844186 
L 562.158263 189.844186 
L 562.158263 188.566072 
L 550.884956 188.566072 
L 550.884956 188.256412 
z
" clip-path="url(#pc492026264)" style="fill: #ff0000"/>
   </g>
   <g id="patch_62">
    <path d="M 572.548716 187.955918 
L 560.521109 187.955918 
L 558.622013 188.256412 
L 550.884956 188.256412 
L 561.934241 186.606877 
L 571.110007 186.606877 
L 582.159292 188.256412 
L 574.428629 188.256412 
L 572.548716 187.955918 
z
M 562.439387 187.649768 
L 570.611255 187.649768 
L 566.531715 186.993631 
L 562.439387 187.649768 
z
" clip-path="url(#pc492026264)" style="fill: #008000"/>
   </g>
   <g id="patch_63">
    <path d="M 615.079646 192.170188 
Q 612.463602 192.204792 609.634807 192.222296 
Q 606.806012 192.24 603.725068 192.24 
Q 594.537395 192.24 589.171352 192.108827 
Q 583.80531 191.977653 583.80531 191.75333 
Q 583.80531 191.528203 589.171352 191.397231 
Q 594.537395 191.266057 603.725068 191.266057 
Q 606.806012 191.266057 609.634807 191.283762 
Q 612.463602 191.301265 615.079646 191.335869 
L 615.079646 191.530014 
Q 612.439963 191.484143 609.879076 191.462818 
Q 607.318189 191.441492 604.489395 191.441492 
Q 599.414899 191.441492 596.507308 191.524582 
Q 593.607596 191.60747 593.607596 191.75333 
Q 593.607596 191.898587 596.507308 191.981677 
Q 599.414899 192.064566 604.489395 192.064566 
Q 607.318189 192.064566 609.879076 192.04324 
Q 612.439963 192.021713 615.079646 191.975842 
L 615.079646 192.170188 
z
" clip-path="url(#pc492026264)" style="fill: #0000ff"/>
   </g>
   <g id="patch_64">
    <path d="M 583.80531 190.097326 
L 615.079646 190.097326 
L 615.079646 190.325261 
L 603.828158 190.325261 
L 603.828158 191.266057 
L 595.078617 191.266057 
L 595.078617 190.325261 
L 583.80531 190.325261 
L 583.80531 190.097326 
z
" clip-path="url(#pc492026264)" style="fill: #ff0000"/>
   </g>
   <g id="patch_65">
    <path d="M 615.079646 189.94103 
Q 611.925578 190.019178 608.533203 190.058431 
Q 605.140827 190.097326 601.524163 190.097326 
Q 593.351622 190.097326 588.578466 189.864666 
Q 583.80531 189.632006 583.80531 189.234128 
Q 583.80531 188.831612 588.662574 188.600736 
Q 593.526848 188.36986 601.986759 188.36986 
Q 605.245963 188.36986 608.231814 188.401262 
Q 611.224674 188.432307 613.874091 188.493683 
L 613.874091 188.838035 
Q 611.140566 188.759173 608.435076 188.720277 
Q 605.729587 188.681025 603.010079 188.681025 
Q 597.977589 188.681025 595.251072 188.824475 
Q 592.524555 188.967568 592.524555 189.234128 
Q 592.524555 189.49819 595.152945 189.642354 
Q 597.781335 189.786161 602.617573 189.786161 
Q 603.935272 189.786161 605.063728 189.777954 
Q 606.192183 189.76939 607.08934 189.751547 
L 607.08934 189.42825 
L 601.937696 189.42825 
L 601.937696 189.140279 
L 615.079646 189.140279 
L 615.079646 189.94103 
z
" clip-path="url(#pc492026264)" style="fill: #ffa600"/>
   </g>
   <g id="patch_66">
    <path d="M 605.46907 188.052835 
L 593.441463 188.052835 
L 591.542367 188.36986 
L 583.80531 188.36986 
L 594.854595 186.629578 
L 604.030361 186.629578 
L 615.079646 188.36986 
L 607.348983 188.36986 
L 605.46907 188.052835 
z
M 595.359741 187.729842 
L 603.531609 187.729842 
L 599.452069 187.037608 
L 595.359741 187.729842 
z
" clip-path="url(#pc492026264)" style="fill: #008000"/>
   </g>
   <g id="patch_67">
    <path d="M 648 192.024748 
Q 644.845932 192.132374 641.453557 192.186433 
Q 638.061181 192.24 634.444517 192.24 
Q 626.271976 192.24 621.49882 191.91958 
Q 616.725664 191.599159 616.725664 191.051201 
Q 616.725664 190.496855 621.582928 190.178892 
Q 626.447202 189.860929 634.907113 189.860929 
Q 638.166317 189.860929 641.152168 189.904175 
Q 644.145028 189.946931 646.794445 190.031459 
L 646.794445 190.505701 
Q 644.06092 190.397092 641.35543 190.343525 
Q 638.649941 190.289466 635.930433 190.289466 
Q 630.897943 190.289466 628.171426 190.487026 
Q 625.444909 190.684094 625.444909 191.051201 
Q 625.444909 191.414869 628.073299 191.613411 
Q 630.701689 191.811462 635.537927 191.811462 
Q 636.855626 191.811462 637.984082 191.800159 
Q 639.112537 191.788365 640.009694 191.763793 
L 640.009694 191.318546 
L 634.85805 191.318546 
L 634.85805 190.921952 
L 648 190.921952 
L 648 192.024748 
z
" clip-path="url(#pc492026264)" style="fill: #ffa600"/>
   </g>
   <g id="patch_68">
    <path d="M 638.389424 188.912882 
L 626.361817 188.912882 
L 624.462721 189.860929 
L 616.725664 189.860929 
L 627.774949 184.65671 
L 636.950715 184.65671 
L 648 189.860929 
L 640.269337 189.860929 
L 638.389424 188.912882 
z
M 628.280095 187.94699 
L 636.451963 187.94699 
L 632.372423 185.876902 
L 628.280095 187.94699 
z
" clip-path="url(#pc492026264)" style="fill: #008000"/>
   </g>
   <g id="patch_69">
    <path d="M 648 184.217266 
Q 645.383956 184.435088 642.555161 184.545266 
Q 639.726366 184.65671 636.645422 184.65671 
Q 627.457749 184.65671 622.091706 183.831011 
Q 616.725664 183.005313 616.725664 181.593267 
Q 616.725664 180.176156 622.091706 179.351724 
Q 627.457749 178.526026 636.645422 178.526026 
Q 639.726366 178.526026 642.555161 178.63747 
Q 645.383956 178.747647 648 178.96547 
L 648 180.187554 
Q 645.360317 179.898813 642.79943 179.764573 
Q 640.238543 179.630334 637.409749 179.630334 
Q 632.335253 179.630334 629.427662 180.153361 
Q 626.52795 180.675121 626.52795 181.593267 
Q 626.52795 182.507614 629.427662 183.030641 
Q 632.335253 183.552402 637.409749 183.552402 
Q 640.238543 183.552402 642.79943 183.418162 
Q 645.360317 183.282656 648 182.993915 
L 648 184.217266 
z
" clip-path="url(#pc492026264)" style="fill: #0000ff"/>
   </g>
   <g id="patch_70">
    <path d="M 616.725664 167.202561 
L 648 167.202561 
L 648 169.410952 
L 636.748512 169.410952 
L 636.748512 178.526026 
L 627.998971 178.526026 
L 627.998971 169.410952 
L 616.725664 169.410952 
L 616.725664 167.202561 
z
" clip-path="url(#pc492026264)" style="fill: #ff0000"/>
   </g>
   <g id="matplotlib.axis_1">
    <g id="xtick_1">
     <g id="line2d_2">
      <defs>
       <path id="mca4568318f" d="M 0 0 
L 0 3.5 
" style="stroke: #000000; stroke-width: 0.8"/>
      </defs>
      <g>
       <use xlink:href="#mca4568318f" x="105.637168" y="192.24" style="stroke: #000000; stroke-width: 0.8"/>
      </g>
     </g>
     <g id="text_1">
      <!-- 0 -->
      <g transform="translate(102.455918 206.838437) scale(0.1 -0.1)">
       <defs>
        <path id="DejaVuSans-30" d="M 2034 4250 
Q 1547 4250 1301 3770 
Q 1056 3291 1056 2328 
Q 1056 1369 1301 889 
Q 1547 409 2034 409 
Q 2525 409 2770 889 
Q 3016 1369 3016 2328 
Q 3016 3291 2770 3770 
Q 2525 4250 2034 4250 
z
M 2034 4750 
Q 2819 4750 3233 4129 
Q 3647 3509 3647 2328 
Q 3647 1150 3233 529 
Q 2819 -91 2034 -91 
Q 1250 -91 836 529 
Q 422 1150 422 2328 
Q 422 3509 836 4129 
Q 1250 4750 2034 4750 
z
" transform="scale(0.015625)"/>
       </defs>
       <use xlink:href="#DejaVuSans-30"/>
      </g>
     </g>
    </g>
    <g id="xtick_2">
     <g id="line2d_3">
      <g>
       <use xlink:href="#mca4568318f" x="171.477876" y="192.24" style="stroke: #000000; stroke-width: 0.8"/>
      </g>
     </g>
     <g id="text_2">
      <!-- 2 -->
      <g transform="translate(168.296626 206.838437) scale(0.1 -0.1)">
       <defs>
        <path id="DejaVuSans-32" d="M 1228 531 
L 3431 531 
L 3431 0 
L 469 0 
L 469 531 
Q 828 903 1448 1529 
Q 2069 2156 2228 2338 
Q 2531 2678 2651 2914 
Q 2772 3150 2772 3378 
Q 2772 3750 2511 3984 
Q 2250 4219 1831 4219 
Q 1534 4219 1204 4116 
Q 875 4013 500 3803 
L 500 4441 
Q 881 4594 1212 4672 
Q 1544 4750 1819 4750 
Q 2544 4750 2975 4387 
Q 3406 4025 3406 3419 
Q 3406 3131 3298 2873 
Q 3191 2616 2906 2266 
Q 2828 2175 2409 1742 
Q 1991 1309 1228 531 
z
" transform="scale(0.015625)"/>
       </defs>
       <use xlink:href="#DejaVuSans-32"/>
      </g>
     </g>
    </g>
    <g id="xtick_3">
     <g id="line2d_4">
      <g>
       <use xlink:href="#mca4568318f" x="237.318584" y="192.24" style="stroke: #000000; stroke-width: 0.8"/>
      </g>
     </g>
     <g id="text_3">
      <!-- 4 -->
      <g transform="translate(234.137334 206.838437) scale(0.1 -0.1)">
       <defs>
        <path id="DejaVuSans-34" d="M 2419 4116 
L 825 1625 
L 2419 1625 
L 2419 4116 
z
M 2253 4666 
L 3047 4666 
L 3047 1625 
L 3713 1625 
L 3713 1100 
L 3047 1100 
L 3047 0 
L 2419 0 
L 2419 1100 
L 313 1100 
L 313 1709 
L 2253 4666 
z
" transform="scale(0.015625)"/>
       </defs>
       <use xlink:href="#DejaVuSans-34"/>
      </g>
     </g>
    </g>
    <g id="xtick_4">
     <g id="line2d_5">
      <g>
       <use xlink:href="#mca4568318f" x="303.159292" y="192.24" style="stroke: #000000; stroke-width: 0.8"/>
      </g>
     </g>
     <g id="text_4">
      <!-- 6 -->
      <g transform="translate(299.978042 206.838437) scale(0.1 -0.1)">
       <defs>
        <path id="DejaVuSans-36" d="M 2113 2584 
Q 1688 2584 1439 2293 
Q 1191 2003 1191 1497 
Q 1191 994 1439 701 
Q 1688 409 2113 409 
Q 2538 409 2786 701 
Q 3034 994 3034 1497 
Q 3034 2003 2786 2293 
Q 2538 2584 2113 2584 
z
M 3366 4563 
L 3366 3988 
Q 3128 4100 2886 4159 
Q 2644 4219 2406 4219 
Q 1781 4219 1451 3797 
Q 1122 3375 1075 2522 
Q 1259 2794 1537 2939 
Q 1816 3084 2150 3084 
Q 2853 3084 3261 2657 
Q 3669 2231 3669 1497 
Q 3669 778 3244 343 
Q 2819 -91 2113 -91 
Q 1303 -91 875 529 
Q 447 1150 447 2328 
Q 447 3434 972 4092 
Q 1497 4750 2381 4750 
Q 2619 4750 2861 4703 
Q 3103 4656 3366 4563 
z
" transform="scale(0.015625)"/>
       </defs>
       <use xlink:href="#DejaVuSans-36"/>
      </g>
     </g>
    </g>
    <g id="xtick_5">
     <g id="line2d_6">
      <g>
       <use xlink:href="#mca4568318f" x="369" y="192.24" style="stroke: #000000; stroke-width: 0.8"/>
      </g>
     </g>
     <g id="text_5">
      <!-- 8 -->
      <g transform="translate(365.81875 206.838437) scale(0.1 -0.1)">
       <defs>
        <path id="DejaVuSans-38" d="M 2034 2216 
Q 1584 2216 1326 1975 
Q 1069 1734 1069 1313 
Q 1069 891 1326 650 
Q 1584 409 2034 409 
Q 2484 409 2743 651 
Q 3003 894 3003 1313 
Q 3003 1734 2745 1975 
Q 2488 2216 2034 2216 
z
M 1403 2484 
Q 997 2584 770 2862 
Q 544 3141 544 3541 
Q 544 4100 942 4425 
Q 1341 4750 2034 4750 
Q 2731 4750 3128 4425 
Q 3525 4100 3525 3541 
Q 3525 3141 3298 2862 
Q 3072 2584 2669 2484 
Q 3125 2378 3379 2068 
Q 3634 1759 3634 1313 
Q 3634 634 3220 271 
Q 2806 -91 2034 -91 
Q 1263 -91 848 271 
Q 434 634 434 1313 
Q 434 1759 690 2068 
Q 947 2378 1403 2484 
z
M 1172 3481 
Q 1172 3119 1398 2916 
Q 1625 2713 2034 2713 
Q 2441 2713 2670 2916 
Q 2900 3119 2900 3481 
Q 2900 3844 2670 4047 
Q 2441 4250 2034 4250 
Q 1625 4250 1398 4047 
Q 1172 3844 1172 3481 
z
" transform="scale(0.015625)"/>
       </defs>
       <use xlink:href="#DejaVuSans-38"/>
      </g>
     </g>
    </g>
    <g id="xtick_6">
     <g id="line2d_7">
      <g>
       <use xlink:href="#mca4568318f" x="434.840708" y="192.24" style="stroke: #000000; stroke-width: 0.8"/>
      </g>
     </g>
     <g id="text_6">
      <!-- 10 -->
      <g transform="translate(428.478208 206.838437) scale(0.1 -0.1)">
       <defs>
        <path id="DejaVuSans-31" d="M 794 531 
L 1825 531 
L 1825 4091 
L 703 3866 
L 703 4441 
L 1819 4666 
L 2450 4666 
L 2450 531 
L 3481 531 
L 3481 0 
L 794 0 
L 794 531 
z
" transform="scale(0.015625)"/>
       </defs>
       <use xlink:href="#DejaVuSans-31"/>
       <use xlink:href="#DejaVuSans-30" x="63.623047"/>
      </g>
     </g>
    </g>
    <g id="xtick_7">
     <g id="line2d_8">
      <g>
       <use xlink:href="#mca4568318f" x="500.681416" y="192.24" style="stroke: #000000; stroke-width: 0.8"/>
      </g>
     </g>
     <g id="text_7">
      <!-- 12 -->
      <g transform="translate(494.318916 206.838437) scale(0.1 -0.1)">
       <use xlink:href="#DejaVuSans-31"/>
       <use xlink:href="#DejaVuSans-32" x="63.623047"/>
      </g>
     </g>
    </g>
    <g id="xtick_8">
     <g id="line2d_9">
      <g>
       <use xlink:href="#mca4568318f" x="566.522124" y="192.24" style="stroke: #000000; stroke-width: 0.8"/>
      </g>
     </g>
     <g id="text_8">
      <!-- 14 -->
      <g transform="translate(560.159624 206.838437) scale(0.1 -0.1)">
       <use xlink:href="#DejaVuSans-31"/>
       <use xlink:href="#DejaVuSans-34" x="63.623047"/>
      </g>
     </g>
    </g>
    <g id="xtick_9">
     <g id="line2d_10">
      <g>
       <use xlink:href="#mca4568318f" x="632.362832" y="192.24" style="stroke: #000000; stroke-width: 0.8"/>
      </g>
     </g>
     <g id="text_9">
      <!-- 16 -->
      <g transform="translate(626.000332 206.838437) scale(0.1 -0.1)">
       <use xlink:href="#DejaVuSans-31"/>
       <use xlink:href="#DejaVuSans-36" x="63.623047"/>
      </g>
     </g>
    </g>
   </g>
   <g id="matplotlib.axis_2">
    <g id="ytick_1">
     <g id="line2d_11">
      <defs>
       <path id="m4cf11dc5cd" d="M 0 0 
L -3.5 0 
" style="stroke: #000000; stroke-width: 0.8"/>
      </defs>
      <g>
       <use xlink:href="#m4cf11dc5cd" x="90" y="192.24" style="stroke: #000000; stroke-width: 0.8"/>
      </g>
     </g>
     <g id="text_10">
      <!-- 0.0 -->
      <g transform="translate(67.096875 196.039219) scale(0.1 -0.1)">
       <defs>
        <path id="DejaVuSans-2e" d="M 684 794 
L 1344 794 
L 1344 0 
L 684 0 
L 684 794 
z
" transform="scale(0.015625)"/>
       </defs>
       <use xlink:href="#DejaVuSans-30"/>
       <use xlink:href="#DejaVuSans-2e" x="63.623047"/>
       <use xlink:href="#DejaVuSans-30" x="95.410156"/>
      </g>
     </g>
    </g>
    <g id="ytick_2">
     <g id="line2d_12">
      <g>
       <use xlink:href="#m4cf11dc5cd" x="90" y="166.088142" style="stroke: #000000; stroke-width: 0.8"/>
      </g>
     </g>
     <g id="text_11">
      <!-- 0.2 -->
      <g transform="translate(67.096875 169.887361) scale(0.1 -0.1)">
       <use xlink:href="#DejaVuSans-30"/>
       <use xlink:href="#DejaVuSans-2e" x="63.623047"/>
       <use xlink:href="#DejaVuSans-32" x="95.410156"/>
      </g>
     </g>
    </g>
    <g id="ytick_3">
     <g id="line2d_13">
      <g>
       <use xlink:href="#m4cf11dc5cd" x="90" y="139.936285" style="stroke: #000000; stroke-width: 0.8"/>
      </g>
     </g>
     <g id="text_12">
      <!-- 0.4 -->
      <g transform="translate(67.096875 143.735503) scale(0.1 -0.1)">
       <use xlink:href="#DejaVuSans-30"/>
       <use xlink:href="#DejaVuSans-2e" x="63.623047"/>
       <use xlink:href="#DejaVuSans-34" x="95.410156"/>
      </g>
     </g>
    </g>
    <g id="ytick_4">
     <g id="line2d_14">
      <g>
       <use xlink:href="#m4cf11dc5cd" x="90" y="113.784427" style="stroke: #000000; stroke-width: 0.8"/>
      </g>
     </g>
     <g id="text_13">
      <!-- 0.6 -->
      <g transform="translate(67.096875 117.583646) scale(0.1 -0.1)">
       <use xlink:href="#DejaVuSans-30"/>
       <use xlink:href="#DejaVuSans-2e" x="63.623047"/>
       <use xlink:href="#DejaVuSans-36" x="95.410156"/>
      </g>
     </g>
    </g>
    <g id="ytick_5">
     <g id="line2d_15">
      <g>
       <use xlink:href="#m4cf11dc5cd" x="90" y="87.632569" style="stroke: #000000; stroke-width: 0.8"/>
      </g>
     </g>
     <g id="text_14">
      <!-- 0.8 -->
      <g transform="translate(67.096875 91.431788) scale(0.1 -0.1)">
       <use xlink:href="#DejaVuSans-30"/>
       <use xlink:href="#DejaVuSans-2e" x="63.623047"/>
       <use xlink:href="#DejaVuSans-38" x="95.410156"/>
      </g>
     </g>
    </g>
    <g id="ytick_6">
     <g id="line2d_16">
      <g>
       <use xlink:href="#m4cf11dc5cd" x="90" y="61.480712" style="stroke: #000000; stroke-width: 0.8"/>
      </g>
     </g>
     <g id="text_15">
      <!-- 1.0 -->
      <g transform="translate(67.096875 65.27993) scale(0.1 -0.1)">
       <use xlink:href="#DejaVuSans-31"/>
       <use xlink:href="#DejaVuSans-2e" x="63.623047"/>
       <use xlink:href="#DejaVuSans-30" x="95.410156"/>
      </g>
     </g>
    </g>
    <g id="ytick_7">
     <g id="line2d_17">
      <g>
       <use xlink:href="#m4cf11dc5cd" x="90" y="35.328854" style="stroke: #000000; stroke-width: 0.8"/>
      </g>
     </g>
     <g id="text_16">
      <!-- 1.2 -->
      <g transform="translate(67.096875 39.128073) scale(0.1 -0.1)">
       <use xlink:href="#DejaVuSans-31"/>
       <use xlink:href="#DejaVuSans-2e" x="63.623047"/>
       <use xlink:href="#DejaVuSans-32" x="95.410156"/>
      </g>
     </g>
    </g>
   </g>
  </g>
 </g>
 <defs>
  <clipPath id="pc492026264">
   <rect x="90" y="25.92" width="558" height="166.32"/>
  </clipPath>
 </defs>
</svg>
