<?xml version="1.0" encoding="utf-8" standalone="no"?>
<!DOCTYPE svg PUBLIC "-//W3C//DTD SVG 1.1//EN"
  "http://www.w3.org/Graphics/SVG/1.1/DTD/svg11.dtd">
<svg xmlns:xlink="http://www.w3.org/1999/xlink" width="720pt" height="216pt" viewBox="0 0 720 216" xmlns="http://www.w3.org/2000/svg" version="1.1">
 <metadata>
  <rdf:RDF xmlns:dc="http://purl.org/dc/elements/1.1/" xmlns:cc="http://creativecommons.org/ns#" xmlns:rdf="http://www.w3.org/1999/02/22-rdf-syntax-ns#">
   <cc:Work>
    <dc:type rdf:resource="http://purl.org/dc/dcmitype/StillImage"/>
    <dc:date>2025-12-17T10:22:20.083810</dc:date>
    <dc:format>image/svg+xml</dc:format>
    <dc:creator>
     <cc:Agent>
      <dc:title>Matplotlib v3.8.2, https://matplotlib.org/</dc:title>
     </cc:Agent>
    </dc:creator>
   </cc:Work>
  </rdf:RDF>
 </metadata>
 <defs>
  <style type="text/css">*{stroke-linejoin: round; stroke-linecap: butt}</style>
 </defs>
 <g id="figure_1">
  <g id="patch_1">
   <path d="M 0 216 
L 720 216 
L 720 0 
L 0 0 
z
" style="fill: #ffffff"/>
  </g>
  <g id="axes_1">
   <g id="patch_2">
    <path d="M 90 192.24 
L 648 192.24 
L 648 25.92 
L 90 25.92 
z
" style="fill: #ffffff"/>
   </g>
   <g id="line2d_1">
    <path d="M 90 192.24 
L 648 192.24 
" clip-path="url(#pd5d285a8d3)" style="fill: none; stroke: #000000; stroke-width: 0.5; stroke-linecap: square"/>
   </g>
   <g id="patch_3">
    <path d="M 111.66376 192.144851 
L 99.636153 192.144851 
L 97.737057 192.24 
L 90 192.24 
L 101.049285 191.717685 
L 110.225051 191.717685 
L 121.274336 192.24 
L 113.543673 192.24 
L 111.66376 192.144851 
z
M 101.554432 192.04791 
L 109.726299 192.04791 
L 105.64676 191.840148 
L 101.554432 192.04791 
z
" clip-path="url(#pd5d285a8d3)" style="fill: #008000"/>
   </g>
   <g id="patch_4">
    <path d="M 121.274336 191.659381 
Q 118.120268 191.688533 114.727893 191.703176 
Q 111.335518 191.717685 107.718853 191.717685 
Q 99.546312 191.717685 94.773156 191.630894 
Q 90 191.544102 90 191.395678 
Q 90 191.245523 94.857265 191.159397 
Q 99.721538 191.073271 108.18145 191.073271 
Q 111.440653 191.073271 114.426504 191.084985 
Q 117.419364 191.096566 120.068781 191.119462 
L 120.068781 191.247919 
Q 117.335256 191.218501 114.629766 191.203991 
Q 111.924277 191.189348 109.204769 191.189348 
Q 104.172279 191.189348 101.445762 191.242861 
Q 98.719246 191.29624 98.719246 191.395678 
Q 98.719246 191.494184 101.347636 191.547962 
Q 103.976026 191.601608 108.812263 191.601608 
Q 110.129963 191.601608 111.258418 191.598547 
Q 112.386874 191.595352 113.284031 191.588696 
L 113.284031 191.468093 
L 108.132386 191.468093 
L 108.132386 191.360668 
L 121.274336 191.360668 
L 121.274336 191.659381 
z
" clip-path="url(#pd5d285a8d3)" style="fill: #ffa600"/>
   </g>
   <g id="patch_5">
    <path d="M 90 190.266057 
L 121.274336 190.266057 
L 121.274336 190.423487 
L 110.022848 190.423487 
L 110.022848 191.073271 
L 101.273307 191.073271 
L 101.273307 190.423487 
L 90 190.423487 
L 90 190.266057 
z
" clip-path="url(#pd5d285a8d3)" style="fill: #ff0000"/>
   </g>
   <g id="patch_6">
    <path d="M 121.274336 190.206252 
Q 118.658292 190.235896 115.829497 190.250891 
Q 113.000702 190.266057 109.919759 190.266057 
Q 100.732085 190.266057 95.366043 190.153685 
Q 90 190.041313 90 189.849143 
Q 90 189.656283 95.366043 189.544083 
Q 100.732085 189.431711 109.919759 189.431711 
Q 113.000702 189.431711 115.829497 189.446877 
Q 118.658292 189.461872 121.274336 189.491516 
L 121.274336 189.657834 
Q 118.634653 189.618538 116.073766 189.600269 
Q 113.51288 189.582 110.684085 189.582 
Q 105.609589 189.582 102.701998 189.653181 
Q 99.802286 189.724189 99.802286 189.849143 
Q 99.802286 189.973579 102.701998 190.04476 
Q 105.609589 190.115768 110.684085 190.115768 
Q 113.51288 190.115768 116.073766 190.097499 
Q 118.634653 190.079058 121.274336 190.039762 
L 121.274336 190.206252 
z
" clip-path="url(#pd5d285a8d3)" style="fill: #0000ff"/>
   </g>
   <g id="patch_7">
    <path d="M 144.584114 192.163882 
L 132.556507 192.163882 
L 130.657411 192.24 
L 122.920354 192.24 
L 133.969639 191.822154 
L 143.145405 191.822154 
L 154.19469 192.24 
L 146.464027 192.24 
L 144.584114 192.163882 
z
M 134.474786 192.08633 
L 142.646653 192.08633 
L 138.567114 191.920123 
L 134.474786 192.08633 
z
" clip-path="url(#pd5d285a8d3)" style="fill: #008000"/>
   </g>
   <g id="patch_8">
    <path d="M 154.19469 191.779398 
Q 151.040622 191.800776 147.648247 191.811514 
Q 144.255872 191.822154 140.639207 191.822154 
Q 132.466666 191.822154 127.69351 191.758508 
Q 122.920354 191.694862 122.920354 191.586019 
Q 122.920354 191.475907 127.777619 191.412749 
Q 132.641892 191.349591 141.101804 191.349591 
Q 144.361007 191.349591 147.346858 191.358181 
Q 150.339718 191.366674 152.989135 191.383464 
L 152.989135 191.477664 
Q 150.25561 191.456091 147.55012 191.44545 
Q 144.844631 191.434713 142.125123 191.434713 
Q 137.092633 191.434713 134.366116 191.473955 
Q 131.6396 191.513099 131.6396 191.586019 
Q 131.6396 191.658255 134.26799 191.697693 
Q 136.89638 191.737032 141.732617 191.737032 
Q 143.050317 191.737032 144.178772 191.734787 
Q 145.307228 191.732444 146.204385 191.727563 
L 146.204385 191.639122 
L 141.05274 191.639122 
L 141.05274 191.560346 
L 154.19469 191.560346 
L 154.19469 191.779398 
z
" clip-path="url(#pd5d285a8d3)" style="fill: #ffa600"/>
   </g>
   <g id="patch_9">
    <path d="M 154.19469 191.311439 
Q 151.578646 191.33035 148.749851 191.339915 
Q 145.921056 191.349591 142.840113 191.349591 
Q 133.652439 191.349591 128.286397 191.277905 
Q 122.920354 191.206219 122.920354 191.083628 
Q 122.920354 190.960596 128.286397 190.889021 
Q 133.652439 190.817335 142.840113 190.817335 
Q 145.921056 190.817335 148.749851 190.82701 
Q 151.578646 190.836576 154.19469 190.855487 
L 154.19469 190.961586 
Q 151.555007 190.936518 148.99412 190.924863 
Q 146.433234 190.913209 143.604439 190.913209 
Q 138.529943 190.913209 135.622352 190.958617 
Q 132.72264 191.003916 132.72264 191.083628 
Q 132.72264 191.16301 135.622352 191.208418 
Q 138.529943 191.253716 143.604439 191.253716 
Q 146.433234 191.253716 148.99412 191.242062 
Q 151.555007 191.230298 154.19469 191.20523 
L 154.19469 191.311439 
z
" clip-path="url(#pd5d285a8d3)" style="fill: #0000ff"/>
   </g>
   <g id="patch_10">
    <path d="M 122.920354 190.180617 
L 154.19469 190.180617 
L 154.19469 190.304795 
L 142.943202 190.304795 
L 142.943202 190.817335 
L 134.193661 190.817335 
L 134.193661 190.304795 
L 122.920354 190.304795 
L 122.920354 190.180617 
z
" clip-path="url(#pd5d285a8d3)" style="fill: #ff0000"/>
   </g>
   <g id="patch_11">
    <path d="M 187.115044 192.143769 
Q 184.499 192.191469 181.670205 192.215596 
Q 178.84141 192.24 175.760467 192.24 
Q 166.572793 192.24 161.206751 192.059186 
Q 155.840708 191.878372 155.840708 191.569158 
Q 155.840708 191.258835 161.206751 191.078299 
Q 166.572793 190.897485 175.760467 190.897485 
Q 178.84141 190.897485 181.670205 190.921889 
Q 184.499 190.946016 187.115044 190.993716 
L 187.115044 191.261331 
Q 184.475361 191.198102 181.914474 191.168706 
Q 179.353588 191.13931 176.524793 191.13931 
Q 171.450297 191.13931 168.542706 191.253844 
Q 165.642994 191.3681 165.642994 191.569158 
Q 165.642994 191.769385 168.542706 191.883919 
Q 171.450297 191.998175 176.524793 191.998175 
Q 179.353588 191.998175 181.914474 191.968779 
Q 184.475361 191.939106 187.115044 191.875876 
L 187.115044 192.143769 
z
" clip-path="url(#pd5d285a8d3)" style="fill: #0000ff"/>
   </g>
   <g id="patch_12">
    <path d="M 187.115044 190.765117 
Q 183.960976 190.831301 180.568601 190.864544 
Q 177.176226 190.897485 173.559561 190.897485 
Q 165.38702 190.897485 160.613864 190.700444 
Q 155.840708 190.503403 155.840708 190.16644 
Q 155.840708 189.825547 160.697973 189.630017 
Q 165.562246 189.434488 174.022158 189.434488 
Q 177.281361 189.434488 180.267212 189.461082 
Q 183.260072 189.487374 185.909489 189.539355 
L 185.909489 189.830987 
Q 183.175964 189.764199 180.470474 189.731258 
Q 177.764985 189.698015 175.045477 189.698015 
Q 170.012987 189.698015 167.28647 189.819503 
Q 164.559954 189.940689 164.559954 190.16644 
Q 164.559954 190.390075 167.188344 190.512168 
Q 169.816734 190.633958 174.652971 190.633958 
Q 175.970671 190.633958 177.099126 190.627007 
Q 178.227582 190.619754 179.124739 190.604644 
L 179.124739 190.330842 
L 173.973094 190.330842 
L 173.973094 190.086959 
L 187.115044 190.086959 
L 187.115044 190.765117 
z
" clip-path="url(#pd5d285a8d3)" style="fill: #ffa600"/>
   </g>
   <g id="patch_13">
    <path d="M 155.840708 187.816585 
L 187.115044 187.816585 
L 187.115044 188.132121 
L 175.863556 188.132121 
L 175.863556 189.434488 
L 167.114015 189.434488 
L 167.114015 188.132121 
L 155.840708 188.132121 
L 155.840708 187.816585 
z
" clip-path="url(#pd5d285a8d3)" style="fill: #ff0000"/>
   </g>
   <g id="patch_14">
    <path d="M 177.504468 187.324321 
L 165.476861 187.324321 
L 163.577765 187.816585 
L 155.840708 187.816585 
L 166.889993 185.114343 
L 176.065759 185.114343 
L 187.115044 187.816585 
L 179.384381 187.816585 
L 177.504468 187.324321 
z
M 167.39514 186.82279 
L 175.567007 186.82279 
L 171.487467 185.747916 
L 167.39514 186.82279 
z
" clip-path="url(#pd5d285a8d3)" style="fill: #008000"/>
   </g>
   <g id="patch_15">
    <path d="M 210.424822 192.169551 
L 198.397215 192.169551 
L 196.498119 192.24 
L 188.761062 192.24 
L 199.810347 191.853279 
L 208.986113 191.853279 
L 220.035398 192.24 
L 212.304735 192.24 
L 210.424822 192.169551 
z
M 200.315494 192.097777 
L 208.487361 192.097777 
L 204.407821 191.94395 
L 200.315494 192.097777 
z
" clip-path="url(#pd5d285a8d3)" style="fill: #008000"/>
   </g>
   <g id="patch_16">
    <path d="M 220.035398 191.81668 
Q 216.88133 191.83498 213.488955 191.844171 
Q 210.09658 191.853279 206.479915 191.853279 
Q 198.307374 191.853279 193.534218 191.798799 
Q 188.761062 191.74432 188.761062 191.651153 
Q 188.761062 191.5569 193.618327 191.502839 
Q 198.4826 191.448777 206.942512 191.448777 
Q 210.201715 191.448777 213.187566 191.45613 
Q 216.180426 191.463399 218.829843 191.477771 
L 218.829843 191.558404 
Q 216.096318 191.539938 213.390828 191.53083 
Q 210.685339 191.521639 207.965831 191.521639 
Q 202.933341 191.521639 200.206824 191.555229 
Q 197.480308 191.588736 197.480308 191.651153 
Q 197.480308 191.712986 200.108698 191.746743 
Q 202.737088 191.780417 207.573325 191.780417 
Q 208.891025 191.780417 210.01948 191.778495 
Q 211.147936 191.776489 212.045093 191.772311 
L 212.045093 191.696608 
L 206.893448 191.696608 
L 206.893448 191.629178 
L 220.035398 191.629178 
L 220.035398 191.81668 
z
" clip-path="url(#pd5d285a8d3)" style="fill: #ffa600"/>
   </g>
   <g id="patch_17">
    <path d="M 220.035398 191.41341 
Q 217.419354 191.430941 214.590559 191.439808 
Q 211.761764 191.448777 208.680821 191.448777 
Q 199.493147 191.448777 194.127105 191.382324 
Q 188.761062 191.315871 188.761062 191.202228 
Q 188.761062 191.088178 194.127105 191.021827 
Q 199.493147 190.955374 208.680821 190.955374 
Q 211.761764 190.955374 214.590559 190.964343 
Q 217.419354 190.97321 220.035398 190.990741 
L 220.035398 191.089095 
Q 217.395715 191.065857 214.834828 191.055053 
Q 212.273942 191.04425 209.445147 191.04425 
Q 204.370651 191.04425 201.46306 191.086343 
Q 198.563348 191.128335 198.563348 191.202228 
Q 198.563348 191.275816 201.46306 191.317909 
Q 204.370651 191.359901 209.445147 191.359901 
Q 212.273942 191.359901 214.834828 191.349097 
Q 217.395715 191.338192 220.035398 191.314954 
L 220.035398 191.41341 
z
" clip-path="url(#pd5d285a8d3)" style="fill: #0000ff"/>
   </g>
   <g id="patch_18">
    <path d="M 188.761062 190.39974 
L 220.035398 190.39974 
L 220.035398 190.508104 
L 208.78391 190.508104 
L 208.78391 190.955374 
L 200.034369 190.955374 
L 200.034369 190.508104 
L 188.761062 190.508104 
L 188.761062 190.39974 
z
" clip-path="url(#pd5d285a8d3)" style="fill: #ff0000"/>
   </g>
   <g id="patch_19">
    <path d="M 252.955752 191.952053 
Q 249.801684 192.096027 246.409309 192.168342 
Q 243.016934 192.24 239.400269 192.24 
Q 231.227728 192.24 226.454572 191.811367 
Q 221.681416 191.382735 221.681416 190.64972 
Q 221.681416 189.908159 226.538681 189.482813 
Q 231.402954 189.057468 239.862866 189.057468 
Q 243.122069 189.057468 246.10792 189.11532 
Q 249.10078 189.172515 251.750197 189.28559 
L 251.750197 189.919993 
Q 249.016672 189.774704 246.311182 189.703047 
Q 243.605693 189.630731 240.886185 189.630731 
Q 235.853695 189.630731 233.127178 189.895011 
Q 230.400662 190.158633 230.400662 190.64972 
Q 230.400662 191.136205 233.029052 191.4018 
Q 235.657442 191.666737 240.493679 191.666737 
Q 241.811379 191.666737 242.939834 191.651616 
Q 244.06829 191.635838 244.965447 191.602968 
L 244.965447 191.007352 
L 239.813802 191.007352 
L 239.813802 190.476821 
L 252.955752 190.476821 
L 252.955752 191.952053 
z
" clip-path="url(#pd5d285a8d3)" style="fill: #ffa600"/>
   </g>
   <g id="patch_20">
    <path d="M 221.681416 180.968532 
L 252.955752 180.968532 
L 252.955752 182.5461 
L 241.704264 182.5461 
L 241.704264 189.057468 
L 232.954723 189.057468 
L 232.954723 182.5461 
L 221.681416 182.5461 
L 221.681416 180.968532 
z
" clip-path="url(#pd5d285a8d3)" style="fill: #ff0000"/>
   </g>
   <g id="patch_21">
    <path d="M 243.345176 179.13263 
L 231.317569 179.13263 
L 229.418473 180.968532 
L 221.681416 180.968532 
L 232.730701 170.890513 
L 241.906467 170.890513 
L 252.955752 180.968532 
L 245.225089 180.968532 
L 243.345176 179.13263 
z
M 233.235848 177.262171 
L 241.407715 177.262171 
L 237.328175 173.253426 
L 233.235848 177.262171 
z
" clip-path="url(#pd5d285a8d3)" style="fill: #008000"/>
   </g>
   <g id="patch_22">
    <path d="M 252.955752 168.485727 
Q 250.339708 169.677724 247.510913 170.280654 
Q 244.682118 170.890513 241.601175 170.890513 
Q 232.413501 170.890513 227.047459 166.37201 
Q 221.681416 161.853506 221.681416 154.126311 
Q 221.681416 146.371395 227.047459 141.859822 
Q 232.413501 137.341319 241.601175 137.341319 
Q 244.682118 137.341319 247.510913 137.951178 
Q 250.339708 138.554107 252.955752 139.746105 
L 252.955752 146.433767 
Q 250.316069 144.853677 247.755182 144.119074 
Q 245.194296 143.384471 242.365501 143.384471 
Q 237.291005 143.384471 234.383414 146.246651 
Q 231.483702 149.101902 231.483702 154.126311 
Q 231.483702 159.12993 234.383414 161.992111 
Q 237.291005 164.847361 242.365501 164.847361 
Q 245.194296 164.847361 247.755182 164.112758 
Q 250.316069 163.371224 252.955752 161.791134 
L 252.955752 168.485727 
z
" clip-path="url(#pd5d285a8d3)" style="fill: #0000ff"/>
   </g>
   <g id="patch_23">
    <path d="M 285.876106 191.91098 
Q 282.722038 192.07549 279.329663 192.158121 
Q 275.937288 192.24 272.320623 192.24 
Q 264.148082 192.24 259.374926 191.750226 
Q 254.60177 191.260451 254.60177 190.422877 
Q 254.60177 189.575537 259.459035 189.089518 
Q 264.323308 188.6035 272.78322 188.6035 
Q 276.042423 188.6035 279.028274 188.669604 
Q 282.021134 188.734958 284.670551 188.864162 
L 284.670551 189.589058 
Q 281.937026 189.423046 279.231536 189.341166 
Q 276.526047 189.258535 273.806539 189.258535 
Q 268.774049 189.258535 266.047532 189.560513 
Q 263.321016 189.861739 263.321016 190.422877 
Q 263.321016 190.978756 265.949406 191.282236 
Q 268.577796 191.584964 273.414033 191.584964 
Q 274.731733 191.584964 275.860188 191.567687 
Q 276.988644 191.549658 277.885801 191.512099 
L 277.885801 190.831523 
L 272.734156 190.831523 
L 272.734156 190.225314 
L 285.876106 190.225314 
L 285.876106 191.91098 
z
" clip-path="url(#pd5d285a8d3)" style="fill: #ffa600"/>
   </g>
   <g id="patch_24">
    <path d="M 276.26553 187.097915 
L 264.237923 187.097915 
L 262.338827 188.6035 
L 254.60177 188.6035 
L 265.651055 180.338726 
L 274.826821 180.338726 
L 285.876106 188.6035 
L 278.145443 188.6035 
L 276.26553 187.097915 
z
M 266.156202 185.56399 
L 274.328069 185.56399 
L 270.248529 182.276502 
L 266.156202 185.56399 
z
" clip-path="url(#pd5d285a8d3)" style="fill: #008000"/>
   </g>
   <g id="patch_25">
    <path d="M 254.60177 172.073953 
L 285.876106 172.073953 
L 285.876106 173.685814 
L 274.624618 173.685814 
L 274.624618 180.338726 
L 265.875077 180.338726 
L 265.875077 173.685814 
L 254.60177 173.685814 
L 254.60177 172.073953 
z
" clip-path="url(#pd5d285a8d3)" style="fill: #ff0000"/>
   </g>
   <g id="patch_26">
    <path d="M 285.876106 163.709066 
Q 283.260062 167.85535 280.431267 169.952598 
Q 277.602472 172.073953 274.521529 172.073953 
Q 265.333855 172.073953 259.967812 156.356645 
Q 254.60177 140.639337 254.60177 113.760811 
Q 254.60177 86.785861 259.967812 71.092659 
Q 265.333855 55.375351 274.521529 55.375351 
Q 277.602472 55.375351 280.431267 57.496706 
Q 283.260062 59.593954 285.876106 63.740237 
L 285.876106 87.002818 
Q 283.236423 81.506581 280.675536 78.951313 
Q 278.11465 76.396045 275.285855 76.396045 
Q 270.211359 76.396045 267.303768 86.351947 
Q 264.404056 96.283743 264.404056 113.760811 
Q 264.404056 131.16556 267.303768 141.121463 
Q 270.211359 151.053258 275.285855 151.053258 
Q 278.11465 151.053258 280.675536 148.497991 
Q 283.236423 145.918616 285.876106 140.42238 
L 285.876106 163.709066 
z
" clip-path="url(#pd5d285a8d3)" style="fill: #0000ff"/>
   </g>
   <g id="patch_27">
    <path d="M 318.79646 191.764248 
Q 315.642392 192.002124 312.250017 192.121605 
Q 308.857642 192.24 305.240977 192.24 
Q 297.068436 192.24 292.29528 191.531803 
Q 287.522124 190.823606 287.522124 189.612502 
Q 287.522124 188.387277 292.379389 187.684511 
Q 297.243662 186.981745 305.703574 186.981745 
Q 308.962777 186.981745 311.948628 187.07733 
Q 314.941488 187.171829 317.590905 187.358654 
L 317.590905 188.406829 
Q 314.85738 188.16678 312.15189 188.048386 
Q 309.446401 187.928904 306.726893 187.928904 
Q 301.694403 187.928904 298.967886 188.365554 
Q 296.24137 188.801117 296.24137 189.612502 
Q 296.24137 190.416284 298.86976 190.855105 
Q 301.49815 191.292841 306.334387 191.292841 
Q 307.652087 191.292841 308.780542 191.267858 
Q 309.908998 191.24179 310.806155 191.18748 
L 310.806155 190.20339 
L 305.65451 190.20339 
L 305.65451 189.326833 
L 318.79646 189.326833 
L 318.79646 191.764248 
z
" clip-path="url(#pd5d285a8d3)" style="fill: #ffa600"/>
   </g>
   <g id="patch_28">
    <path d="M 318.79646 186.435228 
Q 316.180416 186.706124 313.351621 186.843147 
Q 310.522826 186.981745 307.441883 186.981745 
Q 298.254209 186.981745 292.888166 185.954859 
Q 287.522124 184.927974 287.522124 183.171873 
Q 287.522124 181.409472 292.888166 180.384161 
Q 298.254209 179.357276 307.441883 179.357276 
Q 310.522826 179.357276 313.351621 179.495874 
Q 316.180416 179.632897 318.79646 179.903793 
L 318.79646 181.423647 
Q 316.156777 181.064552 313.59589 180.897604 
Q 311.035004 180.730657 308.206209 180.730657 
Q 303.131713 180.730657 300.224122 181.381123 
Q 297.32441 182.030014 297.32441 183.171873 
Q 297.32441 184.309007 300.224122 184.959473 
Q 303.131713 185.608364 308.206209 185.608364 
Q 311.035004 185.608364 313.59589 185.441416 
Q 316.156777 185.272894 318.79646 184.913799 
L 318.79646 186.435228 
z
" clip-path="url(#pd5d285a8d3)" style="fill: #0000ff"/>
   </g>
   <g id="patch_29">
    <path d="M 287.522124 169.366591 
L 318.79646 169.366591 
L 318.79646 171.315053 
L 307.544972 171.315053 
L 307.544972 179.357276 
L 298.795431 179.357276 
L 298.795431 171.315053 
L 287.522124 171.315053 
L 287.522124 169.366591 
z
" clip-path="url(#pd5d285a8d3)" style="fill: #ff0000"/>
   </g>
   <g id="patch_30">
    <path d="M 309.185884 153.705083 
L 297.158277 153.705083 
L 295.259181 169.366591 
L 287.522124 169.366591 
L 298.571409 83.394125 
L 307.747175 83.394125 
L 318.79646 169.366591 
L 311.065797 169.366591 
L 309.185884 153.705083 
z
M 299.076556 137.74877 
L 307.248423 137.74877 
L 303.168883 103.551407 
L 299.076556 137.74877 
z
" clip-path="url(#pd5d285a8d3)" style="fill: #008000"/>
   </g>
   <g id="patch_31">
    <path d="M 351.716814 191.936621 
Q 348.562746 192.08831 345.170371 192.164501 
Q 341.777996 192.24 338.161331 192.24 
Q 329.98879 192.24 325.215634 191.788394 
Q 320.442478 191.336788 320.442478 190.564487 
Q 320.442478 189.783181 325.299743 189.335038 
Q 330.164016 188.886896 338.623928 188.886896 
Q 341.883131 188.886896 344.868982 188.947849 
Q 347.861842 189.008109 350.511259 189.127244 
L 350.511259 189.795649 
Q 347.777734 189.642574 345.072244 189.567075 
Q 342.366755 189.490884 339.647247 189.490884 
Q 334.614757 189.490884 331.88824 189.769328 
Q 329.161724 190.04708 329.161724 190.564487 
Q 329.161724 191.077046 331.790114 191.356875 
Q 334.418504 191.636012 339.254741 191.636012 
Q 340.572441 191.636012 341.700896 191.620081 
Q 342.829351 191.603457 343.726509 191.568825 
L 343.726509 190.941287 
L 338.574864 190.941287 
L 338.574864 190.382321 
L 351.716814 190.382321 
L 351.716814 191.936621 
z
" clip-path="url(#pd5d285a8d3)" style="fill: #ffa600"/>
   </g>
   <g id="patch_32">
    <path d="M 342.106238 187.537977 
L 330.078631 187.537977 
L 328.179535 188.886896 
L 320.442478 188.886896 
L 331.491763 181.482124 
L 340.667529 181.482124 
L 351.716814 188.886896 
L 343.986151 188.886896 
L 342.106238 187.537977 
z
M 331.99691 186.163666 
L 340.168777 186.163666 
L 336.089237 183.218262 
L 331.99691 186.163666 
z
" clip-path="url(#pd5d285a8d3)" style="fill: #008000"/>
   </g>
   <g id="patch_33">
    <path d="M 351.716814 180.680962 
Q 349.10077 181.07808 346.271975 181.278948 
Q 343.44318 181.482124 340.362237 181.482124 
Q 331.174563 181.482124 325.80852 179.976771 
Q 320.442478 178.471418 320.442478 175.89708 
Q 320.442478 173.313507 325.80852 171.810463 
Q 331.174563 170.30511 340.362237 170.30511 
Q 343.44318 170.30511 346.271975 170.508286 
Q 349.10077 170.709154 351.716814 171.106272 
L 351.716814 173.334286 
Q 349.077131 172.807874 346.516244 172.563139 
Q 343.955358 172.318404 341.126563 172.318404 
Q 336.052067 172.318404 333.144476 173.271948 
Q 330.244764 174.223183 330.244764 175.89708 
Q 330.244764 177.564051 333.144476 178.517595 
Q 336.052067 179.46883 341.126563 179.46883 
Q 343.955358 179.46883 346.516244 179.224095 
Q 349.077131 178.977051 351.716814 178.450639 
L 351.716814 180.680962 
z
" clip-path="url(#pd5d285a8d3)" style="fill: #0000ff"/>
   </g>
   <g id="patch_34">
    <path d="M 320.442478 134.398952 
L 351.716814 134.398952 
L 351.716814 141.401653 
L 340.465326 141.401653 
L 340.465326 170.30511 
L 331.715785 170.30511 
L 331.715785 141.401653 
L 320.442478 141.401653 
L 320.442478 134.398952 
z
" clip-path="url(#pd5d285a8d3)" style="fill: #ff0000"/>
   </g>
   <g id="patch_35">
    <path d="M 384.637168 192.0348 
Q 382.021124 192.136513 379.192329 192.187961 
Q 376.363534 192.24 373.282591 192.24 
Q 364.094917 192.24 358.728874 191.854436 
Q 353.362832 191.468873 353.362832 190.809512 
Q 353.362832 190.147785 358.728874 189.762813 
Q 364.094917 189.377249 373.282591 189.377249 
Q 376.363534 189.377249 379.192329 189.429289 
Q 382.021124 189.480736 384.637168 189.58245 
L 384.637168 190.153107 
Q 381.997485 190.018278 379.436598 189.955595 
Q 376.875712 189.892911 374.046917 189.892911 
Q 368.972421 189.892911 366.06483 190.137141 
Q 363.165118 190.380779 363.165118 190.809512 
Q 363.165118 191.23647 366.06483 191.4807 
Q 368.972421 191.724338 374.046917 191.724338 
Q 376.875712 191.724338 379.436598 191.661655 
Q 381.997485 191.59838 384.637168 191.463551 
L 384.637168 192.0348 
z
" clip-path="url(#pd5d285a8d3)" style="fill: #0000ff"/>
   </g>
   <g id="patch_36">
    <path d="M 375.026592 188.589445 
L 362.998985 188.589445 
L 361.099889 189.377249 
L 353.362832 189.377249 
L 364.412117 185.052669 
L 373.587883 185.052669 
L 384.637168 189.377249 
L 376.906505 189.377249 
L 375.026592 188.589445 
z
M 364.917264 187.786812 
L 373.089131 187.786812 
L 369.009591 186.066619 
L 364.917264 187.786812 
z
" clip-path="url(#pd5d285a8d3)" style="fill: #008000"/>
   </g>
   <g id="patch_37">
    <path d="M 353.362832 179.327167 
L 384.637168 179.327167 
L 384.637168 180.443799 
L 373.38568 180.443799 
L 373.38568 185.052669 
L 364.636139 185.052669 
L 364.636139 180.443799 
L 353.362832 180.443799 
L 353.362832 179.327167 
z
" clip-path="url(#pd5d285a8d3)" style="fill: #ff0000"/>
   </g>
   <g id="patch_38">
    <path d="M 384.637168 178.21396 
Q 381.4831 178.770563 378.090725 179.050136 
Q 374.698349 179.327167 371.081685 179.327167 
Q 362.909144 179.327167 358.135988 177.670064 
Q 353.362832 176.012961 353.362832 173.179111 
Q 353.362832 170.312221 358.220097 168.667826 
Q 363.08437 167.02343 371.544282 167.02343 
Q 374.803485 167.02343 377.789336 167.247088 
Q 380.782196 167.468205 383.431613 167.905355 
L 383.431613 170.357969 
Q 380.698088 169.796282 377.992598 169.519251 
Q 375.287109 169.239679 372.567601 169.239679 
Q 367.535111 169.239679 364.808594 170.26139 
Q 362.082078 171.280559 362.082078 173.179111 
Q 362.082078 175.059872 364.710468 176.086666 
Q 367.338858 177.110919 372.175095 177.110919 
Q 373.492795 177.110919 374.62125 177.052463 
Q 375.749705 176.991465 376.646863 176.864387 
L 376.646863 174.561725 
L 371.495218 174.561725 
L 371.495218 172.510678 
L 384.637168 172.510678 
L 384.637168 178.21396 
z
" clip-path="url(#pd5d285a8d3)" style="fill: #ffa600"/>
   </g>
   <g id="patch_39">
    <path d="M 407.946946 191.999311 
L 395.919339 191.999311 
L 394.020243 192.24 
L 386.283186 192.24 
L 397.332471 190.918757 
L 406.508237 190.918757 
L 417.557522 192.24 
L 409.826859 192.24 
L 407.946946 191.999311 
z
M 397.837618 191.754091 
L 406.009485 191.754091 
L 401.929945 191.228539 
L 397.837618 191.754091 
z
" clip-path="url(#pd5d285a8d3)" style="fill: #008000"/>
   </g>
   <g id="patch_40">
    <path d="M 386.283186 186.615282 
L 417.557522 186.615282 
L 417.557522 187.454579 
L 406.306034 187.454579 
L 406.306034 190.918757 
L 397.556493 190.918757 
L 397.556493 187.454579 
L 386.283186 187.454579 
L 386.283186 186.615282 
z
" clip-path="url(#pd5d285a8d3)" style="fill: #ff0000"/>
   </g>
   <g id="patch_41">
    <path d="M 417.557522 186.164436 
Q 414.403454 186.389859 411.011079 186.503085 
Q 407.618703 186.615282 404.002039 186.615282 
Q 395.829498 186.615282 391.056342 185.94416 
Q 386.283186 185.273039 386.283186 184.12534 
Q 386.283186 182.964259 391.140451 182.298284 
Q 396.004724 181.63231 404.464635 181.63231 
Q 407.723839 181.63231 410.70969 181.72289 
Q 413.70255 181.812442 416.351967 181.989486 
L 416.351967 182.982787 
Q 413.618442 182.755305 410.912952 182.643109 
Q 408.207463 182.529883 405.487955 182.529883 
Q 400.455465 182.529883 397.728948 182.943672 
Q 395.002432 183.356432 395.002432 184.12534 
Q 395.002432 184.887042 397.630822 185.30289 
Q 400.259212 185.717708 405.095449 185.717708 
Q 406.413149 185.717708 407.541604 185.694034 
Q 408.670059 185.66933 409.567217 185.617864 
L 409.567217 184.685293 
L 404.415572 184.685293 
L 404.415572 183.854627 
L 417.557522 183.854627 
L 417.557522 186.164436 
z
" clip-path="url(#pd5d285a8d3)" style="fill: #ffa600"/>
   </g>
   <g id="patch_42">
    <path d="M 417.557522 181.272427 
Q 414.941478 181.450813 412.112683 181.541043 
Q 409.283888 181.63231 406.202945 181.63231 
Q 397.015271 181.63231 391.649228 180.956104 
Q 386.283186 180.279899 386.283186 179.123504 
Q 386.283186 177.962962 391.649228 177.287793 
Q 397.015271 176.611588 406.202945 176.611588 
Q 409.283888 176.611588 412.112683 176.702855 
Q 414.941478 176.793085 417.557522 176.97147 
L 417.557522 177.972296 
Q 414.917839 177.735831 412.356952 177.625896 
Q 409.796066 177.515961 406.967271 177.515961 
Q 401.892775 177.515961 398.985184 177.944293 
Q 396.085472 178.371589 396.085472 179.123504 
Q 396.085472 179.872309 398.985184 180.300641 
Q 401.892775 180.727937 406.967271 180.727937 
Q 409.796066 180.727937 412.356952 180.618001 
Q 414.917839 180.507029 417.557522 180.270565 
L 417.557522 181.272427 
z
" clip-path="url(#pd5d285a8d3)" style="fill: #0000ff"/>
   </g>
   <g id="patch_43">
    <path d="M 450.477876 192.129291 
Q 447.323808 192.184645 443.931433 192.212449 
Q 440.539057 192.24 436.922393 192.24 
Q 428.749852 192.24 423.976696 192.0752 
Q 419.20354 191.910399 419.20354 191.628571 
Q 419.20354 191.343456 424.060805 191.17992 
Q 428.925078 191.016383 437.384989 191.016383 
Q 440.644193 191.016383 443.630044 191.038626 
Q 446.622904 191.060616 449.272321 191.104091 
L 449.272321 191.348006 
Q 446.538796 191.292146 443.833306 191.264595 
Q 441.127817 191.236791 438.408309 191.236791 
Q 433.375819 191.236791 430.649302 191.338401 
Q 427.922786 191.439758 427.922786 191.628571 
Q 427.922786 191.815614 430.551176 191.91773 
Q 433.179565 192.019592 438.015803 192.019592 
Q 439.333503 192.019592 440.461958 192.013779 
Q 441.590413 192.007712 442.487571 191.995074 
L 442.487571 191.766073 
L 437.335926 191.766073 
L 437.335926 191.562095 
L 450.477876 191.562095 
L 450.477876 192.129291 
z
" clip-path="url(#pd5d285a8d3)" style="fill: #ffa600"/>
   </g>
   <g id="patch_44">
    <path d="M 440.8673 190.693171 
L 428.839693 190.693171 
L 426.940597 191.016383 
L 419.20354 191.016383 
L 430.252825 189.242139 
L 439.428591 189.242139 
L 450.477876 191.016383 
L 442.747213 191.016383 
L 440.8673 190.693171 
z
M 430.757972 190.363875 
L 438.929839 190.363875 
L 434.850299 189.658132 
L 430.757972 190.363875 
z
" clip-path="url(#pd5d285a8d3)" style="fill: #008000"/>
   </g>
   <g id="patch_45">
    <path d="M 419.20354 186.713331 
L 450.477876 186.713331 
L 450.477876 187.206519 
L 439.226388 187.206519 
L 439.226388 189.242139 
L 430.476847 189.242139 
L 430.476847 187.206519 
L 419.20354 187.206519 
L 419.20354 186.713331 
z
" clip-path="url(#pd5d285a8d3)" style="fill: #ff0000"/>
   </g>
   <g id="patch_46">
    <path d="M 450.477876 186.504293 
Q 447.861832 186.607908 445.033037 186.660318 
Q 442.204242 186.713331 439.123298 186.713331 
Q 429.935625 186.713331 424.569582 186.320557 
Q 419.20354 185.927783 419.20354 185.256091 
Q 419.20354 184.581989 424.569582 184.189818 
Q 429.935625 183.797044 439.123298 183.797044 
Q 442.204242 183.797044 445.033037 183.850056 
Q 447.861832 183.902466 450.477876 184.006082 
L 450.477876 184.587411 
Q 447.838193 184.450061 445.277306 184.386205 
Q 442.71642 184.322349 439.887625 184.322349 
Q 434.813129 184.322349 431.905538 184.571146 
Q 429.005826 184.819341 429.005826 185.256091 
Q 429.005826 185.691034 431.905538 185.939831 
Q 434.813129 186.188026 439.887625 186.188026 
Q 442.71642 186.188026 445.277306 186.12417 
Q 447.838193 186.059711 450.477876 185.922361 
L 450.477876 186.504293 
z
" clip-path="url(#pd5d285a8d3)" style="fill: #0000ff"/>
   </g>
   <g id="patch_47">
    <path d="M 473.787654 191.654525 
L 461.760047 191.654525 
L 459.860951 192.24 
L 452.123894 192.24 
L 463.173179 189.026087 
L 472.348945 189.026087 
L 483.39823 192.24 
L 475.667567 192.24 
L 473.787654 191.654525 
z
M 463.678326 191.058029 
L 471.850193 191.058029 
L 467.770653 189.779628 
L 463.678326 191.058029 
z
" clip-path="url(#pd5d285a8d3)" style="fill: #008000"/>
   </g>
   <g id="patch_48">
    <path d="M 483.39823 188.55356 
Q 480.244162 188.789824 476.851787 188.908495 
Q 473.459411 189.026087 469.842747 189.026087 
Q 461.670206 189.026087 456.89705 188.322691 
Q 452.123894 187.619295 452.123894 186.416401 
Q 452.123894 185.199482 456.981158 184.50148 
Q 461.845432 183.803478 470.305343 183.803478 
Q 473.564547 183.803478 476.550398 183.898415 
Q 479.543258 183.992273 482.192675 184.177832 
L 482.192675 185.218901 
Q 479.45915 184.98048 476.75366 184.862888 
Q 474.048171 184.744217 471.328663 184.744217 
Q 466.296173 184.744217 463.569656 185.177906 
Q 460.84314 185.610516 460.84314 186.416401 
Q 460.84314 187.214734 463.471529 187.650581 
Q 466.099919 188.085349 470.936157 188.085349 
Q 472.253857 188.085349 473.382312 188.060535 
Q 474.510767 188.034644 475.407925 187.980702 
L 475.407925 187.003284 
L 470.25628 187.003284 
L 470.25628 186.132669 
L 483.39823 186.132669 
L 483.39823 188.55356 
z
" clip-path="url(#pd5d285a8d3)" style="fill: #ffa600"/>
   </g>
   <g id="patch_49">
    <path d="M 483.39823 183.342736 
Q 480.782186 183.571115 477.953391 183.686633 
Q 475.124596 183.803478 472.043652 183.803478 
Q 462.855979 183.803478 457.489936 182.93776 
Q 452.123894 182.072042 452.123894 180.591557 
Q 452.123894 179.105761 457.489936 178.241371 
Q 462.855979 177.375652 472.043652 177.375652 
Q 475.124596 177.375652 477.953391 177.492498 
Q 480.782186 177.608015 483.39823 177.836395 
L 483.39823 179.117711 
Q 480.758547 178.814975 478.19766 178.67423 
Q 475.636773 178.533484 472.807979 178.533484 
Q 467.733483 178.533484 464.825892 179.081861 
Q 461.92618 179.62891 461.92618 180.591557 
Q 461.92618 181.55022 464.825892 182.098597 
Q 467.733483 182.645646 472.807979 182.645646 
Q 475.636773 182.645646 478.19766 182.504901 
Q 480.758547 182.362827 483.39823 182.060091 
L 483.39823 183.342736 
z
" clip-path="url(#pd5d285a8d3)" style="fill: #0000ff"/>
   </g>
   <g id="patch_50">
    <path d="M 452.123894 25.92 
L 483.39823 25.92 
L 483.39823 55.458072 
L 472.146742 55.458072 
L 472.146742 177.375652 
L 463.397201 177.375652 
L 463.397201 55.458072 
L 452.123894 55.458072 
L 452.123894 25.92 
z
" clip-path="url(#pd5d285a8d3)" style="fill: #ff0000"/>
   </g>
   <g id="patch_51">
    <path d="M 506.708008 191.720378 
L 494.680401 191.720378 
L 492.781305 192.24 
L 485.044248 192.24 
L 496.093533 189.387581 
L 505.269299 189.387581 
L 516.318584 192.24 
L 508.587921 192.24 
L 506.708008 191.720378 
z
M 496.59868 191.190975 
L 504.770547 191.190975 
L 500.691007 190.056365 
L 496.59868 191.190975 
z
" clip-path="url(#pd5d285a8d3)" style="fill: #008000"/>
   </g>
   <g id="patch_52">
    <path d="M 516.318584 188.953254 
Q 513.164516 189.170417 509.772141 189.279495 
Q 506.379765 189.387581 502.763101 189.387581 
Q 494.59056 189.387581 489.817404 188.741048 
Q 485.044248 188.094514 485.044248 186.988863 
Q 485.044248 185.87032 489.901512 185.228745 
Q 494.765786 184.587169 503.225697 184.587169 
Q 506.484901 184.587169 509.470752 184.674431 
Q 512.463612 184.760702 515.113029 184.93126 
L 515.113029 185.888169 
Q 512.379504 185.669022 509.674014 185.560936 
Q 506.968525 185.451858 504.249017 185.451858 
Q 499.216527 185.451858 496.49001 185.850488 
Q 493.763493 186.248126 493.763493 186.988863 
Q 493.763493 187.722658 496.391883 188.123271 
Q 499.020273 188.522892 503.856511 188.522892 
Q 505.174211 188.522892 506.302666 188.500085 
Q 507.431121 188.476286 508.328279 188.426706 
L 508.328279 187.528302 
L 503.176634 187.528302 
L 503.176634 186.728068 
L 516.318584 186.728068 
L 516.318584 188.953254 
z
" clip-path="url(#pd5d285a8d3)" style="fill: #ffa600"/>
   </g>
   <g id="patch_53">
    <path d="M 516.318584 183.345451 
Q 513.70254 183.960942 510.873745 184.272267 
Q 508.04495 184.587169 504.964006 184.587169 
Q 495.776333 184.587169 490.41029 182.254027 
Q 485.044248 179.920884 485.044248 175.930924 
Q 485.044248 171.92665 490.41029 169.597086 
Q 495.776333 167.263943 504.964006 167.263943 
Q 508.04495 167.263943 510.873745 167.578846 
Q 513.70254 167.89017 516.318584 168.505662 
L 516.318584 171.958856 
Q 513.678901 171.142972 511.118014 170.763657 
Q 508.557127 170.384342 505.728333 170.384342 
Q 500.653837 170.384342 497.746246 171.862238 
Q 494.846534 173.336555 494.846534 175.930924 
Q 494.846534 178.514557 497.746246 179.992453 
Q 500.653837 181.46677 505.728333 181.46677 
Q 508.557127 181.46677 511.118014 181.087455 
Q 513.678901 180.704562 516.318584 179.888678 
L 516.318584 183.345451 
z
" clip-path="url(#pd5d285a8d3)" style="fill: #0000ff"/>
   </g>
   <g id="patch_54">
    <path d="M 485.044248 77.030111 
L 516.318584 77.030111 
L 516.318584 94.628222 
L 505.067096 94.628222 
L 505.067096 167.263943 
L 496.317555 167.263943 
L 496.317555 94.628222 
L 485.044248 94.628222 
L 485.044248 77.030111 
z
" clip-path="url(#pd5d285a8d3)" style="fill: #ff0000"/>
   </g>
   <g id="patch_55">
    <path d="M 517.964602 189.572128 
L 549.238938 189.572128 
L 549.238938 190.092438 
L 537.98745 190.092438 
L 537.98745 192.24 
L 529.237909 192.24 
L 529.237909 190.092438 
L 517.964602 190.092438 
L 517.964602 189.572128 
z
" clip-path="url(#pd5d285a8d3)" style="fill: #ff0000"/>
   </g>
   <g id="patch_56">
    <path d="M 539.628362 189.052951 
L 527.600755 189.052951 
L 525.701659 189.572128 
L 517.964602 189.572128 
L 529.013887 186.722149 
L 538.189653 186.722149 
L 549.238938 189.572128 
L 541.508275 189.572128 
L 539.628362 189.052951 
z
M 529.519034 188.524001 
L 537.690901 188.524001 
L 533.611361 187.390361 
L 529.519034 188.524001 
z
" clip-path="url(#pd5d285a8d3)" style="fill: #008000"/>
   </g>
   <g id="patch_57">
    <path d="M 549.238938 186.464291 
Q 546.08487 186.59322 542.692495 186.657979 
Q 539.300119 186.722149 535.683455 186.722149 
Q 527.510914 186.722149 522.737758 186.338306 
Q 517.964602 185.954463 517.964602 185.298043 
Q 517.964602 184.63397 522.821866 184.25307 
Q 527.68614 183.872171 536.146051 183.872171 
Q 539.405255 183.872171 542.391106 183.923978 
Q 545.383966 183.975196 548.033383 184.076455 
L 548.033383 184.644567 
Q 545.299858 184.514461 542.594368 184.450291 
Q 539.888879 184.385532 537.169371 184.385532 
Q 532.136881 184.385532 529.410364 184.622196 
Q 526.683847 184.858272 526.683847 185.298043 
Q 526.683847 185.733694 529.312237 185.971535 
Q 531.940627 186.208788 536.776865 186.208788 
Q 538.094565 186.208788 539.22302 186.195248 
Q 540.351475 186.181119 541.248633 186.151683 
L 541.248633 185.618305 
L 536.096988 185.618305 
L 536.096988 185.143211 
L 549.238938 185.143211 
L 549.238938 186.464291 
z
" clip-path="url(#pd5d285a8d3)" style="fill: #ffa600"/>
   </g>
   <g id="patch_58">
    <path d="M 549.238938 183.391155 
Q 546.622894 183.629583 543.794099 183.750184 
Q 540.965304 183.872171 537.88436 183.872171 
Q 528.696687 183.872171 523.330644 182.96836 
Q 517.964602 182.06455 517.964602 180.518923 
Q 517.964602 178.967752 523.330644 178.065328 
Q 528.696687 177.161517 537.88436 177.161517 
Q 540.965304 177.161517 543.794099 177.283504 
Q 546.622894 177.404105 549.238938 177.642533 
L 549.238938 178.980228 
Q 546.599255 178.664171 544.038368 178.517233 
Q 541.477481 178.370294 538.648687 178.370294 
Q 533.574191 178.370294 530.6666 178.9428 
Q 527.766888 179.513919 527.766888 180.518923 
Q 527.766888 181.519769 530.6666 182.092274 
Q 533.574191 182.663394 538.648687 182.663394 
Q 541.477481 182.663394 544.038368 182.516455 
Q 546.599255 182.36813 549.238938 182.052074 
L 549.238938 183.391155 
z
" clip-path="url(#pd5d285a8d3)" style="fill: #0000ff"/>
   </g>
   <g id="patch_59">
    <path d="M 550.884956 190.965501 
L 582.159292 190.965501 
L 582.159292 191.214064 
L 570.907804 191.214064 
L 570.907804 192.24 
L 562.158263 192.24 
L 562.158263 191.214064 
L 550.884956 191.214064 
L 550.884956 190.965501 
z
" clip-path="url(#pd5d285a8d3)" style="fill: #ff0000"/>
   </g>
   <g id="patch_60">
    <path d="M 582.159292 190.871617 
Q 579.543248 190.918153 576.714453 190.941692 
Q 573.885658 190.965501 570.804714 190.965501 
Q 561.617041 190.965501 556.250998 190.789096 
Q 550.884956 190.612692 550.884956 190.311018 
Q 550.884956 190.008261 556.250998 189.832127 
Q 561.617041 189.655722 570.804714 189.655722 
Q 573.885658 189.655722 576.714453 189.679532 
Q 579.543248 189.70307 582.159292 189.749606 
L 582.159292 190.010696 
Q 579.519609 189.949009 576.958722 189.92033 
Q 574.397835 189.89165 571.569041 189.89165 
Q 566.494545 189.89165 563.586954 190.003391 
Q 560.687242 190.114862 560.687242 190.311018 
Q 560.687242 190.506362 563.586954 190.618103 
Q 566.494545 190.729573 571.569041 190.729573 
Q 574.397835 190.729573 576.958722 190.700894 
Q 579.519609 190.671944 582.159292 190.610257 
L 582.159292 190.871617 
z
" clip-path="url(#pd5d285a8d3)" style="fill: #0000ff"/>
   </g>
   <g id="patch_61">
    <path d="M 572.548716 189.233953 
L 560.521109 189.233953 
L 558.622013 189.655722 
L 550.884956 189.655722 
L 561.934241 187.340456 
L 571.110007 187.340456 
L 582.159292 189.655722 
L 574.428629 189.655722 
L 572.548716 189.233953 
z
M 562.439387 188.804244 
L 570.611255 188.804244 
L 566.531715 187.883298 
L 562.439387 188.804244 
z
" clip-path="url(#pd5d285a8d3)" style="fill: #008000"/>
   </g>
   <g id="patch_62">
    <path d="M 582.159292 187.122998 
Q 579.005224 187.231727 575.612849 187.28634 
Q 572.220473 187.340456 568.603809 187.340456 
Q 560.431268 187.340456 555.658112 187.016751 
Q 550.884956 186.693045 550.884956 186.139468 
Q 550.884956 185.579437 555.74222 185.258213 
Q 560.606494 184.93699 569.066405 184.93699 
Q 572.325609 184.93699 575.31146 184.98068 
Q 578.30432 185.023874 580.953737 185.109269 
L 580.953737 185.588374 
Q 578.220212 185.478651 575.514722 185.424535 
Q 572.809233 185.369922 570.089725 185.369922 
Q 565.057235 185.369922 562.330718 185.569507 
Q 559.604201 185.768596 559.604201 186.139468 
Q 559.604201 186.506864 562.232591 186.707443 
Q 564.860981 186.907525 569.697219 186.907525 
Q 571.014919 186.907525 572.143374 186.896106 
Q 573.271829 186.88419 574.168986 186.859366 
L 574.168986 186.409554 
L 569.017342 186.409554 
L 569.017342 186.008893 
L 582.159292 186.008893 
L 582.159292 187.122998 
z
" clip-path="url(#pd5d285a8d3)" style="fill: #ffa600"/>
   </g>
   <g id="patch_63">
    <path d="M 615.079646 192.162053 
Q 611.925578 192.201027 608.533203 192.220602 
Q 605.140827 192.24 601.524163 192.24 
Q 593.351622 192.24 588.578466 192.12397 
Q 583.80531 192.00794 583.80531 191.809514 
Q 583.80531 191.608774 588.662574 191.493634 
Q 593.526848 191.378493 601.986759 191.378493 
Q 605.245963 191.378493 608.231814 191.394154 
Q 611.224674 191.409636 613.874091 191.440246 
L 613.874091 191.611977 
Q 611.140566 191.572648 608.435076 191.55325 
Q 605.729587 191.533675 603.010079 191.533675 
Q 597.977589 191.533675 595.251072 191.605215 
Q 592.524555 191.676577 592.524555 191.809514 
Q 592.524555 191.941204 595.152945 192.0131 
Q 597.781335 192.084818 602.617573 192.084818 
Q 603.935272 192.084818 605.063728 192.080725 
Q 606.192183 192.076454 607.08934 192.067556 
L 607.08934 191.906324 
L 601.937696 191.906324 
L 601.937696 191.76271 
L 615.079646 191.76271 
L 615.079646 192.162053 
z
" clip-path="url(#pd5d285a8d3)" style="fill: #ffa600"/>
   </g>
   <g id="patch_64">
    <path d="M 605.46907 191.096523 
L 593.441463 191.096523 
L 591.542367 191.378493 
L 583.80531 191.378493 
L 594.854595 189.830641 
L 604.030361 189.830641 
L 615.079646 191.378493 
L 607.348983 191.378493 
L 605.46907 191.096523 
z
M 595.359741 190.809244 
L 603.531609 190.809244 
L 599.452069 190.193554 
L 595.359741 190.809244 
z
" clip-path="url(#pd5d285a8d3)" style="fill: #008000"/>
   </g>
   <g id="patch_65">
    <path d="M 583.80531 188.182696 
L 615.079646 188.182696 
L 615.079646 188.504091 
L 603.828158 188.504091 
L 603.828158 189.830641 
L 595.078617 189.830641 
L 595.078617 188.504091 
L 583.80531 188.504091 
L 583.80531 188.182696 
z
" clip-path="url(#pd5d285a8d3)" style="fill: #ff0000"/>
   </g>
   <g id="patch_66">
    <path d="M 615.079646 188.049199 
Q 612.463602 188.11537 609.634807 188.148841 
Q 606.806012 188.182696 603.725068 188.182696 
Q 594.537395 188.182696 589.171352 187.931859 
Q 583.80531 187.681022 583.80531 187.25206 
Q 583.80531 186.821559 589.171352 186.571106 
Q 594.537395 186.320269 603.725068 186.320269 
Q 606.806012 186.320269 609.634807 186.354124 
Q 612.463602 186.387595 615.079646 186.453767 
L 615.079646 186.825021 
Q 612.439963 186.737305 609.879076 186.696525 
Q 607.318189 186.655744 604.489395 186.655744 
Q 599.414899 186.655744 596.507308 186.814634 
Q 593.607596 186.973138 593.607596 187.25206 
Q 593.607596 187.529827 596.507308 187.688716 
Q 599.414899 187.847221 604.489395 187.847221 
Q 607.318189 187.847221 609.879076 187.806441 
Q 612.439963 187.765276 615.079646 187.67756 
L 615.079646 188.049199 
z
" clip-path="url(#pd5d285a8d3)" style="fill: #0000ff"/>
   </g>
   <g id="patch_67">
    <path d="M 648 192.145965 
Q 644.845932 192.192982 641.453557 192.216599 
Q 638.061181 192.24 634.444517 192.24 
Q 626.271976 192.24 621.49882 192.100021 
Q 616.725664 191.960041 616.725664 191.720659 
Q 616.725664 191.478486 621.582928 191.339581 
Q 626.447202 191.200675 634.907113 191.200675 
Q 638.166317 191.200675 641.152168 191.219568 
Q 644.145028 191.238246 646.794445 191.275173 
L 646.794445 191.482351 
Q 644.06092 191.434904 641.35543 191.411502 
Q 638.649941 191.387886 635.930433 191.387886 
Q 630.897943 191.387886 628.171426 191.474193 
Q 625.444909 191.560284 625.444909 191.720659 
Q 625.444909 191.879532 628.073299 191.966267 
Q 630.701689 192.052788 635.537927 192.052788 
Q 636.855626 192.052788 637.984082 192.04785 
Q 639.112537 192.042698 640.009694 192.031963 
L 640.009694 191.837452 
L 634.85805 191.837452 
L 634.85805 191.664195 
L 648 191.664195 
L 648 192.145965 
z
" clip-path="url(#pd5d285a8d3)" style="fill: #ffa600"/>
   </g>
   <g id="patch_68">
    <path d="M 616.725664 189.511236 
L 648 189.511236 
L 648 189.840724 
L 636.748512 189.840724 
L 636.748512 191.200675 
L 627.998971 191.200675 
L 627.998971 189.840724 
L 616.725664 189.840724 
L 616.725664 189.511236 
z
" clip-path="url(#pd5d285a8d3)" style="fill: #ff0000"/>
   </g>
   <g id="patch_69">
    <path d="M 638.389424 189.162958 
L 626.361817 189.162958 
L 624.462721 189.511236 
L 616.725664 189.511236 
L 627.774949 187.599391 
L 636.950715 187.599391 
L 648 189.511236 
L 640.269337 189.511236 
L 638.389424 189.162958 
z
M 628.280095 188.808123 
L 636.451963 188.808123 
L 632.372423 188.047646 
L 628.280095 188.808123 
z
" clip-path="url(#pd5d285a8d3)" style="fill: #008000"/>
   </g>
   <g id="patch_70">
    <path d="M 648 187.424335 
Q 645.383956 187.511106 642.555161 187.554996 
Q 639.726366 187.599391 636.645422 187.599391 
Q 627.457749 187.599391 622.091706 187.270468 
Q 616.725664 186.941545 616.725664 186.379047 
Q 616.725664 185.814531 622.091706 185.486113 
Q 627.457749 185.15719 636.645422 185.15719 
Q 639.726366 185.15719 642.555161 185.201585 
Q 645.383956 185.245475 648 185.332246 
L 648 185.819071 
Q 645.360317 185.704049 642.79943 185.650574 
Q 640.238543 185.597099 637.409749 185.597099 
Q 632.335253 185.597099 629.427662 185.80545 
Q 626.52795 186.013297 626.52795 186.379047 
Q 626.52795 186.743284 629.427662 186.951635 
Q 632.335253 187.159482 637.409749 187.159482 
Q 640.238543 187.159482 642.79943 187.106007 
Q 645.360317 187.052027 648 186.937005 
L 648 187.424335 
z
" clip-path="url(#pd5d285a8d3)" style="fill: #0000ff"/>
   </g>
   <g id="matplotlib.axis_1">
    <g id="xtick_1">
     <g id="line2d_2">
      <defs>
       <path id="m05f1e4fdb4" d="M 0 0 
L 0 3.5 
" style="stroke: #000000; stroke-width: 0.8"/>
      </defs>
      <g>
       <use xlink:href="#m05f1e4fdb4" x="105.637168" y="192.24" style="stroke: #000000; stroke-width: 0.8"/>
      </g>
     </g>
     <g id="text_1">
      <!-- 0 -->
      <g transform="translate(102.455918 206.838437) scale(0.1 -0.1)">
       <defs>
        <path id="DejaVuSans-30" d="M 2034 4250 
Q 1547 4250 1301 3770 
Q 1056 3291 1056 2328 
Q 1056 1369 1301 889 
Q 1547 409 2034 409 
Q 2525 409 2770 889 
Q 3016 1369 3016 2328 
Q 3016 3291 2770 3770 
Q 2525 4250 2034 4250 
z
M 2034 4750 
Q 2819 4750 3233 4129 
Q 3647 3509 3647 2328 
Q 3647 1150 3233 529 
Q 2819 -91 2034 -91 
Q 1250 -91 836 529 
Q 422 1150 422 2328 
Q 422 3509 836 4129 
Q 1250 4750 2034 4750 
z
" transform="scale(0.015625)"/>
       </defs>
       <use xlink:href="#DejaVuSans-30"/>
      </g>
     </g>
    </g>
    <g id="xtick_2">
     <g id="line2d_3">
      <g>
       <use xlink:href="#m05f1e4fdb4" x="171.477876" y="192.24" style="stroke: #000000; stroke-width: 0.8"/>
      </g>
     </g>
     <g id="text_2">
      <!-- 2 -->
      <g transform="translate(168.296626 206.838437) scale(0.1 -0.1)">
       <defs>
        <path id="DejaVuSans-32" d="M 1228 531 
L 3431 531 
L 3431 0 
L 469 0 
L 469 531 
Q 828 903 1448 1529 
Q 2069 2156 2228 2338 
Q 2531 2678 2651 2914 
Q 2772 3150 2772 3378 
Q 2772 3750 2511 3984 
Q 2250 4219 1831 4219 
Q 1534 4219 1204 4116 
Q 875 4013 500 3803 
L 500 4441 
Q 881 4594 1212 4672 
Q 1544 4750 1819 4750 
Q 2544 4750 2975 4387 
Q 3406 4025 3406 3419 
Q 3406 3131 3298 2873 
Q 3191 2616 2906 2266 
Q 2828 2175 2409 1742 
Q 1991 1309 1228 531 
z
" transform="scale(0.015625)"/>
       </defs>
       <use xlink:href="#DejaVuSans-32"/>
      </g>
     </g>
    </g>
    <g id="xtick_3">
     <g id="line2d_4">
      <g>
       <use xlink:href="#m05f1e4fdb4" x="237.318584" y="192.24" style="stroke: #000000; stroke-width: 0.8"/>
      </g>
     </g>
     <g id="text_3">
      <!-- 4 -->
      <g transform="translate(234.137334 206.838437) scale(0.1 -0.1)">
       <defs>
        <path id="DejaVuSans-34" d="M 2419 4116 
L 825 1625 
L 2419 1625 
L 2419 4116 
z
M 2253 4666 
L 3047 4666 
L 3047 1625 
L 3713 1625 
L 3713 1100 
L 3047 1100 
L 3047 0 
L 2419 0 
L 2419 1100 
L 313 1100 
L 313 1709 
L 2253 4666 
z
" transform="scale(0.015625)"/>
       </defs>
       <use xlink:href="#DejaVuSans-34"/>
      </g>
     </g>
    </g>
    <g id="xtick_4">
     <g id="line2d_5">
      <g>
       <use xlink:href="#m05f1e4fdb4" x="303.159292" y="192.24" style="stroke: #000000; stroke-width: 0.8"/>
      </g>
     </g>
     <g id="text_4">
      <!-- 6 -->
      <g transform="translate(299.978042 206.838437) scale(0.1 -0.1)">
       <defs>
        <path id="DejaVuSans-36" d="M 2113 2584 
Q 1688 2584 1439 2293 
Q 1191 2003 1191 1497 
Q 1191 994 1439 701 
Q 1688 409 2113 409 
Q 2538 409 2786 701 
Q 3034 994 3034 1497 
Q 3034 2003 2786 2293 
Q 2538 2584 2113 2584 
z
M 3366 4563 
L 3366 3988 
Q 3128 4100 2886 4159 
Q 2644 4219 2406 4219 
Q 1781 4219 1451 3797 
Q 1122 3375 1075 2522 
Q 1259 2794 1537 2939 
Q 1816 3084 2150 3084 
Q 2853 3084 3261 2657 
Q 3669 2231 3669 1497 
Q 3669 778 3244 343 
Q 2819 -91 2113 -91 
Q 1303 -91 875 529 
Q 447 1150 447 2328 
Q 447 3434 972 4092 
Q 1497 4750 2381 4750 
Q 2619 4750 2861 4703 
Q 3103 4656 3366 4563 
z
" transform="scale(0.015625)"/>
       </defs>
       <use xlink:href="#DejaVuSans-36"/>
      </g>
     </g>
    </g>
    <g id="xtick_5">
     <g id="line2d_6">
      <g>
       <use xlink:href="#m05f1e4fdb4" x="369" y="192.24" style="stroke: #000000; stroke-width: 0.8"/>
      </g>
     </g>
     <g id="text_5">
      <!-- 8 -->
      <g transform="translate(365.81875 206.838437) scale(0.1 -0.1)">
       <defs>
        <path id="DejaVuSans-38" d="M 2034 2216 
Q 1584 2216 1326 1975 
Q 1069 1734 1069 1313 
Q 1069 891 1326 650 
Q 1584 409 2034 409 
Q 2484 409 2743 651 
Q 3003 894 3003 1313 
Q 3003 1734 2745 1975 
Q 2488 2216 2034 2216 
z
M 1403 2484 
Q 997 2584 770 2862 
Q 544 3141 544 3541 
Q 544 4100 942 4425 
Q 1341 4750 2034 4750 
Q 2731 4750 3128 4425 
Q 3525 4100 3525 3541 
Q 3525 3141 3298 2862 
Q 3072 2584 2669 2484 
Q 3125 2378 3379 2068 
Q 3634 1759 3634 1313 
Q 3634 634 3220 271 
Q 2806 -91 2034 -91 
Q 1263 -91 848 271 
Q 434 634 434 1313 
Q 434 1759 690 2068 
Q 947 2378 1403 2484 
z
M 1172 3481 
Q 1172 3119 1398 2916 
Q 1625 2713 2034 2713 
Q 2441 2713 2670 2916 
Q 2900 3119 2900 3481 
Q 2900 3844 2670 4047 
Q 2441 4250 2034 4250 
Q 1625 4250 1398 4047 
Q 1172 3844 1172 3481 
z
" transform="scale(0.015625)"/>
       </defs>
       <use xlink:href="#DejaVuSans-38"/>
      </g>
     </g>
    </g>
    <g id="xtick_6">
     <g id="line2d_7">
      <g>
       <use xlink:href="#m05f1e4fdb4" x="434.840708" y="192.24" style="stroke: #000000; stroke-width: 0.8"/>
      </g>
     </g>
     <g id="text_6">
      <!-- 10 -->
      <g transform="translate(428.478208 206.838437) scale(0.1 -0.1)">
       <defs>
        <path id="DejaVuSans-31" d="M 794 531 
L 1825 531 
L 1825 4091 
L 703 3866 
L 703 4441 
L 1819 4666 
L 2450 4666 
L 2450 531 
L 3481 531 
L 3481 0 
L 794 0 
L 794 531 
z
" transform="scale(0.015625)"/>
       </defs>
       <use xlink:href="#DejaVuSans-31"/>
       <use xlink:href="#DejaVuSans-30" x="63.623047"/>
      </g>
     </g>
    </g>
    <g id="xtick_7">
     <g id="line2d_8">
      <g>
       <use xlink:href="#m05f1e4fdb4" x="500.681416" y="192.24" style="stroke: #000000; stroke-width: 0.8"/>
      </g>
     </g>
     <g id="text_7">
      <!-- 12 -->
      <g transform="translate(494.318916 206.838437) scale(0.1 -0.1)">
       <use xlink:href="#DejaVuSans-31"/>
       <use xlink:href="#DejaVuSans-32" x="63.623047"/>
      </g>
     </g>
    </g>
    <g id="xtick_8">
     <g id="line2d_9">
      <g>
       <use xlink:href="#m05f1e4fdb4" x="566.522124" y="192.24" style="stroke: #000000; stroke-width: 0.8"/>
      </g>
     </g>
     <g id="text_8">
      <!-- 14 -->
      <g transform="translate(560.159624 206.838437) scale(0.1 -0.1)">
       <use xlink:href="#DejaVuSans-31"/>
       <use xlink:href="#DejaVuSans-34" x="63.623047"/>
      </g>
     </g>
    </g>
    <g id="xtick_9">
     <g id="line2d_10">
      <g>
       <use xlink:href="#m05f1e4fdb4" x="632.362832" y="192.24" style="stroke: #000000; stroke-width: 0.8"/>
      </g>
     </g>
     <g id="text_9">
      <!-- 16 -->
      <g transform="translate(626.000332 206.838437) scale(0.1 -0.1)">
       <use xlink:href="#DejaVuSans-31"/>
       <use xlink:href="#DejaVuSans-36" x="63.623047"/>
      </g>
     </g>
    </g>
   </g>
   <g id="matplotlib.axis_2">
    <g id="ytick_1">
     <g id="line2d_11">
      <defs>
       <path id="mecf3238d67" d="M 0 0 
L -3.5 0 
" style="stroke: #000000; stroke-width: 0.8"/>
      </defs>
      <g>
       <use xlink:href="#mecf3238d67" x="90" y="192.24" style="stroke: #000000; stroke-width: 0.8"/>
      </g>
     </g>
     <g id="text_10">
      <!-- 0.0 -->
      <g transform="translate(67.096875 196.039219) scale(0.1 -0.1)">
       <defs>
        <path id="DejaVuSans-2e" d="M 684 794 
L 1344 794 
L 1344 0 
L 684 0 
L 684 794 
z
" transform="scale(0.015625)"/>
       </defs>
       <use xlink:href="#DejaVuSans-30"/>
       <use xlink:href="#DejaVuSans-2e" x="63.623047"/>
       <use xlink:href="#DejaVuSans-30" x="95.410156"/>
      </g>
     </g>
    </g>
    <g id="ytick_2">
     <g id="line2d_12">
      <g>
       <use xlink:href="#mecf3238d67" x="90" y="168.959064" style="stroke: #000000; stroke-width: 0.8"/>
      </g>
     </g>
     <g id="text_11">
      <!-- 0.2 -->
      <g transform="translate(67.096875 172.758282) scale(0.1 -0.1)">
       <use xlink:href="#DejaVuSans-30"/>
       <use xlink:href="#DejaVuSans-2e" x="63.623047"/>
       <use xlink:href="#DejaVuSans-32" x="95.410156"/>
      </g>
     </g>
    </g>
    <g id="ytick_3">
     <g id="line2d_13">
      <g>
       <use xlink:href="#mecf3238d67" x="90" y="145.678127" style="stroke: #000000; stroke-width: 0.8"/>
      </g>
     </g>
     <g id="text_12">
      <!-- 0.4 -->
      <g transform="translate(67.096875 149.477346) scale(0.1 -0.1)">
       <use xlink:href="#DejaVuSans-30"/>
       <use xlink:href="#DejaVuSans-2e" x="63.623047"/>
       <use xlink:href="#DejaVuSans-34" x="95.410156"/>
      </g>
     </g>
    </g>
    <g id="ytick_4">
     <g id="line2d_14">
      <g>
       <use xlink:href="#mecf3238d67" x="90" y="122.397191" style="stroke: #000000; stroke-width: 0.8"/>
      </g>
     </g>
     <g id="text_13">
      <!-- 0.6 -->
      <g transform="translate(67.096875 126.19641) scale(0.1 -0.1)">
       <use xlink:href="#DejaVuSans-30"/>
       <use xlink:href="#DejaVuSans-2e" x="63.623047"/>
       <use xlink:href="#DejaVuSans-36" x="95.410156"/>
      </g>
     </g>
    </g>
    <g id="ytick_5">
     <g id="line2d_15">
      <g>
       <use xlink:href="#mecf3238d67" x="90" y="99.116255" style="stroke: #000000; stroke-width: 0.8"/>
      </g>
     </g>
     <g id="text_14">
      <!-- 0.8 -->
      <g transform="translate(67.096875 102.915474) scale(0.1 -0.1)">
       <use xlink:href="#DejaVuSans-30"/>
       <use xlink:href="#DejaVuSans-2e" x="63.623047"/>
       <use xlink:href="#DejaVuSans-38" x="95.410156"/>
      </g>
     </g>
    </g>
    <g id="ytick_6">
     <g id="line2d_16">
      <g>
       <use xlink:href="#mecf3238d67" x="90" y="75.835319" style="stroke: #000000; stroke-width: 0.8"/>
      </g>
     </g>
     <g id="text_15">
      <!-- 1.0 -->
      <g transform="translate(67.096875 79.634537) scale(0.1 -0.1)">
       <use xlink:href="#DejaVuSans-31"/>
       <use xlink:href="#DejaVuSans-2e" x="63.623047"/>
       <use xlink:href="#DejaVuSans-30" x="95.410156"/>
      </g>
     </g>
    </g>
    <g id="ytick_7">
     <g id="line2d_17">
      <g>
       <use xlink:href="#mecf3238d67" x="90" y="52.554382" style="stroke: #000000; stroke-width: 0.8"/>
      </g>
     </g>
     <g id="text_16">
      <!-- 1.2 -->
      <g transform="translate(67.096875 56.353601) scale(0.1 -0.1)">
       <use xlink:href="#DejaVuSans-31"/>
       <use xlink:href="#DejaVuSans-2e" x="63.623047"/>
       <use xlink:href="#DejaVuSans-32" x="95.410156"/>
      </g>
     </g>
    </g>
    <g id="ytick_8">
     <g id="line2d_18">
      <g>
       <use xlink:href="#mecf3238d67" x="90" y="29.273446" style="stroke: #000000; stroke-width: 0.8"/>
      </g>
     </g>
     <g id="text_17">
      <!-- 1.4 -->
      <g transform="translate(67.096875 33.072665) scale(0.1 -0.1)">
       <use xlink:href="#DejaVuSans-31"/>
       <use xlink:href="#DejaVuSans-2e" x="63.623047"/>
       <use xlink:href="#DejaVuSans-34" x="95.410156"/>
      </g>
     </g>
    </g>
   </g>
  </g>
 </g>
 <defs>
  <clipPath id="pd5d285a8d3">
   <rect x="90" y="25.92" width="558" height="166.32"/>
  </clipPath>
 </defs>
</svg>
