<?xml version="1.0" encoding="utf-8" standalone="no"?>
<!DOCTYPE svg PUBLIC "-//W3C//DTD SVG 1.1//EN"
  "http://www.w3.org/Graphics/SVG/1.1/DTD/svg11.dtd">
<svg xmlns:xlink="http://www.w3.org/1999/xlink" width="720pt" height="216pt" viewBox="0 0 720 216" xmlns="http://www.w3.org/2000/svg" version="1.1">
 <metadata>
  <rdf:RDF xmlns:dc="http://purl.org/dc/elements/1.1/" xmlns:cc="http://creativecommons.org/ns#" xmlns:rdf="http://www.w3.org/1999/02/22-rdf-syntax-ns#">
   <cc:Work>
    <dc:type rdf:resource="http://purl.org/dc/dcmitype/StillImage"/>
    <dc:date>2025-12-17T10:23:01.759875</dc:date>
    <dc:format>image/svg+xml</dc:format>
    <dc:creator>
     <cc:Agent>
      <dc:title>Matplotlib v3.8.2, https://matplotlib.org/</dc:title>
     </cc:Agent>
    </dc:creator>
   </cc:Work>
  </rdf:RDF>
 </metadata>
 <defs>
  <style type="text/css">*{stroke-linejoin: round; stroke-linecap: butt}</style>
 </defs>
 <g id="figure_1">
  <g id="patch_1">
   <path d="M 0 216 
L 720 216 
L 720 0 
L 0 0 
z
" style="fill: #ffffff"/>
  </g>
  <g id="axes_1">
   <g id="patch_2">
    <path d="M 90 192.24 
L 648 192.24 
L 648 25.92 
L 90 25.92 
z
" style="fill: #ffffff"/>
   </g>
   <g id="line2d_1">
    <path d="M 90 192.24 
L 648 192.24 
" clip-path="url(#peb3aa7c1f3)" style="fill: none; stroke: #000000; stroke-width: 0.5; stroke-linecap: square"/>
   </g>
   <g id="patch_3">
    <path d="M 108.310881 192.211565 
Q 106.779207 192.225659 105.12297 192.232789 
Q 103.466732 192.24 101.662864 192.24 
Q 96.283552 192.24 93.141776 192.186571 
Q 90 192.133142 90 192.041772 
Q 90 191.950075 93.141776 191.896728 
Q 96.283552 191.843299 101.662864 191.843299 
Q 103.466732 191.843299 105.12297 191.85051 
Q 106.779207 191.857639 108.310881 191.871734 
L 108.310881 191.950812 
Q 106.765367 191.932128 105.265988 191.923442 
Q 103.766608 191.914756 102.110371 191.914756 
Q 99.139293 191.914756 97.436921 191.948599 
Q 95.739162 191.982361 95.739162 192.041772 
Q 95.739162 192.100937 97.436921 192.134781 
Q 99.139293 192.168543 102.110371 192.168543 
Q 103.766608 192.168543 105.265988 192.159857 
Q 106.765367 192.151088 108.310881 192.132405 
L 108.310881 192.211565 
z
" clip-path="url(#peb3aa7c1f3)" style="fill: #0000ff"/>
   </g>
   <g id="patch_4">
    <path d="M 108.310881 191.807406 
Q 106.464199 191.825352 104.477989 191.834367 
Q 102.49178 191.843299 100.374251 191.843299 
Q 95.589292 191.843299 92.794646 191.78987 
Q 90 191.736441 90 191.645071 
Q 90 191.552636 92.843891 191.499617 
Q 95.691885 191.446597 100.645097 191.446597 
Q 102.553336 191.446597 104.301528 191.453809 
Q 106.053825 191.460938 107.605038 191.475033 
L 107.605038 191.554111 
Q 106.00458 191.536001 104.420537 191.527068 
Q 102.836494 191.518054 101.244243 191.518054 
Q 98.297759 191.518054 96.701405 191.550997 
Q 95.105051 191.583857 95.105051 191.645071 
Q 95.105051 191.705711 96.643953 191.738817 
Q 98.182854 191.771842 101.014434 191.771842 
Q 101.785937 191.771842 102.446639 191.769957 
Q 103.107341 191.76799 103.632619 191.763893 
L 103.632619 191.68965 
L 100.616371 191.68965 
L 100.616371 191.623519 
L 108.310881 191.623519 
L 108.310881 191.807406 
z
" clip-path="url(#peb3aa7c1f3)" style="fill: #ffa600"/>
   </g>
   <g id="patch_5">
    <path d="M 90 190.967465 
L 108.310881 190.967465 
L 108.310881 191.060909 
L 101.723222 191.060909 
L 101.723222 191.446597 
L 96.600434 191.446597 
L 96.600434 191.060909 
L 90 191.060909 
L 90 190.967465 
z
" clip-path="url(#peb3aa7c1f3)" style="fill: #ff0000"/>
   </g>
   <g id="patch_6">
    <path d="M 102.683963 190.872673 
L 95.641893 190.872673 
L 94.529987 190.967465 
L 90 190.967465 
L 96.469271 190.447116 
L 101.84161 190.447116 
L 108.310881 190.967465 
L 103.784638 190.967465 
L 102.683963 190.872673 
z
M 96.76503 190.776098 
L 101.549595 190.776098 
L 99.161056 190.569118 
L 96.76503 190.776098 
z
" clip-path="url(#peb3aa7c1f3)" style="fill: #008000"/>
   </g>
   <g id="patch_7">
    <path d="M 127.585492 192.069101 
Q 126.053819 192.153812 124.397581 192.196659 
Q 122.741344 192.24 120.937475 192.24 
Q 115.558164 192.24 112.416388 191.918886 
Q 109.274611 191.597773 109.274611 191.048629 
Q 109.274611 190.497515 112.416388 190.176894 
Q 115.558164 189.85578 120.937475 189.85578 
Q 122.741344 189.85578 124.397581 189.89912 
Q 126.053819 189.941968 127.585492 190.026679 
L 127.585492 190.501947 
Q 126.039978 190.389656 124.540599 190.33745 
Q 123.04122 190.285245 121.384982 190.285245 
Q 118.413905 190.285245 116.711533 190.48865 
Q 115.013774 190.691562 115.013774 191.048629 
Q 115.013774 191.404218 116.711533 191.607623 
Q 118.413905 191.810535 121.384982 191.810535 
Q 123.04122 191.810535 124.540599 191.758329 
Q 126.039978 191.705631 127.585492 191.59334 
L 127.585492 192.069101 
z
" clip-path="url(#peb3aa7c1f3)" style="fill: #0000ff"/>
   </g>
   <g id="patch_8">
    <path d="M 109.274611 185.610705 
L 127.585492 185.610705 
L 127.585492 186.438613 
L 120.997833 186.438613 
L 120.997833 189.85578 
L 115.875045 189.85578 
L 115.875045 186.438613 
L 109.274611 186.438613 
L 109.274611 185.610705 
z
" clip-path="url(#peb3aa7c1f3)" style="fill: #ff0000"/>
   </g>
   <g id="patch_9">
    <path d="M 127.585492 185.079303 
Q 125.73881 185.345004 123.752601 185.478461 
Q 121.766391 185.610705 119.648862 185.610705 
Q 114.863903 185.610705 112.069257 184.819669 
Q 109.274611 184.028633 109.274611 182.675864 
Q 109.274611 181.307322 112.118502 180.522352 
Q 114.966497 179.737382 119.919709 179.737382 
Q 121.827947 179.737382 123.57614 179.844148 
Q 125.328436 179.9497 126.879649 180.158379 
L 126.879649 181.329161 
Q 125.279191 181.061033 123.695148 180.92879 
Q 122.111105 180.795333 120.518855 180.795333 
Q 117.57237 180.795333 115.976016 181.283057 
Q 114.379662 181.769569 114.379662 182.675864 
Q 114.379662 183.573665 115.918564 184.063817 
Q 117.457466 184.552755 120.289045 184.552755 
Q 121.060548 184.552755 121.72125 184.52485 
Q 122.381952 184.495732 122.90723 184.43507 
L 122.90723 183.335869 
L 119.890983 183.335869 
L 119.890983 182.35678 
L 127.585492 182.35678 
L 127.585492 185.079303 
z
" clip-path="url(#peb3aa7c1f3)" style="fill: #ffa600"/>
   </g>
   <g id="patch_10">
    <path d="M 121.958575 178.328456 
L 114.916504 178.328456 
L 113.804598 179.737382 
L 109.274611 179.737382 
L 115.743882 172.003205 
L 121.116222 172.003205 
L 127.585492 179.737382 
L 123.059249 179.737382 
L 121.958575 178.328456 
z
M 116.039641 176.893008 
L 120.824206 176.893008 
L 118.435667 173.816576 
L 116.039641 176.893008 
z
" clip-path="url(#peb3aa7c1f3)" style="fill: #008000"/>
   </g>
   <g id="patch_11">
    <path d="M 146.860104 192.112274 
Q 145.32843 192.175585 143.672193 192.207608 
Q 142.015955 192.24 140.212087 192.24 
Q 134.832775 192.24 131.690999 192.000007 
Q 128.549223 191.760014 128.549223 191.349597 
Q 128.549223 190.937707 131.690999 190.698083 
Q 134.832775 190.45809 140.212087 190.45809 
Q 142.015955 190.45809 143.672193 190.490482 
Q 145.32843 190.522505 146.860104 190.585816 
L 146.860104 190.94102 
Q 145.31459 190.857096 143.81521 190.818079 
Q 142.315831 190.779062 140.659594 190.779062 
Q 137.688516 190.779062 135.986144 190.931082 
Q 134.288385 191.082734 134.288385 191.349597 
Q 134.288385 191.615356 135.986144 191.767376 
Q 137.688516 191.919028 140.659594 191.919028 
Q 142.315831 191.919028 143.81521 191.880011 
Q 145.31459 191.840625 146.860104 191.756701 
L 146.860104 192.112274 
z
" clip-path="url(#peb3aa7c1f3)" style="fill: #0000ff"/>
   </g>
   <g id="patch_12">
    <path d="M 141.233186 189.571996 
L 134.191116 189.571996 
L 133.07921 190.45809 
L 128.549223 190.45809 
L 135.018493 185.593957 
L 140.390833 185.593957 
L 146.860104 190.45809 
L 142.333861 190.45809 
L 141.233186 189.571996 
z
M 135.314253 188.669223 
L 140.098817 188.669223 
L 137.710279 186.734411 
L 135.314253 188.669223 
z
" clip-path="url(#peb3aa7c1f3)" style="fill: #008000"/>
   </g>
   <g id="patch_13">
    <path d="M 128.549223 180.729823 
L 146.860104 180.729823 
L 146.860104 181.678465 
L 140.272445 181.678465 
L 140.272445 185.593957 
L 135.149657 185.593957 
L 135.149657 181.678465 
L 128.549223 181.678465 
L 128.549223 180.729823 
z
" clip-path="url(#peb3aa7c1f3)" style="fill: #ff0000"/>
   </g>
   <g id="patch_14">
    <path d="M 146.860104 180.254872 
Q 145.013421 180.492348 143.027212 180.611628 
Q 141.041003 180.729823 138.923474 180.729823 
Q 134.138515 180.729823 131.343869 180.022817 
Q 128.549223 179.315812 128.549223 178.106745 
Q 128.549223 176.883581 131.393114 176.181997 
Q 134.241108 175.480412 139.19432 175.480412 
Q 141.102559 175.480412 142.850751 175.575837 
Q 144.603047 175.670176 146.154261 175.856687 
L 146.154261 176.903099 
Q 144.553803 176.663455 142.96976 176.545259 
Q 141.385717 176.425979 139.793466 176.425979 
Q 136.846982 176.425979 135.250628 176.861893 
Q 133.654273 177.296724 133.654273 178.106745 
Q 133.654273 178.909175 135.193175 179.347258 
Q 136.732077 179.784257 139.563657 179.784257 
Q 140.33516 179.784257 140.995861 179.759317 
Q 141.656563 179.733292 142.181842 179.679074 
L 142.181842 178.696639 
L 139.165594 178.696639 
L 139.165594 177.821557 
L 146.860104 177.821557 
L 146.860104 180.254872 
z
" clip-path="url(#peb3aa7c1f3)" style="fill: #ffa600"/>
   </g>
   <g id="patch_15">
    <path d="M 166.134715 192.145702 
Q 164.603041 192.192443 162.946804 192.216086 
Q 161.290567 192.24 159.486698 192.24 
Q 154.107387 192.24 150.96561 192.062817 
Q 147.823834 191.885634 147.823834 191.582628 
Q 147.823834 191.278536 150.96561 191.101625 
Q 154.107387 190.924442 159.486698 190.924442 
Q 161.290567 190.924442 162.946804 190.948356 
Q 164.603041 190.971999 166.134715 191.01874 
L 166.134715 191.280982 
Q 164.589201 191.219022 163.089822 191.190217 
Q 161.590443 191.161411 159.934205 191.161411 
Q 156.963127 191.161411 155.260755 191.273645 
Q 153.562997 191.385607 153.562997 191.582628 
Q 153.562997 191.778834 155.260755 191.891069 
Q 156.963127 192.003031 159.934205 192.003031 
Q 161.590443 192.003031 163.089822 191.974225 
Q 164.589201 191.945148 166.134715 191.883188 
L 166.134715 192.145702 
z
" clip-path="url(#peb3aa7c1f3)" style="fill: #0000ff"/>
   </g>
   <g id="patch_16">
    <path d="M 147.823834 189.532619 
L 166.134715 189.532619 
L 166.134715 189.804063 
L 159.547056 189.804063 
L 159.547056 190.924442 
L 154.424268 190.924442 
L 154.424268 189.804063 
L 147.823834 189.804063 
L 147.823834 189.532619 
z
" clip-path="url(#peb3aa7c1f3)" style="fill: #ff0000"/>
   </g>
   <g id="patch_17">
    <path d="M 166.134715 189.38599 
Q 164.288033 189.459305 162.301823 189.496129 
Q 160.315614 189.532619 158.198085 189.532619 
Q 153.413126 189.532619 150.61848 189.31435 
Q 147.823834 189.096081 147.823834 188.722814 
Q 147.823834 188.345194 150.667725 188.128599 
Q 153.515719 187.912004 158.468932 187.912004 
Q 160.37717 187.912004 162.125363 187.941463 
Q 163.877659 187.970588 165.428872 188.028168 
L 165.428872 188.35122 
Q 163.828414 188.277236 162.244371 188.240747 
Q 160.660328 188.203922 159.068077 188.203922 
Q 156.121593 188.203922 154.525239 188.338499 
Q 152.928885 188.472741 152.928885 188.722814 
Q 152.928885 188.970542 154.467787 189.105789 
Q 156.006689 189.240701 158.838268 189.240701 
Q 159.609771 189.240701 160.270473 189.233001 
Q 160.931175 189.224967 161.456453 189.208228 
L 161.456453 188.904928 
L 158.440205 188.904928 
L 158.440205 188.634769 
L 166.134715 188.634769 
L 166.134715 189.38599 
z
" clip-path="url(#peb3aa7c1f3)" style="fill: #ffa600"/>
   </g>
   <g id="patch_18">
    <path d="M 160.507797 187.491741 
L 153.465727 187.491741 
L 152.353821 187.912004 
L 147.823834 187.912004 
L 154.293105 185.60501 
L 159.665445 185.60501 
L 166.134715 187.912004 
L 161.608472 187.912004 
L 160.507797 187.491741 
z
M 154.588864 187.063568 
L 159.373429 187.063568 
L 156.98489 186.145913 
L 154.588864 187.063568 
z
" clip-path="url(#peb3aa7c1f3)" style="fill: #008000"/>
   </g>
   <g id="patch_19">
    <path d="M 185.409326 191.977091 
Q 183.877653 192.107409 182.221415 192.173326 
Q 180.565178 192.24 178.761309 192.24 
Q 173.381998 192.24 170.240222 191.746003 
Q 167.098446 191.252006 167.098446 190.40721 
Q 167.098446 189.559384 170.240222 189.066145 
Q 173.381998 188.572148 178.761309 188.572148 
Q 180.565178 188.572148 182.221415 188.638822 
Q 183.877653 188.704739 185.409326 188.835057 
L 185.409326 189.566203 
Q 183.863812 189.393456 182.364433 189.313144 
Q 180.865054 189.232831 179.208817 189.232831 
Q 176.237739 189.232831 174.535367 189.545746 
Q 172.837608 189.857904 172.837608 190.40721 
Q 172.837608 190.954244 174.535367 191.267159 
Q 176.237739 191.579317 179.208817 191.579317 
Q 180.865054 191.579317 182.364433 191.499004 
Q 183.863812 191.417934 185.409326 191.245187 
L 185.409326 191.977091 
z
" clip-path="url(#peb3aa7c1f3)" style="fill: #0000ff"/>
   </g>
   <g id="patch_20">
    <path d="M 167.098446 181.411104 
L 185.409326 181.411104 
L 185.409326 182.807707 
L 178.821668 182.807707 
L 178.821668 188.572148 
L 173.698879 188.572148 
L 173.698879 182.807707 
L 167.098446 182.807707 
L 167.098446 181.411104 
z
" clip-path="url(#peb3aa7c1f3)" style="fill: #ff0000"/>
   </g>
   <g id="patch_21">
    <path d="M 185.409326 179.435765 
Q 183.562644 180.423434 181.576435 180.919524 
Q 179.590225 181.411104 177.472696 181.411104 
Q 172.687737 181.411104 169.893091 178.470645 
Q 167.098446 175.530187 167.098446 170.501642 
Q 167.098446 165.414469 169.942336 162.49656 
Q 172.790331 159.578651 177.743543 159.578651 
Q 179.651781 159.578651 181.399974 159.975523 
Q 183.15227 160.367885 184.703483 161.143588 
L 184.703483 165.495647 
Q 183.103025 164.498958 181.518982 164.007378 
Q 179.934939 163.511289 178.342689 163.511289 
Q 175.396205 163.511289 173.79985 165.324271 
Q 172.203496 167.132743 172.203496 170.501642 
Q 172.203496 173.838972 173.742398 175.660974 
Q 175.2813 177.478466 178.11288 177.478466 
Q 178.884382 177.478466 179.545084 177.374738 
Q 180.205786 177.2665 180.731065 177.041005 
L 180.731065 172.955031 
L 177.714817 172.955031 
L 177.714817 169.315537 
L 185.409326 169.315537 
L 185.409326 179.435765 
z
" clip-path="url(#peb3aa7c1f3)" style="fill: #ffa600"/>
   </g>
   <g id="patch_22">
    <path d="M 179.782409 154.456026 
L 172.740338 154.456026 
L 171.628432 159.578651 
L 167.098446 159.578651 
L 173.567716 131.458452 
L 178.940056 131.458452 
L 185.409326 159.578651 
L 180.883083 159.578651 
L 179.782409 154.456026 
z
M 173.863476 149.236975 
L 178.64804 149.236975 
L 176.259502 138.051572 
L 173.863476 149.236975 
z
" clip-path="url(#peb3aa7c1f3)" style="fill: #008000"/>
   </g>
   <g id="patch_23">
    <path d="M 204.683938 192.093147 
Q 203.152264 192.165939 201.496027 192.202758 
Q 199.839789 192.24 198.035921 192.24 
Q 192.656609 192.24 189.514833 191.964069 
Q 186.373057 191.688138 186.373057 191.216261 
Q 186.373057 190.742692 189.514833 190.467184 
Q 192.656609 190.191253 198.035921 190.191253 
Q 199.839789 190.191253 201.496027 190.228496 
Q 203.152264 190.265315 204.683938 190.338106 
L 204.683938 190.746501 
Q 203.138424 190.65001 201.639045 190.60515 
Q 200.139665 190.56029 198.483428 190.56029 
Q 195.51235 190.56029 193.809978 190.735075 
Q 192.112219 190.909436 192.112219 191.216261 
Q 192.112219 191.521817 193.809978 191.696602 
Q 195.51235 191.870963 198.483428 191.870963 
Q 200.139665 191.870963 201.639045 191.826103 
Q 203.138424 191.78082 204.683938 191.684329 
L 204.683938 192.093147 
z
" clip-path="url(#peb3aa7c1f3)" style="fill: #0000ff"/>
   </g>
   <g id="patch_24">
    <path d="M 186.373057 181.508469 
L 204.683938 181.508469 
L 204.683938 183.201854 
L 198.096279 183.201854 
L 198.096279 190.191253 
L 192.973491 190.191253 
L 192.973491 183.201854 
L 186.373057 183.201854 
L 186.373057 181.508469 
z
" clip-path="url(#peb3aa7c1f3)" style="fill: #ff0000"/>
   </g>
   <g id="patch_25">
    <path d="M 199.05702 179.429113 
L 192.01495 179.429113 
L 190.903044 181.508469 
L 186.373057 181.508469 
L 192.842328 170.094023 
L 198.214667 170.094023 
L 204.683938 181.508469 
L 200.157695 181.508469 
L 199.05702 179.429113 
z
M 193.138087 177.310615 
L 197.922652 177.310615 
L 195.534113 172.770278 
L 193.138087 177.310615 
z
" clip-path="url(#peb3aa7c1f3)" style="fill: #008000"/>
   </g>
   <g id="patch_26">
    <path d="M 204.683938 169.025969 
Q 202.837256 169.559996 200.851046 169.828229 
Q 198.864837 170.094023 196.747308 170.094023 
Q 191.962349 170.094023 189.167703 168.504134 
Q 186.373057 166.914245 186.373057 164.195339 
Q 186.373057 161.444733 189.216948 159.867037 
Q 192.064942 158.28934 197.018154 158.28934 
Q 198.926393 158.28934 200.674585 158.503926 
Q 202.426882 158.716074 203.978095 159.135492 
L 203.978095 161.488626 
Q 202.377637 160.949722 200.793594 160.683928 
Q 199.209551 160.415695 197.6173 160.415695 
Q 194.670816 160.415695 193.074462 161.395964 
Q 191.478108 162.373794 191.478108 164.195339 
Q 191.478108 165.999815 193.017009 166.984961 
Q 194.555911 167.967668 197.387491 167.967668 
Q 198.158994 167.967668 198.819696 167.911583 
Q 199.480398 167.85306 200.005676 167.731136 
L 200.005676 165.521873 
L 196.989428 165.521873 
L 196.989428 163.554019 
L 204.683938 163.554019 
L 204.683938 169.025969 
z
" clip-path="url(#peb3aa7c1f3)" style="fill: #ffa600"/>
   </g>
   <g id="patch_27">
    <path d="M 218.331632 191.901948 
L 211.289561 191.901948 
L 210.177655 192.24 
L 205.647668 192.24 
L 212.116939 190.384292 
L 217.489279 190.384292 
L 223.958549 192.24 
L 219.432306 192.24 
L 218.331632 191.901948 
z
M 212.412698 191.557532 
L 217.197263 191.557532 
L 214.808724 190.819385 
L 212.412698 191.557532 
z
" clip-path="url(#peb3aa7c1f3)" style="fill: #008000"/>
   </g>
   <g id="patch_28">
    <path d="M 223.958549 190.201081 
Q 222.426876 190.291895 220.770638 190.33783 
Q 219.114401 190.384292 217.310532 190.384292 
Q 211.931221 190.384292 208.789445 190.040046 
Q 205.647668 189.6958 205.647668 189.107097 
Q 205.647668 188.516282 208.789445 188.172563 
Q 211.931221 187.828317 217.310532 187.828317 
Q 219.114401 187.828317 220.770638 187.87478 
Q 222.426876 187.920715 223.958549 188.011528 
L 223.958549 188.521034 
Q 222.413035 188.400653 220.913656 188.344687 
Q 219.414277 188.28872 217.758039 188.28872 
Q 214.786962 188.28872 213.08459 188.506778 
Q 211.386831 188.724308 211.386831 189.107097 
Q 211.386831 189.488302 213.08459 189.70636 
Q 214.786962 189.923889 217.758039 189.923889 
Q 219.414277 189.923889 220.913656 189.867923 
Q 222.413035 189.811429 223.958549 189.691048 
L 223.958549 190.201081 
z
" clip-path="url(#peb3aa7c1f3)" style="fill: #0000ff"/>
   </g>
   <g id="patch_29">
    <path d="M 205.647668 184.432022 
L 223.958549 184.432022 
L 223.958549 185.094394 
L 217.37089 185.094394 
L 217.37089 187.828317 
L 212.248102 187.828317 
L 212.248102 185.094394 
L 205.647668 185.094394 
L 205.647668 184.432022 
z
" clip-path="url(#peb3aa7c1f3)" style="fill: #ff0000"/>
   </g>
   <g id="patch_30">
    <path d="M 223.958549 184.036033 
Q 222.111867 184.234028 220.125658 184.333477 
Q 218.139448 184.432022 216.021919 184.432022 
Q 211.23696 184.432022 208.442314 183.842559 
Q 205.647668 183.253097 205.647668 182.245043 
Q 205.647668 181.225237 208.491559 180.640295 
Q 211.339554 180.055353 216.292766 180.055353 
Q 218.201004 180.055353 219.949197 180.134912 
Q 221.701493 180.213567 223.252706 180.36907 
L 223.252706 181.241511 
Q 221.652248 181.041708 220.068205 180.943163 
Q 218.484162 180.843714 216.891912 180.843714 
Q 213.945427 180.843714 212.349073 181.207155 
Q 210.752719 181.569693 210.752719 182.245043 
Q 210.752719 182.914065 212.291621 183.279315 
Q 213.830523 183.643661 216.662102 183.643661 
Q 217.433605 183.643661 218.094307 183.622867 
Q 218.755009 183.601169 219.280287 183.555965 
L 219.280287 182.736865 
L 216.26404 182.736865 
L 216.26404 182.007269 
L 223.958549 182.007269 
L 223.958549 184.036033 
z
" clip-path="url(#peb3aa7c1f3)" style="fill: #ffa600"/>
   </g>
   <g id="patch_31">
    <path d="M 243.233161 191.928583 
Q 241.701487 192.082945 240.04525 192.161024 
Q 238.389012 192.24 236.585144 192.24 
Q 231.205832 192.24 228.064056 191.654859 
Q 224.92228 191.069717 224.92228 190.069054 
Q 224.92228 189.064801 228.064056 188.480557 
Q 231.205832 187.895416 236.585144 187.895416 
Q 238.389012 187.895416 240.04525 187.974392 
Q 241.701487 188.05247 243.233161 188.206833 
L 243.233161 189.072878 
Q 241.687647 188.868258 240.188267 188.773128 
Q 238.688888 188.677997 237.032651 188.677997 
Q 234.061573 188.677997 232.359201 189.048647 
Q 230.661442 189.418398 230.661442 190.069054 
Q 230.661442 190.717017 232.359201 191.087667 
Q 234.061573 191.457418 237.032651 191.457418 
Q 238.688888 191.457418 240.188267 191.362288 
Q 241.687647 191.26626 243.233161 191.06164 
L 243.233161 191.928583 
z
" clip-path="url(#peb3aa7c1f3)" style="fill: #0000ff"/>
   </g>
   <g id="patch_32">
    <path d="M 224.92228 178.20365 
L 243.233161 178.20365 
L 243.233161 180.093815 
L 236.645502 180.093815 
L 236.645502 187.895416 
L 231.522714 187.895416 
L 231.522714 180.093815 
L 224.92228 180.093815 
L 224.92228 178.20365 
z
" clip-path="url(#peb3aa7c1f3)" style="fill: #ff0000"/>
   </g>
   <g id="patch_33">
    <path d="M 243.233161 175.996323 
Q 241.386478 177.099987 239.400269 177.654338 
Q 237.41406 178.20365 235.296531 178.20365 
Q 230.511572 178.20365 227.716926 174.917857 
Q 224.92228 171.632064 224.92228 166.012954 
Q 224.92228 160.328329 227.766171 157.067734 
Q 230.614165 153.807138 235.567377 153.807138 
Q 237.475616 153.807138 239.223808 154.25062 
Q 240.976104 154.689061 242.527318 155.555866 
L 242.527318 160.419042 
Q 240.92686 159.305299 239.342817 158.755987 
Q 237.758774 158.201635 236.166523 158.201635 
Q 233.220039 158.201635 231.623685 160.227538 
Q 230.02733 162.248402 230.02733 166.012954 
Q 230.02733 169.742228 231.566232 171.778211 
Q 233.105134 173.809154 235.936714 173.809154 
Q 236.708217 173.809154 237.368918 173.693244 
Q 238.02962 173.572294 238.554899 173.320316 
L 238.554899 168.754475 
L 235.538651 168.754475 
L 235.538651 164.687549 
L 243.233161 164.687549 
L 243.233161 175.996323 
z
" clip-path="url(#peb3aa7c1f3)" style="fill: #ffa600"/>
   </g>
   <g id="patch_34">
    <path d="M 237.606243 139.621953 
L 230.564173 139.621953 
L 229.452267 153.807138 
L 224.92228 153.807138 
L 231.39155 75.938818 
L 236.76389 75.938818 
L 243.233161 153.807138 
L 238.706918 153.807138 
L 237.606243 139.621953 
z
M 231.68731 125.169754 
L 236.471874 125.169754 
L 234.083336 94.195985 
L 231.68731 125.169754 
z
" clip-path="url(#peb3aa7c1f3)" style="fill: #008000"/>
   </g>
   <g id="patch_35">
    <path d="M 256.880854 191.615902 
L 249.838784 191.615902 
L 248.726878 192.24 
L 244.196891 192.24 
L 250.666162 188.814071 
L 256.038502 188.814071 
L 262.507772 192.24 
L 257.981529 192.24 
L 256.880854 191.615902 
z
M 250.961921 190.980057 
L 255.746486 190.980057 
L 253.357947 189.617321 
L 250.961921 190.980057 
z
" clip-path="url(#peb3aa7c1f3)" style="fill: #008000"/>
   </g>
   <g id="patch_36">
    <path d="M 262.507772 188.488316 
Q 260.976098 188.649785 259.319861 188.731459 
Q 257.663624 188.814071 255.859755 188.814071 
Q 250.480444 188.814071 247.338667 188.201991 
Q 244.196891 187.58991 244.196891 186.543179 
Q 244.196891 185.492692 247.338667 184.88155 
Q 250.480444 184.26947 255.859755 184.26947 
Q 257.663624 184.26947 259.319861 184.352082 
Q 260.976098 184.433756 262.507772 184.595224 
L 262.507772 185.50114 
Q 260.962258 185.2871 259.462879 185.18759 
Q 257.9635 185.08808 256.307262 185.08808 
Q 253.336184 185.08808 251.633812 185.475794 
Q 249.936054 185.862568 249.936054 186.543179 
Q 249.936054 187.220973 251.633812 187.608686 
Q 253.336184 187.99546 256.307262 187.99546 
Q 257.9635 187.99546 259.462879 187.89595 
Q 260.962258 187.795502 262.507772 187.581462 
L 262.507772 188.488316 
z
" clip-path="url(#peb3aa7c1f3)" style="fill: #0000ff"/>
   </g>
   <g id="patch_37">
    <path d="M 262.507772 183.757073 
Q 260.66109 184.013272 258.67488 184.141956 
Q 256.688671 184.26947 254.571142 184.26947 
Q 249.786183 184.26947 246.991537 183.506724 
Q 244.196891 182.743978 244.196891 181.439589 
Q 244.196891 180.119992 247.040782 179.363096 
Q 249.888776 178.606199 254.841989 178.606199 
Q 256.750227 178.606199 258.49842 178.709146 
Q 260.250716 178.810924 261.801929 179.012139 
L 261.801929 180.14105 
Q 260.201471 179.882512 258.617428 179.754997 
Q 257.033385 179.626313 255.441134 179.626313 
Q 252.49465 179.626313 250.898296 180.096595 
Q 249.301942 180.565707 249.301942 181.439589 
Q 249.301942 182.305283 250.840844 182.777904 
Q 252.379746 183.249356 255.211325 183.249356 
Q 255.982828 183.249356 256.64353 183.222449 
Q 257.304232 183.194373 257.82951 183.13588 
L 257.82951 182.075991 
L 254.813262 182.075991 
L 254.813262 181.131917 
L 262.507772 181.131917 
L 262.507772 183.757073 
z
" clip-path="url(#peb3aa7c1f3)" style="fill: #ffa600"/>
   </g>
   <g id="patch_38">
    <path d="M 244.196891 167.908909 
L 262.507772 167.908909 
L 262.507772 169.995179 
L 255.920113 169.995179 
L 255.920113 178.606199 
L 250.797325 178.606199 
L 250.797325 169.995179 
L 244.196891 169.995179 
L 244.196891 167.908909 
z
" clip-path="url(#peb3aa7c1f3)" style="fill: #ff0000"/>
   </g>
   <g id="patch_39">
    <path d="M 263.471503 188.984627 
L 281.782383 188.984627 
L 281.782383 189.619515 
L 275.194725 189.619515 
L 275.194725 192.24 
L 270.071936 192.24 
L 270.071936 189.619515 
L 263.471503 189.619515 
L 263.471503 188.984627 
z
" clip-path="url(#peb3aa7c1f3)" style="fill: #ff0000"/>
   </g>
   <g id="patch_40">
    <path d="M 276.155466 188.286172 
L 269.113395 188.286172 
L 268.001489 188.984627 
L 263.471503 188.984627 
L 269.940773 185.150521 
L 275.313113 185.150521 
L 281.782383 188.984627 
L 277.25614 188.984627 
L 276.155466 188.286172 
z
M 270.236533 187.57457 
L 275.021097 187.57457 
L 272.632559 186.049473 
L 270.236533 187.57457 
z
" clip-path="url(#peb3aa7c1f3)" style="fill: #008000"/>
   </g>
   <g id="patch_41">
    <path d="M 281.782383 184.502345 
Q 280.25071 184.823631 278.594472 184.986142 
Q 276.938235 185.150521 275.134366 185.150521 
Q 269.755055 185.150521 266.613279 183.932623 
Q 263.471503 182.714726 263.471503 180.631971 
Q 263.471503 178.541745 266.613279 177.325716 
Q 269.755055 176.107818 275.134366 176.107818 
Q 276.938235 176.107818 278.594472 176.272197 
Q 280.25071 176.434708 281.782383 176.755994 
L 281.782383 178.558557 
Q 280.236869 178.132666 278.73749 177.934664 
Q 277.238111 177.736663 275.581874 177.736663 
Q 272.610796 177.736663 270.908424 178.508122 
Q 269.210665 179.277714 269.210665 180.631971 
Q 269.210665 181.980625 270.908424 182.752085 
Q 272.610796 183.521676 275.581874 183.521676 
Q 277.238111 183.521676 278.73749 183.323675 
Q 280.236869 183.123805 281.782383 182.697914 
L 281.782383 184.502345 
z
" clip-path="url(#peb3aa7c1f3)" style="fill: #0000ff"/>
   </g>
   <g id="patch_42">
    <path d="M 281.782383 175.28966 
Q 279.935701 175.698739 277.949492 175.904212 
Q 275.963282 176.107818 273.845753 176.107818 
Q 269.060794 176.107818 266.266148 174.88992 
Q 263.471503 173.672023 263.471503 171.589269 
Q 263.471503 169.482231 266.315393 168.273673 
Q 269.163388 167.065115 274.1166 167.065115 
Q 276.024838 167.065115 277.773031 167.229494 
Q 279.525327 167.392005 281.07654 167.713291 
L 281.07654 169.515854 
Q 279.476082 169.103039 277.892039 168.899433 
Q 276.307996 168.69396 274.715746 168.69396 
Q 271.769262 168.69396 270.172907 169.444872 
Q 268.576553 170.193917 268.576553 171.589269 
Q 268.576553 172.971545 270.115455 173.726193 
Q 271.654357 174.478973 274.485937 174.478973 
Q 275.257439 174.478973 275.918141 174.436011 
Q 276.578843 174.39118 277.104122 174.297783 
L 277.104122 172.605428 
L 274.087874 172.605428 
L 274.087874 171.098 
L 281.782383 171.098 
L 281.782383 175.28966 
z
" clip-path="url(#peb3aa7c1f3)" style="fill: #ffa600"/>
   </g>
   <g id="patch_43">
    <path d="M 301.056995 192.114644 
Q 299.210313 192.177322 297.224103 192.208804 
Q 295.237894 192.24 293.120365 192.24 
Q 288.335406 192.24 285.54076 192.053396 
Q 282.746114 191.866793 282.746114 191.547678 
Q 282.746114 191.224842 285.590005 191.039669 
Q 288.437999 190.854497 293.391211 190.854497 
Q 295.29945 190.854497 297.047642 190.879683 
Q 298.799939 190.904582 300.351152 190.953809 
L 300.351152 191.229994 
Q 298.750694 191.166743 297.166651 191.135547 
Q 295.582608 191.104065 293.990357 191.104065 
Q 291.043873 191.104065 289.447519 191.219118 
Q 287.851165 191.333885 287.851165 191.547678 
Q 287.851165 191.759467 289.390066 191.875093 
Q 290.928968 191.990432 293.760548 191.990432 
Q 294.532051 191.990432 295.192753 191.983849 
Q 295.853455 191.976981 296.378733 191.96267 
L 296.378733 191.703372 
L 293.362485 191.703372 
L 293.362485 191.472407 
L 301.056995 191.472407 
L 301.056995 192.114644 
z
" clip-path="url(#peb3aa7c1f3)" style="fill: #ffa600"/>
   </g>
   <g id="patch_44">
    <path d="M 295.430077 188.330541 
L 288.388007 188.330541 
L 287.276101 190.854497 
L 282.746114 190.854497 
L 289.215385 176.999466 
L 294.587724 176.999466 
L 301.056995 190.854497 
L 296.530752 190.854497 
L 295.430077 188.330541 
z
M 289.511144 185.759076 
L 294.295709 185.759076 
L 291.90717 180.247945 
L 289.511144 185.759076 
z
" clip-path="url(#peb3aa7c1f3)" style="fill: #008000"/>
   </g>
   <g id="patch_45">
    <path d="M 301.056995 175.112537 
Q 299.525321 176.047845 297.869084 176.520937 
Q 296.212846 176.999466 294.408978 176.999466 
Q 289.029666 176.999466 285.88789 173.453998 
Q 282.746114 169.908529 282.746114 163.845343 
Q 282.746114 157.760406 285.88789 154.220376 
Q 289.029666 150.674907 294.408978 150.674907 
Q 296.212846 150.674907 297.869084 151.153437 
Q 299.525321 151.626528 301.056995 152.561836 
L 301.056995 157.809347 
Q 299.511481 156.56952 298.012102 155.99311 
Q 296.512722 155.416699 294.856485 155.416699 
Q 291.885407 155.416699 290.183035 157.662525 
Q 288.485276 159.902913 288.485276 163.845343 
Q 288.485276 167.77146 290.183035 170.017286 
Q 291.885407 172.257674 294.856485 172.257674 
Q 296.512722 172.257674 298.012102 171.681263 
Q 299.511481 171.099415 301.056995 169.859589 
L 301.056995 175.112537 
z
" clip-path="url(#peb3aa7c1f3)" style="fill: #0000ff"/>
   </g>
   <g id="patch_46">
    <path d="M 282.746114 71.701231 
L 301.056995 71.701231 
L 301.056995 87.103298 
L 294.469336 87.103298 
L 294.469336 150.674907 
L 289.346548 150.674907 
L 289.346548 87.103298 
L 282.746114 87.103298 
L 282.746114 71.701231 
z
" clip-path="url(#peb3aa7c1f3)" style="fill: #ff0000"/>
   </g>
   <g id="patch_47">
    <path d="M 320.331606 191.67929 
Q 318.799933 191.957221 317.143695 192.097803 
Q 315.487458 192.24 313.683589 192.24 
Q 308.304278 192.24 305.162502 191.186447 
Q 302.020725 190.132894 302.020725 188.331188 
Q 302.020725 186.523019 305.162502 185.471082 
Q 308.304278 184.417529 313.683589 184.417529 
Q 315.487458 184.417529 317.143695 184.559726 
Q 318.799933 184.700308 320.331606 184.978239 
L 320.331606 186.537562 
Q 318.786092 186.169142 317.286713 185.997859 
Q 315.787334 185.826576 314.131096 185.826576 
Q 311.160019 185.826576 309.457647 186.493934 
Q 307.759888 187.159676 307.759888 188.331188 
Q 307.759888 189.497853 309.457647 190.165211 
Q 311.160019 190.830953 314.131096 190.830953 
Q 315.787334 190.830953 317.286713 190.65967 
Q 318.786092 190.486771 320.331606 190.118351 
L 320.331606 191.67929 
z
" clip-path="url(#peb3aa7c1f3)" style="fill: #0000ff"/>
   </g>
   <g id="patch_48">
    <path d="M 320.331606 183.568223 
Q 318.484924 183.992876 316.498715 184.206172 
Q 314.512505 184.417529 312.394976 184.417529 
Q 307.610017 184.417529 304.815371 183.153265 
Q 302.020725 181.889001 302.020725 179.726955 
Q 302.020725 177.539701 304.864616 176.285132 
Q 307.712611 175.030564 312.665823 175.030564 
Q 314.574061 175.030564 316.322254 175.2012 
Q 318.07455 175.369898 319.625763 175.703416 
L 319.625763 177.574604 
Q 318.025305 177.146073 316.441262 176.934716 
Q 314.857219 176.72142 313.264969 176.72142 
Q 310.318484 176.72142 308.72213 177.50092 
Q 307.125776 178.278481 307.125776 179.726955 
Q 307.125776 181.161856 308.664678 181.945234 
Q 310.20358 182.726673 313.035159 182.726673 
Q 313.806662 182.726673 314.467364 182.682075 
Q 315.128066 182.635537 315.653344 182.538585 
L 315.653344 180.781801 
L 312.637097 180.781801 
L 312.637097 179.216983 
L 320.331606 179.216983 
L 320.331606 183.568223 
z
" clip-path="url(#peb3aa7c1f3)" style="fill: #ffa600"/>
   </g>
   <g id="patch_49">
    <path d="M 314.704689 171.610538 
L 307.662618 171.610538 
L 306.550712 175.030564 
L 302.020725 175.030564 
L 308.489996 156.256633 
L 313.862336 156.256633 
L 320.331606 175.030564 
L 315.805363 175.030564 
L 314.704689 171.610538 
z
M 308.785755 168.126135 
L 313.57032 168.126135 
L 311.181781 160.658408 
L 308.785755 168.126135 
z
" clip-path="url(#peb3aa7c1f3)" style="fill: #008000"/>
   </g>
   <g id="patch_50">
    <path d="M 302.020725 56.129003 
L 320.331606 56.129003 
L 320.331606 75.65668 
L 313.743947 75.65668 
L 313.743947 156.256633 
L 308.621159 156.256633 
L 308.621159 75.65668 
L 302.020725 75.65668 
L 302.020725 56.129003 
z
" clip-path="url(#peb3aa7c1f3)" style="fill: #ff0000"/>
   </g>
   <g id="patch_51">
    <path d="M 321.295337 188.278376 
L 339.606218 188.278376 
L 339.606218 189.051003 
L 333.018559 189.051003 
L 333.018559 192.24 
L 327.895771 192.24 
L 327.895771 189.051003 
L 321.295337 189.051003 
L 321.295337 188.278376 
z
" clip-path="url(#peb3aa7c1f3)" style="fill: #ff0000"/>
   </g>
   <g id="patch_52">
    <path d="M 333.9793 186.835007 
L 326.93723 186.835007 
L 325.825324 188.278376 
L 321.295337 188.278376 
L 327.764607 180.355128 
L 333.136947 180.355128 
L 339.606218 188.278376 
L 335.079975 188.278376 
L 333.9793 186.835007 
z
M 328.060367 185.364468 
L 332.844931 185.364468 
L 330.456393 182.212829 
L 328.060367 185.364468 
z
" clip-path="url(#peb3aa7c1f3)" style="fill: #008000"/>
   </g>
   <g id="patch_53">
    <path d="M 339.606218 178.02529 
Q 337.759535 179.190209 335.773326 179.775328 
Q 333.787117 180.355128 331.669588 180.355128 
Q 326.884629 180.355128 324.089983 176.886968 
Q 321.295337 173.418808 321.295337 167.487829 
Q 321.295337 161.487699 324.139228 158.046136 
Q 326.987222 154.604572 331.940434 154.604572 
Q 333.848673 154.604572 335.596865 155.072667 
Q 337.349161 155.535443 338.900375 156.450356 
L 338.900375 161.583446 
Q 337.299917 160.407889 335.715874 159.828089 
Q 334.131831 159.24297 332.53958 159.24297 
Q 329.593096 159.24297 327.996742 161.381314 
Q 326.400387 163.514339 326.400387 167.487829 
Q 326.400387 171.424084 327.939289 173.573067 
Q 329.478191 175.71673 332.309771 175.71673 
Q 333.081274 175.71673 333.741975 175.594387 
Q 334.402677 175.466725 334.927956 175.200761 
L 334.927956 170.381508 
L 331.911708 170.381508 
L 331.911708 166.088862 
L 339.606218 166.088862 
L 339.606218 178.02529 
z
" clip-path="url(#peb3aa7c1f3)" style="fill: #ffa600"/>
   </g>
   <g id="patch_54">
    <path d="M 339.606218 151.125978 
Q 338.074544 152.850238 336.418307 153.722392 
Q 334.762069 154.604572 332.958201 154.604572 
Q 327.578889 154.604572 324.437113 148.068424 
Q 321.295337 141.532277 321.295337 130.354662 
Q 321.295337 119.136948 324.437113 112.610826 
Q 327.578889 106.074678 332.958201 106.074678 
Q 334.762069 106.074678 336.418307 106.956857 
Q 338.074544 107.829012 339.606218 109.553272 
L 339.606218 119.227171 
Q 338.060704 116.941525 336.561324 115.878899 
Q 335.061945 114.816274 333.405708 114.816274 
Q 330.43463 114.816274 328.732258 118.956503 
Q 327.034499 123.086706 327.034499 130.354662 
Q 327.034499 137.592543 328.732258 141.732772 
Q 330.43463 145.862976 333.405708 145.862976 
Q 335.061945 145.862976 336.561324 144.80035 
Q 338.060704 143.7277 339.606218 141.442054 
L 339.606218 151.125978 
z
" clip-path="url(#peb3aa7c1f3)" style="fill: #0000ff"/>
   </g>
   <g id="patch_55">
    <path d="M 358.880829 191.679759 
Q 357.034147 191.95988 355.047937 192.100579 
Q 353.061728 192.24 350.944199 192.24 
Q 346.15924 192.24 343.364594 191.406034 
Q 340.569948 190.572068 340.569948 189.145885 
Q 340.569948 187.703073 343.413839 186.875502 
Q 346.261833 186.047932 351.215046 186.047932 
Q 353.123284 186.047932 354.871477 186.160492 
Q 356.623773 186.271773 358.174986 186.491776 
L 358.174986 187.726096 
Q 356.574528 187.443418 354.990485 187.303997 
Q 353.406442 187.163297 351.814191 187.163297 
Q 348.867707 187.163297 347.271353 187.677491 
Q 345.674999 188.190405 345.674999 189.145885 
Q 345.674999 190.09241 347.213901 190.609162 
Q 348.752803 191.124635 351.584382 191.124635 
Q 352.355885 191.124635 353.016587 191.095216 
Q 353.677289 191.064518 354.202567 191.000563 
L 354.202567 189.841709 
L 351.186319 189.841709 
L 351.186319 188.809484 
L 358.880829 188.809484 
L 358.880829 191.679759 
z
" clip-path="url(#peb3aa7c1f3)" style="fill: #ffa600"/>
   </g>
   <g id="patch_56">
    <path d="M 353.253911 184.794596 
L 346.211841 184.794596 
L 345.099935 186.047932 
L 340.569948 186.047932 
L 347.039219 179.167857 
L 352.411559 179.167857 
L 358.880829 186.047932 
L 354.354586 186.047932 
L 353.253911 184.794596 
z
M 347.334978 183.517669 
L 352.119543 183.517669 
L 349.731004 180.780973 
L 347.334978 183.517669 
z
" clip-path="url(#peb3aa7c1f3)" style="fill: #008000"/>
   </g>
   <g id="patch_57">
    <path d="M 358.880829 178.181537 
Q 357.349155 178.670433 355.692918 178.917724 
Q 354.036681 179.167857 352.232812 179.167857 
Q 346.853501 179.167857 343.711724 177.314599 
Q 340.569948 175.461342 340.569948 172.292045 
Q 340.569948 169.111378 343.711724 167.260963 
Q 346.853501 165.407706 352.232812 165.407706 
Q 354.036681 165.407706 355.692918 165.657839 
Q 357.349155 165.905129 358.880829 166.394025 
L 358.880829 169.13696 
Q 357.335315 168.488888 355.835936 168.187592 
Q 354.336556 167.886295 352.680319 167.886295 
Q 349.709241 167.886295 348.006869 169.060214 
Q 346.309111 170.231291 346.309111 172.292045 
Q 346.309111 174.344271 348.006869 175.51819 
Q 349.709241 176.689267 352.680319 176.689267 
Q 354.336556 176.689267 355.835936 176.387971 
Q 357.335315 176.083832 358.880829 175.43576 
L 358.880829 178.181537 
z
" clip-path="url(#peb3aa7c1f3)" style="fill: #0000ff"/>
   </g>
   <g id="patch_58">
    <path d="M 340.569948 132.383343 
L 358.880829 132.383343 
L 358.880829 138.824014 
L 352.29317 138.824014 
L 352.29317 165.407706 
L 347.170382 165.407706 
L 347.170382 138.824014 
L 340.569948 138.824014 
L 340.569948 132.383343 
z
" clip-path="url(#peb3aa7c1f3)" style="fill: #ff0000"/>
   </g>
   <g id="patch_59">
    <path d="M 372.528523 191.053219 
L 365.486452 191.053219 
L 364.374546 192.24 
L 359.84456 192.24 
L 366.31383 185.725268 
L 371.68617 185.725268 
L 378.15544 192.24 
L 373.629197 192.24 
L 372.528523 191.053219 
z
M 366.60959 189.844098 
L 371.394154 189.844098 
L 369.005616 187.252725 
L 366.60959 189.844098 
z
" clip-path="url(#peb3aa7c1f3)" style="fill: #008000"/>
   </g>
   <g id="patch_60">
    <path d="M 378.15544 185.141553 
Q 376.623767 185.430887 374.967529 185.577236 
Q 373.311292 185.725268 371.507423 185.725268 
Q 366.128112 185.725268 362.986336 184.628489 
Q 359.84456 183.53171 359.84456 181.656083 
Q 359.84456 179.773728 362.986336 178.678631 
Q 366.128112 177.581853 371.507423 177.581853 
Q 373.311292 177.581853 374.967529 177.729884 
Q 376.623767 177.876233 378.15544 178.165568 
L 378.15544 179.788868 
Q 376.609926 179.405332 375.110547 179.227021 
Q 373.611168 179.04871 371.954931 179.04871 
Q 368.983853 179.04871 367.281481 179.743449 
Q 365.583722 180.436506 365.583722 181.656083 
Q 365.583722 182.870615 367.281481 183.565353 
Q 368.983853 184.25841 371.954931 184.25841 
Q 373.611168 184.25841 375.110547 184.080099 
Q 376.609926 183.900107 378.15544 183.51657 
L 378.15544 185.141553 
z
" clip-path="url(#peb3aa7c1f3)" style="fill: #0000ff"/>
   </g>
   <g id="patch_61">
    <path d="M 378.15544 175.518832 
Q 376.308758 176.550342 374.322549 177.068452 
Q 372.336339 177.581853 370.21881 177.581853 
Q 365.433851 177.581853 362.639205 174.510872 
Q 359.84456 171.439891 359.84456 166.188136 
Q 359.84456 160.875151 362.68845 157.82772 
Q 365.536445 154.78029 370.489657 154.78029 
Q 372.397895 154.78029 374.146088 155.194778 
Q 375.898384 155.604556 377.449597 156.414692 
L 377.449597 160.959933 
Q 375.849139 159.919002 374.265096 159.405602 
Q 372.681053 158.887491 371.088803 158.887491 
Q 368.142319 158.887491 366.545964 160.780949 
Q 364.94961 162.669696 364.94961 166.188136 
Q 364.94961 169.673606 366.488512 171.576483 
Q 368.027414 173.474651 370.858994 173.474651 
Q 371.630496 173.474651 372.291198 173.366319 
Q 372.9519 173.253277 373.477179 173.017772 
L 373.477179 168.750427 
L 370.460931 168.750427 
L 370.460931 164.949382 
L 378.15544 164.949382 
L 378.15544 175.518832 
z
" clip-path="url(#peb3aa7c1f3)" style="fill: #ffa600"/>
   </g>
   <g id="patch_62">
    <path d="M 359.84456 50.544575 
L 378.15544 50.544575 
L 378.15544 70.873443 
L 371.567782 70.873443 
L 371.567782 154.78029 
L 366.444993 154.78029 
L 366.444993 70.873443 
L 359.84456 70.873443 
L 359.84456 50.544575 
z
" clip-path="url(#peb3aa7c1f3)" style="fill: #ff0000"/>
   </g>
   <g id="patch_63">
    <path d="M 391.803134 191.451419 
L 384.761064 191.451419 
L 383.649158 192.24 
L 379.119171 192.24 
L 385.588441 187.911152 
L 390.960781 187.911152 
L 397.430052 192.24 
L 392.903809 192.24 
L 391.803134 191.451419 
z
M 385.884201 190.647993 
L 390.668766 190.647993 
L 388.280227 188.926103 
L 385.884201 190.647993 
z
" clip-path="url(#peb3aa7c1f3)" style="fill: #008000"/>
   </g>
   <g id="patch_64">
    <path d="M 379.119171 182.620338 
L 397.430052 182.620338 
L 397.430052 183.652194 
L 390.842393 183.652194 
L 390.842393 187.911152 
L 385.719605 187.911152 
L 385.719605 183.652194 
L 379.119171 183.652194 
L 379.119171 182.620338 
z
" clip-path="url(#peb3aa7c1f3)" style="fill: #ff0000"/>
   </g>
   <g id="patch_65">
    <path d="M 397.430052 181.401835 
Q 395.58337 182.011086 393.59716 182.317103 
Q 391.610951 182.620338 389.493422 182.620338 
Q 384.708463 182.620338 381.913817 180.806493 
Q 379.119171 178.992647 379.119171 175.890748 
Q 379.119171 172.752684 381.963062 170.952748 
Q 384.811056 169.152812 389.764268 169.152812 
Q 391.672507 169.152812 393.420699 169.397625 
Q 395.172996 169.639657 396.724209 170.118156 
L 396.724209 172.802759 
Q 395.123751 172.187943 393.539708 171.884708 
Q 391.955665 171.578691 390.363414 171.578691 
Q 387.41693 171.578691 385.820576 172.697044 
Q 384.224222 173.812615 384.224222 175.890748 
Q 384.224222 177.949407 385.763123 179.073324 
Q 387.302025 180.194459 390.133605 180.194459 
Q 390.905108 180.194459 391.56581 180.130473 
Q 392.226511 180.063706 392.75179 179.924607 
L 392.75179 177.404141 
L 389.735542 177.404141 
L 389.735542 175.159089 
L 397.430052 175.159089 
L 397.430052 181.401835 
z
" clip-path="url(#peb3aa7c1f3)" style="fill: #ffa600"/>
   </g>
   <g id="patch_66">
    <path d="M 397.430052 167.808225 
Q 395.898378 168.474706 394.242141 168.811822 
Q 392.585903 169.152812 390.782035 169.152812 
Q 385.402723 169.152812 382.260947 166.626384 
Q 379.119171 164.099956 379.119171 159.779454 
Q 379.119171 155.443453 382.260947 152.9209 
Q 385.402723 150.394472 390.782035 150.394472 
Q 392.585903 150.394472 394.242141 150.735462 
Q 395.898378 151.072577 397.430052 151.739058 
L 397.430052 155.478327 
Q 395.884538 154.594852 394.385159 154.184114 
Q 392.885779 153.773375 391.229542 153.773375 
Q 388.258464 153.773375 386.556092 155.373705 
Q 384.858333 156.970159 384.858333 159.779454 
Q 384.858333 162.577124 386.556092 164.177454 
Q 388.258464 165.773908 391.229542 165.773908 
Q 392.885779 165.773908 394.385159 165.36317 
Q 395.884538 164.948557 397.430052 164.065082 
L 397.430052 167.808225 
z
" clip-path="url(#peb3aa7c1f3)" style="fill: #0000ff"/>
   </g>
   <g id="patch_67">
    <path d="M 416.704663 191.768853 
Q 414.857981 192.004426 412.871772 192.122751 
Q 410.885562 192.24 408.768033 192.24 
Q 403.983074 192.24 401.188428 191.538658 
Q 398.393782 190.837315 398.393782 189.637934 
Q 398.393782 188.424568 401.237673 187.728604 
Q 404.085668 187.03264 409.03888 187.03264 
Q 410.947118 187.03264 412.695311 187.1273 
Q 414.447607 187.220884 415.99882 187.405901 
L 415.99882 188.44393 
Q 414.398362 188.206205 412.814319 188.088956 
Q 411.230276 187.970632 409.638026 187.970632 
Q 406.691541 187.970632 405.095187 188.403055 
Q 403.498833 188.834402 403.498833 189.637934 
Q 403.498833 190.433936 405.037735 190.86851 
Q 406.576637 191.302008 409.408216 191.302008 
Q 410.179719 191.302008 410.840421 191.277268 
Q 411.501123 191.251451 412.026401 191.197667 
L 412.026401 190.223103 
L 409.010154 190.223103 
L 409.010154 189.35503 
L 416.704663 189.35503 
L 416.704663 191.768853 
z
" clip-path="url(#peb3aa7c1f3)" style="fill: #ffa600"/>
   </g>
   <g id="patch_68">
    <path d="M 411.077746 184.977299 
L 404.035675 184.977299 
L 402.923769 187.03264 
L 398.393782 187.03264 
L 404.863053 175.750027 
L 410.235393 175.750027 
L 416.704663 187.03264 
L 412.17842 187.03264 
L 411.077746 184.977299 
z
M 405.158812 182.883269 
L 409.943377 182.883269 
L 407.554838 178.395372 
L 405.158812 182.883269 
z
" clip-path="url(#peb3aa7c1f3)" style="fill: #008000"/>
   </g>
   <g id="patch_69">
    <path d="M 416.704663 174.754666 
Q 415.17299 175.248044 413.516752 175.497601 
Q 411.860515 175.750027 410.056646 175.750027 
Q 404.677335 175.750027 401.535559 173.879781 
Q 398.393782 172.009534 398.393782 168.811183 
Q 398.393782 165.601358 401.535559 163.733981 
Q 404.677335 161.863734 410.056646 161.863734 
Q 411.860515 161.863734 413.516752 162.11616 
Q 415.17299 162.365717 416.704663 162.859095 
L 416.704663 165.627175 
Q 415.159149 164.973162 413.65977 164.669104 
Q 412.160391 164.365045 410.504153 164.365045 
Q 407.533076 164.365045 405.830703 165.549726 
Q 404.132945 166.731538 404.132945 168.811183 
Q 404.132945 170.882223 405.830703 172.066904 
Q 407.533076 173.248716 410.504153 173.248716 
Q 412.160391 173.248716 413.65977 172.944657 
Q 415.159149 172.63773 416.704663 171.983718 
L 416.704663 174.754666 
z
" clip-path="url(#peb3aa7c1f3)" style="fill: #0000ff"/>
   </g>
   <g id="patch_70">
    <path d="M 398.393782 116.733282 
L 416.704663 116.733282 
L 416.704663 125.534977 
L 410.117004 125.534977 
L 410.117004 161.863734 
L 404.994216 161.863734 
L 404.994216 125.534977 
L 398.393782 125.534977 
L 398.393782 116.733282 
z
" clip-path="url(#peb3aa7c1f3)" style="fill: #ff0000"/>
   </g>
   <g id="patch_71">
    <path d="M 430.352357 191.911704 
L 423.310287 191.911704 
L 422.198381 192.24 
L 417.668394 192.24 
L 424.137664 190.437847 
L 429.510004 190.437847 
L 435.979275 192.24 
L 431.453032 192.24 
L 430.352357 191.911704 
z
M 424.433424 191.577228 
L 429.217988 191.577228 
L 426.82945 190.860384 
L 424.433424 191.577228 
z
" clip-path="url(#peb3aa7c1f3)" style="fill: #008000"/>
   </g>
   <g id="patch_72">
    <path d="M 435.979275 189.296471 
Q 434.132592 189.867159 432.146383 190.153806 
Q 430.160174 190.437847 428.042645 190.437847 
Q 423.257686 190.437847 420.46304 188.738813 
Q 417.668394 187.039778 417.668394 184.134221 
Q 417.668394 181.194787 420.512285 179.508782 
Q 423.360279 177.822777 428.313491 177.822777 
Q 430.22173 177.822777 431.969922 178.052094 
Q 433.722218 178.278806 435.273432 178.727018 
L 435.273432 181.241693 
Q 433.672974 180.665793 432.088931 180.381752 
Q 430.504888 180.095105 428.912637 180.095105 
Q 425.966153 180.095105 424.369799 181.142669 
Q 422.773444 182.187628 422.773444 184.134221 
Q 422.773444 186.062573 424.312346 187.115349 
Q 425.851248 188.165519 428.682828 188.165519 
Q 429.454331 188.165519 430.115032 188.105584 
Q 430.775734 188.043042 431.301013 187.912748 
L 431.301013 185.55182 
L 428.284765 185.55182 
L 428.284765 183.448874 
L 435.979275 183.448874 
L 435.979275 189.296471 
z
" clip-path="url(#peb3aa7c1f3)" style="fill: #ffa600"/>
   </g>
   <g id="patch_73">
    <path d="M 435.979275 176.014296 
Q 434.447601 176.910719 432.791364 177.364142 
Q 431.135126 177.822777 429.331258 177.822777 
Q 423.951946 177.822777 420.81017 174.424708 
Q 417.668394 171.026639 417.668394 165.215524 
Q 417.668394 159.383563 420.81017 155.990706 
Q 423.951946 152.592637 429.331258 152.592637 
Q 431.135126 152.592637 432.791364 153.051272 
Q 434.447601 153.504695 435.979275 154.401118 
L 435.979275 159.430468 
Q 434.433761 158.242187 432.934381 157.68974 
Q 431.435002 157.137293 429.778765 157.137293 
Q 426.807687 157.137293 425.105315 159.289751 
Q 423.407556 161.436997 423.407556 165.215524 
Q 423.407556 168.978417 425.105315 171.130874 
Q 426.807687 173.27812 429.778765 173.27812 
Q 431.435002 173.27812 432.934381 172.725674 
Q 434.433761 172.168015 435.979275 170.979733 
L 435.979275 176.014296 
z
" clip-path="url(#peb3aa7c1f3)" style="fill: #0000ff"/>
   </g>
   <g id="patch_74">
    <path d="M 417.668394 35.452699 
L 435.979275 35.452699 
L 435.979275 58.298251 
L 429.391616 58.298251 
L 429.391616 152.592637 
L 424.268828 152.592637 
L 424.268828 58.298251 
L 417.668394 58.298251 
L 417.668394 35.452699 
z
" clip-path="url(#peb3aa7c1f3)" style="fill: #ff0000"/>
   </g>
   <g id="patch_75">
    <path d="M 436.943005 187.96468 
L 455.253886 187.96468 
L 455.253886 188.798486 
L 448.666227 188.798486 
L 448.666227 192.24 
L 443.543439 192.24 
L 443.543439 188.798486 
L 436.943005 188.798486 
L 436.943005 187.96468 
z
" clip-path="url(#peb3aa7c1f3)" style="fill: #ff0000"/>
   </g>
   <g id="patch_76">
    <path d="M 455.253886 187.319982 
Q 453.407204 187.642331 451.420994 187.804241 
Q 449.434785 187.96468 447.317256 187.96468 
Q 442.532297 187.96468 439.737651 187.004992 
Q 436.943005 186.045304 436.943005 184.404121 
Q 436.943005 182.743802 439.786896 181.791474 
Q 442.63489 180.839146 447.588103 180.839146 
Q 449.496341 180.839146 451.244534 180.968675 
Q 452.99683 181.096731 454.548043 181.3499 
L 454.548043 182.770297 
Q 452.947585 182.445004 451.363542 182.284565 
Q 449.779499 182.122655 448.187248 182.122655 
Q 445.240764 182.122655 443.64441 182.714364 
Q 442.048056 183.304601 442.048056 184.404121 
Q 442.048056 185.493337 443.586958 186.08799 
Q 445.12586 186.681171 447.957439 186.681171 
Q 448.728942 186.681171 449.389644 186.647317 
Q 450.050346 186.611991 450.575624 186.538396 
L 450.575624 185.204842 
L 447.559376 185.204842 
L 447.559376 184.017008 
L 455.253886 184.017008 
L 455.253886 187.319982 
z
" clip-path="url(#peb3aa7c1f3)" style="fill: #ffa600"/>
   </g>
   <g id="patch_77">
    <path d="M 449.626968 177.33441 
L 442.584898 177.33441 
L 441.472992 180.839146 
L 436.943005 180.839146 
L 443.412276 161.600205 
L 448.784615 161.600205 
L 455.253886 180.839146 
L 450.727643 180.839146 
L 449.626968 177.33441 
z
M 443.708035 173.763702 
L 448.4926 173.763702 
L 446.104061 166.111007 
L 443.708035 173.763702 
z
" clip-path="url(#peb3aa7c1f3)" style="fill: #008000"/>
   </g>
   <g id="patch_78">
    <path d="M 455.253886 159.352888 
Q 453.722212 160.466832 452.065975 161.03028 
Q 450.409738 161.600205 448.605869 161.600205 
Q 443.226558 161.600205 440.084781 157.37758 
Q 436.943005 153.154954 436.943005 145.933746 
Q 436.943005 138.686632 440.084781 134.470483 
Q 443.226558 130.247857 448.605869 130.247857 
Q 450.409738 130.247857 452.065975 130.817782 
Q 453.722212 131.381231 455.253886 132.495175 
L 455.253886 138.74492 
Q 453.708372 137.268296 452.208993 136.581796 
Q 450.709613 135.895295 449.053376 135.895295 
Q 446.082298 135.895295 444.379926 138.570057 
Q 442.682168 141.238342 442.682168 145.933746 
Q 442.682168 150.609721 444.379926 153.284482 
Q 446.082298 155.952767 449.053376 155.952767 
Q 450.709613 155.952767 452.208993 155.266267 
Q 453.708372 154.57329 455.253886 153.096666 
L 455.253886 159.352888 
z
" clip-path="url(#peb3aa7c1f3)" style="fill: #0000ff"/>
   </g>
   <g id="patch_79">
    <path d="M 474.528497 192.067033 
Q 472.681815 192.153516 470.695606 192.196956 
Q 468.709396 192.24 466.591867 192.24 
Q 461.806908 192.24 459.012262 191.982523 
Q 456.217617 191.725047 456.217617 191.28473 
Q 456.217617 190.83928 459.061507 190.583778 
Q 461.909502 190.328276 466.862714 190.328276 
Q 468.770952 190.328276 470.519145 190.363027 
Q 472.271441 190.397384 473.822654 190.465307 
L 473.822654 190.846388 
Q 472.222196 190.759115 470.638153 190.71607 
Q 469.05411 190.672631 467.46186 190.672631 
Q 464.515376 190.672631 462.919021 190.831382 
Q 461.322667 190.989738 461.322667 191.28473 
Q 461.322667 191.576958 462.861569 191.736499 
Q 464.400471 191.895645 467.23205 191.895645 
Q 468.003553 191.895645 468.664255 191.886562 
Q 469.324957 191.877084 469.850236 191.857339 
L 469.850236 191.499557 
L 466.833988 191.499557 
L 466.833988 191.180871 
L 474.528497 191.180871 
L 474.528497 192.067033 
z
" clip-path="url(#peb3aa7c1f3)" style="fill: #ffa600"/>
   </g>
   <g id="patch_80">
    <path d="M 474.528497 189.64312 
Q 472.996824 189.982736 471.340586 190.154519 
Q 469.684349 190.328276 467.88048 190.328276 
Q 462.501169 190.328276 459.359393 189.040893 
Q 456.217617 187.75351 456.217617 185.551927 
Q 456.217617 183.342446 459.359393 182.057038 
Q 462.501169 180.769655 467.88048 180.769655 
Q 469.684349 180.769655 471.340586 180.943412 
Q 472.996824 181.115195 474.528497 181.454811 
L 474.528497 183.360217 
Q 472.982983 182.910028 471.483604 182.70073 
Q 469.984225 182.491431 468.327987 182.491431 
Q 465.35691 182.491431 463.654538 183.306905 
Q 461.956779 184.120405 461.956779 185.551927 
Q 461.956779 186.977526 463.654538 187.793 
Q 465.35691 188.6065 468.327987 188.6065 
Q 469.984225 188.6065 471.483604 188.397201 
Q 472.982983 188.185929 474.528497 187.735739 
L 474.528497 189.64312 
z
" clip-path="url(#peb3aa7c1f3)" style="fill: #0000ff"/>
   </g>
   <g id="patch_81">
    <path d="M 468.90158 175.545805 
L 461.859509 175.545805 
L 460.747603 180.769655 
L 456.217617 180.769655 
L 462.686887 152.093793 
L 468.059227 152.093793 
L 474.528497 180.769655 
L 470.002254 180.769655 
L 468.90158 175.545805 
z
M 462.982647 170.223624 
L 467.767211 170.223624 
L 465.378673 158.817195 
L 462.982647 170.223624 
z
" clip-path="url(#peb3aa7c1f3)" style="fill: #008000"/>
   </g>
   <g id="patch_82">
    <path d="M 456.217617 25.92 
L 474.528497 25.92 
L 474.528497 50.527405 
L 467.940839 50.527405 
L 467.940839 152.093793 
L 462.81805 152.093793 
L 462.81805 50.527405 
L 456.217617 50.527405 
L 456.217617 25.92 
z
" clip-path="url(#peb3aa7c1f3)" style="fill: #ff0000"/>
   </g>
   <g id="patch_83">
    <path d="M 493.803109 192.02883 
Q 492.271435 192.133502 490.615198 192.186447 
Q 488.95896 192.24 487.155092 192.24 
Q 481.77578 192.24 478.634004 191.843219 
Q 475.492228 191.446439 475.492228 190.767895 
Q 475.492228 190.086917 478.634004 189.690745 
Q 481.77578 189.293964 487.155092 189.293964 
Q 488.95896 189.293964 490.615198 189.347517 
Q 492.271435 189.400462 493.803109 189.505134 
L 493.803109 190.092394 
Q 492.257595 189.953642 490.758216 189.889135 
Q 489.258836 189.824628 487.602599 189.824628 
Q 484.631521 189.824628 482.929149 190.075963 
Q 481.23139 190.326689 481.23139 190.767895 
Q 481.23139 191.207275 482.929149 191.45861 
Q 484.631521 191.709336 487.602599 191.709336 
Q 489.258836 191.709336 490.758216 191.644829 
Q 492.257595 191.579713 493.803109 191.440961 
L 493.803109 192.02883 
z
" clip-path="url(#peb3aa7c1f3)" style="fill: #0000ff"/>
   </g>
   <g id="patch_84">
    <path d="M 488.176191 188.220612 
L 481.134121 188.220612 
L 480.022215 189.293964 
L 475.492228 189.293964 
L 481.961498 183.401892 
L 487.333838 183.401892 
L 493.803109 189.293964 
L 489.276866 189.293964 
L 488.176191 188.220612 
z
M 482.257258 187.127055 
L 487.041823 187.127055 
L 484.653284 184.783359 
L 482.257258 187.127055 
z
" clip-path="url(#peb3aa7c1f3)" style="fill: #008000"/>
   </g>
   <g id="patch_85">
    <path d="M 493.803109 179.936754 
Q 491.956427 181.669323 489.970217 182.539563 
Q 487.984008 183.401892 485.866479 183.401892 
Q 481.08152 183.401892 478.286874 178.243742 
Q 475.492228 173.085593 475.492228 164.264524 
Q 475.492228 155.340609 478.336119 150.222015 
Q 481.184113 145.103422 486.137325 145.103422 
Q 488.045564 145.103422 489.793756 145.799614 
Q 491.546053 146.487895 493.097266 147.848634 
L 493.097266 155.483012 
Q 491.496808 153.73462 489.912765 152.872292 
Q 488.328722 152.002052 486.736471 152.002052 
Q 483.789987 152.002052 482.193633 155.182383 
Q 480.597279 158.354803 480.597279 164.264524 
Q 480.597279 170.118865 482.13618 173.315019 
Q 483.675082 176.503262 486.506662 176.503262 
Q 487.278165 176.503262 487.938867 176.321303 
Q 488.599568 176.131432 489.124847 175.735869 
L 489.124847 168.568256 
L 486.108599 168.568256 
L 486.108599 162.183859 
L 493.803109 162.183859 
L 493.803109 179.936754 
z
" clip-path="url(#peb3aa7c1f3)" style="fill: #ffa600"/>
   </g>
   <g id="patch_86">
    <path d="M 475.492228 64.087429 
L 493.803109 64.087429 
L 493.803109 79.887805 
L 487.21545 79.887805 
L 487.21545 145.103422 
L 482.092662 145.103422 
L 482.092662 79.887805 
L 475.492228 79.887805 
L 475.492228 64.087429 
z
" clip-path="url(#peb3aa7c1f3)" style="fill: #ff0000"/>
   </g>
   <g id="patch_87">
    <path d="M 507.450803 190.814989 
L 500.408732 190.814989 
L 499.296826 192.24 
L 494.766839 192.24 
L 501.23611 184.417529 
L 506.60845 184.417529 
L 513.07772 192.24 
L 508.551477 192.24 
L 507.450803 190.814989 
z
M 501.531869 189.363155 
L 506.316434 189.363155 
L 503.927895 186.251602 
L 501.531869 189.363155 
z
" clip-path="url(#peb3aa7c1f3)" style="fill: #008000"/>
   </g>
   <g id="patch_88">
    <path d="M 494.766839 175.030564 
L 513.07772 175.030564 
L 513.07772 176.861283 
L 506.490061 176.861283 
L 506.490061 184.417529 
L 501.367273 184.417529 
L 501.367273 176.861283 
L 494.766839 176.861283 
L 494.766839 175.030564 
z
" clip-path="url(#peb3aa7c1f3)" style="fill: #ff0000"/>
   </g>
   <g id="patch_89">
    <path d="M 513.07772 173.331951 
Q 511.231038 174.181257 509.244829 174.60785 
Q 507.258619 175.030564 505.14109 175.030564 
Q 500.356131 175.030564 497.561485 172.502036 
Q 494.766839 169.973508 494.766839 165.649415 
Q 494.766839 161.274907 497.61073 158.76577 
Q 500.458725 156.256633 505.411937 156.256633 
Q 507.320175 156.256633 509.068368 156.597907 
Q 510.820664 156.935302 512.371877 157.602337 
L 512.371877 161.344713 
Q 510.771419 160.487651 509.187376 160.064937 
Q 507.603333 159.638345 506.011083 159.638345 
Q 503.064598 159.638345 501.468244 161.197345 
Q 499.87189 162.752467 499.87189 165.649415 
Q 499.87189 168.519217 501.410792 170.085973 
Q 502.949694 171.648852 505.781273 171.648852 
Q 506.552776 171.648852 507.213478 171.559655 
Q 507.87418 171.46658 508.399458 171.272675 
L 508.399458 167.759107 
L 505.383211 167.759107 
L 505.383211 164.629472 
L 513.07772 164.629472 
L 513.07772 173.331951 
z
" clip-path="url(#peb3aa7c1f3)" style="fill: #ffa600"/>
   </g>
   <g id="patch_90">
    <path d="M 513.07772 149.079544 
Q 511.546047 152.637064 509.889809 154.436507 
Q 508.233572 156.256633 506.429703 156.256633 
Q 501.050392 156.256633 497.908616 142.771152 
Q 494.766839 129.28567 494.766839 106.223843 
Q 494.766839 83.079282 497.908616 69.614484 
Q 501.050392 56.129003 506.429703 56.129003 
Q 508.233572 56.129003 509.889809 57.949129 
Q 511.546047 59.748572 513.07772 63.306092 
L 513.07772 83.265431 
Q 511.532206 78.54965 510.032827 76.357225 
Q 508.533448 74.1648 506.87721 74.1648 
Q 503.906133 74.1648 502.20376 82.706984 
Q 500.506002 91.228484 500.506002 106.223843 
Q 500.506002 121.157152 502.20376 129.699335 
Q 503.906133 138.220836 506.87721 138.220836 
Q 508.533448 138.220836 510.032827 136.028411 
Q 511.532206 133.815303 513.07772 129.099521 
L 513.07772 149.079544 
z
" clip-path="url(#peb3aa7c1f3)" style="fill: #0000ff"/>
   </g>
   <g id="patch_91">
    <path d="M 532.352332 191.813691 
Q 530.505649 192.026845 528.51944 192.133909 
Q 526.533231 192.24 524.415702 192.24 
Q 519.630743 192.24 516.836097 191.605403 
Q 514.041451 190.970805 514.041451 189.885566 
Q 514.041451 188.787674 516.885342 188.157943 
Q 519.733336 187.528212 524.686548 187.528212 
Q 526.594787 187.528212 528.342979 187.613863 
Q 530.095275 187.698541 531.646489 187.86595 
L 531.646489 188.805193 
Q 530.046031 188.590092 528.461988 188.484001 
Q 526.877945 188.376937 525.285694 188.376937 
Q 522.33921 188.376937 520.742856 188.768207 
Q 519.146501 189.158504 519.146501 189.885566 
Q 519.146501 190.605815 520.685403 190.999031 
Q 522.224305 191.391275 525.055885 191.391275 
Q 525.827388 191.391275 526.488089 191.368889 
Q 527.148791 191.345529 527.67407 191.296864 
L 527.67407 190.415046 
L 524.657822 190.415046 
L 524.657822 189.629586 
L 532.352332 189.629586 
L 532.352332 191.813691 
z
" clip-path="url(#peb3aa7c1f3)" style="fill: #ffa600"/>
   </g>
   <g id="patch_92">
    <path d="M 532.352332 187.06766 
Q 530.820658 187.295945 529.164421 187.411415 
Q 527.508183 187.528212 525.704315 187.528212 
Q 520.325003 187.528212 517.183227 186.662852 
Q 514.041451 185.797492 514.041451 184.31762 
Q 514.041451 182.832439 517.183227 181.968407 
Q 520.325003 181.103047 525.704315 181.103047 
Q 527.508183 181.103047 529.164421 181.219844 
Q 530.820658 181.335314 532.352332 181.563599 
L 532.352332 182.844385 
Q 530.806818 182.541774 529.307438 182.401087 
Q 527.808059 182.260399 526.151822 182.260399 
Q 523.180744 182.260399 521.478372 182.808549 
Q 519.780613 183.355372 519.780613 184.31762 
Q 519.780613 185.275887 521.478372 185.824037 
Q 523.180744 186.370859 526.151822 186.370859 
Q 527.808059 186.370859 529.307438 186.230172 
Q 530.806818 186.088157 532.352332 185.785547 
L 532.352332 187.06766 
z
" clip-path="url(#peb3aa7c1f3)" style="fill: #0000ff"/>
   </g>
   <g id="patch_93">
    <path d="M 514.041451 173.392848 
L 532.352332 173.392848 
L 532.352332 174.896552 
L 525.764673 174.896552 
L 525.764673 181.103047 
L 520.641885 181.103047 
L 520.641885 174.896552 
L 514.041451 174.896552 
L 514.041451 173.392848 
z
" clip-path="url(#peb3aa7c1f3)" style="fill: #ff0000"/>
   </g>
   <g id="patch_94">
    <path d="M 526.725414 170.037515 
L 519.683344 170.037515 
L 518.571438 173.392848 
L 514.041451 173.392848 
L 520.510721 154.974041 
L 525.883061 154.974041 
L 532.352332 173.392848 
L 527.826089 173.392848 
L 526.725414 170.037515 
z
M 520.806481 166.619022 
L 525.591045 166.619022 
L 523.202507 159.292552 
L 520.806481 166.619022 
z
" clip-path="url(#peb3aa7c1f3)" style="fill: #008000"/>
   </g>
   <g id="patch_95">
    <path d="M 551.626943 191.71461 
Q 549.780261 191.977305 547.794051 192.109252 
Q 545.807842 192.24 543.690313 192.24 
Q 538.905354 192.24 536.110708 191.457913 
Q 533.316062 190.675826 533.316062 189.33836 
Q 533.316062 187.985302 536.159953 187.209212 
Q 539.007947 186.433122 543.96116 186.433122 
Q 545.869398 186.433122 547.617591 186.53868 
Q 549.369887 186.643038 550.9211 186.849356 
L 550.9211 188.006893 
Q 549.320642 187.741799 547.736599 187.611051 
Q 546.152556 187.479104 544.560305 187.479104 
Q 541.613821 187.479104 540.017467 187.961311 
Q 538.421113 188.442319 538.421113 189.33836 
Q 538.421113 190.226005 539.960015 190.710612 
Q 541.498917 191.194018 544.330496 191.194018 
Q 545.101999 191.194018 545.762701 191.166429 
Q 546.423403 191.137641 546.948681 191.077665 
L 546.948681 189.990899 
L 543.932433 189.990899 
L 543.932433 189.022887 
L 551.626943 189.022887 
L 551.626943 191.71461 
z
" clip-path="url(#peb3aa7c1f3)" style="fill: #ffa600"/>
   </g>
   <g id="patch_96">
    <path d="M 551.626943 185.600655 
Q 550.095269 186.01329 548.439032 186.222007 
Q 546.782795 186.433122 544.978926 186.433122 
Q 539.599615 186.433122 536.457838 184.868948 
Q 533.316062 183.304773 533.316062 180.629843 
Q 533.316062 177.945317 536.457838 176.383542 
Q 539.599615 174.819367 544.978926 174.819367 
Q 546.782795 174.819367 548.439032 175.030483 
Q 550.095269 175.239199 551.626943 175.651834 
L 551.626943 177.966908 
Q 550.081429 177.419927 548.58205 177.165629 
Q 547.08267 176.91133 545.426433 176.91133 
Q 542.455355 176.91133 540.752983 177.902134 
Q 539.055225 178.890539 539.055225 180.629843 
Q 539.055225 182.361951 540.752983 183.352754 
Q 542.455355 184.341159 545.426433 184.341159 
Q 547.08267 184.341159 548.58205 184.086861 
Q 550.081429 183.830163 551.626943 183.283182 
L 551.626943 185.600655 
z
" clip-path="url(#peb3aa7c1f3)" style="fill: #0000ff"/>
   </g>
   <g id="patch_97">
    <path d="M 546.000025 171.381412 
L 538.957955 171.381412 
L 537.846049 174.819367 
L 533.316062 174.819367 
L 539.785333 155.947015 
L 545.157672 155.947015 
L 551.626943 174.819367 
L 547.1007 174.819367 
L 546.000025 171.381412 
z
M 540.081092 167.878742 
L 544.865657 167.878742 
L 542.477118 160.371866 
L 540.081092 167.878742 
z
" clip-path="url(#peb3aa7c1f3)" style="fill: #008000"/>
   </g>
   <g id="patch_98">
    <path d="M 533.316062 65.940411 
L 551.626943 65.940411 
L 551.626943 83.494207 
L 545.039284 83.494207 
L 545.039284 155.947015 
L 539.916496 155.947015 
L 539.916496 83.494207 
L 533.316062 83.494207 
L 533.316062 65.940411 
z
" clip-path="url(#peb3aa7c1f3)" style="fill: #ff0000"/>
   </g>
   <g id="patch_99">
    <path d="M 565.274637 190.900201 
L 558.232566 190.900201 
L 557.12066 192.24 
L 552.590674 192.24 
L 559.059944 184.885294 
L 564.432284 184.885294 
L 570.901554 192.24 
L 566.375311 192.24 
L 565.274637 190.900201 
z
M 559.355704 189.535183 
L 564.140268 189.535183 
L 561.75173 186.609693 
L 559.355704 189.535183 
z
" clip-path="url(#peb3aa7c1f3)" style="fill: #008000"/>
   </g>
   <g id="patch_100">
    <path d="M 552.590674 173.853235 
L 570.901554 173.853235 
L 570.901554 176.004794 
L 564.313896 176.004794 
L 564.313896 184.885294 
L 559.191107 184.885294 
L 559.191107 176.004794 
L 552.590674 176.004794 
L 552.590674 173.853235 
z
" clip-path="url(#peb3aa7c1f3)" style="fill: #ff0000"/>
   </g>
   <g id="patch_101">
    <path d="M 570.901554 172.35601 
Q 569.054872 173.104623 567.068663 173.480638 
Q 565.082453 173.853235 562.964924 173.853235 
Q 558.179965 173.853235 555.385319 171.62449 
Q 552.590674 169.395745 552.590674 165.584318 
Q 552.590674 161.728453 555.434564 159.516799 
Q 558.282559 157.305146 563.235771 157.305146 
Q 565.144009 157.305146 566.892202 157.605958 
Q 568.644498 157.903352 570.195711 158.491303 
L 570.195711 161.789982 
Q 568.595253 161.034534 567.01121 160.661937 
Q 565.427167 160.285921 563.834917 160.285921 
Q 560.888433 160.285921 559.292078 161.660086 
Q 557.695724 163.030833 557.695724 165.584318 
Q 557.695724 168.113875 559.234626 169.494876 
Q 560.773528 170.872459 563.605107 170.872459 
Q 564.37661 170.872459 565.037312 170.793838 
Q 565.698014 170.711798 566.223293 170.540882 
L 566.223293 167.443884 
L 563.207045 167.443884 
L 563.207045 164.6853 
L 570.901554 164.6853 
L 570.901554 172.35601 
z
" clip-path="url(#peb3aa7c1f3)" style="fill: #ffa600"/>
   </g>
   <g id="patch_102">
    <path d="M 570.901554 148.34307 
Q 569.369881 152.785367 567.713643 155.032343 
Q 566.057406 157.305146 564.253537 157.305146 
Q 558.874226 157.305146 555.73245 140.46574 
Q 552.590674 123.626335 552.590674 94.828885 
Q 552.590674 65.928126 555.73245 49.114548 
Q 558.874226 32.275142 564.253537 32.275142 
Q 566.057406 32.275142 567.713643 34.547946 
Q 569.369881 36.794921 570.901554 41.237219 
L 570.901554 66.160572 
Q 569.35604 60.271945 567.856661 57.534251 
Q 566.357282 54.796556 564.701044 54.796556 
Q 561.729967 54.796556 560.027595 65.463235 
Q 558.329836 76.104086 558.329836 94.828885 
Q 558.329836 113.476202 560.027595 124.142881 
Q 561.729967 134.783732 564.701044 134.783732 
Q 566.357282 134.783732 567.856661 132.046038 
Q 569.35604 129.282516 570.901554 123.393889 
L 570.901554 148.34307 
z
" clip-path="url(#peb3aa7c1f3)" style="fill: #0000ff"/>
   </g>
   <g id="patch_103">
    <path d="M 590.176166 191.923458 
Q 588.644492 192.080361 586.988255 192.159724 
Q 585.332017 192.24 583.528149 192.24 
Q 578.148837 192.24 575.007061 191.645229 
Q 571.865285 191.050459 571.865285 190.033328 
Q 571.865285 189.012549 575.007061 188.41869 
Q 578.148837 187.82392 583.528149 187.82392 
Q 585.332017 187.82392 586.988255 187.904195 
Q 588.644492 187.983559 590.176166 188.140462 
L 590.176166 189.020759 
Q 588.630652 188.812771 587.131273 188.716075 
Q 585.631893 188.61938 583.975656 188.61938 
Q 581.004578 188.61938 579.302206 188.996128 
Q 577.604447 189.371965 577.604447 190.033328 
Q 577.604447 190.691954 579.302206 191.068703 
Q 581.004578 191.44454 583.975656 191.44454 
Q 585.631893 191.44454 587.131273 191.347844 
Q 588.630652 191.250236 590.176166 191.042249 
L 590.176166 191.923458 
z
" clip-path="url(#peb3aa7c1f3)" style="fill: #0000ff"/>
   </g>
   <g id="patch_104">
    <path d="M 590.176166 187.37997 
Q 588.329484 187.601945 586.343274 187.713439 
Q 584.357065 187.82392 582.239536 187.82392 
Q 577.454577 187.82392 574.659931 187.163063 
Q 571.865285 186.502207 571.865285 185.372062 
Q 571.865285 184.22874 574.709176 183.572952 
Q 577.55717 182.917164 582.510382 182.917164 
Q 584.418621 182.917164 586.166813 183.006359 
Q 587.91911 183.094541 589.470323 183.268877 
L 589.470323 184.246985 
Q 587.869865 184.022983 586.285822 183.912502 
Q 584.701779 183.801008 583.109528 183.801008 
Q 580.163044 183.801008 578.56669 184.208469 
Q 576.970336 184.614915 576.970336 185.372062 
Q 576.970336 186.122113 578.509237 186.531601 
Q 580.048139 186.940075 582.879719 186.940075 
Q 583.651222 186.940075 584.311924 186.916763 
Q 584.972625 186.892437 585.497904 186.841758 
L 585.497904 185.923451 
L 582.481656 185.923451 
L 582.481656 185.10549 
L 590.176166 185.10549 
L 590.176166 187.37997 
z
" clip-path="url(#peb3aa7c1f3)" style="fill: #ffa600"/>
   </g>
   <g id="patch_105">
    <path d="M 584.549248 179.967431 
L 577.507178 179.967431 
L 576.395272 182.917164 
L 571.865285 182.917164 
L 578.334555 166.724869 
L 583.706895 166.724869 
L 590.176166 182.917164 
L 585.649923 182.917164 
L 584.549248 179.967431 
z
M 578.630315 176.962175 
L 583.41488 176.962175 
L 581.026341 170.521348 
L 578.630315 176.962175 
z
" clip-path="url(#peb3aa7c1f3)" style="fill: #008000"/>
   </g>
   <g id="patch_106">
    <path d="M 571.865285 149.551223 
L 590.176166 149.551223 
L 590.176166 152.900562 
L 583.588507 152.900562 
L 583.588507 166.724869 
L 578.465719 166.724869 
L 578.465719 152.900562 
L 571.865285 152.900562 
L 571.865285 149.551223 
z
" clip-path="url(#peb3aa7c1f3)" style="fill: #ff0000"/>
   </g>
   <g id="patch_107">
    <path d="M 591.139896 188.937457 
L 609.450777 188.937457 
L 609.450777 189.581545 
L 602.863118 189.581545 
L 602.863118 192.24 
L 597.74033 192.24 
L 597.74033 189.581545 
L 591.139896 189.581545 
L 591.139896 188.937457 
z
" clip-path="url(#peb3aa7c1f3)" style="fill: #ff0000"/>
   </g>
   <g id="patch_108">
    <path d="M 609.450777 188.463743 
Q 607.604095 188.7006 605.617886 188.819569 
Q 603.631676 188.937457 601.514147 188.937457 
Q 596.729188 188.937457 593.934542 188.232293 
Q 591.139896 187.527128 591.139896 186.32121 
Q 591.139896 185.101233 593.983787 184.401476 
Q 596.831782 183.701719 601.784994 183.701719 
Q 603.693232 183.701719 605.441425 183.796895 
Q 607.193721 183.890989 608.744934 184.077014 
L 608.744934 185.1207 
Q 607.144476 184.88168 605.560433 184.763792 
Q 603.97639 184.644822 602.38414 184.644822 
Q 599.437655 184.644822 597.841301 185.079602 
Q 596.244947 185.5133 596.244947 186.32121 
Q 596.244947 187.121551 597.783849 187.558493 
Q 599.322751 187.994354 602.15433 187.994354 
Q 602.925833 187.994354 603.586535 187.969478 
Q 604.247237 187.943521 604.772515 187.889444 
L 604.772515 186.909569 
L 601.756268 186.909569 
L 601.756268 186.036765 
L 609.450777 186.036765 
L 609.450777 188.463743 
z
" clip-path="url(#peb3aa7c1f3)" style="fill: #ffa600"/>
   </g>
   <g id="patch_109">
    <path d="M 603.82386 182.395762 
L 596.781789 182.395762 
L 595.669883 183.701719 
L 591.139896 183.701719 
L 597.609167 176.532785 
L 602.981507 176.532785 
L 609.450777 183.701719 
L 604.924534 183.701719 
L 603.82386 182.395762 
z
M 597.904926 181.065223 
L 602.689491 181.065223 
L 600.300952 178.213628 
L 597.904926 181.065223 
z
" clip-path="url(#peb3aa7c1f3)" style="fill: #008000"/>
   </g>
   <g id="patch_110">
    <path d="M 609.450777 175.649399 
Q 607.919104 176.087273 606.262866 176.308756 
Q 604.606629 176.532785 602.80276 176.532785 
Q 597.423449 176.532785 594.281673 174.872936 
Q 591.139896 173.213087 591.139896 170.374542 
Q 591.139896 167.525814 594.281673 165.868511 
Q 597.423449 164.208662 602.80276 164.208662 
Q 604.606629 164.208662 606.262866 164.432691 
Q 607.919104 164.654174 609.450777 165.092048 
L 609.450777 167.548726 
Q 607.905263 166.968288 606.405884 166.698436 
Q 604.906505 166.428583 603.250267 166.428583 
Q 600.27919 166.428583 598.576817 167.47999 
Q 596.879059 168.528852 596.879059 170.374542 
Q 596.879059 172.212596 598.576817 173.264003 
Q 600.27919 174.312865 603.250267 174.312865 
Q 604.906505 174.312865 606.405884 174.043012 
Q 607.905263 173.770613 609.450777 173.190175 
L 609.450777 175.649399 
z
" clip-path="url(#peb3aa7c1f3)" style="fill: #0000ff"/>
   </g>
   <g id="patch_111">
    <path d="M 623.098471 191.990677 
L 616.056401 191.990677 
L 614.944495 192.24 
L 610.414508 192.24 
L 616.883778 190.871364 
L 622.256118 190.871364 
L 628.725389 192.24 
L 624.199146 192.24 
L 623.098471 191.990677 
z
M 617.179538 191.736661 
L 621.964102 191.736661 
L 619.575564 191.192257 
L 617.179538 191.736661 
z
" clip-path="url(#peb3aa7c1f3)" style="fill: #008000"/>
   </g>
   <g id="patch_112">
    <path d="M 628.725389 190.723174 
Q 626.878706 190.797269 624.892497 190.834486 
Q 622.906288 190.871364 620.788758 190.871364 
Q 616.003799 190.871364 613.209154 190.65077 
Q 610.414508 190.430177 610.414508 190.052934 
Q 610.414508 189.671293 613.258398 189.452391 
Q 616.106393 189.233489 621.059605 189.233489 
Q 622.967844 189.233489 624.716036 189.263262 
Q 626.468332 189.292697 628.019546 189.350891 
L 628.019546 189.677383 
Q 626.419088 189.602611 624.835045 189.565733 
Q 623.251002 189.528516 621.658751 189.528516 
Q 618.712267 189.528516 617.115913 189.664527 
Q 615.519558 189.800199 615.519558 190.052934 
Q 615.519558 190.303301 617.05846 190.439988 
Q 618.597362 190.576337 621.428942 190.576337 
Q 622.200445 190.576337 622.861146 190.568555 
Q 623.521848 190.560435 624.047127 190.543519 
L 624.047127 190.236988 
L 621.030879 190.236988 
L 621.030879 189.963952 
L 628.725389 189.963952 
L 628.725389 190.723174 
z
" clip-path="url(#peb3aa7c1f3)" style="fill: #ffa600"/>
   </g>
   <g id="patch_113">
    <path d="M 610.414508 187.057134 
L 628.725389 187.057134 
L 628.725389 187.481584 
L 622.13773 187.481584 
L 622.13773 189.233489 
L 617.014942 189.233489 
L 617.014942 187.481584 
L 610.414508 187.481584 
L 610.414508 187.057134 
z
" clip-path="url(#peb3aa7c1f3)" style="fill: #ff0000"/>
   </g>
   <g id="patch_114">
    <path d="M 628.725389 186.868969 
Q 627.193715 186.962238 625.537478 187.009415 
Q 623.88124 187.057134 622.077372 187.057134 
Q 616.69806 187.057134 613.556284 186.703579 
Q 610.414508 186.350025 610.414508 185.745403 
Q 610.414508 185.138612 613.556284 184.7856 
Q 616.69806 184.432046 622.077372 184.432046 
Q 623.88124 184.432046 625.537478 184.479765 
Q 627.193715 184.526941 628.725389 184.62021 
L 628.725389 185.143493 
Q 627.179875 185.019857 625.680495 184.962377 
Q 624.181116 184.904898 622.524879 184.904898 
Q 619.553801 184.904898 617.851429 185.128852 
Q 616.15367 185.352264 616.15367 185.745403 
Q 616.15367 186.136916 617.851429 186.36087 
Q 619.553801 186.584282 622.524879 186.584282 
Q 624.181116 186.584282 625.680495 186.526802 
Q 627.179875 186.46878 628.725389 186.345144 
L 628.725389 186.868969 
z
" clip-path="url(#peb3aa7c1f3)" style="fill: #0000ff"/>
   </g>
   <g id="patch_115">
    <path d="M 629.689119 188.068779 
L 648 188.068779 
L 648 188.882284 
L 641.412341 188.882284 
L 641.412341 192.24 
L 636.289553 192.24 
L 636.289553 188.882284 
L 629.689119 188.882284 
L 629.689119 188.068779 
z
" clip-path="url(#peb3aa7c1f3)" style="fill: #ff0000"/>
   </g>
   <g id="patch_116">
    <path d="M 648 187.661065 
Q 646.468326 187.86316 644.812089 187.965382 
Q 643.155852 188.068779 641.351983 188.068779 
Q 635.972672 188.068779 632.830895 187.302699 
Q 629.689119 186.536619 629.689119 185.226528 
Q 629.689119 183.911737 632.830895 183.146832 
Q 635.972672 182.380751 641.351983 182.380751 
Q 643.155852 182.380751 644.812089 182.484149 
Q 646.468326 182.586371 648 182.788466 
L 648 183.922312 
Q 646.454486 183.654418 644.955107 183.529872 
Q 643.455727 183.405325 641.79949 183.405325 
Q 638.828412 183.405325 637.12604 183.890587 
Q 635.428282 184.374675 635.428282 185.226528 
Q 635.428282 186.074856 637.12604 186.560118 
Q 638.828412 187.044206 641.79949 187.044206 
Q 643.455727 187.044206 644.955107 186.919659 
Q 646.454486 186.793937 648 186.526044 
L 648 187.661065 
z
" clip-path="url(#peb3aa7c1f3)" style="fill: #0000ff"/>
   </g>
   <g id="patch_117">
    <path d="M 648 181.088441 
Q 646.153318 181.734596 644.167108 182.059149 
Q 642.180899 182.380751 640.06337 182.380751 
Q 635.278411 182.380751 632.483765 180.457039 
Q 629.689119 178.533326 629.689119 175.243542 
Q 629.689119 171.915401 632.53301 170.006441 
Q 635.381004 168.097481 640.334217 168.097481 
Q 642.242455 168.097481 643.990648 168.357123 
Q 645.742944 168.613815 647.294157 169.121297 
L 647.294157 171.96851 
Q 645.693699 171.316454 644.109656 170.994852 
Q 642.525613 170.670299 640.933362 170.670299 
Q 637.986878 170.670299 636.390524 171.856392 
Q 634.79417 173.039534 634.79417 175.243542 
Q 634.79417 177.426897 636.333072 178.61889 
Q 637.871974 179.807933 640.703553 179.807933 
Q 641.475056 179.807933 642.135758 179.740072 
Q 642.79646 179.669261 643.321738 179.521737 
L 643.321738 176.848603 
L 640.30549 176.848603 
L 640.30549 174.467566 
L 648 174.467566 
L 648 181.088441 
z
" clip-path="url(#peb3aa7c1f3)" style="fill: #ffa600"/>
   </g>
   <g id="patch_118">
    <path d="M 642.373082 164.482358 
L 635.331012 164.482358 
L 634.219106 168.097481 
L 629.689119 168.097481 
L 636.15839 148.252583 
L 641.530729 148.252583 
L 648 168.097481 
L 643.473757 168.097481 
L 642.373082 164.482358 
z
M 636.454149 160.799186 
L 641.238714 160.799186 
L 638.850175 152.905459 
L 636.454149 160.799186 
z
" clip-path="url(#peb3aa7c1f3)" style="fill: #008000"/>
   </g>
   <g id="matplotlib.axis_1">
    <g id="xtick_1">
     <g id="line2d_2">
      <defs>
       <path id="m571fa9eda2" d="M 0 0 
L 0 3.5 
" style="stroke: #000000; stroke-width: 0.8"/>
      </defs>
      <g>
       <use xlink:href="#m571fa9eda2" x="99.15544" y="192.24" style="stroke: #000000; stroke-width: 0.8"/>
      </g>
     </g>
     <g id="text_1">
      <!-- 0 -->
      <g transform="translate(95.97419 206.838437) scale(0.1 -0.1)">
       <defs>
        <path id="DejaVuSans-30" d="M 2034 4250 
Q 1547 4250 1301 3770 
Q 1056 3291 1056 2328 
Q 1056 1369 1301 889 
Q 1547 409 2034 409 
Q 2525 409 2770 889 
Q 3016 1369 3016 2328 
Q 3016 3291 2770 3770 
Q 2525 4250 2034 4250 
z
M 2034 4750 
Q 2819 4750 3233 4129 
Q 3647 3509 3647 2328 
Q 3647 1150 3233 529 
Q 2819 -91 2034 -91 
Q 1250 -91 836 529 
Q 422 1150 422 2328 
Q 422 3509 836 4129 
Q 1250 4750 2034 4750 
z
" transform="scale(0.015625)"/>
       </defs>
       <use xlink:href="#DejaVuSans-30"/>
      </g>
     </g>
    </g>
    <g id="xtick_2">
     <g id="line2d_3">
      <g>
       <use xlink:href="#m571fa9eda2" x="195.528497" y="192.24" style="stroke: #000000; stroke-width: 0.8"/>
      </g>
     </g>
     <g id="text_2">
      <!-- 5 -->
      <g transform="translate(192.347247 206.838437) scale(0.1 -0.1)">
       <defs>
        <path id="DejaVuSans-35" d="M 691 4666 
L 3169 4666 
L 3169 4134 
L 1269 4134 
L 1269 2991 
Q 1406 3038 1543 3061 
Q 1681 3084 1819 3084 
Q 2600 3084 3056 2656 
Q 3513 2228 3513 1497 
Q 3513 744 3044 326 
Q 2575 -91 1722 -91 
Q 1428 -91 1123 -41 
Q 819 9 494 109 
L 494 744 
Q 775 591 1075 516 
Q 1375 441 1709 441 
Q 2250 441 2565 725 
Q 2881 1009 2881 1497 
Q 2881 1984 2565 2268 
Q 2250 2553 1709 2553 
Q 1456 2553 1204 2497 
Q 953 2441 691 2322 
L 691 4666 
z
" transform="scale(0.015625)"/>
       </defs>
       <use xlink:href="#DejaVuSans-35"/>
      </g>
     </g>
    </g>
    <g id="xtick_3">
     <g id="line2d_4">
      <g>
       <use xlink:href="#m571fa9eda2" x="291.901554" y="192.24" style="stroke: #000000; stroke-width: 0.8"/>
      </g>
     </g>
     <g id="text_3">
      <!-- 10 -->
      <g transform="translate(285.539054 206.838437) scale(0.1 -0.1)">
       <defs>
        <path id="DejaVuSans-31" d="M 794 531 
L 1825 531 
L 1825 4091 
L 703 3866 
L 703 4441 
L 1819 4666 
L 2450 4666 
L 2450 531 
L 3481 531 
L 3481 0 
L 794 0 
L 794 531 
z
" transform="scale(0.015625)"/>
       </defs>
       <use xlink:href="#DejaVuSans-31"/>
       <use xlink:href="#DejaVuSans-30" x="63.623047"/>
      </g>
     </g>
    </g>
    <g id="xtick_4">
     <g id="line2d_5">
      <g>
       <use xlink:href="#m571fa9eda2" x="388.274611" y="192.24" style="stroke: #000000; stroke-width: 0.8"/>
      </g>
     </g>
     <g id="text_4">
      <!-- 15 -->
      <g transform="translate(381.912111 206.838437) scale(0.1 -0.1)">
       <use xlink:href="#DejaVuSans-31"/>
       <use xlink:href="#DejaVuSans-35" x="63.623047"/>
      </g>
     </g>
    </g>
    <g id="xtick_5">
     <g id="line2d_6">
      <g>
       <use xlink:href="#m571fa9eda2" x="484.647668" y="192.24" style="stroke: #000000; stroke-width: 0.8"/>
      </g>
     </g>
     <g id="text_5">
      <!-- 20 -->
      <g transform="translate(478.285168 206.838437) scale(0.1 -0.1)">
       <defs>
        <path id="DejaVuSans-32" d="M 1228 531 
L 3431 531 
L 3431 0 
L 469 0 
L 469 531 
Q 828 903 1448 1529 
Q 2069 2156 2228 2338 
Q 2531 2678 2651 2914 
Q 2772 3150 2772 3378 
Q 2772 3750 2511 3984 
Q 2250 4219 1831 4219 
Q 1534 4219 1204 4116 
Q 875 4013 500 3803 
L 500 4441 
Q 881 4594 1212 4672 
Q 1544 4750 1819 4750 
Q 2544 4750 2975 4387 
Q 3406 4025 3406 3419 
Q 3406 3131 3298 2873 
Q 3191 2616 2906 2266 
Q 2828 2175 2409 1742 
Q 1991 1309 1228 531 
z
" transform="scale(0.015625)"/>
       </defs>
       <use xlink:href="#DejaVuSans-32"/>
       <use xlink:href="#DejaVuSans-30" x="63.623047"/>
      </g>
     </g>
    </g>
    <g id="xtick_6">
     <g id="line2d_7">
      <g>
       <use xlink:href="#m571fa9eda2" x="581.020725" y="192.24" style="stroke: #000000; stroke-width: 0.8"/>
      </g>
     </g>
     <g id="text_6">
      <!-- 25 -->
      <g transform="translate(574.658225 206.838437) scale(0.1 -0.1)">
       <use xlink:href="#DejaVuSans-32"/>
       <use xlink:href="#DejaVuSans-35" x="63.623047"/>
      </g>
     </g>
    </g>
   </g>
   <g id="matplotlib.axis_2">
    <g id="ytick_1">
     <g id="line2d_8">
      <defs>
       <path id="m37560a6d1b" d="M 0 0 
L -3.5 0 
" style="stroke: #000000; stroke-width: 0.8"/>
      </defs>
      <g>
       <use xlink:href="#m37560a6d1b" x="90" y="192.24" style="stroke: #000000; stroke-width: 0.8"/>
      </g>
     </g>
     <g id="text_7">
      <!-- 0.0 -->
      <g transform="translate(67.096875 196.039219) scale(0.1 -0.1)">
       <defs>
        <path id="DejaVuSans-2e" d="M 684 794 
L 1344 794 
L 1344 0 
L 684 0 
L 684 794 
z
" transform="scale(0.015625)"/>
       </defs>
       <use xlink:href="#DejaVuSans-30"/>
       <use xlink:href="#DejaVuSans-2e" x="63.623047"/>
       <use xlink:href="#DejaVuSans-30" x="95.410156"/>
      </g>
     </g>
    </g>
    <g id="ytick_2">
     <g id="line2d_9">
      <g>
       <use xlink:href="#m37560a6d1b" x="90" y="157.207006" style="stroke: #000000; stroke-width: 0.8"/>
      </g>
     </g>
     <g id="text_8">
      <!-- 0.2 -->
      <g transform="translate(67.096875 161.006225) scale(0.1 -0.1)">
       <use xlink:href="#DejaVuSans-30"/>
       <use xlink:href="#DejaVuSans-2e" x="63.623047"/>
       <use xlink:href="#DejaVuSans-32" x="95.410156"/>
      </g>
     </g>
    </g>
    <g id="ytick_3">
     <g id="line2d_10">
      <g>
       <use xlink:href="#m37560a6d1b" x="90" y="122.174012" style="stroke: #000000; stroke-width: 0.8"/>
      </g>
     </g>
     <g id="text_9">
      <!-- 0.4 -->
      <g transform="translate(67.096875 125.97323) scale(0.1 -0.1)">
       <defs>
        <path id="DejaVuSans-34" d="M 2419 4116 
L 825 1625 
L 2419 1625 
L 2419 4116 
z
M 2253 4666 
L 3047 4666 
L 3047 1625 
L 3713 1625 
L 3713 1100 
L 3047 1100 
L 3047 0 
L 2419 0 
L 2419 1100 
L 313 1100 
L 313 1709 
L 2253 4666 
z
" transform="scale(0.015625)"/>
       </defs>
       <use xlink:href="#DejaVuSans-30"/>
       <use xlink:href="#DejaVuSans-2e" x="63.623047"/>
       <use xlink:href="#DejaVuSans-34" x="95.410156"/>
      </g>
     </g>
    </g>
    <g id="ytick_4">
     <g id="line2d_11">
      <g>
       <use xlink:href="#m37560a6d1b" x="90" y="87.141017" style="stroke: #000000; stroke-width: 0.8"/>
      </g>
     </g>
     <g id="text_10">
      <!-- 0.6 -->
      <g transform="translate(67.096875 90.940236) scale(0.1 -0.1)">
       <defs>
        <path id="DejaVuSans-36" d="M 2113 2584 
Q 1688 2584 1439 2293 
Q 1191 2003 1191 1497 
Q 1191 994 1439 701 
Q 1688 409 2113 409 
Q 2538 409 2786 701 
Q 3034 994 3034 1497 
Q 3034 2003 2786 2293 
Q 2538 2584 2113 2584 
z
M 3366 4563 
L 3366 3988 
Q 3128 4100 2886 4159 
Q 2644 4219 2406 4219 
Q 1781 4219 1451 3797 
Q 1122 3375 1075 2522 
Q 1259 2794 1537 2939 
Q 1816 3084 2150 3084 
Q 2853 3084 3261 2657 
Q 3669 2231 3669 1497 
Q 3669 778 3244 343 
Q 2819 -91 2113 -91 
Q 1303 -91 875 529 
Q 447 1150 447 2328 
Q 447 3434 972 4092 
Q 1497 4750 2381 4750 
Q 2619 4750 2861 4703 
Q 3103 4656 3366 4563 
z
" transform="scale(0.015625)"/>
       </defs>
       <use xlink:href="#DejaVuSans-30"/>
       <use xlink:href="#DejaVuSans-2e" x="63.623047"/>
       <use xlink:href="#DejaVuSans-36" x="95.410156"/>
      </g>
     </g>
    </g>
    <g id="ytick_5">
     <g id="line2d_12">
      <g>
       <use xlink:href="#m37560a6d1b" x="90" y="52.108023" style="stroke: #000000; stroke-width: 0.8"/>
      </g>
     </g>
     <g id="text_11">
      <!-- 0.8 -->
      <g transform="translate(67.096875 55.907242) scale(0.1 -0.1)">
       <defs>
        <path id="DejaVuSans-38" d="M 2034 2216 
Q 1584 2216 1326 1975 
Q 1069 1734 1069 1313 
Q 1069 891 1326 650 
Q 1584 409 2034 409 
Q 2484 409 2743 651 
Q 3003 894 3003 1313 
Q 3003 1734 2745 1975 
Q 2488 2216 2034 2216 
z
M 1403 2484 
Q 997 2584 770 2862 
Q 544 3141 544 3541 
Q 544 4100 942 4425 
Q 1341 4750 2034 4750 
Q 2731 4750 3128 4425 
Q 3525 4100 3525 3541 
Q 3525 3141 3298 2862 
Q 3072 2584 2669 2484 
Q 3125 2378 3379 2068 
Q 3634 1759 3634 1313 
Q 3634 634 3220 271 
Q 2806 -91 2034 -91 
Q 1263 -91 848 271 
Q 434 634 434 1313 
Q 434 1759 690 2068 
Q 947 2378 1403 2484 
z
M 1172 3481 
Q 1172 3119 1398 2916 
Q 1625 2713 2034 2713 
Q 2441 2713 2670 2916 
Q 2900 3119 2900 3481 
Q 2900 3844 2670 4047 
Q 2441 4250 2034 4250 
Q 1625 4250 1398 4047 
Q 1172 3844 1172 3481 
z
" transform="scale(0.015625)"/>
       </defs>
       <use xlink:href="#DejaVuSans-30"/>
       <use xlink:href="#DejaVuSans-2e" x="63.623047"/>
       <use xlink:href="#DejaVuSans-38" x="95.410156"/>
      </g>
     </g>
    </g>
   </g>
  </g>
 </g>
 <defs>
  <clipPath id="peb3aa7c1f3">
   <rect x="90" y="25.92" width="558" height="166.32"/>
  </clipPath>
 </defs>
</svg>
