<?xml version="1.0" encoding="utf-8" standalone="no"?>
<!DOCTYPE svg PUBLIC "-//W3C//DTD SVG 1.1//EN"
  "http://www.w3.org/Graphics/SVG/1.1/DTD/svg11.dtd">
<svg xmlns:xlink="http://www.w3.org/1999/xlink" width="720pt" height="216pt" viewBox="0 0 720 216" xmlns="http://www.w3.org/2000/svg" version="1.1">
 <metadata>
  <rdf:RDF xmlns:dc="http://purl.org/dc/elements/1.1/" xmlns:cc="http://creativecommons.org/ns#" xmlns:rdf="http://www.w3.org/1999/02/22-rdf-syntax-ns#">
   <cc:Work>
    <dc:type rdf:resource="http://purl.org/dc/dcmitype/StillImage"/>
    <dc:date>2025-12-17T10:22:57.934629</dc:date>
    <dc:format>image/svg+xml</dc:format>
    <dc:creator>
     <cc:Agent>
      <dc:title>Matplotlib v3.8.2, https://matplotlib.org/</dc:title>
     </cc:Agent>
    </dc:creator>
   </cc:Work>
  </rdf:RDF>
 </metadata>
 <defs>
  <style type="text/css">*{stroke-linejoin: round; stroke-linecap: butt}</style>
 </defs>
 <g id="figure_1">
  <g id="patch_1">
   <path d="M 0 216 
L 720 216 
L 720 0 
L 0 0 
z
" style="fill: #ffffff"/>
  </g>
  <g id="axes_1">
   <g id="patch_2">
    <path d="M 90 192.24 
L 648 192.24 
L 648 25.92 
L 90 25.92 
z
" style="fill: #ffffff"/>
   </g>
   <g id="line2d_1">
    <path d="M 90 192.24 
L 648 192.24 
" clip-path="url(#p1104f52afe)" style="fill: none; stroke: #000000; stroke-width: 0.5; stroke-linecap: square"/>
   </g>
   <g id="patch_3">
    <path d="M 108.966011 192.003868 
Q 107.379537 192.120913 105.664042 192.180116 
Q 103.948548 192.24 102.08014 192.24 
Q 96.508366 192.24 93.254183 191.796316 
Q 90 191.352632 90 190.593878 
Q 90 189.832402 93.254183 189.389399 
Q 96.508366 188.945715 102.08014 188.945715 
Q 103.948548 188.945715 105.664042 189.005599 
Q 107.379537 189.064802 108.966011 189.181847 
L 108.966011 189.838527 
Q 107.365201 189.683374 105.812177 189.611241 
Q 104.259152 189.539108 102.543658 189.539108 
Q 99.46628 189.539108 97.703001 189.820153 
Q 95.944499 190.100518 95.944499 190.593878 
Q 95.944499 191.085197 97.703001 191.366242 
Q 99.46628 191.646607 102.543658 191.646607 
Q 104.259152 191.646607 105.812177 191.574474 
Q 107.365201 191.501661 108.966011 191.346508 
L 108.966011 192.003868 
z
" clip-path="url(#p1104f52afe)" style="fill: #0000ff"/>
   </g>
   <g id="patch_4">
    <path d="M 103.137772 188.157327 
L 95.843749 188.157327 
L 94.692062 188.945715 
L 90 188.945715 
L 96.700729 184.617929 
L 102.265282 184.617929 
L 108.966011 188.945715 
L 104.277827 188.945715 
L 103.137772 188.157327 
z
M 97.00707 187.354099 
L 101.962818 187.354099 
L 99.488822 185.632631 
L 97.00707 187.354099 
z
" clip-path="url(#p1104f52afe)" style="fill: #008000"/>
   </g>
   <g id="patch_5">
    <path d="M 108.966011 183.969215 
Q 107.053258 184.293572 104.995985 184.456491 
Q 102.938713 184.617929 100.745422 184.617929 
Q 95.789266 184.617929 92.894633 183.652264 
Q 90 182.686599 90 181.035193 
Q 90 179.364534 92.94564 178.406274 
Q 95.89553 177.448014 101.02596 177.448014 
Q 103.002471 177.448014 104.813211 177.57835 
Q 106.628201 177.707204 108.234914 177.96195 
L 108.234914 179.391193 
Q 106.577195 179.063874 104.936477 178.902436 
Q 103.29576 178.739517 101.646542 178.739517 
Q 98.594638 178.739517 96.941169 179.334912 
Q 95.2877 179.928826 95.2877 181.035193 
Q 95.2877 182.131193 96.881661 182.72955 
Q 98.475622 183.326426 101.40851 183.326426 
Q 102.207616 183.326426 102.891957 183.292361 
Q 103.576297 183.256815 104.120369 183.182761 
L 104.120369 181.840901 
L 100.996206 181.840901 
L 100.996206 180.645669 
L 108.966011 180.645669 
L 108.966011 183.969215 
z
" clip-path="url(#p1104f52afe)" style="fill: #ffa600"/>
   </g>
   <g id="patch_6">
    <path d="M 90 162.010091 
L 108.966011 162.010091 
L 108.966011 165.020916 
L 102.142658 165.020916 
L 102.142658 177.448014 
L 96.836585 177.448014 
L 96.836585 165.020916 
L 90 165.020916 
L 90 162.010091 
z
" clip-path="url(#p1104f52afe)" style="fill: #ff0000"/>
   </g>
   <g id="patch_7">
    <path d="M 123.101994 191.672301 
L 115.807971 191.672301 
L 114.656283 192.24 
L 109.964222 192.24 
L 116.664951 189.123665 
L 122.229503 189.123665 
L 128.930233 192.24 
L 124.242049 192.24 
L 123.101994 191.672301 
z
M 116.971292 191.093916 
L 121.92704 191.093916 
L 119.453044 189.854328 
L 116.971292 191.093916 
z
" clip-path="url(#p1104f52afe)" style="fill: #008000"/>
   </g>
   <g id="patch_8">
    <path d="M 128.930233 188.879509 
Q 127.343758 189.000532 125.628264 189.061747 
Q 123.912769 189.123665 122.044362 189.123665 
Q 116.472588 189.123665 113.218405 188.664905 
Q 109.964222 188.206144 109.964222 187.421608 
Q 109.964222 186.634256 113.218405 186.1762 
Q 116.472588 185.717439 122.044362 185.717439 
Q 123.912769 185.717439 125.628264 185.779358 
Q 127.343758 185.840573 128.930233 185.961595 
L 128.930233 186.640589 
Q 127.329423 186.480164 125.776399 186.40558 
Q 124.223374 186.330996 122.50788 186.330996 
Q 119.430502 186.330996 117.667222 186.621591 
Q 115.908721 186.911483 115.908721 187.421608 
Q 115.908721 187.929622 117.667222 188.220217 
Q 119.430502 188.510108 122.50788 188.510108 
Q 124.223374 188.510108 125.776399 188.435525 
Q 127.329423 188.360237 128.930233 188.199812 
L 128.930233 188.879509 
z
" clip-path="url(#p1104f52afe)" style="fill: #0000ff"/>
   </g>
   <g id="patch_9">
    <path d="M 109.964222 172.454899 
L 128.930233 172.454899 
L 128.930233 175.041463 
L 122.106879 175.041463 
L 122.106879 185.717439 
L 116.800807 185.717439 
L 116.800807 175.041463 
L 109.964222 175.041463 
L 109.964222 172.454899 
z
" clip-path="url(#p1104f52afe)" style="fill: #ff0000"/>
   </g>
   <g id="patch_10">
    <path d="M 128.930233 171.176256 
Q 127.017479 171.815577 124.960207 172.136697 
Q 122.902935 172.454899 120.709644 172.454899 
Q 115.753488 172.454899 112.858855 170.551531 
Q 109.964222 168.648163 109.964222 165.39317 
Q 109.964222 162.100226 112.909862 160.211455 
Q 115.859752 158.322683 120.990181 158.322683 
Q 122.966693 158.322683 124.777433 158.57958 
Q 126.592423 158.833557 128.199136 159.335672 
L 128.199136 162.152773 
Q 126.541416 161.507613 124.900699 161.189412 
Q 123.259982 160.868292 121.610764 160.868292 
Q 118.55886 160.868292 116.905391 162.041841 
Q 115.251922 163.212471 115.251922 165.39317 
Q 115.251922 167.553434 116.845883 168.732822 
Q 118.439844 169.90929 121.372732 169.90929 
Q 122.171838 169.90929 122.856178 169.842147 
Q 123.540519 169.772084 124.084591 169.62612 
L 124.084591 166.981256 
L 120.960428 166.981256 
L 120.960428 164.6254 
L 128.930233 164.6254 
L 128.930233 171.176256 
z
" clip-path="url(#p1104f52afe)" style="fill: #ffa600"/>
   </g>
   <g id="patch_11">
    <path d="M 148.894454 192.157977 
Q 146.981701 192.198988 144.924429 192.219588 
Q 142.867156 192.24 140.673866 192.24 
Q 135.71771 192.24 132.823077 192.117901 
Q 129.928444 191.995802 129.928444 191.786999 
Q 129.928444 191.57576 132.874084 191.454598 
Q 135.823974 191.333435 140.954403 191.333435 
Q 142.930915 191.333435 144.741655 191.349915 
Q 146.556645 191.366207 148.163358 191.398417 
L 148.163358 191.579131 
Q 146.505638 191.537745 144.864921 191.517333 
Q 143.224204 191.496733 141.574985 191.496733 
Q 138.523081 191.496733 136.869613 191.572015 
Q 135.216144 191.647109 135.216144 191.786999 
Q 135.216144 191.925577 136.810105 192.001233 
Q 138.404066 192.076702 141.336954 192.076702 
Q 142.13606 192.076702 142.8204 192.072395 
Q 143.504741 192.067901 144.048813 192.058537 
L 144.048813 191.888872 
L 140.924649 191.888872 
L 140.924649 191.737747 
L 148.894454 191.737747 
L 148.894454 192.157977 
z
" clip-path="url(#p1104f52afe)" style="fill: #ffa600"/>
   </g>
   <g id="patch_12">
    <path d="M 143.066216 191.161477 
L 135.772193 191.161477 
L 134.620505 191.333435 
L 129.928444 191.333435 
L 136.629173 190.389487 
L 142.193725 190.389487 
L 148.894454 191.333435 
L 144.206271 191.333435 
L 143.066216 191.161477 
z
M 136.935514 190.986282 
L 141.891262 190.986282 
L 139.417266 190.610807 
L 136.935514 190.986282 
z
" clip-path="url(#p1104f52afe)" style="fill: #008000"/>
   </g>
   <g id="patch_13">
    <path d="M 148.894454 190.319145 
Q 147.30798 190.354012 145.592486 190.371648 
Q 143.876991 190.389487 142.008584 190.389487 
Q 136.43681 190.389487 133.182627 190.257318 
Q 129.928444 190.125149 129.928444 189.899124 
Q 129.928444 189.672289 133.182627 189.540323 
Q 136.43681 189.408154 142.008584 189.408154 
Q 143.876991 189.408154 145.592486 189.425992 
Q 147.30798 189.443628 148.894454 189.478495 
L 148.894454 189.674113 
Q 147.293645 189.627894 145.74062 189.606407 
Q 144.187596 189.584919 142.472102 189.584919 
Q 139.394724 189.584919 137.631444 189.66864 
Q 135.872943 189.752157 135.872943 189.899124 
Q 135.872943 190.045483 137.631444 190.129203 
Q 139.394724 190.212721 142.472102 190.212721 
Q 144.187596 190.212721 145.74062 190.191233 
Q 147.293645 190.169543 148.894454 190.123325 
L 148.894454 190.319145 
z
" clip-path="url(#p1104f52afe)" style="fill: #0000ff"/>
   </g>
   <g id="patch_14">
    <path d="M 129.928444 187.866059 
L 148.894454 187.866059 
L 148.894454 188.166811 
L 142.071101 188.166811 
L 142.071101 189.408154 
L 136.765029 189.408154 
L 136.765029 188.166811 
L 129.928444 188.166811 
L 129.928444 187.866059 
z
" clip-path="url(#p1104f52afe)" style="fill: #ff0000"/>
   </g>
   <g id="patch_15">
    <path d="M 168.858676 192.160202 
Q 167.272202 192.199756 165.556708 192.219763 
Q 163.841213 192.24 161.972805 192.24 
Q 156.401032 192.24 153.146849 192.090062 
Q 149.892665 191.940123 149.892665 191.68371 
Q 149.892665 191.426377 153.146849 191.276669 
Q 156.401032 191.12673 161.972805 191.12673 
Q 163.841213 191.12673 165.556708 191.146968 
Q 167.272202 191.166975 168.858676 191.206529 
L 168.858676 191.428447 
Q 167.257867 191.376015 165.704842 191.351638 
Q 164.151818 191.327262 162.436323 191.327262 
Q 159.358946 191.327262 157.595666 191.422238 
Q 155.837165 191.516984 155.837165 191.68371 
Q 155.837165 191.849746 157.595666 191.944723 
Q 159.358946 192.039469 162.436323 192.039469 
Q 164.151818 192.039469 165.704842 192.015092 
Q 167.257867 191.990486 168.858676 191.938054 
L 168.858676 192.160202 
z
" clip-path="url(#p1104f52afe)" style="fill: #0000ff"/>
   </g>
   <g id="patch_16">
    <path d="M 163.030438 190.761685 
L 155.736415 190.761685 
L 154.584727 191.12673 
L 149.892665 191.12673 
L 156.593395 189.122845 
L 162.157947 189.122845 
L 168.858676 191.12673 
L 164.170492 191.12673 
L 163.030438 190.761685 
z
M 156.899736 190.389768 
L 161.855484 190.389768 
L 159.381487 189.59268 
L 156.899736 190.389768 
z
" clip-path="url(#p1104f52afe)" style="fill: #008000"/>
   </g>
   <g id="patch_17">
    <path d="M 149.892665 187.050451 
L 168.858676 187.050451 
L 168.858676 187.454626 
L 162.035323 187.454626 
L 162.035323 189.122845 
L 156.729251 189.122845 
L 156.729251 187.454626 
L 149.892665 187.454626 
L 149.892665 187.050451 
z
" clip-path="url(#p1104f52afe)" style="fill: #ff0000"/>
   </g>
   <g id="patch_18">
    <path d="M 168.858676 186.794764 
Q 166.945923 186.922608 164.888651 186.986821 
Q 162.831378 187.050451 160.638088 187.050451 
Q 155.681932 187.050451 152.787299 186.669839 
Q 149.892665 186.289226 149.892665 185.638331 
Q 149.892665 184.979848 152.838305 184.602154 
Q 155.788196 184.22446 160.918625 184.22446 
Q 162.895137 184.22446 164.705876 184.275831 
Q 166.520867 184.326618 168.127579 184.427025 
L 168.127579 184.990355 
Q 166.46986 184.861344 164.829143 184.797714 
Q 163.188426 184.7335 161.539207 184.7335 
Q 158.487303 184.7335 156.833834 184.968172 
Q 155.180365 185.202261 155.180365 185.638331 
Q 155.180365 186.070315 156.774326 186.306155 
Q 158.368287 186.541411 161.301176 186.541411 
Q 162.100282 186.541411 162.784622 186.527984 
Q 163.468963 186.513974 164.013035 186.484786 
L 164.013035 185.955898 
L 160.888871 185.955898 
L 160.888871 185.484802 
L 168.858676 185.484802 
L 168.858676 186.794764 
z
" clip-path="url(#p1104f52afe)" style="fill: #ffa600"/>
   </g>
   <g id="patch_19">
    <path d="M 188.822898 192.014311 
Q 187.236424 192.12618 185.520929 192.182765 
Q 183.805435 192.24 181.937027 192.24 
Q 176.365254 192.24 173.111071 191.815939 
Q 169.856887 191.391879 169.856887 190.666683 
Q 169.856887 189.938886 173.111071 189.515476 
Q 176.365254 189.091415 181.937027 189.091415 
Q 183.805435 189.091415 185.520929 189.14865 
Q 187.236424 189.205235 188.822898 189.317104 
L 188.822898 189.94474 
Q 187.222088 189.796449 185.669064 189.727506 
Q 184.11604 189.658564 182.400545 189.658564 
Q 179.323168 189.658564 177.559888 189.927179 
Q 175.801387 190.195144 175.801387 190.666683 
Q 175.801387 191.136272 177.559888 191.404887 
Q 179.323168 191.672852 182.400545 191.672852 
Q 184.11604 191.672852 185.669064 191.603909 
Q 187.222088 191.534316 188.822898 191.386025 
L 188.822898 192.014311 
z
" clip-path="url(#p1104f52afe)" style="fill: #0000ff"/>
   </g>
   <g id="patch_20">
    <path d="M 188.822898 188.426707 
Q 186.910145 188.759061 184.852872 188.925997 
Q 182.7956 189.091415 180.60231 189.091415 
Q 175.646154 189.091415 172.75152 188.101941 
Q 169.856887 187.112466 169.856887 185.420343 
Q 169.856887 183.708491 172.802527 182.726604 
Q 175.752418 181.744718 180.882847 181.744718 
Q 182.859359 181.744718 184.670098 181.878266 
Q 186.485089 182.010298 188.091801 182.271325 
L 188.091801 183.735808 
Q 186.434082 183.400418 184.793365 183.235 
Q 183.152647 183.068064 181.503429 183.068064 
Q 178.451525 183.068064 176.798056 183.678139 
Q 175.144587 184.286696 175.144587 185.420343 
Q 175.144587 186.543366 176.738548 187.156476 
Q 178.332509 187.768069 181.265398 187.768069 
Q 182.064503 187.768069 182.748844 187.733164 
Q 183.433185 187.696742 183.977257 187.620862 
L 183.977257 186.245917 
L 180.853093 186.245917 
L 180.853093 185.021214 
L 188.822898 185.021214 
L 188.822898 188.426707 
z
" clip-path="url(#p1104f52afe)" style="fill: #ffa600"/>
   </g>
   <g id="patch_21">
    <path d="M 182.99466 179.641612 
L 175.700637 179.641612 
L 174.548949 181.744718 
L 169.856887 181.744718 
L 176.557617 170.199907 
L 182.122169 170.199907 
L 188.822898 181.744718 
L 184.134714 181.744718 
L 182.99466 179.641612 
z
M 176.863958 177.498919 
L 181.819705 177.498919 
L 179.345709 172.906727 
L 176.863958 177.498919 
z
" clip-path="url(#p1104f52afe)" style="fill: #008000"/>
   </g>
   <g id="patch_22">
    <path d="M 169.856887 69.445197 
L 188.822898 69.445197 
L 188.822898 89.095172 
L 181.999545 89.095172 
L 181.999545 170.199907 
L 176.693473 170.199907 
L 176.693473 89.095172 
L 169.856887 89.095172 
L 169.856887 69.445197 
z
" clip-path="url(#p1104f52afe)" style="fill: #ff0000"/>
   </g>
   <g id="patch_23">
    <path d="M 208.78712 191.586763 
Q 207.200646 191.910558 205.485151 192.074338 
Q 203.769657 192.24 201.901249 192.24 
Q 196.329476 192.24 193.075292 191.012592 
Q 189.821109 189.785183 189.821109 187.686165 
Q 189.821109 185.579616 193.075292 184.35409 
Q 196.329476 183.126682 201.901249 183.126682 
Q 203.769657 183.126682 205.485151 183.292344 
Q 207.200646 183.456124 208.78712 183.779919 
L 208.78712 185.596559 
Q 207.18631 185.167342 205.633286 184.967794 
Q 204.080262 184.768246 202.364767 184.768246 
Q 199.28739 184.768246 197.52411 185.54573 
Q 195.765608 186.321332 195.765608 187.686165 
Q 195.765608 189.04535 197.52411 189.822834 
Q 199.28739 190.598436 202.364767 190.598436 
Q 204.080262 190.598436 205.633286 190.398888 
Q 207.18631 190.197457 208.78712 189.768241 
L 208.78712 191.586763 
z
" clip-path="url(#p1104f52afe)" style="fill: #0000ff"/>
   </g>
   <g id="patch_24">
    <path d="M 189.821109 159.204222 
L 208.78712 159.204222 
L 208.78712 163.869768 
L 201.963767 163.869768 
L 201.963767 183.126682 
L 196.657694 183.126682 
L 196.657694 163.869768 
L 189.821109 163.869768 
L 189.821109 159.204222 
z
" clip-path="url(#p1104f52afe)" style="fill: #ff0000"/>
   </g>
   <g id="patch_25">
    <path d="M 208.78712 156.163704 
Q 206.874367 157.683963 204.817094 158.447563 
Q 202.759822 159.204222 200.566532 159.204222 
Q 195.610376 159.204222 192.715742 154.678154 
Q 189.821109 150.152086 189.821109 142.411954 
Q 189.821109 134.581579 192.766749 130.09022 
Q 195.71664 125.598861 200.847069 125.598861 
Q 202.82358 125.598861 204.63432 126.209742 
Q 206.44931 126.81368 208.056023 128.007674 
L 208.056023 134.706532 
Q 206.398304 133.172389 204.757586 132.415731 
Q 203.116869 131.65213 201.467651 131.65213 
Q 198.415747 131.65213 196.762278 134.442743 
Q 195.108809 137.226413 195.108809 142.411954 
Q 195.108809 147.548903 196.70277 150.353399 
Q 198.296731 153.150953 201.229619 153.150953 
Q 202.028725 153.150953 202.713066 152.991291 
Q 203.397406 152.824687 203.941478 152.477596 
L 203.941478 146.188305 
L 200.817315 146.188305 
L 200.817315 140.586255 
L 208.78712 140.586255 
L 208.78712 156.163704 
z
" clip-path="url(#p1104f52afe)" style="fill: #ffa600"/>
   </g>
   <g id="patch_26">
    <path d="M 222.923103 191.675565 
L 215.62908 191.675565 
L 214.477392 192.24 
L 209.785331 192.24 
L 216.48606 189.141583 
L 222.050612 189.141583 
L 228.751342 192.24 
L 224.063158 192.24 
L 222.923103 191.675565 
z
M 216.792401 191.100505 
L 221.748149 191.100505 
L 219.274153 189.868044 
L 216.792401 191.100505 
z
" clip-path="url(#p1104f52afe)" style="fill: #008000"/>
   </g>
   <g id="patch_27">
    <path d="M 228.751342 188.801175 
Q 226.838588 188.971379 224.781316 189.05687 
Q 222.724044 189.141583 220.530753 189.141583 
Q 215.574597 189.141583 212.679964 188.634857 
Q 209.785331 188.128131 209.785331 187.261567 
Q 209.785331 186.3849 212.730971 185.88206 
Q 215.680861 185.37922 220.811291 185.37922 
Q 222.787802 185.37922 224.598542 185.447612 
Q 226.413532 185.515228 228.020245 185.648904 
L 228.020245 186.398889 
Q 226.362525 186.227131 224.721808 186.142418 
Q 223.081091 186.056927 221.431873 186.056927 
Q 218.379969 186.056927 216.7265 186.369356 
Q 215.073031 186.681008 215.073031 187.261567 
Q 215.073031 187.836686 216.666992 188.150669 
Q 218.260953 188.463876 221.193841 188.463876 
Q 221.992947 188.463876 222.677288 188.446001 
Q 223.361628 188.427348 223.9057 188.388489 
L 223.9057 187.684357 
L 220.781537 187.684357 
L 220.781537 187.057167 
L 228.751342 187.057167 
L 228.751342 188.801175 
z
" clip-path="url(#p1104f52afe)" style="fill: #ffa600"/>
   </g>
   <g id="patch_28">
    <path d="M 228.751342 184.919171 
Q 227.164868 185.147207 225.449373 185.26255 
Q 223.733879 185.37922 221.865471 185.37922 
Q 216.293697 185.37922 213.039514 184.514805 
Q 209.785331 183.65039 209.785331 182.172134 
Q 209.785331 180.688575 213.039514 179.825486 
Q 216.293697 178.961071 221.865471 178.961071 
Q 223.733879 178.961071 225.449373 179.07774 
Q 227.164868 179.193084 228.751342 179.42112 
L 228.751342 180.700507 
Q 227.150532 180.398227 225.597508 180.257693 
Q 224.044483 180.11716 222.328989 180.11716 
Q 219.251611 180.11716 217.488332 180.664711 
Q 215.72983 181.210936 215.72983 182.172134 
Q 215.72983 183.129354 217.488332 183.676906 
Q 219.251611 184.223131 222.328989 184.223131 
Q 224.044483 184.223131 225.597508 184.082597 
Q 227.150532 183.940738 228.751342 183.638458 
L 228.751342 184.919171 
z
" clip-path="url(#p1104f52afe)" style="fill: #0000ff"/>
   </g>
   <g id="patch_29">
    <path d="M 209.785331 166.346088 
L 228.751342 166.346088 
L 228.751342 168.806361 
L 221.927989 168.806361 
L 221.927989 178.961071 
L 216.621916 178.961071 
L 216.621916 168.806361 
L 209.785331 168.806361 
L 209.785331 166.346088 
z
" clip-path="url(#p1104f52afe)" style="fill: #ff0000"/>
   </g>
   <g id="patch_30">
    <path d="M 248.715564 192.108255 
Q 247.129089 192.173558 245.413595 192.206589 
Q 243.6981 192.24 241.829693 192.24 
Q 236.257919 192.24 233.003736 191.992455 
Q 229.749553 191.744911 229.749553 191.321579 
Q 229.749553 190.896728 233.003736 190.649563 
Q 236.257919 190.402018 241.829693 190.402018 
Q 243.6981 190.402018 245.413595 190.435429 
Q 247.129089 190.46846 248.715564 190.533764 
L 248.715564 190.900145 
Q 247.114754 190.81358 245.56173 190.773335 
Q 244.008705 190.73309 242.293211 190.73309 
Q 239.215833 190.73309 237.452553 190.889894 
Q 235.694052 191.046318 235.694052 191.321579 
Q 235.694052 191.5957 237.452553 191.752504 
Q 239.215833 191.908928 242.293211 191.908928 
Q 244.008705 191.908928 245.56173 191.868683 
Q 247.114754 191.828058 248.715564 191.741493 
L 248.715564 192.108255 
z
" clip-path="url(#p1104f52afe)" style="fill: #0000ff"/>
   </g>
   <g id="patch_31">
    <path d="M 229.749553 186.558966 
L 248.715564 186.558966 
L 248.715564 187.308468 
L 241.89221 187.308468 
L 241.89221 190.402018 
L 236.586138 190.402018 
L 236.586138 187.308468 
L 229.749553 187.308468 
L 229.749553 186.558966 
z
" clip-path="url(#p1104f52afe)" style="fill: #ff0000"/>
   </g>
   <g id="patch_32">
    <path d="M 248.715564 186.029844 
Q 246.80281 186.294405 244.745538 186.427289 
Q 242.688266 186.558966 240.494975 186.558966 
Q 235.538819 186.558966 232.644186 185.771323 
Q 229.749553 184.983681 229.749553 183.636716 
Q 229.749553 182.274046 232.695193 181.492444 
Q 235.645083 180.710842 240.775512 180.710842 
Q 242.752024 180.710842 244.562764 180.817149 
Q 246.377754 180.922249 247.984467 181.130032 
L 247.984467 182.295791 
Q 246.326747 182.028814 244.68603 181.897138 
Q 243.045313 181.764253 241.396095 181.764253 
Q 238.344191 181.764253 236.690722 182.249885 
Q 235.037253 182.73431 235.037253 183.636716 
Q 235.037253 184.530666 236.631214 185.018714 
Q 238.225175 185.505554 241.158063 185.505554 
Q 241.957169 185.505554 242.641509 185.477769 
Q 243.32585 185.448776 243.869922 185.388374 
L 243.869922 184.29389 
L 240.745758 184.29389 
L 240.745758 183.319001 
L 248.715564 183.319001 
L 248.715564 186.029844 
z
" clip-path="url(#p1104f52afe)" style="fill: #ffa600"/>
   </g>
   <g id="patch_33">
    <path d="M 242.887325 179.249796 
L 235.593302 179.249796 
L 234.441614 180.710842 
L 229.749553 180.710842 
L 236.450282 172.690558 
L 242.014834 172.690558 
L 248.715564 180.710842 
L 244.02738 180.710842 
L 242.887325 179.249796 
z
M 236.756623 177.761247 
L 241.712371 177.761247 
L 239.238375 174.57101 
L 236.756623 177.761247 
z
" clip-path="url(#p1104f52afe)" style="fill: #008000"/>
   </g>
   <g id="patch_34">
    <path d="M 262.851547 191.728318 
L 255.557524 191.728318 
L 254.405836 192.24 
L 249.713775 192.24 
L 256.414504 189.431167 
L 261.979056 189.431167 
L 268.679785 192.24 
L 263.991602 192.24 
L 262.851547 191.728318 
z
M 256.720845 191.207004 
L 261.676593 191.207004 
L 259.202597 190.089731 
L 256.720845 191.207004 
z
" clip-path="url(#p1104f52afe)" style="fill: #008000"/>
   </g>
   <g id="patch_35">
    <path d="M 268.679785 189.229831 
Q 267.093311 189.329628 265.377817 189.380107 
Q 263.662322 189.431167 261.793914 189.431167 
Q 256.222141 189.431167 252.967958 189.052865 
Q 249.713775 188.674563 249.713775 188.02762 
Q 249.713775 187.378357 252.967958 187.000635 
Q 256.222141 186.622333 261.793914 186.622333 
Q 263.662322 186.622333 265.377817 186.673392 
Q 267.093311 186.723871 268.679785 186.823669 
L 268.679785 187.383579 
Q 267.078976 187.251289 265.525951 187.189786 
Q 263.972927 187.128283 262.257432 187.128283 
Q 259.180055 187.128283 257.416775 187.367913 
Q 255.658274 187.606962 255.658274 188.02762 
Q 255.658274 188.446537 257.416775 188.686167 
Q 259.180055 188.925217 262.257432 188.925217 
Q 263.972927 188.925217 265.525951 188.863714 
Q 267.078976 188.80163 268.679785 188.669341 
L 268.679785 189.229831 
z
" clip-path="url(#p1104f52afe)" style="fill: #0000ff"/>
   </g>
   <g id="patch_36">
    <path d="M 268.679785 185.732859 
Q 266.767032 186.177596 264.70976 186.40098 
Q 262.652487 186.622333 260.459197 186.622333 
Q 255.503041 186.622333 252.608408 185.298276 
Q 249.713775 183.97422 249.713775 181.709921 
Q 249.713775 179.419221 252.659415 178.105319 
Q 255.609305 176.791416 260.739734 176.791416 
Q 262.716246 176.791416 264.526986 176.970123 
Q 266.341976 177.146799 267.948689 177.49609 
L 267.948689 179.455775 
Q 266.290969 179.006977 264.650252 178.785624 
Q 263.009535 178.56224 261.360316 178.56224 
Q 258.308412 178.56224 256.654943 179.378606 
Q 255.001475 180.192942 255.001475 181.709921 
Q 255.001475 183.212684 256.595436 184.033112 
Q 258.189397 184.851509 261.122285 184.851509 
Q 261.921391 184.851509 262.605731 184.804801 
Q 263.290072 184.756063 263.834144 184.654525 
L 263.834144 182.814655 
L 260.70998 182.814655 
L 260.70998 181.17583 
L 268.679785 181.17583 
L 268.679785 185.732859 
z
" clip-path="url(#p1104f52afe)" style="fill: #ffa600"/>
   </g>
   <g id="patch_37">
    <path d="M 249.713775 27.923241 
L 268.679785 27.923241 
L 268.679785 56.956683 
L 261.856432 56.956683 
L 261.856432 176.791416 
L 256.55036 176.791416 
L 256.55036 56.956683 
L 249.713775 56.956683 
L 249.713775 27.923241 
z
" clip-path="url(#p1104f52afe)" style="fill: #ff0000"/>
   </g>
   <g id="patch_38">
    <path d="M 282.815769 191.478701 
L 275.521746 191.478701 
L 274.370058 192.24 
L 269.677996 192.24 
L 276.378726 188.060915 
L 281.943278 188.060915 
L 288.644007 192.24 
L 283.955823 192.24 
L 282.815769 191.478701 
z
M 276.685067 190.703071 
L 281.640814 190.703071 
L 279.166818 189.040752 
L 276.685067 190.703071 
z
" clip-path="url(#p1104f52afe)" style="fill: #008000"/>
   </g>
   <g id="patch_39">
    <path d="M 288.644007 187.5046 
Q 287.057533 187.780353 285.342039 187.919833 
Q 283.626544 188.060915 281.758136 188.060915 
Q 276.186363 188.060915 272.93218 187.01562 
Q 269.677996 185.970325 269.677996 184.182742 
Q 269.677996 182.388746 272.93218 181.345054 
Q 276.186363 180.299759 281.758136 180.299759 
Q 283.626544 180.299759 285.342039 180.440841 
Q 287.057533 180.580321 288.644007 180.856074 
L 288.644007 182.403175 
Q 287.043197 182.037642 285.490173 181.867701 
Q 283.937149 181.697761 282.221654 181.697761 
Q 279.144277 181.697761 277.380997 182.359888 
Q 275.622496 183.020412 275.622496 184.182742 
Q 275.622496 185.340262 277.380997 186.002389 
Q 279.144277 186.662913 282.221654 186.662913 
Q 283.937149 186.662913 285.490173 186.492973 
Q 287.043197 186.321429 288.644007 185.955896 
L 288.644007 187.5046 
z
" clip-path="url(#p1104f52afe)" style="fill: #0000ff"/>
   </g>
   <g id="patch_40">
    <path d="M 269.677996 169.553541 
L 288.644007 169.553541 
L 288.644007 171.649353 
L 281.820654 171.649353 
L 281.820654 180.299759 
L 276.514582 180.299759 
L 276.514582 171.649353 
L 269.677996 171.649353 
L 269.677996 169.553541 
z
" clip-path="url(#p1104f52afe)" style="fill: #ff0000"/>
   </g>
   <g id="patch_41">
    <path d="M 288.644007 165.28628 
Q 286.731254 167.419911 284.673982 168.491597 
Q 282.616709 169.553541 280.423419 169.553541 
Q 275.467263 169.553541 272.57263 163.201362 
Q 269.677996 156.849183 269.677996 145.986178 
Q 269.677996 134.996519 272.623636 128.693053 
Q 275.573527 122.389587 280.703956 122.389587 
Q 282.680468 122.389587 284.491207 123.246937 
Q 286.306198 124.094543 287.91291 125.770271 
L 287.91291 135.171886 
Q 286.255191 133.01877 284.614474 131.956826 
Q 282.973757 130.885139 281.324538 130.885139 
Q 278.272634 130.885139 276.619165 134.801667 
Q 274.965696 138.708452 274.965696 145.986178 
Q 274.965696 153.195706 276.559657 157.131719 
Q 278.153618 161.057989 281.086507 161.057989 
Q 281.885612 161.057989 282.569953 160.833909 
Q 283.254294 160.600087 283.798366 160.112956 
L 283.798366 151.286156 
L 280.674202 151.286156 
L 280.674202 143.423873 
L 288.644007 143.423873 
L 288.644007 165.28628 
z
" clip-path="url(#p1104f52afe)" style="fill: #ffa600"/>
   </g>
   <g id="patch_42">
    <path d="M 308.608229 192.007327 
Q 306.695476 192.123663 304.638203 192.182097 
Q 302.580931 192.24 300.387641 192.24 
Q 295.431485 192.24 292.536851 191.893646 
Q 289.642218 191.547292 289.642218 190.954985 
Q 289.642218 190.355771 292.587858 190.012073 
Q 295.537749 189.668375 300.668178 189.668375 
Q 302.64469 189.668375 304.455429 189.715123 
Q 306.270419 189.761339 307.877132 189.852708 
L 307.877132 190.365333 
Q 306.219413 190.247934 304.578696 190.190031 
Q 302.937978 190.131597 301.28876 190.131597 
Q 298.236856 190.131597 296.583387 190.345147 
Q 294.929918 190.558165 294.929918 190.954985 
Q 294.929918 191.348086 296.523879 191.562698 
Q 298.11784 191.776778 301.050729 191.776778 
Q 301.849834 191.776778 302.534175 191.76456 
Q 303.218515 191.751811 303.762588 191.72525 
L 303.762588 191.243967 
L 300.638424 191.243967 
L 300.638424 190.815274 
L 308.608229 190.815274 
L 308.608229 192.007327 
z
" clip-path="url(#p1104f52afe)" style="fill: #ffa600"/>
   </g>
   <g id="patch_43">
    <path d="M 302.779991 188.731435 
L 295.485968 188.731435 
L 294.33428 189.668375 
L 289.642218 189.668375 
L 296.342947 184.525126 
L 301.9075 184.525126 
L 308.608229 189.668375 
L 303.920045 189.668375 
L 302.779991 188.731435 
z
M 296.649289 187.776859 
L 301.605036 187.776859 
L 299.13104 185.731023 
L 296.649289 187.776859 
z
" clip-path="url(#p1104f52afe)" style="fill: #008000"/>
   </g>
   <g id="patch_44">
    <path d="M 308.608229 183.787796 
Q 307.021755 184.153274 305.30626 184.338138 
Q 303.590766 184.525126 301.722358 184.525126 
Q 296.150585 184.525126 292.896401 183.139711 
Q 289.642218 181.754295 289.642218 179.385064 
Q 289.642218 177.007334 292.896401 175.624044 
Q 296.150585 174.238628 301.722358 174.238628 
Q 303.590766 174.238628 305.30626 174.425617 
Q 307.021755 174.61048 308.608229 174.975958 
L 308.608229 177.026458 
Q 307.007419 176.541988 305.454395 176.316751 
Q 303.901371 176.091515 302.185876 176.091515 
Q 299.108499 176.091515 297.345219 176.969087 
Q 295.586717 177.844533 295.586717 179.385064 
Q 295.586717 180.919221 297.345219 181.796793 
Q 299.108499 182.672239 302.185876 182.672239 
Q 303.901371 182.672239 305.454395 182.447003 
Q 307.007419 182.219642 308.608229 181.735171 
L 308.608229 183.787796 
z
" clip-path="url(#p1104f52afe)" style="fill: #0000ff"/>
   </g>
   <g id="patch_45">
    <path d="M 289.642218 41.799963 
L 308.608229 41.799963 
L 308.608229 67.629192 
L 301.784876 67.629192 
L 301.784876 174.238628 
L 296.478804 174.238628 
L 296.478804 67.629192 
L 289.642218 67.629192 
L 289.642218 41.799963 
z
" clip-path="url(#p1104f52afe)" style="fill: #ff0000"/>
   </g>
   <g id="patch_46">
    <path d="M 328.572451 191.988371 
Q 326.985977 192.113098 325.270482 192.176186 
Q 323.554988 192.24 321.68658 192.24 
Q 316.114807 192.24 312.860623 191.767198 
Q 309.60644 191.294397 309.60644 190.485848 
Q 309.60644 189.674398 312.860623 189.202322 
Q 316.114807 188.72952 321.68658 188.72952 
Q 323.554988 188.72952 325.270482 188.793334 
Q 326.985977 188.856422 328.572451 188.981149 
L 328.572451 189.680925 
Q 326.971641 189.515589 325.418617 189.438723 
Q 323.865593 189.361856 322.150098 189.361856 
Q 319.072721 189.361856 317.309441 189.661346 
Q 315.550939 189.96011 315.550939 190.485848 
Q 315.550939 191.00941 317.309441 191.3089 
Q 319.072721 191.607664 322.150098 191.607664 
Q 323.865593 191.607664 325.418617 191.530798 
Q 326.971641 191.453206 328.572451 191.28787 
L 328.572451 191.988371 
z
" clip-path="url(#p1104f52afe)" style="fill: #0000ff"/>
   </g>
   <g id="patch_47">
    <path d="M 309.60644 184.63396 
L 328.572451 184.63396 
L 328.572451 185.432709 
L 321.749098 185.432709 
L 321.749098 188.72952 
L 316.443025 188.72952 
L 316.443025 185.432709 
L 309.60644 185.432709 
L 309.60644 184.63396 
z
" clip-path="url(#p1104f52afe)" style="fill: #ff0000"/>
   </g>
   <g id="patch_48">
    <path d="M 322.744212 181.223293 
L 315.450189 181.223293 
L 314.298502 184.63396 
L 309.60644 184.63396 
L 316.307169 165.911402 
L 321.871722 165.911402 
L 328.572451 184.63396 
L 323.884267 184.63396 
L 322.744212 181.223293 
z
M 316.61351 177.748424 
L 321.569258 177.748424 
L 319.095262 170.301131 
L 316.61351 177.748424 
z
" clip-path="url(#p1104f52afe)" style="fill: #008000"/>
   </g>
   <g id="patch_49">
    <path d="M 328.572451 162.099982 
Q 326.659698 164.005692 324.602425 164.962898 
Q 322.545153 165.911402 320.351863 165.911402 
Q 315.395706 165.911402 312.501073 160.237782 
Q 309.60644 154.564162 309.60644 144.861576 
Q 309.60644 135.045865 312.55208 129.415755 
Q 315.501971 123.785644 320.6324 123.785644 
Q 322.608911 123.785644 324.419651 124.551409 
Q 326.234641 125.308472 327.841354 126.805193 
L 327.841354 135.202499 
Q 326.183635 133.279385 324.542917 132.330881 
Q 322.9022 131.373676 321.252982 131.373676 
Q 318.201078 131.373676 316.547609 134.871828 
Q 314.89414 138.361278 314.89414 144.861576 
Q 314.89414 151.30096 316.488101 154.816516 
Q 318.082062 158.32337 321.01495 158.32337 
Q 321.814056 158.32337 322.498397 158.123227 
Q 323.182737 157.914382 323.726809 157.479289 
L 323.726809 149.595393 
L 320.602646 149.595393 
L 320.602646 142.572984 
L 328.572451 142.572984 
L 328.572451 162.099982 
z
" clip-path="url(#p1104f52afe)" style="fill: #ffa600"/>
   </g>
   <g id="patch_50">
    <path d="M 342.708434 191.46312 
L 335.414411 191.46312 
L 334.262723 192.24 
L 329.570662 192.24 
L 336.271391 187.975385 
L 341.835943 187.975385 
L 348.536673 192.24 
L 343.848489 192.24 
L 342.708434 191.46312 
z
M 336.577732 190.671616 
L 341.53348 190.671616 
L 339.059484 188.975275 
L 336.577732 190.671616 
z
" clip-path="url(#p1104f52afe)" style="fill: #008000"/>
   </g>
   <g id="patch_51">
    <path d="M 348.536673 187.589534 
Q 346.623919 187.782459 344.566647 187.879362 
Q 342.509375 187.975385 340.316084 187.975385 
Q 335.359928 187.975385 332.465295 187.401014 
Q 329.570662 186.826643 329.570662 185.844398 
Q 329.570662 184.850702 332.516302 184.280735 
Q 335.466192 183.710769 340.596622 183.710769 
Q 342.573133 183.710769 344.383873 183.788292 
Q 346.198863 183.864933 347.805576 184.016454 
L 347.805576 184.866558 
Q 346.147856 184.671871 344.507139 184.575849 
Q 342.866422 184.478946 341.217204 184.478946 
Q 338.1653 184.478946 336.511831 184.833083 
Q 334.858362 185.186338 334.858362 185.844398 
Q 334.858362 186.496292 336.452323 186.85219 
Q 338.046284 187.207208 340.979172 187.207208 
Q 341.778278 187.207208 342.462619 187.186946 
Q 343.146959 187.165804 343.691031 187.121757 
L 343.691031 186.323628 
L 340.566868 186.323628 
L 340.566868 185.612712 
L 348.536673 185.612712 
L 348.536673 187.589534 
z
" clip-path="url(#p1104f52afe)" style="fill: #ffa600"/>
   </g>
   <g id="patch_52">
    <path d="M 348.536673 183.303189 
Q 346.950199 183.505217 345.234704 183.607406 
Q 343.519209 183.710769 341.650802 183.710769 
Q 336.079028 183.710769 332.824845 182.944941 
Q 329.570662 182.179114 329.570662 180.869454 
Q 329.570662 179.555096 332.824845 178.790443 
Q 336.079028 178.024615 341.650802 178.024615 
Q 343.519209 178.024615 345.234704 178.127979 
Q 346.950199 178.230167 348.536673 178.432196 
L 348.536673 179.565668 
Q 346.935863 179.297863 345.382839 179.173357 
Q 343.829814 179.048851 342.11432 179.048851 
Q 339.036942 179.048851 337.273662 179.533954 
Q 335.515161 180.017882 335.515161 180.869454 
Q 335.515161 181.717503 337.273662 182.202605 
Q 339.036942 182.686533 342.11432 182.686533 
Q 343.829814 182.686533 345.382839 182.562028 
Q 346.935863 182.436347 348.536673 182.168542 
L 348.536673 183.303189 
z
" clip-path="url(#p1104f52afe)" style="fill: #0000ff"/>
   </g>
   <g id="patch_53">
    <path d="M 329.570662 25.92 
L 348.536673 25.92 
L 348.536673 55.584638 
L 341.713319 55.584638 
L 341.713319 178.024615 
L 336.407247 178.024615 
L 336.407247 55.584638 
L 329.570662 55.584638 
L 329.570662 25.92 
z
" clip-path="url(#p1104f52afe)" style="fill: #ff0000"/>
   </g>
   <g id="patch_54">
    <path d="M 362.672656 191.792199 
L 355.378633 191.792199 
L 354.226945 192.24 
L 349.534884 192.24 
L 356.235613 189.781836 
L 361.800165 189.781836 
L 368.500894 192.24 
L 363.812711 192.24 
L 362.672656 191.792199 
z
M 356.541954 191.335969 
L 361.497702 191.335969 
L 359.023706 190.358182 
L 356.541954 191.335969 
z
" clip-path="url(#p1104f52afe)" style="fill: #008000"/>
   </g>
   <g id="patch_55">
    <path d="M 368.500894 189.558649 
Q 366.91442 189.669278 365.198926 189.725235 
Q 363.483431 189.781836 361.615024 189.781836 
Q 356.04325 189.781836 352.789067 189.362477 
Q 349.534884 188.943118 349.534884 188.225963 
Q 349.534884 187.506235 352.789067 187.087519 
Q 356.04325 186.668161 361.615024 186.668161 
Q 363.483431 186.668161 365.198926 186.724761 
Q 366.91442 186.780718 368.500894 186.891347 
L 368.500894 187.512024 
Q 366.900085 187.365377 365.34706 187.297199 
Q 363.794036 187.229021 362.078542 187.229021 
Q 359.001164 187.229021 357.237884 187.494658 
Q 355.479383 187.759651 355.479383 188.225963 
Q 355.479383 188.690345 357.237884 188.955982 
Q 359.001164 189.220975 362.078542 189.220975 
Q 363.794036 189.220975 365.34706 189.152797 
Q 366.900085 189.083976 368.500894 188.937329 
L 368.500894 189.558649 
z
" clip-path="url(#p1104f52afe)" style="fill: #0000ff"/>
   </g>
   <g id="patch_56">
    <path d="M 349.534884 181.587954 
L 368.500894 181.587954 
L 368.500894 182.578736 
L 361.677541 182.578736 
L 361.677541 186.668161 
L 356.371469 186.668161 
L 356.371469 182.578736 
L 349.534884 182.578736 
L 349.534884 181.587954 
z
" clip-path="url(#p1104f52afe)" style="fill: #ff0000"/>
   </g>
   <g id="patch_57">
    <path d="M 368.500894 180.81694 
Q 366.588141 181.202447 364.530869 181.396081 
Q 362.473597 181.587954 360.280306 181.587954 
Q 355.32415 181.587954 352.429517 180.440235 
Q 349.534884 179.292516 349.534884 177.329776 
Q 349.534884 175.344152 352.480524 174.205234 
Q 355.430414 173.066317 360.560843 173.066317 
Q 362.537355 173.066317 364.348095 173.221224 
Q 366.163085 173.37437 367.769798 173.677143 
L 367.769798 175.375837 
Q 366.112078 174.98681 364.471361 174.794937 
Q 362.830644 174.601303 361.181425 174.601303 
Q 358.129521 174.601303 356.476053 175.308946 
Q 354.822584 176.014828 354.822584 177.329776 
Q 354.822584 178.632402 356.416545 179.343565 
Q 358.010506 180.052968 360.943394 180.052968 
Q 361.7425 180.052968 362.42684 180.012481 
Q 363.111181 179.970234 363.655253 179.882218 
L 363.655253 178.287382 
L 360.531089 178.287382 
L 360.531089 176.866816 
L 368.500894 176.866816 
L 368.500894 180.81694 
z
" clip-path="url(#p1104f52afe)" style="fill: #ffa600"/>
   </g>
   <g id="patch_58">
    <path d="M 388.465116 191.856767 
Q 386.552363 192.048383 384.495091 192.144629 
Q 382.437818 192.24 380.244528 192.24 
Q 375.288372 192.24 372.393739 191.669525 
Q 369.499106 191.09905 369.499106 190.123468 
Q 369.499106 189.136511 372.444745 188.570411 
Q 375.394636 188.004311 380.525065 188.004311 
Q 382.501577 188.004311 384.312317 188.081308 
Q 386.127307 188.157429 387.734019 188.307923 
L 387.734019 189.152261 
Q 386.0763 188.958894 384.435583 188.863523 
Q 382.794866 188.767277 381.145647 188.767277 
Q 378.093743 188.767277 376.440274 189.119012 
Q 374.786806 189.469872 374.786806 190.123468 
Q 374.786806 190.770939 376.380767 191.124424 
Q 377.974728 191.477033 380.907616 191.477033 
Q 381.706722 191.477033 382.391062 191.456909 
Q 383.075403 191.43591 383.619475 191.392162 
L 383.619475 190.599447 
L 380.495311 190.599447 
L 380.495311 189.893353 
L 388.465116 189.893353 
L 388.465116 191.856767 
z
" clip-path="url(#p1104f52afe)" style="fill: #ffa600"/>
   </g>
   <g id="patch_59">
    <path d="M 382.636878 186.769734 
L 375.342855 186.769734 
L 374.191167 188.004311 
L 369.499106 188.004311 
L 376.199835 181.227208 
L 381.764387 181.227208 
L 388.465116 188.004311 
L 383.776932 188.004311 
L 382.636878 186.769734 
z
M 376.506176 185.511917 
L 381.461924 185.511917 
L 378.987928 182.816182 
L 376.506176 185.511917 
z
" clip-path="url(#p1104f52afe)" style="fill: #008000"/>
   </g>
   <g id="patch_60">
    <path d="M 388.465116 180.316373 
Q 386.878642 180.767854 385.163148 180.996219 
Q 383.447653 181.227208 381.579245 181.227208 
Q 376.007472 181.227208 372.753289 179.515784 
Q 369.499106 177.804359 369.499106 174.877612 
Q 369.499106 171.940366 372.753289 170.231566 
Q 376.007472 168.520141 381.579245 168.520141 
Q 383.447653 168.520141 385.163148 168.751131 
Q 386.878642 168.979496 388.465116 169.430976 
L 388.465116 171.96399 
Q 386.864307 171.365516 385.311282 171.087278 
Q 383.758258 170.809041 382.042763 170.809041 
Q 378.965386 170.809041 377.202106 171.893118 
Q 375.443605 172.974571 375.443605 174.877612 
Q 375.443605 176.772779 377.202106 177.856856 
Q 378.965386 178.938309 382.042763 178.938309 
Q 383.758258 178.938309 385.311282 178.660071 
Q 386.864307 178.379208 388.465116 177.780735 
L 388.465116 180.316373 
z
" clip-path="url(#p1104f52afe)" style="fill: #0000ff"/>
   </g>
   <g id="patch_61">
    <path d="M 369.499106 93.124876 
L 388.465116 93.124876 
L 388.465116 107.829053 
L 381.641763 107.829053 
L 381.641763 168.520141 
L 376.335691 168.520141 
L 376.335691 107.829053 
L 369.499106 107.829053 
L 369.499106 93.124876 
z
" clip-path="url(#p1104f52afe)" style="fill: #ff0000"/>
   </g>
   <g id="patch_62">
    <path d="M 389.463327 189.182048 
L 408.429338 189.182048 
L 408.429338 189.778434 
L 401.605985 189.778434 
L 401.605985 192.24 
L 396.299913 192.24 
L 396.299913 189.778434 
L 389.463327 189.778434 
L 389.463327 189.182048 
z
" clip-path="url(#p1104f52afe)" style="fill: #ff0000"/>
   </g>
   <g id="patch_63">
    <path d="M 408.429338 188.88315 
Q 406.842864 189.031307 405.127369 189.106247 
Q 403.411875 189.182048 401.543467 189.182048 
Q 395.971694 189.182048 392.717511 188.620429 
Q 389.463327 188.05881 389.463327 187.098373 
Q 389.463327 186.13449 392.717511 185.573733 
Q 395.971694 185.012114 401.543467 185.012114 
Q 403.411875 185.012114 405.127369 185.087915 
Q 406.842864 185.162855 408.429338 185.311012 
L 408.429338 186.142243 
Q 406.828528 185.945849 405.275504 185.854542 
Q 403.72248 185.763236 402.006985 185.763236 
Q 398.929608 185.763236 397.166328 186.118986 
Q 395.407827 186.473874 395.407827 187.098373 
Q 395.407827 187.720289 397.166328 188.076038 
Q 398.929608 188.430926 402.006985 188.430926 
Q 403.72248 188.430926 405.275504 188.33962 
Q 406.828528 188.247452 408.429338 188.051058 
L 408.429338 188.88315 
z
" clip-path="url(#p1104f52afe)" style="fill: #0000ff"/>
   </g>
   <g id="patch_64">
    <path d="M 402.6011 183.340923 
L 395.307077 183.340923 
L 394.155389 185.012114 
L 389.463327 185.012114 
L 396.164057 175.838259 
L 401.728609 175.838259 
L 408.429338 185.012114 
L 403.741154 185.012114 
L 402.6011 183.340923 
z
M 396.470398 181.638274 
L 401.426145 181.638274 
L 398.952149 177.98918 
L 396.470398 181.638274 
z
" clip-path="url(#p1104f52afe)" style="fill: #008000"/>
   </g>
   <g id="patch_65">
    <path d="M 408.429338 174.379428 
Q 406.516585 175.108843 404.459313 175.475216 
Q 402.40204 175.838259 400.20875 175.838259 
Q 395.252594 175.838259 392.357961 173.666666 
Q 389.463327 171.495073 389.463327 167.781382 
Q 389.463327 164.024393 392.408967 161.869453 
Q 395.358858 159.714513 400.489287 159.714513 
Q 402.465799 159.714513 404.276538 160.007612 
Q 406.091529 160.29738 407.698241 160.870254 
L 407.698241 164.084345 
Q 406.040522 163.348268 404.399805 162.985226 
Q 402.759087 162.618853 401.109869 162.618853 
Q 398.057965 162.618853 396.404496 163.95778 
Q 394.751027 165.293376 394.751027 167.781382 
Q 394.751027 170.246074 396.344988 171.591662 
Q 397.938949 172.93392 400.871838 172.93392 
Q 401.670943 172.93392 402.355284 172.857314 
Q 403.039625 172.777378 403.583697 172.610845 
L 403.583697 169.593263 
L 400.459533 169.593263 
L 400.459533 166.905417 
L 408.429338 166.905417 
L 408.429338 174.379428 
z
" clip-path="url(#p1104f52afe)" style="fill: #ffa600"/>
   </g>
   <g id="patch_66">
    <path d="M 428.39356 191.9079 
Q 426.807086 192.072514 425.091591 192.155779 
Q 423.376097 192.24 421.507689 192.24 
Q 415.935916 192.24 412.681732 191.615997 
Q 409.427549 190.991993 409.427549 189.924871 
Q 409.427549 188.85392 412.681732 188.230873 
Q 415.935916 187.60687 421.507689 187.60687 
Q 423.376097 187.60687 425.091591 187.691091 
Q 426.807086 187.774356 428.39356 187.93897 
L 428.39356 188.862533 
Q 426.79275 188.644324 425.239726 188.542875 
Q 423.686702 188.441427 421.971207 188.441427 
Q 418.89383 188.441427 417.13055 188.836693 
Q 415.372048 189.231002 415.372048 189.924871 
Q 415.372048 190.615868 417.13055 191.011134 
Q 418.89383 191.405443 421.971207 191.405443 
Q 423.686702 191.405443 425.239726 191.303995 
Q 426.79275 191.201589 428.39356 190.98338 
L 428.39356 191.9079 
z
" clip-path="url(#p1104f52afe)" style="fill: #0000ff"/>
   </g>
   <g id="patch_67">
    <path d="M 428.39356 186.978081 
Q 426.480807 187.292476 424.423534 187.450391 
Q 422.366262 187.60687 420.172972 187.60687 
Q 415.216816 187.60687 412.322182 186.670865 
Q 409.427549 185.73486 409.427549 184.134176 
Q 409.427549 182.514829 412.373189 181.586002 
Q 415.32308 180.657175 420.453509 180.657175 
Q 422.43002 180.657175 424.24076 180.783507 
Q 426.05575 180.908403 427.662463 181.155325 
L 427.662463 182.54067 
Q 426.004744 182.223405 424.364026 182.066925 
Q 422.723309 181.90901 421.074091 181.90901 
Q 418.022187 181.90901 416.368718 182.486118 
Q 414.715249 183.06179 414.715249 184.134176 
Q 414.715249 185.196513 416.30921 185.776492 
Q 417.903171 186.355035 420.836059 186.355035 
Q 421.635165 186.355035 422.319506 186.322016 
Q 423.003846 186.287562 423.547918 186.215782 
L 423.547918 184.915137 
L 420.423755 184.915137 
L 420.423755 183.756615 
L 428.39356 183.756615 
L 428.39356 186.978081 
z
" clip-path="url(#p1104f52afe)" style="fill: #ffa600"/>
   </g>
   <g id="patch_68">
    <path d="M 422.565322 179.180154 
L 415.271299 179.180154 
L 414.119611 180.657175 
L 409.427549 180.657175 
L 416.128278 172.549197 
L 421.692831 172.549197 
L 428.39356 180.657175 
L 423.705376 180.657175 
L 422.565322 179.180154 
z
M 416.43462 177.67533 
L 421.390367 177.67533 
L 418.916371 174.450211 
L 416.43462 177.67533 
z
" clip-path="url(#p1104f52afe)" style="fill: #008000"/>
   </g>
   <g id="patch_69">
    <path d="M 409.427549 56.720947 
L 428.39356 56.720947 
L 428.39356 79.310683 
L 421.570207 79.310683 
L 421.570207 172.549197 
L 416.264134 172.549197 
L 416.264134 79.310683 
L 409.427549 79.310683 
L 409.427549 56.720947 
z
" clip-path="url(#p1104f52afe)" style="fill: #ff0000"/>
   </g>
   <g id="patch_70">
    <path d="M 448.357782 191.88791 
Q 446.771308 192.062433 445.055813 192.150709 
Q 443.340319 192.24 441.471911 192.24 
Q 435.900138 192.24 432.645954 191.578436 
Q 429.391771 190.916873 429.391771 189.785518 
Q 429.391771 188.650104 432.645954 187.989556 
Q 435.900138 187.327992 441.471911 187.327992 
Q 443.340319 187.327992 445.055813 187.417283 
Q 446.771308 187.505559 448.357782 187.680082 
L 448.357782 188.659236 
Q 446.756972 188.427892 445.203948 188.320337 
Q 443.650923 188.212782 441.935429 188.212782 
Q 438.858052 188.212782 437.094772 188.63184 
Q 435.33627 189.049884 435.33627 189.785518 
Q 435.33627 190.518108 437.094772 190.937166 
Q 438.858052 191.355209 441.935429 191.355209 
Q 443.650923 191.355209 445.203948 191.247655 
Q 446.756972 191.139085 448.357782 190.907741 
L 448.357782 191.88791 
z
" clip-path="url(#p1104f52afe)" style="fill: #0000ff"/>
   </g>
   <g id="patch_71">
    <path d="M 429.391771 179.609122 
L 448.357782 179.609122 
L 448.357782 181.114517 
L 441.534429 181.114517 
L 441.534429 187.327992 
L 436.228356 187.327992 
L 436.228356 181.114517 
L 429.391771 181.114517 
L 429.391771 179.609122 
z
" clip-path="url(#p1104f52afe)" style="fill: #ff0000"/>
   </g>
   <g id="patch_72">
    <path d="M 442.529543 177.691661 
L 435.23552 177.691661 
L 434.083833 179.609122 
L 429.391771 179.609122 
L 436.0925 169.083391 
L 441.657053 169.083391 
L 448.357782 179.609122 
L 443.669598 179.609122 
L 442.529543 177.691661 
z
M 436.398841 175.738107 
L 441.354589 175.738107 
L 438.880593 171.551275 
L 436.398841 175.738107 
z
" clip-path="url(#p1104f52afe)" style="fill: #008000"/>
   </g>
   <g id="patch_73">
    <path d="M 448.357782 163.750295 
Q 446.445029 166.416843 444.387756 167.756205 
Q 442.330484 169.083391 440.137194 169.083391 
Q 435.181037 169.083391 432.286404 161.144628 
Q 429.391771 153.205865 429.391771 139.629606 
Q 429.391771 125.89506 432.337411 118.017177 
Q 435.287301 110.139294 440.417731 110.139294 
Q 442.394242 110.139294 444.204982 111.210784 
Q 446.019972 112.270097 447.626685 114.364372 
L 447.626685 126.114228 
Q 445.968966 123.423328 444.328248 122.096142 
Q 442.687531 120.756781 441.038313 120.756781 
Q 437.986409 120.756781 436.33294 125.651539 
Q 434.679471 130.534122 434.679471 139.629606 
Q 434.679471 148.639859 436.273432 153.558969 
Q 437.867393 158.465904 440.800281 158.465904 
Q 441.599387 158.465904 442.283728 158.185856 
Q 442.968068 157.893631 443.51214 157.284831 
L 443.51214 146.253359 
L 440.387977 146.253359 
L 440.387977 136.427314 
L 448.357782 136.427314 
L 448.357782 163.750295 
z
" clip-path="url(#p1104f52afe)" style="fill: #ffa600"/>
   </g>
   <g id="patch_74">
    <path d="M 468.322004 191.775366 
Q 466.40925 192.007683 464.351978 192.124372 
Q 462.294706 192.24 460.101415 192.24 
Q 455.145259 192.24 452.250626 191.548353 
Q 449.355993 190.856706 449.355993 189.673906 
Q 449.355993 188.477314 452.301633 187.790971 
Q 455.251523 187.104629 460.381952 187.104629 
Q 462.358464 187.104629 464.169204 187.19798 
Q 465.984194 187.29027 467.590907 187.472729 
L 467.590907 188.496409 
Q 465.933187 188.26197 464.29247 188.146342 
Q 462.651753 188.029653 461.002535 188.029653 
Q 457.950631 188.029653 456.297162 188.456098 
Q 454.643693 188.881482 454.643693 189.673906 
Q 454.643693 190.458903 456.237654 190.88747 
Q 457.831615 191.314975 460.764503 191.314975 
Q 461.563609 191.314975 462.247949 191.290577 
Q 462.93229 191.265117 463.476362 191.212077 
L 463.476362 190.250985 
L 460.352199 190.250985 
L 460.352199 189.394913 
L 468.322004 189.394913 
L 468.322004 191.775366 
z
" clip-path="url(#p1104f52afe)" style="fill: #ffa600"/>
   </g>
   <g id="patch_75">
    <path d="M 462.493765 185.794922 
L 455.199742 185.794922 
L 454.048054 187.104629 
L 449.355993 187.104629 
L 456.056722 179.915109 
L 461.621274 179.915109 
L 468.322004 187.104629 
L 463.63382 187.104629 
L 462.493765 185.794922 
z
M 456.363063 184.460562 
L 461.318811 184.460562 
L 458.844815 181.600779 
L 456.363063 184.460562 
z
" clip-path="url(#p1104f52afe)" style="fill: #008000"/>
   </g>
   <g id="patch_76">
    <path d="M 468.322004 179.252528 
Q 466.73553 179.580954 465.020035 179.747077 
Q 463.30454 179.915109 461.436133 179.915109 
Q 455.864359 179.915109 452.610176 178.670145 
Q 449.355993 177.425181 449.355993 175.296139 
Q 449.355993 173.15946 452.610176 171.916405 
Q 455.864359 170.671441 461.436133 170.671441 
Q 463.30454 170.671441 465.020035 170.839473 
Q 466.73553 171.005595 468.322004 171.334021 
L 468.322004 173.176645 
Q 466.721194 172.741289 465.16817 172.538887 
Q 463.615145 172.336485 461.899651 172.336485 
Q 458.822273 172.336485 457.058993 173.125089 
Q 455.300492 173.911785 455.300492 175.296139 
Q 455.300492 176.674765 457.058993 177.46337 
Q 458.822273 178.250065 461.899651 178.250065 
Q 463.615145 178.250065 465.16817 178.047663 
Q 466.721194 177.843351 468.322004 177.407995 
L 468.322004 179.252528 
z
" clip-path="url(#p1104f52afe)" style="fill: #0000ff"/>
   </g>
   <g id="patch_77">
    <path d="M 449.355993 72.072312 
L 468.322004 72.072312 
L 468.322004 91.301889 
L 461.49865 91.301889 
L 461.49865 170.671441 
L 456.192578 170.671441 
L 456.192578 91.301889 
L 449.355993 91.301889 
L 449.355993 72.072312 
z
" clip-path="url(#p1104f52afe)" style="fill: #ff0000"/>
   </g>
   <g id="patch_78">
    <path d="M 469.320215 190.559844 
L 488.286225 190.559844 
L 488.286225 190.887521 
L 481.462872 190.887521 
L 481.462872 192.24 
L 476.1568 192.24 
L 476.1568 190.887521 
L 469.320215 190.887521 
L 469.320215 190.559844 
z
" clip-path="url(#p1104f52afe)" style="fill: #ff0000"/>
   </g>
   <g id="patch_79">
    <path d="M 488.286225 190.401776 
Q 486.699751 190.480127 484.984257 190.519758 
Q 483.268762 190.559844 481.400355 190.559844 
Q 475.828581 190.559844 472.574398 190.262841 
Q 469.320215 189.965837 469.320215 189.457925 
Q 469.320215 188.948191 472.574398 188.651643 
Q 475.828581 188.354639 481.400355 188.354639 
Q 483.268762 188.354639 484.984257 188.394726 
Q 486.699751 188.434357 488.286225 188.512707 
L 488.286225 188.95229 
Q 486.685416 188.84843 485.132391 188.800144 
Q 483.579367 188.751859 481.863873 188.751859 
Q 478.786495 188.751859 477.023215 188.939991 
Q 475.264714 189.127668 475.264714 189.457925 
Q 475.264714 189.786815 477.023215 189.974948 
Q 478.786495 190.162625 481.863873 190.162625 
Q 483.579367 190.162625 485.132391 190.114339 
Q 486.685416 190.065598 488.286225 189.961738 
L 488.286225 190.401776 
z
" clip-path="url(#p1104f52afe)" style="fill: #0000ff"/>
   </g>
   <g id="patch_80">
    <path d="M 482.457987 187.646848 
L 475.163964 187.646848 
L 474.012276 188.354639 
L 469.320215 188.354639 
L 476.020944 184.469279 
L 481.585496 184.469279 
L 488.286225 188.354639 
L 483.598042 188.354639 
L 482.457987 187.646848 
z
M 476.327285 186.925733 
L 481.283033 186.925733 
L 478.809037 185.380248 
L 476.327285 186.925733 
z
" clip-path="url(#p1104f52afe)" style="fill: #008000"/>
   </g>
   <g id="patch_81">
    <path d="M 488.286225 184.060736 
Q 486.373472 184.265008 484.3162 184.36761 
Q 482.258928 184.469279 480.065637 184.469279 
Q 475.109481 184.469279 472.214848 183.861129 
Q 469.320215 183.252979 469.320215 182.212968 
Q 469.320215 181.160832 472.265855 180.557346 
Q 475.215745 179.95386 480.346174 179.95386 
Q 482.322686 179.95386 484.133426 180.035941 
Q 485.948416 180.11709 487.555129 180.277522 
L 487.555129 181.177621 
Q 485.897409 180.971485 484.256692 180.869815 
Q 482.615975 180.767213 480.966756 180.767213 
Q 477.914852 180.767213 476.261384 181.142177 
Q 474.607915 181.516208 474.607915 182.212968 
Q 474.607915 182.9032 476.201876 183.280029 
Q 477.795837 183.655925 480.728725 183.655925 
Q 481.527831 183.655925 482.212171 183.634472 
Q 482.896512 183.612086 483.440584 183.565449 
L 483.440584 182.720382 
L 480.31642 182.720382 
L 480.31642 181.967656 
L 488.286225 181.967656 
L 488.286225 184.060736 
z
" clip-path="url(#p1104f52afe)" style="fill: #ffa600"/>
   </g>
   <g id="patch_82">
    <path d="M 502.422209 191.24808 
L 495.128186 191.24808 
L 493.976498 192.24 
L 489.284436 192.24 
L 495.985166 186.794941 
L 501.549718 186.794941 
L 508.250447 192.24 
L 503.562263 192.24 
L 502.422209 191.24808 
z
M 496.291507 190.237488 
L 501.247255 190.237488 
L 498.773258 188.071601 
L 496.291507 190.237488 
z
" clip-path="url(#p1104f52afe)" style="fill: #008000"/>
   </g>
   <g id="patch_83">
    <path d="M 508.250447 186.274543 
Q 506.663973 186.532492 504.948479 186.662967 
Q 503.232984 186.794941 501.364576 186.794941 
Q 495.792803 186.794941 492.53862 185.817132 
Q 489.284436 184.839323 489.284436 183.167151 
Q 489.284436 181.488979 492.53862 180.51267 
Q 495.792803 179.534862 501.364576 179.534862 
Q 503.232984 179.534862 504.948479 179.666836 
Q 506.663973 179.79731 508.250447 180.05526 
L 508.250447 181.502477 
Q 506.649638 181.160543 505.096613 181.001575 
Q 503.543589 180.842606 501.828094 180.842606 
Q 498.750717 180.842606 496.987437 181.461984 
Q 495.228936 182.079864 495.228936 183.167151 
Q 495.228936 184.249939 496.987437 184.869318 
Q 498.750717 185.487197 501.828094 185.487197 
Q 503.543589 185.487197 505.096613 185.328228 
Q 506.649638 185.167759 508.250447 184.825826 
L 508.250447 186.274543 
z
" clip-path="url(#p1104f52afe)" style="fill: #0000ff"/>
   </g>
   <g id="patch_84">
    <path d="M 508.250447 178.631663 
Q 506.337694 179.083262 504.280422 179.310093 
Q 502.223149 179.534862 500.029859 179.534862 
Q 495.073703 179.534862 492.17907 178.190375 
Q 489.284436 176.845888 489.284436 174.54665 
Q 489.284436 172.220606 492.230076 170.886429 
Q 495.179967 169.552253 500.310396 169.552253 
Q 502.286908 169.552253 504.097647 169.733717 
Q 505.912638 169.91312 507.51935 170.2678 
L 507.51935 172.257723 
Q 505.861631 171.802 504.220914 171.577232 
Q 502.580197 171.350401 500.930978 171.350401 
Q 497.879074 171.350401 496.225605 172.179364 
Q 494.572136 173.006264 494.572136 174.54665 
Q 494.572136 176.072602 496.166097 176.905689 
Q 497.760059 177.736714 500.692947 177.736714 
Q 501.492053 177.736714 502.176393 177.689285 
Q 502.860734 177.639795 503.404806 177.53669 
L 503.404806 175.668431 
L 500.280642 175.668431 
L 500.280642 174.004319 
L 508.250447 174.004319 
L 508.250447 178.631663 
z
" clip-path="url(#p1104f52afe)" style="fill: #ffa600"/>
   </g>
   <g id="patch_85">
    <path d="M 489.284436 86.061343 
L 508.250447 86.061343 
L 508.250447 102.344397 
L 501.427094 102.344397 
L 501.427094 169.552253 
L 496.121022 169.552253 
L 496.121022 102.344397 
L 489.284436 102.344397 
L 489.284436 86.061343 
z
" clip-path="url(#p1104f52afe)" style="fill: #ff0000"/>
   </g>
   <g id="patch_86">
    <path d="M 509.248658 186.393533 
L 528.214669 186.393533 
L 528.214669 187.533757 
L 521.391316 187.533757 
L 521.391316 192.24 
L 516.085244 192.24 
L 516.085244 187.533757 
L 509.248658 187.533757 
L 509.248658 186.393533 
z
" clip-path="url(#p1104f52afe)" style="fill: #ff0000"/>
   </g>
   <g id="patch_87">
    <path d="M 528.214669 185.927898 
Q 526.628195 186.158702 524.9127 186.275447 
Q 523.197206 186.393533 521.328798 186.393533 
Q 515.757025 186.393533 512.502842 185.518622 
Q 509.248658 184.643712 509.248658 183.147508 
Q 509.248658 181.645937 512.502842 180.772368 
Q 515.757025 179.897458 521.328798 179.897458 
Q 523.197206 179.897458 524.9127 180.015544 
Q 526.628195 180.132288 528.214669 180.363093 
L 528.214669 181.658014 
Q 526.613859 181.352063 525.060835 181.209823 
Q 523.507811 181.067583 521.792316 181.067583 
Q 518.714939 181.067583 516.951659 181.621783 
Q 515.193158 182.17464 515.193158 183.147508 
Q 515.193158 184.11635 516.951659 184.67055 
Q 518.714939 185.223407 521.792316 185.223407 
Q 523.507811 185.223407 525.060835 185.081167 
Q 526.613859 184.937585 528.214669 184.631635 
L 528.214669 185.927898 
z
" clip-path="url(#p1104f52afe)" style="fill: #0000ff"/>
   </g>
   <g id="patch_88">
    <path d="M 522.386431 178.004046 
L 515.092408 178.004046 
L 513.94072 179.897458 
L 509.248658 179.897458 
L 515.949388 169.503738 
L 521.51394 169.503738 
L 528.214669 179.897458 
L 523.526485 179.897458 
L 522.386431 178.004046 
z
M 516.255729 176.074993 
L 521.211476 176.074993 
L 518.73748 171.940671 
L 516.255729 176.074993 
z
" clip-path="url(#p1104f52afe)" style="fill: #008000"/>
   </g>
   <g id="patch_89">
    <path d="M 528.214669 164.684217 
Q 526.301916 167.093977 524.244643 168.30436 
Q 522.187371 169.503738 519.994081 169.503738 
Q 515.037925 169.503738 512.143292 162.329474 
Q 509.248658 155.155209 509.248658 142.886337 
Q 509.248658 130.474419 512.194298 123.355172 
Q 515.144189 116.235925 520.274618 116.235925 
Q 522.25113 116.235925 524.061869 117.20423 
Q 525.87686 118.161532 527.483572 120.05413 
L 527.483572 130.672481 
Q 525.825853 128.240714 524.185136 127.041335 
Q 522.544418 125.830953 520.8952 125.830953 
Q 517.843296 125.830953 516.189827 130.254349 
Q 514.536358 134.666742 514.536358 142.886337 
Q 514.536358 151.028907 516.130319 155.47431 
Q 517.72428 159.90871 520.657169 159.90871 
Q 521.456274 159.90871 522.140615 159.65563 
Q 522.824956 159.391546 523.369028 158.841373 
L 523.369028 148.872226 
L 520.244864 148.872226 
L 520.244864 139.992423 
L 528.214669 139.992423 
L 528.214669 164.684217 
z
" clip-path="url(#p1104f52afe)" style="fill: #ffa600"/>
   </g>
   <g id="patch_90">
    <path d="M 548.178891 191.957532 
Q 546.266138 192.098766 544.208865 192.169705 
Q 542.151593 192.24 539.958303 192.24 
Q 535.002147 192.24 532.107513 191.819523 
Q 529.21288 191.399046 529.21288 190.679978 
Q 529.21288 189.952527 532.15852 189.535274 
Q 535.108411 189.118021 540.23884 189.118021 
Q 542.215351 189.118021 544.026091 189.174773 
Q 545.841081 189.230879 547.447794 189.341803 
L 547.447794 189.964135 
Q 545.790075 189.821611 544.149357 189.751317 
Q 542.50864 189.680377 540.859422 189.680377 
Q 537.807518 189.680377 536.154049 189.939628 
Q 534.50058 190.198235 534.50058 190.679978 
Q 534.50058 191.157207 536.094541 191.417748 
Q 537.688502 191.677644 540.62139 191.677644 
Q 541.420496 191.677644 542.104837 191.662811 
Q 542.789177 191.647333 543.333249 191.615088 
L 543.333249 191.030806 
L 540.209086 191.030806 
L 540.209086 190.510368 
L 548.178891 190.510368 
L 548.178891 191.957532 
z
" clip-path="url(#p1104f52afe)" style="fill: #ffa600"/>
   </g>
   <g id="patch_91">
    <path d="M 548.178891 188.878255 
Q 546.592417 188.997102 544.876922 189.057216 
Q 543.161428 189.118021 541.29302 189.118021 
Q 535.721247 189.118021 532.467063 188.66751 
Q 529.21288 188.216998 529.21288 187.446569 
Q 529.21288 186.673375 532.467063 186.223555 
Q 535.721247 185.773044 541.29302 185.773044 
Q 543.161428 185.773044 544.876922 185.833849 
Q 546.592417 185.893963 548.178891 186.01281 
L 548.178891 186.679594 
Q 546.578081 186.522053 545.025057 186.448811 
Q 543.472033 186.375568 541.756538 186.375568 
Q 538.679161 186.375568 536.915881 186.660938 
Q 535.157379 186.945617 535.157379 187.446569 
Q 535.157379 187.945448 536.915881 188.230818 
Q 538.679161 188.515497 541.756538 188.515497 
Q 543.472033 188.515497 545.025057 188.442254 
Q 546.578081 188.368321 548.178891 188.21078 
L 548.178891 188.878255 
z
" clip-path="url(#p1104f52afe)" style="fill: #0000ff"/>
   </g>
   <g id="patch_92">
    <path d="M 542.350652 184.432472 
L 535.05663 184.432472 
L 533.904942 185.773044 
L 529.21288 185.773044 
L 535.913609 178.414093 
L 541.478162 178.414093 
L 548.178891 185.773044 
L 543.490707 185.773044 
L 542.350652 184.432472 
z
M 536.219951 183.066666 
L 541.175698 183.066666 
L 538.701702 180.139488 
L 536.219951 183.066666 
z
" clip-path="url(#p1104f52afe)" style="fill: #008000"/>
   </g>
   <g id="patch_93">
    <path d="M 529.21288 166.149176 
L 548.178891 166.149176 
L 548.178891 168.541177 
L 541.355538 168.541177 
L 541.355538 178.414093 
L 536.049465 178.414093 
L 536.049465 168.541177 
L 529.21288 168.541177 
L 529.21288 166.149176 
z
" clip-path="url(#p1104f52afe)" style="fill: #ff0000"/>
   </g>
   <g id="patch_94">
    <path d="M 568.143113 192.116093 
Q 566.556639 192.177511 564.841144 192.208577 
Q 563.12565 192.24 561.257242 192.24 
Q 555.685468 192.24 552.431285 192.007184 
Q 549.177102 191.774368 549.177102 191.376224 
Q 549.177102 190.976652 552.431285 190.744194 
Q 555.685468 190.511378 561.257242 190.511378 
Q 563.12565 190.511378 564.841144 190.542801 
Q 566.556639 190.573867 568.143113 190.635284 
L 568.143113 190.979866 
Q 566.542303 190.898452 564.989279 190.860601 
Q 563.436254 190.822751 561.72076 190.822751 
Q 558.643382 190.822751 556.880103 190.970225 
Q 555.121601 191.117342 555.121601 191.376224 
Q 555.121601 191.634036 556.880103 191.78151 
Q 558.643382 191.928627 561.72076 191.928627 
Q 563.436254 191.928627 564.989279 191.890776 
Q 566.542303 191.852569 568.143113 191.771154 
L 568.143113 192.116093 
z
" clip-path="url(#p1104f52afe)" style="fill: #0000ff"/>
   </g>
   <g id="patch_95">
    <path d="M 549.177102 184.893355 
L 568.143113 184.893355 
L 568.143113 185.989026 
L 561.31976 185.989026 
L 561.31976 190.511378 
L 556.013687 190.511378 
L 556.013687 185.989026 
L 549.177102 185.989026 
L 549.177102 184.893355 
z
" clip-path="url(#p1104f52afe)" style="fill: #ff0000"/>
   </g>
   <g id="patch_96">
    <path d="M 562.314874 181.350716 
L 555.020851 181.350716 
L 553.869164 184.893355 
L 549.177102 184.893355 
L 555.877831 165.446353 
L 561.442383 165.446353 
L 568.143113 184.893355 
L 563.454929 184.893355 
L 562.314874 181.350716 
z
M 556.184172 177.741393 
L 561.13992 177.741393 
L 558.665924 170.005937 
L 556.184172 177.741393 
z
" clip-path="url(#p1104f52afe)" style="fill: #008000"/>
   </g>
   <g id="patch_97">
    <path d="M 568.143113 163.295841 
Q 566.230359 164.371097 564.173087 164.91118 
Q 562.115815 165.446353 559.922524 165.446353 
Q 554.966368 165.446353 552.071735 162.245134 
Q 549.177102 159.043915 549.177102 153.569438 
Q 549.177102 148.031134 552.122742 144.854464 
Q 555.072632 141.677795 560.203062 141.677795 
Q 562.179573 141.677795 563.990313 142.109861 
Q 565.805303 142.537017 567.412016 143.381511 
L 567.412016 148.119511 
Q 565.754296 147.034435 564.113579 146.499262 
Q 562.472862 145.959179 560.823644 145.959179 
Q 557.77174 145.959179 556.118271 147.932937 
Q 554.464802 149.901784 554.464802 153.569438 
Q 554.464802 157.202724 556.058763 159.186301 
Q 557.652724 161.164968 560.585612 161.164968 
Q 561.384718 161.164968 562.069059 161.052042 
Q 562.753399 160.934205 563.297471 160.688713 
L 563.297471 156.240394 
L 560.173308 156.240394 
L 560.173308 152.278149 
L 568.143113 152.278149 
L 568.143113 163.295841 
z
" clip-path="url(#p1104f52afe)" style="fill: #ffa600"/>
   </g>
   <g id="patch_98">
    <path d="M 588.107335 191.812398 
Q 586.52086 192.02435 584.805366 192.131559 
Q 583.089871 192.24 581.221464 192.24 
Q 575.64969 192.24 572.395507 191.436551 
Q 569.141324 190.633103 569.141324 189.259107 
Q 569.141324 187.880182 572.395507 187.077966 
Q 575.64969 186.274517 581.221464 186.274517 
Q 583.089871 186.274517 584.805366 186.382958 
Q 586.52086 186.490167 588.107335 186.70212 
L 588.107335 187.891273 
Q 586.506525 187.610312 584.953501 187.47969 
Q 583.400476 187.349068 581.684982 187.349068 
Q 578.607604 187.349068 576.844324 187.858001 
Q 575.085823 188.365702 575.085823 189.259107 
Q 575.085823 190.148816 576.844324 190.657748 
Q 578.607604 191.165449 581.684982 191.165449 
Q 583.400476 191.165449 584.953501 191.034827 
Q 586.506525 190.902973 588.107335 190.622012 
L 588.107335 191.812398 
z
" clip-path="url(#p1104f52afe)" style="fill: #0000ff"/>
   </g>
   <g id="patch_99">
    <path d="M 588.107335 185.66731 
Q 586.194581 185.970914 584.137309 186.123409 
Q 582.080037 186.274517 579.886746 186.274517 
Q 574.93059 186.274517 572.035957 185.370638 
Q 569.141324 184.466758 569.141324 182.921013 
Q 569.141324 181.357246 572.086964 180.460298 
Q 575.036854 179.563349 580.167283 179.563349 
Q 582.143795 179.563349 583.954535 179.685345 
Q 585.769525 179.805955 587.376238 180.044402 
L 587.376238 181.382199 
Q 585.718518 181.075823 584.077801 180.924714 
Q 582.437084 180.772219 580.787866 180.772219 
Q 577.735962 180.772219 576.082493 181.329519 
Q 574.429024 181.885433 574.429024 182.921013 
Q 574.429024 183.946889 576.022985 184.506961 
Q 577.616946 185.065648 580.549834 185.065648 
Q 581.34894 185.065648 582.03328 185.033762 
Q 582.717621 185.000491 583.261693 184.931175 
L 583.261693 183.67517 
L 580.137529 183.67517 
L 580.137529 182.556411 
L 588.107335 182.556411 
L 588.107335 185.66731 
z
" clip-path="url(#p1104f52afe)" style="fill: #ffa600"/>
   </g>
   <g id="patch_100">
    <path d="M 582.279096 177.66158 
L 574.985073 177.66158 
L 573.833385 179.563349 
L 569.141324 179.563349 
L 575.842053 169.123755 
L 581.406605 169.123755 
L 588.107335 179.563349 
L 583.419151 179.563349 
L 582.279096 177.66158 
z
M 576.148394 175.724013 
L 581.104142 175.724013 
L 578.630146 171.571444 
L 576.148394 175.724013 
z
" clip-path="url(#p1104f52afe)" style="fill: #008000"/>
   </g>
   <g id="patch_101">
    <path d="M 569.141324 104.994817 
L 588.107335 104.994817 
L 588.107335 117.501746 
L 581.283981 117.501746 
L 581.283981 169.123755 
L 575.977909 169.123755 
L 575.977909 117.501746 
L 569.141324 117.501746 
L 569.141324 104.994817 
z
" clip-path="url(#p1104f52afe)" style="fill: #ff0000"/>
   </g>
   <g id="patch_102">
    <path d="M 602.243318 191.718624 
L 594.949295 191.718624 
L 593.797607 192.24 
L 589.105546 192.24 
L 595.806275 189.377953 
L 601.370827 189.377953 
L 608.071556 192.24 
L 603.383373 192.24 
L 602.243318 191.718624 
z
M 596.112616 191.187434 
L 601.068364 191.187434 
L 598.594368 190.048995 
L 596.112616 191.187434 
z
" clip-path="url(#p1104f52afe)" style="fill: #008000"/>
   </g>
   <g id="patch_103">
    <path d="M 608.071556 189.131774 
Q 606.485082 189.253799 604.769588 189.315522 
Q 603.054093 189.377953 601.185685 189.377953 
Q 595.613912 189.377953 592.359729 188.915391 
Q 589.105546 188.452828 589.105546 187.66179 
Q 589.105546 186.867913 592.359729 186.40606 
Q 595.613912 185.943497 601.185685 185.943497 
Q 603.054093 185.943497 604.769588 186.005929 
Q 606.485082 186.067651 608.071556 186.189677 
L 608.071556 186.874298 
Q 606.470747 186.712543 604.917722 186.637341 
Q 603.364698 186.562139 601.649204 186.562139 
Q 598.571826 186.562139 596.808546 186.855143 
Q 595.050045 187.147437 595.050045 187.66179 
Q 595.050045 188.174014 596.808546 188.467017 
Q 598.571826 188.759311 601.649204 188.759311 
Q 603.364698 188.759311 604.917722 188.68411 
Q 606.470747 188.608198 608.071556 188.446443 
L 608.071556 189.131774 
z
" clip-path="url(#p1104f52afe)" style="fill: #0000ff"/>
   </g>
   <g id="patch_104">
    <path d="M 589.105546 180.410207 
L 608.071556 180.410207 
L 608.071556 181.489353 
L 601.248203 181.489353 
L 601.248203 185.943497 
L 595.942131 185.943497 
L 595.942131 181.489353 
L 589.105546 181.489353 
L 589.105546 180.410207 
z
" clip-path="url(#p1104f52afe)" style="fill: #ff0000"/>
   </g>
   <g id="patch_105">
    <path d="M 608.071556 179.460724 
Q 606.158803 179.935466 604.101531 180.17392 
Q 602.044258 180.410207 599.850968 180.410207 
Q 594.894812 180.410207 592.000179 178.996822 
Q 589.105546 177.583436 589.105546 175.166373 
Q 589.105546 172.72113 592.051186 171.318583 
Q 595.001076 169.916036 600.131505 169.916036 
Q 602.108017 169.916036 603.918757 170.1068 
Q 605.733747 170.295396 607.34046 170.668252 
L 607.34046 172.76015 
Q 605.68274 172.281073 604.042023 172.044786 
Q 602.401306 171.806331 600.752087 171.806331 
Q 597.700183 171.806331 596.046714 172.677774 
Q 594.393246 173.54705 594.393246 175.166373 
Q 594.393246 176.770523 595.987207 177.646301 
Q 597.581168 178.519912 600.514056 178.519912 
Q 601.313162 178.519912 601.997502 178.470054 
Q 602.681843 178.418027 603.225915 178.309639 
L 603.225915 176.34564 
L 600.101751 176.34564 
L 600.101751 174.59625 
L 608.071556 174.59625 
L 608.071556 179.460724 
z
" clip-path="url(#p1104f52afe)" style="fill: #ffa600"/>
   </g>
   <g id="patch_106">
    <path d="M 628.035778 191.928044 
Q 626.449304 192.082674 624.73381 192.160887 
Q 623.018315 192.24 621.149907 192.24 
Q 615.578134 192.24 612.323951 191.653847 
Q 609.069767 191.067694 609.069767 190.0653 
Q 609.069767 189.05931 612.323951 188.474056 
Q 615.578134 187.887903 621.149907 187.887903 
Q 623.018315 187.887903 624.73381 187.967016 
Q 626.449304 188.04523 628.035778 188.199859 
L 628.035778 189.067402 
Q 626.434969 188.862428 624.881944 188.767133 
Q 623.32892 188.671838 621.613425 188.671838 
Q 618.536048 188.671838 616.772768 189.043128 
Q 615.014267 189.41352 615.014267 190.0653 
Q 615.014267 190.714384 616.772768 191.085674 
Q 618.536048 191.456065 621.613425 191.456065 
Q 623.32892 191.456065 624.881944 191.36077 
Q 626.434969 191.264577 628.035778 191.059603 
L 628.035778 191.928044 
z
" clip-path="url(#p1104f52afe)" style="fill: #0000ff"/>
   </g>
   <g id="patch_107">
    <path d="M 622.20754 186.989378 
L 614.913517 186.989378 
L 613.761829 187.887903 
L 609.069767 187.887903 
L 615.770497 182.955527 
L 621.335049 182.955527 
L 628.035778 187.887903 
L 623.347594 187.887903 
L 622.20754 186.989378 
z
M 616.076838 186.073939 
L 621.032585 186.073939 
L 618.558589 184.111982 
L 616.076838 186.073939 
z
" clip-path="url(#p1104f52afe)" style="fill: #008000"/>
   </g>
   <g id="patch_108">
    <path d="M 628.035778 182.404256 
Q 626.123025 182.679891 624.065753 182.818339 
Q 622.00848 182.955527 619.81519 182.955527 
Q 614.859034 182.955527 611.964401 182.134913 
Q 609.069767 181.314299 609.069767 179.910947 
Q 609.069767 178.491234 612.015407 177.676913 
Q 614.965298 176.862592 620.095727 176.862592 
Q 622.072239 176.862592 623.882978 176.97335 
Q 625.697969 177.082849 627.304681 177.29933 
L 627.304681 178.513889 
Q 625.646962 178.235736 624.006245 178.098548 
Q 622.365528 177.9601 620.716309 177.9601 
Q 617.664405 177.9601 616.010936 178.466062 
Q 614.357467 178.970765 614.357467 179.910947 
Q 614.357467 180.842319 615.951428 181.350798 
Q 617.545389 181.858018 620.478278 181.858018 
Q 621.277383 181.858018 621.961724 181.82907 
Q 622.646065 181.798864 623.190137 181.735933 
L 623.190137 180.595632 
L 620.065973 180.595632 
L 620.065973 179.579933 
L 628.035778 179.579933 
L 628.035778 182.404256 
z
" clip-path="url(#p1104f52afe)" style="fill: #ffa600"/>
   </g>
   <g id="patch_109">
    <path d="M 609.069767 158.293646 
L 628.035778 158.293646 
L 628.035778 161.915108 
L 621.212425 161.915108 
L 621.212425 176.862592 
L 615.906353 176.862592 
L 615.906353 161.915108 
L 609.069767 161.915108 
L 609.069767 158.293646 
z
" clip-path="url(#p1104f52afe)" style="fill: #ff0000"/>
   </g>
   <g id="patch_110">
    <path d="M 648 192.049724 
Q 646.413526 192.144039 644.698031 192.191746 
Q 642.982537 192.24 641.114129 192.24 
Q 635.542356 192.24 632.288173 191.882478 
Q 629.033989 191.524957 629.033989 190.913551 
Q 629.033989 190.299951 632.288173 189.942978 
Q 635.542356 189.585456 641.114129 189.585456 
Q 642.982537 189.585456 644.698031 189.633711 
Q 646.413526 189.681417 648 189.775732 
L 648 190.304886 
Q 646.39919 190.179864 644.846166 190.121739 
Q 643.293142 190.063614 641.577647 190.063614 
Q 638.50027 190.063614 636.73699 190.290081 
Q 634.978488 190.516 634.978488 190.913551 
Q 634.978488 191.309457 636.73699 191.535924 
Q 638.50027 191.761842 641.577647 191.761842 
Q 643.293142 191.761842 644.846166 191.703717 
Q 646.39919 191.645044 648 191.520022 
L 648 192.049724 
z
" clip-path="url(#p1104f52afe)" style="fill: #0000ff"/>
   </g>
   <g id="patch_111">
    <path d="M 629.033989 184.922069 
L 648 184.922069 
L 648 185.831559 
L 641.176647 185.831559 
L 641.176647 189.585456 
L 635.870575 189.585456 
L 635.870575 185.831559 
L 629.033989 185.831559 
L 629.033989 184.922069 
z
" clip-path="url(#p1104f52afe)" style="fill: #ff0000"/>
   </g>
   <g id="patch_112">
    <path d="M 648 184.03277 
Q 646.087247 184.477419 644.029974 184.700759 
Q 641.972702 184.922069 639.779412 184.922069 
Q 634.823256 184.922069 631.928622 183.598272 
Q 629.033989 182.274476 629.033989 180.010621 
Q 629.033989 177.720372 631.979629 176.406728 
Q 634.92952 175.093083 640.059949 175.093083 
Q 642.036461 175.093083 643.8472 175.271755 
Q 645.662191 175.448396 647.268903 175.797619 
L 647.268903 177.756919 
Q 645.611184 177.308209 643.970467 177.086899 
Q 642.329749 176.863559 640.680531 176.863559 
Q 637.628627 176.863559 635.975158 177.679765 
Q 634.321689 178.49394 634.321689 180.010621 
Q 634.321689 181.51309 635.91565 182.333356 
Q 637.509611 183.151593 640.4425 183.151593 
Q 641.241605 183.151593 641.925946 183.104894 
Q 642.610287 183.056166 643.154359 182.954647 
L 643.154359 181.115139 
L 640.030195 181.115139 
L 640.030195 179.476636 
L 648 179.476636 
L 648 184.03277 
z
" clip-path="url(#p1104f52afe)" style="fill: #ffa600"/>
   </g>
   <g id="patch_113">
    <path d="M 642.171762 172.100144 
L 634.877739 172.100144 
L 633.726051 175.093083 
L 629.033989 175.093083 
L 635.734718 158.66361 
L 641.299271 158.66361 
L 648 175.093083 
L 643.311816 175.093083 
L 642.171762 172.100144 
z
M 636.04106 169.050868 
L 640.996807 169.050868 
L 638.522811 162.515698 
L 636.04106 169.050868 
z
" clip-path="url(#p1104f52afe)" style="fill: #008000"/>
   </g>
   <g id="matplotlib.axis_1">
    <g id="xtick_1">
     <g id="line2d_2">
      <defs>
       <path id="m43261d2d46" d="M 0 0 
L 0 3.5 
" style="stroke: #000000; stroke-width: 0.8"/>
      </defs>
      <g>
       <use xlink:href="#m43261d2d46" x="99.483005" y="192.24" style="stroke: #000000; stroke-width: 0.8"/>
      </g>
     </g>
     <g id="text_1">
      <!-- 0 -->
      <g transform="translate(96.301755 206.838437) scale(0.1 -0.1)">
       <defs>
        <path id="DejaVuSans-30" d="M 2034 4250 
Q 1547 4250 1301 3770 
Q 1056 3291 1056 2328 
Q 1056 1369 1301 889 
Q 1547 409 2034 409 
Q 2525 409 2770 889 
Q 3016 1369 3016 2328 
Q 3016 3291 2770 3770 
Q 2525 4250 2034 4250 
z
M 2034 4750 
Q 2819 4750 3233 4129 
Q 3647 3509 3647 2328 
Q 3647 1150 3233 529 
Q 2819 -91 2034 -91 
Q 1250 -91 836 529 
Q 422 1150 422 2328 
Q 422 3509 836 4129 
Q 1250 4750 2034 4750 
z
" transform="scale(0.015625)"/>
       </defs>
       <use xlink:href="#DejaVuSans-30"/>
      </g>
     </g>
    </g>
    <g id="xtick_2">
     <g id="line2d_3">
      <g>
       <use xlink:href="#m43261d2d46" x="199.304114" y="192.24" style="stroke: #000000; stroke-width: 0.8"/>
      </g>
     </g>
     <g id="text_2">
      <!-- 5 -->
      <g transform="translate(196.122864 206.838437) scale(0.1 -0.1)">
       <defs>
        <path id="DejaVuSans-35" d="M 691 4666 
L 3169 4666 
L 3169 4134 
L 1269 4134 
L 1269 2991 
Q 1406 3038 1543 3061 
Q 1681 3084 1819 3084 
Q 2600 3084 3056 2656 
Q 3513 2228 3513 1497 
Q 3513 744 3044 326 
Q 2575 -91 1722 -91 
Q 1428 -91 1123 -41 
Q 819 9 494 109 
L 494 744 
Q 775 591 1075 516 
Q 1375 441 1709 441 
Q 2250 441 2565 725 
Q 2881 1009 2881 1497 
Q 2881 1984 2565 2268 
Q 2250 2553 1709 2553 
Q 1456 2553 1204 2497 
Q 953 2441 691 2322 
L 691 4666 
z
" transform="scale(0.015625)"/>
       </defs>
       <use xlink:href="#DejaVuSans-35"/>
      </g>
     </g>
    </g>
    <g id="xtick_3">
     <g id="line2d_4">
      <g>
       <use xlink:href="#m43261d2d46" x="299.125224" y="192.24" style="stroke: #000000; stroke-width: 0.8"/>
      </g>
     </g>
     <g id="text_3">
      <!-- 10 -->
      <g transform="translate(292.762724 206.838437) scale(0.1 -0.1)">
       <defs>
        <path id="DejaVuSans-31" d="M 794 531 
L 1825 531 
L 1825 4091 
L 703 3866 
L 703 4441 
L 1819 4666 
L 2450 4666 
L 2450 531 
L 3481 531 
L 3481 0 
L 794 0 
L 794 531 
z
" transform="scale(0.015625)"/>
       </defs>
       <use xlink:href="#DejaVuSans-31"/>
       <use xlink:href="#DejaVuSans-30" x="63.623047"/>
      </g>
     </g>
    </g>
    <g id="xtick_4">
     <g id="line2d_5">
      <g>
       <use xlink:href="#m43261d2d46" x="398.946333" y="192.24" style="stroke: #000000; stroke-width: 0.8"/>
      </g>
     </g>
     <g id="text_4">
      <!-- 15 -->
      <g transform="translate(392.583833 206.838437) scale(0.1 -0.1)">
       <use xlink:href="#DejaVuSans-31"/>
       <use xlink:href="#DejaVuSans-35" x="63.623047"/>
      </g>
     </g>
    </g>
    <g id="xtick_5">
     <g id="line2d_6">
      <g>
       <use xlink:href="#m43261d2d46" x="498.767442" y="192.24" style="stroke: #000000; stroke-width: 0.8"/>
      </g>
     </g>
     <g id="text_5">
      <!-- 20 -->
      <g transform="translate(492.404942 206.838437) scale(0.1 -0.1)">
       <defs>
        <path id="DejaVuSans-32" d="M 1228 531 
L 3431 531 
L 3431 0 
L 469 0 
L 469 531 
Q 828 903 1448 1529 
Q 2069 2156 2228 2338 
Q 2531 2678 2651 2914 
Q 2772 3150 2772 3378 
Q 2772 3750 2511 3984 
Q 2250 4219 1831 4219 
Q 1534 4219 1204 4116 
Q 875 4013 500 3803 
L 500 4441 
Q 881 4594 1212 4672 
Q 1544 4750 1819 4750 
Q 2544 4750 2975 4387 
Q 3406 4025 3406 3419 
Q 3406 3131 3298 2873 
Q 3191 2616 2906 2266 
Q 2828 2175 2409 1742 
Q 1991 1309 1228 531 
z
" transform="scale(0.015625)"/>
       </defs>
       <use xlink:href="#DejaVuSans-32"/>
       <use xlink:href="#DejaVuSans-30" x="63.623047"/>
      </g>
     </g>
    </g>
    <g id="xtick_6">
     <g id="line2d_7">
      <g>
       <use xlink:href="#m43261d2d46" x="598.588551" y="192.24" style="stroke: #000000; stroke-width: 0.8"/>
      </g>
     </g>
     <g id="text_6">
      <!-- 25 -->
      <g transform="translate(592.226051 206.838437) scale(0.1 -0.1)">
       <use xlink:href="#DejaVuSans-32"/>
       <use xlink:href="#DejaVuSans-35" x="63.623047"/>
      </g>
     </g>
    </g>
   </g>
   <g id="matplotlib.axis_2">
    <g id="ytick_1">
     <g id="line2d_8">
      <defs>
       <path id="m92867999c8" d="M 0 0 
L -3.5 0 
" style="stroke: #000000; stroke-width: 0.8"/>
      </defs>
      <g>
       <use xlink:href="#m92867999c8" x="90" y="192.24" style="stroke: #000000; stroke-width: 0.8"/>
      </g>
     </g>
     <g id="text_7">
      <!-- 0.0 -->
      <g transform="translate(67.096875 196.039219) scale(0.1 -0.1)">
       <defs>
        <path id="DejaVuSans-2e" d="M 684 794 
L 1344 794 
L 1344 0 
L 684 0 
L 684 794 
z
" transform="scale(0.015625)"/>
       </defs>
       <use xlink:href="#DejaVuSans-30"/>
       <use xlink:href="#DejaVuSans-2e" x="63.623047"/>
       <use xlink:href="#DejaVuSans-30" x="95.410156"/>
      </g>
     </g>
    </g>
    <g id="ytick_2">
     <g id="line2d_9">
      <g>
       <use xlink:href="#m92867999c8" x="90" y="169.212994" style="stroke: #000000; stroke-width: 0.8"/>
      </g>
     </g>
     <g id="text_8">
      <!-- 0.2 -->
      <g transform="translate(67.096875 173.012213) scale(0.1 -0.1)">
       <use xlink:href="#DejaVuSans-30"/>
       <use xlink:href="#DejaVuSans-2e" x="63.623047"/>
       <use xlink:href="#DejaVuSans-32" x="95.410156"/>
      </g>
     </g>
    </g>
    <g id="ytick_3">
     <g id="line2d_10">
      <g>
       <use xlink:href="#m92867999c8" x="90" y="146.185988" style="stroke: #000000; stroke-width: 0.8"/>
      </g>
     </g>
     <g id="text_9">
      <!-- 0.4 -->
      <g transform="translate(67.096875 149.985207) scale(0.1 -0.1)">
       <defs>
        <path id="DejaVuSans-34" d="M 2419 4116 
L 825 1625 
L 2419 1625 
L 2419 4116 
z
M 2253 4666 
L 3047 4666 
L 3047 1625 
L 3713 1625 
L 3713 1100 
L 3047 1100 
L 3047 0 
L 2419 0 
L 2419 1100 
L 313 1100 
L 313 1709 
L 2253 4666 
z
" transform="scale(0.015625)"/>
       </defs>
       <use xlink:href="#DejaVuSans-30"/>
       <use xlink:href="#DejaVuSans-2e" x="63.623047"/>
       <use xlink:href="#DejaVuSans-34" x="95.410156"/>
      </g>
     </g>
    </g>
    <g id="ytick_4">
     <g id="line2d_11">
      <g>
       <use xlink:href="#m92867999c8" x="90" y="123.158982" style="stroke: #000000; stroke-width: 0.8"/>
      </g>
     </g>
     <g id="text_10">
      <!-- 0.6 -->
      <g transform="translate(67.096875 126.958201) scale(0.1 -0.1)">
       <defs>
        <path id="DejaVuSans-36" d="M 2113 2584 
Q 1688 2584 1439 2293 
Q 1191 2003 1191 1497 
Q 1191 994 1439 701 
Q 1688 409 2113 409 
Q 2538 409 2786 701 
Q 3034 994 3034 1497 
Q 3034 2003 2786 2293 
Q 2538 2584 2113 2584 
z
M 3366 4563 
L 3366 3988 
Q 3128 4100 2886 4159 
Q 2644 4219 2406 4219 
Q 1781 4219 1451 3797 
Q 1122 3375 1075 2522 
Q 1259 2794 1537 2939 
Q 1816 3084 2150 3084 
Q 2853 3084 3261 2657 
Q 3669 2231 3669 1497 
Q 3669 778 3244 343 
Q 2819 -91 2113 -91 
Q 1303 -91 875 529 
Q 447 1150 447 2328 
Q 447 3434 972 4092 
Q 1497 4750 2381 4750 
Q 2619 4750 2861 4703 
Q 3103 4656 3366 4563 
z
" transform="scale(0.015625)"/>
       </defs>
       <use xlink:href="#DejaVuSans-30"/>
       <use xlink:href="#DejaVuSans-2e" x="63.623047"/>
       <use xlink:href="#DejaVuSans-36" x="95.410156"/>
      </g>
     </g>
    </g>
    <g id="ytick_5">
     <g id="line2d_12">
      <g>
       <use xlink:href="#m92867999c8" x="90" y="100.131976" style="stroke: #000000; stroke-width: 0.8"/>
      </g>
     </g>
     <g id="text_11">
      <!-- 0.8 -->
      <g transform="translate(67.096875 103.931195) scale(0.1 -0.1)">
       <defs>
        <path id="DejaVuSans-38" d="M 2034 2216 
Q 1584 2216 1326 1975 
Q 1069 1734 1069 1313 
Q 1069 891 1326 650 
Q 1584 409 2034 409 
Q 2484 409 2743 651 
Q 3003 894 3003 1313 
Q 3003 1734 2745 1975 
Q 2488 2216 2034 2216 
z
M 1403 2484 
Q 997 2584 770 2862 
Q 544 3141 544 3541 
Q 544 4100 942 4425 
Q 1341 4750 2034 4750 
Q 2731 4750 3128 4425 
Q 3525 4100 3525 3541 
Q 3525 3141 3298 2862 
Q 3072 2584 2669 2484 
Q 3125 2378 3379 2068 
Q 3634 1759 3634 1313 
Q 3634 634 3220 271 
Q 2806 -91 2034 -91 
Q 1263 -91 848 271 
Q 434 634 434 1313 
Q 434 1759 690 2068 
Q 947 2378 1403 2484 
z
M 1172 3481 
Q 1172 3119 1398 2916 
Q 1625 2713 2034 2713 
Q 2441 2713 2670 2916 
Q 2900 3119 2900 3481 
Q 2900 3844 2670 4047 
Q 2441 4250 2034 4250 
Q 1625 4250 1398 4047 
Q 1172 3844 1172 3481 
z
" transform="scale(0.015625)"/>
       </defs>
       <use xlink:href="#DejaVuSans-30"/>
       <use xlink:href="#DejaVuSans-2e" x="63.623047"/>
       <use xlink:href="#DejaVuSans-38" x="95.410156"/>
      </g>
     </g>
    </g>
    <g id="ytick_6">
     <g id="line2d_13">
      <g>
       <use xlink:href="#m92867999c8" x="90" y="77.10497" style="stroke: #000000; stroke-width: 0.8"/>
      </g>
     </g>
     <g id="text_12">
      <!-- 1.0 -->
      <g transform="translate(67.096875 80.904189) scale(0.1 -0.1)">
       <use xlink:href="#DejaVuSans-31"/>
       <use xlink:href="#DejaVuSans-2e" x="63.623047"/>
       <use xlink:href="#DejaVuSans-30" x="95.410156"/>
      </g>
     </g>
    </g>
    <g id="ytick_7">
     <g id="line2d_14">
      <g>
       <use xlink:href="#m92867999c8" x="90" y="54.077964" style="stroke: #000000; stroke-width: 0.8"/>
      </g>
     </g>
     <g id="text_13">
      <!-- 1.2 -->
      <g transform="translate(67.096875 57.877183) scale(0.1 -0.1)">
       <use xlink:href="#DejaVuSans-31"/>
       <use xlink:href="#DejaVuSans-2e" x="63.623047"/>
       <use xlink:href="#DejaVuSans-32" x="95.410156"/>
      </g>
     </g>
    </g>
    <g id="ytick_8">
     <g id="line2d_15">
      <g>
       <use xlink:href="#m92867999c8" x="90" y="31.050959" style="stroke: #000000; stroke-width: 0.8"/>
      </g>
     </g>
     <g id="text_14">
      <!-- 1.4 -->
      <g transform="translate(67.096875 34.850177) scale(0.1 -0.1)">
       <use xlink:href="#DejaVuSans-31"/>
       <use xlink:href="#DejaVuSans-2e" x="63.623047"/>
       <use xlink:href="#DejaVuSans-34" x="95.410156"/>
      </g>
     </g>
    </g>
   </g>
  </g>
 </g>
 <defs>
  <clipPath id="p1104f52afe">
   <rect x="90" y="25.92" width="558" height="166.32"/>
  </clipPath>
 </defs>
</svg>
