<?xml version="1.0" encoding="utf-8" standalone="no"?>
<!DOCTYPE svg PUBLIC "-//W3C//DTD SVG 1.1//EN"
  "http://www.w3.org/Graphics/SVG/1.1/DTD/svg11.dtd">
<svg xmlns:xlink="http://www.w3.org/1999/xlink" width="720pt" height="216pt" viewBox="0 0 720 216" xmlns="http://www.w3.org/2000/svg" version="1.1">
 <metadata>
  <rdf:RDF xmlns:dc="http://purl.org/dc/elements/1.1/" xmlns:cc="http://creativecommons.org/ns#" xmlns:rdf="http://www.w3.org/1999/02/22-rdf-syntax-ns#">
   <cc:Work>
    <dc:type rdf:resource="http://purl.org/dc/dcmitype/StillImage"/>
    <dc:date>2025-12-17T10:22:09.107121</dc:date>
    <dc:format>image/svg+xml</dc:format>
    <dc:creator>
     <cc:Agent>
      <dc:title>Matplotlib v3.8.2, https://matplotlib.org/</dc:title>
     </cc:Agent>
    </dc:creator>
   </cc:Work>
  </rdf:RDF>
 </metadata>
 <defs>
  <style type="text/css">*{stroke-linejoin: round; stroke-linecap: butt}</style>
 </defs>
 <g id="figure_1">
  <g id="patch_1">
   <path d="M 0 216 
L 720 216 
L 720 0 
L 0 0 
z
" style="fill: #ffffff"/>
  </g>
  <g id="axes_1">
   <g id="patch_2">
    <path d="M 90 192.24 
L 648 192.24 
L 648 25.92 
L 90 25.92 
z
" style="fill: #ffffff"/>
   </g>
   <g id="line2d_1">
    <path d="M 90 192.24 
L 648 192.24 
" clip-path="url(#pe8203b8beb)" style="fill: none; stroke: #000000; stroke-width: 0.5; stroke-linecap: square"/>
   </g>
   <g id="patch_3">
    <path d="M 107.699499 192.132078 
Q 106.218967 192.185573 104.618029 192.212631 
Q 103.017092 192.24 101.273453 192.24 
Q 96.073751 192.24 93.036876 192.037219 
Q 90 191.834438 90 191.487657 
Q 90 191.139632 93.036876 190.937162 
Q 96.073751 190.734381 101.273453 190.734381 
Q 103.017092 190.734381 104.618029 190.76175 
Q 106.218967 190.788809 107.699499 190.842303 
L 107.699499 191.142432 
Q 106.205588 191.07152 104.756272 191.038553 
Q 103.306955 191.005585 101.706018 191.005585 
Q 98.834142 191.005585 97.18861 191.134034 
Q 95.547538 191.262172 95.547538 191.487657 
Q 95.547538 191.712209 97.18861 191.840658 
Q 98.834142 191.968796 101.706018 191.968796 
Q 103.306955 191.968796 104.756272 191.935828 
Q 106.205588 191.90255 107.699499 191.831639 
L 107.699499 192.132078 
z
" clip-path="url(#pe8203b8beb)" style="fill: #0000ff"/>
   </g>
   <g id="patch_4">
    <path d="M 107.699499 190.586439 
Q 105.914476 190.66041 103.994584 190.697564 
Q 102.074692 190.734381 100.027865 190.734381 
Q 95.402671 190.734381 92.701335 190.514157 
Q 90 190.293932 90 189.917321 
Q 90 189.536318 92.748936 189.317783 
Q 95.501839 189.099247 100.289668 189.099247 
Q 102.134193 189.099247 103.824015 189.12897 
Q 105.517804 189.158356 107.017224 189.216452 
L 107.017224 189.542398 
Q 105.470203 189.467752 103.93905 189.430935 
Q 102.407896 189.39378 100.868809 189.39378 
Q 98.020705 189.39378 96.477652 189.529563 
Q 94.934598 189.665008 94.934598 189.917321 
Q 94.934598 190.167269 96.422118 190.303727 
Q 97.909637 190.439848 100.646673 190.439848 
Q 101.392416 190.439848 102.031058 190.432079 
Q 102.6697 190.423972 103.17744 190.407084 
L 103.17744 190.101066 
L 100.261901 190.101066 
L 100.261901 189.828488 
L 107.699499 189.828488 
L 107.699499 190.586439 
z
" clip-path="url(#pe8203b8beb)" style="fill: #ffa600"/>
   </g>
   <g id="patch_5">
    <path d="M 90 186.05563 
L 107.699499 186.05563 
L 107.699499 186.64922 
L 101.331796 186.64922 
L 101.331796 189.099247 
L 96.380052 189.099247 
L 96.380052 186.64922 
L 90 186.64922 
L 90 186.05563 
z
" clip-path="url(#pe8203b8beb)" style="fill: #ff0000"/>
   </g>
   <g id="patch_6">
    <path d="M 102.260459 185.459889 
L 95.453516 185.459889 
L 94.378735 186.05563 
L 90 186.05563 
L 96.253268 182.785361 
L 101.446231 182.785361 
L 107.699499 186.05563 
L 103.324383 186.05563 
L 102.260459 185.459889 
z
M 96.539153 184.852934 
L 101.163965 184.852934 
L 98.855178 183.552115 
L 96.539153 184.852934 
z
" clip-path="url(#pe8203b8beb)" style="fill: #008000"/>
   </g>
   <g id="patch_7">
    <path d="M 126.330551 192.005045 
Q 124.545527 192.122523 122.625636 192.18153 
Q 120.705744 192.24 118.658917 192.24 
Q 114.033723 192.24 111.332387 191.89025 
Q 108.631052 191.540501 108.631052 190.942386 
Q 108.631052 190.337297 111.379988 189.99023 
Q 114.132891 189.643162 118.92072 189.643162 
Q 120.765244 189.643162 122.455067 189.690368 
Q 124.148856 189.737037 125.648275 189.829302 
L 125.648275 190.346953 
Q 124.101255 190.228403 122.570102 190.169932 
Q 121.038948 190.110926 119.499861 190.110926 
Q 116.651757 190.110926 115.108704 190.326569 
Q 113.56565 190.541676 113.56565 190.942386 
Q 113.56565 191.339341 115.053169 191.556057 
Q 116.540689 191.772237 119.277725 191.772237 
Q 120.023468 191.772237 120.66211 191.759899 
Q 121.300752 191.747025 121.808492 191.720203 
L 121.808492 191.234201 
L 118.892953 191.234201 
L 118.892953 190.801306 
L 126.330551 190.801306 
L 126.330551 192.005045 
z
" clip-path="url(#pe8203b8beb)" style="fill: #ffa600"/>
   </g>
   <g id="patch_8">
    <path d="M 126.330551 189.355307 
Q 124.850018 189.49799 123.249081 189.570161 
Q 121.648144 189.643162 119.904504 189.643162 
Q 114.704803 189.643162 111.667927 189.102292 
Q 108.631052 188.561423 108.631052 187.636469 
Q 108.631052 186.708197 111.667927 186.168157 
Q 114.704803 185.627287 119.904504 185.627287 
Q 121.648144 185.627287 123.249081 185.700288 
Q 124.850018 185.77246 126.330551 185.915143 
L 126.330551 186.715663 
Q 124.83664 186.526525 123.387324 186.438592 
Q 121.938007 186.350659 120.33707 186.350659 
Q 117.465193 186.350659 115.819662 186.693265 
Q 114.178589 187.035042 114.178589 187.636469 
Q 114.178589 188.235408 115.819662 188.578014 
Q 117.465193 188.91979 120.33707 188.91979 
Q 121.938007 188.91979 123.387324 188.831858 
Q 124.83664 188.743095 126.330551 188.553957 
L 126.330551 189.355307 
z
" clip-path="url(#pe8203b8beb)" style="fill: #0000ff"/>
   </g>
   <g id="patch_9">
    <path d="M 108.631052 173.948613 
L 126.330551 173.948613 
L 126.330551 176.22628 
L 119.962847 176.22628 
L 119.962847 185.627287 
L 115.011104 185.627287 
L 115.011104 176.22628 
L 108.631052 176.22628 
L 108.631052 173.948613 
z
" clip-path="url(#pe8203b8beb)" style="fill: #ff0000"/>
   </g>
   <g id="patch_10">
    <path d="M 120.89151 171.242072 
L 114.084567 171.242072 
L 113.009787 173.948613 
L 108.631052 173.948613 
L 114.88432 159.091295 
L 120.077283 159.091295 
L 126.330551 173.948613 
L 121.955434 173.948613 
L 120.89151 171.242072 
z
M 115.170204 168.484584 
L 119.795017 168.484584 
L 117.48623 162.574772 
L 115.170204 168.484584 
z
" clip-path="url(#pe8203b8beb)" style="fill: #008000"/>
   </g>
   <g id="patch_11">
    <path d="M 144.961603 192.068714 
Q 143.176579 192.154357 141.256687 192.197374 
Q 139.336795 192.24 137.289969 192.24 
Q 132.664774 192.24 129.963439 191.985026 
Q 127.262104 191.730052 127.262104 191.294016 
Q 127.262104 190.852896 130.01104 190.599877 
Q 132.763942 190.346859 137.551772 190.346859 
Q 139.396296 190.346859 141.086118 190.381273 
Q 142.779907 190.415295 144.279327 190.482558 
L 144.279327 190.859935 
Q 142.732307 190.77351 141.201153 190.730884 
Q 139.67 190.687867 138.130913 190.687867 
Q 135.282809 190.687867 133.739755 190.845075 
Q 132.196702 191.001891 132.196702 191.294016 
Q 132.196702 191.583403 133.684221 191.741393 
Q 135.171741 191.898992 137.908777 191.898992 
Q 138.65452 191.898992 139.293162 191.889998 
Q 139.931803 191.880612 140.439543 191.861059 
L 140.439543 191.506755 
L 137.524005 191.506755 
L 137.524005 191.191166 
L 144.961603 191.191166 
L 144.961603 192.068714 
z
" clip-path="url(#pe8203b8beb)" style="fill: #ffa600"/>
   </g>
   <g id="patch_12">
    <path d="M 144.961603 190.19835 
Q 143.48107 190.271963 141.880133 190.309197 
Q 140.279195 190.346859 138.535556 190.346859 
Q 133.335855 190.346859 130.298979 190.067817 
Q 127.262104 189.788775 127.262104 189.311579 
Q 127.262104 188.83267 130.298979 188.554056 
Q 133.335855 188.275014 138.535556 188.275014 
Q 140.279195 188.275014 141.880133 188.312676 
Q 143.48107 188.349911 144.961603 188.423523 
L 144.961603 188.836522 
Q 143.467692 188.738943 142.018375 188.693577 
Q 140.569059 188.648212 138.968121 188.648212 
Q 136.096245 188.648212 134.450713 188.824967 
Q 132.809641 189.001294 132.809641 189.311579 
Q 132.809641 189.620579 134.450713 189.797334 
Q 136.096245 189.973662 138.968121 189.973662 
Q 140.569059 189.973662 142.018375 189.928296 
Q 143.467692 189.882502 144.961603 189.784923 
L 144.961603 190.19835 
z
" clip-path="url(#pe8203b8beb)" style="fill: #0000ff"/>
   </g>
   <g id="patch_13">
    <path d="M 127.262104 183.969375 
L 144.961603 183.969375 
L 144.961603 184.809094 
L 138.593899 184.809094 
L 138.593899 188.275014 
L 133.642156 188.275014 
L 133.642156 184.809094 
L 127.262104 184.809094 
L 127.262104 183.969375 
z
" clip-path="url(#pe8203b8beb)" style="fill: #ff0000"/>
   </g>
   <g id="patch_14">
    <path d="M 139.522562 183.099566 
L 132.715619 183.099566 
L 131.640839 183.969375 
L 127.262104 183.969375 
L 133.515372 179.194638 
L 138.708335 179.194638 
L 144.961603 183.969375 
L 140.586486 183.969375 
L 139.522562 183.099566 
z
M 133.801256 182.213385 
L 138.426069 182.213385 
L 136.117281 180.314133 
L 133.801256 182.213385 
z
" clip-path="url(#pe8203b8beb)" style="fill: #008000"/>
   </g>
   <g id="patch_15">
    <path d="M 163.592654 192.045361 
Q 162.112122 192.141839 160.511185 192.190639 
Q 158.910247 192.24 157.166608 192.24 
Q 151.966906 192.24 148.930031 191.87428 
Q 145.893155 191.50856 145.893155 190.883134 
Q 145.893155 190.255464 148.930031 189.890305 
Q 151.966906 189.524586 157.166608 189.524586 
Q 158.910247 189.524586 160.511185 189.573946 
Q 162.112122 189.622747 163.592654 189.719225 
L 163.592654 190.260513 
Q 162.098744 190.132623 160.649427 190.073165 
Q 159.200111 190.013708 157.599173 190.013708 
Q 154.727297 190.013708 153.081765 190.245368 
Q 151.440693 190.476467 151.440693 190.883134 
Q 151.440693 191.288118 153.081765 191.519779 
Q 154.727297 191.750878 157.599173 191.750878 
Q 159.200111 191.750878 160.649427 191.69142 
Q 162.098744 191.631402 163.592654 191.503512 
L 163.592654 192.045361 
z
" clip-path="url(#pe8203b8beb)" style="fill: #0000ff"/>
   </g>
   <g id="patch_16">
    <path d="M 163.592654 188.953682 
Q 161.807631 189.239134 159.887739 189.382511 
Q 157.967847 189.524586 155.92102 189.524586 
Q 151.295826 189.524586 148.594491 188.674747 
Q 145.893155 187.824909 145.893155 186.371581 
Q 145.893155 184.901308 148.642091 184.057987 
Q 151.394994 183.214666 156.182824 183.214666 
Q 158.027348 183.214666 159.71717 183.329368 
Q 161.410959 183.442766 162.910379 183.666957 
L 162.910379 184.92477 
Q 161.363358 184.636711 159.832205 184.494637 
Q 158.301052 184.351259 156.761965 184.351259 
Q 153.913861 184.351259 152.370807 184.875239 
Q 150.827753 185.397916 150.827753 186.371581 
Q 150.827753 187.336121 152.315273 187.862708 
Q 153.802792 188.387992 156.539828 188.387992 
Q 157.285572 188.387992 157.924213 188.358013 
Q 158.562855 188.32673 159.070595 188.261559 
L 159.070595 187.080648 
L 156.155057 187.080648 
L 156.155057 186.028778 
L 163.592654 186.028778 
L 163.592654 188.953682 
z
" clip-path="url(#pe8203b8beb)" style="fill: #ffa600"/>
   </g>
   <g id="patch_17">
    <path d="M 145.893155 172.372543 
L 163.592654 172.372543 
L 163.592654 174.487059 
L 157.224951 174.487059 
L 157.224951 183.214666 
L 152.273207 183.214666 
L 152.273207 174.487059 
L 145.893155 174.487059 
L 145.893155 172.372543 
z
" clip-path="url(#pe8203b8beb)" style="fill: #ff0000"/>
   </g>
   <g id="patch_18">
    <path d="M 158.153614 167.678573 
L 151.346671 167.678573 
L 150.27189 172.372543 
L 145.893155 172.372543 
L 152.146423 146.605408 
L 157.339386 146.605408 
L 163.592654 172.372543 
L 159.217538 172.372543 
L 158.153614 167.678573 
z
M 152.432308 162.896246 
L 157.057121 162.896246 
L 154.748333 152.646824 
L 152.432308 162.896246 
z
" clip-path="url(#pe8203b8beb)" style="fill: #008000"/>
   </g>
   <g id="patch_19">
    <path d="M 182.223706 191.847331 
Q 180.743174 192.041968 179.142236 192.140418 
Q 177.541299 192.24 175.79766 192.24 
Q 170.597958 192.24 167.561083 191.502189 
Q 164.524207 190.764379 164.524207 189.502632 
Q 164.524207 188.236358 167.561083 187.499679 
Q 170.597958 186.761868 175.79766 186.761868 
Q 177.541299 186.761868 179.142236 186.86145 
Q 180.743174 186.9599 182.223706 187.154538 
L 182.223706 188.246543 
Q 180.729795 187.988535 179.280479 187.868585 
Q 177.831162 187.748634 176.230225 187.748634 
Q 173.358349 187.748634 171.712817 188.215989 
Q 170.071745 188.682213 170.071745 189.502632 
Q 170.071745 190.319655 171.712817 190.787011 
Q 173.358349 191.253235 176.230225 191.253235 
Q 177.831162 191.253235 179.280479 191.133284 
Q 180.729795 191.012201 182.223706 190.754194 
L 182.223706 191.847331 
z
" clip-path="url(#pe8203b8beb)" style="fill: #0000ff"/>
   </g>
   <g id="patch_20">
    <path d="M 182.223706 186.228459 
Q 180.438683 186.495164 178.518791 186.629125 
Q 176.598899 186.761868 174.552072 186.761868 
Q 169.926878 186.761868 167.225542 185.967844 
Q 164.524207 185.173819 164.524207 183.815939 
Q 164.524207 182.442227 167.273143 181.654291 
Q 170.026046 180.866355 174.813876 180.866355 
Q 176.6584 180.866355 178.348222 180.973524 
Q 180.042011 181.079476 181.541431 181.288942 
L 181.541431 182.464148 
Q 179.99441 182.195007 178.463257 182.062264 
Q 176.932103 181.928303 175.393016 181.928303 
Q 172.544912 181.928303 171.001859 182.41787 
Q 169.458805 182.90622 169.458805 183.815939 
Q 169.458805 184.717133 170.946325 185.209136 
Q 172.433844 185.699921 175.17088 185.699921 
Q 175.916623 185.699921 176.555265 185.671911 
Q 177.193907 185.642683 177.701647 185.581792 
L 177.701647 184.478438 
L 174.786108 184.478438 
L 174.786108 183.495649 
L 182.223706 183.495649 
L 182.223706 186.228459 
z
" clip-path="url(#pe8203b8beb)" style="fill: #ffa600"/>
   </g>
   <g id="patch_21">
    <path d="M 176.784666 179.108071 
L 169.977723 179.108071 
L 168.902942 180.866355 
L 164.524207 180.866355 
L 170.777475 171.214409 
L 175.970438 171.214409 
L 182.223706 180.866355 
L 177.84859 180.866355 
L 176.784666 179.108071 
z
M 171.06336 177.31669 
L 175.688172 177.31669 
L 173.379385 173.477424 
L 171.06336 177.31669 
z
" clip-path="url(#pe8203b8beb)" style="fill: #008000"/>
   </g>
   <g id="patch_22">
    <path d="M 164.524207 131.302307 
L 182.223706 131.302307 
L 182.223706 139.086279 
L 175.856003 139.086279 
L 175.856003 171.214409 
L 170.904259 171.214409 
L 170.904259 139.086279 
L 164.524207 139.086279 
L 164.524207 131.302307 
z
" clip-path="url(#pe8203b8beb)" style="fill: #ff0000"/>
   </g>
   <g id="patch_23">
    <path d="M 200.854758 192.071251 
Q 199.374225 192.154896 197.773288 192.197205 
Q 196.172351 192.24 194.428711 192.24 
Q 189.22901 192.24 186.192134 191.922926 
Q 183.155259 191.605853 183.155259 191.063618 
Q 183.155259 190.519438 186.192134 190.202851 
Q 189.22901 189.885777 194.428711 189.885777 
Q 196.172351 189.885777 197.773288 189.928572 
Q 199.374225 189.970881 200.854758 190.054526 
L 200.854758 190.523815 
Q 199.360847 190.412936 197.911531 190.361387 
Q 196.462214 190.309839 194.861277 190.309839 
Q 191.9894 190.309839 190.343869 190.510684 
Q 188.702796 190.711044 188.702796 191.063618 
Q 188.702796 191.414733 190.343869 191.615579 
Q 191.9894 191.815938 194.861277 191.815938 
Q 196.462214 191.815938 197.911531 191.76439 
Q 199.360847 191.712354 200.854758 191.601476 
L 200.854758 192.071251 
z
" clip-path="url(#pe8203b8beb)" style="fill: #0000ff"/>
   </g>
   <g id="patch_24">
    <path d="M 200.854758 189.600041 
Q 199.069734 189.742909 197.149843 189.814669 
Q 195.229951 189.885777 193.183124 189.885777 
Q 188.55793 189.885777 185.856594 189.460434 
Q 183.155259 189.035092 183.155259 188.307703 
Q 183.155259 187.571835 185.904195 187.149754 
Q 188.657098 186.727673 193.444927 186.727673 
Q 195.289451 186.727673 196.979274 186.785081 
Q 198.673063 186.841837 200.172482 186.954044 
L 200.172482 187.583577 
Q 198.625462 187.439404 197.094309 187.368296 
Q 195.563155 187.296536 194.024068 187.296536 
Q 191.175964 187.296536 189.632911 187.558787 
Q 188.089857 187.820386 188.089857 188.307703 
Q 188.089857 188.790454 189.577376 189.05401 
Q 191.064896 189.316914 193.801932 189.316914 
Q 194.547675 189.316914 195.186317 189.301909 
Q 195.824959 189.286253 196.332699 189.253634 
L 196.332699 188.662591 
L 193.41716 188.662591 
L 193.41716 188.136131 
L 200.854758 188.136131 
L 200.854758 189.600041 
z
" clip-path="url(#pe8203b8beb)" style="fill: #ffa600"/>
   </g>
   <g id="patch_25">
    <path d="M 195.415717 185.231871 
L 188.608774 185.231871 
L 187.533994 186.727673 
L 183.155259 186.727673 
L 189.408527 178.516602 
L 194.60149 178.516602 
L 200.854758 186.727673 
L 196.479641 186.727673 
L 195.415717 185.231871 
z
M 189.694411 183.707914 
L 194.319224 183.707914 
L 192.010437 180.441787 
L 189.694411 183.707914 
z
" clip-path="url(#pe8203b8beb)" style="fill: #008000"/>
   </g>
   <g id="patch_26">
    <path d="M 183.155259 169.884451 
L 200.854758 169.884451 
L 200.854758 171.567961 
L 194.487054 171.567961 
L 194.487054 178.516602 
L 189.535311 178.516602 
L 189.535311 171.567961 
L 183.155259 171.567961 
L 183.155259 169.884451 
z
" clip-path="url(#pe8203b8beb)" style="fill: #ff0000"/>
   </g>
   <g id="patch_27">
    <path d="M 219.48581 191.954821 
Q 218.005277 192.096178 216.40434 192.167678 
Q 214.803402 192.24 213.059763 192.24 
Q 207.860062 192.24 204.823186 191.70416 
Q 201.786311 191.168319 201.786311 190.251967 
Q 201.786311 189.332327 204.823186 188.797309 
Q 207.860062 188.261468 213.059763 188.261468 
Q 214.803402 188.261468 216.40434 188.33379 
Q 218.005277 188.40529 219.48581 188.546647 
L 219.48581 189.339724 
Q 217.991899 189.152344 216.542582 189.065229 
Q 215.093266 188.978114 213.492328 188.978114 
Q 210.620452 188.978114 208.97492 189.317534 
Q 207.333848 189.656132 207.333848 190.251967 
Q 207.333848 190.845336 208.97492 191.184756 
Q 210.620452 191.523355 213.492328 191.523355 
Q 215.093266 191.523355 216.542582 191.43624 
Q 217.991899 191.348303 219.48581 191.160923 
L 219.48581 191.954821 
z
" clip-path="url(#pe8203b8beb)" style="fill: #0000ff"/>
   </g>
   <g id="patch_28">
    <path d="M 219.48581 187.894193 
Q 217.700786 188.077831 215.780894 188.170069 
Q 213.861002 188.261468 211.814176 188.261468 
Q 207.188981 188.261468 204.487646 187.714748 
Q 201.786311 187.168028 201.786311 186.233069 
Q 201.786311 185.28721 204.535247 184.744682 
Q 207.288149 184.202154 212.075979 184.202154 
Q 213.920503 184.202154 215.610325 184.275945 
Q 217.304114 184.348897 218.803534 184.493123 
L 218.803534 185.302303 
Q 217.256514 185.116988 215.72536 185.025589 
Q 214.194207 184.933351 212.65512 184.933351 
Q 209.807016 184.933351 208.263962 185.270439 
Q 206.720909 185.606689 206.720909 186.233069 
Q 206.720909 186.85358 208.208428 187.192345 
Q 209.695948 187.530272 212.432984 187.530272 
Q 213.178727 187.530272 213.817369 187.510986 
Q 214.45601 187.490861 214.96375 187.448935 
L 214.96375 186.689228 
L 212.048212 186.689228 
L 212.048212 186.012536 
L 219.48581 186.012536 
L 219.48581 187.894193 
z
" clip-path="url(#pe8203b8beb)" style="fill: #ffa600"/>
   </g>
   <g id="patch_29">
    <path d="M 214.046769 181.902774 
L 207.239826 181.902774 
L 206.165046 184.202154 
L 201.786311 184.202154 
L 208.039579 171.579909 
L 213.232542 171.579909 
L 219.48581 184.202154 
L 215.110693 184.202154 
L 214.046769 181.902774 
z
M 208.325463 179.560111 
L 212.950276 179.560111 
L 210.641488 174.539347 
L 208.325463 179.560111 
z
" clip-path="url(#pe8203b8beb)" style="fill: #008000"/>
   </g>
   <g id="patch_30">
    <path d="M 201.786311 145.063096 
L 219.48581 145.063096 
L 219.48581 150.234614 
L 213.118106 150.234614 
L 213.118106 171.579909 
L 208.166363 171.579909 
L 208.166363 150.234614 
L 201.786311 150.234614 
L 201.786311 145.063096 
z
" clip-path="url(#pe8203b8beb)" style="fill: #ff0000"/>
   </g>
   <g id="patch_31">
    <path d="M 238.116861 192.056157 
Q 236.636329 192.147284 235.035392 192.193377 
Q 233.434454 192.24 231.690815 192.24 
Q 226.491113 192.24 223.454238 191.894566 
Q 220.417362 191.549133 220.417362 190.958399 
Q 220.417362 190.365546 223.454238 190.020642 
Q 226.491113 189.675209 231.690815 189.675209 
Q 233.434454 189.675209 235.035392 189.721832 
Q 236.636329 189.767925 238.116861 189.859052 
L 238.116861 190.370314 
Q 236.622951 190.249519 235.173634 190.193359 
Q 233.724318 190.1372 232.12338 190.1372 
Q 229.251504 190.1372 227.605972 190.35601 
Q 225.9649 190.57429 225.9649 190.958399 
Q 225.9649 191.340919 227.605972 191.559729 
Q 229.251504 191.778009 232.12338 191.778009 
Q 233.724318 191.778009 235.173634 191.72185 
Q 236.622951 191.66516 238.116861 191.544365 
L 238.116861 192.056157 
z
" clip-path="url(#pe8203b8beb)" style="fill: #0000ff"/>
   </g>
   <g id="patch_32">
    <path d="M 232.677821 188.648175 
L 225.870878 188.648175 
L 224.796097 189.675209 
L 220.417362 189.675209 
L 226.67063 184.037396 
L 231.863593 184.037396 
L 238.116861 189.675209 
L 233.741745 189.675209 
L 232.677821 188.648175 
z
M 226.956515 187.601808 
L 231.581328 187.601808 
L 229.27254 185.359249 
L 226.956515 187.601808 
z
" clip-path="url(#pe8203b8beb)" style="fill: #008000"/>
   </g>
   <g id="patch_33">
    <path d="M 238.116861 183.527303 
Q 236.331838 183.782349 234.411946 183.910455 
Q 232.492054 184.037396 230.445227 184.037396 
Q 225.820033 184.037396 223.118698 183.278079 
Q 220.417362 182.518762 220.417362 181.220237 
Q 220.417362 179.906571 223.166298 179.153077 
Q 225.919201 178.399583 230.707031 178.399583 
Q 232.551555 178.399583 234.241377 178.502068 
Q 235.935166 178.603388 237.434586 178.803698 
L 237.434586 179.927534 
Q 235.887565 179.670158 234.356412 179.543217 
Q 232.825259 179.415112 231.286172 179.415112 
Q 228.438068 179.415112 226.895014 179.88328 
Q 225.35196 180.350283 225.35196 181.220237 
Q 225.35196 182.082038 226.83948 182.552535 
Q 228.327 183.021868 231.064035 183.021868 
Q 231.809779 183.021868 232.44842 182.995082 
Q 233.087062 182.967132 233.594802 182.908902 
L 233.594802 181.853777 
L 230.679264 181.853777 
L 230.679264 180.913948 
L 238.116861 180.913948 
L 238.116861 183.527303 
z
" clip-path="url(#pe8203b8beb)" style="fill: #ffa600"/>
   </g>
   <g id="patch_34">
    <path d="M 220.417362 164.630082 
L 238.116861 164.630082 
L 238.116861 167.315519 
L 231.749158 167.315519 
L 231.749158 178.399583 
L 226.797414 178.399583 
L 226.797414 167.315519 
L 220.417362 167.315519 
L 220.417362 164.630082 
z
" clip-path="url(#pe8203b8beb)" style="fill: #ff0000"/>
   </g>
   <g id="patch_35">
    <path d="M 256.747913 191.859752 
Q 254.96289 192.049876 253.042998 192.145372 
Q 251.123106 192.24 249.076279 192.24 
Q 244.451085 192.24 241.74975 191.673969 
Q 239.048414 191.107938 239.048414 190.139956 
Q 239.048414 189.160688 241.79735 188.598998 
Q 244.550253 188.037308 249.338083 188.037308 
Q 251.182607 188.037308 252.872429 188.113705 
Q 254.566218 188.189234 256.065638 188.338555 
L 256.065638 189.176315 
Q 254.518617 188.984455 252.987464 188.889827 
Q 251.45631 188.794331 249.917223 188.794331 
Q 247.069119 188.794331 245.526066 189.143325 
Q 243.983012 189.491452 243.983012 190.139956 
Q 243.983012 190.782384 245.470532 191.133115 
Q 246.958051 191.482977 249.695087 191.482977 
Q 250.44083 191.482977 251.079472 191.46301 
Q 251.718114 191.442174 252.225854 191.398767 
L 252.225854 190.612227 
L 249.310315 190.612227 
L 249.310315 189.911634 
L 256.747913 189.911634 
L 256.747913 191.859752 
z
" clip-path="url(#pe8203b8beb)" style="fill: #ffa600"/>
   </g>
   <g id="patch_36">
    <path d="M 256.747913 187.463057 
Q 255.267381 187.7477 253.666443 187.891677 
Q 252.065506 188.037308 250.321867 188.037308 
Q 245.122165 188.037308 242.08529 186.958312 
Q 239.048414 185.879316 239.048414 184.0341 
Q 239.048414 182.182264 242.08529 181.104923 
Q 245.122165 180.025927 250.321867 180.025927 
Q 252.065506 180.025927 253.666443 180.171558 
Q 255.267381 180.315535 256.747913 180.600178 
L 256.747913 182.197158 
Q 255.254002 181.819841 253.804686 181.644421 
Q 252.355369 181.469002 250.754432 181.469002 
Q 247.882556 181.469002 246.237024 182.152476 
Q 244.595952 182.834296 244.595952 184.0341 
Q 244.595952 185.228939 246.237024 185.912414 
Q 247.882556 186.594234 250.754432 186.594234 
Q 252.355369 186.594234 253.804686 186.418814 
Q 255.254002 186.241739 256.747913 185.864422 
L 256.747913 187.463057 
z
" clip-path="url(#pe8203b8beb)" style="fill: #0000ff"/>
   </g>
   <g id="patch_37">
    <path d="M 251.308873 178.111928 
L 244.50193 178.111928 
L 243.427149 180.025927 
L 239.048414 180.025927 
L 245.301682 169.519197 
L 250.494645 169.519197 
L 256.747913 180.025927 
L 252.372797 180.025927 
L 251.308873 178.111928 
z
M 245.587567 176.1619 
L 250.212379 176.1619 
L 247.903592 171.982627 
L 245.587567 176.1619 
z
" clip-path="url(#pe8203b8beb)" style="fill: #008000"/>
   </g>
   <g id="patch_38">
    <path d="M 239.048414 115.540874 
L 256.747913 115.540874 
L 256.747913 126.068151 
L 250.38021 126.068151 
L 250.38021 169.519197 
L 245.428466 169.519197 
L 245.428466 126.068151 
L 239.048414 126.068151 
L 239.048414 115.540874 
z
" clip-path="url(#pe8203b8beb)" style="fill: #ff0000"/>
   </g>
   <g id="patch_39">
    <path d="M 275.378965 191.936946 
Q 273.898432 192.087163 272.297495 192.163145 
Q 270.696558 192.24 268.952919 192.24 
Q 263.753217 192.24 260.716341 191.670572 
Q 257.679466 191.101145 257.679466 190.127354 
Q 257.679466 189.15007 260.716341 188.581515 
Q 263.753217 188.012088 268.952919 188.012088 
Q 270.696558 188.012088 272.297495 188.088943 
Q 273.898432 188.164925 275.378965 188.315142 
L 275.378965 189.15793 
Q 273.885054 188.958805 272.435738 188.866229 
Q 270.986421 188.773654 269.385484 188.773654 
Q 266.513607 188.773654 264.868076 189.134349 
Q 263.227003 189.494172 263.227003 190.127354 
Q 263.227003 190.757916 264.868076 191.118612 
Q 266.513607 191.478434 269.385484 191.478434 
Q 270.986421 191.478434 272.435738 191.385859 
Q 273.885054 191.29241 275.378965 191.093285 
L 275.378965 191.936946 
z
" clip-path="url(#pe8203b8beb)" style="fill: #0000ff"/>
   </g>
   <g id="patch_40">
    <path d="M 275.378965 187.573918 
Q 273.593941 187.793003 271.67405 187.903046 
Q 269.754158 188.012088 267.707331 188.012088 
Q 263.082137 188.012088 260.380801 187.359835 
Q 257.679466 186.707581 257.679466 185.592148 
Q 257.679466 184.46371 260.428402 183.816458 
Q 263.181305 183.169207 267.969134 183.169207 
Q 269.813659 183.169207 271.503481 183.257241 
Q 273.19727 183.344275 274.696689 183.516342 
L 274.696689 184.481717 
Q 273.149669 184.260631 271.618516 184.151588 
Q 270.087362 184.041546 268.548275 184.041546 
Q 265.700171 184.041546 264.157118 184.443702 
Q 262.614064 184.844858 262.614064 185.592148 
Q 262.614064 186.332436 264.101583 186.736593 
Q 265.589103 187.139749 268.326139 187.139749 
Q 269.071882 187.139749 269.710524 187.11674 
Q 270.349166 187.092731 270.856906 187.042711 
L 270.856906 186.136359 
L 267.941367 186.136359 
L 267.941367 185.329046 
L 275.378965 185.329046 
L 275.378965 187.573918 
z
" clip-path="url(#pe8203b8beb)" style="fill: #ffa600"/>
   </g>
   <g id="patch_41">
    <path d="M 269.939924 181.390759 
L 263.132981 181.390759 
L 262.058201 183.169207 
L 257.679466 183.169207 
L 263.932734 173.406574 
L 269.125697 173.406574 
L 275.378965 183.169207 
L 271.003849 183.169207 
L 269.939924 181.390759 
z
M 264.218618 179.578834 
L 268.843431 179.578834 
L 266.534644 175.695541 
L 264.218618 179.578834 
z
" clip-path="url(#pe8203b8beb)" style="fill: #008000"/>
   </g>
   <g id="patch_42">
    <path d="M 257.679466 147.347261 
L 275.378965 147.347261 
L 275.378965 152.429553 
L 269.011261 152.429553 
L 269.011261 173.406574 
L 264.059518 173.406574 
L 264.059518 152.429553 
L 257.679466 152.429553 
L 257.679466 147.347261 
z
" clip-path="url(#pe8203b8beb)" style="fill: #ff0000"/>
   </g>
   <g id="patch_43">
    <path d="M 294.010017 191.963221 
Q 292.529484 192.100414 290.928547 192.169808 
Q 289.32761 192.24 287.58397 192.24 
Q 282.384269 192.24 279.347393 191.719943 
Q 276.310518 191.199886 276.310518 190.310524 
Q 276.310518 189.417972 279.347393 188.898713 
Q 282.384269 188.378656 287.58397 188.378656 
Q 289.32761 188.378656 290.928547 188.448848 
Q 292.529484 188.518242 294.010017 188.655435 
L 294.010017 189.425151 
Q 292.516106 189.243291 291.066789 189.158742 
Q 289.617473 189.074192 288.016535 189.074192 
Q 285.144659 189.074192 283.499127 189.403615 
Q 281.858055 189.73224 281.858055 190.310524 
Q 281.858055 190.886416 283.499127 191.215839 
Q 285.144659 191.544464 288.016535 191.544464 
Q 289.617473 191.544464 291.066789 191.459914 
Q 292.516106 191.374568 294.010017 191.192707 
L 294.010017 191.963221 
z
" clip-path="url(#pe8203b8beb)" style="fill: #0000ff"/>
   </g>
   <g id="patch_44">
    <path d="M 276.310518 180.931778 
L 294.010017 180.931778 
L 294.010017 182.384127 
L 287.642313 182.384127 
L 287.642313 188.378656 
L 282.69057 188.378656 
L 282.69057 182.384127 
L 276.310518 182.384127 
L 276.310518 180.931778 
z
" clip-path="url(#pe8203b8beb)" style="fill: #ff0000"/>
   </g>
   <g id="patch_45">
    <path d="M 294.010017 180.124915 
Q 292.224993 180.528346 290.305101 180.730983 
Q 288.385209 180.931778 286.338383 180.931778 
Q 281.713188 180.931778 279.011853 179.730694 
Q 276.310518 178.52961 276.310518 176.475608 
Q 276.310518 174.397659 279.059454 173.205785 
Q 281.812356 172.013912 286.600186 172.013912 
Q 288.44471 172.013912 290.134532 172.176021 
Q 291.828321 172.336289 293.327741 172.653139 
L 293.327741 174.430818 
Q 291.780721 174.023702 290.249567 173.822907 
Q 288.718414 173.62027 287.179327 173.62027 
Q 284.331223 173.62027 282.788169 174.360816 
Q 281.245116 175.099519 281.245116 176.475608 
Q 281.245116 177.838802 282.732635 178.583032 
Q 284.220155 179.32542 286.957191 179.32542 
Q 287.702934 179.32542 288.341576 179.28305 
Q 288.980217 179.238839 289.487957 179.146731 
L 289.487957 177.47774 
L 286.572419 177.47774 
L 286.572419 175.991122 
L 294.010017 175.991122 
L 294.010017 180.124915 
z
" clip-path="url(#pe8203b8beb)" style="fill: #ffa600"/>
   </g>
   <g id="patch_46">
    <path d="M 288.570976 165.917634 
L 281.764033 165.917634 
L 280.689253 172.013912 
L 276.310518 172.013912 
L 282.563786 138.54893 
L 287.756749 138.54893 
L 294.010017 172.013912 
L 289.6349 172.013912 
L 288.570976 165.917634 
z
M 282.84967 159.706602 
L 287.474483 159.706602 
L 285.165695 146.395199 
L 282.84967 159.706602 
z
" clip-path="url(#pe8203b8beb)" style="fill: #008000"/>
   </g>
   <g id="patch_47">
    <path d="M 307.202028 191.547952 
L 300.395085 191.547952 
L 299.320305 192.24 
L 294.941569 192.24 
L 301.194837 188.441065 
L 306.3878 188.441065 
L 312.641068 192.24 
L 308.265952 192.24 
L 307.202028 191.547952 
z
M 301.480722 190.842878 
L 306.105535 190.842878 
L 303.796747 189.331771 
L 301.480722 190.842878 
z
" clip-path="url(#pe8203b8beb)" style="fill: #008000"/>
   </g>
   <g id="patch_48">
    <path d="M 312.641068 188.105104 
Q 311.160536 188.271633 309.559599 188.355865 
Q 307.958661 188.441065 306.215022 188.441065 
Q 301.01532 188.441065 297.978445 187.809807 
Q 294.941569 187.178549 294.941569 186.099019 
Q 294.941569 185.015617 297.978445 184.385327 
Q 301.01532 183.754068 306.215022 183.754068 
Q 307.958661 183.754068 309.559599 183.839269 
Q 311.160536 183.923501 312.641068 184.090029 
L 312.641068 185.024331 
Q 311.147158 184.803584 309.697841 184.700956 
Q 308.248525 184.598328 306.647587 184.598328 
Q 303.775711 184.598328 302.130179 184.99819 
Q 300.489107 185.397083 300.489107 186.099019 
Q 300.489107 186.798051 302.130179 187.197912 
Q 303.775711 187.596806 306.647587 187.596806 
Q 308.248525 187.596806 309.697841 187.494178 
Q 311.147158 187.390582 312.641068 187.169835 
L 312.641068 188.105104 
z
" clip-path="url(#pe8203b8beb)" style="fill: #0000ff"/>
   </g>
   <g id="patch_49">
    <path d="M 312.641068 183.285363 
Q 310.856045 183.519716 308.936153 183.637427 
Q 307.016261 183.754068 304.969434 183.754068 
Q 300.34424 183.754068 297.642905 183.056362 
Q 294.941569 182.358655 294.941569 181.165491 
Q 294.941569 179.958415 297.690505 179.266059 
Q 300.443408 178.573703 305.231238 178.573703 
Q 307.075762 178.573703 308.765584 178.667872 
Q 310.459373 178.760971 311.958793 178.945028 
L 311.958793 179.977677 
Q 310.411772 179.741185 308.880619 179.624543 
Q 307.349466 179.506832 305.810379 179.506832 
Q 302.962275 179.506832 301.419221 179.937013 
Q 299.876167 180.366124 299.876167 181.165491 
Q 299.876167 181.957366 301.363687 182.389688 
Q 302.851207 182.820939 305.588242 182.820939 
Q 306.333986 182.820939 306.972627 182.796327 
Q 307.611269 182.770644 308.119009 182.717139 
L 308.119009 181.747626 
L 305.203471 181.747626 
L 305.203471 180.884054 
L 312.641068 180.884054 
L 312.641068 183.285363 
z
" clip-path="url(#pe8203b8beb)" style="fill: #ffa600"/>
   </g>
   <g id="patch_50">
    <path d="M 294.941569 163.427301 
L 312.641068 163.427301 
L 312.641068 166.381272 
L 306.273365 166.381272 
L 306.273365 178.573703 
L 301.321621 178.573703 
L 301.321621 166.381272 
L 294.941569 166.381272 
L 294.941569 163.427301 
z
" clip-path="url(#pe8203b8beb)" style="fill: #ff0000"/>
   </g>
   <g id="patch_51">
    <path d="M 331.27212 191.939285 
Q 329.487097 192.089643 327.567205 192.165165 
Q 325.647313 192.24 323.600486 192.24 
Q 318.975292 192.24 316.273957 191.792361 
Q 313.572621 191.344721 313.572621 190.579203 
Q 313.572621 189.80476 316.321557 189.360553 
Q 319.07446 188.916347 323.86229 188.916347 
Q 325.706814 188.916347 327.396636 188.976764 
Q 329.090425 189.036495 330.589845 189.154584 
L 330.589845 189.817118 
Q 329.042824 189.665387 327.511671 189.590552 
Q 325.980517 189.51503 324.44143 189.51503 
Q 321.593326 189.51503 320.050273 189.791028 
Q 318.507219 190.06634 318.507219 190.579203 
Q 318.507219 191.08726 319.994739 191.364632 
Q 321.482258 191.641317 324.219294 191.641317 
Q 324.965037 191.641317 325.603679 191.625526 
Q 326.242321 191.609048 326.750061 191.57472 
L 326.750061 190.952694 
L 323.834523 190.952694 
L 323.834523 190.398637 
L 331.27212 190.398637 
L 331.27212 191.939285 
z
" clip-path="url(#pe8203b8beb)" style="fill: #ffa600"/>
   </g>
   <g id="patch_52">
    <path d="M 331.27212 188.66858 
Q 329.791588 188.791392 328.19065 188.853512 
Q 326.589713 188.916347 324.846074 188.916347 
Q 319.646372 188.916347 316.609497 188.450802 
Q 313.572621 187.985257 313.572621 187.189118 
Q 313.572621 186.390123 316.609497 185.925292 
Q 319.646372 185.459747 324.846074 185.459747 
Q 326.589713 185.459747 328.19065 185.522582 
Q 329.791588 185.584702 331.27212 185.707514 
L 331.27212 186.396549 
Q 329.778209 186.233751 328.328893 186.158065 
Q 326.879576 186.082378 325.278639 186.082378 
Q 322.406763 186.082378 320.761231 186.377271 
Q 319.120159 186.671449 319.120159 187.189118 
Q 319.120159 187.704645 320.761231 187.999537 
Q 322.406763 188.293716 325.278639 188.293716 
Q 326.879576 188.293716 328.328893 188.218029 
Q 329.778209 188.141629 331.27212 187.978831 
L 331.27212 188.66858 
z
" clip-path="url(#pe8203b8beb)" style="fill: #0000ff"/>
   </g>
   <g id="patch_53">
    <path d="M 313.572621 171.766296 
L 331.27212 171.766296 
L 331.27212 174.4369 
L 324.904417 174.4369 
L 324.904417 185.459747 
L 319.952673 185.459747 
L 319.952673 174.4369 
L 313.572621 174.4369 
L 313.572621 171.766296 
z
" clip-path="url(#pe8203b8beb)" style="fill: #ff0000"/>
   </g>
   <g id="patch_54">
    <path d="M 325.83308 168.424122 
L 319.026137 168.424122 
L 317.951356 171.766296 
L 313.572621 171.766296 
L 319.825889 153.419729 
L 325.018852 153.419729 
L 331.27212 171.766296 
L 326.897004 171.766296 
L 325.83308 168.424122 
z
M 320.111774 165.019037 
L 324.736586 165.019037 
L 322.427799 157.721303 
L 320.111774 165.019037 
z
" clip-path="url(#pe8203b8beb)" style="fill: #008000"/>
   </g>
   <g id="patch_55">
    <path d="M 349.903172 191.970387 
Q 348.118149 192.105194 346.198257 192.172905 
Q 344.278365 192.24 342.231538 192.24 
Q 337.606344 192.24 334.905008 191.838659 
Q 332.203673 191.437317 332.203673 190.750975 
Q 332.203673 190.05663 334.952609 189.658366 
Q 337.705512 189.260102 342.493341 189.260102 
Q 344.337866 189.260102 346.027688 189.314271 
Q 347.721477 189.367824 349.220896 189.4737 
L 349.220896 190.067709 
Q 347.673876 189.931672 346.142723 189.864577 
Q 344.611569 189.796866 343.072482 189.796866 
Q 340.224378 189.796866 338.681325 190.044318 
Q 337.138271 190.291156 337.138271 190.750975 
Q 337.138271 191.206485 338.62579 191.455168 
Q 340.11331 191.703237 342.850346 191.703237 
Q 343.596089 191.703237 344.234731 191.689079 
Q 344.873373 191.674306 345.381113 191.643528 
L 345.381113 191.085836 
L 342.465574 191.085836 
L 342.465574 190.589084 
L 349.903172 190.589084 
L 349.903172 191.970387 
z
" clip-path="url(#pe8203b8beb)" style="fill: #ffa600"/>
   </g>
   <g id="patch_56">
    <path d="M 349.903172 188.969168 
Q 348.422639 189.113378 346.821702 189.186321 
Q 345.220765 189.260102 343.477126 189.260102 
Q 338.277424 189.260102 335.240548 188.713448 
Q 332.203673 188.166793 332.203673 187.231947 
Q 332.203673 186.293747 335.240548 185.747931 
Q 338.277424 185.201277 343.477126 185.201277 
Q 345.220765 185.201277 346.821702 185.275058 
Q 348.422639 185.348001 349.903172 185.492211 
L 349.903172 186.301293 
Q 348.409261 186.110132 346.959945 186.021258 
Q 345.510628 185.932385 343.909691 185.932385 
Q 341.037814 185.932385 339.392283 186.278655 
Q 337.75121 186.624087 337.75121 187.231947 
Q 337.75121 187.837292 339.392283 188.183562 
Q 341.037814 188.528994 343.909691 188.528994 
Q 345.510628 188.528994 346.959945 188.440121 
Q 348.409261 188.350409 349.903172 188.159248 
L 349.903172 188.969168 
z
" clip-path="url(#pe8203b8beb)" style="fill: #0000ff"/>
   </g>
   <g id="patch_57">
    <path d="M 332.203673 177.083625 
L 349.903172 177.083625 
L 349.903172 178.666793 
L 343.535468 178.666793 
L 343.535468 185.201277 
L 338.583725 185.201277 
L 338.583725 178.666793 
L 332.203673 178.666793 
L 332.203673 177.083625 
z
" clip-path="url(#pe8203b8beb)" style="fill: #ff0000"/>
   </g>
   <g id="patch_58">
    <path d="M 344.464131 174.378761 
L 337.657188 174.378761 
L 336.582408 177.083625 
L 332.203673 177.083625 
L 338.456941 162.235515 
L 343.649904 162.235515 
L 349.903172 177.083625 
L 345.528056 177.083625 
L 344.464131 174.378761 
z
M 338.742825 171.622982 
L 343.367638 171.622982 
L 341.058851 165.716833 
L 338.742825 171.622982 
z
" clip-path="url(#pe8203b8beb)" style="fill: #008000"/>
   </g>
   <g id="patch_59">
    <path d="M 368.534224 191.8528 
Q 367.053691 192.044726 365.452754 192.141805 
Q 363.851817 192.24 362.108177 192.24 
Q 356.908476 192.24 353.8716 191.512465 
Q 350.834725 190.784931 350.834725 189.540757 
Q 350.834725 188.292121 353.8716 187.565702 
Q 356.908476 186.838167 362.108177 186.838167 
Q 363.851817 186.838167 365.452754 186.936362 
Q 367.053691 187.033441 368.534224 187.225367 
L 368.534224 188.302163 
Q 367.040313 188.047749 365.590996 187.929469 
Q 364.14168 187.811189 362.540743 187.811189 
Q 359.668866 187.811189 358.023334 188.272035 
Q 356.382262 188.731766 356.382262 189.540757 
Q 356.382262 190.346401 358.023334 190.807248 
Q 359.668866 191.266978 362.540743 191.266978 
Q 364.14168 191.266978 365.590996 191.148698 
Q 367.040313 191.029302 368.534224 190.774888 
L 368.534224 191.8528 
z
" clip-path="url(#pe8203b8beb)" style="fill: #0000ff"/>
   </g>
   <g id="patch_60">
    <path d="M 368.534224 186.130333 
Q 366.7492 186.48425 364.829308 186.662017 
Q 362.909416 186.838167 360.86259 186.838167 
Q 356.237396 186.838167 353.53606 185.784496 
Q 350.834725 184.730826 350.834725 182.928919 
Q 350.834725 181.106004 353.583661 180.060414 
Q 356.336563 179.014823 361.124393 179.014823 
Q 362.968917 179.014823 364.658739 179.157036 
Q 366.352528 179.297633 367.851948 179.575596 
L 367.851948 181.135093 
Q 366.304928 180.777944 364.773774 180.601793 
Q 363.242621 180.424027 361.703534 180.424027 
Q 358.85543 180.424027 357.312376 181.073683 
Q 355.769323 181.721723 355.769323 182.928919 
Q 355.769323 184.124803 357.256842 184.777691 
Q 358.744362 185.428963 361.481398 185.428963 
Q 362.227141 185.428963 362.865783 185.391794 
Q 363.504424 185.353008 364.012164 185.272205 
L 364.012164 183.808056 
L 361.096626 183.808056 
L 361.096626 182.503896 
L 368.534224 182.503896 
L 368.534224 186.130333 
z
" clip-path="url(#pe8203b8beb)" style="fill: #ffa600"/>
   </g>
   <g id="patch_61">
    <path d="M 350.834725 170.446399 
L 368.534224 170.446399 
L 368.534224 172.11748 
L 362.16652 172.11748 
L 362.16652 179.014823 
L 357.214777 179.014823 
L 357.214777 172.11748 
L 350.834725 172.11748 
L 350.834725 170.446399 
z
" clip-path="url(#pe8203b8beb)" style="fill: #ff0000"/>
   </g>
   <g id="patch_62">
    <path d="M 363.095183 154.599867 
L 356.28824 154.599867 
L 355.21346 170.446399 
L 350.834725 170.446399 
L 357.087993 83.458263 
L 362.280956 83.458263 
L 368.534224 170.446399 
L 364.159107 170.446399 
L 363.095183 154.599867 
z
M 357.373877 138.455048 
L 361.99869 138.455048 
L 359.689902 103.853681 
L 357.373877 138.455048 
z
" clip-path="url(#pe8203b8beb)" style="fill: #008000"/>
   </g>
   <g id="patch_63">
    <path d="M 387.165275 192.062608 
Q 385.684743 192.150537 384.083806 192.195013 
Q 382.482868 192.24 380.739229 192.24 
Q 375.539527 192.24 372.502652 191.906686 
Q 369.465776 191.573372 369.465776 191.003365 
Q 369.465776 190.431312 372.502652 190.09851 
Q 375.539527 189.765196 380.739229 189.765196 
Q 382.482868 189.765196 384.083806 189.810183 
Q 385.684743 189.854659 387.165275 189.942588 
L 387.165275 190.435913 
Q 385.671365 190.319356 384.222048 190.265167 
Q 382.772732 190.210978 381.171794 190.210978 
Q 378.299918 190.210978 376.654386 190.42211 
Q 375.013314 190.632732 375.013314 191.003365 
Q 375.013314 191.372464 376.654386 191.583597 
Q 378.299918 191.794218 381.171794 191.794218 
Q 382.772732 191.794218 384.222048 191.740029 
Q 385.671365 191.685329 387.165275 191.568771 
L 387.165275 192.062608 
z
" clip-path="url(#pe8203b8beb)" style="fill: #0000ff"/>
   </g>
   <g id="patch_64">
    <path d="M 387.165275 189.132062 
Q 385.380252 189.448629 383.46036 189.607635 
Q 381.540468 189.765196 379.493641 189.765196 
Q 374.868447 189.765196 372.167112 188.822722 
Q 369.465776 187.880249 369.465776 186.268503 
Q 369.465776 184.637966 372.214712 183.70272 
Q 374.967615 182.767474 379.755445 182.767474 
Q 381.599969 182.767474 383.289791 182.894679 
Q 384.98358 183.020439 386.483 183.269067 
L 386.483 184.663985 
Q 384.93598 184.344527 383.404826 184.186967 
Q 381.873673 184.02796 380.334586 184.02796 
Q 377.486482 184.02796 375.943428 184.609056 
Q 374.400374 185.188706 374.400374 186.268503 
Q 374.400374 187.338182 375.887894 187.922169 
Q 377.375414 188.50471 380.112449 188.50471 
Q 380.858193 188.50471 381.496834 188.471463 
Q 382.135476 188.436771 382.643216 188.364495 
L 382.643216 187.054862 
L 379.727678 187.054862 
L 379.727678 185.888334 
L 387.165275 185.888334 
L 387.165275 189.132062 
z
" clip-path="url(#pe8203b8beb)" style="fill: #ffa600"/>
   </g>
   <g id="patch_65">
    <path d="M 369.465776 171.246835 
L 387.165275 171.246835 
L 387.165275 173.49368 
L 380.797572 173.49368 
L 380.797572 182.767474 
L 375.845828 182.767474 
L 375.845828 173.49368 
L 369.465776 173.49368 
L 369.465776 171.246835 
z
" clip-path="url(#pe8203b8beb)" style="fill: #ff0000"/>
   </g>
   <g id="patch_66">
    <path d="M 381.726235 165.992307 
L 374.919292 165.992307 
L 373.844512 171.246835 
L 369.465776 171.246835 
L 375.719044 142.402567 
L 380.912007 142.402567 
L 387.165275 171.246835 
L 382.790159 171.246835 
L 381.726235 165.992307 
z
M 376.004929 160.63887 
L 380.629742 160.63887 
L 378.320954 149.165453 
L 376.004929 160.63887 
z
" clip-path="url(#pe8203b8beb)" style="fill: #008000"/>
   </g>
   <g id="patch_67">
    <path d="M 405.796327 192.132781 
Q 404.011304 192.18639 402.091412 192.213318 
Q 400.17152 192.24 398.124693 192.24 
Q 393.499499 192.24 390.798164 192.080395 
Q 388.096828 191.92079 388.096828 191.647846 
Q 388.096828 191.37172 390.845764 191.213339 
Q 393.598667 191.054958 398.386497 191.054958 
Q 400.231021 191.054958 401.920843 191.0765 
Q 403.614632 191.097797 405.114052 191.139901 
L 405.114052 191.376126 
Q 403.567031 191.322027 402.035878 191.295344 
Q 400.504724 191.268417 398.965637 191.268417 
Q 396.117533 191.268417 394.57448 191.366824 
Q 393.031426 191.464986 393.031426 191.647846 
Q 393.031426 191.828993 394.518946 191.927889 
Q 396.006465 192.026541 398.743501 192.026541 
Q 399.489244 192.026541 400.127886 192.02091 
Q 400.766528 192.015035 401.274268 192.002796 
L 401.274268 191.781013 
L 398.35873 191.781013 
L 398.35873 191.583466 
L 405.796327 191.583466 
L 405.796327 192.132781 
z
" clip-path="url(#pe8203b8beb)" style="fill: #ffa600"/>
   </g>
   <g id="patch_68">
    <path d="M 405.796327 190.804522 
Q 404.315795 190.928657 402.714857 190.991447 
Q 401.11392 191.054958 399.370281 191.054958 
Q 394.170579 191.054958 391.133704 190.584399 
Q 388.096828 190.113839 388.096828 189.309125 
Q 388.096828 188.501524 391.133704 188.031686 
Q 394.170579 187.561127 399.370281 187.561127 
Q 401.11392 187.561127 402.714857 187.624638 
Q 404.315795 187.687427 405.796327 187.811563 
L 405.796327 188.508019 
Q 404.302416 188.343468 402.8531 188.266966 
Q 401.403783 188.190464 399.802846 188.190464 
Q 396.93097 188.190464 395.285438 188.488533 
Q 393.644366 188.78588 393.644366 189.309125 
Q 393.644366 189.830205 395.285438 190.128274 
Q 396.93097 190.425621 399.802846 190.425621 
Q 401.403783 190.425621 402.8531 190.349119 
Q 404.302416 190.271895 405.796327 190.107344 
L 405.796327 190.804522 
z
" clip-path="url(#pe8203b8beb)" style="fill: #0000ff"/>
   </g>
   <g id="patch_69">
    <path d="M 400.357287 186.90605 
L 393.550344 186.90605 
L 392.475563 187.561127 
L 388.096828 187.561127 
L 394.350096 183.965137 
L 399.543059 183.965137 
L 405.796327 187.561127 
L 401.421211 187.561127 
L 400.357287 186.90605 
z
M 394.635981 186.238641 
L 399.260793 186.238641 
L 396.952006 184.80826 
L 394.635981 186.238641 
z
" clip-path="url(#pe8203b8beb)" style="fill: #008000"/>
   </g>
   <g id="patch_70">
    <path d="M 388.096828 180.307852 
L 405.796327 180.307852 
L 405.796327 181.021125 
L 399.428624 181.021125 
L 399.428624 183.965137 
L 394.47688 183.965137 
L 394.47688 181.021125 
L 388.096828 181.021125 
L 388.096828 180.307852 
z
" clip-path="url(#pe8203b8beb)" style="fill: #ff0000"/>
   </g>
   <g id="patch_71">
    <path d="M 424.427379 191.791827 
Q 422.642356 192.015913 420.722464 192.128468 
Q 418.802572 192.24 416.755745 192.24 
Q 412.130551 192.24 409.429215 191.572856 
Q 406.72788 190.905712 406.72788 189.764814 
Q 406.72788 188.610615 409.476816 187.948587 
Q 412.229719 187.286559 417.017548 187.286559 
Q 418.862073 187.286559 420.551895 187.376603 
Q 422.245684 187.465624 423.745103 187.641619 
L 423.745103 188.629033 
Q 422.198083 188.4029 420.66693 188.291368 
Q 419.135776 188.178813 417.596689 188.178813 
Q 414.748585 188.178813 413.205532 188.59015 
Q 411.662478 189.000464 411.662478 189.764814 
Q 411.662478 190.522002 413.149997 190.935386 
Q 414.637517 191.347746 417.374553 191.347746 
Q 418.120296 191.347746 418.758938 191.324212 
Q 419.39758 191.299655 419.90532 191.248493 
L 419.90532 190.32145 
L 416.989781 190.32145 
L 416.989781 189.495706 
L 424.427379 189.495706 
L 424.427379 191.791827 
z
" clip-path="url(#pe8203b8beb)" style="fill: #ffa600"/>
   </g>
   <g id="patch_72">
    <path d="M 418.988338 186.169348 
L 412.181395 186.169348 
L 411.106615 187.286559 
L 406.72788 187.286559 
L 412.981148 181.153728 
L 418.174111 181.153728 
L 424.427379 187.286559 
L 420.052263 187.286559 
L 418.988338 186.169348 
z
M 413.267032 185.031107 
L 417.891845 185.031107 
L 415.583058 182.591644 
L 413.267032 185.031107 
z
" clip-path="url(#pe8203b8beb)" style="fill: #008000"/>
   </g>
   <g id="patch_73">
    <path d="M 424.427379 180.640863 
Q 422.946846 180.895079 421.345909 181.023664 
Q 419.744972 181.153728 418.001333 181.153728 
Q 412.801631 181.153728 409.764755 180.190075 
Q 406.72788 179.226423 406.72788 177.578459 
Q 406.72788 175.924584 409.764755 174.96241 
Q 412.801631 173.998757 418.001333 173.998757 
Q 419.744972 173.998757 421.345909 174.128821 
Q 422.946846 174.257406 424.427379 174.511621 
L 424.427379 175.937886 
Q 422.933468 175.600903 421.484152 175.444236 
Q 420.034835 175.287568 418.433898 175.287568 
Q 415.562021 175.287568 413.91649 175.89798 
Q 412.275417 176.506914 412.275417 177.578459 
Q 412.275417 178.645571 413.91649 179.255983 
Q 415.562021 179.864917 418.433898 179.864917 
Q 420.034835 179.864917 421.484152 179.708249 
Q 422.933468 179.550104 424.427379 179.213121 
L 424.427379 180.640863 
z
" clip-path="url(#pe8203b8beb)" style="fill: #0000ff"/>
   </g>
   <g id="patch_74">
    <path d="M 406.72788 146.322389 
L 424.427379 146.322389 
L 424.427379 151.720052 
L 418.059675 151.720052 
L 418.059675 173.998757 
L 413.107932 173.998757 
L 413.107932 151.720052 
L 406.72788 151.720052 
L 406.72788 146.322389 
z
" clip-path="url(#pe8203b8beb)" style="fill: #ff0000"/>
   </g>
   <g id="patch_75">
    <path d="M 443.058431 191.928801 
Q 441.577898 192.083055 439.976961 192.161079 
Q 438.376024 192.24 436.632384 192.24 
Q 431.432683 192.24 428.395807 191.655268 
Q 425.358932 191.070537 425.358932 190.070574 
Q 425.358932 189.067024 428.395807 188.483189 
Q 431.432683 187.898457 436.632384 187.898457 
Q 438.376024 187.898457 439.976961 187.977378 
Q 441.577898 188.055402 443.058431 188.209656 
L 443.058431 189.075095 
Q 441.56452 188.870618 440.115203 188.775555 
Q 438.665887 188.680491 437.06495 188.680491 
Q 434.193073 188.680491 432.547541 189.050881 
Q 430.906469 189.420374 430.906469 190.070574 
Q 430.906469 190.718083 432.547541 191.088473 
Q 434.193073 191.457966 437.06495 191.457966 
Q 438.665887 191.457966 440.115203 191.362903 
Q 441.56452 191.266942 443.058431 191.062465 
L 443.058431 191.928801 
z
" clip-path="url(#pe8203b8beb)" style="fill: #0000ff"/>
   </g>
   <g id="patch_76">
    <path d="M 425.358932 179.835592 
L 443.058431 179.835592 
L 443.058431 181.408076 
L 436.690727 181.408076 
L 436.690727 187.898457 
L 431.738984 187.898457 
L 431.738984 181.408076 
L 425.358932 181.408076 
L 425.358932 179.835592 
z
" clip-path="url(#pe8203b8beb)" style="fill: #ff0000"/>
   </g>
   <g id="patch_77">
    <path d="M 443.058431 179.068676 
Q 441.273407 179.452134 439.353515 179.644739 
Q 437.433623 179.835592 435.386797 179.835592 
Q 430.761603 179.835592 428.060267 178.693973 
Q 425.358932 177.552354 425.358932 175.600046 
Q 425.358932 173.624975 428.107868 172.492111 
Q 430.86077 171.359247 435.6486 171.359247 
Q 437.493124 171.359247 439.182946 171.51333 
Q 440.876735 171.665663 442.376155 171.966826 
L 442.376155 173.656492 
Q 440.829135 173.269533 439.297981 173.078679 
Q 437.766828 172.886075 436.227741 172.886075 
Q 433.379637 172.886075 431.836583 173.589956 
Q 430.29353 174.292087 430.29353 175.600046 
Q 430.29353 176.895748 431.781049 177.603132 
Q 433.268569 178.308765 436.005605 178.308765 
Q 436.751348 178.308765 437.38999 178.268493 
Q 438.028631 178.22647 438.536371 178.138922 
L 438.536371 176.552562 
L 435.620833 176.552562 
L 435.620833 175.139546 
L 443.058431 175.139546 
L 443.058431 179.068676 
z
" clip-path="url(#pe8203b8beb)" style="fill: #ffa600"/>
   </g>
   <g id="patch_78">
    <path d="M 437.61939 153.168685 
L 430.812447 153.168685 
L 429.737667 171.359247 
L 425.358932 171.359247 
L 431.6122 71.503765 
L 436.805163 71.503765 
L 443.058431 171.359247 
L 438.683314 171.359247 
L 437.61939 153.168685 
z
M 431.898084 134.635713 
L 436.522897 134.635713 
L 434.214109 94.916087 
L 431.898084 134.635713 
z
" clip-path="url(#pe8203b8beb)" style="fill: #008000"/>
   </g>
   <g id="patch_79">
    <path d="M 443.989983 189.676849 
L 461.689482 189.676849 
L 461.689482 190.176735 
L 455.321779 190.176735 
L 455.321779 192.24 
L 450.370035 192.24 
L 450.370035 190.176735 
L 443.989983 190.176735 
L 443.989983 189.676849 
z
" clip-path="url(#pe8203b8beb)" style="fill: #ff0000"/>
   </g>
   <g id="patch_80">
    <path d="M 461.689482 189.350227 
Q 460.20895 189.512126 458.608013 189.594017 
Q 457.007075 189.676849 455.263436 189.676849 
Q 450.063734 189.676849 447.026859 189.063138 
Q 443.989983 188.449427 443.989983 187.399905 
Q 443.989983 186.346618 447.026859 185.733848 
Q 450.063734 185.120137 455.263436 185.120137 
Q 457.007075 185.120137 458.608013 185.202969 
Q 460.20895 185.28486 461.689482 185.446759 
L 461.689482 186.35509 
Q 460.195572 186.140479 458.746255 186.040704 
Q 457.296939 185.940929 455.696001 185.940929 
Q 452.824125 185.940929 451.178593 186.329675 
Q 449.537521 186.717481 449.537521 187.399905 
Q 449.537521 188.079506 451.178593 188.468252 
Q 452.824125 188.856058 455.696001 188.856058 
Q 457.296939 188.856058 458.746255 188.756282 
Q 460.195572 188.655566 461.689482 188.440955 
L 461.689482 189.350227 
z
" clip-path="url(#pe8203b8beb)" style="fill: #0000ff"/>
   </g>
   <g id="patch_81">
    <path d="M 461.689482 184.553254 
Q 459.904459 184.836696 457.984567 184.979063 
Q 456.064675 185.120137 454.017848 185.120137 
Q 449.392654 185.120137 446.691319 184.276284 
Q 443.989983 183.432431 443.989983 181.989339 
Q 443.989983 180.529421 446.738919 179.692039 
Q 449.491822 178.854658 454.279652 178.854658 
Q 456.124176 178.854658 457.813998 178.968552 
Q 459.507787 179.081152 461.007207 179.303763 
L 461.007207 180.552718 
Q 459.460187 180.266688 457.929033 180.125614 
Q 456.39788 179.983246 454.858793 179.983246 
Q 452.010689 179.983246 450.467635 180.503536 
Q 448.924581 181.022532 448.924581 181.989339 
Q 448.924581 182.947086 450.412101 183.469964 
Q 451.899621 183.991548 454.636656 183.991548 
Q 455.3824 183.991548 456.021041 183.96178 
Q 456.659683 183.930718 457.167423 183.866006 
L 457.167423 182.693412 
L 454.251885 182.693412 
L 454.251885 181.64895 
L 461.689482 181.64895 
L 461.689482 184.553254 
z
" clip-path="url(#pe8203b8beb)" style="fill: #ffa600"/>
   </g>
   <g id="patch_82">
    <path d="M 456.250442 150.994722 
L 449.443499 150.994722 
L 448.368719 178.854658 
L 443.989983 178.854658 
L 450.243251 25.92 
L 455.436214 25.92 
L 461.689482 178.854658 
L 457.314366 178.854658 
L 456.250442 150.994722 
z
M 450.529136 122.610364 
L 455.153949 122.610364 
L 452.845161 61.777376 
L 450.529136 122.610364 
z
" clip-path="url(#pe8203b8beb)" style="fill: #008000"/>
   </g>
   <g id="patch_83">
    <path d="M 480.320534 191.91919 
Q 478.840002 192.078208 477.239064 192.158642 
Q 475.638127 192.24 473.894488 192.24 
Q 468.694786 192.24 465.657911 191.637211 
Q 462.621035 191.034421 462.621035 190.003577 
Q 462.621035 188.969035 465.657911 188.36717 
Q 468.694786 187.764381 473.894488 187.764381 
Q 475.638127 187.764381 477.239064 187.845739 
Q 478.840002 187.926173 480.320534 188.085191 
L 480.320534 188.977356 
Q 478.826623 188.766565 477.377307 188.668565 
Q 475.92799 188.570566 474.327053 188.570566 
Q 471.455177 188.570566 469.809645 188.952394 
Q 468.168573 189.333298 468.168573 190.003577 
Q 468.168573 190.671083 469.809645 191.052912 
Q 471.455177 191.433815 474.327053 191.433815 
Q 475.92799 191.433815 477.377307 191.335816 
Q 478.826623 191.236892 480.320534 191.0261 
L 480.320534 191.91919 
z
" clip-path="url(#pe8203b8beb)" style="fill: #0000ff"/>
   </g>
   <g id="patch_84">
    <path d="M 462.621035 180.066316 
L 480.320534 180.066316 
L 480.320534 181.567653 
L 473.952831 181.567653 
L 473.952831 187.764381 
L 469.001087 187.764381 
L 469.001087 181.567653 
L 462.621035 181.567653 
L 462.621035 180.066316 
z
" clip-path="url(#pe8203b8beb)" style="fill: #ff0000"/>
   </g>
   <g id="patch_85">
    <path d="M 480.320534 179.14305 
Q 478.535511 179.604683 476.615619 179.836553 
Q 474.695727 180.066316 472.6489 180.066316 
Q 468.023706 180.066316 465.322371 178.691956 
Q 462.621035 177.317596 462.621035 174.967272 
Q 462.621035 172.589545 465.369971 171.225725 
Q 468.122874 169.861905 472.910704 169.861905 
Q 474.755228 169.861905 476.44505 170.047401 
Q 478.138839 170.230789 479.638259 170.593351 
L 479.638259 172.627488 
Q 478.091238 172.161639 476.560085 171.931876 
Q 475.028931 171.700006 473.489844 171.700006 
Q 470.64174 171.700006 469.098687 172.547387 
Q 467.555633 173.39266 467.555633 174.967272 
Q 467.555633 176.527129 469.043153 177.378726 
Q 470.530672 178.228215 473.267708 178.228215 
Q 474.013451 178.228215 474.652093 178.179733 
Q 475.290735 178.129143 475.798475 178.023747 
L 475.798475 176.113977 
L 472.882937 176.113977 
L 472.882937 174.412891 
L 480.320534 174.412891 
L 480.320534 179.14305 
z
" clip-path="url(#pe8203b8beb)" style="fill: #ffa600"/>
   </g>
   <g id="patch_86">
    <path d="M 474.881494 154.892656 
L 468.074551 154.892656 
L 466.99977 169.861905 
L 462.621035 169.861905 
L 468.874303 87.689538 
L 474.067266 87.689538 
L 480.320534 169.861905 
L 475.945418 169.861905 
L 474.881494 154.892656 
z
M 469.160188 139.641634 
L 473.785 139.641634 
L 471.476213 106.955841 
L 469.160188 139.641634 
z
" clip-path="url(#pe8203b8beb)" style="fill: #008000"/>
   </g>
   <g id="patch_87">
    <path d="M 481.252087 186.752103 
L 498.951586 186.752103 
L 498.951586 187.822396 
L 492.583882 187.822396 
L 492.583882 192.24 
L 487.632139 192.24 
L 487.632139 187.822396 
L 481.252087 187.822396 
L 481.252087 186.752103 
z
" clip-path="url(#pe8203b8beb)" style="fill: #ff0000"/>
   </g>
   <g id="patch_88">
    <path d="M 498.951586 186.116545 
Q 497.166563 186.434324 495.246671 186.593939 
Q 493.326779 186.752103 491.279952 186.752103 
Q 486.654758 186.752103 483.953422 185.806021 
Q 481.252087 184.85994 481.252087 183.242025 
Q 481.252087 181.605246 484.001023 180.66642 
Q 486.753926 179.727594 491.541755 179.727594 
Q 493.38628 179.727594 495.076102 179.855286 
Q 496.769891 179.981527 498.26931 180.231107 
L 498.26931 181.631365 
Q 496.72229 181.310684 495.191137 181.15252 
Q 493.659983 180.992905 492.120896 180.992905 
Q 489.272792 180.992905 487.729739 181.576225 
Q 486.186685 182.158094 486.186685 183.242025 
Q 486.186685 184.315798 487.674205 184.90202 
Q 489.161724 185.486791 491.89876 185.486791 
Q 492.644503 185.486791 493.283145 185.453417 
Q 493.921787 185.418592 494.429527 185.34604 
L 494.429527 184.031393 
L 491.513988 184.031393 
L 491.513988 182.8604 
L 498.951586 182.8604 
L 498.951586 186.116545 
z
" clip-path="url(#pe8203b8beb)" style="fill: #ffa600"/>
   </g>
   <g id="patch_89">
    <path d="M 498.951586 179.208347 
Q 497.471053 179.465726 495.870116 179.595912 
Q 494.269179 179.727594 492.52554 179.727594 
Q 487.325838 179.727594 484.288962 178.751948 
Q 481.252087 177.776301 481.252087 176.107826 
Q 481.252087 174.433366 484.288962 173.459216 
Q 487.325838 172.48357 492.52554 172.48357 
Q 494.269179 172.48357 495.870116 172.615252 
Q 497.471053 172.745438 498.951586 173.002817 
L 498.951586 174.446833 
Q 497.457675 174.105656 496.008359 173.947039 
Q 494.559042 173.788422 492.958105 173.788422 
Q 490.086228 173.788422 488.440697 174.406431 
Q 486.799624 175.022944 486.799624 176.107826 
Q 486.799624 177.18822 488.440697 177.806229 
Q 490.086228 178.422742 492.958105 178.422742 
Q 494.559042 178.422742 496.008359 178.264125 
Q 497.457675 178.104011 498.951586 177.762834 
L 498.951586 179.208347 
z
" clip-path="url(#pe8203b8beb)" style="fill: #0000ff"/>
   </g>
   <g id="patch_90">
    <path d="M 493.512545 152.729021 
L 486.705603 152.729021 
L 485.630822 172.48357 
L 481.252087 172.48357 
L 487.505355 64.042718 
L 492.698318 64.042718 
L 498.951586 172.48357 
L 494.57647 172.48357 
L 493.512545 152.729021 
z
M 487.791239 132.602622 
L 492.416052 132.602622 
L 490.107265 89.467984 
L 487.791239 132.602622 
z
" clip-path="url(#pe8203b8beb)" style="fill: #008000"/>
   </g>
   <g id="patch_91">
    <path d="M 517.582638 191.922284 
Q 515.797614 192.081142 513.877722 192.160934 
Q 511.957831 192.24 509.911004 192.24 
Q 505.28581 192.24 502.584474 191.767054 
Q 499.883139 191.294107 499.883139 190.485311 
Q 499.883139 189.667084 502.632075 189.197765 
Q 505.384978 188.728445 510.172807 188.728445 
Q 512.017331 188.728445 513.707153 188.792278 
Q 515.400942 188.855386 516.900362 188.980151 
L 516.900362 189.680141 
Q 515.353342 189.519832 513.822188 189.440766 
Q 512.291035 189.360975 510.751948 189.360975 
Q 507.903844 189.360975 506.36079 189.652577 
Q 504.817737 189.943453 504.817737 190.485311 
Q 504.817737 191.02209 506.305256 191.315143 
Q 507.792776 191.60747 510.529812 191.60747 
Q 511.275555 191.60747 511.914197 191.590787 
Q 512.552838 191.573378 513.060578 191.537109 
L 513.060578 190.879916 
L 510.14504 190.879916 
L 510.14504 190.294536 
L 517.582638 190.294536 
L 517.582638 191.922284 
z
" clip-path="url(#pe8203b8beb)" style="fill: #ffa600"/>
   </g>
   <g id="patch_92">
    <path d="M 512.143597 187.60258 
L 505.336654 187.60258 
L 504.261874 188.728445 
L 499.883139 188.728445 
L 506.136407 182.548108 
L 511.32937 182.548108 
L 517.582638 188.728445 
L 513.207521 188.728445 
L 512.143597 187.60258 
z
M 506.422291 186.455522 
L 511.047104 186.455522 
L 508.738316 183.997163 
L 506.422291 186.455522 
z
" clip-path="url(#pe8203b8beb)" style="fill: #008000"/>
   </g>
   <g id="patch_93">
    <path d="M 517.582638 181.511079 
Q 516.102105 182.025111 514.501168 182.285115 
Q 512.900231 182.548108 511.156591 182.548108 
Q 505.95689 182.548108 502.920014 180.599569 
Q 499.883139 178.651029 499.883139 175.318788 
Q 499.883139 171.974592 502.920014 170.029041 
Q 505.95689 168.080502 511.156591 168.080502 
Q 512.900231 168.080502 514.501168 168.343495 
Q 516.102105 168.603499 517.582638 169.117531 
L 517.582638 172.001489 
Q 516.088727 171.320098 514.63941 171.003311 
Q 513.190094 170.686524 511.589157 170.686524 
Q 508.71728 170.686524 507.071748 171.920798 
Q 505.430676 173.152084 505.430676 175.318788 
Q 505.430676 177.476526 507.071748 178.7108 
Q 508.71728 179.942086 511.589157 179.942086 
Q 513.190094 179.942086 514.63941 179.625299 
Q 516.088727 179.305523 517.582638 178.624132 
L 517.582638 181.511079 
z
" clip-path="url(#pe8203b8beb)" style="fill: #0000ff"/>
   </g>
   <g id="patch_94">
    <path d="M 499.883139 110.210075 
L 517.582638 110.210075 
L 517.582638 121.496421 
L 511.214934 121.496421 
L 511.214934 168.080502 
L 506.263191 168.080502 
L 506.263191 121.496421 
L 499.883139 121.496421 
L 499.883139 110.210075 
z
" clip-path="url(#pe8203b8beb)" style="fill: #ff0000"/>
   </g>
   <g id="patch_95">
    <path d="M 536.213689 192.048529 
Q 534.428666 192.144265 532.508774 192.192351 
Q 530.588882 192.24 528.542055 192.24 
Q 523.916861 192.24 521.215526 191.95498 
Q 518.51419 191.66996 518.51419 191.182541 
Q 518.51419 190.689438 521.263126 190.406604 
Q 524.016029 190.12377 528.803859 190.12377 
Q 530.648383 190.12377 532.338205 190.162239 
Q 534.031994 190.200271 535.531414 190.27546 
L 535.531414 190.697307 
Q 533.984394 190.600698 532.45324 190.553049 
Q 530.922087 190.504962 529.383 190.504962 
Q 526.534896 190.504962 524.991842 190.680696 
Q 523.448788 190.855992 523.448788 191.182541 
Q 523.448788 191.50603 524.936308 191.682637 
Q 526.423828 191.858808 529.160864 191.858808 
Q 529.906607 191.858808 530.545248 191.848753 
Q 531.18389 191.838262 531.69163 191.816404 
L 531.69163 191.420349 
L 528.776092 191.420349 
L 528.776092 191.067571 
L 536.213689 191.067571 
L 536.213689 192.048529 
z
" clip-path="url(#pe8203b8beb)" style="fill: #ffa600"/>
   </g>
   <g id="patch_96">
    <path d="M 536.213689 189.89303 
Q 534.733157 190.007402 533.13222 190.065254 
Q 531.531282 190.12377 529.787643 190.12377 
Q 524.587941 190.12377 521.551066 189.690218 
Q 518.51419 189.256667 518.51419 188.51524 
Q 518.51419 187.771154 521.551066 187.338267 
Q 524.587941 186.904716 529.787643 186.904716 
Q 531.531282 186.904716 533.13222 186.963232 
Q 534.733157 187.021083 536.213689 187.135455 
L 536.213689 187.777138 
Q 534.719779 187.625528 533.270462 187.555043 
Q 531.821146 187.484558 530.220208 187.484558 
Q 527.348332 187.484558 525.7028 187.759185 
Q 524.061728 188.033147 524.061728 188.51524 
Q 524.061728 188.995339 525.7028 189.269966 
Q 527.348332 189.543928 530.220208 189.543928 
Q 531.821146 189.543928 533.270462 189.473442 
Q 534.719779 189.402292 536.213689 189.250682 
L 536.213689 189.89303 
z
" clip-path="url(#pe8203b8beb)" style="fill: #0000ff"/>
   </g>
   <g id="patch_97">
    <path d="M 530.774649 186.090255 
L 523.967706 186.090255 
L 522.892926 186.904716 
L 518.51419 186.904716 
L 524.767458 182.433807 
L 529.960421 182.433807 
L 536.213689 186.904716 
L 531.838573 186.904716 
L 530.774649 186.090255 
z
M 525.053343 185.260464 
L 529.678156 185.260464 
L 527.369368 183.482065 
L 525.053343 185.260464 
z
" clip-path="url(#pe8203b8beb)" style="fill: #008000"/>
   </g>
   <g id="patch_98">
    <path d="M 518.51419 174.833262 
L 536.213689 174.833262 
L 536.213689 176.31558 
L 529.845986 176.31558 
L 529.845986 182.433807 
L 524.894242 182.433807 
L 524.894242 176.31558 
L 518.51419 176.31558 
L 518.51419 174.833262 
z
" clip-path="url(#pe8203b8beb)" style="fill: #ff0000"/>
   </g>
   <g id="patch_99">
    <path d="M 554.844741 191.959273 
Q 553.364209 192.098423 551.763271 192.168807 
Q 550.162334 192.24 548.418695 192.24 
Q 543.218993 192.24 540.182118 191.712525 
Q 537.145242 191.18505 537.145242 190.283003 
Q 537.145242 189.37772 540.182118 188.851054 
Q 543.218993 188.323578 548.418695 188.323578 
Q 550.162334 188.323578 551.763271 188.394771 
Q 553.364209 188.465155 554.844741 188.604305 
L 554.844741 189.385001 
Q 553.35083 189.200546 551.901514 189.114791 
Q 550.452197 189.029036 548.85126 189.029036 
Q 545.979384 189.029036 544.333852 189.363157 
Q 542.69278 189.69647 542.69278 190.283003 
Q 542.69278 190.867109 544.333852 191.20123 
Q 545.979384 191.534543 548.85126 191.534543 
Q 550.452197 191.534543 551.901514 191.448787 
Q 553.35083 191.362223 554.844741 191.177769 
L 554.844741 191.959273 
z
" clip-path="url(#pe8203b8beb)" style="fill: #0000ff"/>
   </g>
   <g id="patch_100">
    <path d="M 554.844741 187.936422 
Q 553.059718 188.13 551.139826 188.227231 
Q 549.219934 188.323578 547.173107 188.323578 
Q 542.547913 188.323578 539.846578 187.747263 
Q 537.145242 187.170948 537.145242 186.185378 
Q 537.145242 185.188317 539.894178 184.616421 
Q 542.647081 184.044525 547.434911 184.044525 
Q 549.279435 184.044525 550.969257 184.12231 
Q 552.663046 184.199211 554.162466 184.351245 
L 554.162466 185.204227 
Q 552.615445 185.008881 551.084292 184.912534 
Q 549.553138 184.815303 548.014052 184.815303 
Q 545.165947 184.815303 543.622894 185.170638 
Q 542.07984 185.52509 542.07984 186.185378 
Q 542.07984 186.839478 543.56736 187.196581 
Q 545.054879 187.552801 547.791915 187.552801 
Q 548.537658 187.552801 549.1763 187.532471 
Q 549.814942 187.511257 550.322682 187.467061 
L 550.322682 186.66623 
L 547.407144 186.66623 
L 547.407144 185.952907 
L 554.844741 185.952907 
L 554.844741 187.936422 
z
" clip-path="url(#pe8203b8beb)" style="fill: #ffa600"/>
   </g>
   <g id="patch_101">
    <path d="M 549.405701 182.102355 
L 542.598758 182.102355 
L 541.523977 184.044525 
L 537.145242 184.044525 
L 543.39851 173.383156 
L 548.591473 173.383156 
L 554.844741 184.044525 
L 550.469625 184.044525 
L 549.405701 182.102355 
z
M 543.684395 180.123627 
L 548.309208 180.123627 
L 546.00042 175.882842 
L 543.684395 180.123627 
z
" clip-path="url(#pe8203b8beb)" style="fill: #008000"/>
   </g>
   <g id="patch_102">
    <path d="M 537.145242 149.884626 
L 554.844741 149.884626 
L 554.844741 154.467494 
L 548.477038 154.467494 
L 548.477038 173.383156 
L 543.525294 173.383156 
L 543.525294 154.467494 
L 537.145242 154.467494 
L 537.145242 149.884626 
z
" clip-path="url(#pe8203b8beb)" style="fill: #ff0000"/>
   </g>
   <g id="patch_103">
    <path d="M 573.475793 192.132427 
Q 571.99526 192.185749 570.394323 192.212719 
Q 568.793386 192.24 567.049747 192.24 
Q 561.850045 192.24 558.813169 192.037875 
Q 555.776294 191.83575 555.776294 191.490092 
Q 555.776294 191.143193 558.813169 190.941379 
Q 561.850045 190.739254 567.049747 190.739254 
Q 568.793386 190.739254 570.394323 190.766534 
Q 571.99526 190.793505 573.475793 190.846826 
L 573.475793 191.145984 
Q 571.981882 191.075302 570.532566 191.042441 
Q 569.083249 191.00958 567.482312 191.00958 
Q 564.610435 191.00958 562.964904 191.137613 
Q 561.323831 191.265336 561.323831 191.490092 
Q 561.323831 191.713917 562.964904 191.84195 
Q 564.610435 191.969673 567.482312 191.969673 
Q 569.083249 191.969673 570.532566 191.936813 
Q 571.981882 191.903642 573.475793 191.83296 
L 573.475793 192.132427 
z
" clip-path="url(#pe8203b8beb)" style="fill: #0000ff"/>
   </g>
   <g id="patch_104">
    <path d="M 555.776294 189.224349 
L 573.475793 189.224349 
L 573.475793 189.519798 
L 567.108089 189.519798 
L 567.108089 190.739254 
L 562.156346 190.739254 
L 562.156346 189.519798 
L 555.776294 189.519798 
L 555.776294 189.224349 
z
" clip-path="url(#pe8203b8beb)" style="fill: #ff0000"/>
   </g>
   <g id="patch_105">
    <path d="M 573.475793 189.036046 
Q 571.69077 189.130198 569.770878 189.177489 
Q 567.850986 189.224349 565.804159 189.224349 
Q 561.178965 189.224349 558.477629 188.944044 
Q 555.776294 188.663739 555.776294 188.184382 
Q 555.776294 187.699437 558.52523 187.421281 
Q 561.278133 187.143126 566.065962 187.143126 
Q 567.910487 187.143126 569.600309 187.180958 
Q 571.294098 187.218361 572.793517 187.292307 
L 572.793517 187.707176 
Q 571.246497 187.612164 569.715344 187.565303 
Q 568.18419 187.518013 566.645103 187.518013 
Q 563.796999 187.518013 562.253946 187.690839 
Q 560.710892 187.863235 560.710892 188.184382 
Q 560.710892 188.50252 562.198412 188.676206 
Q 563.685931 188.849463 566.422967 188.849463 
Q 567.16871 188.849463 567.807352 188.839575 
Q 568.445994 188.829257 568.953734 188.807761 
L 568.953734 188.418257 
L 566.038195 188.418257 
L 566.038195 188.071315 
L 573.475793 188.071315 
L 573.475793 189.036046 
z
" clip-path="url(#pe8203b8beb)" style="fill: #ffa600"/>
   </g>
   <g id="patch_106">
    <path d="M 568.036752 186.565398 
L 561.22981 186.565398 
L 560.155029 187.143126 
L 555.776294 187.143126 
L 562.029562 183.971737 
L 567.222525 183.971737 
L 573.475793 187.143126 
L 569.100677 187.143126 
L 568.036752 186.565398 
z
M 562.315446 185.976794 
L 566.940259 185.976794 
L 564.631472 184.715308 
L 562.315446 185.976794 
z
" clip-path="url(#pe8203b8beb)" style="fill: #008000"/>
   </g>
   <g id="patch_107">
    <path d="M 592.106845 192.114876 
Q 590.321821 192.177438 588.401929 192.208862 
Q 586.482038 192.24 584.435211 192.24 
Q 579.810017 192.24 577.108681 192.053743 
Q 574.407346 191.867485 574.407346 191.548962 
Q 574.407346 191.226725 577.156282 191.041896 
Q 579.909185 190.857067 584.697014 190.857067 
Q 586.541538 190.857067 588.23136 190.882206 
Q 589.925149 190.907059 591.424569 190.956194 
L 591.424569 191.231867 
Q 589.877549 191.168734 588.346395 191.137596 
Q 586.815242 191.106172 585.276155 191.106172 
Q 582.428051 191.106172 580.884997 191.221012 
Q 579.341944 191.335566 579.341944 191.548962 
Q 579.341944 191.760358 580.829463 191.875769 
Q 582.316983 191.990895 585.054019 191.990895 
Q 585.799762 191.990895 586.438404 191.984324 
Q 587.077045 191.977468 587.584785 191.963185 
L 587.584785 191.704367 
L 584.669247 191.704367 
L 584.669247 191.47383 
L 592.106845 191.47383 
L 592.106845 192.114876 
z
" clip-path="url(#pe8203b8beb)" style="fill: #ffa600"/>
   </g>
   <g id="patch_108">
    <path d="M 592.106845 190.585383 
Q 590.626312 190.72005 589.025375 190.788167 
Q 587.424438 190.857067 585.680798 190.857067 
Q 580.481097 190.857067 577.444221 190.346583 
Q 574.407346 189.8361 574.407346 188.96311 
Q 574.407346 188.086989 577.444221 187.577288 
Q 580.481097 187.066805 585.680798 187.066805 
Q 587.424438 187.066805 589.025375 187.135704 
Q 590.626312 187.203821 592.106845 187.338489 
L 592.106845 188.094035 
Q 590.612934 187.915523 589.163617 187.83253 
Q 587.714301 187.749537 586.113364 187.749537 
Q 583.241487 187.749537 581.595955 188.072896 
Q 579.954883 188.395471 579.954883 188.96311 
Q 579.954883 189.5284 581.595955 189.851759 
Q 583.241487 190.174334 586.113364 190.174334 
Q 587.714301 190.174334 589.163617 190.091341 
Q 590.612934 190.007566 592.106845 189.829053 
L 592.106845 190.585383 
z
" clip-path="url(#pe8203b8beb)" style="fill: #0000ff"/>
   </g>
   <g id="patch_109">
    <path d="M 586.667804 186.283031 
L 579.860861 186.283031 
L 578.786081 187.066805 
L 574.407346 187.066805 
L 580.660614 182.764346 
L 585.853577 182.764346 
L 592.106845 187.066805 
L 587.731728 187.066805 
L 586.667804 186.283031 
z
M 580.946498 185.484503 
L 585.571311 185.484503 
L 583.262523 183.773109 
L 580.946498 185.484503 
z
" clip-path="url(#pe8203b8beb)" style="fill: #008000"/>
   </g>
   <g id="patch_110">
    <path d="M 574.407346 177.283832 
L 592.106845 177.283832 
L 592.106845 178.352685 
L 585.739141 178.352685 
L 585.739141 182.764346 
L 580.787398 182.764346 
L 580.787398 178.352685 
L 574.407346 178.352685 
L 574.407346 177.283832 
z
" clip-path="url(#pe8203b8beb)" style="fill: #ff0000"/>
   </g>
   <g id="patch_111">
    <path d="M 610.737896 191.939945 
Q 609.257364 192.088676 607.656427 192.163905 
Q 606.055489 192.24 604.31185 192.24 
Q 599.112148 192.24 596.075273 191.676209 
Q 593.038397 191.112417 593.038397 190.148265 
Q 593.038397 189.180654 596.075273 188.617727 
Q 599.112148 188.053936 604.31185 188.053936 
Q 606.055489 188.053936 607.656427 188.130031 
Q 609.257364 188.20526 610.737896 188.353991 
L 610.737896 189.188436 
Q 609.243986 188.991282 607.794669 188.899623 
Q 606.345353 188.807964 604.744415 188.807964 
Q 601.872539 188.807964 600.227007 189.165089 
Q 598.585935 189.52135 598.585935 190.148265 
Q 598.585935 190.772586 600.227007 191.129712 
Q 601.872539 191.485972 604.744415 191.485972 
Q 606.345353 191.485972 607.794669 191.394313 
Q 609.243986 191.301789 610.737896 191.104635 
L 610.737896 191.939945 
z
" clip-path="url(#pe8203b8beb)" style="fill: #0000ff"/>
   </g>
   <g id="patch_112">
    <path d="M 610.737896 187.552501 
Q 608.952873 187.803219 607.032981 187.92915 
Q 605.113089 188.053936 603.066262 188.053936 
Q 598.441068 188.053936 595.739733 187.307508 
Q 593.038397 186.56108 593.038397 185.284597 
Q 593.038397 183.993231 595.787333 183.252527 
Q 598.540236 182.511823 603.328066 182.511823 
Q 605.17259 182.511823 606.862412 182.612568 
Q 608.556201 182.712168 610.055621 182.909079 
L 610.055621 184.013838 
Q 608.508601 183.760831 606.977447 183.636044 
Q 605.446294 183.510113 603.907207 183.510113 
Q 601.059103 183.510113 599.516049 183.970334 
Q 597.972995 184.42941 597.972995 185.284597 
Q 597.972995 186.13177 599.460515 186.59428 
Q 600.948035 187.055646 603.685071 187.055646 
Q 604.430814 187.055646 605.069455 187.029315 
Q 605.708097 187.001839 606.215837 186.944598 
L 606.215837 185.907383 
L 603.300299 185.907383 
L 603.300299 184.983507 
L 610.737896 184.983507 
L 610.737896 187.552501 
z
" clip-path="url(#pe8203b8beb)" style="fill: #ffa600"/>
   </g>
   <g id="patch_113">
    <path d="M 593.038397 176.851793 
L 610.737896 176.851793 
L 610.737896 177.955657 
L 604.370193 177.955657 
L 604.370193 182.511823 
L 599.418449 182.511823 
L 599.418449 177.955657 
L 593.038397 177.955657 
L 593.038397 176.851793 
z
" clip-path="url(#pe8203b8beb)" style="fill: #ff0000"/>
   </g>
   <g id="patch_114">
    <path d="M 605.298856 173.382634 
L 598.491913 173.382634 
L 597.417133 176.851793 
L 593.038397 176.851793 
L 599.291665 157.80815 
L 604.484628 157.80815 
L 610.737896 176.851793 
L 606.36278 176.851793 
L 605.298856 173.382634 
z
M 599.57755 169.848173 
L 604.202363 169.848173 
L 601.893575 162.273162 
L 599.57755 169.848173 
z
" clip-path="url(#pe8203b8beb)" style="fill: #008000"/>
   </g>
   <g id="patch_115">
    <path d="M 611.669449 187.25435 
L 629.368948 187.25435 
L 629.368948 188.226691 
L 623.001245 188.226691 
L 623.001245 192.24 
L 618.049501 192.24 
L 618.049501 188.226691 
L 611.669449 188.226691 
L 611.669449 187.25435 
z
" clip-path="url(#pe8203b8beb)" style="fill: #ff0000"/>
   </g>
   <g id="patch_116">
    <path d="M 629.368948 186.711425 
Q 627.888416 186.980541 626.287478 187.116663 
Q 624.686541 187.25435 622.942902 187.25435 
Q 617.7432 187.25435 614.706325 186.234214 
Q 611.669449 185.214079 611.669449 183.469521 
Q 611.669449 181.718705 614.706325 180.700134 
Q 617.7432 179.679998 622.942902 179.679998 
Q 624.686541 179.679998 626.287478 179.817685 
Q 627.888416 179.953807 629.368948 180.222923 
L 629.368948 181.732787 
Q 627.875037 181.376052 626.425721 181.210202 
Q 624.976404 181.044351 623.375467 181.044351 
Q 620.503591 181.044351 618.858059 181.690542 
Q 617.216987 182.335168 617.216987 183.469521 
Q 617.216987 184.599181 618.858059 185.245371 
Q 620.503591 185.889997 623.375467 185.889997 
Q 624.976404 185.889997 626.425721 185.724147 
Q 627.875037 185.556732 629.368948 185.199997 
L 629.368948 186.711425 
z
" clip-path="url(#pe8203b8beb)" style="fill: #0000ff"/>
   </g>
   <g id="patch_117">
    <path d="M 629.368948 178.994692 
Q 627.583925 179.337345 625.664033 179.509454 
Q 623.744141 179.679998 621.697314 179.679998 
Q 617.07212 179.679998 614.370785 178.659862 
Q 611.669449 177.639726 611.669449 175.895169 
Q 611.669449 174.130271 614.418385 173.117958 
Q 617.171288 172.105646 621.959118 172.105646 
Q 623.803642 172.105646 625.493464 172.243333 
Q 627.187253 172.379455 628.686673 172.648571 
L 628.686673 174.158434 
Q 627.139652 173.812652 625.608499 173.642108 
Q 624.077345 173.469999 622.538259 173.469999 
Q 619.690154 173.469999 618.147101 174.098978 
Q 616.604047 174.726393 616.604047 175.895169 
Q 616.604047 177.052992 618.091567 177.6851 
Q 619.579086 178.315644 622.316122 178.315644 
Q 623.061865 178.315644 623.700507 178.279658 
Q 624.339149 178.242107 624.846889 178.163876 
L 624.846889 176.746325 
L 621.931351 176.746325 
L 621.931351 175.483672 
L 629.368948 175.483672 
L 629.368948 178.994692 
z
" clip-path="url(#pe8203b8beb)" style="fill: #ffa600"/>
   </g>
   <g id="patch_118">
    <path d="M 623.929908 165.573374 
L 617.122965 165.573374 
L 616.048184 172.105646 
L 611.669449 172.105646 
L 617.922717 136.247319 
L 623.11568 136.247319 
L 629.368948 172.105646 
L 624.993832 172.105646 
L 623.929908 165.573374 
z
M 618.208602 158.918143 
L 622.833415 158.918143 
L 620.524627 144.654736 
L 618.208602 158.918143 
z
" clip-path="url(#pe8203b8beb)" style="fill: #008000"/>
   </g>
   <g id="patch_119">
    <path d="M 630.300501 187.442524 
L 648 187.442524 
L 648 188.378166 
L 641.632296 188.378166 
L 641.632296 192.24 
L 636.680553 192.24 
L 636.680553 188.378166 
L 630.300501 188.378166 
L 630.300501 187.442524 
z
" clip-path="url(#pe8203b8beb)" style="fill: #ff0000"/>
   </g>
   <g id="patch_120">
    <path d="M 648 186.830979 
Q 646.214977 187.136751 644.295085 187.290336 
Q 642.375193 187.442524 640.328366 187.442524 
Q 635.703172 187.442524 633.001836 186.532187 
Q 630.300501 185.621851 630.300501 184.065063 
Q 630.300501 182.490125 633.049437 181.586769 
Q 635.80234 180.683414 640.590169 180.683414 
Q 642.434694 180.683414 644.124516 180.806281 
Q 645.818305 180.927752 647.317724 181.167903 
L 647.317724 182.515257 
Q 645.770704 182.206692 644.239551 182.054504 
Q 642.708397 181.900919 641.16931 181.900919 
Q 638.321206 181.900919 636.778153 182.4622 
Q 635.235099 183.022085 635.235099 184.065063 
Q 635.235099 185.098267 636.722619 185.662341 
Q 638.210138 186.225019 640.947174 186.225019 
Q 641.692917 186.225019 642.331559 186.192905 
Q 642.970201 186.159396 643.477941 186.089585 
L 643.477941 184.824608 
L 640.562402 184.824608 
L 640.562402 183.697857 
L 648 183.697857 
L 648 186.830979 
z
" clip-path="url(#pe8203b8beb)" style="fill: #ffa600"/>
   </g>
   <g id="patch_121">
    <path d="M 648 180.143904 
Q 646.519467 180.411326 644.91853 180.546593 
Q 643.317593 180.683414 641.573954 180.683414 
Q 636.374252 180.683414 633.337376 179.669695 
Q 630.300501 178.655976 630.300501 176.922392 
Q 630.300501 175.18259 633.337376 174.170426 
Q 636.374252 173.156707 641.573954 173.156707 
Q 643.317593 173.156707 644.91853 173.293528 
Q 646.519467 173.428794 648 173.696217 
L 648 175.196583 
Q 646.506089 174.842092 645.056773 174.677285 
Q 643.607456 174.512478 642.006519 174.512478 
Q 639.134642 174.512478 637.489111 175.154604 
Q 635.848038 175.795174 635.848038 176.922392 
Q 635.848038 178.044946 637.489111 178.687072 
Q 639.134642 179.327642 642.006519 179.327642 
Q 643.607456 179.327642 645.056773 179.162835 
Q 646.506089 178.996473 648 178.641983 
L 648 180.143904 
z
" clip-path="url(#pe8203b8beb)" style="fill: #0000ff"/>
   </g>
   <g id="patch_122">
    <path d="M 642.560959 167.559537 
L 635.754017 167.559537 
L 634.679236 173.156707 
L 630.300501 173.156707 
L 636.553769 142.431539 
L 641.746732 142.431539 
L 648 173.156707 
L 643.624884 173.156707 
L 642.560959 167.559537 
z
M 636.839653 161.857009 
L 641.464466 161.857009 
L 639.155679 149.635425 
L 636.839653 161.857009 
z
" clip-path="url(#pe8203b8beb)" style="fill: #008000"/>
   </g>
   <g id="matplotlib.axis_1">
    <g id="xtick_1">
     <g id="line2d_2">
      <defs>
       <path id="mbd70c5c92c" d="M 0 0 
L 0 3.5 
" style="stroke: #000000; stroke-width: 0.8"/>
      </defs>
      <g>
       <use xlink:href="#mbd70c5c92c" x="98.84975" y="192.24" style="stroke: #000000; stroke-width: 0.8"/>
      </g>
     </g>
     <g id="text_1">
      <!-- 0 -->
      <g transform="translate(95.6685 206.838437) scale(0.1 -0.1)">
       <defs>
        <path id="DejaVuSans-30" d="M 2034 4250 
Q 1547 4250 1301 3770 
Q 1056 3291 1056 2328 
Q 1056 1369 1301 889 
Q 1547 409 2034 409 
Q 2525 409 2770 889 
Q 3016 1369 3016 2328 
Q 3016 3291 2770 3770 
Q 2525 4250 2034 4250 
z
M 2034 4750 
Q 2819 4750 3233 4129 
Q 3647 3509 3647 2328 
Q 3647 1150 3233 529 
Q 2819 -91 2034 -91 
Q 1250 -91 836 529 
Q 422 1150 422 2328 
Q 422 3509 836 4129 
Q 1250 4750 2034 4750 
z
" transform="scale(0.015625)"/>
       </defs>
       <use xlink:href="#DejaVuSans-30"/>
      </g>
     </g>
    </g>
    <g id="xtick_2">
     <g id="line2d_3">
      <g>
       <use xlink:href="#mbd70c5c92c" x="192.005008" y="192.24" style="stroke: #000000; stroke-width: 0.8"/>
      </g>
     </g>
     <g id="text_2">
      <!-- 5 -->
      <g transform="translate(188.823758 206.838437) scale(0.1 -0.1)">
       <defs>
        <path id="DejaVuSans-35" d="M 691 4666 
L 3169 4666 
L 3169 4134 
L 1269 4134 
L 1269 2991 
Q 1406 3038 1543 3061 
Q 1681 3084 1819 3084 
Q 2600 3084 3056 2656 
Q 3513 2228 3513 1497 
Q 3513 744 3044 326 
Q 2575 -91 1722 -91 
Q 1428 -91 1123 -41 
Q 819 9 494 109 
L 494 744 
Q 775 591 1075 516 
Q 1375 441 1709 441 
Q 2250 441 2565 725 
Q 2881 1009 2881 1497 
Q 2881 1984 2565 2268 
Q 2250 2553 1709 2553 
Q 1456 2553 1204 2497 
Q 953 2441 691 2322 
L 691 4666 
z
" transform="scale(0.015625)"/>
       </defs>
       <use xlink:href="#DejaVuSans-35"/>
      </g>
     </g>
    </g>
    <g id="xtick_3">
     <g id="line2d_4">
      <g>
       <use xlink:href="#mbd70c5c92c" x="285.160267" y="192.24" style="stroke: #000000; stroke-width: 0.8"/>
      </g>
     </g>
     <g id="text_3">
      <!-- 10 -->
      <g transform="translate(278.797767 206.838437) scale(0.1 -0.1)">
       <defs>
        <path id="DejaVuSans-31" d="M 794 531 
L 1825 531 
L 1825 4091 
L 703 3866 
L 703 4441 
L 1819 4666 
L 2450 4666 
L 2450 531 
L 3481 531 
L 3481 0 
L 794 0 
L 794 531 
z
" transform="scale(0.015625)"/>
       </defs>
       <use xlink:href="#DejaVuSans-31"/>
       <use xlink:href="#DejaVuSans-30" x="63.623047"/>
      </g>
     </g>
    </g>
    <g id="xtick_4">
     <g id="line2d_5">
      <g>
       <use xlink:href="#mbd70c5c92c" x="378.315526" y="192.24" style="stroke: #000000; stroke-width: 0.8"/>
      </g>
     </g>
     <g id="text_4">
      <!-- 15 -->
      <g transform="translate(371.953026 206.838437) scale(0.1 -0.1)">
       <use xlink:href="#DejaVuSans-31"/>
       <use xlink:href="#DejaVuSans-35" x="63.623047"/>
      </g>
     </g>
    </g>
    <g id="xtick_5">
     <g id="line2d_6">
      <g>
       <use xlink:href="#mbd70c5c92c" x="471.470785" y="192.24" style="stroke: #000000; stroke-width: 0.8"/>
      </g>
     </g>
     <g id="text_5">
      <!-- 20 -->
      <g transform="translate(465.108285 206.838437) scale(0.1 -0.1)">
       <defs>
        <path id="DejaVuSans-32" d="M 1228 531 
L 3431 531 
L 3431 0 
L 469 0 
L 469 531 
Q 828 903 1448 1529 
Q 2069 2156 2228 2338 
Q 2531 2678 2651 2914 
Q 2772 3150 2772 3378 
Q 2772 3750 2511 3984 
Q 2250 4219 1831 4219 
Q 1534 4219 1204 4116 
Q 875 4013 500 3803 
L 500 4441 
Q 881 4594 1212 4672 
Q 1544 4750 1819 4750 
Q 2544 4750 2975 4387 
Q 3406 4025 3406 3419 
Q 3406 3131 3298 2873 
Q 3191 2616 2906 2266 
Q 2828 2175 2409 1742 
Q 1991 1309 1228 531 
z
" transform="scale(0.015625)"/>
       </defs>
       <use xlink:href="#DejaVuSans-32"/>
       <use xlink:href="#DejaVuSans-30" x="63.623047"/>
      </g>
     </g>
    </g>
    <g id="xtick_6">
     <g id="line2d_7">
      <g>
       <use xlink:href="#mbd70c5c92c" x="564.626043" y="192.24" style="stroke: #000000; stroke-width: 0.8"/>
      </g>
     </g>
     <g id="text_6">
      <!-- 25 -->
      <g transform="translate(558.263543 206.838437) scale(0.1 -0.1)">
       <use xlink:href="#DejaVuSans-32"/>
       <use xlink:href="#DejaVuSans-35" x="63.623047"/>
      </g>
     </g>
    </g>
   </g>
   <g id="matplotlib.axis_2">
    <g id="ytick_1">
     <g id="line2d_8">
      <defs>
       <path id="m0c45cdc3fd" d="M 0 0 
L -3.5 0 
" style="stroke: #000000; stroke-width: 0.8"/>
      </defs>
      <g>
       <use xlink:href="#m0c45cdc3fd" x="90" y="192.24" style="stroke: #000000; stroke-width: 0.8"/>
      </g>
     </g>
     <g id="text_7">
      <!-- 0.0 -->
      <g transform="translate(67.096875 196.039219) scale(0.1 -0.1)">
       <defs>
        <path id="DejaVuSans-2e" d="M 684 794 
L 1344 794 
L 1344 0 
L 684 0 
L 684 794 
z
" transform="scale(0.015625)"/>
       </defs>
       <use xlink:href="#DejaVuSans-30"/>
       <use xlink:href="#DejaVuSans-2e" x="63.623047"/>
       <use xlink:href="#DejaVuSans-30" x="95.410156"/>
      </g>
     </g>
    </g>
    <g id="ytick_2">
     <g id="line2d_9">
      <g>
       <use xlink:href="#m0c45cdc3fd" x="90" y="169.696333" style="stroke: #000000; stroke-width: 0.8"/>
      </g>
     </g>
     <g id="text_8">
      <!-- 0.2 -->
      <g transform="translate(67.096875 173.495551) scale(0.1 -0.1)">
       <use xlink:href="#DejaVuSans-30"/>
       <use xlink:href="#DejaVuSans-2e" x="63.623047"/>
       <use xlink:href="#DejaVuSans-32" x="95.410156"/>
      </g>
     </g>
    </g>
    <g id="ytick_3">
     <g id="line2d_10">
      <g>
       <use xlink:href="#m0c45cdc3fd" x="90" y="147.152665" style="stroke: #000000; stroke-width: 0.8"/>
      </g>
     </g>
     <g id="text_9">
      <!-- 0.4 -->
      <g transform="translate(67.096875 150.951884) scale(0.1 -0.1)">
       <defs>
        <path id="DejaVuSans-34" d="M 2419 4116 
L 825 1625 
L 2419 1625 
L 2419 4116 
z
M 2253 4666 
L 3047 4666 
L 3047 1625 
L 3713 1625 
L 3713 1100 
L 3047 1100 
L 3047 0 
L 2419 0 
L 2419 1100 
L 313 1100 
L 313 1709 
L 2253 4666 
z
" transform="scale(0.015625)"/>
       </defs>
       <use xlink:href="#DejaVuSans-30"/>
       <use xlink:href="#DejaVuSans-2e" x="63.623047"/>
       <use xlink:href="#DejaVuSans-34" x="95.410156"/>
      </g>
     </g>
    </g>
    <g id="ytick_4">
     <g id="line2d_11">
      <g>
       <use xlink:href="#m0c45cdc3fd" x="90" y="124.608998" style="stroke: #000000; stroke-width: 0.8"/>
      </g>
     </g>
     <g id="text_10">
      <!-- 0.6 -->
      <g transform="translate(67.096875 128.408217) scale(0.1 -0.1)">
       <defs>
        <path id="DejaVuSans-36" d="M 2113 2584 
Q 1688 2584 1439 2293 
Q 1191 2003 1191 1497 
Q 1191 994 1439 701 
Q 1688 409 2113 409 
Q 2538 409 2786 701 
Q 3034 994 3034 1497 
Q 3034 2003 2786 2293 
Q 2538 2584 2113 2584 
z
M 3366 4563 
L 3366 3988 
Q 3128 4100 2886 4159 
Q 2644 4219 2406 4219 
Q 1781 4219 1451 3797 
Q 1122 3375 1075 2522 
Q 1259 2794 1537 2939 
Q 1816 3084 2150 3084 
Q 2853 3084 3261 2657 
Q 3669 2231 3669 1497 
Q 3669 778 3244 343 
Q 2819 -91 2113 -91 
Q 1303 -91 875 529 
Q 447 1150 447 2328 
Q 447 3434 972 4092 
Q 1497 4750 2381 4750 
Q 2619 4750 2861 4703 
Q 3103 4656 3366 4563 
z
" transform="scale(0.015625)"/>
       </defs>
       <use xlink:href="#DejaVuSans-30"/>
       <use xlink:href="#DejaVuSans-2e" x="63.623047"/>
       <use xlink:href="#DejaVuSans-36" x="95.410156"/>
      </g>
     </g>
    </g>
    <g id="ytick_5">
     <g id="line2d_12">
      <g>
       <use xlink:href="#m0c45cdc3fd" x="90" y="102.065331" style="stroke: #000000; stroke-width: 0.8"/>
      </g>
     </g>
     <g id="text_11">
      <!-- 0.8 -->
      <g transform="translate(67.096875 105.86455) scale(0.1 -0.1)">
       <defs>
        <path id="DejaVuSans-38" d="M 2034 2216 
Q 1584 2216 1326 1975 
Q 1069 1734 1069 1313 
Q 1069 891 1326 650 
Q 1584 409 2034 409 
Q 2484 409 2743 651 
Q 3003 894 3003 1313 
Q 3003 1734 2745 1975 
Q 2488 2216 2034 2216 
z
M 1403 2484 
Q 997 2584 770 2862 
Q 544 3141 544 3541 
Q 544 4100 942 4425 
Q 1341 4750 2034 4750 
Q 2731 4750 3128 4425 
Q 3525 4100 3525 3541 
Q 3525 3141 3298 2862 
Q 3072 2584 2669 2484 
Q 3125 2378 3379 2068 
Q 3634 1759 3634 1313 
Q 3634 634 3220 271 
Q 2806 -91 2034 -91 
Q 1263 -91 848 271 
Q 434 634 434 1313 
Q 434 1759 690 2068 
Q 947 2378 1403 2484 
z
M 1172 3481 
Q 1172 3119 1398 2916 
Q 1625 2713 2034 2713 
Q 2441 2713 2670 2916 
Q 2900 3119 2900 3481 
Q 2900 3844 2670 4047 
Q 2441 4250 2034 4250 
Q 1625 4250 1398 4047 
Q 1172 3844 1172 3481 
z
" transform="scale(0.015625)"/>
       </defs>
       <use xlink:href="#DejaVuSans-30"/>
       <use xlink:href="#DejaVuSans-2e" x="63.623047"/>
       <use xlink:href="#DejaVuSans-38" x="95.410156"/>
      </g>
     </g>
    </g>
    <g id="ytick_6">
     <g id="line2d_13">
      <g>
       <use xlink:href="#m0c45cdc3fd" x="90" y="79.521663" style="stroke: #000000; stroke-width: 0.8"/>
      </g>
     </g>
     <g id="text_12">
      <!-- 1.0 -->
      <g transform="translate(67.096875 83.320882) scale(0.1 -0.1)">
       <use xlink:href="#DejaVuSans-31"/>
       <use xlink:href="#DejaVuSans-2e" x="63.623047"/>
       <use xlink:href="#DejaVuSans-30" x="95.410156"/>
      </g>
     </g>
    </g>
    <g id="ytick_7">
     <g id="line2d_14">
      <g>
       <use xlink:href="#m0c45cdc3fd" x="90" y="56.977996" style="stroke: #000000; stroke-width: 0.8"/>
      </g>
     </g>
     <g id="text_13">
      <!-- 1.2 -->
      <g transform="translate(67.096875 60.777215) scale(0.1 -0.1)">
       <use xlink:href="#DejaVuSans-31"/>
       <use xlink:href="#DejaVuSans-2e" x="63.623047"/>
       <use xlink:href="#DejaVuSans-32" x="95.410156"/>
      </g>
     </g>
    </g>
    <g id="ytick_8">
     <g id="line2d_15">
      <g>
       <use xlink:href="#m0c45cdc3fd" x="90" y="34.434329" style="stroke: #000000; stroke-width: 0.8"/>
      </g>
     </g>
     <g id="text_14">
      <!-- 1.4 -->
      <g transform="translate(67.096875 38.233548) scale(0.1 -0.1)">
       <use xlink:href="#DejaVuSans-31"/>
       <use xlink:href="#DejaVuSans-2e" x="63.623047"/>
       <use xlink:href="#DejaVuSans-34" x="95.410156"/>
      </g>
     </g>
    </g>
   </g>
  </g>
 </g>
 <defs>
  <clipPath id="pe8203b8beb">
   <rect x="90" y="25.92" width="558" height="166.32"/>
  </clipPath>
 </defs>
</svg>
