<?xml version="1.0" encoding="utf-8" standalone="no"?>
<!DOCTYPE svg PUBLIC "-//W3C//DTD SVG 1.1//EN"
  "http://www.w3.org/Graphics/SVG/1.1/DTD/svg11.dtd">
<svg xmlns:xlink="http://www.w3.org/1999/xlink" width="720pt" height="216pt" viewBox="0 0 720 216" xmlns="http://www.w3.org/2000/svg" version="1.1">
 <metadata>
  <rdf:RDF xmlns:dc="http://purl.org/dc/elements/1.1/" xmlns:cc="http://creativecommons.org/ns#" xmlns:rdf="http://www.w3.org/1999/02/22-rdf-syntax-ns#">
   <cc:Work>
    <dc:type rdf:resource="http://purl.org/dc/dcmitype/StillImage"/>
    <dc:date>2025-12-17T10:22:24.979282</dc:date>
    <dc:format>image/svg+xml</dc:format>
    <dc:creator>
     <cc:Agent>
      <dc:title>Matplotlib v3.8.2, https://matplotlib.org/</dc:title>
     </cc:Agent>
    </dc:creator>
   </cc:Work>
  </rdf:RDF>
 </metadata>
 <defs>
  <style type="text/css">*{stroke-linejoin: round; stroke-linecap: butt}</style>
 </defs>
 <g id="figure_1">
  <g id="patch_1">
   <path d="M 0 216 
L 720 216 
L 720 0 
L 0 0 
z
" style="fill: #ffffff"/>
  </g>
  <g id="axes_1">
   <g id="patch_2">
    <path d="M 90 192.24 
L 648 192.24 
L 648 25.92 
L 90 25.92 
z
" style="fill: #ffffff"/>
   </g>
   <g id="line2d_1">
    <path d="M 90 192.24 
L 648 192.24 
" clip-path="url(#pd8df5b055d)" style="fill: none; stroke: #000000; stroke-width: 0.5; stroke-linecap: square"/>
   </g>
   <g id="patch_3">
    <path d="M 108.966011 191.935906 
Q 107.379537 192.086638 105.664042 192.162881 
Q 103.948548 192.24 102.08014 192.24 
Q 96.508366 192.24 93.254183 191.668618 
Q 90 191.097237 90 190.120104 
Q 90 189.139466 93.254183 188.568961 
Q 96.508366 187.997579 102.08014 187.997579 
Q 103.948548 187.997579 105.664042 188.074698 
Q 107.379537 188.150941 108.966011 188.301673 
L 108.966011 189.147353 
Q 107.365201 188.947545 105.812177 188.854651 
Q 104.259152 188.761758 102.543658 188.761758 
Q 99.46628 188.761758 97.703001 189.123692 
Q 95.944499 189.484749 95.944499 190.120104 
Q 95.944499 190.75283 97.703001 191.114764 
Q 99.46628 191.475821 102.543658 191.475821 
Q 104.259152 191.475821 105.812177 191.382928 
Q 107.365201 191.289158 108.966011 191.08935 
L 108.966011 191.935906 
z
" clip-path="url(#pd8df5b055d)" style="fill: #0000ff"/>
   </g>
   <g id="patch_4">
    <path d="M 90 183.135826 
L 108.966011 183.135826 
L 108.966011 184.084004 
L 102.142658 184.084004 
L 102.142658 187.997579 
L 96.836585 187.997579 
L 96.836585 184.084004 
L 90 184.084004 
L 90 183.135826 
z
" clip-path="url(#pd8df5b055d)" style="fill: #ff0000"/>
   </g>
   <g id="patch_5">
    <path d="M 108.966011 182.258873 
Q 107.053258 182.69735 104.995985 182.917589 
Q 102.938713 183.135826 100.745422 183.135826 
Q 95.789266 183.135826 92.894633 181.830407 
Q 90 180.524988 90 178.29256 
Q 90 176.034105 92.94564 174.738696 
Q 95.89553 173.443288 101.02596 173.443288 
Q 103.002471 173.443288 104.813211 173.619479 
Q 106.628201 173.793669 108.234914 174.138043 
L 108.234914 176.070144 
Q 106.577195 175.627663 104.936477 175.409426 
Q 103.29576 175.189186 101.646542 175.189186 
Q 98.594638 175.189186 96.941169 175.994061 
Q 95.2877 176.796934 95.2877 178.29256 
Q 95.2877 179.774171 96.881661 180.583051 
Q 98.475622 181.389928 101.40851 181.389928 
Q 102.207616 181.389928 102.891957 181.343878 
Q 103.576297 181.295826 104.120369 181.195717 
L 104.120369 179.381745 
L 100.996206 179.381745 
L 100.996206 177.765988 
L 108.966011 177.765988 
L 108.966011 182.258873 
z
" clip-path="url(#pd8df5b055d)" style="fill: #ffa600"/>
   </g>
   <g id="patch_6">
    <path d="M 103.137772 168.405744 
L 95.843749 168.405744 
L 94.692062 173.443288 
L 90 173.443288 
L 96.700729 145.790135 
L 102.265282 145.790135 
L 108.966011 173.443288 
L 104.277827 173.443288 
L 103.137772 168.405744 
z
M 97.00707 163.273376 
L 101.962818 163.273376 
L 99.488822 152.27375 
L 97.00707 163.273376 
z
" clip-path="url(#pd8df5b055d)" style="fill: #008000"/>
   </g>
   <g id="patch_7">
    <path d="M 128.930233 192.044833 
Q 127.343758 192.141573 125.628264 192.190505 
Q 123.912769 192.24 122.044362 192.24 
Q 116.472588 192.24 113.218405 191.873288 
Q 109.964222 191.506576 109.964222 190.879454 
Q 109.964222 190.250082 113.218405 189.883932 
Q 116.472588 189.51722 122.044362 189.51722 
Q 123.912769 189.51722 125.628264 189.566715 
Q 127.343758 189.615647 128.930233 189.712387 
L 128.930233 190.255144 
Q 127.329423 190.126907 125.776399 190.067288 
Q 124.223374 190.007669 122.50788 190.007669 
Q 119.430502 190.007669 117.667222 190.239958 
Q 115.908721 190.471684 115.908721 190.879454 
Q 115.908721 191.285537 117.667222 191.517825 
Q 119.430502 191.749551 122.50788 191.749551 
Q 124.223374 191.749551 125.776399 191.689932 
Q 127.329423 191.629751 128.930233 191.501514 
L 128.930233 192.044833 
z
" clip-path="url(#pd8df5b055d)" style="fill: #0000ff"/>
   </g>
   <g id="patch_8">
    <path d="M 128.930233 188.998713 
Q 127.017479 189.257967 124.960207 189.388185 
Q 122.902935 189.51722 120.709644 189.51722 
Q 115.753488 189.51722 112.858855 188.745379 
Q 109.964222 187.973538 109.964222 186.653594 
Q 109.964222 185.318262 112.909862 184.552339 
Q 115.859752 183.786417 120.990181 183.786417 
Q 122.966693 183.786417 124.777433 183.890592 
Q 126.592423 183.993583 128.199136 184.197198 
L 128.199136 185.33957 
Q 126.541416 185.077949 124.900699 184.948914 
Q 123.259982 184.818696 121.610764 184.818696 
Q 118.55886 184.818696 116.905391 185.294585 
Q 115.251922 185.769291 115.251922 186.653594 
Q 115.251922 187.52961 116.845883 188.007868 
Q 118.439844 188.484942 121.372732 188.484942 
Q 122.171838 188.484942 122.856178 188.457714 
Q 123.540519 188.429303 124.084591 188.370113 
L 124.084591 187.297585 
L 120.960428 187.297585 
L 120.960428 186.342253 
L 128.930233 186.342253 
L 128.930233 188.998713 
z
" clip-path="url(#pd8df5b055d)" style="fill: #ffa600"/>
   </g>
   <g id="patch_9">
    <path d="M 109.964222 174.632691 
L 128.930233 174.632691 
L 128.930233 176.417922 
L 122.106879 176.417922 
L 122.106879 183.786417 
L 116.800807 183.786417 
L 116.800807 176.417922 
L 109.964222 176.417922 
L 109.964222 174.632691 
z
" clip-path="url(#pd8df5b055d)" style="fill: #ff0000"/>
   </g>
   <g id="patch_10">
    <path d="M 123.101994 170.754398 
L 115.807971 170.754398 
L 114.656283 174.632691 
L 109.964222 174.632691 
L 116.664951 153.343146 
L 122.229503 153.343146 
L 128.930233 174.632691 
L 124.242049 174.632691 
L 123.101994 170.754398 
z
M 116.971292 166.803102 
L 121.92704 166.803102 
L 119.453044 158.334736 
L 116.971292 166.803102 
z
" clip-path="url(#pd8df5b055d)" style="fill: #008000"/>
   </g>
   <g id="patch_11">
    <path d="M 148.894454 192.078573 
Q 147.30798 192.158589 145.592486 192.199062 
Q 143.876991 192.24 142.008584 192.24 
Q 136.43681 192.24 133.182627 191.936685 
Q 129.928444 191.63337 129.928444 191.114665 
Q 129.928444 190.594098 133.182627 190.291249 
Q 136.43681 189.987934 142.008584 189.987934 
Q 143.876991 189.987934 145.592486 190.028872 
Q 147.30798 190.069345 148.894454 190.149361 
L 148.894454 190.598285 
Q 147.293645 190.492218 145.74062 190.442906 
Q 144.187596 190.393594 142.472102 190.393594 
Q 139.394724 190.393594 137.631444 190.585725 
Q 135.872943 190.77739 135.872943 191.114665 
Q 135.872943 191.450544 137.631444 191.642674 
Q 139.394724 191.83434 142.472102 191.83434 
Q 144.187596 191.83434 145.74062 191.785028 
Q 147.293645 191.735251 148.894454 191.629183 
L 148.894454 192.078573 
z
" clip-path="url(#pd8df5b055d)" style="fill: #0000ff"/>
   </g>
   <g id="patch_12">
    <path d="M 148.894454 189.628433 
Q 146.981701 189.808183 144.924429 189.898469 
Q 142.867156 189.987934 140.673866 189.987934 
Q 135.71771 189.987934 132.823077 189.452786 
Q 129.928444 188.917638 129.928444 188.00247 
Q 129.928444 187.076631 132.874084 186.545587 
Q 135.823974 186.014544 140.954403 186.014544 
Q 142.930915 186.014544 144.741655 186.086772 
Q 146.556645 186.15818 148.163358 186.299354 
L 148.163358 187.091405 
Q 146.505638 186.910013 144.864921 186.820548 
Q 143.224204 186.730263 141.574985 186.730263 
Q 138.523081 186.730263 136.869613 187.060216 
Q 135.216144 187.389348 135.216144 188.00247 
Q 135.216144 188.609846 136.810105 188.941441 
Q 138.404066 189.272215 141.336954 189.272215 
Q 142.13606 189.272215 142.8204 189.253337 
Q 143.504741 189.233638 144.048813 189.192599 
L 144.048813 188.448974 
L 140.924649 188.448974 
L 140.924649 187.786605 
L 148.894454 187.786605 
L 148.894454 189.628433 
z
" clip-path="url(#pd8df5b055d)" style="fill: #ffa600"/>
   </g>
   <g id="patch_13">
    <path d="M 129.928444 180.721471 
L 148.894454 180.721471 
L 148.894454 181.753768 
L 142.071101 181.753768 
L 142.071101 186.014544 
L 136.765029 186.014544 
L 136.765029 181.753768 
L 129.928444 181.753768 
L 129.928444 180.721471 
z
" clip-path="url(#pd8df5b055d)" style="fill: #ff0000"/>
   </g>
   <g id="patch_14">
    <path d="M 143.066216 178.900142 
L 135.772193 178.900142 
L 134.620505 180.721471 
L 129.928444 180.721471 
L 136.629173 170.723445 
L 142.193725 170.723445 
L 148.894454 180.721471 
L 144.206271 180.721471 
L 143.066216 178.900142 
z
M 136.935514 177.044529 
L 141.891262 177.044529 
L 139.417266 173.067603 
L 136.935514 177.044529 
z
" clip-path="url(#pd8df5b055d)" style="fill: #008000"/>
   </g>
   <g id="patch_15">
    <path d="M 168.858676 191.885534 
Q 166.945923 192.062767 164.888651 192.151788 
Q 162.831378 192.24 160.638088 192.24 
Q 155.681932 192.24 152.787299 191.712347 
Q 149.892665 191.184694 149.892665 190.282342 
Q 149.892665 189.36947 152.838305 188.845864 
Q 155.788196 188.322257 160.918625 188.322257 
Q 162.895137 188.322257 164.705876 188.393474 
Q 166.520867 188.463882 168.127579 188.603078 
L 168.127579 189.384037 
Q 166.46986 189.205186 164.829143 189.116974 
Q 163.188426 189.027952 161.539207 189.027952 
Q 158.487303 189.027952 156.833834 189.353285 
Q 155.180365 189.677807 155.180365 190.282342 
Q 155.180365 190.881212 156.774326 191.208163 
Q 158.368287 191.534305 161.301176 191.534305 
Q 162.100282 191.534305 162.784622 191.515691 
Q 163.468963 191.496268 164.013035 191.455804 
L 164.013035 190.722593 
L 160.888871 190.722593 
L 160.888871 190.069501 
L 168.858676 190.069501 
L 168.858676 191.885534 
z
" clip-path="url(#pd8df5b055d)" style="fill: #ffa600"/>
   </g>
   <g id="patch_16">
    <path d="M 168.858676 188.035492 
Q 167.272202 188.177635 165.556708 188.249533 
Q 163.841213 188.322257 161.972805 188.322257 
Q 156.401032 188.322257 153.146849 187.783437 
Q 149.892665 187.244616 149.892665 186.323168 
Q 149.892665 185.398413 153.146849 184.860419 
Q 156.401032 184.321599 161.972805 184.321599 
Q 163.841213 184.321599 165.556708 184.394323 
Q 167.272202 184.466221 168.858676 184.608364 
L 168.858676 185.405851 
Q 167.257867 185.217429 165.704842 185.129829 
Q 164.151818 185.04223 162.436323 185.04223 
Q 159.358946 185.04223 157.595666 185.383538 
Q 155.837165 185.724019 155.837165 186.323168 
Q 155.837165 186.919837 157.595666 187.261145 
Q 159.358946 187.601626 162.436323 187.601626 
Q 164.151818 187.601626 165.704842 187.514027 
Q 167.257867 187.4256 168.858676 187.237179 
L 168.858676 188.035492 
z
" clip-path="url(#pd8df5b055d)" style="fill: #0000ff"/>
   </g>
   <g id="patch_17">
    <path d="M 149.892665 177.75057 
L 168.858676 177.75057 
L 168.858676 179.032103 
L 162.035323 179.032103 
L 162.035323 184.321599 
L 156.729251 184.321599 
L 156.729251 179.032103 
L 149.892665 179.032103 
L 149.892665 177.75057 
z
" clip-path="url(#pd8df5b055d)" style="fill: #ff0000"/>
   </g>
   <g id="patch_18">
    <path d="M 163.030438 174.72588 
L 155.736415 174.72588 
L 154.584727 177.75057 
L 149.892665 177.75057 
L 156.593395 161.146802 
L 162.157947 161.146802 
L 168.858676 177.75057 
L 164.170492 177.75057 
L 163.030438 174.72588 
z
M 156.899736 171.644255 
L 161.855484 171.644255 
L 159.381487 165.039755 
L 156.899736 171.644255 
z
" clip-path="url(#pd8df5b055d)" style="fill: #008000"/>
   </g>
   <g id="patch_19">
    <path d="M 188.822898 191.630585 
Q 186.910145 191.935293 184.852872 192.088342 
Q 182.7956 192.24 180.60231 192.24 
Q 175.646154 192.24 172.75152 191.332834 
Q 169.856887 190.425669 169.856887 188.874305 
Q 169.856887 187.304853 172.802527 186.404644 
Q 175.752418 185.504435 180.882847 185.504435 
Q 182.859359 185.504435 184.670098 185.626875 
Q 186.485089 185.747923 188.091801 185.987236 
L 188.091801 187.329897 
Q 186.434082 187.022407 184.793365 186.870749 
Q 183.152647 186.717699 181.503429 186.717699 
Q 178.451525 186.717699 176.798056 187.277025 
Q 175.144587 187.83496 175.144587 188.874305 
Q 175.144587 189.90391 176.738548 190.466018 
Q 178.332509 191.026736 181.265398 191.026736 
Q 182.064503 191.026736 182.748844 190.994734 
Q 183.433185 190.961342 183.977257 190.891774 
L 183.977257 189.631203 
L 180.853093 189.631203 
L 180.853093 188.508377 
L 188.822898 188.508377 
L 188.822898 191.630585 
z
" clip-path="url(#pd8df5b055d)" style="fill: #ffa600"/>
   </g>
   <g id="patch_20">
    <path d="M 188.822898 184.991459 
Q 187.236424 185.24573 185.520929 185.374343 
Q 183.805435 185.504435 181.937027 185.504435 
Q 176.365254 185.504435 173.111071 184.540572 
Q 169.856887 183.576708 169.856887 181.928384 
Q 169.856887 180.274146 173.111071 179.311761 
Q 176.365254 178.347898 181.937027 178.347898 
Q 183.805435 178.347898 185.520929 178.47799 
Q 187.236424 178.606603 188.822898 178.860874 
L 188.822898 180.287451 
Q 187.222088 179.950394 185.669064 179.793693 
Q 184.11604 179.636991 182.400545 179.636991 
Q 179.323168 179.636991 177.559888 180.247536 
Q 175.801387 180.856603 175.801387 181.928384 
Q 175.801387 182.995729 177.559888 183.606275 
Q 179.323168 184.215342 182.400545 184.215342 
Q 184.11604 184.215342 185.669064 184.05864 
Q 187.222088 183.90046 188.822898 183.563404 
L 188.822898 184.991459 
z
" clip-path="url(#pd8df5b055d)" style="fill: #0000ff"/>
   </g>
   <g id="patch_21">
    <path d="M 169.856887 170.770387 
L 188.822898 170.770387 
L 188.822898 172.248213 
L 181.999545 172.248213 
L 181.999545 178.347898 
L 176.693473 178.347898 
L 176.693473 172.248213 
L 169.856887 172.248213 
L 169.856887 170.770387 
z
" clip-path="url(#pd8df5b055d)" style="fill: #ff0000"/>
   </g>
   <g id="patch_22">
    <path d="M 182.99466 160.302455 
L 175.700637 160.302455 
L 174.548949 170.770387 
L 169.856887 170.770387 
L 176.557617 113.3076 
L 182.122169 113.3076 
L 188.822898 170.770387 
L 184.134714 170.770387 
L 182.99466 160.302455 
z
M 176.863958 149.63748 
L 181.819705 149.63748 
L 179.345709 126.780444 
L 176.863958 149.63748 
z
" clip-path="url(#pd8df5b055d)" style="fill: #008000"/>
   </g>
   <g id="patch_23">
    <path d="M 208.78712 191.920183 
Q 207.200646 192.078709 205.485151 192.158894 
Q 203.769657 192.24 201.901249 192.24 
Q 196.329476 192.24 193.075292 191.639075 
Q 189.821109 191.038151 189.821109 190.010496 
Q 189.821109 188.979155 193.075292 188.379152 
Q 196.329476 187.778227 201.901249 187.778227 
Q 203.769657 187.778227 205.485151 187.859334 
Q 207.200646 187.939518 208.78712 188.098045 
L 208.78712 188.98745 
Q 207.18631 188.77731 205.633286 188.679614 
Q 204.080262 188.581918 202.364767 188.581918 
Q 199.28739 188.581918 197.52411 188.962565 
Q 195.765608 189.34229 195.765608 190.010496 
Q 195.765608 190.675937 197.52411 191.056584 
Q 199.28739 191.436309 202.364767 191.436309 
Q 204.080262 191.436309 205.633286 191.338613 
Q 207.18631 191.239995 208.78712 191.029856 
L 208.78712 191.920183 
z
" clip-path="url(#pd8df5b055d)" style="fill: #0000ff"/>
   </g>
   <g id="patch_24">
    <path d="M 208.78712 187.355762 
Q 206.874367 187.566995 204.817094 187.673093 
Q 202.759822 187.778227 200.566532 187.778227 
Q 195.610376 187.778227 192.715742 187.149353 
Q 189.821109 186.520478 189.821109 185.445026 
Q 189.821109 184.357034 192.766749 183.732982 
Q 195.71664 183.10893 200.847069 183.10893 
Q 202.82358 183.10893 204.63432 183.193809 
Q 206.44931 183.277723 208.056023 183.443623 
L 208.056023 184.374396 
Q 206.398304 184.161234 204.757586 184.0561 
Q 203.116869 183.950002 201.467651 183.950002 
Q 198.415747 183.950002 196.762278 184.337743 
Q 195.108809 184.724521 195.108809 185.445026 
Q 195.108809 186.158779 196.70277 186.54845 
Q 198.296731 186.937156 201.229619 186.937156 
Q 202.028725 186.937156 202.713066 186.914972 
Q 203.397406 186.891823 203.941478 186.843596 
L 203.941478 185.969731 
L 200.817315 185.969731 
L 200.817315 185.191354 
L 208.78712 185.191354 
L 208.78712 187.355762 
z
" clip-path="url(#pd8df5b055d)" style="fill: #ffa600"/>
   </g>
   <g id="patch_25">
    <path d="M 189.821109 175.638055 
L 208.78712 175.638055 
L 208.78712 177.095084 
L 201.963767 177.095084 
L 201.963767 183.10893 
L 196.657694 183.10893 
L 196.657694 177.095084 
L 189.821109 177.095084 
L 189.821109 175.638055 
z
" clip-path="url(#pd8df5b055d)" style="fill: #ff0000"/>
   </g>
   <g id="patch_26">
    <path d="M 202.958881 171.574074 
L 195.664858 171.574074 
L 194.513171 175.638055 
L 189.821109 175.638055 
L 196.521838 153.329192 
L 202.086391 153.329192 
L 208.78712 175.638055 
L 204.098936 175.638055 
L 202.958881 171.574074 
z
M 196.82818 167.433595 
L 201.783927 167.433595 
L 199.309931 158.559774 
L 196.82818 167.433595 
z
" clip-path="url(#pd8df5b055d)" style="fill: #008000"/>
   </g>
   <g id="patch_27">
    <path d="M 228.751342 191.971654 
Q 227.164868 192.104667 225.449373 192.171947 
Q 223.733879 192.24 221.865471 192.24 
Q 216.293697 192.24 213.039514 191.735788 
Q 209.785331 191.231575 209.785331 190.36931 
Q 209.785331 189.503952 213.039514 189.000513 
Q 216.293697 188.496301 221.865471 188.496301 
Q 223.733879 188.496301 225.449373 188.564354 
Q 227.164868 188.631634 228.751342 188.764647 
L 228.751342 189.510912 
Q 227.150532 189.334592 225.597508 189.252619 
Q 224.044483 189.170646 222.328989 189.170646 
Q 219.251611 189.170646 217.488332 189.490032 
Q 215.72983 189.808645 215.72983 190.36931 
Q 215.72983 190.927656 217.488332 191.247042 
Q 219.251611 191.565655 222.328989 191.565655 
Q 224.044483 191.565655 225.597508 191.483681 
Q 227.150532 191.400935 228.751342 191.224615 
L 228.751342 191.971654 
z
" clip-path="url(#pd8df5b055d)" style="fill: #0000ff"/>
   </g>
   <g id="patch_28">
    <path d="M 228.751342 187.843952 
Q 226.838588 188.170127 224.781316 188.333958 
Q 222.724044 188.496301 220.530753 188.496301 
Q 215.574597 188.496301 212.679964 187.525225 
Q 209.785331 186.554149 209.785331 184.893491 
Q 209.785331 183.213471 212.730971 182.249842 
Q 215.680861 181.286213 220.811291 181.286213 
Q 222.787802 181.286213 224.598542 181.417279 
Q 226.413532 181.546855 228.020245 181.803028 
L 228.020245 183.240279 
Q 226.362525 182.911126 224.721808 182.748784 
Q 223.081091 182.584952 221.431873 182.584952 
Q 218.379969 182.584952 216.7265 183.183683 
Q 215.073031 183.780924 215.073031 184.893491 
Q 215.073031 185.995632 216.666992 186.597341 
Q 218.260953 187.197562 221.193841 187.197562 
Q 221.992947 187.197562 222.677288 187.163306 
Q 223.361628 187.127561 223.9057 187.053092 
L 223.9057 185.703714 
L 220.781537 185.703714 
L 220.781537 184.501784 
L 228.751342 184.501784 
L 228.751342 187.843952 
z
" clip-path="url(#pd8df5b055d)" style="fill: #ffa600"/>
   </g>
   <g id="patch_29">
    <path d="M 209.785331 172.68957 
L 228.751342 172.68957 
L 228.751342 174.366155 
L 221.927989 174.366155 
L 221.927989 181.286213 
L 216.621916 181.286213 
L 216.621916 174.366155 
L 209.785331 174.366155 
L 209.785331 172.68957 
z
" clip-path="url(#pd8df5b055d)" style="fill: #ff0000"/>
   </g>
   <g id="patch_30">
    <path d="M 222.923103 166.779029 
L 215.62908 166.779029 
L 214.477392 172.68957 
L 209.785331 172.68957 
L 216.48606 140.244176 
L 222.050612 140.244176 
L 228.751342 172.68957 
L 224.063158 172.68957 
L 222.923103 166.779029 
z
M 216.792401 160.757231 
L 221.748149 160.757231 
L 219.274153 147.85139 
L 216.792401 160.757231 
z
" clip-path="url(#pd8df5b055d)" style="fill: #008000"/>
   </g>
   <g id="patch_31">
    <path d="M 248.715564 192.014156 
Q 246.80281 192.127078 244.745538 192.183797 
Q 242.688266 192.24 240.494975 192.24 
Q 235.538819 192.24 232.644186 191.903812 
Q 229.749553 191.567623 229.749553 190.9927 
Q 229.749553 190.411073 232.695193 190.077463 
Q 235.645083 189.743853 240.775512 189.743853 
Q 242.752024 189.743853 244.562764 189.789228 
Q 246.377754 189.834087 247.984467 189.922775 
L 247.984467 190.420355 
Q 246.326747 190.306401 244.68603 190.250198 
Q 243.045313 190.193479 241.396095 190.193479 
Q 238.344191 190.193479 236.690722 190.400761 
Q 235.037253 190.607527 235.037253 190.9927 
Q 235.037253 191.374263 236.631214 191.582576 
Q 238.225175 191.790374 241.158063 191.790374 
Q 241.957169 191.790374 242.641509 191.778514 
Q 243.32585 191.766139 243.869922 191.740358 
L 243.869922 191.273201 
L 240.745758 191.273201 
L 240.745758 190.85709 
L 248.715564 190.85709 
L 248.715564 192.014156 
z
" clip-path="url(#pd8df5b055d)" style="fill: #ffa600"/>
   </g>
   <g id="patch_32">
    <path d="M 248.715564 189.456493 
Q 247.129089 189.598931 245.413595 189.670978 
Q 243.6981 189.743853 241.829693 189.743853 
Q 236.257919 189.743853 233.003736 189.203914 
Q 229.749553 188.663975 229.749553 187.740613 
Q 229.749553 186.813939 233.003736 186.274828 
Q 236.257919 185.734889 241.829693 185.734889 
Q 243.6981 185.734889 245.413595 185.807764 
Q 247.129089 185.879811 248.715564 186.022249 
L 248.715564 186.821392 
Q 247.114754 186.632579 245.56173 186.544798 
Q 244.008705 186.457016 242.293211 186.457016 
Q 239.215833 186.457016 237.452553 186.799033 
Q 235.694052 187.140221 235.694052 187.740613 
Q 235.694052 188.338521 237.452553 188.680538 
Q 239.215833 189.021726 242.293211 189.021726 
Q 244.008705 189.021726 245.56173 188.933944 
Q 247.114754 188.845335 248.715564 188.656522 
L 248.715564 189.456493 
z
" clip-path="url(#pd8df5b055d)" style="fill: #0000ff"/>
   </g>
   <g id="patch_33">
    <path d="M 242.887325 184.191596 
L 235.593302 184.191596 
L 234.441614 185.734889 
L 229.749553 185.734889 
L 236.450282 177.263117 
L 242.014834 177.263117 
L 248.715564 185.734889 
L 244.02738 185.734889 
L 242.887325 184.191596 
z
M 236.756623 182.619252 
L 241.712371 182.619252 
L 239.238375 179.249426 
L 236.756623 182.619252 
z
" clip-path="url(#pd8df5b055d)" style="fill: #008000"/>
   </g>
   <g id="patch_34">
    <path d="M 229.749553 163.874691 
L 248.715564 163.874691 
L 248.715564 166.485807 
L 241.89221 166.485807 
L 241.89221 177.263117 
L 236.586138 177.263117 
L 236.586138 166.485807 
L 229.749553 166.485807 
L 229.749553 163.874691 
z
" clip-path="url(#pd8df5b055d)" style="fill: #ff0000"/>
   </g>
   <g id="patch_35">
    <path d="M 268.679785 192.021414 
Q 267.093311 192.129762 265.377817 192.184566 
Q 263.662322 192.24 261.793914 192.24 
Q 256.222141 192.24 252.967958 191.829285 
Q 249.713775 191.418571 249.713775 190.716198 
Q 249.713775 190.011306 252.967958 189.601221 
Q 256.222141 189.190506 261.793914 189.190506 
Q 263.662322 189.190506 265.377817 189.24594 
Q 267.093311 189.300744 268.679785 189.409092 
L 268.679785 190.016975 
Q 267.078976 189.873351 265.525951 189.806578 
Q 263.972927 189.739805 262.257432 189.739805 
Q 259.180055 189.739805 257.416775 189.999967 
Q 255.658274 190.259498 255.658274 190.716198 
Q 255.658274 191.171008 257.416775 191.431169 
Q 259.180055 191.690701 262.257432 191.690701 
Q 263.972927 191.690701 265.525951 191.623928 
Q 267.078976 191.556525 268.679785 191.412901 
L 268.679785 192.021414 
z
" clip-path="url(#pd8df5b055d)" style="fill: #0000ff"/>
   </g>
   <g id="patch_36">
    <path d="M 268.679785 188.601899 
Q 266.767032 188.896202 264.70976 189.044026 
Q 262.652487 189.190506 260.459197 189.190506 
Q 255.503041 189.190506 252.608408 188.314315 
Q 249.713775 187.438123 249.713775 185.939728 
Q 249.713775 184.423863 252.659415 183.554391 
Q 255.609305 182.684919 260.739734 182.684919 
Q 262.716246 182.684919 264.526986 182.803178 
Q 266.341976 182.920093 267.948689 183.151235 
L 267.948689 184.448053 
Q 266.290969 184.151061 264.650252 184.004581 
Q 263.009535 183.856758 261.360316 183.856758 
Q 258.308412 183.856758 256.654943 184.396986 
Q 255.001475 184.935871 255.001475 185.939728 
Q 255.001475 186.934179 256.595436 187.477095 
Q 258.189397 188.018667 261.122285 188.018667 
Q 261.921391 188.018667 262.605731 187.987759 
Q 263.290072 187.955506 263.834144 187.888313 
L 263.834144 186.670784 
L 260.70998 186.670784 
L 260.70998 185.586295 
L 268.679785 185.586295 
L 268.679785 188.601899 
z
" clip-path="url(#pd8df5b055d)" style="fill: #ffa600"/>
   </g>
   <g id="patch_37">
    <path d="M 249.713775 175.467783 
L 268.679785 175.467783 
L 268.679785 176.875326 
L 261.856432 176.875326 
L 261.856432 182.684919 
L 256.55036 182.684919 
L 256.55036 176.875326 
L 249.713775 176.875326 
L 249.713775 175.467783 
z
" clip-path="url(#pd8df5b055d)" style="fill: #ff0000"/>
   </g>
   <g id="patch_38">
    <path d="M 262.851547 171.579123 
L 255.557524 171.579123 
L 254.405836 175.467783 
L 249.713775 175.467783 
L 256.414504 154.121325 
L 261.979056 154.121325 
L 268.679785 175.467783 
L 263.991602 175.467783 
L 262.851547 171.579123 
z
M 256.720845 167.617264 
L 261.676593 167.617264 
L 259.202597 159.12626 
L 256.720845 167.617264 
z
" clip-path="url(#pd8df5b055d)" style="fill: #008000"/>
   </g>
   <g id="patch_39">
    <path d="M 288.644007 191.87061 
Q 287.057533 192.053708 285.342039 192.146322 
Q 283.626544 192.24 281.758136 192.24 
Q 276.186363 192.24 272.93218 191.545929 
Q 269.677996 190.851859 269.677996 189.664913 
Q 269.677996 188.473709 272.93218 187.780702 
Q 276.186363 187.086632 281.758136 187.086632 
Q 283.626544 187.086632 285.342039 187.18031 
Q 287.057533 187.272924 288.644007 187.456022 
L 288.644007 188.483289 
Q 287.043197 188.240577 285.490173 188.127738 
Q 283.937149 188.014898 282.221654 188.014898 
Q 279.144277 188.014898 277.380997 188.454547 
Q 275.622496 188.893132 275.622496 189.664913 
Q 275.622496 190.4335 277.380997 190.873149 
Q 279.144277 191.311734 282.221654 191.311734 
Q 283.937149 191.311734 285.490173 191.198894 
Q 287.043197 191.08499 288.644007 190.842278 
L 288.644007 191.87061 
z
" clip-path="url(#pd8df5b055d)" style="fill: #0000ff"/>
   </g>
   <g id="patch_40">
    <path d="M 269.677996 180.501772 
L 288.644007 180.501772 
L 288.644007 181.786003 
L 281.820654 181.786003 
L 281.820654 187.086632 
L 276.514582 187.086632 
L 276.514582 181.786003 
L 269.677996 181.786003 
L 269.677996 180.501772 
z
" clip-path="url(#pd8df5b055d)" style="fill: #ff0000"/>
   </g>
   <g id="patch_41">
    <path d="M 288.644007 179.815331 
Q 286.731254 180.158552 284.673982 180.330946 
Q 282.616709 180.501772 280.423419 180.501772 
Q 275.467263 180.501772 272.57263 179.479946 
Q 269.677996 178.45812 269.677996 176.710672 
Q 269.677996 174.942849 272.623636 173.928859 
Q 275.573527 172.914869 280.703956 172.914869 
Q 282.680468 172.914869 284.491207 173.052784 
Q 286.306198 173.189132 287.91291 173.458694 
L 287.91291 174.971059 
Q 286.255191 174.624704 284.614474 174.453877 
Q 282.973757 174.281483 281.324538 174.281483 
Q 278.272634 174.281483 276.619165 174.911505 
Q 274.965696 175.53996 274.965696 176.710672 
Q 274.965696 177.870413 276.559657 178.503569 
Q 278.153618 179.135158 281.086507 179.135158 
Q 281.885612 179.135158 282.569953 179.099112 
Q 283.254294 179.061499 283.798366 178.983138 
L 283.798366 177.563238 
L 280.674202 177.563238 
L 280.674202 176.298493 
L 288.644007 176.298493 
L 288.644007 179.815331 
z
" clip-path="url(#pd8df5b055d)" style="fill: #ffa600"/>
   </g>
   <g id="patch_42">
    <path d="M 282.815769 166.656314 
L 275.521746 166.656314 
L 274.370058 172.914869 
L 269.677996 172.914869 
L 276.378726 138.559081 
L 281.943278 138.559081 
L 288.644007 172.914869 
L 283.955823 172.914869 
L 282.815769 166.656314 
z
M 276.685067 160.27995 
L 281.640814 160.27995 
L 279.166818 146.61421 
L 276.685067 160.27995 
z
" clip-path="url(#pd8df5b055d)" style="fill: #008000"/>
   </g>
   <g id="patch_43">
    <path d="M 308.608229 192.06699 
Q 306.695476 192.153495 304.638203 192.196945 
Q 302.580931 192.24 300.387641 192.24 
Q 295.431485 192.24 292.536851 191.98246 
Q 289.642218 191.724921 289.642218 191.284496 
Q 289.642218 190.838937 292.587858 190.583372 
Q 295.537749 190.327807 300.668178 190.327807 
Q 302.64469 190.327807 304.455429 190.362567 
Q 306.270419 190.396932 307.877132 190.464872 
L 307.877132 190.846047 
Q 306.219413 190.758752 304.578696 190.715697 
Q 302.937978 190.672247 301.28876 190.672247 
Q 298.236856 190.672247 296.583387 190.831037 
Q 294.929918 190.989431 294.929918 191.284496 
Q 294.929918 191.576796 296.523879 191.736376 
Q 298.11784 191.89556 301.050729 191.89556 
Q 301.849834 191.89556 302.534175 191.886475 
Q 303.218515 191.876995 303.762588 191.857245 
L 303.762588 191.499376 
L 300.638424 191.499376 
L 300.638424 191.180611 
L 308.608229 191.180611 
L 308.608229 192.06699 
z
" clip-path="url(#pd8df5b055d)" style="fill: #ffa600"/>
   </g>
   <g id="patch_44">
    <path d="M 308.608229 189.960474 
Q 307.021755 190.142552 305.30626 190.234651 
Q 303.590766 190.327807 301.722358 190.327807 
Q 296.150585 190.327807 292.896401 189.637601 
Q 289.642218 188.947395 289.642218 187.767057 
Q 289.642218 186.582485 292.896401 185.893337 
Q 296.150585 185.203131 301.722358 185.203131 
Q 303.590766 185.203131 305.30626 185.296287 
Q 307.021755 185.388386 308.608229 185.570465 
L 308.608229 186.592012 
Q 307.007419 186.350652 305.454395 186.23844 
Q 303.901371 186.126229 302.185876 186.126229 
Q 299.108499 186.126229 297.345219 186.56343 
Q 295.586717 186.999573 295.586717 187.767057 
Q 295.586717 188.531365 297.345219 188.968566 
Q 299.108499 189.404709 302.185876 189.404709 
Q 303.901371 189.404709 305.454395 189.292498 
Q 307.007419 189.179228 308.608229 188.937867 
L 308.608229 189.960474 
z
" clip-path="url(#pd8df5b055d)" style="fill: #0000ff"/>
   </g>
   <g id="patch_45">
    <path d="M 289.642218 176.86597 
L 308.608229 176.86597 
L 308.608229 178.491949 
L 301.784876 178.491949 
L 301.784876 185.203131 
L 296.478804 185.203131 
L 296.478804 178.491949 
L 289.642218 178.491949 
L 289.642218 176.86597 
z
" clip-path="url(#pd8df5b055d)" style="fill: #ff0000"/>
   </g>
   <g id="patch_46">
    <path d="M 302.779991 174.44151 
L 295.485968 174.44151 
L 294.33428 176.86597 
L 289.642218 176.86597 
L 296.342947 163.557109 
L 301.9075 163.557109 
L 308.608229 176.86597 
L 303.920045 176.86597 
L 302.779991 174.44151 
z
M 296.649289 171.971413 
L 301.605036 171.971413 
L 299.13104 166.677532 
L 296.649289 171.971413 
z
" clip-path="url(#pd8df5b055d)" style="fill: #008000"/>
   </g>
   <g id="patch_47">
    <path d="M 328.572451 192.120822 
Q 326.985977 192.179896 325.270482 192.209776 
Q 323.554988 192.24 321.68658 192.24 
Q 316.114807 192.24 312.860623 192.016068 
Q 309.60644 191.792137 309.60644 191.409186 
Q 309.60644 191.024861 312.860623 190.801273 
Q 316.114807 190.577341 321.68658 190.577341 
Q 323.554988 190.577341 325.270482 190.607565 
Q 326.985977 190.637446 328.572451 190.69652 
L 328.572451 191.027952 
Q 326.971641 190.949645 325.418617 190.913239 
Q 323.865593 190.876833 322.150098 190.876833 
Q 319.072721 190.876833 317.309441 191.018679 
Q 315.550939 191.160182 315.550939 191.409186 
Q 315.550939 191.657159 317.309441 191.799006 
Q 319.072721 191.940509 322.150098 191.940509 
Q 323.865593 191.940509 325.418617 191.904102 
Q 326.971641 191.867353 328.572451 191.789046 
L 328.572451 192.120822 
z
" clip-path="url(#pd8df5b055d)" style="fill: #0000ff"/>
   </g>
   <g id="patch_48">
    <path d="M 328.572451 190.39001 
Q 326.659698 190.483676 324.602425 190.530722 
Q 322.545153 190.577341 320.351863 190.577341 
Q 315.395706 190.577341 312.501073 190.298483 
Q 309.60644 190.019625 309.60644 189.542743 
Q 309.60644 189.060301 312.55208 188.783581 
Q 315.501971 188.506861 320.6324 188.506861 
Q 322.608911 188.506861 324.419651 188.544498 
Q 326.234641 188.581708 327.841354 188.655272 
L 327.841354 189.067999 
Q 326.183635 188.973478 324.542917 188.926859 
Q 322.9022 188.879813 321.252982 188.879813 
Q 318.201078 188.879813 316.547609 189.051747 
Q 314.89414 189.223253 314.89414 189.542743 
Q 314.89414 189.859238 316.488101 190.032028 
Q 318.082062 190.20439 321.01495 190.20439 
Q 321.814056 190.20439 322.498397 190.194553 
Q 323.182737 190.184288 323.726809 190.162903 
L 323.726809 189.77541 
L 320.602646 189.77541 
L 320.602646 189.430258 
L 328.572451 189.430258 
L 328.572451 190.39001 
z
" clip-path="url(#pd8df5b055d)" style="fill: #ffa600"/>
   </g>
   <g id="patch_49">
    <path d="M 322.744212 187.861088 
L 315.450189 187.861088 
L 314.298502 188.506861 
L 309.60644 188.506861 
L 316.307169 184.961947 
L 321.871722 184.961947 
L 328.572451 188.506861 
L 323.884267 188.506861 
L 322.744212 187.861088 
z
M 316.61351 187.203159 
L 321.569258 187.203159 
L 319.095262 185.793095 
L 316.61351 187.203159 
z
" clip-path="url(#pd8df5b055d)" style="fill: #008000"/>
   </g>
   <g id="patch_50">
    <path d="M 309.60644 180.475906 
L 328.572451 180.475906 
L 328.572451 181.350809 
L 321.749098 181.350809 
L 321.749098 184.961947 
L 316.443025 184.961947 
L 316.443025 181.350809 
L 309.60644 181.350809 
L 309.60644 180.475906 
z
" clip-path="url(#pd8df5b055d)" style="fill: #ff0000"/>
   </g>
   <g id="patch_51">
    <path d="M 348.536673 192.103979 
Q 346.950199 192.171401 345.234704 192.205505 
Q 343.519209 192.24 341.650802 192.24 
Q 336.079028 192.24 332.824845 191.984421 
Q 329.570662 191.728842 329.570662 191.29177 
Q 329.570662 190.85313 332.824845 190.597943 
Q 336.079028 190.342364 341.650802 190.342364 
Q 343.519209 190.342364 345.234704 190.376859 
Q 346.950199 190.410962 348.536673 190.478385 
L 348.536673 190.856658 
Q 346.935863 190.767284 345.382839 190.725732 
Q 343.829814 190.684181 342.11432 190.684181 
Q 339.036942 190.684181 337.273662 190.846074 
Q 335.515161 191.007575 335.515161 191.29177 
Q 335.515161 191.574788 337.273662 191.736681 
Q 339.036942 191.898182 342.11432 191.898182 
Q 343.829814 191.898182 345.382839 191.856631 
Q 346.935863 191.814688 348.536673 191.725314 
L 348.536673 192.103979 
z
" clip-path="url(#pd8df5b055d)" style="fill: #0000ff"/>
   </g>
   <g id="patch_52">
    <path d="M 329.570662 184.877171 
L 348.536673 184.877171 
L 348.536673 185.943036 
L 341.713319 185.943036 
L 341.713319 190.342364 
L 336.407247 190.342364 
L 336.407247 185.943036 
L 329.570662 185.943036 
L 329.570662 184.877171 
z
" clip-path="url(#pd8df5b055d)" style="fill: #ff0000"/>
   </g>
   <g id="patch_53">
    <path d="M 348.536673 184.183532 
Q 346.623919 184.530351 344.566647 184.704553 
Q 342.509375 184.877171 340.316084 184.877171 
Q 335.359928 184.877171 332.465295 183.844631 
Q 329.570662 182.812091 329.570662 181.046321 
Q 329.570662 179.259963 332.516302 178.235342 
Q 335.466192 177.21072 340.596622 177.21072 
Q 342.573133 177.21072 344.383873 177.350081 
Q 346.198863 177.487859 347.805576 177.760247 
L 347.805576 179.288469 
Q 346.147856 178.938482 344.507139 178.765864 
Q 342.866422 178.591663 341.217204 178.591663 
Q 338.1653 178.591663 336.511831 179.22829 
Q 334.858362 179.863334 334.858362 181.046321 
Q 334.858362 182.218222 336.452323 182.858017 
Q 338.046284 183.496228 340.979172 183.496228 
Q 341.778278 183.496228 342.462619 183.459804 
Q 343.146959 183.421796 343.691031 183.342614 
L 343.691031 181.907827 
L 340.566868 181.907827 
L 340.566868 180.629821 
L 348.536673 180.629821 
L 348.536673 184.183532 
z
" clip-path="url(#pd8df5b055d)" style="fill: #ffa600"/>
   </g>
   <g id="patch_54">
    <path d="M 342.708434 174.763233 
L 335.414411 174.763233 
L 334.262723 177.21072 
L 329.570662 177.21072 
L 336.271391 163.775454 
L 341.835943 163.775454 
L 348.536673 177.21072 
L 343.848489 177.21072 
L 342.708434 174.763233 
z
M 336.577732 172.269675 
L 341.53348 172.269675 
L 339.059484 166.925514 
L 336.577732 172.269675 
z
" clip-path="url(#pd8df5b055d)" style="fill: #008000"/>
   </g>
   <g id="patch_55">
    <path d="M 368.500894 192.104378 
Q 366.91442 192.171603 365.198926 192.205606 
Q 363.483431 192.24 361.615024 192.24 
Q 356.04325 192.24 352.789067 191.985171 
Q 349.534884 191.730342 349.534884 191.294553 
Q 349.534884 190.8572 352.789067 190.602762 
Q 356.04325 190.347933 361.615024 190.347933 
Q 363.483431 190.347933 365.198926 190.382327 
Q 366.91442 190.41633 368.500894 190.483555 
L 368.500894 190.860718 
Q 366.900085 190.771606 365.34706 190.730177 
Q 363.794036 190.688747 362.078542 190.688747 
Q 359.001164 190.688747 357.237884 190.850165 
Q 355.479383 191.011192 355.479383 191.294553 
Q 355.479383 191.576741 357.237884 191.738159 
Q 359.001164 191.899186 362.078542 191.899186 
Q 363.794036 191.899186 365.34706 191.857756 
Q 366.900085 191.815936 368.500894 191.726824 
L 368.500894 192.104378 
z
" clip-path="url(#pd8df5b055d)" style="fill: #0000ff"/>
   </g>
   <g id="patch_56">
    <path d="M 368.500894 190.071696 
Q 366.588141 190.209815 364.530869 190.279189 
Q 362.473597 190.347933 360.280306 190.347933 
Q 355.32415 190.347933 352.429517 189.936731 
Q 349.534884 189.52553 349.534884 188.822325 
Q 349.534884 188.110921 352.480524 187.702873 
Q 355.430414 187.294825 360.560843 187.294825 
Q 362.537355 187.294825 364.348095 187.350324 
Q 366.163085 187.405193 367.769798 187.51367 
L 367.769798 188.122273 
Q 366.112078 187.982894 364.471361 187.91415 
Q 362.830644 187.844775 361.181425 187.844775 
Q 358.129521 187.844775 356.476053 188.098308 
Q 354.822584 188.351209 354.822584 188.822325 
Q 354.822584 189.289026 356.416545 189.54382 
Q 358.010506 189.797983 360.943394 189.797983 
Q 361.7425 189.797983 362.42684 189.783477 
Q 363.111181 189.768341 363.655253 189.736807 
L 363.655253 189.165413 
L 360.531089 189.165413 
L 360.531089 188.656457 
L 368.500894 188.656457 
L 368.500894 190.071696 
z
" clip-path="url(#pd8df5b055d)" style="fill: #ffa600"/>
   </g>
   <g id="patch_57">
    <path d="M 349.534884 182.951671 
L 368.500894 182.951671 
L 368.500894 183.798707 
L 361.677541 183.798707 
L 361.677541 187.294825 
L 356.371469 187.294825 
L 356.371469 183.798707 
L 349.534884 183.798707 
L 349.534884 182.951671 
z
" clip-path="url(#pd8df5b055d)" style="fill: #ff0000"/>
   </g>
   <g id="patch_58">
    <path d="M 362.672656 181.706138 
L 355.378633 181.706138 
L 354.226945 182.951671 
L 349.534884 182.951671 
L 356.235613 176.114429 
L 361.800165 176.114429 
L 368.500894 182.951671 
L 363.812711 182.951671 
L 362.672656 181.706138 
z
M 356.541954 180.43716 
L 361.497702 180.43716 
L 359.023706 177.717503 
L 356.541954 180.43716 
z
" clip-path="url(#pd8df5b055d)" style="fill: #008000"/>
   </g>
   <g id="patch_59">
    <path d="M 388.465116 191.875854 
Q 386.552363 192.057927 384.495091 192.149379 
Q 382.437818 192.24 380.244528 192.24 
Q 375.288372 192.24 372.393739 191.697937 
Q 369.499106 191.155875 369.499106 190.228882 
Q 369.499106 189.29108 372.444745 188.753175 
Q 375.394636 188.215269 380.525065 188.215269 
Q 382.501577 188.215269 384.312317 188.288431 
Q 386.127307 188.360761 387.734019 188.503759 
L 387.734019 189.306045 
Q 386.0763 189.122309 384.435583 189.031688 
Q 382.794866 188.940236 381.145647 188.940236 
Q 378.093743 188.940236 376.440274 189.274452 
Q 374.786806 189.607838 374.786806 190.228882 
Q 374.786806 190.844106 376.380767 191.179985 
Q 377.974728 191.515033 380.907616 191.515033 
Q 381.706722 191.515033 382.391062 191.495911 
Q 383.075403 191.475958 383.619475 191.434389 
L 383.619475 190.681155 
L 380.495311 190.681155 
L 380.495311 190.010227 
L 388.465116 190.010227 
L 388.465116 191.875854 
z
" clip-path="url(#pd8df5b055d)" style="fill: #ffa600"/>
   </g>
   <g id="patch_60">
    <path d="M 388.465116 187.638288 
Q 386.878642 187.924284 385.163148 188.068945 
Q 383.447653 188.215269 381.579245 188.215269 
Q 376.007472 188.215269 372.753289 187.131144 
Q 369.499106 186.047019 369.499106 184.193032 
Q 369.499106 182.332394 372.753289 181.249932 
Q 376.007472 180.165807 381.579245 180.165807 
Q 383.447653 180.165807 385.163148 180.31213 
Q 386.878642 180.456791 388.465116 180.742787 
L 388.465116 182.347359 
Q 386.864307 181.968248 385.311282 181.791994 
Q 383.758258 181.615741 382.042763 181.615741 
Q 378.965386 181.615741 377.202106 182.302464 
Q 375.443605 182.987525 375.443605 184.193032 
Q 375.443605 185.393551 377.202106 186.080274 
Q 378.965386 186.765335 382.042763 186.765335 
Q 383.758258 186.765335 385.311282 186.589081 
Q 386.864307 186.411165 388.465116 186.032054 
L 388.465116 187.638288 
z
" clip-path="url(#pd8df5b055d)" style="fill: #0000ff"/>
   </g>
   <g id="patch_61">
    <path d="M 382.636878 178.546699 
L 375.342855 178.546699 
L 374.191167 180.165807 
L 369.499106 180.165807 
L 376.199835 171.277859 
L 381.764387 171.277859 
L 388.465116 180.165807 
L 383.776932 180.165807 
L 382.636878 178.546699 
z
M 376.506176 176.897115 
L 381.461924 176.897115 
L 378.987928 173.361746 
L 376.506176 176.897115 
z
" clip-path="url(#pd8df5b055d)" style="fill: #008000"/>
   </g>
   <g id="patch_62">
    <path d="M 369.499106 129.353577 
L 388.465116 129.353577 
L 388.465116 137.52998 
L 381.641763 137.52998 
L 381.641763 171.277859 
L 376.335691 171.277859 
L 376.335691 137.52998 
L 369.499106 137.52998 
L 369.499106 129.353577 
z
" clip-path="url(#pd8df5b055d)" style="fill: #ff0000"/>
   </g>
   <g id="patch_63">
    <path d="M 408.429338 192.032229 
Q 406.842864 192.135216 405.127369 192.187309 
Q 403.411875 192.24 401.543467 192.24 
Q 395.971694 192.24 392.717511 191.849606 
Q 389.463327 191.459211 389.463327 190.791589 
Q 389.463327 190.121572 392.717511 189.731776 
Q 395.971694 189.341382 401.543467 189.341382 
Q 403.411875 189.341382 405.127369 189.394073 
Q 406.842864 189.446166 408.429338 189.549153 
L 408.429338 190.126961 
Q 406.828528 189.990442 405.275504 189.926973 
Q 403.72248 189.863504 402.006985 189.863504 
Q 398.929608 189.863504 397.166328 190.110794 
Q 395.407827 190.357485 395.407827 190.791589 
Q 395.407827 191.223897 397.166328 191.471187 
Q 398.929608 191.717878 402.006985 191.717878 
Q 403.72248 191.717878 405.275504 191.654409 
Q 406.828528 191.590341 408.429338 191.453822 
L 408.429338 192.032229 
z
" clip-path="url(#pd8df5b055d)" style="fill: #0000ff"/>
   </g>
   <g id="patch_64">
    <path d="M 402.6011 188.587042 
L 395.307077 188.587042 
L 394.155389 189.341382 
L 389.463327 189.341382 
L 396.164057 185.200499 
L 401.728609 185.200499 
L 408.429338 189.341382 
L 403.741154 189.341382 
L 402.6011 188.587042 
z
M 396.470398 187.818503 
L 401.426145 187.818503 
L 398.952149 186.171379 
L 396.470398 187.818503 
z
" clip-path="url(#pd8df5b055d)" style="fill: #008000"/>
   </g>
   <g id="patch_65">
    <path d="M 408.429338 184.563585 
Q 406.516585 184.882042 404.459313 185.041998 
Q 402.40204 185.200499 400.20875 185.200499 
Q 395.252594 185.200499 392.357961 184.252399 
Q 389.463327 183.304298 389.463327 181.68293 
Q 389.463327 180.042658 392.408967 179.101828 
Q 395.358858 178.160998 400.489287 178.160998 
Q 402.465799 178.160998 404.276538 178.288963 
Q 406.091529 178.415473 407.698241 178.665585 
L 407.698241 180.068832 
Q 406.040522 179.747467 404.399805 179.588965 
Q 402.759087 179.42901 401.109869 179.42901 
Q 398.057965 179.42901 396.404496 180.013575 
Q 394.751027 180.596686 394.751027 181.68293 
Q 394.751027 182.758995 396.344988 183.346468 
Q 397.938949 183.932487 400.871838 183.932487 
Q 401.670943 183.932487 402.355284 183.899042 
Q 403.039625 183.864143 403.583697 183.791436 
L 403.583697 182.473983 
L 400.459533 182.473983 
L 400.459533 181.30049 
L 408.429338 181.30049 
L 408.429338 184.563585 
z
" clip-path="url(#pd8df5b055d)" style="fill: #ffa600"/>
   </g>
   <g id="patch_66">
    <path d="M 389.463327 36.956891 
L 408.429338 36.956891 
L 408.429338 64.495626 
L 401.605985 64.495626 
L 401.605985 178.160998 
L 396.299913 178.160998 
L 396.299913 64.495626 
L 389.463327 64.495626 
L 389.463327 36.956891 
z
" clip-path="url(#pd8df5b055d)" style="fill: #ff0000"/>
   </g>
   <g id="patch_67">
    <path d="M 422.565322 191.997613 
L 415.271299 191.997613 
L 414.119611 192.24 
L 409.427549 192.24 
L 416.128278 190.90944 
L 421.692831 190.90944 
L 428.39356 192.24 
L 423.705376 192.24 
L 422.565322 191.997613 
z
M 416.43462 191.750664 
L 421.390367 191.750664 
L 418.916371 191.221406 
L 416.43462 191.750664 
z
" clip-path="url(#pd8df5b055d)" style="fill: #008000"/>
   </g>
   <g id="patch_68">
    <path d="M 428.39356 190.508156 
Q 426.480807 190.708798 424.423534 190.809577 
Q 422.366262 190.90944 420.172972 190.90944 
Q 415.216816 190.90944 412.322182 190.312094 
Q 409.427549 189.714749 409.427549 188.693214 
Q 409.427549 187.65977 412.373189 187.067005 
Q 415.32308 186.47424 420.453509 186.47424 
Q 422.43002 186.47424 424.24076 186.554863 
Q 426.05575 186.634571 427.662463 186.792152 
L 427.662463 187.676261 
Q 426.004744 187.473786 424.364026 187.373923 
Q 422.723309 187.273144 421.074091 187.273144 
Q 418.022187 187.273144 416.368718 187.641446 
Q 414.715249 188.008832 414.715249 188.693214 
Q 414.715249 189.371183 416.30921 189.741318 
Q 417.903171 190.110536 420.836059 190.110536 
Q 421.635165 190.110536 422.319506 190.089464 
Q 423.003846 190.067476 423.547918 190.021667 
L 423.547918 189.191613 
L 420.423755 189.191613 
L 420.423755 188.45226 
L 428.39356 188.45226 
L 428.39356 190.508156 
z
" clip-path="url(#pd8df5b055d)" style="fill: #ffa600"/>
   </g>
   <g id="patch_69">
    <path d="M 428.39356 186.029163 
Q 426.807086 186.249777 425.091591 186.361367 
Q 423.376097 186.47424 421.507689 186.47424 
Q 415.935916 186.47424 412.681732 185.637956 
Q 409.427549 184.801672 409.427549 183.371524 
Q 409.427549 181.936245 412.681732 181.101244 
Q 415.935916 180.26496 421.507689 180.26496 
Q 423.376097 180.26496 425.091591 180.377833 
Q 426.807086 180.489423 428.39356 180.710037 
L 428.39356 181.947789 
Q 426.79275 181.655346 425.239726 181.519386 
Q 423.686702 181.383426 421.971207 181.383426 
Q 418.89383 181.383426 417.13055 181.913158 
Q 415.372048 182.441607 415.372048 183.371524 
Q 415.372048 184.297593 417.13055 184.827325 
Q 418.89383 185.355774 421.971207 185.355774 
Q 423.686702 185.355774 425.239726 185.219814 
Q 426.79275 185.082571 428.39356 184.790128 
L 428.39356 186.029163 
z
" clip-path="url(#pd8df5b055d)" style="fill: #0000ff"/>
   </g>
   <g id="patch_70">
    <path d="M 409.427549 25.92 
L 428.39356 25.92 
L 428.39356 56.021567 
L 421.570207 56.021567 
L 421.570207 180.26496 
L 416.264134 180.26496 
L 416.264134 56.021567 
L 409.427549 56.021567 
L 409.427549 25.92 
z
" clip-path="url(#pd8df5b055d)" style="fill: #ff0000"/>
   </g>
   <g id="patch_71">
    <path d="M 448.357782 191.977855 
Q 446.445029 192.108927 444.387756 192.174763 
Q 442.330484 192.24 440.137194 192.24 
Q 435.181037 192.24 432.286404 191.849775 
Q 429.391771 191.459549 429.391771 190.792216 
Q 429.391771 190.117102 432.337411 189.729869 
Q 435.287301 189.342636 440.417731 189.342636 
Q 442.394242 189.342636 444.204982 189.395305 
Q 446.019972 189.447375 447.626685 189.550318 
L 447.626685 190.127875 
Q 445.968966 189.995606 444.328248 189.930368 
Q 442.687531 189.864533 441.038313 189.864533 
Q 437.986409 189.864533 436.33294 190.105132 
Q 434.679471 190.345133 434.679471 190.792216 
Q 434.679471 191.23511 436.273432 191.476906 
Q 437.867393 191.718103 440.800281 191.718103 
Q 441.599387 191.718103 442.283728 191.704338 
Q 442.968068 191.689974 443.51214 191.660048 
L 443.51214 191.117803 
L 440.387977 191.117803 
L 440.387977 190.634809 
L 448.357782 190.634809 
L 448.357782 191.977855 
z
" clip-path="url(#pd8df5b055d)" style="fill: #ffa600"/>
   </g>
   <g id="patch_72">
    <path d="M 448.357782 189.084014 
Q 446.771308 189.212207 445.055813 189.277049 
Q 443.340319 189.342636 441.471911 189.342636 
Q 435.900138 189.342636 432.645954 188.856695 
Q 429.391771 188.370754 429.391771 187.539735 
Q 429.391771 186.705735 432.645954 186.22054 
Q 435.900138 185.734599 441.471911 185.734599 
Q 443.340319 185.734599 445.055813 185.800186 
Q 446.771308 185.865028 448.357782 185.993221 
L 448.357782 186.712443 
Q 446.756972 186.542513 445.203948 186.46351 
Q 443.650923 186.384507 441.935429 186.384507 
Q 438.858052 186.384507 437.094772 186.69232 
Q 435.33627 186.999387 435.33627 187.539735 
Q 435.33627 188.077848 437.094772 188.38566 
Q 438.858052 188.692727 441.935429 188.692727 
Q 443.650923 188.692727 445.203948 188.613725 
Q 446.756972 188.533977 448.357782 188.364046 
L 448.357782 189.084014 
z
" clip-path="url(#pd8df5b055d)" style="fill: #0000ff"/>
   </g>
   <g id="patch_73">
    <path d="M 442.529543 184.987698 
L 435.23552 184.987698 
L 434.083833 185.734599 
L 429.391771 185.734599 
L 436.0925 181.634556 
L 441.657053 181.634556 
L 448.357782 185.734599 
L 443.669598 185.734599 
L 442.529543 184.987698 
z
M 436.398841 184.226739 
L 441.354589 184.226739 
L 438.880593 182.59586 
L 436.398841 184.226739 
z
" clip-path="url(#pd8df5b055d)" style="fill: #008000"/>
   </g>
   <g id="patch_74">
    <path d="M 429.391771 171.739785 
L 448.357782 171.739785 
L 448.357782 173.669541 
L 441.534429 173.669541 
L 441.534429 181.634556 
L 436.228356 181.634556 
L 436.228356 173.669541 
L 429.391771 173.669541 
L 429.391771 171.739785 
z
" clip-path="url(#pd8df5b055d)" style="fill: #ff0000"/>
   </g>
   <g id="patch_75">
    <path d="M 468.322004 191.901853 
Q 466.73553 192.069465 465.020035 192.154245 
Q 463.30454 192.24 461.436133 192.24 
Q 455.864359 192.24 452.610176 191.604635 
Q 449.355993 190.96927 449.355993 189.882717 
Q 449.355993 188.792267 452.610176 188.157876 
Q 455.864359 187.522511 461.436133 187.522511 
Q 463.30454 187.522511 465.020035 187.608266 
Q 466.73553 187.693046 468.322004 187.860658 
L 468.322004 188.801037 
Q 466.721194 188.578854 465.16817 188.475559 
Q 463.615145 188.372263 461.899651 188.372263 
Q 458.822273 188.372263 457.058993 188.774726 
Q 455.300492 189.176215 455.300492 189.882717 
Q 455.300492 190.586296 457.058993 190.988759 
Q 458.822273 191.390248 461.899651 191.390248 
Q 463.615145 191.390248 465.16817 191.286952 
Q 466.721194 191.182682 468.322004 190.960499 
L 468.322004 191.901853 
z
" clip-path="url(#pd8df5b055d)" style="fill: #0000ff"/>
   </g>
   <g id="patch_76">
    <path d="M 468.322004 186.804669 
Q 466.40925 187.16359 464.351978 187.34387 
Q 462.294706 187.522511 460.101415 187.522511 
Q 455.145259 187.522511 452.250626 186.453942 
Q 449.355993 185.385374 449.355993 183.55799 
Q 449.355993 181.709301 452.301633 180.648926 
Q 455.251523 179.588552 460.381952 179.588552 
Q 462.358464 179.588552 464.169204 179.732776 
Q 465.984194 179.875361 467.590907 180.157254 
L 467.590907 181.738801 
Q 465.933187 181.376602 464.29247 181.197961 
Q 462.651753 181.017681 461.002535 181.017681 
Q 457.950631 181.017681 456.297162 181.676522 
Q 454.643693 182.333725 454.643693 183.55799 
Q 454.643693 184.770783 456.237654 185.432902 
Q 457.831615 186.093382 460.764503 186.093382 
Q 461.563609 186.093382 462.247949 186.055687 
Q 462.93229 186.016354 463.476362 185.934408 
L 463.476362 184.449557 
L 460.352199 184.449557 
L 460.352199 183.126957 
L 468.322004 183.126957 
L 468.322004 186.804669 
z
" clip-path="url(#pd8df5b055d)" style="fill: #ffa600"/>
   </g>
   <g id="patch_77">
    <path d="M 462.493765 177.908856 
L 455.199742 177.908856 
L 454.048054 179.588552 
L 449.355993 179.588552 
L 456.056722 170.368006 
L 461.621274 170.368006 
L 468.322004 179.588552 
L 463.63382 179.588552 
L 462.493765 177.908856 
z
M 456.363063 176.197541 
L 461.318811 176.197541 
L 458.844815 172.529874 
L 456.363063 176.197541 
z
" clip-path="url(#pd8df5b055d)" style="fill: #008000"/>
   </g>
   <g id="patch_78">
    <path d="M 449.355993 111.828256 
L 468.322004 111.828256 
L 468.322004 123.245138 
L 461.49865 123.245138 
L 461.49865 170.368006 
L 456.192578 170.368006 
L 456.192578 123.245138 
L 449.355993 123.245138 
L 449.355993 111.828256 
z
" clip-path="url(#pd8df5b055d)" style="fill: #ff0000"/>
   </g>
   <g id="patch_79">
    <path d="M 488.286225 192.112545 
Q 486.699751 192.175721 484.984257 192.207677 
Q 483.268762 192.24 481.400355 192.24 
Q 475.828581 192.24 472.574398 192.000516 
Q 469.320215 191.761033 469.320215 191.351486 
Q 469.320215 190.940471 472.574398 190.701355 
Q 475.828581 190.461871 481.400355 190.461871 
Q 483.268762 190.461871 484.984257 190.494194 
Q 486.699751 190.52615 488.286225 190.589326 
L 488.286225 190.943777 
Q 486.685416 190.860031 485.132391 190.821096 
Q 483.579367 190.782162 481.863873 190.782162 
Q 478.786495 190.782162 477.023215 190.933859 
Q 475.264714 191.08519 475.264714 191.351486 
Q 475.264714 191.616682 477.023215 191.768379 
Q 478.786495 191.919709 481.863873 191.919709 
Q 483.579367 191.919709 485.132391 191.880775 
Q 486.685416 191.841473 488.286225 191.757727 
L 488.286225 192.112545 
z
" clip-path="url(#pd8df5b055d)" style="fill: #0000ff"/>
   </g>
   <g id="patch_80">
    <path d="M 482.457987 189.990075 
L 475.163964 189.990075 
L 474.012276 190.461871 
L 469.320215 190.461871 
L 476.020944 187.871988 
L 481.585496 187.871988 
L 488.286225 190.461871 
L 483.598042 190.461871 
L 482.457987 189.990075 
z
M 476.327285 189.509398 
L 481.283033 189.509398 
L 478.809037 188.479217 
L 476.327285 189.509398 
z
" clip-path="url(#pd8df5b055d)" style="fill: #008000"/>
   </g>
   <g id="patch_81">
    <path d="M 488.286225 187.473285 
Q 486.373472 187.672636 484.3162 187.772767 
Q 482.258928 187.871988 480.065637 187.871988 
Q 475.109481 187.871988 472.214848 187.278485 
Q 469.320215 186.684982 469.320215 185.670019 
Q 469.320215 184.643223 472.265855 184.054272 
Q 475.215745 183.46532 480.346174 183.46532 
Q 482.322686 183.46532 484.133426 183.545425 
Q 485.948416 183.624619 487.555129 183.781188 
L 487.555129 184.659608 
Q 485.897409 184.458436 484.256692 184.359216 
Q 482.615975 184.259085 480.966756 184.259085 
Q 477.914852 184.259085 476.261384 184.625018 
Q 474.607915 184.99004 474.607915 185.670019 
Q 474.607915 186.343627 476.201876 186.71138 
Q 477.795837 187.078223 480.728725 187.078223 
Q 481.527831 187.078223 482.212171 187.057287 
Q 482.896512 187.03544 483.440584 186.989926 
L 483.440584 186.165212 
L 480.31642 186.165212 
L 480.31642 185.430616 
L 488.286225 185.430616 
L 488.286225 187.473285 
z
" clip-path="url(#pd8df5b055d)" style="fill: #ffa600"/>
   </g>
   <g id="patch_82">
    <path d="M 469.320215 177.744384 
L 488.286225 177.744384 
L 488.286225 178.860126 
L 481.462872 178.860126 
L 481.462872 183.46532 
L 476.1568 183.46532 
L 476.1568 178.860126 
L 469.320215 178.860126 
L 469.320215 177.744384 
z
" clip-path="url(#pd8df5b055d)" style="fill: #ff0000"/>
   </g>
   <g id="patch_83">
    <path d="M 508.250447 191.832632 
Q 506.663973 192.034555 504.948479 192.136691 
Q 503.232984 192.24 501.364576 192.24 
Q 495.792803 192.24 492.53862 191.474571 
Q 489.284436 190.709142 489.284436 189.400165 
Q 489.284436 188.086492 492.53862 187.322238 
Q 495.792803 186.556809 501.364576 186.556809 
Q 503.232984 186.556809 504.948479 186.660118 
Q 506.663973 186.762254 508.250447 186.964177 
L 508.250447 188.097058 
Q 506.649638 187.829393 505.096613 187.704952 
Q 503.543589 187.580511 501.828094 187.580511 
Q 498.750717 187.580511 496.987437 188.065361 
Q 495.228936 188.549037 495.228936 189.400165 
Q 495.228936 190.247772 496.987437 190.732622 
Q 498.750717 191.216298 501.828094 191.216298 
Q 503.543589 191.216298 505.096613 191.091857 
Q 506.649638 190.966242 508.250447 190.698577 
L 508.250447 191.832632 
z
" clip-path="url(#pd8df5b055d)" style="fill: #0000ff"/>
   </g>
   <g id="patch_84">
    <path d="M 502.422209 185.235908 
L 495.128186 185.235908 
L 493.976498 186.556809 
L 489.284436 186.556809 
L 495.985166 179.305841 
L 501.549718 179.305841 
L 508.250447 186.556809 
L 503.562263 186.556809 
L 502.422209 185.235908 
z
M 496.291507 183.890143 
L 501.247255 183.890143 
L 498.773258 181.005918 
L 496.291507 183.890143 
z
" clip-path="url(#pd8df5b055d)" style="fill: #008000"/>
   </g>
   <g id="patch_85">
    <path d="M 508.250447 178.543408 
Q 506.337694 178.924624 504.280422 179.116103 
Q 502.223149 179.305841 500.029859 179.305841 
Q 495.073703 179.305841 492.17907 178.170895 
Q 489.284436 177.035949 489.284436 175.095052 
Q 489.284436 173.131525 492.230076 172.005283 
Q 495.179967 170.87904 500.310396 170.87904 
Q 502.286908 170.87904 504.097647 171.032223 
Q 505.912638 171.183665 507.51935 171.483068 
L 507.51935 173.162858 
Q 505.861631 172.77816 504.220914 172.588422 
Q 502.580197 172.396943 500.930978 172.396943 
Q 497.879074 172.396943 496.225605 173.096711 
Q 494.572136 173.794738 494.572136 175.095052 
Q 494.572136 176.383181 496.166097 177.086429 
Q 497.760059 177.787937 500.692947 177.787937 
Q 501.492053 177.787937 502.176393 177.747901 
Q 502.860734 177.706124 503.404806 177.619088 
L 503.404806 176.042 
L 500.280642 176.042 
L 500.280642 174.637244 
L 508.250447 174.637244 
L 508.250447 178.543408 
z
" clip-path="url(#pd8df5b055d)" style="fill: #ffa600"/>
   </g>
   <g id="patch_86">
    <path d="M 489.284436 118.750459 
L 508.250447 118.750459 
L 508.250447 128.916985 
L 501.427094 128.916985 
L 501.427094 170.87904 
L 496.121022 170.87904 
L 496.121022 128.916985 
L 489.284436 128.916985 
L 489.284436 118.750459 
z
" clip-path="url(#pd8df5b055d)" style="fill: #ff0000"/>
   </g>
   <g id="patch_87">
    <path d="M 528.214669 191.775039 
Q 526.301916 192.007519 524.244643 192.124291 
Q 522.187371 192.24 519.994081 192.24 
Q 515.037925 192.24 512.143292 191.547866 
Q 509.248658 190.855732 509.248658 189.672099 
Q 509.248658 188.474665 512.194298 187.787839 
Q 515.144189 187.101013 520.274618 187.101013 
Q 522.25113 187.101013 524.061869 187.19443 
Q 525.87686 187.286785 527.483572 187.469373 
L 527.483572 188.493773 
Q 525.825853 188.259169 524.185136 188.14346 
Q 522.544418 188.026689 520.8952 188.026689 
Q 517.843296 188.026689 516.189827 188.453434 
Q 514.536358 188.879117 514.536358 189.672099 
Q 514.536358 190.457649 516.130319 190.886518 
Q 517.72428 191.314324 520.657169 191.314324 
Q 521.456274 191.314324 522.140615 191.289908 
Q 522.824956 191.264431 523.369028 191.211353 
L 523.369028 190.249585 
L 520.244864 190.249585 
L 520.244864 189.39291 
L 528.214669 189.39291 
L 528.214669 191.775039 
z
" clip-path="url(#pd8df5b055d)" style="fill: #ffa600"/>
   </g>
   <g id="patch_88">
    <path d="M 528.214669 186.682875 
Q 526.628195 186.890137 524.9127 186.994972 
Q 523.197206 187.101013 521.328798 187.101013 
Q 515.757025 187.101013 512.502842 186.315348 
Q 509.248658 185.529682 509.248658 184.186098 
Q 509.248658 182.837694 512.502842 182.053234 
Q 515.757025 181.267568 521.328798 181.267568 
Q 523.197206 181.267568 524.9127 181.373609 
Q 526.628195 181.478445 528.214669 181.685706 
L 528.214669 182.848539 
Q 526.613859 182.573797 525.060835 182.446066 
Q 523.507811 182.318335 521.792316 182.318335 
Q 518.714939 182.318335 516.951659 182.816004 
Q 515.193158 183.312467 515.193158 184.186098 
Q 515.193158 185.056114 516.951659 185.553782 
Q 518.714939 186.050246 521.792316 186.050246 
Q 523.507811 186.050246 525.060835 185.922515 
Q 526.613859 185.793579 528.214669 185.518837 
L 528.214669 186.682875 
z
" clip-path="url(#pd8df5b055d)" style="fill: #0000ff"/>
   </g>
   <g id="patch_89">
    <path d="M 522.386431 179.774767 
L 515.092408 179.774767 
L 513.94072 181.267568 
L 509.248658 181.267568 
L 515.949388 173.072967 
L 521.51394 173.072967 
L 528.214669 181.267568 
L 523.526485 181.267568 
L 522.386431 179.774767 
z
M 516.255729 178.253866 
L 521.211476 178.253866 
L 518.73748 174.994291 
L 516.255729 178.253866 
z
" clip-path="url(#pd8df5b055d)" style="fill: #008000"/>
   </g>
   <g id="patch_90">
    <path d="M 509.248658 140.155673 
L 528.214669 140.155673 
L 528.214669 146.575462 
L 521.391316 146.575462 
L 521.391316 173.072967 
L 516.085244 173.072967 
L 516.085244 146.575462 
L 509.248658 146.575462 
L 509.248658 140.155673 
z
" clip-path="url(#pd8df5b055d)" style="fill: #ff0000"/>
   </g>
   <g id="patch_91">
    <path d="M 542.350652 191.049693 
L 535.05663 191.049693 
L 533.904942 192.24 
L 529.21288 192.24 
L 535.913609 185.705915 
L 541.478162 185.705915 
L 548.178891 192.24 
L 543.490707 192.24 
L 542.350652 191.049693 
z
M 536.219951 189.83698 
L 541.175698 189.83698 
L 538.701702 187.23791 
L 536.219951 189.83698 
z
" clip-path="url(#pd8df5b055d)" style="fill: #008000"/>
   </g>
   <g id="patch_92">
    <path d="M 548.178891 185.076588 
Q 546.266138 185.391251 544.208865 185.549301 
Q 542.151593 185.705915 539.958303 185.705915 
Q 535.002147 185.705915 532.107513 184.769109 
Q 529.21288 183.832303 529.21288 182.23025 
Q 529.21288 180.609519 532.15852 179.679897 
Q 535.108411 178.750275 540.23884 178.750275 
Q 542.215351 178.750275 544.026091 178.876715 
Q 545.841081 179.001718 547.447794 179.248851 
L 547.447794 180.635381 
Q 545.790075 180.317844 544.149357 180.161231 
Q 542.50864 180.003181 540.859422 180.003181 
Q 537.807518 180.003181 536.154049 180.580782 
Q 534.50058 181.156947 534.50058 182.23025 
Q 534.50058 183.293496 536.094541 183.873971 
Q 537.688502 184.453009 540.62139 184.453009 
Q 541.420496 184.453009 542.104837 184.419962 
Q 542.789177 184.385478 543.333249 184.313637 
L 543.333249 183.011879 
L 540.209086 183.011879 
L 540.209086 181.852367 
L 548.178891 181.852367 
L 548.178891 185.076588 
z
" clip-path="url(#pd8df5b055d)" style="fill: #ffa600"/>
   </g>
   <g id="patch_93">
    <path d="M 548.178891 178.176157 
Q 546.592417 178.460734 544.876922 178.604678 
Q 543.161428 178.750275 541.29302 178.750275 
Q 535.721247 178.750275 532.467063 177.671529 
Q 529.21288 176.592783 529.21288 174.747995 
Q 529.21288 172.896589 532.467063 171.819497 
Q 535.721247 170.740751 541.29302 170.740751 
Q 543.161428 170.740751 544.876922 170.886349 
Q 546.592417 171.030292 548.178891 171.314869 
L 548.178891 172.911479 
Q 546.578081 172.534249 545.025057 172.35887 
Q 543.472033 172.183491 541.756538 172.183491 
Q 538.679161 172.183491 536.915881 172.866807 
Q 535.157379 173.548469 535.157379 174.747995 
Q 535.157379 175.942557 536.915881 176.625873 
Q 538.679161 177.307535 541.756538 177.307535 
Q 543.472033 177.307535 545.025057 177.132156 
Q 546.578081 176.955123 548.178891 176.577892 
L 548.178891 178.176157 
z
" clip-path="url(#pd8df5b055d)" style="fill: #0000ff"/>
   </g>
   <g id="patch_94">
    <path d="M 529.21288 113.198644 
L 548.178891 113.198644 
L 548.178891 124.420958 
L 541.355538 124.420958 
L 541.355538 170.740751 
L 536.049465 170.740751 
L 536.049465 124.420958 
L 529.21288 124.420958 
L 529.21288 113.198644 
z
" clip-path="url(#pd8df5b055d)" style="fill: #ff0000"/>
   </g>
   <g id="patch_95">
    <path d="M 568.143113 191.76206 
Q 566.556639 191.998964 564.841144 192.118793 
Q 563.12565 192.24 561.257242 192.24 
Q 555.685468 192.24 552.431285 191.341969 
Q 549.177102 190.443937 549.177102 188.908194 
Q 549.177102 187.366941 552.431285 186.470287 
Q 555.685468 185.572255 561.257242 185.572255 
Q 563.12565 185.572255 564.841144 185.693462 
Q 566.556639 185.813291 568.143113 186.050195 
L 568.143113 187.379337 
Q 566.542303 187.065301 564.989279 186.919302 
Q 563.436254 186.773303 561.72076 186.773303 
Q 558.643382 186.773303 556.880103 187.342148 
Q 555.121601 187.909616 555.121601 188.908194 
Q 555.121601 189.902639 556.880103 190.471484 
Q 558.643382 191.038952 561.72076 191.038952 
Q 563.436254 191.038952 564.989279 190.892953 
Q 566.542303 190.745577 568.143113 190.431541 
L 568.143113 191.76206 
z
" clip-path="url(#pd8df5b055d)" style="fill: #0000ff"/>
   </g>
   <g id="patch_96">
    <path d="M 562.314874 184.319642 
L 555.020851 184.319642 
L 553.869164 185.572255 
L 549.177102 185.572255 
L 555.877831 178.696144 
L 561.442383 178.696144 
L 568.143113 185.572255 
L 563.454929 185.572255 
L 562.314874 184.319642 
z
M 556.184172 183.04345 
L 561.13992 183.04345 
L 558.665924 180.308331 
L 556.184172 183.04345 
z
" clip-path="url(#pd8df5b055d)" style="fill: #008000"/>
   </g>
   <g id="patch_97">
    <path d="M 568.143113 177.97975 
Q 566.230359 178.337947 564.173087 178.517863 
Q 562.115815 178.696144 559.922524 178.696144 
Q 554.966368 178.696144 552.071735 177.629732 
Q 549.177102 176.56332 549.177102 174.739624 
Q 549.177102 172.894666 552.122742 171.836431 
Q 555.072632 170.778197 560.203062 170.778197 
Q 562.179573 170.778197 563.990313 170.92213 
Q 565.805303 171.064428 567.412016 171.345751 
L 567.412016 172.924106 
Q 565.754296 172.562638 564.113579 172.384358 
Q 562.472862 172.204442 560.823644 172.204442 
Q 557.77174 172.204442 556.118271 172.861954 
Q 554.464802 173.51783 554.464802 174.739624 
Q 554.464802 175.949969 556.058763 176.610752 
Q 557.652724 177.269899 560.585612 177.269899 
Q 561.384718 177.269899 562.069059 177.232281 
Q 562.753399 177.193026 563.297471 177.111246 
L 563.297471 175.629391 
L 560.173308 175.629391 
L 560.173308 174.309461 
L 568.143113 174.309461 
L 568.143113 177.97975 
z
" clip-path="url(#pd8df5b055d)" style="fill: #ffa600"/>
   </g>
   <g id="patch_98">
    <path d="M 549.177102 114.102369 
L 568.143113 114.102369 
L 568.143113 125.155734 
L 561.31976 125.155734 
L 561.31976 170.778197 
L 556.013687 170.778197 
L 556.013687 125.155734 
L 549.177102 125.155734 
L 549.177102 114.102369 
z
" clip-path="url(#pd8df5b055d)" style="fill: #ff0000"/>
   </g>
   <g id="patch_99">
    <path d="M 588.107335 192.172177 
Q 586.52086 192.205795 584.805366 192.2228 
Q 583.089871 192.24 581.221464 192.24 
Q 575.64969 192.24 572.395507 192.112563 
Q 569.141324 191.985126 569.141324 191.767192 
Q 569.141324 191.548477 572.395507 191.421235 
Q 575.64969 191.293798 581.221464 191.293798 
Q 583.089871 191.293798 584.805366 191.310998 
Q 586.52086 191.328003 588.107335 191.361621 
L 588.107335 191.550236 
Q 586.506525 191.505672 584.953501 191.484954 
Q 583.400476 191.464236 581.684982 191.464236 
Q 578.607604 191.464236 576.844324 191.544959 
Q 575.085823 191.625487 575.085823 191.767192 
Q 575.085823 191.908311 576.844324 191.989035 
Q 578.607604 192.069562 581.684982 192.069562 
Q 583.400476 192.069562 584.953501 192.048844 
Q 586.506525 192.02793 588.107335 191.983366 
L 588.107335 192.172177 
z
" clip-path="url(#pd8df5b055d)" style="fill: #0000ff"/>
   </g>
   <g id="patch_100">
    <path d="M 588.107335 191.197062 
Q 586.194581 191.24543 584.137309 191.269725 
Q 582.080037 191.293798 579.886746 191.293798 
Q 574.93059 191.293798 572.035957 191.149799 
Q 569.141324 191.005799 569.141324 190.759542 
Q 569.141324 190.510414 572.086964 190.367519 
Q 575.036854 190.224624 580.167283 190.224624 
Q 582.143795 190.224624 583.954535 190.24406 
Q 585.769525 190.263274 587.376238 190.301262 
L 587.376238 190.51439 
Q 585.718518 190.46558 584.077801 190.441507 
Q 582.437084 190.417212 580.787866 190.417212 
Q 577.735962 190.417212 576.082493 190.505997 
Q 574.429024 190.594561 574.429024 190.759542 
Q 574.429024 190.922977 576.022985 191.012204 
Q 577.616946 191.10121 580.549834 191.10121 
Q 581.34894 191.10121 582.03328 191.09613 
Q 582.717621 191.090829 583.261693 191.079787 
L 583.261693 190.879689 
L 580.137529 190.879689 
L 580.137529 190.701457 
L 588.107335 190.701457 
L 588.107335 191.197062 
z
" clip-path="url(#pd8df5b055d)" style="fill: #ffa600"/>
   </g>
   <g id="patch_101">
    <path d="M 582.279096 189.990029 
L 574.985073 189.990029 
L 573.833385 190.224624 
L 569.141324 190.224624 
L 575.842053 188.936833 
L 581.406605 188.936833 
L 588.107335 190.224624 
L 583.419151 190.224624 
L 582.279096 189.990029 
z
M 576.148394 189.751017 
L 581.104142 189.751017 
L 578.630146 189.238771 
L 576.148394 189.751017 
z
" clip-path="url(#pd8df5b055d)" style="fill: #008000"/>
   </g>
   <g id="patch_102">
    <path d="M 569.141324 187.116163 
L 588.107335 187.116163 
L 588.107335 187.471244 
L 581.283981 187.471244 
L 581.283981 188.936833 
L 575.977909 188.936833 
L 575.977909 187.471244 
L 569.141324 187.471244 
L 569.141324 187.116163 
z
" clip-path="url(#pd8df5b055d)" style="fill: #ff0000"/>
   </g>
   <g id="patch_103">
    <path d="M 608.071556 192.181117 
Q 606.485082 192.210304 604.769588 192.225067 
Q 603.054093 192.24 601.185685 192.24 
Q 595.613912 192.24 592.359729 192.129361 
Q 589.105546 192.018722 589.105546 191.829516 
Q 589.105546 191.639631 592.359729 191.529162 
Q 595.613912 191.418523 601.185685 191.418523 
Q 603.054093 191.418523 604.769588 191.433455 
Q 606.485082 191.448219 608.071556 191.477406 
L 608.071556 191.641158 
Q 606.470747 191.602468 604.917722 191.584481 
Q 603.364698 191.566494 601.649204 191.566494 
Q 598.571826 191.566494 596.808546 191.636576 
Q 595.050045 191.706489 595.050045 191.829516 
Q 595.050045 191.952033 596.808546 192.022116 
Q 598.571826 192.092029 601.649204 192.092029 
Q 603.364698 192.092029 604.917722 192.074042 
Q 606.470747 192.055885 608.071556 192.017195 
L 608.071556 192.181117 
z
" clip-path="url(#pd8df5b055d)" style="fill: #0000ff"/>
   </g>
   <g id="patch_104">
    <path d="M 602.243318 191.125672 
L 594.949295 191.125672 
L 593.797607 191.418523 
L 589.105546 191.418523 
L 595.806275 189.810942 
L 601.370827 189.810942 
L 608.071556 191.418523 
L 603.383373 191.418523 
L 602.243318 191.125672 
z
M 596.112616 190.827308 
L 601.068364 190.827308 
L 598.594368 190.187859 
L 596.112616 190.827308 
z
" clip-path="url(#pd8df5b055d)" style="fill: #008000"/>
   </g>
   <g id="patch_105">
    <path d="M 608.071556 189.654113 
Q 606.158803 189.732528 604.101531 189.771914 
Q 602.044258 189.810942 599.850968 189.810942 
Q 594.894812 189.810942 592.000179 189.577489 
Q 589.105546 189.344035 589.105546 188.944801 
Q 589.105546 188.540912 592.051186 188.309249 
Q 595.001076 188.077586 600.131505 188.077586 
Q 602.108017 188.077586 603.918757 188.109095 
Q 605.733747 188.140246 607.34046 188.201832 
L 607.34046 188.547357 
Q 605.68274 188.468227 604.042023 188.429198 
Q 602.401306 188.389812 600.752087 188.389812 
Q 597.700183 188.389812 596.046714 188.533751 
Q 594.393246 188.677332 594.393246 188.944801 
Q 594.393246 189.209764 595.987207 189.354419 
Q 597.581168 189.498716 600.514056 189.498716 
Q 601.313162 189.498716 601.997502 189.490481 
Q 602.681843 189.481888 603.225915 189.463985 
L 603.225915 189.139585 
L 600.101751 189.139585 
L 600.101751 188.850632 
L 608.071556 188.850632 
L 608.071556 189.654113 
z
" clip-path="url(#pd8df5b055d)" style="fill: #ffa600"/>
   </g>
   <g id="patch_106">
    <path d="M 589.105546 186.344229 
L 608.071556 186.344229 
L 608.071556 186.682282 
L 601.248203 186.682282 
L 601.248203 188.077586 
L 595.942131 188.077586 
L 595.942131 186.682282 
L 589.105546 186.682282 
L 589.105546 186.344229 
z
" clip-path="url(#pd8df5b055d)" style="fill: #ff0000"/>
   </g>
   <g id="patch_107">
    <path d="M 628.035778 192.039034 
Q 626.449304 192.138648 624.73381 192.189035 
Q 623.018315 192.24 621.149907 192.24 
Q 615.578134 192.24 612.323951 191.862393 
Q 609.069767 191.484785 609.069767 190.83903 
Q 609.069767 190.190958 612.323951 189.81393 
Q 615.578134 189.436323 621.149907 189.436323 
Q 623.018315 189.436323 624.73381 189.487288 
Q 626.449304 189.537674 628.035778 189.637288 
L 628.035778 190.196171 
Q 626.434969 190.064124 624.881944 190.002734 
Q 623.32892 189.941344 621.613425 189.941344 
Q 618.536048 189.941344 616.772768 190.180534 
Q 615.014267 190.419144 615.014267 190.83903 
Q 615.014267 191.257178 616.772768 191.496368 
Q 618.536048 191.734979 621.613425 191.734979 
Q 623.32892 191.734979 624.881944 191.673589 
Q 626.434969 191.611619 628.035778 191.479573 
L 628.035778 192.039034 
z
" clip-path="url(#pd8df5b055d)" style="fill: #0000ff"/>
   </g>
   <g id="patch_108">
    <path d="M 628.035778 189.066322 
Q 626.123025 189.251322 624.065753 189.344245 
Q 622.00848 189.436323 619.81519 189.436323 
Q 614.859034 189.436323 611.964401 188.885545 
Q 609.069767 188.334767 609.069767 187.392869 
Q 609.069767 186.43999 612.015407 185.893436 
Q 614.965298 185.346882 620.095727 185.346882 
Q 622.072239 185.346882 623.882978 185.42122 
Q 625.697969 185.494714 627.304681 185.640011 
L 627.304681 186.455196 
Q 625.646962 186.268506 624.006245 186.176428 
Q 622.365528 186.083505 620.716309 186.083505 
Q 617.664405 186.083505 616.010936 186.423095 
Q 614.357467 186.76184 614.357467 187.392869 
Q 614.357467 188.017985 615.951428 188.359265 
Q 617.545389 188.6997 620.478278 188.6997 
Q 621.277383 188.6997 621.961724 188.68027 
Q 622.646065 188.659996 623.190137 188.617759 
L 623.190137 187.852414 
L 620.065973 187.852414 
L 620.065973 187.1707 
L 628.035778 187.1707 
L 628.035778 189.066322 
z
" clip-path="url(#pd8df5b055d)" style="fill: #ffa600"/>
   </g>
   <g id="patch_109">
    <path d="M 609.069767 178.757347 
L 628.035778 178.757347 
L 628.035778 180.04249 
L 621.212425 180.04249 
L 621.212425 185.346882 
L 615.906353 185.346882 
L 615.906353 180.04249 
L 609.069767 180.04249 
L 609.069767 178.757347 
z
" clip-path="url(#pd8df5b055d)" style="fill: #ff0000"/>
   </g>
   <g id="patch_110">
    <path d="M 622.20754 176.333759 
L 614.913517 176.333759 
L 613.761829 178.757347 
L 609.069767 178.757347 
L 615.770497 165.453273 
L 621.335049 165.453273 
L 628.035778 178.757347 
L 623.347594 178.757347 
L 622.20754 176.333759 
z
M 616.076838 173.86455 
L 621.032585 173.86455 
L 618.558589 168.572573 
L 616.076838 173.86455 
z
" clip-path="url(#pd8df5b055d)" style="fill: #008000"/>
   </g>
   <g id="patch_111">
    <path d="M 648 192.072887 
Q 646.087247 192.156444 644.029974 192.198413 
Q 641.972702 192.24 639.779412 192.24 
Q 634.823256 192.24 631.928622 191.991238 
Q 629.033989 191.742477 629.033989 191.317064 
Q 629.033989 190.886691 631.979629 190.639837 
Q 634.92952 190.392983 640.059949 190.392983 
Q 642.036461 190.392983 643.8472 190.426558 
Q 645.662191 190.459751 647.268903 190.525376 
L 647.268903 190.893558 
Q 645.611184 190.809239 643.970467 190.767651 
Q 642.329749 190.725682 640.680531 190.725682 
Q 637.628627 190.725682 635.975158 190.87906 
Q 634.321689 191.032056 634.321689 191.317064 
Q 634.321689 191.5994 635.91565 191.753541 
Q 637.509611 191.9073 640.4425 191.9073 
Q 641.241605 191.9073 641.925946 191.898525 
Q 642.610287 191.889368 643.154359 191.870291 
L 643.154359 191.524619 
L 640.030195 191.524619 
L 640.030195 191.21672 
L 648 191.21672 
L 648 192.072887 
z
" clip-path="url(#pd8df5b055d)" style="fill: #ffa600"/>
   </g>
   <g id="patch_112">
    <path d="M 648 190.164304 
Q 646.413526 190.277655 644.698031 190.334989 
Q 642.982537 190.392983 641.114129 190.392983 
Q 635.542356 190.392983 632.288173 189.963303 
Q 629.033989 189.533624 629.033989 188.79882 
Q 629.033989 188.061379 632.288173 187.632359 
Q 635.542356 187.20268 641.114129 187.20268 
Q 642.982537 187.20268 644.698031 187.260673 
Q 646.413526 187.318008 648 187.431359 
L 648 188.06731 
Q 646.39919 187.917054 644.846166 187.847199 
Q 643.293142 187.777343 641.577647 187.777343 
Q 638.50027 187.777343 636.73699 188.049517 
Q 634.978488 188.321032 634.978488 188.79882 
Q 634.978488 189.27463 636.73699 189.546804 
Q 638.50027 189.818319 641.577647 189.818319 
Q 643.293142 189.818319 644.846166 189.748464 
Q 646.39919 189.677949 648 189.527693 
L 648 190.164304 
z
" clip-path="url(#pd8df5b055d)" style="fill: #0000ff"/>
   </g>
   <g id="patch_113">
    <path d="M 629.033989 182.489987 
L 648 182.489987 
L 648 183.409093 
L 641.176647 183.409093 
L 641.176647 187.20268 
L 635.870575 187.20268 
L 635.870575 183.409093 
L 629.033989 183.409093 
L 629.033989 182.489987 
z
" clip-path="url(#pd8df5b055d)" style="fill: #ff0000"/>
   </g>
   <g id="patch_114">
    <path d="M 642.171762 181.207326 
L 634.877739 181.207326 
L 633.726051 182.489987 
L 629.033989 182.489987 
L 635.734718 175.448932 
L 641.299271 175.448932 
L 648 182.489987 
L 643.311816 182.489987 
L 642.171762 181.207326 
z
M 636.04106 179.90052 
L 640.996807 179.90052 
L 638.522811 177.099792 
L 636.04106 179.90052 
z
" clip-path="url(#pd8df5b055d)" style="fill: #008000"/>
   </g>
   <g id="matplotlib.axis_1">
    <g id="xtick_1">
     <g id="line2d_2">
      <defs>
       <path id="mb05c886c9f" d="M 0 0 
L 0 3.5 
" style="stroke: #000000; stroke-width: 0.8"/>
      </defs>
      <g>
       <use xlink:href="#mb05c886c9f" x="99.483005" y="192.24" style="stroke: #000000; stroke-width: 0.8"/>
      </g>
     </g>
     <g id="text_1">
      <!-- 0 -->
      <g transform="translate(96.301755 206.838437) scale(0.1 -0.1)">
       <defs>
        <path id="DejaVuSans-30" d="M 2034 4250 
Q 1547 4250 1301 3770 
Q 1056 3291 1056 2328 
Q 1056 1369 1301 889 
Q 1547 409 2034 409 
Q 2525 409 2770 889 
Q 3016 1369 3016 2328 
Q 3016 3291 2770 3770 
Q 2525 4250 2034 4250 
z
M 2034 4750 
Q 2819 4750 3233 4129 
Q 3647 3509 3647 2328 
Q 3647 1150 3233 529 
Q 2819 -91 2034 -91 
Q 1250 -91 836 529 
Q 422 1150 422 2328 
Q 422 3509 836 4129 
Q 1250 4750 2034 4750 
z
" transform="scale(0.015625)"/>
       </defs>
       <use xlink:href="#DejaVuSans-30"/>
      </g>
     </g>
    </g>
    <g id="xtick_2">
     <g id="line2d_3">
      <g>
       <use xlink:href="#mb05c886c9f" x="199.304114" y="192.24" style="stroke: #000000; stroke-width: 0.8"/>
      </g>
     </g>
     <g id="text_2">
      <!-- 5 -->
      <g transform="translate(196.122864 206.838437) scale(0.1 -0.1)">
       <defs>
        <path id="DejaVuSans-35" d="M 691 4666 
L 3169 4666 
L 3169 4134 
L 1269 4134 
L 1269 2991 
Q 1406 3038 1543 3061 
Q 1681 3084 1819 3084 
Q 2600 3084 3056 2656 
Q 3513 2228 3513 1497 
Q 3513 744 3044 326 
Q 2575 -91 1722 -91 
Q 1428 -91 1123 -41 
Q 819 9 494 109 
L 494 744 
Q 775 591 1075 516 
Q 1375 441 1709 441 
Q 2250 441 2565 725 
Q 2881 1009 2881 1497 
Q 2881 1984 2565 2268 
Q 2250 2553 1709 2553 
Q 1456 2553 1204 2497 
Q 953 2441 691 2322 
L 691 4666 
z
" transform="scale(0.015625)"/>
       </defs>
       <use xlink:href="#DejaVuSans-35"/>
      </g>
     </g>
    </g>
    <g id="xtick_3">
     <g id="line2d_4">
      <g>
       <use xlink:href="#mb05c886c9f" x="299.125224" y="192.24" style="stroke: #000000; stroke-width: 0.8"/>
      </g>
     </g>
     <g id="text_3">
      <!-- 10 -->
      <g transform="translate(292.762724 206.838437) scale(0.1 -0.1)">
       <defs>
        <path id="DejaVuSans-31" d="M 794 531 
L 1825 531 
L 1825 4091 
L 703 3866 
L 703 4441 
L 1819 4666 
L 2450 4666 
L 2450 531 
L 3481 531 
L 3481 0 
L 794 0 
L 794 531 
z
" transform="scale(0.015625)"/>
       </defs>
       <use xlink:href="#DejaVuSans-31"/>
       <use xlink:href="#DejaVuSans-30" x="63.623047"/>
      </g>
     </g>
    </g>
    <g id="xtick_4">
     <g id="line2d_5">
      <g>
       <use xlink:href="#mb05c886c9f" x="398.946333" y="192.24" style="stroke: #000000; stroke-width: 0.8"/>
      </g>
     </g>
     <g id="text_4">
      <!-- 15 -->
      <g transform="translate(392.583833 206.838437) scale(0.1 -0.1)">
       <use xlink:href="#DejaVuSans-31"/>
       <use xlink:href="#DejaVuSans-35" x="63.623047"/>
      </g>
     </g>
    </g>
    <g id="xtick_5">
     <g id="line2d_6">
      <g>
       <use xlink:href="#mb05c886c9f" x="498.767442" y="192.24" style="stroke: #000000; stroke-width: 0.8"/>
      </g>
     </g>
     <g id="text_5">
      <!-- 20 -->
      <g transform="translate(492.404942 206.838437) scale(0.1 -0.1)">
       <defs>
        <path id="DejaVuSans-32" d="M 1228 531 
L 3431 531 
L 3431 0 
L 469 0 
L 469 531 
Q 828 903 1448 1529 
Q 2069 2156 2228 2338 
Q 2531 2678 2651 2914 
Q 2772 3150 2772 3378 
Q 2772 3750 2511 3984 
Q 2250 4219 1831 4219 
Q 1534 4219 1204 4116 
Q 875 4013 500 3803 
L 500 4441 
Q 881 4594 1212 4672 
Q 1544 4750 1819 4750 
Q 2544 4750 2975 4387 
Q 3406 4025 3406 3419 
Q 3406 3131 3298 2873 
Q 3191 2616 2906 2266 
Q 2828 2175 2409 1742 
Q 1991 1309 1228 531 
z
" transform="scale(0.015625)"/>
       </defs>
       <use xlink:href="#DejaVuSans-32"/>
       <use xlink:href="#DejaVuSans-30" x="63.623047"/>
      </g>
     </g>
    </g>
    <g id="xtick_6">
     <g id="line2d_7">
      <g>
       <use xlink:href="#mb05c886c9f" x="598.588551" y="192.24" style="stroke: #000000; stroke-width: 0.8"/>
      </g>
     </g>
     <g id="text_6">
      <!-- 25 -->
      <g transform="translate(592.226051 206.838437) scale(0.1 -0.1)">
       <use xlink:href="#DejaVuSans-32"/>
       <use xlink:href="#DejaVuSans-35" x="63.623047"/>
      </g>
     </g>
    </g>
   </g>
   <g id="matplotlib.axis_2">
    <g id="ytick_1">
     <g id="line2d_8">
      <defs>
       <path id="m3036842053" d="M 0 0 
L -3.5 0 
" style="stroke: #000000; stroke-width: 0.8"/>
      </defs>
      <g>
       <use xlink:href="#m3036842053" x="90" y="192.24" style="stroke: #000000; stroke-width: 0.8"/>
      </g>
     </g>
     <g id="text_7">
      <!-- 0.0 -->
      <g transform="translate(67.096875 196.039219) scale(0.1 -0.1)">
       <defs>
        <path id="DejaVuSans-2e" d="M 684 794 
L 1344 794 
L 1344 0 
L 684 0 
L 684 794 
z
" transform="scale(0.015625)"/>
       </defs>
       <use xlink:href="#DejaVuSans-30"/>
       <use xlink:href="#DejaVuSans-2e" x="63.623047"/>
       <use xlink:href="#DejaVuSans-30" x="95.410156"/>
      </g>
     </g>
    </g>
    <g id="ytick_2">
     <g id="line2d_9">
      <g>
       <use xlink:href="#m3036842053" x="90" y="170.466241" style="stroke: #000000; stroke-width: 0.8"/>
      </g>
     </g>
     <g id="text_8">
      <!-- 0.2 -->
      <g transform="translate(67.096875 174.26546) scale(0.1 -0.1)">
       <use xlink:href="#DejaVuSans-30"/>
       <use xlink:href="#DejaVuSans-2e" x="63.623047"/>
       <use xlink:href="#DejaVuSans-32" x="95.410156"/>
      </g>
     </g>
    </g>
    <g id="ytick_3">
     <g id="line2d_10">
      <g>
       <use xlink:href="#m3036842053" x="90" y="148.692482" style="stroke: #000000; stroke-width: 0.8"/>
      </g>
     </g>
     <g id="text_9">
      <!-- 0.4 -->
      <g transform="translate(67.096875 152.4917) scale(0.1 -0.1)">
       <defs>
        <path id="DejaVuSans-34" d="M 2419 4116 
L 825 1625 
L 2419 1625 
L 2419 4116 
z
M 2253 4666 
L 3047 4666 
L 3047 1625 
L 3713 1625 
L 3713 1100 
L 3047 1100 
L 3047 0 
L 2419 0 
L 2419 1100 
L 313 1100 
L 313 1709 
L 2253 4666 
z
" transform="scale(0.015625)"/>
       </defs>
       <use xlink:href="#DejaVuSans-30"/>
       <use xlink:href="#DejaVuSans-2e" x="63.623047"/>
       <use xlink:href="#DejaVuSans-34" x="95.410156"/>
      </g>
     </g>
    </g>
    <g id="ytick_4">
     <g id="line2d_11">
      <g>
       <use xlink:href="#m3036842053" x="90" y="126.918723" style="stroke: #000000; stroke-width: 0.8"/>
      </g>
     </g>
     <g id="text_10">
      <!-- 0.6 -->
      <g transform="translate(67.096875 130.717941) scale(0.1 -0.1)">
       <defs>
        <path id="DejaVuSans-36" d="M 2113 2584 
Q 1688 2584 1439 2293 
Q 1191 2003 1191 1497 
Q 1191 994 1439 701 
Q 1688 409 2113 409 
Q 2538 409 2786 701 
Q 3034 994 3034 1497 
Q 3034 2003 2786 2293 
Q 2538 2584 2113 2584 
z
M 3366 4563 
L 3366 3988 
Q 3128 4100 2886 4159 
Q 2644 4219 2406 4219 
Q 1781 4219 1451 3797 
Q 1122 3375 1075 2522 
Q 1259 2794 1537 2939 
Q 1816 3084 2150 3084 
Q 2853 3084 3261 2657 
Q 3669 2231 3669 1497 
Q 3669 778 3244 343 
Q 2819 -91 2113 -91 
Q 1303 -91 875 529 
Q 447 1150 447 2328 
Q 447 3434 972 4092 
Q 1497 4750 2381 4750 
Q 2619 4750 2861 4703 
Q 3103 4656 3366 4563 
z
" transform="scale(0.015625)"/>
       </defs>
       <use xlink:href="#DejaVuSans-30"/>
       <use xlink:href="#DejaVuSans-2e" x="63.623047"/>
       <use xlink:href="#DejaVuSans-36" x="95.410156"/>
      </g>
     </g>
    </g>
    <g id="ytick_5">
     <g id="line2d_12">
      <g>
       <use xlink:href="#m3036842053" x="90" y="105.144963" style="stroke: #000000; stroke-width: 0.8"/>
      </g>
     </g>
     <g id="text_11">
      <!-- 0.8 -->
      <g transform="translate(67.096875 108.944182) scale(0.1 -0.1)">
       <defs>
        <path id="DejaVuSans-38" d="M 2034 2216 
Q 1584 2216 1326 1975 
Q 1069 1734 1069 1313 
Q 1069 891 1326 650 
Q 1584 409 2034 409 
Q 2484 409 2743 651 
Q 3003 894 3003 1313 
Q 3003 1734 2745 1975 
Q 2488 2216 2034 2216 
z
M 1403 2484 
Q 997 2584 770 2862 
Q 544 3141 544 3541 
Q 544 4100 942 4425 
Q 1341 4750 2034 4750 
Q 2731 4750 3128 4425 
Q 3525 4100 3525 3541 
Q 3525 3141 3298 2862 
Q 3072 2584 2669 2484 
Q 3125 2378 3379 2068 
Q 3634 1759 3634 1313 
Q 3634 634 3220 271 
Q 2806 -91 2034 -91 
Q 1263 -91 848 271 
Q 434 634 434 1313 
Q 434 1759 690 2068 
Q 947 2378 1403 2484 
z
M 1172 3481 
Q 1172 3119 1398 2916 
Q 1625 2713 2034 2713 
Q 2441 2713 2670 2916 
Q 2900 3119 2900 3481 
Q 2900 3844 2670 4047 
Q 2441 4250 2034 4250 
Q 1625 4250 1398 4047 
Q 1172 3844 1172 3481 
z
" transform="scale(0.015625)"/>
       </defs>
       <use xlink:href="#DejaVuSans-30"/>
       <use xlink:href="#DejaVuSans-2e" x="63.623047"/>
       <use xlink:href="#DejaVuSans-38" x="95.410156"/>
      </g>
     </g>
    </g>
    <g id="ytick_6">
     <g id="line2d_13">
      <g>
       <use xlink:href="#m3036842053" x="90" y="83.371204" style="stroke: #000000; stroke-width: 0.8"/>
      </g>
     </g>
     <g id="text_12">
      <!-- 1.0 -->
      <g transform="translate(67.096875 87.170423) scale(0.1 -0.1)">
       <use xlink:href="#DejaVuSans-31"/>
       <use xlink:href="#DejaVuSans-2e" x="63.623047"/>
       <use xlink:href="#DejaVuSans-30" x="95.410156"/>
      </g>
     </g>
    </g>
    <g id="ytick_7">
     <g id="line2d_14">
      <g>
       <use xlink:href="#m3036842053" x="90" y="61.597445" style="stroke: #000000; stroke-width: 0.8"/>
      </g>
     </g>
     <g id="text_13">
      <!-- 1.2 -->
      <g transform="translate(67.096875 65.396664) scale(0.1 -0.1)">
       <use xlink:href="#DejaVuSans-31"/>
       <use xlink:href="#DejaVuSans-2e" x="63.623047"/>
       <use xlink:href="#DejaVuSans-32" x="95.410156"/>
      </g>
     </g>
    </g>
    <g id="ytick_8">
     <g id="line2d_15">
      <g>
       <use xlink:href="#m3036842053" x="90" y="39.823686" style="stroke: #000000; stroke-width: 0.8"/>
      </g>
     </g>
     <g id="text_14">
      <!-- 1.4 -->
      <g transform="translate(67.096875 43.622905) scale(0.1 -0.1)">
       <use xlink:href="#DejaVuSans-31"/>
       <use xlink:href="#DejaVuSans-2e" x="63.623047"/>
       <use xlink:href="#DejaVuSans-34" x="95.410156"/>
      </g>
     </g>
    </g>
   </g>
  </g>
 </g>
 <defs>
  <clipPath id="pd8df5b055d">
   <rect x="90" y="25.92" width="558" height="166.32"/>
  </clipPath>
 </defs>
</svg>
