<?xml version="1.0" encoding="utf-8" standalone="no"?>
<!DOCTYPE svg PUBLIC "-//W3C//DTD SVG 1.1//EN"
  "http://www.w3.org/Graphics/SVG/1.1/DTD/svg11.dtd">
<svg xmlns:xlink="http://www.w3.org/1999/xlink" width="720pt" height="216pt" viewBox="0 0 720 216" xmlns="http://www.w3.org/2000/svg" version="1.1">
 <metadata>
  <rdf:RDF xmlns:dc="http://purl.org/dc/elements/1.1/" xmlns:cc="http://creativecommons.org/ns#" xmlns:rdf="http://www.w3.org/1999/02/22-rdf-syntax-ns#">
   <cc:Work>
    <dc:type rdf:resource="http://purl.org/dc/dcmitype/StillImage"/>
    <dc:date>2025-12-17T10:23:03.530866</dc:date>
    <dc:format>image/svg+xml</dc:format>
    <dc:creator>
     <cc:Agent>
      <dc:title>Matplotlib v3.8.2, https://matplotlib.org/</dc:title>
     </cc:Agent>
    </dc:creator>
   </cc:Work>
  </rdf:RDF>
 </metadata>
 <defs>
  <style type="text/css">*{stroke-linejoin: round; stroke-linecap: butt}</style>
 </defs>
 <g id="figure_1">
  <g id="patch_1">
   <path d="M 0 216 
L 720 216 
L 720 0 
L 0 0 
z
" style="fill: #ffffff"/>
  </g>
  <g id="axes_1">
   <g id="patch_2">
    <path d="M 90 192.24 
L 648 192.24 
L 648 25.92 
L 90 25.92 
z
" style="fill: #ffffff"/>
   </g>
   <g id="line2d_1">
    <path d="M 90 192.24 
L 648 192.24 
" clip-path="url(#pdef465b258)" style="fill: none; stroke: #000000; stroke-width: 0.5; stroke-linecap: square"/>
   </g>
   <g id="patch_3">
    <path d="M 107.699499 192.147844 
Q 105.914476 192.193922 103.994584 192.217066 
Q 102.074692 192.24 100.027865 192.24 
Q 95.402671 192.24 92.701335 192.102817 
Q 90 191.965635 90 191.731035 
Q 90 191.493701 92.748936 191.35757 
Q 95.501839 191.221439 100.289668 191.221439 
Q 102.134193 191.221439 103.824015 191.239955 
Q 105.517804 191.25826 107.017224 191.294449 
L 107.017224 191.497488 
Q 105.470203 191.450989 103.93905 191.428055 
Q 102.407896 191.404911 100.868809 191.404911 
Q 98.020705 191.404911 96.477652 191.489493 
Q 94.934598 191.573864 94.934598 191.731035 
Q 94.934598 191.886733 96.422118 191.971736 
Q 97.909637 192.056529 100.646673 192.056529 
Q 101.392416 192.056529 102.031058 192.051689 
Q 102.6697 192.04664 103.17744 192.03612 
L 103.17744 191.845494 
L 100.261901 191.845494 
L 100.261901 191.675699 
L 107.699499 191.675699 
L 107.699499 192.147844 
z
" clip-path="url(#pdef465b258)" style="fill: #ffa600"/>
   </g>
   <g id="patch_4">
    <path d="M 102.260459 190.479239 
L 95.453516 190.479239 
L 94.378735 191.221439 
L 90 191.221439 
L 96.253268 187.147196 
L 101.446231 187.147196 
L 107.699499 191.221439 
L 103.324383 191.221439 
L 102.260459 190.479239 
z
M 96.539153 189.723068 
L 101.163965 189.723068 
L 98.855178 188.102452 
L 96.539153 189.723068 
z
" clip-path="url(#pdef465b258)" style="fill: #008000"/>
   </g>
   <g id="patch_5">
    <path d="M 107.699499 186.052049 
Q 106.218967 186.594889 104.618029 186.869464 
Q 103.017092 187.147196 101.273453 187.147196 
Q 96.073751 187.147196 93.036876 185.089455 
Q 90 183.031715 90 179.512725 
Q 90 175.981111 93.036876 173.926526 
Q 96.073751 171.868786 101.273453 171.868786 
Q 103.017092 171.868786 104.618029 172.146517 
Q 106.218967 172.421093 107.699499 172.963933 
L 107.699499 176.009516 
Q 106.205588 175.289938 104.756272 174.955397 
Q 103.306955 174.620856 101.706018 174.620856 
Q 98.834142 174.620856 97.18861 175.924303 
Q 95.547538 177.224593 95.547538 179.512725 
Q 95.547538 181.791389 97.18861 183.094835 
Q 98.834142 184.395126 101.706018 184.395126 
Q 103.306955 184.395126 104.756272 184.060585 
Q 106.205588 183.722888 107.699499 183.00331 
L 107.699499 186.052049 
z
" clip-path="url(#pdef465b258)" style="fill: #0000ff"/>
   </g>
   <g id="patch_6">
    <path d="M 90 108.718021 
L 107.699499 108.718021 
L 107.699499 121.034179 
L 101.331796 121.034179 
L 101.331796 171.868786 
L 96.380052 171.868786 
L 96.380052 121.034179 
L 90 121.034179 
L 90 108.718021 
z
" clip-path="url(#pdef465b258)" style="fill: #ff0000"/>
   </g>
   <g id="patch_7">
    <path d="M 126.330551 191.98871 
Q 124.545527 192.114355 122.625636 192.177464 
Q 120.705744 192.24 118.658917 192.24 
Q 114.033723 192.24 111.332387 191.865934 
Q 108.631052 191.491868 108.631052 190.852169 
Q 108.631052 190.205012 111.379988 189.833814 
Q 114.132891 189.462617 118.92072 189.462617 
Q 120.765244 189.462617 122.455067 189.513104 
Q 124.148856 189.563018 125.648275 189.661698 
L 125.648275 190.215339 
Q 124.101255 190.088546 122.570102 190.026011 
Q 121.038948 189.962901 119.499861 189.962901 
Q 116.651757 189.962901 115.108704 190.193537 
Q 113.56565 190.423599 113.56565 190.852169 
Q 113.56565 191.276722 115.053169 191.508506 
Q 116.540689 191.739715 119.277725 191.739715 
Q 120.023468 191.739715 120.66211 191.72652 
Q 121.300752 191.71275 121.808492 191.684064 
L 121.808492 191.164273 
L 118.892953 191.164273 
L 118.892953 190.70128 
L 126.330551 190.70128 
L 126.330551 191.98871 
z
" clip-path="url(#pdef465b258)" style="fill: #ffa600"/>
   </g>
   <g id="patch_8">
    <path d="M 108.631052 175.575701 
L 126.330551 175.575701 
L 126.330551 178.284036 
L 119.962847 178.284036 
L 119.962847 189.462617 
L 115.011104 189.462617 
L 115.011104 178.284036 
L 108.631052 178.284036 
L 108.631052 175.575701 
z
" clip-path="url(#pdef465b258)" style="fill: #ff0000"/>
   </g>
   <g id="patch_9">
    <path d="M 120.89151 157.867353 
L 114.084567 157.867353 
L 113.009787 175.575701 
L 108.631052 175.575701 
L 114.88432 78.367288 
L 120.077283 78.367288 
L 126.330551 175.575701 
L 121.955434 175.575701 
L 120.89151 157.867353 
z
M 115.170204 139.825671 
L 119.795017 139.825671 
L 117.48623 101.158973 
L 115.170204 139.825671 
z
" clip-path="url(#pdef465b258)" style="fill: #008000"/>
   </g>
   <g id="patch_10">
    <path d="M 144.961603 192.057212 
Q 143.48107 192.147816 141.880133 192.193645 
Q 140.279195 192.24 138.535556 192.24 
Q 133.335855 192.24 130.298979 191.896548 
Q 127.262104 191.553097 127.262104 190.965752 
Q 127.262104 190.3763 130.298979 190.033375 
Q 133.335855 189.689924 138.535556 189.689924 
Q 140.279195 189.689924 141.880133 189.736279 
Q 143.48107 189.782108 144.961603 189.872712 
L 144.961603 190.381041 
Q 143.467692 190.260939 142.018375 190.205101 
Q 140.569059 190.149264 138.968121 190.149264 
Q 136.096245 190.149264 134.450713 190.366819 
Q 132.809641 190.583846 132.809641 190.965752 
Q 132.809641 191.346077 134.450713 191.563632 
Q 136.096245 191.78066 138.968121 191.78066 
Q 140.569059 191.78066 142.018375 191.724822 
Q 143.467692 191.668458 144.961603 191.548356 
L 144.961603 192.057212 
z
" clip-path="url(#pdef465b258)" style="fill: #0000ff"/>
   </g>
   <g id="patch_11">
    <path d="M 127.262104 184.589771 
L 144.961603 184.589771 
L 144.961603 185.584443 
L 138.593899 185.584443 
L 138.593899 189.689924 
L 133.642156 189.689924 
L 133.642156 185.584443 
L 127.262104 185.584443 
L 127.262104 184.589771 
z
" clip-path="url(#pdef465b258)" style="fill: #ff0000"/>
   </g>
   <g id="patch_12">
    <path d="M 144.961603 183.589969 
Q 143.176579 184.08987 141.256687 184.340962 
Q 139.336795 184.589771 137.289969 184.589771 
Q 132.664774 184.589771 129.963439 183.101481 
Q 127.262104 181.61319 127.262104 179.06803 
Q 127.262104 176.493196 130.01104 175.016318 
Q 132.763942 173.539441 137.551772 173.539441 
Q 139.396296 173.539441 141.086118 173.740314 
Q 142.779907 173.938905 144.279327 174.331522 
L 144.279327 176.534284 
Q 142.732307 176.029817 141.201153 175.781008 
Q 139.67 175.529916 138.130913 175.529916 
Q 135.282809 175.529916 133.739755 176.447543 
Q 132.196702 177.362887 132.196702 179.06803 
Q 132.196702 180.757194 133.684221 181.679387 
Q 135.171741 182.599297 137.908777 182.599297 
Q 138.65452 182.599297 139.293162 182.546795 
Q 139.931803 182.492012 140.439543 182.377879 
L 140.439543 180.309794 
L 137.524005 180.309794 
L 137.524005 178.467692 
L 144.961603 178.467692 
L 144.961603 183.589969 
z
" clip-path="url(#pdef465b258)" style="fill: #ffa600"/>
   </g>
   <g id="patch_13">
    <path d="M 139.522562 164.24855 
L 132.715619 164.24855 
L 131.640839 173.539441 
L 127.262104 173.539441 
L 133.515372 122.537916 
L 138.708335 122.537916 
L 144.961603 173.539441 
L 140.586486 173.539441 
L 139.522562 164.24855 
z
M 133.801256 154.782772 
L 138.426069 154.782772 
L 136.117281 134.495839 
L 133.801256 154.782772 
z
" clip-path="url(#pdef465b258)" style="fill: #008000"/>
   </g>
   <g id="patch_14">
    <path d="M 163.592654 192.001168 
Q 161.807631 192.120584 159.887739 192.180565 
Q 157.967847 192.24 155.92102 192.24 
Q 151.295826 192.24 148.594491 191.884478 
Q 145.893155 191.528957 145.893155 190.920971 
Q 145.893155 190.305897 148.642091 189.953102 
Q 151.394994 189.600306 156.182824 189.600306 
Q 158.027348 189.600306 159.71717 189.648291 
Q 161.410959 189.69573 162.910379 189.789518 
L 162.910379 190.315712 
Q 161.363358 190.195205 159.832205 190.13577 
Q 158.301052 190.075789 156.761965 190.075789 
Q 153.913861 190.075789 152.370807 190.294991 
Q 150.827753 190.513648 150.827753 190.920971 
Q 150.827753 191.324477 152.315273 191.54477 
Q 153.802792 191.764517 156.539828 191.764517 
Q 157.285572 191.764517 157.924213 191.751976 
Q 158.562855 191.738889 159.070595 191.711625 
L 159.070595 191.217603 
L 156.155057 191.217603 
L 156.155057 190.777563 
L 163.592654 190.777563 
L 163.592654 192.001168 
z
" clip-path="url(#pdef465b258)" style="fill: #ffa600"/>
   </g>
   <g id="patch_15">
    <path d="M 145.893155 173.762145 
L 163.592654 173.762145 
L 163.592654 176.851027 
L 157.224951 176.851027 
L 157.224951 189.600306 
L 152.273207 189.600306 
L 152.273207 176.851027 
L 145.893155 176.851027 
L 145.893155 173.762145 
z
" clip-path="url(#pdef465b258)" style="fill: #ff0000"/>
   </g>
   <g id="patch_16">
    <path d="M 158.153614 157.412563 
L 151.346671 157.412563 
L 150.27189 173.762145 
L 145.893155 173.762145 
L 152.146423 84.012561 
L 157.339386 84.012561 
L 163.592654 173.762145 
L 159.217538 173.762145 
L 158.153614 157.412563 
z
M 152.432308 140.755225 
L 157.057121 140.755225 
L 154.748333 105.055434 
L 152.432308 140.755225 
z
" clip-path="url(#pdef465b258)" style="fill: #008000"/>
   </g>
   <g id="patch_17">
    <path d="M 164.524207 189.931365 
L 182.223706 189.931365 
L 182.223706 190.381613 
L 175.856003 190.381613 
L 175.856003 192.24 
L 170.904259 192.24 
L 170.904259 190.381613 
L 164.524207 190.381613 
L 164.524207 189.931365 
z
" clip-path="url(#pdef465b258)" style="fill: #ff0000"/>
   </g>
   <g id="patch_18">
    <path d="M 182.223706 188.44203 
Q 180.743174 189.18026 179.142236 189.553666 
Q 177.541299 189.931365 175.79766 189.931365 
Q 170.597958 189.931365 167.561083 187.132961 
Q 164.524207 184.334558 164.524207 179.548944 
Q 164.524207 174.746163 167.561083 171.952051 
Q 170.597958 169.153648 175.79766 169.153648 
Q 177.541299 169.153648 179.142236 169.531347 
Q 180.743174 169.904753 182.223706 170.642982 
L 182.223706 174.784791 
Q 180.729795 173.806208 179.280479 173.351253 
Q 177.831162 172.896298 176.230225 172.896298 
Q 173.358349 172.896298 171.712817 174.668906 
Q 170.071745 176.437223 170.071745 179.548944 
Q 170.071745 182.64779 171.712817 184.420398 
Q 173.358349 186.188715 176.230225 186.188715 
Q 177.831162 186.188715 179.280479 185.73376 
Q 180.729795 185.274512 182.223706 184.295929 
L 182.223706 188.44203 
z
" clip-path="url(#pdef465b258)" style="fill: #0000ff"/>
   </g>
   <g id="patch_19">
    <path d="M 176.784666 156.116242 
L 169.977723 156.116242 
L 168.902942 169.153648 
L 164.524207 169.153648 
L 170.777475 97.585956 
L 175.970438 97.585956 
L 182.223706 169.153648 
L 177.84859 169.153648 
L 176.784666 156.116242 
z
M 171.06336 142.833425 
L 175.688172 142.833425 
L 173.379385 114.365865 
L 171.06336 142.833425 
z
" clip-path="url(#pdef465b258)" style="fill: #008000"/>
   </g>
   <g id="patch_20">
    <path d="M 183.155259 183.020386 
L 200.854758 183.020386 
L 200.854758 184.818467 
L 194.487054 184.818467 
L 194.487054 192.24 
L 189.535311 192.24 
L 189.535311 184.818467 
L 183.155259 184.818467 
L 183.155259 183.020386 
z
" clip-path="url(#pdef465b258)" style="fill: #ff0000"/>
   </g>
   <g id="patch_21">
    <path d="M 195.415717 180.730122 
L 188.608774 180.730122 
L 187.533994 183.020386 
L 183.155259 183.020386 
L 189.408527 170.448184 
L 194.60149 170.448184 
L 200.854758 183.020386 
L 196.479641 183.020386 
L 195.415717 180.730122 
z
M 189.694411 178.396747 
L 194.319224 178.396747 
L 192.010437 173.395888 
L 189.694411 178.396747 
z
" clip-path="url(#pdef465b258)" style="fill: #008000"/>
   </g>
   <g id="patch_22">
    <path d="M 200.854758 167.083824 
Q 199.374225 168.751461 197.773288 169.594975 
Q 196.172351 170.448184 194.428711 170.448184 
Q 189.22901 170.448184 186.192134 164.126677 
Q 183.155259 157.80517 183.155259 146.994618 
Q 183.155259 136.145284 186.192134 129.833472 
Q 189.22901 123.511965 194.428711 123.511965 
Q 196.172351 123.511965 197.773288 124.365175 
Q 199.374225 125.208689 200.854758 126.876326 
L 200.854758 136.232544 
Q 199.360847 134.021955 197.911531 132.994226 
Q 196.462214 131.966496 194.861277 131.966496 
Q 191.9894 131.966496 190.343869 135.970763 
Q 188.702796 139.965335 188.702796 146.994618 
Q 188.702796 153.994814 190.343869 157.999082 
Q 191.9894 161.993654 194.861277 161.993654 
Q 196.462214 161.993654 197.911531 160.965924 
Q 199.360847 159.928499 200.854758 157.71791 
L 200.854758 167.083824 
z
" clip-path="url(#pdef465b258)" style="fill: #0000ff"/>
   </g>
   <g id="patch_23">
    <path d="M 219.48581 192.027807 
Q 217.700786 192.133903 215.780894 192.187194 
Q 213.861002 192.24 211.814176 192.24 
Q 207.188981 192.24 204.487646 191.924133 
Q 201.786311 191.608266 201.786311 191.068094 
Q 201.786311 190.521624 204.535247 190.208179 
Q 207.288149 189.894734 212.075979 189.894734 
Q 213.920503 189.894734 215.610325 189.937367 
Q 217.304114 189.979514 218.803534 190.062841 
L 218.803534 190.530344 
Q 217.256514 190.423279 215.72536 190.370473 
Q 214.194207 190.317182 212.65512 190.317182 
Q 209.807016 190.317182 208.263962 190.511935 
Q 206.720909 190.706203 206.720909 191.068094 
Q 206.720909 191.426593 208.208428 191.622315 
Q 209.695948 191.817552 212.432984 191.817552 
Q 213.178727 191.817552 213.817369 191.806409 
Q 214.45601 191.794782 214.96375 191.770559 
L 214.96375 191.331639 
L 212.048212 191.331639 
L 212.048212 190.940681 
L 219.48581 190.940681 
L 219.48581 192.027807 
z
" clip-path="url(#pdef465b258)" style="fill: #ffa600"/>
   </g>
   <g id="patch_24">
    <path d="M 201.786311 185.673256 
L 219.48581 185.673256 
L 219.48581 186.496562 
L 213.118106 186.496562 
L 213.118106 189.894734 
L 208.166363 189.894734 
L 208.166363 186.496562 
L 201.786311 186.496562 
L 201.786311 185.673256 
z
" clip-path="url(#pdef465b258)" style="fill: #ff0000"/>
   </g>
   <g id="patch_25">
    <path d="M 214.046769 183.878871 
L 207.239826 183.878871 
L 206.165046 185.673256 
L 201.786311 185.673256 
L 208.039579 175.823139 
L 213.232542 175.823139 
L 219.48581 185.673256 
L 215.110693 185.673256 
L 214.046769 183.878871 
z
M 208.325463 182.05071 
L 212.950276 182.05071 
L 210.641488 178.132618 
L 208.325463 182.05071 
z
" clip-path="url(#pdef465b258)" style="fill: #008000"/>
   </g>
   <g id="patch_26">
    <path d="M 219.48581 174.242931 
Q 218.005277 175.026204 216.40434 175.422395 
Q 214.803402 175.823139 213.059763 175.823139 
Q 207.860062 175.823139 204.823186 172.853987 
Q 201.786311 169.884835 201.786311 164.807221 
Q 201.786311 159.71139 204.823186 156.746792 
Q 207.860062 153.77764 213.059763 153.77764 
Q 214.803402 153.77764 216.40434 154.178385 
Q 218.005277 154.574575 219.48581 155.357848 
L 219.48581 159.752376 
Q 217.991899 158.714083 216.542582 158.231368 
Q 215.093266 157.748653 213.492328 157.748653 
Q 210.620452 157.748653 208.97492 159.62942 
Q 207.333848 161.505633 207.333848 164.807221 
Q 207.333848 168.095147 208.97492 169.975913 
Q 210.620452 171.852126 213.492328 171.852126 
Q 215.093266 171.852126 216.542582 171.369411 
Q 217.991899 170.882142 219.48581 169.84385 
L 219.48581 174.242931 
z
" clip-path="url(#pdef465b258)" style="fill: #0000ff"/>
   </g>
   <g id="patch_27">
    <path d="M 238.116861 192.137798 
Q 236.331838 192.188899 234.411946 192.214566 
Q 232.492054 192.24 230.445227 192.24 
Q 225.820033 192.24 223.118698 192.087863 
Q 220.417362 191.935727 220.417362 191.675554 
Q 220.417362 191.412349 223.166298 191.261379 
Q 225.919201 191.110409 230.707031 191.110409 
Q 232.551555 191.110409 234.241377 191.130943 
Q 235.935166 191.151243 237.434586 191.191377 
L 237.434586 191.416549 
Q 235.887565 191.364981 234.356412 191.339547 
Q 232.825259 191.31388 231.286172 191.31388 
Q 228.438068 191.31388 226.895014 191.407682 
Q 225.35196 191.501251 225.35196 191.675554 
Q 225.35196 191.848225 226.83948 191.942494 
Q 228.327 192.036529 231.064035 192.036529 
Q 231.809779 192.036529 232.44842 192.031162 
Q 233.087062 192.025562 233.594802 192.013895 
L 233.594802 191.802491 
L 230.679264 191.802491 
L 230.679264 191.614186 
L 238.116861 191.614186 
L 238.116861 192.137798 
z
" clip-path="url(#pdef465b258)" style="fill: #ffa600"/>
   </g>
   <g id="patch_28">
    <path d="M 238.116861 190.867504 
Q 236.636329 190.987906 235.035392 191.048808 
Q 233.434454 191.110409 231.690815 191.110409 
Q 226.491113 191.110409 223.454238 190.653999 
Q 220.417362 190.197589 220.417362 189.417072 
Q 220.417362 188.633755 223.454238 188.178046 
Q 226.491113 187.721636 231.690815 187.721636 
Q 233.434454 187.721636 235.035392 187.783237 
Q 236.636329 187.844138 238.116861 187.964541 
L 238.116861 188.640056 
Q 236.622951 188.480452 235.173634 188.406251 
Q 233.724318 188.332049 232.12338 188.332049 
Q 229.251504 188.332049 227.605972 188.621155 
Q 225.9649 188.909561 225.9649 189.417072 
Q 225.9649 189.922483 227.605972 190.21159 
Q 229.251504 190.499996 232.12338 190.499996 
Q 233.724318 190.499996 235.173634 190.425794 
Q 236.622951 190.350893 238.116861 190.191289 
L 238.116861 190.867504 
z
" clip-path="url(#pdef465b258)" style="fill: #0000ff"/>
   </g>
   <g id="patch_29">
    <path d="M 232.677821 185.046543 
L 225.870878 185.046543 
L 224.796097 187.721636 
L 220.417362 187.721636 
L 226.67063 173.036952 
L 231.863593 173.036952 
L 238.116861 187.721636 
L 233.741745 187.721636 
L 232.677821 185.046543 
z
M 226.956515 182.321096 
L 231.581328 182.321096 
L 229.27254 176.479953 
L 226.956515 182.321096 
z
" clip-path="url(#pdef465b258)" style="fill: #008000"/>
   </g>
   <g id="patch_30">
    <path d="M 220.417362 99.613532 
L 238.116861 99.613532 
L 238.116861 113.933145 
L 231.749158 113.933145 
L 231.749158 173.036952 
L 226.797414 173.036952 
L 226.797414 113.933145 
L 220.417362 113.933145 
L 220.417362 99.613532 
z
" clip-path="url(#pdef465b258)" style="fill: #ff0000"/>
   </g>
   <g id="patch_31">
    <path d="M 251.308873 192.047188 
L 244.50193 192.047188 
L 243.427149 192.24 
L 239.048414 192.24 
L 245.301682 191.181576 
L 250.494645 191.181576 
L 256.747913 192.24 
L 252.372797 192.24 
L 251.308873 192.047188 
z
M 245.587567 191.850747 
L 250.212379 191.850747 
L 247.903592 191.429736 
L 245.587567 191.850747 
z
" clip-path="url(#pdef465b258)" style="fill: #008000"/>
   </g>
   <g id="patch_32">
    <path d="M 256.747913 190.990049 
Q 254.96289 191.085812 253.042998 191.133913 
Q 251.123106 191.181576 249.076279 191.181576 
Q 244.451085 191.181576 241.74975 190.896472 
Q 239.048414 190.611369 239.048414 190.123807 
Q 239.048414 189.630561 241.79735 189.347644 
Q 244.550253 189.064727 249.338083 189.064727 
Q 251.182607 189.064727 252.872429 189.103207 
Q 254.566218 189.14125 256.065638 189.216461 
L 256.065638 189.638432 
Q 254.518617 189.541794 252.987464 189.494131 
Q 251.45631 189.446031 249.917223 189.446031 
Q 247.069119 189.446031 245.526066 189.621815 
Q 243.983012 189.797162 243.983012 190.123807 
Q 243.983012 190.447391 245.470532 190.62405 
Q 246.958051 190.800272 249.695087 190.800272 
Q 250.44083 190.800272 251.079472 190.790214 
Q 251.718114 190.77972 252.225854 190.757856 
L 252.225854 190.361685 
L 249.310315 190.361685 
L 249.310315 190.008804 
L 256.747913 190.008804 
L 256.747913 190.990049 
z
" clip-path="url(#pdef465b258)" style="fill: #ffa600"/>
   </g>
   <g id="patch_33">
    <path d="M 239.048414 170.013087 
L 256.747913 170.013087 
L 256.747913 173.728687 
L 250.38021 173.728687 
L 250.38021 189.064727 
L 245.428466 189.064727 
L 245.428466 173.728687 
L 239.048414 173.728687 
L 239.048414 170.013087 
z
" clip-path="url(#pdef465b258)" style="fill: #ff0000"/>
   </g>
   <g id="patch_34">
    <path d="M 256.747913 165.385185 
Q 255.267381 167.679131 253.666443 168.83944 
Q 252.065506 170.013087 250.321867 170.013087 
Q 245.122165 170.013087 242.08529 161.317433 
Q 239.048414 152.62178 239.048414 137.751146 
Q 239.048414 122.827165 242.08529 114.144848 
Q 245.122165 105.449195 250.321867 105.449195 
Q 252.065506 105.449195 253.666443 106.622842 
Q 255.267381 107.783151 256.747913 110.077096 
L 256.747913 122.947197 
Q 255.254002 119.906385 253.804686 118.492675 
Q 252.355369 117.078964 250.754432 117.078964 
Q 247.882556 117.078964 246.237024 122.587101 
Q 244.595952 128.0819 244.595952 137.751146 
Q 244.595952 147.380382 246.237024 152.888518 
Q 247.882556 158.383317 250.754432 158.383317 
Q 252.355369 158.383317 253.804686 156.969607 
Q 255.254002 155.542559 256.747913 152.501748 
L 256.747913 165.385185 
z
" clip-path="url(#pdef465b258)" style="fill: #0000ff"/>
   </g>
   <g id="patch_35">
    <path d="M 275.378965 192.179965 
Q 273.898432 192.209723 272.297495 192.224775 
Q 270.696558 192.24 268.952919 192.24 
Q 263.753217 192.24 260.716341 192.127196 
Q 257.679466 192.014392 257.679466 191.821484 
Q 257.679466 191.627884 260.716341 191.515253 
Q 263.753217 191.402449 268.952919 191.402449 
Q 270.696558 191.402449 272.297495 191.417674 
Q 273.898432 191.432726 275.378965 191.462484 
L 275.378965 191.629441 
Q 273.885054 191.589994 272.435738 191.571655 
Q 270.986421 191.553316 269.385484 191.553316 
Q 266.513607 191.553316 264.868076 191.624769 
Q 263.227003 191.69605 263.227003 191.821484 
Q 263.227003 191.946399 264.868076 192.017853 
Q 266.513607 192.089134 269.385484 192.089134 
Q 270.986421 192.089134 272.435738 192.070794 
Q 273.885054 192.052282 275.378965 192.012835 
L 275.378965 192.179965 
z
" clip-path="url(#pdef465b258)" style="fill: #0000ff"/>
   </g>
   <g id="patch_36">
    <path d="M 275.378965 191.023553 
Q 273.593941 191.213001 271.67405 191.308158 
Q 269.754158 191.402449 267.707331 191.402449 
Q 263.082137 191.402449 260.380801 190.83843 
Q 257.679466 190.274411 257.679466 189.30987 
Q 257.679466 188.334082 260.428402 187.774388 
Q 263.181305 187.214695 267.969134 187.214695 
Q 269.813659 187.214695 271.503481 187.29082 
Q 273.19727 187.36608 274.696689 187.51487 
L 274.696689 188.349653 
Q 273.149669 188.158475 271.618516 188.064183 
Q 270.087362 187.969027 268.548275 187.969027 
Q 265.700171 187.969027 264.157118 188.316781 
Q 262.614064 188.66367 262.614064 189.30987 
Q 262.614064 189.950014 264.101583 190.299498 
Q 265.589103 190.648117 268.326139 190.648117 
Q 269.071882 190.648117 269.710524 190.628221 
Q 270.349166 190.607459 270.856906 190.564206 
L 270.856906 189.780462 
L 267.941367 189.780462 
L 267.941367 189.082359 
L 275.378965 189.082359 
L 275.378965 191.023553 
z
" clip-path="url(#pdef465b258)" style="fill: #ffa600"/>
   </g>
   <g id="patch_37">
    <path d="M 269.939924 184.010605 
L 263.132981 184.010605 
L 262.058201 187.214695 
L 257.679466 187.214695 
L 263.932734 169.626126 
L 269.125697 169.626126 
L 275.378965 187.214695 
L 271.003849 187.214695 
L 269.939924 184.010605 
z
M 264.218618 180.746203 
L 268.843431 180.746203 
L 266.534644 173.749978 
L 264.218618 180.746203 
z
" clip-path="url(#pdef465b258)" style="fill: #008000"/>
   </g>
   <g id="patch_38">
    <path d="M 257.679466 123.560828 
L 275.378965 123.560828 
L 275.378965 132.544844 
L 269.011261 132.544844 
L 269.011261 169.626126 
L 264.059518 169.626126 
L 264.059518 132.544844 
L 257.679466 132.544844 
L 257.679466 123.560828 
z
" clip-path="url(#pdef465b258)" style="fill: #ff0000"/>
   </g>
   <g id="patch_39">
    <path d="M 276.310518 190.711852 
L 294.010017 190.711852 
L 294.010017 191.009883 
L 287.642313 191.009883 
L 287.642313 192.24 
L 282.69057 192.24 
L 282.69057 191.009883 
L 276.310518 191.009883 
L 276.310518 190.711852 
z
" clip-path="url(#pdef465b258)" style="fill: #ff0000"/>
   </g>
   <g id="patch_40">
    <path d="M 294.010017 190.573589 
Q 292.224993 190.64272 290.305101 190.677444 
Q 288.385209 190.711852 286.338383 190.711852 
Q 281.713188 190.711852 279.011853 190.506036 
Q 276.310518 190.300221 276.310518 189.948251 
Q 276.310518 189.592178 279.059454 189.387941 
Q 281.812356 189.183703 286.600186 189.183703 
Q 288.44471 189.183703 290.134532 189.211482 
Q 291.828321 189.238945 293.327741 189.29324 
L 293.327741 189.59786 
Q 291.780721 189.528097 290.249567 189.493689 
Q 288.718414 189.458966 287.179327 189.458966 
Q 284.331223 189.458966 282.788169 189.585864 
Q 281.245116 189.712447 281.245116 189.948251 
Q 281.245116 190.181845 282.732635 190.309375 
Q 284.220155 190.436589 286.957191 190.436589 
Q 287.702934 190.436589 288.341576 190.429329 
Q 288.980217 190.421753 289.487957 190.405969 
L 289.487957 190.119974 
L 286.572419 190.119974 
L 286.572419 189.86523 
L 294.010017 189.86523 
L 294.010017 190.573589 
z
" clip-path="url(#pdef465b258)" style="fill: #ffa600"/>
   </g>
   <g id="patch_41">
    <path d="M 294.010017 188.526483 
Q 292.529484 188.852252 290.928547 189.017031 
Q 289.32761 189.183703 287.58397 189.183703 
Q 282.384269 189.183703 279.347393 187.948811 
Q 276.310518 186.713918 276.310518 184.602099 
Q 276.310518 182.482705 279.347393 181.249706 
Q 282.384269 180.014813 287.58397 180.014813 
Q 289.32761 180.014813 290.928547 180.181486 
Q 292.529484 180.346265 294.010017 180.672034 
L 294.010017 182.499751 
Q 292.516106 182.067918 291.066789 181.867153 
Q 289.617473 181.666388 288.016535 181.666388 
Q 285.144659 181.666388 283.499127 182.448613 
Q 281.858055 183.228944 281.858055 184.602099 
Q 281.858055 185.969573 283.499127 186.751798 
Q 285.144659 187.532129 288.016535 187.532129 
Q 289.617473 187.532129 291.066789 187.331364 
Q 292.516106 187.128705 294.010017 186.696872 
L 294.010017 188.526483 
z
" clip-path="url(#pdef465b258)" style="fill: #0000ff"/>
   </g>
   <g id="patch_42">
    <path d="M 288.570976 159.414614 
L 281.764033 159.414614 
L 280.689253 180.014813 
L 276.310518 180.014813 
L 282.563786 66.931838 
L 287.756749 66.931838 
L 294.010017 180.014813 
L 289.6349 180.014813 
L 288.570976 159.414614 
z
M 282.84967 138.426647 
L 287.474483 138.426647 
L 285.165695 93.445506 
L 282.84967 138.426647 
z
" clip-path="url(#pdef465b258)" style="fill: #008000"/>
   </g>
   <g id="patch_43">
    <path d="M 312.641068 191.81434 
Q 311.160536 192.02533 309.559599 192.132052 
Q 307.958661 192.24 306.215022 192.24 
Q 301.01532 192.24 297.978445 191.440201 
Q 294.941569 190.640402 294.941569 189.272647 
Q 294.941569 187.899986 297.978445 187.101413 
Q 301.01532 186.301614 306.215022 186.301614 
Q 307.958661 186.301614 309.559599 186.409563 
Q 311.160536 186.516284 312.641068 186.727274 
L 312.641068 187.911026 
Q 311.147158 187.631342 309.697841 187.501313 
Q 308.248525 187.371284 306.647587 187.371284 
Q 303.775711 187.371284 302.130179 187.877905 
Q 300.489107 188.3833 300.489107 189.272647 
Q 300.489107 190.158314 302.130179 190.664935 
Q 303.775711 191.17033 306.647587 191.17033 
Q 308.248525 191.17033 309.697841 191.040301 
Q 311.147158 190.909046 312.641068 190.629362 
L 312.641068 191.81434 
z
" clip-path="url(#pdef465b258)" style="fill: #0000ff"/>
   </g>
   <g id="patch_44">
    <path d="M 307.202028 183.056247 
L 300.395085 183.056247 
L 299.320305 186.301614 
L 294.941569 186.301614 
L 301.194837 168.486457 
L 306.3878 168.486457 
L 312.641068 186.301614 
L 308.265952 186.301614 
L 307.202028 183.056247 
z
M 301.480722 179.749791 
L 306.105535 179.749791 
L 303.796747 172.663436 
L 301.480722 179.749791 
z
" clip-path="url(#pdef465b258)" style="fill: #008000"/>
   </g>
   <g id="patch_45">
    <path d="M 294.941569 122.676053 
L 312.641068 122.676053 
L 312.641068 131.610358 
L 306.273365 131.610358 
L 306.273365 168.486457 
L 301.321621 168.486457 
L 301.321621 131.610358 
L 294.941569 131.610358 
L 294.941569 122.676053 
z
" clip-path="url(#pdef465b258)" style="fill: #ff0000"/>
   </g>
   <g id="patch_46">
    <path d="M 331.27212 192.046974 
Q 329.487097 192.143487 327.567205 192.191964 
Q 325.647313 192.24 323.600486 192.24 
Q 318.975292 192.24 316.273957 191.952664 
Q 313.572621 191.665328 313.572621 191.173949 
Q 313.572621 190.676841 316.321557 190.391708 
Q 319.07446 190.106576 323.86229 190.106576 
Q 325.706814 190.106576 327.396636 190.145358 
Q 329.090425 190.183698 330.589845 190.259499 
L 330.589845 190.684773 
Q 329.042824 190.587379 327.511671 190.539343 
Q 325.980517 190.490866 324.44143 190.490866 
Q 321.593326 190.490866 320.050273 190.668027 
Q 318.507219 190.844747 318.507219 191.173949 
Q 318.507219 191.500066 319.994739 191.678109 
Q 321.482258 191.85571 324.219294 191.85571 
Q 324.965037 191.85571 325.603679 191.845574 
Q 326.242321 191.834998 326.750061 191.812963 
L 326.750061 191.413689 
L 323.834523 191.413689 
L 323.834523 191.058045 
L 331.27212 191.058045 
L 331.27212 192.046974 
z
" clip-path="url(#pdef465b258)" style="fill: #ffa600"/>
   </g>
   <g id="patch_47">
    <path d="M 331.27212 189.902679 
Q 329.791588 190.003746 328.19065 190.054867 
Q 326.589713 190.106576 324.846074 190.106576 
Q 319.646372 190.106576 316.609497 189.723462 
Q 313.572621 189.340347 313.572621 188.685175 
Q 313.572621 188.027652 316.609497 187.645125 
Q 319.646372 187.262011 324.846074 187.262011 
Q 326.589713 187.262011 328.19065 187.31372 
Q 329.791588 187.364841 331.27212 187.465908 
L 331.27212 188.03294 
Q 329.778209 187.898968 328.328893 187.836682 
Q 326.879576 187.774397 325.278639 187.774397 
Q 322.406763 187.774397 320.761231 188.017075 
Q 319.120159 188.259166 319.120159 188.685175 
Q 319.120159 189.109421 320.761231 189.352099 
Q 322.406763 189.59419 325.278639 189.59419 
Q 326.879576 189.59419 328.328893 189.531905 
Q 329.778209 189.469032 331.27212 189.335059 
L 331.27212 189.902679 
z
" clip-path="url(#pdef465b258)" style="fill: #0000ff"/>
   </g>
   <g id="patch_48">
    <path d="M 313.572621 170.19462 
L 331.27212 170.19462 
L 331.27212 173.523237 
L 324.904417 173.523237 
L 324.904417 187.262011 
L 319.952673 187.262011 
L 319.952673 173.523237 
L 313.572621 173.523237 
L 313.572621 170.19462 
z
" clip-path="url(#pdef465b258)" style="fill: #ff0000"/>
   </g>
   <g id="patch_49">
    <path d="M 325.83308 163.587681 
L 319.026137 163.587681 
L 317.951356 170.19462 
L 313.572621 170.19462 
L 319.825889 133.926414 
L 325.018852 133.926414 
L 331.27212 170.19462 
L 326.897004 170.19462 
L 325.83308 163.587681 
z
M 320.111774 156.856377 
L 324.736586 156.856377 
L 322.427799 142.429932 
L 320.111774 156.856377 
z
" clip-path="url(#pdef465b258)" style="fill: #008000"/>
   </g>
   <g id="patch_50">
    <path d="M 349.903172 192.10397 
Q 348.118149 192.171985 346.198257 192.206148 
Q 344.278365 192.24 342.231538 192.24 
Q 337.606344 192.24 334.905008 192.037507 
Q 332.203673 191.835015 332.203673 191.488728 
Q 332.203673 191.138403 334.952609 190.937464 
Q 337.705512 190.736524 342.493341 190.736524 
Q 344.337866 190.736524 346.027688 190.763854 
Q 347.721477 190.790874 349.220896 190.844292 
L 349.220896 191.143994 
Q 347.673876 191.075357 346.142723 191.041505 
Q 344.611569 191.007342 343.072482 191.007342 
Q 340.224378 191.007342 338.681325 191.132192 
Q 337.138271 191.256731 337.138271 191.488728 
Q 337.138271 191.718551 338.62579 191.844022 
Q 340.11331 191.969182 342.850346 191.969182 
Q 343.596089 191.969182 344.234731 191.962039 
Q 344.873373 191.954585 345.381113 191.939056 
L 345.381113 191.657679 
L 342.465574 191.657679 
L 342.465574 191.407048 
L 349.903172 191.407048 
L 349.903172 192.10397 
z
" clip-path="url(#pdef465b258)" style="fill: #ffa600"/>
   </g>
   <g id="patch_51">
    <path d="M 349.903172 190.520987 
Q 348.422639 190.627824 346.821702 190.681863 
Q 345.220765 190.736524 343.477126 190.736524 
Q 338.277424 190.736524 335.240548 190.331539 
Q 332.203673 189.926554 332.203673 189.23398 
Q 332.203673 188.538921 335.240548 188.134557 
Q 338.277424 187.729572 343.477126 187.729572 
Q 345.220765 187.729572 346.821702 187.784233 
Q 348.422639 187.838272 349.903172 187.945109 
L 349.903172 188.544511 
Q 348.409261 188.402891 346.959945 188.33705 
Q 345.510628 188.271209 343.909691 188.271209 
Q 341.037814 188.271209 339.392283 188.52774 
Q 337.75121 188.783651 337.75121 189.23398 
Q 337.75121 189.682445 339.392283 189.938977 
Q 341.037814 190.194888 343.909691 190.194888 
Q 345.510628 190.194888 346.959945 190.129046 
Q 348.409261 190.062584 349.903172 189.920964 
L 349.903172 190.520987 
z
" clip-path="url(#pdef465b258)" style="fill: #0000ff"/>
   </g>
   <g id="patch_52">
    <path d="M 332.203673 180.212192 
L 349.903172 180.212192 
L 349.903172 181.678291 
L 343.535468 181.678291 
L 343.535468 187.729572 
L 338.583725 187.729572 
L 338.583725 181.678291 
L 332.203673 181.678291 
L 332.203673 180.212192 
z
" clip-path="url(#pdef465b258)" style="fill: #ff0000"/>
   </g>
   <g id="patch_53">
    <path d="M 344.464131 159.944588 
L 337.657188 159.944588 
L 336.582408 180.212192 
L 332.203673 180.212192 
L 338.456941 68.954969 
L 343.649904 68.954969 
L 349.903172 180.212192 
L 345.528056 180.212192 
L 344.464131 159.944588 
z
M 338.742825 139.295477 
L 343.367638 139.295477 
L 341.058851 95.040567 
L 338.742825 139.295477 
z
" clip-path="url(#pdef465b258)" style="fill: #008000"/>
   </g>
   <g id="patch_54">
    <path d="M 368.534224 192.101848 
Q 367.053691 192.170327 365.452754 192.204964 
Q 363.851817 192.24 362.108177 192.24 
Q 356.908476 192.24 353.8716 191.980418 
Q 350.834725 191.720836 350.834725 191.276919 
Q 350.834725 190.83141 353.8716 190.572226 
Q 356.908476 190.312644 362.108177 190.312644 
Q 363.851817 190.312644 365.452754 190.347679 
Q 367.053691 190.382317 368.534224 190.450796 
L 368.534224 190.834993 
Q 367.040313 190.744219 365.590996 190.702017 
Q 364.14168 190.659815 362.540743 190.659815 
Q 359.668866 190.659815 358.023334 190.824243 
Q 356.382262 190.988274 356.382262 191.276919 
Q 356.382262 191.56437 358.023334 191.728799 
Q 359.668866 191.892829 362.540743 191.892829 
Q 364.14168 191.892829 365.590996 191.850627 
Q 367.040313 191.808027 368.534224 191.717253 
L 368.534224 192.101848 
z
" clip-path="url(#pdef465b258)" style="fill: #0000ff"/>
   </g>
   <g id="patch_55">
    <path d="M 368.534224 190.138262 
Q 366.7492 190.225453 364.829308 190.269247 
Q 362.909416 190.312644 360.86259 190.312644 
Q 356.237396 190.312644 353.53606 190.053062 
Q 350.834725 189.79348 350.834725 189.349563 
Q 350.834725 188.90047 353.583661 188.642879 
Q 356.336563 188.385288 361.124393 188.385288 
Q 362.968917 188.385288 364.658739 188.420323 
Q 366.352528 188.454961 367.851948 188.523439 
L 367.851948 188.907637 
Q 366.304928 188.819649 364.773774 188.776253 
Q 363.242621 188.732459 361.703534 188.732459 
Q 358.85543 188.732459 357.312376 188.892508 
Q 355.769323 189.052158 355.769323 189.349563 
Q 355.769323 189.64418 357.256842 189.805026 
Q 358.744362 189.965473 361.481398 189.965473 
Q 362.227141 189.965473 362.865783 189.956316 
Q 363.504424 189.946761 364.012164 189.926854 
L 364.012164 189.566147 
L 361.096626 189.566147 
L 361.096626 189.244854 
L 368.534224 189.244854 
L 368.534224 190.138262 
z
" clip-path="url(#pdef465b258)" style="fill: #ffa600"/>
   </g>
   <g id="patch_56">
    <path d="M 363.095183 160.296941 
L 356.28824 160.296941 
L 355.21346 188.385288 
L 350.834725 188.385288 
L 357.087993 34.19679 
L 362.280956 34.19679 
L 368.534224 188.385288 
L 364.159107 188.385288 
L 363.095183 160.296941 
z
M 357.373877 131.679873 
L 361.99869 131.679873 
L 359.689902 70.348143 
L 357.373877 131.679873 
z
" clip-path="url(#pdef465b258)" style="fill: #008000"/>
   </g>
   <g id="patch_57">
    <path d="M 381.726235 191.884198 
L 374.919292 191.884198 
L 373.844512 192.24 
L 369.465776 192.24 
L 375.719044 190.286854 
L 380.912007 190.286854 
L 387.165275 192.24 
L 382.790159 192.24 
L 381.726235 191.884198 
z
M 376.004929 191.521698 
L 380.629742 191.521698 
L 378.320954 190.744792 
L 376.004929 191.521698 
z
" clip-path="url(#pdef465b258)" style="fill: #008000"/>
   </g>
   <g id="patch_58">
    <path d="M 387.165275 190.021781 
Q 385.380252 190.154317 383.46036 190.220888 
Q 381.540468 190.286854 379.493641 190.286854 
Q 374.868447 190.286854 372.167112 189.892271 
Q 369.465776 189.497687 369.465776 188.822902 
Q 369.465776 188.140249 372.214712 187.748691 
Q 374.967615 187.357134 379.755445 187.357134 
Q 381.599969 187.357134 383.289791 187.410391 
Q 384.98358 187.463042 386.483 187.567135 
L 386.483 188.151142 
Q 384.93598 188.017395 383.404826 187.95143 
Q 381.873673 187.884859 380.334586 187.884859 
Q 377.486482 187.884859 375.943428 188.128145 
Q 374.400374 188.370826 374.400374 188.822902 
Q 374.400374 189.270742 375.887894 189.515238 
Q 377.375414 189.759129 380.112449 189.759129 
Q 380.858193 189.759129 381.496834 189.74521 
Q 382.135476 189.730685 382.643216 189.700426 
L 382.643216 189.152125 
L 379.727678 189.152125 
L 379.727678 188.663737 
L 387.165275 188.663737 
L 387.165275 190.021781 
z
" clip-path="url(#pdef465b258)" style="fill: #ffa600"/>
   </g>
   <g id="patch_59">
    <path d="M 387.165275 186.237131 
Q 385.684743 186.792291 384.083806 187.073099 
Q 382.482868 187.357134 380.739229 187.357134 
Q 375.539527 187.357134 372.502652 185.252691 
Q 369.465776 183.148247 369.465776 179.549391 
Q 369.465776 175.937623 372.502652 173.836407 
Q 375.539527 171.731964 380.739229 171.731964 
Q 382.482868 171.731964 384.083806 172.015999 
Q 385.684743 172.296807 387.165275 172.851967 
L 387.165275 175.966672 
Q 385.671365 175.230763 384.222048 174.888629 
Q 382.772732 174.546496 381.171794 174.546496 
Q 378.299918 174.546496 376.654386 175.879525 
Q 375.013314 177.209327 375.013314 179.549391 
Q 375.013314 181.879771 376.654386 183.212801 
Q 378.299918 184.542602 381.171794 184.542602 
Q 382.772732 184.542602 384.222048 184.200469 
Q 385.671365 183.855108 387.165275 183.119198 
L 387.165275 186.237131 
z
" clip-path="url(#pdef465b258)" style="fill: #0000ff"/>
   </g>
   <g id="patch_60">
    <path d="M 369.465776 112.161002 
L 387.165275 112.161002 
L 387.165275 123.778999 
L 380.797572 123.778999 
L 380.797572 171.731964 
L 375.845828 171.731964 
L 375.845828 123.778999 
L 369.465776 123.778999 
L 369.465776 112.161002 
z
" clip-path="url(#pdef465b258)" style="fill: #ff0000"/>
   </g>
   <g id="patch_61">
    <path d="M 405.796327 191.901322 
Q 404.011304 192.070661 402.091412 192.155717 
Q 400.17152 192.24 398.124693 192.24 
Q 393.499499 192.24 390.798164 191.735849 
Q 388.096828 191.231698 388.096828 190.369538 
Q 388.096828 189.497326 390.845764 188.997041 
Q 393.598667 188.496756 398.386497 188.496756 
Q 400.231021 188.496756 401.920843 188.564801 
Q 403.614632 188.632073 405.114052 188.76507 
L 405.114052 189.511244 
Q 403.567031 189.340359 402.035878 189.256076 
Q 400.504724 189.17102 398.965637 189.17102 
Q 396.117533 189.17102 394.57448 189.481861 
Q 393.031426 189.791929 393.031426 190.369538 
Q 393.031426 190.941734 394.518946 191.254122 
Q 396.006465 191.565737 398.743501 191.565737 
Q 399.489244 191.565737 400.127886 191.547952 
Q 400.766528 191.529395 401.274268 191.490733 
L 401.274268 190.790179 
L 398.35873 190.790179 
L 398.35873 190.166176 
L 405.796327 190.166176 
L 405.796327 191.901322 
z
" clip-path="url(#pdef465b258)" style="fill: #ffa600"/>
   </g>
   <g id="patch_62">
    <path d="M 405.796327 188.139005 
Q 404.315795 188.316334 402.714857 188.40603 
Q 401.11392 188.496756 399.370281 188.496756 
Q 394.170579 188.496756 391.133704 187.824555 
Q 388.096828 187.152354 388.096828 186.002807 
Q 388.096828 184.849136 391.133704 184.177966 
Q 394.170579 183.505765 399.370281 183.505765 
Q 401.11392 183.505765 402.714857 183.596491 
Q 404.315795 183.686187 405.796327 183.863516 
L 405.796327 184.858415 
Q 404.302416 184.623351 402.8531 184.514067 
Q 401.403783 184.404782 399.802846 184.404782 
Q 396.93097 184.404782 395.285438 184.830579 
Q 393.644366 185.255344 393.644366 186.002807 
Q 393.644366 186.747177 395.285438 187.172973 
Q 396.93097 187.597739 399.802846 187.597739 
Q 401.403783 187.597739 402.8531 187.488454 
Q 404.302416 187.378139 405.796327 187.143075 
L 405.796327 188.139005 
z
" clip-path="url(#pdef465b258)" style="fill: #0000ff"/>
   </g>
   <g id="patch_63">
    <path d="M 400.357287 182.36926 
L 393.550344 182.36926 
L 392.475563 183.505765 
L 388.096828 183.505765 
L 394.350096 177.267025 
L 399.543059 177.267025 
L 405.796327 183.505765 
L 401.421211 183.505765 
L 400.357287 182.36926 
z
M 394.635981 181.211363 
L 399.260793 181.211363 
L 396.952006 178.729773 
L 394.635981 181.211363 
z
" clip-path="url(#pdef465b258)" style="fill: #008000"/>
   </g>
   <g id="patch_64">
    <path d="M 388.096828 89.924671 
L 405.796327 89.924671 
L 405.796327 106.958864 
L 399.428624 106.958864 
L 399.428624 177.267025 
L 394.47688 177.267025 
L 394.47688 106.958864 
L 388.096828 106.958864 
L 388.096828 89.924671 
z
" clip-path="url(#pdef465b258)" style="fill: #ff0000"/>
   </g>
   <g id="patch_65">
    <path d="M 424.427379 192.196252 
Q 422.946846 192.217937 421.345909 192.228905 
Q 419.744972 192.24 418.001333 192.24 
Q 412.801631 192.24 409.764755 192.157798 
Q 406.72788 192.075597 406.72788 191.935022 
Q 406.72788 191.793943 409.764755 191.711867 
Q 412.801631 191.629666 418.001333 191.629666 
Q 419.744972 191.629666 421.345909 191.64076 
Q 422.946846 191.651729 424.427379 191.673414 
L 424.427379 191.795077 
Q 422.933468 191.766332 421.484152 191.752968 
Q 420.034835 191.739604 418.433898 191.739604 
Q 415.562021 191.739604 413.91649 191.791673 
Q 412.275417 191.843617 412.275417 191.935022 
Q 412.275417 192.026049 413.91649 192.078118 
Q 415.562021 192.130062 418.433898 192.130062 
Q 420.034835 192.130062 421.484152 192.116698 
Q 422.933468 192.103207 424.427379 192.074462 
L 424.427379 192.196252 
z
" clip-path="url(#pdef465b258)" style="fill: #0000ff"/>
   </g>
   <g id="patch_66">
    <path d="M 424.427379 191.077452 
Q 422.642356 191.353559 420.722464 191.492243 
Q 418.802572 191.629666 416.755745 191.629666 
Q 412.130551 191.629666 409.429215 190.807649 
Q 406.72788 189.985633 406.72788 188.579885 
Q 406.72788 187.157746 409.476816 186.342034 
Q 412.229719 185.526321 417.017548 185.526321 
Q 418.862073 185.526321 420.551895 185.637268 
Q 422.245684 185.746955 423.745103 185.963805 
L 423.745103 187.18044 
Q 422.198083 186.901812 420.66693 186.764389 
Q 419.135776 186.625705 417.596689 186.625705 
Q 414.748585 186.625705 413.205532 187.132531 
Q 411.662478 187.638096 411.662478 188.579885 
Q 411.662478 189.512848 413.149997 190.022195 
Q 414.637517 190.530282 417.374553 190.530282 
Q 418.120296 190.530282 418.758938 190.501284 
Q 419.39758 190.471026 419.90532 190.407988 
L 419.90532 189.265739 
L 416.989781 189.265739 
L 416.989781 188.248304 
L 424.427379 188.248304 
L 424.427379 191.077452 
z
" clip-path="url(#pdef465b258)" style="fill: #ffa600"/>
   </g>
   <g id="patch_67">
    <path d="M 406.72788 170.878295 
L 424.427379 170.878295 
L 424.427379 173.735068 
L 418.059675 173.735068 
L 418.059675 185.526321 
L 413.107932 185.526321 
L 413.107932 173.735068 
L 406.72788 173.735068 
L 406.72788 170.878295 
z
" clip-path="url(#pdef465b258)" style="fill: #ff0000"/>
   </g>
   <g id="patch_68">
    <path d="M 418.988338 165.65265 
L 412.181395 165.65265 
L 411.106615 170.878295 
L 406.72788 170.878295 
L 412.981148 142.192577 
L 418.174111 142.192577 
L 424.427379 170.878295 
L 420.052263 170.878295 
L 418.988338 165.65265 
z
M 413.267032 160.32864 
L 417.891845 160.32864 
L 415.583058 148.91829 
L 413.267032 160.32864 
z
" clip-path="url(#pdef465b258)" style="fill: #008000"/>
   </g>
   <g id="patch_69">
    <path d="M 425.358932 189.976375 
L 443.058431 189.976375 
L 443.058431 190.417845 
L 436.690727 190.417845 
L 436.690727 192.24 
L 431.738984 192.24 
L 431.738984 190.417845 
L 425.358932 190.417845 
L 425.358932 189.976375 
z
" clip-path="url(#pdef465b258)" style="fill: #ff0000"/>
   </g>
   <g id="patch_70">
    <path d="M 443.058431 188.030714 
Q 441.273407 189.003544 439.353515 189.492181 
Q 437.433623 189.976375 435.386797 189.976375 
Q 430.761603 189.976375 428.060267 187.080094 
Q 425.358932 184.183814 425.358932 179.230819 
Q 425.358932 174.220076 428.107868 171.346006 
Q 430.86077 168.471936 435.6486 168.471936 
Q 437.493124 168.471936 439.182946 168.862845 
Q 440.876735 169.249312 442.376155 170.013361 
L 442.376155 174.300034 
Q 440.829135 173.31832 439.297981 172.834125 
Q 437.766828 172.345489 436.227741 172.345489 
Q 433.379637 172.345489 431.836583 174.131233 
Q 430.29353 175.912534 430.29353 179.230819 
Q 430.29353 182.518008 431.781049 184.312636 
Q 433.268569 186.102822 436.005605 186.102822 
Q 436.751348 186.102822 437.38999 186.000652 
Q 438.028631 185.894041 438.536371 185.671933 
L 438.536371 181.647347 
L 435.620833 181.647347 
L 435.620833 178.062534 
L 443.058431 178.062534 
L 443.058431 188.030714 
z
" clip-path="url(#pdef465b258)" style="fill: #ffa600"/>
   </g>
   <g id="patch_71">
    <path d="M 437.61939 155.894893 
L 430.812447 155.894893 
L 429.737667 168.471936 
L 425.358932 168.471936 
L 431.6122 99.431369 
L 436.805163 99.431369 
L 443.058431 168.471936 
L 438.683314 168.471936 
L 437.61939 155.894893 
z
M 431.898084 143.081106 
L 436.522897 143.081106 
L 434.214109 115.618763 
L 431.898084 143.081106 
z
" clip-path="url(#pdef465b258)" style="fill: #008000"/>
   </g>
   <g id="patch_72">
    <path d="M 461.689482 192.179459 
Q 460.20895 192.209468 458.608013 192.224647 
Q 457.007075 192.24 455.263436 192.24 
Q 450.063734 192.24 447.026859 192.126246 
Q 443.989983 192.012493 443.989983 191.81796 
Q 443.989983 191.622729 447.026859 191.50915 
Q 450.063734 191.395396 455.263436 191.395396 
Q 457.007075 191.395396 458.608013 191.41075 
Q 460.20895 191.425928 461.689482 191.455937 
L 461.689482 191.624299 
Q 460.195572 191.584521 458.746255 191.566027 
Q 457.296939 191.547533 455.696001 191.547533 
Q 452.824125 191.547533 451.178593 191.619589 
Q 449.537521 191.69147 449.537521 191.81796 
Q 449.537521 191.943926 451.178593 192.015982 
Q 452.824125 192.087863 455.696001 192.087863 
Q 457.296939 192.087863 458.746255 192.069369 
Q 460.195572 192.050701 461.689482 192.010922 
L 461.689482 192.179459 
z
" clip-path="url(#pdef465b258)" style="fill: #0000ff"/>
   </g>
   <g id="patch_73">
    <path d="M 456.250442 190.164512 
L 449.443499 190.164512 
L 448.368719 191.395396 
L 443.989983 191.395396 
L 450.243251 184.638567 
L 455.436214 184.638567 
L 461.689482 191.395396 
L 457.314366 191.395396 
L 456.250442 190.164512 
z
M 450.529136 188.910459 
L 455.153949 188.910459 
L 452.845161 186.222787 
L 450.529136 188.910459 
z
" clip-path="url(#pdef465b258)" style="fill: #008000"/>
   </g>
   <g id="patch_74">
    <path d="M 461.689482 183.492307 
Q 459.904459 184.065437 457.984567 184.353311 
Q 456.064675 184.638567 454.017848 184.638567 
Q 449.392654 184.638567 446.691319 182.932262 
Q 443.989983 181.225957 443.989983 178.307966 
Q 443.989983 175.355953 446.738919 173.662733 
Q 449.491822 171.969513 454.279652 171.969513 
Q 456.124176 171.969513 457.813998 172.199812 
Q 459.507787 172.427494 461.007207 172.877623 
L 461.007207 175.40306 
Q 459.460187 174.824695 457.929033 174.539439 
Q 456.39788 174.251565 454.858793 174.251565 
Q 452.010689 174.251565 450.467635 175.303612 
Q 448.924581 176.353042 448.924581 178.307966 
Q 448.924581 180.24457 450.412101 181.301851 
Q 451.899621 182.356515 454.636656 182.356515 
Q 455.3824 182.356515 456.021041 182.296323 
Q 456.659683 182.233514 457.167423 182.102663 
L 457.167423 179.731631 
L 454.251885 179.731631 
L 454.251885 177.619686 
L 461.689482 177.619686 
L 461.689482 183.492307 
z
" clip-path="url(#pdef465b258)" style="fill: #ffa600"/>
   </g>
   <g id="patch_75">
    <path d="M 443.989983 122.982502 
L 461.689482 122.982502 
L 461.689482 132.536334 
L 455.321779 132.536334 
L 455.321779 171.969513 
L 450.370035 171.969513 
L 450.370035 132.536334 
L 443.989983 132.536334 
L 443.989983 122.982502 
z
" clip-path="url(#pdef465b258)" style="fill: #ff0000"/>
   </g>
   <g id="patch_76">
    <path d="M 480.320534 192.056486 
Q 478.535511 192.148243 476.615619 192.194331 
Q 474.695727 192.24 472.6489 192.24 
Q 468.023706 192.24 465.322371 191.966824 
Q 462.621035 191.693647 462.621035 191.226482 
Q 462.621035 190.75387 465.369971 190.482789 
Q 468.122874 190.211707 472.910704 190.211707 
Q 474.755228 190.211707 476.44505 190.248578 
Q 478.138839 190.285029 479.638259 190.357094 
L 479.638259 190.761412 
Q 478.091238 190.668817 476.560085 190.623148 
Q 475.028931 190.57706 473.489844 190.57706 
Q 470.64174 190.57706 469.098687 190.745491 
Q 467.555633 190.913502 467.555633 191.226482 
Q 467.555633 191.536529 469.043153 191.705798 
Q 470.530672 191.874648 473.267708 191.874648 
Q 474.013451 191.874648 474.652093 191.865011 
Q 475.290735 191.854955 475.798475 191.834006 
L 475.798475 191.454408 
L 472.882937 191.454408 
L 472.882937 191.11629 
L 480.320534 191.11629 
L 480.320534 192.056486 
z
" clip-path="url(#pdef465b258)" style="fill: #ffa600"/>
   </g>
   <g id="patch_77">
    <path d="M 474.881494 160.282871 
L 468.074551 160.282871 
L 466.99977 190.211707 
L 462.621035 190.211707 
L 468.874303 25.92 
L 474.067266 25.92 
L 480.320534 190.211707 
L 475.945418 190.211707 
L 474.881494 160.282871 
z
M 469.160188 129.790668 
L 473.785 129.790668 
L 471.476213 64.440173 
L 469.160188 129.790668 
z
" clip-path="url(#pdef465b258)" style="fill: #008000"/>
   </g>
   <g id="patch_78">
    <path d="M 498.951586 192.107205 
Q 497.471053 192.173029 495.870116 192.206323 
Q 494.269179 192.24 492.52554 192.24 
Q 487.325838 192.24 484.288962 191.990483 
Q 481.252087 191.740967 481.252087 191.314263 
Q 481.252087 190.886028 484.288962 190.636894 
Q 487.325838 190.387377 492.52554 190.387377 
Q 494.269179 190.387377 495.870116 190.421054 
Q 497.471053 190.454349 498.951586 190.520172 
L 498.951586 190.889472 
Q 497.457675 190.802218 496.008359 190.761652 
Q 494.559042 190.721086 492.958105 190.721086 
Q 490.086228 190.721086 488.440697 190.879139 
Q 486.799624 191.036809 486.799624 191.314263 
Q 486.799624 191.590568 488.440697 191.748621 
Q 490.086228 191.906291 492.958105 191.906291 
Q 494.559042 191.906291 496.008359 191.865725 
Q 497.457675 191.824777 498.951586 191.737522 
L 498.951586 192.107205 
z
" clip-path="url(#pdef465b258)" style="fill: #0000ff"/>
   </g>
   <g id="patch_79">
    <path d="M 481.252087 186.682131 
L 498.951586 186.682131 
L 498.951586 187.404757 
L 492.583882 187.404757 
L 492.583882 190.387377 
L 487.632139 190.387377 
L 487.632139 187.404757 
L 481.252087 187.404757 
L 481.252087 186.682131 
z
" clip-path="url(#pdef465b258)" style="fill: #ff0000"/>
   </g>
   <g id="patch_80">
    <path d="M 493.512545 160.020401 
L 486.705603 160.020401 
L 485.630822 186.682131 
L 481.252087 186.682131 
L 487.505355 40.324917 
L 492.698318 40.324917 
L 498.951586 186.682131 
L 494.57647 186.682131 
L 493.512545 160.020401 
z
M 487.791239 132.856803 
L 492.416052 132.856803 
L 490.107265 74.640132 
L 487.791239 132.856803 
z
" clip-path="url(#pdef465b258)" style="fill: #008000"/>
   </g>
   <g id="patch_81">
    <path d="M 512.143597 192.04605 
L 505.336654 192.04605 
L 504.261874 192.24 
L 499.883139 192.24 
L 506.136407 191.17533 
L 511.32937 191.17533 
L 517.582638 192.24 
L 513.207521 192.24 
L 512.143597 192.04605 
z
M 506.422291 191.84845 
L 511.047104 191.84845 
L 508.738316 191.424955 
L 506.422291 191.84845 
z
" clip-path="url(#pdef465b258)" style="fill: #008000"/>
   </g>
   <g id="patch_82">
    <path d="M 517.582638 191.079002 
Q 515.797614 191.127166 513.877722 191.151358 
Q 511.957831 191.17533 509.911004 191.17533 
Q 505.28581 191.17533 502.584474 191.031937 
Q 499.883139 190.888545 499.883139 190.643325 
Q 499.883139 190.395247 502.632075 190.252954 
Q 505.384978 190.110661 510.172807 190.110661 
Q 512.017331 190.110661 513.707153 190.130014 
Q 515.400942 190.149148 516.900362 190.186975 
L 516.900362 190.399206 
Q 515.353342 190.350602 513.822188 190.32663 
Q 512.291035 190.302437 510.751948 190.302437 
Q 507.903844 190.302437 506.36079 190.390848 
Q 504.817737 190.479039 504.817737 190.643325 
Q 504.817737 190.806072 506.305256 190.894923 
Q 507.792776 190.983553 510.529812 190.983553 
Q 511.275555 190.983553 511.914197 190.978495 
Q 512.552838 190.973217 513.060578 190.96222 
L 513.060578 190.762966 
L 510.14504 190.762966 
L 510.14504 190.585484 
L 517.582638 190.585484 
L 517.582638 191.079002 
z
" clip-path="url(#pdef465b258)" style="fill: #ffa600"/>
   </g>
   <g id="patch_83">
    <path d="M 517.582638 188.508048 
Q 516.102105 189.302426 514.501168 189.704234 
Q 512.900231 190.110661 511.156591 190.110661 
Q 505.95689 190.110661 502.920014 187.099411 
Q 499.883139 184.088162 499.883139 178.938556 
Q 499.883139 173.770477 502.920014 170.763846 
Q 505.95689 167.752596 511.156591 167.752596 
Q 512.900231 167.752596 514.501168 168.159023 
Q 516.102105 168.560831 517.582638 169.355209 
L 517.582638 173.812043 
Q 516.088727 172.759029 514.63941 172.26947 
Q 513.190094 171.779911 511.589157 171.779911 
Q 508.71728 171.779911 507.071748 173.687344 
Q 505.430676 175.590158 505.430676 178.938556 
Q 505.430676 182.273099 507.071748 184.180532 
Q 508.71728 186.083346 511.589157 186.083346 
Q 513.190094 186.083346 514.63941 185.593787 
Q 516.088727 185.099609 517.582638 184.046596 
L 517.582638 188.508048 
z
" clip-path="url(#pdef465b258)" style="fill: #0000ff"/>
   </g>
   <g id="patch_84">
    <path d="M 499.883139 104.937083 
L 517.582638 104.937083 
L 517.582638 117.187858 
L 511.214934 117.187858 
L 511.214934 167.752596 
L 506.263191 167.752596 
L 506.263191 117.187858 
L 499.883139 117.187858 
L 499.883139 104.937083 
z
" clip-path="url(#pdef465b258)" style="fill: #ff0000"/>
   </g>
   <g id="patch_85">
    <path d="M 518.51419 191.462941 
L 536.213689 191.462941 
L 536.213689 191.614489 
L 529.845986 191.614489 
L 529.845986 192.24 
L 524.894242 192.24 
L 524.894242 191.614489 
L 518.51419 191.614489 
L 518.51419 191.462941 
z
" clip-path="url(#pdef465b258)" style="fill: #ff0000"/>
   </g>
   <g id="patch_86">
    <path d="M 536.213689 191.295844 
Q 534.733157 191.37867 533.13222 191.420565 
Q 531.531282 191.462941 529.787643 191.462941 
Q 524.587941 191.462941 521.551066 191.148972 
Q 518.51419 190.835002 518.51419 190.298076 
Q 518.51419 189.759223 521.551066 189.445735 
Q 524.587941 189.131765 529.787643 189.131765 
Q 531.531282 189.131765 533.13222 189.174142 
Q 534.733157 189.216036 536.213689 189.298863 
L 536.213689 189.763557 
Q 534.719779 189.653764 533.270462 189.60272 
Q 531.821146 189.551676 530.220208 189.551676 
Q 527.348332 189.551676 525.7028 189.750555 
Q 524.061728 189.948953 524.061728 190.298076 
Q 524.061728 190.645754 525.7028 190.844633 
Q 527.348332 191.043031 530.220208 191.043031 
Q 531.821146 191.043031 533.270462 190.991987 
Q 534.719779 190.940461 536.213689 190.830668 
L 536.213689 191.295844 
z
" clip-path="url(#pdef465b258)" style="fill: #0000ff"/>
   </g>
   <g id="patch_87">
    <path d="M 530.774649 183.894197 
L 523.967706 183.894197 
L 522.892926 189.131765 
L 518.51419 189.131765 
L 524.767458 160.380594 
L 529.960421 160.380594 
L 536.213689 189.131765 
L 531.838573 189.131765 
L 530.774649 183.894197 
z
M 525.053343 178.558039 
L 529.678156 178.558039 
L 527.369368 167.121653 
L 525.053343 178.558039 
z
" clip-path="url(#pdef465b258)" style="fill: #008000"/>
   </g>
   <g id="patch_88">
    <path d="M 536.213689 157.498046 
Q 534.428666 158.93932 532.508774 159.663248 
Q 530.588882 160.380594 528.542055 160.380594 
Q 523.916861 160.380594 521.215526 156.089677 
Q 518.51419 151.798759 518.51419 144.460763 
Q 518.51419 137.037213 521.263126 132.779201 
Q 524.016029 128.521189 528.803859 128.521189 
Q 530.648383 128.521189 532.338205 129.100331 
Q 534.031994 129.672892 535.531414 130.804852 
L 535.531414 137.155674 
Q 533.984394 135.701237 532.45324 134.98389 
Q 530.922087 134.259962 529.383 134.259962 
Q 526.534896 134.259962 524.991842 136.905589 
Q 523.448788 139.544635 523.448788 144.460763 
Q 523.448788 149.330823 524.936308 151.989613 
Q 526.423828 154.641821 529.160864 154.641821 
Q 529.906607 154.641821 530.545248 154.490454 
Q 531.18389 154.332507 531.69163 154.003448 
L 531.69163 148.040916 
L 528.776092 148.040916 
L 528.776092 142.729918 
L 536.213689 142.729918 
L 536.213689 157.498046 
z
" clip-path="url(#pdef465b258)" style="fill: #ffa600"/>
   </g>
   <g id="patch_89">
    <path d="M 549.405701 191.918288 
L 542.598758 191.918288 
L 541.523977 192.24 
L 537.145242 192.24 
L 543.39851 190.473988 
L 548.591473 190.473988 
L 554.844741 192.24 
L 550.469625 192.24 
L 549.405701 191.918288 
z
M 543.684395 191.590519 
L 548.309208 191.590519 
L 546.00042 190.888051 
L 543.684395 191.590519 
z
" clip-path="url(#pdef465b258)" style="fill: #008000"/>
   </g>
   <g id="patch_90">
    <path d="M 554.844741 190.234879 
Q 553.364209 190.3534 551.763271 190.413349 
Q 550.162334 190.473988 548.418695 190.473988 
Q 543.218993 190.473988 540.182118 190.024712 
Q 537.145242 189.575437 537.145242 188.807121 
Q 537.145242 188.036048 540.182118 187.587462 
Q 543.218993 187.138187 548.418695 187.138187 
Q 550.162334 187.138187 551.763271 187.198825 
Q 553.364209 187.258774 554.844741 187.377295 
L 554.844741 188.04225 
Q 553.35083 187.885141 551.901514 187.8121 
Q 550.452197 187.739058 548.85126 187.739058 
Q 545.979384 187.739058 544.333852 188.023645 
Q 542.69278 188.307543 542.69278 188.807121 
Q 542.69278 189.304631 544.333852 189.589218 
Q 545.979384 189.873116 548.85126 189.873116 
Q 550.452197 189.873116 551.901514 189.800075 
Q 553.35083 189.726344 554.844741 189.569235 
L 554.844741 190.234879 
z
" clip-path="url(#pdef465b258)" style="fill: #0000ff"/>
   </g>
   <g id="patch_91">
    <path d="M 554.844741 185.629117 
Q 553.059718 186.383652 551.139826 186.762642 
Q 549.219934 187.138187 547.173107 187.138187 
Q 542.547913 187.138187 539.846578 184.891809 
Q 537.145242 182.645432 537.145242 178.803852 
Q 537.145242 174.917482 539.894178 172.688331 
Q 542.647081 170.459181 547.434911 170.459181 
Q 549.279435 170.459181 550.969257 170.762373 
Q 552.663046 171.06212 554.162466 171.654722 
L 554.162466 174.979498 
Q 552.615445 174.218073 551.084292 173.842528 
Q 549.553138 173.463538 548.014052 173.463538 
Q 545.165947 173.463538 543.622894 174.848574 
Q 542.07984 176.230165 542.07984 178.803852 
Q 542.07984 181.353421 543.56736 182.745348 
Q 545.054879 184.133829 547.791915 184.133829 
Q 548.537658 184.133829 549.1763 184.054586 
Q 549.814942 183.971897 550.322682 183.799629 
L 550.322682 180.67813 
L 547.407144 180.67813 
L 547.407144 177.897721 
L 554.844741 177.897721 
L 554.844741 185.629117 
z
" clip-path="url(#pdef465b258)" style="fill: #ffa600"/>
   </g>
   <g id="patch_92">
    <path d="M 537.145242 127.878661 
L 554.844741 127.878661 
L 554.844741 136.183048 
L 548.477038 136.183048 
L 548.477038 170.459181 
L 543.525294 170.459181 
L 543.525294 136.183048 
L 537.145242 136.183048 
L 537.145242 127.878661 
z
" clip-path="url(#pdef465b258)" style="fill: #ff0000"/>
   </g>
   <g id="patch_93">
    <path d="M 573.475793 192.222216 
Q 571.69077 192.231108 569.770878 192.235574 
Q 567.850986 192.24 565.804159 192.24 
Q 561.178965 192.24 558.477629 192.213527 
Q 555.776294 192.187053 555.776294 192.141781 
Q 555.776294 192.09598 558.52523 192.06971 
Q 561.278133 192.04344 566.065962 192.04344 
Q 567.910487 192.04344 569.600309 192.047013 
Q 571.294098 192.050545 572.793517 192.057529 
L 572.793517 192.096711 
Q 571.246497 192.087738 569.715344 192.083312 
Q 568.18419 192.078846 566.645103 192.078846 
Q 563.796999 192.078846 562.253946 192.095168 
Q 560.710892 192.11145 560.710892 192.141781 
Q 560.710892 192.171827 562.198412 192.188231 
Q 563.685931 192.204594 566.422967 192.204594 
Q 567.16871 192.204594 567.807352 192.20366 
Q 568.445994 192.202686 568.953734 192.200655 
L 568.953734 192.163869 
L 566.038195 192.163869 
L 566.038195 192.131102 
L 573.475793 192.131102 
L 573.475793 192.222216 
z
" clip-path="url(#pdef465b258)" style="fill: #ffa600"/>
   </g>
   <g id="patch_94">
    <path d="M 573.475793 191.578492 
Q 571.99526 191.808956 570.394323 191.925528 
Q 568.793386 192.04344 567.049747 192.04344 
Q 561.850045 192.04344 558.813169 191.16982 
Q 555.776294 190.2962 555.776294 188.802204 
Q 555.776294 187.302847 558.813169 186.430568 
Q 561.850045 185.556948 567.049747 185.556948 
Q 568.793386 185.556948 570.394323 185.67486 
Q 571.99526 185.791432 573.475793 186.021896 
L 573.475793 187.314906 
Q 571.981882 187.009408 570.532566 186.867377 
Q 569.083249 186.725347 567.482312 186.725347 
Q 564.610435 186.725347 562.964904 187.278729 
Q 561.323831 187.830771 561.323831 188.802204 
Q 561.323831 189.769617 562.964904 190.322999 
Q 564.610435 190.87504 567.482312 190.87504 
Q 569.083249 190.87504 570.532566 190.73301 
Q 571.981882 190.58964 573.475793 190.284141 
L 573.475793 191.578492 
z
" clip-path="url(#pdef465b258)" style="fill: #0000ff"/>
   </g>
   <g id="patch_95">
    <path d="M 568.036752 182.656566 
L 561.22981 182.656566 
L 560.155029 185.556948 
L 555.776294 185.556948 
L 562.029562 169.635559 
L 567.222525 169.635559 
L 573.475793 185.556948 
L 569.100677 185.556948 
L 568.036752 182.656566 
z
M 562.315446 179.701589 
L 566.940259 179.701589 
L 564.631472 173.368521 
L 562.315446 179.701589 
z
" clip-path="url(#pdef465b258)" style="fill: #008000"/>
   </g>
   <g id="patch_96">
    <path d="M 555.776294 127.768204 
L 573.475793 127.768204 
L 573.475793 135.933505 
L 567.108089 135.933505 
L 567.108089 169.635559 
L 562.156346 169.635559 
L 562.156346 135.933505 
L 555.776294 135.933505 
L 555.776294 127.768204 
z
" clip-path="url(#pdef465b258)" style="fill: #ff0000"/>
   </g>
   <g id="patch_97">
    <path d="M 574.407346 188.859153 
L 592.106845 188.859153 
L 592.106845 189.518512 
L 585.739141 189.518512 
L 585.739141 192.24 
L 580.787398 192.24 
L 580.787398 189.518512 
L 574.407346 189.518512 
L 574.407346 188.859153 
z
" clip-path="url(#pdef465b258)" style="fill: #ff0000"/>
   </g>
   <g id="patch_98">
    <path d="M 592.106845 188.502774 
Q 590.626312 188.679423 589.025375 188.768774 
Q 587.424438 188.859153 585.680798 188.859153 
Q 580.481097 188.859153 577.444221 188.189531 
Q 574.407346 187.51991 574.407346 186.374776 
Q 574.407346 185.225533 577.444221 184.556939 
Q 580.481097 183.887318 585.680798 183.887318 
Q 587.424438 183.887318 589.025375 183.977696 
Q 590.626312 184.067048 592.106845 184.243696 
L 592.106845 185.234777 
Q 590.612934 185.000615 589.163617 184.89175 
Q 587.714301 184.782885 586.113364 184.782885 
Q 583.241487 184.782885 581.595955 185.207047 
Q 579.954883 185.630182 579.954883 186.374776 
Q 579.954883 187.116289 581.595955 187.540451 
Q 583.241487 187.963586 586.113364 187.963586 
Q 587.714301 187.963586 589.163617 187.854721 
Q 590.612934 187.744829 592.106845 187.510667 
L 592.106845 188.502774 
z
" clip-path="url(#pdef465b258)" style="fill: #0000ff"/>
   </g>
   <g id="patch_99">
    <path d="M 586.667804 182.112119 
L 579.860861 182.112119 
L 578.786081 183.887318 
L 574.407346 183.887318 
L 580.660614 174.142522 
L 585.853577 174.142522 
L 592.106845 183.887318 
L 587.731728 183.887318 
L 586.667804 182.112119 
z
M 580.946498 180.303505 
L 585.571311 180.303505 
L 583.262523 176.427307 
L 580.946498 180.303505 
z
" clip-path="url(#pdef465b258)" style="fill: #008000"/>
   </g>
   <g id="patch_100">
    <path d="M 592.106845 169.878062 
Q 590.321821 172.010292 588.401929 173.081275 
Q 586.482038 174.142522 584.435211 174.142522 
Q 579.810017 174.142522 577.108681 167.794513 
Q 574.407346 161.446505 574.407346 150.590631 
Q 574.407346 139.608186 577.156282 133.308858 
Q 579.909185 127.009531 584.697014 127.009531 
Q 586.541538 127.009531 588.23136 127.866317 
Q 589.925149 128.713367 591.424569 130.387995 
L 591.424569 139.783438 
Q 589.877549 137.631736 588.346395 136.570489 
Q 586.815242 135.499506 585.276155 135.499506 
Q 582.428051 135.499506 580.884997 139.413462 
Q 579.341944 143.317682 579.341944 150.590631 
Q 579.341944 157.795426 580.829463 161.728855 
Q 582.316983 165.652547 585.054019 165.652547 
Q 585.799762 165.652547 586.438404 165.428614 
Q 587.077045 165.194945 587.584785 164.708135 
L 587.584785 155.887129 
L 584.669247 155.887129 
L 584.669247 148.030008 
L 592.106845 148.030008 
L 592.106845 169.878062 
z
" clip-path="url(#pdef465b258)" style="fill: #ffa600"/>
   </g>
   <g id="patch_101">
    <path d="M 610.737896 192.144489 
Q 609.257364 192.191832 607.656427 192.215778 
Q 606.055489 192.24 604.31185 192.24 
Q 599.112148 192.24 596.075273 192.060538 
Q 593.038397 191.881076 593.038397 191.574174 
Q 593.038397 191.266171 596.075273 191.086984 
Q 599.112148 190.907522 604.31185 190.907522 
Q 606.055489 190.907522 607.656427 190.931744 
Q 609.257364 190.955691 610.737896 191.003033 
L 610.737896 191.268648 
Q 609.243986 191.205891 607.794669 191.176715 
Q 606.345353 191.147539 604.744415 191.147539 
Q 601.872539 191.147539 600.227007 191.261216 
Q 598.585935 191.374619 598.585935 191.574174 
Q 598.585935 191.772903 600.227007 191.886581 
Q 601.872539 191.999983 604.744415 191.999983 
Q 606.345353 191.999983 607.794669 191.970807 
Q 609.243986 191.941355 610.737896 191.878599 
L 610.737896 192.144489 
z
" clip-path="url(#pdef465b258)" style="fill: #0000ff"/>
   </g>
   <g id="patch_102">
    <path d="M 593.038397 186.377097 
L 610.737896 186.377097 
L 610.737896 187.260656 
L 604.370193 187.260656 
L 604.370193 190.907522 
L 599.418449 190.907522 
L 599.418449 187.260656 
L 593.038397 187.260656 
L 593.038397 186.377097 
z
" clip-path="url(#pdef465b258)" style="fill: #ff0000"/>
   </g>
   <g id="patch_103">
    <path d="M 605.298856 183.998284 
L 598.491913 183.998284 
L 597.417133 186.377097 
L 593.038397 186.377097 
L 599.291665 173.318813 
L 604.484628 173.318813 
L 610.737896 186.377097 
L 606.36278 186.377097 
L 605.298856 183.998284 
z
M 599.57755 181.574693 
L 604.202363 181.574693 
L 601.893575 176.380485 
L 599.57755 181.574693 
z
" clip-path="url(#pdef465b258)" style="fill: #008000"/>
   </g>
   <g id="patch_104">
    <path d="M 610.737896 167.122088 
Q 608.952873 170.220451 607.032981 171.776706 
Q 605.113089 173.318813 603.066262 173.318813 
Q 598.441068 173.318813 595.739733 164.094465 
Q 593.038397 154.870117 593.038397 139.095351 
Q 593.038397 123.136663 595.787333 113.983054 
Q 598.540236 104.829445 603.328066 104.829445 
Q 605.17259 104.829445 606.862412 106.074449 
Q 608.556201 107.305305 610.055621 109.738722 
L 610.055621 123.391323 
Q 608.508601 120.264665 606.977447 118.722558 
Q 605.446294 117.166303 603.907207 117.166303 
Q 601.059103 117.166303 599.516049 122.853707 
Q 597.972995 128.526964 597.972995 139.095351 
Q 597.972995 149.564702 599.460515 155.280403 
Q 600.948035 160.981955 603.685071 160.981955 
Q 604.430814 160.981955 605.069455 160.656556 
Q 605.708097 160.31701 606.215837 159.609621 
L 606.215837 146.791739 
L 603.300299 146.791739 
L 603.300299 135.374486 
L 610.737896 135.374486 
L 610.737896 167.122088 
z
" clip-path="url(#pdef465b258)" style="fill: #ffa600"/>
   </g>
   <g id="patch_105">
    <path d="M 629.368948 192.146012 
Q 627.888416 192.192599 626.287478 192.216164 
Q 624.686541 192.24 622.942902 192.24 
Q 617.7432 192.24 614.706325 192.063399 
Q 611.669449 191.886798 611.669449 191.584789 
Q 611.669449 191.281697 614.706325 191.105367 
Q 617.7432 190.928766 622.942902 190.928766 
Q 624.686541 190.928766 626.287478 190.952602 
Q 627.888416 190.976167 629.368948 191.022755 
L 629.368948 191.284135 
Q 627.875037 191.222379 626.425721 191.193667 
Q 624.976404 191.164956 623.375467 191.164956 
Q 620.503591 191.164956 618.858059 191.276822 
Q 617.216987 191.388416 617.216987 191.584789 
Q 617.216987 191.78035 618.858059 191.892216 
Q 620.503591 192.00381 623.375467 192.00381 
Q 624.976404 192.00381 626.425721 191.975099 
Q 627.875037 191.946117 629.368948 191.884361 
L 629.368948 192.146012 
z
" clip-path="url(#pdef465b258)" style="fill: #0000ff"/>
   </g>
   <g id="patch_106">
    <path d="M 611.669449 185.421585 
L 629.368948 185.421585 
L 629.368948 186.495639 
L 623.001245 186.495639 
L 623.001245 190.928766 
L 618.049501 190.928766 
L 618.049501 186.495639 
L 611.669449 186.495639 
L 611.669449 185.421585 
z
" clip-path="url(#pdef465b258)" style="fill: #ff0000"/>
   </g>
   <g id="patch_107">
    <path d="M 623.929908 183.271791 
L 617.122965 183.271791 
L 616.048184 185.421585 
L 611.669449 185.421585 
L 617.922717 173.620481 
L 623.11568 173.620481 
L 629.368948 185.421585 
L 624.993832 185.421585 
L 623.929908 183.271791 
z
M 618.208602 181.08153 
L 622.833415 181.08153 
L 620.524627 176.387392 
L 618.208602 181.08153 
z
" clip-path="url(#pdef465b258)" style="fill: #008000"/>
   </g>
   <g id="patch_108">
    <path d="M 629.368948 167.522554 
Q 627.583925 170.571518 625.664033 172.102961 
Q 623.744141 173.620481 621.697314 173.620481 
Q 617.07212 173.620481 614.370785 164.543201 
Q 611.669449 155.465921 611.669449 139.942659 
Q 611.669449 124.238407 614.418385 115.230738 
Q 617.171288 106.223069 621.959118 106.223069 
Q 623.803642 106.223069 625.493464 107.448224 
Q 627.187253 108.659456 628.686673 111.054076 
L 628.686673 124.489007 
Q 627.139652 121.412199 625.608499 119.894678 
Q 624.077345 118.363235 622.538259 118.363235 
Q 619.690154 118.363235 618.147101 123.959963 
Q 616.604047 129.542769 616.604047 139.942659 
Q 616.604047 150.245093 618.091567 155.869665 
Q 619.579086 161.480315 622.316122 161.480315 
Q 623.061865 161.480315 623.700507 161.160105 
Q 624.339149 160.825972 624.846889 160.129861 
L 624.846889 147.51634 
L 621.931351 147.51634 
L 621.931351 136.281118 
L 629.368948 136.281118 
L 629.368948 167.522554 
z
" clip-path="url(#pdef465b258)" style="fill: #ffa600"/>
   </g>
   <g id="patch_109">
    <path d="M 648 192.117882 
Q 646.519467 192.178413 644.91853 192.20903 
Q 643.317593 192.24 641.573954 192.24 
Q 636.374252 192.24 633.337376 192.010544 
Q 630.300501 191.781088 630.300501 191.38869 
Q 630.300501 190.994884 633.337376 190.76578 
Q 636.374252 190.536324 641.573954 190.536324 
Q 643.317593 190.536324 644.91853 190.567294 
Q 646.519467 190.597911 648 190.658443 
L 648 190.998052 
Q 646.506089 190.917812 645.056773 190.880508 
Q 643.607456 190.843204 642.006519 190.843204 
Q 639.134642 190.843204 637.489111 190.98855 
Q 635.848038 191.133543 635.848038 191.38869 
Q 635.848038 191.642781 637.489111 191.788126 
Q 639.134642 191.93312 642.006519 191.93312 
Q 643.607456 191.93312 645.056773 191.895816 
Q 646.506089 191.85816 648 191.777921 
L 648 192.117882 
z
" clip-path="url(#pdef465b258)" style="fill: #0000ff"/>
   </g>
   <g id="patch_110">
    <path d="M 630.300501 187.469707 
L 648 187.469707 
L 648 188.067783 
L 641.632296 188.067783 
L 641.632296 190.536324 
L 636.680553 190.536324 
L 636.680553 188.067783 
L 630.300501 188.067783 
L 630.300501 187.469707 
z
" clip-path="url(#pdef465b258)" style="fill: #ff0000"/>
   </g>
   <g id="patch_111">
    <path d="M 648 186.575673 
Q 646.214977 187.02269 644.295085 187.247219 
Q 642.375193 187.469707 640.328366 187.469707 
Q 635.703172 187.469707 633.001836 186.138862 
Q 630.300501 184.808017 630.300501 182.532109 
Q 630.300501 180.229665 633.049437 178.909026 
Q 635.80234 177.588387 640.590169 177.588387 
Q 642.434694 177.588387 644.124516 177.76801 
Q 645.818305 177.945592 647.317724 178.296674 
L 647.317724 180.266406 
Q 645.770704 179.815307 644.239551 179.592819 
Q 642.708397 179.36829 641.16931 179.36829 
Q 638.321206 179.36829 636.778153 180.188842 
Q 635.235099 181.007352 635.235099 182.532109 
Q 635.235099 184.042577 636.722619 184.867211 
Q 638.210138 185.689804 640.947174 185.689804 
Q 641.692917 185.689804 642.331559 185.642857 
Q 642.970201 185.593869 643.477941 185.49181 
L 643.477941 183.642507 
L 640.562402 183.642507 
L 640.562402 181.99528 
L 648 181.99528 
L 648 186.575673 
z
" clip-path="url(#pdef465b258)" style="fill: #ffa600"/>
   </g>
   <g id="patch_112">
    <path d="M 642.560959 159.898053 
L 635.754017 159.898053 
L 634.679236 177.588387 
L 630.300501 177.588387 
L 636.553769 80.478859 
L 641.746732 80.478859 
L 648 177.588387 
L 643.624884 177.588387 
L 642.560959 159.898053 
z
M 636.839653 141.874724 
L 641.464466 141.874724 
L 639.155679 103.247359 
L 636.839653 141.874724 
z
" clip-path="url(#pdef465b258)" style="fill: #008000"/>
   </g>
   <g id="matplotlib.axis_1">
    <g id="xtick_1">
     <g id="line2d_2">
      <defs>
       <path id="m97a4548c5c" d="M 0 0 
L 0 3.5 
" style="stroke: #000000; stroke-width: 0.8"/>
      </defs>
      <g>
       <use xlink:href="#m97a4548c5c" x="98.84975" y="192.24" style="stroke: #000000; stroke-width: 0.8"/>
      </g>
     </g>
     <g id="text_1">
      <!-- 0 -->
      <g transform="translate(95.6685 206.838437) scale(0.1 -0.1)">
       <defs>
        <path id="DejaVuSans-30" d="M 2034 4250 
Q 1547 4250 1301 3770 
Q 1056 3291 1056 2328 
Q 1056 1369 1301 889 
Q 1547 409 2034 409 
Q 2525 409 2770 889 
Q 3016 1369 3016 2328 
Q 3016 3291 2770 3770 
Q 2525 4250 2034 4250 
z
M 2034 4750 
Q 2819 4750 3233 4129 
Q 3647 3509 3647 2328 
Q 3647 1150 3233 529 
Q 2819 -91 2034 -91 
Q 1250 -91 836 529 
Q 422 1150 422 2328 
Q 422 3509 836 4129 
Q 1250 4750 2034 4750 
z
" transform="scale(0.015625)"/>
       </defs>
       <use xlink:href="#DejaVuSans-30"/>
      </g>
     </g>
    </g>
    <g id="xtick_2">
     <g id="line2d_3">
      <g>
       <use xlink:href="#m97a4548c5c" x="192.005008" y="192.24" style="stroke: #000000; stroke-width: 0.8"/>
      </g>
     </g>
     <g id="text_2">
      <!-- 5 -->
      <g transform="translate(188.823758 206.838437) scale(0.1 -0.1)">
       <defs>
        <path id="DejaVuSans-35" d="M 691 4666 
L 3169 4666 
L 3169 4134 
L 1269 4134 
L 1269 2991 
Q 1406 3038 1543 3061 
Q 1681 3084 1819 3084 
Q 2600 3084 3056 2656 
Q 3513 2228 3513 1497 
Q 3513 744 3044 326 
Q 2575 -91 1722 -91 
Q 1428 -91 1123 -41 
Q 819 9 494 109 
L 494 744 
Q 775 591 1075 516 
Q 1375 441 1709 441 
Q 2250 441 2565 725 
Q 2881 1009 2881 1497 
Q 2881 1984 2565 2268 
Q 2250 2553 1709 2553 
Q 1456 2553 1204 2497 
Q 953 2441 691 2322 
L 691 4666 
z
" transform="scale(0.015625)"/>
       </defs>
       <use xlink:href="#DejaVuSans-35"/>
      </g>
     </g>
    </g>
    <g id="xtick_3">
     <g id="line2d_4">
      <g>
       <use xlink:href="#m97a4548c5c" x="285.160267" y="192.24" style="stroke: #000000; stroke-width: 0.8"/>
      </g>
     </g>
     <g id="text_3">
      <!-- 10 -->
      <g transform="translate(278.797767 206.838437) scale(0.1 -0.1)">
       <defs>
        <path id="DejaVuSans-31" d="M 794 531 
L 1825 531 
L 1825 4091 
L 703 3866 
L 703 4441 
L 1819 4666 
L 2450 4666 
L 2450 531 
L 3481 531 
L 3481 0 
L 794 0 
L 794 531 
z
" transform="scale(0.015625)"/>
       </defs>
       <use xlink:href="#DejaVuSans-31"/>
       <use xlink:href="#DejaVuSans-30" x="63.623047"/>
      </g>
     </g>
    </g>
    <g id="xtick_4">
     <g id="line2d_5">
      <g>
       <use xlink:href="#m97a4548c5c" x="378.315526" y="192.24" style="stroke: #000000; stroke-width: 0.8"/>
      </g>
     </g>
     <g id="text_4">
      <!-- 15 -->
      <g transform="translate(371.953026 206.838437) scale(0.1 -0.1)">
       <use xlink:href="#DejaVuSans-31"/>
       <use xlink:href="#DejaVuSans-35" x="63.623047"/>
      </g>
     </g>
    </g>
    <g id="xtick_5">
     <g id="line2d_6">
      <g>
       <use xlink:href="#m97a4548c5c" x="471.470785" y="192.24" style="stroke: #000000; stroke-width: 0.8"/>
      </g>
     </g>
     <g id="text_5">
      <!-- 20 -->
      <g transform="translate(465.108285 206.838437) scale(0.1 -0.1)">
       <defs>
        <path id="DejaVuSans-32" d="M 1228 531 
L 3431 531 
L 3431 0 
L 469 0 
L 469 531 
Q 828 903 1448 1529 
Q 2069 2156 2228 2338 
Q 2531 2678 2651 2914 
Q 2772 3150 2772 3378 
Q 2772 3750 2511 3984 
Q 2250 4219 1831 4219 
Q 1534 4219 1204 4116 
Q 875 4013 500 3803 
L 500 4441 
Q 881 4594 1212 4672 
Q 1544 4750 1819 4750 
Q 2544 4750 2975 4387 
Q 3406 4025 3406 3419 
Q 3406 3131 3298 2873 
Q 3191 2616 2906 2266 
Q 2828 2175 2409 1742 
Q 1991 1309 1228 531 
z
" transform="scale(0.015625)"/>
       </defs>
       <use xlink:href="#DejaVuSans-32"/>
       <use xlink:href="#DejaVuSans-30" x="63.623047"/>
      </g>
     </g>
    </g>
    <g id="xtick_6">
     <g id="line2d_7">
      <g>
       <use xlink:href="#m97a4548c5c" x="564.626043" y="192.24" style="stroke: #000000; stroke-width: 0.8"/>
      </g>
     </g>
     <g id="text_6">
      <!-- 25 -->
      <g transform="translate(558.263543 206.838437) scale(0.1 -0.1)">
       <use xlink:href="#DejaVuSans-32"/>
       <use xlink:href="#DejaVuSans-35" x="63.623047"/>
      </g>
     </g>
    </g>
   </g>
   <g id="matplotlib.axis_2">
    <g id="ytick_1">
     <g id="line2d_8">
      <defs>
       <path id="mc84ec5b9c9" d="M 0 0 
L -3.5 0 
" style="stroke: #000000; stroke-width: 0.8"/>
      </defs>
      <g>
       <use xlink:href="#mc84ec5b9c9" x="90" y="192.24" style="stroke: #000000; stroke-width: 0.8"/>
      </g>
     </g>
     <g id="text_7">
      <!-- 0.00 -->
      <g transform="translate(60.734375 196.039219) scale(0.1 -0.1)">
       <defs>
        <path id="DejaVuSans-2e" d="M 684 794 
L 1344 794 
L 1344 0 
L 684 0 
L 684 794 
z
" transform="scale(0.015625)"/>
       </defs>
       <use xlink:href="#DejaVuSans-30"/>
       <use xlink:href="#DejaVuSans-2e" x="63.623047"/>
       <use xlink:href="#DejaVuSans-30" x="95.410156"/>
       <use xlink:href="#DejaVuSans-30" x="159.033203"/>
      </g>
     </g>
    </g>
    <g id="ytick_2">
     <g id="line2d_9">
      <g>
       <use xlink:href="#mc84ec5b9c9" x="90" y="170.413031" style="stroke: #000000; stroke-width: 0.8"/>
      </g>
     </g>
     <g id="text_8">
      <!-- 0.25 -->
      <g transform="translate(60.734375 174.21225) scale(0.1 -0.1)">
       <use xlink:href="#DejaVuSans-30"/>
       <use xlink:href="#DejaVuSans-2e" x="63.623047"/>
       <use xlink:href="#DejaVuSans-32" x="95.410156"/>
       <use xlink:href="#DejaVuSans-35" x="159.033203"/>
      </g>
     </g>
    </g>
    <g id="ytick_3">
     <g id="line2d_10">
      <g>
       <use xlink:href="#mc84ec5b9c9" x="90" y="148.586062" style="stroke: #000000; stroke-width: 0.8"/>
      </g>
     </g>
     <g id="text_9">
      <!-- 0.50 -->
      <g transform="translate(60.734375 152.38528) scale(0.1 -0.1)">
       <use xlink:href="#DejaVuSans-30"/>
       <use xlink:href="#DejaVuSans-2e" x="63.623047"/>
       <use xlink:href="#DejaVuSans-35" x="95.410156"/>
       <use xlink:href="#DejaVuSans-30" x="159.033203"/>
      </g>
     </g>
    </g>
    <g id="ytick_4">
     <g id="line2d_11">
      <g>
       <use xlink:href="#mc84ec5b9c9" x="90" y="126.759092" style="stroke: #000000; stroke-width: 0.8"/>
      </g>
     </g>
     <g id="text_10">
      <!-- 0.75 -->
      <g transform="translate(60.734375 130.558311) scale(0.1 -0.1)">
       <defs>
        <path id="DejaVuSans-37" d="M 525 4666 
L 3525 4666 
L 3525 4397 
L 1831 0 
L 1172 0 
L 2766 4134 
L 525 4134 
L 525 4666 
z
" transform="scale(0.015625)"/>
       </defs>
       <use xlink:href="#DejaVuSans-30"/>
       <use xlink:href="#DejaVuSans-2e" x="63.623047"/>
       <use xlink:href="#DejaVuSans-37" x="95.410156"/>
       <use xlink:href="#DejaVuSans-35" x="159.033203"/>
      </g>
     </g>
    </g>
    <g id="ytick_5">
     <g id="line2d_12">
      <g>
       <use xlink:href="#mc84ec5b9c9" x="90" y="104.932123" style="stroke: #000000; stroke-width: 0.8"/>
      </g>
     </g>
     <g id="text_11">
      <!-- 1.00 -->
      <g transform="translate(60.734375 108.731342) scale(0.1 -0.1)">
       <use xlink:href="#DejaVuSans-31"/>
       <use xlink:href="#DejaVuSans-2e" x="63.623047"/>
       <use xlink:href="#DejaVuSans-30" x="95.410156"/>
       <use xlink:href="#DejaVuSans-30" x="159.033203"/>
      </g>
     </g>
    </g>
    <g id="ytick_6">
     <g id="line2d_13">
      <g>
       <use xlink:href="#mc84ec5b9c9" x="90" y="83.105154" style="stroke: #000000; stroke-width: 0.8"/>
      </g>
     </g>
     <g id="text_12">
      <!-- 1.25 -->
      <g transform="translate(60.734375 86.904373) scale(0.1 -0.1)">
       <use xlink:href="#DejaVuSans-31"/>
       <use xlink:href="#DejaVuSans-2e" x="63.623047"/>
       <use xlink:href="#DejaVuSans-32" x="95.410156"/>
       <use xlink:href="#DejaVuSans-35" x="159.033203"/>
      </g>
     </g>
    </g>
    <g id="ytick_7">
     <g id="line2d_14">
      <g>
       <use xlink:href="#mc84ec5b9c9" x="90" y="61.278185" style="stroke: #000000; stroke-width: 0.8"/>
      </g>
     </g>
     <g id="text_13">
      <!-- 1.50 -->
      <g transform="translate(60.734375 65.077403) scale(0.1 -0.1)">
       <use xlink:href="#DejaVuSans-31"/>
       <use xlink:href="#DejaVuSans-2e" x="63.623047"/>
       <use xlink:href="#DejaVuSans-35" x="95.410156"/>
       <use xlink:href="#DejaVuSans-30" x="159.033203"/>
      </g>
     </g>
    </g>
    <g id="ytick_8">
     <g id="line2d_15">
      <g>
       <use xlink:href="#mc84ec5b9c9" x="90" y="39.451215" style="stroke: #000000; stroke-width: 0.8"/>
      </g>
     </g>
     <g id="text_14">
      <!-- 1.75 -->
      <g transform="translate(60.734375 43.250434) scale(0.1 -0.1)">
       <use xlink:href="#DejaVuSans-31"/>
       <use xlink:href="#DejaVuSans-2e" x="63.623047"/>
       <use xlink:href="#DejaVuSans-37" x="95.410156"/>
       <use xlink:href="#DejaVuSans-35" x="159.033203"/>
      </g>
     </g>
    </g>
   </g>
  </g>
 </g>
 <defs>
  <clipPath id="pdef465b258">
   <rect x="90" y="25.92" width="558" height="166.32"/>
  </clipPath>
 </defs>
</svg>
