<?xml version="1.0" encoding="utf-8" standalone="no"?>
<!DOCTYPE svg PUBLIC "-//W3C//DTD SVG 1.1//EN"
  "http://www.w3.org/Graphics/SVG/1.1/DTD/svg11.dtd">
<svg xmlns:xlink="http://www.w3.org/1999/xlink" width="720pt" height="216pt" viewBox="0 0 720 216" xmlns="http://www.w3.org/2000/svg" version="1.1">
 <metadata>
  <rdf:RDF xmlns:dc="http://purl.org/dc/elements/1.1/" xmlns:cc="http://creativecommons.org/ns#" xmlns:rdf="http://www.w3.org/1999/02/22-rdf-syntax-ns#">
   <cc:Work>
    <dc:type rdf:resource="http://purl.org/dc/dcmitype/StillImage"/>
    <dc:date>2025-12-17T10:23:04.424791</dc:date>
    <dc:format>image/svg+xml</dc:format>
    <dc:creator>
     <cc:Agent>
      <dc:title>Matplotlib v3.8.2, https://matplotlib.org/</dc:title>
     </cc:Agent>
    </dc:creator>
   </cc:Work>
  </rdf:RDF>
 </metadata>
 <defs>
  <style type="text/css">*{stroke-linejoin: round; stroke-linecap: butt}</style>
 </defs>
 <g id="figure_1">
  <g id="patch_1">
   <path d="M 0 216 
L 720 216 
L 720 0 
L 0 0 
z
" style="fill: #ffffff"/>
  </g>
  <g id="axes_1">
   <g id="patch_2">
    <path d="M 90 192.24 
L 648 192.24 
L 648 25.92 
L 90 25.92 
z
" style="fill: #ffffff"/>
   </g>
   <g id="line2d_1">
    <path d="M 90 192.24 
L 648 192.24 
" clip-path="url(#pc46e1b1721)" style="fill: none; stroke: #000000; stroke-width: 0.5; stroke-linecap: square"/>
   </g>
   <g id="patch_3">
    <path d="M 112.133612 192.113392 
Q 110.282173 192.176149 108.280166 192.207892 
Q 106.278159 192.24 104.0977 192.24 
Q 97.595359 192.24 93.797679 192.002108 
Q 90 191.764216 90 191.357391 
Q 90 190.949107 93.797679 190.71158 
Q 97.595359 190.473688 104.0977 190.473688 
Q 106.278159 190.473688 108.280166 190.505796 
Q 110.282173 190.537539 112.133612 190.600296 
L 112.133612 190.952391 
Q 110.265443 190.869202 108.453041 190.830526 
Q 106.640639 190.79185 104.638632 190.79185 
Q 101.047288 190.79185 98.989514 190.942539 
Q 96.937317 191.092864 96.937317 191.357391 
Q 96.937317 191.620824 98.989514 191.771513 
Q 101.047288 191.921838 104.638632 191.921838 
Q 106.640639 191.921838 108.453041 191.883162 
Q 110.265443 191.844121 112.133612 191.760932 
L 112.133612 192.113392 
z
" clip-path="url(#pc46e1b1721)" style="fill: #0000ff"/>
   </g>
   <g id="patch_4">
    <path d="M 112.133612 190.247289 
Q 109.901401 190.360488 107.500534 190.417346 
Q 105.099667 190.473688 102.540065 190.473688 
Q 96.756158 190.473688 93.378079 190.136674 
Q 90 189.79966 90 189.223325 
Q 90 188.640271 93.437605 188.305841 
Q 96.88017 187.971412 102.867456 187.971412 
Q 105.174074 187.971412 107.287234 188.016898 
Q 109.405354 188.061868 111.280411 188.150773 
L 111.280411 188.649575 
Q 109.345828 188.535341 107.431087 188.479 
Q 105.516346 188.422142 103.591684 188.422142 
Q 100.030068 188.422142 98.100446 188.629933 
Q 96.170823 188.837207 96.170823 189.223325 
Q 96.170823 189.605825 98.030999 189.81465 
Q 99.891175 190.022958 103.313898 190.022958 
Q 104.246466 190.022958 105.045102 190.011069 
Q 105.843737 189.998664 106.478677 189.972819 
L 106.478677 189.504515 
L 102.832733 189.504515 
L 102.832733 189.087382 
L 112.133612 189.087382 
L 112.133612 190.247289 
z
" clip-path="url(#pc46e1b1721)" style="fill: #ffa600"/>
   </g>
   <g id="patch_5">
    <path d="M 90 185.027558 
L 112.133612 185.027558 
L 112.133612 185.601691 
L 104.170659 185.601691 
L 104.170659 187.971412 
L 97.978395 187.971412 
L 97.978395 185.601691 
L 90 185.601691 
L 90 185.027558 
z
" clip-path="url(#pc46e1b1721)" style="fill: #ff0000"/>
   </g>
   <g id="patch_6">
    <path d="M 105.331972 184.169512 
L 96.819741 184.169512 
L 95.475704 185.027558 
L 90 185.027558 
L 97.819849 180.317392 
L 104.313763 180.317392 
L 112.133612 185.027558 
L 106.662433 185.027558 
L 105.331972 184.169512 
z
M 98.177354 183.295315 
L 103.960783 183.295315 
L 101.073594 181.421747 
L 98.177354 183.295315 
z
" clip-path="url(#pc46e1b1721)" style="fill: #008000"/>
   </g>
   <g id="patch_7">
    <path d="M 128.630511 192.059639 
L 120.11828 192.059639 
L 118.774243 192.24 
L 113.298539 192.24 
L 121.118388 191.249922 
L 127.612301 191.249922 
L 135.43215 192.24 
L 129.960971 192.24 
L 128.630511 192.059639 
z
M 121.475892 191.875882 
L 127.259322 191.875882 
L 124.372133 191.482058 
L 121.475892 191.875882 
z
" clip-path="url(#pc46e1b1721)" style="fill: #008000"/>
   </g>
   <g id="patch_8">
    <path d="M 135.43215 191.174223 
Q 133.580712 191.211745 131.578705 191.230725 
Q 129.576697 191.249922 127.396238 191.249922 
Q 120.893897 191.249922 117.096218 191.107686 
Q 113.298539 190.96545 113.298539 190.722208 
Q 113.298539 190.478094 117.096218 190.336076 
Q 120.893897 190.193839 127.396238 190.193839 
Q 129.576697 190.193839 131.578705 190.213037 
Q 133.580712 190.232016 135.43215 190.269539 
L 135.43215 190.480057 
Q 133.563982 190.430318 131.75158 190.407194 
Q 129.939178 190.38407 127.937171 190.38407 
Q 124.345826 190.38407 122.288053 190.474167 
Q 120.235856 190.564047 120.235856 190.722208 
Q 120.235856 190.879715 122.288053 190.969813 
Q 124.345826 191.059692 127.937171 191.059692 
Q 129.939178 191.059692 131.75158 191.036568 
Q 133.563982 191.013225 135.43215 190.963486 
L 135.43215 191.174223 
z
" clip-path="url(#pc46e1b1721)" style="fill: #0000ff"/>
   </g>
   <g id="patch_9">
    <path d="M 113.298539 188.609715 
L 135.43215 188.609715 
L 135.43215 188.918664 
L 127.469197 188.918664 
L 127.469197 190.193839 
L 121.276934 190.193839 
L 121.276934 188.918664 
L 113.298539 188.918664 
L 113.298539 188.609715 
z
" clip-path="url(#pc46e1b1721)" style="fill: #ff0000"/>
   </g>
   <g id="patch_10">
    <path d="M 135.43215 188.454444 
Q 133.199939 188.53208 130.799072 188.571075 
Q 128.398206 188.609715 125.838604 188.609715 
Q 120.054697 188.609715 116.676618 188.378581 
Q 113.298539 188.147447 113.298539 187.75218 
Q 113.298539 187.352304 116.736143 187.122942 
Q 120.178709 186.89358 126.165995 186.89358 
Q 128.472613 186.89358 130.585772 186.924776 
Q 132.703892 186.955618 134.57895 187.016592 
L 134.57895 187.358685 
Q 132.644367 187.28034 130.729626 187.241699 
Q 128.814885 187.202704 126.890223 187.202704 
Q 123.328606 187.202704 121.398984 187.345214 
Q 119.469362 187.487368 119.469362 187.75218 
Q 119.469362 188.01451 121.329538 188.157728 
Q 123.189713 188.300591 126.612437 188.300591 
Q 127.545005 188.300591 128.34364 188.292438 
Q 129.142276 188.28393 129.777216 188.266205 
L 129.777216 187.945028 
L 126.131271 187.945028 
L 126.131271 187.658946 
L 135.43215 187.658946 
L 135.43215 188.454444 
z
" clip-path="url(#pc46e1b1721)" style="fill: #ffa600"/>
   </g>
   <g id="patch_11">
    <path d="M 158.730689 192.149616 
Q 156.879251 192.194417 154.877243 192.217078 
Q 152.875236 192.24 150.694777 192.24 
Q 144.192436 192.24 140.394757 192.070172 
Q 136.597077 191.900344 136.597077 191.609918 
Q 136.597077 191.318449 140.394757 191.148882 
Q 144.192436 190.979054 150.694777 190.979054 
Q 152.875236 190.979054 154.877243 191.001976 
Q 156.879251 191.024637 158.730689 191.069438 
L 158.730689 191.320794 
Q 156.862521 191.261406 155.050119 191.233796 
Q 153.237717 191.206186 151.235709 191.206186 
Q 147.644365 191.206186 145.586591 191.313761 
Q 143.534395 191.421075 143.534395 191.609918 
Q 143.534395 191.797979 145.586591 191.905554 
Q 147.644365 192.012868 151.235709 192.012868 
Q 153.237717 192.012868 155.050119 191.985258 
Q 156.862521 191.957388 158.730689 191.898 
L 158.730689 192.149616 
z
" clip-path="url(#pc46e1b1721)" style="fill: #0000ff"/>
   </g>
   <g id="patch_12">
    <path d="M 158.730689 190.739472 
Q 156.498478 190.859263 154.097611 190.919432 
Q 151.696744 190.979054 149.137142 190.979054 
Q 143.353236 190.979054 139.975156 190.622415 
Q 136.597077 190.265777 136.597077 189.655881 
Q 136.597077 189.038875 140.034682 188.684971 
Q 143.477247 188.331067 149.464533 188.331067 
Q 151.771151 188.331067 153.884311 188.379203 
Q 156.002431 188.426791 157.877488 188.520873 
L 157.877488 189.04872 
Q 155.942905 188.927835 154.028165 188.868213 
Q 152.113424 188.808044 150.188762 188.808044 
Q 146.627145 188.808044 144.697523 189.027935 
Q 142.7679 189.247278 142.7679 189.655881 
Q 142.7679 190.060655 144.628076 190.28164 
Q 146.488252 190.502077 149.910975 190.502077 
Q 150.843544 190.502077 151.642179 190.489496 
Q 152.440815 190.476369 153.075755 190.449019 
L 153.075755 189.953445 
L 149.42981 189.953445 
L 149.42981 189.512022 
L 158.730689 189.512022 
L 158.730689 190.739472 
z
" clip-path="url(#pc46e1b1721)" style="fill: #ffa600"/>
   </g>
   <g id="patch_13">
    <path d="M 151.92905 187.802746 
L 143.416818 187.802746 
L 142.072782 188.331067 
L 136.597077 188.331067 
L 144.416926 185.430892 
L 150.91084 185.430892 
L 158.730689 188.331067 
L 153.25951 188.331067 
L 151.92905 187.802746 
z
M 144.774431 187.264479 
L 150.557861 187.264479 
L 147.670671 186.110873 
L 144.774431 187.264479 
z
" clip-path="url(#pc46e1b1721)" style="fill: #008000"/>
   </g>
   <g id="patch_14">
    <path d="M 136.597077 182.026337 
L 158.730689 182.026337 
L 158.730689 182.69032 
L 150.767736 182.69032 
L 150.767736 185.430892 
L 144.575472 185.430892 
L 144.575472 182.69032 
L 136.597077 182.69032 
L 136.597077 182.026337 
z
" clip-path="url(#pc46e1b1721)" style="fill: #ff0000"/>
   </g>
   <g id="patch_15">
    <path d="M 182.029228 192.066757 
Q 179.797017 192.153378 177.39615 192.196887 
Q 174.995283 192.24 172.435681 192.24 
Q 166.651774 192.24 163.273695 191.982113 
Q 159.895616 191.724225 159.895616 191.283206 
Q 159.895616 190.837045 163.333221 190.581136 
Q 166.775786 190.325226 172.763072 190.325226 
Q 175.06969 190.325226 177.18285 190.360033 
Q 179.30097 190.394444 181.176027 190.462476 
L 181.176027 190.844165 
Q 179.241444 190.756752 177.326703 190.713639 
Q 175.411962 190.67013 173.4873 190.67013 
Q 169.925684 190.67013 167.996061 190.829135 
Q 166.066439 190.987743 166.066439 191.283206 
Q 166.066439 191.5759 167.926615 191.735696 
Q 169.786791 191.895095 173.209514 191.895095 
Q 174.142082 191.895095 174.940718 191.885998 
Q 175.739353 191.876505 176.374293 191.856729 
L 176.374293 191.498376 
L 172.728349 191.498376 
L 172.728349 191.179181 
L 182.029228 191.179181 
L 182.029228 192.066757 
z
" clip-path="url(#pc46e1b1721)" style="fill: #ffa600"/>
   </g>
   <g id="patch_16">
    <path d="M 175.227588 189.627601 
L 166.715357 189.627601 
L 165.37132 190.325226 
L 159.895616 190.325226 
L 167.715465 186.495678 
L 174.209379 186.495678 
L 182.029228 190.325226 
L 176.558049 190.325226 
L 175.227588 189.627601 
z
M 168.072969 188.916845 
L 173.856399 188.916845 
L 170.96921 187.393561 
L 168.072969 188.916845 
z
" clip-path="url(#pc46e1b1721)" style="fill: #008000"/>
   </g>
   <g id="patch_17">
    <path d="M 159.895616 180.033315 
L 182.029228 180.033315 
L 182.029228 181.293656 
L 174.066275 181.293656 
L 174.066275 186.495678 
L 167.874011 186.495678 
L 167.874011 181.293656 
L 159.895616 181.293656 
L 159.895616 180.033315 
z
" clip-path="url(#pc46e1b1721)" style="fill: #ff0000"/>
   </g>
   <g id="patch_18">
    <path d="M 182.029228 179.518628 
Q 180.177789 179.773746 178.175782 179.902789 
Q 176.173775 180.033315 173.993316 180.033315 
Q 167.490975 180.033315 163.693295 179.066237 
Q 159.895616 178.099159 159.895616 176.445338 
Q 159.895616 174.785584 163.693295 173.819989 
Q 167.490975 172.852912 173.993316 172.852912 
Q 176.173775 172.852912 178.175782 172.983437 
Q 180.177789 173.11248 182.029228 173.367599 
L 182.029228 174.798933 
Q 180.161059 174.460752 178.348657 174.303528 
Q 176.536255 174.146304 174.534248 174.146304 
Q 170.942904 174.146304 168.88513 174.758885 
Q 166.832933 175.369983 166.832933 176.445338 
Q 166.832933 177.516243 168.88513 178.128824 
Q 170.942904 178.739923 174.534248 178.739923 
Q 176.536255 178.739923 178.348657 178.582698 
Q 180.161059 178.423991 182.029228 178.08581 
L 182.029228 179.518628 
z
" clip-path="url(#pc46e1b1721)" style="fill: #0000ff"/>
   </g>
   <g id="patch_19">
    <path d="M 198.526127 191.491893 
L 190.013895 191.491893 
L 188.669859 192.24 
L 183.194154 192.24 
L 191.014003 188.133333 
L 197.507917 188.133333 
L 205.327766 192.24 
L 199.856587 192.24 
L 198.526127 191.491893 
z
M 191.371508 190.729704 
L 197.154938 190.729704 
L 194.267748 189.096191 
L 191.371508 190.729704 
z
" clip-path="url(#pc46e1b1721)" style="fill: #008000"/>
   </g>
   <g id="patch_20">
    <path d="M 205.327766 187.575994 
Q 203.095555 187.854664 200.694688 187.994635 
Q 198.293821 188.133333 195.73422 188.133333 
Q 189.950313 188.133333 186.572234 187.303687 
Q 183.194154 186.47404 183.194154 185.055242 
Q 183.194154 183.619902 186.631759 182.796618 
Q 190.074325 181.973333 196.061611 181.973333 
Q 198.368228 181.973333 200.481388 182.08531 
Q 202.599508 182.196015 204.474566 182.414878 
L 204.474566 183.642807 
Q 202.539983 183.361592 200.625242 183.222893 
Q 198.710501 183.082922 196.785839 183.082922 
Q 193.224222 183.082922 191.2946 183.594453 
Q 189.364978 184.104711 189.364978 185.055242 
Q 189.364978 185.996866 191.225153 186.510941 
Q 193.085329 187.023744 196.508053 187.023744 
Q 197.440621 187.023744 198.239256 186.994478 
Q 199.037892 186.963939 199.672832 186.900315 
L 199.672832 185.747463 
L 196.026887 185.747463 
L 196.026887 184.720584 
L 205.327766 184.720584 
L 205.327766 187.575994 
z
" clip-path="url(#pc46e1b1721)" style="fill: #ffa600"/>
   </g>
   <g id="patch_21">
    <path d="M 183.194154 171.706667 
L 205.327766 171.706667 
L 205.327766 173.708953 
L 197.364813 173.708953 
L 197.364813 181.973333 
L 191.172549 181.973333 
L 191.172549 173.708953 
L 183.194154 173.708953 
L 183.194154 171.706667 
z
" clip-path="url(#pc46e1b1721)" style="fill: #ff0000"/>
   </g>
   <g id="patch_22">
    <path d="M 205.327766 161.256765 
Q 203.476328 166.436543 201.474321 169.056548 
Q 199.472313 171.706667 197.291854 171.706667 
Q 190.789513 171.706667 186.991834 152.071693 
Q 183.194154 132.43672 183.194154 98.858506 
Q 183.194154 65.159832 186.991834 45.554973 
Q 190.789513 25.92 197.291854 25.92 
Q 199.472313 25.92 201.474321 28.570119 
Q 203.476328 31.190123 205.327766 36.369902 
L 205.327766 65.430867 
Q 203.459598 58.564649 201.647196 55.37246 
Q 199.834794 52.180271 197.832787 52.180271 
Q 194.241442 52.180271 192.183669 64.617762 
Q 190.131472 77.025138 190.131472 98.858506 
Q 190.131472 120.601529 192.183669 133.039019 
Q 194.241442 145.446395 197.832787 145.446395 
Q 199.834794 145.446395 201.647196 142.254206 
Q 203.459598 139.031902 205.327766 132.165685 
L 205.327766 161.256765 
z
" clip-path="url(#pc46e1b1721)" style="fill: #0000ff"/>
   </g>
   <g id="patch_23">
    <path d="M 228.626305 192.02203 
Q 226.394094 192.131015 223.993227 192.185756 
Q 221.59236 192.24 219.032758 192.24 
Q 213.248852 192.24 209.870772 191.915534 
Q 206.492693 191.591068 206.492693 191.036191 
Q 206.492693 190.474844 209.930298 190.152866 
Q 213.372863 189.830889 219.360149 189.830889 
Q 221.666767 189.830889 223.779927 189.874682 
Q 225.898047 189.917977 227.773104 190.003572 
L 227.773104 190.483802 
Q 225.838521 190.373822 223.92378 190.319578 
Q 222.009039 190.264837 220.084378 190.264837 
Q 216.522761 190.264837 214.593139 190.464891 
Q 212.663516 190.664448 212.663516 191.036191 
Q 212.663516 191.40445 214.523692 191.605499 
Q 216.383868 191.806051 219.806591 191.806051 
Q 220.739159 191.806051 221.537795 191.794606 
Q 222.33643 191.782662 222.97137 191.75778 
L 222.97137 191.306911 
L 219.325426 191.306911 
L 219.325426 190.905309 
L 228.626305 190.905309 
L 228.626305 192.02203 
z
" clip-path="url(#pc46e1b1721)" style="fill: #ffa600"/>
   </g>
   <g id="patch_24">
    <path d="M 228.626305 189.183325 
Q 226.774866 189.504307 224.772859 189.666665 
Q 222.770852 189.830889 220.590393 189.830889 
Q 214.088052 189.830889 210.290373 188.61414 
Q 206.492693 187.397392 206.492693 185.316604 
Q 206.492693 183.228351 210.290373 182.013469 
Q 214.088052 180.796721 220.590393 180.796721 
Q 222.770852 180.796721 224.772859 180.960944 
Q 226.774866 181.123302 228.626305 181.444284 
L 228.626305 183.245146 
Q 226.758137 182.819658 224.945734 182.621843 
Q 223.133332 182.424028 221.131325 182.424028 
Q 217.539981 182.424028 215.482207 183.194759 
Q 213.430011 183.963625 213.430011 185.316604 
Q 213.430011 186.663984 215.482207 187.434716 
Q 217.539981 188.203581 221.131325 188.203581 
Q 223.133332 188.203581 224.945734 188.005766 
Q 226.758137 187.806085 228.626305 187.380597 
L 228.626305 189.183325 
z
" clip-path="url(#pc46e1b1721)" style="fill: #0000ff"/>
   </g>
   <g id="patch_25">
    <path d="M 206.492693 169.955719 
L 228.626305 169.955719 
L 228.626305 172.070017 
L 220.663352 172.070017 
L 220.663352 180.796721 
L 214.471088 180.796721 
L 214.471088 172.070017 
L 206.492693 172.070017 
L 206.492693 169.955719 
z
" clip-path="url(#pc46e1b1721)" style="fill: #ff0000"/>
   </g>
   <g id="patch_26">
    <path d="M 221.824665 165.128203 
L 213.312434 165.128203 
L 211.968397 169.955719 
L 206.492693 169.955719 
L 214.312542 143.455493 
L 220.806456 143.455493 
L 228.626305 169.955719 
L 223.155126 169.955719 
L 221.824665 165.128203 
z
M 214.670047 160.209815 
L 220.453477 160.209815 
L 217.566287 149.668791 
L 214.670047 160.209815 
z
" clip-path="url(#pc46e1b1721)" style="fill: #008000"/>
   </g>
   <g id="patch_27">
    <path d="M 245.123204 191.905686 
L 236.610973 191.905686 
L 235.266936 192.24 
L 229.791232 192.24 
L 237.611081 190.404814 
L 244.104995 190.404814 
L 251.924843 192.24 
L 246.453664 192.24 
L 245.123204 191.905686 
z
M 237.968585 191.56508 
L 243.752015 191.56508 
L 240.864826 190.835096 
L 237.968585 191.56508 
z
" clip-path="url(#pc46e1b1721)" style="fill: #008000"/>
   </g>
   <g id="patch_28">
    <path d="M 229.791232 184.53222 
L 251.924843 184.53222 
L 251.924843 185.67754 
L 243.961891 185.67754 
L 243.961891 190.404814 
L 237.769627 190.404814 
L 237.769627 185.67754 
L 229.791232 185.67754 
L 229.791232 184.53222 
z
" clip-path="url(#pc46e1b1721)" style="fill: #ff0000"/>
   </g>
   <g id="patch_29">
    <path d="M 251.924843 183.74295 
Q 250.073405 184.134173 248.071398 184.332059 
Q 246.069391 184.53222 243.888931 184.53222 
Q 237.386591 184.53222 233.588911 183.049211 
Q 229.791232 181.566202 229.791232 179.030075 
Q 229.791232 176.484849 233.588911 175.004115 
Q 237.386591 173.521106 243.888931 173.521106 
Q 246.069391 173.521106 248.071398 173.721267 
Q 250.073405 173.919153 251.924843 174.310376 
L 251.924843 176.50532 
Q 250.056675 175.986722 248.244273 175.745619 
Q 246.431871 175.504517 244.429864 175.504517 
Q 240.838519 175.504517 238.780746 176.443907 
Q 236.728549 177.381023 236.728549 179.030075 
Q 236.728549 180.672303 238.780746 181.611693 
Q 240.838519 182.548809 244.429864 182.548809 
Q 246.431871 182.548809 248.244273 182.307707 
Q 250.056675 182.064329 251.924843 181.545731 
L 251.924843 183.74295 
z
" clip-path="url(#pc46e1b1721)" style="fill: #0000ff"/>
   </g>
   <g id="patch_30">
    <path d="M 251.924843 172.524851 
Q 249.692632 173.022979 247.291766 173.27318 
Q 244.890899 173.521106 242.331297 173.521106 
Q 236.54739 173.521106 233.169311 172.038097 
Q 229.791232 170.555088 229.791232 168.018961 
Q 229.791232 165.453264 233.228837 163.981628 
Q 236.671402 162.509992 242.658688 162.509992 
Q 244.965306 162.509992 247.078465 162.710153 
Q 249.196586 162.908039 251.071643 163.299262 
L 251.071643 165.494206 
Q 249.13706 164.99153 247.222319 164.743604 
Q 245.307578 164.493403 243.382916 164.493403 
Q 239.8213 164.493403 237.891677 165.407773 
Q 235.962055 166.319869 235.962055 168.018961 
Q 235.962055 169.70213 237.822231 170.62105 
Q 239.682406 171.537695 243.10513 171.537695 
Q 244.037698 171.537695 244.836334 171.48538 
Q 245.634969 171.430791 246.269909 171.317064 
L 246.269909 169.256318 
L 242.623964 169.256318 
L 242.623964 167.420753 
L 251.924843 167.420753 
L 251.924843 172.524851 
z
" clip-path="url(#pc46e1b1721)" style="fill: #ffa600"/>
   </g>
   <g id="patch_31">
    <path d="M 268.421743 191.674691 
L 259.909511 191.674691 
L 258.565475 192.24 
L 253.08977 192.24 
L 260.909619 189.136784 
L 267.403533 189.136784 
L 275.223382 192.24 
L 269.752203 192.24 
L 268.421743 191.674691 
z
M 261.267124 191.09874 
L 267.050554 191.09874 
L 264.163364 189.864371 
L 261.267124 191.09874 
z
" clip-path="url(#pc46e1b1721)" style="fill: #008000"/>
   </g>
   <g id="patch_32">
    <path d="M 253.08977 185.257765 
L 275.223382 185.257765 
L 275.223382 186.014282 
L 267.260429 186.014282 
L 267.260429 189.136784 
L 261.068165 189.136784 
L 261.068165 186.014282 
L 253.08977 186.014282 
L 253.08977 185.257765 
z
" clip-path="url(#pc46e1b1721)" style="fill: #ff0000"/>
   </g>
   <g id="patch_33">
    <path d="M 275.223382 184.451432 
Q 273.371944 184.851113 271.369936 185.053277 
Q 269.367929 185.257765 267.18747 185.257765 
Q 260.685129 185.257765 256.88745 183.742696 
Q 253.08977 182.227627 253.08977 179.636673 
Q 253.08977 177.036423 256.88745 175.523678 
Q 260.685129 174.008609 267.18747 174.008609 
Q 269.367929 174.008609 271.369936 174.213097 
Q 273.371944 174.415261 275.223382 174.814942 
L 275.223382 177.057337 
Q 273.355214 176.527527 271.542812 176.281213 
Q 269.73041 176.034898 267.728402 176.034898 
Q 264.137058 176.034898 262.079285 176.994596 
Q 260.027088 177.951971 260.027088 179.636673 
Q 260.027088 181.314402 262.079285 182.274101 
Q 264.137058 183.231476 267.728402 183.231476 
Q 269.73041 183.231476 271.542812 182.985161 
Q 273.355214 182.736523 275.223382 182.206713 
L 275.223382 184.451432 
z
" clip-path="url(#pc46e1b1721)" style="fill: #0000ff"/>
   </g>
   <g id="patch_34">
    <path d="M 275.223382 172.815336 
Q 272.991171 173.411972 270.590304 173.711653 
Q 268.189437 174.008609 265.629835 174.008609 
Q 259.845929 174.008609 256.46785 172.232321 
Q 253.08977 170.456033 253.08977 167.418362 
Q 253.08977 164.345275 256.527375 162.582609 
Q 259.969941 160.819943 265.957226 160.819943 
Q 268.263844 160.819943 270.377004 161.059687 
Q 272.495124 161.296707 274.370181 161.765299 
L 274.370181 164.394314 
Q 272.435599 163.792228 270.520858 163.495272 
Q 268.606117 163.195592 266.681455 163.195592 
Q 263.119838 163.195592 261.190216 164.290788 
Q 259.260594 165.383259 259.260594 167.418362 
Q 259.260594 169.434395 261.120769 170.535039 
Q 262.980945 171.63296 266.403669 171.63296 
Q 267.336237 171.63296 268.134872 171.570299 
Q 268.933508 171.504914 269.568448 171.368696 
L 269.568448 168.900419 
L 265.922503 168.900419 
L 265.922503 166.701854 
L 275.223382 166.701854 
L 275.223382 172.815336 
z
" clip-path="url(#pc46e1b1721)" style="fill: #ffa600"/>
   </g>
   <g id="patch_35">
    <path d="M 298.521921 192.028372 
Q 296.670482 192.133271 294.668475 192.186331 
Q 292.666468 192.24 290.486009 192.24 
Q 283.983668 192.24 280.185988 191.842359 
Q 276.388309 191.444718 276.388309 190.764703 
Q 276.388309 190.082248 280.185988 189.685217 
Q 283.983668 189.287576 290.486009 189.287576 
Q 292.666468 189.287576 294.668475 189.341245 
Q 296.670482 189.394305 298.521921 189.499204 
L 298.521921 190.087737 
Q 296.653752 189.948685 294.84135 189.884037 
Q 293.028948 189.81939 291.026941 189.81939 
Q 287.435597 189.81939 285.377823 190.07127 
Q 283.325626 190.32254 283.325626 190.764703 
Q 283.325626 191.205035 285.377823 191.456915 
Q 287.435597 191.708186 291.026941 191.708186 
Q 293.028948 191.708186 294.84135 191.643538 
Q 296.653752 191.578281 298.521921 191.439229 
L 298.521921 192.028372 
z
" clip-path="url(#pc46e1b1721)" style="fill: #0000ff"/>
   </g>
   <g id="patch_36">
    <path d="M 276.388309 182.201757 
L 298.521921 182.201757 
L 298.521921 183.583689 
L 290.558968 183.583689 
L 290.558968 189.287576 
L 284.366704 189.287576 
L 284.366704 183.583689 
L 276.388309 183.583689 
L 276.388309 182.201757 
z
" clip-path="url(#pc46e1b1721)" style="fill: #ff0000"/>
   </g>
   <g id="patch_37">
    <path d="M 298.521921 181.133249 
Q 296.28971 181.667503 293.888843 181.93585 
Q 291.487976 182.201757 288.928374 182.201757 
Q 283.144467 182.201757 279.766388 180.611193 
Q 276.388309 179.020628 276.388309 176.300568 
Q 276.388309 173.548794 279.825914 171.970427 
Q 283.268479 170.39206 289.255765 170.39206 
Q 291.562383 170.39206 293.675543 170.606738 
Q 295.793663 170.818976 297.66872 171.238572 
L 297.66872 173.592705 
Q 295.734137 173.053572 293.819396 172.787665 
Q 291.904655 172.519318 289.979993 172.519318 
Q 286.418377 172.519318 284.488754 173.500004 
Q 282.559132 174.47825 282.559132 176.300568 
Q 282.559132 178.10581 284.419308 179.091374 
Q 286.279484 180.074499 289.702207 180.074499 
Q 290.634775 180.074499 291.433411 180.018391 
Q 292.232046 179.959842 292.866986 179.837866 
L 292.866986 177.627665 
L 289.221042 177.627665 
L 289.221042 175.658975 
L 298.521921 175.658975 
L 298.521921 181.133249 
z
" clip-path="url(#pc46e1b1721)" style="fill: #ffa600"/>
   </g>
   <g id="patch_38">
    <path d="M 291.720281 165.65907 
L 283.20805 165.65907 
L 281.864013 170.39206 
L 276.388309 170.39206 
L 284.208158 144.410726 
L 290.702072 144.410726 
L 298.521921 170.39206 
L 293.050742 170.39206 
L 291.720281 165.65907 
z
M 284.565663 160.836988 
L 290.349092 160.836988 
L 287.461903 150.502364 
L 284.565663 160.836988 
z
" clip-path="url(#pc46e1b1721)" style="fill: #008000"/>
   </g>
   <g id="patch_39">
    <path d="M 321.820459 192.036057 
Q 319.588248 192.138029 317.187381 192.189247 
Q 314.786515 192.24 312.226913 192.24 
Q 306.443006 192.24 303.064927 191.936414 
Q 299.686848 191.632828 299.686848 191.113659 
Q 299.686848 190.588436 303.124452 190.287178 
Q 306.567018 189.98592 312.554304 189.98592 
Q 314.860922 189.98592 316.974081 190.026895 
Q 319.092201 190.067404 320.967259 190.147491 
L 320.967259 190.596817 
Q 319.032676 190.493915 317.117935 190.443162 
Q 315.203194 190.391943 313.278532 190.391943 
Q 309.716915 190.391943 307.787293 190.579124 
Q 305.857671 190.765838 305.857671 191.113659 
Q 305.857671 191.458219 307.717847 191.646331 
Q 309.578022 191.833977 313.000746 191.833977 
Q 313.933314 191.833977 314.731949 191.823268 
Q 315.530585 191.812093 316.165525 191.788812 
L 316.165525 191.366957 
L 312.51958 191.366957 
L 312.51958 190.9912 
L 321.820459 190.9912 
L 321.820459 192.036057 
z
" clip-path="url(#pc46e1b1721)" style="fill: #ffa600"/>
   </g>
   <g id="patch_40">
    <path d="M 315.01882 189.301548 
L 306.506589 189.301548 
L 305.162552 189.98592 
L 299.686848 189.98592 
L 307.506697 186.229121 
L 314.00061 186.229121 
L 321.820459 189.98592 
L 316.34928 189.98592 
L 315.01882 189.301548 
z
M 307.864201 188.604294 
L 313.647631 188.604294 
L 310.760442 187.109948 
L 307.864201 188.604294 
z
" clip-path="url(#pc46e1b1721)" style="fill: #008000"/>
   </g>
   <g id="patch_41">
    <path d="M 299.686848 180.468695 
L 321.820459 180.468695 
L 321.820459 181.592138 
L 313.857506 181.592138 
L 313.857506 186.229121 
L 307.665243 186.229121 
L 307.665243 181.592138 
L 299.686848 181.592138 
L 299.686848 180.468695 
z
" clip-path="url(#pc46e1b1721)" style="fill: #ff0000"/>
   </g>
   <g id="patch_42">
    <path d="M 321.820459 179.858315 
Q 319.969021 180.160866 317.967014 180.313901 
Q 315.965006 180.468695 313.784547 180.468695 
Q 307.282206 180.468695 303.484527 179.321814 
Q 299.686848 178.174934 299.686848 176.213627 
Q 299.686848 174.245284 303.484527 173.100163 
Q 307.282206 171.953282 313.784547 171.953282 
Q 315.965006 171.953282 317.967014 172.108076 
Q 319.969021 172.261111 321.820459 172.563662 
L 321.820459 174.261116 
Q 319.952291 173.860059 318.139889 173.673603 
Q 316.327487 173.487147 314.32548 173.487147 
Q 310.734135 173.487147 308.676362 174.213622 
Q 306.624165 174.938338 306.624165 176.213627 
Q 306.624165 177.483639 308.676362 178.210114 
Q 310.734135 178.93483 314.32548 178.93483 
Q 316.327487 178.93483 318.139889 178.748374 
Q 319.952291 178.560159 321.820459 178.159102 
L 321.820459 179.858315 
z
" clip-path="url(#pc46e1b1721)" style="fill: #0000ff"/>
   </g>
   <g id="patch_43">
    <path d="M 338.317358 191.638837 
L 329.805127 191.638837 
L 328.461091 192.24 
L 322.985386 192.24 
L 330.805235 188.939967 
L 337.299149 188.939967 
L 345.118998 192.24 
L 339.647819 192.24 
L 338.317358 191.638837 
z
M 331.16274 191.026357 
L 336.94617 191.026357 
L 334.05898 189.7137 
L 331.16274 191.026357 
z
" clip-path="url(#pc46e1b1721)" style="fill: #008000"/>
   </g>
   <g id="patch_44">
    <path d="M 322.985386 182.339901 
L 345.118998 182.339901 
L 345.118998 183.627098 
L 337.156045 183.627098 
L 337.156045 188.939967 
L 330.963781 188.939967 
L 330.963781 183.627098 
L 322.985386 183.627098 
L 322.985386 182.339901 
z
" clip-path="url(#pc46e1b1721)" style="fill: #ff0000"/>
   </g>
   <g id="patch_45">
    <path d="M 345.118998 180.847013 
Q 342.886787 181.593457 340.48592 181.968383 
Q 338.085053 182.339901 335.525451 182.339901 
Q 329.741545 182.339901 326.363465 180.117611 
Q 322.985386 177.895321 322.985386 174.094932 
Q 322.985386 170.250233 326.422991 168.044985 
Q 329.865556 165.839737 335.852842 165.839737 
Q 338.15946 165.839737 340.27262 166.139678 
Q 342.39074 166.43621 344.265797 167.022459 
L 344.265797 170.311585 
Q 342.331214 169.558324 340.416474 169.186806 
Q 338.501733 168.81188 336.577071 168.81188 
Q 333.015454 168.81188 331.085832 170.182065 
Q 329.156209 171.548841 329.156209 174.094932 
Q 329.156209 176.617163 331.016385 177.994165 
Q 332.876561 179.367758 336.299284 179.367758 
Q 337.231853 179.367758 338.030488 179.289365 
Q 338.829124 179.207563 339.464064 179.037142 
L 339.464064 175.949113 
L 335.818119 175.949113 
L 335.818119 173.198517 
L 345.118998 173.198517 
L 345.118998 180.847013 
z
" clip-path="url(#pc46e1b1721)" style="fill: #ffa600"/>
   </g>
   <g id="patch_46">
    <path d="M 345.118998 158.152044 
Q 343.267559 161.962658 341.265552 163.89012 
Q 339.263545 165.839737 337.083086 165.839737 
Q 330.580745 165.839737 326.783066 151.39485 
Q 322.985386 136.949963 322.985386 112.247434 
Q 322.985386 87.456287 326.783066 73.033555 
Q 330.580745 58.588668 337.083086 58.588668 
Q 339.263545 58.588668 341.265552 60.538284 
Q 343.267559 62.465746 345.118998 66.276361 
L 345.118998 87.655679 
Q 343.25083 82.6044 341.438428 80.255998 
Q 339.626025 77.907596 337.624018 77.907596 
Q 334.032674 77.907596 331.9749 87.057501 
Q 329.922704 96.185252 329.922704 112.247434 
Q 329.922704 128.243153 331.9749 137.393058 
Q 334.032674 146.520808 337.624018 146.520808 
Q 339.626025 146.520808 341.438428 144.172407 
Q 343.25083 141.80185 345.118998 136.750571 
L 345.118998 158.152044 
z
" clip-path="url(#pc46e1b1721)" style="fill: #0000ff"/>
   </g>
   <g id="patch_47">
    <path d="M 361.615897 191.512621 
L 353.103666 191.512621 
L 351.759629 192.24 
L 346.283925 192.24 
L 354.103774 188.247119 
L 360.597688 188.247119 
L 368.417537 192.24 
L 362.946358 192.24 
L 361.615897 191.512621 
z
M 354.461278 190.771551 
L 360.244708 190.771551 
L 357.357519 189.183298 
L 354.461278 190.771551 
z
" clip-path="url(#pc46e1b1721)" style="fill: #008000"/>
   </g>
   <g id="patch_48">
    <path d="M 368.417537 187.82017 
Q 366.185326 188.033645 363.784459 188.140869 
Q 361.383592 188.247119 358.82399 188.247119 
Q 353.040083 188.247119 349.662004 187.611569 
Q 346.283925 186.97602 346.283925 185.889152 
Q 346.283925 184.789612 349.72153 184.158936 
Q 353.164095 183.52826 359.151381 183.52826 
Q 361.457999 183.52826 363.571159 183.61404 
Q 365.689279 183.698845 367.564336 183.866505 
L 367.564336 184.807158 
Q 365.629753 184.591734 363.715012 184.485484 
Q 361.800271 184.378259 359.875609 184.378259 
Q 356.313993 184.378259 354.38437 184.770116 
Q 352.454748 185.160999 352.454748 185.889152 
Q 352.454748 186.610481 354.314924 187.004288 
Q 356.1751 187.39712 359.597823 187.39712 
Q 360.530391 187.39712 361.329027 187.374701 
Q 362.127662 187.351306 362.762602 187.302568 
L 362.762602 186.419426 
L 359.116658 186.419426 
L 359.116658 185.632787 
L 368.417537 185.632787 
L 368.417537 187.82017 
z
" clip-path="url(#pc46e1b1721)" style="fill: #ffa600"/>
   </g>
   <g id="patch_49">
    <path d="M 368.417537 183.111959 
Q 366.566098 183.31831 364.564091 183.422685 
Q 362.562084 183.52826 360.381625 183.52826 
Q 353.879284 183.52826 350.081604 182.746045 
Q 346.283925 181.96383 346.283925 180.626146 
Q 346.283925 179.283664 350.081604 178.502648 
Q 353.879284 177.720433 360.381625 177.720433 
Q 362.562084 177.720433 364.564091 177.826008 
Q 366.566098 177.930384 368.417537 178.136735 
L 368.417537 179.294461 
Q 366.549368 179.020926 364.736966 178.893756 
Q 362.924564 178.766586 360.922557 178.766586 
Q 357.331213 178.766586 355.273439 179.262069 
Q 353.221242 179.756352 353.221242 180.626146 
Q 353.221242 181.492342 355.273439 181.987824 
Q 357.331213 182.482107 360.922557 182.482107 
Q 362.924564 182.482107 364.736966 182.354938 
Q 366.549368 182.226568 368.417537 181.953033 
L 368.417537 183.111959 
z
" clip-path="url(#pc46e1b1721)" style="fill: #0000ff"/>
   </g>
   <g id="patch_50">
    <path d="M 346.283925 162.837878 
L 368.417537 162.837878 
L 368.417537 165.740391 
L 360.454584 165.740391 
L 360.454584 177.720433 
L 354.26232 177.720433 
L 354.26232 165.740391 
L 346.283925 165.740391 
L 346.283925 162.837878 
z
" clip-path="url(#pc46e1b1721)" style="fill: #ff0000"/>
   </g>
   <g id="patch_51">
    <path d="M 384.914436 191.56372 
L 376.402204 191.56372 
L 375.058168 192.24 
L 369.582463 192.24 
L 377.402312 188.527621 
L 383.896226 188.527621 
L 391.716075 192.24 
L 386.244896 192.24 
L 384.914436 191.56372 
z
M 377.759817 190.87471 
L 383.543247 190.87471 
L 380.656057 189.398033 
L 377.759817 190.87471 
z
" clip-path="url(#pc46e1b1721)" style="fill: #008000"/>
   </g>
   <g id="patch_52">
    <path d="M 391.716075 188.039769 
Q 389.864637 188.281586 387.86263 188.403901 
Q 385.860622 188.527621 383.680163 188.527621 
Q 377.177822 188.527621 373.380143 187.610966 
Q 369.582463 186.69431 369.582463 185.126716 
Q 369.582463 183.553499 373.380143 182.638249 
Q 377.177822 181.721594 383.680163 181.721594 
Q 385.860622 181.721594 387.86263 181.845314 
Q 389.864637 181.967629 391.716075 182.209446 
L 391.716075 183.566152 
Q 389.847907 183.245604 388.035505 183.096577 
Q 386.223103 182.94755 384.221096 182.94755 
Q 380.629751 182.94755 378.571978 183.528193 
Q 376.519781 184.107429 376.519781 185.126716 
Q 376.519781 186.141786 378.571978 186.722428 
Q 380.629751 187.301665 384.221096 187.301665 
Q 386.223103 187.301665 388.035505 187.152638 
Q 389.847907 187.002205 391.716075 186.681657 
L 391.716075 188.039769 
z
" clip-path="url(#pc46e1b1721)" style="fill: #0000ff"/>
   </g>
   <g id="patch_53">
    <path d="M 391.716075 180.713937 
Q 389.483864 181.217765 387.082997 181.47083 
Q 384.68213 181.721594 382.122529 181.721594 
Q 376.338622 181.721594 372.960543 180.221612 
Q 369.582463 178.72163 369.582463 176.156476 
Q 369.582463 173.561416 373.020068 172.072937 
Q 376.462634 170.584457 382.449919 170.584457 
Q 384.756537 170.584457 386.869697 170.786909 
Q 388.987817 170.98706 390.862875 171.382761 
L 390.862875 173.602826 
Q 388.928292 173.094397 387.013551 172.843633 
Q 385.09881 172.590568 383.174148 172.590568 
Q 379.612531 172.590568 377.682909 173.515404 
Q 375.753287 174.437939 375.753287 176.156476 
Q 375.753287 177.85891 377.613462 178.788347 
Q 379.473638 179.715483 382.896362 179.715483 
Q 383.82893 179.715483 384.627565 179.662569 
Q 385.426201 179.607355 386.061141 179.492326 
L 386.061141 177.407995 
L 382.415196 177.407995 
L 382.415196 175.551422 
L 391.716075 175.551422 
L 391.716075 180.713937 
z
" clip-path="url(#pc46e1b1721)" style="fill: #ffa600"/>
   </g>
   <g id="patch_54">
    <path d="M 369.582463 142.122887 
L 391.716075 142.122887 
L 391.716075 147.673686 
L 383.753122 147.673686 
L 383.753122 170.584457 
L 377.560858 170.584457 
L 377.560858 147.673686 
L 369.582463 147.673686 
L 369.582463 142.122887 
z
" clip-path="url(#pc46e1b1721)" style="fill: #ff0000"/>
   </g>
   <g id="patch_55">
    <path d="M 415.014614 192.124619 
Q 413.163175 192.181811 411.161168 192.210739 
Q 409.159161 192.24 406.978702 192.24 
Q 400.476361 192.24 396.678681 192.023204 
Q 392.881002 191.806407 392.881002 191.435659 
Q 392.881002 191.063581 396.678681 190.847117 
Q 400.476361 190.630321 406.978702 190.630321 
Q 409.159161 190.630321 411.161168 190.659582 
Q 413.163175 190.68851 415.014614 190.745702 
L 415.014614 191.066573 
Q 413.146445 190.990761 411.334043 190.955515 
Q 409.521641 190.920269 407.519634 190.920269 
Q 403.92829 190.920269 401.870516 191.057596 
Q 399.81832 191.19459 399.81832 191.435659 
Q 399.81832 191.675731 401.870516 191.813058 
Q 403.92829 191.950052 407.519634 191.950052 
Q 409.521641 191.950052 411.334043 191.914806 
Q 413.146445 191.879227 415.014614 191.803415 
L 415.014614 192.124619 
z
" clip-path="url(#pc46e1b1721)" style="fill: #0000ff"/>
   </g>
   <g id="patch_56">
    <path d="M 415.014614 190.463876 
Q 412.782403 190.547098 410.381536 190.588899 
Q 407.980669 190.630321 405.421067 190.630321 
Q 399.637161 190.630321 396.259081 190.382553 
Q 392.881002 190.134786 392.881002 189.711074 
Q 392.881002 189.282421 396.318607 189.036554 
Q 399.761172 188.790687 405.748458 188.790687 
Q 408.055076 188.790687 410.168236 188.824128 
Q 412.286356 188.857189 414.161413 188.922551 
L 414.161413 189.289262 
Q 412.22683 189.205279 410.312089 189.163858 
Q 408.397348 189.122057 406.472687 189.122057 
Q 402.91107 189.122057 400.981448 189.274821 
Q 399.051825 189.427206 399.051825 189.711074 
Q 399.051825 189.992282 400.912001 190.145807 
Q 402.772177 190.298951 406.1949 190.298951 
Q 407.127468 190.298951 407.926104 190.290211 
Q 408.724739 190.281091 409.359679 190.26209 
L 409.359679 189.9178 
L 405.713735 189.9178 
L 405.713735 189.611131 
L 415.014614 189.611131 
L 415.014614 190.463876 
z
" clip-path="url(#pc46e1b1721)" style="fill: #ffa600"/>
   </g>
   <g id="patch_57">
    <path d="M 392.881002 186.491145 
L 415.014614 186.491145 
L 415.014614 186.93962 
L 407.051661 186.93962 
L 407.051661 188.790687 
L 400.859397 188.790687 
L 400.859397 186.93962 
L 392.881002 186.93962 
L 392.881002 186.491145 
z
" clip-path="url(#pc46e1b1721)" style="fill: #ff0000"/>
   </g>
   <g id="patch_58">
    <path d="M 408.212974 185.841843 
L 399.700743 185.841843 
L 398.356706 186.491145 
L 392.881002 186.491145 
L 400.700851 182.926855 
L 407.194765 182.926855 
L 415.014614 186.491145 
L 409.543435 186.491145 
L 408.212974 185.841843 
z
M 401.058356 185.180318 
L 406.841786 185.180318 
L 403.954596 183.762546 
L 401.058356 185.180318 
z
" clip-path="url(#pc46e1b1721)" style="fill: #008000"/>
   </g>
   <g id="patch_59">
    <path d="M 431.511513 191.664876 
L 422.999282 191.664876 
L 421.655245 192.24 
L 416.179541 192.24 
L 423.99939 189.082905 
L 430.493303 189.082905 
L 438.313152 192.24 
L 432.841973 192.24 
L 431.511513 191.664876 
z
M 424.356894 191.078925 
L 430.140324 191.078925 
L 427.253135 189.823124 
L 424.356894 191.078925 
z
" clip-path="url(#pc46e1b1721)" style="fill: #008000"/>
   </g>
   <g id="patch_60">
    <path d="M 438.313152 188.756029 
Q 436.461714 188.918054 434.459707 189.000008 
Q 432.4577 189.082905 430.27724 189.082905 
Q 423.7749 189.082905 419.97722 188.468717 
Q 416.179541 187.85453 416.179541 186.804194 
Q 416.179541 185.750089 419.97722 185.136844 
Q 423.7749 184.522656 430.27724 184.522656 
Q 432.4577 184.522656 434.459707 184.605553 
Q 436.461714 184.687507 438.313152 184.849532 
L 438.313152 185.758568 
Q 436.444984 185.54379 434.632582 185.443938 
Q 432.82018 185.344085 430.818173 185.344085 
Q 427.226828 185.344085 425.169055 185.733133 
Q 423.116858 186.12124 423.116858 186.804194 
Q 423.116858 187.484322 425.169055 187.87337 
Q 427.226828 188.261476 430.818173 188.261476 
Q 432.82018 188.261476 434.632582 188.161624 
Q 436.444984 188.060829 438.313152 187.846052 
L 438.313152 188.756029 
z
" clip-path="url(#pc46e1b1721)" style="fill: #0000ff"/>
   </g>
   <g id="patch_61">
    <path d="M 438.313152 183.88789 
Q 436.080941 184.205273 433.680075 184.364689 
Q 431.279208 184.522656 428.719606 184.522656 
Q 422.935699 184.522656 419.55762 183.577752 
Q 416.179541 182.632848 416.179541 181.016947 
Q 416.179541 179.382205 419.617146 178.444547 
Q 423.059711 177.506889 429.046997 177.506889 
Q 431.353615 177.506889 433.466774 177.634422 
Q 435.584895 177.760506 437.459952 178.009775 
L 437.459952 179.408291 
Q 435.525369 179.088009 433.610628 178.930042 
Q 431.695887 178.770626 429.771225 178.770626 
Q 426.209609 178.770626 424.279986 179.35322 
Q 422.350364 179.934365 422.350364 181.016947 
Q 422.350364 182.089384 424.21054 182.674876 
Q 426.070715 183.25892 429.493439 183.25892 
Q 430.426007 183.25892 431.224643 183.225587 
Q 432.023278 183.190806 432.658218 183.118344 
L 432.658218 181.805333 
L 429.012273 181.805333 
L 429.012273 180.635797 
L 438.313152 180.635797 
L 438.313152 183.88789 
z
" clip-path="url(#pc46e1b1721)" style="fill: #ffa600"/>
   </g>
   <g id="patch_62">
    <path d="M 416.179541 163.826144 
L 438.313152 163.826144 
L 438.313152 166.49427 
L 430.3502 166.49427 
L 430.3502 177.506889 
L 424.157936 177.506889 
L 424.157936 166.49427 
L 416.179541 166.49427 
L 416.179541 163.826144 
z
" clip-path="url(#pc46e1b1721)" style="fill: #ff0000"/>
   </g>
   <g id="patch_63">
    <path d="M 454.810052 191.05961 
L 446.29782 191.05961 
L 444.953784 192.24 
L 439.478079 192.24 
L 447.297928 185.760354 
L 453.791842 185.760354 
L 461.611691 192.24 
L 456.140512 192.24 
L 454.810052 191.05961 
z
M 447.655433 189.857001 
L 453.438863 189.857001 
L 450.551673 187.279585 
L 447.655433 189.857001 
z
" clip-path="url(#pc46e1b1721)" style="fill: #008000"/>
   </g>
   <g id="patch_64">
    <path d="M 461.611691 185.174094 
Q 459.37948 185.467224 456.978613 185.614458 
Q 454.577746 185.760354 452.018144 185.760354 
Q 446.234238 185.760354 442.856159 184.887657 
Q 439.478079 184.014959 439.478079 182.522539 
Q 439.478079 181.012719 442.915684 180.146713 
Q 446.35825 179.280708 452.345535 179.280708 
Q 454.652153 179.280708 456.765313 179.398496 
Q 458.883433 179.514945 460.75849 179.745165 
L 460.75849 181.036811 
Q 458.823908 180.741004 456.909167 180.595109 
Q 454.994426 180.447874 453.069764 180.447874 
Q 449.508147 180.447874 447.578525 180.985949 
Q 445.648902 181.522684 445.648902 182.522539 
Q 445.648902 183.513024 447.509078 184.053775 
Q 449.369254 184.593188 452.791978 184.593188 
Q 453.724546 184.593188 454.523181 184.562403 
Q 455.321817 184.530279 455.956757 184.463354 
L 455.956757 183.250679 
L 452.310812 183.250679 
L 452.310812 182.170515 
L 461.611691 182.170515 
L 461.611691 185.174094 
z
" clip-path="url(#pc46e1b1721)" style="fill: #ffa600"/>
   </g>
   <g id="patch_65">
    <path d="M 439.478079 167.24708 
L 461.611691 167.24708 
L 461.611691 169.593973 
L 453.648738 169.593973 
L 453.648738 179.280708 
L 447.456474 179.280708 
L 447.456474 169.593973 
L 439.478079 169.593973 
L 439.478079 167.24708 
z
" clip-path="url(#pc46e1b1721)" style="fill: #ff0000"/>
   </g>
   <g id="patch_66">
    <path d="M 461.611691 163.664125 
Q 459.760253 165.440114 457.758245 166.338434 
Q 455.756238 167.24708 453.575779 167.24708 
Q 447.073438 167.24708 443.275759 160.514842 
Q 439.478079 153.782603 439.478079 142.269649 
Q 439.478079 130.715392 443.275759 123.993479 
Q 447.073438 117.261241 453.575779 117.261241 
Q 455.756238 117.261241 457.758245 118.169886 
Q 459.760253 119.068207 461.611691 120.844196 
L 461.611691 130.808322 
Q 459.743523 128.454104 457.931121 127.359599 
Q 456.118719 126.265094 454.116711 126.265094 
Q 450.525367 126.265094 448.467594 130.529533 
Q 446.415397 134.783647 446.415397 142.269649 
Q 446.415397 149.724674 448.467594 153.989113 
Q 450.525367 158.243227 454.116711 158.243227 
Q 456.118719 158.243227 457.931121 157.148722 
Q 459.743523 156.043892 461.611691 153.689673 
L 461.611691 163.664125 
z
" clip-path="url(#pc46e1b1721)" style="fill: #0000ff"/>
   </g>
   <g id="patch_67">
    <path d="M 462.776618 186.84112 
L 484.91023 186.84112 
L 484.91023 187.894052 
L 476.947277 187.894052 
L 476.947277 192.24 
L 470.755013 192.24 
L 470.755013 187.894052 
L 462.776618 187.894052 
L 462.776618 186.84112 
z
" clip-path="url(#pc46e1b1721)" style="fill: #ff0000"/>
   </g>
   <g id="patch_68">
    <path d="M 478.10859 185.529776 
L 469.596359 185.529776 
L 468.252322 186.84112 
L 462.776618 186.84112 
L 470.596467 179.642614 
L 477.090381 179.642614 
L 484.91023 186.84112 
L 479.439051 186.84112 
L 478.10859 185.529776 
z
M 470.953972 184.193748 
L 476.737401 184.193748 
L 473.850212 181.330391 
L 470.953972 184.193748 
z
" clip-path="url(#pc46e1b1721)" style="fill: #008000"/>
   </g>
   <g id="patch_69">
    <path d="M 484.91023 178.665663 
Q 482.678019 179.154138 480.277152 179.399491 
Q 477.876285 179.642614 475.316683 179.642614 
Q 469.532776 179.642614 466.154697 178.18834 
Q 462.776618 176.734066 462.776618 174.24708 
Q 462.776618 171.731097 466.214223 170.287976 
Q 469.656788 168.844854 475.644074 168.844854 
Q 477.950692 168.844854 480.063852 169.041137 
Q 482.181972 169.235188 484.057029 169.618831 
L 484.057029 171.771246 
Q 482.122446 171.278309 480.207705 171.035187 
Q 478.292964 170.789834 476.368302 170.789834 
Q 472.806686 170.789834 470.877063 171.686487 
Q 468.947441 172.58091 468.947441 174.24708 
Q 468.947441 175.897636 470.807617 176.79875 
Q 472.667793 177.697634 476.090516 177.697634 
Q 477.023084 177.697634 477.82172 177.646333 
Q 478.620355 177.592802 479.255295 177.481278 
L 479.255295 175.460462 
L 475.609351 175.460462 
L 475.609351 173.660463 
L 484.91023 173.660463 
L 484.91023 178.665663 
z
" clip-path="url(#pc46e1b1721)" style="fill: #ffa600"/>
   </g>
   <g id="patch_70">
    <path d="M 484.91023 160.073115 
Q 483.058791 164.421067 481.056784 166.620321 
Q 479.054777 168.844854 476.874318 168.844854 
Q 470.371977 168.844854 466.574297 152.363085 
Q 462.776618 135.881316 462.776618 107.695468 
Q 462.776618 79.408505 466.574297 62.952015 
Q 470.371977 46.470246 476.874318 46.470246 
Q 479.054777 46.470246 481.056784 48.694779 
Q 483.058791 50.894033 484.91023 55.241985 
L 484.91023 79.636014 
Q 483.042061 73.872451 481.229659 71.1929 
Q 479.417257 68.513348 477.41525 68.513348 
Q 473.823906 68.513348 471.766132 78.953487 
Q 469.713935 89.368347 469.713935 107.695468 
Q 469.713935 125.946752 471.766132 136.386892 
Q 473.823906 146.801752 477.41525 146.801752 
Q 479.417257 146.801752 481.229659 144.1222 
Q 483.042061 141.41737 484.91023 135.653807 
L 484.91023 160.073115 
z
" clip-path="url(#pc46e1b1721)" style="fill: #0000ff"/>
   </g>
   <g id="patch_71">
    <path d="M 486.075157 189.344193 
L 508.208768 189.344193 
L 508.208768 189.908956 
L 500.245815 189.908956 
L 500.245815 192.24 
L 494.053551 192.24 
L 494.053551 189.908956 
L 486.075157 189.908956 
L 486.075157 189.344193 
z
" clip-path="url(#pc46e1b1721)" style="fill: #ff0000"/>
   </g>
   <g id="patch_72">
    <path d="M 508.208768 189.115867 
Q 506.35733 189.229043 504.355323 189.286289 
Q 502.353315 189.344193 500.172856 189.344193 
Q 493.670515 189.344193 489.872836 188.915176 
Q 486.075157 188.486159 486.075157 187.752487 
Q 486.075157 187.016183 489.872836 186.587823 
Q 493.670515 186.158806 500.172856 186.158806 
Q 502.353315 186.158806 504.355323 186.21671 
Q 506.35733 186.273956 508.208768 186.387133 
L 508.208768 187.022105 
Q 506.3406 186.87208 504.528198 186.802332 
Q 502.715796 186.732584 500.713789 186.732584 
Q 497.122444 186.732584 495.064671 187.004338 
Q 493.012474 187.275435 493.012474 187.752487 
Q 493.012474 188.227564 495.064671 188.499319 
Q 497.122444 188.770416 500.713789 188.770416 
Q 502.715796 188.770416 504.528198 188.700667 
Q 506.3406 188.630261 508.208768 188.480237 
L 508.208768 189.115867 
z
" clip-path="url(#pc46e1b1721)" style="fill: #0000ff"/>
   </g>
   <g id="patch_73">
    <path d="M 501.407129 184.734486 
L 492.894897 184.734486 
L 491.550861 186.158806 
L 486.075157 186.158806 
L 493.895005 178.340128 
L 500.388919 178.340128 
L 508.208768 186.158806 
L 502.737589 186.158806 
L 501.407129 184.734486 
z
M 494.25251 183.283356 
L 500.03594 183.283356 
L 497.14875 180.173311 
L 494.25251 183.283356 
z
" clip-path="url(#pc46e1b1721)" style="fill: #008000"/>
   </g>
   <g id="patch_74">
    <path d="M 508.208768 177.475513 
Q 505.976557 177.907821 503.57569 178.124961 
Q 501.174824 178.340128 498.615222 178.340128 
Q 492.831315 178.340128 489.453236 177.053076 
Q 486.075157 175.766024 486.075157 173.565008 
Q 486.075157 171.338329 489.512761 170.061148 
Q 492.955327 168.783966 498.942613 168.783966 
Q 501.249231 168.783966 503.36239 168.957678 
Q 505.48051 169.129417 507.355568 169.468946 
L 507.355568 171.373862 
Q 505.420985 170.937606 503.506244 170.72244 
Q 501.591503 170.505299 499.666841 170.505299 
Q 496.105224 170.505299 494.175602 171.298849 
Q 492.24598 172.090426 492.24598 173.565008 
Q 492.24598 175.025772 494.106156 175.823271 
Q 495.966331 176.618795 499.389055 176.618795 
Q 500.321623 176.618795 501.120258 176.573393 
Q 501.918894 176.526017 502.553834 176.427316 
L 502.553834 174.638867 
L 498.907889 174.638867 
L 498.907889 173.045844 
L 508.208768 173.045844 
L 508.208768 177.475513 
z
" clip-path="url(#pc46e1b1721)" style="fill: #ffa600"/>
   </g>
   <g id="patch_75">
    <path d="M 531.507307 191.92196 
Q 529.275096 192.08098 526.874229 192.160853 
Q 524.473362 192.24 521.91376 192.24 
Q 516.129854 192.24 512.751774 191.766571 
Q 509.373695 191.293142 509.373695 190.483521 
Q 509.373695 189.66446 512.8113 189.194661 
Q 516.253865 188.724863 522.241151 188.724863 
Q 524.547769 188.724863 526.660929 188.788761 
Q 528.779049 188.851934 530.654106 188.976826 
L 530.654106 189.67753 
Q 528.719523 189.517058 526.804782 189.437911 
Q 524.890042 189.358038 522.96538 189.358038 
Q 519.403763 189.358038 517.474141 189.649937 
Q 515.544518 189.94111 515.544518 190.483521 
Q 515.544518 191.020848 517.404694 191.3142 
Q 519.26487 191.606825 522.687593 191.606825 
Q 523.620162 191.606825 524.418797 191.590124 
Q 525.217432 191.572698 525.852372 191.536392 
L 525.852372 190.878529 
L 522.206428 190.878529 
L 522.206428 190.292552 
L 531.507307 190.292552 
L 531.507307 191.92196 
z
" clip-path="url(#pc46e1b1721)" style="fill: #ffa600"/>
   </g>
   <g id="patch_76">
    <path d="M 531.507307 188.444904 
Q 529.655868 188.583673 527.653861 188.653865 
Q 525.651854 188.724863 523.471395 188.724863 
Q 516.969054 188.724863 513.171375 188.198831 
Q 509.373695 187.672799 509.373695 186.773219 
Q 509.373695 185.870412 513.171375 185.345187 
Q 516.969054 184.819155 523.471395 184.819155 
Q 525.651854 184.819155 527.653861 184.890153 
Q 529.655868 184.960345 531.507307 185.099114 
L 531.507307 185.877674 
Q 529.639139 185.693724 527.826737 185.608203 
Q 526.014334 185.522683 524.012327 185.522683 
Q 520.420983 185.522683 518.363209 185.85589 
Q 516.311013 186.188291 516.311013 186.773219 
Q 516.311013 187.355727 518.363209 187.688935 
Q 520.420983 188.021335 524.012327 188.021335 
Q 526.014334 188.021335 527.826737 187.935815 
Q 529.639139 187.849487 531.507307 187.665537 
L 531.507307 188.444904 
z
" clip-path="url(#pc46e1b1721)" style="fill: #0000ff"/>
   </g>
   <g id="patch_77">
    <path d="M 524.705667 183.111559 
L 516.193436 183.111559 
L 514.8494 184.819155 
L 509.373695 184.819155 
L 517.193544 175.445456 
L 523.687458 175.445456 
L 531.507307 184.819155 
L 526.036128 184.819155 
L 524.705667 183.111559 
z
M 517.551049 181.371819 
L 523.334479 181.371819 
L 520.447289 177.643233 
L 517.551049 181.371819 
z
" clip-path="url(#pc46e1b1721)" style="fill: #008000"/>
   </g>
   <g id="patch_78">
    <path d="M 509.373695 160.603766 
L 531.507307 160.603766 
L 531.507307 163.498309 
L 523.544354 163.498309 
L 523.544354 175.445456 
L 517.35209 175.445456 
L 517.35209 163.498309 
L 509.373695 163.498309 
L 509.373695 160.603766 
z
" clip-path="url(#pc46e1b1721)" style="fill: #ff0000"/>
   </g>
   <g id="patch_79">
    <path d="M 548.004206 191.470276 
L 539.491975 191.470276 
L 538.147938 192.24 
L 532.672234 192.24 
L 540.492083 188.01467 
L 546.985997 188.01467 
L 554.805846 192.24 
L 549.334667 192.24 
L 548.004206 191.470276 
z
M 540.849587 190.686064 
L 546.633017 190.686064 
L 543.745828 189.005349 
L 540.849587 190.686064 
z
" clip-path="url(#pc46e1b1721)" style="fill: #008000"/>
   </g>
   <g id="patch_80">
    <path d="M 554.805846 187.504942 
Q 552.573635 187.759806 550.172768 187.88782 
Q 547.771901 188.01467 545.212299 188.01467 
Q 539.428392 188.01467 536.050313 187.255897 
Q 532.672234 186.497124 532.672234 185.199529 
Q 532.672234 183.886805 536.109839 183.13385 
Q 539.552404 182.380896 545.53969 182.380896 
Q 547.846308 182.380896 549.959468 182.483307 
Q 552.077588 182.584555 553.952645 182.784722 
L 553.952645 183.907752 
Q 552.018062 183.650561 550.103321 183.523711 
Q 548.18858 183.395697 546.263918 183.395697 
Q 542.702302 183.395697 540.772679 183.863529 
Q 538.843057 184.330198 538.843057 185.199529 
Q 538.843057 186.060713 540.703233 186.530873 
Q 542.563409 186.999869 545.986132 186.999869 
Q 546.9187 186.999869 547.717336 186.973102 
Q 548.515971 186.945172 549.150911 186.886984 
L 549.150911 185.832615 
L 545.504967 185.832615 
L 545.504967 184.893459 
L 554.805846 184.893459 
L 554.805846 187.504942 
z
" clip-path="url(#pc46e1b1721)" style="fill: #ffa600"/>
   </g>
   <g id="patch_81">
    <path d="M 554.805846 181.371332 
Q 552.954407 181.87175 550.9524 182.124868 
Q 548.950393 182.380896 546.769934 182.380896 
Q 540.267593 182.380896 536.469913 180.483963 
Q 532.672234 178.587031 532.672234 175.343043 
Q 532.672234 172.087418 536.469913 170.193395 
Q 540.267593 168.296462 546.769934 168.296462 
Q 548.950393 168.296462 550.9524 168.55249 
Q 552.954407 168.805608 554.805846 169.306026 
L 554.805846 172.113603 
Q 552.937677 171.450258 551.125275 171.141861 
Q 549.312873 170.833464 547.310866 170.833464 
Q 543.719521 170.833464 541.661748 172.035049 
Q 539.609551 173.233724 539.609551 175.343043 
Q 539.609551 177.443634 541.661748 178.645219 
Q 543.719521 179.843894 547.310866 179.843894 
Q 549.312873 179.843894 551.125275 179.535497 
Q 552.937677 179.224191 554.805846 178.560846 
L 554.805846 181.371332 
z
" clip-path="url(#pc46e1b1721)" style="fill: #0000ff"/>
   </g>
   <g id="patch_82">
    <path d="M 532.672234 135.198042 
L 554.805846 135.198042 
L 554.805846 141.653156 
L 546.842893 141.653156 
L 546.842893 168.296462 
L 540.650629 168.296462 
L 540.650629 141.653156 
L 532.672234 141.653156 
L 532.672234 135.198042 
z
" clip-path="url(#pc46e1b1721)" style="fill: #ff0000"/>
   </g>
   <g id="patch_83">
    <path d="M 571.302745 191.883853 
L 562.790513 191.883853 
L 561.446477 192.24 
L 555.970772 192.24 
L 563.790621 190.284963 
L 570.284535 190.284963 
L 578.104384 192.24 
L 572.633205 192.24 
L 571.302745 191.883853 
z
M 564.148126 191.521002 
L 569.931556 191.521002 
L 567.044366 190.743345 
L 564.148126 191.521002 
z
" clip-path="url(#pc46e1b1721)" style="fill: #008000"/>
   </g>
   <g id="patch_84">
    <path d="M 555.970772 184.028845 
L 578.104384 184.028845 
L 578.104384 185.248963 
L 570.141431 185.248963 
L 570.141431 190.284963 
L 563.949167 190.284963 
L 563.949167 185.248963 
L 555.970772 185.248963 
L 555.970772 184.028845 
z
" clip-path="url(#pc46e1b1721)" style="fill: #ff0000"/>
   </g>
   <g id="patch_85">
    <path d="M 578.104384 183.328166 
Q 576.252946 183.675477 574.250939 183.851151 
Q 572.248931 184.028845 570.068472 184.028845 
Q 563.566131 184.028845 559.768452 182.712295 
Q 555.970772 181.395745 555.970772 179.144282 
Q 555.970772 176.884742 559.768452 175.570211 
Q 563.566131 174.253661 570.068472 174.253661 
Q 572.248931 174.253661 574.250939 174.431355 
Q 576.252946 174.60703 578.104384 174.95434 
L 578.104384 176.902916 
Q 576.236216 176.442527 574.423814 176.228487 
Q 572.611412 176.014446 570.609405 176.014446 
Q 567.01806 176.014446 564.960287 176.848396 
Q 562.90809 177.680327 562.90809 179.144282 
Q 562.90809 180.60218 564.960287 181.43613 
Q 567.01806 182.26806 570.609405 182.26806 
Q 572.611412 182.26806 574.423814 182.05402 
Q 576.236216 181.83796 578.104384 181.377571 
L 578.104384 183.328166 
z
" clip-path="url(#pc46e1b1721)" style="fill: #0000ff"/>
   </g>
   <g id="patch_86">
    <path d="M 578.104384 173.015458 
Q 575.872173 173.634559 573.471306 173.945524 
Q 571.070439 174.253661 568.510838 174.253661 
Q 562.726931 174.253661 559.348852 172.410491 
Q 555.970772 170.56732 555.970772 167.415273 
Q 555.970772 164.226475 559.408377 162.397439 
Q 562.850943 160.568403 568.838228 160.568403 
Q 571.144846 160.568403 573.258006 160.817175 
Q 575.376126 161.063119 577.251184 161.549354 
L 577.251184 164.27736 
Q 575.316601 163.652604 573.40186 163.344467 
Q 571.487119 163.033502 569.562457 163.033502 
Q 566.00084 163.033502 564.071218 164.169936 
Q 562.141596 165.303542 562.141596 167.415273 
Q 562.141596 169.507214 564.001771 170.649302 
Q 565.861947 171.788562 569.284671 171.788562 
Q 570.217239 171.788562 571.015874 171.723542 
Q 571.81451 171.655695 572.44945 171.514348 
L 572.44945 168.953133 
L 568.803505 168.953133 
L 568.803505 166.671785 
L 578.104384 166.671785 
L 578.104384 173.015458 
z
" clip-path="url(#pc46e1b1721)" style="fill: #ffa600"/>
   </g>
   <g id="patch_87">
    <path d="M 579.269311 190.286647 
L 601.402923 190.286647 
L 601.402923 190.667605 
L 593.43997 190.667605 
L 593.43997 192.24 
L 587.247706 192.24 
L 587.247706 190.667605 
L 579.269311 190.667605 
L 579.269311 190.286647 
z
" clip-path="url(#pc46e1b1721)" style="fill: #ff0000"/>
   </g>
   <g id="patch_88">
    <path d="M 601.402923 190.111628 
Q 599.551484 190.198381 597.549477 190.242262 
Q 595.54747 190.286647 593.367011 190.286647 
Q 586.86467 190.286647 583.06699 189.957793 
Q 579.269311 189.628939 579.269311 189.066558 
Q 579.269311 188.50216 583.06699 188.17381 
Q 586.86467 187.844956 593.367011 187.844956 
Q 595.54747 187.844956 597.549477 187.889341 
Q 599.551484 187.933222 601.402923 188.019975 
L 601.402923 188.506699 
Q 599.534754 188.391701 597.722352 188.338237 
Q 595.90995 188.284773 593.907943 188.284773 
Q 590.316599 188.284773 588.258825 188.493081 
Q 586.206629 188.700884 586.206629 189.066558 
Q 586.206629 189.430718 588.258825 189.639026 
Q 590.316599 189.84683 593.907943 189.84683 
Q 595.90995 189.84683 597.722352 189.793366 
Q 599.534754 189.739397 601.402923 189.624399 
L 601.402923 190.111628 
z
" clip-path="url(#pc46e1b1721)" style="fill: #0000ff"/>
   </g>
   <g id="patch_89">
    <path d="M 601.402923 187.520944 
Q 599.170712 187.68295 596.769845 187.764323 
Q 594.368978 187.844956 591.809376 187.844956 
Q 586.02547 187.844956 582.64739 187.362636 
Q 579.269311 186.880317 579.269311 186.055492 
Q 579.269311 185.22105 582.706916 184.742429 
Q 586.149481 184.263809 592.136767 184.263809 
Q 594.443385 184.263809 596.556545 184.328907 
Q 598.674665 184.393266 600.549722 184.520503 
L 600.549722 185.234365 
Q 598.615139 185.07088 596.700398 184.990247 
Q 594.785657 184.908874 592.860996 184.908874 
Q 589.299379 184.908874 587.369757 185.206255 
Q 585.440134 185.502896 585.440134 186.055492 
Q 585.440134 186.60291 587.30031 186.90177 
Q 589.160486 187.199891 592.583209 187.199891 
Q 593.515777 187.199891 594.314413 187.182876 
Q 595.113048 187.165122 595.747988 187.128135 
L 595.747988 186.457918 
L 592.102044 186.457918 
L 592.102044 185.860937 
L 601.402923 185.860937 
L 601.402923 187.520944 
z
" clip-path="url(#pc46e1b1721)" style="fill: #ffa600"/>
   </g>
   <g id="patch_90">
    <path d="M 594.601283 183.314902 
L 586.089052 183.314902 
L 584.745015 184.263809 
L 579.269311 184.263809 
L 587.08916 179.054867 
L 593.583074 179.054867 
L 601.402923 184.263809 
L 595.931744 184.263809 
L 594.601283 183.314902 
z
M 587.446665 182.348133 
L 593.230095 182.348133 
L 590.342905 180.276167 
L 587.446665 182.348133 
z
" clip-path="url(#pc46e1b1721)" style="fill: #008000"/>
   </g>
   <g id="patch_91">
    <path d="M 624.701461 192.129839 
Q 622.850023 192.184443 620.848016 192.212063 
Q 618.846009 192.24 616.665549 192.24 
Q 610.163208 192.24 606.365529 192.033011 
Q 602.56785 191.826023 602.56785 191.472047 
Q 602.56785 191.116801 606.365529 190.910129 
Q 610.163208 190.703141 616.665549 190.703141 
Q 618.846009 190.703141 620.848016 190.731078 
Q 622.850023 190.758697 624.701461 190.813302 
L 624.701461 191.119658 
Q 622.833293 191.047275 621.020891 191.013624 
Q 619.208489 190.979972 617.206482 190.979972 
Q 613.615137 190.979972 611.557364 191.111086 
Q 609.505167 191.241883 609.505167 191.472047 
Q 609.505167 191.701258 611.557364 191.832372 
Q 613.615137 191.963168 617.206482 191.963168 
Q 619.208489 191.963168 621.020891 191.929517 
Q 622.833293 191.895548 624.701461 191.823165 
L 624.701461 192.129839 
z
" clip-path="url(#pc46e1b1721)" style="fill: #0000ff"/>
   </g>
   <g id="patch_92">
    <path d="M 602.56785 181.481984 
L 624.701461 181.481984 
L 624.701461 183.280367 
L 616.738509 183.280367 
L 616.738509 190.703141 
L 610.546245 190.703141 
L 610.546245 183.280367 
L 602.56785 183.280367 
L 602.56785 181.481984 
z
" clip-path="url(#pc46e1b1721)" style="fill: #ff0000"/>
   </g>
   <g id="patch_93">
    <path d="M 617.899822 179.428886 
L 609.387591 179.428886 
L 608.043554 181.481984 
L 602.56785 181.481984 
L 610.387699 170.211682 
L 616.881612 170.211682 
L 624.701461 181.481984 
L 619.230282 181.481984 
L 617.899822 179.428886 
z
M 610.745203 177.337141 
L 616.528633 177.337141 
L 613.641444 172.85414 
L 610.745203 177.337141 
z
" clip-path="url(#pc46e1b1721)" style="fill: #008000"/>
   </g>
   <g id="patch_94">
    <path d="M 624.701461 168.450373 
Q 622.46925 169.331028 620.068384 169.773365 
Q 617.667517 170.211682 615.107915 170.211682 
Q 609.324008 170.211682 605.945929 167.589825 
Q 602.56785 164.967968 602.56785 160.484271 
Q 602.56785 155.948298 606.005455 153.346547 
Q 609.44802 150.744796 615.435306 150.744796 
Q 617.741924 150.744796 619.855083 151.098667 
Q 621.973204 151.448516 623.848261 152.140171 
L 623.848261 156.02068 
Q 621.913678 155.131983 619.998937 154.693667 
Q 618.084196 154.251329 616.159534 154.251329 
Q 612.597918 154.251329 610.668295 155.867873 
Q 608.738673 157.480395 608.738673 160.484271 
Q 608.738673 163.459998 610.598849 165.084585 
Q 612.459024 166.705149 615.881748 166.705149 
Q 616.814316 166.705149 617.612951 166.612661 
Q 618.411587 166.516151 619.046527 166.315088 
L 619.046527 162.671833 
L 615.400582 162.671833 
L 615.400582 159.426682 
L 624.701461 159.426682 
L 624.701461 168.450373 
z
" clip-path="url(#pc46e1b1721)" style="fill: #ffa600"/>
   </g>
   <g id="patch_95">
    <path d="M 648 192.04211 
Q 645.767789 192.141055 643.366922 192.190753 
Q 640.966055 192.24 638.406453 192.24 
Q 632.622547 192.24 629.244468 191.945424 
Q 625.866388 191.650848 625.866388 191.147086 
Q 625.866388 190.637452 629.303993 190.345135 
Q 632.746559 190.052818 638.733844 190.052818 
Q 641.040462 190.052818 643.153622 190.092576 
Q 645.271742 190.131883 647.146799 190.209594 
L 647.146799 190.645584 
Q 645.212217 190.545736 643.297476 190.496489 
Q 641.382735 190.446791 639.458073 190.446791 
Q 635.896456 190.446791 633.966834 190.628416 
Q 632.037211 190.809589 632.037211 191.147086 
Q 632.037211 191.481421 633.897387 191.66395 
Q 635.757563 191.846027 639.180287 191.846027 
Q 640.112855 191.846027 640.91149 191.835636 
Q 641.710126 191.824792 642.345066 191.802202 
L 642.345066 191.392868 
L 638.699121 191.392868 
L 638.699121 191.028262 
L 648 191.028262 
L 648 192.04211 
z
" clip-path="url(#pc46e1b1721)" style="fill: #ffa600"/>
   </g>
   <g id="patch_96">
    <path d="M 625.866388 184.366143 
L 648 184.366143 
L 648 185.475203 
L 640.037047 185.475203 
L 640.037047 190.052818 
L 633.844783 190.052818 
L 633.844783 185.475203 
L 625.866388 185.475203 
L 625.866388 184.366143 
z
" clip-path="url(#pc46e1b1721)" style="fill: #ff0000"/>
   </g>
   <g id="patch_97">
    <path d="M 641.198361 182.055211 
L 632.686129 182.055211 
L 631.342093 184.366143 
L 625.866388 184.366143 
L 633.686237 171.680485 
L 640.180151 171.680485 
L 648 184.366143 
L 642.528821 184.366143 
L 641.198361 182.055211 
z
M 634.043742 179.700779 
L 639.827172 179.700779 
L 636.939982 174.654791 
L 634.043742 179.700779 
z
" clip-path="url(#pc46e1b1721)" style="fill: #008000"/>
   </g>
   <g id="patch_98">
    <path d="M 648 170.614409 
Q 646.148562 171.142839 644.146554 171.410126 
Q 642.144547 171.680485 639.964088 171.680485 
Q 633.461747 171.680485 629.664068 169.677368 
Q 625.866388 167.67425 625.866388 164.248674 
Q 625.866388 160.810808 629.664068 158.810762 
Q 633.461747 156.807645 639.964088 156.807645 
Q 642.144547 156.807645 644.146554 157.078004 
Q 646.148562 157.345292 648 157.873721 
L 648 160.838458 
Q 646.131832 160.137981 644.31943 159.812321 
Q 642.507028 159.486661 640.50502 159.486661 
Q 636.913676 159.486661 634.855903 160.755507 
Q 632.803706 162.021281 632.803706 164.248674 
Q 632.803706 166.46685 634.855903 167.735696 
Q 636.913676 169.001469 640.50502 169.001469 
Q 642.507028 169.001469 644.31943 168.675809 
Q 646.131832 168.347077 648 167.6466 
L 648 170.614409 
z
" clip-path="url(#pc46e1b1721)" style="fill: #0000ff"/>
   </g>
   <g id="matplotlib.axis_1">
    <g id="xtick_1">
     <g id="line2d_2">
      <defs>
       <path id="mfd3e5ea6cb" d="M 0 0 
L 0 3.5 
" style="stroke: #000000; stroke-width: 0.8"/>
      </defs>
      <g>
       <use xlink:href="#mfd3e5ea6cb" x="101.066806" y="192.24" style="stroke: #000000; stroke-width: 0.8"/>
      </g>
     </g>
     <g id="text_1">
      <!-- 0 -->
      <g transform="translate(97.885556 206.838437) scale(0.1 -0.1)">
       <defs>
        <path id="DejaVuSans-30" d="M 2034 4250 
Q 1547 4250 1301 3770 
Q 1056 3291 1056 2328 
Q 1056 1369 1301 889 
Q 1547 409 2034 409 
Q 2525 409 2770 889 
Q 3016 1369 3016 2328 
Q 3016 3291 2770 3770 
Q 2525 4250 2034 4250 
z
M 2034 4750 
Q 2819 4750 3233 4129 
Q 3647 3509 3647 2328 
Q 3647 1150 3233 529 
Q 2819 -91 2034 -91 
Q 1250 -91 836 529 
Q 422 1150 422 2328 
Q 422 3509 836 4129 
Q 1250 4750 2034 4750 
z
" transform="scale(0.015625)"/>
       </defs>
       <use xlink:href="#DejaVuSans-30"/>
      </g>
     </g>
    </g>
    <g id="xtick_2">
     <g id="line2d_3">
      <g>
       <use xlink:href="#mfd3e5ea6cb" x="217.559499" y="192.24" style="stroke: #000000; stroke-width: 0.8"/>
      </g>
     </g>
     <g id="text_2">
      <!-- 5 -->
      <g transform="translate(214.378249 206.838437) scale(0.1 -0.1)">
       <defs>
        <path id="DejaVuSans-35" d="M 691 4666 
L 3169 4666 
L 3169 4134 
L 1269 4134 
L 1269 2991 
Q 1406 3038 1543 3061 
Q 1681 3084 1819 3084 
Q 2600 3084 3056 2656 
Q 3513 2228 3513 1497 
Q 3513 744 3044 326 
Q 2575 -91 1722 -91 
Q 1428 -91 1123 -41 
Q 819 9 494 109 
L 494 744 
Q 775 591 1075 516 
Q 1375 441 1709 441 
Q 2250 441 2565 725 
Q 2881 1009 2881 1497 
Q 2881 1984 2565 2268 
Q 2250 2553 1709 2553 
Q 1456 2553 1204 2497 
Q 953 2441 691 2322 
L 691 4666 
z
" transform="scale(0.015625)"/>
       </defs>
       <use xlink:href="#DejaVuSans-35"/>
      </g>
     </g>
    </g>
    <g id="xtick_3">
     <g id="line2d_4">
      <g>
       <use xlink:href="#mfd3e5ea6cb" x="334.052192" y="192.24" style="stroke: #000000; stroke-width: 0.8"/>
      </g>
     </g>
     <g id="text_3">
      <!-- 10 -->
      <g transform="translate(327.689692 206.838437) scale(0.1 -0.1)">
       <defs>
        <path id="DejaVuSans-31" d="M 794 531 
L 1825 531 
L 1825 4091 
L 703 3866 
L 703 4441 
L 1819 4666 
L 2450 4666 
L 2450 531 
L 3481 531 
L 3481 0 
L 794 0 
L 794 531 
z
" transform="scale(0.015625)"/>
       </defs>
       <use xlink:href="#DejaVuSans-31"/>
       <use xlink:href="#DejaVuSans-30" x="63.623047"/>
      </g>
     </g>
    </g>
    <g id="xtick_4">
     <g id="line2d_5">
      <g>
       <use xlink:href="#mfd3e5ea6cb" x="450.544885" y="192.24" style="stroke: #000000; stroke-width: 0.8"/>
      </g>
     </g>
     <g id="text_4">
      <!-- 15 -->
      <g transform="translate(444.182385 206.838437) scale(0.1 -0.1)">
       <use xlink:href="#DejaVuSans-31"/>
       <use xlink:href="#DejaVuSans-35" x="63.623047"/>
      </g>
     </g>
    </g>
    <g id="xtick_5">
     <g id="line2d_6">
      <g>
       <use xlink:href="#mfd3e5ea6cb" x="567.037578" y="192.24" style="stroke: #000000; stroke-width: 0.8"/>
      </g>
     </g>
     <g id="text_5">
      <!-- 20 -->
      <g transform="translate(560.675078 206.838437) scale(0.1 -0.1)">
       <defs>
        <path id="DejaVuSans-32" d="M 1228 531 
L 3431 531 
L 3431 0 
L 469 0 
L 469 531 
Q 828 903 1448 1529 
Q 2069 2156 2228 2338 
Q 2531 2678 2651 2914 
Q 2772 3150 2772 3378 
Q 2772 3750 2511 3984 
Q 2250 4219 1831 4219 
Q 1534 4219 1204 4116 
Q 875 4013 500 3803 
L 500 4441 
Q 881 4594 1212 4672 
Q 1544 4750 1819 4750 
Q 2544 4750 2975 4387 
Q 3406 4025 3406 3419 
Q 3406 3131 3298 2873 
Q 3191 2616 2906 2266 
Q 2828 2175 2409 1742 
Q 1991 1309 1228 531 
z
" transform="scale(0.015625)"/>
       </defs>
       <use xlink:href="#DejaVuSans-32"/>
       <use xlink:href="#DejaVuSans-30" x="63.623047"/>
      </g>
     </g>
    </g>
   </g>
   <g id="matplotlib.axis_2">
    <g id="ytick_1">
     <g id="line2d_7">
      <defs>
       <path id="mfcaff4083f" d="M 0 0 
L -3.5 0 
" style="stroke: #000000; stroke-width: 0.8"/>
      </defs>
      <g>
       <use xlink:href="#mfcaff4083f" x="90" y="192.24" style="stroke: #000000; stroke-width: 0.8"/>
      </g>
     </g>
     <g id="text_6">
      <!-- 0.0 -->
      <g transform="translate(67.096875 196.039219) scale(0.1 -0.1)">
       <defs>
        <path id="DejaVuSans-2e" d="M 684 794 
L 1344 794 
L 1344 0 
L 684 0 
L 684 794 
z
" transform="scale(0.015625)"/>
       </defs>
       <use xlink:href="#DejaVuSans-30"/>
       <use xlink:href="#DejaVuSans-2e" x="63.623047"/>
       <use xlink:href="#DejaVuSans-30" x="95.410156"/>
      </g>
     </g>
    </g>
    <g id="ytick_2">
     <g id="line2d_8">
      <g>
       <use xlink:href="#mfcaff4083f" x="90" y="166.199435" style="stroke: #000000; stroke-width: 0.8"/>
      </g>
     </g>
     <g id="text_7">
      <!-- 0.2 -->
      <g transform="translate(67.096875 169.998654) scale(0.1 -0.1)">
       <use xlink:href="#DejaVuSans-30"/>
       <use xlink:href="#DejaVuSans-2e" x="63.623047"/>
       <use xlink:href="#DejaVuSans-32" x="95.410156"/>
      </g>
     </g>
    </g>
    <g id="ytick_3">
     <g id="line2d_9">
      <g>
       <use xlink:href="#mfcaff4083f" x="90" y="140.15887" style="stroke: #000000; stroke-width: 0.8"/>
      </g>
     </g>
     <g id="text_8">
      <!-- 0.4 -->
      <g transform="translate(67.096875 143.958089) scale(0.1 -0.1)">
       <defs>
        <path id="DejaVuSans-34" d="M 2419 4116 
L 825 1625 
L 2419 1625 
L 2419 4116 
z
M 2253 4666 
L 3047 4666 
L 3047 1625 
L 3713 1625 
L 3713 1100 
L 3047 1100 
L 3047 0 
L 2419 0 
L 2419 1100 
L 313 1100 
L 313 1709 
L 2253 4666 
z
" transform="scale(0.015625)"/>
       </defs>
       <use xlink:href="#DejaVuSans-30"/>
       <use xlink:href="#DejaVuSans-2e" x="63.623047"/>
       <use xlink:href="#DejaVuSans-34" x="95.410156"/>
      </g>
     </g>
    </g>
    <g id="ytick_4">
     <g id="line2d_10">
      <g>
       <use xlink:href="#mfcaff4083f" x="90" y="114.118305" style="stroke: #000000; stroke-width: 0.8"/>
      </g>
     </g>
     <g id="text_9">
      <!-- 0.6 -->
      <g transform="translate(67.096875 117.917524) scale(0.1 -0.1)">
       <defs>
        <path id="DejaVuSans-36" d="M 2113 2584 
Q 1688 2584 1439 2293 
Q 1191 2003 1191 1497 
Q 1191 994 1439 701 
Q 1688 409 2113 409 
Q 2538 409 2786 701 
Q 3034 994 3034 1497 
Q 3034 2003 2786 2293 
Q 2538 2584 2113 2584 
z
M 3366 4563 
L 3366 3988 
Q 3128 4100 2886 4159 
Q 2644 4219 2406 4219 
Q 1781 4219 1451 3797 
Q 1122 3375 1075 2522 
Q 1259 2794 1537 2939 
Q 1816 3084 2150 3084 
Q 2853 3084 3261 2657 
Q 3669 2231 3669 1497 
Q 3669 778 3244 343 
Q 2819 -91 2113 -91 
Q 1303 -91 875 529 
Q 447 1150 447 2328 
Q 447 3434 972 4092 
Q 1497 4750 2381 4750 
Q 2619 4750 2861 4703 
Q 3103 4656 3366 4563 
z
" transform="scale(0.015625)"/>
       </defs>
       <use xlink:href="#DejaVuSans-30"/>
       <use xlink:href="#DejaVuSans-2e" x="63.623047"/>
       <use xlink:href="#DejaVuSans-36" x="95.410156"/>
      </g>
     </g>
    </g>
    <g id="ytick_5">
     <g id="line2d_11">
      <g>
       <use xlink:href="#mfcaff4083f" x="90" y="88.07774" style="stroke: #000000; stroke-width: 0.8"/>
      </g>
     </g>
     <g id="text_10">
      <!-- 0.8 -->
      <g transform="translate(67.096875 91.876959) scale(0.1 -0.1)">
       <defs>
        <path id="DejaVuSans-38" d="M 2034 2216 
Q 1584 2216 1326 1975 
Q 1069 1734 1069 1313 
Q 1069 891 1326 650 
Q 1584 409 2034 409 
Q 2484 409 2743 651 
Q 3003 894 3003 1313 
Q 3003 1734 2745 1975 
Q 2488 2216 2034 2216 
z
M 1403 2484 
Q 997 2584 770 2862 
Q 544 3141 544 3541 
Q 544 4100 942 4425 
Q 1341 4750 2034 4750 
Q 2731 4750 3128 4425 
Q 3525 4100 3525 3541 
Q 3525 3141 3298 2862 
Q 3072 2584 2669 2484 
Q 3125 2378 3379 2068 
Q 3634 1759 3634 1313 
Q 3634 634 3220 271 
Q 2806 -91 2034 -91 
Q 1263 -91 848 271 
Q 434 634 434 1313 
Q 434 1759 690 2068 
Q 947 2378 1403 2484 
z
M 1172 3481 
Q 1172 3119 1398 2916 
Q 1625 2713 2034 2713 
Q 2441 2713 2670 2916 
Q 2900 3119 2900 3481 
Q 2900 3844 2670 4047 
Q 2441 4250 2034 4250 
Q 1625 4250 1398 4047 
Q 1172 3844 1172 3481 
z
" transform="scale(0.015625)"/>
       </defs>
       <use xlink:href="#DejaVuSans-30"/>
       <use xlink:href="#DejaVuSans-2e" x="63.623047"/>
       <use xlink:href="#DejaVuSans-38" x="95.410156"/>
      </g>
     </g>
    </g>
    <g id="ytick_6">
     <g id="line2d_12">
      <g>
       <use xlink:href="#mfcaff4083f" x="90" y="62.037176" style="stroke: #000000; stroke-width: 0.8"/>
      </g>
     </g>
     <g id="text_11">
      <!-- 1.0 -->
      <g transform="translate(67.096875 65.836394) scale(0.1 -0.1)">
       <use xlink:href="#DejaVuSans-31"/>
       <use xlink:href="#DejaVuSans-2e" x="63.623047"/>
       <use xlink:href="#DejaVuSans-30" x="95.410156"/>
      </g>
     </g>
    </g>
    <g id="ytick_7">
     <g id="line2d_13">
      <g>
       <use xlink:href="#mfcaff4083f" x="90" y="35.996611" style="stroke: #000000; stroke-width: 0.8"/>
      </g>
     </g>
     <g id="text_12">
      <!-- 1.2 -->
      <g transform="translate(67.096875 39.795829) scale(0.1 -0.1)">
       <use xlink:href="#DejaVuSans-31"/>
       <use xlink:href="#DejaVuSans-2e" x="63.623047"/>
       <use xlink:href="#DejaVuSans-32" x="95.410156"/>
      </g>
     </g>
    </g>
   </g>
  </g>
 </g>
 <defs>
  <clipPath id="pc46e1b1721">
   <rect x="90" y="25.92" width="558" height="166.32"/>
  </clipPath>
 </defs>
</svg>
