<?xml version="1.0" encoding="utf-8" standalone="no"?>
<!DOCTYPE svg PUBLIC "-//W3C//DTD SVG 1.1//EN"
  "http://www.w3.org/Graphics/SVG/1.1/DTD/svg11.dtd">
<svg xmlns:xlink="http://www.w3.org/1999/xlink" width="720pt" height="216pt" viewBox="0 0 720 216" xmlns="http://www.w3.org/2000/svg" version="1.1">
 <metadata>
  <rdf:RDF xmlns:dc="http://purl.org/dc/elements/1.1/" xmlns:cc="http://creativecommons.org/ns#" xmlns:rdf="http://www.w3.org/1999/02/22-rdf-syntax-ns#">
   <cc:Work>
    <dc:type rdf:resource="http://purl.org/dc/dcmitype/StillImage"/>
    <dc:date>2025-12-17T10:22:38.186778</dc:date>
    <dc:format>image/svg+xml</dc:format>
    <dc:creator>
     <cc:Agent>
      <dc:title>Matplotlib v3.8.2, https://matplotlib.org/</dc:title>
     </cc:Agent>
    </dc:creator>
   </cc:Work>
  </rdf:RDF>
 </metadata>
 <defs>
  <style type="text/css">*{stroke-linejoin: round; stroke-linecap: butt}</style>
 </defs>
 <g id="figure_1">
  <g id="patch_1">
   <path d="M 0 216 
L 720 216 
L 720 0 
L 0 0 
z
" style="fill: #ffffff"/>
  </g>
  <g id="axes_1">
   <g id="patch_2">
    <path d="M 90 192.24 
L 648 192.24 
L 648 25.92 
L 90 25.92 
z
" style="fill: #ffffff"/>
   </g>
   <g id="line2d_1">
    <path d="M 90 192.24 
L 648 192.24 
" clip-path="url(#pb40d287f4e)" style="fill: none; stroke: #000000; stroke-width: 0.5; stroke-linecap: square"/>
   </g>
   <g id="patch_3">
    <path d="M 108.966011 191.9273 
Q 107.379537 192.082298 105.664042 192.160698 
Q 103.948548 192.24 102.08014 192.24 
Q 96.508366 192.24 93.254183 191.652448 
Q 90 191.064896 90 190.06011 
Q 90 189.051719 93.254183 188.465068 
Q 96.508366 187.877516 102.08014 187.877516 
Q 103.948548 187.877516 105.664042 187.956818 
Q 107.379537 188.035218 108.966011 188.190217 
L 108.966011 189.05983 
Q 107.365201 188.854367 105.812177 188.758844 
Q 104.259152 188.663322 102.543658 188.663322 
Q 99.46628 188.663322 97.703001 189.035498 
Q 95.944499 189.406774 95.944499 190.06011 
Q 95.944499 190.710743 97.703001 191.082919 
Q 99.46628 191.454194 102.543658 191.454194 
Q 104.259152 191.454194 105.812177 191.358672 
Q 107.365201 191.262249 108.966011 191.056786 
L 108.966011 191.9273 
z
" clip-path="url(#pb40d287f4e)" style="fill: #0000ff"/>
   </g>
   <g id="patch_4">
    <path d="M 108.966011 187.245988 
Q 107.053258 187.561752 104.995985 187.720355 
Q 102.938713 187.877516 100.745422 187.877516 
Q 95.789266 187.877516 92.894633 186.937433 
Q 90 185.99735 90 184.389692 
Q 90 182.76329 92.94564 181.830416 
Q 95.89553 180.897542 101.02596 180.897542 
Q 103.002471 180.897542 104.813211 181.024425 
Q 106.628201 181.149865 108.234914 181.397863 
L 108.234914 182.789244 
Q 106.577195 182.470596 104.936477 182.313435 
Q 103.29576 182.154832 101.646542 182.154832 
Q 98.594638 182.154832 96.941169 182.734454 
Q 95.2877 183.312634 95.2877 184.389692 
Q 95.2877 185.456658 96.881661 186.039163 
Q 98.475622 186.620227 101.40851 186.620227 
Q 102.207616 186.620227 102.891957 186.587065 
Q 103.576297 186.55246 104.120369 186.480368 
L 104.120369 185.174056 
L 100.996206 185.174056 
L 100.996206 184.010487 
L 108.966011 184.010487 
L 108.966011 187.245988 
z
" clip-path="url(#pb40d287f4e)" style="fill: #ffa600"/>
   </g>
   <g id="patch_5">
    <path d="M 90 172.390699 
L 108.966011 172.390699 
L 108.966011 174.049771 
L 102.142658 174.049771 
L 102.142658 180.897542 
L 96.836585 180.897542 
L 96.836585 174.049771 
L 90 174.049771 
L 90 172.390699 
z
" clip-path="url(#pb40d287f4e)" style="fill: #ff0000"/>
   </g>
   <g id="patch_6">
    <path d="M 103.137772 167.264828 
L 95.843749 167.264828 
L 94.692062 172.390699 
L 90 172.390699 
L 96.700729 144.252679 
L 102.265282 144.252679 
L 108.966011 172.390699 
L 104.277827 172.390699 
L 103.137772 167.264828 
z
M 97.00707 162.042469 
L 101.962818 162.042469 
L 99.488822 150.849978 
L 97.00707 162.042469 
z
" clip-path="url(#pb40d287f4e)" style="fill: #008000"/>
   </g>
   <g id="patch_7">
    <path d="M 128.930233 191.976746 
Q 127.343758 192.107235 125.628264 192.173238 
Q 123.912769 192.24 122.044362 192.24 
Q 116.472588 192.24 113.218405 191.745355 
Q 109.964222 191.25071 109.964222 190.404807 
Q 109.964222 189.555869 113.218405 189.061983 
Q 116.472588 188.567338 122.044362 188.567338 
Q 123.912769 188.567338 125.628264 188.6341 
Q 127.343758 188.700103 128.930233 188.830592 
L 128.930233 189.562697 
Q 127.329423 189.389723 125.776399 189.309305 
Q 124.223374 189.228887 122.50788 189.228887 
Q 119.430502 189.228887 117.667222 189.542213 
Q 115.908721 189.85478 115.908721 190.404807 
Q 115.908721 190.952558 117.667222 191.265883 
Q 119.430502 191.57845 122.50788 191.57845 
Q 124.223374 191.57845 125.776399 191.498033 
Q 127.329423 191.416856 128.930233 191.243882 
L 128.930233 191.976746 
z
" clip-path="url(#pb40d287f4e)" style="fill: #0000ff"/>
   </g>
   <g id="patch_8">
    <path d="M 128.930233 188.062254 
Q 127.017479 188.314796 124.960207 188.441643 
Q 122.902935 188.567338 120.709644 188.567338 
Q 115.753488 188.567338 112.858855 187.815478 
Q 109.964222 187.063618 109.964222 185.777844 
Q 109.964222 184.47708 112.909862 183.730986 
Q 115.859752 182.984891 120.990181 182.984891 
Q 122.966693 182.984891 124.777433 183.08637 
Q 126.592423 183.186694 128.199136 183.385038 
L 128.199136 184.497837 
Q 126.541416 184.242989 124.900699 184.117294 
Q 123.259982 183.990447 121.610764 183.990447 
Q 118.55886 183.990447 116.905391 184.454017 
Q 115.251922 184.916434 115.251922 185.777844 
Q 115.251922 186.631183 116.845883 187.097059 
Q 118.439844 187.561783 121.372732 187.561783 
Q 122.171838 187.561783 122.856178 187.53526 
Q 123.540519 187.507584 124.084591 187.449926 
L 124.084591 186.405163 
L 120.960428 186.405163 
L 120.960428 185.474563 
L 128.930233 185.474563 
L 128.930233 188.062254 
z
" clip-path="url(#pb40d287f4e)" style="fill: #ffa600"/>
   </g>
   <g id="patch_9">
    <path d="M 109.964222 176.814819 
L 128.930233 176.814819 
L 128.930233 178.018155 
L 122.106879 178.018155 
L 122.106879 182.984891 
L 116.800807 182.984891 
L 116.800807 178.018155 
L 109.964222 178.018155 
L 109.964222 176.814819 
z
" clip-path="url(#pb40d287f4e)" style="fill: #ff0000"/>
   </g>
   <g id="patch_10">
    <path d="M 123.101994 173.737213 
L 115.807971 173.737213 
L 114.656283 176.814819 
L 109.964222 176.814819 
L 116.664951 159.920573 
L 122.229503 159.920573 
L 128.930233 176.814819 
L 124.242049 176.814819 
L 123.101994 173.737213 
z
M 116.971292 170.601676 
L 121.92704 170.601676 
L 119.453044 163.881633 
L 116.971292 170.601676 
z
" clip-path="url(#pb40d287f4e)" style="fill: #008000"/>
   </g>
   <g id="patch_11">
    <path d="M 143.066216 191.894563 
L 135.772193 191.894563 
L 134.620505 192.24 
L 129.928444 192.24 
L 136.629173 190.343755 
L 142.193725 190.343755 
L 148.894454 192.24 
L 144.206271 192.24 
L 143.066216 191.894563 
z
M 136.935514 191.542624 
L 141.891262 191.542624 
L 139.417266 190.788352 
L 136.935514 191.542624 
z
" clip-path="url(#pb40d287f4e)" style="fill: #008000"/>
   </g>
   <g id="patch_12">
    <path d="M 129.928444 188.403411 
L 148.894454 188.403411 
L 148.894454 188.781832 
L 142.071101 188.781832 
L 142.071101 190.343755 
L 136.765029 190.343755 
L 136.765029 188.781832 
L 129.928444 188.781832 
L 129.928444 188.403411 
z
" clip-path="url(#pb40d287f4e)" style="fill: #ff0000"/>
   </g>
   <g id="patch_13">
    <path d="M 148.894454 188.223864 
Q 146.981701 188.313638 144.924429 188.358729 
Q 142.867156 188.403411 140.673866 188.403411 
Q 135.71771 188.403411 132.823077 188.13614 
Q 129.928444 187.86887 129.928444 187.411804 
Q 129.928444 186.94941 132.874084 186.684189 
Q 135.823974 186.418968 140.954403 186.418968 
Q 142.930915 186.418968 144.741655 186.455042 
Q 146.556645 186.490705 148.163358 186.561212 
L 148.163358 186.956789 
Q 146.505638 186.866195 144.864921 186.821514 
Q 143.224204 186.776422 141.574985 186.776422 
Q 138.523081 186.776422 136.869613 186.941212 
Q 135.216144 187.105591 135.216144 187.411804 
Q 135.216144 187.715148 136.810105 187.880758 
Q 138.404066 188.045957 141.336954 188.045957 
Q 142.13606 188.045957 142.8204 188.036529 
Q 143.504741 188.026691 144.048813 188.006194 
L 144.048813 187.634803 
L 140.924649 187.634803 
L 140.924649 187.303994 
L 148.894454 187.303994 
L 148.894454 188.223864 
z
" clip-path="url(#pb40d287f4e)" style="fill: #ffa600"/>
   </g>
   <g id="patch_14">
    <path d="M 148.894454 186.140803 
Q 147.30798 186.278683 145.592486 186.348425 
Q 143.876991 186.418968 142.008584 186.418968 
Q 136.43681 186.418968 133.182627 185.896306 
Q 129.928444 185.373644 129.928444 184.479827 
Q 129.928444 183.582804 133.182627 183.060943 
Q 136.43681 182.53828 142.008584 182.53828 
Q 143.876991 182.53828 145.592486 182.608824 
Q 147.30798 182.678566 148.894454 182.816446 
L 148.894454 183.590018 
Q 147.293645 183.407247 145.74062 183.322274 
Q 144.187596 183.237301 142.472102 183.237301 
Q 139.394724 183.237301 137.631444 183.568374 
Q 135.872943 183.898646 135.872943 184.479827 
Q 135.872943 185.058603 137.631444 185.389676 
Q 139.394724 185.719947 142.472102 185.719947 
Q 144.187596 185.719947 145.74062 185.634975 
Q 147.293645 185.5492 148.894454 185.366429 
L 148.894454 186.140803 
z
" clip-path="url(#pb40d287f4e)" style="fill: #0000ff"/>
   </g>
   <g id="patch_15">
    <path d="M 168.858676 191.995919 
Q 167.272202 192.116905 165.556708 192.178101 
Q 163.841213 192.24 161.972805 192.24 
Q 156.401032 192.24 153.146849 191.781382 
Q 149.892665 191.322763 149.892665 190.538469 
Q 149.892665 189.751362 153.146849 189.293447 
Q 156.401032 188.834828 161.972805 188.834828 
Q 163.841213 188.834828 165.556708 188.896728 
Q 167.272202 188.957924 168.858676 189.078909 
L 168.858676 189.757692 
Q 167.257867 189.597317 165.704842 189.522756 
Q 164.151818 189.448195 162.436323 189.448195 
Q 159.358946 189.448195 157.595666 189.7387 
Q 155.837165 190.028502 155.837165 190.538469 
Q 155.837165 191.046326 157.595666 191.336831 
Q 159.358946 191.626633 162.436323 191.626633 
Q 164.151818 191.626633 165.704842 191.552072 
Q 167.257867 191.476808 168.858676 191.316432 
L 168.858676 191.995919 
z
" clip-path="url(#pb40d287f4e)" style="fill: #0000ff"/>
   </g>
   <g id="patch_16">
    <path d="M 149.892665 184.3933 
L 168.858676 184.3933 
L 168.858676 185.259521 
L 162.035323 185.259521 
L 162.035323 188.834828 
L 156.729251 188.834828 
L 156.729251 185.259521 
L 149.892665 185.259521 
L 149.892665 184.3933 
z
" clip-path="url(#pb40d287f4e)" style="fill: #ff0000"/>
   </g>
   <g id="patch_17">
    <path d="M 168.858676 183.629771 
Q 166.945923 184.011535 164.888651 184.203289 
Q 162.831378 184.3933 160.638088 184.3933 
Q 155.681932 184.3933 152.787299 183.256723 
Q 149.892665 182.120147 149.892665 180.176462 
Q 149.892665 178.210116 152.838305 177.082255 
Q 155.788196 175.954395 160.918625 175.954395 
Q 162.895137 175.954395 164.705876 176.107798 
Q 166.520867 176.259458 168.127579 176.559291 
L 168.127579 178.241494 
Q 166.46986 177.856243 164.829143 177.666233 
Q 163.188426 177.474479 161.539207 177.474479 
Q 158.487303 177.474479 156.833834 178.175251 
Q 155.180365 178.874281 155.180365 180.176462 
Q 155.180365 181.466441 156.774326 182.1707 
Q 158.368287 182.873216 161.301176 182.873216 
Q 162.100282 182.873216 162.784622 182.833122 
Q 163.468963 182.791285 164.013035 182.704124 
L 164.013035 181.124771 
L 160.888871 181.124771 
L 160.888871 179.717997 
L 168.858676 179.717997 
L 168.858676 183.629771 
z
" clip-path="url(#pb40d287f4e)" style="fill: #ffa600"/>
   </g>
   <g id="patch_18">
    <path d="M 163.030438 172.987665 
L 155.736415 172.987665 
L 154.584727 175.954395 
L 149.892665 175.954395 
L 156.593395 159.668791 
L 162.157947 159.668791 
L 168.858676 175.954395 
L 164.170492 175.954395 
L 163.030438 172.987665 
z
M 156.899736 169.96509 
L 161.855484 169.96509 
L 159.381487 163.487147 
L 156.899736 169.96509 
z
" clip-path="url(#pb40d287f4e)" style="fill: #008000"/>
   </g>
   <g id="patch_19">
    <path d="M 188.822898 191.889662 
Q 187.236424 192.063317 185.520929 192.151154 
Q 183.805435 192.24 181.937027 192.24 
Q 176.365254 192.24 173.111071 191.581729 
Q 169.856887 190.923457 169.856887 189.797733 
Q 169.856887 188.66797 173.111071 188.010708 
Q 176.365254 187.352437 181.937027 187.352437 
Q 183.805435 187.352437 185.520929 187.441283 
Q 187.236424 187.52912 188.822898 187.702774 
L 188.822898 188.677056 
Q 187.222088 188.446863 185.669064 188.339844 
Q 184.11604 188.232824 182.400545 188.232824 
Q 179.323168 188.232824 177.559888 188.649797 
Q 175.801387 189.065759 175.801387 189.797733 
Q 175.801387 190.526677 177.559888 190.94365 
Q 179.323168 191.359613 182.400545 191.359613 
Q 184.11604 191.359613 185.669064 191.252593 
Q 187.222088 191.144564 188.822898 190.914371 
L 188.822898 191.889662 
z
" clip-path="url(#pb40d287f4e)" style="fill: #0000ff"/>
   </g>
   <g id="patch_20">
    <path d="M 169.856887 179.322869 
L 188.822898 179.322869 
L 188.822898 180.888858 
L 181.999545 180.888858 
L 181.999545 187.352437 
L 176.693473 187.352437 
L 176.693473 180.888858 
L 169.856887 180.888858 
L 169.856887 179.322869 
z
" clip-path="url(#pb40d287f4e)" style="fill: #ff0000"/>
   </g>
   <g id="patch_21">
    <path d="M 182.99466 177.224158 
L 175.700637 177.224158 
L 174.548949 179.322869 
L 169.856887 179.322869 
L 176.557617 167.802184 
L 182.122169 167.802184 
L 188.822898 179.322869 
L 184.134714 179.322869 
L 182.99466 177.224158 
z
M 176.863958 175.085943 
L 181.819705 175.085943 
L 179.345709 170.503347 
L 176.863958 175.085943 
z
" clip-path="url(#pb40d287f4e)" style="fill: #008000"/>
   </g>
   <g id="patch_22">
    <path d="M 188.822898 163.064188 
Q 186.910145 165.433186 184.852872 166.623093 
Q 182.7956 167.802184 180.60231 167.802184 
Q 175.646154 167.802184 172.75152 160.749277 
Q 169.856887 153.696371 169.856887 141.635035 
Q 169.856887 129.433074 172.802527 122.434254 
Q 175.752418 115.435434 180.882847 115.435434 
Q 182.859359 115.435434 184.670098 116.38736 
Q 186.485089 117.328469 188.091801 119.189052 
L 188.091801 129.627786 
Q 186.434082 127.237154 184.793365 126.058064 
Q 183.152647 124.868156 181.503429 124.868156 
Q 178.451525 124.868156 176.798056 129.216727 
Q 175.144587 133.554481 175.144587 141.635035 
Q 175.144587 149.639868 176.738548 154.010074 
Q 178.332509 158.369462 181.265398 158.369462 
Q 182.064503 158.369462 182.748844 158.120663 
Q 183.433185 157.861047 183.977257 157.32018 
L 183.977257 147.519669 
L 180.853093 147.519669 
L 180.853093 138.790074 
L 188.822898 138.790074 
L 188.822898 163.064188 
z
" clip-path="url(#pb40d287f4e)" style="fill: #ffa600"/>
   </g>
   <g id="patch_23">
    <path d="M 208.78712 192.14379 
Q 207.200646 192.191479 205.485151 192.215601 
Q 203.769657 192.24 201.901249 192.24 
Q 196.329476 192.24 193.075292 192.059225 
Q 189.821109 191.878449 189.821109 191.569301 
Q 189.821109 191.259044 193.075292 191.078546 
Q 196.329476 190.897771 201.901249 190.897771 
Q 203.769657 190.897771 205.485151 190.92217 
Q 207.200646 190.946292 208.78712 190.993981 
L 208.78712 191.26154 
Q 207.18631 191.198324 205.633286 191.168934 
Q 204.080262 191.139544 202.364767 191.139544 
Q 199.28739 191.139544 197.52411 191.254053 
Q 195.765608 191.368286 195.765608 191.569301 
Q 195.765608 191.769485 197.52411 191.883995 
Q 199.28739 191.998227 202.364767 191.998227 
Q 204.080262 191.998227 205.633286 191.968837 
Q 207.18631 191.93917 208.78712 191.875954 
L 208.78712 192.14379 
z
" clip-path="url(#pb40d287f4e)" style="fill: #0000ff"/>
   </g>
   <g id="patch_24">
    <path d="M 189.821109 185.081444 
L 208.78712 185.081444 
L 208.78712 186.215789 
L 201.963767 186.215789 
L 201.963767 190.897771 
L 196.657694 190.897771 
L 196.657694 186.215789 
L 189.821109 186.215789 
L 189.821109 185.081444 
z
" clip-path="url(#pb40d287f4e)" style="fill: #ff0000"/>
   </g>
   <g id="patch_25">
    <path d="M 202.958881 180.598716 
L 195.664858 180.598716 
L 194.513171 185.081444 
L 189.821109 185.081444 
L 196.521838 160.473906 
L 202.086391 160.473906 
L 208.78712 185.081444 
L 204.098936 185.081444 
L 202.958881 180.598716 
z
M 196.82818 176.031608 
L 201.783927 176.031608 
L 199.309931 166.24344 
L 196.82818 176.031608 
z
" clip-path="url(#pb40d287f4e)" style="fill: #008000"/>
   </g>
   <g id="patch_26">
    <path d="M 208.78712 154.442331 
Q 206.874367 157.458118 204.817094 158.972898 
Q 202.759822 160.473906 200.566532 160.473906 
Q 195.610376 160.473906 192.715742 151.495397 
Q 189.821109 142.516887 189.821109 127.162534 
Q 189.821109 111.629162 192.766749 102.719506 
Q 195.71664 93.80985 200.847069 93.80985 
Q 202.82358 93.80985 204.63432 95.021673 
Q 206.44931 96.219726 208.056023 98.58829 
L 208.056023 111.877035 
Q 206.398304 108.833705 204.757586 107.332697 
Q 203.116869 105.817918 201.467651 105.817918 
Q 198.415747 105.817918 196.762278 111.353747 
Q 195.108809 116.875806 195.108809 127.162534 
Q 195.108809 137.352867 196.70277 142.916238 
Q 198.296731 148.465838 201.229619 148.465838 
Q 202.028725 148.465838 202.713066 148.149112 
Q 203.397406 147.818614 203.941478 147.130078 
L 203.941478 134.653806 
L 200.817315 134.653806 
L 200.817315 123.540835 
L 208.78712 123.540835 
L 208.78712 154.442331 
z
" clip-path="url(#pb40d287f4e)" style="fill: #ffa600"/>
   </g>
   <g id="patch_27">
    <path d="M 228.751342 192.208442 
Q 227.164868 192.224085 225.449373 192.231997 
Q 223.733879 192.24 221.865471 192.24 
Q 216.293697 192.24 213.039514 192.180703 
Q 209.785331 192.121407 209.785331 192.020003 
Q 209.785331 191.918235 213.039514 191.859029 
Q 216.293697 191.799733 221.865471 191.799733 
Q 223.733879 191.799733 225.449373 191.807736 
Q 227.164868 191.815648 228.751342 191.831291 
L 228.751342 191.919053 
Q 227.150532 191.898318 225.597508 191.888677 
Q 224.044483 191.879037 222.328989 191.879037 
Q 219.251611 191.879037 217.488332 191.916598 
Q 215.72983 191.954067 215.72983 192.020003 
Q 215.72983 192.085665 217.488332 192.123226 
Q 219.251611 192.160695 222.328989 192.160695 
Q 224.044483 192.160695 225.597508 192.151055 
Q 227.150532 192.141324 228.751342 192.120588 
L 228.751342 192.208442 
z
" clip-path="url(#pb40d287f4e)" style="fill: #0000ff"/>
   </g>
   <g id="patch_28">
    <path d="M 222.923103 189.393642 
L 215.62908 189.393642 
L 214.477392 191.799733 
L 209.785331 191.799733 
L 216.48606 178.591709 
L 222.050612 178.591709 
L 228.751342 191.799733 
L 224.063158 191.799733 
L 222.923103 189.393642 
z
M 216.792401 186.94226 
L 221.748149 186.94226 
L 219.274153 181.688489 
L 216.792401 186.94226 
z
" clip-path="url(#pb40d287f4e)" style="fill: #008000"/>
   </g>
   <g id="patch_29">
    <path d="M 228.751342 177.157679 
Q 226.838588 177.874694 224.781316 178.234838 
Q 222.724044 178.591709 220.530753 178.591709 
Q 215.574597 178.591709 212.679964 176.457035 
Q 209.785331 174.32236 209.785331 170.671806 
Q 209.785331 166.978688 212.730971 164.860384 
Q 215.680861 162.74208 220.811291 162.74208 
Q 222.787802 162.74208 224.598542 163.030196 
Q 226.413532 163.315037 228.020245 163.878172 
L 228.020245 167.037621 
Q 226.362525 166.314058 224.721808 165.957188 
Q 223.081091 165.597043 221.431873 165.597043 
Q 218.379969 165.597043 216.7265 166.913207 
Q 215.073031 168.226098 215.073031 170.671806 
Q 215.073031 173.094595 216.666992 174.417308 
Q 218.260953 175.736746 221.193841 175.736746 
Q 221.992947 175.736746 222.677288 175.661443 
Q 223.361628 175.582866 223.9057 175.419164 
L 223.9057 172.452883 
L 220.781537 172.452883 
L 220.781537 169.810733 
L 228.751342 169.810733 
L 228.751342 177.157679 
z
" clip-path="url(#pb40d287f4e)" style="fill: #ffa600"/>
   </g>
   <g id="patch_30">
    <path d="M 209.785331 95.381159 
L 228.751342 95.381159 
L 228.751342 108.518415 
L 221.927989 108.518415 
L 221.927989 162.74208 
L 216.621916 162.74208 
L 216.621916 108.518415 
L 209.785331 108.518415 
L 209.785331 95.381159 
z
" clip-path="url(#pb40d287f4e)" style="fill: #ff0000"/>
   </g>
   <g id="patch_31">
    <path d="M 248.715564 192.040966 
Q 247.129089 192.139622 245.413595 192.189524 
Q 243.6981 192.24 241.829693 192.24 
Q 236.257919 192.24 233.003736 191.866022 
Q 229.749553 191.492043 229.749553 190.852495 
Q 229.749553 190.210652 233.003736 189.837247 
Q 236.257919 189.463269 241.829693 189.463269 
Q 243.6981 189.463269 245.413595 189.513744 
Q 247.129089 189.563646 248.715564 189.662303 
L 248.715564 190.215814 
Q 247.114754 190.085036 245.56173 190.024236 
Q 244.008705 189.963436 242.293211 189.963436 
Q 239.215833 189.963436 237.452553 190.200327 
Q 235.694052 190.436645 235.694052 190.852495 
Q 235.694052 191.266624 237.452553 191.503515 
Q 239.215833 191.739833 242.293211 191.739833 
Q 244.008705 191.739833 245.56173 191.679033 
Q 247.114754 191.617659 248.715564 191.486881 
L 248.715564 192.040966 
z
" clip-path="url(#pb40d287f4e)" style="fill: #0000ff"/>
   </g>
   <g id="patch_32">
    <path d="M 248.715564 188.960807 
Q 246.80281 189.212038 244.745538 189.338227 
Q 242.688266 189.463269 240.494975 189.463269 
Q 235.538819 189.463269 232.644186 188.715312 
Q 229.749553 187.967356 229.749553 186.688258 
Q 229.749553 185.394248 232.695193 184.652027 
Q 235.645083 183.909806 240.775512 183.909806 
Q 242.752024 183.909806 244.562764 184.010757 
Q 246.377754 184.110561 247.984467 184.307875 
L 247.984467 185.414897 
Q 246.326747 185.161371 244.68603 185.03633 
Q 243.045313 184.910141 241.396095 184.910141 
Q 238.344191 184.910141 236.690722 185.371304 
Q 235.037253 185.83132 235.037253 186.688258 
Q 235.037253 187.537166 236.631214 188.000624 
Q 238.225175 188.462934 241.158063 188.462934 
Q 241.957169 188.462934 242.641509 188.436549 
Q 243.32585 188.409017 243.869922 188.351658 
L 243.869922 187.31232 
L 240.745758 187.31232 
L 240.745758 186.386552 
L 248.715564 186.386552 
L 248.715564 188.960807 
z
" clip-path="url(#pb40d287f4e)" style="fill: #ffa600"/>
   </g>
   <g id="patch_33">
    <path d="M 242.887325 180.571302 
L 235.593302 180.571302 
L 234.441614 183.909806 
L 229.749553 183.909806 
L 236.450282 165.58338 
L 242.014834 165.58338 
L 248.715564 183.909806 
L 244.02738 183.909806 
L 242.887325 180.571302 
z
M 236.756623 177.169955 
L 241.712371 177.169955 
L 239.238375 169.880232 
L 236.756623 177.169955 
z
" clip-path="url(#pb40d287f4e)" style="fill: #008000"/>
   </g>
   <g id="patch_34">
    <path d="M 229.749553 70.063824 
L 248.715564 70.063824 
L 248.715564 88.692798 
L 241.89221 88.692798 
L 241.89221 165.58338 
L 236.586138 165.58338 
L 236.586138 88.692798 
L 229.749553 88.692798 
L 229.749553 70.063824 
z
" clip-path="url(#pb40d287f4e)" style="fill: #ff0000"/>
   </g>
   <g id="patch_35">
    <path d="M 268.679785 191.806092 
Q 266.767032 192.023046 264.70976 192.132018 
Q 262.652487 192.24 260.459197 192.24 
Q 255.503041 192.24 252.608408 191.594092 
Q 249.713775 190.948184 249.713775 189.843601 
Q 249.713775 188.72614 252.659415 188.085185 
Q 255.609305 187.44423 260.739734 187.44423 
Q 262.716246 187.44423 264.526986 187.531408 
Q 266.341976 187.617595 267.948689 187.787988 
L 267.948689 188.743972 
Q 266.290969 188.525037 264.650252 188.417055 
Q 263.009535 188.308083 261.360316 188.308083 
Q 258.308412 188.308083 256.654943 188.706327 
Q 255.001475 189.103581 255.001475 189.843601 
Q 255.001475 190.576687 256.595436 190.976913 
Q 258.189397 191.376147 261.122285 191.376147 
Q 261.921391 191.376147 262.605731 191.353362 
Q 263.290072 191.329586 263.834144 191.280054 
L 263.834144 190.382518 
L 260.70998 190.382518 
L 260.70998 189.583058 
L 268.679785 189.583058 
L 268.679785 191.806092 
z
" clip-path="url(#pb40d287f4e)" style="fill: #ffa600"/>
   </g>
   <g id="patch_36">
    <path d="M 262.851547 186.196173 
L 255.557524 186.196173 
L 254.405836 187.44423 
L 249.713775 187.44423 
L 256.414504 180.593131 
L 261.979056 180.593131 
L 268.679785 187.44423 
L 263.991602 187.44423 
L 262.851547 186.196173 
z
M 256.720845 184.924623 
L 261.676593 184.924623 
L 259.202597 182.199454 
L 256.720845 184.924623 
z
" clip-path="url(#pb40d287f4e)" style="fill: #008000"/>
   </g>
   <g id="patch_37">
    <path d="M 268.679785 179.954723 
Q 267.093311 180.271167 265.377817 180.431229 
Q 263.662322 180.593131 261.793914 180.593131 
Q 256.222141 180.593131 252.967958 179.393587 
Q 249.713775 178.194043 249.713775 176.142676 
Q 249.713775 174.08395 252.967958 172.886245 
Q 256.222141 171.686702 261.793914 171.686702 
Q 263.662322 171.686702 265.377817 171.848603 
Q 267.093311 172.008665 268.679785 172.325109 
L 268.679785 174.100508 
Q 267.078976 173.681035 265.525951 173.486017 
Q 263.972927 173.291 262.257432 173.291 
Q 259.180055 173.291 257.416775 174.050833 
Q 255.658274 174.808827 255.658274 176.142676 
Q 255.658274 177.471005 257.416775 178.230839 
Q 259.180055 178.988833 262.257432 178.988833 
Q 263.972927 178.988833 265.525951 178.793815 
Q 267.078976 178.596957 268.679785 178.177485 
L 268.679785 179.954723 
z
" clip-path="url(#pb40d287f4e)" style="fill: #0000ff"/>
   </g>
   <g id="patch_38">
    <path d="M 249.713775 41.515812 
L 268.679785 41.515812 
L 268.679785 66.902762 
L 261.856432 66.902762 
L 261.856432 171.686702 
L 256.55036 171.686702 
L 256.55036 66.902762 
L 249.713775 66.902762 
L 249.713775 41.515812 
z
" clip-path="url(#pb40d287f4e)" style="fill: #ff0000"/>
   </g>
   <g id="patch_39">
    <path d="M 282.815769 192.10228 
L 275.521746 192.10228 
L 274.370058 192.24 
L 269.677996 192.24 
L 276.378726 191.484 
L 281.943278 191.484 
L 288.644007 192.24 
L 283.955823 192.24 
L 282.815769 192.10228 
z
M 276.685067 191.961968 
L 281.640814 191.961968 
L 279.166818 191.661253 
L 276.685067 191.961968 
z
" clip-path="url(#pb40d287f4e)" style="fill: #008000"/>
   </g>
   <g id="patch_40">
    <path d="M 288.644007 190.868393 
Q 286.731254 191.176197 284.673982 191.330801 
Q 282.616709 191.484 280.423419 191.484 
Q 275.467263 191.484 272.57263 190.567617 
Q 269.677996 189.651235 269.677996 188.084108 
Q 269.677996 186.49871 272.623636 185.589355 
Q 275.573527 184.68 280.703956 184.68 
Q 282.680468 184.68 284.491207 184.803684 
Q 286.306198 184.925962 287.91291 185.167707 
L 287.91291 186.524009 
Q 286.255191 186.213395 284.614474 186.060196 
Q 282.973757 185.905591 281.324538 185.905591 
Q 278.272634 185.905591 276.619165 186.4706 
Q 274.965696 187.034204 274.965696 188.084108 
Q 274.965696 189.124174 276.559657 189.691994 
Q 278.153618 190.258409 281.086507 190.258409 
Q 281.885612 190.258409 282.569953 190.226082 
Q 283.254294 190.19235 283.798366 190.122076 
L 283.798366 188.848697 
L 280.674202 188.848697 
L 280.674202 187.714463 
L 288.644007 187.714463 
L 288.644007 190.868393 
z
" clip-path="url(#pb40d287f4e)" style="fill: #ffa600"/>
   </g>
   <g id="patch_41">
    <path d="M 288.644007 183.812966 
Q 287.057533 184.242735 285.342039 184.460118 
Q 283.626544 184.68 281.758136 184.68 
Q 276.186363 184.68 272.93218 183.050875 
Q 269.677996 181.421751 269.677996 178.635748 
Q 269.677996 175.83975 272.93218 174.213125 
Q 276.186363 172.584 281.758136 172.584 
Q 283.626544 172.584 285.342039 172.803882 
Q 287.057533 173.021265 288.644007 173.451034 
L 288.644007 175.862238 
Q 287.043197 175.292545 285.490173 175.027687 
Q 283.937149 174.762829 282.221654 174.762829 
Q 279.144277 174.762829 277.380997 175.794775 
Q 275.622496 176.824221 275.622496 178.635748 
Q 275.622496 180.439779 277.380997 181.471724 
Q 279.144277 182.501171 282.221654 182.501171 
Q 283.937149 182.501171 285.490173 182.236313 
Q 287.043197 181.968957 288.644007 181.399263 
L 288.644007 183.812966 
z
" clip-path="url(#pb40d287f4e)" style="fill: #0000ff"/>
   </g>
   <g id="patch_42">
    <path d="M 269.677996 25.92 
L 288.644007 25.92 
L 288.644007 54.523566 
L 281.820654 54.523566 
L 281.820654 172.584 
L 276.514582 172.584 
L 276.514582 54.523566 
L 269.677996 54.523566 
L 269.677996 25.92 
z
" clip-path="url(#pb40d287f4e)" style="fill: #ff0000"/>
   </g>
   <g id="patch_43">
    <path d="M 289.642218 187.654725 
L 308.608229 187.654725 
L 308.608229 188.548982 
L 301.784876 188.548982 
L 301.784876 192.24 
L 296.478804 192.24 
L 296.478804 188.548982 
L 289.642218 188.548982 
L 289.642218 187.654725 
z
" clip-path="url(#pb40d287f4e)" style="fill: #ff0000"/>
   </g>
   <g id="patch_44">
    <path d="M 308.608229 187.194588 
Q 307.021755 187.422667 305.30626 187.538033 
Q 303.590766 187.654725 301.722358 187.654725 
Q 296.150585 187.654725 292.896401 186.790144 
Q 289.642218 185.925563 289.642218 184.447022 
Q 289.642218 182.963178 292.896401 182.099922 
Q 296.150585 181.235341 301.722358 181.235341 
Q 303.590766 181.235341 305.30626 181.352033 
Q 307.021755 181.467399 308.608229 181.695479 
L 308.608229 182.975112 
Q 307.007419 182.672774 305.454395 182.532213 
Q 303.901371 182.391652 302.185876 182.391652 
Q 299.108499 182.391652 297.345219 182.939309 
Q 295.586717 183.485639 295.586717 184.447022 
Q 295.586717 185.404427 297.345219 185.952083 
Q 299.108499 186.498414 302.185876 186.498414 
Q 303.901371 186.498414 305.454395 186.357853 
Q 307.007419 186.215966 308.608229 185.913628 
L 308.608229 187.194588 
z
" clip-path="url(#pb40d287f4e)" style="fill: #0000ff"/>
   </g>
   <g id="patch_45">
    <path d="M 308.608229 179.866294 
Q 306.695476 180.550817 304.638203 180.894642 
Q 302.580931 181.235341 300.387641 181.235341 
Q 295.431485 181.235341 292.536851 179.197399 
Q 289.642218 177.159457 289.642218 173.674326 
Q 289.642218 170.148562 292.587858 168.126248 
Q 295.537749 166.103935 300.668178 166.103935 
Q 302.64469 166.103935 304.455429 166.378994 
Q 306.270419 166.650928 307.877132 167.188545 
L 307.877132 170.204824 
Q 306.219413 169.514049 304.578696 169.17335 
Q 302.937978 168.829526 301.28876 168.829526 
Q 298.236856 168.829526 296.583387 170.086048 
Q 294.929918 171.339445 294.929918 173.674326 
Q 294.929918 175.987328 296.523879 177.250102 
Q 298.11784 178.50975 301.050729 178.50975 
Q 301.849834 178.50975 302.534175 178.437859 
Q 303.218515 178.362843 303.762588 178.206559 
L 303.762588 175.374695 
L 300.638424 175.374695 
L 300.638424 172.852273 
L 308.608229 172.852273 
L 308.608229 179.866294 
z
" clip-path="url(#pb40d287f4e)" style="fill: #ffa600"/>
   </g>
   <g id="patch_46">
    <path d="M 302.779991 152.488637 
L 295.485968 152.488637 
L 294.33428 166.103935 
L 289.642218 166.103935 
L 296.342947 91.363958 
L 301.9075 91.363958 
L 308.608229 166.103935 
L 303.920045 166.103935 
L 302.779991 152.488637 
z
M 296.649289 138.617051 
L 301.605036 138.617051 
L 299.13104 108.887647 
L 296.649289 138.617051 
z
" clip-path="url(#pb40d287f4e)" style="fill: #008000"/>
   </g>
   <g id="patch_47">
    <path d="M 328.572451 192.137718 
Q 326.985977 192.188417 325.270482 192.214061 
Q 323.554988 192.24 321.68658 192.24 
Q 316.114807 192.24 312.860623 192.047816 
Q 309.60644 191.855633 309.60644 191.526975 
Q 309.60644 191.197139 312.860623 191.00525 
Q 316.114807 190.813066 321.68658 190.813066 
Q 323.554988 190.813066 325.270482 190.839005 
Q 326.985977 190.864649 328.572451 190.915348 
L 328.572451 191.199792 
Q 326.971641 191.132586 325.418617 191.101342 
Q 323.865593 191.070097 322.150098 191.070097 
Q 319.072721 191.070097 317.309441 191.191833 
Q 315.550939 191.313274 315.550939 191.526975 
Q 315.550939 191.739792 317.309441 191.861528 
Q 319.072721 191.982969 322.150098 191.982969 
Q 323.865593 191.982969 325.418617 191.951725 
Q 326.971641 191.920185 328.572451 191.85298 
L 328.572451 192.137718 
z
" clip-path="url(#pb40d287f4e)" style="fill: #0000ff"/>
   </g>
   <g id="patch_48">
    <path d="M 309.60644 184.035132 
L 328.572451 184.035132 
L 328.572451 185.357018 
L 321.749098 185.357018 
L 321.749098 190.813066 
L 316.443025 190.813066 
L 316.443025 185.357018 
L 309.60644 185.357018 
L 309.60644 184.035132 
z
" clip-path="url(#pb40d287f4e)" style="fill: #ff0000"/>
   </g>
   <g id="patch_49">
    <path d="M 328.572451 183.292779 
Q 326.659698 183.663955 324.602425 183.850391 
Q 322.545153 184.035132 320.351863 184.035132 
Q 315.395706 184.035132 312.501073 182.930076 
Q 309.60644 181.825021 309.60644 179.93524 
Q 309.60644 178.023426 312.55208 176.926845 
Q 315.501971 175.830264 320.6324 175.830264 
Q 322.608911 175.830264 324.419651 175.979413 
Q 326.234641 176.126866 327.841354 176.418384 
L 327.841354 178.053934 
Q 326.183635 177.679368 324.542917 177.494627 
Q 322.9022 177.308191 321.252982 177.308191 
Q 318.201078 177.308191 316.547609 177.989529 
Q 314.89414 178.669172 314.89414 179.93524 
Q 314.89414 181.189445 316.488101 181.874172 
Q 318.082062 182.557205 321.01495 182.557205 
Q 321.814056 182.557205 322.498397 182.518223 
Q 323.182737 182.477546 323.726809 182.392803 
L 323.726809 180.85725 
L 320.602646 180.85725 
L 320.602646 179.489489 
L 328.572451 179.489489 
L 328.572451 183.292779 
z
" clip-path="url(#pb40d287f4e)" style="fill: #ffa600"/>
   </g>
   <g id="patch_50">
    <path d="M 322.744212 174.053988 
L 315.450189 174.053988 
L 314.298502 175.830264 
L 309.60644 175.830264 
L 316.307169 166.079551 
L 321.871722 166.079551 
L 328.572451 175.830264 
L 323.884267 175.830264 
L 322.744212 174.053988 
z
M 316.61351 172.244275 
L 321.569258 172.244275 
L 319.095262 168.365724 
L 316.61351 172.244275 
z
" clip-path="url(#pb40d287f4e)" style="fill: #008000"/>
   </g>
   <g id="patch_51">
    <path d="M 348.536673 191.802263 
Q 346.950199 192.019239 345.234704 192.128989 
Q 343.519209 192.24 341.650802 192.24 
Q 336.079028 192.24 332.824845 191.417508 
Q 329.570662 190.595017 329.570662 189.188455 
Q 329.570662 187.776848 332.824845 186.955618 
Q 336.079028 186.133126 341.650802 186.133126 
Q 343.519209 186.133126 345.234704 186.244137 
Q 346.950199 186.353887 348.536673 186.570863 
L 348.536673 187.788201 
Q 346.935863 187.500581 345.382839 187.366863 
Q 343.829814 187.233145 342.11432 187.233145 
Q 339.036942 187.233145 337.273662 187.754141 
Q 335.515161 188.273875 335.515161 189.188455 
Q 335.515161 190.099251 337.273662 190.620247 
Q 339.036942 191.139981 342.11432 191.139981 
Q 343.829814 191.139981 345.382839 191.006263 
Q 346.935863 190.871283 348.536673 190.583663 
L 348.536673 191.802263 
z
" clip-path="url(#pb40d287f4e)" style="fill: #0000ff"/>
   </g>
   <g id="patch_52">
    <path d="M 342.708434 184.603463 
L 335.414411 184.603463 
L 334.262723 186.133126 
L 329.570662 186.133126 
L 336.271391 177.736174 
L 341.835943 177.736174 
L 348.536673 186.133126 
L 343.848489 186.133126 
L 342.708434 184.603463 
z
M 336.577732 183.045006 
L 341.53348 183.045006 
L 339.059484 179.704941 
L 336.577732 183.045006 
z
" clip-path="url(#pb40d287f4e)" style="fill: #008000"/>
   </g>
   <g id="patch_53">
    <path d="M 348.536673 176.838309 
Q 346.623919 177.287241 344.566647 177.512733 
Q 342.509375 177.736174 340.316084 177.736174 
Q 335.359928 177.736174 332.465295 176.399625 
Q 329.570662 175.063076 329.570662 172.777414 
Q 329.570662 170.465102 332.516302 169.138803 
Q 335.466192 167.812504 340.596622 167.812504 
Q 342.573133 167.812504 344.383873 167.992897 
Q 346.198863 168.17124 347.805576 168.523827 
L 347.805576 170.502001 
Q 346.147856 170.048968 344.507139 169.825527 
Q 342.866422 169.600036 341.217204 169.600036 
Q 338.1653 169.600036 336.511831 170.424104 
Q 334.858362 171.246123 334.858362 172.777414 
Q 334.858362 174.294356 336.452323 175.122524 
Q 338.046284 175.948643 340.979172 175.948643 
Q 341.778278 175.948643 342.462619 175.901494 
Q 343.146959 175.852296 343.691031 175.7498 
L 343.691031 173.892571 
L 340.566868 173.892571 
L 340.566868 172.238285 
L 348.536673 172.238285 
L 348.536673 176.838309 
z
" clip-path="url(#pb40d287f4e)" style="fill: #ffa600"/>
   </g>
   <g id="patch_54">
    <path d="M 329.570662 108.270482 
L 348.536673 108.270482 
L 348.536673 119.882835 
L 341.713319 119.882835 
L 341.713319 167.812504 
L 336.407247 167.812504 
L 336.407247 119.882835 
L 329.570662 119.882835 
L 329.570662 108.270482 
z
" clip-path="url(#pb40d287f4e)" style="fill: #ff0000"/>
   </g>
   <g id="patch_55">
    <path d="M 362.672656 191.491771 
L 355.378633 191.491771 
L 354.226945 192.24 
L 349.534884 192.24 
L 356.235613 188.132662 
L 361.800165 188.132662 
L 368.500894 192.24 
L 363.812711 192.24 
L 362.672656 191.491771 
z
M 356.541954 190.729457 
L 361.497702 190.729457 
L 359.023706 189.095677 
L 356.541954 190.729457 
z
" clip-path="url(#pb40d287f4e)" style="fill: #008000"/>
   </g>
   <g id="patch_56">
    <path d="M 368.500894 187.478414 
Q 366.91442 187.80271 365.198926 187.966743 
Q 363.483431 188.132662 361.615024 188.132662 
Q 356.04325 188.132662 352.789067 186.903355 
Q 349.534884 185.674048 349.534884 183.571782 
Q 349.534884 181.461974 352.789067 180.234552 
Q 356.04325 179.005245 361.615024 179.005245 
Q 363.483431 179.005245 365.198926 179.171164 
Q 366.91442 179.335197 368.500894 179.659493 
L 368.500894 181.478943 
Q 366.900085 181.049062 365.34706 180.849206 
Q 363.794036 180.649349 362.078542 180.649349 
Q 359.001164 180.649349 357.237884 181.428036 
Q 355.479383 182.204837 355.479383 183.571782 
Q 355.479383 184.93307 357.237884 185.711757 
Q 359.001164 186.488558 362.078542 186.488558 
Q 363.794036 186.488558 365.34706 186.288701 
Q 366.900085 186.086959 368.500894 185.657079 
L 368.500894 187.478414 
z
" clip-path="url(#pb40d287f4e)" style="fill: #0000ff"/>
   </g>
   <g id="patch_57">
    <path d="M 368.500894 177.890384 
Q 366.588141 178.447814 364.530869 178.727802 
Q 362.473597 179.005245 360.280306 179.005245 
Q 355.32415 179.005245 352.429517 177.34568 
Q 349.534884 175.686115 349.534884 172.848056 
Q 349.534884 169.976907 352.480524 168.330069 
Q 355.430414 166.683231 360.560843 166.683231 
Q 362.537355 166.683231 364.348095 166.907222 
Q 366.163085 167.128667 367.769798 167.566466 
L 367.769798 170.022724 
Q 366.112078 169.460202 364.471361 169.18276 
Q 362.830644 168.902772 361.181425 168.902772 
Q 358.129521 168.902772 356.476053 169.926 
Q 354.822584 170.946684 354.822584 172.848056 
Q 354.822584 174.731611 356.416545 175.75993 
Q 358.010506 176.785704 360.943394 176.785704 
Q 361.7425 176.785704 362.42684 176.727161 
Q 363.111181 176.666073 363.655253 176.538806 
L 363.655253 174.232724 
L 360.531089 174.232724 
L 360.531089 172.17863 
L 368.500894 172.17863 
L 368.500894 177.890384 
z
" clip-path="url(#pb40d287f4e)" style="fill: #ffa600"/>
   </g>
   <g id="patch_58">
    <path d="M 349.534884 91.838409 
L 368.500894 91.838409 
L 368.500894 106.435235 
L 361.677541 106.435235 
L 361.677541 166.683231 
L 356.371469 166.683231 
L 356.371469 106.435235 
L 349.534884 106.435235 
L 349.534884 91.838409 
z
" clip-path="url(#pb40d287f4e)" style="fill: #ff0000"/>
   </g>
   <g id="patch_59">
    <path d="M 382.636878 191.862468 
L 375.342855 191.862468 
L 374.191167 192.24 
L 369.499106 192.24 
L 376.199835 190.167569 
L 381.764387 190.167569 
L 388.465116 192.24 
L 383.776932 192.24 
L 382.636878 191.862468 
z
M 376.506176 191.477829 
L 381.461924 191.477829 
L 378.987928 190.653476 
L 376.506176 191.477829 
z
" clip-path="url(#pb40d287f4e)" style="fill: #008000"/>
   </g>
   <g id="patch_60">
    <path d="M 388.465116 189.382373 
Q 386.878642 189.771577 385.163148 189.968442 
Q 383.447653 190.167569 381.579245 190.167569 
Q 376.007472 190.167569 372.753289 188.692215 
Q 369.499106 187.216861 369.499106 184.693825 
Q 369.499106 182.161737 372.753289 180.688646 
Q 376.007472 179.213292 381.579245 179.213292 
Q 383.447653 179.213292 385.163148 179.41242 
Q 386.878642 179.609284 388.465116 179.998488 
L 388.465116 182.182103 
Q 386.864307 181.666181 385.311282 181.426323 
Q 383.758258 181.186465 382.042763 181.186465 
Q 378.965386 181.186465 377.202106 182.121007 
Q 375.443605 183.053286 375.443605 184.693825 
Q 375.443605 186.327576 377.202106 187.262118 
Q 378.965386 188.194396 382.042763 188.194396 
Q 383.758258 188.194396 385.311282 187.954538 
Q 386.864307 187.712417 388.465116 187.196496 
L 388.465116 189.382373 
z
" clip-path="url(#pb40d287f4e)" style="fill: #0000ff"/>
   </g>
   <g id="patch_61">
    <path d="M 388.465116 178.115033 
Q 386.552363 178.664163 384.495091 178.939981 
Q 382.437818 179.213292 380.244528 179.213292 
Q 375.288372 179.213292 372.393739 177.578441 
Q 369.499106 175.943589 369.499106 173.147792 
Q 369.499106 170.319398 372.444745 168.697084 
Q 375.394636 167.074769 380.525065 167.074769 
Q 382.501577 167.074769 384.312317 167.295424 
Q 386.127307 167.513571 387.734019 167.944851 
L 387.734019 170.364532 
Q 386.0763 169.810387 384.435583 169.537076 
Q 382.794866 169.261258 381.145647 169.261258 
Q 378.093743 169.261258 376.440274 170.269249 
Q 374.786806 171.274733 374.786806 173.147792 
Q 374.786806 175.003298 376.380767 176.016305 
Q 377.974728 177.026803 380.907616 177.026803 
Q 381.706722 177.026803 382.391062 176.969132 
Q 383.075403 176.908954 383.619475 176.783582 
L 383.619475 174.51184 
L 380.495311 174.51184 
L 380.495311 172.488335 
L 388.465116 172.488335 
L 388.465116 178.115033 
z
" clip-path="url(#pb40d287f4e)" style="fill: #ffa600"/>
   </g>
   <g id="patch_62">
    <path d="M 369.499106 127.106461 
L 388.465116 127.106461 
L 388.465116 134.901395 
L 381.641763 134.901395 
L 381.641763 167.074769 
L 376.335691 167.074769 
L 376.335691 134.901395 
L 369.499106 134.901395 
L 369.499106 127.106461 
z
" clip-path="url(#pb40d287f4e)" style="fill: #ff0000"/>
   </g>
   <g id="patch_63">
    <path d="M 408.429338 192.044781 
Q 406.842864 192.141547 405.127369 192.190492 
Q 403.411875 192.24 401.543467 192.24 
Q 395.971694 192.24 392.717511 191.873191 
Q 389.463327 191.506381 389.463327 190.879092 
Q 389.463327 190.249553 392.717511 189.883306 
Q 395.971694 189.516497 401.543467 189.516497 
Q 403.411875 189.516497 405.127369 189.566005 
Q 406.842864 189.61495 408.429338 189.711716 
L 408.429338 190.254616 
Q 406.828528 190.126346 405.275504 190.066711 
Q 403.72248 190.007076 402.006985 190.007076 
Q 398.929608 190.007076 397.166328 190.239426 
Q 395.407827 190.471214 395.407827 190.879092 
Q 395.407827 191.285283 397.166328 191.517633 
Q 398.929608 191.749421 402.006985 191.749421 
Q 403.72248 191.749421 405.275504 191.689786 
Q 406.828528 191.629589 408.429338 191.501318 
L 408.429338 192.044781 
z
" clip-path="url(#pb40d287f4e)" style="fill: #0000ff"/>
   </g>
   <g id="patch_64">
    <path d="M 389.463327 186.164493 
L 408.429338 186.164493 
L 408.429338 186.818227 
L 401.605985 186.818227 
L 401.605985 189.516497 
L 396.299913 189.516497 
L 396.299913 186.818227 
L 389.463327 186.818227 
L 389.463327 186.164493 
z
" clip-path="url(#pb40d287f4e)" style="fill: #ff0000"/>
   </g>
   <g id="patch_65">
    <path d="M 402.6011 184.885985 
L 395.307077 184.885985 
L 394.155389 186.164493 
L 389.463327 186.164493 
L 396.164057 179.146236 
L 401.728609 179.146236 
L 408.429338 186.164493 
L 403.741154 186.164493 
L 402.6011 184.885985 
z
M 396.470398 183.583411 
L 401.426145 183.583411 
L 398.952149 180.791751 
L 396.470398 183.583411 
z
" clip-path="url(#pb40d287f4e)" style="fill: #008000"/>
   </g>
   <g id="patch_66">
    <path d="M 408.429338 178.245874 
Q 406.516585 178.696055 404.459313 178.922173 
Q 402.40204 179.146236 400.20875 179.146236 
Q 395.252594 179.146236 392.357961 177.805971 
Q 389.463327 176.465706 389.463327 174.173689 
Q 389.463327 171.854948 392.408967 170.524961 
Q 395.358858 169.194975 400.489287 169.194975 
Q 402.465799 169.194975 404.276538 169.375869 
Q 406.091529 169.554708 407.698241 169.908275 
L 407.698241 171.891949 
Q 406.040522 171.437657 404.399805 171.213594 
Q 402.759087 170.987476 401.109869 170.987476 
Q 398.057965 170.987476 396.404496 171.813836 
Q 394.751027 172.63814 394.751027 174.173689 
Q 394.751027 175.694848 396.344988 176.525319 
Q 397.938949 177.353734 400.871838 177.353734 
Q 401.670943 177.353734 402.355284 177.306455 
Q 403.039625 177.25712 403.583697 177.154339 
L 403.583697 175.291946 
L 400.459533 175.291946 
L 400.459533 173.63306 
L 408.429338 173.63306 
L 408.429338 178.245874 
z
" clip-path="url(#pb40d287f4e)" style="fill: #ffa600"/>
   </g>
   <g id="patch_67">
    <path d="M 422.565322 191.0003 
L 415.271299 191.0003 
L 414.119611 192.24 
L 409.427549 192.24 
L 416.128278 185.434777 
L 421.692831 185.434777 
L 428.39356 192.24 
L 423.705376 192.24 
L 422.565322 191.0003 
z
M 416.43462 189.737265 
L 421.390367 189.737265 
L 418.916371 187.030343 
L 416.43462 189.737265 
z
" clip-path="url(#pb40d287f4e)" style="fill: #008000"/>
   </g>
   <g id="patch_68">
    <path d="M 428.39356 184.946982 
Q 426.807086 185.188771 425.091591 185.311071 
Q 423.376097 185.434777 421.507689 185.434777 
Q 415.935916 185.434777 412.681732 184.518229 
Q 409.427549 183.601682 409.427549 182.034274 
Q 409.427549 180.461242 412.681732 179.546101 
Q 415.935916 178.629553 421.507689 178.629553 
Q 423.376097 178.629553 425.091591 178.753259 
Q 426.807086 178.875559 428.39356 179.117348 
L 428.39356 180.473894 
Q 426.79275 180.153383 425.239726 180.004374 
Q 423.686702 179.855365 421.971207 179.855365 
Q 418.89383 179.855365 417.13055 180.435939 
Q 415.372048 181.015107 415.372048 182.034274 
Q 415.372048 183.049223 417.13055 183.629797 
Q 418.89383 184.208965 421.971207 184.208965 
Q 423.686702 184.208965 425.239726 184.059956 
Q 426.79275 183.909541 428.39356 183.58903 
L 428.39356 184.946982 
z
" clip-path="url(#pb40d287f4e)" style="fill: #0000ff"/>
   </g>
   <g id="patch_69">
    <path d="M 409.427549 170.123024 
L 428.39356 170.123024 
L 428.39356 171.782034 
L 421.570207 171.782034 
L 421.570207 178.629553 
L 416.264134 178.629553 
L 416.264134 171.782034 
L 409.427549 171.782034 
L 409.427549 170.123024 
z
" clip-path="url(#pb40d287f4e)" style="fill: #ff0000"/>
   </g>
   <g id="patch_70">
    <path d="M 428.39356 166.480029 
Q 426.480807 168.301527 424.423534 169.216434 
Q 422.366262 170.123024 420.172972 170.123024 
Q 415.216816 170.123024 412.322182 164.700119 
Q 409.427549 159.277214 409.427549 150.003381 
Q 409.427549 140.621422 412.373189 135.240104 
Q 415.32308 129.858785 420.453509 129.858785 
Q 422.43002 129.858785 424.24076 130.590711 
Q 426.05575 131.31432 427.662463 132.744902 
L 427.662463 140.771134 
Q 426.004744 138.933002 424.364026 138.026412 
Q 422.723309 137.111505 421.074091 137.111505 
Q 418.022187 137.111505 416.368718 140.455075 
Q 414.715249 143.790328 414.715249 150.003381 
Q 414.715249 156.158212 416.30921 159.518417 
Q 417.903171 162.870304 420.836059 162.870304 
Q 421.635165 162.870304 422.319506 162.679005 
Q 423.003846 162.479389 423.547918 162.063522 
L 423.547918 154.528013 
L 420.423755 154.528013 
L 420.423755 147.81592 
L 428.39356 147.81592 
L 428.39356 166.480029 
z
" clip-path="url(#pb40d287f4e)" style="fill: #ffa600"/>
   </g>
   <g id="patch_71">
    <path d="M 448.357782 192.075353 
Q 446.771308 192.156965 445.055813 192.198245 
Q 443.340319 192.24 441.471911 192.24 
Q 435.900138 192.24 432.645954 191.930634 
Q 429.391771 191.621268 429.391771 191.092215 
Q 429.391771 190.561264 432.645954 190.252372 
Q 435.900138 189.943007 441.471911 189.943007 
Q 443.340319 189.943007 445.055813 189.984762 
Q 446.771308 190.026042 448.357782 190.107654 
L 448.357782 190.565534 
Q 446.756972 190.457351 445.203948 190.407055 
Q 443.650923 190.35676 441.935429 190.35676 
Q 438.858052 190.35676 437.094772 190.552723 
Q 435.33627 190.748212 435.33627 191.092215 
Q 435.33627 191.434795 437.094772 191.630758 
Q 438.858052 191.826247 441.935429 191.826247 
Q 443.650923 191.826247 445.203948 191.775951 
Q 446.756972 191.725181 448.357782 191.616998 
L 448.357782 192.075353 
z
" clip-path="url(#pb40d287f4e)" style="fill: #0000ff"/>
   </g>
   <g id="patch_72">
    <path d="M 429.391771 182.541584 
L 448.357782 182.541584 
L 448.357782 183.985067 
L 441.534429 183.985067 
L 441.534429 189.943007 
L 436.228356 189.943007 
L 436.228356 183.985067 
L 429.391771 183.985067 
L 429.391771 182.541584 
z
" clip-path="url(#pb40d287f4e)" style="fill: #ff0000"/>
   </g>
   <g id="patch_73">
    <path d="M 448.357782 181.202264 
Q 446.445029 181.871924 444.387756 182.208283 
Q 442.330484 182.541584 440.137194 182.541584 
Q 435.181037 182.541584 432.286404 180.547893 
Q 429.391771 178.554203 429.391771 175.144747 
Q 429.391771 171.69554 432.337411 169.717139 
Q 435.287301 167.738737 440.417731 167.738737 
Q 442.394242 167.738737 444.204982 168.007825 
Q 446.019972 168.273854 447.626685 168.799797 
L 447.626685 171.750581 
Q 445.968966 171.074805 444.328248 170.741504 
Q 442.687531 170.405146 441.038313 170.405146 
Q 437.986409 170.405146 436.33294 171.634384 
Q 434.679471 172.860565 434.679471 175.144747 
Q 434.679471 177.407525 436.273432 178.642879 
Q 437.867393 179.875175 440.800281 179.875175 
Q 441.599387 179.875175 442.283728 179.804846 
Q 442.968068 179.731459 443.51214 179.578568 
L 443.51214 176.808195 
L 440.387977 176.808195 
L 440.387977 174.340544 
L 448.357782 174.340544 
L 448.357782 181.202264 
z
" clip-path="url(#pb40d287f4e)" style="fill: #ffa600"/>
   </g>
   <g id="patch_74">
    <path d="M 442.529543 161.973554 
L 435.23552 161.973554 
L 434.083833 167.738737 
L 429.391771 167.738737 
L 436.0925 136.091273 
L 441.657053 136.091273 
L 448.357782 167.738737 
L 443.669598 167.738737 
L 442.529543 161.973554 
z
M 436.398841 156.09985 
L 441.354589 156.09985 
L 438.880593 143.511403 
L 436.398841 156.09985 
z
" clip-path="url(#pb40d287f4e)" style="fill: #008000"/>
   </g>
   <g id="patch_75">
    <path d="M 468.322004 192.104166 
Q 466.73553 192.171496 465.020035 192.205552 
Q 463.30454 192.24 461.436133 192.24 
Q 455.864359 192.24 452.610176 191.984773 
Q 449.355993 191.729547 449.355993 191.293078 
Q 449.355993 190.855043 452.610176 190.600208 
Q 455.864359 190.344981 461.436133 190.344981 
Q 463.30454 190.344981 465.020035 190.379429 
Q 466.73553 190.413485 468.322004 190.480815 
L 468.322004 190.858566 
Q 466.721194 190.769315 465.16817 190.727821 
Q 463.615145 190.686327 461.899651 190.686327 
Q 458.822273 190.686327 457.058993 190.847997 
Q 455.300492 191.009275 455.300492 191.293078 
Q 455.300492 191.575706 457.058993 191.737376 
Q 458.822273 191.898654 461.899651 191.898654 
Q 463.615145 191.898654 465.16817 191.85716 
Q 466.721194 191.815275 468.322004 191.726024 
L 468.322004 192.104166 
z
" clip-path="url(#pb40d287f4e)" style="fill: #0000ff"/>
   </g>
   <g id="patch_76">
    <path d="M 468.322004 189.94206 
Q 466.40925 190.14352 464.351978 190.244711 
Q 462.294706 190.344981 460.101415 190.344981 
Q 455.145259 190.344981 452.250626 189.745199 
Q 449.355993 189.145416 449.355993 188.119714 
Q 449.355993 187.082053 452.301633 186.48687 
Q 455.251523 185.891687 460.381952 185.891687 
Q 462.358464 185.891687 464.169204 185.972639 
Q 465.984194 186.052672 467.590907 186.210896 
L 467.590907 187.098612 
Q 465.933187 186.895311 464.29247 186.795041 
Q 462.651753 186.69385 461.002535 186.69385 
Q 457.950631 186.69385 456.297162 187.063655 
Q 454.643693 187.43254 454.643693 188.119714 
Q 454.643693 188.800449 456.237654 189.172093 
Q 457.831615 189.542818 460.764503 189.542818 
Q 461.563609 189.542818 462.247949 189.52166 
Q 462.93229 189.499582 463.476362 189.453586 
L 463.476362 188.620146 
L 460.352199 188.620146 
L 460.352199 187.877777 
L 468.322004 187.877777 
L 468.322004 189.94206 
z
" clip-path="url(#pb40d287f4e)" style="fill: #ffa600"/>
   </g>
   <g id="patch_77">
    <path d="M 449.355993 180.017129 
L 468.322004 180.017129 
L 468.322004 181.162831 
L 461.49865 181.162831 
L 461.49865 185.891687 
L 456.192578 185.891687 
L 456.192578 181.162831 
L 449.355993 181.162831 
L 449.355993 180.017129 
z
" clip-path="url(#pb40d287f4e)" style="fill: #ff0000"/>
   </g>
   <g id="patch_78">
    <path d="M 462.493765 178.446407 
L 455.199742 178.446407 
L 454.048054 180.017129 
L 449.355993 180.017129 
L 456.056722 171.394793 
L 461.621274 171.394793 
L 468.322004 180.017129 
L 463.63382 180.017129 
L 462.493765 178.446407 
z
M 456.363063 176.84612 
L 461.318811 176.84612 
L 458.844815 173.416404 
L 456.363063 176.84612 
z
" clip-path="url(#pb40d287f4e)" style="fill: #008000"/>
   </g>
   <g id="patch_79">
    <path d="M 488.286225 191.875362 
Q 486.699751 192.056105 484.984257 192.147527 
Q 483.268762 192.24 481.400355 192.24 
Q 475.828581 192.24 472.574398 191.554859 
Q 469.320215 190.869717 469.320215 189.698042 
Q 469.320215 188.522163 472.574398 187.838072 
Q 475.828581 187.152931 481.400355 187.152931 
Q 483.268762 187.152931 484.984257 187.245404 
Q 486.699751 187.336826 488.286225 187.517569 
L 488.286225 188.53162 
Q 486.685416 188.292031 485.132391 188.180643 
Q 483.579367 188.069255 481.863873 188.069255 
Q 478.786495 188.069255 477.023215 188.503248 
Q 475.264714 188.93619 475.264714 189.698042 
Q 475.264714 190.456741 477.023215 190.890734 
Q 478.786495 191.323676 481.863873 191.323676 
Q 483.579367 191.323676 485.132391 191.212288 
Q 486.685416 191.099849 488.286225 190.86026 
L 488.286225 191.875362 
z
" clip-path="url(#pb40d287f4e)" style="fill: #0000ff"/>
   </g>
   <g id="patch_80">
    <path d="M 488.286225 186.612622 
Q 486.373472 186.882776 484.3162 187.01847 
Q 482.258928 187.152931 480.065637 187.152931 
Q 475.109481 187.152931 472.214848 186.348635 
Q 469.320215 185.544338 469.320215 184.168893 
Q 469.320215 182.777411 472.265855 181.979283 
Q 475.215745 181.181154 480.346174 181.181154 
Q 482.322686 181.181154 484.133426 181.28971 
Q 485.948416 181.397032 487.555129 181.609208 
L 487.555129 182.799616 
Q 485.897409 182.526994 484.256692 182.392533 
Q 482.615975 182.256839 480.966756 182.256839 
Q 477.914852 182.256839 476.261384 182.75274 
Q 474.607915 183.247406 474.607915 184.168893 
Q 474.607915 185.081745 476.201876 185.580112 
Q 477.795837 186.077246 480.728725 186.077246 
Q 481.527831 186.077246 482.212171 186.048874 
Q 482.896512 186.019268 483.440584 185.957589 
L 483.440584 184.839962 
L 480.31642 184.839962 
L 480.31642 183.844461 
L 488.286225 183.844461 
L 488.286225 186.612622 
z
" clip-path="url(#pb40d287f4e)" style="fill: #ffa600"/>
   </g>
   <g id="patch_81">
    <path d="M 482.457987 179.569492 
L 475.163964 179.569492 
L 474.012276 181.181154 
L 469.320215 181.181154 
L 476.020944 172.334078 
L 481.585496 172.334078 
L 488.286225 181.181154 
L 483.598042 181.181154 
L 482.457987 179.569492 
z
M 476.327285 177.927493 
L 481.283033 177.927493 
L 478.809037 174.408382 
L 476.327285 177.927493 
z
" clip-path="url(#pb40d287f4e)" style="fill: #008000"/>
   </g>
   <g id="patch_82">
    <path d="M 469.320215 143.58108 
L 488.286225 143.58108 
L 488.286225 149.188715 
L 481.462872 149.188715 
L 481.462872 172.334078 
L 476.1568 172.334078 
L 476.1568 149.188715 
L 469.320215 149.188715 
L 469.320215 143.58108 
z
" clip-path="url(#pb40d287f4e)" style="fill: #ff0000"/>
   </g>
   <g id="patch_83">
    <path d="M 508.250447 191.719552 
Q 506.337694 191.979776 504.280422 192.110482 
Q 502.223149 192.24 500.029859 192.24 
Q 495.073703 192.24 492.17907 191.46527 
Q 489.284436 190.690539 489.284436 189.365655 
Q 489.284436 188.025324 492.230076 187.256535 
Q 495.179967 186.487746 500.310396 186.487746 
Q 502.286908 186.487746 504.097647 186.592311 
Q 505.912638 186.695688 507.51935 186.900064 
L 507.51935 188.046713 
Q 505.861631 187.784112 504.220914 187.654595 
Q 502.580197 187.523889 500.930978 187.523889 
Q 497.879074 187.523889 496.225605 188.00156 
Q 494.572136 188.478043 494.572136 189.365655 
Q 494.572136 190.244951 496.166097 190.724998 
Q 497.760059 191.203858 500.692947 191.203858 
Q 501.492053 191.203858 502.176393 191.176528 
Q 502.860734 191.14801 503.404806 191.088599 
L 503.404806 190.012056 
L 500.280642 190.012056 
L 500.280642 189.053149 
L 508.250447 189.053149 
L 508.250447 191.719552 
z
" clip-path="url(#pb40d287f4e)" style="fill: #ffa600"/>
   </g>
   <g id="patch_84">
    <path d="M 502.422209 185.20171 
L 495.128186 185.20171 
L 493.976498 186.487746 
L 489.284436 186.487746 
L 495.985166 179.428162 
L 501.549718 179.428162 
L 508.250447 186.487746 
L 503.562263 186.487746 
L 502.422209 185.20171 
z
M 496.291507 183.891465 
L 501.247255 183.891465 
L 498.773258 181.083367 
L 496.291507 183.891465 
z
" clip-path="url(#pb40d287f4e)" style="fill: #008000"/>
   </g>
   <g id="patch_85">
    <path d="M 508.250447 178.809685 
Q 506.663973 179.11625 504.948479 179.271315 
Q 503.232984 179.428162 501.364576 179.428162 
Q 495.792803 179.428162 492.53862 178.266066 
Q 489.284436 177.103971 489.284436 175.116645 
Q 489.284436 173.12219 492.53862 171.961877 
Q 495.792803 170.799781 501.364576 170.799781 
Q 503.232984 170.799781 504.948479 170.956628 
Q 506.663973 171.111693 508.250447 171.418258 
L 508.250447 173.138231 
Q 506.649638 172.731854 505.096613 172.542924 
Q 503.543589 172.353995 501.828094 172.353995 
Q 498.750717 172.353995 496.987437 173.090107 
Q 495.228936 173.824438 495.228936 175.116645 
Q 495.228936 176.403505 496.987437 177.139618 
Q 498.750717 177.873948 501.828094 177.873948 
Q 503.543589 177.873948 505.096613 177.685019 
Q 506.649638 177.494307 508.250447 177.08793 
L 508.250447 178.809685 
z
" clip-path="url(#pb40d287f4e)" style="fill: #0000ff"/>
   </g>
   <g id="patch_86">
    <path d="M 489.284436 134.717462 
L 508.250447 134.717462 
L 508.250447 141.754519 
L 501.427094 141.754519 
L 501.427094 170.799781 
L 496.121022 170.799781 
L 496.121022 141.754519 
L 489.284436 141.754519 
L 489.284436 134.717462 
z
" clip-path="url(#pb40d287f4e)" style="fill: #ff0000"/>
   </g>
   <g id="patch_87">
    <path d="M 522.386431 191.891054 
L 515.092408 191.891054 
L 513.94072 192.24 
L 509.248658 192.24 
L 515.949388 190.324489 
L 521.51394 190.324489 
L 528.214669 192.24 
L 523.526485 192.24 
L 522.386431 191.891054 
z
M 516.255729 191.535539 
L 521.211476 191.535539 
L 518.73748 190.773604 
L 516.255729 191.535539 
z
" clip-path="url(#pb40d287f4e)" style="fill: #008000"/>
   </g>
   <g id="patch_88">
    <path d="M 528.214669 189.965976 
Q 526.628195 190.143683 524.9127 190.233569 
Q 523.197206 190.324489 521.328798 190.324489 
Q 515.757025 190.324489 512.502842 189.650857 
Q 509.248658 188.977226 509.248658 187.825233 
Q 509.248658 186.669107 512.502842 185.996509 
Q 515.757025 185.322877 521.328798 185.322877 
Q 523.197206 185.322877 524.9127 185.413797 
Q 526.628195 185.503683 528.214669 185.68139 
L 528.214669 186.678406 
Q 526.613859 186.442841 525.060835 186.333324 
Q 523.507811 186.223808 521.792316 186.223808 
Q 518.714939 186.223808 516.951659 186.65051 
Q 515.193158 187.076179 515.193158 187.825233 
Q 515.193158 188.571187 516.951659 188.997889 
Q 518.714939 189.423558 521.792316 189.423558 
Q 523.507811 189.423558 525.060835 189.314041 
Q 526.613859 189.203491 528.214669 188.967927 
L 528.214669 189.965976 
z
" clip-path="url(#pb40d287f4e)" style="fill: #0000ff"/>
   </g>
   <g id="patch_89">
    <path d="M 528.214669 184.72592 
Q 526.301916 185.024399 524.244643 185.174319 
Q 522.187371 185.322877 519.994081 185.322877 
Q 515.037925 185.322877 512.143292 184.434256 
Q 509.248658 183.545636 509.248658 182.025986 
Q 509.248658 180.488618 512.194298 179.606812 
Q 515.144189 178.725006 520.274618 178.725006 
Q 522.25113 178.725006 524.061869 178.844942 
Q 525.87686 178.963516 527.483572 179.197937 
L 527.483572 180.51315 
Q 525.825853 180.211946 524.185136 180.063388 
Q 522.544418 179.913468 520.8952 179.913468 
Q 517.843296 179.913468 516.189827 180.461359 
Q 514.536358 181.007888 514.536358 182.025986 
Q 514.536358 183.034543 516.130319 183.58516 
Q 517.72428 184.134415 520.657169 184.134415 
Q 521.456274 184.134415 522.140615 184.103068 
Q 522.824956 184.070358 523.369028 184.002212 
L 523.369028 182.767411 
L 520.244864 182.767411 
L 520.244864 181.667539 
L 528.214669 181.667539 
L 528.214669 184.72592 
z
" clip-path="url(#pb40d287f4e)" style="fill: #ffa600"/>
   </g>
   <g id="patch_90">
    <path d="M 509.248658 168.828199 
L 528.214669 168.828199 
L 528.214669 170.758352 
L 521.391316 170.758352 
L 521.391316 178.725006 
L 516.085244 178.725006 
L 516.085244 170.758352 
L 509.248658 170.758352 
L 509.248658 168.828199 
z
" clip-path="url(#pb40d287f4e)" style="fill: #ff0000"/>
   </g>
   <g id="patch_91">
    <path d="M 542.350652 191.806148 
L 535.05663 191.806148 
L 533.904942 192.24 
L 529.21288 192.24 
L 535.913609 189.858406 
L 541.478162 189.858406 
L 548.178891 192.24 
L 543.490707 192.24 
L 542.350652 191.806148 
z
M 536.219951 191.364129 
L 541.175698 191.364129 
L 538.701702 190.4168 
L 536.219951 191.364129 
z
" clip-path="url(#pb40d287f4e)" style="fill: #008000"/>
   </g>
   <g id="patch_92">
    <path d="M 548.178891 189.509224 
Q 546.592417 189.682306 544.876922 189.769853 
Q 543.161428 189.858406 541.29302 189.858406 
Q 535.721247 189.858406 532.467063 189.202306 
Q 529.21288 188.546206 529.21288 187.424195 
Q 529.21288 186.298158 532.467063 185.643065 
Q 535.721247 184.986965 541.29302 184.986965 
Q 543.161428 184.986965 544.876922 185.075518 
Q 546.592417 185.163065 548.178891 185.336147 
L 548.178891 186.307215 
Q 546.578081 186.077781 545.025057 185.971115 
Q 543.472033 185.864448 541.756538 185.864448 
Q 538.679161 185.864448 536.915881 186.280045 
Q 535.157379 186.694636 535.157379 187.424195 
Q 535.157379 188.150735 536.915881 188.566332 
Q 538.679161 188.980923 541.756538 188.980923 
Q 543.472033 188.980923 545.025057 188.874256 
Q 546.578081 188.766584 548.178891 188.53715 
L 548.178891 189.509224 
z
" clip-path="url(#pb40d287f4e)" style="fill: #0000ff"/>
   </g>
   <g id="patch_93">
    <path d="M 529.21288 179.357743 
L 548.178891 179.357743 
L 548.178891 180.455598 
L 541.355538 180.455598 
L 541.355538 184.986965 
L 536.049465 184.986965 
L 536.049465 180.455598 
L 529.21288 180.455598 
L 529.21288 179.357743 
z
" clip-path="url(#pb40d287f4e)" style="fill: #ff0000"/>
   </g>
   <g id="patch_94">
    <path d="M 548.178891 178.368495 
Q 546.266138 178.863119 544.208865 179.11156 
Q 542.151593 179.357743 539.958303 179.357743 
Q 535.002147 179.357743 532.107513 177.885163 
Q 529.21288 176.412583 529.21288 173.894291 
Q 529.21288 171.346638 532.15852 169.88535 
Q 535.108411 168.424063 540.23884 168.424063 
Q 542.215351 168.424063 544.026091 168.622816 
Q 545.841081 168.819311 547.447794 169.207783 
L 547.447794 171.387292 
Q 545.790075 170.88815 544.149357 170.641967 
Q 542.50864 170.393526 540.859422 170.393526 
Q 537.807518 170.393526 536.154049 171.301466 
Q 534.50058 172.207148 534.50058 173.894291 
Q 534.50058 175.565624 536.094541 176.478082 
Q 537.688502 177.388281 540.62139 177.388281 
Q 541.420496 177.388281 542.104837 177.336334 
Q 542.789177 177.282128 543.333249 177.1692 
L 543.333249 175.122947 
L 540.209086 175.122947 
L 540.209086 173.30029 
L 548.178891 173.30029 
L 548.178891 178.368495 
z
" clip-path="url(#pb40d287f4e)" style="fill: #ffa600"/>
   </g>
   <g id="patch_95">
    <path d="M 568.143113 192.096957 
Q 566.556639 192.16786 564.841144 192.203724 
Q 563.12565 192.24 561.257242 192.24 
Q 555.685468 192.24 552.431285 191.971228 
Q 549.177102 191.702457 549.177102 191.242824 
Q 549.177102 190.781543 552.431285 190.513184 
Q 555.685468 190.244412 561.257242 190.244412 
Q 563.12565 190.244412 564.841144 190.280688 
Q 566.556639 190.316552 568.143113 190.387455 
L 568.143113 190.785253 
Q 566.542303 190.691265 564.989279 190.647569 
Q 563.436254 190.603873 561.72076 190.603873 
Q 558.643382 190.603873 556.880103 190.774123 
Q 555.121601 190.94396 555.121601 191.242824 
Q 555.121601 191.540452 556.880103 191.710701 
Q 558.643382 191.880539 561.72076 191.880539 
Q 563.436254 191.880539 564.989279 191.836843 
Q 566.542303 191.792734 568.143113 191.698747 
L 568.143113 192.096957 
z
" clip-path="url(#pb40d287f4e)" style="fill: #0000ff"/>
   </g>
   <g id="patch_96">
    <path d="M 549.177102 186.918432 
L 568.143113 186.918432 
L 568.143113 187.567091 
L 561.31976 187.567091 
L 561.31976 190.244412 
L 556.013687 190.244412 
L 556.013687 187.567091 
L 549.177102 187.567091 
L 549.177102 186.918432 
z
" clip-path="url(#pb40d287f4e)" style="fill: #ff0000"/>
   </g>
   <g id="patch_97">
    <path d="M 562.314874 185.842977 
L 555.020851 185.842977 
L 553.869164 186.918432 
L 549.177102 186.918432 
L 555.877831 181.014818 
L 561.442383 181.014818 
L 568.143113 186.918432 
L 563.454929 186.918432 
L 562.314874 185.842977 
z
M 556.184172 184.747279 
L 561.13992 184.747279 
L 558.665924 182.398992 
L 556.184172 184.747279 
z
" clip-path="url(#pb40d287f4e)" style="fill: #008000"/>
   </g>
   <g id="patch_98">
    <path d="M 568.143113 180.375352 
Q 566.230359 180.695085 564.173087 180.855681 
Q 562.115815 181.014818 559.922524 181.014818 
Q 554.966368 181.014818 552.071735 180.062919 
Q 549.177102 179.111019 549.177102 177.483154 
Q 549.177102 175.83631 552.122742 174.89171 
Q 555.072632 173.947111 560.203062 173.947111 
Q 562.179573 173.947111 563.990313 174.075588 
Q 565.805303 174.202605 567.412016 174.45372 
L 567.412016 175.862589 
Q 565.754296 175.539936 564.113579 175.3808 
Q 562.472862 175.220203 560.823644 175.220203 
Q 557.77174 175.220203 556.118271 175.807111 
Q 554.464802 176.392558 554.464802 177.483154 
Q 554.464802 178.563531 556.058763 179.153358 
Q 557.652724 179.741726 560.585612 179.741726 
Q 561.384718 179.741726 562.069059 179.708146 
Q 562.753399 179.673107 563.297471 179.600109 
L 563.297471 178.277377 
L 560.173308 178.277377 
L 560.173308 177.099183 
L 568.143113 177.099183 
L 568.143113 180.375352 
z
" clip-path="url(#pb40d287f4e)" style="fill: #ffa600"/>
   </g>
   <g id="patch_99">
    <path d="M 588.107335 191.973037 
Q 586.194581 192.106519 584.137309 192.173564 
Q 582.080037 192.24 579.886746 192.24 
Q 574.93059 192.24 572.035957 191.842603 
Q 569.141324 191.445207 569.141324 190.765609 
Q 569.141324 190.078089 572.086964 189.68374 
Q 575.036854 189.28939 580.167283 189.28939 
Q 582.143795 189.28939 583.954535 189.343027 
Q 585.769525 189.396054 587.376238 189.500888 
L 587.376238 190.08906 
Q 585.718518 189.954359 584.077801 189.887923 
Q 582.437084 189.820878 580.787866 189.820878 
Q 577.735962 189.820878 576.082493 190.065899 
Q 574.429024 190.31031 574.429024 190.765609 
Q 574.429024 191.216642 576.022985 191.462882 
Q 577.616946 191.708512 580.549834 191.708512 
Q 581.34894 191.708512 582.03328 191.694494 
Q 582.717621 191.679866 583.261693 191.64939 
L 583.261693 191.09718 
L 580.137529 191.09718 
L 580.137529 190.60531 
L 588.107335 190.60531 
L 588.107335 191.973037 
z
" clip-path="url(#pb40d287f4e)" style="fill: #ffa600"/>
   </g>
   <g id="patch_100">
    <path d="M 582.279096 187.676863 
L 574.985073 187.676863 
L 573.833385 189.28939 
L 569.141324 189.28939 
L 575.842053 180.437561 
L 581.406605 180.437561 
L 588.107335 189.28939 
L 583.419151 189.28939 
L 582.279096 187.676863 
z
M 576.148394 186.033981 
L 581.104142 186.033981 
L 578.630146 182.512979 
L 576.148394 186.033981 
z
" clip-path="url(#pb40d287f4e)" style="fill: #008000"/>
   </g>
   <g id="patch_101">
    <path d="M 588.107335 179.406509 
Q 586.52086 179.917578 584.805366 180.176084 
Q 583.089871 180.437561 581.221464 180.437561 
Q 575.64969 180.437561 572.395507 178.500252 
Q 569.141324 176.562943 569.141324 173.249907 
Q 569.141324 169.924986 572.395507 167.990648 
Q 575.64969 166.053339 581.221464 166.053339 
Q 583.089871 166.053339 584.805366 166.314816 
Q 586.52086 166.573322 588.107335 167.084392 
L 588.107335 169.951728 
Q 586.506525 169.274264 584.953501 168.959303 
Q 583.400476 168.644341 581.684982 168.644341 
Q 578.607604 168.644341 576.844324 169.871502 
Q 575.085823 171.095691 575.085823 173.249907 
Q 575.085823 175.395209 576.844324 176.62237 
Q 578.607604 177.846559 581.684982 177.846559 
Q 583.400476 177.846559 584.953501 177.531598 
Q 586.506525 177.213665 588.107335 176.536201 
L 588.107335 179.406509 
z
" clip-path="url(#pb40d287f4e)" style="fill: #0000ff"/>
   </g>
   <g id="patch_102">
    <path d="M 569.141324 111.098234 
L 588.107335 111.098234 
L 588.107335 121.81601 
L 581.283981 121.81601 
L 581.283981 166.053339 
L 575.977909 166.053339 
L 575.977909 121.81601 
L 569.141324 121.81601 
L 569.141324 111.098234 
z
" clip-path="url(#pb40d287f4e)" style="fill: #ff0000"/>
   </g>
   <g id="patch_103">
    <path d="M 608.071556 191.965672 
Q 606.485082 192.10165 604.769588 192.17043 
Q 603.054093 192.24 601.185685 192.24 
Q 595.613912 192.24 592.359729 191.724547 
Q 589.105546 191.209095 589.105546 190.327608 
Q 589.105546 189.442958 592.359729 188.928296 
Q 595.613912 188.412844 601.185685 188.412844 
Q 603.054093 188.412844 604.769588 188.482414 
Q 606.485082 188.551194 608.071556 188.687172 
L 608.071556 189.450073 
Q 606.470747 189.269823 604.917722 189.186023 
Q 603.364698 189.102222 601.649204 189.102222 
Q 598.571826 189.102222 596.808546 189.428728 
Q 595.050045 189.754443 595.050045 190.327608 
Q 595.050045 190.8984 596.808546 191.224906 
Q 598.571826 191.550622 601.649204 191.550622 
Q 603.364698 191.550622 604.917722 191.466821 
Q 606.470747 191.38223 608.071556 191.20198 
L 608.071556 191.965672 
z
" clip-path="url(#pb40d287f4e)" style="fill: #0000ff"/>
   </g>
   <g id="patch_104">
    <path d="M 602.243318 187.018466 
L 594.949295 187.018466 
L 593.797607 188.412844 
L 589.105546 188.412844 
L 595.806275 180.758531 
L 601.370827 180.758531 
L 608.071556 188.412844 
L 603.383373 188.412844 
L 602.243318 187.018466 
z
M 596.112616 185.597841 
L 601.068364 185.597841 
L 598.594368 182.553177 
L 596.112616 185.597841 
z
" clip-path="url(#pb40d287f4e)" style="fill: #008000"/>
   </g>
   <g id="patch_105">
    <path d="M 608.071556 180.008279 
Q 606.158803 180.383405 604.101531 180.571824 
Q 602.044258 180.758531 599.850968 180.758531 
Q 594.894812 180.758531 592.000179 179.641717 
Q 589.105546 178.524903 589.105546 176.615014 
Q 589.105546 174.682858 592.051186 173.574608 
Q 595.001076 172.466359 600.131505 172.466359 
Q 602.108017 172.466359 603.918757 172.617094 
Q 605.733747 172.766117 607.34046 173.060737 
L 607.34046 174.71369 
Q 605.68274 174.335138 604.042023 174.148431 
Q 602.401306 173.960012 600.752087 173.960012 
Q 597.700183 173.960012 596.046714 174.648599 
Q 594.393246 175.335474 594.393246 176.615014 
Q 594.393246 177.882564 595.987207 178.574577 
Q 597.581168 179.264878 600.514056 179.264878 
Q 601.313162 179.264878 601.997502 179.225481 
Q 602.681843 179.184371 603.225915 179.098726 
L 603.225915 177.546834 
L 600.101751 177.546834 
L 600.101751 176.16452 
L 608.071556 176.16452 
L 608.071556 180.008279 
z
" clip-path="url(#pb40d287f4e)" style="fill: #ffa600"/>
   </g>
   <g id="patch_106">
    <path d="M 589.105546 145.463644 
L 608.071556 145.463644 
L 608.071556 150.729926 
L 601.248203 150.729926 
L 601.248203 172.466359 
L 595.942131 172.466359 
L 595.942131 150.729926 
L 589.105546 150.729926 
L 589.105546 145.463644 
z
" clip-path="url(#pb40d287f4e)" style="fill: #ff0000"/>
   </g>
   <g id="patch_107">
    <path d="M 628.035778 192.080193 
Q 626.449304 192.159406 624.73381 192.199473 
Q 623.018315 192.24 621.149907 192.24 
Q 615.578134 192.24 612.323951 191.939729 
Q 609.069767 191.639459 609.069767 191.125959 
Q 609.069767 190.610617 612.323951 190.310807 
Q 615.578134 190.010537 621.149907 190.010537 
Q 623.018315 190.010537 624.73381 190.051064 
Q 626.449304 190.091131 628.035778 190.170343 
L 628.035778 190.614762 
Q 626.434969 190.50976 624.881944 190.460943 
Q 623.32892 190.412126 621.613425 190.412126 
Q 618.536048 190.412126 616.772768 190.602328 
Q 615.014267 190.792069 615.014267 191.125959 
Q 615.014267 191.458467 616.772768 191.64867 
Q 618.536048 191.838411 621.613425 191.838411 
Q 623.32892 191.838411 624.881944 191.789594 
Q 626.434969 191.740317 628.035778 191.635314 
L 628.035778 192.080193 
z
" clip-path="url(#pb40d287f4e)" style="fill: #0000ff"/>
   </g>
   <g id="patch_108">
    <path d="M 628.035778 189.59524 
Q 626.123025 189.802888 624.065753 189.907187 
Q 622.00848 190.010537 619.81519 190.010537 
Q 614.859034 190.010537 611.964401 189.392332 
Q 609.069767 188.774128 609.069767 187.716923 
Q 609.069767 186.647392 612.015407 186.033928 
Q 614.965298 185.420465 620.095727 185.420465 
Q 622.072239 185.420465 623.882978 185.503904 
Q 625.697969 185.586394 627.304681 185.749479 
L 627.304681 186.664459 
Q 625.646962 186.454914 624.006245 186.351564 
Q 622.365528 186.247266 620.716309 186.247266 
Q 617.664405 186.247266 616.010936 186.628429 
Q 614.357467 187.008643 614.357467 187.716923 
Q 614.357467 188.418566 615.951428 188.801625 
Q 617.545389 189.183736 620.478278 189.183736 
Q 621.277383 189.183736 621.961724 189.161928 
Q 622.646065 189.139172 623.190137 189.091764 
L 623.190137 188.232725 
L 620.065973 188.232725 
L 620.065973 187.467555 
L 628.035778 187.467555 
L 628.035778 189.59524 
z
" clip-path="url(#pb40d287f4e)" style="fill: #ffa600"/>
   </g>
   <g id="patch_109">
    <path d="M 609.069767 174.797728 
L 628.035778 174.797728 
L 628.035778 176.869458 
L 621.212425 176.869458 
L 621.212425 185.420465 
L 615.906353 185.420465 
L 615.906353 176.869458 
L 609.069767 176.869458 
L 609.069767 174.797728 
z
" clip-path="url(#pb40d287f4e)" style="fill: #ff0000"/>
   </g>
   <g id="patch_110">
    <path d="M 622.20754 172.719253 
L 614.913517 172.719253 
L 613.761829 174.797728 
L 609.069767 174.797728 
L 615.770497 163.388121 
L 621.335049 163.388121 
L 628.035778 174.797728 
L 623.347594 174.797728 
L 622.20754 172.719253 
z
M 616.076838 170.601653 
L 621.032585 170.601653 
L 618.558589 166.063241 
L 616.076838 170.601653 
z
" clip-path="url(#pb40d287f4e)" style="fill: #008000"/>
   </g>
   <g id="patch_111">
    <path d="M 648 191.928261 
Q 646.087247 192.084131 644.029974 192.162421 
Q 641.972702 192.24 639.779412 192.24 
Q 634.823256 192.24 631.928622 191.77595 
Q 629.033989 191.311901 629.033989 190.518319 
Q 629.033989 189.715484 631.979629 189.254993 
Q 634.92952 188.794502 640.059949 188.794502 
Q 642.036461 188.794502 643.8472 188.857135 
Q 645.662191 188.919056 647.268903 189.041474 
L 647.268903 189.728296 
Q 645.611184 189.571003 643.970467 189.493424 
Q 642.329749 189.415133 640.680531 189.415133 
Q 637.628627 189.415133 635.975158 189.70125 
Q 634.321689 189.986654 634.321689 190.518319 
Q 634.321689 191.045001 635.91565 191.332541 
Q 637.509611 191.619369 640.4425 191.619369 
Q 641.241605 191.619369 641.925946 191.602999 
Q 642.610287 191.585918 643.154359 191.550331 
L 643.154359 190.905501 
L 640.030195 190.905501 
L 640.030195 190.331133 
L 648 190.331133 
L 648 191.928261 
z
" clip-path="url(#pb40d287f4e)" style="fill: #ffa600"/>
   </g>
   <g id="patch_112">
    <path d="M 648 188.335841 
Q 646.413526 188.563189 644.698031 188.678185 
Q 642.982537 188.794502 641.114129 188.794502 
Q 635.542356 188.794502 632.288173 187.932696 
Q 629.033989 187.070889 629.033989 185.597094 
Q 629.033989 184.118012 632.288173 183.257527 
Q 635.542356 182.395721 641.114129 182.395721 
Q 642.982537 182.395721 644.698031 182.512038 
Q 646.413526 182.627034 648 182.854382 
L 648 184.129908 
Q 646.39919 183.82854 644.846166 183.688431 
Q 643.293142 183.548321 641.577647 183.548321 
Q 638.50027 183.548321 636.73699 184.09422 
Q 634.978488 184.638797 634.978488 185.597094 
Q 634.978488 186.551426 636.73699 187.097325 
Q 638.50027 187.641902 641.577647 187.641902 
Q 643.293142 187.641902 644.846166 187.501793 
Q 646.39919 187.360361 648 187.058993 
L 648 188.335841 
z
" clip-path="url(#pb40d287f4e)" style="fill: #0000ff"/>
   </g>
   <g id="patch_113">
    <path d="M 642.171762 180.064403 
L 634.877739 180.064403 
L 633.726051 182.395721 
L 629.033989 182.395721 
L 635.734718 169.598158 
L 641.299271 169.598158 
L 648 182.395721 
L 643.311816 182.395721 
L 642.171762 180.064403 
z
M 636.04106 177.689202 
L 640.996807 177.689202 
L 638.522811 172.598701 
L 636.04106 177.689202 
z
" clip-path="url(#pb40d287f4e)" style="fill: #008000"/>
   </g>
   <g id="patch_114">
    <path d="M 629.033989 138.096465 
L 648 138.096465 
L 648 144.240173 
L 641.176647 144.240173 
L 641.176647 169.598158 
L 635.870575 169.598158 
L 635.870575 144.240173 
L 629.033989 144.240173 
L 629.033989 138.096465 
z
" clip-path="url(#pb40d287f4e)" style="fill: #ff0000"/>
   </g>
   <g id="matplotlib.axis_1">
    <g id="xtick_1">
     <g id="line2d_2">
      <defs>
       <path id="m93ba8c7184" d="M 0 0 
L 0 3.5 
" style="stroke: #000000; stroke-width: 0.8"/>
      </defs>
      <g>
       <use xlink:href="#m93ba8c7184" x="99.483005" y="192.24" style="stroke: #000000; stroke-width: 0.8"/>
      </g>
     </g>
     <g id="text_1">
      <!-- 0 -->
      <g transform="translate(96.301755 206.838437) scale(0.1 -0.1)">
       <defs>
        <path id="DejaVuSans-30" d="M 2034 4250 
Q 1547 4250 1301 3770 
Q 1056 3291 1056 2328 
Q 1056 1369 1301 889 
Q 1547 409 2034 409 
Q 2525 409 2770 889 
Q 3016 1369 3016 2328 
Q 3016 3291 2770 3770 
Q 2525 4250 2034 4250 
z
M 2034 4750 
Q 2819 4750 3233 4129 
Q 3647 3509 3647 2328 
Q 3647 1150 3233 529 
Q 2819 -91 2034 -91 
Q 1250 -91 836 529 
Q 422 1150 422 2328 
Q 422 3509 836 4129 
Q 1250 4750 2034 4750 
z
" transform="scale(0.015625)"/>
       </defs>
       <use xlink:href="#DejaVuSans-30"/>
      </g>
     </g>
    </g>
    <g id="xtick_2">
     <g id="line2d_3">
      <g>
       <use xlink:href="#m93ba8c7184" x="199.304114" y="192.24" style="stroke: #000000; stroke-width: 0.8"/>
      </g>
     </g>
     <g id="text_2">
      <!-- 5 -->
      <g transform="translate(196.122864 206.838437) scale(0.1 -0.1)">
       <defs>
        <path id="DejaVuSans-35" d="M 691 4666 
L 3169 4666 
L 3169 4134 
L 1269 4134 
L 1269 2991 
Q 1406 3038 1543 3061 
Q 1681 3084 1819 3084 
Q 2600 3084 3056 2656 
Q 3513 2228 3513 1497 
Q 3513 744 3044 326 
Q 2575 -91 1722 -91 
Q 1428 -91 1123 -41 
Q 819 9 494 109 
L 494 744 
Q 775 591 1075 516 
Q 1375 441 1709 441 
Q 2250 441 2565 725 
Q 2881 1009 2881 1497 
Q 2881 1984 2565 2268 
Q 2250 2553 1709 2553 
Q 1456 2553 1204 2497 
Q 953 2441 691 2322 
L 691 4666 
z
" transform="scale(0.015625)"/>
       </defs>
       <use xlink:href="#DejaVuSans-35"/>
      </g>
     </g>
    </g>
    <g id="xtick_3">
     <g id="line2d_4">
      <g>
       <use xlink:href="#m93ba8c7184" x="299.125224" y="192.24" style="stroke: #000000; stroke-width: 0.8"/>
      </g>
     </g>
     <g id="text_3">
      <!-- 10 -->
      <g transform="translate(292.762724 206.838437) scale(0.1 -0.1)">
       <defs>
        <path id="DejaVuSans-31" d="M 794 531 
L 1825 531 
L 1825 4091 
L 703 3866 
L 703 4441 
L 1819 4666 
L 2450 4666 
L 2450 531 
L 3481 531 
L 3481 0 
L 794 0 
L 794 531 
z
" transform="scale(0.015625)"/>
       </defs>
       <use xlink:href="#DejaVuSans-31"/>
       <use xlink:href="#DejaVuSans-30" x="63.623047"/>
      </g>
     </g>
    </g>
    <g id="xtick_4">
     <g id="line2d_5">
      <g>
       <use xlink:href="#m93ba8c7184" x="398.946333" y="192.24" style="stroke: #000000; stroke-width: 0.8"/>
      </g>
     </g>
     <g id="text_4">
      <!-- 15 -->
      <g transform="translate(392.583833 206.838437) scale(0.1 -0.1)">
       <use xlink:href="#DejaVuSans-31"/>
       <use xlink:href="#DejaVuSans-35" x="63.623047"/>
      </g>
     </g>
    </g>
    <g id="xtick_5">
     <g id="line2d_6">
      <g>
       <use xlink:href="#m93ba8c7184" x="498.767442" y="192.24" style="stroke: #000000; stroke-width: 0.8"/>
      </g>
     </g>
     <g id="text_5">
      <!-- 20 -->
      <g transform="translate(492.404942 206.838437) scale(0.1 -0.1)">
       <defs>
        <path id="DejaVuSans-32" d="M 1228 531 
L 3431 531 
L 3431 0 
L 469 0 
L 469 531 
Q 828 903 1448 1529 
Q 2069 2156 2228 2338 
Q 2531 2678 2651 2914 
Q 2772 3150 2772 3378 
Q 2772 3750 2511 3984 
Q 2250 4219 1831 4219 
Q 1534 4219 1204 4116 
Q 875 4013 500 3803 
L 500 4441 
Q 881 4594 1212 4672 
Q 1544 4750 1819 4750 
Q 2544 4750 2975 4387 
Q 3406 4025 3406 3419 
Q 3406 3131 3298 2873 
Q 3191 2616 2906 2266 
Q 2828 2175 2409 1742 
Q 1991 1309 1228 531 
z
" transform="scale(0.015625)"/>
       </defs>
       <use xlink:href="#DejaVuSans-32"/>
       <use xlink:href="#DejaVuSans-30" x="63.623047"/>
      </g>
     </g>
    </g>
    <g id="xtick_6">
     <g id="line2d_7">
      <g>
       <use xlink:href="#m93ba8c7184" x="598.588551" y="192.24" style="stroke: #000000; stroke-width: 0.8"/>
      </g>
     </g>
     <g id="text_6">
      <!-- 25 -->
      <g transform="translate(592.226051 206.838437) scale(0.1 -0.1)">
       <use xlink:href="#DejaVuSans-32"/>
       <use xlink:href="#DejaVuSans-35" x="63.623047"/>
      </g>
     </g>
    </g>
   </g>
   <g id="matplotlib.axis_2">
    <g id="ytick_1">
     <g id="line2d_8">
      <defs>
       <path id="m25d02c3793" d="M 0 0 
L -3.5 0 
" style="stroke: #000000; stroke-width: 0.8"/>
      </defs>
      <g>
       <use xlink:href="#m25d02c3793" x="90" y="192.24" style="stroke: #000000; stroke-width: 0.8"/>
      </g>
     </g>
     <g id="text_7">
      <!-- 0.0 -->
      <g transform="translate(67.096875 196.039219) scale(0.1 -0.1)">
       <defs>
        <path id="DejaVuSans-2e" d="M 684 794 
L 1344 794 
L 1344 0 
L 684 0 
L 684 794 
z
" transform="scale(0.015625)"/>
       </defs>
       <use xlink:href="#DejaVuSans-30"/>
       <use xlink:href="#DejaVuSans-2e" x="63.623047"/>
       <use xlink:href="#DejaVuSans-30" x="95.410156"/>
      </g>
     </g>
    </g>
    <g id="ytick_2">
     <g id="line2d_9">
      <g>
       <use xlink:href="#m25d02c3793" x="90" y="167.434066" style="stroke: #000000; stroke-width: 0.8"/>
      </g>
     </g>
     <g id="text_8">
      <!-- 0.2 -->
      <g transform="translate(67.096875 171.233285) scale(0.1 -0.1)">
       <use xlink:href="#DejaVuSans-30"/>
       <use xlink:href="#DejaVuSans-2e" x="63.623047"/>
       <use xlink:href="#DejaVuSans-32" x="95.410156"/>
      </g>
     </g>
    </g>
    <g id="ytick_3">
     <g id="line2d_10">
      <g>
       <use xlink:href="#m25d02c3793" x="90" y="142.628132" style="stroke: #000000; stroke-width: 0.8"/>
      </g>
     </g>
     <g id="text_9">
      <!-- 0.4 -->
      <g transform="translate(67.096875 146.42735) scale(0.1 -0.1)">
       <defs>
        <path id="DejaVuSans-34" d="M 2419 4116 
L 825 1625 
L 2419 1625 
L 2419 4116 
z
M 2253 4666 
L 3047 4666 
L 3047 1625 
L 3713 1625 
L 3713 1100 
L 3047 1100 
L 3047 0 
L 2419 0 
L 2419 1100 
L 313 1100 
L 313 1709 
L 2253 4666 
z
" transform="scale(0.015625)"/>
       </defs>
       <use xlink:href="#DejaVuSans-30"/>
       <use xlink:href="#DejaVuSans-2e" x="63.623047"/>
       <use xlink:href="#DejaVuSans-34" x="95.410156"/>
      </g>
     </g>
    </g>
    <g id="ytick_4">
     <g id="line2d_11">
      <g>
       <use xlink:href="#m25d02c3793" x="90" y="117.822197" style="stroke: #000000; stroke-width: 0.8"/>
      </g>
     </g>
     <g id="text_10">
      <!-- 0.6 -->
      <g transform="translate(67.096875 121.621416) scale(0.1 -0.1)">
       <defs>
        <path id="DejaVuSans-36" d="M 2113 2584 
Q 1688 2584 1439 2293 
Q 1191 2003 1191 1497 
Q 1191 994 1439 701 
Q 1688 409 2113 409 
Q 2538 409 2786 701 
Q 3034 994 3034 1497 
Q 3034 2003 2786 2293 
Q 2538 2584 2113 2584 
z
M 3366 4563 
L 3366 3988 
Q 3128 4100 2886 4159 
Q 2644 4219 2406 4219 
Q 1781 4219 1451 3797 
Q 1122 3375 1075 2522 
Q 1259 2794 1537 2939 
Q 1816 3084 2150 3084 
Q 2853 3084 3261 2657 
Q 3669 2231 3669 1497 
Q 3669 778 3244 343 
Q 2819 -91 2113 -91 
Q 1303 -91 875 529 
Q 447 1150 447 2328 
Q 447 3434 972 4092 
Q 1497 4750 2381 4750 
Q 2619 4750 2861 4703 
Q 3103 4656 3366 4563 
z
" transform="scale(0.015625)"/>
       </defs>
       <use xlink:href="#DejaVuSans-30"/>
       <use xlink:href="#DejaVuSans-2e" x="63.623047"/>
       <use xlink:href="#DejaVuSans-36" x="95.410156"/>
      </g>
     </g>
    </g>
    <g id="ytick_5">
     <g id="line2d_12">
      <g>
       <use xlink:href="#m25d02c3793" x="90" y="93.016263" style="stroke: #000000; stroke-width: 0.8"/>
      </g>
     </g>
     <g id="text_11">
      <!-- 0.8 -->
      <g transform="translate(67.096875 96.815482) scale(0.1 -0.1)">
       <defs>
        <path id="DejaVuSans-38" d="M 2034 2216 
Q 1584 2216 1326 1975 
Q 1069 1734 1069 1313 
Q 1069 891 1326 650 
Q 1584 409 2034 409 
Q 2484 409 2743 651 
Q 3003 894 3003 1313 
Q 3003 1734 2745 1975 
Q 2488 2216 2034 2216 
z
M 1403 2484 
Q 997 2584 770 2862 
Q 544 3141 544 3541 
Q 544 4100 942 4425 
Q 1341 4750 2034 4750 
Q 2731 4750 3128 4425 
Q 3525 4100 3525 3541 
Q 3525 3141 3298 2862 
Q 3072 2584 2669 2484 
Q 3125 2378 3379 2068 
Q 3634 1759 3634 1313 
Q 3634 634 3220 271 
Q 2806 -91 2034 -91 
Q 1263 -91 848 271 
Q 434 634 434 1313 
Q 434 1759 690 2068 
Q 947 2378 1403 2484 
z
M 1172 3481 
Q 1172 3119 1398 2916 
Q 1625 2713 2034 2713 
Q 2441 2713 2670 2916 
Q 2900 3119 2900 3481 
Q 2900 3844 2670 4047 
Q 2441 4250 2034 4250 
Q 1625 4250 1398 4047 
Q 1172 3844 1172 3481 
z
" transform="scale(0.015625)"/>
       </defs>
       <use xlink:href="#DejaVuSans-30"/>
       <use xlink:href="#DejaVuSans-2e" x="63.623047"/>
       <use xlink:href="#DejaVuSans-38" x="95.410156"/>
      </g>
     </g>
    </g>
    <g id="ytick_6">
     <g id="line2d_13">
      <g>
       <use xlink:href="#m25d02c3793" x="90" y="68.210329" style="stroke: #000000; stroke-width: 0.8"/>
      </g>
     </g>
     <g id="text_12">
      <!-- 1.0 -->
      <g transform="translate(67.096875 72.009548) scale(0.1 -0.1)">
       <use xlink:href="#DejaVuSans-31"/>
       <use xlink:href="#DejaVuSans-2e" x="63.623047"/>
       <use xlink:href="#DejaVuSans-30" x="95.410156"/>
      </g>
     </g>
    </g>
    <g id="ytick_7">
     <g id="line2d_14">
      <g>
       <use xlink:href="#m25d02c3793" x="90" y="43.404395" style="stroke: #000000; stroke-width: 0.8"/>
      </g>
     </g>
     <g id="text_13">
      <!-- 1.2 -->
      <g transform="translate(67.096875 47.203613) scale(0.1 -0.1)">
       <use xlink:href="#DejaVuSans-31"/>
       <use xlink:href="#DejaVuSans-2e" x="63.623047"/>
       <use xlink:href="#DejaVuSans-32" x="95.410156"/>
      </g>
     </g>
    </g>
   </g>
  </g>
 </g>
 <defs>
  <clipPath id="pb40d287f4e">
   <rect x="90" y="25.92" width="558" height="166.32"/>
  </clipPath>
 </defs>
</svg>
