<?xml version="1.0" encoding="utf-8" standalone="no"?>
<!DOCTYPE svg PUBLIC "-//W3C//DTD SVG 1.1//EN"
  "http://www.w3.org/Graphics/SVG/1.1/DTD/svg11.dtd">
<svg xmlns:xlink="http://www.w3.org/1999/xlink" width="720pt" height="216pt" viewBox="0 0 720 216" xmlns="http://www.w3.org/2000/svg" version="1.1">
 <metadata>
  <rdf:RDF xmlns:dc="http://purl.org/dc/elements/1.1/" xmlns:cc="http://creativecommons.org/ns#" xmlns:rdf="http://www.w3.org/1999/02/22-rdf-syntax-ns#">
   <cc:Work>
    <dc:type rdf:resource="http://purl.org/dc/dcmitype/StillImage"/>
    <dc:date>2025-12-17T10:23:03.108486</dc:date>
    <dc:format>image/svg+xml</dc:format>
    <dc:creator>
     <cc:Agent>
      <dc:title>Matplotlib v3.8.2, https://matplotlib.org/</dc:title>
     </cc:Agent>
    </dc:creator>
   </cc:Work>
  </rdf:RDF>
 </metadata>
 <defs>
  <style type="text/css">*{stroke-linejoin: round; stroke-linecap: butt}</style>
 </defs>
 <g id="figure_1">
  <g id="patch_1">
   <path d="M 0 216 
L 720 216 
L 720 0 
L 0 0 
z
" style="fill: #ffffff"/>
  </g>
  <g id="axes_1">
   <g id="patch_2">
    <path d="M 90 192.24 
L 648 192.24 
L 648 25.92 
L 90 25.92 
z
" style="fill: #ffffff"/>
   </g>
   <g id="line2d_1">
    <path d="M 90 192.24 
L 648 192.24 
" clip-path="url(#p64dfcc9f82)" style="fill: none; stroke: #000000; stroke-width: 0.5; stroke-linecap: square"/>
   </g>
   <g id="patch_3">
    <path d="M 107.699499 192.059596 
Q 106.218967 192.149018 104.618029 192.194249 
Q 103.017092 192.24 101.273453 192.24 
Q 96.073751 192.24 93.036876 191.901028 
Q 90 191.562057 90 190.982374 
Q 90 190.400611 93.036876 190.06216 
Q 96.073751 189.723188 101.273453 189.723188 
Q 103.017092 189.723188 104.618029 189.768939 
Q 106.218967 189.81417 107.699499 189.903592 
L 107.699499 190.40529 
Q 106.205588 190.286754 104.756272 190.231645 
Q 103.306955 190.176536 101.706018 190.176536 
Q 98.834142 190.176536 97.18861 190.391253 
Q 95.547538 190.60545 95.547538 190.982374 
Q 95.547538 191.357738 97.18861 191.572455 
Q 98.834142 191.786651 101.706018 191.786651 
Q 103.306955 191.786651 104.756272 191.731543 
Q 106.205588 191.675914 107.699499 191.557378 
L 107.699499 192.059596 
z
" clip-path="url(#p64dfcc9f82)" style="fill: #0000ff"/>
   </g>
   <g id="patch_4">
    <path d="M 102.260459 188.806218 
L 95.453516 188.806218 
L 94.378735 189.723188 
L 90 189.723188 
L 96.253268 184.689564 
L 101.446231 184.689564 
L 107.699499 189.723188 
L 103.324383 189.723188 
L 102.260459 188.806218 
z
M 96.539153 187.871988 
L 101.163965 187.871988 
L 98.855178 185.869758 
L 96.539153 187.871988 
z
" clip-path="url(#p64dfcc9f82)" style="fill: #008000"/>
   </g>
   <g id="patch_5">
    <path d="M 90 179.65594 
L 107.699499 179.65594 
L 107.699499 180.637637 
L 101.331796 180.637637 
L 101.331796 184.689564 
L 96.380052 184.689564 
L 96.380052 180.637637 
L 90 180.637637 
L 90 179.65594 
z
" clip-path="url(#p64dfcc9f82)" style="fill: #ff0000"/>
   </g>
   <g id="patch_6">
    <path d="M 107.699499 178.346584 
Q 105.914476 179.001262 103.994584 179.330095 
Q 102.074692 179.65594 100.027865 179.65594 
Q 95.402671 179.65594 92.701335 177.706853 
Q 90 175.757766 90 172.424589 
Q 90 169.05255 92.748936 167.11841 
Q 95.501839 165.18427 100.289668 165.18427 
Q 102.134193 165.18427 103.824015 165.447337 
Q 105.517804 165.707415 107.017224 166.221591 
L 107.017224 169.106359 
Q 105.470203 168.445702 103.93905 168.119858 
Q 102.407896 167.791024 100.868809 167.791024 
Q 98.020705 167.791024 96.477652 168.992762 
Q 94.934598 170.19151 94.934598 172.424589 
Q 94.934598 174.636743 96.422118 175.844459 
Q 97.909637 177.049186 100.646673 177.049186 
Q 101.392416 177.049186 102.031058 176.98043 
Q 102.6697 176.908684 103.17744 176.759214 
L 103.17744 174.050821 
L 100.261901 174.050821 
L 100.261901 171.638378 
L 107.699499 171.638378 
L 107.699499 178.346584 
z
" clip-path="url(#p64dfcc9f82)" style="fill: #ffa600"/>
   </g>
   <g id="patch_7">
    <path d="M 126.330551 192.083238 
Q 124.850018 192.160941 123.249081 192.200245 
Q 121.648144 192.24 119.904504 192.24 
Q 114.704803 192.24 111.667927 191.94545 
Q 108.631052 191.650901 108.631052 191.147185 
Q 108.631052 190.641662 111.667927 190.347564 
Q 114.704803 190.053014 119.904504 190.053014 
Q 121.648144 190.053014 123.249081 190.09277 
Q 124.850018 190.132073 126.330551 190.209776 
L 126.330551 190.645728 
Q 124.83664 190.542726 123.387324 190.494839 
Q 121.938007 190.446952 120.33707 190.446952 
Q 117.465193 190.446952 115.819662 190.63353 
Q 114.178589 190.819657 114.178589 191.147185 
Q 114.178589 191.473358 115.819662 191.659936 
Q 117.465193 191.846063 120.33707 191.846063 
Q 121.938007 191.846063 123.387324 191.798176 
Q 124.83664 191.749837 126.330551 191.646835 
L 126.330551 192.083238 
z
" clip-path="url(#p64dfcc9f82)" style="fill: #0000ff"/>
   </g>
   <g id="patch_8">
    <path d="M 108.631052 187.866029 
L 126.330551 187.866029 
L 126.330551 188.292552 
L 119.962847 188.292552 
L 119.962847 190.053014 
L 115.011104 190.053014 
L 115.011104 188.292552 
L 108.631052 188.292552 
L 108.631052 187.866029 
z
" clip-path="url(#p64dfcc9f82)" style="fill: #ff0000"/>
   </g>
   <g id="patch_9">
    <path d="M 126.330551 186.381987 
Q 124.545527 187.124008 122.625636 187.496712 
Q 120.705744 187.866029 118.658917 187.866029 
Q 114.033723 187.866029 111.332387 185.656907 
Q 108.631052 183.447785 108.631052 179.669915 
Q 108.631052 175.847999 111.379988 173.655818 
Q 114.132891 171.463637 118.92072 171.463637 
Q 120.765244 171.463637 122.455067 171.761801 
Q 124.148856 172.056576 125.648275 172.639351 
L 125.648275 175.908987 
Q 124.101255 175.160189 122.570102 174.790873 
Q 121.038948 174.418168 119.499861 174.418168 
Q 116.651757 174.418168 115.108704 175.780234 
Q 113.56565 177.138912 113.56565 179.669915 
Q 113.56565 182.177201 115.053169 183.546043 
Q 116.540689 184.911498 119.277725 184.911498 
Q 120.023468 184.911498 120.66211 184.833569 
Q 121.300752 184.752251 121.808492 184.58284 
L 121.808492 181.513109 
L 118.892953 181.513109 
L 118.892953 178.778813 
L 126.330551 178.778813 
L 126.330551 186.381987 
z
" clip-path="url(#p64dfcc9f82)" style="fill: #ffa600"/>
   </g>
   <g id="patch_10">
    <path d="M 120.89151 158.117213 
L 114.084567 158.117213 
L 113.009787 171.463637 
L 108.631052 171.463637 
L 114.88432 98.199621 
L 120.077283 98.199621 
L 126.330551 171.463637 
L 121.955434 171.463637 
L 120.89151 158.117213 
z
M 115.170204 144.519563 
L 119.795017 144.519563 
L 117.48623 115.377254 
L 115.170204 144.519563 
z
" clip-path="url(#p64dfcc9f82)" style="fill: #008000"/>
   </g>
   <g id="patch_11">
    <path d="M 144.961603 192.104759 
Q 143.176579 192.172379 141.256687 192.206344 
Q 139.336795 192.24 137.289969 192.24 
Q 132.664774 192.24 129.963439 192.038682 
Q 127.262104 191.837364 127.262104 191.493085 
Q 127.262104 191.144792 130.01104 190.945018 
Q 132.763942 190.745243 137.551772 190.745243 
Q 139.396296 190.745243 141.086118 190.772415 
Q 142.779907 190.799278 144.279327 190.852387 
L 144.279327 191.15035 
Q 142.732307 191.082112 141.201153 191.048456 
Q 139.67 191.014491 138.130913 191.014491 
Q 135.282809 191.014491 133.739755 191.138617 
Q 132.196702 191.262434 132.196702 191.493085 
Q 132.196702 191.721575 133.684221 191.846318 
Q 135.171741 191.970752 137.908777 191.970752 
Q 138.65452 191.970752 139.293162 191.963651 
Q 139.931803 191.95624 140.439543 191.940802 
L 140.439543 191.661056 
L 137.524005 191.661056 
L 137.524005 191.411878 
L 144.961603 191.411878 
L 144.961603 192.104759 
z
" clip-path="url(#p64dfcc9f82)" style="fill: #ffa600"/>
   </g>
   <g id="patch_12">
    <path d="M 139.522562 190.019115 
L 132.715619 190.019115 
L 131.640839 190.745243 
L 127.262104 190.745243 
L 133.515372 186.759226 
L 138.708335 186.759226 
L 144.961603 190.745243 
L 140.586486 190.745243 
L 139.522562 190.019115 
z
M 133.801256 189.279318 
L 138.426069 189.279318 
L 136.117281 187.693796 
L 133.801256 189.279318 
z
" clip-path="url(#p64dfcc9f82)" style="fill: #008000"/>
   </g>
   <g id="patch_13">
    <path d="M 144.961603 185.437792 
Q 143.48107 186.092797 141.880133 186.424107 
Q 140.279195 186.759226 138.535556 186.759226 
Q 133.335855 186.759226 130.298979 184.276302 
Q 127.262104 181.793377 127.262104 177.547272 
Q 127.262104 173.285935 130.298979 170.806819 
Q 133.335855 168.323894 138.535556 168.323894 
Q 140.279195 168.323894 141.880133 168.659013 
Q 143.48107 168.990323 144.961603 169.645328 
L 144.961603 173.320208 
Q 143.467692 172.451946 142.018375 172.048281 
Q 140.569059 171.644615 138.968121 171.644615 
Q 136.096245 171.644615 134.450713 173.217388 
Q 132.809641 174.786352 132.809641 177.547272 
Q 132.809641 180.296768 134.450713 181.869541 
Q 136.096245 183.438505 138.968121 183.438505 
Q 140.569059 183.438505 142.018375 183.03484 
Q 143.467692 182.627366 144.961603 181.759104 
L 144.961603 185.437792 
z
" clip-path="url(#p64dfcc9f82)" style="fill: #0000ff"/>
   </g>
   <g id="patch_14">
    <path d="M 127.262104 149.390311 
L 144.961603 149.390311 
L 144.961603 153.082887 
L 138.593899 153.082887 
L 138.593899 168.323894 
L 133.642156 168.323894 
L 133.642156 153.082887 
L 127.262104 153.082887 
L 127.262104 149.390311 
z
" clip-path="url(#p64dfcc9f82)" style="fill: #ff0000"/>
   </g>
   <g id="patch_15">
    <path d="M 158.153614 191.765149 
L 151.346671 191.765149 
L 150.27189 192.24 
L 145.893155 192.24 
L 152.146423 189.633347 
L 157.339386 189.633347 
L 163.592654 192.24 
L 159.217538 192.24 
L 158.153614 191.765149 
z
M 152.432308 191.28136 
L 157.057121 191.28136 
L 154.748333 190.244508 
L 152.432308 191.28136 
z
" clip-path="url(#p64dfcc9f82)" style="fill: #008000"/>
   </g>
   <g id="patch_16">
    <path d="M 163.592654 189.409135 
Q 162.112122 189.520272 160.511185 189.576486 
Q 158.910247 189.633347 157.166608 189.633347 
Q 151.966906 189.633347 148.930031 189.212061 
Q 145.893155 188.790775 145.893155 188.070324 
Q 145.893155 187.347289 148.930031 186.926649 
Q 151.966906 186.505363 157.166608 186.505363 
Q 158.910247 186.505363 160.511185 186.562224 
Q 162.112122 186.618439 163.592654 186.729575 
L 163.592654 187.353104 
Q 162.098744 187.205784 160.649427 187.137292 
Q 159.200111 187.068801 157.599173 187.068801 
Q 154.727297 187.068801 153.081765 187.335659 
Q 151.440693 187.60187 151.440693 188.070324 
Q 151.440693 188.53684 153.081765 188.803698 
Q 154.727297 189.069909 157.599173 189.069909 
Q 159.200111 189.069909 160.649427 189.001418 
Q 162.098744 188.932281 163.592654 188.78496 
L 163.592654 189.409135 
z
" clip-path="url(#p64dfcc9f82)" style="fill: #0000ff"/>
   </g>
   <g id="patch_17">
    <path d="M 163.592654 185.184645 
Q 161.807631 185.845004 159.887739 186.176691 
Q 157.967847 186.505363 155.92102 186.505363 
Q 151.295826 186.505363 148.594491 184.539362 
Q 145.893155 182.573361 145.893155 179.211258 
Q 145.893155 175.809956 148.642091 173.859031 
Q 151.394994 171.908107 156.182824 171.908107 
Q 158.027348 171.908107 159.71717 172.173457 
Q 161.410959 172.435791 162.910379 172.954429 
L 162.910379 175.864232 
Q 161.363358 175.197842 159.832205 174.86917 
Q 158.301052 174.537482 156.761965 174.537482 
Q 153.913861 174.537482 152.370807 175.749649 
Q 150.827753 176.9588 150.827753 179.211258 
Q 150.827753 181.442609 152.315273 182.660806 
Q 153.802792 183.875988 156.539828 183.875988 
Q 157.285572 183.875988 157.924213 183.806635 
Q 158.562855 183.734267 159.070595 183.5835 
L 159.070595 180.851603 
L 156.155057 180.851603 
L 156.155057 178.418224 
L 163.592654 178.418224 
L 163.592654 185.184645 
z
" clip-path="url(#p64dfcc9f82)" style="fill: #ffa600"/>
   </g>
   <g id="patch_18">
    <path d="M 145.893155 147.405569 
L 163.592654 147.405569 
L 163.592654 152.184246 
L 157.224951 152.184246 
L 157.224951 171.908107 
L 152.273207 171.908107 
L 152.273207 152.184246 
L 145.893155 152.184246 
L 145.893155 147.405569 
z
" clip-path="url(#p64dfcc9f82)" style="fill: #ff0000"/>
   </g>
   <g id="patch_19">
    <path d="M 182.223706 191.963956 
Q 180.743174 192.100785 179.142236 192.169995 
Q 177.541299 192.24 175.79766 192.24 
Q 170.597958 192.24 167.561083 191.721323 
Q 164.524207 191.202646 164.524207 190.315645 
Q 164.524207 189.425462 167.561083 188.90758 
Q 170.597958 188.388903 175.79766 188.388903 
Q 177.541299 188.388903 179.142236 188.458909 
Q 180.743174 188.528119 182.223706 188.664948 
L 182.223706 189.432621 
Q 180.729795 189.251244 179.280479 189.166919 
Q 177.831162 189.082594 176.230225 189.082594 
Q 173.358349 189.082594 171.712817 189.411142 
Q 170.071745 189.738895 170.071745 190.315645 
Q 170.071745 190.890008 171.712817 191.218556 
Q 173.358349 191.546309 176.230225 191.546309 
Q 177.831162 191.546309 179.280479 191.461985 
Q 180.729795 191.376864 182.223706 191.195487 
L 182.223706 191.963956 
z
" clip-path="url(#p64dfcc9f82)" style="fill: #0000ff"/>
   </g>
   <g id="patch_20">
    <path d="M 164.524207 182.612259 
L 182.223706 182.612259 
L 182.223706 183.738865 
L 175.856003 183.738865 
L 175.856003 188.388903 
L 170.904259 188.388903 
L 170.904259 183.738865 
L 164.524207 183.738865 
L 164.524207 182.612259 
z
" clip-path="url(#p64dfcc9f82)" style="fill: #ff0000"/>
   </g>
   <g id="patch_21">
    <path d="M 182.223706 181.828277 
Q 180.438683 182.220268 178.518791 182.417158 
Q 176.598899 182.612259 174.552072 182.612259 
Q 169.926878 182.612259 167.225542 181.445235 
Q 164.524207 180.278212 164.524207 178.28246 
Q 164.524207 176.263438 167.273143 175.105365 
Q 170.026046 173.947291 174.813876 173.947291 
Q 176.6584 173.947291 178.348222 174.104804 
Q 180.042011 174.260526 181.541431 174.568391 
L 181.541431 176.295657 
Q 179.99441 175.900086 178.463257 175.704985 
Q 176.932103 175.508095 175.393016 175.508095 
Q 172.544912 175.508095 171.001859 176.22764 
Q 169.458805 176.945395 169.458805 178.28246 
Q 169.458805 179.606995 170.946325 180.33012 
Q 172.433844 181.051455 175.17088 181.051455 
Q 175.916623 181.051455 176.555265 181.010287 
Q 177.193907 180.967329 177.701647 180.877833 
L 177.701647 179.256172 
L 174.786108 179.256172 
L 174.786108 177.811713 
L 182.223706 177.811713 
L 182.223706 181.828277 
z
" clip-path="url(#p64dfcc9f82)" style="fill: #ffa600"/>
   </g>
   <g id="patch_22">
    <path d="M 176.784666 162.196329 
L 169.977723 162.196329 
L 168.902942 173.947291 
L 164.524207 173.947291 
L 170.777475 109.441423 
L 175.970438 109.441423 
L 182.223706 173.947291 
L 177.84859 173.947291 
L 176.784666 162.196329 
z
M 171.06336 150.224173 
L 175.688172 150.224173 
L 173.379385 124.565602 
L 171.06336 150.224173 
z
" clip-path="url(#p64dfcc9f82)" style="fill: #008000"/>
   </g>
   <g id="patch_23">
    <path d="M 200.854758 192.058202 
Q 199.374225 192.148315 197.773288 192.193896 
Q 196.172351 192.24 194.428711 192.24 
Q 189.22901 192.24 186.192134 191.898408 
Q 183.155259 191.556817 183.155259 190.972654 
Q 183.155259 190.386395 186.192134 190.045327 
Q 189.22901 189.703735 194.428711 189.703735 
Q 196.172351 189.703735 197.773288 189.74984 
Q 199.374225 189.79542 200.854758 189.885533 
L 200.854758 190.39111 
Q 199.360847 190.271658 197.911531 190.216123 
Q 196.462214 190.160588 194.861277 190.160588 
Q 191.9894 190.160588 190.343869 190.376964 
Q 188.702796 190.592816 188.702796 190.972654 
Q 188.702796 191.350919 190.343869 191.567295 
Q 191.9894 191.783148 194.861277 191.783148 
Q 196.462214 191.783148 197.911531 191.727613 
Q 199.360847 191.671554 200.854758 191.552102 
L 200.854758 192.058202 
z
" clip-path="url(#p64dfcc9f82)" style="fill: #0000ff"/>
   </g>
   <g id="patch_24">
    <path d="M 195.415717 189.164702 
L 188.608774 189.164702 
L 187.533994 189.703735 
L 183.155259 189.703735 
L 189.408527 186.74476 
L 194.60149 186.74476 
L 200.854758 189.703735 
L 196.479641 189.703735 
L 195.415717 189.164702 
z
M 189.694411 188.615522 
L 194.319224 188.615522 
L 192.010437 187.438528 
L 189.694411 188.615522 
z
" clip-path="url(#p64dfcc9f82)" style="fill: #008000"/>
   </g>
   <g id="patch_25">
    <path d="M 200.854758 185.520899 
Q 199.069734 186.132829 197.149843 186.440192 
Q 195.229951 186.74476 193.183124 186.74476 
Q 188.55793 186.74476 185.856594 184.922939 
Q 183.155259 183.101117 183.155259 179.985579 
Q 183.155259 176.833716 185.904195 175.025866 
Q 188.657098 173.218016 193.444927 173.218016 
Q 195.289451 173.218016 196.979274 173.463906 
Q 198.673063 173.707002 200.172482 174.187605 
L 200.172482 176.884012 
Q 198.625462 176.266493 197.094309 175.961925 
Q 195.563155 175.654562 194.024068 175.654562 
Q 191.175964 175.654562 189.632911 176.777832 
Q 188.089857 177.898308 188.089857 179.985579 
Q 188.089857 182.053291 189.577376 183.182149 
Q 191.064896 184.308214 193.801932 184.308214 
Q 194.547675 184.308214 195.186317 184.243947 
Q 195.824959 184.176886 196.332699 184.037176 
L 196.332699 181.505627 
L 193.41716 181.505627 
L 193.41716 179.250703 
L 200.854758 179.250703 
L 200.854758 185.520899 
z
" clip-path="url(#p64dfcc9f82)" style="fill: #ffa600"/>
   </g>
   <g id="patch_26">
    <path d="M 183.155259 155.886875 
L 200.854758 155.886875 
L 200.854758 159.26693 
L 194.487054 159.26693 
L 194.487054 173.218016 
L 189.535311 173.218016 
L 189.535311 159.26693 
L 183.155259 159.26693 
L 183.155259 155.886875 
z
" clip-path="url(#p64dfcc9f82)" style="fill: #ff0000"/>
   </g>
   <g id="patch_27">
    <path d="M 219.48581 192.014519 
Q 218.005277 192.126285 216.40434 192.182817 
Q 214.803402 192.24 213.059763 192.24 
Q 207.860062 192.24 204.823186 191.816329 
Q 201.786311 191.392658 201.786311 190.668128 
Q 201.786311 189.941 204.823186 189.517978 
Q 207.860062 189.094307 213.059763 189.094307 
Q 214.803402 189.094307 216.40434 189.15149 
Q 218.005277 189.208023 219.48581 189.319789 
L 219.48581 189.946848 
Q 217.991899 189.798693 216.542582 189.729814 
Q 215.093266 189.660935 213.492328 189.660935 
Q 210.620452 189.660935 208.97492 189.929303 
Q 207.333848 190.197022 207.333848 190.668128 
Q 207.333848 191.137286 208.97492 191.405654 
Q 210.620452 191.673372 213.492328 191.673372 
Q 215.093266 191.673372 216.542582 191.604493 
Q 217.991899 191.534965 219.48581 191.38681 
L 219.48581 192.014519 
z
" clip-path="url(#p64dfcc9f82)" style="fill: #0000ff"/>
   </g>
   <g id="patch_28">
    <path d="M 219.48581 188.240467 
Q 217.700786 188.667387 215.780894 188.881822 
Q 213.861002 189.094307 211.814176 189.094307 
Q 207.188981 189.094307 204.487646 187.823294 
Q 201.786311 186.552281 201.786311 184.378692 
Q 201.786311 182.179761 204.535247 180.918495 
Q 207.288149 179.657229 212.075979 179.657229 
Q 213.920503 179.657229 215.610325 179.828777 
Q 217.304114 179.998375 218.803534 180.333673 
L 218.803534 182.214851 
Q 217.256514 181.784032 215.72536 181.571547 
Q 214.194207 181.357112 212.65512 181.357112 
Q 209.807016 181.357112 208.263962 182.140773 
Q 206.720909 182.922485 206.720909 184.378692 
Q 206.720909 185.821253 208.208428 186.608814 
Q 209.695948 187.394425 212.432984 187.394425 
Q 213.178727 187.394425 213.817369 187.349588 
Q 214.45601 187.302802 214.96375 187.205332 
L 214.96375 185.43917 
L 212.048212 185.43917 
L 212.048212 183.865998 
L 219.48581 183.865998 
L 219.48581 188.240467 
z
" clip-path="url(#p64dfcc9f82)" style="fill: #ffa600"/>
   </g>
   <g id="patch_29">
    <path d="M 214.046769 157.308383 
L 207.239826 157.308383 
L 206.165046 179.657229 
L 201.786311 179.657229 
L 208.039579 56.975213 
L 213.232542 56.975213 
L 219.48581 179.657229 
L 215.110693 179.657229 
L 214.046769 157.308383 
z
M 208.325463 134.538854 
L 212.950276 134.538854 
L 210.641488 85.739492 
L 208.325463 134.538854 
z
" clip-path="url(#p64dfcc9f82)" style="fill: #008000"/>
   </g>
   <g id="patch_30">
    <path d="M 220.417362 188.696795 
L 238.116861 188.696795 
L 238.116861 189.387819 
L 231.749158 189.387819 
L 231.749158 192.24 
L 226.797414 192.24 
L 226.797414 189.387819 
L 220.417362 189.387819 
L 220.417362 188.696795 
z
" clip-path="url(#p64dfcc9f82)" style="fill: #ff0000"/>
   </g>
   <g id="patch_31">
    <path d="M 238.116861 188.162497 
Q 236.331838 188.429646 234.411946 188.563831 
Q 232.492054 188.696795 230.445227 188.696795 
Q 225.820033 188.696795 223.118698 187.901447 
Q 220.417362 187.106098 220.417362 185.745954 
Q 220.417362 184.369953 223.166298 183.580703 
Q 225.919201 182.791454 230.707031 182.791454 
Q 232.551555 182.791454 234.241377 182.898802 
Q 235.935166 183.004929 237.434586 183.214745 
L 237.434586 184.39191 
Q 235.887565 184.122321 234.356412 183.989356 
Q 232.825259 183.855172 231.286172 183.855172 
Q 228.438068 183.855172 226.895014 184.345555 
Q 225.35196 184.834719 225.35196 185.745954 
Q 225.35196 186.648651 226.83948 187.141474 
Q 228.327 187.633077 231.064035 187.633077 
Q 231.809779 187.633077 232.44842 187.605021 
Q 233.087062 187.575744 233.594802 187.514751 
L 233.594802 186.409558 
L 230.679264 186.409558 
L 230.679264 185.425131 
L 238.116861 185.425131 
L 238.116861 188.162497 
z
" clip-path="url(#p64dfcc9f82)" style="fill: #ffa600"/>
   </g>
   <g id="patch_32">
    <path d="M 238.116861 182.283504 
Q 236.636329 182.535283 235.035392 182.662637 
Q 233.434454 182.791454 231.690815 182.791454 
Q 226.491113 182.791454 223.454238 181.837036 
Q 220.417362 180.882617 220.417362 179.250445 
Q 220.417362 177.612417 223.454238 176.659463 
Q 226.491113 175.705044 231.690815 175.705044 
Q 233.434454 175.705044 235.035392 175.833862 
Q 236.636329 175.961215 238.116861 176.212994 
L 238.116861 177.625592 
Q 236.622951 177.291838 235.173634 177.136672 
Q 233.724318 176.981506 232.12338 176.981506 
Q 229.251504 176.981506 227.605972 177.586068 
Q 225.9649 178.189167 225.9649 179.250445 
Q 225.9649 180.307331 227.605972 180.911894 
Q 229.251504 181.514993 232.12338 181.514993 
Q 233.724318 181.514993 235.173634 181.359826 
Q 236.622951 181.203196 238.116861 180.869443 
L 238.116861 182.283504 
z
" clip-path="url(#p64dfcc9f82)" style="fill: #0000ff"/>
   </g>
   <g id="patch_33">
    <path d="M 232.677821 160.213965 
L 225.870878 160.213965 
L 224.796097 175.705044 
L 220.417362 175.705044 
L 226.67063 90.66813 
L 231.863593 90.66813 
L 238.116861 175.705044 
L 233.741745 175.705044 
L 232.677821 160.213965 
z
M 226.956515 144.431288 
L 231.581328 144.431288 
L 229.27254 110.60606 
L 226.956515 144.431288 
z
" clip-path="url(#p64dfcc9f82)" style="fill: #008000"/>
   </g>
   <g id="patch_34">
    <path d="M 239.048414 188.152256 
L 256.747913 188.152256 
L 256.747913 188.94948 
L 250.38021 188.94948 
L 250.38021 192.24 
L 245.428466 192.24 
L 245.428466 188.94948 
L 239.048414 188.94948 
L 239.048414 188.152256 
z
" clip-path="url(#p64dfcc9f82)" style="fill: #ff0000"/>
   </g>
   <g id="patch_35">
    <path d="M 256.747913 186.277012 
Q 255.267381 187.206528 253.666443 187.67669 
Q 252.065506 188.152256 250.321867 188.152256 
Q 245.122165 188.152256 242.08529 184.628741 
Q 239.048414 181.105227 239.048414 175.079584 
Q 239.048414 169.032324 242.08529 165.514213 
Q 245.122165 161.990698 250.321867 161.990698 
Q 252.065506 161.990698 253.666443 162.466265 
Q 255.267381 162.936427 256.747913 163.865943 
L 256.747913 169.080961 
Q 255.254002 167.848812 253.804686 167.275971 
Q 252.355369 166.703129 250.754432 166.703129 
Q 247.882556 166.703129 246.237024 168.935049 
Q 244.595952 171.161565 244.595952 175.079584 
Q 244.595952 178.98139 246.237024 181.21331 
Q 247.882556 183.439825 250.754432 183.439825 
Q 252.355369 183.439825 253.804686 182.866984 
Q 255.254002 182.288738 256.747913 181.056589 
L 256.747913 186.277012 
z
" clip-path="url(#p64dfcc9f82)" style="fill: #0000ff"/>
   </g>
   <g id="patch_36">
    <path d="M 256.747913 158.366193 
Q 254.96289 160.178445 253.042998 161.088709 
Q 251.123106 161.990698 249.076279 161.990698 
Q 244.451085 161.990698 241.74975 156.595316 
Q 239.048414 151.199933 239.048414 141.973168 
Q 239.048414 132.638825 241.79735 127.284818 
Q 244.550253 121.930812 249.338083 121.930812 
Q 251.182607 121.930812 252.872429 122.659023 
Q 254.566218 123.378959 256.065638 124.802281 
L 256.065638 132.787777 
Q 254.518617 130.958974 252.987464 130.056986 
Q 251.45631 129.146722 249.917223 129.146722 
Q 247.069119 129.146722 245.526066 132.473323 
Q 243.983012 135.791648 243.983012 141.973168 
Q 243.983012 148.096761 245.470532 151.439912 
Q 246.958051 154.774788 249.695087 154.774788 
Q 250.44083 154.774788 251.079472 154.58446 
Q 251.718114 154.385857 252.225854 153.972101 
L 252.225854 146.474836 
L 249.310315 146.474836 
L 249.310315 139.796809 
L 256.747913 139.796809 
L 256.747913 158.366193 
z
" clip-path="url(#p64dfcc9f82)" style="fill: #ffa600"/>
   </g>
   <g id="patch_37">
    <path d="M 275.378965 192.156268 
Q 273.898432 192.197772 272.297495 192.218765 
Q 270.696558 192.24 268.952919 192.24 
Q 263.753217 192.24 260.716341 192.082671 
Q 257.679466 191.925342 257.679466 191.656291 
Q 257.679466 191.386274 260.716341 191.229186 
Q 263.753217 191.071857 268.952919 191.071857 
Q 270.696558 191.071857 272.297495 191.093092 
Q 273.898432 191.114085 275.378965 191.155589 
L 275.378965 191.388445 
Q 273.885054 191.333429 272.435738 191.30785 
Q 270.986421 191.282272 269.385484 191.282272 
Q 266.513607 191.282272 264.868076 191.38193 
Q 263.227003 191.481347 263.227003 191.656291 
Q 263.227003 191.830511 264.868076 191.930168 
Q 266.513607 192.029585 269.385484 192.029585 
Q 270.986421 192.029585 272.435738 192.004007 
Q 273.885054 191.978187 275.378965 191.923171 
L 275.378965 192.156268 
z
" clip-path="url(#p64dfcc9f82)" style="fill: #0000ff"/>
   </g>
   <g id="patch_38">
    <path d="M 275.378965 190.596251 
Q 273.593941 190.834054 271.67405 190.953499 
Q 269.754158 191.071857 267.707331 191.071857 
Q 263.082137 191.071857 260.380801 190.363877 
Q 257.679466 189.655897 257.679466 188.445165 
Q 257.679466 187.220316 260.428402 186.517765 
Q 263.181305 185.815214 267.969134 185.815214 
Q 269.813659 185.815214 271.503481 185.91077 
Q 273.19727 186.00524 274.696689 186.192007 
L 274.696689 187.239861 
Q 273.149669 186.999886 271.618516 186.881528 
Q 270.087362 186.762083 268.548275 186.762083 
Q 265.700171 186.762083 264.157118 187.198599 
Q 262.614064 187.634028 262.614064 188.445165 
Q 262.614064 189.2487 264.101583 189.687387 
Q 265.589103 190.124988 268.326139 190.124988 
Q 269.071882 190.124988 269.710524 190.100014 
Q 270.349166 190.073953 270.856906 190.01966 
L 270.856906 189.035872 
L 267.941367 189.035872 
L 267.941367 188.159584 
L 275.378965 188.159584 
L 275.378965 190.596251 
z
" clip-path="url(#p64dfcc9f82)" style="fill: #ffa600"/>
   </g>
   <g id="patch_39">
    <path d="M 257.679466 170.629358 
L 275.378965 170.629358 
L 275.378965 173.591023 
L 269.011261 173.591023 
L 269.011261 185.815214 
L 264.059518 185.815214 
L 264.059518 173.591023 
L 257.679466 173.591023 
L 257.679466 170.629358 
z
" clip-path="url(#p64dfcc9f82)" style="fill: #ff0000"/>
   </g>
   <g id="patch_40">
    <path d="M 269.939924 165.415776 
L 263.132981 165.415776 
L 262.058201 170.629358 
L 257.679466 170.629358 
L 263.932734 142.009859 
L 269.125697 142.009859 
L 275.378965 170.629358 
L 271.003849 170.629358 
L 269.939924 165.415776 
z
M 264.218618 160.104055 
L 268.843431 160.104055 
L 266.534644 148.720045 
L 264.218618 160.104055 
z
" clip-path="url(#p64dfcc9f82)" style="fill: #008000"/>
   </g>
   <g id="patch_41">
    <path d="M 276.310518 186.792537 
L 294.010017 186.792537 
L 294.010017 187.854944 
L 287.642313 187.854944 
L 287.642313 192.24 
L 282.69057 192.24 
L 282.69057 187.854944 
L 276.310518 187.854944 
L 276.310518 186.792537 
z
" clip-path="url(#p64dfcc9f82)" style="fill: #ff0000"/>
   </g>
   <g id="patch_42">
    <path d="M 294.010017 184.821053 
Q 292.224993 185.806795 290.305101 186.301917 
Q 288.385209 186.792537 286.338383 186.792537 
Q 281.713188 186.792537 279.011853 183.857816 
Q 276.310518 180.923095 276.310518 175.904363 
Q 276.310518 170.827116 279.059454 167.9149 
Q 281.812356 165.002685 286.600186 165.002685 
Q 288.44471 165.002685 290.134532 165.398782 
Q 291.828321 165.790379 293.327741 166.564569 
L 293.327741 170.908136 
Q 291.780721 169.913391 290.249567 169.422771 
Q 288.718414 168.927649 287.179327 168.927649 
Q 284.331223 168.927649 282.788169 170.737094 
Q 281.245116 172.542037 281.245116 175.904363 
Q 281.245116 179.235181 282.732635 181.053627 
Q 284.220155 182.867573 286.957191 182.867573 
Q 287.702934 182.867573 288.341576 182.764048 
Q 288.980217 182.656021 289.487957 182.430966 
L 289.487957 178.352964 
L 286.572419 178.352964 
L 286.572419 174.720572 
L 294.010017 174.720572 
L 294.010017 184.821053 
z
" clip-path="url(#p64dfcc9f82)" style="fill: #ffa600"/>
   </g>
   <g id="patch_43">
    <path d="M 288.570976 157.772646 
L 281.764033 157.772646 
L 280.689253 165.002685 
L 276.310518 165.002685 
L 282.563786 125.314026 
L 287.756749 125.314026 
L 294.010017 165.002685 
L 289.6349 165.002685 
L 288.570976 157.772646 
z
M 282.84967 150.406513 
L 287.474483 150.406513 
L 285.165695 134.619511 
L 282.84967 150.406513 
z
" clip-path="url(#p64dfcc9f82)" style="fill: #008000"/>
   </g>
   <g id="patch_44">
    <path d="M 312.641068 192.056721 
Q 310.856045 192.14836 308.936153 192.194389 
Q 307.016261 192.24 304.969434 192.24 
Q 300.34424 192.24 297.642905 191.967173 
Q 294.941569 191.694346 294.941569 191.227779 
Q 294.941569 190.755771 297.690505 190.485037 
Q 300.443408 190.214302 305.231238 190.214302 
Q 307.075762 190.214302 308.765584 190.251125 
Q 310.459373 190.28753 311.958793 190.359503 
L 311.958793 190.763303 
Q 310.411772 190.670827 308.880619 190.625216 
Q 307.349466 190.579187 305.810379 190.579187 
Q 302.962275 190.579187 301.419221 190.747402 
Q 299.876167 190.915199 299.876167 191.227779 
Q 299.876167 191.537429 301.363687 191.706481 
Q 302.851207 191.875115 305.588242 191.875115 
Q 306.333986 191.875115 306.972627 191.865491 
Q 307.611269 191.855448 308.119009 191.834526 
L 308.119009 191.455413 
L 305.203471 191.455413 
L 305.203471 191.117727 
L 312.641068 191.117727 
L 312.641068 192.056721 
z
" clip-path="url(#p64dfcc9f82)" style="fill: #ffa600"/>
   </g>
   <g id="patch_45">
    <path d="M 312.641068 189.9723 
Q 311.160536 190.092255 309.559599 190.15293 
Q 307.958661 190.214302 306.215022 190.214302 
Q 301.01532 190.214302 297.978445 189.75959 
Q 294.941569 189.304879 294.941569 188.527266 
Q 294.941569 187.746864 297.978445 187.29285 
Q 301.01532 186.838138 306.215022 186.838138 
Q 307.958661 186.838138 309.559599 186.89951 
Q 311.160536 186.960185 312.641068 187.08014 
L 312.641068 187.753141 
Q 311.147158 187.594131 309.697841 187.520206 
Q 308.248525 187.44628 306.647587 187.44628 
Q 303.775711 187.44628 302.130179 187.734311 
Q 300.489107 188.021644 300.489107 188.527266 
Q 300.489107 189.030796 302.130179 189.318827 
Q 303.775711 189.60616 306.647587 189.60616 
Q 308.248525 189.60616 309.697841 189.532234 
Q 311.147158 189.457612 312.641068 189.298602 
L 312.641068 189.9723 
z
" clip-path="url(#p64dfcc9f82)" style="fill: #0000ff"/>
   </g>
   <g id="patch_46">
    <path d="M 307.202028 184.808533 
L 300.395085 184.808533 
L 299.320305 186.838138 
L 294.941569 186.838138 
L 301.194837 175.696798 
L 306.3878 175.696798 
L 312.641068 186.838138 
L 308.265952 186.838138 
L 307.202028 184.808533 
z
M 301.480722 182.740723 
L 306.105535 182.740723 
L 303.796747 178.30902 
L 301.480722 182.740723 
z
" clip-path="url(#p64dfcc9f82)" style="fill: #008000"/>
   </g>
   <g id="patch_47">
    <path d="M 294.941569 163.204993 
L 312.641068 163.204993 
L 312.641068 165.641243 
L 306.273365 165.641243 
L 306.273365 175.696798 
L 301.321621 175.696798 
L 301.321621 165.641243 
L 294.941569 165.641243 
L 294.941569 163.204993 
z
" clip-path="url(#p64dfcc9f82)" style="fill: #ff0000"/>
   </g>
   <g id="patch_48">
    <path d="M 331.27212 192.125775 
Q 329.791588 192.182394 328.19065 192.211032 
Q 326.589713 192.24 324.846074 192.24 
Q 319.646372 192.24 316.609497 192.025375 
Q 313.572621 191.81075 313.572621 191.443714 
Q 313.572621 191.075362 316.609497 190.861066 
Q 319.646372 190.646441 324.846074 190.646441 
Q 326.589713 190.646441 328.19065 190.675408 
Q 329.791588 190.704047 331.27212 190.760666 
L 331.27212 191.078325 
Q 329.778209 191.003272 328.328893 190.968378 
Q 326.879576 190.933485 325.278639 190.933485 
Q 322.406763 190.933485 320.761231 191.069437 
Q 319.120159 191.205059 319.120159 191.443714 
Q 319.120159 191.681382 320.761231 191.817333 
Q 322.406763 191.952955 325.278639 191.952955 
Q 326.879576 191.952955 328.328893 191.918062 
Q 329.778209 191.88284 331.27212 191.807787 
L 331.27212 192.125775 
z
" clip-path="url(#p64dfcc9f82)" style="fill: #0000ff"/>
   </g>
   <g id="patch_49">
    <path d="M 331.27212 190.50226 
Q 329.487097 190.57435 327.567205 190.61056 
Q 325.647313 190.646441 323.600486 190.646441 
Q 318.975292 190.646441 316.273957 190.431815 
Q 313.572621 190.21719 313.572621 189.850155 
Q 313.572621 189.47884 316.321557 189.265861 
Q 319.07446 189.052881 323.86229 189.052881 
Q 325.706814 189.052881 327.396636 189.081849 
Q 329.090425 189.110488 330.589845 189.167107 
L 330.589845 189.484765 
Q 329.042824 189.412016 327.511671 189.376136 
Q 325.980517 189.339926 324.44143 189.339926 
Q 321.593326 189.339926 320.050273 189.472256 
Q 318.507219 189.604257 318.507219 189.850155 
Q 318.507219 190.093748 319.994739 190.226736 
Q 321.482258 190.359396 324.219294 190.359396 
Q 324.965037 190.359396 325.603679 190.351825 
Q 326.242321 190.343924 326.750061 190.327465 
L 326.750061 190.029229 
L 323.834523 190.029229 
L 323.834523 189.76358 
L 331.27212 189.76358 
L 331.27212 190.50226 
z
" clip-path="url(#p64dfcc9f82)" style="fill: #ffa600"/>
   </g>
   <g id="patch_50">
    <path d="M 313.572621 161.962373 
L 331.27212 161.962373 
L 331.27212 167.245777 
L 324.904417 167.245777 
L 324.904417 189.052881 
L 319.952673 189.052881 
L 319.952673 167.245777 
L 313.572621 167.245777 
L 313.572621 161.962373 
z
" clip-path="url(#p64dfcc9f82)" style="fill: #ff0000"/>
   </g>
   <g id="patch_51">
    <path d="M 325.83308 154.995246 
L 319.026137 154.995246 
L 317.951356 161.962373 
L 313.572621 161.962373 
L 319.825889 123.716948 
L 325.018852 123.716948 
L 331.27212 161.962373 
L 326.897004 161.962373 
L 325.83308 154.995246 
z
M 320.111774 147.896974 
L 324.736586 147.896974 
L 322.427799 132.68405 
L 320.111774 147.896974 
z
" clip-path="url(#p64dfcc9f82)" style="fill: #008000"/>
   </g>
   <g id="patch_52">
    <path d="M 344.464131 191.538373 
L 337.657188 191.538373 
L 336.582408 192.24 
L 332.203673 192.24 
L 338.456941 188.38848 
L 343.649904 188.38848 
L 349.903172 192.24 
L 345.528056 192.24 
L 344.464131 191.538373 
z
M 338.742825 190.823539 
L 343.367638 190.823539 
L 341.058851 189.291516 
L 338.742825 190.823539 
z
" clip-path="url(#p64dfcc9f82)" style="fill: #008000"/>
   </g>
   <g id="patch_53">
    <path d="M 349.903172 188.040006 
Q 348.118149 188.214243 346.198257 188.301759 
Q 344.278365 188.38848 342.231538 188.38848 
Q 337.606344 188.38848 334.905008 187.869746 
Q 332.203673 187.351012 332.203673 186.463914 
Q 332.203673 185.566472 334.952609 185.051716 
Q 337.705512 184.536961 342.493341 184.536961 
Q 344.337866 184.536961 346.027688 184.606974 
Q 347.721477 184.676191 349.220896 184.813035 
L 349.220896 185.580793 
Q 347.673876 185.404965 346.142723 185.318244 
Q 344.611569 185.230727 343.072482 185.230727 
Q 340.224378 185.230727 338.681325 185.55056 
Q 337.138271 185.869597 337.138271 186.463914 
Q 337.138271 187.052661 338.62579 187.374085 
Q 340.11331 187.694713 342.850346 187.694713 
Q 343.596089 187.694713 344.234731 187.676415 
Q 344.873373 187.65732 345.381113 187.61754 
L 345.381113 186.896722 
L 342.465574 186.896722 
L 342.465574 186.25467 
L 349.903172 186.25467 
L 349.903172 188.040006 
z
" clip-path="url(#p64dfcc9f82)" style="fill: #ffa600"/>
   </g>
   <g id="patch_54">
    <path d="M 332.203673 174.633053 
L 349.903172 174.633053 
L 349.903172 176.564591 
L 343.535468 176.564591 
L 343.535468 184.536961 
L 338.583725 184.536961 
L 338.583725 176.564591 
L 332.203673 176.564591 
L 332.203673 174.633053 
z
" clip-path="url(#p64dfcc9f82)" style="fill: #ff0000"/>
   </g>
   <g id="patch_55">
    <path d="M 349.903172 172.503334 
Q 348.422639 173.558987 346.821702 174.092951 
Q 345.220765 174.633053 343.477126 174.633053 
Q 338.277424 174.633053 335.240548 170.631391 
Q 332.203673 166.629729 332.203673 159.786397 
Q 332.203673 152.918515 335.240548 148.92299 
Q 338.277424 144.921329 343.477126 144.921329 
Q 345.220765 144.921329 346.821702 145.46143 
Q 348.422639 145.995394 349.903172 147.051048 
L 349.903172 152.973752 
Q 348.409261 151.574398 346.959945 150.923821 
Q 345.510628 150.273244 343.909691 150.273244 
Q 341.037814 150.273244 339.392283 152.808039 
Q 337.75121 155.336697 337.75121 159.786397 
Q 337.75121 164.217685 339.392283 166.75248 
Q 341.037814 169.281137 343.909691 169.281137 
Q 345.510628 169.281137 346.959945 168.63056 
Q 348.409261 167.973846 349.903172 166.574492 
L 349.903172 172.503334 
z
" clip-path="url(#p64dfcc9f82)" style="fill: #0000ff"/>
   </g>
   <g id="patch_56">
    <path d="M 363.095183 191.852065 
L 356.28824 191.852065 
L 355.21346 192.24 
L 350.834725 192.24 
L 357.087993 190.110467 
L 362.280956 190.110467 
L 368.534224 192.24 
L 364.159107 192.24 
L 363.095183 191.852065 
z
M 357.373877 191.456828 
L 361.99869 191.456828 
L 359.689902 190.609762 
L 357.373877 191.456828 
z
" clip-path="url(#p64dfcc9f82)" style="fill: #008000"/>
   </g>
   <g id="patch_57">
    <path d="M 368.534224 189.848792 
Q 367.053691 189.978498 365.452754 190.044105 
Q 363.851817 190.110467 362.108177 190.110467 
Q 356.908476 190.110467 353.8716 189.61879 
Q 350.834725 189.127112 350.834725 188.286284 
Q 350.834725 187.442439 353.8716 186.951516 
Q 356.908476 186.459839 362.108177 186.459839 
Q 363.851817 186.459839 365.452754 186.5262 
Q 367.053691 186.591807 368.534224 186.721513 
L 368.534224 187.449226 
Q 367.040313 187.27729 365.590996 187.197354 
Q 364.14168 187.117419 362.540743 187.117419 
Q 359.668866 187.117419 358.023334 187.428865 
Q 356.382262 187.739557 356.382262 188.286284 
Q 356.382262 188.830749 358.023334 189.142194 
Q 359.668866 189.452886 362.540743 189.452886 
Q 364.14168 189.452886 365.590996 189.372951 
Q 367.040313 189.292262 368.534224 189.120325 
L 368.534224 189.848792 
z
" clip-path="url(#p64dfcc9f82)" style="fill: #0000ff"/>
   </g>
   <g id="patch_58">
    <path d="M 350.834725 178.854363 
L 368.534224 178.854363 
L 368.534224 180.337643 
L 362.16652 180.337643 
L 362.16652 186.459839 
L 357.214777 186.459839 
L 357.214777 180.337643 
L 350.834725 180.337643 
L 350.834725 178.854363 
z
" clip-path="url(#p64dfcc9f82)" style="fill: #ff0000"/>
   </g>
   <g id="patch_59">
    <path d="M 368.534224 177.698318 
Q 366.7492 178.276341 364.829308 178.566671 
Q 362.909416 178.854363 360.86259 178.854363 
Q 356.237396 178.854363 353.53606 177.133493 
Q 350.834725 175.412622 350.834725 172.469723 
Q 350.834725 169.492511 353.583661 167.784838 
Q 356.336563 166.077164 361.124393 166.077164 
Q 362.968917 166.077164 364.658739 166.309429 
Q 366.352528 166.539054 367.851948 166.993026 
L 367.851948 169.54002 
Q 366.304928 168.956719 364.773774 168.669027 
Q 363.242621 168.378696 361.703534 168.378696 
Q 358.85543 168.378696 357.312376 169.439724 
Q 355.769323 170.498112 355.769323 172.469723 
Q 355.769323 174.422858 357.256842 175.489164 
Q 358.744362 176.552831 361.481398 176.552831 
Q 362.227141 176.552831 362.865783 176.492125 
Q 363.504424 176.42878 364.012164 176.296812 
L 364.012164 173.905541 
L 361.096626 173.905541 
L 361.096626 171.775568 
L 368.534224 171.775568 
L 368.534224 177.698318 
z
" clip-path="url(#p64dfcc9f82)" style="fill: #ffa600"/>
   </g>
   <g id="patch_60">
    <path d="M 369.465776 190.090236 
L 387.165275 190.090236 
L 387.165275 190.5095 
L 380.797572 190.5095 
L 380.797572 192.24 
L 375.845828 192.24 
L 375.845828 190.5095 
L 369.465776 190.5095 
L 369.465776 190.090236 
z
" clip-path="url(#p64dfcc9f82)" style="fill: #ff0000"/>
   </g>
   <g id="patch_61">
    <path d="M 387.165275 189.506722 
Q 385.380252 189.798479 383.46036 189.945023 
Q 381.540468 190.090236 379.493641 190.090236 
Q 374.868447 190.090236 372.167112 189.221626 
Q 369.465776 188.353016 369.465776 186.867587 
Q 369.465776 185.364839 372.214712 184.502891 
Q 374.967615 183.640942 379.755445 183.640942 
Q 381.599969 183.640942 383.289791 183.758178 
Q 384.98358 183.874082 386.483 184.103224 
L 386.483 185.388819 
Q 384.93598 185.094398 383.404826 184.949186 
Q 381.873673 184.802641 380.334586 184.802641 
Q 377.486482 184.802641 375.943428 185.338195 
Q 374.400374 185.872417 374.400374 186.867587 
Q 374.400374 187.853433 375.887894 188.391651 
Q 377.375414 188.928537 380.112449 188.928537 
Q 380.858193 188.928537 381.496834 188.897896 
Q 382.135476 188.865922 382.643216 188.799311 
L 382.643216 187.592317 
L 379.727678 187.592317 
L 379.727678 186.517213 
L 387.165275 186.517213 
L 387.165275 189.506722 
z
" clip-path="url(#p64dfcc9f82)" style="fill: #ffa600"/>
   </g>
   <g id="patch_62">
    <path d="M 387.165275 182.94752 
Q 385.684743 183.291234 384.083806 183.465089 
Q 382.482868 183.640942 380.739229 183.640942 
Q 375.539527 183.640942 372.502652 182.338028 
Q 369.465776 181.035114 369.465776 178.80697 
Q 369.465776 176.570833 372.502652 175.269917 
Q 375.539527 173.967003 380.739229 173.967003 
Q 382.482868 173.967003 384.083806 174.142856 
Q 385.684743 174.316711 387.165275 174.660425 
L 387.165275 176.588818 
Q 385.671365 176.133198 384.222048 175.921374 
Q 382.772732 175.709551 381.171794 175.709551 
Q 378.299918 175.709551 376.654386 176.534863 
Q 375.013314 177.358177 375.013314 178.80697 
Q 375.013314 180.249768 376.654386 181.07508 
Q 378.299918 181.898394 381.171794 181.898394 
Q 382.772732 181.898394 384.222048 181.686571 
Q 385.671365 181.472749 387.165275 181.017129 
L 387.165275 182.94752 
z
" clip-path="url(#p64dfcc9f82)" style="fill: #0000ff"/>
   </g>
   <g id="patch_63">
    <path d="M 381.726235 160.456107 
L 374.919292 160.456107 
L 373.844512 173.967003 
L 369.465776 173.967003 
L 375.719044 99.800131 
L 380.912007 99.800131 
L 387.165275 173.967003 
L 382.790159 173.967003 
L 381.726235 160.456107 
z
M 376.004929 146.690888 
L 380.629742 146.690888 
L 378.320954 117.189449 
L 376.004929 146.690888 
z
" clip-path="url(#p64dfcc9f82)" style="fill: #008000"/>
   </g>
   <g id="patch_64">
    <path d="M 400.357287 190.916811 
L 393.550344 190.916811 
L 392.475563 192.24 
L 388.096828 192.24 
L 394.350096 184.976471 
L 399.543059 184.976471 
L 405.796327 192.24 
L 401.421211 192.24 
L 400.357287 190.916811 
z
M 394.635981 189.568715 
L 399.260793 189.568715 
L 396.952006 186.679493 
L 394.635981 189.568715 
z
" clip-path="url(#p64dfcc9f82)" style="fill: #008000"/>
   </g>
   <g id="patch_65">
    <path d="M 405.796327 184.455826 
Q 404.315795 184.713898 402.714857 184.844434 
Q 401.11392 184.976471 399.370281 184.976471 
Q 394.170579 184.976471 391.133704 183.998198 
Q 388.096828 183.019925 388.096828 181.346957 
Q 388.096828 179.667988 391.133704 178.691216 
Q 394.170579 177.712942 399.370281 177.712942 
Q 401.11392 177.712942 402.714857 177.844979 
Q 404.315795 177.975516 405.796327 178.233588 
L 405.796327 179.681492 
Q 404.302416 179.339397 402.8531 179.180352 
Q 401.403783 179.021308 399.802846 179.021308 
Q 396.93097 179.021308 395.285438 179.640981 
Q 393.644366 180.259154 393.644366 181.346957 
Q 393.644366 182.43026 395.285438 183.049933 
Q 396.93097 183.668106 399.802846 183.668106 
Q 401.403783 183.668106 402.8531 183.509061 
Q 404.302416 183.348516 405.796327 183.006421 
L 405.796327 184.455826 
z
" clip-path="url(#p64dfcc9f82)" style="fill: #0000ff"/>
   </g>
   <g id="patch_66">
    <path d="M 388.096828 67.307304 
L 405.796327 67.307304 
L 405.796327 88.83948 
L 399.428624 88.83948 
L 399.428624 177.712942 
L 394.47688 177.712942 
L 394.47688 88.83948 
L 388.096828 88.83948 
L 388.096828 67.307304 
z
" clip-path="url(#p64dfcc9f82)" style="fill: #ff0000"/>
   </g>
   <g id="patch_67">
    <path d="M 424.427379 192.191334 
Q 422.946846 192.215456 421.345909 192.227658 
Q 419.744972 192.24 418.001333 192.24 
Q 412.801631 192.24 409.764755 192.148558 
Q 406.72788 192.057115 406.72788 191.900738 
Q 406.72788 191.743799 409.764755 191.652497 
Q 412.801631 191.561055 418.001333 191.561055 
Q 419.744972 191.561055 421.345909 191.573397 
Q 422.946846 191.585598 424.427379 191.609721 
L 424.427379 191.745061 
Q 422.933468 191.713085 421.484152 191.698218 
Q 420.034835 191.683352 418.433898 191.683352 
Q 415.562021 191.683352 413.91649 191.741275 
Q 412.275417 191.799057 412.275417 191.900738 
Q 412.275417 192.001998 413.91649 192.05992 
Q 415.562021 192.117703 418.433898 192.117703 
Q 420.034835 192.117703 421.484152 192.102837 
Q 422.933468 192.08783 424.427379 192.055853 
L 424.427379 192.191334 
z
" clip-path="url(#p64dfcc9f82)" style="fill: #0000ff"/>
   </g>
   <g id="patch_68">
    <path d="M 424.427379 190.91605 
Q 422.642356 191.238552 420.722464 191.40054 
Q 418.802572 191.561055 416.755745 191.561055 
Q 412.130551 191.561055 409.429215 190.60091 
Q 406.72788 189.640766 406.72788 187.998801 
Q 406.72788 186.337693 409.476816 185.384912 
Q 412.229719 184.43213 417.017548 184.43213 
Q 418.862073 184.43213 420.551895 184.56172 
Q 422.245684 184.689838 423.745103 184.943127 
L 423.745103 186.3642 
Q 422.198083 186.038752 420.66693 185.878237 
Q 419.135776 185.71625 417.596689 185.71625 
Q 414.748585 185.71625 413.205532 186.308241 
Q 411.662478 186.898759 411.662478 187.998801 
Q 411.662478 189.088536 413.149997 189.683472 
Q 414.637517 190.276935 417.374553 190.276935 
Q 418.120296 190.276935 418.758938 190.243065 
Q 419.39758 190.207723 419.90532 190.134092 
L 419.90532 188.799903 
L 416.989781 188.799903 
L 416.989781 187.611504 
L 424.427379 187.611504 
L 424.427379 190.91605 
z
" clip-path="url(#p64dfcc9f82)" style="fill: #ffa600"/>
   </g>
   <g id="patch_69">
    <path d="M 418.988338 182.638731 
L 412.181395 182.638731 
L 411.106615 184.43213 
L 406.72788 184.43213 
L 412.981148 174.587425 
L 418.174111 174.587425 
L 424.427379 184.43213 
L 420.052263 184.43213 
L 418.988338 182.638731 
z
M 413.267032 180.811574 
L 417.891845 180.811574 
L 415.583058 176.895635 
L 413.267032 180.811574 
z
" clip-path="url(#p64dfcc9f82)" style="fill: #008000"/>
   </g>
   <g id="patch_70">
    <path d="M 406.72788 163.045357 
L 424.427379 163.045357 
L 424.427379 165.296381 
L 418.059675 165.296381 
L 418.059675 174.587425 
L 413.107932 174.587425 
L 413.107932 165.296381 
L 406.72788 165.296381 
L 406.72788 163.045357 
z
" clip-path="url(#p64dfcc9f82)" style="fill: #ff0000"/>
   </g>
   <g id="patch_71">
    <path d="M 443.058431 192.101375 
Q 441.577898 192.170088 439.976961 192.204844 
Q 438.376024 192.24 436.632384 192.24 
Q 431.432683 192.24 428.395807 191.97953 
Q 425.358932 191.719059 425.358932 191.273622 
Q 425.358932 190.826588 428.395807 190.566517 
Q 431.432683 190.306047 436.632384 190.306047 
Q 438.376024 190.306047 439.976961 190.341202 
Q 441.577898 190.375958 443.058431 190.444671 
L 443.058431 190.830183 
Q 441.56452 190.739099 440.115203 190.696752 
Q 438.665887 190.654406 437.06495 190.654406 
Q 434.193073 190.654406 432.547541 190.819397 
Q 430.906469 190.983989 430.906469 191.273622 
Q 430.906469 191.562058 432.547541 191.727049 
Q 434.193073 191.891641 437.06495 191.891641 
Q 438.665887 191.891641 440.115203 191.849294 
Q 441.56452 191.806548 443.058431 191.715464 
L 443.058431 192.101375 
z
" clip-path="url(#p64dfcc9f82)" style="fill: #0000ff"/>
   </g>
   <g id="patch_72">
    <path d="M 443.058431 190.131068 
Q 441.273407 190.218557 439.353515 190.262502 
Q 437.433623 190.306047 435.386797 190.306047 
Q 430.761603 190.306047 428.060267 190.045576 
Q 425.358932 189.785106 425.358932 189.339669 
Q 425.358932 188.889039 428.107868 188.630566 
Q 430.86077 188.372093 435.6486 188.372093 
Q 437.493124 188.372093 439.182946 188.407249 
Q 440.876735 188.442005 442.376155 188.510718 
L 442.376155 188.89623 
Q 440.829135 188.807942 439.297981 188.764397 
Q 437.766828 188.720452 436.227741 188.720452 
Q 433.379637 188.720452 431.836583 188.881049 
Q 430.29353 189.041247 430.29353 189.339669 
Q 430.29353 189.635295 431.781049 189.796691 
Q 433.268569 189.957687 436.005605 189.957687 
Q 436.751348 189.957687 437.38999 189.948499 
Q 438.028631 189.938911 438.536371 189.918936 
L 438.536371 189.556994 
L 435.620833 189.556994 
L 435.620833 189.234602 
L 443.058431 189.234602 
L 443.058431 190.131068 
z
" clip-path="url(#p64dfcc9f82)" style="fill: #ffa600"/>
   </g>
   <g id="patch_73">
    <path d="M 437.61939 158.778377 
L 430.812447 158.778377 
L 429.737667 188.372093 
L 425.358932 188.372093 
L 431.6122 25.92 
L 436.805163 25.92 
L 443.058431 188.372093 
L 438.683314 188.372093 
L 437.61939 158.778377 
z
M 431.898084 128.627603 
L 436.522897 128.627603 
L 434.214109 64.008853 
L 431.898084 128.627603 
z
" clip-path="url(#p64dfcc9f82)" style="fill: #008000"/>
   </g>
   <g id="patch_74">
    <path d="M 461.689482 192.016192 
Q 460.20895 192.127129 458.608013 192.183242 
Q 457.007075 192.24 455.263436 192.24 
Q 450.063734 192.24 447.026859 191.819473 
Q 443.989983 191.398947 443.989983 190.679795 
Q 443.989983 189.958063 447.026859 189.538181 
Q 450.063734 189.117655 455.263436 189.117655 
Q 457.007075 189.117655 458.608013 189.174413 
Q 460.20895 189.230526 461.689482 189.341462 
L 461.689482 189.963868 
Q 460.195572 189.816812 458.746255 189.748445 
Q 457.296939 189.680077 455.696001 189.680077 
Q 452.824125 189.680077 451.178593 189.946453 
Q 449.537521 190.212185 449.537521 190.679795 
Q 449.537521 191.14547 451.178593 191.411846 
Q 452.824125 191.677578 455.696001 191.677578 
Q 457.296939 191.677578 458.746255 191.60921 
Q 460.195572 191.540197 461.689482 191.393142 
L 461.689482 192.016192 
z
" clip-path="url(#p64dfcc9f82)" style="fill: #0000ff"/>
   </g>
   <g id="patch_75">
    <path d="M 456.250442 187.837868 
L 449.443499 187.837868 
L 448.368719 189.117655 
L 443.989983 189.117655 
L 450.243251 182.092378 
L 455.436214 182.092378 
L 461.689482 189.117655 
L 457.314366 189.117655 
L 456.250442 187.837868 
z
M 450.529136 186.533991 
L 455.153949 186.533991 
L 452.845161 183.739539 
L 450.529136 186.533991 
z
" clip-path="url(#p64dfcc9f82)" style="fill: #008000"/>
   </g>
   <g id="patch_76">
    <path d="M 461.689482 181.3155 
Q 459.904459 181.703939 457.984567 181.899045 
Q 456.064675 182.092378 454.017848 182.092378 
Q 449.392654 182.092378 446.691319 180.935929 
Q 443.989983 179.779481 443.989983 177.801813 
Q 443.989983 175.801087 446.738919 174.653507 
Q 449.491822 173.505928 454.279652 173.505928 
Q 456.124176 173.505928 457.813998 173.662013 
Q 459.507787 173.816324 461.007207 174.121399 
L 461.007207 175.833014 
Q 459.460187 175.441027 457.929033 175.247695 
Q 456.39788 175.052588 454.858793 175.052588 
Q 452.010689 175.052588 450.467635 175.765613 
Q 448.924581 176.476864 448.924581 177.801813 
Q 448.924581 179.114346 450.412101 179.830918 
Q 451.899621 180.545717 454.636656 180.545717 
Q 455.3824 180.545717 456.021041 180.504922 
Q 456.659683 180.462353 457.167423 180.373669 
L 457.167423 178.766702 
L 454.251885 178.766702 
L 454.251885 177.335332 
L 461.689482 177.335332 
L 461.689482 181.3155 
z
" clip-path="url(#p64dfcc9f82)" style="fill: #ffa600"/>
   </g>
   <g id="patch_77">
    <path d="M 443.989983 125.109575 
L 461.689482 125.109575 
L 461.689482 134.548212 
L 455.321779 134.548212 
L 455.321779 173.505928 
L 450.370035 173.505928 
L 450.370035 134.548212 
L 443.989983 134.548212 
L 443.989983 125.109575 
z
" clip-path="url(#p64dfcc9f82)" style="fill: #ff0000"/>
   </g>
   <g id="patch_78">
    <path d="M 480.320534 191.966451 
Q 478.535511 192.103225 476.615619 192.171925 
Q 474.695727 192.24 472.6489 192.24 
Q 468.023706 192.24 465.322371 191.832799 
Q 462.621035 191.425598 462.621035 190.729234 
Q 462.621035 190.024752 465.369971 189.620673 
Q 468.122874 189.216595 472.910704 189.216595 
Q 474.755228 189.216595 476.44505 189.271555 
Q 478.138839 189.32589 479.638259 189.433311 
L 479.638259 190.035993 
Q 478.091238 189.89797 476.560085 189.829895 
Q 475.028931 189.761195 473.489844 189.761195 
Q 470.64174 189.761195 469.098687 190.012261 
Q 467.555633 190.262702 467.555633 190.729234 
Q 467.555633 191.191395 469.043153 191.44371 
Q 470.530672 191.6954 473.267708 191.6954 
Q 474.013451 191.6954 474.652093 191.681035 
Q 475.290735 191.666046 475.798475 191.634819 
L 475.798475 191.068985 
L 472.882937 191.068985 
L 472.882937 190.56498 
L 480.320534 190.56498 
L 480.320534 191.966451 
z
" clip-path="url(#p64dfcc9f82)" style="fill: #ffa600"/>
   </g>
   <g id="patch_79">
    <path d="M 462.621035 185.437339 
L 480.320534 185.437339 
L 480.320534 186.174399 
L 473.952831 186.174399 
L 473.952831 189.216595 
L 469.001087 189.216595 
L 469.001087 186.174399 
L 462.621035 186.174399 
L 462.621035 185.437339 
z
" clip-path="url(#p64dfcc9f82)" style="fill: #ff0000"/>
   </g>
   <g id="patch_80">
    <path d="M 480.320534 184.462118 
Q 478.840002 184.945513 477.239064 185.190021 
Q 475.638127 185.437339 473.894488 185.437339 
Q 468.694786 185.437339 465.657911 183.604935 
Q 462.621035 181.77253 462.621035 178.638894 
Q 462.621035 175.494016 465.657911 173.664422 
Q 468.694786 171.832017 473.894488 171.832017 
Q 475.638127 171.832017 477.239064 172.079336 
Q 478.840002 172.323844 480.320534 172.807239 
L 480.320534 175.51931 
Q 478.826623 174.87853 477.377307 174.580624 
Q 475.92799 174.282718 474.327053 174.282718 
Q 471.455177 174.282718 469.809645 175.443428 
Q 468.168573 176.601328 468.168573 178.638894 
Q 468.168573 180.668029 469.809645 181.828739 
Q 471.455177 182.986639 474.327053 182.986639 
Q 475.92799 182.986639 477.377307 182.688732 
Q 478.826623 182.388016 480.320534 181.747236 
L 480.320534 184.462118 
z
" clip-path="url(#p64dfcc9f82)" style="fill: #0000ff"/>
   </g>
   <g id="patch_81">
    <path d="M 474.881494 163.708156 
L 468.074551 163.708156 
L 466.99977 171.832017 
L 462.621035 171.832017 
L 468.874303 127.236796 
L 474.067266 127.236796 
L 480.320534 171.832017 
L 475.945418 171.832017 
L 474.881494 163.708156 
z
M 469.160188 155.431374 
L 473.785 155.431374 
L 471.476213 137.692684 
L 469.160188 155.431374 
z
" clip-path="url(#p64dfcc9f82)" style="fill: #008000"/>
   </g>
   <g id="patch_82">
    <path d="M 481.252087 187.276847 
L 498.951586 187.276847 
L 498.951586 188.2448 
L 492.583882 188.2448 
L 492.583882 192.24 
L 487.632139 192.24 
L 487.632139 188.2448 
L 481.252087 188.2448 
L 481.252087 187.276847 
z
" clip-path="url(#p64dfcc9f82)" style="fill: #ff0000"/>
   </g>
   <g id="patch_83">
    <path d="M 498.951586 186.802506 
Q 497.471053 187.037626 495.870116 187.156553 
Q 494.269179 187.276847 492.52554 187.276847 
Q 487.325838 187.276847 484.288962 186.385578 
Q 481.252087 185.494309 481.252087 183.970129 
Q 481.252087 182.440481 484.288962 181.550579 
Q 487.325838 180.65931 492.52554 180.65931 
Q 494.269179 180.65931 495.870116 180.779604 
Q 497.471053 180.898531 498.951586 181.133651 
L 498.951586 182.452784 
Q 497.457675 182.141113 496.008359 181.996214 
Q 494.559042 181.851314 492.958105 181.851314 
Q 490.086228 181.851314 488.440697 182.415876 
Q 486.799624 182.97907 486.799624 183.970129 
Q 486.799624 184.957087 488.440697 185.521648 
Q 490.086228 186.084843 492.958105 186.084843 
Q 494.559042 186.084843 496.008359 185.939943 
Q 497.457675 185.793677 498.951586 185.482006 
L 498.951586 186.802506 
z
" clip-path="url(#p64dfcc9f82)" style="fill: #0000ff"/>
   </g>
   <g id="patch_84">
    <path d="M 498.951586 180.060574 
Q 497.166563 180.359942 495.246671 180.510309 
Q 493.326779 180.65931 491.279952 180.65931 
Q 486.654758 180.65931 483.953422 179.768041 
Q 481.252087 178.876772 481.252087 177.352592 
Q 481.252087 175.810641 484.001023 174.926207 
Q 486.753926 174.041773 491.541755 174.041773 
Q 493.38628 174.041773 495.076102 174.162067 
Q 496.769891 174.280994 498.26931 174.516114 
L 498.26931 175.835247 
Q 496.72229 175.533145 495.191137 175.384145 
Q 493.659983 175.233777 492.120896 175.233777 
Q 489.272792 175.233777 487.729739 175.783302 
Q 486.186685 176.33146 486.186685 177.352592 
Q 486.186685 178.364155 487.674205 178.916414 
Q 489.161724 179.467306 491.89876 179.467306 
Q 492.644503 179.467306 493.283145 179.435865 
Q 493.921787 179.403058 494.429527 179.334709 
L 494.429527 178.096227 
L 491.513988 178.096227 
L 491.513988 176.993077 
L 498.951586 176.993077 
L 498.951586 180.060574 
z
" clip-path="url(#p64dfcc9f82)" style="fill: #ffa600"/>
   </g>
   <g id="patch_85">
    <path d="M 493.512545 164.397698 
L 486.705603 164.397698 
L 485.630822 174.041773 
L 481.252087 174.041773 
L 487.505355 121.101475 
L 492.698318 121.101475 
L 498.951586 174.041773 
L 494.57647 174.041773 
L 493.512545 164.397698 
z
M 487.791239 154.572088 
L 492.416052 154.572088 
L 490.107265 133.513967 
L 487.791239 154.572088 
z
" clip-path="url(#p64dfcc9f82)" style="fill: #008000"/>
   </g>
   <g id="patch_86">
    <path d="M 512.143597 191.746294 
L 505.336654 191.746294 
L 504.261874 192.24 
L 499.883139 192.24 
L 506.136407 189.529843 
L 511.32937 189.529843 
L 517.582638 192.24 
L 513.207521 192.24 
L 512.143597 191.746294 
z
M 506.422291 191.243294 
L 511.047104 191.243294 
L 508.738316 190.165272 
L 506.422291 191.243294 
z
" clip-path="url(#p64dfcc9f82)" style="fill: #008000"/>
   </g>
   <g id="patch_87">
    <path d="M 517.582638 189.206072 
Q 516.102105 189.366558 514.501168 189.447734 
Q 512.900231 189.529843 511.156591 189.529843 
Q 505.95689 189.529843 502.920014 188.92149 
Q 499.883139 188.313136 499.883139 187.272778 
Q 499.883139 186.228687 502.920014 185.621267 
Q 505.95689 185.012914 511.156591 185.012914 
Q 512.900231 185.012914 514.501168 185.095023 
Q 516.102105 185.176199 517.582638 185.336685 
L 517.582638 186.237085 
Q 516.088727 186.024348 514.63941 185.925444 
Q 513.190094 185.82654 511.589157 185.82654 
Q 508.71728 185.82654 507.071748 186.211892 
Q 505.430676 186.596312 505.430676 187.272778 
Q 505.430676 187.946445 507.071748 188.331798 
Q 508.71728 188.716217 511.589157 188.716217 
Q 513.190094 188.716217 514.63941 188.617313 
Q 516.088727 188.517476 517.582638 188.304739 
L 517.582638 189.206072 
z
" clip-path="url(#p64dfcc9f82)" style="fill: #0000ff"/>
   </g>
   <g id="patch_88">
    <path d="M 517.582638 183.868613 
Q 515.797614 184.440763 513.877722 184.728145 
Q 511.957831 185.012914 509.911004 185.012914 
Q 505.28581 185.012914 502.584474 183.309525 
Q 499.883139 181.606136 499.883139 178.693133 
Q 499.883139 175.746165 502.632075 174.055839 
Q 505.384978 172.365513 510.172807 172.365513 
Q 512.017331 172.365513 513.707153 172.595419 
Q 515.400942 172.822711 516.900362 173.272072 
L 516.900362 175.793192 
Q 515.353342 175.215816 513.822188 174.931047 
Q 512.291035 174.643665 510.751948 174.643665 
Q 507.903844 174.643665 506.36079 175.693914 
Q 504.817737 176.741551 504.817737 178.693133 
Q 504.817737 180.626427 506.305256 181.681901 
Q 507.792776 182.734762 510.529812 182.734762 
Q 511.275555 182.734762 511.914197 182.674673 
Q 512.552838 182.611972 513.060578 182.481344 
L 513.060578 180.114365 
L 510.14504 180.114365 
L 510.14504 178.006029 
L 517.582638 178.006029 
L 517.582638 183.868613 
z
" clip-path="url(#p64dfcc9f82)" style="fill: #ffa600"/>
   </g>
   <g id="patch_89">
    <path d="M 499.883139 114.548825 
L 517.582638 114.548825 
L 517.582638 125.82469 
L 511.214934 125.82469 
L 511.214934 172.365513 
L 506.263191 172.365513 
L 506.263191 125.82469 
L 499.883139 125.82469 
L 499.883139 114.548825 
z
" clip-path="url(#p64dfcc9f82)" style="fill: #ff0000"/>
   </g>
   <g id="patch_90">
    <path d="M 536.213689 192.119498 
Q 534.428666 192.179749 532.508774 192.210012 
Q 530.588882 192.24 528.542055 192.24 
Q 523.916861 192.24 521.215526 192.060623 
Q 518.51419 191.881245 518.51419 191.574487 
Q 518.51419 191.264153 521.263126 191.086152 
Q 524.016029 190.90815 528.803859 190.90815 
Q 530.648383 190.90815 532.338205 190.93236 
Q 534.031994 190.956295 535.531414 191.003616 
L 535.531414 191.269106 
Q 533.984394 191.208304 532.45324 191.178316 
Q 530.922087 191.148053 529.383 191.148053 
Q 526.534896 191.148053 524.991842 191.258651 
Q 523.448788 191.368974 523.448788 191.574487 
Q 523.448788 191.778075 524.936308 191.889223 
Q 526.423828 192.000096 529.160864 192.000096 
Q 529.906607 192.000096 530.545248 191.993769 
Q 531.18389 191.987166 531.69163 191.97341 
L 531.69163 191.724152 
L 528.776092 191.724152 
L 528.776092 191.502131 
L 536.213689 191.502131 
L 536.213689 192.119498 
z
" clip-path="url(#p64dfcc9f82)" style="fill: #ffa600"/>
   </g>
   <g id="patch_91">
    <path d="M 530.774649 190.034712 
L 523.967706 190.034712 
L 522.892926 190.90815 
L 518.51419 190.90815 
L 524.767458 186.113488 
L 529.960421 186.113488 
L 536.213689 190.90815 
L 531.838573 190.90815 
L 530.774649 190.034712 
z
M 525.053343 189.144832 
L 529.678156 189.144832 
L 527.369368 187.237654 
L 525.053343 189.144832 
z
" clip-path="url(#p64dfcc9f82)" style="fill: #008000"/>
   </g>
   <g id="patch_92">
    <path d="M 518.51419 179.454236 
L 536.213689 179.454236 
L 536.213689 180.752976 
L 529.845986 180.752976 
L 529.845986 186.113488 
L 524.894242 186.113488 
L 524.894242 180.752976 
L 518.51419 180.752976 
L 518.51419 179.454236 
z
" clip-path="url(#p64dfcc9f82)" style="fill: #ff0000"/>
   </g>
   <g id="patch_93">
    <path d="M 536.213689 178.728693 
Q 534.733157 179.088328 533.13222 179.270237 
Q 531.531282 179.454236 529.787643 179.454236 
Q 524.587941 179.454236 521.551066 178.090967 
Q 518.51419 176.727699 518.51419 174.396341 
Q 518.51419 172.056621 521.551066 170.695443 
Q 524.587941 169.332174 529.787643 169.332174 
Q 531.531282 169.332174 533.13222 169.516173 
Q 534.733157 169.698082 536.213689 170.057717 
L 536.213689 172.075439 
Q 534.719779 171.598713 533.270462 171.377077 
Q 531.821146 171.155441 530.220208 171.155441 
Q 527.348332 171.155441 525.7028 172.018984 
Q 524.061728 172.880436 524.061728 174.396341 
Q 524.061728 175.905974 525.7028 176.769517 
Q 527.348332 177.630969 530.220208 177.630969 
Q 531.821146 177.630969 533.270462 177.409333 
Q 534.719779 177.185606 536.213689 176.70888 
L 536.213689 178.728693 
z
" clip-path="url(#p64dfcc9f82)" style="fill: #0000ff"/>
   </g>
   <g id="patch_94">
    <path d="M 554.844741 192.135121 
Q 553.364209 192.187107 551.763271 192.213402 
Q 550.162334 192.24 548.418695 192.24 
Q 543.218993 192.24 540.182118 192.042937 
Q 537.145242 191.845873 537.145242 191.508871 
Q 537.145242 191.170659 540.182118 190.973898 
Q 543.218993 190.776835 548.418695 190.776835 
Q 550.162334 190.776835 551.763271 190.803432 
Q 553.364209 190.829727 554.844741 190.881713 
L 554.844741 191.173379 
Q 553.35083 191.104468 551.901514 191.07243 
Q 550.452197 191.040392 548.85126 191.040392 
Q 545.979384 191.040392 544.333852 191.165219 
Q 542.69278 191.289743 542.69278 191.508871 
Q 542.69278 191.727091 544.333852 191.851918 
Q 545.979384 191.976443 548.85126 191.976443 
Q 550.452197 191.976443 551.901514 191.944405 
Q 553.35083 191.912065 554.844741 191.843153 
L 554.844741 192.135121 
z
" clip-path="url(#p64dfcc9f82)" style="fill: #0000ff"/>
   </g>
   <g id="patch_95">
    <path d="M 537.145242 186.387338 
L 554.844741 186.387338 
L 554.844741 187.243412 
L 548.477038 187.243412 
L 548.477038 190.776835 
L 543.525294 190.776835 
L 543.525294 187.243412 
L 537.145242 187.243412 
L 537.145242 186.387338 
z
" clip-path="url(#p64dfcc9f82)" style="fill: #ff0000"/>
   </g>
   <g id="patch_96">
    <path d="M 554.844741 185.725423 
Q 553.059718 186.05638 551.139826 186.222615 
Q 549.219934 186.387338 547.173107 186.387338 
Q 542.547913 186.387338 539.846578 185.402021 
Q 537.145242 184.416704 537.145242 182.731691 
Q 537.145242 181.027032 539.894178 180.049272 
Q 542.647081 179.071511 547.434911 179.071511 
Q 549.279435 179.071511 550.969257 179.204498 
Q 552.663046 179.335975 554.162466 179.595905 
L 554.162466 181.054234 
Q 552.615445 180.720254 551.084292 180.555531 
Q 549.553138 180.389297 548.014052 180.389297 
Q 545.165947 180.389297 543.622894 180.996808 
Q 542.07984 181.602808 542.07984 182.731691 
Q 542.07984 183.849996 543.56736 184.46053 
Q 545.054879 185.069552 547.791915 185.069552 
Q 548.537658 185.069552 549.1763 185.034794 
Q 549.814942 184.998525 550.322682 184.922964 
L 550.322682 183.553796 
L 547.407144 183.553796 
L 547.407144 182.33424 
L 554.844741 182.33424 
L 554.844741 185.725423 
z
" clip-path="url(#p64dfcc9f82)" style="fill: #ffa600"/>
   </g>
   <g id="patch_97">
    <path d="M 549.405701 158.547683 
L 542.598758 158.547683 
L 541.523977 179.071511 
L 537.145242 179.071511 
L 543.39851 66.40777 
L 548.591473 66.40777 
L 554.844741 179.071511 
L 550.469625 179.071511 
L 549.405701 158.547683 
z
M 543.684395 137.637524 
L 548.309208 137.637524 
L 546.00042 92.823143 
L 543.684395 137.637524 
z
" clip-path="url(#p64dfcc9f82)" style="fill: #008000"/>
   </g>
   <g id="patch_98">
    <path d="M 573.475793 192.087806 
Q 571.99526 192.163245 570.394323 192.201403 
Q 568.793386 192.24 567.049747 192.24 
Q 561.850045 192.24 558.813169 191.954034 
Q 555.776294 191.668067 555.776294 191.17903 
Q 555.776294 190.688238 558.813169 190.40271 
Q 561.850045 190.116744 567.049747 190.116744 
Q 568.793386 190.116744 570.394323 190.155341 
Q 571.99526 190.193499 573.475793 190.268938 
L 573.475793 190.692186 
Q 571.981882 190.592185 570.532566 190.545694 
Q 569.083249 190.499202 567.482312 190.499202 
Q 564.610435 190.499202 562.964904 190.680343 
Q 561.323831 190.861046 561.323831 191.17903 
Q 561.323831 191.495698 562.964904 191.676839 
Q 564.610435 191.857542 567.482312 191.857542 
Q 569.083249 191.857542 570.532566 191.811051 
Q 571.981882 191.764121 573.475793 191.66412 
L 573.475793 192.087806 
z
" clip-path="url(#p64dfcc9f82)" style="fill: #0000ff"/>
   </g>
   <g id="patch_99">
    <path d="M 573.475793 189.828585 
Q 571.69077 189.972665 569.770878 190.045033 
Q 567.850986 190.116744 565.804159 190.116744 
Q 561.178965 190.116744 558.477629 189.687795 
Q 555.776294 189.258845 555.776294 188.525289 
Q 555.776294 187.78318 558.52523 187.35752 
Q 561.278133 186.93186 566.065962 186.93186 
Q 567.910487 186.93186 569.600309 186.989755 
Q 571.294098 187.046993 572.793517 187.160151 
L 572.793517 187.795022 
Q 571.246497 187.649627 569.715344 187.577916 
Q 568.18419 187.505547 566.645103 187.505547 
Q 563.796999 187.505547 562.253946 187.770022 
Q 560.710892 188.033839 560.710892 188.525289 
Q 560.710892 189.012134 562.198412 189.277924 
Q 563.685931 189.543057 566.422967 189.543057 
Q 567.16871 189.543057 567.807352 189.527926 
Q 568.445994 189.512136 568.953734 189.479241 
L 568.953734 188.883186 
L 566.038195 188.883186 
L 566.038195 188.352262 
L 573.475793 188.352262 
L 573.475793 189.828585 
z
" clip-path="url(#p64dfcc9f82)" style="fill: #ffa600"/>
   </g>
   <g id="patch_100">
    <path d="M 568.036752 185.674789 
L 561.22981 185.674789 
L 560.155029 186.93186 
L 555.776294 186.93186 
L 562.029562 180.031279 
L 567.222525 180.031279 
L 573.475793 186.93186 
L 569.100677 186.93186 
L 568.036752 185.674789 
z
M 562.315446 184.394055 
L 566.940259 184.394055 
L 564.631472 181.649204 
L 562.315446 184.394055 
z
" clip-path="url(#p64dfcc9f82)" style="fill: #008000"/>
   </g>
   <g id="patch_101">
    <path d="M 555.776294 169.415 
L 573.475793 169.415 
L 573.475793 171.48547 
L 567.108089 171.48547 
L 567.108089 180.031279 
L 562.156346 180.031279 
L 562.156346 171.48547 
L 555.776294 171.48547 
L 555.776294 169.415 
z
" clip-path="url(#p64dfcc9f82)" style="fill: #ff0000"/>
   </g>
   <g id="patch_102">
    <path d="M 586.667804 191.766118 
L 579.860861 191.766118 
L 578.786081 192.24 
L 574.407346 192.24 
L 580.660614 189.638665 
L 585.853577 189.638665 
L 592.106845 192.24 
L 587.731728 192.24 
L 586.667804 191.766118 
z
M 580.946498 191.283315 
L 585.571311 191.283315 
L 583.262523 190.248579 
L 580.946498 191.283315 
z
" clip-path="url(#p64dfcc9f82)" style="fill: #008000"/>
   </g>
   <g id="patch_103">
    <path d="M 592.106845 189.364076 
Q 590.321821 189.50137 588.401929 189.570331 
Q 586.482038 189.638665 584.435211 189.638665 
Q 579.810017 189.638665 577.108681 189.229917 
Q 574.407346 188.821168 574.407346 188.122159 
Q 574.407346 187.415 577.156282 187.009387 
Q 579.909185 186.603773 584.697014 186.603773 
Q 586.541538 186.603773 588.23136 186.658942 
Q 589.925149 186.713483 591.424569 186.821312 
L 591.424569 187.426285 
Q 589.877549 187.287736 588.346395 187.219403 
Q 586.815242 187.150442 585.276155 187.150442 
Q 582.428051 187.150442 580.884997 187.402462 
Q 579.341944 187.653854 579.341944 188.122159 
Q 579.341944 188.586076 580.829463 188.839349 
Q 582.316983 189.091995 585.054019 189.091995 
Q 585.799762 189.091995 586.438404 189.077576 
Q 587.077045 189.06253 587.584785 189.031185 
L 587.584785 188.463201 
L 584.669247 188.463201 
L 584.669247 187.957281 
L 592.106845 187.957281 
L 592.106845 189.364076 
z
" clip-path="url(#p64dfcc9f82)" style="fill: #ffa600"/>
   </g>
   <g id="patch_104">
    <path d="M 574.407346 173.597096 
L 592.106845 173.597096 
L 592.106845 176.13376 
L 585.739141 176.13376 
L 585.739141 186.603773 
L 580.787398 186.603773 
L 580.787398 176.13376 
L 574.407346 176.13376 
L 574.407346 173.597096 
z
" clip-path="url(#p64dfcc9f82)" style="fill: #ff0000"/>
   </g>
   <g id="patch_105">
    <path d="M 592.106845 172.260784 
Q 590.626312 172.923163 589.025375 173.258204 
Q 587.424438 173.597096 585.680798 173.597096 
Q 580.481097 173.597096 577.444221 171.086215 
Q 574.407346 168.575334 574.407346 164.28142 
Q 574.407346 159.972102 577.444221 157.465072 
Q 580.481097 154.954192 585.680798 154.954192 
Q 587.424438 154.954192 589.025375 155.293084 
Q 590.626312 155.628124 592.106845 156.290504 
L 592.106845 160.006761 
Q 590.612934 159.128723 589.163617 158.720513 
Q 587.714301 158.312302 586.113364 158.312302 
Q 583.241487 158.312302 581.595955 159.902783 
Q 579.954883 161.489413 579.954883 164.28142 
Q 579.954883 167.061874 581.595955 168.652355 
Q 583.241487 170.238985 586.113364 170.238985 
Q 587.714301 170.238985 589.163617 169.830775 
Q 590.612934 169.418713 592.106845 168.540675 
L 592.106845 172.260784 
z
" clip-path="url(#p64dfcc9f82)" style="fill: #0000ff"/>
   </g>
   <g id="patch_106">
    <path d="M 610.737896 191.965619 
Q 608.952873 192.102809 607.032981 192.171718 
Q 605.113089 192.24 603.066262 192.24 
Q 598.441068 192.24 595.739733 191.83156 
Q 593.038397 191.42312 593.038397 190.724638 
Q 593.038397 190.018012 595.787333 189.612704 
Q 598.540236 189.207397 603.328066 189.207397 
Q 605.17259 189.207397 606.862412 189.262524 
Q 608.556201 189.317024 610.055621 189.424772 
L 610.055621 190.029288 
Q 608.508601 189.890844 606.977447 189.822562 
Q 605.446294 189.753654 603.907207 189.753654 
Q 601.059103 189.753654 599.516049 190.005483 
Q 597.972995 190.256686 597.972995 190.724638 
Q 597.972995 191.188205 599.460515 191.441287 
Q 600.948035 191.693743 603.685071 191.693743 
Q 604.430814 191.693743 605.069455 191.679335 
Q 605.708097 191.6643 606.215837 191.632978 
L 606.215837 191.065422 
L 603.300299 191.065422 
L 603.300299 190.559884 
L 610.737896 190.559884 
L 610.737896 191.965619 
z
" clip-path="url(#p64dfcc9f82)" style="fill: #ffa600"/>
   </g>
   <g id="patch_107">
    <path d="M 593.038397 182.131323 
L 610.737896 182.131323 
L 610.737896 183.511354 
L 604.370193 183.511354 
L 604.370193 189.207397 
L 599.418449 189.207397 
L 599.418449 183.511354 
L 593.038397 183.511354 
L 593.038397 182.131323 
z
" clip-path="url(#p64dfcc9f82)" style="fill: #ff0000"/>
   </g>
   <g id="patch_108">
    <path d="M 610.737896 181.551655 
Q 609.257364 181.838983 607.656427 181.984318 
Q 606.055489 182.131323 604.31185 182.131323 
Q 599.112148 182.131323 596.075273 181.04215 
Q 593.038397 179.952977 593.038397 178.090357 
Q 593.038397 176.221056 596.075273 175.133554 
Q 599.112148 174.044381 604.31185 174.044381 
Q 606.055489 174.044381 607.656427 174.191386 
Q 609.257364 174.33672 610.737896 174.624048 
L 610.737896 176.236091 
Q 609.243986 175.855214 607.794669 175.67814 
Q 606.345353 175.501066 604.744415 175.501066 
Q 601.872539 175.501066 600.227007 176.190987 
Q 598.585935 176.879237 598.585935 178.090357 
Q 598.585935 179.296466 600.227007 179.986387 
Q 601.872539 180.674637 604.744415 180.674637 
Q 606.345353 180.674637 607.794669 180.497563 
Q 609.243986 180.318819 610.737896 179.937942 
L 610.737896 181.551655 
z
" clip-path="url(#p64dfcc9f82)" style="fill: #0000ff"/>
   </g>
   <g id="patch_109">
    <path d="M 605.298856 161.522273 
L 598.491913 161.522273 
L 597.417133 174.044381 
L 593.038397 174.044381 
L 599.291665 105.305374 
L 604.484628 105.305374 
L 610.737896 174.044381 
L 606.36278 174.044381 
L 605.298856 161.522273 
z
M 599.57755 148.764455 
L 604.202363 148.764455 
L 601.893575 121.422064 
L 599.57755 148.764455 
z
" clip-path="url(#p64dfcc9f82)" style="fill: #008000"/>
   </g>
   <g id="patch_110">
    <path d="M 629.368948 191.987213 
Q 627.583925 192.113607 625.664033 192.177092 
Q 623.744141 192.24 621.697314 192.24 
Q 617.07212 192.24 614.370785 191.863706 
Q 611.669449 191.487412 611.669449 190.843902 
Q 611.669449 190.19289 614.418385 189.819482 
Q 617.171288 189.446073 621.959118 189.446073 
Q 623.803642 189.446073 625.493464 189.496862 
Q 627.187253 189.547073 628.686673 189.64634 
L 628.686673 190.203279 
Q 627.139652 190.075731 625.608499 190.012823 
Q 624.077345 189.949338 622.538259 189.949338 
Q 619.690154 189.949338 618.147101 190.181348 
Q 616.604047 190.41278 616.604047 190.843902 
Q 616.604047 191.270985 618.091567 191.504149 
Q 619.579086 191.736735 622.316122 191.736735 
Q 623.061865 191.736735 623.700507 191.723461 
Q 624.339149 191.70961 624.846889 191.680753 
L 624.846889 191.157866 
L 621.931351 191.157866 
L 621.931351 190.692115 
L 629.368948 190.692115 
L 629.368948 191.987213 
z
" clip-path="url(#p64dfcc9f82)" style="fill: #ffa600"/>
   </g>
   <g id="patch_111">
    <path d="M 611.669449 184.789529 
L 629.368948 184.789529 
L 629.368948 185.697685 
L 623.001245 185.697685 
L 623.001245 189.446073 
L 618.049501 189.446073 
L 618.049501 185.697685 
L 611.669449 185.697685 
L 611.669449 184.789529 
z
" clip-path="url(#p64dfcc9f82)" style="fill: #ff0000"/>
   </g>
   <g id="patch_112">
    <path d="M 629.368948 183.921706 
Q 627.888416 184.351866 626.287478 184.569447 
Q 624.686541 184.789529 622.942902 184.789529 
Q 617.7432 184.789529 614.706325 183.158921 
Q 611.669449 181.528313 611.669449 178.739773 
Q 611.669449 175.941229 614.706325 174.313122 
Q 617.7432 172.682514 622.942902 172.682514 
Q 624.686541 172.682514 626.287478 172.902596 
Q 627.888416 173.120177 629.368948 173.550338 
L 629.368948 175.963738 
Q 627.875037 175.393525 626.425721 175.128426 
Q 624.976404 174.863327 623.375467 174.863327 
Q 620.503591 174.863327 618.858059 175.896213 
Q 617.216987 176.926597 617.216987 178.739773 
Q 617.216987 180.545446 618.858059 181.578332 
Q 620.503591 182.608716 623.375467 182.608716 
Q 624.976404 182.608716 626.425721 182.343617 
Q 627.875037 182.076017 629.368948 181.505805 
L 629.368948 183.921706 
z
" clip-path="url(#p64dfcc9f82)" style="fill: #0000ff"/>
   </g>
   <g id="patch_113">
    <path d="M 623.929908 161.654907 
L 617.122965 161.654907 
L 616.048184 172.682514 
L 611.669449 172.682514 
L 617.922717 112.147439 
L 623.11568 112.147439 
L 629.368948 172.682514 
L 624.993832 172.682514 
L 623.929908 161.654907 
z
M 618.208602 150.419722 
L 622.833415 150.419722 
L 620.524627 126.340617 
L 618.208602 150.419722 
z
" clip-path="url(#p64dfcc9f82)" style="fill: #008000"/>
   </g>
   <g id="patch_114">
    <path d="M 648 191.82839 
Q 646.214977 192.034195 644.295085 192.137567 
Q 642.375193 192.24 640.328366 192.24 
Q 635.703172 192.24 633.001836 191.627284 
Q 630.300501 191.014567 630.300501 189.966747 
Q 630.300501 188.90671 633.049437 188.298692 
Q 635.80234 187.690675 640.590169 187.690675 
Q 642.434694 187.690675 644.124516 187.773372 
Q 645.818305 187.855131 647.317724 188.016767 
L 647.317724 188.923625 
Q 645.770704 188.715941 644.239551 188.613508 
Q 642.708397 188.510136 641.16931 188.510136 
Q 638.321206 188.510136 636.778153 188.887915 
Q 635.235099 189.264754 635.235099 189.966747 
Q 635.235099 190.662161 636.722619 191.04182 
Q 638.210138 191.420539 640.947174 191.420539 
Q 641.692917 191.420539 642.331559 191.398925 
Q 642.970201 191.376371 643.477941 191.329383 
L 643.477941 190.47797 
L 640.562402 190.47797 
L 640.562402 189.719593 
L 648 189.719593 
L 648 191.82839 
z
" clip-path="url(#p64dfcc9f82)" style="fill: #ffa600"/>
   </g>
   <g id="patch_115">
    <path d="M 648 187.234144 
Q 646.519467 187.460436 644.91853 187.574897 
Q 643.317593 187.690675 641.573954 187.690675 
Q 636.374252 187.690675 633.337376 186.832872 
Q 630.300501 185.975069 630.300501 184.50812 
Q 630.300501 183.035909 633.337376 182.179422 
Q 636.374252 181.321619 641.573954 181.321619 
Q 643.317593 181.321619 644.91853 181.437396 
Q 646.519467 181.551857 648 181.778149 
L 648 183.04775 
Q 646.506089 182.747782 645.056773 182.608323 
Q 643.607456 182.468865 642.006519 182.468865 
Q 639.134642 182.468865 637.489111 183.012227 
Q 635.848038 183.554275 635.848038 184.50812 
Q 635.848038 185.458019 637.489111 186.001381 
Q 639.134642 186.543429 642.006519 186.543429 
Q 643.607456 186.543429 645.056773 186.40397 
Q 646.506089 186.263196 648 185.963228 
L 648 187.234144 
z
" clip-path="url(#p64dfcc9f82)" style="fill: #0000ff"/>
   </g>
   <g id="patch_116">
    <path d="M 630.300501 174.042698 
L 648 174.042698 
L 648 175.46229 
L 641.632296 175.46229 
L 641.632296 181.321619 
L 636.680553 181.321619 
L 636.680553 175.46229 
L 630.300501 175.46229 
L 630.300501 174.042698 
z
" clip-path="url(#p64dfcc9f82)" style="fill: #ff0000"/>
   </g>
   <g id="patch_117">
    <path d="M 642.560959 163.103257 
L 635.754017 163.103257 
L 634.679236 174.042698 
L 630.300501 174.042698 
L 636.553769 113.991602 
L 641.746732 113.991602 
L 648 174.042698 
L 643.624884 174.042698 
L 642.560959 163.103257 
z
M 636.839653 151.957897 
L 641.464466 151.957897 
L 639.155679 128.071306 
L 636.839653 151.957897 
z
" clip-path="url(#p64dfcc9f82)" style="fill: #008000"/>
   </g>
   <g id="matplotlib.axis_1">
    <g id="xtick_1">
     <g id="line2d_2">
      <defs>
       <path id="m28d788a24b" d="M 0 0 
L 0 3.5 
" style="stroke: #000000; stroke-width: 0.8"/>
      </defs>
      <g>
       <use xlink:href="#m28d788a24b" x="98.84975" y="192.24" style="stroke: #000000; stroke-width: 0.8"/>
      </g>
     </g>
     <g id="text_1">
      <!-- 0 -->
      <g transform="translate(95.6685 206.838437) scale(0.1 -0.1)">
       <defs>
        <path id="DejaVuSans-30" d="M 2034 4250 
Q 1547 4250 1301 3770 
Q 1056 3291 1056 2328 
Q 1056 1369 1301 889 
Q 1547 409 2034 409 
Q 2525 409 2770 889 
Q 3016 1369 3016 2328 
Q 3016 3291 2770 3770 
Q 2525 4250 2034 4250 
z
M 2034 4750 
Q 2819 4750 3233 4129 
Q 3647 3509 3647 2328 
Q 3647 1150 3233 529 
Q 2819 -91 2034 -91 
Q 1250 -91 836 529 
Q 422 1150 422 2328 
Q 422 3509 836 4129 
Q 1250 4750 2034 4750 
z
" transform="scale(0.015625)"/>
       </defs>
       <use xlink:href="#DejaVuSans-30"/>
      </g>
     </g>
    </g>
    <g id="xtick_2">
     <g id="line2d_3">
      <g>
       <use xlink:href="#m28d788a24b" x="192.005008" y="192.24" style="stroke: #000000; stroke-width: 0.8"/>
      </g>
     </g>
     <g id="text_2">
      <!-- 5 -->
      <g transform="translate(188.823758 206.838437) scale(0.1 -0.1)">
       <defs>
        <path id="DejaVuSans-35" d="M 691 4666 
L 3169 4666 
L 3169 4134 
L 1269 4134 
L 1269 2991 
Q 1406 3038 1543 3061 
Q 1681 3084 1819 3084 
Q 2600 3084 3056 2656 
Q 3513 2228 3513 1497 
Q 3513 744 3044 326 
Q 2575 -91 1722 -91 
Q 1428 -91 1123 -41 
Q 819 9 494 109 
L 494 744 
Q 775 591 1075 516 
Q 1375 441 1709 441 
Q 2250 441 2565 725 
Q 2881 1009 2881 1497 
Q 2881 1984 2565 2268 
Q 2250 2553 1709 2553 
Q 1456 2553 1204 2497 
Q 953 2441 691 2322 
L 691 4666 
z
" transform="scale(0.015625)"/>
       </defs>
       <use xlink:href="#DejaVuSans-35"/>
      </g>
     </g>
    </g>
    <g id="xtick_3">
     <g id="line2d_4">
      <g>
       <use xlink:href="#m28d788a24b" x="285.160267" y="192.24" style="stroke: #000000; stroke-width: 0.8"/>
      </g>
     </g>
     <g id="text_3">
      <!-- 10 -->
      <g transform="translate(278.797767 206.838437) scale(0.1 -0.1)">
       <defs>
        <path id="DejaVuSans-31" d="M 794 531 
L 1825 531 
L 1825 4091 
L 703 3866 
L 703 4441 
L 1819 4666 
L 2450 4666 
L 2450 531 
L 3481 531 
L 3481 0 
L 794 0 
L 794 531 
z
" transform="scale(0.015625)"/>
       </defs>
       <use xlink:href="#DejaVuSans-31"/>
       <use xlink:href="#DejaVuSans-30" x="63.623047"/>
      </g>
     </g>
    </g>
    <g id="xtick_4">
     <g id="line2d_5">
      <g>
       <use xlink:href="#m28d788a24b" x="378.315526" y="192.24" style="stroke: #000000; stroke-width: 0.8"/>
      </g>
     </g>
     <g id="text_4">
      <!-- 15 -->
      <g transform="translate(371.953026 206.838437) scale(0.1 -0.1)">
       <use xlink:href="#DejaVuSans-31"/>
       <use xlink:href="#DejaVuSans-35" x="63.623047"/>
      </g>
     </g>
    </g>
    <g id="xtick_5">
     <g id="line2d_6">
      <g>
       <use xlink:href="#m28d788a24b" x="471.470785" y="192.24" style="stroke: #000000; stroke-width: 0.8"/>
      </g>
     </g>
     <g id="text_5">
      <!-- 20 -->
      <g transform="translate(465.108285 206.838437) scale(0.1 -0.1)">
       <defs>
        <path id="DejaVuSans-32" d="M 1228 531 
L 3431 531 
L 3431 0 
L 469 0 
L 469 531 
Q 828 903 1448 1529 
Q 2069 2156 2228 2338 
Q 2531 2678 2651 2914 
Q 2772 3150 2772 3378 
Q 2772 3750 2511 3984 
Q 2250 4219 1831 4219 
Q 1534 4219 1204 4116 
Q 875 4013 500 3803 
L 500 4441 
Q 881 4594 1212 4672 
Q 1544 4750 1819 4750 
Q 2544 4750 2975 4387 
Q 3406 4025 3406 3419 
Q 3406 3131 3298 2873 
Q 3191 2616 2906 2266 
Q 2828 2175 2409 1742 
Q 1991 1309 1228 531 
z
" transform="scale(0.015625)"/>
       </defs>
       <use xlink:href="#DejaVuSans-32"/>
       <use xlink:href="#DejaVuSans-30" x="63.623047"/>
      </g>
     </g>
    </g>
    <g id="xtick_6">
     <g id="line2d_7">
      <g>
       <use xlink:href="#m28d788a24b" x="564.626043" y="192.24" style="stroke: #000000; stroke-width: 0.8"/>
      </g>
     </g>
     <g id="text_6">
      <!-- 25 -->
      <g transform="translate(558.263543 206.838437) scale(0.1 -0.1)">
       <use xlink:href="#DejaVuSans-32"/>
       <use xlink:href="#DejaVuSans-35" x="63.623047"/>
      </g>
     </g>
    </g>
   </g>
   <g id="matplotlib.axis_2">
    <g id="ytick_1">
     <g id="line2d_8">
      <defs>
       <path id="m0e9bdd1c6f" d="M 0 0 
L -3.5 0 
" style="stroke: #000000; stroke-width: 0.8"/>
      </defs>
      <g>
       <use xlink:href="#m0e9bdd1c6f" x="90" y="192.24" style="stroke: #000000; stroke-width: 0.8"/>
      </g>
     </g>
     <g id="text_7">
      <!-- 0.00 -->
      <g transform="translate(60.734375 196.039219) scale(0.1 -0.1)">
       <defs>
        <path id="DejaVuSans-2e" d="M 684 794 
L 1344 794 
L 1344 0 
L 684 0 
L 684 794 
z
" transform="scale(0.015625)"/>
       </defs>
       <use xlink:href="#DejaVuSans-30"/>
       <use xlink:href="#DejaVuSans-2e" x="63.623047"/>
       <use xlink:href="#DejaVuSans-30" x="95.410156"/>
       <use xlink:href="#DejaVuSans-30" x="159.033203"/>
      </g>
     </g>
    </g>
    <g id="ytick_2">
     <g id="line2d_9">
      <g>
       <use xlink:href="#m0e9bdd1c6f" x="90" y="169.361088" style="stroke: #000000; stroke-width: 0.8"/>
      </g>
     </g>
     <g id="text_8">
      <!-- 0.25 -->
      <g transform="translate(60.734375 173.160307) scale(0.1 -0.1)">
       <use xlink:href="#DejaVuSans-30"/>
       <use xlink:href="#DejaVuSans-2e" x="63.623047"/>
       <use xlink:href="#DejaVuSans-32" x="95.410156"/>
       <use xlink:href="#DejaVuSans-35" x="159.033203"/>
      </g>
     </g>
    </g>
    <g id="ytick_3">
     <g id="line2d_10">
      <g>
       <use xlink:href="#m0e9bdd1c6f" x="90" y="146.482176" style="stroke: #000000; stroke-width: 0.8"/>
      </g>
     </g>
     <g id="text_9">
      <!-- 0.50 -->
      <g transform="translate(60.734375 150.281395) scale(0.1 -0.1)">
       <use xlink:href="#DejaVuSans-30"/>
       <use xlink:href="#DejaVuSans-2e" x="63.623047"/>
       <use xlink:href="#DejaVuSans-35" x="95.410156"/>
       <use xlink:href="#DejaVuSans-30" x="159.033203"/>
      </g>
     </g>
    </g>
    <g id="ytick_4">
     <g id="line2d_11">
      <g>
       <use xlink:href="#m0e9bdd1c6f" x="90" y="123.603264" style="stroke: #000000; stroke-width: 0.8"/>
      </g>
     </g>
     <g id="text_10">
      <!-- 0.75 -->
      <g transform="translate(60.734375 127.402483) scale(0.1 -0.1)">
       <defs>
        <path id="DejaVuSans-37" d="M 525 4666 
L 3525 4666 
L 3525 4397 
L 1831 0 
L 1172 0 
L 2766 4134 
L 525 4134 
L 525 4666 
z
" transform="scale(0.015625)"/>
       </defs>
       <use xlink:href="#DejaVuSans-30"/>
       <use xlink:href="#DejaVuSans-2e" x="63.623047"/>
       <use xlink:href="#DejaVuSans-37" x="95.410156"/>
       <use xlink:href="#DejaVuSans-35" x="159.033203"/>
      </g>
     </g>
    </g>
    <g id="ytick_5">
     <g id="line2d_12">
      <g>
       <use xlink:href="#m0e9bdd1c6f" x="90" y="100.724352" style="stroke: #000000; stroke-width: 0.8"/>
      </g>
     </g>
     <g id="text_11">
      <!-- 1.00 -->
      <g transform="translate(60.734375 104.523571) scale(0.1 -0.1)">
       <use xlink:href="#DejaVuSans-31"/>
       <use xlink:href="#DejaVuSans-2e" x="63.623047"/>
       <use xlink:href="#DejaVuSans-30" x="95.410156"/>
       <use xlink:href="#DejaVuSans-30" x="159.033203"/>
      </g>
     </g>
    </g>
    <g id="ytick_6">
     <g id="line2d_13">
      <g>
       <use xlink:href="#m0e9bdd1c6f" x="90" y="77.845441" style="stroke: #000000; stroke-width: 0.8"/>
      </g>
     </g>
     <g id="text_12">
      <!-- 1.25 -->
      <g transform="translate(60.734375 81.644659) scale(0.1 -0.1)">
       <use xlink:href="#DejaVuSans-31"/>
       <use xlink:href="#DejaVuSans-2e" x="63.623047"/>
       <use xlink:href="#DejaVuSans-32" x="95.410156"/>
       <use xlink:href="#DejaVuSans-35" x="159.033203"/>
      </g>
     </g>
    </g>
    <g id="ytick_7">
     <g id="line2d_14">
      <g>
       <use xlink:href="#m0e9bdd1c6f" x="90" y="54.966529" style="stroke: #000000; stroke-width: 0.8"/>
      </g>
     </g>
     <g id="text_13">
      <!-- 1.50 -->
      <g transform="translate(60.734375 58.765747) scale(0.1 -0.1)">
       <use xlink:href="#DejaVuSans-31"/>
       <use xlink:href="#DejaVuSans-2e" x="63.623047"/>
       <use xlink:href="#DejaVuSans-35" x="95.410156"/>
       <use xlink:href="#DejaVuSans-30" x="159.033203"/>
      </g>
     </g>
    </g>
    <g id="ytick_8">
     <g id="line2d_15">
      <g>
       <use xlink:href="#m0e9bdd1c6f" x="90" y="32.087617" style="stroke: #000000; stroke-width: 0.8"/>
      </g>
     </g>
     <g id="text_14">
      <!-- 1.75 -->
      <g transform="translate(60.734375 35.886836) scale(0.1 -0.1)">
       <use xlink:href="#DejaVuSans-31"/>
       <use xlink:href="#DejaVuSans-2e" x="63.623047"/>
       <use xlink:href="#DejaVuSans-37" x="95.410156"/>
       <use xlink:href="#DejaVuSans-35" x="159.033203"/>
      </g>
     </g>
    </g>
   </g>
  </g>
 </g>
 <defs>
  <clipPath id="p64dfcc9f82">
   <rect x="90" y="25.92" width="558" height="166.32"/>
  </clipPath>
 </defs>
</svg>
