<?xml version="1.0" encoding="utf-8" standalone="no"?>
<!DOCTYPE svg PUBLIC "-//W3C//DTD SVG 1.1//EN"
  "http://www.w3.org/Graphics/SVG/1.1/DTD/svg11.dtd">
<svg xmlns:xlink="http://www.w3.org/1999/xlink" width="720pt" height="216pt" viewBox="0 0 720 216" xmlns="http://www.w3.org/2000/svg" version="1.1">
 <metadata>
  <rdf:RDF xmlns:dc="http://purl.org/dc/elements/1.1/" xmlns:cc="http://creativecommons.org/ns#" xmlns:rdf="http://www.w3.org/1999/02/22-rdf-syntax-ns#">
   <cc:Work>
    <dc:type rdf:resource="http://purl.org/dc/dcmitype/StillImage"/>
    <dc:date>2025-12-17T10:23:17.626759</dc:date>
    <dc:format>image/svg+xml</dc:format>
    <dc:creator>
     <cc:Agent>
      <dc:title>Matplotlib v3.8.2, https://matplotlib.org/</dc:title>
     </cc:Agent>
    </dc:creator>
   </cc:Work>
  </rdf:RDF>
 </metadata>
 <defs>
  <style type="text/css">*{stroke-linejoin: round; stroke-linecap: butt}</style>
 </defs>
 <g id="figure_1">
  <g id="patch_1">
   <path d="M 0 216 
L 720 216 
L 720 0 
L 0 0 
z
" style="fill: #ffffff"/>
  </g>
  <g id="axes_1">
   <g id="patch_2">
    <path d="M 90 192.24 
L 648 192.24 
L 648 25.92 
L 90 25.92 
z
" style="fill: #ffffff"/>
   </g>
   <g id="line2d_1">
    <path d="M 90 192.24 
L 648 192.24 
" clip-path="url(#p2fb5b65351)" style="fill: none; stroke: #000000; stroke-width: 0.5; stroke-linecap: square"/>
   </g>
   <g id="patch_3">
    <path d="M 107.699499 191.861008 
Q 105.914476 192.050504 103.994584 192.145685 
Q 102.074692 192.24 100.027865 192.24 
Q 95.402671 192.24 92.701335 191.675839 
Q 90 191.111678 90 190.146893 
Q 90 189.170859 92.748936 188.611025 
Q 95.501839 188.05119 100.289668 188.05119 
Q 102.134193 188.05119 103.824015 188.127334 
Q 105.517804 188.202613 107.017224 188.351441 
L 107.017224 189.186434 
Q 105.470203 188.995208 103.93905 188.900893 
Q 102.407896 188.805712 100.868809 188.805712 
Q 98.020705 188.805712 96.477652 189.153554 
Q 94.934598 189.50053 94.934598 190.146893 
Q 94.934598 190.787198 96.422118 191.136771 
Q 97.909637 191.485478 100.646673 191.485478 
Q 101.392416 191.485478 102.031058 191.465576 
Q 102.6697 191.44481 103.17744 191.401546 
L 103.17744 190.617604 
L 100.261901 190.617604 
L 100.261901 189.919325 
L 107.699499 189.919325 
L 107.699499 191.861008 
z
" clip-path="url(#p2fb5b65351)" style="fill: #ffa600"/>
   </g>
   <g id="patch_4">
    <path d="M 102.260459 186.525048 
L 95.453516 186.525048 
L 94.378735 188.05119 
L 90 188.05119 
L 96.253268 179.673569 
L 101.446231 179.673569 
L 107.699499 188.05119 
L 103.324383 188.05119 
L 102.260459 186.525048 
z
M 96.539153 184.970179 
L 101.163965 184.970179 
L 98.855178 181.637803 
L 96.539153 184.970179 
z
" clip-path="url(#p2fb5b65351)" style="fill: #008000"/>
   </g>
   <g id="patch_5">
    <path d="M 90 74.953313 
L 107.699499 74.953313 
L 107.699499 95.376681 
L 101.331796 95.376681 
L 101.331796 179.673569 
L 96.380052 179.673569 
L 96.380052 95.376681 
L 90 95.376681 
L 90 74.953313 
z
" clip-path="url(#p2fb5b65351)" style="fill: #ff0000"/>
   </g>
   <g id="patch_6">
    <path d="M 120.89151 191.941786 
L 114.084567 191.941786 
L 113.009787 192.24 
L 108.631052 192.24 
L 114.88432 190.602982 
L 120.077283 190.602982 
L 126.330551 192.24 
L 121.955434 192.24 
L 120.89151 191.941786 
z
M 115.170204 191.637959 
L 119.795017 191.637959 
L 117.48623 190.986801 
L 115.170204 191.637959 
z
" clip-path="url(#p2fb5b65351)" style="fill: #008000"/>
   </g>
   <g id="patch_7">
    <path d="M 126.330551 190.250961 
Q 124.850018 190.42545 123.249081 190.513709 
Q 121.648144 190.602982 119.904504 190.602982 
Q 114.704803 190.602982 111.667927 189.941548 
Q 108.631052 189.280113 108.631052 188.148978 
Q 108.631052 187.013785 111.667927 186.353365 
Q 114.704803 185.69193 119.904504 185.69193 
Q 121.648144 185.69193 123.249081 185.781203 
Q 124.850018 185.869462 126.330551 186.043951 
L 126.330551 187.022915 
Q 124.83664 186.791616 123.387324 186.684082 
Q 121.938007 186.576548 120.33707 186.576548 
Q 117.465193 186.576548 115.819662 186.995525 
Q 114.178589 187.413487 114.178589 188.148978 
Q 114.178589 188.881426 115.819662 189.300402 
Q 117.465193 189.718364 120.33707 189.718364 
Q 121.938007 189.718364 123.387324 189.61083 
Q 124.83664 189.502282 126.330551 189.270982 
L 126.330551 190.250961 
z
" clip-path="url(#p2fb5b65351)" style="fill: #0000ff"/>
   </g>
   <g id="patch_8">
    <path d="M 126.330551 185.247592 
Q 124.545527 185.469761 122.625636 185.581352 
Q 120.705744 185.69193 118.658917 185.69193 
Q 114.033723 185.69193 111.332387 185.030495 
Q 108.631052 184.36906 108.631052 183.237925 
Q 108.631052 182.093602 111.379988 181.43724 
Q 114.132891 180.780877 118.92072 180.780877 
Q 120.765244 180.780877 122.455067 180.87015 
Q 124.148856 180.958409 125.648275 181.132898 
L 125.648275 182.111863 
Q 124.101255 181.887665 122.570102 181.777087 
Q 121.038948 181.665496 119.499861 181.665496 
Q 116.651757 181.665496 115.108704 182.073313 
Q 113.56565 182.480115 113.56565 183.237925 
Q 113.56565 183.988633 115.053169 184.39848 
Q 116.540689 184.807311 119.277725 184.807311 
Q 120.023468 184.807311 120.66211 184.783978 
Q 121.300752 184.759631 121.808492 184.708908 
L 121.808492 183.789797 
L 118.892953 183.789797 
L 118.892953 182.971119 
L 126.330551 182.971119 
L 126.330551 185.247592 
z
" clip-path="url(#p2fb5b65351)" style="fill: #ffa600"/>
   </g>
   <g id="patch_9">
    <path d="M 108.631052 169.321754 
L 126.330551 169.321754 
L 126.330551 171.556602 
L 119.962847 171.556602 
L 119.962847 180.780877 
L 115.011104 180.780877 
L 115.011104 171.556602 
L 108.631052 171.556602 
L 108.631052 169.321754 
z
" clip-path="url(#p2fb5b65351)" style="fill: #ff0000"/>
   </g>
   <g id="patch_10">
    <path d="M 144.961603 191.473677 
Q 143.176579 191.856838 141.256687 192.049294 
Q 139.336795 192.24 137.289969 192.24 
Q 132.664774 192.24 129.963439 191.099263 
Q 127.262104 189.958526 127.262104 188.007725 
Q 127.262104 186.03418 130.01104 184.902191 
Q 132.763942 183.770202 137.551772 183.770202 
Q 139.396296 183.770202 141.086118 183.924166 
Q 142.779907 184.076381 144.279327 184.377312 
L 144.279327 186.065673 
Q 142.732307 185.679012 141.201153 185.488306 
Q 139.67 185.29585 138.130913 185.29585 
Q 135.282809 185.29585 133.739755 185.999188 
Q 132.196702 186.700777 132.196702 188.007725 
Q 132.196702 189.302427 133.684221 190.009264 
Q 135.171741 190.714352 137.908777 190.714352 
Q 138.65452 190.714352 139.293162 190.674111 
Q 139.931803 190.632121 140.439543 190.544641 
L 140.439543 188.959506 
L 137.524005 188.959506 
L 137.524005 187.547581 
L 144.961603 187.547581 
L 144.961603 191.473677 
z
" clip-path="url(#p2fb5b65351)" style="fill: #ffa600"/>
   </g>
   <g id="patch_11">
    <path d="M 139.522562 181.455801 
L 132.715619 181.455801 
L 131.640839 183.770202 
L 127.262104 183.770202 
L 133.515372 171.065505 
L 138.708335 171.065505 
L 144.961603 183.770202 
L 140.586486 183.770202 
L 139.522562 181.455801 
z
M 133.801256 179.097836 
L 138.426069 179.097836 
L 136.117281 174.044274 
L 133.801256 179.097836 
z
" clip-path="url(#p2fb5b65351)" style="fill: #008000"/>
   </g>
   <g id="patch_12">
    <path d="M 127.262104 132.951413 
L 144.961603 132.951413 
L 144.961603 140.384723 
L 138.593899 140.384723 
L 138.593899 171.065505 
L 133.642156 171.065505 
L 133.642156 140.384723 
L 127.262104 140.384723 
L 127.262104 132.951413 
z
" clip-path="url(#p2fb5b65351)" style="fill: #ff0000"/>
   </g>
   <g id="patch_13">
    <path d="M 145.893155 190.536683 
L 163.592654 190.536683 
L 163.592654 190.868877 
L 157.224951 190.868877 
L 157.224951 192.24 
L 152.273207 192.24 
L 152.273207 190.868877 
L 145.893155 190.868877 
L 145.893155 190.536683 
z
" clip-path="url(#p2fb5b65351)" style="fill: #ff0000"/>
   </g>
   <g id="patch_14">
    <path d="M 163.592654 190.292498 
Q 162.112122 190.413535 160.511185 190.474757 
Q 158.910247 190.536683 157.166608 190.536683 
Q 151.966906 190.536683 148.930031 190.077868 
Q 145.893155 189.619052 145.893155 188.834422 
Q 145.893155 188.046976 148.930031 187.588865 
Q 151.966906 187.130049 157.166608 187.130049 
Q 158.910247 187.130049 160.511185 187.191975 
Q 162.112122 187.253197 163.592654 187.374235 
L 163.592654 188.05331 
Q 162.098744 187.892865 160.649427 187.818272 
Q 159.200111 187.74368 157.599173 187.74368 
Q 154.727297 187.74368 153.081765 188.03431 
Q 151.440693 188.324236 151.440693 188.834422 
Q 151.440693 189.342496 153.081765 189.633126 
Q 154.727297 189.923053 157.599173 189.923053 
Q 159.200111 189.923053 160.649427 189.84846 
Q 162.098744 189.773164 163.592654 189.612719 
L 163.592654 190.292498 
z
" clip-path="url(#p2fb5b65351)" style="fill: #0000ff"/>
   </g>
   <g id="patch_15">
    <path d="M 158.153614 185.733738 
L 151.346671 185.733738 
L 150.27189 187.130049 
L 145.893155 187.130049 
L 152.146423 179.465123 
L 157.339386 179.465123 
L 163.592654 187.130049 
L 159.217538 187.130049 
L 158.153614 185.733738 
z
M 152.432308 184.311143 
L 157.057121 184.311143 
L 154.748333 181.262257 
L 152.432308 184.311143 
z
" clip-path="url(#p2fb5b65351)" style="fill: #008000"/>
   </g>
   <g id="patch_16">
    <path d="M 163.592654 178.463399 
Q 161.807631 178.964261 159.887739 179.215835 
Q 157.967847 179.465123 155.92102 179.465123 
Q 151.295826 179.465123 148.594491 177.973973 
Q 145.893155 176.482823 145.893155 173.932773 
Q 145.893155 171.352992 148.642091 169.873277 
Q 151.394994 168.393563 156.182824 168.393563 
Q 158.027348 168.393563 159.71717 168.594822 
Q 161.410959 168.793794 162.910379 169.187165 
L 162.910379 171.394159 
Q 161.363358 170.888723 159.832205 170.639436 
Q 158.301052 170.387861 156.761965 170.387861 
Q 153.913861 170.387861 152.370807 171.307251 
Q 150.827753 172.224354 150.827753 173.932773 
Q 150.827753 175.625183 152.315273 176.549147 
Q 153.802792 177.470824 156.539828 177.470824 
Q 157.285572 177.470824 157.924213 177.418222 
Q 158.562855 177.363333 159.070595 177.248981 
L 159.070595 175.176923 
L 156.155057 175.176923 
L 156.155057 173.331282 
L 163.592654 173.331282 
L 163.592654 178.463399 
z
" clip-path="url(#p2fb5b65351)" style="fill: #ffa600"/>
   </g>
   <g id="patch_17">
    <path d="M 182.223706 192.062525 
Q 180.743174 192.150495 179.142236 192.194992 
Q 177.541299 192.24 175.79766 192.24 
Q 170.597958 192.24 167.561083 191.90653 
Q 164.524207 191.573061 164.524207 191.002786 
Q 164.524207 190.430466 167.561083 190.097508 
Q 170.597958 189.764038 175.79766 189.764038 
Q 177.541299 189.764038 179.142236 189.809047 
Q 180.743174 189.853543 182.223706 189.941514 
L 182.223706 190.43507 
Q 180.729795 190.318457 179.280479 190.264243 
Q 177.831162 190.210029 176.230225 190.210029 
Q 173.358349 190.210029 171.712817 190.42126 
Q 170.071745 190.63198 170.071745 191.002786 
Q 170.071745 191.372058 171.712817 191.58329 
Q 173.358349 191.79401 176.230225 191.79401 
Q 177.831162 191.79401 179.280479 191.739795 
Q 180.729795 191.68507 182.223706 191.568457 
L 182.223706 192.062525 
z
" clip-path="url(#p2fb5b65351)" style="fill: #0000ff"/>
   </g>
   <g id="patch_18">
    <path d="M 164.524207 187.288077 
L 182.223706 187.288077 
L 182.223706 187.770958 
L 175.856003 187.770958 
L 175.856003 189.764038 
L 170.904259 189.764038 
L 170.904259 187.770958 
L 164.524207 187.770958 
L 164.524207 187.288077 
z
" clip-path="url(#p2fb5b65351)" style="fill: #ff0000"/>
   </g>
   <g id="patch_19">
    <path d="M 176.784666 184.581818 
L 169.977723 184.581818 
L 168.902942 187.288077 
L 164.524207 187.288077 
L 170.777475 172.432307 
L 175.970438 172.432307 
L 182.223706 187.288077 
L 177.84859 187.288077 
L 176.784666 184.581818 
z
M 171.06336 181.824618 
L 175.688172 181.824618 
L 173.379385 175.915422 
L 171.06336 181.824618 
z
" clip-path="url(#p2fb5b65351)" style="fill: #008000"/>
   </g>
   <g id="patch_20">
    <path d="M 182.223706 167.951947 
Q 180.438683 170.192127 178.518791 171.317332 
Q 176.598899 172.432307 174.552072 172.432307 
Q 169.926878 172.432307 167.225542 165.762912 
Q 164.524207 159.093518 164.524207 147.688035 
Q 164.524207 136.149573 167.273143 129.531324 
Q 170.026046 122.913075 174.813876 122.913075 
Q 176.6584 122.913075 178.348222 123.813238 
Q 180.042011 124.703173 181.541431 126.462584 
L 181.541431 136.333697 
Q 179.99441 134.073059 178.463257 132.958083 
Q 176.932103 131.832879 175.393016 131.832879 
Q 172.544912 131.832879 171.001859 135.94499 
Q 169.458805 140.046872 169.458805 147.688035 
Q 169.458805 155.257593 170.946325 159.390163 
Q 172.433844 163.512503 175.17088 163.512503 
Q 175.916623 163.512503 176.555265 163.277233 
Q 177.193907 163.031734 177.701647 162.520277 
L 177.701647 153.252683 
L 174.786108 153.252683 
L 174.786108 144.997773 
L 182.223706 144.997773 
L 182.223706 167.951947 
z
" clip-path="url(#p2fb5b65351)" style="fill: #ffa600"/>
   </g>
   <g id="patch_21">
    <path d="M 183.155259 186.296306 
L 200.854758 186.296306 
L 200.854758 187.455492 
L 194.487054 187.455492 
L 194.487054 192.24 
L 189.535311 192.24 
L 189.535311 187.455492 
L 183.155259 187.455492 
L 183.155259 186.296306 
z
" clip-path="url(#p2fb5b65351)" style="fill: #ff0000"/>
   </g>
   <g id="patch_22">
    <path d="M 195.415717 183.048038 
L 188.608774 183.048038 
L 187.533994 186.296306 
L 183.155259 186.296306 
L 189.408527 168.465225 
L 194.60149 168.465225 
L 200.854758 186.296306 
L 196.479641 186.296306 
L 195.415717 183.048038 
z
M 189.694411 179.738626 
L 194.319224 179.738626 
L 192.010437 172.645937 
L 189.694411 179.738626 
z
" clip-path="url(#p2fb5b65351)" style="fill: #008000"/>
   </g>
   <g id="patch_23">
    <path d="M 200.854758 165.597125 
Q 199.069734 167.031175 197.149843 167.751474 
Q 195.229951 168.465225 193.183124 168.465225 
Q 188.55793 168.465225 185.856594 164.195817 
Q 183.155259 159.926408 183.155259 152.625197 
Q 183.155259 145.238859 185.904195 141.002191 
Q 188.657098 136.765524 193.444927 136.765524 
Q 195.289451 136.765524 196.979274 137.341763 
Q 198.673063 137.911454 200.172482 139.03774 
L 200.172482 145.356726 
Q 198.625462 143.90958 197.094309 143.195829 
Q 195.563155 142.47553 194.024068 142.47553 
Q 191.175964 142.47553 189.632911 145.107895 
Q 188.089857 147.733712 188.089857 152.625197 
Q 188.089857 157.470844 189.577376 160.116305 
Q 191.064896 162.755219 193.801932 162.755219 
Q 194.547675 162.755219 195.186317 162.604611 
Q 195.824959 162.447455 196.332699 162.120046 
L 196.332699 156.187402 
L 193.41716 156.187402 
L 193.41716 150.903027 
L 200.854758 150.903027 
L 200.854758 165.597125 
z
" clip-path="url(#p2fb5b65351)" style="fill: #ffa600"/>
   </g>
   <g id="patch_24">
    <path d="M 219.48581 191.941424 
Q 217.700786 192.090712 215.780894 192.165697 
Q 213.861002 192.24 211.814176 192.24 
Q 207.188981 192.24 204.487646 191.795545 
Q 201.786311 191.35109 201.786311 190.591018 
Q 201.786311 189.822084 204.535247 189.381037 
Q 207.288149 188.939991 212.075979 188.939991 
Q 213.920503 188.939991 215.610325 188.999979 
Q 217.304114 189.059285 218.803534 189.176533 
L 218.803534 189.834354 
Q 217.256514 189.683703 215.72536 189.6094 
Q 214.194207 189.534415 212.65512 189.534415 
Q 209.807016 189.534415 208.263962 189.80845 
Q 206.720909 190.081803 206.720909 190.591018 
Q 206.720909 191.095461 208.208428 191.370859 
Q 209.695948 191.645576 212.432984 191.645576 
Q 213.178727 191.645576 213.817369 191.629897 
Q 214.45601 191.613537 214.96375 191.579453 
L 214.96375 190.961851 
L 212.048212 190.961851 
L 212.048212 190.411736 
L 219.48581 190.411736 
L 219.48581 191.941424 
z
" clip-path="url(#p2fb5b65351)" style="fill: #ffa600"/>
   </g>
   <g id="patch_25">
    <path d="M 201.786311 172.439945 
L 219.48581 172.439945 
L 219.48581 175.657913 
L 213.118106 175.657913 
L 213.118106 188.939991 
L 208.166363 188.939991 
L 208.166363 175.657913 
L 201.786311 175.657913 
L 201.786311 172.439945 
z
" clip-path="url(#p2fb5b65351)" style="fill: #ff0000"/>
   </g>
   <g id="patch_26">
    <path d="M 214.046769 159.214447 
L 207.239826 159.214447 
L 206.165046 172.439945 
L 201.786311 172.439945 
L 208.039579 99.839741 
L 213.232542 99.839741 
L 219.48581 172.439945 
L 215.110693 172.439945 
L 214.046769 159.214447 
z
M 208.325463 145.739998 
L 212.950276 145.739998 
L 210.641488 116.861735 
L 208.325463 145.739998 
z
" clip-path="url(#p2fb5b65351)" style="fill: #008000"/>
   </g>
   <g id="patch_27">
    <path d="M 238.116861 191.899568 
Q 236.636329 192.068312 235.035392 192.153666 
Q 233.434454 192.24 231.690815 192.24 
Q 226.491113 192.24 223.454238 191.600341 
Q 220.417362 190.960681 220.417362 189.866785 
Q 220.417362 188.768965 223.454238 188.130287 
Q 226.491113 187.490627 231.690815 187.490627 
Q 233.434454 187.490627 235.035392 187.576962 
Q 236.636329 187.662315 238.116861 187.831059 
L 238.116861 188.777795 
Q 236.622951 188.55411 235.173634 188.450116 
Q 233.724318 188.346123 232.12338 188.346123 
Q 229.251504 188.346123 227.605972 188.751306 
Q 225.9649 189.155508 225.9649 189.866785 
Q 225.9649 190.57512 227.605972 190.980303 
Q 229.251504 191.384505 232.12338 191.384505 
Q 233.724318 191.384505 235.173634 191.280511 
Q 236.622951 191.175536 238.116861 190.951852 
L 238.116861 191.899568 
z
" clip-path="url(#p2fb5b65351)" style="fill: #0000ff"/>
   </g>
   <g id="patch_28">
    <path d="M 220.417362 182.741255 
L 238.116861 182.741255 
L 238.116861 183.667515 
L 231.749158 183.667515 
L 231.749158 187.490627 
L 226.797414 187.490627 
L 226.797414 183.667515 
L 220.417362 183.667515 
L 220.417362 182.741255 
z
" clip-path="url(#p2fb5b65351)" style="fill: #ff0000"/>
   </g>
   <g id="patch_29">
    <path d="M 238.116861 182.09669 
Q 236.331838 182.418972 234.411946 182.580849 
Q 232.492054 182.741255 230.445227 182.741255 
Q 225.820033 182.741255 223.118698 181.781765 
Q 220.417362 180.822276 220.417362 179.181432 
Q 220.417362 177.521457 223.166298 176.569326 
Q 225.919201 175.617195 230.707031 175.617195 
Q 232.551555 175.617195 234.241377 175.746697 
Q 235.935166 175.874727 237.434586 176.127844 
L 237.434586 177.547946 
Q 235.887565 177.222721 234.356412 177.062315 
Q 232.825259 176.900438 231.286172 176.900438 
Q 228.438068 176.900438 226.895014 177.492025 
Q 225.35196 178.08214 225.35196 179.181432 
Q 225.35196 180.270423 226.83948 180.864953 
Q 228.327 181.458012 231.064035 181.458012 
Q 231.809779 181.458012 232.44842 181.424164 
Q 233.087062 181.388846 233.594802 181.315265 
L 233.594802 179.981988 
L 230.679264 179.981988 
L 230.679264 178.794399 
L 238.116861 178.794399 
L 238.116861 182.09669 
z
" clip-path="url(#p2fb5b65351)" style="fill: #ffa600"/>
   </g>
   <g id="patch_30">
    <path d="M 232.677821 166.532722 
L 225.870878 166.532722 
L 224.796097 175.617195 
L 220.417362 175.617195 
L 226.67063 125.748782 
L 231.863593 125.748782 
L 238.116861 175.617195 
L 233.741745 175.617195 
L 232.677821 166.532722 
z
M 226.956515 157.277247 
L 231.581328 157.277247 
L 229.27254 137.441033 
L 226.956515 157.277247 
z
" clip-path="url(#p2fb5b65351)" style="fill: #008000"/>
   </g>
   <g id="patch_31">
    <path d="M 239.048414 189.324721 
L 256.747913 189.324721 
L 256.747913 189.893282 
L 250.38021 189.893282 
L 250.38021 192.24 
L 245.428466 192.24 
L 245.428466 189.893282 
L 239.048414 189.893282 
L 239.048414 189.324721 
z
" clip-path="url(#p2fb5b65351)" style="fill: #ff0000"/>
   </g>
   <g id="patch_32">
    <path d="M 251.308873 185.60721 
L 244.50193 185.60721 
L 243.427149 189.324721 
L 239.048414 189.324721 
L 245.301682 168.917771 
L 250.494645 168.917771 
L 256.747913 189.324721 
L 252.372797 189.324721 
L 251.308873 185.60721 
z
M 245.587567 181.819722 
L 250.212379 181.819722 
L 247.903592 173.702427 
L 245.587567 181.819722 
z
" clip-path="url(#p2fb5b65351)" style="fill: #008000"/>
   </g>
   <g id="patch_33">
    <path d="M 256.747913 163.642447 
Q 254.96289 166.280109 253.042998 167.604962 
Q 251.123106 168.917771 249.076279 168.917771 
Q 244.451085 168.917771 241.74975 161.065006 
Q 239.048414 153.212241 239.048414 139.78305 
Q 239.048414 126.197286 241.79735 118.404742 
Q 244.550253 110.612198 249.338083 110.612198 
Q 251.182607 110.612198 252.872429 111.67208 
Q 254.566218 112.719918 256.065638 114.791506 
L 256.065638 126.41408 
Q 254.518617 123.75233 252.987464 122.439521 
Q 251.45631 121.114668 249.917223 121.114668 
Q 247.069119 121.114668 245.526066 125.956403 
Q 243.983012 130.786095 243.983012 139.78305 
Q 243.983012 148.695697 245.470532 153.561521 
Q 246.958051 158.4153 249.695087 158.4153 
Q 250.44083 158.4153 251.079472 158.138286 
Q 251.718114 157.849227 252.225854 157.247021 
L 252.225854 146.33505 
L 249.310315 146.33505 
L 249.310315 136.615447 
L 256.747913 136.615447 
L 256.747913 163.642447 
z
" clip-path="url(#p2fb5b65351)" style="fill: #ffa600"/>
   </g>
   <g id="patch_34">
    <path d="M 257.679466 188.939991 
L 275.378965 188.939991 
L 275.378965 189.583584 
L 269.011261 189.583584 
L 269.011261 192.24 
L 264.059518 192.24 
L 264.059518 189.583584 
L 257.679466 189.583584 
L 257.679466 188.939991 
z
" clip-path="url(#p2fb5b65351)" style="fill: #ff0000"/>
   </g>
   <g id="patch_35">
    <path d="M 275.378965 187.447113 
Q 273.593941 188.193552 271.67405 188.568476 
Q 269.754158 188.939991 267.707331 188.939991 
Q 263.082137 188.939991 260.380801 186.717716 
Q 257.679466 184.495442 257.679466 180.69508 
Q 257.679466 176.850409 260.428402 174.645177 
Q 263.181305 172.439945 267.969134 172.439945 
Q 269.813659 172.439945 271.503481 172.739883 
Q 273.19727 173.036414 274.696689 173.622658 
L 274.696689 176.91176 
Q 273.149669 176.158505 271.618516 175.78699 
Q 270.087362 175.412066 268.548275 175.412066 
Q 265.700171 175.412066 264.157118 176.782241 
Q 262.614064 178.149008 262.614064 180.69508 
Q 262.614064 183.217293 264.101583 184.594286 
Q 265.589103 185.967869 268.326139 185.967869 
Q 269.071882 185.967869 269.710524 185.889476 
Q 270.349166 185.807675 270.856906 185.637255 
L 270.856906 182.549248 
L 267.941367 182.549248 
L 267.941367 179.798672 
L 275.378965 179.798672 
L 275.378965 187.447113 
z
" clip-path="url(#p2fb5b65351)" style="fill: #ffa600"/>
   </g>
   <g id="patch_36">
    <path d="M 269.939924 159.214447 
L 263.132981 159.214447 
L 262.058201 172.439945 
L 257.679466 172.439945 
L 263.932734 99.839741 
L 269.125697 99.839741 
L 275.378965 172.439945 
L 271.003849 172.439945 
L 269.939924 159.214447 
z
M 264.218618 145.739998 
L 268.843431 145.739998 
L 266.534644 116.861735 
L 264.218618 145.739998 
z
" clip-path="url(#p2fb5b65351)" style="fill: #008000"/>
   </g>
   <g id="patch_37">
    <path d="M 288.570976 192.022452 
L 281.764033 192.022452 
L 280.689253 192.24 
L 276.310518 192.24 
L 282.563786 191.04579 
L 287.756749 191.04579 
L 294.010017 192.24 
L 289.6349 192.24 
L 288.570976 192.022452 
z
M 282.84967 191.800809 
L 287.474483 191.800809 
L 285.165695 191.325787 
L 282.84967 191.800809 
z
" clip-path="url(#p2fb5b65351)" style="fill: #008000"/>
   </g>
   <g id="patch_38">
    <path d="M 294.010017 190.505546 
Q 292.224993 190.775668 290.305101 190.911346 
Q 288.385209 191.04579 286.338383 191.04579 
Q 281.713188 191.04579 279.011853 190.241591 
Q 276.310518 189.437393 276.310518 188.062115 
Q 276.310518 186.670802 279.059454 185.872771 
Q 281.812356 185.07474 286.600186 185.07474 
Q 288.44471 185.07474 290.134532 185.183282 
Q 291.828321 185.29059 293.327741 185.502741 
L 293.327741 186.693004 
Q 291.780721 186.420415 290.249567 186.285971 
Q 288.718414 186.150293 287.179327 186.150293 
Q 284.331223 186.150293 282.788169 186.646134 
Q 281.245116 187.14074 281.245116 188.062115 
Q 281.245116 188.974856 282.732635 189.473163 
Q 284.220155 189.970236 286.957191 189.970236 
Q 287.702934 189.970236 288.341576 189.941867 
Q 288.980217 189.912265 289.487957 189.850593 
L 289.487957 188.733103 
L 286.572419 188.733103 
L 286.572419 187.737722 
L 294.010017 187.737722 
L 294.010017 190.505546 
z
" clip-path="url(#p2fb5b65351)" style="fill: #ffa600"/>
   </g>
   <g id="patch_39">
    <path d="M 294.010017 184.475538 
Q 292.529484 184.772548 290.928547 184.922781 
Q 289.32761 185.07474 287.58397 185.07474 
Q 282.384269 185.07474 279.347393 183.948862 
Q 276.310518 182.822984 276.310518 180.897595 
Q 276.310518 178.965298 279.347393 177.841147 
Q 282.384269 176.715269 287.58397 176.715269 
Q 289.32761 176.715269 290.928547 176.867228 
Q 292.529484 177.01746 294.010017 177.314471 
L 294.010017 178.980839 
Q 292.516106 178.587127 291.066789 178.404086 
Q 289.617473 178.221044 288.016535 178.221044 
Q 285.144659 178.221044 283.499127 178.934216 
Q 281.858055 179.64566 281.858055 180.897595 
Q 281.858055 182.144349 283.499127 182.85752 
Q 285.144659 183.568964 288.016535 183.568964 
Q 289.617473 183.568964 291.066789 183.385923 
Q 292.516106 183.201155 294.010017 182.807443 
L 294.010017 184.475538 
z
" clip-path="url(#p2fb5b65351)" style="fill: #0000ff"/>
   </g>
   <g id="patch_40">
    <path d="M 276.310518 158.802118 
L 294.010017 158.802118 
L 294.010017 162.295682 
L 287.642313 162.295682 
L 287.642313 176.715269 
L 282.69057 176.715269 
L 282.69057 162.295682 
L 276.310518 162.295682 
L 276.310518 158.802118 
z
" clip-path="url(#p2fb5b65351)" style="fill: #ff0000"/>
   </g>
   <g id="patch_41">
    <path d="M 312.641068 191.406427 
Q 310.856045 191.823213 308.936153 192.032558 
Q 307.016261 192.24 304.969434 192.24 
Q 300.34424 192.24 297.642905 190.999156 
Q 294.941569 189.758312 294.941569 187.636316 
Q 294.941569 185.489579 297.690505 184.25825 
Q 300.443408 183.026922 305.231238 183.026922 
Q 307.075762 183.026922 308.765584 183.194398 
Q 310.459373 183.359971 311.958793 183.68731 
L 311.958793 185.523835 
Q 310.411772 185.103243 308.880619 184.895801 
Q 307.349466 184.686456 305.810379 184.686456 
Q 302.962275 184.686456 301.419221 185.451516 
Q 299.876167 186.214674 299.876167 187.636316 
Q 299.876167 189.044636 301.363687 189.813502 
Q 302.851207 190.580466 305.588242 190.580466 
Q 306.333986 190.580466 306.972627 190.536694 
Q 307.611269 190.491019 308.119009 190.395862 
L 308.119009 188.671621 
L 305.203471 188.671621 
L 305.203471 187.135791 
L 312.641068 187.135791 
L 312.641068 191.406427 
z
" clip-path="url(#p2fb5b65351)" style="fill: #ffa600"/>
   </g>
   <g id="patch_42">
    <path d="M 307.202028 180.929002 
L 300.395085 180.929002 
L 299.320305 183.026922 
L 294.941569 183.026922 
L 301.194837 171.510574 
L 306.3878 171.510574 
L 312.641068 183.026922 
L 308.265952 183.026922 
L 307.202028 180.929002 
z
M 301.480722 178.791591 
L 306.105535 178.791591 
L 303.796747 174.210721 
L 301.480722 178.791591 
z
" clip-path="url(#p2fb5b65351)" style="fill: #008000"/>
   </g>
   <g id="patch_43">
    <path d="M 294.941569 127.748454 
L 312.641068 127.748454 
L 312.641068 136.283286 
L 306.273365 136.283286 
L 306.273365 171.510574 
L 301.321621 171.510574 
L 301.321621 136.283286 
L 294.941569 136.283286 
L 294.941569 127.748454 
z
" clip-path="url(#p2fb5b65351)" style="fill: #ff0000"/>
   </g>
   <g id="patch_44">
    <path d="M 313.572621 169.957787 
L 331.27212 169.957787 
L 331.27212 174.30344 
L 324.904417 174.30344 
L 324.904417 192.24 
L 319.952673 192.24 
L 319.952673 174.30344 
L 313.572621 174.30344 
L 313.572621 169.957787 
z
" clip-path="url(#p2fb5b65351)" style="fill: #ff0000"/>
   </g>
   <g id="patch_45">
    <path d="M 331.27212 162.565672 
Q 329.487097 166.26173 327.567205 168.118197 
Q 325.647313 169.957787 323.600486 169.957787 
Q 318.975292 169.957787 316.273957 158.953998 
Q 313.572621 147.950209 313.572621 129.13238 
Q 313.572621 110.09515 316.321557 99.175746 
Q 319.07446 88.256342 323.86229 88.256342 
Q 325.706814 88.256342 327.396636 89.741516 
Q 329.090425 91.209813 330.589845 94.112653 
L 330.589845 110.398935 
Q 329.042824 106.669124 327.511671 104.829533 
Q 325.980517 102.973066 324.44143 102.973066 
Q 321.593326 102.973066 320.050273 109.75761 
Q 318.507219 116.525278 318.507219 129.13238 
Q 318.507219 141.621343 319.994739 148.439642 
Q 321.482258 155.241063 324.219294 155.241063 
Q 324.965037 155.241063 325.603679 154.852893 
Q 326.242321 154.447846 326.750061 153.603997 
L 326.750061 138.313456 
L 323.834523 138.313456 
L 323.834523 124.693735 
L 331.27212 124.693735 
L 331.27212 162.565672 
z
" clip-path="url(#p2fb5b65351)" style="fill: #ffa600"/>
   </g>
   <g id="patch_46">
    <path d="M 349.903172 192.146417 
Q 348.422639 192.192804 346.821702 192.216267 
Q 345.220765 192.24 343.477126 192.24 
Q 338.277424 192.24 335.240548 192.064162 
Q 332.203673 191.888324 332.203673 191.587619 
Q 332.203673 191.285836 335.240548 191.110267 
Q 338.277424 190.934429 343.477126 190.934429 
Q 345.220765 190.934429 346.821702 190.958162 
Q 348.422639 190.981625 349.903172 191.028012 
L 349.903172 191.288263 
Q 348.409261 191.226773 346.959945 191.198186 
Q 345.510628 191.169599 343.909691 191.169599 
Q 341.037814 191.169599 339.392283 191.280981 
Q 337.75121 191.392094 337.75121 191.587619 
Q 337.75121 191.782335 339.392283 191.893718 
Q 341.037814 192.00483 343.909691 192.00483 
Q 345.510628 192.00483 346.959945 191.976243 
Q 348.409261 191.947386 349.903172 191.885897 
L 349.903172 192.146417 
z
" clip-path="url(#p2fb5b65351)" style="fill: #0000ff"/>
   </g>
   <g id="patch_47">
    <path d="M 349.903172 190.580056 
Q 348.118149 190.757242 346.198257 190.84624 
Q 344.278365 190.934429 342.231538 190.934429 
Q 337.606344 190.934429 334.905008 190.406915 
Q 332.203673 189.8794 332.203673 188.977286 
Q 332.203673 188.064654 334.952609 187.541185 
Q 337.705512 187.017716 342.493341 187.017716 
Q 344.337866 187.017716 346.027688 187.088914 
Q 347.721477 187.159303 349.220896 187.298464 
L 349.220896 188.079217 
Q 347.673876 187.900412 346.142723 187.812224 
Q 344.611569 187.723226 343.072482 187.723226 
Q 340.224378 187.723226 338.681325 188.048472 
Q 337.138271 188.37291 337.138271 188.977286 
Q 337.138271 189.575999 338.62579 189.902863 
Q 340.11331 190.228919 342.850346 190.228919 
Q 343.596089 190.228919 344.234731 190.21031 
Q 344.873373 190.190893 345.381113 190.150439 
L 345.381113 189.417421 
L 342.465574 189.417421 
L 342.465574 188.7645 
L 349.903172 188.7645 
L 349.903172 190.580056 
z
" clip-path="url(#p2fb5b65351)" style="fill: #ffa600"/>
   </g>
   <g id="patch_48">
    <path d="M 344.464131 184.401537 
L 337.657188 184.401537 
L 336.582408 187.017716 
L 332.203673 187.017716 
L 338.456941 172.656434 
L 343.649904 172.656434 
L 349.903172 187.017716 
L 345.528056 187.017716 
L 344.464131 184.401537 
z
M 338.742825 181.736113 
L 343.367638 181.736113 
L 341.058851 176.02361 
L 338.742825 181.736113 
z
" clip-path="url(#p2fb5b65351)" style="fill: #008000"/>
   </g>
   <g id="patch_49">
    <path d="M 332.203673 155.684011 
L 349.903172 155.684011 
L 349.903172 158.994106 
L 343.535468 158.994106 
L 343.535468 172.656434 
L 338.583725 172.656434 
L 338.583725 158.994106 
L 332.203673 158.994106 
L 332.203673 155.684011 
z
" clip-path="url(#p2fb5b65351)" style="fill: #ff0000"/>
   </g>
   <g id="patch_50">
    <path d="M 363.095183 191.793504 
L 356.28824 191.793504 
L 355.21346 192.24 
L 350.834725 192.24 
L 357.087993 189.789002 
L 362.280956 189.789002 
L 368.534224 192.24 
L 364.159107 192.24 
L 363.095183 191.793504 
z
M 357.373877 191.338604 
L 361.99869 191.338604 
L 359.689902 190.363668 
L 357.373877 191.338604 
z
" clip-path="url(#p2fb5b65351)" style="fill: #008000"/>
   </g>
   <g id="patch_51">
    <path d="M 368.534224 189.613316 
Q 367.053691 189.700399 365.452754 189.744448 
Q 363.851817 189.789002 362.108177 189.789002 
Q 356.908476 189.789002 353.8716 189.458894 
Q 350.834725 189.128787 350.834725 188.564262 
Q 350.834725 187.997713 353.8716 187.668111 
Q 356.908476 187.338004 362.108177 187.338004 
Q 363.851817 187.338004 365.452754 187.382558 
Q 367.053691 187.426606 368.534224 187.51369 
L 368.534224 188.002269 
Q 367.040313 187.886833 365.590996 187.833165 
Q 364.14168 187.779497 362.540743 187.779497 
Q 359.668866 187.779497 358.023334 187.988599 
Q 356.382262 188.197195 356.382262 188.564262 
Q 356.382262 188.929811 358.023334 189.138913 
Q 359.668866 189.347508 362.540743 189.347508 
Q 364.14168 189.347508 365.590996 189.293841 
Q 367.040313 189.239666 368.534224 189.12423 
L 368.534224 189.613316 
z
" clip-path="url(#p2fb5b65351)" style="fill: #0000ff"/>
   </g>
   <g id="patch_52">
    <path d="M 368.534224 186.118327 
Q 366.7492 186.728166 364.829308 187.034477 
Q 362.909416 187.338004 360.86259 187.338004 
Q 356.237396 187.338004 353.53606 185.522412 
Q 350.834725 183.706821 350.834725 180.601936 
Q 350.834725 177.460851 353.583661 175.659183 
Q 356.336563 173.857514 361.124393 173.857514 
Q 362.968917 173.857514 364.658739 174.102564 
Q 366.352528 174.344828 367.851948 174.823788 
L 367.851948 177.510975 
Q 366.304928 176.895567 364.773774 176.59204 
Q 363.242621 176.285729 361.703534 176.285729 
Q 358.85543 176.285729 357.312376 177.405158 
Q 355.769323 178.521803 355.769323 180.601936 
Q 355.769323 182.662577 357.256842 183.787575 
Q 358.744362 184.909789 361.481398 184.909789 
Q 362.227141 184.909789 362.865783 184.845742 
Q 363.504424 184.778911 364.012164 184.639678 
L 364.012164 182.116786 
L 361.096626 182.116786 
L 361.096626 179.869573 
L 368.534224 179.869573 
L 368.534224 186.118327 
z
" clip-path="url(#p2fb5b65351)" style="fill: #ffa600"/>
   </g>
   <g id="patch_53">
    <path d="M 350.834725 157.926027 
L 368.534224 157.926027 
L 368.534224 161.033111 
L 362.16652 161.033111 
L 362.16652 173.857514 
L 357.214777 173.857514 
L 357.214777 161.033111 
L 350.834725 161.033111 
L 350.834725 157.926027 
z
" clip-path="url(#p2fb5b65351)" style="fill: #ff0000"/>
   </g>
   <g id="patch_54">
    <path d="M 381.726235 161.941672 
L 374.919292 161.941672 
L 373.844512 192.24 
L 369.465776 192.24 
L 375.719044 25.92 
L 380.912007 25.92 
L 387.165275 192.24 
L 382.790159 192.24 
L 381.726235 161.941672 
z
M 376.004929 131.073022 
L 380.629742 131.073022 
L 378.320954 64.915731 
L 376.004929 131.073022 
z
" clip-path="url(#p2fb5b65351)" style="fill: #008000"/>
   </g>
   <g id="patch_55">
    <path d="M 405.796327 192.131951 
Q 404.011304 192.185976 402.091412 192.213111 
Q 400.17152 192.24 398.124693 192.24 
Q 393.499499 192.24 390.798164 192.07916 
Q 388.096828 191.918321 388.096828 191.643265 
Q 388.096828 191.365002 390.845764 191.205396 
Q 393.598667 191.04579 398.386497 191.04579 
Q 400.231021 191.04579 401.920843 191.067498 
Q 403.614632 191.08896 405.114052 191.13139 
L 405.114052 191.369443 
Q 403.567031 191.314925 402.035878 191.288036 
Q 400.504724 191.260901 398.965637 191.260901 
Q 396.117533 191.260901 394.57448 191.360069 
Q 393.031426 191.45899 393.031426 191.643265 
Q 393.031426 191.825813 394.518946 191.925475 
Q 396.006465 192.024889 398.743501 192.024889 
Q 399.489244 192.024889 400.127886 192.019215 
Q 400.766528 192.013295 401.274268 192.000961 
L 401.274268 191.777463 
L 398.35873 191.777463 
L 398.35873 191.578386 
L 405.796327 191.578386 
L 405.796327 192.131951 
z
" clip-path="url(#p2fb5b65351)" style="fill: #ffa600"/>
   </g>
   <g id="patch_56">
    <path d="M 405.796327 190.617789 
Q 404.315795 190.829939 402.714857 190.937248 
Q 401.11392 191.04579 399.370281 191.04579 
Q 394.170579 191.04579 391.133704 190.241591 
Q 388.096828 189.437393 388.096828 188.062115 
Q 388.096828 186.681903 391.133704 185.878938 
Q 394.170579 185.07474 399.370281 185.07474 
Q 401.11392 185.07474 402.714857 185.183282 
Q 404.315795 185.29059 405.796327 185.502741 
L 405.796327 186.693004 
Q 404.302416 186.411781 402.8531 186.281037 
Q 401.403783 186.150293 399.802846 186.150293 
Q 396.93097 186.150293 395.285438 186.659701 
Q 393.644366 187.167876 393.644366 188.062115 
Q 393.644366 188.952654 395.285438 189.462062 
Q 396.93097 189.970236 399.802846 189.970236 
Q 401.403783 189.970236 402.8531 189.839492 
Q 404.302416 189.707515 405.796327 189.426292 
L 405.796327 190.617789 
z
" clip-path="url(#p2fb5b65351)" style="fill: #0000ff"/>
   </g>
   <g id="patch_57">
    <path d="M 388.096828 176.715269 
L 405.796327 176.715269 
L 405.796327 178.345599 
L 399.428624 178.345599 
L 399.428624 185.07474 
L 394.47688 185.07474 
L 394.47688 178.345599 
L 388.096828 178.345599 
L 388.096828 176.715269 
z
" clip-path="url(#p2fb5b65351)" style="fill: #ff0000"/>
   </g>
   <g id="patch_58">
    <path d="M 400.357287 173.452051 
L 393.550344 173.452051 
L 392.475563 176.715269 
L 388.096828 176.715269 
L 394.350096 158.802118 
L 399.543059 158.802118 
L 405.796327 176.715269 
L 401.421211 176.715269 
L 400.357287 173.452051 
z
M 394.635981 170.127407 
L 399.260793 170.127407 
L 396.952006 163.002073 
L 394.635981 170.127407 
z
" clip-path="url(#p2fb5b65351)" style="fill: #008000"/>
   </g>
   <g id="patch_59">
    <path d="M 418.988338 161.941672 
L 412.181395 161.941672 
L 411.106615 192.24 
L 406.72788 192.24 
L 412.981148 25.92 
L 418.174111 25.92 
L 424.427379 192.24 
L 420.052263 192.24 
L 418.988338 161.941672 
z
M 413.267032 131.073022 
L 417.891845 131.073022 
L 415.583058 64.915731 
L 413.267032 131.073022 
z
" clip-path="url(#p2fb5b65351)" style="fill: #008000"/>
   </g>
   <g id="patch_60">
    <path d="M 443.058431 191.622126 
Q 441.273407 191.931063 439.353515 192.086237 
Q 437.433623 192.24 435.386797 192.24 
Q 430.761603 192.24 428.060267 191.320242 
Q 425.358932 190.400483 425.358932 188.827584 
Q 425.358932 187.236346 428.107868 186.323641 
Q 430.86077 185.410936 435.6486 185.410936 
Q 437.493124 185.410936 439.182946 185.535075 
Q 440.876735 185.657804 442.376155 185.900439 
L 442.376155 187.261738 
Q 440.829135 186.949979 439.297981 186.796216 
Q 437.766828 186.641042 436.227741 186.641042 
Q 433.379637 186.641042 431.836583 187.208132 
Q 430.29353 187.773812 430.29353 188.827584 
Q 430.29353 189.871481 431.781049 190.441393 
Q 433.268569 191.009894 436.005605 191.009894 
Q 436.751348 191.009894 437.38999 190.977448 
Q 438.028631 190.943592 438.536371 190.873059 
L 438.536371 189.59499 
L 435.620833 189.59499 
L 435.620833 188.456577 
L 443.058431 188.456577 
L 443.058431 191.622126 
z
" clip-path="url(#p2fb5b65351)" style="fill: #ffa600"/>
   </g>
   <g id="patch_61">
    <path d="M 443.058431 184.676681 
Q 441.577898 185.040634 439.976961 185.224727 
Q 438.376024 185.410936 436.632384 185.410936 
Q 431.432683 185.410936 428.395807 184.031298 
Q 425.358932 182.651661 425.358932 180.292312 
Q 425.358932 177.924498 428.395807 176.546977 
Q 431.432683 175.16734 436.632384 175.16734 
Q 438.376024 175.16734 439.976961 175.353548 
Q 441.577898 175.537641 443.058431 175.901595 
L 443.058431 177.943543 
Q 441.56452 177.461093 440.115203 177.236796 
Q 438.665887 177.012499 437.06495 177.012499 
Q 434.193073 177.012499 432.547541 177.88641 
Q 430.906469 178.758206 430.906469 180.292312 
Q 430.906469 181.82007 432.547541 182.693981 
Q 434.193073 183.565777 437.06495 183.565777 
Q 438.665887 183.565777 440.115203 183.34148 
Q 441.56452 183.115067 443.058431 182.632617 
L 443.058431 184.676681 
z
" clip-path="url(#p2fb5b65351)" style="fill: #0000ff"/>
   </g>
   <g id="patch_62">
    <path d="M 425.358932 96.633102 
L 443.058431 96.633102 
L 443.058431 111.949467 
L 436.690727 111.949467 
L 436.690727 175.16734 
L 431.738984 175.16734 
L 431.738984 111.949467 
L 425.358932 111.949467 
L 425.358932 96.633102 
z
" clip-path="url(#p2fb5b65351)" style="fill: #ff0000"/>
   </g>
   <g id="patch_63">
    <path d="M 461.689482 192.129608 
Q 460.20895 192.184327 458.608013 192.212004 
Q 457.007075 192.24 455.263436 192.24 
Q 450.063734 192.24 447.026859 192.032577 
Q 443.989983 191.825153 443.989983 191.470434 
Q 443.989983 191.114442 447.026859 190.907337 
Q 450.063734 190.699914 455.263436 190.699914 
Q 457.007075 190.699914 458.608013 190.72791 
Q 460.20895 190.755588 461.689482 190.810307 
L 461.689482 191.117306 
Q 460.195572 191.044771 458.746255 191.011049 
Q 457.296939 190.977327 455.696001 190.977327 
Q 452.824125 190.977327 451.178593 191.108716 
Q 449.537521 191.239787 449.537521 191.470434 
Q 449.537521 191.700127 451.178593 191.831516 
Q 452.824125 191.962587 455.696001 191.962587 
Q 457.296939 191.962587 458.746255 191.928865 
Q 460.195572 191.894825 461.689482 191.82229 
L 461.689482 192.129608 
z
" clip-path="url(#p2fb5b65351)" style="fill: #0000ff"/>
   </g>
   <g id="patch_64">
    <path d="M 443.989983 187.619742 
L 461.689482 187.619742 
L 461.689482 188.220462 
L 455.321779 188.220462 
L 455.321779 190.699914 
L 450.370035 190.699914 
L 450.370035 188.220462 
L 443.989983 188.220462 
L 443.989983 187.619742 
z
" clip-path="url(#p2fb5b65351)" style="fill: #ff0000"/>
   </g>
   <g id="patch_65">
    <path d="M 456.250442 184.253073 
L 449.443499 184.253073 
L 448.368719 187.619742 
L 443.989983 187.619742 
L 450.243251 169.138711 
L 455.436214 169.138711 
L 461.689482 187.619742 
L 457.314366 187.619742 
L 456.250442 184.253073 
z
M 450.529136 180.823032 
L 455.153949 180.823032 
L 452.845161 173.471812 
L 450.529136 180.823032 
z
" clip-path="url(#p2fb5b65351)" style="fill: #008000"/>
   </g>
   <g id="patch_66">
    <path d="M 461.689482 167.327257 
Q 459.904459 168.232984 457.984567 168.687916 
Q 456.064675 169.138711 454.017848 169.138711 
Q 449.392654 169.138711 446.691319 166.442209 
Q 443.989983 163.745706 443.989983 159.134356 
Q 443.989983 154.469242 446.738919 151.793418 
Q 449.491822 149.117594 454.279652 149.117594 
Q 456.124176 149.117594 457.813998 149.481539 
Q 459.507787 149.841349 461.007207 150.552696 
L 461.007207 154.543685 
Q 459.460187 153.629687 457.929033 153.178891 
Q 456.39788 152.723959 454.858793 152.723959 
Q 452.010689 152.723959 450.467635 154.386527 
Q 448.924581 156.044959 448.924581 159.134356 
Q 448.924581 162.194804 450.412101 163.865643 
Q 451.899621 165.532346 454.636656 165.532346 
Q 455.3824 165.532346 456.021041 165.437224 
Q 456.659683 165.337966 457.167423 165.131179 
L 457.167423 161.384199 
L 454.251885 161.384199 
L 454.251885 158.046657 
L 461.689482 158.046657 
L 461.689482 167.327257 
z
" clip-path="url(#p2fb5b65351)" style="fill: #ffa600"/>
   </g>
   <g id="patch_67">
    <path d="M 480.320534 192.018426 
Q 478.840002 192.128255 477.239064 192.183808 
Q 475.638127 192.24 473.894488 192.24 
Q 468.694786 192.24 465.657911 191.82367 
Q 462.621035 191.40734 462.621035 190.695364 
Q 462.621035 189.980835 465.657911 189.565143 
Q 468.694786 189.148813 473.894488 189.148813 
Q 475.638127 189.148813 477.239064 189.205005 
Q 478.840002 189.260558 480.320534 189.370388 
L 480.320534 189.986582 
Q 478.826623 189.840994 477.377307 189.773308 
Q 475.92799 189.705623 474.327053 189.705623 
Q 471.455177 189.705623 469.809645 189.969341 
Q 468.168573 190.232421 468.168573 190.695364 
Q 468.168573 191.156392 469.809645 191.420111 
Q 471.455177 191.68319 474.327053 191.68319 
Q 475.92799 191.68319 477.377307 191.615505 
Q 478.826623 191.547181 480.320534 191.401593 
L 480.320534 192.018426 
z
" clip-path="url(#p2fb5b65351)" style="fill: #0000ff"/>
   </g>
   <g id="patch_68">
    <path d="M 480.320534 187.470722 
Q 478.535511 188.309767 476.615619 188.731206 
Q 474.695727 189.148813 472.6489 189.148813 
Q 468.023706 189.148813 465.322371 186.650833 
Q 462.621035 184.152852 462.621035 179.880999 
Q 462.621035 175.55934 465.369971 173.080516 
Q 468.122874 170.601691 472.910704 170.601691 
Q 474.755228 170.601691 476.44505 170.938842 
Q 478.138839 171.272162 479.638259 171.931138 
L 479.638259 175.628302 
Q 478.091238 174.781594 476.560085 174.363987 
Q 475.028931 173.942549 473.489844 173.942549 
Q 470.64174 173.942549 469.098687 175.482715 
Q 467.555633 177.019049 467.555633 179.880999 
Q 467.555633 182.71613 469.043153 184.263959 
Q 470.530672 185.807956 473.267708 185.807956 
Q 474.013451 185.807956 474.652093 185.719837 
Q 475.290735 185.627887 475.798475 185.436324 
L 475.798475 181.965204 
L 472.882937 181.965204 
L 472.882937 178.873378 
L 480.320534 178.873378 
L 480.320534 187.470722 
z
" clip-path="url(#p2fb5b65351)" style="fill: #ffa600"/>
   </g>
   <g id="patch_69">
    <path d="M 462.621035 105.686766 
L 480.320534 105.686766 
L 480.320534 118.346985 
L 473.952831 118.346985 
L 473.952831 170.601691 
L 469.001087 170.601691 
L 469.001087 118.346985 
L 462.621035 118.346985 
L 462.621035 105.686766 
z
" clip-path="url(#p2fb5b65351)" style="fill: #ff0000"/>
   </g>
   <g id="patch_70">
    <path d="M 498.951586 192.12486 
Q 497.166563 192.18243 495.246671 192.211346 
Q 493.326779 192.24 491.279952 192.24 
Q 486.654758 192.24 483.953422 192.068605 
Q 481.252087 191.897209 481.252087 191.604103 
Q 481.252087 191.307578 484.001023 191.137497 
Q 486.753926 190.967416 491.541755 190.967416 
Q 493.38628 190.967416 495.076102 190.99055 
Q 496.769891 191.01342 498.26931 191.058634 
L 498.26931 191.31231 
Q 496.72229 191.254214 495.191137 191.225561 
Q 493.659983 191.196644 492.120896 191.196644 
Q 489.272792 191.196644 487.729739 191.302321 
Q 486.186685 191.407734 486.186685 191.604103 
Q 486.186685 191.798631 487.674205 191.904833 
Q 489.161724 192.010772 491.89876 192.010772 
Q 492.644503 192.010772 493.283145 192.004726 
Q 493.921787 191.998417 494.429527 191.985273 
L 494.429527 191.747107 
L 491.513988 191.747107 
L 491.513988 191.534966 
L 498.951586 191.534966 
L 498.951586 192.12486 
z
" clip-path="url(#p2fb5b65351)" style="fill: #ffa600"/>
   </g>
   <g id="patch_71">
    <path d="M 493.512545 190.040116 
L 486.705603 190.040116 
L 485.630822 190.967416 
L 481.252087 190.967416 
L 487.505355 185.877082 
L 492.698318 185.877082 
L 498.951586 190.967416 
L 494.57647 190.967416 
L 493.512545 190.040116 
z
M 487.791239 189.09536 
L 492.416052 189.09536 
L 490.107265 187.070572 
L 487.791239 189.09536 
z
" clip-path="url(#p2fb5b65351)" style="fill: #008000"/>
   </g>
   <g id="patch_72">
    <path d="M 481.252087 175.696413 
L 498.951586 175.696413 
L 498.951586 177.681927 
L 492.583882 177.681927 
L 492.583882 185.877082 
L 487.632139 185.877082 
L 487.632139 177.681927 
L 481.252087 177.681927 
L 481.252087 175.696413 
z
" clip-path="url(#p2fb5b65351)" style="fill: #ff0000"/>
   </g>
   <g id="patch_73">
    <path d="M 498.951586 174.328143 
Q 497.471053 175.006363 495.870116 175.349417 
Q 494.269179 175.696413 492.52554 175.696413 
Q 487.325838 175.696413 484.288962 173.125484 
Q 481.252087 170.554555 481.252087 166.157951 
Q 481.252087 161.745574 484.288962 159.178588 
Q 487.325838 156.607659 492.52554 156.607659 
Q 494.269179 156.607659 495.870116 156.954656 
Q 497.471053 157.297709 498.951586 157.97593 
L 498.951586 161.781063 
Q 497.457675 160.882026 496.008359 160.464053 
Q 494.559042 160.04608 492.958105 160.04608 
Q 490.086228 160.04608 488.440697 161.674598 
Q 486.799624 163.299172 486.799624 166.157951 
Q 486.799624 169.0049 488.440697 170.633418 
Q 490.086228 172.257993 492.958105 172.257993 
Q 494.559042 172.257993 496.008359 171.84002 
Q 497.457675 171.418103 498.951586 170.519067 
L 498.951586 174.328143 
z
" clip-path="url(#p2fb5b65351)" style="fill: #0000ff"/>
   </g>
   <g id="patch_74">
    <path d="M 517.582638 192.104212 
Q 515.797614 192.172106 513.877722 192.206208 
Q 511.957831 192.24 509.911004 192.24 
Q 505.28581 192.24 502.584474 192.037868 
Q 499.883139 191.835736 499.883139 191.490065 
Q 499.883139 191.140365 502.632075 190.939783 
Q 505.384978 190.739201 510.172807 190.739201 
Q 512.017331 190.739201 513.707153 190.766482 
Q 515.400942 190.793454 516.900362 190.846777 
L 516.900362 191.145945 
Q 515.353342 191.077431 513.822188 191.043639 
Q 512.291035 191.009537 510.751948 191.009537 
Q 507.903844 191.009537 506.36079 191.134164 
Q 504.817737 191.258482 504.817737 191.490065 
Q 504.817737 191.719479 506.305256 191.844726 
Q 507.792776 191.969664 510.529812 191.969664 
Q 511.275555 191.969664 511.914197 191.962533 
Q 512.552838 191.955093 513.060578 191.939592 
L 513.060578 191.658715 
L 510.14504 191.658715 
L 510.14504 191.408531 
L 517.582638 191.408531 
L 517.582638 192.104212 
z
" clip-path="url(#p2fb5b65351)" style="fill: #ffa600"/>
   </g>
   <g id="patch_75">
    <path d="M 517.582638 190.416471 
Q 516.102105 190.576441 514.501168 190.657356 
Q 512.900231 190.739201 511.156591 190.739201 
Q 505.95689 190.739201 502.920014 190.132805 
Q 499.883139 189.526409 499.883139 188.489397 
Q 499.883139 187.448665 502.920014 186.843199 
Q 505.95689 186.236803 511.156591 186.236803 
Q 512.900231 186.236803 514.501168 186.318648 
Q 516.102105 186.399562 517.582638 186.559532 
L 517.582638 187.457035 
Q 516.088727 187.244983 514.63941 187.146397 
Q 513.190094 187.047811 511.589157 187.047811 
Q 508.71728 187.047811 507.071748 187.431924 
Q 505.430676 187.815107 505.430676 188.489397 
Q 505.430676 189.160897 507.071748 189.54501 
Q 508.71728 189.928192 511.589157 189.928192 
Q 513.190094 189.928192 514.63941 189.829607 
Q 516.088727 189.730091 517.582638 189.518038 
L 517.582638 190.416471 
z
" clip-path="url(#p2fb5b65351)" style="fill: #0000ff"/>
   </g>
   <g id="patch_76">
    <path d="M 499.883139 174.230408 
L 517.582638 174.230408 
L 517.582638 176.57199 
L 511.214934 176.57199 
L 511.214934 186.236803 
L 506.263191 186.236803 
L 506.263191 176.57199 
L 499.883139 176.57199 
L 499.883139 174.230408 
z
" clip-path="url(#p2fb5b65351)" style="fill: #ff0000"/>
   </g>
   <g id="patch_77">
    <path d="M 512.143597 169.856025 
L 505.336654 169.856025 
L 504.261874 174.230408 
L 499.883139 174.230408 
L 506.136407 150.217619 
L 511.32937 150.217619 
L 517.582638 174.230408 
L 513.207521 174.230408 
L 512.143597 169.856025 
z
M 506.422291 165.399301 
L 511.047104 165.399301 
L 508.738316 155.847708 
L 506.422291 165.399301 
z
" clip-path="url(#p2fb5b65351)" style="fill: #008000"/>
   </g>
   <g id="patch_78">
    <path d="M 518.51419 185.981455 
L 536.213689 185.981455 
L 536.213689 187.202046 
L 529.845986 187.202046 
L 529.845986 192.24 
L 524.894242 192.24 
L 524.894242 187.202046 
L 518.51419 187.202046 
L 518.51419 185.981455 
z
" clip-path="url(#p2fb5b65351)" style="fill: #ff0000"/>
   </g>
   <g id="patch_79">
    <path d="M 536.213689 185.084238 
Q 534.733157 185.528968 533.13222 185.753919 
Q 531.531282 185.981455 529.787643 185.981455 
Q 524.587941 185.981455 521.551066 184.295617 
Q 518.51419 182.609779 518.51419 179.726789 
Q 518.51419 176.833456 521.551066 175.150204 
Q 524.587941 173.464366 529.787643 173.464366 
Q 531.531282 173.464366 533.13222 173.691902 
Q 534.733157 173.916853 536.213689 174.361583 
L 536.213689 176.856727 
Q 534.719779 176.267201 533.270462 175.993123 
Q 531.821146 175.719045 530.220208 175.719045 
Q 527.348332 175.719045 525.7028 176.786915 
Q 524.061728 177.852199 524.061728 179.726789 
Q 524.061728 181.593622 525.7028 182.661492 
Q 527.348332 183.726776 530.220208 183.726776 
Q 531.821146 183.726776 533.270462 183.452698 
Q 534.719779 183.176034 536.213689 182.586508 
L 536.213689 185.084238 
z
" clip-path="url(#p2fb5b65351)" style="fill: #0000ff"/>
   </g>
   <g id="patch_80">
    <path d="M 530.774649 160.923133 
L 523.967706 160.923133 
L 522.892926 173.464366 
L 518.51419 173.464366 
L 524.767458 104.620373 
L 529.960421 104.620373 
L 536.213689 173.464366 
L 531.838573 173.464366 
L 530.774649 160.923133 
z
M 525.053343 148.145829 
L 529.678156 148.145829 
L 527.369368 120.761678 
L 525.053343 148.145829 
z
" clip-path="url(#p2fb5b65351)" style="fill: #008000"/>
   </g>
   <g id="patch_81">
    <path d="M 537.145242 188.401482 
L 554.844741 188.401482 
L 554.844741 189.1501 
L 548.477038 189.1501 
L 548.477038 192.24 
L 543.525294 192.24 
L 543.525294 189.1501 
L 537.145242 189.1501 
L 537.145242 188.401482 
z
" clip-path="url(#p2fb5b65351)" style="fill: #ff0000"/>
   </g>
   <g id="patch_82">
    <path d="M 554.844741 187.576054 
Q 553.364209 187.9852 551.763271 188.192151 
Q 550.162334 188.401482 548.418695 188.401482 
Q 543.218993 188.401482 540.182118 186.850533 
Q 537.145242 185.299585 537.145242 182.647273 
Q 537.145242 179.985446 540.182118 178.436876 
Q 543.218993 176.885927 548.418695 176.885927 
Q 550.162334 176.885927 551.763271 177.095258 
Q 553.364209 177.30221 554.844741 177.711356 
L 554.844741 180.006854 
Q 553.35083 179.464498 551.901514 179.21235 
Q 550.452197 178.960202 548.85126 178.960202 
Q 545.979384 178.960202 544.333852 179.942628 
Q 542.69278 180.922675 542.69278 182.647273 
Q 542.69278 184.364734 544.333852 185.34716 
Q 545.979384 186.327207 548.85126 186.327207 
Q 550.452197 186.327207 551.901514 186.075059 
Q 553.35083 185.820532 554.844741 185.278176 
L 554.844741 187.576054 
z
" clip-path="url(#p2fb5b65351)" style="fill: #0000ff"/>
   </g>
   <g id="patch_83">
    <path d="M 549.405701 160.103722 
L 542.598758 160.103722 
L 541.523977 176.885927 
L 537.145242 176.885927 
L 543.39851 84.761492 
L 548.591473 84.761492 
L 554.844741 176.885927 
L 550.469625 176.885927 
L 549.405701 160.103722 
z
M 543.684395 143.005617 
L 548.309208 143.005617 
L 546.00042 106.361178 
L 543.684395 143.005617 
z
" clip-path="url(#p2fb5b65351)" style="fill: #008000"/>
   </g>
   <g id="patch_84">
    <path d="M 573.475793 191.717108 
Q 571.69077 191.978554 569.770878 192.109874 
Q 567.850986 192.24 565.804159 192.24 
Q 561.178965 192.24 558.477629 191.461631 
Q 555.776294 190.683261 555.776294 189.352154 
Q 555.776294 188.005527 558.52523 187.233126 
Q 561.278133 186.460726 566.065962 186.460726 
Q 567.910487 186.460726 569.600309 186.565782 
Q 571.294098 186.669644 572.793517 186.874981 
L 572.793517 188.027016 
Q 571.246497 187.763182 569.715344 187.633056 
Q 568.18419 187.501736 566.645103 187.501736 
Q 563.796999 187.501736 562.253946 187.98165 
Q 560.710892 188.460372 560.710892 189.352154 
Q 560.710892 190.235579 562.198412 190.717882 
Q 563.685931 191.198991 566.422967 191.198991 
Q 567.16871 191.198991 567.807352 191.171533 
Q 568.445994 191.142881 568.953734 191.08319 
L 568.953734 190.001591 
L 566.038195 190.001591 
L 566.038195 189.03818 
L 573.475793 189.03818 
L 573.475793 191.717108 
z
" clip-path="url(#p2fb5b65351)" style="fill: #ffa600"/>
   </g>
   <g id="patch_85">
    <path d="M 568.036752 183.828716 
L 561.22981 183.828716 
L 560.155029 186.460726 
L 555.776294 186.460726 
L 562.029562 172.012541 
L 567.222525 172.012541 
L 573.475793 186.460726 
L 569.100677 186.460726 
L 568.036752 183.828716 
z
M 562.315446 181.147163 
L 566.940259 181.147163 
L 564.631472 175.400093 
L 562.315446 181.147163 
z
" clip-path="url(#p2fb5b65351)" style="fill: #008000"/>
   </g>
   <g id="patch_86">
    <path d="M 555.776294 111.330165 
L 573.475793 111.330165 
L 573.475793 123.164919 
L 567.108089 123.164919 
L 567.108089 172.012541 
L 562.156346 172.012541 
L 562.156346 123.164919 
L 555.776294 123.164919 
L 555.776294 111.330165 
z
" clip-path="url(#p2fb5b65351)" style="fill: #ff0000"/>
   </g>
   <g id="patch_87">
    <path d="M 574.407346 183.406803 
L 592.106845 183.406803 
L 592.106845 185.129522 
L 585.739141 185.129522 
L 585.739141 192.24 
L 580.787398 192.24 
L 580.787398 185.129522 
L 574.407346 185.129522 
L 574.407346 183.406803 
z
" clip-path="url(#p2fb5b65351)" style="fill: #ff0000"/>
   </g>
   <g id="patch_88">
    <path d="M 592.106845 182.520381 
Q 590.626312 182.95976 589.025375 183.182004 
Q 587.424438 183.406803 585.680798 183.406803 
Q 580.481097 183.406803 577.444221 181.741249 
Q 574.407346 180.075696 574.407346 177.227396 
Q 574.407346 174.368878 577.444221 172.705879 
Q 580.481097 171.040326 585.680798 171.040326 
Q 587.424438 171.040326 589.025375 171.265125 
Q 590.626312 171.487369 592.106845 171.926748 
L 592.106845 174.391869 
Q 590.612934 173.809436 589.163617 173.538656 
Q 587.714301 173.267876 586.113364 173.267876 
Q 583.241487 173.267876 581.595955 174.322896 
Q 579.954883 175.375362 579.954883 177.227396 
Q 579.954883 179.071766 581.595955 180.126787 
Q 583.241487 181.179253 586.113364 181.179253 
Q 587.714301 181.179253 589.163617 180.908473 
Q 590.612934 180.635138 592.106845 180.052706 
L 592.106845 182.520381 
z
" clip-path="url(#p2fb5b65351)" style="fill: #0000ff"/>
   </g>
   <g id="patch_89">
    <path d="M 586.667804 165.891098 
L 579.860861 165.891098 
L 578.786081 171.040326 
L 574.407346 171.040326 
L 580.660614 142.774094 
L 585.853577 142.774094 
L 592.106845 171.040326 
L 587.731728 171.040326 
L 586.667804 165.891098 
z
M 580.946498 160.644944 
L 585.571311 160.644944 
L 583.262523 149.401453 
L 580.946498 160.644944 
z
" clip-path="url(#p2fb5b65351)" style="fill: #008000"/>
   </g>
   <g id="patch_90">
    <path d="M 605.298856 191.752244 
L 598.491913 191.752244 
L 597.417133 192.24 
L 593.038397 192.24 
L 599.291665 189.562506 
L 604.484628 189.562506 
L 610.737896 192.24 
L 606.36278 192.24 
L 605.298856 191.752244 
z
M 599.57755 191.255307 
L 604.202363 191.255307 
L 601.893575 190.190277 
L 599.57755 191.255307 
z
" clip-path="url(#p2fb5b65351)" style="fill: #008000"/>
   </g>
   <g id="patch_91">
    <path d="M 610.737896 189.320254 
Q 608.952873 189.44138 607.032981 189.502219 
Q 605.113089 189.562506 603.066262 189.562506 
Q 598.441068 189.562506 595.739733 189.201893 
Q 593.038397 188.84128 593.038397 188.224588 
Q 593.038397 187.600706 595.787333 187.242859 
Q 598.540236 186.885012 603.328066 186.885012 
Q 605.17259 186.885012 606.862412 186.933683 
Q 608.556201 186.981802 610.055621 187.076933 
L 610.055621 187.610662 
Q 608.508601 187.48843 606.977447 187.428143 
Q 605.446294 187.367304 603.907207 187.367304 
Q 601.059103 187.367304 599.516049 187.589645 
Q 597.972995 187.811433 597.972995 188.224588 
Q 597.972995 188.633873 599.460515 188.85732 
Q 600.948035 189.080214 603.685071 189.080214 
Q 604.430814 189.080214 605.069455 189.067493 
Q 605.708097 189.054219 606.215837 189.026565 
L 606.215837 188.525468 
L 603.300299 188.525468 
L 603.300299 188.079127 
L 610.737896 188.079127 
L 610.737896 189.320254 
z
" clip-path="url(#p2fb5b65351)" style="fill: #ffa600"/>
   </g>
   <g id="patch_92">
    <path d="M 610.737896 185.925406 
Q 609.257364 186.401061 607.656427 186.641654 
Q 606.055489 186.885012 604.31185 186.885012 
Q 599.112148 186.885012 596.075273 185.081948 
Q 593.038397 183.278885 593.038397 180.195425 
Q 593.038397 177.100903 596.075273 175.300605 
Q 599.112148 173.497541 604.31185 173.497541 
Q 606.055489 173.497541 607.656427 173.7409 
Q 609.257364 173.981492 610.737896 174.457147 
L 610.737896 177.125792 
Q 609.243986 176.495273 607.794669 176.202137 
Q 606.345353 175.909001 604.744415 175.909001 
Q 601.872539 175.909001 600.227007 177.051125 
Q 598.585935 178.190484 598.585935 180.195425 
Q 598.585935 182.192069 600.227007 183.334193 
Q 601.872539 184.473553 604.744415 184.473553 
Q 606.345353 184.473553 607.794669 184.180416 
Q 609.243986 183.884515 610.737896 183.253996 
L 610.737896 185.925406 
z
" clip-path="url(#p2fb5b65351)" style="fill: #0000ff"/>
   </g>
   <g id="patch_93">
    <path d="M 593.038397 117.270165 
L 610.737896 117.270165 
L 610.737896 128.23607 
L 604.370193 128.23607 
L 604.370193 173.497541 
L 599.418449 173.497541 
L 599.418449 128.23607 
L 593.038397 128.23607 
L 593.038397 117.270165 
z
" clip-path="url(#p2fb5b65351)" style="fill: #ff0000"/>
   </g>
   <g id="patch_94">
    <path d="M 629.368948 192.149927 
Q 627.888416 192.194574 626.287478 192.217157 
Q 624.686541 192.24 622.942902 192.24 
Q 617.7432 192.24 614.706325 192.070757 
Q 611.669449 191.901514 611.669449 191.612087 
Q 611.669449 191.321622 614.706325 191.152639 
Q 617.7432 190.983396 622.942902 190.983396 
Q 624.686541 190.983396 626.287478 191.006238 
Q 627.888416 191.028821 629.368948 191.073468 
L 629.368948 191.323959 
Q 627.875037 191.264775 626.425721 191.23726 
Q 624.976404 191.209745 623.375467 191.209745 
Q 620.503591 191.209745 618.858059 191.31695 
Q 617.216987 191.423895 617.216987 191.612087 
Q 617.216987 191.799501 618.858059 191.906705 
Q 620.503591 192.01365 623.375467 192.01365 
Q 624.976404 192.01365 626.425721 191.986135 
Q 627.875037 191.958361 629.368948 191.899178 
L 629.368948 192.149927 
z
" clip-path="url(#p2fb5b65351)" style="fill: #0000ff"/>
   </g>
   <g id="patch_95">
    <path d="M 629.368948 190.642314 
Q 627.583925 190.812855 625.664033 190.898515 
Q 623.744141 190.983396 621.697314 190.983396 
Q 617.07212 190.983396 614.370785 190.475666 
Q 611.669449 189.967937 611.669449 189.099657 
Q 611.669449 188.221254 614.418385 187.717419 
Q 617.171288 187.213583 621.959118 187.213583 
Q 623.803642 187.213583 625.493464 187.282111 
Q 627.187253 187.34986 628.686673 187.483801 
L 628.686673 188.235271 
Q 627.139652 188.063173 625.608499 187.978292 
Q 624.077345 187.892632 622.538259 187.892632 
Q 619.690154 187.892632 618.147101 188.20568 
Q 616.604047 188.517949 616.604047 189.099657 
Q 616.604047 189.675915 618.091567 189.99052 
Q 619.579086 190.304347 622.316122 190.304347 
Q 623.061865 190.304347 623.700507 190.286436 
Q 624.339149 190.267746 624.846889 190.22881 
L 624.846889 189.523284 
L 621.931351 189.523284 
L 621.931351 188.894852 
L 629.368948 188.894852 
L 629.368948 190.642314 
z
" clip-path="url(#p2fb5b65351)" style="fill: #ffa600"/>
   </g>
   <g id="patch_96">
    <path d="M 623.929908 186.297926 
L 617.122965 186.297926 
L 616.048184 187.213583 
L 611.669449 187.213583 
L 617.922717 182.187166 
L 623.11568 182.187166 
L 629.368948 187.213583 
L 624.993832 187.213583 
L 623.929908 186.297926 
z
M 618.208602 185.365033 
L 622.833415 185.365033 
L 620.524627 183.36567 
L 618.208602 185.365033 
z
" clip-path="url(#p2fb5b65351)" style="fill: #008000"/>
   </g>
   <g id="patch_97">
    <path d="M 611.669449 174.64754 
L 629.368948 174.64754 
L 629.368948 176.117977 
L 623.001245 176.117977 
L 623.001245 182.187166 
L 618.049501 182.187166 
L 618.049501 176.117977 
L 611.669449 176.117977 
L 611.669449 174.64754 
z
" clip-path="url(#p2fb5b65351)" style="fill: #ff0000"/>
   </g>
   <g id="patch_98">
    <path d="M 642.560959 190.500904 
L 635.754017 190.500904 
L 634.679236 192.24 
L 630.300501 192.24 
L 636.553769 182.693388 
L 641.746732 182.693388 
L 648 192.24 
L 643.624884 192.24 
L 642.560959 190.500904 
z
M 636.839653 188.729073 
L 641.464466 188.729073 
L 639.155679 184.931706 
L 636.839653 188.729073 
z
" clip-path="url(#p2fb5b65351)" style="fill: #008000"/>
   </g>
   <g id="patch_99">
    <path d="M 648 181.872233 
Q 646.519467 182.279261 644.91853 182.485141 
Q 643.317593 182.693388 641.573954 182.693388 
Q 636.374252 182.693388 633.337376 181.150469 
Q 630.300501 179.607551 630.300501 176.96897 
Q 630.300501 174.320924 633.337376 172.780372 
Q 636.374252 171.237453 641.573954 171.237453 
Q 643.317593 171.237453 644.91853 171.4457 
Q 646.519467 171.65158 648 172.058608 
L 648 174.342222 
Q 646.506089 173.802674 645.056773 173.551831 
Q 643.607456 173.300989 642.006519 173.300989 
Q 639.134642 173.300989 637.489111 174.278328 
Q 635.848038 175.253302 635.848038 176.96897 
Q 635.848038 178.67754 637.489111 179.654879 
Q 639.134642 180.629853 642.006519 180.629853 
Q 643.607456 180.629853 645.056773 180.37901 
Q 646.506089 180.125801 648 179.586253 
L 648 181.872233 
z
" clip-path="url(#p2fb5b65351)" style="fill: #0000ff"/>
   </g>
   <g id="patch_100">
    <path d="M 630.300501 138.778972 
L 648 138.778972 
L 648 145.109281 
L 641.632296 145.109281 
L 641.632296 171.237453 
L 636.680553 171.237453 
L 636.680553 145.109281 
L 630.300501 145.109281 
L 630.300501 138.778972 
z
" clip-path="url(#p2fb5b65351)" style="fill: #ff0000"/>
   </g>
   <g id="matplotlib.axis_1">
    <g id="xtick_1">
     <g id="line2d_2">
      <defs>
       <path id="m37f060d3fb" d="M 0 0 
L 0 3.5 
" style="stroke: #000000; stroke-width: 0.8"/>
      </defs>
      <g>
       <use xlink:href="#m37f060d3fb" x="98.84975" y="192.24" style="stroke: #000000; stroke-width: 0.8"/>
      </g>
     </g>
     <g id="text_1">
      <!-- 0 -->
      <g transform="translate(95.6685 206.838437) scale(0.1 -0.1)">
       <defs>
        <path id="DejaVuSans-30" d="M 2034 4250 
Q 1547 4250 1301 3770 
Q 1056 3291 1056 2328 
Q 1056 1369 1301 889 
Q 1547 409 2034 409 
Q 2525 409 2770 889 
Q 3016 1369 3016 2328 
Q 3016 3291 2770 3770 
Q 2525 4250 2034 4250 
z
M 2034 4750 
Q 2819 4750 3233 4129 
Q 3647 3509 3647 2328 
Q 3647 1150 3233 529 
Q 2819 -91 2034 -91 
Q 1250 -91 836 529 
Q 422 1150 422 2328 
Q 422 3509 836 4129 
Q 1250 4750 2034 4750 
z
" transform="scale(0.015625)"/>
       </defs>
       <use xlink:href="#DejaVuSans-30"/>
      </g>
     </g>
    </g>
    <g id="xtick_2">
     <g id="line2d_3">
      <g>
       <use xlink:href="#m37f060d3fb" x="192.005008" y="192.24" style="stroke: #000000; stroke-width: 0.8"/>
      </g>
     </g>
     <g id="text_2">
      <!-- 5 -->
      <g transform="translate(188.823758 206.838437) scale(0.1 -0.1)">
       <defs>
        <path id="DejaVuSans-35" d="M 691 4666 
L 3169 4666 
L 3169 4134 
L 1269 4134 
L 1269 2991 
Q 1406 3038 1543 3061 
Q 1681 3084 1819 3084 
Q 2600 3084 3056 2656 
Q 3513 2228 3513 1497 
Q 3513 744 3044 326 
Q 2575 -91 1722 -91 
Q 1428 -91 1123 -41 
Q 819 9 494 109 
L 494 744 
Q 775 591 1075 516 
Q 1375 441 1709 441 
Q 2250 441 2565 725 
Q 2881 1009 2881 1497 
Q 2881 1984 2565 2268 
Q 2250 2553 1709 2553 
Q 1456 2553 1204 2497 
Q 953 2441 691 2322 
L 691 4666 
z
" transform="scale(0.015625)"/>
       </defs>
       <use xlink:href="#DejaVuSans-35"/>
      </g>
     </g>
    </g>
    <g id="xtick_3">
     <g id="line2d_4">
      <g>
       <use xlink:href="#m37f060d3fb" x="285.160267" y="192.24" style="stroke: #000000; stroke-width: 0.8"/>
      </g>
     </g>
     <g id="text_3">
      <!-- 10 -->
      <g transform="translate(278.797767 206.838437) scale(0.1 -0.1)">
       <defs>
        <path id="DejaVuSans-31" d="M 794 531 
L 1825 531 
L 1825 4091 
L 703 3866 
L 703 4441 
L 1819 4666 
L 2450 4666 
L 2450 531 
L 3481 531 
L 3481 0 
L 794 0 
L 794 531 
z
" transform="scale(0.015625)"/>
       </defs>
       <use xlink:href="#DejaVuSans-31"/>
       <use xlink:href="#DejaVuSans-30" x="63.623047"/>
      </g>
     </g>
    </g>
    <g id="xtick_4">
     <g id="line2d_5">
      <g>
       <use xlink:href="#m37f060d3fb" x="378.315526" y="192.24" style="stroke: #000000; stroke-width: 0.8"/>
      </g>
     </g>
     <g id="text_4">
      <!-- 15 -->
      <g transform="translate(371.953026 206.838437) scale(0.1 -0.1)">
       <use xlink:href="#DejaVuSans-31"/>
       <use xlink:href="#DejaVuSans-35" x="63.623047"/>
      </g>
     </g>
    </g>
    <g id="xtick_5">
     <g id="line2d_6">
      <g>
       <use xlink:href="#m37f060d3fb" x="471.470785" y="192.24" style="stroke: #000000; stroke-width: 0.8"/>
      </g>
     </g>
     <g id="text_5">
      <!-- 20 -->
      <g transform="translate(465.108285 206.838437) scale(0.1 -0.1)">
       <defs>
        <path id="DejaVuSans-32" d="M 1228 531 
L 3431 531 
L 3431 0 
L 469 0 
L 469 531 
Q 828 903 1448 1529 
Q 2069 2156 2228 2338 
Q 2531 2678 2651 2914 
Q 2772 3150 2772 3378 
Q 2772 3750 2511 3984 
Q 2250 4219 1831 4219 
Q 1534 4219 1204 4116 
Q 875 4013 500 3803 
L 500 4441 
Q 881 4594 1212 4672 
Q 1544 4750 1819 4750 
Q 2544 4750 2975 4387 
Q 3406 4025 3406 3419 
Q 3406 3131 3298 2873 
Q 3191 2616 2906 2266 
Q 2828 2175 2409 1742 
Q 1991 1309 1228 531 
z
" transform="scale(0.015625)"/>
       </defs>
       <use xlink:href="#DejaVuSans-32"/>
       <use xlink:href="#DejaVuSans-30" x="63.623047"/>
      </g>
     </g>
    </g>
    <g id="xtick_6">
     <g id="line2d_7">
      <g>
       <use xlink:href="#m37f060d3fb" x="564.626043" y="192.24" style="stroke: #000000; stroke-width: 0.8"/>
      </g>
     </g>
     <g id="text_6">
      <!-- 25 -->
      <g transform="translate(558.263543 206.838437) scale(0.1 -0.1)">
       <use xlink:href="#DejaVuSans-32"/>
       <use xlink:href="#DejaVuSans-35" x="63.623047"/>
      </g>
     </g>
    </g>
   </g>
   <g id="matplotlib.axis_2">
    <g id="ytick_1">
     <g id="line2d_8">
      <defs>
       <path id="m8bfd69d8ec" d="M 0 0 
L -3.5 0 
" style="stroke: #000000; stroke-width: 0.8"/>
      </defs>
      <g>
       <use xlink:href="#m8bfd69d8ec" x="90" y="192.24" style="stroke: #000000; stroke-width: 0.8"/>
      </g>
     </g>
     <g id="text_7">
      <!-- 0.00 -->
      <g transform="translate(60.734375 196.039219) scale(0.1 -0.1)">
       <defs>
        <path id="DejaVuSans-2e" d="M 684 794 
L 1344 794 
L 1344 0 
L 684 0 
L 684 794 
z
" transform="scale(0.015625)"/>
       </defs>
       <use xlink:href="#DejaVuSans-30"/>
       <use xlink:href="#DejaVuSans-2e" x="63.623047"/>
       <use xlink:href="#DejaVuSans-30" x="95.410156"/>
       <use xlink:href="#DejaVuSans-30" x="159.033203"/>
      </g>
     </g>
    </g>
    <g id="ytick_2">
     <g id="line2d_9">
      <g>
       <use xlink:href="#m8bfd69d8ec" x="90" y="171.45" style="stroke: #000000; stroke-width: 0.8"/>
      </g>
     </g>
     <g id="text_8">
      <!-- 0.25 -->
      <g transform="translate(60.734375 175.249219) scale(0.1 -0.1)">
       <use xlink:href="#DejaVuSans-30"/>
       <use xlink:href="#DejaVuSans-2e" x="63.623047"/>
       <use xlink:href="#DejaVuSans-32" x="95.410156"/>
       <use xlink:href="#DejaVuSans-35" x="159.033203"/>
      </g>
     </g>
    </g>
    <g id="ytick_3">
     <g id="line2d_10">
      <g>
       <use xlink:href="#m8bfd69d8ec" x="90" y="150.66" style="stroke: #000000; stroke-width: 0.8"/>
      </g>
     </g>
     <g id="text_9">
      <!-- 0.50 -->
      <g transform="translate(60.734375 154.459219) scale(0.1 -0.1)">
       <use xlink:href="#DejaVuSans-30"/>
       <use xlink:href="#DejaVuSans-2e" x="63.623047"/>
       <use xlink:href="#DejaVuSans-35" x="95.410156"/>
       <use xlink:href="#DejaVuSans-30" x="159.033203"/>
      </g>
     </g>
    </g>
    <g id="ytick_4">
     <g id="line2d_11">
      <g>
       <use xlink:href="#m8bfd69d8ec" x="90" y="129.87" style="stroke: #000000; stroke-width: 0.8"/>
      </g>
     </g>
     <g id="text_10">
      <!-- 0.75 -->
      <g transform="translate(60.734375 133.669219) scale(0.1 -0.1)">
       <defs>
        <path id="DejaVuSans-37" d="M 525 4666 
L 3525 4666 
L 3525 4397 
L 1831 0 
L 1172 0 
L 2766 4134 
L 525 4134 
L 525 4666 
z
" transform="scale(0.015625)"/>
       </defs>
       <use xlink:href="#DejaVuSans-30"/>
       <use xlink:href="#DejaVuSans-2e" x="63.623047"/>
       <use xlink:href="#DejaVuSans-37" x="95.410156"/>
       <use xlink:href="#DejaVuSans-35" x="159.033203"/>
      </g>
     </g>
    </g>
    <g id="ytick_5">
     <g id="line2d_12">
      <g>
       <use xlink:href="#m8bfd69d8ec" x="90" y="109.08" style="stroke: #000000; stroke-width: 0.8"/>
      </g>
     </g>
     <g id="text_11">
      <!-- 1.00 -->
      <g transform="translate(60.734375 112.879219) scale(0.1 -0.1)">
       <use xlink:href="#DejaVuSans-31"/>
       <use xlink:href="#DejaVuSans-2e" x="63.623047"/>
       <use xlink:href="#DejaVuSans-30" x="95.410156"/>
       <use xlink:href="#DejaVuSans-30" x="159.033203"/>
      </g>
     </g>
    </g>
    <g id="ytick_6">
     <g id="line2d_13">
      <g>
       <use xlink:href="#m8bfd69d8ec" x="90" y="88.29" style="stroke: #000000; stroke-width: 0.8"/>
      </g>
     </g>
     <g id="text_12">
      <!-- 1.25 -->
      <g transform="translate(60.734375 92.089219) scale(0.1 -0.1)">
       <use xlink:href="#DejaVuSans-31"/>
       <use xlink:href="#DejaVuSans-2e" x="63.623047"/>
       <use xlink:href="#DejaVuSans-32" x="95.410156"/>
       <use xlink:href="#DejaVuSans-35" x="159.033203"/>
      </g>
     </g>
    </g>
    <g id="ytick_7">
     <g id="line2d_14">
      <g>
       <use xlink:href="#m8bfd69d8ec" x="90" y="67.5" style="stroke: #000000; stroke-width: 0.8"/>
      </g>
     </g>
     <g id="text_13">
      <!-- 1.50 -->
      <g transform="translate(60.734375 71.299219) scale(0.1 -0.1)">
       <use xlink:href="#DejaVuSans-31"/>
       <use xlink:href="#DejaVuSans-2e" x="63.623047"/>
       <use xlink:href="#DejaVuSans-35" x="95.410156"/>
       <use xlink:href="#DejaVuSans-30" x="159.033203"/>
      </g>
     </g>
    </g>
    <g id="ytick_8">
     <g id="line2d_15">
      <g>
       <use xlink:href="#m8bfd69d8ec" x="90" y="46.71" style="stroke: #000000; stroke-width: 0.8"/>
      </g>
     </g>
     <g id="text_14">
      <!-- 1.75 -->
      <g transform="translate(60.734375 50.509219) scale(0.1 -0.1)">
       <use xlink:href="#DejaVuSans-31"/>
       <use xlink:href="#DejaVuSans-2e" x="63.623047"/>
       <use xlink:href="#DejaVuSans-37" x="95.410156"/>
       <use xlink:href="#DejaVuSans-35" x="159.033203"/>
      </g>
     </g>
    </g>
    <g id="ytick_9">
     <g id="line2d_16">
      <g>
       <use xlink:href="#m8bfd69d8ec" x="90" y="25.92" style="stroke: #000000; stroke-width: 0.8"/>
      </g>
     </g>
     <g id="text_15">
      <!-- 2.00 -->
      <g transform="translate(60.734375 29.719219) scale(0.1 -0.1)">
       <use xlink:href="#DejaVuSans-32"/>
       <use xlink:href="#DejaVuSans-2e" x="63.623047"/>
       <use xlink:href="#DejaVuSans-30" x="95.410156"/>
       <use xlink:href="#DejaVuSans-30" x="159.033203"/>
      </g>
     </g>
    </g>
   </g>
  </g>
 </g>
 <defs>
  <clipPath id="p2fb5b65351">
   <rect x="90" y="25.92" width="558" height="166.32"/>
  </clipPath>
 </defs>
</svg>
