<?xml version="1.0" encoding="utf-8" standalone="no"?>
<!DOCTYPE svg PUBLIC "-//W3C//DTD SVG 1.1//EN"
  "http://www.w3.org/Graphics/SVG/1.1/DTD/svg11.dtd">
<svg xmlns:xlink="http://www.w3.org/1999/xlink" width="720pt" height="216pt" viewBox="0 0 720 216" xmlns="http://www.w3.org/2000/svg" version="1.1">
 <metadata>
  <rdf:RDF xmlns:dc="http://purl.org/dc/elements/1.1/" xmlns:cc="http://creativecommons.org/ns#" xmlns:rdf="http://www.w3.org/1999/02/22-rdf-syntax-ns#">
   <cc:Work>
    <dc:type rdf:resource="http://purl.org/dc/dcmitype/StillImage"/>
    <dc:date>2025-12-17T10:22:29.625785</dc:date>
    <dc:format>image/svg+xml</dc:format>
    <dc:creator>
     <cc:Agent>
      <dc:title>Matplotlib v3.8.2, https://matplotlib.org/</dc:title>
     </cc:Agent>
    </dc:creator>
   </cc:Work>
  </rdf:RDF>
 </metadata>
 <defs>
  <style type="text/css">*{stroke-linejoin: round; stroke-linecap: butt}</style>
 </defs>
 <g id="figure_1">
  <g id="patch_1">
   <path d="M 0 216 
L 720 216 
L 720 0 
L 0 0 
z
" style="fill: #ffffff"/>
  </g>
  <g id="axes_1">
   <g id="patch_2">
    <path d="M 90 192.24 
L 648 192.24 
L 648 25.92 
L 90 25.92 
z
" style="fill: #ffffff"/>
   </g>
   <g id="line2d_1">
    <path d="M 90 192.24 
L 648 192.24 
" clip-path="url(#p2d2302c991)" style="fill: none; stroke: #000000; stroke-width: 0.5; stroke-linecap: square"/>
   </g>
   <g id="patch_3">
    <path d="M 102.260459 191.444609 
L 95.453516 191.444609 
L 94.378735 192.24 
L 90 192.24 
L 96.253268 187.873769 
L 101.446231 187.873769 
L 107.699499 192.24 
L 103.324383 192.24 
L 102.260459 191.444609 
z
M 96.539153 190.634245 
L 101.163965 190.634245 
L 98.855178 188.897485 
L 96.539153 190.634245 
z
" clip-path="url(#p2d2302c991)" style="fill: #008000"/>
   </g>
   <g id="patch_4">
    <path d="M 107.699499 187.363102 
Q 105.914476 187.618436 103.994584 187.746685 
Q 102.074692 187.873769 100.027865 187.873769 
Q 95.402671 187.873769 92.701335 187.113598 
Q 90 186.353428 90 185.053442 
Q 90 183.7383 92.748936 182.983959 
Q 95.501839 182.229617 100.289668 182.229617 
Q 102.134193 182.229617 103.824015 182.332217 
Q 105.517804 182.433651 107.017224 182.634187 
L 107.017224 183.759286 
Q 105.470203 183.501621 103.93905 183.374537 
Q 102.407896 183.246288 100.868809 183.246288 
Q 98.020705 183.246288 96.477652 183.714982 
Q 94.934598 184.18251 94.934598 185.053442 
Q 94.934598 185.916213 96.422118 186.387239 
Q 97.909637 186.857099 100.646673 186.857099 
Q 101.392416 186.857099 102.031058 186.830283 
Q 102.6697 186.802301 103.17744 186.744006 
L 103.17744 185.687695 
L 100.261901 185.687695 
L 100.261901 184.746809 
L 107.699499 184.746809 
L 107.699499 187.363102 
z
" clip-path="url(#p2d2302c991)" style="fill: #ffa600"/>
   </g>
   <g id="patch_5">
    <path d="M 90 176.585465 
L 107.699499 176.585465 
L 107.699499 177.686232 
L 101.331796 177.686232 
L 101.331796 182.229617 
L 96.380052 182.229617 
L 96.380052 177.686232 
L 90 177.686232 
L 90 176.585465 
z
" clip-path="url(#p2d2302c991)" style="fill: #ff0000"/>
   </g>
   <g id="patch_6">
    <path d="M 107.699499 175.425191 
Q 106.218967 176.000312 104.618029 176.291217 
Q 103.017092 176.585465 101.273453 176.585465 
Q 96.073751 176.585465 93.036876 174.405353 
Q 90 172.22524 90 168.49698 
Q 90 164.755345 93.036876 162.578576 
Q 96.073751 160.398464 101.273453 160.398464 
Q 103.017092 160.398464 104.618029 160.692712 
Q 106.218967 160.983617 107.699499 161.558738 
L 107.699499 164.785439 
Q 106.205588 164.023068 104.756272 163.668633 
Q 103.306955 163.314197 101.706018 163.314197 
Q 98.834142 163.314197 97.18861 164.695158 
Q 95.547538 166.072775 95.547538 168.49698 
Q 95.547538 170.911154 97.18861 172.292115 
Q 98.834142 173.669732 101.706018 173.669732 
Q 103.306955 173.669732 104.756272 173.315296 
Q 106.205588 172.957517 107.699499 172.195147 
L 107.699499 175.425191 
z
" clip-path="url(#p2d2302c991)" style="fill: #0000ff"/>
   </g>
   <g id="patch_7">
    <path d="M 108.631052 186.377596 
L 126.330551 186.377596 
L 126.330551 187.520928 
L 119.962847 187.520928 
L 119.962847 192.24 
L 115.011104 192.24 
L 115.011104 187.520928 
L 108.631052 187.520928 
L 108.631052 186.377596 
z
" clip-path="url(#p2d2302c991)" style="fill: #ff0000"/>
   </g>
   <g id="patch_8">
    <path d="M 126.330551 185.817311 
Q 124.850018 186.095031 123.249081 186.235506 
Q 121.648144 186.377596 119.904504 186.377596 
Q 114.704803 186.377596 111.667927 185.324842 
Q 108.631052 184.272087 108.631052 182.471748 
Q 108.631052 180.664951 111.667927 179.613811 
Q 114.704803 178.561057 119.904504 178.561057 
Q 121.648144 178.561057 123.249081 178.703146 
Q 124.850018 178.843621 126.330551 179.121342 
L 126.330551 180.679483 
Q 124.83664 180.311342 123.387324 180.140188 
Q 121.938007 179.969035 120.33707 179.969035 
Q 117.465193 179.969035 115.819662 180.635887 
Q 114.178589 181.301124 114.178589 182.471748 
Q 114.178589 183.637528 115.819662 184.30438 
Q 117.465193 184.969618 120.33707 184.969618 
Q 121.938007 184.969618 123.387324 184.798464 
Q 124.83664 184.625696 126.330551 184.257555 
L 126.330551 185.817311 
z
" clip-path="url(#p2d2302c991)" style="fill: #0000ff"/>
   </g>
   <g id="patch_9">
    <path d="M 126.330551 177.821692 
Q 124.545527 178.191375 122.625636 178.37706 
Q 120.705744 178.561057 118.658917 178.561057 
Q 114.033723 178.561057 111.332387 177.46045 
Q 108.631052 176.359844 108.631052 174.477671 
Q 108.631052 172.573554 111.379988 171.481387 
Q 114.132891 170.389221 118.92072 170.389221 
Q 120.765244 170.389221 122.455067 170.537769 
Q 124.148856 170.684629 125.648275 170.974973 
L 125.648275 172.603939 
Q 124.101255 172.23088 122.570102 172.046883 
Q 121.038948 171.861198 119.499861 171.861198 
Q 116.651757 171.861198 115.108704 172.539793 
Q 113.56565 173.2167 113.56565 174.477671 
Q 113.56565 175.726826 115.053169 176.408797 
Q 116.540689 177.08908 119.277725 177.08908 
Q 120.023468 177.08908 120.66211 177.050255 
Q 121.300752 177.009742 121.808492 176.925339 
L 121.808492 175.395969 
L 118.892953 175.395969 
L 118.892953 174.033715 
L 126.330551 174.033715 
L 126.330551 177.821692 
z
" clip-path="url(#p2d2302c991)" style="fill: #ffa600"/>
   </g>
   <g id="patch_10">
    <path d="M 120.89151 164.6935 
L 114.084567 164.6935 
L 113.009787 170.389221 
L 108.631052 170.389221 
L 114.88432 139.123065 
L 120.077283 139.123065 
L 126.330551 170.389221 
L 121.955434 170.389221 
L 120.89151 164.6935 
z
M 115.170204 158.890566 
L 119.795017 158.890566 
L 117.48623 146.453793 
L 115.170204 158.890566 
z
" clip-path="url(#p2d2302c991)" style="fill: #008000"/>
   </g>
   <g id="patch_11">
    <path d="M 144.961603 191.768074 
Q 143.176579 192.004037 141.256687 192.122557 
Q 139.336795 192.24 137.289969 192.24 
Q 132.664774 192.24 129.963439 191.537498 
Q 127.262104 190.834996 127.262104 189.633631 
Q 127.262104 188.418259 130.01104 187.721144 
Q 132.763942 187.024029 137.551772 187.024029 
Q 139.396296 187.024029 141.086118 187.118846 
Q 142.779907 187.212584 144.279327 187.397907 
L 144.279327 188.437653 
Q 142.732307 188.199535 141.201153 188.082092 
Q 139.67 187.963572 138.130913 187.963572 
Q 135.282809 187.963572 133.739755 188.39671 
Q 132.196702 188.82877 132.196702 189.633631 
Q 132.196702 190.430949 133.684221 190.866242 
Q 135.171741 191.300457 137.908777 191.300457 
Q 138.65452 191.300457 139.293162 191.275676 
Q 139.931803 191.249817 140.439543 191.195944 
L 140.439543 190.219768 
L 137.524005 190.219768 
L 137.524005 189.35026 
L 144.961603 189.35026 
L 144.961603 191.768074 
z
" clip-path="url(#p2d2302c991)" style="fill: #ffa600"/>
   </g>
   <g id="patch_12">
    <path d="M 127.262104 180.821253 
L 144.961603 180.821253 
L 144.961603 182.030968 
L 138.593899 182.030968 
L 138.593899 187.024029 
L 133.642156 187.024029 
L 133.642156 182.030968 
L 127.262104 182.030968 
L 127.262104 180.821253 
z
" clip-path="url(#p2d2302c991)" style="fill: #ff0000"/>
   </g>
   <g id="patch_13">
    <path d="M 144.961603 180.275594 
Q 143.48107 180.546065 141.880133 180.682873 
Q 140.279195 180.821253 138.535556 180.821253 
Q 133.335855 180.821253 130.298979 179.79598 
Q 127.262104 178.770707 127.262104 177.017363 
Q 127.262104 175.25773 130.298979 174.234029 
Q 133.335855 173.208756 138.535556 173.208756 
Q 140.279195 173.208756 141.880133 173.347136 
Q 143.48107 173.483944 144.961603 173.754415 
L 144.961603 175.271883 
Q 143.467692 174.913351 142.018375 174.746666 
Q 140.569059 174.57998 138.968121 174.57998 
Q 136.096245 174.57998 134.450713 175.229425 
Q 132.809641 175.877297 132.809641 177.017363 
Q 132.809641 178.152712 134.450713 178.802157 
Q 136.096245 179.450029 138.968121 179.450029 
Q 140.569059 179.450029 142.018375 179.283343 
Q 143.467692 179.115085 144.961603 178.756554 
L 144.961603 180.275594 
z
" clip-path="url(#p2d2302c991)" style="fill: #0000ff"/>
   </g>
   <g id="patch_14">
    <path d="M 139.522562 168.997114 
L 132.715619 168.997114 
L 131.640839 173.208756 
L 127.262104 173.208756 
L 133.515372 150.089318 
L 138.708335 150.089318 
L 144.961603 173.208756 
L 140.586486 173.208756 
L 139.522562 168.997114 
z
M 133.801256 164.706194 
L 138.426069 164.706194 
L 136.117281 155.509949 
L 133.801256 164.706194 
z
" clip-path="url(#p2d2302c991)" style="fill: #008000"/>
   </g>
   <g id="patch_15">
    <path d="M 145.893155 189.704424 
L 163.592654 189.704424 
L 163.592654 190.198932 
L 157.224951 190.198932 
L 157.224951 192.24 
L 152.273207 192.24 
L 152.273207 190.198932 
L 145.893155 190.198932 
L 145.893155 189.704424 
z
" clip-path="url(#p2d2302c991)" style="fill: #ff0000"/>
   </g>
   <g id="patch_16">
    <path d="M 158.153614 188.889301 
L 151.346671 188.889301 
L 150.27189 189.704424 
L 145.893155 189.704424 
L 152.146423 185.229877 
L 157.339386 185.229877 
L 163.592654 189.704424 
L 159.217538 189.704424 
L 158.153614 188.889301 
z
M 152.432308 188.058834 
L 157.057121 188.058834 
L 154.748333 186.278989 
L 152.432308 188.058834 
z
" clip-path="url(#p2d2302c991)" style="fill: #008000"/>
   </g>
   <g id="patch_17">
    <path d="M 163.592654 184.834307 
Q 162.112122 185.030382 160.511185 185.12956 
Q 158.910247 185.229877 157.166608 185.229877 
Q 151.966906 185.229877 148.930031 184.486615 
Q 145.893155 183.743353 145.893155 182.472284 
Q 145.893155 181.196655 148.930031 180.454532 
Q 151.966906 179.71127 157.166608 179.71127 
Q 158.910247 179.71127 160.511185 179.811588 
Q 162.112122 179.910766 163.592654 180.106841 
L 163.592654 181.206914 
Q 162.098744 180.947001 160.649427 180.826164 
Q 159.200111 180.705326 157.599173 180.705326 
Q 154.727297 180.705326 153.081765 181.176135 
Q 151.440693 181.645804 151.440693 182.472284 
Q 151.440693 183.295344 153.081765 183.766153 
Q 154.727297 184.235821 157.599173 184.235821 
Q 159.200111 184.235821 160.649427 184.114984 
Q 162.098744 183.993007 163.592654 183.733094 
L 163.592654 184.834307 
z
" clip-path="url(#p2d2302c991)" style="fill: #0000ff"/>
   </g>
   <g id="patch_18">
    <path d="M 163.592654 178.82736 
Q 161.807631 179.269315 159.887739 179.491302 
Q 157.967847 179.71127 155.92102 179.71127 
Q 151.295826 179.71127 148.594491 178.395496 
Q 145.893155 177.079721 145.893155 174.829584 
Q 145.893155 172.553213 148.642091 171.247529 
Q 151.394994 169.941844 156.182824 169.941844 
Q 158.027348 169.941844 159.71717 170.119434 
Q 161.410959 170.295005 162.910379 170.642111 
L 162.910379 172.589538 
Q 161.363358 172.143547 159.832205 171.923579 
Q 158.301052 171.701592 156.761965 171.701592 
Q 153.913861 171.701592 152.370807 172.512852 
Q 150.827753 173.322094 150.827753 174.829584 
Q 150.827753 176.322948 152.315273 177.138245 
Q 153.802792 177.951523 156.539828 177.951523 
Q 157.285572 177.951523 157.924213 177.905107 
Q 158.562855 177.856674 159.070595 177.755771 
L 159.070595 175.927409 
L 156.155057 175.927409 
L 156.155057 174.298835 
L 163.592654 174.298835 
L 163.592654 178.82736 
z
" clip-path="url(#p2d2302c991)" style="fill: #ffa600"/>
   </g>
   <g id="patch_19">
    <path d="M 182.223706 191.742974 
Q 180.438683 191.991487 178.518791 192.116311 
Q 176.598899 192.24 174.552072 192.24 
Q 169.926878 192.24 167.225542 191.500134 
Q 164.524207 190.760269 164.524207 189.495008 
Q 164.524207 188.214995 167.273143 187.480804 
Q 170.026046 186.746612 174.813876 186.746612 
Q 176.6584 186.746612 178.348222 186.846471 
Q 180.042011 186.945196 181.541431 187.140375 
L 181.541431 188.235421 
Q 179.99441 187.984639 178.463257 187.860949 
Q 176.932103 187.736125 175.393016 187.736125 
Q 172.544912 187.736125 171.001859 188.1923 
Q 169.458805 188.64734 169.458805 189.495008 
Q 169.458805 190.334733 170.946325 190.793177 
Q 172.433844 191.250487 175.17088 191.250487 
Q 175.916623 191.250487 176.555265 191.224387 
Q 177.193907 191.197153 177.701647 191.140415 
L 177.701647 190.112319 
L 174.786108 190.112319 
L 174.786108 189.196565 
L 182.223706 189.196565 
L 182.223706 191.742974 
z
" clip-path="url(#p2d2302c991)" style="fill: #ffa600"/>
   </g>
   <g id="patch_20">
    <path d="M 164.524207 179.879877 
L 182.223706 179.879877 
L 182.223706 181.219082 
L 175.856003 181.219082 
L 175.856003 186.746612 
L 170.904259 186.746612 
L 170.904259 181.219082 
L 164.524207 181.219082 
L 164.524207 179.879877 
z
" clip-path="url(#p2d2302c991)" style="fill: #ff0000"/>
   </g>
   <g id="patch_21">
    <path d="M 176.784666 178.191155 
L 169.977723 178.191155 
L 168.902942 179.879877 
L 164.524207 179.879877 
L 170.777475 170.609785 
L 175.970438 170.609785 
L 182.223706 179.879877 
L 177.84859 179.879877 
L 176.784666 178.191155 
z
M 171.06336 176.470645 
L 175.688172 176.470645 
L 173.379385 172.78327 
L 171.06336 176.470645 
z
" clip-path="url(#p2d2302c991)" style="fill: #008000"/>
   </g>
   <g id="patch_22">
    <path d="M 182.223706 168.481005 
Q 180.743174 169.536193 179.142236 170.069921 
Q 177.541299 170.609785 175.79766 170.609785 
Q 170.597958 170.609785 167.561083 166.609887 
Q 164.524207 162.609989 164.524207 155.769673 
Q 164.524207 148.904817 167.561083 144.911054 
Q 170.597958 140.911156 175.79766 140.911156 
Q 177.541299 140.911156 179.142236 141.45102 
Q 180.743174 141.984749 182.223706 143.039936 
L 182.223706 148.960031 
Q 180.729795 147.561293 179.280479 146.911003 
Q 177.831162 146.260713 176.230225 146.260713 
Q 173.358349 146.260713 171.712817 148.794391 
Q 170.071745 151.321934 170.071745 155.769673 
Q 170.071745 160.199008 171.712817 162.732685 
Q 173.358349 165.260228 176.230225 165.260228 
Q 177.831162 165.260228 179.280479 164.609938 
Q 180.729795 163.953513 182.223706 162.554776 
L 182.223706 168.481005 
z
" clip-path="url(#p2d2302c991)" style="fill: #0000ff"/>
   </g>
   <g id="patch_23">
    <path d="M 183.155259 184.899177 
L 200.854758 184.899177 
L 200.854758 186.330842 
L 194.487054 186.330842 
L 194.487054 192.24 
L 189.535311 192.24 
L 189.535311 186.330842 
L 183.155259 186.330842 
L 183.155259 184.899177 
z
" clip-path="url(#p2d2302c991)" style="fill: #ff0000"/>
   </g>
   <g id="patch_24">
    <path d="M 200.854758 184.214873 
Q 199.069734 184.557025 197.149843 184.728882 
Q 195.229951 184.899177 193.183124 184.899177 
Q 188.55793 184.899177 185.856594 183.880533 
Q 183.155259 182.861889 183.155259 181.119884 
Q 183.155259 179.357568 185.904195 178.346736 
Q 188.657098 177.335904 193.444927 177.335904 
Q 195.289451 177.335904 196.979274 177.47339 
Q 198.673063 177.609313 200.172482 177.878035 
L 200.172482 179.38569 
Q 198.625462 179.040413 197.094309 178.870119 
Q 195.563155 178.698262 194.024068 178.698262 
Q 191.175964 178.698262 189.632911 179.326321 
Q 188.089857 179.952818 188.089857 181.119884 
Q 188.089857 182.276013 189.577376 182.907197 
Q 191.064896 183.536819 193.801932 183.536819 
Q 194.547675 183.536819 195.186317 183.500885 
Q 195.824959 183.463389 196.332699 183.385272 
L 196.332699 181.969795 
L 193.41716 181.969795 
L 193.41716 180.708989 
L 200.854758 180.708989 
L 200.854758 184.214873 
z
" clip-path="url(#p2d2302c991)" style="fill: #ffa600"/>
   </g>
   <g id="patch_25">
    <path d="M 200.854758 176.650268 
Q 199.374225 176.990122 197.773288 177.162025 
Q 196.172351 177.335904 194.428711 177.335904 
Q 189.22901 177.335904 186.192134 176.047619 
Q 183.155259 174.759335 183.155259 172.55621 
Q 183.155259 170.345182 186.192134 169.058873 
Q 189.22901 167.770588 194.428711 167.770588 
Q 196.172351 167.770588 197.773288 167.944467 
Q 199.374225 168.11637 200.854758 168.456225 
L 200.854758 170.362965 
Q 199.360847 169.91246 197.911531 169.703015 
Q 196.462214 169.49357 194.861277 169.49357 
Q 191.9894 169.49357 190.343869 170.309616 
Q 188.702796 171.123685 188.702796 172.55621 
Q 188.702796 173.982807 190.343869 174.798853 
Q 191.9894 175.612922 194.861277 175.612922 
Q 196.462214 175.612922 197.911531 175.403477 
Q 199.360847 175.192056 200.854758 174.741552 
L 200.854758 176.650268 
z
" clip-path="url(#p2d2302c991)" style="fill: #0000ff"/>
   </g>
   <g id="patch_26">
    <path d="M 195.415717 160.111681 
L 188.608774 160.111681 
L 187.533994 167.770588 
L 183.155259 167.770588 
L 189.408527 125.727691 
L 194.60149 125.727691 
L 200.854758 167.770588 
L 196.479641 167.770588 
L 195.415717 160.111681 
z
M 189.694411 152.308605 
L 194.319224 152.308605 
L 192.010437 135.585155 
L 189.694411 152.308605 
z
" clip-path="url(#p2d2302c991)" style="fill: #008000"/>
   </g>
   <g id="patch_27">
    <path d="M 219.48581 192.033883 
Q 218.005277 192.136051 216.40434 192.187728 
Q 214.803402 192.24 213.059763 192.24 
Q 207.860062 192.24 204.823186 191.852714 
Q 201.786311 191.465429 201.786311 190.803123 
Q 201.786311 190.138441 204.823186 189.75175 
Q 207.860062 189.364464 213.059763 189.364464 
Q 214.803402 189.364464 216.40434 189.416736 
Q 218.005277 189.468414 219.48581 189.570581 
L 219.48581 190.143787 
Q 217.991899 190.008356 216.542582 189.945393 
Q 215.093266 189.882429 213.492328 189.882429 
Q 210.620452 189.882429 208.97492 190.12775 
Q 207.333848 190.372476 207.333848 190.803123 
Q 207.333848 191.231988 208.97492 191.477309 
Q 210.620452 191.722035 213.492328 191.722035 
Q 215.093266 191.722035 216.542582 191.659072 
Q 217.991899 191.595514 219.48581 191.460083 
L 219.48581 192.033883 
z
" clip-path="url(#p2d2302c991)" style="fill: #0000ff"/>
   </g>
   <g id="patch_28">
    <path d="M 214.046769 188.587164 
L 207.239826 188.587164 
L 206.165046 189.364464 
L 201.786311 189.364464 
L 208.039579 185.097541 
L 213.232542 185.097541 
L 219.48581 189.364464 
L 215.110693 189.364464 
L 214.046769 188.587164 
z
M 208.325463 187.795231 
L 212.950276 187.795231 
L 210.641488 186.097972 
L 208.325463 187.795231 
z
" clip-path="url(#p2d2302c991)" style="fill: #008000"/>
   </g>
   <g id="patch_29">
    <path d="M 201.786311 176.378175 
L 219.48581 176.378175 
L 219.48581 178.078694 
L 213.118106 178.078694 
L 213.118106 185.097541 
L 208.166363 185.097541 
L 208.166363 178.078694 
L 201.786311 178.078694 
L 201.786311 176.378175 
z
" clip-path="url(#p2d2302c991)" style="fill: #ff0000"/>
   </g>
   <g id="patch_30">
    <path d="M 219.48581 175.303923 
Q 217.700786 175.841049 215.780894 176.110838 
Q 213.861002 176.378175 211.814176 176.378175 
Q 207.188981 176.378175 204.487646 174.77906 
Q 201.786311 173.179946 201.786311 170.445264 
Q 201.786311 167.678698 204.535247 166.091847 
Q 207.288149 164.504996 212.075979 164.504996 
Q 213.920503 164.504996 215.610325 164.720827 
Q 217.304114 164.934206 218.803534 165.356058 
L 218.803534 167.722845 
Q 217.256514 167.180814 215.72536 166.913478 
Q 214.194207 166.643689 212.65512 166.643689 
Q 209.807016 166.643689 208.263962 167.629646 
Q 206.720909 168.61315 206.720909 170.445264 
Q 206.720909 172.26021 208.208428 173.251072 
Q 209.695948 174.239482 212.432984 174.239482 
Q 213.178727 174.239482 213.817369 174.183071 
Q 214.45601 174.124208 214.96375 174.001577 
L 214.96375 171.779495 
L 212.048212 171.779495 
L 212.048212 169.800223 
L 219.48581 169.800223 
L 219.48581 175.303923 
z
" clip-path="url(#p2d2302c991)" style="fill: #ffa600"/>
   </g>
   <g id="patch_31">
    <path d="M 232.677821 191.517965 
L 225.870878 191.517965 
L 224.796097 192.24 
L 220.417362 192.24 
L 226.67063 188.276452 
L 231.863593 188.276452 
L 238.116861 192.24 
L 233.741745 192.24 
L 232.677821 191.517965 
z
M 226.956515 190.782339 
L 231.581328 190.782339 
L 229.27254 189.205754 
L 226.956515 190.782339 
z
" clip-path="url(#p2d2302c991)" style="fill: #008000"/>
   </g>
   <g id="patch_32">
    <path d="M 238.116861 187.545438 
Q 236.331838 187.910945 234.411946 188.094533 
Q 232.492054 188.276452 230.445227 188.276452 
Q 225.820033 188.276452 223.118698 187.188276 
Q 220.417362 186.1001 220.417362 184.239185 
Q 220.417362 182.356574 223.166298 181.276743 
Q 225.919201 180.196912 230.707031 180.196912 
Q 232.551555 180.196912 234.241377 180.343782 
Q 235.935166 180.488983 237.434586 180.776048 
L 237.434586 182.386616 
Q 235.887565 182.017771 234.356412 181.835852 
Q 232.825259 181.652264 231.286172 181.652264 
Q 228.438068 181.652264 226.895014 182.323194 
Q 225.35196 182.992456 225.35196 184.239185 
Q 225.35196 185.474232 226.83948 186.1485 
Q 228.327 186.8211 231.064035 186.8211 
Q 231.809779 186.8211 232.44842 186.782713 
Q 233.087062 186.742658 233.594802 186.659209 
L 233.594802 185.147111 
L 230.679264 185.147111 
L 230.679264 183.800243 
L 238.116861 183.800243 
L 238.116861 187.545438 
z
" clip-path="url(#p2d2302c991)" style="fill: #ffa600"/>
   </g>
   <g id="patch_33">
    <path d="M 220.417362 171.660039 
L 238.116861 171.660039 
L 238.116861 173.324967 
L 231.749158 173.324967 
L 231.749158 180.196912 
L 226.797414 180.196912 
L 226.797414 173.324967 
L 220.417362 173.324967 
L 220.417362 171.660039 
z
" clip-path="url(#p2d2302c991)" style="fill: #ff0000"/>
   </g>
   <g id="patch_34">
    <path d="M 238.116861 169.867993 
Q 236.636329 170.75627 235.035392 171.205572 
Q 233.434454 171.660039 231.690815 171.660039 
Q 226.491113 171.660039 223.454238 168.292853 
Q 220.417362 164.925666 220.417362 159.167365 
Q 220.417362 153.388405 223.454238 150.026383 
Q 226.491113 146.659197 231.690815 146.659197 
Q 233.434454 146.659197 235.035392 147.113664 
Q 236.636329 147.562966 238.116861 148.451243 
L 238.116861 153.434885 
Q 236.622951 152.257403 235.173634 151.709977 
Q 233.724318 151.162551 232.12338 151.162551 
Q 229.251504 151.162551 227.605972 153.295446 
Q 225.9649 155.423177 225.9649 159.167365 
Q 225.9649 162.896059 227.605972 165.028954 
Q 229.251504 167.156685 232.12338 167.156685 
Q 233.724318 167.156685 235.173634 166.609259 
Q 236.622951 166.056669 238.116861 164.879187 
L 238.116861 169.867993 
z
" clip-path="url(#p2d2302c991)" style="fill: #0000ff"/>
   </g>
   <g id="patch_35">
    <path d="M 256.747913 191.876912 
Q 255.267381 192.056887 253.666443 192.14792 
Q 252.065506 192.24 250.321867 192.24 
Q 245.122165 192.24 242.08529 191.557771 
Q 239.048414 190.875543 239.048414 189.708849 
Q 239.048414 188.537969 242.08529 187.856786 
Q 245.122165 187.174558 250.321867 187.174558 
Q 252.065506 187.174558 253.666443 187.266638 
Q 255.267381 187.357671 256.747913 187.537646 
L 256.747913 188.547386 
Q 255.254002 188.308815 253.804686 188.197901 
Q 252.355369 188.086986 250.754432 188.086986 
Q 247.882556 188.086986 246.237024 188.519134 
Q 244.595952 188.950236 244.595952 189.708849 
Q 244.595952 190.464322 246.237024 190.89647 
Q 247.882556 191.327572 250.754432 191.327572 
Q 252.355369 191.327572 253.804686 191.216657 
Q 255.254002 191.104696 256.747913 190.866126 
L 256.747913 191.876912 
z
" clip-path="url(#p2d2302c991)" style="fill: #0000ff"/>
   </g>
   <g id="patch_36">
    <path d="M 256.747913 186.655948 
Q 254.96289 186.915253 253.042998 187.045497 
Q 251.123106 187.174558 249.076279 187.174558 
Q 244.451085 187.174558 241.74975 186.402563 
Q 239.048414 185.630567 239.048414 184.31036 
Q 239.048414 182.974761 241.79735 182.208686 
Q 244.550253 181.44261 249.338083 181.44261 
Q 251.182607 181.44261 252.872429 181.546806 
Q 254.566218 181.649818 256.065638 181.853473 
L 256.065638 182.996074 
Q 254.518617 182.7344 252.987464 182.60534 
Q 251.45631 182.475095 249.917223 182.475095 
Q 247.069119 182.475095 245.526066 182.95108 
Q 243.983012 183.425881 243.983012 184.31036 
Q 243.983012 185.186551 245.470532 185.664904 
Q 246.958051 186.142073 249.695087 186.142073 
Q 250.44083 186.142073 251.079472 186.11484 
Q 251.718114 186.086423 252.225854 186.027221 
L 252.225854 184.954479 
L 249.310315 184.954479 
L 249.310315 183.998957 
L 256.747913 183.998957 
L 256.747913 186.655948 
z
" clip-path="url(#p2d2302c991)" style="fill: #ffa600"/>
   </g>
   <g id="patch_37">
    <path d="M 251.308873 180.058461 
L 244.50193 180.058461 
L 243.427149 181.44261 
L 239.048414 181.44261 
L 245.301682 173.844447 
L 250.494645 173.844447 
L 256.747913 181.44261 
L 252.372797 181.44261 
L 251.308873 180.058461 
z
M 245.587567 178.648258 
L 250.212379 178.648258 
L 247.903592 175.625928 
L 245.587567 178.648258 
z
" clip-path="url(#p2d2302c991)" style="fill: #008000"/>
   </g>
   <g id="patch_38">
    <path d="M 239.048414 152.382969 
L 256.747913 152.382969 
L 256.747913 156.568555 
L 250.38021 156.568555 
L 250.38021 173.844447 
L 245.428466 173.844447 
L 245.428466 156.568555 
L 239.048414 156.568555 
L 239.048414 152.382969 
z
" clip-path="url(#p2d2302c991)" style="fill: #ff0000"/>
   </g>
   <g id="patch_39">
    <path d="M 269.939924 190.793061 
L 263.132981 190.793061 
L 262.058201 192.24 
L 257.679466 192.24 
L 263.932734 184.297156 
L 269.125697 184.297156 
L 275.378965 192.24 
L 271.003849 192.24 
L 269.939924 190.793061 
z
M 264.218618 189.318885 
L 268.843431 189.318885 
L 266.534644 186.159451 
L 264.218618 189.318885 
z
" clip-path="url(#p2d2302c991)" style="fill: #008000"/>
   </g>
   <g id="patch_40">
    <path d="M 257.679466 176.106098 
L 275.378965 176.106098 
L 275.378965 177.703582 
L 269.011261 177.703582 
L 269.011261 184.297156 
L 264.059518 184.297156 
L 264.059518 177.703582 
L 257.679466 177.703582 
L 257.679466 176.106098 
z
" clip-path="url(#p2d2302c991)" style="fill: #ff0000"/>
   </g>
   <g id="patch_41">
    <path d="M 275.378965 175.252705 
Q 273.593941 175.679401 271.67405 175.893724 
Q 269.754158 176.106098 267.707331 176.106098 
Q 263.082137 176.106098 260.380801 174.835751 
Q 257.679466 173.565405 257.679466 171.392956 
Q 257.679466 169.195179 260.428402 167.934575 
Q 263.181305 166.67397 267.969134 166.67397 
Q 269.813659 166.67397 271.503481 166.845428 
Q 273.19727 167.014937 274.696689 167.350059 
L 274.696689 169.23025 
Q 273.149669 168.799657 271.618516 168.587283 
Q 270.087362 168.372961 268.548275 168.372961 
Q 265.700171 168.372961 264.157118 169.156211 
Q 262.614064 169.937513 262.614064 171.392956 
Q 262.614064 172.834761 264.101583 173.621908 
Q 265.589103 174.407107 268.326139 174.407107 
Q 269.071882 174.407107 269.710524 174.362294 
Q 270.349166 174.315533 270.856906 174.218113 
L 270.856906 172.452877 
L 267.941367 172.452877 
L 267.941367 170.880531 
L 275.378965 170.880531 
L 275.378965 175.252705 
z
" clip-path="url(#p2d2302c991)" style="fill: #ffa600"/>
   </g>
   <g id="patch_42">
    <path d="M 275.378965 163.186773 
Q 273.898432 164.915297 272.297495 165.789609 
Q 270.696558 166.67397 268.952919 166.67397 
Q 263.753217 166.67397 260.716341 160.121657 
Q 257.679466 153.569344 257.679466 142.364084 
Q 257.679466 131.118626 260.716341 124.576362 
Q 263.753217 118.024049 268.952919 118.024049 
Q 270.696558 118.024049 272.297495 118.90841 
Q 273.898432 119.782722 275.378965 121.511246 
L 275.378965 131.209072 
Q 273.885054 128.917772 272.435738 127.852519 
Q 270.986421 126.787266 269.385484 126.787266 
Q 266.513607 126.787266 264.868076 130.937734 
Q 263.227003 135.078153 263.227003 142.364084 
Q 263.227003 149.619866 264.868076 153.770335 
Q 266.513607 157.910754 269.385484 157.910754 
Q 270.986421 157.910754 272.435738 156.8455 
Q 273.885054 155.770197 275.378965 153.478897 
L 275.378965 163.186773 
z
" clip-path="url(#p2d2302c991)" style="fill: #0000ff"/>
   </g>
   <g id="patch_43">
    <path d="M 294.010017 192.005964 
Q 292.529484 192.12197 290.928547 192.180648 
Q 289.32761 192.24 287.58397 192.24 
Q 282.384269 192.24 279.347393 191.800255 
Q 276.310518 191.36051 276.310518 190.608491 
Q 276.310518 189.853775 279.347393 189.414704 
Q 282.384269 188.974959 287.58397 188.974959 
Q 289.32761 188.974959 290.928547 189.034311 
Q 292.529484 189.092989 294.010017 189.208995 
L 294.010017 189.859845 
Q 292.516106 189.706069 291.066789 189.634577 
Q 289.617473 189.563085 288.016535 189.563085 
Q 285.144659 189.563085 283.499127 189.841635 
Q 281.858055 190.119511 281.858055 190.608491 
Q 281.858055 191.095448 283.499127 191.373999 
Q 285.144659 191.651874 288.016535 191.651874 
Q 289.617473 191.651874 291.066789 191.580382 
Q 292.516106 191.508215 294.010017 191.354439 
L 294.010017 192.005964 
z
" clip-path="url(#p2d2302c991)" style="fill: #0000ff"/>
   </g>
   <g id="patch_44">
    <path d="M 276.310518 184.936619 
L 294.010017 184.936619 
L 294.010017 185.724208 
L 287.642313 185.724208 
L 287.642313 188.974959 
L 282.69057 188.974959 
L 282.69057 185.724208 
L 276.310518 185.724208 
L 276.310518 184.936619 
z
" clip-path="url(#p2d2302c991)" style="fill: #ff0000"/>
   </g>
   <g id="patch_45">
    <path d="M 288.570976 183.731389 
L 281.764033 183.731389 
L 280.689253 184.936619 
L 276.310518 184.936619 
L 282.563786 178.320615 
L 287.756749 178.320615 
L 294.010017 184.936619 
L 289.6349 184.936619 
L 288.570976 183.731389 
z
M 282.84967 182.503472 
L 287.474483 182.503472 
L 285.165695 179.871817 
L 282.84967 182.503472 
z
" clip-path="url(#p2d2302c991)" style="fill: #008000"/>
   </g>
   <g id="patch_46">
    <path d="M 294.010017 177.255578 
Q 292.224993 177.788097 290.305101 178.055572 
Q 288.385209 178.320615 286.338383 178.320615 
Q 281.713188 178.320615 279.011853 176.735218 
Q 276.310518 175.149821 276.310518 172.438597 
Q 276.310518 169.695762 279.059454 168.122523 
Q 281.812356 166.549284 286.600186 166.549284 
Q 288.44471 166.549284 290.134532 166.763264 
Q 291.828321 166.974812 293.327741 167.393046 
L 293.327741 169.739531 
Q 291.780721 169.202149 290.249567 168.937106 
Q 288.718414 168.669631 287.179327 168.669631 
Q 284.331223 168.669631 282.788169 169.64713 
Q 281.245116 170.622198 281.245116 172.438597 
Q 281.245116 174.237974 282.732635 175.220337 
Q 284.220155 176.200268 286.957191 176.200268 
Q 287.702934 176.200268 288.341576 176.144341 
Q 288.980217 176.085983 289.487957 175.964404 
L 289.487957 173.761382 
L 286.572419 173.761382 
L 286.572419 171.799088 
L 294.010017 171.799088 
L 294.010017 177.255578 
z
" clip-path="url(#p2d2302c991)" style="fill: #ffa600"/>
   </g>
   <g id="patch_47">
    <path d="M 307.202028 191.21604 
L 300.395085 191.21604 
L 299.320305 192.24 
L 294.941569 192.24 
L 301.194837 186.61906 
L 306.3878 186.61906 
L 312.641068 192.24 
L 308.265952 192.24 
L 307.202028 191.21604 
z
M 301.480722 190.172805 
L 306.105535 190.172805 
L 303.796747 187.936957 
L 301.480722 190.172805 
z
" clip-path="url(#p2d2302c991)" style="fill: #008000"/>
   </g>
   <g id="patch_48">
    <path d="M 312.641068 186.06426 
Q 310.856045 186.34166 308.936153 186.480993 
Q 307.016261 186.61906 304.969434 186.61906 
Q 300.34424 186.61906 297.642905 185.793193 
Q 294.941569 184.967326 294.941569 183.554992 
Q 294.941569 182.126192 297.690505 181.306659 
Q 300.443408 180.487125 305.231238 180.487125 
Q 307.075762 180.487125 308.765584 180.598592 
Q 310.459373 180.708792 311.958793 180.926659 
L 311.958793 182.148992 
Q 310.411772 181.869059 308.880619 181.730992 
Q 307.349466 181.591659 305.810379 181.591659 
Q 302.962275 181.591659 301.419221 182.100859 
Q 299.876167 182.608792 299.876167 183.554992 
Q 299.876167 184.492326 301.363687 185.004059 
Q 302.851207 185.514526 305.588242 185.514526 
Q 306.333986 185.514526 306.972627 185.485393 
Q 307.611269 185.454993 308.119009 185.39166 
L 308.119009 184.244059 
L 305.203471 184.244059 
L 305.203471 183.221859 
L 312.641068 183.221859 
L 312.641068 186.06426 
z
" clip-path="url(#p2d2302c991)" style="fill: #ffa600"/>
   </g>
   <g id="patch_49">
    <path d="M 312.641068 179.33335 
Q 311.160536 179.90525 309.559599 180.194525 
Q 307.958661 180.487125 306.215022 180.487125 
Q 301.01532 180.487125 297.978445 178.319225 
Q 294.941569 176.151324 294.941569 172.443948 
Q 294.941569 168.723272 297.978445 166.558697 
Q 301.01532 164.390796 306.215022 164.390796 
Q 307.958661 164.390796 309.559599 164.683397 
Q 311.160536 164.972672 312.641068 165.544572 
L 312.641068 168.753197 
Q 311.147158 167.995097 309.697841 167.642647 
Q 308.248525 167.290197 306.647587 167.290197 
Q 303.775711 167.290197 302.130179 168.663422 
Q 300.489107 170.033323 300.489107 172.443948 
Q 300.489107 174.844599 302.130179 176.217824 
Q 303.775711 177.587724 306.647587 177.587724 
Q 308.248525 177.587724 309.697841 177.235274 
Q 311.147158 176.879499 312.641068 176.121399 
L 312.641068 179.33335 
z
" clip-path="url(#p2d2302c991)" style="fill: #0000ff"/>
   </g>
   <g id="patch_50">
    <path d="M 294.941569 115.846313 
L 312.641068 115.846313 
L 312.641068 125.31384 
L 306.273365 125.31384 
L 306.273365 164.390796 
L 301.321621 164.390796 
L 301.321621 125.31384 
L 294.941569 125.31384 
L 294.941569 115.846313 
z
" clip-path="url(#p2d2302c991)" style="fill: #ff0000"/>
   </g>
   <g id="patch_51">
    <path d="M 325.83308 191.246659 
L 319.026137 191.246659 
L 317.951356 192.24 
L 313.572621 192.24 
L 319.825889 186.78714 
L 325.018852 186.78714 
L 331.27212 192.24 
L 326.897004 192.24 
L 325.83308 191.246659 
z
M 320.111774 190.234619 
L 324.736586 190.234619 
L 322.427799 188.065629 
L 320.111774 190.234619 
z
" clip-path="url(#p2d2302c991)" style="fill: #008000"/>
   </g>
   <g id="patch_52">
    <path d="M 331.27212 186.088214 
Q 329.487097 186.437677 327.567205 186.613206 
Q 325.647313 186.78714 323.600486 186.78714 
Q 318.975292 186.78714 316.273957 185.74673 
Q 313.572621 184.70632 313.572621 182.927091 
Q 313.572621 181.127118 316.321557 180.094686 
Q 319.07446 179.062255 323.86229 179.062255 
Q 325.706814 179.062255 327.396636 179.202678 
Q 329.090425 179.341506 330.589845 179.61597 
L 330.589845 181.155841 
Q 329.042824 180.803186 327.511671 180.629253 
Q 325.980517 180.453724 324.44143 180.453724 
Q 321.593326 180.453724 320.050273 181.095203 
Q 318.507219 181.735087 318.507219 182.927091 
Q 318.507219 184.107924 319.994739 184.752596 
Q 321.482258 185.395671 324.219294 185.395671 
Q 324.965037 185.395671 325.603679 185.35897 
Q 326.242321 185.320672 326.750061 185.240886 
L 326.750061 183.795163 
L 323.834523 183.795163 
L 323.834523 182.507416 
L 331.27212 182.507416 
L 331.27212 186.088214 
z
" clip-path="url(#p2d2302c991)" style="fill: #ffa600"/>
   </g>
   <g id="patch_53">
    <path d="M 313.572621 166.79332 
L 331.27212 166.79332 
L 331.27212 169.186104 
L 324.904417 169.186104 
L 324.904417 179.062255 
L 319.952673 179.062255 
L 319.952673 169.186104 
L 313.572621 169.186104 
L 313.572621 166.79332 
z
" clip-path="url(#p2d2302c991)" style="fill: #ff0000"/>
   </g>
   <g id="patch_54">
    <path d="M 331.27212 163.747886 
Q 329.791588 165.257438 328.19065 166.020991 
Q 326.589713 166.79332 324.846074 166.79332 
Q 319.646372 166.79332 316.609497 161.071064 
Q 313.572621 155.348809 313.572621 145.56305 
Q 313.572621 135.742186 316.609497 130.028707 
Q 319.646372 124.306452 324.846074 124.306452 
Q 326.589713 124.306452 328.19065 125.078781 
Q 329.791588 125.842333 331.27212 127.351885 
L 331.27212 135.821174 
Q 329.778209 133.82014 328.328893 132.889835 
Q 326.879576 131.959529 325.278639 131.959529 
Q 322.406763 131.959529 320.761231 135.58421 
Q 319.120159 139.200113 319.120159 145.56305 
Q 319.120159 151.899658 320.761231 155.524338 
Q 322.406763 159.140242 325.278639 159.140242 
Q 326.879576 159.140242 328.328893 158.209937 
Q 329.778209 157.270855 331.27212 155.269821 
L 331.27212 163.747886 
z
" clip-path="url(#p2d2302c991)" style="fill: #0000ff"/>
   </g>
   <g id="patch_55">
    <path d="M 349.903172 191.842971 
Q 348.422639 192.039769 346.821702 192.139313 
Q 345.220765 192.24 343.477126 192.24 
Q 338.277424 192.24 335.240548 191.493997 
Q 332.203673 190.747995 332.203673 189.472239 
Q 332.203673 188.191906 335.240548 187.447048 
Q 338.277424 186.701045 343.477126 186.701045 
Q 345.220765 186.701045 346.821702 186.801732 
Q 348.422639 186.901276 349.903172 187.098074 
L 349.903172 188.202204 
Q 348.409261 187.941331 346.959945 187.820049 
Q 345.510628 187.698766 343.909691 187.698766 
Q 341.037814 187.698766 339.392283 188.171311 
Q 337.75121 188.642711 337.75121 189.472239 
Q 337.75121 190.298334 339.392283 190.770878 
Q 341.037814 191.242279 343.909691 191.242279 
Q 345.510628 191.242279 346.959945 191.120996 
Q 348.409261 190.998569 349.903172 190.737697 
L 349.903172 191.842971 
z
" clip-path="url(#p2d2302c991)" style="fill: #0000ff"/>
   </g>
   <g id="patch_56">
    <path d="M 332.203673 179.975171 
L 349.903172 179.975171 
L 349.903172 181.286904 
L 343.535468 181.286904 
L 343.535468 186.701045 
L 338.583725 186.701045 
L 338.583725 181.286904 
L 332.203673 181.286904 
L 332.203673 179.975171 
z
" clip-path="url(#p2d2302c991)" style="fill: #ff0000"/>
   </g>
   <g id="patch_57">
    <path d="M 349.903172 178.400131 
Q 348.118149 179.187651 346.198257 179.583209 
Q 344.278365 179.975171 342.231538 179.975171 
Q 337.606344 179.975171 334.905008 177.630591 
Q 332.203673 175.286011 332.203673 171.276493 
Q 332.203673 167.220226 334.952609 164.893626 
Q 337.705512 162.567026 342.493341 162.567026 
Q 344.337866 162.567026 346.027688 162.883473 
Q 347.721477 163.196323 349.220896 163.814832 
L 349.220896 167.284954 
Q 347.673876 166.490242 346.142723 166.09828 
Q 344.611569 165.702722 343.072482 165.702722 
Q 340.224378 165.702722 338.681325 167.148306 
Q 337.138271 168.590295 337.138271 171.276493 
Q 337.138271 173.937519 338.62579 175.390295 
Q 340.11331 176.839475 342.850346 176.839475 
Q 343.596089 176.839475 344.234731 176.756768 
Q 344.873373 176.670464 345.381113 176.490665 
L 345.381113 173.232706 
L 342.465574 173.232706 
L 342.465574 170.33075 
L 349.903172 170.33075 
L 349.903172 178.400131 
z
" clip-path="url(#p2d2302c991)" style="fill: #ffa600"/>
   </g>
   <g id="patch_58">
    <path d="M 344.464131 146.422622 
L 337.657188 146.422622 
L 336.582408 162.567026 
L 332.203673 162.567026 
L 338.456941 73.943745 
L 343.649904 73.943745 
L 349.903172 162.567026 
L 345.528056 162.567026 
L 344.464131 146.422622 
z
M 338.742825 129.974324 
L 343.367638 129.974324 
L 341.058851 94.722542 
L 338.742825 129.974324 
z
" clip-path="url(#p2d2302c991)" style="fill: #008000"/>
   </g>
   <g id="patch_59">
    <path d="M 350.834725 186.224028 
L 368.534224 186.224028 
L 368.534224 187.39731 
L 362.16652 187.39731 
L 362.16652 192.24 
L 357.214777 192.24 
L 357.214777 187.39731 
L 350.834725 187.39731 
L 350.834725 186.224028 
z
" clip-path="url(#p2d2302c991)" style="fill: #ff0000"/>
   </g>
   <g id="patch_60">
    <path d="M 363.095183 185.047915 
L 356.28824 185.047915 
L 355.21346 186.224028 
L 350.834725 186.224028 
L 357.087993 179.767863 
L 362.280956 179.767863 
L 368.534224 186.224028 
L 364.159107 186.224028 
L 363.095183 185.047915 
z
M 357.373877 183.849664 
L 361.99869 183.849664 
L 359.689902 181.281588 
L 357.373877 183.849664 
z
" clip-path="url(#p2d2302c991)" style="fill: #008000"/>
   </g>
   <g id="patch_61">
    <path d="M 368.534224 179.273536 
Q 367.053691 179.518562 365.452754 179.6425 
Q 363.851817 179.767863 362.108177 179.767863 
Q 356.908476 179.767863 353.8716 178.839041 
Q 350.834725 177.910219 350.834725 176.32182 
Q 350.834725 174.727723 353.8716 173.800326 
Q 356.908476 172.871504 362.108177 172.871504 
Q 363.851817 172.871504 365.452754 172.996867 
Q 367.053691 173.120804 368.534224 173.365831 
L 368.534224 174.740544 
Q 367.040313 174.415741 365.590996 174.264737 
Q 364.14168 174.113732 362.540743 174.113732 
Q 359.668866 174.113732 358.023334 174.702081 
Q 356.382262 175.289005 356.382262 176.32182 
Q 356.382262 177.350362 358.023334 177.938711 
Q 359.668866 178.525635 362.540743 178.525635 
Q 364.14168 178.525635 365.590996 178.37463 
Q 367.040313 178.222201 368.534224 177.897398 
L 368.534224 179.273536 
z
" clip-path="url(#p2d2302c991)" style="fill: #0000ff"/>
   </g>
   <g id="patch_62">
    <path d="M 368.534224 170.654444 
Q 366.7492 171.762974 364.829308 172.31977 
Q 362.909416 172.871504 360.86259 172.871504 
Q 356.237396 172.871504 353.53606 169.571223 
Q 350.834725 166.270942 350.834725 160.627056 
Q 350.834725 154.917367 353.583661 151.642395 
Q 356.336563 148.367422 361.124393 148.367422 
Q 362.968917 148.367422 364.658739 148.812859 
Q 366.352528 149.253234 367.851948 150.12386 
L 367.851948 155.008479 
Q 366.304928 153.889825 364.773774 153.338091 
Q 363.242621 152.781295 361.703534 152.781295 
Q 358.85543 152.781295 357.312376 154.816131 
Q 355.769323 156.845906 355.769323 160.627056 
Q 355.769323 164.372774 357.256842 166.417733 
Q 358.744362 168.457631 361.481398 168.457631 
Q 362.227141 168.457631 362.865783 168.34121 
Q 363.504424 168.219727 364.012164 167.966638 
L 364.012164 163.380665 
L 361.096626 163.380665 
L 361.096626 159.295808 
L 368.534224 159.295808 
L 368.534224 170.654444 
z
" clip-path="url(#p2d2302c991)" style="fill: #ffa600"/>
   </g>
   <g id="patch_63">
    <path d="M 381.726235 190.922681 
L 374.919292 190.922681 
L 373.844512 192.24 
L 369.465776 192.24 
L 375.719044 185.008696 
L 380.912007 185.008696 
L 387.165275 192.24 
L 382.790159 192.24 
L 381.726235 190.922681 
z
M 376.004929 189.580566 
L 380.629742 189.580566 
L 378.320954 186.704162 
L 376.004929 189.580566 
z
" clip-path="url(#p2d2302c991)" style="fill: #008000"/>
   </g>
   <g id="patch_64">
    <path d="M 387.165275 184.354428 
Q 385.380252 184.681562 383.46036 184.845876 
Q 381.540468 185.008696 379.493641 185.008696 
Q 374.868447 185.008696 372.167112 184.034762 
Q 369.465776 183.060829 369.465776 181.395284 
Q 369.465776 179.71032 372.214712 178.743856 
Q 374.967615 177.777391 379.755445 177.777391 
Q 381.599969 177.777391 383.289791 177.908842 
Q 384.98358 178.0388 386.483 178.295727 
L 386.483 179.737208 
Q 384.93598 179.407086 383.404826 179.244266 
Q 381.873673 179.079952 380.334586 179.079952 
Q 377.486482 179.079952 375.943428 179.680445 
Q 374.400374 180.279444 374.400374 181.395284 
Q 374.400374 182.500668 375.887894 183.104148 
Q 377.375414 183.706135 380.112449 183.706135 
Q 380.858193 183.706135 381.496834 183.671778 
Q 382.135476 183.635928 382.643216 183.56124 
L 382.643216 182.207891 
L 379.727678 182.207891 
L 379.727678 181.002425 
L 387.165275 181.002425 
L 387.165275 184.354428 
z
" clip-path="url(#p2d2302c991)" style="fill: #ffa600"/>
   </g>
   <g id="patch_65">
    <path d="M 369.465776 168.32107 
L 387.165275 168.32107 
L 387.165275 170.165316 
L 380.797572 170.165316 
L 380.797572 177.777391 
L 375.845828 177.777391 
L 375.845828 170.165316 
L 369.465776 170.165316 
L 369.465776 168.32107 
z
" clip-path="url(#p2d2302c991)" style="fill: #ff0000"/>
   </g>
   <g id="patch_66">
    <path d="M 387.165275 158.113846 
Q 385.684743 163.173335 384.083806 165.732495 
Q 382.482868 168.32107 380.739229 168.32107 
Q 375.539527 168.32107 372.502652 149.142079 
Q 369.465776 129.963087 369.465776 97.164659 
Q 369.465776 64.248567 372.502652 45.098991 
Q 375.539527 25.92 380.739229 25.92 
Q 382.482868 25.92 384.083806 28.508576 
Q 385.684743 31.067735 387.165275 36.127224 
L 387.165275 64.513308 
Q 385.671365 57.806544 384.222048 54.688487 
Q 382.772732 51.57043 381.171794 51.57043 
Q 378.299918 51.57043 376.654386 63.719086 
Q 375.013314 75.838326 375.013314 97.164659 
Q 375.013314 118.402744 376.654386 130.5514 
Q 378.299918 142.67064 381.171794 142.67064 
Q 382.772732 142.67064 384.222048 139.552583 
Q 385.671365 136.40511 387.165275 129.698347 
L 387.165275 158.113846 
z
" clip-path="url(#p2d2302c991)" style="fill: #0000ff"/>
   </g>
   <g id="patch_67">
    <path d="M 405.796327 191.755523 
Q 404.011304 191.997762 402.091412 192.119434 
Q 400.17152 192.24 398.124693 192.24 
Q 393.499499 192.24 390.798164 191.518815 
Q 388.096828 190.797631 388.096828 189.564317 
Q 388.096828 188.316623 390.845764 187.600969 
Q 393.598667 186.885315 398.386497 186.885315 
Q 400.231021 186.885315 401.920843 186.982653 
Q 403.614632 187.078885 405.114052 187.269136 
L 405.114052 188.336533 
Q 403.567031 188.092083 402.035878 187.971517 
Q 400.504724 187.849844 398.965637 187.849844 
Q 396.117533 187.849844 394.57448 188.294501 
Q 393.031426 188.738052 393.031426 189.564317 
Q 393.031426 190.382839 394.518946 190.829708 
Q 396.006465 191.275471 398.743501 191.275471 
Q 399.489244 191.275471 400.127886 191.25003 
Q 400.766528 191.223484 401.274268 191.168178 
L 401.274268 190.166041 
L 398.35873 190.166041 
L 398.35873 189.27341 
L 405.796327 189.27341 
L 405.796327 191.755523 
z
" clip-path="url(#p2d2302c991)" style="fill: #ffa600"/>
   </g>
   <g id="patch_68">
    <path d="M 400.357287 185.004077 
L 393.550344 185.004077 
L 392.475563 186.885315 
L 388.096828 186.885315 
L 394.350096 176.558424 
L 399.543059 176.558424 
L 405.796327 186.885315 
L 401.421211 186.885315 
L 400.357287 185.004077 
z
M 394.635981 183.087427 
L 399.260793 183.087427 
L 396.952006 178.979688 
L 394.635981 183.087427 
z
" clip-path="url(#p2d2302c991)" style="fill: #008000"/>
   </g>
   <g id="patch_69">
    <path d="M 405.796327 175.626288 
Q 404.315795 176.088326 402.714857 176.322032 
Q 401.11392 176.558424 399.370281 176.558424 
Q 394.170579 176.558424 391.133704 174.806975 
Q 388.096828 173.055527 388.096828 170.060336 
Q 388.096828 167.0544 391.133704 165.305638 
Q 394.170579 163.55419 399.370281 163.55419 
Q 401.11392 163.55419 402.714857 163.790581 
Q 404.315795 164.024287 405.796327 164.486325 
L 405.796327 167.078576 
Q 404.302416 166.466106 402.8531 166.181362 
Q 401.403783 165.896617 399.802846 165.896617 
Q 396.93097 165.896617 395.285438 167.006047 
Q 393.644366 168.11279 393.644366 170.060336 
Q 393.644366 171.999823 395.285438 173.109253 
Q 396.93097 174.215996 399.802846 174.215996 
Q 401.403783 174.215996 402.8531 173.931251 
Q 404.302416 173.64382 405.796327 173.031351 
L 405.796327 175.626288 
z
" clip-path="url(#p2d2302c991)" style="fill: #0000ff"/>
   </g>
   <g id="patch_70">
    <path d="M 388.096828 77.879236 
L 405.796327 77.879236 
L 405.796327 94.588239 
L 399.428624 94.588239 
L 399.428624 163.55419 
L 394.47688 163.55419 
L 394.47688 94.588239 
L 388.096828 94.588239 
L 388.096828 77.879236 
z
" clip-path="url(#p2d2302c991)" style="fill: #ff0000"/>
   </g>
   <g id="patch_71">
    <path d="M 424.427379 191.70438 
Q 422.642356 191.97219 420.722464 192.106706 
Q 418.802572 192.24 416.755745 192.24 
Q 412.130551 192.24 409.429215 191.442684 
Q 406.72788 190.645368 406.72788 189.28186 
Q 406.72788 187.902454 409.476816 187.111252 
Q 412.229719 186.32005 417.017548 186.32005 
Q 418.862073 186.32005 420.551895 186.427664 
Q 422.245684 186.534054 423.745103 186.744389 
L 423.745103 187.924466 
Q 422.198083 187.65421 420.66693 187.520916 
Q 419.135776 187.386399 417.596689 187.386399 
Q 414.748585 187.386399 413.205532 187.877996 
Q 411.662478 188.36837 411.662478 189.28186 
Q 411.662478 190.186789 413.149997 190.680831 
Q 414.637517 191.173651 417.374553 191.173651 
Q 418.120296 191.173651 418.758938 191.145525 
Q 419.39758 191.116176 419.90532 191.055032 
L 419.90532 189.947105 
L 416.989781 189.947105 
L 416.989781 188.960243 
L 424.427379 188.960243 
L 424.427379 191.70438 
z
" clip-path="url(#p2d2302c991)" style="fill: #ffa600"/>
   </g>
   <g id="patch_72">
    <path d="M 418.988338 184.65747 
L 412.181395 184.65747 
L 411.106615 186.32005 
L 406.72788 186.32005 
L 412.981148 177.193461 
L 418.174111 177.193461 
L 424.427379 186.32005 
L 420.052263 186.32005 
L 418.988338 184.65747 
z
M 413.267032 182.963594 
L 417.891845 182.963594 
L 415.583058 179.3333 
L 413.267032 182.963594 
z
" clip-path="url(#p2d2302c991)" style="fill: #008000"/>
   </g>
   <g id="patch_73">
    <path d="M 406.72788 166.34022 
L 424.427379 166.34022 
L 424.427379 168.456905 
L 418.059675 168.456905 
L 418.059675 177.193461 
L 413.107932 177.193461 
L 413.107932 168.456905 
L 406.72788 168.456905 
L 406.72788 166.34022 
z
" clip-path="url(#p2d2302c991)" style="fill: #ff0000"/>
   </g>
   <g id="patch_74">
    <path d="M 424.427379 162.910151 
Q 422.946846 164.610358 421.345909 165.470347 
Q 419.744972 166.34022 418.001333 166.34022 
Q 412.801631 166.34022 409.764755 159.895249 
Q 406.72788 153.450277 406.72788 142.428585 
Q 406.72788 131.367353 409.764755 124.932266 
Q 412.801631 118.487294 418.001333 118.487294 
Q 419.744972 118.487294 421.345909 119.357168 
Q 422.946846 120.217156 424.427379 121.917364 
L 424.427379 131.456317 
Q 422.933468 129.202554 421.484152 128.154752 
Q 420.034835 127.10695 418.433898 127.10695 
Q 415.562021 127.10695 413.91649 131.189424 
Q 412.275417 135.262013 412.275417 142.428585 
Q 412.275417 149.565501 413.91649 153.647976 
Q 415.562021 157.720565 418.433898 157.720565 
Q 420.034835 157.720565 421.484152 156.672763 
Q 422.933468 155.615076 424.427379 153.361313 
L 424.427379 162.910151 
z
" clip-path="url(#p2d2302c991)" style="fill: #0000ff"/>
   </g>
   <g id="patch_75">
    <path d="M 443.058431 192.141332 
Q 441.577898 192.190239 439.976961 192.214977 
Q 438.376024 192.24 436.632384 192.24 
Q 431.432683 192.24 428.395807 192.054606 
Q 425.358932 191.869212 425.358932 191.552165 
Q 425.358932 191.233981 428.395807 191.048871 
Q 431.432683 190.863477 436.632384 190.863477 
Q 438.376024 190.863477 439.976961 190.888499 
Q 441.577898 190.913238 443.058431 190.962145 
L 443.058431 191.23654 
Q 441.56452 191.171709 440.115203 191.141568 
Q 438.665887 191.111427 437.06495 191.111427 
Q 434.193073 191.111427 432.547541 191.228863 
Q 430.906469 191.346013 430.906469 191.552165 
Q 430.906469 191.757463 432.547541 191.874899 
Q 434.193073 191.99205 437.06495 191.99205 
Q 438.665887 191.99205 440.115203 191.961909 
Q 441.56452 191.931484 443.058431 191.866653 
L 443.058431 192.141332 
z
" clip-path="url(#p2d2302c991)" style="fill: #0000ff"/>
   </g>
   <g id="patch_76">
    <path d="M 443.058431 190.724281 
Q 441.273407 190.793879 439.353515 190.828837 
Q 437.433623 190.863477 435.386797 190.863477 
Q 430.761603 190.863477 428.060267 190.656272 
Q 425.358932 190.449066 425.358932 190.09472 
Q 425.358932 189.736242 428.107868 189.530626 
Q 430.86077 189.32501 435.6486 189.32501 
Q 437.493124 189.32501 439.182946 189.352976 
Q 440.876735 189.380625 442.376155 189.435286 
L 442.376155 189.741963 
Q 440.829135 189.671729 439.297981 189.637089 
Q 437.766828 189.602131 436.227741 189.602131 
Q 433.379637 189.602131 431.836583 189.729886 
Q 430.29353 189.857324 430.29353 190.09472 
Q 430.29353 190.329892 431.781049 190.458283 
Q 433.268569 190.586356 436.005605 190.586356 
Q 436.751348 190.586356 437.38999 190.579046 
Q 438.028631 190.571419 438.536371 190.555529 
L 438.536371 190.267603 
L 435.620833 190.267603 
L 435.620833 190.011139 
L 443.058431 190.011139 
L 443.058431 190.724281 
z
" clip-path="url(#p2d2302c991)" style="fill: #ffa600"/>
   </g>
   <g id="patch_77">
    <path d="M 437.61939 188.862825 
L 430.812447 188.862825 
L 429.737667 189.32501 
L 425.358932 189.32501 
L 431.6122 186.787889 
L 436.805163 186.787889 
L 443.058431 189.32501 
L 438.683314 189.32501 
L 437.61939 188.862825 
z
M 431.898084 188.391941 
L 436.522897 188.391941 
L 434.214109 187.382747 
L 431.898084 188.391941 
z
" clip-path="url(#p2d2302c991)" style="fill: #008000"/>
   </g>
   <g id="patch_78">
    <path d="M 425.358932 184.169796 
L 443.058431 184.169796 
L 443.058431 184.680397 
L 436.690727 184.680397 
L 436.690727 186.787889 
L 431.738984 186.787889 
L 431.738984 184.680397 
L 425.358932 184.680397 
L 425.358932 184.169796 
z
" clip-path="url(#p2d2302c991)" style="fill: #ff0000"/>
   </g>
   <g id="patch_79">
    <path d="M 456.250442 191.785513 
L 449.443499 191.785513 
L 448.368719 192.24 
L 443.989983 192.24 
L 450.243251 189.745133 
L 455.436214 189.745133 
L 461.689482 192.24 
L 457.314366 192.24 
L 456.250442 191.785513 
z
M 450.529136 191.322471 
L 455.153949 191.322471 
L 452.845161 190.330085 
L 450.529136 191.322471 
z
" clip-path="url(#p2d2302c991)" style="fill: #008000"/>
   </g>
   <g id="patch_80">
    <path d="M 443.989983 185.850707 
L 461.689482 185.850707 
L 461.689482 186.610229 
L 455.321779 186.610229 
L 455.321779 189.745133 
L 450.370035 189.745133 
L 450.370035 186.610229 
L 443.989983 186.610229 
L 443.989983 185.850707 
z
" clip-path="url(#p2d2302c991)" style="fill: #ff0000"/>
   </g>
   <g id="patch_81">
    <path d="M 461.689482 185.492845 
Q 459.904459 185.671776 457.984567 185.76165 
Q 456.064675 185.850707 454.017848 185.850707 
Q 449.392654 185.850707 446.691319 185.317999 
Q 443.989983 184.785291 443.989983 183.874295 
Q 443.989983 182.952677 446.738919 182.424054 
Q 449.491822 181.895431 454.279652 181.895431 
Q 456.124176 181.895431 457.813998 181.96733 
Q 459.507787 182.038412 461.007207 182.178943 
L 461.007207 182.967383 
Q 459.460187 182.786818 457.929033 182.697761 
Q 456.39788 182.607887 454.858793 182.607887 
Q 452.010689 182.607887 450.467635 182.936336 
Q 448.924581 183.263968 448.924581 183.874295 
Q 448.924581 184.478902 450.412101 184.808985 
Q 451.899621 185.138251 454.636656 185.138251 
Q 455.3824 185.138251 456.021041 185.119459 
Q 456.659683 185.09985 457.167423 185.058998 
L 457.167423 184.318763 
L 454.251885 184.318763 
L 454.251885 183.659414 
L 461.689482 183.659414 
L 461.689482 185.492845 
z
" clip-path="url(#p2d2302c991)" style="fill: #ffa600"/>
   </g>
   <g id="patch_82">
    <path d="M 461.689482 181.332769 
Q 460.20895 181.611667 458.608013 181.752738 
Q 457.007075 181.895431 455.263436 181.895431 
Q 450.063734 181.895431 447.026859 180.83821 
Q 443.989983 179.780989 443.989983 177.973012 
Q 443.989983 176.158548 447.026859 175.102949 
Q 450.063734 174.045728 455.263436 174.045728 
Q 457.007075 174.045728 458.608013 174.188421 
Q 460.20895 174.329491 461.689482 174.60839 
L 461.689482 176.173142 
Q 460.195572 175.803439 458.746255 175.631559 
Q 457.296939 175.45968 455.696001 175.45968 
Q 452.824125 175.45968 451.178593 176.129361 
Q 449.537521 176.797421 449.537521 177.973012 
Q 449.537521 179.143738 451.178593 179.813419 
Q 452.824125 180.481479 455.696001 180.481479 
Q 457.296939 180.481479 458.746255 180.309599 
Q 460.195572 180.136099 461.689482 179.766396 
L 461.689482 181.332769 
z
" clip-path="url(#p2d2302c991)" style="fill: #0000ff"/>
   </g>
   <g id="patch_83">
    <path d="M 480.320534 191.572795 
Q 478.535511 191.906398 476.615619 192.07396 
Q 474.695727 192.24 472.6489 192.24 
Q 468.023706 192.24 465.322371 191.246809 
Q 462.621035 190.253619 462.621035 188.555141 
Q 462.621035 186.83686 465.369971 185.851286 
Q 468.122874 184.865711 472.910704 184.865711 
Q 474.755228 184.865711 476.44505 184.999762 
Q 478.138839 185.132289 479.638259 185.394296 
L 479.638259 186.864279 
Q 478.091238 186.52763 476.560085 186.361591 
Q 475.028931 186.194028 473.489844 186.194028 
Q 470.64174 186.194028 469.098687 186.806394 
Q 467.555633 187.417237 467.555633 188.555141 
Q 467.555633 189.682382 469.043153 190.297794 
Q 470.530672 190.911684 473.267708 190.911684 
Q 474.013451 190.911684 474.652093 190.876648 
Q 475.290735 190.840089 475.798475 190.763924 
L 475.798475 189.383815 
L 472.882937 189.383815 
L 472.882937 188.154513 
L 480.320534 188.154513 
L 480.320534 191.572795 
z
" clip-path="url(#p2d2302c991)" style="fill: #ffa600"/>
   </g>
   <g id="patch_84">
    <path d="M 462.621035 176.964688 
L 480.320534 176.964688 
L 480.320534 178.505608 
L 473.952831 178.505608 
L 473.952831 184.865711 
L 469.001087 184.865711 
L 469.001087 178.505608 
L 462.621035 178.505608 
L 462.621035 176.964688 
z
" clip-path="url(#p2d2302c991)" style="fill: #ff0000"/>
   </g>
   <g id="patch_85">
    <path d="M 474.881494 174.949639 
L 468.074551 174.949639 
L 466.99977 176.964688 
L 462.621035 176.964688 
L 468.874303 165.903255 
L 474.067266 165.903255 
L 480.320534 176.964688 
L 475.945418 176.964688 
L 474.881494 174.949639 
z
M 469.160188 172.89666 
L 473.785 172.89666 
L 471.476213 168.496741 
L 469.160188 172.89666 
z
" clip-path="url(#p2d2302c991)" style="fill: #008000"/>
   </g>
   <g id="patch_86">
    <path d="M 480.320534 162.146528 
Q 478.840002 164.008652 477.239064 164.95054 
Q 475.638127 165.903255 473.894488 165.903255 
Q 468.694786 165.903255 465.657911 158.844507 
Q 462.621035 151.785758 462.621035 139.714433 
Q 462.621035 127.599802 465.657911 120.55188 
Q 468.694786 113.493132 473.894488 113.493132 
Q 475.638127 113.493132 477.239064 114.445846 
Q 478.840002 115.387735 480.320534 117.249858 
L 480.320534 127.697239 
Q 478.826623 125.228842 477.377307 124.081254 
Q 475.92799 122.933666 474.327053 122.933666 
Q 471.455177 122.933666 469.809645 127.404929 
Q 468.168573 131.865365 468.168573 139.714433 
Q 468.168573 147.531022 469.809645 152.002284 
Q 471.455177 156.46272 474.327053 156.46272 
Q 475.92799 156.46272 477.377307 155.315132 
Q 478.826623 154.156718 480.320534 151.688322 
L 480.320534 162.146528 
z
" clip-path="url(#p2d2302c991)" style="fill: #0000ff"/>
   </g>
   <g id="patch_87">
    <path d="M 498.951586 191.62895 
Q 497.166563 191.934475 495.246671 192.087935 
Q 493.326779 192.24 491.279952 192.24 
Q 486.654758 192.24 483.953422 191.330401 
Q 481.252087 190.420802 481.252087 188.865275 
Q 481.252087 187.291613 484.001023 186.388989 
Q 486.753926 185.486366 491.541755 185.486366 
Q 493.38628 185.486366 495.076102 185.609134 
Q 496.769891 185.730506 498.26931 185.970462 
L 498.26931 187.316725 
Q 496.72229 187.00841 495.191137 186.856345 
Q 493.659983 186.702885 492.120896 186.702885 
Q 489.272792 186.702885 487.729739 187.263711 
Q 486.186685 187.823143 486.186685 188.865275 
Q 486.186685 189.897643 487.674205 190.461259 
Q 489.161724 191.023481 491.89876 191.023481 
Q 492.644503 191.023481 493.283145 190.991394 
Q 493.921787 190.957912 494.429527 190.888157 
L 494.429527 189.624205 
L 491.513988 189.624205 
L 491.513988 188.498367 
L 498.951586 188.498367 
L 498.951586 191.62895 
z
" clip-path="url(#p2d2302c991)" style="fill: #ffa600"/>
   </g>
   <g id="patch_88">
    <path d="M 493.512545 183.828132 
L 486.705603 183.828132 
L 485.630822 185.486366 
L 481.252087 185.486366 
L 487.505355 176.383641 
L 492.698318 176.383641 
L 498.951586 185.486366 
L 494.57647 185.486366 
L 493.512545 183.828132 
z
M 487.791239 182.138685 
L 492.416052 182.138685 
L 490.107265 178.517885 
L 487.791239 182.138685 
z
" clip-path="url(#p2d2302c991)" style="fill: #008000"/>
   </g>
   <g id="patch_89">
    <path d="M 481.252087 164.931826 
L 498.951586 164.931826 
L 498.951586 167.165249 
L 492.583882 167.165249 
L 492.583882 176.383641 
L 487.632139 176.383641 
L 487.632139 167.165249 
L 481.252087 167.165249 
L 481.252087 164.931826 
z
" clip-path="url(#p2d2302c991)" style="fill: #ff0000"/>
   </g>
   <g id="patch_90">
    <path d="M 498.951586 160.596005 
Q 497.471053 162.745173 495.870116 163.832252 
Q 494.269179 164.931826 492.52554 164.931826 
Q 487.325838 164.931826 484.288962 156.784981 
Q 481.252087 148.638136 481.252087 134.706032 
Q 481.252087 120.723947 484.288962 112.589597 
Q 487.325838 104.442753 492.52554 104.442753 
Q 494.269179 104.442753 495.870116 105.542327 
Q 497.471053 106.629406 498.951586 108.778573 
L 498.951586 120.836404 
Q 497.457675 117.987507 496.008359 116.66302 
Q 494.559042 115.338533 492.958105 115.338533 
Q 490.086228 115.338533 488.440697 120.499034 
Q 486.799624 125.647041 486.799624 134.706032 
Q 486.799624 143.727538 488.440697 148.88804 
Q 490.086228 154.036046 492.958105 154.036046 
Q 494.559042 154.036046 496.008359 152.711559 
Q 497.457675 151.374577 498.951586 148.52568 
L 498.951586 160.596005 
z
" clip-path="url(#p2d2302c991)" style="fill: #0000ff"/>
   </g>
   <g id="patch_91">
    <path d="M 499.883139 189.466273 
L 517.582638 189.466273 
L 517.582638 190.007227 
L 511.214934 190.007227 
L 511.214934 192.24 
L 506.263191 192.24 
L 506.263191 190.007227 
L 499.883139 190.007227 
L 499.883139 189.466273 
z
" clip-path="url(#p2d2302c991)" style="fill: #ff0000"/>
   </g>
   <g id="patch_92">
    <path d="M 517.582638 189.119943 
Q 516.102105 189.291611 514.501168 189.378443 
Q 512.900231 189.466273 511.156591 189.466273 
Q 505.95689 189.466273 502.920014 188.815532 
Q 499.883139 188.164791 499.883139 187.051944 
Q 499.883139 185.935105 502.920014 185.285362 
Q 505.95689 184.634621 511.156591 184.634621 
Q 512.900231 184.634621 514.501168 184.722451 
Q 516.102105 184.809283 517.582638 184.980951 
L 517.582638 185.944087 
Q 516.088727 185.716528 514.63941 185.610732 
Q 513.190094 185.504937 511.589157 185.504937 
Q 508.71728 185.504937 507.071748 185.917139 
Q 505.430676 186.328344 505.430676 187.051944 
Q 505.430676 187.77255 507.071748 188.184753 
Q 508.71728 188.595957 511.589157 188.595957 
Q 513.190094 188.595957 514.63941 188.490162 
Q 516.088727 188.383368 517.582638 188.155809 
L 517.582638 189.119943 
z
" clip-path="url(#p2d2302c991)" style="fill: #0000ff"/>
   </g>
   <g id="patch_93">
    <path d="M 512.143597 183.346955 
L 505.336654 183.346955 
L 504.261874 184.634621 
L 499.883139 184.634621 
L 506.136407 177.566092 
L 511.32937 177.566092 
L 517.582638 184.634621 
L 513.207521 184.634621 
L 512.143597 183.346955 
z
M 506.422291 182.03505 
L 511.047104 182.03505 
L 508.738316 179.223394 
L 506.422291 182.03505 
z
" clip-path="url(#p2d2302c991)" style="fill: #008000"/>
   </g>
   <g id="patch_94">
    <path d="M 517.582638 176.473206 
Q 515.797614 177.019649 513.877722 177.294118 
Q 511.957831 177.566092 509.911004 177.566092 
Q 505.28581 177.566092 502.584474 175.939239 
Q 499.883139 174.312386 499.883139 171.530268 
Q 499.883139 168.715713 502.632075 167.101336 
Q 505.384978 165.48696 510.172807 165.48696 
Q 512.017331 165.48696 513.707153 165.706535 
Q 515.400942 165.923615 516.900362 166.352785 
L 516.900362 168.760626 
Q 515.353342 168.209193 513.822188 167.937219 
Q 512.291035 167.66275 510.751948 167.66275 
Q 507.903844 167.66275 506.36079 168.66581 
Q 504.817737 169.666374 504.817737 171.530268 
Q 504.817737 173.376696 506.305256 174.384746 
Q 507.792776 175.390301 510.529812 175.390301 
Q 511.275555 175.390301 511.914197 175.332912 
Q 512.552838 175.273028 513.060578 175.148269 
L 513.060578 172.887642 
L 510.14504 172.887642 
L 510.14504 170.874038 
L 517.582638 170.874038 
L 517.582638 176.473206 
z
" clip-path="url(#p2d2302c991)" style="fill: #ffa600"/>
   </g>
   <g id="patch_95">
    <path d="M 536.213689 191.753263 
Q 534.733157 191.994528 533.13222 192.116562 
Q 531.531282 192.24 529.787643 192.24 
Q 524.587941 192.24 521.551066 191.32544 
Q 518.51419 190.41088 518.51419 188.846871 
Q 518.51419 187.277251 521.551066 186.364093 
Q 524.587941 185.449534 529.787643 185.449534 
Q 531.531282 185.449534 533.13222 185.572971 
Q 534.733157 185.695006 536.213689 185.93627 
L 536.213689 187.289875 
Q 534.719779 186.970059 533.270462 186.821373 
Q 531.821146 186.672687 530.220208 186.672687 
Q 527.348332 186.672687 525.7028 187.252002 
Q 524.061728 187.829914 524.061728 188.846871 
Q 524.061728 189.85962 525.7028 190.438934 
Q 527.348332 191.016846 530.220208 191.016846 
Q 531.821146 191.016846 533.270462 190.86816 
Q 534.719779 190.718071 536.213689 190.398256 
L 536.213689 191.753263 
z
" clip-path="url(#p2d2302c991)" style="fill: #0000ff"/>
   </g>
   <g id="patch_96">
    <path d="M 536.213689 184.758354 
Q 534.428666 185.103944 532.508774 185.277528 
Q 530.588882 185.449534 528.542055 185.449534 
Q 523.916861 185.449534 521.215526 184.420654 
Q 518.51419 183.391774 518.51419 181.632263 
Q 518.51419 179.852238 521.263126 178.831248 
Q 524.016029 177.810259 528.803859 177.810259 
Q 530.648383 177.810259 532.338205 177.949126 
Q 534.031994 178.086415 535.531414 178.357837 
L 535.531414 179.880643 
Q 533.984394 179.531897 532.45324 179.359891 
Q 530.922087 179.186307 529.383 179.186307 
Q 526.534896 179.186307 524.991842 179.820677 
Q 523.448788 180.45347 523.448788 181.632263 
Q 523.448788 182.80001 524.936308 183.437537 
Q 526.423828 184.073486 529.160864 184.073486 
Q 529.906607 184.073486 530.545248 184.037191 
Q 531.18389 183.999318 531.69163 183.920416 
L 531.69163 182.490715 
L 528.776092 182.490715 
L 528.776092 181.21724 
L 536.213689 181.21724 
L 536.213689 184.758354 
z
" clip-path="url(#p2d2302c991)" style="fill: #ffa600"/>
   </g>
   <g id="patch_97">
    <path d="M 530.774649 176.070711 
L 523.967706 176.070711 
L 522.892926 177.810259 
L 518.51419 177.810259 
L 524.767458 168.261165 
L 529.960421 168.261165 
L 536.213689 177.810259 
L 531.838573 177.810259 
L 530.774649 176.070711 
z
M 525.053343 174.298419 
L 529.678156 174.298419 
L 527.369368 170.500066 
L 525.053343 174.298419 
z
" clip-path="url(#p2d2302c991)" style="fill: #008000"/>
   </g>
   <g id="patch_98">
    <path d="M 518.51419 128.791579 
L 536.213689 128.791579 
L 536.213689 136.489248 
L 529.845986 136.489248 
L 529.845986 168.261165 
L 524.894242 168.261165 
L 524.894242 136.489248 
L 518.51419 136.489248 
L 518.51419 128.791579 
z
" clip-path="url(#p2d2302c991)" style="fill: #ff0000"/>
   </g>
   <g id="patch_99">
    <path d="M 554.844741 191.841978 
Q 553.059718 192.040989 551.139826 192.140949 
Q 549.219934 192.24 547.173107 192.24 
Q 542.547913 192.24 539.846578 191.647511 
Q 537.145242 191.055021 537.145242 190.041791 
Q 537.145242 189.016748 539.894178 188.428802 
Q 542.647081 187.840856 547.434911 187.840856 
Q 549.279435 187.840856 550.969257 187.920824 
Q 552.663046 187.999884 554.162466 188.156184 
L 554.162466 189.033105 
Q 552.615445 188.832277 551.084292 188.733226 
Q 549.553138 188.633266 548.014052 188.633266 
Q 545.165947 188.633266 543.622894 188.998574 
Q 542.07984 189.362973 542.07984 190.041791 
Q 542.07984 190.714249 543.56736 191.081374 
Q 545.054879 191.447591 547.791915 191.447591 
Q 548.537658 191.447591 549.1763 191.42669 
Q 549.814942 191.404881 550.322682 191.359444 
L 550.322682 190.536138 
L 547.407144 190.536138 
L 547.407144 189.802796 
L 554.844741 189.802796 
L 554.844741 191.841978 
z
" clip-path="url(#p2d2302c991)" style="fill: #ffa600"/>
   </g>
   <g id="patch_100">
    <path d="M 549.405701 186.748056 
L 542.598758 186.748056 
L 541.523977 187.840856 
L 537.145242 187.840856 
L 543.39851 181.842024 
L 548.591473 181.842024 
L 554.844741 187.840856 
L 550.469625 187.840856 
L 549.405701 186.748056 
z
M 543.684395 185.634685 
L 548.309208 185.634685 
L 546.00042 183.248523 
L 543.684395 185.634685 
z
" clip-path="url(#p2d2302c991)" style="fill: #008000"/>
   </g>
   <g id="patch_101">
    <path d="M 537.145242 173.576967 
L 554.844741 173.576967 
L 554.844741 175.188883 
L 548.477038 175.188883 
L 548.477038 181.842024 
L 543.525294 181.842024 
L 543.525294 175.188883 
L 537.145242 175.188883 
L 537.145242 173.576967 
z
" clip-path="url(#p2d2302c991)" style="fill: #ff0000"/>
   </g>
   <g id="patch_102">
    <path d="M 554.844741 172.057659 
Q 553.364209 172.810745 551.763271 173.191667 
Q 550.162334 173.576967 548.418695 173.576967 
Q 543.218993 173.576967 540.182118 170.722245 
Q 537.145242 167.867523 537.145242 162.985597 
Q 537.145242 158.086159 540.182118 155.235815 
Q 543.218993 152.381093 548.418695 152.381093 
Q 550.162334 152.381093 551.763271 152.766393 
Q 553.364209 153.147314 554.844741 153.900401 
L 554.844741 158.125564 
Q 553.35083 157.127287 551.901514 156.663176 
Q 550.452197 156.199065 548.85126 156.199065 
Q 545.979384 156.199065 544.333852 158.007347 
Q 542.69278 159.811252 542.69278 162.985597 
Q 542.69278 166.146808 544.333852 167.955091 
Q 545.979384 169.758995 548.85126 169.758995 
Q 550.452197 169.758995 551.901514 169.294884 
Q 553.35083 168.826394 554.844741 167.828117 
L 554.844741 172.057659 
z
" clip-path="url(#p2d2302c991)" style="fill: #0000ff"/>
   </g>
   <g id="patch_103">
    <path d="M 573.475793 191.970845 
Q 571.69077 192.105422 569.770878 192.173018 
Q 567.850986 192.24 565.804159 192.24 
Q 561.178965 192.24 558.477629 191.839339 
Q 555.776294 191.438679 555.776294 190.7535 
Q 555.776294 190.060333 558.52523 189.662745 
Q 561.278133 189.265157 566.065962 189.265157 
Q 567.910487 189.265157 569.600309 189.319233 
Q 571.294098 189.372696 572.793517 189.478392 
L 572.793517 190.071394 
Q 571.246497 189.935587 569.715344 189.868605 
Q 568.18419 189.801009 566.645103 189.801009 
Q 563.796999 189.801009 562.253946 190.048042 
Q 560.710892 190.294461 560.710892 190.7535 
Q 560.710892 191.208238 562.198412 191.4565 
Q 563.685931 191.704147 566.422967 191.704147 
Q 567.16871 191.704147 567.807352 191.690013 
Q 568.445994 191.675265 568.953734 191.64454 
L 568.953734 191.087794 
L 566.038195 191.087794 
L 566.038195 190.591884 
L 573.475793 190.591884 
L 573.475793 191.970845 
z
" clip-path="url(#p2d2302c991)" style="fill: #ffa600"/>
   </g>
   <g id="patch_104">
    <path d="M 568.036752 188.426049 
L 561.22981 188.426049 
L 560.155029 189.265157 
L 555.776294 189.265157 
L 562.029562 184.658947 
L 567.222525 184.658947 
L 573.475793 189.265157 
L 569.100677 189.265157 
L 568.036752 188.426049 
z
M 562.315446 187.571146 
L 566.940259 187.571146 
L 564.631472 185.738929 
L 562.315446 187.571146 
z
" clip-path="url(#p2d2302c991)" style="fill: #008000"/>
   </g>
   <g id="patch_105">
    <path d="M 573.475793 184.074271 
Q 571.99526 184.364082 570.394323 184.510672 
Q 568.793386 184.658947 567.049747 184.658947 
Q 561.850045 184.658947 558.813169 183.560362 
Q 555.776294 182.461776 555.776294 180.58306 
Q 555.776294 178.697604 558.813169 177.600704 
Q 561.850045 176.502118 567.049747 176.502118 
Q 568.793386 176.502118 570.394323 176.650394 
Q 571.99526 176.796984 573.475793 177.086795 
L 573.475793 178.712769 
Q 571.981882 178.328601 570.532566 178.149997 
Q 569.083249 177.971392 567.482312 177.971392 
Q 564.610435 177.971392 562.964904 178.667275 
Q 561.323831 179.361474 561.323831 180.58306 
Q 561.323831 181.799592 562.964904 182.495475 
Q 564.610435 183.189673 567.482312 183.189673 
Q 569.083249 183.189673 570.532566 183.011069 
Q 571.981882 182.83078 573.475793 182.446612 
L 573.475793 184.074271 
z
" clip-path="url(#p2d2302c991)" style="fill: #0000ff"/>
   </g>
   <g id="patch_106">
    <path d="M 555.776294 163.547155 
L 573.475793 163.547155 
L 573.475793 166.073734 
L 567.108089 166.073734 
L 567.108089 176.502118 
L 562.156346 176.502118 
L 562.156346 166.073734 
L 555.776294 166.073734 
L 555.776294 163.547155 
z
" clip-path="url(#p2d2302c991)" style="fill: #ff0000"/>
   </g>
   <g id="patch_107">
    <path d="M 574.407346 190.109084 
L 592.106845 190.109084 
L 592.106845 190.524672 
L 585.739141 190.524672 
L 585.739141 192.24 
L 580.787398 192.24 
L 580.787398 190.524672 
L 574.407346 190.524672 
L 574.407346 190.109084 
z
" clip-path="url(#p2d2302c991)" style="fill: #ff0000"/>
   </g>
   <g id="patch_108">
    <path d="M 586.667804 189.229194 
L 579.860861 189.229194 
L 578.786081 190.109084 
L 574.407346 190.109084 
L 580.660614 185.279007 
L 585.853577 185.279007 
L 592.106845 190.109084 
L 587.731728 190.109084 
L 586.667804 189.229194 
z
M 580.946498 188.332742 
L 585.571311 188.332742 
L 583.262523 186.411477 
L 580.946498 188.332742 
z
" clip-path="url(#p2d2302c991)" style="fill: #008000"/>
   </g>
   <g id="patch_109">
    <path d="M 592.106845 184.784156 
Q 590.321821 185.031581 588.401929 185.155859 
Q 586.482038 185.279007 584.435211 185.279007 
Q 579.810017 185.279007 577.108681 184.542379 
Q 574.407346 183.805751 574.407346 182.546026 
Q 574.407346 181.271614 577.156282 180.540635 
Q 579.909185 179.809655 584.697014 179.809655 
Q 586.541538 179.809655 588.23136 179.909078 
Q 589.925149 180.00737 591.424569 180.201695 
L 591.424569 181.29195 
Q 589.877549 181.042265 588.346395 180.919117 
Q 586.815242 180.794839 585.276155 180.794839 
Q 582.428051 180.794839 580.884997 181.249018 
Q 579.341944 181.702067 579.341944 182.546026 
Q 579.341944 183.382076 580.829463 183.838515 
Q 582.316983 184.293823 585.054019 184.293823 
Q 585.799762 184.293823 586.438404 184.267838 
Q 587.077045 184.240723 587.584785 184.184233 
L 587.584785 183.160636 
L 584.669247 183.160636 
L 584.669247 182.248889 
L 592.106845 182.248889 
L 592.106845 184.784156 
z
" clip-path="url(#p2d2302c991)" style="fill: #ffa600"/>
   </g>
   <g id="patch_110">
    <path d="M 592.106845 179.178318 
Q 590.626312 179.491258 589.025375 179.649547 
Q 587.424438 179.809655 585.680798 179.809655 
Q 580.481097 179.809655 577.444221 178.623397 
Q 574.407346 177.437139 574.407346 175.408491 
Q 574.407346 173.372566 577.444221 172.188127 
Q 580.481097 171.001868 585.680798 171.001868 
Q 587.424438 171.001868 589.025375 171.161977 
Q 590.626312 171.320266 592.106845 171.633205 
L 592.106845 173.388941 
Q 590.612934 172.974114 589.163617 172.781256 
Q 587.714301 172.588398 586.113364 172.588398 
Q 583.241487 172.588398 581.595955 173.339816 
Q 579.954883 174.089415 579.954883 175.408491 
Q 579.954883 176.722108 581.595955 177.473527 
Q 583.241487 178.223126 586.113364 178.223126 
Q 587.714301 178.223126 589.163617 178.030268 
Q 590.612934 177.83559 592.106845 177.420764 
L 592.106845 179.178318 
z
" clip-path="url(#p2d2302c991)" style="fill: #0000ff"/>
   </g>
   <g id="patch_111">
    <path d="M 610.737896 191.738908 
Q 609.257364 191.987288 607.656427 192.112922 
Q 606.055489 192.24 604.31185 192.24 
Q 599.112148 192.24 596.075273 191.298466 
Q 593.038397 190.356932 593.038397 188.746793 
Q 593.038397 187.130878 596.075273 186.190789 
Q 599.112148 185.249255 604.31185 185.249255 
Q 606.055489 185.249255 607.656427 185.376333 
Q 609.257364 185.501967 610.737896 185.750347 
L 610.737896 187.143875 
Q 609.243986 186.814627 607.794669 186.661556 
Q 606.345353 186.508484 604.744415 186.508484 
Q 601.872539 186.508484 600.227007 187.104885 
Q 598.585935 187.699842 598.585935 188.746793 
Q 598.585935 189.789412 600.227007 190.385813 
Q 601.872539 190.980771 604.744415 190.980771 
Q 606.345353 190.980771 607.794669 190.827699 
Q 609.243986 190.673183 610.737896 190.343935 
L 610.737896 191.738908 
z
" clip-path="url(#p2d2302c991)" style="fill: #0000ff"/>
   </g>
   <g id="patch_112">
    <path d="M 610.737896 184.439651 
Q 608.952873 184.844453 607.032981 185.047778 
Q 605.113089 185.249255 603.066262 185.249255 
Q 598.441068 185.249255 595.739733 184.044091 
Q 593.038397 182.838928 593.038397 180.77795 
Q 593.038397 178.692943 595.787333 177.497022 
Q 598.540236 176.3011 603.328066 176.3011 
Q 605.17259 176.3011 606.862412 176.463761 
Q 608.556201 176.624572 610.055621 176.942499 
L 610.055621 178.726215 
Q 608.508601 178.317716 606.977447 178.116239 
Q 605.446294 177.912914 603.907207 177.912914 
Q 601.059103 177.912914 599.516049 178.655975 
Q 597.972995 179.397188 597.972995 180.77795 
Q 597.972995 182.145774 599.460515 182.892531 
Q 600.948035 183.637441 603.685071 183.637441 
Q 604.430814 183.637441 605.069455 183.594927 
Q 605.708097 183.550566 606.215837 183.458145 
L 606.215837 181.783485 
L 603.300299 181.783485 
L 603.300299 180.291818 
L 610.737896 180.291818 
L 610.737896 184.439651 
z
" clip-path="url(#p2d2302c991)" style="fill: #ffa600"/>
   </g>
   <g id="patch_113">
    <path d="M 593.038397 165.395538 
L 610.737896 165.395538 
L 610.737896 167.522426 
L 604.370193 167.522426 
L 604.370193 176.3011 
L 599.418449 176.3011 
L 599.418449 167.522426 
L 593.038397 167.522426 
L 593.038397 165.395538 
z
" clip-path="url(#p2d2302c991)" style="fill: #ff0000"/>
   </g>
   <g id="patch_114">
    <path d="M 605.298856 155.054748 
L 598.491913 155.054748 
L 597.417133 165.395538 
L 593.038397 165.395538 
L 599.291665 108.630685 
L 604.484628 108.630685 
L 610.737896 165.395538 
L 606.36278 165.395538 
L 605.298856 155.054748 
z
M 599.57755 144.519308 
L 604.202363 144.519308 
L 601.893575 121.939889 
L 599.57755 144.519308 
z
" clip-path="url(#p2d2302c991)" style="fill: #008000"/>
   </g>
   <g id="patch_115">
    <path d="M 629.368948 191.897581 
Q 627.888416 192.06731 626.287478 192.153162 
Q 624.686541 192.24 622.942902 192.24 
Q 617.7432 192.24 614.706325 191.596608 
Q 611.669449 190.953216 611.669449 189.852937 
Q 611.669449 188.748711 614.706325 188.106306 
Q 617.7432 187.462915 622.942902 187.462915 
Q 624.686541 187.462915 626.287478 187.549753 
Q 627.888416 187.635604 629.368948 187.805333 
L 629.368948 188.757593 
Q 627.875037 188.532603 626.425721 188.428002 
Q 624.976404 188.323402 623.375467 188.323402 
Q 620.503591 188.323402 618.858059 188.730949 
Q 617.216987 189.137509 617.216987 189.852937 
Q 617.216987 190.565405 618.858059 190.972952 
Q 620.503591 191.379513 623.375467 191.379513 
Q 624.976404 191.379513 626.425721 191.274912 
Q 627.875037 191.169325 629.368948 190.944335 
L 629.368948 191.897581 
z
" clip-path="url(#p2d2302c991)" style="fill: #0000ff"/>
   </g>
   <g id="patch_116">
    <path d="M 629.368948 186.867156 
Q 627.583925 187.165035 625.664033 187.314655 
Q 623.744141 187.462915 621.697314 187.462915 
Q 617.07212 187.462915 614.370785 186.576077 
Q 611.669449 185.68924 611.669449 184.172639 
Q 611.669449 182.638356 614.418385 181.75832 
Q 617.171288 180.878283 621.959118 180.878283 
Q 623.803642 180.878283 625.493464 180.997979 
Q 627.187253 181.116315 628.686673 181.350266 
L 628.686673 182.662839 
Q 627.139652 182.36224 625.608499 182.21398 
Q 624.077345 182.06436 622.538259 182.06436 
Q 619.690154 182.06436 618.147101 182.611153 
Q 616.604047 183.156585 616.604047 184.172639 
Q 616.604047 185.179172 618.091567 185.728685 
Q 619.579086 186.276838 622.316122 186.276838 
Q 623.061865 186.276838 623.700507 186.245553 
Q 624.339149 186.212909 624.846889 186.1449 
L 624.846889 184.912577 
L 621.931351 184.912577 
L 621.931351 183.814912 
L 629.368948 183.814912 
L 629.368948 186.867156 
z
" clip-path="url(#p2d2302c991)" style="fill: #ffa600"/>
   </g>
   <g id="patch_117">
    <path d="M 611.669449 174.293652 
L 629.368948 174.293652 
L 629.368948 175.577838 
L 623.001245 175.577838 
L 623.001245 180.878283 
L 618.049501 180.878283 
L 618.049501 175.577838 
L 611.669449 175.577838 
L 611.669449 174.293652 
z
" clip-path="url(#p2d2302c991)" style="fill: #ff0000"/>
   </g>
   <g id="patch_118">
    <path d="M 623.929908 170.530468 
L 617.122965 170.530468 
L 616.048184 174.293652 
L 611.669449 174.293652 
L 617.922717 153.635985 
L 623.11568 153.635985 
L 629.368948 174.293652 
L 624.993832 174.293652 
L 623.929908 170.530468 
z
M 618.208602 166.696447 
L 622.833415 166.696447 
L 620.524627 158.479424 
L 618.208602 166.696447 
z
" clip-path="url(#p2d2302c991)" style="fill: #008000"/>
   </g>
   <g id="patch_119">
    <path d="M 630.300501 187.551608 
L 648 187.551608 
L 648 188.465975 
L 641.632296 188.465975 
L 641.632296 192.24 
L 636.680553 192.24 
L 636.680553 188.465975 
L 630.300501 188.465975 
L 630.300501 187.551608 
z
" clip-path="url(#p2d2302c991)" style="fill: #ff0000"/>
   </g>
   <g id="patch_120">
    <path d="M 642.560959 186.256713 
L 635.754017 186.256713 
L 634.679236 187.551608 
L 630.300501 187.551608 
L 636.553769 180.4434 
L 641.746732 180.4434 
L 648 187.551608 
L 643.624884 187.551608 
L 642.560959 186.256713 
z
M 636.839653 184.937444 
L 641.464466 184.937444 
L 639.155679 182.110005 
L 636.839653 184.937444 
z
" clip-path="url(#p2d2302c991)" style="fill: #008000"/>
   </g>
   <g id="patch_121">
    <path d="M 648 179.847162 
Q 646.519467 180.142703 644.91853 180.292192 
Q 643.317593 180.4434 641.573954 180.4434 
Q 636.374252 180.4434 633.337376 179.323091 
Q 630.300501 178.202783 630.300501 176.286919 
Q 630.300501 174.364182 633.337376 173.245592 
Q 636.374252 172.125284 641.573954 172.125284 
Q 643.317593 172.125284 644.91853 172.276491 
Q 646.519467 172.42598 648 172.721521 
L 648 174.379646 
Q 646.506089 173.987882 645.056773 173.805746 
Q 643.607456 173.62361 642.006519 173.62361 
Q 639.134642 173.62361 637.489111 174.333253 
Q 635.848038 175.041178 635.848038 176.286919 
Q 635.848038 177.527506 637.489111 178.237149 
Q 639.134642 178.945073 642.006519 178.945073 
Q 643.607456 178.945073 645.056773 178.762937 
Q 646.506089 178.579083 648 178.187319 
L 648 179.847162 
z
" clip-path="url(#p2d2302c991)" style="fill: #0000ff"/>
   </g>
   <g id="patch_122">
    <path d="M 648 169.853801 
Q 646.214977 170.989543 644.295085 171.560006 
Q 642.375193 172.125284 640.328366 172.125284 
Q 635.703172 172.125284 633.001836 168.74399 
Q 630.300501 165.362697 630.300501 159.58027 
Q 630.300501 153.730425 633.049437 150.375061 
Q 635.80234 147.019698 640.590169 147.019698 
Q 642.434694 147.019698 644.124516 147.476069 
Q 645.818305 147.927254 647.317724 148.819252 
L 647.317724 153.823773 
Q 645.770704 152.67766 644.239551 152.112383 
Q 642.708397 151.541919 641.16931 151.541919 
Q 638.321206 151.541919 636.778153 153.626704 
Q 635.235099 155.706303 635.235099 159.58027 
Q 635.235099 163.417934 636.722619 165.513092 
Q 638.210138 167.603063 640.947174 167.603063 
Q 641.692917 167.603063 642.331559 167.483784 
Q 642.970201 167.359319 643.477941 167.100018 
L 643.477941 162.401472 
L 640.562402 162.401472 
L 640.562402 158.216343 
L 648 158.216343 
L 648 169.853801 
z
" clip-path="url(#p2d2302c991)" style="fill: #ffa600"/>
   </g>
   <g id="matplotlib.axis_1">
    <g id="xtick_1">
     <g id="line2d_2">
      <defs>
       <path id="me345cb8dbe" d="M 0 0 
L 0 3.5 
" style="stroke: #000000; stroke-width: 0.8"/>
      </defs>
      <g>
       <use xlink:href="#me345cb8dbe" x="98.84975" y="192.24" style="stroke: #000000; stroke-width: 0.8"/>
      </g>
     </g>
     <g id="text_1">
      <!-- 0 -->
      <g transform="translate(95.6685 206.838437) scale(0.1 -0.1)">
       <defs>
        <path id="DejaVuSans-30" d="M 2034 4250 
Q 1547 4250 1301 3770 
Q 1056 3291 1056 2328 
Q 1056 1369 1301 889 
Q 1547 409 2034 409 
Q 2525 409 2770 889 
Q 3016 1369 3016 2328 
Q 3016 3291 2770 3770 
Q 2525 4250 2034 4250 
z
M 2034 4750 
Q 2819 4750 3233 4129 
Q 3647 3509 3647 2328 
Q 3647 1150 3233 529 
Q 2819 -91 2034 -91 
Q 1250 -91 836 529 
Q 422 1150 422 2328 
Q 422 3509 836 4129 
Q 1250 4750 2034 4750 
z
" transform="scale(0.015625)"/>
       </defs>
       <use xlink:href="#DejaVuSans-30"/>
      </g>
     </g>
    </g>
    <g id="xtick_2">
     <g id="line2d_3">
      <g>
       <use xlink:href="#me345cb8dbe" x="192.005008" y="192.24" style="stroke: #000000; stroke-width: 0.8"/>
      </g>
     </g>
     <g id="text_2">
      <!-- 5 -->
      <g transform="translate(188.823758 206.838437) scale(0.1 -0.1)">
       <defs>
        <path id="DejaVuSans-35" d="M 691 4666 
L 3169 4666 
L 3169 4134 
L 1269 4134 
L 1269 2991 
Q 1406 3038 1543 3061 
Q 1681 3084 1819 3084 
Q 2600 3084 3056 2656 
Q 3513 2228 3513 1497 
Q 3513 744 3044 326 
Q 2575 -91 1722 -91 
Q 1428 -91 1123 -41 
Q 819 9 494 109 
L 494 744 
Q 775 591 1075 516 
Q 1375 441 1709 441 
Q 2250 441 2565 725 
Q 2881 1009 2881 1497 
Q 2881 1984 2565 2268 
Q 2250 2553 1709 2553 
Q 1456 2553 1204 2497 
Q 953 2441 691 2322 
L 691 4666 
z
" transform="scale(0.015625)"/>
       </defs>
       <use xlink:href="#DejaVuSans-35"/>
      </g>
     </g>
    </g>
    <g id="xtick_3">
     <g id="line2d_4">
      <g>
       <use xlink:href="#me345cb8dbe" x="285.160267" y="192.24" style="stroke: #000000; stroke-width: 0.8"/>
      </g>
     </g>
     <g id="text_3">
      <!-- 10 -->
      <g transform="translate(278.797767 206.838437) scale(0.1 -0.1)">
       <defs>
        <path id="DejaVuSans-31" d="M 794 531 
L 1825 531 
L 1825 4091 
L 703 3866 
L 703 4441 
L 1819 4666 
L 2450 4666 
L 2450 531 
L 3481 531 
L 3481 0 
L 794 0 
L 794 531 
z
" transform="scale(0.015625)"/>
       </defs>
       <use xlink:href="#DejaVuSans-31"/>
       <use xlink:href="#DejaVuSans-30" x="63.623047"/>
      </g>
     </g>
    </g>
    <g id="xtick_4">
     <g id="line2d_5">
      <g>
       <use xlink:href="#me345cb8dbe" x="378.315526" y="192.24" style="stroke: #000000; stroke-width: 0.8"/>
      </g>
     </g>
     <g id="text_4">
      <!-- 15 -->
      <g transform="translate(371.953026 206.838437) scale(0.1 -0.1)">
       <use xlink:href="#DejaVuSans-31"/>
       <use xlink:href="#DejaVuSans-35" x="63.623047"/>
      </g>
     </g>
    </g>
    <g id="xtick_5">
     <g id="line2d_6">
      <g>
       <use xlink:href="#me345cb8dbe" x="471.470785" y="192.24" style="stroke: #000000; stroke-width: 0.8"/>
      </g>
     </g>
     <g id="text_5">
      <!-- 20 -->
      <g transform="translate(465.108285 206.838437) scale(0.1 -0.1)">
       <defs>
        <path id="DejaVuSans-32" d="M 1228 531 
L 3431 531 
L 3431 0 
L 469 0 
L 469 531 
Q 828 903 1448 1529 
Q 2069 2156 2228 2338 
Q 2531 2678 2651 2914 
Q 2772 3150 2772 3378 
Q 2772 3750 2511 3984 
Q 2250 4219 1831 4219 
Q 1534 4219 1204 4116 
Q 875 4013 500 3803 
L 500 4441 
Q 881 4594 1212 4672 
Q 1544 4750 1819 4750 
Q 2544 4750 2975 4387 
Q 3406 4025 3406 3419 
Q 3406 3131 3298 2873 
Q 3191 2616 2906 2266 
Q 2828 2175 2409 1742 
Q 1991 1309 1228 531 
z
" transform="scale(0.015625)"/>
       </defs>
       <use xlink:href="#DejaVuSans-32"/>
       <use xlink:href="#DejaVuSans-30" x="63.623047"/>
      </g>
     </g>
    </g>
    <g id="xtick_6">
     <g id="line2d_7">
      <g>
       <use xlink:href="#me345cb8dbe" x="564.626043" y="192.24" style="stroke: #000000; stroke-width: 0.8"/>
      </g>
     </g>
     <g id="text_6">
      <!-- 25 -->
      <g transform="translate(558.263543 206.838437) scale(0.1 -0.1)">
       <use xlink:href="#DejaVuSans-32"/>
       <use xlink:href="#DejaVuSans-35" x="63.623047"/>
      </g>
     </g>
    </g>
   </g>
   <g id="matplotlib.axis_2">
    <g id="ytick_1">
     <g id="line2d_8">
      <defs>
       <path id="m0706419614" d="M 0 0 
L -3.5 0 
" style="stroke: #000000; stroke-width: 0.8"/>
      </defs>
      <g>
       <use xlink:href="#m0706419614" x="90" y="192.24" style="stroke: #000000; stroke-width: 0.8"/>
      </g>
     </g>
     <g id="text_7">
      <!-- 0.0 -->
      <g transform="translate(67.096875 196.039219) scale(0.1 -0.1)">
       <defs>
        <path id="DejaVuSans-2e" d="M 684 794 
L 1344 794 
L 1344 0 
L 684 0 
L 684 794 
z
" transform="scale(0.015625)"/>
       </defs>
       <use xlink:href="#DejaVuSans-30"/>
       <use xlink:href="#DejaVuSans-2e" x="63.623047"/>
       <use xlink:href="#DejaVuSans-30" x="95.410156"/>
      </g>
     </g>
    </g>
    <g id="ytick_2">
     <g id="line2d_9">
      <g>
       <use xlink:href="#m0706419614" x="90" y="164.042321" style="stroke: #000000; stroke-width: 0.8"/>
      </g>
     </g>
     <g id="text_8">
      <!-- 0.2 -->
      <g transform="translate(67.096875 167.84154) scale(0.1 -0.1)">
       <use xlink:href="#DejaVuSans-30"/>
       <use xlink:href="#DejaVuSans-2e" x="63.623047"/>
       <use xlink:href="#DejaVuSans-32" x="95.410156"/>
      </g>
     </g>
    </g>
    <g id="ytick_3">
     <g id="line2d_10">
      <g>
       <use xlink:href="#m0706419614" x="90" y="135.844643" style="stroke: #000000; stroke-width: 0.8"/>
      </g>
     </g>
     <g id="text_9">
      <!-- 0.4 -->
      <g transform="translate(67.096875 139.643861) scale(0.1 -0.1)">
       <defs>
        <path id="DejaVuSans-34" d="M 2419 4116 
L 825 1625 
L 2419 1625 
L 2419 4116 
z
M 2253 4666 
L 3047 4666 
L 3047 1625 
L 3713 1625 
L 3713 1100 
L 3047 1100 
L 3047 0 
L 2419 0 
L 2419 1100 
L 313 1100 
L 313 1709 
L 2253 4666 
z
" transform="scale(0.015625)"/>
       </defs>
       <use xlink:href="#DejaVuSans-30"/>
       <use xlink:href="#DejaVuSans-2e" x="63.623047"/>
       <use xlink:href="#DejaVuSans-34" x="95.410156"/>
      </g>
     </g>
    </g>
    <g id="ytick_4">
     <g id="line2d_11">
      <g>
       <use xlink:href="#m0706419614" x="90" y="107.646964" style="stroke: #000000; stroke-width: 0.8"/>
      </g>
     </g>
     <g id="text_10">
      <!-- 0.6 -->
      <g transform="translate(67.096875 111.446183) scale(0.1 -0.1)">
       <defs>
        <path id="DejaVuSans-36" d="M 2113 2584 
Q 1688 2584 1439 2293 
Q 1191 2003 1191 1497 
Q 1191 994 1439 701 
Q 1688 409 2113 409 
Q 2538 409 2786 701 
Q 3034 994 3034 1497 
Q 3034 2003 2786 2293 
Q 2538 2584 2113 2584 
z
M 3366 4563 
L 3366 3988 
Q 3128 4100 2886 4159 
Q 2644 4219 2406 4219 
Q 1781 4219 1451 3797 
Q 1122 3375 1075 2522 
Q 1259 2794 1537 2939 
Q 1816 3084 2150 3084 
Q 2853 3084 3261 2657 
Q 3669 2231 3669 1497 
Q 3669 778 3244 343 
Q 2819 -91 2113 -91 
Q 1303 -91 875 529 
Q 447 1150 447 2328 
Q 447 3434 972 4092 
Q 1497 4750 2381 4750 
Q 2619 4750 2861 4703 
Q 3103 4656 3366 4563 
z
" transform="scale(0.015625)"/>
       </defs>
       <use xlink:href="#DejaVuSans-30"/>
       <use xlink:href="#DejaVuSans-2e" x="63.623047"/>
       <use xlink:href="#DejaVuSans-36" x="95.410156"/>
      </g>
     </g>
    </g>
    <g id="ytick_5">
     <g id="line2d_12">
      <g>
       <use xlink:href="#m0706419614" x="90" y="79.449285" style="stroke: #000000; stroke-width: 0.8"/>
      </g>
     </g>
     <g id="text_11">
      <!-- 0.8 -->
      <g transform="translate(67.096875 83.248504) scale(0.1 -0.1)">
       <defs>
        <path id="DejaVuSans-38" d="M 2034 2216 
Q 1584 2216 1326 1975 
Q 1069 1734 1069 1313 
Q 1069 891 1326 650 
Q 1584 409 2034 409 
Q 2484 409 2743 651 
Q 3003 894 3003 1313 
Q 3003 1734 2745 1975 
Q 2488 2216 2034 2216 
z
M 1403 2484 
Q 997 2584 770 2862 
Q 544 3141 544 3541 
Q 544 4100 942 4425 
Q 1341 4750 2034 4750 
Q 2731 4750 3128 4425 
Q 3525 4100 3525 3541 
Q 3525 3141 3298 2862 
Q 3072 2584 2669 2484 
Q 3125 2378 3379 2068 
Q 3634 1759 3634 1313 
Q 3634 634 3220 271 
Q 2806 -91 2034 -91 
Q 1263 -91 848 271 
Q 434 634 434 1313 
Q 434 1759 690 2068 
Q 947 2378 1403 2484 
z
M 1172 3481 
Q 1172 3119 1398 2916 
Q 1625 2713 2034 2713 
Q 2441 2713 2670 2916 
Q 2900 3119 2900 3481 
Q 2900 3844 2670 4047 
Q 2441 4250 2034 4250 
Q 1625 4250 1398 4047 
Q 1172 3844 1172 3481 
z
" transform="scale(0.015625)"/>
       </defs>
       <use xlink:href="#DejaVuSans-30"/>
       <use xlink:href="#DejaVuSans-2e" x="63.623047"/>
       <use xlink:href="#DejaVuSans-38" x="95.410156"/>
      </g>
     </g>
    </g>
    <g id="ytick_6">
     <g id="line2d_13">
      <g>
       <use xlink:href="#m0706419614" x="90" y="51.251606" style="stroke: #000000; stroke-width: 0.8"/>
      </g>
     </g>
     <g id="text_12">
      <!-- 1.0 -->
      <g transform="translate(67.096875 55.050825) scale(0.1 -0.1)">
       <use xlink:href="#DejaVuSans-31"/>
       <use xlink:href="#DejaVuSans-2e" x="63.623047"/>
       <use xlink:href="#DejaVuSans-30" x="95.410156"/>
      </g>
     </g>
    </g>
   </g>
  </g>
 </g>
 <defs>
  <clipPath id="p2d2302c991">
   <rect x="90" y="25.92" width="558" height="166.32"/>
  </clipPath>
 </defs>
</svg>
