<?xml version="1.0" encoding="utf-8" standalone="no"?>
<!DOCTYPE svg PUBLIC "-//W3C//DTD SVG 1.1//EN"
  "http://www.w3.org/Graphics/SVG/1.1/DTD/svg11.dtd">
<svg xmlns:xlink="http://www.w3.org/1999/xlink" width="720pt" height="216pt" viewBox="0 0 720 216" xmlns="http://www.w3.org/2000/svg" version="1.1">
 <metadata>
  <rdf:RDF xmlns:dc="http://purl.org/dc/elements/1.1/" xmlns:cc="http://creativecommons.org/ns#" xmlns:rdf="http://www.w3.org/1999/02/22-rdf-syntax-ns#">
   <cc:Work>
    <dc:type rdf:resource="http://purl.org/dc/dcmitype/StillImage"/>
    <dc:date>2025-12-17T10:22:59.410729</dc:date>
    <dc:format>image/svg+xml</dc:format>
    <dc:creator>
     <cc:Agent>
      <dc:title>Matplotlib v3.8.2, https://matplotlib.org/</dc:title>
     </cc:Agent>
    </dc:creator>
   </cc:Work>
  </rdf:RDF>
 </metadata>
 <defs>
  <style type="text/css">*{stroke-linejoin: round; stroke-linecap: butt}</style>
 </defs>
 <g id="figure_1">
  <g id="patch_1">
   <path d="M 0 216 
L 720 216 
L 720 0 
L 0 0 
z
" style="fill: #ffffff"/>
  </g>
  <g id="axes_1">
   <g id="patch_2">
    <path d="M 90 192.24 
L 648 192.24 
L 648 25.92 
L 90 25.92 
z
" style="fill: #ffffff"/>
   </g>
   <g id="line2d_1">
    <path d="M 90 192.24 
L 648 192.24 
" clip-path="url(#p2bee6f561c)" style="fill: none; stroke: #000000; stroke-width: 0.5; stroke-linecap: square"/>
   </g>
   <g id="patch_3">
    <path d="M 90 190.669781 
L 116.571429 190.669781 
L 116.571429 190.976017 
L 107.011894 190.976017 
L 107.011894 192.24 
L 99.578073 192.24 
L 99.578073 190.976017 
L 90 190.976017 
L 90 190.669781 
z
" clip-path="url(#p2bee6f561c)" style="fill: #ff0000"/>
   </g>
   <g id="patch_4">
    <path d="M 116.571429 190.242082 
Q 114.348774 190.454083 111.945362 190.561316 
Q 109.54195 190.669781 106.924306 190.669781 
Q 99.118238 190.669781 94.559119 189.866151 
Q 90 189.06252 90 187.688214 
Q 90 186.308977 94.559119 185.506579 
Q 99.118238 184.702949 106.924306 184.702949 
Q 109.54195 184.702949 111.945362 184.811414 
Q 114.348774 184.918647 116.571429 185.130648 
L 116.571429 186.32007 
Q 114.32869 186.039046 112.152899 185.908394 
Q 109.977108 185.777743 107.573696 185.777743 
Q 103.262283 185.777743 100.791923 186.286791 
Q 98.328258 186.794606 98.328258 187.688214 
Q 98.328258 188.578123 100.791923 189.087171 
Q 103.262283 189.594987 107.573696 189.594987 
Q 109.977108 189.594987 112.152899 189.464335 
Q 114.32869 189.332451 116.571429 189.051427 
L 116.571429 190.242082 
z
" clip-path="url(#p2bee6f561c)" style="fill: #0000ff"/>
   </g>
   <g id="patch_5">
    <path d="M 108.406052 182.872261 
L 98.187108 182.872261 
L 96.57359 184.702949 
L 90 184.702949 
L 99.387738 174.653547 
L 107.18369 174.653547 
L 116.571429 184.702949 
L 110.003271 184.702949 
L 108.406052 182.872261 
z
M 99.816923 181.007112 
L 106.759938 181.007112 
L 103.293863 177.009751 
L 99.816923 181.007112 
z
" clip-path="url(#p2bee6f561c)" style="fill: #008000"/>
   </g>
   <g id="patch_6">
    <path d="M 116.571429 173.147616 
Q 113.891657 173.900582 111.009413 174.278783 
Q 108.127169 174.653547 105.054364 174.653547 
Q 98.110777 174.653547 94.055388 172.411841 
Q 90 170.170136 90 166.336544 
Q 90 162.458255 94.126849 160.23374 
Q 98.259653 158.009226 105.447397 158.009226 
Q 108.216495 158.009226 110.753346 158.311787 
Q 113.296152 158.610911 115.54716 159.202281 
L 115.54716 162.520143 
Q 113.224691 161.760301 110.926042 161.385537 
Q 108.627393 161.007335 106.316834 161.007335 
Q 102.041109 161.007335 99.724595 162.389491 
Q 97.408081 163.768209 97.408081 166.336544 
Q 97.408081 168.880811 99.641224 170.269843 
Q 101.874368 171.655438 105.983351 171.655438 
Q 107.102901 171.655438 108.061664 171.576359 
Q 109.020426 171.493842 109.782673 171.321932 
L 109.782673 168.206924 
L 105.405712 168.206924 
L 105.405712 165.432297 
L 116.571429 165.432297 
L 116.571429 173.147616 
z
" clip-path="url(#p2bee6f561c)" style="fill: #ffa600"/>
   </g>
   <g id="patch_7">
    <path d="M 144.541353 192.081765 
Q 142.318699 192.160199 139.915287 192.199871 
Q 137.511875 192.24 134.894231 192.24 
Q 127.088163 192.24 122.529044 191.942683 
Q 117.969925 191.645366 117.969925 191.136918 
Q 117.969925 190.626646 122.529044 190.329785 
Q 127.088163 190.032468 134.894231 190.032468 
Q 137.511875 190.032468 139.915287 190.072597 
Q 142.318699 190.11227 144.541353 190.190703 
L 144.541353 190.63075 
Q 142.298615 190.52678 140.122824 190.478444 
Q 137.947033 190.430107 135.543621 190.430107 
Q 131.232208 190.430107 128.761848 190.618438 
Q 126.298183 190.806313 126.298183 191.136918 
Q 126.298183 191.466156 128.761848 191.654487 
Q 131.232208 191.842362 135.543621 191.842362 
Q 137.947033 191.842362 140.122824 191.794025 
Q 142.298615 191.745232 144.541353 191.641262 
L 144.541353 192.081765 
z
" clip-path="url(#p2bee6f561c)" style="fill: #0000ff"/>
   </g>
   <g id="patch_8">
    <path d="M 144.541353 189.682939 
Q 141.861581 189.857704 138.979338 189.945485 
Q 136.097094 190.032468 133.024289 190.032468 
Q 126.080702 190.032468 122.025313 189.512164 
Q 117.969925 188.99186 117.969925 188.102075 
Q 117.969925 187.201917 122.096774 186.685603 
Q 126.229578 186.169288 133.417322 186.169288 
Q 136.18642 186.169288 138.723271 186.239513 
Q 141.266076 186.308941 143.517085 186.446199 
L 143.517085 187.216281 
Q 141.194616 187.03992 138.895967 186.952937 
Q 136.597318 186.865155 134.286759 186.865155 
Q 130.011034 186.865155 127.69452 187.185957 
Q 125.378006 187.50596 125.378006 188.102075 
Q 125.378006 188.692605 127.611149 189.015002 
Q 129.844292 189.336601 133.953276 189.336601 
Q 135.072825 189.336601 136.031588 189.318247 
Q 136.990351 189.299095 137.752598 189.259194 
L 137.752598 188.536194 
L 133.375637 188.536194 
L 133.375637 187.892198 
L 144.541353 187.892198 
L 144.541353 189.682939 
z
" clip-path="url(#p2bee6f561c)" style="fill: #ffa600"/>
   </g>
   <g id="patch_9">
    <path d="M 136.375977 184.208838 
L 126.157032 184.208838 
L 124.543515 186.169288 
L 117.969925 186.169288 
L 127.357663 175.407572 
L 135.153615 175.407572 
L 144.541353 186.169288 
L 137.973196 186.169288 
L 136.375977 184.208838 
z
M 127.786848 182.211486 
L 134.729863 182.211486 
L 131.263788 177.930786 
L 127.786848 182.211486 
z
" clip-path="url(#p2bee6f561c)" style="fill: #008000"/>
   </g>
   <g id="patch_10">
    <path d="M 117.969925 162.162383 
L 144.541353 162.162383 
L 144.541353 164.745564 
L 134.981818 164.745564 
L 134.981818 175.407572 
L 127.547998 175.407572 
L 127.547998 164.745564 
L 117.969925 164.745564 
L 117.969925 162.162383 
z
" clip-path="url(#p2bee6f561c)" style="fill: #ff0000"/>
   </g>
   <g id="patch_11">
    <path d="M 164.345902 191.731421 
L 154.126957 191.731421 
L 152.51344 192.24 
L 145.93985 192.24 
L 155.327588 189.448202 
L 163.12354 189.448202 
L 172.511278 192.24 
L 165.943121 192.24 
L 164.345902 191.731421 
z
M 155.756773 191.213269 
L 162.699788 191.213269 
L 159.233713 190.102773 
L 155.756773 191.213269 
z
" clip-path="url(#p2bee6f561c)" style="fill: #008000"/>
   </g>
   <g id="patch_12">
    <path d="M 172.511278 189.195608 
Q 169.831506 189.321905 166.949262 189.385342 
Q 164.067019 189.448202 160.994213 189.448202 
Q 154.050626 189.448202 149.995238 189.072195 
Q 145.93985 188.696188 145.93985 188.053169 
Q 145.93985 187.402653 150.066699 187.029529 
Q 154.199503 186.656405 161.387247 186.656405 
Q 164.156344 186.656405 166.693195 186.707154 
Q 169.236001 186.757327 171.48701 186.856519 
L 171.48701 187.413033 
Q 169.164541 187.285583 166.865892 187.222723 
Q 164.567243 187.159286 162.256684 187.159286 
Q 157.980959 187.159286 155.664445 187.391119 
Q 153.347931 187.622375 153.347931 188.053169 
Q 153.347931 188.479926 155.581074 188.712912 
Q 157.814217 188.945321 161.923201 188.945321 
Q 163.04275 188.945321 164.001513 188.932057 
Q 164.960276 188.918216 165.722522 188.889382 
L 165.722522 188.366893 
L 161.345561 188.366893 
L 161.345561 187.901497 
L 172.511278 187.901497 
L 172.511278 189.195608 
z
" clip-path="url(#p2bee6f561c)" style="fill: #ffa600"/>
   </g>
   <g id="patch_13">
    <path d="M 172.511278 186.022709 
Q 170.288624 186.336818 167.885212 186.495698 
Q 165.4818 186.656405 162.864156 186.656405 
Q 155.058087 186.656405 150.498969 185.465715 
Q 145.93985 184.275024 145.93985 182.238798 
Q 145.93985 180.195267 150.498969 179.006403 
Q 155.058087 177.815712 162.864156 177.815712 
Q 165.4818 177.815712 167.885212 177.976419 
Q 170.288624 178.1353 172.511278 178.449408 
L 172.511278 180.211703 
Q 170.26854 179.795326 168.092749 179.601748 
Q 165.916958 179.408169 163.513546 179.408169 
Q 159.202132 179.408169 156.731773 180.162395 
Q 154.268108 180.914794 154.268108 182.238798 
Q 154.268108 183.557323 156.731773 184.311549 
Q 159.202132 185.063948 163.513546 185.063948 
Q 165.916958 185.063948 168.092749 184.870369 
Q 170.26854 184.674965 172.511278 184.258588 
L 172.511278 186.022709 
z
" clip-path="url(#p2bee6f561c)" style="fill: #0000ff"/>
   </g>
   <g id="patch_14">
    <path d="M 145.93985 166.881172 
L 172.511278 166.881172 
L 172.511278 169.013712 
L 162.951743 169.013712 
L 162.951743 177.815712 
L 155.517923 177.815712 
L 155.517923 169.013712 
L 145.93985 169.013712 
L 145.93985 166.881172 
z
" clip-path="url(#p2bee6f561c)" style="fill: #ff0000"/>
   </g>
   <g id="patch_15">
    <path d="M 173.909774 189.222446 
L 200.481203 189.222446 
L 200.481203 189.810953 
L 190.921668 189.810953 
L 190.921668 192.24 
L 183.487848 192.24 
L 183.487848 189.810953 
L 173.909774 189.810953 
L 173.909774 189.222446 
z
" clip-path="url(#p2bee6f561c)" style="fill: #ff0000"/>
   </g>
   <g id="patch_16">
    <path d="M 192.315826 188.245193 
L 182.096882 188.245193 
L 180.483364 189.222446 
L 173.909774 189.222446 
L 183.297513 183.857905 
L 191.093465 183.857905 
L 200.481203 189.222446 
L 193.913046 189.222446 
L 192.315826 188.245193 
z
M 183.726698 187.249546 
L 190.669713 187.249546 
L 187.203638 185.115686 
L 183.726698 187.249546 
z
" clip-path="url(#p2bee6f561c)" style="fill: #008000"/>
   </g>
   <g id="patch_17">
    <path d="M 200.481203 183.160187 
Q 197.801431 183.509046 194.919187 183.684272 
Q 192.036944 183.857905 188.964138 183.857905 
Q 182.020551 183.857905 177.965163 182.819294 
Q 173.909774 181.780683 173.909774 180.00453 
Q 173.909774 178.20767 178.036623 177.177023 
Q 182.169427 176.146377 189.357172 176.146377 
Q 192.126269 176.146377 194.66312 176.286558 
Q 197.205926 176.425145 199.456935 176.699135 
L 199.456935 178.236343 
Q 197.134465 177.884298 194.835817 177.710665 
Q 192.537168 177.53544 190.226609 177.53544 
Q 185.950883 177.53544 183.634369 178.17581 
Q 181.317855 178.814588 181.317855 180.00453 
Q 181.317855 181.183322 183.550999 181.826879 
Q 185.784142 182.468842 189.893126 182.468842 
Q 191.012675 182.468842 191.971438 182.432204 
Q 192.930201 182.393973 193.692447 182.314325 
L 193.692447 180.871102 
L 189.315486 180.871102 
L 189.315486 179.585581 
L 200.481203 179.585581 
L 200.481203 183.160187 
z
" clip-path="url(#p2bee6f561c)" style="fill: #ffa600"/>
   </g>
   <g id="patch_18">
    <path d="M 200.481203 174.680367 
Q 198.258549 175.407035 195.855137 175.774594 
Q 193.451725 176.146377 190.834081 176.146377 
Q 183.028012 176.146377 178.468893 173.3918 
Q 173.909774 170.637223 173.909774 165.926558 
Q 173.909774 161.198994 178.468893 158.448642 
Q 183.028012 155.694065 190.834081 155.694065 
Q 193.451725 155.694065 195.855137 156.065848 
Q 198.258549 156.433407 200.481203 157.160074 
L 200.481203 161.237017 
Q 198.238465 160.27376 196.062674 159.82593 
Q 193.886883 159.3781 191.483471 159.3781 
Q 187.172057 159.3781 184.701698 161.122947 
Q 182.238033 162.86357 182.238033 165.926558 
Q 182.238033 168.976872 184.701698 170.721719 
Q 187.172057 172.462341 191.483471 172.462341 
Q 193.886883 172.462341 196.062674 172.014511 
Q 198.238465 171.562457 200.481203 170.5992 
L 200.481203 174.680367 
z
" clip-path="url(#p2bee6f561c)" style="fill: #0000ff"/>
   </g>
   <g id="patch_19">
    <path d="M 228.451128 191.979418 
Q 225.771356 192.109709 222.889112 192.175152 
Q 220.006868 192.24 216.934063 192.24 
Q 209.990476 192.24 205.935088 191.852102 
Q 201.879699 191.464204 201.879699 190.800851 
Q 201.879699 190.129764 206.006548 189.744841 
Q 210.139352 189.359918 217.327096 189.359918 
Q 220.096194 189.359918 222.633045 189.412272 
Q 225.175851 189.464031 227.426859 189.56636 
L 227.426859 190.140473 
Q 225.10439 190.008992 222.805741 189.944144 
Q 220.507092 189.878701 218.196533 189.878701 
Q 213.920808 189.878701 211.604294 190.117865 
Q 209.28778 190.356435 209.28778 190.800851 
Q 209.28778 191.241103 211.520924 191.481457 
Q 213.754067 191.721216 217.863051 191.721216 
Q 218.9826 191.721216 219.941363 191.707533 
Q 220.900126 191.693254 221.662372 191.663508 
L 221.662372 191.124496 
L 217.285411 191.124496 
L 217.285411 190.644383 
L 228.451128 190.644383 
L 228.451128 191.979418 
z
" clip-path="url(#p2bee6f561c)" style="fill: #ffa600"/>
   </g>
   <g id="patch_20">
    <path d="M 201.879699 181.439691 
L 228.451128 181.439691 
L 228.451128 182.984356 
L 218.891593 182.984356 
L 218.891593 189.359918 
L 211.457772 189.359918 
L 211.457772 182.984356 
L 201.879699 182.984356 
L 201.879699 181.439691 
z
" clip-path="url(#p2bee6f561c)" style="fill: #ff0000"/>
   </g>
   <g id="patch_21">
    <path d="M 228.451128 180.665532 
Q 226.228474 181.049265 223.825062 181.243363 
Q 221.421649 181.439691 218.804005 181.439691 
Q 210.997937 181.439691 206.438818 179.985074 
Q 201.879699 178.530457 201.879699 176.042884 
Q 201.879699 173.546386 206.438818 172.094 
Q 210.997937 170.639383 218.804005 170.639383 
Q 221.421649 170.639383 223.825062 170.835712 
Q 226.228474 171.029809 228.451128 171.413543 
L 228.451128 173.566465 
Q 226.208389 173.057795 224.032599 172.821309 
Q 221.856808 172.584822 219.453395 172.584822 
Q 215.141982 172.584822 212.671622 173.506228 
Q 210.207958 174.425403 210.207958 176.042884 
Q 210.207958 177.653671 212.671622 178.575078 
Q 215.141982 179.494253 219.453395 179.494253 
Q 221.856808 179.494253 224.032599 179.257766 
Q 226.208389 179.019048 228.451128 178.510378 
L 228.451128 180.665532 
z
" clip-path="url(#p2bee6f561c)" style="fill: #0000ff"/>
   </g>
   <g id="patch_22">
    <path d="M 220.285751 160.277321 
L 210.066807 160.277321 
L 208.453289 170.639383 
L 201.879699 170.639383 
L 211.267438 113.757758 
L 219.063389 113.757758 
L 228.451128 170.639383 
L 221.882971 170.639383 
L 220.285751 160.277321 
z
M 211.696622 149.720208 
L 218.639637 149.720208 
L 215.173563 127.094341 
L 211.696622 149.720208 
z
" clip-path="url(#p2bee6f561c)" style="fill: #008000"/>
   </g>
   <g id="patch_23">
    <path d="M 248.255676 192.047205 
L 238.036732 192.047205 
L 236.423214 192.24 
L 229.849624 192.24 
L 239.237362 191.18167 
L 247.033314 191.18167 
L 256.421053 192.24 
L 249.852895 192.24 
L 248.255676 192.047205 
z
M 239.666547 191.850781 
L 246.609562 191.850781 
L 243.143487 191.429808 
L 239.666547 191.850781 
z
" clip-path="url(#p2bee6f561c)" style="fill: #008000"/>
   </g>
   <g id="patch_24">
    <path d="M 256.421053 191.088952 
Q 254.198398 191.13491 251.794986 191.158157 
Q 249.391574 191.18167 246.77393 191.18167 
Q 238.967862 191.18167 234.408743 191.007456 
Q 229.849624 190.833242 229.849624 190.535314 
Q 229.849624 190.236317 234.408743 190.06237 
Q 238.967862 189.888156 246.77393 189.888156 
Q 249.391574 189.888156 251.794986 189.91167 
Q 254.198398 189.934916 256.421053 189.980874 
L 256.421053 190.238722 
Q 254.178314 190.177801 252.002523 190.149478 
Q 249.826732 190.121154 247.42332 190.121154 
Q 243.111907 190.121154 240.641547 190.231508 
Q 238.177882 190.341594 238.177882 190.535314 
Q 238.177882 190.728232 240.641547 190.838586 
Q 243.111907 190.948672 247.42332 190.948672 
Q 249.826732 190.948672 252.002523 190.920349 
Q 254.178314 190.891759 256.421053 190.830837 
L 256.421053 191.088952 
z
" clip-path="url(#p2bee6f561c)" style="fill: #0000ff"/>
   </g>
   <g id="patch_25">
    <path d="M 256.421053 189.728565 
Q 253.741281 189.808361 250.859037 189.848441 
Q 247.976793 189.888156 244.903988 189.888156 
Q 237.960401 189.888156 233.905012 189.650591 
Q 229.849624 189.413026 229.849624 189.006761 
Q 229.849624 188.595759 233.976473 188.360016 
Q 238.109277 188.124273 245.297021 188.124273 
Q 248.066119 188.124273 250.60297 188.156337 
Q 253.145776 188.188037 255.396784 188.250707 
L 255.396784 188.602318 
Q 253.074315 188.521794 250.775666 188.482078 
Q 248.477017 188.441998 246.166458 188.441998 
Q 241.890733 188.441998 239.574219 188.588472 
Q 237.257705 188.734582 237.257705 189.006761 
Q 237.257705 189.27639 239.490848 189.423593 
Q 241.723992 189.570431 245.832976 189.570431 
Q 246.952525 189.570431 247.911288 189.562051 
Q 248.870051 189.553306 249.632297 189.535088 
L 249.632297 189.204975 
L 245.255336 189.204975 
L 245.255336 188.910934 
L 256.421053 188.910934 
L 256.421053 189.728565 
z
" clip-path="url(#p2bee6f561c)" style="fill: #ffa600"/>
   </g>
   <g id="patch_26">
    <path d="M 229.849624 185.831226 
L 256.421053 185.831226 
L 256.421053 186.278434 
L 246.861518 186.278434 
L 246.861518 188.124273 
L 239.427697 188.124273 
L 239.427697 186.278434 
L 229.849624 186.278434 
L 229.849624 185.831226 
z
" clip-path="url(#p2bee6f561c)" style="fill: #ff0000"/>
   </g>
   <g id="patch_27">
    <path d="M 284.390977 192.014442 
Q 281.711205 192.127221 278.828962 192.183868 
Q 275.946718 192.24 272.873913 192.24 
Q 265.930326 192.24 261.874937 191.904238 
Q 257.819549 191.568476 257.819549 190.994281 
Q 257.819549 190.413392 261.946398 190.080205 
Q 266.079202 189.747017 273.266946 189.747017 
Q 276.036044 189.747017 278.572895 189.792335 
Q 281.115701 189.837138 283.366709 189.925713 
L 283.366709 190.422661 
Q 281.04424 190.308853 278.745591 190.252721 
Q 276.446942 190.196074 274.136383 190.196074 
Q 269.860658 190.196074 267.544144 190.403093 
Q 265.22763 190.609597 265.22763 190.994281 
Q 265.22763 191.375361 267.460773 191.58341 
Q 269.693917 191.790944 273.8029 191.790944 
Q 274.92245 191.790944 275.881212 191.779099 
Q 276.839975 191.76674 277.602222 191.740991 
L 277.602222 191.274426 
L 273.225261 191.274426 
L 273.225261 190.858843 
L 284.390977 190.858843 
L 284.390977 192.014442 
z
" clip-path="url(#p2bee6f561c)" style="fill: #ffa600"/>
   </g>
   <g id="patch_28">
    <path d="M 257.819549 186.256842 
L 284.390977 186.256842 
L 284.390977 186.937523 
L 274.831443 186.937523 
L 274.831443 189.747017 
L 267.397622 189.747017 
L 267.397622 186.937523 
L 257.819549 186.937523 
L 257.819549 186.256842 
z
" clip-path="url(#p2bee6f561c)" style="fill: #ff0000"/>
   </g>
   <g id="patch_29">
    <path d="M 284.390977 184.863017 
Q 282.168323 185.553904 279.764911 185.903364 
Q 277.361499 186.256842 274.743855 186.256842 
Q 266.937787 186.256842 262.378668 183.637897 
Q 257.819549 181.018952 257.819549 176.540235 
Q 257.819549 172.04545 262.378668 169.430522 
Q 266.937787 166.811577 274.743855 166.811577 
Q 277.361499 166.811577 279.764911 167.165054 
Q 282.168323 167.514515 284.390977 168.205402 
L 284.390977 172.081601 
Q 282.148239 171.165774 279.972448 170.739995 
Q 277.796657 170.314215 275.393245 170.314215 
Q 271.081832 170.314215 268.611472 171.973148 
Q 266.147807 173.628064 266.147807 176.540235 
Q 266.147807 179.440355 268.611472 181.099288 
Q 271.081832 182.754204 275.393245 182.754204 
Q 277.796657 182.754204 279.972448 182.328424 
Q 282.148239 181.898628 284.390977 180.982801 
L 284.390977 184.863017 
z
" clip-path="url(#p2bee6f561c)" style="fill: #0000ff"/>
   </g>
   <g id="patch_30">
    <path d="M 276.225601 161.543508 
L 266.006656 161.543508 
L 264.393139 166.811577 
L 257.819549 166.811577 
L 267.207287 137.892979 
L 275.003239 137.892979 
L 284.390977 166.811577 
L 277.82282 166.811577 
L 276.225601 161.543508 
z
M 267.636472 156.176276 
L 274.579487 156.176276 
L 271.113412 144.673293 
L 267.636472 156.176276 
z
" clip-path="url(#p2bee6f561c)" style="fill: #008000"/>
   </g>
   <g id="patch_31">
    <path d="M 312.360902 192.115697 
Q 309.68113 192.177848 306.798887 192.209066 
Q 303.916643 192.24 300.843838 192.24 
Q 293.90025 192.24 289.844862 192.054964 
Q 285.789474 191.869928 285.789474 191.553494 
Q 285.789474 191.233371 289.916323 191.049754 
Q 294.049127 190.866137 301.236871 190.866137 
Q 304.005969 190.866137 306.542819 190.891112 
Q 309.085625 190.915802 311.336634 190.964615 
L 311.336634 191.238479 
Q 309.014165 191.17576 306.715516 191.144826 
Q 304.416867 191.113609 302.106308 191.113609 
Q 297.830583 191.113609 295.514069 191.227695 
Q 293.197555 191.341498 293.197555 191.553494 
Q 293.197555 191.763504 295.430698 191.878158 
Q 297.663841 191.992529 301.772825 191.992529 
Q 302.892374 191.992529 303.851137 191.986001 
Q 304.8099 191.97919 305.572146 191.965 
L 305.572146 191.70788 
L 301.195185 191.70788 
L 301.195185 191.478856 
L 312.360902 191.478856 
L 312.360902 192.115697 
z
" clip-path="url(#p2bee6f561c)" style="fill: #ffa600"/>
   </g>
   <g id="patch_32">
    <path d="M 304.195526 190.365587 
L 293.976581 190.365587 
L 292.363064 190.866137 
L 285.789474 190.866137 
L 295.177212 188.118412 
L 302.973164 188.118412 
L 312.360902 190.866137 
L 305.792745 190.866137 
L 304.195526 190.365587 
z
M 295.606397 189.855615 
L 302.549412 189.855615 
L 299.083337 188.76265 
L 295.606397 189.855615 
z
" clip-path="url(#p2bee6f561c)" style="fill: #008000"/>
   </g>
   <g id="patch_33">
    <path d="M 312.360902 187.429069 
Q 310.138248 187.770761 307.734836 187.943593 
Q 305.331424 188.118412 302.71378 188.118412 
Q 294.907711 188.118412 290.348593 186.823162 
Q 285.789474 185.527911 285.789474 183.312873 
Q 285.789474 181.089889 290.348593 179.796625 
Q 294.907711 178.501375 302.71378 178.501375 
Q 305.331424 178.501375 307.734836 178.676194 
Q 310.138248 178.849026 312.360902 179.190718 
L 312.360902 181.107769 
Q 310.118164 180.654828 307.942373 180.444251 
Q 305.766582 180.233673 303.36317 180.233673 
Q 299.051756 180.233673 296.581397 181.054131 
Q 294.117732 181.872602 294.117732 183.312873 
Q 294.117732 184.747185 296.581397 185.567643 
Q 299.051756 186.386114 303.36317 186.386114 
Q 305.766582 186.386114 307.942373 186.175536 
Q 310.118164 185.962972 312.360902 185.510032 
L 312.360902 187.429069 
z
" clip-path="url(#p2bee6f561c)" style="fill: #0000ff"/>
   </g>
   <g id="patch_34">
    <path d="M 285.789474 42.488983 
L 312.360902 42.488983 
L 312.360902 69.015189 
L 302.801367 69.015189 
L 302.801367 178.501375 
L 295.367547 178.501375 
L 295.367547 69.015189 
L 285.789474 69.015189 
L 285.789474 42.488983 
z
" clip-path="url(#p2bee6f561c)" style="fill: #ff0000"/>
   </g>
   <g id="patch_35">
    <path d="M 340.330827 192.170297 
Q 338.108173 192.204847 335.704761 192.222323 
Q 333.301349 192.24 330.683705 192.24 
Q 322.877636 192.24 318.318517 192.109031 
Q 313.759398 191.978062 313.759398 191.754089 
Q 313.759398 191.529312 318.318517 191.398544 
Q 322.877636 191.267575 330.683705 191.267575 
Q 333.301349 191.267575 335.704761 191.285252 
Q 338.108173 191.302728 340.330827 191.337278 
L 340.330827 191.53112 
Q 338.088089 191.485321 335.912298 191.464029 
Q 333.736507 191.442736 331.333095 191.442736 
Q 327.021681 191.442736 324.551322 191.525697 
Q 322.087657 191.608456 322.087657 191.754089 
Q 322.087657 191.899119 324.551322 191.982079 
Q 327.021681 192.064839 331.333095 192.064839 
Q 333.736507 192.064839 335.912298 192.043547 
Q 338.088089 192.022053 340.330827 191.976254 
L 340.330827 192.170297 
z
" clip-path="url(#p2bee6f561c)" style="fill: #0000ff"/>
   </g>
   <g id="patch_36">
    <path d="M 332.16545 191.007067 
L 321.946506 191.007067 
L 320.332988 191.267575 
L 313.759398 191.267575 
L 323.147137 189.837539 
L 330.943089 189.837539 
L 340.330827 191.267575 
L 333.76267 191.267575 
L 332.16545 191.007067 
z
M 323.576322 190.741655 
L 330.519337 190.741655 
L 327.053262 190.172828 
L 323.576322 190.741655 
z
" clip-path="url(#p2bee6f561c)" style="fill: #008000"/>
   </g>
   <g id="patch_37">
    <path d="M 313.759398 188.235898 
L 340.330827 188.235898 
L 340.330827 188.548263 
L 330.771292 188.548263 
L 330.771292 189.837539 
L 323.337472 189.837539 
L 323.337472 188.548263 
L 313.759398 188.548263 
L 313.759398 188.235898 
z
" clip-path="url(#p2bee6f561c)" style="fill: #ff0000"/>
   </g>
   <g id="patch_38">
    <path d="M 340.330827 188.034057 
Q 337.651055 188.134977 334.768811 188.185668 
Q 331.886568 188.235898 328.813762 188.235898 
Q 321.870175 188.235898 317.814787 187.93544 
Q 313.759398 187.634982 313.759398 187.121161 
Q 313.759398 186.60135 317.886247 186.303196 
Q 322.019051 186.005042 329.206796 186.005042 
Q 331.975893 186.005042 334.512744 186.045594 
Q 337.05555 186.085686 339.306559 186.164948 
L 339.306559 186.609645 
Q 336.98409 186.507802 334.685441 186.457572 
Q 332.386792 186.406882 330.076233 186.406882 
Q 325.800508 186.406882 323.483993 186.592133 
Q 321.167479 186.776924 321.167479 187.121161 
Q 321.167479 187.462172 323.400623 187.648346 
Q 325.633766 187.834058 329.74275 187.834058 
Q 330.862299 187.834058 331.821062 187.823459 
Q 332.779825 187.8124 333.542071 187.789358 
L 333.542071 187.37185 
L 329.16511 187.37185 
L 329.16511 186.999964 
L 340.330827 186.999964 
L 340.330827 188.034057 
z
" clip-path="url(#p2bee6f561c)" style="fill: #ffa600"/>
   </g>
   <g id="patch_39">
    <path d="M 360.135375 191.827007 
L 349.916431 191.827007 
L 348.302913 192.24 
L 341.729323 192.24 
L 351.117062 189.972911 
L 358.913013 189.972911 
L 368.300752 192.24 
L 361.732595 192.24 
L 360.135375 191.827007 
z
M 351.546247 191.40624 
L 358.489261 191.40624 
L 355.023187 190.504457 
L 351.546247 191.40624 
z
" clip-path="url(#p2bee6f561c)" style="fill: #008000"/>
   </g>
   <g id="patch_40">
    <path d="M 368.300752 189.460111 
Q 365.62098 189.716511 362.738736 189.845296 
Q 359.856492 189.972911 356.783687 189.972911 
Q 349.8401 189.972911 345.784712 189.209565 
Q 341.729323 188.44622 341.729323 187.140805 
Q 341.729323 185.820171 345.856172 185.062679 
Q 349.988976 184.305188 357.17672 184.305188 
Q 359.945818 184.305188 362.482669 184.408216 
Q 365.025475 184.510073 367.276483 184.711447 
L 367.276483 185.841245 
Q 364.954014 185.582503 362.655365 185.454889 
Q 360.356717 185.326104 358.046158 185.326104 
Q 353.770432 185.326104 351.453918 185.796755 
Q 349.137404 186.266236 349.137404 187.140805 
Q 349.137404 188.007179 351.370548 188.480172 
Q 353.603691 188.951995 357.712675 188.951995 
Q 358.832224 188.951995 359.790987 188.925067 
Q 360.74975 188.896968 361.511996 188.838429 
L 361.511996 187.777707 
L 357.135035 187.777707 
L 357.135035 186.832891 
L 368.300752 186.832891 
L 368.300752 189.460111 
z
" clip-path="url(#p2bee6f561c)" style="fill: #ffa600"/>
   </g>
   <g id="patch_41">
    <path d="M 368.300752 183.573921 
Q 366.078098 183.936393 363.674686 184.119737 
Q 361.271273 184.305188 358.65363 184.305188 
Q 350.847561 184.305188 346.288442 182.931166 
Q 341.729323 181.557144 341.729323 179.207398 
Q 341.729323 176.849222 346.288442 175.477308 
Q 350.847561 174.103286 358.65363 174.103286 
Q 361.271273 174.103286 363.674686 174.288737 
Q 366.078098 174.47208 368.300752 174.834552 
L 368.300752 176.868189 
Q 366.058014 176.387703 363.882223 176.164319 
Q 361.706432 175.940935 359.303019 175.940935 
Q 354.991606 175.940935 352.521246 176.811289 
Q 350.057582 177.679536 350.057582 179.207398 
Q 350.057582 180.728937 352.521246 181.599292 
Q 354.991606 182.467539 359.303019 182.467539 
Q 361.706432 182.467539 363.882223 182.244155 
Q 366.058014 182.018663 368.300752 181.538177 
L 368.300752 183.573921 
z
" clip-path="url(#p2bee6f561c)" style="fill: #0000ff"/>
   </g>
   <g id="patch_42">
    <path d="M 341.729323 68.683635 
L 368.300752 68.683635 
L 368.300752 89.243404 
L 358.741217 89.243404 
L 358.741217 174.103286 
L 351.307396 174.103286 
L 351.307396 89.243404 
L 341.729323 89.243404 
L 341.729323 68.683635 
z
" clip-path="url(#p2bee6f561c)" style="fill: #ff0000"/>
   </g>
   <g id="patch_43">
    <path d="M 396.270677 192.082972 
Q 393.590905 192.161486 390.708661 192.200922 
Q 387.826417 192.24 384.753612 192.24 
Q 377.810025 192.24 373.754636 192.00625 
Q 369.699248 191.772501 369.699248 191.37276 
Q 369.699248 190.968359 373.826097 190.736402 
Q 377.958901 190.504445 385.146645 190.504445 
Q 387.915743 190.504445 390.452594 190.535994 
Q 392.9954 190.567184 395.246408 190.628848 
L 395.246408 190.974812 
Q 392.923939 190.895581 390.62529 190.856503 
Q 388.326641 190.817067 386.016082 190.817067 
Q 381.740357 190.817067 379.423843 190.961189 
Q 377.107329 191.104952 377.107329 191.37276 
Q 377.107329 191.638059 379.340472 191.782898 
Q 381.573616 191.927378 385.6826 191.927378 
Q 386.802149 191.927378 387.760912 191.919132 
Q 388.719675 191.910528 389.481921 191.892602 
L 389.481921 191.567791 
L 385.10496 191.567791 
L 385.10496 191.278472 
L 396.270677 191.278472 
L 396.270677 192.082972 
z
" clip-path="url(#p2bee6f561c)" style="fill: #ffa600"/>
   </g>
   <g id="patch_44">
    <path d="M 388.1053 189.903733 
L 377.886356 189.903733 
L 376.272838 190.504445 
L 369.699248 190.504445 
L 379.086987 187.20689 
L 386.882938 187.20689 
L 396.270677 190.504445 
L 389.702519 190.504445 
L 388.1053 189.903733 
z
M 379.516171 189.291713 
L 386.459186 189.291713 
L 382.993111 187.980041 
L 379.516171 189.291713 
z
" clip-path="url(#p2bee6f561c)" style="fill: #008000"/>
   </g>
   <g id="patch_45">
    <path d="M 396.270677 186.721716 
Q 394.048023 186.962205 391.64461 187.083848 
Q 389.241198 187.20689 386.623554 187.20689 
Q 378.817486 187.20689 374.258367 186.295266 
Q 369.699248 185.383642 369.699248 183.824654 
Q 369.699248 182.260073 374.258367 181.349848 
Q 378.817486 180.438224 386.623554 180.438224 
Q 389.241198 180.438224 391.64461 180.561265 
Q 394.048023 180.682908 396.270677 180.923398 
L 396.270677 182.272657 
Q 394.027938 181.953868 391.852147 181.80566 
Q 389.676356 181.657451 387.272944 181.657451 
Q 382.961531 181.657451 380.491171 182.234906 
Q 378.027506 182.810962 378.027506 183.824654 
Q 378.027506 184.834152 380.491171 185.411606 
Q 382.961531 185.987663 387.272944 185.987663 
Q 389.676356 185.987663 391.852147 185.839454 
Q 394.027938 185.689847 396.270677 185.371059 
L 396.270677 186.721716 
z
" clip-path="url(#p2bee6f561c)" style="fill: #0000ff"/>
   </g>
   <g id="patch_46">
    <path d="M 369.699248 173.322448 
L 396.270677 173.322448 
L 396.270677 174.710222 
L 386.711142 174.710222 
L 386.711142 180.438224 
L 379.277321 180.438224 
L 379.277321 174.710222 
L 369.699248 174.710222 
L 369.699248 173.322448 
z
" clip-path="url(#p2bee6f561c)" style="fill: #ff0000"/>
   </g>
   <g id="patch_47">
    <path d="M 416.075225 191.496887 
L 405.85628 191.496887 
L 404.242763 192.24 
L 397.669173 192.24 
L 407.056911 188.160748 
L 414.852863 188.160748 
L 424.240602 192.24 
L 417.672444 192.24 
L 416.075225 191.496887 
z
M 407.486096 190.739786 
L 414.429111 190.739786 
L 410.963036 189.117178 
L 407.486096 190.739786 
z
" clip-path="url(#p2bee6f561c)" style="fill: #008000"/>
   </g>
   <g id="patch_48">
    <path d="M 424.240602 187.75139 
Q 422.017947 187.954299 419.614535 188.056934 
Q 417.211123 188.160748 414.593479 188.160748 
Q 406.787411 188.160748 402.228292 187.39158 
Q 397.669173 186.622412 397.669173 185.307041 
Q 397.669173 183.986951 402.228292 183.218963 
Q 406.787411 182.449795 414.593479 182.449795 
Q 417.211123 182.449795 419.614535 182.553609 
Q 422.017947 182.656243 424.240602 182.859153 
L 424.240602 183.997568 
Q 421.997863 183.728595 419.822072 183.603547 
Q 417.646281 183.478498 415.242869 183.478498 
Q 410.931456 183.478498 408.461096 183.965716 
Q 405.997431 184.451755 405.997431 185.307041 
Q 405.997431 186.158788 408.461096 186.646006 
Q 410.931456 187.132045 415.242869 187.132045 
Q 417.646281 187.132045 419.822072 187.006996 
Q 421.997863 186.880768 424.240602 186.611795 
L 424.240602 187.75139 
z
" clip-path="url(#p2bee6f561c)" style="fill: #0000ff"/>
   </g>
   <g id="patch_49">
    <path d="M 424.240602 181.416373 
Q 421.560829 181.933084 418.678586 182.192619 
Q 415.796342 182.449795 412.723537 182.449795 
Q 405.77995 182.449795 401.724561 180.911459 
Q 397.669173 179.373124 397.669173 176.742381 
Q 397.669173 174.080966 401.796022 172.554428 
Q 405.928826 171.027889 413.11657 171.027889 
Q 415.885668 171.027889 418.422519 171.235517 
Q 420.965325 171.440786 423.216333 171.846605 
L 423.216333 174.123436 
Q 420.893864 173.602006 418.595215 173.34483 
Q 416.296566 173.085295 413.986007 173.085295 
Q 409.710282 173.085295 407.393768 174.033778 
Q 405.077254 174.979902 405.077254 176.742381 
Q 405.077254 178.488345 407.310397 179.441547 
Q 409.543541 180.392389 413.652524 180.392389 
Q 414.772074 180.392389 415.730837 180.338123 
Q 416.689599 180.281497 417.451846 180.163526 
L 417.451846 178.0259 
L 413.074885 178.0259 
L 413.074885 176.121856 
L 424.240602 176.121856 
L 424.240602 181.416373 
z
" clip-path="url(#p2bee6f561c)" style="fill: #ffa600"/>
   </g>
   <g id="patch_50">
    <path d="M 397.669173 103.312304 
L 424.240602 103.312304 
L 424.240602 116.51873 
L 414.681067 116.51873 
L 414.681067 171.027889 
L 407.247246 171.027889 
L 407.247246 116.51873 
L 397.669173 116.51873 
L 397.669173 103.312304 
z
" clip-path="url(#p2bee6f561c)" style="fill: #ff0000"/>
   </g>
   <g id="patch_51">
    <path d="M 452.210526 191.905478 
Q 449.530754 192.072739 446.648511 192.156751 
Q 443.766267 192.24 440.693462 192.24 
Q 433.749874 192.24 429.694486 191.742036 
Q 425.639098 191.244071 425.639098 190.392491 
Q 425.639098 189.530982 429.765947 189.036837 
Q 433.898751 188.542691 441.086495 188.542691 
Q 443.855593 188.542691 446.392443 188.609901 
Q 448.935249 188.676347 451.186258 188.807712 
L 451.186258 189.54473 
Q 448.863789 189.375941 446.56514 189.292693 
Q 444.266491 189.20868 441.955932 189.20868 
Q 437.680207 189.20868 435.363693 189.515707 
Q 433.047179 189.821971 433.047179 190.392491 
Q 433.047179 190.957665 435.280322 191.26622 
Q 437.513465 191.574011 441.622449 191.574011 
Q 442.741998 191.574011 443.700761 191.556445 
Q 444.659524 191.538115 445.42177 191.499927 
L 445.42177 190.807971 
L 441.044809 190.807971 
L 441.044809 190.191625 
L 452.210526 190.191625 
L 452.210526 191.905478 
z
" clip-path="url(#p2bee6f561c)" style="fill: #ffa600"/>
   </g>
   <g id="patch_52">
    <path d="M 452.210526 188.18933 
Q 449.987872 188.364483 447.58446 188.453078 
Q 445.181048 188.542691 442.563404 188.542691 
Q 434.757336 188.542691 430.198217 187.878739 
Q 425.639098 187.214786 425.639098 186.079346 
Q 425.639098 184.939832 430.198217 184.276898 
Q 434.757336 183.612946 442.563404 183.612946 
Q 445.181048 183.612946 447.58446 183.702559 
Q 449.987872 183.791154 452.210526 183.966307 
L 452.210526 184.948997 
Q 449.967788 184.716818 447.791997 184.608875 
Q 445.616206 184.500931 443.212794 184.500931 
Q 438.90138 184.500931 436.431021 184.921503 
Q 433.967356 185.341055 433.967356 186.079346 
Q 433.967356 186.814582 436.431021 187.235153 
Q 438.90138 187.654706 443.212794 187.654706 
Q 445.616206 187.654706 447.791997 187.546762 
Q 449.967788 187.437801 452.210526 187.205621 
L 452.210526 188.18933 
z
" clip-path="url(#p2bee6f561c)" style="fill: #0000ff"/>
   </g>
   <g id="patch_53">
    <path d="M 425.639098 174.164268 
L 452.210526 174.164268 
L 452.210526 176.007023 
L 442.650991 176.007023 
L 442.650991 183.612946 
L 435.217171 183.612946 
L 435.217171 176.007023 
L 425.639098 176.007023 
L 425.639098 174.164268 
z
" clip-path="url(#p2bee6f561c)" style="fill: #ff0000"/>
   </g>
   <g id="patch_54">
    <path d="M 444.04515 169.299851 
L 433.826205 169.299851 
L 432.212688 174.164268 
L 425.639098 174.164268 
L 435.026836 147.461481 
L 442.822788 147.461481 
L 452.210526 174.164268 
L 445.642369 174.164268 
L 444.04515 169.299851 
z
M 435.456021 164.343869 
L 442.399036 164.343869 
L 438.932961 153.722272 
L 435.456021 164.343869 
z
" clip-path="url(#p2bee6f561c)" style="fill: #008000"/>
   </g>
   <g id="patch_55">
    <path d="M 480.180451 192.067855 
Q 477.500679 192.153927 474.618435 192.19716 
Q 471.736192 192.24 468.663386 192.24 
Q 461.719799 192.24 457.664411 191.983747 
Q 453.609023 191.727495 453.609023 191.289272 
Q 453.609023 190.845939 457.735872 190.591652 
Q 461.868675 190.337364 469.05642 190.337364 
Q 471.825517 190.337364 474.362368 190.371951 
Q 476.905174 190.406144 479.156183 190.473744 
L 479.156183 190.853014 
Q 476.833714 190.766155 474.535065 190.723315 
Q 472.236416 190.680083 469.925857 190.680083 
Q 465.650132 190.680083 463.333618 190.838079 
Q 461.017103 190.995682 461.017103 191.289272 
Q 461.017103 191.58011 463.250247 191.738893 
Q 465.48339 191.897282 469.592374 191.897282 
Q 470.711923 191.897282 471.670686 191.888242 
Q 472.629449 191.87881 473.391695 191.859158 
L 473.391695 191.503078 
L 469.014734 191.503078 
L 469.014734 191.185906 
L 480.180451 191.185906 
L 480.180451 192.067855 
z
" clip-path="url(#p2bee6f561c)" style="fill: #ffa600"/>
   </g>
   <g id="patch_56">
    <path d="M 472.015074 189.066494 
L 461.79613 189.066494 
L 460.182613 190.337364 
L 453.609023 190.337364 
L 462.996761 183.361034 
L 470.792713 183.361034 
L 480.180451 190.337364 
L 473.612294 190.337364 
L 472.015074 189.066494 
z
M 463.425946 187.771702 
L 470.368961 187.771702 
L 466.902886 184.996719 
L 463.425946 187.771702 
z
" clip-path="url(#p2bee6f561c)" style="fill: #008000"/>
   </g>
   <g id="patch_57">
    <path d="M 453.609023 169.408373 
L 480.180451 169.408373 
L 480.180451 172.129531 
L 470.620916 172.129531 
L 470.620916 183.361034 
L 463.187096 183.361034 
L 463.187096 172.129531 
L 453.609023 172.129531 
L 453.609023 169.408373 
z
" clip-path="url(#p2bee6f561c)" style="fill: #ff0000"/>
   </g>
   <g id="patch_58">
    <path d="M 480.180451 166.089799 
Q 477.957797 167.734741 475.554385 168.566775 
Q 473.150973 169.408373 470.533329 169.408373 
Q 462.72726 169.408373 458.168141 163.172896 
Q 453.609023 156.937418 453.609023 146.273986 
Q 453.609023 135.5723 458.168141 129.346386 
Q 462.72726 123.110908 470.533329 123.110908 
Q 473.150973 123.110908 475.554385 123.952507 
Q 477.957797 124.784541 480.180451 126.429483 
L 480.180451 135.658373 
Q 477.937713 133.477868 475.761922 132.464125 
Q 473.586131 131.450381 471.182719 131.450381 
Q 466.871305 131.450381 464.400946 135.400155 
Q 461.937281 139.340365 461.937281 146.273986 
Q 461.937281 153.178917 464.400946 157.12869 
Q 466.871305 161.0689 471.182719 161.0689 
Q 473.586131 161.0689 475.761922 160.055157 
Q 477.937713 159.03185 480.180451 156.851346 
L 480.180451 166.089799 
z
" clip-path="url(#p2bee6f561c)" style="fill: #0000ff"/>
   </g>
   <g id="patch_59">
    <path d="M 508.150376 192.034984 
Q 505.470604 192.137492 502.58836 192.18898 
Q 499.706116 192.24 496.633311 192.24 
Q 489.689724 192.24 485.634336 191.934816 
Q 481.578947 191.629632 481.578947 191.10773 
Q 481.578947 190.579743 485.705796 190.276899 
Q 489.8386 189.974056 497.026344 189.974056 
Q 499.795442 189.974056 502.332293 190.015246 
Q 504.875099 190.055969 507.126108 190.136477 
L 507.126108 190.588168 
Q 504.803638 190.484724 502.50499 190.433704 
Q 500.206341 190.382216 497.895782 190.382216 
Q 493.620056 190.382216 491.303542 190.570381 
Q 488.987028 190.758079 488.987028 191.10773 
Q 488.987028 191.454104 491.220172 191.643206 
Q 493.453315 191.83184 497.562299 191.83184 
Q 498.681848 191.83184 499.640611 191.821074 
Q 500.599374 191.80984 501.36162 191.786437 
L 501.36162 191.362362 
L 496.984659 191.362362 
L 496.984659 190.984627 
L 508.150376 190.984627 
L 508.150376 192.034984 
z
" clip-path="url(#p2bee6f561c)" style="fill: #ffa600"/>
   </g>
   <g id="patch_60">
    <path d="M 508.150376 189.270229 
Q 505.927722 189.6191 503.52431 189.795564 
Q 501.120897 189.974056 498.503254 189.974056 
Q 490.697185 189.974056 486.138066 188.651592 
Q 481.578947 187.329128 481.578947 185.067552 
Q 481.578947 182.797863 486.138066 181.477427 
Q 490.697185 180.154963 498.503254 180.154963 
Q 501.120897 180.154963 503.52431 180.333456 
Q 505.927722 180.509919 508.150376 180.85879 
L 508.150376 182.816118 
Q 505.907638 182.353661 503.731847 182.138659 
Q 501.556056 181.923658 499.152644 181.923658 
Q 494.84123 181.923658 492.37087 182.761353 
Q 489.907206 183.597021 489.907206 185.067552 
Q 489.907206 186.531998 492.37087 187.369694 
Q 494.84123 188.205362 499.152644 188.205362 
Q 501.556056 188.205362 503.731847 187.99036 
Q 505.907638 187.77333 508.150376 187.310873 
L 508.150376 189.270229 
z
" clip-path="url(#p2bee6f561c)" style="fill: #0000ff"/>
   </g>
   <g id="patch_61">
    <path d="M 481.578947 170.335871 
L 508.150376 170.335871 
L 508.150376 172.250868 
L 498.590841 172.250868 
L 498.590841 180.154963 
L 491.15702 180.154963 
L 491.15702 172.250868 
L 481.578947 172.250868 
L 481.578947 170.335871 
z
" clip-path="url(#p2bee6f561c)" style="fill: #ff0000"/>
   </g>
   <g id="patch_62">
    <path d="M 499.984999 159.328283 
L 489.766055 159.328283 
L 488.152537 170.335871 
L 481.578947 170.335871 
L 490.966686 109.910689 
L 498.762638 109.910689 
L 508.150376 170.335871 
L 501.582219 170.335871 
L 499.984999 159.328283 
z
M 491.395871 148.113494 
L 498.338885 148.113494 
L 494.872811 124.078102 
L 491.395871 148.113494 
z
" clip-path="url(#p2bee6f561c)" style="fill: #008000"/>
   </g>
   <g id="patch_63">
    <path d="M 536.120301 192.130626 
Q 533.897647 192.18484 531.494234 192.212263 
Q 529.090822 192.24 526.473178 192.24 
Q 518.66711 192.24 514.107991 192.034491 
Q 509.548872 191.828982 509.548872 191.477537 
Q 509.548872 191.124831 514.107991 190.919637 
Q 518.66711 190.714128 526.473178 190.714128 
Q 529.090822 190.714128 531.494234 190.741866 
Q 533.897647 190.769288 536.120301 190.823502 
L 536.120301 191.127668 
Q 533.877562 191.055803 531.701771 191.022392 
Q 529.52598 190.988981 527.122568 190.988981 
Q 522.811155 190.988981 520.340795 191.119157 
Q 517.87713 191.249019 517.87713 191.477537 
Q 517.87713 191.70511 520.340795 191.835286 
Q 522.811155 191.965148 527.122568 191.965148 
Q 529.52598 191.965148 531.701771 191.931737 
Q 533.877562 191.898011 536.120301 191.826146 
L 536.120301 192.130626 
z
" clip-path="url(#p2bee6f561c)" style="fill: #0000ff"/>
   </g>
   <g id="patch_64">
    <path d="M 527.954924 190.158196 
L 517.73598 190.158196 
L 516.122462 190.714128 
L 509.548872 190.714128 
L 518.936611 187.662385 
L 526.732562 187.662385 
L 536.120301 190.714128 
L 529.552143 190.714128 
L 527.954924 190.158196 
z
M 519.365795 189.591799 
L 526.30881 189.591799 
L 522.842736 188.377903 
L 519.365795 189.591799 
z
" clip-path="url(#p2bee6f561c)" style="fill: #008000"/>
   </g>
   <g id="patch_65">
    <path d="M 536.120301 187.248216 
Q 533.440529 187.455301 530.558285 187.559316 
Q 527.676041 187.662385 524.603236 187.662385 
Q 517.659649 187.662385 513.604261 187.045859 
Q 509.548872 186.429332 509.548872 185.374996 
Q 509.548872 184.308368 513.675721 183.696569 
Q 517.808525 183.084771 524.996269 183.084771 
Q 527.765367 183.084771 530.302218 183.167983 
Q 532.845024 183.250249 535.096032 183.412891 
L 535.096032 184.325388 
Q 532.773563 184.116412 530.474914 184.013343 
Q 528.176265 183.909328 525.865706 183.909328 
Q 521.589981 183.909328 519.273467 184.289456 
Q 516.956953 184.668639 516.956953 185.374996 
Q 516.956953 186.074735 519.190096 186.456755 
Q 521.42324 186.837828 525.532224 186.837828 
Q 526.651773 186.837828 527.610536 186.81608 
Q 528.569299 186.793386 529.331545 186.746106 
L 529.331545 185.889399 
L 524.954584 185.889399 
L 524.954584 185.126305 
L 536.120301 185.126305 
L 536.120301 187.248216 
z
" clip-path="url(#p2bee6f561c)" style="fill: #ffa600"/>
   </g>
   <g id="patch_66">
    <path d="M 509.548872 25.92 
L 536.120301 25.92 
L 536.120301 56.571509 
L 526.560766 56.571509 
L 526.560766 183.084771 
L 519.126945 183.084771 
L 519.126945 56.571509 
L 509.548872 56.571509 
L 509.548872 25.92 
z
" clip-path="url(#p2bee6f561c)" style="fill: #ff0000"/>
   </g>
   <g id="patch_67">
    <path d="M 537.518797 190.058584 
L 564.090226 190.058584 
L 564.090226 190.484021 
L 554.530691 190.484021 
L 554.530691 192.24 
L 547.09687 192.24 
L 547.09687 190.484021 
L 537.518797 190.484021 
L 537.518797 190.058584 
z
" clip-path="url(#p2bee6f561c)" style="fill: #ff0000"/>
   </g>
   <g id="patch_68">
    <path d="M 564.090226 189.892449 
Q 561.867571 189.974798 559.464159 190.016452 
Q 557.060747 190.058584 554.443103 190.058584 
Q 546.637035 190.058584 542.077916 189.746422 
Q 537.518797 189.43426 537.518797 188.900425 
Q 537.518797 188.364675 542.077916 188.052991 
Q 546.637035 187.740829 554.443103 187.740829 
Q 557.060747 187.740829 559.464159 187.782962 
Q 561.867571 187.824615 564.090226 187.906965 
L 564.090226 188.368984 
Q 561.847487 188.259823 559.671696 188.209072 
Q 557.495905 188.158322 555.092493 188.158322 
Q 550.78108 188.158322 548.31072 188.356057 
Q 545.847055 188.553312 545.847055 188.900425 
Q 545.847055 189.246101 548.31072 189.443836 
Q 550.78108 189.641091 555.092493 189.641091 
Q 557.495905 189.641091 559.671696 189.590341 
Q 561.847487 189.539112 564.090226 189.429951 
L 564.090226 189.892449 
z
" clip-path="url(#p2bee6f561c)" style="fill: #0000ff"/>
   </g>
   <g id="patch_69">
    <path d="M 564.090226 187.383099 
Q 561.410454 187.561964 558.52821 187.651805 
Q 555.645966 187.740829 552.573161 187.740829 
Q 545.629574 187.740829 541.574185 187.208318 
Q 537.518797 186.675806 537.518797 185.765146 
Q 537.518797 184.843869 541.645646 184.315441 
Q 545.77845 183.787013 552.966194 183.787013 
Q 555.735292 183.787013 558.272143 183.858886 
Q 560.814949 183.929942 563.065957 184.07042 
L 563.065957 184.85857 
Q 560.743488 184.678071 558.444839 184.589047 
Q 556.14619 184.499206 553.835631 184.499206 
Q 549.559906 184.499206 547.243392 184.827534 
Q 544.926878 185.155045 544.926878 185.765146 
Q 544.926878 186.369531 547.160021 186.699492 
Q 549.393165 187.028636 553.502148 187.028636 
Q 554.621698 187.028636 555.580461 187.009851 
Q 556.539223 186.99025 557.30147 186.949413 
L 557.30147 186.20945 
L 552.924509 186.20945 
L 552.924509 185.550345 
L 564.090226 185.550345 
L 564.090226 187.383099 
z
" clip-path="url(#p2bee6f561c)" style="fill: #ffa600"/>
   </g>
   <g id="patch_70">
    <path d="M 555.924849 182.619691 
L 545.705905 182.619691 
L 544.092387 183.787013 
L 537.518797 183.787013 
L 546.906535 177.379103 
L 554.702487 177.379103 
L 564.090226 183.787013 
L 557.522068 183.787013 
L 555.924849 182.619691 
z
M 547.33572 181.430396 
L 554.278735 181.430396 
L 550.81266 178.881515 
L 547.33572 181.430396 
z
" clip-path="url(#p2bee6f561c)" style="fill: #008000"/>
   </g>
   <g id="patch_71">
    <path d="M 592.06015 192.066632 
Q 589.380378 192.153316 586.498135 192.196856 
Q 583.615891 192.24 580.543086 192.24 
Q 573.599499 192.24 569.54411 191.981927 
Q 565.488722 191.723853 565.488722 191.282516 
Q 565.488722 190.836033 569.615571 190.579938 
Q 573.748375 190.323844 580.936119 190.323844 
Q 583.705217 190.323844 586.242068 190.358676 
Q 588.784873 190.393112 591.035882 190.461193 
L 591.035882 190.843157 
Q 588.713413 190.755682 586.414764 190.712537 
Q 584.116115 190.668997 581.805556 190.668997 
Q 577.529831 190.668997 575.213317 190.828116 
Q 572.896803 190.986839 572.896803 191.282516 
Q 572.896803 191.575421 575.129946 191.735332 
Q 577.363089 191.894846 581.472073 191.894846 
Q 582.591622 191.894846 583.550385 191.885743 
Q 584.509148 191.876243 585.271395 191.856452 
L 585.271395 191.497841 
L 580.894434 191.497841 
L 580.894434 191.178415 
L 592.06015 191.178415 
L 592.06015 192.066632 
z
" clip-path="url(#p2bee6f561c)" style="fill: #ffa600"/>
   </g>
   <g id="patch_72">
    <path d="M 592.06015 190.147252 
Q 589.837496 190.234785 587.434084 190.27906 
Q 585.030672 190.323844 582.413028 190.323844 
Q 574.60696 190.323844 570.047841 189.992035 
Q 565.488722 189.660226 565.488722 189.092793 
Q 565.488722 188.523323 570.047841 188.192023 
Q 574.60696 187.860215 582.413028 187.860215 
Q 585.030672 187.860215 587.434084 187.904999 
Q 589.837496 187.949274 592.06015 188.036806 
L 592.06015 188.527903 
Q 589.817412 188.411872 587.641621 188.357928 
Q 585.46583 188.303983 583.062418 188.303983 
Q 578.751004 188.303983 576.280645 188.514163 
Q 573.81698 188.723834 573.81698 189.092793 
Q 573.81698 189.460225 576.280645 189.670405 
Q 578.751004 189.880075 583.062418 189.880075 
Q 585.46583 189.880075 587.641621 189.826131 
Q 589.817412 189.771677 592.06015 189.655646 
L 592.06015 190.147252 
z
" clip-path="url(#p2bee6f561c)" style="fill: #0000ff"/>
   </g>
   <g id="patch_73">
    <path d="M 583.894774 187.062354 
L 573.675829 187.062354 
L 572.062312 187.860215 
L 565.488722 187.860215 
L 574.87646 183.480429 
L 582.672412 183.480429 
L 592.06015 187.860215 
L 585.491993 187.860215 
L 583.894774 187.062354 
z
M 575.305645 186.249475 
L 582.24866 186.249475 
L 578.782585 184.507323 
L 575.305645 186.249475 
z
" clip-path="url(#p2bee6f561c)" style="fill: #008000"/>
   </g>
   <g id="patch_74">
    <path d="M 565.488722 177.321356 
L 592.06015 177.321356 
L 592.06015 178.522547 
L 582.500615 178.522547 
L 582.500615 183.480429 
L 575.066795 183.480429 
L 575.066795 178.522547 
L 565.488722 178.522547 
L 565.488722 177.321356 
z
" clip-path="url(#p2bee6f561c)" style="fill: #ff0000"/>
   </g>
   <g id="patch_75">
    <path d="M 593.458647 190.694886 
L 620.030075 190.694886 
L 620.030075 190.996226 
L 610.47054 190.996226 
L 610.47054 192.24 
L 603.03672 192.24 
L 603.03672 190.996226 
L 593.458647 190.996226 
L 593.458647 190.694886 
z
" clip-path="url(#p2bee6f561c)" style="fill: #ff0000"/>
   </g>
   <g id="patch_76">
    <path d="M 620.030075 190.288793 
Q 617.807421 190.490084 615.404009 190.5919 
Q 613.000597 190.694886 610.382953 190.694886 
Q 602.576884 190.694886 598.017766 189.931851 
Q 593.458647 189.168816 593.458647 187.863933 
Q 593.458647 186.554369 598.017766 185.792504 
Q 602.576884 185.029469 610.382953 185.029469 
Q 613.000597 185.029469 615.404009 185.132455 
Q 617.807421 185.234271 620.030075 185.435563 
L 620.030075 186.564901 
Q 617.787337 186.298073 615.611546 186.174021 
Q 613.435755 186.04997 611.032343 186.04997 
Q 606.720929 186.04997 604.25057 186.533303 
Q 601.786905 187.015466 601.786905 187.863933 
Q 601.786905 188.708889 604.25057 189.192222 
Q 606.720929 189.674386 611.032343 189.674386 
Q 613.435755 189.674386 615.611546 189.550334 
Q 617.787337 189.425112 620.030075 189.158284 
L 620.030075 190.288793 
z
" clip-path="url(#p2bee6f561c)" style="fill: #0000ff"/>
   </g>
   <g id="patch_77">
    <path d="M 611.864699 183.575199 
L 601.645754 183.575199 
L 600.032237 185.029469 
L 593.458647 185.029469 
L 602.846385 177.046381 
L 610.642337 177.046381 
L 620.030075 185.029469 
L 613.461918 185.029469 
L 611.864699 183.575199 
z
M 603.27557 182.093554 
L 610.218585 182.093554 
L 606.75251 178.918113 
L 603.27557 182.093554 
z
" clip-path="url(#p2bee6f561c)" style="fill: #008000"/>
   </g>
   <g id="patch_78">
    <path d="M 620.030075 175.881402 
Q 617.350303 176.463892 614.468059 176.756466 
Q 611.585816 177.046381 608.51301 177.046381 
Q 601.569423 177.046381 597.514035 175.312211 
Q 593.458647 173.578041 593.458647 170.612397 
Q 593.458647 167.612176 597.585496 165.891305 
Q 601.7183 164.170433 608.906044 164.170433 
Q 611.675141 164.170433 614.211992 164.404493 
Q 616.754798 164.635893 619.005807 165.093374 
L 619.005807 167.660052 
Q 616.683338 167.072243 614.384689 166.782328 
Q 612.08604 166.489753 609.775481 166.489753 
Q 605.499756 166.489753 603.183242 167.558981 
Q 600.866728 168.625549 600.866728 170.612397 
Q 600.866728 172.580627 603.099871 173.655174 
Q 605.333014 174.727062 609.441998 174.727062 
Q 610.561547 174.727062 611.52031 174.665887 
Q 612.479073 174.602052 613.241319 174.469064 
L 613.241319 172.059312 
L 608.864358 172.059312 
L 608.864358 169.912877 
L 620.030075 169.912877 
L 620.030075 175.881402 
z
" clip-path="url(#p2bee6f561c)" style="fill: #ffa600"/>
   </g>
   <g id="patch_79">
    <path d="M 648 192.037957 
Q 645.320228 192.138979 642.437984 192.18972 
Q 639.555741 192.24 636.482935 192.24 
Q 629.539348 192.24 625.48396 191.939242 
Q 621.428571 191.638485 621.428571 191.124153 
Q 621.428571 190.603824 625.55542 190.305373 
Q 629.688224 190.006921 636.875968 190.006921 
Q 639.645066 190.006921 642.181917 190.047514 
Q 644.724723 190.087646 646.975732 190.166987 
L 646.975732 190.612127 
Q 644.653262 190.510183 642.354614 190.459903 
Q 640.055965 190.409162 637.745406 190.409162 
Q 633.46968 190.409162 631.153166 190.594598 
Q 628.836652 190.779573 628.836652 191.124153 
Q 628.836652 191.465503 631.069796 191.651862 
Q 633.302939 191.83776 637.411923 191.83776 
Q 638.531472 191.83776 639.490235 191.82715 
Q 640.448998 191.816079 641.211244 191.793015 
L 641.211244 191.375091 
L 636.834283 191.375091 
L 636.834283 191.002835 
L 648 191.002835 
L 648 192.037957 
z
" clip-path="url(#p2bee6f561c)" style="fill: #ffa600"/>
   </g>
   <g id="patch_80">
    <path d="M 648 189.709656 
Q 645.777346 189.857004 643.373934 189.931534 
Q 640.970522 190.006921 638.352878 190.006921 
Q 630.546809 190.006921 625.98769 189.448372 
Q 621.428571 188.889822 621.428571 187.934633 
Q 621.428571 186.976018 625.98769 186.418325 
Q 630.546809 185.859775 638.352878 185.859775 
Q 640.970522 185.859775 643.373934 185.935162 
Q 645.777346 186.009693 648 186.15704 
L 648 186.983728 
Q 645.757262 186.788407 643.581471 186.6976 
Q 641.40568 186.606793 639.002268 186.606793 
Q 634.690854 186.606793 632.220495 186.960598 
Q 629.75683 187.313547 629.75683 187.934633 
Q 629.75683 188.55315 632.220495 188.906955 
Q 634.690854 189.259904 639.002268 189.259904 
Q 641.40568 189.259904 643.581471 189.169097 
Q 645.757262 189.077433 648 188.882112 
L 648 189.709656 
z
" clip-path="url(#p2bee6f561c)" style="fill: #0000ff"/>
   </g>
   <g id="patch_81">
    <path d="M 639.834623 183.651446 
L 629.615679 183.651446 
L 628.002161 185.859775 
L 621.428571 185.859775 
L 630.81631 173.737349 
L 638.612262 173.737349 
L 648 185.859775 
L 641.431843 185.859775 
L 639.834623 183.651446 
z
M 631.245495 181.401549 
L 638.18851 181.401549 
L 634.722435 176.579598 
L 631.245495 181.401549 
z
" clip-path="url(#p2bee6f561c)" style="fill: #008000"/>
   </g>
   <g id="patch_82">
    <path d="M 621.428571 157.467776 
L 648 157.467776 
L 648 160.640796 
L 638.440465 160.640796 
L 638.440465 173.737349 
L 631.006645 173.737349 
L 631.006645 160.640796 
L 621.428571 160.640796 
L 621.428571 157.467776 
z
" clip-path="url(#p2bee6f561c)" style="fill: #ff0000"/>
   </g>
   <g id="matplotlib.axis_1">
    <g id="xtick_1">
     <g id="line2d_2">
      <defs>
       <path id="me001aa71e5" d="M 0 0 
L 0 3.5 
" style="stroke: #000000; stroke-width: 0.8"/>
      </defs>
      <g>
       <use xlink:href="#me001aa71e5" x="103.285714" y="192.24" style="stroke: #000000; stroke-width: 0.8"/>
      </g>
     </g>
     <g id="text_1">
      <!-- 0.0 -->
      <g transform="translate(95.334152 206.838437) scale(0.1 -0.1)">
       <defs>
        <path id="DejaVuSans-30" d="M 2034 4250 
Q 1547 4250 1301 3770 
Q 1056 3291 1056 2328 
Q 1056 1369 1301 889 
Q 1547 409 2034 409 
Q 2525 409 2770 889 
Q 3016 1369 3016 2328 
Q 3016 3291 2770 3770 
Q 2525 4250 2034 4250 
z
M 2034 4750 
Q 2819 4750 3233 4129 
Q 3647 3509 3647 2328 
Q 3647 1150 3233 529 
Q 2819 -91 2034 -91 
Q 1250 -91 836 529 
Q 422 1150 422 2328 
Q 422 3509 836 4129 
Q 1250 4750 2034 4750 
z
" transform="scale(0.015625)"/>
        <path id="DejaVuSans-2e" d="M 684 794 
L 1344 794 
L 1344 0 
L 684 0 
L 684 794 
z
" transform="scale(0.015625)"/>
       </defs>
       <use xlink:href="#DejaVuSans-30"/>
       <use xlink:href="#DejaVuSans-2e" x="63.623047"/>
       <use xlink:href="#DejaVuSans-30" x="95.410156"/>
      </g>
     </g>
    </g>
    <g id="xtick_2">
     <g id="line2d_3">
      <g>
       <use xlink:href="#me001aa71e5" x="173.210526" y="192.24" style="stroke: #000000; stroke-width: 0.8"/>
      </g>
     </g>
     <g id="text_2">
      <!-- 2.5 -->
      <g transform="translate(165.258964 206.838437) scale(0.1 -0.1)">
       <defs>
        <path id="DejaVuSans-32" d="M 1228 531 
L 3431 531 
L 3431 0 
L 469 0 
L 469 531 
Q 828 903 1448 1529 
Q 2069 2156 2228 2338 
Q 2531 2678 2651 2914 
Q 2772 3150 2772 3378 
Q 2772 3750 2511 3984 
Q 2250 4219 1831 4219 
Q 1534 4219 1204 4116 
Q 875 4013 500 3803 
L 500 4441 
Q 881 4594 1212 4672 
Q 1544 4750 1819 4750 
Q 2544 4750 2975 4387 
Q 3406 4025 3406 3419 
Q 3406 3131 3298 2873 
Q 3191 2616 2906 2266 
Q 2828 2175 2409 1742 
Q 1991 1309 1228 531 
z
" transform="scale(0.015625)"/>
        <path id="DejaVuSans-35" d="M 691 4666 
L 3169 4666 
L 3169 4134 
L 1269 4134 
L 1269 2991 
Q 1406 3038 1543 3061 
Q 1681 3084 1819 3084 
Q 2600 3084 3056 2656 
Q 3513 2228 3513 1497 
Q 3513 744 3044 326 
Q 2575 -91 1722 -91 
Q 1428 -91 1123 -41 
Q 819 9 494 109 
L 494 744 
Q 775 591 1075 516 
Q 1375 441 1709 441 
Q 2250 441 2565 725 
Q 2881 1009 2881 1497 
Q 2881 1984 2565 2268 
Q 2250 2553 1709 2553 
Q 1456 2553 1204 2497 
Q 953 2441 691 2322 
L 691 4666 
z
" transform="scale(0.015625)"/>
       </defs>
       <use xlink:href="#DejaVuSans-32"/>
       <use xlink:href="#DejaVuSans-2e" x="63.623047"/>
       <use xlink:href="#DejaVuSans-35" x="95.410156"/>
      </g>
     </g>
    </g>
    <g id="xtick_3">
     <g id="line2d_4">
      <g>
       <use xlink:href="#me001aa71e5" x="243.135338" y="192.24" style="stroke: #000000; stroke-width: 0.8"/>
      </g>
     </g>
     <g id="text_3">
      <!-- 5.0 -->
      <g transform="translate(235.183776 206.838437) scale(0.1 -0.1)">
       <use xlink:href="#DejaVuSans-35"/>
       <use xlink:href="#DejaVuSans-2e" x="63.623047"/>
       <use xlink:href="#DejaVuSans-30" x="95.410156"/>
      </g>
     </g>
    </g>
    <g id="xtick_4">
     <g id="line2d_5">
      <g>
       <use xlink:href="#me001aa71e5" x="313.06015" y="192.24" style="stroke: #000000; stroke-width: 0.8"/>
      </g>
     </g>
     <g id="text_4">
      <!-- 7.5 -->
      <g transform="translate(305.108588 206.838437) scale(0.1 -0.1)">
       <defs>
        <path id="DejaVuSans-37" d="M 525 4666 
L 3525 4666 
L 3525 4397 
L 1831 0 
L 1172 0 
L 2766 4134 
L 525 4134 
L 525 4666 
z
" transform="scale(0.015625)"/>
       </defs>
       <use xlink:href="#DejaVuSans-37"/>
       <use xlink:href="#DejaVuSans-2e" x="63.623047"/>
       <use xlink:href="#DejaVuSans-35" x="95.410156"/>
      </g>
     </g>
    </g>
    <g id="xtick_5">
     <g id="line2d_6">
      <g>
       <use xlink:href="#me001aa71e5" x="382.984962" y="192.24" style="stroke: #000000; stroke-width: 0.8"/>
      </g>
     </g>
     <g id="text_5">
      <!-- 10.0 -->
      <g transform="translate(371.85215 206.838437) scale(0.1 -0.1)">
       <defs>
        <path id="DejaVuSans-31" d="M 794 531 
L 1825 531 
L 1825 4091 
L 703 3866 
L 703 4441 
L 1819 4666 
L 2450 4666 
L 2450 531 
L 3481 531 
L 3481 0 
L 794 0 
L 794 531 
z
" transform="scale(0.015625)"/>
       </defs>
       <use xlink:href="#DejaVuSans-31"/>
       <use xlink:href="#DejaVuSans-30" x="63.623047"/>
       <use xlink:href="#DejaVuSans-2e" x="127.246094"/>
       <use xlink:href="#DejaVuSans-30" x="159.033203"/>
      </g>
     </g>
    </g>
    <g id="xtick_6">
     <g id="line2d_7">
      <g>
       <use xlink:href="#me001aa71e5" x="452.909774" y="192.24" style="stroke: #000000; stroke-width: 0.8"/>
      </g>
     </g>
     <g id="text_6">
      <!-- 12.5 -->
      <g transform="translate(441.776962 206.838437) scale(0.1 -0.1)">
       <use xlink:href="#DejaVuSans-31"/>
       <use xlink:href="#DejaVuSans-32" x="63.623047"/>
       <use xlink:href="#DejaVuSans-2e" x="127.246094"/>
       <use xlink:href="#DejaVuSans-35" x="159.033203"/>
      </g>
     </g>
    </g>
    <g id="xtick_7">
     <g id="line2d_8">
      <g>
       <use xlink:href="#me001aa71e5" x="522.834586" y="192.24" style="stroke: #000000; stroke-width: 0.8"/>
      </g>
     </g>
     <g id="text_7">
      <!-- 15.0 -->
      <g transform="translate(511.701774 206.838437) scale(0.1 -0.1)">
       <use xlink:href="#DejaVuSans-31"/>
       <use xlink:href="#DejaVuSans-35" x="63.623047"/>
       <use xlink:href="#DejaVuSans-2e" x="127.246094"/>
       <use xlink:href="#DejaVuSans-30" x="159.033203"/>
      </g>
     </g>
    </g>
    <g id="xtick_8">
     <g id="line2d_9">
      <g>
       <use xlink:href="#me001aa71e5" x="592.759398" y="192.24" style="stroke: #000000; stroke-width: 0.8"/>
      </g>
     </g>
     <g id="text_8">
      <!-- 17.5 -->
      <g transform="translate(581.626586 206.838437) scale(0.1 -0.1)">
       <use xlink:href="#DejaVuSans-31"/>
       <use xlink:href="#DejaVuSans-37" x="63.623047"/>
       <use xlink:href="#DejaVuSans-2e" x="127.246094"/>
       <use xlink:href="#DejaVuSans-35" x="159.033203"/>
      </g>
     </g>
    </g>
   </g>
   <g id="matplotlib.axis_2">
    <g id="ytick_1">
     <g id="line2d_10">
      <defs>
       <path id="m690933618a" d="M 0 0 
L -3.5 0 
" style="stroke: #000000; stroke-width: 0.8"/>
      </defs>
      <g>
       <use xlink:href="#m690933618a" x="90" y="192.24" style="stroke: #000000; stroke-width: 0.8"/>
      </g>
     </g>
     <g id="text_9">
      <!-- 0.00 -->
      <g transform="translate(60.734375 196.039219) scale(0.1 -0.1)">
       <use xlink:href="#DejaVuSans-30"/>
       <use xlink:href="#DejaVuSans-2e" x="63.623047"/>
       <use xlink:href="#DejaVuSans-30" x="95.410156"/>
       <use xlink:href="#DejaVuSans-30" x="159.033203"/>
      </g>
     </g>
    </g>
    <g id="ytick_2">
     <g id="line2d_11">
      <g>
       <use xlink:href="#m690933618a" x="90" y="166.449529" style="stroke: #000000; stroke-width: 0.8"/>
      </g>
     </g>
     <g id="text_10">
      <!-- 0.25 -->
      <g transform="translate(60.734375 170.248748) scale(0.1 -0.1)">
       <use xlink:href="#DejaVuSans-30"/>
       <use xlink:href="#DejaVuSans-2e" x="63.623047"/>
       <use xlink:href="#DejaVuSans-32" x="95.410156"/>
       <use xlink:href="#DejaVuSans-35" x="159.033203"/>
      </g>
     </g>
    </g>
    <g id="ytick_3">
     <g id="line2d_12">
      <g>
       <use xlink:href="#m690933618a" x="90" y="140.659059" style="stroke: #000000; stroke-width: 0.8"/>
      </g>
     </g>
     <g id="text_11">
      <!-- 0.50 -->
      <g transform="translate(60.734375 144.458278) scale(0.1 -0.1)">
       <use xlink:href="#DejaVuSans-30"/>
       <use xlink:href="#DejaVuSans-2e" x="63.623047"/>
       <use xlink:href="#DejaVuSans-35" x="95.410156"/>
       <use xlink:href="#DejaVuSans-30" x="159.033203"/>
      </g>
     </g>
    </g>
    <g id="ytick_4">
     <g id="line2d_13">
      <g>
       <use xlink:href="#m690933618a" x="90" y="114.868588" style="stroke: #000000; stroke-width: 0.8"/>
      </g>
     </g>
     <g id="text_12">
      <!-- 0.75 -->
      <g transform="translate(60.734375 118.667807) scale(0.1 -0.1)">
       <use xlink:href="#DejaVuSans-30"/>
       <use xlink:href="#DejaVuSans-2e" x="63.623047"/>
       <use xlink:href="#DejaVuSans-37" x="95.410156"/>
       <use xlink:href="#DejaVuSans-35" x="159.033203"/>
      </g>
     </g>
    </g>
    <g id="ytick_5">
     <g id="line2d_14">
      <g>
       <use xlink:href="#m690933618a" x="90" y="89.078118" style="stroke: #000000; stroke-width: 0.8"/>
      </g>
     </g>
     <g id="text_13">
      <!-- 1.00 -->
      <g transform="translate(60.734375 92.877337) scale(0.1 -0.1)">
       <use xlink:href="#DejaVuSans-31"/>
       <use xlink:href="#DejaVuSans-2e" x="63.623047"/>
       <use xlink:href="#DejaVuSans-30" x="95.410156"/>
       <use xlink:href="#DejaVuSans-30" x="159.033203"/>
      </g>
     </g>
    </g>
    <g id="ytick_6">
     <g id="line2d_15">
      <g>
       <use xlink:href="#m690933618a" x="90" y="63.287647" style="stroke: #000000; stroke-width: 0.8"/>
      </g>
     </g>
     <g id="text_14">
      <!-- 1.25 -->
      <g transform="translate(60.734375 67.086866) scale(0.1 -0.1)">
       <use xlink:href="#DejaVuSans-31"/>
       <use xlink:href="#DejaVuSans-2e" x="63.623047"/>
       <use xlink:href="#DejaVuSans-32" x="95.410156"/>
       <use xlink:href="#DejaVuSans-35" x="159.033203"/>
      </g>
     </g>
    </g>
    <g id="ytick_7">
     <g id="line2d_16">
      <g>
       <use xlink:href="#m690933618a" x="90" y="37.497177" style="stroke: #000000; stroke-width: 0.8"/>
      </g>
     </g>
     <g id="text_15">
      <!-- 1.50 -->
      <g transform="translate(60.734375 41.296396) scale(0.1 -0.1)">
       <use xlink:href="#DejaVuSans-31"/>
       <use xlink:href="#DejaVuSans-2e" x="63.623047"/>
       <use xlink:href="#DejaVuSans-35" x="95.410156"/>
       <use xlink:href="#DejaVuSans-30" x="159.033203"/>
      </g>
     </g>
    </g>
   </g>
  </g>
 </g>
 <defs>
  <clipPath id="p2bee6f561c">
   <rect x="90" y="25.92" width="558" height="166.32"/>
  </clipPath>
 </defs>
</svg>
