<?xml version="1.0" encoding="utf-8" standalone="no"?>
<!DOCTYPE svg PUBLIC "-//W3C//DTD SVG 1.1//EN"
  "http://www.w3.org/Graphics/SVG/1.1/DTD/svg11.dtd">
<svg xmlns:xlink="http://www.w3.org/1999/xlink" width="720pt" height="216pt" viewBox="0 0 720 216" xmlns="http://www.w3.org/2000/svg" version="1.1">
 <metadata>
  <rdf:RDF xmlns:dc="http://purl.org/dc/elements/1.1/" xmlns:cc="http://creativecommons.org/ns#" xmlns:rdf="http://www.w3.org/1999/02/22-rdf-syntax-ns#">
   <cc:Work>
    <dc:type rdf:resource="http://purl.org/dc/dcmitype/StillImage"/>
    <dc:date>2025-12-17T10:22:25.846925</dc:date>
    <dc:format>image/svg+xml</dc:format>
    <dc:creator>
     <cc:Agent>
      <dc:title>Matplotlib v3.8.2, https://matplotlib.org/</dc:title>
     </cc:Agent>
    </dc:creator>
   </cc:Work>
  </rdf:RDF>
 </metadata>
 <defs>
  <style type="text/css">*{stroke-linejoin: round; stroke-linecap: butt}</style>
 </defs>
 <g id="figure_1">
  <g id="patch_1">
   <path d="M 0 216 
L 720 216 
L 720 0 
L 0 0 
z
" style="fill: #ffffff"/>
  </g>
  <g id="axes_1">
   <g id="patch_2">
    <path d="M 90 192.24 
L 648 192.24 
L 648 25.92 
L 90 25.92 
z
" style="fill: #ffffff"/>
   </g>
   <g id="line2d_1">
    <path d="M 90 192.24 
L 648 192.24 
" clip-path="url(#pb1f706af14)" style="fill: none; stroke: #000000; stroke-width: 0.5; stroke-linecap: square"/>
   </g>
   <g id="patch_3">
    <path d="M 109.669759 191.902131 
Q 108.024417 192.069605 106.245268 192.154316 
Q 104.466119 192.24 102.528383 192.24 
Q 96.749864 192.24 93.374932 191.605157 
Q 90 190.970314 90 189.884655 
Q 90 188.7951 93.374932 188.161231 
Q 96.749864 187.526388 102.528383 187.526388 
Q 104.466119 187.526388 106.245268 187.612072 
Q 108.024417 187.696783 109.669759 187.864257 
L 109.669759 188.803864 
Q 108.00955 188.581863 106.398899 188.478653 
Q 104.788249 188.375442 103.0091 188.375442 
Q 99.817534 188.375442 97.988826 188.777574 
Q 96.165074 189.178732 96.165074 189.884655 
Q 96.165074 190.587656 97.988826 190.989788 
Q 99.817534 191.390946 103.0091 191.390946 
Q 104.788249 191.390946 106.398899 191.287735 
Q 108.00955 191.183551 109.669759 190.961551 
L 109.669759 191.902131 
z
" clip-path="url(#pb1f706af14)" style="fill: #0000ff"/>
   </g>
   <g id="patch_4">
    <path d="M 90 182.427991 
L 109.669759 182.427991 
L 109.669759 183.422321 
L 102.59322 183.422321 
L 102.59322 187.526388 
L 97.090262 187.526388 
L 97.090262 183.422321 
L 90 183.422321 
L 90 182.427991 
z
" clip-path="url(#pb1f706af14)" style="fill: #ff0000"/>
   </g>
   <g id="patch_5">
    <path d="M 109.669759 181.618561 
Q 107.686031 182.023276 105.552422 182.226558 
Q 103.418813 182.427991 101.144139 182.427991 
Q 96.004081 182.427991 93.002041 181.223085 
Q 90 180.018179 90 177.957642 
Q 90 175.87308 93.05494 174.677414 
Q 96.114289 173.481748 101.435086 173.481748 
Q 103.484938 173.481748 105.362866 173.644374 
Q 107.245203 173.805151 108.911534 174.12301 
L 108.911534 175.906345 
Q 107.192304 175.497933 105.490707 175.2965 
Q 103.789109 175.093218 102.078695 175.093218 
Q 98.913548 175.093218 97.198726 175.83612 
Q 95.483904 176.577174 95.483904 177.957642 
Q 95.483904 179.325173 97.13701 180.071772 
Q 98.790116 180.816522 101.831832 180.816522 
Q 102.660589 180.816522 103.370322 180.774018 
Q 104.080056 180.729665 104.644316 180.637264 
L 104.644316 178.962962 
L 101.404228 178.962962 
L 101.404228 177.471614 
L 109.669759 177.471614 
L 109.669759 181.618561 
z
" clip-path="url(#pb1f706af14)" style="fill: #ffa600"/>
   </g>
   <g id="patch_6">
    <path d="M 103.625259 168.20704 
L 96.060586 168.20704 
L 94.866164 173.481748 
L 90 173.481748 
L 96.949365 144.526703 
L 102.720394 144.526703 
L 109.669759 173.481748 
L 104.807616 173.481748 
L 103.625259 168.20704 
z
M 97.267073 162.833043 
L 102.406707 162.833043 
L 99.840912 151.315563 
L 97.267073 162.833043 
z
" clip-path="url(#pb1f706af14)" style="fill: #008000"/>
   </g>
   <g id="patch_7">
    <path d="M 110.705009 190.162884 
L 130.374768 190.162884 
L 130.374768 190.56798 
L 123.298229 190.56798 
L 123.298229 192.24 
L 117.795271 192.24 
L 117.795271 190.56798 
L 110.705009 190.56798 
L 110.705009 190.162884 
z
" clip-path="url(#pb1f706af14)" style="fill: #ff0000"/>
   </g>
   <g id="patch_8">
    <path d="M 130.374768 189.812266 
Q 128.391041 189.987575 126.257432 190.07563 
Q 124.123823 190.162884 121.849149 190.162884 
Q 116.709091 190.162884 113.70705 189.640959 
Q 110.705009 189.119034 110.705009 188.226477 
Q 110.705009 187.323514 113.759949 186.805592 
Q 116.819298 186.287669 122.140095 186.287669 
Q 124.189947 186.287669 126.067876 186.358113 
Q 127.950212 186.427756 129.616543 186.565442 
L 129.616543 187.337923 
Q 127.897313 187.161013 126.195716 187.073759 
Q 124.494119 186.985704 122.783705 186.985704 
Q 119.618558 186.985704 117.903735 187.307504 
Q 116.188913 187.628505 116.188913 188.226477 
Q 116.188913 188.818847 117.842019 189.142248 
Q 119.495126 189.464849 122.536841 189.464849 
Q 123.365598 189.464849 124.075332 189.446438 
Q 124.785065 189.427226 125.349325 189.387201 
L 125.349325 188.661949 
L 122.109237 188.661949 
L 122.109237 188.015946 
L 130.374768 188.015946 
L 130.374768 189.812266 
z
" clip-path="url(#pb1f706af14)" style="fill: #ffa600"/>
   </g>
   <g id="patch_9">
    <path d="M 130.374768 185.783233 
Q 128.729427 186.03327 126.950277 186.159743 
Q 125.171128 186.287669 123.233392 186.287669 
Q 117.454874 186.287669 114.079941 185.339852 
Q 110.705009 184.392036 110.705009 182.771153 
Q 110.705009 181.144456 114.079941 180.198093 
Q 117.454874 179.250277 123.233392 179.250277 
Q 125.171128 179.250277 126.950277 179.378203 
Q 128.729427 179.504676 130.374768 179.754713 
L 130.374768 181.157539 
Q 128.714559 180.826094 127.103909 180.672002 
Q 125.493258 180.517909 123.714109 180.517909 
Q 120.522543 180.517909 118.693835 181.118289 
Q 116.870084 181.717216 116.870084 182.771153 
Q 116.870084 183.820729 118.693835 184.42111 
Q 120.522543 185.020037 123.714109 185.020037 
Q 125.493258 185.020037 127.103909 184.865944 
Q 128.714559 184.710397 130.374768 184.378952 
L 130.374768 185.783233 
z
" clip-path="url(#pb1f706af14)" style="fill: #0000ff"/>
   </g>
   <g id="patch_10">
    <path d="M 124.330268 177.414823 
L 116.765595 177.414823 
L 115.571173 179.250277 
L 110.705009 179.250277 
L 117.654374 169.174716 
L 123.425403 169.174716 
L 130.374768 179.250277 
L 125.512626 179.250277 
L 124.330268 177.414823 
z
M 117.972082 175.54482 
L 123.111717 175.54482 
L 120.545921 171.537053 
L 117.972082 175.54482 
z
" clip-path="url(#pb1f706af14)" style="fill: #008000"/>
   </g>
   <g id="patch_11">
    <path d="M 151.079777 191.876616 
Q 149.09605 192.058308 146.962441 192.149569 
Q 144.828832 192.24 142.554158 192.24 
Q 137.4141 192.24 134.412059 191.699072 
Q 131.410019 191.158143 131.410019 190.233089 
Q 131.410019 189.29725 134.464959 188.76047 
Q 137.524307 188.22369 142.845105 188.22369 
Q 144.894956 188.22369 146.772885 188.296698 
Q 148.655222 188.368877 150.321553 188.511576 
L 150.321553 189.312184 
Q 148.602322 189.128832 146.900725 189.038401 
Q 145.199128 188.94714 143.488714 188.94714 
Q 140.323567 188.94714 138.608745 189.280657 
Q 136.893923 189.613345 136.893923 190.233089 
Q 136.893923 190.847026 138.547029 191.182203 
Q 140.200135 191.51655 143.24185 191.51655 
Q 144.070607 191.51655 144.780341 191.497468 
Q 145.490075 191.477556 146.054335 191.436074 
L 146.054335 190.684416 
L 142.814247 190.684416 
L 142.814247 190.014893 
L 151.079777 190.014893 
L 151.079777 191.876616 
z
" clip-path="url(#pb1f706af14)" style="fill: #ffa600"/>
   </g>
   <g id="patch_12">
    <path d="M 145.035278 187.263997 
L 137.470605 187.263997 
L 136.276183 188.22369 
L 131.410019 188.22369 
L 138.359383 182.955542 
L 144.130413 182.955542 
L 151.079777 188.22369 
L 146.217635 188.22369 
L 145.035278 187.263997 
z
M 138.677092 186.28624 
L 143.816726 186.28624 
L 141.25093 184.190723 
L 138.677092 186.28624 
z
" clip-path="url(#pb1f706af14)" style="fill: #008000"/>
   </g>
   <g id="patch_13">
    <path d="M 151.079777 182.428373 
Q 149.434436 182.689679 147.655287 182.821851 
Q 145.876137 182.955542 143.938401 182.955542 
Q 138.159883 182.955542 134.784951 181.965011 
Q 131.410019 180.97448 131.410019 179.28055 
Q 131.410019 177.580543 134.784951 176.591531 
Q 138.159883 175.601 143.938401 175.601 
Q 145.876137 175.601 147.655287 175.734691 
Q 149.434436 175.866863 151.079777 176.128169 
L 151.079777 177.594216 
Q 149.419568 177.247834 147.808918 177.086797 
Q 146.198268 176.925759 144.419118 176.925759 
Q 141.227552 176.925759 139.398845 177.553197 
Q 137.575093 178.179116 137.575093 179.28055 
Q 137.575093 180.377426 139.398845 181.004864 
Q 141.227552 181.630783 144.419118 181.630783 
Q 146.198268 181.630783 147.808918 181.469745 
Q 149.419568 181.307189 151.079777 180.960807 
L 151.079777 182.428373 
z
" clip-path="url(#pb1f706af14)" style="fill: #0000ff"/>
   </g>
   <g id="patch_14">
    <path d="M 131.410019 153.433053 
L 151.079777 153.433053 
L 151.079777 157.75642 
L 144.003239 157.75642 
L 144.003239 175.601 
L 138.50028 175.601 
L 138.50028 157.75642 
L 131.410019 157.75642 
L 131.410019 153.433053 
z
" clip-path="url(#pb1f706af14)" style="fill: #ff0000"/>
   </g>
   <g id="patch_15">
    <path d="M 171.784787 192.182065 
Q 169.801059 192.211032 167.66745 192.225582 
Q 165.533841 192.24 163.259167 192.24 
Q 158.119109 192.24 155.117069 192.153758 
Q 152.115028 192.067517 152.115028 191.920033 
Q 152.115028 191.77083 155.169968 191.68525 
Q 158.229316 191.59967 163.550114 191.59967 
Q 165.599966 191.59967 167.477894 191.61131 
Q 169.360231 191.622817 171.026562 191.645568 
L 171.026562 191.773211 
Q 169.307332 191.743979 167.605734 191.729561 
Q 165.904137 191.715011 164.193723 191.715011 
Q 161.028576 191.715011 159.313754 191.768185 
Q 157.598932 191.821226 157.598932 191.920033 
Q 157.598932 192.017915 159.252038 192.071353 
Q 160.905144 192.124659 163.946859 192.124659 
Q 164.775617 192.124659 165.48535 192.121616 
Q 166.195084 192.118442 166.759344 192.111828 
L 166.759344 191.991989 
L 163.519256 191.991989 
L 163.519256 191.885246 
L 171.784787 191.885246 
L 171.784787 192.182065 
z
" clip-path="url(#pb1f706af14)" style="fill: #ffa600"/>
   </g>
   <g id="patch_16">
    <path d="M 165.740287 191.476737 
L 158.175614 191.476737 
L 156.981192 191.59967 
L 152.115028 191.59967 
L 159.064393 190.924844 
L 164.835422 190.924844 
L 171.784787 191.59967 
L 166.922644 191.59967 
L 165.740287 191.476737 
z
M 159.382101 191.351491 
L 164.521735 191.351491 
L 161.95594 191.083065 
L 159.382101 191.351491 
z
" clip-path="url(#pb1f706af14)" style="fill: #008000"/>
   </g>
   <g id="patch_17">
    <path d="M 152.115028 190.086162 
L 171.784787 190.086162 
L 171.784787 190.249728 
L 164.708248 190.249728 
L 164.708248 190.924844 
L 159.20529 190.924844 
L 159.20529 190.249728 
L 152.115028 190.249728 
L 152.115028 190.086162 
z
" clip-path="url(#pb1f706af14)" style="fill: #ff0000"/>
   </g>
   <g id="patch_18">
    <path d="M 171.784787 190.010592 
Q 170.139445 190.04805 168.360296 190.066997 
Q 166.581147 190.086162 164.64341 190.086162 
Q 158.864892 190.086162 155.48996 189.944168 
Q 152.115028 189.802175 152.115028 189.559348 
Q 152.115028 189.31565 155.48996 189.173874 
Q 158.864892 189.031881 164.64341 189.031881 
Q 166.581147 189.031881 168.360296 189.051046 
Q 170.139445 189.069993 171.784787 189.107451 
L 171.784787 189.31761 
Q 170.124578 189.267956 168.513927 189.244871 
Q 166.903277 189.221786 165.124128 189.221786 
Q 161.932562 189.221786 160.103854 189.31173 
Q 158.280102 189.401456 158.280102 189.559348 
Q 158.280102 189.716586 160.103854 189.80653 
Q 161.932562 189.896256 165.124128 189.896256 
Q 166.903277 189.896256 168.513927 189.873171 
Q 170.124578 189.849869 171.784787 189.800215 
L 171.784787 190.010592 
z
" clip-path="url(#pb1f706af14)" style="fill: #0000ff"/>
   </g>
   <g id="patch_19">
    <path d="M 192.489796 191.910065 
Q 190.844455 192.073606 189.065305 192.156328 
Q 187.286156 192.24 185.34842 192.24 
Q 179.569901 192.24 176.194969 191.620064 
Q 172.820037 191.000127 172.820037 189.93996 
Q 172.820037 188.875989 176.194969 188.257003 
Q 179.569901 187.637067 185.34842 187.637067 
Q 187.286156 187.637067 189.065305 187.720739 
Q 190.844455 187.803461 192.489796 187.967003 
L 192.489796 188.884547 
Q 190.829587 188.667759 189.218937 188.566972 
Q 187.608286 188.466184 185.829137 188.466184 
Q 182.637571 188.466184 180.808863 188.858874 
Q 178.985111 189.250613 178.985111 189.93996 
Q 178.985111 190.626454 180.808863 191.019144 
Q 182.637571 191.410883 185.829137 191.410883 
Q 187.608286 191.410883 189.218937 191.310095 
Q 190.829587 191.208357 192.489796 190.99157 
L 192.489796 191.910065 
z
" clip-path="url(#pb1f706af14)" style="fill: #0000ff"/>
   </g>
   <g id="patch_20">
    <path d="M 192.489796 187.00059 
Q 190.506069 187.318828 188.37246 187.478674 
Q 186.238851 187.637067 183.964177 187.637067 
Q 178.824119 187.637067 175.822078 186.689617 
Q 172.820037 185.742167 172.820037 184.121911 
Q 172.820037 182.482765 175.874977 181.54258 
Q 178.934326 180.602396 184.255123 180.602396 
Q 186.304975 180.602396 188.182903 180.730273 
Q 190.06524 180.856696 191.731571 181.106637 
L 191.731571 182.508921 
Q 190.012341 182.187776 188.310744 182.029384 
Q 186.609146 181.869538 184.898733 181.869538 
Q 181.733585 181.869538 180.018763 182.453702 
Q 178.303941 183.036412 178.303941 184.121911 
Q 178.303941 185.197238 179.957047 185.784308 
Q 181.610153 186.369925 184.651869 186.369925 
Q 185.480626 186.369925 186.190359 186.336503 
Q 186.900093 186.301628 187.464353 186.22897 
L 187.464353 184.912422 
L 184.224265 184.912422 
L 184.224265 183.739734 
L 192.489796 183.739734 
L 192.489796 187.00059 
z
" clip-path="url(#pb1f706af14)" style="fill: #ffa600"/>
   </g>
   <g id="patch_21">
    <path d="M 172.820037 173.567725 
L 192.489796 173.567725 
L 192.489796 174.939682 
L 185.413257 174.939682 
L 185.413257 180.602396 
L 179.910299 180.602396 
L 179.910299 174.939682 
L 172.820037 174.939682 
L 172.820037 173.567725 
z
" clip-path="url(#pb1f706af14)" style="fill: #ff0000"/>
   </g>
   <g id="patch_22">
    <path d="M 186.445296 153.427636 
L 178.880623 153.427636 
L 177.686201 173.567725 
L 172.820037 173.567725 
L 179.769402 63.010486 
L 185.540431 63.010486 
L 192.489796 173.567725 
L 187.627654 173.567725 
L 186.445296 153.427636 
z
M 180.08711 132.90844 
L 185.226745 132.90844 
L 182.660949 88.931965 
L 180.08711 132.90844 
z
" clip-path="url(#pb1f706af14)" style="fill: #008000"/>
   </g>
   <g id="patch_23">
    <path d="M 213.194805 191.830494 
Q 211.211078 192.035247 209.077469 192.138091 
Q 206.94386 192.24 204.669186 192.24 
Q 199.529128 192.24 196.527087 191.630415 
Q 193.525046 191.02083 193.525046 189.978365 
Q 193.525046 188.923746 196.579987 188.318836 
Q 199.639335 187.713926 204.960133 187.713926 
Q 207.009984 187.713926 208.887913 187.796201 
Q 210.77025 187.877541 212.436581 188.038352 
L 212.436581 188.940575 
Q 210.71735 188.733952 209.015753 188.632043 
Q 207.314156 188.529199 205.603742 188.529199 
Q 202.438595 188.529199 200.723773 188.905047 
Q 199.00895 189.27996 199.00895 189.978365 
Q 199.00895 190.670225 200.662057 191.047944 
Q 202.315163 191.424727 205.356878 191.424727 
Q 206.185635 191.424727 206.895369 191.403223 
Q 207.605102 191.380784 208.169363 191.334037 
L 208.169363 190.486976 
L 204.929275 190.486976 
L 204.929275 189.732474 
L 213.194805 189.732474 
L 213.194805 191.830494 
z
" clip-path="url(#pb1f706af14)" style="fill: #ffa600"/>
   </g>
   <g id="patch_24">
    <path d="M 213.194805 187.218998 
Q 211.549464 187.464322 209.770315 187.588411 
Q 207.991165 187.713926 206.053429 187.713926 
Q 200.274911 187.713926 196.899979 186.783975 
Q 193.525046 185.854024 193.525046 184.263694 
Q 193.525046 182.66766 196.899979 181.739135 
Q 200.274911 180.809184 206.053429 180.809184 
Q 207.991165 180.809184 209.770315 180.934699 
Q 211.549464 181.058788 213.194805 181.304112 
L 213.194805 182.680496 
Q 211.534596 182.355299 209.923946 182.20411 
Q 208.313295 182.052922 206.534146 182.052922 
Q 203.34258 182.052922 201.513873 182.641986 
Q 199.690121 183.229624 199.690121 184.263694 
Q 199.690121 185.293487 201.513873 185.88255 
Q 203.34258 186.470188 206.534146 186.470188 
Q 208.313295 186.470188 209.923946 186.319 
Q 211.534596 186.166385 213.194805 185.841188 
L 213.194805 187.218998 
z
" clip-path="url(#pb1f706af14)" style="fill: #0000ff"/>
   </g>
   <g id="patch_25">
    <path d="M 207.150306 179.479136 
L 199.585632 179.479136 
L 198.39121 180.809184 
L 193.525046 180.809184 
L 200.474411 173.507999 
L 206.24544 173.507999 
L 213.194805 180.809184 
L 208.332663 180.809184 
L 207.150306 179.479136 
z
M 200.792119 178.124051 
L 205.931754 178.124051 
L 203.365958 175.21985 
L 200.792119 178.124051 
z
" clip-path="url(#pb1f706af14)" style="fill: #008000"/>
   </g>
   <g id="patch_26">
    <path d="M 193.525046 143.080886 
L 213.194805 143.080886 
L 213.194805 149.01502 
L 206.118266 149.01502 
L 206.118266 173.507999 
L 200.615308 173.507999 
L 200.615308 149.01502 
L 193.525046 149.01502 
L 193.525046 143.080886 
z
" clip-path="url(#pb1f706af14)" style="fill: #ff0000"/>
   </g>
   <g id="patch_27">
    <path d="M 233.899814 192.107885 
Q 232.254473 192.173371 230.475324 192.206495 
Q 228.696175 192.24 226.758438 192.24 
Q 220.97992 192.24 217.604988 191.991761 
Q 214.230056 191.743522 214.230056 191.319003 
Q 214.230056 190.89296 217.604988 190.645102 
Q 220.97992 190.396863 226.758438 190.396863 
Q 228.696175 190.396863 230.475324 190.430368 
Q 232.254473 190.463492 233.899814 190.528978 
L 233.899814 190.896387 
Q 232.239606 190.809579 230.628955 190.769222 
Q 229.018305 190.728864 227.239155 190.728864 
Q 224.04759 190.728864 222.218882 190.886107 
Q 220.39513 191.04297 220.39513 191.319003 
Q 220.39513 191.593893 222.218882 191.751137 
Q 224.04759 191.907999 227.239155 191.907999 
Q 229.018305 191.907999 230.628955 191.867641 
Q 232.239606 191.826903 233.899814 191.740095 
L 233.899814 192.107885 
z
" clip-path="url(#pb1f706af14)" style="fill: #0000ff"/>
   </g>
   <g id="patch_28">
    <path d="M 233.899814 190.031641 
Q 231.916087 190.214252 229.782478 190.305974 
Q 227.648869 190.396863 225.374195 190.396863 
Q 220.234137 190.396863 217.232096 189.853199 
Q 214.230056 189.309535 214.230056 188.379803 
Q 214.230056 187.43923 217.284996 186.899735 
Q 220.344344 186.360241 225.665142 186.360241 
Q 227.714993 186.360241 229.592922 186.433619 
Q 231.475259 186.506163 233.14159 186.649583 
L 233.14159 187.454239 
Q 231.422359 187.269961 229.720762 187.179072 
Q 228.019165 187.08735 226.308751 187.08735 
Q 223.143604 187.08735 221.428782 187.422554 
Q 219.71396 187.756924 219.71396 188.379803 
Q 219.71396 188.996845 221.367066 189.333716 
Q 223.020172 189.669754 226.061887 189.669754 
Q 226.890644 189.669754 227.600378 189.650576 
Q 228.310112 189.630563 228.874372 189.588871 
L 228.874372 188.833412 
L 225.634284 188.833412 
L 225.634284 188.160502 
L 233.899814 188.160502 
L 233.899814 190.031641 
z
" clip-path="url(#pb1f706af14)" style="fill: #ffa600"/>
   </g>
   <g id="patch_29">
    <path d="M 227.855315 184.992218 
L 220.290642 184.992218 
L 219.09622 186.360241 
L 214.230056 186.360241 
L 221.17942 178.8506 
L 226.95045 178.8506 
L 233.899814 186.360241 
L 229.037672 186.360241 
L 227.855315 184.992218 
z
M 221.497129 183.598444 
L 226.636763 183.598444 
L 224.070967 180.611326 
L 221.497129 183.598444 
z
" clip-path="url(#pb1f706af14)" style="fill: #008000"/>
   </g>
   <g id="patch_30">
    <path d="M 214.230056 169.573984 
L 233.899814 169.573984 
L 233.899814 171.383183 
L 226.823276 171.383183 
L 226.823276 178.8506 
L 221.320318 178.8506 
L 221.320318 171.383183 
L 214.230056 171.383183 
L 214.230056 169.573984 
z
" clip-path="url(#pb1f706af14)" style="fill: #ff0000"/>
   </g>
   <g id="patch_31">
    <path d="M 248.560324 191.192591 
L 240.995651 191.192591 
L 239.801229 192.24 
L 234.935065 192.24 
L 241.88443 186.49034 
L 247.655459 186.49034 
L 254.604824 192.24 
L 249.742681 192.24 
L 248.560324 191.192591 
z
M 242.202138 190.125466 
L 247.341772 190.125466 
L 244.775977 187.838417 
L 242.202138 190.125466 
z
" clip-path="url(#pb1f706af14)" style="fill: #008000"/>
   </g>
   <g id="patch_32">
    <path d="M 254.604824 185.887988 
Q 252.621096 186.189164 250.487487 186.34044 
Q 248.353878 186.49034 246.079204 186.49034 
Q 240.939146 186.49034 237.937106 185.593688 
Q 234.935065 184.697037 234.935065 183.163652 
Q 234.935065 181.61239 237.990005 180.722614 
Q 241.049353 179.832839 246.370151 179.832839 
Q 248.420003 179.832839 250.297931 179.953859 
Q 252.180268 180.073505 253.846599 180.310045 
L 253.846599 181.637144 
Q 252.127369 181.333218 250.425771 181.183317 
Q 248.724174 181.032042 247.01376 181.032042 
Q 243.848613 181.032042 242.133791 181.584885 
Q 240.418969 182.136354 240.418969 183.163652 
Q 240.418969 184.181324 242.072075 184.736918 
Q 243.725181 185.291137 246.766897 185.291137 
Q 247.595654 185.291137 248.305387 185.259507 
Q 249.015121 185.226501 249.579381 185.15774 
L 249.579381 183.911779 
L 246.339293 183.911779 
L 246.339293 182.801966 
L 254.604824 182.801966 
L 254.604824 185.887988 
z
" clip-path="url(#pb1f706af14)" style="fill: #ffa600"/>
   </g>
   <g id="patch_33">
    <path d="M 254.604824 179.247177 
Q 252.959482 179.537476 251.180333 179.684314 
Q 249.401184 179.832839 247.463447 179.832839 
Q 241.684929 179.832839 238.309997 178.732403 
Q 234.935065 177.631967 234.935065 175.750086 
Q 234.935065 173.861454 238.309997 172.762706 
Q 241.684929 171.662269 247.463447 171.662269 
Q 249.401184 171.662269 251.180333 171.810795 
Q 252.959482 171.957632 254.604824 172.247931 
L 254.604824 173.876644 
Q 252.944615 173.491829 251.333964 173.312924 
Q 249.723314 173.134018 247.944165 173.134018 
Q 244.752599 173.134018 242.923891 173.831074 
Q 241.100139 174.526441 241.100139 175.750086 
Q 241.100139 176.968667 242.923891 177.665722 
Q 244.752599 178.36109 247.944165 178.36109 
Q 249.723314 178.36109 251.333964 178.182185 
Q 252.944615 178.001592 254.604824 177.616777 
L 254.604824 179.247177 
z
" clip-path="url(#pb1f706af14)" style="fill: #0000ff"/>
   </g>
   <g id="patch_34">
    <path d="M 234.935065 79.667709 
L 254.604824 79.667709 
L 254.604824 97.609211 
L 247.528285 97.609211 
L 247.528285 171.662269 
L 242.025327 171.662269 
L 242.025327 97.609211 
L 234.935065 97.609211 
L 234.935065 79.667709 
z
" clip-path="url(#pb1f706af14)" style="fill: #ff0000"/>
   </g>
   <g id="patch_35">
    <path d="M 275.309833 191.987923 
Q 273.664492 192.112872 271.885342 192.176073 
Q 270.106193 192.24 268.168457 192.24 
Q 262.389939 192.24 259.015006 191.766357 
Q 255.640074 191.292714 255.640074 190.482726 
Q 255.640074 189.669833 259.015006 189.196916 
Q 262.389939 188.723273 268.168457 188.723273 
Q 270.106193 188.723273 271.885342 188.7872 
Q 273.664492 188.850401 275.309833 188.97535 
L 275.309833 189.676371 
Q 273.649624 189.510741 272.038974 189.433738 
Q 270.428323 189.356734 268.649174 189.356734 
Q 265.457608 189.356734 263.6289 189.656757 
Q 261.805149 189.956053 261.805149 190.482726 
Q 261.805149 191.00722 263.6289 191.307243 
Q 265.457608 191.606539 268.649174 191.606539 
Q 270.428323 191.606539 272.038974 191.529535 
Q 273.649624 191.451806 275.309833 191.286176 
L 275.309833 191.987923 
z
" clip-path="url(#pb1f706af14)" style="fill: #0000ff"/>
   </g>
   <g id="patch_36">
    <path d="M 275.309833 188.282711 
Q 273.326106 188.502992 271.192497 188.613635 
Q 269.058888 188.723273 266.784214 188.723273 
Q 261.644156 188.723273 258.642115 188.06746 
Q 255.640074 187.411646 255.640074 186.290125 
Q 255.640074 185.155527 258.695014 184.504743 
Q 261.754363 183.853959 267.07516 183.853959 
Q 269.125012 183.853959 271.002941 183.942473 
Q 272.885277 184.029982 274.551608 184.202988 
L 274.551608 185.173632 
Q 272.832378 184.95134 271.130781 184.841702 
Q 269.429183 184.731059 267.71877 184.731059 
Q 264.553622 184.731059 262.8388 185.13541 
Q 261.123978 185.538755 261.123978 186.290125 
Q 261.123978 187.034453 262.777084 187.440816 
Q 264.430191 187.846173 267.471906 187.846173 
Q 268.300663 187.846173 269.010397 187.823038 
Q 269.72013 187.798898 270.28439 187.748605 
L 270.28439 186.837306 
L 267.044302 186.837306 
L 267.044302 186.025586 
L 275.309833 186.025586 
L 275.309833 188.282711 
z
" clip-path="url(#pb1f706af14)" style="fill: #ffa600"/>
   </g>
   <g id="patch_37">
    <path d="M 255.640074 176.910677 
L 275.309833 176.910677 
L 275.309833 178.26481 
L 268.233294 178.26481 
L 268.233294 183.853959 
L 262.730336 183.853959 
L 262.730336 178.26481 
L 255.640074 178.26481 
L 255.640074 176.910677 
z
" clip-path="url(#pb1f706af14)" style="fill: #ff0000"/>
   </g>
   <g id="patch_38">
    <path d="M 269.265333 173.5925 
L 261.70066 173.5925 
L 260.506238 176.910677 
L 255.640074 176.910677 
L 262.589439 158.695835 
L 268.360468 158.695835 
L 275.309833 176.910677 
L 270.447691 176.910677 
L 269.265333 173.5925 
z
M 262.907147 170.211862 
L 268.046782 170.211862 
L 265.480986 162.966524 
L 262.907147 170.211862 
z
" clip-path="url(#pb1f706af14)" style="fill: #008000"/>
   </g>
   <g id="patch_39">
    <path d="M 296.014842 191.961196 
Q 294.369501 192.099393 292.590352 192.169295 
Q 290.811202 192.24 288.873466 192.24 
Q 283.094948 192.24 279.720016 191.716138 
Q 276.345083 191.192276 276.345083 190.296407 
Q 276.345083 189.397325 279.720016 188.874266 
Q 283.094948 188.350404 288.873466 188.350404 
Q 290.811202 188.350404 292.590352 188.421109 
Q 294.369501 188.491011 296.014842 188.629208 
L 296.014842 189.404556 
Q 294.354633 189.221365 292.743983 189.136197 
Q 291.133332 189.051029 289.354183 189.051029 
Q 286.162617 189.051029 284.33391 189.382862 
Q 282.510158 189.713892 282.510158 190.296407 
Q 282.510158 190.876512 284.33391 191.208345 
Q 286.162617 191.539375 289.354183 191.539375 
Q 291.133332 191.539375 292.743983 191.454207 
Q 294.354633 191.368236 296.014842 191.185045 
L 296.014842 191.961196 
z
" clip-path="url(#pb1f706af14)" style="fill: #0000ff"/>
   </g>
   <g id="patch_40">
    <path d="M 296.014842 187.900729 
Q 294.031115 188.125567 291.897506 188.238499 
Q 289.763897 188.350404 287.489223 188.350404 
Q 282.349165 188.350404 279.347124 187.681025 
Q 276.345083 187.011645 276.345083 185.866924 
Q 276.345083 184.708857 279.400024 184.044611 
Q 282.459372 183.380365 287.78017 183.380365 
Q 289.830021 183.380365 291.70795 183.47071 
Q 293.590287 183.56003 295.256618 183.736614 
L 295.256618 184.727337 
Q 293.537387 184.500446 291.83579 184.38854 
Q 290.134193 184.275608 288.423779 184.275608 
Q 285.258632 184.275608 283.54381 184.688324 
Q 281.828988 185.100013 281.828988 185.866924 
Q 281.828988 186.626649 283.482094 187.041418 
Q 285.1352 187.45516 288.176915 187.45516 
Q 289.005672 187.45516 289.715406 187.431547 
Q 290.425139 187.406908 290.9894 187.355575 
L 290.9894 186.425425 
L 287.749312 186.425425 
L 287.749312 185.596914 
L 296.014842 185.596914 
L 296.014842 187.900729 
z
" clip-path="url(#pb1f706af14)" style="fill: #ffa600"/>
   </g>
   <g id="patch_41">
    <path d="M 276.345083 168.470247 
L 296.014842 168.470247 
L 296.014842 171.378135 
L 288.938303 171.378135 
L 288.938303 183.380365 
L 283.435345 183.380365 
L 283.435345 171.378135 
L 276.345083 171.378135 
L 276.345083 168.470247 
z
" clip-path="url(#pb1f706af14)" style="fill: #ff0000"/>
   </g>
   <g id="patch_42">
    <path d="M 289.970343 158.156714 
L 282.40567 158.156714 
L 281.211247 168.470247 
L 276.345083 168.470247 
L 283.294448 111.855017 
L 289.065478 111.855017 
L 296.014842 168.470247 
L 291.1527 168.470247 
L 289.970343 158.156714 
z
M 283.612157 147.649044 
L 288.751791 147.649044 
L 286.185995 125.129141 
L 283.612157 147.649044 
z
" clip-path="url(#pb1f706af14)" style="fill: #008000"/>
   </g>
   <g id="patch_43">
    <path d="M 316.719852 191.964836 
Q 314.736124 192.102418 312.602515 192.171523 
Q 310.468906 192.24 308.194232 192.24 
Q 303.054174 192.24 300.052133 191.830395 
Q 297.050093 191.42079 297.050093 190.720315 
Q 297.050093 190.011673 300.105033 189.605209 
Q 303.164381 189.198746 308.485179 189.198746 
Q 310.535031 189.198746 312.412959 189.25403 
Q 314.295296 189.308686 315.961627 189.416741 
L 315.961627 190.022981 
Q 314.242397 189.884143 312.540799 189.815666 
Q 310.839202 189.746561 309.128788 189.746561 
Q 305.963641 189.746561 304.248819 189.999109 
Q 302.533997 190.251028 302.533997 190.720315 
Q 302.533997 191.185204 304.187103 191.439009 
Q 305.840209 191.692185 308.881924 191.692185 
Q 309.710682 191.692185 310.420415 191.677735 
Q 311.130149 191.662658 311.694409 191.631247 
L 311.694409 191.062071 
L 308.454321 191.062071 
L 308.454321 190.555091 
L 316.719852 190.555091 
L 316.719852 191.964836 
z
" clip-path="url(#pb1f706af14)" style="fill: #ffa600"/>
   </g>
   <g id="patch_44">
    <path d="M 310.675352 187.457534 
L 303.110679 187.457534 
L 301.916257 189.198746 
L 297.050093 189.198746 
L 303.999458 179.640518 
L 309.770487 179.640518 
L 316.719852 189.198746 
L 311.857709 189.198746 
L 310.675352 187.457534 
z
M 304.317166 185.683546 
L 309.4568 185.683546 
L 306.891005 181.881559 
L 304.317166 185.683546 
z
" clip-path="url(#pb1f706af14)" style="fill: #008000"/>
   </g>
   <g id="patch_45">
    <path d="M 316.719852 178.908676 
Q 315.07451 179.271433 313.295361 179.454921 
Q 311.516212 179.640518 309.578475 179.640518 
Q 303.799957 179.640518 300.425025 178.265415 
Q 297.050093 176.890312 297.050093 174.538718 
Q 297.050093 172.178688 300.425025 170.805695 
Q 303.799957 169.430592 309.578475 169.430592 
Q 311.516212 169.430592 313.295361 169.616189 
Q 315.07451 169.799676 316.719852 170.162434 
L 316.719852 172.19767 
Q 315.059643 171.716806 313.448992 171.493246 
Q 311.838342 171.269686 310.059193 171.269686 
Q 306.867627 171.269686 305.038919 172.140725 
Q 303.215167 173.009655 303.215167 174.538718 
Q 303.215167 176.061455 305.038919 176.932494 
Q 306.867627 177.801423 310.059193 177.801423 
Q 311.838342 177.801423 313.448992 177.577864 
Q 315.059643 177.352195 316.719852 176.871331 
L 316.719852 178.908676 
z
" clip-path="url(#pb1f706af14)" style="fill: #0000ff"/>
   </g>
   <g id="patch_46">
    <path d="M 297.050093 111.429526 
L 316.719852 111.429526 
L 316.719852 122.74135 
L 309.643313 122.74135 
L 309.643313 169.430592 
L 304.140355 169.430592 
L 304.140355 122.74135 
L 297.050093 122.74135 
L 297.050093 111.429526 
z
" clip-path="url(#pb1f706af14)" style="fill: #ff0000"/>
   </g>
   <g id="patch_47">
    <path d="M 331.380361 191.582828 
L 323.815688 191.582828 
L 322.621266 192.24 
L 317.755102 192.24 
L 324.704467 188.632511 
L 330.475496 188.632511 
L 337.424861 192.24 
L 332.562718 192.24 
L 331.380361 191.582828 
z
M 325.022175 190.913285 
L 330.161809 190.913285 
L 327.596014 189.47833 
L 325.022175 190.913285 
z
" clip-path="url(#pb1f706af14)" style="fill: #008000"/>
   </g>
   <g id="patch_48">
    <path d="M 337.424861 188.061319 
Q 335.441133 188.346915 333.307525 188.490365 
Q 331.173916 188.632511 328.899242 188.632511 
Q 323.759184 188.632511 320.757143 187.782243 
Q 317.755102 186.931975 317.755102 185.477914 
Q 317.755102 184.006898 320.810042 183.163151 
Q 323.869391 182.319404 329.190188 182.319404 
Q 331.24004 182.319404 333.117968 182.434164 
Q 335.000305 182.54762 336.666636 182.771924 
L 336.666636 184.030372 
Q 334.947406 183.742168 333.245809 183.600022 
Q 331.544211 183.456572 329.833798 183.456572 
Q 326.66865 183.456572 324.953828 183.980817 
Q 323.239006 184.503757 323.239006 185.477914 
Q 323.239006 186.442941 324.892112 186.969794 
Q 326.545218 187.495343 329.586934 187.495343 
Q 330.415691 187.495343 331.125424 187.465349 
Q 331.835158 187.434051 332.399418 187.368846 
L 332.399418 186.187339 
L 329.15933 186.187339 
L 329.15933 185.134937 
L 337.424861 185.134937 
L 337.424861 188.061319 
z
" clip-path="url(#pb1f706af14)" style="fill: #ffa600"/>
   </g>
   <g id="patch_49">
    <path d="M 337.424861 181.663712 
Q 335.779519 181.988724 334.00037 182.153119 
Q 332.221221 182.319404 330.283485 182.319404 
Q 324.504966 182.319404 321.130034 181.087384 
Q 317.755102 179.855363 317.755102 177.748457 
Q 317.755102 175.633993 321.130034 174.403862 
Q 324.504966 173.171842 330.283485 173.171842 
Q 332.221221 173.171842 334.00037 173.338127 
Q 335.779519 173.502522 337.424861 173.827534 
L 337.424861 175.650999 
Q 335.764652 175.22017 334.154001 175.019872 
Q 332.543351 174.819575 330.764202 174.819575 
Q 327.572636 174.819575 325.743928 175.59998 
Q 323.920176 176.378496 323.920176 177.748457 
Q 323.920176 179.11275 325.743928 179.893155 
Q 327.572636 180.671671 330.764202 180.671671 
Q 332.543351 180.671671 334.154001 180.471374 
Q 335.764652 180.269186 337.424861 179.838357 
L 337.424861 181.663712 
z
" clip-path="url(#pb1f706af14)" style="fill: #0000ff"/>
   </g>
   <g id="patch_50">
    <path d="M 317.755102 144.311927 
L 337.424861 144.311927 
L 337.424861 149.940414 
L 330.348322 149.940414 
L 330.348322 173.171842 
L 324.845364 173.171842 
L 324.845364 149.940414 
L 317.755102 149.940414 
L 317.755102 144.311927 
z
" clip-path="url(#pb1f706af14)" style="fill: #ff0000"/>
   </g>
   <g id="patch_51">
    <path d="M 338.460111 189.486025 
L 358.12987 189.486025 
L 358.12987 190.023127 
L 351.053331 190.023127 
L 351.053331 192.24 
L 345.550373 192.24 
L 345.550373 190.023127 
L 338.460111 190.023127 
L 338.460111 189.486025 
z
" clip-path="url(#pb1f706af14)" style="fill: #ff0000"/>
   </g>
   <g id="patch_52">
    <path d="M 358.12987 188.788343 
Q 356.146143 189.137184 354.012534 189.312401 
Q 351.878925 189.486025 349.604251 189.486025 
Q 344.464193 189.486025 341.462152 188.447467 
Q 338.460111 187.40891 338.460111 185.632849 
Q 338.460111 183.836081 341.515051 182.805487 
Q 344.5744 181.774894 349.895197 181.774894 
Q 351.945049 181.774894 353.822978 181.915068 
Q 355.705314 182.053648 357.371645 182.327623 
L 357.371645 183.864752 
Q 355.652415 183.512726 353.950818 183.339102 
Q 352.249221 183.163885 350.538807 183.163885 
Q 347.37366 183.163885 345.658837 183.804223 
Q 343.944015 184.442968 343.944015 185.632849 
Q 343.944015 186.81158 345.597122 187.455103 
Q 347.250228 188.097034 350.291943 188.097034 
Q 351.1207 188.097034 351.830434 188.060397 
Q 352.540167 188.022168 353.104427 187.942524 
L 353.104427 186.499375 
L 349.864339 186.499375 
L 349.864339 185.213921 
L 358.12987 185.213921 
L 358.12987 188.788343 
z
" clip-path="url(#pb1f706af14)" style="fill: #ffa600"/>
   </g>
   <g id="patch_53">
    <path d="M 358.12987 180.90632 
Q 356.484529 181.336852 354.705379 181.554622 
Q 352.92623 181.774894 350.988494 181.774894 
Q 345.209976 181.774894 341.835043 180.142875 
Q 338.460111 178.510856 338.460111 175.719903 
Q 338.460111 172.918938 341.835043 171.289422 
Q 345.209976 169.657403 350.988494 169.657403 
Q 352.92623 169.657403 354.705379 169.877676 
Q 356.484529 170.095445 358.12987 170.525978 
L 358.12987 172.941466 
Q 356.469661 172.37076 354.859011 172.105432 
Q 353.24836 171.840104 351.469211 171.840104 
Q 348.277645 171.840104 346.448938 172.873883 
Q 344.625186 173.905158 344.625186 175.719903 
Q 344.625186 177.527139 346.448938 178.560918 
Q 348.277645 179.592194 351.469211 179.592194 
Q 353.24836 179.592194 354.859011 179.326866 
Q 356.469661 179.059034 358.12987 178.488328 
L 358.12987 180.90632 
z
" clip-path="url(#pb1f706af14)" style="fill: #0000ff"/>
   </g>
   <g id="patch_54">
    <path d="M 352.085371 155.108434 
L 344.520697 155.108434 
L 343.326275 169.657403 
L 338.460111 169.657403 
L 345.409476 89.792123 
L 351.180505 89.792123 
L 358.12987 169.657403 
L 353.267728 169.657403 
L 352.085371 155.108434 
z
M 345.727184 140.285603 
L 350.866819 140.285603 
L 348.301023 108.517501 
L 345.727184 140.285603 
z
" clip-path="url(#pb1f706af14)" style="fill: #008000"/>
   </g>
   <g id="patch_55">
    <path d="M 359.165121 189.131803 
L 378.834879 189.131803 
L 378.834879 189.737988 
L 371.758341 189.737988 
L 371.758341 192.24 
L 366.255382 192.24 
L 366.255382 189.737988 
L 359.165121 189.737988 
L 359.165121 189.131803 
z
" clip-path="url(#pb1f706af14)" style="fill: #ff0000"/>
   </g>
   <g id="patch_56">
    <path d="M 378.834879 188.611971 
Q 376.851152 188.871887 374.717543 189.002439 
Q 372.583934 189.131803 370.30926 189.131803 
Q 365.169202 189.131803 362.167161 188.357989 
Q 359.165121 187.584174 359.165121 186.260856 
Q 359.165121 184.92211 362.220061 184.154229 
Q 365.279409 183.386349 370.600207 183.386349 
Q 372.650058 183.386349 374.527987 183.49079 
Q 376.410324 183.594045 378.076655 183.79818 
L 378.076655 184.943473 
Q 376.357424 184.681183 374.655827 184.551818 
Q 372.95423 184.421267 371.243816 184.421267 
Q 368.078669 184.421267 366.363847 184.898373 
Q 364.649025 185.374293 364.649025 186.260856 
Q 364.649025 187.139112 366.302131 187.618592 
Q 367.955237 188.096886 370.996952 188.096886 
Q 371.825709 188.096886 372.535443 188.069589 
Q 373.245177 188.041105 373.809437 187.981763 
L 373.809437 186.906493 
L 370.569349 186.906493 
L 370.569349 185.94872 
L 378.834879 185.94872 
L 378.834879 188.611971 
z
" clip-path="url(#pb1f706af14)" style="fill: #ffa600"/>
   </g>
   <g id="patch_57">
    <path d="M 378.834879 182.88 
Q 377.189538 183.130985 375.410389 183.257938 
Q 373.63124 183.386349 371.693503 183.386349 
Q 365.914985 183.386349 362.540053 182.434938 
Q 359.165121 181.483526 359.165121 179.856496 
Q 359.165121 178.223629 362.540053 177.273677 
Q 365.914985 176.322266 371.693503 176.322266 
Q 373.63124 176.322266 375.410389 176.450677 
Q 377.189538 176.577629 378.834879 176.828615 
L 378.834879 178.236762 
Q 377.17467 177.90406 375.56402 177.749383 
Q 373.95337 177.594705 372.17422 177.594705 
Q 368.982655 177.594705 367.153947 178.197363 
Q 365.330195 178.798562 365.330195 179.856496 
Q 365.330195 180.910053 367.153947 181.512711 
Q 368.982655 182.113909 372.17422 182.113909 
Q 373.95337 182.113909 375.56402 181.959232 
Q 377.17467 181.803095 378.834879 181.470393 
L 378.834879 182.88 
z
" clip-path="url(#pb1f706af14)" style="fill: #0000ff"/>
   </g>
   <g id="patch_58">
    <path d="M 372.79038 172.839175 
L 365.225707 172.839175 
L 364.031285 176.322266 
L 359.165121 176.322266 
L 366.114485 157.202147 
L 371.885515 157.202147 
L 378.834879 176.322266 
L 373.972737 176.322266 
L 372.79038 172.839175 
z
M 366.432194 169.29052 
L 371.571828 169.29052 
L 369.006032 161.685089 
L 366.432194 169.29052 
z
" clip-path="url(#pb1f706af14)" style="fill: #008000"/>
   </g>
   <g id="patch_59">
    <path d="M 399.539889 191.813774 
Q 397.894547 192.025044 396.115398 192.131908 
Q 394.336249 192.24 392.398512 192.24 
Q 386.619994 192.24 383.245062 191.439137 
Q 379.87013 190.638273 379.87013 189.268699 
Q 379.87013 187.894211 383.245062 187.094576 
Q 386.619994 186.293713 392.398512 186.293713 
Q 394.336249 186.293713 396.115398 186.401805 
Q 397.894547 186.508669 399.539889 186.719939 
L 399.539889 187.905266 
Q 397.87968 187.62521 396.269029 187.495008 
Q 394.658379 187.364806 392.87923 187.364806 
Q 389.687664 187.364806 387.858956 187.872101 
Q 386.035204 188.378168 386.035204 189.268699 
Q 386.035204 190.155544 387.858956 190.66284 
Q 389.687664 191.168907 392.87923 191.168907 
Q 394.658379 191.168907 396.269029 191.038705 
Q 397.87968 190.907275 399.539889 190.627219 
L 399.539889 191.813774 
z
" clip-path="url(#pb1f706af14)" style="fill: #0000ff"/>
   </g>
   <g id="patch_60">
    <path d="M 399.539889 185.75571 
Q 397.556161 186.024711 395.422552 186.159826 
Q 393.288943 186.293713 391.014269 186.293713 
Q 385.874211 186.293713 382.872171 185.49285 
Q 379.87013 184.691986 379.87013 183.322412 
Q 379.87013 181.936869 382.92507 181.142147 
Q 385.984418 180.347426 391.305216 180.347426 
Q 393.355068 180.347426 395.232996 180.455518 
Q 397.115333 180.562381 398.781664 180.773652 
L 398.781664 181.958979 
Q 397.062434 181.687521 395.360836 181.553634 
Q 393.659239 181.418519 391.948825 181.418519 
Q 388.783678 181.418519 387.068856 181.912303 
Q 385.354034 182.404858 385.354034 183.322412 
Q 385.354034 184.231367 387.00714 184.727608 
Q 388.660246 185.22262 391.701961 185.22262 
Q 392.530719 185.22262 393.240452 185.194368 
Q 393.950186 185.164889 394.514446 185.103473 
L 394.514446 183.990617 
L 391.274358 183.990617 
L 391.274358 182.999364 
L 399.539889 182.999364 
L 399.539889 185.75571 
z
" clip-path="url(#pb1f706af14)" style="fill: #ffa600"/>
   </g>
   <g id="patch_61">
    <path d="M 393.495389 178.57487 
L 385.930716 178.57487 
L 384.736294 180.347426 
L 379.87013 180.347426 
L 386.819495 170.617138 
L 392.590524 170.617138 
L 399.539889 180.347426 
L 394.677746 180.347426 
L 393.495389 178.57487 
z
M 387.137203 176.768949 
L 392.276837 176.768949 
L 389.711042 172.898521 
L 387.137203 176.768949 
z
" clip-path="url(#pb1f706af14)" style="fill: #008000"/>
   </g>
   <g id="patch_62">
    <path d="M 379.87013 91.693691 
L 399.539889 91.693691 
L 399.539889 107.085962 
L 392.46335 107.085962 
L 392.46335 170.617138 
L 386.960392 170.617138 
L 386.960392 107.085962 
L 379.87013 107.085962 
L 379.87013 91.693691 
z
" clip-path="url(#pb1f706af14)" style="fill: #ff0000"/>
   </g>
   <g id="patch_63">
    <path d="M 420.244898 191.998924 
Q 418.261171 192.119462 416.127562 192.180006 
Q 413.993953 192.24 411.719279 192.24 
Q 406.579221 192.24 403.57718 191.881139 
Q 400.575139 191.522277 400.575139 190.90858 
Q 400.575139 190.287727 403.630079 189.931618 
Q 406.689428 189.575508 412.010225 189.575508 
Q 414.060077 189.575508 415.938005 189.623944 
Q 417.820342 189.671829 419.486673 189.766498 
L 419.486673 190.297635 
Q 417.767443 190.175996 416.065846 190.116002 
Q 414.364248 190.055458 412.653835 190.055458 
Q 409.488687 190.055458 407.773865 190.276719 
Q 406.059043 190.49743 406.059043 190.90858 
Q 406.059043 191.315877 407.712149 191.538239 
Q 409.365255 191.76005 412.406971 191.76005 
Q 413.235728 191.76005 413.945462 191.747391 
Q 414.655195 191.734181 415.219455 191.706661 
L 415.219455 191.207998 
L 411.979367 191.207998 
L 411.979367 190.763824 
L 420.244898 190.763824 
L 420.244898 191.998924 
z
" clip-path="url(#pb1f706af14)" style="fill: #ffa600"/>
   </g>
   <g id="patch_64">
    <path d="M 414.200398 188.895966 
L 406.635725 188.895966 
L 405.441303 189.575508 
L 400.575139 189.575508 
L 407.524504 185.84522 
L 413.295533 185.84522 
L 420.244898 189.575508 
L 415.382756 189.575508 
L 414.200398 188.895966 
z
M 407.842212 188.203632 
L 412.981847 188.203632 
L 410.416051 186.719831 
L 407.842212 188.203632 
z
" clip-path="url(#pb1f706af14)" style="fill: #008000"/>
   </g>
   <g id="patch_65">
    <path d="M 420.244898 185.223141 
Q 418.599557 185.531492 416.820407 185.68746 
Q 415.041258 185.84522 413.103522 185.84522 
Q 407.325003 185.84522 403.950071 184.676357 
Q 400.575139 183.507494 400.575139 181.508595 
Q 400.575139 179.502524 403.950071 178.335454 
Q 407.325003 177.166591 413.103522 177.166591 
Q 415.041258 177.166591 416.820407 177.324351 
Q 418.599557 177.480319 420.244898 177.78867 
L 420.244898 179.518659 
Q 418.584689 179.109915 416.974039 178.919885 
Q 415.363388 178.729856 413.584239 178.729856 
Q 410.392673 178.729856 408.563965 179.470255 
Q 406.740213 180.208862 406.740213 181.508595 
Q 406.740213 182.802949 408.563965 183.543349 
Q 410.392673 184.281955 413.584239 184.281955 
Q 415.363388 184.281955 416.974039 184.091926 
Q 418.584689 183.900103 420.244898 183.491359 
L 420.244898 185.223141 
z
" clip-path="url(#pb1f706af14)" style="fill: #0000ff"/>
   </g>
   <g id="patch_66">
    <path d="M 400.575139 163.920261 
L 420.244898 163.920261 
L 420.244898 166.503665 
L 413.168359 166.503665 
L 413.168359 177.166591 
L 407.665401 177.166591 
L 407.665401 166.503665 
L 400.575139 166.503665 
L 400.575139 163.920261 
z
" clip-path="url(#pb1f706af14)" style="fill: #ff0000"/>
   </g>
   <g id="patch_67">
    <path d="M 421.280148 191.345806 
L 440.949907 191.345806 
L 440.949907 191.520199 
L 433.873368 191.520199 
L 433.873368 192.24 
L 428.37041 192.24 
L 428.37041 191.520199 
L 421.280148 191.520199 
L 421.280148 191.345806 
z
" clip-path="url(#pb1f706af14)" style="fill: #ff0000"/>
   </g>
   <g id="patch_68">
    <path d="M 440.949907 190.961235 
Q 439.304566 191.151858 437.525417 191.248278 
Q 435.746267 191.345806 433.808531 191.345806 
Q 428.030013 191.345806 424.655081 190.623211 
Q 421.280148 189.900615 421.280148 188.664888 
Q 421.280148 187.424728 424.655081 186.703241 
Q 428.030013 185.980645 433.808531 185.980645 
Q 435.746267 185.980645 437.525417 186.078173 
Q 439.304566 186.174593 440.949907 186.365217 
L 440.949907 187.434703 
Q 439.289698 187.182016 437.679048 187.064539 
Q 436.068397 186.947061 434.289248 186.947061 
Q 431.097682 186.947061 429.268975 187.404779 
Q 427.445223 187.861389 427.445223 188.664888 
Q 427.445223 189.465063 429.268975 189.922781 
Q 431.097682 190.37939 434.289248 190.37939 
Q 436.068397 190.37939 437.679048 190.261913 
Q 439.289698 190.143328 440.949907 189.890641 
L 440.949907 190.961235 
z
" clip-path="url(#pb1f706af14)" style="fill: #0000ff"/>
   </g>
   <g id="patch_69">
    <path d="M 440.949907 185.414316 
Q 438.96618 185.697481 436.832571 185.839709 
Q 434.698962 185.980645 432.424288 185.980645 
Q 427.28423 185.980645 424.282189 185.137617 
Q 421.280148 184.294589 421.280148 182.852907 
Q 421.280148 181.394417 424.335089 180.557854 
Q 427.394437 179.72129 432.715235 179.72129 
Q 434.765086 179.72129 436.643015 179.835073 
Q 438.525352 179.947563 440.191683 180.169957 
L 440.191683 181.417691 
Q 438.472452 181.13194 436.770855 180.991005 
Q 435.069258 180.848776 433.358844 180.848776 
Q 430.193697 180.848776 428.478875 181.368557 
Q 426.764052 181.887045 426.764052 182.852907 
Q 426.764052 183.809718 428.417159 184.332085 
Q 430.070265 184.85316 433.11198 184.85316 
Q 433.940737 184.85316 434.650471 184.823421 
Q 435.360204 184.792389 435.924465 184.72774 
L 435.924465 183.556293 
L 432.684377 183.556293 
L 432.684377 182.512851 
L 440.949907 182.512851 
L 440.949907 185.414316 
z
" clip-path="url(#pb1f706af14)" style="fill: #ffa600"/>
   </g>
   <g id="patch_70">
    <path d="M 434.905408 151.703481 
L 427.340735 151.703481 
L 426.146312 179.72129 
L 421.280148 179.72129 
L 428.229513 25.92 
L 434.000542 25.92 
L 440.949907 179.72129 
L 436.087765 179.72129 
L 434.905408 151.703481 
z
M 428.547221 123.158278 
L 433.686856 123.158278 
L 431.12106 61.980568 
L 428.547221 123.158278 
z
" clip-path="url(#pb1f706af14)" style="fill: #008000"/>
   </g>
   <g id="patch_71">
    <path d="M 461.654917 192.001352 
Q 459.671189 192.120676 457.53758 192.18061 
Q 455.403971 192.24 453.129297 192.24 
Q 447.989239 192.24 444.987198 191.884753 
Q 441.985158 191.529505 441.985158 190.921989 
Q 441.985158 190.307389 445.040098 189.954866 
Q 448.099446 189.602343 453.420244 189.602343 
Q 455.470095 189.602343 457.348024 189.650291 
Q 459.230361 189.697693 460.896692 189.791409 
L 460.896692 190.317197 
Q 459.177461 190.196783 457.475864 190.137394 
Q 455.774267 190.077459 454.063853 190.077459 
Q 450.898706 190.077459 449.183884 190.296492 
Q 447.469062 190.51498 447.469062 190.921989 
Q 447.469062 191.325184 449.122168 191.545306 
Q 450.775274 191.764884 453.816989 191.764884 
Q 454.645747 191.764884 455.35548 191.752352 
Q 456.065214 191.739276 456.629474 191.712033 
L 456.629474 191.218392 
L 453.389386 191.218392 
L 453.389386 190.778691 
L 461.654917 190.778691 
L 461.654917 192.001352 
z
" clip-path="url(#pb1f706af14)" style="fill: #ffa600"/>
   </g>
   <g id="patch_72">
    <path d="M 441.985158 183.847456 
L 461.654917 183.847456 
L 461.654917 184.969819 
L 454.578378 184.969819 
L 454.578378 189.602343 
L 449.07542 189.602343 
L 449.07542 184.969819 
L 441.985158 184.969819 
L 441.985158 183.847456 
z
" clip-path="url(#pb1f706af14)" style="fill: #ff0000"/>
   </g>
   <g id="patch_73">
    <path d="M 461.654917 182.695874 
Q 460.009575 183.266687 458.230426 183.555412 
Q 456.451277 183.847456 454.51354 183.847456 
Q 448.735022 183.847456 445.36009 181.683677 
Q 441.985158 179.519898 441.985158 175.819571 
Q 441.985158 172.105968 445.36009 169.945508 
Q 448.735022 167.781729 454.51354 167.781729 
Q 456.451277 167.781729 458.230426 168.073773 
Q 460.009575 168.362498 461.654917 168.933311 
L 461.654917 172.135836 
Q 459.994708 171.379178 458.384057 171.027398 
Q 456.773407 170.675618 454.994257 170.675618 
Q 451.802692 170.675618 449.973984 172.046232 
Q 448.150232 173.413528 448.150232 175.819571 
Q 448.150232 178.215657 449.973984 179.586272 
Q 451.802692 180.953568 454.994257 180.953568 
Q 456.773407 180.953568 458.384057 180.601788 
Q 459.994708 180.246689 461.654917 179.49003 
L 461.654917 182.695874 
z
" clip-path="url(#pb1f706af14)" style="fill: #0000ff"/>
   </g>
   <g id="patch_74">
    <path d="M 455.610417 155.987664 
L 448.045744 155.987664 
L 446.851322 167.781729 
L 441.985158 167.781729 
L 448.934522 103.039247 
L 454.705552 103.039247 
L 461.654917 167.781729 
L 456.792774 167.781729 
L 455.610417 155.987664 
z
M 449.252231 143.971592 
L 454.391865 143.971592 
L 451.82607 118.218903 
L 449.252231 143.971592 
z
" clip-path="url(#pb1f706af14)" style="fill: #008000"/>
   </g>
   <g id="patch_75">
    <path d="M 482.359926 192.080009 
Q 480.714584 192.159313 478.935435 192.199426 
Q 477.156286 192.24 475.21855 192.24 
Q 469.440031 192.24 466.065099 191.939383 
Q 462.690167 191.638766 462.690167 191.124673 
Q 462.690167 190.608737 466.065099 190.308581 
Q 469.440031 190.007963 475.21855 190.007963 
Q 477.156286 190.007963 478.935435 190.048538 
Q 480.714584 190.088651 482.359926 190.167954 
L 482.359926 190.612886 
Q 480.699717 190.507763 479.089066 190.458889 
Q 477.478416 190.410016 475.699267 190.410016 
Q 472.507701 190.410016 470.678993 190.600437 
Q 468.855241 190.790398 468.855241 191.124673 
Q 468.855241 191.457565 470.678993 191.647987 
Q 472.507701 191.837948 475.699267 191.837948 
Q 477.478416 191.837948 479.089066 191.789074 
Q 480.699717 191.73974 482.359926 191.634616 
L 482.359926 192.080009 
z
" clip-path="url(#pb1f706af14)" style="fill: #0000ff"/>
   </g>
   <g id="patch_76">
    <path d="M 482.359926 189.334802 
Q 480.376198 189.671383 478.242589 189.840442 
Q 476.10898 190.007963 473.834306 190.007963 
Q 468.694248 190.007963 465.692208 189.005906 
Q 462.690167 188.003849 462.690167 186.290208 
Q 462.690167 184.556587 465.745107 183.562214 
Q 468.804456 182.567841 474.125253 182.567841 
Q 476.175105 182.567841 478.053033 182.703088 
Q 479.93537 182.836799 481.601701 183.101145 
L 481.601701 184.584251 
Q 479.882471 184.244597 478.180873 184.077075 
Q 476.479276 183.908016 474.768862 183.908016 
Q 471.603715 183.908016 469.888893 184.525849 
Q 468.174071 185.142145 468.174071 186.290208 
Q 468.174071 187.427512 469.827177 188.048419 
Q 471.480283 188.667789 474.521999 188.667789 
Q 475.350756 188.667789 476.060489 188.63244 
Q 476.770223 188.595554 477.334483 188.518709 
L 477.334483 187.12628 
L 474.094395 187.12628 
L 474.094395 185.886004 
L 482.359926 185.886004 
L 482.359926 189.334802 
z
" clip-path="url(#pb1f706af14)" style="fill: #ffa600"/>
   </g>
   <g id="patch_77">
    <path d="M 462.690167 174.383707 
L 482.359926 174.383707 
L 482.359926 175.979841 
L 475.283387 175.979841 
L 475.283387 182.567841 
L 469.780429 182.567841 
L 469.780429 175.979841 
L 462.690167 175.979841 
L 462.690167 174.383707 
z
" clip-path="url(#pb1f706af14)" style="fill: #ff0000"/>
   </g>
   <g id="patch_78">
    <path d="M 476.315426 152.426896 
L 468.750753 152.426896 
L 467.556331 174.383707 
L 462.690167 174.383707 
L 469.639532 53.853731 
L 475.410561 53.853731 
L 482.359926 174.383707 
L 477.497783 174.383707 
L 476.315426 152.426896 
z
M 469.95724 130.056781 
L 475.096874 130.056781 
L 472.531079 82.113438 
L 469.95724 130.056781 
z
" clip-path="url(#pb1f706af14)" style="fill: #008000"/>
   </g>
   <g id="patch_79">
    <path d="M 503.064935 192.080244 
Q 501.081208 192.160122 498.947599 192.200243 
Q 496.81399 192.24 494.539316 192.24 
Q 489.399258 192.24 486.397217 192.002189 
Q 483.395176 191.764378 483.395176 191.357692 
Q 483.395176 190.946265 486.450116 190.710278 
Q 489.509465 190.474291 494.830262 190.474291 
Q 496.880114 190.474291 498.758043 190.506388 
Q 500.640379 190.53812 502.30671 190.600856 
L 502.30671 190.95283 
Q 500.58748 190.872223 498.885883 190.832466 
Q 497.184286 190.792344 495.473872 190.792344 
Q 492.308725 190.792344 490.593902 190.93897 
Q 488.87908 191.085231 488.87908 191.357692 
Q 488.87908 191.6276 490.532186 191.774956 
Q 492.185293 191.921946 495.227008 191.921946 
Q 496.055765 191.921946 496.765499 191.913557 
Q 497.475232 191.904803 498.039492 191.886566 
L 498.039492 191.556111 
L 494.799404 191.556111 
L 494.799404 191.261766 
L 503.064935 191.261766 
L 503.064935 192.080244 
z
" clip-path="url(#pb1f706af14)" style="fill: #ffa600"/>
   </g>
   <g id="patch_80">
    <path d="M 503.064935 190.100098 
Q 501.419594 190.285577 499.640444 190.379395 
Q 497.861295 190.474291 495.923559 190.474291 
Q 490.145041 190.474291 486.770108 189.771197 
Q 483.395176 189.068104 483.395176 187.865729 
Q 483.395176 186.65904 486.770108 185.957025 
Q 490.145041 185.253932 495.923559 185.253932 
Q 497.861295 185.253932 499.640444 185.348828 
Q 501.419594 185.442646 503.064935 185.628124 
L 503.064935 186.668745 
Q 501.404726 186.422878 499.794076 186.308572 
Q 498.183425 186.194265 496.404276 186.194265 
Q 493.21271 186.194265 491.384002 186.639629 
Q 489.560251 187.083915 489.560251 187.865729 
Q 489.560251 188.644307 491.384002 189.089672 
Q 493.21271 189.533957 496.404276 189.533957 
Q 498.183425 189.533957 499.794076 189.419651 
Q 501.404726 189.304266 503.064935 189.058399 
L 503.064935 190.100098 
z
" clip-path="url(#pb1f706af14)" style="fill: #0000ff"/>
   </g>
   <g id="patch_81">
    <path d="M 483.395176 176.425385 
L 503.064935 176.425385 
L 503.064935 178.147197 
L 495.988396 178.147197 
L 495.988396 185.253932 
L 490.485438 185.253932 
L 490.485438 178.147197 
L 483.395176 178.147197 
L 483.395176 176.425385 
z
" clip-path="url(#pb1f706af14)" style="fill: #ff0000"/>
   </g>
   <g id="patch_82">
    <path d="M 497.020435 174.103858 
L 489.455762 174.103858 
L 488.26134 176.425385 
L 483.395176 176.425385 
L 490.344541 163.681568 
L 496.11557 163.681568 
L 503.064935 176.425385 
L 498.202793 176.425385 
L 497.020435 174.103858 
z
M 490.662249 171.738632 
L 495.801884 171.738632 
L 493.236088 166.66951 
L 490.662249 171.738632 
z
" clip-path="url(#pb1f706af14)" style="fill: #008000"/>
   </g>
   <g id="patch_83">
    <path d="M 523.769944 191.982434 
Q 521.786217 192.111217 519.652608 192.175903 
Q 517.518999 192.24 515.244325 192.24 
Q 510.104267 192.24 507.102226 191.856591 
Q 504.100186 191.473183 504.100186 190.817507 
Q 504.100186 190.154187 507.155126 189.773719 
Q 510.214474 189.393251 515.535272 189.393251 
Q 517.585123 189.393251 519.463052 189.444999 
Q 521.345389 189.496159 523.01172 189.597304 
L 523.01172 190.164772 
Q 521.292489 190.034813 519.590892 189.970716 
Q 517.889295 189.90603 516.178881 189.90603 
Q 513.013734 189.90603 511.298912 190.142426 
Q 509.58409 190.378234 509.58409 190.817507 
Q 509.58409 191.252664 511.237196 191.490236 
Q 512.890302 191.727221 515.932017 191.727221 
Q 516.760774 191.727221 517.470508 191.713695 
Q 518.180241 191.699582 518.744502 191.67018 
L 518.744502 191.137406 
L 515.504414 191.137406 
L 515.504414 190.66285 
L 523.769944 190.66285 
L 523.769944 191.982434 
z
" clip-path="url(#pb1f706af14)" style="fill: #ffa600"/>
   </g>
   <g id="patch_84">
    <path d="M 523.769944 189.180695 
Q 522.124603 189.286054 520.345454 189.339346 
Q 518.566304 189.393251 516.628568 189.393251 
Q 510.85005 189.393251 507.475118 188.993867 
Q 504.100186 188.594483 504.100186 187.911487 
Q 504.100186 187.226042 507.475118 186.82727 
Q 510.85005 186.427887 516.628568 186.427887 
Q 518.566304 186.427887 520.345454 186.481791 
Q 522.124603 186.535083 523.769944 186.640442 
L 523.769944 187.231555 
Q 522.109735 187.091893 520.499085 187.026962 
Q 518.888435 186.962032 517.109285 186.962032 
Q 513.917719 186.962032 512.089012 187.215016 
Q 510.26526 187.467387 510.26526 187.911487 
Q 510.26526 188.35375 512.089012 188.606734 
Q 513.917719 188.859105 517.109285 188.859105 
Q 518.888435 188.859105 520.499085 188.794175 
Q 522.109735 188.728632 523.769944 188.58897 
L 523.769944 189.180695 
z
" clip-path="url(#pb1f706af14)" style="fill: #0000ff"/>
   </g>
   <g id="patch_85">
    <path d="M 517.725445 185.315081 
L 510.160772 185.315081 
L 508.96635 186.427887 
L 504.100186 186.427887 
L 511.04955 180.319237 
L 516.82058 180.319237 
L 523.769944 186.427887 
L 518.907802 186.427887 
L 517.725445 185.315081 
z
M 511.367259 184.181328 
L 516.506893 184.181328 
L 513.941097 181.751483 
L 511.367259 184.181328 
z
" clip-path="url(#pb1f706af14)" style="fill: #008000"/>
   </g>
   <g id="patch_86">
    <path d="M 504.100186 170.177692 
L 523.769944 170.177692 
L 523.769944 172.155576 
L 516.693406 172.155576 
L 516.693406 180.319237 
L 511.190447 180.319237 
L 511.190447 172.155576 
L 504.100186 172.155576 
L 504.100186 170.177692 
z
" clip-path="url(#pb1f706af14)" style="fill: #ff0000"/>
   </g>
   <g id="patch_87">
    <path d="M 544.474954 192.108426 
Q 542.829612 192.173644 541.050463 192.206632 
Q 539.271314 192.24 537.333577 192.24 
Q 531.555059 192.24 528.180127 191.992777 
Q 524.805195 191.745554 524.805195 191.322772 
Q 524.805195 190.898474 528.180127 190.65163 
Q 531.555059 190.404407 537.333577 190.404407 
Q 539.271314 190.404407 541.050463 190.437775 
Q 542.829612 190.470763 544.474954 190.535981 
L 544.474954 190.901887 
Q 542.814745 190.815434 541.204094 190.775242 
Q 539.593444 190.735049 537.814295 190.735049 
Q 534.622729 190.735049 532.794021 190.891649 
Q 530.970269 191.04787 530.970269 191.322772 
Q 530.970269 191.596538 532.794021 191.753138 
Q 534.622729 191.909358 537.814295 191.909358 
Q 539.593444 191.909358 541.204094 191.869166 
Q 542.814745 191.828594 544.474954 191.742141 
L 544.474954 192.108426 
z
" clip-path="url(#pb1f706af14)" style="fill: #0000ff"/>
   </g>
   <g id="patch_88">
    <path d="M 544.474954 189.87503 
Q 542.491226 190.139718 540.357617 190.272667 
Q 538.224008 190.404407 535.949334 190.404407 
Q 530.809276 190.404407 527.807236 189.616384 
Q 524.805195 188.828361 524.805195 187.480744 
Q 524.805195 186.117416 527.860135 185.335436 
Q 530.919483 184.553456 536.240281 184.553456 
Q 538.290133 184.553456 540.168061 184.659814 
Q 542.050398 184.764965 543.716729 184.972848 
L 543.716729 186.139171 
Q 541.997499 185.872065 540.295901 185.740325 
Q 538.594304 185.607376 536.88389 185.607376 
Q 533.718743 185.607376 532.003921 186.093243 
Q 530.289099 186.577902 530.289099 187.480744 
Q 530.289099 188.375127 531.942205 188.863411 
Q 533.595311 189.350487 536.637026 189.350487 
Q 537.465784 189.350487 538.175517 189.322688 
Q 538.885251 189.293681 539.449511 189.23325 
L 539.449511 188.138236 
L 536.209423 188.138236 
L 536.209423 187.162876 
L 544.474954 187.162876 
L 544.474954 189.87503 
z
" clip-path="url(#pb1f706af14)" style="fill: #ffa600"/>
   </g>
   <g id="patch_89">
    <path d="M 524.805195 171.130684 
L 544.474954 171.130684 
L 544.474954 173.748498 
L 537.398415 173.748498 
L 537.398415 184.553456 
L 531.895457 184.553456 
L 531.895457 173.748498 
L 524.805195 173.748498 
L 524.805195 171.130684 
z
" clip-path="url(#pb1f706af14)" style="fill: #ff0000"/>
   </g>
   <g id="patch_90">
    <path d="M 538.430454 167.201626 
L 530.865781 167.201626 
L 529.671359 171.130684 
L 524.805195 171.130684 
L 531.75456 149.562469 
L 537.525589 149.562469 
L 544.474954 171.130684 
L 539.612811 171.130684 
L 538.430454 167.201626 
z
M 532.072268 163.19861 
L 537.211902 163.19861 
L 534.646107 154.619398 
L 532.072268 163.19861 
z
" clip-path="url(#pb1f706af14)" style="fill: #008000"/>
   </g>
   <g id="patch_91">
    <path d="M 565.179963 191.823522 
Q 563.534622 192.029961 561.755472 192.13438 
Q 559.976323 192.24 558.038587 192.24 
Q 552.260068 192.24 548.885136 191.457454 
Q 545.510204 190.674909 545.510204 189.336659 
Q 545.510204 187.993609 548.885136 187.212264 
Q 552.260068 186.429718 558.038587 186.429718 
Q 559.976323 186.429718 561.755472 186.535338 
Q 563.534622 186.639757 565.179963 186.846196 
L 565.179963 188.004411 
Q 563.519754 187.73076 561.909104 187.603537 
Q 560.298453 187.476313 558.519304 187.476313 
Q 555.327738 187.476313 553.49903 187.972005 
Q 551.675278 188.466497 551.675278 189.336659 
Q 551.675278 190.203221 553.49903 190.698913 
Q 555.327738 191.193405 558.519304 191.193405 
Q 560.298453 191.193405 561.909104 191.066181 
Q 563.519754 190.937758 565.179963 190.664107 
L 565.179963 191.823522 
z
" clip-path="url(#pb1f706af14)" style="fill: #0000ff"/>
   </g>
   <g id="patch_92">
    <path d="M 545.510204 179.45738 
L 565.179963 179.45738 
L 565.179963 180.81718 
L 558.103424 180.81718 
L 558.103424 186.429718 
L 552.600466 186.429718 
L 552.600466 180.81718 
L 545.510204 180.81718 
L 545.510204 179.45738 
z
" clip-path="url(#pb1f706af14)" style="fill: #ff0000"/>
   </g>
   <g id="patch_93">
    <path d="M 565.179963 178.766462 
Q 563.196236 179.111921 561.062627 179.285439 
Q 558.929018 179.45738 556.654344 179.45738 
Q 551.514286 179.45738 548.512245 178.428891 
Q 545.510204 177.400402 545.510204 175.641561 
Q 545.510204 173.862212 548.565144 172.841611 
Q 551.624493 171.821009 556.94529 171.821009 
Q 558.995142 171.821009 560.87307 171.959824 
Q 562.755407 172.097061 564.421738 172.36838 
L 564.421738 173.890606 
Q 562.702508 173.541992 561.000911 173.370052 
Q 559.299313 173.196534 557.5889 173.196534 
Q 554.423752 173.196534 552.70893 173.830663 
Q 550.994108 174.463215 550.994108 175.641561 
Q 550.994108 176.808864 552.647214 177.446148 
Q 554.30032 178.081855 557.342036 178.081855 
Q 558.170793 178.081855 558.880526 178.045574 
Q 559.59026 178.007715 560.15452 177.928844 
L 560.15452 176.499686 
L 556.914432 176.499686 
L 556.914432 175.226695 
L 565.179963 175.226695 
L 565.179963 178.766462 
z
" clip-path="url(#pb1f706af14)" style="fill: #ffa600"/>
   </g>
   <g id="patch_94">
    <path d="M 559.135463 164.290875 
L 551.57079 164.290875 
L 550.376368 171.821009 
L 545.510204 171.821009 
L 552.459569 130.485003 
L 558.230598 130.485003 
L 565.179963 171.821009 
L 560.317821 171.821009 
L 559.135463 164.290875 
z
M 552.777277 156.618998 
L 557.916911 156.618998 
L 555.351116 140.176729 
L 552.777277 156.618998 
z
" clip-path="url(#pb1f706af14)" style="fill: #008000"/>
   </g>
   <g id="patch_95">
    <path d="M 585.884972 192.079337 
Q 584.239631 192.158974 582.460482 192.199255 
Q 580.681332 192.24 578.743596 192.24 
Q 572.965078 192.24 569.590146 191.93812 
Q 566.215213 191.63624 566.215213 191.119989 
Q 566.215213 190.601885 569.590146 190.300469 
Q 572.965078 189.998589 578.743596 189.998589 
Q 580.681332 189.998589 582.460482 190.039333 
Q 584.239631 190.079615 585.884972 190.159252 
L 585.884972 190.606053 
Q 584.224763 190.500487 582.614113 190.451409 
Q 581.003462 190.40233 579.224313 190.40233 
Q 576.032747 190.40233 574.20404 190.593551 
Q 572.380288 190.78431 572.380288 191.119989 
Q 572.380288 191.454279 574.20404 191.645501 
Q 576.032747 191.836259 579.224313 191.836259 
Q 581.003462 191.836259 582.614113 191.78718 
Q 584.224763 191.737639 585.884972 191.632073 
L 585.884972 192.079337 
z
" clip-path="url(#pb1f706af14)" style="fill: #0000ff"/>
   </g>
   <g id="patch_96">
    <path d="M 585.884972 189.592996 
Q 583.901245 189.795792 581.767636 189.897654 
Q 579.634027 189.998589 577.359353 189.998589 
Q 572.219295 189.998589 569.217254 189.394829 
Q 566.215213 188.79107 566.215213 187.758567 
Q 566.215213 186.714026 569.270153 186.114896 
Q 572.329502 185.515767 577.650299 185.515767 
Q 579.700151 185.515767 581.57808 185.597256 
Q 583.460417 185.677819 585.126747 185.837093 
L 585.126747 186.730694 
Q 583.407517 186.526045 581.70592 186.42511 
Q 580.004323 186.323249 578.293909 186.323249 
Q 575.128762 186.323249 573.41394 186.695506 
Q 571.699117 187.066836 571.699117 187.758567 
Q 571.699117 188.443815 573.352224 188.817924 
Q 575.00533 189.191107 578.047045 189.191107 
Q 578.875802 189.191107 579.585536 189.169809 
Q 580.295269 189.147584 580.85953 189.101284 
L 580.85953 188.262317 
L 577.619442 188.262317 
L 577.619442 187.515026 
L 585.884972 187.515026 
L 585.884972 189.592996 
z
" clip-path="url(#pb1f706af14)" style="fill: #ffa600"/>
   </g>
   <g id="patch_97">
    <path d="M 579.840473 182.774221 
L 572.275799 182.774221 
L 571.081377 185.515767 
L 566.215213 185.515767 
L 573.164578 170.466293 
L 578.935607 170.466293 
L 585.884972 185.515767 
L 581.02283 185.515767 
L 579.840473 182.774221 
z
M 573.482286 179.981069 
L 578.621921 179.981069 
L 576.056125 173.994823 
L 573.482286 179.981069 
z
" clip-path="url(#pb1f706af14)" style="fill: #008000"/>
   </g>
   <g id="patch_98">
    <path d="M 566.215213 152.535004 
L 585.884972 152.535004 
L 585.884972 156.032105 
L 578.808433 156.032105 
L 578.808433 170.466293 
L 573.305475 170.466293 
L 573.305475 156.032105 
L 566.215213 156.032105 
L 566.215213 152.535004 
z
" clip-path="url(#pb1f706af14)" style="fill: #ff0000"/>
   </g>
   <g id="patch_99">
    <path d="M 606.589981 191.996612 
Q 604.94464 192.117254 603.165491 192.178276 
Q 601.386342 192.24 599.448605 192.24 
Q 593.670087 192.24 590.295155 191.782683 
Q 586.920223 191.325366 586.920223 190.543298 
Q 586.920223 189.758425 590.295155 189.301809 
Q 593.670087 188.844492 599.448605 188.844492 
Q 601.386342 188.844492 603.165491 188.906216 
Q 604.94464 188.967239 606.589981 189.08788 
L 606.589981 189.764737 
Q 604.929773 189.604817 603.319122 189.530468 
Q 601.708472 189.456119 599.929322 189.456119 
Q 596.737757 189.456119 594.909049 189.745799 
Q 593.085297 190.034779 593.085297 190.543298 
Q 593.085297 191.049714 594.909049 191.339394 
Q 596.737757 191.628374 599.929322 191.628374 
Q 601.708472 191.628374 603.319122 191.554025 
Q 604.929773 191.478974 606.589981 191.319054 
L 606.589981 191.996612 
z
" clip-path="url(#pb1f706af14)" style="fill: #0000ff"/>
   </g>
   <g id="patch_100">
    <path d="M 606.589981 188.398534 
Q 604.606254 188.621513 602.472645 188.733512 
Q 600.339036 188.844492 598.064362 188.844492 
Q 592.924304 188.844492 589.922263 188.180645 
Q 586.920223 187.516798 586.920223 186.381538 
Q 586.920223 185.233042 589.975163 184.574286 
Q 593.034511 183.91553 598.355309 183.91553 
Q 600.40516 183.91553 602.283089 184.005129 
Q 604.165426 184.09371 605.831757 184.268835 
L 605.831757 185.251369 
Q 604.112526 185.026354 602.410929 184.915373 
Q 600.709332 184.803374 598.998918 184.803374 
Q 595.833771 184.803374 594.118949 185.212679 
Q 592.404127 185.620965 592.404127 186.381538 
Q 592.404127 187.134984 594.057233 187.546325 
Q 595.710339 187.956648 598.752054 187.956648 
Q 599.580811 187.956648 600.290545 187.93323 
Q 601.000279 187.908794 601.564539 187.857885 
L 601.564539 186.935423 
L 598.324451 186.935423 
L 598.324451 186.11376 
L 606.589981 186.11376 
L 606.589981 188.398534 
z
" clip-path="url(#pb1f706af14)" style="fill: #ffa600"/>
   </g>
   <g id="patch_101">
    <path d="M 600.545482 182.159629 
L 592.980809 182.159629 
L 591.786387 183.91553 
L 586.920223 183.91553 
L 593.869587 174.27667 
L 599.640617 174.27667 
L 606.589981 183.91553 
L 601.727839 183.91553 
L 600.545482 182.159629 
z
M 594.187296 180.370677 
L 599.32693 180.370677 
L 596.761134 176.536617 
L 594.187296 180.370677 
z
" clip-path="url(#pb1f706af14)" style="fill: #008000"/>
   </g>
   <g id="patch_102">
    <path d="M 586.920223 151.493909 
L 606.589981 151.493909 
L 606.589981 155.937182 
L 599.513443 155.937182 
L 599.513443 174.27667 
L 594.010485 174.27667 
L 594.010485 155.937182 
L 586.920223 155.937182 
L 586.920223 151.493909 
z
" clip-path="url(#pb1f706af14)" style="fill: #ff0000"/>
   </g>
   <g id="patch_103">
    <path d="M 627.294991 192.146436 
Q 625.649649 192.192813 623.8705 192.216272 
Q 622.091351 192.24 620.153614 192.24 
Q 614.375096 192.24 611.000164 192.064196 
Q 607.625232 191.888392 607.625232 191.587746 
Q 607.625232 191.28602 611.000164 191.110486 
Q 614.375096 190.934682 620.153614 190.934682 
Q 622.091351 190.934682 623.8705 190.95841 
Q 625.649649 190.981869 627.294991 191.028246 
L 627.294991 191.288447 
Q 625.634782 191.22697 624.024131 191.198388 
Q 622.413481 191.169806 620.634332 191.169806 
Q 617.442766 191.169806 615.614058 191.281167 
Q 613.790306 191.392258 613.790306 191.587746 
Q 613.790306 191.782424 615.614058 191.893785 
Q 617.442766 192.004876 620.634332 192.004876 
Q 622.413481 192.004876 624.024131 191.976294 
Q 625.634782 191.947443 627.294991 191.885965 
L 627.294991 192.146436 
z
" clip-path="url(#pb1f706af14)" style="fill: #0000ff"/>
   </g>
   <g id="patch_104">
    <path d="M 627.294991 190.809199 
Q 625.311263 190.871941 623.177654 190.903455 
Q 621.044045 190.934682 618.769371 190.934682 
Q 613.629313 190.934682 610.627273 190.74789 
Q 607.625232 190.561099 607.625232 190.241662 
Q 607.625232 189.9185 610.680172 189.733141 
Q 613.73952 189.547782 619.060318 189.547782 
Q 621.11017 189.547782 622.988098 189.572993 
Q 624.870435 189.597918 626.536766 189.647194 
L 626.536766 189.923657 
Q 624.817536 189.860343 623.115938 189.829115 
Q 621.414341 189.797601 619.703927 189.797601 
Q 616.53878 189.797601 614.823958 189.912771 
Q 613.109136 190.027653 613.109136 190.241662 
Q 613.109136 190.453665 614.762242 190.569407 
Q 616.415348 190.684862 619.457064 190.684862 
Q 620.285821 190.684862 620.995554 190.678273 
Q 621.705288 190.671397 622.269548 190.657073 
L 622.269548 190.397512 
L 619.02946 190.397512 
L 619.02946 190.166315 
L 627.294991 190.166315 
L 627.294991 190.809199 
z
" clip-path="url(#pb1f706af14)" style="fill: #ffa600"/>
   </g>
   <g id="patch_105">
    <path d="M 607.625232 187.406245 
L 627.294991 187.406245 
L 627.294991 187.823904 
L 620.218452 187.823904 
L 620.218452 189.547782 
L 614.715494 189.547782 
L 614.715494 187.823904 
L 607.625232 187.823904 
L 607.625232 187.406245 
z
" clip-path="url(#pb1f706af14)" style="fill: #ff0000"/>
   </g>
   <g id="patch_106">
    <path d="M 621.250491 186.90466 
L 613.685818 186.90466 
L 612.491396 187.406245 
L 607.625232 187.406245 
L 614.574597 184.65284 
L 620.345626 184.65284 
L 627.294991 187.406245 
L 622.432848 187.406245 
L 621.250491 186.90466 
z
M 614.892305 186.393634 
L 620.031939 186.393634 
L 617.466144 185.298409 
L 614.892305 186.393634 
z
" clip-path="url(#pb1f706af14)" style="fill: #008000"/>
   </g>
   <g id="patch_107">
    <path d="M 648 192.037901 
Q 646.016273 192.13895 643.882664 192.189706 
Q 641.749055 192.24 639.474381 192.24 
Q 634.334323 192.24 631.332282 191.939158 
Q 628.330241 191.638316 628.330241 191.123839 
Q 628.330241 190.603363 631.385181 190.304828 
Q 634.44453 190.006293 639.765327 190.006293 
Q 641.815179 190.006293 643.693107 190.046897 
Q 645.575444 190.087041 647.241775 190.166404 
L 647.241775 190.611669 
Q 645.522545 190.509696 643.820948 190.459402 
Q 642.11935 190.408646 640.408937 190.408646 
Q 637.243789 190.408646 635.528967 190.594135 
Q 633.814145 190.779162 633.814145 191.123839 
Q 633.814145 191.465285 635.467251 191.651697 
Q 637.120358 191.837647 640.162073 191.837647 
Q 640.99083 191.837647 641.700564 191.827034 
Q 642.410297 191.81596 642.974557 191.792889 
L 642.974557 191.374848 
L 639.734469 191.374848 
L 639.734469 191.002487 
L 648 191.002487 
L 648 192.037901 
z
" clip-path="url(#pb1f706af14)" style="fill: #ffa600"/>
   </g>
   <g id="patch_108">
    <path d="M 648 189.76783 
Q 646.354659 189.886031 644.575509 189.945818 
Q 642.79636 190.006293 640.858624 190.006293 
Q 635.080106 190.006293 631.705173 189.55823 
Q 628.330241 189.110167 628.330241 188.343925 
Q 628.330241 187.574934 631.705173 187.127558 
Q 635.080106 186.679495 640.858624 186.679495 
Q 642.79636 186.679495 644.575509 186.73997 
Q 646.354659 186.799758 648 186.917958 
L 648 187.581119 
Q 646.339791 187.424434 644.729141 187.35159 
Q 643.11849 187.278745 641.339341 187.278745 
Q 638.147775 187.278745 636.319067 187.562564 
Q 634.495316 187.845696 634.495316 188.343925 
Q 634.495316 188.840093 636.319067 189.123912 
Q 638.147775 189.407043 641.339341 189.407043 
Q 643.11849 189.407043 644.729141 189.334199 
Q 646.339791 189.260667 648 189.103982 
L 648 189.76783 
z
" clip-path="url(#pb1f706af14)" style="fill: #0000ff"/>
   </g>
   <g id="patch_109">
    <path d="M 628.330241 182.544761 
L 648 182.544761 
L 648 183.351149 
L 640.923461 183.351149 
L 640.923461 186.679495 
L 635.420503 186.679495 
L 635.420503 183.351149 
L 628.330241 183.351149 
L 628.330241 182.544761 
z
" clip-path="url(#pb1f706af14)" style="fill: #ff0000"/>
   </g>
   <g id="patch_110">
    <path d="M 641.9555 181.090267 
L 634.390827 181.090267 
L 633.196405 182.544761 
L 628.330241 182.544761 
L 635.279606 174.560447 
L 641.050635 174.560447 
L 648 182.544761 
L 643.137858 182.544761 
L 641.9555 181.090267 
z
M 635.597314 179.608395 
L 640.736949 179.608395 
L 638.171153 176.432466 
L 635.597314 179.608395 
z
" clip-path="url(#pb1f706af14)" style="fill: #008000"/>
   </g>
   <g id="matplotlib.axis_1">
    <g id="xtick_1">
     <g id="line2d_2">
      <defs>
       <path id="m917d7cabfb" d="M 0 0 
L 0 3.5 
" style="stroke: #000000; stroke-width: 0.8"/>
      </defs>
      <g>
       <use xlink:href="#m917d7cabfb" x="99.834879" y="192.24" style="stroke: #000000; stroke-width: 0.8"/>
      </g>
     </g>
     <g id="text_1">
      <!-- 0 -->
      <g transform="translate(96.653629 206.838437) scale(0.1 -0.1)">
       <defs>
        <path id="DejaVuSans-30" d="M 2034 4250 
Q 1547 4250 1301 3770 
Q 1056 3291 1056 2328 
Q 1056 1369 1301 889 
Q 1547 409 2034 409 
Q 2525 409 2770 889 
Q 3016 1369 3016 2328 
Q 3016 3291 2770 3770 
Q 2525 4250 2034 4250 
z
M 2034 4750 
Q 2819 4750 3233 4129 
Q 3647 3509 3647 2328 
Q 3647 1150 3233 529 
Q 2819 -91 2034 -91 
Q 1250 -91 836 529 
Q 422 1150 422 2328 
Q 422 3509 836 4129 
Q 1250 4750 2034 4750 
z
" transform="scale(0.015625)"/>
       </defs>
       <use xlink:href="#DejaVuSans-30"/>
      </g>
     </g>
    </g>
    <g id="xtick_2">
     <g id="line2d_3">
      <g>
       <use xlink:href="#m917d7cabfb" x="203.359926" y="192.24" style="stroke: #000000; stroke-width: 0.8"/>
      </g>
     </g>
     <g id="text_2">
      <!-- 5 -->
      <g transform="translate(200.178676 206.838437) scale(0.1 -0.1)">
       <defs>
        <path id="DejaVuSans-35" d="M 691 4666 
L 3169 4666 
L 3169 4134 
L 1269 4134 
L 1269 2991 
Q 1406 3038 1543 3061 
Q 1681 3084 1819 3084 
Q 2600 3084 3056 2656 
Q 3513 2228 3513 1497 
Q 3513 744 3044 326 
Q 2575 -91 1722 -91 
Q 1428 -91 1123 -41 
Q 819 9 494 109 
L 494 744 
Q 775 591 1075 516 
Q 1375 441 1709 441 
Q 2250 441 2565 725 
Q 2881 1009 2881 1497 
Q 2881 1984 2565 2268 
Q 2250 2553 1709 2553 
Q 1456 2553 1204 2497 
Q 953 2441 691 2322 
L 691 4666 
z
" transform="scale(0.015625)"/>
       </defs>
       <use xlink:href="#DejaVuSans-35"/>
      </g>
     </g>
    </g>
    <g id="xtick_3">
     <g id="line2d_4">
      <g>
       <use xlink:href="#m917d7cabfb" x="306.884972" y="192.24" style="stroke: #000000; stroke-width: 0.8"/>
      </g>
     </g>
     <g id="text_3">
      <!-- 10 -->
      <g transform="translate(300.522472 206.838437) scale(0.1 -0.1)">
       <defs>
        <path id="DejaVuSans-31" d="M 794 531 
L 1825 531 
L 1825 4091 
L 703 3866 
L 703 4441 
L 1819 4666 
L 2450 4666 
L 2450 531 
L 3481 531 
L 3481 0 
L 794 0 
L 794 531 
z
" transform="scale(0.015625)"/>
       </defs>
       <use xlink:href="#DejaVuSans-31"/>
       <use xlink:href="#DejaVuSans-30" x="63.623047"/>
      </g>
     </g>
    </g>
    <g id="xtick_4">
     <g id="line2d_5">
      <g>
       <use xlink:href="#m917d7cabfb" x="410.410019" y="192.24" style="stroke: #000000; stroke-width: 0.8"/>
      </g>
     </g>
     <g id="text_4">
      <!-- 15 -->
      <g transform="translate(404.047519 206.838437) scale(0.1 -0.1)">
       <use xlink:href="#DejaVuSans-31"/>
       <use xlink:href="#DejaVuSans-35" x="63.623047"/>
      </g>
     </g>
    </g>
    <g id="xtick_5">
     <g id="line2d_6">
      <g>
       <use xlink:href="#m917d7cabfb" x="513.935065" y="192.24" style="stroke: #000000; stroke-width: 0.8"/>
      </g>
     </g>
     <g id="text_5">
      <!-- 20 -->
      <g transform="translate(507.572565 206.838437) scale(0.1 -0.1)">
       <defs>
        <path id="DejaVuSans-32" d="M 1228 531 
L 3431 531 
L 3431 0 
L 469 0 
L 469 531 
Q 828 903 1448 1529 
Q 2069 2156 2228 2338 
Q 2531 2678 2651 2914 
Q 2772 3150 2772 3378 
Q 2772 3750 2511 3984 
Q 2250 4219 1831 4219 
Q 1534 4219 1204 4116 
Q 875 4013 500 3803 
L 500 4441 
Q 881 4594 1212 4672 
Q 1544 4750 1819 4750 
Q 2544 4750 2975 4387 
Q 3406 4025 3406 3419 
Q 3406 3131 3298 2873 
Q 3191 2616 2906 2266 
Q 2828 2175 2409 1742 
Q 1991 1309 1228 531 
z
" transform="scale(0.015625)"/>
       </defs>
       <use xlink:href="#DejaVuSans-32"/>
       <use xlink:href="#DejaVuSans-30" x="63.623047"/>
      </g>
     </g>
    </g>
    <g id="xtick_6">
     <g id="line2d_7">
      <g>
       <use xlink:href="#m917d7cabfb" x="617.460111" y="192.24" style="stroke: #000000; stroke-width: 0.8"/>
      </g>
     </g>
     <g id="text_6">
      <!-- 25 -->
      <g transform="translate(611.097611 206.838437) scale(0.1 -0.1)">
       <use xlink:href="#DejaVuSans-32"/>
       <use xlink:href="#DejaVuSans-35" x="63.623047"/>
      </g>
     </g>
    </g>
   </g>
   <g id="matplotlib.axis_2">
    <g id="ytick_1">
     <g id="line2d_8">
      <defs>
       <path id="m6f7d44ad5c" d="M 0 0 
L -3.5 0 
" style="stroke: #000000; stroke-width: 0.8"/>
      </defs>
      <g>
       <use xlink:href="#m6f7d44ad5c" x="90" y="192.24" style="stroke: #000000; stroke-width: 0.8"/>
      </g>
     </g>
     <g id="text_7">
      <!-- 0.0 -->
      <g transform="translate(67.096875 196.039219) scale(0.1 -0.1)">
       <defs>
        <path id="DejaVuSans-2e" d="M 684 794 
L 1344 794 
L 1344 0 
L 684 0 
L 684 794 
z
" transform="scale(0.015625)"/>
       </defs>
       <use xlink:href="#DejaVuSans-30"/>
       <use xlink:href="#DejaVuSans-2e" x="63.623047"/>
       <use xlink:href="#DejaVuSans-30" x="95.410156"/>
      </g>
     </g>
    </g>
    <g id="ytick_2">
     <g id="line2d_9">
      <g>
       <use xlink:href="#m6f7d44ad5c" x="90" y="170.315096" style="stroke: #000000; stroke-width: 0.8"/>
      </g>
     </g>
     <g id="text_8">
      <!-- 0.2 -->
      <g transform="translate(67.096875 174.114315) scale(0.1 -0.1)">
       <use xlink:href="#DejaVuSans-30"/>
       <use xlink:href="#DejaVuSans-2e" x="63.623047"/>
       <use xlink:href="#DejaVuSans-32" x="95.410156"/>
      </g>
     </g>
    </g>
    <g id="ytick_3">
     <g id="line2d_10">
      <g>
       <use xlink:href="#m6f7d44ad5c" x="90" y="148.390192" style="stroke: #000000; stroke-width: 0.8"/>
      </g>
     </g>
     <g id="text_9">
      <!-- 0.4 -->
      <g transform="translate(67.096875 152.18941) scale(0.1 -0.1)">
       <defs>
        <path id="DejaVuSans-34" d="M 2419 4116 
L 825 1625 
L 2419 1625 
L 2419 4116 
z
M 2253 4666 
L 3047 4666 
L 3047 1625 
L 3713 1625 
L 3713 1100 
L 3047 1100 
L 3047 0 
L 2419 0 
L 2419 1100 
L 313 1100 
L 313 1709 
L 2253 4666 
z
" transform="scale(0.015625)"/>
       </defs>
       <use xlink:href="#DejaVuSans-30"/>
       <use xlink:href="#DejaVuSans-2e" x="63.623047"/>
       <use xlink:href="#DejaVuSans-34" x="95.410156"/>
      </g>
     </g>
    </g>
    <g id="ytick_4">
     <g id="line2d_11">
      <g>
       <use xlink:href="#m6f7d44ad5c" x="90" y="126.465287" style="stroke: #000000; stroke-width: 0.8"/>
      </g>
     </g>
     <g id="text_10">
      <!-- 0.6 -->
      <g transform="translate(67.096875 130.264506) scale(0.1 -0.1)">
       <defs>
        <path id="DejaVuSans-36" d="M 2113 2584 
Q 1688 2584 1439 2293 
Q 1191 2003 1191 1497 
Q 1191 994 1439 701 
Q 1688 409 2113 409 
Q 2538 409 2786 701 
Q 3034 994 3034 1497 
Q 3034 2003 2786 2293 
Q 2538 2584 2113 2584 
z
M 3366 4563 
L 3366 3988 
Q 3128 4100 2886 4159 
Q 2644 4219 2406 4219 
Q 1781 4219 1451 3797 
Q 1122 3375 1075 2522 
Q 1259 2794 1537 2939 
Q 1816 3084 2150 3084 
Q 2853 3084 3261 2657 
Q 3669 2231 3669 1497 
Q 3669 778 3244 343 
Q 2819 -91 2113 -91 
Q 1303 -91 875 529 
Q 447 1150 447 2328 
Q 447 3434 972 4092 
Q 1497 4750 2381 4750 
Q 2619 4750 2861 4703 
Q 3103 4656 3366 4563 
z
" transform="scale(0.015625)"/>
       </defs>
       <use xlink:href="#DejaVuSans-30"/>
       <use xlink:href="#DejaVuSans-2e" x="63.623047"/>
       <use xlink:href="#DejaVuSans-36" x="95.410156"/>
      </g>
     </g>
    </g>
    <g id="ytick_5">
     <g id="line2d_12">
      <g>
       <use xlink:href="#m6f7d44ad5c" x="90" y="104.540383" style="stroke: #000000; stroke-width: 0.8"/>
      </g>
     </g>
     <g id="text_11">
      <!-- 0.8 -->
      <g transform="translate(67.096875 108.339602) scale(0.1 -0.1)">
       <defs>
        <path id="DejaVuSans-38" d="M 2034 2216 
Q 1584 2216 1326 1975 
Q 1069 1734 1069 1313 
Q 1069 891 1326 650 
Q 1584 409 2034 409 
Q 2484 409 2743 651 
Q 3003 894 3003 1313 
Q 3003 1734 2745 1975 
Q 2488 2216 2034 2216 
z
M 1403 2484 
Q 997 2584 770 2862 
Q 544 3141 544 3541 
Q 544 4100 942 4425 
Q 1341 4750 2034 4750 
Q 2731 4750 3128 4425 
Q 3525 4100 3525 3541 
Q 3525 3141 3298 2862 
Q 3072 2584 2669 2484 
Q 3125 2378 3379 2068 
Q 3634 1759 3634 1313 
Q 3634 634 3220 271 
Q 2806 -91 2034 -91 
Q 1263 -91 848 271 
Q 434 634 434 1313 
Q 434 1759 690 2068 
Q 947 2378 1403 2484 
z
M 1172 3481 
Q 1172 3119 1398 2916 
Q 1625 2713 2034 2713 
Q 2441 2713 2670 2916 
Q 2900 3119 2900 3481 
Q 2900 3844 2670 4047 
Q 2441 4250 2034 4250 
Q 1625 4250 1398 4047 
Q 1172 3844 1172 3481 
z
" transform="scale(0.015625)"/>
       </defs>
       <use xlink:href="#DejaVuSans-30"/>
       <use xlink:href="#DejaVuSans-2e" x="63.623047"/>
       <use xlink:href="#DejaVuSans-38" x="95.410156"/>
      </g>
     </g>
    </g>
    <g id="ytick_6">
     <g id="line2d_13">
      <g>
       <use xlink:href="#m6f7d44ad5c" x="90" y="82.615479" style="stroke: #000000; stroke-width: 0.8"/>
      </g>
     </g>
     <g id="text_12">
      <!-- 1.0 -->
      <g transform="translate(67.096875 86.414698) scale(0.1 -0.1)">
       <use xlink:href="#DejaVuSans-31"/>
       <use xlink:href="#DejaVuSans-2e" x="63.623047"/>
       <use xlink:href="#DejaVuSans-30" x="95.410156"/>
      </g>
     </g>
    </g>
    <g id="ytick_7">
     <g id="line2d_14">
      <g>
       <use xlink:href="#m6f7d44ad5c" x="90" y="60.690575" style="stroke: #000000; stroke-width: 0.8"/>
      </g>
     </g>
     <g id="text_13">
      <!-- 1.2 -->
      <g transform="translate(67.096875 64.489794) scale(0.1 -0.1)">
       <use xlink:href="#DejaVuSans-31"/>
       <use xlink:href="#DejaVuSans-2e" x="63.623047"/>
       <use xlink:href="#DejaVuSans-32" x="95.410156"/>
      </g>
     </g>
    </g>
    <g id="ytick_8">
     <g id="line2d_15">
      <g>
       <use xlink:href="#m6f7d44ad5c" x="90" y="38.765671" style="stroke: #000000; stroke-width: 0.8"/>
      </g>
     </g>
     <g id="text_14">
      <!-- 1.4 -->
      <g transform="translate(67.096875 42.56489) scale(0.1 -0.1)">
       <use xlink:href="#DejaVuSans-31"/>
       <use xlink:href="#DejaVuSans-2e" x="63.623047"/>
       <use xlink:href="#DejaVuSans-34" x="95.410156"/>
      </g>
     </g>
    </g>
   </g>
  </g>
 </g>
 <defs>
  <clipPath id="pb1f706af14">
   <rect x="90" y="25.92" width="558" height="166.32"/>
  </clipPath>
 </defs>
</svg>
