<?xml version="1.0" encoding="utf-8" standalone="no"?>
<!DOCTYPE svg PUBLIC "-//W3C//DTD SVG 1.1//EN"
  "http://www.w3.org/Graphics/SVG/1.1/DTD/svg11.dtd">
<svg xmlns:xlink="http://www.w3.org/1999/xlink" width="720pt" height="216pt" viewBox="0 0 720 216" xmlns="http://www.w3.org/2000/svg" version="1.1">
 <metadata>
  <rdf:RDF xmlns:dc="http://purl.org/dc/elements/1.1/" xmlns:cc="http://creativecommons.org/ns#" xmlns:rdf="http://www.w3.org/1999/02/22-rdf-syntax-ns#">
   <cc:Work>
    <dc:type rdf:resource="http://purl.org/dc/dcmitype/StillImage"/>
    <dc:date>2025-12-17T10:22:14.088935</dc:date>
    <dc:format>image/svg+xml</dc:format>
    <dc:creator>
     <cc:Agent>
      <dc:title>Matplotlib v3.8.2, https://matplotlib.org/</dc:title>
     </cc:Agent>
    </dc:creator>
   </cc:Work>
  </rdf:RDF>
 </metadata>
 <defs>
  <style type="text/css">*{stroke-linejoin: round; stroke-linecap: butt}</style>
 </defs>
 <g id="figure_1">
  <g id="patch_1">
   <path d="M 0 216 
L 720 216 
L 720 0 
L 0 0 
z
" style="fill: #ffffff"/>
  </g>
  <g id="axes_1">
   <g id="patch_2">
    <path d="M 90 192.24 
L 648 192.24 
L 648 25.92 
L 90 25.92 
z
" style="fill: #ffffff"/>
   </g>
   <g id="line2d_1">
    <path d="M 90 192.24 
L 648 192.24 
" clip-path="url(#p0d02e66c99)" style="fill: none; stroke: #000000; stroke-width: 0.5; stroke-linecap: square"/>
   </g>
   <g id="patch_3">
    <path d="M 108.966011 192.035604 
Q 107.379537 192.136918 105.664042 192.188165 
Q 103.948548 192.24 102.08014 192.24 
Q 96.508366 192.24 93.254183 191.855947 
Q 90 191.471894 90 190.815115 
Q 90 190.155981 93.254183 189.772517 
Q 96.508366 189.388464 102.08014 189.388464 
Q 103.948548 189.388464 105.664042 189.440299 
Q 107.379537 189.491545 108.966011 189.59286 
L 108.966011 190.161282 
Q 107.365201 190.026982 105.812177 189.964543 
Q 104.259152 189.902105 102.543658 189.902105 
Q 99.46628 189.902105 97.703001 190.145378 
Q 95.944499 190.388062 95.944499 190.815115 
Q 95.944499 191.240401 97.703001 191.483674 
Q 99.46628 191.726358 102.543658 191.726358 
Q 104.259152 191.726358 105.812177 191.66392 
Q 107.365201 191.600893 108.966011 191.466592 
L 108.966011 192.035604 
z
" clip-path="url(#p0d02e66c99)" style="fill: #0000ff"/>
   </g>
   <g id="patch_4">
    <path d="M 108.966011 188.987924 
Q 107.053258 189.188194 104.995985 189.288786 
Q 102.938713 189.388464 100.745422 189.388464 
Q 95.789266 189.388464 92.894633 188.792226 
Q 90 188.195989 90 187.17635 
Q 90 186.144823 92.94564 185.553158 
Q 95.89553 184.961493 101.02596 184.961493 
Q 103.002471 184.961493 104.813211 185.041966 
Q 106.628201 185.121526 108.234914 185.278815 
L 108.234914 186.161283 
Q 106.577195 185.959184 104.936477 185.859507 
Q 103.29576 185.758914 101.646542 185.758914 
Q 98.594638 185.758914 96.941169 186.126533 
Q 95.2877 186.493237 95.2877 187.17635 
Q 95.2877 187.853061 96.881661 188.222509 
Q 98.475622 188.591042 101.40851 188.591042 
Q 102.207616 188.591042 102.891957 188.570009 
Q 103.576297 188.548062 104.120369 188.502338 
L 104.120369 187.673824 
L 100.996206 187.673824 
L 100.996206 186.935843 
L 108.966011 186.935843 
L 108.966011 188.987924 
z
" clip-path="url(#p0d02e66c99)" style="fill: #ffa600"/>
   </g>
   <g id="patch_5">
    <path d="M 90 176.690462 
L 108.966011 176.690462 
L 108.966011 178.303543 
L 102.142658 178.303543 
L 102.142658 184.961493 
L 96.836585 184.961493 
L 96.836585 178.303543 
L 90 178.303543 
L 90 176.690462 
z
" clip-path="url(#p0d02e66c99)" style="fill: #ff0000"/>
   </g>
   <g id="patch_6">
    <path d="M 103.137772 173.932438 
L 95.843749 173.932438 
L 94.692062 176.690462 
L 90 176.690462 
L 96.700729 161.550536 
L 102.265282 161.550536 
L 108.966011 176.690462 
L 104.277827 176.690462 
L 103.137772 173.932438 
z
M 97.00707 171.122499 
L 101.962818 171.122499 
L 99.488822 165.100274 
L 97.00707 171.122499 
z
" clip-path="url(#p0d02e66c99)" style="fill: #008000"/>
   </g>
   <g id="patch_7">
    <path d="M 128.930233 192.148753 
Q 127.343758 192.193982 125.628264 192.21686 
Q 123.912769 192.24 122.044362 192.24 
Q 116.472588 192.24 113.218405 192.06855 
Q 109.964222 191.8971 109.964222 191.6039 
Q 109.964222 191.309648 113.218405 191.138461 
Q 116.472588 190.967011 122.044362 190.967011 
Q 123.912769 190.967011 125.628264 190.990152 
Q 127.343758 191.013029 128.930233 191.058258 
L 128.930233 191.312015 
Q 127.329423 191.25206 125.776399 191.224186 
Q 124.223374 191.196312 122.50788 191.196312 
Q 119.430502 191.196312 117.667222 191.304915 
Q 115.908721 191.413254 115.908721 191.6039 
Q 115.908721 191.793757 117.667222 191.902359 
Q 119.430502 192.010699 122.50788 192.010699 
Q 124.223374 192.010699 125.776399 191.982825 
Q 127.329423 191.954689 128.930233 191.894734 
L 128.930233 192.148753 
z
" clip-path="url(#p0d02e66c99)" style="fill: #0000ff"/>
   </g>
   <g id="patch_8">
    <path d="M 128.930233 190.834395 
Q 127.017479 190.900703 124.960207 190.934008 
Q 122.902935 190.967011 120.709644 190.967011 
Q 115.753488 190.967011 112.858855 190.7696 
Q 109.964222 190.57219 109.964222 190.234593 
Q 109.964222 189.89306 112.909862 189.697164 
Q 115.859752 189.501267 120.990181 189.501267 
Q 122.966693 189.501267 124.777433 189.527911 
Q 126.592423 189.554253 128.199136 189.60633 
L 128.199136 189.89851 
Q 126.541416 189.831597 124.900699 189.798594 
Q 123.259982 189.765288 121.610764 189.765288 
Q 118.55886 189.765288 116.905391 189.887005 
Q 115.251922 190.008419 115.251922 190.234593 
Q 115.251922 190.458648 116.845883 190.58097 
Q 118.439844 190.702989 121.372732 190.702989 
Q 122.171838 190.702989 122.856178 190.696026 
Q 123.540519 190.688759 124.084591 190.67362 
L 124.084591 190.399304 
L 120.960428 190.399304 
L 120.960428 190.154963 
L 128.930233 190.154963 
L 128.930233 190.834395 
z
" clip-path="url(#p0d02e66c99)" style="fill: #ffa600"/>
   </g>
   <g id="patch_9">
    <path d="M 109.964222 187.055682 
L 128.930233 187.055682 
L 128.930233 187.53264 
L 122.106879 187.53264 
L 122.106879 189.501267 
L 116.800807 189.501267 
L 116.800807 187.53264 
L 109.964222 187.53264 
L 109.964222 187.055682 
z
" clip-path="url(#p0d02e66c99)" style="fill: #ff0000"/>
   </g>
   <g id="patch_10">
    <path d="M 123.101994 186.575059 
L 115.807971 186.575059 
L 114.656283 187.055682 
L 109.964222 187.055682 
L 116.664951 184.417343 
L 122.229503 184.417343 
L 128.930233 187.055682 
L 124.242049 187.055682 
L 123.101994 186.575059 
z
M 116.971292 186.085389 
L 121.92704 186.085389 
L 119.453044 185.035933 
L 116.971292 186.085389 
z
" clip-path="url(#p0d02e66c99)" style="fill: #008000"/>
   </g>
   <g id="patch_11">
    <path d="M 148.894454 192.078924 
Q 146.981701 192.159462 144.924429 192.199915 
Q 142.867156 192.24 140.673866 192.24 
Q 135.71771 192.24 132.823077 192.000224 
Q 129.928444 191.760449 129.928444 191.350403 
Q 129.928444 190.935576 132.874084 190.697639 
Q 135.823974 190.459702 140.954403 190.459702 
Q 142.930915 190.459702 144.741655 190.492065 
Q 146.556645 190.524059 148.163358 190.587313 
L 148.163358 190.942196 
Q 146.505638 190.860922 144.864921 190.820837 
Q 143.224204 190.780384 141.574985 190.780384 
Q 138.523081 190.780384 136.869613 190.928221 
Q 135.216144 191.075691 135.216144 191.350403 
Q 135.216144 191.622541 136.810105 191.771114 
Q 138.404066 191.919318 141.336954 191.919318 
Q 142.13606 191.919318 142.8204 191.91086 
Q 143.504741 191.902034 144.048813 191.883646 
L 144.048813 191.550461 
L 140.924649 191.550461 
L 140.924649 191.253684 
L 148.894454 191.253684 
L 148.894454 192.078924 
z
" clip-path="url(#p0d02e66c99)" style="fill: #ffa600"/>
   </g>
   <g id="patch_12">
    <path d="M 148.894454 190.239284 
Q 147.30798 190.34854 145.592486 190.403804 
Q 143.876991 190.459702 142.008584 190.459702 
Q 136.43681 190.459702 133.182627 190.045544 
Q 129.928444 189.631386 129.928444 188.923125 
Q 129.928444 188.212324 133.182627 187.798801 
Q 136.43681 187.384643 142.008584 187.384643 
Q 143.876991 187.384643 145.592486 187.440542 
Q 147.30798 187.495805 148.894454 187.605061 
L 148.894454 188.218041 
Q 147.293645 188.073212 145.74062 188.00588 
Q 144.187596 187.938547 142.472102 187.938547 
Q 139.394724 187.938547 137.631444 188.20089 
Q 135.872943 188.462597 135.872943 188.923125 
Q 135.872943 189.381748 137.631444 189.644091 
Q 139.394724 189.905798 142.472102 189.905798 
Q 144.187596 189.905798 145.74062 189.838465 
Q 147.293645 189.770498 148.894454 189.62567 
L 148.894454 190.239284 
z
" clip-path="url(#p0d02e66c99)" style="fill: #0000ff"/>
   </g>
   <g id="patch_13">
    <path d="M 129.928444 181.72006 
L 148.894454 181.72006 
L 148.894454 182.824811 
L 142.071101 182.824811 
L 142.071101 187.384643 
L 136.765029 187.384643 
L 136.765029 182.824811 
L 129.928444 182.824811 
L 129.928444 181.72006 
z
" clip-path="url(#p0d02e66c99)" style="fill: #ff0000"/>
   </g>
   <g id="patch_14">
    <path d="M 143.066216 180.613665 
L 135.772193 180.613665 
L 134.620505 181.72006 
L 129.928444 181.72006 
L 136.629173 175.646604 
L 142.193725 175.646604 
L 148.894454 181.72006 
L 144.206271 181.72006 
L 143.066216 180.613665 
z
M 136.935514 179.486444 
L 141.891262 179.486444 
L 139.417266 177.070599 
L 136.935514 179.486444 
z
" clip-path="url(#p0d02e66c99)" style="fill: #008000"/>
   </g>
   <g id="patch_15">
    <path d="M 168.858676 192.162317 
Q 167.272202 192.200823 165.556708 192.220299 
Q 163.841213 192.24 161.972805 192.24 
Q 156.401032 192.24 153.146849 192.094037 
Q 149.892665 191.948074 149.892665 191.69846 
Q 149.892665 191.44795 153.146849 191.302211 
Q 156.401032 191.156248 161.972805 191.156248 
Q 163.841213 191.156248 165.556708 191.175949 
Q 167.272202 191.195425 168.858676 191.233931 
L 168.858676 191.449965 
Q 167.257867 191.398923 165.704842 191.375192 
Q 164.151818 191.351462 162.436323 191.351462 
Q 159.358946 191.351462 157.595666 191.44392 
Q 155.837165 191.536155 155.837165 191.69846 
Q 155.837165 191.860094 157.595666 191.952552 
Q 159.358946 192.044786 162.436323 192.044786 
Q 164.151818 192.044786 165.704842 192.021056 
Q 167.257867 191.997102 168.858676 191.946059 
L 168.858676 192.162317 
z
" clip-path="url(#p0d02e66c99)" style="fill: #0000ff"/>
   </g>
   <g id="patch_16">
    <path d="M 149.892665 189.67968 
L 168.858676 189.67968 
L 168.858676 189.967652 
L 162.035323 189.967652 
L 162.035323 191.156248 
L 156.729251 191.156248 
L 156.729251 189.967652 
L 149.892665 189.967652 
L 149.892665 189.67968 
z
" clip-path="url(#p0d02e66c99)" style="fill: #ff0000"/>
   </g>
   <g id="patch_17">
    <path d="M 168.858676 189.510543 
Q 166.945923 189.595112 164.888651 189.637589 
Q 162.831378 189.67968 160.638088 189.67968 
Q 155.681932 189.67968 152.787299 189.427906 
Q 149.892665 189.176132 149.892665 188.745567 
Q 149.892665 188.309982 152.838305 188.060139 
Q 155.788196 187.810296 160.918625 187.810296 
Q 162.895137 187.810296 164.705876 187.844278 
Q 166.520867 187.877873 168.127579 187.944292 
L 168.127579 188.316933 
Q 166.46986 188.231593 164.829143 188.189502 
Q 163.188426 188.147024 161.539207 188.147024 
Q 158.487303 188.147024 156.833834 188.302259 
Q 155.180365 188.457108 155.180365 188.745567 
Q 155.180365 189.031323 156.774326 189.18733 
Q 158.368287 189.342951 161.301176 189.342951 
Q 162.100282 189.342951 162.784622 189.33407 
Q 163.468963 189.324802 164.013035 189.305494 
L 164.013035 188.955636 
L 160.888871 188.955636 
L 160.888871 188.644008 
L 168.858676 188.644008 
L 168.858676 189.510543 
z
" clip-path="url(#p0d02e66c99)" style="fill: #ffa600"/>
   </g>
   <g id="patch_18">
    <path d="M 163.030438 187.372636 
L 155.736415 187.372636 
L 154.584727 187.810296 
L 149.892665 187.810296 
L 156.593395 185.407804 
L 162.157947 185.407804 
L 168.858676 187.810296 
L 164.170492 187.810296 
L 163.030438 187.372636 
z
M 156.899736 186.926739 
L 161.855484 186.926739 
L 159.381487 185.971097 
L 156.899736 186.926739 
z
" clip-path="url(#p0d02e66c99)" style="fill: #008000"/>
   </g>
   <g id="patch_19">
    <path d="M 188.822898 191.956302 
Q 187.236424 192.096924 185.520929 192.168053 
Q 183.805435 192.24 181.937027 192.24 
Q 176.365254 192.24 173.111071 191.706941 
Q 169.856887 191.173883 169.856887 190.262287 
Q 169.856887 189.347421 173.111071 188.81518 
Q 176.365254 188.282121 181.937027 188.282121 
Q 183.805435 188.282121 185.520929 188.354068 
Q 187.236424 188.425197 188.822898 188.56582 
L 188.822898 189.354779 
Q 187.222088 189.168372 185.669064 189.081709 
Q 184.11604 188.995046 182.400545 188.995046 
Q 179.323168 188.995046 177.559888 189.332705 
Q 175.801387 189.669545 175.801387 190.262287 
Q 175.801387 190.852576 177.559888 191.190234 
Q 179.323168 191.527075 182.400545 191.527075 
Q 184.11604 191.527075 185.669064 191.440412 
Q 187.222088 191.352932 188.822898 191.166525 
L 188.822898 191.956302 
z
" clip-path="url(#p0d02e66c99)" style="fill: #0000ff"/>
   </g>
   <g id="patch_20">
    <path d="M 188.822898 187.637546 
Q 186.910145 187.959833 184.852872 188.121713 
Q 182.7956 188.282121 180.60231 188.282121 
Q 175.646154 188.282121 172.75152 187.322616 
Q 169.856887 186.36311 169.856887 184.722238 
Q 169.856887 183.062235 172.802527 182.110087 
Q 175.752418 181.15794 180.882847 181.15794 
Q 182.859359 181.15794 184.670098 181.287444 
Q 186.485089 181.415476 188.091801 181.668597 
L 188.091801 183.088724 
Q 186.434082 182.763493 184.793365 182.603085 
Q 183.152647 182.441205 181.503429 182.441205 
Q 178.451525 182.441205 176.798056 183.032802 
Q 175.144587 183.622927 175.144587 184.722238 
Q 175.144587 185.811247 176.738548 186.405788 
Q 178.332509 186.998856 181.265398 186.998856 
Q 182.064503 186.998856 182.748844 186.965009 
Q 183.433185 186.929689 183.977257 186.856108 
L 183.977257 185.522807 
L 180.853093 185.522807 
L 180.853093 184.335198 
L 188.822898 184.335198 
L 188.822898 187.637546 
z
" clip-path="url(#p0d02e66c99)" style="fill: #ffa600"/>
   </g>
   <g id="patch_21">
    <path d="M 169.856887 170.234195 
L 188.822898 170.234195 
L 188.822898 172.36463 
L 181.999545 172.36463 
L 181.999545 181.15794 
L 176.693473 181.15794 
L 176.693473 172.36463 
L 169.856887 172.36463 
L 169.856887 170.234195 
z
" clip-path="url(#p0d02e66c99)" style="fill: #ff0000"/>
   </g>
   <g id="patch_22">
    <path d="M 182.99466 163.006868 
L 175.700637 163.006868 
L 174.548949 170.234195 
L 169.856887 170.234195 
L 176.557617 130.56042 
L 182.122169 130.56042 
L 188.822898 170.234195 
L 184.134714 170.234195 
L 182.99466 163.006868 
z
M 176.863958 155.643497 
L 181.819705 155.643497 
L 179.345709 139.862415 
L 176.863958 155.643497 
z
" clip-path="url(#p0d02e66c99)" style="fill: #008000"/>
   </g>
   <g id="patch_23">
    <path d="M 189.821109 189.685773 
L 208.78712 189.685773 
L 208.78712 190.183919 
L 201.963767 190.183919 
L 201.963767 192.24 
L 196.657694 192.24 
L 196.657694 190.183919 
L 189.821109 190.183919 
L 189.821109 189.685773 
z
" clip-path="url(#p0d02e66c99)" style="fill: #ff0000"/>
   </g>
   <g id="patch_24">
    <path d="M 208.78712 189.481563 
Q 207.200646 189.582785 205.485151 189.633985 
Q 203.769657 189.685773 201.901249 189.685773 
Q 196.329476 189.685773 193.075292 189.302069 
Q 189.821109 188.918365 189.821109 188.262183 
Q 189.821109 187.603648 193.075292 187.220532 
Q 196.329476 186.836828 201.901249 186.836828 
Q 203.769657 186.836828 205.485151 186.888616 
Q 207.200646 186.939816 208.78712 187.041039 
L 208.78712 187.608945 
Q 207.18631 187.474766 205.633286 187.412385 
Q 204.080262 187.350003 202.364767 187.350003 
Q 199.28739 187.350003 197.52411 187.593055 
Q 195.765608 187.835518 195.765608 188.262183 
Q 195.765608 188.687083 197.52411 188.930135 
Q 199.28739 189.172598 202.364767 189.172598 
Q 204.080262 189.172598 205.633286 189.110217 
Q 207.18631 189.047247 208.78712 188.913068 
L 208.78712 189.481563 
z
" clip-path="url(#p0d02e66c99)" style="fill: #0000ff"/>
   </g>
   <g id="patch_25">
    <path d="M 208.78712 186.528696 
Q 206.874367 186.682762 204.817094 186.760147 
Q 202.759822 186.836828 200.566532 186.836828 
Q 195.610376 186.836828 192.715742 186.378147 
Q 189.821109 185.919466 189.821109 185.135066 
Q 189.821109 184.341519 192.766749 183.886356 
Q 195.71664 183.431193 200.847069 183.431193 
Q 202.82358 183.431193 204.63432 183.4931 
Q 206.44931 183.554305 208.056023 183.675306 
L 208.056023 184.354182 
Q 206.398304 184.198709 204.757586 184.122028 
Q 203.116869 184.044643 201.467651 184.044643 
Q 198.415747 184.044643 196.762278 184.327449 
Q 195.108809 184.609552 195.108809 185.135066 
Q 195.108809 185.655654 196.70277 185.939868 
Q 198.296731 186.223378 201.229619 186.223378 
Q 202.028725 186.223378 202.713066 186.207197 
Q 203.397406 186.190313 203.941478 186.155138 
L 203.941478 185.517769 
L 200.817315 185.517769 
L 200.817315 184.950046 
L 208.78712 184.950046 
L 208.78712 186.528696 
z
" clip-path="url(#p0d02e66c99)" style="fill: #ffa600"/>
   </g>
   <g id="patch_26">
    <path d="M 202.958881 182.130737 
L 195.664858 182.130737 
L 194.513171 183.431193 
L 189.821109 183.431193 
L 196.521838 176.292456 
L 202.086391 176.292456 
L 208.78712 183.431193 
L 204.098936 183.431193 
L 202.958881 182.130737 
z
M 196.82818 180.805802 
L 201.783927 180.805802 
L 199.309931 177.966219 
L 196.82818 180.805802 
z
" clip-path="url(#p0d02e66c99)" style="fill: #008000"/>
   </g>
   <g id="patch_27">
    <path d="M 228.751342 192.037003 
Q 227.164868 192.137624 225.449373 192.18852 
Q 223.733879 192.24 221.865471 192.24 
Q 216.293697 192.24 213.039514 191.858577 
Q 209.785331 191.477154 209.785331 190.824873 
Q 209.785331 190.170253 213.039514 189.789415 
Q 216.293697 189.407991 221.865471 189.407991 
Q 223.733879 189.407991 225.449373 189.459472 
Q 227.164868 189.510367 228.751342 189.610988 
L 228.751342 190.175518 
Q 227.150532 190.042137 225.597508 189.980126 
Q 224.044483 189.918116 222.328989 189.918116 
Q 219.251611 189.918116 217.488332 190.159723 
Q 215.72983 190.400745 215.72983 190.824873 
Q 215.72983 191.247247 217.488332 191.488854 
Q 219.251611 191.729876 222.328989 191.729876 
Q 224.044483 191.729876 225.597508 191.667865 
Q 227.150532 191.60527 228.751342 191.471889 
L 228.751342 192.037003 
z
" clip-path="url(#p0d02e66c99)" style="fill: #0000ff"/>
   </g>
   <g id="patch_28">
    <path d="M 228.751342 189.099644 
Q 226.838588 189.253818 224.781316 189.331257 
Q 222.724044 189.407991 220.530753 189.407991 
Q 215.574597 189.407991 212.679964 188.948991 
Q 209.785331 188.48999 209.785331 187.705042 
Q 209.785331 186.910943 212.730971 186.455462 
Q 215.680861 185.999981 220.811291 185.999981 
Q 222.787802 185.999981 224.598542 186.061932 
Q 226.413532 186.123179 228.020245 186.244265 
L 228.020245 186.923615 
Q 226.362525 186.768033 224.721808 186.691298 
Q 223.081091 186.613859 221.431873 186.613859 
Q 218.379969 186.613859 216.7265 186.896863 
Q 215.073031 187.179163 215.073031 187.705042 
Q 215.073031 188.225994 216.666992 188.510406 
Q 218.260953 188.794113 221.193841 188.794113 
Q 221.992947 188.794113 222.677288 188.777921 
Q 223.361628 188.761026 223.9057 188.725826 
L 223.9057 188.088012 
L 220.781537 188.088012 
L 220.781537 187.519893 
L 228.751342 187.519893 
L 228.751342 189.099644 
z
" clip-path="url(#p0d02e66c99)" style="fill: #ffa600"/>
   </g>
   <g id="patch_29">
    <path d="M 209.785331 179.711962 
L 228.751342 179.711962 
L 228.751342 180.938301 
L 221.927989 180.938301 
L 221.927989 185.999981 
L 216.621916 185.999981 
L 216.621916 180.938301 
L 209.785331 180.938301 
L 209.785331 179.711962 
z
" clip-path="url(#p0d02e66c99)" style="fill: #ff0000"/>
   </g>
   <g id="patch_30">
    <path d="M 222.923103 177.735788 
L 215.62908 177.735788 
L 214.477392 179.711962 
L 209.785331 179.711962 
L 216.48606 168.863929 
L 222.050612 168.863929 
L 228.751342 179.711962 
L 224.063158 179.711962 
L 222.923103 177.735788 
z
M 216.792401 175.722415 
L 221.748149 175.722415 
L 219.274153 171.407381 
L 216.792401 175.722415 
z
" clip-path="url(#p0d02e66c99)" style="fill: #008000"/>
   </g>
   <g id="patch_31">
    <path d="M 248.715564 192.05329 
Q 247.129089 192.145838 245.413595 192.19265 
Q 243.6981 192.24 241.829693 192.24 
Q 236.257919 192.24 233.003736 191.88918 
Q 229.749553 191.538359 229.749553 190.938413 
Q 229.749553 190.336315 233.003736 189.986033 
Q 236.257919 189.635212 241.829693 189.635212 
Q 243.6981 189.635212 245.413595 189.682562 
Q 247.129089 189.729374 248.715564 189.821922 
L 248.715564 190.341158 
Q 247.114754 190.218478 245.56173 190.161443 
Q 244.008705 190.104408 242.293211 190.104408 
Q 239.215833 190.104408 237.452553 190.32663 
Q 235.694052 190.548314 235.694052 190.938413 
Q 235.694052 191.326898 237.452553 191.549121 
Q 239.215833 191.770805 242.293211 191.770805 
Q 244.008705 191.770805 245.56173 191.713769 
Q 247.114754 191.656196 248.715564 191.533517 
L 248.715564 192.05329 
z
" clip-path="url(#p0d02e66c99)" style="fill: #0000ff"/>
   </g>
   <g id="patch_32">
    <path d="M 248.715564 189.34062 
Q 246.80281 189.487916 244.745538 189.561901 
Q 242.688266 189.635212 240.494975 189.635212 
Q 235.538819 189.635212 232.644186 189.196687 
Q 229.749553 188.758161 229.749553 188.008229 
Q 229.749553 187.249553 232.695193 186.81439 
Q 235.645083 186.379228 240.775512 186.379228 
Q 242.752024 186.379228 244.562764 186.438415 
Q 246.377754 186.49693 247.984467 186.612615 
L 247.984467 187.26166 
Q 246.326747 187.113018 244.68603 187.039706 
Q 243.045313 186.965722 241.396095 186.965722 
Q 238.344191 186.965722 236.690722 187.236101 
Q 235.037253 187.505808 235.037253 188.008229 
Q 235.037253 188.505942 236.631214 188.777666 
Q 238.225175 189.048718 241.158063 189.048718 
Q 241.957169 189.048718 242.641509 189.033249 
Q 243.32585 189.017107 243.869922 188.983477 
L 243.869922 188.374115 
L 240.745758 188.374115 
L 240.745758 187.831339 
L 248.715564 187.831339 
L 248.715564 189.34062 
z
" clip-path="url(#p0d02e66c99)" style="fill: #ffa600"/>
   </g>
   <g id="patch_33">
    <path d="M 242.887325 184.846191 
L 235.593302 184.846191 
L 234.441614 186.379228 
L 229.749553 186.379228 
L 236.450282 177.96376 
L 242.014834 177.96376 
L 248.715564 186.379228 
L 244.02738 186.379228 
L 242.887325 184.846191 
z
M 236.756623 183.284298 
L 241.712371 183.284298 
L 239.238375 179.936868 
L 236.756623 183.284298 
z
" clip-path="url(#p0d02e66c99)" style="fill: #008000"/>
   </g>
   <g id="patch_34">
    <path d="M 229.749553 167.845162 
L 248.715564 167.845162 
L 248.715564 169.818571 
L 241.89221 169.818571 
L 241.89221 177.96376 
L 236.586138 177.96376 
L 236.586138 169.818571 
L 229.749553 169.818571 
L 229.749553 167.845162 
z
" clip-path="url(#p0d02e66c99)" style="fill: #ff0000"/>
   </g>
   <g id="patch_35">
    <path d="M 268.679785 191.719229 
Q 266.767032 191.979615 264.70976 192.110402 
Q 262.652487 192.24 260.459197 192.24 
Q 255.503041 192.24 252.608408 191.464789 
Q 249.713775 190.689578 249.713775 189.363872 
Q 249.713775 188.022709 252.659415 187.253443 
Q 255.609305 186.484177 260.739734 186.484177 
Q 262.716246 186.484177 264.526986 186.588806 
Q 266.341976 186.692247 267.948689 186.896751 
L 267.948689 188.044111 
Q 266.290969 187.781347 264.650252 187.651749 
Q 263.009535 187.520962 261.360316 187.520962 
Q 258.308412 187.520962 256.654943 187.99893 
Q 255.001475 188.475708 255.001475 189.363872 
Q 255.001475 190.243713 256.595436 190.724058 
Q 258.189397 191.203215 261.122285 191.203215 
Q 261.921391 191.203215 262.605731 191.175868 
Q 263.290072 191.147333 263.834144 191.087884 
L 263.834144 190.010674 
L 260.70998 190.010674 
L 260.70998 189.051172 
L 268.679785 189.051172 
L 268.679785 191.719229 
z
" clip-path="url(#p0d02e66c99)" style="fill: #ffa600"/>
   </g>
   <g id="patch_36">
    <path d="M 249.713775 179.178708 
L 268.679785 179.178708 
L 268.679785 180.603478 
L 261.856432 180.603478 
L 261.856432 186.484177 
L 256.55036 186.484177 
L 256.55036 180.603478 
L 249.713775 180.603478 
L 249.713775 179.178708 
z
" clip-path="url(#p0d02e66c99)" style="fill: #ff0000"/>
   </g>
   <g id="patch_37">
    <path d="M 268.679785 178.496374 
Q 267.093311 178.834592 265.377817 179.005667 
Q 263.662322 179.178708 261.793914 179.178708 
Q 256.222141 179.178708 252.967958 177.896629 
Q 249.713775 176.614549 249.713775 174.422035 
Q 249.713775 172.221655 252.967958 170.941542 
Q 256.222141 169.659462 261.793914 169.659462 
Q 263.662322 169.659462 265.377817 169.832503 
Q 267.093311 170.003578 268.679785 170.341796 
L 268.679785 172.239353 
Q 267.078976 171.791018 265.525951 171.582582 
Q 263.972927 171.374145 262.257432 171.374145 
Q 259.180055 171.374145 257.416775 172.18626 
Q 255.658274 172.996409 255.658274 174.422035 
Q 255.658274 175.841761 257.416775 176.653876 
Q 259.180055 177.464025 262.257432 177.464025 
Q 263.972927 177.464025 265.525951 177.255589 
Q 267.078976 177.045186 268.679785 176.596851 
L 268.679785 178.496374 
z
" clip-path="url(#p0d02e66c99)" style="fill: #0000ff"/>
   </g>
   <g id="patch_38">
    <path d="M 262.851547 154.133124 
L 255.557524 154.133124 
L 254.405836 169.659462 
L 249.713775 169.659462 
L 256.414504 84.429 
L 261.979056 84.429 
L 268.679785 169.659462 
L 263.991602 169.659462 
L 262.851547 154.133124 
z
M 256.720845 138.314526 
L 261.676593 138.314526 
L 259.202597 104.41231 
L 256.720845 138.314526 
z
" clip-path="url(#p0d02e66c99)" style="fill: #008000"/>
   </g>
   <g id="patch_39">
    <path d="M 288.644007 191.588028 
Q 286.731254 191.914014 284.673982 192.077751 
Q 282.616709 192.24 280.423419 192.24 
Q 275.467263 192.24 272.57263 191.269484 
Q 269.677996 190.298968 269.677996 188.639267 
Q 269.677996 186.960215 272.623636 185.997141 
Q 275.573527 185.034068 280.703956 185.034068 
Q 282.680468 185.034068 284.491207 185.165058 
Q 286.306198 185.294559 287.91291 185.550585 
L 287.91291 186.987008 
Q 286.255191 186.658045 284.614474 186.495796 
Q 282.973757 186.332059 281.324538 186.332059 
Q 278.272634 186.332059 276.619165 186.930444 
Q 274.965696 187.527341 274.965696 188.639267 
Q 274.965696 189.740773 276.559657 190.342135 
Q 278.153618 190.942009 281.086507 190.942009 
Q 281.885612 190.942009 282.569953 190.907773 
Q 283.254294 190.872049 283.798366 190.797623 
L 283.798366 189.449022 
L 280.674202 189.449022 
L 280.674202 188.247786 
L 288.644007 188.247786 
L 288.644007 191.588028 
z
" clip-path="url(#p0d02e66c99)" style="fill: #ffa600"/>
   </g>
   <g id="patch_40">
    <path d="M 269.677996 177.627971 
L 288.644007 177.627971 
L 288.644007 179.072366 
L 281.820654 179.072366 
L 281.820654 185.034068 
L 276.514582 185.034068 
L 276.514582 179.072366 
L 269.677996 179.072366 
L 269.677996 177.627971 
z
" clip-path="url(#p0d02e66c99)" style="fill: #ff0000"/>
   </g>
   <g id="patch_41">
    <path d="M 288.644007 177.039716 
Q 287.057533 177.3313 285.342039 177.478788 
Q 283.626544 177.627971 281.758136 177.627971 
Q 276.186363 177.627971 272.93218 176.522661 
Q 269.677996 175.417351 269.677996 173.527136 
Q 269.677996 171.630139 272.93218 170.526525 
Q 276.186363 169.421215 281.758136 169.421215 
Q 283.626544 169.421215 285.342039 169.570398 
Q 287.057533 169.717886 288.644007 170.00947 
L 288.644007 171.645397 
Q 287.043197 171.258877 285.490173 171.07918 
Q 283.937149 170.899482 282.221654 170.899482 
Q 279.144277 170.899482 277.380997 171.599625 
Q 275.622496 172.298072 275.622496 173.527136 
Q 275.622496 174.751114 277.380997 175.451257 
Q 279.144277 176.149704 282.221654 176.149704 
Q 283.937149 176.149704 285.490173 175.970006 
Q 287.043197 175.788613 288.644007 175.402094 
L 288.644007 177.039716 
z
" clip-path="url(#p0d02e66c99)" style="fill: #0000ff"/>
   </g>
   <g id="patch_42">
    <path d="M 282.815769 155.82022 
L 275.521746 155.82022 
L 274.370058 169.421215 
L 269.677996 169.421215 
L 276.378726 94.759752 
L 281.943278 94.759752 
L 288.644007 169.421215 
L 283.955823 169.421215 
L 282.815769 155.82022 
z
M 276.685067 141.963206 
L 281.640814 141.963206 
L 279.166818 112.265033 
L 276.685067 141.963206 
z
" clip-path="url(#p0d02e66c99)" style="fill: #008000"/>
   </g>
   <g id="patch_43">
    <path d="M 308.608229 191.809788 
Q 306.695476 192.024894 304.638203 192.132938 
Q 302.580931 192.24 300.387641 192.24 
Q 295.431485 192.24 292.536851 191.599593 
Q 289.642218 190.959187 289.642218 189.864013 
Q 289.642218 188.75607 292.587858 188.120574 
Q 295.537749 187.485079 300.668178 187.485079 
Q 302.64469 187.485079 304.455429 187.571514 
Q 306.270419 187.656967 307.877132 187.825909 
L 307.877132 188.77375 
Q 306.219413 188.556679 304.578696 188.449618 
Q 302.937978 188.341573 301.28876 188.341573 
Q 298.236856 188.341573 296.583387 188.736425 
Q 294.929918 189.130295 294.929918 189.864013 
Q 294.929918 190.590855 296.523879 190.987671 
Q 298.11784 191.383505 301.050729 191.383505 
Q 301.849834 191.383505 302.534175 191.360914 
Q 303.218515 191.337341 303.762588 191.28823 
L 303.762588 190.39834 
L 300.638424 190.39834 
L 300.638424 189.605689 
L 308.608229 189.605689 
L 308.608229 191.809788 
z
" clip-path="url(#p0d02e66c99)" style="fill: #ffa600"/>
   </g>
   <g id="patch_44">
    <path d="M 302.779991 186.500762 
L 295.485968 186.500762 
L 294.33428 187.485079 
L 289.642218 187.485079 
L 296.342947 182.081759 
L 301.9075 182.081759 
L 308.608229 187.485079 
L 303.920045 187.485079 
L 302.779991 186.500762 
z
M 296.649289 185.497917 
L 301.605036 185.497917 
L 299.13104 183.348632 
L 296.649289 185.497917 
z
" clip-path="url(#p0d02e66c99)" style="fill: #008000"/>
   </g>
   <g id="patch_45">
    <path d="M 308.608229 181.345876 
Q 307.021755 181.710637 305.30626 181.895137 
Q 303.590766 182.081759 301.722358 182.081759 
Q 296.150585 182.081759 292.896401 180.699063 
Q 289.642218 179.316367 289.642218 176.951786 
Q 289.642218 174.578723 292.896401 173.198148 
Q 296.150585 171.815452 301.722358 171.815452 
Q 303.590766 171.815452 305.30626 172.002073 
Q 307.021755 172.186574 308.608229 172.551334 
L 308.608229 174.59781 
Q 307.007419 174.11429 305.454395 173.889496 
Q 303.901371 173.664702 302.185876 173.664702 
Q 299.108499 173.664702 297.345219 174.540551 
Q 295.586717 175.414279 295.586717 176.951786 
Q 295.586717 178.482932 297.345219 179.358781 
Q 299.108499 180.232509 302.185876 180.232509 
Q 303.901371 180.232509 305.454395 180.007715 
Q 307.007419 179.7808 308.608229 179.29728 
L 308.608229 181.345876 
z
" clip-path="url(#p0d02e66c99)" style="fill: #0000ff"/>
   </g>
   <g id="patch_46">
    <path d="M 289.642218 139.611666 
L 308.608229 139.611666 
L 308.608229 145.892302 
L 301.784876 145.892302 
L 301.784876 171.815452 
L 296.478804 171.815452 
L 296.478804 145.892302 
L 289.642218 145.892302 
L 289.642218 139.611666 
z
" clip-path="url(#p0d02e66c99)" style="fill: #ff0000"/>
   </g>
   <g id="patch_47">
    <path d="M 328.572451 192.084077 
Q 326.659698 192.162039 324.602425 192.201197 
Q 322.545153 192.24 320.351863 192.24 
Q 315.395706 192.24 312.501073 192.007896 
Q 309.60644 191.775792 309.60644 191.378866 
Q 309.60644 190.977312 312.55208 190.746988 
Q 315.501971 190.516664 320.6324 190.516664 
Q 322.608911 190.516664 324.419651 190.547991 
Q 326.234641 190.578962 327.841354 190.640191 
L 327.841354 190.983719 
Q 326.183635 190.905046 324.542917 190.866244 
Q 322.9022 190.827085 321.252982 190.827085 
Q 318.201078 190.827085 316.547609 190.970192 
Q 314.89414 191.112943 314.89414 191.378866 
Q 314.89414 191.642297 316.488101 191.786116 
Q 318.082062 191.929579 321.01495 191.929579 
Q 321.814056 191.929579 322.498397 191.921391 
Q 323.182737 191.912847 323.726809 191.895048 
L 323.726809 191.572523 
L 320.602646 191.572523 
L 320.602646 191.285241 
L 328.572451 191.285241 
L 328.572451 192.084077 
z
" clip-path="url(#p0d02e66c99)" style="fill: #ffa600"/>
   </g>
   <g id="patch_48">
    <path d="M 309.60644 187.861031 
L 328.572451 187.861031 
L 328.572451 188.378953 
L 321.749098 188.378953 
L 321.749098 190.516664 
L 316.443025 190.516664 
L 316.443025 188.378953 
L 309.60644 188.378953 
L 309.60644 187.861031 
z
" clip-path="url(#p0d02e66c99)" style="fill: #ff0000"/>
   </g>
   <g id="patch_49">
    <path d="M 328.572451 187.575499 
Q 326.985977 187.717031 325.270482 187.788619 
Q 323.554988 187.861031 321.68658 187.861031 
Q 316.114807 187.861031 312.860623 187.324528 
Q 309.60644 186.788025 309.60644 185.87054 
Q 309.60644 184.949763 312.860623 184.414084 
Q 316.114807 183.877581 321.68658 183.877581 
Q 323.554988 183.877581 325.270482 183.949992 
Q 326.985977 184.021581 328.572451 184.163112 
L 328.572451 184.957169 
Q 326.971641 184.769558 325.418617 184.682335 
Q 323.865593 184.595112 322.150098 184.595112 
Q 319.072721 184.595112 317.309441 184.934952 
Q 315.550939 185.273969 315.550939 185.87054 
Q 315.550939 186.464643 317.309441 186.804483 
Q 319.072721 187.1435 322.150098 187.1435 
Q 323.865593 187.1435 325.418617 187.056277 
Q 326.971641 186.968231 328.572451 186.78062 
L 328.572451 187.575499 
z
" clip-path="url(#p0d02e66c99)" style="fill: #0000ff"/>
   </g>
   <g id="patch_50">
    <path d="M 322.744212 182.894594 
L 315.450189 182.894594 
L 314.298502 183.877581 
L 309.60644 183.877581 
L 316.307169 178.481561 
L 321.871722 178.481561 
L 328.572451 183.877581 
L 323.884267 183.877581 
L 322.744212 182.894594 
z
M 316.61351 181.893104 
L 321.569258 181.893104 
L 319.095262 179.746723 
L 316.61351 181.893104 
z
" clip-path="url(#p0d02e66c99)" style="fill: #008000"/>
   </g>
   <g id="patch_51">
    <path d="M 348.536673 191.912489 
Q 346.950199 192.074829 345.234704 192.156942 
Q 343.519209 192.24 341.650802 192.24 
Q 336.079028 192.24 332.824845 191.624619 
Q 329.570662 191.009238 329.570662 189.956861 
Q 329.570662 188.900708 332.824845 188.286271 
Q 336.079028 187.67089 341.650802 187.67089 
Q 343.519209 187.67089 345.234704 187.753948 
Q 346.950199 187.836061 348.536673 187.998401 
L 348.536673 188.909203 
Q 346.935863 188.694008 345.382839 188.593962 
Q 343.829814 188.493915 342.11432 188.493915 
Q 339.036942 188.493915 337.273662 188.883719 
Q 335.515161 189.27258 335.515161 189.956861 
Q 335.515161 190.63831 337.273662 191.028115 
Q 339.036942 191.416975 342.11432 191.416975 
Q 343.829814 191.416975 345.382839 191.316928 
Q 346.935863 191.215938 348.536673 191.000743 
L 348.536673 191.912489 
z
" clip-path="url(#p0d02e66c99)" style="fill: #0000ff"/>
   </g>
   <g id="patch_52">
    <path d="M 329.570662 181.324904 
L 348.536673 181.324904 
L 348.536673 182.562548 
L 341.713319 182.562548 
L 341.713319 187.67089 
L 336.407247 187.67089 
L 336.407247 182.562548 
L 329.570662 182.562548 
L 329.570662 181.324904 
z
" clip-path="url(#p0d02e66c99)" style="fill: #ff0000"/>
   </g>
   <g id="patch_53">
    <path d="M 348.536673 180.360304 
Q 346.623919 180.842604 344.566647 181.084855 
Q 342.509375 181.324904 340.316084 181.324904 
Q 335.359928 181.324904 332.465295 179.889015 
Q 329.570662 178.453126 329.570662 175.997579 
Q 329.570662 173.513403 332.516302 172.088525 
Q 335.466192 170.663647 340.596622 170.663647 
Q 342.573133 170.663647 344.383873 170.857448 
Q 346.198863 171.049047 347.805576 171.42784 
L 347.805576 173.553044 
Q 346.147856 173.066339 344.507139 172.82629 
Q 342.866422 172.584039 341.217204 172.584039 
Q 338.1653 172.584039 336.511831 173.469357 
Q 334.858362 174.352473 334.858362 175.997579 
Q 334.858362 177.627269 336.452323 178.516992 
Q 338.046284 179.404512 340.979172 179.404512 
Q 341.778278 179.404512 342.462619 179.35386 
Q 343.146959 179.301005 343.691031 179.190891 
L 343.691031 177.195622 
L 340.566868 177.195622 
L 340.566868 175.418378 
L 348.536673 175.418378 
L 348.536673 180.360304 
z
" clip-path="url(#p0d02e66c99)" style="fill: #ffa600"/>
   </g>
   <g id="patch_54">
    <path d="M 342.708434 152.074505 
L 335.414411 152.074505 
L 334.262723 170.663647 
L 329.570662 170.663647 
L 336.271391 68.620191 
L 341.835943 68.620191 
L 348.536673 170.663647 
L 343.848489 170.663647 
L 342.708434 152.074505 
z
M 336.577732 133.135449 
L 341.53348 133.135449 
L 339.059484 92.545511 
L 336.577732 133.135449 
z
" clip-path="url(#p0d02e66c99)" style="fill: #008000"/>
   </g>
   <g id="patch_55">
    <path d="M 368.500894 191.837341 
Q 366.91442 192.03693 365.198926 192.137885 
Q 363.483431 192.24 361.615024 192.24 
Q 356.04325 192.24 352.789067 191.483419 
Q 349.534884 190.726838 349.534884 189.432991 
Q 349.534884 188.134503 352.789067 187.379082 
Q 356.04325 186.622501 361.615024 186.622501 
Q 363.483431 186.622501 365.198926 186.724616 
Q 366.91442 186.825571 368.500894 187.02516 
L 368.500894 188.144946 
Q 366.900085 187.880375 365.34706 187.757372 
Q 363.794036 187.63437 362.078542 187.63437 
Q 359.001164 187.63437 357.237884 188.113615 
Q 355.479383 188.5917 355.479383 189.432991 
Q 355.479383 190.2708 357.237884 190.750046 
Q 359.001164 191.228131 362.078542 191.228131 
Q 363.794036 191.228131 365.34706 191.105128 
Q 366.900085 190.980965 368.500894 190.716394 
L 368.500894 191.837341 
z
" clip-path="url(#p0d02e66c99)" style="fill: #0000ff"/>
   </g>
   <g id="patch_56">
    <path d="M 368.500894 186.032561 
Q 366.588141 186.327531 364.530869 186.475689 
Q 362.473597 186.622501 360.280306 186.622501 
Q 355.32415 186.622501 352.429517 185.744326 
Q 349.534884 184.866151 349.534884 183.364365 
Q 349.534884 181.845069 352.480524 180.973629 
Q 355.430414 180.102189 360.560843 180.102189 
Q 362.537355 180.102189 364.348095 180.220715 
Q 366.163085 180.337895 367.769798 180.569561 
L 367.769798 181.869313 
Q 366.112078 181.57165 364.471361 181.424838 
Q 362.830644 181.27668 361.181425 181.27668 
Q 358.129521 181.27668 356.476053 181.818131 
Q 354.822584 182.358235 354.822584 183.364365 
Q 354.822584 184.361066 356.416545 184.905211 
Q 358.010506 185.448009 360.943394 185.448009 
Q 361.7425 185.448009 362.42684 185.417031 
Q 363.111181 185.384705 363.655253 185.317361 
L 363.655253 184.097075 
L 360.531089 184.097075 
L 360.531089 183.010132 
L 368.500894 183.010132 
L 368.500894 186.032561 
z
" clip-path="url(#p0d02e66c99)" style="fill: #ffa600"/>
   </g>
   <g id="patch_57">
    <path d="M 349.534884 173.280939 
L 368.500894 173.280939 
L 368.500894 174.611273 
L 361.677541 174.611273 
L 361.677541 180.102189 
L 356.371469 180.102189 
L 356.371469 174.611273 
L 349.534884 174.611273 
L 349.534884 173.280939 
z
" clip-path="url(#p0d02e66c99)" style="fill: #ff0000"/>
   </g>
   <g id="patch_58">
    <path d="M 362.672656 167.835343 
L 355.378633 167.835343 
L 354.226945 173.280939 
L 349.534884 173.280939 
L 356.235613 143.387817 
L 361.800165 143.387817 
L 368.500894 173.280939 
L 363.812711 173.280939 
L 362.672656 167.835343 
z
M 356.541954 162.287241 
L 361.497702 162.287241 
L 359.023706 150.39662 
L 356.541954 162.287241 
z
" clip-path="url(#p0d02e66c99)" style="fill: #008000"/>
   </g>
   <g id="patch_59">
    <path d="M 382.636878 191.236093 
L 375.342855 191.236093 
L 374.191167 192.24 
L 369.499106 192.24 
L 376.199835 186.72914 
L 381.764387 186.72914 
L 388.465116 192.24 
L 383.776932 192.24 
L 382.636878 191.236093 
z
M 376.506176 190.213289 
L 381.461924 190.213289 
L 378.987928 188.021228 
L 376.506176 190.213289 
z
" clip-path="url(#p0d02e66c99)" style="fill: #008000"/>
   </g>
   <g id="patch_60">
    <path d="M 388.465116 186.11547 
Q 386.552363 186.422305 384.495091 186.576423 
Q 382.437818 186.72914 380.244528 186.72914 
Q 375.288372 186.72914 372.393739 185.81564 
Q 369.499106 184.90214 369.499106 183.339943 
Q 369.499106 181.759532 372.444745 180.853038 
Q 375.394636 179.946543 380.525065 179.946543 
Q 382.501577 179.946543 384.312317 180.069838 
Q 386.127307 180.191731 387.734019 180.432716 
L 387.734019 181.784752 
Q 386.0763 181.475114 384.435583 181.322397 
Q 382.794866 181.168279 381.145647 181.168279 
Q 378.093743 181.168279 376.440274 181.731511 
Q 374.786806 182.293341 374.786806 183.339943 
Q 374.786806 184.376738 376.380767 184.942771 
Q 377.974728 185.507404 380.907616 185.507404 
Q 381.706722 185.507404 382.391062 185.475179 
Q 383.075403 185.441553 383.619475 185.3715 
L 383.619475 184.102127 
L 380.495311 184.102127 
L 380.495311 182.971461 
L 388.465116 182.971461 
L 388.465116 186.11547 
z
" clip-path="url(#p0d02e66c99)" style="fill: #ffa600"/>
   </g>
   <g id="patch_61">
    <path d="M 388.465116 179.237542 
Q 386.878642 179.588978 385.163148 179.766739 
Q 383.447653 179.946543 381.579245 179.946543 
Q 376.007472 179.946543 372.753289 178.614356 
Q 369.499106 177.282168 369.499106 175.003964 
Q 369.499106 172.717588 372.753289 171.387443 
Q 376.007472 170.055256 381.579245 170.055256 
Q 383.447653 170.055256 385.163148 170.23506 
Q 386.878642 170.412822 388.465116 170.764258 
L 388.465116 172.735977 
Q 386.864307 172.27012 385.311282 172.053537 
Q 383.758258 171.836954 382.042763 171.836954 
Q 378.965386 171.836954 377.202106 172.680809 
Q 375.443605 173.522621 375.443605 175.003964 
Q 375.443605 176.479178 377.202106 177.323033 
Q 378.965386 178.164845 382.042763 178.164845 
Q 383.758258 178.164845 385.311282 177.948262 
Q 386.864307 177.729636 388.465116 177.263779 
L 388.465116 179.237542 
z
" clip-path="url(#p0d02e66c99)" style="fill: #0000ff"/>
   </g>
   <g id="patch_62">
    <path d="M 369.499106 123.424902 
L 388.465116 123.424902 
L 388.465116 132.519121 
L 381.641763 132.519121 
L 381.641763 170.055256 
L 376.335691 170.055256 
L 376.335691 132.519121 
L 369.499106 132.519121 
L 369.499106 123.424902 
z
" clip-path="url(#p0d02e66c99)" style="fill: #ff0000"/>
   </g>
   <g id="patch_63">
    <path d="M 402.6011 191.762291 
L 395.307077 191.762291 
L 394.155389 192.24 
L 389.463327 192.24 
L 396.164057 189.617661 
L 401.728609 189.617661 
L 408.429338 192.24 
L 403.741154 192.24 
L 402.6011 191.762291 
z
M 396.470398 191.275591 
L 401.426145 191.275591 
L 398.952149 190.2325 
L 396.470398 191.275591 
z
" clip-path="url(#p0d02e66c99)" style="fill: #008000"/>
   </g>
   <g id="patch_64">
    <path d="M 408.429338 189.124406 
Q 406.516585 189.371033 404.459313 189.49491 
Q 402.40204 189.617661 400.20875 189.617661 
Q 395.252594 189.617661 392.357961 188.883409 
Q 389.463327 188.149157 389.463327 186.893497 
Q 389.463327 185.623197 392.408967 184.894576 
Q 395.358858 184.165955 400.489287 184.165955 
Q 402.465799 184.165955 404.276538 184.265057 
Q 406.091529 184.363032 407.698241 184.55673 
L 407.698241 185.643468 
Q 406.040522 185.394588 404.399805 185.271837 
Q 402.759087 185.14796 401.109869 185.14796 
Q 398.057965 185.14796 396.404496 185.600674 
Q 394.751027 186.052261 394.751027 186.893497 
Q 394.751027 187.72685 396.344988 188.181816 
Q 397.938949 188.635655 400.871838 188.635655 
Q 401.670943 188.635655 402.355284 188.609754 
Q 403.039625 188.582726 403.583697 188.526419 
L 403.583697 187.506124 
L 400.459533 187.506124 
L 400.459533 186.597319 
L 408.429338 186.597319 
L 408.429338 189.124406 
z
" clip-path="url(#p0d02e66c99)" style="fill: #ffa600"/>
   </g>
   <g id="patch_65">
    <path d="M 408.429338 183.56248 
Q 406.842864 183.861609 405.127369 184.012912 
Q 403.411875 184.165955 401.543467 184.165955 
Q 395.971694 184.165955 392.717511 183.032048 
Q 389.463327 181.89814 389.463327 179.959019 
Q 389.463327 178.012942 392.717511 176.880773 
Q 395.971694 175.746866 401.543467 175.746866 
Q 403.411875 175.746866 405.127369 175.899908 
Q 406.842864 176.051212 408.429338 176.350341 
L 408.429338 178.028594 
Q 406.828528 177.632074 405.275504 177.447727 
Q 403.72248 177.26338 402.006985 177.26338 
Q 398.929608 177.26338 397.166328 177.981637 
Q 395.407827 178.698156 395.407827 179.959019 
Q 395.407827 181.214665 397.166328 181.932923 
Q 398.929608 182.649441 402.006985 182.649441 
Q 403.72248 182.649441 405.275504 182.465094 
Q 406.828528 182.279008 408.429338 181.882488 
L 408.429338 183.56248 
z
" clip-path="url(#p0d02e66c99)" style="fill: #0000ff"/>
   </g>
   <g id="patch_66">
    <path d="M 389.463327 158.632651 
L 408.429338 158.632651 
L 408.429338 161.9704 
L 401.605985 161.9704 
L 401.605985 175.746866 
L 396.299913 175.746866 
L 396.299913 161.9704 
L 389.463327 161.9704 
L 389.463327 158.632651 
z
" clip-path="url(#p0d02e66c99)" style="fill: #ff0000"/>
   </g>
   <g id="patch_67">
    <path d="M 409.427549 190.190883 
L 428.39356 190.190883 
L 428.39356 190.590518 
L 421.570207 190.590518 
L 421.570207 192.24 
L 416.264134 192.24 
L 416.264134 190.590518 
L 409.427549 190.590518 
L 409.427549 190.190883 
z
" clip-path="url(#p0d02e66c99)" style="fill: #ff0000"/>
   </g>
   <g id="patch_68">
    <path d="M 428.39356 189.970564 
Q 426.807086 190.079771 425.091591 190.135009 
Q 423.376097 190.190883 421.507689 190.190883 
Q 415.935916 190.190883 412.681732 189.776911 
Q 409.427549 189.36294 409.427549 188.654998 
Q 409.427549 187.944516 412.681732 187.531179 
Q 415.935916 187.117207 421.507689 187.117207 
Q 423.376097 187.117207 425.091591 187.173081 
Q 426.807086 187.228319 428.39356 187.337527 
L 428.39356 187.95023 
Q 426.79275 187.805467 425.239726 187.738165 
Q 423.686702 187.670863 421.971207 187.670863 
Q 418.89383 187.670863 417.13055 187.933087 
Q 415.372048 188.194676 415.372048 188.654998 
Q 415.372048 189.113414 417.13055 189.375638 
Q 418.89383 189.637228 421.971207 189.637228 
Q 423.686702 189.637228 425.239726 189.569926 
Q 426.79275 189.501989 428.39356 189.357225 
L 428.39356 189.970564 
z
" clip-path="url(#p0d02e66c99)" style="fill: #0000ff"/>
   </g>
   <g id="patch_69">
    <path d="M 428.39356 186.190216 
Q 426.480807 186.653712 424.423534 186.886518 
Q 422.366262 187.117207 420.172972 187.117207 
Q 415.216816 187.117207 412.322182 185.737302 
Q 409.427549 184.357397 409.427549 181.997589 
Q 409.427549 179.610269 412.373189 178.240945 
Q 415.32308 176.871622 420.453509 176.871622 
Q 422.43002 176.871622 424.24076 177.057867 
Q 426.05575 177.241996 427.662463 177.60602 
L 427.662463 179.648364 
Q 426.004744 179.180635 424.364026 178.949946 
Q 422.723309 178.71714 421.074091 178.71714 
Q 418.022187 178.71714 416.368718 179.56794 
Q 414.715249 180.416624 414.715249 181.997589 
Q 414.715249 183.56374 416.30921 184.418773 
Q 417.903171 185.27169 420.836059 185.27169 
Q 421.635165 185.27169 422.319506 185.223012 
Q 423.003846 185.172218 423.547918 185.066397 
L 423.547918 183.148921 
L 420.423755 183.148921 
L 420.423755 181.440971 
L 428.39356 181.440971 
L 428.39356 186.190216 
z
" clip-path="url(#p0d02e66c99)" style="fill: #ffa600"/>
   </g>
   <g id="patch_70">
    <path d="M 422.565322 149.372934 
L 415.271299 149.372934 
L 414.119611 176.871622 
L 409.427549 176.871622 
L 416.128278 25.92 
L 421.692831 25.92 
L 428.39356 176.871622 
L 423.705376 176.871622 
L 422.565322 149.372934 
z
M 416.43462 121.356624 
L 421.390367 121.356624 
L 418.916371 61.312429 
L 416.43462 121.356624 
z
" clip-path="url(#p0d02e66c99)" style="fill: #008000"/>
   </g>
   <g id="patch_71">
    <path d="M 448.357782 192.063012 
Q 446.771308 192.150741 445.055813 192.195115 
Q 443.340319 192.24 441.471911 192.24 
Q 435.900138 192.24 432.645954 191.907446 
Q 429.391771 191.574891 429.391771 191.006182 
Q 429.391771 190.435433 432.645954 190.103389 
Q 435.900138 189.770835 441.471911 189.770835 
Q 443.340319 189.770835 445.055813 189.815719 
Q 446.771308 189.860094 448.357782 189.947823 
L 448.357782 190.440024 
Q 446.756972 190.323732 445.203948 190.269666 
Q 443.650923 190.215601 441.935429 190.215601 
Q 438.858052 190.215601 437.094772 190.426252 
Q 435.33627 190.636394 435.33627 191.006182 
Q 435.33627 191.374441 437.094772 191.585092 
Q 438.858052 191.795234 441.935429 191.795234 
Q 443.650923 191.795234 445.203948 191.741168 
Q 446.756972 191.686593 448.357782 191.570301 
L 448.357782 192.063012 
z
" clip-path="url(#p0d02e66c99)" style="fill: #0000ff"/>
   </g>
   <g id="patch_72">
    <path d="M 429.391771 182.671984 
L 448.357782 182.671984 
L 448.357782 184.056458 
L 441.534429 184.056458 
L 441.534429 189.770835 
L 436.228356 189.770835 
L 436.228356 184.056458 
L 429.391771 184.056458 
L 429.391771 182.671984 
z
" clip-path="url(#p0d02e66c99)" style="fill: #ff0000"/>
   </g>
   <g id="patch_73">
    <path d="M 448.357782 181.917999 
Q 446.445029 182.294992 444.387756 182.484349 
Q 442.330484 182.671984 440.137194 182.671984 
Q 435.181037 182.671984 432.286404 181.549613 
Q 429.391771 180.427242 429.391771 178.50785 
Q 429.391771 176.566079 432.337411 175.452315 
Q 435.287301 174.338551 440.417731 174.338551 
Q 442.394242 174.338551 444.204982 174.490037 
Q 446.019972 174.639801 447.626685 174.935887 
L 447.626685 176.597065 
Q 445.968966 176.216629 444.328248 176.028994 
Q 442.687531 175.839637 441.038313 175.839637 
Q 437.986409 175.839637 436.33294 176.531651 
Q 434.679471 177.221943 434.679471 178.50785 
Q 434.679471 179.781707 436.273432 180.477164 
Q 437.867393 181.170899 440.800281 181.170899 
Q 441.599387 181.170899 442.283728 181.131306 
Q 442.968068 181.089992 443.51214 181.003921 
L 443.51214 179.444307 
L 440.387977 179.444307 
L 440.387977 178.055115 
L 448.357782 178.055115 
L 448.357782 181.917999 
z
" clip-path="url(#p0d02e66c99)" style="fill: #ffa600"/>
   </g>
   <g id="patch_74">
    <path d="M 442.529543 150.217754 
L 435.23552 150.217754 
L 434.083833 174.338551 
L 429.391771 174.338551 
L 436.0925 41.929562 
L 441.657053 41.929562 
L 448.357782 174.338551 
L 443.669598 174.338551 
L 442.529543 150.217754 
z
M 436.398841 125.642918 
L 441.354589 125.642918 
L 438.880593 72.974447 
L 436.398841 125.642918 
z
" clip-path="url(#p0d02e66c99)" style="fill: #008000"/>
   </g>
   <g id="patch_75">
    <path d="M 449.355993 188.02025 
L 468.322004 188.02025 
L 468.322004 188.843219 
L 461.49865 188.843219 
L 461.49865 192.24 
L 456.192578 192.24 
L 456.192578 188.843219 
L 449.355993 188.843219 
L 449.355993 188.02025 
z
" clip-path="url(#p0d02e66c99)" style="fill: #ff0000"/>
   </g>
   <g id="patch_76">
    <path d="M 468.322004 187.486481 
Q 466.73553 187.751058 465.020035 187.884885 
Q 463.30454 188.02025 461.436133 188.02025 
Q 455.864359 188.02025 452.610176 187.017317 
Q 449.355993 186.014385 449.355993 184.299248 
Q 449.355993 182.577958 452.610176 181.576564 
Q 455.864359 180.573632 461.436133 180.573632 
Q 463.30454 180.573632 465.020035 180.708997 
Q 466.73553 180.842824 468.322004 181.107401 
L 468.322004 182.591802 
Q 466.721194 182.241083 465.16817 182.07803 
Q 463.615145 181.914977 461.899651 181.914977 
Q 458.822273 181.914977 457.058993 182.55027 
Q 455.300492 183.184024 455.300492 184.299248 
Q 455.300492 185.409857 457.058993 186.04515 
Q 458.822273 186.678905 461.899651 186.678905 
Q 463.615145 186.678905 465.16817 186.515851 
Q 466.721194 186.35126 468.322004 186.000541 
L 468.322004 187.486481 
z
" clip-path="url(#p0d02e66c99)" style="fill: #0000ff"/>
   </g>
   <g id="patch_77">
    <path d="M 468.322004 179.652841 
Q 466.40925 180.113236 464.351978 180.344485 
Q 462.294706 180.573632 460.101415 180.573632 
Q 455.145259 180.573632 452.250626 179.202958 
Q 449.355993 177.832283 449.355993 175.488263 
Q 449.355993 173.116912 452.301633 171.75675 
Q 455.251523 170.396587 460.381952 170.396587 
Q 462.358464 170.396587 464.169204 170.581586 
Q 465.984194 170.764482 467.590907 171.126071 
L 467.590907 173.154753 
Q 465.933187 172.690153 464.29247 172.461007 
Q 462.651753 172.229758 461.002535 172.229758 
Q 457.950631 172.229758 456.297162 173.074867 
Q 454.643693 173.917874 454.643693 175.488263 
Q 454.643693 177.043936 456.237654 177.893249 
Q 457.831615 178.74046 460.764503 178.74046 
Q 461.563609 178.74046 462.247949 178.692108 
Q 462.93229 178.641654 463.476362 178.536541 
L 463.476362 176.631893 
L 460.352199 176.631893 
L 460.352199 174.935368 
L 468.322004 174.935368 
L 468.322004 179.652841 
z
" clip-path="url(#p0d02e66c99)" style="fill: #ffa600"/>
   </g>
   <g id="patch_78">
    <path d="M 462.493765 152.354577 
L 455.199742 152.354577 
L 454.048054 170.396587 
L 449.355993 170.396587 
L 456.056722 71.356566 
L 461.621274 71.356566 
L 468.322004 170.396587 
L 463.63382 170.396587 
L 462.493765 152.354577 
z
M 456.363063 133.972953 
L 461.318811 133.972953 
L 458.844815 94.577694 
L 456.363063 133.972953 
z
" clip-path="url(#p0d02e66c99)" style="fill: #008000"/>
   </g>
   <g id="patch_79">
    <path d="M 488.286225 192.222418 
Q 486.699751 192.231133 484.984257 192.235541 
Q 483.268762 192.24 481.400355 192.24 
Q 475.828581 192.24 472.574398 192.206964 
Q 469.320215 192.173928 469.320215 192.117432 
Q 469.320215 192.060733 472.574398 192.027748 
Q 475.828581 191.994712 481.400355 191.994712 
Q 483.268762 191.994712 484.984257 191.999171 
Q 486.699751 192.003579 488.286225 192.012294 
L 488.286225 192.061189 
Q 486.685416 192.049637 485.132391 192.044266 
Q 483.579367 192.038895 481.863873 192.038895 
Q 478.786495 192.038895 477.023215 192.059821 
Q 475.264714 192.080697 475.264714 192.117432 
Q 475.264714 192.154015 477.023215 192.174941 
Q 478.786495 192.195817 481.863873 192.195817 
Q 483.579367 192.195817 485.132391 192.190446 
Q 486.685416 192.185024 488.286225 192.173472 
L 488.286225 192.222418 
z
" clip-path="url(#p0d02e66c99)" style="fill: #0000ff"/>
   </g>
   <g id="patch_80">
    <path d="M 482.457987 191.947499 
L 475.163964 191.947499 
L 474.012276 191.994712 
L 469.320215 191.994712 
L 476.020944 191.735539 
L 481.585496 191.735539 
L 488.286225 191.994712 
L 483.598042 191.994712 
L 482.457987 191.947499 
z
M 476.327285 191.899397 
L 481.283033 191.899397 
L 478.809037 191.796305 
L 476.327285 191.899397 
z
" clip-path="url(#p0d02e66c99)" style="fill: #008000"/>
   </g>
   <g id="patch_81">
    <path d="M 469.320215 191.44397 
L 488.286225 191.44397 
L 488.286225 191.500834 
L 481.462872 191.500834 
L 481.462872 191.735539 
L 476.1568 191.735539 
L 476.1568 191.500834 
L 469.320215 191.500834 
L 469.320215 191.44397 
z
" clip-path="url(#p0d02e66c99)" style="fill: #ff0000"/>
   </g>
   <g id="patch_82">
    <path d="M 488.286225 191.414031 
Q 486.373472 191.429001 484.3162 191.43652 
Q 482.258928 191.44397 480.065637 191.44397 
Q 475.109481 191.44397 472.214848 191.399403 
Q 469.320215 191.354835 469.320215 191.278619 
Q 469.320215 191.201514 472.265855 191.157289 
Q 475.215745 191.113063 480.346174 191.113063 
Q 482.322686 191.113063 484.133426 191.119078 
Q 485.948416 191.125025 487.555129 191.136782 
L 487.555129 191.202745 
Q 485.897409 191.187638 484.256692 191.180188 
Q 482.615975 191.172668 480.966756 191.172668 
Q 477.914852 191.172668 476.261384 191.200147 
Q 474.607915 191.227558 474.607915 191.278619 
Q 474.607915 191.329202 476.201876 191.356817 
Q 477.795837 191.384365 480.728725 191.384365 
Q 481.527831 191.384365 482.212171 191.382792 
Q 482.896512 191.381152 483.440584 191.377734 
L 483.440584 191.315804 
L 480.31642 191.315804 
L 480.31642 191.260642 
L 488.286225 191.260642 
L 488.286225 191.414031 
z
" clip-path="url(#p0d02e66c99)" style="fill: #ffa600"/>
   </g>
   <g id="patch_83">
    <path d="M 508.250447 192.126579 
Q 506.337694 192.18329 504.280422 192.211774 
Q 502.223149 192.24 500.029859 192.24 
Q 495.073703 192.24 492.17907 192.071164 
Q 489.284436 191.902327 489.284436 191.613597 
Q 489.284436 191.3215 492.230076 191.153958 
Q 495.179967 190.986417 500.310396 190.986417 
Q 502.286908 190.986417 504.097647 191.009204 
Q 505.912638 191.031733 507.51935 191.076273 
L 507.51935 191.326161 
Q 505.861631 191.268932 504.220914 191.240707 
Q 502.580197 191.212222 500.930978 191.212222 
Q 497.879074 191.212222 496.225605 191.316321 
Q 494.572136 191.42016 494.572136 191.613597 
Q 494.572136 191.805221 496.166097 191.909837 
Q 497.760059 192.014194 500.692947 192.014194 
Q 501.492053 192.014194 502.176393 192.008239 
Q 502.860734 192.002024 503.404806 191.989076 
L 503.404806 191.754466 
L 500.280642 191.754466 
L 500.280642 191.545493 
L 508.250447 191.545493 
L 508.250447 192.126579 
z
" clip-path="url(#p0d02e66c99)" style="fill: #ffa600"/>
   </g>
   <g id="patch_84">
    <path d="M 502.422209 190.387106 
L 495.128186 190.387106 
L 493.976498 190.986417 
L 489.284436 190.986417 
L 495.985166 187.696556 
L 501.549718 187.696556 
L 508.250447 190.986417 
L 503.562263 190.986417 
L 502.422209 190.387106 
z
M 496.291507 189.776515 
L 501.247255 189.776515 
L 498.773258 188.467903 
L 496.291507 189.776515 
z
" clip-path="url(#p0d02e66c99)" style="fill: #008000"/>
   </g>
   <g id="patch_85">
    <path d="M 489.284436 183.872172 
L 508.250447 183.872172 
L 508.250447 184.618033 
L 501.427094 184.618033 
L 501.427094 187.696556 
L 496.121022 187.696556 
L 496.121022 184.618033 
L 489.284436 184.618033 
L 489.284436 183.872172 
z
" clip-path="url(#p0d02e66c99)" style="fill: #ff0000"/>
   </g>
   <g id="patch_86">
    <path d="M 508.250447 183.583446 
Q 506.663973 183.726561 504.948479 183.79895 
Q 503.232984 183.872172 501.364576 183.872172 
Q 495.792803 183.872172 492.53862 183.329667 
Q 489.284436 182.787163 489.284436 181.859414 
Q 489.284436 180.928337 492.53862 180.386664 
Q 495.792803 179.84416 501.364576 179.84416 
Q 503.232984 179.84416 504.948479 179.917381 
Q 506.663973 179.989771 508.250447 180.132885 
L 508.250447 180.935825 
Q 506.649638 180.746115 505.096613 180.657916 
Q 503.543589 180.569718 501.828094 180.569718 
Q 498.750717 180.569718 496.987437 180.913359 
Q 495.228936 181.256169 495.228936 181.859414 
Q 495.228936 182.460163 496.987437 182.803804 
Q 498.750717 183.146614 501.828094 183.146614 
Q 503.543589 183.146614 505.096613 183.058415 
Q 506.649638 182.969384 508.250447 182.779674 
L 508.250447 183.583446 
z
" clip-path="url(#p0d02e66c99)" style="fill: #0000ff"/>
   </g>
   <g id="patch_87">
    <path d="M 528.214669 192.052063 
Q 526.301916 192.146032 524.244643 192.19323 
Q 522.187371 192.24 519.994081 192.24 
Q 515.037925 192.24 512.143292 191.960241 
Q 509.248658 191.680481 509.248658 191.202058 
Q 509.248658 190.718057 512.194298 190.440443 
Q 515.144189 190.162829 520.274618 190.162829 
Q 522.25113 190.162829 524.061869 190.200588 
Q 525.87686 190.237918 527.483572 190.31172 
L 527.483572 190.725781 
Q 525.825853 190.630954 524.185136 190.584185 
Q 522.544418 190.536986 520.8952 190.536986 
Q 517.843296 190.536986 516.189827 190.709476 
Q 514.536358 190.881536 514.536358 191.202058 
Q 514.536358 191.519577 516.130319 191.692925 
Q 517.72428 191.865843 520.657169 191.865843 
Q 521.456274 191.865843 522.140615 191.855974 
Q 522.824956 191.845677 523.369028 191.824223 
L 523.369028 191.435477 
L 520.244864 191.435477 
L 520.244864 191.089211 
L 528.214669 191.089211 
L 528.214669 192.052063 
z
" clip-path="url(#p0d02e66c99)" style="fill: #ffa600"/>
   </g>
   <g id="patch_88">
    <path d="M 528.214669 189.852977 
Q 526.628195 190.006564 524.9127 190.08425 
Q 523.197206 190.162829 521.328798 190.162829 
Q 515.757025 190.162829 512.502842 189.580628 
Q 509.248658 188.998426 509.248658 188.002789 
Q 509.248658 187.00358 512.502842 186.422271 
Q 515.757025 185.840069 521.328798 185.840069 
Q 523.197206 185.840069 524.9127 185.918649 
Q 526.628195 185.996335 528.214669 186.149922 
L 528.214669 187.011617 
Q 526.613859 186.808025 525.060835 186.713372 
Q 523.507811 186.61872 521.792316 186.61872 
Q 518.714939 186.61872 516.951659 186.987507 
Q 515.193158 187.355402 515.193158 188.002789 
Q 515.193158 188.647497 516.951659 189.016285 
Q 518.714939 189.384179 521.792316 189.384179 
Q 523.507811 189.384179 525.060835 189.289527 
Q 526.613859 189.193981 528.214669 188.990389 
L 528.214669 189.852977 
z
" clip-path="url(#p0d02e66c99)" style="fill: #0000ff"/>
   </g>
   <g id="patch_89">
    <path d="M 522.386431 183.999225 
L 515.092408 183.999225 
L 513.94072 185.840069 
L 509.248658 185.840069 
L 515.949388 175.734915 
L 521.51394 175.734915 
L 528.214669 185.840069 
L 523.526485 185.840069 
L 522.386431 183.999225 
z
M 516.255729 182.123729 
L 521.211476 182.123729 
L 518.73748 178.104191 
L 516.255729 182.123729 
z
" clip-path="url(#p0d02e66c99)" style="fill: #008000"/>
   </g>
   <g id="patch_90">
    <path d="M 509.248658 164.899945 
L 528.214669 164.899945 
L 528.214669 167.013066 
L 521.391316 167.013066 
L 521.391316 175.734915 
L 516.085244 175.734915 
L 516.085244 167.013066 
L 509.248658 167.013066 
L 509.248658 164.899945 
z
" clip-path="url(#p0d02e66c99)" style="fill: #ff0000"/>
   </g>
   <g id="patch_91">
    <path d="M 548.178891 191.883386 
Q 546.592417 192.060151 544.876922 192.149562 
Q 543.161428 192.24 541.29302 192.24 
Q 535.721247 192.24 532.467063 191.569935 
Q 529.21288 190.899871 529.21288 189.753978 
Q 529.21288 188.603975 532.467063 187.934938 
Q 535.721247 187.264874 541.29302 187.264874 
Q 543.161428 187.264874 544.876922 187.355312 
Q 546.592417 187.444722 548.178891 187.621488 
L 548.178891 188.613224 
Q 546.578081 188.378907 545.025057 188.26997 
Q 543.472033 188.161034 541.756538 188.161034 
Q 538.679161 188.161034 536.915881 188.585476 
Q 535.157379 189.008891 535.157379 189.753978 
Q 535.157379 190.495982 536.915881 190.920425 
Q 538.679161 191.34384 541.756538 191.34384 
Q 543.472033 191.34384 545.025057 191.234903 
Q 546.578081 191.124939 548.178891 190.890622 
L 548.178891 191.883386 
z
" clip-path="url(#p0d02e66c99)" style="fill: #0000ff"/>
   </g>
   <g id="patch_92">
    <path d="M 542.350652 185.737088 
L 535.05663 185.737088 
L 533.904942 187.264874 
L 529.21288 187.264874 
L 535.913609 178.878232 
L 541.478162 178.878232 
L 548.178891 187.264874 
L 543.490707 187.264874 
L 542.350652 185.737088 
z
M 536.219951 184.180545 
L 541.175698 184.180545 
L 538.701702 180.844581 
L 536.219951 184.180545 
z
" clip-path="url(#p0d02e66c99)" style="fill: #008000"/>
   </g>
   <g id="patch_93">
    <path d="M 548.178891 177.982248 
Q 546.266138 178.43024 544.208865 178.655259 
Q 542.151593 178.878232 539.958303 178.878232 
Q 535.002147 178.878232 532.107513 177.544484 
Q 529.21288 176.210737 529.21288 173.929865 
Q 529.21288 171.6224 532.15852 170.298881 
Q 535.108411 168.975361 540.23884 168.975361 
Q 542.215351 168.975361 544.026091 169.155376 
Q 545.841081 169.333346 547.447794 169.685193 
L 547.447794 171.659221 
Q 545.790075 171.207138 544.149357 170.984165 
Q 542.50864 170.759146 540.859422 170.759146 
Q 537.807518 170.759146 536.154049 171.581488 
Q 534.50058 172.401783 534.50058 173.929865 
Q 534.50058 175.443628 536.094541 176.27006 
Q 537.688502 177.094447 540.62139 177.094447 
Q 541.420496 177.094447 542.104837 177.047398 
Q 542.789177 176.998303 543.333249 176.896021 
L 543.333249 175.042685 
L 540.209086 175.042685 
L 540.209086 173.391866 
L 548.178891 173.391866 
L 548.178891 177.982248 
z
" clip-path="url(#p0d02e66c99)" style="fill: #ffa600"/>
   </g>
   <g id="patch_94">
    <path d="M 529.21288 99.93956 
L 548.178891 99.93956 
L 548.178891 113.403465 
L 541.355538 113.403465 
L 541.355538 168.975361 
L 536.049465 168.975361 
L 536.049465 113.403465 
L 529.21288 113.403465 
L 529.21288 99.93956 
z
" clip-path="url(#p0d02e66c99)" style="fill: #ff0000"/>
   </g>
   <g id="patch_95">
    <path d="M 568.143113 192.028942 
Q 566.230359 192.134471 564.173087 192.187476 
Q 562.115815 192.24 559.922524 192.24 
Q 554.966368 192.24 552.071735 191.925822 
Q 549.177102 191.611644 549.177102 191.074361 
Q 549.177102 190.530814 552.122742 190.219046 
Q 555.072632 189.907277 560.203062 189.907277 
Q 562.179573 189.907277 563.990313 189.949682 
Q 565.805303 189.991604 567.412016 190.074485 
L 567.412016 190.539488 
Q 565.754296 190.432995 564.113579 190.380471 
Q 562.472862 190.327466 560.823644 190.327466 
Q 557.77174 190.327466 556.118271 190.521177 
Q 554.464802 190.714406 554.464802 191.074361 
Q 554.464802 191.430944 556.058763 191.625618 
Q 557.652724 191.819811 560.585612 191.819811 
Q 561.384718 191.819811 562.069059 191.808728 
Q 562.753399 191.797163 563.297471 191.77307 
L 563.297471 191.336498 
L 560.173308 191.336498 
L 560.173308 190.94763 
L 568.143113 190.94763 
L 568.143113 192.028942 
z
" clip-path="url(#p0d02e66c99)" style="fill: #ffa600"/>
   </g>
   <g id="patch_96">
    <path d="M 568.143113 189.73397 
Q 566.556639 189.819874 564.841144 189.863326 
Q 563.12565 189.907277 561.257242 189.907277 
Q 555.685468 189.907277 552.431285 189.58164 
Q 549.177102 189.256003 549.177102 188.699123 
Q 549.177102 188.140245 552.431285 187.815107 
Q 555.685468 187.48947 561.257242 187.48947 
Q 563.12565 187.48947 564.841144 187.533421 
Q 566.556639 187.576873 568.143113 187.662777 
L 568.143113 188.14474 
Q 566.542303 188.030867 564.989279 187.977926 
Q 563.436254 187.924985 561.72076 187.924985 
Q 558.643382 187.924985 556.880103 188.131255 
Q 555.121601 188.337026 555.121601 188.699123 
Q 555.121601 189.059721 556.880103 189.265991 
Q 558.643382 189.471762 561.72076 189.471762 
Q 563.436254 189.471762 564.989279 189.418821 
Q 566.542303 189.365381 568.143113 189.251508 
L 568.143113 189.73397 
z
" clip-path="url(#p0d02e66c99)" style="fill: #0000ff"/>
   </g>
   <g id="patch_97">
    <path d="M 562.314874 186.925024 
L 555.020851 186.925024 
L 553.869164 187.48947 
L 549.177102 187.48947 
L 555.877831 184.39099 
L 561.442383 184.39099 
L 568.143113 187.48947 
L 563.454929 187.48947 
L 562.314874 186.925024 
z
M 556.184172 186.349952 
L 561.13992 186.349952 
L 558.665924 185.117466 
L 556.184172 186.349952 
z
" clip-path="url(#p0d02e66c99)" style="fill: #008000"/>
   </g>
   <g id="patch_98">
    <path d="M 549.177102 178.428012 
L 568.143113 178.428012 
L 568.143113 179.590959 
L 561.31976 179.590959 
L 561.31976 184.39099 
L 556.013687 184.39099 
L 556.013687 179.590959 
L 549.177102 179.590959 
L 549.177102 178.428012 
z
" clip-path="url(#p0d02e66c99)" style="fill: #ff0000"/>
   </g>
   <g id="patch_99">
    <path d="M 588.107335 191.896113 
Q 586.52086 192.06657 584.805366 192.152789 
Q 583.089871 192.24 581.221464 192.24 
Q 575.64969 192.24 572.395507 191.593849 
Q 569.141324 190.947698 569.141324 189.8427 
Q 569.141324 188.733738 572.395507 188.088577 
Q 575.64969 187.442426 581.221464 187.442426 
Q 583.089871 187.442426 584.805366 187.529637 
Q 586.52086 187.615856 588.107335 187.786313 
L 588.107335 188.742657 
Q 586.506525 188.516702 584.953501 188.411653 
Q 583.400476 188.306604 581.684982 188.306604 
Q 578.607604 188.306604 576.844324 188.715899 
Q 575.085823 189.124203 575.085823 189.8427 
Q 575.085823 190.558223 576.844324 190.967518 
Q 578.607604 191.375822 581.684982 191.375822 
Q 583.400476 191.375822 584.953501 191.270773 
Q 586.506525 191.164733 588.107335 190.938778 
L 588.107335 191.896113 
z
" clip-path="url(#p0d02e66c99)" style="fill: #0000ff"/>
   </g>
   <g id="patch_100">
    <path d="M 588.107335 186.897764 
Q 586.194581 187.170095 584.137309 187.306882 
Q 582.080037 187.442426 579.886746 187.442426 
Q 574.93059 187.442426 572.035957 186.63165 
Q 569.141324 185.820875 569.141324 184.434349 
Q 569.141324 183.031657 572.086964 182.227099 
Q 575.036854 181.42254 580.167283 181.42254 
Q 582.143795 181.42254 583.954535 181.53197 
Q 585.769525 181.640157 587.376238 181.854042 
L 587.376238 183.05404 
Q 585.718518 182.779222 584.077801 182.643678 
Q 582.437084 182.506891 580.787866 182.506891 
Q 577.735962 182.506891 576.082493 183.006786 
Q 574.429024 183.505438 574.429024 184.434349 
Q 574.429024 185.354554 576.022985 185.856937 
Q 577.616946 186.358076 580.549834 186.358076 
Q 581.34894 186.358076 582.03328 186.329475 
Q 582.717621 186.29963 583.261693 186.237454 
L 583.261693 185.110824 
L 580.137529 185.110824 
L 580.137529 184.107303 
L 588.107335 184.107303 
L 588.107335 186.897764 
z
" clip-path="url(#p0d02e66c99)" style="fill: #ffa600"/>
   </g>
   <g id="patch_101">
    <path d="M 569.141324 170.75787 
L 588.107335 170.75787 
L 588.107335 172.837778 
L 581.283981 172.837778 
L 581.283981 181.42254 
L 575.977909 181.42254 
L 575.977909 172.837778 
L 569.141324 172.837778 
L 569.141324 170.75787 
z
" clip-path="url(#p0d02e66c99)" style="fill: #ff0000"/>
   </g>
   <g id="patch_102">
    <path d="M 582.279096 163.827354 
L 574.985073 163.827354 
L 573.833385 170.75787 
L 569.141324 170.75787 
L 575.842053 132.713415 
L 581.406605 132.713415 
L 588.107335 170.75787 
L 583.419151 170.75787 
L 582.279096 163.827354 
z
M 576.148394 156.766381 
L 581.104142 156.766381 
L 578.630146 141.633396 
L 576.148394 156.766381 
z
" clip-path="url(#p0d02e66c99)" style="fill: #008000"/>
   </g>
   <g id="patch_103">
    <path d="M 608.071556 191.930652 
Q 606.158803 192.085326 604.101531 192.163016 
Q 602.044258 192.24 599.850968 192.24 
Q 594.894812 192.24 592.000179 191.779509 
Q 589.105546 191.319018 589.105546 190.531523 
Q 589.105546 189.734845 592.051186 189.277886 
Q 595.001076 188.820927 600.131505 188.820927 
Q 602.108017 188.820927 603.918757 188.883079 
Q 605.733747 188.944525 607.34046 189.066004 
L 607.34046 189.747558 
Q 605.68274 189.591472 604.042023 189.514488 
Q 602.401306 189.436798 600.752087 189.436798 
Q 597.700183 189.436798 596.046714 189.72072 
Q 594.393246 190.003936 594.393246 190.531523 
Q 594.393246 191.054166 595.987207 191.3395 
Q 597.581168 191.624129 600.514056 191.624129 
Q 601.313162 191.624129 601.997502 191.607885 
Q 602.681843 191.590934 603.225915 191.55562 
L 603.225915 190.915736 
L 600.101751 190.915736 
L 600.101751 190.345773 
L 608.071556 190.345773 
L 608.071556 191.930652 
z
" clip-path="url(#p0d02e66c99)" style="fill: #ffa600"/>
   </g>
   <g id="patch_104">
    <path d="M 608.071556 188.523247 
Q 606.485082 188.6708 604.769588 188.745434 
Q 603.054093 188.820927 601.185685 188.820927 
Q 595.613912 188.820927 592.359729 188.261599 
Q 589.105546 187.702271 589.105546 186.745752 
Q 589.105546 185.785801 592.359729 185.227331 
Q 595.613912 184.668003 601.185685 184.668003 
Q 603.054093 184.668003 604.769588 184.743495 
Q 606.485082 184.818129 608.071556 184.965682 
L 608.071556 185.793522 
Q 606.470747 185.597929 604.917722 185.506995 
Q 603.364698 185.416061 601.649204 185.416061 
Q 598.571826 185.416061 596.808546 185.770359 
Q 595.050045 186.1238 595.050045 186.745752 
Q 595.050045 187.36513 596.808546 187.719428 
Q 598.571826 188.072868 601.649204 188.072868 
Q 603.364698 188.072868 604.917722 187.981935 
Q 606.470747 187.890143 608.071556 187.69455 
L 608.071556 188.523247 
z
" clip-path="url(#p0d02e66c99)" style="fill: #0000ff"/>
   </g>
   <g id="patch_105">
    <path d="M 589.105546 176.378835 
L 608.071556 176.378835 
L 608.071556 177.995453 
L 601.248203 177.995453 
L 601.248203 184.668003 
L 595.942131 184.668003 
L 595.942131 177.995453 
L 589.105546 177.995453 
L 589.105546 176.378835 
z
" clip-path="url(#p0d02e66c99)" style="fill: #ff0000"/>
   </g>
   <g id="patch_106">
    <path d="M 602.243318 173.349663 
L 594.949295 173.349663 
L 593.797607 176.378835 
L 589.105546 176.378835 
L 595.806275 159.750463 
L 601.370827 159.750463 
L 608.071556 176.378835 
L 603.383373 176.378835 
L 602.243318 173.349663 
z
M 596.112616 170.263471 
L 601.068364 170.263471 
L 598.594368 163.649185 
L 596.112616 170.263471 
z
" clip-path="url(#p0d02e66c99)" style="fill: #008000"/>
   </g>
   <g id="patch_107">
    <path d="M 628.035778 192.073809 
Q 626.123025 192.156905 624.065753 192.198642 
Q 622.00848 192.24 619.81519 192.24 
Q 614.859034 192.24 611.964401 191.992611 
Q 609.069767 191.745222 609.069767 191.322156 
Q 609.069767 190.894158 612.015407 190.648666 
Q 614.965298 190.403174 620.095727 190.403174 
Q 622.072239 190.403174 623.882978 190.436564 
Q 625.697969 190.469574 627.304681 190.534836 
L 627.304681 190.900987 
Q 625.646962 190.817133 624.006245 190.775775 
Q 622.365528 190.734038 620.716309 190.734038 
Q 617.664405 190.734038 616.010936 190.886569 
Q 614.357467 191.038721 614.357467 191.322156 
Q 614.357467 191.602935 615.951428 191.756225 
Q 617.545389 191.909136 620.478278 191.909136 
Q 621.277383 191.909136 621.961724 191.900409 
Q 622.646065 191.891303 623.190137 191.872331 
L 623.190137 191.528567 
L 620.065973 191.528567 
L 620.065973 191.222366 
L 628.035778 191.222366 
L 628.035778 192.073809 
z
" clip-path="url(#p0d02e66c99)" style="fill: #ffa600"/>
   </g>
   <g id="patch_108">
    <path d="M 622.20754 189.88166 
L 614.913517 189.88166 
L 613.761829 190.403174 
L 609.069767 190.403174 
L 615.770497 187.540373 
L 621.335049 187.540373 
L 628.035778 190.403174 
L 623.347594 190.403174 
L 622.20754 189.88166 
z
M 616.076838 189.35033 
L 621.032585 189.35033 
L 618.558589 188.211591 
L 616.076838 189.35033 
z
" clip-path="url(#p0d02e66c99)" style="fill: #008000"/>
   </g>
   <g id="patch_109">
    <path d="M 609.069767 181.963702 
L 628.035778 181.963702 
L 628.035778 183.051308 
L 621.212425 183.051308 
L 621.212425 187.540373 
L 615.906353 187.540373 
L 615.906353 183.051308 
L 609.069767 183.051308 
L 609.069767 181.963702 
z
" clip-path="url(#p0d02e66c99)" style="fill: #ff0000"/>
   </g>
   <g id="patch_110">
    <path d="M 628.035778 181.544991 
Q 626.449304 181.752537 624.73381 181.857516 
Q 623.018315 181.963702 621.149907 181.963702 
Q 615.578134 181.963702 612.323951 181.17696 
Q 609.069767 180.390218 609.069767 179.044793 
Q 609.069767 177.694541 612.323951 176.909006 
Q 615.578134 176.122264 621.149907 176.122264 
Q 623.018315 176.122264 624.73381 176.22845 
Q 626.449304 176.333429 628.035778 176.540975 
L 628.035778 177.705401 
Q 626.434969 177.430283 624.881944 177.302377 
Q 623.32892 177.174471 621.613425 177.174471 
Q 618.536048 177.174471 616.772768 177.672821 
Q 615.014267 178.169965 615.014267 179.044793 
Q 615.014267 179.916001 616.772768 180.414351 
Q 618.536048 180.911495 621.613425 180.911495 
Q 623.32892 180.911495 624.881944 180.783589 
Q 626.434969 180.654477 628.035778 180.379358 
L 628.035778 181.544991 
z
" clip-path="url(#p0d02e66c99)" style="fill: #0000ff"/>
   </g>
   <g id="patch_111">
    <path d="M 648 192.17268 
Q 646.087247 192.20634 644.029974 192.223247 
Q 641.972702 192.24 639.779412 192.24 
Q 634.823256 192.24 631.928622 192.139789 
Q 629.033989 192.039578 629.033989 191.868205 
Q 629.033989 191.694834 631.979629 191.595391 
Q 634.92952 191.495949 640.059949 191.495949 
Q 642.036461 191.495949 643.8472 191.509474 
Q 645.662191 191.522846 647.268903 191.549282 
L 647.268903 191.6976 
Q 645.611184 191.663633 643.970467 191.64688 
Q 642.329749 191.629973 640.680531 191.629973 
Q 637.628627 191.629973 635.975158 191.69176 
Q 634.321689 191.753393 634.321689 191.868205 
Q 634.321689 191.981941 635.91565 192.044035 
Q 637.509611 192.105975 640.4425 192.105975 
Q 641.241605 192.105975 641.925946 192.10244 
Q 642.610287 192.098752 643.154359 192.091067 
L 643.154359 191.951817 
L 640.030195 191.951817 
L 640.030195 191.827782 
L 648 191.827782 
L 648 192.17268 
z
" clip-path="url(#p0d02e66c99)" style="fill: #ffa600"/>
   </g>
   <g id="patch_112">
    <path d="M 642.171762 191.255647 
L 634.877739 191.255647 
L 633.726051 191.495949 
L 629.033989 191.495949 
L 635.734718 190.176834 
L 641.299271 190.176834 
L 648 191.495949 
L 643.311816 191.495949 
L 642.171762 191.255647 
z
M 636.04106 191.010822 
L 640.996807 191.010822 
L 638.522811 190.486116 
L 636.04106 191.010822 
z
" clip-path="url(#p0d02e66c99)" style="fill: #008000"/>
   </g>
   <g id="patch_113">
    <path d="M 648 190.076495 
Q 646.413526 190.126231 644.698031 190.151388 
Q 642.982537 190.176834 641.114129 190.176834 
Q 635.542356 190.176834 632.288173 189.988302 
Q 629.033989 189.799769 629.033989 189.477355 
Q 629.033989 189.153785 632.288173 188.965541 
Q 635.542356 188.777009 641.114129 188.777009 
Q 642.982537 188.777009 644.698031 188.802455 
Q 646.413526 188.827612 648 188.877348 
L 648 189.156387 
Q 646.39919 189.090459 644.846166 189.059808 
Q 643.293142 189.029157 641.577647 189.029157 
Q 638.50027 189.029157 636.73699 189.14858 
Q 634.978488 189.267714 634.978488 189.477355 
Q 634.978488 189.686129 636.73699 189.805552 
Q 638.50027 189.924686 641.577647 189.924686 
Q 643.293142 189.924686 644.846166 189.894035 
Q 646.39919 189.863095 648 189.797167 
L 648 190.076495 
z
" clip-path="url(#p0d02e66c99)" style="fill: #0000ff"/>
   </g>
   <g id="patch_114">
    <path d="M 629.033989 187.326739 
L 648 187.326739 
L 648 187.609582 
L 641.176647 187.609582 
L 641.176647 188.777009 
L 635.870575 188.777009 
L 635.870575 187.609582 
L 629.033989 187.609582 
L 629.033989 187.326739 
z
" clip-path="url(#p0d02e66c99)" style="fill: #ff0000"/>
   </g>
   <g id="matplotlib.axis_1">
    <g id="xtick_1">
     <g id="line2d_2">
      <defs>
       <path id="m08f9d9f333" d="M 0 0 
L 0 3.5 
" style="stroke: #000000; stroke-width: 0.8"/>
      </defs>
      <g>
       <use xlink:href="#m08f9d9f333" x="99.483005" y="192.24" style="stroke: #000000; stroke-width: 0.8"/>
      </g>
     </g>
     <g id="text_1">
      <!-- 0 -->
      <g transform="translate(96.301755 206.838437) scale(0.1 -0.1)">
       <defs>
        <path id="DejaVuSans-30" d="M 2034 4250 
Q 1547 4250 1301 3770 
Q 1056 3291 1056 2328 
Q 1056 1369 1301 889 
Q 1547 409 2034 409 
Q 2525 409 2770 889 
Q 3016 1369 3016 2328 
Q 3016 3291 2770 3770 
Q 2525 4250 2034 4250 
z
M 2034 4750 
Q 2819 4750 3233 4129 
Q 3647 3509 3647 2328 
Q 3647 1150 3233 529 
Q 2819 -91 2034 -91 
Q 1250 -91 836 529 
Q 422 1150 422 2328 
Q 422 3509 836 4129 
Q 1250 4750 2034 4750 
z
" transform="scale(0.015625)"/>
       </defs>
       <use xlink:href="#DejaVuSans-30"/>
      </g>
     </g>
    </g>
    <g id="xtick_2">
     <g id="line2d_3">
      <g>
       <use xlink:href="#m08f9d9f333" x="199.304114" y="192.24" style="stroke: #000000; stroke-width: 0.8"/>
      </g>
     </g>
     <g id="text_2">
      <!-- 5 -->
      <g transform="translate(196.122864 206.838437) scale(0.1 -0.1)">
       <defs>
        <path id="DejaVuSans-35" d="M 691 4666 
L 3169 4666 
L 3169 4134 
L 1269 4134 
L 1269 2991 
Q 1406 3038 1543 3061 
Q 1681 3084 1819 3084 
Q 2600 3084 3056 2656 
Q 3513 2228 3513 1497 
Q 3513 744 3044 326 
Q 2575 -91 1722 -91 
Q 1428 -91 1123 -41 
Q 819 9 494 109 
L 494 744 
Q 775 591 1075 516 
Q 1375 441 1709 441 
Q 2250 441 2565 725 
Q 2881 1009 2881 1497 
Q 2881 1984 2565 2268 
Q 2250 2553 1709 2553 
Q 1456 2553 1204 2497 
Q 953 2441 691 2322 
L 691 4666 
z
" transform="scale(0.015625)"/>
       </defs>
       <use xlink:href="#DejaVuSans-35"/>
      </g>
     </g>
    </g>
    <g id="xtick_3">
     <g id="line2d_4">
      <g>
       <use xlink:href="#m08f9d9f333" x="299.125224" y="192.24" style="stroke: #000000; stroke-width: 0.8"/>
      </g>
     </g>
     <g id="text_3">
      <!-- 10 -->
      <g transform="translate(292.762724 206.838437) scale(0.1 -0.1)">
       <defs>
        <path id="DejaVuSans-31" d="M 794 531 
L 1825 531 
L 1825 4091 
L 703 3866 
L 703 4441 
L 1819 4666 
L 2450 4666 
L 2450 531 
L 3481 531 
L 3481 0 
L 794 0 
L 794 531 
z
" transform="scale(0.015625)"/>
       </defs>
       <use xlink:href="#DejaVuSans-31"/>
       <use xlink:href="#DejaVuSans-30" x="63.623047"/>
      </g>
     </g>
    </g>
    <g id="xtick_4">
     <g id="line2d_5">
      <g>
       <use xlink:href="#m08f9d9f333" x="398.946333" y="192.24" style="stroke: #000000; stroke-width: 0.8"/>
      </g>
     </g>
     <g id="text_4">
      <!-- 15 -->
      <g transform="translate(392.583833 206.838437) scale(0.1 -0.1)">
       <use xlink:href="#DejaVuSans-31"/>
       <use xlink:href="#DejaVuSans-35" x="63.623047"/>
      </g>
     </g>
    </g>
    <g id="xtick_5">
     <g id="line2d_6">
      <g>
       <use xlink:href="#m08f9d9f333" x="498.767442" y="192.24" style="stroke: #000000; stroke-width: 0.8"/>
      </g>
     </g>
     <g id="text_5">
      <!-- 20 -->
      <g transform="translate(492.404942 206.838437) scale(0.1 -0.1)">
       <defs>
        <path id="DejaVuSans-32" d="M 1228 531 
L 3431 531 
L 3431 0 
L 469 0 
L 469 531 
Q 828 903 1448 1529 
Q 2069 2156 2228 2338 
Q 2531 2678 2651 2914 
Q 2772 3150 2772 3378 
Q 2772 3750 2511 3984 
Q 2250 4219 1831 4219 
Q 1534 4219 1204 4116 
Q 875 4013 500 3803 
L 500 4441 
Q 881 4594 1212 4672 
Q 1544 4750 1819 4750 
Q 2544 4750 2975 4387 
Q 3406 4025 3406 3419 
Q 3406 3131 3298 2873 
Q 3191 2616 2906 2266 
Q 2828 2175 2409 1742 
Q 1991 1309 1228 531 
z
" transform="scale(0.015625)"/>
       </defs>
       <use xlink:href="#DejaVuSans-32"/>
       <use xlink:href="#DejaVuSans-30" x="63.623047"/>
      </g>
     </g>
    </g>
    <g id="xtick_6">
     <g id="line2d_7">
      <g>
       <use xlink:href="#m08f9d9f333" x="598.588551" y="192.24" style="stroke: #000000; stroke-width: 0.8"/>
      </g>
     </g>
     <g id="text_6">
      <!-- 25 -->
      <g transform="translate(592.226051 206.838437) scale(0.1 -0.1)">
       <use xlink:href="#DejaVuSans-32"/>
       <use xlink:href="#DejaVuSans-35" x="63.623047"/>
      </g>
     </g>
    </g>
   </g>
   <g id="matplotlib.axis_2">
    <g id="ytick_1">
     <g id="line2d_8">
      <defs>
       <path id="m5afec6b707" d="M 0 0 
L -3.5 0 
" style="stroke: #000000; stroke-width: 0.8"/>
      </defs>
      <g>
       <use xlink:href="#m5afec6b707" x="90" y="192.24" style="stroke: #000000; stroke-width: 0.8"/>
      </g>
     </g>
     <g id="text_7">
      <!-- 0.0 -->
      <g transform="translate(67.096875 196.039219) scale(0.1 -0.1)">
       <defs>
        <path id="DejaVuSans-2e" d="M 684 794 
L 1344 794 
L 1344 0 
L 684 0 
L 684 794 
z
" transform="scale(0.015625)"/>
       </defs>
       <use xlink:href="#DejaVuSans-30"/>
       <use xlink:href="#DejaVuSans-2e" x="63.623047"/>
       <use xlink:href="#DejaVuSans-30" x="95.410156"/>
      </g>
     </g>
    </g>
    <g id="ytick_2">
     <g id="line2d_9">
      <g>
       <use xlink:href="#m5afec6b707" x="90" y="169.152868" style="stroke: #000000; stroke-width: 0.8"/>
      </g>
     </g>
     <g id="text_8">
      <!-- 0.2 -->
      <g transform="translate(67.096875 172.952087) scale(0.1 -0.1)">
       <use xlink:href="#DejaVuSans-30"/>
       <use xlink:href="#DejaVuSans-2e" x="63.623047"/>
       <use xlink:href="#DejaVuSans-32" x="95.410156"/>
      </g>
     </g>
    </g>
    <g id="ytick_3">
     <g id="line2d_10">
      <g>
       <use xlink:href="#m5afec6b707" x="90" y="146.065737" style="stroke: #000000; stroke-width: 0.8"/>
      </g>
     </g>
     <g id="text_9">
      <!-- 0.4 -->
      <g transform="translate(67.096875 149.864956) scale(0.1 -0.1)">
       <defs>
        <path id="DejaVuSans-34" d="M 2419 4116 
L 825 1625 
L 2419 1625 
L 2419 4116 
z
M 2253 4666 
L 3047 4666 
L 3047 1625 
L 3713 1625 
L 3713 1100 
L 3047 1100 
L 3047 0 
L 2419 0 
L 2419 1100 
L 313 1100 
L 313 1709 
L 2253 4666 
z
" transform="scale(0.015625)"/>
       </defs>
       <use xlink:href="#DejaVuSans-30"/>
       <use xlink:href="#DejaVuSans-2e" x="63.623047"/>
       <use xlink:href="#DejaVuSans-34" x="95.410156"/>
      </g>
     </g>
    </g>
    <g id="ytick_4">
     <g id="line2d_11">
      <g>
       <use xlink:href="#m5afec6b707" x="90" y="122.978605" style="stroke: #000000; stroke-width: 0.8"/>
      </g>
     </g>
     <g id="text_10">
      <!-- 0.6 -->
      <g transform="translate(67.096875 126.777824) scale(0.1 -0.1)">
       <defs>
        <path id="DejaVuSans-36" d="M 2113 2584 
Q 1688 2584 1439 2293 
Q 1191 2003 1191 1497 
Q 1191 994 1439 701 
Q 1688 409 2113 409 
Q 2538 409 2786 701 
Q 3034 994 3034 1497 
Q 3034 2003 2786 2293 
Q 2538 2584 2113 2584 
z
M 3366 4563 
L 3366 3988 
Q 3128 4100 2886 4159 
Q 2644 4219 2406 4219 
Q 1781 4219 1451 3797 
Q 1122 3375 1075 2522 
Q 1259 2794 1537 2939 
Q 1816 3084 2150 3084 
Q 2853 3084 3261 2657 
Q 3669 2231 3669 1497 
Q 3669 778 3244 343 
Q 2819 -91 2113 -91 
Q 1303 -91 875 529 
Q 447 1150 447 2328 
Q 447 3434 972 4092 
Q 1497 4750 2381 4750 
Q 2619 4750 2861 4703 
Q 3103 4656 3366 4563 
z
" transform="scale(0.015625)"/>
       </defs>
       <use xlink:href="#DejaVuSans-30"/>
       <use xlink:href="#DejaVuSans-2e" x="63.623047"/>
       <use xlink:href="#DejaVuSans-36" x="95.410156"/>
      </g>
     </g>
    </g>
    <g id="ytick_5">
     <g id="line2d_12">
      <g>
       <use xlink:href="#m5afec6b707" x="90" y="99.891474" style="stroke: #000000; stroke-width: 0.8"/>
      </g>
     </g>
     <g id="text_11">
      <!-- 0.8 -->
      <g transform="translate(67.096875 103.690692) scale(0.1 -0.1)">
       <defs>
        <path id="DejaVuSans-38" d="M 2034 2216 
Q 1584 2216 1326 1975 
Q 1069 1734 1069 1313 
Q 1069 891 1326 650 
Q 1584 409 2034 409 
Q 2484 409 2743 651 
Q 3003 894 3003 1313 
Q 3003 1734 2745 1975 
Q 2488 2216 2034 2216 
z
M 1403 2484 
Q 997 2584 770 2862 
Q 544 3141 544 3541 
Q 544 4100 942 4425 
Q 1341 4750 2034 4750 
Q 2731 4750 3128 4425 
Q 3525 4100 3525 3541 
Q 3525 3141 3298 2862 
Q 3072 2584 2669 2484 
Q 3125 2378 3379 2068 
Q 3634 1759 3634 1313 
Q 3634 634 3220 271 
Q 2806 -91 2034 -91 
Q 1263 -91 848 271 
Q 434 634 434 1313 
Q 434 1759 690 2068 
Q 947 2378 1403 2484 
z
M 1172 3481 
Q 1172 3119 1398 2916 
Q 1625 2713 2034 2713 
Q 2441 2713 2670 2916 
Q 2900 3119 2900 3481 
Q 2900 3844 2670 4047 
Q 2441 4250 2034 4250 
Q 1625 4250 1398 4047 
Q 1172 3844 1172 3481 
z
" transform="scale(0.015625)"/>
       </defs>
       <use xlink:href="#DejaVuSans-30"/>
       <use xlink:href="#DejaVuSans-2e" x="63.623047"/>
       <use xlink:href="#DejaVuSans-38" x="95.410156"/>
      </g>
     </g>
    </g>
    <g id="ytick_6">
     <g id="line2d_13">
      <g>
       <use xlink:href="#m5afec6b707" x="90" y="76.804342" style="stroke: #000000; stroke-width: 0.8"/>
      </g>
     </g>
     <g id="text_12">
      <!-- 1.0 -->
      <g transform="translate(67.096875 80.603561) scale(0.1 -0.1)">
       <use xlink:href="#DejaVuSans-31"/>
       <use xlink:href="#DejaVuSans-2e" x="63.623047"/>
       <use xlink:href="#DejaVuSans-30" x="95.410156"/>
      </g>
     </g>
    </g>
    <g id="ytick_7">
     <g id="line2d_14">
      <g>
       <use xlink:href="#m5afec6b707" x="90" y="53.71721" style="stroke: #000000; stroke-width: 0.8"/>
      </g>
     </g>
     <g id="text_13">
      <!-- 1.2 -->
      <g transform="translate(67.096875 57.516429) scale(0.1 -0.1)">
       <use xlink:href="#DejaVuSans-31"/>
       <use xlink:href="#DejaVuSans-2e" x="63.623047"/>
       <use xlink:href="#DejaVuSans-32" x="95.410156"/>
      </g>
     </g>
    </g>
    <g id="ytick_8">
     <g id="line2d_15">
      <g>
       <use xlink:href="#m5afec6b707" x="90" y="30.630079" style="stroke: #000000; stroke-width: 0.8"/>
      </g>
     </g>
     <g id="text_14">
      <!-- 1.4 -->
      <g transform="translate(67.096875 34.429297) scale(0.1 -0.1)">
       <use xlink:href="#DejaVuSans-31"/>
       <use xlink:href="#DejaVuSans-2e" x="63.623047"/>
       <use xlink:href="#DejaVuSans-34" x="95.410156"/>
      </g>
     </g>
    </g>
   </g>
  </g>
 </g>
 <defs>
  <clipPath id="p0d02e66c99">
   <rect x="90" y="25.92" width="558" height="166.32"/>
  </clipPath>
 </defs>
</svg>
