<?xml version="1.0" encoding="utf-8" standalone="no"?>
<!DOCTYPE svg PUBLIC "-//W3C//DTD SVG 1.1//EN"
  "http://www.w3.org/Graphics/SVG/1.1/DTD/svg11.dtd">
<svg xmlns:xlink="http://www.w3.org/1999/xlink" width="720pt" height="216pt" viewBox="0 0 720 216" xmlns="http://www.w3.org/2000/svg" version="1.1">
 <metadata>
  <rdf:RDF xmlns:dc="http://purl.org/dc/elements/1.1/" xmlns:cc="http://creativecommons.org/ns#" xmlns:rdf="http://www.w3.org/1999/02/22-rdf-syntax-ns#">
   <cc:Work>
    <dc:type rdf:resource="http://purl.org/dc/dcmitype/StillImage"/>
    <dc:date>2025-12-17T10:23:19.642207</dc:date>
    <dc:format>image/svg+xml</dc:format>
    <dc:creator>
     <cc:Agent>
      <dc:title>Matplotlib v3.8.2, https://matplotlib.org/</dc:title>
     </cc:Agent>
    </dc:creator>
   </cc:Work>
  </rdf:RDF>
 </metadata>
 <defs>
  <style type="text/css">*{stroke-linejoin: round; stroke-linecap: butt}</style>
 </defs>
 <g id="figure_1">
  <g id="patch_1">
   <path d="M 0 216 
L 720 216 
L 720 0 
L 0 0 
z
" style="fill: #ffffff"/>
  </g>
  <g id="axes_1">
   <g id="patch_2">
    <path d="M 90 192.24 
L 648 192.24 
L 648 25.92 
L 90 25.92 
z
" style="fill: #ffffff"/>
   </g>
   <g id="line2d_1">
    <path d="M 90 192.24 
L 648 192.24 
" clip-path="url(#pa2d0e695b0)" style="fill: none; stroke: #000000; stroke-width: 0.5; stroke-linecap: square"/>
   </g>
   <g id="patch_3">
    <path d="M 102.260459 191.886423 
L 95.453516 191.886423 
L 94.378735 192.24 
L 90 192.24 
L 96.253268 190.299071 
L 101.446231 190.299071 
L 107.699499 192.24 
L 103.324383 192.24 
L 102.260459 191.886423 
z
M 96.539153 191.526191 
L 101.163965 191.526191 
L 98.855178 190.754146 
L 96.539153 191.526191 
z
" clip-path="url(#pa2d0e695b0)" style="fill: #008000"/>
   </g>
   <g id="patch_4">
    <path d="M 107.699499 189.772242 
Q 105.914476 190.035657 103.994584 190.167966 
Q 102.074692 190.299071 100.027865 190.299071 
Q 95.402671 190.299071 92.701335 189.514842 
Q 90 188.730612 90 187.389483 
Q 90 186.032717 92.748936 185.254502 
Q 95.501839 184.476286 100.289668 184.476286 
Q 102.134193 184.476286 103.824015 184.582133 
Q 105.517804 184.686777 107.017224 184.89366 
L 107.017224 186.054368 
Q 105.470203 185.788548 103.93905 185.657442 
Q 102.407896 185.525133 100.868809 185.525133 
Q 98.020705 185.525133 96.477652 186.008661 
Q 94.934598 186.490987 94.934598 187.389483 
Q 94.934598 188.27956 96.422118 188.765493 
Q 97.909637 189.250224 100.646673 189.250224 
Q 101.392416 189.250224 102.031058 189.22256 
Q 102.6697 189.193692 103.17744 189.133552 
L 103.17744 188.04381 
L 100.261901 188.04381 
L 100.261901 187.073145 
L 107.699499 187.073145 
L 107.699499 189.772242 
z
" clip-path="url(#pa2d0e695b0)" style="fill: #ffa600"/>
   </g>
   <g id="patch_5">
    <path d="M 90 176.712572 
L 107.699499 176.712572 
L 107.699499 178.226712 
L 101.331796 178.226712 
L 101.331796 184.476286 
L 96.380052 184.476286 
L 96.380052 178.226712 
L 90 178.226712 
L 90 176.712572 
z
" clip-path="url(#pa2d0e695b0)" style="fill: #ff0000"/>
   </g>
   <g id="patch_6">
    <path d="M 107.699499 175.043076 
Q 106.218967 175.870607 104.618029 176.289184 
Q 103.017092 176.712572 101.273453 176.712572 
Q 96.073751 176.712572 93.036876 173.575653 
Q 90 170.438734 90 165.074217 
Q 90 159.690456 93.036876 156.558348 
Q 96.073751 153.421429 101.273453 153.421429 
Q 103.017092 153.421429 104.618029 153.844817 
Q 106.218967 154.263394 107.699499 155.090924 
L 107.699499 159.733757 
Q 106.205588 158.636798 104.756272 158.126808 
Q 103.306955 157.616818 101.706018 157.616818 
Q 98.834142 157.616818 97.18861 159.603854 
Q 95.547538 161.586079 95.547538 165.074217 
Q 95.547538 168.547922 97.18861 170.534958 
Q 98.834142 172.517183 101.706018 172.517183 
Q 103.306955 172.517183 104.756272 172.007193 
Q 106.205588 171.492392 107.699499 170.395433 
L 107.699499 175.043076 
z
" clip-path="url(#pa2d0e695b0)" style="fill: #0000ff"/>
   </g>
   <g id="patch_7">
    <path d="M 126.330551 192.190968 
Q 124.850018 192.215272 123.249081 192.227565 
Q 121.648144 192.24 119.904504 192.24 
Q 114.704803 192.24 111.667927 192.147871 
Q 108.631052 192.055742 108.631052 191.89819 
Q 108.631052 191.740073 111.667927 191.648086 
Q 114.704803 191.555957 119.904504 191.555957 
Q 121.648144 191.555957 123.249081 191.568391 
Q 124.850018 191.580684 126.330551 191.604988 
L 126.330551 191.741345 
Q 124.83664 191.709128 123.387324 191.69415 
Q 121.938007 191.679172 120.33707 191.679172 
Q 117.465193 191.679172 115.819662 191.73753 
Q 114.178589 191.795746 114.178589 191.89819 
Q 114.178589 192.00021 115.819662 192.058568 
Q 117.465193 192.116785 120.33707 192.116785 
Q 121.938007 192.116785 123.387324 192.101807 
Q 124.83664 192.086687 126.330551 192.05447 
L 126.330551 192.190968 
z
" clip-path="url(#pa2d0e695b0)" style="fill: #0000ff"/>
   </g>
   <g id="patch_8">
    <path d="M 108.631052 190.871913 
L 126.330551 190.871913 
L 126.330551 191.005321 
L 119.962847 191.005321 
L 119.962847 191.555957 
L 115.011104 191.555957 
L 115.011104 191.005321 
L 108.631052 191.005321 
L 108.631052 190.871913 
z
" clip-path="url(#pa2d0e695b0)" style="fill: #ff0000"/>
   </g>
   <g id="patch_9">
    <path d="M 120.89151 190.716149 
L 114.084567 190.716149 
L 113.009787 190.871913 
L 108.631052 190.871913 
L 114.88432 190.016859 
L 120.077283 190.016859 
L 126.330551 190.871913 
L 121.955434 190.871913 
L 120.89151 190.716149 
z
M 115.170204 190.557453 
L 119.795017 190.557453 
L 117.48623 190.217337 
L 115.170204 190.557453 
z
" clip-path="url(#pa2d0e695b0)" style="fill: #008000"/>
   </g>
   <g id="patch_10">
    <path d="M 126.330551 189.908551 
Q 124.545527 189.962705 122.625636 189.989906 
Q 120.705744 190.016859 118.658917 190.016859 
Q 114.033723 190.016859 111.332387 189.855633 
Q 108.631052 189.694408 108.631052 189.418692 
Q 108.631052 189.139761 111.379988 188.979772 
Q 114.132891 188.819783 118.92072 188.819783 
Q 120.765244 188.819783 122.455067 188.841543 
Q 124.148856 188.863057 125.648275 188.905589 
L 125.648275 189.144213 
Q 124.101255 189.089564 122.570102 189.062611 
Q 121.038948 189.03541 119.499861 189.03541 
Q 116.651757 189.03541 115.108704 189.134816 
Q 113.56565 189.233975 113.56565 189.418692 
Q 113.56565 189.601678 115.053169 189.701579 
Q 116.540689 189.801232 119.277725 189.801232 
Q 120.023468 189.801232 120.66211 189.795544 
Q 121.300752 189.78961 121.808492 189.777246 
L 121.808492 189.553211 
L 118.892953 189.553211 
L 118.892953 189.353658 
L 126.330551 189.353658 
L 126.330551 189.908551 
z
" clip-path="url(#pa2d0e695b0)" style="fill: #ffa600"/>
   </g>
   <g id="patch_11">
    <path d="M 144.961603 192.060147 
Q 143.176579 192.150074 141.256687 192.195242 
Q 139.336795 192.24 137.289969 192.24 
Q 132.664774 192.24 129.963439 191.972274 
Q 127.262104 191.704548 127.262104 191.246704 
Q 127.262104 190.783522 130.01104 190.51785 
Q 132.763942 190.252177 137.551772 190.252177 
Q 139.396296 190.252177 141.086118 190.288312 
Q 142.779907 190.324036 144.279327 190.394663 
L 144.279327 190.790914 
Q 142.732307 190.700166 141.201153 190.655408 
Q 139.67 190.61024 138.130913 190.61024 
Q 135.282809 190.61024 133.739755 190.77531 
Q 132.196702 190.93997 132.196702 191.246704 
Q 132.196702 191.550565 133.684221 191.716456 
Q 135.171741 191.881937 137.908777 191.881937 
Q 138.65452 191.881937 139.293162 191.872493 
Q 139.931803 191.862638 140.439543 191.842107 
L 140.439543 191.470083 
L 137.524005 191.470083 
L 137.524005 191.138711 
L 144.961603 191.138711 
L 144.961603 192.060147 
z
" clip-path="url(#pa2d0e695b0)" style="fill: #ffa600"/>
   </g>
   <g id="patch_12">
    <path d="M 139.522562 189.527938 
L 132.715619 189.527938 
L 131.640839 190.252177 
L 127.262104 190.252177 
L 133.515372 186.276531 
L 138.708335 186.276531 
L 144.961603 190.252177 
L 140.586486 190.252177 
L 139.522562 189.527938 
z
M 133.801256 188.790066 
L 138.426069 188.790066 
L 136.117281 187.208669 
L 133.801256 188.790066 
z
" clip-path="url(#pa2d0e695b0)" style="fill: #008000"/>
   </g>
   <g id="patch_13">
    <path d="M 127.262104 182.300885 
L 144.961603 182.300885 
L 144.961603 183.076247 
L 138.593899 183.076247 
L 138.593899 186.276531 
L 133.642156 186.276531 
L 133.642156 183.076247 
L 127.262104 183.076247 
L 127.262104 182.300885 
z
" clip-path="url(#pa2d0e695b0)" style="fill: #ff0000"/>
   </g>
   <g id="patch_14">
    <path d="M 144.961603 181.588455 
Q 143.48107 181.941591 141.880133 182.120211 
Q 140.279195 182.300885 138.535556 182.300885 
Q 133.335855 182.300885 130.298979 180.962256 
Q 127.262104 179.623627 127.262104 177.334407 
Q 127.262104 175.036975 130.298979 173.700399 
Q 133.335855 172.36177 138.535556 172.36177 
Q 140.279195 172.36177 141.880133 172.542444 
Q 143.48107 172.721065 144.961603 173.0742 
L 144.961603 175.055453 
Q 143.467692 174.587344 142.018375 174.369714 
Q 140.569059 174.152084 138.968121 174.152084 
Q 136.096245 174.152084 134.450713 175.000019 
Q 132.809641 175.845901 132.809641 177.334407 
Q 132.809641 178.816754 134.450713 179.664689 
Q 136.096245 180.510571 138.968121 180.510571 
Q 140.569059 180.510571 142.018375 180.292942 
Q 143.467692 180.073259 144.961603 179.605149 
L 144.961603 181.588455 
z
" clip-path="url(#pa2d0e695b0)" style="fill: #0000ff"/>
   </g>
   <g id="patch_15">
    <path d="M 163.592654 192.059822 
Q 162.112122 192.149132 160.511185 192.194306 
Q 158.910247 192.24 157.166608 192.24 
Q 151.966906 192.24 148.930031 191.901452 
Q 145.893155 191.562903 145.893155 190.983944 
Q 145.893155 190.402908 148.930031 190.064879 
Q 151.966906 189.72633 157.166608 189.72633 
Q 158.910247 189.72633 160.511185 189.772024 
Q 162.112122 189.817198 163.592654 189.906509 
L 163.592654 190.407581 
Q 162.098744 190.289193 160.649427 190.234153 
Q 159.200111 190.179113 157.599173 190.179113 
Q 154.727297 190.179113 153.081765 190.393561 
Q 151.440693 190.607491 151.440693 190.983944 
Q 151.440693 191.35884 153.081765 191.573288 
Q 154.727297 191.787218 157.599173 191.787218 
Q 159.200111 191.787218 160.649427 191.732177 
Q 162.098744 191.676618 163.592654 191.55823 
L 163.592654 192.059822 
z
" clip-path="url(#pa2d0e695b0)" style="fill: #0000ff"/>
   </g>
   <g id="patch_16">
    <path d="M 145.893155 187.212661 
L 163.592654 187.212661 
L 163.592654 187.702896 
L 157.224951 187.702896 
L 157.224951 189.72633 
L 152.273207 189.72633 
L 152.273207 187.702896 
L 145.893155 187.702896 
L 145.893155 187.212661 
z
" clip-path="url(#pa2d0e695b0)" style="fill: #ff0000"/>
   </g>
   <g id="patch_17">
    <path d="M 158.153614 184.465186 
L 151.346671 184.465186 
L 150.27189 187.212661 
L 145.893155 187.212661 
L 152.146423 172.130643 
L 157.339386 172.130643 
L 163.592654 187.212661 
L 159.217538 187.212661 
L 158.153614 184.465186 
z
M 152.432308 181.665995 
L 157.057121 181.665995 
L 154.748333 175.666804 
L 152.432308 181.665995 
z
" clip-path="url(#pa2d0e695b0)" style="fill: #008000"/>
   </g>
   <g id="patch_18">
    <path d="M 163.592654 169.401486 
Q 161.807631 170.766064 159.887739 171.451469 
Q 157.967847 172.130643 155.92102 172.130643 
Q 151.295826 172.130643 148.594491 168.068062 
Q 145.893155 164.005482 145.893155 157.057971 
Q 145.893155 150.029458 148.642091 145.998033 
Q 151.394994 141.966607 156.182824 141.966607 
Q 158.027348 141.966607 159.71717 142.514931 
Q 161.410959 143.057023 162.910379 144.128747 
L 162.910379 150.141615 
Q 161.363358 148.764575 159.832205 148.085401 
Q 158.301052 147.399997 156.761965 147.399997 
Q 153.913861 147.399997 152.370807 149.904839 
Q 150.827753 152.403451 150.827753 157.057971 
Q 150.827753 161.668875 152.315273 164.18618 
Q 153.802792 166.697253 156.539828 166.697253 
Q 157.285572 166.697253 157.924213 166.553941 
Q 158.562855 166.404398 159.070595 166.092851 
L 159.070595 160.447609 
L 156.155057 160.447609 
L 156.155057 155.419231 
L 163.592654 155.419231 
L 163.592654 169.401486 
z
" clip-path="url(#pa2d0e695b0)" style="fill: #ffa600"/>
   </g>
   <g id="patch_19">
    <path d="M 182.223706 191.892499 
Q 180.438683 192.06625 178.518791 192.153522 
Q 176.598899 192.24 174.552072 192.24 
Q 169.926878 192.24 167.225542 191.722716 
Q 164.524207 191.205432 164.524207 190.320813 
Q 164.524207 189.42588 167.273143 188.912563 
Q 170.026046 188.399246 174.813876 188.399246 
Q 176.6584 188.399246 178.348222 188.469063 
Q 180.042011 188.538087 181.541431 188.674549 
L 181.541431 189.440161 
Q 179.99441 189.264824 178.463257 189.178345 
Q 176.932103 189.091073 175.393016 189.091073 
Q 172.544912 189.091073 171.001859 189.410012 
Q 169.458805 189.728158 169.458805 190.320813 
Q 169.458805 190.907914 170.946325 191.22844 
Q 172.433844 191.548172 175.17088 191.548172 
Q 175.916623 191.548172 176.555265 191.529925 
Q 177.193907 191.510883 177.701647 191.471214 
L 177.701647 190.752412 
L 174.786108 190.752412 
L 174.786108 190.112154 
L 182.223706 190.112154 
L 182.223706 191.892499 
z
" clip-path="url(#pa2d0e695b0)" style="fill: #ffa600"/>
   </g>
   <g id="patch_20">
    <path d="M 182.223706 187.022731 
Q 180.743174 187.705038 179.142236 188.050158 
Q 177.541299 188.399246 175.79766 188.399246 
Q 170.597958 188.399246 167.561083 185.812825 
Q 164.524207 183.226405 164.524207 178.80331 
Q 164.524207 174.364346 167.561083 171.781893 
Q 170.597958 169.195473 175.79766 169.195473 
Q 177.541299 169.195473 179.142236 169.544561 
Q 180.743174 169.889681 182.223706 170.571988 
L 182.223706 174.400049 
Q 180.729795 173.495595 179.280479 173.075103 
Q 177.831162 172.654612 176.230225 172.654612 
Q 173.358349 172.654612 171.712817 174.292942 
Q 170.071745 175.927306 170.071745 178.80331 
Q 170.071745 181.667413 171.712817 183.305743 
Q 173.358349 184.940107 176.230225 184.940107 
Q 177.831162 184.940107 179.280479 184.519615 
Q 180.729795 184.095157 182.223706 183.190703 
L 182.223706 187.022731 
z
" clip-path="url(#pa2d0e695b0)" style="fill: #0000ff"/>
   </g>
   <g id="patch_21">
    <path d="M 164.524207 115.424911 
L 182.223706 115.424911 
L 182.223706 125.911668 
L 175.856003 125.911668 
L 175.856003 169.195473 
L 170.904259 169.195473 
L 170.904259 125.911668 
L 164.524207 125.911668 
L 164.524207 115.424911 
z
" clip-path="url(#pa2d0e695b0)" style="fill: #ff0000"/>
   </g>
   <g id="patch_22">
    <path d="M 200.854758 191.935622 
Q 199.069734 192.087811 197.149843 192.164253 
Q 195.229951 192.24 193.183124 192.24 
Q 188.55793 192.24 185.856594 191.786908 
Q 183.155259 191.333816 183.155259 190.558973 
Q 183.155259 189.775096 185.904195 189.325478 
Q 188.657098 188.875861 193.444927 188.875861 
Q 195.289451 188.875861 196.979274 188.937014 
Q 198.673063 188.997473 200.172482 189.117 
L 200.172482 189.787604 
Q 198.625462 189.634026 197.094309 189.558279 
Q 195.563155 189.481837 194.024068 189.481837 
Q 191.175964 189.481837 189.632911 189.761197 
Q 188.089857 190.039863 188.089857 190.558973 
Q 188.089857 191.073218 189.577376 191.353969 
Q 191.064896 191.634024 193.801932 191.634024 
Q 194.547675 191.634024 195.186317 191.618041 
Q 195.824959 191.601363 196.332699 191.566616 
L 196.332699 190.937013 
L 193.41716 190.937013 
L 193.41716 190.376207 
L 200.854758 190.376207 
L 200.854758 191.935622 
z
" clip-path="url(#pa2d0e695b0)" style="fill: #ffa600"/>
   </g>
   <g id="patch_23">
    <path d="M 195.415717 187.956598 
L 188.608774 187.956598 
L 187.533994 188.875861 
L 183.155259 188.875861 
L 189.408527 183.829652 
L 194.60149 183.829652 
L 200.854758 188.875861 
L 196.479641 188.875861 
L 195.415717 187.956598 
z
M 189.694411 187.020032 
L 194.319224 187.020032 
L 192.010437 185.012796 
L 189.694411 187.020032 
z
" clip-path="url(#pa2d0e695b0)" style="fill: #008000"/>
   </g>
   <g id="patch_24">
    <path d="M 183.155259 178.783443 
L 200.854758 178.783443 
L 200.854758 179.767594 
L 194.487054 179.767594 
L 194.487054 183.829652 
L 189.535311 183.829652 
L 189.535311 179.767594 
L 183.155259 179.767594 
L 183.155259 178.783443 
z
" clip-path="url(#pa2d0e695b0)" style="fill: #ff0000"/>
   </g>
   <g id="patch_25">
    <path d="M 200.854758 177.336606 
Q 199.374225 178.05377 197.773288 178.416522 
Q 196.172351 178.783443 194.428711 178.783443 
Q 189.22901 178.783443 186.192134 176.06489 
Q 183.155259 173.346338 183.155259 168.697279 
Q 183.155259 164.031543 186.192134 161.31716 
Q 189.22901 158.598607 194.428711 158.598607 
Q 196.172351 158.598607 197.773288 158.965528 
Q 199.374225 159.32828 200.854758 160.045444 
L 200.854758 164.069069 
Q 199.360847 163.118409 197.911531 162.676436 
Q 196.462214 162.234463 194.861277 162.234463 
Q 191.9894 162.234463 190.343869 163.95649 
Q 188.702796 165.674349 188.702796 168.697279 
Q 188.702796 171.707701 190.343869 173.429729 
Q 191.9894 175.147587 194.861277 175.147587 
Q 196.462214 175.147587 197.911531 174.705614 
Q 199.360847 174.259471 200.854758 173.308812 
L 200.854758 177.336606 
z
" clip-path="url(#pa2d0e695b0)" style="fill: #0000ff"/>
   </g>
   <g id="patch_26">
    <path d="M 219.48581 191.784686 
Q 218.005277 192.010375 216.40434 192.124531 
Q 214.803402 192.24 213.059763 192.24 
Q 207.860062 192.24 204.823186 191.384482 
Q 201.786311 190.528964 201.786311 189.065923 
Q 201.786311 187.597633 204.823186 186.743427 
Q 207.860062 185.887909 213.059763 185.887909 
Q 214.803402 185.887909 216.40434 186.003377 
Q 218.005277 186.117534 219.48581 186.343223 
L 219.48581 187.609442 
Q 217.991899 187.310273 216.542582 187.171186 
Q 215.093266 187.032099 213.492328 187.032099 
Q 210.620452 187.032099 208.97492 187.574014 
Q 207.333848 188.114618 207.333848 189.065923 
Q 207.333848 190.013291 208.97492 190.555207 
Q 210.620452 191.09581 213.492328 191.09581 
Q 215.093266 191.09581 216.542582 190.956723 
Q 217.991899 190.816323 219.48581 190.517154 
L 219.48581 191.784686 
z
" clip-path="url(#pa2d0e695b0)" style="fill: #0000ff"/>
   </g>
   <g id="patch_27">
    <path d="M 214.046769 182.995025 
L 207.239826 182.995025 
L 206.165046 185.887909 
L 201.786311 185.887909 
L 208.039579 170.00768 
L 213.232542 170.00768 
L 219.48581 185.887909 
L 215.110693 185.887909 
L 214.046769 182.995025 
z
M 208.325463 180.047688 
L 212.950276 180.047688 
L 210.641488 173.730992 
L 208.325463 180.047688 
z
" clip-path="url(#pa2d0e695b0)" style="fill: #008000"/>
   </g>
   <g id="patch_28">
    <path d="M 201.786311 128.719087 
L 219.48581 128.719087 
L 219.48581 136.771513 
L 213.118106 136.771513 
L 213.118106 170.00768 
L 208.166363 170.00768 
L 208.166363 136.771513 
L 201.786311 136.771513 
L 201.786311 128.719087 
z
" clip-path="url(#pa2d0e695b0)" style="fill: #ff0000"/>
   </g>
   <g id="patch_29">
    <path d="M 232.677821 191.75252 
L 225.870878 191.75252 
L 224.796097 192.24 
L 220.417362 192.24 
L 226.67063 189.564019 
L 231.863593 189.564019 
L 238.116861 192.24 
L 233.741745 192.24 
L 232.677821 191.75252 
z
M 226.956515 191.255863 
L 231.581328 191.255863 
L 229.27254 190.191435 
L 226.956515 191.255863 
z
" clip-path="url(#pa2d0e695b0)" style="fill: #008000"/>
   </g>
   <g id="patch_30">
    <path d="M 220.417362 186.888038 
L 238.116861 186.888038 
L 238.116861 187.409929 
L 231.749158 187.409929 
L 231.749158 189.564019 
L 226.797414 189.564019 
L 226.797414 187.409929 
L 220.417362 187.409929 
L 220.417362 186.888038 
z
" clip-path="url(#pa2d0e695b0)" style="fill: #ff0000"/>
   </g>
   <g id="patch_31">
    <path d="M 238.116861 186.632287 
Q 236.636329 186.759057 235.035392 186.823179 
Q 233.434454 186.888038 231.690815 186.888038 
Q 226.491113 186.888038 223.454238 186.407492 
Q 220.417362 185.926947 220.417362 185.105156 
Q 220.417362 184.280416 223.454238 183.800608 
Q 226.491113 183.320063 231.690815 183.320063 
Q 233.434454 183.320063 235.035392 183.384922 
Q 236.636329 183.449044 238.116861 183.575813 
L 238.116861 184.28705 
Q 236.622951 184.119006 235.173634 184.040881 
Q 233.724318 183.962755 232.12338 183.962755 
Q 229.251504 183.962755 227.605972 184.26715 
Q 225.9649 184.570807 225.9649 185.105156 
Q 225.9649 185.637293 227.605972 185.941688 
Q 229.251504 186.245345 232.12338 186.245345 
Q 233.724318 186.245345 235.173634 186.16722 
Q 236.622951 186.088357 238.116861 185.920314 
L 238.116861 186.632287 
z
" clip-path="url(#pa2d0e695b0)" style="fill: #0000ff"/>
   </g>
   <g id="patch_32">
    <path d="M 238.116861 182.513012 
Q 236.331838 182.916538 234.411946 183.119221 
Q 232.492054 183.320063 230.445227 183.320063 
Q 225.820033 183.320063 223.118698 182.1187 
Q 220.417362 180.917337 220.417362 178.862858 
Q 220.417362 176.784426 223.166298 175.592276 
Q 225.919201 174.400126 230.707031 174.400126 
Q 232.551555 174.400126 234.241377 174.562273 
Q 235.935166 174.722577 237.434586 175.039502 
L 237.434586 176.817593 
Q 235.887565 176.410382 234.356412 176.209541 
Q 232.825259 176.006857 231.286172 176.006857 
Q 228.438068 176.006857 226.895014 176.747575 
Q 225.35196 177.48645 225.35196 178.862858 
Q 225.35196 180.226368 226.83948 180.970771 
Q 228.327 181.713332 231.064035 181.713332 
Q 231.809779 181.713332 232.44842 181.670952 
Q 233.087062 181.62673 233.594802 181.534601 
L 233.594802 179.865223 
L 230.679264 179.865223 
L 230.679264 178.378259 
L 238.116861 178.378259 
L 238.116861 182.513012 
z
" clip-path="url(#pa2d0e695b0)" style="fill: #ffa600"/>
   </g>
   <g id="patch_33">
    <path d="M 256.747913 191.856585 
Q 255.267381 192.046635 253.666443 192.142765 
Q 252.065506 192.24 250.321867 192.24 
Q 245.122165 192.24 242.08529 191.519578 
Q 239.048414 190.799157 239.048414 189.567147 
Q 239.048414 188.330718 242.08529 187.611401 
Q 245.122165 186.89098 250.321867 186.89098 
Q 252.065506 186.89098 253.666443 186.988214 
Q 255.267381 187.084344 256.747913 187.274394 
L 256.747913 188.340662 
Q 255.254002 188.088736 253.804686 187.971612 
Q 252.355369 187.854488 250.754432 187.854488 
Q 247.882556 187.854488 246.237024 188.310829 
Q 244.595952 188.766065 244.595952 189.567147 
Q 244.595952 190.364915 246.237024 190.821255 
Q 247.882556 191.276491 250.754432 191.276491 
Q 252.355369 191.276491 253.804686 191.159367 
Q 255.254002 191.041139 256.747913 190.789212 
L 256.747913 191.856585 
z
" clip-path="url(#pa2d0e695b0)" style="fill: #0000ff"/>
   </g>
   <g id="patch_34">
    <path d="M 256.747913 186.407015 
Q 254.96289 186.648997 253.042998 186.770541 
Q 251.123106 186.89098 249.076279 186.89098 
Q 244.451085 186.89098 241.74975 186.170558 
Q 239.048414 185.450136 239.048414 184.218127 
Q 239.048414 182.971753 241.79735 182.256856 
Q 244.550253 181.541959 249.338083 181.541959 
Q 251.182607 181.541959 252.872429 181.639194 
Q 254.566218 181.735324 256.065638 181.925374 
L 256.065638 182.991642 
Q 254.518617 182.74745 252.987464 182.627011 
Q 251.45631 182.505468 249.917223 182.505468 
Q 247.069119 182.505468 245.526066 182.949654 
Q 243.983012 183.392736 243.983012 184.218127 
Q 243.983012 185.035783 245.470532 185.48218 
Q 246.958051 185.927471 249.695087 185.927471 
Q 250.44083 185.927471 251.079472 185.902057 
Q 251.718114 185.875539 252.225854 185.820292 
L 252.225854 184.819215 
L 249.310315 184.819215 
L 249.310315 183.927527 
L 256.747913 183.927527 
L 256.747913 186.407015 
z
" clip-path="url(#pa2d0e695b0)" style="fill: #ffa600"/>
   </g>
   <g id="patch_35">
    <path d="M 239.048414 176.192939 
L 256.747913 176.192939 
L 256.747913 177.236147 
L 250.38021 177.236147 
L 250.38021 181.541959 
L 245.428466 181.541959 
L 245.428466 177.236147 
L 239.048414 177.236147 
L 239.048414 176.192939 
z
" clip-path="url(#pa2d0e695b0)" style="fill: #ff0000"/>
   </g>
   <g id="patch_36">
    <path d="M 251.308873 169.371963 
L 244.50193 169.371963 
L 243.427149 176.192939 
L 239.048414 176.192939 
L 245.301682 138.749796 
L 250.494645 138.749796 
L 256.747913 176.192939 
L 252.372797 176.192939 
L 251.308873 169.371963 
z
M 245.587567 162.422593 
L 250.212379 162.422593 
L 247.903592 147.528792 
L 245.587567 162.422593 
z
" clip-path="url(#pa2d0e695b0)" style="fill: #008000"/>
   </g>
   <g id="patch_37">
    <path d="M 269.939924 191.627792 
L 263.132981 191.627792 
L 262.058201 192.24 
L 257.679466 192.24 
L 263.932734 188.879339 
L 269.125697 188.879339 
L 275.378965 192.24 
L 271.003849 192.24 
L 269.939924 191.627792 
z
M 264.218618 191.00406 
L 268.843431 191.00406 
L 266.534644 189.667286 
L 264.218618 191.00406 
z
" clip-path="url(#pa2d0e695b0)" style="fill: #008000"/>
   </g>
   <g id="patch_38">
    <path d="M 275.378965 188.271212 
Q 273.593941 188.575276 271.67405 188.728001 
Q 269.754158 188.879339 267.707331 188.879339 
Q 263.082137 188.879339 260.380801 187.974091 
Q 257.679466 187.068844 257.679466 185.52076 
Q 257.679466 183.954627 260.428402 183.056321 
Q 263.181305 182.158016 267.969134 182.158016 
Q 269.813659 182.158016 271.503481 182.280197 
Q 273.19727 182.400989 274.696689 182.639796 
L 274.696689 183.979618 
Q 273.149669 183.672778 271.618516 183.521441 
Q 270.087362 183.368715 268.548275 183.368715 
Q 265.700171 183.368715 264.157118 183.926858 
Q 262.614064 184.483613 262.614064 185.52076 
Q 262.614064 186.548188 264.101583 187.109108 
Q 265.589103 187.66864 268.326139 187.66864 
Q 269.071882 187.66864 269.710524 187.636706 
Q 270.349166 187.603384 270.856906 187.533963 
L 270.856906 186.276058 
L 267.941367 186.276058 
L 267.941367 185.155607 
L 275.378965 185.155607 
L 275.378965 188.271212 
z
" clip-path="url(#pa2d0e695b0)" style="fill: #ffa600"/>
   </g>
   <g id="patch_39">
    <path d="M 257.679466 175.436693 
L 275.378965 175.436693 
L 275.378965 176.747539 
L 269.011261 176.747539 
L 269.011261 182.158016 
L 264.059518 182.158016 
L 264.059518 176.747539 
L 257.679466 176.747539 
L 257.679466 175.436693 
z
" clip-path="url(#pa2d0e695b0)" style="fill: #ff0000"/>
   </g>
   <g id="patch_40">
    <path d="M 275.378965 171.82334 
Q 273.898432 173.614397 272.297495 174.520339 
Q 270.696558 175.436693 268.952919 175.436693 
Q 263.753217 175.436693 260.716341 168.647338 
Q 257.679466 161.857983 257.679466 150.247353 
Q 257.679466 138.595071 260.716341 131.816129 
Q 263.753217 125.026774 268.952919 125.026774 
Q 270.696558 125.026774 272.297495 125.943129 
Q 273.898432 126.84907 275.378965 128.640127 
L 275.378965 138.688789 
Q 273.885054 136.314597 272.435738 135.210806 
Q 270.986421 134.107016 269.385484 134.107016 
Q 266.513607 134.107016 264.868076 138.407635 
Q 263.227003 142.697841 263.227003 150.247353 
Q 263.227003 157.765627 264.868076 162.066246 
Q 266.513607 166.356452 269.385484 166.356452 
Q 270.986421 166.356452 272.435738 165.252661 
Q 273.885054 164.138457 275.378965 161.764265 
L 275.378965 171.82334 
z
" clip-path="url(#pa2d0e695b0)" style="fill: #0000ff"/>
   </g>
   <g id="patch_41">
    <path d="M 294.010017 192.060147 
Q 292.224993 192.150074 290.305101 192.195242 
Q 288.385209 192.24 286.338383 192.24 
Q 281.713188 192.24 279.011853 191.972274 
Q 276.310518 191.704548 276.310518 191.246704 
Q 276.310518 190.783522 279.059454 190.51785 
Q 281.812356 190.252177 286.600186 190.252177 
Q 288.44471 190.252177 290.134532 190.288312 
Q 291.828321 190.324036 293.327741 190.394663 
L 293.327741 190.790914 
Q 291.780721 190.700166 290.249567 190.655408 
Q 288.718414 190.61024 287.179327 190.61024 
Q 284.331223 190.61024 282.788169 190.77531 
Q 281.245116 190.93997 281.245116 191.246704 
Q 281.245116 191.550565 282.732635 191.716456 
Q 284.220155 191.881937 286.957191 191.881937 
Q 287.702934 191.881937 288.341576 191.872493 
Q 288.980217 191.862638 289.487957 191.842107 
L 289.487957 191.470083 
L 286.572419 191.470083 
L 286.572419 191.138711 
L 294.010017 191.138711 
L 294.010017 192.060147 
z
" clip-path="url(#pa2d0e695b0)" style="fill: #ffa600"/>
   </g>
   <g id="patch_42">
    <path d="M 288.570976 189.527938 
L 281.764033 189.527938 
L 280.689253 190.252177 
L 276.310518 190.252177 
L 282.563786 186.276531 
L 287.756749 186.276531 
L 294.010017 190.252177 
L 289.6349 190.252177 
L 288.570976 189.527938 
z
M 282.84967 188.790066 
L 287.474483 188.790066 
L 285.165695 187.208669 
L 282.84967 188.790066 
z
" clip-path="url(#pa2d0e695b0)" style="fill: #008000"/>
   </g>
   <g id="patch_43">
    <path d="M 294.010017 185.991559 
Q 292.529484 186.132813 290.928547 186.204262 
Q 289.32761 186.276531 287.58397 186.276531 
Q 282.384269 186.276531 279.347393 185.741079 
Q 276.310518 185.205628 276.310518 184.28994 
Q 276.310518 183.370967 279.347393 182.836337 
Q 282.384269 182.300885 287.58397 182.300885 
Q 289.32761 182.300885 290.928547 182.373155 
Q 292.529484 182.444603 294.010017 182.585857 
L 294.010017 183.378358 
Q 292.516106 183.191114 291.066789 183.104062 
Q 289.617473 183.017011 288.016535 183.017011 
Q 285.144659 183.017011 283.499127 183.356185 
Q 281.858055 183.694537 281.858055 184.28994 
Q 281.858055 184.882879 283.499127 185.222053 
Q 285.144659 185.560406 288.016535 185.560406 
Q 289.617473 185.560406 291.066789 185.473354 
Q 292.516106 185.38548 294.010017 185.198237 
L 294.010017 185.991559 
z
" clip-path="url(#pa2d0e695b0)" style="fill: #0000ff"/>
   </g>
   <g id="patch_44">
    <path d="M 276.310518 172.36177 
L 294.010017 172.36177 
L 294.010017 174.300175 
L 287.642313 174.300175 
L 287.642313 182.300885 
L 282.69057 182.300885 
L 282.69057 174.300175 
L 276.310518 174.300175 
L 276.310518 172.36177 
z
" clip-path="url(#pa2d0e695b0)" style="fill: #ff0000"/>
   </g>
   <g id="patch_45">
    <path d="M 307.202028 191.724198 
L 300.395085 191.724198 
L 299.320305 192.24 
L 294.941569 192.24 
L 301.194837 189.408549 
L 306.3878 189.408549 
L 312.641068 192.24 
L 308.265952 192.24 
L 307.202028 191.724198 
z
M 301.480722 191.198686 
L 306.105535 191.198686 
L 303.796747 190.072417 
L 301.480722 191.198686 
z
" clip-path="url(#pa2d0e695b0)" style="fill: #008000"/>
   </g>
   <g id="patch_46">
    <path d="M 312.641068 188.896185 
Q 310.856045 189.152367 308.936153 189.281043 
Q 307.016261 189.408549 304.969434 189.408549 
Q 300.34424 189.408549 297.642905 188.645852 
Q 294.941569 187.883156 294.941569 186.578852 
Q 294.941569 185.259341 297.690505 184.502493 
Q 300.443408 183.745646 305.231238 183.745646 
Q 307.075762 183.745646 308.765584 183.848587 
Q 310.459373 183.950357 311.958793 184.15156 
L 311.958793 185.280397 
Q 310.411772 185.021875 308.880619 184.89437 
Q 307.349466 184.765694 305.810379 184.765694 
Q 302.962275 184.765694 301.419221 185.235945 
Q 299.876167 185.705027 299.876167 186.578852 
Q 299.876167 187.444489 301.363687 187.91708 
Q 302.851207 188.388501 305.588242 188.388501 
Q 306.333986 188.388501 306.972627 188.361596 
Q 307.611269 188.333521 308.119009 188.275032 
L 308.119009 187.215212 
L 305.203471 187.215212 
L 305.203471 186.2712 
L 312.641068 186.2712 
L 312.641068 188.896185 
z
" clip-path="url(#pa2d0e695b0)" style="fill: #ffa600"/>
   </g>
   <g id="patch_47">
    <path d="M 294.941569 175.251292 
L 312.641068 175.251292 
L 312.641068 176.907928 
L 306.273365 176.907928 
L 306.273365 183.745646 
L 301.321621 183.745646 
L 301.321621 176.907928 
L 294.941569 176.907928 
L 294.941569 175.251292 
z
" clip-path="url(#pa2d0e695b0)" style="fill: #ff0000"/>
   </g>
   <g id="patch_48">
    <path d="M 312.641068 172.409898 
Q 311.160536 173.818312 309.559599 174.530708 
Q 307.958661 175.251292 306.215022 175.251292 
Q 301.01532 175.251292 297.978445 169.912418 
Q 294.941569 164.573545 294.941569 155.443415 
Q 294.941569 146.280532 297.978445 140.949847 
Q 301.01532 135.610973 306.215022 135.610973 
Q 307.958661 135.610973 309.559599 136.331558 
Q 311.160536 137.043953 312.641068 138.452368 
L 312.641068 146.354229 
Q 311.147158 144.48726 309.697841 143.619284 
Q 308.248525 142.751308 306.647587 142.751308 
Q 303.775711 142.751308 302.130179 146.13314 
Q 300.489107 149.506784 300.489107 155.443415 
Q 300.489107 161.355481 302.130179 164.737314 
Q 303.775711 168.110958 306.647587 168.110958 
Q 308.248525 168.110958 309.697841 167.242981 
Q 311.147158 166.366817 312.641068 164.499848 
L 312.641068 172.409898 
z
" clip-path="url(#pa2d0e695b0)" style="fill: #0000ff"/>
   </g>
   <g id="patch_49">
    <path d="M 325.83308 191.69275 
L 319.026137 191.69275 
L 317.951356 192.24 
L 313.572621 192.24 
L 319.825889 189.235917 
L 325.018852 189.235917 
L 331.27212 192.24 
L 326.897004 192.24 
L 325.83308 191.69275 
z
M 320.111774 191.135198 
L 324.736586 191.135198 
L 322.427799 189.940261 
L 320.111774 191.135198 
z
" clip-path="url(#pa2d0e695b0)" style="fill: #008000"/>
   </g>
   <g id="patch_50">
    <path d="M 313.572621 186.231834 
L 331.27212 186.231834 
L 331.27212 186.817714 
L 324.904417 186.817714 
L 324.904417 189.235917 
L 319.952673 189.235917 
L 319.952673 186.817714 
L 313.572621 186.817714 
L 313.572621 186.231834 
z
" clip-path="url(#pa2d0e695b0)" style="fill: #ff0000"/>
   </g>
   <g id="patch_51">
    <path d="M 331.27212 185.552332 
Q 329.487097 185.892083 327.567205 186.062734 
Q 325.647313 186.231834 323.600486 186.231834 
Q 318.975292 186.231834 316.273957 185.220338 
Q 313.572621 184.208841 313.572621 182.479058 
Q 313.572621 180.729107 316.321557 179.725367 
Q 319.07446 178.721627 323.86229 178.721627 
Q 325.706814 178.721627 327.396636 178.858148 
Q 329.090425 178.993118 330.589845 179.259955 
L 330.589845 180.757032 
Q 329.042824 180.414178 327.511671 180.245078 
Q 325.980517 180.074426 324.44143 180.074426 
Q 321.593326 180.074426 320.050273 180.698079 
Q 318.507219 181.320181 318.507219 182.479058 
Q 318.507219 183.627076 319.994739 184.253831 
Q 321.482258 184.879035 324.219294 184.879035 
Q 324.965037 184.879035 325.603679 184.843354 
Q 326.242321 184.806121 326.750061 184.728552 
L 326.750061 183.323006 
L 323.834523 183.323006 
L 323.834523 182.071046 
L 331.27212 182.071046 
L 331.27212 185.552332 
z
" clip-path="url(#pa2d0e695b0)" style="fill: #ffa600"/>
   </g>
   <g id="patch_52">
    <path d="M 331.27212 177.537308 
Q 329.791588 178.124348 328.19065 178.421281 
Q 326.589713 178.721627 324.846074 178.721627 
Q 319.646372 178.721627 316.609497 176.496335 
Q 313.572621 174.271042 313.572621 170.465519 
Q 313.572621 166.646344 316.609497 164.424464 
Q 319.646372 162.199172 324.846074 162.199172 
Q 326.589713 162.199172 328.19065 162.499518 
Q 329.791588 162.796451 331.27212 163.383492 
L 331.27212 166.677061 
Q 329.778209 165.898891 328.328893 165.537111 
Q 326.879576 165.17533 325.278639 165.17533 
Q 322.406763 165.17533 320.761231 166.584909 
Q 319.120159 167.991076 319.120159 170.465519 
Q 319.120159 172.929723 320.761231 174.339303 
Q 322.406763 175.745469 325.278639 175.745469 
Q 326.879576 175.745469 328.328893 175.383689 
Q 329.778209 175.018495 331.27212 174.240325 
L 331.27212 177.537308 
z
" clip-path="url(#pa2d0e695b0)" style="fill: #0000ff"/>
   </g>
   <g id="patch_53">
    <path d="M 344.464131 161.941672 
L 337.657188 161.941672 
L 336.582408 192.24 
L 332.203673 192.24 
L 338.456941 25.92 
L 343.649904 25.92 
L 349.903172 192.24 
L 345.528056 192.24 
L 344.464131 161.941672 
z
M 338.742825 131.073022 
L 343.367638 131.073022 
L 341.058851 64.915731 
L 338.742825 131.073022 
z
" clip-path="url(#pa2d0e695b0)" style="fill: #008000"/>
   </g>
   <g id="patch_54">
    <path d="M 368.534224 191.85908 
Q 367.053691 192.047893 365.452754 192.143398 
Q 363.851817 192.24 362.108177 192.24 
Q 356.908476 192.24 353.8716 191.524265 
Q 350.834725 190.80853 350.834725 189.584535 
Q 350.834725 188.356149 353.8716 187.641512 
Q 356.908476 186.925777 362.108177 186.925777 
Q 363.851817 186.925777 365.452754 187.022379 
Q 367.053691 187.117884 368.534224 187.306697 
L 368.534224 188.366029 
Q 367.040313 188.115741 365.590996 187.99938 
Q 364.14168 187.883018 362.540743 187.883018 
Q 359.668866 187.883018 358.023334 188.33639 
Q 356.382262 188.788664 356.382262 189.584535 
Q 356.382262 190.377113 358.023334 190.830485 
Q 359.668866 191.282759 362.540743 191.282759 
Q 364.14168 191.282759 365.590996 191.166397 
Q 367.040313 191.048938 368.534224 190.79865 
L 368.534224 191.85908 
z
" clip-path="url(#pa2d0e695b0)" style="fill: #0000ff"/>
   </g>
   <g id="patch_55">
    <path d="M 363.095183 183.053433 
L 356.28824 183.053433 
L 355.21346 186.925777 
L 350.834725 186.925777 
L 357.087993 165.668885 
L 362.280956 165.668885 
L 368.534224 186.925777 
L 364.159107 186.925777 
L 363.095183 183.053433 
z
M 357.373877 179.108197 
L 361.99869 179.108197 
L 359.689902 170.65282 
L 357.373877 179.108197 
z
" clip-path="url(#pa2d0e695b0)" style="fill: #008000"/>
   </g>
   <g id="patch_56">
    <path d="M 368.534224 163.264806 
Q 366.7492 164.466845 364.829308 165.07061 
Q 362.909416 165.668885 360.86259 165.668885 
Q 356.237396 165.668885 353.53606 162.09021 
Q 350.834725 158.511535 350.834725 152.391561 
Q 350.834725 146.200233 353.583661 142.649002 
Q 356.336563 139.09777 361.124393 139.09777 
Q 362.968917 139.09777 364.658739 139.580782 
Q 366.352528 140.058304 367.851948 141.002372 
L 367.851948 146.299031 
Q 366.304928 145.086014 364.773774 144.487738 
Q 363.242621 143.883974 361.703534 143.883974 
Q 358.85543 143.883974 357.312376 146.090458 
Q 355.769323 148.291453 355.769323 152.391561 
Q 355.769323 156.453247 357.256842 158.670709 
Q 358.744362 160.882681 361.481398 160.882681 
Q 362.227141 160.882681 362.865783 160.75644 
Q 363.504424 160.624709 364.012164 160.350271 
L 364.012164 155.377449 
L 361.096626 155.377449 
L 361.096626 150.948015 
L 368.534224 150.948015 
L 368.534224 163.264806 
z
" clip-path="url(#pa2d0e695b0)" style="fill: #ffa600"/>
   </g>
   <g id="patch_57">
    <path d="M 369.465776 188.173177 
L 387.165275 188.173177 
L 387.165275 188.966321 
L 380.797572 188.966321 
L 380.797572 192.24 
L 375.845828 192.24 
L 375.845828 188.966321 
L 369.465776 188.966321 
L 369.465776 188.173177 
z
" clip-path="url(#pa2d0e695b0)" style="fill: #ff0000"/>
   </g>
   <g id="patch_58">
    <path d="M 387.165275 187.805222 
Q 385.380252 187.9892 383.46036 188.081608 
Q 381.540468 188.173177 379.493641 188.173177 
Q 374.868447 188.173177 372.167112 187.625445 
Q 369.465776 187.077714 369.465776 186.141026 
Q 369.465776 185.193416 372.214712 184.649885 
Q 374.967615 184.106354 379.755445 184.106354 
Q 381.599969 184.106354 383.289791 184.180281 
Q 384.98358 184.253368 386.483 184.397861 
L 386.483 185.208538 
Q 384.93598 185.02288 383.404826 184.931312 
Q 381.873673 184.838903 380.334586 184.838903 
Q 377.486482 184.838903 375.943428 185.176615 
Q 374.400374 185.513487 374.400374 186.141026 
Q 374.400374 186.762684 375.887894 187.102076 
Q 377.375414 187.440628 380.112449 187.440628 
Q 380.858193 187.440628 381.496834 187.421306 
Q 382.135476 187.401144 382.643216 187.35914 
L 382.643216 186.598029 
L 379.727678 186.598029 
L 379.727678 185.920085 
L 387.165275 185.920085 
L 387.165275 187.805222 
z
" clip-path="url(#pa2d0e695b0)" style="fill: #ffa600"/>
   </g>
   <g id="patch_59">
    <path d="M 387.165275 183.523339 
Q 385.684743 183.812326 384.083806 183.9585 
Q 382.482868 184.106354 380.739229 184.106354 
Q 375.539527 184.106354 372.502652 183.010891 
Q 369.465776 181.915428 369.465776 180.042051 
Q 369.465776 178.161954 372.502652 177.068171 
Q 375.539527 175.972708 380.739229 175.972708 
Q 382.482868 175.972708 384.083806 176.120562 
Q 385.684743 176.266736 387.165275 176.555723 
L 387.165275 178.177076 
Q 385.671365 177.794 384.222048 177.615903 
Q 382.772732 177.437806 381.171794 177.437806 
Q 378.299918 177.437806 376.654386 178.131711 
Q 375.013314 178.823937 375.013314 180.042051 
Q 375.013314 181.255126 376.654386 181.949031 
Q 378.299918 182.641256 381.171794 182.641256 
Q 382.772732 182.641256 384.222048 182.463159 
Q 385.671365 182.283382 387.165275 181.900306 
L 387.165275 183.523339 
z
" clip-path="url(#pa2d0e695b0)" style="fill: #0000ff"/>
   </g>
   <g id="patch_60">
    <path d="M 381.726235 164.119131 
L 374.919292 164.119131 
L 373.844512 175.972708 
L 369.465776 175.972708 
L 375.719044 110.90354 
L 380.912007 110.90354 
L 387.165275 175.972708 
L 382.790159 175.972708 
L 381.726235 164.119131 
z
M 376.004929 152.042427 
L 380.629742 152.042427 
L 378.320954 126.159792 
L 376.004929 152.042427 
z
" clip-path="url(#pa2d0e695b0)" style="fill: #008000"/>
   </g>
   <g id="patch_61">
    <path d="M 400.357287 191.939455 
L 393.550344 191.939455 
L 392.475563 192.24 
L 388.096828 192.24 
L 394.350096 190.590185 
L 399.543059 190.590185 
L 405.796327 192.24 
L 401.421211 192.24 
L 400.357287 191.939455 
z
M 394.635981 191.633253 
L 399.260793 191.633253 
L 396.952006 190.977004 
L 394.635981 191.633253 
z
" clip-path="url(#pa2d0e695b0)" style="fill: #008000"/>
   </g>
   <g id="patch_62">
    <path d="M 405.796327 190.366279 
Q 404.011304 190.478232 402.091412 190.534464 
Q 400.17152 190.590185 398.124693 190.590185 
Q 393.499499 190.590185 390.798164 190.256882 
Q 388.096828 189.923579 388.096828 189.35359 
Q 388.096828 188.776955 390.845764 188.446208 
Q 393.598667 188.115461 398.386497 188.115461 
Q 400.231021 188.115461 401.920843 188.160447 
Q 403.614632 188.204922 405.114052 188.292848 
L 405.114052 188.786157 
Q 403.567031 188.673182 402.035878 188.617461 
Q 400.504724 188.561229 398.965637 188.561229 
Q 396.117533 188.561229 394.57448 188.766731 
Q 393.031426 188.971723 393.031426 189.35359 
Q 393.031426 189.731878 394.518946 189.938404 
Q 396.006465 190.144417 398.743501 190.144417 
Q 399.489244 190.144417 400.127886 190.13266 
Q 400.766528 190.120391 401.274268 190.094831 
L 401.274268 189.631683 
L 398.35873 189.631683 
L 398.35873 189.219144 
L 405.796327 189.219144 
L 405.796327 190.366279 
z
" clip-path="url(#pa2d0e695b0)" style="fill: #ffa600"/>
   </g>
   <g id="patch_63">
    <path d="M 405.796327 187.701559 
Q 404.315795 187.906721 402.714857 188.010495 
Q 401.11392 188.115461 399.370281 188.115461 
Q 394.170579 188.115461 391.133704 187.337755 
Q 388.096828 186.560048 388.096828 185.230074 
Q 388.096828 183.895328 391.133704 183.118814 
Q 394.170579 182.341107 399.370281 182.341107 
Q 401.11392 182.341107 402.714857 182.446074 
Q 404.315795 182.549848 405.796327 182.75501 
L 405.796327 183.906064 
Q 404.302416 183.634105 402.8531 183.507668 
Q 401.403783 183.381231 399.802846 183.381231 
Q 396.93097 183.381231 395.285438 183.873858 
Q 393.644366 184.365292 393.644366 185.230074 
Q 393.644366 186.091277 395.285438 186.583904 
Q 396.93097 187.075338 399.802846 187.075338 
Q 401.403783 187.075338 402.8531 186.948901 
Q 404.302416 186.821271 405.796327 186.549313 
L 405.796327 187.701559 
z
" clip-path="url(#pa2d0e695b0)" style="fill: #0000ff"/>
   </g>
   <g id="patch_64">
    <path d="M 388.096828 175.741846 
L 405.796327 175.741846 
L 405.796327 177.028886 
L 399.428624 177.028886 
L 399.428624 182.341107 
L 394.47688 182.341107 
L 394.47688 177.028886 
L 388.096828 177.028886 
L 388.096828 175.741846 
z
" clip-path="url(#pa2d0e695b0)" style="fill: #ff0000"/>
   </g>
   <g id="patch_65">
    <path d="M 424.427379 192.048312 
Q 422.642356 192.144156 420.722464 192.192297 
Q 418.802572 192.24 416.755745 192.24 
Q 412.130551 192.24 409.429215 191.954657 
Q 406.72788 191.669313 406.72788 191.181341 
Q 406.72788 190.687679 409.476816 190.404524 
Q 412.229719 190.121368 417.017548 190.121368 
Q 418.862073 190.121368 420.551895 190.159881 
Q 422.245684 190.197956 423.745103 190.273231 
L 423.745103 190.695556 
Q 422.198083 190.598837 420.66693 190.551134 
Q 419.135776 190.502993 417.596689 190.502993 
Q 414.748585 190.502993 413.205532 190.678926 
Q 411.662478 190.854421 411.662478 191.181341 
Q 411.662478 191.505197 413.149997 191.682005 
Q 414.637517 191.858375 417.374553 191.858375 
Q 418.120296 191.858375 418.758938 191.848309 
Q 419.39758 191.837806 419.90532 191.815924 
L 419.90532 191.419419 
L 416.989781 191.419419 
L 416.989781 191.06624 
L 424.427379 191.06624 
L 424.427379 192.048312 
z
" clip-path="url(#pa2d0e695b0)" style="fill: #ffa600"/>
   </g>
   <g id="patch_66">
    <path d="M 406.72788 185.884105 
L 424.427379 185.884105 
L 424.427379 186.710489 
L 418.059675 186.710489 
L 418.059675 190.121368 
L 413.107932 190.121368 
L 413.107932 186.710489 
L 406.72788 186.710489 
L 406.72788 185.884105 
z
" clip-path="url(#pa2d0e695b0)" style="fill: #ff0000"/>
   </g>
   <g id="patch_67">
    <path d="M 418.988338 183.954361 
L 412.181395 183.954361 
L 411.106615 185.884105 
L 406.72788 185.884105 
L 412.981148 175.290947 
L 418.174111 175.290947 
L 424.427379 185.884105 
L 420.052263 185.884105 
L 418.988338 183.954361 
z
M 413.267032 181.988293 
L 417.891845 181.988293 
L 415.583058 177.77464 
L 413.267032 181.988293 
z
" clip-path="url(#pa2d0e695b0)" style="fill: #008000"/>
   </g>
   <g id="patch_68">
    <path d="M 424.427379 173.468599 
Q 422.946846 174.371895 421.345909 174.828795 
Q 419.744972 175.290947 418.001333 175.290947 
Q 412.801631 175.290947 409.764755 171.866825 
Q 406.72788 168.442703 406.72788 162.587034 
Q 406.72788 156.710358 409.764755 153.291488 
Q 412.801631 149.867366 418.001333 149.867366 
Q 419.744972 149.867366 421.345909 150.329518 
Q 422.946846 150.786417 424.427379 151.689713 
L 424.427379 156.757624 
Q 422.933468 155.560232 421.484152 155.003549 
Q 420.034835 154.446867 418.433898 154.446867 
Q 415.562021 154.446867 413.91649 156.615828 
Q 412.275417 158.779536 412.275417 162.587034 
Q 412.275417 166.378776 413.91649 168.547737 
Q 415.562021 170.711446 418.433898 170.711446 
Q 420.034835 170.711446 421.484152 170.154764 
Q 422.933468 169.59283 424.427379 168.395437 
L 424.427379 173.468599 
z
" clip-path="url(#pa2d0e695b0)" style="fill: #0000ff"/>
   </g>
   <g id="patch_69">
    <path d="M 425.358932 185.887909 
L 443.058431 185.887909 
L 443.058431 187.126743 
L 436.690727 187.126743 
L 436.690727 192.24 
L 431.738984 192.24 
L 431.738984 187.126743 
L 425.358932 187.126743 
L 425.358932 185.887909 
z
" clip-path="url(#pa2d0e695b0)" style="fill: #ff0000"/>
   </g>
   <g id="patch_70">
    <path d="M 443.058431 184.45111 
Q 441.273407 185.16951 439.353515 185.530349 
Q 437.433623 185.887909 435.386797 185.887909 
Q 430.761603 185.887909 428.060267 183.749113 
Q 425.358932 181.610318 425.358932 177.952715 
Q 425.358932 174.252468 428.107868 172.130074 
Q 430.86077 170.00768 435.6486 170.00768 
Q 437.493124 170.00768 439.182946 170.296352 
Q 440.876735 170.581744 442.376155 171.145966 
L 442.376155 174.311514 
Q 440.829135 173.586554 439.297981 173.228995 
Q 437.766828 172.868155 436.227741 172.868155 
Q 433.379637 172.868155 431.836583 174.18686 
Q 430.29353 175.502285 430.29353 177.952715 
Q 430.29353 180.380182 431.781049 181.705448 
Q 433.268569 183.027434 436.005605 183.027434 
Q 436.751348 183.027434 437.38999 182.951985 
Q 438.028631 182.873257 438.536371 182.709239 
L 438.536371 179.737232 
L 435.620833 179.737232 
L 435.620833 177.08998 
L 443.058431 177.08998 
L 443.058431 184.45111 
z
" clip-path="url(#pa2d0e695b0)" style="fill: #ffa600"/>
   </g>
   <g id="patch_71">
    <path d="M 437.61939 162.486183 
L 430.812447 162.486183 
L 429.737667 170.00768 
L 425.358932 170.00768 
L 431.6122 128.719087 
L 436.805163 128.719087 
L 443.058431 170.00768 
L 438.683314 170.00768 
L 437.61939 162.486183 
z
M 431.898084 154.823105 
L 436.522897 154.823105 
L 434.214109 138.399696 
L 431.898084 154.823105 
z
" clip-path="url(#pa2d0e695b0)" style="fill: #008000"/>
   </g>
   <g id="patch_72">
    <path d="M 461.689482 192.162316 
Q 460.20895 192.200822 458.608013 192.220299 
Q 457.007075 192.24 455.263436 192.24 
Q 450.063734 192.24 447.026859 192.094035 
Q 443.989983 191.94807 443.989983 191.698453 
Q 443.989983 191.447939 447.026859 191.302198 
Q 450.063734 191.156233 455.263436 191.156233 
Q 457.007075 191.156233 458.608013 191.175934 
Q 460.20895 191.195411 461.689482 191.233917 
L 461.689482 191.449954 
Q 460.195572 191.398911 458.746255 191.375181 
Q 457.296939 191.35145 455.696001 191.35145 
Q 452.824125 191.35145 451.178593 191.44391 
Q 449.537521 191.536145 449.537521 191.698453 
Q 449.537521 191.860088 451.178593 191.952548 
Q 452.824125 192.044783 455.696001 192.044783 
Q 457.296939 192.044783 458.746255 192.021053 
Q 460.195572 191.997098 461.689482 191.946055 
L 461.689482 192.162316 
z
" clip-path="url(#pa2d0e695b0)" style="fill: #0000ff"/>
   </g>
   <g id="patch_73">
    <path d="M 443.989983 186.821167 
L 461.689482 186.821167 
L 461.689482 187.666626 
L 455.321779 187.666626 
L 455.321779 191.156233 
L 450.370035 191.156233 
L 450.370035 187.666626 
L 443.989983 187.666626 
L 443.989983 186.821167 
z
" clip-path="url(#pa2d0e695b0)" style="fill: #ff0000"/>
   </g>
   <g id="patch_74">
    <path d="M 456.250442 185.439167 
L 449.443499 185.439167 
L 448.368719 186.821167 
L 443.989983 186.821167 
L 450.243251 179.234801 
L 455.436214 179.234801 
L 461.689482 186.821167 
L 457.314366 186.821167 
L 456.250442 185.439167 
z
M 450.529136 184.031153 
L 455.153949 184.031153 
L 452.845161 181.013516 
L 450.529136 184.031153 
z
" clip-path="url(#pa2d0e695b0)" style="fill: #008000"/>
   </g>
   <g id="patch_75">
    <path d="M 461.689482 178.450352 
Q 459.904459 178.842576 457.984567 179.039584 
Q 456.064675 179.234801 454.017848 179.234801 
Q 449.392654 179.234801 446.691319 178.067082 
Q 443.989983 176.899363 443.989983 174.902421 
Q 443.989983 172.882196 446.738919 171.723432 
Q 449.491822 170.564668 454.279652 170.564668 
Q 456.124176 170.564668 457.813998 170.722274 
Q 459.507787 170.878089 461.007207 171.186138 
L 461.007207 172.914433 
Q 459.460187 172.518627 457.929033 172.32341 
Q 456.39788 172.126402 454.858793 172.126402 
Q 452.010689 172.126402 450.467635 172.846376 
Q 448.924581 173.564559 448.924581 174.902421 
Q 448.924581 176.227746 450.412101 176.951302 
Q 451.899621 177.673066 454.636656 177.673066 
Q 455.3824 177.673066 456.021041 177.631874 
Q 456.659683 177.58889 457.167423 177.499341 
L 457.167423 175.876714 
L 454.251885 175.876714 
L 454.251885 174.431393 
L 461.689482 174.431393 
L 461.689482 178.450352 
z
" clip-path="url(#pa2d0e695b0)" style="fill: #ffa600"/>
   </g>
   <g id="patch_76">
    <path d="M 462.621035 190.342921 
L 480.320534 190.342921 
L 480.320534 190.712904 
L 473.952831 190.712904 
L 473.952831 192.24 
L 469.001087 192.24 
L 469.001087 190.712904 
L 462.621035 190.712904 
L 462.621035 190.342921 
z
" clip-path="url(#pa2d0e695b0)" style="fill: #ff0000"/>
   </g>
   <g id="patch_77">
    <path d="M 480.320534 190.070958 
Q 478.840002 190.205763 477.239064 190.27395 
Q 475.638127 190.342921 473.894488 190.342921 
Q 468.694786 190.342921 465.657911 189.831912 
Q 462.621035 189.320904 462.621035 188.447017 
Q 462.621035 187.569995 465.657911 187.05977 
Q 468.694786 186.548762 473.894488 186.548762 
Q 475.638127 186.548762 477.239064 186.617732 
Q 478.840002 186.685919 480.320534 186.820725 
L 480.320534 187.577049 
Q 478.826623 187.398352 477.377307 187.315274 
Q 475.92799 187.232196 474.327053 187.232196 
Q 471.455177 187.232196 469.809645 187.555887 
Q 468.168573 187.878794 468.168573 188.447017 
Q 468.168573 189.012888 469.809645 189.336579 
Q 471.455177 189.659486 474.327053 189.659486 
Q 475.92799 189.659486 477.377307 189.576408 
Q 478.826623 189.492546 480.320534 189.31385 
L 480.320534 190.070958 
z
" clip-path="url(#pa2d0e695b0)" style="fill: #0000ff"/>
   </g>
   <g id="patch_78">
    <path d="M 480.320534 185.518908 
Q 478.535511 186.033835 476.615619 186.292474 
Q 474.695727 186.548762 472.6489 186.548762 
Q 468.023706 186.548762 465.322371 185.015737 
Q 462.621035 183.482712 462.621035 180.861051 
Q 462.621035 178.208823 465.369971 176.687554 
Q 468.122874 175.166286 472.910704 175.166286 
Q 474.755228 175.166286 476.44505 175.373197 
Q 478.138839 175.577757 479.638259 175.982175 
L 479.638259 178.251146 
Q 478.091238 177.731516 476.560085 177.475228 
Q 475.028931 177.216589 473.489844 177.216589 
Q 470.64174 177.216589 469.098687 178.161798 
Q 467.555633 179.104655 467.555633 180.861051 
Q 467.555633 182.600987 469.043153 183.550898 
Q 470.530672 184.498458 473.267708 184.498458 
Q 474.013451 184.498458 474.652093 184.444379 
Q 475.290735 184.387949 475.798475 184.270386 
L 475.798475 182.140139 
L 472.882937 182.140139 
L 472.882937 180.242668 
L 480.320534 180.242668 
L 480.320534 185.518908 
z
" clip-path="url(#pa2d0e695b0)" style="fill: #ffa600"/>
   </g>
   <g id="patch_79">
    <path d="M 474.881494 171.364809 
L 468.074551 171.364809 
L 466.99977 175.166286 
L 462.621035 175.166286 
L 468.874303 154.298413 
L 474.067266 154.298413 
L 480.320534 175.166286 
L 475.945418 175.166286 
L 474.881494 171.364809 
z
M 469.160188 167.491774 
L 473.785 167.491774 
L 471.476213 159.191137 
L 469.160188 167.491774 
z
" clip-path="url(#pa2d0e695b0)" style="fill: #008000"/>
   </g>
   <g id="patch_80">
    <path d="M 498.951586 191.946275 
Q 497.166563 192.093138 495.246671 192.166904 
Q 493.326779 192.24 491.279952 192.24 
Q 486.654758 192.24 483.953422 191.802766 
Q 481.252087 191.365532 481.252087 190.617807 
Q 481.252087 189.861365 484.001023 189.427484 
Q 486.753926 188.993603 491.541755 188.993603 
Q 493.38628 188.993603 495.076102 189.052616 
Q 496.769891 189.110959 498.26931 189.226303 
L 498.26931 189.873436 
Q 496.72229 189.725233 495.191137 189.652137 
Q 493.659983 189.57837 492.120896 189.57837 
Q 489.272792 189.57837 487.729739 189.847953 
Q 486.186685 190.116866 486.186685 190.617807 
Q 486.186685 191.114055 487.674205 191.384979 
Q 489.161724 191.655233 491.89876 191.655233 
Q 492.644503 191.655233 493.283145 191.639809 
Q 493.921787 191.623714 494.429527 191.590184 
L 494.429527 190.982616 
L 491.513988 190.982616 
L 491.513988 190.441438 
L 498.951586 190.441438 
L 498.951586 191.946275 
z
" clip-path="url(#pa2d0e695b0)" style="fill: #ffa600"/>
   </g>
   <g id="patch_81">
    <path d="M 481.252087 163.022426 
L 498.951586 163.022426 
L 498.951586 168.087529 
L 492.583882 168.087529 
L 492.583882 188.993603 
L 487.632139 188.993603 
L 487.632139 168.087529 
L 481.252087 168.087529 
L 481.252087 163.022426 
z
" clip-path="url(#pa2d0e695b0)" style="fill: #ff0000"/>
   </g>
   <g id="patch_82">
    <path d="M 493.512545 156.517108 
L 486.705603 156.517108 
L 485.630822 163.022426 
L 481.252087 163.022426 
L 487.505355 127.312057 
L 492.698318 127.312057 
L 498.951586 163.022426 
L 494.57647 163.022426 
L 493.512545 156.517108 
z
M 487.791239 149.889337 
L 492.416052 149.889337 
L 490.107265 135.684784 
L 487.791239 149.889337 
z
" clip-path="url(#pa2d0e695b0)" style="fill: #008000"/>
   </g>
   <g id="patch_83">
    <path d="M 512.143597 191.450574 
L 505.336654 191.450574 
L 504.261874 192.24 
L 499.883139 192.24 
L 506.136407 187.906515 
L 511.32937 187.906515 
L 517.582638 192.24 
L 513.207521 192.24 
L 512.143597 191.450574 
z
M 506.422291 190.646288 
L 511.047104 190.646288 
L 508.738316 188.922553 
L 506.422291 190.646288 
z
" clip-path="url(#pa2d0e695b0)" style="fill: #008000"/>
   </g>
   <g id="patch_84">
    <path d="M 517.582638 187.595893 
Q 516.102105 187.749861 514.501168 187.827741 
Q 512.900231 187.906515 511.156591 187.906515 
Q 505.95689 187.906515 502.920014 187.322869 
Q 499.883139 186.739222 499.883139 185.741115 
Q 499.883139 184.739428 502.920014 184.156676 
Q 505.95689 183.57303 511.156591 183.57303 
Q 512.900231 183.57303 514.501168 183.651804 
Q 516.102105 183.729683 517.582638 183.883652 
L 517.582638 184.747484 
Q 516.088727 184.543387 514.63941 184.4485 
Q 513.190094 184.353612 511.589157 184.353612 
Q 508.71728 184.353612 507.071748 184.723315 
Q 505.430676 185.092122 505.430676 185.741115 
Q 505.430676 186.387423 507.071748 186.757125 
Q 508.71728 187.125933 511.589157 187.125933 
Q 513.190094 187.125933 514.63941 187.031045 
Q 516.088727 186.935263 517.582638 186.731166 
L 517.582638 187.595893 
z
" clip-path="url(#pa2d0e695b0)" style="fill: #0000ff"/>
   </g>
   <g id="patch_85">
    <path d="M 499.883139 177.072802 
L 517.582638 177.072802 
L 517.582638 178.340528 
L 511.214934 178.340528 
L 511.214934 183.57303 
L 506.263191 183.57303 
L 506.263191 178.340528 
L 499.883139 178.340528 
L 499.883139 177.072802 
z
" clip-path="url(#pa2d0e695b0)" style="fill: #ff0000"/>
   </g>
   <g id="patch_86">
    <path d="M 517.582638 174.524273 
Q 515.797614 175.798538 513.877722 176.438579 
Q 511.957831 177.072802 509.911004 177.072802 
Q 505.28581 177.072802 502.584474 173.279101 
Q 499.883139 169.485399 499.883139 162.997704 
Q 499.883139 156.434367 502.632075 152.669758 
Q 505.384978 148.90515 510.172807 148.90515 
Q 512.017331 148.90515 513.707153 149.417183 
Q 515.400942 149.923398 516.900362 150.92419 
L 516.900362 156.539101 
Q 515.353342 155.253199 513.822188 154.618976 
Q 512.291035 153.978935 510.751948 153.978935 
Q 507.903844 153.978935 506.36079 156.317996 
Q 504.817737 158.651239 504.817737 162.997704 
Q 504.817737 167.303439 506.305256 169.654137 
Q 507.792776 171.999017 510.529812 171.999017 
Q 511.275555 171.999017 511.914197 171.86519 
Q 512.552838 171.725545 513.060578 171.434617 
L 513.060578 166.163001 
L 510.14504 166.163001 
L 510.14504 161.467422 
L 517.582638 161.467422 
L 517.582638 174.524273 
z
" clip-path="url(#pa2d0e695b0)" style="fill: #ffa600"/>
   </g>
   <g id="patch_87">
    <path d="M 530.774649 191.082847 
L 523.967706 191.082847 
L 522.892926 192.24 
L 518.51419 192.24 
L 524.767458 185.887909 
L 529.960421 185.887909 
L 536.213689 192.24 
L 531.838573 192.24 
L 530.774649 191.082847 
z
M 525.053343 189.903912 
L 529.678156 189.903912 
L 527.369368 187.377233 
L 525.053343 189.903912 
z
" clip-path="url(#pa2d0e695b0)" style="fill: #008000"/>
   </g>
   <g id="patch_88">
    <path d="M 518.51419 170.00768 
L 536.213689 170.00768 
L 536.213689 173.104767 
L 529.845986 173.104767 
L 529.845986 185.887909 
L 524.894242 185.887909 
L 524.894242 173.104767 
L 518.51419 173.104767 
L 518.51419 170.00768 
z
" clip-path="url(#pa2d0e695b0)" style="fill: #ff0000"/>
   </g>
   <g id="patch_89">
    <path d="M 536.213689 166.272005 
Q 534.428666 168.139843 532.508774 169.078026 
Q 530.588882 170.00768 528.542055 170.00768 
Q 523.916861 170.00768 521.215526 164.446812 
Q 518.51419 158.885944 518.51419 149.376177 
Q 518.51419 139.755534 521.263126 134.23731 
Q 524.016029 128.719087 528.803859 128.719087 
Q 530.648383 128.719087 532.338205 129.469633 
Q 534.031994 130.211651 535.531414 131.678629 
L 535.531414 139.909055 
Q 533.984394 138.024159 532.45324 137.094505 
Q 530.922087 136.156322 529.383 136.156322 
Q 526.534896 136.156322 524.991842 139.584955 
Q 523.448788 143.00506 523.448788 149.376177 
Q 523.448788 155.687592 524.936308 159.133283 
Q 526.423828 162.570446 529.160864 162.570446 
Q 529.906607 162.570446 530.545248 162.37428 
Q 531.18389 162.169585 531.69163 161.743138 
L 531.69163 154.01592 
L 528.776092 154.01592 
L 528.776092 147.133066 
L 536.213689 147.133066 
L 536.213689 166.272005 
z
" clip-path="url(#pa2d0e695b0)" style="fill: #ffa600"/>
   </g>
   <g id="patch_90">
    <path d="M 554.844741 191.964697 
Q 553.364209 192.101158 551.763271 192.170183 
Q 550.162334 192.24 548.418695 192.24 
Q 543.218993 192.24 540.182118 191.722716 
Q 537.145242 191.205432 537.145242 190.320813 
Q 537.145242 189.43302 540.182118 188.91653 
Q 543.218993 188.399246 548.418695 188.399246 
Q 550.162334 188.399246 551.763271 188.469063 
Q 553.364209 188.538087 554.844741 188.674549 
L 554.844741 189.440161 
Q 553.35083 189.25927 551.901514 189.175172 
Q 550.452197 189.091073 548.85126 189.091073 
Q 545.979384 189.091073 544.333852 189.418739 
Q 542.69278 189.745612 542.69278 190.320813 
Q 542.69278 190.893633 544.333852 191.2213 
Q 545.979384 191.548172 548.85126 191.548172 
Q 550.452197 191.548172 551.901514 191.464074 
Q 553.35083 191.379182 554.844741 191.198292 
L 554.844741 191.964697 
z
" clip-path="url(#pa2d0e695b0)" style="fill: #0000ff"/>
   </g>
   <g id="patch_91">
    <path d="M 554.844741 186.661742 
Q 553.059718 187.530494 551.139826 187.966853 
Q 549.219934 188.399246 547.173107 188.399246 
Q 542.547913 188.399246 539.846578 185.812825 
Q 537.145242 183.226405 537.145242 178.80331 
Q 537.145242 174.328644 539.894178 171.762059 
Q 542.647081 169.195473 547.434911 169.195473 
Q 549.279435 169.195473 550.969257 169.544561 
Q 552.663046 169.889681 554.162466 170.571988 
L 554.162466 174.400049 
Q 552.615445 173.523363 551.084292 173.090971 
Q 549.553138 172.654612 548.014052 172.654612 
Q 545.165947 172.654612 543.622894 174.249306 
Q 542.07984 175.840034 542.07984 178.80331 
Q 542.07984 181.738817 543.56736 183.341446 
Q 545.054879 184.940107 547.791915 184.940107 
Q 548.537658 184.940107 549.1763 184.848868 
Q 549.814942 184.753663 550.322682 184.555318 
L 550.322682 180.961304 
L 547.407144 180.961304 
L 547.407144 177.760014 
L 554.844741 177.760014 
L 554.844741 186.661742 
z
" clip-path="url(#pa2d0e695b0)" style="fill: #ffa600"/>
   </g>
   <g id="patch_92">
    <path d="M 537.145242 115.424911 
L 554.844741 115.424911 
L 554.844741 125.911668 
L 548.477038 125.911668 
L 548.477038 169.195473 
L 543.525294 169.195473 
L 543.525294 125.911668 
L 537.145242 125.911668 
L 537.145242 115.424911 
z
" clip-path="url(#pa2d0e695b0)" style="fill: #ff0000"/>
   </g>
   <g id="patch_93">
    <path d="M 573.475793 192.02976 
Q 571.69077 192.13488 569.770878 192.18768 
Q 567.850986 192.24 565.804159 192.24 
Q 561.178965 192.24 558.477629 191.92704 
Q 555.776294 191.614079 555.776294 191.078878 
Q 555.776294 190.537437 558.52523 190.226877 
Q 561.278133 189.916316 566.065962 189.916316 
Q 567.910487 189.916316 569.600309 189.958556 
Q 571.294098 190.000317 572.793517 190.082877 
L 572.793517 190.546077 
Q 571.246497 190.439997 569.715344 190.387677 
Q 568.18419 190.334877 566.645103 190.334877 
Q 563.796999 190.334877 562.253946 190.527837 
Q 560.710892 190.720318 560.710892 191.078878 
Q 560.710892 191.434079 562.198412 191.627999 
Q 563.685931 191.821439 566.422967 191.821439 
Q 567.16871 191.821439 567.807352 191.810399 
Q 568.445994 191.798879 568.953734 191.774879 
L 568.953734 191.339999 
L 566.038195 191.339999 
L 566.038195 190.952638 
L 573.475793 190.952638 
L 573.475793 192.02976 
z
" clip-path="url(#pa2d0e695b0)" style="fill: #ffa600"/>
   </g>
   <g id="patch_94">
    <path d="M 568.036752 188.646408 
L 561.22981 188.646408 
L 560.155029 189.916316 
L 555.776294 189.916316 
L 562.029562 182.945265 
L 567.222525 182.945265 
L 573.475793 189.916316 
L 569.100677 189.916316 
L 568.036752 188.646408 
z
M 562.315446 187.352595 
L 566.940259 187.352595 
L 564.631472 184.579712 
L 562.315446 187.352595 
z
" clip-path="url(#pa2d0e695b0)" style="fill: #008000"/>
   </g>
   <g id="patch_95">
    <path d="M 573.475793 182.445585 
Q 571.99526 182.693265 570.394323 182.818545 
Q 568.793386 182.945265 567.049747 182.945265 
Q 561.850045 182.945265 558.813169 182.006384 
Q 555.776294 181.067503 555.776294 179.4619 
Q 555.776294 177.850538 558.813169 176.913096 
Q 561.850045 175.974215 567.049747 175.974215 
Q 568.793386 175.974215 570.394323 176.100935 
Q 571.99526 176.226215 573.475793 176.473895 
L 573.475793 177.863498 
Q 571.981882 177.535177 570.532566 177.382537 
Q 569.083249 177.229897 567.482312 177.229897 
Q 564.610435 177.229897 562.964904 177.824617 
Q 561.323831 178.417898 561.323831 179.4619 
Q 561.323831 180.501582 562.964904 181.096303 
Q 564.610435 181.689584 567.482312 181.689584 
Q 569.083249 181.689584 570.532566 181.536943 
Q 571.981882 181.382863 573.475793 181.054543 
L 573.475793 182.445585 
z
" clip-path="url(#pa2d0e695b0)" style="fill: #0000ff"/>
   </g>
   <g id="patch_96">
    <path d="M 555.776294 145.766327 
L 573.475793 145.766327 
L 573.475793 151.657707 
L 567.108089 151.657707 
L 567.108089 175.974215 
L 562.156346 175.974215 
L 562.156346 151.657707 
L 555.776294 151.657707 
L 555.776294 145.766327 
z
" clip-path="url(#pa2d0e695b0)" style="fill: #ff0000"/>
   </g>
   <g id="patch_97">
    <path d="M 592.106845 191.595242 
Q 590.626312 191.914834 589.025375 192.076488 
Q 587.424438 192.24 585.680798 192.24 
Q 580.481097 192.24 577.444221 191.028523 
Q 574.407346 189.817047 574.407346 187.745273 
Q 574.407346 185.666067 577.444221 184.456449 
Q 580.481097 183.244972 585.680798 183.244972 
Q 587.424438 183.244972 589.025375 183.408485 
Q 590.626312 183.570139 592.106845 183.889731 
L 592.106845 185.68279 
Q 590.612934 185.259145 589.163617 185.062187 
Q 587.714301 184.865229 586.113364 184.865229 
Q 583.241487 184.865229 581.595955 185.632622 
Q 579.954883 186.398156 579.954883 187.745273 
Q 579.954883 189.086816 581.595955 189.854209 
Q 583.241487 190.619743 586.113364 190.619743 
Q 587.714301 190.619743 589.163617 190.422785 
Q 590.612934 190.223969 592.106845 189.800324 
L 592.106845 191.595242 
z
" clip-path="url(#pa2d0e695b0)" style="fill: #0000ff"/>
   </g>
   <g id="patch_98">
    <path d="M 586.667804 181.060154 
L 579.860861 181.060154 
L 578.786081 183.244972 
L 574.407346 183.244972 
L 580.660614 171.251602 
L 585.853577 171.251602 
L 592.106845 183.244972 
L 587.731728 183.244972 
L 586.667804 181.060154 
z
M 580.946498 178.834209 
L 585.571311 178.834209 
L 583.262523 174.063593 
L 580.946498 178.834209 
z
" clip-path="url(#pa2d0e695b0)" style="fill: #008000"/>
   </g>
   <g id="patch_99">
    <path d="M 592.106845 167.724942 
Q 590.321821 169.488272 588.401929 170.373963 
Q 586.482038 171.251602 584.435211 171.251602 
Q 579.810017 171.251602 577.108681 166.001871 
Q 574.407346 160.752139 574.407346 151.774454 
Q 574.407346 142.692096 577.156282 137.482623 
Q 579.909185 132.27315 584.697014 132.27315 
Q 586.541538 132.27315 588.23136 132.981702 
Q 589.925149 133.682203 591.424569 135.067102 
L 591.424569 142.837027 
Q 589.877549 141.057593 588.346395 140.179954 
Q 586.815242 139.294263 585.276155 139.294263 
Q 582.428051 139.294263 580.884997 142.531061 
Q 579.341944 145.759807 579.341944 151.774454 
Q 579.341944 157.732738 580.829463 160.985639 
Q 582.316983 164.230489 585.054019 164.230489 
Q 585.799762 164.230489 586.438404 164.045299 
Q 587.077045 163.852057 587.584785 163.44947 
L 587.584785 156.154598 
L 584.669247 156.154598 
L 584.669247 149.656847 
L 592.106845 149.656847 
L 592.106845 167.724942 
z
" clip-path="url(#pa2d0e695b0)" style="fill: #ffa600"/>
   </g>
   <g id="patch_100">
    <path d="M 593.038397 190.911444 
L 610.737896 190.911444 
L 610.737896 191.17055 
L 604.370193 191.17055 
L 604.370193 192.24 
L 599.418449 192.24 
L 599.418449 191.17055 
L 593.038397 191.17055 
L 593.038397 190.911444 
z
" clip-path="url(#pa2d0e695b0)" style="fill: #ff0000"/>
   </g>
   <g id="patch_101">
    <path d="M 605.298856 189.943358 
L 598.491913 189.943358 
L 597.417133 190.911444 
L 593.038397 190.911444 
L 599.291665 185.597221 
L 604.484628 185.597221 
L 610.737896 190.911444 
L 606.36278 190.911444 
L 605.298856 189.943358 
z
M 599.57755 188.957049 
L 604.202363 188.957049 
L 601.893575 186.843205 
L 599.57755 188.957049 
z
" clip-path="url(#pa2d0e695b0)" style="fill: #008000"/>
   </g>
   <g id="patch_102">
    <path d="M 610.737896 184.996201 
Q 608.952873 185.296711 607.032981 185.447652 
Q 605.113089 185.597221 603.066262 185.597221 
Q 598.441068 185.597221 595.739733 184.702552 
Q 593.038397 183.807884 593.038397 182.27789 
Q 593.038397 180.730058 595.787333 179.84225 
Q 598.540236 178.954443 603.328066 178.954443 
Q 605.17259 178.954443 606.862412 179.075195 
Q 608.556201 179.194576 610.055621 179.430593 
L 610.055621 180.754758 
Q 608.508601 180.451503 606.977447 180.301935 
Q 605.446294 180.150993 603.907207 180.150993 
Q 601.059103 180.150993 599.516049 180.702614 
Q 597.972995 181.252863 597.972995 182.27789 
Q 597.972995 183.293312 599.460515 183.847677 
Q 600.948035 184.40067 603.685071 184.40067 
Q 604.430814 184.40067 605.069455 184.36911 
Q 605.708097 184.336177 606.215837 184.267568 
L 606.215837 183.024362 
L 603.300299 183.024362 
L 603.300299 181.917004 
L 610.737896 181.917004 
L 610.737896 184.996201 
z
" clip-path="url(#pa2d0e695b0)" style="fill: #ffa600"/>
   </g>
   <g id="patch_103">
    <path d="M 610.737896 178.002142 
Q 609.257364 178.474176 607.656427 178.712937 
Q 606.055489 178.954443 604.31185 178.954443 
Q 599.112148 178.954443 596.075273 177.165105 
Q 593.038397 175.375767 593.038397 172.31578 
Q 593.038397 169.244816 596.075273 167.458223 
Q 599.112148 165.668885 604.31185 165.668885 
Q 606.055489 165.668885 607.656427 165.910391 
Q 609.257364 166.149152 610.737896 166.621186 
L 610.737896 169.269515 
Q 609.243986 168.643796 607.794669 168.352892 
Q 606.345353 168.061987 604.744415 168.061987 
Q 601.872539 168.061987 600.227007 169.195417 
Q 598.585935 170.326103 598.585935 172.31578 
Q 598.585935 174.297225 600.227007 175.430655 
Q 601.872539 176.561341 604.744415 176.561341 
Q 606.345353 176.561341 607.794669 176.270436 
Q 609.243986 175.976787 610.737896 175.351068 
L 610.737896 178.002142 
z
" clip-path="url(#pa2d0e695b0)" style="fill: #0000ff"/>
   </g>
   <g id="patch_104">
    <path d="M 623.929908 192.042571 
L 617.122965 192.042571 
L 616.048184 192.24 
L 611.669449 192.24 
L 617.922717 191.156233 
L 623.11568 191.156233 
L 629.368948 192.24 
L 624.993832 192.24 
L 623.929908 192.042571 
z
M 618.208602 191.841427 
L 622.833415 191.841427 
L 620.524627 191.410336 
L 618.208602 191.841427 
z
" clip-path="url(#pa2d0e695b0)" style="fill: #008000"/>
   </g>
   <g id="patch_105">
    <path d="M 629.368948 190.845498 
Q 627.888416 190.999523 626.287478 191.07743 
Q 624.686541 191.156233 622.942902 191.156233 
Q 617.7432 191.156233 614.706325 190.572374 
Q 611.669449 189.988515 611.669449 188.990043 
Q 611.669449 187.98799 614.706325 187.405026 
Q 617.7432 186.821167 622.942902 186.821167 
Q 624.686541 186.821167 626.287478 186.89997 
Q 627.888416 186.977878 629.368948 187.131902 
L 629.368948 187.99605 
Q 627.875037 187.791878 626.425721 187.696956 
Q 624.976404 187.602034 623.375467 187.602034 
Q 620.503591 187.602034 618.858059 187.971871 
Q 617.216987 188.340813 617.216987 188.990043 
Q 617.216987 189.636587 618.858059 190.006424 
Q 620.503591 190.375366 623.375467 190.375366 
Q 624.976404 190.375366 626.425721 190.280444 
Q 627.875037 190.184627 629.368948 189.980455 
L 629.368948 190.845498 
z
" clip-path="url(#pa2d0e695b0)" style="fill: #0000ff"/>
   </g>
   <g id="patch_106">
    <path d="M 611.669449 179.234801 
L 629.368948 179.234801 
L 629.368948 180.714354 
L 623.001245 180.714354 
L 623.001245 186.821167 
L 618.049501 186.821167 
L 618.049501 180.714354 
L 611.669449 180.714354 
L 611.669449 179.234801 
z
" clip-path="url(#pa2d0e695b0)" style="fill: #ff0000"/>
   </g>
   <g id="patch_107">
    <path d="M 629.368948 178.450352 
Q 627.583925 178.842576 625.664033 179.039584 
Q 623.744141 179.234801 621.697314 179.234801 
Q 617.07212 179.234801 614.370785 178.067082 
Q 611.669449 176.899363 611.669449 174.902421 
Q 611.669449 172.882196 614.418385 171.723432 
Q 617.171288 170.564668 621.959118 170.564668 
Q 623.803642 170.564668 625.493464 170.722274 
Q 627.187253 170.878089 628.686673 171.186138 
L 628.686673 172.914433 
Q 627.139652 172.518627 625.608499 172.32341 
Q 624.077345 172.126402 622.538259 172.126402 
Q 619.690154 172.126402 618.147101 172.846376 
Q 616.604047 173.564559 616.604047 174.902421 
Q 616.604047 176.227746 618.091567 176.951302 
Q 619.579086 177.673066 622.316122 177.673066 
Q 623.061865 177.673066 623.700507 177.631874 
Q 624.339149 177.58889 624.846889 177.499341 
L 624.846889 175.876714 
L 621.931351 175.876714 
L 621.931351 174.431393 
L 629.368948 174.431393 
L 629.368948 178.450352 
z
" clip-path="url(#pa2d0e695b0)" style="fill: #ffa600"/>
   </g>
   <g id="patch_108">
    <path d="M 648 191.892499 
Q 646.214977 192.06625 644.295085 192.153522 
Q 642.375193 192.24 640.328366 192.24 
Q 635.703172 192.24 633.001836 191.722716 
Q 630.300501 191.205432 630.300501 190.320813 
Q 630.300501 189.42588 633.049437 188.912563 
Q 635.80234 188.399246 640.590169 188.399246 
Q 642.434694 188.399246 644.124516 188.469063 
Q 645.818305 188.538087 647.317724 188.674549 
L 647.317724 189.440161 
Q 645.770704 189.264824 644.239551 189.178345 
Q 642.708397 189.091073 641.16931 189.091073 
Q 638.321206 189.091073 636.778153 189.410012 
Q 635.235099 189.728158 635.235099 190.320813 
Q 635.235099 190.907914 636.722619 191.22844 
Q 638.210138 191.548172 640.947174 191.548172 
Q 641.692917 191.548172 642.331559 191.529925 
Q 642.970201 191.510883 643.477941 191.471214 
L 643.477941 190.752412 
L 640.562402 190.752412 
L 640.562402 190.112154 
L 648 190.112154 
L 648 191.892499 
z
" clip-path="url(#pa2d0e695b0)" style="fill: #ffa600"/>
   </g>
   <g id="patch_109">
    <path d="M 642.560959 184.900916 
L 635.754017 184.900916 
L 634.679236 188.399246 
L 630.300501 188.399246 
L 636.553769 169.195473 
L 641.746732 169.195473 
L 648 188.399246 
L 643.624884 188.399246 
L 642.560959 184.900916 
z
M 636.839653 181.336735 
L 641.464466 181.336735 
L 639.155679 173.698029 
L 636.839653 181.336735 
z
" clip-path="url(#pa2d0e695b0)" style="fill: #008000"/>
   </g>
   <g id="patch_110">
    <path d="M 630.300501 115.424911 
L 648 115.424911 
L 648 125.911668 
L 641.632296 125.911668 
L 641.632296 169.195473 
L 636.680553 169.195473 
L 636.680553 125.911668 
L 630.300501 125.911668 
L 630.300501 115.424911 
z
" clip-path="url(#pa2d0e695b0)" style="fill: #ff0000"/>
   </g>
   <g id="matplotlib.axis_1">
    <g id="xtick_1">
     <g id="line2d_2">
      <defs>
       <path id="m3d1fd73356" d="M 0 0 
L 0 3.5 
" style="stroke: #000000; stroke-width: 0.8"/>
      </defs>
      <g>
       <use xlink:href="#m3d1fd73356" x="98.84975" y="192.24" style="stroke: #000000; stroke-width: 0.8"/>
      </g>
     </g>
     <g id="text_1">
      <!-- 0 -->
      <g transform="translate(95.6685 206.838437) scale(0.1 -0.1)">
       <defs>
        <path id="DejaVuSans-30" d="M 2034 4250 
Q 1547 4250 1301 3770 
Q 1056 3291 1056 2328 
Q 1056 1369 1301 889 
Q 1547 409 2034 409 
Q 2525 409 2770 889 
Q 3016 1369 3016 2328 
Q 3016 3291 2770 3770 
Q 2525 4250 2034 4250 
z
M 2034 4750 
Q 2819 4750 3233 4129 
Q 3647 3509 3647 2328 
Q 3647 1150 3233 529 
Q 2819 -91 2034 -91 
Q 1250 -91 836 529 
Q 422 1150 422 2328 
Q 422 3509 836 4129 
Q 1250 4750 2034 4750 
z
" transform="scale(0.015625)"/>
       </defs>
       <use xlink:href="#DejaVuSans-30"/>
      </g>
     </g>
    </g>
    <g id="xtick_2">
     <g id="line2d_3">
      <g>
       <use xlink:href="#m3d1fd73356" x="192.005008" y="192.24" style="stroke: #000000; stroke-width: 0.8"/>
      </g>
     </g>
     <g id="text_2">
      <!-- 5 -->
      <g transform="translate(188.823758 206.838437) scale(0.1 -0.1)">
       <defs>
        <path id="DejaVuSans-35" d="M 691 4666 
L 3169 4666 
L 3169 4134 
L 1269 4134 
L 1269 2991 
Q 1406 3038 1543 3061 
Q 1681 3084 1819 3084 
Q 2600 3084 3056 2656 
Q 3513 2228 3513 1497 
Q 3513 744 3044 326 
Q 2575 -91 1722 -91 
Q 1428 -91 1123 -41 
Q 819 9 494 109 
L 494 744 
Q 775 591 1075 516 
Q 1375 441 1709 441 
Q 2250 441 2565 725 
Q 2881 1009 2881 1497 
Q 2881 1984 2565 2268 
Q 2250 2553 1709 2553 
Q 1456 2553 1204 2497 
Q 953 2441 691 2322 
L 691 4666 
z
" transform="scale(0.015625)"/>
       </defs>
       <use xlink:href="#DejaVuSans-35"/>
      </g>
     </g>
    </g>
    <g id="xtick_3">
     <g id="line2d_4">
      <g>
       <use xlink:href="#m3d1fd73356" x="285.160267" y="192.24" style="stroke: #000000; stroke-width: 0.8"/>
      </g>
     </g>
     <g id="text_3">
      <!-- 10 -->
      <g transform="translate(278.797767 206.838437) scale(0.1 -0.1)">
       <defs>
        <path id="DejaVuSans-31" d="M 794 531 
L 1825 531 
L 1825 4091 
L 703 3866 
L 703 4441 
L 1819 4666 
L 2450 4666 
L 2450 531 
L 3481 531 
L 3481 0 
L 794 0 
L 794 531 
z
" transform="scale(0.015625)"/>
       </defs>
       <use xlink:href="#DejaVuSans-31"/>
       <use xlink:href="#DejaVuSans-30" x="63.623047"/>
      </g>
     </g>
    </g>
    <g id="xtick_4">
     <g id="line2d_5">
      <g>
       <use xlink:href="#m3d1fd73356" x="378.315526" y="192.24" style="stroke: #000000; stroke-width: 0.8"/>
      </g>
     </g>
     <g id="text_4">
      <!-- 15 -->
      <g transform="translate(371.953026 206.838437) scale(0.1 -0.1)">
       <use xlink:href="#DejaVuSans-31"/>
       <use xlink:href="#DejaVuSans-35" x="63.623047"/>
      </g>
     </g>
    </g>
    <g id="xtick_5">
     <g id="line2d_6">
      <g>
       <use xlink:href="#m3d1fd73356" x="471.470785" y="192.24" style="stroke: #000000; stroke-width: 0.8"/>
      </g>
     </g>
     <g id="text_5">
      <!-- 20 -->
      <g transform="translate(465.108285 206.838437) scale(0.1 -0.1)">
       <defs>
        <path id="DejaVuSans-32" d="M 1228 531 
L 3431 531 
L 3431 0 
L 469 0 
L 469 531 
Q 828 903 1448 1529 
Q 2069 2156 2228 2338 
Q 2531 2678 2651 2914 
Q 2772 3150 2772 3378 
Q 2772 3750 2511 3984 
Q 2250 4219 1831 4219 
Q 1534 4219 1204 4116 
Q 875 4013 500 3803 
L 500 4441 
Q 881 4594 1212 4672 
Q 1544 4750 1819 4750 
Q 2544 4750 2975 4387 
Q 3406 4025 3406 3419 
Q 3406 3131 3298 2873 
Q 3191 2616 2906 2266 
Q 2828 2175 2409 1742 
Q 1991 1309 1228 531 
z
" transform="scale(0.015625)"/>
       </defs>
       <use xlink:href="#DejaVuSans-32"/>
       <use xlink:href="#DejaVuSans-30" x="63.623047"/>
      </g>
     </g>
    </g>
    <g id="xtick_6">
     <g id="line2d_7">
      <g>
       <use xlink:href="#m3d1fd73356" x="564.626043" y="192.24" style="stroke: #000000; stroke-width: 0.8"/>
      </g>
     </g>
     <g id="text_6">
      <!-- 25 -->
      <g transform="translate(558.263543 206.838437) scale(0.1 -0.1)">
       <use xlink:href="#DejaVuSans-32"/>
       <use xlink:href="#DejaVuSans-35" x="63.623047"/>
      </g>
     </g>
    </g>
   </g>
   <g id="matplotlib.axis_2">
    <g id="ytick_1">
     <g id="line2d_8">
      <defs>
       <path id="m53dcb96906" d="M 0 0 
L -3.5 0 
" style="stroke: #000000; stroke-width: 0.8"/>
      </defs>
      <g>
       <use xlink:href="#m53dcb96906" x="90" y="192.24" style="stroke: #000000; stroke-width: 0.8"/>
      </g>
     </g>
     <g id="text_7">
      <!-- 0.00 -->
      <g transform="translate(60.734375 196.039219) scale(0.1 -0.1)">
       <defs>
        <path id="DejaVuSans-2e" d="M 684 794 
L 1344 794 
L 1344 0 
L 684 0 
L 684 794 
z
" transform="scale(0.015625)"/>
       </defs>
       <use xlink:href="#DejaVuSans-30"/>
       <use xlink:href="#DejaVuSans-2e" x="63.623047"/>
       <use xlink:href="#DejaVuSans-30" x="95.410156"/>
       <use xlink:href="#DejaVuSans-30" x="159.033203"/>
      </g>
     </g>
    </g>
    <g id="ytick_2">
     <g id="line2d_9">
      <g>
       <use xlink:href="#m53dcb96906" x="90" y="171.45" style="stroke: #000000; stroke-width: 0.8"/>
      </g>
     </g>
     <g id="text_8">
      <!-- 0.25 -->
      <g transform="translate(60.734375 175.249219) scale(0.1 -0.1)">
       <use xlink:href="#DejaVuSans-30"/>
       <use xlink:href="#DejaVuSans-2e" x="63.623047"/>
       <use xlink:href="#DejaVuSans-32" x="95.410156"/>
       <use xlink:href="#DejaVuSans-35" x="159.033203"/>
      </g>
     </g>
    </g>
    <g id="ytick_3">
     <g id="line2d_10">
      <g>
       <use xlink:href="#m53dcb96906" x="90" y="150.66" style="stroke: #000000; stroke-width: 0.8"/>
      </g>
     </g>
     <g id="text_9">
      <!-- 0.50 -->
      <g transform="translate(60.734375 154.459219) scale(0.1 -0.1)">
       <use xlink:href="#DejaVuSans-30"/>
       <use xlink:href="#DejaVuSans-2e" x="63.623047"/>
       <use xlink:href="#DejaVuSans-35" x="95.410156"/>
       <use xlink:href="#DejaVuSans-30" x="159.033203"/>
      </g>
     </g>
    </g>
    <g id="ytick_4">
     <g id="line2d_11">
      <g>
       <use xlink:href="#m53dcb96906" x="90" y="129.87" style="stroke: #000000; stroke-width: 0.8"/>
      </g>
     </g>
     <g id="text_10">
      <!-- 0.75 -->
      <g transform="translate(60.734375 133.669219) scale(0.1 -0.1)">
       <defs>
        <path id="DejaVuSans-37" d="M 525 4666 
L 3525 4666 
L 3525 4397 
L 1831 0 
L 1172 0 
L 2766 4134 
L 525 4134 
L 525 4666 
z
" transform="scale(0.015625)"/>
       </defs>
       <use xlink:href="#DejaVuSans-30"/>
       <use xlink:href="#DejaVuSans-2e" x="63.623047"/>
       <use xlink:href="#DejaVuSans-37" x="95.410156"/>
       <use xlink:href="#DejaVuSans-35" x="159.033203"/>
      </g>
     </g>
    </g>
    <g id="ytick_5">
     <g id="line2d_12">
      <g>
       <use xlink:href="#m53dcb96906" x="90" y="109.08" style="stroke: #000000; stroke-width: 0.8"/>
      </g>
     </g>
     <g id="text_11">
      <!-- 1.00 -->
      <g transform="translate(60.734375 112.879219) scale(0.1 -0.1)">
       <use xlink:href="#DejaVuSans-31"/>
       <use xlink:href="#DejaVuSans-2e" x="63.623047"/>
       <use xlink:href="#DejaVuSans-30" x="95.410156"/>
       <use xlink:href="#DejaVuSans-30" x="159.033203"/>
      </g>
     </g>
    </g>
    <g id="ytick_6">
     <g id="line2d_13">
      <g>
       <use xlink:href="#m53dcb96906" x="90" y="88.29" style="stroke: #000000; stroke-width: 0.8"/>
      </g>
     </g>
     <g id="text_12">
      <!-- 1.25 -->
      <g transform="translate(60.734375 92.089219) scale(0.1 -0.1)">
       <use xlink:href="#DejaVuSans-31"/>
       <use xlink:href="#DejaVuSans-2e" x="63.623047"/>
       <use xlink:href="#DejaVuSans-32" x="95.410156"/>
       <use xlink:href="#DejaVuSans-35" x="159.033203"/>
      </g>
     </g>
    </g>
    <g id="ytick_7">
     <g id="line2d_14">
      <g>
       <use xlink:href="#m53dcb96906" x="90" y="67.5" style="stroke: #000000; stroke-width: 0.8"/>
      </g>
     </g>
     <g id="text_13">
      <!-- 1.50 -->
      <g transform="translate(60.734375 71.299219) scale(0.1 -0.1)">
       <use xlink:href="#DejaVuSans-31"/>
       <use xlink:href="#DejaVuSans-2e" x="63.623047"/>
       <use xlink:href="#DejaVuSans-35" x="95.410156"/>
       <use xlink:href="#DejaVuSans-30" x="159.033203"/>
      </g>
     </g>
    </g>
    <g id="ytick_8">
     <g id="line2d_15">
      <g>
       <use xlink:href="#m53dcb96906" x="90" y="46.71" style="stroke: #000000; stroke-width: 0.8"/>
      </g>
     </g>
     <g id="text_14">
      <!-- 1.75 -->
      <g transform="translate(60.734375 50.509219) scale(0.1 -0.1)">
       <use xlink:href="#DejaVuSans-31"/>
       <use xlink:href="#DejaVuSans-2e" x="63.623047"/>
       <use xlink:href="#DejaVuSans-37" x="95.410156"/>
       <use xlink:href="#DejaVuSans-35" x="159.033203"/>
      </g>
     </g>
    </g>
    <g id="ytick_9">
     <g id="line2d_16">
      <g>
       <use xlink:href="#m53dcb96906" x="90" y="25.92" style="stroke: #000000; stroke-width: 0.8"/>
      </g>
     </g>
     <g id="text_15">
      <!-- 2.00 -->
      <g transform="translate(60.734375 29.719219) scale(0.1 -0.1)">
       <use xlink:href="#DejaVuSans-32"/>
       <use xlink:href="#DejaVuSans-2e" x="63.623047"/>
       <use xlink:href="#DejaVuSans-30" x="95.410156"/>
       <use xlink:href="#DejaVuSans-30" x="159.033203"/>
      </g>
     </g>
    </g>
   </g>
  </g>
 </g>
 <defs>
  <clipPath id="pa2d0e695b0">
   <rect x="90" y="25.92" width="558" height="166.32"/>
  </clipPath>
 </defs>
</svg>
