<?xml version="1.0" encoding="utf-8" standalone="no"?>
<!DOCTYPE svg PUBLIC "-//W3C//DTD SVG 1.1//EN"
  "http://www.w3.org/Graphics/SVG/1.1/DTD/svg11.dtd">
<svg xmlns:xlink="http://www.w3.org/1999/xlink" width="720pt" height="216pt" viewBox="0 0 720 216" xmlns="http://www.w3.org/2000/svg" version="1.1">
 <metadata>
  <rdf:RDF xmlns:dc="http://purl.org/dc/elements/1.1/" xmlns:cc="http://creativecommons.org/ns#" xmlns:rdf="http://www.w3.org/1999/02/22-rdf-syntax-ns#">
   <cc:Work>
    <dc:type rdf:resource="http://purl.org/dc/dcmitype/StillImage"/>
    <dc:date>2025-12-17T10:22:27.205042</dc:date>
    <dc:format>image/svg+xml</dc:format>
    <dc:creator>
     <cc:Agent>
      <dc:title>Matplotlib v3.8.2, https://matplotlib.org/</dc:title>
     </cc:Agent>
    </dc:creator>
   </cc:Work>
  </rdf:RDF>
 </metadata>
 <defs>
  <style type="text/css">*{stroke-linejoin: round; stroke-linecap: butt}</style>
 </defs>
 <g id="figure_1">
  <g id="patch_1">
   <path d="M 0 216 
L 720 216 
L 720 0 
L 0 0 
z
" style="fill: #ffffff"/>
  </g>
  <g id="axes_1">
   <g id="patch_2">
    <path d="M 90 192.24 
L 648 192.24 
L 648 25.92 
L 90 25.92 
z
" style="fill: #ffffff"/>
   </g>
   <g id="line2d_1">
    <path d="M 90 192.24 
L 648 192.24 
" clip-path="url(#p6bdcc07676)" style="fill: none; stroke: #000000; stroke-width: 0.5; stroke-linecap: square"/>
   </g>
   <g id="patch_3">
    <path d="M 107.699499 192.017612 
Q 105.914476 192.128806 103.994584 192.184657 
Q 102.074692 192.24 100.027865 192.24 
Q 95.402671 192.24 92.701335 191.908957 
Q 90 191.577914 90 191.01179 
Q 90 190.439066 92.748936 190.110561 
Q 95.501839 189.782057 100.289668 189.782057 
Q 102.134193 189.782057 103.824015 189.826738 
Q 105.517804 189.870911 107.017224 189.958241 
L 107.017224 190.448205 
Q 105.470203 190.335996 103.93905 190.280653 
Q 102.407896 190.224802 100.868809 190.224802 
Q 98.020705 190.224802 96.477652 190.428911 
Q 94.934598 190.632513 94.934598 191.01179 
Q 94.934598 191.387514 96.422118 191.592639 
Q 97.909637 191.797256 100.646673 191.797256 
Q 101.392416 191.797256 102.031058 191.785578 
Q 102.6697 191.773392 103.17744 191.748005 
L 103.17744 191.287998 
L 100.261901 191.287998 
L 100.261901 190.878256 
L 107.699499 190.878256 
L 107.699499 192.017612 
z
" clip-path="url(#p6bdcc07676)" style="fill: #ffa600"/>
   </g>
   <g id="patch_4">
    <path d="M 102.260459 189.115877 
L 95.453516 189.115877 
L 94.378735 189.782057 
L 90 189.782057 
L 96.253268 186.125118 
L 101.446231 186.125118 
L 107.699499 189.782057 
L 103.324383 189.782057 
L 102.260459 189.115877 
z
M 96.539153 188.437156 
L 101.163965 188.437156 
L 98.855178 186.982532 
L 96.539153 188.437156 
z
" clip-path="url(#p6bdcc07676)" style="fill: #008000"/>
   </g>
   <g id="patch_5">
    <path d="M 107.699499 184.848859 
Q 106.218967 185.481472 104.618029 185.801456 
Q 103.017092 186.125118 101.273453 186.125118 
Q 96.073751 186.125118 93.036876 183.727076 
Q 90 181.329033 90 177.228086 
Q 90 173.112428 93.036876 170.718063 
Q 96.073751 168.320021 101.273453 168.320021 
Q 103.017092 168.320021 104.618029 168.643683 
Q 106.218967 168.963667 107.699499 169.596279 
L 107.699499 173.145529 
Q 106.205588 172.30695 104.756272 171.917084 
Q 103.306955 171.527218 101.706018 171.527218 
Q 98.834142 171.527218 97.18861 173.046224 
Q 95.547538 174.561551 95.547538 177.228086 
Q 95.547538 179.883587 97.18861 181.402593 
Q 98.834142 182.91792 101.706018 182.91792 
Q 103.306955 182.91792 104.756272 182.528054 
Q 106.205588 182.134511 107.699499 181.295931 
L 107.699499 184.848859 
z
" clip-path="url(#p6bdcc07676)" style="fill: #0000ff"/>
   </g>
   <g id="patch_6">
    <path d="M 90 112.386836 
L 107.699499 112.386836 
L 107.699499 123.295365 
L 101.331796 123.295365 
L 101.331796 168.320021 
L 96.380052 168.320021 
L 96.380052 123.295365 
L 90 123.295365 
L 90 112.386836 
z
" clip-path="url(#p6bdcc07676)" style="fill: #ff0000"/>
   </g>
   <g id="patch_7">
    <path d="M 126.330551 192.008979 
Q 124.545527 192.124489 122.625636 192.182508 
Q 120.705744 192.24 118.658917 192.24 
Q 114.033723 192.24 111.332387 191.896105 
Q 108.631052 191.55221 108.631052 190.964108 
Q 108.631052 190.369149 111.379988 190.027892 
Q 114.132891 189.686634 118.92072 189.686634 
Q 120.765244 189.686634 122.455067 189.733049 
Q 124.148856 189.778937 125.648275 189.869658 
L 125.648275 190.378643 
Q 124.101255 190.262078 122.570102 190.204586 
Q 121.038948 190.146567 119.499861 190.146567 
Q 116.651757 190.146567 115.108704 190.3586 
Q 113.56565 190.570106 113.56565 190.964108 
Q 113.56565 191.354418 115.053169 191.567506 
Q 116.540689 191.780067 119.277725 191.780067 
Q 120.023468 191.780067 120.66211 191.767936 
Q 121.300752 191.755277 121.808492 191.728905 
L 121.808492 191.251039 
L 118.892953 191.251039 
L 118.892953 190.82539 
L 126.330551 190.82539 
L 126.330551 192.008979 
z
" clip-path="url(#p6bdcc07676)" style="fill: #ffa600"/>
   </g>
   <g id="patch_8">
    <path d="M 120.89151 189.03773 
L 114.084567 189.03773 
L 113.009787 189.686634 
L 108.631052 189.686634 
L 114.88432 186.124531 
L 120.077283 186.124531 
L 126.330551 189.686634 
L 121.955434 189.686634 
L 120.89151 189.03773 
z
M 115.170204 188.376611 
L 119.795017 188.376611 
L 117.48623 186.959709 
L 115.170204 188.376611 
z
" clip-path="url(#p6bdcc07676)" style="fill: #008000"/>
   </g>
   <g id="patch_9">
    <path d="M 108.631052 171.088044 
L 126.330551 171.088044 
L 126.330551 174.020578 
L 119.962847 174.020578 
L 119.962847 186.124531 
L 115.011104 186.124531 
L 115.011104 174.020578 
L 108.631052 174.020578 
L 108.631052 171.088044 
z
" clip-path="url(#p6bdcc07676)" style="fill: #ff0000"/>
   </g>
   <g id="patch_10">
    <path d="M 126.330551 169.59448 
Q 124.850018 170.334806 123.249081 170.709273 
Q 121.648144 171.088044 119.904504 171.088044 
Q 114.704803 171.088044 111.667927 168.281693 
Q 108.631052 165.475342 108.631052 160.676137 
Q 108.631052 155.859716 111.667927 153.057669 
Q 114.704803 150.251318 119.904504 150.251318 
Q 121.648144 150.251318 123.249081 150.63009 
Q 124.850018 151.004557 126.330551 151.744882 
L 126.330551 155.898454 
Q 124.83664 154.917092 123.387324 154.460845 
Q 121.938007 154.004597 120.33707 154.004597 
Q 117.465193 154.004597 115.819662 155.78224 
Q 114.178589 157.555578 114.178589 160.676137 
Q 114.178589 163.783784 115.819662 165.561426 
Q 117.465193 167.334765 120.33707 167.334765 
Q 121.938007 167.334765 123.387324 166.878517 
Q 124.83664 166.417966 126.330551 165.436604 
L 126.330551 169.59448 
z
" clip-path="url(#p6bdcc07676)" style="fill: #0000ff"/>
   </g>
   <g id="patch_11">
    <path d="M 144.961603 192.029345 
Q 143.48107 192.133762 141.880133 192.186578 
Q 140.279195 192.24 138.535556 192.24 
Q 133.335855 192.24 130.298979 191.844188 
Q 127.262104 191.448376 127.262104 190.771489 
Q 127.262104 190.092174 130.298979 189.696969 
Q 133.335855 189.301157 138.535556 189.301157 
Q 140.279195 189.301157 141.880133 189.354579 
Q 143.48107 189.407395 144.961603 189.511811 
L 144.961603 190.097637 
Q 143.467692 189.959225 142.018375 189.894875 
Q 140.569059 189.830525 138.968121 189.830525 
Q 136.096245 189.830525 134.450713 190.081246 
Q 132.809641 190.331361 132.809641 190.771489 
Q 132.809641 191.209796 134.450713 191.460518 
Q 136.096245 191.710632 138.968121 191.710632 
Q 140.569059 191.710632 142.018375 191.646282 
Q 143.467692 191.581325 144.961603 191.442912 
L 144.961603 192.029345 
z
" clip-path="url(#p6bdcc07676)" style="fill: #0000ff"/>
   </g>
   <g id="patch_12">
    <path d="M 144.961603 188.888556 
Q 143.176579 189.094857 141.256687 189.198478 
Q 139.336795 189.301157 137.289969 189.301157 
Q 132.664774 189.301157 129.963439 188.686966 
Q 127.262104 188.072775 127.262104 187.022433 
Q 127.262104 185.959845 130.01104 185.350364 
Q 132.763942 184.740883 137.551772 184.740883 
Q 139.396296 184.740883 141.086118 184.82378 
Q 142.779907 184.905735 144.279327 185.067761 
L 144.279327 185.976801 
Q 142.732307 185.768617 141.201153 185.665938 
Q 139.67 185.562316 138.130913 185.562316 
Q 135.282809 185.562316 133.739755 185.941005 
Q 132.196702 186.318751 132.196702 187.022433 
Q 132.196702 187.719521 133.684221 188.100093 
Q 135.171741 188.479724 137.908777 188.479724 
Q 138.65452 188.479724 139.293162 188.458057 
Q 139.931803 188.435449 140.439543 188.388348 
L 140.439543 187.534887 
L 137.524005 187.534887 
L 137.524005 186.774684 
L 144.961603 186.774684 
L 144.961603 188.888556 
z
" clip-path="url(#p6bdcc07676)" style="fill: #ffa600"/>
   </g>
   <g id="patch_13">
    <path d="M 139.522562 183.777225 
L 132.715619 183.777225 
L 131.640839 184.740883 
L 127.262104 184.740883 
L 133.515372 179.450965 
L 138.708335 179.450965 
L 144.961603 184.740883 
L 140.586486 184.740883 
L 139.522562 183.777225 
z
M 133.801256 182.795427 
L 138.426069 182.795427 
L 136.117281 180.69125 
L 133.801256 182.795427 
z
" clip-path="url(#p6bdcc07676)" style="fill: #008000"/>
   </g>
   <g id="patch_14">
    <path d="M 127.262104 165.243179 
L 144.961603 165.243179 
L 144.961603 168.014093 
L 138.593899 168.014093 
L 138.593899 179.450965 
L 133.642156 179.450965 
L 133.642156 168.014093 
L 127.262104 168.014093 
L 127.262104 165.243179 
z
" clip-path="url(#p6bdcc07676)" style="fill: #ff0000"/>
   </g>
   <g id="patch_15">
    <path d="M 163.592654 192.141718 
Q 162.112122 192.190434 160.511185 192.215075 
Q 158.910247 192.24 157.166608 192.24 
Q 151.966906 192.24 148.930031 192.055331 
Q 145.893155 191.870662 145.893155 191.554855 
Q 145.893155 191.237915 148.930031 191.053529 
Q 151.966906 190.86886 157.166608 190.86886 
Q 158.910247 190.86886 160.511185 190.893785 
Q 162.112122 190.918426 163.592654 190.967143 
L 163.592654 191.240464 
Q 162.098744 191.175887 160.649427 191.145864 
Q 159.200111 191.115841 157.599173 191.115841 
Q 154.727297 191.115841 153.081765 191.232817 
Q 151.440693 191.34951 151.440693 191.554855 
Q 151.440693 191.75935 153.081765 191.876326 
Q 154.727297 191.993019 157.599173 191.993019 
Q 159.200111 191.993019 160.649427 191.962996 
Q 162.098744 191.93269 163.592654 191.868113 
L 163.592654 192.141718 
z
" clip-path="url(#p6bdcc07676)" style="fill: #0000ff"/>
   </g>
   <g id="patch_16">
    <path d="M 163.592654 190.485902 
Q 161.807631 190.677381 159.887739 190.773558 
Q 157.967847 190.86886 155.92102 190.86886 
Q 151.295826 190.86886 148.594491 190.298794 
Q 145.893155 189.728729 145.893155 188.753847 
Q 145.893155 187.767598 148.642091 187.201904 
Q 151.394994 186.63621 156.182824 186.63621 
Q 158.027348 186.63621 159.71717 186.713152 
Q 161.410959 186.789219 162.910379 186.939604 
L 162.910379 187.783336 
Q 161.363358 187.590109 159.832205 187.494806 
Q 158.301052 187.398629 156.761965 187.398629 
Q 153.913861 187.398629 152.370807 187.750112 
Q 150.827753 188.100719 150.827753 188.753847 
Q 150.827753 189.400854 152.315273 189.754085 
Q 153.802792 190.106441 156.539828 190.106441 
Q 157.285572 190.106441 157.924213 190.086331 
Q 158.562855 190.065347 159.070595 190.021631 
L 159.070595 189.229484 
L 156.155057 189.229484 
L 156.155057 188.523897 
L 163.592654 188.523897 
L 163.592654 190.485902 
z
" clip-path="url(#p6bdcc07676)" style="fill: #ffa600"/>
   </g>
   <g id="patch_17">
    <path d="M 145.893155 179.89974 
L 163.592654 179.89974 
L 163.592654 181.213539 
L 157.224951 181.213539 
L 157.224951 186.63621 
L 152.273207 186.63621 
L 152.273207 181.213539 
L 145.893155 181.213539 
L 145.893155 179.89974 
z
" clip-path="url(#p6bdcc07676)" style="fill: #ff0000"/>
   </g>
   <g id="patch_18">
    <path d="M 158.153614 178.531385 
L 151.346671 178.531385 
L 150.27189 179.89974 
L 145.893155 179.89974 
L 152.146423 172.388277 
L 157.339386 172.388277 
L 163.592654 179.89974 
L 159.217538 179.89974 
L 158.153614 178.531385 
z
M 152.432308 177.137273 
L 157.057121 177.137273 
L 154.748333 174.14943 
L 152.432308 177.137273 
z
" clip-path="url(#p6bdcc07676)" style="fill: #008000"/>
   </g>
   <g id="patch_19">
    <path d="M 182.223706 191.93065 
Q 180.743174 192.083988 179.142236 192.161548 
Q 177.541299 192.24 175.79766 192.24 
Q 170.597958 192.24 167.561083 191.658743 
Q 164.524207 191.077486 164.524207 190.083466 
Q 164.524207 189.085879 167.561083 188.505514 
Q 170.597958 187.924257 175.79766 187.924257 
Q 177.541299 187.924257 179.142236 188.002709 
Q 180.743174 188.080269 182.223706 188.233607 
L 182.223706 189.093903 
Q 180.729795 188.890641 179.280479 188.796142 
Q 177.831162 188.701643 176.230225 188.701643 
Q 173.358349 188.701643 171.712817 189.069832 
Q 170.071745 189.437129 170.071745 190.083466 
Q 170.071745 190.727127 171.712817 191.095316 
Q 173.358349 191.462614 176.230225 191.462614 
Q 177.831162 191.462614 179.280479 191.368115 
Q 180.729795 191.272724 182.223706 191.069463 
L 182.223706 191.93065 
z
" clip-path="url(#p6bdcc07676)" style="fill: #0000ff"/>
   </g>
   <g id="patch_20">
    <path d="M 164.524207 181.191698 
L 182.223706 181.191698 
L 182.223706 182.504734 
L 175.856003 182.504734 
L 175.856003 187.924257 
L 170.904259 187.924257 
L 170.904259 182.504734 
L 164.524207 182.504734 
L 164.524207 181.191698 
z
" clip-path="url(#p6bdcc07676)" style="fill: #ff0000"/>
   </g>
   <g id="patch_21">
    <path d="M 182.223706 180.473221 
Q 180.438683 180.83246 178.518791 181.012899 
Q 176.598899 181.191698 174.552072 181.191698 
Q 169.926878 181.191698 167.225542 180.122185 
Q 164.524207 179.052672 164.524207 177.223675 
Q 164.524207 175.373352 167.273143 174.312041 
Q 170.026046 173.25073 174.813876 173.25073 
Q 176.6584 173.25073 178.348222 173.395082 
Q 180.042011 173.537793 181.541431 173.819934 
L 181.541431 175.402879 
Q 179.99441 175.04036 178.463257 174.861561 
Q 176.932103 174.681122 175.393016 174.681122 
Q 172.544912 174.681122 171.001859 175.340545 
Q 169.458805 175.998328 169.458805 177.223675 
Q 169.458805 178.437539 170.946325 179.100243 
Q 172.433844 179.761307 175.17088 179.761307 
Q 175.916623 179.761307 176.555265 179.723578 
Q 177.193907 179.68421 177.701647 179.602192 
L 177.701647 178.116029 
L 174.786108 178.116029 
L 174.786108 176.792261 
L 182.223706 176.792261 
L 182.223706 180.473221 
z
" clip-path="url(#p6bdcc07676)" style="fill: #ffa600"/>
   </g>
   <g id="patch_22">
    <path d="M 176.784666 166.237879 
L 169.977723 166.237879 
L 168.902942 173.25073 
L 164.524207 173.25073 
L 170.777475 134.754302 
L 175.970438 134.754302 
L 182.223706 173.25073 
L 177.84859 173.25073 
L 176.784666 166.237879 
z
M 171.06336 159.093021 
L 175.688172 159.093021 
L 173.379385 143.780254 
L 171.06336 159.093021 
z
" clip-path="url(#p6bdcc07676)" style="fill: #008000"/>
   </g>
   <g id="patch_23">
    <path d="M 200.854758 191.937492 
Q 199.374225 192.087438 197.773288 192.163283 
Q 196.172351 192.24 194.428711 192.24 
Q 189.22901 192.24 186.192134 191.671599 
Q 183.155259 191.103198 183.155259 190.131162 
Q 183.155259 189.155639 186.192134 188.588109 
Q 189.22901 188.019708 194.428711 188.019708 
Q 196.172351 188.019708 197.773288 188.096425 
Q 199.374225 188.17227 200.854758 188.322216 
L 200.854758 189.163485 
Q 199.360847 188.964719 197.911531 188.87231 
Q 196.462214 188.779901 194.861277 188.779901 
Q 191.9894 188.779901 190.343869 189.139947 
Q 188.702796 189.499121 188.702796 190.131162 
Q 188.702796 190.760588 190.343869 191.120633 
Q 191.9894 191.479807 194.861277 191.479807 
Q 196.462214 191.479807 197.911531 191.387398 
Q 199.360847 191.294118 200.854758 191.095352 
L 200.854758 191.937492 
z
" clip-path="url(#p6bdcc07676)" style="fill: #0000ff"/>
   </g>
   <g id="patch_24">
    <path d="M 200.854758 187.590138 
Q 199.069734 187.804923 197.149843 187.912806 
Q 195.229951 188.019708 193.183124 188.019708 
Q 188.55793 188.019708 185.856594 187.380257 
Q 183.155259 186.740805 183.155259 185.647265 
Q 183.155259 184.540975 185.904195 183.906427 
Q 188.657098 183.27188 193.444927 183.27188 
Q 195.289451 183.27188 196.979274 183.358186 
Q 198.673063 183.443512 200.172482 183.612201 
L 200.172482 184.558629 
Q 198.625462 184.341882 197.094309 184.23498 
Q 195.563155 184.127097 194.024068 184.127097 
Q 191.175964 184.127097 189.632911 184.52136 
Q 188.089857 184.914642 188.089857 185.647265 
Q 188.089857 186.373023 189.577376 186.769247 
Q 191.064896 187.164491 193.801932 187.164491 
Q 194.547675 187.164491 195.186317 187.141934 
Q 195.824959 187.118396 196.332699 187.069358 
L 196.332699 186.180795 
L 193.41716 186.180795 
L 193.41716 185.389327 
L 200.854758 185.389327 
L 200.854758 187.590138 
z
" clip-path="url(#p6bdcc07676)" style="fill: #ffa600"/>
   </g>
   <g id="patch_25">
    <path d="M 183.155259 172.369459 
L 200.854758 172.369459 
L 200.854758 174.495735 
L 194.487054 174.495735 
L 194.487054 183.27188 
L 189.535311 183.27188 
L 189.535311 174.495735 
L 183.155259 174.495735 
L 183.155259 172.369459 
z
" clip-path="url(#p6bdcc07676)" style="fill: #ff0000"/>
   </g>
   <g id="patch_26">
    <path d="M 195.415717 165.322072 
L 188.608774 165.322072 
L 187.533994 172.369459 
L 183.155259 172.369459 
L 189.408527 133.683451 
L 194.60149 133.683451 
L 200.854758 172.369459 
L 196.479641 172.369459 
L 195.415717 165.322072 
z
M 189.694411 158.142029 
L 194.319224 158.142029 
L 192.010437 142.753852 
L 189.694411 158.142029 
z
" clip-path="url(#p6bdcc07676)" style="fill: #008000"/>
   </g>
   <g id="patch_27">
    <path d="M 219.48581 191.943278 
Q 218.005277 192.090356 216.40434 192.164751 
Q 214.803402 192.24 213.059763 192.24 
Q 207.860062 192.24 204.823186 191.682471 
Q 201.786311 191.124941 201.786311 190.171497 
Q 201.786311 189.214633 204.823186 188.657959 
Q 207.860062 188.100429 213.059763 188.100429 
Q 214.803402 188.100429 216.40434 188.175679 
Q 218.005277 188.250073 219.48581 188.397151 
L 219.48581 189.222329 
Q 217.991899 189.027365 216.542582 188.936724 
Q 215.093266 188.846082 213.492328 188.846082 
Q 210.620452 188.846082 208.97492 189.199241 
Q 207.333848 189.551545 207.333848 190.171497 
Q 207.333848 190.788884 208.97492 191.142043 
Q 210.620452 191.494347 213.492328 191.494347 
Q 215.093266 191.494347 216.542582 191.403706 
Q 217.991899 191.312209 219.48581 191.117245 
L 219.48581 191.943278 
z
" clip-path="url(#p6bdcc07676)" style="fill: #0000ff"/>
   </g>
   <g id="patch_28">
    <path d="M 214.046769 186.882266 
L 207.239826 186.882266 
L 206.165046 188.100429 
L 201.786311 188.100429 
L 208.039579 181.413431 
L 213.232542 181.413431 
L 219.48581 188.100429 
L 215.110693 188.100429 
L 214.046769 186.882266 
z
M 208.325463 185.641173 
L 212.950276 185.641173 
L 210.641488 182.981278 
L 208.325463 185.641173 
z
" clip-path="url(#p6bdcc07676)" style="fill: #008000"/>
   </g>
   <g id="patch_29">
    <path d="M 219.48581 180.721979 
Q 217.700786 181.067705 215.780894 181.241357 
Q 213.861002 181.413431 211.814176 181.413431 
Q 207.188981 181.413431 204.487646 180.384146 
Q 201.786311 179.354861 201.786311 177.594657 
Q 201.786311 175.813931 204.535247 174.792539 
Q 207.288149 173.771147 212.075979 173.771147 
Q 213.920503 173.771147 215.610325 173.910069 
Q 217.304114 174.047412 218.803534 174.318941 
L 218.803534 175.842346 
Q 217.256514 175.493463 215.72536 175.321389 
Q 214.194207 175.147737 212.65512 175.147737 
Q 209.807016 175.147737 208.263962 175.782357 
Q 206.720909 176.415399 206.720909 177.594657 
Q 206.720909 178.762864 208.208428 179.400642 
Q 209.695948 180.036841 212.432984 180.036841 
Q 213.178727 180.036841 213.817369 180.000532 
Q 214.45601 179.962644 214.96375 179.883711 
L 214.96375 178.453447 
L 212.048212 178.453447 
L 212.048212 177.17947 
L 219.48581 177.17947 
L 219.48581 180.721979 
z
" clip-path="url(#p6bdcc07676)" style="fill: #ffa600"/>
   </g>
   <g id="patch_30">
    <path d="M 201.786311 139.221654 
L 219.48581 139.221654 
L 219.48581 145.959768 
L 213.118106 145.959768 
L 213.118106 173.771147 
L 208.166363 173.771147 
L 208.166363 145.959768 
L 201.786311 145.959768 
L 201.786311 139.221654 
z
" clip-path="url(#p6bdcc07676)" style="fill: #ff0000"/>
   </g>
   <g id="patch_31">
    <path d="M 238.116861 192.014335 
Q 236.636329 192.126192 235.035392 192.182771 
Q 233.434454 192.24 231.690815 192.24 
Q 226.491113 192.24 223.454238 191.815984 
Q 220.417362 191.391969 220.417362 190.66685 
Q 220.417362 189.93913 223.454238 189.515764 
Q 226.491113 189.091749 231.690815 189.091749 
Q 233.434454 189.091749 235.035392 189.148978 
Q 236.636329 189.205557 238.116861 189.317414 
L 238.116861 189.944983 
Q 236.622951 189.796707 235.173634 189.727772 
Q 233.724318 189.658837 232.12338 189.658837 
Q 229.251504 189.658837 227.605972 189.927424 
Q 225.9649 190.19536 225.9649 190.66685 
Q 225.9649 191.136389 227.605972 191.404975 
Q 229.251504 191.672912 232.12338 191.672912 
Q 233.724318 191.672912 235.173634 191.603977 
Q 236.622951 191.534391 238.116861 191.386116 
L 238.116861 192.014335 
z
" clip-path="url(#p6bdcc07676)" style="fill: #0000ff"/>
   </g>
   <g id="patch_32">
    <path d="M 220.417362 184.512474 
L 238.116861 184.512474 
L 238.116861 185.405561 
L 231.749158 185.405561 
L 231.749158 189.091749 
L 226.797414 189.091749 
L 226.797414 185.405561 
L 220.417362 185.405561 
L 220.417362 184.512474 
z
" clip-path="url(#p6bdcc07676)" style="fill: #ff0000"/>
   </g>
   <g id="patch_33">
    <path d="M 238.116861 183.321305 
Q 236.331838 183.91689 234.411946 184.216042 
Q 232.492054 184.512474 230.445227 184.512474 
Q 225.820033 184.512474 223.118698 182.739318 
Q 220.417362 180.966162 220.417362 177.933847 
Q 220.417362 174.866177 223.166298 173.106619 
Q 225.919201 171.34706 230.707031 171.34706 
Q 232.551555 171.34706 234.241377 171.586382 
Q 235.935166 171.822984 237.434586 172.290749 
L 237.434586 174.91513 
Q 235.887565 174.314106 234.356412 174.017673 
Q 232.825259 173.718521 231.286172 173.718521 
Q 228.438068 173.718521 226.895014 174.811786 
Q 225.35196 175.902332 225.35196 177.933847 
Q 225.35196 179.946325 226.83948 181.045029 
Q 228.327 182.141014 231.064035 182.141014 
Q 231.809779 182.141014 232.44842 182.078464 
Q 233.087062 182.013194 233.594802 181.877216 
L 233.594802 179.41329 
L 230.679264 179.41329 
L 230.679264 177.218601 
L 238.116861 177.218601 
L 238.116861 183.321305 
z
" clip-path="url(#p6bdcc07676)" style="fill: #ffa600"/>
   </g>
   <g id="patch_34">
    <path d="M 232.677821 157.791289 
L 225.870878 157.791289 
L 224.796097 171.34706 
L 220.417362 171.34706 
L 226.67063 96.933851 
L 231.863593 96.933851 
L 238.116861 171.34706 
L 233.741745 171.34706 
L 232.677821 157.791289 
z
M 226.956515 143.980351 
L 231.581328 143.980351 
L 229.27254 114.380926 
L 226.956515 143.980351 
z
" clip-path="url(#p6bdcc07676)" style="fill: #008000"/>
   </g>
   <g id="patch_35">
    <path d="M 256.747913 192.177351 
Q 255.267381 192.208404 253.666443 192.224112 
Q 252.065506 192.24 250.321867 192.24 
Q 245.122165 192.24 242.08529 192.122284 
Q 239.048414 192.004568 239.048414 191.80326 
Q 239.048414 191.601229 242.08529 191.483693 
Q 245.122165 191.365978 250.321867 191.365978 
Q 252.065506 191.365978 253.666443 191.381866 
Q 255.267381 191.397573 256.747913 191.428627 
L 256.747913 191.602854 
Q 255.254002 191.561689 253.804686 191.542551 
Q 252.355369 191.523413 250.754432 191.523413 
Q 247.882556 191.523413 246.237024 191.597979 
Q 244.595952 191.672364 244.595952 191.80326 
Q 244.595952 191.933614 246.237024 192.008179 
Q 247.882556 192.082564 250.754432 192.082564 
Q 252.355369 192.082564 253.804686 192.063426 
Q 255.254002 192.044108 256.747913 192.002943 
L 256.747913 192.177351 
z
" clip-path="url(#p6bdcc07676)" style="fill: #0000ff"/>
   </g>
   <g id="patch_36">
    <path d="M 256.747913 191.049661 
Q 254.96289 191.207819 253.042998 191.28726 
Q 251.123106 191.365978 249.076279 191.365978 
Q 244.451085 191.365978 241.74975 190.895114 
Q 239.048414 190.42425 239.048414 189.619016 
Q 239.048414 188.804393 241.79735 188.33714 
Q 244.550253 187.869888 249.338083 187.869888 
Q 251.182607 187.869888 252.872429 187.93344 
Q 254.566218 187.99627 256.065638 188.120485 
L 256.065638 188.817392 
Q 254.518617 188.65779 252.987464 188.579072 
Q 251.45631 188.499631 249.917223 188.499631 
Q 247.069119 188.499631 245.526066 188.789949 
Q 243.983012 189.079545 243.983012 189.619016 
Q 243.983012 190.153432 245.470532 190.445194 
Q 246.958051 190.736234 249.695087 190.736234 
Q 250.44083 190.736234 251.079472 190.719623 
Q 251.718114 190.702291 252.225854 190.666182 
L 252.225854 190.011884 
L 249.310315 190.011884 
L 249.310315 189.429082 
L 256.747913 189.429082 
L 256.747913 191.049661 
z
" clip-path="url(#p6bdcc07676)" style="fill: #ffa600"/>
   </g>
   <g id="patch_37">
    <path d="M 251.308873 184.101688 
L 244.50193 184.101688 
L 243.427149 187.869888 
L 239.048414 187.869888 
L 245.301682 167.184688 
L 250.494645 167.184688 
L 256.747913 187.869888 
L 252.372797 187.869888 
L 251.308873 184.101688 
z
M 245.587567 180.262558 
L 250.212379 180.262558 
L 247.903592 172.034583 
L 245.587567 180.262558 
z
" clip-path="url(#p6bdcc07676)" style="fill: #008000"/>
   </g>
   <g id="patch_38">
    <path d="M 239.048414 95.223503 
L 256.747913 95.223503 
L 256.747913 109.257939 
L 250.38021 109.257939 
L 250.38021 167.184688 
L 245.428466 167.184688 
L 245.428466 109.257939 
L 239.048414 109.257939 
L 239.048414 95.223503 
z
" clip-path="url(#p6bdcc07676)" style="fill: #ff0000"/>
   </g>
   <g id="patch_39">
    <path d="M 275.378965 192.03971 
Q 273.593941 192.139855 271.67405 192.190156 
Q 269.754158 192.24 267.707331 192.24 
Q 263.082137 192.24 260.380801 191.941851 
Q 257.679466 191.643702 257.679466 191.13383 
Q 257.679466 190.618014 260.428402 190.322152 
Q 263.181305 190.026289 267.969134 190.026289 
Q 269.813659 190.026289 271.503481 190.06653 
Q 273.19727 190.106314 274.696689 190.184967 
L 274.696689 190.626245 
Q 273.149669 190.525186 271.618516 190.475342 
Q 270.087362 190.425041 268.548275 190.425041 
Q 265.700171 190.425041 264.157118 190.608869 
Q 262.614064 190.792239 262.614064 191.13383 
Q 262.614064 191.47222 264.101583 191.656963 
Q 265.589103 191.841249 268.326139 191.841249 
Q 269.071882 191.841249 269.710524 191.830731 
Q 270.349166 191.819756 270.856906 191.796892 
L 270.856906 191.382593 
L 267.941367 191.382593 
L 267.941367 191.013565 
L 275.378965 191.013565 
L 275.378965 192.03971 
z
" clip-path="url(#p6bdcc07676)" style="fill: #ffa600"/>
   </g>
   <g id="patch_40">
    <path d="M 275.378965 189.772405 
Q 273.898432 189.89825 272.297495 189.961903 
Q 270.696558 190.026289 268.952919 190.026289 
Q 263.753217 190.026289 260.716341 189.549251 
Q 257.679466 189.072212 257.679466 188.256418 
Q 257.679466 187.437697 260.716341 186.96139 
Q 263.753217 186.484352 268.952919 186.484352 
Q 270.696558 186.484352 272.297495 186.548737 
Q 273.898432 186.612391 275.378965 186.738236 
L 275.378965 187.444282 
Q 273.885054 187.277465 272.435738 187.199909 
Q 270.986421 187.122354 269.385484 187.122354 
Q 266.513607 187.122354 264.868076 187.424527 
Q 263.227003 187.725969 263.227003 188.256418 
Q 263.227003 188.784672 264.868076 189.086845 
Q 266.513607 189.388287 269.385484 189.388287 
Q 270.986421 189.388287 272.435738 189.310731 
Q 273.885054 189.232444 275.378965 189.065627 
L 275.378965 189.772405 
z
" clip-path="url(#p6bdcc07676)" style="fill: #0000ff"/>
   </g>
   <g id="patch_41">
    <path d="M 269.939924 185.355198 
L 263.132981 185.355198 
L 262.058201 186.484352 
L 257.679466 186.484352 
L 263.932734 180.285961 
L 269.125697 180.285961 
L 275.378965 186.484352 
L 271.003849 186.484352 
L 269.939924 185.355198 
z
M 264.218618 184.204789 
L 268.843431 184.204789 
L 266.534644 181.739248 
L 264.218618 184.204789 
z
" clip-path="url(#p6bdcc07676)" style="fill: #008000"/>
   </g>
   <g id="patch_42">
    <path d="M 257.679466 44.806851 
L 275.378965 44.806851 
L 275.378965 71.229052 
L 269.011261 71.229052 
L 269.011261 180.285961 
L 264.059518 180.285961 
L 264.059518 71.229052 
L 257.679466 71.229052 
L 257.679466 44.806851 
z
" clip-path="url(#p6bdcc07676)" style="fill: #ff0000"/>
   </g>
   <g id="patch_43">
    <path d="M 288.570976 191.876056 
L 281.764033 191.876056 
L 280.689253 192.24 
L 276.310518 192.24 
L 282.563786 190.242162 
L 287.756749 190.242162 
L 294.010017 192.24 
L 289.6349 192.24 
L 288.570976 191.876056 
z
M 282.84967 191.505262 
L 287.474483 191.505262 
L 285.165695 190.710579 
L 282.84967 191.505262 
z
" clip-path="url(#p6bdcc07676)" style="fill: #008000"/>
   </g>
   <g id="patch_44">
    <path d="M 294.010017 190.016214 
Q 292.224993 190.129188 290.305101 190.185933 
Q 288.385209 190.242162 286.338383 190.242162 
Q 281.713188 190.242162 279.011853 189.905819 
Q 276.310518 189.569476 276.310518 188.994287 
Q 276.310518 188.412393 279.059454 188.078629 
Q 281.812356 187.744865 286.600186 187.744865 
Q 288.44471 187.744865 290.134532 187.790261 
Q 291.828321 187.835141 293.327741 187.92387 
L 293.327741 188.421678 
Q 291.780721 188.307672 290.249567 188.251443 
Q 288.718414 188.194698 287.179327 188.194698 
Q 284.331223 188.194698 282.788169 188.402076 
Q 281.245116 188.608937 281.245116 188.994287 
Q 281.245116 189.376027 282.732635 189.584436 
Q 284.220155 189.792329 286.957191 189.792329 
Q 287.702934 189.792329 288.341576 189.780464 
Q 288.980217 189.768083 289.487957 189.74229 
L 289.487957 189.274917 
L 286.572419 189.274917 
L 286.572419 188.858615 
L 294.010017 188.858615 
L 294.010017 190.016214 
z
" clip-path="url(#p6bdcc07676)" style="fill: #ffa600"/>
   </g>
   <g id="patch_45">
    <path d="M 294.010017 187.530059 
Q 292.529484 187.636533 290.928547 187.69039 
Q 289.32761 187.744865 287.58397 187.744865 
Q 282.384269 187.744865 279.347393 187.341253 
Q 276.310518 186.937641 276.310518 186.247415 
Q 276.310518 185.554713 279.347393 185.15172 
Q 282.384269 184.748108 287.58397 184.748108 
Q 289.32761 184.748108 290.928547 184.802583 
Q 292.529484 184.85644 294.010017 184.962914 
L 294.010017 185.560284 
Q 292.516106 185.419144 291.066789 185.353526 
Q 289.617473 185.287908 288.016535 185.287908 
Q 285.144659 185.287908 283.499127 185.54357 
Q 281.858055 185.798613 281.858055 186.247415 
Q 281.858055 186.69436 283.499127 186.950022 
Q 285.144659 187.205065 288.016535 187.205065 
Q 289.617473 187.205065 291.066789 187.139447 
Q 292.516106 187.07321 294.010017 186.93207 
L 294.010017 187.530059 
z
" clip-path="url(#p6bdcc07676)" style="fill: #0000ff"/>
   </g>
   <g id="patch_46">
    <path d="M 276.310518 25.92 
L 294.010017 25.92 
L 294.010017 56.895906 
L 287.642313 56.895906 
L 287.642313 184.748108 
L 282.69057 184.748108 
L 282.69057 56.895906 
L 276.310518 56.895906 
L 276.310518 25.92 
z
" clip-path="url(#p6bdcc07676)" style="fill: #ff0000"/>
   </g>
   <g id="patch_47">
    <path d="M 312.641068 191.970219 
Q 310.856045 192.10511 308.936153 192.172863 
Q 307.016261 192.24 304.969434 192.24 
Q 300.34424 192.24 297.642905 191.838409 
Q 294.941569 191.436818 294.941569 190.750048 
Q 294.941569 190.05527 297.690505 189.656759 
Q 300.443408 189.258248 305.231238 189.258248 
Q 307.075762 189.258248 308.765584 189.31245 
Q 310.459373 189.366037 311.958793 189.471978 
L 311.958793 190.066357 
Q 310.411772 189.930235 308.880619 189.863098 
Q 307.349466 189.795345 305.810379 189.795345 
Q 302.962275 189.795345 301.419221 190.042952 
Q 299.876167 190.289943 299.876167 190.750048 
Q 299.876167 191.205841 301.363687 191.45468 
Q 302.851207 191.702903 305.588242 191.702903 
Q 306.333986 191.702903 306.972627 191.688736 
Q 307.611269 191.673954 308.119009 191.643157 
L 308.119009 191.085118 
L 305.203471 191.085118 
L 305.203471 190.588056 
L 312.641068 190.588056 
L 312.641068 191.970219 
z
" clip-path="url(#p6bdcc07676)" style="fill: #ffa600"/>
   </g>
   <g id="patch_48">
    <path d="M 312.641068 188.88422 
Q 311.160536 189.069617 309.559599 189.163393 
Q 307.958661 189.258248 306.215022 189.258248 
Q 301.01532 189.258248 297.978445 188.555463 
Q 294.941569 187.852679 294.941569 186.650831 
Q 294.941569 185.444672 297.978445 184.742965 
Q 301.01532 184.040181 306.215022 184.040181 
Q 307.958661 184.040181 309.559599 184.135035 
Q 311.160536 184.228812 312.641068 184.414209 
L 312.641068 185.454373 
Q 311.147158 185.208614 309.697841 185.094357 
Q 308.248525 184.980101 306.647587 184.980101 
Q 303.775711 184.980101 302.130179 185.42527 
Q 300.489107 185.869361 300.489107 186.650831 
Q 300.489107 187.429068 302.130179 187.874236 
Q 303.775711 188.318327 306.647587 188.318327 
Q 308.248525 188.318327 309.697841 188.204071 
Q 311.147158 188.088737 312.641068 187.842978 
L 312.641068 188.88422 
z
" clip-path="url(#p6bdcc07676)" style="fill: #0000ff"/>
   </g>
   <g id="patch_49">
    <path d="M 307.202028 182.546429 
L 300.395085 182.546429 
L 299.320305 184.040181 
L 294.941569 184.040181 
L 301.194837 175.840362 
L 306.3878 175.840362 
L 312.641068 184.040181 
L 308.265952 184.040181 
L 307.202028 182.546429 
z
M 301.480722 181.024559 
L 306.105535 181.024559 
L 303.796747 177.762908 
L 301.480722 181.024559 
z
" clip-path="url(#p6bdcc07676)" style="fill: #008000"/>
   </g>
   <g id="patch_50">
    <path d="M 294.941569 68.124554 
L 312.641068 68.124554 
L 312.641068 89.132138 
L 306.273365 89.132138 
L 306.273365 175.840362 
L 301.321621 175.840362 
L 301.321621 89.132138 
L 294.941569 89.132138 
L 294.941569 68.124554 
z
" clip-path="url(#p6bdcc07676)" style="fill: #ff0000"/>
   </g>
   <g id="patch_51">
    <path d="M 331.27212 192.094762 
Q 329.791588 192.166753 328.19065 192.203167 
Q 326.589713 192.24 324.846074 192.24 
Q 319.646372 192.24 316.609497 191.967104 
Q 313.572621 191.694208 313.572621 191.227523 
Q 313.572621 190.759163 316.609497 190.486685 
Q 319.646372 190.213789 324.846074 190.213789 
Q 326.589713 190.213789 328.19065 190.250622 
Q 329.791588 190.287036 331.27212 190.359027 
L 331.27212 190.76293 
Q 329.778209 190.6675 328.328893 190.623133 
Q 326.879576 190.578767 325.278639 190.578767 
Q 322.406763 190.578767 320.761231 190.751629 
Q 319.120159 190.924072 319.120159 191.227523 
Q 319.120159 191.529717 320.761231 191.702579 
Q 322.406763 191.875023 325.278639 191.875023 
Q 326.879576 191.875023 328.328893 191.830656 
Q 329.778209 191.785871 331.27212 191.690441 
L 331.27212 192.094762 
z
" clip-path="url(#p6bdcc07676)" style="fill: #0000ff"/>
   </g>
   <g id="patch_52">
    <path d="M 313.572621 186.161368 
L 331.27212 186.161368 
L 331.27212 186.951703 
L 324.904417 186.951703 
L 324.904417 190.213789 
L 319.952673 190.213789 
L 319.952673 186.951703 
L 313.572621 186.951703 
L 313.572621 186.161368 
z
" clip-path="url(#p6bdcc07676)" style="fill: #ff0000"/>
   </g>
   <g id="patch_53">
    <path d="M 331.27212 185.336402 
Q 329.487097 185.748885 327.567205 185.956069 
Q 325.647313 186.161368 323.600486 186.161368 
Q 318.975292 186.161368 316.273957 184.933337 
Q 313.572621 183.705305 313.572621 181.60522 
Q 313.572621 179.48065 316.321557 178.262035 
Q 319.07446 177.043421 323.86229 177.043421 
Q 325.706814 177.043421 327.396636 177.209168 
Q 329.090425 177.373031 330.589845 177.69699 
L 330.589845 179.514552 
Q 329.042824 179.098302 327.511671 178.893003 
Q 325.980517 178.685819 324.44143 178.685819 
Q 321.593326 178.685819 320.050273 179.44298 
Q 318.507219 180.198257 318.507219 181.60522 
Q 318.507219 182.998998 319.994739 183.759926 
Q 321.482258 184.51897 324.219294 184.51897 
Q 324.965037 184.51897 325.603679 184.47565 
Q 326.242321 184.430446 326.750061 184.336272 
L 326.750061 182.629835 
L 323.834523 182.629835 
L 323.834523 181.109864 
L 331.27212 181.109864 
L 331.27212 185.336402 
z
" clip-path="url(#p6bdcc07676)" style="fill: #ffa600"/>
   </g>
   <g id="patch_54">
    <path d="M 325.83308 174.690329 
L 319.026137 174.690329 
L 317.951356 177.043421 
L 313.572621 177.043421 
L 319.825889 164.126329 
L 325.018852 164.126329 
L 331.27212 177.043421 
L 326.897004 177.043421 
L 325.83308 174.690329 
z
M 320.111774 172.292943 
L 324.736586 172.292943 
L 322.427799 167.154897 
L 320.111774 172.292943 
z
" clip-path="url(#p6bdcc07676)" style="fill: #008000"/>
   </g>
   <g id="patch_55">
    <path d="M 349.903172 192.059406 
Q 348.422639 192.148922 346.821702 192.194201 
Q 345.220765 192.24 343.477126 192.24 
Q 338.277424 192.24 335.240548 191.90067 
Q 332.203673 191.56134 332.203673 190.981044 
Q 332.203673 190.398666 335.240548 190.059856 
Q 338.277424 189.720526 343.477126 189.720526 
Q 345.220765 189.720526 346.821702 189.766326 
Q 348.422639 189.811604 349.903172 189.901121 
L 349.903172 190.40335 
Q 348.409261 190.284689 346.959945 190.229521 
Q 345.510628 190.174354 343.909691 190.174354 
Q 341.037814 190.174354 339.392283 190.389298 
Q 337.75121 190.603721 337.75121 190.981044 
Q 337.75121 191.356805 339.392283 191.571749 
Q 341.037814 191.786172 343.909691 191.786172 
Q 345.510628 191.786172 346.959945 191.731005 
Q 348.409261 191.675317 349.903172 191.556656 
L 349.903172 192.059406 
z
" clip-path="url(#p6bdcc07676)" style="fill: #0000ff"/>
   </g>
   <g id="patch_56">
    <path d="M 349.903172 189.181724 
Q 348.118149 189.451125 346.198257 189.586441 
Q 344.278365 189.720526 342.231538 189.720526 
Q 337.606344 189.720526 334.905008 188.918474 
Q 332.203673 188.116421 332.203673 186.744812 
Q 332.203673 185.357211 334.952609 184.561309 
Q 337.705512 183.765407 342.493341 183.765407 
Q 344.337866 183.765407 346.027688 183.873659 
Q 347.721477 183.980682 349.220896 184.192266 
L 349.220896 185.379354 
Q 347.673876 185.107492 346.142723 184.973407 
Q 344.611569 184.838091 343.072482 184.838091 
Q 340.224378 184.838091 338.681325 185.332608 
Q 337.138271 185.825895 337.138271 186.744812 
Q 337.138271 187.655117 338.62579 188.152095 
Q 340.11331 188.647842 342.850346 188.647842 
Q 343.596089 188.647842 344.234731 188.619549 
Q 344.873373 188.590026 345.381113 188.528518 
L 345.381113 187.414009 
L 342.465574 187.414009 
L 342.465574 186.421284 
L 349.903172 186.421284 
L 349.903172 189.181724 
z
" clip-path="url(#p6bdcc07676)" style="fill: #ffa600"/>
   </g>
   <g id="patch_57">
    <path d="M 344.464131 182.284187 
L 337.657188 182.284187 
L 336.582408 183.765407 
L 332.203673 183.765407 
L 338.456941 175.634378 
L 343.649904 175.634378 
L 349.903172 183.765407 
L 345.528056 183.765407 
L 344.464131 182.284187 
z
M 338.742825 180.775084 
L 343.367638 180.775084 
L 341.058851 177.540796 
L 338.742825 180.775084 
z
" clip-path="url(#p6bdcc07676)" style="fill: #008000"/>
   </g>
   <g id="patch_58">
    <path d="M 332.203673 154.104331 
L 349.903172 154.104331 
L 349.903172 158.30329 
L 343.535468 158.30329 
L 343.535468 175.634378 
L 338.583725 175.634378 
L 338.583725 158.30329 
L 332.203673 158.30329 
L 332.203673 154.104331 
z
" clip-path="url(#p6bdcc07676)" style="fill: #ff0000"/>
   </g>
   <g id="patch_59">
    <path d="M 368.534224 192.056577 
Q 366.7492 192.148288 364.829308 192.194354 
Q 362.909416 192.24 360.86259 192.24 
Q 356.237396 192.24 353.53606 191.966959 
Q 350.834725 191.693917 350.834725 191.226983 
Q 350.834725 190.754605 353.583661 190.483658 
Q 356.336563 190.21271 361.124393 190.21271 
Q 362.968917 190.21271 364.658739 190.249563 
Q 366.352528 190.285996 367.851948 190.358025 
L 367.851948 190.762143 
Q 366.304928 190.669594 364.773774 190.623947 
Q 363.242621 190.577882 361.703534 190.577882 
Q 358.85543 190.577882 357.312376 190.74623 
Q 355.769323 190.914159 355.769323 191.226983 
Q 355.769323 191.536877 357.256842 191.706062 
Q 358.744362 191.874828 361.481398 191.874828 
Q 362.227141 191.874828 362.865783 191.865196 
Q 363.504424 191.855146 364.012164 191.834207 
L 364.012164 191.454797 
L 361.096626 191.454797 
L 361.096626 191.116846 
L 368.534224 191.116846 
L 368.534224 192.056577 
z
" clip-path="url(#p6bdcc07676)" style="fill: #ffa600"/>
   </g>
   <g id="patch_60">
    <path d="M 368.534224 190.012412 
Q 367.053691 190.111695 365.452754 190.161914 
Q 363.851817 190.21271 362.108177 190.21271 
Q 356.908476 190.21271 353.8716 189.836356 
Q 350.834725 189.460002 350.834725 188.81639 
Q 350.834725 188.17047 353.8716 187.794693 
Q 356.908476 187.418338 362.108177 187.418338 
Q 363.851817 187.418338 365.452754 187.469135 
Q 367.053691 187.519354 368.534224 187.618637 
L 368.534224 188.175665 
Q 367.040313 188.044056 365.590996 187.98287 
Q 364.14168 187.921683 362.540743 187.921683 
Q 359.668866 187.921683 358.023334 188.160079 
Q 356.382262 188.397898 356.382262 188.81639 
Q 356.382262 189.233151 358.023334 189.471547 
Q 359.668866 189.709366 362.540743 189.709366 
Q 364.14168 189.709366 365.590996 189.648179 
Q 367.040313 189.586416 368.534224 189.454807 
L 368.534224 190.012412 
z
" clip-path="url(#p6bdcc07676)" style="fill: #0000ff"/>
   </g>
   <g id="patch_61">
    <path d="M 350.834725 181.66522 
L 368.534224 181.66522 
L 368.534224 182.787238 
L 362.16652 182.787238 
L 362.16652 187.418338 
L 357.214777 187.418338 
L 357.214777 182.787238 
L 350.834725 182.787238 
L 350.834725 181.66522 
z
" clip-path="url(#p6bdcc07676)" style="fill: #ff0000"/>
   </g>
   <g id="patch_62">
    <path d="M 363.095183 180.267834 
L 356.28824 180.267834 
L 355.21346 181.66522 
L 350.834725 181.66522 
L 357.087993 173.994394 
L 362.280956 173.994394 
L 368.534224 181.66522 
L 364.159107 181.66522 
L 363.095183 180.267834 
z
M 357.373877 178.844144 
L 361.99869 178.844144 
L 359.689902 175.792912 
L 357.373877 178.844144 
z
" clip-path="url(#p6bdcc07676)" style="fill: #008000"/>
   </g>
   <g id="patch_63">
    <path d="M 387.165275 192.085425 
Q 385.684743 192.162044 384.083806 192.200799 
Q 382.482868 192.24 380.739229 192.24 
Q 375.539527 192.24 372.502652 191.949559 
Q 369.465776 191.659118 369.465776 191.162429 
Q 369.465776 190.663957 372.502652 190.373962 
Q 375.539527 190.083521 380.739229 190.083521 
Q 382.482868 190.083521 384.083806 190.122721 
Q 385.684743 190.161477 387.165275 190.238096 
L 387.165275 190.667966 
Q 385.671365 190.566401 384.222048 190.519182 
Q 382.772732 190.471963 381.171794 190.471963 
Q 378.299918 190.471963 376.654386 190.655939 
Q 375.013314 190.839469 375.013314 191.162429 
Q 375.013314 191.484052 376.654386 191.668027 
Q 378.299918 191.851558 381.171794 191.851558 
Q 382.772732 191.851558 384.222048 191.804339 
Q 385.671365 191.756674 387.165275 191.655109 
L 387.165275 192.085425 
z
" clip-path="url(#p6bdcc07676)" style="fill: #0000ff"/>
   </g>
   <g id="patch_64">
    <path d="M 387.165275 189.693297 
Q 385.380252 189.888409 383.46036 189.98641 
Q 381.540468 190.083521 379.493641 190.083521 
Q 374.868447 190.083521 372.167112 189.502639 
Q 369.465776 188.921757 369.465776 187.928378 
Q 369.465776 186.923417 372.214712 186.34699 
Q 374.967615 185.770562 379.755445 185.770562 
Q 381.599969 185.770562 383.289791 185.848964 
Q 384.98358 185.926474 386.483 186.079713 
L 386.483 186.939453 
Q 384.93598 186.742559 383.404826 186.645449 
Q 381.873673 186.547447 380.334586 186.547447 
Q 377.486482 186.547447 375.943428 186.905598 
Q 374.400374 187.262859 374.400374 187.928378 
Q 374.400374 188.587661 375.887894 188.947594 
Q 377.375414 189.306636 380.112449 189.306636 
Q 380.858193 189.306636 381.496834 189.286145 
Q 382.135476 189.264763 382.643216 189.220216 
L 382.643216 188.41304 
L 379.727678 188.41304 
L 379.727678 187.694065 
L 387.165275 187.694065 
L 387.165275 189.693297 
z
" clip-path="url(#p6bdcc07676)" style="fill: #ffa600"/>
   </g>
   <g id="patch_65">
    <path d="M 369.465776 180.648924 
L 387.165275 180.648924 
L 387.165275 181.647787 
L 380.797572 181.647787 
L 380.797572 185.770562 
L 375.845828 185.770562 
L 375.845828 181.647787 
L 369.465776 181.647787 
L 369.465776 180.648924 
z
" clip-path="url(#p6bdcc07676)" style="fill: #ff0000"/>
   </g>
   <g id="patch_66">
    <path d="M 381.726235 178.672431 
L 374.919292 178.672431 
L 373.844512 180.648924 
L 369.465776 180.648924 
L 375.719044 169.799139 
L 380.912007 169.799139 
L 387.165275 180.648924 
L 382.790159 180.648924 
L 381.726235 178.672431 
z
M 376.004929 176.658733 
L 380.629742 176.658733 
L 378.320954 172.343002 
L 376.004929 176.658733 
z
" clip-path="url(#p6bdcc07676)" style="fill: #008000"/>
   </g>
   <g id="patch_67">
    <path d="M 405.796327 192.089881 
Q 404.315795 192.164292 402.714857 192.201929 
Q 401.11392 192.24 399.370281 192.24 
Q 394.170579 192.24 391.133704 191.957932 
Q 388.096828 191.675864 388.096828 191.193492 
Q 388.096828 190.709391 391.133704 190.427755 
Q 394.170579 190.145687 399.370281 190.145687 
Q 401.11392 190.145687 402.714857 190.183758 
Q 404.315795 190.221395 405.796327 190.295806 
L 405.796327 190.713284 
Q 404.302416 190.614647 402.8531 190.568789 
Q 401.403783 190.522932 399.802846 190.522932 
Q 396.93097 190.522932 395.285438 190.701604 
Q 393.644366 190.879843 393.644366 191.193492 
Q 393.644366 191.505844 395.285438 191.684516 
Q 396.93097 191.862755 399.802846 191.862755 
Q 401.403783 191.862755 402.8531 191.816898 
Q 404.302416 191.770607 405.796327 191.67197 
L 405.796327 192.089881 
z
" clip-path="url(#p6bdcc07676)" style="fill: #0000ff"/>
   </g>
   <g id="patch_68">
    <path d="M 405.796327 189.855139 
Q 404.011304 190.000413 402.091412 190.073382 
Q 400.17152 190.145687 398.124693 190.145687 
Q 393.499499 190.145687 390.798164 189.713182 
Q 388.096828 189.280678 388.096828 188.541042 
Q 388.096828 187.792783 390.845764 187.363595 
Q 393.598667 186.934407 398.386497 186.934407 
Q 400.231021 186.934407 401.920843 186.992782 
Q 403.614632 187.050493 405.114052 187.16459 
L 405.114052 187.804723 
Q 403.567031 187.658123 402.035878 187.585817 
Q 400.504724 187.512849 398.965637 187.512849 
Q 396.117533 187.512849 394.57448 187.779516 
Q 393.031426 188.045519 393.031426 188.541042 
Q 393.031426 189.031921 394.518946 189.299915 
Q 396.006465 189.567245 398.743501 189.567245 
Q 399.489244 189.567245 400.127886 189.551988 
Q 400.766528 189.536068 401.274268 189.5029 
L 401.274268 188.901905 
L 398.35873 188.901905 
L 398.35873 188.366581 
L 405.796327 188.366581 
L 405.796327 189.855139 
z
" clip-path="url(#p6bdcc07676)" style="fill: #ffa600"/>
   </g>
   <g id="patch_69">
    <path d="M 388.096828 178.138293 
L 405.796327 178.138293 
L 405.796327 179.85378 
L 399.428624 179.85378 
L 399.428624 186.934407 
L 394.47688 186.934407 
L 394.47688 179.85378 
L 388.096828 179.85378 
L 388.096828 178.138293 
z
" clip-path="url(#p6bdcc07676)" style="fill: #ff0000"/>
   </g>
   <g id="patch_70">
    <path d="M 400.357287 176.472328 
L 393.550344 176.472328 
L 392.475563 178.138293 
L 388.096828 178.138293 
L 394.350096 168.993126 
L 399.543059 168.993126 
L 405.796327 178.138293 
L 401.421211 178.138293 
L 400.357287 176.472328 
z
M 394.635981 174.775004 
L 399.260793 174.775004 
L 396.952006 171.13732 
L 394.635981 174.775004 
z
" clip-path="url(#p6bdcc07676)" style="fill: #008000"/>
   </g>
   <g id="patch_71">
    <path d="M 424.427379 191.983699 
Q 422.946846 192.110742 421.345909 192.175001 
Q 419.744972 192.24 418.001333 192.24 
Q 412.801631 192.24 409.764755 191.75842 
Q 406.72788 191.27684 406.72788 190.453279 
Q 406.72788 189.626764 409.764755 189.145922 
Q 412.801631 188.664342 418.001333 188.664342 
Q 419.744972 188.664342 421.345909 188.729341 
Q 422.946846 188.793601 424.427379 188.920643 
L 424.427379 189.633411 
Q 422.933468 189.465006 421.484152 189.386712 
Q 420.034835 189.308418 418.433898 189.308418 
Q 415.562021 189.308418 413.91649 189.613468 
Q 412.275417 189.91778 412.275417 190.453279 
Q 412.275417 190.986562 413.91649 191.291612 
Q 415.562021 191.595924 418.433898 191.595924 
Q 420.034835 191.595924 421.484152 191.51763 
Q 422.933468 191.438598 424.427379 191.270192 
L 424.427379 191.983699 
z
" clip-path="url(#p6bdcc07676)" style="fill: #0000ff"/>
   </g>
   <g id="patch_72">
    <path d="M 424.427379 188.14174 
Q 422.642356 188.403041 420.722464 188.534288 
Q 418.802572 188.664342 416.755745 188.664342 
Q 412.130551 188.664342 409.429215 187.886405 
Q 406.72788 187.108468 406.72788 185.7781 
Q 406.72788 184.432222 409.476816 183.66025 
Q 412.229719 182.888279 417.017548 182.888279 
Q 418.862073 182.888279 420.551895 182.993277 
Q 422.245684 183.097081 423.745103 183.302304 
L 423.745103 184.453698 
Q 422.198083 184.190011 420.66693 184.059957 
Q 419.135776 183.92871 417.596689 183.92871 
Q 414.748585 183.92871 413.205532 184.408359 
Q 411.662478 184.886814 411.662478 185.7781 
Q 411.662478 186.661035 413.149997 187.14307 
Q 414.637517 187.623911 417.374553 187.623911 
Q 418.120296 187.623911 418.758938 187.596468 
Q 419.39758 187.567833 419.90532 187.508175 
L 419.90532 186.427177 
L 416.989781 186.427177 
L 416.989781 185.464301 
L 424.427379 185.464301 
L 424.427379 188.14174 
z
" clip-path="url(#p6bdcc07676)" style="fill: #ffa600"/>
   </g>
   <g id="patch_73">
    <path d="M 418.988338 180.884053 
L 412.181395 180.884053 
L 411.106615 182.888279 
L 406.72788 182.888279 
L 412.981148 171.886255 
L 418.174111 171.886255 
L 424.427379 182.888279 
L 420.052263 182.888279 
L 418.988338 180.884053 
z
M 413.267032 178.8421 
L 417.891845 178.8421 
L 415.583058 174.465812 
L 413.267032 178.8421 
z
" clip-path="url(#p6bdcc07676)" style="fill: #008000"/>
   </g>
   <g id="patch_74">
    <path d="M 406.72788 100.648147 
L 424.427379 100.648147 
L 424.427379 114.541562 
L 418.059675 114.541562 
L 418.059675 171.886255 
L 413.107932 171.886255 
L 413.107932 114.541562 
L 406.72788 114.541562 
L 406.72788 100.648147 
z
" clip-path="url(#p6bdcc07676)" style="fill: #ff0000"/>
   </g>
   <g id="patch_75">
    <path d="M 443.058431 192.061412 
Q 441.577898 192.149934 439.976961 192.19471 
Q 438.376024 192.24 436.632384 192.24 
Q 431.432683 192.24 428.395807 191.904441 
Q 425.358932 191.568881 425.358932 190.995033 
Q 425.358932 190.419127 428.395807 190.084082 
Q 431.432683 189.748523 436.632384 189.748523 
Q 438.376024 189.748523 439.976961 189.793813 
Q 441.577898 189.838589 443.058431 189.92711 
L 443.058431 190.423759 
Q 441.56452 190.306416 440.115203 190.251862 
Q 438.665887 190.197308 437.06495 190.197308 
Q 434.193073 190.197308 432.547541 190.409863 
Q 430.906469 190.621904 430.906469 190.995033 
Q 430.906469 191.366619 432.547541 191.579174 
Q 434.193073 191.791215 437.06495 191.791215 
Q 438.665887 191.791215 440.115203 191.736661 
Q 441.56452 191.681592 443.058431 191.564249 
L 443.058431 192.061412 
z
" clip-path="url(#p6bdcc07676)" style="fill: #0000ff"/>
   </g>
   <g id="patch_76">
    <path d="M 437.61939 188.557115 
L 430.812447 188.557115 
L 429.737667 189.748523 
L 425.358932 189.748523 
L 431.6122 183.208396 
L 436.805163 183.208396 
L 443.058431 189.748523 
L 438.683314 189.748523 
L 437.61939 188.557115 
z
M 431.898084 187.343281 
L 436.522897 187.343281 
L 434.214109 184.741807 
L 431.898084 187.343281 
z
" clip-path="url(#p6bdcc07676)" style="fill: #008000"/>
   </g>
   <g id="patch_77">
    <path d="M 443.058431 182.250353 
Q 441.273407 182.729374 439.353515 182.969978 
Q 437.433623 183.208396 435.386797 183.208396 
Q 430.761603 183.208396 428.060267 181.782268 
Q 425.358932 180.356141 425.358932 177.917288 
Q 425.358932 175.45 428.107868 174.034809 
Q 430.86077 172.619618 435.6486 172.619618 
Q 437.493124 172.619618 439.182946 172.812101 
Q 440.876735 173.002397 442.376155 173.378615 
L 442.376155 175.489371 
Q 440.829135 175.005975 439.297981 174.767558 
Q 437.766828 174.526954 436.227741 174.526954 
Q 433.379637 174.526954 431.836583 175.406253 
Q 430.29353 176.283366 430.29353 177.917288 
Q 430.29353 179.535899 431.781049 180.419573 
Q 433.268569 181.301059 436.005605 181.301059 
Q 436.751348 181.301059 437.38999 181.250751 
Q 438.028631 181.198256 438.536371 181.08889 
L 438.536371 179.107185 
L 435.620833 179.107185 
L 435.620833 177.342025 
L 443.058431 177.342025 
L 443.058431 182.250353 
z
" clip-path="url(#p6bdcc07676)" style="fill: #ffa600"/>
   </g>
   <g id="patch_78">
    <path d="M 425.358932 88.532266 
L 443.058431 88.532266 
L 443.058431 104.931642 
L 436.690727 104.931642 
L 436.690727 172.619618 
L 431.738984 172.619618 
L 431.738984 104.931642 
L 425.358932 104.931642 
L 425.358932 88.532266 
z
" clip-path="url(#p6bdcc07676)" style="fill: #ff0000"/>
   </g>
   <g id="patch_79">
    <path d="M 461.689482 192.098675 
Q 460.20895 192.168727 458.608013 192.20416 
Q 457.007075 192.24 455.263436 192.24 
Q 450.063734 192.24 447.026859 191.974456 
Q 443.989983 191.708912 443.989983 191.254799 
Q 443.989983 190.799056 447.026859 190.53392 
Q 450.063734 190.268375 455.263436 190.268375 
Q 457.007075 190.268375 458.608013 190.304216 
Q 460.20895 190.339649 461.689482 190.4097 
L 461.689482 190.802722 
Q 460.195572 190.709863 458.746255 190.666692 
Q 457.296939 190.62352 455.696001 190.62352 
Q 452.824125 190.62352 451.178593 190.791725 
Q 449.537521 190.959523 449.537521 191.254799 
Q 449.537521 191.548852 451.178593 191.717057 
Q 452.824125 191.884855 455.696001 191.884855 
Q 457.296939 191.884855 458.746255 191.841684 
Q 460.195572 191.798105 461.689482 191.705246 
L 461.689482 192.098675 
z
" clip-path="url(#p6bdcc07676)" style="fill: #0000ff"/>
   </g>
   <g id="patch_80">
    <path d="M 456.250442 189.550038 
L 449.443499 189.550038 
L 448.368719 190.268375 
L 443.989983 190.268375 
L 450.243251 186.325126 
L 455.436214 186.325126 
L 461.689482 190.268375 
L 457.314366 190.268375 
L 456.250442 189.550038 
z
M 450.529136 188.818179 
L 455.153949 188.818179 
L 452.845161 187.249668 
L 450.529136 188.818179 
z
" clip-path="url(#p6bdcc07676)" style="fill: #008000"/>
   </g>
   <g id="patch_81">
    <path d="M 461.689482 185.016955 
Q 459.904459 185.67104 457.984567 185.999577 
Q 456.064675 186.325126 454.017848 186.325126 
Q 449.392654 186.325126 446.691319 184.377802 
Q 443.989983 182.430479 443.989983 179.100316 
Q 443.989983 175.731326 446.738919 173.798936 
Q 449.491822 171.866546 454.279652 171.866546 
Q 456.124176 171.866546 457.813998 172.129375 
Q 459.507787 172.389217 461.007207 172.902928 
L 461.007207 175.785087 
Q 459.460187 175.125028 457.929033 174.799478 
Q 456.39788 174.470942 454.858793 174.470942 
Q 452.010689 174.470942 450.467635 175.671592 
Q 448.924581 176.869256 448.924581 179.100316 
Q 448.924581 181.310469 450.412101 182.517093 
Q 451.899621 183.72073 454.636656 183.72073 
Q 455.3824 183.72073 456.021041 183.652036 
Q 456.659683 183.580355 457.167423 183.431021 
L 457.167423 180.725077 
L 454.251885 180.725077 
L 454.251885 178.314816 
L 461.689482 178.314816 
L 461.689482 185.016955 
z
" clip-path="url(#p6bdcc07676)" style="fill: #ffa600"/>
   </g>
   <g id="patch_82">
    <path d="M 443.989983 82.814833 
L 461.689482 82.814833 
L 461.689482 100.182398 
L 455.321779 100.182398 
L 455.321779 171.866546 
L 450.370035 171.866546 
L 450.370035 100.182398 
L 443.989983 100.182398 
L 443.989983 82.814833 
z
" clip-path="url(#p6bdcc07676)" style="fill: #ff0000"/>
   </g>
   <g id="patch_83">
    <path d="M 462.621035 191.119506 
L 480.320534 191.119506 
L 480.320534 191.338033 
L 473.952831 191.338033 
L 473.952831 192.24 
L 469.001087 192.24 
L 469.001087 191.338033 
L 462.621035 191.338033 
L 462.621035 191.119506 
z
" clip-path="url(#p6bdcc07676)" style="fill: #ff0000"/>
   </g>
   <g id="patch_84">
    <path d="M 480.320534 191.026235 
Q 478.840002 191.072467 477.239064 191.095852 
Q 475.638127 191.119506 473.894488 191.119506 
Q 468.694786 191.119506 465.657911 190.944254 
Q 462.621035 190.769002 462.621035 190.469299 
Q 462.621035 190.168521 465.657911 189.993538 
Q 468.694786 189.818286 473.894488 189.818286 
Q 475.638127 189.818286 477.239064 189.84194 
Q 478.840002 189.865325 480.320534 189.911557 
L 480.320534 190.170941 
Q 478.826623 190.109656 477.377307 190.081164 
Q 475.92799 190.052672 474.327053 190.052672 
Q 471.455177 190.052672 469.809645 190.163683 
Q 468.168573 190.274425 468.168573 190.469299 
Q 468.168573 190.663367 469.809645 190.774377 
Q 471.455177 190.885119 474.327053 190.885119 
Q 475.92799 190.885119 477.377307 190.856628 
Q 478.826623 190.827867 480.320534 190.766582 
L 480.320534 191.026235 
z
" clip-path="url(#p6bdcc07676)" style="fill: #0000ff"/>
   </g>
   <g id="patch_85">
    <path d="M 474.881494 189.577952 
L 468.074551 189.577952 
L 466.99977 189.818286 
L 462.621035 189.818286 
L 468.874303 188.498994 
L 474.067266 188.498994 
L 480.320534 189.818286 
L 475.945418 189.818286 
L 474.881494 189.577952 
z
M 469.160188 189.333094 
L 473.785 189.333094 
L 471.476213 188.808318 
L 469.160188 189.333094 
z
" clip-path="url(#p6bdcc07676)" style="fill: #008000"/>
   </g>
   <g id="patch_86">
    <path d="M 480.320534 188.292966 
Q 478.535511 188.39598 476.615619 188.447722 
Q 474.695727 188.498994 472.6489 188.498994 
Q 468.023706 188.498994 465.322371 188.192303 
Q 462.621035 187.885612 462.621035 187.361133 
Q 462.621035 186.830539 465.369971 186.5262 
Q 468.122874 186.221861 472.910704 186.221861 
Q 474.755228 186.221861 476.44505 186.263254 
Q 478.138839 186.304178 479.638259 186.385084 
L 479.638259 186.839006 
Q 478.091238 186.735051 476.560085 186.683779 
Q 475.028931 186.632036 473.489844 186.632036 
Q 470.64174 186.632036 469.098687 186.821131 
Q 467.555633 187.009756 467.555633 187.361133 
Q 467.555633 187.709218 469.043153 187.899254 
Q 470.530672 188.088819 473.267708 188.088819 
Q 474.013451 188.088819 474.652093 188.078 
Q 475.290735 188.066711 475.798475 188.043191 
L 475.798475 187.617023 
L 472.882937 187.617023 
L 472.882937 187.237422 
L 480.320534 187.237422 
L 480.320534 188.292966 
z
" clip-path="url(#p6bdcc07676)" style="fill: #ffa600"/>
   </g>
   <g id="patch_87">
    <path d="M 498.951586 192.08591 
Q 497.471053 192.162289 495.870116 192.200922 
Q 494.269179 192.24 492.52554 192.24 
Q 487.325838 192.24 484.288962 191.950471 
Q 481.252087 191.660942 481.252087 191.165812 
Q 481.252087 190.668905 484.288962 190.37982 
Q 487.325838 190.090291 492.52554 190.090291 
Q 494.269179 190.090291 495.870116 190.129369 
Q 497.471053 190.168002 498.951586 190.244381 
L 498.951586 190.672902 
Q 497.457675 190.571656 496.008359 190.524585 
Q 494.559042 190.477514 492.958105 190.477514 
Q 490.086228 190.477514 488.440697 190.660912 
Q 486.799624 190.843866 486.799624 191.165812 
Q 486.799624 191.486425 488.440697 191.669823 
Q 490.086228 191.852777 492.958105 191.852777 
Q 494.559042 191.852777 496.008359 191.805706 
Q 497.457675 191.758192 498.951586 191.656945 
L 498.951586 192.08591 
z
" clip-path="url(#p6bdcc07676)" style="fill: #0000ff"/>
   </g>
   <g id="patch_88">
    <path d="M 493.512545 189.02735 
L 486.705603 189.02735 
L 485.630822 190.090291 
L 481.252087 190.090291 
L 487.505355 184.255368 
L 492.698318 184.255368 
L 498.951586 190.090291 
L 494.57647 190.090291 
L 493.512545 189.02735 
z
M 487.791239 187.9444 
L 492.416052 187.9444 
L 490.107265 185.623436 
L 487.791239 187.9444 
z
" clip-path="url(#p6bdcc07676)" style="fill: #008000"/>
   </g>
   <g id="patch_89">
    <path d="M 498.951586 183.542203 
Q 497.166563 183.898786 495.246671 184.077891 
Q 493.326779 184.255368 491.279952 184.255368 
Q 486.654758 184.255368 483.953422 183.193762 
Q 481.252087 182.132155 481.252087 180.316678 
Q 481.252087 178.480034 484.001023 177.426569 
Q 486.753926 176.373103 491.541755 176.373103 
Q 493.38628 176.373103 495.076102 176.516388 
Q 496.769891 176.658044 498.26931 176.938099 
L 498.26931 178.509342 
Q 496.72229 178.149503 495.191137 177.972026 
Q 493.659983 177.79292 492.120896 177.79292 
Q 489.272792 177.79292 487.729739 178.447469 
Q 486.186685 179.10039 486.186685 180.316678 
Q 486.186685 181.521569 487.674205 182.179374 
Q 489.161724 182.835551 491.89876 182.835551 
Q 492.644503 182.835551 493.283145 182.798102 
Q 493.921787 182.759024 494.429527 182.677613 
L 494.429527 181.202436 
L 491.513988 181.202436 
L 491.513988 179.888453 
L 498.951586 179.888453 
L 498.951586 183.542203 
z
" clip-path="url(#p6bdcc07676)" style="fill: #ffa600"/>
   </g>
   <g id="patch_90">
    <path d="M 481.252087 158.151764 
L 498.951586 158.151764 
L 498.951586 161.705433 
L 492.583882 161.705433 
L 492.583882 176.373103 
L 487.632139 176.373103 
L 487.632139 161.705433 
L 481.252087 161.705433 
L 481.252087 158.151764 
z
" clip-path="url(#p6bdcc07676)" style="fill: #ff0000"/>
   </g>
   <g id="patch_91">
    <path d="M 517.582638 192.043437 
Q 516.102105 192.140869 514.501168 192.190151 
Q 512.900231 192.24 511.156591 192.24 
Q 505.95689 192.24 502.920014 191.870666 
Q 499.883139 191.501333 499.883139 190.869727 
Q 499.883139 190.235855 502.920014 189.867088 
Q 505.95689 189.497754 511.156591 189.497754 
Q 512.900231 189.497754 514.501168 189.547603 
Q 516.102105 189.596885 517.582638 189.694317 
L 517.582638 190.240953 
Q 516.088727 190.1118 514.63941 190.051755 
Q 513.190094 189.99171 511.589157 189.99171 
Q 508.71728 189.99171 507.071748 190.225659 
Q 505.430676 190.459041 505.430676 190.869727 
Q 505.430676 191.278713 507.071748 191.512662 
Q 508.71728 191.746045 511.589157 191.746045 
Q 513.190094 191.746045 514.63941 191.685999 
Q 516.088727 191.625388 517.582638 191.496234 
L 517.582638 192.043437 
z
" clip-path="url(#p6bdcc07676)" style="fill: #0000ff"/>
   </g>
   <g id="patch_92">
    <path d="M 499.883139 184.885795 
L 517.582638 184.885795 
L 517.582638 185.785256 
L 511.214934 185.785256 
L 511.214934 189.497754 
L 506.263191 189.497754 
L 506.263191 185.785256 
L 499.883139 185.785256 
L 499.883139 184.885795 
z
" clip-path="url(#p6bdcc07676)" style="fill: #ff0000"/>
   </g>
   <g id="patch_93">
    <path d="M 517.582638 183.90463 
Q 515.797614 184.395213 513.877722 184.641624 
Q 511.957831 184.885795 509.911004 184.885795 
Q 505.28581 184.885795 502.584474 183.425248 
Q 499.883139 181.964701 499.883139 179.466987 
Q 499.883139 176.940152 502.632075 175.490805 
Q 505.384978 174.041459 510.172807 174.041459 
Q 512.017331 174.041459 513.707153 174.238588 
Q 515.400942 174.433477 516.900362 174.818774 
L 516.900362 176.980473 
Q 515.353342 176.485411 513.822188 176.24124 
Q 512.291035 175.994828 510.751948 175.994828 
Q 507.903844 175.994828 506.36079 176.895349 
Q 504.817737 177.793631 504.817737 179.466987 
Q 504.817737 181.124663 506.305256 182.029664 
Q 507.792776 182.932426 510.529812 182.932426 
Q 511.275555 182.932426 511.914197 182.880903 
Q 512.552838 182.827141 513.060578 182.715136 
L 513.060578 180.685603 
L 510.14504 180.685603 
L 510.14504 178.87784 
L 517.582638 178.87784 
L 517.582638 183.90463 
z
" clip-path="url(#p6bdcc07676)" style="fill: #ffa600"/>
   </g>
   <g id="patch_94">
    <path d="M 512.143597 169.795268 
L 505.336654 169.795268 
L 504.261874 174.041459 
L 499.883139 174.041459 
L 506.136407 150.732369 
L 511.32937 150.732369 
L 517.582638 174.041459 
L 513.207521 174.041459 
L 512.143597 169.795268 
z
M 506.422291 165.469149 
L 511.047104 165.469149 
L 508.738316 156.197466 
L 506.422291 165.469149 
z
" clip-path="url(#p6bdcc07676)" style="fill: #008000"/>
   </g>
   <g id="patch_95">
    <path d="M 536.213689 192.145837 
Q 534.733157 192.192511 533.13222 192.21612 
Q 531.531282 192.24 529.787643 192.24 
Q 524.587941 192.24 521.551066 192.063071 
Q 518.51419 191.886143 518.51419 191.583573 
Q 518.51419 191.279918 521.551066 191.103261 
Q 524.587941 190.926332 529.787643 190.926332 
Q 531.531282 190.926332 533.13222 190.950212 
Q 534.733157 190.973821 536.213689 191.020495 
L 536.213689 191.28236 
Q 534.719779 191.22049 533.270462 191.191725 
Q 531.821146 191.162961 530.220208 191.162961 
Q 527.348332 191.162961 525.7028 191.275033 
Q 524.061728 191.386835 524.061728 191.583573 
Q 524.061728 191.779497 525.7028 191.89157 
Q 527.348332 192.003372 530.220208 192.003372 
Q 531.821146 192.003372 533.270462 191.974607 
Q 534.719779 191.945571 536.213689 191.8837 
L 536.213689 192.145837 
z
" clip-path="url(#p6bdcc07676)" style="fill: #0000ff"/>
   </g>
   <g id="patch_96">
    <path d="M 530.774649 189.883627 
L 523.967706 189.883627 
L 522.892926 190.926332 
L 518.51419 190.926332 
L 524.767458 185.202494 
L 529.960421 185.202494 
L 536.213689 190.926332 
L 531.838573 190.926332 
L 530.774649 189.883627 
z
M 525.053343 188.821294 
L 529.678156 188.821294 
L 527.369368 186.544517 
L 525.053343 188.821294 
z
" clip-path="url(#p6bdcc07676)" style="fill: #008000"/>
   </g>
   <g id="patch_97">
    <path d="M 518.51419 174.974651 
L 536.213689 174.974651 
L 536.213689 176.969365 
L 529.845986 176.969365 
L 529.845986 185.202494 
L 524.894242 185.202494 
L 524.894242 176.969365 
L 518.51419 176.969365 
L 518.51419 174.974651 
z
" clip-path="url(#p6bdcc07676)" style="fill: #ff0000"/>
   </g>
   <g id="patch_98">
    <path d="M 536.213689 173.709673 
Q 534.428666 174.342162 532.508774 174.659851 
Q 530.588882 174.974651 528.542055 174.974651 
Q 523.916861 174.974651 521.215526 173.091625 
Q 518.51419 171.208599 518.51419 167.988393 
Q 518.51419 164.730643 521.263126 162.862057 
Q 524.016029 160.993472 528.803859 160.993472 
Q 530.648383 160.993472 532.338205 161.247622 
Q 534.031994 161.498885 535.531414 161.995634 
L 535.531414 164.782628 
Q 533.984394 164.144363 532.45324 163.829563 
Q 530.922087 163.511875 529.383 163.511875 
Q 526.534896 163.511875 524.991842 164.672881 
Q 523.448788 165.831 523.448788 167.988393 
Q 523.448788 170.12557 524.936308 171.292353 
Q 526.423828 172.456248 529.160864 172.456248 
Q 529.906607 172.456248 530.545248 172.389822 
Q 531.18389 172.320508 531.69163 172.176105 
L 531.69163 169.559507 
L 528.776092 169.559507 
L 528.776092 167.228829 
L 536.213689 167.228829 
L 536.213689 173.709673 
z
" clip-path="url(#p6bdcc07676)" style="fill: #ffa600"/>
   </g>
   <g id="patch_99">
    <path d="M 554.844741 192.103684 
Q 553.059718 192.171842 551.139826 192.206077 
Q 549.219934 192.24 547.173107 192.24 
Q 542.547913 192.24 539.846578 192.037083 
Q 537.145242 191.834165 537.145242 191.487151 
Q 537.145242 191.136091 539.894178 190.93473 
Q 542.647081 190.733369 547.434911 190.733369 
Q 549.279435 190.733369 550.969257 190.760756 
Q 552.663046 190.787833 554.162466 190.841363 
L 554.162466 191.141693 
Q 552.615445 191.072913 551.084292 191.03899 
Q 549.553138 191.004755 548.014052 191.004755 
Q 545.165947 191.004755 543.622894 191.129867 
Q 542.07984 191.254667 542.07984 191.487151 
Q 542.07984 191.717456 543.56736 191.84319 
Q 545.054879 191.968613 547.791915 191.968613 
Q 548.537658 191.968613 549.1763 191.961455 
Q 549.814942 191.953986 550.322682 191.938425 
L 550.322682 191.656457 
L 547.407144 191.656457 
L 547.407144 191.405299 
L 554.844741 191.405299 
L 554.844741 192.103684 
z
" clip-path="url(#p6bdcc07676)" style="fill: #ffa600"/>
   </g>
   <g id="patch_100">
    <path d="M 554.844741 190.3991 
Q 553.364209 190.564789 551.763271 190.648597 
Q 550.162334 190.733369 548.418695 190.733369 
Q 543.218993 190.733369 540.182118 190.105291 
Q 537.145242 189.477213 537.145242 188.403122 
Q 537.145242 187.325179 540.182118 186.698064 
Q 543.218993 186.069986 548.418695 186.069986 
Q 550.162334 186.069986 551.763271 186.154757 
Q 553.364209 186.238565 554.844741 186.404255 
L 554.844741 187.333849 
Q 553.35083 187.114214 551.901514 187.012103 
Q 550.452197 186.909992 548.85126 186.909992 
Q 545.979384 186.909992 544.333852 187.307839 
Q 542.69278 187.704723 542.69278 188.403122 
Q 542.69278 189.098632 544.333852 189.496479 
Q 545.979384 189.893363 548.85126 189.893363 
Q 550.452197 189.893363 551.901514 189.791252 
Q 553.35083 189.688178 554.844741 189.468543 
L 554.844741 190.3991 
z
" clip-path="url(#p6bdcc07676)" style="fill: #0000ff"/>
   </g>
   <g id="patch_101">
    <path d="M 549.405701 184.697679 
L 542.598758 184.697679 
L 541.523977 186.069986 
L 537.145242 186.069986 
L 543.39851 178.53683 
L 548.591473 178.53683 
L 554.844741 186.069986 
L 550.469625 186.069986 
L 549.405701 184.697679 
z
M 543.684395 183.299541 
L 548.309208 183.299541 
L 546.00042 180.303069 
L 543.684395 183.299541 
z
" clip-path="url(#p6bdcc07676)" style="fill: #008000"/>
   </g>
   <g id="patch_102">
    <path d="M 537.145242 168.349132 
L 554.844741 168.349132 
L 554.844741 170.336017 
L 548.477038 170.336017 
L 548.477038 178.53683 
L 543.525294 178.53683 
L 543.525294 170.336017 
L 537.145242 170.336017 
L 537.145242 168.349132 
z
" clip-path="url(#p6bdcc07676)" style="fill: #ff0000"/>
   </g>
   <g id="patch_103">
    <path d="M 573.475793 191.96705 
Q 571.99526 192.102345 570.394323 192.170779 
Q 568.793386 192.24 567.049747 192.24 
Q 561.850045 192.24 558.813169 191.727138 
Q 555.776294 191.214275 555.776294 190.337218 
Q 555.776294 189.457014 558.813169 188.944938 
Q 561.850045 188.432076 567.049747 188.432076 
Q 568.793386 188.432076 570.394323 188.501297 
Q 571.99526 188.569731 573.475793 188.705026 
L 573.475793 189.464093 
Q 571.981882 189.284749 570.532566 189.201369 
Q 569.083249 189.11799 567.482312 189.11799 
Q 564.610435 189.11799 562.964904 189.442855 
Q 561.323831 189.766934 561.323831 190.337218 
Q 561.323831 190.905142 562.964904 191.230007 
Q 564.610435 191.554086 567.482312 191.554086 
Q 569.083249 191.554086 570.532566 191.470707 
Q 571.981882 191.38654 573.475793 191.207196 
L 573.475793 191.96705 
z
" clip-path="url(#p6bdcc07676)" style="fill: #0000ff"/>
   </g>
   <g id="patch_104">
    <path d="M 555.776294 183.883722 
L 573.475793 183.883722 
L 573.475793 184.770778 
L 567.108089 184.770778 
L 567.108089 188.432076 
L 562.156346 188.432076 
L 562.156346 184.770778 
L 555.776294 184.770778 
L 555.776294 183.883722 
z
" clip-path="url(#p6bdcc07676)" style="fill: #ff0000"/>
   </g>
   <g id="patch_105">
    <path d="M 573.475793 183.271224 
Q 571.69077 183.577473 569.770878 183.731297 
Q 567.850986 183.883722 565.804159 183.883722 
Q 561.178965 183.883722 558.477629 182.971967 
Q 555.776294 182.060212 555.776294 180.500999 
Q 555.776294 178.923606 558.52523 178.018843 
Q 561.278133 177.11408 566.065962 177.11408 
Q 567.910487 177.11408 569.600309 177.237139 
Q 571.294098 177.358799 572.793517 177.599324 
L 572.793517 178.948777 
Q 571.246497 178.639731 569.715344 178.487306 
Q 568.18419 178.333482 566.645103 178.333482 
Q 563.796999 178.333482 562.253946 178.895638 
Q 560.710892 179.456396 560.710892 180.500999 
Q 560.710892 181.535813 562.198412 182.100765 
Q 563.685931 182.66432 566.422967 182.66432 
Q 567.16871 182.66432 567.807352 182.632157 
Q 568.445994 182.598595 568.953734 182.528675 
L 568.953734 181.261727 
L 566.038195 181.261727 
L 566.038195 180.13322 
L 573.475793 180.13322 
L 573.475793 183.271224 
z
" clip-path="url(#p6bdcc07676)" style="fill: #ffa600"/>
   </g>
   <g id="patch_106">
    <path d="M 568.036752 173.452963 
L 561.22981 173.452963 
L 560.155029 177.11408 
L 555.776294 177.11408 
L 562.029562 157.016703 
L 567.222525 157.016703 
L 573.475793 177.11408 
L 569.100677 177.11408 
L 568.036752 173.452963 
z
M 562.315446 169.722931 
L 566.940259 169.722931 
L 564.631472 161.728775 
L 562.315446 169.722931 
z
" clip-path="url(#p6bdcc07676)" style="fill: #008000"/>
   </g>
   <g id="patch_107">
    <path d="M 592.106845 192.054434 
Q 590.626312 192.146415 589.025375 192.19294 
Q 587.424438 192.24 585.680798 192.24 
Q 580.481097 192.24 577.444221 191.891328 
Q 574.407346 191.542656 574.407346 190.946384 
Q 574.407346 190.347973 577.444221 189.999836 
Q 580.481097 189.651164 585.680798 189.651164 
Q 587.424438 189.651164 589.025375 189.698224 
Q 590.626312 189.744749 592.106845 189.83673 
L 592.106845 190.352786 
Q 590.612934 190.230858 589.163617 190.174172 
Q 587.714301 190.117486 586.113364 190.117486 
Q 583.241487 190.117486 581.595955 190.338347 
Q 579.954883 190.558674 579.954883 190.946384 
Q 579.954883 191.33249 581.595955 191.553351 
Q 583.241487 191.773678 586.113364 191.773678 
Q 587.714301 191.773678 589.163617 191.716992 
Q 590.612934 191.659771 592.106845 191.537843 
L 592.106845 192.054434 
z
" clip-path="url(#p6bdcc07676)" style="fill: #0000ff"/>
   </g>
   <g id="patch_108">
    <path d="M 574.407346 184.248376 
L 592.106845 184.248376 
L 592.106845 185.30207 
L 585.739141 185.30207 
L 585.739141 189.651164 
L 580.787398 189.651164 
L 580.787398 185.30207 
L 574.407346 185.30207 
L 574.407346 184.248376 
z
" clip-path="url(#p6bdcc07676)" style="fill: #ff0000"/>
   </g>
   <g id="patch_109">
    <path d="M 592.106845 183.474396 
Q 590.321821 183.861386 588.401929 184.055764 
Q 586.482038 184.248376 584.435211 184.248376 
Q 579.810017 184.248376 577.108681 183.096242 
Q 574.407346 181.944108 574.407346 179.973819 
Q 574.407346 177.980557 577.156282 176.837259 
Q 579.909185 175.693961 584.697014 175.693961 
Q 586.541538 175.693961 588.23136 175.849463 
Q 589.925149 176.003199 591.424569 176.307136 
L 591.424569 178.012364 
Q 589.877549 177.621841 588.346395 177.429229 
Q 586.815242 177.234851 585.276155 177.234851 
Q 582.428051 177.234851 580.884997 177.945215 
Q 579.341944 178.653813 579.341944 179.973819 
Q 579.341944 181.281455 580.829463 181.995354 
Q 582.316983 182.707485 585.054019 182.707485 
Q 585.799762 182.707485 586.438404 182.666843 
Q 587.077045 182.624433 587.584785 182.536079 
L 587.584785 180.935108 
L 584.669247 180.935108 
L 584.669247 179.509078 
L 592.106845 179.509078 
L 592.106845 183.474396 
z
" clip-path="url(#p6bdcc07676)" style="fill: #ffa600"/>
   </g>
   <g id="patch_110">
    <path d="M 586.667804 171.880108 
L 579.860861 171.880108 
L 578.786081 175.693961 
L 574.407346 175.693961 
L 580.660614 154.758156 
L 585.853577 154.758156 
L 592.106845 175.693961 
L 587.731728 175.693961 
L 586.667804 171.880108 
z
M 580.946498 167.994466 
L 585.571311 167.994466 
L 583.262523 159.666808 
L 580.946498 167.994466 
z
" clip-path="url(#p6bdcc07676)" style="fill: #008000"/>
   </g>
   <g id="patch_111">
    <path d="M 610.737896 191.982948 
Q 609.257364 192.110363 607.656427 192.174811 
Q 606.055489 192.24 604.31185 192.24 
Q 599.112148 192.24 596.075273 191.75701 
Q 593.038397 191.274019 593.038397 190.448046 
Q 593.038397 189.61911 596.075273 189.136861 
Q 599.112148 188.65387 604.31185 188.65387 
Q 606.055489 188.65387 607.656427 188.719059 
Q 609.257364 188.783507 610.737896 188.910922 
L 610.737896 189.625777 
Q 609.243986 189.456879 607.794669 189.378356 
Q 606.345353 189.299833 604.744415 189.299833 
Q 601.872539 189.299833 600.227007 189.605776 
Q 598.585935 189.910979 598.585935 190.448046 
Q 598.585935 190.982892 600.227007 191.288835 
Q 601.872539 191.594037 604.744415 191.594037 
Q 606.345353 191.594037 607.794669 191.515514 
Q 609.243986 191.436251 610.737896 191.267352 
L 610.737896 191.982948 
z
" clip-path="url(#p6bdcc07676)" style="fill: #0000ff"/>
   </g>
   <g id="patch_112">
    <path d="M 610.737896 188.031983 
Q 608.952873 188.342927 607.032981 188.499109 
Q 605.113089 188.65387 603.066262 188.65387 
Q 598.441068 188.65387 595.739733 187.728139 
Q 593.038397 186.802407 593.038397 185.219293 
Q 593.038397 183.61772 595.787333 182.699088 
Q 598.540236 181.780455 603.328066 181.780455 
Q 605.17259 181.780455 606.862412 181.905401 
Q 608.556201 182.028926 610.055621 182.273138 
L 610.055621 183.643277 
Q 608.508601 183.329494 606.977447 183.174732 
Q 605.446294 183.01855 603.907207 183.01855 
Q 601.059103 183.01855 599.516049 183.589324 
Q 597.972995 184.158677 597.972995 185.219293 
Q 597.972995 186.26997 599.460515 186.843582 
Q 600.948035 187.415775 603.685071 187.415775 
Q 604.430814 187.415775 605.069455 187.383119 
Q 605.708097 187.349043 606.215837 187.278052 
L 606.215837 185.991682 
L 603.300299 185.991682 
L 603.300299 184.845876 
L 610.737896 184.845876 
L 610.737896 188.031983 
z
" clip-path="url(#p6bdcc07676)" style="fill: #ffa600"/>
   </g>
   <g id="patch_113">
    <path d="M 605.298856 180.147252 
L 598.491913 180.147252 
L 597.417133 181.780455 
L 593.038397 181.780455 
L 599.291665 172.815131 
L 604.484628 172.815131 
L 610.737896 181.780455 
L 606.36278 181.780455 
L 605.298856 180.147252 
z
M 599.57755 178.483307 
L 604.202363 178.483307 
L 601.893575 174.91716 
L 599.57755 178.483307 
z
" clip-path="url(#p6bdcc07676)" style="fill: #008000"/>
   </g>
   <g id="patch_114">
    <path d="M 593.038397 92.724904 
L 610.737896 92.724904 
L 610.737896 108.34473 
L 604.370193 108.34473 
L 604.370193 172.815131 
L 599.418449 172.815131 
L 599.418449 108.34473 
L 593.038397 108.34473 
L 593.038397 92.724904 
z
" clip-path="url(#p6bdcc07676)" style="fill: #ff0000"/>
   </g>
   <g id="patch_115">
    <path d="M 629.368948 192.038191 
Q 627.888416 192.138223 626.287478 192.188821 
Q 624.686541 192.24 622.942902 192.24 
Q 617.7432 192.24 614.706325 191.860808 
Q 611.669449 191.481616 611.669449 190.833151 
Q 611.669449 190.18236 614.706325 189.80375 
Q 617.7432 189.424558 622.942902 189.424558 
Q 624.686541 189.424558 626.287478 189.475737 
Q 627.888416 189.526335 629.368948 189.626367 
L 629.368948 190.187594 
Q 627.875037 190.054994 626.425721 189.993346 
Q 624.976404 189.931698 623.375467 189.931698 
Q 620.503591 189.931698 618.858059 190.171892 
Q 617.216987 190.411504 617.216987 190.833151 
Q 617.216987 191.253054 618.858059 191.493248 
Q 620.503591 191.73286 623.375467 191.73286 
Q 624.976404 191.73286 626.425721 191.671212 
Q 627.875037 191.608983 629.368948 191.476382 
L 629.368948 192.038191 
z
" clip-path="url(#p6bdcc07676)" style="fill: #0000ff"/>
   </g>
   <g id="patch_116">
    <path d="M 629.368948 189.03266 
Q 627.583925 189.228609 625.664033 189.327031 
Q 623.744141 189.424558 621.697314 189.424558 
Q 617.07212 189.424558 614.370785 188.841186 
Q 611.669449 188.257813 611.669449 187.260175 
Q 611.669449 186.250905 614.418385 185.672007 
Q 617.171288 185.093108 621.959118 185.093108 
Q 623.803642 185.093108 625.493464 185.171846 
Q 627.187253 185.249688 628.686673 185.403584 
L 628.686673 186.267011 
Q 627.139652 186.069273 625.608499 185.971746 
Q 624.077345 185.873324 622.538259 185.873324 
Q 619.690154 185.873324 618.147101 186.23301 
Q 616.604047 186.591802 616.604047 187.260175 
Q 616.604047 187.922285 618.091567 188.283761 
Q 619.579086 188.644342 622.316122 188.644342 
Q 623.061865 188.644342 623.700507 188.623763 
Q 624.339149 188.602289 624.846889 188.557552 
L 624.846889 187.746915 
L 621.931351 187.746915 
L 621.931351 187.024858 
L 629.368948 187.024858 
L 629.368948 189.03266 
z
" clip-path="url(#p6bdcc07676)" style="fill: #ffa600"/>
   </g>
   <g id="patch_117">
    <path d="M 623.929908 182.252509 
L 617.122965 182.252509 
L 616.048184 185.093108 
L 611.669449 185.093108 
L 617.922717 169.49989 
L 623.11568 169.49989 
L 629.368948 185.093108 
L 624.993832 185.093108 
L 623.929908 182.252509 
z
M 618.208602 179.35844 
L 622.833415 179.35844 
L 620.524627 173.155908 
L 618.208602 179.35844 
z
" clip-path="url(#p6bdcc07676)" style="fill: #008000"/>
   </g>
   <g id="patch_118">
    <path d="M 611.669449 120.121364 
L 629.368948 120.121364 
L 629.368948 129.751553 
L 623.001245 129.751553 
L 623.001245 169.49989 
L 618.049501 169.49989 
L 618.049501 129.751553 
L 611.669449 129.751553 
L 611.669449 120.121364 
z
" clip-path="url(#p6bdcc07676)" style="fill: #ff0000"/>
   </g>
   <g id="patch_119">
    <path d="M 648 192.107405 
Q 646.519467 192.173129 644.91853 192.206374 
Q 643.317593 192.24 641.573954 192.24 
Q 636.374252 192.24 633.337376 191.990859 
Q 630.300501 191.741719 630.300501 191.315658 
Q 630.300501 190.888068 633.337376 190.63931 
Q 636.374252 190.390169 641.573954 190.390169 
Q 643.317593 190.390169 644.91853 190.423795 
Q 646.519467 190.457039 648 190.522764 
L 648 190.891507 
Q 646.506089 190.804384 645.056773 190.76388 
Q 643.607456 190.723375 642.006519 190.723375 
Q 639.134642 190.723375 637.489111 190.88119 
Q 635.848038 191.038622 635.848038 191.315658 
Q 635.848038 191.591546 637.489111 191.749361 
Q 639.134642 191.906793 642.006519 191.906793 
Q 643.607456 191.906793 645.056773 191.866289 
Q 646.506089 191.825402 648 191.73828 
L 648 192.107405 
z
" clip-path="url(#p6bdcc07676)" style="fill: #0000ff"/>
   </g>
   <g id="patch_120">
    <path d="M 648 189.999645 
Q 646.214977 190.194907 644.295085 190.292984 
Q 642.375193 190.390169 640.328366 190.390169 
Q 635.703172 190.390169 633.001836 189.808841 
Q 630.300501 189.227513 630.300501 188.23337 
Q 630.300501 187.227637 633.049437 186.650766 
Q 635.80234 186.073896 640.590169 186.073896 
Q 642.434694 186.073896 644.124516 186.152358 
Q 645.818305 186.229928 647.317724 186.383284 
L 647.317724 187.243685 
Q 645.770704 187.04664 644.239551 186.949455 
Q 642.708397 186.851378 641.16931 186.851378 
Q 638.321206 186.851378 636.778153 187.209804 
Q 635.235099 187.567339 635.235099 188.23337 
Q 635.235099 188.89316 636.722619 189.253369 
Q 638.210138 189.612687 640.947174 189.612687 
Q 641.692917 189.612687 642.331559 189.59218 
Q 642.970201 189.570781 643.477941 189.526201 
L 643.477941 188.718405 
L 640.562402 188.718405 
L 640.562402 187.998877 
L 648 187.998877 
L 648 189.999645 
z
" clip-path="url(#p6bdcc07676)" style="fill: #ffa600"/>
   </g>
   <g id="patch_121">
    <path d="M 630.300501 169.918704 
L 648 169.918704 
L 648 173.069417 
L 641.632296 173.069417 
L 641.632296 186.073896 
L 636.680553 186.073896 
L 636.680553 173.069417 
L 630.300501 173.069417 
L 630.300501 169.918704 
z
" clip-path="url(#p6bdcc07676)" style="fill: #ff0000"/>
   </g>
   <g id="patch_122">
    <path d="M 642.560959 166.503957 
L 635.754017 166.503957 
L 634.679236 169.918704 
L 630.300501 169.918704 
L 636.553769 151.173749 
L 641.746732 151.173749 
L 648 169.918704 
L 643.624884 169.918704 
L 642.560959 166.503957 
z
M 636.839653 163.024932 
L 641.464466 163.024932 
L 639.155679 155.56873 
L 636.839653 163.024932 
z
" clip-path="url(#p6bdcc07676)" style="fill: #008000"/>
   </g>
   <g id="matplotlib.axis_1">
    <g id="xtick_1">
     <g id="line2d_2">
      <defs>
       <path id="m7965223968" d="M 0 0 
L 0 3.5 
" style="stroke: #000000; stroke-width: 0.8"/>
      </defs>
      <g>
       <use xlink:href="#m7965223968" x="98.84975" y="192.24" style="stroke: #000000; stroke-width: 0.8"/>
      </g>
     </g>
     <g id="text_1">
      <!-- 0 -->
      <g transform="translate(95.6685 206.838437) scale(0.1 -0.1)">
       <defs>
        <path id="DejaVuSans-30" d="M 2034 4250 
Q 1547 4250 1301 3770 
Q 1056 3291 1056 2328 
Q 1056 1369 1301 889 
Q 1547 409 2034 409 
Q 2525 409 2770 889 
Q 3016 1369 3016 2328 
Q 3016 3291 2770 3770 
Q 2525 4250 2034 4250 
z
M 2034 4750 
Q 2819 4750 3233 4129 
Q 3647 3509 3647 2328 
Q 3647 1150 3233 529 
Q 2819 -91 2034 -91 
Q 1250 -91 836 529 
Q 422 1150 422 2328 
Q 422 3509 836 4129 
Q 1250 4750 2034 4750 
z
" transform="scale(0.015625)"/>
       </defs>
       <use xlink:href="#DejaVuSans-30"/>
      </g>
     </g>
    </g>
    <g id="xtick_2">
     <g id="line2d_3">
      <g>
       <use xlink:href="#m7965223968" x="192.005008" y="192.24" style="stroke: #000000; stroke-width: 0.8"/>
      </g>
     </g>
     <g id="text_2">
      <!-- 5 -->
      <g transform="translate(188.823758 206.838437) scale(0.1 -0.1)">
       <defs>
        <path id="DejaVuSans-35" d="M 691 4666 
L 3169 4666 
L 3169 4134 
L 1269 4134 
L 1269 2991 
Q 1406 3038 1543 3061 
Q 1681 3084 1819 3084 
Q 2600 3084 3056 2656 
Q 3513 2228 3513 1497 
Q 3513 744 3044 326 
Q 2575 -91 1722 -91 
Q 1428 -91 1123 -41 
Q 819 9 494 109 
L 494 744 
Q 775 591 1075 516 
Q 1375 441 1709 441 
Q 2250 441 2565 725 
Q 2881 1009 2881 1497 
Q 2881 1984 2565 2268 
Q 2250 2553 1709 2553 
Q 1456 2553 1204 2497 
Q 953 2441 691 2322 
L 691 4666 
z
" transform="scale(0.015625)"/>
       </defs>
       <use xlink:href="#DejaVuSans-35"/>
      </g>
     </g>
    </g>
    <g id="xtick_3">
     <g id="line2d_4">
      <g>
       <use xlink:href="#m7965223968" x="285.160267" y="192.24" style="stroke: #000000; stroke-width: 0.8"/>
      </g>
     </g>
     <g id="text_3">
      <!-- 10 -->
      <g transform="translate(278.797767 206.838437) scale(0.1 -0.1)">
       <defs>
        <path id="DejaVuSans-31" d="M 794 531 
L 1825 531 
L 1825 4091 
L 703 3866 
L 703 4441 
L 1819 4666 
L 2450 4666 
L 2450 531 
L 3481 531 
L 3481 0 
L 794 0 
L 794 531 
z
" transform="scale(0.015625)"/>
       </defs>
       <use xlink:href="#DejaVuSans-31"/>
       <use xlink:href="#DejaVuSans-30" x="63.623047"/>
      </g>
     </g>
    </g>
    <g id="xtick_4">
     <g id="line2d_5">
      <g>
       <use xlink:href="#m7965223968" x="378.315526" y="192.24" style="stroke: #000000; stroke-width: 0.8"/>
      </g>
     </g>
     <g id="text_4">
      <!-- 15 -->
      <g transform="translate(371.953026 206.838437) scale(0.1 -0.1)">
       <use xlink:href="#DejaVuSans-31"/>
       <use xlink:href="#DejaVuSans-35" x="63.623047"/>
      </g>
     </g>
    </g>
    <g id="xtick_5">
     <g id="line2d_6">
      <g>
       <use xlink:href="#m7965223968" x="471.470785" y="192.24" style="stroke: #000000; stroke-width: 0.8"/>
      </g>
     </g>
     <g id="text_5">
      <!-- 20 -->
      <g transform="translate(465.108285 206.838437) scale(0.1 -0.1)">
       <defs>
        <path id="DejaVuSans-32" d="M 1228 531 
L 3431 531 
L 3431 0 
L 469 0 
L 469 531 
Q 828 903 1448 1529 
Q 2069 2156 2228 2338 
Q 2531 2678 2651 2914 
Q 2772 3150 2772 3378 
Q 2772 3750 2511 3984 
Q 2250 4219 1831 4219 
Q 1534 4219 1204 4116 
Q 875 4013 500 3803 
L 500 4441 
Q 881 4594 1212 4672 
Q 1544 4750 1819 4750 
Q 2544 4750 2975 4387 
Q 3406 4025 3406 3419 
Q 3406 3131 3298 2873 
Q 3191 2616 2906 2266 
Q 2828 2175 2409 1742 
Q 1991 1309 1228 531 
z
" transform="scale(0.015625)"/>
       </defs>
       <use xlink:href="#DejaVuSans-32"/>
       <use xlink:href="#DejaVuSans-30" x="63.623047"/>
      </g>
     </g>
    </g>
    <g id="xtick_6">
     <g id="line2d_7">
      <g>
       <use xlink:href="#m7965223968" x="564.626043" y="192.24" style="stroke: #000000; stroke-width: 0.8"/>
      </g>
     </g>
     <g id="text_6">
      <!-- 25 -->
      <g transform="translate(558.263543 206.838437) scale(0.1 -0.1)">
       <use xlink:href="#DejaVuSans-32"/>
       <use xlink:href="#DejaVuSans-35" x="63.623047"/>
      </g>
     </g>
    </g>
   </g>
   <g id="matplotlib.axis_2">
    <g id="ytick_1">
     <g id="line2d_8">
      <defs>
       <path id="m8fd88f3c8a" d="M 0 0 
L -3.5 0 
" style="stroke: #000000; stroke-width: 0.8"/>
      </defs>
      <g>
       <use xlink:href="#m8fd88f3c8a" x="90" y="192.24" style="stroke: #000000; stroke-width: 0.8"/>
      </g>
     </g>
     <g id="text_7">
      <!-- 0.00 -->
      <g transform="translate(60.734375 196.039219) scale(0.1 -0.1)">
       <defs>
        <path id="DejaVuSans-2e" d="M 684 794 
L 1344 794 
L 1344 0 
L 684 0 
L 684 794 
z
" transform="scale(0.015625)"/>
       </defs>
       <use xlink:href="#DejaVuSans-30"/>
       <use xlink:href="#DejaVuSans-2e" x="63.623047"/>
       <use xlink:href="#DejaVuSans-30" x="95.410156"/>
       <use xlink:href="#DejaVuSans-30" x="159.033203"/>
      </g>
     </g>
    </g>
    <g id="ytick_2">
     <g id="line2d_9">
      <g>
       <use xlink:href="#m8fd88f3c8a" x="90" y="167.259737" style="stroke: #000000; stroke-width: 0.8"/>
      </g>
     </g>
     <g id="text_8">
      <!-- 0.25 -->
      <g transform="translate(60.734375 171.058956) scale(0.1 -0.1)">
       <use xlink:href="#DejaVuSans-30"/>
       <use xlink:href="#DejaVuSans-2e" x="63.623047"/>
       <use xlink:href="#DejaVuSans-32" x="95.410156"/>
       <use xlink:href="#DejaVuSans-35" x="159.033203"/>
      </g>
     </g>
    </g>
    <g id="ytick_3">
     <g id="line2d_10">
      <g>
       <use xlink:href="#m8fd88f3c8a" x="90" y="142.279474" style="stroke: #000000; stroke-width: 0.8"/>
      </g>
     </g>
     <g id="text_9">
      <!-- 0.50 -->
      <g transform="translate(60.734375 146.078693) scale(0.1 -0.1)">
       <use xlink:href="#DejaVuSans-30"/>
       <use xlink:href="#DejaVuSans-2e" x="63.623047"/>
       <use xlink:href="#DejaVuSans-35" x="95.410156"/>
       <use xlink:href="#DejaVuSans-30" x="159.033203"/>
      </g>
     </g>
    </g>
    <g id="ytick_4">
     <g id="line2d_11">
      <g>
       <use xlink:href="#m8fd88f3c8a" x="90" y="117.299211" style="stroke: #000000; stroke-width: 0.8"/>
      </g>
     </g>
     <g id="text_10">
      <!-- 0.75 -->
      <g transform="translate(60.734375 121.09843) scale(0.1 -0.1)">
       <defs>
        <path id="DejaVuSans-37" d="M 525 4666 
L 3525 4666 
L 3525 4397 
L 1831 0 
L 1172 0 
L 2766 4134 
L 525 4134 
L 525 4666 
z
" transform="scale(0.015625)"/>
       </defs>
       <use xlink:href="#DejaVuSans-30"/>
       <use xlink:href="#DejaVuSans-2e" x="63.623047"/>
       <use xlink:href="#DejaVuSans-37" x="95.410156"/>
       <use xlink:href="#DejaVuSans-35" x="159.033203"/>
      </g>
     </g>
    </g>
    <g id="ytick_5">
     <g id="line2d_12">
      <g>
       <use xlink:href="#m8fd88f3c8a" x="90" y="92.318949" style="stroke: #000000; stroke-width: 0.8"/>
      </g>
     </g>
     <g id="text_11">
      <!-- 1.00 -->
      <g transform="translate(60.734375 96.118167) scale(0.1 -0.1)">
       <use xlink:href="#DejaVuSans-31"/>
       <use xlink:href="#DejaVuSans-2e" x="63.623047"/>
       <use xlink:href="#DejaVuSans-30" x="95.410156"/>
       <use xlink:href="#DejaVuSans-30" x="159.033203"/>
      </g>
     </g>
    </g>
    <g id="ytick_6">
     <g id="line2d_13">
      <g>
       <use xlink:href="#m8fd88f3c8a" x="90" y="67.338686" style="stroke: #000000; stroke-width: 0.8"/>
      </g>
     </g>
     <g id="text_12">
      <!-- 1.25 -->
      <g transform="translate(60.734375 71.137905) scale(0.1 -0.1)">
       <use xlink:href="#DejaVuSans-31"/>
       <use xlink:href="#DejaVuSans-2e" x="63.623047"/>
       <use xlink:href="#DejaVuSans-32" x="95.410156"/>
       <use xlink:href="#DejaVuSans-35" x="159.033203"/>
      </g>
     </g>
    </g>
    <g id="ytick_7">
     <g id="line2d_14">
      <g>
       <use xlink:href="#m8fd88f3c8a" x="90" y="42.358423" style="stroke: #000000; stroke-width: 0.8"/>
      </g>
     </g>
     <g id="text_13">
      <!-- 1.50 -->
      <g transform="translate(60.734375 46.157642) scale(0.1 -0.1)">
       <use xlink:href="#DejaVuSans-31"/>
       <use xlink:href="#DejaVuSans-2e" x="63.623047"/>
       <use xlink:href="#DejaVuSans-35" x="95.410156"/>
       <use xlink:href="#DejaVuSans-30" x="159.033203"/>
      </g>
     </g>
    </g>
   </g>
  </g>
 </g>
 <defs>
  <clipPath id="p6bdcc07676">
   <rect x="90" y="25.92" width="558" height="166.32"/>
  </clipPath>
 </defs>
</svg>
