<?xml version="1.0" encoding="utf-8" standalone="no"?>
<!DOCTYPE svg PUBLIC "-//W3C//DTD SVG 1.1//EN"
  "http://www.w3.org/Graphics/SVG/1.1/DTD/svg11.dtd">
<svg xmlns:xlink="http://www.w3.org/1999/xlink" width="720pt" height="216pt" viewBox="0 0 720 216" xmlns="http://www.w3.org/2000/svg" version="1.1">
 <metadata>
  <rdf:RDF xmlns:dc="http://purl.org/dc/elements/1.1/" xmlns:cc="http://creativecommons.org/ns#" xmlns:rdf="http://www.w3.org/1999/02/22-rdf-syntax-ns#">
   <cc:Work>
    <dc:type rdf:resource="http://purl.org/dc/dcmitype/StillImage"/>
    <dc:date>2025-12-17T10:28:36.742250</dc:date>
    <dc:format>image/svg+xml</dc:format>
    <dc:creator>
     <cc:Agent>
      <dc:title>Matplotlib v3.8.2, https://matplotlib.org/</dc:title>
     </cc:Agent>
    </dc:creator>
   </cc:Work>
  </rdf:RDF>
 </metadata>
 <defs>
  <style type="text/css">*{stroke-linejoin: round; stroke-linecap: butt}</style>
 </defs>
 <g id="figure_1">
  <g id="patch_1">
   <path d="M 0 216 
L 720 216 
L 720 0 
L 0 0 
z
" style="fill: #ffffff"/>
  </g>
  <g id="axes_1">
   <g id="patch_2">
    <path d="M 90 192.24 
L 648 192.24 
L 648 25.92 
L 90 25.92 
z
" style="fill: #ffffff"/>
   </g>
   <g id="line2d_1">
    <path d="M 90 192.24 
L 648 192.24 
" clip-path="url(#p3d4b23a77b)" style="fill: none; stroke: #000000; stroke-width: 0.5; stroke-linecap: square"/>
   </g>
   <g id="patch_3">
    <path d="M 156.679245 191.962542 
Q 151.101641 192.100072 145.070437 192.169636 
Q 139.039233 192.24 132.470429 192.24 
Q 112.881616 192.24 101.440808 191.718668 
Q 90 191.197335 90 190.305793 
Q 90 189.411052 101.440808 188.890519 
Q 112.881616 188.369187 132.470429 188.369187 
Q 139.039233 188.369187 145.070437 188.439551 
Q 151.101641 188.509115 156.679245 188.646645 
L 156.679245 189.418248 
Q 151.051241 189.235942 145.591238 189.151186 
Q 140.131234 189.066429 134.10003 189.066429 
Q 123.280823 189.066429 117.081618 189.39666 
Q 110.899214 189.72609 110.899214 190.305793 
Q 110.899214 190.883097 117.081618 191.213327 
Q 123.280823 191.542758 134.10003 191.542758 
Q 140.131234 191.542758 145.591238 191.458001 
Q 151.051241 191.372445 156.679245 191.190139 
L 156.679245 191.962542 
z
" clip-path="url(#p3d4b23a77b)" style="fill: #0000ff"/>
   </g>
   <g id="patch_4">
    <path d="M 156.679245 187.930021 
Q 149.954534 188.149604 142.721734 188.259897 
Q 135.488934 188.369187 127.777932 188.369187 
Q 110.353459 188.369187 100.176729 187.715451 
Q 90 187.061715 90 185.943746 
Q 90 184.812743 100.356055 184.164021 
Q 110.727054 183.515298 128.764223 183.515298 
Q 135.713091 183.515298 142.079151 183.603532 
Q 148.460154 183.690764 154.108911 183.863222 
L 154.108911 184.830791 
Q 148.280828 184.609203 142.512521 184.499913 
Q 136.744213 184.38962 130.946018 184.38962 
Q 120.216368 184.38962 114.403229 184.79269 
Q 108.59009 185.194758 108.59009 185.943746 
Q 108.59009 186.685717 114.194016 187.090792 
Q 119.797942 187.494865 130.109165 187.494865 
Q 132.9186 187.494865 135.324552 187.471804 
Q 137.730504 187.44774 139.643311 187.397607 
L 139.643311 186.489195 
L 128.659616 186.489195 
L 128.659616 185.680046 
L 156.679245 185.680046 
L 156.679245 187.930021 
z
" clip-path="url(#p3d4b23a77b)" style="fill: #ffa600"/>
   </g>
   <g id="patch_5">
    <path d="M 90 175.159258 
L 156.679245 175.159258 
L 156.679245 176.788919 
L 132.690224 176.788919 
L 132.690224 183.515298 
L 114.035542 183.515298 
L 114.035542 176.788919 
L 90 176.788919 
L 90 175.159258 
z
" clip-path="url(#p3d4b23a77b)" style="fill: #ff0000"/>
   </g>
   <g id="patch_6">
    <path d="M 136.188772 165.320828 
L 110.545006 165.320828 
L 106.49599 175.159258 
L 90 175.159258 
L 113.55791 121.152066 
L 133.121336 121.152066 
L 156.679245 175.159258 
L 140.196888 175.159258 
L 136.188772 165.320828 
z
M 114.634921 155.297205 
L 132.057958 155.297205 
L 123.360072 133.814704 
L 114.634921 155.297205 
z
" clip-path="url(#p3d4b23a77b)" style="fill: #008000"/>
   </g>
   <g id="patch_7">
    <path d="M 226.867925 192.09417 
Q 221.290321 192.166454 215.259117 192.203017 
Q 209.227913 192.24 202.659108 192.24 
Q 183.070295 192.24 171.629487 191.96599 
Q 160.188679 191.691981 160.188679 191.22339 
Q 160.188679 190.753119 171.629487 190.47953 
Q 183.070295 190.20552 202.659108 190.20552 
Q 209.227913 190.20552 215.259117 190.242503 
Q 221.290321 190.279065 226.867925 190.35135 
L 226.867925 190.756901 
Q 221.239921 190.661082 215.779917 190.616534 
Q 210.319913 190.571987 204.288709 190.571987 
Q 193.469502 190.571987 187.270298 190.745554 
Q 181.087893 190.918702 181.087893 191.22339 
Q 181.087893 191.526818 187.270298 191.700386 
Q 193.469502 191.873533 204.288709 191.873533 
Q 210.319913 191.873533 215.779917 191.828985 
Q 221.239921 191.784018 226.867925 191.688198 
L 226.867925 192.09417 
z
" clip-path="url(#p3d4b23a77b)" style="fill: #0000ff"/>
   </g>
   <g id="patch_8">
    <path d="M 226.867925 189.983092 
Q 220.143214 190.094306 212.910413 190.150167 
Q 205.677613 190.20552 197.966611 190.20552 
Q 180.542138 190.20552 170.365409 189.874418 
Q 160.188679 189.543315 160.188679 188.97709 
Q 160.188679 188.404263 170.544734 188.0757 
Q 180.915733 187.747137 198.952902 187.747137 
Q 205.90177 187.747137 212.26783 187.791825 
Q 218.648833 187.836006 224.297591 187.923352 
L 224.297591 188.413404 
Q 218.469508 188.301174 212.7012 188.245821 
Q 206.932892 188.18996 201.134697 188.18996 
Q 190.405047 188.18996 184.591908 188.394106 
Q 178.778769 188.597744 178.778769 188.97709 
Q 178.778769 189.352881 184.382695 189.558042 
Q 189.986621 189.762696 200.297844 189.762696 
Q 203.107279 189.762696 205.513231 189.751016 
Q 207.919183 189.738828 209.83199 189.713437 
L 209.83199 189.253347 
L 198.848295 189.253347 
L 198.848295 188.843532 
L 226.867925 188.843532 
L 226.867925 189.983092 
z
" clip-path="url(#p3d4b23a77b)" style="fill: #ffa600"/>
   </g>
   <g id="patch_9">
    <path d="M 160.188679 175.879124 
L 226.867925 175.879124 
L 226.867925 178.193717 
L 202.878903 178.193717 
L 202.878903 187.747137 
L 184.224221 187.747137 
L 184.224221 178.193717 
L 160.188679 178.193717 
L 160.188679 175.879124 
z
" clip-path="url(#p3d4b23a77b)" style="fill: #ff0000"/>
   </g>
   <g id="patch_10">
    <path d="M 206.377451 160.992384 
L 180.733685 160.992384 
L 176.684669 175.879124 
L 160.188679 175.879124 
L 183.746589 94.159679 
L 203.310015 94.159679 
L 226.867925 175.879124 
L 210.385568 175.879124 
L 206.377451 160.992384 
z
M 184.8236 145.825423 
L 202.246637 145.825423 
L 193.548751 113.319789 
L 184.8236 145.825423 
z
" clip-path="url(#p3d4b23a77b)" style="fill: #008000"/>
   </g>
   <g id="patch_11">
    <path d="M 297.056604 192.220259 
Q 291.479 192.230044 285.447796 192.234994 
Q 279.416592 192.24 272.847787 192.24 
Q 253.258974 192.24 241.818166 192.202907 
Q 230.377358 192.165814 230.377358 192.10238 
Q 230.377358 192.038719 241.818166 192.001682 
Q 253.258974 191.964589 272.847787 191.964589 
Q 279.416592 191.964589 285.447796 191.969596 
Q 291.479 191.974545 297.056604 191.98433 
L 297.056604 192.039231 
Q 291.4286 192.026259 285.968596 192.020229 
Q 280.508593 192.014198 274.477388 192.014198 
Q 263.658181 192.014198 257.458977 192.037695 
Q 251.276573 192.061134 251.276573 192.10238 
Q 251.276573 192.143455 257.458977 192.166952 
Q 263.658181 192.190391 274.477388 192.190391 
Q 280.508593 192.190391 285.968596 192.18436 
Q 291.4286 192.178273 297.056604 192.165302 
L 297.056604 192.220259 
z
" clip-path="url(#p3d4b23a77b)" style="fill: #0000ff"/>
   </g>
   <g id="patch_12">
    <path d="M 230.377358 191.276142 
L 297.056604 191.276142 
L 297.056604 191.410408 
L 273.067582 191.410408 
L 273.067582 191.964589 
L 254.4129 191.964589 
L 254.4129 191.410408 
L 230.377358 191.410408 
L 230.377358 191.276142 
z
" clip-path="url(#p3d4b23a77b)" style="fill: #ff0000"/>
   </g>
   <g id="patch_13">
    <path d="M 297.056604 191.188949 
Q 290.331893 191.232545 283.099093 191.254443 
Q 275.866292 191.276142 268.15529 191.276142 
Q 250.730817 191.276142 240.554088 191.146348 
Q 230.377358 191.016554 230.377358 190.794591 
Q 230.377358 190.57004 240.733413 190.441241 
Q 251.104412 190.312443 269.141581 190.312443 
Q 276.090449 190.312443 282.456509 190.329961 
Q 288.837513 190.34728 294.48627 190.38152 
L 294.48627 190.573623 
Q 288.658187 190.529629 282.889879 190.50793 
Q 277.121572 190.486032 271.323376 190.486032 
Q 260.593726 190.486032 254.780587 190.566058 
Q 248.967448 190.645886 248.967448 190.794591 
Q 248.967448 190.941903 254.571374 191.022327 
Q 260.1753 191.102553 270.486524 191.102553 
Q 273.295958 191.102553 275.70191 191.097974 
Q 278.107863 191.093196 280.020669 191.083243 
L 280.020669 190.902885 
L 269.036975 190.902885 
L 269.036975 190.742236 
L 297.056604 190.742236 
L 297.056604 191.188949 
z
" clip-path="url(#p3d4b23a77b)" style="fill: #ffa600"/>
   </g>
   <g id="patch_14">
    <path d="M 276.56613 161.646044 
L 250.922364 161.646044 
L 246.873348 190.312443 
L 230.377358 190.312443 
L 253.935268 32.950774 
L 273.498694 32.950774 
L 297.056604 190.312443 
L 280.574247 190.312443 
L 276.56613 161.646044 
z
M 255.012279 132.440042 
L 272.435316 132.440042 
L 263.737431 69.846116 
L 255.012279 132.440042 
z
" clip-path="url(#p3d4b23a77b)" style="fill: #008000"/>
   </g>
   <g id="patch_15">
    <path d="M 367.245283 192.201877 
Q 361.667679 192.220774 355.636475 192.230332 
Q 349.605271 192.24 343.036467 192.24 
Q 323.447653 192.24 312.006846 192.168368 
Q 300.566038 192.096737 300.566038 191.974238 
Q 300.566038 191.8513 312.006846 191.779778 
Q 323.447653 191.708146 343.036467 191.708146 
Q 349.605271 191.708146 355.636475 191.717814 
Q 361.667679 191.727373 367.245283 191.746269 
L 367.245283 191.852288 
Q 361.617279 191.827239 356.157275 191.815594 
Q 350.697272 191.803948 344.666068 191.803948 
Q 333.84686 191.803948 327.647656 191.849322 
Q 321.465252 191.894586 321.465252 191.974238 
Q 321.465252 192.05356 327.647656 192.098934 
Q 333.84686 192.144198 344.666068 192.144198 
Q 350.697272 192.144198 356.157275 192.132553 
Q 361.617279 192.120797 367.245283 192.095748 
L 367.245283 192.201877 
z
" clip-path="url(#p3d4b23a77b)" style="fill: #0000ff"/>
   </g>
   <g id="patch_16">
    <path d="M 300.566038 190.51136 
L 367.245283 190.51136 
L 367.245283 190.744767 
L 343.256262 190.744767 
L 343.256262 191.708146 
L 324.60158 191.708146 
L 324.60158 190.744767 
L 300.566038 190.744767 
L 300.566038 190.51136 
z
" clip-path="url(#p3d4b23a77b)" style="fill: #ff0000"/>
   </g>
   <g id="patch_17">
    <path d="M 367.245283 190.379025 
Q 360.520572 190.445192 353.287772 190.478427 
Q 346.054972 190.51136 338.34397 190.51136 
Q 320.919496 190.51136 310.742767 190.314368 
Q 300.566038 190.117376 300.566038 189.780495 
Q 300.566038 189.439687 310.922093 189.244205 
Q 321.293091 189.048724 339.330261 189.048724 
Q 346.279129 189.048724 352.645188 189.075312 
Q 359.026192 189.101597 364.674949 189.153565 
L 364.674949 189.445125 
Q 358.846866 189.378353 353.078559 189.34542 
Q 347.310251 189.312186 341.512056 189.312186 
Q 330.782406 189.312186 324.969267 189.433644 
Q 319.156128 189.5548 319.156128 189.780495 
Q 319.156128 190.004075 324.760053 190.126138 
Q 330.363979 190.247898 340.675203 190.247898 
Q 343.484638 190.247898 345.89059 190.240949 
Q 348.296542 190.233698 350.209349 190.218591 
L 350.209349 189.944857 
L 339.225654 189.944857 
L 339.225654 189.701034 
L 367.245283 189.701034 
L 367.245283 190.379025 
z
" clip-path="url(#p3d4b23a77b)" style="fill: #ffa600"/>
   </g>
   <g id="patch_18">
    <path d="M 346.75481 161.603694 
L 321.111043 161.603694 
L 317.062028 189.048724 
L 300.566038 189.048724 
L 324.123947 38.391655 
L 343.687373 38.391655 
L 367.245283 189.048724 
L 350.762926 189.048724 
L 346.75481 161.603694 
z
M 325.200958 133.642052 
L 342.623996 133.642052 
L 333.92611 73.715022 
L 325.200958 133.642052 
z
" clip-path="url(#p3d4b23a77b)" style="fill: #008000"/>
   </g>
   <g id="patch_19">
    <path d="M 437.433962 192.212063 
Q 431.856358 192.225911 425.825154 192.232915 
Q 419.79395 192.24 413.225146 192.24 
Q 393.636333 192.24 382.195525 192.187508 
Q 370.754717 192.135016 370.754717 192.045248 
Q 370.754717 191.955158 382.195525 191.902746 
Q 393.636333 191.850254 413.225146 191.850254 
Q 419.79395 191.850254 425.825154 191.857339 
Q 431.856358 191.864343 437.433962 191.878191 
L 437.433962 191.955882 
Q 431.805958 191.937526 426.345955 191.928992 
Q 420.885951 191.920458 414.854747 191.920458 
Q 404.03554 191.920458 397.836335 191.953709 
Q 391.653931 191.986878 391.653931 192.045248 
Q 391.653931 192.103376 397.836335 192.136626 
Q 404.03554 192.169796 414.854747 192.169796 
Q 420.885951 192.169796 426.345955 192.161262 
Q 431.805958 192.152647 437.433962 192.134291 
L 437.433962 192.212063 
z
" clip-path="url(#p3d4b23a77b)" style="fill: #0000ff"/>
   </g>
   <g id="patch_20">
    <path d="M 370.754717 190.551151 
L 437.433962 190.551151 
L 437.433962 190.804512 
L 413.444941 190.804512 
L 413.444941 191.850254 
L 394.790259 191.850254 
L 394.790259 190.804512 
L 370.754717 190.804512 
L 370.754717 190.551151 
z
" clip-path="url(#p3d4b23a77b)" style="fill: #ff0000"/>
   </g>
   <g id="patch_21">
    <path d="M 437.433962 190.327822 
Q 430.709251 190.439486 423.476451 190.495573 
Q 416.243651 190.551151 408.532649 190.551151 
Q 391.108176 190.551151 380.931446 190.218707 
Q 370.754717 189.886264 370.754717 189.317745 
Q 370.754717 188.742597 381.110772 188.412703 
Q 391.481771 188.082809 409.51894 188.082809 
Q 416.467808 188.082809 422.833868 188.127679 
Q 429.214871 188.172039 434.863628 188.259738 
L 434.863628 188.751775 
Q 429.035545 188.639091 423.267238 188.583514 
Q 417.49893 188.527427 411.700735 188.527427 
Q 400.971085 188.527427 395.157946 188.732399 
Q 389.344807 188.936862 389.344807 189.317745 
Q 389.344807 189.695058 394.948733 189.90105 
Q 400.552659 190.106533 410.863882 190.106533 
Q 413.673317 190.106533 416.079269 190.094806 
Q 418.485221 190.082569 420.398028 190.057074 
L 420.398028 189.595121 
L 409.414333 189.595121 
L 409.414333 189.183646 
L 437.433962 189.183646 
L 437.433962 190.327822 
z
" clip-path="url(#p3d4b23a77b)" style="fill: #ffa600"/>
   </g>
   <g id="patch_22">
    <path d="M 416.943489 161.458863 
L 391.299723 161.458863 
L 387.250707 188.082809 
L 370.754717 188.082809 
L 394.312627 41.933004 
L 413.876053 41.933004 
L 437.433962 188.082809 
L 420.951605 188.082809 
L 416.943489 161.458863 
z
M 395.389637 134.33376 
L 412.812675 134.33376 
L 404.114789 76.199589 
L 395.389637 134.33376 
z
" clip-path="url(#p3d4b23a77b)" style="fill: #008000"/>
   </g>
   <g id="patch_23">
    <path d="M 487.132168 192.213822 
L 461.488402 192.213822 
L 457.439386 192.24 
L 440.943396 192.24 
L 464.501306 192.0963 
L 484.064732 192.0963 
L 507.622642 192.24 
L 491.140285 192.24 
L 487.132168 192.213822 
z
M 465.578317 192.187152 
L 483.001354 192.187152 
L 474.303468 192.129992 
L 465.578317 192.187152 
z
" clip-path="url(#p3d4b23a77b)" style="fill: #008000"/>
   </g>
   <g id="patch_24">
    <path d="M 440.943396 191.808732 
L 507.622642 191.808732 
L 507.622642 191.864816 
L 483.63362 191.864816 
L 483.63362 192.0963 
L 464.978938 192.0963 
L 464.978938 191.864816 
L 440.943396 191.864816 
L 440.943396 191.808732 
z
" clip-path="url(#p3d4b23a77b)" style="fill: #ff0000"/>
   </g>
   <g id="patch_25">
    <path d="M 507.622642 176.799589 
Q 500.897931 184.30416 493.66513 188.07358 
Q 486.43233 191.808732 478.721328 191.808732 
Q 461.296855 191.808732 451.120126 169.466354 
Q 440.943396 147.123976 440.943396 108.915767 
Q 440.943396 70.262082 451.299451 48.091041 
Q 461.67045 25.92 479.707619 25.92 
Q 486.656487 25.92 493.022547 28.935536 
Q 499.40355 31.916804 505.052308 37.810806 
L 505.052308 70.878896 
Q 499.224225 63.305789 493.455917 59.570637 
Q 487.687609 55.801218 481.889414 55.801218 
Q 471.159764 55.801218 465.346625 69.576733 
Q 459.533486 83.317981 459.533486 108.915767 
Q 459.533486 134.273681 465.137412 148.117732 
Q 470.741338 161.927515 481.052561 161.927515 
Q 483.861996 161.927515 486.267948 161.139363 
Q 488.6739 160.316944 490.586707 158.603572 
L 490.586707 127.557261 
L 479.603012 127.557261 
L 479.603012 99.903428 
L 507.622642 99.903428 
L 507.622642 176.799589 
z
" clip-path="url(#p3d4b23a77b)" style="fill: #ffa600"/>
   </g>
   <g id="patch_26">
    <path d="M 557.320847 191.701488 
L 531.677081 191.701488 
L 527.628065 192.24 
L 511.132075 192.24 
L 534.689985 189.283886 
L 554.253411 189.283886 
L 577.811321 192.24 
L 561.328964 192.24 
L 557.320847 191.701488 
z
M 535.766996 191.152839 
L 553.190033 191.152839 
L 544.492148 189.976982 
L 535.766996 191.152839 
z
" clip-path="url(#p3d4b23a77b)" style="fill: #008000"/>
   </g>
   <g id="patch_27">
    <path d="M 577.811321 188.942648 
Q 571.08661 189.113267 563.85381 189.198966 
Q 556.621009 189.283886 548.910007 189.283886 
Q 531.485534 189.283886 521.308805 188.775924 
Q 511.132075 188.267962 511.132075 187.399286 
Q 511.132075 186.520481 521.48813 186.016415 
Q 531.859129 185.512348 549.896298 185.512348 
Q 556.845166 185.512348 563.211226 185.580908 
Q 569.59223 185.648688 575.240987 185.78269 
L 575.240987 186.534504 
Q 569.412904 186.362327 563.644596 186.277407 
Q 557.876289 186.191708 552.078093 186.191708 
Q 541.348443 186.191708 535.535304 186.504899 
Q 529.722165 186.817311 529.722165 187.399286 
Q 529.722165 187.975807 535.326091 188.290556 
Q 540.930017 188.604526 551.24124 188.604526 
Q 554.050675 188.604526 556.456627 188.586607 
Q 558.86258 188.567909 560.775386 188.528955 
L 560.775386 187.823106 
L 549.791692 187.823106 
L 549.791692 187.194387 
L 577.811321 187.194387 
L 577.811321 188.942648 
z
" clip-path="url(#p3d4b23a77b)" style="fill: #ffa600"/>
   </g>
   <g id="patch_28">
    <path d="M 577.811321 185.190862 
Q 572.233717 185.350215 566.202513 185.430819 
Q 560.171309 185.512348 553.602504 185.512348 
Q 534.013691 185.512348 522.572883 184.908287 
Q 511.132075 184.304226 511.132075 183.271207 
Q 511.132075 182.234483 522.572883 181.631348 
Q 534.013691 181.027287 553.602504 181.027287 
Q 560.171309 181.027287 566.202513 181.108816 
Q 572.233717 181.18942 577.811321 181.348773 
L 577.811321 182.242821 
Q 572.183317 182.031585 566.723313 181.933378 
Q 561.26331 181.835172 555.232105 181.835172 
Q 544.412898 181.835172 538.213694 182.217806 
Q 532.03129 182.599513 532.03129 183.271207 
Q 532.03129 183.940122 538.213694 184.322755 
Q 544.412898 184.704463 555.232105 184.704463 
Q 561.26331 184.704463 566.723313 184.606257 
Q 572.183317 184.507124 577.811321 184.295888 
L 577.811321 185.190862 
z
" clip-path="url(#p3d4b23a77b)" style="fill: #0000ff"/>
   </g>
   <g id="patch_29">
    <path d="M 511.132075 74.302064 
L 577.811321 74.302064 
L 577.811321 95.116456 
L 553.822299 95.116456 
L 553.822299 181.027287 
L 535.167617 181.027287 
L 535.167617 95.116456 
L 511.132075 95.116456 
L 511.132075 74.302064 
z
" clip-path="url(#p3d4b23a77b)" style="fill: #ff0000"/>
   </g>
   <g id="patch_30">
    <path d="M 648 192.188303 
Q 642.422396 192.213928 636.391192 192.22689 
Q 630.359988 192.24 623.791184 192.24 
Q 604.20237 192.24 592.761562 192.142863 
Q 581.320755 192.045727 581.320755 191.879611 
Q 581.320755 191.712899 592.761562 191.615912 
Q 604.20237 191.518775 623.791184 191.518775 
Q 630.359988 191.518775 636.391192 191.531885 
Q 642.422396 191.544847 648 191.570472 
L 648 191.71424 
Q 642.371996 191.680272 636.911992 191.66448 
Q 631.451989 191.648688 625.420785 191.648688 
Q 614.601577 191.648688 608.402373 191.710218 
Q 602.219969 191.771598 602.219969 191.879611 
Q 602.219969 191.987176 608.402373 192.048706 
Q 614.601577 192.110087 625.420785 192.110087 
Q 631.451989 192.110087 636.911992 192.094295 
Q 642.371996 192.078354 648 192.044386 
L 648 192.188303 
z
" clip-path="url(#p3d4b23a77b)" style="fill: #0000ff"/>
   </g>
   <g id="patch_31">
    <path d="M 581.320755 188.83987 
L 648 188.83987 
L 648 189.362331 
L 624.010978 189.362331 
L 624.010978 191.518775 
L 605.356297 191.518775 
L 605.356297 189.362331 
L 581.320755 189.362331 
L 581.320755 188.83987 
z
" clip-path="url(#p3d4b23a77b)" style="fill: #ff0000"/>
   </g>
   <g id="patch_32">
    <path d="M 627.509527 187.225683 
L 601.86576 187.225683 
L 597.816745 188.83987 
L 581.320755 188.83987 
L 604.878664 179.978933 
L 624.44209 179.978933 
L 648 188.83987 
L 631.517643 188.83987 
L 627.509527 187.225683 
z
M 605.955675 185.581111 
L 623.378713 185.581111 
L 614.680827 182.056487 
L 605.955675 185.581111 
z
" clip-path="url(#p3d4b23a77b)" style="fill: #008000"/>
   </g>
   <g id="patch_33">
    <path d="M 648 170.302425 
Q 641.275289 175.140679 634.042489 177.570852 
Q 626.809689 179.978933 619.098687 179.978933 
Q 601.674213 179.978933 591.497484 165.574634 
Q 581.320755 151.170335 581.320755 126.537216 
Q 581.320755 101.616895 591.67681 87.323058 
Q 602.047808 73.029222 620.084978 73.029222 
Q 627.033846 73.029222 633.399905 74.97336 
Q 639.780909 76.895406 645.429666 80.695313 
L 645.429666 102.01456 
Q 639.601583 97.132121 633.833276 94.72404 
Q 628.064968 92.293867 622.266773 92.293867 
Q 611.537123 92.293867 605.723984 101.175045 
Q 599.910845 110.034131 599.910845 126.537216 
Q 599.910845 142.885654 605.51477 151.811017 
Q 611.118696 160.714288 621.42992 160.714288 
Q 624.239355 160.714288 626.645307 160.20616 
Q 629.051259 159.675941 630.964066 158.571317 
L 630.964066 138.555527 
L 619.980371 138.555527 
L 619.980371 120.726893 
L 648 120.726893 
L 648 170.302425 
z
" clip-path="url(#p3d4b23a77b)" style="fill: #ffa600"/>
   </g>
   <g id="matplotlib.axis_1">
    <g id="xtick_1">
     <g id="line2d_2">
      <defs>
       <path id="md31bac79a0" d="M 0 0 
L 0 3.5 
" style="stroke: #000000; stroke-width: 0.8"/>
      </defs>
      <g>
       <use xlink:href="#md31bac79a0" x="123.339623" y="192.24" style="stroke: #000000; stroke-width: 0.8"/>
      </g>
     </g>
     <g id="text_1">
      <!-- 0 -->
      <g transform="translate(120.158373 206.838437) scale(0.1 -0.1)">
       <defs>
        <path id="DejaVuSans-30" d="M 2034 4250 
Q 1547 4250 1301 3770 
Q 1056 3291 1056 2328 
Q 1056 1369 1301 889 
Q 1547 409 2034 409 
Q 2525 409 2770 889 
Q 3016 1369 3016 2328 
Q 3016 3291 2770 3770 
Q 2525 4250 2034 4250 
z
M 2034 4750 
Q 2819 4750 3233 4129 
Q 3647 3509 3647 2328 
Q 3647 1150 3233 529 
Q 2819 -91 2034 -91 
Q 1250 -91 836 529 
Q 422 1150 422 2328 
Q 422 3509 836 4129 
Q 1250 4750 2034 4750 
z
" transform="scale(0.015625)"/>
       </defs>
       <use xlink:href="#DejaVuSans-30"/>
      </g>
     </g>
    </g>
    <g id="xtick_2">
     <g id="line2d_3">
      <g>
       <use xlink:href="#md31bac79a0" x="193.528302" y="192.24" style="stroke: #000000; stroke-width: 0.8"/>
      </g>
     </g>
     <g id="text_2">
      <!-- 1 -->
      <g transform="translate(190.347052 206.838437) scale(0.1 -0.1)">
       <defs>
        <path id="DejaVuSans-31" d="M 794 531 
L 1825 531 
L 1825 4091 
L 703 3866 
L 703 4441 
L 1819 4666 
L 2450 4666 
L 2450 531 
L 3481 531 
L 3481 0 
L 794 0 
L 794 531 
z
" transform="scale(0.015625)"/>
       </defs>
       <use xlink:href="#DejaVuSans-31"/>
      </g>
     </g>
    </g>
    <g id="xtick_3">
     <g id="line2d_4">
      <g>
       <use xlink:href="#md31bac79a0" x="263.716981" y="192.24" style="stroke: #000000; stroke-width: 0.8"/>
      </g>
     </g>
     <g id="text_3">
      <!-- 2 -->
      <g transform="translate(260.535731 206.838437) scale(0.1 -0.1)">
       <defs>
        <path id="DejaVuSans-32" d="M 1228 531 
L 3431 531 
L 3431 0 
L 469 0 
L 469 531 
Q 828 903 1448 1529 
Q 2069 2156 2228 2338 
Q 2531 2678 2651 2914 
Q 2772 3150 2772 3378 
Q 2772 3750 2511 3984 
Q 2250 4219 1831 4219 
Q 1534 4219 1204 4116 
Q 875 4013 500 3803 
L 500 4441 
Q 881 4594 1212 4672 
Q 1544 4750 1819 4750 
Q 2544 4750 2975 4387 
Q 3406 4025 3406 3419 
Q 3406 3131 3298 2873 
Q 3191 2616 2906 2266 
Q 2828 2175 2409 1742 
Q 1991 1309 1228 531 
z
" transform="scale(0.015625)"/>
       </defs>
       <use xlink:href="#DejaVuSans-32"/>
      </g>
     </g>
    </g>
    <g id="xtick_4">
     <g id="line2d_5">
      <g>
       <use xlink:href="#md31bac79a0" x="333.90566" y="192.24" style="stroke: #000000; stroke-width: 0.8"/>
      </g>
     </g>
     <g id="text_4">
      <!-- 3 -->
      <g transform="translate(330.72441 206.838437) scale(0.1 -0.1)">
       <defs>
        <path id="DejaVuSans-33" d="M 2597 2516 
Q 3050 2419 3304 2112 
Q 3559 1806 3559 1356 
Q 3559 666 3084 287 
Q 2609 -91 1734 -91 
Q 1441 -91 1130 -33 
Q 819 25 488 141 
L 488 750 
Q 750 597 1062 519 
Q 1375 441 1716 441 
Q 2309 441 2620 675 
Q 2931 909 2931 1356 
Q 2931 1769 2642 2001 
Q 2353 2234 1838 2234 
L 1294 2234 
L 1294 2753 
L 1863 2753 
Q 2328 2753 2575 2939 
Q 2822 3125 2822 3475 
Q 2822 3834 2567 4026 
Q 2313 4219 1838 4219 
Q 1578 4219 1281 4162 
Q 984 4106 628 3988 
L 628 4550 
Q 988 4650 1302 4700 
Q 1616 4750 1894 4750 
Q 2613 4750 3031 4423 
Q 3450 4097 3450 3541 
Q 3450 3153 3228 2886 
Q 3006 2619 2597 2516 
z
" transform="scale(0.015625)"/>
       </defs>
       <use xlink:href="#DejaVuSans-33"/>
      </g>
     </g>
    </g>
    <g id="xtick_5">
     <g id="line2d_6">
      <g>
       <use xlink:href="#md31bac79a0" x="404.09434" y="192.24" style="stroke: #000000; stroke-width: 0.8"/>
      </g>
     </g>
     <g id="text_5">
      <!-- 4 -->
      <g transform="translate(400.91309 206.838437) scale(0.1 -0.1)">
       <defs>
        <path id="DejaVuSans-34" d="M 2419 4116 
L 825 1625 
L 2419 1625 
L 2419 4116 
z
M 2253 4666 
L 3047 4666 
L 3047 1625 
L 3713 1625 
L 3713 1100 
L 3047 1100 
L 3047 0 
L 2419 0 
L 2419 1100 
L 313 1100 
L 313 1709 
L 2253 4666 
z
" transform="scale(0.015625)"/>
       </defs>
       <use xlink:href="#DejaVuSans-34"/>
      </g>
     </g>
    </g>
    <g id="xtick_6">
     <g id="line2d_7">
      <g>
       <use xlink:href="#md31bac79a0" x="474.283019" y="192.24" style="stroke: #000000; stroke-width: 0.8"/>
      </g>
     </g>
     <g id="text_6">
      <!-- 5 -->
      <g transform="translate(471.101769 206.838437) scale(0.1 -0.1)">
       <defs>
        <path id="DejaVuSans-35" d="M 691 4666 
L 3169 4666 
L 3169 4134 
L 1269 4134 
L 1269 2991 
Q 1406 3038 1543 3061 
Q 1681 3084 1819 3084 
Q 2600 3084 3056 2656 
Q 3513 2228 3513 1497 
Q 3513 744 3044 326 
Q 2575 -91 1722 -91 
Q 1428 -91 1123 -41 
Q 819 9 494 109 
L 494 744 
Q 775 591 1075 516 
Q 1375 441 1709 441 
Q 2250 441 2565 725 
Q 2881 1009 2881 1497 
Q 2881 1984 2565 2268 
Q 2250 2553 1709 2553 
Q 1456 2553 1204 2497 
Q 953 2441 691 2322 
L 691 4666 
z
" transform="scale(0.015625)"/>
       </defs>
       <use xlink:href="#DejaVuSans-35"/>
      </g>
     </g>
    </g>
    <g id="xtick_7">
     <g id="line2d_8">
      <g>
       <use xlink:href="#md31bac79a0" x="544.471698" y="192.24" style="stroke: #000000; stroke-width: 0.8"/>
      </g>
     </g>
     <g id="text_7">
      <!-- 6 -->
      <g transform="translate(541.290448 206.838437) scale(0.1 -0.1)">
       <defs>
        <path id="DejaVuSans-36" d="M 2113 2584 
Q 1688 2584 1439 2293 
Q 1191 2003 1191 1497 
Q 1191 994 1439 701 
Q 1688 409 2113 409 
Q 2538 409 2786 701 
Q 3034 994 3034 1497 
Q 3034 2003 2786 2293 
Q 2538 2584 2113 2584 
z
M 3366 4563 
L 3366 3988 
Q 3128 4100 2886 4159 
Q 2644 4219 2406 4219 
Q 1781 4219 1451 3797 
Q 1122 3375 1075 2522 
Q 1259 2794 1537 2939 
Q 1816 3084 2150 3084 
Q 2853 3084 3261 2657 
Q 3669 2231 3669 1497 
Q 3669 778 3244 343 
Q 2819 -91 2113 -91 
Q 1303 -91 875 529 
Q 447 1150 447 2328 
Q 447 3434 972 4092 
Q 1497 4750 2381 4750 
Q 2619 4750 2861 4703 
Q 3103 4656 3366 4563 
z
" transform="scale(0.015625)"/>
       </defs>
       <use xlink:href="#DejaVuSans-36"/>
      </g>
     </g>
    </g>
    <g id="xtick_8">
     <g id="line2d_9">
      <g>
       <use xlink:href="#md31bac79a0" x="614.660377" y="192.24" style="stroke: #000000; stroke-width: 0.8"/>
      </g>
     </g>
     <g id="text_8">
      <!-- 7 -->
      <g transform="translate(611.479127 206.838437) scale(0.1 -0.1)">
       <defs>
        <path id="DejaVuSans-37" d="M 525 4666 
L 3525 4666 
L 3525 4397 
L 1831 0 
L 1172 0 
L 2766 4134 
L 525 4134 
L 525 4666 
z
" transform="scale(0.015625)"/>
       </defs>
       <use xlink:href="#DejaVuSans-37"/>
      </g>
     </g>
    </g>
   </g>
   <g id="matplotlib.axis_2">
    <g id="ytick_1">
     <g id="line2d_10">
      <defs>
       <path id="med59b98f20" d="M 0 0 
L -3.5 0 
" style="stroke: #000000; stroke-width: 0.8"/>
      </defs>
      <g>
       <use xlink:href="#med59b98f20" x="90" y="192.24" style="stroke: #000000; stroke-width: 0.8"/>
      </g>
     </g>
     <g id="text_9">
      <!-- 0.00 -->
      <g transform="translate(60.734375 196.039219) scale(0.1 -0.1)">
       <defs>
        <path id="DejaVuSans-2e" d="M 684 794 
L 1344 794 
L 1344 0 
L 684 0 
L 684 794 
z
" transform="scale(0.015625)"/>
       </defs>
       <use xlink:href="#DejaVuSans-30"/>
       <use xlink:href="#DejaVuSans-2e" x="63.623047"/>
       <use xlink:href="#DejaVuSans-30" x="95.410156"/>
       <use xlink:href="#DejaVuSans-30" x="159.033203"/>
      </g>
     </g>
    </g>
    <g id="ytick_2">
     <g id="line2d_11">
      <g>
       <use xlink:href="#med59b98f20" x="90" y="171.150596" style="stroke: #000000; stroke-width: 0.8"/>
      </g>
     </g>
     <g id="text_10">
      <!-- 0.25 -->
      <g transform="translate(60.734375 174.949815) scale(0.1 -0.1)">
       <use xlink:href="#DejaVuSans-30"/>
       <use xlink:href="#DejaVuSans-2e" x="63.623047"/>
       <use xlink:href="#DejaVuSans-32" x="95.410156"/>
       <use xlink:href="#DejaVuSans-35" x="159.033203"/>
      </g>
     </g>
    </g>
    <g id="ytick_3">
     <g id="line2d_12">
      <g>
       <use xlink:href="#med59b98f20" x="90" y="150.061193" style="stroke: #000000; stroke-width: 0.8"/>
      </g>
     </g>
     <g id="text_11">
      <!-- 0.50 -->
      <g transform="translate(60.734375 153.860412) scale(0.1 -0.1)">
       <use xlink:href="#DejaVuSans-30"/>
       <use xlink:href="#DejaVuSans-2e" x="63.623047"/>
       <use xlink:href="#DejaVuSans-35" x="95.410156"/>
       <use xlink:href="#DejaVuSans-30" x="159.033203"/>
      </g>
     </g>
    </g>
    <g id="ytick_4">
     <g id="line2d_13">
      <g>
       <use xlink:href="#med59b98f20" x="90" y="128.971789" style="stroke: #000000; stroke-width: 0.8"/>
      </g>
     </g>
     <g id="text_12">
      <!-- 0.75 -->
      <g transform="translate(60.734375 132.771008) scale(0.1 -0.1)">
       <use xlink:href="#DejaVuSans-30"/>
       <use xlink:href="#DejaVuSans-2e" x="63.623047"/>
       <use xlink:href="#DejaVuSans-37" x="95.410156"/>
       <use xlink:href="#DejaVuSans-35" x="159.033203"/>
      </g>
     </g>
    </g>
    <g id="ytick_5">
     <g id="line2d_14">
      <g>
       <use xlink:href="#med59b98f20" x="90" y="107.882386" style="stroke: #000000; stroke-width: 0.8"/>
      </g>
     </g>
     <g id="text_13">
      <!-- 1.00 -->
      <g transform="translate(60.734375 111.681604) scale(0.1 -0.1)">
       <use xlink:href="#DejaVuSans-31"/>
       <use xlink:href="#DejaVuSans-2e" x="63.623047"/>
       <use xlink:href="#DejaVuSans-30" x="95.410156"/>
       <use xlink:href="#DejaVuSans-30" x="159.033203"/>
      </g>
     </g>
    </g>
    <g id="ytick_6">
     <g id="line2d_15">
      <g>
       <use xlink:href="#med59b98f20" x="90" y="86.792982" style="stroke: #000000; stroke-width: 0.8"/>
      </g>
     </g>
     <g id="text_14">
      <!-- 1.25 -->
      <g transform="translate(60.734375 90.592201) scale(0.1 -0.1)">
       <use xlink:href="#DejaVuSans-31"/>
       <use xlink:href="#DejaVuSans-2e" x="63.623047"/>
       <use xlink:href="#DejaVuSans-32" x="95.410156"/>
       <use xlink:href="#DejaVuSans-35" x="159.033203"/>
      </g>
     </g>
    </g>
    <g id="ytick_7">
     <g id="line2d_16">
      <g>
       <use xlink:href="#med59b98f20" x="90" y="65.703579" style="stroke: #000000; stroke-width: 0.8"/>
      </g>
     </g>
     <g id="text_15">
      <!-- 1.50 -->
      <g transform="translate(60.734375 69.502797) scale(0.1 -0.1)">
       <use xlink:href="#DejaVuSans-31"/>
       <use xlink:href="#DejaVuSans-2e" x="63.623047"/>
       <use xlink:href="#DejaVuSans-35" x="95.410156"/>
       <use xlink:href="#DejaVuSans-30" x="159.033203"/>
      </g>
     </g>
    </g>
    <g id="ytick_8">
     <g id="line2d_17">
      <g>
       <use xlink:href="#med59b98f20" x="90" y="44.614175" style="stroke: #000000; stroke-width: 0.8"/>
      </g>
     </g>
     <g id="text_16">
      <!-- 1.75 -->
      <g transform="translate(60.734375 48.413394) scale(0.1 -0.1)">
       <use xlink:href="#DejaVuSans-31"/>
       <use xlink:href="#DejaVuSans-2e" x="63.623047"/>
       <use xlink:href="#DejaVuSans-37" x="95.410156"/>
       <use xlink:href="#DejaVuSans-35" x="159.033203"/>
      </g>
     </g>
    </g>
   </g>
  </g>
 </g>
 <defs>
  <clipPath id="p3d4b23a77b">
   <rect x="90" y="25.92" width="558" height="166.32"/>
  </clipPath>
 </defs>
</svg>
