<?xml version="1.0" encoding="utf-8" standalone="no"?>
<!DOCTYPE svg PUBLIC "-//W3C//DTD SVG 1.1//EN"
  "http://www.w3.org/Graphics/SVG/1.1/DTD/svg11.dtd">
<svg xmlns:xlink="http://www.w3.org/1999/xlink" width="720pt" height="216pt" viewBox="0 0 720 216" xmlns="http://www.w3.org/2000/svg" version="1.1">
 <metadata>
  <rdf:RDF xmlns:dc="http://purl.org/dc/elements/1.1/" xmlns:cc="http://creativecommons.org/ns#" xmlns:rdf="http://www.w3.org/1999/02/22-rdf-syntax-ns#">
   <cc:Work>
    <dc:type rdf:resource="http://purl.org/dc/dcmitype/StillImage"/>
    <dc:date>2025-12-17T10:28:35.766147</dc:date>
    <dc:format>image/svg+xml</dc:format>
    <dc:creator>
     <cc:Agent>
      <dc:title>Matplotlib v3.8.2, https://matplotlib.org/</dc:title>
     </cc:Agent>
    </dc:creator>
   </cc:Work>
  </rdf:RDF>
 </metadata>
 <defs>
  <style type="text/css">*{stroke-linejoin: round; stroke-linecap: butt}</style>
 </defs>
 <g id="figure_1">
  <g id="patch_1">
   <path d="M 0 216 
L 720 216 
L 720 0 
L 0 0 
z
" style="fill: #ffffff"/>
  </g>
  <g id="axes_1">
   <g id="patch_2">
    <path d="M 90 192.24 
L 648 192.24 
L 648 25.92 
L 90 25.92 
z
" style="fill: #ffffff"/>
   </g>
   <g id="line2d_1">
    <path d="M 90 192.24 
L 648 192.24 
" clip-path="url(#p870819de4c)" style="fill: none; stroke: #000000; stroke-width: 0.5; stroke-linecap: square"/>
   </g>
   <g id="patch_3">
    <path d="M 125.458194 192.086331 
Q 122.492177 192.162501 119.284948 192.201029 
Q 116.077719 192.24 112.584609 192.24 
Q 102.167816 192.24 96.083908 191.951261 
Q 90 191.662523 90 191.168744 
Q 90 190.673194 96.083908 190.384898 
Q 102.167816 190.096159 112.584609 190.096159 
Q 116.077719 190.096159 119.284948 190.13513 
Q 122.492177 190.173658 125.458194 190.249829 
L 125.458194 190.67718 
Q 122.465376 190.57621 119.561896 190.529267 
Q 116.658415 190.482325 113.451186 190.482325 
Q 107.697829 190.482325 104.401262 190.665223 
Q 101.113629 190.847677 101.113629 191.168744 
Q 101.113629 191.488482 104.401262 191.67138 
Q 107.697829 191.853834 113.451186 191.853834 
Q 116.658415 191.853834 119.561896 191.806892 
Q 122.465376 191.759507 125.458194 191.658537 
L 125.458194 192.086331 
z
" clip-path="url(#p870819de4c)" style="fill: #0000ff"/>
   </g>
   <g id="patch_4">
    <path d="M 125.458194 189.854689 
Q 121.882177 189.975424 118.035972 190.036068 
Q 114.189767 190.096159 110.089268 190.096159 
Q 100.823411 190.096159 95.411706 189.736711 
Q 90 189.377262 90 188.76256 
Q 90 188.140692 95.507066 187.783999 
Q 101.022079 187.427307 110.613751 187.427307 
Q 114.308968 187.427307 117.694264 187.475821 
Q 121.087507 187.523785 124.091361 187.618609 
L 124.091361 188.150615 
Q 120.992146 188.028777 117.924718 187.968685 
Q 114.857291 187.908042 111.773969 187.908042 
Q 106.068236 187.908042 102.976968 188.129665 
Q 99.8857 188.350738 99.8857 188.76256 
Q 99.8857 189.170524 102.865714 189.393249 
Q 105.845728 189.615424 111.328954 189.615424 
Q 112.822934 189.615424 114.102354 189.602744 
Q 115.381773 189.589513 116.398951 189.561948 
L 116.398951 189.062468 
L 110.558124 189.062468 
L 110.558124 188.617568 
L 125.458194 188.617568 
L 125.458194 189.854689 
z
" clip-path="url(#p870819de4c)" style="fill: #ffa600"/>
   </g>
   <g id="patch_5">
    <path d="M 90 177.276882 
L 125.458194 177.276882 
L 125.458194 179.256498 
L 112.70149 179.256498 
L 112.70149 187.427307 
L 102.781442 187.427307 
L 102.781442 179.256498 
L 90 179.256498 
L 90 177.276882 
z
" clip-path="url(#p870819de4c)" style="fill: #ff0000"/>
   </g>
   <g id="patch_6">
    <path d="M 114.561922 175.228536 
L 100.925271 175.228536 
L 98.772115 177.276882 
L 90 177.276882 
L 102.52745 166.032667 
L 112.930744 166.032667 
L 125.458194 177.276882 
L 116.693329 177.276882 
L 114.561922 175.228536 
z
M 103.100175 173.141633 
L 112.365269 173.141633 
L 107.739972 168.669009 
L 103.100175 173.141633 
z
" clip-path="url(#p870819de4c)" style="fill: #008000"/>
   </g>
   <g id="patch_7">
    <path d="M 162.782609 192.066386 
Q 159.816592 192.152442 156.609363 192.195971 
Q 153.402134 192.24 149.909024 192.24 
Q 139.49223 192.24 133.408323 191.913786 
Q 127.324415 191.587571 127.324415 191.029705 
Q 127.324415 190.469837 133.408323 190.144123 
Q 139.49223 189.817909 149.909024 189.817909 
Q 153.402134 189.817909 156.609363 189.861938 
Q 159.816592 189.905466 162.782609 189.991523 
L 162.782609 190.47434 
Q 159.789791 190.360265 156.88631 190.30723 
Q 153.98283 190.254195 150.775601 190.254195 
Q 145.022243 190.254195 141.725677 190.460831 
Q 138.438044 190.666967 138.438044 191.029705 
Q 138.438044 191.390942 141.725677 191.597578 
Q 145.022243 191.803713 150.775601 191.803713 
Q 153.98283 191.803713 156.88631 191.750679 
Q 159.789791 191.697143 162.782609 191.583068 
L 162.782609 192.066386 
z
" clip-path="url(#p870819de4c)" style="fill: #0000ff"/>
   </g>
   <g id="patch_8">
    <path d="M 162.782609 189.55112 
Q 159.206592 189.684514 155.360387 189.751516 
Q 151.514182 189.817909 147.413683 189.817909 
Q 138.147826 189.817909 132.73612 189.420771 
Q 127.324415 189.023634 127.324415 188.34448 
Q 127.324415 187.657408 132.831481 187.263316 
Q 138.346493 186.869224 147.938165 186.869224 
Q 151.633383 186.869224 155.018679 186.922825 
Q 158.411921 186.975818 161.415776 187.080584 
L 161.415776 187.668372 
Q 158.316561 187.533759 155.249133 187.467367 
Q 152.181705 187.400365 149.098384 187.400365 
Q 143.392651 187.400365 140.301383 187.645226 
Q 137.210115 187.889477 137.210115 188.34448 
Q 137.210115 188.795219 140.190129 189.041298 
Q 143.170143 189.286768 148.653369 189.286768 
Q 150.147349 189.286768 151.426768 189.272758 
Q 152.706188 189.25814 153.723366 189.227685 
L 153.723366 188.675834 
L 147.882538 188.675834 
L 147.882538 188.184285 
L 162.782609 188.184285 
L 162.782609 189.55112 
z
" clip-path="url(#p870819de4c)" style="fill: #ffa600"/>
   </g>
   <g id="patch_9">
    <path d="M 151.886337 184.279371 
L 138.249685 184.279371 
L 136.09653 186.869224 
L 127.324415 186.869224 
L 139.851865 172.652456 
L 150.255158 172.652456 
L 162.782609 186.869224 
L 154.017743 186.869224 
L 151.886337 184.279371 
z
M 140.42459 181.640769 
L 149.689683 181.640769 
L 145.064386 175.985749 
L 140.42459 181.640769 
z
" clip-path="url(#p870819de4c)" style="fill: #008000"/>
   </g>
   <g id="patch_10">
    <path d="M 127.324415 129.159781 
L 162.782609 129.159781 
L 162.782609 137.642064 
L 150.025905 137.642064 
L 150.025905 172.652456 
L 140.105857 172.652456 
L 140.105857 137.642064 
L 127.324415 137.642064 
L 127.324415 129.159781 
z
" clip-path="url(#p870819de4c)" style="fill: #ff0000"/>
   </g>
   <g id="patch_11">
    <path d="M 200.107023 192.225385 
Q 196.531007 192.232693 192.684802 192.236363 
Q 188.838597 192.24 184.738098 192.24 
Q 175.472241 192.24 170.060535 192.218244 
Q 164.648829 192.196489 164.648829 192.159284 
Q 164.648829 192.121645 170.155895 192.100056 
Q 175.670908 192.078468 185.26258 192.078468 
Q 188.957797 192.078468 192.343093 192.081404 
Q 195.736336 192.084307 198.74019 192.090046 
L 198.74019 192.122246 
Q 195.640976 192.114872 192.573548 192.111235 
Q 189.50612 192.107564 186.422799 192.107564 
Q 180.717065 192.107564 177.625797 192.120978 
Q 174.534529 192.134358 174.534529 192.159284 
Q 174.534529 192.183976 177.514543 192.197456 
Q 180.494558 192.210903 185.977783 192.210903 
Q 187.471764 192.210903 188.751183 192.210136 
Q 190.030603 192.209335 191.047781 192.207667 
L 191.047781 192.177436 
L 185.206953 192.177436 
L 185.206953 192.150508 
L 200.107023 192.150508 
L 200.107023 192.225385 
z
" clip-path="url(#p870819de4c)" style="fill: #ffa600"/>
   </g>
   <g id="patch_12">
    <path d="M 200.107023 191.603622 
Q 197.141007 191.838992 193.933778 191.958046 
Q 190.726549 192.078468 187.233439 192.078468 
Q 176.816645 192.078468 170.732737 191.186251 
Q 164.648829 190.294034 164.648829 188.768234 
Q 164.648829 187.23696 170.732737 186.346112 
Q 176.816645 185.453896 187.233439 185.453896 
Q 190.726549 185.453896 193.933778 185.574317 
Q 197.141007 185.693371 200.107023 185.928741 
L 200.107023 187.249276 
Q 197.114205 186.937274 194.210725 186.792221 
Q 191.307245 186.647167 188.100016 186.647167 
Q 182.346658 186.647167 179.050091 187.212329 
Q 175.762458 187.776122 175.762458 188.768234 
Q 175.762458 189.756241 179.050091 190.321403 
Q 182.346658 190.885196 188.100016 190.885196 
Q 191.307245 190.885196 194.210725 190.740143 
Q 197.114205 190.59372 200.107023 190.281718 
L 200.107023 191.603622 
z
" clip-path="url(#p870819de4c)" style="fill: #0000ff"/>
   </g>
   <g id="patch_13">
    <path d="M 189.210752 183.687848 
L 175.5741 183.687848 
L 173.420944 185.453896 
L 164.648829 185.453896 
L 177.17628 175.759336 
L 187.579573 175.759336 
L 200.107023 185.453896 
L 191.342158 185.453896 
L 189.210752 183.687848 
z
M 177.749005 181.888558 
L 187.014098 181.888558 
L 182.388801 178.032343 
L 177.749005 181.888558 
z
" clip-path="url(#p870819de4c)" style="fill: #008000"/>
   </g>
   <g id="patch_14">
    <path d="M 164.648829 95.456132 
L 200.107023 95.456132 
L 200.107023 111.117494 
L 187.35032 111.117494 
L 187.35032 175.759336 
L 177.430271 175.759336 
L 177.430271 111.117494 
L 164.648829 111.117494 
L 164.648829 95.456132 
z
" clip-path="url(#p870819de4c)" style="fill: #ff0000"/>
   </g>
   <g id="patch_15">
    <path d="M 237.431438 192.017585 
Q 233.855421 192.128793 230.009216 192.18465 
Q 226.163012 192.24 222.062512 192.24 
Q 212.796655 192.24 207.38495 191.908917 
Q 201.973244 191.577833 201.973244 191.01164 
Q 201.973244 190.438846 207.48031 190.110301 
Q 212.995323 189.781757 222.586995 189.781757 
Q 226.282212 189.781757 229.667508 189.826443 
Q 233.060751 189.870621 236.064605 189.957962 
L 236.064605 190.447986 
Q 232.96539 190.335763 229.897963 190.280413 
Q 226.830535 190.224556 223.747214 190.224556 
Q 218.04148 190.224556 214.950212 190.42869 
Q 211.858944 190.632316 211.858944 191.01164 
Q 211.858944 191.38741 214.838958 191.592559 
Q 217.818972 191.797201 223.302198 191.797201 
Q 224.796179 191.797201 226.075598 191.785522 
Q 227.355017 191.773335 228.372195 191.747945 
L 228.372195 191.287882 
L 222.531368 191.287882 
L 222.531368 190.87809 
L 237.431438 190.87809 
L 237.431438 192.017585 
z
" clip-path="url(#p870819de4c)" style="fill: #ffa600"/>
   </g>
   <g id="patch_16">
    <path d="M 226.535166 189.19195 
L 212.898515 189.19195 
L 210.745359 189.781757 
L 201.973244 189.781757 
L 214.500694 186.544061 
L 224.903988 186.544061 
L 237.431438 189.781757 
L 228.666573 189.781757 
L 226.535166 189.19195 
z
M 215.073419 188.59104 
L 224.338513 188.59104 
L 219.713216 187.303178 
L 215.073419 188.59104 
z
" clip-path="url(#p870819de4c)" style="fill: #008000"/>
   </g>
   <g id="patch_17">
    <path d="M 237.431438 185.800555 
Q 234.465421 186.169094 231.258192 186.355506 
Q 228.050964 186.544061 224.557853 186.544061 
Q 214.14106 186.544061 208.057152 185.147041 
Q 201.973244 183.750021 201.973244 181.360945 
Q 201.973244 178.963299 208.057152 177.568421 
Q 214.14106 176.171401 224.557853 176.171401 
Q 228.050964 176.171401 231.258192 176.359956 
Q 234.465421 176.546368 237.431438 176.914907 
L 237.431438 178.982583 
Q 234.43862 178.494054 231.53514 178.266931 
Q 228.63166 178.039809 225.424431 178.039809 
Q 219.671073 178.039809 216.374506 178.924731 
Q 213.086873 179.80751 213.086873 181.360945 
Q 213.086873 182.907952 216.374506 183.792874 
Q 219.671073 184.675654 225.424431 184.675654 
Q 228.63166 184.675654 231.53514 184.448531 
Q 234.43862 184.219265 237.431438 183.730737 
L 237.431438 185.800555 
z
" clip-path="url(#p870819de4c)" style="fill: #0000ff"/>
   </g>
   <g id="patch_18">
    <path d="M 201.973244 156.325454 
L 237.431438 156.325454 
L 237.431438 160.195967 
L 224.674734 160.195967 
L 224.674734 176.171401 
L 214.754686 176.171401 
L 214.754686 160.195967 
L 201.973244 160.195967 
L 201.973244 156.325454 
z
" clip-path="url(#p870819de4c)" style="fill: #ff0000"/>
   </g>
   <g id="patch_19">
    <path d="M 239.297659 190.223406 
L 274.755853 190.223406 
L 274.755853 190.616698 
L 261.999149 190.616698 
L 261.999149 192.24 
L 252.079101 192.24 
L 252.079101 190.616698 
L 239.297659 190.616698 
L 239.297659 190.223406 
z
" clip-path="url(#p870819de4c)" style="fill: #ff0000"/>
   </g>
   <g id="patch_20">
    <path d="M 274.755853 189.936307 
Q 271.179836 190.079857 267.333631 190.151959 
Q 263.487426 190.223406 259.386927 190.223406 
Q 250.12107 190.223406 244.709364 189.796036 
Q 239.297659 189.368666 239.297659 188.637811 
Q 239.297659 187.898434 244.804725 187.474342 
Q 250.319738 187.050249 259.911409 187.050249 
Q 263.606627 187.050249 266.991923 187.107931 
Q 270.385166 187.164957 273.38902 187.277699 
L 273.38902 187.910233 
Q 270.289805 187.765373 267.222377 187.693926 
Q 264.154949 187.621824 261.071628 187.621824 
Q 255.365895 187.621824 252.274627 187.885325 
Q 249.183359 188.14817 249.183359 188.637811 
Q 249.183359 189.122862 252.163373 189.387674 
Q 255.143387 189.651831 260.626613 189.651831 
Q 262.120593 189.651831 263.400013 189.636755 
Q 264.679432 189.621024 265.69661 189.58825 
L 265.69661 188.994389 
L 259.855783 188.994389 
L 259.855783 188.46542 
L 274.755853 188.46542 
L 274.755853 189.936307 
z
" clip-path="url(#p870819de4c)" style="fill: #ffa600"/>
   </g>
   <g id="patch_21">
    <path d="M 274.755853 186.769657 
Q 271.789836 186.90874 268.582607 186.97909 
Q 265.375378 187.050249 261.882268 187.050249 
Q 251.465474 187.050249 245.381567 186.523027 
Q 239.297659 185.995804 239.297659 185.09419 
Q 239.297659 184.18934 245.381567 183.662927 
Q 251.465474 183.135704 261.882268 183.135704 
Q 265.375378 183.135704 268.582607 183.206863 
Q 271.789836 183.277213 274.755853 183.416297 
L 274.755853 184.196618 
Q 271.763035 184.012252 268.859555 183.926538 
Q 265.956074 183.840824 262.748845 183.840824 
Q 256.995488 183.840824 253.698921 184.174785 
Q 250.411288 184.507938 250.411288 185.09419 
Q 250.411288 185.678015 253.698921 186.011977 
Q 256.995488 186.34513 262.748845 186.34513 
Q 265.956074 186.34513 268.859555 186.259416 
Q 271.763035 186.172893 274.755853 185.988527 
L 274.755853 186.769657 
z
" clip-path="url(#p870819de4c)" style="fill: #0000ff"/>
   </g>
   <g id="patch_22">
    <path d="M 263.859581 181.558221 
L 250.222929 181.558221 
L 248.069774 183.135704 
L 239.297659 183.135704 
L 251.825109 174.476248 
L 262.228403 174.476248 
L 274.755853 183.135704 
L 265.990987 183.135704 
L 263.859581 181.558221 
z
M 252.397834 179.951044 
L 261.662927 179.951044 
L 257.03763 176.506562 
L 252.397834 179.951044 
z
" clip-path="url(#p870819de4c)" style="fill: #008000"/>
   </g>
   <g id="patch_23">
    <path d="M 312.080268 192.146804 
Q 309.114251 192.192999 305.907022 192.216365 
Q 302.699793 192.24 299.206683 192.24 
Q 288.789889 192.24 282.705981 192.064888 
Q 276.622074 191.889776 276.622074 191.590314 
Q 276.622074 191.289777 282.705981 191.114934 
Q 288.789889 190.939822 299.206683 190.939822 
Q 302.699793 190.939822 305.907022 190.963457 
Q 309.114251 190.986823 312.080268 191.033018 
L 312.080268 191.292194 
Q 309.087449 191.230959 306.183969 191.20249 
Q 303.280489 191.174021 300.07326 191.174021 
Q 294.319902 191.174021 291.023336 191.284943 
Q 287.735703 191.395596 287.735703 191.590314 
Q 287.735703 191.784226 291.023336 191.895148 
Q 294.319902 192.005801 300.07326 192.005801 
Q 303.280489 192.005801 306.183969 191.977332 
Q 309.087449 191.948595 312.080268 191.887359 
L 312.080268 192.146804 
z
" clip-path="url(#p870819de4c)" style="fill: #0000ff"/>
   </g>
   <g id="patch_24">
    <path d="M 276.622074 189.206251 
L 312.080268 189.206251 
L 312.080268 189.544346 
L 299.323564 189.544346 
L 299.323564 190.939822 
L 289.403516 190.939822 
L 289.403516 189.544346 
L 276.622074 189.544346 
L 276.622074 189.206251 
z
" clip-path="url(#p870819de4c)" style="fill: #ff0000"/>
   </g>
   <g id="patch_25">
    <path d="M 312.080268 188.696505 
Q 308.504251 188.951378 304.658046 189.079397 
Q 300.811841 189.206251 296.711342 189.206251 
Q 287.445485 189.206251 282.033779 188.447451 
Q 276.622074 187.688651 276.622074 186.391009 
Q 276.622074 185.078239 282.12914 184.325257 
Q 287.644152 183.572276 297.235824 183.572276 
Q 300.931042 183.572276 304.316338 183.674691 
Q 307.70958 183.775942 310.713434 183.976116 
L 310.713434 185.099187 
Q 307.61422 184.841986 304.546792 184.715132 
Q 301.479364 184.587113 298.396043 184.587113 
Q 292.690309 184.587113 289.599041 185.054962 
Q 286.507774 185.521648 286.507774 186.391009 
Q 286.507774 187.252224 289.487788 187.722401 
Q 292.467802 188.191414 297.951028 188.191414 
Q 299.445008 188.191414 300.724427 188.164647 
Q 302.003847 188.136715 303.021025 188.078525 
L 303.021025 187.024119 
L 297.180197 187.024119 
L 297.180197 186.084929 
L 312.080268 186.084929 
L 312.080268 188.696505 
z
" clip-path="url(#p870819de4c)" style="fill: #ffa600"/>
   </g>
   <g id="patch_26">
    <path d="M 301.183996 161.506241 
L 287.547344 161.506241 
L 285.394189 183.572276 
L 276.622074 183.572276 
L 289.149524 62.442721 
L 299.552817 62.442721 
L 312.080268 183.572276 
L 303.315402 183.572276 
L 301.183996 161.506241 
z
M 289.722249 139.024844 
L 298.987342 139.024844 
L 294.362045 90.843007 
L 289.722249 139.024844 
z
" clip-path="url(#p870819de4c)" style="fill: #008000"/>
   </g>
   <g id="patch_27">
    <path d="M 349.404682 192.220694 
Q 345.828665 192.230347 341.982461 192.235195 
Q 338.136256 192.24 334.035756 192.24 
Q 324.769899 192.24 319.358194 192.211261 
Q 313.946488 192.182522 313.946488 192.133375 
Q 313.946488 192.083655 319.453554 192.055136 
Q 324.968567 192.026618 334.560239 192.026618 
Q 338.255456 192.026618 341.640752 192.030496 
Q 345.033995 192.034331 348.037849 192.041913 
L 348.037849 192.084448 
Q 344.938635 192.074707 341.871207 192.069902 
Q 338.803779 192.065054 335.720458 192.065054 
Q 330.014724 192.065054 326.923456 192.082773 
Q 323.832188 192.100449 323.832188 192.133375 
Q 323.832188 192.165993 326.812202 192.1838 
Q 329.792216 192.201564 335.275442 192.201564 
Q 336.769423 192.201564 338.048842 192.20055 
Q 339.328261 192.199492 340.34544 192.197288 
L 340.34544 192.157353 
L 334.504612 192.157353 
L 334.504612 192.121782 
L 349.404682 192.121782 
L 349.404682 192.220694 
z
" clip-path="url(#p870819de4c)" style="fill: #ffa600"/>
   </g>
   <g id="patch_28">
    <path d="M 349.404682 191.812431 
Q 346.438666 191.918598 343.231437 191.972299 
Q 340.024208 192.026618 336.531098 192.026618 
Q 326.114304 192.026618 320.030396 191.624169 
Q 313.946488 191.22172 313.946488 190.533483 
Q 313.946488 189.842777 320.030396 189.440946 
Q 326.114304 189.038497 336.531098 189.038497 
Q 340.024208 189.038497 343.231437 189.092815 
Q 346.438666 189.146516 349.404682 189.252684 
L 349.404682 189.848333 
Q 346.411864 189.707599 343.508384 189.64217 
Q 340.604904 189.576741 337.397675 189.576741 
Q 331.644317 189.576741 328.34775 189.831667 
Q 325.060117 190.085975 325.060117 190.533483 
Q 325.060117 190.97914 328.34775 191.234065 
Q 331.644317 191.488373 337.397675 191.488373 
Q 340.604904 191.488373 343.508384 191.422944 
Q 346.411864 191.356898 349.404682 191.216165 
L 349.404682 191.812431 
z
" clip-path="url(#p870819de4c)" style="fill: #0000ff"/>
   </g>
   <g id="patch_29">
    <path d="M 313.946488 182.635363 
L 349.404682 182.635363 
L 349.404682 183.884152 
L 336.647979 183.884152 
L 336.647979 189.038497 
L 326.72793 189.038497 
L 326.72793 183.884152 
L 313.946488 183.884152 
L 313.946488 182.635363 
z
" clip-path="url(#p870819de4c)" style="fill: #ff0000"/>
   </g>
   <g id="patch_30">
    <path d="M 338.50841 161.094679 
L 324.871759 161.094679 
L 322.718603 182.635363 
L 313.946488 182.635363 
L 326.473939 64.38968 
L 336.877232 64.38968 
L 349.404682 182.635363 
L 340.639817 182.635363 
L 338.50841 161.094679 
z
M 327.046663 139.148524 
L 336.311757 139.148524 
L 331.68646 92.113807 
L 327.046663 139.148524 
z
" clip-path="url(#p870819de4c)" style="fill: #008000"/>
   </g>
   <g id="patch_31">
    <path d="M 386.729097 192.008013 
Q 383.15308 192.124007 379.306875 192.182268 
Q 375.46067 192.24 371.360171 192.24 
Q 362.094314 192.24 356.682609 191.894668 
Q 351.270903 191.549337 351.270903 190.958778 
Q 351.270903 190.361333 356.777969 190.018649 
Q 362.292982 189.675966 371.884654 189.675966 
Q 375.579871 189.675966 378.965167 189.722575 
Q 382.35841 189.768655 385.362264 189.859755 
L 385.362264 190.370866 
Q 382.263049 190.253814 379.195621 190.196082 
Q 376.128194 190.137821 373.044872 190.137821 
Q 367.339139 190.137821 364.247871 190.35074 
Q 361.156603 190.563129 361.156603 190.958778 
Q 361.156603 191.350718 364.136617 191.564697 
Q 367.116631 191.778146 372.599857 191.778146 
Q 374.093837 191.778146 375.373257 191.765964 
Q 376.652676 191.753252 377.669854 191.726769 
L 377.669854 191.246907 
L 371.829027 191.246907 
L 371.829027 190.81948 
L 386.729097 190.81948 
L 386.729097 192.008013 
z
" clip-path="url(#p870819de4c)" style="fill: #ffa600"/>
   </g>
   <g id="patch_32">
    <path d="M 351.270903 176.672479 
L 386.729097 176.672479 
L 386.729097 179.208521 
L 373.972393 179.208521 
L 373.972393 189.675966 
L 364.052345 189.675966 
L 364.052345 179.208521 
L 351.270903 179.208521 
L 351.270903 176.672479 
z
" clip-path="url(#p870819de4c)" style="fill: #ff0000"/>
   </g>
   <g id="patch_33">
    <path d="M 375.832825 159.523492 
L 362.196174 159.523492 
L 360.043018 176.672479 
L 351.270903 176.672479 
L 363.798353 82.53463 
L 374.201647 82.53463 
L 386.729097 176.672479 
L 377.964232 176.672479 
L 375.832825 159.523492 
z
M 364.371078 142.051701 
L 373.636172 142.051701 
L 369.010875 104.606385 
L 364.371078 142.051701 
z
" clip-path="url(#p870819de4c)" style="fill: #008000"/>
   </g>
   <g id="patch_34">
    <path d="M 424.053512 192.222408 
Q 421.087495 192.231128 417.880266 192.235539 
Q 414.673037 192.24 411.179927 192.24 
Q 400.763133 192.24 394.679226 192.206944 
Q 388.595318 192.173889 388.595318 192.11736 
Q 388.595318 192.060628 394.679226 192.027623 
Q 400.763133 191.994568 411.179927 191.994568 
Q 414.673037 191.994568 417.880266 191.999029 
Q 421.087495 192.00344 424.053512 192.01216 
L 424.053512 192.061084 
Q 421.060694 192.049525 418.157213 192.044151 
Q 415.253733 192.038777 412.046504 192.038777 
Q 406.293146 192.038777 402.99658 192.059716 
Q 399.708947 192.080603 399.708947 192.11736 
Q 399.708947 192.153964 402.99658 192.174903 
Q 406.293146 192.195791 412.046504 192.195791 
Q 415.253733 192.195791 418.157213 192.190417 
Q 421.060694 192.184992 424.053512 192.173433 
L 424.053512 192.222408 
z
" clip-path="url(#p870819de4c)" style="fill: #0000ff"/>
   </g>
   <g id="patch_35">
    <path d="M 424.053512 191.839086 
Q 420.477495 191.916827 416.63129 191.955875 
Q 412.785085 191.994568 408.684586 191.994568 
Q 399.418729 191.994568 394.007023 191.76312 
Q 388.595318 191.531671 388.595318 191.135867 
Q 388.595318 190.735447 394.102384 190.505774 
Q 399.617396 190.276101 409.209068 190.276101 
Q 412.904286 190.276101 416.289582 190.307339 
Q 419.682824 190.338222 422.686679 190.399279 
L 422.686679 190.741837 
Q 419.587464 190.663386 416.520036 190.624693 
Q 413.452608 190.585645 410.369287 190.585645 
Q 404.663554 190.585645 401.572286 190.728347 
Q 398.481018 190.870695 398.481018 191.135867 
Q 398.481018 191.398553 401.461032 191.541966 
Q 404.441046 191.685024 409.924272 191.685024 
Q 411.418252 191.685024 412.697671 191.676859 
Q 413.977091 191.668339 414.994269 191.65059 
L 414.994269 191.328977 
L 409.153441 191.328977 
L 409.153441 191.042506 
L 424.053512 191.042506 
L 424.053512 191.839086 
z
" clip-path="url(#p870819de4c)" style="fill: #ffa600"/>
   </g>
   <g id="patch_36">
    <path d="M 413.15724 189.828892 
L 399.520588 189.828892 
L 397.367433 190.276101 
L 388.595318 190.276101 
L 401.122768 187.82119 
L 411.526061 187.82119 
L 424.053512 190.276101 
L 415.288646 190.276101 
L 413.15724 189.828892 
z
M 401.695493 189.373266 
L 410.960586 189.373266 
L 406.335289 188.396773 
L 401.695493 189.373266 
z
" clip-path="url(#p870819de4c)" style="fill: #008000"/>
   </g>
   <g id="patch_37">
    <path d="M 388.595318 45.186655 
L 424.053512 45.186655 
L 424.053512 73.004363 
L 411.296808 73.004363 
L 411.296808 187.82119 
L 401.37676 187.82119 
L 401.37676 73.004363 
L 388.595318 73.004363 
L 388.595318 45.186655 
z
" clip-path="url(#p870819de4c)" style="fill: #ff0000"/>
   </g>
   <g id="patch_38">
    <path d="M 425.919732 25.92 
L 461.377926 25.92 
L 461.377926 58.357034 
L 448.621223 58.357034 
L 448.621223 192.24 
L 438.701174 192.24 
L 438.701174 58.357034 
L 425.919732 58.357034 
L 425.919732 25.92 
z
" clip-path="url(#p870819de4c)" style="fill: #ff0000"/>
   </g>
   <g id="patch_39">
    <path d="M 463.244147 153.120956 
L 498.702341 153.120956 
L 498.702341 160.750259 
L 485.945637 160.750259 
L 485.945637 192.24 
L 476.025589 192.24 
L 476.025589 160.750259 
L 463.244147 160.750259 
L 463.244147 153.120956 
z
" clip-path="url(#p870819de4c)" style="fill: #ff0000"/>
   </g>
   <g id="patch_40">
    <path d="M 498.702341 149.947709 
Q 495.736324 151.520615 492.529095 152.316213 
Q 489.321867 153.120956 485.828756 153.120956 
Q 475.411963 153.120956 469.328055 147.158545 
Q 463.244147 141.196134 463.244147 130.99968 
Q 463.244147 120.766647 469.328055 114.813382 
Q 475.411963 108.850971 485.828756 108.850971 
Q 489.321867 108.850971 492.529095 109.655713 
Q 495.736324 110.451311 498.702341 112.024217 
L 498.702341 120.848951 
Q 495.709523 118.763936 492.806043 117.794587 
Q 489.902563 116.825238 486.695334 116.825238 
Q 480.941976 116.825238 477.645409 120.602041 
Q 474.357776 124.369699 474.357776 130.99968 
Q 474.357776 137.602227 477.645409 141.37903 
Q 480.941976 145.146689 486.695334 145.146689 
Q 489.902563 145.146689 492.806043 144.17734 
Q 495.709523 143.198846 498.702341 141.113831 
L 498.702341 149.947709 
z
" clip-path="url(#p870819de4c)" style="fill: #0000ff"/>
   </g>
   <g id="patch_41">
    <path d="M 536.026756 192.228674 
Q 533.060739 192.234288 529.85351 192.237128 
Q 526.646281 192.24 523.153171 192.24 
Q 512.736377 192.24 506.65247 192.218718 
Q 500.568562 192.197437 500.568562 192.161043 
Q 500.568562 192.124518 506.65247 192.103269 
Q 512.736377 192.081988 523.153171 192.081988 
Q 526.646281 192.081988 529.85351 192.08486 
Q 533.060739 192.0877 536.026756 192.093314 
L 536.026756 192.124812 
Q 533.033938 192.11737 530.130458 192.11391 
Q 527.226977 192.11045 524.019748 192.11045 
Q 518.266391 192.11045 514.969824 192.123931 
Q 511.682191 192.137378 511.682191 192.161043 
Q 511.682191 192.184609 514.969824 192.19809 
Q 518.266391 192.211538 524.019748 192.211538 
Q 527.226977 192.211538 530.130458 192.208078 
Q 533.033938 192.204585 536.026756 192.197143 
L 536.026756 192.228674 
z
" clip-path="url(#p870819de4c)" style="fill: #0000ff"/>
   </g>
   <g id="patch_42">
    <path d="M 536.026756 189.75103 
Q 532.450739 190.916509 528.604534 191.501909 
Q 524.758329 192.081988 520.65783 192.081988 
Q 511.391973 192.081988 505.980267 188.61216 
Q 500.568562 185.142333 500.568562 179.208502 
Q 500.568562 173.205488 506.075628 169.76227 
Q 511.590641 166.319052 521.182312 166.319052 
Q 524.87753 166.319052 528.262826 166.787372 
Q 531.656069 167.250371 534.659923 168.165724 
L 534.659923 173.301281 
Q 531.560708 172.125159 528.49328 171.54508 
Q 525.425852 170.95968 522.342531 170.95968 
Q 516.636798 170.95968 513.54553 173.099052 
Q 510.454262 175.233102 510.454262 179.208502 
Q 510.454262 183.14665 513.434276 185.296666 
Q 516.41429 187.44136 521.897516 187.44136 
Q 523.391496 187.44136 524.670916 187.318958 
Q 525.950335 187.191234 526.967513 186.925143 
L 526.967513 182.103573 
L 521.126686 182.103573 
L 521.126686 177.808864 
L 536.026756 177.808864 
L 536.026756 189.75103 
z
" clip-path="url(#p870819de4c)" style="fill: #ffa600"/>
   </g>
   <g id="patch_43">
    <path d="M 525.130484 153.794237 
L 511.493832 153.794237 
L 509.340677 166.319052 
L 500.568562 166.319052 
L 513.096012 97.565188 
L 523.499306 97.565188 
L 536.026756 166.319052 
L 527.26189 166.319052 
L 525.130484 153.794237 
z
M 513.668737 141.033662 
L 522.93383 141.033662 
L 518.308533 113.685361 
L 513.668737 141.033662 
z
" clip-path="url(#p870819de4c)" style="fill: #008000"/>
   </g>
   <g id="patch_44">
    <path d="M 562.454899 161.941672 
L 548.818247 161.941672 
L 546.665092 192.24 
L 537.892977 192.24 
L 550.420427 25.92 
L 560.82372 25.92 
L 573.351171 192.24 
L 564.586305 192.24 
L 562.454899 161.941672 
z
M 550.993152 131.073022 
L 560.258245 131.073022 
L 555.632948 64.915731 
L 550.993152 131.073022 
z
" clip-path="url(#p870819de4c)" style="fill: #008000"/>
   </g>
   <g id="patch_45">
    <path d="M 599.779313 161.941672 
L 586.142662 161.941672 
L 583.989506 192.24 
L 575.217391 192.24 
L 587.744842 25.92 
L 598.148135 25.92 
L 610.675585 192.24 
L 601.91072 192.24 
L 599.779313 161.941672 
z
M 588.317566 131.073022 
L 597.58266 131.073022 
L 592.957363 64.915731 
L 588.317566 131.073022 
z
" clip-path="url(#p870819de4c)" style="fill: #008000"/>
   </g>
   <g id="patch_46">
    <path d="M 648 192.179835 
Q 644.423983 192.209917 640.577778 192.225027 
Q 636.731573 192.24 632.631074 192.24 
Q 623.365217 192.24 617.953512 192.150439 
Q 612.541806 192.060878 612.541806 191.907717 
Q 612.541806 191.752771 618.048872 191.663897 
Q 623.563885 191.575023 633.155557 191.575023 
Q 636.850774 191.575023 640.23607 191.587111 
Q 643.629313 191.599061 646.633167 191.622688 
L 646.633167 191.755244 
Q 643.533952 191.724886 640.466524 191.709914 
Q 637.399097 191.694804 634.315775 191.694804 
Q 628.610042 191.694804 625.518774 191.750024 
Q 622.427506 191.805107 622.427506 191.907717 
Q 622.427506 192.009366 625.40752 192.064861 
Q 628.387534 192.120219 633.87076 192.120219 
Q 635.36474 192.120219 636.64416 192.11706 
Q 637.923579 192.113763 638.940757 192.106895 
L 638.940757 191.982443 
L 633.09993 191.982443 
L 633.09993 191.871591 
L 648 191.871591 
L 648 192.179835 
z
" clip-path="url(#p870819de4c)" style="fill: #ffa600"/>
   </g>
   <g id="patch_47">
    <path d="M 648 191.131723 
Q 645.033983 191.351456 641.826754 191.462601 
Q 638.619525 191.575023 635.126415 191.575023 
Q 624.709622 191.575023 618.625714 190.742079 
Q 612.541806 189.909135 612.541806 188.484699 
Q 612.541806 187.055152 618.625714 186.223486 
Q 624.709622 185.390542 635.126415 185.390542 
Q 638.619525 185.390542 641.826754 185.502964 
Q 645.033983 185.614108 648 185.833842 
L 648 187.06665 
Q 645.007182 186.775375 642.103702 186.639958 
Q 639.200221 186.50454 635.992993 186.50454 
Q 630.239635 186.50454 626.943068 187.032157 
Q 623.655435 187.558496 623.655435 188.484699 
Q 623.655435 189.407069 626.943068 189.934685 
Q 630.239635 190.461024 635.992993 190.461024 
Q 639.200221 190.461024 642.103702 190.325607 
Q 645.007182 190.188912 648 189.897637 
L 648 191.131723 
z
" clip-path="url(#p870819de4c)" style="fill: #0000ff"/>
   </g>
   <g id="patch_48">
    <path d="M 637.103728 183.234218 
L 623.467077 183.234218 
L 621.313921 185.390542 
L 612.541806 185.390542 
L 625.069256 173.553594 
L 635.47255 173.553594 
L 648 185.390542 
L 639.235135 185.390542 
L 637.103728 183.234218 
z
M 625.641981 181.037305 
L 634.907075 181.037305 
L 630.281778 176.328909 
L 625.641981 181.037305 
z
" clip-path="url(#p870819de4c)" style="fill: #008000"/>
   </g>
   <g id="patch_49">
    <path d="M 612.541806 152.406684 
L 648 152.406684 
L 648 156.530921 
L 635.243296 156.530921 
L 635.243296 173.553594 
L 625.323248 173.553594 
L 625.323248 156.530921 
L 612.541806 156.530921 
L 612.541806 152.406684 
z
" clip-path="url(#p870819de4c)" style="fill: #ff0000"/>
   </g>
   <g id="matplotlib.axis_1">
    <g id="xtick_1">
     <g id="line2d_2">
      <defs>
       <path id="m3c1b706948" d="M 0 0 
L 0 3.5 
" style="stroke: #000000; stroke-width: 0.8"/>
      </defs>
      <g>
       <use xlink:href="#m3c1b706948" x="107.729097" y="192.24" style="stroke: #000000; stroke-width: 0.8"/>
      </g>
     </g>
     <g id="text_1">
      <!-- 0 -->
      <g transform="translate(104.547847 206.838437) scale(0.1 -0.1)">
       <defs>
        <path id="DejaVuSans-30" d="M 2034 4250 
Q 1547 4250 1301 3770 
Q 1056 3291 1056 2328 
Q 1056 1369 1301 889 
Q 1547 409 2034 409 
Q 2525 409 2770 889 
Q 3016 1369 3016 2328 
Q 3016 3291 2770 3770 
Q 2525 4250 2034 4250 
z
M 2034 4750 
Q 2819 4750 3233 4129 
Q 3647 3509 3647 2328 
Q 3647 1150 3233 529 
Q 2819 -91 2034 -91 
Q 1250 -91 836 529 
Q 422 1150 422 2328 
Q 422 3509 836 4129 
Q 1250 4750 2034 4750 
z
" transform="scale(0.015625)"/>
       </defs>
       <use xlink:href="#DejaVuSans-30"/>
      </g>
     </g>
    </g>
    <g id="xtick_2">
     <g id="line2d_3">
      <g>
       <use xlink:href="#m3c1b706948" x="182.377926" y="192.24" style="stroke: #000000; stroke-width: 0.8"/>
      </g>
     </g>
     <g id="text_2">
      <!-- 2 -->
      <g transform="translate(179.196676 206.838437) scale(0.1 -0.1)">
       <defs>
        <path id="DejaVuSans-32" d="M 1228 531 
L 3431 531 
L 3431 0 
L 469 0 
L 469 531 
Q 828 903 1448 1529 
Q 2069 2156 2228 2338 
Q 2531 2678 2651 2914 
Q 2772 3150 2772 3378 
Q 2772 3750 2511 3984 
Q 2250 4219 1831 4219 
Q 1534 4219 1204 4116 
Q 875 4013 500 3803 
L 500 4441 
Q 881 4594 1212 4672 
Q 1544 4750 1819 4750 
Q 2544 4750 2975 4387 
Q 3406 4025 3406 3419 
Q 3406 3131 3298 2873 
Q 3191 2616 2906 2266 
Q 2828 2175 2409 1742 
Q 1991 1309 1228 531 
z
" transform="scale(0.015625)"/>
       </defs>
       <use xlink:href="#DejaVuSans-32"/>
      </g>
     </g>
    </g>
    <g id="xtick_3">
     <g id="line2d_4">
      <g>
       <use xlink:href="#m3c1b706948" x="257.026756" y="192.24" style="stroke: #000000; stroke-width: 0.8"/>
      </g>
     </g>
     <g id="text_3">
      <!-- 4 -->
      <g transform="translate(253.845506 206.838437) scale(0.1 -0.1)">
       <defs>
        <path id="DejaVuSans-34" d="M 2419 4116 
L 825 1625 
L 2419 1625 
L 2419 4116 
z
M 2253 4666 
L 3047 4666 
L 3047 1625 
L 3713 1625 
L 3713 1100 
L 3047 1100 
L 3047 0 
L 2419 0 
L 2419 1100 
L 313 1100 
L 313 1709 
L 2253 4666 
z
" transform="scale(0.015625)"/>
       </defs>
       <use xlink:href="#DejaVuSans-34"/>
      </g>
     </g>
    </g>
    <g id="xtick_4">
     <g id="line2d_5">
      <g>
       <use xlink:href="#m3c1b706948" x="331.675585" y="192.24" style="stroke: #000000; stroke-width: 0.8"/>
      </g>
     </g>
     <g id="text_4">
      <!-- 6 -->
      <g transform="translate(328.494335 206.838437) scale(0.1 -0.1)">
       <defs>
        <path id="DejaVuSans-36" d="M 2113 2584 
Q 1688 2584 1439 2293 
Q 1191 2003 1191 1497 
Q 1191 994 1439 701 
Q 1688 409 2113 409 
Q 2538 409 2786 701 
Q 3034 994 3034 1497 
Q 3034 2003 2786 2293 
Q 2538 2584 2113 2584 
z
M 3366 4563 
L 3366 3988 
Q 3128 4100 2886 4159 
Q 2644 4219 2406 4219 
Q 1781 4219 1451 3797 
Q 1122 3375 1075 2522 
Q 1259 2794 1537 2939 
Q 1816 3084 2150 3084 
Q 2853 3084 3261 2657 
Q 3669 2231 3669 1497 
Q 3669 778 3244 343 
Q 2819 -91 2113 -91 
Q 1303 -91 875 529 
Q 447 1150 447 2328 
Q 447 3434 972 4092 
Q 1497 4750 2381 4750 
Q 2619 4750 2861 4703 
Q 3103 4656 3366 4563 
z
" transform="scale(0.015625)"/>
       </defs>
       <use xlink:href="#DejaVuSans-36"/>
      </g>
     </g>
    </g>
    <g id="xtick_5">
     <g id="line2d_6">
      <g>
       <use xlink:href="#m3c1b706948" x="406.324415" y="192.24" style="stroke: #000000; stroke-width: 0.8"/>
      </g>
     </g>
     <g id="text_5">
      <!-- 8 -->
      <g transform="translate(403.143165 206.838437) scale(0.1 -0.1)">
       <defs>
        <path id="DejaVuSans-38" d="M 2034 2216 
Q 1584 2216 1326 1975 
Q 1069 1734 1069 1313 
Q 1069 891 1326 650 
Q 1584 409 2034 409 
Q 2484 409 2743 651 
Q 3003 894 3003 1313 
Q 3003 1734 2745 1975 
Q 2488 2216 2034 2216 
z
M 1403 2484 
Q 997 2584 770 2862 
Q 544 3141 544 3541 
Q 544 4100 942 4425 
Q 1341 4750 2034 4750 
Q 2731 4750 3128 4425 
Q 3525 4100 3525 3541 
Q 3525 3141 3298 2862 
Q 3072 2584 2669 2484 
Q 3125 2378 3379 2068 
Q 3634 1759 3634 1313 
Q 3634 634 3220 271 
Q 2806 -91 2034 -91 
Q 1263 -91 848 271 
Q 434 634 434 1313 
Q 434 1759 690 2068 
Q 947 2378 1403 2484 
z
M 1172 3481 
Q 1172 3119 1398 2916 
Q 1625 2713 2034 2713 
Q 2441 2713 2670 2916 
Q 2900 3119 2900 3481 
Q 2900 3844 2670 4047 
Q 2441 4250 2034 4250 
Q 1625 4250 1398 4047 
Q 1172 3844 1172 3481 
z
" transform="scale(0.015625)"/>
       </defs>
       <use xlink:href="#DejaVuSans-38"/>
      </g>
     </g>
    </g>
    <g id="xtick_6">
     <g id="line2d_7">
      <g>
       <use xlink:href="#m3c1b706948" x="480.973244" y="192.24" style="stroke: #000000; stroke-width: 0.8"/>
      </g>
     </g>
     <g id="text_6">
      <!-- 10 -->
      <g transform="translate(474.610744 206.838437) scale(0.1 -0.1)">
       <defs>
        <path id="DejaVuSans-31" d="M 794 531 
L 1825 531 
L 1825 4091 
L 703 3866 
L 703 4441 
L 1819 4666 
L 2450 4666 
L 2450 531 
L 3481 531 
L 3481 0 
L 794 0 
L 794 531 
z
" transform="scale(0.015625)"/>
       </defs>
       <use xlink:href="#DejaVuSans-31"/>
       <use xlink:href="#DejaVuSans-30" x="63.623047"/>
      </g>
     </g>
    </g>
    <g id="xtick_7">
     <g id="line2d_8">
      <g>
       <use xlink:href="#m3c1b706948" x="555.622074" y="192.24" style="stroke: #000000; stroke-width: 0.8"/>
      </g>
     </g>
     <g id="text_7">
      <!-- 12 -->
      <g transform="translate(549.259574 206.838437) scale(0.1 -0.1)">
       <use xlink:href="#DejaVuSans-31"/>
       <use xlink:href="#DejaVuSans-32" x="63.623047"/>
      </g>
     </g>
    </g>
    <g id="xtick_8">
     <g id="line2d_9">
      <g>
       <use xlink:href="#m3c1b706948" x="630.270903" y="192.24" style="stroke: #000000; stroke-width: 0.8"/>
      </g>
     </g>
     <g id="text_8">
      <!-- 14 -->
      <g transform="translate(623.908403 206.838437) scale(0.1 -0.1)">
       <use xlink:href="#DejaVuSans-31"/>
       <use xlink:href="#DejaVuSans-34" x="63.623047"/>
      </g>
     </g>
    </g>
   </g>
   <g id="matplotlib.axis_2">
    <g id="ytick_1">
     <g id="line2d_10">
      <defs>
       <path id="m54e98a4a70" d="M 0 0 
L -3.5 0 
" style="stroke: #000000; stroke-width: 0.8"/>
      </defs>
      <g>
       <use xlink:href="#m54e98a4a70" x="90" y="192.24" style="stroke: #000000; stroke-width: 0.8"/>
      </g>
     </g>
     <g id="text_9">
      <!-- 0.00 -->
      <g transform="translate(60.734375 196.039219) scale(0.1 -0.1)">
       <defs>
        <path id="DejaVuSans-2e" d="M 684 794 
L 1344 794 
L 1344 0 
L 684 0 
L 684 794 
z
" transform="scale(0.015625)"/>
       </defs>
       <use xlink:href="#DejaVuSans-30"/>
       <use xlink:href="#DejaVuSans-2e" x="63.623047"/>
       <use xlink:href="#DejaVuSans-30" x="95.410156"/>
       <use xlink:href="#DejaVuSans-30" x="159.033203"/>
      </g>
     </g>
    </g>
    <g id="ytick_2">
     <g id="line2d_11">
      <g>
       <use xlink:href="#m54e98a4a70" x="90" y="171.45" style="stroke: #000000; stroke-width: 0.8"/>
      </g>
     </g>
     <g id="text_10">
      <!-- 0.25 -->
      <g transform="translate(60.734375 175.249219) scale(0.1 -0.1)">
       <defs>
        <path id="DejaVuSans-35" d="M 691 4666 
L 3169 4666 
L 3169 4134 
L 1269 4134 
L 1269 2991 
Q 1406 3038 1543 3061 
Q 1681 3084 1819 3084 
Q 2600 3084 3056 2656 
Q 3513 2228 3513 1497 
Q 3513 744 3044 326 
Q 2575 -91 1722 -91 
Q 1428 -91 1123 -41 
Q 819 9 494 109 
L 494 744 
Q 775 591 1075 516 
Q 1375 441 1709 441 
Q 2250 441 2565 725 
Q 2881 1009 2881 1497 
Q 2881 1984 2565 2268 
Q 2250 2553 1709 2553 
Q 1456 2553 1204 2497 
Q 953 2441 691 2322 
L 691 4666 
z
" transform="scale(0.015625)"/>
       </defs>
       <use xlink:href="#DejaVuSans-30"/>
       <use xlink:href="#DejaVuSans-2e" x="63.623047"/>
       <use xlink:href="#DejaVuSans-32" x="95.410156"/>
       <use xlink:href="#DejaVuSans-35" x="159.033203"/>
      </g>
     </g>
    </g>
    <g id="ytick_3">
     <g id="line2d_12">
      <g>
       <use xlink:href="#m54e98a4a70" x="90" y="150.66" style="stroke: #000000; stroke-width: 0.8"/>
      </g>
     </g>
     <g id="text_11">
      <!-- 0.50 -->
      <g transform="translate(60.734375 154.459219) scale(0.1 -0.1)">
       <use xlink:href="#DejaVuSans-30"/>
       <use xlink:href="#DejaVuSans-2e" x="63.623047"/>
       <use xlink:href="#DejaVuSans-35" x="95.410156"/>
       <use xlink:href="#DejaVuSans-30" x="159.033203"/>
      </g>
     </g>
    </g>
    <g id="ytick_4">
     <g id="line2d_13">
      <g>
       <use xlink:href="#m54e98a4a70" x="90" y="129.87" style="stroke: #000000; stroke-width: 0.8"/>
      </g>
     </g>
     <g id="text_12">
      <!-- 0.75 -->
      <g transform="translate(60.734375 133.669219) scale(0.1 -0.1)">
       <defs>
        <path id="DejaVuSans-37" d="M 525 4666 
L 3525 4666 
L 3525 4397 
L 1831 0 
L 1172 0 
L 2766 4134 
L 525 4134 
L 525 4666 
z
" transform="scale(0.015625)"/>
       </defs>
       <use xlink:href="#DejaVuSans-30"/>
       <use xlink:href="#DejaVuSans-2e" x="63.623047"/>
       <use xlink:href="#DejaVuSans-37" x="95.410156"/>
       <use xlink:href="#DejaVuSans-35" x="159.033203"/>
      </g>
     </g>
    </g>
    <g id="ytick_5">
     <g id="line2d_14">
      <g>
       <use xlink:href="#m54e98a4a70" x="90" y="109.08" style="stroke: #000000; stroke-width: 0.8"/>
      </g>
     </g>
     <g id="text_13">
      <!-- 1.00 -->
      <g transform="translate(60.734375 112.879219) scale(0.1 -0.1)">
       <use xlink:href="#DejaVuSans-31"/>
       <use xlink:href="#DejaVuSans-2e" x="63.623047"/>
       <use xlink:href="#DejaVuSans-30" x="95.410156"/>
       <use xlink:href="#DejaVuSans-30" x="159.033203"/>
      </g>
     </g>
    </g>
    <g id="ytick_6">
     <g id="line2d_15">
      <g>
       <use xlink:href="#m54e98a4a70" x="90" y="88.29" style="stroke: #000000; stroke-width: 0.8"/>
      </g>
     </g>
     <g id="text_14">
      <!-- 1.25 -->
      <g transform="translate(60.734375 92.089219) scale(0.1 -0.1)">
       <use xlink:href="#DejaVuSans-31"/>
       <use xlink:href="#DejaVuSans-2e" x="63.623047"/>
       <use xlink:href="#DejaVuSans-32" x="95.410156"/>
       <use xlink:href="#DejaVuSans-35" x="159.033203"/>
      </g>
     </g>
    </g>
    <g id="ytick_7">
     <g id="line2d_16">
      <g>
       <use xlink:href="#m54e98a4a70" x="90" y="67.5" style="stroke: #000000; stroke-width: 0.8"/>
      </g>
     </g>
     <g id="text_15">
      <!-- 1.50 -->
      <g transform="translate(60.734375 71.299219) scale(0.1 -0.1)">
       <use xlink:href="#DejaVuSans-31"/>
       <use xlink:href="#DejaVuSans-2e" x="63.623047"/>
       <use xlink:href="#DejaVuSans-35" x="95.410156"/>
       <use xlink:href="#DejaVuSans-30" x="159.033203"/>
      </g>
     </g>
    </g>
    <g id="ytick_8">
     <g id="line2d_17">
      <g>
       <use xlink:href="#m54e98a4a70" x="90" y="46.71" style="stroke: #000000; stroke-width: 0.8"/>
      </g>
     </g>
     <g id="text_16">
      <!-- 1.75 -->
      <g transform="translate(60.734375 50.509219) scale(0.1 -0.1)">
       <use xlink:href="#DejaVuSans-31"/>
       <use xlink:href="#DejaVuSans-2e" x="63.623047"/>
       <use xlink:href="#DejaVuSans-37" x="95.410156"/>
       <use xlink:href="#DejaVuSans-35" x="159.033203"/>
      </g>
     </g>
    </g>
    <g id="ytick_9">
     <g id="line2d_18">
      <g>
       <use xlink:href="#m54e98a4a70" x="90" y="25.92" style="stroke: #000000; stroke-width: 0.8"/>
      </g>
     </g>
     <g id="text_17">
      <!-- 2.00 -->
      <g transform="translate(60.734375 29.719219) scale(0.1 -0.1)">
       <use xlink:href="#DejaVuSans-32"/>
       <use xlink:href="#DejaVuSans-2e" x="63.623047"/>
       <use xlink:href="#DejaVuSans-30" x="95.410156"/>
       <use xlink:href="#DejaVuSans-30" x="159.033203"/>
      </g>
     </g>
    </g>
   </g>
  </g>
 </g>
 <defs>
  <clipPath id="p870819de4c">
   <rect x="90" y="25.92" width="558" height="166.32"/>
  </clipPath>
 </defs>
</svg>
