<?xml version="1.0" encoding="utf-8" standalone="no"?>
<!DOCTYPE svg PUBLIC "-//W3C//DTD SVG 1.1//EN"
  "http://www.w3.org/Graphics/SVG/1.1/DTD/svg11.dtd">
<svg xmlns:xlink="http://www.w3.org/1999/xlink" width="720pt" height="216pt" viewBox="0 0 720 216" xmlns="http://www.w3.org/2000/svg" version="1.1">
 <metadata>
  <rdf:RDF xmlns:dc="http://purl.org/dc/elements/1.1/" xmlns:cc="http://creativecommons.org/ns#" xmlns:rdf="http://www.w3.org/1999/02/22-rdf-syntax-ns#">
   <cc:Work>
    <dc:type rdf:resource="http://purl.org/dc/dcmitype/StillImage"/>
    <dc:date>2025-12-17T10:28:36.066455</dc:date>
    <dc:format>image/svg+xml</dc:format>
    <dc:creator>
     <cc:Agent>
      <dc:title>Matplotlib v3.8.2, https://matplotlib.org/</dc:title>
     </cc:Agent>
    </dc:creator>
   </cc:Work>
  </rdf:RDF>
 </metadata>
 <defs>
  <style type="text/css">*{stroke-linejoin: round; stroke-linecap: butt}</style>
 </defs>
 <g id="figure_1">
  <g id="patch_1">
   <path d="M 0 216 
L 720 216 
L 720 0 
L 0 0 
z
" style="fill: #ffffff"/>
  </g>
  <g id="axes_1">
   <g id="patch_2">
    <path d="M 90 192.24 
L 648 192.24 
L 648 25.92 
L 90 25.92 
z
" style="fill: #ffffff"/>
   </g>
   <g id="line2d_1">
    <path d="M 90 192.24 
L 648 192.24 
" clip-path="url(#p62a1831e63)" style="fill: none; stroke: #000000; stroke-width: 0.5; stroke-linecap: square"/>
   </g>
   <g id="patch_3">
    <path d="M 117.973615 192.03539 
Q 115.15243 192.137695 112.118089 192.189081 
Q 109.083748 192.24 105.848789 192.24 
Q 98.538786 192.24 94.269393 191.935421 
Q 90 191.630842 90 191.109974 
Q 90 190.583034 94.344625 190.280791 
Q 98.695519 189.978547 106.262563 189.978547 
Q 109.177787 189.978547 111.848509 190.019656 
Q 114.5255 190.060298 116.895295 190.140647 
L 116.895295 190.591443 
Q 114.450268 190.488203 112.030319 190.437284 
Q 109.610369 190.385898 107.177881 190.385898 
Q 102.676524 190.385898 100.237766 190.573691 
Q 97.799009 190.761016 97.799009 191.109974 
Q 97.799009 191.455662 100.149996 191.644389 
Q 102.500983 191.832649 106.8268 191.832649 
Q 108.005428 191.832649 109.014786 191.821905 
Q 110.024143 191.810693 110.826613 191.787336 
L 110.826613 191.364102 
L 106.218678 191.364102 
L 106.218678 190.987115 
L 117.973615 190.987115 
L 117.973615 192.03539 
z
" clip-path="url(#p62a1831e63)" style="fill: #ffa600"/>
   </g>
   <g id="patch_4">
    <path d="M 109.377348 189.213466 
L 98.619145 189.213466 
L 96.920481 189.978547 
L 90 189.978547 
L 99.883134 185.778699 
L 108.090481 185.778699 
L 117.973615 189.978547 
L 111.058853 189.978547 
L 109.377348 189.213466 
z
M 100.334967 188.433982 
L 107.644368 188.433982 
L 103.995386 186.763404 
L 100.334967 188.433982 
z
" clip-path="url(#p62a1831e63)" style="fill: #008000"/>
   </g>
   <g id="patch_5">
    <path d="M 117.973615 185.342021 
Q 115.63367 185.558472 113.103429 185.667956 
Q 110.573188 185.778699 107.817409 185.778699 
Q 99.599411 185.778699 94.799706 184.958198 
Q 90 184.137697 90 182.734539 
Q 90 181.326348 94.799706 180.507106 
Q 99.599411 179.686605 107.817409 179.686605 
Q 110.573188 179.686605 113.103429 179.797347 
Q 115.63367 179.906831 117.973615 180.123283 
L 117.973615 181.337674 
Q 115.612526 181.050751 113.321918 180.917356 
Q 111.031309 180.783962 108.501068 180.783962 
Q 103.962139 180.783962 101.361418 181.303697 
Q 98.767744 181.822173 98.767744 182.734539 
Q 98.767744 183.643131 101.361418 184.162865 
Q 103.962139 184.681342 108.501068 184.681342 
Q 111.031309 184.681342 113.321918 184.547947 
Q 115.612526 184.413294 117.973615 184.126371 
L 117.973615 185.342021 
z
" clip-path="url(#p62a1831e63)" style="fill: #0000ff"/>
   </g>
   <g id="patch_6">
    <path d="M 90 164.687153 
L 117.973615 164.687153 
L 117.973615 167.612464 
L 107.909619 167.612464 
L 107.909619 179.686605 
L 100.083512 179.686605 
L 100.083512 167.612464 
L 90 167.612464 
L 90 164.687153 
z
" clip-path="url(#p62a1831e63)" style="fill: #ff0000"/>
   </g>
   <g id="patch_7">
    <path d="M 147.419525 192.078965 
Q 144.59834 192.159483 141.563999 192.199925 
Q 138.529658 192.24 135.2947 192.24 
Q 127.984696 192.24 123.715303 192.000287 
Q 119.44591 191.760573 119.44591 191.350634 
Q 119.44591 190.935915 123.790535 190.698039 
Q 128.141429 190.460164 135.708473 190.460164 
Q 138.623698 190.460164 141.294419 190.492518 
Q 143.97141 190.524504 146.341206 190.587742 
L 146.341206 190.942532 
Q 143.896179 190.86128 141.476229 190.821205 
Q 139.056279 190.780763 136.623791 190.780763 
Q 132.122434 190.780763 129.683677 190.928561 
Q 127.244919 191.075993 127.244919 191.350634 
Q 127.244919 191.622701 129.595906 191.771235 
Q 131.946894 191.919402 136.27271 191.919402 
Q 137.451339 191.919402 138.460696 191.910945 
Q 139.470053 191.902122 140.272524 191.883739 
L 140.272524 191.55064 
L 135.664588 191.55064 
L 135.664588 191.253939 
L 147.419525 191.253939 
L 147.419525 192.078965 
z
" clip-path="url(#p62a1831e63)" style="fill: #ffa600"/>
   </g>
   <g id="patch_8">
    <path d="M 138.823258 189.649592 
L 128.065055 189.649592 
L 126.366392 190.460164 
L 119.44591 190.460164 
L 129.329044 186.0106 
L 137.536391 186.0106 
L 147.419525 190.460164 
L 140.504763 190.460164 
L 138.823258 189.649592 
z
M 129.780877 188.823762 
L 137.090278 188.823762 
L 133.441297 187.053854 
L 129.780877 188.823762 
z
" clip-path="url(#p62a1831e63)" style="fill: #008000"/>
   </g>
   <g id="patch_9">
    <path d="M 147.419525 185.579268 
Q 145.07958 185.793069 142.549339 185.901213 
Q 140.019098 186.0106 137.26332 186.0106 
Q 129.045322 186.0106 124.245616 185.200143 
Q 119.44591 184.389685 119.44591 183.003704 
Q 119.44591 181.612751 124.245616 180.803536 
Q 129.045322 179.993079 137.26332 179.993079 
Q 140.019098 179.993079 142.549339 180.102466 
Q 145.07958 180.21061 147.419525 180.424411 
L 147.419525 181.623938 
Q 145.058436 181.340526 142.767828 181.208765 
Q 140.47722 181.077003 137.946978 181.077003 
Q 133.40805 181.077003 130.807328 181.590376 
Q 128.213655 182.102505 128.213655 183.003704 
Q 128.213655 183.901174 130.807328 184.414546 
Q 133.40805 184.926675 137.946978 184.926675 
Q 140.47722 184.926675 142.767828 184.794914 
Q 145.058436 184.66191 147.419525 184.378498 
L 147.419525 185.579268 
z
" clip-path="url(#p62a1831e63)" style="fill: #0000ff"/>
   </g>
   <g id="patch_10">
    <path d="M 119.44591 166.940992 
L 147.419525 166.940992 
L 147.419525 169.486513 
L 137.355529 169.486513 
L 137.355529 179.993079 
L 129.529423 179.993079 
L 129.529423 169.486513 
L 119.44591 169.486513 
L 119.44591 166.940992 
z
" clip-path="url(#p62a1831e63)" style="fill: #ff0000"/>
   </g>
   <g id="patch_11">
    <path d="M 176.865435 191.998649 
Q 174.044251 192.119324 171.00991 192.179938 
Q 167.975569 192.24 164.74061 192.24 
Q 157.430607 192.24 153.161214 191.880728 
Q 148.891821 191.521457 148.891821 190.907058 
Q 148.891821 190.285496 153.236445 189.928979 
Q 157.587339 189.572463 165.154384 189.572463 
Q 168.069608 189.572463 170.74033 189.620953 
Q 173.417321 189.668893 175.787116 189.76367 
L 175.787116 190.295414 
Q 173.342089 190.173637 170.922139 190.113574 
Q 168.50219 190.052961 166.069701 190.052961 
Q 161.568344 190.052961 159.129587 190.274475 
Q 156.690829 190.495438 156.690829 190.907058 
Q 156.690829 191.31482 159.041817 191.537436 
Q 161.392804 191.759502 165.718621 191.759502 
Q 166.897249 191.759502 167.906606 191.746828 
Q 168.915963 191.733603 169.718434 191.706052 
L 169.718434 191.206818 
L 165.110499 191.206818 
L 165.110499 190.762137 
L 176.865435 190.762137 
L 176.865435 191.998649 
z
" clip-path="url(#p62a1831e63)" style="fill: #ffa600"/>
   </g>
   <g id="patch_12">
    <path d="M 168.269168 188.576874 
L 157.510965 188.576874 
L 155.812302 189.572463 
L 148.891821 189.572463 
L 158.774954 184.107268 
L 166.982302 184.107268 
L 176.865435 189.572463 
L 169.950673 189.572463 
L 168.269168 188.576874 
z
M 159.226787 187.562545 
L 166.536188 187.562545 
L 162.887207 185.388649 
L 159.226787 187.562545 
z
" clip-path="url(#p62a1831e63)" style="fill: #008000"/>
   </g>
   <g id="patch_13">
    <path d="M 176.865435 183.622257 
Q 174.525491 183.862666 171.995249 183.984268 
Q 169.465008 184.107268 166.70923 184.107268 
Q 158.491232 184.107268 153.691526 183.19595 
Q 148.891821 182.284632 148.891821 180.726167 
Q 148.891821 179.162111 153.691526 178.252191 
Q 158.491232 177.340873 166.70923 177.340873 
Q 169.465008 177.340873 171.995249 177.463873 
Q 174.525491 177.585475 176.865435 177.825884 
L 176.865435 179.174691 
Q 174.504347 178.856009 172.213738 178.70785 
Q 169.92313 178.559691 167.392889 178.559691 
Q 162.85396 178.559691 160.253238 179.136952 
Q 157.659565 179.712815 157.659565 180.726167 
Q 157.659565 181.735326 160.253238 182.312587 
Q 162.85396 182.88845 167.392889 182.88845 
Q 169.92313 182.88845 172.213738 182.740291 
Q 174.504347 182.590734 176.865435 182.272053 
L 176.865435 183.622257 
z
" clip-path="url(#p62a1831e63)" style="fill: #0000ff"/>
   </g>
   <g id="patch_14">
    <path d="M 148.891821 153.398213 
L 176.865435 153.398213 
L 176.865435 158.067699 
L 166.80144 158.067699 
L 166.80144 177.340873 
L 158.975333 177.340873 
L 158.975333 158.067699 
L 148.891821 158.067699 
L 148.891821 153.398213 
z
" clip-path="url(#p62a1831e63)" style="fill: #ff0000"/>
   </g>
   <g id="patch_15">
    <path d="M 206.311346 192.063845 
Q 203.490161 192.151922 200.45582 192.196162 
Q 197.421479 192.24 194.18652 192.24 
Q 186.876517 192.24 182.607124 191.977778 
Q 178.337731 191.715557 178.337731 191.267125 
Q 178.337731 190.813466 182.682355 190.553255 
Q 187.033249 190.293044 194.600294 190.293044 
Q 197.515518 190.293044 200.18624 190.328436 
Q 202.863231 190.363426 205.233026 190.432601 
L 205.233026 190.820705 
Q 202.787999 190.731823 200.36805 190.687986 
Q 197.9481 190.643746 195.515612 190.643746 
Q 191.014255 190.643746 188.575497 190.805422 
Q 186.13674 190.966697 186.13674 191.267125 
Q 186.13674 191.564739 188.487727 191.72722 
Q 190.838714 191.889299 195.164531 191.889299 
Q 196.343159 191.889299 197.352517 191.880048 
Q 198.361874 191.870396 199.164344 191.850287 
L 199.164344 191.485912 
L 194.556409 191.485912 
L 194.556409 191.161352 
L 206.311346 191.161352 
L 206.311346 192.063845 
z
" clip-path="url(#p62a1831e63)" style="fill: #ffa600"/>
   </g>
   <g id="patch_16">
    <path d="M 197.715078 189.196771 
L 186.956876 189.196771 
L 185.258212 190.293044 
L 178.337731 190.293044 
L 188.220864 184.275149 
L 196.428212 184.275149 
L 206.311346 190.293044 
L 199.396584 190.293044 
L 197.715078 189.196771 
z
M 188.672698 188.079862 
L 195.982098 188.079862 
L 192.333117 185.686117 
L 188.672698 188.079862 
z
" clip-path="url(#p62a1831e63)" style="fill: #008000"/>
   </g>
   <g id="patch_17">
    <path d="M 206.311346 183.793041 
Q 203.971401 184.032011 201.44116 184.152885 
Q 198.910918 184.275149 196.15514 184.275149 
Q 187.937142 184.275149 183.137437 183.369285 
Q 178.337731 182.463421 178.337731 180.914283 
Q 178.337731 179.359586 183.137437 178.455112 
Q 187.937142 177.549248 196.15514 177.549248 
Q 198.910918 177.549248 201.44116 177.671512 
Q 203.971401 177.792386 206.311346 178.031356 
L 206.311346 179.372091 
Q 203.950257 179.055316 201.659649 178.908044 
Q 199.36904 178.760771 196.838799 178.760771 
Q 192.29987 178.760771 189.699149 179.334578 
Q 187.105475 179.906995 187.105475 180.914283 
Q 187.105475 181.917402 189.699149 182.491208 
Q 192.29987 183.063626 196.838799 183.063626 
Q 199.36904 183.063626 201.659649 182.916353 
Q 203.950257 182.767691 206.311346 182.450917 
L 206.311346 183.793041 
z
" clip-path="url(#p62a1831e63)" style="fill: #0000ff"/>
   </g>
   <g id="patch_18">
    <path d="M 178.337731 157.017558 
L 206.311346 157.017558 
L 206.311346 161.02181 
L 196.24735 161.02181 
L 196.24735 177.549248 
L 188.421243 177.549248 
L 188.421243 161.02181 
L 178.337731 161.02181 
L 178.337731 157.017558 
z
" clip-path="url(#p62a1831e63)" style="fill: #ff0000"/>
   </g>
   <g id="patch_19">
    <path d="M 235.757256 192.105644 
Q 232.936071 192.172822 229.90173 192.206564 
Q 226.867389 192.24 223.632431 192.24 
Q 216.322427 192.24 212.053034 192.039999 
Q 207.783641 191.839999 207.783641 191.497974 
Q 207.783641 191.15196 212.128266 190.953494 
Q 216.47916 190.755027 224.046204 190.755027 
Q 226.961429 190.755027 229.63215 190.782021 
Q 232.309141 190.808708 234.678936 190.861469 
L 234.678936 191.157482 
Q 232.23391 191.08969 229.81396 191.056255 
Q 227.39401 191.022512 224.961522 191.022512 
Q 220.460165 191.022512 218.021407 191.145825 
Q 215.58265 191.268832 215.58265 191.497974 
Q 215.58265 191.724968 217.933637 191.848895 
Q 220.284625 191.972515 224.610441 191.972515 
Q 225.78907 191.972515 226.798427 191.965459 
Q 227.807784 191.958097 228.610254 191.94276 
L 228.610254 191.664845 
L 224.002319 191.664845 
L 224.002319 191.417299 
L 235.757256 191.417299 
L 235.757256 192.105644 
z
" clip-path="url(#p62a1831e63)" style="fill: #ffa600"/>
   </g>
   <g id="patch_20">
    <path d="M 235.757256 190.412689 
Q 233.417311 190.582378 230.88707 190.668209 
Q 228.356829 190.755027 225.601051 190.755027 
Q 217.383052 190.755027 212.583347 190.111787 
Q 207.783641 189.468546 207.783641 188.368527 
Q 207.783641 187.264561 212.583347 186.622307 
Q 217.383052 185.979067 225.601051 185.979067 
Q 228.356829 185.979067 230.88707 186.065884 
Q 233.417311 186.151715 235.757256 186.321405 
L 235.757256 187.27344 
Q 233.396167 187.048503 231.105559 186.943927 
Q 228.81495 186.839351 226.284709 186.839351 
Q 221.74578 186.839351 219.145059 187.246802 
Q 216.551385 187.653267 216.551385 188.368527 
Q 216.551385 189.080826 219.145059 189.488278 
Q 221.74578 189.894742 226.284709 189.894742 
Q 228.81495 189.894742 231.105559 189.790166 
Q 233.396167 189.684604 235.757256 189.459667 
L 235.757256 190.412689 
z
" clip-path="url(#p62a1831e63)" style="fill: #0000ff"/>
   </g>
   <g id="patch_21">
    <path d="M 227.160989 184.911634 
L 216.402786 184.911634 
L 214.704122 185.979067 
L 207.783641 185.979067 
L 217.666775 180.119488 
L 225.874122 180.119488 
L 235.757256 185.979067 
L 228.842494 185.979067 
L 227.160989 184.911634 
z
M 218.118608 183.824108 
L 225.428009 183.824108 
L 221.779028 181.493337 
L 218.118608 183.824108 
z
" clip-path="url(#p62a1831e63)" style="fill: #008000"/>
   </g>
   <g id="patch_22">
    <path d="M 207.783641 168.279932 
L 235.757256 168.279932 
L 235.757256 170.588976 
L 225.69326 170.588976 
L 225.69326 180.119488 
L 217.867153 180.119488 
L 217.867153 170.588976 
L 207.783641 170.588976 
L 207.783641 168.279932 
z
" clip-path="url(#p62a1831e63)" style="fill: #ff0000"/>
   </g>
   <g id="patch_23">
    <path d="M 265.203166 192.121337 
Q 262.381981 192.180669 259.34764 192.21047 
Q 256.313299 192.24 253.078341 192.24 
Q 245.768337 192.24 241.498944 192.063361 
Q 237.229551 191.886721 237.229551 191.584647 
Q 237.229551 191.27905 241.574176 191.103765 
Q 245.92507 190.92848 253.492115 190.92848 
Q 256.407339 190.92848 259.078061 190.952321 
Q 261.755051 190.975891 264.124847 191.022489 
L 264.124847 191.283926 
Q 261.67982 191.224053 259.25987 191.194523 
Q 256.839921 191.164722 254.407432 191.164722 
Q 249.906075 191.164722 247.467318 191.273631 
Q 245.02856 191.38227 245.02856 191.584647 
Q 245.02856 191.785127 247.379547 191.894578 
Q 249.730535 192.003758 254.056352 192.003758 
Q 255.23498 192.003758 256.244337 191.997527 
Q 257.253694 191.991025 258.056165 191.977479 
L 258.056165 191.732027 
L 253.448229 191.732027 
L 253.448229 191.513395 
L 265.203166 191.513395 
L 265.203166 192.121337 
z
" clip-path="url(#p62a1831e63)" style="fill: #ffa600"/>
   </g>
   <g id="patch_24">
    <path d="M 256.606899 190.41211 
L 245.848696 190.41211 
L 244.150033 190.92848 
L 237.229551 190.92848 
L 247.112685 188.093911 
L 255.320033 188.093911 
L 265.203166 190.92848 
L 258.288404 190.92848 
L 256.606899 190.41211 
z
M 247.564518 189.88602 
L 254.873919 189.88602 
L 251.224938 188.75851 
L 247.564518 189.88602 
z
" clip-path="url(#p62a1831e63)" style="fill: #008000"/>
   </g>
   <g id="patch_25">
    <path d="M 265.203166 187.867988 
Q 262.863222 187.979973 260.33298 188.036617 
Q 257.802739 188.093911 255.046961 188.093911 
Q 246.828963 188.093911 242.029257 187.669409 
Q 237.229551 187.244907 237.229551 186.518957 
Q 237.229551 185.790402 242.029257 185.366551 
Q 246.828963 184.942049 255.046961 184.942049 
Q 257.802739 184.942049 260.33298 184.999343 
Q 262.863222 185.055987 265.203166 185.167972 
L 265.203166 185.796261 
Q 262.842078 185.647816 260.551469 185.578802 
Q 258.260861 185.509788 255.730619 185.509788 
Q 251.191691 185.509788 248.590969 185.778682 
Q 245.997296 186.046926 245.997296 186.518957 
Q 245.997296 186.989034 248.590969 187.257929 
Q 251.191691 187.526172 255.730619 187.526172 
Q 258.260861 187.526172 260.551469 187.457158 
Q 262.842078 187.387493 265.203166 187.239048 
L 265.203166 187.867988 
z
" clip-path="url(#p62a1831e63)" style="fill: #0000ff"/>
   </g>
   <g id="patch_26">
    <path d="M 237.229551 179.611371 
L 265.203166 179.611371 
L 265.203166 180.651001 
L 255.13917 180.651001 
L 255.13917 184.942049 
L 247.313064 184.942049 
L 247.313064 180.651001 
L 237.229551 180.651001 
L 237.229551 179.611371 
z
" clip-path="url(#p62a1831e63)" style="fill: #ff0000"/>
   </g>
   <g id="patch_27">
    <path d="M 294.649077 192.122966 
Q 291.827892 192.181483 288.793551 192.210875 
Q 285.75921 192.24 282.524251 192.24 
Q 275.214248 192.24 270.944855 192.065785 
Q 266.675462 191.891569 266.675462 191.593639 
Q 266.675462 191.292236 271.020086 191.119356 
Q 275.37098 190.946477 282.938025 190.946477 
Q 285.853249 190.946477 288.523971 190.969991 
Q 291.200962 190.993237 293.570757 191.039196 
L 293.570757 191.297045 
Q 291.12573 191.237994 288.705781 191.208869 
Q 286.285831 191.179477 283.853343 191.179477 
Q 279.351986 191.179477 276.913228 191.286892 
Q 274.47447 191.39404 274.47447 191.593639 
Q 274.47447 191.791368 276.825458 191.899318 
Q 279.176445 192.007 283.502262 192.007 
Q 284.68089 192.007 285.690247 192.000855 
Q 286.699605 191.994442 287.502075 191.981082 
L 287.502075 191.738997 
L 282.89414 191.738997 
L 282.89414 191.523365 
L 294.649077 191.523365 
L 294.649077 192.122966 
z
" clip-path="url(#p62a1831e63)" style="fill: #ffa600"/>
   </g>
   <g id="patch_28">
    <path d="M 286.052809 190.158554 
L 275.294607 190.158554 
L 273.595943 190.946477 
L 266.675462 190.946477 
L 276.558595 186.621243 
L 284.765943 186.621243 
L 294.649077 190.946477 
L 287.734315 190.946477 
L 286.052809 190.158554 
z
M 277.010428 189.355799 
L 284.319829 189.355799 
L 280.670848 187.635346 
L 277.010428 189.355799 
z
" clip-path="url(#p62a1831e63)" style="fill: #008000"/>
   </g>
   <g id="patch_29">
    <path d="M 294.649077 186.088105 
Q 292.309132 186.352369 289.778891 186.486038 
Q 287.248649 186.621243 284.492871 186.621243 
Q 276.274873 186.621243 271.475167 185.619497 
Q 266.675462 184.617751 266.675462 182.904642 
Q 266.675462 181.185387 271.475167 180.185177 
Q 276.274873 179.183431 284.492871 179.183431 
Q 287.248649 179.183431 289.778891 179.318636 
Q 292.309132 179.452304 294.649077 179.716569 
L 294.649077 181.199215 
Q 292.287988 180.848911 289.997379 180.68605 
Q 287.706771 180.52319 285.17653 180.52319 
Q 280.637601 180.52319 278.036879 181.157731 
Q 275.443206 181.790737 275.443206 182.904642 
Q 275.443206 184.013937 278.036879 184.648479 
Q 280.637601 185.281484 285.17653 185.281484 
Q 287.706771 185.281484 289.997379 185.118624 
Q 292.287988 184.954227 294.649077 184.603923 
L 294.649077 186.088105 
z
" clip-path="url(#p62a1831e63)" style="fill: #0000ff"/>
   </g>
   <g id="patch_30">
    <path d="M 266.675462 168.10758 
L 294.649077 168.10758 
L 294.649077 170.26768 
L 284.585081 170.26768 
L 284.585081 179.183431 
L 276.758974 179.183431 
L 276.758974 170.26768 
L 266.675462 170.26768 
L 266.675462 168.10758 
z
" clip-path="url(#p62a1831e63)" style="fill: #ff0000"/>
   </g>
   <g id="patch_31">
    <path d="M 324.094987 192.06374 
Q 321.273802 192.15187 318.239461 192.196136 
Q 315.20512 192.24 311.970161 192.24 
Q 304.660158 192.24 300.390765 191.977622 
Q 296.121372 191.715244 296.121372 191.266545 
Q 296.121372 190.812614 300.465997 190.552248 
Q 304.816891 190.291882 312.383935 190.291882 
Q 315.299159 190.291882 317.969881 190.327295 
Q 320.646872 190.362306 323.016667 190.431522 
L 323.016667 190.819858 
Q 320.57164 190.730923 318.151691 190.687059 
Q 315.731741 190.642793 313.299253 190.642793 
Q 308.797896 190.642793 306.359138 190.804566 
Q 303.920381 190.965937 303.920381 191.266545 
Q 303.920381 191.564336 306.271368 191.726914 
Q 308.622355 191.889089 312.948172 191.889089 
Q 314.1268 191.889089 315.136158 191.879834 
Q 316.145515 191.870176 316.947985 191.850054 
L 316.947985 191.485461 
L 312.34005 191.485461 
L 312.34005 191.160708 
L 324.094987 191.160708 
L 324.094987 192.06374 
z
" clip-path="url(#p62a1831e63)" style="fill: #ffa600"/>
   </g>
   <g id="patch_32">
    <path d="M 315.49872 189.418311 
L 304.740517 189.418311 
L 303.041853 190.291882 
L 296.121372 190.291882 
L 306.004506 185.496491 
L 314.211853 185.496491 
L 324.094987 190.291882 
L 317.180225 190.291882 
L 315.49872 189.418311 
z
M 306.456339 188.528296 
L 313.76574 188.528296 
L 310.116759 186.620828 
L 306.456339 188.528296 
z
" clip-path="url(#p62a1831e63)" style="fill: #008000"/>
   </g>
   <g id="patch_33">
    <path d="M 324.094987 184.749952 
Q 321.755042 185.119994 319.224801 185.307167 
Q 316.69456 185.496491 313.938781 185.496491 
Q 305.720783 185.496491 300.921078 184.093773 
Q 296.121372 182.691054 296.121372 180.292234 
Q 296.121372 177.884808 300.921078 176.484242 
Q 305.720783 175.081524 313.938781 175.081524 
Q 316.69456 175.081524 319.224801 175.270847 
Q 321.755042 175.45802 324.094987 175.828062 
L 324.094987 177.904171 
Q 321.733898 177.41365 319.44329 177.185601 
Q 317.152681 176.957552 314.62244 176.957552 
Q 310.083511 176.957552 307.48279 177.846083 
Q 304.889116 178.732463 304.889116 180.292234 
Q 304.889116 181.845551 307.48279 182.734083 
Q 310.083511 183.620463 314.62244 183.620463 
Q 317.152681 183.620463 319.44329 183.392414 
Q 321.733898 183.162213 324.094987 182.671692 
L 324.094987 184.749952 
z
" clip-path="url(#p62a1831e63)" style="fill: #0000ff"/>
   </g>
   <g id="patch_34">
    <path d="M 296.121372 147.508124 
L 324.094987 147.508124 
L 324.094987 152.885706 
L 314.030991 152.885706 
L 314.030991 175.081524 
L 306.204884 175.081524 
L 306.204884 152.885706 
L 296.121372 152.885706 
L 296.121372 147.508124 
z
" clip-path="url(#p62a1831e63)" style="fill: #ff0000"/>
   </g>
   <g id="patch_35">
    <path d="M 353.540897 191.92633 
Q 350.719712 192.083165 347.685371 192.161941 
Q 344.65103 192.24 341.416072 192.24 
Q 334.106068 192.24 329.836675 191.773075 
Q 325.567282 191.306151 325.567282 190.507653 
Q 325.567282 189.699845 329.911907 189.236501 
Q 334.262801 188.773157 341.829845 188.773157 
Q 344.74507 188.773157 347.415791 188.836178 
Q 350.092782 188.898482 352.462578 189.021658 
L 352.462578 189.712735 
Q 350.017551 189.554468 347.597601 189.476409 
Q 345.177651 189.397633 342.745163 189.397633 
Q 338.243806 189.397633 335.805049 189.685522 
Q 333.366291 189.972695 333.366291 190.507653 
Q 333.366291 191.037598 335.717278 191.326919 
Q 338.068266 191.615524 342.394082 191.615524 
Q 343.572711 191.615524 344.582068 191.599053 
Q 345.591425 191.581866 346.393896 191.546059 
L 346.393896 190.897234 
L 341.78596 190.897234 
L 341.78596 190.319307 
L 353.540897 190.319307 
L 353.540897 191.92633 
z
" clip-path="url(#p62a1831e63)" style="fill: #ffa600"/>
   </g>
   <g id="patch_36">
    <path d="M 353.540897 188.470293 
Q 351.200953 188.620416 348.670711 188.69635 
Q 346.14047 188.773157 343.384692 188.773157 
Q 335.166694 188.773157 330.366988 188.204086 
Q 325.567282 187.635015 325.567282 186.661834 
Q 325.567282 185.685161 330.366988 185.116963 
Q 335.166694 184.547892 343.384692 184.547892 
Q 346.14047 184.547892 348.670711 184.624699 
Q 351.200953 184.700633 353.540897 184.850756 
L 353.540897 185.693017 
Q 351.179808 185.494016 348.8892 185.401499 
Q 346.598592 185.308981 344.06835 185.308981 
Q 339.529422 185.308981 336.9287 185.669451 
Q 334.335027 186.029048 334.335027 186.661834 
Q 334.335027 187.292001 336.9287 187.652471 
Q 339.529422 188.012068 344.06835 188.012068 
Q 346.598592 188.012068 348.8892 187.919551 
Q 351.179808 187.82616 353.540897 187.62716 
L 353.540897 188.470293 
z
" clip-path="url(#p62a1831e63)" style="fill: #0000ff"/>
   </g>
   <g id="patch_37">
    <path d="M 344.94463 182.791377 
L 334.186427 182.791377 
L 332.487764 184.547892 
L 325.567282 184.547892 
L 335.450416 174.905657 
L 343.657764 174.905657 
L 353.540897 184.547892 
L 346.626135 184.547892 
L 344.94463 182.791377 
z
M 335.902249 181.001798 
L 343.21165 181.001798 
L 339.562669 177.166395 
L 335.902249 181.001798 
z
" clip-path="url(#p62a1831e63)" style="fill: #008000"/>
   </g>
   <g id="patch_38">
    <path d="M 325.567282 127.561303 
L 353.540897 127.561303 
L 353.540897 136.794771 
L 343.476901 136.794771 
L 343.476901 174.905657 
L 335.650795 174.905657 
L 335.650795 136.794771 
L 325.567282 136.794771 
L 325.567282 127.561303 
z
" clip-path="url(#p62a1831e63)" style="fill: #ff0000"/>
   </g>
   <g id="patch_39">
    <path d="M 382.986807 191.886901 
Q 380.165623 192.06345 377.131282 192.152128 
Q 374.096941 192.24 370.861982 192.24 
Q 363.551979 192.24 359.282586 191.714382 
Q 355.013193 191.188764 355.013193 190.289894 
Q 355.013193 189.380543 359.357817 188.858956 
Q 363.708711 188.337369 371.275756 188.337369 
Q 374.19098 188.337369 376.861702 188.408311 
Q 379.538693 188.478447 381.908488 188.617107 
L 381.908488 189.395054 
Q 379.463461 189.216892 377.043511 189.12902 
Q 374.623562 189.040342 372.191073 189.040342 
Q 367.689716 189.040342 365.250959 189.364419 
Q 362.812201 189.68769 362.812201 190.289894 
Q 362.812201 190.886454 365.163189 191.212143 
Q 367.514176 191.537027 371.839993 191.537027 
Q 373.018621 191.537027 374.027978 191.518485 
Q 375.037336 191.499137 375.839806 191.458829 
L 375.839806 190.728446 
L 371.231871 190.728446 
L 371.231871 190.077873 
L 382.986807 190.077873 
L 382.986807 191.886901 
z
" clip-path="url(#p62a1831e63)" style="fill: #ffa600"/>
   </g>
   <g id="patch_40">
    <path d="M 382.986807 187.985694 
Q 380.646863 188.160011 378.116621 188.248183 
Q 375.58638 188.337369 372.830602 188.337369 
Q 364.612604 188.337369 359.812898 187.676586 
Q 355.013193 187.015802 355.013193 185.885782 
Q 355.013193 184.751707 359.812898 184.091938 
Q 364.612604 183.431154 372.830602 183.431154 
Q 375.58638 183.431154 378.116621 183.52034 
Q 380.646863 183.608512 382.986807 183.782829 
L 382.986807 184.760829 
Q 380.625719 184.529757 378.33511 184.422329 
Q 376.044502 184.314901 373.514261 184.314901 
Q 368.975332 184.314901 366.37461 184.733465 
Q 363.780937 185.151015 363.780937 185.885782 
Q 363.780937 186.617508 366.37461 187.036072 
Q 368.975332 187.453622 373.514261 187.453622 
Q 376.044502 187.453622 378.33511 187.346194 
Q 380.625719 187.237752 382.986807 187.006681 
L 382.986807 187.985694 
z
" clip-path="url(#p62a1831e63)" style="fill: #0000ff"/>
   </g>
   <g id="patch_41">
    <path d="M 374.39054 181.968642 
L 363.632337 181.968642 
L 361.933674 183.431154 
L 355.013193 183.431154 
L 364.896326 175.402822 
L 373.103674 175.402822 
L 382.986807 183.431154 
L 376.072046 183.431154 
L 374.39054 181.968642 
z
M 365.348159 180.4786 
L 372.65756 180.4786 
L 369.008579 177.285161 
L 365.348159 180.4786 
z
" clip-path="url(#p62a1831e63)" style="fill: #008000"/>
   </g>
   <g id="patch_42">
    <path d="M 355.013193 125.671733 
L 382.986807 125.671733 
L 382.986807 135.370681 
L 372.922812 135.370681 
L 372.922812 175.402822 
L 365.096705 175.402822 
L 365.096705 135.370681 
L 355.013193 135.370681 
L 355.013193 125.671733 
z
" clip-path="url(#p62a1831e63)" style="fill: #ff0000"/>
   </g>
   <g id="patch_43">
    <path d="M 403.83645 191.806701 
L 393.078248 191.806701 
L 391.379584 192.24 
L 384.459103 192.24 
L 394.342236 189.861443 
L 402.549584 189.861443 
L 412.432718 192.24 
L 405.517956 192.24 
L 403.83645 191.806701 
z
M 394.79407 191.365246 
L 402.10347 191.365246 
L 398.454489 190.419125 
L 394.79407 191.365246 
z
" clip-path="url(#p62a1831e63)" style="fill: #008000"/>
   </g>
   <g id="patch_44">
    <path d="M 412.432718 189.592438 
Q 409.611533 189.726941 406.577192 189.794499 
Q 403.542851 189.861443 400.307892 189.861443 
Q 392.997889 189.861443 388.728496 189.461007 
Q 384.459103 189.060571 384.459103 188.375775 
Q 384.459103 187.682996 388.803728 187.28563 
Q 393.154621 186.888265 400.721666 186.888265 
Q 403.63689 186.888265 406.307612 186.942312 
Q 408.984603 186.995744 411.354398 187.101381 
L 411.354398 187.694051 
Q 408.909371 187.55832 406.489422 187.491376 
Q 404.069472 187.423818 401.636984 187.423818 
Q 397.135627 187.423818 394.696869 187.670713 
Q 392.258112 187.916993 392.258112 188.375775 
Q 392.258112 188.830258 394.609099 189.078381 
Q 396.960086 189.32589 401.285903 189.32589 
Q 402.464531 189.32589 403.473889 189.311765 
Q 404.483246 189.297025 405.285716 189.266316 
L 405.285716 188.709882 
L 400.677781 188.709882 
L 400.677781 188.21425 
L 412.432718 188.21425 
L 412.432718 189.592438 
z
" clip-path="url(#p62a1831e63)" style="fill: #ffa600"/>
   </g>
   <g id="patch_45">
    <path d="M 412.432718 185.899407 
Q 410.092773 186.389561 407.562532 186.637488 
Q 405.03229 186.888265 402.276512 186.888265 
Q 394.058514 186.888265 389.258809 185.030237 
Q 384.459103 183.172209 384.459103 179.994753 
Q 384.459103 176.805899 389.258809 174.95072 
Q 394.058514 173.092692 402.276512 173.092692 
Q 405.03229 173.092692 407.562532 173.343469 
Q 410.092773 173.591396 412.432718 174.081551 
L 412.432718 176.831546 
Q 410.071629 176.181806 407.781021 175.879734 
Q 405.490412 175.577662 402.960171 175.577662 
Q 398.421242 175.577662 395.820521 176.754603 
Q 393.226847 177.928695 393.226847 179.994753 
Q 393.226847 182.052263 395.820521 183.229204 
Q 398.421242 184.403295 402.960171 184.403295 
Q 405.490412 184.403295 407.781021 184.101223 
Q 410.071629 183.796301 412.432718 183.146561 
L 412.432718 185.899407 
z
" clip-path="url(#p62a1831e63)" style="fill: #0000ff"/>
   </g>
   <g id="patch_46">
    <path d="M 384.459103 121.240424 
L 412.432718 121.240424 
L 412.432718 131.353061 
L 402.368722 131.353061 
L 402.368722 173.092692 
L 394.542615 173.092692 
L 394.542615 131.353061 
L 384.459103 131.353061 
L 384.459103 121.240424 
z
" clip-path="url(#p62a1831e63)" style="fill: #ff0000"/>
   </g>
   <g id="patch_47">
    <path d="M 441.878628 192.085823 
Q 439.057443 192.162911 436.023102 192.201632 
Q 432.988761 192.24 429.753803 192.24 
Q 422.443799 192.24 418.174406 192.010494 
Q 413.905013 191.780989 413.905013 191.388506 
Q 413.905013 190.991447 418.249638 190.763701 
Q 422.600532 190.535956 430.167576 190.535956 
Q 433.082801 190.535956 435.753522 190.566932 
Q 438.430513 190.597556 440.800308 190.658101 
L 440.800308 190.997783 
Q 438.355282 190.919991 435.935332 190.881622 
Q 433.515382 190.842902 431.082894 190.842902 
Q 426.581537 190.842902 424.142779 190.984407 
Q 421.704022 191.12556 421.704022 191.388506 
Q 421.704022 191.648988 424.055009 191.791197 
Q 426.405997 191.933054 430.731813 191.933054 
Q 431.910442 191.933054 432.919799 191.924958 
Q 433.929156 191.91651 434.731626 191.89891 
L 434.731626 191.579995 
L 430.123691 191.579995 
L 430.123691 191.295929 
L 441.878628 191.295929 
L 441.878628 192.085823 
z
" clip-path="url(#p62a1831e63)" style="fill: #ffa600"/>
   </g>
   <g id="patch_48">
    <path d="M 441.878628 190.060948 
Q 439.538683 190.296398 437.008442 190.415493 
Q 434.478201 190.535956 431.722423 190.535956 
Q 423.504424 190.535956 418.704719 189.643433 
Q 413.905013 188.750911 413.905013 187.224588 
Q 413.905013 185.692789 418.704719 184.801635 
Q 423.504424 183.909113 431.722423 183.909113 
Q 434.478201 183.909113 437.008442 184.029576 
Q 439.538683 184.14867 441.878628 184.384121 
L 441.878628 185.705109 
Q 439.517539 185.393 437.226931 185.247897 
Q 434.936322 185.102793 432.406081 185.102793 
Q 427.867152 185.102793 425.266431 185.668149 
Q 422.672757 186.232135 422.672757 187.224588 
Q 422.672757 188.212933 425.266431 188.778289 
Q 427.867152 189.342275 432.406081 189.342275 
Q 434.936322 189.342275 437.226931 189.197172 
Q 439.517539 189.0507 441.878628 188.738591 
L 441.878628 190.060948 
z
" clip-path="url(#p62a1831e63)" style="fill: #0000ff"/>
   </g>
   <g id="patch_49">
    <path d="M 433.282361 182.609926 
L 422.524158 182.609926 
L 420.825494 183.909113 
L 413.905013 183.909113 
L 423.788147 176.777342 
L 431.995494 176.777342 
L 441.878628 183.909113 
L 434.963866 183.909113 
L 433.282361 182.609926 
z
M 424.23998 181.286284 
L 431.549381 181.286284 
L 427.9004 178.449471 
L 424.23998 181.286284 
z
" clip-path="url(#p62a1831e63)" style="fill: #008000"/>
   </g>
   <g id="patch_50">
    <path d="M 413.905013 154.56158 
L 441.878628 154.56158 
L 441.878628 158.894272 
L 431.814632 158.894272 
L 431.814632 176.777342 
L 423.988525 176.777342 
L 423.988525 158.894272 
L 413.905013 158.894272 
L 413.905013 154.56158 
z
" clip-path="url(#p62a1831e63)" style="fill: #ff0000"/>
   </g>
   <g id="patch_51">
    <path d="M 471.324538 192.08488 
Q 468.984594 192.161769 466.454352 192.200661 
Q 463.924111 192.24 461.168333 192.24 
Q 452.950335 192.24 448.150629 191.948535 
Q 443.350923 191.657071 443.350923 191.158631 
Q 443.350923 190.658402 448.150629 190.367385 
Q 452.950335 190.07592 461.168333 190.07592 
Q 463.924111 190.07592 466.454352 190.115259 
Q 468.984594 190.154151 471.324538 190.23104 
L 471.324538 190.662425 
Q 468.96345 190.560502 466.672841 190.513117 
Q 464.382233 190.465732 461.851991 190.465732 
Q 457.313063 190.465732 454.712341 190.650356 
Q 452.118668 190.834533 452.118668 191.158631 
Q 452.118668 191.481387 454.712341 191.666011 
Q 457.313063 191.850188 461.851991 191.850188 
Q 464.382233 191.850188 466.672841 191.802803 
Q 468.96345 191.754971 471.324538 191.653048 
L 471.324538 192.08488 
z
" clip-path="url(#p62a1831e63)" style="fill: #0000ff"/>
   </g>
   <g id="patch_52">
    <path d="M 471.324538 189.810723 
Q 468.503353 189.943321 465.469012 190.009923 
Q 462.434671 190.07592 459.199713 190.07592 
Q 451.88971 190.07592 447.620317 189.681152 
Q 443.350923 189.286383 443.350923 188.611281 
Q 443.350923 187.928307 447.695548 187.536566 
Q 452.046442 187.144825 459.613487 187.144825 
Q 462.528711 187.144825 465.199433 187.198107 
Q 467.876423 187.250783 470.246219 187.354925 
L 470.246219 187.939206 
Q 467.801192 187.805396 465.381242 187.7394 
Q 462.961293 187.672798 460.528804 187.672798 
Q 456.027447 187.672798 453.58869 187.916198 
Q 451.149932 188.158993 451.149932 188.611281 
Q 451.149932 189.059331 453.50092 189.303942 
Q 455.851907 189.547948 460.177724 189.547948 
Q 461.356352 189.547948 462.365709 189.534022 
Q 463.375066 189.51949 464.177537 189.489217 
L 464.177537 188.940658 
L 459.569602 188.940658 
L 459.569602 188.452042 
L 471.324538 188.452042 
L 471.324538 189.810723 
z
" clip-path="url(#p62a1831e63)" style="fill: #ffa600"/>
   </g>
   <g id="patch_53">
    <path d="M 443.350923 183.830215 
L 471.324538 183.830215 
L 471.324538 184.476657 
L 461.260542 184.476657 
L 461.260542 187.144825 
L 453.434436 187.144825 
L 453.434436 184.476657 
L 443.350923 184.476657 
L 443.350923 183.830215 
z
" clip-path="url(#p62a1831e63)" style="fill: #ff0000"/>
   </g>
   <g id="patch_54">
    <path d="M 462.728271 182.383046 
L 451.970068 182.383046 
L 450.271405 183.830215 
L 443.350923 183.830215 
L 453.234057 175.886108 
L 461.441405 175.886108 
L 471.324538 183.830215 
L 464.409776 183.830215 
L 462.728271 182.383046 
z
M 453.68589 180.908636 
L 460.995291 180.908636 
L 457.34631 177.7487 
L 453.68589 180.908636 
z
" clip-path="url(#p62a1831e63)" style="fill: #008000"/>
   </g>
   <g id="patch_55">
    <path d="M 492.174181 192.19327 
L 481.415979 192.19327 
L 479.717315 192.24 
L 472.796834 192.24 
L 482.679967 191.983481 
L 490.887315 191.983481 
L 500.770449 192.24 
L 493.855687 192.24 
L 492.174181 192.19327 
z
M 483.1318 192.145661 
L 490.441201 192.145661 
L 486.79222 192.043625 
L 483.1318 192.145661 
z
" clip-path="url(#p62a1831e63)" style="fill: #008000"/>
   </g>
   <g id="patch_56">
    <path d="M 472.796834 191.726962 
L 500.770449 191.726962 
L 500.770449 191.77699 
L 490.706453 191.77699 
L 490.706453 191.983481 
L 482.880346 191.983481 
L 482.880346 191.77699 
L 472.796834 191.77699 
L 472.796834 191.726962 
z
" clip-path="url(#p62a1831e63)" style="fill: #ff0000"/>
   </g>
   <g id="patch_57">
    <path d="M 500.770449 191.49487 
Q 497.949264 191.610916 494.914923 191.669204 
Q 491.880582 191.726962 488.645623 191.726962 
Q 481.33562 191.726962 477.066227 191.381474 
Q 472.796834 191.035987 472.796834 190.445161 
Q 472.796834 189.847446 477.141458 189.504608 
Q 481.492352 189.16177 489.059397 189.16177 
Q 491.974621 189.16177 494.645343 189.208401 
Q 497.322334 189.254501 499.692129 189.345642 
L 499.692129 189.856984 
Q 497.247102 189.739879 494.827153 189.682121 
Q 492.407203 189.623833 489.974715 189.623833 
Q 485.473358 189.623833 483.0346 189.836849 
Q 480.595842 190.049334 480.595842 190.445161 
Q 480.595842 190.837279 482.94683 191.051354 
Q 485.297817 191.264899 489.623634 191.264899 
Q 490.802262 191.264899 491.811619 191.252711 
Q 492.820977 191.239994 493.623447 191.2135 
L 493.623447 190.73342 
L 489.015512 190.73342 
L 489.015512 190.3058 
L 500.770449 190.3058 
L 500.770449 191.49487 
z
" clip-path="url(#p62a1831e63)" style="fill: #ffa600"/>
   </g>
   <g id="patch_58">
    <path d="M 500.770449 178.405031 
Q 498.430504 183.736902 495.900263 186.433836 
Q 493.370021 189.16177 490.614243 189.16177 
Q 482.396245 189.16177 477.596539 168.95026 
Q 472.796834 148.738749 472.796834 114.174585 
Q 472.796834 79.486425 477.596539 59.305914 
Q 482.396245 39.094403 490.614243 39.094403 
Q 493.370021 39.094403 495.900263 41.822337 
Q 498.430504 44.519271 500.770449 49.851142 
L 500.770449 79.765418 
Q 498.40936 72.697589 496.118751 69.411669 
Q 493.828143 66.125748 491.297902 66.125748 
Q 486.758973 66.125748 484.158252 78.928439 
Q 481.564578 91.700129 481.564578 114.174585 
Q 481.564578 136.556044 484.158252 149.358734 
Q 486.758973 162.130425 491.297902 162.130425 
Q 493.828143 162.130425 496.118751 158.844504 
Q 498.40936 155.527585 500.770449 148.459756 
L 500.770449 178.405031 
z
" clip-path="url(#p62a1831e63)" style="fill: #0000ff"/>
   </g>
   <g id="patch_59">
    <path d="M 521.620092 192.195728 
L 510.861889 192.195728 
L 509.163225 192.24 
L 502.242744 192.24 
L 512.125878 191.99697 
L 520.333225 191.99697 
L 530.216359 192.24 
L 523.301597 192.24 
L 521.620092 192.195728 
z
M 512.577711 192.150622 
L 519.887112 192.150622 
L 516.238131 192.053952 
L 512.577711 192.150622 
z
" clip-path="url(#p62a1831e63)" style="fill: #008000"/>
   </g>
   <g id="patch_60">
    <path d="M 530.216359 191.974982 
Q 527.395174 191.985976 524.360833 191.991498 
Q 521.326492 191.99697 518.091533 191.99697 
Q 510.78153 191.99697 506.512137 191.964238 
Q 502.242744 191.931507 502.242744 191.875531 
Q 502.242744 191.818903 506.587369 191.786422 
Q 510.938263 191.753941 518.505307 191.753941 
Q 521.420532 191.753941 524.091253 191.758359 
Q 526.768244 191.762726 529.138039 191.771361 
L 529.138039 191.819806 
Q 526.693012 191.808712 524.273063 191.803239 
Q 521.853113 191.797717 519.420625 191.797717 
Q 514.919268 191.797717 512.48051 191.817899 
Q 510.041753 191.83803 510.041753 191.875531 
Q 510.041753 191.912681 512.39274 191.932962 
Q 514.743727 191.953194 519.069544 191.953194 
Q 520.248172 191.953194 521.25753 191.952039 
Q 522.266887 191.950834 523.069357 191.948324 
L 523.069357 191.902841 
L 518.461422 191.902841 
L 518.461422 191.862328 
L 530.216359 191.862328 
L 530.216359 191.974982 
z
" clip-path="url(#p62a1831e63)" style="fill: #ffa600"/>
   </g>
   <g id="patch_61">
    <path d="M 530.216359 191.388106 
Q 527.876414 191.569442 525.346173 191.661164 
Q 522.815932 191.753941 520.060154 191.753941 
Q 511.842155 191.753941 507.04245 191.066551 
Q 502.242744 190.37916 502.242744 189.203639 
Q 502.242744 188.0239 507.04245 187.337564 
Q 511.842155 186.650174 520.060154 186.650174 
Q 522.815932 186.650174 525.346173 186.74295 
Q 527.876414 186.834673 530.216359 187.016009 
L 530.216359 188.033388 
Q 527.85527 187.793013 525.564662 187.681259 
Q 523.274053 187.569505 520.743812 187.569505 
Q 516.204883 187.569505 513.604162 188.004923 
Q 511.010488 188.439286 511.010488 189.203639 
Q 511.010488 189.964828 513.604162 190.400246 
Q 516.204883 190.834609 520.743812 190.834609 
Q 523.274053 190.834609 525.564662 190.722855 
Q 527.85527 190.610048 530.216359 190.369672 
L 530.216359 191.388106 
z
" clip-path="url(#p62a1831e63)" style="fill: #0000ff"/>
   </g>
   <g id="patch_62">
    <path d="M 502.242744 47.147691 
L 530.216359 47.147691 
L 530.216359 74.354562 
L 520.152363 74.354562 
L 520.152363 186.650174 
L 512.326256 186.650174 
L 512.326256 74.354562 
L 502.242744 74.354562 
L 502.242744 47.147691 
z
" clip-path="url(#p62a1831e63)" style="fill: #ff0000"/>
   </g>
   <g id="patch_63">
    <path d="M 531.688654 25.92 
L 559.662269 25.92 
L 559.662269 58.357034 
L 549.598273 58.357034 
L 549.598273 192.24 
L 541.772167 192.24 
L 541.772167 58.357034 
L 531.688654 58.357034 
L 531.688654 25.92 
z
" clip-path="url(#p62a1831e63)" style="fill: #ff0000"/>
   </g>
   <g id="patch_64">
    <path d="M 589.108179 192.220209 
Q 586.768235 192.230019 584.237994 192.234981 
Q 581.707752 192.24 578.951974 192.24 
Q 570.733976 192.24 565.93427 192.202814 
Q 561.134565 192.165629 561.134565 192.102036 
Q 561.134565 192.038216 565.93427 192.001088 
Q 570.733976 191.963902 578.951974 191.963902 
Q 581.707752 191.963902 584.237994 191.968921 
Q 586.768235 191.973883 589.108179 191.983692 
L 589.108179 192.03873 
Q 586.747091 192.025726 584.456482 192.01968 
Q 582.165874 192.013635 579.635633 192.013635 
Q 575.096704 192.013635 572.495982 192.03719 
Q 569.902309 192.060687 569.902309 192.102036 
Q 569.902309 192.143215 572.495982 192.166769 
Q 575.096704 192.190267 579.635633 192.190267 
Q 582.165874 192.190267 584.456482 192.184221 
Q 586.747091 192.178119 589.108179 192.165115 
L 589.108179 192.220209 
z
" clip-path="url(#p62a1831e63)" style="fill: #0000ff"/>
   </g>
   <g id="patch_65">
    <path d="M 561.134565 27.405296 
L 589.108179 27.405296 
L 589.108179 59.498809 
L 579.044184 59.498809 
L 579.044184 191.963902 
L 571.218077 191.963902 
L 571.218077 59.498809 
L 561.134565 59.498809 
L 561.134565 27.405296 
z
" clip-path="url(#p62a1831e63)" style="fill: #ff0000"/>
   </g>
   <g id="patch_66">
    <path d="M 618.55409 192.226205 
Q 615.732905 192.233103 612.698564 192.236567 
Q 609.664223 192.24 606.429264 192.24 
Q 599.119261 192.24 594.849868 192.219465 
Q 590.580475 192.198931 590.580475 192.163814 
Q 590.580475 192.128288 594.9251 192.10791 
Q 599.275993 192.087533 606.843038 192.087533 
Q 609.758262 192.087533 612.428984 192.090305 
Q 615.105975 192.093045 617.47577 192.098462 
L 617.47577 192.128855 
Q 615.030743 192.121894 612.610794 192.118461 
Q 610.190844 192.114997 607.758356 192.114997 
Q 603.256999 192.114997 600.818241 192.127658 
Q 598.379484 192.140287 598.379484 192.163814 
Q 598.379484 192.18712 600.730471 192.199844 
Q 603.081458 192.212536 607.407275 192.212536 
Q 608.585903 192.212536 609.595261 192.211812 
Q 610.604618 192.211056 611.407088 192.209481 
L 611.407088 192.180947 
L 606.799153 192.180947 
L 606.799153 192.155531 
L 618.55409 192.155531 
L 618.55409 192.226205 
z
" clip-path="url(#p62a1831e63)" style="fill: #ffa600"/>
   </g>
   <g id="patch_67">
    <path d="M 618.55409 191.847095 
Q 616.214145 191.966275 613.683904 192.026558 
Q 611.153663 192.087533 608.397884 192.087533 
Q 600.179886 192.087533 595.380181 191.635758 
Q 590.580475 191.183984 590.580475 190.411393 
Q 590.580475 189.636031 595.380181 189.18495 
Q 600.179886 188.733175 608.397884 188.733175 
Q 611.153663 188.733175 613.683904 188.79415 
Q 616.214145 188.854433 618.55409 188.973613 
L 618.55409 189.642268 
Q 616.193001 189.484285 613.902393 189.410837 
Q 611.611784 189.337389 609.081543 189.337389 
Q 604.542614 189.337389 601.941893 189.623559 
Q 599.348219 189.909036 599.348219 190.411393 
Q 599.348219 190.911672 601.941893 191.197842 
Q 604.542614 191.483319 609.081543 191.483319 
Q 611.611784 191.483319 613.902393 191.409871 
Q 616.193001 191.33573 618.55409 191.177748 
L 618.55409 191.847095 
z
" clip-path="url(#p62a1831e63)" style="fill: #0000ff"/>
   </g>
   <g id="patch_68">
    <path d="M 609.957822 185.816766 
L 599.19962 185.816766 
L 597.500956 188.733175 
L 590.580475 188.733175 
L 600.463609 172.723806 
L 608.670956 172.723806 
L 618.55409 188.733175 
L 611.639328 188.733175 
L 609.957822 185.816766 
z
M 600.915442 182.84546 
L 608.224842 182.84546 
L 604.575861 176.477396 
L 600.915442 182.84546 
z
" clip-path="url(#p62a1831e63)" style="fill: #008000"/>
   </g>
   <g id="patch_69">
    <path d="M 590.580475 101.215101 
L 618.55409 101.215101 
L 618.55409 115.161291 
L 608.490094 115.161291 
L 608.490094 172.723806 
L 600.663987 172.723806 
L 600.663987 115.161291 
L 590.580475 115.161291 
L 590.580475 101.215101 
z
" clip-path="url(#p62a1831e63)" style="fill: #ff0000"/>
   </g>
   <g id="patch_70">
    <path d="M 639.403733 191.560089 
L 628.64553 191.560089 
L 626.946866 192.24 
L 620.026385 192.24 
L 629.909519 188.507687 
L 638.116866 188.507687 
L 648 192.24 
L 641.085238 192.24 
L 639.403733 191.560089 
z
M 630.361352 190.867379 
L 637.670753 190.867379 
L 634.021772 189.382773 
L 630.361352 190.867379 
z
" clip-path="url(#p62a1831e63)" style="fill: #008000"/>
   </g>
   <g id="patch_71">
    <path d="M 648 188.141593 
Q 645.660055 188.323057 643.129814 188.414845 
Q 640.599573 188.507687 637.843795 188.507687 
Q 629.625796 188.507687 624.826091 187.819809 
Q 620.026385 187.131932 620.026385 185.955577 
Q 620.026385 184.775002 624.826091 184.088179 
Q 629.625796 183.400301 637.843795 183.400301 
Q 640.599573 183.400301 643.129814 183.493144 
Q 645.660055 183.584931 648 183.766396 
L 648 184.784497 
Q 645.638911 184.543951 643.348303 184.432118 
Q 641.057694 184.320285 638.527453 184.320285 
Q 633.988525 184.320285 631.387803 184.756011 
Q 628.794129 185.190682 628.794129 185.955577 
Q 628.794129 186.717306 631.387803 187.153032 
Q 633.988525 187.587704 638.527453 187.587704 
Q 641.057694 187.587704 643.348303 187.475871 
Q 645.638911 187.362983 648 187.122437 
L 648 188.141593 
z
" clip-path="url(#p62a1831e63)" style="fill: #0000ff"/>
   </g>
   <g id="patch_72">
    <path d="M 648 182.890802 
Q 645.178815 183.145552 642.144474 183.273508 
Q 639.110133 183.400301 635.875175 183.400301 
Q 628.565171 183.400301 624.295778 182.641868 
Q 620.026385 181.883436 620.026385 180.586423 
Q 620.026385 179.274287 624.37101 178.521671 
Q 628.721904 177.769054 636.288948 177.769054 
Q 639.204173 177.769054 641.874894 177.871419 
Q 644.551885 177.972621 646.92168 178.172698 
L 646.92168 179.295226 
Q 644.476654 179.038149 642.056704 178.911356 
Q 639.636754 178.7834 637.204266 178.7834 
Q 632.702909 178.7834 630.264151 179.251022 
Q 627.825394 179.717482 627.825394 180.586423 
Q 627.825394 181.44722 630.176381 181.91717 
Q 632.527369 182.385956 636.853185 182.385956 
Q 638.031814 182.385956 639.041171 182.359201 
Q 640.050528 182.331283 640.852998 182.273121 
L 640.852998 181.219225 
L 636.245063 181.219225 
L 636.245063 180.28049 
L 648 180.28049 
L 648 182.890802 
z
" clip-path="url(#p62a1831e63)" style="fill: #ffa600"/>
   </g>
   <g id="patch_73">
    <path d="M 620.026385 153.148775 
L 648 153.148775 
L 648 157.950415 
L 637.936004 157.950415 
L 637.936004 177.769054 
L 630.109898 177.769054 
L 630.109898 157.950415 
L 620.026385 157.950415 
L 620.026385 153.148775 
z
" clip-path="url(#p62a1831e63)" style="fill: #ff0000"/>
   </g>
   <g id="matplotlib.axis_1">
    <g id="xtick_1">
     <g id="line2d_2">
      <defs>
       <path id="m17a4c5c4c4" d="M 0 0 
L 0 3.5 
" style="stroke: #000000; stroke-width: 0.8"/>
      </defs>
      <g>
       <use xlink:href="#m17a4c5c4c4" x="103.986807" y="192.24" style="stroke: #000000; stroke-width: 0.8"/>
      </g>
     </g>
     <g id="text_1">
      <!-- 0.0 -->
      <g transform="translate(96.035245 206.838437) scale(0.1 -0.1)">
       <defs>
        <path id="DejaVuSans-30" d="M 2034 4250 
Q 1547 4250 1301 3770 
Q 1056 3291 1056 2328 
Q 1056 1369 1301 889 
Q 1547 409 2034 409 
Q 2525 409 2770 889 
Q 3016 1369 3016 2328 
Q 3016 3291 2770 3770 
Q 2525 4250 2034 4250 
z
M 2034 4750 
Q 2819 4750 3233 4129 
Q 3647 3509 3647 2328 
Q 3647 1150 3233 529 
Q 2819 -91 2034 -91 
Q 1250 -91 836 529 
Q 422 1150 422 2328 
Q 422 3509 836 4129 
Q 1250 4750 2034 4750 
z
" transform="scale(0.015625)"/>
        <path id="DejaVuSans-2e" d="M 684 794 
L 1344 794 
L 1344 0 
L 684 0 
L 684 794 
z
" transform="scale(0.015625)"/>
       </defs>
       <use xlink:href="#DejaVuSans-30"/>
       <use xlink:href="#DejaVuSans-2e" x="63.623047"/>
       <use xlink:href="#DejaVuSans-30" x="95.410156"/>
      </g>
     </g>
    </g>
    <g id="xtick_2">
     <g id="line2d_3">
      <g>
       <use xlink:href="#m17a4c5c4c4" x="177.601583" y="192.24" style="stroke: #000000; stroke-width: 0.8"/>
      </g>
     </g>
     <g id="text_2">
      <!-- 2.5 -->
      <g transform="translate(169.650021 206.838437) scale(0.1 -0.1)">
       <defs>
        <path id="DejaVuSans-32" d="M 1228 531 
L 3431 531 
L 3431 0 
L 469 0 
L 469 531 
Q 828 903 1448 1529 
Q 2069 2156 2228 2338 
Q 2531 2678 2651 2914 
Q 2772 3150 2772 3378 
Q 2772 3750 2511 3984 
Q 2250 4219 1831 4219 
Q 1534 4219 1204 4116 
Q 875 4013 500 3803 
L 500 4441 
Q 881 4594 1212 4672 
Q 1544 4750 1819 4750 
Q 2544 4750 2975 4387 
Q 3406 4025 3406 3419 
Q 3406 3131 3298 2873 
Q 3191 2616 2906 2266 
Q 2828 2175 2409 1742 
Q 1991 1309 1228 531 
z
" transform="scale(0.015625)"/>
        <path id="DejaVuSans-35" d="M 691 4666 
L 3169 4666 
L 3169 4134 
L 1269 4134 
L 1269 2991 
Q 1406 3038 1543 3061 
Q 1681 3084 1819 3084 
Q 2600 3084 3056 2656 
Q 3513 2228 3513 1497 
Q 3513 744 3044 326 
Q 2575 -91 1722 -91 
Q 1428 -91 1123 -41 
Q 819 9 494 109 
L 494 744 
Q 775 591 1075 516 
Q 1375 441 1709 441 
Q 2250 441 2565 725 
Q 2881 1009 2881 1497 
Q 2881 1984 2565 2268 
Q 2250 2553 1709 2553 
Q 1456 2553 1204 2497 
Q 953 2441 691 2322 
L 691 4666 
z
" transform="scale(0.015625)"/>
       </defs>
       <use xlink:href="#DejaVuSans-32"/>
       <use xlink:href="#DejaVuSans-2e" x="63.623047"/>
       <use xlink:href="#DejaVuSans-35" x="95.410156"/>
      </g>
     </g>
    </g>
    <g id="xtick_3">
     <g id="line2d_4">
      <g>
       <use xlink:href="#m17a4c5c4c4" x="251.216359" y="192.24" style="stroke: #000000; stroke-width: 0.8"/>
      </g>
     </g>
     <g id="text_3">
      <!-- 5.0 -->
      <g transform="translate(243.264796 206.838437) scale(0.1 -0.1)">
       <use xlink:href="#DejaVuSans-35"/>
       <use xlink:href="#DejaVuSans-2e" x="63.623047"/>
       <use xlink:href="#DejaVuSans-30" x="95.410156"/>
      </g>
     </g>
    </g>
    <g id="xtick_4">
     <g id="line2d_5">
      <g>
       <use xlink:href="#m17a4c5c4c4" x="324.831135" y="192.24" style="stroke: #000000; stroke-width: 0.8"/>
      </g>
     </g>
     <g id="text_4">
      <!-- 7.5 -->
      <g transform="translate(316.879572 206.838437) scale(0.1 -0.1)">
       <defs>
        <path id="DejaVuSans-37" d="M 525 4666 
L 3525 4666 
L 3525 4397 
L 1831 0 
L 1172 0 
L 2766 4134 
L 525 4134 
L 525 4666 
z
" transform="scale(0.015625)"/>
       </defs>
       <use xlink:href="#DejaVuSans-37"/>
       <use xlink:href="#DejaVuSans-2e" x="63.623047"/>
       <use xlink:href="#DejaVuSans-35" x="95.410156"/>
      </g>
     </g>
    </g>
    <g id="xtick_5">
     <g id="line2d_6">
      <g>
       <use xlink:href="#m17a4c5c4c4" x="398.44591" y="192.24" style="stroke: #000000; stroke-width: 0.8"/>
      </g>
     </g>
     <g id="text_5">
      <!-- 10.0 -->
      <g transform="translate(387.313098 206.838437) scale(0.1 -0.1)">
       <defs>
        <path id="DejaVuSans-31" d="M 794 531 
L 1825 531 
L 1825 4091 
L 703 3866 
L 703 4441 
L 1819 4666 
L 2450 4666 
L 2450 531 
L 3481 531 
L 3481 0 
L 794 0 
L 794 531 
z
" transform="scale(0.015625)"/>
       </defs>
       <use xlink:href="#DejaVuSans-31"/>
       <use xlink:href="#DejaVuSans-30" x="63.623047"/>
       <use xlink:href="#DejaVuSans-2e" x="127.246094"/>
       <use xlink:href="#DejaVuSans-30" x="159.033203"/>
      </g>
     </g>
    </g>
    <g id="xtick_6">
     <g id="line2d_7">
      <g>
       <use xlink:href="#m17a4c5c4c4" x="472.060686" y="192.24" style="stroke: #000000; stroke-width: 0.8"/>
      </g>
     </g>
     <g id="text_6">
      <!-- 12.5 -->
      <g transform="translate(460.927874 206.838437) scale(0.1 -0.1)">
       <use xlink:href="#DejaVuSans-31"/>
       <use xlink:href="#DejaVuSans-32" x="63.623047"/>
       <use xlink:href="#DejaVuSans-2e" x="127.246094"/>
       <use xlink:href="#DejaVuSans-35" x="159.033203"/>
      </g>
     </g>
    </g>
    <g id="xtick_7">
     <g id="line2d_8">
      <g>
       <use xlink:href="#m17a4c5c4c4" x="545.675462" y="192.24" style="stroke: #000000; stroke-width: 0.8"/>
      </g>
     </g>
     <g id="text_7">
      <!-- 15.0 -->
      <g transform="translate(534.542649 206.838437) scale(0.1 -0.1)">
       <use xlink:href="#DejaVuSans-31"/>
       <use xlink:href="#DejaVuSans-35" x="63.623047"/>
       <use xlink:href="#DejaVuSans-2e" x="127.246094"/>
       <use xlink:href="#DejaVuSans-30" x="159.033203"/>
      </g>
     </g>
    </g>
    <g id="xtick_8">
     <g id="line2d_9">
      <g>
       <use xlink:href="#m17a4c5c4c4" x="619.290237" y="192.24" style="stroke: #000000; stroke-width: 0.8"/>
      </g>
     </g>
     <g id="text_8">
      <!-- 17.5 -->
      <g transform="translate(608.157425 206.838437) scale(0.1 -0.1)">
       <use xlink:href="#DejaVuSans-31"/>
       <use xlink:href="#DejaVuSans-37" x="63.623047"/>
       <use xlink:href="#DejaVuSans-2e" x="127.246094"/>
       <use xlink:href="#DejaVuSans-35" x="159.033203"/>
      </g>
     </g>
    </g>
   </g>
   <g id="matplotlib.axis_2">
    <g id="ytick_1">
     <g id="line2d_10">
      <defs>
       <path id="me15ba443a6" d="M 0 0 
L -3.5 0 
" style="stroke: #000000; stroke-width: 0.8"/>
      </defs>
      <g>
       <use xlink:href="#me15ba443a6" x="90" y="192.24" style="stroke: #000000; stroke-width: 0.8"/>
      </g>
     </g>
     <g id="text_9">
      <!-- 0.00 -->
      <g transform="translate(60.734375 196.039219) scale(0.1 -0.1)">
       <use xlink:href="#DejaVuSans-30"/>
       <use xlink:href="#DejaVuSans-2e" x="63.623047"/>
       <use xlink:href="#DejaVuSans-30" x="95.410156"/>
       <use xlink:href="#DejaVuSans-30" x="159.033203"/>
      </g>
     </g>
    </g>
    <g id="ytick_2">
     <g id="line2d_11">
      <g>
       <use xlink:href="#me15ba443a6" x="90" y="171.45" style="stroke: #000000; stroke-width: 0.8"/>
      </g>
     </g>
     <g id="text_10">
      <!-- 0.25 -->
      <g transform="translate(60.734375 175.249219) scale(0.1 -0.1)">
       <use xlink:href="#DejaVuSans-30"/>
       <use xlink:href="#DejaVuSans-2e" x="63.623047"/>
       <use xlink:href="#DejaVuSans-32" x="95.410156"/>
       <use xlink:href="#DejaVuSans-35" x="159.033203"/>
      </g>
     </g>
    </g>
    <g id="ytick_3">
     <g id="line2d_12">
      <g>
       <use xlink:href="#me15ba443a6" x="90" y="150.66" style="stroke: #000000; stroke-width: 0.8"/>
      </g>
     </g>
     <g id="text_11">
      <!-- 0.50 -->
      <g transform="translate(60.734375 154.459219) scale(0.1 -0.1)">
       <use xlink:href="#DejaVuSans-30"/>
       <use xlink:href="#DejaVuSans-2e" x="63.623047"/>
       <use xlink:href="#DejaVuSans-35" x="95.410156"/>
       <use xlink:href="#DejaVuSans-30" x="159.033203"/>
      </g>
     </g>
    </g>
    <g id="ytick_4">
     <g id="line2d_13">
      <g>
       <use xlink:href="#me15ba443a6" x="90" y="129.87" style="stroke: #000000; stroke-width: 0.8"/>
      </g>
     </g>
     <g id="text_12">
      <!-- 0.75 -->
      <g transform="translate(60.734375 133.669219) scale(0.1 -0.1)">
       <use xlink:href="#DejaVuSans-30"/>
       <use xlink:href="#DejaVuSans-2e" x="63.623047"/>
       <use xlink:href="#DejaVuSans-37" x="95.410156"/>
       <use xlink:href="#DejaVuSans-35" x="159.033203"/>
      </g>
     </g>
    </g>
    <g id="ytick_5">
     <g id="line2d_14">
      <g>
       <use xlink:href="#me15ba443a6" x="90" y="109.08" style="stroke: #000000; stroke-width: 0.8"/>
      </g>
     </g>
     <g id="text_13">
      <!-- 1.00 -->
      <g transform="translate(60.734375 112.879219) scale(0.1 -0.1)">
       <use xlink:href="#DejaVuSans-31"/>
       <use xlink:href="#DejaVuSans-2e" x="63.623047"/>
       <use xlink:href="#DejaVuSans-30" x="95.410156"/>
       <use xlink:href="#DejaVuSans-30" x="159.033203"/>
      </g>
     </g>
    </g>
    <g id="ytick_6">
     <g id="line2d_15">
      <g>
       <use xlink:href="#me15ba443a6" x="90" y="88.29" style="stroke: #000000; stroke-width: 0.8"/>
      </g>
     </g>
     <g id="text_14">
      <!-- 1.25 -->
      <g transform="translate(60.734375 92.089219) scale(0.1 -0.1)">
       <use xlink:href="#DejaVuSans-31"/>
       <use xlink:href="#DejaVuSans-2e" x="63.623047"/>
       <use xlink:href="#DejaVuSans-32" x="95.410156"/>
       <use xlink:href="#DejaVuSans-35" x="159.033203"/>
      </g>
     </g>
    </g>
    <g id="ytick_7">
     <g id="line2d_16">
      <g>
       <use xlink:href="#me15ba443a6" x="90" y="67.5" style="stroke: #000000; stroke-width: 0.8"/>
      </g>
     </g>
     <g id="text_15">
      <!-- 1.50 -->
      <g transform="translate(60.734375 71.299219) scale(0.1 -0.1)">
       <use xlink:href="#DejaVuSans-31"/>
       <use xlink:href="#DejaVuSans-2e" x="63.623047"/>
       <use xlink:href="#DejaVuSans-35" x="95.410156"/>
       <use xlink:href="#DejaVuSans-30" x="159.033203"/>
      </g>
     </g>
    </g>
    <g id="ytick_8">
     <g id="line2d_17">
      <g>
       <use xlink:href="#me15ba443a6" x="90" y="46.71" style="stroke: #000000; stroke-width: 0.8"/>
      </g>
     </g>
     <g id="text_16">
      <!-- 1.75 -->
      <g transform="translate(60.734375 50.509219) scale(0.1 -0.1)">
       <use xlink:href="#DejaVuSans-31"/>
       <use xlink:href="#DejaVuSans-2e" x="63.623047"/>
       <use xlink:href="#DejaVuSans-37" x="95.410156"/>
       <use xlink:href="#DejaVuSans-35" x="159.033203"/>
      </g>
     </g>
    </g>
    <g id="ytick_9">
     <g id="line2d_18">
      <g>
       <use xlink:href="#me15ba443a6" x="90" y="25.92" style="stroke: #000000; stroke-width: 0.8"/>
      </g>
     </g>
     <g id="text_17">
      <!-- 2.00 -->
      <g transform="translate(60.734375 29.719219) scale(0.1 -0.1)">
       <use xlink:href="#DejaVuSans-32"/>
       <use xlink:href="#DejaVuSans-2e" x="63.623047"/>
       <use xlink:href="#DejaVuSans-30" x="95.410156"/>
       <use xlink:href="#DejaVuSans-30" x="159.033203"/>
      </g>
     </g>
    </g>
   </g>
  </g>
 </g>
 <defs>
  <clipPath id="p62a1831e63">
   <rect x="90" y="25.92" width="558" height="166.32"/>
  </clipPath>
 </defs>
</svg>
