<?xml version="1.0" encoding="utf-8" standalone="no"?>
<!DOCTYPE svg PUBLIC "-//W3C//DTD SVG 1.1//EN"
  "http://www.w3.org/Graphics/SVG/1.1/DTD/svg11.dtd">
<svg xmlns:xlink="http://www.w3.org/1999/xlink" width="720pt" height="216pt" viewBox="0 0 720 216" xmlns="http://www.w3.org/2000/svg" version="1.1">
 <metadata>
  <rdf:RDF xmlns:dc="http://purl.org/dc/elements/1.1/" xmlns:cc="http://creativecommons.org/ns#" xmlns:rdf="http://www.w3.org/1999/02/22-rdf-syntax-ns#">
   <cc:Work>
    <dc:type rdf:resource="http://purl.org/dc/dcmitype/StillImage"/>
    <dc:date>2025-12-17T10:28:35.354331</dc:date>
    <dc:format>image/svg+xml</dc:format>
    <dc:creator>
     <cc:Agent>
      <dc:title>Matplotlib v3.8.2, https://matplotlib.org/</dc:title>
     </cc:Agent>
    </dc:creator>
   </cc:Work>
  </rdf:RDF>
 </metadata>
 <defs>
  <style type="text/css">*{stroke-linejoin: round; stroke-linecap: butt}</style>
 </defs>
 <g id="figure_1">
  <g id="patch_1">
   <path d="M 0 216 
L 720 216 
L 720 0 
L 0 0 
z
" style="fill: #ffffff"/>
  </g>
  <g id="axes_1">
   <g id="patch_2">
    <path d="M 90 192.24 
L 648 192.24 
L 648 25.92 
L 90 25.92 
z
" style="fill: #ffffff"/>
   </g>
   <g id="line2d_1">
    <path d="M 90 192.24 
L 648 192.24 
" clip-path="url(#p687be2d767)" style="fill: none; stroke: #000000; stroke-width: 0.5; stroke-linecap: square"/>
   </g>
   <g id="patch_3">
    <path d="M 90 173.529284 
L 108.310881 173.529284 
L 108.310881 177.178395 
L 101.723222 177.178395 
L 101.723222 192.24 
L 96.600434 192.24 
L 96.600434 177.178395 
L 90 177.178395 
L 90 173.529284 
z
" clip-path="url(#p687be2d767)" style="fill: #ff0000"/>
   </g>
   <g id="patch_4">
    <path d="M 108.310881 166.823435 
Q 106.779207 170.147372 105.12297 171.828665 
Q 103.466732 173.529284 101.662864 173.529284 
Q 96.283552 173.529284 93.141776 160.929245 
Q 90 148.329207 90 126.781594 
Q 90 105.156681 93.141776 92.575968 
Q 96.283552 79.975929 101.662864 79.975929 
Q 103.466732 79.975929 105.12297 81.676548 
Q 106.779207 83.357841 108.310881 86.681778 
L 108.310881 105.330608 
Q 106.765367 100.92446 105.265988 98.875987 
Q 103.766608 96.827515 102.110371 96.827515 
Q 99.139293 96.827515 97.436921 104.808827 
Q 95.739162 112.770815 95.739162 126.781594 
Q 95.739162 140.734398 97.436921 148.715711 
Q 99.139293 156.677699 102.110371 156.677699 
Q 103.766608 156.677699 105.265988 154.629226 
Q 106.765367 152.561428 108.310881 148.15528 
L 108.310881 166.823435 
z
" clip-path="url(#p687be2d767)" style="fill: #0000ff"/>
   </g>
   <g id="patch_5">
    <path d="M 121.958575 190.870648 
L 114.916504 190.870648 
L 113.804598 192.24 
L 109.274611 192.24 
L 115.743882 184.723062 
L 121.116222 184.723062 
L 127.585492 192.24 
L 123.059249 192.24 
L 121.958575 190.870648 
z
M 116.039641 189.475519 
L 120.824206 189.475519 
L 118.435667 186.485499 
L 116.039641 189.475519 
z
" clip-path="url(#p687be2d767)" style="fill: #008000"/>
   </g>
   <g id="patch_6">
    <path d="M 127.585492 184.184252 
Q 126.053819 184.451328 124.397581 184.586418 
Q 122.741344 184.723062 120.937475 184.723062 
Q 115.558164 184.723062 112.416388 183.710659 
Q 109.274611 182.698255 109.274611 180.966922 
Q 109.274611 179.229377 112.416388 178.218527 
Q 115.558164 177.206124 120.937475 177.206124 
Q 122.741344 177.206124 124.397581 177.342767 
Q 126.053819 177.477857 127.585492 177.744933 
L 127.585492 179.243352 
Q 126.039978 178.889321 124.540599 178.724728 
Q 123.04122 178.560135 121.384982 178.560135 
Q 118.413905 178.560135 116.711533 179.201427 
Q 115.013774 179.841167 115.013774 180.966922 
Q 115.013774 182.088019 116.711533 182.729311 
Q 118.413905 183.36905 121.384982 183.36905 
Q 123.04122 183.36905 124.540599 183.204457 
Q 126.039978 183.038311 127.585492 182.684281 
L 127.585492 184.184252 
z
" clip-path="url(#p687be2d767)" style="fill: #0000ff"/>
   </g>
   <g id="patch_7">
    <path d="M 109.274611 87.003391 
L 127.585492 87.003391 
L 127.585492 104.595437 
L 120.997833 104.595437 
L 120.997833 177.206124 
L 115.875045 177.206124 
L 115.875045 104.595437 
L 109.274611 104.595437 
L 109.274611 87.003391 
z
" clip-path="url(#p687be2d767)" style="fill: #ff0000"/>
   </g>
   <g id="patch_8">
    <path d="M 128.549223 188.601338 
L 146.860104 188.601338 
L 146.860104 189.310979 
L 140.272445 189.310979 
L 140.272445 192.24 
L 135.149657 192.24 
L 135.149657 189.310979 
L 128.549223 189.310979 
L 128.549223 188.601338 
z
" clip-path="url(#p687be2d767)" style="fill: #ff0000"/>
   </g>
   <g id="patch_9">
    <path d="M 141.233186 161.425005 
L 134.191116 161.425005 
L 133.07921 188.601338 
L 128.549223 188.601338 
L 135.018493 39.419257 
L 140.390833 39.419257 
L 146.860104 188.601338 
L 142.333861 188.601338 
L 141.233186 161.425005 
z
M 135.314253 133.737118 
L 140.098817 133.737118 
L 137.710279 74.396796 
L 135.314253 133.737118 
z
" clip-path="url(#p687be2d767)" style="fill: #008000"/>
   </g>
   <g id="patch_10">
    <path d="M 147.823834 188.601338 
L 166.134715 188.601338 
L 166.134715 189.310979 
L 159.547056 189.310979 
L 159.547056 192.24 
L 154.424268 192.24 
L 154.424268 189.310979 
L 147.823834 189.310979 
L 147.823834 188.601338 
z
" clip-path="url(#p687be2d767)" style="fill: #ff0000"/>
   </g>
   <g id="patch_11">
    <path d="M 160.507797 161.425005 
L 153.465727 161.425005 
L 152.353821 188.601338 
L 147.823834 188.601338 
L 154.293105 39.419257 
L 159.665445 39.419257 
L 166.134715 188.601338 
L 161.608472 188.601338 
L 160.507797 161.425005 
z
M 154.588864 133.737118 
L 159.373429 133.737118 
L 156.98489 74.396796 
L 154.588864 133.737118 
z
" clip-path="url(#p687be2d767)" style="fill: #008000"/>
   </g>
   <g id="patch_12">
    <path d="M 185.409326 192.024901 
Q 183.877653 192.131521 182.221415 192.18545 
Q 180.565178 192.24 178.761309 192.24 
Q 173.381998 192.24 170.240222 191.835836 
Q 167.098446 191.431673 167.098446 190.740503 
Q 167.098446 190.046855 170.240222 189.643311 
Q 173.381998 189.239147 178.761309 189.239147 
Q 180.565178 189.239147 182.221415 189.293697 
Q 183.877653 189.347627 185.409326 189.454247 
L 185.409326 190.052434 
Q 183.863812 189.9111 182.364433 189.845393 
Q 180.865054 189.779685 179.208817 189.779685 
Q 176.237739 189.779685 174.535367 190.035697 
Q 172.837608 190.291088 172.837608 190.740503 
Q 172.837608 191.188059 174.535367 191.44407 
Q 176.237739 191.699462 179.208817 191.699462 
Q 180.865054 191.699462 182.364433 191.633755 
Q 183.863812 191.567427 185.409326 191.426094 
L 185.409326 192.024901 
z
" clip-path="url(#p687be2d767)" style="fill: #0000ff"/>
   </g>
   <g id="patch_13">
    <path d="M 185.409326 188.967639 
Q 183.562644 189.103393 181.576435 189.17158 
Q 179.590225 189.239147 177.472696 189.239147 
Q 172.687737 189.239147 169.893091 188.834984 
Q 167.098446 188.43082 167.098446 187.739651 
Q 167.098446 187.040423 169.942336 186.639359 
Q 172.790331 186.238295 177.743543 186.238295 
Q 179.651781 186.238295 181.399974 186.292844 
Q 183.15227 186.346774 184.703483 186.453394 
L 184.703483 187.051581 
Q 183.103025 186.914587 181.518982 186.84702 
Q 179.934939 186.778832 178.342689 186.778832 
Q 175.396205 186.778832 173.79985 187.028025 
Q 172.203496 187.276598 172.203496 187.739651 
Q 172.203496 188.198364 173.742398 188.448797 
Q 175.2813 188.69861 178.11288 188.69861 
Q 178.884382 188.69861 179.545084 188.684352 
Q 180.205786 188.669475 180.731065 188.638481 
L 180.731065 188.076867 
L 177.714817 188.076867 
L 177.714817 187.576622 
L 185.409326 187.576622 
L 185.409326 188.967639 
z
" clip-path="url(#p687be2d767)" style="fill: #ffa600"/>
   </g>
   <g id="patch_14">
    <path d="M 167.098446 183.237442 
L 185.409326 183.237442 
L 185.409326 183.822692 
L 178.821668 183.822692 
L 178.821668 186.238295 
L 173.698879 186.238295 
L 173.698879 183.822692 
L 167.098446 183.822692 
L 167.098446 183.237442 
z
" clip-path="url(#p687be2d767)" style="fill: #ff0000"/>
   </g>
   <g id="patch_15">
    <path d="M 179.782409 161.918061 
L 172.740338 161.918061 
L 171.628432 183.237442 
L 167.098446 183.237442 
L 173.567716 66.206582 
L 178.940056 66.206582 
L 185.409326 183.237442 
L 180.883083 183.237442 
L 179.782409 161.918061 
z
M 173.863476 140.197374 
L 178.64804 140.197374 
L 176.259502 93.645879 
L 173.863476 140.197374 
z
" clip-path="url(#p687be2d767)" style="fill: #008000"/>
   </g>
   <g id="patch_16">
    <path d="M 204.683938 180.318281 
Q 203.152264 186.227606 201.496027 189.216625 
Q 199.839789 192.24 198.035921 192.24 
Q 192.656609 192.24 189.514833 169.839537 
Q 186.373057 147.439075 186.373057 109.131535 
Q 186.373057 70.686569 189.514833 48.320463 
Q 192.656609 25.92 198.035921 25.92 
Q 199.839789 25.92 201.496027 28.943375 
Q 203.152264 31.932394 204.683938 37.841719 
L 204.683938 70.995778 
Q 203.138424 63.162487 201.639045 59.520694 
Q 200.139665 55.878901 198.483428 55.878901 
Q 195.51235 55.878901 193.809978 70.068151 
Q 192.112219 84.223045 192.112219 109.131535 
Q 192.112219 133.936955 193.809978 148.126205 
Q 195.51235 162.281099 198.483428 162.281099 
Q 200.139665 162.281099 201.639045 158.639306 
Q 203.138424 154.963156 204.683938 147.129866 
L 204.683938 180.318281 
z
" clip-path="url(#p687be2d767)" style="fill: #0000ff"/>
   </g>
   <g id="patch_17">
    <path d="M 223.958549 192.039322 
Q 222.111867 192.139661 220.125658 192.19006 
Q 218.139448 192.24 216.021919 192.24 
Q 211.23696 192.24 208.442314 191.941274 
Q 205.647668 191.642547 205.647668 191.131688 
Q 205.647668 190.614874 208.491559 190.318438 
Q 211.339554 190.022002 216.292766 190.022002 
Q 218.201004 190.022002 219.949197 190.062321 
Q 221.701493 190.102182 223.252706 190.180987 
L 223.252706 190.623121 
Q 221.652248 190.521865 220.068205 190.471925 
Q 218.484162 190.421526 216.891912 190.421526 
Q 213.945427 190.421526 212.349073 190.60571 
Q 210.752719 190.789436 210.752719 191.131688 
Q 210.752719 191.470734 212.291621 191.655834 
Q 213.830523 191.840476 216.662102 191.840476 
Q 217.433605 191.840476 218.094307 191.829938 
Q 218.755009 191.818942 219.280287 191.796034 
L 219.280287 191.380933 
L 216.26404 191.380933 
L 216.26404 191.01119 
L 223.958549 191.01119 
L 223.958549 192.039322 
z
" clip-path="url(#p687be2d767)" style="fill: #ffa600"/>
   </g>
   <g id="patch_18">
    <path d="M 205.647668 185.5861 
L 223.958549 185.5861 
L 223.958549 186.451225 
L 217.37089 186.451225 
L 217.37089 190.022002 
L 212.248102 190.022002 
L 212.248102 186.451225 
L 205.647668 186.451225 
L 205.647668 185.5861 
z
" clip-path="url(#p687be2d767)" style="fill: #ff0000"/>
   </g>
   <g id="patch_19">
    <path d="M 218.331632 183.969934 
L 211.289561 183.969934 
L 210.177655 185.5861 
L 205.647668 185.5861 
L 212.116939 176.714297 
L 217.489279 176.714297 
L 223.958549 185.5861 
L 219.432306 185.5861 
L 218.331632 183.969934 
z
M 212.412698 182.323345 
L 217.197263 182.323345 
L 214.808724 178.794398 
L 212.412698 182.323345 
z
" clip-path="url(#p687be2d767)" style="fill: #008000"/>
   </g>
   <g id="patch_20">
    <path d="M 223.958549 171.149944 
Q 222.426876 173.908067 220.770638 175.303164 
Q 219.114401 176.714297 217.310532 176.714297 
Q 211.931221 176.714297 208.789445 166.259087 
Q 205.647668 155.803877 205.647668 137.924185 
Q 205.647668 119.98035 208.789445 109.541176 
Q 211.931221 99.085966 217.310532 99.085966 
Q 219.114401 99.085966 220.770638 100.497098 
Q 222.426876 101.892195 223.958549 104.650318 
L 223.958549 120.124671 
Q 222.413035 116.468554 220.913656 114.768781 
Q 219.414277 113.069007 217.758039 113.069007 
Q 214.786962 113.069007 213.08459 119.691709 
Q 211.386831 126.298376 211.386831 137.924185 
Q 211.386831 149.501886 213.08459 156.124589 
Q 214.786962 162.731255 217.758039 162.731255 
Q 219.414277 162.731255 220.913656 161.031482 
Q 222.413035 159.315673 223.958549 155.659556 
L 223.958549 171.149944 
z
" clip-path="url(#p687be2d767)" style="fill: #0000ff"/>
   </g>
   <g id="patch_21">
    <path d="M 224.92228 188.601338 
L 243.233161 188.601338 
L 243.233161 189.310979 
L 236.645502 189.310979 
L 236.645502 192.24 
L 231.522714 192.24 
L 231.522714 189.310979 
L 224.92228 189.310979 
L 224.92228 188.601338 
z
" clip-path="url(#p687be2d767)" style="fill: #ff0000"/>
   </g>
   <g id="patch_22">
    <path d="M 243.233161 177.908055 
Q 241.701487 183.208472 240.04525 185.889497 
Q 238.389012 188.601338 236.585144 188.601338 
Q 231.205832 188.601338 228.064056 168.50906 
Q 224.92228 148.416783 224.92228 114.056522 
Q 224.92228 79.572996 228.064056 59.511535 
Q 231.205832 39.419257 236.585144 39.419257 
Q 238.389012 39.419257 240.04525 42.131098 
Q 241.701487 44.812123 243.233161 50.11254 
L 243.233161 79.850344 
Q 241.687647 72.82421 240.188267 69.557674 
Q 238.688888 66.291138 237.032651 66.291138 
Q 234.061573 66.291138 232.359201 79.018302 
Q 230.661442 91.714649 230.661442 114.056522 
Q 230.661442 136.305946 232.359201 149.03311 
Q 234.061573 161.729457 237.032651 161.729457 
Q 238.688888 161.729457 240.188267 158.462921 
Q 241.687647 155.165569 243.233161 148.139435 
L 243.233161 177.908055 
z
" clip-path="url(#p687be2d767)" style="fill: #0000ff"/>
   </g>
   <g id="patch_23">
    <path d="M 256.880854 191.635398 
L 249.838784 191.635398 
L 248.726878 192.24 
L 244.196891 192.24 
L 250.666162 188.92109 
L 256.038502 188.92109 
L 262.507772 192.24 
L 257.981529 192.24 
L 256.880854 191.635398 
z
M 250.961921 191.019415 
L 255.746486 191.019415 
L 253.357947 189.699248 
L 250.961921 191.019415 
z
" clip-path="url(#p687be2d767)" style="fill: #008000"/>
   </g>
   <g id="patch_24">
    <path d="M 262.507772 188.620804 
Q 260.66109 188.770947 258.67488 188.846361 
Q 256.688671 188.92109 254.571142 188.92109 
Q 249.786183 188.92109 246.991537 188.474089 
Q 244.196891 188.027089 244.196891 187.262663 
Q 244.196891 186.489325 247.040782 186.045752 
Q 249.888776 185.602179 254.841989 185.602179 
Q 256.750227 185.602179 258.49842 185.662511 
Q 260.250716 185.722156 261.801929 185.840077 
L 261.801929 186.501665 
Q 260.201471 186.350151 258.617428 186.275422 
Q 257.033385 186.200008 255.441134 186.200008 
Q 252.49465 186.200008 250.898296 186.475613 
Q 249.301942 186.750532 249.301942 187.262663 
Q 249.301942 187.769995 250.840844 188.046971 
Q 252.379746 188.323261 255.211325 188.323261 
Q 255.982828 188.323261 256.64353 188.307492 
Q 257.304232 188.291038 257.82951 188.256759 
L 257.82951 187.63562 
L 254.813262 187.63562 
L 254.813262 187.082354 
L 262.507772 187.082354 
L 262.507772 188.620804 
z
" clip-path="url(#p687be2d767)" style="fill: #ffa600"/>
   </g>
   <g id="patch_25">
    <path d="M 244.196891 52.848413 
L 262.507772 52.848413 
L 262.507772 78.739096 
L 255.920113 78.739096 
L 255.920113 185.602179 
L 250.797325 185.602179 
L 250.797325 78.739096 
L 244.196891 78.739096 
L 244.196891 52.848413 
z
" clip-path="url(#p687be2d767)" style="fill: #ff0000"/>
   </g>
   <g id="patch_26">
    <path d="M 281.782383 191.976828 
Q 279.935701 192.108414 277.949492 192.174507 
Q 275.963282 192.24 273.845753 192.24 
Q 269.060794 192.24 266.266148 191.848246 
Q 263.471503 191.456492 263.471503 190.786544 
Q 263.471503 190.108785 266.315393 189.720035 
Q 269.163388 189.331286 274.1166 189.331286 
Q 276.024838 189.331286 277.773031 189.38416 
Q 279.525327 189.436434 281.07654 189.53978 
L 281.07654 190.119601 
Q 279.476082 189.986813 277.892039 189.92132 
Q 276.307996 189.855227 274.715746 189.855227 
Q 271.769262 189.855227 270.172907 190.096768 
Q 268.576553 190.337709 268.576553 190.786544 
Q 268.576553 191.231173 270.115455 191.473916 
Q 271.654357 191.716059 274.485937 191.716059 
Q 275.257439 191.716059 275.918141 191.702239 
Q 276.578843 191.687819 277.104122 191.657776 
L 277.104122 191.113406 
L 274.087874 191.113406 
L 274.087874 190.628521 
L 281.782383 190.628521 
L 281.782383 191.976828 
z
" clip-path="url(#p687be2d767)" style="fill: #ffa600"/>
   </g>
   <g id="patch_27">
    <path d="M 263.471503 180.605264 
L 281.782383 180.605264 
L 281.782383 182.307082 
L 275.194725 182.307082 
L 275.194725 189.331286 
L 270.071936 189.331286 
L 270.071936 182.307082 
L 263.471503 182.307082 
L 263.471503 180.605264 
z
" clip-path="url(#p687be2d767)" style="fill: #ff0000"/>
   </g>
   <g id="patch_28">
    <path d="M 276.155466 160.470329 
L 269.113395 160.470329 
L 268.001489 180.605264 
L 263.471503 180.605264 
L 269.940773 70.076315 
L 275.313113 70.076315 
L 281.782383 180.605264 
L 277.25614 180.605264 
L 276.155466 160.470329 
z
M 270.236533 139.956384 
L 275.021097 139.956384 
L 272.632559 95.991161 
L 270.236533 139.956384 
z
" clip-path="url(#p687be2d767)" style="fill: #008000"/>
   </g>
   <g id="patch_29">
    <path d="M 301.056995 191.622379 
Q 299.210313 191.93119 297.224103 192.0863 
Q 295.237894 192.24 293.120365 192.24 
Q 288.335406 192.24 285.54076 191.320619 
Q 282.746114 190.401239 282.746114 188.828985 
Q 282.746114 187.2384 285.590005 186.32607 
Q 288.437999 185.41374 293.391211 185.41374 
Q 295.29945 185.41374 297.047642 185.537828 
Q 298.799939 185.660506 300.351152 185.903042 
L 300.351152 187.263782 
Q 298.750694 186.952151 297.166651 186.798451 
Q 295.582608 186.643341 293.990357 186.643341 
Q 291.043873 186.643341 289.447519 187.210198 
Q 287.851165 187.775646 287.851165 188.828985 
Q 287.851165 189.872454 289.390066 190.442131 
Q 290.928968 191.010399 293.760548 191.010399 
Q 294.532051 191.010399 295.192753 190.977967 
Q 295.853455 190.944125 296.378733 190.87362 
L 296.378733 189.596076 
L 293.362485 189.596076 
L 293.362485 188.458131 
L 301.056995 188.458131 
L 301.056995 191.622379 
z
" clip-path="url(#p687be2d767)" style="fill: #ffa600"/>
   </g>
   <g id="patch_30">
    <path d="M 295.430077 160.54307 
L 288.388007 160.54307 
L 287.276101 185.41374 
L 282.746114 185.41374 
L 289.215385 48.888395 
L 294.587724 48.888395 
L 301.056995 185.41374 
L 296.530752 185.41374 
L 295.430077 160.54307 
z
M 289.511144 135.204247 
L 294.295709 135.204247 
L 291.90717 80.898409 
L 289.511144 135.204247 
z
" clip-path="url(#p687be2d767)" style="fill: #008000"/>
   </g>
   <g id="patch_31">
    <path d="M 320.331606 191.36464 
Q 318.484924 191.80232 316.498715 192.022159 
Q 314.512505 192.24 312.394976 192.24 
Q 307.610017 192.24 304.815371 190.936952 
Q 302.020725 189.633905 302.020725 187.405534 
Q 302.020725 185.151181 304.864616 183.858126 
Q 307.712611 182.565071 312.665823 182.565071 
Q 314.574061 182.565071 316.322254 182.740943 
Q 318.07455 182.914816 319.625763 183.258565 
L 319.625763 185.187155 
Q 318.025305 184.745478 316.441262 184.527637 
Q 314.857219 184.307798 313.264969 184.307798 
Q 310.318484 184.307798 308.72213 185.11121 
Q 307.125776 185.912625 307.125776 187.405534 
Q 307.125776 188.884453 308.664678 189.691862 
Q 310.20358 190.497274 313.035159 190.497274 
Q 313.806662 190.497274 314.467364 190.451307 
Q 315.128066 190.403342 315.653344 190.303415 
L 315.653344 188.492739 
L 312.637097 188.492739 
L 312.637097 186.879918 
L 320.331606 186.879918 
L 320.331606 191.36464 
z
" clip-path="url(#p687be2d767)" style="fill: #ffa600"/>
   </g>
   <g id="patch_32">
    <path d="M 314.704689 159.653097 
L 307.662618 159.653097 
L 306.550712 182.565071 
L 302.020725 182.565071 
L 308.489996 56.791812 
L 313.862336 56.791812 
L 320.331606 182.565071 
L 315.805363 182.565071 
L 314.704689 159.653097 
z
M 308.785755 136.309839 
L 313.57032 136.309839 
L 311.181781 86.28087 
L 308.785755 136.309839 
z
" clip-path="url(#p687be2d767)" style="fill: #008000"/>
   </g>
   <g id="patch_33">
    <path d="M 333.9793 191.765509 
L 326.93723 191.765509 
L 325.825324 192.24 
L 321.295337 192.24 
L 327.764607 189.635324 
L 333.136947 189.635324 
L 339.606218 192.24 
L 335.079975 192.24 
L 333.9793 191.765509 
z
M 328.060367 191.282087 
L 332.844931 191.282087 
L 330.456393 190.246022 
L 328.060367 191.282087 
z
" clip-path="url(#p687be2d767)" style="fill: #008000"/>
   </g>
   <g id="patch_34">
    <path d="M 321.295337 176.612164 
L 339.606218 176.612164 
L 339.606218 179.152043 
L 333.018559 179.152043 
L 333.018559 189.635324 
L 327.895771 189.635324 
L 327.895771 179.152043 
L 321.295337 179.152043 
L 321.295337 176.612164 
z
" clip-path="url(#p687be2d767)" style="fill: #ff0000"/>
   </g>
   <g id="patch_35">
    <path d="M 339.606218 169.891039 
Q 338.074544 173.222547 336.418307 174.907671 
Q 334.762069 176.612164 332.958201 176.612164 
Q 327.578889 176.612164 324.437113 163.983422 
Q 321.295337 151.35468 321.295337 129.757982 
Q 321.295337 108.083807 324.437113 95.474434 
Q 327.578889 82.845692 332.958201 82.845692 
Q 334.762069 82.845692 336.418307 84.550185 
Q 338.074544 86.235309 339.606218 89.566817 
L 339.606218 108.25813 
Q 338.060704 103.841944 336.561324 101.788805 
Q 335.061945 99.735666 333.405708 99.735666 
Q 330.43463 99.735666 328.732258 107.735161 
Q 327.034499 115.715286 327.034499 129.757982 
Q 327.034499 143.74257 328.732258 151.742065 
Q 330.43463 159.72219 333.405708 159.72219 
Q 335.061945 159.72219 336.561324 157.669051 
Q 338.060704 155.596543 339.606218 151.180357 
L 339.606218 169.891039 
z
" clip-path="url(#p687be2d767)" style="fill: #0000ff"/>
   </g>
   <g id="patch_36">
    <path d="M 340.569948 189.144856 
L 358.880829 189.144856 
L 358.880829 189.748495 
L 352.29317 189.748495 
L 352.29317 192.24 
L 347.170382 192.24 
L 347.170382 189.748495 
L 340.569948 189.748495 
L 340.569948 189.144856 
z
" clip-path="url(#p687be2d767)" style="fill: #ff0000"/>
   </g>
   <g id="patch_37">
    <path d="M 358.880829 188.584788 
Q 357.034147 188.864822 355.047937 189.005478 
Q 353.061728 189.144856 350.944199 189.144856 
Q 346.15924 189.144856 343.364594 188.311147 
Q 340.569948 187.477439 340.569948 186.051695 
Q 340.569948 184.609328 343.413839 183.782013 
Q 346.261833 182.954698 351.215046 182.954698 
Q 353.123284 182.954698 354.871477 183.067223 
Q 356.623773 183.178469 358.174986 183.398405 
L 358.174986 184.632344 
Q 356.574528 184.349753 354.990485 184.210375 
Q 353.406442 184.069719 351.814191 184.069719 
Q 348.867707 184.069719 347.271353 184.583754 
Q 345.674999 185.09651 345.674999 186.051695 
Q 345.674999 186.997929 347.213901 187.514521 
Q 348.752803 188.029835 351.584382 188.029835 
Q 352.355885 188.029835 353.016587 188.000425 
Q 353.677289 187.969736 354.202567 187.905801 
L 354.202567 186.747305 
L 351.186319 186.747305 
L 351.186319 185.715398 
L 358.880829 185.715398 
L 358.880829 188.584788 
z
" clip-path="url(#p687be2d767)" style="fill: #ffa600"/>
   </g>
   <g id="patch_38">
    <path d="M 358.880829 174.30241 
Q 357.349155 178.591152 355.692918 180.760458 
Q 354.036681 182.954698 352.232812 182.954698 
Q 346.853501 182.954698 343.711724 166.697372 
Q 340.569948 150.440047 340.569948 122.638026 
Q 340.569948 94.736266 343.711724 78.503875 
Q 346.853501 62.24655 352.232812 62.24655 
Q 354.036681 62.24655 355.692918 64.44079 
Q 357.349155 66.610096 358.880829 70.898838 
L 358.880829 94.960677 
Q 357.335315 89.2756 355.835936 86.632538 
Q 354.336556 83.989476 352.680319 83.989476 
Q 349.709241 83.989476 348.006869 94.287444 
Q 346.309111 104.560478 346.309111 122.638026 
Q 346.309111 140.64077 348.006869 150.938738 
Q 349.709241 161.211772 352.680319 161.211772 
Q 354.336556 161.211772 355.835936 158.56871 
Q 357.335315 155.900713 358.880829 150.215636 
L 358.880829 174.30241 
z
" clip-path="url(#p687be2d767)" style="fill: #0000ff"/>
   </g>
   <g id="patch_39">
    <path d="M 378.15544 192.078821 
Q 376.308758 192.15941 374.322549 192.199889 
Q 372.336339 192.24 370.21881 192.24 
Q 365.433851 192.24 362.639205 192.000071 
Q 359.84456 191.760142 359.84456 191.349833 
Q 359.84456 190.934741 362.68845 190.696652 
Q 365.536445 190.458563 370.489657 190.458563 
Q 372.397895 190.458563 374.146088 190.490946 
Q 375.898384 190.522961 377.449597 190.586255 
L 377.449597 190.941365 
Q 375.849139 190.860039 374.265096 190.819928 
Q 372.681053 190.779449 371.088803 190.779449 
Q 368.142319 190.779449 366.545964 190.927381 
Q 364.94961 191.074945 364.94961 191.349833 
Q 364.94961 191.622146 366.488512 191.770813 
Q 368.027414 191.919113 370.858994 191.919113 
Q 371.630496 191.919113 372.291198 191.910649 
Q 372.9519 191.901818 373.477179 191.883418 
L 373.477179 191.55002 
L 370.460931 191.55002 
L 370.460931 191.253052 
L 378.15544 191.253052 
L 378.15544 192.078821 
z
" clip-path="url(#p687be2d767)" style="fill: #ffa600"/>
   </g>
   <g id="patch_40">
    <path d="M 359.84456 185.114325 
L 378.15544 185.114325 
L 378.15544 186.1566 
L 371.567782 186.1566 
L 371.567782 190.458563 
L 366.444993 190.458563 
L 366.444993 186.1566 
L 359.84456 186.1566 
L 359.84456 185.114325 
z
" clip-path="url(#p687be2d767)" style="fill: #ff0000"/>
   </g>
   <g id="patch_41">
    <path d="M 372.528523 183.167231 
L 365.486452 183.167231 
L 364.374546 185.114325 
L 359.84456 185.114325 
L 366.31383 174.425925 
L 371.68617 174.425925 
L 378.15544 185.114325 
L 373.629197 185.114325 
L 372.528523 183.167231 
z
M 366.60959 181.183486 
L 371.394154 181.183486 
L 369.005616 176.931949 
L 366.60959 181.183486 
z
" clip-path="url(#p687be2d767)" style="fill: #008000"/>
   </g>
   <g id="patch_42">
    <path d="M 378.15544 170.339849 
Q 376.623767 172.365224 374.967529 173.389686 
Q 373.311292 174.425925 371.507423 174.425925 
Q 366.128112 174.425925 362.986336 166.748341 
Q 359.84456 159.070758 359.84456 145.941149 
Q 359.84456 132.764438 362.986336 125.098631 
Q 366.128112 117.421048 371.507423 117.421048 
Q 373.311292 117.421048 374.967529 118.457286 
Q 376.623767 119.481749 378.15544 121.507123 
L 378.15544 132.870417 
Q 376.609926 130.185618 375.110547 128.937422 
Q 373.611168 127.689226 371.954931 127.689226 
Q 368.983853 127.689226 367.281481 132.552481 
Q 365.583722 137.403959 365.583722 145.941149 
Q 365.583722 154.443013 367.281481 159.306267 
Q 368.983853 164.157746 371.954931 164.157746 
Q 373.611168 164.157746 375.110547 162.90955 
Q 376.609926 161.649578 378.15544 158.964779 
L 378.15544 170.339849 
z
" clip-path="url(#p687be2d767)" style="fill: #0000ff"/>
   </g>
   <g id="patch_43">
    <path d="M 391.803134 191.635398 
L 384.761064 191.635398 
L 383.649158 192.24 
L 379.119171 192.24 
L 385.588441 188.92109 
L 390.960781 188.92109 
L 397.430052 192.24 
L 392.903809 192.24 
L 391.803134 191.635398 
z
M 385.884201 191.019415 
L 390.668766 191.019415 
L 388.280227 189.699248 
L 385.884201 191.019415 
z
" clip-path="url(#p687be2d767)" style="fill: #008000"/>
   </g>
   <g id="patch_44">
    <path d="M 397.430052 188.683192 
Q 395.898378 188.801113 394.242141 188.860758 
Q 392.585903 188.92109 390.782035 188.92109 
Q 385.402723 188.92109 382.260947 188.474089 
Q 379.119171 188.027089 379.119171 187.262663 
Q 379.119171 186.495495 382.260947 186.04918 
Q 385.402723 185.602179 390.782035 185.602179 
Q 392.585903 185.602179 394.242141 185.662511 
Q 395.898378 185.722156 397.430052 185.840077 
L 397.430052 186.501665 
Q 395.884538 186.345352 394.385159 186.27268 
Q 392.885779 186.200008 391.229542 186.200008 
Q 388.258464 186.200008 386.556092 186.483154 
Q 384.858333 186.765615 384.858333 187.262663 
Q 384.858333 187.757654 386.556092 188.0408 
Q 388.258464 188.323261 391.229542 188.323261 
Q 392.885779 188.323261 394.385159 188.250589 
Q 395.884538 188.177231 397.430052 188.020918 
L 397.430052 188.683192 
z
" clip-path="url(#p687be2d767)" style="fill: #0000ff"/>
   </g>
   <g id="patch_45">
    <path d="M 379.119171 52.848413 
L 397.430052 52.848413 
L 397.430052 78.739096 
L 390.842393 78.739096 
L 390.842393 185.602179 
L 385.719605 185.602179 
L 385.719605 78.739096 
L 379.119171 78.739096 
L 379.119171 52.848413 
z
" clip-path="url(#p687be2d767)" style="fill: #ff0000"/>
   </g>
   <g id="patch_46">
    <path d="M 411.077746 161.941672 
L 404.035675 161.941672 
L 402.923769 192.24 
L 398.393782 192.24 
L 404.863053 25.92 
L 410.235393 25.92 
L 416.704663 192.24 
L 412.17842 192.24 
L 411.077746 161.941672 
z
M 405.158812 131.073022 
L 409.943377 131.073022 
L 407.554838 64.915731 
L 405.158812 131.073022 
z
" clip-path="url(#p687be2d767)" style="fill: #008000"/>
   </g>
   <g id="patch_47">
    <path d="M 435.979275 192.051868 
Q 434.132592 192.145934 432.146383 192.193182 
Q 430.160174 192.24 428.042645 192.24 
Q 423.257686 192.24 420.46304 191.95995 
Q 417.668394 191.679901 417.668394 191.200981 
Q 417.668394 190.716478 420.512285 190.438576 
Q 423.360279 190.160674 428.313491 190.160674 
Q 430.22173 190.160674 431.969922 190.198472 
Q 433.722218 190.23584 435.273432 190.309719 
L 435.273432 190.724209 
Q 433.672974 190.629285 432.088931 190.582466 
Q 430.504888 190.535219 428.912637 190.535219 
Q 425.966153 190.535219 424.369799 190.707887 
Q 422.773444 190.880127 422.773444 191.200981 
Q 422.773444 191.518829 424.312346 191.692357 
Q 425.851248 191.865455 428.682828 191.865455 
Q 429.454331 191.865455 430.115032 191.855576 
Q 430.775734 191.845267 431.301013 191.823791 
L 431.301013 191.434642 
L 428.284765 191.434642 
L 428.284765 191.088016 
L 435.979275 191.088016 
L 435.979275 192.051868 
z
" clip-path="url(#p687be2d767)" style="fill: #ffa600"/>
   </g>
   <g id="patch_48">
    <path d="M 435.979275 189.86259 
Q 434.447601 190.010343 432.791364 190.085079 
Q 431.135126 190.160674 429.331258 190.160674 
Q 423.951946 190.160674 420.81017 189.600586 
Q 417.668394 189.040498 417.668394 188.08268 
Q 417.668394 187.121425 420.81017 186.562196 
Q 423.951946 186.002108 429.331258 186.002108 
Q 431.135126 186.002108 432.791364 186.077703 
Q 434.447601 186.152439 435.979275 186.300192 
L 435.979275 187.129156 
Q 434.433761 186.933297 432.934381 186.84224 
Q 431.435002 186.751183 429.778765 186.751183 
Q 426.807687 186.751183 425.105315 187.105962 
Q 423.407556 187.459883 423.407556 188.08268 
Q 423.407556 188.702899 425.105315 189.057679 
Q 426.807687 189.411599 429.778765 189.411599 
Q 431.435002 189.411599 432.934381 189.320542 
Q 434.433761 189.228626 435.979275 189.032767 
L 435.979275 189.86259 
z
" clip-path="url(#p687be2d767)" style="fill: #0000ff"/>
   </g>
   <g id="patch_49">
    <path d="M 417.668394 175.605652 
L 435.979275 175.605652 
L 435.979275 177.63325 
L 429.391616 177.63325 
L 429.391616 186.002108 
L 424.268828 186.002108 
L 424.268828 177.63325 
L 417.668394 177.63325 
L 417.668394 175.605652 
z
" clip-path="url(#p687be2d767)" style="fill: #ff0000"/>
   </g>
   <g id="patch_50">
    <path d="M 430.352357 162.727096 
L 423.310287 162.727096 
L 422.198381 175.605652 
L 417.668394 175.605652 
L 424.137664 104.909955 
L 429.510004 104.909955 
L 435.979275 175.605652 
L 431.453032 175.605652 
L 430.352357 162.727096 
z
M 424.433424 149.60612 
L 429.217988 149.60612 
L 426.82945 121.485414 
L 424.433424 149.60612 
z
" clip-path="url(#p687be2d767)" style="fill: #008000"/>
   </g>
   <g id="patch_51">
    <path d="M 455.253886 192.069704 
Q 453.722212 192.154116 452.065975 192.196812 
Q 450.409738 192.24 448.605869 192.24 
Q 443.226558 192.24 440.084781 191.92002 
Q 436.943005 191.60004 436.943005 191.052834 
Q 436.943005 190.503666 440.084781 190.184176 
Q 443.226558 189.864196 448.605869 189.864196 
Q 450.409738 189.864196 452.065975 189.907384 
Q 453.722212 189.95008 455.253886 190.034492 
L 455.253886 190.508083 
Q 453.708372 190.396188 452.208993 190.344166 
Q 450.709613 190.292145 449.053376 190.292145 
Q 446.082298 190.292145 444.379926 190.494832 
Q 442.682168 190.697028 442.682168 191.052834 
Q 442.682168 191.407168 444.379926 191.609855 
Q 446.082298 191.812051 449.053376 191.812051 
Q 450.709613 191.812051 452.208993 191.76003 
Q 453.708372 191.707518 455.253886 191.595623 
L 455.253886 192.069704 
z
" clip-path="url(#p687be2d767)" style="fill: #0000ff"/>
   </g>
   <g id="patch_52">
    <path d="M 455.253886 189.434293 
Q 453.407204 189.649245 451.420994 189.757211 
Q 449.434785 189.864196 447.317256 189.864196 
Q 442.532297 189.864196 439.737651 189.224249 
Q 436.943005 188.584302 436.943005 187.489914 
Q 436.943005 186.382767 439.786896 185.747728 
Q 442.63489 185.112688 447.588103 185.112688 
Q 449.496341 185.112688 451.244534 185.199061 
Q 452.99683 185.284453 454.548043 185.453273 
L 454.548043 186.400434 
Q 452.947585 186.18352 451.363542 186.076535 
Q 449.779499 185.968568 448.187248 185.968568 
Q 445.240764 185.968568 443.64441 186.363137 
Q 442.048056 186.756724 442.048056 187.489914 
Q 442.048056 188.216235 443.586958 188.612766 
Q 445.12586 189.008316 447.957439 189.008316 
Q 448.728942 189.008316 449.389644 188.985741 
Q 450.050346 188.962185 450.575624 188.913109 
L 450.575624 188.023858 
L 447.559376 188.023858 
L 447.559376 187.231776 
L 455.253886 187.231776 
L 455.253886 189.434293 
z
" clip-path="url(#p687be2d767)" style="fill: #ffa600"/>
   </g>
   <g id="patch_53">
    <path d="M 436.943005 177.985376 
L 455.253886 177.985376 
L 455.253886 179.375401 
L 448.666227 179.375401 
L 448.666227 185.112688 
L 443.543439 185.112688 
L 443.543439 179.375401 
L 436.943005 179.375401 
L 436.943005 177.985376 
z
" clip-path="url(#p687be2d767)" style="fill: #ff0000"/>
   </g>
   <g id="patch_54">
    <path d="M 449.626968 162.404974 
L 442.584898 162.404974 
L 441.472992 177.985376 
L 436.943005 177.985376 
L 443.412276 92.458134 
L 448.784615 92.458134 
L 455.253886 177.985376 
L 450.727643 177.985376 
L 449.626968 162.404974 
z
M 443.708035 146.531294 
L 448.4926 146.531294 
L 446.104061 112.511028 
L 443.708035 146.531294 
z
" clip-path="url(#p687be2d767)" style="fill: #008000"/>
   </g>
   <g id="patch_55">
    <path d="M 468.90158 191.453302 
L 461.859509 191.453302 
L 460.747603 192.24 
L 456.217617 192.24 
L 462.686887 187.921491 
L 468.059227 187.921491 
L 474.528497 192.24 
L 470.002254 192.24 
L 468.90158 191.453302 
z
M 462.982647 190.651796 
L 467.767211 190.651796 
L 465.378673 188.934018 
L 462.982647 190.651796 
z
" clip-path="url(#p687be2d767)" style="fill: #008000"/>
   </g>
   <g id="patch_56">
    <path d="M 474.528497 187.530765 
Q 472.681815 187.726128 470.695606 187.824255 
Q 468.709396 187.921491 466.591867 187.921491 
Q 461.806908 187.921491 459.012262 187.339862 
Q 456.217617 186.758232 456.217617 185.763575 
Q 456.217617 184.75732 459.061507 184.180151 
Q 461.909502 183.602982 466.862714 183.602982 
Q 468.770952 183.602982 470.519145 183.681484 
Q 472.271441 183.759094 473.822654 183.91253 
L 473.822654 184.773377 
Q 472.222196 184.57623 470.638153 184.478994 
Q 469.05411 184.380867 467.46186 184.380867 
Q 464.515376 184.380867 462.919021 184.739479 
Q 461.322667 185.097199 461.322667 185.763575 
Q 461.322667 186.423706 462.861569 186.784102 
Q 464.400471 187.143606 467.23205 187.143606 
Q 468.003553 187.143606 468.664255 187.123089 
Q 469.324957 187.101679 469.850236 187.057076 
L 469.850236 186.24886 
L 466.833988 186.24886 
L 466.833988 185.52896 
L 474.528497 185.52896 
L 474.528497 187.530765 
z
" clip-path="url(#p687be2d767)" style="fill: #ffa600"/>
   </g>
   <g id="patch_57">
    <path d="M 456.217617 177.125173 
L 474.528497 177.125173 
L 474.528497 178.388526 
L 467.940839 178.388526 
L 467.940839 183.602982 
L 462.81805 183.602982 
L 462.81805 178.388526 
L 456.217617 178.388526 
L 456.217617 177.125173 
z
" clip-path="url(#p687be2d767)" style="fill: #ff0000"/>
   </g>
   <g id="patch_58">
    <path d="M 474.528497 171.708077 
Q 472.996824 174.393208 471.340586 175.751385 
Q 469.684349 177.125173 467.88048 177.125173 
Q 462.501169 177.125173 459.359393 166.946653 
Q 456.217617 156.768132 456.217617 139.361613 
Q 456.217617 121.89265 459.359393 111.729741 
Q 462.501169 101.55122 467.88048 101.55122 
Q 469.684349 101.55122 471.340586 102.925008 
Q 472.996824 104.283185 474.528497 106.968316 
L 474.528497 122.033151 
Q 472.982983 118.473791 471.483604 116.819001 
Q 469.984225 115.164211 468.327987 115.164211 
Q 465.35691 115.164211 463.654538 121.611648 
Q 461.956779 128.043473 461.956779 139.361613 
Q 461.956779 150.63292 463.654538 157.080357 
Q 465.35691 163.512183 468.327987 163.512183 
Q 469.984225 163.512183 471.483604 161.857393 
Q 472.982983 160.186991 474.528497 156.627631 
L 474.528497 171.708077 
z
" clip-path="url(#p687be2d767)" style="fill: #0000ff"/>
   </g>
   <g id="patch_59">
    <path d="M 488.176191 190.35046 
L 481.134121 190.35046 
L 480.022215 192.24 
L 475.492228 192.24 
L 481.961498 181.867538 
L 487.333838 181.867538 
L 493.803109 192.24 
L 489.276866 192.24 
L 488.176191 190.35046 
z
M 482.257258 188.425353 
L 487.041823 188.425353 
L 484.653284 184.299487 
L 482.257258 188.425353 
z
" clip-path="url(#p687be2d767)" style="fill: #008000"/>
   </g>
   <g id="patch_60">
    <path d="M 475.492228 171.495077 
L 493.803109 171.495077 
L 493.803109 173.517996 
L 487.21545 173.517996 
L 487.21545 181.867538 
L 482.092662 181.867538 
L 482.092662 173.517996 
L 475.492228 173.517996 
L 475.492228 171.495077 
z
" clip-path="url(#p687be2d767)" style="fill: #ff0000"/>
   </g>
   <g id="patch_61">
    <path d="M 493.803109 168.521114 
Q 492.271435 169.99524 490.615198 170.740873 
Q 488.95896 171.495077 487.155092 171.495077 
Q 481.77578 171.495077 478.634004 165.907112 
Q 475.492228 160.319146 475.492228 150.76304 
Q 475.492228 141.172652 478.634004 135.593258 
Q 481.77578 130.005293 487.155092 130.005293 
Q 488.95896 130.005293 490.615198 130.759496 
Q 492.271435 131.50513 493.803109 132.979256 
L 493.803109 141.249787 
Q 492.257595 139.295713 490.758216 138.38724 
Q 489.258836 137.478767 487.602599 137.478767 
Q 484.631521 137.478767 482.929149 141.018383 
Q 481.23139 144.549429 481.23139 150.76304 
Q 481.23139 156.95094 482.929149 160.490556 
Q 484.631521 164.021602 487.602599 164.021602 
Q 489.258836 164.021602 490.758216 163.113129 
Q 492.257595 162.196086 493.803109 160.242012 
L 493.803109 168.521114 
z
" clip-path="url(#p687be2d767)" style="fill: #0000ff"/>
   </g>
   <g id="patch_62">
    <path d="M 494.766839 182.565071 
L 513.07772 182.565071 
L 513.07772 184.451952 
L 506.490061 184.451952 
L 506.490061 192.24 
L 501.367273 192.24 
L 501.367273 184.451952 
L 494.766839 184.451952 
L 494.766839 182.565071 
z
" clip-path="url(#p687be2d767)" style="fill: #ff0000"/>
   </g>
   <g id="patch_63">
    <path d="M 513.07772 173.549719 
Q 511.546047 178.018424 509.889809 180.278757 
Q 508.233572 182.565071 506.429703 182.565071 
Q 501.050392 182.565071 497.908616 165.625562 
Q 494.766839 148.686053 494.766839 119.717413 
Q 494.766839 90.64485 497.908616 73.731322 
Q 501.050392 56.791812 506.429703 56.791812 
Q 508.233572 56.791812 509.889809 59.078126 
Q 511.546047 61.33846 513.07772 65.807165 
L 513.07772 90.878678 
Q 511.532206 84.955046 510.032827 82.201076 
Q 508.533448 79.447107 506.87721 79.447107 
Q 503.906133 79.447107 502.20376 90.177195 
Q 500.506002 100.881302 500.506002 119.717413 
Q 500.506002 138.475581 502.20376 149.205669 
Q 503.906133 159.909777 506.87721 159.909777 
Q 508.533448 159.909777 510.032827 157.155807 
Q 511.532206 154.375857 513.07772 148.452225 
L 513.07772 173.549719 
z
" clip-path="url(#p687be2d767)" style="fill: #0000ff"/>
   </g>
   <g id="patch_64">
    <path d="M 526.725414 188.495898 
L 519.683344 188.495898 
L 518.571438 192.24 
L 514.041451 192.24 
L 520.510721 171.687084 
L 525.883061 171.687084 
L 532.352332 192.24 
L 527.826089 192.24 
L 526.725414 188.495898 
z
M 520.806481 184.68132 
L 525.591045 184.68132 
L 523.202507 176.505963 
L 520.806481 184.68132 
z
" clip-path="url(#p687be2d767)" style="fill: #008000"/>
   </g>
   <g id="patch_65">
    <path d="M 514.041451 84.337085 
L 532.352332 84.337085 
L 532.352332 101.372769 
L 525.764673 101.372769 
L 525.764673 171.687084 
L 520.641885 171.687084 
L 520.641885 101.372769 
L 514.041451 101.372769 
L 514.041451 84.337085 
z
" clip-path="url(#p687be2d767)" style="fill: #ff0000"/>
   </g>
   <g id="patch_66">
    <path d="M 533.316062 189.331286 
L 551.626943 189.331286 
L 551.626943 189.898566 
L 545.039284 189.898566 
L 545.039284 192.24 
L 539.916496 192.24 
L 539.916496 189.898566 
L 533.316062 189.898566 
L 533.316062 189.331286 
z
" clip-path="url(#p687be2d767)" style="fill: #ff0000"/>
   </g>
   <g id="patch_67">
    <path d="M 551.626943 188.70581 
Q 550.095269 189.015844 548.439032 189.172663 
Q 546.782795 189.331286 544.978926 189.331286 
Q 539.599615 189.331286 536.457838 188.15604 
Q 533.316062 186.980794 533.316062 184.970979 
Q 533.316062 182.953954 536.457838 181.78051 
Q 539.599615 180.605264 544.978926 180.605264 
Q 546.782795 180.605264 548.439032 180.763887 
Q 550.095269 180.920706 551.626943 181.23074 
L 551.626943 182.970177 
Q 550.081429 182.559201 548.58205 182.368133 
Q 547.08267 182.177066 545.426433 182.177066 
Q 542.455355 182.177066 540.752983 182.921508 
Q 539.055225 183.664149 539.055225 184.970979 
Q 539.055225 186.272402 540.752983 187.016844 
Q 542.455355 187.759484 545.426433 187.759484 
Q 547.08267 187.759484 548.58205 187.568417 
Q 550.081429 187.375546 551.626943 186.964571 
L 551.626943 188.70581 
z
" clip-path="url(#p687be2d767)" style="fill: #0000ff"/>
   </g>
   <g id="patch_68">
    <path d="M 546.000025 160.470329 
L 538.957955 160.470329 
L 537.846049 180.605264 
L 533.316062 180.605264 
L 539.785333 70.076315 
L 545.157672 70.076315 
L 551.626943 180.605264 
L 547.1007 180.605264 
L 546.000025 160.470329 
z
M 540.081092 139.956384 
L 544.865657 139.956384 
L 542.477118 95.991161 
L 540.081092 139.956384 
z
" clip-path="url(#p687be2d767)" style="fill: #008000"/>
   </g>
   <g id="patch_69">
    <path d="M 552.590674 185.41374 
L 570.901554 185.41374 
L 570.901554 186.745051 
L 564.313896 186.745051 
L 564.313896 192.24 
L 559.191107 192.24 
L 559.191107 186.745051 
L 552.590674 186.745051 
L 552.590674 185.41374 
z
" clip-path="url(#p687be2d767)" style="fill: #ff0000"/>
   </g>
   <g id="patch_70">
    <path d="M 565.274637 160.54307 
L 558.232566 160.54307 
L 557.12066 185.41374 
L 552.590674 185.41374 
L 559.059944 48.888395 
L 564.432284 48.888395 
L 570.901554 185.41374 
L 566.375311 185.41374 
L 565.274637 160.54307 
z
M 559.355704 135.204247 
L 564.140268 135.204247 
L 561.75173 80.898409 
L 559.355704 135.204247 
z
" clip-path="url(#p687be2d767)" style="fill: #008000"/>
   </g>
   <g id="patch_71">
    <path d="M 590.176166 191.939714 
Q 588.329484 192.089857 586.343274 192.165271 
Q 584.357065 192.24 582.239536 192.24 
Q 577.454577 192.24 574.659931 191.792999 
Q 571.865285 191.345999 571.865285 190.581573 
Q 571.865285 189.808235 574.709176 189.364662 
Q 577.55717 188.92109 582.510382 188.92109 
Q 584.418621 188.92109 586.166813 188.981421 
Q 587.91911 189.041067 589.470323 189.158987 
L 589.470323 189.820575 
Q 587.869865 189.669061 586.285822 189.594333 
Q 584.701779 189.518919 583.109528 189.518919 
Q 580.163044 189.518919 578.56669 189.794523 
Q 576.970336 190.069442 576.970336 190.581573 
Q 576.970336 191.088905 578.509237 191.365881 
Q 580.048139 191.642171 582.879719 191.642171 
Q 583.651222 191.642171 584.311924 191.626403 
Q 584.972625 191.609949 585.497904 191.575669 
L 585.497904 190.954531 
L 582.481656 190.954531 
L 582.481656 190.401265 
L 590.176166 190.401265 
L 590.176166 191.939714 
z
" clip-path="url(#p687be2d767)" style="fill: #ffa600"/>
   </g>
   <g id="patch_72">
    <path d="M 571.865285 185.602179 
L 590.176166 185.602179 
L 590.176166 186.249459 
L 583.588507 186.249459 
L 583.588507 188.92109 
L 578.465719 188.92109 
L 578.465719 186.249459 
L 571.865285 186.249459 
L 571.865285 185.602179 
z
" clip-path="url(#p687be2d767)" style="fill: #ff0000"/>
   </g>
   <g id="patch_73">
    <path d="M 584.549248 161.418574 
L 577.507178 161.418574 
L 576.395272 185.602179 
L 571.865285 185.602179 
L 578.334555 52.848413 
L 583.706895 52.848413 
L 590.176166 185.602179 
L 585.649923 185.602179 
L 584.549248 161.418574 
z
M 578.630315 136.779748 
L 583.41488 136.779748 
L 581.026341 83.974136 
L 578.630315 136.779748 
z
" clip-path="url(#p687be2d767)" style="fill: #008000"/>
   </g>
   <g id="patch_74">
    <path d="M 591.139896 187.463757 
L 609.450777 187.463757 
L 609.450777 188.395257 
L 602.863118 188.395257 
L 602.863118 192.24 
L 597.74033 192.24 
L 597.74033 188.395257 
L 591.139896 188.395257 
L 591.139896 187.463757 
z
" clip-path="url(#p687be2d767)" style="fill: #ff0000"/>
   </g>
   <g id="patch_75">
    <path d="M 603.82386 185.28854 
L 596.781789 185.28854 
L 595.669883 187.463757 
L 591.139896 187.463757 
L 597.609167 175.523098 
L 602.981507 175.523098 
L 609.450777 187.463757 
L 604.924534 187.463757 
L 603.82386 185.28854 
z
M 597.904926 183.072378 
L 602.689491 183.072378 
L 600.300952 178.322729 
L 597.904926 183.072378 
z
" clip-path="url(#p687be2d767)" style="fill: #008000"/>
   </g>
   <g id="patch_76">
    <path d="M 609.450777 169.531824 
Q 607.919104 172.501562 606.262866 174.003697 
Q 604.606629 175.523098 602.80276 175.523098 
Q 597.423449 175.523098 594.281673 164.265719 
Q 591.139896 153.008341 591.139896 133.756842 
Q 591.139896 114.43628 594.281673 103.196167 
Q 597.423449 91.938788 602.80276 91.938788 
Q 604.606629 91.938788 606.262866 93.458189 
Q 607.919104 94.960324 609.450777 97.930062 
L 609.450777 114.591673 
Q 607.905263 110.655044 606.405884 108.824856 
Q 604.906505 106.994669 603.250267 106.994669 
Q 600.27919 106.994669 598.576817 114.125493 
Q 596.879059 121.239051 596.879059 133.756842 
Q 596.879059 146.222835 598.576817 153.353659 
Q 600.27919 160.467217 603.250267 160.467217 
Q 604.906505 160.467217 606.405884 158.63703 
Q 607.905263 156.789577 609.450777 152.852947 
L 609.450777 169.531824 
z
" clip-path="url(#p687be2d767)" style="fill: #0000ff"/>
   </g>
   <g id="patch_77">
    <path d="M 628.725389 191.95996 
Q 626.878706 192.09998 624.892497 192.17031 
Q 622.906288 192.24 620.788758 192.24 
Q 616.003799 192.24 613.209154 191.823137 
Q 610.414508 191.406274 610.414508 190.693387 
Q 610.414508 189.972188 613.258398 189.558522 
Q 616.106393 189.144856 621.059605 189.144856 
Q 622.967844 189.144856 624.716036 189.20112 
Q 626.468332 189.256744 628.019546 189.366714 
L 628.019546 189.983697 
Q 626.419088 189.842398 624.835045 189.772708 
Q 623.251002 189.702378 621.658751 189.702378 
Q 618.712267 189.702378 617.115913 189.959401 
Q 615.519558 190.215785 615.519558 190.693387 
Q 615.519558 191.166514 617.05846 191.424815 
Q 618.597362 191.682478 621.428942 191.682478 
Q 622.200445 191.682478 622.861146 191.667772 
Q 623.521848 191.652428 624.047127 191.62046 
L 624.047127 191.041199 
L 621.030879 191.041199 
L 621.030879 190.525235 
L 628.725389 190.525235 
L 628.725389 191.95996 
z
" clip-path="url(#p687be2d767)" style="fill: #ffa600"/>
   </g>
   <g id="patch_78">
    <path d="M 610.414508 182.954698 
L 628.725389 182.954698 
L 628.725389 184.161951 
L 622.13773 184.161951 
L 622.13773 189.144856 
L 617.014942 189.144856 
L 617.014942 184.161951 
L 610.414508 184.161951 
L 610.414508 182.954698 
z
" clip-path="url(#p687be2d767)" style="fill: #ff0000"/>
   </g>
   <g id="patch_79">
    <path d="M 628.725389 174.30241 
Q 627.193715 178.591152 625.537478 180.760458 
Q 623.88124 182.954698 622.077372 182.954698 
Q 616.69806 182.954698 613.556284 166.697372 
Q 610.414508 150.440047 610.414508 122.638026 
Q 610.414508 94.736266 613.556284 78.503875 
Q 616.69806 62.24655 622.077372 62.24655 
Q 623.88124 62.24655 625.537478 64.44079 
Q 627.193715 66.610096 628.725389 70.898838 
L 628.725389 94.960677 
Q 627.179875 89.2756 625.680495 86.632538 
Q 624.181116 83.989476 622.524879 83.989476 
Q 619.553801 83.989476 617.851429 94.287444 
Q 616.15367 104.560478 616.15367 122.638026 
Q 616.15367 140.64077 617.851429 150.938738 
Q 619.553801 161.211772 622.524879 161.211772 
Q 624.181116 161.211772 625.680495 158.56871 
Q 627.179875 155.900713 628.725389 150.215636 
L 628.725389 174.30241 
z
" clip-path="url(#p687be2d767)" style="fill: #0000ff"/>
   </g>
   <g id="patch_80">
    <path d="M 648 191.539929 
Q 646.153318 191.889964 644.167108 192.065781 
Q 642.180899 192.24 640.06337 192.24 
Q 635.278411 192.24 632.483765 191.197885 
Q 629.689119 190.15577 629.689119 188.373626 
Q 629.689119 186.570703 632.53301 185.53658 
Q 635.381004 184.502456 640.334217 184.502456 
Q 642.242455 184.502456 643.990648 184.64311 
Q 645.742944 184.782165 647.294157 185.057079 
L 647.294157 186.599473 
Q 645.693699 186.246241 644.109656 186.072022 
Q 642.525613 185.896205 640.933362 185.896205 
Q 637.986878 185.896205 636.390524 186.538736 
Q 634.79417 187.179669 634.79417 188.373626 
Q 634.79417 189.556394 636.333072 190.202122 
Q 637.871974 190.846251 640.703553 190.846251 
Q 641.475056 190.846251 642.135758 190.809489 
Q 642.79646 190.771129 643.321738 190.691213 
L 643.321738 189.24312 
L 640.30549 189.24312 
L 640.30549 187.953263 
L 648 187.953263 
L 648 191.539929 
z
" clip-path="url(#p687be2d767)" style="fill: #ffa600"/>
   </g>
   <g id="patch_81">
    <path d="M 629.689119 172.896141 
L 648 172.896141 
L 648 175.159696 
L 641.412341 175.159696 
L 641.412341 184.502456 
L 636.289553 184.502456 
L 636.289553 175.159696 
L 629.689119 175.159696 
L 629.689119 172.896141 
z
" clip-path="url(#p687be2d767)" style="fill: #ff0000"/>
   </g>
   <g id="patch_82">
    <path d="M 648 168.459155 
Q 646.468326 170.658468 644.812089 171.770911 
Q 643.155852 172.896141 641.351983 172.896141 
Q 635.972672 172.896141 632.830895 164.55921 
Q 629.689119 156.22228 629.689119 141.965105 
Q 629.689119 127.656784 632.830895 119.33264 
Q 635.972672 110.99571 641.351983 110.99571 
Q 643.155852 110.99571 644.812089 112.12094 
Q 646.468326 113.233383 648 115.432696 
L 648 127.771865 
Q 646.454486 124.856496 644.955107 123.501106 
Q 643.455727 122.145715 641.79949 122.145715 
Q 638.828412 122.145715 637.12604 127.426624 
Q 635.428282 132.694745 635.428282 141.965105 
Q 635.428282 151.197105 637.12604 156.478014 
Q 638.828412 161.746135 641.79949 161.746135 
Q 643.455727 161.746135 644.955107 160.390745 
Q 646.454486 159.022568 648 156.107199 
L 648 168.459155 
z
" clip-path="url(#p687be2d767)" style="fill: #0000ff"/>
   </g>
   <g id="matplotlib.axis_1">
    <g id="xtick_1">
     <g id="line2d_2">
      <defs>
       <path id="m5401140283" d="M 0 0 
L 0 3.5 
" style="stroke: #000000; stroke-width: 0.8"/>
      </defs>
      <g>
       <use xlink:href="#m5401140283" x="99.15544" y="192.24" style="stroke: #000000; stroke-width: 0.8"/>
      </g>
     </g>
     <g id="text_1">
      <!-- 0 -->
      <g transform="translate(95.97419 206.838437) scale(0.1 -0.1)">
       <defs>
        <path id="DejaVuSans-30" d="M 2034 4250 
Q 1547 4250 1301 3770 
Q 1056 3291 1056 2328 
Q 1056 1369 1301 889 
Q 1547 409 2034 409 
Q 2525 409 2770 889 
Q 3016 1369 3016 2328 
Q 3016 3291 2770 3770 
Q 2525 4250 2034 4250 
z
M 2034 4750 
Q 2819 4750 3233 4129 
Q 3647 3509 3647 2328 
Q 3647 1150 3233 529 
Q 2819 -91 2034 -91 
Q 1250 -91 836 529 
Q 422 1150 422 2328 
Q 422 3509 836 4129 
Q 1250 4750 2034 4750 
z
" transform="scale(0.015625)"/>
       </defs>
       <use xlink:href="#DejaVuSans-30"/>
      </g>
     </g>
    </g>
    <g id="xtick_2">
     <g id="line2d_3">
      <g>
       <use xlink:href="#m5401140283" x="195.528497" y="192.24" style="stroke: #000000; stroke-width: 0.8"/>
      </g>
     </g>
     <g id="text_2">
      <!-- 5 -->
      <g transform="translate(192.347247 206.838437) scale(0.1 -0.1)">
       <defs>
        <path id="DejaVuSans-35" d="M 691 4666 
L 3169 4666 
L 3169 4134 
L 1269 4134 
L 1269 2991 
Q 1406 3038 1543 3061 
Q 1681 3084 1819 3084 
Q 2600 3084 3056 2656 
Q 3513 2228 3513 1497 
Q 3513 744 3044 326 
Q 2575 -91 1722 -91 
Q 1428 -91 1123 -41 
Q 819 9 494 109 
L 494 744 
Q 775 591 1075 516 
Q 1375 441 1709 441 
Q 2250 441 2565 725 
Q 2881 1009 2881 1497 
Q 2881 1984 2565 2268 
Q 2250 2553 1709 2553 
Q 1456 2553 1204 2497 
Q 953 2441 691 2322 
L 691 4666 
z
" transform="scale(0.015625)"/>
       </defs>
       <use xlink:href="#DejaVuSans-35"/>
      </g>
     </g>
    </g>
    <g id="xtick_3">
     <g id="line2d_4">
      <g>
       <use xlink:href="#m5401140283" x="291.901554" y="192.24" style="stroke: #000000; stroke-width: 0.8"/>
      </g>
     </g>
     <g id="text_3">
      <!-- 10 -->
      <g transform="translate(285.539054 206.838437) scale(0.1 -0.1)">
       <defs>
        <path id="DejaVuSans-31" d="M 794 531 
L 1825 531 
L 1825 4091 
L 703 3866 
L 703 4441 
L 1819 4666 
L 2450 4666 
L 2450 531 
L 3481 531 
L 3481 0 
L 794 0 
L 794 531 
z
" transform="scale(0.015625)"/>
       </defs>
       <use xlink:href="#DejaVuSans-31"/>
       <use xlink:href="#DejaVuSans-30" x="63.623047"/>
      </g>
     </g>
    </g>
    <g id="xtick_4">
     <g id="line2d_5">
      <g>
       <use xlink:href="#m5401140283" x="388.274611" y="192.24" style="stroke: #000000; stroke-width: 0.8"/>
      </g>
     </g>
     <g id="text_4">
      <!-- 15 -->
      <g transform="translate(381.912111 206.838437) scale(0.1 -0.1)">
       <use xlink:href="#DejaVuSans-31"/>
       <use xlink:href="#DejaVuSans-35" x="63.623047"/>
      </g>
     </g>
    </g>
    <g id="xtick_5">
     <g id="line2d_6">
      <g>
       <use xlink:href="#m5401140283" x="484.647668" y="192.24" style="stroke: #000000; stroke-width: 0.8"/>
      </g>
     </g>
     <g id="text_5">
      <!-- 20 -->
      <g transform="translate(478.285168 206.838437) scale(0.1 -0.1)">
       <defs>
        <path id="DejaVuSans-32" d="M 1228 531 
L 3431 531 
L 3431 0 
L 469 0 
L 469 531 
Q 828 903 1448 1529 
Q 2069 2156 2228 2338 
Q 2531 2678 2651 2914 
Q 2772 3150 2772 3378 
Q 2772 3750 2511 3984 
Q 2250 4219 1831 4219 
Q 1534 4219 1204 4116 
Q 875 4013 500 3803 
L 500 4441 
Q 881 4594 1212 4672 
Q 1544 4750 1819 4750 
Q 2544 4750 2975 4387 
Q 3406 4025 3406 3419 
Q 3406 3131 3298 2873 
Q 3191 2616 2906 2266 
Q 2828 2175 2409 1742 
Q 1991 1309 1228 531 
z
" transform="scale(0.015625)"/>
       </defs>
       <use xlink:href="#DejaVuSans-32"/>
       <use xlink:href="#DejaVuSans-30" x="63.623047"/>
      </g>
     </g>
    </g>
    <g id="xtick_6">
     <g id="line2d_7">
      <g>
       <use xlink:href="#m5401140283" x="581.020725" y="192.24" style="stroke: #000000; stroke-width: 0.8"/>
      </g>
     </g>
     <g id="text_6">
      <!-- 25 -->
      <g transform="translate(574.658225 206.838437) scale(0.1 -0.1)">
       <use xlink:href="#DejaVuSans-32"/>
       <use xlink:href="#DejaVuSans-35" x="63.623047"/>
      </g>
     </g>
    </g>
   </g>
   <g id="matplotlib.axis_2">
    <g id="ytick_1">
     <g id="line2d_8">
      <defs>
       <path id="md849c81f7f" d="M 0 0 
L -3.5 0 
" style="stroke: #000000; stroke-width: 0.8"/>
      </defs>
      <g>
       <use xlink:href="#md849c81f7f" x="90" y="192.24" style="stroke: #000000; stroke-width: 0.8"/>
      </g>
     </g>
     <g id="text_7">
      <!-- 0.00 -->
      <g transform="translate(60.734375 196.039219) scale(0.1 -0.1)">
       <defs>
        <path id="DejaVuSans-2e" d="M 684 794 
L 1344 794 
L 1344 0 
L 684 0 
L 684 794 
z
" transform="scale(0.015625)"/>
       </defs>
       <use xlink:href="#DejaVuSans-30"/>
       <use xlink:href="#DejaVuSans-2e" x="63.623047"/>
       <use xlink:href="#DejaVuSans-30" x="95.410156"/>
       <use xlink:href="#DejaVuSans-30" x="159.033203"/>
      </g>
     </g>
    </g>
    <g id="ytick_2">
     <g id="line2d_9">
      <g>
       <use xlink:href="#md849c81f7f" x="90" y="171.45" style="stroke: #000000; stroke-width: 0.8"/>
      </g>
     </g>
     <g id="text_8">
      <!-- 0.25 -->
      <g transform="translate(60.734375 175.249219) scale(0.1 -0.1)">
       <use xlink:href="#DejaVuSans-30"/>
       <use xlink:href="#DejaVuSans-2e" x="63.623047"/>
       <use xlink:href="#DejaVuSans-32" x="95.410156"/>
       <use xlink:href="#DejaVuSans-35" x="159.033203"/>
      </g>
     </g>
    </g>
    <g id="ytick_3">
     <g id="line2d_10">
      <g>
       <use xlink:href="#md849c81f7f" x="90" y="150.66" style="stroke: #000000; stroke-width: 0.8"/>
      </g>
     </g>
     <g id="text_9">
      <!-- 0.50 -->
      <g transform="translate(60.734375 154.459219) scale(0.1 -0.1)">
       <use xlink:href="#DejaVuSans-30"/>
       <use xlink:href="#DejaVuSans-2e" x="63.623047"/>
       <use xlink:href="#DejaVuSans-35" x="95.410156"/>
       <use xlink:href="#DejaVuSans-30" x="159.033203"/>
      </g>
     </g>
    </g>
    <g id="ytick_4">
     <g id="line2d_11">
      <g>
       <use xlink:href="#md849c81f7f" x="90" y="129.87" style="stroke: #000000; stroke-width: 0.8"/>
      </g>
     </g>
     <g id="text_10">
      <!-- 0.75 -->
      <g transform="translate(60.734375 133.669219) scale(0.1 -0.1)">
       <defs>
        <path id="DejaVuSans-37" d="M 525 4666 
L 3525 4666 
L 3525 4397 
L 1831 0 
L 1172 0 
L 2766 4134 
L 525 4134 
L 525 4666 
z
" transform="scale(0.015625)"/>
       </defs>
       <use xlink:href="#DejaVuSans-30"/>
       <use xlink:href="#DejaVuSans-2e" x="63.623047"/>
       <use xlink:href="#DejaVuSans-37" x="95.410156"/>
       <use xlink:href="#DejaVuSans-35" x="159.033203"/>
      </g>
     </g>
    </g>
    <g id="ytick_5">
     <g id="line2d_12">
      <g>
       <use xlink:href="#md849c81f7f" x="90" y="109.08" style="stroke: #000000; stroke-width: 0.8"/>
      </g>
     </g>
     <g id="text_11">
      <!-- 1.00 -->
      <g transform="translate(60.734375 112.879219) scale(0.1 -0.1)">
       <use xlink:href="#DejaVuSans-31"/>
       <use xlink:href="#DejaVuSans-2e" x="63.623047"/>
       <use xlink:href="#DejaVuSans-30" x="95.410156"/>
       <use xlink:href="#DejaVuSans-30" x="159.033203"/>
      </g>
     </g>
    </g>
    <g id="ytick_6">
     <g id="line2d_13">
      <g>
       <use xlink:href="#md849c81f7f" x="90" y="88.29" style="stroke: #000000; stroke-width: 0.8"/>
      </g>
     </g>
     <g id="text_12">
      <!-- 1.25 -->
      <g transform="translate(60.734375 92.089219) scale(0.1 -0.1)">
       <use xlink:href="#DejaVuSans-31"/>
       <use xlink:href="#DejaVuSans-2e" x="63.623047"/>
       <use xlink:href="#DejaVuSans-32" x="95.410156"/>
       <use xlink:href="#DejaVuSans-35" x="159.033203"/>
      </g>
     </g>
    </g>
    <g id="ytick_7">
     <g id="line2d_14">
      <g>
       <use xlink:href="#md849c81f7f" x="90" y="67.5" style="stroke: #000000; stroke-width: 0.8"/>
      </g>
     </g>
     <g id="text_13">
      <!-- 1.50 -->
      <g transform="translate(60.734375 71.299219) scale(0.1 -0.1)">
       <use xlink:href="#DejaVuSans-31"/>
       <use xlink:href="#DejaVuSans-2e" x="63.623047"/>
       <use xlink:href="#DejaVuSans-35" x="95.410156"/>
       <use xlink:href="#DejaVuSans-30" x="159.033203"/>
      </g>
     </g>
    </g>
    <g id="ytick_8">
     <g id="line2d_15">
      <g>
       <use xlink:href="#md849c81f7f" x="90" y="46.71" style="stroke: #000000; stroke-width: 0.8"/>
      </g>
     </g>
     <g id="text_14">
      <!-- 1.75 -->
      <g transform="translate(60.734375 50.509219) scale(0.1 -0.1)">
       <use xlink:href="#DejaVuSans-31"/>
       <use xlink:href="#DejaVuSans-2e" x="63.623047"/>
       <use xlink:href="#DejaVuSans-37" x="95.410156"/>
       <use xlink:href="#DejaVuSans-35" x="159.033203"/>
      </g>
     </g>
    </g>
    <g id="ytick_9">
     <g id="line2d_16">
      <g>
       <use xlink:href="#md849c81f7f" x="90" y="25.92" style="stroke: #000000; stroke-width: 0.8"/>
      </g>
     </g>
     <g id="text_15">
      <!-- 2.00 -->
      <g transform="translate(60.734375 29.719219) scale(0.1 -0.1)">
       <use xlink:href="#DejaVuSans-32"/>
       <use xlink:href="#DejaVuSans-2e" x="63.623047"/>
       <use xlink:href="#DejaVuSans-30" x="95.410156"/>
       <use xlink:href="#DejaVuSans-30" x="159.033203"/>
      </g>
     </g>
    </g>
   </g>
  </g>
 </g>
 <defs>
  <clipPath id="p687be2d767">
   <rect x="90" y="25.92" width="558" height="166.32"/>
  </clipPath>
 </defs>
</svg>
