<?xml version="1.0" encoding="utf-8" standalone="no"?>
<!DOCTYPE svg PUBLIC "-//W3C//DTD SVG 1.1//EN"
  "http://www.w3.org/Graphics/SVG/1.1/DTD/svg11.dtd">
<svg xmlns:xlink="http://www.w3.org/1999/xlink" width="720pt" height="216pt" viewBox="0 0 720 216" xmlns="http://www.w3.org/2000/svg" version="1.1">
 <metadata>
  <rdf:RDF xmlns:dc="http://purl.org/dc/elements/1.1/" xmlns:cc="http://creativecommons.org/ns#" xmlns:rdf="http://www.w3.org/1999/02/22-rdf-syntax-ns#">
   <cc:Work>
    <dc:type rdf:resource="http://purl.org/dc/dcmitype/StillImage"/>
    <dc:date>2025-12-17T10:28:34.179625</dc:date>
    <dc:format>image/svg+xml</dc:format>
    <dc:creator>
     <cc:Agent>
      <dc:title>Matplotlib v3.8.2, https://matplotlib.org/</dc:title>
     </cc:Agent>
    </dc:creator>
   </cc:Work>
  </rdf:RDF>
 </metadata>
 <defs>
  <style type="text/css">*{stroke-linejoin: round; stroke-linecap: butt}</style>
 </defs>
 <g id="figure_1">
  <g id="patch_1">
   <path d="M 0 216 
L 720 216 
L 720 0 
L 0 0 
z
" style="fill: #ffffff"/>
  </g>
  <g id="axes_1">
   <g id="patch_2">
    <path d="M 90 192.24 
L 648 192.24 
L 648 25.92 
L 90 25.92 
z
" style="fill: #ffffff"/>
   </g>
   <g id="line2d_1">
    <path d="M 90 192.24 
L 648 192.24 
" clip-path="url(#p74cb20147a)" style="fill: none; stroke: #000000; stroke-width: 0.5; stroke-linecap: square"/>
   </g>
   <g id="patch_3">
    <path d="M 115.303103 191.886967 
Q 112.751243 192.063483 110.006577 192.152145 
Q 107.26191 192.24 104.335778 192.24 
Q 97.723627 192.24 93.861814 191.71448 
Q 90 191.18896 90 190.290256 
Q 90 189.381074 93.929863 188.859583 
Q 97.865397 188.338093 104.710051 188.338093 
Q 107.346972 188.338093 109.762733 188.409022 
Q 112.184163 188.479146 114.327725 188.61778 
L 114.327725 189.395582 
Q 112.116114 189.217453 109.927186 189.129598 
Q 107.738258 189.040936 105.537988 189.040936 
Q 101.466354 189.040936 99.260414 189.364953 
Q 97.054473 189.688164 97.054473 190.290256 
Q 97.054473 190.886705 99.181023 191.212334 
Q 101.307572 191.537157 105.220423 191.537157 
Q 106.286533 191.537157 107.199532 191.518619 
Q 108.11253 191.499274 108.838392 191.458974 
L 108.838392 190.728727 
L 104.670356 190.728727 
L 104.670356 190.078274 
L 115.303103 190.078274 
L 115.303103 191.886967 
z
" clip-path="url(#p74cb20147a)" style="fill: #ffa600"/>
   </g>
   <g id="patch_4">
    <path d="M 115.303103 187.88527 
Q 113.186542 188.109724 110.897851 188.223256 
Q 108.60916 188.338093 106.116463 188.338093 
Q 98.683 188.338093 94.3415 187.487255 
Q 90 186.636417 90 185.18138 
Q 90 183.721122 94.3415 182.871589 
Q 98.683 182.020751 106.116463 182.020751 
Q 108.60916 182.020751 110.897851 182.135588 
Q 113.186542 182.24912 115.303103 182.473574 
L 115.303103 183.732867 
Q 113.167416 183.435334 111.095482 183.297008 
Q 109.023547 183.158682 106.734856 183.158682 
Q 102.629238 183.158682 100.276796 183.697633 
Q 97.930728 184.235279 97.930728 185.18138 
Q 97.930728 186.123565 100.276796 186.662516 
Q 102.629238 187.200163 106.734856 187.200163 
Q 109.023547 187.200163 111.095482 187.061836 
Q 113.167416 186.922205 115.303103 186.624672 
L 115.303103 187.88527 
z
" clip-path="url(#p74cb20147a)" style="fill: #0000ff"/>
   </g>
   <g id="patch_5">
    <path d="M 90 175.517599 
L 115.303103 175.517599 
L 115.303103 176.785895 
L 106.19987 176.785895 
L 106.19987 182.020751 
L 99.120886 182.020751 
L 99.120886 176.785895 
L 90 176.785895 
L 90 175.517599 
z
" clip-path="url(#p74cb20147a)" style="fill: #ff0000"/>
   </g>
   <g id="patch_6">
    <path d="M 107.527481 164.17861 
L 97.796315 164.17861 
L 96.259815 175.517599 
L 90 175.517599 
L 98.939636 113.273218 
L 106.363466 113.273218 
L 115.303103 175.517599 
L 109.048461 175.517599 
L 107.527481 164.17861 
z
M 99.348335 152.626181 
L 105.959941 152.626181 
L 102.659311 127.867164 
L 99.348335 152.626181 
z
" clip-path="url(#p74cb20147a)" style="fill: #008000"/>
   </g>
   <g id="patch_7">
    <path d="M 141.937947 191.965787 
Q 139.386088 192.102894 136.641422 192.17176 
Q 133.896755 192.24 130.970623 192.24 
Q 124.358472 192.24 120.496659 191.831811 
Q 116.634845 191.423622 116.634845 190.725568 
Q 116.634845 190.019376 120.564708 189.614317 
Q 124.500242 189.209258 131.344896 189.209258 
Q 133.981817 189.209258 136.397577 189.264351 
Q 138.819008 189.318818 140.96257 189.4265 
L 140.96257 190.030645 
Q 138.750959 189.892286 136.562031 189.824046 
Q 134.373102 189.75518 132.172833 189.75518 
Q 128.101199 189.75518 125.895259 190.006855 
Q 123.689318 190.257904 123.689318 190.725568 
Q 123.689318 191.18885 125.815868 191.441777 
Q 127.942417 191.694078 131.855268 191.694078 
Q 132.921378 191.694078 133.834377 191.679679 
Q 134.747375 191.664654 135.473237 191.633351 
L 135.473237 191.066143 
L 131.3052 191.066143 
L 131.3052 190.560915 
L 141.937947 190.560915 
L 141.937947 191.965787 
z
" clip-path="url(#p74cb20147a)" style="fill: #ffa600"/>
   </g>
   <g id="patch_8">
    <path d="M 141.937947 188.919601 
Q 139.821387 189.063177 137.532696 189.1358 
Q 135.244005 189.209258 132.751308 189.209258 
Q 125.317845 189.209258 120.976345 188.665003 
Q 116.634845 188.120747 116.634845 187.190004 
Q 116.634845 186.255921 120.976345 185.712501 
Q 125.317845 185.168245 132.751308 185.168245 
Q 135.244005 185.168245 137.532696 185.241703 
Q 139.821387 185.314326 141.937947 185.457903 
L 141.937947 186.263434 
Q 139.802261 186.073112 137.730326 185.984628 
Q 135.658392 185.896145 133.369701 185.896145 
Q 129.264083 185.896145 126.91164 186.240896 
Q 124.565573 186.584812 124.565573 187.190004 
Q 124.565573 187.792692 126.91164 188.137442 
Q 129.264083 188.481358 133.369701 188.481358 
Q 135.658392 188.481358 137.730326 188.392875 
Q 139.802261 188.303557 141.937947 188.113235 
L 141.937947 188.919601 
z
" clip-path="url(#p74cb20147a)" style="fill: #0000ff"/>
   </g>
   <g id="patch_9">
    <path d="M 116.634845 174.055549 
L 141.937947 174.055549 
L 141.937947 176.222835 
L 132.834715 176.222835 
L 132.834715 185.168245 
L 125.755731 185.168245 
L 125.755731 176.222835 
L 116.634845 176.222835 
L 116.634845 174.055549 
z
" clip-path="url(#p74cb20147a)" style="fill: #ff0000"/>
   </g>
   <g id="patch_10">
    <path d="M 134.162326 164.332353 
L 124.43116 164.332353 
L 122.89466 174.055549 
L 116.634845 174.055549 
L 125.574481 120.680919 
L 132.998311 120.680919 
L 141.937947 174.055549 
L 135.683306 174.055549 
L 134.162326 164.332353 
z
M 125.98318 154.426131 
L 132.594786 154.426131 
L 129.294156 133.195245 
L 125.98318 154.426131 
z
" clip-path="url(#p74cb20147a)" style="fill: #008000"/>
   </g>
   <g id="patch_11">
    <path d="M 168.572792 191.957949 
Q 166.020933 192.098974 163.276267 192.169809 
Q 160.5316 192.24 157.605468 192.24 
Q 150.993317 192.24 147.131503 191.820143 
Q 143.26969 191.400286 143.26969 190.682279 
Q 143.26969 189.955901 147.199553 189.539264 
Q 151.135087 189.122626 157.979741 189.122626 
Q 160.616662 189.122626 163.032422 189.179294 
Q 165.453853 189.235318 167.597415 189.346078 
L 167.597415 189.967492 
Q 165.385804 189.825178 163.196875 189.754988 
Q 161.007947 189.684153 158.807677 189.684153 
Q 154.736044 189.684153 152.530104 189.943022 
Q 150.324163 190.201247 150.324163 190.682279 
Q 150.324163 191.158804 152.450712 191.418961 
Q 154.577262 191.678473 158.490113 191.678473 
Q 159.556223 191.678473 160.469221 191.663663 
Q 161.38222 191.648208 162.108082 191.61601 
L 162.108082 191.032589 
L 157.940045 191.032589 
L 157.940045 190.51292 
L 168.572792 190.51292 
L 168.572792 191.957949 
z
" clip-path="url(#p74cb20147a)" style="fill: #ffa600"/>
   </g>
   <g id="patch_12">
    <path d="M 160.797171 187.98686 
L 151.066005 187.98686 
L 149.529505 189.122626 
L 143.26969 189.122626 
L 152.209326 182.887939 
L 159.633156 182.887939 
L 168.572792 189.122626 
L 162.318151 189.122626 
L 160.797171 187.98686 
z
M 152.618025 186.829715 
L 159.229631 186.829715 
L 155.929001 184.349737 
L 152.618025 186.829715 
z
" clip-path="url(#p74cb20147a)" style="fill: #008000"/>
   </g>
   <g id="patch_13">
    <path d="M 143.26969 174.952834 
L 168.572792 174.952834 
L 168.572792 176.5004 
L 159.46956 176.5004 
L 159.46956 182.887939 
L 152.390576 182.887939 
L 152.390576 176.5004 
L 143.26969 176.5004 
L 143.26969 174.952834 
z
" clip-path="url(#p74cb20147a)" style="fill: #ff0000"/>
   </g>
   <g id="patch_14">
    <path d="M 168.572792 171.875316 
Q 166.456231 173.400771 164.167541 174.172368 
Q 161.87885 174.952834 159.386153 174.952834 
Q 151.952689 174.952834 147.61119 169.170292 
Q 143.26969 163.387751 143.26969 153.498896 
Q 143.26969 143.574565 147.61119 137.800892 
Q 151.952689 132.018351 159.386153 132.018351 
Q 161.87885 132.018351 164.167541 132.798817 
Q 166.456231 133.570414 168.572792 135.095869 
L 168.572792 143.654385 
Q 166.437106 141.632269 164.365171 140.692163 
Q 162.293237 139.752057 160.004546 139.752057 
Q 155.898928 139.752057 153.546485 143.414924 
Q 151.200418 147.068923 151.200418 153.498896 
Q 151.200418 159.902262 153.546485 163.56513 
Q 155.898928 167.219128 160.004546 167.219128 
Q 162.293237 167.219128 164.365171 166.279022 
Q 166.437106 165.330046 168.572792 163.307931 
L 168.572792 171.875316 
z
" clip-path="url(#p74cb20147a)" style="fill: #0000ff"/>
   </g>
   <g id="patch_15">
    <path d="M 187.432016 191.402667 
L 177.700849 191.402667 
L 176.164349 192.24 
L 169.904535 192.24 
L 178.844171 187.643532 
L 186.268001 187.643532 
L 195.207637 192.24 
L 188.952996 192.24 
L 187.432016 191.402667 
z
M 179.25287 190.549571 
L 185.864476 190.549571 
L 182.563846 188.721229 
L 179.25287 190.549571 
z
" clip-path="url(#p74cb20147a)" style="fill: #008000"/>
   </g>
   <g id="patch_16">
    <path d="M 195.207637 187.137255 
Q 192.655778 187.390393 189.911111 187.51754 
Q 187.166445 187.643532 184.240313 187.643532 
Q 177.628162 187.643532 173.766348 186.889896 
Q 169.904535 186.136259 169.904535 184.847449 
Q 169.904535 183.543612 173.834398 182.795755 
Q 177.769932 182.047898 184.614586 182.047898 
Q 187.251507 182.047898 189.667267 182.149616 
Q 192.088698 182.250178 194.23226 182.44899 
L 194.23226 183.564418 
Q 192.020649 183.308967 189.83172 183.182976 
Q 187.642792 183.055829 185.442522 183.055829 
Q 181.370889 183.055829 179.164948 183.520494 
Q 176.959008 183.984003 176.959008 184.847449 
Q 176.959008 185.702803 179.085557 186.16978 
Q 181.212107 186.635601 185.124958 186.635601 
Q 186.191068 186.635601 187.104066 186.609016 
Q 188.017065 186.581275 188.742927 186.52348 
L 188.742927 185.47625 
L 184.57489 185.47625 
L 184.57489 184.543451 
L 195.207637 184.543451 
L 195.207637 187.137255 
z
" clip-path="url(#p74cb20147a)" style="fill: #ffa600"/>
   </g>
   <g id="patch_17">
    <path d="M 169.904535 176.052564 
L 195.207637 176.052564 
L 195.207637 177.221821 
L 186.104405 177.221821 
L 186.104405 182.047898 
L 179.02542 182.047898 
L 179.02542 177.221821 
L 169.904535 177.221821 
L 169.904535 176.052564 
z
" clip-path="url(#p74cb20147a)" style="fill: #ff0000"/>
   </g>
   <g id="patch_18">
    <path d="M 195.207637 171.124838 
Q 193.091076 173.567399 190.802386 174.802881 
Q 188.513695 176.052564 186.020998 176.052564 
Q 178.587534 176.052564 174.246034 166.793551 
Q 169.904535 157.534539 169.904535 141.700491 
Q 169.904535 125.80964 174.246034 116.564828 
Q 178.587534 107.305816 186.020998 107.305816 
Q 188.513695 107.305816 190.802386 108.555498 
Q 193.091076 109.79098 195.207637 112.233542 
L 195.207637 125.937448 
Q 193.071951 122.699634 191.000016 121.194334 
Q 188.928082 119.689035 186.639391 119.689035 
Q 182.533773 119.689035 180.18133 125.554023 
Q 177.835263 131.40481 177.835263 141.700491 
Q 177.835263 151.953569 180.18133 157.818557 
Q 182.533773 163.669344 186.639391 163.669344 
Q 188.928082 163.669344 191.000016 162.164045 
Q 193.071951 160.644544 195.207637 157.40673 
L 195.207637 171.124838 
z
" clip-path="url(#p74cb20147a)" style="fill: #0000ff"/>
   </g>
   <g id="patch_19">
    <path d="M 221.842482 192.079412 
Q 219.290623 192.159706 216.545956 192.200036 
Q 213.80129 192.24 210.875158 192.24 
Q 204.263007 192.24 200.401193 192.000951 
Q 196.539379 191.761903 196.539379 191.3531 
Q 196.539379 190.939531 200.469243 190.702316 
Q 204.404777 190.4651 211.249431 190.4651 
Q 213.886352 190.4651 216.302112 190.497365 
Q 218.723543 190.529262 220.867105 190.592324 
L 220.867105 190.946131 
Q 218.655493 190.865104 216.466565 190.82514 
Q 214.277637 190.78481 212.077367 190.78481 
Q 208.005734 190.78481 205.799793 190.932198 
Q 203.593853 191.079221 203.593853 191.3531 
Q 203.593853 191.624413 205.720402 191.772535 
Q 207.846952 191.920291 211.759802 191.920291 
Q 212.825913 191.920291 213.738911 191.911858 
Q 214.65191 191.903059 215.377772 191.884727 
L 215.377772 191.552552 
L 211.209735 191.552552 
L 211.209735 191.256674 
L 221.842482 191.256674 
L 221.842482 192.079412 
z
" clip-path="url(#p74cb20147a)" style="fill: #ffa600"/>
   </g>
   <g id="patch_20">
    <path d="M 214.066861 189.451994 
L 204.335694 189.451994 
L 202.799194 190.4651 
L 196.539379 190.4651 
L 205.479016 184.903741 
L 212.902846 184.903741 
L 221.842482 190.4651 
L 215.587841 190.4651 
L 214.066861 189.451994 
z
M 205.887714 188.419817 
L 212.499321 188.419817 
L 209.198691 186.207669 
L 205.887714 188.419817 
z
" clip-path="url(#p74cb20147a)" style="fill: #008000"/>
   </g>
   <g id="patch_21">
    <path d="M 196.539379 174.135963 
L 221.842482 174.135963 
L 221.842482 176.235979 
L 212.73925 176.235979 
L 212.73925 184.903741 
L 205.660265 184.903741 
L 205.660265 176.235979 
L 196.539379 176.235979 
L 196.539379 174.135963 
z
" clip-path="url(#p74cb20147a)" style="fill: #ff0000"/>
   </g>
   <g id="patch_22">
    <path d="M 221.842482 171.828964 
Q 219.725921 172.972491 217.43723 173.550902 
Q 215.14854 174.135963 212.655843 174.135963 
Q 205.222379 174.135963 200.880879 169.801199 
Q 196.539379 165.466435 196.539379 158.053457 
Q 196.539379 150.613886 200.880879 146.285771 
Q 205.222379 141.951007 212.655843 141.951007 
Q 215.14854 141.951007 217.43723 142.536067 
Q 219.725921 143.114479 221.842482 144.258006 
L 221.842482 150.673722 
Q 219.706796 149.157884 217.634861 148.453153 
Q 215.562927 147.748421 213.274236 147.748421 
Q 209.168618 147.748421 206.816175 150.494215 
Q 204.470108 153.23336 204.470108 158.053457 
Q 204.470108 162.85361 206.816175 165.599403 
Q 209.168618 168.338549 213.274236 168.338549 
Q 215.562927 168.338549 217.634861 167.633817 
Q 219.706796 166.922437 221.842482 165.4066 
L 221.842482 171.828964 
z
" clip-path="url(#p74cb20147a)" style="fill: #0000ff"/>
   </g>
   <g id="patch_23">
    <path d="M 248.477327 192.147908 
Q 245.925468 192.193954 243.180801 192.217082 
Q 240.436135 192.24 237.510003 192.24 
Q 230.897852 192.24 227.036038 192.102913 
Q 223.174224 191.965827 223.174224 191.731392 
Q 223.174224 191.494224 227.104088 191.358188 
Q 231.039622 191.222153 237.884275 191.222153 
Q 240.521197 191.222153 242.936957 191.240656 
Q 245.358388 191.258948 247.50195 191.295112 
L 247.50195 191.498008 
Q 245.290338 191.451542 243.10141 191.428624 
Q 240.912482 191.405496 238.712212 191.405496 
Q 234.640579 191.405496 232.434638 191.490019 
Q 230.228698 191.574331 230.228698 191.731392 
Q 230.228698 191.886981 232.355247 191.971924 
Q 234.481796 192.056657 238.394647 192.056657 
Q 239.460757 192.056657 240.373756 192.051821 
Q 241.286755 192.046775 242.012617 192.036262 
L 242.012617 191.845771 
L 237.84458 191.845771 
L 237.84458 191.676095 
L 248.477327 191.676095 
L 248.477327 192.147908 
z
" clip-path="url(#p74cb20147a)" style="fill: #ffa600"/>
   </g>
   <g id="patch_24">
    <path d="M 240.701706 187.884671 
L 230.970539 187.884671 
L 229.434039 191.222153 
L 223.174224 191.222153 
L 232.113861 172.90134 
L 239.537691 172.90134 
L 248.477327 191.222153 
L 242.222686 191.222153 
L 240.701706 187.884671 
z
M 232.522559 184.484366 
L 239.134165 184.484366 
L 235.833536 177.196876 
L 232.522559 184.484366 
z
" clip-path="url(#p74cb20147a)" style="fill: #008000"/>
   </g>
   <g id="patch_25">
    <path d="M 223.174224 84.096464 
L 248.477327 84.096464 
L 248.477327 101.415889 
L 239.374094 101.415889 
L 239.374094 172.90134 
L 232.29511 172.90134 
L 232.29511 101.415889 
L 223.174224 101.415889 
L 223.174224 84.096464 
z
" clip-path="url(#p74cb20147a)" style="fill: #ff0000"/>
   </g>
   <g id="patch_26">
    <path d="M 275.112172 192.204592 
Q 272.560313 192.222296 269.815646 192.231188 
Q 267.07098 192.24 264.144848 192.24 
Q 257.532697 192.24 253.670883 192.187292 
Q 249.809069 192.134583 249.809069 192.044446 
Q 249.809069 191.953257 253.738933 191.900953 
Q 257.674467 191.848649 264.51912 191.848649 
Q 267.156042 191.848649 269.571802 191.855763 
Q 271.993233 191.862796 274.136795 191.876701 
L 274.136795 191.954712 
Q 271.925183 191.936846 269.736255 191.928035 
Q 267.547327 191.919142 265.347057 191.919142 
Q 261.275424 191.919142 259.069483 191.95164 
Q 256.863542 191.984058 256.863542 192.044446 
Q 256.863542 192.104268 258.990092 192.136928 
Q 261.116641 192.169507 265.029492 192.169507 
Q 266.095602 192.169507 267.008601 192.167647 
Q 267.921599 192.165707 268.647462 192.161665 
L 268.647462 192.088423 
L 264.479425 192.088423 
L 264.479425 192.023185 
L 275.112172 192.023185 
L 275.112172 192.204592 
z
" clip-path="url(#p74cb20147a)" style="fill: #ffa600"/>
   </g>
   <g id="patch_27">
    <path d="M 249.809069 191.457298 
L 275.112172 191.457298 
L 275.112172 191.533622 
L 266.008939 191.533622 
L 266.008939 191.848649 
L 258.929955 191.848649 
L 258.929955 191.533622 
L 249.809069 191.533622 
L 249.809069 191.457298 
z
" clip-path="url(#p74cb20147a)" style="fill: #ff0000"/>
   </g>
   <g id="patch_28">
    <path d="M 267.336551 161.301554 
L 257.605384 161.301554 
L 256.068884 191.457298 
L 249.809069 191.457298 
L 258.748706 25.92 
L 266.172535 25.92 
L 275.112172 191.457298 
L 268.85753 191.457298 
L 267.336551 161.301554 
z
M 259.157404 130.578172 
L 265.76901 130.578172 
L 262.468381 64.732217 
L 259.157404 130.578172 
z
" clip-path="url(#p74cb20147a)" style="fill: #008000"/>
   </g>
   <g id="patch_29">
    <path d="M 301.747017 192.213094 
Q 299.630456 192.226431 297.341765 192.233177 
Q 295.053074 192.24 292.560378 192.24 
Q 285.126914 192.24 280.785414 192.189445 
Q 276.443914 192.138889 276.443914 192.052433 
Q 276.443914 191.965667 280.785414 191.915189 
Q 285.126914 191.864634 292.560378 191.864634 
Q 295.053074 191.864634 297.341765 191.871457 
Q 299.630456 191.878203 301.747017 191.89154 
L 301.747017 191.966365 
Q 299.61133 191.948686 297.539396 191.940467 
Q 295.467461 191.932248 293.17877 191.932248 
Q 289.073152 191.932248 286.72071 191.964271 
Q 284.374642 191.996217 284.374642 192.052433 
Q 284.374642 192.108416 286.72071 192.14044 
Q 289.073152 192.172386 293.17877 192.172386 
Q 295.467461 192.172386 297.539396 192.164167 
Q 299.61133 192.15587 301.747017 192.138191 
L 301.747017 192.213094 
z
" clip-path="url(#p74cb20147a)" style="fill: #0000ff"/>
   </g>
   <g id="patch_30">
    <path d="M 301.747017 191.79671 
Q 299.195157 191.830672 296.450491 191.84773 
Q 293.705825 191.864634 290.779693 191.864634 
Q 284.167542 191.864634 280.305728 191.763523 
Q 276.443914 191.662412 276.443914 191.4895 
Q 276.443914 191.314572 280.373777 191.214237 
Q 284.309312 191.113901 291.153965 191.113901 
Q 293.790886 191.113901 296.206647 191.127548 
Q 298.628078 191.14104 300.771639 191.167713 
L 300.771639 191.317363 
Q 298.560028 191.283091 296.3711 191.266188 
Q 294.182172 191.249129 291.981902 191.249129 
Q 287.910269 191.249129 285.704328 191.311471 
Q 283.498387 191.373657 283.498387 191.4895 
Q 283.498387 191.604258 285.624937 191.666909 
Q 287.751486 191.729406 291.664337 191.729406 
Q 292.730447 191.729406 293.643446 191.725839 
Q 294.556444 191.722117 295.282306 191.714363 
L 295.282306 191.573862 
L 291.11427 191.573862 
L 291.11427 191.448715 
L 301.747017 191.448715 
L 301.747017 191.79671 
z
" clip-path="url(#p74cb20147a)" style="fill: #ffa600"/>
   </g>
   <g id="patch_31">
    <path d="M 276.443914 189.987802 
L 301.747017 189.987802 
L 301.747017 190.207423 
L 292.643784 190.207423 
L 292.643784 191.113901 
L 285.5648 191.113901 
L 285.5648 190.207423 
L 276.443914 190.207423 
L 276.443914 189.987802 
z
" clip-path="url(#p74cb20147a)" style="fill: #ff0000"/>
   </g>
   <g id="patch_32">
    <path d="M 293.971396 161.337285 
L 284.240229 161.337285 
L 282.703729 189.987802 
L 276.443914 189.987802 
L 285.38355 32.713317 
L 292.80738 32.713317 
L 301.747017 189.987802 
L 295.492375 189.987802 
L 293.971396 161.337285 
z
M 285.792249 132.147464 
L 292.403855 132.147464 
L 289.103225 69.588218 
L 285.792249 132.147464 
z
" clip-path="url(#p74cb20147a)" style="fill: #008000"/>
   </g>
   <g id="patch_33">
    <path d="M 303.078759 191.852501 
L 328.381862 191.852501 
L 328.381862 191.928074 
L 319.278629 191.928074 
L 319.278629 192.24 
L 312.199645 192.24 
L 312.199645 191.928074 
L 303.078759 191.928074 
L 303.078759 191.852501 
z
" clip-path="url(#p74cb20147a)" style="fill: #ff0000"/>
   </g>
   <g id="patch_34">
    <path d="M 328.381862 191.796949 
Q 326.265301 191.824485 323.97661 191.838413 
Q 321.687919 191.852501 319.195222 191.852501 
Q 311.761759 191.852501 307.420259 191.748122 
Q 303.078759 191.643743 303.078759 191.465242 
Q 303.078759 191.2861 307.420259 191.181881 
Q 311.761759 191.077502 319.195222 191.077502 
Q 321.687919 191.077502 323.97661 191.09159 
Q 326.265301 191.105518 328.381862 191.133054 
L 328.381862 191.287541 
Q 326.246175 191.251041 324.174241 191.234071 
Q 322.102306 191.217101 319.813615 191.217101 
Q 315.707997 191.217101 313.355554 191.283219 
Q 311.009487 191.349176 311.009487 191.465242 
Q 311.009487 191.580827 313.355554 191.646945 
Q 315.707997 191.712902 319.813615 191.712902 
Q 322.102306 191.712902 324.174241 191.695932 
Q 326.246175 191.678803 328.381862 191.642302 
L 328.381862 191.796949 
z
" clip-path="url(#p74cb20147a)" style="fill: #0000ff"/>
   </g>
   <g id="patch_35">
    <path d="M 320.60624 161.289147 
L 310.875074 161.289147 
L 309.338574 191.077502 
L 303.078759 191.077502 
L 312.018395 27.556956 
L 319.442225 27.556956 
L 328.381862 191.077502 
L 322.12722 191.077502 
L 320.60624 161.289147 
z
M 312.427094 130.94007 
L 319.0387 130.94007 
L 315.73807 65.896321 
L 312.427094 130.94007 
z
" clip-path="url(#p74cb20147a)" style="fill: #008000"/>
   </g>
   <g id="patch_36">
    <path d="M 329.713604 191.503935 
L 355.016706 191.503935 
L 355.016706 191.647488 
L 345.913474 191.647488 
L 345.913474 192.24 
L 338.83449 192.24 
L 338.83449 191.647488 
L 329.713604 191.647488 
L 329.713604 191.503935 
z
" clip-path="url(#p74cb20147a)" style="fill: #ff0000"/>
   </g>
   <g id="patch_37">
    <path d="M 347.241085 191.034626 
L 337.509919 191.034626 
L 335.973419 191.503935 
L 329.713604 191.503935 
L 338.65324 188.927706 
L 346.07707 188.927706 
L 355.016706 191.503935 
L 348.762065 191.503935 
L 347.241085 191.034626 
z
M 339.061939 190.556483 
L 345.673545 190.556483 
L 342.372915 189.531734 
L 339.061939 190.556483 
z
" clip-path="url(#p74cb20147a)" style="fill: #008000"/>
   </g>
   <g id="patch_38">
    <path d="M 355.016706 177.953745 
Q 352.900146 183.393288 350.611455 186.144684 
Q 348.322764 188.927706 345.830067 188.927706 
Q 338.396604 188.927706 334.055104 168.308044 
Q 329.713604 147.688382 329.713604 112.42623 
Q 329.713604 77.037577 334.055104 56.449541 
Q 338.396604 35.829879 345.830067 35.829879 
Q 348.322764 35.829879 350.611455 38.6129 
Q 352.900146 41.364297 355.016706 46.80384 
L 355.016706 77.322205 
Q 352.88102 70.111648 350.809085 66.759372 
Q 348.737151 63.407095 346.44846 63.407095 
Q 342.342842 63.407095 339.990399 76.468323 
Q 337.644332 89.497925 337.644332 112.42623 
Q 337.644332 135.25966 339.990399 148.320887 
Q 342.342842 161.35049 346.44846 161.35049 
Q 348.737151 161.35049 350.809085 157.998213 
Q 352.88102 154.614312 355.016706 147.403755 
L 355.016706 177.953745 
z
" clip-path="url(#p74cb20147a)" style="fill: #0000ff"/>
   </g>
   <g id="patch_39">
    <path d="M 381.651551 192.175082 
Q 379.099692 192.207541 376.355026 192.223844 
Q 373.610359 192.24 370.684227 192.24 
Q 364.072076 192.24 360.210262 192.143363 
Q 356.348449 192.046727 356.348449 191.881466 
Q 356.348449 191.714279 360.278312 191.618384 
Q 364.213846 191.522488 371.0585 191.522488 
Q 373.695421 191.522488 376.111181 191.535531 
Q 378.532612 191.548426 380.676174 191.573919 
L 380.676174 191.716947 
Q 378.464563 191.684191 376.275634 191.668036 
Q 374.086706 191.651732 371.886436 191.651732 
Q 367.814803 191.651732 365.608863 191.711315 
Q 363.402922 191.770749 363.402922 191.881466 
Q 363.402922 191.991146 365.529471 192.051025 
Q 367.656021 192.110756 371.568872 192.110756 
Q 372.634982 192.110756 373.54798 192.107347 
Q 374.460979 192.10379 375.186841 192.096379 
L 375.186841 191.962096 
L 371.018804 191.962096 
L 371.018804 191.842486 
L 381.651551 191.842486 
L 381.651551 192.175082 
z
" clip-path="url(#p74cb20147a)" style="fill: #ffa600"/>
   </g>
   <g id="patch_40">
    <path d="M 356.348449 190.44622 
L 381.651551 190.44622 
L 381.651551 190.656123 
L 372.548319 190.656123 
L 372.548319 191.522488 
L 365.469335 191.522488 
L 365.469335 190.656123 
L 356.348449 190.656123 
L 356.348449 190.44622 
z
" clip-path="url(#p74cb20147a)" style="fill: #ff0000"/>
   </g>
   <g id="patch_41">
    <path d="M 373.87593 190.054096 
L 364.144763 190.054096 
L 362.608263 190.44622 
L 356.348449 190.44622 
L 365.288085 188.293685 
L 372.711915 188.293685 
L 381.651551 190.44622 
L 375.39691 190.44622 
L 373.87593 190.054096 
z
M 365.696784 189.654589 
L 372.30839 189.654589 
L 369.00776 188.798373 
L 365.696784 189.654589 
z
" clip-path="url(#p74cb20147a)" style="fill: #008000"/>
   </g>
   <g id="patch_42">
    <path d="M 381.651551 177.647768 
Q 379.53499 182.924707 377.2463 185.593856 
Q 374.957609 188.293685 372.464912 188.293685 
Q 365.031448 188.293685 360.689949 168.290405 
Q 356.348449 148.287126 356.348449 114.079063 
Q 356.348449 79.74828 360.689949 59.775681 
Q 365.031448 39.772401 372.464912 39.772401 
Q 374.957609 39.772401 377.2463 42.47223 
Q 379.53499 45.141379 381.651551 50.418318 
L 381.651551 80.024399 
Q 379.515865 73.029387 377.44393 69.77732 
Q 375.371996 66.525253 373.083305 66.525253 
Q 368.977687 66.525253 366.625244 79.196043 
Q 364.279177 91.836152 364.279177 114.079063 
Q 364.279177 136.229934 366.625244 148.900723 
Q 368.977687 161.540832 373.083305 161.540832 
Q 375.371996 161.540832 377.44393 158.288765 
Q 379.515865 155.006019 381.651551 148.011007 
L 381.651551 177.647768 
z
" clip-path="url(#p74cb20147a)" style="fill: #0000ff"/>
   </g>
   <g id="patch_43">
    <path d="M 382.983294 188.898661 
L 408.286396 188.898661 
L 408.286396 189.550315 
L 399.183164 189.550315 
L 399.183164 192.24 
L 392.104179 192.24 
L 392.104179 189.550315 
L 382.983294 189.550315 
L 382.983294 188.898661 
z
" clip-path="url(#p74cb20147a)" style="fill: #ff0000"/>
   </g>
   <g id="patch_44">
    <path d="M 408.286396 177.827947 
Q 406.169835 183.315448 403.881145 186.091102 
Q 401.592454 188.898661 399.099757 188.898661 
Q 391.666293 188.898661 387.324793 168.097204 
Q 382.983294 147.295747 382.983294 111.722703 
Q 382.983294 76.022043 387.324793 55.25249 
Q 391.666293 34.451033 399.099757 34.451033 
Q 401.592454 34.451033 403.881145 37.258591 
Q 406.169835 40.034246 408.286396 45.521747 
L 408.286396 76.309179 
Q 406.15071 69.03505 404.078775 65.653218 
Q 402.006841 62.271386 399.71815 62.271386 
Q 395.612532 62.271386 393.260089 75.447769 
Q 390.914022 88.592248 390.914022 111.722703 
Q 390.914022 134.757445 393.260089 147.933828 
Q 395.612532 161.078307 399.71815 161.078307 
Q 402.006841 161.078307 404.078775 157.696475 
Q 406.15071 154.282739 408.286396 147.00861 
L 408.286396 177.827947 
z
" clip-path="url(#p74cb20147a)" style="fill: #0000ff"/>
   </g>
   <g id="patch_45">
    <path d="M 434.921241 192.159703 
Q 432.80468 192.199504 430.515989 192.219637 
Q 428.227299 192.24 425.734602 192.24 
Q 418.301138 192.24 413.959638 192.089125 
Q 409.618138 191.93825 409.618138 191.680235 
Q 409.618138 191.421295 413.959638 191.270651 
Q 418.301138 191.119776 425.734602 191.119776 
Q 428.227299 191.119776 430.515989 191.14014 
Q 432.80468 191.160272 434.921241 191.200073 
L 434.921241 191.423378 
Q 432.785555 191.370618 430.71362 191.346089 
Q 428.641685 191.32156 426.352995 191.32156 
Q 422.247377 191.32156 419.894934 191.41713 
Q 417.548866 191.512468 417.548866 191.680235 
Q 417.548866 191.847309 419.894934 191.942878 
Q 422.247377 192.038216 426.352995 192.038216 
Q 428.641685 192.038216 430.71362 192.013688 
Q 432.785555 191.988927 434.921241 191.936167 
L 434.921241 192.159703 
z
" clip-path="url(#p74cb20147a)" style="fill: #0000ff"/>
   </g>
   <g id="patch_46">
    <path d="M 427.14562 190.847683 
L 417.414453 190.847683 
L 415.877953 191.119776 
L 409.618138 191.119776 
L 418.557775 189.626145 
L 425.981605 189.626145 
L 434.921241 191.119776 
L 428.6666 191.119776 
L 427.14562 190.847683 
z
M 418.966473 190.570468 
L 425.578079 190.570468 
L 422.27745 189.976345 
L 418.966473 190.570468 
z
" clip-path="url(#p74cb20147a)" style="fill: #008000"/>
   </g>
   <g id="patch_47">
    <path d="M 409.618138 33.54563 
L 434.921241 33.54563 
L 434.921241 63.985679 
L 425.818009 63.985679 
L 425.818009 189.626145 
L 418.739024 189.626145 
L 418.739024 63.985679 
L 409.618138 63.985679 
L 409.618138 33.54563 
z
" clip-path="url(#p74cb20147a)" style="fill: #ff0000"/>
   </g>
   <g id="patch_48">
    <path d="M 461.556086 192.191157 
Q 459.439525 192.215367 457.150834 192.227613 
Q 454.862143 192.24 452.369447 192.24 
Q 444.935983 192.24 440.594483 192.148226 
Q 436.252983 192.056452 436.252983 191.899508 
Q 436.252983 191.742 440.594483 191.650367 
Q 444.935983 191.558594 452.369447 191.558594 
Q 454.862143 191.558594 457.150834 191.57098 
Q 459.439525 191.583226 461.556086 191.607436 
L 461.556086 191.743267 
Q 459.4204 191.711175 457.348465 191.696254 
Q 455.27653 191.681334 452.98784 191.681334 
Q 448.882221 191.681334 446.529779 191.739467 
Q 444.183711 191.797459 444.183711 191.899508 
Q 444.183711 192.001135 446.529779 192.059268 
Q 448.882221 192.11726 452.98784 192.11726 
Q 455.27653 192.11726 457.348465 192.102339 
Q 459.4204 192.087278 461.556086 192.055186 
L 461.556086 192.191157 
z
" clip-path="url(#p74cb20147a)" style="fill: #0000ff"/>
   </g>
   <g id="patch_49">
    <path d="M 436.252983 190.536484 
L 461.556086 190.536484 
L 461.556086 190.735824 
L 452.452853 190.735824 
L 452.452853 191.558594 
L 445.373869 191.558594 
L 445.373869 190.735824 
L 436.252983 190.735824 
L 436.252983 190.536484 
z
" clip-path="url(#p74cb20147a)" style="fill: #ff0000"/>
   </g>
   <g id="patch_50">
    <path d="M 461.556086 190.135761 
Q 459.004227 190.336123 456.25956 190.436761 
Q 453.514894 190.536484 450.588762 190.536484 
Q 443.976611 190.536484 440.114797 189.939974 
Q 436.252983 189.343464 436.252983 188.323358 
Q 436.252983 187.291359 440.182847 186.699423 
Q 444.118381 186.107487 450.963034 186.107487 
Q 453.599956 186.107487 456.015716 186.187998 
Q 458.437147 186.267594 460.580709 186.424955 
L 460.580709 187.307827 
Q 458.369097 187.105636 456.180169 187.005912 
Q 453.991241 186.905274 451.790971 186.905274 
Q 447.719338 186.905274 445.513397 187.273061 
Q 443.307457 187.639933 443.307457 188.323358 
Q 443.307457 189.000379 445.434006 189.369996 
Q 447.560555 189.738697 451.473406 189.738697 
Q 452.539516 189.738697 453.452515 189.717655 
Q 454.365514 189.695697 455.091376 189.649953 
L 455.091376 188.82106 
L 450.923339 188.82106 
L 450.923339 188.082741 
L 461.556086 188.082741 
L 461.556086 190.135761 
z
" clip-path="url(#p74cb20147a)" style="fill: #ffa600"/>
   </g>
   <g id="patch_51">
    <path d="M 453.780465 160.847455 
L 444.049298 160.847455 
L 442.512798 186.107487 
L 436.252983 186.107487 
L 445.19262 47.444767 
L 452.61645 47.444767 
L 461.556086 186.107487 
L 455.301445 186.107487 
L 453.780465 160.847455 
z
M 445.601318 135.111939 
L 452.212924 135.111939 
L 448.912295 79.955915 
L 445.601318 135.111939 
z
" clip-path="url(#p74cb20147a)" style="fill: #008000"/>
   </g>
   <g id="patch_52">
    <path d="M 488.190931 192.212224 
Q 486.07437 192.225992 483.785679 192.232956 
Q 481.496988 192.24 479.004292 192.24 
Q 471.570828 192.24 467.229328 192.18781 
Q 462.887828 192.135621 462.887828 192.04637 
Q 462.887828 191.9568 467.229328 191.90469 
Q 471.570828 191.852501 479.004292 191.852501 
Q 481.496988 191.852501 483.785679 191.859545 
Q 486.07437 191.866509 488.190931 191.880277 
L 488.190931 191.95752 
Q 486.055244 191.93927 483.98331 191.930785 
Q 481.911375 191.9223 479.622684 191.9223 
Q 475.517066 191.9223 473.164624 191.955359 
Q 470.818556 191.988338 470.818556 192.04637 
Q 470.818556 192.104163 473.164624 192.137222 
Q 475.517066 192.170201 479.622684 192.170201 
Q 481.911375 192.170201 483.98331 192.161716 
Q 486.055244 192.153151 488.190931 192.134901 
L 488.190931 192.212224 
z
" clip-path="url(#p74cb20147a)" style="fill: #0000ff"/>
   </g>
   <g id="patch_53">
    <path d="M 488.190931 191.782381 
Q 485.639071 191.817441 482.894405 191.835051 
Q 480.149739 191.852501 477.223607 191.852501 
Q 470.611456 191.852501 466.749642 191.748122 
Q 462.887828 191.643743 462.887828 191.465242 
Q 462.887828 191.28466 466.817691 191.181081 
Q 470.753226 191.077502 477.597879 191.077502 
Q 480.234801 191.077502 482.650561 191.09159 
Q 485.071992 191.105518 487.215553 191.133054 
L 487.215553 191.287541 
Q 485.003942 191.252161 482.815014 191.234711 
Q 480.626086 191.217101 478.425816 191.217101 
Q 474.354183 191.217101 472.148242 191.281458 
Q 469.942301 191.345654 469.942301 191.465242 
Q 469.942301 191.583709 472.068851 191.648385 
Q 474.1954 191.712902 478.108251 191.712902 
Q 479.174361 191.712902 480.08736 191.70922 
Q 481.000358 191.705378 481.726221 191.697373 
L 481.726221 191.552331 
L 477.558184 191.552331 
L 477.558184 191.423138 
L 488.190931 191.423138 
L 488.190931 191.782381 
z
" clip-path="url(#p74cb20147a)" style="fill: #ffa600"/>
   </g>
   <g id="patch_54">
    <path d="M 480.41531 161.289147 
L 470.684143 161.289147 
L 469.147643 191.077502 
L 462.887828 191.077502 
L 471.827465 27.556956 
L 479.251294 27.556956 
L 488.190931 191.077502 
L 481.936289 191.077502 
L 480.41531 161.289147 
z
M 472.236163 130.94007 
L 478.847769 130.94007 
L 475.54714 65.896321 
L 472.236163 130.94007 
z
" clip-path="url(#p74cb20147a)" style="fill: #008000"/>
   </g>
   <g id="patch_55">
    <path d="M 514.825776 192.177615 
Q 512.273916 192.208808 509.52925 192.224475 
Q 506.784583 192.24 503.858451 192.24 
Q 497.246301 192.24 493.384487 192.147135 
Q 489.522673 192.05427 489.522673 191.895459 
Q 489.522673 191.734797 493.452536 191.642644 
Q 497.38807 191.550491 504.232724 191.550491 
Q 506.869645 191.550491 509.285406 191.563024 
Q 511.706837 191.575416 513.850398 191.599914 
L 513.850398 191.73736 
Q 511.638787 191.705883 509.449859 191.690358 
Q 507.260931 191.674691 505.060661 191.674691 
Q 500.989027 191.674691 498.783087 191.731948 
Q 496.577146 191.789063 496.577146 191.895459 
Q 496.577146 192.000858 498.703696 192.0584 
Q 500.830245 192.1158 504.743096 192.1158 
Q 505.809206 192.1158 506.722205 192.112524 
Q 507.635203 192.109106 508.361065 192.101984 
L 508.361065 191.972941 
L 504.193029 191.972941 
L 504.193029 191.858 
L 514.825776 191.858 
L 514.825776 192.177615 
z
" clip-path="url(#p74cb20147a)" style="fill: #ffa600"/>
   </g>
   <g id="patch_56">
    <path d="M 514.825776 191.451643 
Q 512.709215 191.50064 510.420524 191.525423 
Q 508.131833 191.550491 505.639136 191.550491 
Q 498.205673 191.550491 493.864173 191.36476 
Q 489.522673 191.17903 489.522673 190.861408 
Q 489.522673 190.542647 493.864173 190.357202 
Q 498.205673 190.171472 505.639136 190.171472 
Q 508.131833 190.171472 510.420524 190.19654 
Q 512.709215 190.221323 514.825776 190.270319 
L 514.825776 190.545211 
Q 512.690089 190.480262 510.618155 190.450067 
Q 508.54622 190.419872 506.257529 190.419872 
Q 502.151911 190.419872 499.799469 190.53752 
Q 497.453401 190.654883 497.453401 190.861408 
Q 497.453401 191.067079 499.799469 191.184727 
Q 502.151911 191.302091 506.257529 191.302091 
Q 508.54622 191.302091 510.618155 191.271895 
Q 512.690089 191.241415 514.825776 191.176466 
L 514.825776 191.451643 
z
" clip-path="url(#p74cb20147a)" style="fill: #0000ff"/>
   </g>
   <g id="patch_57">
    <path d="M 489.522673 186.724071 
L 514.825776 186.724071 
L 514.825776 187.39641 
L 505.722543 187.39641 
L 505.722543 190.171472 
L 498.643559 190.171472 
L 498.643559 187.39641 
L 489.522673 187.39641 
L 489.522673 186.724071 
z
" clip-path="url(#p74cb20147a)" style="fill: #ff0000"/>
   </g>
   <g id="patch_58">
    <path d="M 507.050154 161.038046 
L 497.318988 161.038046 
L 495.782488 186.724071 
L 489.522673 186.724071 
L 498.462309 45.722903 
L 505.886139 45.722903 
L 514.825776 186.724071 
L 508.571134 186.724071 
L 507.050154 161.038046 
z
M 498.871008 134.868519 
L 505.482614 134.868519 
L 502.181984 78.782328 
L 498.871008 134.868519 
z
" clip-path="url(#p74cb20147a)" style="fill: #008000"/>
   </g>
   <g id="patch_59">
    <path d="M 541.460621 192.219234 
Q 538.908761 192.229617 536.164095 192.234832 
Q 533.419428 192.24 530.493296 192.24 
Q 523.881145 192.24 520.019332 192.209089 
Q 516.157518 192.178178 516.157518 192.125316 
Q 516.157518 192.071837 520.087381 192.041163 
Q 524.022915 192.010489 530.867569 192.010489 
Q 533.50449 192.010489 535.92025 192.014661 
Q 538.341681 192.018786 540.485243 192.02694 
L 540.485243 192.072691 
Q 538.273632 192.062213 536.084704 192.057045 
Q 533.895775 192.05183 531.695506 192.05183 
Q 527.623872 192.05183 525.417932 192.070889 
Q 523.211991 192.0899 523.211991 192.125316 
Q 523.211991 192.160399 525.338541 192.179552 
Q 527.46509 192.198659 531.377941 192.198659 
Q 532.444051 192.198659 533.35705 192.197568 
Q 534.270048 192.19643 534.99591 192.19406 
L 534.99591 192.151107 
L 530.827873 192.151107 
L 530.827873 192.112847 
L 541.460621 192.112847 
L 541.460621 192.219234 
z
" clip-path="url(#p74cb20147a)" style="fill: #ffa600"/>
   </g>
   <g id="patch_60">
    <path d="M 533.684999 190.88166 
L 523.953833 190.88166 
L 522.417333 192.010489 
L 516.157518 192.010489 
L 525.097154 185.813883 
L 532.520984 185.813883 
L 541.460621 192.010489 
L 535.205979 192.010489 
L 533.684999 190.88166 
z
M 525.505853 189.731583 
L 532.117459 189.731583 
L 528.816829 187.266752 
L 525.505853 189.731583 
z
" clip-path="url(#p74cb20147a)" style="fill: #008000"/>
   </g>
   <g id="patch_61">
    <path d="M 516.157518 175.027151 
L 541.460621 175.027151 
L 541.460621 177.130864 
L 532.357388 177.130864 
L 532.357388 185.813883 
L 525.278404 185.813883 
L 525.278404 177.130864 
L 516.157518 177.130864 
L 516.157518 175.027151 
z
" clip-path="url(#p74cb20147a)" style="fill: #ff0000"/>
   </g>
   <g id="patch_62">
    <path d="M 541.460621 169.269369 
Q 539.34406 172.12337 537.055369 173.566964 
Q 534.766678 175.027151 532.273981 175.027151 
Q 524.840518 175.027151 520.499018 164.208495 
Q 516.157518 153.389839 516.157518 134.888611 
Q 516.157518 116.32101 520.499018 105.518948 
Q 524.840518 94.700292 532.273981 94.700292 
Q 534.766678 94.700292 537.055369 96.160479 
Q 539.34406 97.604072 541.460621 100.458074 
L 541.460621 116.470348 
Q 539.324934 112.687137 537.253 110.928276 
Q 535.181065 109.169414 532.892374 109.169414 
Q 528.786756 109.169414 526.434313 116.022336 
Q 524.088246 122.858664 524.088246 134.888611 
Q 524.088246 146.868779 526.434313 153.7217 
Q 528.786756 160.558028 532.892374 160.558028 
Q 535.181065 160.558028 537.253 158.799167 
Q 539.324934 157.023713 541.460621 153.240502 
L 541.460621 169.269369 
z
" clip-path="url(#p74cb20147a)" style="fill: #0000ff"/>
   </g>
   <g id="patch_63">
    <path d="M 560.319844 191.295148 
L 550.588678 191.295148 
L 549.052178 192.24 
L 542.792363 192.24 
L 551.731999 187.053317 
L 559.155829 187.053317 
L 568.095465 192.24 
L 561.840824 192.24 
L 560.319844 191.295148 
z
M 552.140698 190.33251 
L 558.752304 190.33251 
L 555.451674 188.269398 
L 552.140698 190.33251 
z
" clip-path="url(#p74cb20147a)" style="fill: #008000"/>
   </g>
   <g id="patch_64">
    <path d="M 542.792363 180.1377 
L 568.095465 180.1377 
L 568.095465 181.486438 
L 558.992233 181.486438 
L 558.992233 187.053317 
L 551.913249 187.053317 
L 551.913249 181.486438 
L 542.792363 181.486438 
L 542.792363 180.1377 
z
" clip-path="url(#p74cb20147a)" style="fill: #ff0000"/>
   </g>
   <g id="patch_65">
    <path d="M 568.095465 172.227098 
Q 565.978905 176.148203 563.690214 178.131553 
Q 561.401523 180.1377 558.908826 180.1377 
Q 551.475362 180.1377 547.133863 165.273976 
Q 542.792363 150.410253 542.792363 124.991461 
Q 542.792363 99.481482 547.133863 84.640555 
Q 551.475362 69.776831 558.908826 69.776831 
Q 561.401523 69.776831 563.690214 71.782978 
Q 565.978905 73.766328 568.095465 77.687433 
L 568.095465 99.686656 
Q 565.959779 94.488912 563.887844 92.072417 
Q 561.81591 89.655922 559.527219 89.655922 
Q 555.421601 89.655922 553.069158 99.071133 
Q 550.723091 108.463548 550.723091 124.991461 
Q 550.723091 141.450983 553.069158 150.866195 
Q 555.421601 160.258609 559.527219 160.258609 
Q 561.81591 160.258609 563.887844 157.842114 
Q 565.959779 155.402822 568.095465 150.205078 
L 568.095465 172.227098 
z
" clip-path="url(#p74cb20147a)" style="fill: #0000ff"/>
   </g>
   <g id="patch_66">
    <path d="M 594.73031 192.141694 
Q 592.178451 192.190847 589.433785 192.215536 
Q 586.689118 192.24 583.762986 192.24 
Q 577.150835 192.24 573.289021 192.093663 
Q 569.427208 191.947326 569.427208 191.697072 
Q 569.427208 191.4439 573.357071 191.298686 
Q 577.292605 191.153471 584.137259 191.153471 
Q 586.77418 191.153471 589.18994 191.173222 
Q 591.611371 191.192749 593.754933 191.231353 
L 593.754933 191.44794 
Q 591.543322 191.398338 589.354393 191.373874 
Q 587.165465 191.349185 584.965195 191.349185 
Q 580.893562 191.349185 578.687621 191.439412 
Q 576.481681 191.529413 576.481681 191.697072 
Q 576.481681 191.86316 578.60823 191.953835 
Q 580.73478 192.044286 584.647631 192.044286 
Q 585.713741 192.044286 586.626739 192.039123 
Q 587.539738 192.033737 588.2656 192.022515 
L 588.2656 191.819169 
L 584.097563 191.819169 
L 584.097563 191.638044 
L 594.73031 191.638044 
L 594.73031 192.141694 
z
" clip-path="url(#p74cb20147a)" style="fill: #ffa600"/>
   </g>
   <g id="patch_67">
    <path d="M 586.954689 189.626605 
L 577.223522 189.626605 
L 575.687022 191.153471 
L 569.427208 191.153471 
L 578.366844 182.771874 
L 585.790674 182.771874 
L 594.73031 191.153471 
L 588.475669 191.153471 
L 586.954689 189.626605 
z
M 578.775543 188.070998 
L 585.387149 188.070998 
L 582.086519 184.737041 
L 578.775543 188.070998 
z
" clip-path="url(#p74cb20147a)" style="fill: #008000"/>
   </g>
   <g id="patch_68">
    <path d="M 569.427208 173.303815 
L 594.73031 173.303815 
L 594.73031 175.15035 
L 585.627078 175.15035 
L 585.627078 182.771874 
L 578.548093 182.771874 
L 578.548093 175.15035 
L 569.427208 175.15035 
L 569.427208 173.303815 
z
" clip-path="url(#p74cb20147a)" style="fill: #ff0000"/>
   </g>
   <g id="patch_69">
    <path d="M 594.73031 169.932733 
Q 592.613749 171.603702 590.325059 172.448901 
Q 588.036368 173.303815 585.543671 173.303815 
Q 578.110207 173.303815 573.768707 166.969678 
Q 569.427208 160.635542 569.427208 149.803391 
Q 569.427208 138.93238 573.768707 132.607959 
Q 578.110207 126.273822 585.543671 126.273822 
Q 588.036368 126.273822 590.325059 127.128736 
Q 592.613749 127.973935 594.73031 129.644904 
L 594.73031 139.019815 
Q 592.594624 136.80481 590.522689 135.775027 
Q 588.450755 134.745244 586.162064 134.745244 
Q 582.056446 134.745244 579.704003 138.757512 
Q 577.357936 142.760064 577.357936 149.803391 
Q 577.357936 156.817573 579.704003 160.82984 
Q 582.056446 164.832393 586.162064 164.832393 
Q 588.450755 164.832393 590.522689 163.80261 
Q 592.594624 162.763112 594.73031 160.548107 
L 594.73031 169.932733 
z
" clip-path="url(#p74cb20147a)" style="fill: #0000ff"/>
   </g>
   <g id="patch_70">
    <path d="M 621.365155 192.113207 
Q 618.813296 192.176603 616.068629 192.208446 
Q 613.323963 192.24 610.397831 192.24 
Q 603.78568 192.24 599.923866 192.051257 
Q 596.062053 191.862515 596.062053 191.539741 
Q 596.062053 191.213205 599.991916 191.02591 
Q 603.92745 190.838615 610.772104 190.838615 
Q 613.409025 190.838615 615.824785 190.864089 
Q 618.246216 190.889274 620.389778 190.939065 
L 620.389778 191.218416 
Q 618.178166 191.15444 615.989238 191.122886 
Q 613.80031 191.091043 611.60004 191.091043 
Q 607.528407 191.091043 605.322466 191.207415 
Q 603.116526 191.323498 603.116526 191.539741 
Q 603.116526 191.753959 605.243075 191.87091 
Q 607.369625 191.987571 611.282476 191.987571 
Q 612.348586 191.987571 613.261584 191.980913 
Q 614.174583 191.973965 614.900445 191.959491 
L 614.900445 191.69722 
L 610.732408 191.69722 
L 610.732408 191.463608 
L 621.365155 191.463608 
L 621.365155 192.113207 
z
" clip-path="url(#p74cb20147a)" style="fill: #ffa600"/>
   </g>
   <g id="patch_71">
    <path d="M 613.589534 189.489262 
L 603.858367 189.489262 
L 602.321867 190.838615 
L 596.062053 190.838615 
L 605.001689 183.431462 
L 612.425519 183.431462 
L 621.365155 190.838615 
L 615.110514 190.838615 
L 613.589534 189.489262 
z
M 605.410387 188.114509 
L 612.021994 188.114509 
L 608.721364 185.168158 
L 605.410387 188.114509 
z
" clip-path="url(#p74cb20147a)" style="fill: #008000"/>
   </g>
   <g id="patch_72">
    <path d="M 621.365155 182.814427 
Q 619.248594 183.120277 616.959903 183.27498 
Q 614.671213 183.431462 612.178516 183.431462 
Q 604.745052 183.431462 600.403552 182.272077 
Q 596.062053 181.112692 596.062053 179.130001 
Q 596.062053 177.140198 600.403552 175.982591 
Q 604.745052 174.823206 612.178516 174.823206 
Q 614.671213 174.823206 616.959903 174.979687 
Q 619.248594 175.134391 621.365155 175.440241 
L 621.365155 177.156202 
Q 619.229469 176.750772 617.157534 176.562284 
Q 615.0856 176.373795 612.796909 176.373795 
Q 608.691291 176.373795 606.338848 177.10819 
Q 603.992781 177.840808 603.992781 179.130001 
Q 603.992781 180.41386 606.338848 181.148256 
Q 608.691291 181.880873 612.796909 181.880873 
Q 615.0856 181.880873 617.157534 181.692384 
Q 619.229469 181.502117 621.365155 181.096688 
L 621.365155 182.814427 
z
" clip-path="url(#p74cb20147a)" style="fill: #0000ff"/>
   </g>
   <g id="patch_73">
    <path d="M 596.062053 107.15801 
L 621.365155 107.15801 
L 621.365155 120.354608 
L 612.261923 120.354608 
L 612.261923 174.823206 
L 605.182938 174.823206 
L 605.182938 120.354608 
L 596.062053 120.354608 
L 596.062053 107.15801 
z
" clip-path="url(#p74cb20147a)" style="fill: #ff0000"/>
   </g>
   <g id="patch_74">
    <path d="M 648 191.978056 
Q 645.448141 192.109028 642.703474 192.174813 
Q 639.958808 192.24 637.032676 192.24 
Q 630.420525 192.24 626.558711 191.850075 
Q 622.696897 191.46015 622.696897 190.79333 
Q 622.696897 190.118735 626.626761 189.7318 
Q 630.562295 189.344866 637.406949 189.344866 
Q 640.04387 189.344866 642.45963 189.397493 
Q 644.881061 189.449523 647.024623 189.552387 
L 647.024623 190.1295 
Q 644.813011 189.997332 642.624083 189.932145 
Q 640.435155 189.866361 638.234885 189.866361 
Q 634.163252 189.866361 631.957311 190.106775 
Q 629.751371 190.34659 629.751371 190.79333 
Q 629.751371 191.235883 631.87792 191.477493 
Q 634.004469 191.718505 637.91732 191.718505 
Q 638.98343 191.718505 639.896429 191.70475 
Q 640.809428 191.690397 641.53529 191.660495 
L 641.53529 191.118666 
L 637.367253 191.118666 
L 637.367253 190.636044 
L 648 190.636044 
L 648 191.978056 
z
" clip-path="url(#p74cb20147a)" style="fill: #ffa600"/>
   </g>
   <g id="patch_75">
    <path d="M 648 188.957493 
Q 645.883439 189.149505 643.594748 189.246627 
Q 641.306058 189.344866 638.813361 189.344866 
Q 631.379897 189.344866 627.038397 188.617007 
Q 622.696897 187.889148 622.696897 186.64442 
Q 622.696897 185.395227 627.038397 184.668484 
Q 631.379897 183.940625 638.813361 183.940625 
Q 641.306058 183.940625 643.594748 184.038864 
Q 645.883439 184.135986 648 184.327998 
L 648 185.405274 
Q 645.864314 185.150747 643.792379 185.032414 
Q 641.720444 184.914081 639.431754 184.914081 
Q 635.326136 184.914081 632.973693 185.375132 
Q 630.627625 185.835068 630.627625 186.64442 
Q 630.627625 187.450423 632.973693 187.911475 
Q 635.326136 188.37141 639.431754 188.37141 
Q 641.720444 188.37141 643.792379 188.253077 
Q 645.864314 188.133628 648 187.879101 
L 648 188.957493 
z
" clip-path="url(#p74cb20147a)" style="fill: #0000ff"/>
   </g>
   <g id="patch_76">
    <path d="M 622.696897 175.255222 
L 648 175.255222 
L 648 176.949118 
L 638.896767 176.949118 
L 638.896767 183.940625 
L 631.817783 183.940625 
L 631.817783 176.949118 
L 622.696897 176.949118 
L 622.696897 175.255222 
z
" clip-path="url(#p74cb20147a)" style="fill: #ff0000"/>
   </g>
   <g id="patch_77">
    <path d="M 640.224379 163.406189 
L 630.493212 163.406189 
L 628.956712 175.255222 
L 622.696897 175.255222 
L 631.636534 110.210999 
L 639.060364 110.210999 
L 648 175.255222 
L 641.745359 175.255222 
L 640.224379 163.406189 
z
M 632.045232 151.334115 
L 638.656838 151.334115 
L 635.356209 125.461402 
L 632.045232 151.334115 
z
" clip-path="url(#p74cb20147a)" style="fill: #008000"/>
   </g>
   <g id="matplotlib.axis_1">
    <g id="xtick_1">
     <g id="line2d_2">
      <defs>
       <path id="ma0bfbd077f" d="M 0 0 
L 0 3.5 
" style="stroke: #000000; stroke-width: 0.8"/>
      </defs>
      <g>
       <use xlink:href="#ma0bfbd077f" x="102.651551" y="192.24" style="stroke: #000000; stroke-width: 0.8"/>
      </g>
     </g>
     <g id="text_1">
      <!-- 0.0 -->
      <g transform="translate(94.699989 206.838437) scale(0.1 -0.1)">
       <defs>
        <path id="DejaVuSans-30" d="M 2034 4250 
Q 1547 4250 1301 3770 
Q 1056 3291 1056 2328 
Q 1056 1369 1301 889 
Q 1547 409 2034 409 
Q 2525 409 2770 889 
Q 3016 1369 3016 2328 
Q 3016 3291 2770 3770 
Q 2525 4250 2034 4250 
z
M 2034 4750 
Q 2819 4750 3233 4129 
Q 3647 3509 3647 2328 
Q 3647 1150 3233 529 
Q 2819 -91 2034 -91 
Q 1250 -91 836 529 
Q 422 1150 422 2328 
Q 422 3509 836 4129 
Q 1250 4750 2034 4750 
z
" transform="scale(0.015625)"/>
        <path id="DejaVuSans-2e" d="M 684 794 
L 1344 794 
L 1344 0 
L 684 0 
L 684 794 
z
" transform="scale(0.015625)"/>
       </defs>
       <use xlink:href="#DejaVuSans-30"/>
       <use xlink:href="#DejaVuSans-2e" x="63.623047"/>
       <use xlink:href="#DejaVuSans-30" x="95.410156"/>
      </g>
     </g>
    </g>
    <g id="xtick_2">
     <g id="line2d_3">
      <g>
       <use xlink:href="#ma0bfbd077f" x="169.238663" y="192.24" style="stroke: #000000; stroke-width: 0.8"/>
      </g>
     </g>
     <g id="text_2">
      <!-- 2.5 -->
      <g transform="translate(161.287101 206.838437) scale(0.1 -0.1)">
       <defs>
        <path id="DejaVuSans-32" d="M 1228 531 
L 3431 531 
L 3431 0 
L 469 0 
L 469 531 
Q 828 903 1448 1529 
Q 2069 2156 2228 2338 
Q 2531 2678 2651 2914 
Q 2772 3150 2772 3378 
Q 2772 3750 2511 3984 
Q 2250 4219 1831 4219 
Q 1534 4219 1204 4116 
Q 875 4013 500 3803 
L 500 4441 
Q 881 4594 1212 4672 
Q 1544 4750 1819 4750 
Q 2544 4750 2975 4387 
Q 3406 4025 3406 3419 
Q 3406 3131 3298 2873 
Q 3191 2616 2906 2266 
Q 2828 2175 2409 1742 
Q 1991 1309 1228 531 
z
" transform="scale(0.015625)"/>
        <path id="DejaVuSans-35" d="M 691 4666 
L 3169 4666 
L 3169 4134 
L 1269 4134 
L 1269 2991 
Q 1406 3038 1543 3061 
Q 1681 3084 1819 3084 
Q 2600 3084 3056 2656 
Q 3513 2228 3513 1497 
Q 3513 744 3044 326 
Q 2575 -91 1722 -91 
Q 1428 -91 1123 -41 
Q 819 9 494 109 
L 494 744 
Q 775 591 1075 516 
Q 1375 441 1709 441 
Q 2250 441 2565 725 
Q 2881 1009 2881 1497 
Q 2881 1984 2565 2268 
Q 2250 2553 1709 2553 
Q 1456 2553 1204 2497 
Q 953 2441 691 2322 
L 691 4666 
z
" transform="scale(0.015625)"/>
       </defs>
       <use xlink:href="#DejaVuSans-32"/>
       <use xlink:href="#DejaVuSans-2e" x="63.623047"/>
       <use xlink:href="#DejaVuSans-35" x="95.410156"/>
      </g>
     </g>
    </g>
    <g id="xtick_3">
     <g id="line2d_4">
      <g>
       <use xlink:href="#ma0bfbd077f" x="235.825776" y="192.24" style="stroke: #000000; stroke-width: 0.8"/>
      </g>
     </g>
     <g id="text_3">
      <!-- 5.0 -->
      <g transform="translate(227.874213 206.838437) scale(0.1 -0.1)">
       <use xlink:href="#DejaVuSans-35"/>
       <use xlink:href="#DejaVuSans-2e" x="63.623047"/>
       <use xlink:href="#DejaVuSans-30" x="95.410156"/>
      </g>
     </g>
    </g>
    <g id="xtick_4">
     <g id="line2d_5">
      <g>
       <use xlink:href="#ma0bfbd077f" x="302.412888" y="192.24" style="stroke: #000000; stroke-width: 0.8"/>
      </g>
     </g>
     <g id="text_4">
      <!-- 7.5 -->
      <g transform="translate(294.461325 206.838437) scale(0.1 -0.1)">
       <defs>
        <path id="DejaVuSans-37" d="M 525 4666 
L 3525 4666 
L 3525 4397 
L 1831 0 
L 1172 0 
L 2766 4134 
L 525 4134 
L 525 4666 
z
" transform="scale(0.015625)"/>
       </defs>
       <use xlink:href="#DejaVuSans-37"/>
       <use xlink:href="#DejaVuSans-2e" x="63.623047"/>
       <use xlink:href="#DejaVuSans-35" x="95.410156"/>
      </g>
     </g>
    </g>
    <g id="xtick_5">
     <g id="line2d_6">
      <g>
       <use xlink:href="#ma0bfbd077f" x="369" y="192.24" style="stroke: #000000; stroke-width: 0.8"/>
      </g>
     </g>
     <g id="text_5">
      <!-- 10.0 -->
      <g transform="translate(357.867188 206.838437) scale(0.1 -0.1)">
       <defs>
        <path id="DejaVuSans-31" d="M 794 531 
L 1825 531 
L 1825 4091 
L 703 3866 
L 703 4441 
L 1819 4666 
L 2450 4666 
L 2450 531 
L 3481 531 
L 3481 0 
L 794 0 
L 794 531 
z
" transform="scale(0.015625)"/>
       </defs>
       <use xlink:href="#DejaVuSans-31"/>
       <use xlink:href="#DejaVuSans-30" x="63.623047"/>
       <use xlink:href="#DejaVuSans-2e" x="127.246094"/>
       <use xlink:href="#DejaVuSans-30" x="159.033203"/>
      </g>
     </g>
    </g>
    <g id="xtick_6">
     <g id="line2d_7">
      <g>
       <use xlink:href="#ma0bfbd077f" x="435.587112" y="192.24" style="stroke: #000000; stroke-width: 0.8"/>
      </g>
     </g>
     <g id="text_6">
      <!-- 12.5 -->
      <g transform="translate(424.4543 206.838437) scale(0.1 -0.1)">
       <use xlink:href="#DejaVuSans-31"/>
       <use xlink:href="#DejaVuSans-32" x="63.623047"/>
       <use xlink:href="#DejaVuSans-2e" x="127.246094"/>
       <use xlink:href="#DejaVuSans-35" x="159.033203"/>
      </g>
     </g>
    </g>
    <g id="xtick_7">
     <g id="line2d_8">
      <g>
       <use xlink:href="#ma0bfbd077f" x="502.174224" y="192.24" style="stroke: #000000; stroke-width: 0.8"/>
      </g>
     </g>
     <g id="text_7">
      <!-- 15.0 -->
      <g transform="translate(491.041412 206.838437) scale(0.1 -0.1)">
       <use xlink:href="#DejaVuSans-31"/>
       <use xlink:href="#DejaVuSans-35" x="63.623047"/>
       <use xlink:href="#DejaVuSans-2e" x="127.246094"/>
       <use xlink:href="#DejaVuSans-30" x="159.033203"/>
      </g>
     </g>
    </g>
    <g id="xtick_8">
     <g id="line2d_9">
      <g>
       <use xlink:href="#ma0bfbd077f" x="568.761337" y="192.24" style="stroke: #000000; stroke-width: 0.8"/>
      </g>
     </g>
     <g id="text_8">
      <!-- 17.5 -->
      <g transform="translate(557.628524 206.838437) scale(0.1 -0.1)">
       <use xlink:href="#DejaVuSans-31"/>
       <use xlink:href="#DejaVuSans-37" x="63.623047"/>
       <use xlink:href="#DejaVuSans-2e" x="127.246094"/>
       <use xlink:href="#DejaVuSans-35" x="159.033203"/>
      </g>
     </g>
    </g>
    <g id="xtick_9">
     <g id="line2d_10">
      <g>
       <use xlink:href="#ma0bfbd077f" x="635.348449" y="192.24" style="stroke: #000000; stroke-width: 0.8"/>
      </g>
     </g>
     <g id="text_9">
      <!-- 20.0 -->
      <g transform="translate(624.215636 206.838437) scale(0.1 -0.1)">
       <use xlink:href="#DejaVuSans-32"/>
       <use xlink:href="#DejaVuSans-30" x="63.623047"/>
       <use xlink:href="#DejaVuSans-2e" x="127.246094"/>
       <use xlink:href="#DejaVuSans-30" x="159.033203"/>
      </g>
     </g>
    </g>
   </g>
   <g id="matplotlib.axis_2">
    <g id="ytick_1">
     <g id="line2d_11">
      <defs>
       <path id="m4776bfc571" d="M 0 0 
L -3.5 0 
" style="stroke: #000000; stroke-width: 0.8"/>
      </defs>
      <g>
       <use xlink:href="#m4776bfc571" x="90" y="192.24" style="stroke: #000000; stroke-width: 0.8"/>
      </g>
     </g>
     <g id="text_10">
      <!-- 0.00 -->
      <g transform="translate(60.734375 196.039219) scale(0.1 -0.1)">
       <use xlink:href="#DejaVuSans-30"/>
       <use xlink:href="#DejaVuSans-2e" x="63.623047"/>
       <use xlink:href="#DejaVuSans-30" x="95.410156"/>
       <use xlink:href="#DejaVuSans-30" x="159.033203"/>
      </g>
     </g>
    </g>
    <g id="ytick_2">
     <g id="line2d_12">
      <g>
       <use xlink:href="#m4776bfc571" x="90" y="170.940268" style="stroke: #000000; stroke-width: 0.8"/>
      </g>
     </g>
     <g id="text_11">
      <!-- 0.25 -->
      <g transform="translate(60.734375 174.739487) scale(0.1 -0.1)">
       <use xlink:href="#DejaVuSans-30"/>
       <use xlink:href="#DejaVuSans-2e" x="63.623047"/>
       <use xlink:href="#DejaVuSans-32" x="95.410156"/>
       <use xlink:href="#DejaVuSans-35" x="159.033203"/>
      </g>
     </g>
    </g>
    <g id="ytick_3">
     <g id="line2d_13">
      <g>
       <use xlink:href="#m4776bfc571" x="90" y="149.640536" style="stroke: #000000; stroke-width: 0.8"/>
      </g>
     </g>
     <g id="text_12">
      <!-- 0.50 -->
      <g transform="translate(60.734375 153.439755) scale(0.1 -0.1)">
       <use xlink:href="#DejaVuSans-30"/>
       <use xlink:href="#DejaVuSans-2e" x="63.623047"/>
       <use xlink:href="#DejaVuSans-35" x="95.410156"/>
       <use xlink:href="#DejaVuSans-30" x="159.033203"/>
      </g>
     </g>
    </g>
    <g id="ytick_4">
     <g id="line2d_14">
      <g>
       <use xlink:href="#m4776bfc571" x="90" y="128.340805" style="stroke: #000000; stroke-width: 0.8"/>
      </g>
     </g>
     <g id="text_13">
      <!-- 0.75 -->
      <g transform="translate(60.734375 132.140023) scale(0.1 -0.1)">
       <use xlink:href="#DejaVuSans-30"/>
       <use xlink:href="#DejaVuSans-2e" x="63.623047"/>
       <use xlink:href="#DejaVuSans-37" x="95.410156"/>
       <use xlink:href="#DejaVuSans-35" x="159.033203"/>
      </g>
     </g>
    </g>
    <g id="ytick_5">
     <g id="line2d_15">
      <g>
       <use xlink:href="#m4776bfc571" x="90" y="107.041073" style="stroke: #000000; stroke-width: 0.8"/>
      </g>
     </g>
     <g id="text_14">
      <!-- 1.00 -->
      <g transform="translate(60.734375 110.840292) scale(0.1 -0.1)">
       <use xlink:href="#DejaVuSans-31"/>
       <use xlink:href="#DejaVuSans-2e" x="63.623047"/>
       <use xlink:href="#DejaVuSans-30" x="95.410156"/>
       <use xlink:href="#DejaVuSans-30" x="159.033203"/>
      </g>
     </g>
    </g>
    <g id="ytick_6">
     <g id="line2d_16">
      <g>
       <use xlink:href="#m4776bfc571" x="90" y="85.741341" style="stroke: #000000; stroke-width: 0.8"/>
      </g>
     </g>
     <g id="text_15">
      <!-- 1.25 -->
      <g transform="translate(60.734375 89.54056) scale(0.1 -0.1)">
       <use xlink:href="#DejaVuSans-31"/>
       <use xlink:href="#DejaVuSans-2e" x="63.623047"/>
       <use xlink:href="#DejaVuSans-32" x="95.410156"/>
       <use xlink:href="#DejaVuSans-35" x="159.033203"/>
      </g>
     </g>
    </g>
    <g id="ytick_7">
     <g id="line2d_17">
      <g>
       <use xlink:href="#m4776bfc571" x="90" y="64.441609" style="stroke: #000000; stroke-width: 0.8"/>
      </g>
     </g>
     <g id="text_16">
      <!-- 1.50 -->
      <g transform="translate(60.734375 68.240828) scale(0.1 -0.1)">
       <use xlink:href="#DejaVuSans-31"/>
       <use xlink:href="#DejaVuSans-2e" x="63.623047"/>
       <use xlink:href="#DejaVuSans-35" x="95.410156"/>
       <use xlink:href="#DejaVuSans-30" x="159.033203"/>
      </g>
     </g>
    </g>
    <g id="ytick_8">
     <g id="line2d_18">
      <g>
       <use xlink:href="#m4776bfc571" x="90" y="43.141878" style="stroke: #000000; stroke-width: 0.8"/>
      </g>
     </g>
     <g id="text_17">
      <!-- 1.75 -->
      <g transform="translate(60.734375 46.941096) scale(0.1 -0.1)">
       <use xlink:href="#DejaVuSans-31"/>
       <use xlink:href="#DejaVuSans-2e" x="63.623047"/>
       <use xlink:href="#DejaVuSans-37" x="95.410156"/>
       <use xlink:href="#DejaVuSans-35" x="159.033203"/>
      </g>
     </g>
    </g>
   </g>
  </g>
 </g>
 <defs>
  <clipPath id="p74cb20147a">
   <rect x="90" y="25.92" width="558" height="166.32"/>
  </clipPath>
 </defs>
</svg>
