<?xml version="1.0" encoding="utf-8" standalone="no"?>
<!DOCTYPE svg PUBLIC "-//W3C//DTD SVG 1.1//EN"
  "http://www.w3.org/Graphics/SVG/1.1/DTD/svg11.dtd">
<svg xmlns:xlink="http://www.w3.org/1999/xlink" width="720pt" height="216pt" viewBox="0 0 720 216" xmlns="http://www.w3.org/2000/svg" version="1.1">
 <metadata>
  <rdf:RDF xmlns:dc="http://purl.org/dc/elements/1.1/" xmlns:cc="http://creativecommons.org/ns#" xmlns:rdf="http://www.w3.org/1999/02/22-rdf-syntax-ns#">
   <cc:Work>
    <dc:type rdf:resource="http://purl.org/dc/dcmitype/StillImage"/>
    <dc:date>2025-12-17T10:28:34.685213</dc:date>
    <dc:format>image/svg+xml</dc:format>
    <dc:creator>
     <cc:Agent>
      <dc:title>Matplotlib v3.8.2, https://matplotlib.org/</dc:title>
     </cc:Agent>
    </dc:creator>
   </cc:Work>
  </rdf:RDF>
 </metadata>
 <defs>
  <style type="text/css">*{stroke-linejoin: round; stroke-linecap: butt}</style>
 </defs>
 <g id="figure_1">
  <g id="patch_1">
   <path d="M 0 216 
L 720 216 
L 720 0 
L 0 0 
z
" style="fill: #ffffff"/>
  </g>
  <g id="axes_1">
   <g id="patch_2">
    <path d="M 90 192.24 
L 648 192.24 
L 648 25.92 
L 90 25.92 
z
" style="fill: #ffffff"/>
   </g>
   <g id="line2d_1">
    <path d="M 90 192.24 
L 648 192.24 
" clip-path="url(#pdbf0ef8def)" style="fill: none; stroke: #000000; stroke-width: 0.5; stroke-linecap: square"/>
   </g>
   <g id="patch_3">
    <path d="M 125.458194 192.123543 
Q 122.492177 192.181268 119.284948 192.210466 
Q 116.077719 192.24 112.584609 192.24 
Q 102.167816 192.24 96.083908 192.021182 
Q 90 191.802363 90 191.428157 
Q 90 191.052608 96.083908 190.834125 
Q 102.167816 190.615307 112.584609 190.615307 
Q 116.077719 190.615307 119.284948 190.644841 
Q 122.492177 190.674039 125.458194 190.731764 
L 125.458194 191.055629 
Q 122.465376 190.979109 119.561896 190.943535 
Q 116.658415 190.90796 113.451186 190.90796 
Q 107.697829 190.90796 104.401262 191.046567 
Q 101.113629 191.184839 101.113629 191.428157 
Q 101.113629 191.670468 104.401262 191.809075 
Q 107.697829 191.947347 113.451186 191.947347 
Q 116.658415 191.947347 119.561896 191.911772 
Q 122.465376 191.875862 125.458194 191.799343 
L 125.458194 192.123543 
z
" clip-path="url(#pdbf0ef8def)" style="fill: #0000ff"/>
   </g>
   <g id="patch_4">
    <path d="M 125.458194 190.381838 
Q 121.882177 190.498572 118.035972 190.557206 
Q 114.189767 190.615307 110.089268 190.615307 
Q 100.823411 190.615307 95.411706 190.267768 
Q 90 189.920229 90 189.325894 
Q 90 188.72463 95.507066 188.379756 
Q 101.022079 188.034882 110.613751 188.034882 
Q 114.308968 188.034882 117.694264 188.081789 
Q 121.087507 188.128163 124.091361 188.219845 
L 124.091361 188.734225 
Q 120.992146 188.616424 117.924718 188.558323 
Q 114.857291 188.499689 111.773969 188.499689 
Q 106.068236 188.499689 102.976968 188.713969 
Q 99.8857 188.927717 99.8857 189.325894 
Q 99.8857 189.72034 102.865714 189.935687 
Q 105.845728 190.1505 111.328954 190.1505 
Q 112.822934 190.1505 114.102354 190.13824 
Q 115.381773 190.125447 116.398951 190.098796 
L 116.398951 189.615865 
L 110.558124 189.615865 
L 110.558124 189.185706 
L 125.458194 189.185706 
L 125.458194 190.381838 
z
" clip-path="url(#pdbf0ef8def)" style="fill: #ffa600"/>
   </g>
   <g id="patch_5">
    <path d="M 114.561922 184.69214 
L 100.925271 184.69214 
L 98.772115 188.034882 
L 90 188.034882 
L 102.52745 169.685193 
L 112.930744 169.685193 
L 125.458194 188.034882 
L 116.693329 188.034882 
L 114.561922 184.69214 
z
M 103.100175 181.286475 
L 112.365269 181.286475 
L 107.739972 173.987499 
L 103.100175 181.286475 
z
" clip-path="url(#pdbf0ef8def)" style="fill: #008000"/>
   </g>
   <g id="patch_6">
    <path d="M 90 134.897223 
L 125.458194 134.897223 
L 125.458194 141.681846 
L 112.70149 141.681846 
L 112.70149 169.685193 
L 102.781442 169.685193 
L 102.781442 141.681846 
L 90 141.681846 
L 90 134.897223 
z
" clip-path="url(#pdbf0ef8def)" style="fill: #ff0000"/>
   </g>
   <g id="patch_7">
    <path d="M 162.782609 192.155639 
Q 159.206592 192.19782 155.360387 192.219006 
Q 151.514182 192.24 147.413683 192.24 
Q 138.147826 192.24 132.73612 192.114422 
Q 127.324415 191.988844 127.324415 191.774091 
Q 127.324415 191.556834 132.831481 191.432219 
Q 138.346493 191.307604 147.938165 191.307604 
Q 151.633383 191.307604 155.018679 191.324554 
Q 158.411921 191.34131 161.415776 191.374438 
L 161.415776 191.560301 
Q 158.316561 191.517735 155.249133 191.496741 
Q 152.181705 191.475555 149.098384 191.475555 
Q 143.392651 191.475555 140.301383 191.552982 
Q 137.210115 191.630216 137.210115 191.774091 
Q 137.210115 191.916618 140.190129 191.99443 
Q 143.170143 192.072049 148.653369 192.072049 
Q 150.147349 192.072049 151.426768 192.067619 
Q 152.706188 192.062997 153.723366 192.053367 
L 153.723366 191.878868 
L 147.882538 191.878868 
L 147.882538 191.723436 
L 162.782609 191.723436 
L 162.782609 192.155639 
z
" clip-path="url(#pdbf0ef8def)" style="fill: #ffa600"/>
   </g>
   <g id="patch_8">
    <path d="M 162.782609 191.129379 
Q 159.816592 191.217721 156.609363 191.262406 
Q 153.402134 191.307604 149.909024 191.307604 
Q 139.49223 191.307604 133.408323 190.972726 
Q 127.324415 190.637848 127.324415 190.065165 
Q 127.324415 189.490428 133.408323 189.156063 
Q 139.49223 188.821185 149.909024 188.821185 
Q 153.402134 188.821185 156.609363 188.866383 
Q 159.816592 188.911068 162.782609 188.99941 
L 162.782609 189.495051 
Q 159.789791 189.377946 156.88631 189.323502 
Q 153.98283 189.269059 150.775601 189.269059 
Q 145.022243 189.269059 141.725677 189.481183 
Q 138.438044 189.692793 138.438044 190.065165 
Q 138.438044 190.435997 141.725677 190.64812 
Q 145.022243 190.859731 150.775601 190.859731 
Q 153.98283 190.859731 156.88631 190.805287 
Q 159.789791 190.75033 162.782609 190.633225 
L 162.782609 191.129379 
z
" clip-path="url(#pdbf0ef8def)" style="fill: #0000ff"/>
   </g>
   <g id="patch_9">
    <path d="M 151.886337 186.131844 
L 138.249685 186.131844 
L 136.09653 188.821185 
L 127.324415 188.821185 
L 139.851865 174.058287 
L 150.255158 174.058287 
L 162.782609 188.821185 
L 154.017743 188.821185 
L 151.886337 186.131844 
z
M 140.42459 183.391881 
L 149.689683 183.391881 
L 145.064386 177.519626 
L 140.42459 183.391881 
z
" clip-path="url(#pdbf0ef8def)" style="fill: #008000"/>
   </g>
   <g id="patch_10">
    <path d="M 127.324415 99.000444 
L 162.782609 99.000444 
L 162.782609 113.638814 
L 150.025905 113.638814 
L 150.025905 174.058287 
L 140.105857 174.058287 
L 140.105857 113.638814 
L 127.324415 113.638814 
L 127.324415 99.000444 
z
" clip-path="url(#pdbf0ef8def)" style="fill: #ff0000"/>
   </g>
   <g id="patch_11">
    <path d="M 200.107023 192.173431 
Q 196.531007 192.206716 192.684802 192.223434 
Q 188.838597 192.24 184.738098 192.24 
Q 175.472241 192.24 170.060535 192.140907 
Q 164.648829 192.041813 164.648829 191.872352 
Q 164.648829 191.700914 170.155895 191.602581 
Q 175.670908 191.504248 185.26258 191.504248 
Q 188.957797 191.504248 192.343093 191.517622 
Q 195.736336 191.530845 198.74019 191.556986 
L 198.74019 191.70365 
Q 195.640976 191.670062 192.573548 191.653496 
Q 189.50612 191.636777 186.422799 191.636777 
Q 180.717065 191.636777 177.625797 191.697875 
Q 174.534529 191.75882 174.534529 191.872352 
Q 174.534529 191.98482 177.514543 192.046221 
Q 180.494558 192.10747 185.977783 192.10747 
Q 187.471764 192.10747 188.751183 192.103975 
Q 190.030603 192.100327 191.047781 192.092728 
L 191.047781 191.955031 
L 185.206953 191.955031 
L 185.206953 191.83238 
L 200.107023 191.83238 
L 200.107023 192.173431 
z
" clip-path="url(#pdbf0ef8def)" style="fill: #ffa600"/>
   </g>
   <g id="patch_12">
    <path d="M 200.107023 191.225495 
Q 197.141007 191.363666 193.933778 191.433555 
Q 190.726549 191.504248 187.233439 191.504248 
Q 176.816645 191.504248 170.732737 190.980481 
Q 164.648829 190.456715 164.648829 189.561009 
Q 164.648829 188.662091 170.732737 188.139128 
Q 176.816645 187.615361 187.233439 187.615361 
Q 190.726549 187.615361 193.933778 187.686054 
Q 197.141007 187.755943 200.107023 187.894114 
L 200.107023 188.669321 
Q 197.114205 188.486163 194.210725 188.401011 
Q 191.307245 188.315859 188.100016 188.315859 
Q 182.346658 188.315859 179.050091 188.647631 
Q 175.762458 188.9786 175.762458 189.561009 
Q 175.762458 190.141009 179.050091 190.472781 
Q 182.346658 190.80375 188.100016 190.80375 
Q 191.307245 190.80375 194.210725 190.718598 
Q 197.114205 190.632642 200.107023 190.449485 
L 200.107023 191.225495 
z
" clip-path="url(#pdbf0ef8def)" style="fill: #0000ff"/>
   </g>
   <g id="patch_13">
    <path d="M 189.210752 184.417855 
L 175.5741 184.417855 
L 173.420944 187.615361 
L 164.648829 187.615361 
L 177.17628 170.062935 
L 187.579573 170.062935 
L 200.107023 187.615361 
L 191.342158 187.615361 
L 189.210752 184.417855 
z
M 177.749005 181.160161 
L 187.014098 181.160161 
L 182.388801 174.178313 
L 177.749005 181.160161 
z
" clip-path="url(#pdbf0ef8def)" style="fill: #008000"/>
   </g>
   <g id="patch_14">
    <path d="M 164.648829 129.177317 
L 200.107023 129.177317 
L 200.107023 137.151151 
L 187.35032 137.151151 
L 187.35032 170.062935 
L 177.430271 170.062935 
L 177.430271 137.151151 
L 164.648829 137.151151 
L 164.648829 129.177317 
z
" clip-path="url(#pdbf0ef8def)" style="fill: #ff0000"/>
   </g>
   <g id="patch_15">
    <path d="M 237.431438 192.063423 
Q 233.855421 192.151711 230.009216 192.196057 
Q 226.163012 192.24 222.062512 192.24 
Q 212.796655 192.24 207.38495 191.97715 
Q 201.973244 191.7143 201.973244 191.264795 
Q 201.973244 190.810048 207.48031 190.549214 
Q 212.995323 190.28838 222.586995 190.28838 
Q 226.282212 190.28838 229.667508 190.323857 
Q 233.060751 190.35893 236.064605 190.428271 
L 236.064605 190.817305 
Q 232.96539 190.72821 229.897963 190.684267 
Q 226.830535 190.639921 223.747214 190.639921 
Q 218.04148 190.639921 214.950212 190.801985 
Q 211.858944 190.963646 211.858944 191.264795 
Q 211.858944 191.563121 214.838958 191.725991 
Q 217.818972 191.888458 223.302198 191.888458 
Q 224.796179 191.888458 226.075598 191.879186 
Q 227.355017 191.869511 228.372195 191.849353 
L 228.372195 191.484105 
L 222.531368 191.484105 
L 222.531368 191.158768 
L 237.431438 191.158768 
L 237.431438 192.063423 
z
" clip-path="url(#pdbf0ef8def)" style="fill: #ffa600"/>
   </g>
   <g id="patch_16">
    <path d="M 237.431438 190.078544 
Q 234.465421 190.182555 231.258192 190.235165 
Q 228.050964 190.28838 224.557853 190.28838 
Q 214.14106 190.28838 208.057152 189.894107 
Q 201.973244 189.499834 201.973244 188.825578 
Q 201.973244 188.148904 208.057152 187.755236 
Q 214.14106 187.360962 224.557853 187.360962 
Q 228.050964 187.360962 231.258192 187.414177 
Q 234.465421 187.466787 237.431438 187.570798 
L 237.431438 188.154346 
Q 234.43862 188.016472 231.53514 187.952372 
Q 228.63166 187.888272 225.424431 187.888272 
Q 219.671073 187.888272 216.374506 188.138019 
Q 213.086873 188.387161 213.086873 188.825578 
Q 213.086873 189.262181 216.374506 189.511928 
Q 219.671073 189.76107 225.424431 189.76107 
Q 228.63166 189.76107 231.53514 189.69697 
Q 234.43862 189.632266 237.431438 189.494391 
L 237.431438 190.078544 
z
" clip-path="url(#pdbf0ef8def)" style="fill: #0000ff"/>
   </g>
   <g id="patch_17">
    <path d="M 226.535166 185.668364 
L 212.898515 185.668364 
L 210.745359 187.360962 
L 201.973244 187.360962 
L 214.500694 178.069594 
L 224.903988 178.069594 
L 237.431438 187.360962 
L 228.666573 187.360962 
L 226.535166 185.668364 
z
M 215.073419 183.943905 
L 224.338513 183.943905 
L 219.713216 180.248067 
L 215.073419 183.943905 
z
" clip-path="url(#pdbf0ef8def)" style="fill: #008000"/>
   </g>
   <g id="patch_18">
    <path d="M 201.973244 166.784196 
L 237.431438 166.784196 
L 237.431438 168.985163 
L 224.674734 168.985163 
L 224.674734 178.069594 
L 214.754686 178.069594 
L 214.754686 168.985163 
L 201.973244 168.985163 
L 201.973244 166.784196 
z
" clip-path="url(#pdbf0ef8def)" style="fill: #ff0000"/>
   </g>
   <g id="patch_19">
    <path d="M 239.297659 188.552682 
L 274.755853 188.552682 
L 274.755853 189.271812 
L 261.999149 189.271812 
L 261.999149 192.24 
L 252.079101 192.24 
L 252.079101 189.271812 
L 239.297659 189.271812 
L 239.297659 188.552682 
z
" clip-path="url(#pdbf0ef8def)" style="fill: #ff0000"/>
   </g>
   <g id="patch_20">
    <path d="M 274.755853 188.144895 
Q 271.789836 188.347026 268.582607 188.449267 
Q 265.375378 188.552682 261.882268 188.552682 
Q 251.465474 188.552682 245.381567 187.786466 
Q 239.297659 187.02025 239.297659 185.709926 
Q 239.297659 184.394902 245.381567 183.629861 
Q 251.465474 182.863645 261.882268 182.863645 
Q 265.375378 182.863645 268.582607 182.967061 
Q 271.789836 183.069301 274.755853 183.271432 
L 274.755853 184.405479 
Q 271.763035 184.137538 268.859555 184.012969 
Q 265.956074 183.8884 262.748845 183.8884 
Q 256.995488 183.8884 253.698921 184.373749 
Q 250.411288 184.857922 250.411288 185.709926 
Q 250.411288 186.558405 253.698921 187.043754 
Q 256.995488 187.527927 262.748845 187.527927 
Q 265.956074 187.527927 268.859555 187.403358 
Q 271.763035 187.277614 274.755853 187.009673 
L 274.755853 188.144895 
z
" clip-path="url(#pdbf0ef8def)" style="fill: #0000ff"/>
   </g>
   <g id="patch_21">
    <path d="M 274.755853 182.196403 
Q 271.179836 182.530024 267.333631 182.697596 
Q 263.487426 182.863645 259.386927 182.863645 
Q 250.12107 182.863645 244.709364 181.870399 
Q 239.297659 180.877153 239.297659 179.178581 
Q 239.297659 177.460204 244.804725 176.474575 
Q 250.319738 175.488946 259.911409 175.488946 
Q 263.606627 175.488946 266.991923 175.623004 
Q 270.385166 175.755538 273.38902 176.01756 
L 273.38902 177.487625 
Q 270.289805 177.150958 267.222377 176.984909 
Q 264.154949 176.817337 261.071628 176.817337 
Q 255.365895 176.817337 252.274627 177.429737 
Q 249.183359 178.040614 249.183359 179.178581 
Q 249.183359 180.305885 252.163373 180.921331 
Q 255.143387 181.535255 260.626613 181.535255 
Q 262.120593 181.535255 263.400013 181.500217 
Q 264.679432 181.463656 265.69661 181.387487 
L 265.69661 180.007301 
L 259.855783 180.007301 
L 259.855783 178.777931 
L 274.755853 178.777931 
L 274.755853 182.196403 
z
" clip-path="url(#pdbf0ef8def)" style="fill: #ffa600"/>
   </g>
   <g id="patch_22">
    <path d="M 263.859581 167.025295 
L 250.222929 167.025295 
L 248.069774 175.488946 
L 239.297659 175.488946 
L 251.825109 129.028477 
L 262.228403 129.028477 
L 274.755853 175.488946 
L 265.990987 175.488946 
L 263.859581 167.025295 
z
M 252.397834 158.402327 
L 261.662927 158.402327 
L 257.03763 139.921695 
L 252.397834 158.402327 
z
" clip-path="url(#pdbf0ef8def)" style="fill: #008000"/>
   </g>
   <g id="patch_23">
    <path d="M 276.622074 189.386384 
L 312.080268 189.386384 
L 312.080268 189.942918 
L 299.323564 189.942918 
L 299.323564 192.24 
L 289.403516 192.24 
L 289.403516 189.942918 
L 276.622074 189.942918 
L 276.622074 189.386384 
z
" clip-path="url(#pdbf0ef8def)" style="fill: #ff0000"/>
   </g>
   <g id="patch_24">
    <path d="M 312.080268 188.593365 
Q 308.504251 188.989875 304.658046 189.189034 
Q 300.811841 189.386384 296.711342 189.386384 
Q 287.445485 189.386384 282.033779 188.205909 
Q 276.622074 187.025434 276.622074 185.006677 
Q 276.622074 182.964383 282.12914 181.792961 
Q 287.644152 180.621539 297.235824 180.621539 
Q 300.931042 180.621539 304.316338 180.780867 
Q 307.70958 180.938384 310.713434 181.249798 
L 310.713434 182.996973 
Q 307.61422 182.596843 304.546792 182.399493 
Q 301.479364 182.200334 298.396043 182.200334 
Q 292.690309 182.200334 289.599041 182.928172 
Q 286.507774 183.654201 286.507774 185.006677 
Q 286.507774 186.34648 289.487788 187.07794 
Q 292.467802 187.807589 297.951028 187.807589 
Q 299.445008 187.807589 300.724427 187.765947 
Q 302.003847 187.722494 303.021025 187.631966 
L 303.021025 185.991613 
L 297.180197 185.991613 
L 297.180197 184.530504 
L 312.080268 184.530504 
L 312.080268 188.593365 
z
" clip-path="url(#pdbf0ef8def)" style="fill: #ffa600"/>
   </g>
   <g id="patch_25">
    <path d="M 301.183996 160.458882 
L 287.547344 160.458882 
L 285.394189 180.621539 
L 276.622074 180.621539 
L 289.149524 69.940411 
L 299.552817 69.940411 
L 312.080268 180.621539 
L 303.315402 180.621539 
L 301.183996 160.458882 
z
M 289.722249 139.916692 
L 298.987342 139.916692 
L 294.362045 95.890937 
L 289.722249 139.916692 
z
" clip-path="url(#pdbf0ef8def)" style="fill: #008000"/>
   </g>
   <g id="patch_26">
    <path d="M 349.404682 192.210764 
Q 346.438666 192.225256 343.231437 192.232586 
Q 340.024208 192.24 336.531098 192.24 
Q 326.114304 192.24 320.030396 192.185067 
Q 313.946488 192.130133 313.946488 192.036191 
Q 313.946488 191.941911 320.030396 191.887062 
Q 326.114304 191.832129 336.531098 191.832129 
Q 340.024208 191.832129 343.231437 191.839543 
Q 346.438666 191.846873 349.404682 191.861365 
L 349.404682 191.942669 
Q 346.411864 191.92346 343.508384 191.914529 
Q 340.604904 191.905598 337.397675 191.905598 
Q 331.644317 191.905598 328.34775 191.940394 
Q 325.060117 191.975107 325.060117 192.036191 
Q 325.060117 192.097022 328.34775 192.131818 
Q 331.644317 192.166531 337.397675 192.166531 
Q 340.604904 192.166531 343.508384 192.1576 
Q 346.411864 192.148585 349.404682 192.129375 
L 349.404682 192.210764 
z
" clip-path="url(#pdbf0ef8def)" style="fill: #0000ff"/>
   </g>
   <g id="patch_27">
    <path d="M 313.946488 182.994944 
L 349.404682 182.994944 
L 349.404682 184.718441 
L 336.647979 184.718441 
L 336.647979 191.832129 
L 326.72793 191.832129 
L 326.72793 184.718441 
L 313.946488 184.718441 
L 313.946488 182.994944 
z
" clip-path="url(#pdbf0ef8def)" style="fill: #ff0000"/>
   </g>
   <g id="patch_28">
    <path d="M 349.404682 182.183077 
Q 345.828665 182.58901 341.982461 182.792904 
Q 338.136256 182.994944 334.035756 182.994944 
Q 324.769899 182.994944 319.358194 181.786411 
Q 313.946488 180.577879 313.946488 178.51114 
Q 313.946488 176.420304 319.453554 175.22104 
Q 324.968567 174.021775 334.560239 174.021775 
Q 338.255456 174.021775 341.640752 174.18489 
Q 345.033995 174.346151 348.037849 174.664966 
L 348.037849 176.453669 
Q 344.938635 176.044028 341.871207 175.841988 
Q 338.803779 175.638095 335.720458 175.638095 
Q 330.014724 175.638095 326.923456 176.383233 
Q 323.832188 177.126517 323.832188 178.51114 
Q 323.832188 179.882787 326.812202 180.631633 
Q 329.792216 181.378624 335.275442 181.378624 
Q 336.769423 181.378624 338.048842 181.335992 
Q 339.328261 181.291506 340.34544 181.198827 
L 340.34544 179.519486 
L 334.504612 179.519486 
L 334.504612 178.023649 
L 349.404682 178.023649 
L 349.404682 182.183077 
z
" clip-path="url(#pdbf0ef8def)" style="fill: #ffa600"/>
   </g>
   <g id="patch_29">
    <path d="M 338.50841 162.480276 
L 324.871759 162.480276 
L 322.718603 174.021775 
L 313.946488 174.021775 
L 326.473939 110.665736 
L 336.877232 110.665736 
L 349.404682 174.021775 
L 340.639817 174.021775 
L 338.50841 162.480276 
z
M 327.046663 150.721526 
L 336.311757 150.721526 
L 331.68646 125.520324 
L 327.046663 150.721526 
z
" clip-path="url(#pdbf0ef8def)" style="fill: #008000"/>
   </g>
   <g id="patch_30">
    <path d="M 386.729097 191.907536 
Q 383.15308 192.073768 379.306875 192.157264 
Q 375.46067 192.24 371.360171 192.24 
Q 362.094314 192.24 356.682609 191.745099 
Q 351.270903 191.250199 351.270903 190.403858 
Q 351.270903 189.547649 356.777969 189.056544 
Q 362.292982 188.565438 371.884654 188.565438 
Q 375.579871 188.565438 378.965167 188.632234 
Q 382.35841 188.698272 385.362264 188.828828 
L 385.362264 189.561312 
Q 382.263049 189.393562 379.195621 189.310825 
Q 376.128194 189.22733 373.044872 189.22733 
Q 367.339139 189.22733 364.247871 189.532468 
Q 361.156603 189.836847 361.156603 190.403858 
Q 361.156603 190.965555 364.136617 191.272211 
Q 367.116631 191.578108 372.599857 191.578108 
Q 374.093837 191.578108 375.373257 191.56065 
Q 376.652676 191.542433 377.669854 191.50448 
L 377.669854 190.816781 
L 371.829027 190.816781 
L 371.829027 190.204227 
L 386.729097 190.204227 
L 386.729097 191.907536 
z
" clip-path="url(#pdbf0ef8def)" style="fill: #ffa600"/>
   </g>
   <g id="patch_31">
    <path d="M 351.270903 173.707298 
L 386.729097 173.707298 
L 386.729097 176.605049 
L 373.972393 176.605049 
L 373.972393 188.565438 
L 364.052345 188.565438 
L 364.052345 176.605049 
L 351.270903 176.605049 
L 351.270903 173.707298 
z
" clip-path="url(#pdbf0ef8def)" style="fill: #ff0000"/>
   </g>
   <g id="patch_32">
    <path d="M 375.832825 159.620858 
L 362.196174 159.620858 
L 360.043018 173.707298 
L 351.270903 173.707298 
L 363.798353 96.381029 
L 374.201647 96.381029 
L 386.729097 173.707298 
L 377.964232 173.707298 
L 375.832825 159.620858 
z
M 364.371078 145.269261 
L 373.636172 145.269261 
L 369.010875 114.511106 
L 364.371078 145.269261 
z
" clip-path="url(#pdbf0ef8def)" style="fill: #008000"/>
   </g>
   <g id="patch_33">
    <path d="M 388.595318 25.92 
L 424.053512 25.92 
L 424.053512 58.357034 
L 411.296808 58.357034 
L 411.296808 192.24 
L 401.37676 192.24 
L 401.37676 58.357034 
L 388.595318 58.357034 
L 388.595318 25.92 
z
" clip-path="url(#pdbf0ef8def)" style="fill: #ff0000"/>
   </g>
   <g id="patch_34">
    <path d="M 425.919732 25.92 
L 461.377926 25.92 
L 461.377926 58.357034 
L 448.621223 58.357034 
L 448.621223 192.24 
L 438.701174 192.24 
L 438.701174 58.357034 
L 425.919732 58.357034 
L 425.919732 25.92 
z
" clip-path="url(#pdbf0ef8def)" style="fill: #ff0000"/>
   </g>
   <g id="patch_35">
    <path d="M 498.702341 190.322125 
Q 495.736324 191.272772 492.529095 191.753622 
Q 489.321867 192.24 485.828756 192.24 
Q 475.411963 192.24 469.328055 188.636384 
Q 463.244147 185.032769 463.244147 178.870144 
Q 463.244147 172.685411 469.328055 169.087322 
Q 475.411963 165.483706 485.828756 165.483706 
Q 489.321867 165.483706 492.529095 165.970084 
Q 495.736324 166.450934 498.702341 167.401581 
L 498.702341 172.735154 
Q 495.709523 171.474994 492.806043 170.88913 
Q 489.902563 170.303266 486.695334 170.303266 
Q 480.941976 170.303266 477.645409 172.585924 
Q 474.357776 174.863056 474.357776 178.870144 
Q 474.357776 182.860651 477.645409 185.143309 
Q 480.941976 187.42044 486.695334 187.42044 
Q 489.902563 187.42044 492.806043 186.834576 
Q 495.709523 186.243186 498.702341 184.983025 
L 498.702341 190.322125 
z
" clip-path="url(#pdbf0ef8def)" style="fill: #0000ff"/>
   </g>
   <g id="patch_36">
    <path d="M 463.244147 97.247354 
L 498.702341 97.247354 
L 498.702341 110.555343 
L 485.945637 110.555343 
L 485.945637 165.483706 
L 476.025589 165.483706 
L 476.025589 110.555343 
L 463.244147 110.555343 
L 463.244147 97.247354 
z
" clip-path="url(#pdbf0ef8def)" style="fill: #ff0000"/>
   </g>
   <g id="patch_37">
    <path d="M 536.026756 190.338849 
Q 532.450739 191.289425 528.604534 191.766883 
Q 524.758329 192.24 520.65783 192.24 
Q 511.391973 192.24 505.980267 189.409977 
Q 500.568562 186.579953 500.568562 181.740266 
Q 500.568562 176.844152 506.075628 174.035831 
Q 511.590641 171.22751 521.182312 171.22751 
Q 524.87753 171.22751 528.262826 171.609477 
Q 531.656069 171.987103 534.659923 172.733673 
L 534.659923 176.922281 
Q 531.560708 175.963025 528.49328 175.489908 
Q 525.425852 175.01245 522.342531 175.01245 
Q 516.636798 175.01245 513.54553 176.757341 
Q 510.454262 178.497893 510.454262 181.740266 
Q 510.454262 184.952256 513.434276 186.705828 
Q 516.41429 188.455061 521.897516 188.455061 
Q 523.391496 188.455061 524.670916 188.355229 
Q 525.950335 188.251056 526.967513 188.03403 
L 526.967513 184.101512 
L 521.126686 184.101512 
L 521.126686 180.598707 
L 536.026756 180.598707 
L 536.026756 190.338849 
z
" clip-path="url(#pdbf0ef8def)" style="fill: #ffa600"/>
   </g>
   <g id="patch_38">
    <path d="M 525.130484 155.591865 
L 511.493832 155.591865 
L 509.340677 171.22751 
L 500.568562 171.22751 
L 513.096012 85.397013 
L 523.499306 85.397013 
L 536.026756 171.22751 
L 527.26189 171.22751 
L 525.130484 155.591865 
z
M 513.668737 139.661901 
L 522.93383 139.661901 
L 518.308533 105.521009 
L 513.668737 139.661901 
z
" clip-path="url(#pdbf0ef8def)" style="fill: #008000"/>
   </g>
   <g id="patch_39">
    <path d="M 573.351171 191.517683 
Q 570.385154 191.875719 567.177925 192.056819 
Q 563.970696 192.24 560.477586 192.24 
Q 550.060792 192.24 543.976884 190.882794 
Q 537.892977 189.525587 537.892977 187.204598 
Q 537.892977 184.875282 543.976884 183.520157 
Q 550.060792 182.162951 560.477586 182.162951 
Q 563.970696 182.162951 567.177925 182.346132 
Q 570.385154 182.527232 573.351171 182.885268 
L 573.351171 184.894017 
Q 570.358352 184.419411 567.454872 184.198761 
Q 564.551392 183.97811 561.344163 183.97811 
Q 555.590805 183.97811 552.294239 184.837813 
Q 549.006606 185.695434 549.006606 187.204598 
Q 549.006606 188.707517 552.294239 189.567219 
Q 555.590805 190.424841 561.344163 190.424841 
Q 564.551392 190.424841 567.454872 190.20419 
Q 570.358352 189.981459 573.351171 189.506853 
L 573.351171 191.517683 
z
" clip-path="url(#pdbf0ef8def)" style="fill: #0000ff"/>
   </g>
   <g id="patch_40">
    <path d="M 562.454899 159.522346 
L 548.818247 159.522346 
L 546.665092 182.162951 
L 537.892977 182.162951 
L 550.420427 57.879348 
L 560.82372 57.879348 
L 573.351171 182.162951 
L 564.586305 182.162951 
L 562.454899 159.522346 
z
M 550.993152 136.455565 
L 560.258245 136.455565 
L 555.632948 87.019138 
L 550.993152 136.455565 
z
" clip-path="url(#pdbf0ef8def)" style="fill: #008000"/>
   </g>
   <g id="patch_41">
    <path d="M 610.675585 192.215138 
Q 607.099568 192.227569 603.253364 192.233813 
Q 599.407159 192.24 595.306659 192.24 
Q 586.040802 192.24 580.629097 192.202991 
Q 575.217391 192.165981 575.217391 192.10269 
Q 575.217391 192.038662 580.724457 192.001936 
Q 586.23947 191.96521 595.831142 191.96521 
Q 599.526359 191.96521 602.911655 191.970205 
Q 606.304898 191.975144 609.308752 191.984907 
L 609.308752 192.039683 
Q 606.209538 192.027139 603.14211 192.020952 
Q 600.074682 192.014708 596.991361 192.014708 
Q 591.285627 192.014708 588.194359 192.037526 
Q 585.103091 192.060288 585.103091 192.10269 
Q 585.103091 192.144695 588.083105 192.167627 
Q 591.063119 192.190503 596.546345 192.190503 
Q 598.040326 192.190503 599.319745 192.189197 
Q 600.599164 192.187835 601.616343 192.184997 
L 601.616343 192.133569 
L 595.775515 192.133569 
L 595.775515 192.087762 
L 610.675585 192.087762 
L 610.675585 192.215138 
z
" clip-path="url(#pdbf0ef8def)" style="fill: #ffa600"/>
   </g>
   <g id="patch_42">
    <path d="M 599.779313 161.986397 
L 586.142662 161.986397 
L 583.989506 191.96521 
L 575.217391 191.96521 
L 587.744842 27.399161 
L 598.148135 27.399161 
L 610.675585 191.96521 
L 601.91072 191.96521 
L 599.779313 161.986397 
z
M 588.317566 131.443277 
L 597.58266 131.443277 
L 592.957363 65.983657 
L 588.317566 131.443277 
z
" clip-path="url(#pdbf0ef8def)" style="fill: #008000"/>
   </g>
   <g id="patch_43">
    <path d="M 648 192.104245 
Q 645.033983 192.171536 641.826754 192.205572 
Q 638.619525 192.24 635.126415 192.24 
Q 624.709622 192.24 618.625714 191.984922 
Q 612.541806 191.729844 612.541806 191.29363 
Q 612.541806 190.855851 618.625714 190.601165 
Q 624.709622 190.346087 635.126415 190.346087 
Q 638.619525 190.346087 641.826754 190.380514 
Q 645.033983 190.414551 648 190.481841 
L 648 190.859372 
Q 645.007182 190.770173 642.103702 190.728703 
Q 639.200221 190.687234 635.992993 190.687234 
Q 630.239635 190.687234 626.943068 190.848809 
Q 623.655435 191.009993 623.655435 191.29363 
Q 623.655435 191.576094 626.943068 191.737669 
Q 630.239635 191.898853 635.992993 191.898853 
Q 639.200221 191.898853 642.103702 191.857383 
Q 645.007182 191.815522 648 191.726323 
L 648 192.104245 
z
" clip-path="url(#pdbf0ef8def)" style="fill: #0000ff"/>
   </g>
   <g id="patch_44">
    <path d="M 637.103728 184.567203 
L 623.467077 184.567203 
L 621.313921 190.346087 
L 612.541806 190.346087 
L 625.069256 158.623413 
L 635.47255 158.623413 
L 648 190.346087 
L 639.235135 190.346087 
L 637.103728 184.567203 
z
M 625.641981 178.67954 
L 634.907075 178.67954 
L 630.281778 166.061177 
L 625.641981 178.67954 
z
" clip-path="url(#pdbf0ef8def)" style="fill: #008000"/>
   </g>
   <g id="patch_45">
    <path d="M 612.541806 121.21907 
L 648 121.21907 
L 648 128.513959 
L 635.243296 128.513959 
L 635.243296 158.623413 
L 625.323248 158.623413 
L 625.323248 128.513959 
L 612.541806 128.513959 
L 612.541806 121.21907 
z
" clip-path="url(#pdbf0ef8def)" style="fill: #ff0000"/>
   </g>
   <g id="matplotlib.axis_1">
    <g id="xtick_1">
     <g id="line2d_2">
      <defs>
       <path id="mc73249c4d7" d="M 0 0 
L 0 3.5 
" style="stroke: #000000; stroke-width: 0.8"/>
      </defs>
      <g>
       <use xlink:href="#mc73249c4d7" x="107.729097" y="192.24" style="stroke: #000000; stroke-width: 0.8"/>
      </g>
     </g>
     <g id="text_1">
      <!-- 0 -->
      <g transform="translate(104.547847 206.838437) scale(0.1 -0.1)">
       <defs>
        <path id="DejaVuSans-30" d="M 2034 4250 
Q 1547 4250 1301 3770 
Q 1056 3291 1056 2328 
Q 1056 1369 1301 889 
Q 1547 409 2034 409 
Q 2525 409 2770 889 
Q 3016 1369 3016 2328 
Q 3016 3291 2770 3770 
Q 2525 4250 2034 4250 
z
M 2034 4750 
Q 2819 4750 3233 4129 
Q 3647 3509 3647 2328 
Q 3647 1150 3233 529 
Q 2819 -91 2034 -91 
Q 1250 -91 836 529 
Q 422 1150 422 2328 
Q 422 3509 836 4129 
Q 1250 4750 2034 4750 
z
" transform="scale(0.015625)"/>
       </defs>
       <use xlink:href="#DejaVuSans-30"/>
      </g>
     </g>
    </g>
    <g id="xtick_2">
     <g id="line2d_3">
      <g>
       <use xlink:href="#mc73249c4d7" x="182.377926" y="192.24" style="stroke: #000000; stroke-width: 0.8"/>
      </g>
     </g>
     <g id="text_2">
      <!-- 2 -->
      <g transform="translate(179.196676 206.838437) scale(0.1 -0.1)">
       <defs>
        <path id="DejaVuSans-32" d="M 1228 531 
L 3431 531 
L 3431 0 
L 469 0 
L 469 531 
Q 828 903 1448 1529 
Q 2069 2156 2228 2338 
Q 2531 2678 2651 2914 
Q 2772 3150 2772 3378 
Q 2772 3750 2511 3984 
Q 2250 4219 1831 4219 
Q 1534 4219 1204 4116 
Q 875 4013 500 3803 
L 500 4441 
Q 881 4594 1212 4672 
Q 1544 4750 1819 4750 
Q 2544 4750 2975 4387 
Q 3406 4025 3406 3419 
Q 3406 3131 3298 2873 
Q 3191 2616 2906 2266 
Q 2828 2175 2409 1742 
Q 1991 1309 1228 531 
z
" transform="scale(0.015625)"/>
       </defs>
       <use xlink:href="#DejaVuSans-32"/>
      </g>
     </g>
    </g>
    <g id="xtick_3">
     <g id="line2d_4">
      <g>
       <use xlink:href="#mc73249c4d7" x="257.026756" y="192.24" style="stroke: #000000; stroke-width: 0.8"/>
      </g>
     </g>
     <g id="text_3">
      <!-- 4 -->
      <g transform="translate(253.845506 206.838437) scale(0.1 -0.1)">
       <defs>
        <path id="DejaVuSans-34" d="M 2419 4116 
L 825 1625 
L 2419 1625 
L 2419 4116 
z
M 2253 4666 
L 3047 4666 
L 3047 1625 
L 3713 1625 
L 3713 1100 
L 3047 1100 
L 3047 0 
L 2419 0 
L 2419 1100 
L 313 1100 
L 313 1709 
L 2253 4666 
z
" transform="scale(0.015625)"/>
       </defs>
       <use xlink:href="#DejaVuSans-34"/>
      </g>
     </g>
    </g>
    <g id="xtick_4">
     <g id="line2d_5">
      <g>
       <use xlink:href="#mc73249c4d7" x="331.675585" y="192.24" style="stroke: #000000; stroke-width: 0.8"/>
      </g>
     </g>
     <g id="text_4">
      <!-- 6 -->
      <g transform="translate(328.494335 206.838437) scale(0.1 -0.1)">
       <defs>
        <path id="DejaVuSans-36" d="M 2113 2584 
Q 1688 2584 1439 2293 
Q 1191 2003 1191 1497 
Q 1191 994 1439 701 
Q 1688 409 2113 409 
Q 2538 409 2786 701 
Q 3034 994 3034 1497 
Q 3034 2003 2786 2293 
Q 2538 2584 2113 2584 
z
M 3366 4563 
L 3366 3988 
Q 3128 4100 2886 4159 
Q 2644 4219 2406 4219 
Q 1781 4219 1451 3797 
Q 1122 3375 1075 2522 
Q 1259 2794 1537 2939 
Q 1816 3084 2150 3084 
Q 2853 3084 3261 2657 
Q 3669 2231 3669 1497 
Q 3669 778 3244 343 
Q 2819 -91 2113 -91 
Q 1303 -91 875 529 
Q 447 1150 447 2328 
Q 447 3434 972 4092 
Q 1497 4750 2381 4750 
Q 2619 4750 2861 4703 
Q 3103 4656 3366 4563 
z
" transform="scale(0.015625)"/>
       </defs>
       <use xlink:href="#DejaVuSans-36"/>
      </g>
     </g>
    </g>
    <g id="xtick_5">
     <g id="line2d_6">
      <g>
       <use xlink:href="#mc73249c4d7" x="406.324415" y="192.24" style="stroke: #000000; stroke-width: 0.8"/>
      </g>
     </g>
     <g id="text_5">
      <!-- 8 -->
      <g transform="translate(403.143165 206.838437) scale(0.1 -0.1)">
       <defs>
        <path id="DejaVuSans-38" d="M 2034 2216 
Q 1584 2216 1326 1975 
Q 1069 1734 1069 1313 
Q 1069 891 1326 650 
Q 1584 409 2034 409 
Q 2484 409 2743 651 
Q 3003 894 3003 1313 
Q 3003 1734 2745 1975 
Q 2488 2216 2034 2216 
z
M 1403 2484 
Q 997 2584 770 2862 
Q 544 3141 544 3541 
Q 544 4100 942 4425 
Q 1341 4750 2034 4750 
Q 2731 4750 3128 4425 
Q 3525 4100 3525 3541 
Q 3525 3141 3298 2862 
Q 3072 2584 2669 2484 
Q 3125 2378 3379 2068 
Q 3634 1759 3634 1313 
Q 3634 634 3220 271 
Q 2806 -91 2034 -91 
Q 1263 -91 848 271 
Q 434 634 434 1313 
Q 434 1759 690 2068 
Q 947 2378 1403 2484 
z
M 1172 3481 
Q 1172 3119 1398 2916 
Q 1625 2713 2034 2713 
Q 2441 2713 2670 2916 
Q 2900 3119 2900 3481 
Q 2900 3844 2670 4047 
Q 2441 4250 2034 4250 
Q 1625 4250 1398 4047 
Q 1172 3844 1172 3481 
z
" transform="scale(0.015625)"/>
       </defs>
       <use xlink:href="#DejaVuSans-38"/>
      </g>
     </g>
    </g>
    <g id="xtick_6">
     <g id="line2d_7">
      <g>
       <use xlink:href="#mc73249c4d7" x="480.973244" y="192.24" style="stroke: #000000; stroke-width: 0.8"/>
      </g>
     </g>
     <g id="text_6">
      <!-- 10 -->
      <g transform="translate(474.610744 206.838437) scale(0.1 -0.1)">
       <defs>
        <path id="DejaVuSans-31" d="M 794 531 
L 1825 531 
L 1825 4091 
L 703 3866 
L 703 4441 
L 1819 4666 
L 2450 4666 
L 2450 531 
L 3481 531 
L 3481 0 
L 794 0 
L 794 531 
z
" transform="scale(0.015625)"/>
       </defs>
       <use xlink:href="#DejaVuSans-31"/>
       <use xlink:href="#DejaVuSans-30" x="63.623047"/>
      </g>
     </g>
    </g>
    <g id="xtick_7">
     <g id="line2d_8">
      <g>
       <use xlink:href="#mc73249c4d7" x="555.622074" y="192.24" style="stroke: #000000; stroke-width: 0.8"/>
      </g>
     </g>
     <g id="text_7">
      <!-- 12 -->
      <g transform="translate(549.259574 206.838437) scale(0.1 -0.1)">
       <use xlink:href="#DejaVuSans-31"/>
       <use xlink:href="#DejaVuSans-32" x="63.623047"/>
      </g>
     </g>
    </g>
    <g id="xtick_8">
     <g id="line2d_9">
      <g>
       <use xlink:href="#mc73249c4d7" x="630.270903" y="192.24" style="stroke: #000000; stroke-width: 0.8"/>
      </g>
     </g>
     <g id="text_8">
      <!-- 14 -->
      <g transform="translate(623.908403 206.838437) scale(0.1 -0.1)">
       <use xlink:href="#DejaVuSans-31"/>
       <use xlink:href="#DejaVuSans-34" x="63.623047"/>
      </g>
     </g>
    </g>
   </g>
   <g id="matplotlib.axis_2">
    <g id="ytick_1">
     <g id="line2d_10">
      <defs>
       <path id="m5efc85c070" d="M 0 0 
L -3.5 0 
" style="stroke: #000000; stroke-width: 0.8"/>
      </defs>
      <g>
       <use xlink:href="#m5efc85c070" x="90" y="192.24" style="stroke: #000000; stroke-width: 0.8"/>
      </g>
     </g>
     <g id="text_9">
      <!-- 0.00 -->
      <g transform="translate(60.734375 196.039219) scale(0.1 -0.1)">
       <defs>
        <path id="DejaVuSans-2e" d="M 684 794 
L 1344 794 
L 1344 0 
L 684 0 
L 684 794 
z
" transform="scale(0.015625)"/>
       </defs>
       <use xlink:href="#DejaVuSans-30"/>
       <use xlink:href="#DejaVuSans-2e" x="63.623047"/>
       <use xlink:href="#DejaVuSans-30" x="95.410156"/>
       <use xlink:href="#DejaVuSans-30" x="159.033203"/>
      </g>
     </g>
    </g>
    <g id="ytick_2">
     <g id="line2d_11">
      <g>
       <use xlink:href="#m5efc85c070" x="90" y="171.45" style="stroke: #000000; stroke-width: 0.8"/>
      </g>
     </g>
     <g id="text_10">
      <!-- 0.25 -->
      <g transform="translate(60.734375 175.249219) scale(0.1 -0.1)">
       <defs>
        <path id="DejaVuSans-35" d="M 691 4666 
L 3169 4666 
L 3169 4134 
L 1269 4134 
L 1269 2991 
Q 1406 3038 1543 3061 
Q 1681 3084 1819 3084 
Q 2600 3084 3056 2656 
Q 3513 2228 3513 1497 
Q 3513 744 3044 326 
Q 2575 -91 1722 -91 
Q 1428 -91 1123 -41 
Q 819 9 494 109 
L 494 744 
Q 775 591 1075 516 
Q 1375 441 1709 441 
Q 2250 441 2565 725 
Q 2881 1009 2881 1497 
Q 2881 1984 2565 2268 
Q 2250 2553 1709 2553 
Q 1456 2553 1204 2497 
Q 953 2441 691 2322 
L 691 4666 
z
" transform="scale(0.015625)"/>
       </defs>
       <use xlink:href="#DejaVuSans-30"/>
       <use xlink:href="#DejaVuSans-2e" x="63.623047"/>
       <use xlink:href="#DejaVuSans-32" x="95.410156"/>
       <use xlink:href="#DejaVuSans-35" x="159.033203"/>
      </g>
     </g>
    </g>
    <g id="ytick_3">
     <g id="line2d_12">
      <g>
       <use xlink:href="#m5efc85c070" x="90" y="150.66" style="stroke: #000000; stroke-width: 0.8"/>
      </g>
     </g>
     <g id="text_11">
      <!-- 0.50 -->
      <g transform="translate(60.734375 154.459219) scale(0.1 -0.1)">
       <use xlink:href="#DejaVuSans-30"/>
       <use xlink:href="#DejaVuSans-2e" x="63.623047"/>
       <use xlink:href="#DejaVuSans-35" x="95.410156"/>
       <use xlink:href="#DejaVuSans-30" x="159.033203"/>
      </g>
     </g>
    </g>
    <g id="ytick_4">
     <g id="line2d_13">
      <g>
       <use xlink:href="#m5efc85c070" x="90" y="129.87" style="stroke: #000000; stroke-width: 0.8"/>
      </g>
     </g>
     <g id="text_12">
      <!-- 0.75 -->
      <g transform="translate(60.734375 133.669219) scale(0.1 -0.1)">
       <defs>
        <path id="DejaVuSans-37" d="M 525 4666 
L 3525 4666 
L 3525 4397 
L 1831 0 
L 1172 0 
L 2766 4134 
L 525 4134 
L 525 4666 
z
" transform="scale(0.015625)"/>
       </defs>
       <use xlink:href="#DejaVuSans-30"/>
       <use xlink:href="#DejaVuSans-2e" x="63.623047"/>
       <use xlink:href="#DejaVuSans-37" x="95.410156"/>
       <use xlink:href="#DejaVuSans-35" x="159.033203"/>
      </g>
     </g>
    </g>
    <g id="ytick_5">
     <g id="line2d_14">
      <g>
       <use xlink:href="#m5efc85c070" x="90" y="109.08" style="stroke: #000000; stroke-width: 0.8"/>
      </g>
     </g>
     <g id="text_13">
      <!-- 1.00 -->
      <g transform="translate(60.734375 112.879219) scale(0.1 -0.1)">
       <use xlink:href="#DejaVuSans-31"/>
       <use xlink:href="#DejaVuSans-2e" x="63.623047"/>
       <use xlink:href="#DejaVuSans-30" x="95.410156"/>
       <use xlink:href="#DejaVuSans-30" x="159.033203"/>
      </g>
     </g>
    </g>
    <g id="ytick_6">
     <g id="line2d_15">
      <g>
       <use xlink:href="#m5efc85c070" x="90" y="88.29" style="stroke: #000000; stroke-width: 0.8"/>
      </g>
     </g>
     <g id="text_14">
      <!-- 1.25 -->
      <g transform="translate(60.734375 92.089219) scale(0.1 -0.1)">
       <use xlink:href="#DejaVuSans-31"/>
       <use xlink:href="#DejaVuSans-2e" x="63.623047"/>
       <use xlink:href="#DejaVuSans-32" x="95.410156"/>
       <use xlink:href="#DejaVuSans-35" x="159.033203"/>
      </g>
     </g>
    </g>
    <g id="ytick_7">
     <g id="line2d_16">
      <g>
       <use xlink:href="#m5efc85c070" x="90" y="67.5" style="stroke: #000000; stroke-width: 0.8"/>
      </g>
     </g>
     <g id="text_15">
      <!-- 1.50 -->
      <g transform="translate(60.734375 71.299219) scale(0.1 -0.1)">
       <use xlink:href="#DejaVuSans-31"/>
       <use xlink:href="#DejaVuSans-2e" x="63.623047"/>
       <use xlink:href="#DejaVuSans-35" x="95.410156"/>
       <use xlink:href="#DejaVuSans-30" x="159.033203"/>
      </g>
     </g>
    </g>
    <g id="ytick_8">
     <g id="line2d_17">
      <g>
       <use xlink:href="#m5efc85c070" x="90" y="46.71" style="stroke: #000000; stroke-width: 0.8"/>
      </g>
     </g>
     <g id="text_16">
      <!-- 1.75 -->
      <g transform="translate(60.734375 50.509219) scale(0.1 -0.1)">
       <use xlink:href="#DejaVuSans-31"/>
       <use xlink:href="#DejaVuSans-2e" x="63.623047"/>
       <use xlink:href="#DejaVuSans-37" x="95.410156"/>
       <use xlink:href="#DejaVuSans-35" x="159.033203"/>
      </g>
     </g>
    </g>
    <g id="ytick_9">
     <g id="line2d_18">
      <g>
       <use xlink:href="#m5efc85c070" x="90" y="25.92" style="stroke: #000000; stroke-width: 0.8"/>
      </g>
     </g>
     <g id="text_17">
      <!-- 2.00 -->
      <g transform="translate(60.734375 29.719219) scale(0.1 -0.1)">
       <use xlink:href="#DejaVuSans-32"/>
       <use xlink:href="#DejaVuSans-2e" x="63.623047"/>
       <use xlink:href="#DejaVuSans-30" x="95.410156"/>
       <use xlink:href="#DejaVuSans-30" x="159.033203"/>
      </g>
     </g>
    </g>
   </g>
  </g>
 </g>
 <defs>
  <clipPath id="pdbf0ef8def">
   <rect x="90" y="25.92" width="558" height="166.32"/>
  </clipPath>
 </defs>
</svg>
