<?xml version="1.0" encoding="utf-8" standalone="no"?>
<!DOCTYPE svg PUBLIC "-//W3C//DTD SVG 1.1//EN"
  "http://www.w3.org/Graphics/SVG/1.1/DTD/svg11.dtd">
<svg xmlns:xlink="http://www.w3.org/1999/xlink" width="720pt" height="216pt" viewBox="0 0 720 216" xmlns="http://www.w3.org/2000/svg" version="1.1">
 <metadata>
  <rdf:RDF xmlns:dc="http://purl.org/dc/elements/1.1/" xmlns:cc="http://creativecommons.org/ns#" xmlns:rdf="http://www.w3.org/1999/02/22-rdf-syntax-ns#">
   <cc:Work>
    <dc:type rdf:resource="http://purl.org/dc/dcmitype/StillImage"/>
    <dc:date>2025-12-17T10:28:33.798471</dc:date>
    <dc:format>image/svg+xml</dc:format>
    <dc:creator>
     <cc:Agent>
      <dc:title>Matplotlib v3.8.2, https://matplotlib.org/</dc:title>
     </cc:Agent>
    </dc:creator>
   </cc:Work>
  </rdf:RDF>
 </metadata>
 <defs>
  <style type="text/css">*{stroke-linejoin: round; stroke-linecap: butt}</style>
 </defs>
 <g id="figure_1">
  <g id="patch_1">
   <path d="M 0 216 
L 720 216 
L 720 0 
L 0 0 
z
" style="fill: #ffffff"/>
  </g>
  <g id="axes_1">
   <g id="patch_2">
    <path d="M 90 192.24 
L 648 192.24 
L 648 25.92 
L 90 25.92 
z
" style="fill: #ffffff"/>
   </g>
   <g id="line2d_1">
    <path d="M 90 192.24 
L 648 192.24 
" clip-path="url(#p7d2ccebe46)" style="fill: none; stroke: #000000; stroke-width: 0.5; stroke-linecap: square"/>
   </g>
   <g id="patch_3">
    <path d="M 156.679245 191.936946 
Q 151.101641 192.087163 145.070437 192.163145 
Q 139.039233 192.24 132.470429 192.24 
Q 112.881616 192.24 101.440808 191.670572 
Q 90 191.101145 90 190.127354 
Q 90 189.150069 101.440808 188.581515 
Q 112.881616 188.012087 132.470429 188.012087 
Q 139.039233 188.012087 145.070437 188.088942 
Q 151.101641 188.164924 156.679245 188.315141 
L 156.679245 189.157929 
Q 151.051241 188.958804 145.591238 188.866229 
Q 140.131234 188.773653 134.10003 188.773653 
Q 123.280823 188.773653 117.081618 189.134349 
Q 110.899214 189.494171 110.899214 190.127354 
Q 110.899214 190.757916 117.081618 191.118612 
Q 123.280823 191.478434 134.10003 191.478434 
Q 140.131234 191.478434 145.591238 191.385859 
Q 151.051241 191.29241 156.679245 191.093285 
L 156.679245 191.936946 
z
" clip-path="url(#p7d2ccebe46)" style="fill: #0000ff"/>
   </g>
   <g id="patch_4">
    <path d="M 90 41.243111 
L 156.679245 41.243111 
L 156.679245 69.86715 
L 132.690224 69.86715 
L 132.690224 188.012087 
L 114.035542 188.012087 
L 114.035542 69.86715 
L 90 69.86715 
L 90 41.243111 
z
" clip-path="url(#p7d2ccebe46)" style="fill: #ff0000"/>
   </g>
   <g id="patch_5">
    <path d="M 226.867925 190.508774 
Q 220.143214 191.374387 212.910413 191.80917 
Q 205.677613 192.24 197.966611 192.24 
Q 180.542138 192.24 170.365409 189.662924 
Q 160.188679 187.085847 160.188679 182.67873 
Q 160.188679 178.22023 170.544734 175.662916 
Q 180.915733 173.105603 198.952902 173.105603 
Q 205.90177 173.105603 212.26783 173.453429 
Q 218.648833 173.797303 224.297591 174.477145 
L 224.297591 178.291376 
Q 218.469508 177.417858 212.7012 176.987028 
Q 206.932892 176.552245 201.134697 176.552245 
Q 190.405047 176.552245 184.591908 178.141178 
Q 178.778769 179.726159 178.778769 182.67873 
Q 178.778769 185.603633 184.382695 187.200472 
Q 189.986621 188.793358 200.297844 188.793358 
Q 203.107279 188.793358 205.513231 188.702449 
Q 207.919183 188.607587 209.83199 188.409958 
L 209.83199 184.828929 
L 198.848295 184.828929 
L 198.848295 181.639204 
L 226.867925 181.639204 
L 226.867925 190.508774 
z
" clip-path="url(#p7d2ccebe46)" style="fill: #ffa600"/>
   </g>
   <g id="patch_6">
    <path d="M 206.377451 156.325645 
L 180.733685 156.325645 
L 176.684669 173.105603 
L 160.188679 173.105603 
L 183.746589 80.993504 
L 203.310015 80.993504 
L 226.867925 173.105603 
L 210.385568 173.105603 
L 206.377451 156.325645 
z
M 184.8236 139.229829 
L 202.246637 139.229829 
L 193.548751 102.590297 
L 184.8236 139.229829 
z
" clip-path="url(#p7d2ccebe46)" style="fill: #008000"/>
   </g>
   <g id="patch_7">
    <path d="M 276.56613 161.941672 
L 250.922364 161.941672 
L 246.873348 192.24 
L 230.377358 192.24 
L 253.935268 25.92 
L 273.498694 25.92 
L 297.056604 192.24 
L 280.574247 192.24 
L 276.56613 161.941672 
z
M 255.012279 131.073022 
L 272.435316 131.073022 
L 263.737431 64.915731 
L 255.012279 131.073022 
z
" clip-path="url(#p7d2ccebe46)" style="fill: #008000"/>
   </g>
   <g id="patch_8">
    <path d="M 300.566038 25.92 
L 367.245283 25.92 
L 367.245283 58.357034 
L 343.256262 58.357034 
L 343.256262 192.24 
L 324.60158 192.24 
L 324.60158 58.357034 
L 300.566038 58.357034 
L 300.566038 25.92 
z
" clip-path="url(#p7d2ccebe46)" style="fill: #ff0000"/>
   </g>
   <g id="patch_9">
    <path d="M 370.754717 25.92 
L 437.433962 25.92 
L 437.433962 58.357034 
L 413.444941 58.357034 
L 413.444941 192.24 
L 394.790259 192.24 
L 394.790259 58.357034 
L 370.754717 58.357034 
L 370.754717 25.92 
z
" clip-path="url(#p7d2ccebe46)" style="fill: #ff0000"/>
   </g>
   <g id="patch_10">
    <path d="M 487.132168 161.941672 
L 461.488402 161.941672 
L 457.439386 192.24 
L 440.943396 192.24 
L 464.501306 25.92 
L 484.064732 25.92 
L 507.622642 192.24 
L 491.140285 192.24 
L 487.132168 161.941672 
z
M 465.578317 131.073022 
L 483.001354 131.073022 
L 474.303468 64.915731 
L 465.578317 131.073022 
z
" clip-path="url(#p7d2ccebe46)" style="fill: #008000"/>
   </g>
   <g id="patch_11">
    <path d="M 577.811321 189.307238 
Q 571.08661 190.773619 563.85381 191.510158 
Q 556.621009 192.24 548.910007 192.24 
Q 531.485534 192.24 521.308805 187.874337 
Q 511.132075 183.508673 511.132075 176.042853 
Q 511.132075 168.489988 521.48813 164.157803 
Q 531.859129 159.825619 549.896298 159.825619 
Q 556.845166 159.825619 563.211226 160.41485 
Q 569.59223 160.997385 575.240987 162.149063 
L 575.240987 168.610512 
Q 569.412904 167.13074 563.644596 166.400897 
Q 557.876289 165.664359 552.078093 165.664359 
Q 541.348443 165.664359 535.535304 168.356072 
Q 529.722165 171.041089 529.722165 176.042853 
Q 529.722165 180.997747 535.326091 183.702852 
Q 540.930017 186.40126 551.24124 186.40126 
Q 554.050675 186.40126 556.456627 186.247257 
Q 558.86258 186.086557 560.775386 185.751767 
L 560.775386 179.68537 
L 549.791692 179.68537 
L 549.791692 174.281857 
L 577.811321 174.281857 
L 577.811321 189.307238 
z
" clip-path="url(#p7d2ccebe46)" style="fill: #ffa600"/>
   </g>
   <g id="patch_12">
    <path d="M 557.320847 149.857146 
L 531.677081 149.857146 
L 527.628065 159.825619 
L 511.132075 159.825619 
L 534.689985 105.104568 
L 554.253411 105.104568 
L 577.811321 159.825619 
L 561.328964 159.825619 
L 557.320847 149.857146 
z
M 535.766996 139.701032 
L 553.190033 139.701032 
L 544.492148 117.934578 
L 535.766996 139.701032 
z
" clip-path="url(#p7d2ccebe46)" style="fill: #008000"/>
   </g>
   <g id="patch_13">
    <path d="M 627.509527 191.670482 
L 601.86576 191.670482 
L 597.816745 192.24 
L 581.320755 192.24 
L 604.878664 189.113684 
L 624.44209 189.113684 
L 648 192.24 
L 631.517643 192.24 
L 627.509527 191.670482 
z
M 605.955675 191.090245 
L 623.378713 191.090245 
L 614.680827 189.846686 
L 605.955675 191.090245 
z
" clip-path="url(#p7d2ccebe46)" style="fill: #008000"/>
   </g>
   <g id="patch_14">
    <path d="M 648 188.689393 
Q 641.275289 188.901539 634.042489 189.008096 
Q 626.809689 189.113684 619.098687 189.113684 
Q 601.674213 189.113684 591.497484 188.482092 
Q 581.320755 187.8505 581.320755 186.7704 
Q 581.320755 185.677707 591.67681 185.050958 
Q 602.047808 184.424209 620.084978 184.424209 
Q 627.033846 184.424209 633.399905 184.509455 
Q 639.780909 184.593732 645.429666 184.760348 
L 645.429666 185.695143 
Q 639.601583 185.481061 633.833276 185.375472 
Q 628.064968 185.268915 622.266773 185.268915 
Q 611.537123 185.268915 605.723984 185.658333 
Q 599.910845 186.046781 599.910845 186.7704 
Q 599.910845 187.487237 605.51477 187.878592 
Q 611.118696 188.268978 621.42992 188.268978 
Q 624.239355 188.268978 626.645307 188.246698 
Q 629.051259 188.223449 630.964066 188.175014 
L 630.964066 187.297372 
L 619.980371 187.297372 
L 619.980371 186.515632 
L 648 186.515632 
L 648 188.689393 
z
" clip-path="url(#p7d2ccebe46)" style="fill: #ffa600"/>
   </g>
   <g id="patch_15">
    <path d="M 648 184.005254 
Q 642.422396 184.212921 636.391192 184.317961 
Q 630.359988 184.424209 623.791184 184.424209 
Q 604.20237 184.424209 592.761562 183.637008 
Q 581.320755 182.849806 581.320755 181.503594 
Q 581.320755 180.152553 592.761562 179.366559 
Q 604.20237 178.579357 623.791184 178.579357 
Q 630.359988 178.579357 636.391192 178.685605 
Q 642.422396 178.790646 648 178.998313 
L 648 180.16342 
Q 642.371996 179.888141 636.911992 179.76016 
Q 631.451989 179.632179 625.420785 179.632179 
Q 614.601577 179.632179 608.402373 180.130821 
Q 602.219969 180.628255 602.219969 181.503594 
Q 602.219969 182.375312 608.402373 182.873953 
Q 614.601577 183.371387 625.420785 183.371387 
Q 631.451989 183.371387 636.911992 183.243407 
Q 642.371996 183.114219 648 182.83894 
L 648 184.005254 
z
" clip-path="url(#p7d2ccebe46)" style="fill: #0000ff"/>
   </g>
   <g id="patch_16">
    <path d="M 581.320755 158.258302 
L 648 158.258302 
L 648 162.221474 
L 624.010978 162.221474 
L 624.010978 178.579357 
L 605.356297 178.579357 
L 605.356297 162.221474 
L 581.320755 162.221474 
L 581.320755 158.258302 
z
" clip-path="url(#p7d2ccebe46)" style="fill: #ff0000"/>
   </g>
   <g id="matplotlib.axis_1">
    <g id="xtick_1">
     <g id="line2d_2">
      <defs>
       <path id="mee214261a0" d="M 0 0 
L 0 3.5 
" style="stroke: #000000; stroke-width: 0.8"/>
      </defs>
      <g>
       <use xlink:href="#mee214261a0" x="123.339623" y="192.24" style="stroke: #000000; stroke-width: 0.8"/>
      </g>
     </g>
     <g id="text_1">
      <!-- 0 -->
      <g transform="translate(120.158373 206.838437) scale(0.1 -0.1)">
       <defs>
        <path id="DejaVuSans-30" d="M 2034 4250 
Q 1547 4250 1301 3770 
Q 1056 3291 1056 2328 
Q 1056 1369 1301 889 
Q 1547 409 2034 409 
Q 2525 409 2770 889 
Q 3016 1369 3016 2328 
Q 3016 3291 2770 3770 
Q 2525 4250 2034 4250 
z
M 2034 4750 
Q 2819 4750 3233 4129 
Q 3647 3509 3647 2328 
Q 3647 1150 3233 529 
Q 2819 -91 2034 -91 
Q 1250 -91 836 529 
Q 422 1150 422 2328 
Q 422 3509 836 4129 
Q 1250 4750 2034 4750 
z
" transform="scale(0.015625)"/>
       </defs>
       <use xlink:href="#DejaVuSans-30"/>
      </g>
     </g>
    </g>
    <g id="xtick_2">
     <g id="line2d_3">
      <g>
       <use xlink:href="#mee214261a0" x="193.528302" y="192.24" style="stroke: #000000; stroke-width: 0.8"/>
      </g>
     </g>
     <g id="text_2">
      <!-- 1 -->
      <g transform="translate(190.347052 206.838437) scale(0.1 -0.1)">
       <defs>
        <path id="DejaVuSans-31" d="M 794 531 
L 1825 531 
L 1825 4091 
L 703 3866 
L 703 4441 
L 1819 4666 
L 2450 4666 
L 2450 531 
L 3481 531 
L 3481 0 
L 794 0 
L 794 531 
z
" transform="scale(0.015625)"/>
       </defs>
       <use xlink:href="#DejaVuSans-31"/>
      </g>
     </g>
    </g>
    <g id="xtick_3">
     <g id="line2d_4">
      <g>
       <use xlink:href="#mee214261a0" x="263.716981" y="192.24" style="stroke: #000000; stroke-width: 0.8"/>
      </g>
     </g>
     <g id="text_3">
      <!-- 2 -->
      <g transform="translate(260.535731 206.838437) scale(0.1 -0.1)">
       <defs>
        <path id="DejaVuSans-32" d="M 1228 531 
L 3431 531 
L 3431 0 
L 469 0 
L 469 531 
Q 828 903 1448 1529 
Q 2069 2156 2228 2338 
Q 2531 2678 2651 2914 
Q 2772 3150 2772 3378 
Q 2772 3750 2511 3984 
Q 2250 4219 1831 4219 
Q 1534 4219 1204 4116 
Q 875 4013 500 3803 
L 500 4441 
Q 881 4594 1212 4672 
Q 1544 4750 1819 4750 
Q 2544 4750 2975 4387 
Q 3406 4025 3406 3419 
Q 3406 3131 3298 2873 
Q 3191 2616 2906 2266 
Q 2828 2175 2409 1742 
Q 1991 1309 1228 531 
z
" transform="scale(0.015625)"/>
       </defs>
       <use xlink:href="#DejaVuSans-32"/>
      </g>
     </g>
    </g>
    <g id="xtick_4">
     <g id="line2d_5">
      <g>
       <use xlink:href="#mee214261a0" x="333.90566" y="192.24" style="stroke: #000000; stroke-width: 0.8"/>
      </g>
     </g>
     <g id="text_4">
      <!-- 3 -->
      <g transform="translate(330.72441 206.838437) scale(0.1 -0.1)">
       <defs>
        <path id="DejaVuSans-33" d="M 2597 2516 
Q 3050 2419 3304 2112 
Q 3559 1806 3559 1356 
Q 3559 666 3084 287 
Q 2609 -91 1734 -91 
Q 1441 -91 1130 -33 
Q 819 25 488 141 
L 488 750 
Q 750 597 1062 519 
Q 1375 441 1716 441 
Q 2309 441 2620 675 
Q 2931 909 2931 1356 
Q 2931 1769 2642 2001 
Q 2353 2234 1838 2234 
L 1294 2234 
L 1294 2753 
L 1863 2753 
Q 2328 2753 2575 2939 
Q 2822 3125 2822 3475 
Q 2822 3834 2567 4026 
Q 2313 4219 1838 4219 
Q 1578 4219 1281 4162 
Q 984 4106 628 3988 
L 628 4550 
Q 988 4650 1302 4700 
Q 1616 4750 1894 4750 
Q 2613 4750 3031 4423 
Q 3450 4097 3450 3541 
Q 3450 3153 3228 2886 
Q 3006 2619 2597 2516 
z
" transform="scale(0.015625)"/>
       </defs>
       <use xlink:href="#DejaVuSans-33"/>
      </g>
     </g>
    </g>
    <g id="xtick_5">
     <g id="line2d_6">
      <g>
       <use xlink:href="#mee214261a0" x="404.09434" y="192.24" style="stroke: #000000; stroke-width: 0.8"/>
      </g>
     </g>
     <g id="text_5">
      <!-- 4 -->
      <g transform="translate(400.91309 206.838437) scale(0.1 -0.1)">
       <defs>
        <path id="DejaVuSans-34" d="M 2419 4116 
L 825 1625 
L 2419 1625 
L 2419 4116 
z
M 2253 4666 
L 3047 4666 
L 3047 1625 
L 3713 1625 
L 3713 1100 
L 3047 1100 
L 3047 0 
L 2419 0 
L 2419 1100 
L 313 1100 
L 313 1709 
L 2253 4666 
z
" transform="scale(0.015625)"/>
       </defs>
       <use xlink:href="#DejaVuSans-34"/>
      </g>
     </g>
    </g>
    <g id="xtick_6">
     <g id="line2d_7">
      <g>
       <use xlink:href="#mee214261a0" x="474.283019" y="192.24" style="stroke: #000000; stroke-width: 0.8"/>
      </g>
     </g>
     <g id="text_6">
      <!-- 5 -->
      <g transform="translate(471.101769 206.838437) scale(0.1 -0.1)">
       <defs>
        <path id="DejaVuSans-35" d="M 691 4666 
L 3169 4666 
L 3169 4134 
L 1269 4134 
L 1269 2991 
Q 1406 3038 1543 3061 
Q 1681 3084 1819 3084 
Q 2600 3084 3056 2656 
Q 3513 2228 3513 1497 
Q 3513 744 3044 326 
Q 2575 -91 1722 -91 
Q 1428 -91 1123 -41 
Q 819 9 494 109 
L 494 744 
Q 775 591 1075 516 
Q 1375 441 1709 441 
Q 2250 441 2565 725 
Q 2881 1009 2881 1497 
Q 2881 1984 2565 2268 
Q 2250 2553 1709 2553 
Q 1456 2553 1204 2497 
Q 953 2441 691 2322 
L 691 4666 
z
" transform="scale(0.015625)"/>
       </defs>
       <use xlink:href="#DejaVuSans-35"/>
      </g>
     </g>
    </g>
    <g id="xtick_7">
     <g id="line2d_8">
      <g>
       <use xlink:href="#mee214261a0" x="544.471698" y="192.24" style="stroke: #000000; stroke-width: 0.8"/>
      </g>
     </g>
     <g id="text_7">
      <!-- 6 -->
      <g transform="translate(541.290448 206.838437) scale(0.1 -0.1)">
       <defs>
        <path id="DejaVuSans-36" d="M 2113 2584 
Q 1688 2584 1439 2293 
Q 1191 2003 1191 1497 
Q 1191 994 1439 701 
Q 1688 409 2113 409 
Q 2538 409 2786 701 
Q 3034 994 3034 1497 
Q 3034 2003 2786 2293 
Q 2538 2584 2113 2584 
z
M 3366 4563 
L 3366 3988 
Q 3128 4100 2886 4159 
Q 2644 4219 2406 4219 
Q 1781 4219 1451 3797 
Q 1122 3375 1075 2522 
Q 1259 2794 1537 2939 
Q 1816 3084 2150 3084 
Q 2853 3084 3261 2657 
Q 3669 2231 3669 1497 
Q 3669 778 3244 343 
Q 2819 -91 2113 -91 
Q 1303 -91 875 529 
Q 447 1150 447 2328 
Q 447 3434 972 4092 
Q 1497 4750 2381 4750 
Q 2619 4750 2861 4703 
Q 3103 4656 3366 4563 
z
" transform="scale(0.015625)"/>
       </defs>
       <use xlink:href="#DejaVuSans-36"/>
      </g>
     </g>
    </g>
    <g id="xtick_8">
     <g id="line2d_9">
      <g>
       <use xlink:href="#mee214261a0" x="614.660377" y="192.24" style="stroke: #000000; stroke-width: 0.8"/>
      </g>
     </g>
     <g id="text_8">
      <!-- 7 -->
      <g transform="translate(611.479127 206.838437) scale(0.1 -0.1)">
       <defs>
        <path id="DejaVuSans-37" d="M 525 4666 
L 3525 4666 
L 3525 4397 
L 1831 0 
L 1172 0 
L 2766 4134 
L 525 4134 
L 525 4666 
z
" transform="scale(0.015625)"/>
       </defs>
       <use xlink:href="#DejaVuSans-37"/>
      </g>
     </g>
    </g>
   </g>
   <g id="matplotlib.axis_2">
    <g id="ytick_1">
     <g id="line2d_10">
      <defs>
       <path id="m525b04bc61" d="M 0 0 
L -3.5 0 
" style="stroke: #000000; stroke-width: 0.8"/>
      </defs>
      <g>
       <use xlink:href="#m525b04bc61" x="90" y="192.24" style="stroke: #000000; stroke-width: 0.8"/>
      </g>
     </g>
     <g id="text_9">
      <!-- 0.00 -->
      <g transform="translate(60.734375 196.039219) scale(0.1 -0.1)">
       <defs>
        <path id="DejaVuSans-2e" d="M 684 794 
L 1344 794 
L 1344 0 
L 684 0 
L 684 794 
z
" transform="scale(0.015625)"/>
       </defs>
       <use xlink:href="#DejaVuSans-30"/>
       <use xlink:href="#DejaVuSans-2e" x="63.623047"/>
       <use xlink:href="#DejaVuSans-30" x="95.410156"/>
       <use xlink:href="#DejaVuSans-30" x="159.033203"/>
      </g>
     </g>
    </g>
    <g id="ytick_2">
     <g id="line2d_11">
      <g>
       <use xlink:href="#m525b04bc61" x="90" y="171.45" style="stroke: #000000; stroke-width: 0.8"/>
      </g>
     </g>
     <g id="text_10">
      <!-- 0.25 -->
      <g transform="translate(60.734375 175.249219) scale(0.1 -0.1)">
       <use xlink:href="#DejaVuSans-30"/>
       <use xlink:href="#DejaVuSans-2e" x="63.623047"/>
       <use xlink:href="#DejaVuSans-32" x="95.410156"/>
       <use xlink:href="#DejaVuSans-35" x="159.033203"/>
      </g>
     </g>
    </g>
    <g id="ytick_3">
     <g id="line2d_12">
      <g>
       <use xlink:href="#m525b04bc61" x="90" y="150.66" style="stroke: #000000; stroke-width: 0.8"/>
      </g>
     </g>
     <g id="text_11">
      <!-- 0.50 -->
      <g transform="translate(60.734375 154.459219) scale(0.1 -0.1)">
       <use xlink:href="#DejaVuSans-30"/>
       <use xlink:href="#DejaVuSans-2e" x="63.623047"/>
       <use xlink:href="#DejaVuSans-35" x="95.410156"/>
       <use xlink:href="#DejaVuSans-30" x="159.033203"/>
      </g>
     </g>
    </g>
    <g id="ytick_4">
     <g id="line2d_13">
      <g>
       <use xlink:href="#m525b04bc61" x="90" y="129.87" style="stroke: #000000; stroke-width: 0.8"/>
      </g>
     </g>
     <g id="text_12">
      <!-- 0.75 -->
      <g transform="translate(60.734375 133.669219) scale(0.1 -0.1)">
       <use xlink:href="#DejaVuSans-30"/>
       <use xlink:href="#DejaVuSans-2e" x="63.623047"/>
       <use xlink:href="#DejaVuSans-37" x="95.410156"/>
       <use xlink:href="#DejaVuSans-35" x="159.033203"/>
      </g>
     </g>
    </g>
    <g id="ytick_5">
     <g id="line2d_14">
      <g>
       <use xlink:href="#m525b04bc61" x="90" y="109.08" style="stroke: #000000; stroke-width: 0.8"/>
      </g>
     </g>
     <g id="text_13">
      <!-- 1.00 -->
      <g transform="translate(60.734375 112.879219) scale(0.1 -0.1)">
       <use xlink:href="#DejaVuSans-31"/>
       <use xlink:href="#DejaVuSans-2e" x="63.623047"/>
       <use xlink:href="#DejaVuSans-30" x="95.410156"/>
       <use xlink:href="#DejaVuSans-30" x="159.033203"/>
      </g>
     </g>
    </g>
    <g id="ytick_6">
     <g id="line2d_15">
      <g>
       <use xlink:href="#m525b04bc61" x="90" y="88.29" style="stroke: #000000; stroke-width: 0.8"/>
      </g>
     </g>
     <g id="text_14">
      <!-- 1.25 -->
      <g transform="translate(60.734375 92.089219) scale(0.1 -0.1)">
       <use xlink:href="#DejaVuSans-31"/>
       <use xlink:href="#DejaVuSans-2e" x="63.623047"/>
       <use xlink:href="#DejaVuSans-32" x="95.410156"/>
       <use xlink:href="#DejaVuSans-35" x="159.033203"/>
      </g>
     </g>
    </g>
    <g id="ytick_7">
     <g id="line2d_16">
      <g>
       <use xlink:href="#m525b04bc61" x="90" y="67.5" style="stroke: #000000; stroke-width: 0.8"/>
      </g>
     </g>
     <g id="text_15">
      <!-- 1.50 -->
      <g transform="translate(60.734375 71.299219) scale(0.1 -0.1)">
       <use xlink:href="#DejaVuSans-31"/>
       <use xlink:href="#DejaVuSans-2e" x="63.623047"/>
       <use xlink:href="#DejaVuSans-35" x="95.410156"/>
       <use xlink:href="#DejaVuSans-30" x="159.033203"/>
      </g>
     </g>
    </g>
    <g id="ytick_8">
     <g id="line2d_17">
      <g>
       <use xlink:href="#m525b04bc61" x="90" y="46.71" style="stroke: #000000; stroke-width: 0.8"/>
      </g>
     </g>
     <g id="text_16">
      <!-- 1.75 -->
      <g transform="translate(60.734375 50.509219) scale(0.1 -0.1)">
       <use xlink:href="#DejaVuSans-31"/>
       <use xlink:href="#DejaVuSans-2e" x="63.623047"/>
       <use xlink:href="#DejaVuSans-37" x="95.410156"/>
       <use xlink:href="#DejaVuSans-35" x="159.033203"/>
      </g>
     </g>
    </g>
    <g id="ytick_9">
     <g id="line2d_18">
      <g>
       <use xlink:href="#m525b04bc61" x="90" y="25.92" style="stroke: #000000; stroke-width: 0.8"/>
      </g>
     </g>
     <g id="text_17">
      <!-- 2.00 -->
      <g transform="translate(60.734375 29.719219) scale(0.1 -0.1)">
       <use xlink:href="#DejaVuSans-32"/>
       <use xlink:href="#DejaVuSans-2e" x="63.623047"/>
       <use xlink:href="#DejaVuSans-30" x="95.410156"/>
       <use xlink:href="#DejaVuSans-30" x="159.033203"/>
      </g>
     </g>
    </g>
   </g>
  </g>
 </g>
 <defs>
  <clipPath id="p7d2ccebe46">
   <rect x="90" y="25.92" width="558" height="166.32"/>
  </clipPath>
 </defs>
</svg>
